<?xml version="1.0" encoding="utf-8"?>
<svg xmlns="http://www.w3.org/2000/svg" xmlns:xlink="http://www.w3.org/1999/xlink" width="600" height="400" viewBox="0 0 2400 1600">
<defs>
  <clipPath id="clip790">
    <rect x="0" y="0" width="2400" height="1600"/>
  </clipPath>
</defs>
<path clip-path="url(#clip790)" d="M0 1600 L2400 1600 L2400 0 L0 0  Z" fill="#ffffff" fill-rule="evenodd" fill-opacity="1"/>
<defs>
  <clipPath id="clip791">
    <rect x="480" y="0" width="1681" height="1600"/>
  </clipPath>
</defs>
<path clip-path="url(#clip790)" d="M193.936 1423.18 L2352.76 1423.18 L2352.76 47.2441 L193.936 47.2441  Z" fill="#ffffff" fill-rule="evenodd" fill-opacity="1"/>
<defs>
  <clipPath id="clip792">
    <rect x="193" y="47" width="2160" height="1377"/>
  </clipPath>
</defs>
<polyline clip-path="url(#clip792)" style="stroke:#000000; stroke-linecap:round; stroke-linejoin:round; stroke-width:2; stroke-opacity:0.1; fill:none" points="193.936,1423.18 193.936,47.2441 "/>
<polyline clip-path="url(#clip792)" style="stroke:#000000; stroke-linecap:round; stroke-linejoin:round; stroke-width:2; stroke-opacity:0.1; fill:none" points="733.641,1423.18 733.641,47.2441 "/>
<polyline clip-path="url(#clip792)" style="stroke:#000000; stroke-linecap:round; stroke-linejoin:round; stroke-width:2; stroke-opacity:0.1; fill:none" points="1273.35,1423.18 1273.35,47.2441 "/>
<polyline clip-path="url(#clip792)" style="stroke:#000000; stroke-linecap:round; stroke-linejoin:round; stroke-width:2; stroke-opacity:0.1; fill:none" points="1813.05,1423.18 1813.05,47.2441 "/>
<polyline clip-path="url(#clip792)" style="stroke:#000000; stroke-linecap:round; stroke-linejoin:round; stroke-width:2; stroke-opacity:0.1; fill:none" points="2352.76,1423.18 2352.76,47.2441 "/>
<polyline clip-path="url(#clip792)" style="stroke:#000000; stroke-linecap:round; stroke-linejoin:round; stroke-width:2; stroke-opacity:0.1; fill:none" points="193.936,1379.76 2352.76,1379.76 "/>
<polyline clip-path="url(#clip792)" style="stroke:#000000; stroke-linecap:round; stroke-linejoin:round; stroke-width:2; stroke-opacity:0.1; fill:none" points="193.936,1015.83 2352.76,1015.83 "/>
<polyline clip-path="url(#clip792)" style="stroke:#000000; stroke-linecap:round; stroke-linejoin:round; stroke-width:2; stroke-opacity:0.1; fill:none" points="193.936,651.897 2352.76,651.897 "/>
<polyline clip-path="url(#clip792)" style="stroke:#000000; stroke-linecap:round; stroke-linejoin:round; stroke-width:2; stroke-opacity:0.1; fill:none" points="193.936,287.965 2352.76,287.965 "/>
<polyline clip-path="url(#clip790)" style="stroke:#000000; stroke-linecap:round; stroke-linejoin:round; stroke-width:4; stroke-opacity:1; fill:none" points="193.936,1423.18 2352.76,1423.18 "/>
<polyline clip-path="url(#clip790)" style="stroke:#000000; stroke-linecap:round; stroke-linejoin:round; stroke-width:4; stroke-opacity:1; fill:none" points="193.936,1423.18 193.936,1404.28 "/>
<polyline clip-path="url(#clip790)" style="stroke:#000000; stroke-linecap:round; stroke-linejoin:round; stroke-width:4; stroke-opacity:1; fill:none" points="733.641,1423.18 733.641,1404.28 "/>
<polyline clip-path="url(#clip790)" style="stroke:#000000; stroke-linecap:round; stroke-linejoin:round; stroke-width:4; stroke-opacity:1; fill:none" points="1273.35,1423.18 1273.35,1404.28 "/>
<polyline clip-path="url(#clip790)" style="stroke:#000000; stroke-linecap:round; stroke-linejoin:round; stroke-width:4; stroke-opacity:1; fill:none" points="1813.05,1423.18 1813.05,1404.28 "/>
<polyline clip-path="url(#clip790)" style="stroke:#000000; stroke-linecap:round; stroke-linejoin:round; stroke-width:4; stroke-opacity:1; fill:none" points="2352.76,1423.18 2352.76,1404.28 "/>
<path clip-path="url(#clip790)" d="M171.32 1454.1 Q167.709 1454.1 165.881 1457.66 Q164.075 1461.2 164.075 1468.33 Q164.075 1475.44 165.881 1479.01 Q167.709 1482.55 171.32 1482.55 Q174.955 1482.55 176.76 1479.01 Q178.589 1475.44 178.589 1468.33 Q178.589 1461.2 176.76 1457.66 Q174.955 1454.1 171.32 1454.1 M171.32 1450.39 Q177.131 1450.39 180.186 1455 Q183.265 1459.58 183.265 1468.33 Q183.265 1477.06 180.186 1481.67 Q177.131 1486.25 171.32 1486.25 Q165.51 1486.25 162.432 1481.67 Q159.376 1477.06 159.376 1468.33 Q159.376 1459.58 162.432 1455 Q165.51 1450.39 171.32 1450.39 Z" fill="#000000" fill-rule="nonzero" fill-opacity="1" /><path clip-path="url(#clip790)" d="M191.482 1479.7 L196.367 1479.7 L196.367 1485.58 L191.482 1485.58 L191.482 1479.7 Z" fill="#000000" fill-rule="nonzero" fill-opacity="1" /><path clip-path="url(#clip790)" d="M216.552 1454.1 Q212.941 1454.1 211.112 1457.66 Q209.306 1461.2 209.306 1468.33 Q209.306 1475.44 211.112 1479.01 Q212.941 1482.55 216.552 1482.55 Q220.186 1482.55 221.991 1479.01 Q223.82 1475.44 223.82 1468.33 Q223.82 1461.2 221.991 1457.66 Q220.186 1454.1 216.552 1454.1 M216.552 1450.39 Q222.362 1450.39 225.417 1455 Q228.496 1459.58 228.496 1468.33 Q228.496 1477.06 225.417 1481.67 Q222.362 1486.25 216.552 1486.25 Q210.741 1486.25 207.663 1481.67 Q204.607 1477.06 204.607 1468.33 Q204.607 1459.58 207.663 1455 Q210.741 1450.39 216.552 1450.39 Z" fill="#000000" fill-rule="nonzero" fill-opacity="1" /><path clip-path="url(#clip790)" d="M711.523 1454.1 Q707.912 1454.1 706.083 1457.66 Q704.278 1461.2 704.278 1468.33 Q704.278 1475.44 706.083 1479.01 Q707.912 1482.55 711.523 1482.55 Q715.157 1482.55 716.963 1479.01 Q718.792 1475.44 718.792 1468.33 Q718.792 1461.2 716.963 1457.66 Q715.157 1454.1 711.523 1454.1 M711.523 1450.39 Q717.333 1450.39 720.389 1455 Q723.467 1459.58 723.467 1468.33 Q723.467 1477.06 720.389 1481.67 Q717.333 1486.25 711.523 1486.25 Q705.713 1486.25 702.634 1481.67 Q699.579 1477.06 699.579 1468.33 Q699.579 1459.58 702.634 1455 Q705.713 1450.39 711.523 1450.39 Z" fill="#000000" fill-rule="nonzero" fill-opacity="1" /><path clip-path="url(#clip790)" d="M731.685 1479.7 L736.569 1479.7 L736.569 1485.58 L731.685 1485.58 L731.685 1479.7 Z" fill="#000000" fill-rule="nonzero" fill-opacity="1" /><path clip-path="url(#clip790)" d="M746.801 1451.02 L765.157 1451.02 L765.157 1454.96 L751.083 1454.96 L751.083 1463.43 Q752.102 1463.08 753.12 1462.92 Q754.139 1462.73 755.157 1462.73 Q760.944 1462.73 764.324 1465.9 Q767.703 1469.08 767.703 1474.49 Q767.703 1480.07 764.231 1483.17 Q760.759 1486.25 754.439 1486.25 Q752.264 1486.25 749.995 1485.88 Q747.75 1485.51 745.342 1484.77 L745.342 1480.07 Q747.426 1481.2 749.648 1481.76 Q751.87 1482.32 754.347 1482.32 Q758.351 1482.32 760.689 1480.21 Q763.027 1478.1 763.027 1474.49 Q763.027 1470.88 760.689 1468.77 Q758.351 1466.67 754.347 1466.67 Q752.472 1466.67 750.597 1467.08 Q748.745 1467.5 746.801 1468.38 L746.801 1451.02 Z" fill="#000000" fill-rule="nonzero" fill-opacity="1" /><path clip-path="url(#clip790)" d="M1240.5 1481.64 L1248.14 1481.64 L1248.14 1455.28 L1239.83 1456.95 L1239.83 1452.69 L1248.09 1451.02 L1252.77 1451.02 L1252.77 1481.64 L1260.41 1481.64 L1260.41 1485.58 L1240.5 1485.58 L1240.5 1481.64 Z" fill="#000000" fill-rule="nonzero" fill-opacity="1" /><path clip-path="url(#clip790)" d="M1269.85 1479.7 L1274.73 1479.7 L1274.73 1485.58 L1269.85 1485.58 L1269.85 1479.7 Z" fill="#000000" fill-rule="nonzero" fill-opacity="1" /><path clip-path="url(#clip790)" d="M1294.92 1454.1 Q1291.31 1454.1 1289.48 1457.66 Q1287.67 1461.2 1287.67 1468.33 Q1287.67 1475.44 1289.48 1479.01 Q1291.31 1482.55 1294.92 1482.55 Q1298.55 1482.55 1300.36 1479.01 Q1302.19 1475.44 1302.19 1468.33 Q1302.19 1461.2 1300.36 1457.66 Q1298.55 1454.1 1294.92 1454.1 M1294.92 1450.39 Q1300.73 1450.39 1303.79 1455 Q1306.86 1459.58 1306.86 1468.33 Q1306.86 1477.06 1303.79 1481.67 Q1300.73 1486.25 1294.92 1486.25 Q1289.11 1486.25 1286.03 1481.67 Q1282.98 1477.06 1282.98 1468.33 Q1282.98 1459.58 1286.03 1455 Q1289.11 1450.39 1294.92 1450.39 Z" fill="#000000" fill-rule="nonzero" fill-opacity="1" /><path clip-path="url(#clip790)" d="M1780.7 1481.64 L1788.34 1481.64 L1788.34 1455.28 L1780.03 1456.95 L1780.03 1452.69 L1788.29 1451.02 L1792.97 1451.02 L1792.97 1481.64 L1800.61 1481.64 L1800.61 1485.58 L1780.7 1485.58 L1780.7 1481.64 Z" fill="#000000" fill-rule="nonzero" fill-opacity="1" /><path clip-path="url(#clip790)" d="M1810.05 1479.7 L1814.94 1479.7 L1814.94 1485.58 L1810.05 1485.58 L1810.05 1479.7 Z" fill="#000000" fill-rule="nonzero" fill-opacity="1" /><path clip-path="url(#clip790)" d="M1825.17 1451.02 L1843.53 1451.02 L1843.53 1454.96 L1829.45 1454.96 L1829.45 1463.43 Q1830.47 1463.08 1831.49 1462.92 Q1832.51 1462.73 1833.53 1462.73 Q1839.31 1462.73 1842.69 1465.9 Q1846.07 1469.08 1846.07 1474.49 Q1846.07 1480.07 1842.6 1483.17 Q1839.13 1486.25 1832.81 1486.25 Q1830.63 1486.25 1828.36 1485.88 Q1826.12 1485.51 1823.71 1484.77 L1823.71 1480.07 Q1825.79 1481.2 1828.02 1481.76 Q1830.24 1482.32 1832.72 1482.32 Q1836.72 1482.32 1839.06 1480.21 Q1841.4 1478.1 1841.4 1474.49 Q1841.4 1470.88 1839.06 1468.77 Q1836.72 1466.67 1832.72 1466.67 Q1830.84 1466.67 1828.97 1467.08 Q1827.11 1467.5 1825.17 1468.38 L1825.17 1451.02 Z" fill="#000000" fill-rule="nonzero" fill-opacity="1" /><path clip-path="url(#clip790)" d="M2323.99 1481.64 L2340.31 1481.64 L2340.31 1485.58 L2318.37 1485.58 L2318.37 1481.64 Q2321.03 1478.89 2325.61 1474.26 Q2330.22 1469.61 2331.4 1468.27 Q2333.65 1465.74 2334.53 1464.01 Q2335.43 1462.25 2335.43 1460.56 Q2335.43 1457.8 2333.49 1456.07 Q2331.56 1454.33 2328.46 1454.33 Q2326.26 1454.33 2323.81 1455.09 Q2321.38 1455.86 2318.6 1457.41 L2318.6 1452.69 Q2321.43 1451.55 2323.88 1450.97 Q2326.33 1450.39 2328.37 1450.39 Q2333.74 1450.39 2336.93 1453.08 Q2340.13 1455.77 2340.13 1460.26 Q2340.13 1462.39 2339.32 1464.31 Q2338.53 1466.2 2336.42 1468.8 Q2335.85 1469.47 2332.74 1472.69 Q2329.64 1475.88 2323.99 1481.64 Z" fill="#000000" fill-rule="nonzero" fill-opacity="1" /><path clip-path="url(#clip790)" d="M2350.13 1479.7 L2355.01 1479.7 L2355.01 1485.58 L2350.13 1485.58 L2350.13 1479.7 Z" fill="#000000" fill-rule="nonzero" fill-opacity="1" /><path clip-path="url(#clip790)" d="M2375.2 1454.1 Q2371.59 1454.1 2369.76 1457.66 Q2367.95 1461.2 2367.95 1468.33 Q2367.95 1475.44 2369.76 1479.01 Q2371.59 1482.55 2375.2 1482.55 Q2378.83 1482.55 2380.64 1479.01 Q2382.47 1475.44 2382.47 1468.33 Q2382.47 1461.2 2380.64 1457.66 Q2378.83 1454.1 2375.2 1454.1 M2375.2 1450.39 Q2381.01 1450.39 2384.06 1455 Q2387.14 1459.58 2387.14 1468.33 Q2387.14 1477.06 2384.06 1481.67 Q2381.01 1486.25 2375.2 1486.25 Q2369.39 1486.25 2366.31 1481.67 Q2363.25 1477.06 2363.25 1468.33 Q2363.25 1459.58 2366.31 1455 Q2369.39 1450.39 2375.2 1450.39 Z" fill="#000000" fill-rule="nonzero" fill-opacity="1" /><path clip-path="url(#clip790)" d="M1272.41 1522.27 L1272.41 1532.4 L1284.47 1532.4 L1284.47 1536.95 L1272.41 1536.95 L1272.41 1556.3 Q1272.41 1560.66 1273.58 1561.9 Q1274.79 1563.14 1278.45 1563.14 L1284.47 1563.14 L1284.47 1568.04 L1278.45 1568.04 Q1271.67 1568.04 1269.1 1565.53 Q1266.52 1562.98 1266.52 1556.3 L1266.52 1536.95 L1262.22 1536.95 L1262.22 1532.4 L1266.52 1532.4 L1266.52 1522.27 L1272.41 1522.27 Z" fill="#000000" fill-rule="nonzero" fill-opacity="1" /><polyline clip-path="url(#clip790)" style="stroke:#000000; stroke-linecap:round; stroke-linejoin:round; stroke-width:4; stroke-opacity:1; fill:none" points="193.936,1423.18 193.936,47.2441 "/>
<polyline clip-path="url(#clip790)" style="stroke:#000000; stroke-linecap:round; stroke-linejoin:round; stroke-width:4; stroke-opacity:1; fill:none" points="193.936,1379.76 212.834,1379.76 "/>
<polyline clip-path="url(#clip790)" style="stroke:#000000; stroke-linecap:round; stroke-linejoin:round; stroke-width:4; stroke-opacity:1; fill:none" points="193.936,1015.83 212.834,1015.83 "/>
<polyline clip-path="url(#clip790)" style="stroke:#000000; stroke-linecap:round; stroke-linejoin:round; stroke-width:4; stroke-opacity:1; fill:none" points="193.936,651.897 212.834,651.897 "/>
<polyline clip-path="url(#clip790)" style="stroke:#000000; stroke-linecap:round; stroke-linejoin:round; stroke-width:4; stroke-opacity:1; fill:none" points="193.936,287.965 212.834,287.965 "/>
<path clip-path="url(#clip790)" d="M51.9875 1380.21 L81.6633 1380.21 L81.6633 1384.15 L51.9875 1384.15 L51.9875 1380.21 Z" fill="#000000" fill-rule="nonzero" fill-opacity="1" /><path clip-path="url(#clip790)" d="M92.566 1393.11 L100.205 1393.11 L100.205 1366.74 L91.8947 1368.41 L91.8947 1364.15 L100.159 1362.48 L104.834 1362.48 L104.834 1393.11 L112.473 1393.11 L112.473 1397.04 L92.566 1397.04 L92.566 1393.11 Z" fill="#000000" fill-rule="nonzero" fill-opacity="1" /><path clip-path="url(#clip790)" d="M121.918 1391.16 L126.802 1391.16 L126.802 1397.04 L121.918 1397.04 L121.918 1391.16 Z" fill="#000000" fill-rule="nonzero" fill-opacity="1" /><path clip-path="url(#clip790)" d="M137.033 1362.48 L155.39 1362.48 L155.39 1366.42 L141.316 1366.42 L141.316 1374.89 Q142.334 1374.54 143.353 1374.38 Q144.371 1374.19 145.39 1374.19 Q151.177 1374.19 154.556 1377.37 Q157.936 1380.54 157.936 1385.95 Q157.936 1391.53 154.464 1394.63 Q150.992 1397.71 144.672 1397.71 Q142.496 1397.71 140.228 1397.34 Q137.982 1396.97 135.575 1396.23 L135.575 1391.53 Q137.658 1392.67 139.881 1393.22 Q142.103 1393.78 144.58 1393.78 Q148.584 1393.78 150.922 1391.67 Q153.26 1389.57 153.26 1385.95 Q153.26 1382.34 150.922 1380.24 Q148.584 1378.13 144.58 1378.13 Q142.705 1378.13 140.83 1378.55 Q138.978 1378.96 137.033 1379.84 L137.033 1362.48 Z" fill="#000000" fill-rule="nonzero" fill-opacity="1" /><path clip-path="url(#clip790)" d="M50.9921 1016.28 L80.6679 1016.28 L80.6679 1020.22 L50.9921 1020.22 L50.9921 1016.28 Z" fill="#000000" fill-rule="nonzero" fill-opacity="1" /><path clip-path="url(#clip790)" d="M91.5706 1029.17 L99.2095 1029.17 L99.2095 1002.81 L90.8993 1004.48 L90.8993 1000.22 L99.1632 998.549 L103.839 998.549 L103.839 1029.17 L111.478 1029.17 L111.478 1033.11 L91.5706 1033.11 L91.5706 1029.17 Z" fill="#000000" fill-rule="nonzero" fill-opacity="1" /><path clip-path="url(#clip790)" d="M120.922 1027.23 L125.807 1027.23 L125.807 1033.11 L120.922 1033.11 L120.922 1027.23 Z" fill="#000000" fill-rule="nonzero" fill-opacity="1" /><path clip-path="url(#clip790)" d="M145.992 1001.63 Q142.381 1001.63 140.552 1005.19 Q138.746 1008.73 138.746 1015.86 Q138.746 1022.97 140.552 1026.54 Q142.381 1030.08 145.992 1030.08 Q149.626 1030.08 151.431 1026.54 Q153.26 1022.97 153.26 1015.86 Q153.26 1008.73 151.431 1005.19 Q149.626 1001.63 145.992 1001.63 M145.992 997.924 Q151.802 997.924 154.857 1002.53 Q157.936 1007.11 157.936 1015.86 Q157.936 1024.59 154.857 1029.2 Q151.802 1033.78 145.992 1033.78 Q140.181 1033.78 137.103 1029.2 Q134.047 1024.59 134.047 1015.86 Q134.047 1007.11 137.103 1002.53 Q140.181 997.924 145.992 997.924 Z" fill="#000000" fill-rule="nonzero" fill-opacity="1" /><path clip-path="url(#clip790)" d="M51.9875 652.348 L81.6633 652.348 L81.6633 656.284 L51.9875 656.284 L51.9875 652.348 Z" fill="#000000" fill-rule="nonzero" fill-opacity="1" /><path clip-path="url(#clip790)" d="M101.756 637.696 Q98.1447 637.696 96.316 641.26 Q94.5104 644.802 94.5104 651.932 Q94.5104 659.038 96.316 662.603 Q98.1447 666.145 101.756 666.145 Q105.39 666.145 107.196 662.603 Q109.024 659.038 109.024 651.932 Q109.024 644.802 107.196 641.26 Q105.39 637.696 101.756 637.696 M101.756 633.992 Q107.566 633.992 110.621 638.598 Q113.7 643.182 113.7 651.932 Q113.7 660.658 110.621 665.265 Q107.566 669.848 101.756 669.848 Q95.9456 669.848 92.8669 665.265 Q89.8114 660.658 89.8114 651.932 Q89.8114 643.182 92.8669 638.598 Q95.9456 633.992 101.756 633.992 Z" fill="#000000" fill-rule="nonzero" fill-opacity="1" /><path clip-path="url(#clip790)" d="M121.918 663.297 L126.802 663.297 L126.802 669.177 L121.918 669.177 L121.918 663.297 Z" fill="#000000" fill-rule="nonzero" fill-opacity="1" /><path clip-path="url(#clip790)" d="M137.033 634.617 L155.39 634.617 L155.39 638.552 L141.316 638.552 L141.316 647.024 Q142.334 646.677 143.353 646.515 Q144.371 646.33 145.39 646.33 Q151.177 646.33 154.556 649.501 Q157.936 652.672 157.936 658.089 Q157.936 663.668 154.464 666.77 Q150.992 669.848 144.672 669.848 Q142.496 669.848 140.228 669.478 Q137.982 669.108 135.575 668.367 L135.575 663.668 Q137.658 664.802 139.881 665.358 Q142.103 665.913 144.58 665.913 Q148.584 665.913 150.922 663.807 Q153.26 661.7 153.26 658.089 Q153.26 654.478 150.922 652.372 Q148.584 650.265 144.58 650.265 Q142.705 650.265 140.83 650.682 Q138.978 651.098 137.033 651.978 L137.033 634.617 Z" fill="#000000" fill-rule="nonzero" fill-opacity="1" /><path clip-path="url(#clip790)" d="M100.76 273.763 Q97.1493 273.763 95.3206 277.328 Q93.515 280.87 93.515 287.999 Q93.515 295.106 95.3206 298.67 Q97.1493 302.212 100.76 302.212 Q104.395 302.212 106.2 298.67 Q108.029 295.106 108.029 287.999 Q108.029 280.87 106.2 277.328 Q104.395 273.763 100.76 273.763 M100.76 270.06 Q106.571 270.06 109.626 274.666 Q112.705 279.249 112.705 287.999 Q112.705 296.726 109.626 301.333 Q106.571 305.916 100.76 305.916 Q94.9502 305.916 91.8715 301.333 Q88.816 296.726 88.816 287.999 Q88.816 279.249 91.8715 274.666 Q94.9502 270.06 100.76 270.06 Z" fill="#000000" fill-rule="nonzero" fill-opacity="1" /><path clip-path="url(#clip790)" d="M120.922 299.365 L125.807 299.365 L125.807 305.245 L120.922 305.245 L120.922 299.365 Z" fill="#000000" fill-rule="nonzero" fill-opacity="1" /><path clip-path="url(#clip790)" d="M145.992 273.763 Q142.381 273.763 140.552 277.328 Q138.746 280.87 138.746 287.999 Q138.746 295.106 140.552 298.67 Q142.381 302.212 145.992 302.212 Q149.626 302.212 151.431 298.67 Q153.26 295.106 153.26 287.999 Q153.26 280.87 151.431 277.328 Q149.626 273.763 145.992 273.763 M145.992 270.06 Q151.802 270.06 154.857 274.666 Q157.936 279.249 157.936 287.999 Q157.936 296.726 154.857 301.333 Q151.802 305.916 145.992 305.916 Q140.181 305.916 137.103 301.333 Q134.047 296.726 134.047 287.999 Q134.047 279.249 137.103 274.666 Q140.181 270.06 145.992 270.06 Z" fill="#000000" fill-rule="nonzero" fill-opacity="1" /><polyline clip-path="url(#clip792)" style="stroke:#009af9; stroke-linecap:round; stroke-linejoin:round; stroke-width:4; stroke-opacity:1; fill:none" points="193.936,1384.24 196.097,1377.17 198.258,1370.17 200.419,1363.23 202.58,1356.37 204.741,1349.58 206.902,1342.85 209.063,1336.19 211.224,1329.6 213.385,1323.07 215.546,1316.61 217.707,1310.21 219.868,1303.88 222.029,1297.6 224.19,1291.4 226.351,1285.25 228.512,1279.16 230.673,1273.14 232.834,1267.17 234.995,1261.27 237.156,1255.42 239.317,1249.63 241.478,1243.9 243.639,1238.23 245.8,1232.61 247.961,1227.05 250.122,1221.54 252.282,1216.09 254.443,1210.69 256.604,1205.35 258.765,1200.06 260.926,1194.82 263.087,1189.64 265.248,1184.5 267.409,1179.42 269.57,1174.39 271.731,1169.41 273.892,1164.48 276.053,1159.59 278.214,1154.76 280.375,1149.97 282.536,1145.23 284.697,1140.54 286.858,1135.9 289.019,1131.3 291.18,1126.75 293.341,1122.24 295.502,1117.78 297.663,1113.36 299.824,1108.99 301.985,1104.66 304.146,1100.37 306.307,1096.13 308.468,1091.92 310.629,1087.76 312.79,1083.64 314.951,1079.57 317.112,1075.53 319.273,1071.53 321.434,1067.57 323.595,1063.66 325.756,1059.78 327.917,1055.94 330.078,1052.14 332.239,1048.37 334.4,1044.65 336.561,1040.96 338.722,1037.3 340.883,1033.69 343.044,1030.11 345.205,1026.56 347.366,1023.05 349.527,1019.58 351.688,1016.14 353.849,1012.73 356.01,1009.36 358.171,1006.02 360.332,1002.72 362.493,999.449 364.653,996.209 366.814,993.002 368.975,989.827 371.136,986.684 373.297,983.572 375.458,980.491 377.619,977.441 379.78,974.421 381.941,971.431 384.102,968.47 386.263,965.54 388.424,962.638 390.585,959.765 392.746,956.921 394.907,954.106 397.068,951.318 399.229,948.558 401.39,945.826 403.551,943.121 405.712,940.442 407.873,937.791 410.034,935.166 412.195,932.567 414.356,929.994 416.517,927.446 418.678,924.924 420.839,922.427 423,919.955 425.161,917.508 427.322,915.085 429.483,912.686 431.644,910.311 433.805,907.96 435.966,905.632 438.127,903.327 440.288,901.046 442.449,898.787 444.61,896.55 446.771,894.336 448.932,892.144 451.093,889.973 453.254,887.824 455.415,885.697 457.576,883.591 459.737,881.506 461.898,879.441 464.059,877.397 466.22,875.374 468.381,873.37 470.542,871.387 472.703,869.423 474.864,867.479 477.024,865.554 479.185,863.648 481.346,861.761 483.507,859.894 485.668,858.044 487.829,856.213 489.99,854.401 492.151,852.606 494.312,850.829 496.473,849.07 498.634,847.329 500.795,845.605 502.956,843.898 505.117,842.208 507.278,840.535 509.439,838.879 511.6,837.239 513.761,835.615 515.922,834.008 518.083,832.416 520.244,830.841 522.405,829.281 524.566,827.737 526.727,826.208 528.888,824.694 531.049,823.196 533.21,821.712 535.371,820.243 537.532,818.789 539.693,817.35 541.854,815.924 544.015,814.513 546.176,813.116 548.337,811.732 550.498,810.363 552.659,809.007 554.82,807.665 556.981,806.336 559.142,805.02 561.303,803.717 563.464,802.428 565.625,801.151 567.786,799.887 569.947,798.635 572.108,797.396 574.269,796.169 576.43,794.954 578.591,793.752 580.752,792.561 582.913,791.382 585.074,790.215 587.235,789.06 589.396,787.916 591.556,786.783 593.717,785.662 595.878,784.552 598.039,783.453 600.2,782.365 602.361,781.288 604.522,780.222 606.683,779.166 608.844,778.121 611.005,777.086 613.166,776.061 615.327,775.047 617.488,774.043 619.649,773.049 621.81,772.065 623.971,771.09 626.132,770.126 628.293,769.171 630.454,768.225 632.615,767.289 634.776,766.362 636.937,765.445 639.098,764.536 641.259,763.637 643.42,762.747 645.581,761.865 647.742,760.992 649.903,760.128 652.064,759.273 654.225,758.426 656.386,757.588 658.547,756.758 660.708,755.936 662.869,755.122 665.03,754.317 667.191,753.519 669.352,752.729 671.513,751.948 673.674,751.174 675.835,750.407 677.996,749.649 680.157,748.898 682.318,748.154 684.479,747.418 686.64,746.689 688.801,745.967 690.962,745.252 693.123,744.545 695.284,743.845 697.445,743.151 699.606,742.464 701.767,741.785 703.927,741.112 706.088,740.445 708.249,739.786 710.41,739.133 712.571,738.486 714.732,737.846 716.893,737.212 719.054,736.584 721.215,735.963 723.376,735.348 725.537,734.739 727.698,734.136 729.859,733.54 732.02,732.949 734.181,732.364 736.342,731.785 738.503,731.211 740.664,730.644 742.825,730.082 744.986,729.526 747.147,728.975 749.308,728.43 751.469,727.89 753.63,727.355 755.791,726.826 757.952,726.302 760.113,725.784 762.274,725.27 764.435,724.762 766.596,724.259 768.757,723.761 770.918,723.268 773.079,722.779 775.24,722.296 777.401,721.817 779.562,721.344 781.723,720.874 783.884,720.41 786.045,719.95 788.206,719.495 790.367,719.044 792.528,718.598 794.689,718.156 796.85,717.719 799.011,717.286 801.172,716.857 803.333,716.433 805.494,716.013 807.655,715.597 809.816,715.185 811.977,714.777 814.138,714.373 816.298,713.973 818.459,713.578 820.62,713.186 822.781,712.798 824.942,712.414 827.103,712.033 829.264,711.657 831.425,711.284 833.586,710.915 835.747,710.549 837.908,710.188 840.069,709.829 842.23,709.475 844.391,709.123 846.552,708.776 848.713,708.431 850.874,708.09 853.035,707.753 855.196,707.419 857.357,707.088 859.518,706.761 861.679,706.436 863.84,706.115 866.001,705.798 868.162,705.483 870.323,705.172 872.484,704.863 874.645,704.558 876.806,704.256 878.967,703.956 881.128,703.66 883.289,703.367 885.45,703.077 887.611,702.789 889.772,702.505 891.933,702.223 894.094,701.944 896.255,701.668 898.416,701.395 900.577,701.124 902.738,700.856 904.899,700.591 907.06,700.329 909.221,700.069 911.382,699.811 913.543,699.557 915.704,699.304 917.865,699.055 920.026,698.808 922.187,698.563 924.348,698.321 926.509,698.081 928.669,697.844 930.83,697.608 932.991,697.376 935.152,697.145 937.313,696.917 939.474,696.692 941.635,696.468 943.796,696.247 945.957,696.028 948.118,695.811 950.279,695.596 952.44,695.383 954.601,695.173 956.762,694.965 958.923,694.758 961.084,694.554 963.245,694.352 965.406,694.151 967.567,693.953 969.728,693.757 971.889,693.563 974.05,693.37 976.211,693.18 978.372,692.991 980.533,692.804 982.694,692.619 984.855,692.436 987.016,692.255 989.177,692.076 991.338,691.898 993.499,691.722 995.66,691.548 997.821,691.375 999.982,691.204 1002.14,691.035 1004.3,690.868 1006.46,690.702 1008.63,690.538 1010.79,690.375 1012.95,690.214 1015.11,690.055 1017.27,689.897 1019.43,689.741 1021.59,689.586 1023.75,689.433 1025.91,689.281 1028.07,689.131 1030.24,688.983 1032.4,688.835 1034.56,688.69 1036.72,688.546 1038.88,688.403 1041.04,688.261 1043.2,688.121 1045.36,687.983 1047.52,687.846 1049.68,687.71 1051.85,687.576 1054.01,687.443 1056.17,687.311 1058.33,687.18 1060.49,687.051 1062.65,686.923 1064.81,686.797 1066.97,686.672 1069.13,686.548 1071.29,686.425 1073.46,686.303 1075.62,686.183 1077.78,686.064 1079.94,685.946 1082.1,685.83 1084.26,685.714 1086.42,685.6 1088.58,685.486 1090.74,685.374 1092.9,685.263 1095.07,685.154 1097.23,685.045 1099.39,684.937 1101.55,684.831 1103.71,684.725 1105.87,684.621 1108.03,684.517 1110.19,684.415 1112.35,684.314 1114.51,684.214 1116.67,684.114 1118.84,684.016 1121,683.919 1123.16,683.822 1125.32,683.727 1127.48,683.633 1129.64,683.539 1131.8,683.447 1133.96,683.355 1136.12,683.264 1138.28,683.174 1140.45,683.086 1142.61,682.998 1144.77,682.91 1146.93,682.824 1149.09,682.739 1151.25,682.654 1153.41,682.57 1155.57,682.488 1157.73,682.405 1159.89,682.324 1162.06,682.244 1164.22,682.164 1166.38,682.085 1168.54,682.007 1170.7,681.93 1172.86,681.853 1175.02,681.777 1177.18,681.702 1179.34,681.628 1181.5,681.554 1183.67,681.481 1185.83,681.409 1187.99,681.337 1190.15,681.267 1192.31,681.196 1194.47,681.127 1196.63,681.058 1198.79,680.99 1200.95,680.923 1203.11,680.856 1205.28,680.79 1207.44,680.724 1209.6,680.659 1211.76,680.595 1213.92,680.532 1216.08,680.469 1218.24,680.406 1220.4,680.345 1222.56,680.284 1224.72,680.223 1226.88,680.163 1229.05,680.104 1231.21,680.045 1233.37,679.987 1235.53,679.93 1237.69,679.873 1239.85,679.816 1242.01,679.761 1244.17,679.705 1246.33,679.651 1248.49,679.596 1250.66,679.543 1252.82,679.49 1254.98,679.437 1257.14,679.385 1259.3,679.334 1261.46,679.283 1263.62,679.232 1265.78,679.182 1267.94,679.133 1270.1,679.084 1272.27,679.036 1274.43,678.988 1276.59,678.94 1278.75,678.893 1280.91,678.847 1283.07,678.801 1285.23,678.755 1287.39,678.71 1289.55,678.666 1291.71,678.621 1293.88,678.578 1296.04,678.534 1298.2,678.492 1300.36,678.449 1302.52,678.407 1304.68,678.366 1306.84,678.324 1309,678.284 1311.16,678.243 1313.32,678.204 1315.49,678.164 1317.65,678.125 1319.81,678.086 1321.97,678.048 1324.13,678.01 1326.29,677.973 1328.45,677.936 1330.61,677.899 1332.77,677.862 1334.93,677.826 1337.09,677.791 1339.26,677.755 1341.42,677.72 1343.58,677.686 1345.74,677.652 1347.9,677.618 1350.06,677.584 1352.22,677.551 1354.38,677.518 1356.54,677.486 1358.7,677.453 1360.87,677.421 1363.03,677.39 1365.19,677.358 1367.35,677.327 1369.51,677.297 1371.67,677.266 1373.83,677.236 1375.99,677.207 1378.15,677.177 1380.31,677.148 1382.48,677.119 1384.64,677.09 1386.8,677.062 1388.96,677.034 1391.12,677.006 1393.28,676.979 1395.44,676.951 1397.6,676.924 1399.76,676.897 1401.92,676.871 1404.09,676.845 1406.25,676.819 1408.41,676.793 1410.57,676.767 1412.73,676.742 1414.89,676.717 1417.05,676.692 1419.21,676.668 1421.37,676.643 1423.53,676.619 1425.7,676.595 1427.86,676.572 1430.02,676.548 1432.18,676.525 1434.34,676.502 1436.5,676.479 1438.66,676.457 1440.82,676.435 1442.98,676.412 1445.14,676.391 1447.3,676.369 1449.47,676.348 1451.63,676.326 1453.79,676.305 1455.95,676.284 1458.11,676.264 1460.27,676.243 1462.43,676.223 1464.59,676.203 1466.75,676.183 1468.91,676.164 1471.08,676.144 1473.24,676.125 1475.4,676.106 1477.56,676.087 1479.72,676.069 1481.88,676.05 1484.04,676.032 1486.2,676.014 1488.36,675.996 1490.52,675.978 1492.69,675.961 1494.85,675.944 1497.01,675.926 1499.17,675.909 1501.33,675.893 1503.49,675.876 1505.65,675.859 1507.81,675.843 1509.97,675.827 1512.13,675.811 1514.3,675.795 1516.46,675.78 1518.62,675.764 1520.78,675.749 1522.94,675.734 1525.1,675.719 1527.26,675.704 1529.42,675.689 1531.58,675.674 1533.74,675.66 1535.91,675.646 1538.07,675.632 1540.23,675.618 1542.39,675.604 1544.55,675.59 1546.71,675.577 1548.87,675.563 1551.03,675.55 1553.19,675.537 1555.35,675.524 1557.51,675.511 1559.68,675.499 1561.84,675.486 1564,675.474 1566.16,675.461 1568.32,675.449 1570.48,675.437 1572.64,675.425 1574.8,675.413 1576.96,675.402 1579.12,675.39 1581.29,675.379 1583.45,675.367 1585.61,675.356 1587.77,675.345 1589.93,675.334 1592.09,675.323 1594.25,675.312 1596.41,675.302 1598.57,675.291 1600.73,675.281 1602.9,675.271 1605.06,675.26 1607.22,675.25 1609.38,675.24 1611.54,675.23 1613.7,675.221 1615.86,675.211 1618.02,675.201 1620.18,675.192 1622.34,675.182 1624.51,675.173 1626.67,675.164 1628.83,675.155 1630.99,675.146 1633.15,675.137 1635.31,675.128 1637.47,675.119 1639.63,675.11 1641.79,675.102 1643.95,675.093 1646.12,675.084 1648.28,675.076 1650.44,675.068 1652.6,675.06 1654.76,675.051 1656.92,675.043 1659.08,675.035 1661.24,675.027 1663.4,675.019 1665.56,675.012 1667.72,675.004 1669.89,674.996 1672.05,674.989 1674.21,674.981 1676.37,674.973 1678.53,674.966 1680.69,674.959 1682.85,674.951 1685.01,674.944 1687.17,674.937 1689.33,674.93 1691.5,674.923 1693.66,674.916 1695.82,674.909 1697.98,674.902 1700.14,674.896 1702.3,674.889 1704.46,674.882 1706.62,674.876 1708.78,674.869 1710.94,674.863 1713.11,674.856 1715.27,674.85 1717.43,674.844 1719.59,674.837 1721.75,674.831 1723.91,674.825 1726.07,674.819 1728.23,674.813 1730.39,674.807 1732.55,674.801 1734.72,674.796 1736.88,674.79 1739.04,674.784 1741.2,674.779 1743.36,674.773 1745.52,674.767 1747.68,674.762 1749.84,674.757 1752,674.751 1754.16,674.746 1756.33,674.741 1758.49,674.736 1760.65,674.73 1762.81,674.725 1764.97,674.72 1767.13,674.715 1769.29,674.71 1771.45,674.705 1773.61,674.701 1775.77,674.696 1777.93,674.691 1780.1,674.686 1782.26,674.682 1784.42,674.677 1786.58,674.673 1788.74,674.668 1790.9,674.664 1793.06,674.659 1795.22,674.655 1797.38,674.651 1799.54,674.647 1801.71,674.642 1803.87,674.638 1806.03,674.634 1808.19,674.63 1810.35,674.626 1812.51,674.622 1814.67,674.618 1816.83,674.614 1818.99,674.61 1821.15,674.607 1823.32,674.603 1825.48,674.599 1827.64,674.595 1829.8,674.592 1831.96,674.588 1834.12,674.585 1836.28,674.581 1838.44,674.578 1840.6,674.574 1842.76,674.571 1844.93,674.567 1847.09,674.564 1849.25,674.561 1851.41,674.558 1853.57,674.554 1855.73,674.551 1857.89,674.548 1860.05,674.545 1862.21,674.542 1864.37,674.539 1866.54,674.536 1868.7,674.533 1870.86,674.53 1873.02,674.527 1875.18,674.524 1877.34,674.521 1879.5,674.519 1881.66,674.516 1883.82,674.513 1885.98,674.51 1888.15,674.508 1890.31,674.505 1892.47,674.502 1894.63,674.5 1896.79,674.497 1898.95,674.495 1901.11,674.492 1903.27,674.49 1905.43,674.487 1907.59,674.485 1909.75,674.482 1911.92,674.48 1914.08,674.477 1916.24,674.475 1918.4,674.473 1920.56,674.471 1922.72,674.468 1924.88,674.466 1927.04,674.464 1929.2,674.462 1931.36,674.459 1933.53,674.457 1935.69,674.455 1937.85,674.453 1940.01,674.451 1942.17,674.449 1944.33,674.447 1946.49,674.445 1948.65,674.443 1950.81,674.441 1952.97,674.439 1955.14,674.437 1957.3,674.435 1959.46,674.433 1961.62,674.431 1963.78,674.429 1965.94,674.427 1968.1,674.425 1970.26,674.423 1972.42,674.421 1974.58,674.42 1976.75,674.418 1978.91,674.416 1981.07,674.414 1983.23,674.412 1985.39,674.411 1987.55,674.409 1989.71,674.407 1991.87,674.405 1994.03,674.404 1996.19,674.402 1998.36,674.4 2000.52,674.398 2002.68,674.397 2004.84,674.395 2007,674.393 2009.16,674.392 2011.32,674.39 2013.48,674.388 2015.64,674.387 2017.8,674.385 2019.96,674.384 2022.13,674.382 2024.29,674.381 2026.45,674.379 2028.61,674.378 2030.77,674.376 2032.93,674.375 2035.09,674.373 2037.25,674.372 2039.41,674.37 2041.57,674.369 2043.74,674.367 2045.9,674.366 2048.06,674.365 2050.22,674.363 2052.38,674.362 2054.54,674.36 2056.7,674.359 2058.86,674.358 2061.02,674.356 2063.18,674.355 2065.35,674.354 2067.51,674.353 2069.67,674.351 2071.83,674.35 2073.99,674.349 2076.15,674.348 2078.31,674.346 2080.47,674.345 2082.63,674.344 2084.79,674.343 2086.96,674.342 2089.12,674.34 2091.28,674.339 2093.44,674.338 2095.6,674.337 2097.76,674.336 2099.92,674.335 2102.08,674.334 2104.24,674.333 2106.4,674.332 2108.57,674.331 2110.73,674.33 2112.89,674.328 2115.05,674.327 2117.21,674.326 2119.37,674.325 2121.53,674.325 2123.69,674.324 2125.85,674.323 2128.01,674.322 2130.17,674.321 2132.34,674.32 2134.5,674.319 2136.66,674.318 2138.82,674.317 2140.98,674.316 2143.14,674.315 2145.3,674.314 2147.46,674.314 2149.62,674.313 2151.78,674.312 2153.95,674.311 2156.11,674.31 2158.27,674.309 2160.43,674.309 2162.59,674.308 2164.75,674.307 2166.91,674.306 2169.07,674.306 2171.23,674.305 2173.39,674.304 2175.56,674.303 2177.72,674.303 2179.88,674.302 2182.04,674.301 2184.2,674.301 2186.36,674.3 2188.52,674.299 2190.68,674.298 2192.84,674.298 2195,674.297 2197.17,674.297 2199.33,674.296 2201.49,674.295 2203.65,674.295 2205.81,674.294 2207.97,674.293 2210.13,674.293 2212.29,674.292 2214.45,674.292 2216.61,674.291 2218.78,674.291 2220.94,674.29 2223.1,674.289 2225.26,674.289 2227.42,674.288 2229.58,674.288 2231.74,674.287 2233.9,674.287 2236.06,674.286 2238.22,674.286 2240.38,674.285 2242.55,674.285 2244.71,674.284 2246.87,674.284 2249.03,674.283 2251.19,674.283 2253.35,674.282 2255.51,674.282 2257.67,674.281 2259.83,674.281 2261.99,674.281 2264.16,674.28 2266.32,674.28 2268.48,674.279 2270.64,674.279 2272.8,674.278 2274.96,674.278 2277.12,674.278 2279.28,674.277 2281.44,674.277 2283.6,674.276 2285.77,674.276 2287.93,674.276 2290.09,674.275 2292.25,674.275 2294.41,674.274 2296.57,674.274 2298.73,674.274 2300.89,674.273 2303.05,674.273 2305.21,674.273 2307.38,674.272 2309.54,674.272 2311.7,674.271 2313.86,674.271 2316.02,674.271 2318.18,674.27 2320.34,674.27 2322.5,674.27 2324.66,674.269 2326.82,674.269 2328.99,674.269 2331.15,674.268 2333.31,674.268 2335.47,674.268 2337.63,674.267 2339.79,674.267 2341.95,674.267 2344.11,674.266 2346.27,674.266 2348.43,674.266 2350.59,674.265 2352.76,674.265 "/>
<polyline clip-path="url(#clip792)" style="stroke:#e26f46; stroke-linecap:round; stroke-linejoin:round; stroke-width:4; stroke-opacity:1; fill:none" points="193.936,86.1857 196.097,92.5739 198.258,98.8952 200.419,105.151 202.58,111.34 204.741,117.465 206.902,123.526 209.063,129.524 211.224,135.458 213.385,141.331 215.546,147.142 217.707,152.892 219.868,158.582 222.029,164.212 224.19,169.783 226.351,175.296 228.512,180.751 230.673,186.148 232.834,191.489 234.995,196.774 237.156,202.004 239.317,207.178 241.478,212.298 243.639,217.365 245.8,222.378 247.961,227.338 250.122,232.246 252.282,237.103 254.443,241.908 256.604,246.663 258.765,251.368 260.926,256.024 263.087,260.63 265.248,265.188 267.409,269.698 269.57,274.16 271.731,278.575 273.892,282.944 276.053,287.267 278.214,291.544 280.375,295.775 282.536,299.963 284.697,304.106 286.858,308.205 289.019,312.261 291.18,316.274 293.341,320.244 295.502,324.173 297.663,328.06 299.824,331.906 301.985,335.712 304.146,339.477 306.307,343.202 308.468,346.888 310.629,350.535 312.79,354.143 314.951,357.713 317.112,361.245 319.273,364.739 321.434,368.197 323.595,371.618 325.756,375.002 327.917,378.351 330.078,381.664 332.239,384.942 334.4,388.185 336.561,391.393 338.722,394.568 340.883,397.708 343.044,400.816 345.205,403.89 347.366,406.931 349.527,409.94 351.688,412.918 353.849,415.863 356.01,418.777 358.171,421.66 360.332,424.512 362.493,427.333 364.653,430.125 366.814,432.887 368.975,435.619 371.136,438.322 373.297,440.997 375.458,443.642 377.619,446.26 379.78,448.849 381.941,451.411 384.102,453.946 386.263,456.453 388.424,458.933 390.585,461.387 392.746,463.815 394.907,466.216 397.068,468.592 399.229,470.942 401.39,473.267 403.551,475.568 405.712,477.843 407.873,480.094 410.034,482.321 412.195,484.523 414.356,486.703 416.517,488.858 418.678,490.991 420.839,493.1 423,495.187 425.161,497.251 427.322,499.293 429.483,501.313 431.644,503.311 433.805,505.288 435.966,507.243 438.127,509.178 440.288,511.091 442.449,512.984 444.61,514.856 446.771,516.708 448.932,518.54 451.093,520.352 453.254,522.145 455.415,523.918 457.576,525.672 459.737,527.407 461.898,529.123 464.059,530.82 466.22,532.499 468.381,534.16 470.542,535.803 472.703,537.428 474.864,539.036 477.024,540.626 479.185,542.198 481.346,543.754 483.507,545.293 485.668,546.815 487.829,548.32 489.99,549.809 492.151,551.281 494.312,552.738 496.473,554.179 498.634,555.603 500.795,557.013 502.956,558.407 505.117,559.785 507.278,561.149 509.439,562.498 511.6,563.831 513.761,565.151 515.922,566.455 518.083,567.746 520.244,569.022 522.405,570.285 524.566,571.533 526.727,572.768 528.888,573.989 531.049,575.197 533.21,576.391 535.371,577.572 537.532,578.741 539.693,579.896 541.854,581.039 544.015,582.169 546.176,583.287 548.337,584.392 550.498,585.485 552.659,586.566 554.82,587.635 556.981,588.693 559.142,589.738 561.303,590.772 563.464,591.795 565.625,592.806 567.786,593.806 569.947,594.795 572.108,595.774 574.269,596.741 576.43,597.697 578.591,598.643 580.752,599.579 582.913,600.504 585.074,601.419 587.235,602.323 589.396,603.217 591.556,604.102 593.717,604.977 595.878,605.841 598.039,606.696 600.2,607.542 602.361,608.378 604.522,609.205 606.683,610.022 608.844,610.831 611.005,611.63 613.166,612.42 615.327,613.201 617.488,613.974 619.649,614.738 621.81,615.493 623.971,616.24 626.132,616.978 628.293,617.708 630.454,618.43 632.615,619.143 634.776,619.849 636.937,620.546 639.098,621.236 641.259,621.918 643.42,622.592 645.581,623.258 647.742,623.917 649.903,624.569 652.064,625.213 654.225,625.85 656.386,626.479 658.547,627.102 660.708,627.717 662.869,628.325 665.03,628.927 667.191,629.521 669.352,630.109 671.513,630.69 673.674,631.264 675.835,631.832 677.996,632.394 680.157,632.949 682.318,633.497 684.479,634.04 686.64,634.576 688.801,635.106 690.962,635.63 693.123,636.148 695.284,636.66 697.445,637.166 699.606,637.667 701.767,638.161 703.927,638.65 706.088,639.134 708.249,639.611 710.41,640.084 712.571,640.55 714.732,641.012 716.893,641.468 719.054,641.918 721.215,642.364 723.376,642.804 725.537,643.239 727.698,643.669 729.859,644.094 732.02,644.514 734.181,644.929 736.342,645.34 738.503,645.745 740.664,646.146 742.825,646.542 744.986,646.933 747.147,647.32 749.308,647.702 751.469,648.08 753.63,648.453 755.791,648.822 757.952,649.186 760.113,649.547 762.274,649.903 764.435,650.254 766.596,650.602 768.757,650.945 770.918,651.284 773.079,651.62 775.24,651.951 777.401,652.278 779.562,652.602 781.723,652.921 783.884,653.237 786.045,653.549 788.206,653.858 790.367,654.162 792.528,654.463 794.689,654.761 796.85,655.054 799.011,655.345 801.172,655.631 803.333,655.915 805.494,656.195 807.655,656.471 809.816,656.745 811.977,657.015 814.138,657.281 816.298,657.545 818.459,657.805 820.62,658.062 822.781,658.316 824.942,658.567 827.103,658.815 829.264,659.06 831.425,659.302 833.586,659.542 835.747,659.778 837.908,660.011 840.069,660.242 842.23,660.469 844.391,660.694 846.552,660.916 848.713,661.136 850.874,661.352 853.035,661.567 855.196,661.778 857.357,661.987 859.518,662.193 861.679,662.397 863.84,662.598 866.001,662.796 868.162,662.992 870.323,663.186 872.484,663.377 874.645,663.566 876.806,663.753 878.967,663.937 881.128,664.119 883.289,664.298 885.45,664.476 887.611,664.651 889.772,664.823 891.933,664.994 894.094,665.162 896.255,665.329 898.416,665.493 900.577,665.655 902.738,665.815 904.899,665.973 907.06,666.128 909.221,666.282 911.382,666.434 913.543,666.584 915.704,666.732 917.865,666.878 920.026,667.022 922.187,667.165 924.348,667.305 926.509,667.444 928.669,667.581 930.83,667.716 932.991,667.849 935.152,667.98 937.313,668.11 939.474,668.238 941.635,668.365 943.796,668.489 945.957,668.612 948.118,668.734 950.279,668.854 952.44,668.972 954.601,669.089 956.762,669.204 958.923,669.318 961.084,669.43 963.245,669.54 965.406,669.649 967.567,669.757 969.728,669.863 971.889,669.968 974.05,670.072 976.211,670.174 978.372,670.274 980.533,670.374 982.694,670.472 984.855,670.569 987.016,670.664 989.177,670.758 991.338,670.851 993.499,670.942 995.66,671.033 997.821,671.122 999.982,671.21 1002.14,671.297 1004.3,671.382 1006.46,671.466 1008.63,671.55 1010.79,671.632 1012.95,671.713 1015.11,671.792 1017.27,671.871 1019.43,671.949 1021.59,672.025 1023.75,672.101 1025.91,672.175 1028.07,672.248 1030.24,672.32 1032.4,672.392 1034.56,672.462 1036.72,672.531 1038.88,672.599 1041.04,672.666 1043.2,672.733 1045.36,672.798 1047.52,672.862 1049.68,672.925 1051.85,672.988 1054.01,673.049 1056.17,673.11 1058.33,673.17 1060.49,673.228 1062.65,673.286 1064.81,673.343 1066.97,673.399 1069.13,673.455 1071.29,673.509 1073.46,673.563 1075.62,673.615 1077.78,673.667 1079.94,673.719 1082.1,673.769 1084.26,673.819 1086.42,673.867 1088.58,673.916 1090.74,673.963 1092.9,674.009 1095.07,674.055 1097.23,674.1 1099.39,674.145 1101.55,674.188 1103.71,674.231 1105.87,674.274 1108.03,674.315 1110.19,674.356 1112.35,674.396 1114.51,674.436 1116.67,674.475 1118.84,674.513 1121,674.551 1123.16,674.588 1125.32,674.624 1127.48,674.66 1129.64,674.695 1131.8,674.73 1133.96,674.764 1136.12,674.797 1138.28,674.83 1140.45,674.863 1142.61,674.894 1144.77,674.926 1146.93,674.956 1149.09,674.987 1151.25,675.016 1153.41,675.045 1155.57,675.074 1157.73,675.102 1159.89,675.13 1162.06,675.157 1164.22,675.184 1166.38,675.21 1168.54,675.236 1170.7,675.261 1172.86,675.286 1175.02,675.31 1177.18,675.334 1179.34,675.358 1181.5,675.381 1183.67,675.403 1185.83,675.426 1187.99,675.448 1190.15,675.469 1192.31,675.49 1194.47,675.511 1196.63,675.531 1198.79,675.551 1200.95,675.57 1203.11,675.59 1205.28,675.608 1207.44,675.627 1209.6,675.645 1211.76,675.662 1213.92,675.68 1216.08,675.697 1218.24,675.713 1220.4,675.729 1222.56,675.745 1224.72,675.761 1226.88,675.776 1229.05,675.791 1231.21,675.805 1233.37,675.82 1235.53,675.834 1237.69,675.847 1239.85,675.86 1242.01,675.873 1244.17,675.886 1246.33,675.898 1248.49,675.911 1250.66,675.922 1252.82,675.934 1254.98,675.945 1257.14,675.956 1259.3,675.966 1261.46,675.977 1263.62,675.987 1265.78,675.997 1267.94,676.006 1270.1,676.015 1272.27,676.024 1274.43,676.033 1276.59,676.042 1278.75,676.05 1280.91,676.058 1283.07,676.066 1285.23,676.073 1287.39,676.08 1289.55,676.087 1291.71,676.094 1293.88,676.101 1296.04,676.107 1298.2,676.113 1300.36,676.119 1302.52,676.125 1304.68,676.13 1306.84,676.136 1309,676.141 1311.16,676.146 1313.32,676.15 1315.49,676.155 1317.65,676.159 1319.81,676.163 1321.97,676.167 1324.13,676.171 1326.29,676.174 1328.45,676.177 1330.61,676.181 1332.77,676.184 1334.93,676.186 1337.09,676.189 1339.26,676.192 1341.42,676.194 1343.58,676.196 1345.74,676.198 1347.9,676.2 1350.06,676.202 1352.22,676.203 1354.38,676.205 1356.54,676.206 1358.7,676.207 1360.87,676.208 1363.03,676.209 1365.19,676.21 1367.35,676.21 1369.51,676.211 1371.67,676.211 1373.83,676.211 1375.99,676.212 1378.15,676.212 1380.31,676.211 1382.48,676.211 1384.64,676.211 1386.8,676.21 1388.96,676.21 1391.12,676.209 1393.28,676.209 1395.44,676.208 1397.6,676.207 1399.76,676.206 1401.92,676.205 1404.09,676.204 1406.25,676.202 1408.41,676.201 1410.57,676.199 1412.73,676.198 1414.89,676.196 1417.05,676.195 1419.21,676.193 1421.37,676.191 1423.53,676.189 1425.7,676.187 1427.86,676.185 1430.02,676.183 1432.18,676.181 1434.34,676.178 1436.5,676.176 1438.66,676.173 1440.82,676.171 1442.98,676.168 1445.14,676.166 1447.3,676.163 1449.47,676.16 1451.63,676.157 1453.79,676.154 1455.95,676.151 1458.11,676.148 1460.27,676.145 1462.43,676.142 1464.59,676.139 1466.75,676.135 1468.91,676.132 1471.08,676.129 1473.24,676.125 1475.4,676.122 1477.56,676.118 1479.72,676.114 1481.88,676.111 1484.04,676.107 1486.2,676.103 1488.36,676.099 1490.52,676.095 1492.69,676.091 1494.85,676.087 1497.01,676.083 1499.17,676.079 1501.33,676.075 1503.49,676.07 1505.65,676.066 1507.81,676.062 1509.97,676.057 1512.13,676.053 1514.3,676.049 1516.46,676.044 1518.62,676.04 1520.78,676.035 1522.94,676.03 1525.1,676.026 1527.26,676.021 1529.42,676.016 1531.58,676.011 1533.74,676.007 1535.91,676.002 1538.07,675.997 1540.23,675.992 1542.39,675.987 1544.55,675.982 1546.71,675.977 1548.87,675.972 1551.03,675.967 1553.19,675.962 1555.35,675.957 1557.51,675.951 1559.68,675.946 1561.84,675.941 1564,675.936 1566.16,675.931 1568.32,675.925 1570.48,675.92 1572.64,675.915 1574.8,675.909 1576.96,675.904 1579.12,675.899 1581.29,675.893 1583.45,675.888 1585.61,675.882 1587.77,675.877 1589.93,675.871 1592.09,675.866 1594.25,675.86 1596.41,675.855 1598.57,675.849 1600.73,675.844 1602.9,675.838 1605.06,675.833 1607.22,675.827 1609.38,675.821 1611.54,675.816 1613.7,675.81 1615.86,675.805 1618.02,675.799 1620.18,675.793 1622.34,675.788 1624.51,675.782 1626.67,675.777 1628.83,675.771 1630.99,675.765 1633.15,675.76 1635.31,675.754 1637.47,675.748 1639.63,675.743 1641.79,675.737 1643.95,675.732 1646.12,675.726 1648.28,675.72 1650.44,675.715 1652.6,675.709 1654.76,675.704 1656.92,675.698 1659.08,675.692 1661.24,675.687 1663.4,675.681 1665.56,675.676 1667.72,675.67 1669.89,675.665 1672.05,675.659 1674.21,675.654 1676.37,675.648 1678.53,675.643 1680.69,675.637 1682.85,675.632 1685.01,675.626 1687.17,675.621 1689.33,675.616 1691.5,675.61 1693.66,675.605 1695.82,675.599 1697.98,675.594 1700.14,675.589 1702.3,675.583 1704.46,675.578 1706.62,675.573 1708.78,675.567 1710.94,675.562 1713.11,675.556 1715.27,675.551 1717.43,675.546 1719.59,675.541 1721.75,675.535 1723.91,675.53 1726.07,675.525 1728.23,675.519 1730.39,675.514 1732.55,675.509 1734.72,675.504 1736.88,675.498 1739.04,675.493 1741.2,675.488 1743.36,675.483 1745.52,675.478 1747.68,675.472 1749.84,675.467 1752,675.462 1754.16,675.457 1756.33,675.452 1758.49,675.447 1760.65,675.441 1762.81,675.436 1764.97,675.431 1767.13,675.426 1769.29,675.421 1771.45,675.416 1773.61,675.411 1775.77,675.406 1777.93,675.401 1780.1,675.395 1782.26,675.39 1784.42,675.385 1786.58,675.38 1788.74,675.375 1790.9,675.37 1793.06,675.365 1795.22,675.36 1797.38,675.355 1799.54,675.35 1801.71,675.345 1803.87,675.34 1806.03,675.335 1808.19,675.33 1810.35,675.326 1812.51,675.321 1814.67,675.316 1816.83,675.311 1818.99,675.306 1821.15,675.301 1823.32,675.296 1825.48,675.291 1827.64,675.286 1829.8,675.282 1831.96,675.277 1834.12,675.272 1836.28,675.267 1838.44,675.262 1840.6,675.258 1842.76,675.253 1844.93,675.248 1847.09,675.243 1849.25,675.239 1851.41,675.234 1853.57,675.229 1855.73,675.224 1857.89,675.22 1860.05,675.215 1862.21,675.21 1864.37,675.206 1866.54,675.201 1868.7,675.196 1870.86,675.192 1873.02,675.187 1875.18,675.183 1877.34,675.178 1879.5,675.173 1881.66,675.169 1883.82,675.164 1885.98,675.16 1888.15,675.155 1890.31,675.151 1892.47,675.146 1894.63,675.142 1896.79,675.137 1898.95,675.133 1901.11,675.128 1903.27,675.124 1905.43,675.12 1907.59,675.115 1909.75,675.111 1911.92,675.106 1914.08,675.102 1916.24,675.098 1918.4,675.093 1920.56,675.089 1922.72,675.085 1924.88,675.081 1927.04,675.076 1929.2,675.072 1931.36,675.068 1933.53,675.064 1935.69,675.06 1937.85,675.055 1940.01,675.051 1942.17,675.047 1944.33,675.043 1946.49,675.039 1948.65,675.035 1950.81,675.031 1952.97,675.027 1955.14,675.023 1957.3,675.019 1959.46,675.015 1961.62,675.011 1963.78,675.007 1965.94,675.003 1968.1,674.999 1970.26,674.995 1972.42,674.991 1974.58,674.988 1976.75,674.984 1978.91,674.98 1981.07,674.976 1983.23,674.972 1985.39,674.969 1987.55,674.965 1989.71,674.961 1991.87,674.958 1994.03,674.954 1996.19,674.95 1998.36,674.947 2000.52,674.943 2002.68,674.94 2004.84,674.936 2007,674.933 2009.16,674.929 2011.32,674.925 2013.48,674.922 2015.64,674.919 2017.8,674.915 2019.96,674.912 2022.13,674.908 2024.29,674.905 2026.45,674.901 2028.61,674.898 2030.77,674.895 2032.93,674.891 2035.09,674.888 2037.25,674.885 2039.41,674.881 2041.57,674.878 2043.74,674.875 2045.9,674.871 2048.06,674.868 2050.22,674.865 2052.38,674.862 2054.54,674.859 2056.7,674.855 2058.86,674.852 2061.02,674.849 2063.18,674.846 2065.35,674.843 2067.51,674.84 2069.67,674.836 2071.83,674.833 2073.99,674.83 2076.15,674.827 2078.31,674.824 2080.47,674.821 2082.63,674.818 2084.79,674.815 2086.96,674.812 2089.12,674.809 2091.28,674.806 2093.44,674.803 2095.6,674.8 2097.76,674.797 2099.92,674.794 2102.08,674.791 2104.24,674.789 2106.4,674.786 2108.57,674.783 2110.73,674.78 2112.89,674.777 2115.05,674.774 2117.21,674.771 2119.37,674.769 2121.53,674.766 2123.69,674.763 2125.85,674.76 2128.01,674.757 2130.17,674.755 2132.34,674.752 2134.5,674.749 2136.66,674.746 2138.82,674.744 2140.98,674.741 2143.14,674.738 2145.3,674.736 2147.46,674.733 2149.62,674.73 2151.78,674.728 2153.95,674.725 2156.11,674.722 2158.27,674.72 2160.43,674.717 2162.59,674.715 2164.75,674.712 2166.91,674.709 2169.07,674.707 2171.23,674.704 2173.39,674.702 2175.56,674.699 2177.72,674.697 2179.88,674.694 2182.04,674.692 2184.2,674.689 2186.36,674.687 2188.52,674.684 2190.68,674.682 2192.84,674.68 2195,674.677 2197.17,674.675 2199.33,674.672 2201.49,674.67 2203.65,674.667 2205.81,674.665 2207.97,674.663 2210.13,674.66 2212.29,674.658 2214.45,674.656 2216.61,674.653 2218.78,674.651 2220.94,674.649 2223.1,674.646 2225.26,674.644 2227.42,674.642 2229.58,674.64 2231.74,674.637 2233.9,674.635 2236.06,674.633 2238.22,674.631 2240.38,674.629 2242.55,674.626 2244.71,674.624 2246.87,674.622 2249.03,674.62 2251.19,674.618 2253.35,674.615 2255.51,674.613 2257.67,674.611 2259.83,674.609 2261.99,674.607 2264.16,674.605 2266.32,674.603 2268.48,674.601 2270.64,674.599 2272.8,674.597 2274.96,674.595 2277.12,674.593 2279.28,674.59 2281.44,674.588 2283.6,674.586 2285.77,674.584 2287.93,674.583 2290.09,674.581 2292.25,674.579 2294.41,674.577 2296.57,674.575 2298.73,674.573 2300.89,674.571 2303.05,674.569 2305.21,674.567 2307.38,674.565 2309.54,674.563 2311.7,674.561 2313.86,674.56 2316.02,674.558 2318.18,674.556 2320.34,674.554 2322.5,674.552 2324.66,674.55 2326.82,674.549 2328.99,674.547 2331.15,674.545 2333.31,674.543 2335.47,674.542 2337.63,674.54 2339.79,674.538 2341.95,674.536 2344.11,674.535 2346.27,674.533 2348.43,674.531 2350.59,674.53 2352.76,674.528 "/>
<path clip-path="url(#clip790)" d="M1805.52 248.629 L2280.8 248.629 L2280.8 93.1086 L1805.52 93.1086  Z" fill="#ffffff" fill-rule="evenodd" fill-opacity="1"/>
<polyline clip-path="url(#clip790)" style="stroke:#000000; stroke-linecap:round; stroke-linejoin:round; stroke-width:4; stroke-opacity:1; fill:none" points="1805.52,248.629 2280.8,248.629 2280.8,93.1086 1805.52,93.1086 1805.52,248.629 "/>
<polyline clip-path="url(#clip790)" style="stroke:#009af9; stroke-linecap:round; stroke-linejoin:round; stroke-width:4; stroke-opacity:1; fill:none" points="1829.5,144.949 1973.42,144.949 "/>
<path clip-path="url(#clip790)" d="M1997.41 136.303 L2001.93 136.303 L2010.03 158.062 L2018.13 136.303 L2022.64 136.303 L2012.92 162.229 L2007.13 162.229 L1997.41 136.303 Z" fill="#000000" fill-rule="nonzero" fill-opacity="1" /><path clip-path="url(#clip790)" d="M2029.93 158.293 L2037.57 158.293 L2037.57 131.928 L2029.26 133.595 L2029.26 129.335 L2037.53 127.669 L2042.2 127.669 L2042.2 158.293 L2049.84 158.293 L2049.84 162.229 L2029.93 162.229 L2029.93 158.293 Z" fill="#000000" fill-rule="nonzero" fill-opacity="1" /><path clip-path="url(#clip790)" d="M2067.94 145.585 L2067.94 152.807 L2076.07 152.807 L2076.07 155.006 L2067.94 155.006 L2067.94 162.229 L2065.51 162.229 L2065.51 155.006 L2057.39 155.006 L2057.39 152.807 L2065.51 152.807 L2065.51 145.585 L2067.94 145.585 Z" fill="#000000" fill-rule="nonzero" fill-opacity="1" /><path clip-path="url(#clip790)" d="M2100.24 137.067 L2100.24 141.094 Q2098.43 140.169 2096.49 139.706 Q2094.54 139.243 2092.46 139.243 Q2089.29 139.243 2087.69 140.215 Q2086.11 141.187 2086.11 143.131 Q2086.11 144.613 2087.25 145.469 Q2088.38 146.303 2091.81 147.067 L2093.27 147.391 Q2097.8 148.363 2099.7 150.145 Q2101.62 151.905 2101.62 155.076 Q2101.62 158.687 2098.75 160.793 Q2095.91 162.9 2090.91 162.9 Q2088.82 162.9 2086.55 162.483 Q2084.31 162.09 2081.81 161.28 L2081.81 156.881 Q2084.17 158.108 2086.46 158.733 Q2088.75 159.335 2091 159.335 Q2094.01 159.335 2095.63 158.317 Q2097.25 157.275 2097.25 155.4 Q2097.25 153.664 2096.07 152.738 Q2094.91 151.812 2090.95 150.956 L2089.47 150.608 Q2085.51 149.775 2083.75 148.062 Q2081.99 146.326 2081.99 143.317 Q2081.99 139.659 2084.59 137.669 Q2087.18 135.678 2091.95 135.678 Q2094.31 135.678 2096.39 136.025 Q2098.48 136.372 2100.24 137.067 Z" fill="#000000" fill-rule="nonzero" fill-opacity="1" /><path clip-path="url(#clip790)" d="M2112.62 128.942 L2112.62 136.303 L2121.39 136.303 L2121.39 139.613 L2112.62 139.613 L2112.62 153.687 Q2112.62 156.858 2113.48 157.761 Q2114.36 158.664 2117.02 158.664 L2121.39 158.664 L2121.39 162.229 L2117.02 162.229 Q2112.09 162.229 2110.21 160.4 Q2108.34 158.548 2108.34 153.687 L2108.34 139.613 L2105.21 139.613 L2105.21 136.303 L2108.34 136.303 L2108.34 128.942 L2112.62 128.942 Z" fill="#000000" fill-rule="nonzero" fill-opacity="1" /><path clip-path="url(#clip790)" d="M2137.04 139.289 Q2133.61 139.289 2131.62 141.974 Q2129.63 144.636 2129.63 149.289 Q2129.63 153.942 2131.6 156.627 Q2133.59 159.289 2137.04 159.289 Q2140.44 159.289 2142.43 156.604 Q2144.42 153.918 2144.42 149.289 Q2144.42 144.682 2142.43 141.997 Q2140.44 139.289 2137.04 139.289 M2137.04 135.678 Q2142.6 135.678 2145.77 139.289 Q2148.94 142.9 2148.94 149.289 Q2148.94 155.655 2145.77 159.289 Q2142.6 162.9 2137.04 162.9 Q2131.46 162.9 2128.29 159.289 Q2125.14 155.655 2125.14 149.289 Q2125.14 142.9 2128.29 139.289 Q2131.46 135.678 2137.04 135.678 Z" fill="#000000" fill-rule="nonzero" fill-opacity="1" /><path clip-path="url(#clip790)" d="M2171.02 140.284 Q2170.3 139.868 2169.45 139.682 Q2168.61 139.474 2167.6 139.474 Q2163.98 139.474 2162.04 141.835 Q2160.12 144.173 2160.12 148.571 L2160.12 162.229 L2155.84 162.229 L2155.84 136.303 L2160.12 136.303 L2160.12 140.331 Q2161.46 137.969 2163.61 136.835 Q2165.77 135.678 2168.85 135.678 Q2169.29 135.678 2169.82 135.747 Q2170.35 135.794 2171 135.909 L2171.02 140.284 Z" fill="#000000" fill-rule="nonzero" fill-opacity="1" /><path clip-path="url(#clip790)" d="M2187.27 149.196 Q2182.11 149.196 2180.12 150.377 Q2178.13 151.557 2178.13 154.405 Q2178.13 156.673 2179.61 158.016 Q2181.11 159.335 2183.68 159.335 Q2187.23 159.335 2189.36 156.835 Q2191.51 154.312 2191.51 150.145 L2191.51 149.196 L2187.27 149.196 M2195.77 147.437 L2195.77 162.229 L2191.51 162.229 L2191.51 158.293 Q2190.05 160.655 2187.87 161.789 Q2185.7 162.9 2182.55 162.9 Q2178.57 162.9 2176.21 160.678 Q2173.87 158.432 2173.87 154.682 Q2173.87 150.307 2176.79 148.085 Q2179.73 145.863 2185.54 145.863 L2191.51 145.863 L2191.51 145.446 Q2191.51 142.507 2189.56 140.909 Q2187.64 139.289 2184.15 139.289 Q2181.92 139.289 2179.82 139.821 Q2177.71 140.354 2175.77 141.419 L2175.77 137.483 Q2178.11 136.581 2180.3 136.141 Q2182.5 135.678 2184.59 135.678 Q2190.21 135.678 2192.99 138.594 Q2195.77 141.511 2195.77 147.437 Z" fill="#000000" fill-rule="nonzero" fill-opacity="1" /><path clip-path="url(#clip790)" d="M2221.6 148.965 Q2221.6 144.335 2219.68 141.789 Q2217.78 139.243 2214.33 139.243 Q2210.91 139.243 2208.98 141.789 Q2207.09 144.335 2207.09 148.965 Q2207.09 153.571 2208.98 156.118 Q2210.91 158.664 2214.33 158.664 Q2217.78 158.664 2219.68 156.118 Q2221.6 153.571 2221.6 148.965 M2225.86 159.011 Q2225.86 165.631 2222.92 168.849 Q2219.98 172.09 2213.92 172.09 Q2211.67 172.09 2209.68 171.742 Q2207.69 171.418 2205.81 170.724 L2205.81 166.58 Q2207.69 167.599 2209.52 168.085 Q2211.35 168.571 2213.24 168.571 Q2217.43 168.571 2219.52 166.372 Q2221.6 164.196 2221.6 159.775 L2221.6 157.668 Q2220.28 159.96 2218.22 161.094 Q2216.16 162.229 2213.29 162.229 Q2208.52 162.229 2205.6 158.594 Q2202.69 154.96 2202.69 148.965 Q2202.69 142.946 2205.6 139.312 Q2208.52 135.678 2213.29 135.678 Q2216.16 135.678 2218.22 136.812 Q2220.28 137.946 2221.6 140.238 L2221.6 136.303 L2225.86 136.303 L2225.86 159.011 Z" fill="#000000" fill-rule="nonzero" fill-opacity="1" /><path clip-path="url(#clip790)" d="M2256.81 148.201 L2256.81 150.284 L2237.23 150.284 Q2237.5 154.682 2239.86 156.997 Q2242.25 159.289 2246.48 159.289 Q2248.94 159.289 2251.23 158.687 Q2253.54 158.085 2255.81 156.881 L2255.81 160.909 Q2253.52 161.881 2251.11 162.391 Q2248.71 162.9 2246.23 162.9 Q2240.03 162.9 2236.39 159.289 Q2232.78 155.678 2232.78 149.52 Q2232.78 143.155 2236.21 139.428 Q2239.66 135.678 2245.49 135.678 Q2250.72 135.678 2253.75 139.057 Q2256.81 142.414 2256.81 148.201 M2252.55 146.951 Q2252.5 143.456 2250.58 141.372 Q2248.68 139.289 2245.54 139.289 Q2241.97 139.289 2239.82 141.303 Q2237.69 143.317 2237.36 146.974 L2252.55 146.951 Z" fill="#000000" fill-rule="nonzero" fill-opacity="1" /><polyline clip-path="url(#clip790)" style="stroke:#e26f46; stroke-linecap:round; stroke-linejoin:round; stroke-width:4; stroke-opacity:1; fill:none" points="1829.5,196.789 1973.42,196.789 "/>
<path clip-path="url(#clip790)" d="M1997.41 188.143 L2001.93 188.143 L2010.03 209.902 L2018.13 188.143 L2022.64 188.143 L2012.92 214.069 L2007.13 214.069 L1997.41 188.143 Z" fill="#000000" fill-rule="nonzero" fill-opacity="1" /><path clip-path="url(#clip790)" d="M2029.17 179.509 L2047.53 179.509 L2047.53 183.444 L2033.45 183.444 L2033.45 191.916 Q2034.47 191.569 2035.49 191.407 Q2036.51 191.222 2037.53 191.222 Q2043.31 191.222 2046.69 194.393 Q2050.07 197.564 2050.07 202.981 Q2050.07 208.559 2046.6 211.661 Q2043.13 214.74 2036.81 214.74 Q2034.63 214.74 2032.37 214.37 Q2030.12 213.999 2027.71 213.258 L2027.71 208.559 Q2029.8 209.694 2032.02 210.249 Q2034.24 210.805 2036.72 210.805 Q2040.72 210.805 2043.06 208.698 Q2045.4 206.592 2045.4 202.981 Q2045.4 199.37 2043.06 197.263 Q2040.72 195.157 2036.72 195.157 Q2034.84 195.157 2032.97 195.573 Q2031.12 195.99 2029.17 196.87 L2029.17 179.509 Z" fill="#000000" fill-rule="nonzero" fill-opacity="1" /><path clip-path="url(#clip790)" d="M2067.94 197.425 L2067.94 204.647 L2076.07 204.647 L2076.07 206.846 L2067.94 206.846 L2067.94 214.069 L2065.51 214.069 L2065.51 206.846 L2057.39 206.846 L2057.39 204.647 L2065.51 204.647 L2065.51 197.425 L2067.94 197.425 Z" fill="#000000" fill-rule="nonzero" fill-opacity="1" /><path clip-path="url(#clip790)" d="M2100.24 188.907 L2100.24 192.934 Q2098.43 192.009 2096.49 191.546 Q2094.54 191.083 2092.46 191.083 Q2089.29 191.083 2087.69 192.055 Q2086.11 193.027 2086.11 194.971 Q2086.11 196.453 2087.25 197.309 Q2088.38 198.143 2091.81 198.907 L2093.27 199.231 Q2097.8 200.203 2099.7 201.985 Q2101.62 203.745 2101.62 206.916 Q2101.62 210.527 2098.75 212.633 Q2095.91 214.74 2090.91 214.74 Q2088.82 214.74 2086.55 214.323 Q2084.31 213.93 2081.81 213.12 L2081.81 208.721 Q2084.17 209.948 2086.46 210.573 Q2088.75 211.175 2091 211.175 Q2094.01 211.175 2095.63 210.157 Q2097.25 209.115 2097.25 207.24 Q2097.25 205.504 2096.07 204.578 Q2094.91 203.652 2090.95 202.796 L2089.47 202.448 Q2085.51 201.615 2083.75 199.902 Q2081.99 198.166 2081.99 195.157 Q2081.99 191.499 2084.59 189.509 Q2087.18 187.518 2091.95 187.518 Q2094.31 187.518 2096.39 187.865 Q2098.48 188.212 2100.24 188.907 Z" fill="#000000" fill-rule="nonzero" fill-opacity="1" /><path clip-path="url(#clip790)" d="M2112.62 180.782 L2112.62 188.143 L2121.39 188.143 L2121.39 191.453 L2112.62 191.453 L2112.62 205.527 Q2112.62 208.698 2113.48 209.601 Q2114.36 210.504 2117.02 210.504 L2121.39 210.504 L2121.39 214.069 L2117.02 214.069 Q2112.09 214.069 2110.21 212.24 Q2108.34 210.388 2108.34 205.527 L2108.34 191.453 L2105.21 191.453 L2105.21 188.143 L2108.34 188.143 L2108.34 180.782 L2112.62 180.782 Z" fill="#000000" fill-rule="nonzero" fill-opacity="1" /><path clip-path="url(#clip790)" d="M2137.04 191.129 Q2133.61 191.129 2131.62 193.814 Q2129.63 196.476 2129.63 201.129 Q2129.63 205.782 2131.6 208.467 Q2133.59 211.129 2137.04 211.129 Q2140.44 211.129 2142.43 208.444 Q2144.42 205.758 2144.42 201.129 Q2144.42 196.522 2142.43 193.837 Q2140.44 191.129 2137.04 191.129 M2137.04 187.518 Q2142.6 187.518 2145.77 191.129 Q2148.94 194.74 2148.94 201.129 Q2148.94 207.495 2145.77 211.129 Q2142.6 214.74 2137.04 214.74 Q2131.46 214.74 2128.29 211.129 Q2125.14 207.495 2125.14 201.129 Q2125.14 194.74 2128.29 191.129 Q2131.46 187.518 2137.04 187.518 Z" fill="#000000" fill-rule="nonzero" fill-opacity="1" /><path clip-path="url(#clip790)" d="M2171.02 192.124 Q2170.3 191.708 2169.45 191.522 Q2168.61 191.314 2167.6 191.314 Q2163.98 191.314 2162.04 193.675 Q2160.12 196.013 2160.12 200.411 L2160.12 214.069 L2155.84 214.069 L2155.84 188.143 L2160.12 188.143 L2160.12 192.171 Q2161.46 189.809 2163.61 188.675 Q2165.77 187.518 2168.85 187.518 Q2169.29 187.518 2169.82 187.587 Q2170.35 187.634 2171 187.749 L2171.02 192.124 Z" fill="#000000" fill-rule="nonzero" fill-opacity="1" /><path clip-path="url(#clip790)" d="M2187.27 201.036 Q2182.11 201.036 2180.12 202.217 Q2178.13 203.397 2178.13 206.245 Q2178.13 208.513 2179.61 209.856 Q2181.11 211.175 2183.68 211.175 Q2187.23 211.175 2189.36 208.675 Q2191.51 206.152 2191.51 201.985 L2191.51 201.036 L2187.27 201.036 M2195.77 199.277 L2195.77 214.069 L2191.51 214.069 L2191.51 210.133 Q2190.05 212.495 2187.87 213.629 Q2185.7 214.74 2182.55 214.74 Q2178.57 214.74 2176.21 212.518 Q2173.87 210.272 2173.87 206.522 Q2173.87 202.147 2176.79 199.925 Q2179.73 197.703 2185.54 197.703 L2191.51 197.703 L2191.51 197.286 Q2191.51 194.347 2189.56 192.749 Q2187.64 191.129 2184.15 191.129 Q2181.92 191.129 2179.82 191.661 Q2177.71 192.194 2175.77 193.259 L2175.77 189.323 Q2178.11 188.421 2180.3 187.981 Q2182.5 187.518 2184.59 187.518 Q2190.21 187.518 2192.99 190.434 Q2195.77 193.351 2195.77 199.277 Z" fill="#000000" fill-rule="nonzero" fill-opacity="1" /><path clip-path="url(#clip790)" d="M2221.6 200.805 Q2221.6 196.175 2219.68 193.629 Q2217.78 191.083 2214.33 191.083 Q2210.91 191.083 2208.98 193.629 Q2207.09 196.175 2207.09 200.805 Q2207.09 205.411 2208.98 207.958 Q2210.91 210.504 2214.33 210.504 Q2217.78 210.504 2219.68 207.958 Q2221.6 205.411 2221.6 200.805 M2225.86 210.851 Q2225.86 217.471 2222.92 220.689 Q2219.98 223.93 2213.92 223.93 Q2211.67 223.93 2209.68 223.582 Q2207.69 223.258 2205.81 222.564 L2205.81 218.42 Q2207.69 219.439 2209.52 219.925 Q2211.35 220.411 2213.24 220.411 Q2217.43 220.411 2219.52 218.212 Q2221.6 216.036 2221.6 211.615 L2221.6 209.508 Q2220.28 211.8 2218.22 212.934 Q2216.16 214.069 2213.29 214.069 Q2208.52 214.069 2205.6 210.434 Q2202.69 206.8 2202.69 200.805 Q2202.69 194.786 2205.6 191.152 Q2208.52 187.518 2213.29 187.518 Q2216.16 187.518 2218.22 188.652 Q2220.28 189.786 2221.6 192.078 L2221.6 188.143 L2225.86 188.143 L2225.86 210.851 Z" fill="#000000" fill-rule="nonzero" fill-opacity="1" /><path clip-path="url(#clip790)" d="M2256.81 200.041 L2256.81 202.124 L2237.23 202.124 Q2237.5 206.522 2239.86 208.837 Q2242.25 211.129 2246.48 211.129 Q2248.94 211.129 2251.23 210.527 Q2253.54 209.925 2255.81 208.721 L2255.81 212.749 Q2253.52 213.721 2251.11 214.231 Q2248.71 214.74 2246.23 214.74 Q2240.03 214.74 2236.39 211.129 Q2232.78 207.518 2232.78 201.36 Q2232.78 194.995 2236.21 191.268 Q2239.66 187.518 2245.49 187.518 Q2250.72 187.518 2253.75 190.897 Q2256.81 194.254 2256.81 200.041 M2252.55 198.791 Q2252.5 195.296 2250.58 193.212 Q2248.68 191.129 2245.54 191.129 Q2241.97 191.129 2239.82 193.143 Q2237.69 195.157 2237.36 198.814 L2252.55 198.791 Z" fill="#000000" fill-rule="nonzero" fill-opacity="1" /></svg>
