<?xml version="1.0" encoding="utf-8"?>
<svg xmlns="http://www.w3.org/2000/svg" xmlns:xlink="http://www.w3.org/1999/xlink" width="600" height="400" viewBox="0 0 2400 1600">
<defs>
  <clipPath id="clip850">
    <rect x="0" y="0" width="2400" height="1600"/>
  </clipPath>
</defs>
<path clip-path="url(#clip850)" d="M0 1600 L2400 1600 L2400 0 L0 0  Z" fill="#ffffff" fill-rule="evenodd" fill-opacity="1"/>
<defs>
  <clipPath id="clip851">
    <rect x="480" y="0" width="1681" height="1600"/>
  </clipPath>
</defs>
<path clip-path="url(#clip850)" d="M223.103 1423.18 L2352.76 1423.18 L2352.76 47.2441 L223.103 47.2441  Z" fill="#ffffff" fill-rule="evenodd" fill-opacity="1"/>
<defs>
  <clipPath id="clip852">
    <rect x="223" y="47" width="2131" height="1377"/>
  </clipPath>
</defs>
<polyline clip-path="url(#clip852)" style="stroke:#000000; stroke-linecap:round; stroke-linejoin:round; stroke-width:2; stroke-opacity:0.1; fill:none" points="223.103,1423.18 223.103,47.2441 "/>
<polyline clip-path="url(#clip852)" style="stroke:#000000; stroke-linecap:round; stroke-linejoin:round; stroke-width:2; stroke-opacity:0.1; fill:none" points="755.516,1423.18 755.516,47.2441 "/>
<polyline clip-path="url(#clip852)" style="stroke:#000000; stroke-linecap:round; stroke-linejoin:round; stroke-width:2; stroke-opacity:0.1; fill:none" points="1287.93,1423.18 1287.93,47.2441 "/>
<polyline clip-path="url(#clip852)" style="stroke:#000000; stroke-linecap:round; stroke-linejoin:round; stroke-width:2; stroke-opacity:0.1; fill:none" points="1820.34,1423.18 1820.34,47.2441 "/>
<polyline clip-path="url(#clip852)" style="stroke:#000000; stroke-linecap:round; stroke-linejoin:round; stroke-width:2; stroke-opacity:0.1; fill:none" points="2352.76,1423.18 2352.76,47.2441 "/>
<polyline clip-path="url(#clip852)" style="stroke:#000000; stroke-linecap:round; stroke-linejoin:round; stroke-width:2; stroke-opacity:0.1; fill:none" points="223.103,1189.17 2352.76,1189.17 "/>
<polyline clip-path="url(#clip852)" style="stroke:#000000; stroke-linecap:round; stroke-linejoin:round; stroke-width:2; stroke-opacity:0.1; fill:none" points="223.103,888.697 2352.76,888.697 "/>
<polyline clip-path="url(#clip852)" style="stroke:#000000; stroke-linecap:round; stroke-linejoin:round; stroke-width:2; stroke-opacity:0.1; fill:none" points="223.103,588.229 2352.76,588.229 "/>
<polyline clip-path="url(#clip852)" style="stroke:#000000; stroke-linecap:round; stroke-linejoin:round; stroke-width:2; stroke-opacity:0.1; fill:none" points="223.103,287.761 2352.76,287.761 "/>
<polyline clip-path="url(#clip850)" style="stroke:#000000; stroke-linecap:round; stroke-linejoin:round; stroke-width:4; stroke-opacity:1; fill:none" points="223.103,1423.18 2352.76,1423.18 "/>
<polyline clip-path="url(#clip850)" style="stroke:#000000; stroke-linecap:round; stroke-linejoin:round; stroke-width:4; stroke-opacity:1; fill:none" points="223.103,1423.18 223.103,1404.28 "/>
<polyline clip-path="url(#clip850)" style="stroke:#000000; stroke-linecap:round; stroke-linejoin:round; stroke-width:4; stroke-opacity:1; fill:none" points="755.516,1423.18 755.516,1404.28 "/>
<polyline clip-path="url(#clip850)" style="stroke:#000000; stroke-linecap:round; stroke-linejoin:round; stroke-width:4; stroke-opacity:1; fill:none" points="1287.93,1423.18 1287.93,1404.28 "/>
<polyline clip-path="url(#clip850)" style="stroke:#000000; stroke-linecap:round; stroke-linejoin:round; stroke-width:4; stroke-opacity:1; fill:none" points="1820.34,1423.18 1820.34,1404.28 "/>
<polyline clip-path="url(#clip850)" style="stroke:#000000; stroke-linecap:round; stroke-linejoin:round; stroke-width:4; stroke-opacity:1; fill:none" points="2352.76,1423.18 2352.76,1404.28 "/>
<path clip-path="url(#clip850)" d="M200.487 1454.1 Q196.876 1454.1 195.047 1457.66 Q193.242 1461.2 193.242 1468.33 Q193.242 1475.44 195.047 1479.01 Q196.876 1482.55 200.487 1482.55 Q204.121 1482.55 205.927 1479.01 Q207.755 1475.44 207.755 1468.33 Q207.755 1461.2 205.927 1457.66 Q204.121 1454.1 200.487 1454.1 M200.487 1450.39 Q206.297 1450.39 209.353 1455 Q212.431 1459.58 212.431 1468.33 Q212.431 1477.06 209.353 1481.67 Q206.297 1486.25 200.487 1486.25 Q194.677 1486.25 191.598 1481.67 Q188.543 1477.06 188.543 1468.33 Q188.543 1459.58 191.598 1455 Q194.677 1450.39 200.487 1450.39 Z" fill="#000000" fill-rule="nonzero" fill-opacity="1" /><path clip-path="url(#clip850)" d="M220.649 1479.7 L225.533 1479.7 L225.533 1485.58 L220.649 1485.58 L220.649 1479.7 Z" fill="#000000" fill-rule="nonzero" fill-opacity="1" /><path clip-path="url(#clip850)" d="M245.718 1454.1 Q242.107 1454.1 240.278 1457.66 Q238.473 1461.2 238.473 1468.33 Q238.473 1475.44 240.278 1479.01 Q242.107 1482.55 245.718 1482.55 Q249.352 1482.55 251.158 1479.01 Q252.987 1475.44 252.987 1468.33 Q252.987 1461.2 251.158 1457.66 Q249.352 1454.1 245.718 1454.1 M245.718 1450.39 Q251.528 1450.39 254.584 1455 Q257.663 1459.58 257.663 1468.33 Q257.663 1477.06 254.584 1481.67 Q251.528 1486.25 245.718 1486.25 Q239.908 1486.25 236.829 1481.67 Q233.774 1477.06 233.774 1468.33 Q233.774 1459.58 236.829 1455 Q239.908 1450.39 245.718 1450.39 Z" fill="#000000" fill-rule="nonzero" fill-opacity="1" /><path clip-path="url(#clip850)" d="M733.398 1454.1 Q729.787 1454.1 727.958 1457.66 Q726.153 1461.2 726.153 1468.33 Q726.153 1475.44 727.958 1479.01 Q729.787 1482.55 733.398 1482.55 Q737.032 1482.55 738.838 1479.01 Q740.666 1475.44 740.666 1468.33 Q740.666 1461.2 738.838 1457.66 Q737.032 1454.1 733.398 1454.1 M733.398 1450.39 Q739.208 1450.39 742.264 1455 Q745.342 1459.58 745.342 1468.33 Q745.342 1477.06 742.264 1481.67 Q739.208 1486.25 733.398 1486.25 Q727.588 1486.25 724.509 1481.67 Q721.454 1477.06 721.454 1468.33 Q721.454 1459.58 724.509 1455 Q727.588 1450.39 733.398 1450.39 Z" fill="#000000" fill-rule="nonzero" fill-opacity="1" /><path clip-path="url(#clip850)" d="M753.56 1479.7 L758.444 1479.7 L758.444 1485.58 L753.56 1485.58 L753.56 1479.7 Z" fill="#000000" fill-rule="nonzero" fill-opacity="1" /><path clip-path="url(#clip850)" d="M768.676 1451.02 L787.032 1451.02 L787.032 1454.96 L772.958 1454.96 L772.958 1463.43 Q773.976 1463.08 774.995 1462.92 Q776.013 1462.73 777.032 1462.73 Q782.819 1462.73 786.199 1465.9 Q789.578 1469.08 789.578 1474.49 Q789.578 1480.07 786.106 1483.17 Q782.634 1486.25 776.314 1486.25 Q774.138 1486.25 771.87 1485.88 Q769.625 1485.51 767.217 1484.77 L767.217 1480.07 Q769.301 1481.2 771.523 1481.76 Q773.745 1482.32 776.222 1482.32 Q780.226 1482.32 782.564 1480.21 Q784.902 1478.1 784.902 1474.49 Q784.902 1470.88 782.564 1468.77 Q780.226 1466.67 776.222 1466.67 Q774.347 1466.67 772.472 1467.08 Q770.62 1467.5 768.676 1468.38 L768.676 1451.02 Z" fill="#000000" fill-rule="nonzero" fill-opacity="1" /><path clip-path="url(#clip850)" d="M1255.08 1481.64 L1262.72 1481.64 L1262.72 1455.28 L1254.41 1456.95 L1254.41 1452.69 L1262.67 1451.02 L1267.35 1451.02 L1267.35 1481.64 L1274.99 1481.64 L1274.99 1485.58 L1255.08 1485.58 L1255.08 1481.64 Z" fill="#000000" fill-rule="nonzero" fill-opacity="1" /><path clip-path="url(#clip850)" d="M1284.43 1479.7 L1289.32 1479.7 L1289.32 1485.58 L1284.43 1485.58 L1284.43 1479.7 Z" fill="#000000" fill-rule="nonzero" fill-opacity="1" /><path clip-path="url(#clip850)" d="M1309.5 1454.1 Q1305.89 1454.1 1304.06 1457.66 Q1302.26 1461.2 1302.26 1468.33 Q1302.26 1475.44 1304.06 1479.01 Q1305.89 1482.55 1309.5 1482.55 Q1313.14 1482.55 1314.94 1479.01 Q1316.77 1475.44 1316.77 1468.33 Q1316.77 1461.2 1314.94 1457.66 Q1313.14 1454.1 1309.5 1454.1 M1309.5 1450.39 Q1315.31 1450.39 1318.37 1455 Q1321.45 1459.58 1321.45 1468.33 Q1321.45 1477.06 1318.37 1481.67 Q1315.31 1486.25 1309.5 1486.25 Q1303.69 1486.25 1300.61 1481.67 Q1297.56 1477.06 1297.56 1468.33 Q1297.56 1459.58 1300.61 1455 Q1303.69 1450.39 1309.5 1450.39 Z" fill="#000000" fill-rule="nonzero" fill-opacity="1" /><path clip-path="url(#clip850)" d="M1787.99 1481.64 L1795.63 1481.64 L1795.63 1455.28 L1787.32 1456.95 L1787.32 1452.69 L1795.59 1451.02 L1800.26 1451.02 L1800.26 1481.64 L1807.9 1481.64 L1807.9 1485.58 L1787.99 1485.58 L1787.99 1481.64 Z" fill="#000000" fill-rule="nonzero" fill-opacity="1" /><path clip-path="url(#clip850)" d="M1817.34 1479.7 L1822.23 1479.7 L1822.23 1485.58 L1817.34 1485.58 L1817.34 1479.7 Z" fill="#000000" fill-rule="nonzero" fill-opacity="1" /><path clip-path="url(#clip850)" d="M1832.46 1451.02 L1850.82 1451.02 L1850.82 1454.96 L1836.74 1454.96 L1836.74 1463.43 Q1837.76 1463.08 1838.78 1462.92 Q1839.8 1462.73 1840.82 1462.73 Q1846.6 1462.73 1849.98 1465.9 Q1853.36 1469.08 1853.36 1474.49 Q1853.36 1480.07 1849.89 1483.17 Q1846.42 1486.25 1840.1 1486.25 Q1837.92 1486.25 1835.65 1485.88 Q1833.41 1485.51 1831 1484.77 L1831 1480.07 Q1833.09 1481.2 1835.31 1481.76 Q1837.53 1482.32 1840.01 1482.32 Q1844.01 1482.32 1846.35 1480.21 Q1848.69 1478.1 1848.69 1474.49 Q1848.69 1470.88 1846.35 1468.77 Q1844.01 1466.67 1840.01 1466.67 Q1838.13 1466.67 1836.26 1467.08 Q1834.4 1467.5 1832.46 1468.38 L1832.46 1451.02 Z" fill="#000000" fill-rule="nonzero" fill-opacity="1" /><path clip-path="url(#clip850)" d="M2323.99 1481.64 L2340.31 1481.64 L2340.31 1485.58 L2318.37 1485.58 L2318.37 1481.64 Q2321.03 1478.89 2325.61 1474.26 Q2330.22 1469.61 2331.4 1468.27 Q2333.65 1465.74 2334.53 1464.01 Q2335.43 1462.25 2335.43 1460.56 Q2335.43 1457.8 2333.49 1456.07 Q2331.56 1454.33 2328.46 1454.33 Q2326.26 1454.33 2323.81 1455.09 Q2321.38 1455.86 2318.6 1457.41 L2318.6 1452.69 Q2321.43 1451.55 2323.88 1450.97 Q2326.33 1450.39 2328.37 1450.39 Q2333.74 1450.39 2336.93 1453.08 Q2340.13 1455.77 2340.13 1460.26 Q2340.13 1462.39 2339.32 1464.31 Q2338.53 1466.2 2336.42 1468.8 Q2335.85 1469.47 2332.74 1472.69 Q2329.64 1475.88 2323.99 1481.64 Z" fill="#000000" fill-rule="nonzero" fill-opacity="1" /><path clip-path="url(#clip850)" d="M2350.13 1479.7 L2355.01 1479.7 L2355.01 1485.58 L2350.13 1485.58 L2350.13 1479.7 Z" fill="#000000" fill-rule="nonzero" fill-opacity="1" /><path clip-path="url(#clip850)" d="M2375.2 1454.1 Q2371.59 1454.1 2369.76 1457.66 Q2367.95 1461.2 2367.95 1468.33 Q2367.95 1475.44 2369.76 1479.01 Q2371.59 1482.55 2375.2 1482.55 Q2378.83 1482.55 2380.64 1479.01 Q2382.47 1475.44 2382.47 1468.33 Q2382.47 1461.2 2380.64 1457.66 Q2378.83 1454.1 2375.2 1454.1 M2375.2 1450.39 Q2381.01 1450.39 2384.06 1455 Q2387.14 1459.58 2387.14 1468.33 Q2387.14 1477.06 2384.06 1481.67 Q2381.01 1486.25 2375.2 1486.25 Q2369.39 1486.25 2366.31 1481.67 Q2363.25 1477.06 2363.25 1468.33 Q2363.25 1459.58 2366.31 1455 Q2369.39 1450.39 2375.2 1450.39 Z" fill="#000000" fill-rule="nonzero" fill-opacity="1" /><path clip-path="url(#clip850)" d="M1286.99 1522.27 L1286.99 1532.4 L1299.05 1532.4 L1299.05 1536.95 L1286.99 1536.95 L1286.99 1556.3 Q1286.99 1560.66 1288.17 1561.9 Q1289.38 1563.14 1293.04 1563.14 L1299.05 1563.14 L1299.05 1568.04 L1293.04 1568.04 Q1286.26 1568.04 1283.68 1565.53 Q1281.1 1562.98 1281.1 1556.3 L1281.1 1536.95 L1276.81 1536.95 L1276.81 1532.4 L1281.1 1532.4 L1281.1 1522.27 L1286.99 1522.27 Z" fill="#000000" fill-rule="nonzero" fill-opacity="1" /><polyline clip-path="url(#clip850)" style="stroke:#000000; stroke-linecap:round; stroke-linejoin:round; stroke-width:4; stroke-opacity:1; fill:none" points="223.103,1423.18 223.103,47.2441 "/>
<polyline clip-path="url(#clip850)" style="stroke:#000000; stroke-linecap:round; stroke-linejoin:round; stroke-width:4; stroke-opacity:1; fill:none" points="223.103,1189.17 242,1189.17 "/>
<polyline clip-path="url(#clip850)" style="stroke:#000000; stroke-linecap:round; stroke-linejoin:round; stroke-width:4; stroke-opacity:1; fill:none" points="223.103,888.697 242,888.697 "/>
<polyline clip-path="url(#clip850)" style="stroke:#000000; stroke-linecap:round; stroke-linejoin:round; stroke-width:4; stroke-opacity:1; fill:none" points="223.103,588.229 242,588.229 "/>
<polyline clip-path="url(#clip850)" style="stroke:#000000; stroke-linecap:round; stroke-linejoin:round; stroke-width:4; stroke-opacity:1; fill:none" points="223.103,287.761 242,287.761 "/>
<path clip-path="url(#clip850)" d="M50.9921 1189.62 L80.6679 1189.62 L80.6679 1193.55 L50.9921 1193.55 L50.9921 1189.62 Z" fill="#000000" fill-rule="nonzero" fill-opacity="1" /><path clip-path="url(#clip850)" d="M100.76 1174.96 Q97.1493 1174.96 95.3206 1178.53 Q93.515 1182.07 93.515 1189.2 Q93.515 1196.31 95.3206 1199.87 Q97.1493 1203.41 100.76 1203.41 Q104.395 1203.41 106.2 1199.87 Q108.029 1196.31 108.029 1189.2 Q108.029 1182.07 106.2 1178.53 Q104.395 1174.96 100.76 1174.96 M100.76 1171.26 Q106.571 1171.26 109.626 1175.87 Q112.705 1180.45 112.705 1189.2 Q112.705 1197.93 109.626 1202.53 Q106.571 1207.12 100.76 1207.12 Q94.9502 1207.12 91.8715 1202.53 Q88.816 1197.93 88.816 1189.2 Q88.816 1180.45 91.8715 1175.87 Q94.9502 1171.26 100.76 1171.26 Z" fill="#000000" fill-rule="nonzero" fill-opacity="1" /><path clip-path="url(#clip850)" d="M120.922 1200.57 L125.807 1200.57 L125.807 1206.45 L120.922 1206.45 L120.922 1200.57 Z" fill="#000000" fill-rule="nonzero" fill-opacity="1" /><path clip-path="url(#clip850)" d="M140.019 1202.51 L156.339 1202.51 L156.339 1206.45 L134.394 1206.45 L134.394 1202.51 Q137.056 1199.76 141.64 1195.13 Q146.246 1190.47 147.427 1189.13 Q149.672 1186.61 150.552 1184.87 Q151.455 1183.11 151.455 1181.42 Q151.455 1178.67 149.51 1176.93 Q147.589 1175.2 144.487 1175.2 Q142.288 1175.2 139.834 1175.96 Q137.404 1176.72 134.626 1178.27 L134.626 1173.55 Q137.45 1172.42 139.904 1171.84 Q142.357 1171.26 144.394 1171.26 Q149.765 1171.26 152.959 1173.95 Q156.154 1176.63 156.154 1181.12 Q156.154 1183.25 155.343 1185.17 Q154.556 1187.07 152.45 1189.66 Q151.871 1190.33 148.769 1193.55 Q145.668 1196.75 140.019 1202.51 Z" fill="#000000" fill-rule="nonzero" fill-opacity="1" /><path clip-path="url(#clip850)" d="M166.2 1171.89 L184.556 1171.89 L184.556 1175.82 L170.482 1175.82 L170.482 1184.29 Q171.501 1183.95 172.519 1183.78 Q173.538 1183.6 174.556 1183.6 Q180.343 1183.6 183.723 1186.77 Q187.103 1189.94 187.103 1195.36 Q187.103 1200.94 183.63 1204.04 Q180.158 1207.12 173.839 1207.12 Q171.663 1207.12 169.394 1206.75 Q167.149 1206.38 164.742 1205.64 L164.742 1200.94 Q166.825 1202.07 169.047 1202.63 Q171.269 1203.18 173.746 1203.18 Q177.751 1203.18 180.089 1201.07 Q182.427 1198.97 182.427 1195.36 Q182.427 1191.75 180.089 1189.64 Q177.751 1187.53 173.746 1187.53 Q171.871 1187.53 169.996 1187.95 Q168.144 1188.37 166.2 1189.25 L166.2 1171.89 Z" fill="#000000" fill-rule="nonzero" fill-opacity="1" /><path clip-path="url(#clip850)" d="M99.765 874.496 Q96.1539 874.496 94.3252 878.061 Q92.5197 881.602 92.5197 888.732 Q92.5197 895.838 94.3252 899.403 Q96.1539 902.945 99.765 902.945 Q103.399 902.945 105.205 899.403 Q107.033 895.838 107.033 888.732 Q107.033 881.602 105.205 878.061 Q103.399 874.496 99.765 874.496 M99.765 870.792 Q105.575 870.792 108.631 875.399 Q111.709 879.982 111.709 888.732 Q111.709 897.459 108.631 902.065 Q105.575 906.649 99.765 906.649 Q93.9549 906.649 90.8762 902.065 Q87.8206 897.459 87.8206 888.732 Q87.8206 879.982 90.8762 875.399 Q93.9549 870.792 99.765 870.792 Z" fill="#000000" fill-rule="nonzero" fill-opacity="1" /><path clip-path="url(#clip850)" d="M119.927 900.098 L124.811 900.098 L124.811 905.977 L119.927 905.977 L119.927 900.098 Z" fill="#000000" fill-rule="nonzero" fill-opacity="1" /><path clip-path="url(#clip850)" d="M144.996 874.496 Q141.385 874.496 139.556 878.061 Q137.751 881.602 137.751 888.732 Q137.751 895.838 139.556 899.403 Q141.385 902.945 144.996 902.945 Q148.63 902.945 150.436 899.403 Q152.265 895.838 152.265 888.732 Q152.265 881.602 150.436 878.061 Q148.63 874.496 144.996 874.496 M144.996 870.792 Q150.806 870.792 153.862 875.399 Q156.941 879.982 156.941 888.732 Q156.941 897.459 153.862 902.065 Q150.806 906.649 144.996 906.649 Q139.186 906.649 136.107 902.065 Q133.052 897.459 133.052 888.732 Q133.052 879.982 136.107 875.399 Q139.186 870.792 144.996 870.792 Z" fill="#000000" fill-rule="nonzero" fill-opacity="1" /><path clip-path="url(#clip850)" d="M175.158 874.496 Q171.547 874.496 169.718 878.061 Q167.913 881.602 167.913 888.732 Q167.913 895.838 169.718 899.403 Q171.547 902.945 175.158 902.945 Q178.792 902.945 180.598 899.403 Q182.427 895.838 182.427 888.732 Q182.427 881.602 180.598 878.061 Q178.792 874.496 175.158 874.496 M175.158 870.792 Q180.968 870.792 184.024 875.399 Q187.103 879.982 187.103 888.732 Q187.103 897.459 184.024 902.065 Q180.968 906.649 175.158 906.649 Q169.348 906.649 166.269 902.065 Q163.214 897.459 163.214 888.732 Q163.214 879.982 166.269 875.399 Q169.348 870.792 175.158 870.792 Z" fill="#000000" fill-rule="nonzero" fill-opacity="1" /><path clip-path="url(#clip850)" d="M100.76 574.028 Q97.1493 574.028 95.3206 577.593 Q93.515 581.134 93.515 588.264 Q93.515 595.37 95.3206 598.935 Q97.1493 602.477 100.76 602.477 Q104.395 602.477 106.2 598.935 Q108.029 595.37 108.029 588.264 Q108.029 581.134 106.2 577.593 Q104.395 574.028 100.76 574.028 M100.76 570.324 Q106.571 570.324 109.626 574.931 Q112.705 579.514 112.705 588.264 Q112.705 596.991 109.626 601.597 Q106.571 606.181 100.76 606.181 Q94.9502 606.181 91.8715 601.597 Q88.816 596.991 88.816 588.264 Q88.816 579.514 91.8715 574.931 Q94.9502 570.324 100.76 570.324 Z" fill="#000000" fill-rule="nonzero" fill-opacity="1" /><path clip-path="url(#clip850)" d="M120.922 599.63 L125.807 599.63 L125.807 605.509 L120.922 605.509 L120.922 599.63 Z" fill="#000000" fill-rule="nonzero" fill-opacity="1" /><path clip-path="url(#clip850)" d="M140.019 601.574 L156.339 601.574 L156.339 605.509 L134.394 605.509 L134.394 601.574 Q137.056 598.82 141.64 594.19 Q146.246 589.537 147.427 588.195 Q149.672 585.671 150.552 583.935 Q151.455 582.176 151.455 580.486 Q151.455 577.732 149.51 575.996 Q147.589 574.259 144.487 574.259 Q142.288 574.259 139.834 575.023 Q137.404 575.787 134.626 577.338 L134.626 572.616 Q137.45 571.482 139.904 570.903 Q142.357 570.324 144.394 570.324 Q149.765 570.324 152.959 573.009 Q156.154 575.695 156.154 580.185 Q156.154 582.315 155.343 584.236 Q154.556 586.134 152.45 588.727 Q151.871 589.398 148.769 592.616 Q145.668 595.81 140.019 601.574 Z" fill="#000000" fill-rule="nonzero" fill-opacity="1" /><path clip-path="url(#clip850)" d="M166.2 570.949 L184.556 570.949 L184.556 574.884 L170.482 574.884 L170.482 583.357 Q171.501 583.009 172.519 582.847 Q173.538 582.662 174.556 582.662 Q180.343 582.662 183.723 585.833 Q187.103 589.005 187.103 594.421 Q187.103 600 183.63 603.102 Q180.158 606.181 173.839 606.181 Q171.663 606.181 169.394 605.81 Q167.149 605.44 164.742 604.699 L164.742 600 Q166.825 601.134 169.047 601.69 Q171.269 602.245 173.746 602.245 Q177.751 602.245 180.089 600.139 Q182.427 598.033 182.427 594.421 Q182.427 590.81 180.089 588.704 Q177.751 586.597 173.746 586.597 Q171.871 586.597 169.996 587.014 Q168.144 587.431 166.2 588.31 L166.2 570.949 Z" fill="#000000" fill-rule="nonzero" fill-opacity="1" /><path clip-path="url(#clip850)" d="M99.765 273.56 Q96.1539 273.56 94.3252 277.125 Q92.5197 280.666 92.5197 287.796 Q92.5197 294.902 94.3252 298.467 Q96.1539 302.009 99.765 302.009 Q103.399 302.009 105.205 298.467 Q107.033 294.902 107.033 287.796 Q107.033 280.666 105.205 277.125 Q103.399 273.56 99.765 273.56 M99.765 269.856 Q105.575 269.856 108.631 274.463 Q111.709 279.046 111.709 287.796 Q111.709 296.523 108.631 301.129 Q105.575 305.713 99.765 305.713 Q93.9549 305.713 90.8762 301.129 Q87.8206 296.523 87.8206 287.796 Q87.8206 279.046 90.8762 274.463 Q93.9549 269.856 99.765 269.856 Z" fill="#000000" fill-rule="nonzero" fill-opacity="1" /><path clip-path="url(#clip850)" d="M119.927 299.162 L124.811 299.162 L124.811 305.041 L119.927 305.041 L119.927 299.162 Z" fill="#000000" fill-rule="nonzero" fill-opacity="1" /><path clip-path="url(#clip850)" d="M135.043 270.481 L153.399 270.481 L153.399 274.416 L139.325 274.416 L139.325 282.889 Q140.343 282.541 141.362 282.379 Q142.381 282.194 143.399 282.194 Q149.186 282.194 152.566 285.365 Q155.945 288.537 155.945 293.953 Q155.945 299.532 152.473 302.634 Q149.001 305.713 142.681 305.713 Q140.506 305.713 138.237 305.342 Q135.992 304.972 133.584 304.231 L133.584 299.532 Q135.668 300.666 137.89 301.222 Q140.112 301.777 142.589 301.777 Q146.593 301.777 148.931 299.671 Q151.269 297.564 151.269 293.953 Q151.269 290.342 148.931 288.236 Q146.593 286.129 142.589 286.129 Q140.714 286.129 138.839 286.546 Q136.987 286.963 135.043 287.842 L135.043 270.481 Z" fill="#000000" fill-rule="nonzero" fill-opacity="1" /><path clip-path="url(#clip850)" d="M175.158 273.56 Q171.547 273.56 169.718 277.125 Q167.913 280.666 167.913 287.796 Q167.913 294.902 169.718 298.467 Q171.547 302.009 175.158 302.009 Q178.792 302.009 180.598 298.467 Q182.427 294.902 182.427 287.796 Q182.427 280.666 180.598 277.125 Q178.792 273.56 175.158 273.56 M175.158 269.856 Q180.968 269.856 184.024 274.463 Q187.103 279.046 187.103 287.796 Q187.103 296.523 184.024 301.129 Q180.968 305.713 175.158 305.713 Q169.348 305.713 166.269 301.129 Q163.214 296.523 163.214 287.796 Q163.214 279.046 166.269 274.463 Q169.348 269.856 175.158 269.856 Z" fill="#000000" fill-rule="nonzero" fill-opacity="1" /><polyline clip-path="url(#clip852)" style="stroke:#009af9; stroke-linecap:round; stroke-linejoin:round; stroke-width:4; stroke-opacity:1; fill:none" points="223.103,86.1857 225.234,87.2495 227.366,88.3028 229.498,89.3456 231.63,90.378 233.761,91.4001 235.893,92.412 238.025,93.4139 240.157,94.4058 242.289,95.3878 244.42,96.36 246.552,97.3225 248.684,98.2754 250.816,99.2189 252.948,100.153 255.079,101.078 257.211,101.993 259.343,102.9 261.475,103.797 263.606,104.685 265.738,105.565 267.87,106.436 270.002,107.298 272.134,108.152 274.265,108.997 276.397,109.833 278.529,110.662 280.661,111.482 282.792,112.294 284.924,113.098 287.056,113.893 289.188,114.681 291.32,115.461 293.451,116.234 295.583,116.998 297.715,117.755 299.847,118.505 301.979,119.247 304.11,119.981 306.242,120.708 308.374,121.428 310.506,122.141 312.637,122.847 314.769,123.546 316.901,124.238 319.033,124.922 321.165,125.6 323.296,126.272 325.428,126.936 327.56,127.594 329.692,128.246 331.824,128.891 333.955,129.529 336.087,130.161 338.219,130.787 340.351,131.407 342.482,132.02 344.614,132.628 346.746,133.229 348.878,133.824 351.01,134.414 353.141,134.997 355.273,135.575 357.405,136.147 359.537,136.713 361.669,137.273 363.8,137.829 365.932,138.378 368.064,138.922 370.196,139.461 372.327,139.994 374.459,140.522 376.591,141.045 378.723,141.562 380.855,142.074 382.986,142.582 385.118,143.084 387.25,143.581 389.382,144.073 391.514,144.56 393.645,145.043 395.777,145.521 397.909,145.994 400.041,146.462 402.172,146.925 404.304,147.384 406.436,147.838 408.568,148.288 410.7,148.734 412.831,149.174 414.963,149.611 417.095,150.043 419.227,150.471 421.359,150.894 423.49,151.314 425.622,151.729 427.754,152.14 429.886,152.547 432.017,152.95 434.149,153.349 436.281,153.744 438.413,154.135 440.545,154.522 442.676,154.905 444.808,155.284 446.94,155.66 449.072,156.032 451.204,156.4 453.335,156.764 455.467,157.125 457.599,157.483 459.731,157.836 461.862,158.187 463.994,158.533 466.126,158.877 468.258,159.216 470.39,159.553 472.521,159.886 474.653,160.216 476.785,160.542 478.917,160.866 481.049,161.186 483.18,161.503 485.312,161.816 487.444,162.127 489.576,162.434 491.707,162.739 493.839,163.04 495.971,163.339 498.103,163.634 500.235,163.927 502.366,164.216 504.498,164.503 506.63,164.787 508.762,165.068 510.894,165.346 513.025,165.621 515.157,165.894 517.289,166.164 519.421,166.431 521.552,166.696 523.684,166.958 525.816,167.217 527.948,167.474 530.08,167.728 532.211,167.98 534.343,168.229 536.475,168.476 538.607,168.72 540.739,168.962 542.87,169.201 545.002,169.438 547.134,169.673 549.266,169.905 551.397,170.135 553.529,170.363 555.661,170.588 557.793,170.811 559.925,171.032 562.056,171.251 564.188,171.468 566.32,171.682 568.452,171.894 570.583,172.105 572.715,172.313 574.847,172.519 576.979,172.723 579.111,172.925 581.242,173.125 583.374,173.323 585.506,173.519 587.638,173.713 589.77,173.905 591.901,174.095 594.033,174.283 596.165,174.47 598.297,174.655 600.428,174.837 602.56,175.018 604.692,175.197 606.824,175.375 608.956,175.55 611.087,175.724 613.219,175.896 615.351,176.067 617.483,176.235 619.615,176.402 621.746,176.568 623.878,176.731 626.01,176.894 628.142,177.054 630.273,177.213 632.405,177.37 634.537,177.526 636.669,177.68 638.801,177.832 640.932,177.983 643.064,178.133 645.196,178.281 647.328,178.428 649.46,178.573 651.591,178.716 653.723,178.859 655.855,178.999 657.987,179.139 660.118,179.277 662.25,179.413 664.382,179.549 666.514,179.683 668.646,179.815 670.777,179.946 672.909,180.076 675.041,180.205 677.173,180.332 679.305,180.459 681.436,180.583 683.568,180.707 685.7,180.829 687.832,180.951 689.963,181.07 692.095,181.189 694.227,181.307 696.359,181.423 698.491,181.538 700.622,181.653 702.754,181.765 704.886,181.877 707.018,181.988 709.15,182.098 711.281,182.206 713.413,182.314 715.545,182.42 717.677,182.525 719.808,182.63 721.94,182.733 724.072,182.835 726.204,182.937 728.336,183.037 730.467,183.136 732.599,183.234 734.731,183.332 736.863,183.428 738.995,183.523 741.126,183.618 743.258,183.711 745.39,183.804 747.522,183.895 749.653,183.986 751.785,184.076 753.917,184.165 756.049,184.253 758.181,184.34 760.312,184.427 762.444,184.512 764.576,184.597 766.708,184.68 768.84,184.763 770.971,184.845 773.103,184.927 775.235,185.007 777.367,185.087 779.498,185.165 781.63,185.244 783.762,185.321 785.894,185.397 788.026,185.473 790.157,185.548 792.289,185.622 794.421,185.696 796.553,185.768 798.685,185.84 800.816,185.912 802.948,185.982 805.08,186.052 807.212,186.121 809.343,186.19 811.475,186.258 813.607,186.325 815.739,186.391 817.871,186.457 820.002,186.522 822.134,186.587 824.266,186.65 826.398,186.714 828.529,186.776 830.661,186.838 832.793,186.899 834.925,186.96 837.057,187.02 839.188,187.08 841.32,187.138 843.452,187.197 845.584,187.255 847.716,187.312 849.847,187.368 851.979,187.424 854.111,187.48 856.243,187.535 858.374,187.589 860.506,187.643 862.638,187.696 864.77,187.749 866.902,187.801 869.033,187.853 871.165,187.904 873.297,187.955 875.429,188.005 877.561,188.055 879.692,188.104 881.824,188.153 883.956,188.201 886.088,188.249 888.219,188.296 890.351,188.343 892.483,188.389 894.615,188.435 896.747,188.481 898.878,188.526 901.01,188.57 903.142,188.614 905.274,188.658 907.406,188.701 909.537,188.744 911.669,188.787 913.801,188.829 915.933,188.87 918.064,188.911 920.196,188.952 922.328,188.993 924.46,189.033 926.592,189.072 928.723,189.111 930.855,189.15 932.987,189.189 935.119,189.227 937.251,189.264 939.382,189.302 941.514,189.338 943.646,189.375 945.778,189.411 947.909,189.447 950.041,189.482 952.173,189.517 954.305,189.552 956.437,189.587 958.568,189.621 960.7,189.654 962.832,189.688 964.964,189.721 967.096,189.753 969.227,189.786 971.359,189.818 973.491,189.85 975.623,189.881 977.754,189.912 979.886,189.943 982.018,189.973 984.15,190.003 986.282,190.033 988.413,190.063 990.545,190.092 992.677,190.121 994.809,190.15 996.941,190.178 999.072,190.206 1001.2,190.234 1003.34,190.261 1005.47,190.288 1007.6,190.315 1009.73,190.342 1011.86,190.369 1013.99,190.395 1016.13,190.421 1018.26,190.446 1020.39,190.472 1022.52,190.497 1024.65,190.521 1026.79,190.546 1028.92,190.57 1031.05,190.595 1033.18,190.618 1035.31,190.642 1037.44,190.665 1039.58,190.689 1041.71,190.712 1043.84,190.734 1045.97,190.757 1048.1,190.779 1050.24,190.801 1052.37,190.823 1054.5,190.844 1056.63,190.866 1058.76,190.887 1060.89,190.908 1063.03,190.929 1065.16,190.949 1067.29,190.97 1069.42,190.99 1071.55,191.01 1073.68,191.029 1075.82,191.049 1077.95,191.068 1080.08,191.087 1082.21,191.106 1084.34,191.125 1086.48,191.144 1088.61,191.162 1090.74,191.181 1092.87,191.199 1095,191.217 1097.13,191.234 1099.27,191.252 1101.4,191.269 1103.53,191.287 1105.66,191.304 1107.79,191.321 1109.93,191.337 1112.06,191.354 1114.19,191.37 1116.32,191.387 1118.45,191.403 1120.58,191.419 1122.72,191.434 1124.85,191.45 1126.98,191.466 1129.11,191.481 1131.24,191.496 1133.37,191.511 1135.51,191.526 1137.64,191.541 1139.77,191.555 1141.9,191.57 1144.03,191.584 1146.17,191.598 1148.3,191.612 1150.43,191.626 1152.56,191.64 1154.69,191.653 1156.82,191.667 1158.96,191.68 1161.09,191.693 1163.22,191.707 1165.35,191.719 1167.48,191.732 1169.62,191.745 1171.75,191.757 1173.88,191.77 1176.01,191.782 1178.14,191.794 1180.27,191.806 1182.41,191.818 1184.54,191.83 1186.67,191.842 1188.8,191.853 1190.93,191.865 1193.06,191.876 1195.2,191.887 1197.33,191.898 1199.46,191.909 1201.59,191.92 1203.72,191.931 1205.86,191.942 1207.99,191.952 1210.12,191.963 1212.25,191.973 1214.38,191.983 1216.51,191.993 1218.65,192.003 1220.78,192.013 1222.91,192.023 1225.04,192.033 1227.17,192.042 1229.31,192.052 1231.44,192.061 1233.57,192.07 1235.7,192.08 1237.83,192.089 1239.96,192.098 1242.1,192.107 1244.23,192.116 1246.36,192.124 1248.49,192.133 1250.62,192.142 1252.75,192.15 1254.89,192.158 1257.02,192.167 1259.15,192.175 1261.28,192.183 1263.41,192.191 1265.55,192.199 1267.68,192.207 1269.81,192.215 1271.94,192.223 1274.07,192.23 1276.2,192.238 1278.34,192.245 1280.47,192.253 1282.6,192.26 1284.73,192.267 1286.86,192.275 1289,192.282 1291.13,192.289 1293.26,192.296 1295.39,192.303 1297.52,192.31 1299.65,192.316 1301.79,192.323 1303.92,192.33 1306.05,192.336 1308.18,192.343 1310.31,192.349 1312.44,192.356 1314.58,192.362 1316.71,192.369 1318.84,192.375 1320.97,192.381 1323.1,192.387 1325.24,192.393 1327.37,192.399 1329.5,192.405 1331.63,192.411 1333.76,192.417 1335.89,192.423 1338.03,192.428 1340.16,192.434 1342.29,192.44 1344.42,192.445 1346.55,192.451 1348.69,192.456 1350.82,192.462 1352.95,192.467 1355.08,192.472 1357.21,192.478 1359.34,192.483 1361.48,192.488 1363.61,192.493 1365.74,192.498 1367.87,192.503 1370,192.508 1372.13,192.513 1374.27,192.518 1376.4,192.523 1378.53,192.528 1380.66,192.532 1382.79,192.537 1384.93,192.542 1387.06,192.546 1389.19,192.551 1391.32,192.555 1393.45,192.56 1395.58,192.564 1397.72,192.569 1399.85,192.573 1401.98,192.577 1404.11,192.582 1406.24,192.586 1408.38,192.59 1410.51,192.594 1412.64,192.598 1414.77,192.602 1416.9,192.606 1419.03,192.61 1421.17,192.614 1423.3,192.618 1425.43,192.622 1427.56,192.626 1429.69,192.629 1431.82,192.633 1433.96,192.637 1436.09,192.64 1438.22,192.644 1440.35,192.648 1442.48,192.651 1444.62,192.655 1446.75,192.658 1448.88,192.661 1451.01,192.665 1453.14,192.668 1455.27,192.671 1457.41,192.675 1459.54,192.678 1461.67,192.681 1463.8,192.684 1465.93,192.688 1468.07,192.691 1470.2,192.694 1472.33,192.697 1474.46,192.7 1476.59,192.703 1478.72,192.706 1480.86,192.709 1482.99,192.711 1485.12,192.714 1487.25,192.717 1489.38,192.72 1491.51,192.723 1493.65,192.725 1495.78,192.728 1497.91,192.731 1500.04,192.733 1502.17,192.736 1504.31,192.739 1506.44,192.741 1508.57,192.744 1510.7,192.746 1512.83,192.749 1514.96,192.751 1517.1,192.754 1519.23,192.756 1521.36,192.758 1523.49,192.761 1525.62,192.763 1527.76,192.765 1529.89,192.768 1532.02,192.77 1534.15,192.772 1536.28,192.774 1538.41,192.777 1540.55,192.779 1542.68,192.781 1544.81,192.783 1546.94,192.785 1549.07,192.787 1551.2,192.789 1553.34,192.791 1555.47,192.793 1557.6,192.795 1559.73,192.797 1561.86,192.799 1564,192.801 1566.13,192.803 1568.26,192.805 1570.39,192.807 1572.52,192.809 1574.65,192.81 1576.79,192.812 1578.92,192.814 1581.05,192.816 1583.18,192.818 1585.31,192.819 1587.45,192.821 1589.58,192.823 1591.71,192.824 1593.84,192.826 1595.97,192.828 1598.1,192.829 1600.24,192.831 1602.37,192.833 1604.5,192.834 1606.63,192.836 1608.76,192.838 1610.89,192.839 1613.03,192.841 1615.16,192.842 1617.29,192.844 1619.42,192.845 1621.55,192.847 1623.69,192.848 1625.82,192.85 1627.95,192.851 1630.08,192.853 1632.21,192.854 1634.34,192.856 1636.48,192.857 1638.61,192.859 1640.74,192.86 1642.87,192.861 1645,192.863 1647.14,192.864 1649.27,192.866 1651.4,192.867 1653.53,192.868 1655.66,192.87 1657.79,192.871 1659.93,192.872 1662.06,192.873 1664.19,192.875 1666.32,192.876 1668.45,192.877 1670.58,192.878 1672.72,192.88 1674.85,192.881 1676.98,192.882 1679.11,192.883 1681.24,192.884 1683.38,192.886 1685.51,192.887 1687.64,192.888 1689.77,192.889 1691.9,192.89 1694.03,192.891 1696.17,192.892 1698.3,192.893 1700.43,192.895 1702.56,192.896 1704.69,192.897 1706.82,192.898 1708.96,192.899 1711.09,192.9 1713.22,192.901 1715.35,192.902 1717.48,192.903 1719.62,192.904 1721.75,192.905 1723.88,192.906 1726.01,192.907 1728.14,192.908 1730.27,192.909 1732.41,192.909 1734.54,192.91 1736.67,192.911 1738.8,192.912 1740.93,192.913 1743.07,192.914 1745.2,192.915 1747.33,192.916 1749.46,192.917 1751.59,192.917 1753.72,192.918 1755.86,192.919 1757.99,192.92 1760.12,192.921 1762.25,192.921 1764.38,192.922 1766.51,192.923 1768.65,192.924 1770.78,192.924 1772.91,192.925 1775.04,192.926 1777.17,192.927 1779.31,192.927 1781.44,192.928 1783.57,192.929 1785.7,192.93 1787.83,192.93 1789.96,192.931 1792.1,192.932 1794.23,192.932 1796.36,192.933 1798.49,192.934 1800.62,192.934 1802.76,192.935 1804.89,192.935 1807.02,192.936 1809.15,192.937 1811.28,192.937 1813.41,192.938 1815.55,192.938 1817.68,192.939 1819.81,192.94 1821.94,192.94 1824.07,192.941 1826.2,192.941 1828.34,192.942 1830.47,192.942 1832.6,192.943 1834.73,192.943 1836.86,192.944 1839,192.945 1841.13,192.945 1843.26,192.946 1845.39,192.946 1847.52,192.947 1849.65,192.947 1851.79,192.948 1853.92,192.948 1856.05,192.948 1858.18,192.949 1860.31,192.949 1862.45,192.95 1864.58,192.95 1866.71,192.951 1868.84,192.951 1870.97,192.952 1873.1,192.952 1875.24,192.952 1877.37,192.953 1879.5,192.953 1881.63,192.954 1883.76,192.954 1885.89,192.955 1888.03,192.955 1890.16,192.955 1892.29,192.956 1894.42,192.956 1896.55,192.957 1898.69,192.957 1900.82,192.957 1902.95,192.958 1905.08,192.958 1907.21,192.958 1909.34,192.959 1911.48,192.959 1913.61,192.959 1915.74,192.96 1917.87,192.96 1920,192.961 1922.14,192.961 1924.27,192.961 1926.4,192.962 1928.53,192.962 1930.66,192.962 1932.79,192.963 1934.93,192.963 1937.06,192.963 1939.19,192.964 1941.32,192.964 1943.45,192.964 1945.58,192.965 1947.72,192.965 1949.85,192.965 1951.98,192.966 1954.11,192.966 1956.24,192.966 1958.38,192.967 1960.51,192.967 1962.64,192.967 1964.77,192.967 1966.9,192.968 1969.03,192.968 1971.17,192.968 1973.3,192.969 1975.43,192.969 1977.56,192.969 1979.69,192.97 1981.83,192.97 1983.96,192.97 1986.09,192.97 1988.22,192.971 1990.35,192.971 1992.48,192.971 1994.62,192.972 1996.75,192.972 1998.88,192.972 2001.01,192.972 2003.14,192.973 2005.27,192.973 2007.41,192.973 2009.54,192.973 2011.67,192.974 2013.8,192.974 2015.93,192.974 2018.07,192.975 2020.2,192.975 2022.33,192.975 2024.46,192.975 2026.59,192.976 2028.72,192.976 2030.86,192.976 2032.99,192.976 2035.12,192.976 2037.25,192.977 2039.38,192.977 2041.52,192.977 2043.65,192.977 2045.78,192.978 2047.91,192.978 2050.04,192.978 2052.17,192.978 2054.31,192.979 2056.44,192.979 2058.57,192.979 2060.7,192.979 2062.83,192.979 2064.96,192.98 2067.1,192.98 2069.23,192.98 2071.36,192.98 2073.49,192.98 2075.62,192.981 2077.76,192.981 2079.89,192.981 2082.02,192.981 2084.15,192.981 2086.28,192.981 2088.41,192.982 2090.55,192.982 2092.68,192.982 2094.81,192.982 2096.94,192.982 2099.07,192.983 2101.21,192.983 2103.34,192.983 2105.47,192.983 2107.6,192.983 2109.73,192.983 2111.86,192.984 2114,192.984 2116.13,192.984 2118.26,192.984 2120.39,192.984 2122.52,192.984 2124.65,192.984 2126.79,192.985 2128.92,192.985 2131.05,192.985 2133.18,192.985 2135.31,192.985 2137.45,192.985 2139.58,192.985 2141.71,192.986 2143.84,192.986 2145.97,192.986 2148.1,192.986 2150.24,192.986 2152.37,192.986 2154.5,192.986 2156.63,192.986 2158.76,192.987 2160.9,192.987 2163.03,192.987 2165.16,192.987 2167.29,192.987 2169.42,192.987 2171.55,192.987 2173.69,192.987 2175.82,192.987 2177.95,192.988 2180.08,192.988 2182.21,192.988 2184.34,192.988 2186.48,192.988 2188.61,192.988 2190.74,192.988 2192.87,192.988 2195,192.988 2197.14,192.988 2199.27,192.989 2201.4,192.989 2203.53,192.989 2205.66,192.989 2207.79,192.989 2209.93,192.989 2212.06,192.989 2214.19,192.989 2216.32,192.989 2218.45,192.989 2220.59,192.989 2222.72,192.989 2224.85,192.99 2226.98,192.99 2229.11,192.99 2231.24,192.99 2233.38,192.99 2235.51,192.99 2237.64,192.99 2239.77,192.99 2241.9,192.99 2244.03,192.99 2246.17,192.99 2248.3,192.99 2250.43,192.99 2252.56,192.99 2254.69,192.99 2256.83,192.991 2258.96,192.991 2261.09,192.991 2263.22,192.991 2265.35,192.991 2267.48,192.991 2269.62,192.991 2271.75,192.991 2273.88,192.991 2276.01,192.991 2278.14,192.991 2280.28,192.991 2282.41,192.991 2284.54,192.991 2286.67,192.991 2288.8,192.991 2290.93,192.991 2293.07,192.992 2295.2,192.992 2297.33,192.992 2299.46,192.992 2301.59,192.992 2303.72,192.992 2305.86,192.992 2307.99,192.992 2310.12,192.992 2312.25,192.992 2314.38,192.992 2316.52,192.992 2318.65,192.992 2320.78,192.992 2322.91,192.992 2325.04,192.992 2327.17,192.992 2329.31,192.992 2331.44,192.992 2333.57,192.992 2335.7,192.993 2337.83,192.993 2339.97,192.993 2342.1,192.993 2344.23,192.993 2346.36,192.993 2348.49,192.993 2350.62,192.993 2352.76,192.993 "/>
<polyline clip-path="url(#clip852)" style="stroke:#e26f46; stroke-linecap:round; stroke-linejoin:round; stroke-width:4; stroke-opacity:1; fill:none" points="223.103,1384.24 225.234,1376.28 227.366,1368.37 229.498,1360.52 231.63,1352.73 233.761,1344.99 235.893,1337.3 238.025,1329.67 240.157,1322.09 242.289,1314.57 244.42,1307.09 246.552,1299.67 248.684,1292.31 250.816,1284.99 252.948,1277.72 255.079,1270.51 257.211,1263.34 259.343,1256.23 261.475,1249.16 263.606,1242.15 265.738,1235.18 267.87,1228.26 270.002,1221.39 272.134,1214.57 274.265,1207.8 276.397,1201.07 278.529,1194.39 280.661,1187.75 282.792,1181.16 284.924,1174.62 287.056,1168.12 289.188,1161.67 291.32,1155.26 293.451,1148.9 295.583,1142.58 297.715,1136.31 299.847,1130.07 301.979,1123.89 304.11,1117.74 306.242,1111.64 308.374,1105.58 310.506,1099.56 312.637,1093.58 314.769,1087.64 316.901,1081.75 319.033,1075.89 321.165,1070.08 323.296,1064.3 325.428,1058.57 327.56,1052.87 329.692,1047.22 331.824,1041.6 333.955,1036.02 336.087,1030.48 338.219,1024.98 340.351,1019.52 342.482,1014.09 344.614,1008.7 346.746,1003.35 348.878,998.032 351.01,992.753 353.141,987.51 355.273,982.303 357.405,977.132 359.537,971.996 361.669,966.895 363.8,961.829 365.932,956.797 368.064,951.8 370.196,946.837 372.327,941.908 374.459,937.013 376.591,932.151 378.723,927.322 380.855,922.526 382.986,917.763 385.118,913.032 387.25,908.334 389.382,903.667 391.514,899.032 393.645,894.429 395.777,889.857 397.909,885.316 400.041,880.806 402.172,876.327 404.304,871.878 406.436,867.459 408.568,863.071 410.7,858.712 412.831,854.382 414.963,850.082 417.095,845.811 419.227,841.569 421.359,837.356 423.49,833.171 425.622,829.015 427.754,824.887 429.886,820.786 432.017,816.714 434.149,812.668 436.281,808.65 438.413,804.66 440.545,800.696 442.676,796.759 444.808,792.848 446.94,788.964 449.072,785.106 451.204,781.274 453.335,777.468 455.467,773.687 457.599,769.932 459.731,766.202 461.862,762.497 463.994,758.817 466.126,755.162 468.258,751.531 470.39,747.925 472.521,744.342 474.653,740.784 476.785,737.25 478.917,733.739 481.049,730.252 483.18,726.788 485.312,723.348 487.444,719.93 489.576,716.536 491.707,713.164 493.839,709.814 495.971,706.487 498.103,703.183 500.235,699.9 502.366,696.639 504.498,693.4 506.63,690.183 508.762,686.987 510.894,683.813 513.025,680.659 515.157,677.527 517.289,674.416 519.421,671.325 521.552,668.255 523.684,665.205 525.816,662.176 527.948,659.167 530.08,656.177 532.211,653.208 534.343,650.258 536.475,647.328 538.607,644.418 540.739,641.527 542.87,638.655 545.002,635.802 547.134,632.967 549.266,630.152 551.397,627.356 553.529,624.577 555.661,621.818 557.793,619.076 559.925,616.353 562.056,613.648 564.188,610.96 566.32,608.291 568.452,605.639 570.583,603.004 572.715,600.387 574.847,597.787 576.979,595.205 579.111,592.639 581.242,590.09 583.374,587.558 585.506,585.043 587.638,582.545 589.77,580.062 591.901,577.596 594.033,575.147 596.165,572.713 598.297,570.296 600.428,567.894 602.56,565.508 604.692,563.138 606.824,560.783 608.956,558.444 611.087,556.12 613.219,553.812 615.351,551.519 617.483,549.241 619.615,546.977 621.746,544.729 623.878,542.495 626.01,540.276 628.142,538.072 630.273,535.882 632.405,533.706 634.537,531.545 636.669,529.398 638.801,527.265 640.932,525.145 643.064,523.04 645.196,520.949 647.328,518.871 649.46,516.807 651.591,514.756 653.723,512.719 655.855,510.695 657.987,508.684 660.118,506.686 662.25,504.702 664.382,502.73 666.514,500.771 668.646,498.825 670.777,496.892 672.909,494.971 675.041,493.063 677.173,491.167 679.305,489.284 681.436,487.412 683.568,485.553 685.7,483.707 687.832,481.872 689.963,480.049 692.095,478.237 694.227,476.438 696.359,474.65 698.491,472.874 700.622,471.11 702.754,469.356 704.886,467.615 707.018,465.884 709.15,464.165 711.281,462.457 713.413,460.759 715.545,459.073 717.677,457.398 719.808,455.734 721.94,454.08 724.072,452.437 726.204,450.805 728.336,449.183 730.467,447.571 732.599,445.971 734.731,444.38 736.863,442.799 738.995,441.229 741.126,439.669 743.258,438.119 745.39,436.579 747.522,435.049 749.653,433.529 751.785,432.019 753.917,430.518 756.049,429.027 758.181,427.546 760.312,426.074 762.444,424.612 764.576,423.159 766.708,421.715 768.84,420.281 770.971,418.856 773.103,417.44 775.235,416.034 777.367,414.636 779.498,413.247 781.63,411.868 783.762,410.497 785.894,409.135 788.026,407.782 790.157,406.437 792.289,405.101 794.421,403.774 796.553,402.455 798.685,401.145 800.816,399.843 802.948,398.55 805.08,397.264 807.212,395.988 809.343,394.719 811.475,393.458 813.607,392.206 815.739,390.961 817.871,389.725 820.002,388.496 822.134,387.275 824.266,386.063 826.398,384.857 828.529,383.66 830.661,382.47 832.793,381.288 834.925,380.114 837.057,378.947 839.188,377.787 841.32,376.635 843.452,375.49 845.584,374.352 847.716,373.222 849.847,372.099 851.979,370.983 854.111,369.874 856.243,368.772 858.374,367.678 860.506,366.59 862.638,365.509 864.77,364.435 866.902,363.368 869.033,362.308 871.165,361.254 873.297,360.207 875.429,359.167 877.561,358.133 879.692,357.106 881.824,356.086 883.956,355.072 886.088,354.064 888.219,353.063 890.351,352.068 892.483,351.079 894.615,350.097 896.747,349.121 898.878,348.151 901.01,347.187 903.142,346.229 905.274,345.277 907.406,344.331 909.537,343.392 911.669,342.458 913.801,341.53 915.933,340.608 918.064,339.692 920.196,338.782 922.328,337.877 924.46,336.978 926.592,336.085 928.723,335.197 930.855,334.315 932.987,333.439 935.119,332.568 937.251,331.703 939.382,330.843 941.514,329.989 943.646,329.14 945.778,328.296 947.909,327.458 950.041,326.625 952.173,325.798 954.305,324.975 956.437,324.158 958.568,323.346 960.7,322.539 962.832,321.737 964.964,320.941 967.096,320.149 969.227,319.362 971.359,318.581 973.491,317.804 975.623,317.032 977.754,316.265 979.886,315.503 982.018,314.746 984.15,313.993 986.282,313.245 988.413,312.502 990.545,311.764 992.677,311.031 994.809,310.301 996.941,309.577 999.072,308.857 1001.2,308.142 1003.34,307.431 1005.47,306.725 1007.6,306.023 1009.73,305.326 1011.86,304.633 1013.99,303.944 1016.13,303.26 1018.26,302.579 1020.39,301.904 1022.52,301.232 1024.65,300.565 1026.79,299.902 1028.92,299.243 1031.05,298.588 1033.18,297.938 1035.31,297.291 1037.44,296.648 1039.58,296.01 1041.71,295.376 1043.84,294.745 1045.97,294.118 1048.1,293.496 1050.24,292.877 1052.37,292.262 1054.5,291.651 1056.63,291.044 1058.76,290.441 1060.89,289.841 1063.03,289.245 1065.16,288.653 1067.29,288.065 1069.42,287.48 1071.55,286.899 1073.68,286.321 1075.82,285.747 1077.95,285.177 1080.08,284.61 1082.21,284.047 1084.34,283.487 1086.48,282.931 1088.61,282.378 1090.74,281.829 1092.87,281.283 1095,280.74 1097.13,280.201 1099.27,279.665 1101.4,279.132 1103.53,278.603 1105.66,278.077 1107.79,277.554 1109.93,277.035 1112.06,276.519 1114.19,276.006 1116.32,275.496 1118.45,274.989 1120.58,274.485 1122.72,273.985 1124.85,273.488 1126.98,272.993 1129.11,272.502 1131.24,272.014 1133.37,271.529 1135.51,271.047 1137.64,270.568 1139.77,270.092 1141.9,269.619 1144.03,269.148 1146.17,268.681 1148.3,268.217 1150.43,267.755 1152.56,267.297 1154.69,266.841 1156.82,266.388 1158.96,265.938 1161.09,265.491 1163.22,265.046 1165.35,264.605 1167.48,264.166 1169.62,263.73 1171.75,263.296 1173.88,262.865 1176.01,262.437 1178.14,262.012 1180.27,261.589 1182.41,261.169 1184.54,260.751 1186.67,260.337 1188.8,259.924 1190.93,259.514 1193.06,259.107 1195.2,258.703 1197.33,258.301 1199.46,257.901 1201.59,257.504 1203.72,257.109 1205.86,256.717 1207.99,256.327 1210.12,255.94 1212.25,255.555 1214.38,255.172 1216.51,254.792 1218.65,254.415 1220.78,254.039 1222.91,253.666 1225.04,253.295 1227.17,252.927 1229.31,252.561 1231.44,252.197 1233.57,251.835 1235.7,251.476 1237.83,251.119 1239.96,250.764 1242.1,250.411 1244.23,250.061 1246.36,249.712 1248.49,249.366 1250.62,249.022 1252.75,248.68 1254.89,248.341 1257.02,248.003 1259.15,247.667 1261.28,247.334 1263.41,247.002 1265.55,246.673 1267.68,246.346 1269.81,246.02 1271.94,245.697 1274.07,245.376 1276.2,245.056 1278.34,244.739 1280.47,244.424 1282.6,244.11 1284.73,243.799 1286.86,243.489 1289,243.181 1291.13,242.876 1293.26,242.572 1295.39,242.27 1297.52,241.969 1299.65,241.671 1301.79,241.375 1303.92,241.08 1306.05,240.787 1308.18,240.496 1310.31,240.207 1312.44,239.919 1314.58,239.633 1316.71,239.349 1318.84,239.067 1320.97,238.786 1323.1,238.508 1325.24,238.23 1327.37,237.955 1329.5,237.681 1331.63,237.409 1333.76,237.139 1335.89,236.87 1338.03,236.603 1340.16,236.337 1342.29,236.073 1344.42,235.811 1346.55,235.55 1348.69,235.291 1350.82,235.033 1352.95,234.777 1355.08,234.523 1357.21,234.27 1359.34,234.018 1361.48,233.769 1363.61,233.52 1365.74,233.273 1367.87,233.028 1370,232.784 1372.13,232.542 1374.27,232.301 1376.4,232.062 1378.53,231.824 1380.66,231.588 1382.79,231.353 1384.93,231.119 1387.06,230.887 1389.19,230.656 1391.32,230.427 1393.45,230.199 1395.58,229.973 1397.72,229.748 1399.85,229.524 1401.98,229.302 1404.11,229.081 1406.24,228.861 1408.38,228.643 1410.51,228.426 1412.64,228.21 1414.77,227.996 1416.9,227.783 1419.03,227.572 1421.17,227.361 1423.3,227.152 1425.43,226.945 1427.56,226.738 1429.69,226.533 1431.82,226.329 1433.96,226.127 1436.09,225.925 1438.22,225.725 1440.35,225.526 1442.48,225.329 1444.62,225.132 1446.75,224.937 1448.88,224.743 1451.01,224.55 1453.14,224.359 1455.27,224.168 1457.41,223.979 1459.54,223.791 1461.67,223.604 1463.8,223.418 1465.93,223.233 1468.07,223.05 1470.2,222.868 1472.33,222.686 1474.46,222.506 1476.59,222.327 1478.72,222.149 1480.86,221.972 1482.99,221.797 1485.12,221.622 1487.25,221.449 1489.38,221.276 1491.51,221.105 1493.65,220.934 1495.78,220.765 1497.91,220.597 1500.04,220.43 1502.17,220.264 1504.31,220.098 1506.44,219.934 1508.57,219.771 1510.7,219.609 1512.83,219.448 1514.96,219.288 1517.1,219.129 1519.23,218.971 1521.36,218.813 1523.49,218.657 1525.62,218.502 1527.76,218.348 1529.89,218.194 1532.02,218.042 1534.15,217.89 1536.28,217.74 1538.41,217.59 1540.55,217.441 1542.68,217.294 1544.81,217.147 1546.94,217.001 1549.07,216.856 1551.2,216.711 1553.34,216.568 1555.47,216.426 1557.6,216.284 1559.73,216.143 1561.86,216.003 1564,215.864 1566.13,215.726 1568.26,215.589 1570.39,215.452 1572.52,215.317 1574.65,215.182 1576.79,215.048 1578.92,214.914 1581.05,214.782 1583.18,214.65 1585.31,214.52 1587.45,214.39 1589.58,214.26 1591.71,214.132 1593.84,214.004 1595.97,213.877 1598.1,213.751 1600.24,213.626 1602.37,213.501 1604.5,213.377 1606.63,213.254 1608.76,213.131 1610.89,213.01 1613.03,212.889 1615.16,212.769 1617.29,212.649 1619.42,212.53 1621.55,212.412 1623.69,212.295 1625.82,212.178 1627.95,212.062 1630.08,211.946 1632.21,211.832 1634.34,211.718 1636.48,211.605 1638.61,211.492 1640.74,211.38 1642.87,211.269 1645,211.158 1647.14,211.048 1649.27,210.939 1651.4,210.83 1653.53,210.722 1655.66,210.615 1657.79,210.508 1659.93,210.402 1662.06,210.297 1664.19,210.192 1666.32,210.088 1668.45,209.984 1670.58,209.881 1672.72,209.779 1674.85,209.677 1676.98,209.576 1679.11,209.476 1681.24,209.376 1683.38,209.277 1685.51,209.178 1687.64,209.08 1689.77,208.983 1691.9,208.886 1694.03,208.79 1696.17,208.694 1698.3,208.599 1700.43,208.505 1702.56,208.411 1704.69,208.318 1706.82,208.225 1708.96,208.133 1711.09,208.041 1713.22,207.95 1715.35,207.859 1717.48,207.769 1719.62,207.68 1721.75,207.591 1723.88,207.503 1726.01,207.415 1728.14,207.328 1730.27,207.241 1732.41,207.155 1734.54,207.069 1736.67,206.984 1738.8,206.899 1740.93,206.815 1743.07,206.732 1745.2,206.649 1747.33,206.566 1749.46,206.484 1751.59,206.403 1753.72,206.322 1755.86,206.241 1757.99,206.161 1760.12,206.082 1762.25,206.003 1764.38,205.924 1766.51,205.846 1768.65,205.768 1770.78,205.691 1772.91,205.615 1775.04,205.538 1777.17,205.463 1779.31,205.388 1781.44,205.313 1783.57,205.238 1785.7,205.165 1787.83,205.091 1789.96,205.018 1792.1,204.946 1794.23,204.874 1796.36,204.802 1798.49,204.731 1800.62,204.66 1802.76,204.59 1804.89,204.52 1807.02,204.451 1809.15,204.382 1811.28,204.313 1813.41,204.245 1815.55,204.178 1817.68,204.11 1819.81,204.043 1821.94,203.977 1824.07,203.911 1826.2,203.845 1828.34,203.78 1830.47,203.715 1832.6,203.651 1834.73,203.587 1836.86,203.523 1839,203.46 1841.13,203.397 1843.26,203.334 1845.39,203.272 1847.52,203.21 1849.65,203.149 1851.79,203.088 1853.92,203.028 1856.05,202.967 1858.18,202.907 1860.31,202.848 1862.45,202.789 1864.58,202.73 1866.71,202.672 1868.84,202.614 1870.97,202.556 1873.1,202.499 1875.24,202.441 1877.37,202.385 1879.5,202.329 1881.63,202.273 1883.76,202.217 1885.89,202.162 1888.03,202.107 1890.16,202.052 1892.29,201.998 1894.42,201.944 1896.55,201.89 1898.69,201.837 1900.82,201.784 1902.95,201.731 1905.08,201.679 1907.21,201.627 1909.34,201.575 1911.48,201.523 1913.61,201.472 1915.74,201.421 1917.87,201.371 1920,201.321 1922.14,201.271 1924.27,201.221 1926.4,201.172 1928.53,201.123 1930.66,201.074 1932.79,201.025 1934.93,200.977 1937.06,200.929 1939.19,200.882 1941.32,200.834 1943.45,200.787 1945.58,200.74 1947.72,200.694 1949.85,200.647 1951.98,200.601 1954.11,200.556 1956.24,200.51 1958.38,200.465 1960.51,200.42 1962.64,200.375 1964.77,200.331 1966.9,200.287 1969.03,200.243 1971.17,200.199 1973.3,200.156 1975.43,200.113 1977.56,200.07 1979.69,200.027 1981.83,199.985 1983.96,199.942 1986.09,199.901 1988.22,199.859 1990.35,199.817 1992.48,199.776 1994.62,199.735 1996.75,199.695 1998.88,199.654 2001.01,199.614 2003.14,199.574 2005.27,199.534 2007.41,199.495 2009.54,199.456 2011.67,199.417 2013.8,199.378 2015.93,199.339 2018.07,199.301 2020.2,199.263 2022.33,199.225 2024.46,199.187 2026.59,199.15 2028.72,199.113 2030.86,199.076 2032.99,199.039 2035.12,199.002 2037.25,198.966 2039.38,198.93 2041.52,198.894 2043.65,198.858 2045.78,198.823 2047.91,198.788 2050.04,198.753 2052.17,198.718 2054.31,198.683 2056.44,198.649 2058.57,198.615 2060.7,198.581 2062.83,198.547 2064.96,198.513 2067.1,198.48 2069.23,198.447 2071.36,198.414 2073.49,198.381 2075.62,198.349 2077.76,198.316 2079.89,198.284 2082.02,198.252 2084.15,198.22 2086.28,198.189 2088.41,198.158 2090.55,198.126 2092.68,198.095 2094.81,198.065 2096.94,198.034 2099.07,198.004 2101.21,197.973 2103.34,197.943 2105.47,197.914 2107.6,197.884 2109.73,197.854 2111.86,197.825 2114,197.796 2116.13,197.767 2118.26,197.738 2120.39,197.71 2122.52,197.681 2124.65,197.653 2126.79,197.625 2128.92,197.597 2131.05,197.569 2133.18,197.542 2135.31,197.515 2137.45,197.487 2139.58,197.46 2141.71,197.434 2143.84,197.407 2145.97,197.38 2148.1,197.354 2150.24,197.328 2152.37,197.302 2154.5,197.276 2156.63,197.25 2158.76,197.225 2160.9,197.199 2163.03,197.174 2165.16,197.149 2167.29,197.124 2169.42,197.099 2171.55,197.075 2173.69,197.05 2175.82,197.026 2177.95,197.002 2180.08,196.978 2182.21,196.954 2184.34,196.93 2186.48,196.907 2188.61,196.883 2190.74,196.86 2192.87,196.837 2195,196.814 2197.14,196.791 2199.27,196.769 2201.4,196.746 2203.53,196.724 2205.66,196.701 2207.79,196.679 2209.93,196.657 2212.06,196.635 2214.19,196.614 2216.32,196.592 2218.45,196.571 2220.59,196.549 2222.72,196.528 2224.85,196.507 2226.98,196.486 2229.11,196.465 2231.24,196.445 2233.38,196.424 2235.51,196.404 2237.64,196.383 2239.77,196.363 2241.9,196.343 2244.03,196.323 2246.17,196.304 2248.3,196.284 2250.43,196.264 2252.56,196.245 2254.69,196.226 2256.83,196.206 2258.96,196.187 2261.09,196.168 2263.22,196.149 2265.35,196.131 2267.48,196.112 2269.62,196.094 2271.75,196.075 2273.88,196.057 2276.01,196.039 2278.14,196.021 2280.28,196.003 2282.41,195.985 2284.54,195.967 2286.67,195.949 2288.8,195.932 2290.93,195.914 2293.07,195.897 2295.2,195.88 2297.33,195.863 2299.46,195.846 2301.59,195.829 2303.72,195.812 2305.86,195.795 2307.99,195.778 2310.12,195.762 2312.25,195.745 2314.38,195.729 2316.52,195.713 2318.65,195.697 2320.78,195.681 2322.91,195.665 2325.04,195.649 2327.17,195.633 2329.31,195.617 2331.44,195.601 2333.57,195.586 2335.7,195.57 2337.83,195.555 2339.97,195.54 2342.1,195.525 2344.23,195.509 2346.36,195.494 2348.49,195.479 2350.62,195.465 2352.76,195.45 "/>
<path clip-path="url(#clip850)" d="M1809.41 1377.32 L2281.77 1377.32 L2281.77 1221.8 L1809.41 1221.8  Z" fill="#ffffff" fill-rule="evenodd" fill-opacity="1"/>
<polyline clip-path="url(#clip850)" style="stroke:#000000; stroke-linecap:round; stroke-linejoin:round; stroke-width:4; stroke-opacity:1; fill:none" points="1809.41,1377.32 2281.77,1377.32 2281.77,1221.8 1809.41,1221.8 1809.41,1377.32 "/>
<polyline clip-path="url(#clip850)" style="stroke:#009af9; stroke-linecap:round; stroke-linejoin:round; stroke-width:4; stroke-opacity:1; fill:none" points="1833.07,1273.64 1975.05,1273.64 "/>
<path clip-path="url(#clip850)" d="M1998.71 1264.99 L2003.22 1264.99 L2011.32 1286.75 L2019.43 1264.99 L2023.94 1264.99 L2014.22 1290.92 L2008.43 1290.92 L1998.71 1264.99 Z" fill="#000000" fill-rule="nonzero" fill-opacity="1" /><path clip-path="url(#clip850)" d="M2031.23 1286.98 L2038.87 1286.98 L2038.87 1260.61 L2030.56 1262.28 L2030.56 1258.02 L2038.82 1256.36 L2043.5 1256.36 L2043.5 1286.98 L2051.14 1286.98 L2051.14 1290.92 L2031.23 1290.92 L2031.23 1286.98 Z" fill="#000000" fill-rule="nonzero" fill-opacity="1" /><path clip-path="url(#clip850)" d="M2069.24 1274.27 L2069.24 1281.49 L2077.36 1281.49 L2077.36 1283.69 L2069.24 1283.69 L2069.24 1290.92 L2066.81 1290.92 L2066.81 1283.69 L2058.68 1283.69 L2058.68 1281.49 L2066.81 1281.49 L2066.81 1274.27 L2069.24 1274.27 Z" fill="#000000" fill-rule="nonzero" fill-opacity="1" /><path clip-path="url(#clip850)" d="M2101.53 1265.75 L2101.53 1269.78 Q2099.73 1268.86 2097.78 1268.39 Q2095.84 1267.93 2093.75 1267.93 Q2090.58 1267.93 2088.99 1268.9 Q2087.41 1269.87 2087.41 1271.82 Q2087.41 1273.3 2088.55 1274.16 Q2089.68 1274.99 2093.11 1275.75 L2094.56 1276.08 Q2099.1 1277.05 2101 1278.83 Q2102.92 1280.59 2102.92 1283.76 Q2102.92 1287.37 2100.05 1289.48 Q2097.2 1291.59 2092.2 1291.59 Q2090.12 1291.59 2087.85 1291.17 Q2085.61 1290.78 2083.11 1289.97 L2083.11 1285.57 Q2085.47 1286.79 2087.76 1287.42 Q2090.05 1288.02 2092.3 1288.02 Q2095.3 1288.02 2096.92 1287 Q2098.55 1285.96 2098.55 1284.09 Q2098.55 1282.35 2097.36 1281.42 Q2096.21 1280.5 2092.25 1279.64 L2090.77 1279.3 Q2086.81 1278.46 2085.05 1276.75 Q2083.29 1275.01 2083.29 1272 Q2083.29 1268.35 2085.88 1266.36 Q2088.48 1264.36 2093.24 1264.36 Q2095.61 1264.36 2097.69 1264.71 Q2099.77 1265.06 2101.53 1265.75 Z" fill="#000000" fill-rule="nonzero" fill-opacity="1" /><path clip-path="url(#clip850)" d="M2113.92 1257.63 L2113.92 1264.99 L2122.69 1264.99 L2122.69 1268.3 L2113.92 1268.3 L2113.92 1282.37 Q2113.92 1285.54 2114.77 1286.45 Q2115.65 1287.35 2118.31 1287.35 L2122.69 1287.35 L2122.69 1290.92 L2118.31 1290.92 Q2113.38 1290.92 2111.51 1289.09 Q2109.63 1287.23 2109.63 1282.37 L2109.63 1268.3 L2106.51 1268.3 L2106.51 1264.99 L2109.63 1264.99 L2109.63 1257.63 L2113.92 1257.63 Z" fill="#000000" fill-rule="nonzero" fill-opacity="1" /><path clip-path="url(#clip850)" d="M2138.34 1267.98 Q2134.91 1267.98 2132.92 1270.66 Q2130.93 1273.32 2130.93 1277.98 Q2130.93 1282.63 2132.9 1285.31 Q2134.89 1287.98 2138.34 1287.98 Q2141.74 1287.98 2143.73 1285.29 Q2145.72 1282.61 2145.72 1277.98 Q2145.72 1273.37 2143.73 1270.68 Q2141.74 1267.98 2138.34 1267.98 M2138.34 1264.36 Q2143.89 1264.36 2147.06 1267.98 Q2150.23 1271.59 2150.23 1277.98 Q2150.23 1284.34 2147.06 1287.98 Q2143.89 1291.59 2138.34 1291.59 Q2132.76 1291.59 2129.59 1287.98 Q2126.44 1284.34 2126.44 1277.98 Q2126.44 1271.59 2129.59 1267.98 Q2132.76 1264.36 2138.34 1264.36 Z" fill="#000000" fill-rule="nonzero" fill-opacity="1" /><path clip-path="url(#clip850)" d="M2172.32 1268.97 Q2171.6 1268.55 2170.74 1268.37 Q2169.91 1268.16 2168.89 1268.16 Q2165.28 1268.16 2163.34 1270.52 Q2161.42 1272.86 2161.42 1277.26 L2161.42 1290.92 L2157.13 1290.92 L2157.13 1264.99 L2161.42 1264.99 L2161.42 1269.02 Q2162.76 1266.66 2164.91 1265.52 Q2167.06 1264.36 2170.14 1264.36 Q2170.58 1264.36 2171.11 1264.43 Q2171.65 1264.48 2172.29 1264.6 L2172.32 1268.97 Z" fill="#000000" fill-rule="nonzero" fill-opacity="1" /><path clip-path="url(#clip850)" d="M2188.57 1277.88 Q2183.41 1277.88 2181.42 1279.06 Q2179.42 1280.24 2179.42 1283.09 Q2179.42 1285.36 2180.91 1286.7 Q2182.41 1288.02 2184.98 1288.02 Q2188.52 1288.02 2190.65 1285.52 Q2192.8 1283 2192.8 1278.83 L2192.8 1277.88 L2188.57 1277.88 M2197.06 1276.12 L2197.06 1290.92 L2192.8 1290.92 L2192.8 1286.98 Q2191.35 1289.34 2189.17 1290.48 Q2186.99 1291.59 2183.85 1291.59 Q2179.86 1291.59 2177.5 1289.36 Q2175.17 1287.12 2175.17 1283.37 Q2175.17 1278.99 2178.08 1276.77 Q2181.02 1274.55 2186.83 1274.55 L2192.8 1274.55 L2192.8 1274.13 Q2192.8 1271.19 2190.86 1269.6 Q2188.94 1267.98 2185.44 1267.98 Q2183.22 1267.98 2181.11 1268.51 Q2179.01 1269.04 2177.06 1270.11 L2177.06 1266.17 Q2179.4 1265.27 2181.6 1264.83 Q2183.8 1264.36 2185.88 1264.36 Q2191.51 1264.36 2194.29 1267.28 Q2197.06 1270.2 2197.06 1276.12 Z" fill="#000000" fill-rule="nonzero" fill-opacity="1" /><path clip-path="url(#clip850)" d="M2222.9 1277.65 Q2222.9 1273.02 2220.98 1270.48 Q2219.08 1267.93 2215.63 1267.93 Q2212.2 1267.93 2210.28 1270.48 Q2208.38 1273.02 2208.38 1277.65 Q2208.38 1282.26 2210.28 1284.8 Q2212.2 1287.35 2215.63 1287.35 Q2219.08 1287.35 2220.98 1284.8 Q2222.9 1282.26 2222.9 1277.65 M2227.16 1287.7 Q2227.16 1294.32 2224.22 1297.54 Q2221.28 1300.78 2215.21 1300.78 Q2212.97 1300.78 2210.98 1300.43 Q2208.98 1300.11 2207.11 1299.41 L2207.11 1295.27 Q2208.98 1296.29 2210.81 1296.77 Q2212.64 1297.26 2214.54 1297.26 Q2218.73 1297.26 2220.81 1295.06 Q2222.9 1292.88 2222.9 1288.46 L2222.9 1286.36 Q2221.58 1288.65 2219.52 1289.78 Q2217.46 1290.92 2214.59 1290.92 Q2209.82 1290.92 2206.9 1287.28 Q2203.98 1283.65 2203.98 1277.65 Q2203.98 1271.63 2206.9 1268 Q2209.82 1264.36 2214.59 1264.36 Q2217.46 1264.36 2219.52 1265.5 Q2221.58 1266.63 2222.9 1268.92 L2222.9 1264.99 L2227.16 1264.99 L2227.16 1287.7 Z" fill="#000000" fill-rule="nonzero" fill-opacity="1" /><path clip-path="url(#clip850)" d="M2258.1 1276.89 L2258.1 1278.97 L2238.52 1278.97 Q2238.8 1283.37 2241.16 1285.68 Q2243.54 1287.98 2247.78 1287.98 Q2250.23 1287.98 2252.53 1287.37 Q2254.84 1286.77 2257.11 1285.57 L2257.11 1289.6 Q2254.82 1290.57 2252.41 1291.08 Q2250 1291.59 2247.53 1291.59 Q2241.32 1291.59 2237.69 1287.98 Q2234.08 1284.36 2234.08 1278.21 Q2234.08 1271.84 2237.5 1268.11 Q2240.95 1264.36 2246.79 1264.36 Q2252.02 1264.36 2255.05 1267.74 Q2258.1 1271.1 2258.1 1276.89 M2253.85 1275.64 Q2253.8 1272.14 2251.88 1270.06 Q2249.98 1267.98 2246.83 1267.98 Q2243.27 1267.98 2241.11 1269.99 Q2238.98 1272 2238.66 1275.66 L2253.85 1275.64 Z" fill="#000000" fill-rule="nonzero" fill-opacity="1" /><polyline clip-path="url(#clip850)" style="stroke:#e26f46; stroke-linecap:round; stroke-linejoin:round; stroke-width:4; stroke-opacity:1; fill:none" points="1833.07,1325.48 1975.05,1325.48 "/>
<path clip-path="url(#clip850)" d="M1998.71 1316.83 L2003.22 1316.83 L2011.32 1338.59 L2019.43 1316.83 L2023.94 1316.83 L2014.22 1342.76 L2008.43 1342.76 L1998.71 1316.83 Z" fill="#000000" fill-rule="nonzero" fill-opacity="1" /><path clip-path="url(#clip850)" d="M2030.47 1308.2 L2048.82 1308.2 L2048.82 1312.13 L2034.75 1312.13 L2034.75 1320.6 Q2035.77 1320.26 2036.79 1320.09 Q2037.8 1319.91 2038.82 1319.91 Q2044.61 1319.91 2047.99 1323.08 Q2051.37 1326.25 2051.37 1331.67 Q2051.37 1337.25 2047.9 1340.35 Q2044.43 1343.43 2038.11 1343.43 Q2035.93 1343.43 2033.66 1343.06 Q2031.42 1342.69 2029.01 1341.95 L2029.01 1337.25 Q2031.09 1338.38 2033.31 1338.94 Q2035.54 1339.49 2038.01 1339.49 Q2042.02 1339.49 2044.36 1337.38 Q2046.69 1335.28 2046.69 1331.67 Q2046.69 1328.06 2044.36 1325.95 Q2042.02 1323.84 2038.01 1323.84 Q2036.14 1323.84 2034.26 1324.26 Q2032.41 1324.68 2030.47 1325.56 L2030.47 1308.2 Z" fill="#000000" fill-rule="nonzero" fill-opacity="1" /><path clip-path="url(#clip850)" d="M2069.24 1326.11 L2069.24 1333.33 L2077.36 1333.33 L2077.36 1335.53 L2069.24 1335.53 L2069.24 1342.76 L2066.81 1342.76 L2066.81 1335.53 L2058.68 1335.53 L2058.68 1333.33 L2066.81 1333.33 L2066.81 1326.11 L2069.24 1326.11 Z" fill="#000000" fill-rule="nonzero" fill-opacity="1" /><path clip-path="url(#clip850)" d="M2101.53 1317.59 L2101.53 1321.62 Q2099.73 1320.7 2097.78 1320.23 Q2095.84 1319.77 2093.75 1319.77 Q2090.58 1319.77 2088.99 1320.74 Q2087.41 1321.71 2087.41 1323.66 Q2087.41 1325.14 2088.55 1326 Q2089.68 1326.83 2093.11 1327.59 L2094.56 1327.92 Q2099.1 1328.89 2101 1330.67 Q2102.92 1332.43 2102.92 1335.6 Q2102.92 1339.21 2100.05 1341.32 Q2097.2 1343.43 2092.2 1343.43 Q2090.12 1343.43 2087.85 1343.01 Q2085.61 1342.62 2083.11 1341.81 L2083.11 1337.41 Q2085.47 1338.63 2087.76 1339.26 Q2090.05 1339.86 2092.3 1339.86 Q2095.3 1339.86 2096.92 1338.84 Q2098.55 1337.8 2098.55 1335.93 Q2098.55 1334.19 2097.36 1333.26 Q2096.21 1332.34 2092.25 1331.48 L2090.77 1331.14 Q2086.81 1330.3 2085.05 1328.59 Q2083.29 1326.85 2083.29 1323.84 Q2083.29 1320.19 2085.88 1318.2 Q2088.48 1316.2 2093.24 1316.2 Q2095.61 1316.2 2097.69 1316.55 Q2099.77 1316.9 2101.53 1317.59 Z" fill="#000000" fill-rule="nonzero" fill-opacity="1" /><path clip-path="url(#clip850)" d="M2113.92 1309.47 L2113.92 1316.83 L2122.69 1316.83 L2122.69 1320.14 L2113.92 1320.14 L2113.92 1334.21 Q2113.92 1337.38 2114.77 1338.29 Q2115.65 1339.19 2118.31 1339.19 L2122.69 1339.19 L2122.69 1342.76 L2118.31 1342.76 Q2113.38 1342.76 2111.51 1340.93 Q2109.63 1339.07 2109.63 1334.21 L2109.63 1320.14 L2106.51 1320.14 L2106.51 1316.83 L2109.63 1316.83 L2109.63 1309.47 L2113.92 1309.47 Z" fill="#000000" fill-rule="nonzero" fill-opacity="1" /><path clip-path="url(#clip850)" d="M2138.34 1319.82 Q2134.91 1319.82 2132.92 1322.5 Q2130.93 1325.16 2130.93 1329.82 Q2130.93 1334.47 2132.9 1337.15 Q2134.89 1339.82 2138.34 1339.82 Q2141.74 1339.82 2143.73 1337.13 Q2145.72 1334.45 2145.72 1329.82 Q2145.72 1325.21 2143.73 1322.52 Q2141.74 1319.82 2138.34 1319.82 M2138.34 1316.2 Q2143.89 1316.2 2147.06 1319.82 Q2150.23 1323.43 2150.23 1329.82 Q2150.23 1336.18 2147.06 1339.82 Q2143.89 1343.43 2138.34 1343.43 Q2132.76 1343.43 2129.59 1339.82 Q2126.44 1336.18 2126.44 1329.82 Q2126.44 1323.43 2129.59 1319.82 Q2132.76 1316.2 2138.34 1316.2 Z" fill="#000000" fill-rule="nonzero" fill-opacity="1" /><path clip-path="url(#clip850)" d="M2172.32 1320.81 Q2171.6 1320.39 2170.74 1320.21 Q2169.91 1320 2168.89 1320 Q2165.28 1320 2163.34 1322.36 Q2161.42 1324.7 2161.42 1329.1 L2161.42 1342.76 L2157.13 1342.76 L2157.13 1316.83 L2161.42 1316.83 L2161.42 1320.86 Q2162.76 1318.5 2164.91 1317.36 Q2167.06 1316.2 2170.14 1316.2 Q2170.58 1316.2 2171.11 1316.27 Q2171.65 1316.32 2172.29 1316.44 L2172.32 1320.81 Z" fill="#000000" fill-rule="nonzero" fill-opacity="1" /><path clip-path="url(#clip850)" d="M2188.57 1329.72 Q2183.41 1329.72 2181.42 1330.9 Q2179.42 1332.08 2179.42 1334.93 Q2179.42 1337.2 2180.91 1338.54 Q2182.41 1339.86 2184.98 1339.86 Q2188.52 1339.86 2190.65 1337.36 Q2192.8 1334.84 2192.8 1330.67 L2192.8 1329.72 L2188.57 1329.72 M2197.06 1327.96 L2197.06 1342.76 L2192.8 1342.76 L2192.8 1338.82 Q2191.35 1341.18 2189.17 1342.32 Q2186.99 1343.43 2183.85 1343.43 Q2179.86 1343.43 2177.5 1341.2 Q2175.17 1338.96 2175.17 1335.21 Q2175.17 1330.83 2178.08 1328.61 Q2181.02 1326.39 2186.83 1326.39 L2192.8 1326.39 L2192.8 1325.97 Q2192.8 1323.03 2190.86 1321.44 Q2188.94 1319.82 2185.44 1319.82 Q2183.22 1319.82 2181.11 1320.35 Q2179.01 1320.88 2177.06 1321.95 L2177.06 1318.01 Q2179.4 1317.11 2181.6 1316.67 Q2183.8 1316.2 2185.88 1316.2 Q2191.51 1316.2 2194.29 1319.12 Q2197.06 1322.04 2197.06 1327.96 Z" fill="#000000" fill-rule="nonzero" fill-opacity="1" /><path clip-path="url(#clip850)" d="M2222.9 1329.49 Q2222.9 1324.86 2220.98 1322.32 Q2219.08 1319.77 2215.63 1319.77 Q2212.2 1319.77 2210.28 1322.32 Q2208.38 1324.86 2208.38 1329.49 Q2208.38 1334.1 2210.28 1336.64 Q2212.2 1339.19 2215.63 1339.19 Q2219.08 1339.19 2220.98 1336.64 Q2222.9 1334.1 2222.9 1329.49 M2227.16 1339.54 Q2227.16 1346.16 2224.22 1349.38 Q2221.28 1352.62 2215.21 1352.62 Q2212.97 1352.62 2210.98 1352.27 Q2208.98 1351.95 2207.11 1351.25 L2207.11 1347.11 Q2208.98 1348.13 2210.81 1348.61 Q2212.64 1349.1 2214.54 1349.1 Q2218.73 1349.1 2220.81 1346.9 Q2222.9 1344.72 2222.9 1340.3 L2222.9 1338.2 Q2221.58 1340.49 2219.52 1341.62 Q2217.46 1342.76 2214.59 1342.76 Q2209.82 1342.76 2206.9 1339.12 Q2203.98 1335.49 2203.98 1329.49 Q2203.98 1323.47 2206.9 1319.84 Q2209.82 1316.2 2214.59 1316.2 Q2217.46 1316.2 2219.52 1317.34 Q2221.58 1318.47 2222.9 1320.76 L2222.9 1316.83 L2227.16 1316.83 L2227.16 1339.54 Z" fill="#000000" fill-rule="nonzero" fill-opacity="1" /><path clip-path="url(#clip850)" d="M2258.1 1328.73 L2258.1 1330.81 L2238.52 1330.81 Q2238.8 1335.21 2241.16 1337.52 Q2243.54 1339.82 2247.78 1339.82 Q2250.23 1339.82 2252.53 1339.21 Q2254.84 1338.61 2257.11 1337.41 L2257.11 1341.44 Q2254.82 1342.41 2252.41 1342.92 Q2250 1343.43 2247.53 1343.43 Q2241.32 1343.43 2237.69 1339.82 Q2234.08 1336.2 2234.08 1330.05 Q2234.08 1323.68 2237.5 1319.95 Q2240.95 1316.2 2246.79 1316.2 Q2252.02 1316.2 2255.05 1319.58 Q2258.1 1322.94 2258.1 1328.73 M2253.85 1327.48 Q2253.8 1323.98 2251.88 1321.9 Q2249.98 1319.82 2246.83 1319.82 Q2243.27 1319.82 2241.11 1321.83 Q2238.98 1323.84 2238.66 1327.5 L2253.85 1327.48 Z" fill="#000000" fill-rule="nonzero" fill-opacity="1" /></svg>
