<?xml version="1.0" encoding="utf-8"?>
<svg xmlns="http://www.w3.org/2000/svg" xmlns:xlink="http://www.w3.org/1999/xlink" width="600" height="400" viewBox="0 0 2400 1600">
<defs>
  <clipPath id="clip660">
    <rect x="0" y="0" width="2400" height="1600"/>
  </clipPath>
</defs>
<path clip-path="url(#clip660)" d="M0 1600 L2400 1600 L2400 0 L0 0  Z" fill="#ffffff" fill-rule="evenodd" fill-opacity="1"/>
<defs>
  <clipPath id="clip661">
    <rect x="480" y="0" width="1681" height="1600"/>
  </clipPath>
</defs>
<path clip-path="url(#clip660)" d="M192.941 1423.18 L2352.76 1423.18 L2352.76 47.2441 L192.941 47.2441  Z" fill="#ffffff" fill-rule="evenodd" fill-opacity="1"/>
<defs>
  <clipPath id="clip662">
    <rect x="192" y="47" width="2161" height="1377"/>
  </clipPath>
</defs>
<polyline clip-path="url(#clip662)" style="stroke:#000000; stroke-linecap:round; stroke-linejoin:round; stroke-width:2; stroke-opacity:0.1; fill:none" points="192.941,1423.18 192.941,47.2441 "/>
<polyline clip-path="url(#clip662)" style="stroke:#000000; stroke-linecap:round; stroke-linejoin:round; stroke-width:2; stroke-opacity:0.1; fill:none" points="732.894,1423.18 732.894,47.2441 "/>
<polyline clip-path="url(#clip662)" style="stroke:#000000; stroke-linecap:round; stroke-linejoin:round; stroke-width:2; stroke-opacity:0.1; fill:none" points="1272.85,1423.18 1272.85,47.2441 "/>
<polyline clip-path="url(#clip662)" style="stroke:#000000; stroke-linecap:round; stroke-linejoin:round; stroke-width:2; stroke-opacity:0.1; fill:none" points="1812.8,1423.18 1812.8,47.2441 "/>
<polyline clip-path="url(#clip662)" style="stroke:#000000; stroke-linecap:round; stroke-linejoin:round; stroke-width:2; stroke-opacity:0.1; fill:none" points="2352.76,1423.18 2352.76,47.2441 "/>
<polyline clip-path="url(#clip662)" style="stroke:#000000; stroke-linecap:round; stroke-linejoin:round; stroke-width:2; stroke-opacity:0.1; fill:none" points="192.941,1422.14 2352.76,1422.14 "/>
<polyline clip-path="url(#clip662)" style="stroke:#000000; stroke-linecap:round; stroke-linejoin:round; stroke-width:2; stroke-opacity:0.1; fill:none" points="192.941,1122.52 2352.76,1122.52 "/>
<polyline clip-path="url(#clip662)" style="stroke:#000000; stroke-linecap:round; stroke-linejoin:round; stroke-width:2; stroke-opacity:0.1; fill:none" points="192.941,822.905 2352.76,822.905 "/>
<polyline clip-path="url(#clip662)" style="stroke:#000000; stroke-linecap:round; stroke-linejoin:round; stroke-width:2; stroke-opacity:0.1; fill:none" points="192.941,523.289 2352.76,523.289 "/>
<polyline clip-path="url(#clip662)" style="stroke:#000000; stroke-linecap:round; stroke-linejoin:round; stroke-width:2; stroke-opacity:0.1; fill:none" points="192.941,223.674 2352.76,223.674 "/>
<polyline clip-path="url(#clip660)" style="stroke:#000000; stroke-linecap:round; stroke-linejoin:round; stroke-width:4; stroke-opacity:1; fill:none" points="192.941,1423.18 2352.76,1423.18 "/>
<polyline clip-path="url(#clip660)" style="stroke:#000000; stroke-linecap:round; stroke-linejoin:round; stroke-width:4; stroke-opacity:1; fill:none" points="192.941,1423.18 192.941,1404.28 "/>
<polyline clip-path="url(#clip660)" style="stroke:#000000; stroke-linecap:round; stroke-linejoin:round; stroke-width:4; stroke-opacity:1; fill:none" points="732.894,1423.18 732.894,1404.28 "/>
<polyline clip-path="url(#clip660)" style="stroke:#000000; stroke-linecap:round; stroke-linejoin:round; stroke-width:4; stroke-opacity:1; fill:none" points="1272.85,1423.18 1272.85,1404.28 "/>
<polyline clip-path="url(#clip660)" style="stroke:#000000; stroke-linecap:round; stroke-linejoin:round; stroke-width:4; stroke-opacity:1; fill:none" points="1812.8,1423.18 1812.8,1404.28 "/>
<polyline clip-path="url(#clip660)" style="stroke:#000000; stroke-linecap:round; stroke-linejoin:round; stroke-width:4; stroke-opacity:1; fill:none" points="2352.76,1423.18 2352.76,1404.28 "/>
<path clip-path="url(#clip660)" d="M170.325 1454.1 Q166.714 1454.1 164.885 1457.66 Q163.08 1461.2 163.08 1468.33 Q163.08 1475.44 164.885 1479.01 Q166.714 1482.55 170.325 1482.55 Q173.959 1482.55 175.765 1479.01 Q177.593 1475.44 177.593 1468.33 Q177.593 1461.2 175.765 1457.66 Q173.959 1454.1 170.325 1454.1 M170.325 1450.39 Q176.135 1450.39 179.191 1455 Q182.269 1459.58 182.269 1468.33 Q182.269 1477.06 179.191 1481.67 Q176.135 1486.25 170.325 1486.25 Q164.515 1486.25 161.436 1481.67 Q158.381 1477.06 158.381 1468.33 Q158.381 1459.58 161.436 1455 Q164.515 1450.39 170.325 1450.39 Z" fill="#000000" fill-rule="nonzero" fill-opacity="1" /><path clip-path="url(#clip660)" d="M190.487 1479.7 L195.371 1479.7 L195.371 1485.58 L190.487 1485.58 L190.487 1479.7 Z" fill="#000000" fill-rule="nonzero" fill-opacity="1" /><path clip-path="url(#clip660)" d="M215.556 1454.1 Q211.945 1454.1 210.116 1457.66 Q208.311 1461.2 208.311 1468.33 Q208.311 1475.44 210.116 1479.01 Q211.945 1482.55 215.556 1482.55 Q219.19 1482.55 220.996 1479.01 Q222.825 1475.44 222.825 1468.33 Q222.825 1461.2 220.996 1457.66 Q219.19 1454.1 215.556 1454.1 M215.556 1450.39 Q221.366 1450.39 224.422 1455 Q227.501 1459.58 227.501 1468.33 Q227.501 1477.06 224.422 1481.67 Q221.366 1486.25 215.556 1486.25 Q209.746 1486.25 206.667 1481.67 Q203.612 1477.06 203.612 1468.33 Q203.612 1459.58 206.667 1455 Q209.746 1450.39 215.556 1450.39 Z" fill="#000000" fill-rule="nonzero" fill-opacity="1" /><path clip-path="url(#clip660)" d="M710.777 1454.1 Q707.165 1454.1 705.337 1457.66 Q703.531 1461.2 703.531 1468.33 Q703.531 1475.44 705.337 1479.01 Q707.165 1482.55 710.777 1482.55 Q714.411 1482.55 716.216 1479.01 Q718.045 1475.44 718.045 1468.33 Q718.045 1461.2 716.216 1457.66 Q714.411 1454.1 710.777 1454.1 M710.777 1450.39 Q716.587 1450.39 719.642 1455 Q722.721 1459.58 722.721 1468.33 Q722.721 1477.06 719.642 1481.67 Q716.587 1486.25 710.777 1486.25 Q704.966 1486.25 701.888 1481.67 Q698.832 1477.06 698.832 1468.33 Q698.832 1459.58 701.888 1455 Q704.966 1450.39 710.777 1450.39 Z" fill="#000000" fill-rule="nonzero" fill-opacity="1" /><path clip-path="url(#clip660)" d="M730.938 1479.7 L735.823 1479.7 L735.823 1485.58 L730.938 1485.58 L730.938 1479.7 Z" fill="#000000" fill-rule="nonzero" fill-opacity="1" /><path clip-path="url(#clip660)" d="M746.054 1451.02 L764.41 1451.02 L764.41 1454.96 L750.336 1454.96 L750.336 1463.43 Q751.355 1463.08 752.374 1462.92 Q753.392 1462.73 754.411 1462.73 Q760.198 1462.73 763.577 1465.9 Q766.957 1469.08 766.957 1474.49 Q766.957 1480.07 763.485 1483.17 Q760.012 1486.25 753.693 1486.25 Q751.517 1486.25 749.249 1485.88 Q747.003 1485.51 744.596 1484.77 L744.596 1480.07 Q746.679 1481.2 748.901 1481.76 Q751.124 1482.32 753.6 1482.32 Q757.605 1482.32 759.943 1480.21 Q762.281 1478.1 762.281 1474.49 Q762.281 1470.88 759.943 1468.77 Q757.605 1466.67 753.6 1466.67 Q751.725 1466.67 749.85 1467.08 Q747.999 1467.5 746.054 1468.38 L746.054 1451.02 Z" fill="#000000" fill-rule="nonzero" fill-opacity="1" /><path clip-path="url(#clip660)" d="M1240 1481.64 L1247.64 1481.64 L1247.64 1455.28 L1239.33 1456.95 L1239.33 1452.69 L1247.59 1451.02 L1252.27 1451.02 L1252.27 1481.64 L1259.91 1481.64 L1259.91 1485.58 L1240 1485.58 L1240 1481.64 Z" fill="#000000" fill-rule="nonzero" fill-opacity="1" /><path clip-path="url(#clip660)" d="M1269.35 1479.7 L1274.24 1479.7 L1274.24 1485.58 L1269.35 1485.58 L1269.35 1479.7 Z" fill="#000000" fill-rule="nonzero" fill-opacity="1" /><path clip-path="url(#clip660)" d="M1294.42 1454.1 Q1290.81 1454.1 1288.98 1457.66 Q1287.18 1461.2 1287.18 1468.33 Q1287.18 1475.44 1288.98 1479.01 Q1290.81 1482.55 1294.42 1482.55 Q1298.06 1482.55 1299.86 1479.01 Q1301.69 1475.44 1301.69 1468.33 Q1301.69 1461.2 1299.86 1457.66 Q1298.06 1454.1 1294.42 1454.1 M1294.42 1450.39 Q1300.23 1450.39 1303.29 1455 Q1306.37 1459.58 1306.37 1468.33 Q1306.37 1477.06 1303.29 1481.67 Q1300.23 1486.25 1294.42 1486.25 Q1288.61 1486.25 1285.53 1481.67 Q1282.48 1477.06 1282.48 1468.33 Q1282.48 1459.58 1285.53 1455 Q1288.61 1450.39 1294.42 1450.39 Z" fill="#000000" fill-rule="nonzero" fill-opacity="1" /><path clip-path="url(#clip660)" d="M1780.45 1481.64 L1788.09 1481.64 L1788.09 1455.28 L1779.78 1456.95 L1779.78 1452.69 L1788.05 1451.02 L1792.72 1451.02 L1792.72 1481.64 L1800.36 1481.64 L1800.36 1485.58 L1780.45 1485.58 L1780.45 1481.64 Z" fill="#000000" fill-rule="nonzero" fill-opacity="1" /><path clip-path="url(#clip660)" d="M1809.8 1479.7 L1814.69 1479.7 L1814.69 1485.58 L1809.8 1485.58 L1809.8 1479.7 Z" fill="#000000" fill-rule="nonzero" fill-opacity="1" /><path clip-path="url(#clip660)" d="M1824.92 1451.02 L1843.28 1451.02 L1843.28 1454.96 L1829.2 1454.96 L1829.2 1463.43 Q1830.22 1463.08 1831.24 1462.92 Q1832.26 1462.73 1833.28 1462.73 Q1839.06 1462.73 1842.44 1465.9 Q1845.82 1469.08 1845.82 1474.49 Q1845.82 1480.07 1842.35 1483.17 Q1838.88 1486.25 1832.56 1486.25 Q1830.38 1486.25 1828.11 1485.88 Q1825.87 1485.51 1823.46 1484.77 L1823.46 1480.07 Q1825.55 1481.2 1827.77 1481.76 Q1829.99 1482.32 1832.47 1482.32 Q1836.47 1482.32 1838.81 1480.21 Q1841.15 1478.1 1841.15 1474.49 Q1841.15 1470.88 1838.81 1468.77 Q1836.47 1466.67 1832.47 1466.67 Q1830.59 1466.67 1828.72 1467.08 Q1826.86 1467.5 1824.92 1468.38 L1824.92 1451.02 Z" fill="#000000" fill-rule="nonzero" fill-opacity="1" /><path clip-path="url(#clip660)" d="M2323.99 1481.64 L2340.31 1481.64 L2340.31 1485.58 L2318.37 1485.58 L2318.37 1481.64 Q2321.03 1478.89 2325.61 1474.26 Q2330.22 1469.61 2331.4 1468.27 Q2333.65 1465.74 2334.53 1464.01 Q2335.43 1462.25 2335.43 1460.56 Q2335.43 1457.8 2333.49 1456.07 Q2331.56 1454.33 2328.46 1454.33 Q2326.26 1454.33 2323.81 1455.09 Q2321.38 1455.86 2318.6 1457.41 L2318.6 1452.69 Q2321.43 1451.55 2323.88 1450.97 Q2326.33 1450.39 2328.37 1450.39 Q2333.74 1450.39 2336.93 1453.08 Q2340.13 1455.77 2340.13 1460.26 Q2340.13 1462.39 2339.32 1464.31 Q2338.53 1466.2 2336.42 1468.8 Q2335.85 1469.47 2332.74 1472.69 Q2329.64 1475.88 2323.99 1481.64 Z" fill="#000000" fill-rule="nonzero" fill-opacity="1" /><path clip-path="url(#clip660)" d="M2350.13 1479.7 L2355.01 1479.7 L2355.01 1485.58 L2350.13 1485.58 L2350.13 1479.7 Z" fill="#000000" fill-rule="nonzero" fill-opacity="1" /><path clip-path="url(#clip660)" d="M2375.2 1454.1 Q2371.59 1454.1 2369.76 1457.66 Q2367.95 1461.2 2367.95 1468.33 Q2367.95 1475.44 2369.76 1479.01 Q2371.59 1482.55 2375.2 1482.55 Q2378.83 1482.55 2380.64 1479.01 Q2382.47 1475.44 2382.47 1468.33 Q2382.47 1461.2 2380.64 1457.66 Q2378.83 1454.1 2375.2 1454.1 M2375.2 1450.39 Q2381.01 1450.39 2384.06 1455 Q2387.14 1459.58 2387.14 1468.33 Q2387.14 1477.06 2384.06 1481.67 Q2381.01 1486.25 2375.2 1486.25 Q2369.39 1486.25 2366.31 1481.67 Q2363.25 1477.06 2363.25 1468.33 Q2363.25 1459.58 2366.31 1455 Q2369.39 1450.39 2375.2 1450.39 Z" fill="#000000" fill-rule="nonzero" fill-opacity="1" /><path clip-path="url(#clip660)" d="M1271.91 1522.27 L1271.91 1532.4 L1283.97 1532.4 L1283.97 1536.95 L1271.91 1536.95 L1271.91 1556.3 Q1271.91 1560.66 1273.09 1561.9 Q1274.3 1563.14 1277.96 1563.14 L1283.97 1563.14 L1283.97 1568.04 L1277.96 1568.04 Q1271.18 1568.04 1268.6 1565.53 Q1266.02 1562.98 1266.02 1556.3 L1266.02 1536.95 L1261.72 1536.95 L1261.72 1532.4 L1266.02 1532.4 L1266.02 1522.27 L1271.91 1522.27 Z" fill="#000000" fill-rule="nonzero" fill-opacity="1" /><polyline clip-path="url(#clip660)" style="stroke:#000000; stroke-linecap:round; stroke-linejoin:round; stroke-width:4; stroke-opacity:1; fill:none" points="192.941,1423.18 192.941,47.2441 "/>
<polyline clip-path="url(#clip660)" style="stroke:#000000; stroke-linecap:round; stroke-linejoin:round; stroke-width:4; stroke-opacity:1; fill:none" points="192.941,1422.14 211.838,1422.14 "/>
<polyline clip-path="url(#clip660)" style="stroke:#000000; stroke-linecap:round; stroke-linejoin:round; stroke-width:4; stroke-opacity:1; fill:none" points="192.941,1122.52 211.838,1122.52 "/>
<polyline clip-path="url(#clip660)" style="stroke:#000000; stroke-linecap:round; stroke-linejoin:round; stroke-width:4; stroke-opacity:1; fill:none" points="192.941,822.905 211.838,822.905 "/>
<polyline clip-path="url(#clip660)" style="stroke:#000000; stroke-linecap:round; stroke-linejoin:round; stroke-width:4; stroke-opacity:1; fill:none" points="192.941,523.289 211.838,523.289 "/>
<polyline clip-path="url(#clip660)" style="stroke:#000000; stroke-linecap:round; stroke-linejoin:round; stroke-width:4; stroke-opacity:1; fill:none" points="192.941,223.674 211.838,223.674 "/>
<path clip-path="url(#clip660)" d="M50.9921 1422.59 L80.6679 1422.59 L80.6679 1426.52 L50.9921 1426.52 L50.9921 1422.59 Z" fill="#000000" fill-rule="nonzero" fill-opacity="1" /><path clip-path="url(#clip660)" d="M100.76 1407.94 Q97.1493 1407.94 95.3206 1411.5 Q93.515 1415.04 93.515 1422.17 Q93.515 1429.28 95.3206 1432.84 Q97.1493 1436.38 100.76 1436.38 Q104.395 1436.38 106.2 1432.84 Q108.029 1429.28 108.029 1422.17 Q108.029 1415.04 106.2 1411.5 Q104.395 1407.94 100.76 1407.94 M100.76 1404.23 Q106.571 1404.23 109.626 1408.84 Q112.705 1413.42 112.705 1422.17 Q112.705 1430.9 109.626 1435.5 Q106.571 1440.09 100.76 1440.09 Q94.9502 1440.09 91.8715 1435.5 Q88.816 1430.9 88.816 1422.17 Q88.816 1413.42 91.8715 1408.84 Q94.9502 1404.23 100.76 1404.23 Z" fill="#000000" fill-rule="nonzero" fill-opacity="1" /><path clip-path="url(#clip660)" d="M120.922 1433.54 L125.807 1433.54 L125.807 1439.42 L120.922 1439.42 L120.922 1433.54 Z" fill="#000000" fill-rule="nonzero" fill-opacity="1" /><path clip-path="url(#clip660)" d="M136.038 1404.86 L154.394 1404.86 L154.394 1408.79 L140.32 1408.79 L140.32 1417.26 Q141.339 1416.92 142.357 1416.76 Q143.376 1416.57 144.394 1416.57 Q150.181 1416.57 153.561 1419.74 Q156.941 1422.91 156.941 1428.33 Q156.941 1433.91 153.468 1437.01 Q149.996 1440.09 143.677 1440.09 Q141.501 1440.09 139.232 1439.72 Q136.987 1439.35 134.58 1438.61 L134.58 1433.91 Q136.663 1435.04 138.885 1435.6 Q141.107 1436.15 143.584 1436.15 Q147.589 1436.15 149.927 1434.05 Q152.265 1431.94 152.265 1428.33 Q152.265 1424.72 149.927 1422.61 Q147.589 1420.5 143.584 1420.5 Q141.709 1420.5 139.834 1420.92 Q137.982 1421.34 136.038 1422.22 L136.038 1404.86 Z" fill="#000000" fill-rule="nonzero" fill-opacity="1" /><path clip-path="url(#clip660)" d="M99.765 1108.32 Q96.1539 1108.32 94.3252 1111.88 Q92.5197 1115.43 92.5197 1122.56 Q92.5197 1129.66 94.3252 1133.23 Q96.1539 1136.77 99.765 1136.77 Q103.399 1136.77 105.205 1133.23 Q107.033 1129.66 107.033 1122.56 Q107.033 1115.43 105.205 1111.88 Q103.399 1108.32 99.765 1108.32 M99.765 1104.62 Q105.575 1104.62 108.631 1109.22 Q111.709 1113.81 111.709 1122.56 Q111.709 1131.28 108.631 1135.89 Q105.575 1140.47 99.765 1140.47 Q93.9549 1140.47 90.8762 1135.89 Q87.8206 1131.28 87.8206 1122.56 Q87.8206 1113.81 90.8762 1109.22 Q93.9549 1104.62 99.765 1104.62 Z" fill="#000000" fill-rule="nonzero" fill-opacity="1" /><path clip-path="url(#clip660)" d="M119.927 1133.92 L124.811 1133.92 L124.811 1139.8 L119.927 1139.8 L119.927 1133.92 Z" fill="#000000" fill-rule="nonzero" fill-opacity="1" /><path clip-path="url(#clip660)" d="M144.996 1108.32 Q141.385 1108.32 139.556 1111.88 Q137.751 1115.43 137.751 1122.56 Q137.751 1129.66 139.556 1133.23 Q141.385 1136.77 144.996 1136.77 Q148.63 1136.77 150.436 1133.23 Q152.265 1129.66 152.265 1122.56 Q152.265 1115.43 150.436 1111.88 Q148.63 1108.32 144.996 1108.32 M144.996 1104.62 Q150.806 1104.62 153.862 1109.22 Q156.941 1113.81 156.941 1122.56 Q156.941 1131.28 153.862 1135.89 Q150.806 1140.47 144.996 1140.47 Q139.186 1140.47 136.107 1135.89 Q133.052 1131.28 133.052 1122.56 Q133.052 1113.81 136.107 1109.22 Q139.186 1104.62 144.996 1104.62 Z" fill="#000000" fill-rule="nonzero" fill-opacity="1" /><path clip-path="url(#clip660)" d="M100.76 808.704 Q97.1493 808.704 95.3206 812.269 Q93.515 815.81 93.515 822.94 Q93.515 830.046 95.3206 833.611 Q97.1493 837.153 100.76 837.153 Q104.395 837.153 106.2 833.611 Q108.029 830.046 108.029 822.94 Q108.029 815.81 106.2 812.269 Q104.395 808.704 100.76 808.704 M100.76 805 Q106.571 805 109.626 809.607 Q112.705 814.19 112.705 822.94 Q112.705 831.667 109.626 836.273 Q106.571 840.857 100.76 840.857 Q94.9502 840.857 91.8715 836.273 Q88.816 831.667 88.816 822.94 Q88.816 814.19 91.8715 809.607 Q94.9502 805 100.76 805 Z" fill="#000000" fill-rule="nonzero" fill-opacity="1" /><path clip-path="url(#clip660)" d="M120.922 834.306 L125.807 834.306 L125.807 840.185 L120.922 840.185 L120.922 834.306 Z" fill="#000000" fill-rule="nonzero" fill-opacity="1" /><path clip-path="url(#clip660)" d="M136.038 805.625 L154.394 805.625 L154.394 809.56 L140.32 809.56 L140.32 818.033 Q141.339 817.685 142.357 817.523 Q143.376 817.338 144.394 817.338 Q150.181 817.338 153.561 820.509 Q156.941 823.681 156.941 829.097 Q156.941 834.676 153.468 837.778 Q149.996 840.857 143.677 840.857 Q141.501 840.857 139.232 840.486 Q136.987 840.116 134.58 839.375 L134.58 834.676 Q136.663 835.81 138.885 836.366 Q141.107 836.921 143.584 836.921 Q147.589 836.921 149.927 834.815 Q152.265 832.708 152.265 829.097 Q152.265 825.486 149.927 823.38 Q147.589 821.273 143.584 821.273 Q141.709 821.273 139.834 821.69 Q137.982 822.107 136.038 822.986 L136.038 805.625 Z" fill="#000000" fill-rule="nonzero" fill-opacity="1" /><path clip-path="url(#clip660)" d="M90.5752 536.634 L98.2141 536.634 L98.2141 510.269 L89.904 511.935 L89.904 507.676 L98.1678 506.009 L102.844 506.009 L102.844 536.634 L110.483 536.634 L110.483 540.569 L90.5752 540.569 L90.5752 536.634 Z" fill="#000000" fill-rule="nonzero" fill-opacity="1" /><path clip-path="url(#clip660)" d="M119.927 534.69 L124.811 534.69 L124.811 540.569 L119.927 540.569 L119.927 534.69 Z" fill="#000000" fill-rule="nonzero" fill-opacity="1" /><path clip-path="url(#clip660)" d="M144.996 509.088 Q141.385 509.088 139.556 512.653 Q137.751 516.195 137.751 523.324 Q137.751 530.431 139.556 533.995 Q141.385 537.537 144.996 537.537 Q148.63 537.537 150.436 533.995 Q152.265 530.431 152.265 523.324 Q152.265 516.195 150.436 512.653 Q148.63 509.088 144.996 509.088 M144.996 505.384 Q150.806 505.384 153.862 509.991 Q156.941 514.574 156.941 523.324 Q156.941 532.051 153.862 536.657 Q150.806 541.241 144.996 541.241 Q139.186 541.241 136.107 536.657 Q133.052 532.051 133.052 523.324 Q133.052 514.574 136.107 509.991 Q139.186 505.384 144.996 505.384 Z" fill="#000000" fill-rule="nonzero" fill-opacity="1" /><path clip-path="url(#clip660)" d="M91.5706 237.018 L99.2095 237.018 L99.2095 210.653 L90.8993 212.319 L90.8993 208.06 L99.1632 206.394 L103.839 206.394 L103.839 237.018 L111.478 237.018 L111.478 240.954 L91.5706 240.954 L91.5706 237.018 Z" fill="#000000" fill-rule="nonzero" fill-opacity="1" /><path clip-path="url(#clip660)" d="M120.922 235.074 L125.807 235.074 L125.807 240.954 L120.922 240.954 L120.922 235.074 Z" fill="#000000" fill-rule="nonzero" fill-opacity="1" /><path clip-path="url(#clip660)" d="M136.038 206.394 L154.394 206.394 L154.394 210.329 L140.32 210.329 L140.32 218.801 Q141.339 218.454 142.357 218.292 Q143.376 218.106 144.394 218.106 Q150.181 218.106 153.561 221.278 Q156.941 224.449 156.941 229.866 Q156.941 235.444 153.468 238.546 Q149.996 241.625 143.677 241.625 Q141.501 241.625 139.232 241.254 Q136.987 240.884 134.58 240.143 L134.58 235.444 Q136.663 236.579 138.885 237.134 Q141.107 237.69 143.584 237.69 Q147.589 237.69 149.927 235.583 Q152.265 233.477 152.265 229.866 Q152.265 226.255 149.927 224.148 Q147.589 222.042 143.584 222.042 Q141.709 222.042 139.834 222.458 Q137.982 222.875 136.038 223.755 L136.038 206.394 Z" fill="#000000" fill-rule="nonzero" fill-opacity="1" /><polyline clip-path="url(#clip662)" style="stroke:#009af9; stroke-linecap:round; stroke-linejoin:round; stroke-width:4; stroke-opacity:1; fill:none" points="192.941,1384.24 195.103,1380.58 197.265,1376.96 199.427,1373.37 201.589,1369.82 203.751,1366.31 205.912,1362.83 208.074,1359.39 210.236,1355.98 212.398,1352.6 214.56,1349.26 216.722,1345.95 218.884,1342.67 221.046,1339.43 223.208,1336.22 225.37,1333.04 227.532,1329.89 229.694,1326.77 231.856,1323.69 234.018,1320.63 236.18,1317.61 238.342,1314.62 240.504,1311.65 242.666,1308.72 244.828,1305.81 246.99,1302.94 249.152,1300.09 251.314,1297.27 253.476,1294.48 255.638,1291.71 257.8,1288.98 259.962,1286.27 262.124,1283.59 264.286,1280.93 266.448,1278.3 268.61,1275.7 270.772,1273.12 272.934,1270.57 275.096,1268.05 277.258,1265.55 279.42,1263.07 281.582,1260.62 283.744,1258.19 285.906,1255.79 288.068,1253.41 290.23,1251.06 292.392,1248.73 294.554,1246.42 296.716,1244.13 298.878,1241.87 301.039,1239.63 303.201,1237.42 305.363,1235.22 307.525,1233.05 309.687,1230.9 311.849,1228.76 314.011,1226.66 316.173,1224.57 318.335,1222.5 320.497,1220.45 322.659,1218.43 324.821,1216.42 326.983,1214.44 329.145,1212.47 331.307,1210.52 333.469,1208.59 335.631,1206.69 337.793,1204.8 339.955,1202.93 342.117,1201.07 344.279,1199.24 346.441,1197.43 348.603,1195.63 350.765,1193.85 352.927,1192.09 355.089,1190.34 357.251,1188.62 359.413,1186.91 361.575,1185.22 363.737,1183.54 365.899,1181.88 368.061,1180.24 370.223,1178.61 372.385,1177.01 374.547,1175.41 376.709,1173.83 378.871,1172.27 381.033,1170.73 383.195,1169.19 385.357,1167.68 387.519,1166.18 389.681,1164.69 391.843,1163.22 394.005,1161.77 396.166,1160.32 398.328,1158.9 400.49,1157.48 402.652,1156.08 404.814,1154.7 406.976,1153.33 409.138,1151.97 411.3,1150.63 413.462,1149.29 415.624,1147.98 417.786,1146.67 419.948,1145.38 422.11,1144.1 424.272,1142.84 426.434,1141.58 428.596,1140.34 430.758,1139.11 432.92,1137.9 435.082,1136.69 437.244,1135.5 439.406,1134.32 441.568,1133.15 443.73,1132 445.892,1130.85 448.054,1129.72 450.216,1128.59 452.378,1127.48 454.54,1126.38 456.702,1125.29 458.864,1124.21 461.026,1123.15 463.188,1122.09 465.35,1121.04 467.512,1120.01 469.674,1118.98 471.836,1117.96 473.998,1116.96 476.16,1115.96 478.322,1114.98 480.484,1114 482.646,1113.04 484.808,1112.08 486.97,1111.13 489.132,1110.2 491.293,1109.27 493.455,1108.35 495.617,1107.44 497.779,1106.54 499.941,1105.65 502.103,1104.76 504.265,1103.89 506.427,1103.02 508.589,1102.17 510.751,1101.32 512.913,1100.48 515.075,1099.65 517.237,1098.83 519.399,1098.01 521.561,1097.2 523.723,1096.4 525.885,1095.61 528.047,1094.83 530.209,1094.06 532.371,1093.29 534.533,1092.53 536.695,1091.78 538.857,1091.03 541.019,1090.29 543.181,1089.56 545.343,1088.84 547.505,1088.13 549.667,1087.42 551.829,1086.72 553.991,1086.02 556.153,1085.33 558.315,1084.65 560.477,1083.98 562.639,1083.31 564.801,1082.65 566.963,1082 569.125,1081.35 571.287,1080.71 573.449,1080.08 575.611,1079.45 577.773,1078.83 579.935,1078.21 582.097,1077.6 584.259,1077 586.42,1076.4 588.582,1075.81 590.744,1075.22 592.906,1074.64 595.068,1074.07 597.23,1073.5 599.392,1072.94 601.554,1072.38 603.716,1071.83 605.878,1071.28 608.04,1070.74 610.202,1070.21 612.364,1069.68 614.526,1069.15 616.688,1068.63 618.85,1068.12 621.012,1067.61 623.174,1067.11 625.336,1066.61 627.498,1066.11 629.66,1065.62 631.822,1065.14 633.984,1064.66 636.146,1064.19 638.308,1063.72 640.47,1063.25 642.632,1062.79 644.794,1062.33 646.956,1061.88 649.118,1061.44 651.28,1060.99 653.442,1060.55 655.604,1060.12 657.766,1059.69 659.928,1059.27 662.09,1058.85 664.252,1058.43 666.414,1058.02 668.576,1057.61 670.738,1057.2 672.9,1056.8 675.062,1056.41 677.224,1056.01 679.386,1055.63 681.547,1055.24 683.709,1054.86 685.871,1054.48 688.033,1054.11 690.195,1053.74 692.357,1053.37 694.519,1053.01 696.681,1052.65 698.843,1052.3 701.005,1051.95 703.167,1051.6 705.329,1051.26 707.491,1050.91 709.653,1050.58 711.815,1050.24 713.977,1049.91 716.139,1049.58 718.301,1049.26 720.463,1048.94 722.625,1048.62 724.787,1048.31 726.949,1047.99 729.111,1047.69 731.273,1047.38 733.435,1047.08 735.597,1046.78 737.759,1046.48 739.921,1046.19 742.083,1045.9 744.245,1045.61 746.407,1045.32 748.569,1045.04 750.731,1044.76 752.893,1044.49 755.055,1044.21 757.217,1043.94 759.379,1043.67 761.541,1043.41 763.703,1043.14 765.865,1042.88 768.027,1042.63 770.189,1042.37 772.351,1042.12 774.513,1041.87 776.674,1041.62 778.836,1041.38 780.998,1041.13 783.16,1040.89 785.322,1040.65 787.484,1040.42 789.646,1040.19 791.808,1039.95 793.97,1039.73 796.132,1039.5 798.294,1039.28 800.456,1039.05 802.618,1038.83 804.78,1038.62 806.942,1038.4 809.104,1038.19 811.266,1037.98 813.428,1037.77 815.59,1037.56 817.752,1037.36 819.914,1037.15 822.076,1036.95 824.238,1036.76 826.4,1036.56 828.562,1036.36 830.724,1036.17 832.886,1035.98 835.048,1035.79 837.21,1035.6 839.372,1035.42 841.534,1035.24 843.696,1035.05 845.858,1034.88 848.02,1034.7 850.182,1034.52 852.344,1034.35 854.506,1034.17 856.668,1034 858.83,1033.83 860.992,1033.67 863.154,1033.5 865.316,1033.34 867.478,1033.17 869.64,1033.01 871.801,1032.85 873.963,1032.7 876.125,1032.54 878.287,1032.38 880.449,1032.23 882.611,1032.08 884.773,1031.93 886.935,1031.78 889.097,1031.63 891.259,1031.49 893.421,1031.34 895.583,1031.2 897.745,1031.06 899.907,1030.92 902.069,1030.78 904.231,1030.64 906.393,1030.51 908.555,1030.37 910.717,1030.24 912.879,1030.11 915.041,1029.98 917.203,1029.85 919.365,1029.72 921.527,1029.59 923.689,1029.47 925.851,1029.34 928.013,1029.22 930.175,1029.1 932.337,1028.98 934.499,1028.86 936.661,1028.74 938.823,1028.63 940.985,1028.51 943.147,1028.39 945.309,1028.28 947.471,1028.17 949.633,1028.06 951.795,1027.95 953.957,1027.84 956.119,1027.73 958.281,1027.62 960.443,1027.52 962.605,1027.41 964.767,1027.31 966.928,1027.21 969.09,1027.11 971.252,1027.01 973.414,1026.91 975.576,1026.81 977.738,1026.71 979.9,1026.61 982.062,1026.52 984.224,1026.42 986.386,1026.33 988.548,1026.24 990.71,1026.14 992.872,1026.05 995.034,1025.96 997.196,1025.87 999.358,1025.79 1001.52,1025.7 1003.68,1025.61 1005.84,1025.53 1008.01,1025.44 1010.17,1025.36 1012.33,1025.27 1014.49,1025.19 1016.65,1025.11 1018.82,1025.03 1020.98,1024.95 1023.14,1024.87 1025.3,1024.79 1027.46,1024.72 1029.63,1024.64 1031.79,1024.56 1033.95,1024.49 1036.11,1024.41 1038.27,1024.34 1040.44,1024.27 1042.6,1024.19 1044.76,1024.12 1046.92,1024.05 1049.08,1023.98 1051.25,1023.91 1053.41,1023.84 1055.57,1023.78 1057.73,1023.71 1059.89,1023.64 1062.06,1023.57 1064.22,1023.51 1066.38,1023.44 1068.54,1023.38 1070.7,1023.32 1072.87,1023.25 1075.03,1023.19 1077.19,1023.13 1079.35,1023.07 1081.51,1023.01 1083.68,1022.95 1085.84,1022.89 1088,1022.83 1090.16,1022.77 1092.32,1022.72 1094.49,1022.66 1096.65,1022.6 1098.81,1022.55 1100.97,1022.49 1103.13,1022.44 1105.3,1022.38 1107.46,1022.33 1109.62,1022.28 1111.78,1022.22 1113.94,1022.17 1116.1,1022.12 1118.27,1022.07 1120.43,1022.02 1122.59,1021.97 1124.75,1021.92 1126.91,1021.87 1129.08,1021.82 1131.24,1021.77 1133.4,1021.73 1135.56,1021.68 1137.72,1021.63 1139.89,1021.59 1142.05,1021.54 1144.21,1021.5 1146.37,1021.45 1148.53,1021.41 1150.7,1021.36 1152.86,1021.32 1155.02,1021.28 1157.18,1021.23 1159.34,1021.19 1161.51,1021.15 1163.67,1021.11 1165.83,1021.07 1167.99,1021.03 1170.15,1020.99 1172.32,1020.95 1174.48,1020.91 1176.64,1020.87 1178.8,1020.83 1180.96,1020.79 1183.13,1020.76 1185.29,1020.72 1187.45,1020.68 1189.61,1020.65 1191.77,1020.61 1193.94,1020.57 1196.1,1020.54 1198.26,1020.5 1200.42,1020.47 1202.58,1020.43 1204.75,1020.4 1206.91,1020.37 1209.07,1020.33 1211.23,1020.3 1213.39,1020.27 1215.56,1020.23 1217.72,1020.2 1219.88,1020.17 1222.04,1020.14 1224.2,1020.11 1226.37,1020.08 1228.53,1020.05 1230.69,1020.02 1232.85,1019.99 1235.01,1019.96 1237.18,1019.93 1239.34,1019.9 1241.5,1019.87 1243.66,1019.84 1245.82,1019.81 1247.99,1019.79 1250.15,1019.76 1252.31,1019.73 1254.47,1019.7 1256.63,1019.68 1258.8,1019.65 1260.96,1019.62 1263.12,1019.6 1265.28,1019.57 1267.44,1019.55 1269.61,1019.52 1271.77,1019.5 1273.93,1019.47 1276.09,1019.45 1278.25,1019.42 1280.42,1019.4 1282.58,1019.37 1284.74,1019.35 1286.9,1019.33 1289.06,1019.3 1291.23,1019.28 1293.39,1019.26 1295.55,1019.24 1297.71,1019.21 1299.87,1019.19 1302.03,1019.17 1304.2,1019.15 1306.36,1019.13 1308.52,1019.11 1310.68,1019.08 1312.84,1019.06 1315.01,1019.04 1317.17,1019.02 1319.33,1019 1321.49,1018.98 1323.65,1018.96 1325.82,1018.94 1327.98,1018.92 1330.14,1018.9 1332.3,1018.89 1334.46,1018.87 1336.63,1018.85 1338.79,1018.83 1340.95,1018.81 1343.11,1018.79 1345.27,1018.78 1347.44,1018.76 1349.6,1018.74 1351.76,1018.72 1353.92,1018.71 1356.08,1018.69 1358.25,1018.67 1360.41,1018.66 1362.57,1018.64 1364.73,1018.62 1366.89,1018.61 1369.06,1018.59 1371.22,1018.58 1373.38,1018.56 1375.54,1018.55 1377.7,1018.53 1379.87,1018.52 1382.03,1018.5 1384.19,1018.49 1386.35,1018.47 1388.51,1018.46 1390.68,1018.44 1392.84,1018.43 1395,1018.41 1397.16,1018.4 1399.32,1018.39 1401.49,1018.37 1403.65,1018.36 1405.81,1018.35 1407.97,1018.33 1410.13,1018.32 1412.3,1018.31 1414.46,1018.29 1416.62,1018.28 1418.78,1018.27 1420.94,1018.26 1423.11,1018.24 1425.27,1018.23 1427.43,1018.22 1429.59,1018.21 1431.75,1018.19 1433.92,1018.18 1436.08,1018.17 1438.24,1018.16 1440.4,1018.15 1442.56,1018.14 1444.73,1018.13 1446.89,1018.11 1449.05,1018.1 1451.21,1018.09 1453.37,1018.08 1455.54,1018.07 1457.7,1018.06 1459.86,1018.05 1462.02,1018.04 1464.18,1018.03 1466.35,1018.02 1468.51,1018.01 1470.67,1018 1472.83,1017.99 1474.99,1017.98 1477.16,1017.97 1479.32,1017.96 1481.48,1017.95 1483.64,1017.94 1485.8,1017.93 1487.97,1017.92 1490.13,1017.91 1492.29,1017.9 1494.45,1017.9 1496.61,1017.89 1498.77,1017.88 1500.94,1017.87 1503.1,1017.86 1505.26,1017.85 1507.42,1017.84 1509.58,1017.84 1511.75,1017.83 1513.91,1017.82 1516.07,1017.81 1518.23,1017.8 1520.39,1017.79 1522.56,1017.79 1524.72,1017.78 1526.88,1017.77 1529.04,1017.76 1531.2,1017.76 1533.37,1017.75 1535.53,1017.74 1537.69,1017.73 1539.85,1017.73 1542.01,1017.72 1544.18,1017.71 1546.34,1017.71 1548.5,1017.7 1550.66,1017.69 1552.82,1017.68 1554.99,1017.68 1557.15,1017.67 1559.31,1017.66 1561.47,1017.66 1563.63,1017.65 1565.8,1017.64 1567.96,1017.64 1570.12,1017.63 1572.28,1017.63 1574.44,1017.62 1576.61,1017.61 1578.77,1017.61 1580.93,1017.6 1583.09,1017.6 1585.25,1017.59 1587.42,1017.58 1589.58,1017.58 1591.74,1017.57 1593.9,1017.57 1596.06,1017.56 1598.23,1017.56 1600.39,1017.55 1602.55,1017.54 1604.71,1017.54 1606.87,1017.53 1609.04,1017.53 1611.2,1017.52 1613.36,1017.52 1615.52,1017.51 1617.68,1017.51 1619.85,1017.5 1622.01,1017.5 1624.17,1017.49 1626.33,1017.49 1628.49,1017.48 1630.66,1017.48 1632.82,1017.47 1634.98,1017.47 1637.14,1017.47 1639.3,1017.46 1641.47,1017.46 1643.63,1017.45 1645.79,1017.45 1647.95,1017.44 1650.11,1017.44 1652.28,1017.44 1654.44,1017.43 1656.6,1017.43 1658.76,1017.42 1660.92,1017.42 1663.09,1017.41 1665.25,1017.41 1667.41,1017.41 1669.57,1017.4 1671.73,1017.4 1673.9,1017.39 1676.06,1017.39 1678.22,1017.39 1680.38,1017.38 1682.54,1017.38 1684.7,1017.38 1686.87,1017.37 1689.03,1017.37 1691.19,1017.37 1693.35,1017.36 1695.51,1017.36 1697.68,1017.36 1699.84,1017.35 1702,1017.35 1704.16,1017.35 1706.32,1017.34 1708.49,1017.34 1710.65,1017.34 1712.81,1017.33 1714.97,1017.33 1717.13,1017.33 1719.3,1017.32 1721.46,1017.32 1723.62,1017.32 1725.78,1017.31 1727.94,1017.31 1730.11,1017.31 1732.27,1017.3 1734.43,1017.3 1736.59,1017.3 1738.75,1017.3 1740.92,1017.29 1743.08,1017.29 1745.24,1017.29 1747.4,1017.28 1749.56,1017.28 1751.73,1017.28 1753.89,1017.28 1756.05,1017.27 1758.21,1017.27 1760.37,1017.27 1762.54,1017.27 1764.7,1017.26 1766.86,1017.26 1769.02,1017.26 1771.18,1017.25 1773.35,1017.25 1775.51,1017.25 1777.67,1017.25 1779.83,1017.25 1781.99,1017.24 1784.16,1017.24 1786.32,1017.24 1788.48,1017.24 1790.64,1017.23 1792.8,1017.23 1794.97,1017.23 1797.13,1017.23 1799.29,1017.22 1801.45,1017.22 1803.61,1017.22 1805.78,1017.22 1807.94,1017.22 1810.1,1017.21 1812.26,1017.21 1814.42,1017.21 1816.59,1017.21 1818.75,1017.21 1820.91,1017.2 1823.07,1017.2 1825.23,1017.2 1827.4,1017.2 1829.56,1017.2 1831.72,1017.19 1833.88,1017.19 1836.04,1017.19 1838.21,1017.19 1840.37,1017.19 1842.53,1017.18 1844.69,1017.18 1846.85,1017.18 1849.02,1017.18 1851.18,1017.18 1853.34,1017.18 1855.5,1017.17 1857.66,1017.17 1859.83,1017.17 1861.99,1017.17 1864.15,1017.17 1866.31,1017.17 1868.47,1017.16 1870.63,1017.16 1872.8,1017.16 1874.96,1017.16 1877.12,1017.16 1879.28,1017.16 1881.44,1017.16 1883.61,1017.15 1885.77,1017.15 1887.93,1017.15 1890.09,1017.15 1892.25,1017.15 1894.42,1017.15 1896.58,1017.15 1898.74,1017.14 1900.9,1017.14 1903.06,1017.14 1905.23,1017.14 1907.39,1017.14 1909.55,1017.14 1911.71,1017.14 1913.87,1017.14 1916.04,1017.13 1918.2,1017.13 1920.36,1017.13 1922.52,1017.13 1924.68,1017.13 1926.85,1017.13 1929.01,1017.13 1931.17,1017.13 1933.33,1017.12 1935.49,1017.12 1937.66,1017.12 1939.82,1017.12 1941.98,1017.12 1944.14,1017.12 1946.3,1017.12 1948.47,1017.12 1950.63,1017.12 1952.79,1017.11 1954.95,1017.11 1957.11,1017.11 1959.28,1017.11 1961.44,1017.11 1963.6,1017.11 1965.76,1017.11 1967.92,1017.11 1970.09,1017.11 1972.25,1017.11 1974.41,1017.1 1976.57,1017.1 1978.73,1017.1 1980.9,1017.1 1983.06,1017.1 1985.22,1017.1 1987.38,1017.1 1989.54,1017.1 1991.71,1017.1 1993.87,1017.1 1996.03,1017.1 1998.19,1017.1 2000.35,1017.09 2002.52,1017.09 2004.68,1017.09 2006.84,1017.09 2009,1017.09 2011.16,1017.09 2013.33,1017.09 2015.49,1017.09 2017.65,1017.09 2019.81,1017.09 2021.97,1017.09 2024.14,1017.09 2026.3,1017.08 2028.46,1017.08 2030.62,1017.08 2032.78,1017.08 2034.95,1017.08 2037.11,1017.08 2039.27,1017.08 2041.43,1017.08 2043.59,1017.08 2045.76,1017.08 2047.92,1017.08 2050.08,1017.08 2052.24,1017.08 2054.4,1017.08 2056.57,1017.07 2058.73,1017.07 2060.89,1017.07 2063.05,1017.07 2065.21,1017.07 2067.37,1017.07 2069.54,1017.07 2071.7,1017.07 2073.86,1017.07 2076.02,1017.07 2078.18,1017.07 2080.35,1017.07 2082.51,1017.07 2084.67,1017.07 2086.83,1017.07 2088.99,1017.07 2091.16,1017.06 2093.32,1017.06 2095.48,1017.06 2097.64,1017.06 2099.8,1017.06 2101.97,1017.06 2104.13,1017.06 2106.29,1017.06 2108.45,1017.06 2110.61,1017.06 2112.78,1017.06 2114.94,1017.06 2117.1,1017.06 2119.26,1017.06 2121.42,1017.06 2123.59,1017.06 2125.75,1017.06 2127.91,1017.06 2130.07,1017.06 2132.23,1017.05 2134.4,1017.05 2136.56,1017.05 2138.72,1017.05 2140.88,1017.05 2143.04,1017.05 2145.21,1017.05 2147.37,1017.05 2149.53,1017.05 2151.69,1017.05 2153.85,1017.05 2156.02,1017.05 2158.18,1017.05 2160.34,1017.05 2162.5,1017.05 2164.66,1017.05 2166.83,1017.05 2168.99,1017.05 2171.15,1017.05 2173.31,1017.05 2175.47,1017.05 2177.64,1017.05 2179.8,1017.05 2181.96,1017.04 2184.12,1017.04 2186.28,1017.04 2188.45,1017.04 2190.61,1017.04 2192.77,1017.04 2194.93,1017.04 2197.09,1017.04 2199.26,1017.04 2201.42,1017.04 2203.58,1017.04 2205.74,1017.04 2207.9,1017.04 2210.07,1017.04 2212.23,1017.04 2214.39,1017.04 2216.55,1017.04 2218.71,1017.04 2220.88,1017.04 2223.04,1017.04 2225.2,1017.04 2227.36,1017.04 2229.52,1017.04 2231.69,1017.04 2233.85,1017.04 2236.01,1017.04 2238.17,1017.04 2240.33,1017.04 2242.5,1017.04 2244.66,1017.04 2246.82,1017.04 2248.98,1017.04 2251.14,1017.03 2253.3,1017.03 2255.47,1017.03 2257.63,1017.03 2259.79,1017.03 2261.95,1017.03 2264.11,1017.03 2266.28,1017.03 2268.44,1017.03 2270.6,1017.03 2272.76,1017.03 2274.92,1017.03 2277.09,1017.03 2279.25,1017.03 2281.41,1017.03 2283.57,1017.03 2285.73,1017.03 2287.9,1017.03 2290.06,1017.03 2292.22,1017.03 2294.38,1017.03 2296.54,1017.03 2298.71,1017.03 2300.87,1017.03 2303.03,1017.03 2305.19,1017.03 2307.35,1017.03 2309.52,1017.03 2311.68,1017.03 2313.84,1017.03 2316,1017.03 2318.16,1017.03 2320.33,1017.03 2322.49,1017.03 2324.65,1017.03 2326.81,1017.03 2328.97,1017.03 2331.14,1017.03 2333.3,1017.03 2335.46,1017.03 2337.62,1017.03 2339.78,1017.03 2341.95,1017.03 2344.11,1017.03 2346.27,1017.03 2348.43,1017.03 2350.59,1017.03 2352.76,1017.03 "/>
<polyline clip-path="url(#clip662)" style="stroke:#e26f46; stroke-linecap:round; stroke-linejoin:round; stroke-width:4; stroke-opacity:1; fill:none" points="192.941,86.1857 195.103,92.7822 197.265,99.3291 199.427,105.827 201.589,112.275 203.751,118.676 205.912,125.028 208.074,131.332 210.236,137.589 212.398,143.799 214.56,149.962 216.722,156.08 218.884,162.151 221.046,168.177 223.208,174.158 225.37,180.094 227.532,185.985 229.694,191.833 231.856,197.637 234.018,203.397 236.18,209.115 238.342,214.79 240.504,220.422 242.666,226.013 244.828,231.562 246.99,237.069 249.152,242.536 251.314,247.962 253.476,253.348 255.638,258.693 257.8,263.999 259.962,269.266 262.124,274.493 264.286,279.682 266.448,284.832 268.61,289.944 270.772,295.018 272.934,300.055 275.096,305.054 277.258,310.016 279.42,314.942 281.582,319.831 283.744,324.685 285.906,329.502 288.068,334.284 290.23,339.03 292.392,343.742 294.554,348.419 296.716,353.061 298.878,357.669 301.039,362.244 303.201,366.785 305.363,371.292 307.525,375.766 309.687,380.208 311.849,384.616 314.011,388.993 316.173,393.337 318.335,397.65 320.497,401.931 322.659,406.181 324.821,410.399 326.983,414.587 329.145,418.744 331.307,422.871 333.469,426.968 335.631,431.035 337.793,435.072 339.955,439.079 342.117,443.058 344.279,447.007 346.441,450.928 348.603,454.82 350.765,458.684 352.927,462.52 355.089,466.328 357.251,470.108 359.413,473.861 361.575,477.587 363.737,481.285 365.899,484.957 368.061,488.602 370.223,492.221 372.385,495.813 374.547,499.38 376.709,502.92 378.871,506.436 381.033,509.925 383.195,513.39 385.357,516.829 387.519,520.244 389.681,523.634 391.843,527 394.005,530.341 396.166,533.658 398.328,536.952 400.49,540.221 402.652,543.468 404.814,546.69 406.976,549.89 409.138,553.067 411.3,556.221 413.462,559.352 415.624,562.461 417.786,565.548 419.948,568.612 422.11,571.655 424.272,574.676 426.434,577.675 428.596,580.653 430.758,583.609 432.92,586.544 435.082,589.459 437.244,592.352 439.406,595.225 441.568,598.078 443.73,600.91 445.892,603.722 448.054,606.513 450.216,609.285 452.378,612.038 454.54,614.77 456.702,617.483 458.864,620.177 461.026,622.852 463.188,625.508 465.35,628.145 467.512,630.763 469.674,633.363 471.836,635.944 473.998,638.507 476.16,641.052 478.322,643.579 480.484,646.088 482.646,648.579 484.808,651.052 486.97,653.508 489.132,655.947 491.293,658.369 493.455,660.773 495.617,663.161 497.779,665.531 499.941,667.885 502.103,670.223 504.265,672.544 506.427,674.848 508.589,677.137 510.751,679.409 512.913,681.665 515.075,683.906 517.237,686.131 519.399,688.34 521.561,690.534 523.723,692.712 525.885,694.875 528.047,697.023 530.209,699.156 532.371,701.274 534.533,703.377 536.695,705.465 538.857,707.539 541.019,709.598 543.181,711.643 545.343,713.674 547.505,715.69 549.667,717.693 551.829,719.681 553.991,721.656 556.153,723.616 558.315,725.563 560.477,727.497 562.639,729.417 564.801,731.324 566.963,733.217 569.125,735.098 571.287,736.965 573.449,738.819 575.611,740.661 577.773,742.489 579.935,744.305 582.097,746.109 584.259,747.899 586.42,749.678 588.582,751.444 590.744,753.198 592.906,754.94 595.068,756.67 597.23,758.387 599.392,760.093 601.554,761.788 603.716,763.47 605.878,765.141 608.04,766.8 610.202,768.448 612.364,770.085 614.526,771.71 616.688,773.324 618.85,774.927 621.012,776.519 623.174,778.1 625.336,779.67 627.498,781.23 629.66,782.778 631.822,784.316 633.984,785.844 636.146,787.361 638.308,788.868 640.47,790.364 642.632,791.85 644.794,793.326 646.956,794.791 649.118,796.247 651.28,797.693 653.442,799.129 655.604,800.555 657.766,801.971 659.928,803.377 662.09,804.774 664.252,806.162 666.414,807.54 668.576,808.908 670.738,810.267 672.9,811.617 675.062,812.958 677.224,814.29 679.386,815.612 681.547,816.926 683.709,818.23 685.871,819.526 688.033,820.813 690.195,822.091 692.357,823.36 694.519,824.621 696.681,825.873 698.843,827.117 701.005,828.352 703.167,829.579 705.329,830.798 707.491,832.008 709.653,833.21 711.815,834.404 713.977,835.59 716.139,836.768 718.301,837.938 720.463,839.1 722.625,840.254 724.787,841.401 726.949,842.539 729.111,843.67 731.273,844.794 733.435,845.909 735.597,847.018 737.759,848.118 739.921,849.212 742.083,850.298 744.245,851.377 746.407,852.448 748.569,853.512 750.731,854.569 752.893,855.62 755.055,856.662 757.217,857.698 759.379,858.728 761.541,859.75 763.703,860.765 765.865,861.773 768.027,862.775 770.189,863.77 772.351,864.758 774.513,865.74 776.674,866.715 778.836,867.684 780.998,868.646 783.16,869.601 785.322,870.551 787.484,871.494 789.646,872.43 791.808,873.361 793.97,874.285 796.132,875.203 798.294,876.114 800.456,877.02 802.618,877.92 804.78,878.813 806.942,879.701 809.104,880.583 811.266,881.459 813.428,882.329 815.59,883.193 817.752,884.052 819.914,884.904 822.076,885.751 824.238,886.593 826.4,887.429 828.562,888.259 830.724,889.084 832.886,889.903 835.048,890.717 837.21,891.526 839.372,892.329 841.534,893.127 843.696,893.919 845.858,894.706 848.02,895.488 850.182,896.265 852.344,897.037 854.506,897.804 856.668,898.565 858.83,899.322 860.992,900.073 863.154,900.82 865.316,901.561 867.478,902.298 869.64,903.03 871.801,903.757 873.963,904.479 876.125,905.197 878.287,905.909 880.449,906.618 882.611,907.321 884.773,908.02 886.935,908.714 889.097,909.404 891.259,910.089 893.421,910.769 895.583,911.445 897.745,912.117 899.907,912.784 902.069,913.447 904.231,914.106 906.393,914.76 908.555,915.41 910.717,916.056 912.879,916.697 915.041,917.334 917.203,917.967 919.365,918.596 921.527,919.221 923.689,919.842 925.851,920.458 928.013,921.071 930.175,921.679 932.337,922.284 934.499,922.885 936.661,923.481 938.823,924.074 940.985,924.663 943.147,925.248 945.309,925.829 947.471,926.407 949.633,926.98 951.795,927.55 953.957,928.116 956.119,928.679 958.281,929.238 960.443,929.793 962.605,930.344 964.767,930.892 966.928,931.436 969.09,931.977 971.252,932.514 973.414,933.048 975.576,933.579 977.738,934.105 979.9,934.629 982.062,935.149 984.224,935.665 986.386,936.179 988.548,936.689 990.71,937.195 992.872,937.698 995.034,938.198 997.196,938.695 999.358,939.189 1001.52,939.679 1003.68,940.166 1005.84,940.65 1008.01,941.131 1010.17,941.609 1012.33,942.084 1014.49,942.555 1016.65,943.024 1018.82,943.489 1020.98,943.952 1023.14,944.411 1025.3,944.868 1027.46,945.322 1029.63,945.772 1031.79,946.22 1033.95,946.665 1036.11,947.107 1038.27,947.546 1040.44,947.982 1042.6,948.416 1044.76,948.847 1046.92,949.275 1049.08,949.7 1051.25,950.122 1053.41,950.542 1055.57,950.959 1057.73,951.374 1059.89,951.785 1062.06,952.195 1064.22,952.601 1066.38,953.005 1068.54,953.406 1070.7,953.805 1072.87,954.201 1075.03,954.595 1077.19,954.986 1079.35,955.374 1081.51,955.76 1083.68,956.144 1085.84,956.525 1088,956.904 1090.16,957.28 1092.32,957.654 1094.49,958.025 1096.65,958.394 1098.81,958.761 1100.97,959.125 1103.13,959.487 1105.3,959.847 1107.46,960.204 1109.62,960.559 1111.78,960.912 1113.94,961.262 1116.1,961.611 1118.27,961.957 1120.43,962.3 1122.59,962.642 1124.75,962.981 1126.91,963.319 1129.08,963.654 1131.24,963.987 1133.4,964.317 1135.56,964.646 1137.72,964.973 1139.89,965.297 1142.05,965.619 1144.21,965.94 1146.37,966.258 1148.53,966.574 1150.7,966.888 1152.86,967.201 1155.02,967.511 1157.18,967.819 1159.34,968.125 1161.51,968.43 1163.67,968.732 1165.83,969.032 1167.99,969.331 1170.15,969.628 1172.32,969.922 1174.48,970.215 1176.64,970.506 1178.8,970.795 1180.96,971.083 1183.13,971.368 1185.29,971.652 1187.45,971.933 1189.61,972.214 1191.77,972.492 1193.94,972.768 1196.1,973.043 1198.26,973.316 1200.42,973.587 1202.58,973.857 1204.75,974.125 1206.91,974.391 1209.07,974.655 1211.23,974.918 1213.39,975.179 1215.56,975.439 1217.72,975.697 1219.88,975.953 1222.04,976.207 1224.2,976.46 1226.37,976.712 1228.53,976.961 1230.69,977.21 1232.85,977.456 1235.01,977.701 1237.18,977.945 1239.34,978.187 1241.5,978.427 1243.66,978.666 1245.82,978.904 1247.99,979.14 1250.15,979.374 1252.31,979.607 1254.47,979.839 1256.63,980.069 1258.8,980.298 1260.96,980.525 1263.12,980.751 1265.28,980.975 1267.44,981.198 1269.61,981.42 1271.77,981.64 1273.93,981.859 1276.09,982.076 1278.25,982.292 1280.42,982.507 1282.58,982.72 1284.74,982.932 1286.9,983.143 1289.06,983.352 1291.23,983.56 1293.39,983.767 1295.55,983.973 1297.71,984.177 1299.87,984.379 1302.03,984.581 1304.2,984.781 1306.36,984.98 1308.52,985.178 1310.68,985.375 1312.84,985.57 1315.01,985.764 1317.17,985.957 1319.33,986.148 1321.49,986.339 1323.65,986.528 1325.82,986.716 1327.98,986.903 1330.14,987.088 1332.3,987.273 1334.46,987.456 1336.63,987.638 1338.79,987.819 1340.95,987.999 1343.11,988.178 1345.27,988.356 1347.44,988.532 1349.6,988.708 1351.76,988.882 1353.92,989.055 1356.08,989.227 1358.25,989.398 1360.41,989.568 1362.57,989.737 1364.73,989.905 1366.89,990.072 1369.06,990.237 1371.22,990.402 1373.38,990.566 1375.54,990.728 1377.7,990.89 1379.87,991.05 1382.03,991.21 1384.19,991.368 1386.35,991.526 1388.51,991.683 1390.68,991.838 1392.84,991.993 1395,992.147 1397.16,992.299 1399.32,992.451 1401.49,992.602 1403.65,992.752 1405.81,992.901 1407.97,993.049 1410.13,993.196 1412.3,993.342 1414.46,993.487 1416.62,993.631 1418.78,993.775 1420.94,993.917 1423.11,994.059 1425.27,994.2 1427.43,994.34 1429.59,994.479 1431.75,994.617 1433.92,994.754 1436.08,994.891 1438.24,995.026 1440.4,995.161 1442.56,995.295 1444.73,995.428 1446.89,995.56 1449.05,995.692 1451.21,995.823 1453.37,995.952 1455.54,996.081 1457.7,996.21 1459.86,996.337 1462.02,996.464 1464.18,996.59 1466.35,996.715 1468.51,996.839 1470.67,996.963 1472.83,997.085 1474.99,997.208 1477.16,997.329 1479.32,997.449 1481.48,997.569 1483.64,997.688 1485.8,997.807 1487.97,997.924 1490.13,998.041 1492.29,998.157 1494.45,998.273 1496.61,998.388 1498.77,998.502 1500.94,998.615 1503.1,998.727 1505.26,998.839 1507.42,998.951 1509.58,999.061 1511.75,999.171 1513.91,999.28 1516.07,999.389 1518.23,999.497 1520.39,999.604 1522.56,999.71 1524.72,999.816 1526.88,999.921 1529.04,1000.03 1531.2,1000.13 1533.37,1000.23 1535.53,1000.34 1537.69,1000.44 1539.85,1000.54 1542.01,1000.64 1544.18,1000.74 1546.34,1000.84 1548.5,1000.94 1550.66,1001.04 1552.82,1001.13 1554.99,1001.23 1557.15,1001.33 1559.31,1001.42 1561.47,1001.52 1563.63,1001.61 1565.8,1001.71 1567.96,1001.8 1570.12,1001.89 1572.28,1001.99 1574.44,1002.08 1576.61,1002.17 1578.77,1002.26 1580.93,1002.35 1583.09,1002.44 1585.25,1002.53 1587.42,1002.62 1589.58,1002.7 1591.74,1002.79 1593.9,1002.88 1596.06,1002.96 1598.23,1003.05 1600.39,1003.13 1602.55,1003.22 1604.71,1003.3 1606.87,1003.39 1609.04,1003.47 1611.2,1003.55 1613.36,1003.63 1615.52,1003.72 1617.68,1003.8 1619.85,1003.88 1622.01,1003.96 1624.17,1004.04 1626.33,1004.11 1628.49,1004.19 1630.66,1004.27 1632.82,1004.35 1634.98,1004.43 1637.14,1004.5 1639.3,1004.58 1641.47,1004.65 1643.63,1004.73 1645.79,1004.8 1647.95,1004.88 1650.11,1004.95 1652.28,1005.03 1654.44,1005.1 1656.6,1005.17 1658.76,1005.24 1660.92,1005.31 1663.09,1005.39 1665.25,1005.46 1667.41,1005.53 1669.57,1005.6 1671.73,1005.67 1673.9,1005.73 1676.06,1005.8 1678.22,1005.87 1680.38,1005.94 1682.54,1006.01 1684.7,1006.07 1686.87,1006.14 1689.03,1006.21 1691.19,1006.27 1693.35,1006.34 1695.51,1006.4 1697.68,1006.47 1699.84,1006.53 1702,1006.59 1704.16,1006.66 1706.32,1006.72 1708.49,1006.78 1710.65,1006.84 1712.81,1006.91 1714.97,1006.97 1717.13,1007.03 1719.3,1007.09 1721.46,1007.15 1723.62,1007.21 1725.78,1007.27 1727.94,1007.33 1730.11,1007.39 1732.27,1007.44 1734.43,1007.5 1736.59,1007.56 1738.75,1007.62 1740.92,1007.67 1743.08,1007.73 1745.24,1007.79 1747.4,1007.84 1749.56,1007.9 1751.73,1007.95 1753.89,1008.01 1756.05,1008.06 1758.21,1008.12 1760.37,1008.17 1762.54,1008.23 1764.7,1008.28 1766.86,1008.33 1769.02,1008.39 1771.18,1008.44 1773.35,1008.49 1775.51,1008.54 1777.67,1008.59 1779.83,1008.64 1781.99,1008.7 1784.16,1008.75 1786.32,1008.8 1788.48,1008.85 1790.64,1008.9 1792.8,1008.94 1794.97,1008.99 1797.13,1009.04 1799.29,1009.09 1801.45,1009.14 1803.61,1009.19 1805.78,1009.23 1807.94,1009.28 1810.1,1009.33 1812.26,1009.37 1814.42,1009.42 1816.59,1009.47 1818.75,1009.51 1820.91,1009.56 1823.07,1009.6 1825.23,1009.65 1827.4,1009.69 1829.56,1009.74 1831.72,1009.78 1833.88,1009.83 1836.04,1009.87 1838.21,1009.91 1840.37,1009.96 1842.53,1010 1844.69,1010.04 1846.85,1010.08 1849.02,1010.13 1851.18,1010.17 1853.34,1010.21 1855.5,1010.25 1857.66,1010.29 1859.83,1010.33 1861.99,1010.37 1864.15,1010.41 1866.31,1010.45 1868.47,1010.49 1870.63,1010.53 1872.8,1010.57 1874.96,1010.61 1877.12,1010.65 1879.28,1010.69 1881.44,1010.72 1883.61,1010.76 1885.77,1010.8 1887.93,1010.84 1890.09,1010.88 1892.25,1010.91 1894.42,1010.95 1896.58,1010.99 1898.74,1011.02 1900.9,1011.06 1903.06,1011.09 1905.23,1011.13 1907.39,1011.17 1909.55,1011.2 1911.71,1011.24 1913.87,1011.27 1916.04,1011.31 1918.2,1011.34 1920.36,1011.37 1922.52,1011.41 1924.68,1011.44 1926.85,1011.48 1929.01,1011.51 1931.17,1011.54 1933.33,1011.58 1935.49,1011.61 1937.66,1011.64 1939.82,1011.67 1941.98,1011.71 1944.14,1011.74 1946.3,1011.77 1948.47,1011.8 1950.63,1011.83 1952.79,1011.86 1954.95,1011.89 1957.11,1011.93 1959.28,1011.96 1961.44,1011.99 1963.6,1012.02 1965.76,1012.05 1967.92,1012.08 1970.09,1012.11 1972.25,1012.14 1974.41,1012.17 1976.57,1012.19 1978.73,1012.22 1980.9,1012.25 1983.06,1012.28 1985.22,1012.31 1987.38,1012.34 1989.54,1012.37 1991.71,1012.39 1993.87,1012.42 1996.03,1012.45 1998.19,1012.48 2000.35,1012.5 2002.52,1012.53 2004.68,1012.56 2006.84,1012.59 2009,1012.61 2011.16,1012.64 2013.33,1012.67 2015.49,1012.69 2017.65,1012.72 2019.81,1012.74 2021.97,1012.77 2024.14,1012.79 2026.3,1012.82 2028.46,1012.85 2030.62,1012.87 2032.78,1012.9 2034.95,1012.92 2037.11,1012.94 2039.27,1012.97 2041.43,1012.99 2043.59,1013.02 2045.76,1013.04 2047.92,1013.07 2050.08,1013.09 2052.24,1013.11 2054.4,1013.14 2056.57,1013.16 2058.73,1013.18 2060.89,1013.21 2063.05,1013.23 2065.21,1013.25 2067.37,1013.28 2069.54,1013.3 2071.7,1013.32 2073.86,1013.34 2076.02,1013.36 2078.18,1013.39 2080.35,1013.41 2082.51,1013.43 2084.67,1013.45 2086.83,1013.47 2088.99,1013.5 2091.16,1013.52 2093.32,1013.54 2095.48,1013.56 2097.64,1013.58 2099.8,1013.6 2101.97,1013.62 2104.13,1013.64 2106.29,1013.66 2108.45,1013.68 2110.61,1013.7 2112.78,1013.72 2114.94,1013.74 2117.1,1013.76 2119.26,1013.78 2121.42,1013.8 2123.59,1013.82 2125.75,1013.84 2127.91,1013.86 2130.07,1013.88 2132.23,1013.9 2134.4,1013.91 2136.56,1013.93 2138.72,1013.95 2140.88,1013.97 2143.04,1013.99 2145.21,1014.01 2147.37,1014.03 2149.53,1014.04 2151.69,1014.06 2153.85,1014.08 2156.02,1014.1 2158.18,1014.11 2160.34,1014.13 2162.5,1014.15 2164.66,1014.17 2166.83,1014.18 2168.99,1014.2 2171.15,1014.22 2173.31,1014.23 2175.47,1014.25 2177.64,1014.27 2179.8,1014.28 2181.96,1014.3 2184.12,1014.32 2186.28,1014.33 2188.45,1014.35 2190.61,1014.37 2192.77,1014.38 2194.93,1014.4 2197.09,1014.41 2199.26,1014.43 2201.42,1014.44 2203.58,1014.46 2205.74,1014.47 2207.9,1014.49 2210.07,1014.51 2212.23,1014.52 2214.39,1014.54 2216.55,1014.55 2218.71,1014.56 2220.88,1014.58 2223.04,1014.59 2225.2,1014.61 2227.36,1014.62 2229.52,1014.64 2231.69,1014.65 2233.85,1014.67 2236.01,1014.68 2238.17,1014.69 2240.33,1014.71 2242.5,1014.72 2244.66,1014.74 2246.82,1014.75 2248.98,1014.76 2251.14,1014.78 2253.3,1014.79 2255.47,1014.8 2257.63,1014.82 2259.79,1014.83 2261.95,1014.84 2264.11,1014.86 2266.28,1014.87 2268.44,1014.88 2270.6,1014.89 2272.76,1014.91 2274.92,1014.92 2277.09,1014.93 2279.25,1014.94 2281.41,1014.96 2283.57,1014.97 2285.73,1014.98 2287.9,1014.99 2290.06,1015.01 2292.22,1015.02 2294.38,1015.03 2296.54,1015.04 2298.71,1015.05 2300.87,1015.06 2303.03,1015.08 2305.19,1015.09 2307.35,1015.1 2309.52,1015.11 2311.68,1015.12 2313.84,1015.13 2316,1015.14 2318.16,1015.16 2320.33,1015.17 2322.49,1015.18 2324.65,1015.19 2326.81,1015.2 2328.97,1015.21 2331.14,1015.22 2333.3,1015.23 2335.46,1015.24 2337.62,1015.25 2339.78,1015.26 2341.95,1015.27 2344.11,1015.29 2346.27,1015.3 2348.43,1015.31 2350.59,1015.32 2352.76,1015.33 "/>
<path clip-path="url(#clip660)" d="M1805.38 248.629 L2280.76 248.629 L2280.76 93.1086 L1805.38 93.1086  Z" fill="#ffffff" fill-rule="evenodd" fill-opacity="1"/>
<polyline clip-path="url(#clip660)" style="stroke:#000000; stroke-linecap:round; stroke-linejoin:round; stroke-width:4; stroke-opacity:1; fill:none" points="1805.38,248.629 2280.76,248.629 2280.76,93.1086 1805.38,93.1086 1805.38,248.629 "/>
<polyline clip-path="url(#clip660)" style="stroke:#009af9; stroke-linecap:round; stroke-linejoin:round; stroke-width:4; stroke-opacity:1; fill:none" points="1829.38,144.949 1973.37,144.949 "/>
<path clip-path="url(#clip660)" d="M1997.37 136.303 L2001.88 136.303 L2009.98 158.062 L2018.08 136.303 L2022.6 136.303 L2012.88 162.229 L2007.09 162.229 L1997.37 136.303 Z" fill="#000000" fill-rule="nonzero" fill-opacity="1" /><path clip-path="url(#clip660)" d="M2029.89 158.293 L2037.53 158.293 L2037.53 131.928 L2029.22 133.595 L2029.22 129.335 L2037.48 127.669 L2042.16 127.669 L2042.16 158.293 L2049.8 158.293 L2049.8 162.229 L2029.89 162.229 L2029.89 158.293 Z" fill="#000000" fill-rule="nonzero" fill-opacity="1" /><path clip-path="url(#clip660)" d="M2067.9 145.585 L2067.9 152.807 L2076.02 152.807 L2076.02 155.006 L2067.9 155.006 L2067.9 162.229 L2065.47 162.229 L2065.47 155.006 L2057.34 155.006 L2057.34 152.807 L2065.47 152.807 L2065.47 145.585 L2067.9 145.585 Z" fill="#000000" fill-rule="nonzero" fill-opacity="1" /><path clip-path="url(#clip660)" d="M2100.19 137.067 L2100.19 141.094 Q2098.39 140.169 2096.44 139.706 Q2094.5 139.243 2092.41 139.243 Q2089.24 139.243 2087.64 140.215 Q2086.07 141.187 2086.07 143.131 Q2086.07 144.613 2087.2 145.469 Q2088.34 146.303 2091.76 147.067 L2093.22 147.391 Q2097.76 148.363 2099.66 150.145 Q2101.58 151.905 2101.58 155.076 Q2101.58 158.687 2098.71 160.793 Q2095.86 162.9 2090.86 162.9 Q2088.78 162.9 2086.51 162.483 Q2084.27 162.09 2081.77 161.28 L2081.77 156.881 Q2084.13 158.108 2086.42 158.733 Q2088.71 159.335 2090.95 159.335 Q2093.96 159.335 2095.58 158.317 Q2097.2 157.275 2097.2 155.4 Q2097.2 153.664 2096.02 152.738 Q2094.87 151.812 2090.91 150.956 L2089.43 150.608 Q2085.47 149.775 2083.71 148.062 Q2081.95 146.326 2081.95 143.317 Q2081.95 139.659 2084.54 137.669 Q2087.14 135.678 2091.9 135.678 Q2094.26 135.678 2096.35 136.025 Q2098.43 136.372 2100.19 137.067 Z" fill="#000000" fill-rule="nonzero" fill-opacity="1" /><path clip-path="url(#clip660)" d="M2112.58 128.942 L2112.58 136.303 L2121.35 136.303 L2121.35 139.613 L2112.58 139.613 L2112.58 153.687 Q2112.58 156.858 2113.43 157.761 Q2114.31 158.664 2116.97 158.664 L2121.35 158.664 L2121.35 162.229 L2116.97 162.229 Q2112.04 162.229 2110.17 160.4 Q2108.29 158.548 2108.29 153.687 L2108.29 139.613 L2105.17 139.613 L2105.17 136.303 L2108.29 136.303 L2108.29 128.942 L2112.58 128.942 Z" fill="#000000" fill-rule="nonzero" fill-opacity="1" /><path clip-path="url(#clip660)" d="M2137 139.289 Q2133.57 139.289 2131.58 141.974 Q2129.59 144.636 2129.59 149.289 Q2129.59 153.942 2131.56 156.627 Q2133.55 159.289 2137 159.289 Q2140.4 159.289 2142.39 156.604 Q2144.38 153.918 2144.38 149.289 Q2144.38 144.682 2142.39 141.997 Q2140.4 139.289 2137 139.289 M2137 135.678 Q2142.55 135.678 2145.72 139.289 Q2148.89 142.9 2148.89 149.289 Q2148.89 155.655 2145.72 159.289 Q2142.55 162.9 2137 162.9 Q2131.42 162.9 2128.25 159.289 Q2125.1 155.655 2125.1 149.289 Q2125.1 142.9 2128.25 139.289 Q2131.42 135.678 2137 135.678 Z" fill="#000000" fill-rule="nonzero" fill-opacity="1" /><path clip-path="url(#clip660)" d="M2170.98 140.284 Q2170.26 139.868 2169.4 139.682 Q2168.57 139.474 2167.55 139.474 Q2163.94 139.474 2162 141.835 Q2160.07 144.173 2160.07 148.571 L2160.07 162.229 L2155.79 162.229 L2155.79 136.303 L2160.07 136.303 L2160.07 140.331 Q2161.42 137.969 2163.57 136.835 Q2165.72 135.678 2168.8 135.678 Q2169.24 135.678 2169.77 135.747 Q2170.31 135.794 2170.95 135.909 L2170.98 140.284 Z" fill="#000000" fill-rule="nonzero" fill-opacity="1" /><path clip-path="url(#clip660)" d="M2187.23 149.196 Q2182.07 149.196 2180.07 150.377 Q2178.08 151.557 2178.08 154.405 Q2178.08 156.673 2179.57 158.016 Q2181.07 159.335 2183.64 159.335 Q2187.18 159.335 2189.31 156.835 Q2191.46 154.312 2191.46 150.145 L2191.46 149.196 L2187.23 149.196 M2195.72 147.437 L2195.72 162.229 L2191.46 162.229 L2191.46 158.293 Q2190.01 160.655 2187.83 161.789 Q2185.65 162.9 2182.51 162.9 Q2178.52 162.9 2176.16 160.678 Q2173.82 158.432 2173.82 154.682 Q2173.82 150.307 2176.74 148.085 Q2179.68 145.863 2185.49 145.863 L2191.46 145.863 L2191.46 145.446 Q2191.46 142.507 2189.52 140.909 Q2187.6 139.289 2184.1 139.289 Q2181.88 139.289 2179.77 139.821 Q2177.67 140.354 2175.72 141.419 L2175.72 137.483 Q2178.06 136.581 2180.26 136.141 Q2182.46 135.678 2184.54 135.678 Q2190.17 135.678 2192.95 138.594 Q2195.72 141.511 2195.72 147.437 Z" fill="#000000" fill-rule="nonzero" fill-opacity="1" /><path clip-path="url(#clip660)" d="M2221.56 148.965 Q2221.56 144.335 2219.63 141.789 Q2217.74 139.243 2214.29 139.243 Q2210.86 139.243 2208.94 141.789 Q2207.04 144.335 2207.04 148.965 Q2207.04 153.571 2208.94 156.118 Q2210.86 158.664 2214.29 158.664 Q2217.74 158.664 2219.63 156.118 Q2221.56 153.571 2221.56 148.965 M2225.82 159.011 Q2225.82 165.631 2222.88 168.849 Q2219.94 172.09 2213.87 172.09 Q2211.63 172.09 2209.63 171.742 Q2207.64 171.418 2205.77 170.724 L2205.77 166.58 Q2207.64 167.599 2209.47 168.085 Q2211.3 168.571 2213.2 168.571 Q2217.39 168.571 2219.47 166.372 Q2221.56 164.196 2221.56 159.775 L2221.56 157.668 Q2220.24 159.96 2218.18 161.094 Q2216.12 162.229 2213.25 162.229 Q2208.48 162.229 2205.56 158.594 Q2202.64 154.96 2202.64 148.965 Q2202.64 142.946 2205.56 139.312 Q2208.48 135.678 2213.25 135.678 Q2216.12 135.678 2218.18 136.812 Q2220.24 137.946 2221.56 140.238 L2221.56 136.303 L2225.82 136.303 L2225.82 159.011 Z" fill="#000000" fill-rule="nonzero" fill-opacity="1" /><path clip-path="url(#clip660)" d="M2256.76 148.201 L2256.76 150.284 L2237.18 150.284 Q2237.46 154.682 2239.82 156.997 Q2242.2 159.289 2246.44 159.289 Q2248.89 159.289 2251.19 158.687 Q2253.5 158.085 2255.77 156.881 L2255.77 160.909 Q2253.48 161.881 2251.07 162.391 Q2248.66 162.9 2246.19 162.9 Q2239.98 162.9 2236.35 159.289 Q2232.74 155.678 2232.74 149.52 Q2232.74 143.155 2236.16 139.428 Q2239.61 135.678 2245.44 135.678 Q2250.68 135.678 2253.71 139.057 Q2256.76 142.414 2256.76 148.201 M2252.5 146.951 Q2252.46 143.456 2250.54 141.372 Q2248.64 139.289 2245.49 139.289 Q2241.93 139.289 2239.77 141.303 Q2237.64 143.317 2237.32 146.974 L2252.5 146.951 Z" fill="#000000" fill-rule="nonzero" fill-opacity="1" /><polyline clip-path="url(#clip660)" style="stroke:#e26f46; stroke-linecap:round; stroke-linejoin:round; stroke-width:4; stroke-opacity:1; fill:none" points="1829.38,196.789 1973.37,196.789 "/>
<path clip-path="url(#clip660)" d="M1997.37 188.143 L2001.88 188.143 L2009.98 209.902 L2018.08 188.143 L2022.6 188.143 L2012.88 214.069 L2007.09 214.069 L1997.37 188.143 Z" fill="#000000" fill-rule="nonzero" fill-opacity="1" /><path clip-path="url(#clip660)" d="M2029.13 179.509 L2047.48 179.509 L2047.48 183.444 L2033.41 183.444 L2033.41 191.916 Q2034.43 191.569 2035.45 191.407 Q2036.46 191.222 2037.48 191.222 Q2043.27 191.222 2046.65 194.393 Q2050.03 197.564 2050.03 202.981 Q2050.03 208.559 2046.56 211.661 Q2043.08 214.74 2036.77 214.74 Q2034.59 214.74 2032.32 214.37 Q2030.08 213.999 2027.67 213.258 L2027.67 208.559 Q2029.75 209.694 2031.97 210.249 Q2034.2 210.805 2036.67 210.805 Q2040.68 210.805 2043.02 208.698 Q2045.35 206.592 2045.35 202.981 Q2045.35 199.37 2043.02 197.263 Q2040.68 195.157 2036.67 195.157 Q2034.8 195.157 2032.92 195.573 Q2031.07 195.99 2029.13 196.87 L2029.13 179.509 Z" fill="#000000" fill-rule="nonzero" fill-opacity="1" /><path clip-path="url(#clip660)" d="M2067.9 197.425 L2067.9 204.647 L2076.02 204.647 L2076.02 206.846 L2067.9 206.846 L2067.9 214.069 L2065.47 214.069 L2065.47 206.846 L2057.34 206.846 L2057.34 204.647 L2065.47 204.647 L2065.47 197.425 L2067.9 197.425 Z" fill="#000000" fill-rule="nonzero" fill-opacity="1" /><path clip-path="url(#clip660)" d="M2100.19 188.907 L2100.19 192.934 Q2098.39 192.009 2096.44 191.546 Q2094.5 191.083 2092.41 191.083 Q2089.24 191.083 2087.64 192.055 Q2086.07 193.027 2086.07 194.971 Q2086.07 196.453 2087.2 197.309 Q2088.34 198.143 2091.76 198.907 L2093.22 199.231 Q2097.76 200.203 2099.66 201.985 Q2101.58 203.745 2101.58 206.916 Q2101.58 210.527 2098.71 212.633 Q2095.86 214.74 2090.86 214.74 Q2088.78 214.74 2086.51 214.323 Q2084.27 213.93 2081.77 213.12 L2081.77 208.721 Q2084.13 209.948 2086.42 210.573 Q2088.71 211.175 2090.95 211.175 Q2093.96 211.175 2095.58 210.157 Q2097.2 209.115 2097.2 207.24 Q2097.2 205.504 2096.02 204.578 Q2094.87 203.652 2090.91 202.796 L2089.43 202.448 Q2085.47 201.615 2083.71 199.902 Q2081.95 198.166 2081.95 195.157 Q2081.95 191.499 2084.54 189.509 Q2087.14 187.518 2091.9 187.518 Q2094.26 187.518 2096.35 187.865 Q2098.43 188.212 2100.19 188.907 Z" fill="#000000" fill-rule="nonzero" fill-opacity="1" /><path clip-path="url(#clip660)" d="M2112.58 180.782 L2112.58 188.143 L2121.35 188.143 L2121.35 191.453 L2112.58 191.453 L2112.58 205.527 Q2112.58 208.698 2113.43 209.601 Q2114.31 210.504 2116.97 210.504 L2121.35 210.504 L2121.35 214.069 L2116.97 214.069 Q2112.04 214.069 2110.17 212.24 Q2108.29 210.388 2108.29 205.527 L2108.29 191.453 L2105.17 191.453 L2105.17 188.143 L2108.29 188.143 L2108.29 180.782 L2112.58 180.782 Z" fill="#000000" fill-rule="nonzero" fill-opacity="1" /><path clip-path="url(#clip660)" d="M2137 191.129 Q2133.57 191.129 2131.58 193.814 Q2129.59 196.476 2129.59 201.129 Q2129.59 205.782 2131.56 208.467 Q2133.55 211.129 2137 211.129 Q2140.4 211.129 2142.39 208.444 Q2144.38 205.758 2144.38 201.129 Q2144.38 196.522 2142.39 193.837 Q2140.4 191.129 2137 191.129 M2137 187.518 Q2142.55 187.518 2145.72 191.129 Q2148.89 194.74 2148.89 201.129 Q2148.89 207.495 2145.72 211.129 Q2142.55 214.74 2137 214.74 Q2131.42 214.74 2128.25 211.129 Q2125.1 207.495 2125.1 201.129 Q2125.1 194.74 2128.25 191.129 Q2131.42 187.518 2137 187.518 Z" fill="#000000" fill-rule="nonzero" fill-opacity="1" /><path clip-path="url(#clip660)" d="M2170.98 192.124 Q2170.26 191.708 2169.4 191.522 Q2168.57 191.314 2167.55 191.314 Q2163.94 191.314 2162 193.675 Q2160.07 196.013 2160.07 200.411 L2160.07 214.069 L2155.79 214.069 L2155.79 188.143 L2160.07 188.143 L2160.07 192.171 Q2161.42 189.809 2163.57 188.675 Q2165.72 187.518 2168.8 187.518 Q2169.24 187.518 2169.77 187.587 Q2170.31 187.634 2170.95 187.749 L2170.98 192.124 Z" fill="#000000" fill-rule="nonzero" fill-opacity="1" /><path clip-path="url(#clip660)" d="M2187.23 201.036 Q2182.07 201.036 2180.07 202.217 Q2178.08 203.397 2178.08 206.245 Q2178.08 208.513 2179.57 209.856 Q2181.07 211.175 2183.64 211.175 Q2187.18 211.175 2189.31 208.675 Q2191.46 206.152 2191.46 201.985 L2191.46 201.036 L2187.23 201.036 M2195.72 199.277 L2195.72 214.069 L2191.46 214.069 L2191.46 210.133 Q2190.01 212.495 2187.83 213.629 Q2185.65 214.74 2182.51 214.74 Q2178.52 214.74 2176.16 212.518 Q2173.82 210.272 2173.82 206.522 Q2173.82 202.147 2176.74 199.925 Q2179.68 197.703 2185.49 197.703 L2191.46 197.703 L2191.46 197.286 Q2191.46 194.347 2189.52 192.749 Q2187.6 191.129 2184.1 191.129 Q2181.88 191.129 2179.77 191.661 Q2177.67 192.194 2175.72 193.259 L2175.72 189.323 Q2178.06 188.421 2180.26 187.981 Q2182.46 187.518 2184.54 187.518 Q2190.17 187.518 2192.95 190.434 Q2195.72 193.351 2195.72 199.277 Z" fill="#000000" fill-rule="nonzero" fill-opacity="1" /><path clip-path="url(#clip660)" d="M2221.56 200.805 Q2221.56 196.175 2219.63 193.629 Q2217.74 191.083 2214.29 191.083 Q2210.86 191.083 2208.94 193.629 Q2207.04 196.175 2207.04 200.805 Q2207.04 205.411 2208.94 207.958 Q2210.86 210.504 2214.29 210.504 Q2217.74 210.504 2219.63 207.958 Q2221.56 205.411 2221.56 200.805 M2225.82 210.851 Q2225.82 217.471 2222.88 220.689 Q2219.94 223.93 2213.87 223.93 Q2211.63 223.93 2209.63 223.582 Q2207.64 223.258 2205.77 222.564 L2205.77 218.42 Q2207.64 219.439 2209.47 219.925 Q2211.3 220.411 2213.2 220.411 Q2217.39 220.411 2219.47 218.212 Q2221.56 216.036 2221.56 211.615 L2221.56 209.508 Q2220.24 211.8 2218.18 212.934 Q2216.12 214.069 2213.25 214.069 Q2208.48 214.069 2205.56 210.434 Q2202.64 206.8 2202.64 200.805 Q2202.64 194.786 2205.56 191.152 Q2208.48 187.518 2213.25 187.518 Q2216.12 187.518 2218.18 188.652 Q2220.24 189.786 2221.56 192.078 L2221.56 188.143 L2225.82 188.143 L2225.82 210.851 Z" fill="#000000" fill-rule="nonzero" fill-opacity="1" /><path clip-path="url(#clip660)" d="M2256.76 200.041 L2256.76 202.124 L2237.18 202.124 Q2237.46 206.522 2239.82 208.837 Q2242.2 211.129 2246.44 211.129 Q2248.89 211.129 2251.19 210.527 Q2253.5 209.925 2255.77 208.721 L2255.77 212.749 Q2253.48 213.721 2251.07 214.231 Q2248.66 214.74 2246.19 214.74 Q2239.98 214.74 2236.35 211.129 Q2232.74 207.518 2232.74 201.36 Q2232.74 194.995 2236.16 191.268 Q2239.61 187.518 2245.44 187.518 Q2250.68 187.518 2253.71 190.897 Q2256.76 194.254 2256.76 200.041 M2252.5 198.791 Q2252.46 195.296 2250.54 193.212 Q2248.64 191.129 2245.49 191.129 Q2241.93 191.129 2239.77 193.143 Q2237.64 195.157 2237.32 198.814 L2252.5 198.791 Z" fill="#000000" fill-rule="nonzero" fill-opacity="1" /></svg>
