<?xml version="1.0" encoding="utf-8"?>
<svg xmlns="http://www.w3.org/2000/svg" xmlns:xlink="http://www.w3.org/1999/xlink" width="600" height="400" viewBox="0 0 2400 1600">
<defs>
  <clipPath id="clip820">
    <rect x="0" y="0" width="2400" height="1600"/>
  </clipPath>
</defs>
<path clip-path="url(#clip820)" d="M0 1600 L2400 1600 L2400 0 L0 0  Z" fill="#ffffff" fill-rule="evenodd" fill-opacity="1"/>
<defs>
  <clipPath id="clip821">
    <rect x="480" y="0" width="1681" height="1600"/>
  </clipPath>
</defs>
<path clip-path="url(#clip820)" d="M194.422 1423.18 L2352.76 1423.18 L2352.76 47.2441 L194.422 47.2441  Z" fill="#ffffff" fill-rule="evenodd" fill-opacity="1"/>
<defs>
  <clipPath id="clip822">
    <rect x="194" y="47" width="2159" height="1377"/>
  </clipPath>
</defs>
<polyline clip-path="url(#clip822)" style="stroke:#000000; stroke-linecap:round; stroke-linejoin:round; stroke-width:2; stroke-opacity:0.1; fill:none" points="194.422,1423.18 194.422,47.2441 "/>
<polyline clip-path="url(#clip822)" style="stroke:#000000; stroke-linecap:round; stroke-linejoin:round; stroke-width:2; stroke-opacity:0.1; fill:none" points="734.006,1423.18 734.006,47.2441 "/>
<polyline clip-path="url(#clip822)" style="stroke:#000000; stroke-linecap:round; stroke-linejoin:round; stroke-width:2; stroke-opacity:0.1; fill:none" points="1273.59,1423.18 1273.59,47.2441 "/>
<polyline clip-path="url(#clip822)" style="stroke:#000000; stroke-linecap:round; stroke-linejoin:round; stroke-width:2; stroke-opacity:0.1; fill:none" points="1813.17,1423.18 1813.17,47.2441 "/>
<polyline clip-path="url(#clip822)" style="stroke:#000000; stroke-linecap:round; stroke-linejoin:round; stroke-width:2; stroke-opacity:0.1; fill:none" points="2352.76,1423.18 2352.76,47.2441 "/>
<polyline clip-path="url(#clip822)" style="stroke:#000000; stroke-linecap:round; stroke-linejoin:round; stroke-width:2; stroke-opacity:0.1; fill:none" points="194.422,1183.92 2352.76,1183.92 "/>
<polyline clip-path="url(#clip822)" style="stroke:#000000; stroke-linecap:round; stroke-linejoin:round; stroke-width:2; stroke-opacity:0.1; fill:none" points="194.422,933.008 2352.76,933.008 "/>
<polyline clip-path="url(#clip822)" style="stroke:#000000; stroke-linecap:round; stroke-linejoin:round; stroke-width:2; stroke-opacity:0.1; fill:none" points="194.422,682.097 2352.76,682.097 "/>
<polyline clip-path="url(#clip822)" style="stroke:#000000; stroke-linecap:round; stroke-linejoin:round; stroke-width:2; stroke-opacity:0.1; fill:none" points="194.422,431.187 2352.76,431.187 "/>
<polyline clip-path="url(#clip822)" style="stroke:#000000; stroke-linecap:round; stroke-linejoin:round; stroke-width:2; stroke-opacity:0.1; fill:none" points="194.422,180.277 2352.76,180.277 "/>
<polyline clip-path="url(#clip820)" style="stroke:#000000; stroke-linecap:round; stroke-linejoin:round; stroke-width:4; stroke-opacity:1; fill:none" points="194.422,1423.18 2352.76,1423.18 "/>
<polyline clip-path="url(#clip820)" style="stroke:#000000; stroke-linecap:round; stroke-linejoin:round; stroke-width:4; stroke-opacity:1; fill:none" points="194.422,1423.18 194.422,1404.28 "/>
<polyline clip-path="url(#clip820)" style="stroke:#000000; stroke-linecap:round; stroke-linejoin:round; stroke-width:4; stroke-opacity:1; fill:none" points="734.006,1423.18 734.006,1404.28 "/>
<polyline clip-path="url(#clip820)" style="stroke:#000000; stroke-linecap:round; stroke-linejoin:round; stroke-width:4; stroke-opacity:1; fill:none" points="1273.59,1423.18 1273.59,1404.28 "/>
<polyline clip-path="url(#clip820)" style="stroke:#000000; stroke-linecap:round; stroke-linejoin:round; stroke-width:4; stroke-opacity:1; fill:none" points="1813.17,1423.18 1813.17,1404.28 "/>
<polyline clip-path="url(#clip820)" style="stroke:#000000; stroke-linecap:round; stroke-linejoin:round; stroke-width:4; stroke-opacity:1; fill:none" points="2352.76,1423.18 2352.76,1404.28 "/>
<path clip-path="url(#clip820)" d="M171.806 1454.1 Q168.195 1454.1 166.367 1457.66 Q164.561 1461.2 164.561 1468.33 Q164.561 1475.44 166.367 1479.01 Q168.195 1482.55 171.806 1482.55 Q175.441 1482.55 177.246 1479.01 Q179.075 1475.44 179.075 1468.33 Q179.075 1461.2 177.246 1457.66 Q175.441 1454.1 171.806 1454.1 M171.806 1450.39 Q177.617 1450.39 180.672 1455 Q183.751 1459.58 183.751 1468.33 Q183.751 1477.06 180.672 1481.67 Q177.617 1486.25 171.806 1486.25 Q165.996 1486.25 162.918 1481.67 Q159.862 1477.06 159.862 1468.33 Q159.862 1459.58 162.918 1455 Q165.996 1450.39 171.806 1450.39 Z" fill="#000000" fill-rule="nonzero" fill-opacity="1" /><path clip-path="url(#clip820)" d="M191.968 1479.7 L196.853 1479.7 L196.853 1485.58 L191.968 1485.58 L191.968 1479.7 Z" fill="#000000" fill-rule="nonzero" fill-opacity="1" /><path clip-path="url(#clip820)" d="M217.038 1454.1 Q213.427 1454.1 211.598 1457.66 Q209.792 1461.2 209.792 1468.33 Q209.792 1475.44 211.598 1479.01 Q213.427 1482.55 217.038 1482.55 Q220.672 1482.55 222.478 1479.01 Q224.306 1475.44 224.306 1468.33 Q224.306 1461.2 222.478 1457.66 Q220.672 1454.1 217.038 1454.1 M217.038 1450.39 Q222.848 1450.39 225.903 1455 Q228.982 1459.58 228.982 1468.33 Q228.982 1477.06 225.903 1481.67 Q222.848 1486.25 217.038 1486.25 Q211.228 1486.25 208.149 1481.67 Q205.093 1477.06 205.093 1468.33 Q205.093 1459.58 208.149 1455 Q211.228 1450.39 217.038 1450.39 Z" fill="#000000" fill-rule="nonzero" fill-opacity="1" /><path clip-path="url(#clip820)" d="M711.888 1454.1 Q708.277 1454.1 706.448 1457.66 Q704.642 1461.2 704.642 1468.33 Q704.642 1475.44 706.448 1479.01 Q708.277 1482.55 711.888 1482.55 Q715.522 1482.55 717.327 1479.01 Q719.156 1475.44 719.156 1468.33 Q719.156 1461.2 717.327 1457.66 Q715.522 1454.1 711.888 1454.1 M711.888 1450.39 Q717.698 1450.39 720.753 1455 Q723.832 1459.58 723.832 1468.33 Q723.832 1477.06 720.753 1481.67 Q717.698 1486.25 711.888 1486.25 Q706.077 1486.25 702.999 1481.67 Q699.943 1477.06 699.943 1468.33 Q699.943 1459.58 702.999 1455 Q706.077 1450.39 711.888 1450.39 Z" fill="#000000" fill-rule="nonzero" fill-opacity="1" /><path clip-path="url(#clip820)" d="M732.05 1479.7 L736.934 1479.7 L736.934 1485.58 L732.05 1485.58 L732.05 1479.7 Z" fill="#000000" fill-rule="nonzero" fill-opacity="1" /><path clip-path="url(#clip820)" d="M747.165 1451.02 L765.522 1451.02 L765.522 1454.96 L751.448 1454.96 L751.448 1463.43 Q752.466 1463.08 753.485 1462.92 Q754.503 1462.73 755.522 1462.73 Q761.309 1462.73 764.688 1465.9 Q768.068 1469.08 768.068 1474.49 Q768.068 1480.07 764.596 1483.17 Q761.123 1486.25 754.804 1486.25 Q752.628 1486.25 750.36 1485.88 Q748.114 1485.51 745.707 1484.77 L745.707 1480.07 Q747.79 1481.2 750.012 1481.76 Q752.235 1482.32 754.711 1482.32 Q758.716 1482.32 761.054 1480.21 Q763.392 1478.1 763.392 1474.49 Q763.392 1470.88 761.054 1468.77 Q758.716 1466.67 754.711 1466.67 Q752.836 1466.67 750.961 1467.08 Q749.11 1467.5 747.165 1468.38 L747.165 1451.02 Z" fill="#000000" fill-rule="nonzero" fill-opacity="1" /><path clip-path="url(#clip820)" d="M1240.74 1481.64 L1248.38 1481.64 L1248.38 1455.28 L1240.07 1456.95 L1240.07 1452.69 L1248.33 1451.02 L1253.01 1451.02 L1253.01 1481.64 L1260.65 1481.64 L1260.65 1485.58 L1240.74 1485.58 L1240.74 1481.64 Z" fill="#000000" fill-rule="nonzero" fill-opacity="1" /><path clip-path="url(#clip820)" d="M1270.09 1479.7 L1274.98 1479.7 L1274.98 1485.58 L1270.09 1485.58 L1270.09 1479.7 Z" fill="#000000" fill-rule="nonzero" fill-opacity="1" /><path clip-path="url(#clip820)" d="M1295.16 1454.1 Q1291.55 1454.1 1289.72 1457.66 Q1287.92 1461.2 1287.92 1468.33 Q1287.92 1475.44 1289.72 1479.01 Q1291.55 1482.55 1295.16 1482.55 Q1298.8 1482.55 1300.6 1479.01 Q1302.43 1475.44 1302.43 1468.33 Q1302.43 1461.2 1300.6 1457.66 Q1298.8 1454.1 1295.16 1454.1 M1295.16 1450.39 Q1300.97 1450.39 1304.03 1455 Q1307.11 1459.58 1307.11 1468.33 Q1307.11 1477.06 1304.03 1481.67 Q1300.97 1486.25 1295.16 1486.25 Q1289.35 1486.25 1286.27 1481.67 Q1283.22 1477.06 1283.22 1468.33 Q1283.22 1459.58 1286.27 1455 Q1289.35 1450.39 1295.16 1450.39 Z" fill="#000000" fill-rule="nonzero" fill-opacity="1" /><path clip-path="url(#clip820)" d="M1780.82 1481.64 L1788.46 1481.64 L1788.46 1455.28 L1780.15 1456.95 L1780.15 1452.69 L1788.42 1451.02 L1793.09 1451.02 L1793.09 1481.64 L1800.73 1481.64 L1800.73 1485.58 L1780.82 1485.58 L1780.82 1481.64 Z" fill="#000000" fill-rule="nonzero" fill-opacity="1" /><path clip-path="url(#clip820)" d="M1810.17 1479.7 L1815.06 1479.7 L1815.06 1485.58 L1810.17 1485.58 L1810.17 1479.7 Z" fill="#000000" fill-rule="nonzero" fill-opacity="1" /><path clip-path="url(#clip820)" d="M1825.29 1451.02 L1843.65 1451.02 L1843.65 1454.96 L1829.57 1454.96 L1829.57 1463.43 Q1830.59 1463.08 1831.61 1462.92 Q1832.63 1462.73 1833.65 1462.73 Q1839.43 1462.73 1842.81 1465.9 Q1846.19 1469.08 1846.19 1474.49 Q1846.19 1480.07 1842.72 1483.17 Q1839.25 1486.25 1832.93 1486.25 Q1830.75 1486.25 1828.48 1485.88 Q1826.24 1485.51 1823.83 1484.77 L1823.83 1480.07 Q1825.92 1481.2 1828.14 1481.76 Q1830.36 1482.32 1832.84 1482.32 Q1836.84 1482.32 1839.18 1480.21 Q1841.52 1478.1 1841.52 1474.49 Q1841.52 1470.88 1839.18 1468.77 Q1836.84 1466.67 1832.84 1466.67 Q1830.96 1466.67 1829.09 1467.08 Q1827.23 1467.5 1825.29 1468.38 L1825.29 1451.02 Z" fill="#000000" fill-rule="nonzero" fill-opacity="1" /><path clip-path="url(#clip820)" d="M2323.99 1481.64 L2340.31 1481.64 L2340.31 1485.58 L2318.37 1485.58 L2318.37 1481.64 Q2321.03 1478.89 2325.61 1474.26 Q2330.22 1469.61 2331.4 1468.27 Q2333.65 1465.74 2334.53 1464.01 Q2335.43 1462.25 2335.43 1460.56 Q2335.43 1457.8 2333.49 1456.07 Q2331.56 1454.33 2328.46 1454.33 Q2326.26 1454.33 2323.81 1455.09 Q2321.38 1455.86 2318.6 1457.41 L2318.6 1452.69 Q2321.43 1451.55 2323.88 1450.97 Q2326.33 1450.39 2328.37 1450.39 Q2333.74 1450.39 2336.93 1453.08 Q2340.13 1455.77 2340.13 1460.26 Q2340.13 1462.39 2339.32 1464.31 Q2338.53 1466.2 2336.42 1468.8 Q2335.85 1469.47 2332.74 1472.69 Q2329.64 1475.88 2323.99 1481.64 Z" fill="#000000" fill-rule="nonzero" fill-opacity="1" /><path clip-path="url(#clip820)" d="M2350.13 1479.7 L2355.01 1479.7 L2355.01 1485.58 L2350.13 1485.58 L2350.13 1479.7 Z" fill="#000000" fill-rule="nonzero" fill-opacity="1" /><path clip-path="url(#clip820)" d="M2375.2 1454.1 Q2371.59 1454.1 2369.76 1457.66 Q2367.95 1461.2 2367.95 1468.33 Q2367.95 1475.44 2369.76 1479.01 Q2371.59 1482.55 2375.2 1482.55 Q2378.83 1482.55 2380.64 1479.01 Q2382.47 1475.44 2382.47 1468.33 Q2382.47 1461.2 2380.64 1457.66 Q2378.83 1454.1 2375.2 1454.1 M2375.2 1450.39 Q2381.01 1450.39 2384.06 1455 Q2387.14 1459.58 2387.14 1468.33 Q2387.14 1477.06 2384.06 1481.67 Q2381.01 1486.25 2375.2 1486.25 Q2369.39 1486.25 2366.31 1481.67 Q2363.25 1477.06 2363.25 1468.33 Q2363.25 1459.58 2366.31 1455 Q2369.39 1450.39 2375.2 1450.39 Z" fill="#000000" fill-rule="nonzero" fill-opacity="1" /><path clip-path="url(#clip820)" d="M1272.65 1522.27 L1272.65 1532.4 L1284.71 1532.4 L1284.71 1536.95 L1272.65 1536.95 L1272.65 1556.3 Q1272.65 1560.66 1273.83 1561.9 Q1275.04 1563.14 1278.7 1563.14 L1284.71 1563.14 L1284.71 1568.04 L1278.7 1568.04 Q1271.92 1568.04 1269.34 1565.53 Q1266.76 1562.98 1266.76 1556.3 L1266.76 1536.95 L1262.46 1536.95 L1262.46 1532.4 L1266.76 1532.4 L1266.76 1522.27 L1272.65 1522.27 Z" fill="#000000" fill-rule="nonzero" fill-opacity="1" /><polyline clip-path="url(#clip820)" style="stroke:#000000; stroke-linecap:round; stroke-linejoin:round; stroke-width:4; stroke-opacity:1; fill:none" points="194.422,1423.18 194.422,47.2441 "/>
<polyline clip-path="url(#clip820)" style="stroke:#000000; stroke-linecap:round; stroke-linejoin:round; stroke-width:4; stroke-opacity:1; fill:none" points="194.422,1183.92 213.32,1183.92 "/>
<polyline clip-path="url(#clip820)" style="stroke:#000000; stroke-linecap:round; stroke-linejoin:round; stroke-width:4; stroke-opacity:1; fill:none" points="194.422,933.008 213.32,933.008 "/>
<polyline clip-path="url(#clip820)" style="stroke:#000000; stroke-linecap:round; stroke-linejoin:round; stroke-width:4; stroke-opacity:1; fill:none" points="194.422,682.097 213.32,682.097 "/>
<polyline clip-path="url(#clip820)" style="stroke:#000000; stroke-linecap:round; stroke-linejoin:round; stroke-width:4; stroke-opacity:1; fill:none" points="194.422,431.187 213.32,431.187 "/>
<polyline clip-path="url(#clip820)" style="stroke:#000000; stroke-linecap:round; stroke-linejoin:round; stroke-width:4; stroke-opacity:1; fill:none" points="194.422,180.277 213.32,180.277 "/>
<path clip-path="url(#clip820)" d="M50.9921 1184.37 L80.6679 1184.37 L80.6679 1188.3 L50.9921 1188.3 L50.9921 1184.37 Z" fill="#000000" fill-rule="nonzero" fill-opacity="1" /><path clip-path="url(#clip820)" d="M100.76 1169.72 Q97.1493 1169.72 95.3206 1173.28 Q93.515 1176.82 93.515 1183.95 Q93.515 1191.06 95.3206 1194.62 Q97.1493 1198.17 100.76 1198.17 Q104.395 1198.17 106.2 1194.62 Q108.029 1191.06 108.029 1183.95 Q108.029 1176.82 106.2 1173.28 Q104.395 1169.72 100.76 1169.72 M100.76 1166.01 Q106.571 1166.01 109.626 1170.62 Q112.705 1175.2 112.705 1183.95 Q112.705 1192.68 109.626 1197.29 Q106.571 1201.87 100.76 1201.87 Q94.9502 1201.87 91.8715 1197.29 Q88.816 1192.68 88.816 1183.95 Q88.816 1175.2 91.8715 1170.62 Q94.9502 1166.01 100.76 1166.01 Z" fill="#000000" fill-rule="nonzero" fill-opacity="1" /><path clip-path="url(#clip820)" d="M120.922 1195.32 L125.807 1195.32 L125.807 1201.2 L120.922 1201.2 L120.922 1195.32 Z" fill="#000000" fill-rule="nonzero" fill-opacity="1" /><path clip-path="url(#clip820)" d="M148.839 1170.71 L137.033 1189.16 L148.839 1189.16 L148.839 1170.71 M147.612 1166.64 L153.492 1166.64 L153.492 1189.16 L158.422 1189.16 L158.422 1193.05 L153.492 1193.05 L153.492 1201.2 L148.839 1201.2 L148.839 1193.05 L133.237 1193.05 L133.237 1188.54 L147.612 1166.64 Z" fill="#000000" fill-rule="nonzero" fill-opacity="1" /><path clip-path="url(#clip820)" d="M53.0754 933.459 L82.7512 933.459 L82.7512 937.394 L53.0754 937.394 L53.0754 933.459 Z" fill="#000000" fill-rule="nonzero" fill-opacity="1" /><path clip-path="url(#clip820)" d="M102.844 918.806 Q99.2326 918.806 97.4039 922.371 Q95.5984 925.913 95.5984 933.042 Q95.5984 940.149 97.4039 943.714 Q99.2326 947.255 102.844 947.255 Q106.478 947.255 108.283 943.714 Q110.112 940.149 110.112 933.042 Q110.112 925.913 108.283 922.371 Q106.478 918.806 102.844 918.806 M102.844 915.103 Q108.654 915.103 111.709 919.709 Q114.788 924.292 114.788 933.042 Q114.788 941.769 111.709 946.376 Q108.654 950.959 102.844 950.959 Q97.0335 950.959 93.9549 946.376 Q90.8993 941.769 90.8993 933.042 Q90.8993 924.292 93.9549 919.709 Q97.0335 915.103 102.844 915.103 Z" fill="#000000" fill-rule="nonzero" fill-opacity="1" /><path clip-path="url(#clip820)" d="M123.006 944.408 L127.89 944.408 L127.89 950.288 L123.006 950.288 L123.006 944.408 Z" fill="#000000" fill-rule="nonzero" fill-opacity="1" /><path clip-path="url(#clip820)" d="M142.103 946.353 L158.422 946.353 L158.422 950.288 L136.478 950.288 L136.478 946.353 Q139.14 943.598 143.723 938.968 Q148.33 934.316 149.51 932.973 Q151.755 930.45 152.635 928.714 Q153.538 926.955 153.538 925.265 Q153.538 922.51 151.593 920.774 Q149.672 919.038 146.57 919.038 Q144.371 919.038 141.918 919.802 Q139.487 920.566 136.709 922.117 L136.709 917.394 Q139.533 916.26 141.987 915.681 Q144.441 915.103 146.478 915.103 Q151.848 915.103 155.042 917.788 Q158.237 920.473 158.237 924.964 Q158.237 927.093 157.427 929.015 Q156.64 930.913 154.533 933.505 Q153.955 934.177 150.853 937.394 Q147.751 940.589 142.103 946.353 Z" fill="#000000" fill-rule="nonzero" fill-opacity="1" /><path clip-path="url(#clip820)" d="M101.246 667.896 Q97.6354 667.896 95.8067 671.461 Q94.0012 675.002 94.0012 682.132 Q94.0012 689.239 95.8067 692.803 Q97.6354 696.345 101.246 696.345 Q104.881 696.345 106.686 692.803 Q108.515 689.239 108.515 682.132 Q108.515 675.002 106.686 671.461 Q104.881 667.896 101.246 667.896 M101.246 664.192 Q107.057 664.192 110.112 668.799 Q113.191 673.382 113.191 682.132 Q113.191 690.859 110.112 695.465 Q107.057 700.049 101.246 700.049 Q95.4363 700.049 92.3576 695.465 Q89.3021 690.859 89.3021 682.132 Q89.3021 673.382 92.3576 668.799 Q95.4363 664.192 101.246 664.192 Z" fill="#000000" fill-rule="nonzero" fill-opacity="1" /><path clip-path="url(#clip820)" d="M121.408 693.498 L126.293 693.498 L126.293 699.377 L121.408 699.377 L121.408 693.498 Z" fill="#000000" fill-rule="nonzero" fill-opacity="1" /><path clip-path="url(#clip820)" d="M146.478 667.896 Q142.867 667.896 141.038 671.461 Q139.232 675.002 139.232 682.132 Q139.232 689.239 141.038 692.803 Q142.867 696.345 146.478 696.345 Q150.112 696.345 151.918 692.803 Q153.746 689.239 153.746 682.132 Q153.746 675.002 151.918 671.461 Q150.112 667.896 146.478 667.896 M146.478 664.192 Q152.288 664.192 155.343 668.799 Q158.422 673.382 158.422 682.132 Q158.422 690.859 155.343 695.465 Q152.288 700.049 146.478 700.049 Q140.668 700.049 137.589 695.465 Q134.533 690.859 134.533 682.132 Q134.533 673.382 137.589 668.799 Q140.668 664.192 146.478 664.192 Z" fill="#000000" fill-rule="nonzero" fill-opacity="1" /><path clip-path="url(#clip820)" d="M102.844 416.986 Q99.2326 416.986 97.4039 420.55 Q95.5984 424.092 95.5984 431.222 Q95.5984 438.328 97.4039 441.893 Q99.2326 445.435 102.844 445.435 Q106.478 445.435 108.283 441.893 Q110.112 438.328 110.112 431.222 Q110.112 424.092 108.283 420.55 Q106.478 416.986 102.844 416.986 M102.844 413.282 Q108.654 413.282 111.709 417.888 Q114.788 422.472 114.788 431.222 Q114.788 439.949 111.709 444.555 Q108.654 449.138 102.844 449.138 Q97.0335 449.138 93.9549 444.555 Q90.8993 439.949 90.8993 431.222 Q90.8993 422.472 93.9549 417.888 Q97.0335 413.282 102.844 413.282 Z" fill="#000000" fill-rule="nonzero" fill-opacity="1" /><path clip-path="url(#clip820)" d="M123.006 442.587 L127.89 442.587 L127.89 448.467 L123.006 448.467 L123.006 442.587 Z" fill="#000000" fill-rule="nonzero" fill-opacity="1" /><path clip-path="url(#clip820)" d="M142.103 444.532 L158.422 444.532 L158.422 448.467 L136.478 448.467 L136.478 444.532 Q139.14 441.777 143.723 437.148 Q148.33 432.495 149.51 431.152 Q151.755 428.629 152.635 426.893 Q153.538 425.134 153.538 423.444 Q153.538 420.689 151.593 418.953 Q149.672 417.217 146.57 417.217 Q144.371 417.217 141.918 417.981 Q139.487 418.745 136.709 420.296 L136.709 415.574 Q139.533 414.439 141.987 413.861 Q144.441 413.282 146.478 413.282 Q151.848 413.282 155.042 415.967 Q158.237 418.652 158.237 423.143 Q158.237 425.273 157.427 427.194 Q156.64 429.092 154.533 431.685 Q153.955 432.356 150.853 435.574 Q147.751 438.768 142.103 444.532 Z" fill="#000000" fill-rule="nonzero" fill-opacity="1" /><path clip-path="url(#clip820)" d="M100.76 166.075 Q97.1493 166.075 95.3206 169.64 Q93.515 173.182 93.515 180.311 Q93.515 187.418 95.3206 190.983 Q97.1493 194.524 100.76 194.524 Q104.395 194.524 106.2 190.983 Q108.029 187.418 108.029 180.311 Q108.029 173.182 106.2 169.64 Q104.395 166.075 100.76 166.075 M100.76 162.372 Q106.571 162.372 109.626 166.978 Q112.705 171.561 112.705 180.311 Q112.705 189.038 109.626 193.645 Q106.571 198.228 100.76 198.228 Q94.9502 198.228 91.8715 193.645 Q88.816 189.038 88.816 180.311 Q88.816 171.561 91.8715 166.978 Q94.9502 162.372 100.76 162.372 Z" fill="#000000" fill-rule="nonzero" fill-opacity="1" /><path clip-path="url(#clip820)" d="M120.922 191.677 L125.807 191.677 L125.807 197.557 L120.922 197.557 L120.922 191.677 Z" fill="#000000" fill-rule="nonzero" fill-opacity="1" /><path clip-path="url(#clip820)" d="M148.839 167.071 L137.033 185.52 L148.839 185.52 L148.839 167.071 M147.612 162.997 L153.492 162.997 L153.492 185.52 L158.422 185.52 L158.422 189.409 L153.492 189.409 L153.492 197.557 L148.839 197.557 L148.839 189.409 L133.237 189.409 L133.237 184.895 L147.612 162.997 Z" fill="#000000" fill-rule="nonzero" fill-opacity="1" /><polyline clip-path="url(#clip822)" style="stroke:#009af9; stroke-linecap:round; stroke-linejoin:round; stroke-width:4; stroke-opacity:1; fill:none" points="194.422,1384.24 196.583,1375.15 198.743,1366.15 200.904,1357.24 203.064,1348.42 205.225,1339.68 207.385,1331.04 209.546,1322.48 211.706,1314 213.867,1305.61 216.027,1297.3 218.188,1289.08 220.348,1280.93 222.509,1272.87 224.669,1264.89 226.83,1256.99 228.99,1249.17 231.151,1241.42 233.311,1233.75 235.471,1226.16 237.632,1218.65 239.792,1211.21 241.953,1203.84 244.113,1196.54 246.274,1189.32 248.434,1182.17 250.595,1175.1 252.755,1168.09 254.916,1161.15 257.076,1154.28 259.237,1147.48 261.397,1140.75 263.558,1134.09 265.718,1127.49 267.879,1120.95 270.039,1114.48 272.2,1108.08 274.36,1101.74 276.521,1095.46 278.681,1089.25 280.842,1083.1 283.002,1077.01 285.163,1070.98 287.323,1065.01 289.484,1059.1 291.644,1053.24 293.805,1047.45 295.965,1041.71 298.126,1036.03 300.286,1030.41 302.447,1024.85 304.607,1019.34 306.768,1013.88 308.928,1008.48 311.089,1003.13 313.249,997.836 315.41,992.594 317.57,987.404 319.731,982.266 321.891,977.18 324.052,972.144 326.212,967.158 328.373,962.221 330.533,957.334 332.694,952.496 334.854,947.705 337.015,942.963 339.175,938.267 341.336,933.619 343.496,929.016 345.657,924.46 347.817,919.948 349.978,915.482 352.138,911.06 354.299,906.683 356.459,902.349 358.62,898.058 360.78,893.81 362.941,889.604 365.101,885.44 367.262,881.318 369.422,877.236 371.583,873.196 373.743,869.196 375.904,865.235 378.064,861.314 380.225,857.432 382.385,853.589 384.546,849.784 386.706,846.017 388.867,842.287 391.027,838.595 393.188,834.939 395.348,831.32 397.509,827.736 399.669,824.189 401.83,820.677 403.99,817.199 406.151,813.757 408.311,810.348 410.472,806.974 412.632,803.633 414.793,800.326 416.953,797.051 419.114,793.809 421.274,790.599 423.435,787.421 425.595,784.275 427.755,781.16 429.916,778.076 432.076,775.023 434.237,772 436.397,769.008 438.558,766.045 440.718,763.111 442.879,760.207 445.039,757.332 447.2,754.486 449.36,751.667 451.521,748.877 453.681,746.115 455.842,743.38 458.002,740.673 460.163,737.992 462.323,735.339 464.484,732.711 466.644,730.11 468.805,727.535 470.965,724.985 473.126,722.461 475.286,719.962 477.447,717.488 479.607,715.039 481.768,712.614 483.928,710.213 486.089,707.836 488.249,705.482 490.41,703.153 492.57,700.846 494.731,698.562 496.891,696.301 499.052,694.063 501.212,691.847 503.373,689.653 505.533,687.481 507.694,685.33 509.854,683.201 512.015,681.093 514.175,679.006 516.336,676.939 518.496,674.894 520.657,672.868 522.817,670.863 524.978,668.878 527.138,666.912 529.299,664.967 531.459,663.04 533.62,661.133 535.78,659.244 537.941,657.375 540.101,655.524 542.262,653.691 544.422,651.877 546.583,650.081 548.743,648.302 550.904,646.542 553.064,644.799 555.225,643.073 557.385,641.365 559.546,639.673 561.706,637.999 563.867,636.341 566.027,634.699 568.188,633.075 570.348,631.466 572.509,629.873 574.669,628.296 576.83,626.735 578.99,625.189 581.151,623.659 583.311,622.144 585.472,620.645 587.632,619.16 589.793,617.69 591.953,616.234 594.114,614.793 596.274,613.367 598.435,611.954 600.595,610.556 602.756,609.172 604.916,607.801 607.077,606.444 609.237,605.101 611.398,603.77 613.558,602.454 615.718,601.15 617.879,599.859 620.039,598.581 622.2,597.316 624.36,596.063 626.521,594.823 628.681,593.595 630.842,592.38 633.002,591.176 635.163,589.985 637.323,588.805 639.484,587.637 641.644,586.48 643.805,585.336 645.965,584.202 648.126,583.08 650.286,581.969 652.447,580.869 654.607,579.78 656.768,578.702 658.928,577.634 661.089,576.578 663.249,575.531 665.41,574.496 667.57,573.47 669.731,572.455 671.891,571.45 674.052,570.455 676.212,569.47 678.373,568.494 680.533,567.529 682.694,566.573 684.854,565.627 687.015,564.69 689.175,563.762 691.336,562.844 693.496,561.934 695.657,561.034 697.817,560.143 699.978,559.261 702.138,558.387 704.299,557.522 706.459,556.666 708.62,555.819 710.78,554.98 712.941,554.149 715.101,553.326 717.262,552.512 719.422,551.706 721.583,550.907 723.743,550.117 725.904,549.335 728.064,548.56 730.225,547.793 732.385,547.034 734.546,546.282 736.706,545.538 738.867,544.801 741.027,544.071 743.188,543.349 745.348,542.634 747.509,541.926 749.669,541.225 751.83,540.531 753.99,539.844 756.151,539.164 758.311,538.49 760.472,537.823 762.632,537.163 764.793,536.509 766.953,535.862 769.114,535.221 771.274,534.587 773.435,533.959 775.595,533.337 777.756,532.721 779.916,532.112 782.077,531.509 784.237,530.911 786.398,530.32 788.558,529.734 790.719,529.154 792.879,528.581 795.04,528.012 797.2,527.45 799.361,526.893 801.521,526.342 803.681,525.796 805.842,525.255 808.002,524.72 810.163,524.191 812.323,523.666 814.484,523.147 816.644,522.633 818.805,522.125 820.965,521.621 823.126,521.122 825.286,520.629 827.447,520.14 829.607,519.656 831.768,519.177 833.928,518.703 836.089,518.233 838.249,517.768 840.41,517.308 842.57,516.853 844.731,516.402 846.891,515.955 849.052,515.513 851.212,515.075 853.373,514.642 855.533,514.213 857.694,513.788 859.854,513.368 862.015,512.951 864.175,512.539 866.336,512.131 868.496,511.727 870.657,511.327 872.817,510.931 874.978,510.539 877.138,510.151 879.299,509.767 881.459,509.386 883.62,509.009 885.78,508.636 887.941,508.267 890.101,507.901 892.262,507.539 894.422,507.181 896.583,506.826 898.743,506.475 900.904,506.127 903.064,505.782 905.225,505.441 907.385,505.103 909.546,504.769 911.706,504.438 913.867,504.11 916.027,503.786 918.188,503.465 920.348,503.146 922.509,502.832 924.669,502.52 926.83,502.211 928.99,501.906 931.151,501.603 933.311,501.303 935.472,501.007 937.632,500.713 939.793,500.423 941.953,500.135 944.114,499.85 946.274,499.568 948.435,499.289 950.595,499.012 952.756,498.739 954.916,498.468 957.077,498.2 959.237,497.934 961.398,497.671 963.558,497.411 965.719,497.153 967.879,496.898 970.04,496.646 972.2,496.396 974.361,496.148 976.521,495.903 978.682,495.661 980.842,495.421 983.003,495.183 985.163,494.948 987.324,494.715 989.484,494.484 991.645,494.256 993.805,494.03 995.965,493.806 998.126,493.584 1000.29,493.365 1002.45,493.148 1004.61,492.933 1006.77,492.72 1008.93,492.51 1011.09,492.301 1013.25,492.095 1015.41,491.89 1017.57,491.688 1019.73,491.487 1021.89,491.289 1024.05,491.093 1026.21,490.898 1028.37,490.706 1030.53,490.515 1032.69,490.326 1034.85,490.139 1037.01,489.954 1039.18,489.771 1041.34,489.59 1043.5,489.41 1045.66,489.233 1047.82,489.057 1049.98,488.882 1052.14,488.71 1054.3,488.539 1056.46,488.37 1058.62,488.202 1060.78,488.037 1062.94,487.872 1065.1,487.71 1067.26,487.549 1069.42,487.389 1071.58,487.231 1073.74,487.075 1075.9,486.92 1078.06,486.767 1080.22,486.616 1082.39,486.465 1084.55,486.317 1086.71,486.169 1088.87,486.023 1091.03,485.879 1093.19,485.736 1095.35,485.595 1097.51,485.455 1099.67,485.316 1101.83,485.179 1103.99,485.043 1106.15,484.908 1108.31,484.775 1110.47,484.643 1112.63,484.512 1114.79,484.383 1116.95,484.255 1119.11,484.128 1121.27,484.003 1123.43,483.879 1125.6,483.756 1127.76,483.634 1129.92,483.513 1132.08,483.394 1134.24,483.276 1136.4,483.159 1138.56,483.044 1140.72,482.929 1142.88,482.816 1145.04,482.703 1147.2,482.592 1149.36,482.482 1151.52,482.373 1153.68,482.265 1155.84,482.159 1158,482.053 1160.16,481.948 1162.32,481.845 1164.48,481.742 1166.64,481.641 1168.81,481.541 1170.97,481.441 1173.13,481.343 1175.29,481.245 1177.45,481.149 1179.61,481.053 1181.77,480.959 1183.93,480.865 1186.09,480.773 1188.25,480.681 1190.41,480.59 1192.57,480.5 1194.73,480.411 1196.89,480.323 1199.05,480.236 1201.21,480.15 1203.37,480.064 1205.53,479.98 1207.69,479.896 1209.85,479.813 1212.01,479.731 1214.18,479.65 1216.34,479.569 1218.5,479.489 1220.66,479.41 1222.82,479.332 1224.98,479.255 1227.14,479.178 1229.3,479.103 1231.46,479.028 1233.62,478.953 1235.78,478.88 1237.94,478.807 1240.1,478.735 1242.26,478.663 1244.42,478.593 1246.58,478.522 1248.74,478.453 1250.9,478.384 1253.06,478.316 1255.22,478.249 1257.39,478.182 1259.55,478.116 1261.71,478.051 1263.87,477.986 1266.03,477.922 1268.19,477.858 1270.35,477.795 1272.51,477.733 1274.67,477.671 1276.83,477.61 1278.99,477.55 1281.15,477.49 1283.31,477.431 1285.47,477.372 1287.63,477.314 1289.79,477.256 1291.95,477.199 1294.11,477.143 1296.27,477.087 1298.43,477.032 1300.6,476.977 1302.76,476.923 1304.92,476.869 1307.08,476.816 1309.24,476.763 1311.4,476.711 1313.56,476.659 1315.72,476.608 1317.88,476.558 1320.04,476.508 1322.2,476.458 1324.36,476.409 1326.52,476.361 1328.68,476.313 1330.84,476.265 1333,476.218 1335.16,476.171 1337.32,476.125 1339.48,476.08 1341.64,476.034 1343.81,475.99 1345.97,475.945 1348.13,475.901 1350.29,475.858 1352.45,475.815 1354.61,475.773 1356.77,475.73 1358.93,475.689 1361.09,475.648 1363.25,475.607 1365.41,475.566 1367.57,475.526 1369.73,475.487 1371.89,475.448 1374.05,475.409 1376.21,475.37 1378.37,475.332 1380.53,475.295 1382.69,475.257 1384.85,475.221 1387.01,475.184 1389.18,475.148 1391.34,475.112 1393.5,475.077 1395.66,475.042 1397.82,475.007 1399.98,474.973 1402.14,474.939 1404.3,474.905 1406.46,474.872 1408.62,474.839 1410.78,474.806 1412.94,474.774 1415.1,474.742 1417.26,474.711 1419.42,474.679 1421.58,474.648 1423.74,474.618 1425.9,474.587 1428.06,474.557 1430.22,474.527 1432.39,474.498 1434.55,474.469 1436.71,474.44 1438.87,474.411 1441.03,474.383 1443.19,474.355 1445.35,474.327 1447.51,474.3 1449.67,474.272 1451.83,474.245 1453.99,474.219 1456.15,474.192 1458.31,474.166 1460.47,474.14 1462.63,474.114 1464.79,474.089 1466.95,474.064 1469.11,474.039 1471.27,474.014 1473.43,473.99 1475.6,473.965 1477.76,473.941 1479.92,473.918 1482.08,473.894 1484.24,473.871 1486.4,473.848 1488.56,473.825 1490.72,473.802 1492.88,473.78 1495.04,473.757 1497.2,473.735 1499.36,473.713 1501.52,473.692 1503.68,473.67 1505.84,473.649 1508,473.628 1510.16,473.607 1512.32,473.587 1514.48,473.566 1516.64,473.546 1518.81,473.526 1520.97,473.506 1523.13,473.487 1525.29,473.467 1527.45,473.448 1529.61,473.429 1531.77,473.41 1533.93,473.392 1536.09,473.373 1538.25,473.355 1540.41,473.337 1542.57,473.319 1544.73,473.301 1546.89,473.283 1549.05,473.266 1551.21,473.249 1553.37,473.232 1555.53,473.215 1557.69,473.198 1559.85,473.182 1562.01,473.165 1564.18,473.149 1566.34,473.133 1568.5,473.117 1570.66,473.101 1572.82,473.086 1574.98,473.07 1577.14,473.055 1579.3,473.04 1581.46,473.025 1583.62,473.01 1585.78,472.996 1587.94,472.981 1590.1,472.967 1592.26,472.953 1594.42,472.939 1596.58,472.925 1598.74,472.911 1600.9,472.898 1603.06,472.884 1605.22,472.871 1607.39,472.858 1609.55,472.845 1611.71,472.832 1613.87,472.819 1616.03,472.806 1618.19,472.794 1620.35,472.781 1622.51,472.769 1624.67,472.757 1626.83,472.745 1628.99,472.733 1631.15,472.721 1633.31,472.71 1635.47,472.698 1637.63,472.687 1639.79,472.676 1641.95,472.665 1644.11,472.654 1646.27,472.643 1648.43,472.632 1650.6,472.621 1652.76,472.611 1654.92,472.6 1657.08,472.59 1659.24,472.58 1661.4,472.569 1663.56,472.559 1665.72,472.549 1667.88,472.54 1670.04,472.53 1672.2,472.52 1674.36,472.511 1676.52,472.501 1678.68,472.492 1680.84,472.483 1683,472.474 1685.16,472.465 1687.32,472.456 1689.48,472.447 1691.64,472.438 1693.81,472.429 1695.97,472.421 1698.13,472.412 1700.29,472.404 1702.45,472.395 1704.61,472.387 1706.77,472.379 1708.93,472.371 1711.09,472.363 1713.25,472.355 1715.41,472.347 1717.57,472.339 1719.73,472.331 1721.89,472.324 1724.05,472.316 1726.21,472.308 1728.37,472.301 1730.53,472.294 1732.69,472.286 1734.85,472.279 1737.02,472.272 1739.18,472.265 1741.34,472.258 1743.5,472.251 1745.66,472.244 1747.82,472.237 1749.98,472.23 1752.14,472.223 1754.3,472.216 1756.46,472.21 1758.62,472.203 1760.78,472.197 1762.94,472.19 1765.1,472.184 1767.26,472.177 1769.42,472.171 1771.58,472.165 1773.74,472.159 1775.9,472.153 1778.06,472.147 1780.22,472.141 1782.39,472.135 1784.55,472.129 1786.71,472.123 1788.87,472.117 1791.03,472.111 1793.19,472.106 1795.35,472.1 1797.51,472.094 1799.67,472.089 1801.83,472.083 1803.99,472.078 1806.15,472.073 1808.31,472.067 1810.47,472.062 1812.63,472.057 1814.79,472.052 1816.95,472.047 1819.11,472.042 1821.27,472.037 1823.43,472.032 1825.6,472.027 1827.76,472.022 1829.92,472.017 1832.08,472.012 1834.24,472.008 1836.4,472.003 1838.56,471.998 1840.72,471.994 1842.88,471.989 1845.04,471.985 1847.2,471.981 1849.36,471.976 1851.52,471.972 1853.68,471.968 1855.84,471.963 1858,471.959 1860.16,471.955 1862.32,471.951 1864.48,471.947 1866.64,471.943 1868.81,471.939 1870.97,471.935 1873.13,471.931 1875.29,471.927 1877.45,471.923 1879.61,471.92 1881.77,471.916 1883.93,471.912 1886.09,471.909 1888.25,471.905 1890.41,471.901 1892.57,471.898 1894.73,471.894 1896.89,471.891 1899.05,471.888 1901.21,471.884 1903.37,471.881 1905.53,471.878 1907.69,471.874 1909.85,471.871 1912.02,471.868 1914.18,471.865 1916.34,471.862 1918.5,471.859 1920.66,471.855 1922.82,471.852 1924.98,471.849 1927.14,471.847 1929.3,471.844 1931.46,471.841 1933.62,471.838 1935.78,471.835 1937.94,471.832 1940.1,471.83 1942.26,471.827 1944.42,471.824 1946.58,471.821 1948.74,471.819 1950.9,471.816 1953.06,471.814 1955.22,471.811 1957.39,471.809 1959.55,471.806 1961.71,471.804 1963.87,471.801 1966.03,471.799 1968.19,471.796 1970.35,471.794 1972.51,471.792 1974.67,471.789 1976.83,471.787 1978.99,471.785 1981.15,471.783 1983.31,471.78 1985.47,471.778 1987.63,471.776 1989.79,471.774 1991.95,471.772 1994.11,471.77 1996.27,471.768 1998.43,471.765 2000.6,471.763 2002.76,471.761 2004.92,471.759 2007.08,471.757 2009.24,471.756 2011.4,471.754 2013.56,471.752 2015.72,471.75 2017.88,471.748 2020.04,471.746 2022.2,471.744 2024.36,471.742 2026.52,471.74 2028.68,471.739 2030.84,471.737 2033,471.735 2035.16,471.733 2037.32,471.732 2039.48,471.73 2041.64,471.728 2043.81,471.726 2045.97,471.725 2048.13,471.723 2050.29,471.721 2052.45,471.72 2054.61,471.718 2056.77,471.716 2058.93,471.715 2061.09,471.713 2063.25,471.712 2065.41,471.71 2067.57,471.708 2069.73,471.707 2071.89,471.705 2074.05,471.704 2076.21,471.702 2078.37,471.701 2080.53,471.699 2082.69,471.698 2084.85,471.696 2087.02,471.695 2089.18,471.693 2091.34,471.692 2093.5,471.69 2095.66,471.689 2097.82,471.688 2099.98,471.686 2102.14,471.685 2104.3,471.684 2106.46,471.682 2108.62,471.681 2110.78,471.68 2112.94,471.678 2115.1,471.677 2117.26,471.676 2119.42,471.674 2121.58,471.673 2123.74,471.672 2125.9,471.671 2128.06,471.67 2130.22,471.668 2132.39,471.667 2134.55,471.666 2136.71,471.665 2138.87,471.664 2141.03,471.663 2143.19,471.661 2145.35,471.66 2147.51,471.659 2149.67,471.658 2151.83,471.657 2153.99,471.656 2156.15,471.655 2158.31,471.654 2160.47,471.653 2162.63,471.652 2164.79,471.651 2166.95,471.65 2169.11,471.649 2171.27,471.648 2173.43,471.647 2175.6,471.646 2177.76,471.645 2179.92,471.644 2182.08,471.643 2184.24,471.642 2186.4,471.641 2188.56,471.64 2190.72,471.639 2192.88,471.638 2195.04,471.638 2197.2,471.637 2199.36,471.636 2201.52,471.635 2203.68,471.634 2205.84,471.633 2208,471.632 2210.16,471.632 2212.32,471.631 2214.48,471.63 2216.64,471.629 2218.81,471.628 2220.97,471.628 2223.13,471.627 2225.29,471.626 2227.45,471.625 2229.61,471.625 2231.77,471.624 2233.93,471.623 2236.09,471.622 2238.25,471.622 2240.41,471.621 2242.57,471.62 2244.73,471.62 2246.89,471.619 2249.05,471.618 2251.21,471.618 2253.37,471.617 2255.53,471.616 2257.69,471.616 2259.85,471.615 2262.02,471.614 2264.18,471.614 2266.34,471.613 2268.5,471.613 2270.66,471.612 2272.82,471.611 2274.98,471.611 2277.14,471.61 2279.3,471.61 2281.46,471.609 2283.62,471.608 2285.78,471.608 2287.94,471.607 2290.1,471.607 2292.26,471.606 2294.42,471.606 2296.58,471.605 2298.74,471.605 2300.9,471.604 2303.06,471.604 2305.23,471.603 2307.39,471.603 2309.55,471.602 2311.71,471.602 2313.87,471.601 2316.03,471.601 2318.19,471.6 2320.35,471.6 2322.51,471.599 2324.67,471.599 2326.83,471.598 2328.99,471.598 2331.15,471.597 2333.31,471.597 2335.47,471.596 2337.63,471.596 2339.79,471.595 2341.95,471.595 2344.11,471.595 2346.27,471.594 2348.43,471.594 2350.6,471.593 2352.76,471.593 "/>
<polyline clip-path="url(#clip822)" style="stroke:#e26f46; stroke-linecap:round; stroke-linejoin:round; stroke-width:4; stroke-opacity:1; fill:none" points="194.422,86.1857 196.583,89.9071 198.743,93.5922 200.904,97.2412 203.064,100.855 205.225,104.433 207.385,107.976 209.546,111.484 211.706,114.959 213.867,118.399 216.027,121.806 218.188,125.179 220.348,128.52 222.509,131.828 224.669,135.103 226.83,138.347 228.99,141.559 231.151,144.739 233.311,147.889 235.471,151.008 237.632,154.096 239.792,157.154 241.953,160.183 244.113,163.182 246.274,166.151 248.434,169.092 250.595,172.004 252.755,174.887 254.916,177.743 257.076,180.57 259.237,183.37 261.397,186.143 263.558,188.889 265.718,191.608 267.879,194.3 270.039,196.966 272.2,199.607 274.36,202.221 276.521,204.81 278.681,207.374 280.842,209.913 283.002,212.427 285.163,214.916 287.323,217.382 289.484,219.823 291.644,222.24 293.805,224.634 295.965,227.005 298.126,229.352 300.286,231.677 302.447,233.979 304.607,236.259 306.768,238.516 308.928,240.752 311.089,242.966 313.249,245.158 315.41,247.329 317.57,249.479 319.731,251.607 321.891,253.716 324.052,255.803 326.212,257.871 328.373,259.918 330.533,261.945 332.694,263.953 334.854,265.941 337.015,267.91 339.175,269.86 341.336,271.79 343.496,273.702 345.657,275.596 347.817,277.471 349.978,279.328 352.138,281.167 354.299,282.987 356.459,284.791 358.62,286.576 360.78,288.345 362.941,290.096 365.101,291.83 367.262,293.547 369.422,295.248 371.583,296.932 373.743,298.6 375.904,300.252 378.064,301.887 380.225,303.507 382.385,305.111 384.546,306.699 386.706,308.272 388.867,309.83 391.027,311.373 393.188,312.9 395.348,314.413 397.509,315.911 399.669,317.395 401.83,318.864 403.99,320.32 406.151,321.761 408.311,323.188 410.472,324.601 412.632,326 414.793,327.386 416.953,328.759 419.114,330.118 421.274,331.464 423.435,332.797 425.595,334.118 427.755,335.425 429.916,336.72 432.076,338.002 434.237,339.272 436.397,340.53 438.558,341.775 440.718,343.008 442.879,344.23 445.039,345.439 447.2,346.637 449.36,347.824 451.521,348.998 453.681,350.162 455.842,351.314 458.002,352.455 460.163,353.585 462.323,354.704 464.484,355.813 466.644,356.91 468.805,357.997 470.965,359.074 473.126,360.14 475.286,361.196 477.447,362.241 479.607,363.277 481.768,364.302 483.928,365.318 486.089,366.324 488.249,367.32 490.41,368.306 492.57,369.283 494.731,370.251 496.891,371.209 499.052,372.158 501.212,373.098 503.373,374.028 505.533,374.95 507.694,375.863 509.854,376.767 512.015,377.663 514.175,378.549 516.336,379.428 518.496,380.297 520.657,381.159 522.817,382.012 524.978,382.857 527.138,383.694 529.299,384.523 531.459,385.343 533.62,386.156 535.78,386.961 537.941,387.759 540.101,388.548 542.262,389.33 544.422,390.105 546.583,390.872 548.743,391.632 550.904,392.384 553.064,393.129 555.225,393.867 557.385,394.598 559.546,395.322 561.706,396.039 563.867,396.749 566.027,397.452 568.188,398.149 570.348,398.838 572.509,399.521 574.669,400.198 576.83,400.868 578.99,401.532 581.151,402.189 583.311,402.84 585.472,403.485 587.632,404.123 589.793,404.755 591.953,405.382 594.114,406.002 596.274,406.616 598.435,407.225 600.595,407.827 602.756,408.424 604.916,409.015 607.077,409.601 609.237,410.181 611.398,410.755 613.558,411.324 615.718,411.887 617.879,412.445 620.039,412.998 622.2,413.545 624.36,414.088 626.521,414.625 628.681,415.156 630.842,415.683 633.002,416.205 635.163,416.722 637.323,417.234 639.484,417.741 641.644,418.243 643.805,418.74 645.965,419.232 648.126,419.72 650.286,420.204 652.447,420.682 654.607,421.156 656.768,421.626 658.928,422.091 661.089,422.551 663.249,423.007 665.41,423.459 667.57,423.907 669.731,424.35 671.891,424.789 674.052,425.224 676.212,425.654 678.373,426.081 680.533,426.503 682.694,426.922 684.854,427.336 687.015,427.747 689.175,428.153 691.336,428.556 693.496,428.955 695.657,429.35 697.817,429.741 699.978,430.128 702.138,430.512 704.299,430.893 706.459,431.269 708.62,431.642 710.78,432.012 712.941,432.378 715.101,432.74 717.262,433.099 719.422,433.455 721.583,433.807 723.743,434.156 725.904,434.501 728.064,434.844 730.225,435.183 732.385,435.519 734.546,435.851 736.706,436.181 738.867,436.507 741.027,436.83 743.188,437.151 745.348,437.468 747.509,437.782 749.669,438.093 751.83,438.402 753.99,438.707 756.151,439.009 758.311,439.309 760.472,439.606 762.632,439.9 764.793,440.191 766.953,440.48 769.114,440.765 771.274,441.048 773.435,441.329 775.595,441.607 777.756,441.882 779.916,442.154 782.077,442.424 784.237,442.691 786.398,442.956 788.558,443.219 790.719,443.479 792.879,443.736 795.04,443.991 797.2,444.243 799.361,444.494 801.521,444.741 803.681,444.987 805.842,445.23 808.002,445.471 810.163,445.709 812.323,445.946 814.484,446.18 816.644,446.412 818.805,446.641 820.965,446.869 823.126,447.094 825.286,447.317 827.447,447.538 829.607,447.757 831.768,447.974 833.928,448.189 836.089,448.402 838.249,448.613 840.41,448.822 842.57,449.029 844.731,449.234 846.891,449.437 849.052,449.638 851.212,449.837 853.373,450.035 855.533,450.23 857.694,450.424 859.854,450.616 862.015,450.806 864.175,450.994 866.336,451.18 868.496,451.365 870.657,451.548 872.817,451.73 874.978,451.909 877.138,452.087 879.299,452.264 881.459,452.438 883.62,452.611 885.78,452.783 887.941,452.952 890.101,453.121 892.262,453.287 894.422,453.452 896.583,453.616 898.743,453.778 900.904,453.939 903.064,454.098 905.225,454.255 907.385,454.411 909.546,454.566 911.706,454.719 913.867,454.871 916.027,455.021 918.188,455.17 920.348,455.318 922.509,455.464 924.669,455.609 926.83,455.753 928.99,455.895 931.151,456.036 933.311,456.175 935.472,456.313 937.632,456.45 939.793,456.586 941.953,456.72 944.114,456.854 946.274,456.986 948.435,457.116 950.595,457.246 952.756,457.374 954.916,457.501 957.077,457.627 959.237,457.752 961.398,457.875 963.558,457.997 965.719,458.119 967.879,458.239 970.04,458.358 972.2,458.476 974.361,458.592 976.521,458.708 978.682,458.823 980.842,458.936 983.003,459.049 985.163,459.16 987.324,459.271 989.484,459.38 991.645,459.488 993.805,459.596 995.965,459.702 998.126,459.807 1000.29,459.912 1002.45,460.015 1004.61,460.118 1006.77,460.219 1008.93,460.32 1011.09,460.419 1013.25,460.518 1015.41,460.616 1017.57,460.713 1019.73,460.809 1021.89,460.904 1024.05,460.998 1026.21,461.092 1028.37,461.184 1030.53,461.276 1032.69,461.367 1034.85,461.457 1037.01,461.546 1039.18,461.634 1041.34,461.722 1043.5,461.809 1045.66,461.895 1047.82,461.98 1049.98,462.064 1052.14,462.148 1054.3,462.231 1056.46,462.313 1058.62,462.394 1060.78,462.475 1062.94,462.555 1065.1,462.634 1067.26,462.712 1069.42,462.79 1071.58,462.867 1073.74,462.943 1075.9,463.019 1078.06,463.094 1080.22,463.168 1082.39,463.242 1084.55,463.315 1086.71,463.387 1088.87,463.458 1091.03,463.529 1093.19,463.6 1095.35,463.669 1097.51,463.738 1099.67,463.807 1101.83,463.875 1103.99,463.942 1106.15,464.008 1108.31,464.074 1110.47,464.14 1112.63,464.204 1114.79,464.268 1116.95,464.332 1119.11,464.395 1121.27,464.457 1123.43,464.519 1125.6,464.581 1127.76,464.641 1129.92,464.701 1132.08,464.761 1134.24,464.82 1136.4,464.879 1138.56,464.936 1140.72,464.994 1142.88,465.051 1145.04,465.107 1147.2,465.163 1149.36,465.218 1151.52,465.273 1153.68,465.328 1155.84,465.382 1158,465.435 1160.16,465.488 1162.32,465.54 1164.48,465.592 1166.64,465.644 1168.81,465.695 1170.97,465.745 1173.13,465.795 1175.29,465.845 1177.45,465.894 1179.61,465.943 1181.77,465.991 1183.93,466.039 1186.09,466.086 1188.25,466.133 1190.41,466.179 1192.57,466.226 1194.73,466.271 1196.89,466.317 1199.05,466.361 1201.21,466.406 1203.37,466.45 1205.53,466.494 1207.69,466.537 1209.85,466.58 1212.01,466.622 1214.18,466.664 1216.34,466.706 1218.5,466.747 1220.66,466.788 1222.82,466.829 1224.98,466.869 1227.14,466.909 1229.3,466.949 1231.46,466.988 1233.62,467.027 1235.78,467.065 1237.94,467.103 1240.1,467.141 1242.26,467.179 1244.42,467.216 1246.58,467.253 1248.74,467.289 1250.9,467.325 1253.06,467.361 1255.22,467.397 1257.39,467.432 1259.55,467.467 1261.71,467.502 1263.87,467.536 1266.03,467.57 1268.19,467.604 1270.35,467.637 1272.51,467.67 1274.67,467.703 1276.83,467.736 1278.99,467.768 1281.15,467.8 1283.31,467.832 1285.47,467.863 1287.63,467.894 1289.79,467.925 1291.95,467.956 1294.11,467.986 1296.27,468.016 1298.43,468.046 1300.6,468.076 1302.76,468.105 1304.92,468.134 1307.08,468.163 1309.24,468.191 1311.4,468.219 1313.56,468.247 1315.72,468.275 1317.88,468.303 1320.04,468.33 1322.2,468.357 1324.36,468.384 1326.52,468.41 1328.68,468.437 1330.84,468.463 1333,468.489 1335.16,468.514 1337.32,468.54 1339.48,468.565 1341.64,468.59 1343.81,468.614 1345.97,468.639 1348.13,468.663 1350.29,468.687 1352.45,468.711 1354.61,468.735 1356.77,468.758 1358.93,468.781 1361.09,468.804 1363.25,468.827 1365.41,468.85 1367.57,468.872 1369.73,468.894 1371.89,468.916 1374.05,468.938 1376.21,468.96 1378.37,468.981 1380.53,469.002 1382.69,469.023 1384.85,469.044 1387.01,469.065 1389.18,469.085 1391.34,469.106 1393.5,469.126 1395.66,469.146 1397.82,469.166 1399.98,469.185 1402.14,469.205 1404.3,469.224 1406.46,469.243 1408.62,469.262 1410.78,469.28 1412.94,469.299 1415.1,469.317 1417.26,469.336 1419.42,469.354 1421.58,469.372 1423.74,469.39 1425.9,469.407 1428.06,469.425 1430.22,469.442 1432.39,469.459 1434.55,469.476 1436.71,469.493 1438.87,469.51 1441.03,469.526 1443.19,469.543 1445.35,469.559 1447.51,469.575 1449.67,469.591 1451.83,469.607 1453.99,469.623 1456.15,469.639 1458.31,469.654 1460.47,469.669 1462.63,469.685 1464.79,469.7 1466.95,469.715 1469.11,469.73 1471.27,469.744 1473.43,469.759 1475.6,469.773 1477.76,469.788 1479.92,469.802 1482.08,469.816 1484.24,469.83 1486.4,469.844 1488.56,469.858 1490.72,469.871 1492.88,469.885 1495.04,469.898 1497.2,469.912 1499.36,469.925 1501.52,469.938 1503.68,469.951 1505.84,469.964 1508,469.977 1510.16,469.99 1512.32,470.002 1514.48,470.015 1516.64,470.027 1518.81,470.039 1520.97,470.051 1523.13,470.063 1525.29,470.075 1527.45,470.087 1529.61,470.099 1531.77,470.111 1533.93,470.122 1536.09,470.134 1538.25,470.145 1540.41,470.156 1542.57,470.168 1544.73,470.179 1546.89,470.19 1549.05,470.2 1551.21,470.211 1553.37,470.222 1555.53,470.233 1557.69,470.243 1559.85,470.254 1562.01,470.264 1564.18,470.274 1566.34,470.284 1568.5,470.294 1570.66,470.304 1572.82,470.314 1574.98,470.324 1577.14,470.334 1579.3,470.344 1581.46,470.353 1583.62,470.363 1585.78,470.372 1587.94,470.381 1590.1,470.391 1592.26,470.4 1594.42,470.409 1596.58,470.418 1598.74,470.427 1600.9,470.436 1603.06,470.444 1605.22,470.453 1607.39,470.462 1609.55,470.47 1611.71,470.479 1613.87,470.487 1616.03,470.495 1618.19,470.504 1620.35,470.512 1622.51,470.52 1624.67,470.528 1626.83,470.536 1628.99,470.544 1631.15,470.552 1633.31,470.56 1635.47,470.567 1637.63,470.575 1639.79,470.583 1641.95,470.59 1644.11,470.597 1646.27,470.605 1648.43,470.612 1650.6,470.619 1652.76,470.627 1654.92,470.634 1657.08,470.641 1659.24,470.648 1661.4,470.655 1663.56,470.662 1665.72,470.669 1667.88,470.675 1670.04,470.682 1672.2,470.689 1674.36,470.695 1676.52,470.702 1678.68,470.708 1680.84,470.715 1683,470.721 1685.16,470.728 1687.32,470.734 1689.48,470.74 1691.64,470.746 1693.81,470.752 1695.97,470.758 1698.13,470.765 1700.29,470.771 1702.45,470.776 1704.61,470.782 1706.77,470.788 1708.93,470.794 1711.09,470.8 1713.25,470.805 1715.41,470.811 1717.57,470.817 1719.73,470.822 1721.89,470.828 1724.05,470.833 1726.21,470.839 1728.37,470.844 1730.53,470.849 1732.69,470.855 1734.85,470.86 1737.02,470.865 1739.18,470.87 1741.34,470.876 1743.5,470.881 1745.66,470.886 1747.82,470.891 1749.98,470.896 1752.14,470.901 1754.3,470.906 1756.46,470.911 1758.62,470.916 1760.78,470.92 1762.94,470.925 1765.1,470.93 1767.26,470.935 1769.42,470.939 1771.58,470.944 1773.74,470.949 1775.9,470.953 1778.06,470.958 1780.22,470.962 1782.39,470.967 1784.55,470.971 1786.71,470.976 1788.87,470.98 1791.03,470.984 1793.19,470.989 1795.35,470.993 1797.51,470.997 1799.67,471.001 1801.83,471.005 1803.99,471.01 1806.15,471.014 1808.31,471.018 1810.47,471.022 1812.63,471.026 1814.79,471.03 1816.95,471.034 1819.11,471.038 1821.27,471.041 1823.43,471.045 1825.6,471.049 1827.76,471.053 1829.92,471.057 1832.08,471.06 1834.24,471.064 1836.4,471.068 1838.56,471.071 1840.72,471.075 1842.88,471.078 1845.04,471.082 1847.2,471.086 1849.36,471.089 1851.52,471.092 1853.68,471.096 1855.84,471.099 1858,471.103 1860.16,471.106 1862.32,471.109 1864.48,471.113 1866.64,471.116 1868.81,471.119 1870.97,471.122 1873.13,471.126 1875.29,471.129 1877.45,471.132 1879.61,471.135 1881.77,471.138 1883.93,471.141 1886.09,471.144 1888.25,471.147 1890.41,471.15 1892.57,471.153 1894.73,471.156 1896.89,471.159 1899.05,471.162 1901.21,471.165 1903.37,471.167 1905.53,471.17 1907.69,471.173 1909.85,471.176 1912.02,471.179 1914.18,471.181 1916.34,471.184 1918.5,471.187 1920.66,471.189 1922.82,471.192 1924.98,471.194 1927.14,471.197 1929.3,471.2 1931.46,471.202 1933.62,471.205 1935.78,471.207 1937.94,471.21 1940.1,471.212 1942.26,471.215 1944.42,471.217 1946.58,471.219 1948.74,471.222 1950.9,471.224 1953.06,471.226 1955.22,471.229 1957.39,471.231 1959.55,471.233 1961.71,471.236 1963.87,471.238 1966.03,471.24 1968.19,471.242 1970.35,471.244 1972.51,471.247 1974.67,471.249 1976.83,471.251 1978.99,471.253 1981.15,471.255 1983.31,471.257 1985.47,471.259 1987.63,471.261 1989.79,471.263 1991.95,471.265 1994.11,471.267 1996.27,471.269 1998.43,471.271 2000.6,471.273 2002.76,471.275 2004.92,471.277 2007.08,471.279 2009.24,471.281 2011.4,471.283 2013.56,471.285 2015.72,471.287 2017.88,471.289 2020.04,471.29 2022.2,471.292 2024.36,471.294 2026.52,471.296 2028.68,471.298 2030.84,471.299 2033,471.301 2035.16,471.303 2037.32,471.305 2039.48,471.306 2041.64,471.308 2043.81,471.31 2045.97,471.311 2048.13,471.313 2050.29,471.315 2052.45,471.316 2054.61,471.318 2056.77,471.32 2058.93,471.321 2061.09,471.323 2063.25,471.325 2065.41,471.326 2067.57,471.328 2069.73,471.329 2071.89,471.331 2074.05,471.332 2076.21,471.334 2078.37,471.336 2080.53,471.337 2082.69,471.339 2084.85,471.34 2087.02,471.342 2089.18,471.343 2091.34,471.345 2093.5,471.346 2095.66,471.347 2097.82,471.349 2099.98,471.35 2102.14,471.352 2104.3,471.353 2106.46,471.354 2108.62,471.356 2110.78,471.357 2112.94,471.359 2115.1,471.36 2117.26,471.361 2119.42,471.363 2121.58,471.364 2123.74,471.365 2125.9,471.367 2128.06,471.368 2130.22,471.369 2132.39,471.37 2134.55,471.372 2136.71,471.373 2138.87,471.374 2141.03,471.375 2143.19,471.377 2145.35,471.378 2147.51,471.379 2149.67,471.38 2151.83,471.381 2153.99,471.383 2156.15,471.384 2158.31,471.385 2160.47,471.386 2162.63,471.387 2164.79,471.388 2166.95,471.39 2169.11,471.391 2171.27,471.392 2173.43,471.393 2175.6,471.394 2177.76,471.395 2179.92,471.396 2182.08,471.397 2184.24,471.398 2186.4,471.399 2188.56,471.4 2190.72,471.401 2192.88,471.402 2195.04,471.404 2197.2,471.405 2199.36,471.406 2201.52,471.407 2203.68,471.408 2205.84,471.409 2208,471.409 2210.16,471.41 2212.32,471.411 2214.48,471.412 2216.64,471.413 2218.81,471.414 2220.97,471.415 2223.13,471.416 2225.29,471.417 2227.45,471.418 2229.61,471.419 2231.77,471.42 2233.93,471.421 2236.09,471.422 2238.25,471.422 2240.41,471.423 2242.57,471.424 2244.73,471.425 2246.89,471.426 2249.05,471.427 2251.21,471.428 2253.37,471.428 2255.53,471.429 2257.69,471.43 2259.85,471.431 2262.02,471.432 2264.18,471.433 2266.34,471.433 2268.5,471.434 2270.66,471.435 2272.82,471.436 2274.98,471.436 2277.14,471.437 2279.3,471.438 2281.46,471.439 2283.62,471.439 2285.78,471.44 2287.94,471.441 2290.1,471.442 2292.26,471.442 2294.42,471.443 2296.58,471.444 2298.74,471.445 2300.9,471.445 2303.06,471.446 2305.23,471.447 2307.39,471.447 2309.55,471.448 2311.71,471.449 2313.87,471.449 2316.03,471.45 2318.19,471.451 2320.35,471.452 2322.51,471.452 2324.67,471.453 2326.83,471.453 2328.99,471.454 2331.15,471.455 2333.31,471.455 2335.47,471.456 2337.63,471.457 2339.79,471.457 2341.95,471.458 2344.11,471.459 2346.27,471.459 2348.43,471.46 2350.6,471.46 2352.76,471.461 "/>
<path clip-path="url(#clip820)" d="M1805.58 248.629 L2280.81 248.629 L2280.81 93.1086 L1805.58 93.1086  Z" fill="#ffffff" fill-rule="evenodd" fill-opacity="1"/>
<polyline clip-path="url(#clip820)" style="stroke:#000000; stroke-linecap:round; stroke-linejoin:round; stroke-width:4; stroke-opacity:1; fill:none" points="1805.58,248.629 2280.81,248.629 2280.81,93.1086 1805.58,93.1086 1805.58,248.629 "/>
<polyline clip-path="url(#clip820)" style="stroke:#009af9; stroke-linecap:round; stroke-linejoin:round; stroke-width:4; stroke-opacity:1; fill:none" points="1829.56,144.949 1973.45,144.949 "/>
<path clip-path="url(#clip820)" d="M1997.43 136.303 L2001.95 136.303 L2010.05 158.062 L2018.15 136.303 L2022.66 136.303 L2012.94 162.229 L2007.16 162.229 L1997.43 136.303 Z" fill="#000000" fill-rule="nonzero" fill-opacity="1" /><path clip-path="url(#clip820)" d="M2029.96 158.293 L2037.6 158.293 L2037.6 131.928 L2029.28 133.595 L2029.28 129.335 L2037.55 127.669 L2042.22 127.669 L2042.22 158.293 L2049.86 158.293 L2049.86 162.229 L2029.96 162.229 L2029.96 158.293 Z" fill="#000000" fill-rule="nonzero" fill-opacity="1" /><path clip-path="url(#clip820)" d="M2067.97 145.585 L2067.97 152.807 L2076.09 152.807 L2076.09 155.006 L2067.97 155.006 L2067.97 162.229 L2065.53 162.229 L2065.53 155.006 L2057.41 155.006 L2057.41 152.807 L2065.53 152.807 L2065.53 145.585 L2067.97 145.585 Z" fill="#000000" fill-rule="nonzero" fill-opacity="1" /><path clip-path="url(#clip820)" d="M2100.26 137.067 L2100.26 141.094 Q2098.45 140.169 2096.51 139.706 Q2094.56 139.243 2092.48 139.243 Q2089.31 139.243 2087.71 140.215 Q2086.14 141.187 2086.14 143.131 Q2086.14 144.613 2087.27 145.469 Q2088.4 146.303 2091.83 147.067 L2093.29 147.391 Q2097.83 148.363 2099.72 150.145 Q2101.65 151.905 2101.65 155.076 Q2101.65 158.687 2098.78 160.793 Q2095.93 162.9 2090.93 162.9 Q2088.84 162.9 2086.58 162.483 Q2084.33 162.09 2081.83 161.28 L2081.83 156.881 Q2084.19 158.108 2086.48 158.733 Q2088.78 159.335 2091.02 159.335 Q2094.03 159.335 2095.65 158.317 Q2097.27 157.275 2097.27 155.4 Q2097.27 153.664 2096.09 152.738 Q2094.93 151.812 2090.97 150.956 L2089.49 150.608 Q2085.53 149.775 2083.78 148.062 Q2082.02 146.326 2082.02 143.317 Q2082.02 139.659 2084.61 137.669 Q2087.2 135.678 2091.97 135.678 Q2094.33 135.678 2096.41 136.025 Q2098.5 136.372 2100.26 137.067 Z" fill="#000000" fill-rule="nonzero" fill-opacity="1" /><path clip-path="url(#clip820)" d="M2112.64 128.942 L2112.64 136.303 L2121.41 136.303 L2121.41 139.613 L2112.64 139.613 L2112.64 153.687 Q2112.64 156.858 2113.5 157.761 Q2114.38 158.664 2117.04 158.664 L2121.41 158.664 L2121.41 162.229 L2117.04 162.229 Q2112.11 162.229 2110.23 160.4 Q2108.36 158.548 2108.36 153.687 L2108.36 139.613 L2105.23 139.613 L2105.23 136.303 L2108.36 136.303 L2108.36 128.942 L2112.64 128.942 Z" fill="#000000" fill-rule="nonzero" fill-opacity="1" /><path clip-path="url(#clip820)" d="M2137.06 139.289 Q2133.64 139.289 2131.65 141.974 Q2129.65 144.636 2129.65 149.289 Q2129.65 153.942 2131.62 156.627 Q2133.61 159.289 2137.06 159.289 Q2140.46 159.289 2142.46 156.604 Q2144.45 153.918 2144.45 149.289 Q2144.45 144.682 2142.46 141.997 Q2140.46 139.289 2137.06 139.289 M2137.06 135.678 Q2142.62 135.678 2145.79 139.289 Q2148.96 142.9 2148.96 149.289 Q2148.96 155.655 2145.79 159.289 Q2142.62 162.9 2137.06 162.9 Q2131.48 162.9 2128.31 159.289 Q2125.16 155.655 2125.16 149.289 Q2125.16 142.9 2128.31 139.289 Q2131.48 135.678 2137.06 135.678 Z" fill="#000000" fill-rule="nonzero" fill-opacity="1" /><path clip-path="url(#clip820)" d="M2171.04 140.284 Q2170.33 139.868 2169.47 139.682 Q2168.64 139.474 2167.62 139.474 Q2164.01 139.474 2162.06 141.835 Q2160.14 144.173 2160.14 148.571 L2160.14 162.229 L2155.86 162.229 L2155.86 136.303 L2160.14 136.303 L2160.14 140.331 Q2161.48 137.969 2163.64 136.835 Q2165.79 135.678 2168.87 135.678 Q2169.31 135.678 2169.84 135.747 Q2170.37 135.794 2171.02 135.909 L2171.04 140.284 Z" fill="#000000" fill-rule="nonzero" fill-opacity="1" /><path clip-path="url(#clip820)" d="M2187.29 149.196 Q2182.13 149.196 2180.14 150.377 Q2178.15 151.557 2178.15 154.405 Q2178.15 156.673 2179.63 158.016 Q2181.14 159.335 2183.71 159.335 Q2187.25 159.335 2189.38 156.835 Q2191.53 154.312 2191.53 150.145 L2191.53 149.196 L2187.29 149.196 M2195.79 147.437 L2195.79 162.229 L2191.53 162.229 L2191.53 158.293 Q2190.07 160.655 2187.9 161.789 Q2185.72 162.9 2182.57 162.9 Q2178.59 162.9 2176.23 160.678 Q2173.89 158.432 2173.89 154.682 Q2173.89 150.307 2176.81 148.085 Q2179.75 145.863 2185.56 145.863 L2191.53 145.863 L2191.53 145.446 Q2191.53 142.507 2189.58 140.909 Q2187.66 139.289 2184.17 139.289 Q2181.95 139.289 2179.84 139.821 Q2177.73 140.354 2175.79 141.419 L2175.79 137.483 Q2178.13 136.581 2180.33 136.141 Q2182.52 135.678 2184.61 135.678 Q2190.23 135.678 2193.01 138.594 Q2195.79 141.511 2195.79 147.437 Z" fill="#000000" fill-rule="nonzero" fill-opacity="1" /><path clip-path="url(#clip820)" d="M2221.62 148.965 Q2221.62 144.335 2219.7 141.789 Q2217.8 139.243 2214.35 139.243 Q2210.93 139.243 2209.01 141.789 Q2207.11 144.335 2207.11 148.965 Q2207.11 153.571 2209.01 156.118 Q2210.93 158.664 2214.35 158.664 Q2217.8 158.664 2219.7 156.118 Q2221.62 153.571 2221.62 148.965 M2225.88 159.011 Q2225.88 165.631 2222.94 168.849 Q2220 172.09 2213.94 172.09 Q2211.69 172.09 2209.7 171.742 Q2207.71 171.418 2205.83 170.724 L2205.83 166.58 Q2207.71 167.599 2209.54 168.085 Q2211.37 168.571 2213.27 168.571 Q2217.46 168.571 2219.54 166.372 Q2221.62 164.196 2221.62 159.775 L2221.62 157.668 Q2220.3 159.96 2218.24 161.094 Q2216.18 162.229 2213.31 162.229 Q2208.54 162.229 2205.63 158.594 Q2202.71 154.96 2202.71 148.965 Q2202.71 142.946 2205.63 139.312 Q2208.54 135.678 2213.31 135.678 Q2216.18 135.678 2218.24 136.812 Q2220.3 137.946 2221.62 140.238 L2221.62 136.303 L2225.88 136.303 L2225.88 159.011 Z" fill="#000000" fill-rule="nonzero" fill-opacity="1" /><path clip-path="url(#clip820)" d="M2256.83 148.201 L2256.83 150.284 L2237.25 150.284 Q2237.52 154.682 2239.89 156.997 Q2242.27 159.289 2246.51 159.289 Q2248.96 159.289 2251.25 158.687 Q2253.57 158.085 2255.83 156.881 L2255.83 160.909 Q2253.54 161.881 2251.14 162.391 Q2248.73 162.9 2246.25 162.9 Q2240.05 162.9 2236.41 159.289 Q2232.8 155.678 2232.8 149.52 Q2232.8 143.155 2236.23 139.428 Q2239.68 135.678 2245.51 135.678 Q2250.74 135.678 2253.77 139.057 Q2256.83 142.414 2256.83 148.201 M2252.57 146.951 Q2252.52 143.456 2250.6 141.372 Q2248.71 139.289 2245.56 139.289 Q2241.99 139.289 2239.84 141.303 Q2237.71 143.317 2237.39 146.974 L2252.57 146.951 Z" fill="#000000" fill-rule="nonzero" fill-opacity="1" /><polyline clip-path="url(#clip820)" style="stroke:#e26f46; stroke-linecap:round; stroke-linejoin:round; stroke-width:4; stroke-opacity:1; fill:none" points="1829.56,196.789 1973.45,196.789 "/>
<path clip-path="url(#clip820)" d="M1997.43 188.143 L2001.95 188.143 L2010.05 209.902 L2018.15 188.143 L2022.66 188.143 L2012.94 214.069 L2007.16 214.069 L1997.43 188.143 Z" fill="#000000" fill-rule="nonzero" fill-opacity="1" /><path clip-path="url(#clip820)" d="M2029.19 179.509 L2047.55 179.509 L2047.55 183.444 L2033.47 183.444 L2033.47 191.916 Q2034.49 191.569 2035.51 191.407 Q2036.53 191.222 2037.55 191.222 Q2043.34 191.222 2046.72 194.393 Q2050.09 197.564 2050.09 202.981 Q2050.09 208.559 2046.62 211.661 Q2043.15 214.74 2036.83 214.74 Q2034.66 214.74 2032.39 214.37 Q2030.14 213.999 2027.73 213.258 L2027.73 208.559 Q2029.82 209.694 2032.04 210.249 Q2034.26 210.805 2036.74 210.805 Q2040.74 210.805 2043.08 208.698 Q2045.42 206.592 2045.42 202.981 Q2045.42 199.37 2043.08 197.263 Q2040.74 195.157 2036.74 195.157 Q2034.86 195.157 2032.99 195.573 Q2031.14 195.99 2029.19 196.87 L2029.19 179.509 Z" fill="#000000" fill-rule="nonzero" fill-opacity="1" /><path clip-path="url(#clip820)" d="M2067.97 197.425 L2067.97 204.647 L2076.09 204.647 L2076.09 206.846 L2067.97 206.846 L2067.97 214.069 L2065.53 214.069 L2065.53 206.846 L2057.41 206.846 L2057.41 204.647 L2065.53 204.647 L2065.53 197.425 L2067.97 197.425 Z" fill="#000000" fill-rule="nonzero" fill-opacity="1" /><path clip-path="url(#clip820)" d="M2100.26 188.907 L2100.26 192.934 Q2098.45 192.009 2096.51 191.546 Q2094.56 191.083 2092.48 191.083 Q2089.31 191.083 2087.71 192.055 Q2086.14 193.027 2086.14 194.971 Q2086.14 196.453 2087.27 197.309 Q2088.4 198.143 2091.83 198.907 L2093.29 199.231 Q2097.83 200.203 2099.72 201.985 Q2101.65 203.745 2101.65 206.916 Q2101.65 210.527 2098.78 212.633 Q2095.93 214.74 2090.93 214.74 Q2088.84 214.74 2086.58 214.323 Q2084.33 213.93 2081.83 213.12 L2081.83 208.721 Q2084.19 209.948 2086.48 210.573 Q2088.78 211.175 2091.02 211.175 Q2094.03 211.175 2095.65 210.157 Q2097.27 209.115 2097.27 207.24 Q2097.27 205.504 2096.09 204.578 Q2094.93 203.652 2090.97 202.796 L2089.49 202.448 Q2085.53 201.615 2083.78 199.902 Q2082.02 198.166 2082.02 195.157 Q2082.02 191.499 2084.61 189.509 Q2087.2 187.518 2091.97 187.518 Q2094.33 187.518 2096.41 187.865 Q2098.5 188.212 2100.26 188.907 Z" fill="#000000" fill-rule="nonzero" fill-opacity="1" /><path clip-path="url(#clip820)" d="M2112.64 180.782 L2112.64 188.143 L2121.41 188.143 L2121.41 191.453 L2112.64 191.453 L2112.64 205.527 Q2112.64 208.698 2113.5 209.601 Q2114.38 210.504 2117.04 210.504 L2121.41 210.504 L2121.41 214.069 L2117.04 214.069 Q2112.11 214.069 2110.23 212.24 Q2108.36 210.388 2108.36 205.527 L2108.36 191.453 L2105.23 191.453 L2105.23 188.143 L2108.36 188.143 L2108.36 180.782 L2112.64 180.782 Z" fill="#000000" fill-rule="nonzero" fill-opacity="1" /><path clip-path="url(#clip820)" d="M2137.06 191.129 Q2133.64 191.129 2131.65 193.814 Q2129.65 196.476 2129.65 201.129 Q2129.65 205.782 2131.62 208.467 Q2133.61 211.129 2137.06 211.129 Q2140.46 211.129 2142.46 208.444 Q2144.45 205.758 2144.45 201.129 Q2144.45 196.522 2142.46 193.837 Q2140.46 191.129 2137.06 191.129 M2137.06 187.518 Q2142.62 187.518 2145.79 191.129 Q2148.96 194.74 2148.96 201.129 Q2148.96 207.495 2145.79 211.129 Q2142.62 214.74 2137.06 214.74 Q2131.48 214.74 2128.31 211.129 Q2125.16 207.495 2125.16 201.129 Q2125.16 194.74 2128.31 191.129 Q2131.48 187.518 2137.06 187.518 Z" fill="#000000" fill-rule="nonzero" fill-opacity="1" /><path clip-path="url(#clip820)" d="M2171.04 192.124 Q2170.33 191.708 2169.47 191.522 Q2168.64 191.314 2167.62 191.314 Q2164.01 191.314 2162.06 193.675 Q2160.14 196.013 2160.14 200.411 L2160.14 214.069 L2155.86 214.069 L2155.86 188.143 L2160.14 188.143 L2160.14 192.171 Q2161.48 189.809 2163.64 188.675 Q2165.79 187.518 2168.87 187.518 Q2169.31 187.518 2169.84 187.587 Q2170.37 187.634 2171.02 187.749 L2171.04 192.124 Z" fill="#000000" fill-rule="nonzero" fill-opacity="1" /><path clip-path="url(#clip820)" d="M2187.29 201.036 Q2182.13 201.036 2180.14 202.217 Q2178.15 203.397 2178.15 206.245 Q2178.15 208.513 2179.63 209.856 Q2181.14 211.175 2183.71 211.175 Q2187.25 211.175 2189.38 208.675 Q2191.53 206.152 2191.53 201.985 L2191.53 201.036 L2187.29 201.036 M2195.79 199.277 L2195.79 214.069 L2191.53 214.069 L2191.53 210.133 Q2190.07 212.495 2187.9 213.629 Q2185.72 214.74 2182.57 214.74 Q2178.59 214.74 2176.23 212.518 Q2173.89 210.272 2173.89 206.522 Q2173.89 202.147 2176.81 199.925 Q2179.75 197.703 2185.56 197.703 L2191.53 197.703 L2191.53 197.286 Q2191.53 194.347 2189.58 192.749 Q2187.66 191.129 2184.17 191.129 Q2181.95 191.129 2179.84 191.661 Q2177.73 192.194 2175.79 193.259 L2175.79 189.323 Q2178.13 188.421 2180.33 187.981 Q2182.52 187.518 2184.61 187.518 Q2190.23 187.518 2193.01 190.434 Q2195.79 193.351 2195.79 199.277 Z" fill="#000000" fill-rule="nonzero" fill-opacity="1" /><path clip-path="url(#clip820)" d="M2221.62 200.805 Q2221.62 196.175 2219.7 193.629 Q2217.8 191.083 2214.35 191.083 Q2210.93 191.083 2209.01 193.629 Q2207.11 196.175 2207.11 200.805 Q2207.11 205.411 2209.01 207.958 Q2210.93 210.504 2214.35 210.504 Q2217.8 210.504 2219.7 207.958 Q2221.62 205.411 2221.62 200.805 M2225.88 210.851 Q2225.88 217.471 2222.94 220.689 Q2220 223.93 2213.94 223.93 Q2211.69 223.93 2209.7 223.582 Q2207.71 223.258 2205.83 222.564 L2205.83 218.42 Q2207.71 219.439 2209.54 219.925 Q2211.37 220.411 2213.27 220.411 Q2217.46 220.411 2219.54 218.212 Q2221.62 216.036 2221.62 211.615 L2221.62 209.508 Q2220.3 211.8 2218.24 212.934 Q2216.18 214.069 2213.31 214.069 Q2208.54 214.069 2205.63 210.434 Q2202.71 206.8 2202.71 200.805 Q2202.71 194.786 2205.63 191.152 Q2208.54 187.518 2213.31 187.518 Q2216.18 187.518 2218.24 188.652 Q2220.3 189.786 2221.62 192.078 L2221.62 188.143 L2225.88 188.143 L2225.88 210.851 Z" fill="#000000" fill-rule="nonzero" fill-opacity="1" /><path clip-path="url(#clip820)" d="M2256.83 200.041 L2256.83 202.124 L2237.25 202.124 Q2237.52 206.522 2239.89 208.837 Q2242.27 211.129 2246.51 211.129 Q2248.96 211.129 2251.25 210.527 Q2253.57 209.925 2255.83 208.721 L2255.83 212.749 Q2253.54 213.721 2251.14 214.231 Q2248.73 214.74 2246.25 214.74 Q2240.05 214.74 2236.41 211.129 Q2232.8 207.518 2232.8 201.36 Q2232.8 194.995 2236.23 191.268 Q2239.68 187.518 2245.51 187.518 Q2250.74 187.518 2253.77 190.897 Q2256.83 194.254 2256.83 200.041 M2252.57 198.791 Q2252.52 195.296 2250.6 193.212 Q2248.71 191.129 2245.56 191.129 Q2241.99 191.129 2239.84 193.143 Q2237.71 195.157 2237.39 198.814 L2252.57 198.791 Z" fill="#000000" fill-rule="nonzero" fill-opacity="1" /></svg>
