<?xml version="1.0" encoding="utf-8"?>
<svg xmlns="http://www.w3.org/2000/svg" xmlns:xlink="http://www.w3.org/1999/xlink" width="600" height="400" viewBox="0 0 2400 1600">
<defs>
  <clipPath id="clip670">
    <rect x="0" y="0" width="2400" height="1600"/>
  </clipPath>
</defs>
<path clip-path="url(#clip670)" d="M0 1600 L2400 1600 L2400 0 L0 0  Z" fill="#ffffff" fill-rule="evenodd" fill-opacity="1"/>
<defs>
  <clipPath id="clip671">
    <rect x="480" y="0" width="1681" height="1600"/>
  </clipPath>
</defs>
<path clip-path="url(#clip670)" d="M194.422 1423.18 L2352.76 1423.18 L2352.76 47.2441 L194.422 47.2441  Z" fill="#ffffff" fill-rule="evenodd" fill-opacity="1"/>
<defs>
  <clipPath id="clip672">
    <rect x="194" y="47" width="2159" height="1377"/>
  </clipPath>
</defs>
<polyline clip-path="url(#clip672)" style="stroke:#000000; stroke-linecap:round; stroke-linejoin:round; stroke-width:2; stroke-opacity:0.1; fill:none" points="194.422,1423.18 194.422,47.2441 "/>
<polyline clip-path="url(#clip672)" style="stroke:#000000; stroke-linecap:round; stroke-linejoin:round; stroke-width:2; stroke-opacity:0.1; fill:none" points="734.006,1423.18 734.006,47.2441 "/>
<polyline clip-path="url(#clip672)" style="stroke:#000000; stroke-linecap:round; stroke-linejoin:round; stroke-width:2; stroke-opacity:0.1; fill:none" points="1273.59,1423.18 1273.59,47.2441 "/>
<polyline clip-path="url(#clip672)" style="stroke:#000000; stroke-linecap:round; stroke-linejoin:round; stroke-width:2; stroke-opacity:0.1; fill:none" points="1813.17,1423.18 1813.17,47.2441 "/>
<polyline clip-path="url(#clip672)" style="stroke:#000000; stroke-linecap:round; stroke-linejoin:round; stroke-width:2; stroke-opacity:0.1; fill:none" points="2352.76,1423.18 2352.76,47.2441 "/>
<polyline clip-path="url(#clip672)" style="stroke:#000000; stroke-linecap:round; stroke-linejoin:round; stroke-width:2; stroke-opacity:0.1; fill:none" points="194.422,1338.38 2352.76,1338.38 "/>
<polyline clip-path="url(#clip672)" style="stroke:#000000; stroke-linecap:round; stroke-linejoin:round; stroke-width:2; stroke-opacity:0.1; fill:none" points="194.422,1100.35 2352.76,1100.35 "/>
<polyline clip-path="url(#clip672)" style="stroke:#000000; stroke-linecap:round; stroke-linejoin:round; stroke-width:2; stroke-opacity:0.1; fill:none" points="194.422,862.312 2352.76,862.312 "/>
<polyline clip-path="url(#clip672)" style="stroke:#000000; stroke-linecap:round; stroke-linejoin:round; stroke-width:2; stroke-opacity:0.1; fill:none" points="194.422,624.279 2352.76,624.279 "/>
<polyline clip-path="url(#clip672)" style="stroke:#000000; stroke-linecap:round; stroke-linejoin:round; stroke-width:2; stroke-opacity:0.1; fill:none" points="194.422,386.245 2352.76,386.245 "/>
<polyline clip-path="url(#clip672)" style="stroke:#000000; stroke-linecap:round; stroke-linejoin:round; stroke-width:2; stroke-opacity:0.1; fill:none" points="194.422,148.212 2352.76,148.212 "/>
<polyline clip-path="url(#clip670)" style="stroke:#000000; stroke-linecap:round; stroke-linejoin:round; stroke-width:4; stroke-opacity:1; fill:none" points="194.422,1423.18 2352.76,1423.18 "/>
<polyline clip-path="url(#clip670)" style="stroke:#000000; stroke-linecap:round; stroke-linejoin:round; stroke-width:4; stroke-opacity:1; fill:none" points="194.422,1423.18 194.422,1404.28 "/>
<polyline clip-path="url(#clip670)" style="stroke:#000000; stroke-linecap:round; stroke-linejoin:round; stroke-width:4; stroke-opacity:1; fill:none" points="734.006,1423.18 734.006,1404.28 "/>
<polyline clip-path="url(#clip670)" style="stroke:#000000; stroke-linecap:round; stroke-linejoin:round; stroke-width:4; stroke-opacity:1; fill:none" points="1273.59,1423.18 1273.59,1404.28 "/>
<polyline clip-path="url(#clip670)" style="stroke:#000000; stroke-linecap:round; stroke-linejoin:round; stroke-width:4; stroke-opacity:1; fill:none" points="1813.17,1423.18 1813.17,1404.28 "/>
<polyline clip-path="url(#clip670)" style="stroke:#000000; stroke-linecap:round; stroke-linejoin:round; stroke-width:4; stroke-opacity:1; fill:none" points="2352.76,1423.18 2352.76,1404.28 "/>
<path clip-path="url(#clip670)" d="M171.806 1454.1 Q168.195 1454.1 166.367 1457.66 Q164.561 1461.2 164.561 1468.33 Q164.561 1475.44 166.367 1479.01 Q168.195 1482.55 171.806 1482.55 Q175.441 1482.55 177.246 1479.01 Q179.075 1475.44 179.075 1468.33 Q179.075 1461.2 177.246 1457.66 Q175.441 1454.1 171.806 1454.1 M171.806 1450.39 Q177.617 1450.39 180.672 1455 Q183.751 1459.58 183.751 1468.33 Q183.751 1477.06 180.672 1481.67 Q177.617 1486.25 171.806 1486.25 Q165.996 1486.25 162.918 1481.67 Q159.862 1477.06 159.862 1468.33 Q159.862 1459.58 162.918 1455 Q165.996 1450.39 171.806 1450.39 Z" fill="#000000" fill-rule="nonzero" fill-opacity="1" /><path clip-path="url(#clip670)" d="M191.968 1479.7 L196.853 1479.7 L196.853 1485.58 L191.968 1485.58 L191.968 1479.7 Z" fill="#000000" fill-rule="nonzero" fill-opacity="1" /><path clip-path="url(#clip670)" d="M217.038 1454.1 Q213.427 1454.1 211.598 1457.66 Q209.792 1461.2 209.792 1468.33 Q209.792 1475.44 211.598 1479.01 Q213.427 1482.55 217.038 1482.55 Q220.672 1482.55 222.478 1479.01 Q224.306 1475.44 224.306 1468.33 Q224.306 1461.2 222.478 1457.66 Q220.672 1454.1 217.038 1454.1 M217.038 1450.39 Q222.848 1450.39 225.903 1455 Q228.982 1459.58 228.982 1468.33 Q228.982 1477.06 225.903 1481.67 Q222.848 1486.25 217.038 1486.25 Q211.228 1486.25 208.149 1481.67 Q205.093 1477.06 205.093 1468.33 Q205.093 1459.58 208.149 1455 Q211.228 1450.39 217.038 1450.39 Z" fill="#000000" fill-rule="nonzero" fill-opacity="1" /><path clip-path="url(#clip670)" d="M711.888 1454.1 Q708.277 1454.1 706.448 1457.66 Q704.642 1461.2 704.642 1468.33 Q704.642 1475.44 706.448 1479.01 Q708.277 1482.55 711.888 1482.55 Q715.522 1482.55 717.327 1479.01 Q719.156 1475.44 719.156 1468.33 Q719.156 1461.2 717.327 1457.66 Q715.522 1454.1 711.888 1454.1 M711.888 1450.39 Q717.698 1450.39 720.753 1455 Q723.832 1459.58 723.832 1468.33 Q723.832 1477.06 720.753 1481.67 Q717.698 1486.25 711.888 1486.25 Q706.077 1486.25 702.999 1481.67 Q699.943 1477.06 699.943 1468.33 Q699.943 1459.58 702.999 1455 Q706.077 1450.39 711.888 1450.39 Z" fill="#000000" fill-rule="nonzero" fill-opacity="1" /><path clip-path="url(#clip670)" d="M732.05 1479.7 L736.934 1479.7 L736.934 1485.58 L732.05 1485.58 L732.05 1479.7 Z" fill="#000000" fill-rule="nonzero" fill-opacity="1" /><path clip-path="url(#clip670)" d="M747.165 1451.02 L765.522 1451.02 L765.522 1454.96 L751.448 1454.96 L751.448 1463.43 Q752.466 1463.08 753.485 1462.92 Q754.503 1462.73 755.522 1462.73 Q761.309 1462.73 764.688 1465.9 Q768.068 1469.08 768.068 1474.49 Q768.068 1480.07 764.596 1483.17 Q761.123 1486.25 754.804 1486.25 Q752.628 1486.25 750.36 1485.88 Q748.114 1485.51 745.707 1484.77 L745.707 1480.07 Q747.79 1481.2 750.012 1481.76 Q752.235 1482.32 754.711 1482.32 Q758.716 1482.32 761.054 1480.21 Q763.392 1478.1 763.392 1474.49 Q763.392 1470.88 761.054 1468.77 Q758.716 1466.67 754.711 1466.67 Q752.836 1466.67 750.961 1467.08 Q749.11 1467.5 747.165 1468.38 L747.165 1451.02 Z" fill="#000000" fill-rule="nonzero" fill-opacity="1" /><path clip-path="url(#clip670)" d="M1240.74 1481.64 L1248.38 1481.64 L1248.38 1455.28 L1240.07 1456.95 L1240.07 1452.69 L1248.33 1451.02 L1253.01 1451.02 L1253.01 1481.64 L1260.65 1481.64 L1260.65 1485.58 L1240.74 1485.58 L1240.74 1481.64 Z" fill="#000000" fill-rule="nonzero" fill-opacity="1" /><path clip-path="url(#clip670)" d="M1270.09 1479.7 L1274.98 1479.7 L1274.98 1485.58 L1270.09 1485.58 L1270.09 1479.7 Z" fill="#000000" fill-rule="nonzero" fill-opacity="1" /><path clip-path="url(#clip670)" d="M1295.16 1454.1 Q1291.55 1454.1 1289.72 1457.66 Q1287.92 1461.2 1287.92 1468.33 Q1287.92 1475.44 1289.72 1479.01 Q1291.55 1482.55 1295.16 1482.55 Q1298.8 1482.55 1300.6 1479.01 Q1302.43 1475.44 1302.43 1468.33 Q1302.43 1461.2 1300.6 1457.66 Q1298.8 1454.1 1295.16 1454.1 M1295.16 1450.39 Q1300.97 1450.39 1304.03 1455 Q1307.11 1459.58 1307.11 1468.33 Q1307.11 1477.06 1304.03 1481.67 Q1300.97 1486.25 1295.16 1486.25 Q1289.35 1486.25 1286.27 1481.67 Q1283.22 1477.06 1283.22 1468.33 Q1283.22 1459.58 1286.27 1455 Q1289.35 1450.39 1295.16 1450.39 Z" fill="#000000" fill-rule="nonzero" fill-opacity="1" /><path clip-path="url(#clip670)" d="M1780.82 1481.64 L1788.46 1481.64 L1788.46 1455.28 L1780.15 1456.95 L1780.15 1452.69 L1788.42 1451.02 L1793.09 1451.02 L1793.09 1481.64 L1800.73 1481.64 L1800.73 1485.58 L1780.82 1485.58 L1780.82 1481.64 Z" fill="#000000" fill-rule="nonzero" fill-opacity="1" /><path clip-path="url(#clip670)" d="M1810.17 1479.7 L1815.06 1479.7 L1815.06 1485.58 L1810.17 1485.58 L1810.17 1479.7 Z" fill="#000000" fill-rule="nonzero" fill-opacity="1" /><path clip-path="url(#clip670)" d="M1825.29 1451.02 L1843.65 1451.02 L1843.65 1454.96 L1829.57 1454.96 L1829.57 1463.43 Q1830.59 1463.08 1831.61 1462.92 Q1832.63 1462.73 1833.65 1462.73 Q1839.43 1462.73 1842.81 1465.9 Q1846.19 1469.08 1846.19 1474.49 Q1846.19 1480.07 1842.72 1483.17 Q1839.25 1486.25 1832.93 1486.25 Q1830.75 1486.25 1828.48 1485.88 Q1826.24 1485.51 1823.83 1484.77 L1823.83 1480.07 Q1825.92 1481.2 1828.14 1481.76 Q1830.36 1482.32 1832.84 1482.32 Q1836.84 1482.32 1839.18 1480.21 Q1841.52 1478.1 1841.52 1474.49 Q1841.52 1470.88 1839.18 1468.77 Q1836.84 1466.67 1832.84 1466.67 Q1830.96 1466.67 1829.09 1467.08 Q1827.23 1467.5 1825.29 1468.38 L1825.29 1451.02 Z" fill="#000000" fill-rule="nonzero" fill-opacity="1" /><path clip-path="url(#clip670)" d="M2323.99 1481.64 L2340.31 1481.64 L2340.31 1485.58 L2318.37 1485.58 L2318.37 1481.64 Q2321.03 1478.89 2325.61 1474.26 Q2330.22 1469.61 2331.4 1468.27 Q2333.65 1465.74 2334.53 1464.01 Q2335.43 1462.25 2335.43 1460.56 Q2335.43 1457.8 2333.49 1456.07 Q2331.56 1454.33 2328.46 1454.33 Q2326.26 1454.33 2323.81 1455.09 Q2321.38 1455.86 2318.6 1457.41 L2318.6 1452.69 Q2321.43 1451.55 2323.88 1450.97 Q2326.33 1450.39 2328.37 1450.39 Q2333.74 1450.39 2336.93 1453.08 Q2340.13 1455.77 2340.13 1460.26 Q2340.13 1462.39 2339.32 1464.31 Q2338.53 1466.2 2336.42 1468.8 Q2335.85 1469.47 2332.74 1472.69 Q2329.64 1475.88 2323.99 1481.64 Z" fill="#000000" fill-rule="nonzero" fill-opacity="1" /><path clip-path="url(#clip670)" d="M2350.13 1479.7 L2355.01 1479.7 L2355.01 1485.58 L2350.13 1485.58 L2350.13 1479.7 Z" fill="#000000" fill-rule="nonzero" fill-opacity="1" /><path clip-path="url(#clip670)" d="M2375.2 1454.1 Q2371.59 1454.1 2369.76 1457.66 Q2367.95 1461.2 2367.95 1468.33 Q2367.95 1475.44 2369.76 1479.01 Q2371.59 1482.55 2375.2 1482.55 Q2378.83 1482.55 2380.64 1479.01 Q2382.47 1475.44 2382.47 1468.33 Q2382.47 1461.2 2380.64 1457.66 Q2378.83 1454.1 2375.2 1454.1 M2375.2 1450.39 Q2381.01 1450.39 2384.06 1455 Q2387.14 1459.58 2387.14 1468.33 Q2387.14 1477.06 2384.06 1481.67 Q2381.01 1486.25 2375.2 1486.25 Q2369.39 1486.25 2366.31 1481.67 Q2363.25 1477.06 2363.25 1468.33 Q2363.25 1459.58 2366.31 1455 Q2369.39 1450.39 2375.2 1450.39 Z" fill="#000000" fill-rule="nonzero" fill-opacity="1" /><path clip-path="url(#clip670)" d="M1272.65 1522.27 L1272.65 1532.4 L1284.71 1532.4 L1284.71 1536.95 L1272.65 1536.95 L1272.65 1556.3 Q1272.65 1560.66 1273.83 1561.9 Q1275.04 1563.14 1278.7 1563.14 L1284.71 1563.14 L1284.71 1568.04 L1278.7 1568.04 Q1271.92 1568.04 1269.34 1565.53 Q1266.76 1562.98 1266.76 1556.3 L1266.76 1536.95 L1262.46 1536.95 L1262.46 1532.4 L1266.76 1532.4 L1266.76 1522.27 L1272.65 1522.27 Z" fill="#000000" fill-rule="nonzero" fill-opacity="1" /><polyline clip-path="url(#clip670)" style="stroke:#000000; stroke-linecap:round; stroke-linejoin:round; stroke-width:4; stroke-opacity:1; fill:none" points="194.422,1423.18 194.422,47.2441 "/>
<polyline clip-path="url(#clip670)" style="stroke:#000000; stroke-linecap:round; stroke-linejoin:round; stroke-width:4; stroke-opacity:1; fill:none" points="194.422,1338.38 213.32,1338.38 "/>
<polyline clip-path="url(#clip670)" style="stroke:#000000; stroke-linecap:round; stroke-linejoin:round; stroke-width:4; stroke-opacity:1; fill:none" points="194.422,1100.35 213.32,1100.35 "/>
<polyline clip-path="url(#clip670)" style="stroke:#000000; stroke-linecap:round; stroke-linejoin:round; stroke-width:4; stroke-opacity:1; fill:none" points="194.422,862.312 213.32,862.312 "/>
<polyline clip-path="url(#clip670)" style="stroke:#000000; stroke-linecap:round; stroke-linejoin:round; stroke-width:4; stroke-opacity:1; fill:none" points="194.422,624.279 213.32,624.279 "/>
<polyline clip-path="url(#clip670)" style="stroke:#000000; stroke-linecap:round; stroke-linejoin:round; stroke-width:4; stroke-opacity:1; fill:none" points="194.422,386.245 213.32,386.245 "/>
<polyline clip-path="url(#clip670)" style="stroke:#000000; stroke-linecap:round; stroke-linejoin:round; stroke-width:4; stroke-opacity:1; fill:none" points="194.422,148.212 213.32,148.212 "/>
<path clip-path="url(#clip670)" d="M51.6634 1338.83 L81.3392 1338.83 L81.3392 1342.77 L51.6634 1342.77 L51.6634 1338.83 Z" fill="#000000" fill-rule="nonzero" fill-opacity="1" /><path clip-path="url(#clip670)" d="M101.432 1324.18 Q97.8206 1324.18 95.9919 1327.74 Q94.1863 1331.28 94.1863 1338.41 Q94.1863 1345.52 95.9919 1349.08 Q97.8206 1352.63 101.432 1352.63 Q105.066 1352.63 106.871 1349.08 Q108.7 1345.52 108.7 1338.41 Q108.7 1331.28 106.871 1327.74 Q105.066 1324.18 101.432 1324.18 M101.432 1320.47 Q107.242 1320.47 110.297 1325.08 Q113.376 1329.66 113.376 1338.41 Q113.376 1347.14 110.297 1351.75 Q107.242 1356.33 101.432 1356.33 Q95.6215 1356.33 92.5428 1351.75 Q89.4873 1347.14 89.4873 1338.41 Q89.4873 1329.66 92.5428 1325.08 Q95.6215 1320.47 101.432 1320.47 Z" fill="#000000" fill-rule="nonzero" fill-opacity="1" /><path clip-path="url(#clip670)" d="M121.594 1349.78 L126.478 1349.78 L126.478 1355.66 L121.594 1355.66 L121.594 1349.78 Z" fill="#000000" fill-rule="nonzero" fill-opacity="1" /><path clip-path="url(#clip670)" d="M136.802 1354.94 L136.802 1350.68 Q138.561 1351.52 140.367 1351.95 Q142.172 1352.39 143.908 1352.39 Q148.538 1352.39 150.968 1349.29 Q153.422 1346.17 153.769 1339.83 Q152.427 1341.82 150.367 1342.88 Q148.306 1343.95 145.806 1343.95 Q140.621 1343.95 137.589 1340.82 Q134.58 1337.67 134.58 1332.23 Q134.58 1326.91 137.728 1323.69 Q140.876 1320.47 146.107 1320.47 Q152.103 1320.47 155.251 1325.08 Q158.422 1329.66 158.422 1338.41 Q158.422 1346.58 154.533 1351.47 Q150.668 1356.33 144.117 1356.33 Q142.357 1356.33 140.552 1355.98 Q138.746 1355.64 136.802 1354.94 M146.107 1340.29 Q149.255 1340.29 151.084 1338.14 Q152.936 1335.98 152.936 1332.23 Q152.936 1328.51 151.084 1326.35 Q149.255 1324.18 146.107 1324.18 Q142.959 1324.18 141.107 1326.35 Q139.279 1328.51 139.279 1332.23 Q139.279 1335.98 141.107 1338.14 Q142.959 1340.29 146.107 1340.29 Z" fill="#000000" fill-rule="nonzero" fill-opacity="1" /><path clip-path="url(#clip670)" d="M51.5708 1100.8 L81.2466 1100.8 L81.2466 1104.73 L51.5708 1104.73 L51.5708 1100.8 Z" fill="#000000" fill-rule="nonzero" fill-opacity="1" /><path clip-path="url(#clip670)" d="M101.339 1086.14 Q97.728 1086.14 95.8993 1089.71 Q94.0937 1093.25 94.0937 1100.38 Q94.0937 1107.49 95.8993 1111.05 Q97.728 1114.59 101.339 1114.59 Q104.973 1114.59 106.779 1111.05 Q108.608 1107.49 108.608 1100.38 Q108.608 1093.25 106.779 1089.71 Q104.973 1086.14 101.339 1086.14 M101.339 1082.44 Q107.149 1082.44 110.205 1087.05 Q113.283 1091.63 113.283 1100.38 Q113.283 1109.11 110.205 1113.71 Q107.149 1118.3 101.339 1118.3 Q95.5289 1118.3 92.4502 1113.71 Q89.3947 1109.11 89.3947 1100.38 Q89.3947 1091.63 92.4502 1087.05 Q95.5289 1082.44 101.339 1082.44 Z" fill="#000000" fill-rule="nonzero" fill-opacity="1" /><path clip-path="url(#clip670)" d="M121.501 1111.75 L126.385 1111.75 L126.385 1117.63 L121.501 1117.63 L121.501 1111.75 Z" fill="#000000" fill-rule="nonzero" fill-opacity="1" /><path clip-path="url(#clip670)" d="M146.57 1101.21 Q143.237 1101.21 141.316 1103 Q139.418 1104.78 139.418 1107.9 Q139.418 1111.03 141.316 1112.81 Q143.237 1114.59 146.57 1114.59 Q149.904 1114.59 151.825 1112.81 Q153.746 1111 153.746 1107.9 Q153.746 1104.78 151.825 1103 Q149.927 1101.21 146.57 1101.21 M141.894 1099.22 Q138.885 1098.48 137.195 1096.42 Q135.529 1094.36 135.529 1091.4 Q135.529 1087.26 138.469 1084.85 Q141.431 1082.44 146.57 1082.44 Q151.732 1082.44 154.672 1084.85 Q157.612 1087.26 157.612 1091.4 Q157.612 1094.36 155.922 1096.42 Q154.255 1098.48 151.269 1099.22 Q154.649 1100.01 156.524 1102.3 Q158.422 1104.59 158.422 1107.9 Q158.422 1112.93 155.343 1115.61 Q152.288 1118.3 146.57 1118.3 Q140.853 1118.3 137.774 1115.61 Q134.719 1112.93 134.719 1107.9 Q134.719 1104.59 136.617 1102.3 Q138.515 1100.01 141.894 1099.22 M140.181 1091.84 Q140.181 1094.52 141.848 1096.03 Q143.538 1097.53 146.57 1097.53 Q149.58 1097.53 151.269 1096.03 Q152.982 1094.52 152.982 1091.84 Q152.982 1089.15 151.269 1087.65 Q149.58 1086.14 146.57 1086.14 Q143.538 1086.14 141.848 1087.65 Q140.181 1089.15 140.181 1091.84 Z" fill="#000000" fill-rule="nonzero" fill-opacity="1" /><path clip-path="url(#clip670)" d="M52.381 862.763 L82.0568 862.763 L82.0568 866.699 L52.381 866.699 L52.381 862.763 Z" fill="#000000" fill-rule="nonzero" fill-opacity="1" /><path clip-path="url(#clip670)" d="M102.149 848.111 Q98.5382 848.111 96.7095 851.675 Q94.9039 855.217 94.9039 862.347 Q94.9039 869.453 96.7095 873.018 Q98.5382 876.56 102.149 876.56 Q105.783 876.56 107.589 873.018 Q109.418 869.453 109.418 862.347 Q109.418 855.217 107.589 851.675 Q105.783 848.111 102.149 848.111 M102.149 844.407 Q107.959 844.407 111.015 849.013 Q114.094 853.597 114.094 862.347 Q114.094 871.074 111.015 875.68 Q107.959 880.263 102.149 880.263 Q96.3391 880.263 93.2604 875.68 Q90.2049 871.074 90.2049 862.347 Q90.2049 853.597 93.2604 849.013 Q96.3391 844.407 102.149 844.407 Z" fill="#000000" fill-rule="nonzero" fill-opacity="1" /><path clip-path="url(#clip670)" d="M122.311 873.712 L127.195 873.712 L127.195 879.592 L122.311 879.592 L122.311 873.712 Z" fill="#000000" fill-rule="nonzero" fill-opacity="1" /><path clip-path="url(#clip670)" d="M136.2 845.032 L158.422 845.032 L158.422 847.023 L145.876 879.592 L140.992 879.592 L152.797 848.967 L136.2 848.967 L136.2 845.032 Z" fill="#000000" fill-rule="nonzero" fill-opacity="1" /><path clip-path="url(#clip670)" d="M51.3162 624.73 L80.992 624.73 L80.992 628.665 L51.3162 628.665 L51.3162 624.73 Z" fill="#000000" fill-rule="nonzero" fill-opacity="1" /><path clip-path="url(#clip670)" d="M101.084 610.077 Q97.4734 610.077 95.6447 613.642 Q93.8391 617.184 93.8391 624.313 Q93.8391 631.42 95.6447 634.985 Q97.4734 638.526 101.084 638.526 Q104.719 638.526 106.524 634.985 Q108.353 631.42 108.353 624.313 Q108.353 617.184 106.524 613.642 Q104.719 610.077 101.084 610.077 M101.084 606.374 Q106.895 606.374 109.95 610.98 Q113.029 615.563 113.029 624.313 Q113.029 633.04 109.95 637.647 Q106.895 642.23 101.084 642.23 Q95.2743 642.23 92.1956 637.647 Q89.1401 633.04 89.1401 624.313 Q89.1401 615.563 92.1956 610.98 Q95.2743 606.374 101.084 606.374 Z" fill="#000000" fill-rule="nonzero" fill-opacity="1" /><path clip-path="url(#clip670)" d="M121.246 635.679 L126.131 635.679 L126.131 641.559 L121.246 641.559 L121.246 635.679 Z" fill="#000000" fill-rule="nonzero" fill-opacity="1" /><path clip-path="url(#clip670)" d="M146.894 622.415 Q143.746 622.415 141.894 624.568 Q140.066 626.721 140.066 630.471 Q140.066 634.198 141.894 636.374 Q143.746 638.526 146.894 638.526 Q150.043 638.526 151.871 636.374 Q153.723 634.198 153.723 630.471 Q153.723 626.721 151.871 624.568 Q150.043 622.415 146.894 622.415 M156.177 607.763 L156.177 612.022 Q154.417 611.189 152.612 610.749 Q150.83 610.309 149.07 610.309 Q144.441 610.309 141.987 613.434 Q139.556 616.559 139.209 622.878 Q140.575 620.864 142.635 619.8 Q144.695 618.712 147.172 618.712 Q152.38 618.712 155.39 621.883 Q158.422 625.031 158.422 630.471 Q158.422 635.795 155.274 639.012 Q152.126 642.23 146.894 642.23 Q140.899 642.23 137.728 637.647 Q134.556 633.04 134.556 624.313 Q134.556 616.119 138.445 611.258 Q142.334 606.374 148.885 606.374 Q150.644 606.374 152.427 606.721 Q154.232 607.068 156.177 607.763 Z" fill="#000000" fill-rule="nonzero" fill-opacity="1" /><path clip-path="url(#clip670)" d="M52.4736 386.697 L82.1494 386.697 L82.1494 390.632 L52.4736 390.632 L52.4736 386.697 Z" fill="#000000" fill-rule="nonzero" fill-opacity="1" /><path clip-path="url(#clip670)" d="M102.242 372.044 Q98.6308 372.044 96.8021 375.609 Q94.9965 379.151 94.9965 386.28 Q94.9965 393.387 96.8021 396.951 Q98.6308 400.493 102.242 400.493 Q105.876 400.493 107.682 396.951 Q109.51 393.387 109.51 386.28 Q109.51 379.151 107.682 375.609 Q105.876 372.044 102.242 372.044 M102.242 368.34 Q108.052 368.34 111.108 372.947 Q114.186 377.53 114.186 386.28 Q114.186 395.007 111.108 399.613 Q108.052 404.197 102.242 404.197 Q96.4317 404.197 93.353 399.613 Q90.2975 395.007 90.2975 386.28 Q90.2975 377.53 93.353 372.947 Q96.4317 368.34 102.242 368.34 Z" fill="#000000" fill-rule="nonzero" fill-opacity="1" /><path clip-path="url(#clip670)" d="M122.404 397.646 L127.288 397.646 L127.288 403.525 L122.404 403.525 L122.404 397.646 Z" fill="#000000" fill-rule="nonzero" fill-opacity="1" /><path clip-path="url(#clip670)" d="M137.519 368.965 L155.876 368.965 L155.876 372.901 L141.802 372.901 L141.802 381.373 Q142.82 381.026 143.839 380.864 Q144.857 380.678 145.876 380.678 Q151.663 380.678 155.042 383.85 Q158.422 387.021 158.422 392.438 Q158.422 398.016 154.95 401.118 Q151.478 404.197 145.158 404.197 Q142.982 404.197 140.714 403.826 Q138.469 403.456 136.061 402.715 L136.061 398.016 Q138.144 399.15 140.367 399.706 Q142.589 400.262 145.066 400.262 Q149.07 400.262 151.408 398.155 Q153.746 396.049 153.746 392.438 Q153.746 388.826 151.408 386.72 Q149.07 384.614 145.066 384.614 Q143.191 384.614 141.316 385.03 Q139.464 385.447 137.519 386.326 L137.519 368.965 Z" fill="#000000" fill-rule="nonzero" fill-opacity="1" /><path clip-path="url(#clip670)" d="M50.9921 148.664 L80.6679 148.664 L80.6679 152.599 L50.9921 152.599 L50.9921 148.664 Z" fill="#000000" fill-rule="nonzero" fill-opacity="1" /><path clip-path="url(#clip670)" d="M100.76 134.011 Q97.1493 134.011 95.3206 137.576 Q93.515 141.117 93.515 148.247 Q93.515 155.353 95.3206 158.918 Q97.1493 162.46 100.76 162.46 Q104.395 162.46 106.2 158.918 Q108.029 155.353 108.029 148.247 Q108.029 141.117 106.2 137.576 Q104.395 134.011 100.76 134.011 M100.76 130.307 Q106.571 130.307 109.626 134.914 Q112.705 139.497 112.705 148.247 Q112.705 156.974 109.626 161.58 Q106.571 166.163 100.76 166.163 Q94.9502 166.163 91.8715 161.58 Q88.816 156.974 88.816 148.247 Q88.816 139.497 91.8715 134.914 Q94.9502 130.307 100.76 130.307 Z" fill="#000000" fill-rule="nonzero" fill-opacity="1" /><path clip-path="url(#clip670)" d="M120.922 159.613 L125.807 159.613 L125.807 165.492 L120.922 165.492 L120.922 159.613 Z" fill="#000000" fill-rule="nonzero" fill-opacity="1" /><path clip-path="url(#clip670)" d="M148.839 135.006 L137.033 153.455 L148.839 153.455 L148.839 135.006 M147.612 130.932 L153.492 130.932 L153.492 153.455 L158.422 153.455 L158.422 157.344 L153.492 157.344 L153.492 165.492 L148.839 165.492 L148.839 157.344 L133.237 157.344 L133.237 152.83 L147.612 130.932 Z" fill="#000000" fill-rule="nonzero" fill-opacity="1" /><polyline clip-path="url(#clip672)" style="stroke:#009af9; stroke-linecap:round; stroke-linejoin:round; stroke-width:4; stroke-opacity:1; fill:none" points="194.422,1384.24 196.583,1379.23 198.743,1374.27 200.904,1369.36 203.064,1364.5 205.225,1359.68 207.385,1354.92 209.546,1350.2 211.706,1345.53 213.867,1340.91 216.027,1336.33 218.188,1331.8 220.348,1327.31 222.509,1322.87 224.669,1318.47 226.83,1314.11 228.99,1309.8 231.151,1305.53 233.311,1301.31 235.471,1297.13 237.632,1292.98 239.792,1288.88 241.953,1284.82 244.113,1280.8 246.274,1276.82 248.434,1272.88 250.595,1268.98 252.755,1265.12 254.916,1261.3 257.076,1257.51 259.237,1253.77 261.397,1250.06 263.558,1246.38 265.718,1242.75 267.879,1239.15 270.039,1235.58 272.2,1232.05 274.36,1228.56 276.521,1225.1 278.681,1221.68 280.842,1218.28 283.002,1214.93 285.163,1211.6 287.323,1208.31 289.484,1205.06 291.644,1201.83 293.805,1198.64 295.965,1195.48 298.126,1192.35 300.286,1189.25 302.447,1186.18 304.607,1183.15 306.768,1180.14 308.928,1177.16 311.089,1174.22 313.249,1171.3 315.41,1168.41 317.57,1165.55 319.731,1162.72 321.891,1159.91 324.052,1157.14 326.212,1154.39 328.373,1151.67 330.533,1148.98 332.694,1146.31 334.854,1143.67 337.015,1141.06 339.175,1138.47 341.336,1135.91 343.496,1133.37 345.657,1130.86 347.817,1128.38 349.978,1125.92 352.138,1123.48 354.299,1121.07 356.459,1118.68 358.62,1116.31 360.78,1113.97 362.941,1111.65 365.101,1109.36 367.262,1107.09 369.422,1104.84 371.583,1102.61 373.743,1100.41 375.904,1098.22 378.064,1096.06 380.225,1093.92 382.385,1091.81 384.546,1089.71 386.706,1087.63 388.867,1085.58 391.027,1083.54 393.188,1081.53 395.348,1079.53 397.509,1077.56 399.669,1075.6 401.83,1073.67 403.99,1071.75 406.151,1069.85 408.311,1067.98 410.472,1066.12 412.632,1064.27 414.793,1062.45 416.953,1060.65 419.114,1058.86 421.274,1057.09 423.435,1055.34 425.595,1053.61 427.755,1051.89 429.916,1050.19 432.076,1048.51 434.237,1046.84 436.397,1045.2 438.558,1043.56 440.718,1041.95 442.879,1040.35 445.039,1038.76 447.2,1037.19 449.36,1035.64 451.521,1034.1 453.681,1032.58 455.842,1031.07 458.002,1029.58 460.163,1028.11 462.323,1026.64 464.484,1025.19 466.644,1023.76 468.805,1022.34 470.965,1020.94 473.126,1019.55 475.286,1018.17 477.447,1016.8 479.607,1015.45 481.768,1014.12 483.928,1012.79 486.089,1011.48 488.249,1010.19 490.41,1008.9 492.57,1007.63 494.731,1006.37 496.891,1005.13 499.052,1003.89 501.212,1002.67 503.373,1001.46 505.533,1000.26 507.694,999.078 509.854,997.904 512.015,996.743 514.175,995.592 516.336,994.454 518.496,993.326 520.657,992.21 522.817,991.105 524.978,990.011 527.138,988.928 529.299,987.856 531.459,986.794 533.62,985.743 535.78,984.703 537.941,983.673 540.101,982.653 542.262,981.644 544.422,980.644 546.583,979.655 548.743,978.675 550.904,977.705 553.064,976.745 555.225,975.794 557.385,974.853 559.546,973.921 561.706,972.999 563.867,972.085 566.027,971.181 568.188,970.286 570.348,969.399 572.509,968.522 574.669,967.653 576.83,966.793 578.99,965.941 581.151,965.098 583.311,964.263 585.472,963.437 587.632,962.619 589.793,961.809 591.953,961.007 594.114,960.213 596.274,959.426 598.435,958.648 600.595,957.877 602.756,957.114 604.916,956.359 607.077,955.611 609.237,954.87 611.398,954.137 613.558,953.41 615.718,952.692 617.879,951.98 620.039,951.275 622.2,950.578 624.36,949.887 626.521,949.203 628.681,948.526 630.842,947.856 633.002,947.192 635.163,946.535 637.323,945.885 639.484,945.241 641.644,944.603 643.805,943.972 645.965,943.347 648.126,942.729 650.286,942.116 652.447,941.51 654.607,940.91 656.768,940.315 658.928,939.727 661.089,939.145 663.249,938.568 665.41,937.997 667.57,937.432 669.731,936.873 671.891,936.319 674.052,935.771 676.212,935.228 678.373,934.69 680.533,934.158 682.694,933.632 684.854,933.11 687.015,932.594 689.175,932.083 691.336,931.577 693.496,931.076 695.657,930.581 697.817,930.09 699.978,929.604 702.138,929.123 704.299,928.646 706.459,928.175 708.62,927.708 710.78,927.246 712.941,926.788 715.101,926.335 717.262,925.887 719.422,925.443 721.583,925.003 723.743,924.568 725.904,924.137 728.064,923.711 730.225,923.288 732.385,922.87 734.546,922.456 736.706,922.046 738.867,921.641 741.027,921.239 743.188,920.841 745.348,920.447 747.509,920.057 749.669,919.671 751.83,919.289 753.99,918.91 756.151,918.536 758.311,918.165 760.472,917.797 762.632,917.433 764.793,917.073 766.953,916.717 769.114,916.363 771.274,916.014 773.435,915.667 775.595,915.325 777.756,914.985 779.916,914.649 782.077,914.316 784.237,913.987 786.398,913.66 788.558,913.337 790.719,913.018 792.879,912.701 795.04,912.387 797.2,912.077 799.361,911.77 801.521,911.465 803.681,911.164 805.842,910.866 808.002,910.571 810.163,910.279 812.323,909.989 814.484,909.703 816.644,909.419 818.805,909.138 820.965,908.86 823.126,908.585 825.286,908.313 827.447,908.043 829.607,907.776 831.768,907.512 833.928,907.25 836.089,906.991 838.249,906.735 840.41,906.481 842.57,906.23 844.731,905.981 846.891,905.735 849.052,905.491 851.212,905.25 853.373,905.011 855.533,904.774 857.694,904.54 859.854,904.309 862.015,904.079 864.175,903.852 866.336,903.627 868.496,903.405 870.657,903.185 872.817,902.967 874.978,902.751 877.138,902.537 879.299,902.325 881.459,902.116 883.62,901.909 885.78,901.703 887.941,901.5 890.101,901.299 892.262,901.1 894.422,900.903 896.583,900.708 898.743,900.515 900.904,900.323 903.064,900.134 905.225,899.947 907.385,899.761 909.546,899.577 911.706,899.395 913.867,899.215 916.027,899.037 918.188,898.861 920.348,898.686 922.509,898.513 924.669,898.341 926.83,898.172 928.99,898.004 931.151,897.838 933.311,897.673 935.472,897.51 937.632,897.349 939.793,897.189 941.953,897.03 944.114,896.874 946.274,896.719 948.435,896.565 950.595,896.413 952.756,896.262 954.916,896.113 957.077,895.965 959.237,895.819 961.398,895.674 963.558,895.53 965.719,895.388 967.879,895.247 970.04,895.108 972.2,894.97 974.361,894.833 976.521,894.698 978.682,894.564 980.842,894.431 983.003,894.3 985.163,894.169 987.324,894.041 989.484,893.913 991.645,893.787 993.805,893.662 995.965,893.538 998.126,893.415 1000.29,893.294 1002.45,893.173 1004.61,893.054 1006.77,892.937 1008.93,892.82 1011.09,892.704 1013.25,892.59 1015.41,892.477 1017.57,892.365 1019.73,892.254 1021.89,892.144 1024.05,892.035 1026.21,891.928 1028.37,891.821 1030.53,891.716 1032.69,891.611 1034.85,891.508 1037.01,891.406 1039.18,891.304 1041.34,891.204 1043.5,891.105 1045.66,891.007 1047.82,890.909 1049.98,890.813 1052.14,890.718 1054.3,890.624 1056.46,890.53 1058.62,890.438 1060.78,890.347 1062.94,890.256 1065.1,890.166 1067.26,890.078 1069.42,889.99 1071.58,889.903 1073.74,889.817 1075.9,889.732 1078.06,889.648 1080.22,889.565 1082.39,889.482 1084.55,889.4 1086.71,889.32 1088.87,889.24 1091.03,889.16 1093.19,889.082 1095.35,889.004 1097.51,888.928 1099.67,888.852 1101.83,888.776 1103.99,888.702 1106.15,888.628 1108.31,888.555 1110.47,888.483 1112.63,888.412 1114.79,888.341 1116.95,888.271 1119.11,888.202 1121.27,888.133 1123.43,888.065 1125.6,887.998 1127.76,887.931 1129.92,887.865 1132.08,887.8 1134.24,887.736 1136.4,887.672 1138.56,887.608 1140.72,887.546 1142.88,887.484 1145.04,887.422 1147.2,887.361 1149.36,887.301 1151.52,887.242 1153.68,887.183 1155.84,887.124 1158,887.066 1160.16,887.009 1162.32,886.952 1164.48,886.896 1166.64,886.84 1168.81,886.785 1170.97,886.731 1173.13,886.677 1175.29,886.623 1177.45,886.57 1179.61,886.517 1181.77,886.465 1183.93,886.414 1186.09,886.363 1188.25,886.312 1190.41,886.262 1192.57,886.212 1194.73,886.163 1196.89,886.114 1199.05,886.066 1201.21,886.018 1203.37,885.971 1205.53,885.924 1207.69,885.877 1209.85,885.831 1212.01,885.786 1214.18,885.741 1216.34,885.696 1218.5,885.651 1220.66,885.608 1222.82,885.564 1224.98,885.521 1227.14,885.478 1229.3,885.436 1231.46,885.394 1233.62,885.353 1235.78,885.312 1237.94,885.271 1240.1,885.231 1242.26,885.191 1244.42,885.152 1246.58,885.113 1248.74,885.074 1250.9,885.036 1253.06,884.998 1255.22,884.96 1257.39,884.923 1259.55,884.886 1261.71,884.85 1263.87,884.814 1266.03,884.778 1268.19,884.743 1270.35,884.708 1272.51,884.673 1274.67,884.639 1276.83,884.605 1278.99,884.571 1281.15,884.538 1283.31,884.505 1285.47,884.473 1287.63,884.441 1289.79,884.409 1291.95,884.377 1294.11,884.346 1296.27,884.315 1298.43,884.285 1300.6,884.254 1302.76,884.224 1304.92,884.195 1307.08,884.165 1309.24,884.136 1311.4,884.108 1313.56,884.079 1315.72,884.051 1317.88,884.023 1320.04,883.996 1322.2,883.969 1324.36,883.942 1326.52,883.915 1328.68,883.889 1330.84,883.863 1333,883.837 1335.16,883.811 1337.32,883.786 1339.48,883.761 1341.64,883.736 1343.81,883.712 1345.97,883.687 1348.13,883.664 1350.29,883.64 1352.45,883.616 1354.61,883.593 1356.77,883.57 1358.93,883.548 1361.09,883.525 1363.25,883.503 1365.41,883.481 1367.57,883.459 1369.73,883.438 1371.89,883.416 1374.05,883.395 1376.21,883.374 1378.37,883.354 1380.53,883.333 1382.69,883.313 1384.85,883.293 1387.01,883.273 1389.18,883.254 1391.34,883.234 1393.5,883.215 1395.66,883.196 1397.82,883.177 1399.98,883.159 1402.14,883.14 1404.3,883.122 1406.46,883.104 1408.62,883.086 1410.78,883.069 1412.94,883.051 1415.1,883.034 1417.26,883.017 1419.42,883 1421.58,882.983 1423.74,882.966 1425.9,882.95 1428.06,882.934 1430.22,882.917 1432.39,882.901 1434.55,882.886 1436.71,882.87 1438.87,882.854 1441.03,882.839 1443.19,882.824 1445.35,882.809 1447.51,882.794 1449.67,882.779 1451.83,882.764 1453.99,882.749 1456.15,882.735 1458.31,882.721 1460.47,882.706 1462.63,882.692 1464.79,882.678 1466.95,882.664 1469.11,882.651 1471.27,882.637 1473.43,882.623 1475.6,882.61 1477.76,882.597 1479.92,882.583 1482.08,882.57 1484.24,882.557 1486.4,882.545 1488.56,882.532 1490.72,882.519 1492.88,882.507 1495.04,882.494 1497.2,882.482 1499.36,882.47 1501.52,882.457 1503.68,882.445 1505.84,882.434 1508,882.422 1510.16,882.41 1512.32,882.399 1514.48,882.387 1516.64,882.376 1518.81,882.364 1520.97,882.353 1523.13,882.342 1525.29,882.331 1527.45,882.32 1529.61,882.31 1531.77,882.299 1533.93,882.289 1536.09,882.278 1538.25,882.268 1540.41,882.258 1542.57,882.247 1544.73,882.237 1546.89,882.227 1549.05,882.218 1551.21,882.208 1553.37,882.198 1555.53,882.189 1557.69,882.179 1559.85,882.17 1562.01,882.161 1564.18,882.151 1566.34,882.142 1568.5,882.133 1570.66,882.125 1572.82,882.116 1574.98,882.107 1577.14,882.098 1579.3,882.09 1581.46,882.081 1583.62,882.073 1585.78,882.065 1587.94,882.057 1590.1,882.049 1592.26,882.041 1594.42,882.033 1596.58,882.025 1598.74,882.017 1600.9,882.01 1603.06,882.002 1605.22,881.994 1607.39,881.987 1609.55,881.98 1611.71,881.973 1613.87,881.965 1616.03,881.958 1618.19,881.951 1620.35,881.944 1622.51,881.938 1624.67,881.931 1626.83,881.924 1628.99,881.917 1631.15,881.911 1633.31,881.905 1635.47,881.898 1637.63,881.892 1639.79,881.886 1641.95,881.879 1644.11,881.873 1646.27,881.867 1648.43,881.861 1650.6,881.855 1652.76,881.85 1654.92,881.844 1657.08,881.838 1659.24,881.833 1661.4,881.827 1663.56,881.822 1665.72,881.816 1667.88,881.811 1670.04,881.806 1672.2,881.8 1674.36,881.795 1676.52,881.79 1678.68,881.785 1680.84,881.78 1683,881.775 1685.16,881.77 1687.32,881.766 1689.48,881.761 1691.64,881.756 1693.81,881.752 1695.97,881.747 1698.13,881.742 1700.29,881.738 1702.45,881.734 1704.61,881.729 1706.77,881.725 1708.93,881.721 1711.09,881.716 1713.25,881.712 1715.41,881.708 1717.57,881.704 1719.73,881.7 1721.89,881.696 1724.05,881.692 1726.21,881.688 1728.37,881.684 1730.53,881.681 1732.69,881.677 1734.85,881.673 1737.02,881.67 1739.18,881.666 1741.34,881.662 1743.5,881.659 1745.66,881.655 1747.82,881.652 1749.98,881.648 1752.14,881.645 1754.3,881.641 1756.46,881.638 1758.62,881.635 1760.78,881.632 1762.94,881.628 1765.1,881.625 1767.26,881.622 1769.42,881.619 1771.58,881.616 1773.74,881.612 1775.9,881.609 1778.06,881.606 1780.22,881.603 1782.39,881.6 1784.55,881.597 1786.71,881.594 1788.87,881.591 1791.03,881.588 1793.19,881.585 1795.35,881.583 1797.51,881.58 1799.67,881.577 1801.83,881.574 1803.99,881.571 1806.15,881.568 1808.31,881.565 1810.47,881.563 1812.63,881.56 1814.79,881.557 1816.95,881.554 1819.11,881.551 1821.27,881.549 1823.43,881.546 1825.6,881.543 1827.76,881.541 1829.92,881.538 1832.08,881.535 1834.24,881.532 1836.4,881.53 1838.56,881.527 1840.72,881.525 1842.88,881.522 1845.04,881.519 1847.2,881.517 1849.36,881.514 1851.52,881.512 1853.68,881.509 1855.84,881.507 1858,881.504 1860.16,881.502 1862.32,881.499 1864.48,881.497 1866.64,881.495 1868.81,881.492 1870.97,881.49 1873.13,881.488 1875.29,881.485 1877.45,881.483 1879.61,881.481 1881.77,881.478 1883.93,881.476 1886.09,881.474 1888.25,881.472 1890.41,881.47 1892.57,881.467 1894.73,881.465 1896.89,881.463 1899.05,881.461 1901.21,881.459 1903.37,881.457 1905.53,881.455 1907.69,881.453 1909.85,881.451 1912.02,881.449 1914.18,881.447 1916.34,881.445 1918.5,881.443 1920.66,881.441 1922.82,881.439 1924.98,881.437 1927.14,881.435 1929.3,881.434 1931.46,881.432 1933.62,881.43 1935.78,881.428 1937.94,881.426 1940.1,881.425 1942.26,881.423 1944.42,881.421 1946.58,881.42 1948.74,881.418 1950.9,881.416 1953.06,881.415 1955.22,881.413 1957.39,881.411 1959.55,881.41 1961.71,881.408 1963.87,881.407 1966.03,881.405 1968.19,881.404 1970.35,881.402 1972.51,881.401 1974.67,881.399 1976.83,881.398 1978.99,881.397 1981.15,881.395 1983.31,881.394 1985.47,881.392 1987.63,881.391 1989.79,881.39 1991.95,881.389 1994.11,881.387 1996.27,881.386 1998.43,881.385 2000.6,881.384 2002.76,881.382 2004.92,881.381 2007.08,881.38 2009.24,881.379 2011.4,881.378 2013.56,881.376 2015.72,881.375 2017.88,881.374 2020.04,881.373 2022.2,881.372 2024.36,881.371 2026.52,881.37 2028.68,881.369 2030.84,881.368 2033,881.367 2035.16,881.366 2037.32,881.365 2039.48,881.364 2041.64,881.363 2043.81,881.362 2045.97,881.361 2048.13,881.361 2050.29,881.36 2052.45,881.359 2054.61,881.358 2056.77,881.357 2058.93,881.356 2061.09,881.356 2063.25,881.355 2065.41,881.354 2067.57,881.353 2069.73,881.353 2071.89,881.352 2074.05,881.351 2076.21,881.35 2078.37,881.35 2080.53,881.349 2082.69,881.348 2084.85,881.348 2087.02,881.347 2089.18,881.346 2091.34,881.346 2093.5,881.345 2095.66,881.345 2097.82,881.344 2099.98,881.344 2102.14,881.343 2104.3,881.342 2106.46,881.342 2108.62,881.341 2110.78,881.341 2112.94,881.34 2115.1,881.34 2117.26,881.339 2119.42,881.339 2121.58,881.338 2123.74,881.338 2125.9,881.337 2128.06,881.337 2130.22,881.336 2132.39,881.336 2134.55,881.336 2136.71,881.335 2138.87,881.335 2141.03,881.334 2143.19,881.334 2145.35,881.334 2147.51,881.333 2149.67,881.333 2151.83,881.332 2153.99,881.332 2156.15,881.332 2158.31,881.331 2160.47,881.331 2162.63,881.331 2164.79,881.33 2166.95,881.33 2169.11,881.329 2171.27,881.329 2173.43,881.329 2175.6,881.328 2177.76,881.328 2179.92,881.328 2182.08,881.327 2184.24,881.327 2186.4,881.327 2188.56,881.326 2190.72,881.326 2192.88,881.326 2195.04,881.325 2197.2,881.325 2199.36,881.325 2201.52,881.324 2203.68,881.324 2205.84,881.324 2208,881.323 2210.16,881.323 2212.32,881.323 2214.48,881.322 2216.64,881.322 2218.81,881.322 2220.97,881.321 2223.13,881.321 2225.29,881.321 2227.45,881.32 2229.61,881.32 2231.77,881.32 2233.93,881.319 2236.09,881.319 2238.25,881.318 2240.41,881.318 2242.57,881.318 2244.73,881.317 2246.89,881.317 2249.05,881.316 2251.21,881.316 2253.37,881.315 2255.53,881.315 2257.69,881.315 2259.85,881.314 2262.02,881.314 2264.18,881.313 2266.34,881.313 2268.5,881.312 2270.66,881.312 2272.82,881.312 2274.98,881.311 2277.14,881.311 2279.3,881.311 2281.46,881.31 2283.62,881.31 2285.78,881.309 2287.94,881.309 2290.1,881.309 2292.26,881.308 2294.42,881.308 2296.58,881.308 2298.74,881.307 2300.9,881.307 2303.06,881.307 2305.23,881.306 2307.39,881.306 2309.55,881.305 2311.71,881.305 2313.87,881.305 2316.03,881.304 2318.19,881.304 2320.35,881.304 2322.51,881.304 2324.67,881.303 2326.83,881.303 2328.99,881.303 2331.15,881.302 2333.31,881.302 2335.47,881.302 2337.63,881.301 2339.79,881.301 2341.95,881.301 2344.11,881.301 2346.27,881.3 2348.43,881.3 2350.6,881.3 2352.76,881.299 "/>
<polyline clip-path="url(#clip672)" style="stroke:#e26f46; stroke-linecap:round; stroke-linejoin:round; stroke-width:4; stroke-opacity:1; fill:none" points="194.422,86.1857 196.583,92.9561 198.743,99.666 200.904,106.316 203.064,112.906 205.225,119.438 207.385,125.911 209.546,132.327 211.706,138.685 213.867,144.986 216.027,151.232 218.188,157.421 220.348,163.556 222.509,169.635 224.669,175.661 226.83,181.633 228.99,187.551 231.151,193.417 233.311,199.231 235.471,204.993 237.632,210.704 239.792,216.364 241.953,221.974 244.113,227.534 246.274,233.045 248.434,238.507 250.595,243.92 252.755,249.286 254.916,254.604 257.076,259.875 259.237,265.099 261.397,270.276 263.558,275.408 265.718,280.495 267.879,285.537 270.039,290.534 272.2,295.487 274.36,300.396 276.521,305.262 278.681,310.085 280.842,314.865 283.002,319.603 285.163,324.3 287.323,328.955 289.484,333.569 291.644,338.142 293.805,342.675 295.965,347.168 298.126,351.622 300.286,356.036 302.447,360.412 304.607,364.749 306.768,369.048 308.928,373.309 311.089,377.532 313.249,381.719 315.41,385.869 317.57,389.983 319.731,394.06 321.891,398.102 324.052,402.108 326.212,406.08 328.373,410.016 330.533,413.918 332.694,417.786 334.854,421.62 337.015,425.421 339.175,429.189 341.336,432.923 343.496,436.625 345.657,440.295 347.817,443.933 349.978,447.539 352.138,451.113 354.299,454.657 356.459,458.169 358.62,461.652 360.78,465.103 362.941,468.525 365.101,471.918 367.262,475.28 369.422,478.614 371.583,481.918 373.743,485.194 375.904,488.442 378.064,491.661 380.225,494.852 382.385,498.016 384.546,501.152 386.706,504.261 388.867,507.343 391.027,510.399 393.188,513.428 395.348,516.43 397.509,519.407 399.669,522.358 401.83,525.284 403.99,528.184 406.151,531.059 408.311,533.91 410.472,536.736 412.632,539.537 414.793,542.314 416.953,545.068 419.114,547.797 421.274,550.504 423.435,553.186 425.595,555.846 427.755,558.483 429.916,561.098 432.076,563.69 434.237,566.259 436.397,568.807 438.558,571.333 440.718,573.837 442.879,576.319 445.039,578.781 447.2,581.221 449.36,583.641 451.521,586.04 453.681,588.418 455.842,590.776 458.002,593.114 460.163,595.432 462.323,597.73 464.484,600.009 466.644,602.268 468.805,604.508 470.965,606.729 473.126,608.931 475.286,611.115 477.447,613.28 479.607,615.426 481.768,617.555 483.928,619.665 486.089,621.757 488.249,623.832 490.41,625.889 492.57,627.928 494.731,629.95 496.891,631.955 499.052,633.943 501.212,635.914 503.373,637.869 505.533,639.807 507.694,641.728 509.854,643.634 512.015,645.523 514.175,647.396 516.336,649.253 518.496,651.095 520.657,652.921 522.817,654.731 524.978,656.527 527.138,658.307 529.299,660.072 531.459,661.822 533.62,663.558 535.78,665.279 537.941,666.985 540.101,668.677 542.262,670.355 544.422,672.019 546.583,673.669 548.743,675.305 550.904,676.927 553.064,678.536 555.225,680.131 557.385,681.713 559.546,683.281 561.706,684.837 563.867,686.379 566.027,687.909 568.188,689.425 570.348,690.929 572.509,692.421 574.669,693.9 576.83,695.367 578.99,696.822 581.151,698.264 583.311,699.695 585.472,701.114 587.632,702.52 589.793,703.916 591.953,705.299 594.114,706.672 596.274,708.032 598.435,709.382 600.595,710.72 602.756,712.048 604.916,713.364 607.077,714.67 609.237,715.965 611.398,717.249 613.558,718.523 615.718,719.786 617.879,721.039 620.039,722.281 622.2,723.513 624.36,724.735 626.521,725.947 628.681,727.149 630.842,728.341 633.002,729.523 635.163,730.696 637.323,731.859 639.484,733.012 641.644,734.156 643.805,735.29 645.965,736.415 648.126,737.531 650.286,738.637 652.447,739.735 654.607,740.823 656.768,741.903 658.928,742.974 661.089,744.035 663.249,745.089 665.41,746.133 667.57,747.169 669.731,748.197 671.891,749.216 674.052,750.226 676.212,751.229 678.373,752.223 680.533,753.209 682.694,754.187 684.854,755.157 687.015,756.119 689.175,757.073 691.336,758.02 693.496,758.959 695.657,759.89 697.817,760.813 699.978,761.73 702.138,762.638 704.299,763.539 706.459,764.433 708.62,765.32 710.78,766.199 712.941,767.072 715.101,767.937 717.262,768.795 719.422,769.647 721.583,770.491 723.743,771.329 725.904,772.16 728.064,772.984 730.225,773.802 732.385,774.613 734.546,775.417 736.706,776.215 738.867,777.007 741.027,777.792 743.188,778.571 745.348,779.344 747.509,780.111 749.669,780.871 751.83,781.625 753.99,782.374 756.151,783.116 758.311,783.853 760.472,784.584 762.632,785.308 764.793,786.028 766.953,786.741 769.114,787.449 771.274,788.151 773.435,788.848 775.595,789.539 777.756,790.225 779.916,790.905 782.077,791.58 784.237,792.249 786.398,792.913 788.558,793.572 790.719,794.226 792.879,794.875 795.04,795.518 797.2,796.156 799.361,796.79 801.521,797.418 803.681,798.041 805.842,798.66 808.002,799.273 810.163,799.882 812.323,800.485 814.484,801.084 816.644,801.679 818.805,802.268 820.965,802.853 823.126,803.433 825.286,804.009 827.447,804.58 829.607,805.146 831.768,805.708 833.928,806.266 836.089,806.819 838.249,807.368 840.41,807.912 842.57,808.453 844.731,808.988 846.891,809.52 849.052,810.048 851.212,810.571 853.373,811.09 855.533,811.605 857.694,812.116 859.854,812.623 862.015,813.126 864.175,813.625 866.336,814.121 868.496,814.612 870.657,815.099 872.817,815.583 874.978,816.063 877.138,816.539 879.299,817.011 881.459,817.48 883.62,817.945 885.78,818.406 887.941,818.864 890.101,819.318 892.262,819.768 894.422,820.215 896.583,820.659 898.743,821.099 900.904,821.536 903.064,821.969 905.225,822.399 907.385,822.826 909.546,823.249 911.706,823.669 913.867,824.086 916.027,824.5 918.188,824.91 920.348,825.318 922.509,825.722 924.669,826.123 926.83,826.521 928.99,826.916 931.151,827.308 933.311,827.697 935.472,828.083 937.632,828.466 939.793,828.846 941.953,829.223 944.114,829.598 946.274,829.969 948.435,830.338 950.595,830.704 952.756,831.067 954.916,831.427 957.077,831.785 959.237,832.14 961.398,832.492 963.558,832.842 965.719,833.189 967.879,833.534 970.04,833.876 972.2,834.215 974.361,834.552 976.521,834.886 978.682,835.218 980.842,835.547 983.003,835.874 985.163,836.198 987.324,836.52 989.484,836.84 991.645,837.157 993.805,837.471 995.965,837.784 998.126,838.094 1000.29,838.401 1002.45,838.707 1004.61,839.01 1006.77,839.31 1008.93,839.609 1011.09,839.905 1013.25,840.199 1015.41,840.49 1017.57,840.78 1019.73,841.067 1021.89,841.352 1024.05,841.635 1026.21,841.916 1028.37,842.195 1030.53,842.471 1032.69,842.746 1034.85,843.018 1037.01,843.289 1039.18,843.557 1041.34,843.823 1043.5,844.087 1045.66,844.35 1047.82,844.61 1049.98,844.868 1052.14,845.125 1054.3,845.379 1056.46,845.631 1058.62,845.882 1060.78,846.131 1062.94,846.378 1065.1,846.622 1067.26,846.866 1069.42,847.107 1071.58,847.346 1073.74,847.584 1075.9,847.82 1078.06,848.054 1080.22,848.286 1082.39,848.517 1084.55,848.745 1086.71,848.972 1088.87,849.198 1091.03,849.422 1093.19,849.644 1095.35,849.864 1097.51,850.083 1099.67,850.3 1101.83,850.515 1103.99,850.729 1106.15,850.941 1108.31,851.152 1110.47,851.361 1112.63,851.568 1114.79,851.774 1116.95,851.979 1119.11,852.182 1121.27,852.383 1123.43,852.583 1125.6,852.782 1127.76,852.979 1129.92,853.174 1132.08,853.368 1134.24,853.561 1136.4,853.752 1138.56,853.942 1140.72,854.131 1142.88,854.318 1145.04,854.503 1147.2,854.688 1149.36,854.871 1151.52,855.052 1153.68,855.233 1155.84,855.412 1158,855.59 1160.16,855.766 1162.32,855.941 1164.48,856.115 1166.64,856.288 1168.81,856.459 1170.97,856.63 1173.13,856.799 1175.29,856.967 1177.45,857.133 1179.61,857.299 1181.77,857.463 1183.93,857.626 1186.09,857.788 1188.25,857.949 1190.41,858.109 1192.57,858.267 1194.73,858.425 1196.89,858.581 1199.05,858.736 1201.21,858.891 1203.37,859.044 1205.53,859.196 1207.69,859.347 1209.85,859.497 1212.01,859.646 1214.18,859.793 1216.34,859.94 1218.5,860.086 1220.66,860.231 1222.82,860.374 1224.98,860.517 1227.14,860.659 1229.3,860.799 1231.46,860.939 1233.62,861.078 1235.78,861.215 1237.94,861.352 1240.1,861.488 1242.26,861.623 1244.42,861.756 1246.58,861.889 1248.74,862.021 1250.9,862.152 1253.06,862.282 1255.22,862.411 1257.39,862.539 1259.55,862.667 1261.71,862.793 1263.87,862.918 1266.03,863.043 1268.19,863.167 1270.35,863.289 1272.51,863.411 1274.67,863.532 1276.83,863.652 1278.99,863.772 1281.15,863.89 1283.31,864.007 1285.47,864.124 1287.63,864.24 1289.79,864.355 1291.95,864.469 1294.11,864.582 1296.27,864.695 1298.43,864.807 1300.6,864.918 1302.76,865.028 1304.92,865.137 1307.08,865.246 1309.24,865.353 1311.4,865.46 1313.56,865.567 1315.72,865.672 1317.88,865.777 1320.04,865.88 1322.2,865.984 1324.36,866.086 1326.52,866.188 1328.68,866.289 1330.84,866.389 1333,866.488 1335.16,866.587 1337.32,866.685 1339.48,866.782 1341.64,866.879 1343.81,866.975 1345.97,867.07 1348.13,867.165 1350.29,867.259 1352.45,867.352 1354.61,867.445 1356.77,867.536 1358.93,867.628 1361.09,867.718 1363.25,867.808 1365.41,867.897 1367.57,867.986 1369.73,868.074 1371.89,868.161 1374.05,868.248 1376.21,868.334 1378.37,868.42 1380.53,868.505 1382.69,868.589 1384.85,868.673 1387.01,868.756 1389.18,868.838 1391.34,868.92 1393.5,869.002 1395.66,869.082 1397.82,869.163 1399.98,869.242 1402.14,869.321 1404.3,869.4 1406.46,869.478 1408.62,869.556 1410.78,869.632 1412.94,869.709 1415.1,869.785 1417.26,869.86 1419.42,869.935 1421.58,870.009 1423.74,870.083 1425.9,870.156 1428.06,870.229 1430.22,870.301 1432.39,870.373 1434.55,870.445 1436.71,870.515 1438.87,870.586 1441.03,870.656 1443.19,870.725 1445.35,870.794 1447.51,870.863 1449.67,870.931 1451.83,870.998 1453.99,871.066 1456.15,871.132 1458.31,871.199 1460.47,871.264 1462.63,871.33 1464.79,871.395 1466.95,871.459 1469.11,871.524 1471.27,871.587 1473.43,871.651 1475.6,871.714 1477.76,871.776 1479.92,871.839 1482.08,871.9 1484.24,871.962 1486.4,872.023 1488.56,872.083 1490.72,872.144 1492.88,872.203 1495.04,872.263 1497.2,872.322 1499.36,872.38 1501.52,872.439 1503.68,872.497 1505.84,872.554 1508,872.611 1510.16,872.668 1512.32,872.724 1514.48,872.78 1516.64,872.836 1518.81,872.891 1520.97,872.946 1523.13,873.001 1525.29,873.055 1527.45,873.109 1529.61,873.162 1531.77,873.215 1533.93,873.268 1536.09,873.32 1538.25,873.372 1540.41,873.424 1542.57,873.475 1544.73,873.526 1546.89,873.577 1549.05,873.627 1551.21,873.677 1553.37,873.727 1555.53,873.776 1557.69,873.825 1559.85,873.874 1562.01,873.922 1564.18,873.97 1566.34,874.018 1568.5,874.065 1570.66,874.112 1572.82,874.159 1574.98,874.205 1577.14,874.251 1579.3,874.297 1581.46,874.342 1583.62,874.387 1585.78,874.432 1587.94,874.476 1590.1,874.521 1592.26,874.564 1594.42,874.608 1596.58,874.651 1598.74,874.694 1600.9,874.737 1603.06,874.779 1605.22,874.821 1607.39,874.863 1609.55,874.904 1611.71,874.946 1613.87,874.987 1616.03,875.027 1618.19,875.068 1620.35,875.108 1622.51,875.147 1624.67,875.187 1626.83,875.226 1628.99,875.265 1631.15,875.304 1633.31,875.342 1635.47,875.38 1637.63,875.418 1639.79,875.456 1641.95,875.493 1644.11,875.53 1646.27,875.567 1648.43,875.603 1650.6,875.64 1652.76,875.676 1654.92,875.712 1657.08,875.747 1659.24,875.782 1661.4,875.817 1663.56,875.852 1665.72,875.887 1667.88,875.921 1670.04,875.955 1672.2,875.989 1674.36,876.023 1676.52,876.056 1678.68,876.089 1680.84,876.122 1683,876.155 1685.16,876.187 1687.32,876.219 1689.48,876.251 1691.64,876.283 1693.81,876.315 1695.97,876.346 1698.13,876.377 1700.29,876.408 1702.45,876.439 1704.61,876.469 1706.77,876.499 1708.93,876.53 1711.09,876.559 1713.25,876.589 1715.41,876.619 1717.57,876.648 1719.73,876.677 1721.89,876.706 1724.05,876.734 1726.21,876.763 1728.37,876.791 1730.53,876.819 1732.69,876.847 1734.85,876.875 1737.02,876.902 1739.18,876.93 1741.34,876.957 1743.5,876.984 1745.66,877.011 1747.82,877.037 1749.98,877.064 1752.14,877.09 1754.3,877.116 1756.46,877.142 1758.62,877.168 1760.78,877.194 1762.94,877.219 1765.1,877.244 1767.26,877.269 1769.42,877.294 1771.58,877.319 1773.74,877.344 1775.9,877.368 1778.06,877.393 1780.22,877.417 1782.39,877.441 1784.55,877.465 1786.71,877.489 1788.87,877.512 1791.03,877.536 1793.19,877.559 1795.35,877.582 1797.51,877.606 1799.67,877.628 1801.83,877.651 1803.99,877.674 1806.15,877.697 1808.31,877.719 1810.47,877.741 1812.63,877.763 1814.79,877.786 1816.95,877.807 1819.11,877.829 1821.27,877.851 1823.43,877.873 1825.6,877.894 1827.76,877.915 1829.92,877.937 1832.08,877.958 1834.24,877.979 1836.4,878 1838.56,878.02 1840.72,878.041 1842.88,878.061 1845.04,878.082 1847.2,878.102 1849.36,878.122 1851.52,878.142 1853.68,878.162 1855.84,878.182 1858,878.201 1860.16,878.221 1862.32,878.24 1864.48,878.26 1866.64,878.279 1868.81,878.298 1870.97,878.317 1873.13,878.336 1875.29,878.354 1877.45,878.373 1879.61,878.391 1881.77,878.41 1883.93,878.428 1886.09,878.446 1888.25,878.464 1890.41,878.482 1892.57,878.5 1894.73,878.517 1896.89,878.535 1899.05,878.552 1901.21,878.57 1903.37,878.587 1905.53,878.604 1907.69,878.621 1909.85,878.638 1912.02,878.655 1914.18,878.671 1916.34,878.688 1918.5,878.705 1920.66,878.721 1922.82,878.737 1924.98,878.753 1927.14,878.769 1929.3,878.785 1931.46,878.801 1933.62,878.817 1935.78,878.833 1937.94,878.848 1940.1,878.863 1942.26,878.879 1944.42,878.894 1946.58,878.909 1948.74,878.924 1950.9,878.939 1953.06,878.954 1955.22,878.969 1957.39,878.983 1959.55,878.998 1961.71,879.012 1963.87,879.027 1966.03,879.041 1968.19,879.055 1970.35,879.069 1972.51,879.083 1974.67,879.097 1976.83,879.11 1978.99,879.124 1981.15,879.138 1983.31,879.151 1985.47,879.165 1987.63,879.178 1989.79,879.191 1991.95,879.204 1994.11,879.217 1996.27,879.23 1998.43,879.243 2000.6,879.256 2002.76,879.268 2004.92,879.281 2007.08,879.293 2009.24,879.306 2011.4,879.318 2013.56,879.33 2015.72,879.342 2017.88,879.355 2020.04,879.366 2022.2,879.378 2024.36,879.39 2026.52,879.402 2028.68,879.414 2030.84,879.425 2033,879.437 2035.16,879.448 2037.32,879.459 2039.48,879.47 2041.64,879.482 2043.81,879.493 2045.97,879.504 2048.13,879.515 2050.29,879.525 2052.45,879.536 2054.61,879.547 2056.77,879.558 2058.93,879.568 2061.09,879.579 2063.25,879.589 2065.41,879.599 2067.57,879.609 2069.73,879.62 2071.89,879.63 2074.05,879.64 2076.21,879.65 2078.37,879.66 2080.53,879.669 2082.69,879.679 2084.85,879.689 2087.02,879.698 2089.18,879.708 2091.34,879.717 2093.5,879.727 2095.66,879.736 2097.82,879.746 2099.98,879.755 2102.14,879.764 2104.3,879.773 2106.46,879.782 2108.62,879.791 2110.78,879.8 2112.94,879.809 2115.1,879.817 2117.26,879.826 2119.42,879.835 2121.58,879.843 2123.74,879.852 2125.9,879.861 2128.06,879.869 2130.22,879.877 2132.39,879.886 2134.55,879.894 2136.71,879.902 2138.87,879.91 2141.03,879.918 2143.19,879.926 2145.35,879.934 2147.51,879.942 2149.67,879.95 2151.83,879.958 2153.99,879.966 2156.15,879.974 2158.31,879.981 2160.47,879.989 2162.63,879.997 2164.79,880.004 2166.95,880.012 2169.11,880.019 2171.27,880.026 2173.43,880.034 2175.6,880.041 2177.76,880.048 2179.92,880.056 2182.08,880.063 2184.24,880.07 2186.4,880.077 2188.56,880.084 2190.72,880.091 2192.88,880.098 2195.04,880.105 2197.2,880.112 2199.36,880.119 2201.52,880.126 2203.68,880.133 2205.84,880.139 2208,880.146 2210.16,880.153 2212.32,880.16 2214.48,880.166 2216.64,880.173 2218.81,880.179 2220.97,880.186 2223.13,880.192 2225.29,880.199 2227.45,880.205 2229.61,880.212 2231.77,880.218 2233.93,880.225 2236.09,880.231 2238.25,880.237 2240.41,880.244 2242.57,880.25 2244.73,880.256 2246.89,880.262 2249.05,880.269 2251.21,880.275 2253.37,880.281 2255.53,880.287 2257.69,880.293 2259.85,880.299 2262.02,880.305 2264.18,880.311 2266.34,880.317 2268.5,880.323 2270.66,880.329 2272.82,880.335 2274.98,880.34 2277.14,880.346 2279.3,880.352 2281.46,880.357 2283.62,880.363 2285.78,880.369 2287.94,880.374 2290.1,880.38 2292.26,880.385 2294.42,880.391 2296.58,880.396 2298.74,880.401 2300.9,880.407 2303.06,880.412 2305.23,880.417 2307.39,880.423 2309.55,880.428 2311.71,880.433 2313.87,880.438 2316.03,880.443 2318.19,880.448 2320.35,880.453 2322.51,880.459 2324.67,880.464 2326.83,880.468 2328.99,880.473 2331.15,880.478 2333.31,880.483 2335.47,880.488 2337.63,880.493 2339.79,880.498 2341.95,880.502 2344.11,880.507 2346.27,880.512 2348.43,880.516 2350.6,880.521 2352.76,880.526 "/>
<path clip-path="url(#clip670)" d="M1805.58 248.629 L2280.81 248.629 L2280.81 93.1086 L1805.58 93.1086  Z" fill="#ffffff" fill-rule="evenodd" fill-opacity="1"/>
<polyline clip-path="url(#clip670)" style="stroke:#000000; stroke-linecap:round; stroke-linejoin:round; stroke-width:4; stroke-opacity:1; fill:none" points="1805.58,248.629 2280.81,248.629 2280.81,93.1086 1805.58,93.1086 1805.58,248.629 "/>
<polyline clip-path="url(#clip670)" style="stroke:#009af9; stroke-linecap:round; stroke-linejoin:round; stroke-width:4; stroke-opacity:1; fill:none" points="1829.56,144.949 1973.45,144.949 "/>
<path clip-path="url(#clip670)" d="M1997.43 136.303 L2001.95 136.303 L2010.05 158.062 L2018.15 136.303 L2022.66 136.303 L2012.94 162.229 L2007.16 162.229 L1997.43 136.303 Z" fill="#000000" fill-rule="nonzero" fill-opacity="1" /><path clip-path="url(#clip670)" d="M2029.96 158.293 L2037.6 158.293 L2037.6 131.928 L2029.28 133.595 L2029.28 129.335 L2037.55 127.669 L2042.22 127.669 L2042.22 158.293 L2049.86 158.293 L2049.86 162.229 L2029.96 162.229 L2029.96 158.293 Z" fill="#000000" fill-rule="nonzero" fill-opacity="1" /><path clip-path="url(#clip670)" d="M2067.97 145.585 L2067.97 152.807 L2076.09 152.807 L2076.09 155.006 L2067.97 155.006 L2067.97 162.229 L2065.53 162.229 L2065.53 155.006 L2057.41 155.006 L2057.41 152.807 L2065.53 152.807 L2065.53 145.585 L2067.97 145.585 Z" fill="#000000" fill-rule="nonzero" fill-opacity="1" /><path clip-path="url(#clip670)" d="M2100.26 137.067 L2100.26 141.094 Q2098.45 140.169 2096.51 139.706 Q2094.56 139.243 2092.48 139.243 Q2089.31 139.243 2087.71 140.215 Q2086.14 141.187 2086.14 143.131 Q2086.14 144.613 2087.27 145.469 Q2088.4 146.303 2091.83 147.067 L2093.29 147.391 Q2097.83 148.363 2099.72 150.145 Q2101.65 151.905 2101.65 155.076 Q2101.65 158.687 2098.78 160.793 Q2095.93 162.9 2090.93 162.9 Q2088.84 162.9 2086.58 162.483 Q2084.33 162.09 2081.83 161.28 L2081.83 156.881 Q2084.19 158.108 2086.48 158.733 Q2088.78 159.335 2091.02 159.335 Q2094.03 159.335 2095.65 158.317 Q2097.27 157.275 2097.27 155.4 Q2097.27 153.664 2096.09 152.738 Q2094.93 151.812 2090.97 150.956 L2089.49 150.608 Q2085.53 149.775 2083.78 148.062 Q2082.02 146.326 2082.02 143.317 Q2082.02 139.659 2084.61 137.669 Q2087.2 135.678 2091.97 135.678 Q2094.33 135.678 2096.41 136.025 Q2098.5 136.372 2100.26 137.067 Z" fill="#000000" fill-rule="nonzero" fill-opacity="1" /><path clip-path="url(#clip670)" d="M2112.64 128.942 L2112.64 136.303 L2121.41 136.303 L2121.41 139.613 L2112.64 139.613 L2112.64 153.687 Q2112.64 156.858 2113.5 157.761 Q2114.38 158.664 2117.04 158.664 L2121.41 158.664 L2121.41 162.229 L2117.04 162.229 Q2112.11 162.229 2110.23 160.4 Q2108.36 158.548 2108.36 153.687 L2108.36 139.613 L2105.23 139.613 L2105.23 136.303 L2108.36 136.303 L2108.36 128.942 L2112.64 128.942 Z" fill="#000000" fill-rule="nonzero" fill-opacity="1" /><path clip-path="url(#clip670)" d="M2137.06 139.289 Q2133.64 139.289 2131.65 141.974 Q2129.65 144.636 2129.65 149.289 Q2129.65 153.942 2131.62 156.627 Q2133.61 159.289 2137.06 159.289 Q2140.46 159.289 2142.46 156.604 Q2144.45 153.918 2144.45 149.289 Q2144.45 144.682 2142.46 141.997 Q2140.46 139.289 2137.06 139.289 M2137.06 135.678 Q2142.62 135.678 2145.79 139.289 Q2148.96 142.9 2148.96 149.289 Q2148.96 155.655 2145.79 159.289 Q2142.62 162.9 2137.06 162.9 Q2131.48 162.9 2128.31 159.289 Q2125.16 155.655 2125.16 149.289 Q2125.16 142.9 2128.31 139.289 Q2131.48 135.678 2137.06 135.678 Z" fill="#000000" fill-rule="nonzero" fill-opacity="1" /><path clip-path="url(#clip670)" d="M2171.04 140.284 Q2170.33 139.868 2169.47 139.682 Q2168.64 139.474 2167.62 139.474 Q2164.01 139.474 2162.06 141.835 Q2160.14 144.173 2160.14 148.571 L2160.14 162.229 L2155.86 162.229 L2155.86 136.303 L2160.14 136.303 L2160.14 140.331 Q2161.48 137.969 2163.64 136.835 Q2165.79 135.678 2168.87 135.678 Q2169.31 135.678 2169.84 135.747 Q2170.37 135.794 2171.02 135.909 L2171.04 140.284 Z" fill="#000000" fill-rule="nonzero" fill-opacity="1" /><path clip-path="url(#clip670)" d="M2187.29 149.196 Q2182.13 149.196 2180.14 150.377 Q2178.15 151.557 2178.15 154.405 Q2178.15 156.673 2179.63 158.016 Q2181.14 159.335 2183.71 159.335 Q2187.25 159.335 2189.38 156.835 Q2191.53 154.312 2191.53 150.145 L2191.53 149.196 L2187.29 149.196 M2195.79 147.437 L2195.79 162.229 L2191.53 162.229 L2191.53 158.293 Q2190.07 160.655 2187.9 161.789 Q2185.72 162.9 2182.57 162.9 Q2178.59 162.9 2176.23 160.678 Q2173.89 158.432 2173.89 154.682 Q2173.89 150.307 2176.81 148.085 Q2179.75 145.863 2185.56 145.863 L2191.53 145.863 L2191.53 145.446 Q2191.53 142.507 2189.58 140.909 Q2187.66 139.289 2184.17 139.289 Q2181.95 139.289 2179.84 139.821 Q2177.73 140.354 2175.79 141.419 L2175.79 137.483 Q2178.13 136.581 2180.33 136.141 Q2182.52 135.678 2184.61 135.678 Q2190.23 135.678 2193.01 138.594 Q2195.79 141.511 2195.79 147.437 Z" fill="#000000" fill-rule="nonzero" fill-opacity="1" /><path clip-path="url(#clip670)" d="M2221.62 148.965 Q2221.62 144.335 2219.7 141.789 Q2217.8 139.243 2214.35 139.243 Q2210.93 139.243 2209.01 141.789 Q2207.11 144.335 2207.11 148.965 Q2207.11 153.571 2209.01 156.118 Q2210.93 158.664 2214.35 158.664 Q2217.8 158.664 2219.7 156.118 Q2221.62 153.571 2221.62 148.965 M2225.88 159.011 Q2225.88 165.631 2222.94 168.849 Q2220 172.09 2213.94 172.09 Q2211.69 172.09 2209.7 171.742 Q2207.71 171.418 2205.83 170.724 L2205.83 166.58 Q2207.71 167.599 2209.54 168.085 Q2211.37 168.571 2213.27 168.571 Q2217.46 168.571 2219.54 166.372 Q2221.62 164.196 2221.62 159.775 L2221.62 157.668 Q2220.3 159.96 2218.24 161.094 Q2216.18 162.229 2213.31 162.229 Q2208.54 162.229 2205.63 158.594 Q2202.71 154.96 2202.71 148.965 Q2202.71 142.946 2205.63 139.312 Q2208.54 135.678 2213.31 135.678 Q2216.18 135.678 2218.24 136.812 Q2220.3 137.946 2221.62 140.238 L2221.62 136.303 L2225.88 136.303 L2225.88 159.011 Z" fill="#000000" fill-rule="nonzero" fill-opacity="1" /><path clip-path="url(#clip670)" d="M2256.83 148.201 L2256.83 150.284 L2237.25 150.284 Q2237.52 154.682 2239.89 156.997 Q2242.27 159.289 2246.51 159.289 Q2248.96 159.289 2251.25 158.687 Q2253.57 158.085 2255.83 156.881 L2255.83 160.909 Q2253.54 161.881 2251.14 162.391 Q2248.73 162.9 2246.25 162.9 Q2240.05 162.9 2236.41 159.289 Q2232.8 155.678 2232.8 149.52 Q2232.8 143.155 2236.23 139.428 Q2239.68 135.678 2245.51 135.678 Q2250.74 135.678 2253.77 139.057 Q2256.83 142.414 2256.83 148.201 M2252.57 146.951 Q2252.52 143.456 2250.6 141.372 Q2248.71 139.289 2245.56 139.289 Q2241.99 139.289 2239.84 141.303 Q2237.71 143.317 2237.39 146.974 L2252.57 146.951 Z" fill="#000000" fill-rule="nonzero" fill-opacity="1" /><polyline clip-path="url(#clip670)" style="stroke:#e26f46; stroke-linecap:round; stroke-linejoin:round; stroke-width:4; stroke-opacity:1; fill:none" points="1829.56,196.789 1973.45,196.789 "/>
<path clip-path="url(#clip670)" d="M1997.43 188.143 L2001.95 188.143 L2010.05 209.902 L2018.15 188.143 L2022.66 188.143 L2012.94 214.069 L2007.16 214.069 L1997.43 188.143 Z" fill="#000000" fill-rule="nonzero" fill-opacity="1" /><path clip-path="url(#clip670)" d="M2029.19 179.509 L2047.55 179.509 L2047.55 183.444 L2033.47 183.444 L2033.47 191.916 Q2034.49 191.569 2035.51 191.407 Q2036.53 191.222 2037.55 191.222 Q2043.34 191.222 2046.72 194.393 Q2050.09 197.564 2050.09 202.981 Q2050.09 208.559 2046.62 211.661 Q2043.15 214.74 2036.83 214.74 Q2034.66 214.74 2032.39 214.37 Q2030.14 213.999 2027.73 213.258 L2027.73 208.559 Q2029.82 209.694 2032.04 210.249 Q2034.26 210.805 2036.74 210.805 Q2040.74 210.805 2043.08 208.698 Q2045.42 206.592 2045.42 202.981 Q2045.42 199.37 2043.08 197.263 Q2040.74 195.157 2036.74 195.157 Q2034.86 195.157 2032.99 195.573 Q2031.14 195.99 2029.19 196.87 L2029.19 179.509 Z" fill="#000000" fill-rule="nonzero" fill-opacity="1" /><path clip-path="url(#clip670)" d="M2067.97 197.425 L2067.97 204.647 L2076.09 204.647 L2076.09 206.846 L2067.97 206.846 L2067.97 214.069 L2065.53 214.069 L2065.53 206.846 L2057.41 206.846 L2057.41 204.647 L2065.53 204.647 L2065.53 197.425 L2067.97 197.425 Z" fill="#000000" fill-rule="nonzero" fill-opacity="1" /><path clip-path="url(#clip670)" d="M2100.26 188.907 L2100.26 192.934 Q2098.45 192.009 2096.51 191.546 Q2094.56 191.083 2092.48 191.083 Q2089.31 191.083 2087.71 192.055 Q2086.14 193.027 2086.14 194.971 Q2086.14 196.453 2087.27 197.309 Q2088.4 198.143 2091.83 198.907 L2093.29 199.231 Q2097.83 200.203 2099.72 201.985 Q2101.65 203.745 2101.65 206.916 Q2101.65 210.527 2098.78 212.633 Q2095.93 214.74 2090.93 214.74 Q2088.84 214.74 2086.58 214.323 Q2084.33 213.93 2081.83 213.12 L2081.83 208.721 Q2084.19 209.948 2086.48 210.573 Q2088.78 211.175 2091.02 211.175 Q2094.03 211.175 2095.65 210.157 Q2097.27 209.115 2097.27 207.24 Q2097.27 205.504 2096.09 204.578 Q2094.93 203.652 2090.97 202.796 L2089.49 202.448 Q2085.53 201.615 2083.78 199.902 Q2082.02 198.166 2082.02 195.157 Q2082.02 191.499 2084.61 189.509 Q2087.2 187.518 2091.97 187.518 Q2094.33 187.518 2096.41 187.865 Q2098.5 188.212 2100.26 188.907 Z" fill="#000000" fill-rule="nonzero" fill-opacity="1" /><path clip-path="url(#clip670)" d="M2112.64 180.782 L2112.64 188.143 L2121.41 188.143 L2121.41 191.453 L2112.64 191.453 L2112.64 205.527 Q2112.64 208.698 2113.5 209.601 Q2114.38 210.504 2117.04 210.504 L2121.41 210.504 L2121.41 214.069 L2117.04 214.069 Q2112.11 214.069 2110.23 212.24 Q2108.36 210.388 2108.36 205.527 L2108.36 191.453 L2105.23 191.453 L2105.23 188.143 L2108.36 188.143 L2108.36 180.782 L2112.64 180.782 Z" fill="#000000" fill-rule="nonzero" fill-opacity="1" /><path clip-path="url(#clip670)" d="M2137.06 191.129 Q2133.64 191.129 2131.65 193.814 Q2129.65 196.476 2129.65 201.129 Q2129.65 205.782 2131.62 208.467 Q2133.61 211.129 2137.06 211.129 Q2140.46 211.129 2142.46 208.444 Q2144.45 205.758 2144.45 201.129 Q2144.45 196.522 2142.46 193.837 Q2140.46 191.129 2137.06 191.129 M2137.06 187.518 Q2142.62 187.518 2145.79 191.129 Q2148.96 194.74 2148.96 201.129 Q2148.96 207.495 2145.79 211.129 Q2142.62 214.74 2137.06 214.74 Q2131.48 214.74 2128.31 211.129 Q2125.16 207.495 2125.16 201.129 Q2125.16 194.74 2128.31 191.129 Q2131.48 187.518 2137.06 187.518 Z" fill="#000000" fill-rule="nonzero" fill-opacity="1" /><path clip-path="url(#clip670)" d="M2171.04 192.124 Q2170.33 191.708 2169.47 191.522 Q2168.64 191.314 2167.62 191.314 Q2164.01 191.314 2162.06 193.675 Q2160.14 196.013 2160.14 200.411 L2160.14 214.069 L2155.86 214.069 L2155.86 188.143 L2160.14 188.143 L2160.14 192.171 Q2161.48 189.809 2163.64 188.675 Q2165.79 187.518 2168.87 187.518 Q2169.31 187.518 2169.84 187.587 Q2170.37 187.634 2171.02 187.749 L2171.04 192.124 Z" fill="#000000" fill-rule="nonzero" fill-opacity="1" /><path clip-path="url(#clip670)" d="M2187.29 201.036 Q2182.13 201.036 2180.14 202.217 Q2178.15 203.397 2178.15 206.245 Q2178.15 208.513 2179.63 209.856 Q2181.14 211.175 2183.71 211.175 Q2187.25 211.175 2189.38 208.675 Q2191.53 206.152 2191.53 201.985 L2191.53 201.036 L2187.29 201.036 M2195.79 199.277 L2195.79 214.069 L2191.53 214.069 L2191.53 210.133 Q2190.07 212.495 2187.9 213.629 Q2185.72 214.74 2182.57 214.74 Q2178.59 214.74 2176.23 212.518 Q2173.89 210.272 2173.89 206.522 Q2173.89 202.147 2176.81 199.925 Q2179.75 197.703 2185.56 197.703 L2191.53 197.703 L2191.53 197.286 Q2191.53 194.347 2189.58 192.749 Q2187.66 191.129 2184.17 191.129 Q2181.95 191.129 2179.84 191.661 Q2177.73 192.194 2175.79 193.259 L2175.79 189.323 Q2178.13 188.421 2180.33 187.981 Q2182.52 187.518 2184.61 187.518 Q2190.23 187.518 2193.01 190.434 Q2195.79 193.351 2195.79 199.277 Z" fill="#000000" fill-rule="nonzero" fill-opacity="1" /><path clip-path="url(#clip670)" d="M2221.62 200.805 Q2221.62 196.175 2219.7 193.629 Q2217.8 191.083 2214.35 191.083 Q2210.93 191.083 2209.01 193.629 Q2207.11 196.175 2207.11 200.805 Q2207.11 205.411 2209.01 207.958 Q2210.93 210.504 2214.35 210.504 Q2217.8 210.504 2219.7 207.958 Q2221.62 205.411 2221.62 200.805 M2225.88 210.851 Q2225.88 217.471 2222.94 220.689 Q2220 223.93 2213.94 223.93 Q2211.69 223.93 2209.7 223.582 Q2207.71 223.258 2205.83 222.564 L2205.83 218.42 Q2207.71 219.439 2209.54 219.925 Q2211.37 220.411 2213.27 220.411 Q2217.46 220.411 2219.54 218.212 Q2221.62 216.036 2221.62 211.615 L2221.62 209.508 Q2220.3 211.8 2218.24 212.934 Q2216.18 214.069 2213.31 214.069 Q2208.54 214.069 2205.63 210.434 Q2202.71 206.8 2202.71 200.805 Q2202.71 194.786 2205.63 191.152 Q2208.54 187.518 2213.31 187.518 Q2216.18 187.518 2218.24 188.652 Q2220.3 189.786 2221.62 192.078 L2221.62 188.143 L2225.88 188.143 L2225.88 210.851 Z" fill="#000000" fill-rule="nonzero" fill-opacity="1" /><path clip-path="url(#clip670)" d="M2256.83 200.041 L2256.83 202.124 L2237.25 202.124 Q2237.52 206.522 2239.89 208.837 Q2242.27 211.129 2246.51 211.129 Q2248.96 211.129 2251.25 210.527 Q2253.57 209.925 2255.83 208.721 L2255.83 212.749 Q2253.54 213.721 2251.14 214.231 Q2248.73 214.74 2246.25 214.74 Q2240.05 214.74 2236.41 211.129 Q2232.8 207.518 2232.8 201.36 Q2232.8 194.995 2236.23 191.268 Q2239.68 187.518 2245.51 187.518 Q2250.74 187.518 2253.77 190.897 Q2256.83 194.254 2256.83 200.041 M2252.57 198.791 Q2252.52 195.296 2250.6 193.212 Q2248.71 191.129 2245.56 191.129 Q2241.99 191.129 2239.84 193.143 Q2237.71 195.157 2237.39 198.814 L2252.57 198.791 Z" fill="#000000" fill-rule="nonzero" fill-opacity="1" /></svg>
