<?xml version="1.0" encoding="utf-8"?>
<svg xmlns="http://www.w3.org/2000/svg" xmlns:xlink="http://www.w3.org/1999/xlink" width="600" height="400" viewBox="0 0 2400 1600">
<defs>
  <clipPath id="clip380">
    <rect x="0" y="0" width="2400" height="1600"/>
  </clipPath>
</defs>
<path clip-path="url(#clip380)" d="M0 1600 L2400 1600 L2400 0 L0 0  Z" fill="#ffffff" fill-rule="evenodd" fill-opacity="1"/>
<defs>
  <clipPath id="clip381">
    <rect x="480" y="0" width="1681" height="1600"/>
  </clipPath>
</defs>
<path clip-path="url(#clip380)" d="M193.936 1423.18 L2352.76 1423.18 L2352.76 47.2441 L193.936 47.2441  Z" fill="#ffffff" fill-rule="evenodd" fill-opacity="1"/>
<defs>
  <clipPath id="clip382">
    <rect x="193" y="47" width="2160" height="1377"/>
  </clipPath>
</defs>
<polyline clip-path="url(#clip382)" style="stroke:#000000; stroke-linecap:round; stroke-linejoin:round; stroke-width:2; stroke-opacity:0.1; fill:none" points="193.936,1423.18 193.936,47.2441 "/>
<polyline clip-path="url(#clip382)" style="stroke:#000000; stroke-linecap:round; stroke-linejoin:round; stroke-width:2; stroke-opacity:0.1; fill:none" points="733.641,1423.18 733.641,47.2441 "/>
<polyline clip-path="url(#clip382)" style="stroke:#000000; stroke-linecap:round; stroke-linejoin:round; stroke-width:2; stroke-opacity:0.1; fill:none" points="1273.35,1423.18 1273.35,47.2441 "/>
<polyline clip-path="url(#clip382)" style="stroke:#000000; stroke-linecap:round; stroke-linejoin:round; stroke-width:2; stroke-opacity:0.1; fill:none" points="1813.05,1423.18 1813.05,47.2441 "/>
<polyline clip-path="url(#clip382)" style="stroke:#000000; stroke-linecap:round; stroke-linejoin:round; stroke-width:2; stroke-opacity:0.1; fill:none" points="2352.76,1423.18 2352.76,47.2441 "/>
<polyline clip-path="url(#clip382)" style="stroke:#000000; stroke-linecap:round; stroke-linejoin:round; stroke-width:2; stroke-opacity:0.1; fill:none" points="193.936,1235.27 2352.76,1235.27 "/>
<polyline clip-path="url(#clip382)" style="stroke:#000000; stroke-linecap:round; stroke-linejoin:round; stroke-width:2; stroke-opacity:0.1; fill:none" points="193.936,1010.47 2352.76,1010.47 "/>
<polyline clip-path="url(#clip382)" style="stroke:#000000; stroke-linecap:round; stroke-linejoin:round; stroke-width:2; stroke-opacity:0.1; fill:none" points="193.936,785.67 2352.76,785.67 "/>
<polyline clip-path="url(#clip382)" style="stroke:#000000; stroke-linecap:round; stroke-linejoin:round; stroke-width:2; stroke-opacity:0.1; fill:none" points="193.936,560.868 2352.76,560.868 "/>
<polyline clip-path="url(#clip382)" style="stroke:#000000; stroke-linecap:round; stroke-linejoin:round; stroke-width:2; stroke-opacity:0.1; fill:none" points="193.936,336.067 2352.76,336.067 "/>
<polyline clip-path="url(#clip382)" style="stroke:#000000; stroke-linecap:round; stroke-linejoin:round; stroke-width:2; stroke-opacity:0.1; fill:none" points="193.936,111.265 2352.76,111.265 "/>
<polyline clip-path="url(#clip380)" style="stroke:#000000; stroke-linecap:round; stroke-linejoin:round; stroke-width:4; stroke-opacity:1; fill:none" points="193.936,1423.18 2352.76,1423.18 "/>
<polyline clip-path="url(#clip380)" style="stroke:#000000; stroke-linecap:round; stroke-linejoin:round; stroke-width:4; stroke-opacity:1; fill:none" points="193.936,1423.18 193.936,1404.28 "/>
<polyline clip-path="url(#clip380)" style="stroke:#000000; stroke-linecap:round; stroke-linejoin:round; stroke-width:4; stroke-opacity:1; fill:none" points="733.641,1423.18 733.641,1404.28 "/>
<polyline clip-path="url(#clip380)" style="stroke:#000000; stroke-linecap:round; stroke-linejoin:round; stroke-width:4; stroke-opacity:1; fill:none" points="1273.35,1423.18 1273.35,1404.28 "/>
<polyline clip-path="url(#clip380)" style="stroke:#000000; stroke-linecap:round; stroke-linejoin:round; stroke-width:4; stroke-opacity:1; fill:none" points="1813.05,1423.18 1813.05,1404.28 "/>
<polyline clip-path="url(#clip380)" style="stroke:#000000; stroke-linecap:round; stroke-linejoin:round; stroke-width:4; stroke-opacity:1; fill:none" points="2352.76,1423.18 2352.76,1404.28 "/>
<path clip-path="url(#clip380)" d="M171.32 1454.1 Q167.709 1454.1 165.881 1457.66 Q164.075 1461.2 164.075 1468.33 Q164.075 1475.44 165.881 1479.01 Q167.709 1482.55 171.32 1482.55 Q174.955 1482.55 176.76 1479.01 Q178.589 1475.44 178.589 1468.33 Q178.589 1461.2 176.76 1457.66 Q174.955 1454.1 171.32 1454.1 M171.32 1450.39 Q177.131 1450.39 180.186 1455 Q183.265 1459.58 183.265 1468.33 Q183.265 1477.06 180.186 1481.67 Q177.131 1486.25 171.32 1486.25 Q165.51 1486.25 162.432 1481.67 Q159.376 1477.06 159.376 1468.33 Q159.376 1459.58 162.432 1455 Q165.51 1450.39 171.32 1450.39 Z" fill="#000000" fill-rule="nonzero" fill-opacity="1" /><path clip-path="url(#clip380)" d="M191.482 1479.7 L196.367 1479.7 L196.367 1485.58 L191.482 1485.58 L191.482 1479.7 Z" fill="#000000" fill-rule="nonzero" fill-opacity="1" /><path clip-path="url(#clip380)" d="M216.552 1454.1 Q212.941 1454.1 211.112 1457.66 Q209.306 1461.2 209.306 1468.33 Q209.306 1475.44 211.112 1479.01 Q212.941 1482.55 216.552 1482.55 Q220.186 1482.55 221.991 1479.01 Q223.82 1475.44 223.82 1468.33 Q223.82 1461.2 221.991 1457.66 Q220.186 1454.1 216.552 1454.1 M216.552 1450.39 Q222.362 1450.39 225.417 1455 Q228.496 1459.58 228.496 1468.33 Q228.496 1477.06 225.417 1481.67 Q222.362 1486.25 216.552 1486.25 Q210.741 1486.25 207.663 1481.67 Q204.607 1477.06 204.607 1468.33 Q204.607 1459.58 207.663 1455 Q210.741 1450.39 216.552 1450.39 Z" fill="#000000" fill-rule="nonzero" fill-opacity="1" /><path clip-path="url(#clip380)" d="M711.523 1454.1 Q707.912 1454.1 706.083 1457.66 Q704.278 1461.2 704.278 1468.33 Q704.278 1475.44 706.083 1479.01 Q707.912 1482.55 711.523 1482.55 Q715.157 1482.55 716.963 1479.01 Q718.792 1475.44 718.792 1468.33 Q718.792 1461.2 716.963 1457.66 Q715.157 1454.1 711.523 1454.1 M711.523 1450.39 Q717.333 1450.39 720.389 1455 Q723.467 1459.58 723.467 1468.33 Q723.467 1477.06 720.389 1481.67 Q717.333 1486.25 711.523 1486.25 Q705.713 1486.25 702.634 1481.67 Q699.579 1477.06 699.579 1468.33 Q699.579 1459.58 702.634 1455 Q705.713 1450.39 711.523 1450.39 Z" fill="#000000" fill-rule="nonzero" fill-opacity="1" /><path clip-path="url(#clip380)" d="M731.685 1479.7 L736.569 1479.7 L736.569 1485.58 L731.685 1485.58 L731.685 1479.7 Z" fill="#000000" fill-rule="nonzero" fill-opacity="1" /><path clip-path="url(#clip380)" d="M746.801 1451.02 L765.157 1451.02 L765.157 1454.96 L751.083 1454.96 L751.083 1463.43 Q752.102 1463.08 753.12 1462.92 Q754.139 1462.73 755.157 1462.73 Q760.944 1462.73 764.324 1465.9 Q767.703 1469.08 767.703 1474.49 Q767.703 1480.07 764.231 1483.17 Q760.759 1486.25 754.439 1486.25 Q752.264 1486.25 749.995 1485.88 Q747.75 1485.51 745.342 1484.77 L745.342 1480.07 Q747.426 1481.2 749.648 1481.76 Q751.87 1482.32 754.347 1482.32 Q758.351 1482.32 760.689 1480.21 Q763.027 1478.1 763.027 1474.49 Q763.027 1470.88 760.689 1468.77 Q758.351 1466.67 754.347 1466.67 Q752.472 1466.67 750.597 1467.08 Q748.745 1467.5 746.801 1468.38 L746.801 1451.02 Z" fill="#000000" fill-rule="nonzero" fill-opacity="1" /><path clip-path="url(#clip380)" d="M1240.5 1481.64 L1248.14 1481.64 L1248.14 1455.28 L1239.83 1456.95 L1239.83 1452.69 L1248.09 1451.02 L1252.77 1451.02 L1252.77 1481.64 L1260.41 1481.64 L1260.41 1485.58 L1240.5 1485.58 L1240.5 1481.64 Z" fill="#000000" fill-rule="nonzero" fill-opacity="1" /><path clip-path="url(#clip380)" d="M1269.85 1479.7 L1274.73 1479.7 L1274.73 1485.58 L1269.85 1485.58 L1269.85 1479.7 Z" fill="#000000" fill-rule="nonzero" fill-opacity="1" /><path clip-path="url(#clip380)" d="M1294.92 1454.1 Q1291.31 1454.1 1289.48 1457.66 Q1287.67 1461.2 1287.67 1468.33 Q1287.67 1475.44 1289.48 1479.01 Q1291.31 1482.55 1294.92 1482.55 Q1298.55 1482.55 1300.36 1479.01 Q1302.19 1475.44 1302.19 1468.33 Q1302.19 1461.2 1300.36 1457.66 Q1298.55 1454.1 1294.92 1454.1 M1294.92 1450.39 Q1300.73 1450.39 1303.79 1455 Q1306.86 1459.58 1306.86 1468.33 Q1306.86 1477.06 1303.79 1481.67 Q1300.73 1486.25 1294.92 1486.25 Q1289.11 1486.25 1286.03 1481.67 Q1282.98 1477.06 1282.98 1468.33 Q1282.98 1459.58 1286.03 1455 Q1289.11 1450.39 1294.92 1450.39 Z" fill="#000000" fill-rule="nonzero" fill-opacity="1" /><path clip-path="url(#clip380)" d="M1780.7 1481.64 L1788.34 1481.64 L1788.34 1455.28 L1780.03 1456.95 L1780.03 1452.69 L1788.29 1451.02 L1792.97 1451.02 L1792.97 1481.64 L1800.61 1481.64 L1800.61 1485.58 L1780.7 1485.58 L1780.7 1481.64 Z" fill="#000000" fill-rule="nonzero" fill-opacity="1" /><path clip-path="url(#clip380)" d="M1810.05 1479.7 L1814.94 1479.7 L1814.94 1485.58 L1810.05 1485.58 L1810.05 1479.7 Z" fill="#000000" fill-rule="nonzero" fill-opacity="1" /><path clip-path="url(#clip380)" d="M1825.17 1451.02 L1843.53 1451.02 L1843.53 1454.96 L1829.45 1454.96 L1829.45 1463.43 Q1830.47 1463.08 1831.49 1462.92 Q1832.51 1462.73 1833.53 1462.73 Q1839.31 1462.73 1842.69 1465.9 Q1846.07 1469.08 1846.07 1474.49 Q1846.07 1480.07 1842.6 1483.17 Q1839.13 1486.25 1832.81 1486.25 Q1830.63 1486.25 1828.36 1485.88 Q1826.12 1485.51 1823.71 1484.77 L1823.71 1480.07 Q1825.79 1481.2 1828.02 1481.76 Q1830.24 1482.32 1832.72 1482.32 Q1836.72 1482.32 1839.06 1480.21 Q1841.4 1478.1 1841.4 1474.49 Q1841.4 1470.88 1839.06 1468.77 Q1836.72 1466.67 1832.72 1466.67 Q1830.84 1466.67 1828.97 1467.08 Q1827.11 1467.5 1825.17 1468.38 L1825.17 1451.02 Z" fill="#000000" fill-rule="nonzero" fill-opacity="1" /><path clip-path="url(#clip380)" d="M2323.99 1481.64 L2340.31 1481.64 L2340.31 1485.58 L2318.37 1485.58 L2318.37 1481.64 Q2321.03 1478.89 2325.61 1474.26 Q2330.22 1469.61 2331.4 1468.27 Q2333.65 1465.74 2334.53 1464.01 Q2335.43 1462.25 2335.43 1460.56 Q2335.43 1457.8 2333.49 1456.07 Q2331.56 1454.33 2328.46 1454.33 Q2326.26 1454.33 2323.81 1455.09 Q2321.38 1455.86 2318.6 1457.41 L2318.6 1452.69 Q2321.43 1451.55 2323.88 1450.97 Q2326.33 1450.39 2328.37 1450.39 Q2333.74 1450.39 2336.93 1453.08 Q2340.13 1455.77 2340.13 1460.26 Q2340.13 1462.39 2339.32 1464.31 Q2338.53 1466.2 2336.42 1468.8 Q2335.85 1469.47 2332.74 1472.69 Q2329.64 1475.88 2323.99 1481.64 Z" fill="#000000" fill-rule="nonzero" fill-opacity="1" /><path clip-path="url(#clip380)" d="M2350.13 1479.7 L2355.01 1479.7 L2355.01 1485.58 L2350.13 1485.58 L2350.13 1479.7 Z" fill="#000000" fill-rule="nonzero" fill-opacity="1" /><path clip-path="url(#clip380)" d="M2375.2 1454.1 Q2371.59 1454.1 2369.76 1457.66 Q2367.95 1461.2 2367.95 1468.33 Q2367.95 1475.44 2369.76 1479.01 Q2371.59 1482.55 2375.2 1482.55 Q2378.83 1482.55 2380.64 1479.01 Q2382.47 1475.44 2382.47 1468.33 Q2382.47 1461.2 2380.64 1457.66 Q2378.83 1454.1 2375.2 1454.1 M2375.2 1450.39 Q2381.01 1450.39 2384.06 1455 Q2387.14 1459.58 2387.14 1468.33 Q2387.14 1477.06 2384.06 1481.67 Q2381.01 1486.25 2375.2 1486.25 Q2369.39 1486.25 2366.31 1481.67 Q2363.25 1477.06 2363.25 1468.33 Q2363.25 1459.58 2366.31 1455 Q2369.39 1450.39 2375.2 1450.39 Z" fill="#000000" fill-rule="nonzero" fill-opacity="1" /><path clip-path="url(#clip380)" d="M1272.41 1522.27 L1272.41 1532.4 L1284.47 1532.4 L1284.47 1536.95 L1272.41 1536.95 L1272.41 1556.3 Q1272.41 1560.66 1273.58 1561.9 Q1274.79 1563.14 1278.45 1563.14 L1284.47 1563.14 L1284.47 1568.04 L1278.45 1568.04 Q1271.67 1568.04 1269.1 1565.53 Q1266.52 1562.98 1266.52 1556.3 L1266.52 1536.95 L1262.22 1536.95 L1262.22 1532.4 L1266.52 1532.4 L1266.52 1522.27 L1272.41 1522.27 Z" fill="#000000" fill-rule="nonzero" fill-opacity="1" /><polyline clip-path="url(#clip380)" style="stroke:#000000; stroke-linecap:round; stroke-linejoin:round; stroke-width:4; stroke-opacity:1; fill:none" points="193.936,1423.18 193.936,47.2441 "/>
<polyline clip-path="url(#clip380)" style="stroke:#000000; stroke-linecap:round; stroke-linejoin:round; stroke-width:4; stroke-opacity:1; fill:none" points="193.936,1235.27 212.834,1235.27 "/>
<polyline clip-path="url(#clip380)" style="stroke:#000000; stroke-linecap:round; stroke-linejoin:round; stroke-width:4; stroke-opacity:1; fill:none" points="193.936,1010.47 212.834,1010.47 "/>
<polyline clip-path="url(#clip380)" style="stroke:#000000; stroke-linecap:round; stroke-linejoin:round; stroke-width:4; stroke-opacity:1; fill:none" points="193.936,785.67 212.834,785.67 "/>
<polyline clip-path="url(#clip380)" style="stroke:#000000; stroke-linecap:round; stroke-linejoin:round; stroke-width:4; stroke-opacity:1; fill:none" points="193.936,560.868 212.834,560.868 "/>
<polyline clip-path="url(#clip380)" style="stroke:#000000; stroke-linecap:round; stroke-linejoin:round; stroke-width:4; stroke-opacity:1; fill:none" points="193.936,336.067 212.834,336.067 "/>
<polyline clip-path="url(#clip380)" style="stroke:#000000; stroke-linecap:round; stroke-linejoin:round; stroke-width:4; stroke-opacity:1; fill:none" points="193.936,111.265 212.834,111.265 "/>
<path clip-path="url(#clip380)" d="M51.9875 1235.72 L81.6633 1235.72 L81.6633 1239.66 L51.9875 1239.66 L51.9875 1235.72 Z" fill="#000000" fill-rule="nonzero" fill-opacity="1" /><path clip-path="url(#clip380)" d="M92.566 1248.62 L100.205 1248.62 L100.205 1222.25 L91.8947 1223.92 L91.8947 1219.66 L100.159 1217.99 L104.834 1217.99 L104.834 1248.62 L112.473 1248.62 L112.473 1252.55 L92.566 1252.55 L92.566 1248.62 Z" fill="#000000" fill-rule="nonzero" fill-opacity="1" /><path clip-path="url(#clip380)" d="M121.918 1246.67 L126.802 1246.67 L126.802 1252.55 L121.918 1252.55 L121.918 1246.67 Z" fill="#000000" fill-rule="nonzero" fill-opacity="1" /><path clip-path="url(#clip380)" d="M137.033 1217.99 L155.39 1217.99 L155.39 1221.93 L141.316 1221.93 L141.316 1230.4 Q142.334 1230.05 143.353 1229.89 Q144.371 1229.71 145.39 1229.71 Q151.177 1229.71 154.556 1232.88 Q157.936 1236.05 157.936 1241.46 Q157.936 1247.04 154.464 1250.15 Q150.992 1253.22 144.672 1253.22 Q142.496 1253.22 140.228 1252.85 Q137.982 1252.48 135.575 1251.74 L135.575 1247.04 Q137.658 1248.18 139.881 1248.73 Q142.103 1249.29 144.58 1249.29 Q148.584 1249.29 150.922 1247.18 Q153.26 1245.08 153.26 1241.46 Q153.26 1237.85 150.922 1235.75 Q148.584 1233.64 144.58 1233.64 Q142.705 1233.64 140.83 1234.06 Q138.978 1234.47 137.033 1235.35 L137.033 1217.99 Z" fill="#000000" fill-rule="nonzero" fill-opacity="1" /><path clip-path="url(#clip380)" d="M50.9921 1010.92 L80.6679 1010.92 L80.6679 1014.86 L50.9921 1014.86 L50.9921 1010.92 Z" fill="#000000" fill-rule="nonzero" fill-opacity="1" /><path clip-path="url(#clip380)" d="M91.5706 1023.82 L99.2095 1023.82 L99.2095 997.451 L90.8993 999.117 L90.8993 994.858 L99.1632 993.191 L103.839 993.191 L103.839 1023.82 L111.478 1023.82 L111.478 1027.75 L91.5706 1027.75 L91.5706 1023.82 Z" fill="#000000" fill-rule="nonzero" fill-opacity="1" /><path clip-path="url(#clip380)" d="M120.922 1021.87 L125.807 1021.87 L125.807 1027.75 L120.922 1027.75 L120.922 1021.87 Z" fill="#000000" fill-rule="nonzero" fill-opacity="1" /><path clip-path="url(#clip380)" d="M145.992 996.27 Q142.381 996.27 140.552 999.835 Q138.746 1003.38 138.746 1010.51 Q138.746 1017.61 140.552 1021.18 Q142.381 1024.72 145.992 1024.72 Q149.626 1024.72 151.431 1021.18 Q153.26 1017.61 153.26 1010.51 Q153.26 1003.38 151.431 999.835 Q149.626 996.27 145.992 996.27 M145.992 992.566 Q151.802 992.566 154.857 997.173 Q157.936 1001.76 157.936 1010.51 Q157.936 1019.23 154.857 1023.84 Q151.802 1028.42 145.992 1028.42 Q140.181 1028.42 137.103 1023.84 Q134.047 1019.23 134.047 1010.51 Q134.047 1001.76 137.103 997.173 Q140.181 992.566 145.992 992.566 Z" fill="#000000" fill-rule="nonzero" fill-opacity="1" /><path clip-path="url(#clip380)" d="M51.9875 786.121 L81.6633 786.121 L81.6633 790.056 L51.9875 790.056 L51.9875 786.121 Z" fill="#000000" fill-rule="nonzero" fill-opacity="1" /><path clip-path="url(#clip380)" d="M101.756 771.469 Q98.1447 771.469 96.316 775.033 Q94.5104 778.575 94.5104 785.705 Q94.5104 792.811 96.316 796.376 Q98.1447 799.917 101.756 799.917 Q105.39 799.917 107.196 796.376 Q109.024 792.811 109.024 785.705 Q109.024 778.575 107.196 775.033 Q105.39 771.469 101.756 771.469 M101.756 767.765 Q107.566 767.765 110.621 772.371 Q113.7 776.955 113.7 785.705 Q113.7 794.431 110.621 799.038 Q107.566 803.621 101.756 803.621 Q95.9456 803.621 92.8669 799.038 Q89.8114 794.431 89.8114 785.705 Q89.8114 776.955 92.8669 772.371 Q95.9456 767.765 101.756 767.765 Z" fill="#000000" fill-rule="nonzero" fill-opacity="1" /><path clip-path="url(#clip380)" d="M121.918 797.07 L126.802 797.07 L126.802 802.95 L121.918 802.95 L121.918 797.07 Z" fill="#000000" fill-rule="nonzero" fill-opacity="1" /><path clip-path="url(#clip380)" d="M137.033 768.39 L155.39 768.39 L155.39 772.325 L141.316 772.325 L141.316 780.797 Q142.334 780.45 143.353 780.288 Q144.371 780.103 145.39 780.103 Q151.177 780.103 154.556 783.274 Q157.936 786.445 157.936 791.862 Q157.936 797.441 154.464 800.542 Q150.992 803.621 144.672 803.621 Q142.496 803.621 140.228 803.251 Q137.982 802.88 135.575 802.14 L135.575 797.441 Q137.658 798.575 139.881 799.13 Q142.103 799.686 144.58 799.686 Q148.584 799.686 150.922 797.58 Q153.26 795.473 153.26 791.862 Q153.26 788.251 150.922 786.144 Q148.584 784.038 144.58 784.038 Q142.705 784.038 140.83 784.455 Q138.978 784.871 137.033 785.751 L137.033 768.39 Z" fill="#000000" fill-rule="nonzero" fill-opacity="1" /><path clip-path="url(#clip380)" d="M100.76 546.667 Q97.1493 546.667 95.3206 550.232 Q93.515 553.774 93.515 560.903 Q93.515 568.01 95.3206 571.574 Q97.1493 575.116 100.76 575.116 Q104.395 575.116 106.2 571.574 Q108.029 568.01 108.029 560.903 Q108.029 553.774 106.2 550.232 Q104.395 546.667 100.76 546.667 M100.76 542.963 Q106.571 542.963 109.626 547.57 Q112.705 552.153 112.705 560.903 Q112.705 569.63 109.626 574.236 Q106.571 578.82 100.76 578.82 Q94.9502 578.82 91.8715 574.236 Q88.816 569.63 88.816 560.903 Q88.816 552.153 91.8715 547.57 Q94.9502 542.963 100.76 542.963 Z" fill="#000000" fill-rule="nonzero" fill-opacity="1" /><path clip-path="url(#clip380)" d="M120.922 572.269 L125.807 572.269 L125.807 578.148 L120.922 578.148 L120.922 572.269 Z" fill="#000000" fill-rule="nonzero" fill-opacity="1" /><path clip-path="url(#clip380)" d="M145.992 546.667 Q142.381 546.667 140.552 550.232 Q138.746 553.774 138.746 560.903 Q138.746 568.01 140.552 571.574 Q142.381 575.116 145.992 575.116 Q149.626 575.116 151.431 571.574 Q153.26 568.01 153.26 560.903 Q153.26 553.774 151.431 550.232 Q149.626 546.667 145.992 546.667 M145.992 542.963 Q151.802 542.963 154.857 547.57 Q157.936 552.153 157.936 560.903 Q157.936 569.63 154.857 574.236 Q151.802 578.82 145.992 578.82 Q140.181 578.82 137.103 574.236 Q134.047 569.63 134.047 560.903 Q134.047 552.153 137.103 547.57 Q140.181 542.963 145.992 542.963 Z" fill="#000000" fill-rule="nonzero" fill-opacity="1" /><path clip-path="url(#clip380)" d="M101.756 321.866 Q98.1447 321.866 96.316 325.43 Q94.5104 328.972 94.5104 336.102 Q94.5104 343.208 96.316 346.773 Q98.1447 350.315 101.756 350.315 Q105.39 350.315 107.196 346.773 Q109.024 343.208 109.024 336.102 Q109.024 328.972 107.196 325.43 Q105.39 321.866 101.756 321.866 M101.756 318.162 Q107.566 318.162 110.621 322.768 Q113.7 327.352 113.7 336.102 Q113.7 344.828 110.621 349.435 Q107.566 354.018 101.756 354.018 Q95.9456 354.018 92.8669 349.435 Q89.8114 344.828 89.8114 336.102 Q89.8114 327.352 92.8669 322.768 Q95.9456 318.162 101.756 318.162 Z" fill="#000000" fill-rule="nonzero" fill-opacity="1" /><path clip-path="url(#clip380)" d="M121.918 347.467 L126.802 347.467 L126.802 353.347 L121.918 353.347 L121.918 347.467 Z" fill="#000000" fill-rule="nonzero" fill-opacity="1" /><path clip-path="url(#clip380)" d="M137.033 318.787 L155.39 318.787 L155.39 322.722 L141.316 322.722 L141.316 331.194 Q142.334 330.847 143.353 330.685 Q144.371 330.5 145.39 330.5 Q151.177 330.5 154.556 333.671 Q157.936 336.842 157.936 342.259 Q157.936 347.838 154.464 350.94 Q150.992 354.018 144.672 354.018 Q142.496 354.018 140.228 353.648 Q137.982 353.277 135.575 352.537 L135.575 347.838 Q137.658 348.972 139.881 349.528 Q142.103 350.083 144.58 350.083 Q148.584 350.083 150.922 347.977 Q153.26 345.87 153.26 342.259 Q153.26 338.648 150.922 336.541 Q148.584 334.435 144.58 334.435 Q142.705 334.435 140.83 334.852 Q138.978 335.268 137.033 336.148 L137.033 318.787 Z" fill="#000000" fill-rule="nonzero" fill-opacity="1" /><path clip-path="url(#clip380)" d="M91.5706 124.61 L99.2095 124.61 L99.2095 98.2447 L90.8993 99.9114 L90.8993 95.6521 L99.1632 93.9855 L103.839 93.9855 L103.839 124.61 L111.478 124.61 L111.478 128.545 L91.5706 128.545 L91.5706 124.61 Z" fill="#000000" fill-rule="nonzero" fill-opacity="1" /><path clip-path="url(#clip380)" d="M120.922 122.666 L125.807 122.666 L125.807 128.545 L120.922 128.545 L120.922 122.666 Z" fill="#000000" fill-rule="nonzero" fill-opacity="1" /><path clip-path="url(#clip380)" d="M145.992 97.0641 Q142.381 97.0641 140.552 100.629 Q138.746 104.171 138.746 111.3 Q138.746 118.407 140.552 121.971 Q142.381 125.513 145.992 125.513 Q149.626 125.513 151.431 121.971 Q153.26 118.407 153.26 111.3 Q153.26 104.171 151.431 100.629 Q149.626 97.0641 145.992 97.0641 M145.992 93.3605 Q151.802 93.3605 154.857 97.9669 Q157.936 102.55 157.936 111.3 Q157.936 120.027 154.857 124.633 Q151.802 129.217 145.992 129.217 Q140.181 129.217 137.103 124.633 Q134.047 120.027 134.047 111.3 Q134.047 102.55 137.103 97.9669 Q140.181 93.3605 145.992 93.3605 Z" fill="#000000" fill-rule="nonzero" fill-opacity="1" /><polyline clip-path="url(#clip382)" style="stroke:#009af9; stroke-linecap:round; stroke-linejoin:round; stroke-width:4; stroke-opacity:1; fill:none" points="193.936,1384.24 196.097,1375.84 198.258,1367.53 200.419,1359.3 202.58,1351.15 204.741,1343.09 206.902,1335.1 209.063,1327.2 211.224,1319.37 213.385,1311.62 215.546,1303.95 217.707,1296.35 219.868,1288.83 222.029,1281.39 224.19,1274.02 226.351,1266.72 228.512,1259.49 230.673,1252.34 232.834,1245.26 234.995,1238.25 237.156,1231.31 239.317,1224.43 241.478,1217.63 243.639,1210.89 245.8,1204.22 247.961,1197.62 250.122,1191.08 252.282,1184.61 254.443,1178.21 256.604,1171.86 258.765,1165.58 260.926,1159.36 263.087,1153.21 265.248,1147.11 267.409,1141.08 269.57,1135.11 271.731,1129.19 273.892,1123.34 276.053,1117.54 278.214,1111.8 280.375,1106.12 282.536,1100.49 284.697,1094.92 286.858,1089.41 289.019,1083.95 291.18,1078.55 293.341,1073.2 295.502,1067.9 297.663,1062.65 299.824,1057.46 301.985,1052.32 304.146,1047.23 306.307,1042.19 308.468,1037.2 310.629,1032.26 312.79,1027.37 314.951,1022.53 317.112,1017.74 319.273,1013 321.434,1008.3 323.595,1003.65 325.756,999.041 327.917,994.482 330.078,989.969 332.239,985.5 334.4,981.076 336.561,976.696 338.722,972.359 340.883,968.066 343.044,963.816 345.205,959.607 347.366,955.441 349.527,951.316 351.688,947.233 353.849,943.19 356.01,939.187 358.171,935.224 360.332,931.301 362.493,927.416 364.653,923.571 366.814,919.764 368.975,915.994 371.136,912.263 373.297,908.568 375.458,904.91 377.619,901.289 379.78,897.704 381.941,894.154 384.102,890.64 386.263,887.161 388.424,883.717 390.585,880.306 392.746,876.93 394.907,873.588 397.068,870.278 399.229,867.002 401.39,863.758 403.551,860.547 405.712,857.367 407.873,854.22 410.034,851.103 412.195,848.018 414.356,844.963 416.517,841.939 418.678,838.944 420.839,835.98 423,833.045 425.161,830.139 427.322,827.262 429.483,824.414 431.644,821.594 433.805,818.803 435.966,816.039 438.127,813.302 440.288,810.593 442.449,807.911 444.61,805.256 446.771,802.627 448.932,800.024 451.093,797.447 453.254,794.896 455.415,792.371 457.576,789.87 459.737,787.395 461.898,784.944 464.059,782.517 466.22,780.115 468.381,777.737 470.542,775.382 472.703,773.051 474.864,770.743 477.024,768.458 479.185,766.196 481.346,763.956 483.507,761.739 485.668,759.544 487.829,757.37 489.99,755.218 492.151,753.088 494.312,750.979 496.473,748.891 498.634,746.824 500.795,744.777 502.956,742.751 505.117,740.744 507.278,738.758 509.439,736.792 511.6,734.845 513.761,732.917 515.922,731.009 518.083,729.12 520.244,727.249 522.405,725.397 524.566,723.564 526.727,721.748 528.888,719.951 531.049,718.172 533.21,716.41 535.371,714.666 537.532,712.939 539.693,711.23 541.854,709.537 544.015,707.862 546.176,706.203 548.337,704.56 550.498,702.934 552.659,701.325 554.82,699.731 556.981,698.153 559.142,696.591 561.303,695.044 563.464,693.513 565.625,691.997 567.786,690.497 569.947,689.011 572.108,687.54 574.269,686.083 576.43,684.642 578.591,683.214 580.752,681.801 582.913,680.402 585.074,679.017 587.235,677.646 589.396,676.288 591.556,674.944 593.717,673.613 595.878,672.296 598.039,670.991 600.2,669.7 602.361,668.421 604.522,667.156 606.683,665.902 608.844,664.662 611.005,663.433 613.166,662.217 615.327,661.013 617.488,659.821 619.649,658.641 621.81,657.472 623.971,656.316 626.132,655.17 628.293,654.036 630.454,652.914 632.615,651.802 634.776,650.702 636.937,649.612 639.098,648.534 641.259,647.466 643.42,646.408 645.581,645.362 647.742,644.325 649.903,643.299 652.064,642.283 654.225,641.277 656.386,640.282 658.547,639.296 660.708,638.32 662.869,637.354 665.03,636.397 667.191,635.45 669.352,634.512 671.513,633.584 673.674,632.665 675.835,631.755 677.996,630.854 680.157,629.962 682.318,629.079 684.479,628.205 686.64,627.34 688.801,626.483 690.962,625.635 693.123,624.795 695.284,623.964 697.445,623.141 699.606,622.326 701.767,621.519 703.927,620.72 706.088,619.93 708.249,619.147 710.41,618.372 712.571,617.605 714.732,616.845 716.893,616.093 719.054,615.348 721.215,614.611 723.376,613.881 725.537,613.159 727.698,612.443 729.859,611.735 732.02,611.034 734.181,610.34 736.342,609.652 738.503,608.972 740.664,608.298 742.825,607.631 744.986,606.971 747.147,606.317 749.308,605.67 751.469,605.029 753.63,604.394 755.791,603.766 757.952,603.144 760.113,602.528 762.274,601.919 764.435,601.315 766.596,600.717 768.757,600.126 770.918,599.54 773.079,598.96 775.24,598.386 777.401,597.817 779.562,597.254 781.723,596.697 783.884,596.145 786.045,595.599 788.206,595.059 790.367,594.523 792.528,593.993 794.689,593.468 796.85,592.949 799.011,592.435 801.172,591.925 803.333,591.421 805.494,590.922 807.655,590.428 809.816,589.939 811.977,589.455 814.138,588.975 816.298,588.501 818.459,588.031 820.62,587.565 822.781,587.105 824.942,586.649 827.103,586.197 829.264,585.75 831.425,585.308 833.586,584.87 835.747,584.436 837.908,584.007 840.069,583.582 842.23,583.161 844.391,582.744 846.552,582.332 848.713,581.924 850.874,581.519 853.035,581.119 855.196,580.723 857.357,580.33 859.518,579.942 861.679,579.557 863.84,579.177 866.001,578.8 868.162,578.427 870.323,578.057 872.484,577.691 874.645,577.329 876.806,576.971 878.967,576.616 881.128,576.264 883.289,575.916 885.45,575.572 887.611,575.231 889.772,574.893 891.933,574.558 894.094,574.227 896.255,573.9 898.416,573.575 900.577,573.254 902.738,572.936 904.899,572.621 907.06,572.309 909.221,572 911.382,571.695 913.543,571.392 915.704,571.092 917.865,570.796 920.026,570.502 922.187,570.211 924.348,569.924 926.509,569.639 928.669,569.356 930.83,569.077 932.991,568.801 935.152,568.527 937.313,568.256 939.474,567.987 941.635,567.722 943.796,567.459 945.957,567.198 948.118,566.941 950.279,566.685 952.44,566.433 954.601,566.183 956.762,565.935 958.923,565.69 961.084,565.447 963.245,565.207 965.406,564.969 967.567,564.733 969.728,564.5 971.889,564.269 974.05,564.041 976.211,563.815 978.372,563.591 980.533,563.369 982.694,563.149 984.855,562.932 987.016,562.717 989.177,562.504 991.338,562.293 993.499,562.084 995.66,561.877 997.821,561.673 999.982,561.47 1002.14,561.269 1004.3,561.071 1006.46,560.874 1008.63,560.68 1010.79,560.487 1012.95,560.296 1015.11,560.107 1017.27,559.92 1019.43,559.735 1021.59,559.551 1023.75,559.37 1025.91,559.19 1028.07,559.012 1030.24,558.836 1032.4,558.662 1034.56,558.489 1036.72,558.318 1038.88,558.149 1041.04,557.981 1043.2,557.815 1045.36,557.651 1047.52,557.488 1049.68,557.327 1051.85,557.168 1054.01,557.01 1056.17,556.853 1058.33,556.699 1060.49,556.546 1062.65,556.394 1064.81,556.244 1066.97,556.095 1069.13,555.948 1071.29,555.802 1073.46,555.658 1075.62,555.515 1077.78,555.374 1079.94,555.234 1082.1,555.095 1084.26,554.958 1086.42,554.822 1088.58,554.687 1090.74,554.554 1092.9,554.422 1095.07,554.292 1097.23,554.163 1099.39,554.035 1101.55,553.908 1103.71,553.783 1105.87,553.659 1108.03,553.536 1110.19,553.414 1112.35,553.294 1114.51,553.174 1116.67,553.056 1118.84,552.94 1121,552.824 1123.16,552.709 1125.32,552.596 1127.48,552.484 1129.64,552.373 1131.8,552.262 1133.96,552.154 1136.12,552.046 1138.28,551.939 1140.45,551.833 1142.61,551.729 1144.77,551.625 1146.93,551.522 1149.09,551.421 1151.25,551.32 1153.41,551.221 1155.57,551.122 1157.73,551.025 1159.89,550.928 1162.06,550.832 1164.22,550.738 1166.38,550.644 1168.54,550.551 1170.7,550.459 1172.86,550.368 1175.02,550.278 1177.18,550.189 1179.34,550.1 1181.5,550.013 1183.67,549.926 1185.83,549.841 1187.99,549.756 1190.15,549.672 1192.31,549.589 1194.47,549.506 1196.63,549.425 1198.79,549.344 1200.95,549.264 1203.11,549.185 1205.28,549.106 1207.44,549.029 1209.6,548.952 1211.76,548.876 1213.92,548.801 1216.08,548.726 1218.24,548.652 1220.4,548.579 1222.56,548.507 1224.72,548.435 1226.88,548.364 1229.05,548.294 1231.21,548.225 1233.37,548.156 1235.53,548.088 1237.69,548.02 1239.85,547.954 1242.01,547.888 1244.17,547.822 1246.33,547.757 1248.49,547.693 1250.66,547.63 1252.82,547.567 1254.98,547.505 1257.14,547.443 1259.3,547.382 1261.46,547.322 1263.62,547.262 1265.78,547.203 1267.94,547.144 1270.1,547.086 1272.27,547.029 1274.43,546.972 1276.59,546.916 1278.75,546.86 1280.91,546.805 1283.07,546.751 1285.23,546.696 1287.39,546.643 1289.55,546.59 1291.71,546.538 1293.88,546.486 1296.04,546.434 1298.2,546.383 1300.36,546.333 1302.52,546.283 1304.68,546.234 1306.84,546.185 1309,546.136 1311.16,546.088 1313.32,546.041 1315.49,545.994 1317.65,545.948 1319.81,545.901 1321.97,545.856 1324.13,545.811 1326.29,545.766 1328.45,545.722 1330.61,545.678 1332.77,545.635 1334.93,545.592 1337.09,545.549 1339.26,545.507 1341.42,545.465 1343.58,545.424 1345.74,545.383 1347.9,545.343 1350.06,545.303 1352.22,545.263 1354.38,545.224 1356.54,545.185 1358.7,545.146 1360.87,545.108 1363.03,545.07 1365.19,545.033 1367.35,544.996 1369.51,544.959 1371.67,544.923 1373.83,544.887 1375.99,544.852 1378.15,544.816 1380.31,544.782 1382.48,544.747 1384.64,544.713 1386.8,544.679 1388.96,544.646 1391.12,544.612 1393.28,544.58 1395.44,544.547 1397.6,544.515 1399.76,544.483 1401.92,544.452 1404.09,544.42 1406.25,544.39 1408.41,544.359 1410.57,544.329 1412.73,544.299 1414.89,544.269 1417.05,544.24 1419.21,544.211 1421.37,544.182 1423.53,544.153 1425.7,544.125 1427.86,544.097 1430.02,544.07 1432.18,544.042 1434.34,544.015 1436.5,543.988 1438.66,543.962 1440.82,543.935 1442.98,543.909 1445.14,543.884 1447.3,543.858 1449.47,543.833 1451.63,543.808 1453.79,543.783 1455.95,543.759 1458.11,543.734 1460.27,543.71 1462.43,543.687 1464.59,543.663 1466.75,543.64 1468.91,543.617 1471.08,543.594 1473.24,543.571 1475.4,543.549 1477.56,543.527 1479.72,543.505 1481.88,543.483 1484.04,543.462 1486.2,543.44 1488.36,543.419 1490.52,543.398 1492.69,543.378 1494.85,543.357 1497.01,543.337 1499.17,543.317 1501.33,543.297 1503.49,543.277 1505.65,543.258 1507.81,543.239 1509.97,543.22 1512.13,543.201 1514.3,543.182 1516.46,543.163 1518.62,543.145 1520.78,543.127 1522.94,543.109 1525.1,543.091 1527.26,543.074 1529.42,543.056 1531.58,543.039 1533.74,543.022 1535.91,543.005 1538.07,542.988 1540.23,542.971 1542.39,542.955 1544.55,542.939 1546.71,542.922 1548.87,542.906 1551.03,542.891 1553.19,542.875 1555.35,542.859 1557.51,542.844 1559.68,542.829 1561.84,542.814 1564,542.799 1566.16,542.784 1568.32,542.77 1570.48,542.755 1572.64,542.741 1574.8,542.727 1576.96,542.713 1579.12,542.699 1581.29,542.685 1583.45,542.671 1585.61,542.658 1587.77,542.645 1589.93,542.632 1592.09,542.618 1594.25,542.606 1596.41,542.593 1598.57,542.58 1600.73,542.567 1602.9,542.555 1605.06,542.543 1607.22,542.531 1609.38,542.519 1611.54,542.507 1613.7,542.495 1615.86,542.483 1618.02,542.472 1620.18,542.46 1622.34,542.449 1624.51,542.438 1626.67,542.426 1628.83,542.415 1630.99,542.405 1633.15,542.394 1635.31,542.383 1637.47,542.373 1639.63,542.362 1641.79,542.352 1643.95,542.341 1646.12,542.331 1648.28,542.321 1650.44,542.311 1652.6,542.301 1654.76,542.292 1656.92,542.282 1659.08,542.273 1661.24,542.263 1663.4,542.254 1665.56,542.244 1667.72,542.235 1669.89,542.226 1672.05,542.217 1674.21,542.208 1676.37,542.199 1678.53,542.191 1680.69,542.182 1682.85,542.174 1685.01,542.165 1687.17,542.157 1689.33,542.148 1691.5,542.14 1693.66,542.132 1695.82,542.124 1697.98,542.116 1700.14,542.108 1702.3,542.1 1704.46,542.092 1706.62,542.085 1708.78,542.077 1710.94,542.07 1713.11,542.062 1715.27,542.055 1717.43,542.048 1719.59,542.04 1721.75,542.033 1723.91,542.026 1726.07,542.019 1728.23,542.012 1730.39,542.005 1732.55,541.998 1734.72,541.992 1736.88,541.985 1739.04,541.978 1741.2,541.972 1743.36,541.965 1745.52,541.959 1747.68,541.952 1749.84,541.946 1752,541.94 1754.16,541.934 1756.33,541.928 1758.49,541.921 1760.65,541.915 1762.81,541.91 1764.97,541.904 1767.13,541.898 1769.29,541.892 1771.45,541.886 1773.61,541.881 1775.77,541.875 1777.93,541.87 1780.1,541.864 1782.26,541.859 1784.42,541.853 1786.58,541.848 1788.74,541.843 1790.9,541.837 1793.06,541.832 1795.22,541.827 1797.38,541.822 1799.54,541.817 1801.71,541.812 1803.87,541.807 1806.03,541.802 1808.19,541.798 1810.35,541.793 1812.51,541.788 1814.67,541.784 1816.83,541.779 1818.99,541.774 1821.15,541.77 1823.32,541.765 1825.48,541.761 1827.64,541.757 1829.8,541.752 1831.96,541.748 1834.12,541.744 1836.28,541.739 1838.44,541.735 1840.6,541.731 1842.76,541.727 1844.93,541.723 1847.09,541.719 1849.25,541.715 1851.41,541.711 1853.57,541.707 1855.73,541.704 1857.89,541.7 1860.05,541.696 1862.21,541.692 1864.37,541.689 1866.54,541.685 1868.7,541.681 1870.86,541.678 1873.02,541.674 1875.18,541.671 1877.34,541.667 1879.5,541.664 1881.66,541.66 1883.82,541.657 1885.98,541.654 1888.15,541.65 1890.31,541.647 1892.47,541.644 1894.63,541.641 1896.79,541.638 1898.95,541.634 1901.11,541.631 1903.27,541.628 1905.43,541.625 1907.59,541.622 1909.75,541.619 1911.92,541.616 1914.08,541.613 1916.24,541.61 1918.4,541.608 1920.56,541.605 1922.72,541.602 1924.88,541.599 1927.04,541.596 1929.2,541.594 1931.36,541.591 1933.53,541.588 1935.69,541.586 1937.85,541.583 1940.01,541.58 1942.17,541.578 1944.33,541.575 1946.49,541.573 1948.65,541.57 1950.81,541.568 1952.97,541.565 1955.14,541.563 1957.3,541.56 1959.46,541.558 1961.62,541.556 1963.78,541.553 1965.94,541.551 1968.1,541.549 1970.26,541.546 1972.42,541.544 1974.58,541.542 1976.75,541.54 1978.91,541.538 1981.07,541.535 1983.23,541.533 1985.39,541.531 1987.55,541.529 1989.71,541.527 1991.87,541.525 1994.03,541.523 1996.19,541.521 1998.36,541.519 2000.52,541.517 2002.68,541.515 2004.84,541.513 2007,541.511 2009.16,541.509 2011.32,541.507 2013.48,541.505 2015.64,541.503 2017.8,541.502 2019.96,541.5 2022.13,541.498 2024.29,541.496 2026.45,541.495 2028.61,541.493 2030.77,541.491 2032.93,541.489 2035.09,541.488 2037.25,541.486 2039.41,541.484 2041.57,541.483 2043.74,541.481 2045.9,541.48 2048.06,541.478 2050.22,541.476 2052.38,541.475 2054.54,541.473 2056.7,541.472 2058.86,541.47 2061.02,541.469 2063.18,541.467 2065.35,541.466 2067.51,541.464 2069.67,541.463 2071.83,541.462 2073.99,541.46 2076.15,541.459 2078.31,541.457 2080.47,541.456 2082.63,541.455 2084.79,541.453 2086.96,541.452 2089.12,541.451 2091.28,541.449 2093.44,541.448 2095.6,541.447 2097.76,541.446 2099.92,541.444 2102.08,541.443 2104.24,541.442 2106.4,541.441 2108.57,541.44 2110.73,541.438 2112.89,541.437 2115.05,541.436 2117.21,541.435 2119.37,541.434 2121.53,541.433 2123.69,541.432 2125.85,541.431 2128.01,541.43 2130.17,541.428 2132.34,541.427 2134.5,541.426 2136.66,541.425 2138.82,541.424 2140.98,541.423 2143.14,541.422 2145.3,541.421 2147.46,541.42 2149.62,541.419 2151.78,541.418 2153.95,541.417 2156.11,541.416 2158.27,541.416 2160.43,541.415 2162.59,541.414 2164.75,541.413 2166.91,541.412 2169.07,541.411 2171.23,541.41 2173.39,541.409 2175.56,541.408 2177.72,541.407 2179.88,541.407 2182.04,541.406 2184.2,541.405 2186.36,541.404 2188.52,541.403 2190.68,541.402 2192.84,541.402 2195,541.401 2197.17,541.4 2199.33,541.399 2201.49,541.399 2203.65,541.398 2205.81,541.397 2207.97,541.396 2210.13,541.395 2212.29,541.395 2214.45,541.394 2216.61,541.393 2218.78,541.393 2220.94,541.392 2223.1,541.391 2225.26,541.39 2227.42,541.39 2229.58,541.389 2231.74,541.388 2233.9,541.388 2236.06,541.387 2238.22,541.386 2240.38,541.386 2242.55,541.385 2244.71,541.384 2246.87,541.384 2249.03,541.383 2251.19,541.383 2253.35,541.382 2255.51,541.381 2257.67,541.381 2259.83,541.38 2261.99,541.38 2264.16,541.379 2266.32,541.378 2268.48,541.378 2270.64,541.377 2272.8,541.377 2274.96,541.376 2277.12,541.376 2279.28,541.375 2281.44,541.375 2283.6,541.374 2285.77,541.374 2287.93,541.373 2290.09,541.372 2292.25,541.372 2294.41,541.371 2296.57,541.371 2298.73,541.37 2300.89,541.37 2303.05,541.369 2305.21,541.369 2307.38,541.369 2309.54,541.368 2311.7,541.368 2313.86,541.367 2316.02,541.367 2318.18,541.366 2320.34,541.366 2322.5,541.365 2324.66,541.365 2326.82,541.364 2328.99,541.364 2331.15,541.364 2333.31,541.363 2335.47,541.363 2337.63,541.362 2339.79,541.362 2341.95,541.362 2344.11,541.361 2346.27,541.361 2348.43,541.36 2350.59,541.36 2352.76,541.36 "/>
<polyline clip-path="url(#clip382)" style="stroke:#e26f46; stroke-linecap:round; stroke-linejoin:round; stroke-width:4; stroke-opacity:1; fill:none" points="193.936,86.1857 196.097,90.856 198.258,95.479 200.419,100.055 202.58,104.585 204.741,109.069 206.902,113.507 209.063,117.901 211.224,122.249 213.385,126.554 215.546,130.815 217.707,135.033 219.868,139.208 222.029,143.341 224.19,147.432 226.351,151.481 228.512,155.489 230.673,159.456 232.834,163.384 234.995,167.271 237.156,171.119 239.317,174.928 241.478,178.698 243.639,182.43 245.8,186.124 247.961,189.781 250.122,193.4 252.282,196.983 254.443,200.529 256.604,204.039 258.765,207.514 260.926,210.953 263.087,214.358 265.248,217.727 267.409,221.063 269.57,224.365 271.731,227.633 273.892,230.868 276.053,234.07 278.214,237.239 280.375,240.376 282.536,243.482 284.697,246.555 286.858,249.598 289.019,252.609 291.18,255.59 293.341,258.541 295.502,261.461 297.663,264.352 299.824,267.213 301.985,270.046 304.146,272.849 306.307,275.624 308.468,278.371 310.629,281.09 312.79,283.781 314.951,286.444 317.112,289.081 319.273,291.691 321.434,294.274 323.595,296.831 325.756,299.361 327.917,301.866 330.078,304.346 332.239,306.8 334.4,309.23 336.561,311.634 338.722,314.014 340.883,316.37 343.044,318.702 345.205,321.01 347.366,323.294 349.527,325.555 351.688,327.794 353.849,330.009 356.01,332.201 358.171,334.372 360.332,336.52 362.493,338.646 364.653,340.751 366.814,342.834 368.975,344.895 371.136,346.936 373.297,348.956 375.458,350.955 377.619,352.934 379.78,354.893 381.941,356.831 384.102,358.75 386.263,360.649 388.424,362.529 390.585,364.39 392.746,366.231 394.907,368.054 397.068,369.858 399.229,371.644 401.39,373.411 403.551,375.161 405.712,376.892 407.873,378.606 410.034,380.303 412.195,381.982 414.356,383.643 416.517,385.288 418.678,386.916 420.839,388.528 423,390.123 425.161,391.701 427.322,393.264 429.483,394.81 431.644,396.341 433.805,397.856 435.966,399.355 438.127,400.839 440.288,402.308 442.449,403.762 444.61,405.201 446.771,406.625 448.932,408.035 451.093,409.43 453.254,410.81 455.415,412.177 457.576,413.53 459.737,414.868 461.898,416.193 464.059,417.505 466.22,418.803 468.381,420.087 470.542,421.359 472.703,422.617 474.864,423.863 477.024,425.095 479.185,426.315 481.346,427.523 483.507,428.718 485.668,429.901 487.829,431.071 489.99,432.23 492.151,433.377 494.312,434.512 496.473,435.635 498.634,436.747 500.795,437.847 502.956,438.936 505.117,440.014 507.278,441.08 509.439,442.136 511.6,443.181 513.761,444.215 515.922,445.239 518.083,446.252 520.244,447.255 522.405,448.247 524.566,449.229 526.727,450.201 528.888,451.163 531.049,452.115 533.21,453.058 535.371,453.99 537.532,454.913 539.693,455.827 541.854,456.731 544.015,457.626 546.176,458.511 548.337,459.388 550.498,460.255 552.659,461.114 554.82,461.963 556.981,462.804 559.142,463.636 561.303,464.459 563.464,465.274 565.625,466.081 567.786,466.879 569.947,467.669 572.108,468.451 574.269,469.225 576.43,469.99 578.591,470.748 580.752,471.498 582.913,472.24 585.074,472.975 587.235,473.702 589.396,474.421 591.556,475.133 593.717,475.838 595.878,476.535 598.039,477.225 600.2,477.908 602.361,478.584 604.522,479.253 606.683,479.915 608.844,480.57 611.005,481.218 613.166,481.86 615.327,482.495 617.488,483.123 619.649,483.745 621.81,484.36 623.971,484.969 626.132,485.572 628.293,486.169 630.454,486.759 632.615,487.343 634.776,487.921 636.937,488.493 639.098,489.06 641.259,489.62 643.42,490.175 645.581,490.724 647.742,491.267 649.903,491.804 652.064,492.336 654.225,492.862 656.386,493.383 658.547,493.899 660.708,494.409 662.869,494.914 665.03,495.413 667.191,495.908 669.352,496.397 671.513,496.881 673.674,497.36 675.835,497.834 677.996,498.303 680.157,498.768 682.318,499.227 684.479,499.682 686.64,500.131 688.801,500.576 690.962,501.017 693.123,501.453 695.284,501.884 697.445,502.311 699.606,502.733 701.767,503.151 703.927,503.565 706.088,503.974 708.249,504.379 710.41,504.78 712.571,505.176 714.732,505.569 716.893,505.957 719.054,506.341 721.215,506.721 723.376,507.098 725.537,507.47 727.698,507.838 729.859,508.203 732.02,508.563 734.181,508.92 736.342,509.274 738.503,509.623 740.664,509.969 742.825,510.311 744.986,510.65 747.147,510.985 749.308,511.316 751.469,511.645 753.63,511.969 755.791,512.291 757.952,512.608 760.113,512.923 762.274,513.234 764.435,513.542 766.596,513.847 768.757,514.149 770.918,514.447 773.079,514.743 775.24,515.035 777.401,515.324 779.562,515.61 781.723,515.893 783.884,516.173 786.045,516.451 788.206,516.725 790.367,516.996 792.528,517.265 794.689,517.53 796.85,517.793 799.011,518.053 801.172,518.311 803.333,518.565 805.494,518.817 807.655,519.066 809.816,519.313 811.977,519.557 814.138,519.798 816.298,520.037 818.459,520.273 820.62,520.507 822.781,520.739 824.942,520.968 827.103,521.194 829.264,521.418 831.425,521.64 833.586,521.859 835.747,522.076 837.908,522.291 840.069,522.503 842.23,522.713 844.391,522.921 846.552,523.127 848.713,523.33 850.874,523.532 853.035,523.731 855.196,523.928 857.357,524.123 859.518,524.316 861.679,524.507 863.84,524.696 866.001,524.883 868.162,525.067 870.323,525.25 872.484,525.431 874.645,525.61 876.806,525.787 878.967,525.963 881.128,526.136 883.289,526.307 885.45,526.477 887.611,526.645 889.772,526.811 891.933,526.975 894.094,527.138 896.255,527.299 898.416,527.458 900.577,527.616 902.738,527.771 904.899,527.925 907.06,528.078 909.221,528.229 911.382,528.378 913.543,528.526 915.704,528.672 917.865,528.816 920.026,528.959 922.187,529.101 924.348,529.24 926.509,529.379 928.669,529.516 930.83,529.651 932.991,529.785 935.152,529.918 937.313,530.049 939.474,530.178 941.635,530.307 943.796,530.434 945.957,530.559 948.118,530.683 950.279,530.806 952.44,530.928 954.601,531.048 956.762,531.167 958.923,531.284 961.084,531.401 963.245,531.516 965.406,531.63 967.567,531.742 969.728,531.854 971.889,531.964 974.05,532.073 976.211,532.18 978.372,532.287 980.533,532.393 982.694,532.497 984.855,532.6 987.016,532.702 989.177,532.803 991.338,532.903 993.499,533.002 995.66,533.099 997.821,533.196 999.982,533.291 1002.14,533.386 1004.3,533.479 1006.46,533.572 1008.63,533.663 1010.79,533.754 1012.95,533.843 1015.11,533.932 1017.27,534.019 1019.43,534.106 1021.59,534.192 1023.75,534.276 1025.91,534.36 1028.07,534.443 1030.24,534.525 1032.4,534.606 1034.56,534.686 1036.72,534.766 1038.88,534.844 1041.04,534.922 1043.2,534.999 1045.36,535.075 1047.52,535.15 1049.68,535.224 1051.85,535.297 1054.01,535.37 1056.17,535.442 1058.33,535.513 1060.49,535.583 1062.65,535.653 1064.81,535.722 1066.97,535.79 1069.13,535.857 1071.29,535.923 1073.46,535.989 1075.62,536.054 1077.78,536.118 1079.94,536.182 1082.1,536.245 1084.26,536.307 1086.42,536.369 1088.58,536.429 1090.74,536.49 1092.9,536.549 1095.07,536.608 1097.23,536.666 1099.39,536.724 1101.55,536.78 1103.71,536.837 1105.87,536.892 1108.03,536.947 1110.19,537.002 1112.35,537.055 1114.51,537.109 1116.67,537.161 1118.84,537.213 1121,537.264 1123.16,537.315 1125.32,537.366 1127.48,537.415 1129.64,537.464 1131.8,537.513 1133.96,537.561 1136.12,537.608 1138.28,537.655 1140.45,537.702 1142.61,537.748 1144.77,537.793 1146.93,537.838 1149.09,537.882 1151.25,537.926 1153.41,537.97 1155.57,538.013 1157.73,538.055 1159.89,538.097 1162.06,538.138 1164.22,538.179 1166.38,538.22 1168.54,538.26 1170.7,538.3 1172.86,538.339 1175.02,538.377 1177.18,538.416 1179.34,538.454 1181.5,538.491 1183.67,538.528 1185.83,538.565 1187.99,538.601 1190.15,538.637 1192.31,538.672 1194.47,538.707 1196.63,538.741 1198.79,538.776 1200.95,538.809 1203.11,538.843 1205.28,538.876 1207.44,538.908 1209.6,538.941 1211.76,538.973 1213.92,539.004 1216.08,539.035 1218.24,539.066 1220.4,539.096 1222.56,539.127 1224.72,539.156 1226.88,539.186 1229.05,539.215 1231.21,539.243 1233.37,539.272 1235.53,539.3 1237.69,539.328 1239.85,539.355 1242.01,539.382 1244.17,539.409 1246.33,539.435 1248.49,539.462 1250.66,539.487 1252.82,539.513 1254.98,539.538 1257.14,539.563 1259.3,539.588 1261.46,539.612 1263.62,539.636 1265.78,539.66 1267.94,539.683 1270.1,539.707 1272.27,539.73 1274.43,539.752 1276.59,539.775 1278.75,539.797 1280.91,539.819 1283.07,539.84 1285.23,539.862 1287.39,539.883 1289.55,539.904 1291.71,539.924 1293.88,539.945 1296.04,539.965 1298.2,539.985 1300.36,540.005 1302.52,540.024 1304.68,540.043 1306.84,540.062 1309,540.081 1311.16,540.099 1313.32,540.118 1315.49,540.136 1317.65,540.154 1319.81,540.171 1321.97,540.189 1324.13,540.206 1326.29,540.223 1328.45,540.24 1330.61,540.256 1332.77,540.273 1334.93,540.289 1337.09,540.305 1339.26,540.321 1341.42,540.337 1343.58,540.352 1345.74,540.367 1347.9,540.382 1350.06,540.397 1352.22,540.412 1354.38,540.427 1356.54,540.441 1358.7,540.455 1360.87,540.469 1363.03,540.483 1365.19,540.497 1367.35,540.51 1369.51,540.524 1371.67,540.537 1373.83,540.55 1375.99,540.563 1378.15,540.575 1380.31,540.588 1382.48,540.6 1384.64,540.613 1386.8,540.625 1388.96,540.637 1391.12,540.648 1393.28,540.66 1395.44,540.672 1397.6,540.683 1399.76,540.694 1401.92,540.705 1404.09,540.716 1406.25,540.727 1408.41,540.738 1410.57,540.748 1412.73,540.758 1414.89,540.769 1417.05,540.779 1419.21,540.789 1421.37,540.799 1423.53,540.808 1425.7,540.818 1427.86,540.827 1430.02,540.837 1432.18,540.846 1434.34,540.855 1436.5,540.864 1438.66,540.873 1440.82,540.882 1442.98,540.89 1445.14,540.899 1447.3,540.907 1449.47,540.916 1451.63,540.924 1453.79,540.932 1455.95,540.94 1458.11,540.948 1460.27,540.956 1462.43,540.963 1464.59,540.971 1466.75,540.978 1468.91,540.986 1471.08,540.993 1473.24,541 1475.4,541.007 1477.56,541.014 1479.72,541.021 1481.88,541.028 1484.04,541.035 1486.2,541.042 1488.36,541.048 1490.52,541.055 1492.69,541.061 1494.85,541.067 1497.01,541.073 1499.17,541.08 1501.33,541.086 1503.49,541.092 1505.65,541.097 1507.81,541.103 1509.97,541.109 1512.13,541.115 1514.3,541.12 1516.46,541.126 1518.62,541.131 1520.78,541.136 1522.94,541.142 1525.1,541.147 1527.26,541.152 1529.42,541.157 1531.58,541.162 1533.74,541.167 1535.91,541.172 1538.07,541.177 1540.23,541.181 1542.39,541.186 1544.55,541.191 1546.71,541.195 1548.87,541.2 1551.03,541.204 1553.19,541.208 1555.35,541.213 1557.51,541.217 1559.68,541.221 1561.84,541.225 1564,541.229 1566.16,541.233 1568.32,541.237 1570.48,541.241 1572.64,541.245 1574.8,541.248 1576.96,541.252 1579.12,541.256 1581.29,541.259 1583.45,541.263 1585.61,541.266 1587.77,541.27 1589.93,541.273 1592.09,541.276 1594.25,541.28 1596.41,541.283 1598.57,541.286 1600.73,541.289 1602.9,541.292 1605.06,541.295 1607.22,541.298 1609.38,541.301 1611.54,541.304 1613.7,541.307 1615.86,541.31 1618.02,541.312 1620.18,541.315 1622.34,541.318 1624.51,541.32 1626.67,541.323 1628.83,541.326 1630.99,541.328 1633.15,541.33 1635.31,541.333 1637.47,541.335 1639.63,541.338 1641.79,541.34 1643.95,541.342 1646.12,541.344 1648.28,541.347 1650.44,541.349 1652.6,541.351 1654.76,541.353 1656.92,541.355 1659.08,541.357 1661.24,541.359 1663.4,541.361 1665.56,541.363 1667.72,541.365 1669.89,541.366 1672.05,541.368 1674.21,541.37 1676.37,541.372 1678.53,541.373 1680.69,541.375 1682.85,541.377 1685.01,541.378 1687.17,541.38 1689.33,541.382 1691.5,541.383 1693.66,541.385 1695.82,541.386 1697.98,541.388 1700.14,541.389 1702.3,541.39 1704.46,541.392 1706.62,541.393 1708.78,541.394 1710.94,541.396 1713.11,541.397 1715.27,541.398 1717.43,541.4 1719.59,541.401 1721.75,541.402 1723.91,541.403 1726.07,541.404 1728.23,541.405 1730.39,541.406 1732.55,541.408 1734.72,541.409 1736.88,541.41 1739.04,541.411 1741.2,541.412 1743.36,541.413 1745.52,541.414 1747.68,541.414 1749.84,541.415 1752,541.416 1754.16,541.417 1756.33,541.418 1758.49,541.419 1760.65,541.42 1762.81,541.42 1764.97,541.421 1767.13,541.422 1769.29,541.423 1771.45,541.423 1773.61,541.424 1775.77,541.425 1777.93,541.425 1780.1,541.426 1782.26,541.427 1784.42,541.427 1786.58,541.428 1788.74,541.429 1790.9,541.429 1793.06,541.43 1795.22,541.43 1797.38,541.431 1799.54,541.431 1801.71,541.432 1803.87,541.432 1806.03,541.433 1808.19,541.433 1810.35,541.434 1812.51,541.434 1814.67,541.434 1816.83,541.435 1818.99,541.435 1821.15,541.435 1823.32,541.436 1825.48,541.436 1827.64,541.437 1829.8,541.437 1831.96,541.437 1834.12,541.437 1836.28,541.438 1838.44,541.438 1840.6,541.438 1842.76,541.438 1844.93,541.439 1847.09,541.439 1849.25,541.439 1851.41,541.439 1853.57,541.439 1855.73,541.44 1857.89,541.44 1860.05,541.44 1862.21,541.44 1864.37,541.44 1866.54,541.44 1868.7,541.441 1870.86,541.441 1873.02,541.441 1875.18,541.441 1877.34,541.441 1879.5,541.441 1881.66,541.441 1883.82,541.441 1885.98,541.441 1888.15,541.441 1890.31,541.441 1892.47,541.441 1894.63,541.441 1896.79,541.441 1898.95,541.441 1901.11,541.441 1903.27,541.441 1905.43,541.441 1907.59,541.441 1909.75,541.441 1911.92,541.441 1914.08,541.441 1916.24,541.441 1918.4,541.441 1920.56,541.441 1922.72,541.441 1924.88,541.441 1927.04,541.441 1929.2,541.441 1931.36,541.44 1933.53,541.44 1935.69,541.44 1937.85,541.44 1940.01,541.44 1942.17,541.44 1944.33,541.44 1946.49,541.44 1948.65,541.44 1950.81,541.439 1952.97,541.439 1955.14,541.439 1957.3,541.439 1959.46,541.439 1961.62,541.439 1963.78,541.439 1965.94,541.438 1968.1,541.438 1970.26,541.438 1972.42,541.438 1974.58,541.438 1976.75,541.437 1978.91,541.437 1981.07,541.437 1983.23,541.437 1985.39,541.437 1987.55,541.437 1989.71,541.436 1991.87,541.436 1994.03,541.436 1996.19,541.436 1998.36,541.435 2000.52,541.435 2002.68,541.435 2004.84,541.435 2007,541.435 2009.16,541.434 2011.32,541.434 2013.48,541.434 2015.64,541.434 2017.8,541.433 2019.96,541.433 2022.13,541.433 2024.29,541.433 2026.45,541.432 2028.61,541.432 2030.77,541.432 2032.93,541.432 2035.09,541.431 2037.25,541.431 2039.41,541.431 2041.57,541.43 2043.74,541.43 2045.9,541.43 2048.06,541.43 2050.22,541.429 2052.38,541.429 2054.54,541.429 2056.7,541.428 2058.86,541.428 2061.02,541.428 2063.18,541.428 2065.35,541.427 2067.51,541.427 2069.67,541.427 2071.83,541.426 2073.99,541.426 2076.15,541.426 2078.31,541.425 2080.47,541.425 2082.63,541.425 2084.79,541.425 2086.96,541.424 2089.12,541.424 2091.28,541.424 2093.44,541.423 2095.6,541.423 2097.76,541.423 2099.92,541.422 2102.08,541.422 2104.24,541.422 2106.4,541.421 2108.57,541.421 2110.73,541.421 2112.89,541.42 2115.05,541.42 2117.21,541.42 2119.37,541.419 2121.53,541.419 2123.69,541.419 2125.85,541.418 2128.01,541.418 2130.17,541.418 2132.34,541.417 2134.5,541.417 2136.66,541.417 2138.82,541.416 2140.98,541.416 2143.14,541.416 2145.3,541.415 2147.46,541.415 2149.62,541.415 2151.78,541.414 2153.95,541.414 2156.11,541.414 2158.27,541.413 2160.43,541.413 2162.59,541.413 2164.75,541.412 2166.91,541.412 2169.07,541.412 2171.23,541.411 2173.39,541.411 2175.56,541.411 2177.72,541.41 2179.88,541.41 2182.04,541.409 2184.2,541.409 2186.36,541.409 2188.52,541.408 2190.68,541.408 2192.84,541.408 2195,541.407 2197.17,541.407 2199.33,541.407 2201.49,541.406 2203.65,541.406 2205.81,541.406 2207.97,541.405 2210.13,541.405 2212.29,541.405 2214.45,541.404 2216.61,541.404 2218.78,541.404 2220.94,541.403 2223.1,541.403 2225.26,541.403 2227.42,541.403 2229.58,541.402 2231.74,541.402 2233.9,541.402 2236.06,541.401 2238.22,541.401 2240.38,541.401 2242.55,541.4 2244.71,541.4 2246.87,541.4 2249.03,541.399 2251.19,541.399 2253.35,541.399 2255.51,541.398 2257.67,541.398 2259.83,541.398 2261.99,541.397 2264.16,541.397 2266.32,541.397 2268.48,541.396 2270.64,541.396 2272.8,541.396 2274.96,541.395 2277.12,541.395 2279.28,541.395 2281.44,541.394 2283.6,541.394 2285.77,541.394 2287.93,541.393 2290.09,541.393 2292.25,541.393 2294.41,541.393 2296.57,541.392 2298.73,541.392 2300.89,541.392 2303.05,541.391 2305.21,541.391 2307.38,541.391 2309.54,541.39 2311.7,541.39 2313.86,541.39 2316.02,541.389 2318.18,541.389 2320.34,541.389 2322.5,541.389 2324.66,541.388 2326.82,541.388 2328.99,541.388 2331.15,541.387 2333.31,541.387 2335.47,541.387 2337.63,541.386 2339.79,541.386 2341.95,541.386 2344.11,541.386 2346.27,541.385 2348.43,541.385 2350.59,541.385 2352.76,541.384 "/>
<path clip-path="url(#clip380)" d="M1805.52 248.629 L2280.8 248.629 L2280.8 93.1086 L1805.52 93.1086  Z" fill="#ffffff" fill-rule="evenodd" fill-opacity="1"/>
<polyline clip-path="url(#clip380)" style="stroke:#000000; stroke-linecap:round; stroke-linejoin:round; stroke-width:4; stroke-opacity:1; fill:none" points="1805.52,248.629 2280.8,248.629 2280.8,93.1086 1805.52,93.1086 1805.52,248.629 "/>
<polyline clip-path="url(#clip380)" style="stroke:#009af9; stroke-linecap:round; stroke-linejoin:round; stroke-width:4; stroke-opacity:1; fill:none" points="1829.5,144.949 1973.42,144.949 "/>
<path clip-path="url(#clip380)" d="M1997.41 136.303 L2001.93 136.303 L2010.03 158.062 L2018.13 136.303 L2022.64 136.303 L2012.92 162.229 L2007.13 162.229 L1997.41 136.303 Z" fill="#000000" fill-rule="nonzero" fill-opacity="1" /><path clip-path="url(#clip380)" d="M2029.93 158.293 L2037.57 158.293 L2037.57 131.928 L2029.26 133.595 L2029.26 129.335 L2037.53 127.669 L2042.2 127.669 L2042.2 158.293 L2049.84 158.293 L2049.84 162.229 L2029.93 162.229 L2029.93 158.293 Z" fill="#000000" fill-rule="nonzero" fill-opacity="1" /><path clip-path="url(#clip380)" d="M2067.94 145.585 L2067.94 152.807 L2076.07 152.807 L2076.07 155.006 L2067.94 155.006 L2067.94 162.229 L2065.51 162.229 L2065.51 155.006 L2057.39 155.006 L2057.39 152.807 L2065.51 152.807 L2065.51 145.585 L2067.94 145.585 Z" fill="#000000" fill-rule="nonzero" fill-opacity="1" /><path clip-path="url(#clip380)" d="M2100.24 137.067 L2100.24 141.094 Q2098.43 140.169 2096.49 139.706 Q2094.54 139.243 2092.46 139.243 Q2089.29 139.243 2087.69 140.215 Q2086.11 141.187 2086.11 143.131 Q2086.11 144.613 2087.25 145.469 Q2088.38 146.303 2091.81 147.067 L2093.27 147.391 Q2097.8 148.363 2099.7 150.145 Q2101.62 151.905 2101.62 155.076 Q2101.62 158.687 2098.75 160.793 Q2095.91 162.9 2090.91 162.9 Q2088.82 162.9 2086.55 162.483 Q2084.31 162.09 2081.81 161.28 L2081.81 156.881 Q2084.17 158.108 2086.46 158.733 Q2088.75 159.335 2091 159.335 Q2094.01 159.335 2095.63 158.317 Q2097.25 157.275 2097.25 155.4 Q2097.25 153.664 2096.07 152.738 Q2094.91 151.812 2090.95 150.956 L2089.47 150.608 Q2085.51 149.775 2083.75 148.062 Q2081.99 146.326 2081.99 143.317 Q2081.99 139.659 2084.59 137.669 Q2087.18 135.678 2091.95 135.678 Q2094.31 135.678 2096.39 136.025 Q2098.48 136.372 2100.24 137.067 Z" fill="#000000" fill-rule="nonzero" fill-opacity="1" /><path clip-path="url(#clip380)" d="M2112.62 128.942 L2112.62 136.303 L2121.39 136.303 L2121.39 139.613 L2112.62 139.613 L2112.62 153.687 Q2112.62 156.858 2113.48 157.761 Q2114.36 158.664 2117.02 158.664 L2121.39 158.664 L2121.39 162.229 L2117.02 162.229 Q2112.09 162.229 2110.21 160.4 Q2108.34 158.548 2108.34 153.687 L2108.34 139.613 L2105.21 139.613 L2105.21 136.303 L2108.34 136.303 L2108.34 128.942 L2112.62 128.942 Z" fill="#000000" fill-rule="nonzero" fill-opacity="1" /><path clip-path="url(#clip380)" d="M2137.04 139.289 Q2133.61 139.289 2131.62 141.974 Q2129.63 144.636 2129.63 149.289 Q2129.63 153.942 2131.6 156.627 Q2133.59 159.289 2137.04 159.289 Q2140.44 159.289 2142.43 156.604 Q2144.42 153.918 2144.42 149.289 Q2144.42 144.682 2142.43 141.997 Q2140.44 139.289 2137.04 139.289 M2137.04 135.678 Q2142.6 135.678 2145.77 139.289 Q2148.94 142.9 2148.94 149.289 Q2148.94 155.655 2145.77 159.289 Q2142.6 162.9 2137.04 162.9 Q2131.46 162.9 2128.29 159.289 Q2125.14 155.655 2125.14 149.289 Q2125.14 142.9 2128.29 139.289 Q2131.46 135.678 2137.04 135.678 Z" fill="#000000" fill-rule="nonzero" fill-opacity="1" /><path clip-path="url(#clip380)" d="M2171.02 140.284 Q2170.3 139.868 2169.45 139.682 Q2168.61 139.474 2167.6 139.474 Q2163.98 139.474 2162.04 141.835 Q2160.12 144.173 2160.12 148.571 L2160.12 162.229 L2155.84 162.229 L2155.84 136.303 L2160.12 136.303 L2160.12 140.331 Q2161.46 137.969 2163.61 136.835 Q2165.77 135.678 2168.85 135.678 Q2169.29 135.678 2169.82 135.747 Q2170.35 135.794 2171 135.909 L2171.02 140.284 Z" fill="#000000" fill-rule="nonzero" fill-opacity="1" /><path clip-path="url(#clip380)" d="M2187.27 149.196 Q2182.11 149.196 2180.12 150.377 Q2178.13 151.557 2178.13 154.405 Q2178.13 156.673 2179.61 158.016 Q2181.11 159.335 2183.68 159.335 Q2187.23 159.335 2189.36 156.835 Q2191.51 154.312 2191.51 150.145 L2191.51 149.196 L2187.27 149.196 M2195.77 147.437 L2195.77 162.229 L2191.51 162.229 L2191.51 158.293 Q2190.05 160.655 2187.87 161.789 Q2185.7 162.9 2182.55 162.9 Q2178.57 162.9 2176.21 160.678 Q2173.87 158.432 2173.87 154.682 Q2173.87 150.307 2176.79 148.085 Q2179.73 145.863 2185.54 145.863 L2191.51 145.863 L2191.51 145.446 Q2191.51 142.507 2189.56 140.909 Q2187.64 139.289 2184.15 139.289 Q2181.92 139.289 2179.82 139.821 Q2177.71 140.354 2175.77 141.419 L2175.77 137.483 Q2178.11 136.581 2180.3 136.141 Q2182.5 135.678 2184.59 135.678 Q2190.21 135.678 2192.99 138.594 Q2195.77 141.511 2195.77 147.437 Z" fill="#000000" fill-rule="nonzero" fill-opacity="1" /><path clip-path="url(#clip380)" d="M2221.6 148.965 Q2221.6 144.335 2219.68 141.789 Q2217.78 139.243 2214.33 139.243 Q2210.91 139.243 2208.98 141.789 Q2207.09 144.335 2207.09 148.965 Q2207.09 153.571 2208.98 156.118 Q2210.91 158.664 2214.33 158.664 Q2217.78 158.664 2219.68 156.118 Q2221.6 153.571 2221.6 148.965 M2225.86 159.011 Q2225.86 165.631 2222.92 168.849 Q2219.98 172.09 2213.92 172.09 Q2211.67 172.09 2209.68 171.742 Q2207.69 171.418 2205.81 170.724 L2205.81 166.58 Q2207.69 167.599 2209.52 168.085 Q2211.35 168.571 2213.24 168.571 Q2217.43 168.571 2219.52 166.372 Q2221.6 164.196 2221.6 159.775 L2221.6 157.668 Q2220.28 159.96 2218.22 161.094 Q2216.16 162.229 2213.29 162.229 Q2208.52 162.229 2205.6 158.594 Q2202.69 154.96 2202.69 148.965 Q2202.69 142.946 2205.6 139.312 Q2208.52 135.678 2213.29 135.678 Q2216.16 135.678 2218.22 136.812 Q2220.28 137.946 2221.6 140.238 L2221.6 136.303 L2225.86 136.303 L2225.86 159.011 Z" fill="#000000" fill-rule="nonzero" fill-opacity="1" /><path clip-path="url(#clip380)" d="M2256.81 148.201 L2256.81 150.284 L2237.23 150.284 Q2237.5 154.682 2239.86 156.997 Q2242.25 159.289 2246.48 159.289 Q2248.94 159.289 2251.23 158.687 Q2253.54 158.085 2255.81 156.881 L2255.81 160.909 Q2253.52 161.881 2251.11 162.391 Q2248.71 162.9 2246.23 162.9 Q2240.03 162.9 2236.39 159.289 Q2232.78 155.678 2232.78 149.52 Q2232.78 143.155 2236.21 139.428 Q2239.66 135.678 2245.49 135.678 Q2250.72 135.678 2253.75 139.057 Q2256.81 142.414 2256.81 148.201 M2252.55 146.951 Q2252.5 143.456 2250.58 141.372 Q2248.68 139.289 2245.54 139.289 Q2241.97 139.289 2239.82 141.303 Q2237.69 143.317 2237.36 146.974 L2252.55 146.951 Z" fill="#000000" fill-rule="nonzero" fill-opacity="1" /><polyline clip-path="url(#clip380)" style="stroke:#e26f46; stroke-linecap:round; stroke-linejoin:round; stroke-width:4; stroke-opacity:1; fill:none" points="1829.5,196.789 1973.42,196.789 "/>
<path clip-path="url(#clip380)" d="M1997.41 188.143 L2001.93 188.143 L2010.03 209.902 L2018.13 188.143 L2022.64 188.143 L2012.92 214.069 L2007.13 214.069 L1997.41 188.143 Z" fill="#000000" fill-rule="nonzero" fill-opacity="1" /><path clip-path="url(#clip380)" d="M2029.17 179.509 L2047.53 179.509 L2047.53 183.444 L2033.45 183.444 L2033.45 191.916 Q2034.47 191.569 2035.49 191.407 Q2036.51 191.222 2037.53 191.222 Q2043.31 191.222 2046.69 194.393 Q2050.07 197.564 2050.07 202.981 Q2050.07 208.559 2046.6 211.661 Q2043.13 214.74 2036.81 214.74 Q2034.63 214.74 2032.37 214.37 Q2030.12 213.999 2027.71 213.258 L2027.71 208.559 Q2029.8 209.694 2032.02 210.249 Q2034.24 210.805 2036.72 210.805 Q2040.72 210.805 2043.06 208.698 Q2045.4 206.592 2045.4 202.981 Q2045.4 199.37 2043.06 197.263 Q2040.72 195.157 2036.72 195.157 Q2034.84 195.157 2032.97 195.573 Q2031.12 195.99 2029.17 196.87 L2029.17 179.509 Z" fill="#000000" fill-rule="nonzero" fill-opacity="1" /><path clip-path="url(#clip380)" d="M2067.94 197.425 L2067.94 204.647 L2076.07 204.647 L2076.07 206.846 L2067.94 206.846 L2067.94 214.069 L2065.51 214.069 L2065.51 206.846 L2057.39 206.846 L2057.39 204.647 L2065.51 204.647 L2065.51 197.425 L2067.94 197.425 Z" fill="#000000" fill-rule="nonzero" fill-opacity="1" /><path clip-path="url(#clip380)" d="M2100.24 188.907 L2100.24 192.934 Q2098.43 192.009 2096.49 191.546 Q2094.54 191.083 2092.46 191.083 Q2089.29 191.083 2087.69 192.055 Q2086.11 193.027 2086.11 194.971 Q2086.11 196.453 2087.25 197.309 Q2088.38 198.143 2091.81 198.907 L2093.27 199.231 Q2097.8 200.203 2099.7 201.985 Q2101.62 203.745 2101.62 206.916 Q2101.62 210.527 2098.75 212.633 Q2095.91 214.74 2090.91 214.74 Q2088.82 214.74 2086.55 214.323 Q2084.31 213.93 2081.81 213.12 L2081.81 208.721 Q2084.17 209.948 2086.46 210.573 Q2088.75 211.175 2091 211.175 Q2094.01 211.175 2095.63 210.157 Q2097.25 209.115 2097.25 207.24 Q2097.25 205.504 2096.07 204.578 Q2094.91 203.652 2090.95 202.796 L2089.47 202.448 Q2085.51 201.615 2083.75 199.902 Q2081.99 198.166 2081.99 195.157 Q2081.99 191.499 2084.59 189.509 Q2087.18 187.518 2091.95 187.518 Q2094.31 187.518 2096.39 187.865 Q2098.48 188.212 2100.24 188.907 Z" fill="#000000" fill-rule="nonzero" fill-opacity="1" /><path clip-path="url(#clip380)" d="M2112.62 180.782 L2112.62 188.143 L2121.39 188.143 L2121.39 191.453 L2112.62 191.453 L2112.62 205.527 Q2112.62 208.698 2113.48 209.601 Q2114.36 210.504 2117.02 210.504 L2121.39 210.504 L2121.39 214.069 L2117.02 214.069 Q2112.09 214.069 2110.21 212.24 Q2108.34 210.388 2108.34 205.527 L2108.34 191.453 L2105.21 191.453 L2105.21 188.143 L2108.34 188.143 L2108.34 180.782 L2112.62 180.782 Z" fill="#000000" fill-rule="nonzero" fill-opacity="1" /><path clip-path="url(#clip380)" d="M2137.04 191.129 Q2133.61 191.129 2131.62 193.814 Q2129.63 196.476 2129.63 201.129 Q2129.63 205.782 2131.6 208.467 Q2133.59 211.129 2137.04 211.129 Q2140.44 211.129 2142.43 208.444 Q2144.42 205.758 2144.42 201.129 Q2144.42 196.522 2142.43 193.837 Q2140.44 191.129 2137.04 191.129 M2137.04 187.518 Q2142.6 187.518 2145.77 191.129 Q2148.94 194.74 2148.94 201.129 Q2148.94 207.495 2145.77 211.129 Q2142.6 214.74 2137.04 214.74 Q2131.46 214.74 2128.29 211.129 Q2125.14 207.495 2125.14 201.129 Q2125.14 194.74 2128.29 191.129 Q2131.46 187.518 2137.04 187.518 Z" fill="#000000" fill-rule="nonzero" fill-opacity="1" /><path clip-path="url(#clip380)" d="M2171.02 192.124 Q2170.3 191.708 2169.45 191.522 Q2168.61 191.314 2167.6 191.314 Q2163.98 191.314 2162.04 193.675 Q2160.12 196.013 2160.12 200.411 L2160.12 214.069 L2155.84 214.069 L2155.84 188.143 L2160.12 188.143 L2160.12 192.171 Q2161.46 189.809 2163.61 188.675 Q2165.77 187.518 2168.85 187.518 Q2169.29 187.518 2169.82 187.587 Q2170.35 187.634 2171 187.749 L2171.02 192.124 Z" fill="#000000" fill-rule="nonzero" fill-opacity="1" /><path clip-path="url(#clip380)" d="M2187.27 201.036 Q2182.11 201.036 2180.12 202.217 Q2178.13 203.397 2178.13 206.245 Q2178.13 208.513 2179.61 209.856 Q2181.11 211.175 2183.68 211.175 Q2187.23 211.175 2189.36 208.675 Q2191.51 206.152 2191.51 201.985 L2191.51 201.036 L2187.27 201.036 M2195.77 199.277 L2195.77 214.069 L2191.51 214.069 L2191.51 210.133 Q2190.05 212.495 2187.87 213.629 Q2185.7 214.74 2182.55 214.74 Q2178.57 214.74 2176.21 212.518 Q2173.87 210.272 2173.87 206.522 Q2173.87 202.147 2176.79 199.925 Q2179.73 197.703 2185.54 197.703 L2191.51 197.703 L2191.51 197.286 Q2191.51 194.347 2189.56 192.749 Q2187.64 191.129 2184.15 191.129 Q2181.92 191.129 2179.82 191.661 Q2177.71 192.194 2175.77 193.259 L2175.77 189.323 Q2178.11 188.421 2180.3 187.981 Q2182.5 187.518 2184.59 187.518 Q2190.21 187.518 2192.99 190.434 Q2195.77 193.351 2195.77 199.277 Z" fill="#000000" fill-rule="nonzero" fill-opacity="1" /><path clip-path="url(#clip380)" d="M2221.6 200.805 Q2221.6 196.175 2219.68 193.629 Q2217.78 191.083 2214.33 191.083 Q2210.91 191.083 2208.98 193.629 Q2207.09 196.175 2207.09 200.805 Q2207.09 205.411 2208.98 207.958 Q2210.91 210.504 2214.33 210.504 Q2217.78 210.504 2219.68 207.958 Q2221.6 205.411 2221.6 200.805 M2225.86 210.851 Q2225.86 217.471 2222.92 220.689 Q2219.98 223.93 2213.92 223.93 Q2211.67 223.93 2209.68 223.582 Q2207.69 223.258 2205.81 222.564 L2205.81 218.42 Q2207.69 219.439 2209.52 219.925 Q2211.35 220.411 2213.24 220.411 Q2217.43 220.411 2219.52 218.212 Q2221.6 216.036 2221.6 211.615 L2221.6 209.508 Q2220.28 211.8 2218.22 212.934 Q2216.16 214.069 2213.29 214.069 Q2208.52 214.069 2205.6 210.434 Q2202.69 206.8 2202.69 200.805 Q2202.69 194.786 2205.6 191.152 Q2208.52 187.518 2213.29 187.518 Q2216.16 187.518 2218.22 188.652 Q2220.28 189.786 2221.6 192.078 L2221.6 188.143 L2225.86 188.143 L2225.86 210.851 Z" fill="#000000" fill-rule="nonzero" fill-opacity="1" /><path clip-path="url(#clip380)" d="M2256.81 200.041 L2256.81 202.124 L2237.23 202.124 Q2237.5 206.522 2239.86 208.837 Q2242.25 211.129 2246.48 211.129 Q2248.94 211.129 2251.23 210.527 Q2253.54 209.925 2255.81 208.721 L2255.81 212.749 Q2253.52 213.721 2251.11 214.231 Q2248.71 214.74 2246.23 214.74 Q2240.03 214.74 2236.39 211.129 Q2232.78 207.518 2232.78 201.36 Q2232.78 194.995 2236.21 191.268 Q2239.66 187.518 2245.49 187.518 Q2250.72 187.518 2253.75 190.897 Q2256.81 194.254 2256.81 200.041 M2252.55 198.791 Q2252.5 195.296 2250.58 193.212 Q2248.68 191.129 2245.54 191.129 Q2241.97 191.129 2239.82 193.143 Q2237.69 195.157 2237.36 198.814 L2252.55 198.791 Z" fill="#000000" fill-rule="nonzero" fill-opacity="1" /></svg>
