<?xml version="1.0" encoding="utf-8"?>
<svg xmlns="http://www.w3.org/2000/svg" xmlns:xlink="http://www.w3.org/1999/xlink" width="600" height="400" viewBox="0 0 2400 1600">
<defs>
  <clipPath id="clip240">
    <rect x="0" y="0" width="2400" height="1600"/>
  </clipPath>
</defs>
<path clip-path="url(#clip240)" d="M0 1600 L2400 1600 L2400 0 L0 0  Z" fill="#ffffff" fill-rule="evenodd" fill-opacity="1"/>
<defs>
  <clipPath id="clip241">
    <rect x="480" y="0" width="1681" height="1600"/>
  </clipPath>
</defs>
<path clip-path="url(#clip240)" d="M148.057 1423.18 L2352.76 1423.18 L2352.76 47.2441 L148.057 47.2441  Z" fill="#ffffff" fill-rule="evenodd" fill-opacity="1"/>
<defs>
  <clipPath id="clip242">
    <rect x="148" y="47" width="2206" height="1377"/>
  </clipPath>
</defs>
<polyline clip-path="url(#clip242)" style="stroke:#000000; stroke-linecap:round; stroke-linejoin:round; stroke-width:2; stroke-opacity:0.1; fill:none" points="148.057,1423.18 148.057,47.2441 "/>
<polyline clip-path="url(#clip242)" style="stroke:#000000; stroke-linecap:round; stroke-linejoin:round; stroke-width:2; stroke-opacity:0.1; fill:none" points="699.231,1423.18 699.231,47.2441 "/>
<polyline clip-path="url(#clip242)" style="stroke:#000000; stroke-linecap:round; stroke-linejoin:round; stroke-width:2; stroke-opacity:0.1; fill:none" points="1250.41,1423.18 1250.41,47.2441 "/>
<polyline clip-path="url(#clip242)" style="stroke:#000000; stroke-linecap:round; stroke-linejoin:round; stroke-width:2; stroke-opacity:0.1; fill:none" points="1801.58,1423.18 1801.58,47.2441 "/>
<polyline clip-path="url(#clip242)" style="stroke:#000000; stroke-linecap:round; stroke-linejoin:round; stroke-width:2; stroke-opacity:0.1; fill:none" points="2352.76,1423.18 2352.76,47.2441 "/>
<polyline clip-path="url(#clip242)" style="stroke:#000000; stroke-linecap:round; stroke-linejoin:round; stroke-width:2; stroke-opacity:0.1; fill:none" points="148.057,1368.82 2352.76,1368.82 "/>
<polyline clip-path="url(#clip242)" style="stroke:#000000; stroke-linecap:round; stroke-linejoin:round; stroke-width:2; stroke-opacity:0.1; fill:none" points="148.057,1098.85 2352.76,1098.85 "/>
<polyline clip-path="url(#clip242)" style="stroke:#000000; stroke-linecap:round; stroke-linejoin:round; stroke-width:2; stroke-opacity:0.1; fill:none" points="148.057,828.882 2352.76,828.882 "/>
<polyline clip-path="url(#clip242)" style="stroke:#000000; stroke-linecap:round; stroke-linejoin:round; stroke-width:2; stroke-opacity:0.1; fill:none" points="148.057,558.915 2352.76,558.915 "/>
<polyline clip-path="url(#clip242)" style="stroke:#000000; stroke-linecap:round; stroke-linejoin:round; stroke-width:2; stroke-opacity:0.1; fill:none" points="148.057,288.947 2352.76,288.947 "/>
<polyline clip-path="url(#clip240)" style="stroke:#000000; stroke-linecap:round; stroke-linejoin:round; stroke-width:4; stroke-opacity:1; fill:none" points="148.057,1423.18 2352.76,1423.18 "/>
<polyline clip-path="url(#clip240)" style="stroke:#000000; stroke-linecap:round; stroke-linejoin:round; stroke-width:4; stroke-opacity:1; fill:none" points="148.057,1423.18 148.057,1404.28 "/>
<polyline clip-path="url(#clip240)" style="stroke:#000000; stroke-linecap:round; stroke-linejoin:round; stroke-width:4; stroke-opacity:1; fill:none" points="699.231,1423.18 699.231,1404.28 "/>
<polyline clip-path="url(#clip240)" style="stroke:#000000; stroke-linecap:round; stroke-linejoin:round; stroke-width:4; stroke-opacity:1; fill:none" points="1250.41,1423.18 1250.41,1404.28 "/>
<polyline clip-path="url(#clip240)" style="stroke:#000000; stroke-linecap:round; stroke-linejoin:round; stroke-width:4; stroke-opacity:1; fill:none" points="1801.58,1423.18 1801.58,1404.28 "/>
<polyline clip-path="url(#clip240)" style="stroke:#000000; stroke-linecap:round; stroke-linejoin:round; stroke-width:4; stroke-opacity:1; fill:none" points="2352.76,1423.18 2352.76,1404.28 "/>
<path clip-path="url(#clip240)" d="M125.441 1454.1 Q121.83 1454.1 120.001 1457.66 Q118.196 1461.2 118.196 1468.33 Q118.196 1475.44 120.001 1479.01 Q121.83 1482.55 125.441 1482.55 Q129.075 1482.55 130.881 1479.01 Q132.709 1475.44 132.709 1468.33 Q132.709 1461.2 130.881 1457.66 Q129.075 1454.1 125.441 1454.1 M125.441 1450.39 Q131.251 1450.39 134.307 1455 Q137.385 1459.58 137.385 1468.33 Q137.385 1477.06 134.307 1481.67 Q131.251 1486.25 125.441 1486.25 Q119.631 1486.25 116.552 1481.67 Q113.497 1477.06 113.497 1468.33 Q113.497 1459.58 116.552 1455 Q119.631 1450.39 125.441 1450.39 Z" fill="#000000" fill-rule="nonzero" fill-opacity="1" /><path clip-path="url(#clip240)" d="M145.603 1479.7 L150.487 1479.7 L150.487 1485.58 L145.603 1485.58 L145.603 1479.7 Z" fill="#000000" fill-rule="nonzero" fill-opacity="1" /><path clip-path="url(#clip240)" d="M170.672 1454.1 Q167.061 1454.1 165.232 1457.66 Q163.427 1461.2 163.427 1468.33 Q163.427 1475.44 165.232 1479.01 Q167.061 1482.55 170.672 1482.55 Q174.306 1482.55 176.112 1479.01 Q177.941 1475.44 177.941 1468.33 Q177.941 1461.2 176.112 1457.66 Q174.306 1454.1 170.672 1454.1 M170.672 1450.39 Q176.482 1450.39 179.538 1455 Q182.617 1459.58 182.617 1468.33 Q182.617 1477.06 179.538 1481.67 Q176.482 1486.25 170.672 1486.25 Q164.862 1486.25 161.783 1481.67 Q158.728 1477.06 158.728 1468.33 Q158.728 1459.58 161.783 1455 Q164.862 1450.39 170.672 1450.39 Z" fill="#000000" fill-rule="nonzero" fill-opacity="1" /><path clip-path="url(#clip240)" d="M677.113 1454.1 Q673.502 1454.1 671.674 1457.66 Q669.868 1461.2 669.868 1468.33 Q669.868 1475.44 671.674 1479.01 Q673.502 1482.55 677.113 1482.55 Q680.748 1482.55 682.553 1479.01 Q684.382 1475.44 684.382 1468.33 Q684.382 1461.2 682.553 1457.66 Q680.748 1454.1 677.113 1454.1 M677.113 1450.39 Q682.924 1450.39 685.979 1455 Q689.058 1459.58 689.058 1468.33 Q689.058 1477.06 685.979 1481.67 Q682.924 1486.25 677.113 1486.25 Q671.303 1486.25 668.225 1481.67 Q665.169 1477.06 665.169 1468.33 Q665.169 1459.58 668.225 1455 Q671.303 1450.39 677.113 1450.39 Z" fill="#000000" fill-rule="nonzero" fill-opacity="1" /><path clip-path="url(#clip240)" d="M697.275 1479.7 L702.16 1479.7 L702.16 1485.58 L697.275 1485.58 L697.275 1479.7 Z" fill="#000000" fill-rule="nonzero" fill-opacity="1" /><path clip-path="url(#clip240)" d="M712.391 1451.02 L730.747 1451.02 L730.747 1454.96 L716.673 1454.96 L716.673 1463.43 Q717.692 1463.08 718.71 1462.92 Q719.729 1462.73 720.748 1462.73 Q726.535 1462.73 729.914 1465.9 Q733.294 1469.08 733.294 1474.49 Q733.294 1480.07 729.822 1483.17 Q726.349 1486.25 720.03 1486.25 Q717.854 1486.25 715.586 1485.88 Q713.34 1485.51 710.933 1484.77 L710.933 1480.07 Q713.016 1481.2 715.238 1481.76 Q717.461 1482.32 719.937 1482.32 Q723.942 1482.32 726.28 1480.21 Q728.618 1478.1 728.618 1474.49 Q728.618 1470.88 726.28 1468.77 Q723.942 1466.67 719.937 1466.67 Q718.062 1466.67 716.187 1467.08 Q714.336 1467.5 712.391 1468.38 L712.391 1451.02 Z" fill="#000000" fill-rule="nonzero" fill-opacity="1" /><path clip-path="url(#clip240)" d="M1217.56 1481.64 L1225.2 1481.64 L1225.2 1455.28 L1216.89 1456.95 L1216.89 1452.69 L1225.15 1451.02 L1229.83 1451.02 L1229.83 1481.64 L1237.47 1481.64 L1237.47 1485.58 L1217.56 1485.58 L1217.56 1481.64 Z" fill="#000000" fill-rule="nonzero" fill-opacity="1" /><path clip-path="url(#clip240)" d="M1246.91 1479.7 L1251.8 1479.7 L1251.8 1485.58 L1246.91 1485.58 L1246.91 1479.7 Z" fill="#000000" fill-rule="nonzero" fill-opacity="1" /><path clip-path="url(#clip240)" d="M1271.98 1454.1 Q1268.37 1454.1 1266.54 1457.66 Q1264.73 1461.2 1264.73 1468.33 Q1264.73 1475.44 1266.54 1479.01 Q1268.37 1482.55 1271.98 1482.55 Q1275.61 1482.55 1277.42 1479.01 Q1279.25 1475.44 1279.25 1468.33 Q1279.25 1461.2 1277.42 1457.66 Q1275.61 1454.1 1271.98 1454.1 M1271.98 1450.39 Q1277.79 1450.39 1280.85 1455 Q1283.92 1459.58 1283.92 1468.33 Q1283.92 1477.06 1280.85 1481.67 Q1277.79 1486.25 1271.98 1486.25 Q1266.17 1486.25 1263.09 1481.67 Q1260.04 1477.06 1260.04 1468.33 Q1260.04 1459.58 1263.09 1455 Q1266.17 1450.39 1271.98 1450.39 Z" fill="#000000" fill-rule="nonzero" fill-opacity="1" /><path clip-path="url(#clip240)" d="M1769.23 1481.64 L1776.87 1481.64 L1776.87 1455.28 L1768.56 1456.95 L1768.56 1452.69 L1776.82 1451.02 L1781.5 1451.02 L1781.5 1481.64 L1789.14 1481.64 L1789.14 1485.58 L1769.23 1485.58 L1769.23 1481.64 Z" fill="#000000" fill-rule="nonzero" fill-opacity="1" /><path clip-path="url(#clip240)" d="M1798.58 1479.7 L1803.47 1479.7 L1803.47 1485.58 L1798.58 1485.58 L1798.58 1479.7 Z" fill="#000000" fill-rule="nonzero" fill-opacity="1" /><path clip-path="url(#clip240)" d="M1813.7 1451.02 L1832.06 1451.02 L1832.06 1454.96 L1817.98 1454.96 L1817.98 1463.43 Q1819 1463.08 1820.02 1462.92 Q1821.04 1462.73 1822.06 1462.73 Q1827.84 1462.73 1831.22 1465.9 Q1834.6 1469.08 1834.6 1474.49 Q1834.6 1480.07 1831.13 1483.17 Q1827.66 1486.25 1821.34 1486.25 Q1819.16 1486.25 1816.89 1485.88 Q1814.65 1485.51 1812.24 1484.77 L1812.24 1480.07 Q1814.32 1481.2 1816.55 1481.76 Q1818.77 1482.32 1821.25 1482.32 Q1825.25 1482.32 1827.59 1480.21 Q1829.93 1478.1 1829.93 1474.49 Q1829.93 1470.88 1827.59 1468.77 Q1825.25 1466.67 1821.25 1466.67 Q1819.37 1466.67 1817.5 1467.08 Q1815.64 1467.5 1813.7 1468.38 L1813.7 1451.02 Z" fill="#000000" fill-rule="nonzero" fill-opacity="1" /><path clip-path="url(#clip240)" d="M2323.99 1481.64 L2340.31 1481.64 L2340.31 1485.58 L2318.37 1485.58 L2318.37 1481.64 Q2321.03 1478.89 2325.61 1474.26 Q2330.22 1469.61 2331.4 1468.27 Q2333.65 1465.74 2334.53 1464.01 Q2335.43 1462.25 2335.43 1460.56 Q2335.43 1457.8 2333.49 1456.07 Q2331.56 1454.33 2328.46 1454.33 Q2326.26 1454.33 2323.81 1455.09 Q2321.38 1455.86 2318.6 1457.41 L2318.6 1452.69 Q2321.43 1451.55 2323.88 1450.97 Q2326.33 1450.39 2328.37 1450.39 Q2333.74 1450.39 2336.93 1453.08 Q2340.13 1455.77 2340.13 1460.26 Q2340.13 1462.39 2339.32 1464.31 Q2338.53 1466.2 2336.42 1468.8 Q2335.85 1469.47 2332.74 1472.69 Q2329.64 1475.88 2323.99 1481.64 Z" fill="#000000" fill-rule="nonzero" fill-opacity="1" /><path clip-path="url(#clip240)" d="M2350.13 1479.7 L2355.01 1479.7 L2355.01 1485.58 L2350.13 1485.58 L2350.13 1479.7 Z" fill="#000000" fill-rule="nonzero" fill-opacity="1" /><path clip-path="url(#clip240)" d="M2375.2 1454.1 Q2371.59 1454.1 2369.76 1457.66 Q2367.95 1461.2 2367.95 1468.33 Q2367.95 1475.44 2369.76 1479.01 Q2371.59 1482.55 2375.2 1482.55 Q2378.83 1482.55 2380.64 1479.01 Q2382.47 1475.44 2382.47 1468.33 Q2382.47 1461.2 2380.64 1457.66 Q2378.83 1454.1 2375.2 1454.1 M2375.2 1450.39 Q2381.01 1450.39 2384.06 1455 Q2387.14 1459.58 2387.14 1468.33 Q2387.14 1477.06 2384.06 1481.67 Q2381.01 1486.25 2375.2 1486.25 Q2369.39 1486.25 2366.31 1481.67 Q2363.25 1477.06 2363.25 1468.33 Q2363.25 1459.58 2366.31 1455 Q2369.39 1450.39 2375.2 1450.39 Z" fill="#000000" fill-rule="nonzero" fill-opacity="1" /><path clip-path="url(#clip240)" d="M1249.47 1522.27 L1249.47 1532.4 L1261.53 1532.4 L1261.53 1536.95 L1249.47 1536.95 L1249.47 1556.3 Q1249.47 1560.66 1250.64 1561.9 Q1251.85 1563.14 1255.51 1563.14 L1261.53 1563.14 L1261.53 1568.04 L1255.51 1568.04 Q1248.74 1568.04 1246.16 1565.53 Q1243.58 1562.98 1243.58 1556.3 L1243.58 1536.95 L1239.28 1536.95 L1239.28 1532.4 L1243.58 1532.4 L1243.58 1522.27 L1249.47 1522.27 Z" fill="#000000" fill-rule="nonzero" fill-opacity="1" /><polyline clip-path="url(#clip240)" style="stroke:#000000; stroke-linecap:round; stroke-linejoin:round; stroke-width:4; stroke-opacity:1; fill:none" points="148.057,1423.18 148.057,47.2441 "/>
<polyline clip-path="url(#clip240)" style="stroke:#000000; stroke-linecap:round; stroke-linejoin:round; stroke-width:4; stroke-opacity:1; fill:none" points="148.057,1368.82 166.954,1368.82 "/>
<polyline clip-path="url(#clip240)" style="stroke:#000000; stroke-linecap:round; stroke-linejoin:round; stroke-width:4; stroke-opacity:1; fill:none" points="148.057,1098.85 166.954,1098.85 "/>
<polyline clip-path="url(#clip240)" style="stroke:#000000; stroke-linecap:round; stroke-linejoin:round; stroke-width:4; stroke-opacity:1; fill:none" points="148.057,828.882 166.954,828.882 "/>
<polyline clip-path="url(#clip240)" style="stroke:#000000; stroke-linecap:round; stroke-linejoin:round; stroke-width:4; stroke-opacity:1; fill:none" points="148.057,558.915 166.954,558.915 "/>
<polyline clip-path="url(#clip240)" style="stroke:#000000; stroke-linecap:round; stroke-linejoin:round; stroke-width:4; stroke-opacity:1; fill:none" points="148.057,288.947 166.954,288.947 "/>
<path clip-path="url(#clip240)" d="M50.9921 1369.27 L80.6679 1369.27 L80.6679 1373.2 L50.9921 1373.2 L50.9921 1369.27 Z" fill="#000000" fill-rule="nonzero" fill-opacity="1" /><path clip-path="url(#clip240)" d="M104.927 1367.46 Q108.283 1368.18 110.158 1370.45 Q112.057 1372.72 112.057 1376.05 Q112.057 1381.17 108.538 1383.97 Q105.02 1386.77 98.5382 1386.77 Q96.3623 1386.77 94.0475 1386.33 Q91.7558 1385.91 89.3021 1385.06 L89.3021 1380.54 Q91.2465 1381.68 93.5613 1382.25 Q95.8761 1382.83 98.3993 1382.83 Q102.797 1382.83 105.089 1381.1 Q107.404 1379.36 107.404 1376.05 Q107.404 1373 105.251 1371.28 Q103.121 1369.55 99.3021 1369.55 L95.2743 1369.55 L95.2743 1365.7 L99.4872 1365.7 Q102.936 1365.7 104.765 1364.34 Q106.594 1362.95 106.594 1360.36 Q106.594 1357.69 104.696 1356.28 Q102.821 1354.85 99.3021 1354.85 Q97.3808 1354.85 95.1817 1355.26 Q92.9826 1355.68 90.3438 1356.56 L90.3438 1352.39 Q93.0058 1351.65 95.3206 1351.28 Q97.6585 1350.91 99.7187 1350.91 Q105.043 1350.91 108.145 1353.34 Q111.246 1355.75 111.246 1359.87 Q111.246 1362.74 109.603 1364.73 Q107.959 1366.7 104.927 1367.46 Z" fill="#000000" fill-rule="nonzero" fill-opacity="1" /><path clip-path="url(#clip240)" d="M51.9412 1099.3 L81.617 1099.3 L81.617 1103.24 L51.9412 1103.24 L51.9412 1099.3 Z" fill="#000000" fill-rule="nonzero" fill-opacity="1" /><path clip-path="url(#clip240)" d="M95.7373 1112.19 L112.057 1112.19 L112.057 1116.13 L90.1123 1116.13 L90.1123 1112.19 Q92.7743 1109.44 97.3576 1104.81 Q101.964 1100.16 103.145 1098.81 Q105.39 1096.29 106.27 1094.56 Q107.172 1092.8 107.172 1091.11 Q107.172 1088.35 105.228 1086.62 Q103.307 1084.88 100.205 1084.88 Q98.0058 1084.88 95.5521 1085.64 Q93.1215 1086.41 90.3438 1087.96 L90.3438 1083.24 Q93.1678 1082.1 95.6215 1081.52 Q98.0752 1080.94 100.112 1080.94 Q105.483 1080.94 108.677 1083.63 Q111.871 1086.32 111.871 1090.81 Q111.871 1092.94 111.061 1094.86 Q110.274 1096.75 108.168 1099.35 Q107.589 1100.02 104.487 1103.24 Q101.385 1106.43 95.7373 1112.19 Z" fill="#000000" fill-rule="nonzero" fill-opacity="1" /><path clip-path="url(#clip240)" d="M51.5708 829.334 L81.2466 829.334 L81.2466 833.269 L51.5708 833.269 L51.5708 829.334 Z" fill="#000000" fill-rule="nonzero" fill-opacity="1" /><path clip-path="url(#clip240)" d="M92.1493 842.227 L99.7882 842.227 L99.7882 815.861 L91.478 817.528 L91.478 813.269 L99.7419 811.602 L104.418 811.602 L104.418 842.227 L112.057 842.227 L112.057 846.162 L92.1493 846.162 L92.1493 842.227 Z" fill="#000000" fill-rule="nonzero" fill-opacity="1" /><path clip-path="url(#clip240)" d="M100.112 544.713 Q96.5011 544.713 94.6724 548.278 Q92.8669 551.82 92.8669 558.949 Q92.8669 566.056 94.6724 569.621 Q96.5011 573.162 100.112 573.162 Q103.746 573.162 105.552 569.621 Q107.381 566.056 107.381 558.949 Q107.381 551.82 105.552 548.278 Q103.746 544.713 100.112 544.713 M100.112 541.01 Q105.922 541.01 108.978 545.616 Q112.057 550.2 112.057 558.949 Q112.057 567.676 108.978 572.283 Q105.922 576.866 100.112 576.866 Q94.3021 576.866 91.2234 572.283 Q88.1679 567.676 88.1679 558.949 Q88.1679 550.2 91.2234 545.616 Q94.3021 541.01 100.112 541.01 Z" fill="#000000" fill-rule="nonzero" fill-opacity="1" /><path clip-path="url(#clip240)" d="M92.1493 302.292 L99.7882 302.292 L99.7882 275.927 L91.478 277.593 L91.478 273.334 L99.7419 271.667 L104.418 271.667 L104.418 302.292 L112.057 302.292 L112.057 306.227 L92.1493 306.227 L92.1493 302.292 Z" fill="#000000" fill-rule="nonzero" fill-opacity="1" /><polyline clip-path="url(#clip242)" style="stroke:#009af9; stroke-linecap:round; stroke-linejoin:round; stroke-width:4; stroke-opacity:1; fill:none" points="148.057,1384.24 150.264,1377.61 152.47,1371.04 154.677,1364.54 156.884,1358.1 159.091,1351.73 161.298,1345.42 163.505,1339.18 165.712,1332.99 167.919,1326.87 170.126,1320.81 172.333,1314.81 174.539,1308.87 176.746,1302.99 178.953,1297.16 181.16,1291.4 183.367,1285.69 185.574,1280.04 187.781,1274.45 189.988,1268.91 192.195,1263.42 194.402,1257.99 196.609,1252.62 198.815,1247.3 201.022,1242.03 203.229,1236.81 205.436,1231.65 207.643,1226.54 209.85,1221.48 212.057,1216.46 214.264,1211.5 216.471,1206.59 218.678,1201.73 220.885,1196.91 223.091,1192.15 225.298,1187.43 227.505,1182.76 229.712,1178.13 231.919,1173.55 234.126,1169.02 236.333,1164.53 238.54,1160.08 240.747,1155.68 242.954,1151.33 245.16,1147.02 247.367,1142.75 249.574,1138.52 251.781,1134.33 253.988,1130.19 256.195,1126.09 258.402,1122.03 260.609,1118.01 262.816,1114.03 265.023,1110.09 267.23,1106.18 269.436,1102.32 271.643,1098.5 273.85,1094.71 276.057,1090.96 278.264,1087.25 280.471,1083.58 282.678,1079.94 284.885,1076.34 287.092,1072.77 289.299,1069.24 291.506,1065.75 293.712,1062.29 295.919,1058.86 298.126,1055.47 300.333,1052.11 302.54,1048.79 304.747,1045.49 306.954,1042.24 309.161,1039.01 311.368,1035.82 313.575,1032.65 315.781,1029.52 317.988,1026.42 320.195,1023.36 322.402,1020.32 324.609,1017.31 326.816,1014.33 329.023,1011.38 331.23,1008.47 333.437,1005.58 335.644,1002.71 337.851,999.882 340.057,997.078 342.264,994.302 344.471,991.554 346.678,988.833 348.885,986.139 351.092,983.471 353.299,980.831 355.506,978.217 357.713,975.628 359.92,973.066 362.127,970.529 364.333,968.017 366.54,965.531 368.747,963.069 370.954,960.631 373.161,958.218 375.368,955.829 377.575,953.464 379.782,951.122 381.989,948.803 384.196,946.508 386.402,944.235 388.609,941.985 390.816,939.758 393.023,937.552 395.23,935.369 397.437,933.207 399.644,931.067 401.851,928.948 404.058,926.85 406.265,924.774 408.472,922.717 410.678,920.682 412.885,918.666 415.092,916.671 417.299,914.696 419.506,912.74 421.713,910.804 423.92,908.887 426.127,906.989 428.334,905.11 430.541,903.25 432.748,901.408 434.954,899.585 437.161,897.78 439.368,895.993 441.575,894.223 443.782,892.472 445.989,890.737 448.196,889.021 450.403,887.321 452.61,885.638 454.817,883.972 457.023,882.322 459.23,880.689 461.437,879.072 463.644,877.471 465.851,875.887 468.058,874.318 470.265,872.764 472.472,871.226 474.679,869.704 476.886,868.196 479.093,866.704 481.299,865.226 483.506,863.763 485.713,862.315 487.92,860.881 490.127,859.461 492.334,858.056 494.541,856.664 496.748,855.286 498.955,853.922 501.162,852.572 503.369,851.234 505.575,849.911 507.782,848.6 509.989,847.303 512.196,846.018 514.403,844.746 516.61,843.487 518.817,842.241 521.024,841.006 523.231,839.785 525.438,838.575 527.644,837.377 529.851,836.192 532.058,835.018 534.265,833.856 536.472,832.705 538.679,831.566 540.886,830.438 543.093,829.322 545.3,828.217 547.507,827.122 549.714,826.039 551.92,824.966 554.127,823.905 556.334,822.853 558.541,821.812 560.748,820.782 562.955,819.762 565.162,818.752 567.369,817.752 569.576,816.762 571.783,815.782 573.99,814.811 576.196,813.851 578.403,812.9 580.61,811.958 582.817,811.026 585.024,810.103 587.231,809.189 589.438,808.284 591.645,807.389 593.852,806.502 596.059,805.624 598.265,804.755 600.472,803.894 602.679,803.042 604.886,802.198 607.093,801.363 609.3,800.536 611.507,799.718 613.714,798.907 615.921,798.105 618.128,797.31 620.335,796.524 622.541,795.745 624.748,794.974 626.955,794.21 629.162,793.455 631.369,792.706 633.576,791.965 635.783,791.232 637.99,790.506 640.197,789.787 642.404,789.075 644.611,788.371 646.817,787.673 649.024,786.982 651.231,786.299 653.438,785.622 655.645,784.952 657.852,784.288 660.059,783.631 662.266,782.981 664.473,782.337 666.68,781.7 668.886,781.069 671.093,780.444 673.3,779.825 675.507,779.213 677.714,778.607 679.921,778.007 682.128,777.413 684.335,776.824 686.542,776.242 688.749,775.665 690.956,775.095 693.162,774.53 695.369,773.97 697.576,773.416 699.783,772.868 701.99,772.325 704.197,771.787 706.404,771.255 708.611,770.728 710.818,770.207 713.025,769.69 715.232,769.179 717.438,768.673 719.645,768.172 721.852,767.676 724.059,767.184 726.266,766.698 728.473,766.216 730.68,765.74 732.887,765.268 735.094,764.8 737.301,764.338 739.507,763.88 741.714,763.426 743.921,762.977 746.128,762.533 748.335,762.093 750.542,761.657 752.749,761.225 754.956,760.798 757.163,760.375 759.37,759.956 761.577,759.542 763.783,759.131 765.99,758.725 768.197,758.323 770.404,757.924 772.611,757.53 774.818,757.139 777.025,756.753 779.232,756.37 781.439,755.991 783.646,755.616 785.853,755.245 788.059,754.877 790.266,754.513 792.473,754.153 794.68,753.796 796.887,753.443 799.094,753.093 801.301,752.747 803.508,752.404 805.715,752.065 807.922,751.729 810.128,751.396 812.335,751.067 814.542,750.741 816.749,750.418 818.956,750.099 821.163,749.783 823.37,749.47 825.577,749.16 827.784,748.853 829.991,748.549 832.198,748.248 834.404,747.951 836.611,747.656 838.818,747.364 841.025,747.075 843.232,746.789 845.439,746.506 847.646,746.225 849.853,745.948 852.06,745.673 854.267,745.401 856.474,745.132 858.68,744.865 860.887,744.601 863.094,744.34 865.301,744.081 867.508,743.825 869.715,743.571 871.922,743.32 874.129,743.071 876.336,742.825 878.543,742.582 880.749,742.34 882.956,742.101 885.163,741.865 887.37,741.631 889.577,741.399 891.784,741.169 893.991,740.942 896.198,740.717 898.405,740.494 900.612,740.274 902.819,740.055 905.025,739.839 907.232,739.625 909.439,739.413 911.646,739.203 913.853,738.995 916.06,738.789 918.267,738.586 920.474,738.384 922.681,738.184 924.888,737.986 927.095,737.79 929.301,737.597 931.508,737.405 933.715,737.215 935.922,737.027 938.129,736.84 940.336,736.656 942.543,736.473 944.75,736.293 946.957,736.114 949.164,735.937 951.37,735.761 953.577,735.588 955.784,735.416 957.991,735.245 960.198,735.077 962.405,734.91 964.612,734.745 966.819,734.582 969.026,734.42 971.233,734.26 973.44,734.101 975.646,733.944 977.853,733.789 980.06,733.635 982.267,733.483 984.474,733.332 986.681,733.182 988.888,733.035 991.095,732.888 993.302,732.744 995.509,732.6 997.715,732.458 999.922,732.318 1002.13,732.179 1004.34,732.041 1006.54,731.905 1008.75,731.77 1010.96,731.636 1013.16,731.504 1015.37,731.373 1017.58,731.243 1019.78,731.115 1021.99,730.988 1024.2,730.862 1026.41,730.738 1028.61,730.614 1030.82,730.492 1033.03,730.371 1035.23,730.252 1037.44,730.133 1039.65,730.016 1041.85,729.9 1044.06,729.785 1046.27,729.671 1048.47,729.559 1050.68,729.447 1052.89,729.337 1055.1,729.227 1057.3,729.119 1059.51,729.012 1061.72,728.906 1063.92,728.801 1066.13,728.697 1068.34,728.594 1070.54,728.492 1072.75,728.391 1074.96,728.291 1077.16,728.192 1079.37,728.094 1081.58,727.997 1083.78,727.901 1085.99,727.805 1088.2,727.711 1090.41,727.618 1092.61,727.525 1094.82,727.434 1097.03,727.343 1099.23,727.254 1101.44,727.165 1103.65,727.077 1105.85,726.99 1108.06,726.903 1110.27,726.818 1112.47,726.733 1114.68,726.65 1116.89,726.567 1119.1,726.485 1121.3,726.404 1123.51,726.323 1125.72,726.244 1127.92,726.165 1130.13,726.087 1132.34,726.009 1134.54,725.933 1136.75,725.857 1138.96,725.782 1141.16,725.708 1143.37,725.635 1145.58,725.562 1147.79,725.49 1149.99,725.419 1152.2,725.348 1154.41,725.278 1156.61,725.209 1158.82,725.141 1161.03,725.073 1163.23,725.006 1165.44,724.939 1167.65,724.873 1169.85,724.808 1172.06,724.744 1174.27,724.68 1176.47,724.617 1178.68,724.555 1180.89,724.493 1183.1,724.431 1185.3,724.371 1187.51,724.311 1189.72,724.251 1191.92,724.193 1194.13,724.134 1196.34,724.077 1198.54,724.02 1200.75,723.963 1202.96,723.907 1205.16,723.852 1207.37,723.797 1209.58,723.743 1211.79,723.689 1213.99,723.636 1216.2,723.584 1218.41,723.532 1220.61,723.48 1222.82,723.429 1225.03,723.379 1227.23,723.329 1229.44,723.279 1231.65,723.23 1233.85,723.182 1236.06,723.133 1238.27,723.086 1240.48,723.039 1242.68,722.992 1244.89,722.946 1247.1,722.9 1249.3,722.855 1251.51,722.81 1253.72,722.766 1255.92,722.722 1258.13,722.679 1260.34,722.636 1262.54,722.593 1264.75,722.551 1266.96,722.509 1269.16,722.468 1271.37,722.427 1273.58,722.386 1275.79,722.346 1277.99,722.306 1280.2,722.267 1282.41,722.228 1284.61,722.189 1286.82,722.151 1289.03,722.113 1291.23,722.076 1293.44,722.039 1295.65,722.002 1297.85,721.965 1300.06,721.929 1302.27,721.894 1304.48,721.858 1306.68,721.823 1308.89,721.788 1311.1,721.754 1313.3,721.72 1315.51,721.686 1317.72,721.653 1319.92,721.62 1322.13,721.587 1324.34,721.555 1326.54,721.523 1328.75,721.491 1330.96,721.459 1333.17,721.428 1335.37,721.397 1337.58,721.367 1339.79,721.337 1341.99,721.307 1344.2,721.277 1346.41,721.248 1348.61,721.219 1350.82,721.19 1353.03,721.162 1355.23,721.133 1357.44,721.105 1359.65,721.078 1361.86,721.05 1364.06,721.023 1366.27,720.997 1368.48,720.97 1370.68,720.944 1372.89,720.918 1375.1,720.892 1377.3,720.867 1379.51,720.842 1381.72,720.817 1383.92,720.792 1386.13,720.767 1388.34,720.743 1390.54,720.719 1392.75,720.696 1394.96,720.672 1397.17,720.649 1399.37,720.626 1401.58,720.603 1403.79,720.581 1405.99,720.558 1408.2,720.536 1410.41,720.514 1412.61,720.493 1414.82,720.471 1417.03,720.45 1419.23,720.429 1421.44,720.409 1423.65,720.388 1425.86,720.368 1428.06,720.348 1430.27,720.328 1432.48,720.308 1434.68,720.289 1436.89,720.269 1439.1,720.25 1441.3,720.231 1443.51,720.213 1445.72,720.194 1447.92,720.176 1450.13,720.158 1452.34,720.14 1454.55,720.122 1456.75,720.104 1458.96,720.087 1461.17,720.07 1463.37,720.053 1465.58,720.036 1467.79,720.019 1469.99,720.002 1472.2,719.986 1474.41,719.97 1476.61,719.954 1478.82,719.938 1481.03,719.922 1483.23,719.906 1485.44,719.891 1487.65,719.876 1489.86,719.861 1492.06,719.846 1494.27,719.831 1496.48,719.816 1498.68,719.802 1500.89,719.787 1503.1,719.773 1505.3,719.759 1507.51,719.745 1509.72,719.731 1511.92,719.717 1514.13,719.704 1516.34,719.69 1518.55,719.677 1520.75,719.664 1522.96,719.651 1525.17,719.638 1527.37,719.625 1529.58,719.612 1531.79,719.6 1533.99,719.587 1536.2,719.575 1538.41,719.563 1540.61,719.551 1542.82,719.539 1545.03,719.527 1547.24,719.515 1549.44,719.503 1551.65,719.492 1553.86,719.48 1556.06,719.469 1558.27,719.457 1560.48,719.446 1562.68,719.435 1564.89,719.424 1567.1,719.414 1569.3,719.403 1571.51,719.392 1573.72,719.382 1575.92,719.371 1578.13,719.361 1580.34,719.351 1582.55,719.341 1584.75,719.331 1586.96,719.321 1589.17,719.311 1591.37,719.301 1593.58,719.292 1595.79,719.282 1597.99,719.273 1600.2,719.263 1602.41,719.254 1604.61,719.245 1606.82,719.236 1609.03,719.227 1611.24,719.218 1613.44,719.209 1615.65,719.201 1617.86,719.192 1620.06,719.183 1622.27,719.175 1624.48,719.167 1626.68,719.158 1628.89,719.15 1631.1,719.142 1633.3,719.134 1635.51,719.126 1637.72,719.118 1639.93,719.111 1642.13,719.103 1644.34,719.095 1646.55,719.088 1648.75,719.08 1650.96,719.073 1653.17,719.066 1655.37,719.058 1657.58,719.051 1659.79,719.044 1661.99,719.037 1664.2,719.03 1666.41,719.023 1668.61,719.017 1670.82,719.01 1673.03,719.003 1675.24,718.997 1677.44,718.99 1679.65,718.984 1681.86,718.977 1684.06,718.971 1686.27,718.965 1688.48,718.959 1690.68,718.953 1692.89,718.947 1695.1,718.941 1697.3,718.935 1699.51,718.929 1701.72,718.923 1703.93,718.917 1706.13,718.912 1708.34,718.906 1710.55,718.901 1712.75,718.895 1714.96,718.89 1717.17,718.884 1719.37,718.879 1721.58,718.874 1723.79,718.869 1725.99,718.863 1728.2,718.858 1730.41,718.853 1732.62,718.848 1734.82,718.843 1737.03,718.839 1739.24,718.834 1741.44,718.829 1743.65,718.824 1745.86,718.82 1748.06,718.815 1750.27,718.81 1752.48,718.806 1754.68,718.801 1756.89,718.797 1759.1,718.792 1761.31,718.788 1763.51,718.784 1765.72,718.78 1767.93,718.775 1770.13,718.771 1772.34,718.767 1774.55,718.763 1776.75,718.759 1778.96,718.755 1781.17,718.751 1783.37,718.747 1785.58,718.743 1787.79,718.739 1789.99,718.735 1792.2,718.731 1794.41,718.728 1796.62,718.724 1798.82,718.72 1801.03,718.716 1803.24,718.713 1805.44,718.709 1807.65,718.706 1809.86,718.702 1812.06,718.699 1814.27,718.695 1816.48,718.692 1818.68,718.688 1820.89,718.685 1823.1,718.681 1825.31,718.678 1827.51,718.675 1829.72,718.671 1831.93,718.668 1834.13,718.665 1836.34,718.662 1838.55,718.659 1840.75,718.655 1842.96,718.652 1845.17,718.649 1847.37,718.646 1849.58,718.643 1851.79,718.64 1854,718.637 1856.2,718.634 1858.41,718.631 1860.62,718.628 1862.82,718.625 1865.03,718.623 1867.24,718.62 1869.44,718.617 1871.65,718.614 1873.86,718.612 1876.06,718.609 1878.27,718.606 1880.48,718.603 1882.68,718.601 1884.89,718.598 1887.1,718.596 1889.31,718.593 1891.51,718.591 1893.72,718.588 1895.93,718.586 1898.13,718.583 1900.34,718.581 1902.55,718.578 1904.75,718.576 1906.96,718.573 1909.17,718.571 1911.37,718.569 1913.58,718.567 1915.79,718.564 1918,718.562 1920.2,718.56 1922.41,718.558 1924.62,718.555 1926.82,718.553 1929.03,718.551 1931.24,718.549 1933.44,718.547 1935.65,718.545 1937.86,718.543 1940.06,718.541 1942.27,718.539 1944.48,718.537 1946.69,718.535 1948.89,718.533 1951.1,718.531 1953.31,718.529 1955.51,718.527 1957.72,718.525 1959.93,718.524 1962.13,718.522 1964.34,718.52 1966.55,718.518 1968.75,718.516 1970.96,718.515 1973.17,718.513 1975.37,718.511 1977.58,718.51 1979.79,718.508 1982,718.506 1984.2,718.505 1986.41,718.503 1988.62,718.502 1990.82,718.5 1993.03,718.498 1995.24,718.497 1997.44,718.495 1999.65,718.494 2001.86,718.492 2004.06,718.491 2006.27,718.49 2008.48,718.488 2010.69,718.487 2012.89,718.485 2015.1,718.484 2017.31,718.483 2019.51,718.481 2021.72,718.48 2023.93,718.479 2026.13,718.477 2028.34,718.476 2030.55,718.475 2032.75,718.474 2034.96,718.472 2037.17,718.471 2039.38,718.47 2041.58,718.469 2043.79,718.467 2046,718.466 2048.2,718.465 2050.41,718.464 2052.62,718.463 2054.82,718.462 2057.03,718.461 2059.24,718.46 2061.44,718.458 2063.65,718.457 2065.86,718.456 2068.07,718.455 2070.27,718.454 2072.48,718.453 2074.69,718.452 2076.89,718.451 2079.1,718.45 2081.31,718.449 2083.51,718.448 2085.72,718.447 2087.93,718.446 2090.13,718.445 2092.34,718.444 2094.55,718.444 2096.75,718.443 2098.96,718.442 2101.17,718.441 2103.38,718.44 2105.58,718.439 2107.79,718.438 2110,718.437 2112.2,718.437 2114.41,718.436 2116.62,718.435 2118.82,718.434 2121.03,718.433 2123.24,718.432 2125.44,718.432 2127.65,718.431 2129.86,718.43 2132.07,718.429 2134.27,718.428 2136.48,718.428 2138.69,718.427 2140.89,718.426 2143.1,718.425 2145.31,718.424 2147.51,718.424 2149.72,718.423 2151.93,718.422 2154.13,718.421 2156.34,718.421 2158.55,718.42 2160.76,718.419 2162.96,718.419 2165.17,718.418 2167.38,718.417 2169.58,718.416 2171.79,718.416 2174,718.415 2176.2,718.414 2178.41,718.414 2180.62,718.413 2182.82,718.412 2185.03,718.412 2187.24,718.411 2189.44,718.41 2191.65,718.41 2193.86,718.409 2196.07,718.408 2198.27,718.408 2200.48,718.407 2202.69,718.406 2204.89,718.406 2207.1,718.405 2209.31,718.405 2211.51,718.404 2213.72,718.403 2215.93,718.403 2218.13,718.402 2220.34,718.402 2222.55,718.401 2224.76,718.401 2226.96,718.4 2229.17,718.399 2231.38,718.399 2233.58,718.398 2235.79,718.398 2238,718.397 2240.2,718.397 2242.41,718.396 2244.62,718.396 2246.82,718.395 2249.03,718.395 2251.24,718.394 2253.45,718.394 2255.65,718.393 2257.86,718.393 2260.07,718.392 2262.27,718.392 2264.48,718.391 2266.69,718.391 2268.89,718.391 2271.1,718.39 2273.31,718.39 2275.51,718.389 2277.72,718.389 2279.93,718.388 2282.13,718.388 2284.34,718.387 2286.55,718.387 2288.76,718.387 2290.96,718.386 2293.17,718.386 2295.38,718.385 2297.58,718.385 2299.79,718.385 2302,718.384 2304.2,718.384 2306.41,718.383 2308.62,718.383 2310.82,718.383 2313.03,718.382 2315.24,718.382 2317.45,718.382 2319.65,718.381 2321.86,718.381 2324.07,718.381 2326.27,718.38 2328.48,718.38 2330.69,718.379 2332.89,718.379 2335.1,718.379 2337.31,718.378 2339.51,718.378 2341.72,718.378 2343.93,718.377 2346.14,718.377 2348.34,718.377 2350.55,718.377 2352.76,718.376 "/>
<polyline clip-path="url(#clip242)" style="stroke:#e26f46; stroke-linecap:round; stroke-linejoin:round; stroke-width:4; stroke-opacity:1; fill:none" points="148.057,86.1857 150.264,90.7805 152.47,95.3397 154.677,99.8636 156.884,104.353 159.091,108.807 161.298,113.227 163.505,117.612 165.712,121.964 167.919,126.282 170.126,130.567 172.333,134.819 174.539,139.038 176.746,143.225 178.953,147.38 181.16,151.502 183.367,155.593 185.574,159.652 187.781,163.68 189.988,167.678 192.195,171.644 194.402,175.581 196.609,179.487 198.815,183.363 201.022,187.209 203.229,191.026 205.436,194.814 207.643,198.573 209.85,202.303 212.057,206.004 214.264,209.678 216.471,213.323 218.678,216.941 220.885,220.531 223.091,224.093 225.298,227.629 227.505,231.138 229.712,234.619 231.919,238.075 234.126,241.504 236.333,244.907 238.54,248.285 240.747,251.636 242.954,254.962 245.16,258.264 247.367,261.54 249.574,264.791 251.781,268.017 253.988,271.22 256.195,274.398 258.402,277.551 260.609,280.682 262.816,283.788 265.023,286.871 267.23,289.931 269.436,292.968 271.643,295.982 273.85,298.973 276.057,301.941 278.264,304.888 280.471,307.812 282.678,310.714 284.885,313.595 287.092,316.453 289.299,319.291 291.506,322.107 293.712,324.902 295.919,327.676 298.126,330.429 300.333,333.162 302.54,335.874 304.747,338.566 306.954,341.238 309.161,343.89 311.368,346.522 313.575,349.134 315.781,351.727 317.988,354.301 320.195,356.855 322.402,359.39 324.609,361.907 326.816,364.405 329.023,366.884 331.23,369.345 333.437,371.787 335.644,374.211 337.851,376.618 340.057,379.006 342.264,381.377 344.471,383.73 346.678,386.066 348.885,388.384 351.092,390.685 353.299,392.97 355.506,395.237 357.713,397.488 359.92,399.722 362.127,401.939 364.333,404.14 366.54,406.325 368.747,408.494 370.954,410.647 373.161,412.784 375.368,414.905 377.575,417.011 379.782,419.101 381.989,421.176 384.196,423.235 386.402,425.28 388.609,427.309 390.816,429.324 393.023,431.324 395.23,433.309 397.437,435.28 399.644,437.236 401.851,439.178 404.058,441.105 406.265,443.019 408.472,444.919 410.678,446.804 412.885,448.676 415.092,450.535 417.299,452.379 419.506,454.211 421.713,456.029 423.92,457.833 426.127,459.625 428.334,461.403 430.541,463.169 432.748,464.922 434.954,466.662 437.161,468.389 439.368,470.104 441.575,471.806 443.782,473.496 445.989,475.174 448.196,476.84 450.403,478.493 452.61,480.135 454.817,481.765 457.023,483.383 459.23,484.989 461.437,486.583 463.644,488.167 465.851,489.738 468.058,491.299 470.265,492.848 472.472,494.386 474.679,495.913 476.886,497.428 479.093,498.933 481.299,500.428 483.506,501.911 485.713,503.384 487.92,504.846 490.127,506.298 492.334,507.739 494.541,509.17 496.748,510.591 498.955,512.001 501.162,513.402 503.369,514.792 505.575,516.172 507.782,517.543 509.989,518.904 512.196,520.255 514.403,521.596 516.61,522.928 518.817,524.25 521.024,525.563 523.231,526.867 525.438,528.161 527.644,529.446 529.851,530.722 532.058,531.989 534.265,533.246 536.472,534.495 538.679,535.735 540.886,536.966 543.093,538.189 545.3,539.402 547.507,540.607 549.714,541.804 551.92,542.992 554.127,544.171 556.334,545.343 558.541,546.506 560.748,547.66 562.955,548.807 565.162,549.945 567.369,551.076 569.576,552.198 571.783,553.312 573.99,554.419 576.196,555.518 578.403,556.609 580.61,557.692 582.817,558.768 585.024,559.836 587.231,560.897 589.438,561.95 591.645,562.996 593.852,564.034 596.059,565.065 598.265,566.089 600.472,567.106 602.679,568.116 604.886,569.118 607.093,570.114 609.3,571.102 611.507,572.084 613.714,573.058 615.921,574.026 618.128,574.988 620.335,575.942 622.541,576.89 624.748,577.831 626.955,578.766 629.162,579.694 631.369,580.615 633.576,581.531 635.783,582.439 637.99,583.342 640.197,584.238 642.404,585.128 644.611,586.012 646.817,586.889 649.024,587.761 651.231,588.626 653.438,589.485 655.645,590.339 657.852,591.186 660.059,592.028 662.266,592.864 664.473,593.694 666.68,594.518 668.886,595.336 671.093,596.149 673.3,596.956 675.507,597.758 677.714,598.554 679.921,599.345 682.128,600.13 684.335,600.909 686.542,601.684 688.749,602.452 690.956,603.216 693.162,603.974 695.369,604.727 697.576,605.475 699.783,606.218 701.99,606.956 704.197,607.688 706.404,608.416 708.611,609.138 710.818,609.856 713.025,610.569 715.232,611.276 717.438,611.979 719.645,612.677 721.852,613.37 724.059,614.059 726.266,614.743 728.473,615.422 730.68,616.096 732.887,616.766 735.094,617.431 737.301,618.092 739.507,618.748 741.714,619.4 743.921,620.047 746.128,620.69 748.335,621.329 750.542,621.963 752.749,622.593 754.956,623.218 757.163,623.84 759.37,624.457 761.577,625.069 763.783,625.678 765.99,626.283 768.197,626.883 770.404,627.479 772.611,628.072 774.818,628.66 777.025,629.244 779.232,629.825 781.439,630.401 783.646,630.973 785.853,631.542 788.059,632.107 790.266,632.667 792.473,633.224 794.68,633.778 796.887,634.327 799.094,634.873 801.301,635.415 803.508,635.954 805.715,636.488 807.922,637.02 810.128,637.547 812.335,638.071 814.542,638.592 816.749,639.109 818.956,639.622 821.163,640.132 823.37,640.639 825.577,641.142 827.784,641.641 829.991,642.138 832.198,642.631 834.404,643.12 836.611,643.607 838.818,644.09 841.025,644.57 843.232,645.046 845.439,645.52 847.646,645.99 849.853,646.457 852.06,646.921 854.267,647.382 856.474,647.84 858.68,648.294 860.887,648.746 863.094,649.195 865.301,649.64 867.508,650.083 869.715,650.523 871.922,650.959 874.129,651.393 876.336,651.824 878.543,652.252 880.749,652.677 882.956,653.1 885.163,653.519 887.37,653.936 889.577,654.35 891.784,654.761 893.991,655.17 896.198,655.575 898.405,655.978 900.612,656.379 902.819,656.776 905.025,657.171 907.232,657.564 909.439,657.954 911.646,658.341 913.853,658.726 916.06,659.108 918.267,659.488 920.474,659.865 922.681,660.239 924.888,660.611 927.095,660.981 929.301,661.348 931.508,661.713 933.715,662.075 935.922,662.435 938.129,662.793 940.336,663.148 942.543,663.501 944.75,663.852 946.957,664.2 949.164,664.546 951.37,664.889 953.577,665.231 955.784,665.57 957.991,665.906 960.198,666.241 962.405,666.573 964.612,666.904 966.819,667.232 969.026,667.558 971.233,667.881 973.44,668.203 975.646,668.522 977.853,668.84 980.06,669.155 982.267,669.468 984.474,669.779 986.681,670.088 988.888,670.395 991.095,670.7 993.302,671.003 995.509,671.304 997.715,671.603 999.922,671.9 1002.13,672.195 1004.34,672.488 1006.54,672.779 1008.75,673.069 1010.96,673.356 1013.16,673.641 1015.37,673.925 1017.58,674.207 1019.78,674.487 1021.99,674.765 1024.2,675.041 1026.41,675.316 1028.61,675.588 1030.82,675.859 1033.03,676.128 1035.23,676.396 1037.44,676.661 1039.65,676.925 1041.85,677.187 1044.06,677.448 1046.27,677.706 1048.47,677.963 1050.68,678.219 1052.89,678.472 1055.1,678.725 1057.3,678.975 1059.51,679.224 1061.72,679.471 1063.92,679.716 1066.13,679.96 1068.34,680.203 1070.54,680.444 1072.75,680.683 1074.96,680.921 1077.16,681.157 1079.37,681.391 1081.58,681.625 1083.78,681.856 1085.99,682.086 1088.2,682.315 1090.41,682.542 1092.61,682.768 1094.82,682.992 1097.03,683.215 1099.23,683.436 1101.44,683.656 1103.65,683.875 1105.85,684.092 1108.06,684.307 1110.27,684.522 1112.47,684.735 1114.68,684.946 1116.89,685.156 1119.1,685.365 1121.3,685.572 1123.51,685.779 1125.72,685.983 1127.92,686.187 1130.13,686.389 1132.34,686.59 1134.54,686.789 1136.75,686.988 1138.96,687.185 1141.16,687.38 1143.37,687.575 1145.58,687.768 1147.79,687.96 1149.99,688.151 1152.2,688.34 1154.41,688.528 1156.61,688.715 1158.82,688.901 1161.03,689.086 1163.23,689.269 1165.44,689.451 1167.65,689.632 1169.85,689.812 1172.06,689.991 1174.27,690.169 1176.47,690.345 1178.68,690.52 1180.89,690.694 1183.1,690.867 1185.3,691.039 1187.51,691.21 1189.72,691.38 1191.92,691.549 1194.13,691.716 1196.34,691.883 1198.54,692.048 1200.75,692.212 1202.96,692.376 1205.16,692.538 1207.37,692.699 1209.58,692.859 1211.79,693.018 1213.99,693.176 1216.2,693.334 1218.41,693.49 1220.61,693.645 1222.82,693.799 1225.03,693.952 1227.23,694.104 1229.44,694.255 1231.65,694.405 1233.85,694.555 1236.06,694.703 1238.27,694.85 1240.48,694.997 1242.68,695.142 1244.89,695.287 1247.1,695.43 1249.3,695.573 1251.51,695.715 1253.72,695.855 1255.92,695.995 1258.13,696.135 1260.34,696.273 1262.54,696.41 1264.75,696.547 1266.96,696.682 1269.16,696.817 1271.37,696.951 1273.58,697.084 1275.79,697.216 1277.99,697.347 1280.2,697.478 1282.41,697.607 1284.61,697.736 1286.82,697.864 1289.03,697.992 1291.23,698.118 1293.44,698.244 1295.65,698.369 1297.85,698.493 1300.06,698.616 1302.27,698.739 1304.48,698.86 1306.68,698.981 1308.89,699.101 1311.1,699.221 1313.3,699.34 1315.51,699.458 1317.72,699.575 1319.92,699.691 1322.13,699.807 1324.34,699.922 1326.54,700.036 1328.75,700.15 1330.96,700.263 1333.17,700.375 1335.37,700.486 1337.58,700.597 1339.79,700.707 1341.99,700.816 1344.2,700.925 1346.41,701.033 1348.61,701.14 1350.82,701.247 1353.03,701.353 1355.23,701.458 1357.44,701.563 1359.65,701.666 1361.86,701.77 1364.06,701.872 1366.27,701.974 1368.48,702.076 1370.68,702.176 1372.89,702.276 1375.1,702.376 1377.3,702.474 1379.51,702.573 1381.72,702.67 1383.92,702.767 1386.13,702.863 1388.34,702.959 1390.54,703.054 1392.75,703.149 1394.96,703.242 1397.17,703.336 1399.37,703.428 1401.58,703.521 1403.79,703.612 1405.99,703.703 1408.2,703.793 1410.41,703.883 1412.61,703.972 1414.82,704.061 1417.03,704.149 1419.23,704.237 1421.44,704.324 1423.65,704.41 1425.86,704.496 1428.06,704.581 1430.27,704.666 1432.48,704.751 1434.68,704.834 1436.89,704.918 1439.1,705 1441.3,705.082 1443.51,705.164 1445.72,705.245 1447.92,705.326 1450.13,705.406 1452.34,705.486 1454.55,705.565 1456.75,705.643 1458.96,705.722 1461.17,705.799 1463.37,705.876 1465.58,705.953 1467.79,706.029 1469.99,706.105 1472.2,706.18 1474.41,706.255 1476.61,706.329 1478.82,706.403 1481.03,706.477 1483.23,706.549 1485.44,706.622 1487.65,706.694 1489.86,706.765 1492.06,706.837 1494.27,706.907 1496.48,706.977 1498.68,707.047 1500.89,707.117 1503.1,707.186 1505.3,707.254 1507.51,707.322 1509.72,707.39 1511.92,707.457 1514.13,707.524 1516.34,707.59 1518.55,707.656 1520.75,707.722 1522.96,707.787 1525.17,707.852 1527.37,707.916 1529.58,707.98 1531.79,708.044 1533.99,708.107 1536.2,708.17 1538.41,708.232 1540.61,708.294 1542.82,708.356 1545.03,708.417 1547.24,708.478 1549.44,708.539 1551.65,708.599 1553.86,708.659 1556.06,708.718 1558.27,708.777 1560.48,708.836 1562.68,708.894 1564.89,708.952 1567.1,709.01 1569.3,709.067 1571.51,709.124 1573.72,709.18 1575.92,709.237 1578.13,709.292 1580.34,709.348 1582.55,709.403 1584.75,709.458 1586.96,709.512 1589.17,709.567 1591.37,709.62 1593.58,709.674 1595.79,709.727 1597.99,709.78 1600.2,709.832 1602.41,709.884 1604.61,709.936 1606.82,709.988 1609.03,710.039 1611.24,710.09 1613.44,710.14 1615.65,710.191 1617.86,710.241 1620.06,710.29 1622.27,710.339 1624.48,710.388 1626.68,710.437 1628.89,710.486 1631.1,710.534 1633.3,710.581 1635.51,710.629 1637.72,710.676 1639.93,710.723 1642.13,710.77 1644.34,710.816 1646.55,710.862 1648.75,710.908 1650.96,710.953 1653.17,710.998 1655.37,711.043 1657.58,711.088 1659.79,711.132 1661.99,711.176 1664.2,711.22 1666.41,711.264 1668.61,711.307 1670.82,711.35 1673.03,711.392 1675.24,711.435 1677.44,711.477 1679.65,711.519 1681.86,711.561 1684.06,711.602 1686.27,711.643 1688.48,711.684 1690.68,711.725 1692.89,711.765 1695.1,711.805 1697.3,711.845 1699.51,711.885 1701.72,711.924 1703.93,711.963 1706.13,712.002 1708.34,712.041 1710.55,712.079 1712.75,712.117 1714.96,712.155 1717.17,712.193 1719.37,712.23 1721.58,712.267 1723.79,712.304 1725.99,712.341 1728.2,712.378 1730.41,712.414 1732.62,712.45 1734.82,712.486 1737.03,712.522 1739.24,712.557 1741.44,712.592 1743.65,712.627 1745.86,712.662 1748.06,712.696 1750.27,712.731 1752.48,712.765 1754.68,712.799 1756.89,712.833 1759.1,712.866 1761.31,712.899 1763.51,712.932 1765.72,712.965 1767.93,712.998 1770.13,713.03 1772.34,713.063 1774.55,713.095 1776.75,713.127 1778.96,713.158 1781.17,713.19 1783.37,713.221 1785.58,713.252 1787.79,713.283 1789.99,713.314 1792.2,713.345 1794.41,713.375 1796.62,713.405 1798.82,713.435 1801.03,713.465 1803.24,713.495 1805.44,713.524 1807.65,713.553 1809.86,713.582 1812.06,713.611 1814.27,713.64 1816.48,713.669 1818.68,713.697 1820.89,713.725 1823.1,713.753 1825.31,713.781 1827.51,713.809 1829.72,713.837 1831.93,713.864 1834.13,713.891 1836.34,713.918 1838.55,713.945 1840.75,713.972 1842.96,713.999 1845.17,714.025 1847.37,714.051 1849.58,714.077 1851.79,714.103 1854,714.129 1856.2,714.155 1858.41,714.18 1860.62,714.206 1862.82,714.231 1865.03,714.256 1867.24,714.281 1869.44,714.306 1871.65,714.33 1873.86,714.355 1876.06,714.379 1878.27,714.403 1880.48,714.427 1882.68,714.451 1884.89,714.474 1887.1,714.498 1889.31,714.521 1891.51,714.545 1893.72,714.568 1895.93,714.591 1898.13,714.614 1900.34,714.636 1902.55,714.659 1904.75,714.681 1906.96,714.703 1909.17,714.726 1911.37,714.748 1913.58,714.77 1915.79,714.791 1918,714.813 1920.2,714.834 1922.41,714.856 1924.62,714.877 1926.82,714.898 1929.03,714.919 1931.24,714.94 1933.44,714.96 1935.65,714.981 1937.86,715.001 1940.06,715.022 1942.27,715.042 1944.48,715.062 1946.69,715.082 1948.89,715.102 1951.1,715.121 1953.31,715.141 1955.51,715.16 1957.72,715.18 1959.93,715.199 1962.13,715.218 1964.34,715.237 1966.55,715.256 1968.75,715.274 1970.96,715.293 1973.17,715.312 1975.37,715.33 1977.58,715.348 1979.79,715.366 1982,715.384 1984.2,715.402 1986.41,715.42 1988.62,715.438 1990.82,715.455 1993.03,715.473 1995.24,715.49 1997.44,715.508 1999.65,715.525 2001.86,715.542 2004.06,715.559 2006.27,715.576 2008.48,715.592 2010.69,715.609 2012.89,715.626 2015.1,715.642 2017.31,715.658 2019.51,715.675 2021.72,715.691 2023.93,715.707 2026.13,715.723 2028.34,715.739 2030.55,715.754 2032.75,715.77 2034.96,715.785 2037.17,715.801 2039.38,715.816 2041.58,715.831 2043.79,715.847 2046,715.862 2048.2,715.877 2050.41,715.892 2052.62,715.906 2054.82,715.921 2057.03,715.936 2059.24,715.95 2061.44,715.965 2063.65,715.979 2065.86,715.993 2068.07,716.007 2070.27,716.021 2072.48,716.035 2074.69,716.049 2076.89,716.063 2079.1,716.077 2081.31,716.091 2083.51,716.104 2085.72,716.118 2087.93,716.131 2090.13,716.144 2092.34,716.158 2094.55,716.171 2096.75,716.184 2098.96,716.197 2101.17,716.21 2103.38,716.223 2105.58,716.235 2107.79,716.248 2110,716.261 2112.2,716.273 2114.41,716.286 2116.62,716.298 2118.82,716.31 2121.03,716.323 2123.24,716.335 2125.44,716.347 2127.65,716.359 2129.86,716.371 2132.07,716.383 2134.27,716.395 2136.48,716.406 2138.69,716.418 2140.89,716.43 2143.1,716.441 2145.31,716.453 2147.51,716.464 2149.72,716.475 2151.93,716.487 2154.13,716.498 2156.34,716.509 2158.55,716.52 2160.76,716.531 2162.96,716.542 2165.17,716.553 2167.38,716.564 2169.58,716.575 2171.79,716.585 2174,716.596 2176.2,716.606 2178.41,716.617 2180.62,716.627 2182.82,716.638 2185.03,716.648 2187.24,716.658 2189.44,716.668 2191.65,716.679 2193.86,716.689 2196.07,716.699 2198.27,716.709 2200.48,716.718 2202.69,716.728 2204.89,716.738 2207.1,716.748 2209.31,716.757 2211.51,716.767 2213.72,716.776 2215.93,716.786 2218.13,716.795 2220.34,716.805 2222.55,716.814 2224.76,716.823 2226.96,716.832 2229.17,716.842 2231.38,716.851 2233.58,716.86 2235.79,716.869 2238,716.877 2240.2,716.886 2242.41,716.895 2244.62,716.904 2246.82,716.913 2249.03,716.921 2251.24,716.93 2253.45,716.938 2255.65,716.947 2257.86,716.955 2260.07,716.964 2262.27,716.972 2264.48,716.98 2266.69,716.988 2268.89,716.997 2271.1,717.005 2273.31,717.013 2275.51,717.021 2277.72,717.029 2279.93,717.037 2282.13,717.045 2284.34,717.053 2286.55,717.06 2288.76,717.068 2290.96,717.076 2293.17,717.083 2295.38,717.091 2297.58,717.099 2299.79,717.106 2302,717.114 2304.2,717.121 2306.41,717.128 2308.62,717.136 2310.82,717.143 2313.03,717.15 2315.24,717.157 2317.45,717.165 2319.65,717.172 2321.86,717.179 2324.07,717.186 2326.27,717.193 2328.48,717.2 2330.69,717.207 2332.89,717.213 2335.1,717.22 2337.31,717.227 2339.51,717.234 2341.72,717.24 2343.93,717.247 2346.14,717.254 2348.34,717.26 2350.55,717.267 2352.76,717.273 "/>
<path clip-path="url(#clip240)" d="M1799.4 248.629 L2279.27 248.629 L2279.27 93.1086 L1799.4 93.1086  Z" fill="#ffffff" fill-rule="evenodd" fill-opacity="1"/>
<polyline clip-path="url(#clip240)" style="stroke:#000000; stroke-linecap:round; stroke-linejoin:round; stroke-width:4; stroke-opacity:1; fill:none" points="1799.4,248.629 2279.27,248.629 2279.27,93.1086 1799.4,93.1086 1799.4,248.629 "/>
<polyline clip-path="url(#clip240)" style="stroke:#009af9; stroke-linecap:round; stroke-linejoin:round; stroke-width:4; stroke-opacity:1; fill:none" points="1823.9,144.949 1970.88,144.949 "/>
<path clip-path="url(#clip240)" d="M1995.37 136.303 L1999.89 136.303 L2007.99 158.062 L2016.09 136.303 L2020.6 136.303 L2010.88 162.229 L2005.09 162.229 L1995.37 136.303 Z" fill="#000000" fill-rule="nonzero" fill-opacity="1" /><path clip-path="url(#clip240)" d="M2027.9 158.293 L2035.53 158.293 L2035.53 131.928 L2027.22 133.595 L2027.22 129.335 L2035.49 127.669 L2040.16 127.669 L2040.16 158.293 L2047.8 158.293 L2047.8 162.229 L2027.9 162.229 L2027.9 158.293 Z" fill="#000000" fill-rule="nonzero" fill-opacity="1" /><path clip-path="url(#clip240)" d="M2065.9 145.585 L2065.9 152.807 L2074.03 152.807 L2074.03 155.006 L2065.9 155.006 L2065.9 162.229 L2063.47 162.229 L2063.47 155.006 L2055.35 155.006 L2055.35 152.807 L2063.47 152.807 L2063.47 145.585 L2065.9 145.585 Z" fill="#000000" fill-rule="nonzero" fill-opacity="1" /><path clip-path="url(#clip240)" d="M2098.2 137.067 L2098.2 141.094 Q2096.39 140.169 2094.45 139.706 Q2092.5 139.243 2090.42 139.243 Q2087.25 139.243 2085.65 140.215 Q2084.08 141.187 2084.08 143.131 Q2084.08 144.613 2085.21 145.469 Q2086.34 146.303 2089.77 147.067 L2091.23 147.391 Q2095.77 148.363 2097.66 150.145 Q2099.58 151.905 2099.58 155.076 Q2099.58 158.687 2096.71 160.793 Q2093.87 162.9 2088.87 162.9 Q2086.78 162.9 2084.52 162.483 Q2082.27 162.09 2079.77 161.28 L2079.77 156.881 Q2082.13 158.108 2084.42 158.733 Q2086.71 159.335 2088.96 159.335 Q2091.97 159.335 2093.59 158.317 Q2095.21 157.275 2095.21 155.4 Q2095.21 153.664 2094.03 152.738 Q2092.87 151.812 2088.91 150.956 L2087.43 150.608 Q2083.47 149.775 2081.71 148.062 Q2079.96 146.326 2079.96 143.317 Q2079.96 139.659 2082.55 137.669 Q2085.14 135.678 2089.91 135.678 Q2092.27 135.678 2094.35 136.025 Q2096.44 136.372 2098.2 137.067 Z" fill="#000000" fill-rule="nonzero" fill-opacity="1" /><path clip-path="url(#clip240)" d="M2110.58 128.942 L2110.58 136.303 L2119.35 136.303 L2119.35 139.613 L2110.58 139.613 L2110.58 153.687 Q2110.58 156.858 2111.44 157.761 Q2112.32 158.664 2114.98 158.664 L2119.35 158.664 L2119.35 162.229 L2114.98 162.229 Q2110.05 162.229 2108.17 160.4 Q2106.3 158.548 2106.3 153.687 L2106.3 139.613 L2103.17 139.613 L2103.17 136.303 L2106.3 136.303 L2106.3 128.942 L2110.58 128.942 Z" fill="#000000" fill-rule="nonzero" fill-opacity="1" /><path clip-path="url(#clip240)" d="M2135 139.289 Q2131.58 139.289 2129.58 141.974 Q2127.59 144.636 2127.59 149.289 Q2127.59 153.942 2129.56 156.627 Q2131.55 159.289 2135 159.289 Q2138.4 159.289 2140.39 156.604 Q2142.39 153.918 2142.39 149.289 Q2142.39 144.682 2140.39 141.997 Q2138.4 139.289 2135 139.289 M2135 135.678 Q2140.56 135.678 2143.73 139.289 Q2146.9 142.9 2146.9 149.289 Q2146.9 155.655 2143.73 159.289 Q2140.56 162.9 2135 162.9 Q2129.42 162.9 2126.25 159.289 Q2123.1 155.655 2123.1 149.289 Q2123.1 142.9 2126.25 139.289 Q2129.42 135.678 2135 135.678 Z" fill="#000000" fill-rule="nonzero" fill-opacity="1" /><path clip-path="url(#clip240)" d="M2168.98 140.284 Q2168.27 139.868 2167.41 139.682 Q2166.58 139.474 2165.56 139.474 Q2161.95 139.474 2160 141.835 Q2158.08 144.173 2158.08 148.571 L2158.08 162.229 L2153.8 162.229 L2153.8 136.303 L2158.08 136.303 L2158.08 140.331 Q2159.42 137.969 2161.58 136.835 Q2163.73 135.678 2166.81 135.678 Q2167.25 135.678 2167.78 135.747 Q2168.31 135.794 2168.96 135.909 L2168.98 140.284 Z" fill="#000000" fill-rule="nonzero" fill-opacity="1" /><path clip-path="url(#clip240)" d="M2185.23 149.196 Q2180.07 149.196 2178.08 150.377 Q2176.09 151.557 2176.09 154.405 Q2176.09 156.673 2177.57 158.016 Q2179.08 159.335 2181.64 159.335 Q2185.19 159.335 2187.32 156.835 Q2189.47 154.312 2189.47 150.145 L2189.47 149.196 L2185.23 149.196 M2193.73 147.437 L2193.73 162.229 L2189.47 162.229 L2189.47 158.293 Q2188.01 160.655 2185.83 161.789 Q2183.66 162.9 2180.51 162.9 Q2176.53 162.9 2174.17 160.678 Q2171.83 158.432 2171.83 154.682 Q2171.83 150.307 2174.75 148.085 Q2177.69 145.863 2183.5 145.863 L2189.47 145.863 L2189.47 145.446 Q2189.47 142.507 2187.52 140.909 Q2185.6 139.289 2182.11 139.289 Q2179.89 139.289 2177.78 139.821 Q2175.67 140.354 2173.73 141.419 L2173.73 137.483 Q2176.07 136.581 2178.27 136.141 Q2180.46 135.678 2182.55 135.678 Q2188.17 135.678 2190.95 138.594 Q2193.73 141.511 2193.73 147.437 Z" fill="#000000" fill-rule="nonzero" fill-opacity="1" /><path clip-path="url(#clip240)" d="M2219.56 148.965 Q2219.56 144.335 2217.64 141.789 Q2215.74 139.243 2212.29 139.243 Q2208.87 139.243 2206.95 141.789 Q2205.05 144.335 2205.05 148.965 Q2205.05 153.571 2206.95 156.118 Q2208.87 158.664 2212.29 158.664 Q2215.74 158.664 2217.64 156.118 Q2219.56 153.571 2219.56 148.965 M2223.82 159.011 Q2223.82 165.631 2220.88 168.849 Q2217.94 172.09 2211.88 172.09 Q2209.63 172.09 2207.64 171.742 Q2205.65 171.418 2203.77 170.724 L2203.77 166.58 Q2205.65 167.599 2207.48 168.085 Q2209.31 168.571 2211.2 168.571 Q2215.39 168.571 2217.48 166.372 Q2219.56 164.196 2219.56 159.775 L2219.56 157.668 Q2218.24 159.96 2216.18 161.094 Q2214.12 162.229 2211.25 162.229 Q2206.48 162.229 2203.57 158.594 Q2200.65 154.96 2200.65 148.965 Q2200.65 142.946 2203.57 139.312 Q2206.48 135.678 2211.25 135.678 Q2214.12 135.678 2216.18 136.812 Q2218.24 137.946 2219.56 140.238 L2219.56 136.303 L2223.82 136.303 L2223.82 159.011 Z" fill="#000000" fill-rule="nonzero" fill-opacity="1" /><path clip-path="url(#clip240)" d="M2254.77 148.201 L2254.77 150.284 L2235.19 150.284 Q2235.46 154.682 2237.82 156.997 Q2240.21 159.289 2244.45 159.289 Q2246.9 159.289 2249.19 158.687 Q2251.51 158.085 2253.77 156.881 L2253.77 160.909 Q2251.48 161.881 2249.07 162.391 Q2246.67 162.9 2244.19 162.9 Q2237.99 162.9 2234.35 159.289 Q2230.74 155.678 2230.74 149.52 Q2230.74 143.155 2234.17 139.428 Q2237.62 135.678 2243.45 135.678 Q2248.68 135.678 2251.71 139.057 Q2254.77 142.414 2254.77 148.201 M2250.51 146.951 Q2250.46 143.456 2248.54 141.372 Q2246.64 139.289 2243.5 139.289 Q2239.93 139.289 2237.78 141.303 Q2235.65 143.317 2235.32 146.974 L2250.51 146.951 Z" fill="#000000" fill-rule="nonzero" fill-opacity="1" /><polyline clip-path="url(#clip240)" style="stroke:#e26f46; stroke-linecap:round; stroke-linejoin:round; stroke-width:4; stroke-opacity:1; fill:none" points="1823.9,196.789 1970.88,196.789 "/>
<path clip-path="url(#clip240)" d="M1995.37 188.143 L1999.89 188.143 L2007.99 209.902 L2016.09 188.143 L2020.6 188.143 L2010.88 214.069 L2005.09 214.069 L1995.37 188.143 Z" fill="#000000" fill-rule="nonzero" fill-opacity="1" /><path clip-path="url(#clip240)" d="M2027.13 179.509 L2045.49 179.509 L2045.49 183.444 L2031.41 183.444 L2031.41 191.916 Q2032.43 191.569 2033.45 191.407 Q2034.47 191.222 2035.49 191.222 Q2041.28 191.222 2044.65 194.393 Q2048.03 197.564 2048.03 202.981 Q2048.03 208.559 2044.56 211.661 Q2041.09 214.74 2034.77 214.74 Q2032.59 214.74 2030.33 214.37 Q2028.08 213.999 2025.67 213.258 L2025.67 208.559 Q2027.76 209.694 2029.98 210.249 Q2032.2 210.805 2034.68 210.805 Q2038.68 210.805 2041.02 208.698 Q2043.36 206.592 2043.36 202.981 Q2043.36 199.37 2041.02 197.263 Q2038.68 195.157 2034.68 195.157 Q2032.8 195.157 2030.93 195.573 Q2029.08 195.99 2027.13 196.87 L2027.13 179.509 Z" fill="#000000" fill-rule="nonzero" fill-opacity="1" /><path clip-path="url(#clip240)" d="M2065.9 197.425 L2065.9 204.647 L2074.03 204.647 L2074.03 206.846 L2065.9 206.846 L2065.9 214.069 L2063.47 214.069 L2063.47 206.846 L2055.35 206.846 L2055.35 204.647 L2063.47 204.647 L2063.47 197.425 L2065.9 197.425 Z" fill="#000000" fill-rule="nonzero" fill-opacity="1" /><path clip-path="url(#clip240)" d="M2098.2 188.907 L2098.2 192.934 Q2096.39 192.009 2094.45 191.546 Q2092.5 191.083 2090.42 191.083 Q2087.25 191.083 2085.65 192.055 Q2084.08 193.027 2084.08 194.971 Q2084.08 196.453 2085.21 197.309 Q2086.34 198.143 2089.77 198.907 L2091.23 199.231 Q2095.77 200.203 2097.66 201.985 Q2099.58 203.745 2099.58 206.916 Q2099.58 210.527 2096.71 212.633 Q2093.87 214.74 2088.87 214.74 Q2086.78 214.74 2084.52 214.323 Q2082.27 213.93 2079.77 213.12 L2079.77 208.721 Q2082.13 209.948 2084.42 210.573 Q2086.71 211.175 2088.96 211.175 Q2091.97 211.175 2093.59 210.157 Q2095.21 209.115 2095.21 207.24 Q2095.21 205.504 2094.03 204.578 Q2092.87 203.652 2088.91 202.796 L2087.43 202.448 Q2083.47 201.615 2081.71 199.902 Q2079.96 198.166 2079.96 195.157 Q2079.96 191.499 2082.55 189.509 Q2085.14 187.518 2089.91 187.518 Q2092.27 187.518 2094.35 187.865 Q2096.44 188.212 2098.2 188.907 Z" fill="#000000" fill-rule="nonzero" fill-opacity="1" /><path clip-path="url(#clip240)" d="M2110.58 180.782 L2110.58 188.143 L2119.35 188.143 L2119.35 191.453 L2110.58 191.453 L2110.58 205.527 Q2110.58 208.698 2111.44 209.601 Q2112.32 210.504 2114.98 210.504 L2119.35 210.504 L2119.35 214.069 L2114.98 214.069 Q2110.05 214.069 2108.17 212.24 Q2106.3 210.388 2106.3 205.527 L2106.3 191.453 L2103.17 191.453 L2103.17 188.143 L2106.3 188.143 L2106.3 180.782 L2110.58 180.782 Z" fill="#000000" fill-rule="nonzero" fill-opacity="1" /><path clip-path="url(#clip240)" d="M2135 191.129 Q2131.58 191.129 2129.58 193.814 Q2127.59 196.476 2127.59 201.129 Q2127.59 205.782 2129.56 208.467 Q2131.55 211.129 2135 211.129 Q2138.4 211.129 2140.39 208.444 Q2142.39 205.758 2142.39 201.129 Q2142.39 196.522 2140.39 193.837 Q2138.4 191.129 2135 191.129 M2135 187.518 Q2140.56 187.518 2143.73 191.129 Q2146.9 194.74 2146.9 201.129 Q2146.9 207.495 2143.73 211.129 Q2140.56 214.74 2135 214.74 Q2129.42 214.74 2126.25 211.129 Q2123.1 207.495 2123.1 201.129 Q2123.1 194.74 2126.25 191.129 Q2129.42 187.518 2135 187.518 Z" fill="#000000" fill-rule="nonzero" fill-opacity="1" /><path clip-path="url(#clip240)" d="M2168.98 192.124 Q2168.27 191.708 2167.41 191.522 Q2166.58 191.314 2165.56 191.314 Q2161.95 191.314 2160 193.675 Q2158.08 196.013 2158.08 200.411 L2158.08 214.069 L2153.8 214.069 L2153.8 188.143 L2158.08 188.143 L2158.08 192.171 Q2159.42 189.809 2161.58 188.675 Q2163.73 187.518 2166.81 187.518 Q2167.25 187.518 2167.78 187.587 Q2168.31 187.634 2168.96 187.749 L2168.98 192.124 Z" fill="#000000" fill-rule="nonzero" fill-opacity="1" /><path clip-path="url(#clip240)" d="M2185.23 201.036 Q2180.07 201.036 2178.08 202.217 Q2176.09 203.397 2176.09 206.245 Q2176.09 208.513 2177.57 209.856 Q2179.08 211.175 2181.64 211.175 Q2185.19 211.175 2187.32 208.675 Q2189.47 206.152 2189.47 201.985 L2189.47 201.036 L2185.23 201.036 M2193.73 199.277 L2193.73 214.069 L2189.47 214.069 L2189.47 210.133 Q2188.01 212.495 2185.83 213.629 Q2183.66 214.74 2180.51 214.74 Q2176.53 214.74 2174.17 212.518 Q2171.83 210.272 2171.83 206.522 Q2171.83 202.147 2174.75 199.925 Q2177.69 197.703 2183.5 197.703 L2189.47 197.703 L2189.47 197.286 Q2189.47 194.347 2187.52 192.749 Q2185.6 191.129 2182.11 191.129 Q2179.89 191.129 2177.78 191.661 Q2175.67 192.194 2173.73 193.259 L2173.73 189.323 Q2176.07 188.421 2178.27 187.981 Q2180.46 187.518 2182.55 187.518 Q2188.17 187.518 2190.95 190.434 Q2193.73 193.351 2193.73 199.277 Z" fill="#000000" fill-rule="nonzero" fill-opacity="1" /><path clip-path="url(#clip240)" d="M2219.56 200.805 Q2219.56 196.175 2217.64 193.629 Q2215.74 191.083 2212.29 191.083 Q2208.87 191.083 2206.95 193.629 Q2205.05 196.175 2205.05 200.805 Q2205.05 205.411 2206.95 207.958 Q2208.87 210.504 2212.29 210.504 Q2215.74 210.504 2217.64 207.958 Q2219.56 205.411 2219.56 200.805 M2223.82 210.851 Q2223.82 217.471 2220.88 220.689 Q2217.94 223.93 2211.88 223.93 Q2209.63 223.93 2207.64 223.582 Q2205.65 223.258 2203.77 222.564 L2203.77 218.42 Q2205.65 219.439 2207.48 219.925 Q2209.31 220.411 2211.2 220.411 Q2215.39 220.411 2217.48 218.212 Q2219.56 216.036 2219.56 211.615 L2219.56 209.508 Q2218.24 211.8 2216.18 212.934 Q2214.12 214.069 2211.25 214.069 Q2206.48 214.069 2203.57 210.434 Q2200.65 206.8 2200.65 200.805 Q2200.65 194.786 2203.57 191.152 Q2206.48 187.518 2211.25 187.518 Q2214.12 187.518 2216.18 188.652 Q2218.24 189.786 2219.56 192.078 L2219.56 188.143 L2223.82 188.143 L2223.82 210.851 Z" fill="#000000" fill-rule="nonzero" fill-opacity="1" /><path clip-path="url(#clip240)" d="M2254.77 200.041 L2254.77 202.124 L2235.19 202.124 Q2235.46 206.522 2237.82 208.837 Q2240.21 211.129 2244.45 211.129 Q2246.9 211.129 2249.19 210.527 Q2251.51 209.925 2253.77 208.721 L2253.77 212.749 Q2251.48 213.721 2249.07 214.231 Q2246.67 214.74 2244.19 214.74 Q2237.99 214.74 2234.35 211.129 Q2230.74 207.518 2230.74 201.36 Q2230.74 194.995 2234.17 191.268 Q2237.62 187.518 2243.45 187.518 Q2248.68 187.518 2251.71 190.897 Q2254.77 194.254 2254.77 200.041 M2250.51 198.791 Q2250.46 195.296 2248.54 193.212 Q2246.64 191.129 2243.5 191.129 Q2239.93 191.129 2237.78 193.143 Q2235.65 195.157 2235.32 198.814 L2250.51 198.791 Z" fill="#000000" fill-rule="nonzero" fill-opacity="1" /></svg>
