<?xml version="1.0" encoding="utf-8"?>
<svg xmlns="http://www.w3.org/2000/svg" xmlns:xlink="http://www.w3.org/1999/xlink" width="600" height="400" viewBox="0 0 2400 1600">
<defs>
  <clipPath id="clip090">
    <rect x="0" y="0" width="2400" height="1600"/>
  </clipPath>
</defs>
<path clip-path="url(#clip090)" d="M0 1600 L2400 1600 L2400 0 L0 0  Z" fill="#ffffff" fill-rule="evenodd" fill-opacity="1"/>
<defs>
  <clipPath id="clip091">
    <rect x="480" y="0" width="1681" height="1600"/>
  </clipPath>
</defs>
<path clip-path="url(#clip090)" d="M224.098 1423.18 L2352.76 1423.18 L2352.76 47.2441 L224.098 47.2441  Z" fill="#ffffff" fill-rule="evenodd" fill-opacity="1"/>
<defs>
  <clipPath id="clip092">
    <rect x="224" y="47" width="2130" height="1377"/>
  </clipPath>
</defs>
<polyline clip-path="url(#clip092)" style="stroke:#000000; stroke-linecap:round; stroke-linejoin:round; stroke-width:2; stroke-opacity:0.1; fill:none" points="224.098,1423.18 224.098,47.2441 "/>
<polyline clip-path="url(#clip092)" style="stroke:#000000; stroke-linecap:round; stroke-linejoin:round; stroke-width:2; stroke-opacity:0.1; fill:none" points="756.262,1423.18 756.262,47.2441 "/>
<polyline clip-path="url(#clip092)" style="stroke:#000000; stroke-linecap:round; stroke-linejoin:round; stroke-width:2; stroke-opacity:0.1; fill:none" points="1288.43,1423.18 1288.43,47.2441 "/>
<polyline clip-path="url(#clip092)" style="stroke:#000000; stroke-linecap:round; stroke-linejoin:round; stroke-width:2; stroke-opacity:0.1; fill:none" points="1820.59,1423.18 1820.59,47.2441 "/>
<polyline clip-path="url(#clip092)" style="stroke:#000000; stroke-linecap:round; stroke-linejoin:round; stroke-width:2; stroke-opacity:0.1; fill:none" points="2352.76,1423.18 2352.76,47.2441 "/>
<polyline clip-path="url(#clip092)" style="stroke:#000000; stroke-linecap:round; stroke-linejoin:round; stroke-width:2; stroke-opacity:0.1; fill:none" points="224.098,1194.39 2352.76,1194.39 "/>
<polyline clip-path="url(#clip092)" style="stroke:#000000; stroke-linecap:round; stroke-linejoin:round; stroke-width:2; stroke-opacity:0.1; fill:none" points="224.098,923.979 2352.76,923.979 "/>
<polyline clip-path="url(#clip092)" style="stroke:#000000; stroke-linecap:round; stroke-linejoin:round; stroke-width:2; stroke-opacity:0.1; fill:none" points="224.098,653.566 2352.76,653.566 "/>
<polyline clip-path="url(#clip092)" style="stroke:#000000; stroke-linecap:round; stroke-linejoin:round; stroke-width:2; stroke-opacity:0.1; fill:none" points="224.098,383.154 2352.76,383.154 "/>
<polyline clip-path="url(#clip092)" style="stroke:#000000; stroke-linecap:round; stroke-linejoin:round; stroke-width:2; stroke-opacity:0.1; fill:none" points="224.098,112.741 2352.76,112.741 "/>
<polyline clip-path="url(#clip090)" style="stroke:#000000; stroke-linecap:round; stroke-linejoin:round; stroke-width:4; stroke-opacity:1; fill:none" points="224.098,1423.18 2352.76,1423.18 "/>
<polyline clip-path="url(#clip090)" style="stroke:#000000; stroke-linecap:round; stroke-linejoin:round; stroke-width:4; stroke-opacity:1; fill:none" points="224.098,1423.18 224.098,1404.28 "/>
<polyline clip-path="url(#clip090)" style="stroke:#000000; stroke-linecap:round; stroke-linejoin:round; stroke-width:4; stroke-opacity:1; fill:none" points="756.262,1423.18 756.262,1404.28 "/>
<polyline clip-path="url(#clip090)" style="stroke:#000000; stroke-linecap:round; stroke-linejoin:round; stroke-width:4; stroke-opacity:1; fill:none" points="1288.43,1423.18 1288.43,1404.28 "/>
<polyline clip-path="url(#clip090)" style="stroke:#000000; stroke-linecap:round; stroke-linejoin:round; stroke-width:4; stroke-opacity:1; fill:none" points="1820.59,1423.18 1820.59,1404.28 "/>
<polyline clip-path="url(#clip090)" style="stroke:#000000; stroke-linecap:round; stroke-linejoin:round; stroke-width:4; stroke-opacity:1; fill:none" points="2352.76,1423.18 2352.76,1404.28 "/>
<path clip-path="url(#clip090)" d="M201.482 1454.1 Q197.871 1454.1 196.042 1457.66 Q194.237 1461.2 194.237 1468.33 Q194.237 1475.44 196.042 1479.01 Q197.871 1482.55 201.482 1482.55 Q205.116 1482.55 206.922 1479.01 Q208.751 1475.44 208.751 1468.33 Q208.751 1461.2 206.922 1457.66 Q205.116 1454.1 201.482 1454.1 M201.482 1450.39 Q207.292 1450.39 210.348 1455 Q213.427 1459.58 213.427 1468.33 Q213.427 1477.06 210.348 1481.67 Q207.292 1486.25 201.482 1486.25 Q195.672 1486.25 192.593 1481.67 Q189.538 1477.06 189.538 1468.33 Q189.538 1459.58 192.593 1455 Q195.672 1450.39 201.482 1450.39 Z" fill="#000000" fill-rule="nonzero" fill-opacity="1" /><path clip-path="url(#clip090)" d="M221.644 1479.7 L226.528 1479.7 L226.528 1485.58 L221.644 1485.58 L221.644 1479.7 Z" fill="#000000" fill-rule="nonzero" fill-opacity="1" /><path clip-path="url(#clip090)" d="M246.713 1454.1 Q243.102 1454.1 241.274 1457.66 Q239.468 1461.2 239.468 1468.33 Q239.468 1475.44 241.274 1479.01 Q243.102 1482.55 246.713 1482.55 Q250.348 1482.55 252.153 1479.01 Q253.982 1475.44 253.982 1468.33 Q253.982 1461.2 252.153 1457.66 Q250.348 1454.1 246.713 1454.1 M246.713 1450.39 Q252.524 1450.39 255.579 1455 Q258.658 1459.58 258.658 1468.33 Q258.658 1477.06 255.579 1481.67 Q252.524 1486.25 246.713 1486.25 Q240.903 1486.25 237.825 1481.67 Q234.769 1477.06 234.769 1468.33 Q234.769 1459.58 237.825 1455 Q240.903 1450.39 246.713 1450.39 Z" fill="#000000" fill-rule="nonzero" fill-opacity="1" /><path clip-path="url(#clip090)" d="M734.144 1454.1 Q730.533 1454.1 728.705 1457.66 Q726.899 1461.2 726.899 1468.33 Q726.899 1475.44 728.705 1479.01 Q730.533 1482.55 734.144 1482.55 Q737.779 1482.55 739.584 1479.01 Q741.413 1475.44 741.413 1468.33 Q741.413 1461.2 739.584 1457.66 Q737.779 1454.1 734.144 1454.1 M734.144 1450.39 Q739.955 1450.39 743.01 1455 Q746.089 1459.58 746.089 1468.33 Q746.089 1477.06 743.01 1481.67 Q739.955 1486.25 734.144 1486.25 Q728.334 1486.25 725.256 1481.67 Q722.2 1477.06 722.2 1468.33 Q722.2 1459.58 725.256 1455 Q728.334 1450.39 734.144 1450.39 Z" fill="#000000" fill-rule="nonzero" fill-opacity="1" /><path clip-path="url(#clip090)" d="M754.306 1479.7 L759.191 1479.7 L759.191 1485.58 L754.306 1485.58 L754.306 1479.7 Z" fill="#000000" fill-rule="nonzero" fill-opacity="1" /><path clip-path="url(#clip090)" d="M769.422 1451.02 L787.778 1451.02 L787.778 1454.96 L773.704 1454.96 L773.704 1463.43 Q774.723 1463.08 775.741 1462.92 Q776.76 1462.73 777.778 1462.73 Q783.565 1462.73 786.945 1465.9 Q790.325 1469.08 790.325 1474.49 Q790.325 1480.07 786.852 1483.17 Q783.38 1486.25 777.061 1486.25 Q774.885 1486.25 772.616 1485.88 Q770.371 1485.51 767.964 1484.77 L767.964 1480.07 Q770.047 1481.2 772.269 1481.76 Q774.491 1482.32 776.968 1482.32 Q780.973 1482.32 783.311 1480.21 Q785.649 1478.1 785.649 1474.49 Q785.649 1470.88 783.311 1468.77 Q780.973 1466.67 776.968 1466.67 Q775.093 1466.67 773.218 1467.08 Q771.366 1467.5 769.422 1468.38 L769.422 1451.02 Z" fill="#000000" fill-rule="nonzero" fill-opacity="1" /><path clip-path="url(#clip090)" d="M1255.58 1481.64 L1263.22 1481.64 L1263.22 1455.28 L1254.91 1456.95 L1254.91 1452.69 L1263.17 1451.02 L1267.85 1451.02 L1267.85 1481.64 L1275.49 1481.64 L1275.49 1485.58 L1255.58 1485.58 L1255.58 1481.64 Z" fill="#000000" fill-rule="nonzero" fill-opacity="1" /><path clip-path="url(#clip090)" d="M1284.93 1479.7 L1289.82 1479.7 L1289.82 1485.58 L1284.93 1485.58 L1284.93 1479.7 Z" fill="#000000" fill-rule="nonzero" fill-opacity="1" /><path clip-path="url(#clip090)" d="M1310 1454.1 Q1306.39 1454.1 1304.56 1457.66 Q1302.76 1461.2 1302.76 1468.33 Q1302.76 1475.44 1304.56 1479.01 Q1306.39 1482.55 1310 1482.55 Q1313.64 1482.55 1315.44 1479.01 Q1317.27 1475.44 1317.27 1468.33 Q1317.27 1461.2 1315.44 1457.66 Q1313.64 1454.1 1310 1454.1 M1310 1450.39 Q1315.81 1450.39 1318.87 1455 Q1321.95 1459.58 1321.95 1468.33 Q1321.95 1477.06 1318.87 1481.67 Q1315.81 1486.25 1310 1486.25 Q1304.19 1486.25 1301.11 1481.67 Q1298.06 1477.06 1298.06 1468.33 Q1298.06 1459.58 1301.11 1455 Q1304.19 1450.39 1310 1450.39 Z" fill="#000000" fill-rule="nonzero" fill-opacity="1" /><path clip-path="url(#clip090)" d="M1788.24 1481.64 L1795.88 1481.64 L1795.88 1455.28 L1787.57 1456.95 L1787.57 1452.69 L1795.83 1451.02 L1800.51 1451.02 L1800.51 1481.64 L1808.15 1481.64 L1808.15 1485.58 L1788.24 1485.58 L1788.24 1481.64 Z" fill="#000000" fill-rule="nonzero" fill-opacity="1" /><path clip-path="url(#clip090)" d="M1817.59 1479.7 L1822.48 1479.7 L1822.48 1485.58 L1817.59 1485.58 L1817.59 1479.7 Z" fill="#000000" fill-rule="nonzero" fill-opacity="1" /><path clip-path="url(#clip090)" d="M1832.71 1451.02 L1851.07 1451.02 L1851.07 1454.96 L1836.99 1454.96 L1836.99 1463.43 Q1838.01 1463.08 1839.03 1462.92 Q1840.05 1462.73 1841.07 1462.73 Q1846.85 1462.73 1850.23 1465.9 Q1853.61 1469.08 1853.61 1474.49 Q1853.61 1480.07 1850.14 1483.17 Q1846.67 1486.25 1840.35 1486.25 Q1838.17 1486.25 1835.9 1485.88 Q1833.66 1485.51 1831.25 1484.77 L1831.25 1480.07 Q1833.33 1481.2 1835.56 1481.76 Q1837.78 1482.32 1840.26 1482.32 Q1844.26 1482.32 1846.6 1480.21 Q1848.94 1478.1 1848.94 1474.49 Q1848.94 1470.88 1846.6 1468.77 Q1844.26 1466.67 1840.26 1466.67 Q1838.38 1466.67 1836.51 1467.08 Q1834.65 1467.5 1832.71 1468.38 L1832.71 1451.02 Z" fill="#000000" fill-rule="nonzero" fill-opacity="1" /><path clip-path="url(#clip090)" d="M2323.99 1481.64 L2340.31 1481.64 L2340.31 1485.58 L2318.37 1485.58 L2318.37 1481.64 Q2321.03 1478.89 2325.61 1474.26 Q2330.22 1469.61 2331.4 1468.27 Q2333.65 1465.74 2334.53 1464.01 Q2335.43 1462.25 2335.43 1460.56 Q2335.43 1457.8 2333.49 1456.07 Q2331.56 1454.33 2328.46 1454.33 Q2326.26 1454.33 2323.81 1455.09 Q2321.38 1455.86 2318.6 1457.41 L2318.6 1452.69 Q2321.43 1451.55 2323.88 1450.97 Q2326.33 1450.39 2328.37 1450.39 Q2333.74 1450.39 2336.93 1453.08 Q2340.13 1455.77 2340.13 1460.26 Q2340.13 1462.39 2339.32 1464.31 Q2338.53 1466.2 2336.42 1468.8 Q2335.85 1469.47 2332.74 1472.69 Q2329.64 1475.88 2323.99 1481.64 Z" fill="#000000" fill-rule="nonzero" fill-opacity="1" /><path clip-path="url(#clip090)" d="M2350.13 1479.7 L2355.01 1479.7 L2355.01 1485.58 L2350.13 1485.58 L2350.13 1479.7 Z" fill="#000000" fill-rule="nonzero" fill-opacity="1" /><path clip-path="url(#clip090)" d="M2375.2 1454.1 Q2371.59 1454.1 2369.76 1457.66 Q2367.95 1461.2 2367.95 1468.33 Q2367.95 1475.44 2369.76 1479.01 Q2371.59 1482.55 2375.2 1482.55 Q2378.83 1482.55 2380.64 1479.01 Q2382.47 1475.44 2382.47 1468.33 Q2382.47 1461.2 2380.64 1457.66 Q2378.83 1454.1 2375.2 1454.1 M2375.2 1450.39 Q2381.01 1450.39 2384.06 1455 Q2387.14 1459.58 2387.14 1468.33 Q2387.14 1477.06 2384.06 1481.67 Q2381.01 1486.25 2375.2 1486.25 Q2369.39 1486.25 2366.31 1481.67 Q2363.25 1477.06 2363.25 1468.33 Q2363.25 1459.58 2366.31 1455 Q2369.39 1450.39 2375.2 1450.39 Z" fill="#000000" fill-rule="nonzero" fill-opacity="1" /><path clip-path="url(#clip090)" d="M1287.49 1522.27 L1287.49 1532.4 L1299.55 1532.4 L1299.55 1536.95 L1287.49 1536.95 L1287.49 1556.3 Q1287.49 1560.66 1288.67 1561.9 Q1289.88 1563.14 1293.54 1563.14 L1299.55 1563.14 L1299.55 1568.04 L1293.54 1568.04 Q1286.76 1568.04 1284.18 1565.53 Q1281.6 1562.98 1281.6 1556.3 L1281.6 1536.95 L1277.3 1536.95 L1277.3 1532.4 L1281.6 1532.4 L1281.6 1522.27 L1287.49 1522.27 Z" fill="#000000" fill-rule="nonzero" fill-opacity="1" /><polyline clip-path="url(#clip090)" style="stroke:#000000; stroke-linecap:round; stroke-linejoin:round; stroke-width:4; stroke-opacity:1; fill:none" points="224.098,1423.18 224.098,47.2441 "/>
<polyline clip-path="url(#clip090)" style="stroke:#000000; stroke-linecap:round; stroke-linejoin:round; stroke-width:4; stroke-opacity:1; fill:none" points="224.098,1194.39 242.996,1194.39 "/>
<polyline clip-path="url(#clip090)" style="stroke:#000000; stroke-linecap:round; stroke-linejoin:round; stroke-width:4; stroke-opacity:1; fill:none" points="224.098,923.979 242.996,923.979 "/>
<polyline clip-path="url(#clip090)" style="stroke:#000000; stroke-linecap:round; stroke-linejoin:round; stroke-width:4; stroke-opacity:1; fill:none" points="224.098,653.566 242.996,653.566 "/>
<polyline clip-path="url(#clip090)" style="stroke:#000000; stroke-linecap:round; stroke-linejoin:round; stroke-width:4; stroke-opacity:1; fill:none" points="224.098,383.154 242.996,383.154 "/>
<polyline clip-path="url(#clip090)" style="stroke:#000000; stroke-linecap:round; stroke-linejoin:round; stroke-width:4; stroke-opacity:1; fill:none" points="224.098,112.741 242.996,112.741 "/>
<path clip-path="url(#clip090)" d="M50.9921 1194.84 L80.6679 1194.84 L80.6679 1198.78 L50.9921 1198.78 L50.9921 1194.84 Z" fill="#000000" fill-rule="nonzero" fill-opacity="1" /><path clip-path="url(#clip090)" d="M100.76 1180.19 Q97.1493 1180.19 95.3206 1183.76 Q93.515 1187.3 93.515 1194.43 Q93.515 1201.53 95.3206 1205.1 Q97.1493 1208.64 100.76 1208.64 Q104.395 1208.64 106.2 1205.1 Q108.029 1201.53 108.029 1194.43 Q108.029 1187.3 106.2 1183.76 Q104.395 1180.19 100.76 1180.19 M100.76 1176.49 Q106.571 1176.49 109.626 1181.09 Q112.705 1185.68 112.705 1194.43 Q112.705 1203.15 109.626 1207.76 Q106.571 1212.34 100.76 1212.34 Q94.9502 1212.34 91.8715 1207.76 Q88.816 1203.15 88.816 1194.43 Q88.816 1185.68 91.8715 1181.09 Q94.9502 1176.49 100.76 1176.49 Z" fill="#000000" fill-rule="nonzero" fill-opacity="1" /><path clip-path="url(#clip090)" d="M120.922 1205.79 L125.807 1205.79 L125.807 1211.67 L120.922 1211.67 L120.922 1205.79 Z" fill="#000000" fill-rule="nonzero" fill-opacity="1" /><path clip-path="url(#clip090)" d="M136.038 1177.11 L154.394 1177.11 L154.394 1181.05 L140.32 1181.05 L140.32 1189.52 Q141.339 1189.17 142.357 1189.01 Q143.376 1188.82 144.394 1188.82 Q150.181 1188.82 153.561 1192 Q156.941 1195.17 156.941 1200.58 Q156.941 1206.16 153.468 1209.26 Q149.996 1212.34 143.677 1212.34 Q141.501 1212.34 139.232 1211.97 Q136.987 1211.6 134.58 1210.86 L134.58 1206.16 Q136.663 1207.3 138.885 1207.85 Q141.107 1208.41 143.584 1208.41 Q147.589 1208.41 149.927 1206.3 Q152.265 1204.2 152.265 1200.58 Q152.265 1196.97 149.927 1194.87 Q147.589 1192.76 143.584 1192.76 Q141.709 1192.76 139.834 1193.18 Q137.982 1193.59 136.038 1194.47 L136.038 1177.11 Z" fill="#000000" fill-rule="nonzero" fill-opacity="1" /><path clip-path="url(#clip090)" d="M176.153 1180.19 Q172.542 1180.19 170.714 1183.76 Q168.908 1187.3 168.908 1194.43 Q168.908 1201.53 170.714 1205.1 Q172.542 1208.64 176.153 1208.64 Q179.788 1208.64 181.593 1205.1 Q183.422 1201.53 183.422 1194.43 Q183.422 1187.3 181.593 1183.76 Q179.788 1180.19 176.153 1180.19 M176.153 1176.49 Q181.964 1176.49 185.019 1181.09 Q188.098 1185.68 188.098 1194.43 Q188.098 1203.15 185.019 1207.76 Q181.964 1212.34 176.153 1212.34 Q170.343 1212.34 167.265 1207.76 Q164.209 1203.15 164.209 1194.43 Q164.209 1185.68 167.265 1181.09 Q170.343 1176.49 176.153 1176.49 Z" fill="#000000" fill-rule="nonzero" fill-opacity="1" /><path clip-path="url(#clip090)" d="M51.9875 924.431 L81.6633 924.431 L81.6633 928.366 L51.9875 928.366 L51.9875 924.431 Z" fill="#000000" fill-rule="nonzero" fill-opacity="1" /><path clip-path="url(#clip090)" d="M101.756 909.778 Q98.1447 909.778 96.316 913.343 Q94.5104 916.884 94.5104 924.014 Q94.5104 931.12 96.316 934.685 Q98.1447 938.227 101.756 938.227 Q105.39 938.227 107.196 934.685 Q109.024 931.12 109.024 924.014 Q109.024 916.884 107.196 913.343 Q105.39 909.778 101.756 909.778 M101.756 906.074 Q107.566 906.074 110.621 910.681 Q113.7 915.264 113.7 924.014 Q113.7 932.741 110.621 937.347 Q107.566 941.931 101.756 941.931 Q95.9456 941.931 92.8669 937.347 Q89.8114 932.741 89.8114 924.014 Q89.8114 915.264 92.8669 910.681 Q95.9456 906.074 101.756 906.074 Z" fill="#000000" fill-rule="nonzero" fill-opacity="1" /><path clip-path="url(#clip090)" d="M121.918 935.38 L126.802 935.38 L126.802 941.259 L121.918 941.259 L121.918 935.38 Z" fill="#000000" fill-rule="nonzero" fill-opacity="1" /><path clip-path="url(#clip090)" d="M141.015 937.324 L157.334 937.324 L157.334 941.259 L135.39 941.259 L135.39 937.324 Q138.052 934.57 142.635 929.94 Q147.242 925.287 148.422 923.945 Q150.668 921.421 151.547 919.685 Q152.45 917.926 152.45 916.236 Q152.45 913.482 150.505 911.746 Q148.584 910.009 145.482 910.009 Q143.283 910.009 140.83 910.773 Q138.399 911.537 135.621 913.088 L135.621 908.366 Q138.445 907.232 140.899 906.653 Q143.353 906.074 145.39 906.074 Q150.76 906.074 153.955 908.759 Q157.149 911.445 157.149 915.935 Q157.149 918.065 156.339 919.986 Q155.552 921.884 153.445 924.477 Q152.867 925.148 149.765 928.366 Q146.663 931.56 141.015 937.324 Z" fill="#000000" fill-rule="nonzero" fill-opacity="1" /><path clip-path="url(#clip090)" d="M167.195 906.699 L185.552 906.699 L185.552 910.634 L171.478 910.634 L171.478 919.107 Q172.496 918.759 173.515 918.597 Q174.533 918.412 175.552 918.412 Q181.339 918.412 184.718 921.583 Q188.098 924.755 188.098 930.171 Q188.098 935.75 184.626 938.852 Q181.153 941.931 174.834 941.931 Q172.658 941.931 170.39 941.56 Q168.144 941.19 165.737 940.449 L165.737 935.75 Q167.82 936.884 170.042 937.44 Q172.265 937.995 174.741 937.995 Q178.746 937.995 181.084 935.889 Q183.422 933.782 183.422 930.171 Q183.422 926.56 181.084 924.454 Q178.746 922.347 174.741 922.347 Q172.866 922.347 170.991 922.764 Q169.14 923.181 167.195 924.06 L167.195 906.699 Z" fill="#000000" fill-rule="nonzero" fill-opacity="1" /><path clip-path="url(#clip090)" d="M100.76 639.365 Q97.1493 639.365 95.3206 642.93 Q93.515 646.472 93.515 653.601 Q93.515 660.708 95.3206 664.272 Q97.1493 667.814 100.76 667.814 Q104.395 667.814 106.2 664.272 Q108.029 660.708 108.029 653.601 Q108.029 646.472 106.2 642.93 Q104.395 639.365 100.76 639.365 M100.76 635.661 Q106.571 635.661 109.626 640.268 Q112.705 644.851 112.705 653.601 Q112.705 662.328 109.626 666.934 Q106.571 671.518 100.76 671.518 Q94.9502 671.518 91.8715 666.934 Q88.816 662.328 88.816 653.601 Q88.816 644.851 91.8715 640.268 Q94.9502 635.661 100.76 635.661 Z" fill="#000000" fill-rule="nonzero" fill-opacity="1" /><path clip-path="url(#clip090)" d="M120.922 664.967 L125.807 664.967 L125.807 670.846 L120.922 670.846 L120.922 664.967 Z" fill="#000000" fill-rule="nonzero" fill-opacity="1" /><path clip-path="url(#clip090)" d="M145.992 639.365 Q142.381 639.365 140.552 642.93 Q138.746 646.472 138.746 653.601 Q138.746 660.708 140.552 664.272 Q142.381 667.814 145.992 667.814 Q149.626 667.814 151.431 664.272 Q153.26 660.708 153.26 653.601 Q153.26 646.472 151.431 642.93 Q149.626 639.365 145.992 639.365 M145.992 635.661 Q151.802 635.661 154.857 640.268 Q157.936 644.851 157.936 653.601 Q157.936 662.328 154.857 666.934 Q151.802 671.518 145.992 671.518 Q140.181 671.518 137.103 666.934 Q134.047 662.328 134.047 653.601 Q134.047 644.851 137.103 640.268 Q140.181 635.661 145.992 635.661 Z" fill="#000000" fill-rule="nonzero" fill-opacity="1" /><path clip-path="url(#clip090)" d="M176.153 639.365 Q172.542 639.365 170.714 642.93 Q168.908 646.472 168.908 653.601 Q168.908 660.708 170.714 664.272 Q172.542 667.814 176.153 667.814 Q179.788 667.814 181.593 664.272 Q183.422 660.708 183.422 653.601 Q183.422 646.472 181.593 642.93 Q179.788 639.365 176.153 639.365 M176.153 635.661 Q181.964 635.661 185.019 640.268 Q188.098 644.851 188.098 653.601 Q188.098 662.328 185.019 666.934 Q181.964 671.518 176.153 671.518 Q170.343 671.518 167.265 666.934 Q164.209 662.328 164.209 653.601 Q164.209 644.851 167.265 640.268 Q170.343 635.661 176.153 635.661 Z" fill="#000000" fill-rule="nonzero" fill-opacity="1" /><path clip-path="url(#clip090)" d="M101.756 368.952 Q98.1447 368.952 96.316 372.517 Q94.5104 376.059 94.5104 383.188 Q94.5104 390.295 96.316 393.86 Q98.1447 397.401 101.756 397.401 Q105.39 397.401 107.196 393.86 Q109.024 390.295 109.024 383.188 Q109.024 376.059 107.196 372.517 Q105.39 368.952 101.756 368.952 M101.756 365.249 Q107.566 365.249 110.621 369.855 Q113.7 374.438 113.7 383.188 Q113.7 391.915 110.621 396.522 Q107.566 401.105 101.756 401.105 Q95.9456 401.105 92.8669 396.522 Q89.8114 391.915 89.8114 383.188 Q89.8114 374.438 92.8669 369.855 Q95.9456 365.249 101.756 365.249 Z" fill="#000000" fill-rule="nonzero" fill-opacity="1" /><path clip-path="url(#clip090)" d="M121.918 394.554 L126.802 394.554 L126.802 400.434 L121.918 400.434 L121.918 394.554 Z" fill="#000000" fill-rule="nonzero" fill-opacity="1" /><path clip-path="url(#clip090)" d="M141.015 396.499 L157.334 396.499 L157.334 400.434 L135.39 400.434 L135.39 396.499 Q138.052 393.744 142.635 389.114 Q147.242 384.462 148.422 383.119 Q150.668 380.596 151.547 378.86 Q152.45 377.1 152.45 375.411 Q152.45 372.656 150.505 370.92 Q148.584 369.184 145.482 369.184 Q143.283 369.184 140.83 369.948 Q138.399 370.712 135.621 372.263 L135.621 367.54 Q138.445 366.406 140.899 365.827 Q143.353 365.249 145.39 365.249 Q150.76 365.249 153.955 367.934 Q157.149 370.619 157.149 375.11 Q157.149 377.239 156.339 379.161 Q155.552 381.059 153.445 383.651 Q152.867 384.323 149.765 387.54 Q146.663 390.735 141.015 396.499 Z" fill="#000000" fill-rule="nonzero" fill-opacity="1" /><path clip-path="url(#clip090)" d="M167.195 365.874 L185.552 365.874 L185.552 369.809 L171.478 369.809 L171.478 378.281 Q172.496 377.934 173.515 377.772 Q174.533 377.587 175.552 377.587 Q181.339 377.587 184.718 380.758 Q188.098 383.929 188.098 389.346 Q188.098 394.924 184.626 398.026 Q181.153 401.105 174.834 401.105 Q172.658 401.105 170.39 400.735 Q168.144 400.364 165.737 399.623 L165.737 394.924 Q167.82 396.059 170.042 396.614 Q172.265 397.17 174.741 397.17 Q178.746 397.17 181.084 395.063 Q183.422 392.957 183.422 389.346 Q183.422 385.735 181.084 383.628 Q178.746 381.522 174.741 381.522 Q172.866 381.522 170.991 381.938 Q169.14 382.355 167.195 383.235 L167.195 365.874 Z" fill="#000000" fill-rule="nonzero" fill-opacity="1" /><path clip-path="url(#clip090)" d="M100.76 98.5396 Q97.1493 98.5396 95.3206 102.104 Q93.515 105.646 93.515 112.776 Q93.515 119.882 95.3206 123.447 Q97.1493 126.988 100.76 126.988 Q104.395 126.988 106.2 123.447 Q108.029 119.882 108.029 112.776 Q108.029 105.646 106.2 102.104 Q104.395 98.5396 100.76 98.5396 M100.76 94.8359 Q106.571 94.8359 109.626 99.4423 Q112.705 104.026 112.705 112.776 Q112.705 121.502 109.626 126.109 Q106.571 130.692 100.76 130.692 Q94.9502 130.692 91.8715 126.109 Q88.816 121.502 88.816 112.776 Q88.816 104.026 91.8715 99.4423 Q94.9502 94.8359 100.76 94.8359 Z" fill="#000000" fill-rule="nonzero" fill-opacity="1" /><path clip-path="url(#clip090)" d="M120.922 124.141 L125.807 124.141 L125.807 130.021 L120.922 130.021 L120.922 124.141 Z" fill="#000000" fill-rule="nonzero" fill-opacity="1" /><path clip-path="url(#clip090)" d="M136.038 95.4609 L154.394 95.4609 L154.394 99.396 L140.32 99.396 L140.32 107.868 Q141.339 107.521 142.357 107.359 Q143.376 107.174 144.394 107.174 Q150.181 107.174 153.561 110.345 Q156.941 113.516 156.941 118.933 Q156.941 124.512 153.468 127.613 Q149.996 130.692 143.677 130.692 Q141.501 130.692 139.232 130.322 Q136.987 129.951 134.58 129.211 L134.58 124.512 Q136.663 125.646 138.885 126.201 Q141.107 126.757 143.584 126.757 Q147.589 126.757 149.927 124.651 Q152.265 122.544 152.265 118.933 Q152.265 115.322 149.927 113.215 Q147.589 111.109 143.584 111.109 Q141.709 111.109 139.834 111.526 Q137.982 111.942 136.038 112.822 L136.038 95.4609 Z" fill="#000000" fill-rule="nonzero" fill-opacity="1" /><path clip-path="url(#clip090)" d="M176.153 98.5396 Q172.542 98.5396 170.714 102.104 Q168.908 105.646 168.908 112.776 Q168.908 119.882 170.714 123.447 Q172.542 126.988 176.153 126.988 Q179.788 126.988 181.593 123.447 Q183.422 119.882 183.422 112.776 Q183.422 105.646 181.593 102.104 Q179.788 98.5396 176.153 98.5396 M176.153 94.8359 Q181.964 94.8359 185.019 99.4423 Q188.098 104.026 188.098 112.776 Q188.098 121.502 185.019 126.109 Q181.964 130.692 176.153 130.692 Q170.343 130.692 167.265 126.109 Q164.209 121.502 164.209 112.776 Q164.209 104.026 167.265 99.4423 Q170.343 94.8359 176.153 94.8359 Z" fill="#000000" fill-rule="nonzero" fill-opacity="1" /><polyline clip-path="url(#clip092)" style="stroke:#009af9; stroke-linecap:round; stroke-linejoin:round; stroke-width:4; stroke-opacity:1; fill:none" points="224.098,86.1857 226.229,93.5379 228.359,100.817 230.49,108.023 232.621,115.158 234.752,122.222 236.883,129.215 239.013,136.139 241.144,142.994 243.275,149.78 245.406,156.499 247.537,163.151 249.667,169.736 251.798,176.256 253.929,182.712 256.06,189.102 258.19,195.429 260.321,201.694 262.452,207.895 264.583,214.035 266.714,220.114 268.844,226.132 270.975,232.091 273.106,237.99 275.237,243.83 277.368,249.612 279.498,255.336 281.629,261.004 283.76,266.615 285.891,272.17 288.022,277.67 290.152,283.115 292.283,288.506 294.414,293.843 296.545,299.127 298.675,304.358 300.806,309.538 302.937,314.665 305.068,319.742 307.199,324.768 309.329,329.744 311.46,334.67 313.591,339.547 315.722,344.376 317.853,349.157 319.983,353.89 322.114,358.576 324.245,363.215 326.376,367.808 328.507,372.355 330.637,376.857 332.768,381.314 334.899,385.727 337.03,390.095 339.16,394.42 341.291,398.703 343.422,402.942 345.553,407.139 347.684,411.295 349.814,415.409 351.945,419.482 354.076,423.515 356.207,427.507 358.338,431.46 360.468,435.373 362.599,439.248 364.73,443.083 366.861,446.881 368.992,450.641 371.122,454.363 373.253,458.048 375.384,461.697 377.515,465.309 379.645,468.885 381.776,472.426 383.907,475.931 386.038,479.402 388.169,482.837 390.299,486.239 392.43,489.606 394.561,492.941 396.692,496.241 398.823,499.509 400.953,502.745 403.084,505.948 405.215,509.119 407.346,512.259 409.477,515.367 411.607,518.445 413.738,521.492 415.869,524.508 418,527.495 420.13,530.451 422.261,533.378 424.392,536.277 426.523,539.146 428.654,541.986 430.784,544.799 432.915,547.583 435.046,550.34 437.177,553.069 439.308,555.771 441.438,558.446 443.569,561.095 445.7,563.717 447.831,566.313 449.961,568.883 452.092,571.428 454.223,573.947 456.354,576.441 458.485,578.911 460.615,581.356 462.746,583.776 464.877,586.172 467.008,588.545 469.139,590.893 471.269,593.219 473.4,595.521 475.531,597.8 477.662,600.057 479.793,602.291 481.923,604.503 484.054,606.692 486.185,608.86 488.316,611.007 490.446,613.131 492.577,615.235 494.708,617.318 496.839,619.38 498.97,621.421 501.1,623.443 503.231,625.444 505.362,627.425 507.493,629.386 509.624,631.328 511.754,633.25 513.885,635.154 516.016,637.038 518.147,638.904 520.278,640.751 522.408,642.579 524.539,644.39 526.67,646.182 528.801,647.957 530.931,649.713 533.062,651.453 535.193,653.175 537.324,654.88 539.455,656.568 541.585,658.239 543.716,659.894 545.847,661.532 547.978,663.154 550.109,664.759 552.239,666.349 554.37,667.923 556.501,669.481 558.632,671.024 560.763,672.551 562.893,674.063 565.024,675.56 567.155,677.042 569.286,678.51 571.416,679.962 573.547,681.401 575.678,682.825 577.809,684.234 579.94,685.63 582.07,687.012 584.201,688.38 586.332,689.734 588.463,691.075 590.594,692.402 592.724,693.716 594.855,695.017 596.986,696.306 599.117,697.581 601.247,698.843 603.378,700.094 605.509,701.331 607.64,702.556 609.771,703.769 611.901,704.97 614.032,706.159 616.163,707.336 618.294,708.502 620.425,709.656 622.555,710.798 624.686,711.929 626.817,713.049 628.948,714.157 631.079,715.255 633.209,716.341 635.34,717.417 637.471,718.482 639.602,719.537 641.732,720.581 643.863,721.614 645.994,722.638 648.125,723.651 650.256,724.654 652.386,725.647 654.517,726.63 656.648,727.604 658.779,728.567 660.91,729.522 663.04,730.466 665.171,731.402 667.302,732.328 669.433,733.244 671.564,734.152 673.694,735.05 675.825,735.94 677.956,736.821 680.087,737.693 682.217,738.556 684.348,739.41 686.479,740.257 688.61,741.094 690.741,741.924 692.871,742.745 695.002,743.557 697.133,744.362 699.264,745.159 701.395,745.948 703.525,746.729 705.656,747.502 707.787,748.267 709.918,749.025 712.049,749.775 714.179,750.518 716.31,751.253 718.441,751.981 720.572,752.702 722.702,753.415 724.833,754.122 726.964,754.821 729.095,755.514 731.226,756.199 733.356,756.878 735.487,757.55 737.618,758.215 739.749,758.874 741.88,759.526 744.01,760.172 746.141,760.811 748.272,761.444 750.403,762.07 752.534,762.691 754.664,763.305 756.795,763.913 758.926,764.515 761.057,765.111 763.187,765.701 765.318,766.285 767.449,766.864 769.58,767.436 771.711,768.003 773.841,768.565 775.972,769.121 778.103,769.671 780.234,770.216 782.365,770.755 784.495,771.289 786.626,771.818 788.757,772.341 790.888,772.86 793.018,773.373 795.149,773.881 797.28,774.384 799.411,774.881 801.542,775.374 803.672,775.862 805.803,776.345 807.934,776.824 810.065,777.297 812.196,777.766 814.326,778.23 816.457,778.69 818.588,779.145 820.719,779.595 822.85,780.041 824.98,780.482 827.111,780.919 829.242,781.352 831.373,781.78 833.503,782.204 835.634,782.624 837.765,783.039 839.896,783.451 842.027,783.858 844.157,784.261 846.288,784.661 848.419,785.056 850.55,785.447 852.681,785.834 854.811,786.218 856.942,786.598 859.073,786.974 861.204,787.346 863.335,787.714 865.465,788.079 867.596,788.44 869.727,788.798 871.858,789.152 873.988,789.502 876.119,789.849 878.25,790.193 880.381,790.533 882.512,790.87 884.642,791.203 886.773,791.533 888.904,791.86 891.035,792.183 893.166,792.504 895.296,792.821 897.427,793.135 899.558,793.446 901.689,793.754 903.82,794.059 905.95,794.36 908.081,794.659 910.212,794.955 912.343,795.248 914.473,795.538 916.604,795.825 918.735,796.109 920.866,796.391 922.997,796.669 925.127,796.945 927.258,797.219 929.389,797.489 931.52,797.757 933.651,798.022 935.781,798.284 937.912,798.544 940.043,798.801 942.174,799.056 944.304,799.308 946.435,799.558 948.566,799.805 950.697,800.05 952.828,800.292 954.958,800.532 957.089,800.769 959.22,801.004 961.351,801.237 963.482,801.467 965.612,801.695 967.743,801.921 969.874,802.144 972.005,802.366 974.136,802.585 976.266,802.802 978.397,803.016 980.528,803.229 982.659,803.439 984.789,803.647 986.92,803.854 989.051,804.058 991.182,804.26 993.313,804.46 995.443,804.658 997.574,804.854 999.705,805.048 1001.84,805.24 1003.97,805.431 1006.1,805.619 1008.23,805.806 1010.36,805.99 1012.49,806.173 1014.62,806.354 1016.75,806.533 1018.88,806.71 1021.01,806.886 1023.14,807.06 1025.27,807.232 1027.41,807.402 1029.54,807.571 1031.67,807.738 1033.8,807.904 1035.93,808.067 1038.06,808.229 1040.19,808.39 1042.32,808.549 1044.45,808.706 1046.58,808.862 1048.71,809.016 1050.84,809.169 1052.97,809.32 1055.11,809.469 1057.24,809.618 1059.37,809.764 1061.5,809.91 1063.63,810.054 1065.76,810.196 1067.89,810.337 1070.02,810.477 1072.15,810.615 1074.28,810.752 1076.41,810.887 1078.54,811.022 1080.67,811.155 1082.81,811.286 1084.94,811.416 1087.07,811.545 1089.2,811.673 1091.33,811.8 1093.46,811.925 1095.59,812.049 1097.72,812.172 1099.85,812.293 1101.98,812.413 1104.11,812.533 1106.24,812.65 1108.38,812.767 1110.51,812.883 1112.64,812.997 1114.77,813.111 1116.9,813.223 1119.03,813.334 1121.16,813.444 1123.29,813.552 1125.42,813.66 1127.55,813.767 1129.68,813.872 1131.81,813.977 1133.94,814.08 1136.08,814.183 1138.21,814.284 1140.34,814.385 1142.47,814.484 1144.6,814.582 1146.73,814.68 1148.86,814.776 1150.99,814.872 1153.12,814.966 1155.25,815.06 1157.38,815.152 1159.51,815.244 1161.64,815.335 1163.78,815.424 1165.91,815.513 1168.04,815.601 1170.17,815.688 1172.3,815.775 1174.43,815.86 1176.56,815.945 1178.69,816.028 1180.82,816.111 1182.95,816.193 1185.08,816.274 1187.21,816.355 1189.35,816.434 1191.48,816.513 1193.61,816.591 1195.74,816.668 1197.87,816.745 1200,816.82 1202.13,816.895 1204.26,816.969 1206.39,817.043 1208.52,817.115 1210.65,817.187 1212.78,817.259 1214.91,817.329 1217.05,817.399 1219.18,817.468 1221.31,817.536 1223.44,817.604 1225.57,817.671 1227.7,817.738 1229.83,817.803 1231.96,817.869 1234.09,817.933 1236.22,817.997 1238.35,818.06 1240.48,818.123 1242.61,818.185 1244.75,818.246 1246.88,818.307 1249.01,818.367 1251.14,818.427 1253.27,818.486 1255.4,818.544 1257.53,818.602 1259.66,818.659 1261.79,818.716 1263.92,818.772 1266.05,818.828 1268.18,818.883 1270.32,818.938 1272.45,818.992 1274.58,819.045 1276.71,819.098 1278.84,819.151 1280.97,819.203 1283.1,819.254 1285.23,819.305 1287.36,819.355 1289.49,819.405 1291.62,819.455 1293.75,819.504 1295.88,819.552 1298.02,819.6 1300.15,819.648 1302.28,819.695 1304.41,819.741 1306.54,819.787 1308.67,819.833 1310.8,819.878 1312.93,819.923 1315.06,819.967 1317.19,820.011 1319.32,820.054 1321.45,820.097 1323.58,820.14 1325.72,820.182 1327.85,820.224 1329.98,820.265 1332.11,820.306 1334.24,820.346 1336.37,820.386 1338.5,820.426 1340.63,820.465 1342.76,820.504 1344.89,820.542 1347.02,820.58 1349.15,820.618 1351.29,820.655 1353.42,820.692 1355.55,820.729 1357.68,820.765 1359.81,820.8 1361.94,820.836 1364.07,820.871 1366.2,820.906 1368.33,820.94 1370.46,820.974 1372.59,821.008 1374.72,821.041 1376.85,821.074 1378.99,821.106 1381.12,821.139 1383.25,821.171 1385.38,821.202 1387.51,821.234 1389.64,821.265 1391.77,821.295 1393.9,821.326 1396.03,821.356 1398.16,821.386 1400.29,821.415 1402.42,821.444 1404.55,821.473 1406.69,821.502 1408.82,821.53 1410.95,821.558 1413.08,821.586 1415.21,821.613 1417.34,821.64 1419.47,821.667 1421.6,821.694 1423.73,821.72 1425.86,821.746 1427.99,821.772 1430.12,821.798 1432.26,821.823 1434.39,821.848 1436.52,821.873 1438.65,821.898 1440.78,821.922 1442.91,821.946 1445.04,821.97 1447.17,821.994 1449.3,822.017 1451.43,822.04 1453.56,822.063 1455.69,822.086 1457.82,822.108 1459.96,822.131 1462.09,822.153 1464.22,822.175 1466.35,822.196 1468.48,822.218 1470.61,822.239 1472.74,822.26 1474.87,822.281 1477,822.302 1479.13,822.322 1481.26,822.342 1483.39,822.362 1485.52,822.382 1487.66,822.402 1489.79,822.421 1491.92,822.441 1494.05,822.46 1496.18,822.479 1498.31,822.498 1500.44,822.516 1502.57,822.535 1504.7,822.553 1506.83,822.571 1508.96,822.589 1511.09,822.606 1513.23,822.624 1515.36,822.641 1517.49,822.658 1519.62,822.675 1521.75,822.692 1523.88,822.709 1526.01,822.726 1528.14,822.742 1530.27,822.758 1532.4,822.774 1534.53,822.79 1536.66,822.806 1538.79,822.821 1540.93,822.837 1543.06,822.852 1545.19,822.867 1547.32,822.882 1549.45,822.897 1551.58,822.911 1553.71,822.926 1555.84,822.94 1557.97,822.954 1560.1,822.968 1562.23,822.982 1564.36,822.996 1566.49,823.01 1568.63,823.023 1570.76,823.036 1572.89,823.05 1575.02,823.063 1577.15,823.076 1579.28,823.088 1581.41,823.101 1583.54,823.114 1585.67,823.126 1587.8,823.138 1589.93,823.15 1592.06,823.162 1594.2,823.174 1596.33,823.186 1598.46,823.198 1600.59,823.209 1602.72,823.221 1604.85,823.232 1606.98,823.243 1609.11,823.254 1611.24,823.265 1613.37,823.276 1615.5,823.287 1617.63,823.297 1619.76,823.308 1621.9,823.318 1624.03,823.328 1626.16,823.339 1628.29,823.349 1630.42,823.359 1632.55,823.369 1634.68,823.378 1636.81,823.388 1638.94,823.398 1641.07,823.407 1643.2,823.416 1645.33,823.426 1647.46,823.435 1649.6,823.444 1651.73,823.453 1653.86,823.462 1655.99,823.471 1658.12,823.479 1660.25,823.488 1662.38,823.496 1664.51,823.505 1666.64,823.513 1668.77,823.521 1670.9,823.53 1673.03,823.538 1675.17,823.546 1677.3,823.554 1679.43,823.562 1681.56,823.569 1683.69,823.577 1685.82,823.585 1687.95,823.592 1690.08,823.6 1692.21,823.607 1694.34,823.614 1696.47,823.622 1698.6,823.629 1700.73,823.636 1702.87,823.643 1705,823.65 1707.13,823.657 1709.26,823.664 1711.39,823.671 1713.52,823.677 1715.65,823.684 1717.78,823.691 1719.91,823.697 1722.04,823.704 1724.17,823.71 1726.3,823.717 1728.43,823.723 1730.57,823.729 1732.7,823.735 1734.83,823.742 1736.96,823.748 1739.09,823.754 1741.22,823.76 1743.35,823.766 1745.48,823.772 1747.61,823.777 1749.74,823.783 1751.87,823.789 1754,823.795 1756.14,823.8 1758.27,823.806 1760.4,823.811 1762.53,823.817 1764.66,823.822 1766.79,823.828 1768.92,823.833 1771.05,823.838 1773.18,823.843 1775.31,823.849 1777.44,823.854 1779.57,823.859 1781.7,823.864 1783.84,823.869 1785.97,823.874 1788.1,823.879 1790.23,823.883 1792.36,823.888 1794.49,823.893 1796.62,823.898 1798.75,823.902 1800.88,823.907 1803.01,823.911 1805.14,823.916 1807.27,823.92 1809.4,823.925 1811.54,823.929 1813.67,823.933 1815.8,823.938 1817.93,823.942 1820.06,823.946 1822.19,823.95 1824.32,823.954 1826.45,823.958 1828.58,823.962 1830.71,823.966 1832.84,823.97 1834.97,823.974 1837.11,823.978 1839.24,823.982 1841.37,823.986 1843.5,823.989 1845.63,823.993 1847.76,823.997 1849.89,824 1852.02,824.004 1854.15,824.007 1856.28,824.011 1858.41,824.014 1860.54,824.018 1862.67,824.021 1864.81,824.025 1866.94,824.028 1869.07,824.031 1871.2,824.034 1873.33,824.038 1875.46,824.041 1877.59,824.044 1879.72,824.047 1881.85,824.05 1883.98,824.053 1886.11,824.056 1888.24,824.059 1890.37,824.062 1892.51,824.065 1894.64,824.068 1896.77,824.071 1898.9,824.074 1901.03,824.076 1903.16,824.079 1905.29,824.082 1907.42,824.085 1909.55,824.087 1911.68,824.09 1913.81,824.092 1915.94,824.095 1918.07,824.098 1920.21,824.1 1922.34,824.103 1924.47,824.105 1926.6,824.107 1928.73,824.11 1930.86,824.112 1932.99,824.115 1935.12,824.117 1937.25,824.119 1939.38,824.122 1941.51,824.124 1943.64,824.126 1945.78,824.128 1947.91,824.13 1950.04,824.133 1952.17,824.135 1954.3,824.137 1956.43,824.139 1958.56,824.141 1960.69,824.143 1962.82,824.145 1964.95,824.147 1967.08,824.149 1969.21,824.151 1971.34,824.153 1973.48,824.155 1975.61,824.157 1977.74,824.159 1979.87,824.161 1982,824.162 1984.13,824.164 1986.26,824.166 1988.39,824.168 1990.52,824.17 1992.65,824.171 1994.78,824.173 1996.91,824.175 1999.04,824.177 2001.18,824.178 2003.31,824.18 2005.44,824.182 2007.57,824.183 2009.7,824.185 2011.83,824.187 2013.96,824.188 2016.09,824.19 2018.22,824.191 2020.35,824.193 2022.48,824.195 2024.61,824.196 2026.75,824.198 2028.88,824.199 2031.01,824.201 2033.14,824.202 2035.27,824.204 2037.4,824.205 2039.53,824.207 2041.66,824.208 2043.79,824.21 2045.92,824.211 2048.05,824.213 2050.18,824.214 2052.31,824.215 2054.45,824.217 2056.58,824.218 2058.71,824.22 2060.84,824.221 2062.97,824.222 2065.1,824.224 2067.23,824.225 2069.36,824.226 2071.49,824.228 2073.62,824.229 2075.75,824.23 2077.88,824.231 2080.01,824.233 2082.15,824.234 2084.28,824.235 2086.41,824.236 2088.54,824.238 2090.67,824.239 2092.8,824.24 2094.93,824.241 2097.06,824.242 2099.19,824.243 2101.32,824.245 2103.45,824.246 2105.58,824.247 2107.72,824.248 2109.85,824.249 2111.98,824.25 2114.11,824.251 2116.24,824.252 2118.37,824.253 2120.5,824.254 2122.63,824.255 2124.76,824.256 2126.89,824.257 2129.02,824.258 2131.15,824.259 2133.28,824.26 2135.42,824.261 2137.55,824.262 2139.68,824.263 2141.81,824.264 2143.94,824.265 2146.07,824.266 2148.2,824.267 2150.33,824.268 2152.46,824.269 2154.59,824.269 2156.72,824.27 2158.85,824.271 2160.98,824.272 2163.12,824.273 2165.25,824.274 2167.38,824.274 2169.51,824.275 2171.64,824.276 2173.77,824.277 2175.9,824.278 2178.03,824.278 2180.16,824.279 2182.29,824.28 2184.42,824.281 2186.55,824.281 2188.69,824.282 2190.82,824.283 2192.95,824.284 2195.08,824.284 2197.21,824.285 2199.34,824.286 2201.47,824.286 2203.6,824.287 2205.73,824.288 2207.86,824.288 2209.99,824.289 2212.12,824.29 2214.25,824.29 2216.39,824.291 2218.52,824.292 2220.65,824.292 2222.78,824.293 2224.91,824.293 2227.04,824.294 2229.17,824.295 2231.3,824.295 2233.43,824.296 2235.56,824.296 2237.69,824.297 2239.82,824.298 2241.95,824.298 2244.09,824.299 2246.22,824.299 2248.35,824.3 2250.48,824.3 2252.61,824.301 2254.74,824.301 2256.87,824.302 2259,824.302 2261.13,824.303 2263.26,824.303 2265.39,824.304 2267.52,824.304 2269.66,824.305 2271.79,824.305 2273.92,824.306 2276.05,824.306 2278.18,824.307 2280.31,824.307 2282.44,824.308 2284.57,824.308 2286.7,824.308 2288.83,824.309 2290.96,824.309 2293.09,824.31 2295.22,824.31 2297.36,824.311 2299.49,824.311 2301.62,824.311 2303.75,824.312 2305.88,824.312 2308.01,824.313 2310.14,824.313 2312.27,824.313 2314.4,824.314 2316.53,824.314 2318.66,824.315 2320.79,824.315 2322.92,824.315 2325.06,824.316 2327.19,824.316 2329.32,824.316 2331.45,824.317 2333.58,824.317 2335.71,824.318 2337.84,824.318 2339.97,824.318 2342.1,824.319 2344.23,824.319 2346.36,824.319 2348.49,824.32 2350.63,824.32 2352.76,824.32 "/>
<polyline clip-path="url(#clip092)" style="stroke:#e26f46; stroke-linecap:round; stroke-linejoin:round; stroke-width:4; stroke-opacity:1; fill:none" points="224.098,1384.24 226.229,1379.76 228.359,1375.31 230.49,1370.9 232.621,1366.54 234.752,1362.2 236.883,1357.91 239.013,1353.65 241.144,1349.43 243.275,1345.24 245.406,1341.09 247.537,1336.97 249.667,1332.89 251.798,1328.84 253.929,1324.83 256.06,1320.85 258.19,1316.9 260.321,1312.99 262.452,1309.11 264.583,1305.27 266.714,1301.45 268.844,1297.67 270.975,1293.92 273.106,1290.2 275.237,1286.52 277.368,1282.86 279.498,1279.23 281.629,1275.64 283.76,1272.08 285.891,1268.54 288.022,1265.04 290.152,1261.56 292.283,1258.11 294.414,1254.7 296.545,1251.31 298.675,1247.95 300.806,1244.61 302.937,1241.31 305.068,1238.03 307.199,1234.78 309.329,1231.56 311.46,1228.37 313.591,1225.2 315.722,1222.05 317.853,1218.94 319.983,1215.85 322.114,1212.78 324.245,1209.74 326.376,1206.73 328.507,1203.74 330.637,1200.78 332.768,1197.84 334.899,1194.93 337.03,1192.03 339.16,1189.17 341.291,1186.33 343.422,1183.51 345.553,1180.71 347.684,1177.94 349.814,1175.19 351.945,1172.46 354.076,1169.76 356.207,1167.08 358.338,1164.42 360.468,1161.78 362.599,1159.16 364.73,1156.57 366.861,1154 368.992,1151.44 371.122,1148.91 373.253,1146.4 375.384,1143.91 377.515,1141.45 379.645,1139 381.776,1136.57 383.907,1134.16 386.038,1131.77 388.169,1129.4 390.299,1127.05 392.43,1124.72 394.561,1122.41 396.692,1120.12 398.823,1117.85 400.953,1115.59 403.084,1113.36 405.215,1111.14 407.346,1108.94 409.477,1106.76 411.607,1104.59 413.738,1102.45 415.869,1100.32 418,1098.21 420.13,1096.11 422.261,1094.04 424.392,1091.98 426.523,1089.93 428.654,1087.9 430.784,1085.89 432.915,1083.9 435.046,1081.92 437.177,1079.96 439.308,1078.02 441.438,1076.09 443.569,1074.17 445.7,1072.27 447.831,1070.39 449.961,1068.52 452.092,1066.67 454.223,1064.83 456.354,1063.01 458.485,1061.2 460.615,1059.4 462.746,1057.62 464.877,1055.86 467.008,1054.11 469.139,1052.37 471.269,1050.65 473.4,1048.94 475.531,1047.24 477.662,1045.56 479.793,1043.89 481.923,1042.24 484.054,1040.6 486.185,1038.97 488.316,1037.36 490.446,1035.75 492.577,1034.16 494.708,1032.59 496.839,1031.02 498.97,1029.47 501.1,1027.93 503.231,1026.41 505.362,1024.89 507.493,1023.39 509.624,1021.9 511.754,1020.42 513.885,1018.96 516.016,1017.5 518.147,1016.06 520.278,1014.63 522.408,1013.21 524.539,1011.8 526.67,1010.4 528.801,1009.01 530.931,1007.64 533.062,1006.27 535.193,1004.92 537.324,1003.57 539.455,1002.24 541.585,1000.92 543.716,999.608 545.847,998.307 547.978,997.016 550.109,995.735 552.239,994.465 554.37,993.204 556.501,991.954 558.632,990.713 560.763,989.482 562.893,988.261 565.024,987.049 567.155,985.847 569.286,984.655 571.416,983.472 573.547,982.298 575.678,981.133 577.809,979.978 579.94,978.831 582.07,977.694 584.201,976.566 586.332,975.446 588.463,974.335 590.594,973.233 592.724,972.14 594.855,971.055 596.986,969.979 599.117,968.911 601.247,967.851 603.378,966.8 605.509,965.756 607.64,964.721 609.771,963.695 611.901,962.676 614.032,961.665 616.163,960.662 618.294,959.666 620.425,958.679 622.555,957.699 624.686,956.727 626.817,955.762 628.948,954.805 631.079,953.855 633.209,952.912 635.34,951.977 637.471,951.049 639.602,950.129 641.732,949.215 643.863,948.309 645.994,947.409 648.125,946.517 650.256,945.631 652.386,944.752 654.517,943.88 656.648,943.015 658.779,942.156 660.91,941.304 663.04,940.458 665.171,939.619 667.302,938.787 669.433,937.961 671.564,937.141 673.694,936.327 675.825,935.52 677.956,934.719 680.087,933.924 682.217,933.135 684.348,932.353 686.479,931.576 688.61,930.805 690.741,930.04 692.871,929.281 695.002,928.528 697.133,927.781 699.264,927.039 701.395,926.303 703.525,925.572 705.656,924.847 707.787,924.128 709.918,923.414 712.049,922.706 714.179,922.003 716.31,921.305 718.441,920.613 720.572,919.925 722.702,919.244 724.833,918.567 726.964,917.895 729.095,917.229 731.226,916.567 733.356,915.911 735.487,915.259 737.618,914.613 739.749,913.971 741.88,913.334 744.01,912.702 746.141,912.075 748.272,911.452 750.403,910.835 752.534,910.221 754.664,909.613 756.795,909.009 758.926,908.41 761.057,907.815 763.187,907.224 765.318,906.638 767.449,906.057 769.58,905.479 771.711,904.906 773.841,904.338 775.972,903.773 778.103,903.213 780.234,902.657 782.365,902.105 784.495,901.558 786.626,901.014 788.757,900.474 790.888,899.939 793.018,899.407 795.149,898.88 797.28,898.356 799.411,897.837 801.542,897.321 803.672,896.809 805.803,896.301 807.934,895.796 810.065,895.296 812.196,894.799 814.326,894.306 816.457,893.816 818.588,893.33 820.719,892.848 822.85,892.369 824.98,891.894 827.111,891.423 829.242,890.955 831.373,890.49 833.503,890.029 835.634,889.571 837.765,889.117 839.896,888.666 842.027,888.218 844.157,887.774 846.288,887.333 848.419,886.895 850.55,886.46 852.681,886.029 854.811,885.601 856.942,885.176 859.073,884.754 861.204,884.335 863.335,883.919 865.465,883.506 867.596,883.097 869.727,882.69 871.858,882.286 873.988,881.886 876.119,881.488 878.25,881.093 880.381,880.701 882.512,880.312 884.642,879.926 886.773,879.542 888.904,879.162 891.035,878.784 893.166,878.409 895.296,878.036 897.427,877.666 899.558,877.299 901.689,876.935 903.82,876.573 905.95,876.214 908.081,875.858 910.212,875.504 912.343,875.153 914.473,874.804 916.604,874.458 918.735,874.114 920.866,873.773 922.997,873.434 925.127,873.098 927.258,872.764 929.389,872.432 931.52,872.103 933.651,871.776 935.781,871.452 937.912,871.13 940.043,870.81 942.174,870.493 944.304,870.178 946.435,869.865 948.566,869.555 950.697,869.246 952.828,868.94 954.958,868.636 957.089,868.335 959.22,868.035 961.351,867.738 963.482,867.443 965.612,867.149 967.743,866.859 969.874,866.57 972.005,866.283 974.136,865.998 976.266,865.715 978.397,865.435 980.528,865.156 982.659,864.879 984.789,864.605 986.92,864.332 989.051,864.061 991.182,863.793 993.313,863.526 995.443,863.261 997.574,862.998 999.705,862.736 1001.84,862.477 1003.97,862.22 1006.1,861.964 1008.23,861.71 1010.36,861.458 1012.49,861.208 1014.62,860.959 1016.75,860.713 1018.88,860.468 1021.01,860.225 1023.14,859.983 1025.27,859.743 1027.41,859.505 1029.54,859.269 1031.67,859.034 1033.8,858.801 1035.93,858.57 1038.06,858.34 1040.19,858.112 1042.32,857.886 1044.45,857.661 1046.58,857.437 1048.71,857.215 1050.84,856.995 1052.97,856.777 1055.11,856.559 1057.24,856.344 1059.37,856.13 1061.5,855.917 1063.63,855.706 1065.76,855.496 1067.89,855.288 1070.02,855.082 1072.15,854.876 1074.28,854.673 1076.41,854.47 1078.54,854.269 1080.67,854.07 1082.81,853.871 1084.94,853.675 1087.07,853.479 1089.2,853.285 1091.33,853.092 1093.46,852.901 1095.59,852.711 1097.72,852.522 1099.85,852.335 1101.98,852.149 1104.11,851.964 1106.24,851.78 1108.38,851.598 1110.51,851.417 1112.64,851.238 1114.77,851.059 1116.9,850.882 1119.03,850.706 1121.16,850.531 1123.29,850.358 1125.42,850.185 1127.55,850.014 1129.68,849.844 1131.81,849.676 1133.94,849.508 1136.08,849.342 1138.21,849.176 1140.34,849.012 1142.47,848.849 1144.6,848.688 1146.73,848.527 1148.86,848.367 1150.99,848.209 1153.12,848.052 1155.25,847.895 1157.38,847.74 1159.51,847.586 1161.64,847.433 1163.78,847.281 1165.91,847.13 1168.04,846.98 1170.17,846.831 1172.3,846.683 1174.43,846.537 1176.56,846.391 1178.69,846.246 1180.82,846.102 1182.95,845.96 1185.08,845.818 1187.21,845.677 1189.35,845.537 1191.48,845.398 1193.61,845.26 1195.74,845.123 1197.87,844.987 1200,844.852 1202.13,844.718 1204.26,844.585 1206.39,844.452 1208.52,844.321 1210.65,844.19 1212.78,844.06 1214.91,843.932 1217.05,843.804 1219.18,843.677 1221.31,843.551 1223.44,843.425 1225.57,843.301 1227.7,843.177 1229.83,843.054 1231.96,842.932 1234.09,842.811 1236.22,842.691 1238.35,842.572 1240.48,842.453 1242.61,842.335 1244.75,842.218 1246.88,842.102 1249.01,841.986 1251.14,841.871 1253.27,841.757 1255.4,841.644 1257.53,841.532 1259.66,841.42 1261.79,841.309 1263.92,841.199 1266.05,841.09 1268.18,840.981 1270.32,840.873 1272.45,840.766 1274.58,840.659 1276.71,840.553 1278.84,840.448 1280.97,840.344 1283.1,840.24 1285.23,840.137 1287.36,840.035 1289.49,839.933 1291.62,839.832 1293.75,839.732 1295.88,839.632 1298.02,839.534 1300.15,839.435 1302.28,839.338 1304.41,839.241 1306.54,839.145 1308.67,839.049 1310.8,838.954 1312.93,838.86 1315.06,838.766 1317.19,838.673 1319.32,838.58 1321.45,838.489 1323.58,838.397 1325.72,838.307 1327.85,838.217 1329.98,838.127 1332.11,838.039 1334.24,837.95 1336.37,837.863 1338.5,837.776 1340.63,837.689 1342.76,837.604 1344.89,837.518 1347.02,837.434 1349.15,837.35 1351.29,837.266 1353.42,837.183 1355.55,837.101 1357.68,837.019 1359.81,836.937 1361.94,836.857 1364.07,836.776 1366.2,836.697 1368.33,836.617 1370.46,836.539 1372.59,836.461 1374.72,836.383 1376.85,836.306 1378.99,836.229 1381.12,836.153 1383.25,836.078 1385.38,836.003 1387.51,835.928 1389.64,835.854 1391.77,835.781 1393.9,835.708 1396.03,835.635 1398.16,835.563 1400.29,835.491 1402.42,835.42 1404.55,835.35 1406.69,835.279 1408.82,835.21 1410.95,835.14 1413.08,835.072 1415.21,835.003 1417.34,834.935 1419.47,834.868 1421.6,834.801 1423.73,834.734 1425.86,834.668 1427.99,834.603 1430.12,834.537 1432.26,834.473 1434.39,834.408 1436.52,834.344 1438.65,834.281 1440.78,834.217 1442.91,834.155 1445.04,834.092 1447.17,834.031 1449.3,833.969 1451.43,833.908 1453.56,833.847 1455.69,833.787 1457.82,833.727 1459.96,833.668 1462.09,833.608 1464.22,833.55 1466.35,833.491 1468.48,833.433 1470.61,833.376 1472.74,833.318 1474.87,833.262 1477,833.205 1479.13,833.149 1481.26,833.093 1483.39,833.038 1485.52,832.983 1487.66,832.928 1489.79,832.874 1491.92,832.82 1494.05,832.766 1496.18,832.713 1498.31,832.66 1500.44,832.607 1502.57,832.555 1504.7,832.503 1506.83,832.451 1508.96,832.4 1511.09,832.349 1513.23,832.298 1515.36,832.248 1517.49,832.198 1519.62,832.148 1521.75,832.099 1523.88,832.05 1526.01,832.002 1528.14,831.953 1530.27,831.905 1532.4,831.857 1534.53,831.81 1536.66,831.763 1538.79,831.716 1540.93,831.67 1543.06,831.623 1545.19,831.578 1547.32,831.532 1549.45,831.487 1551.58,831.442 1553.71,831.397 1555.84,831.353 1557.97,831.308 1560.1,831.265 1562.23,831.221 1564.36,831.178 1566.49,831.135 1568.63,831.092 1570.76,831.05 1572.89,831.008 1575.02,830.966 1577.15,830.924 1579.28,830.883 1581.41,830.842 1583.54,830.801 1585.67,830.76 1587.8,830.72 1589.93,830.68 1592.06,830.64 1594.2,830.601 1596.33,830.562 1598.46,830.523 1600.59,830.484 1602.72,830.446 1604.85,830.407 1606.98,830.369 1609.11,830.332 1611.24,830.294 1613.37,830.257 1615.5,830.22 1617.63,830.183 1619.76,830.147 1621.9,830.111 1624.03,830.075 1626.16,830.039 1628.29,830.003 1630.42,829.968 1632.55,829.933 1634.68,829.898 1636.81,829.863 1638.94,829.829 1641.07,829.795 1643.2,829.761 1645.33,829.727 1647.46,829.693 1649.6,829.66 1651.73,829.627 1653.86,829.594 1655.99,829.561 1658.12,829.529 1660.25,829.497 1662.38,829.465 1664.51,829.433 1666.64,829.401 1668.77,829.37 1670.9,829.338 1673.03,829.307 1675.17,829.277 1677.3,829.246 1679.43,829.215 1681.56,829.185 1683.69,829.155 1685.82,829.125 1687.95,829.096 1690.08,829.066 1692.21,829.037 1694.34,829.008 1696.47,828.979 1698.6,828.95 1700.73,828.921 1702.87,828.893 1705,828.865 1707.13,828.837 1709.26,828.809 1711.39,828.781 1713.52,828.754 1715.65,828.726 1717.78,828.699 1719.91,828.672 1722.04,828.645 1724.17,828.619 1726.3,828.592 1728.43,828.566 1730.57,828.54 1732.7,828.514 1734.83,828.488 1736.96,828.462 1739.09,828.437 1741.22,828.411 1743.35,828.386 1745.48,828.361 1747.61,828.336 1749.74,828.311 1751.87,828.287 1754,828.262 1756.14,828.238 1758.27,828.214 1760.4,828.19 1762.53,828.166 1764.66,828.142 1766.79,828.119 1768.92,828.095 1771.05,828.072 1773.18,828.049 1775.31,828.026 1777.44,828.003 1779.57,827.981 1781.7,827.958 1783.84,827.936 1785.97,827.913 1788.1,827.891 1790.23,827.869 1792.36,827.848 1794.49,827.826 1796.62,827.804 1798.75,827.783 1800.88,827.762 1803.01,827.74 1805.14,827.719 1807.27,827.699 1809.4,827.678 1811.54,827.657 1813.67,827.637 1815.8,827.616 1817.93,827.596 1820.06,827.576 1822.19,827.556 1824.32,827.536 1826.45,827.517 1828.58,827.497 1830.71,827.478 1832.84,827.458 1834.97,827.439 1837.11,827.42 1839.24,827.401 1841.37,827.382 1843.5,827.363 1845.63,827.345 1847.76,827.326 1849.89,827.308 1852.02,827.29 1854.15,827.272 1856.28,827.254 1858.41,827.236 1860.54,827.218 1862.67,827.2 1864.81,827.183 1866.94,827.165 1869.07,827.148 1871.2,827.131 1873.33,827.113 1875.46,827.096 1877.59,827.08 1879.72,827.063 1881.85,827.046 1883.98,827.029 1886.11,827.013 1888.24,826.997 1890.37,826.98 1892.51,826.964 1894.64,826.948 1896.77,826.932 1898.9,826.916 1901.03,826.901 1903.16,826.885 1905.29,826.869 1907.42,826.854 1909.55,826.839 1911.68,826.823 1913.81,826.808 1915.94,826.793 1918.07,826.778 1920.21,826.763 1922.34,826.748 1924.47,826.734 1926.6,826.719 1928.73,826.705 1930.86,826.69 1932.99,826.676 1935.12,826.662 1937.25,826.648 1939.38,826.634 1941.51,826.62 1943.64,826.606 1945.78,826.592 1947.91,826.578 1950.04,826.565 1952.17,826.551 1954.3,826.538 1956.43,826.524 1958.56,826.511 1960.69,826.498 1962.82,826.485 1964.95,826.472 1967.08,826.459 1969.21,826.446 1971.34,826.433 1973.48,826.42 1975.61,826.408 1977.74,826.395 1979.87,826.383 1982,826.37 1984.13,826.358 1986.26,826.346 1988.39,826.334 1990.52,826.322 1992.65,826.31 1994.78,826.298 1996.91,826.286 1999.04,826.274 2001.18,826.262 2003.31,826.251 2005.44,826.239 2007.57,826.228 2009.7,826.216 2011.83,826.205 2013.96,826.193 2016.09,826.182 2018.22,826.171 2020.35,826.16 2022.48,826.149 2024.61,826.138 2026.75,826.127 2028.88,826.116 2031.01,826.105 2033.14,826.095 2035.27,826.084 2037.4,826.073 2039.53,826.063 2041.66,826.052 2043.79,826.042 2045.92,826.032 2048.05,826.021 2050.18,826.011 2052.31,826.001 2054.45,825.991 2056.58,825.981 2058.71,825.971 2060.84,825.961 2062.97,825.951 2065.1,825.942 2067.23,825.932 2069.36,825.922 2071.49,825.913 2073.62,825.903 2075.75,825.894 2077.88,825.884 2080.01,825.875 2082.15,825.865 2084.28,825.856 2086.41,825.847 2088.54,825.838 2090.67,825.829 2092.8,825.82 2094.93,825.811 2097.06,825.802 2099.19,825.793 2101.32,825.784 2103.45,825.776 2105.58,825.767 2107.72,825.758 2109.85,825.75 2111.98,825.741 2114.11,825.733 2116.24,825.724 2118.37,825.716 2120.5,825.707 2122.63,825.699 2124.76,825.691 2126.89,825.683 2129.02,825.675 2131.15,825.667 2133.28,825.659 2135.42,825.651 2137.55,825.643 2139.68,825.635 2141.81,825.627 2143.94,825.619 2146.07,825.611 2148.2,825.604 2150.33,825.596 2152.46,825.589 2154.59,825.581 2156.72,825.574 2158.85,825.566 2160.98,825.559 2163.12,825.551 2165.25,825.544 2167.38,825.537 2169.51,825.53 2171.64,825.522 2173.77,825.515 2175.9,825.508 2178.03,825.501 2180.16,825.494 2182.29,825.487 2184.42,825.48 2186.55,825.474 2188.69,825.467 2190.82,825.46 2192.95,825.453 2195.08,825.447 2197.21,825.44 2199.34,825.433 2201.47,825.427 2203.6,825.42 2205.73,825.414 2207.86,825.407 2209.99,825.401 2212.12,825.395 2214.25,825.388 2216.39,825.382 2218.52,825.376 2220.65,825.37 2222.78,825.363 2224.91,825.357 2227.04,825.351 2229.17,825.345 2231.3,825.339 2233.43,825.333 2235.56,825.327 2237.69,825.321 2239.82,825.315 2241.95,825.31 2244.09,825.304 2246.22,825.298 2248.35,825.292 2250.48,825.287 2252.61,825.281 2254.74,825.275 2256.87,825.27 2259,825.264 2261.13,825.259 2263.26,825.253 2265.39,825.248 2267.52,825.242 2269.66,825.237 2271.79,825.232 2273.92,825.226 2276.05,825.221 2278.18,825.216 2280.31,825.211 2282.44,825.206 2284.57,825.2 2286.7,825.195 2288.83,825.19 2290.96,825.185 2293.09,825.18 2295.22,825.175 2297.36,825.17 2299.49,825.165 2301.62,825.16 2303.75,825.155 2305.88,825.151 2308.01,825.146 2310.14,825.141 2312.27,825.136 2314.4,825.132 2316.53,825.127 2318.66,825.122 2320.79,825.118 2322.92,825.113 2325.06,825.108 2327.19,825.104 2329.32,825.099 2331.45,825.095 2333.58,825.09 2335.71,825.086 2337.84,825.081 2339.97,825.077 2342.1,825.073 2344.23,825.068 2346.36,825.064 2348.49,825.06 2350.63,825.055 2352.76,825.051 "/>
<path clip-path="url(#clip090)" d="M1809.54 248.629 L2281.8 248.629 L2281.8 93.1086 L1809.54 93.1086  Z" fill="#ffffff" fill-rule="evenodd" fill-opacity="1"/>
<polyline clip-path="url(#clip090)" style="stroke:#000000; stroke-linecap:round; stroke-linejoin:round; stroke-width:4; stroke-opacity:1; fill:none" points="1809.54,248.629 2281.8,248.629 2281.8,93.1086 1809.54,93.1086 1809.54,248.629 "/>
<polyline clip-path="url(#clip090)" style="stroke:#009af9; stroke-linecap:round; stroke-linejoin:round; stroke-width:4; stroke-opacity:1; fill:none" points="1833.19,144.949 1975.1,144.949 "/>
<path clip-path="url(#clip090)" d="M1998.75 136.303 L2003.27 136.303 L2011.37 158.062 L2019.47 136.303 L2023.98 136.303 L2014.26 162.229 L2008.47 162.229 L1998.75 136.303 Z" fill="#000000" fill-rule="nonzero" fill-opacity="1" /><path clip-path="url(#clip090)" d="M2031.28 158.293 L2038.91 158.293 L2038.91 131.928 L2030.6 133.595 L2030.6 129.335 L2038.87 127.669 L2043.54 127.669 L2043.54 158.293 L2051.18 158.293 L2051.18 162.229 L2031.28 162.229 L2031.28 158.293 Z" fill="#000000" fill-rule="nonzero" fill-opacity="1" /><path clip-path="url(#clip090)" d="M2069.28 145.585 L2069.28 152.807 L2077.41 152.807 L2077.41 155.006 L2069.28 155.006 L2069.28 162.229 L2066.85 162.229 L2066.85 155.006 L2058.73 155.006 L2058.73 152.807 L2066.85 152.807 L2066.85 145.585 L2069.28 145.585 Z" fill="#000000" fill-rule="nonzero" fill-opacity="1" /><path clip-path="url(#clip090)" d="M2101.58 137.067 L2101.58 141.094 Q2099.77 140.169 2097.83 139.706 Q2095.88 139.243 2093.8 139.243 Q2090.63 139.243 2089.03 140.215 Q2087.46 141.187 2087.46 143.131 Q2087.46 144.613 2088.59 145.469 Q2089.72 146.303 2093.15 147.067 L2094.61 147.391 Q2099.15 148.363 2101.04 150.145 Q2102.96 151.905 2102.96 155.076 Q2102.96 158.687 2100.09 160.793 Q2097.25 162.9 2092.25 162.9 Q2090.16 162.9 2087.9 162.483 Q2085.65 162.09 2083.15 161.28 L2083.15 156.881 Q2085.51 158.108 2087.8 158.733 Q2090.09 159.335 2092.34 159.335 Q2095.35 159.335 2096.97 158.317 Q2098.59 157.275 2098.59 155.4 Q2098.59 153.664 2097.41 152.738 Q2096.25 151.812 2092.29 150.956 L2090.81 150.608 Q2086.85 149.775 2085.09 148.062 Q2083.34 146.326 2083.34 143.317 Q2083.34 139.659 2085.93 137.669 Q2088.52 135.678 2093.29 135.678 Q2095.65 135.678 2097.73 136.025 Q2099.82 136.372 2101.58 137.067 Z" fill="#000000" fill-rule="nonzero" fill-opacity="1" /><path clip-path="url(#clip090)" d="M2113.96 128.942 L2113.96 136.303 L2122.73 136.303 L2122.73 139.613 L2113.96 139.613 L2113.96 153.687 Q2113.96 156.858 2114.82 157.761 Q2115.7 158.664 2118.36 158.664 L2122.73 158.664 L2122.73 162.229 L2118.36 162.229 Q2113.43 162.229 2111.55 160.4 Q2109.68 158.548 2109.68 153.687 L2109.68 139.613 L2106.55 139.613 L2106.55 136.303 L2109.68 136.303 L2109.68 128.942 L2113.96 128.942 Z" fill="#000000" fill-rule="nonzero" fill-opacity="1" /><path clip-path="url(#clip090)" d="M2138.38 139.289 Q2134.96 139.289 2132.96 141.974 Q2130.97 144.636 2130.97 149.289 Q2130.97 153.942 2132.94 156.627 Q2134.93 159.289 2138.38 159.289 Q2141.78 159.289 2143.77 156.604 Q2145.77 153.918 2145.77 149.289 Q2145.77 144.682 2143.77 141.997 Q2141.78 139.289 2138.38 139.289 M2138.38 135.678 Q2143.94 135.678 2147.11 139.289 Q2150.28 142.9 2150.28 149.289 Q2150.28 155.655 2147.11 159.289 Q2143.94 162.9 2138.38 162.9 Q2132.8 162.9 2129.63 159.289 Q2126.48 155.655 2126.48 149.289 Q2126.48 142.9 2129.63 139.289 Q2132.8 135.678 2138.38 135.678 Z" fill="#000000" fill-rule="nonzero" fill-opacity="1" /><path clip-path="url(#clip090)" d="M2172.36 140.284 Q2171.64 139.868 2170.79 139.682 Q2169.95 139.474 2168.94 139.474 Q2165.33 139.474 2163.38 141.835 Q2161.46 144.173 2161.46 148.571 L2161.46 162.229 L2157.18 162.229 L2157.18 136.303 L2161.46 136.303 L2161.46 140.331 Q2162.8 137.969 2164.95 136.835 Q2167.11 135.678 2170.19 135.678 Q2170.63 135.678 2171.16 135.747 Q2171.69 135.794 2172.34 135.909 L2172.36 140.284 Z" fill="#000000" fill-rule="nonzero" fill-opacity="1" /><path clip-path="url(#clip090)" d="M2188.61 149.196 Q2183.45 149.196 2181.46 150.377 Q2179.47 151.557 2179.47 154.405 Q2179.47 156.673 2180.95 158.016 Q2182.45 159.335 2185.02 159.335 Q2188.57 159.335 2190.7 156.835 Q2192.85 154.312 2192.85 150.145 L2192.85 149.196 L2188.61 149.196 M2197.11 147.437 L2197.11 162.229 L2192.85 162.229 L2192.85 158.293 Q2191.39 160.655 2189.21 161.789 Q2187.04 162.9 2183.89 162.9 Q2179.91 162.9 2177.55 160.678 Q2175.21 158.432 2175.21 154.682 Q2175.21 150.307 2178.13 148.085 Q2181.07 145.863 2186.88 145.863 L2192.85 145.863 L2192.85 145.446 Q2192.85 142.507 2190.9 140.909 Q2188.98 139.289 2185.49 139.289 Q2183.27 139.289 2181.16 139.821 Q2179.05 140.354 2177.11 141.419 L2177.11 137.483 Q2179.45 136.581 2181.64 136.141 Q2183.84 135.678 2185.93 135.678 Q2191.55 135.678 2194.33 138.594 Q2197.11 141.511 2197.11 147.437 Z" fill="#000000" fill-rule="nonzero" fill-opacity="1" /><path clip-path="url(#clip090)" d="M2222.94 148.965 Q2222.94 144.335 2221.02 141.789 Q2219.12 139.243 2215.67 139.243 Q2212.25 139.243 2210.33 141.789 Q2208.43 144.335 2208.43 148.965 Q2208.43 153.571 2210.33 156.118 Q2212.25 158.664 2215.67 158.664 Q2219.12 158.664 2221.02 156.118 Q2222.94 153.571 2222.94 148.965 M2227.2 159.011 Q2227.2 165.631 2224.26 168.849 Q2221.32 172.09 2215.26 172.09 Q2213.01 172.09 2211.02 171.742 Q2209.03 171.418 2207.15 170.724 L2207.15 166.58 Q2209.03 167.599 2210.86 168.085 Q2212.69 168.571 2214.58 168.571 Q2218.77 168.571 2220.86 166.372 Q2222.94 164.196 2222.94 159.775 L2222.94 157.668 Q2221.62 159.96 2219.56 161.094 Q2217.5 162.229 2214.63 162.229 Q2209.86 162.229 2206.95 158.594 Q2204.03 154.96 2204.03 148.965 Q2204.03 142.946 2206.95 139.312 Q2209.86 135.678 2214.63 135.678 Q2217.5 135.678 2219.56 136.812 Q2221.62 137.946 2222.94 140.238 L2222.94 136.303 L2227.2 136.303 L2227.2 159.011 Z" fill="#000000" fill-rule="nonzero" fill-opacity="1" /><path clip-path="url(#clip090)" d="M2258.15 148.201 L2258.15 150.284 L2238.57 150.284 Q2238.84 154.682 2241.2 156.997 Q2243.59 159.289 2247.82 159.289 Q2250.28 159.289 2252.57 158.687 Q2254.89 158.085 2257.15 156.881 L2257.15 160.909 Q2254.86 161.881 2252.45 162.391 Q2250.05 162.9 2247.57 162.9 Q2241.37 162.9 2237.73 159.289 Q2234.12 155.678 2234.12 149.52 Q2234.12 143.155 2237.55 139.428 Q2241 135.678 2246.83 135.678 Q2252.06 135.678 2255.09 139.057 Q2258.15 142.414 2258.15 148.201 M2253.89 146.951 Q2253.84 143.456 2251.92 141.372 Q2250.02 139.289 2246.88 139.289 Q2243.31 139.289 2241.16 141.303 Q2239.03 143.317 2238.7 146.974 L2253.89 146.951 Z" fill="#000000" fill-rule="nonzero" fill-opacity="1" /><polyline clip-path="url(#clip090)" style="stroke:#e26f46; stroke-linecap:round; stroke-linejoin:round; stroke-width:4; stroke-opacity:1; fill:none" points="1833.19,196.789 1975.1,196.789 "/>
<path clip-path="url(#clip090)" d="M1998.75 188.143 L2003.27 188.143 L2011.37 209.902 L2019.47 188.143 L2023.98 188.143 L2014.26 214.069 L2008.47 214.069 L1998.75 188.143 Z" fill="#000000" fill-rule="nonzero" fill-opacity="1" /><path clip-path="url(#clip090)" d="M2030.51 179.509 L2048.87 179.509 L2048.87 183.444 L2034.79 183.444 L2034.79 191.916 Q2035.81 191.569 2036.83 191.407 Q2037.85 191.222 2038.87 191.222 Q2044.65 191.222 2048.03 194.393 Q2051.41 197.564 2051.41 202.981 Q2051.41 208.559 2047.94 211.661 Q2044.47 214.74 2038.15 214.74 Q2035.97 214.74 2033.71 214.37 Q2031.46 213.999 2029.05 213.258 L2029.05 208.559 Q2031.14 209.694 2033.36 210.249 Q2035.58 210.805 2038.06 210.805 Q2042.06 210.805 2044.4 208.698 Q2046.74 206.592 2046.74 202.981 Q2046.74 199.37 2044.4 197.263 Q2042.06 195.157 2038.06 195.157 Q2036.18 195.157 2034.31 195.573 Q2032.46 195.99 2030.51 196.87 L2030.51 179.509 Z" fill="#000000" fill-rule="nonzero" fill-opacity="1" /><path clip-path="url(#clip090)" d="M2069.28 197.425 L2069.28 204.647 L2077.41 204.647 L2077.41 206.846 L2069.28 206.846 L2069.28 214.069 L2066.85 214.069 L2066.85 206.846 L2058.73 206.846 L2058.73 204.647 L2066.85 204.647 L2066.85 197.425 L2069.28 197.425 Z" fill="#000000" fill-rule="nonzero" fill-opacity="1" /><path clip-path="url(#clip090)" d="M2101.58 188.907 L2101.58 192.934 Q2099.77 192.009 2097.83 191.546 Q2095.88 191.083 2093.8 191.083 Q2090.63 191.083 2089.03 192.055 Q2087.46 193.027 2087.46 194.971 Q2087.46 196.453 2088.59 197.309 Q2089.72 198.143 2093.15 198.907 L2094.61 199.231 Q2099.15 200.203 2101.04 201.985 Q2102.96 203.745 2102.96 206.916 Q2102.96 210.527 2100.09 212.633 Q2097.25 214.74 2092.25 214.74 Q2090.16 214.74 2087.9 214.323 Q2085.65 213.93 2083.15 213.12 L2083.15 208.721 Q2085.51 209.948 2087.8 210.573 Q2090.09 211.175 2092.34 211.175 Q2095.35 211.175 2096.97 210.157 Q2098.59 209.115 2098.59 207.24 Q2098.59 205.504 2097.41 204.578 Q2096.25 203.652 2092.29 202.796 L2090.81 202.448 Q2086.85 201.615 2085.09 199.902 Q2083.34 198.166 2083.34 195.157 Q2083.34 191.499 2085.93 189.509 Q2088.52 187.518 2093.29 187.518 Q2095.65 187.518 2097.73 187.865 Q2099.82 188.212 2101.58 188.907 Z" fill="#000000" fill-rule="nonzero" fill-opacity="1" /><path clip-path="url(#clip090)" d="M2113.96 180.782 L2113.96 188.143 L2122.73 188.143 L2122.73 191.453 L2113.96 191.453 L2113.96 205.527 Q2113.96 208.698 2114.82 209.601 Q2115.7 210.504 2118.36 210.504 L2122.73 210.504 L2122.73 214.069 L2118.36 214.069 Q2113.43 214.069 2111.55 212.24 Q2109.68 210.388 2109.68 205.527 L2109.68 191.453 L2106.55 191.453 L2106.55 188.143 L2109.68 188.143 L2109.68 180.782 L2113.96 180.782 Z" fill="#000000" fill-rule="nonzero" fill-opacity="1" /><path clip-path="url(#clip090)" d="M2138.38 191.129 Q2134.96 191.129 2132.96 193.814 Q2130.97 196.476 2130.97 201.129 Q2130.97 205.782 2132.94 208.467 Q2134.93 211.129 2138.38 211.129 Q2141.78 211.129 2143.77 208.444 Q2145.77 205.758 2145.77 201.129 Q2145.77 196.522 2143.77 193.837 Q2141.78 191.129 2138.38 191.129 M2138.38 187.518 Q2143.94 187.518 2147.11 191.129 Q2150.28 194.74 2150.28 201.129 Q2150.28 207.495 2147.11 211.129 Q2143.94 214.74 2138.38 214.74 Q2132.8 214.74 2129.63 211.129 Q2126.48 207.495 2126.48 201.129 Q2126.48 194.74 2129.63 191.129 Q2132.8 187.518 2138.38 187.518 Z" fill="#000000" fill-rule="nonzero" fill-opacity="1" /><path clip-path="url(#clip090)" d="M2172.36 192.124 Q2171.64 191.708 2170.79 191.522 Q2169.95 191.314 2168.94 191.314 Q2165.33 191.314 2163.38 193.675 Q2161.46 196.013 2161.46 200.411 L2161.46 214.069 L2157.18 214.069 L2157.18 188.143 L2161.46 188.143 L2161.46 192.171 Q2162.8 189.809 2164.95 188.675 Q2167.11 187.518 2170.19 187.518 Q2170.63 187.518 2171.16 187.587 Q2171.69 187.634 2172.34 187.749 L2172.36 192.124 Z" fill="#000000" fill-rule="nonzero" fill-opacity="1" /><path clip-path="url(#clip090)" d="M2188.61 201.036 Q2183.45 201.036 2181.46 202.217 Q2179.47 203.397 2179.47 206.245 Q2179.47 208.513 2180.95 209.856 Q2182.45 211.175 2185.02 211.175 Q2188.57 211.175 2190.7 208.675 Q2192.85 206.152 2192.85 201.985 L2192.85 201.036 L2188.61 201.036 M2197.11 199.277 L2197.11 214.069 L2192.85 214.069 L2192.85 210.133 Q2191.39 212.495 2189.21 213.629 Q2187.04 214.74 2183.89 214.74 Q2179.91 214.74 2177.55 212.518 Q2175.21 210.272 2175.21 206.522 Q2175.21 202.147 2178.13 199.925 Q2181.07 197.703 2186.88 197.703 L2192.85 197.703 L2192.85 197.286 Q2192.85 194.347 2190.9 192.749 Q2188.98 191.129 2185.49 191.129 Q2183.27 191.129 2181.16 191.661 Q2179.05 192.194 2177.11 193.259 L2177.11 189.323 Q2179.45 188.421 2181.64 187.981 Q2183.84 187.518 2185.93 187.518 Q2191.55 187.518 2194.33 190.434 Q2197.11 193.351 2197.11 199.277 Z" fill="#000000" fill-rule="nonzero" fill-opacity="1" /><path clip-path="url(#clip090)" d="M2222.94 200.805 Q2222.94 196.175 2221.02 193.629 Q2219.12 191.083 2215.67 191.083 Q2212.25 191.083 2210.33 193.629 Q2208.43 196.175 2208.43 200.805 Q2208.43 205.411 2210.33 207.958 Q2212.25 210.504 2215.67 210.504 Q2219.12 210.504 2221.02 207.958 Q2222.94 205.411 2222.94 200.805 M2227.2 210.851 Q2227.2 217.471 2224.26 220.689 Q2221.32 223.93 2215.26 223.93 Q2213.01 223.93 2211.02 223.582 Q2209.03 223.258 2207.15 222.564 L2207.15 218.42 Q2209.03 219.439 2210.86 219.925 Q2212.69 220.411 2214.58 220.411 Q2218.77 220.411 2220.86 218.212 Q2222.94 216.036 2222.94 211.615 L2222.94 209.508 Q2221.62 211.8 2219.56 212.934 Q2217.5 214.069 2214.63 214.069 Q2209.86 214.069 2206.95 210.434 Q2204.03 206.8 2204.03 200.805 Q2204.03 194.786 2206.95 191.152 Q2209.86 187.518 2214.63 187.518 Q2217.5 187.518 2219.56 188.652 Q2221.62 189.786 2222.94 192.078 L2222.94 188.143 L2227.2 188.143 L2227.2 210.851 Z" fill="#000000" fill-rule="nonzero" fill-opacity="1" /><path clip-path="url(#clip090)" d="M2258.15 200.041 L2258.15 202.124 L2238.57 202.124 Q2238.84 206.522 2241.2 208.837 Q2243.59 211.129 2247.82 211.129 Q2250.28 211.129 2252.57 210.527 Q2254.89 209.925 2257.15 208.721 L2257.15 212.749 Q2254.86 213.721 2252.45 214.231 Q2250.05 214.74 2247.57 214.74 Q2241.37 214.74 2237.73 211.129 Q2234.12 207.518 2234.12 201.36 Q2234.12 194.995 2237.55 191.268 Q2241 187.518 2246.83 187.518 Q2252.06 187.518 2255.09 190.897 Q2258.15 194.254 2258.15 200.041 M2253.89 198.791 Q2253.84 195.296 2251.92 193.212 Q2250.02 191.129 2246.88 191.129 Q2243.31 191.129 2241.16 193.143 Q2239.03 195.157 2238.7 198.814 L2253.89 198.791 Z" fill="#000000" fill-rule="nonzero" fill-opacity="1" /></svg>
