<?xml version="1.0" encoding="utf-8"?>
<svg xmlns="http://www.w3.org/2000/svg" xmlns:xlink="http://www.w3.org/1999/xlink" width="600" height="400" viewBox="0 0 2400 1600">
<defs>
  <clipPath id="clip480">
    <rect x="0" y="0" width="2400" height="1600"/>
  </clipPath>
</defs>
<path clip-path="url(#clip480)" d="M0 1600 L2400 1600 L2400 0 L0 0  Z" fill="#ffffff" fill-rule="evenodd" fill-opacity="1"/>
<defs>
  <clipPath id="clip481">
    <rect x="480" y="0" width="1681" height="1600"/>
  </clipPath>
</defs>
<path clip-path="url(#clip480)" d="M186.274 1423.18 L2352.76 1423.18 L2352.76 47.2441 L186.274 47.2441  Z" fill="#ffffff" fill-rule="evenodd" fill-opacity="1"/>
<defs>
  <clipPath id="clip482">
    <rect x="186" y="47" width="2167" height="1377"/>
  </clipPath>
</defs>
<polyline clip-path="url(#clip482)" style="stroke:#000000; stroke-linecap:round; stroke-linejoin:round; stroke-width:2; stroke-opacity:0.1; fill:none" points="186.274,1423.18 186.274,47.2441 "/>
<polyline clip-path="url(#clip482)" style="stroke:#000000; stroke-linecap:round; stroke-linejoin:round; stroke-width:2; stroke-opacity:0.1; fill:none" points="727.894,1423.18 727.894,47.2441 "/>
<polyline clip-path="url(#clip482)" style="stroke:#000000; stroke-linecap:round; stroke-linejoin:round; stroke-width:2; stroke-opacity:0.1; fill:none" points="1269.51,1423.18 1269.51,47.2441 "/>
<polyline clip-path="url(#clip482)" style="stroke:#000000; stroke-linecap:round; stroke-linejoin:round; stroke-width:2; stroke-opacity:0.1; fill:none" points="1811.14,1423.18 1811.14,47.2441 "/>
<polyline clip-path="url(#clip482)" style="stroke:#000000; stroke-linecap:round; stroke-linejoin:round; stroke-width:2; stroke-opacity:0.1; fill:none" points="2352.76,1423.18 2352.76,47.2441 "/>
<polyline clip-path="url(#clip482)" style="stroke:#000000; stroke-linecap:round; stroke-linejoin:round; stroke-width:2; stroke-opacity:0.1; fill:none" points="186.274,1281.84 2352.76,1281.84 "/>
<polyline clip-path="url(#clip482)" style="stroke:#000000; stroke-linecap:round; stroke-linejoin:round; stroke-width:2; stroke-opacity:0.1; fill:none" points="186.274,981.446 2352.76,981.446 "/>
<polyline clip-path="url(#clip482)" style="stroke:#000000; stroke-linecap:round; stroke-linejoin:round; stroke-width:2; stroke-opacity:0.1; fill:none" points="186.274,681.047 2352.76,681.047 "/>
<polyline clip-path="url(#clip482)" style="stroke:#000000; stroke-linecap:round; stroke-linejoin:round; stroke-width:2; stroke-opacity:0.1; fill:none" points="186.274,380.648 2352.76,380.648 "/>
<polyline clip-path="url(#clip482)" style="stroke:#000000; stroke-linecap:round; stroke-linejoin:round; stroke-width:2; stroke-opacity:0.1; fill:none" points="186.274,80.2498 2352.76,80.2498 "/>
<polyline clip-path="url(#clip480)" style="stroke:#000000; stroke-linecap:round; stroke-linejoin:round; stroke-width:4; stroke-opacity:1; fill:none" points="186.274,1423.18 2352.76,1423.18 "/>
<polyline clip-path="url(#clip480)" style="stroke:#000000; stroke-linecap:round; stroke-linejoin:round; stroke-width:4; stroke-opacity:1; fill:none" points="186.274,1423.18 186.274,1404.28 "/>
<polyline clip-path="url(#clip480)" style="stroke:#000000; stroke-linecap:round; stroke-linejoin:round; stroke-width:4; stroke-opacity:1; fill:none" points="727.894,1423.18 727.894,1404.28 "/>
<polyline clip-path="url(#clip480)" style="stroke:#000000; stroke-linecap:round; stroke-linejoin:round; stroke-width:4; stroke-opacity:1; fill:none" points="1269.51,1423.18 1269.51,1404.28 "/>
<polyline clip-path="url(#clip480)" style="stroke:#000000; stroke-linecap:round; stroke-linejoin:round; stroke-width:4; stroke-opacity:1; fill:none" points="1811.14,1423.18 1811.14,1404.28 "/>
<polyline clip-path="url(#clip480)" style="stroke:#000000; stroke-linecap:round; stroke-linejoin:round; stroke-width:4; stroke-opacity:1; fill:none" points="2352.76,1423.18 2352.76,1404.28 "/>
<path clip-path="url(#clip480)" d="M163.658 1454.1 Q160.047 1454.1 158.219 1457.66 Q156.413 1461.2 156.413 1468.33 Q156.413 1475.44 158.219 1479.01 Q160.047 1482.55 163.658 1482.55 Q167.293 1482.55 169.098 1479.01 Q170.927 1475.44 170.927 1468.33 Q170.927 1461.2 169.098 1457.66 Q167.293 1454.1 163.658 1454.1 M163.658 1450.39 Q169.469 1450.39 172.524 1455 Q175.603 1459.58 175.603 1468.33 Q175.603 1477.06 172.524 1481.67 Q169.469 1486.25 163.658 1486.25 Q157.848 1486.25 154.77 1481.67 Q151.714 1477.06 151.714 1468.33 Q151.714 1459.58 154.77 1455 Q157.848 1450.39 163.658 1450.39 Z" fill="#000000" fill-rule="nonzero" fill-opacity="1" /><path clip-path="url(#clip480)" d="M183.82 1479.7 L188.705 1479.7 L188.705 1485.58 L183.82 1485.58 L183.82 1479.7 Z" fill="#000000" fill-rule="nonzero" fill-opacity="1" /><path clip-path="url(#clip480)" d="M208.89 1454.1 Q205.279 1454.1 203.45 1457.66 Q201.644 1461.2 201.644 1468.33 Q201.644 1475.44 203.45 1479.01 Q205.279 1482.55 208.89 1482.55 Q212.524 1482.55 214.329 1479.01 Q216.158 1475.44 216.158 1468.33 Q216.158 1461.2 214.329 1457.66 Q212.524 1454.1 208.89 1454.1 M208.89 1450.39 Q214.7 1450.39 217.755 1455 Q220.834 1459.58 220.834 1468.33 Q220.834 1477.06 217.755 1481.67 Q214.7 1486.25 208.89 1486.25 Q203.079 1486.25 200.001 1481.67 Q196.945 1477.06 196.945 1468.33 Q196.945 1459.58 200.001 1455 Q203.079 1450.39 208.89 1450.39 Z" fill="#000000" fill-rule="nonzero" fill-opacity="1" /><path clip-path="url(#clip480)" d="M705.777 1454.1 Q702.165 1454.1 700.337 1457.66 Q698.531 1461.2 698.531 1468.33 Q698.531 1475.44 700.337 1479.01 Q702.165 1482.55 705.777 1482.55 Q709.411 1482.55 711.216 1479.01 Q713.045 1475.44 713.045 1468.33 Q713.045 1461.2 711.216 1457.66 Q709.411 1454.1 705.777 1454.1 M705.777 1450.39 Q711.587 1450.39 714.642 1455 Q717.721 1459.58 717.721 1468.33 Q717.721 1477.06 714.642 1481.67 Q711.587 1486.25 705.777 1486.25 Q699.966 1486.25 696.888 1481.67 Q693.832 1477.06 693.832 1468.33 Q693.832 1459.58 696.888 1455 Q699.966 1450.39 705.777 1450.39 Z" fill="#000000" fill-rule="nonzero" fill-opacity="1" /><path clip-path="url(#clip480)" d="M725.938 1479.7 L730.823 1479.7 L730.823 1485.58 L725.938 1485.58 L725.938 1479.7 Z" fill="#000000" fill-rule="nonzero" fill-opacity="1" /><path clip-path="url(#clip480)" d="M741.054 1451.02 L759.411 1451.02 L759.411 1454.96 L745.337 1454.96 L745.337 1463.43 Q746.355 1463.08 747.374 1462.92 Q748.392 1462.73 749.411 1462.73 Q755.198 1462.73 758.577 1465.9 Q761.957 1469.08 761.957 1474.49 Q761.957 1480.07 758.485 1483.17 Q755.012 1486.25 748.693 1486.25 Q746.517 1486.25 744.249 1485.88 Q742.003 1485.51 739.596 1484.77 L739.596 1480.07 Q741.679 1481.2 743.901 1481.76 Q746.124 1482.32 748.6 1482.32 Q752.605 1482.32 754.943 1480.21 Q757.281 1478.1 757.281 1474.49 Q757.281 1470.88 754.943 1468.77 Q752.605 1466.67 748.6 1466.67 Q746.725 1466.67 744.85 1467.08 Q742.999 1467.5 741.054 1468.38 L741.054 1451.02 Z" fill="#000000" fill-rule="nonzero" fill-opacity="1" /><path clip-path="url(#clip480)" d="M1236.67 1481.64 L1244.31 1481.64 L1244.31 1455.28 L1236 1456.95 L1236 1452.69 L1244.26 1451.02 L1248.94 1451.02 L1248.94 1481.64 L1256.58 1481.64 L1256.58 1485.58 L1236.67 1485.58 L1236.67 1481.64 Z" fill="#000000" fill-rule="nonzero" fill-opacity="1" /><path clip-path="url(#clip480)" d="M1266.02 1479.7 L1270.9 1479.7 L1270.9 1485.58 L1266.02 1485.58 L1266.02 1479.7 Z" fill="#000000" fill-rule="nonzero" fill-opacity="1" /><path clip-path="url(#clip480)" d="M1291.09 1454.1 Q1287.48 1454.1 1285.65 1457.66 Q1283.84 1461.2 1283.84 1468.33 Q1283.84 1475.44 1285.65 1479.01 Q1287.48 1482.55 1291.09 1482.55 Q1294.72 1482.55 1296.53 1479.01 Q1298.36 1475.44 1298.36 1468.33 Q1298.36 1461.2 1296.53 1457.66 Q1294.72 1454.1 1291.09 1454.1 M1291.09 1450.39 Q1296.9 1450.39 1299.95 1455 Q1303.03 1459.58 1303.03 1468.33 Q1303.03 1477.06 1299.95 1481.67 Q1296.9 1486.25 1291.09 1486.25 Q1285.28 1486.25 1282.2 1481.67 Q1279.14 1477.06 1279.14 1468.33 Q1279.14 1459.58 1282.2 1455 Q1285.28 1450.39 1291.09 1450.39 Z" fill="#000000" fill-rule="nonzero" fill-opacity="1" /><path clip-path="url(#clip480)" d="M1778.79 1481.64 L1786.42 1481.64 L1786.42 1455.28 L1778.11 1456.95 L1778.11 1452.69 L1786.38 1451.02 L1791.05 1451.02 L1791.05 1481.64 L1798.69 1481.64 L1798.69 1485.58 L1778.79 1485.58 L1778.79 1481.64 Z" fill="#000000" fill-rule="nonzero" fill-opacity="1" /><path clip-path="url(#clip480)" d="M1808.14 1479.7 L1813.02 1479.7 L1813.02 1485.58 L1808.14 1485.58 L1808.14 1479.7 Z" fill="#000000" fill-rule="nonzero" fill-opacity="1" /><path clip-path="url(#clip480)" d="M1823.25 1451.02 L1841.61 1451.02 L1841.61 1454.96 L1827.54 1454.96 L1827.54 1463.43 Q1828.55 1463.08 1829.57 1462.92 Q1830.59 1462.73 1831.61 1462.73 Q1837.4 1462.73 1840.78 1465.9 Q1844.16 1469.08 1844.16 1474.49 Q1844.16 1480.07 1840.68 1483.17 Q1837.21 1486.25 1830.89 1486.25 Q1828.72 1486.25 1826.45 1485.88 Q1824.2 1485.51 1821.8 1484.77 L1821.8 1480.07 Q1823.88 1481.2 1826.1 1481.76 Q1828.32 1482.32 1830.8 1482.32 Q1834.8 1482.32 1837.14 1480.21 Q1839.48 1478.1 1839.48 1474.49 Q1839.48 1470.88 1837.14 1468.77 Q1834.8 1466.67 1830.8 1466.67 Q1828.92 1466.67 1827.05 1467.08 Q1825.2 1467.5 1823.25 1468.38 L1823.25 1451.02 Z" fill="#000000" fill-rule="nonzero" fill-opacity="1" /><path clip-path="url(#clip480)" d="M2323.99 1481.64 L2340.31 1481.64 L2340.31 1485.58 L2318.37 1485.58 L2318.37 1481.64 Q2321.03 1478.89 2325.61 1474.26 Q2330.22 1469.61 2331.4 1468.27 Q2333.65 1465.74 2334.53 1464.01 Q2335.43 1462.25 2335.43 1460.56 Q2335.43 1457.8 2333.49 1456.07 Q2331.56 1454.33 2328.46 1454.33 Q2326.26 1454.33 2323.81 1455.09 Q2321.38 1455.86 2318.6 1457.41 L2318.6 1452.69 Q2321.43 1451.55 2323.88 1450.97 Q2326.33 1450.39 2328.37 1450.39 Q2333.74 1450.39 2336.93 1453.08 Q2340.13 1455.77 2340.13 1460.26 Q2340.13 1462.39 2339.32 1464.31 Q2338.53 1466.2 2336.42 1468.8 Q2335.85 1469.47 2332.74 1472.69 Q2329.64 1475.88 2323.99 1481.64 Z" fill="#000000" fill-rule="nonzero" fill-opacity="1" /><path clip-path="url(#clip480)" d="M2350.13 1479.7 L2355.01 1479.7 L2355.01 1485.58 L2350.13 1485.58 L2350.13 1479.7 Z" fill="#000000" fill-rule="nonzero" fill-opacity="1" /><path clip-path="url(#clip480)" d="M2375.2 1454.1 Q2371.59 1454.1 2369.76 1457.66 Q2367.95 1461.2 2367.95 1468.33 Q2367.95 1475.44 2369.76 1479.01 Q2371.59 1482.55 2375.2 1482.55 Q2378.83 1482.55 2380.64 1479.01 Q2382.47 1475.44 2382.47 1468.33 Q2382.47 1461.2 2380.64 1457.66 Q2378.83 1454.1 2375.2 1454.1 M2375.2 1450.39 Q2381.01 1450.39 2384.06 1455 Q2387.14 1459.58 2387.14 1468.33 Q2387.14 1477.06 2384.06 1481.67 Q2381.01 1486.25 2375.2 1486.25 Q2369.39 1486.25 2366.31 1481.67 Q2363.25 1477.06 2363.25 1468.33 Q2363.25 1459.58 2366.31 1455 Q2369.39 1450.39 2375.2 1450.39 Z" fill="#000000" fill-rule="nonzero" fill-opacity="1" /><path clip-path="url(#clip480)" d="M1268.58 1522.27 L1268.58 1532.4 L1280.64 1532.4 L1280.64 1536.95 L1268.58 1536.95 L1268.58 1556.3 Q1268.58 1560.66 1269.75 1561.9 Q1270.96 1563.14 1274.62 1563.14 L1280.64 1563.14 L1280.64 1568.04 L1274.62 1568.04 Q1267.84 1568.04 1265.27 1565.53 Q1262.69 1562.98 1262.69 1556.3 L1262.69 1536.95 L1258.39 1536.95 L1258.39 1532.4 L1262.69 1532.4 L1262.69 1522.27 L1268.58 1522.27 Z" fill="#000000" fill-rule="nonzero" fill-opacity="1" /><polyline clip-path="url(#clip480)" style="stroke:#000000; stroke-linecap:round; stroke-linejoin:round; stroke-width:4; stroke-opacity:1; fill:none" points="186.274,1423.18 186.274,47.2441 "/>
<polyline clip-path="url(#clip480)" style="stroke:#000000; stroke-linecap:round; stroke-linejoin:round; stroke-width:4; stroke-opacity:1; fill:none" points="186.274,1281.84 205.172,1281.84 "/>
<polyline clip-path="url(#clip480)" style="stroke:#000000; stroke-linecap:round; stroke-linejoin:round; stroke-width:4; stroke-opacity:1; fill:none" points="186.274,981.446 205.172,981.446 "/>
<polyline clip-path="url(#clip480)" style="stroke:#000000; stroke-linecap:round; stroke-linejoin:round; stroke-width:4; stroke-opacity:1; fill:none" points="186.274,681.047 205.172,681.047 "/>
<polyline clip-path="url(#clip480)" style="stroke:#000000; stroke-linecap:round; stroke-linejoin:round; stroke-width:4; stroke-opacity:1; fill:none" points="186.274,380.648 205.172,380.648 "/>
<polyline clip-path="url(#clip480)" style="stroke:#000000; stroke-linecap:round; stroke-linejoin:round; stroke-width:4; stroke-opacity:1; fill:none" points="186.274,80.2498 205.172,80.2498 "/>
<path clip-path="url(#clip480)" d="M62.9365 1267.64 Q59.3254 1267.64 57.4967 1271.21 Q55.6912 1274.75 55.6912 1281.88 Q55.6912 1288.99 57.4967 1292.55 Q59.3254 1296.09 62.9365 1296.09 Q66.5707 1296.09 68.3763 1292.55 Q70.205 1288.99 70.205 1281.88 Q70.205 1274.75 68.3763 1271.21 Q66.5707 1267.64 62.9365 1267.64 M62.9365 1263.94 Q68.7467 1263.94 71.8022 1268.55 Q74.8809 1273.13 74.8809 1281.88 Q74.8809 1290.61 71.8022 1295.21 Q68.7467 1299.8 62.9365 1299.8 Q57.1264 1299.8 54.0477 1295.21 Q50.9921 1290.61 50.9921 1281.88 Q50.9921 1273.13 54.0477 1268.55 Q57.1264 1263.94 62.9365 1263.94 Z" fill="#000000" fill-rule="nonzero" fill-opacity="1" /><path clip-path="url(#clip480)" d="M83.0984 1293.24 L87.9827 1293.24 L87.9827 1299.12 L83.0984 1299.12 L83.0984 1293.24 Z" fill="#000000" fill-rule="nonzero" fill-opacity="1" /><path clip-path="url(#clip480)" d="M108.168 1267.64 Q104.557 1267.64 102.728 1271.21 Q100.922 1274.75 100.922 1281.88 Q100.922 1288.99 102.728 1292.55 Q104.557 1296.09 108.168 1296.09 Q111.802 1296.09 113.608 1292.55 Q115.436 1288.99 115.436 1281.88 Q115.436 1274.75 113.608 1271.21 Q111.802 1267.64 108.168 1267.64 M108.168 1263.94 Q113.978 1263.94 117.033 1268.55 Q120.112 1273.13 120.112 1281.88 Q120.112 1290.61 117.033 1295.21 Q113.978 1299.8 108.168 1299.8 Q102.358 1299.8 99.2789 1295.21 Q96.2234 1290.61 96.2234 1281.88 Q96.2234 1273.13 99.2789 1268.55 Q102.358 1263.94 108.168 1263.94 Z" fill="#000000" fill-rule="nonzero" fill-opacity="1" /><path clip-path="url(#clip480)" d="M138.33 1267.64 Q134.719 1267.64 132.89 1271.21 Q131.084 1274.75 131.084 1281.88 Q131.084 1288.99 132.89 1292.55 Q134.719 1296.09 138.33 1296.09 Q141.964 1296.09 143.769 1292.55 Q145.598 1288.99 145.598 1281.88 Q145.598 1274.75 143.769 1271.21 Q141.964 1267.64 138.33 1267.64 M138.33 1263.94 Q144.14 1263.94 147.195 1268.55 Q150.274 1273.13 150.274 1281.88 Q150.274 1290.61 147.195 1295.21 Q144.14 1299.8 138.33 1299.8 Q132.519 1299.8 129.441 1295.21 Q126.385 1290.61 126.385 1281.88 Q126.385 1273.13 129.441 1268.55 Q132.519 1263.94 138.33 1263.94 Z" fill="#000000" fill-rule="nonzero" fill-opacity="1" /><path clip-path="url(#clip480)" d="M63.9319 967.244 Q60.3208 967.244 58.4921 970.809 Q56.6865 974.351 56.6865 981.48 Q56.6865 988.587 58.4921 992.152 Q60.3208 995.693 63.9319 995.693 Q67.5661 995.693 69.3717 992.152 Q71.2004 988.587 71.2004 981.48 Q71.2004 974.351 69.3717 970.809 Q67.5661 967.244 63.9319 967.244 M63.9319 963.541 Q69.742 963.541 72.7976 968.147 Q75.8763 972.73 75.8763 981.48 Q75.8763 990.207 72.7976 994.814 Q69.742 999.397 63.9319 999.397 Q58.1217 999.397 55.043 994.814 Q51.9875 990.207 51.9875 981.48 Q51.9875 972.73 55.043 968.147 Q58.1217 963.541 63.9319 963.541 Z" fill="#000000" fill-rule="nonzero" fill-opacity="1" /><path clip-path="url(#clip480)" d="M84.0938 992.846 L88.978 992.846 L88.978 998.726 L84.0938 998.726 L84.0938 992.846 Z" fill="#000000" fill-rule="nonzero" fill-opacity="1" /><path clip-path="url(#clip480)" d="M103.191 994.791 L119.51 994.791 L119.51 998.726 L97.566 998.726 L97.566 994.791 Q100.228 992.036 104.811 987.406 Q109.418 982.754 110.598 981.411 Q112.844 978.888 113.723 977.152 Q114.626 975.392 114.626 973.703 Q114.626 970.948 112.682 969.212 Q110.76 967.476 107.658 967.476 Q105.459 967.476 103.006 968.24 Q100.575 969.004 97.7974 970.555 L97.7974 965.832 Q100.621 964.698 103.075 964.119 Q105.529 963.541 107.566 963.541 Q112.936 963.541 116.131 966.226 Q119.325 968.911 119.325 973.402 Q119.325 975.531 118.515 977.453 Q117.728 979.351 115.621 981.943 Q115.043 982.615 111.941 985.832 Q108.839 989.027 103.191 994.791 Z" fill="#000000" fill-rule="nonzero" fill-opacity="1" /><path clip-path="url(#clip480)" d="M129.371 964.166 L147.728 964.166 L147.728 968.101 L133.654 968.101 L133.654 976.573 Q134.672 976.226 135.691 976.064 Q136.709 975.879 137.728 975.879 Q143.515 975.879 146.894 979.05 Q150.274 982.221 150.274 987.638 Q150.274 993.216 146.802 996.318 Q143.33 999.397 137.01 999.397 Q134.834 999.397 132.566 999.027 Q130.32 998.656 127.913 997.916 L127.913 993.216 Q129.996 994.351 132.219 994.906 Q134.441 995.462 136.918 995.462 Q140.922 995.462 143.26 993.355 Q145.598 991.249 145.598 987.638 Q145.598 984.027 143.26 981.92 Q140.922 979.814 136.918 979.814 Q135.043 979.814 133.168 980.23 Q131.316 980.647 129.371 981.527 L129.371 964.166 Z" fill="#000000" fill-rule="nonzero" fill-opacity="1" /><path clip-path="url(#clip480)" d="M62.9365 666.846 Q59.3254 666.846 57.4967 670.411 Q55.6912 673.952 55.6912 681.082 Q55.6912 688.188 57.4967 691.753 Q59.3254 695.295 62.9365 695.295 Q66.5707 695.295 68.3763 691.753 Q70.205 688.188 70.205 681.082 Q70.205 673.952 68.3763 670.411 Q66.5707 666.846 62.9365 666.846 M62.9365 663.142 Q68.7467 663.142 71.8022 667.749 Q74.8809 672.332 74.8809 681.082 Q74.8809 689.809 71.8022 694.415 Q68.7467 698.998 62.9365 698.998 Q57.1264 698.998 54.0477 694.415 Q50.9921 689.809 50.9921 681.082 Q50.9921 672.332 54.0477 667.749 Q57.1264 663.142 62.9365 663.142 Z" fill="#000000" fill-rule="nonzero" fill-opacity="1" /><path clip-path="url(#clip480)" d="M83.0984 692.447 L87.9827 692.447 L87.9827 698.327 L83.0984 698.327 L83.0984 692.447 Z" fill="#000000" fill-rule="nonzero" fill-opacity="1" /><path clip-path="url(#clip480)" d="M98.2141 663.767 L116.57 663.767 L116.57 667.702 L102.496 667.702 L102.496 676.174 Q103.515 675.827 104.534 675.665 Q105.552 675.48 106.571 675.48 Q112.358 675.48 115.737 678.651 Q119.117 681.823 119.117 687.239 Q119.117 692.818 115.645 695.92 Q112.172 698.998 105.853 698.998 Q103.677 698.998 101.409 698.628 Q99.1632 698.258 96.7558 697.517 L96.7558 692.818 Q98.8391 693.952 101.061 694.508 Q103.284 695.063 105.76 695.063 Q109.765 695.063 112.103 692.957 Q114.441 690.85 114.441 687.239 Q114.441 683.628 112.103 681.522 Q109.765 679.415 105.76 679.415 Q103.885 679.415 102.01 679.832 Q100.159 680.248 98.2141 681.128 L98.2141 663.767 Z" fill="#000000" fill-rule="nonzero" fill-opacity="1" /><path clip-path="url(#clip480)" d="M138.33 666.846 Q134.719 666.846 132.89 670.411 Q131.084 673.952 131.084 681.082 Q131.084 688.188 132.89 691.753 Q134.719 695.295 138.33 695.295 Q141.964 695.295 143.769 691.753 Q145.598 688.188 145.598 681.082 Q145.598 673.952 143.769 670.411 Q141.964 666.846 138.33 666.846 M138.33 663.142 Q144.14 663.142 147.195 667.749 Q150.274 672.332 150.274 681.082 Q150.274 689.809 147.195 694.415 Q144.14 698.998 138.33 698.998 Q132.519 698.998 129.441 694.415 Q126.385 689.809 126.385 681.082 Q126.385 672.332 129.441 667.749 Q132.519 663.142 138.33 663.142 Z" fill="#000000" fill-rule="nonzero" fill-opacity="1" /><path clip-path="url(#clip480)" d="M63.9319 366.447 Q60.3208 366.447 58.4921 370.012 Q56.6865 373.554 56.6865 380.683 Q56.6865 387.79 58.4921 391.354 Q60.3208 394.896 63.9319 394.896 Q67.5661 394.896 69.3717 391.354 Q71.2004 387.79 71.2004 380.683 Q71.2004 373.554 69.3717 370.012 Q67.5661 366.447 63.9319 366.447 M63.9319 362.743 Q69.742 362.743 72.7976 367.35 Q75.8763 371.933 75.8763 380.683 Q75.8763 389.41 72.7976 394.016 Q69.742 398.6 63.9319 398.6 Q58.1217 398.6 55.043 394.016 Q51.9875 389.41 51.9875 380.683 Q51.9875 371.933 55.043 367.35 Q58.1217 362.743 63.9319 362.743 Z" fill="#000000" fill-rule="nonzero" fill-opacity="1" /><path clip-path="url(#clip480)" d="M84.0938 392.049 L88.978 392.049 L88.978 397.928 L84.0938 397.928 L84.0938 392.049 Z" fill="#000000" fill-rule="nonzero" fill-opacity="1" /><path clip-path="url(#clip480)" d="M97.9826 363.368 L120.205 363.368 L120.205 365.359 L107.658 397.928 L102.774 397.928 L114.58 367.304 L97.9826 367.304 L97.9826 363.368 Z" fill="#000000" fill-rule="nonzero" fill-opacity="1" /><path clip-path="url(#clip480)" d="M129.371 363.368 L147.728 363.368 L147.728 367.304 L133.654 367.304 L133.654 375.776 Q134.672 375.429 135.691 375.266 Q136.709 375.081 137.728 375.081 Q143.515 375.081 146.894 378.253 Q150.274 381.424 150.274 386.841 Q150.274 392.419 146.802 395.521 Q143.33 398.6 137.01 398.6 Q134.834 398.6 132.566 398.229 Q130.32 397.859 127.913 397.118 L127.913 392.419 Q129.996 393.553 132.219 394.109 Q134.441 394.665 136.918 394.665 Q140.922 394.665 143.26 392.558 Q145.598 390.452 145.598 386.841 Q145.598 383.229 143.26 381.123 Q140.922 379.016 136.918 379.016 Q135.043 379.016 133.168 379.433 Q131.316 379.85 129.371 380.729 L129.371 363.368 Z" fill="#000000" fill-rule="nonzero" fill-opacity="1" /><path clip-path="url(#clip480)" d="M53.7467 93.5946 L61.3856 93.5946 L61.3856 67.229 L53.0754 68.8957 L53.0754 64.6364 L61.3393 62.9698 L66.0152 62.9698 L66.0152 93.5946 L73.654 93.5946 L73.654 97.5298 L53.7467 97.5298 L53.7467 93.5946 Z" fill="#000000" fill-rule="nonzero" fill-opacity="1" /><path clip-path="url(#clip480)" d="M83.0984 91.6502 L87.9827 91.6502 L87.9827 97.5298 L83.0984 97.5298 L83.0984 91.6502 Z" fill="#000000" fill-rule="nonzero" fill-opacity="1" /><path clip-path="url(#clip480)" d="M108.168 66.0485 Q104.557 66.0485 102.728 69.6133 Q100.922 73.1549 100.922 80.2845 Q100.922 87.3909 102.728 90.9557 Q104.557 94.4974 108.168 94.4974 Q111.802 94.4974 113.608 90.9557 Q115.436 87.3909 115.436 80.2845 Q115.436 73.1549 113.608 69.6133 Q111.802 66.0485 108.168 66.0485 M108.168 62.3448 Q113.978 62.3448 117.033 66.9512 Q120.112 71.5345 120.112 80.2845 Q120.112 89.0113 117.033 93.6178 Q113.978 98.2011 108.168 98.2011 Q102.358 98.2011 99.2789 93.6178 Q96.2234 89.0113 96.2234 80.2845 Q96.2234 71.5345 99.2789 66.9512 Q102.358 62.3448 108.168 62.3448 Z" fill="#000000" fill-rule="nonzero" fill-opacity="1" /><path clip-path="url(#clip480)" d="M138.33 66.0485 Q134.719 66.0485 132.89 69.6133 Q131.084 73.1549 131.084 80.2845 Q131.084 87.3909 132.89 90.9557 Q134.719 94.4974 138.33 94.4974 Q141.964 94.4974 143.769 90.9557 Q145.598 87.3909 145.598 80.2845 Q145.598 73.1549 143.769 69.6133 Q141.964 66.0485 138.33 66.0485 M138.33 62.3448 Q144.14 62.3448 147.195 66.9512 Q150.274 71.5345 150.274 80.2845 Q150.274 89.0113 147.195 93.6178 Q144.14 98.2011 138.33 98.2011 Q132.519 98.2011 129.441 93.6178 Q126.385 89.0113 126.385 80.2845 Q126.385 71.5345 129.441 66.9512 Q132.519 62.3448 138.33 62.3448 Z" fill="#000000" fill-rule="nonzero" fill-opacity="1" /><polyline clip-path="url(#clip482)" style="stroke:#009af9; stroke-linecap:round; stroke-linejoin:round; stroke-width:4; stroke-opacity:1; fill:none" points="186.274,86.1857 188.443,92.7983 190.611,99.345 192.78,105.827 194.949,112.244 197.117,118.597 199.286,124.886 201.455,131.113 203.623,137.279 205.792,143.382 207.961,149.425 210.129,155.408 212.298,161.331 214.466,167.195 216.635,173.001 218.804,178.749 220.972,184.439 223.141,190.073 225.31,195.651 227.478,201.174 229.647,206.641 231.816,212.054 233.984,217.413 236.153,222.718 238.322,227.971 240.49,233.171 242.659,238.32 244.828,243.417 246.996,248.464 249.165,253.46 251.334,258.407 253.502,263.304 255.671,268.152 257.839,272.953 260.008,277.705 262.177,282.41 264.345,287.068 266.514,291.68 268.683,296.246 270.851,300.766 273.02,305.242 275.189,309.672 277.357,314.059 279.526,318.402 281.695,322.702 283.863,326.958 286.032,331.173 288.201,335.345 290.369,339.476 292.538,343.566 294.707,347.615 296.875,351.624 299.044,355.593 301.212,359.522 303.381,363.412 305.55,367.264 307.718,371.077 309.887,374.852 312.056,378.589 314.224,382.29 316.393,385.953 318.562,389.58 320.73,393.171 322.899,396.726 325.068,400.245 327.236,403.73 329.405,407.179 331.574,410.595 333.742,413.976 335.911,417.324 338.08,420.638 340.248,423.92 342.417,427.169 344.585,430.385 346.754,433.569 348.923,436.722 351.091,439.843 353.26,442.933 355.429,445.993 357.597,449.021 359.766,452.02 361.935,454.989 364.103,457.928 366.272,460.839 368.441,463.72 370.609,466.572 372.778,469.396 374.947,472.192 377.115,474.96 379.284,477.7 381.453,480.413 383.621,483.1 385.79,485.759 387.959,488.392 390.127,490.998 392.296,493.579 394.464,496.134 396.633,498.663 398.802,501.168 400.97,503.647 403.139,506.101 405.308,508.532 407.476,510.937 409.645,513.319 411.814,515.678 413.982,518.012 416.151,520.324 418.32,522.612 420.488,524.878 422.657,527.121 424.826,529.342 426.994,531.541 429.163,533.718 431.332,535.873 433.5,538.006 435.669,540.119 437.837,542.21 440.006,544.281 442.175,546.331 444.343,548.36 446.512,550.37 448.681,552.359 450.849,554.329 453.018,556.279 455.187,558.209 457.355,560.12 459.524,562.013 461.693,563.886 463.861,565.741 466.03,567.577 468.199,569.395 470.367,571.195 472.536,572.977 474.705,574.741 476.873,576.488 479.042,578.217 481.21,579.929 483.379,581.624 485.548,583.302 487.716,584.963 489.885,586.608 492.054,588.236 494.222,589.848 496.391,591.444 498.56,593.024 500.728,594.589 502.897,596.138 505.066,597.671 507.234,599.189 509.403,600.692 511.572,602.18 513.74,603.653 515.909,605.111 518.078,606.555 520.246,607.985 522.415,609.4 524.583,610.802 526.752,612.189 528.921,613.562 531.089,614.922 533.258,616.268 535.427,617.601 537.595,618.921 539.764,620.227 541.933,621.521 544.101,622.801 546.27,624.069 548.439,625.325 550.607,626.567 552.776,627.798 554.945,629.016 557.113,630.222 559.282,631.416 561.451,632.599 563.619,633.769 565.788,634.928 567.956,636.075 570.125,637.211 572.294,638.335 574.462,639.449 576.631,640.551 578.8,641.642 580.968,642.722 583.137,643.792 585.306,644.851 587.474,645.899 589.643,646.937 591.812,647.965 593.98,648.982 596.149,649.989 598.318,650.986 600.486,651.973 602.655,652.951 604.824,653.918 606.992,654.876 609.161,655.824 611.33,656.763 613.498,657.693 615.667,658.613 617.835,659.524 620.004,660.426 622.173,661.319 624.341,662.203 626.51,663.078 628.679,663.945 630.847,664.803 633.016,665.652 635.185,666.493 637.353,667.326 639.522,668.15 641.691,668.966 643.859,669.774 646.028,670.574 648.197,671.366 650.365,672.15 652.534,672.926 654.703,673.694 656.871,674.455 659.04,675.209 661.208,675.954 663.377,676.693 665.546,677.424 667.714,678.148 669.883,678.864 672.052,679.574 674.22,680.276 676.389,680.972 678.558,681.66 680.726,682.342 682.895,683.017 685.064,683.686 687.232,684.347 689.401,685.002 691.57,685.651 693.738,686.293 695.907,686.929 698.076,687.558 700.244,688.181 702.413,688.798 704.581,689.409 706.75,690.013 708.919,690.612 711.087,691.205 713.256,691.791 715.425,692.372 717.593,692.947 719.762,693.517 721.931,694.08 724.099,694.638 726.268,695.191 728.437,695.738 730.605,696.279 732.774,696.815 734.943,697.346 737.111,697.871 739.28,698.391 741.449,698.906 743.617,699.416 745.786,699.921 747.954,700.42 750.123,700.915 752.292,701.405 754.46,701.89 756.629,702.37 758.798,702.845 760.966,703.315 763.135,703.781 765.304,704.242 767.472,704.699 769.641,705.151 771.81,705.598 773.978,706.041 776.147,706.48 778.316,706.914 780.484,707.344 782.653,707.77 784.822,708.191 786.99,708.608 789.159,709.021 791.328,709.43 793.496,709.835 795.665,710.236 797.833,710.633 800.002,711.026 802.171,711.415 804.339,711.8 806.508,712.181 808.677,712.559 810.845,712.932 813.014,713.303 815.183,713.669 817.351,714.032 819.52,714.391 821.689,714.747 823.857,715.099 826.026,715.448 828.195,715.793 830.363,716.135 832.532,716.473 834.701,716.808 836.869,717.14 839.038,717.469 841.206,717.794 843.375,718.116 845.544,718.434 847.712,718.75 849.881,719.063 852.05,719.372 854.218,719.678 856.387,719.981 858.556,720.281 860.724,720.579 862.893,720.873 865.062,721.164 867.23,721.452 869.399,721.738 871.568,722.02 873.736,722.3 875.905,722.577 878.074,722.851 880.242,723.123 882.411,723.392 884.579,723.658 886.748,723.921 888.917,724.182 891.085,724.44 893.254,724.696 895.423,724.949 897.591,725.199 899.76,725.447 901.929,725.692 904.097,725.935 906.266,726.176 908.435,726.414 910.603,726.65 912.772,726.883 914.941,727.114 917.109,727.343 919.278,727.57 921.447,727.794 923.615,728.016 925.784,728.235 927.952,728.453 930.121,728.668 932.29,728.882 934.458,729.093 936.627,729.302 938.796,729.509 940.964,729.713 943.133,729.916 945.302,730.117 947.47,730.316 949.639,730.513 951.808,730.707 953.976,730.9 956.145,731.091 958.314,731.28 960.482,731.468 962.651,731.653 964.82,731.836 966.988,732.018 969.157,732.198 971.326,732.376 973.494,732.553 975.663,732.727 977.831,732.9 980,733.071 982.169,733.241 984.337,733.409 986.506,733.575 988.675,733.739 990.843,733.902 993.012,734.064 995.181,734.223 997.349,734.382 999.518,734.538 1001.69,734.693 1003.86,734.847 1006.02,734.999 1008.19,735.15 1010.36,735.299 1012.53,735.446 1014.7,735.592 1016.87,735.737 1019.04,735.88 1021.2,736.022 1023.37,736.163 1025.54,736.302 1027.71,736.439 1029.88,736.575 1032.05,736.71 1034.22,736.844 1036.39,736.976 1038.55,737.107 1040.72,737.237 1042.89,737.365 1045.06,737.492 1047.23,737.618 1049.4,737.742 1051.57,737.865 1053.73,737.987 1055.9,738.108 1058.07,738.228 1060.24,738.346 1062.41,738.463 1064.58,738.579 1066.75,738.694 1068.91,738.807 1071.08,738.92 1073.25,739.031 1075.42,739.142 1077.59,739.251 1079.76,739.359 1081.93,739.466 1084.1,739.572 1086.26,739.676 1088.43,739.78 1090.6,739.883 1092.77,739.984 1094.94,740.085 1097.11,740.185 1099.28,740.283 1101.44,740.381 1103.61,740.478 1105.78,740.573 1107.95,740.668 1110.12,740.762 1112.29,740.854 1114.46,740.946 1116.63,741.037 1118.79,741.127 1120.96,741.216 1123.13,741.305 1125.3,741.392 1127.47,741.479 1129.64,741.564 1131.81,741.649 1133.97,741.733 1136.14,741.816 1138.31,741.898 1140.48,741.98 1142.65,742.06 1144.82,742.14 1146.99,742.219 1149.15,742.297 1151.32,742.375 1153.49,742.451 1155.66,742.527 1157.83,742.603 1160,742.677 1162.17,742.751 1164.34,742.824 1166.5,742.896 1168.67,742.968 1170.84,743.038 1173.01,743.109 1175.18,743.178 1177.35,743.247 1179.52,743.315 1181.68,743.382 1183.85,743.449 1186.02,743.515 1188.19,743.581 1190.36,743.646 1192.53,743.71 1194.7,743.774 1196.87,743.837 1199.03,743.899 1201.2,743.961 1203.37,744.022 1205.54,744.083 1207.71,744.143 1209.88,744.202 1212.05,744.261 1214.21,744.32 1216.38,744.377 1218.55,744.434 1220.72,744.491 1222.89,744.547 1225.06,744.603 1227.23,744.657 1229.39,744.712 1231.56,744.766 1233.73,744.819 1235.9,744.872 1238.07,744.924 1240.24,744.976 1242.41,745.027 1244.58,745.078 1246.74,745.128 1248.91,745.177 1251.08,745.227 1253.25,745.275 1255.42,745.324 1257.59,745.371 1259.76,745.418 1261.92,745.465 1264.09,745.511 1266.26,745.557 1268.43,745.603 1270.6,745.647 1272.77,745.692 1274.94,745.736 1277.11,745.779 1279.27,745.823 1281.44,745.865 1283.61,745.907 1285.78,745.949 1287.95,745.991 1290.12,746.031 1292.29,746.072 1294.45,746.112 1296.62,746.152 1298.79,746.191 1300.96,746.23 1303.13,746.268 1305.3,746.307 1307.47,746.344 1309.63,746.382 1311.8,746.419 1313.97,746.455 1316.14,746.491 1318.31,746.527 1320.48,746.563 1322.65,746.598 1324.82,746.632 1326.98,746.667 1329.15,746.701 1331.32,746.735 1333.49,746.768 1335.66,746.801 1337.83,746.834 1340,746.866 1342.16,746.898 1344.33,746.93 1346.5,746.961 1348.67,746.992 1350.84,747.023 1353.01,747.053 1355.18,747.083 1357.35,747.113 1359.51,747.143 1361.68,747.172 1363.85,747.201 1366.02,747.229 1368.19,747.258 1370.36,747.286 1372.53,747.313 1374.69,747.341 1376.86,747.368 1379.03,747.395 1381.2,747.422 1383.37,747.448 1385.54,747.474 1387.71,747.5 1389.88,747.526 1392.04,747.551 1394.21,747.577 1396.38,747.602 1398.55,747.626 1400.72,747.651 1402.89,747.675 1405.06,747.699 1407.22,747.723 1409.39,747.746 1411.56,747.77 1413.73,747.793 1415.9,747.816 1418.07,747.838 1420.24,747.861 1422.4,747.883 1424.57,747.905 1426.74,747.927 1428.91,747.948 1431.08,747.97 1433.25,747.991 1435.42,748.012 1437.59,748.033 1439.75,748.054 1441.92,748.074 1444.09,748.094 1446.26,748.114 1448.43,748.134 1450.6,748.154 1452.77,748.173 1454.93,748.193 1457.1,748.212 1459.27,748.231 1461.44,748.249 1463.61,748.268 1465.78,748.286 1467.95,748.304 1470.12,748.322 1472.28,748.34 1474.45,748.358 1476.62,748.375 1478.79,748.393 1480.96,748.41 1483.13,748.427 1485.3,748.444 1487.46,748.46 1489.63,748.477 1491.8,748.493 1493.97,748.509 1496.14,748.525 1498.31,748.541 1500.48,748.557 1502.64,748.572 1504.81,748.587 1506.98,748.602 1509.15,748.618 1511.32,748.632 1513.49,748.647 1515.66,748.662 1517.83,748.676 1519.99,748.69 1522.16,748.704 1524.33,748.718 1526.5,748.732 1528.67,748.746 1530.84,748.759 1533.01,748.773 1535.17,748.786 1537.34,748.799 1539.51,748.812 1541.68,748.825 1543.85,748.838 1546.02,748.85 1548.19,748.863 1550.36,748.875 1552.52,748.887 1554.69,748.899 1556.86,748.911 1559.03,748.923 1561.2,748.935 1563.37,748.946 1565.54,748.958 1567.7,748.969 1569.87,748.98 1572.04,748.991 1574.21,749.002 1576.38,749.013 1578.55,749.024 1580.72,749.034 1582.88,749.045 1585.05,749.055 1587.22,749.066 1589.39,749.076 1591.56,749.086 1593.73,749.096 1595.9,749.106 1598.07,749.115 1600.23,749.125 1602.4,749.135 1604.57,749.144 1606.74,749.153 1608.91,749.163 1611.08,749.172 1613.25,749.181 1615.41,749.19 1617.58,749.199 1619.75,749.207 1621.92,749.216 1624.09,749.225 1626.26,749.233 1628.43,749.242 1630.6,749.25 1632.76,749.258 1634.93,749.266 1637.1,749.274 1639.27,749.282 1641.44,749.29 1643.61,749.298 1645.78,749.306 1647.94,749.314 1650.11,749.321 1652.28,749.329 1654.45,749.336 1656.62,749.344 1658.79,749.351 1660.96,749.358 1663.13,749.365 1665.29,749.373 1667.46,749.38 1669.63,749.387 1671.8,749.394 1673.97,749.4 1676.14,749.407 1678.31,749.414 1680.47,749.421 1682.64,749.427 1684.81,749.434 1686.98,749.44 1689.15,749.447 1691.32,749.453 1693.49,749.459 1695.65,749.466 1697.82,749.472 1699.99,749.478 1702.16,749.484 1704.33,749.49 1706.5,749.496 1708.67,749.502 1710.84,749.508 1713,749.514 1715.17,749.52 1717.34,749.526 1719.51,749.532 1721.68,749.537 1723.85,749.543 1726.02,749.548 1728.18,749.554 1730.35,749.559 1732.52,749.565 1734.69,749.57 1736.86,749.576 1739.03,749.581 1741.2,749.586 1743.37,749.591 1745.53,749.596 1747.7,749.601 1749.87,749.606 1752.04,749.611 1754.21,749.616 1756.38,749.621 1758.55,749.626 1760.71,749.631 1762.88,749.636 1765.05,749.64 1767.22,749.645 1769.39,749.65 1771.56,749.654 1773.73,749.659 1775.89,749.663 1778.06,749.668 1780.23,749.672 1782.4,749.676 1784.57,749.681 1786.74,749.685 1788.91,749.689 1791.08,749.693 1793.24,749.697 1795.41,749.702 1797.58,749.706 1799.75,749.71 1801.92,749.714 1804.09,749.717 1806.26,749.721 1808.42,749.725 1810.59,749.729 1812.76,749.733 1814.93,749.736 1817.1,749.74 1819.27,749.744 1821.44,749.747 1823.61,749.751 1825.77,749.754 1827.94,749.758 1830.11,749.761 1832.28,749.765 1834.45,749.768 1836.62,749.771 1838.79,749.775 1840.95,749.778 1843.12,749.781 1845.29,749.784 1847.46,749.788 1849.63,749.791 1851.8,749.794 1853.97,749.797 1856.13,749.8 1858.3,749.803 1860.47,749.806 1862.64,749.809 1864.81,749.811 1866.98,749.814 1869.15,749.817 1871.32,749.82 1873.48,749.823 1875.65,749.825 1877.82,749.828 1879.99,749.831 1882.16,749.833 1884.33,749.836 1886.5,749.838 1888.66,749.841 1890.83,749.843 1893,749.846 1895.17,749.848 1897.34,749.851 1899.51,749.853 1901.68,749.856 1903.85,749.858 1906.01,749.86 1908.18,749.862 1910.35,749.865 1912.52,749.867 1914.69,749.869 1916.86,749.871 1919.03,749.873 1921.19,749.876 1923.36,749.878 1925.53,749.88 1927.7,749.882 1929.87,749.884 1932.04,749.886 1934.21,749.888 1936.37,749.89 1938.54,749.892 1940.71,749.894 1942.88,749.895 1945.05,749.897 1947.22,749.899 1949.39,749.901 1951.56,749.903 1953.72,749.905 1955.89,749.906 1958.06,749.908 1960.23,749.91 1962.4,749.912 1964.57,749.913 1966.74,749.915 1968.9,749.917 1971.07,749.918 1973.24,749.92 1975.41,749.922 1977.58,749.923 1979.75,749.925 1981.92,749.926 1984.09,749.928 1986.25,749.929 1988.42,749.931 1990.59,749.932 1992.76,749.934 1994.93,749.935 1997.1,749.937 1999.27,749.938 2001.43,749.94 2003.6,749.941 2005.77,749.943 2007.94,749.944 2010.11,749.945 2012.28,749.947 2014.45,749.948 2016.62,749.95 2018.78,749.951 2020.95,749.952 2023.12,749.954 2025.29,749.955 2027.46,749.956 2029.63,749.958 2031.8,749.959 2033.96,749.96 2036.13,749.962 2038.3,749.963 2040.47,749.964 2042.64,749.966 2044.81,749.967 2046.98,749.968 2049.14,749.97 2051.31,749.971 2053.48,749.972 2055.65,749.973 2057.82,749.974 2059.99,749.976 2062.16,749.977 2064.33,749.978 2066.49,749.979 2068.66,749.98 2070.83,749.982 2073,749.983 2075.17,749.984 2077.34,749.985 2079.51,749.986 2081.67,749.987 2083.84,749.988 2086.01,749.989 2088.18,749.99 2090.35,749.992 2092.52,749.993 2094.69,749.994 2096.86,749.995 2099.02,749.996 2101.19,749.997 2103.36,749.998 2105.53,749.999 2107.7,750 2109.87,750.001 2112.04,750.002 2114.2,750.003 2116.37,750.003 2118.54,750.004 2120.71,750.005 2122.88,750.006 2125.05,750.007 2127.22,750.008 2129.38,750.009 2131.55,750.01 2133.72,750.011 2135.89,750.012 2138.06,750.012 2140.23,750.013 2142.4,750.014 2144.57,750.015 2146.73,750.016 2148.9,750.016 2151.07,750.017 2153.24,750.018 2155.41,750.019 2157.58,750.02 2159.75,750.02 2161.91,750.021 2164.08,750.022 2166.25,750.023 2168.42,750.023 2170.59,750.024 2172.76,750.025 2174.93,750.026 2177.1,750.026 2179.26,750.027 2181.43,750.028 2183.6,750.028 2185.77,750.029 2187.94,750.03 2190.11,750.03 2192.28,750.031 2194.44,750.032 2196.61,750.032 2198.78,750.033 2200.95,750.033 2203.12,750.034 2205.29,750.035 2207.46,750.035 2209.62,750.036 2211.79,750.036 2213.96,750.037 2216.13,750.038 2218.3,750.038 2220.47,750.039 2222.64,750.039 2224.81,750.04 2226.97,750.04 2229.14,750.041 2231.31,750.041 2233.48,750.042 2235.65,750.042 2237.82,750.043 2239.99,750.044 2242.15,750.044 2244.32,750.045 2246.49,750.045 2248.66,750.045 2250.83,750.046 2253,750.046 2255.17,750.047 2257.34,750.047 2259.5,750.048 2261.67,750.048 2263.84,750.049 2266.01,750.049 2268.18,750.05 2270.35,750.05 2272.52,750.051 2274.68,750.051 2276.85,750.051 2279.02,750.052 2281.19,750.052 2283.36,750.053 2285.53,750.053 2287.7,750.053 2289.87,750.054 2292.03,750.054 2294.2,750.055 2296.37,750.055 2298.54,750.055 2300.71,750.056 2302.88,750.056 2305.05,750.056 2307.21,750.057 2309.38,750.057 2311.55,750.058 2313.72,750.058 2315.89,750.058 2318.06,750.059 2320.23,750.059 2322.39,750.059 2324.56,750.06 2326.73,750.06 2328.9,750.06 2331.07,750.061 2333.24,750.061 2335.41,750.061 2337.58,750.062 2339.74,750.062 2341.91,750.062 2344.08,750.063 2346.25,750.063 2348.42,750.063 2350.59,750.064 2352.76,750.064 "/>
<polyline clip-path="url(#clip482)" style="stroke:#e26f46; stroke-linecap:round; stroke-linejoin:round; stroke-width:4; stroke-opacity:1; fill:none" points="186.274,1384.24 188.443,1377.59 190.611,1371 192.78,1364.49 194.949,1358.04 197.117,1351.65 199.286,1345.34 201.455,1339.08 203.623,1332.9 205.792,1326.77 207.961,1320.71 210.129,1314.71 212.298,1308.77 214.466,1302.9 216.635,1297.08 218.804,1291.32 220.972,1285.63 223.141,1279.99 225.31,1274.41 227.478,1268.88 229.647,1263.42 231.816,1258 233.984,1252.65 236.153,1247.35 238.322,1242.1 240.49,1236.91 242.659,1231.78 244.828,1226.69 246.996,1221.66 249.165,1216.68 251.334,1211.75 253.502,1206.87 255.671,1202.04 257.839,1197.26 260.008,1192.53 262.177,1187.85 264.345,1183.22 266.514,1178.64 268.683,1174.1 270.851,1169.61 273.02,1165.17 275.189,1160.77 277.357,1156.42 279.526,1152.11 281.695,1147.84 283.863,1143.62 286.032,1139.45 288.201,1135.32 290.369,1131.23 292.538,1127.18 294.707,1123.17 296.875,1119.21 299.044,1115.28 301.212,1111.4 303.381,1107.56 305.55,1103.75 307.718,1099.99 309.887,1096.27 312.056,1092.58 314.224,1088.93 316.393,1085.32 318.562,1081.75 320.73,1078.21 322.899,1074.71 325.068,1071.25 327.236,1067.82 329.405,1064.43 331.574,1061.07 333.742,1057.75 335.911,1054.46 338.08,1051.21 340.248,1047.99 342.417,1044.81 344.585,1041.65 346.754,1038.53 348.923,1035.44 351.091,1032.39 353.26,1029.36 355.429,1026.37 357.597,1023.41 359.766,1020.48 361.935,1017.58 364.103,1014.71 366.272,1011.87 368.441,1009.05 370.609,1006.27 372.778,1003.52 374.947,1000.79 377.115,998.098 379.284,995.43 381.453,992.79 383.621,990.177 385.79,987.591 387.959,985.032 390.127,982.5 392.296,979.995 394.464,977.515 396.633,975.061 398.802,972.633 400.97,970.23 403.139,967.853 405.308,965.5 407.476,963.171 409.645,960.867 411.814,958.587 413.982,956.331 416.151,954.098 418.32,951.888 420.488,949.702 422.657,947.539 424.826,945.398 426.994,943.279 429.163,941.182 431.332,939.108 433.5,937.055 435.669,935.024 437.837,933.013 440.006,931.024 442.175,929.056 444.343,927.108 446.512,925.181 448.681,923.273 450.849,921.386 453.018,919.519 455.187,917.671 457.355,915.842 459.524,914.032 461.693,912.242 463.861,910.47 466.03,908.717 468.199,906.982 470.367,905.266 472.536,903.567 474.705,901.887 476.873,900.224 479.042,898.578 481.21,896.95 483.379,895.339 485.548,893.745 487.716,892.168 489.885,890.607 492.054,889.063 494.222,887.535 496.391,886.023 498.56,884.527 500.728,883.046 502.897,881.582 505.066,880.133 507.234,878.699 509.403,877.28 511.572,875.876 513.74,874.487 515.909,873.112 518.078,871.753 520.246,870.407 522.415,869.076 524.583,867.758 526.752,866.455 528.921,865.165 531.089,863.889 533.258,862.627 535.427,861.378 537.595,860.142 539.764,858.919 541.933,857.709 544.101,856.511 546.27,855.327 548.439,854.155 550.607,852.995 552.776,851.848 554.945,850.712 557.113,849.589 559.282,848.478 561.451,847.378 563.619,846.29 565.788,845.214 567.956,844.149 570.125,843.095 572.294,842.053 574.462,841.022 576.631,840.001 578.8,838.992 580.968,837.993 583.137,837.005 585.306,836.027 587.474,835.06 589.643,834.103 591.812,833.156 593.98,832.22 596.149,831.293 598.318,830.377 600.486,829.47 602.655,828.573 604.824,827.685 606.992,826.807 609.161,825.938 611.33,825.079 613.498,824.229 615.667,823.387 617.835,822.555 620.004,821.732 622.173,820.918 624.341,820.112 626.51,819.315 628.679,818.527 630.847,817.747 633.016,816.975 635.185,816.212 637.353,815.456 639.522,814.709 641.691,813.97 643.859,813.239 646.028,812.516 648.197,811.8 650.365,811.092 652.534,810.392 654.703,809.699 656.871,809.014 659.04,808.336 661.208,807.665 663.377,807.002 665.546,806.345 667.714,805.696 669.883,805.054 672.052,804.418 674.22,803.79 676.389,803.168 678.558,802.553 680.726,801.944 682.895,801.342 685.064,800.747 687.232,800.158 689.401,799.575 691.57,798.999 693.738,798.428 695.907,797.864 698.076,797.307 700.244,796.755 702.413,796.209 704.581,795.669 706.75,795.135 708.919,794.607 711.087,794.084 713.256,793.567 715.425,793.056 717.593,792.551 719.762,792.051 721.931,791.556 724.099,791.067 726.268,790.583 728.437,790.104 730.605,789.631 732.774,789.163 734.943,788.7 737.111,788.242 739.28,787.789 741.449,787.341 743.617,786.898 745.786,786.46 747.954,786.026 750.123,785.598 752.292,785.174 754.46,784.754 756.629,784.34 758.798,783.93 760.966,783.524 763.135,783.123 765.304,782.726 767.472,782.334 769.641,781.946 771.81,781.562 773.978,781.182 776.147,780.807 778.316,780.436 780.484,780.069 782.653,779.706 784.822,779.346 786.99,778.991 789.159,778.64 791.328,778.293 793.496,777.949 795.665,777.609 797.833,777.273 800.002,776.941 802.171,776.613 804.339,776.288 806.508,775.966 808.677,775.648 810.845,775.334 813.014,775.023 815.183,774.716 817.351,774.412 819.52,774.111 821.689,773.813 823.857,773.519 826.026,773.228 828.195,772.941 830.363,772.656 832.532,772.375 834.701,772.097 836.869,771.822 839.038,771.55 841.206,771.281 843.375,771.015 845.544,770.752 847.712,770.491 849.881,770.234 852.05,769.98 854.218,769.729 856.387,769.48 858.556,769.234 860.724,768.991 862.893,768.751 865.062,768.513 867.23,768.278 869.399,768.046 871.568,767.817 873.736,767.59 875.905,767.365 878.074,767.143 880.242,766.924 882.411,766.707 884.579,766.493 886.748,766.281 888.917,766.071 891.085,765.864 893.254,765.659 895.423,765.457 897.591,765.257 899.76,765.059 901.929,764.864 904.097,764.67 906.266,764.479 908.435,764.29 910.603,764.104 912.772,763.919 914.941,763.737 917.109,763.556 919.278,763.378 921.447,763.202 923.615,763.027 925.784,762.855 927.952,762.685 930.121,762.517 932.29,762.351 934.458,762.186 936.627,762.024 938.796,761.863 940.964,761.704 943.133,761.547 945.302,761.392 947.47,761.239 949.639,761.087 951.808,760.938 953.976,760.79 956.145,760.643 958.314,760.498 960.482,760.355 962.651,760.214 964.82,760.074 966.988,759.936 969.157,759.8 971.326,759.665 973.494,759.532 975.663,759.4 977.831,759.269 980,759.141 982.169,759.013 984.337,758.887 986.506,758.763 988.675,758.64 990.843,758.519 993.012,758.398 995.181,758.28 997.349,758.162 999.518,758.046 1001.69,757.932 1003.86,757.818 1006.02,757.706 1008.19,757.596 1010.36,757.486 1012.53,757.378 1014.7,757.271 1016.87,757.166 1019.04,757.061 1021.2,756.958 1023.37,756.856 1025.54,756.756 1027.71,756.656 1029.88,756.558 1032.05,756.461 1034.22,756.365 1036.39,756.27 1038.55,756.177 1040.72,756.084 1042.89,755.993 1045.06,755.903 1047.23,755.813 1049.4,755.725 1051.57,755.638 1053.73,755.552 1055.9,755.467 1058.07,755.384 1060.24,755.301 1062.41,755.219 1064.58,755.138 1066.75,755.058 1068.91,754.979 1071.08,754.902 1073.25,754.825 1075.42,754.749 1077.59,754.674 1079.76,754.6 1081.93,754.527 1084.1,754.454 1086.26,754.383 1088.43,754.313 1090.6,754.243 1092.77,754.174 1094.94,754.107 1097.11,754.04 1099.28,753.973 1101.44,753.908 1103.61,753.844 1105.78,753.78 1107.95,753.717 1110.12,753.655 1112.29,753.594 1114.46,753.533 1116.63,753.473 1118.79,753.415 1120.96,753.356 1123.13,753.299 1125.3,753.242 1127.47,753.186 1129.64,753.131 1131.81,753.076 1133.97,753.022 1136.14,752.969 1138.31,752.916 1140.48,752.864 1142.65,752.813 1144.82,752.762 1146.99,752.713 1149.15,752.663 1151.32,752.615 1153.49,752.566 1155.66,752.519 1157.83,752.472 1160,752.426 1162.17,752.38 1164.34,752.335 1166.5,752.291 1168.67,752.247 1170.84,752.203 1173.01,752.16 1175.18,752.118 1177.35,752.076 1179.52,752.035 1181.68,751.994 1183.85,751.954 1186.02,751.915 1188.19,751.875 1190.36,751.837 1192.53,751.798 1194.7,751.761 1196.87,751.723 1199.03,751.687 1201.2,751.65 1203.37,751.615 1205.54,751.579 1207.71,751.544 1209.88,751.51 1212.05,751.476 1214.21,751.442 1216.38,751.409 1218.55,751.377 1220.72,751.344 1222.89,751.313 1225.06,751.281 1227.23,751.25 1229.39,751.22 1231.56,751.19 1233.73,751.16 1235.9,751.131 1238.07,751.102 1240.24,751.073 1242.41,751.045 1244.58,751.018 1246.74,750.99 1248.91,750.963 1251.08,750.937 1253.25,750.911 1255.42,750.885 1257.59,750.859 1259.76,750.834 1261.92,750.81 1264.09,750.785 1266.26,750.761 1268.43,750.738 1270.6,750.714 1272.77,750.691 1274.94,750.669 1277.11,750.646 1279.27,750.624 1281.44,750.603 1283.61,750.581 1285.78,750.56 1287.95,750.54 1290.12,750.519 1292.29,750.499 1294.45,750.48 1296.62,750.46 1298.79,750.441 1300.96,750.422 1303.13,750.404 1305.3,750.385 1307.47,750.367 1309.63,750.35 1311.8,750.332 1313.97,750.315 1316.14,750.298 1318.31,750.281 1320.48,750.265 1322.65,750.249 1324.82,750.233 1326.98,750.217 1329.15,750.202 1331.32,750.187 1333.49,750.172 1335.66,750.158 1337.83,750.143 1340,750.129 1342.16,750.115 1344.33,750.101 1346.5,750.088 1348.67,750.075 1350.84,750.062 1353.01,750.049 1355.18,750.036 1357.35,750.024 1359.51,750.012 1361.68,750 1363.85,749.988 1366.02,749.976 1368.19,749.965 1370.36,749.954 1372.53,749.943 1374.69,749.932 1376.86,749.921 1379.03,749.911 1381.2,749.9 1383.37,749.89 1385.54,749.88 1387.71,749.87 1389.88,749.861 1392.04,749.851 1394.21,749.842 1396.38,749.833 1398.55,749.824 1400.72,749.815 1402.89,749.806 1405.06,749.798 1407.22,749.789 1409.39,749.781 1411.56,749.773 1413.73,749.765 1415.9,749.757 1418.07,749.749 1420.24,749.742 1422.4,749.734 1424.57,749.727 1426.74,749.72 1428.91,749.713 1431.08,749.706 1433.25,749.699 1435.42,749.692 1437.59,749.685 1439.75,749.679 1441.92,749.672 1444.09,749.666 1446.26,749.66 1448.43,749.654 1450.6,749.648 1452.77,749.642 1454.93,749.637 1457.1,749.631 1459.27,749.626 1461.44,749.62 1463.61,749.615 1465.78,749.61 1467.95,749.605 1470.12,749.6 1472.28,749.595 1474.45,749.59 1476.62,749.586 1478.79,749.581 1480.96,749.577 1483.13,749.572 1485.3,749.568 1487.46,749.564 1489.63,749.56 1491.8,749.556 1493.97,749.552 1496.14,749.548 1498.31,749.545 1500.48,749.541 1502.64,749.538 1504.81,749.534 1506.98,749.531 1509.15,749.528 1511.32,749.525 1513.49,749.522 1515.66,749.519 1517.83,749.516 1519.99,749.513 1522.16,749.511 1524.33,749.508 1526.5,749.505 1528.67,749.503 1530.84,749.501 1533.01,749.498 1535.17,749.496 1537.34,749.494 1539.51,749.492 1541.68,749.49 1543.85,749.488 1546.02,749.486 1548.19,749.485 1550.36,749.483 1552.52,749.481 1554.69,749.48 1556.86,749.478 1559.03,749.477 1561.2,749.476 1563.37,749.474 1565.54,749.473 1567.7,749.472 1569.87,749.471 1572.04,749.47 1574.21,749.469 1576.38,749.468 1578.55,749.467 1580.72,749.466 1582.88,749.466 1585.05,749.465 1587.22,749.464 1589.39,749.464 1591.56,749.463 1593.73,749.463 1595.9,749.462 1598.07,749.462 1600.23,749.462 1602.4,749.461 1604.57,749.461 1606.74,749.461 1608.91,749.461 1611.08,749.461 1613.25,749.461 1615.41,749.461 1617.58,749.461 1619.75,749.461 1621.92,749.461 1624.09,749.461 1626.26,749.462 1628.43,749.462 1630.6,749.462 1632.76,749.462 1634.93,749.463 1637.1,749.463 1639.27,749.464 1641.44,749.464 1643.61,749.465 1645.78,749.465 1647.94,749.466 1650.11,749.466 1652.28,749.467 1654.45,749.468 1656.62,749.468 1658.79,749.469 1660.96,749.47 1663.13,749.47 1665.29,749.471 1667.46,749.472 1669.63,749.473 1671.8,749.474 1673.97,749.474 1676.14,749.475 1678.31,749.476 1680.47,749.477 1682.64,749.478 1684.81,749.479 1686.98,749.48 1689.15,749.481 1691.32,749.482 1693.49,749.483 1695.65,749.484 1697.82,749.485 1699.99,749.486 1702.16,749.487 1704.33,749.488 1706.5,749.489 1708.67,749.49 1710.84,749.491 1713,749.492 1715.17,749.493 1717.34,749.494 1719.51,749.495 1721.68,749.496 1723.85,749.497 1726.02,749.498 1728.18,749.5 1730.35,749.501 1732.52,749.502 1734.69,749.503 1736.86,749.504 1739.03,749.505 1741.2,749.507 1743.37,749.508 1745.53,749.509 1747.7,749.51 1749.87,749.512 1752.04,749.513 1754.21,749.514 1756.38,749.516 1758.55,749.517 1760.71,749.518 1762.88,749.52 1765.05,749.521 1767.22,749.522 1769.39,749.524 1771.56,749.525 1773.73,749.526 1775.89,749.528 1778.06,749.529 1780.23,749.531 1782.4,749.532 1784.57,749.533 1786.74,749.535 1788.91,749.536 1791.08,749.538 1793.24,749.539 1795.41,749.541 1797.58,749.542 1799.75,749.544 1801.92,749.545 1804.09,749.547 1806.26,749.548 1808.42,749.55 1810.59,749.552 1812.76,749.553 1814.93,749.555 1817.1,749.556 1819.27,749.558 1821.44,749.56 1823.61,749.561 1825.77,749.563 1827.94,749.564 1830.11,749.566 1832.28,749.568 1834.45,749.569 1836.62,749.571 1838.79,749.573 1840.95,749.574 1843.12,749.576 1845.29,749.578 1847.46,749.58 1849.63,749.581 1851.8,749.583 1853.97,749.585 1856.13,749.586 1858.3,749.588 1860.47,749.59 1862.64,749.592 1864.81,749.593 1866.98,749.595 1869.15,749.597 1871.32,749.599 1873.48,749.601 1875.65,749.602 1877.82,749.604 1879.99,749.606 1882.16,749.608 1884.33,749.61 1886.5,749.611 1888.66,749.613 1890.83,749.615 1893,749.617 1895.17,749.619 1897.34,749.621 1899.51,749.622 1901.68,749.624 1903.85,749.626 1906.01,749.628 1908.18,749.63 1910.35,749.632 1912.52,749.633 1914.69,749.635 1916.86,749.637 1919.03,749.639 1921.19,749.641 1923.36,749.643 1925.53,749.645 1927.7,749.647 1929.87,749.648 1932.04,749.65 1934.21,749.652 1936.37,749.654 1938.54,749.656 1940.71,749.658 1942.88,749.66 1945.05,749.662 1947.22,749.663 1949.39,749.665 1951.56,749.667 1953.72,749.669 1955.89,749.671 1958.06,749.673 1960.23,749.675 1962.4,749.676 1964.57,749.678 1966.74,749.68 1968.9,749.682 1971.07,749.684 1973.24,749.686 1975.41,749.687 1977.58,749.689 1979.75,749.691 1981.92,749.693 1984.09,749.695 1986.25,749.697 1988.42,749.698 1990.59,749.7 1992.76,749.702 1994.93,749.704 1997.1,749.705 1999.27,749.707 2001.43,749.709 2003.6,749.711 2005.77,749.713 2007.94,749.714 2010.11,749.716 2012.28,749.718 2014.45,749.719 2016.62,749.721 2018.78,749.723 2020.95,749.724 2023.12,749.726 2025.29,749.728 2027.46,749.729 2029.63,749.731 2031.8,749.733 2033.96,749.734 2036.13,749.736 2038.3,749.738 2040.47,749.739 2042.64,749.741 2044.81,749.742 2046.98,749.744 2049.14,749.745 2051.31,749.747 2053.48,749.748 2055.65,749.75 2057.82,749.752 2059.99,749.753 2062.16,749.755 2064.33,749.756 2066.49,749.758 2068.66,749.759 2070.83,749.761 2073,749.762 2075.17,749.764 2077.34,749.765 2079.51,749.767 2081.67,749.768 2083.84,749.77 2086.01,749.771 2088.18,749.773 2090.35,749.774 2092.52,749.775 2094.69,749.777 2096.86,749.778 2099.02,749.78 2101.19,749.781 2103.36,749.783 2105.53,749.784 2107.7,749.786 2109.87,749.787 2112.04,749.788 2114.2,749.79 2116.37,749.791 2118.54,749.793 2120.71,749.794 2122.88,749.795 2125.05,749.797 2127.22,749.798 2129.38,749.8 2131.55,749.801 2133.72,749.802 2135.89,749.804 2138.06,749.805 2140.23,749.807 2142.4,749.808 2144.57,749.809 2146.73,749.811 2148.9,749.812 2151.07,749.813 2153.24,749.815 2155.41,749.816 2157.58,749.817 2159.75,749.819 2161.91,749.82 2164.08,749.821 2166.25,749.823 2168.42,749.824 2170.59,749.825 2172.76,749.827 2174.93,749.828 2177.1,749.829 2179.26,749.83 2181.43,749.832 2183.6,749.833 2185.77,749.834 2187.94,749.836 2190.11,749.837 2192.28,749.838 2194.44,749.839 2196.61,749.841 2198.78,749.842 2200.95,749.843 2203.12,749.844 2205.29,749.846 2207.46,749.847 2209.62,749.848 2211.79,749.849 2213.96,749.85 2216.13,749.852 2218.3,749.853 2220.47,749.854 2222.64,749.855 2224.81,749.857 2226.97,749.858 2229.14,749.859 2231.31,749.86 2233.48,749.861 2235.65,749.862 2237.82,749.864 2239.99,749.865 2242.15,749.866 2244.32,749.867 2246.49,749.868 2248.66,749.869 2250.83,749.871 2253,749.872 2255.17,749.873 2257.34,749.874 2259.5,749.875 2261.67,749.876 2263.84,749.877 2266.01,749.879 2268.18,749.88 2270.35,749.881 2272.52,749.882 2274.68,749.883 2276.85,749.884 2279.02,749.885 2281.19,749.886 2283.36,749.887 2285.53,749.888 2287.7,749.89 2289.87,749.891 2292.03,749.892 2294.2,749.893 2296.37,749.894 2298.54,749.895 2300.71,749.896 2302.88,749.897 2305.05,749.898 2307.21,749.899 2309.38,749.9 2311.55,749.901 2313.72,749.902 2315.89,749.903 2318.06,749.904 2320.23,749.905 2322.39,749.906 2324.56,749.907 2326.73,749.908 2328.9,749.909 2331.07,749.91 2333.24,749.911 2335.41,749.912 2337.58,749.913 2339.74,749.914 2341.91,749.915 2344.08,749.916 2346.25,749.917 2348.42,749.918 2350.59,749.919 2352.76,749.919 "/>
<path clip-path="url(#clip480)" d="M1804.49 248.629 L2280.54 248.629 L2280.54 93.1086 L1804.49 93.1086  Z" fill="#ffffff" fill-rule="evenodd" fill-opacity="1"/>
<polyline clip-path="url(#clip480)" style="stroke:#000000; stroke-linecap:round; stroke-linejoin:round; stroke-width:4; stroke-opacity:1; fill:none" points="1804.49,248.629 2280.54,248.629 2280.54,93.1086 1804.49,93.1086 1804.49,248.629 "/>
<polyline clip-path="url(#clip480)" style="stroke:#009af9; stroke-linecap:round; stroke-linejoin:round; stroke-width:4; stroke-opacity:1; fill:none" points="1828.57,144.949 1973,144.949 "/>
<path clip-path="url(#clip480)" d="M1997.07 136.303 L2001.58 136.303 L2009.69 158.062 L2017.79 136.303 L2022.3 136.303 L2012.58 162.229 L2006.79 162.229 L1997.07 136.303 Z" fill="#000000" fill-rule="nonzero" fill-opacity="1" /><path clip-path="url(#clip480)" d="M2029.59 158.293 L2037.23 158.293 L2037.23 131.928 L2028.92 133.595 L2028.92 129.335 L2037.19 127.669 L2041.86 127.669 L2041.86 158.293 L2049.5 158.293 L2049.5 162.229 L2029.59 162.229 L2029.59 158.293 Z" fill="#000000" fill-rule="nonzero" fill-opacity="1" /><path clip-path="url(#clip480)" d="M2067.6 145.585 L2067.6 152.807 L2075.73 152.807 L2075.73 155.006 L2067.6 155.006 L2067.6 162.229 L2065.17 162.229 L2065.17 155.006 L2057.05 155.006 L2057.05 152.807 L2065.17 152.807 L2065.17 145.585 L2067.6 145.585 Z" fill="#000000" fill-rule="nonzero" fill-opacity="1" /><path clip-path="url(#clip480)" d="M2099.89 137.067 L2099.89 141.094 Q2098.09 140.169 2096.14 139.706 Q2094.2 139.243 2092.12 139.243 Q2088.95 139.243 2087.35 140.215 Q2085.77 141.187 2085.77 143.131 Q2085.77 144.613 2086.91 145.469 Q2088.04 146.303 2091.47 147.067 L2092.93 147.391 Q2097.46 148.363 2099.36 150.145 Q2101.28 151.905 2101.28 155.076 Q2101.28 158.687 2098.41 160.793 Q2095.57 162.9 2090.57 162.9 Q2088.48 162.9 2086.21 162.483 Q2083.97 162.09 2081.47 161.28 L2081.47 156.881 Q2083.83 158.108 2086.12 158.733 Q2088.41 159.335 2090.66 159.335 Q2093.67 159.335 2095.29 158.317 Q2096.91 157.275 2096.91 155.4 Q2096.91 153.664 2095.73 152.738 Q2094.57 151.812 2090.61 150.956 L2089.13 150.608 Q2085.17 149.775 2083.41 148.062 Q2081.65 146.326 2081.65 143.317 Q2081.65 139.659 2084.25 137.669 Q2086.84 135.678 2091.61 135.678 Q2093.97 135.678 2096.05 136.025 Q2098.14 136.372 2099.89 137.067 Z" fill="#000000" fill-rule="nonzero" fill-opacity="1" /><path clip-path="url(#clip480)" d="M2112.28 128.942 L2112.28 136.303 L2121.05 136.303 L2121.05 139.613 L2112.28 139.613 L2112.28 153.687 Q2112.28 156.858 2113.14 157.761 Q2114.01 158.664 2116.68 158.664 L2121.05 158.664 L2121.05 162.229 L2116.68 162.229 Q2111.75 162.229 2109.87 160.4 Q2108 158.548 2108 153.687 L2108 139.613 L2104.87 139.613 L2104.87 136.303 L2108 136.303 L2108 128.942 L2112.28 128.942 Z" fill="#000000" fill-rule="nonzero" fill-opacity="1" /><path clip-path="url(#clip480)" d="M2136.7 139.289 Q2133.27 139.289 2131.28 141.974 Q2129.29 144.636 2129.29 149.289 Q2129.29 153.942 2131.26 156.627 Q2133.25 159.289 2136.7 159.289 Q2140.1 159.289 2142.09 156.604 Q2144.08 153.918 2144.08 149.289 Q2144.08 144.682 2142.09 141.997 Q2140.1 139.289 2136.7 139.289 M2136.7 135.678 Q2142.26 135.678 2145.43 139.289 Q2148.6 142.9 2148.6 149.289 Q2148.6 155.655 2145.43 159.289 Q2142.26 162.9 2136.7 162.9 Q2131.12 162.9 2127.95 159.289 Q2124.8 155.655 2124.8 149.289 Q2124.8 142.9 2127.95 139.289 Q2131.12 135.678 2136.7 135.678 Z" fill="#000000" fill-rule="nonzero" fill-opacity="1" /><path clip-path="url(#clip480)" d="M2170.68 140.284 Q2169.96 139.868 2169.11 139.682 Q2168.27 139.474 2167.26 139.474 Q2163.64 139.474 2161.7 141.835 Q2159.78 144.173 2159.78 148.571 L2159.78 162.229 L2155.5 162.229 L2155.5 136.303 L2159.78 136.303 L2159.78 140.331 Q2161.12 137.969 2163.27 136.835 Q2165.43 135.678 2168.51 135.678 Q2168.95 135.678 2169.48 135.747 Q2170.01 135.794 2170.66 135.909 L2170.68 140.284 Z" fill="#000000" fill-rule="nonzero" fill-opacity="1" /><path clip-path="url(#clip480)" d="M2186.93 149.196 Q2181.77 149.196 2179.78 150.377 Q2177.79 151.557 2177.79 154.405 Q2177.79 156.673 2179.27 158.016 Q2180.77 159.335 2183.34 159.335 Q2186.88 159.335 2189.01 156.835 Q2191.17 154.312 2191.17 150.145 L2191.17 149.196 L2186.93 149.196 M2195.43 147.437 L2195.43 162.229 L2191.17 162.229 L2191.17 158.293 Q2189.71 160.655 2187.53 161.789 Q2185.36 162.9 2182.21 162.9 Q2178.23 162.9 2175.87 160.678 Q2173.53 158.432 2173.53 154.682 Q2173.53 150.307 2176.45 148.085 Q2179.38 145.863 2185.2 145.863 L2191.17 145.863 L2191.17 145.446 Q2191.17 142.507 2189.22 140.909 Q2187.3 139.289 2183.81 139.289 Q2181.58 139.289 2179.48 139.821 Q2177.37 140.354 2175.43 141.419 L2175.43 137.483 Q2177.76 136.581 2179.96 136.141 Q2182.16 135.678 2184.25 135.678 Q2189.87 135.678 2192.65 138.594 Q2195.43 141.511 2195.43 147.437 Z" fill="#000000" fill-rule="nonzero" fill-opacity="1" /><path clip-path="url(#clip480)" d="M2221.26 148.965 Q2221.26 144.335 2219.34 141.789 Q2217.44 139.243 2213.99 139.243 Q2210.57 139.243 2208.64 141.789 Q2206.75 144.335 2206.75 148.965 Q2206.75 153.571 2208.64 156.118 Q2210.57 158.664 2213.99 158.664 Q2217.44 158.664 2219.34 156.118 Q2221.26 153.571 2221.26 148.965 M2225.52 159.011 Q2225.52 165.631 2222.58 168.849 Q2219.64 172.09 2213.57 172.09 Q2211.33 172.09 2209.34 171.742 Q2207.35 171.418 2205.47 170.724 L2205.47 166.58 Q2207.35 167.599 2209.18 168.085 Q2211.01 168.571 2212.9 168.571 Q2217.09 168.571 2219.18 166.372 Q2221.26 164.196 2221.26 159.775 L2221.26 157.668 Q2219.94 159.96 2217.88 161.094 Q2215.82 162.229 2212.95 162.229 Q2208.18 162.229 2205.26 158.594 Q2202.35 154.96 2202.35 148.965 Q2202.35 142.946 2205.26 139.312 Q2208.18 135.678 2212.95 135.678 Q2215.82 135.678 2217.88 136.812 Q2219.94 137.946 2221.26 140.238 L2221.26 136.303 L2225.52 136.303 L2225.52 159.011 Z" fill="#000000" fill-rule="nonzero" fill-opacity="1" /><path clip-path="url(#clip480)" d="M2256.47 148.201 L2256.47 150.284 L2236.88 150.284 Q2237.16 154.682 2239.52 156.997 Q2241.91 159.289 2246.14 159.289 Q2248.6 159.289 2250.89 158.687 Q2253.2 158.085 2255.47 156.881 L2255.47 160.909 Q2253.18 161.881 2250.77 162.391 Q2248.37 162.9 2245.89 162.9 Q2239.69 162.9 2236.05 159.289 Q2232.44 155.678 2232.44 149.52 Q2232.44 143.155 2235.87 139.428 Q2239.32 135.678 2245.15 135.678 Q2250.38 135.678 2253.41 139.057 Q2256.47 142.414 2256.47 148.201 M2252.21 146.951 Q2252.16 143.456 2250.24 141.372 Q2248.34 139.289 2245.19 139.289 Q2241.63 139.289 2239.48 141.303 Q2237.35 143.317 2237.02 146.974 L2252.21 146.951 Z" fill="#000000" fill-rule="nonzero" fill-opacity="1" /><polyline clip-path="url(#clip480)" style="stroke:#e26f46; stroke-linecap:round; stroke-linejoin:round; stroke-width:4; stroke-opacity:1; fill:none" points="1828.57,196.789 1973,196.789 "/>
<path clip-path="url(#clip480)" d="M1997.07 188.143 L2001.58 188.143 L2009.69 209.902 L2017.79 188.143 L2022.3 188.143 L2012.58 214.069 L2006.79 214.069 L1997.07 188.143 Z" fill="#000000" fill-rule="nonzero" fill-opacity="1" /><path clip-path="url(#clip480)" d="M2028.83 179.509 L2047.19 179.509 L2047.19 183.444 L2033.11 183.444 L2033.11 191.916 Q2034.13 191.569 2035.15 191.407 Q2036.17 191.222 2037.19 191.222 Q2042.97 191.222 2046.35 194.393 Q2049.73 197.564 2049.73 202.981 Q2049.73 208.559 2046.26 211.661 Q2042.79 214.74 2036.47 214.74 Q2034.29 214.74 2032.02 214.37 Q2029.78 213.999 2027.37 213.258 L2027.37 208.559 Q2029.46 209.694 2031.68 210.249 Q2033.9 210.805 2036.38 210.805 Q2040.38 210.805 2042.72 208.698 Q2045.06 206.592 2045.06 202.981 Q2045.06 199.37 2042.72 197.263 Q2040.38 195.157 2036.38 195.157 Q2034.5 195.157 2032.63 195.573 Q2030.77 195.99 2028.83 196.87 L2028.83 179.509 Z" fill="#000000" fill-rule="nonzero" fill-opacity="1" /><path clip-path="url(#clip480)" d="M2067.6 197.425 L2067.6 204.647 L2075.73 204.647 L2075.73 206.846 L2067.6 206.846 L2067.6 214.069 L2065.17 214.069 L2065.17 206.846 L2057.05 206.846 L2057.05 204.647 L2065.17 204.647 L2065.17 197.425 L2067.6 197.425 Z" fill="#000000" fill-rule="nonzero" fill-opacity="1" /><path clip-path="url(#clip480)" d="M2099.89 188.907 L2099.89 192.934 Q2098.09 192.009 2096.14 191.546 Q2094.2 191.083 2092.12 191.083 Q2088.95 191.083 2087.35 192.055 Q2085.77 193.027 2085.77 194.971 Q2085.77 196.453 2086.91 197.309 Q2088.04 198.143 2091.47 198.907 L2092.93 199.231 Q2097.46 200.203 2099.36 201.985 Q2101.28 203.745 2101.28 206.916 Q2101.28 210.527 2098.41 212.633 Q2095.57 214.74 2090.57 214.74 Q2088.48 214.74 2086.21 214.323 Q2083.97 213.93 2081.47 213.12 L2081.47 208.721 Q2083.83 209.948 2086.12 210.573 Q2088.41 211.175 2090.66 211.175 Q2093.67 211.175 2095.29 210.157 Q2096.91 209.115 2096.91 207.24 Q2096.91 205.504 2095.73 204.578 Q2094.57 203.652 2090.61 202.796 L2089.13 202.448 Q2085.17 201.615 2083.41 199.902 Q2081.65 198.166 2081.65 195.157 Q2081.65 191.499 2084.25 189.509 Q2086.84 187.518 2091.61 187.518 Q2093.97 187.518 2096.05 187.865 Q2098.14 188.212 2099.89 188.907 Z" fill="#000000" fill-rule="nonzero" fill-opacity="1" /><path clip-path="url(#clip480)" d="M2112.28 180.782 L2112.28 188.143 L2121.05 188.143 L2121.05 191.453 L2112.28 191.453 L2112.28 205.527 Q2112.28 208.698 2113.14 209.601 Q2114.01 210.504 2116.68 210.504 L2121.05 210.504 L2121.05 214.069 L2116.68 214.069 Q2111.75 214.069 2109.87 212.24 Q2108 210.388 2108 205.527 L2108 191.453 L2104.87 191.453 L2104.87 188.143 L2108 188.143 L2108 180.782 L2112.28 180.782 Z" fill="#000000" fill-rule="nonzero" fill-opacity="1" /><path clip-path="url(#clip480)" d="M2136.7 191.129 Q2133.27 191.129 2131.28 193.814 Q2129.29 196.476 2129.29 201.129 Q2129.29 205.782 2131.26 208.467 Q2133.25 211.129 2136.7 211.129 Q2140.1 211.129 2142.09 208.444 Q2144.08 205.758 2144.08 201.129 Q2144.08 196.522 2142.09 193.837 Q2140.1 191.129 2136.7 191.129 M2136.7 187.518 Q2142.26 187.518 2145.43 191.129 Q2148.6 194.74 2148.6 201.129 Q2148.6 207.495 2145.43 211.129 Q2142.26 214.74 2136.7 214.74 Q2131.12 214.74 2127.95 211.129 Q2124.8 207.495 2124.8 201.129 Q2124.8 194.74 2127.95 191.129 Q2131.12 187.518 2136.7 187.518 Z" fill="#000000" fill-rule="nonzero" fill-opacity="1" /><path clip-path="url(#clip480)" d="M2170.68 192.124 Q2169.96 191.708 2169.11 191.522 Q2168.27 191.314 2167.26 191.314 Q2163.64 191.314 2161.7 193.675 Q2159.78 196.013 2159.78 200.411 L2159.78 214.069 L2155.5 214.069 L2155.5 188.143 L2159.78 188.143 L2159.78 192.171 Q2161.12 189.809 2163.27 188.675 Q2165.43 187.518 2168.51 187.518 Q2168.95 187.518 2169.48 187.587 Q2170.01 187.634 2170.66 187.749 L2170.68 192.124 Z" fill="#000000" fill-rule="nonzero" fill-opacity="1" /><path clip-path="url(#clip480)" d="M2186.93 201.036 Q2181.77 201.036 2179.78 202.217 Q2177.79 203.397 2177.79 206.245 Q2177.79 208.513 2179.27 209.856 Q2180.77 211.175 2183.34 211.175 Q2186.88 211.175 2189.01 208.675 Q2191.17 206.152 2191.17 201.985 L2191.17 201.036 L2186.93 201.036 M2195.43 199.277 L2195.43 214.069 L2191.17 214.069 L2191.17 210.133 Q2189.71 212.495 2187.53 213.629 Q2185.36 214.74 2182.21 214.74 Q2178.23 214.74 2175.87 212.518 Q2173.53 210.272 2173.53 206.522 Q2173.53 202.147 2176.45 199.925 Q2179.38 197.703 2185.2 197.703 L2191.17 197.703 L2191.17 197.286 Q2191.17 194.347 2189.22 192.749 Q2187.3 191.129 2183.81 191.129 Q2181.58 191.129 2179.48 191.661 Q2177.37 192.194 2175.43 193.259 L2175.43 189.323 Q2177.76 188.421 2179.96 187.981 Q2182.16 187.518 2184.25 187.518 Q2189.87 187.518 2192.65 190.434 Q2195.43 193.351 2195.43 199.277 Z" fill="#000000" fill-rule="nonzero" fill-opacity="1" /><path clip-path="url(#clip480)" d="M2221.26 200.805 Q2221.26 196.175 2219.34 193.629 Q2217.44 191.083 2213.99 191.083 Q2210.57 191.083 2208.64 193.629 Q2206.75 196.175 2206.75 200.805 Q2206.75 205.411 2208.64 207.958 Q2210.57 210.504 2213.99 210.504 Q2217.44 210.504 2219.34 207.958 Q2221.26 205.411 2221.26 200.805 M2225.52 210.851 Q2225.52 217.471 2222.58 220.689 Q2219.64 223.93 2213.57 223.93 Q2211.33 223.93 2209.34 223.582 Q2207.35 223.258 2205.47 222.564 L2205.47 218.42 Q2207.35 219.439 2209.18 219.925 Q2211.01 220.411 2212.9 220.411 Q2217.09 220.411 2219.18 218.212 Q2221.26 216.036 2221.26 211.615 L2221.26 209.508 Q2219.94 211.8 2217.88 212.934 Q2215.82 214.069 2212.95 214.069 Q2208.18 214.069 2205.26 210.434 Q2202.35 206.8 2202.35 200.805 Q2202.35 194.786 2205.26 191.152 Q2208.18 187.518 2212.95 187.518 Q2215.82 187.518 2217.88 188.652 Q2219.94 189.786 2221.26 192.078 L2221.26 188.143 L2225.52 188.143 L2225.52 210.851 Z" fill="#000000" fill-rule="nonzero" fill-opacity="1" /><path clip-path="url(#clip480)" d="M2256.47 200.041 L2256.47 202.124 L2236.88 202.124 Q2237.16 206.522 2239.52 208.837 Q2241.91 211.129 2246.14 211.129 Q2248.6 211.129 2250.89 210.527 Q2253.2 209.925 2255.47 208.721 L2255.47 212.749 Q2253.18 213.721 2250.77 214.231 Q2248.37 214.74 2245.89 214.74 Q2239.69 214.74 2236.05 211.129 Q2232.44 207.518 2232.44 201.36 Q2232.44 194.995 2235.87 191.268 Q2239.32 187.518 2245.15 187.518 Q2250.38 187.518 2253.41 190.897 Q2256.47 194.254 2256.47 200.041 M2252.21 198.791 Q2252.16 195.296 2250.24 193.212 Q2248.34 191.129 2245.19 191.129 Q2241.63 191.129 2239.48 193.143 Q2237.35 195.157 2237.02 198.814 L2252.21 198.791 Z" fill="#000000" fill-rule="nonzero" fill-opacity="1" /></svg>
