<?xml version="1.0" encoding="utf-8"?>
<svg xmlns="http://www.w3.org/2000/svg" xmlns:xlink="http://www.w3.org/1999/xlink" width="600" height="400" viewBox="0 0 2400 1600">
<defs>
  <clipPath id="clip370">
    <rect x="0" y="0" width="2400" height="1600"/>
  </clipPath>
</defs>
<path clip-path="url(#clip370)" d="M0 1600 L2400 1600 L2400 0 L0 0  Z" fill="#ffffff" fill-rule="evenodd" fill-opacity="1"/>
<defs>
  <clipPath id="clip371">
    <rect x="480" y="0" width="1681" height="1600"/>
  </clipPath>
</defs>
<path clip-path="url(#clip370)" d="M194.422 1423.18 L2352.76 1423.18 L2352.76 47.2441 L194.422 47.2441  Z" fill="#ffffff" fill-rule="evenodd" fill-opacity="1"/>
<defs>
  <clipPath id="clip372">
    <rect x="194" y="47" width="2159" height="1377"/>
  </clipPath>
</defs>
<polyline clip-path="url(#clip372)" style="stroke:#000000; stroke-linecap:round; stroke-linejoin:round; stroke-width:2; stroke-opacity:0.1; fill:none" points="194.422,1423.18 194.422,47.2441 "/>
<polyline clip-path="url(#clip372)" style="stroke:#000000; stroke-linecap:round; stroke-linejoin:round; stroke-width:2; stroke-opacity:0.1; fill:none" points="734.006,1423.18 734.006,47.2441 "/>
<polyline clip-path="url(#clip372)" style="stroke:#000000; stroke-linecap:round; stroke-linejoin:round; stroke-width:2; stroke-opacity:0.1; fill:none" points="1273.59,1423.18 1273.59,47.2441 "/>
<polyline clip-path="url(#clip372)" style="stroke:#000000; stroke-linecap:round; stroke-linejoin:round; stroke-width:2; stroke-opacity:0.1; fill:none" points="1813.17,1423.18 1813.17,47.2441 "/>
<polyline clip-path="url(#clip372)" style="stroke:#000000; stroke-linecap:round; stroke-linejoin:round; stroke-width:2; stroke-opacity:0.1; fill:none" points="2352.76,1423.18 2352.76,47.2441 "/>
<polyline clip-path="url(#clip372)" style="stroke:#000000; stroke-linecap:round; stroke-linejoin:round; stroke-width:2; stroke-opacity:0.1; fill:none" points="194.422,1299.3 2352.76,1299.3 "/>
<polyline clip-path="url(#clip372)" style="stroke:#000000; stroke-linecap:round; stroke-linejoin:round; stroke-width:2; stroke-opacity:0.1; fill:none" points="194.422,1023.08 2352.76,1023.08 "/>
<polyline clip-path="url(#clip372)" style="stroke:#000000; stroke-linecap:round; stroke-linejoin:round; stroke-width:2; stroke-opacity:0.1; fill:none" points="194.422,746.855 2352.76,746.855 "/>
<polyline clip-path="url(#clip372)" style="stroke:#000000; stroke-linecap:round; stroke-linejoin:round; stroke-width:2; stroke-opacity:0.1; fill:none" points="194.422,470.633 2352.76,470.633 "/>
<polyline clip-path="url(#clip372)" style="stroke:#000000; stroke-linecap:round; stroke-linejoin:round; stroke-width:2; stroke-opacity:0.1; fill:none" points="194.422,194.411 2352.76,194.411 "/>
<polyline clip-path="url(#clip370)" style="stroke:#000000; stroke-linecap:round; stroke-linejoin:round; stroke-width:4; stroke-opacity:1; fill:none" points="194.422,1423.18 2352.76,1423.18 "/>
<polyline clip-path="url(#clip370)" style="stroke:#000000; stroke-linecap:round; stroke-linejoin:round; stroke-width:4; stroke-opacity:1; fill:none" points="194.422,1423.18 194.422,1404.28 "/>
<polyline clip-path="url(#clip370)" style="stroke:#000000; stroke-linecap:round; stroke-linejoin:round; stroke-width:4; stroke-opacity:1; fill:none" points="734.006,1423.18 734.006,1404.28 "/>
<polyline clip-path="url(#clip370)" style="stroke:#000000; stroke-linecap:round; stroke-linejoin:round; stroke-width:4; stroke-opacity:1; fill:none" points="1273.59,1423.18 1273.59,1404.28 "/>
<polyline clip-path="url(#clip370)" style="stroke:#000000; stroke-linecap:round; stroke-linejoin:round; stroke-width:4; stroke-opacity:1; fill:none" points="1813.17,1423.18 1813.17,1404.28 "/>
<polyline clip-path="url(#clip370)" style="stroke:#000000; stroke-linecap:round; stroke-linejoin:round; stroke-width:4; stroke-opacity:1; fill:none" points="2352.76,1423.18 2352.76,1404.28 "/>
<path clip-path="url(#clip370)" d="M171.806 1454.1 Q168.195 1454.1 166.367 1457.66 Q164.561 1461.2 164.561 1468.33 Q164.561 1475.44 166.367 1479.01 Q168.195 1482.55 171.806 1482.55 Q175.441 1482.55 177.246 1479.01 Q179.075 1475.44 179.075 1468.33 Q179.075 1461.2 177.246 1457.66 Q175.441 1454.1 171.806 1454.1 M171.806 1450.39 Q177.617 1450.39 180.672 1455 Q183.751 1459.58 183.751 1468.33 Q183.751 1477.06 180.672 1481.67 Q177.617 1486.25 171.806 1486.25 Q165.996 1486.25 162.918 1481.67 Q159.862 1477.06 159.862 1468.33 Q159.862 1459.58 162.918 1455 Q165.996 1450.39 171.806 1450.39 Z" fill="#000000" fill-rule="nonzero" fill-opacity="1" /><path clip-path="url(#clip370)" d="M191.968 1479.7 L196.853 1479.7 L196.853 1485.58 L191.968 1485.58 L191.968 1479.7 Z" fill="#000000" fill-rule="nonzero" fill-opacity="1" /><path clip-path="url(#clip370)" d="M217.038 1454.1 Q213.427 1454.1 211.598 1457.66 Q209.792 1461.2 209.792 1468.33 Q209.792 1475.44 211.598 1479.01 Q213.427 1482.55 217.038 1482.55 Q220.672 1482.55 222.478 1479.01 Q224.306 1475.44 224.306 1468.33 Q224.306 1461.2 222.478 1457.66 Q220.672 1454.1 217.038 1454.1 M217.038 1450.39 Q222.848 1450.39 225.903 1455 Q228.982 1459.58 228.982 1468.33 Q228.982 1477.06 225.903 1481.67 Q222.848 1486.25 217.038 1486.25 Q211.228 1486.25 208.149 1481.67 Q205.093 1477.06 205.093 1468.33 Q205.093 1459.58 208.149 1455 Q211.228 1450.39 217.038 1450.39 Z" fill="#000000" fill-rule="nonzero" fill-opacity="1" /><path clip-path="url(#clip370)" d="M711.888 1454.1 Q708.277 1454.1 706.448 1457.66 Q704.642 1461.2 704.642 1468.33 Q704.642 1475.44 706.448 1479.01 Q708.277 1482.55 711.888 1482.55 Q715.522 1482.55 717.327 1479.01 Q719.156 1475.44 719.156 1468.33 Q719.156 1461.2 717.327 1457.66 Q715.522 1454.1 711.888 1454.1 M711.888 1450.39 Q717.698 1450.39 720.753 1455 Q723.832 1459.58 723.832 1468.33 Q723.832 1477.06 720.753 1481.67 Q717.698 1486.25 711.888 1486.25 Q706.077 1486.25 702.999 1481.67 Q699.943 1477.06 699.943 1468.33 Q699.943 1459.58 702.999 1455 Q706.077 1450.39 711.888 1450.39 Z" fill="#000000" fill-rule="nonzero" fill-opacity="1" /><path clip-path="url(#clip370)" d="M732.05 1479.7 L736.934 1479.7 L736.934 1485.58 L732.05 1485.58 L732.05 1479.7 Z" fill="#000000" fill-rule="nonzero" fill-opacity="1" /><path clip-path="url(#clip370)" d="M747.165 1451.02 L765.522 1451.02 L765.522 1454.96 L751.448 1454.96 L751.448 1463.43 Q752.466 1463.08 753.485 1462.92 Q754.503 1462.73 755.522 1462.73 Q761.309 1462.73 764.688 1465.9 Q768.068 1469.08 768.068 1474.49 Q768.068 1480.07 764.596 1483.17 Q761.123 1486.25 754.804 1486.25 Q752.628 1486.25 750.36 1485.88 Q748.114 1485.51 745.707 1484.77 L745.707 1480.07 Q747.79 1481.2 750.012 1481.76 Q752.235 1482.32 754.711 1482.32 Q758.716 1482.32 761.054 1480.21 Q763.392 1478.1 763.392 1474.49 Q763.392 1470.88 761.054 1468.77 Q758.716 1466.67 754.711 1466.67 Q752.836 1466.67 750.961 1467.08 Q749.11 1467.5 747.165 1468.38 L747.165 1451.02 Z" fill="#000000" fill-rule="nonzero" fill-opacity="1" /><path clip-path="url(#clip370)" d="M1240.74 1481.64 L1248.38 1481.64 L1248.38 1455.28 L1240.07 1456.95 L1240.07 1452.69 L1248.33 1451.02 L1253.01 1451.02 L1253.01 1481.64 L1260.65 1481.64 L1260.65 1485.58 L1240.74 1485.58 L1240.74 1481.64 Z" fill="#000000" fill-rule="nonzero" fill-opacity="1" /><path clip-path="url(#clip370)" d="M1270.09 1479.7 L1274.98 1479.7 L1274.98 1485.58 L1270.09 1485.58 L1270.09 1479.7 Z" fill="#000000" fill-rule="nonzero" fill-opacity="1" /><path clip-path="url(#clip370)" d="M1295.16 1454.1 Q1291.55 1454.1 1289.72 1457.66 Q1287.92 1461.2 1287.92 1468.33 Q1287.92 1475.44 1289.72 1479.01 Q1291.55 1482.55 1295.16 1482.55 Q1298.8 1482.55 1300.6 1479.01 Q1302.43 1475.44 1302.43 1468.33 Q1302.43 1461.2 1300.6 1457.66 Q1298.8 1454.1 1295.16 1454.1 M1295.16 1450.39 Q1300.97 1450.39 1304.03 1455 Q1307.11 1459.58 1307.11 1468.33 Q1307.11 1477.06 1304.03 1481.67 Q1300.97 1486.25 1295.16 1486.25 Q1289.35 1486.25 1286.27 1481.67 Q1283.22 1477.06 1283.22 1468.33 Q1283.22 1459.58 1286.27 1455 Q1289.35 1450.39 1295.16 1450.39 Z" fill="#000000" fill-rule="nonzero" fill-opacity="1" /><path clip-path="url(#clip370)" d="M1780.82 1481.64 L1788.46 1481.64 L1788.46 1455.28 L1780.15 1456.95 L1780.15 1452.69 L1788.42 1451.02 L1793.09 1451.02 L1793.09 1481.64 L1800.73 1481.64 L1800.73 1485.58 L1780.82 1485.58 L1780.82 1481.64 Z" fill="#000000" fill-rule="nonzero" fill-opacity="1" /><path clip-path="url(#clip370)" d="M1810.17 1479.7 L1815.06 1479.7 L1815.06 1485.58 L1810.17 1485.58 L1810.17 1479.7 Z" fill="#000000" fill-rule="nonzero" fill-opacity="1" /><path clip-path="url(#clip370)" d="M1825.29 1451.02 L1843.65 1451.02 L1843.65 1454.96 L1829.57 1454.96 L1829.57 1463.43 Q1830.59 1463.08 1831.61 1462.92 Q1832.63 1462.73 1833.65 1462.73 Q1839.43 1462.73 1842.81 1465.9 Q1846.19 1469.08 1846.19 1474.49 Q1846.19 1480.07 1842.72 1483.17 Q1839.25 1486.25 1832.93 1486.25 Q1830.75 1486.25 1828.48 1485.88 Q1826.24 1485.51 1823.83 1484.77 L1823.83 1480.07 Q1825.92 1481.2 1828.14 1481.76 Q1830.36 1482.32 1832.84 1482.32 Q1836.84 1482.32 1839.18 1480.21 Q1841.52 1478.1 1841.52 1474.49 Q1841.52 1470.88 1839.18 1468.77 Q1836.84 1466.67 1832.84 1466.67 Q1830.96 1466.67 1829.09 1467.08 Q1827.23 1467.5 1825.29 1468.38 L1825.29 1451.02 Z" fill="#000000" fill-rule="nonzero" fill-opacity="1" /><path clip-path="url(#clip370)" d="M2323.99 1481.64 L2340.31 1481.64 L2340.31 1485.58 L2318.37 1485.58 L2318.37 1481.64 Q2321.03 1478.89 2325.61 1474.26 Q2330.22 1469.61 2331.4 1468.27 Q2333.65 1465.74 2334.53 1464.01 Q2335.43 1462.25 2335.43 1460.56 Q2335.43 1457.8 2333.49 1456.07 Q2331.56 1454.33 2328.46 1454.33 Q2326.26 1454.33 2323.81 1455.09 Q2321.38 1455.86 2318.6 1457.41 L2318.6 1452.69 Q2321.43 1451.55 2323.88 1450.97 Q2326.33 1450.39 2328.37 1450.39 Q2333.74 1450.39 2336.93 1453.08 Q2340.13 1455.77 2340.13 1460.26 Q2340.13 1462.39 2339.32 1464.31 Q2338.53 1466.2 2336.42 1468.8 Q2335.85 1469.47 2332.74 1472.69 Q2329.64 1475.88 2323.99 1481.64 Z" fill="#000000" fill-rule="nonzero" fill-opacity="1" /><path clip-path="url(#clip370)" d="M2350.13 1479.7 L2355.01 1479.7 L2355.01 1485.58 L2350.13 1485.58 L2350.13 1479.7 Z" fill="#000000" fill-rule="nonzero" fill-opacity="1" /><path clip-path="url(#clip370)" d="M2375.2 1454.1 Q2371.59 1454.1 2369.76 1457.66 Q2367.95 1461.2 2367.95 1468.33 Q2367.95 1475.44 2369.76 1479.01 Q2371.59 1482.55 2375.2 1482.55 Q2378.83 1482.55 2380.64 1479.01 Q2382.47 1475.44 2382.47 1468.33 Q2382.47 1461.2 2380.64 1457.66 Q2378.83 1454.1 2375.2 1454.1 M2375.2 1450.39 Q2381.01 1450.39 2384.06 1455 Q2387.14 1459.58 2387.14 1468.33 Q2387.14 1477.06 2384.06 1481.67 Q2381.01 1486.25 2375.2 1486.25 Q2369.39 1486.25 2366.31 1481.67 Q2363.25 1477.06 2363.25 1468.33 Q2363.25 1459.58 2366.31 1455 Q2369.39 1450.39 2375.2 1450.39 Z" fill="#000000" fill-rule="nonzero" fill-opacity="1" /><path clip-path="url(#clip370)" d="M1272.65 1522.27 L1272.65 1532.4 L1284.71 1532.4 L1284.71 1536.95 L1272.65 1536.95 L1272.65 1556.3 Q1272.65 1560.66 1273.83 1561.9 Q1275.04 1563.14 1278.7 1563.14 L1284.71 1563.14 L1284.71 1568.04 L1278.7 1568.04 Q1271.92 1568.04 1269.34 1565.53 Q1266.76 1562.98 1266.76 1556.3 L1266.76 1536.95 L1262.46 1536.95 L1262.46 1532.4 L1266.76 1532.4 L1266.76 1522.27 L1272.65 1522.27 Z" fill="#000000" fill-rule="nonzero" fill-opacity="1" /><polyline clip-path="url(#clip370)" style="stroke:#000000; stroke-linecap:round; stroke-linejoin:round; stroke-width:4; stroke-opacity:1; fill:none" points="194.422,1423.18 194.422,47.2441 "/>
<polyline clip-path="url(#clip370)" style="stroke:#000000; stroke-linecap:round; stroke-linejoin:round; stroke-width:4; stroke-opacity:1; fill:none" points="194.422,1299.3 213.32,1299.3 "/>
<polyline clip-path="url(#clip370)" style="stroke:#000000; stroke-linecap:round; stroke-linejoin:round; stroke-width:4; stroke-opacity:1; fill:none" points="194.422,1023.08 213.32,1023.08 "/>
<polyline clip-path="url(#clip370)" style="stroke:#000000; stroke-linecap:round; stroke-linejoin:round; stroke-width:4; stroke-opacity:1; fill:none" points="194.422,746.855 213.32,746.855 "/>
<polyline clip-path="url(#clip370)" style="stroke:#000000; stroke-linecap:round; stroke-linejoin:round; stroke-width:4; stroke-opacity:1; fill:none" points="194.422,470.633 213.32,470.633 "/>
<polyline clip-path="url(#clip370)" style="stroke:#000000; stroke-linecap:round; stroke-linejoin:round; stroke-width:4; stroke-opacity:1; fill:none" points="194.422,194.411 213.32,194.411 "/>
<path clip-path="url(#clip370)" d="M51.5708 1299.75 L81.2466 1299.75 L81.2466 1303.69 L51.5708 1303.69 L51.5708 1299.75 Z" fill="#000000" fill-rule="nonzero" fill-opacity="1" /><path clip-path="url(#clip370)" d="M101.339 1285.1 Q97.728 1285.1 95.8993 1288.66 Q94.0937 1292.2 94.0937 1299.33 Q94.0937 1306.44 95.8993 1310 Q97.728 1313.55 101.339 1313.55 Q104.973 1313.55 106.779 1310 Q108.608 1306.44 108.608 1299.33 Q108.608 1292.2 106.779 1288.66 Q104.973 1285.1 101.339 1285.1 M101.339 1281.39 Q107.149 1281.39 110.205 1286 Q113.283 1290.58 113.283 1299.33 Q113.283 1308.06 110.205 1312.67 Q107.149 1317.25 101.339 1317.25 Q95.5289 1317.25 92.4502 1312.67 Q89.3947 1308.06 89.3947 1299.33 Q89.3947 1290.58 92.4502 1286 Q95.5289 1281.39 101.339 1281.39 Z" fill="#000000" fill-rule="nonzero" fill-opacity="1" /><path clip-path="url(#clip370)" d="M121.501 1310.7 L126.385 1310.7 L126.385 1316.58 L121.501 1316.58 L121.501 1310.7 Z" fill="#000000" fill-rule="nonzero" fill-opacity="1" /><path clip-path="url(#clip370)" d="M146.57 1300.17 Q143.237 1300.17 141.316 1301.95 Q139.418 1303.73 139.418 1306.86 Q139.418 1309.98 141.316 1311.76 Q143.237 1313.55 146.57 1313.55 Q149.904 1313.55 151.825 1311.76 Q153.746 1309.96 153.746 1306.86 Q153.746 1303.73 151.825 1301.95 Q149.927 1300.17 146.57 1300.17 M141.894 1298.18 Q138.885 1297.44 137.195 1295.38 Q135.529 1293.32 135.529 1290.35 Q135.529 1286.21 138.469 1283.8 Q141.431 1281.39 146.57 1281.39 Q151.732 1281.39 154.672 1283.8 Q157.612 1286.21 157.612 1290.35 Q157.612 1293.32 155.922 1295.38 Q154.255 1297.44 151.269 1298.18 Q154.649 1298.96 156.524 1301.25 Q158.422 1303.55 158.422 1306.86 Q158.422 1311.88 155.343 1314.56 Q152.288 1317.25 146.57 1317.25 Q140.853 1317.25 137.774 1314.56 Q134.719 1311.88 134.719 1306.86 Q134.719 1303.55 136.617 1301.25 Q138.515 1298.96 141.894 1298.18 M140.181 1290.79 Q140.181 1293.48 141.848 1294.98 Q143.538 1296.49 146.57 1296.49 Q149.58 1296.49 151.269 1294.98 Q152.982 1293.48 152.982 1290.79 Q152.982 1288.11 151.269 1286.6 Q149.58 1285.1 146.57 1285.1 Q143.538 1285.1 141.848 1286.6 Q140.181 1288.11 140.181 1290.79 Z" fill="#000000" fill-rule="nonzero" fill-opacity="1" /><path clip-path="url(#clip370)" d="M51.3162 1023.53 L80.992 1023.53 L80.992 1027.46 L51.3162 1027.46 L51.3162 1023.53 Z" fill="#000000" fill-rule="nonzero" fill-opacity="1" /><path clip-path="url(#clip370)" d="M101.084 1008.88 Q97.4734 1008.88 95.6447 1012.44 Q93.8391 1015.98 93.8391 1023.11 Q93.8391 1030.22 95.6447 1033.78 Q97.4734 1037.32 101.084 1037.32 Q104.719 1037.32 106.524 1033.78 Q108.353 1030.22 108.353 1023.11 Q108.353 1015.98 106.524 1012.44 Q104.719 1008.88 101.084 1008.88 M101.084 1005.17 Q106.895 1005.17 109.95 1009.78 Q113.029 1014.36 113.029 1023.11 Q113.029 1031.84 109.95 1036.44 Q106.895 1041.03 101.084 1041.03 Q95.2743 1041.03 92.1956 1036.44 Q89.1401 1031.84 89.1401 1023.11 Q89.1401 1014.36 92.1956 1009.78 Q95.2743 1005.17 101.084 1005.17 Z" fill="#000000" fill-rule="nonzero" fill-opacity="1" /><path clip-path="url(#clip370)" d="M121.246 1034.48 L126.131 1034.48 L126.131 1040.36 L121.246 1040.36 L121.246 1034.48 Z" fill="#000000" fill-rule="nonzero" fill-opacity="1" /><path clip-path="url(#clip370)" d="M146.894 1021.21 Q143.746 1021.21 141.894 1023.37 Q140.066 1025.52 140.066 1029.27 Q140.066 1033 141.894 1035.17 Q143.746 1037.32 146.894 1037.32 Q150.043 1037.32 151.871 1035.17 Q153.723 1033 153.723 1029.27 Q153.723 1025.52 151.871 1023.37 Q150.043 1021.21 146.894 1021.21 M156.177 1006.56 L156.177 1010.82 Q154.417 1009.99 152.612 1009.55 Q150.83 1009.11 149.07 1009.11 Q144.441 1009.11 141.987 1012.23 Q139.556 1015.36 139.209 1021.68 Q140.575 1019.66 142.635 1018.6 Q144.695 1017.51 147.172 1017.51 Q152.38 1017.51 155.39 1020.68 Q158.422 1023.83 158.422 1029.27 Q158.422 1034.59 155.274 1037.81 Q152.126 1041.03 146.894 1041.03 Q140.899 1041.03 137.728 1036.44 Q134.556 1031.84 134.556 1023.11 Q134.556 1014.92 138.445 1010.06 Q142.334 1005.17 148.885 1005.17 Q150.644 1005.17 152.427 1005.52 Q154.232 1005.87 156.177 1006.56 Z" fill="#000000" fill-rule="nonzero" fill-opacity="1" /><path clip-path="url(#clip370)" d="M50.9921 747.306 L80.6679 747.306 L80.6679 751.242 L50.9921 751.242 L50.9921 747.306 Z" fill="#000000" fill-rule="nonzero" fill-opacity="1" /><path clip-path="url(#clip370)" d="M100.76 732.654 Q97.1493 732.654 95.3206 736.219 Q93.515 739.76 93.515 746.89 Q93.515 753.996 95.3206 757.561 Q97.1493 761.103 100.76 761.103 Q104.395 761.103 106.2 757.561 Q108.029 753.996 108.029 746.89 Q108.029 739.76 106.2 736.219 Q104.395 732.654 100.76 732.654 M100.76 728.95 Q106.571 728.95 109.626 733.557 Q112.705 738.14 112.705 746.89 Q112.705 755.617 109.626 760.223 Q106.571 764.806 100.76 764.806 Q94.9502 764.806 91.8715 760.223 Q88.816 755.617 88.816 746.89 Q88.816 738.14 91.8715 733.557 Q94.9502 728.95 100.76 728.95 Z" fill="#000000" fill-rule="nonzero" fill-opacity="1" /><path clip-path="url(#clip370)" d="M120.922 758.255 L125.807 758.255 L125.807 764.135 L120.922 764.135 L120.922 758.255 Z" fill="#000000" fill-rule="nonzero" fill-opacity="1" /><path clip-path="url(#clip370)" d="M148.839 733.649 L137.033 752.098 L148.839 752.098 L148.839 733.649 M147.612 729.575 L153.492 729.575 L153.492 752.098 L158.422 752.098 L158.422 755.987 L153.492 755.987 L153.492 764.135 L148.839 764.135 L148.839 755.987 L133.237 755.987 L133.237 751.473 L147.612 729.575 Z" fill="#000000" fill-rule="nonzero" fill-opacity="1" /><path clip-path="url(#clip370)" d="M53.0754 471.085 L82.7512 471.085 L82.7512 475.02 L53.0754 475.02 L53.0754 471.085 Z" fill="#000000" fill-rule="nonzero" fill-opacity="1" /><path clip-path="url(#clip370)" d="M102.844 456.432 Q99.2326 456.432 97.4039 459.997 Q95.5984 463.538 95.5984 470.668 Q95.5984 477.774 97.4039 481.339 Q99.2326 484.881 102.844 484.881 Q106.478 484.881 108.283 481.339 Q110.112 477.774 110.112 470.668 Q110.112 463.538 108.283 459.997 Q106.478 456.432 102.844 456.432 M102.844 452.728 Q108.654 452.728 111.709 457.335 Q114.788 461.918 114.788 470.668 Q114.788 479.395 111.709 484.001 Q108.654 488.584 102.844 488.584 Q97.0335 488.584 93.9549 484.001 Q90.8993 479.395 90.8993 470.668 Q90.8993 461.918 93.9549 457.335 Q97.0335 452.728 102.844 452.728 Z" fill="#000000" fill-rule="nonzero" fill-opacity="1" /><path clip-path="url(#clip370)" d="M123.006 482.034 L127.89 482.034 L127.89 487.913 L123.006 487.913 L123.006 482.034 Z" fill="#000000" fill-rule="nonzero" fill-opacity="1" /><path clip-path="url(#clip370)" d="M142.103 483.978 L158.422 483.978 L158.422 487.913 L136.478 487.913 L136.478 483.978 Q139.14 481.223 143.723 476.594 Q148.33 471.941 149.51 470.598 Q151.755 468.075 152.635 466.339 Q153.538 464.58 153.538 462.89 Q153.538 460.136 151.593 458.399 Q149.672 456.663 146.57 456.663 Q144.371 456.663 141.918 457.427 Q139.487 458.191 136.709 459.742 L136.709 455.02 Q139.533 453.886 141.987 453.307 Q144.441 452.728 146.478 452.728 Q151.848 452.728 155.042 455.413 Q158.237 458.099 158.237 462.589 Q158.237 464.719 157.427 466.64 Q156.64 468.538 154.533 471.131 Q153.955 471.802 150.853 475.02 Q147.751 478.214 142.103 483.978 Z" fill="#000000" fill-rule="nonzero" fill-opacity="1" /><path clip-path="url(#clip370)" d="M101.246 180.21 Q97.6354 180.21 95.8067 183.775 Q94.0012 187.316 94.0012 194.446 Q94.0012 201.552 95.8067 205.117 Q97.6354 208.659 101.246 208.659 Q104.881 208.659 106.686 205.117 Q108.515 201.552 108.515 194.446 Q108.515 187.316 106.686 183.775 Q104.881 180.21 101.246 180.21 M101.246 176.506 Q107.057 176.506 110.112 181.113 Q113.191 185.696 113.191 194.446 Q113.191 203.173 110.112 207.779 Q107.057 212.363 101.246 212.363 Q95.4363 212.363 92.3576 207.779 Q89.3021 203.173 89.3021 194.446 Q89.3021 185.696 92.3576 181.113 Q95.4363 176.506 101.246 176.506 Z" fill="#000000" fill-rule="nonzero" fill-opacity="1" /><path clip-path="url(#clip370)" d="M121.408 205.812 L126.293 205.812 L126.293 211.691 L121.408 211.691 L121.408 205.812 Z" fill="#000000" fill-rule="nonzero" fill-opacity="1" /><path clip-path="url(#clip370)" d="M146.478 180.21 Q142.867 180.21 141.038 183.775 Q139.232 187.316 139.232 194.446 Q139.232 201.552 141.038 205.117 Q142.867 208.659 146.478 208.659 Q150.112 208.659 151.918 205.117 Q153.746 201.552 153.746 194.446 Q153.746 187.316 151.918 183.775 Q150.112 180.21 146.478 180.21 M146.478 176.506 Q152.288 176.506 155.343 181.113 Q158.422 185.696 158.422 194.446 Q158.422 203.173 155.343 207.779 Q152.288 212.363 146.478 212.363 Q140.668 212.363 137.589 207.779 Q134.533 203.173 134.533 194.446 Q134.533 185.696 137.589 181.113 Q140.668 176.506 146.478 176.506 Z" fill="#000000" fill-rule="nonzero" fill-opacity="1" /><polyline clip-path="url(#clip372)" style="stroke:#009af9; stroke-linecap:round; stroke-linejoin:round; stroke-width:4; stroke-opacity:1; fill:none" points="194.422,86.1857 196.583,98.2713 198.743,110.237 200.904,122.083 203.064,133.811 205.225,145.422 207.385,156.918 209.546,168.299 211.706,179.567 213.867,190.722 216.027,201.767 218.188,212.701 220.348,223.526 222.509,234.244 224.669,244.855 226.83,255.36 228.99,265.761 231.151,276.058 233.311,286.252 235.471,296.345 237.632,306.338 239.792,316.231 241.953,326.025 244.113,335.722 246.274,345.322 248.434,354.827 250.595,364.237 252.755,373.553 254.916,382.776 257.076,391.908 259.237,400.949 261.397,409.899 263.558,418.76 265.718,427.534 267.879,436.219 270.039,444.819 272.2,453.332 274.36,461.761 276.521,470.106 278.681,478.368 280.842,486.547 283.002,494.645 285.163,502.662 287.323,510.6 289.484,518.458 291.644,526.239 293.805,533.941 295.965,541.567 298.126,549.117 300.286,556.592 302.447,563.993 304.607,571.319 306.768,578.573 308.928,585.755 311.089,592.865 313.249,599.904 315.41,606.873 317.57,613.772 319.731,620.603 321.891,627.366 324.052,634.061 326.212,640.69 328.373,647.252 330.533,653.75 332.694,660.182 334.854,666.551 337.015,672.856 339.175,679.098 341.336,685.278 343.496,691.397 345.657,697.454 347.817,703.452 349.978,709.389 352.138,715.268 354.299,721.088 356.459,726.85 358.62,732.554 360.78,738.202 362.941,743.793 365.101,749.329 367.262,754.81 369.422,760.236 371.583,765.608 373.743,770.927 375.904,776.193 378.064,781.406 380.225,786.567 382.385,791.677 384.546,796.736 386.706,801.745 388.867,806.703 391.027,811.612 393.188,816.473 395.348,821.285 397.509,826.049 399.669,830.765 401.83,835.435 403.99,840.058 406.151,844.634 408.311,849.166 410.472,853.652 412.632,858.094 414.793,862.491 416.953,866.844 419.114,871.154 421.274,875.422 423.435,879.646 425.595,883.829 427.755,887.97 429.916,892.07 432.076,896.128 434.237,900.147 436.397,904.125 438.558,908.064 440.718,911.964 442.879,915.825 445.039,919.647 447.2,923.432 449.36,927.178 451.521,930.888 453.681,934.56 455.842,938.196 458.002,941.796 460.163,945.36 462.323,948.888 464.484,952.382 466.644,955.84 468.805,959.264 470.965,962.654 473.126,966.01 475.286,969.332 477.447,972.622 479.607,975.879 481.768,979.103 483.928,982.295 486.089,985.455 488.249,988.584 490.41,991.682 492.57,994.748 494.731,997.785 496.891,1000.79 499.052,1003.77 501.212,1006.71 503.373,1009.63 505.533,1012.52 507.694,1015.38 509.854,1018.21 512.015,1021.01 514.175,1023.78 516.336,1026.53 518.496,1029.25 520.657,1031.94 522.817,1034.61 524.978,1037.25 527.138,1039.86 529.299,1042.45 531.459,1045.01 533.62,1047.54 535.78,1050.05 537.941,1052.54 540.101,1055 542.262,1057.44 544.422,1059.85 546.583,1062.24 548.743,1064.6 550.904,1066.94 553.064,1069.26 555.225,1071.55 557.385,1073.83 559.546,1076.07 561.706,1078.3 563.867,1080.51 566.027,1082.69 568.188,1084.85 570.348,1086.99 572.509,1089.11 574.669,1091.2 576.83,1093.28 578.99,1095.33 581.151,1097.37 583.311,1099.38 585.472,1101.38 587.632,1103.35 589.793,1105.31 591.953,1107.24 594.114,1109.16 596.274,1111.05 598.435,1112.93 600.595,1114.79 602.756,1116.63 604.916,1118.45 607.077,1120.26 609.237,1122.04 611.398,1123.81 613.558,1125.56 615.718,1127.3 617.879,1129.01 620.039,1130.71 622.2,1132.39 624.36,1134.06 626.521,1135.71 628.681,1137.34 630.842,1138.95 633.002,1140.55 635.163,1142.14 637.323,1143.7 639.484,1145.26 641.644,1146.79 643.805,1148.32 645.965,1149.82 648.126,1151.31 650.286,1152.79 652.447,1154.25 654.607,1155.7 656.768,1157.13 658.928,1158.55 661.089,1159.96 663.249,1161.35 665.41,1162.72 667.57,1164.09 669.731,1165.44 671.891,1166.77 674.052,1168.1 676.212,1169.41 678.373,1170.7 680.533,1171.99 682.694,1173.26 684.854,1174.52 687.015,1175.76 689.175,1177 691.336,1178.22 693.496,1179.43 695.657,1180.63 697.817,1181.81 699.978,1182.98 702.138,1184.15 704.299,1185.3 706.459,1186.44 708.62,1187.56 710.78,1188.68 712.941,1189.78 715.101,1190.88 717.262,1191.96 719.422,1193.03 721.583,1194.09 723.743,1195.15 725.904,1196.19 728.064,1197.22 730.225,1198.24 732.385,1199.24 734.546,1200.24 736.706,1201.23 738.867,1202.21 741.027,1203.18 743.188,1204.14 745.348,1205.09 747.509,1206.03 749.669,1206.97 751.83,1207.89 753.99,1208.8 756.151,1209.71 758.311,1210.6 760.472,1211.49 762.632,1212.36 764.793,1213.23 766.953,1214.09 769.114,1214.94 771.274,1215.79 773.435,1216.62 775.595,1217.45 777.756,1218.26 779.916,1219.07 782.077,1219.88 784.237,1220.67 786.398,1221.46 788.558,1222.23 790.719,1223 792.879,1223.77 795.04,1224.52 797.2,1225.27 799.361,1226.01 801.521,1226.74 803.681,1227.47 805.842,1228.19 808.002,1228.9 810.163,1229.6 812.323,1230.3 814.484,1230.99 816.644,1231.67 818.805,1232.35 820.965,1233.02 823.126,1233.68 825.286,1234.34 827.447,1234.99 829.607,1235.63 831.768,1236.27 833.928,1236.9 836.089,1237.53 838.249,1238.15 840.41,1238.76 842.57,1239.36 844.731,1239.96 846.891,1240.56 849.052,1241.15 851.212,1241.73 853.373,1242.31 855.533,1242.88 857.694,1243.44 859.854,1244 862.015,1244.56 864.175,1245.1 866.336,1245.65 868.496,1246.19 870.657,1246.72 872.817,1247.24 874.978,1247.77 877.138,1248.28 879.299,1248.79 881.459,1249.3 883.62,1249.8 885.78,1250.3 887.941,1250.79 890.101,1251.27 892.262,1251.75 894.422,1252.23 896.583,1252.7 898.743,1253.17 900.904,1253.63 903.064,1254.09 905.225,1254.54 907.385,1254.99 909.546,1255.43 911.706,1255.87 913.867,1256.31 916.027,1256.74 918.188,1257.17 920.348,1257.59 922.509,1258.01 924.669,1258.42 926.83,1258.83 928.99,1259.24 931.151,1259.64 933.311,1260.03 935.472,1260.43 937.632,1260.82 939.793,1261.2 941.953,1261.59 944.114,1261.96 946.274,1262.34 948.435,1262.71 950.595,1263.08 952.756,1263.44 954.916,1263.8 957.077,1264.16 959.237,1264.51 961.398,1264.86 963.558,1265.2 965.719,1265.55 967.879,1265.88 970.04,1266.22 972.2,1266.55 974.361,1266.88 976.521,1267.21 978.682,1267.53 980.842,1267.85 983.003,1268.17 985.163,1268.48 987.324,1268.79 989.484,1269.1 991.645,1269.4 993.805,1269.7 995.965,1270 998.126,1270.29 1000.29,1270.59 1002.45,1270.88 1004.61,1271.16 1006.77,1271.45 1008.93,1271.73 1011.09,1272 1013.25,1272.28 1015.41,1272.55 1017.57,1272.82 1019.73,1273.09 1021.89,1273.35 1024.05,1273.61 1026.21,1273.87 1028.37,1274.13 1030.53,1274.38 1032.69,1274.64 1034.85,1274.89 1037.01,1275.13 1039.18,1275.38 1041.34,1275.62 1043.5,1275.86 1045.66,1276.09 1047.82,1276.33 1049.98,1276.56 1052.14,1276.79 1054.3,1277.02 1056.46,1277.24 1058.62,1277.46 1060.78,1277.68 1062.94,1277.9 1065.1,1278.12 1067.26,1278.33 1069.42,1278.54 1071.58,1278.75 1073.74,1278.96 1075.9,1279.17 1078.06,1279.37 1080.22,1279.57 1082.39,1279.77 1084.55,1279.97 1086.71,1280.16 1088.87,1280.36 1091.03,1280.55 1093.19,1280.74 1095.35,1280.93 1097.51,1281.11 1099.67,1281.3 1101.83,1281.48 1103.99,1281.66 1106.15,1281.84 1108.31,1282.01 1110.47,1282.19 1112.63,1282.36 1114.79,1282.53 1116.95,1282.7 1119.11,1282.87 1121.27,1283.03 1123.43,1283.2 1125.6,1283.36 1127.76,1283.52 1129.92,1283.68 1132.08,1283.84 1134.24,1284 1136.4,1284.15 1138.56,1284.31 1140.72,1284.46 1142.88,1284.61 1145.04,1284.76 1147.2,1284.9 1149.36,1285.05 1151.52,1285.19 1153.68,1285.34 1155.84,1285.48 1158,1285.62 1160.16,1285.76 1162.32,1285.9 1164.48,1286.03 1166.64,1286.17 1168.81,1286.3 1170.97,1286.43 1173.13,1286.56 1175.29,1286.69 1177.45,1286.82 1179.61,1286.95 1181.77,1287.08 1183.93,1287.2 1186.09,1287.32 1188.25,1287.45 1190.41,1287.57 1192.57,1287.69 1194.73,1287.81 1196.89,1287.92 1199.05,1288.04 1201.21,1288.16 1203.37,1288.27 1205.53,1288.38 1207.69,1288.5 1209.85,1288.61 1212.01,1288.72 1214.18,1288.82 1216.34,1288.93 1218.5,1289.04 1220.66,1289.14 1222.82,1289.25 1224.98,1289.35 1227.14,1289.45 1229.3,1289.56 1231.46,1289.66 1233.62,1289.76 1235.78,1289.85 1237.94,1289.95 1240.1,1290.05 1242.26,1290.14 1244.42,1290.24 1246.58,1290.33 1248.74,1290.42 1250.9,1290.52 1253.06,1290.61 1255.22,1290.7 1257.39,1290.79 1259.55,1290.87 1261.71,1290.96 1263.87,1291.05 1266.03,1291.13 1268.19,1291.22 1270.35,1291.3 1272.51,1291.38 1274.67,1291.46 1276.83,1291.55 1278.99,1291.63 1281.15,1291.71 1283.31,1291.78 1285.47,1291.86 1287.63,1291.94 1289.79,1292.01 1291.95,1292.09 1294.11,1292.16 1296.27,1292.24 1298.43,1292.31 1300.6,1292.38 1302.76,1292.46 1304.92,1292.53 1307.08,1292.6 1309.24,1292.67 1311.4,1292.74 1313.56,1292.8 1315.72,1292.87 1317.88,1292.94 1320.04,1293 1322.2,1293.07 1324.36,1293.13 1326.52,1293.2 1328.68,1293.26 1330.84,1293.32 1333,1293.39 1335.16,1293.45 1337.32,1293.51 1339.48,1293.57 1341.64,1293.63 1343.81,1293.69 1345.97,1293.75 1348.13,1293.8 1350.29,1293.86 1352.45,1293.92 1354.61,1293.97 1356.77,1294.03 1358.93,1294.08 1361.09,1294.14 1363.25,1294.19 1365.41,1294.25 1367.57,1294.3 1369.73,1294.35 1371.89,1294.4 1374.05,1294.45 1376.21,1294.51 1378.37,1294.56 1380.53,1294.61 1382.69,1294.65 1384.85,1294.7 1387.01,1294.75 1389.18,1294.8 1391.34,1294.85 1393.5,1294.89 1395.66,1294.94 1397.82,1294.99 1399.98,1295.03 1402.14,1295.08 1404.3,1295.12 1406.46,1295.17 1408.62,1295.21 1410.78,1295.26 1412.94,1295.3 1415.1,1295.34 1417.26,1295.38 1419.42,1295.43 1421.58,1295.47 1423.74,1295.51 1425.9,1295.55 1428.06,1295.59 1430.22,1295.63 1432.39,1295.67 1434.55,1295.71 1436.71,1295.75 1438.87,1295.79 1441.03,1295.82 1443.19,1295.86 1445.35,1295.9 1447.51,1295.94 1449.67,1295.97 1451.83,1296.01 1453.99,1296.05 1456.15,1296.08 1458.31,1296.12 1460.47,1296.15 1462.63,1296.19 1464.79,1296.22 1466.95,1296.25 1469.11,1296.29 1471.27,1296.32 1473.43,1296.35 1475.6,1296.39 1477.76,1296.42 1479.92,1296.45 1482.08,1296.48 1484.24,1296.51 1486.4,1296.55 1488.56,1296.58 1490.72,1296.61 1492.88,1296.64 1495.04,1296.67 1497.2,1296.7 1499.36,1296.72 1501.52,1296.75 1503.68,1296.78 1505.84,1296.81 1508,1296.84 1510.16,1296.87 1512.32,1296.89 1514.48,1296.92 1516.64,1296.95 1518.81,1296.97 1520.97,1297 1523.13,1297.03 1525.29,1297.05 1527.45,1297.08 1529.61,1297.1 1531.77,1297.13 1533.93,1297.15 1536.09,1297.18 1538.25,1297.2 1540.41,1297.22 1542.57,1297.25 1544.73,1297.27 1546.89,1297.29 1549.05,1297.32 1551.21,1297.34 1553.37,1297.36 1555.53,1297.38 1557.69,1297.41 1559.85,1297.43 1562.01,1297.45 1564.18,1297.47 1566.34,1297.49 1568.5,1297.51 1570.66,1297.53 1572.82,1297.55 1574.98,1297.57 1577.14,1297.59 1579.3,1297.61 1581.46,1297.63 1583.62,1297.65 1585.78,1297.67 1587.94,1297.69 1590.1,1297.71 1592.26,1297.73 1594.42,1297.74 1596.58,1297.76 1598.74,1297.78 1600.9,1297.8 1603.06,1297.82 1605.22,1297.83 1607.39,1297.85 1609.55,1297.87 1611.71,1297.88 1613.87,1297.9 1616.03,1297.92 1618.19,1297.93 1620.35,1297.95 1622.51,1297.97 1624.67,1297.98 1626.83,1298 1628.99,1298.01 1631.15,1298.03 1633.31,1298.04 1635.47,1298.06 1637.63,1298.07 1639.79,1298.09 1641.95,1298.1 1644.11,1298.12 1646.27,1298.13 1648.43,1298.15 1650.6,1298.16 1652.76,1298.18 1654.92,1298.19 1657.08,1298.2 1659.24,1298.22 1661.4,1298.23 1663.56,1298.24 1665.72,1298.26 1667.88,1298.27 1670.04,1298.28 1672.2,1298.3 1674.36,1298.31 1676.52,1298.32 1678.68,1298.33 1680.84,1298.35 1683,1298.36 1685.16,1298.37 1687.32,1298.38 1689.48,1298.4 1691.64,1298.41 1693.81,1298.42 1695.97,1298.43 1698.13,1298.44 1700.29,1298.45 1702.45,1298.47 1704.61,1298.48 1706.77,1298.49 1708.93,1298.5 1711.09,1298.51 1713.25,1298.52 1715.41,1298.53 1717.57,1298.54 1719.73,1298.55 1721.89,1298.56 1724.05,1298.57 1726.21,1298.58 1728.37,1298.59 1730.53,1298.6 1732.69,1298.62 1734.85,1298.62 1737.02,1298.63 1739.18,1298.64 1741.34,1298.65 1743.5,1298.66 1745.66,1298.67 1747.82,1298.68 1749.98,1298.69 1752.14,1298.7 1754.3,1298.71 1756.46,1298.72 1758.62,1298.73 1760.78,1298.74 1762.94,1298.75 1765.1,1298.75 1767.26,1298.76 1769.42,1298.77 1771.58,1298.78 1773.74,1298.79 1775.9,1298.8 1778.06,1298.8 1780.22,1298.81 1782.39,1298.82 1784.55,1298.83 1786.71,1298.84 1788.87,1298.84 1791.03,1298.85 1793.19,1298.86 1795.35,1298.87 1797.51,1298.87 1799.67,1298.88 1801.83,1298.89 1803.99,1298.9 1806.15,1298.9 1808.31,1298.91 1810.47,1298.92 1812.63,1298.92 1814.79,1298.93 1816.95,1298.94 1819.11,1298.94 1821.27,1298.95 1823.43,1298.96 1825.6,1298.96 1827.76,1298.97 1829.92,1298.98 1832.08,1298.98 1834.24,1298.99 1836.4,1298.99 1838.56,1299 1840.72,1299.01 1842.88,1299.01 1845.04,1299.02 1847.2,1299.02 1849.36,1299.03 1851.52,1299.03 1853.68,1299.04 1855.84,1299.05 1858,1299.05 1860.16,1299.06 1862.32,1299.06 1864.48,1299.07 1866.64,1299.07 1868.81,1299.08 1870.97,1299.08 1873.13,1299.09 1875.29,1299.09 1877.45,1299.1 1879.61,1299.1 1881.77,1299.11 1883.93,1299.11 1886.09,1299.12 1888.25,1299.12 1890.41,1299.13 1892.57,1299.13 1894.73,1299.13 1896.89,1299.14 1899.05,1299.14 1901.21,1299.15 1903.37,1299.15 1905.53,1299.16 1907.69,1299.16 1909.85,1299.16 1912.02,1299.17 1914.18,1299.17 1916.34,1299.18 1918.5,1299.18 1920.66,1299.18 1922.82,1299.19 1924.98,1299.19 1927.14,1299.2 1929.3,1299.2 1931.46,1299.2 1933.62,1299.21 1935.78,1299.21 1937.94,1299.21 1940.1,1299.22 1942.26,1299.22 1944.42,1299.22 1946.58,1299.23 1948.74,1299.23 1950.9,1299.23 1953.06,1299.24 1955.22,1299.24 1957.39,1299.24 1959.55,1299.25 1961.71,1299.25 1963.87,1299.25 1966.03,1299.26 1968.19,1299.26 1970.35,1299.26 1972.51,1299.27 1974.67,1299.27 1976.83,1299.27 1978.99,1299.28 1981.15,1299.28 1983.31,1299.28 1985.47,1299.28 1987.63,1299.29 1989.79,1299.29 1991.95,1299.29 1994.11,1299.3 1996.27,1299.3 1998.43,1299.3 2000.6,1299.3 2002.76,1299.31 2004.92,1299.31 2007.08,1299.31 2009.24,1299.32 2011.4,1299.32 2013.56,1299.32 2015.72,1299.32 2017.88,1299.33 2020.04,1299.33 2022.2,1299.33 2024.36,1299.33 2026.52,1299.34 2028.68,1299.34 2030.84,1299.34 2033,1299.34 2035.16,1299.35 2037.32,1299.35 2039.48,1299.35 2041.64,1299.35 2043.81,1299.36 2045.97,1299.36 2048.13,1299.36 2050.29,1299.36 2052.45,1299.37 2054.61,1299.37 2056.77,1299.37 2058.93,1299.37 2061.09,1299.38 2063.25,1299.38 2065.41,1299.38 2067.57,1299.38 2069.73,1299.38 2071.89,1299.39 2074.05,1299.39 2076.21,1299.39 2078.37,1299.39 2080.53,1299.39 2082.69,1299.4 2084.85,1299.4 2087.02,1299.4 2089.18,1299.4 2091.34,1299.4 2093.5,1299.41 2095.66,1299.41 2097.82,1299.41 2099.98,1299.41 2102.14,1299.41 2104.3,1299.42 2106.46,1299.42 2108.62,1299.42 2110.78,1299.42 2112.94,1299.42 2115.1,1299.42 2117.26,1299.43 2119.42,1299.43 2121.58,1299.43 2123.74,1299.43 2125.9,1299.43 2128.06,1299.43 2130.22,1299.44 2132.39,1299.44 2134.55,1299.44 2136.71,1299.44 2138.87,1299.44 2141.03,1299.44 2143.19,1299.45 2145.35,1299.45 2147.51,1299.45 2149.67,1299.45 2151.83,1299.45 2153.99,1299.45 2156.15,1299.45 2158.31,1299.46 2160.47,1299.46 2162.63,1299.46 2164.79,1299.46 2166.95,1299.46 2169.11,1299.46 2171.27,1299.46 2173.43,1299.46 2175.6,1299.47 2177.76,1299.47 2179.92,1299.47 2182.08,1299.47 2184.24,1299.47 2186.4,1299.47 2188.56,1299.47 2190.72,1299.47 2192.88,1299.48 2195.04,1299.48 2197.2,1299.48 2199.36,1299.48 2201.52,1299.48 2203.68,1299.48 2205.84,1299.48 2208,1299.48 2210.16,1299.48 2212.32,1299.49 2214.48,1299.49 2216.64,1299.49 2218.81,1299.49 2220.97,1299.49 2223.13,1299.49 2225.29,1299.49 2227.45,1299.49 2229.61,1299.49 2231.77,1299.49 2233.93,1299.5 2236.09,1299.5 2238.25,1299.5 2240.41,1299.5 2242.57,1299.5 2244.73,1299.5 2246.89,1299.5 2249.05,1299.5 2251.21,1299.5 2253.37,1299.5 2255.53,1299.5 2257.69,1299.51 2259.85,1299.51 2262.02,1299.51 2264.18,1299.51 2266.34,1299.51 2268.5,1299.51 2270.66,1299.51 2272.82,1299.51 2274.98,1299.51 2277.14,1299.51 2279.3,1299.51 2281.46,1299.51 2283.62,1299.51 2285.78,1299.51 2287.94,1299.52 2290.1,1299.52 2292.26,1299.52 2294.42,1299.52 2296.58,1299.52 2298.74,1299.52 2300.9,1299.52 2303.06,1299.52 2305.23,1299.52 2307.39,1299.52 2309.55,1299.52 2311.71,1299.52 2313.87,1299.52 2316.03,1299.52 2318.19,1299.52 2320.35,1299.53 2322.51,1299.53 2324.67,1299.53 2326.83,1299.53 2328.99,1299.53 2331.15,1299.53 2333.31,1299.53 2335.47,1299.53 2337.63,1299.53 2339.79,1299.53 2341.95,1299.53 2344.11,1299.53 2346.27,1299.53 2348.43,1299.53 2350.6,1299.53 2352.76,1299.53 "/>
<polyline clip-path="url(#clip372)" style="stroke:#e26f46; stroke-linecap:round; stroke-linejoin:round; stroke-width:4; stroke-opacity:1; fill:none" points="194.422,1384.24 196.583,1378.07 198.743,1371.99 200.904,1366 203.064,1360.11 205.225,1354.3 207.385,1348.59 209.546,1342.96 211.706,1337.42 213.867,1331.96 216.027,1326.59 218.188,1321.31 220.348,1316.1 222.509,1310.98 224.669,1305.94 226.83,1300.98 228.99,1296.1 231.151,1291.29 233.311,1286.56 235.471,1281.91 237.632,1277.33 239.792,1272.83 241.953,1268.4 244.113,1264.04 246.274,1259.75 248.434,1255.54 250.595,1251.39 252.755,1247.31 254.916,1243.3 257.076,1239.36 259.237,1235.48 261.397,1231.67 263.558,1227.92 265.718,1224.24 267.879,1220.62 270.039,1217.06 272.2,1213.57 274.36,1210.13 276.521,1206.76 278.681,1203.44 280.842,1200.18 283.002,1196.98 285.163,1193.84 287.323,1190.75 289.484,1187.72 291.644,1184.74 293.805,1181.82 295.965,1178.95 298.126,1176.14 300.286,1173.37 302.447,1170.66 304.607,1168 306.768,1165.39 308.928,1162.82 311.089,1160.31 313.249,1157.84 315.41,1155.43 317.57,1153.06 319.731,1150.73 321.891,1148.45 324.052,1146.22 326.212,1144.03 328.373,1141.89 330.533,1139.79 332.694,1137.73 334.854,1135.71 337.015,1133.74 339.175,1131.81 341.336,1129.92 343.496,1128.06 345.657,1126.25 347.817,1124.48 349.978,1122.74 352.138,1121.05 354.299,1119.39 356.459,1117.77 358.62,1116.18 360.78,1114.63 362.941,1113.12 365.101,1111.64 367.262,1110.2 369.422,1108.79 371.583,1107.41 373.743,1106.07 375.904,1104.76 378.064,1103.49 380.225,1102.24 382.385,1101.03 384.546,1099.85 386.706,1098.69 388.867,1097.57 391.027,1096.48 393.188,1095.42 395.348,1094.39 397.509,1093.38 399.669,1092.41 401.83,1091.46 403.99,1090.54 406.151,1089.65 408.311,1088.78 410.472,1087.94 412.632,1087.13 414.793,1086.34 416.953,1085.57 419.114,1084.83 421.274,1084.12 423.435,1083.43 425.595,1082.76 427.755,1082.12 429.916,1081.5 432.076,1080.91 434.237,1080.33 436.397,1079.78 438.558,1079.25 440.718,1078.74 442.879,1078.26 445.039,1077.79 447.2,1077.34 449.36,1076.92 451.521,1076.51 453.681,1076.13 455.842,1075.76 458.002,1075.41 460.163,1075.09 462.323,1074.78 464.484,1074.49 466.644,1074.21 468.805,1073.96 470.965,1073.72 473.126,1073.5 475.286,1073.29 477.447,1073.11 479.607,1072.94 481.768,1072.78 483.928,1072.65 486.089,1072.52 488.249,1072.42 490.41,1072.33 492.57,1072.25 494.731,1072.19 496.891,1072.14 499.052,1072.11 501.212,1072.09 503.373,1072.08 505.533,1072.09 507.694,1072.11 509.854,1072.15 512.015,1072.2 514.175,1072.26 516.336,1072.33 518.496,1072.42 520.657,1072.52 522.817,1072.63 524.978,1072.75 527.138,1072.89 529.299,1073.03 531.459,1073.19 533.62,1073.35 535.78,1073.53 537.941,1073.72 540.101,1073.92 542.262,1074.13 544.422,1074.35 546.583,1074.58 548.743,1074.82 550.904,1075.07 553.064,1075.32 555.225,1075.59 557.385,1075.87 559.546,1076.15 561.706,1076.45 563.867,1076.75 566.027,1077.06 568.188,1077.38 570.348,1077.71 572.509,1078.05 574.669,1078.39 576.83,1078.74 578.99,1079.1 581.151,1079.47 583.311,1079.84 585.472,1080.22 587.632,1080.61 589.793,1081 591.953,1081.41 594.114,1081.81 596.274,1082.23 598.435,1082.65 600.595,1083.08 602.756,1083.51 604.916,1083.95 607.077,1084.4 609.237,1084.85 611.398,1085.31 613.558,1085.77 615.718,1086.24 617.879,1086.71 620.039,1087.19 622.2,1087.67 624.36,1088.16 626.521,1088.66 628.681,1089.15 630.842,1089.66 633.002,1090.16 635.163,1090.68 637.323,1091.19 639.484,1091.71 641.644,1092.24 643.805,1092.77 645.965,1093.3 648.126,1093.84 650.286,1094.38 652.447,1094.92 654.607,1095.47 656.768,1096.02 658.928,1096.57 661.089,1097.13 663.249,1097.69 665.41,1098.25 667.57,1098.82 669.731,1099.39 671.891,1099.96 674.052,1100.54 676.212,1101.11 678.373,1101.69 680.533,1102.28 682.694,1102.86 684.854,1103.45 687.015,1104.04 689.175,1104.63 691.336,1105.23 693.496,1105.82 695.657,1106.42 697.817,1107.02 699.978,1107.63 702.138,1108.23 704.299,1108.84 706.459,1109.45 708.62,1110.06 710.78,1110.67 712.941,1111.28 715.101,1111.9 717.262,1112.51 719.422,1113.13 721.583,1113.75 723.743,1114.37 725.904,1114.99 728.064,1115.61 730.225,1116.24 732.385,1116.86 734.546,1117.49 736.706,1118.12 738.867,1118.74 741.027,1119.37 743.188,1120 745.348,1120.63 747.509,1121.26 749.669,1121.89 751.83,1122.52 753.99,1123.16 756.151,1123.79 758.311,1124.42 760.472,1125.06 762.632,1125.69 764.793,1126.33 766.953,1126.96 769.114,1127.6 771.274,1128.23 773.435,1128.87 775.595,1129.5 777.756,1130.14 779.916,1130.77 782.077,1131.41 784.237,1132.04 786.398,1132.68 788.558,1133.31 790.719,1133.95 792.879,1134.58 795.04,1135.22 797.2,1135.85 799.361,1136.48 801.521,1137.12 803.681,1137.75 805.842,1138.38 808.002,1139.01 810.163,1139.65 812.323,1140.28 814.484,1140.91 816.644,1141.54 818.805,1142.17 820.965,1142.79 823.126,1143.42 825.286,1144.05 827.447,1144.68 829.607,1145.3 831.768,1145.93 833.928,1146.55 836.089,1147.17 838.249,1147.8 840.41,1148.42 842.57,1149.04 844.731,1149.66 846.891,1150.28 849.052,1150.9 851.212,1151.51 853.373,1152.13 855.533,1152.74 857.694,1153.36 859.854,1153.97 862.015,1154.58 864.175,1155.19 866.336,1155.8 868.496,1156.41 870.657,1157.02 872.817,1157.63 874.978,1158.23 877.138,1158.84 879.299,1159.44 881.459,1160.04 883.62,1160.64 885.78,1161.24 887.941,1161.84 890.101,1162.44 892.262,1163.03 894.422,1163.63 896.583,1164.22 898.743,1164.81 900.904,1165.4 903.064,1165.99 905.225,1166.58 907.385,1167.17 909.546,1167.75 911.706,1168.34 913.867,1168.92 916.027,1169.5 918.188,1170.08 920.348,1170.66 922.509,1171.23 924.669,1171.81 926.83,1172.38 928.99,1172.95 931.151,1173.52 933.311,1174.09 935.472,1174.66 937.632,1175.22 939.793,1175.79 941.953,1176.35 944.114,1176.91 946.274,1177.47 948.435,1178.03 950.595,1178.59 952.756,1179.14 954.916,1179.69 957.077,1180.24 959.237,1180.79 961.398,1181.34 963.558,1181.89 965.719,1182.43 967.879,1182.97 970.04,1183.52 972.2,1184.06 974.361,1184.59 976.521,1185.13 978.682,1185.66 980.842,1186.2 983.003,1186.73 985.163,1187.26 987.324,1187.78 989.484,1188.31 991.645,1188.83 993.805,1189.35 995.965,1189.87 998.126,1190.39 1000.29,1190.91 1002.45,1191.42 1004.61,1191.94 1006.77,1192.45 1008.93,1192.96 1011.09,1193.47 1013.25,1193.97 1015.41,1194.48 1017.57,1194.98 1019.73,1195.48 1021.89,1195.98 1024.05,1196.48 1026.21,1196.97 1028.37,1197.47 1030.53,1197.96 1032.69,1198.45 1034.85,1198.94 1037.01,1199.43 1039.18,1199.91 1041.34,1200.4 1043.5,1200.88 1045.66,1201.36 1047.82,1201.84 1049.98,1202.31 1052.14,1202.79 1054.3,1203.26 1056.46,1203.73 1058.62,1204.2 1060.78,1204.67 1062.94,1205.13 1065.1,1205.6 1067.26,1206.06 1069.42,1206.52 1071.58,1206.98 1073.74,1207.44 1075.9,1207.89 1078.06,1208.35 1080.22,1208.8 1082.39,1209.25 1084.55,1209.7 1086.71,1210.15 1088.87,1210.59 1091.03,1211.03 1093.19,1211.48 1095.35,1211.91 1097.51,1212.35 1099.67,1212.79 1101.83,1213.22 1103.99,1213.66 1106.15,1214.09 1108.31,1214.52 1110.47,1214.95 1112.63,1215.37 1114.79,1215.8 1116.95,1216.22 1119.11,1216.64 1121.27,1217.06 1123.43,1217.47 1125.6,1217.89 1127.76,1218.3 1129.92,1218.72 1132.08,1219.13 1134.24,1219.54 1136.4,1219.94 1138.56,1220.35 1140.72,1220.75 1142.88,1221.15 1145.04,1221.55 1147.2,1221.95 1149.36,1222.35 1151.52,1222.74 1153.68,1223.14 1155.84,1223.53 1158,1223.92 1160.16,1224.31 1162.32,1224.69 1164.48,1225.08 1166.64,1225.46 1168.81,1225.84 1170.97,1226.22 1173.13,1226.6 1175.29,1226.98 1177.45,1227.35 1179.61,1227.72 1181.77,1228.09 1183.93,1228.46 1186.09,1228.83 1188.25,1229.2 1190.41,1229.56 1192.57,1229.93 1194.73,1230.29 1196.89,1230.65 1199.05,1231.01 1201.21,1231.36 1203.37,1231.72 1205.53,1232.07 1207.69,1232.42 1209.85,1232.77 1212.01,1233.12 1214.18,1233.47 1216.34,1233.81 1218.5,1234.16 1220.66,1234.5 1222.82,1234.84 1224.98,1235.18 1227.14,1235.52 1229.3,1235.85 1231.46,1236.19 1233.62,1236.52 1235.78,1236.85 1237.94,1237.18 1240.1,1237.51 1242.26,1237.84 1244.42,1238.16 1246.58,1238.49 1248.74,1238.81 1250.9,1239.13 1253.06,1239.45 1255.22,1239.77 1257.39,1240.08 1259.55,1240.4 1261.71,1240.71 1263.87,1241.02 1266.03,1241.33 1268.19,1241.64 1270.35,1241.95 1272.51,1242.26 1274.67,1242.56 1276.83,1242.87 1278.99,1243.17 1281.15,1243.47 1283.31,1243.77 1285.47,1244.06 1287.63,1244.36 1289.79,1244.66 1291.95,1244.95 1294.11,1245.24 1296.27,1245.53 1298.43,1245.82 1300.6,1246.11 1302.76,1246.4 1304.92,1246.68 1307.08,1246.97 1309.24,1247.25 1311.4,1247.53 1313.56,1247.81 1315.72,1248.09 1317.88,1248.37 1320.04,1248.64 1322.2,1248.92 1324.36,1249.19 1326.52,1249.46 1328.68,1249.73 1330.84,1250 1333,1250.27 1335.16,1250.54 1337.32,1250.8 1339.48,1251.06 1341.64,1251.33 1343.81,1251.59 1345.97,1251.85 1348.13,1252.11 1350.29,1252.37 1352.45,1252.62 1354.61,1252.88 1356.77,1253.13 1358.93,1253.38 1361.09,1253.64 1363.25,1253.89 1365.41,1254.13 1367.57,1254.38 1369.73,1254.63 1371.89,1254.87 1374.05,1255.12 1376.21,1255.36 1378.37,1255.6 1380.53,1255.84 1382.69,1256.08 1384.85,1256.32 1387.01,1256.55 1389.18,1256.79 1391.34,1257.02 1393.5,1257.26 1395.66,1257.49 1397.82,1257.72 1399.98,1257.95 1402.14,1258.18 1404.3,1258.4 1406.46,1258.63 1408.62,1258.85 1410.78,1259.08 1412.94,1259.3 1415.1,1259.52 1417.26,1259.74 1419.42,1259.96 1421.58,1260.18 1423.74,1260.39 1425.9,1260.61 1428.06,1260.82 1430.22,1261.04 1432.39,1261.25 1434.55,1261.46 1436.71,1261.67 1438.87,1261.88 1441.03,1262.09 1443.19,1262.29 1445.35,1262.5 1447.51,1262.71 1449.67,1262.91 1451.83,1263.11 1453.99,1263.31 1456.15,1263.51 1458.31,1263.71 1460.47,1263.91 1462.63,1264.11 1464.79,1264.31 1466.95,1264.5 1469.11,1264.69 1471.27,1264.89 1473.43,1265.08 1475.6,1265.27 1477.76,1265.46 1479.92,1265.65 1482.08,1265.84 1484.24,1266.03 1486.4,1266.21 1488.56,1266.4 1490.72,1266.58 1492.88,1266.77 1495.04,1266.95 1497.2,1267.13 1499.36,1267.31 1501.52,1267.49 1503.68,1267.67 1505.84,1267.85 1508,1268.03 1510.16,1268.2 1512.32,1268.38 1514.48,1268.55 1516.64,1268.72 1518.81,1268.9 1520.97,1269.07 1523.13,1269.24 1525.29,1269.41 1527.45,1269.58 1529.61,1269.74 1531.77,1269.91 1533.93,1270.08 1536.09,1270.24 1538.25,1270.41 1540.41,1270.57 1542.57,1270.73 1544.73,1270.9 1546.89,1271.06 1549.05,1271.22 1551.21,1271.38 1553.37,1271.53 1555.53,1271.69 1557.69,1271.85 1559.85,1272 1562.01,1272.16 1564.18,1272.31 1566.34,1272.47 1568.5,1272.62 1570.66,1272.77 1572.82,1272.92 1574.98,1273.07 1577.14,1273.22 1579.3,1273.37 1581.46,1273.52 1583.62,1273.67 1585.78,1273.81 1587.94,1273.96 1590.1,1274.1 1592.26,1274.25 1594.42,1274.39 1596.58,1274.53 1598.74,1274.67 1600.9,1274.82 1603.06,1274.96 1605.22,1275.1 1607.39,1275.23 1609.55,1275.37 1611.71,1275.51 1613.87,1275.65 1616.03,1275.78 1618.19,1275.92 1620.35,1276.05 1622.51,1276.18 1624.67,1276.32 1626.83,1276.45 1628.99,1276.58 1631.15,1276.71 1633.31,1276.84 1635.47,1276.97 1637.63,1277.1 1639.79,1277.23 1641.95,1277.35 1644.11,1277.48 1646.27,1277.61 1648.43,1277.73 1650.6,1277.86 1652.76,1277.98 1654.92,1278.1 1657.08,1278.22 1659.24,1278.35 1661.4,1278.47 1663.56,1278.59 1665.72,1278.71 1667.88,1278.83 1670.04,1278.94 1672.2,1279.06 1674.36,1279.18 1676.52,1279.3 1678.68,1279.41 1680.84,1279.53 1683,1279.64 1685.16,1279.75 1687.32,1279.87 1689.48,1279.98 1691.64,1280.09 1693.81,1280.2 1695.97,1280.31 1698.13,1280.42 1700.29,1280.53 1702.45,1280.64 1704.61,1280.75 1706.77,1280.86 1708.93,1280.96 1711.09,1281.07 1713.25,1281.18 1715.41,1281.28 1717.57,1281.39 1719.73,1281.49 1721.89,1281.59 1724.05,1281.7 1726.21,1281.8 1728.37,1281.9 1730.53,1282 1732.69,1282.1 1734.85,1282.2 1737.02,1282.3 1739.18,1282.4 1741.34,1282.5 1743.5,1282.6 1745.66,1282.69 1747.82,1282.79 1749.98,1282.89 1752.14,1282.98 1754.3,1283.08 1756.46,1283.17 1758.62,1283.27 1760.78,1283.36 1762.94,1283.45 1765.1,1283.55 1767.26,1283.64 1769.42,1283.73 1771.58,1283.82 1773.74,1283.91 1775.9,1284 1778.06,1284.09 1780.22,1284.18 1782.39,1284.27 1784.55,1284.36 1786.71,1284.44 1788.87,1284.53 1791.03,1284.62 1793.19,1284.7 1795.35,1284.79 1797.51,1284.88 1799.67,1284.96 1801.83,1285.04 1803.99,1285.13 1806.15,1285.21 1808.31,1285.29 1810.47,1285.38 1812.63,1285.46 1814.79,1285.54 1816.95,1285.62 1819.11,1285.7 1821.27,1285.78 1823.43,1285.86 1825.6,1285.94 1827.76,1286.02 1829.92,1286.1 1832.08,1286.18 1834.24,1286.25 1836.4,1286.33 1838.56,1286.41 1840.72,1286.48 1842.88,1286.56 1845.04,1286.63 1847.2,1286.71 1849.36,1286.78 1851.52,1286.86 1853.68,1286.93 1855.84,1287 1858,1287.08 1860.16,1287.15 1862.32,1287.22 1864.48,1287.29 1866.64,1287.36 1868.81,1287.43 1870.97,1287.5 1873.13,1287.57 1875.29,1287.64 1877.45,1287.71 1879.61,1287.78 1881.77,1287.85 1883.93,1287.92 1886.09,1287.99 1888.25,1288.05 1890.41,1288.12 1892.57,1288.19 1894.73,1288.25 1896.89,1288.32 1899.05,1288.39 1901.21,1288.45 1903.37,1288.51 1905.53,1288.58 1907.69,1288.64 1909.85,1288.71 1912.02,1288.77 1914.18,1288.83 1916.34,1288.9 1918.5,1288.96 1920.66,1289.02 1922.82,1289.08 1924.98,1289.14 1927.14,1289.2 1929.3,1289.26 1931.46,1289.32 1933.62,1289.38 1935.78,1289.44 1937.94,1289.5 1940.1,1289.56 1942.26,1289.62 1944.42,1289.68 1946.58,1289.74 1948.74,1289.79 1950.9,1289.85 1953.06,1289.91 1955.22,1289.96 1957.39,1290.02 1959.55,1290.07 1961.71,1290.13 1963.87,1290.19 1966.03,1290.24 1968.19,1290.29 1970.35,1290.35 1972.51,1290.4 1974.67,1290.46 1976.83,1290.51 1978.99,1290.56 1981.15,1290.62 1983.31,1290.67 1985.47,1290.72 1987.63,1290.77 1989.79,1290.82 1991.95,1290.87 1994.11,1290.93 1996.27,1290.98 1998.43,1291.03 2000.6,1291.08 2002.76,1291.13 2004.92,1291.18 2007.08,1291.22 2009.24,1291.27 2011.4,1291.32 2013.56,1291.37 2015.72,1291.42 2017.88,1291.47 2020.04,1291.51 2022.2,1291.56 2024.36,1291.61 2026.52,1291.65 2028.68,1291.7 2030.84,1291.75 2033,1291.79 2035.16,1291.84 2037.32,1291.88 2039.48,1291.93 2041.64,1291.97 2043.81,1292.02 2045.97,1292.06 2048.13,1292.11 2050.29,1292.15 2052.45,1292.19 2054.61,1292.24 2056.77,1292.28 2058.93,1292.32 2061.09,1292.36 2063.25,1292.41 2065.41,1292.45 2067.57,1292.49 2069.73,1292.53 2071.89,1292.57 2074.05,1292.61 2076.21,1292.66 2078.37,1292.7 2080.53,1292.74 2082.69,1292.78 2084.85,1292.82 2087.02,1292.86 2089.18,1292.9 2091.34,1292.93 2093.5,1292.97 2095.66,1293.01 2097.82,1293.05 2099.98,1293.09 2102.14,1293.13 2104.3,1293.17 2106.46,1293.2 2108.62,1293.24 2110.78,1293.28 2112.94,1293.31 2115.1,1293.35 2117.26,1293.39 2119.42,1293.42 2121.58,1293.46 2123.74,1293.5 2125.9,1293.53 2128.06,1293.57 2130.22,1293.6 2132.39,1293.64 2134.55,1293.67 2136.71,1293.71 2138.87,1293.74 2141.03,1293.78 2143.19,1293.81 2145.35,1293.85 2147.51,1293.88 2149.67,1293.91 2151.83,1293.95 2153.99,1293.98 2156.15,1294.01 2158.31,1294.04 2160.47,1294.08 2162.63,1294.11 2164.79,1294.14 2166.95,1294.17 2169.11,1294.21 2171.27,1294.24 2173.43,1294.27 2175.6,1294.3 2177.76,1294.33 2179.92,1294.36 2182.08,1294.39 2184.24,1294.42 2186.4,1294.45 2188.56,1294.48 2190.72,1294.51 2192.88,1294.54 2195.04,1294.57 2197.2,1294.6 2199.36,1294.63 2201.52,1294.66 2203.68,1294.69 2205.84,1294.72 2208,1294.75 2210.16,1294.78 2212.32,1294.8 2214.48,1294.83 2216.64,1294.86 2218.81,1294.89 2220.97,1294.92 2223.13,1294.94 2225.29,1294.97 2227.45,1295 2229.61,1295.03 2231.77,1295.05 2233.93,1295.08 2236.09,1295.11 2238.25,1295.13 2240.41,1295.16 2242.57,1295.18 2244.73,1295.21 2246.89,1295.24 2249.05,1295.26 2251.21,1295.29 2253.37,1295.31 2255.53,1295.34 2257.69,1295.36 2259.85,1295.39 2262.02,1295.41 2264.18,1295.44 2266.34,1295.46 2268.5,1295.49 2270.66,1295.51 2272.82,1295.53 2274.98,1295.56 2277.14,1295.58 2279.3,1295.61 2281.46,1295.63 2283.62,1295.65 2285.78,1295.68 2287.94,1295.7 2290.1,1295.72 2292.26,1295.74 2294.42,1295.77 2296.58,1295.79 2298.74,1295.81 2300.9,1295.83 2303.06,1295.86 2305.23,1295.88 2307.39,1295.9 2309.55,1295.92 2311.71,1295.94 2313.87,1295.97 2316.03,1295.99 2318.19,1296.01 2320.35,1296.03 2322.51,1296.05 2324.67,1296.07 2326.83,1296.09 2328.99,1296.11 2331.15,1296.13 2333.31,1296.15 2335.47,1296.17 2337.63,1296.19 2339.79,1296.21 2341.95,1296.23 2344.11,1296.25 2346.27,1296.27 2348.43,1296.29 2350.6,1296.31 2352.76,1296.33 "/>
<path clip-path="url(#clip370)" d="M1805.58 248.629 L2280.81 248.629 L2280.81 93.1086 L1805.58 93.1086  Z" fill="#ffffff" fill-rule="evenodd" fill-opacity="1"/>
<polyline clip-path="url(#clip370)" style="stroke:#000000; stroke-linecap:round; stroke-linejoin:round; stroke-width:4; stroke-opacity:1; fill:none" points="1805.58,248.629 2280.81,248.629 2280.81,93.1086 1805.58,93.1086 1805.58,248.629 "/>
<polyline clip-path="url(#clip370)" style="stroke:#009af9; stroke-linecap:round; stroke-linejoin:round; stroke-width:4; stroke-opacity:1; fill:none" points="1829.56,144.949 1973.45,144.949 "/>
<path clip-path="url(#clip370)" d="M1997.43 136.303 L2001.95 136.303 L2010.05 158.062 L2018.15 136.303 L2022.66 136.303 L2012.94 162.229 L2007.16 162.229 L1997.43 136.303 Z" fill="#000000" fill-rule="nonzero" fill-opacity="1" /><path clip-path="url(#clip370)" d="M2029.96 158.293 L2037.6 158.293 L2037.6 131.928 L2029.28 133.595 L2029.28 129.335 L2037.55 127.669 L2042.22 127.669 L2042.22 158.293 L2049.86 158.293 L2049.86 162.229 L2029.96 162.229 L2029.96 158.293 Z" fill="#000000" fill-rule="nonzero" fill-opacity="1" /><path clip-path="url(#clip370)" d="M2067.97 145.585 L2067.97 152.807 L2076.09 152.807 L2076.09 155.006 L2067.97 155.006 L2067.97 162.229 L2065.53 162.229 L2065.53 155.006 L2057.41 155.006 L2057.41 152.807 L2065.53 152.807 L2065.53 145.585 L2067.97 145.585 Z" fill="#000000" fill-rule="nonzero" fill-opacity="1" /><path clip-path="url(#clip370)" d="M2100.26 137.067 L2100.26 141.094 Q2098.45 140.169 2096.51 139.706 Q2094.56 139.243 2092.48 139.243 Q2089.31 139.243 2087.71 140.215 Q2086.14 141.187 2086.14 143.131 Q2086.14 144.613 2087.27 145.469 Q2088.4 146.303 2091.83 147.067 L2093.29 147.391 Q2097.83 148.363 2099.72 150.145 Q2101.65 151.905 2101.65 155.076 Q2101.65 158.687 2098.78 160.793 Q2095.93 162.9 2090.93 162.9 Q2088.84 162.9 2086.58 162.483 Q2084.33 162.09 2081.83 161.28 L2081.83 156.881 Q2084.19 158.108 2086.48 158.733 Q2088.78 159.335 2091.02 159.335 Q2094.03 159.335 2095.65 158.317 Q2097.27 157.275 2097.27 155.4 Q2097.27 153.664 2096.09 152.738 Q2094.93 151.812 2090.97 150.956 L2089.49 150.608 Q2085.53 149.775 2083.78 148.062 Q2082.02 146.326 2082.02 143.317 Q2082.02 139.659 2084.61 137.669 Q2087.2 135.678 2091.97 135.678 Q2094.33 135.678 2096.41 136.025 Q2098.5 136.372 2100.26 137.067 Z" fill="#000000" fill-rule="nonzero" fill-opacity="1" /><path clip-path="url(#clip370)" d="M2112.64 128.942 L2112.64 136.303 L2121.41 136.303 L2121.41 139.613 L2112.64 139.613 L2112.64 153.687 Q2112.64 156.858 2113.5 157.761 Q2114.38 158.664 2117.04 158.664 L2121.41 158.664 L2121.41 162.229 L2117.04 162.229 Q2112.11 162.229 2110.23 160.4 Q2108.36 158.548 2108.36 153.687 L2108.36 139.613 L2105.23 139.613 L2105.23 136.303 L2108.36 136.303 L2108.36 128.942 L2112.64 128.942 Z" fill="#000000" fill-rule="nonzero" fill-opacity="1" /><path clip-path="url(#clip370)" d="M2137.06 139.289 Q2133.64 139.289 2131.65 141.974 Q2129.65 144.636 2129.65 149.289 Q2129.65 153.942 2131.62 156.627 Q2133.61 159.289 2137.06 159.289 Q2140.46 159.289 2142.46 156.604 Q2144.45 153.918 2144.45 149.289 Q2144.45 144.682 2142.46 141.997 Q2140.46 139.289 2137.06 139.289 M2137.06 135.678 Q2142.62 135.678 2145.79 139.289 Q2148.96 142.9 2148.96 149.289 Q2148.96 155.655 2145.79 159.289 Q2142.62 162.9 2137.06 162.9 Q2131.48 162.9 2128.31 159.289 Q2125.16 155.655 2125.16 149.289 Q2125.16 142.9 2128.31 139.289 Q2131.48 135.678 2137.06 135.678 Z" fill="#000000" fill-rule="nonzero" fill-opacity="1" /><path clip-path="url(#clip370)" d="M2171.04 140.284 Q2170.33 139.868 2169.47 139.682 Q2168.64 139.474 2167.62 139.474 Q2164.01 139.474 2162.06 141.835 Q2160.14 144.173 2160.14 148.571 L2160.14 162.229 L2155.86 162.229 L2155.86 136.303 L2160.14 136.303 L2160.14 140.331 Q2161.48 137.969 2163.64 136.835 Q2165.79 135.678 2168.87 135.678 Q2169.31 135.678 2169.84 135.747 Q2170.37 135.794 2171.02 135.909 L2171.04 140.284 Z" fill="#000000" fill-rule="nonzero" fill-opacity="1" /><path clip-path="url(#clip370)" d="M2187.29 149.196 Q2182.13 149.196 2180.14 150.377 Q2178.15 151.557 2178.15 154.405 Q2178.15 156.673 2179.63 158.016 Q2181.14 159.335 2183.71 159.335 Q2187.25 159.335 2189.38 156.835 Q2191.53 154.312 2191.53 150.145 L2191.53 149.196 L2187.29 149.196 M2195.79 147.437 L2195.79 162.229 L2191.53 162.229 L2191.53 158.293 Q2190.07 160.655 2187.9 161.789 Q2185.72 162.9 2182.57 162.9 Q2178.59 162.9 2176.23 160.678 Q2173.89 158.432 2173.89 154.682 Q2173.89 150.307 2176.81 148.085 Q2179.75 145.863 2185.56 145.863 L2191.53 145.863 L2191.53 145.446 Q2191.53 142.507 2189.58 140.909 Q2187.66 139.289 2184.17 139.289 Q2181.95 139.289 2179.84 139.821 Q2177.73 140.354 2175.79 141.419 L2175.79 137.483 Q2178.13 136.581 2180.33 136.141 Q2182.52 135.678 2184.61 135.678 Q2190.23 135.678 2193.01 138.594 Q2195.79 141.511 2195.79 147.437 Z" fill="#000000" fill-rule="nonzero" fill-opacity="1" /><path clip-path="url(#clip370)" d="M2221.62 148.965 Q2221.62 144.335 2219.7 141.789 Q2217.8 139.243 2214.35 139.243 Q2210.93 139.243 2209.01 141.789 Q2207.11 144.335 2207.11 148.965 Q2207.11 153.571 2209.01 156.118 Q2210.93 158.664 2214.35 158.664 Q2217.8 158.664 2219.7 156.118 Q2221.62 153.571 2221.62 148.965 M2225.88 159.011 Q2225.88 165.631 2222.94 168.849 Q2220 172.09 2213.94 172.09 Q2211.69 172.09 2209.7 171.742 Q2207.71 171.418 2205.83 170.724 L2205.83 166.58 Q2207.71 167.599 2209.54 168.085 Q2211.37 168.571 2213.27 168.571 Q2217.46 168.571 2219.54 166.372 Q2221.62 164.196 2221.62 159.775 L2221.62 157.668 Q2220.3 159.96 2218.24 161.094 Q2216.18 162.229 2213.31 162.229 Q2208.54 162.229 2205.63 158.594 Q2202.71 154.96 2202.71 148.965 Q2202.71 142.946 2205.63 139.312 Q2208.54 135.678 2213.31 135.678 Q2216.18 135.678 2218.24 136.812 Q2220.3 137.946 2221.62 140.238 L2221.62 136.303 L2225.88 136.303 L2225.88 159.011 Z" fill="#000000" fill-rule="nonzero" fill-opacity="1" /><path clip-path="url(#clip370)" d="M2256.83 148.201 L2256.83 150.284 L2237.25 150.284 Q2237.52 154.682 2239.89 156.997 Q2242.27 159.289 2246.51 159.289 Q2248.96 159.289 2251.25 158.687 Q2253.57 158.085 2255.83 156.881 L2255.83 160.909 Q2253.54 161.881 2251.14 162.391 Q2248.73 162.9 2246.25 162.9 Q2240.05 162.9 2236.41 159.289 Q2232.8 155.678 2232.8 149.52 Q2232.8 143.155 2236.23 139.428 Q2239.68 135.678 2245.51 135.678 Q2250.74 135.678 2253.77 139.057 Q2256.83 142.414 2256.83 148.201 M2252.57 146.951 Q2252.52 143.456 2250.6 141.372 Q2248.71 139.289 2245.56 139.289 Q2241.99 139.289 2239.84 141.303 Q2237.71 143.317 2237.39 146.974 L2252.57 146.951 Z" fill="#000000" fill-rule="nonzero" fill-opacity="1" /><polyline clip-path="url(#clip370)" style="stroke:#e26f46; stroke-linecap:round; stroke-linejoin:round; stroke-width:4; stroke-opacity:1; fill:none" points="1829.56,196.789 1973.45,196.789 "/>
<path clip-path="url(#clip370)" d="M1997.43 188.143 L2001.95 188.143 L2010.05 209.902 L2018.15 188.143 L2022.66 188.143 L2012.94 214.069 L2007.16 214.069 L1997.43 188.143 Z" fill="#000000" fill-rule="nonzero" fill-opacity="1" /><path clip-path="url(#clip370)" d="M2029.19 179.509 L2047.55 179.509 L2047.55 183.444 L2033.47 183.444 L2033.47 191.916 Q2034.49 191.569 2035.51 191.407 Q2036.53 191.222 2037.55 191.222 Q2043.34 191.222 2046.72 194.393 Q2050.09 197.564 2050.09 202.981 Q2050.09 208.559 2046.62 211.661 Q2043.15 214.74 2036.83 214.74 Q2034.66 214.74 2032.39 214.37 Q2030.14 213.999 2027.73 213.258 L2027.73 208.559 Q2029.82 209.694 2032.04 210.249 Q2034.26 210.805 2036.74 210.805 Q2040.74 210.805 2043.08 208.698 Q2045.42 206.592 2045.42 202.981 Q2045.42 199.37 2043.08 197.263 Q2040.74 195.157 2036.74 195.157 Q2034.86 195.157 2032.99 195.573 Q2031.14 195.99 2029.19 196.87 L2029.19 179.509 Z" fill="#000000" fill-rule="nonzero" fill-opacity="1" /><path clip-path="url(#clip370)" d="M2067.97 197.425 L2067.97 204.647 L2076.09 204.647 L2076.09 206.846 L2067.97 206.846 L2067.97 214.069 L2065.53 214.069 L2065.53 206.846 L2057.41 206.846 L2057.41 204.647 L2065.53 204.647 L2065.53 197.425 L2067.97 197.425 Z" fill="#000000" fill-rule="nonzero" fill-opacity="1" /><path clip-path="url(#clip370)" d="M2100.26 188.907 L2100.26 192.934 Q2098.45 192.009 2096.51 191.546 Q2094.56 191.083 2092.48 191.083 Q2089.31 191.083 2087.71 192.055 Q2086.14 193.027 2086.14 194.971 Q2086.14 196.453 2087.27 197.309 Q2088.4 198.143 2091.83 198.907 L2093.29 199.231 Q2097.83 200.203 2099.72 201.985 Q2101.65 203.745 2101.65 206.916 Q2101.65 210.527 2098.78 212.633 Q2095.93 214.74 2090.93 214.74 Q2088.84 214.74 2086.58 214.323 Q2084.33 213.93 2081.83 213.12 L2081.83 208.721 Q2084.19 209.948 2086.48 210.573 Q2088.78 211.175 2091.02 211.175 Q2094.03 211.175 2095.65 210.157 Q2097.27 209.115 2097.27 207.24 Q2097.27 205.504 2096.09 204.578 Q2094.93 203.652 2090.97 202.796 L2089.49 202.448 Q2085.53 201.615 2083.78 199.902 Q2082.02 198.166 2082.02 195.157 Q2082.02 191.499 2084.61 189.509 Q2087.2 187.518 2091.97 187.518 Q2094.33 187.518 2096.41 187.865 Q2098.5 188.212 2100.26 188.907 Z" fill="#000000" fill-rule="nonzero" fill-opacity="1" /><path clip-path="url(#clip370)" d="M2112.64 180.782 L2112.64 188.143 L2121.41 188.143 L2121.41 191.453 L2112.64 191.453 L2112.64 205.527 Q2112.64 208.698 2113.5 209.601 Q2114.38 210.504 2117.04 210.504 L2121.41 210.504 L2121.41 214.069 L2117.04 214.069 Q2112.11 214.069 2110.23 212.24 Q2108.36 210.388 2108.36 205.527 L2108.36 191.453 L2105.23 191.453 L2105.23 188.143 L2108.36 188.143 L2108.36 180.782 L2112.64 180.782 Z" fill="#000000" fill-rule="nonzero" fill-opacity="1" /><path clip-path="url(#clip370)" d="M2137.06 191.129 Q2133.64 191.129 2131.65 193.814 Q2129.65 196.476 2129.65 201.129 Q2129.65 205.782 2131.62 208.467 Q2133.61 211.129 2137.06 211.129 Q2140.46 211.129 2142.46 208.444 Q2144.45 205.758 2144.45 201.129 Q2144.45 196.522 2142.46 193.837 Q2140.46 191.129 2137.06 191.129 M2137.06 187.518 Q2142.62 187.518 2145.79 191.129 Q2148.96 194.74 2148.96 201.129 Q2148.96 207.495 2145.79 211.129 Q2142.62 214.74 2137.06 214.74 Q2131.48 214.74 2128.31 211.129 Q2125.16 207.495 2125.16 201.129 Q2125.16 194.74 2128.31 191.129 Q2131.48 187.518 2137.06 187.518 Z" fill="#000000" fill-rule="nonzero" fill-opacity="1" /><path clip-path="url(#clip370)" d="M2171.04 192.124 Q2170.33 191.708 2169.47 191.522 Q2168.64 191.314 2167.62 191.314 Q2164.01 191.314 2162.06 193.675 Q2160.14 196.013 2160.14 200.411 L2160.14 214.069 L2155.86 214.069 L2155.86 188.143 L2160.14 188.143 L2160.14 192.171 Q2161.48 189.809 2163.64 188.675 Q2165.79 187.518 2168.87 187.518 Q2169.31 187.518 2169.84 187.587 Q2170.37 187.634 2171.02 187.749 L2171.04 192.124 Z" fill="#000000" fill-rule="nonzero" fill-opacity="1" /><path clip-path="url(#clip370)" d="M2187.29 201.036 Q2182.13 201.036 2180.14 202.217 Q2178.15 203.397 2178.15 206.245 Q2178.15 208.513 2179.63 209.856 Q2181.14 211.175 2183.71 211.175 Q2187.25 211.175 2189.38 208.675 Q2191.53 206.152 2191.53 201.985 L2191.53 201.036 L2187.29 201.036 M2195.79 199.277 L2195.79 214.069 L2191.53 214.069 L2191.53 210.133 Q2190.07 212.495 2187.9 213.629 Q2185.72 214.74 2182.57 214.74 Q2178.59 214.74 2176.23 212.518 Q2173.89 210.272 2173.89 206.522 Q2173.89 202.147 2176.81 199.925 Q2179.75 197.703 2185.56 197.703 L2191.53 197.703 L2191.53 197.286 Q2191.53 194.347 2189.58 192.749 Q2187.66 191.129 2184.17 191.129 Q2181.95 191.129 2179.84 191.661 Q2177.73 192.194 2175.79 193.259 L2175.79 189.323 Q2178.13 188.421 2180.33 187.981 Q2182.52 187.518 2184.61 187.518 Q2190.23 187.518 2193.01 190.434 Q2195.79 193.351 2195.79 199.277 Z" fill="#000000" fill-rule="nonzero" fill-opacity="1" /><path clip-path="url(#clip370)" d="M2221.62 200.805 Q2221.62 196.175 2219.7 193.629 Q2217.8 191.083 2214.35 191.083 Q2210.93 191.083 2209.01 193.629 Q2207.11 196.175 2207.11 200.805 Q2207.11 205.411 2209.01 207.958 Q2210.93 210.504 2214.35 210.504 Q2217.8 210.504 2219.7 207.958 Q2221.62 205.411 2221.62 200.805 M2225.88 210.851 Q2225.88 217.471 2222.94 220.689 Q2220 223.93 2213.94 223.93 Q2211.69 223.93 2209.7 223.582 Q2207.71 223.258 2205.83 222.564 L2205.83 218.42 Q2207.71 219.439 2209.54 219.925 Q2211.37 220.411 2213.27 220.411 Q2217.46 220.411 2219.54 218.212 Q2221.62 216.036 2221.62 211.615 L2221.62 209.508 Q2220.3 211.8 2218.24 212.934 Q2216.18 214.069 2213.31 214.069 Q2208.54 214.069 2205.63 210.434 Q2202.71 206.8 2202.71 200.805 Q2202.71 194.786 2205.63 191.152 Q2208.54 187.518 2213.31 187.518 Q2216.18 187.518 2218.24 188.652 Q2220.3 189.786 2221.62 192.078 L2221.62 188.143 L2225.88 188.143 L2225.88 210.851 Z" fill="#000000" fill-rule="nonzero" fill-opacity="1" /><path clip-path="url(#clip370)" d="M2256.83 200.041 L2256.83 202.124 L2237.25 202.124 Q2237.52 206.522 2239.89 208.837 Q2242.27 211.129 2246.51 211.129 Q2248.96 211.129 2251.25 210.527 Q2253.57 209.925 2255.83 208.721 L2255.83 212.749 Q2253.54 213.721 2251.14 214.231 Q2248.73 214.74 2246.25 214.74 Q2240.05 214.74 2236.41 211.129 Q2232.8 207.518 2232.8 201.36 Q2232.8 194.995 2236.23 191.268 Q2239.68 187.518 2245.51 187.518 Q2250.74 187.518 2253.77 190.897 Q2256.83 194.254 2256.83 200.041 M2252.57 198.791 Q2252.52 195.296 2250.6 193.212 Q2248.71 191.129 2245.56 191.129 Q2241.99 191.129 2239.84 193.143 Q2237.71 195.157 2237.39 198.814 L2252.57 198.791 Z" fill="#000000" fill-rule="nonzero" fill-opacity="1" /></svg>
