<?xml version="1.0" encoding="utf-8"?>
<svg xmlns="http://www.w3.org/2000/svg" xmlns:xlink="http://www.w3.org/1999/xlink" width="600" height="400" viewBox="0 0 2400 1600">
<defs>
  <clipPath id="clip090">
    <rect x="0" y="0" width="2400" height="1600"/>
  </clipPath>
</defs>
<path clip-path="url(#clip090)" d="M0 1600 L2400 1600 L2400 0 L0 0  Z" fill="#ffffff" fill-rule="evenodd" fill-opacity="1"/>
<defs>
  <clipPath id="clip091">
    <rect x="480" y="0" width="1681" height="1600"/>
  </clipPath>
</defs>
<path clip-path="url(#clip090)" d="M193.936 1423.18 L2352.76 1423.18 L2352.76 47.2441 L193.936 47.2441  Z" fill="#ffffff" fill-rule="evenodd" fill-opacity="1"/>
<defs>
  <clipPath id="clip092">
    <rect x="193" y="47" width="2160" height="1377"/>
  </clipPath>
</defs>
<polyline clip-path="url(#clip092)" style="stroke:#000000; stroke-linecap:round; stroke-linejoin:round; stroke-width:2; stroke-opacity:0.1; fill:none" points="193.936,1423.18 193.936,47.2441 "/>
<polyline clip-path="url(#clip092)" style="stroke:#000000; stroke-linecap:round; stroke-linejoin:round; stroke-width:2; stroke-opacity:0.1; fill:none" points="733.641,1423.18 733.641,47.2441 "/>
<polyline clip-path="url(#clip092)" style="stroke:#000000; stroke-linecap:round; stroke-linejoin:round; stroke-width:2; stroke-opacity:0.1; fill:none" points="1273.35,1423.18 1273.35,47.2441 "/>
<polyline clip-path="url(#clip092)" style="stroke:#000000; stroke-linecap:round; stroke-linejoin:round; stroke-width:2; stroke-opacity:0.1; fill:none" points="1813.05,1423.18 1813.05,47.2441 "/>
<polyline clip-path="url(#clip092)" style="stroke:#000000; stroke-linecap:round; stroke-linejoin:round; stroke-width:2; stroke-opacity:0.1; fill:none" points="2352.76,1423.18 2352.76,47.2441 "/>
<polyline clip-path="url(#clip092)" style="stroke:#000000; stroke-linecap:round; stroke-linejoin:round; stroke-width:2; stroke-opacity:0.1; fill:none" points="193.936,1415.39 2352.76,1415.39 "/>
<polyline clip-path="url(#clip092)" style="stroke:#000000; stroke-linecap:round; stroke-linejoin:round; stroke-width:2; stroke-opacity:0.1; fill:none" points="193.936,1046.7 2352.76,1046.7 "/>
<polyline clip-path="url(#clip092)" style="stroke:#000000; stroke-linecap:round; stroke-linejoin:round; stroke-width:2; stroke-opacity:0.1; fill:none" points="193.936,678.012 2352.76,678.012 "/>
<polyline clip-path="url(#clip092)" style="stroke:#000000; stroke-linecap:round; stroke-linejoin:round; stroke-width:2; stroke-opacity:0.1; fill:none" points="193.936,309.325 2352.76,309.325 "/>
<polyline clip-path="url(#clip090)" style="stroke:#000000; stroke-linecap:round; stroke-linejoin:round; stroke-width:4; stroke-opacity:1; fill:none" points="193.936,1423.18 2352.76,1423.18 "/>
<polyline clip-path="url(#clip090)" style="stroke:#000000; stroke-linecap:round; stroke-linejoin:round; stroke-width:4; stroke-opacity:1; fill:none" points="193.936,1423.18 193.936,1404.28 "/>
<polyline clip-path="url(#clip090)" style="stroke:#000000; stroke-linecap:round; stroke-linejoin:round; stroke-width:4; stroke-opacity:1; fill:none" points="733.641,1423.18 733.641,1404.28 "/>
<polyline clip-path="url(#clip090)" style="stroke:#000000; stroke-linecap:round; stroke-linejoin:round; stroke-width:4; stroke-opacity:1; fill:none" points="1273.35,1423.18 1273.35,1404.28 "/>
<polyline clip-path="url(#clip090)" style="stroke:#000000; stroke-linecap:round; stroke-linejoin:round; stroke-width:4; stroke-opacity:1; fill:none" points="1813.05,1423.18 1813.05,1404.28 "/>
<polyline clip-path="url(#clip090)" style="stroke:#000000; stroke-linecap:round; stroke-linejoin:round; stroke-width:4; stroke-opacity:1; fill:none" points="2352.76,1423.18 2352.76,1404.28 "/>
<path clip-path="url(#clip090)" d="M171.32 1454.1 Q167.709 1454.1 165.881 1457.66 Q164.075 1461.2 164.075 1468.33 Q164.075 1475.44 165.881 1479.01 Q167.709 1482.55 171.32 1482.55 Q174.955 1482.55 176.76 1479.01 Q178.589 1475.44 178.589 1468.33 Q178.589 1461.2 176.76 1457.66 Q174.955 1454.1 171.32 1454.1 M171.32 1450.39 Q177.131 1450.39 180.186 1455 Q183.265 1459.58 183.265 1468.33 Q183.265 1477.06 180.186 1481.67 Q177.131 1486.25 171.32 1486.25 Q165.51 1486.25 162.432 1481.67 Q159.376 1477.06 159.376 1468.33 Q159.376 1459.58 162.432 1455 Q165.51 1450.39 171.32 1450.39 Z" fill="#000000" fill-rule="nonzero" fill-opacity="1" /><path clip-path="url(#clip090)" d="M191.482 1479.7 L196.367 1479.7 L196.367 1485.58 L191.482 1485.58 L191.482 1479.7 Z" fill="#000000" fill-rule="nonzero" fill-opacity="1" /><path clip-path="url(#clip090)" d="M216.552 1454.1 Q212.941 1454.1 211.112 1457.66 Q209.306 1461.2 209.306 1468.33 Q209.306 1475.44 211.112 1479.01 Q212.941 1482.55 216.552 1482.55 Q220.186 1482.55 221.991 1479.01 Q223.82 1475.44 223.82 1468.33 Q223.82 1461.2 221.991 1457.66 Q220.186 1454.1 216.552 1454.1 M216.552 1450.39 Q222.362 1450.39 225.417 1455 Q228.496 1459.58 228.496 1468.33 Q228.496 1477.06 225.417 1481.67 Q222.362 1486.25 216.552 1486.25 Q210.741 1486.25 207.663 1481.67 Q204.607 1477.06 204.607 1468.33 Q204.607 1459.58 207.663 1455 Q210.741 1450.39 216.552 1450.39 Z" fill="#000000" fill-rule="nonzero" fill-opacity="1" /><path clip-path="url(#clip090)" d="M711.523 1454.1 Q707.912 1454.1 706.083 1457.66 Q704.278 1461.2 704.278 1468.33 Q704.278 1475.44 706.083 1479.01 Q707.912 1482.55 711.523 1482.55 Q715.157 1482.55 716.963 1479.01 Q718.792 1475.44 718.792 1468.33 Q718.792 1461.2 716.963 1457.66 Q715.157 1454.1 711.523 1454.1 M711.523 1450.39 Q717.333 1450.39 720.389 1455 Q723.467 1459.58 723.467 1468.33 Q723.467 1477.06 720.389 1481.67 Q717.333 1486.25 711.523 1486.25 Q705.713 1486.25 702.634 1481.67 Q699.579 1477.06 699.579 1468.33 Q699.579 1459.58 702.634 1455 Q705.713 1450.39 711.523 1450.39 Z" fill="#000000" fill-rule="nonzero" fill-opacity="1" /><path clip-path="url(#clip090)" d="M731.685 1479.7 L736.569 1479.7 L736.569 1485.58 L731.685 1485.58 L731.685 1479.7 Z" fill="#000000" fill-rule="nonzero" fill-opacity="1" /><path clip-path="url(#clip090)" d="M746.801 1451.02 L765.157 1451.02 L765.157 1454.96 L751.083 1454.96 L751.083 1463.43 Q752.102 1463.08 753.12 1462.92 Q754.139 1462.73 755.157 1462.73 Q760.944 1462.73 764.324 1465.9 Q767.703 1469.08 767.703 1474.49 Q767.703 1480.07 764.231 1483.17 Q760.759 1486.25 754.439 1486.25 Q752.264 1486.25 749.995 1485.88 Q747.75 1485.51 745.342 1484.77 L745.342 1480.07 Q747.426 1481.2 749.648 1481.76 Q751.87 1482.32 754.347 1482.32 Q758.351 1482.32 760.689 1480.21 Q763.027 1478.1 763.027 1474.49 Q763.027 1470.88 760.689 1468.77 Q758.351 1466.67 754.347 1466.67 Q752.472 1466.67 750.597 1467.08 Q748.745 1467.5 746.801 1468.38 L746.801 1451.02 Z" fill="#000000" fill-rule="nonzero" fill-opacity="1" /><path clip-path="url(#clip090)" d="M1240.5 1481.64 L1248.14 1481.64 L1248.14 1455.28 L1239.83 1456.95 L1239.83 1452.69 L1248.09 1451.02 L1252.77 1451.02 L1252.77 1481.64 L1260.41 1481.64 L1260.41 1485.58 L1240.5 1485.58 L1240.5 1481.64 Z" fill="#000000" fill-rule="nonzero" fill-opacity="1" /><path clip-path="url(#clip090)" d="M1269.85 1479.7 L1274.73 1479.7 L1274.73 1485.58 L1269.85 1485.58 L1269.85 1479.7 Z" fill="#000000" fill-rule="nonzero" fill-opacity="1" /><path clip-path="url(#clip090)" d="M1294.92 1454.1 Q1291.31 1454.1 1289.48 1457.66 Q1287.67 1461.2 1287.67 1468.33 Q1287.67 1475.44 1289.48 1479.01 Q1291.31 1482.55 1294.92 1482.55 Q1298.55 1482.55 1300.36 1479.01 Q1302.19 1475.44 1302.19 1468.33 Q1302.19 1461.2 1300.36 1457.66 Q1298.55 1454.1 1294.92 1454.1 M1294.92 1450.39 Q1300.73 1450.39 1303.79 1455 Q1306.86 1459.58 1306.86 1468.33 Q1306.86 1477.06 1303.79 1481.67 Q1300.73 1486.25 1294.92 1486.25 Q1289.11 1486.25 1286.03 1481.67 Q1282.98 1477.06 1282.98 1468.33 Q1282.98 1459.58 1286.03 1455 Q1289.11 1450.39 1294.92 1450.39 Z" fill="#000000" fill-rule="nonzero" fill-opacity="1" /><path clip-path="url(#clip090)" d="M1780.7 1481.64 L1788.34 1481.64 L1788.34 1455.28 L1780.03 1456.95 L1780.03 1452.69 L1788.29 1451.02 L1792.97 1451.02 L1792.97 1481.64 L1800.61 1481.64 L1800.61 1485.58 L1780.7 1485.58 L1780.7 1481.64 Z" fill="#000000" fill-rule="nonzero" fill-opacity="1" /><path clip-path="url(#clip090)" d="M1810.05 1479.7 L1814.94 1479.7 L1814.94 1485.58 L1810.05 1485.58 L1810.05 1479.7 Z" fill="#000000" fill-rule="nonzero" fill-opacity="1" /><path clip-path="url(#clip090)" d="M1825.17 1451.02 L1843.53 1451.02 L1843.53 1454.96 L1829.45 1454.96 L1829.45 1463.43 Q1830.47 1463.08 1831.49 1462.92 Q1832.51 1462.73 1833.53 1462.73 Q1839.31 1462.73 1842.69 1465.9 Q1846.07 1469.08 1846.07 1474.49 Q1846.07 1480.07 1842.6 1483.17 Q1839.13 1486.25 1832.81 1486.25 Q1830.63 1486.25 1828.36 1485.88 Q1826.12 1485.51 1823.71 1484.77 L1823.71 1480.07 Q1825.79 1481.2 1828.02 1481.76 Q1830.24 1482.32 1832.72 1482.32 Q1836.72 1482.32 1839.06 1480.21 Q1841.4 1478.1 1841.4 1474.49 Q1841.4 1470.88 1839.06 1468.77 Q1836.72 1466.67 1832.72 1466.67 Q1830.84 1466.67 1828.97 1467.08 Q1827.11 1467.5 1825.17 1468.38 L1825.17 1451.02 Z" fill="#000000" fill-rule="nonzero" fill-opacity="1" /><path clip-path="url(#clip090)" d="M2323.99 1481.64 L2340.31 1481.64 L2340.31 1485.58 L2318.37 1485.58 L2318.37 1481.64 Q2321.03 1478.89 2325.61 1474.26 Q2330.22 1469.61 2331.4 1468.27 Q2333.65 1465.74 2334.53 1464.01 Q2335.43 1462.25 2335.43 1460.56 Q2335.43 1457.8 2333.49 1456.07 Q2331.56 1454.33 2328.46 1454.33 Q2326.26 1454.33 2323.81 1455.09 Q2321.38 1455.86 2318.6 1457.41 L2318.6 1452.69 Q2321.43 1451.55 2323.88 1450.97 Q2326.33 1450.39 2328.37 1450.39 Q2333.74 1450.39 2336.93 1453.08 Q2340.13 1455.77 2340.13 1460.26 Q2340.13 1462.39 2339.32 1464.31 Q2338.53 1466.2 2336.42 1468.8 Q2335.85 1469.47 2332.74 1472.69 Q2329.64 1475.88 2323.99 1481.64 Z" fill="#000000" fill-rule="nonzero" fill-opacity="1" /><path clip-path="url(#clip090)" d="M2350.13 1479.7 L2355.01 1479.7 L2355.01 1485.58 L2350.13 1485.58 L2350.13 1479.7 Z" fill="#000000" fill-rule="nonzero" fill-opacity="1" /><path clip-path="url(#clip090)" d="M2375.2 1454.1 Q2371.59 1454.1 2369.76 1457.66 Q2367.95 1461.2 2367.95 1468.33 Q2367.95 1475.44 2369.76 1479.01 Q2371.59 1482.55 2375.2 1482.55 Q2378.83 1482.55 2380.64 1479.01 Q2382.47 1475.44 2382.47 1468.33 Q2382.47 1461.2 2380.64 1457.66 Q2378.83 1454.1 2375.2 1454.1 M2375.2 1450.39 Q2381.01 1450.39 2384.06 1455 Q2387.14 1459.58 2387.14 1468.33 Q2387.14 1477.06 2384.06 1481.67 Q2381.01 1486.25 2375.2 1486.25 Q2369.39 1486.25 2366.31 1481.67 Q2363.25 1477.06 2363.25 1468.33 Q2363.25 1459.58 2366.31 1455 Q2369.39 1450.39 2375.2 1450.39 Z" fill="#000000" fill-rule="nonzero" fill-opacity="1" /><path clip-path="url(#clip090)" d="M1272.41 1522.27 L1272.41 1532.4 L1284.47 1532.4 L1284.47 1536.95 L1272.41 1536.95 L1272.41 1556.3 Q1272.41 1560.66 1273.58 1561.9 Q1274.79 1563.14 1278.45 1563.14 L1284.47 1563.14 L1284.47 1568.04 L1278.45 1568.04 Q1271.67 1568.04 1269.1 1565.53 Q1266.52 1562.98 1266.52 1556.3 L1266.52 1536.95 L1262.22 1536.95 L1262.22 1532.4 L1266.52 1532.4 L1266.52 1522.27 L1272.41 1522.27 Z" fill="#000000" fill-rule="nonzero" fill-opacity="1" /><polyline clip-path="url(#clip090)" style="stroke:#000000; stroke-linecap:round; stroke-linejoin:round; stroke-width:4; stroke-opacity:1; fill:none" points="193.936,1423.18 193.936,47.2441 "/>
<polyline clip-path="url(#clip090)" style="stroke:#000000; stroke-linecap:round; stroke-linejoin:round; stroke-width:4; stroke-opacity:1; fill:none" points="193.936,1415.39 212.834,1415.39 "/>
<polyline clip-path="url(#clip090)" style="stroke:#000000; stroke-linecap:round; stroke-linejoin:round; stroke-width:4; stroke-opacity:1; fill:none" points="193.936,1046.7 212.834,1046.7 "/>
<polyline clip-path="url(#clip090)" style="stroke:#000000; stroke-linecap:round; stroke-linejoin:round; stroke-width:4; stroke-opacity:1; fill:none" points="193.936,678.012 212.834,678.012 "/>
<polyline clip-path="url(#clip090)" style="stroke:#000000; stroke-linecap:round; stroke-linejoin:round; stroke-width:4; stroke-opacity:1; fill:none" points="193.936,309.325 212.834,309.325 "/>
<path clip-path="url(#clip090)" d="M50.9921 1415.84 L80.6679 1415.84 L80.6679 1419.77 L50.9921 1419.77 L50.9921 1415.84 Z" fill="#000000" fill-rule="nonzero" fill-opacity="1" /><path clip-path="url(#clip090)" d="M94.7882 1428.73 L111.108 1428.73 L111.108 1432.67 L89.1632 1432.67 L89.1632 1428.73 Q91.8252 1425.98 96.4085 1421.35 Q101.015 1416.69 102.196 1415.35 Q104.441 1412.83 105.321 1411.09 Q106.223 1409.33 106.223 1407.64 Q106.223 1404.89 104.279 1403.15 Q102.358 1401.42 99.2558 1401.42 Q97.0567 1401.42 94.603 1402.18 Q92.1725 1402.94 89.3947 1404.49 L89.3947 1399.77 Q92.2188 1398.64 94.6724 1398.06 Q97.1261 1397.48 99.1632 1397.48 Q104.534 1397.48 107.728 1400.17 Q110.922 1402.85 110.922 1407.34 Q110.922 1409.47 110.112 1411.39 Q109.325 1413.29 107.219 1415.88 Q106.64 1416.55 103.538 1419.77 Q100.436 1422.97 94.7882 1428.73 Z" fill="#000000" fill-rule="nonzero" fill-opacity="1" /><path clip-path="url(#clip090)" d="M120.922 1426.79 L125.807 1426.79 L125.807 1432.67 L120.922 1432.67 L120.922 1426.79 Z" fill="#000000" fill-rule="nonzero" fill-opacity="1" /><path clip-path="url(#clip090)" d="M145.992 1401.18 Q142.381 1401.18 140.552 1404.75 Q138.746 1408.29 138.746 1415.42 Q138.746 1422.53 140.552 1426.09 Q142.381 1429.63 145.992 1429.63 Q149.626 1429.63 151.431 1426.09 Q153.26 1422.53 153.26 1415.42 Q153.26 1408.29 151.431 1404.75 Q149.626 1401.18 145.992 1401.18 M145.992 1397.48 Q151.802 1397.48 154.857 1402.09 Q157.936 1406.67 157.936 1415.42 Q157.936 1424.15 154.857 1428.75 Q151.802 1433.34 145.992 1433.34 Q140.181 1433.34 137.103 1428.75 Q134.047 1424.15 134.047 1415.42 Q134.047 1406.67 137.103 1402.09 Q140.181 1397.48 145.992 1397.48 Z" fill="#000000" fill-rule="nonzero" fill-opacity="1" /><path clip-path="url(#clip090)" d="M51.9875 1047.15 L81.6633 1047.15 L81.6633 1051.09 L51.9875 1051.09 L51.9875 1047.15 Z" fill="#000000" fill-rule="nonzero" fill-opacity="1" /><path clip-path="url(#clip090)" d="M92.566 1060.04 L100.205 1060.04 L100.205 1033.68 L91.8947 1035.34 L91.8947 1031.09 L100.159 1029.42 L104.834 1029.42 L104.834 1060.04 L112.473 1060.04 L112.473 1063.98 L92.566 1063.98 L92.566 1060.04 Z" fill="#000000" fill-rule="nonzero" fill-opacity="1" /><path clip-path="url(#clip090)" d="M121.918 1058.1 L126.802 1058.1 L126.802 1063.98 L121.918 1063.98 L121.918 1058.1 Z" fill="#000000" fill-rule="nonzero" fill-opacity="1" /><path clip-path="url(#clip090)" d="M137.033 1029.42 L155.39 1029.42 L155.39 1033.35 L141.316 1033.35 L141.316 1041.83 Q142.334 1041.48 143.353 1041.32 Q144.371 1041.13 145.39 1041.13 Q151.177 1041.13 154.556 1044.3 Q157.936 1047.47 157.936 1052.89 Q157.936 1058.47 154.464 1061.57 Q150.992 1064.65 144.672 1064.65 Q142.496 1064.65 140.228 1064.28 Q137.982 1063.91 135.575 1063.17 L135.575 1058.47 Q137.658 1059.6 139.881 1060.16 Q142.103 1060.72 144.58 1060.72 Q148.584 1060.72 150.922 1058.61 Q153.26 1056.5 153.26 1052.89 Q153.26 1049.28 150.922 1047.17 Q148.584 1045.07 144.58 1045.07 Q142.705 1045.07 140.83 1045.48 Q138.978 1045.9 137.033 1046.78 L137.033 1029.42 Z" fill="#000000" fill-rule="nonzero" fill-opacity="1" /><path clip-path="url(#clip090)" d="M50.9921 678.464 L80.6679 678.464 L80.6679 682.399 L50.9921 682.399 L50.9921 678.464 Z" fill="#000000" fill-rule="nonzero" fill-opacity="1" /><path clip-path="url(#clip090)" d="M91.5706 691.357 L99.2095 691.357 L99.2095 664.991 L90.8993 666.658 L90.8993 662.399 L99.1632 660.732 L103.839 660.732 L103.839 691.357 L111.478 691.357 L111.478 695.292 L91.5706 695.292 L91.5706 691.357 Z" fill="#000000" fill-rule="nonzero" fill-opacity="1" /><path clip-path="url(#clip090)" d="M120.922 689.413 L125.807 689.413 L125.807 695.292 L120.922 695.292 L120.922 689.413 Z" fill="#000000" fill-rule="nonzero" fill-opacity="1" /><path clip-path="url(#clip090)" d="M145.992 663.811 Q142.381 663.811 140.552 667.376 Q138.746 670.917 138.746 678.047 Q138.746 685.153 140.552 688.718 Q142.381 692.26 145.992 692.26 Q149.626 692.26 151.431 688.718 Q153.26 685.153 153.26 678.047 Q153.26 670.917 151.431 667.376 Q149.626 663.811 145.992 663.811 M145.992 660.107 Q151.802 660.107 154.857 664.714 Q157.936 669.297 157.936 678.047 Q157.936 686.774 154.857 691.38 Q151.802 695.964 145.992 695.964 Q140.181 695.964 137.103 691.38 Q134.047 686.774 134.047 678.047 Q134.047 669.297 137.103 664.714 Q140.181 660.107 145.992 660.107 Z" fill="#000000" fill-rule="nonzero" fill-opacity="1" /><path clip-path="url(#clip090)" d="M51.9875 309.777 L81.6633 309.777 L81.6633 313.712 L51.9875 313.712 L51.9875 309.777 Z" fill="#000000" fill-rule="nonzero" fill-opacity="1" /><path clip-path="url(#clip090)" d="M101.756 295.124 Q98.1447 295.124 96.316 298.689 Q94.5104 302.231 94.5104 309.36 Q94.5104 316.467 96.316 320.031 Q98.1447 323.573 101.756 323.573 Q105.39 323.573 107.196 320.031 Q109.024 316.467 109.024 309.36 Q109.024 302.231 107.196 298.689 Q105.39 295.124 101.756 295.124 M101.756 291.42 Q107.566 291.42 110.621 296.027 Q113.7 300.61 113.7 309.36 Q113.7 318.087 110.621 322.693 Q107.566 327.277 101.756 327.277 Q95.9456 327.277 92.8669 322.693 Q89.8114 318.087 89.8114 309.36 Q89.8114 300.61 92.8669 296.027 Q95.9456 291.42 101.756 291.42 Z" fill="#000000" fill-rule="nonzero" fill-opacity="1" /><path clip-path="url(#clip090)" d="M121.918 320.726 L126.802 320.726 L126.802 326.605 L121.918 326.605 L121.918 320.726 Z" fill="#000000" fill-rule="nonzero" fill-opacity="1" /><path clip-path="url(#clip090)" d="M137.033 292.045 L155.39 292.045 L155.39 295.981 L141.316 295.981 L141.316 304.453 Q142.334 304.106 143.353 303.944 Q144.371 303.758 145.39 303.758 Q151.177 303.758 154.556 306.93 Q157.936 310.101 157.936 315.518 Q157.936 321.096 154.464 324.198 Q150.992 327.277 144.672 327.277 Q142.496 327.277 140.228 326.906 Q137.982 326.536 135.575 325.795 L135.575 321.096 Q137.658 322.23 139.881 322.786 Q142.103 323.342 144.58 323.342 Q148.584 323.342 150.922 321.235 Q153.26 319.129 153.26 315.518 Q153.26 311.906 150.922 309.8 Q148.584 307.694 144.58 307.694 Q142.705 307.694 140.83 308.11 Q138.978 308.527 137.033 309.406 L137.033 292.045 Z" fill="#000000" fill-rule="nonzero" fill-opacity="1" /><polyline clip-path="url(#clip092)" style="stroke:#009af9; stroke-linecap:round; stroke-linejoin:round; stroke-width:4; stroke-opacity:1; fill:none" points="193.936,1384.24 196.097,1372.43 198.258,1360.74 200.419,1349.16 202.58,1337.7 204.741,1326.35 206.902,1315.12 209.063,1304 211.224,1292.99 213.385,1282.09 215.546,1271.29 217.707,1260.61 219.868,1250.03 222.029,1239.56 224.19,1229.19 226.351,1218.92 228.512,1208.76 230.673,1198.7 232.834,1188.74 234.995,1178.87 237.156,1169.11 239.317,1159.44 241.478,1149.87 243.639,1140.4 245.8,1131.02 247.961,1121.73 250.122,1112.53 252.282,1103.43 254.443,1094.42 256.604,1085.49 258.765,1076.66 260.926,1067.91 263.087,1059.25 265.248,1050.68 267.409,1042.19 269.57,1033.79 271.731,1025.47 273.892,1017.23 276.053,1009.08 278.214,1001.01 280.375,993.013 282.536,985.1 284.697,977.265 286.858,969.509 289.019,961.83 291.18,954.227 293.341,946.7 295.502,939.248 297.663,931.871 299.824,924.566 301.985,917.335 304.146,910.175 306.307,903.087 308.468,896.07 310.629,889.122 312.79,882.243 314.951,875.433 317.112,868.691 319.273,862.016 321.434,855.408 323.595,848.865 325.756,842.388 327.917,835.975 330.078,829.626 332.239,823.34 334.4,817.117 336.561,810.956 338.722,804.856 340.883,798.817 343.044,792.838 345.205,786.919 347.366,781.058 349.527,775.256 351.688,769.512 353.849,763.825 356.01,758.194 358.171,752.62 360.332,747.101 362.493,741.637 364.653,736.227 366.814,730.872 368.975,725.569 371.136,720.32 373.297,715.122 375.458,709.977 377.619,704.882 379.78,699.839 381.941,694.846 384.102,689.902 386.263,685.008 388.424,680.162 390.585,675.365 392.746,670.616 394.907,665.914 397.068,661.258 399.229,656.649 401.39,652.086 403.551,647.569 405.712,643.097 407.873,638.669 410.034,634.285 412.195,629.945 414.356,625.648 416.517,621.394 418.678,617.182 420.839,613.012 423,608.884 425.161,604.797 427.322,600.75 429.483,596.744 431.644,592.778 433.805,588.851 435.966,584.964 438.127,581.115 440.288,577.304 442.449,573.531 444.61,569.796 446.771,566.098 448.932,562.437 451.093,558.813 453.254,555.224 455.415,551.671 457.576,548.153 459.737,544.671 461.898,541.223 464.059,537.809 466.22,534.43 468.381,531.084 470.542,527.771 472.703,524.492 474.864,521.245 477.024,518.03 479.185,514.848 481.346,511.697 483.507,508.578 485.668,505.49 487.829,502.432 489.99,499.405 492.151,496.408 494.312,493.441 496.473,490.504 498.634,487.596 500.795,484.717 502.956,481.866 505.117,479.044 507.278,476.251 509.439,473.484 511.6,470.746 513.761,468.035 515.922,465.351 518.083,462.693 520.244,460.062 522.405,457.457 524.566,454.878 526.727,452.325 528.888,449.797 531.049,447.295 533.21,444.817 535.371,442.364 537.532,439.936 539.693,437.531 541.854,435.151 544.015,432.794 546.176,430.461 548.337,428.15 550.498,425.863 552.659,423.599 554.82,421.357 556.981,419.137 559.142,416.94 561.303,414.764 563.464,412.61 565.625,410.478 567.786,408.366 569.947,406.276 572.108,404.207 574.269,402.158 576.43,400.129 578.591,398.121 580.752,396.133 582.913,394.165 585.074,392.216 587.235,390.287 589.396,388.377 591.556,386.485 593.717,384.613 595.878,382.76 598.039,380.925 600.2,379.108 602.361,377.309 604.522,375.529 606.683,373.766 608.844,372.02 611.005,370.293 613.166,368.582 615.327,366.888 617.488,365.211 619.649,363.551 621.81,361.908 623.971,360.28 626.132,358.669 628.293,357.075 630.454,355.495 632.615,353.932 634.776,352.384 636.937,350.852 639.098,349.335 641.259,347.833 643.42,346.346 645.581,344.874 647.742,343.416 649.903,341.973 652.064,340.544 654.225,339.13 656.386,337.729 658.547,336.343 660.708,334.97 662.869,333.611 665.03,332.265 667.191,330.933 669.352,329.614 671.513,328.308 673.674,327.015 675.835,325.735 677.996,324.468 680.157,323.213 682.318,321.971 684.479,320.741 686.64,319.523 688.801,318.318 690.962,317.125 693.123,315.943 695.284,314.773 697.445,313.615 699.606,312.469 701.767,311.333 703.927,310.21 706.088,309.097 708.249,307.996 710.41,306.905 712.571,305.825 714.732,304.757 716.893,303.698 719.054,302.651 721.215,301.614 723.376,300.587 725.537,299.57 727.698,298.564 729.859,297.568 732.02,296.581 734.181,295.605 736.342,294.638 738.503,293.681 740.664,292.733 742.825,291.795 744.986,290.866 747.147,289.947 749.308,289.036 751.469,288.135 753.63,287.243 755.791,286.359 757.952,285.485 760.113,284.619 762.274,283.761 764.435,282.913 766.596,282.072 768.757,281.24 770.918,280.417 773.079,279.601 775.24,278.794 777.401,277.994 779.562,277.203 781.723,276.419 783.884,275.644 786.045,274.876 788.206,274.115 790.367,273.362 792.528,272.617 794.689,271.879 796.85,271.148 799.011,270.425 801.172,269.708 803.333,268.999 805.494,268.297 807.655,267.602 809.816,266.914 811.977,266.232 814.138,265.557 816.298,264.889 818.459,264.228 820.62,263.573 822.781,262.925 824.942,262.283 827.103,261.648 829.264,261.019 831.425,260.396 833.586,259.78 835.747,259.169 837.908,258.565 840.069,257.967 842.23,257.374 844.391,256.788 846.552,256.207 848.713,255.633 850.874,255.064 853.035,254.5 855.196,253.943 857.357,253.391 859.518,252.844 861.679,252.303 863.84,251.767 866.001,251.237 868.162,250.712 870.323,250.192 872.484,249.678 874.645,249.168 876.806,248.664 878.967,248.165 881.128,247.67 883.289,247.181 885.45,246.696 887.611,246.217 889.772,245.742 891.933,245.272 894.094,244.806 896.255,244.346 898.416,243.889 900.577,243.438 902.738,242.991 904.899,242.548 907.06,242.11 909.221,241.676 911.382,241.246 913.543,240.821 915.704,240.4 917.865,239.983 920.026,239.57 922.187,239.162 924.348,238.757 926.509,238.357 928.669,237.96 930.83,237.568 932.991,237.179 935.152,236.794 937.313,236.413 939.474,236.036 941.635,235.662 943.796,235.292 945.957,234.926 948.118,234.563 950.279,234.204 952.44,233.849 954.601,233.497 956.762,233.148 958.923,232.803 961.084,232.462 963.245,232.123 965.406,231.789 967.567,231.457 969.728,231.129 971.889,230.804 974.05,230.482 976.211,230.163 978.372,229.848 980.533,229.535 982.694,229.226 984.855,228.92 987.016,228.617 989.177,228.317 991.338,228.02 993.499,227.726 995.66,227.435 997.821,227.146 999.982,226.861 1002.14,226.579 1004.3,226.299 1006.46,226.022 1008.63,225.748 1010.79,225.477 1012.95,225.208 1015.11,224.942 1017.27,224.679 1019.43,224.418 1021.59,224.16 1023.75,223.905 1025.91,223.652 1028.07,223.401 1030.24,223.154 1032.4,222.908 1034.56,222.665 1036.72,222.425 1038.88,222.187 1041.04,221.951 1043.2,221.718 1045.36,221.487 1047.52,221.258 1049.68,221.032 1051.85,220.808 1054.01,220.586 1056.17,220.367 1058.33,220.149 1060.49,219.934 1062.65,219.721 1064.81,219.51 1066.97,219.301 1069.13,219.094 1071.29,218.89 1073.46,218.687 1075.62,218.487 1077.78,218.288 1079.94,218.091 1082.1,217.897 1084.26,217.704 1086.42,217.513 1088.58,217.324 1090.74,217.137 1092.9,216.952 1095.07,216.769 1097.23,216.587 1099.39,216.408 1101.55,216.23 1103.71,216.054 1105.87,215.879 1108.03,215.706 1110.19,215.535 1112.35,215.366 1114.51,215.198 1116.67,215.032 1118.84,214.868 1121,214.705 1123.16,214.544 1125.32,214.385 1127.48,214.227 1129.64,214.07 1131.8,213.915 1133.96,213.762 1136.12,213.61 1138.28,213.46 1140.45,213.311 1142.61,213.163 1144.77,213.017 1146.93,212.872 1149.09,212.729 1151.25,212.588 1153.41,212.447 1155.57,212.308 1157.73,212.171 1159.89,212.035 1162.06,211.9 1164.22,211.766 1166.38,211.634 1168.54,211.503 1170.7,211.374 1172.86,211.245 1175.02,211.118 1177.18,210.993 1179.34,210.868 1181.5,210.745 1183.67,210.623 1185.83,210.502 1187.99,210.383 1190.15,210.264 1192.31,210.147 1194.47,210.031 1196.63,209.916 1198.79,209.803 1200.95,209.69 1203.11,209.579 1205.28,209.468 1207.44,209.359 1209.6,209.251 1211.76,209.144 1213.92,209.038 1216.08,208.934 1218.24,208.83 1220.4,208.727 1222.56,208.626 1224.72,208.525 1226.88,208.425 1229.05,208.327 1231.21,208.229 1233.37,208.132 1235.53,208.037 1237.69,207.942 1239.85,207.848 1242.01,207.755 1244.17,207.664 1246.33,207.573 1248.49,207.483 1250.66,207.394 1252.82,207.305 1254.98,207.218 1257.14,207.132 1259.3,207.046 1261.46,206.961 1263.62,206.877 1265.78,206.794 1267.94,206.712 1270.1,206.631 1272.27,206.55 1274.43,206.471 1276.59,206.392 1278.75,206.314 1280.91,206.236 1283.07,206.16 1285.23,206.084 1287.39,206.009 1289.55,205.934 1291.71,205.861 1293.88,205.788 1296.04,205.716 1298.2,205.644 1300.36,205.574 1302.52,205.504 1304.68,205.434 1306.84,205.366 1309,205.298 1311.16,205.23 1313.32,205.164 1315.49,205.098 1317.65,205.032 1319.81,204.967 1321.97,204.903 1324.13,204.84 1326.29,204.777 1328.45,204.715 1330.61,204.653 1332.77,204.592 1334.93,204.532 1337.09,204.472 1339.26,204.412 1341.42,204.354 1343.58,204.295 1345.74,204.238 1347.9,204.181 1350.06,204.124 1352.22,204.068 1354.38,204.013 1356.54,203.958 1358.7,203.904 1360.87,203.85 1363.03,203.797 1365.19,203.744 1367.35,203.692 1369.51,203.64 1371.67,203.589 1373.83,203.538 1375.99,203.488 1378.15,203.438 1380.31,203.389 1382.48,203.34 1384.64,203.292 1386.8,203.244 1388.96,203.197 1391.12,203.15 1393.28,203.104 1395.44,203.058 1397.6,203.013 1399.76,202.968 1401.92,202.923 1404.09,202.879 1406.25,202.836 1408.41,202.793 1410.57,202.75 1412.73,202.708 1414.89,202.666 1417.05,202.624 1419.21,202.583 1421.37,202.543 1423.53,202.503 1425.7,202.463 1427.86,202.423 1430.02,202.384 1432.18,202.346 1434.34,202.308 1436.5,202.27 1438.66,202.233 1440.82,202.196 1442.98,202.159 1445.14,202.123 1447.3,202.087 1449.47,202.051 1451.63,202.016 1453.79,201.981 1455.95,201.947 1458.11,201.913 1460.27,201.879 1462.43,201.846 1464.59,201.813 1466.75,201.78 1468.91,201.748 1471.08,201.716 1473.24,201.684 1475.4,201.653 1477.56,201.622 1479.72,201.591 1481.88,201.56 1484.04,201.53 1486.2,201.5 1488.36,201.471 1490.52,201.442 1492.69,201.413 1494.85,201.384 1497.01,201.356 1499.17,201.328 1501.33,201.3 1503.49,201.273 1505.65,201.245 1507.81,201.218 1509.97,201.192 1512.13,201.165 1514.3,201.139 1516.46,201.113 1518.62,201.088 1520.78,201.062 1522.94,201.037 1525.1,201.012 1527.26,200.988 1529.42,200.963 1531.58,200.939 1533.74,200.915 1535.91,200.892 1538.07,200.868 1540.23,200.845 1542.39,200.822 1544.55,200.799 1546.71,200.777 1548.87,200.755 1551.03,200.733 1553.19,200.711 1555.35,200.689 1557.51,200.667 1559.68,200.646 1561.84,200.625 1564,200.604 1566.16,200.583 1568.32,200.563 1570.48,200.543 1572.64,200.522 1574.8,200.503 1576.96,200.483 1579.12,200.463 1581.29,200.444 1583.45,200.425 1585.61,200.406 1587.77,200.387 1589.93,200.368 1592.09,200.35 1594.25,200.331 1596.41,200.313 1598.57,200.295 1600.73,200.277 1602.9,200.26 1605.06,200.242 1607.22,200.225 1609.38,200.208 1611.54,200.191 1613.7,200.174 1615.86,200.157 1618.02,200.141 1620.18,200.125 1622.34,200.109 1624.51,200.093 1626.67,200.077 1628.83,200.061 1630.99,200.046 1633.15,200.03 1635.31,200.015 1637.47,200 1639.63,199.985 1641.79,199.97 1643.95,199.956 1646.12,199.941 1648.28,199.927 1650.44,199.913 1652.6,199.899 1654.76,199.885 1656.92,199.871 1659.08,199.858 1661.24,199.844 1663.4,199.831 1665.56,199.818 1667.72,199.805 1669.89,199.792 1672.05,199.779 1674.21,199.766 1676.37,199.754 1678.53,199.742 1680.69,199.729 1682.85,199.717 1685.01,199.705 1687.17,199.693 1689.33,199.682 1691.5,199.67 1693.66,199.659 1695.82,199.647 1697.98,199.636 1700.14,199.625 1702.3,199.614 1704.46,199.603 1706.62,199.592 1708.78,199.581 1710.94,199.571 1713.11,199.56 1715.27,199.55 1717.43,199.54 1719.59,199.53 1721.75,199.52 1723.91,199.51 1726.07,199.5 1728.23,199.49 1730.39,199.481 1732.55,199.471 1734.72,199.462 1736.88,199.453 1739.04,199.443 1741.2,199.434 1743.36,199.425 1745.52,199.416 1747.68,199.408 1749.84,199.399 1752,199.39 1754.16,199.382 1756.33,199.373 1758.49,199.365 1760.65,199.357 1762.81,199.348 1764.97,199.34 1767.13,199.332 1769.29,199.324 1771.45,199.317 1773.61,199.309 1775.77,199.301 1777.93,199.293 1780.1,199.286 1782.26,199.279 1784.42,199.271 1786.58,199.264 1788.74,199.257 1790.9,199.249 1793.06,199.242 1795.22,199.235 1797.38,199.228 1799.54,199.222 1801.71,199.215 1803.87,199.208 1806.03,199.201 1808.19,199.195 1810.35,199.188 1812.51,199.182 1814.67,199.175 1816.83,199.169 1818.99,199.163 1821.15,199.156 1823.32,199.15 1825.48,199.144 1827.64,199.138 1829.8,199.132 1831.96,199.126 1834.12,199.12 1836.28,199.114 1838.44,199.108 1840.6,199.102 1842.76,199.097 1844.93,199.091 1847.09,199.085 1849.25,199.08 1851.41,199.074 1853.57,199.069 1855.73,199.063 1857.89,199.058 1860.05,199.053 1862.21,199.047 1864.37,199.042 1866.54,199.037 1868.7,199.032 1870.86,199.026 1873.02,199.021 1875.18,199.016 1877.34,199.011 1879.5,199.006 1881.66,199.001 1883.82,198.997 1885.98,198.992 1888.15,198.987 1890.31,198.982 1892.47,198.978 1894.63,198.973 1896.79,198.968 1898.95,198.964 1901.11,198.959 1903.27,198.955 1905.43,198.95 1907.59,198.946 1909.75,198.942 1911.92,198.937 1914.08,198.933 1916.24,198.929 1918.4,198.925 1920.56,198.921 1922.72,198.916 1924.88,198.912 1927.04,198.908 1929.2,198.904 1931.36,198.901 1933.53,198.897 1935.69,198.893 1937.85,198.889 1940.01,198.885 1942.17,198.881 1944.33,198.878 1946.49,198.874 1948.65,198.87 1950.81,198.867 1952.97,198.863 1955.14,198.86 1957.3,198.856 1959.46,198.853 1961.62,198.85 1963.78,198.846 1965.94,198.843 1968.1,198.84 1970.26,198.836 1972.42,198.833 1974.58,198.83 1976.75,198.827 1978.91,198.824 1981.07,198.821 1983.23,198.817 1985.39,198.814 1987.55,198.811 1989.71,198.809 1991.87,198.806 1994.03,198.803 1996.19,198.8 1998.36,198.797 2000.52,198.794 2002.68,198.792 2004.84,198.789 2007,198.786 2009.16,198.783 2011.32,198.781 2013.48,198.778 2015.64,198.776 2017.8,198.773 2019.96,198.771 2022.13,198.768 2024.29,198.766 2026.45,198.763 2028.61,198.761 2030.77,198.758 2032.93,198.756 2035.09,198.754 2037.25,198.751 2039.41,198.749 2041.57,198.747 2043.74,198.745 2045.9,198.743 2048.06,198.74 2050.22,198.738 2052.38,198.736 2054.54,198.734 2056.7,198.732 2058.86,198.73 2061.02,198.728 2063.18,198.726 2065.35,198.724 2067.51,198.722 2069.67,198.72 2071.83,198.718 2073.99,198.716 2076.15,198.715 2078.31,198.713 2080.47,198.711 2082.63,198.709 2084.79,198.707 2086.96,198.706 2089.12,198.704 2091.28,198.702 2093.44,198.7 2095.6,198.699 2097.76,198.697 2099.92,198.695 2102.08,198.694 2104.24,198.692 2106.4,198.691 2108.57,198.689 2110.73,198.688 2112.89,198.686 2115.05,198.685 2117.21,198.683 2119.37,198.682 2121.53,198.68 2123.69,198.679 2125.85,198.677 2128.01,198.676 2130.17,198.674 2132.34,198.673 2134.5,198.672 2136.66,198.67 2138.82,198.669 2140.98,198.667 2143.14,198.666 2145.3,198.665 2147.46,198.663 2149.62,198.662 2151.78,198.661 2153.95,198.66 2156.11,198.658 2158.27,198.657 2160.43,198.656 2162.59,198.654 2164.75,198.653 2166.91,198.652 2169.07,198.651 2171.23,198.65 2173.39,198.648 2175.56,198.647 2177.72,198.646 2179.88,198.645 2182.04,198.643 2184.2,198.642 2186.36,198.641 2188.52,198.64 2190.68,198.639 2192.84,198.638 2195,198.636 2197.17,198.635 2199.33,198.634 2201.49,198.633 2203.65,198.632 2205.81,198.631 2207.97,198.63 2210.13,198.629 2212.29,198.628 2214.45,198.627 2216.61,198.625 2218.78,198.624 2220.94,198.623 2223.1,198.622 2225.26,198.621 2227.42,198.62 2229.58,198.619 2231.74,198.618 2233.9,198.617 2236.06,198.617 2238.22,198.616 2240.38,198.615 2242.55,198.614 2244.71,198.613 2246.87,198.612 2249.03,198.611 2251.19,198.61 2253.35,198.609 2255.51,198.608 2257.67,198.607 2259.83,198.607 2261.99,198.606 2264.16,198.605 2266.32,198.604 2268.48,198.603 2270.64,198.602 2272.8,198.602 2274.96,198.601 2277.12,198.6 2279.28,198.599 2281.44,198.598 2283.6,198.598 2285.77,198.597 2287.93,198.596 2290.09,198.595 2292.25,198.595 2294.41,198.594 2296.57,198.593 2298.73,198.593 2300.89,198.592 2303.05,198.591 2305.21,198.59 2307.38,198.59 2309.54,198.589 2311.7,198.588 2313.86,198.588 2316.02,198.587 2318.18,198.586 2320.34,198.586 2322.5,198.585 2324.66,198.585 2326.82,198.584 2328.99,198.583 2331.15,198.583 2333.31,198.582 2335.47,198.581 2337.63,198.581 2339.79,198.58 2341.95,198.58 2344.11,198.579 2346.27,198.579 2348.43,198.578 2350.59,198.577 2352.76,198.577 "/>
<polyline clip-path="url(#clip092)" style="stroke:#e26f46; stroke-linecap:round; stroke-linejoin:round; stroke-width:4; stroke-opacity:1; fill:none" points="193.936,86.1857 196.097,87.5612 198.258,88.9215 200.419,90.2666 202.58,91.5969 204.741,92.9124 206.902,94.2134 209.063,95.4998 211.224,96.772 213.385,98.03 215.546,99.2741 217.707,100.504 219.868,101.721 222.029,102.924 224.19,104.113 226.351,105.289 228.512,106.453 230.673,107.603 232.834,108.74 234.995,109.865 237.156,110.977 239.317,112.076 241.478,113.163 243.639,114.238 245.8,115.301 247.961,116.352 250.122,117.392 252.282,118.419 254.443,119.435 256.604,120.44 258.765,121.433 260.926,122.415 263.087,123.386 265.248,124.347 267.409,125.296 269.57,126.234 271.731,127.162 273.892,128.08 276.053,128.987 278.214,129.884 280.375,130.77 282.536,131.647 284.697,132.514 286.858,133.371 289.019,134.218 291.18,135.055 293.341,135.883 295.502,136.702 297.663,137.511 299.824,138.311 301.985,139.102 304.146,139.884 306.307,140.657 308.468,141.421 310.629,142.176 312.79,142.923 314.951,143.661 317.112,144.391 319.273,145.113 321.434,145.826 323.595,146.531 325.756,147.227 327.917,147.916 330.078,148.597 332.239,149.27 334.4,149.935 336.561,150.593 338.722,151.243 340.883,151.885 343.044,152.521 345.205,153.148 347.366,153.769 349.527,154.382 351.688,154.988 353.849,155.587 356.01,156.179 358.171,156.765 360.332,157.343 362.493,157.915 364.653,158.48 366.814,159.039 368.975,159.591 371.136,160.136 373.297,160.675 375.458,161.208 377.619,161.735 379.78,162.255 381.941,162.77 384.102,163.278 386.263,163.78 388.424,164.277 390.585,164.767 392.746,165.252 394.907,165.731 397.068,166.204 399.229,166.672 401.39,167.135 403.551,167.591 405.712,168.043 407.873,168.489 410.034,168.929 412.195,169.365 414.356,169.795 416.517,170.22 418.678,170.641 420.839,171.056 423,171.466 425.161,171.871 427.322,172.271 429.483,172.667 431.644,173.058 433.805,173.444 435.966,173.826 438.127,174.202 440.288,174.575 442.449,174.943 444.61,175.306 446.771,175.665 448.932,176.02 451.093,176.371 453.254,176.717 455.415,177.059 457.576,177.397 459.737,177.73 461.898,178.06 464.059,178.386 466.22,178.708 468.381,179.025 470.542,179.339 472.703,179.649 474.864,179.956 477.024,180.258 479.185,180.557 481.346,180.852 483.507,181.143 485.668,181.431 487.829,181.716 489.99,181.996 492.151,182.274 494.312,182.547 496.473,182.818 498.634,183.085 500.795,183.349 502.956,183.609 505.117,183.867 507.278,184.121 509.439,184.371 511.6,184.619 513.761,184.864 515.922,185.105 518.083,185.344 520.244,185.579 522.405,185.812 524.566,186.041 526.727,186.268 528.888,186.492 531.049,186.713 533.21,186.931 535.371,187.146 537.532,187.359 539.693,187.569 541.854,187.776 544.015,187.981 546.176,188.183 548.337,188.382 550.498,188.579 552.659,188.773 554.82,188.965 556.981,189.154 559.142,189.341 561.303,189.526 563.464,189.708 565.625,189.887 567.786,190.065 569.947,190.24 572.108,190.413 574.269,190.583 576.43,190.751 578.591,190.917 580.752,191.081 582.913,191.243 585.074,191.403 587.235,191.56 589.396,191.715 591.556,191.869 593.717,192.02 595.878,192.169 598.039,192.316 600.2,192.462 602.361,192.605 604.522,192.746 606.683,192.886 608.844,193.023 611.005,193.159 613.166,193.293 615.327,193.425 617.488,193.556 619.649,193.684 621.81,193.811 623.971,193.936 626.132,194.059 628.293,194.181 630.454,194.301 632.615,194.419 634.776,194.536 636.937,194.651 639.098,194.764 641.259,194.876 643.42,194.986 645.581,195.095 647.742,195.202 649.903,195.308 652.064,195.412 654.225,195.515 656.386,195.617 658.547,195.717 660.708,195.815 662.869,195.912 665.03,196.008 667.191,196.102 669.352,196.195 671.513,196.287 673.674,196.377 675.835,196.466 677.996,196.554 680.157,196.64 682.318,196.726 684.479,196.81 686.64,196.892 688.801,196.974 690.962,197.054 693.123,197.133 695.284,197.211 697.445,197.288 699.606,197.364 701.767,197.438 703.927,197.512 706.088,197.584 708.249,197.655 710.41,197.725 712.571,197.794 714.732,197.862 716.893,197.929 719.054,197.995 721.215,198.06 723.376,198.124 725.537,198.187 727.698,198.248 729.859,198.309 732.02,198.369 734.181,198.428 736.342,198.486 738.503,198.544 740.664,198.6 742.825,198.655 744.986,198.71 747.147,198.763 749.308,198.816 751.469,198.868 753.63,198.919 755.791,198.969 757.952,199.018 760.113,199.067 762.274,199.115 764.435,199.162 766.596,199.208 768.757,199.253 770.918,199.298 773.079,199.342 775.24,199.385 777.401,199.427 779.562,199.469 781.723,199.51 783.884,199.55 786.045,199.59 788.206,199.628 790.367,199.667 792.528,199.704 794.689,199.741 796.85,199.777 799.011,199.813 801.172,199.848 803.333,199.882 805.494,199.915 807.655,199.949 809.816,199.981 811.977,200.013 814.138,200.044 816.298,200.075 818.459,200.105 820.62,200.134 822.781,200.163 824.942,200.192 827.103,200.219 829.264,200.247 831.425,200.274 833.586,200.3 835.747,200.325 837.908,200.351 840.069,200.375 842.23,200.399 844.391,200.423 846.552,200.446 848.713,200.469 850.874,200.491 853.035,200.513 855.196,200.534 857.357,200.555 859.518,200.575 861.679,200.595 863.84,200.615 866.001,200.634 868.162,200.652 870.323,200.671 872.484,200.688 874.645,200.706 876.806,200.723 878.967,200.739 881.128,200.755 883.289,200.771 885.45,200.786 887.611,200.801 889.772,200.816 891.933,200.83 894.094,200.844 896.255,200.857 898.416,200.871 900.577,200.883 902.738,200.896 904.899,200.908 907.06,200.92 909.221,200.931 911.382,200.942 913.543,200.953 915.704,200.964 917.865,200.974 920.026,200.984 922.187,200.993 924.348,201.002 926.509,201.011 928.669,201.02 930.83,201.028 932.991,201.037 935.152,201.044 937.313,201.052 939.474,201.059 941.635,201.066 943.796,201.073 945.957,201.08 948.118,201.086 950.279,201.092 952.44,201.098 954.601,201.103 956.762,201.108 958.923,201.113 961.084,201.118 963.245,201.123 965.406,201.127 967.567,201.131 969.728,201.135 971.889,201.139 974.05,201.143 976.211,201.146 978.372,201.149 980.533,201.152 982.694,201.154 984.855,201.157 987.016,201.159 989.177,201.161 991.338,201.163 993.499,201.165 995.66,201.166 997.821,201.168 999.982,201.169 1002.14,201.17 1004.3,201.171 1006.46,201.171 1008.63,201.172 1010.79,201.172 1012.95,201.172 1015.11,201.172 1017.27,201.172 1019.43,201.172 1021.59,201.171 1023.75,201.17 1025.91,201.17 1028.07,201.169 1030.24,201.168 1032.4,201.166 1034.56,201.165 1036.72,201.163 1038.88,201.162 1041.04,201.16 1043.2,201.158 1045.36,201.156 1047.52,201.154 1049.68,201.152 1051.85,201.149 1054.01,201.147 1056.17,201.144 1058.33,201.141 1060.49,201.138 1062.65,201.135 1064.81,201.132 1066.97,201.129 1069.13,201.126 1071.29,201.122 1073.46,201.119 1075.62,201.115 1077.78,201.111 1079.94,201.107 1082.1,201.103 1084.26,201.099 1086.42,201.095 1088.58,201.091 1090.74,201.087 1092.9,201.083 1095.07,201.078 1097.23,201.074 1099.39,201.069 1101.55,201.064 1103.71,201.06 1105.87,201.055 1108.03,201.05 1110.19,201.045 1112.35,201.04 1114.51,201.035 1116.67,201.029 1118.84,201.024 1121,201.019 1123.16,201.014 1125.32,201.008 1127.48,201.003 1129.64,200.997 1131.8,200.991 1133.96,200.986 1136.12,200.98 1138.28,200.974 1140.45,200.969 1142.61,200.963 1144.77,200.957 1146.93,200.951 1149.09,200.945 1151.25,200.939 1153.41,200.933 1155.57,200.926 1157.73,200.92 1159.89,200.914 1162.06,200.908 1164.22,200.901 1166.38,200.895 1168.54,200.889 1170.7,200.882 1172.86,200.876 1175.02,200.869 1177.18,200.863 1179.34,200.856 1181.5,200.849 1183.67,200.843 1185.83,200.836 1187.99,200.829 1190.15,200.823 1192.31,200.816 1194.47,200.809 1196.63,200.802 1198.79,200.795 1200.95,200.788 1203.11,200.781 1205.28,200.774 1207.44,200.767 1209.6,200.76 1211.76,200.753 1213.92,200.746 1216.08,200.739 1218.24,200.732 1220.4,200.725 1222.56,200.718 1224.72,200.711 1226.88,200.704 1229.05,200.696 1231.21,200.689 1233.37,200.682 1235.53,200.675 1237.69,200.667 1239.85,200.66 1242.01,200.653 1244.17,200.646 1246.33,200.638 1248.49,200.631 1250.66,200.624 1252.82,200.616 1254.98,200.609 1257.14,200.601 1259.3,200.594 1261.46,200.587 1263.62,200.579 1265.78,200.572 1267.94,200.565 1270.1,200.557 1272.27,200.55 1274.43,200.542 1276.59,200.535 1278.75,200.527 1280.91,200.52 1283.07,200.513 1285.23,200.505 1287.39,200.498 1289.55,200.49 1291.71,200.483 1293.88,200.475 1296.04,200.468 1298.2,200.461 1300.36,200.453 1302.52,200.446 1304.68,200.438 1306.84,200.431 1309,200.424 1311.16,200.416 1313.32,200.409 1315.49,200.401 1317.65,200.394 1319.81,200.387 1321.97,200.379 1324.13,200.372 1326.29,200.365 1328.45,200.357 1330.61,200.35 1332.77,200.343 1334.93,200.335 1337.09,200.328 1339.26,200.321 1341.42,200.313 1343.58,200.306 1345.74,200.299 1347.9,200.292 1350.06,200.284 1352.22,200.277 1354.38,200.27 1356.54,200.263 1358.7,200.256 1360.87,200.249 1363.03,200.241 1365.19,200.234 1367.35,200.227 1369.51,200.22 1371.67,200.213 1373.83,200.206 1375.99,200.199 1378.15,200.192 1380.31,200.185 1382.48,200.177 1384.64,200.17 1386.8,200.163 1388.96,200.156 1391.12,200.149 1393.28,200.142 1395.44,200.136 1397.6,200.129 1399.76,200.122 1401.92,200.115 1404.09,200.108 1406.25,200.101 1408.41,200.094 1410.57,200.087 1412.73,200.08 1414.89,200.073 1417.05,200.067 1419.21,200.06 1421.37,200.053 1423.53,200.046 1425.7,200.04 1427.86,200.033 1430.02,200.026 1432.18,200.019 1434.34,200.013 1436.5,200.006 1438.66,199.999 1440.82,199.993 1442.98,199.986 1445.14,199.979 1447.3,199.973 1449.47,199.966 1451.63,199.96 1453.79,199.953 1455.95,199.947 1458.11,199.94 1460.27,199.934 1462.43,199.927 1464.59,199.921 1466.75,199.914 1468.91,199.908 1471.08,199.901 1473.24,199.895 1475.4,199.889 1477.56,199.882 1479.72,199.876 1481.88,199.87 1484.04,199.863 1486.2,199.857 1488.36,199.851 1490.52,199.845 1492.69,199.838 1494.85,199.832 1497.01,199.826 1499.17,199.82 1501.33,199.814 1503.49,199.808 1505.65,199.802 1507.81,199.796 1509.97,199.789 1512.13,199.783 1514.3,199.777 1516.46,199.771 1518.62,199.765 1520.78,199.759 1522.94,199.754 1525.1,199.748 1527.26,199.742 1529.42,199.736 1531.58,199.73 1533.74,199.724 1535.91,199.718 1538.07,199.713 1540.23,199.707 1542.39,199.701 1544.55,199.695 1546.71,199.69 1548.87,199.684 1551.03,199.678 1553.19,199.673 1555.35,199.667 1557.51,199.662 1559.68,199.656 1561.84,199.65 1564,199.645 1566.16,199.639 1568.32,199.634 1570.48,199.628 1572.64,199.623 1574.8,199.618 1576.96,199.612 1579.12,199.607 1581.29,199.602 1583.45,199.596 1585.61,199.591 1587.77,199.586 1589.93,199.58 1592.09,199.575 1594.25,199.57 1596.41,199.565 1598.57,199.56 1600.73,199.554 1602.9,199.549 1605.06,199.544 1607.22,199.539 1609.38,199.534 1611.54,199.529 1613.7,199.524 1615.86,199.519 1618.02,199.514 1620.18,199.509 1622.34,199.504 1624.51,199.499 1626.67,199.494 1628.83,199.489 1630.99,199.484 1633.15,199.48 1635.31,199.475 1637.47,199.47 1639.63,199.465 1641.79,199.46 1643.95,199.456 1646.12,199.451 1648.28,199.446 1650.44,199.442 1652.6,199.437 1654.76,199.432 1656.92,199.428 1659.08,199.423 1661.24,199.418 1663.4,199.414 1665.56,199.409 1667.72,199.405 1669.89,199.4 1672.05,199.396 1674.21,199.391 1676.37,199.387 1678.53,199.382 1680.69,199.378 1682.85,199.374 1685.01,199.369 1687.17,199.365 1689.33,199.361 1691.5,199.356 1693.66,199.352 1695.82,199.348 1697.98,199.343 1700.14,199.339 1702.3,199.335 1704.46,199.331 1706.62,199.326 1708.78,199.322 1710.94,199.318 1713.11,199.314 1715.27,199.31 1717.43,199.306 1719.59,199.302 1721.75,199.297 1723.91,199.293 1726.07,199.289 1728.23,199.285 1730.39,199.281 1732.55,199.277 1734.72,199.273 1736.88,199.269 1739.04,199.265 1741.2,199.262 1743.36,199.258 1745.52,199.254 1747.68,199.25 1749.84,199.246 1752,199.242 1754.16,199.238 1756.33,199.235 1758.49,199.231 1760.65,199.227 1762.81,199.223 1764.97,199.22 1767.13,199.216 1769.29,199.212 1771.45,199.209 1773.61,199.205 1775.77,199.201 1777.93,199.198 1780.1,199.194 1782.26,199.19 1784.42,199.187 1786.58,199.183 1788.74,199.18 1790.9,199.176 1793.06,199.173 1795.22,199.169 1797.38,199.166 1799.54,199.162 1801.71,199.159 1803.87,199.155 1806.03,199.152 1808.19,199.149 1810.35,199.145 1812.51,199.142 1814.67,199.139 1816.83,199.135 1818.99,199.132 1821.15,199.129 1823.32,199.125 1825.48,199.122 1827.64,199.119 1829.8,199.116 1831.96,199.112 1834.12,199.109 1836.28,199.106 1838.44,199.103 1840.6,199.1 1842.76,199.097 1844.93,199.093 1847.09,199.09 1849.25,199.087 1851.41,199.084 1853.57,199.081 1855.73,199.078 1857.89,199.075 1860.05,199.072 1862.21,199.069 1864.37,199.066 1866.54,199.063 1868.7,199.06 1870.86,199.057 1873.02,199.055 1875.18,199.052 1877.34,199.049 1879.5,199.046 1881.66,199.043 1883.82,199.04 1885.98,199.037 1888.15,199.035 1890.31,199.032 1892.47,199.029 1894.63,199.026 1896.79,199.024 1898.95,199.021 1901.11,199.018 1903.27,199.015 1905.43,199.013 1907.59,199.01 1909.75,199.007 1911.92,199.005 1914.08,199.002 1916.24,198.999 1918.4,198.997 1920.56,198.994 1922.72,198.992 1924.88,198.989 1927.04,198.987 1929.2,198.984 1931.36,198.981 1933.53,198.979 1935.69,198.976 1937.85,198.974 1940.01,198.971 1942.17,198.969 1944.33,198.967 1946.49,198.964 1948.65,198.962 1950.81,198.959 1952.97,198.957 1955.14,198.954 1957.3,198.952 1959.46,198.95 1961.62,198.947 1963.78,198.945 1965.94,198.943 1968.1,198.94 1970.26,198.938 1972.42,198.936 1974.58,198.933 1976.75,198.931 1978.91,198.929 1981.07,198.927 1983.23,198.924 1985.39,198.922 1987.55,198.92 1989.71,198.918 1991.87,198.916 1994.03,198.913 1996.19,198.911 1998.36,198.909 2000.52,198.907 2002.68,198.905 2004.84,198.903 2007,198.9 2009.16,198.898 2011.32,198.896 2013.48,198.894 2015.64,198.892 2017.8,198.89 2019.96,198.888 2022.13,198.886 2024.29,198.884 2026.45,198.882 2028.61,198.88 2030.77,198.878 2032.93,198.876 2035.09,198.874 2037.25,198.872 2039.41,198.87 2041.57,198.868 2043.74,198.866 2045.9,198.864 2048.06,198.862 2050.22,198.86 2052.38,198.858 2054.54,198.856 2056.7,198.855 2058.86,198.853 2061.02,198.851 2063.18,198.849 2065.35,198.847 2067.51,198.845 2069.67,198.843 2071.83,198.842 2073.99,198.84 2076.15,198.838 2078.31,198.836 2080.47,198.834 2082.63,198.833 2084.79,198.831 2086.96,198.829 2089.12,198.827 2091.28,198.826 2093.44,198.824 2095.6,198.822 2097.76,198.821 2099.92,198.819 2102.08,198.817 2104.24,198.816 2106.4,198.814 2108.57,198.812 2110.73,198.811 2112.89,198.809 2115.05,198.807 2117.21,198.806 2119.37,198.804 2121.53,198.802 2123.69,198.801 2125.85,198.799 2128.01,198.798 2130.17,198.796 2132.34,198.794 2134.5,198.793 2136.66,198.791 2138.82,198.79 2140.98,198.788 2143.14,198.787 2145.3,198.785 2147.46,198.784 2149.62,198.782 2151.78,198.781 2153.95,198.779 2156.11,198.778 2158.27,198.776 2160.43,198.775 2162.59,198.773 2164.75,198.772 2166.91,198.771 2169.07,198.769 2171.23,198.768 2173.39,198.766 2175.56,198.765 2177.72,198.764 2179.88,198.762 2182.04,198.761 2184.2,198.759 2186.36,198.758 2188.52,198.757 2190.68,198.755 2192.84,198.754 2195,198.753 2197.17,198.751 2199.33,198.75 2201.49,198.749 2203.65,198.748 2205.81,198.746 2207.97,198.745 2210.13,198.744 2212.29,198.742 2214.45,198.741 2216.61,198.74 2218.78,198.739 2220.94,198.737 2223.1,198.736 2225.26,198.735 2227.42,198.734 2229.58,198.733 2231.74,198.731 2233.9,198.73 2236.06,198.729 2238.22,198.728 2240.38,198.727 2242.55,198.725 2244.71,198.724 2246.87,198.723 2249.03,198.722 2251.19,198.721 2253.35,198.72 2255.51,198.718 2257.67,198.717 2259.83,198.716 2261.99,198.715 2264.16,198.714 2266.32,198.713 2268.48,198.712 2270.64,198.711 2272.8,198.71 2274.96,198.709 2277.12,198.707 2279.28,198.706 2281.44,198.705 2283.6,198.704 2285.77,198.703 2287.93,198.702 2290.09,198.701 2292.25,198.7 2294.41,198.699 2296.57,198.698 2298.73,198.697 2300.89,198.696 2303.05,198.695 2305.21,198.694 2307.38,198.693 2309.54,198.692 2311.7,198.691 2313.86,198.69 2316.02,198.689 2318.18,198.688 2320.34,198.687 2322.5,198.686 2324.66,198.685 2326.82,198.684 2328.99,198.683 2331.15,198.683 2333.31,198.682 2335.47,198.681 2337.63,198.68 2339.79,198.679 2341.95,198.678 2344.11,198.677 2346.27,198.676 2348.43,198.675 2350.59,198.674 2352.76,198.673 "/>
<path clip-path="url(#clip090)" d="M1805.52 1377.32 L2280.8 1377.32 L2280.8 1221.8 L1805.52 1221.8  Z" fill="#ffffff" fill-rule="evenodd" fill-opacity="1"/>
<polyline clip-path="url(#clip090)" style="stroke:#000000; stroke-linecap:round; stroke-linejoin:round; stroke-width:4; stroke-opacity:1; fill:none" points="1805.52,1377.32 2280.8,1377.32 2280.8,1221.8 1805.52,1221.8 1805.52,1377.32 "/>
<polyline clip-path="url(#clip090)" style="stroke:#009af9; stroke-linecap:round; stroke-linejoin:round; stroke-width:4; stroke-opacity:1; fill:none" points="1829.5,1273.64 1973.42,1273.64 "/>
<path clip-path="url(#clip090)" d="M1997.41 1264.99 L2001.93 1264.99 L2010.03 1286.75 L2018.13 1264.99 L2022.64 1264.99 L2012.92 1290.92 L2007.13 1290.92 L1997.41 1264.99 Z" fill="#000000" fill-rule="nonzero" fill-opacity="1" /><path clip-path="url(#clip090)" d="M2029.93 1286.98 L2037.57 1286.98 L2037.57 1260.61 L2029.26 1262.28 L2029.26 1258.02 L2037.53 1256.36 L2042.2 1256.36 L2042.2 1286.98 L2049.84 1286.98 L2049.84 1290.92 L2029.93 1290.92 L2029.93 1286.98 Z" fill="#000000" fill-rule="nonzero" fill-opacity="1" /><path clip-path="url(#clip090)" d="M2067.94 1274.27 L2067.94 1281.49 L2076.07 1281.49 L2076.07 1283.69 L2067.94 1283.69 L2067.94 1290.92 L2065.51 1290.92 L2065.51 1283.69 L2057.39 1283.69 L2057.39 1281.49 L2065.51 1281.49 L2065.51 1274.27 L2067.94 1274.27 Z" fill="#000000" fill-rule="nonzero" fill-opacity="1" /><path clip-path="url(#clip090)" d="M2100.24 1265.75 L2100.24 1269.78 Q2098.43 1268.86 2096.49 1268.39 Q2094.54 1267.93 2092.46 1267.93 Q2089.29 1267.93 2087.69 1268.9 Q2086.11 1269.87 2086.11 1271.82 Q2086.11 1273.3 2087.25 1274.16 Q2088.38 1274.99 2091.81 1275.75 L2093.27 1276.08 Q2097.8 1277.05 2099.7 1278.83 Q2101.62 1280.59 2101.62 1283.76 Q2101.62 1287.37 2098.75 1289.48 Q2095.91 1291.59 2090.91 1291.59 Q2088.82 1291.59 2086.55 1291.17 Q2084.31 1290.78 2081.81 1289.97 L2081.81 1285.57 Q2084.17 1286.79 2086.46 1287.42 Q2088.75 1288.02 2091 1288.02 Q2094.01 1288.02 2095.63 1287 Q2097.25 1285.96 2097.25 1284.09 Q2097.25 1282.35 2096.07 1281.42 Q2094.91 1280.5 2090.95 1279.64 L2089.47 1279.3 Q2085.51 1278.46 2083.75 1276.75 Q2081.99 1275.01 2081.99 1272 Q2081.99 1268.35 2084.59 1266.36 Q2087.18 1264.36 2091.95 1264.36 Q2094.31 1264.36 2096.39 1264.71 Q2098.48 1265.06 2100.24 1265.75 Z" fill="#000000" fill-rule="nonzero" fill-opacity="1" /><path clip-path="url(#clip090)" d="M2112.62 1257.63 L2112.62 1264.99 L2121.39 1264.99 L2121.39 1268.3 L2112.62 1268.3 L2112.62 1282.37 Q2112.62 1285.54 2113.48 1286.45 Q2114.36 1287.35 2117.02 1287.35 L2121.39 1287.35 L2121.39 1290.92 L2117.02 1290.92 Q2112.09 1290.92 2110.21 1289.09 Q2108.34 1287.23 2108.34 1282.37 L2108.34 1268.3 L2105.21 1268.3 L2105.21 1264.99 L2108.34 1264.99 L2108.34 1257.63 L2112.62 1257.63 Z" fill="#000000" fill-rule="nonzero" fill-opacity="1" /><path clip-path="url(#clip090)" d="M2137.04 1267.98 Q2133.61 1267.98 2131.62 1270.66 Q2129.63 1273.32 2129.63 1277.98 Q2129.63 1282.63 2131.6 1285.31 Q2133.59 1287.98 2137.04 1287.98 Q2140.44 1287.98 2142.43 1285.29 Q2144.42 1282.61 2144.42 1277.98 Q2144.42 1273.37 2142.43 1270.68 Q2140.44 1267.98 2137.04 1267.98 M2137.04 1264.36 Q2142.6 1264.36 2145.77 1267.98 Q2148.94 1271.59 2148.94 1277.98 Q2148.94 1284.34 2145.77 1287.98 Q2142.6 1291.59 2137.04 1291.59 Q2131.46 1291.59 2128.29 1287.98 Q2125.14 1284.34 2125.14 1277.98 Q2125.14 1271.59 2128.29 1267.98 Q2131.46 1264.36 2137.04 1264.36 Z" fill="#000000" fill-rule="nonzero" fill-opacity="1" /><path clip-path="url(#clip090)" d="M2171.02 1268.97 Q2170.3 1268.55 2169.45 1268.37 Q2168.61 1268.16 2167.6 1268.16 Q2163.98 1268.16 2162.04 1270.52 Q2160.12 1272.86 2160.12 1277.26 L2160.12 1290.92 L2155.84 1290.92 L2155.84 1264.99 L2160.12 1264.99 L2160.12 1269.02 Q2161.46 1266.66 2163.61 1265.52 Q2165.77 1264.36 2168.85 1264.36 Q2169.29 1264.36 2169.82 1264.43 Q2170.35 1264.48 2171 1264.6 L2171.02 1268.97 Z" fill="#000000" fill-rule="nonzero" fill-opacity="1" /><path clip-path="url(#clip090)" d="M2187.27 1277.88 Q2182.11 1277.88 2180.12 1279.06 Q2178.13 1280.24 2178.13 1283.09 Q2178.13 1285.36 2179.61 1286.7 Q2181.11 1288.02 2183.68 1288.02 Q2187.23 1288.02 2189.36 1285.52 Q2191.51 1283 2191.51 1278.83 L2191.51 1277.88 L2187.27 1277.88 M2195.77 1276.12 L2195.77 1290.92 L2191.51 1290.92 L2191.51 1286.98 Q2190.05 1289.34 2187.87 1290.48 Q2185.7 1291.59 2182.55 1291.59 Q2178.57 1291.59 2176.21 1289.36 Q2173.87 1287.12 2173.87 1283.37 Q2173.87 1278.99 2176.79 1276.77 Q2179.73 1274.55 2185.54 1274.55 L2191.51 1274.55 L2191.51 1274.13 Q2191.51 1271.19 2189.56 1269.6 Q2187.64 1267.98 2184.15 1267.98 Q2181.92 1267.98 2179.82 1268.51 Q2177.71 1269.04 2175.77 1270.11 L2175.77 1266.17 Q2178.11 1265.27 2180.3 1264.83 Q2182.5 1264.36 2184.59 1264.36 Q2190.21 1264.36 2192.99 1267.28 Q2195.77 1270.2 2195.77 1276.12 Z" fill="#000000" fill-rule="nonzero" fill-opacity="1" /><path clip-path="url(#clip090)" d="M2221.6 1277.65 Q2221.6 1273.02 2219.68 1270.48 Q2217.78 1267.93 2214.33 1267.93 Q2210.91 1267.93 2208.98 1270.48 Q2207.09 1273.02 2207.09 1277.65 Q2207.09 1282.26 2208.98 1284.8 Q2210.91 1287.35 2214.33 1287.35 Q2217.78 1287.35 2219.68 1284.8 Q2221.6 1282.26 2221.6 1277.65 M2225.86 1287.7 Q2225.86 1294.32 2222.92 1297.54 Q2219.98 1300.78 2213.92 1300.78 Q2211.67 1300.78 2209.68 1300.43 Q2207.69 1300.11 2205.81 1299.41 L2205.81 1295.27 Q2207.69 1296.29 2209.52 1296.77 Q2211.35 1297.26 2213.24 1297.26 Q2217.43 1297.26 2219.52 1295.06 Q2221.6 1292.88 2221.6 1288.46 L2221.6 1286.36 Q2220.28 1288.65 2218.22 1289.78 Q2216.16 1290.92 2213.29 1290.92 Q2208.52 1290.92 2205.6 1287.28 Q2202.69 1283.65 2202.69 1277.65 Q2202.69 1271.63 2205.6 1268 Q2208.52 1264.36 2213.29 1264.36 Q2216.16 1264.36 2218.22 1265.5 Q2220.28 1266.63 2221.6 1268.92 L2221.6 1264.99 L2225.86 1264.99 L2225.86 1287.7 Z" fill="#000000" fill-rule="nonzero" fill-opacity="1" /><path clip-path="url(#clip090)" d="M2256.81 1276.89 L2256.81 1278.97 L2237.23 1278.97 Q2237.5 1283.37 2239.86 1285.68 Q2242.25 1287.98 2246.48 1287.98 Q2248.94 1287.98 2251.23 1287.37 Q2253.54 1286.77 2255.81 1285.57 L2255.81 1289.6 Q2253.52 1290.57 2251.11 1291.08 Q2248.71 1291.59 2246.23 1291.59 Q2240.03 1291.59 2236.39 1287.98 Q2232.78 1284.36 2232.78 1278.21 Q2232.78 1271.84 2236.21 1268.11 Q2239.66 1264.36 2245.49 1264.36 Q2250.72 1264.36 2253.75 1267.74 Q2256.81 1271.1 2256.81 1276.89 M2252.55 1275.64 Q2252.5 1272.14 2250.58 1270.06 Q2248.68 1267.98 2245.54 1267.98 Q2241.97 1267.98 2239.82 1269.99 Q2237.69 1272 2237.36 1275.66 L2252.55 1275.64 Z" fill="#000000" fill-rule="nonzero" fill-opacity="1" /><polyline clip-path="url(#clip090)" style="stroke:#e26f46; stroke-linecap:round; stroke-linejoin:round; stroke-width:4; stroke-opacity:1; fill:none" points="1829.5,1325.48 1973.42,1325.48 "/>
<path clip-path="url(#clip090)" d="M1997.41 1316.83 L2001.93 1316.83 L2010.03 1338.59 L2018.13 1316.83 L2022.64 1316.83 L2012.92 1342.76 L2007.13 1342.76 L1997.41 1316.83 Z" fill="#000000" fill-rule="nonzero" fill-opacity="1" /><path clip-path="url(#clip090)" d="M2029.17 1308.2 L2047.53 1308.2 L2047.53 1312.13 L2033.45 1312.13 L2033.45 1320.6 Q2034.47 1320.26 2035.49 1320.09 Q2036.51 1319.91 2037.53 1319.91 Q2043.31 1319.91 2046.69 1323.08 Q2050.07 1326.25 2050.07 1331.67 Q2050.07 1337.25 2046.6 1340.35 Q2043.13 1343.43 2036.81 1343.43 Q2034.63 1343.43 2032.37 1343.06 Q2030.12 1342.69 2027.71 1341.95 L2027.71 1337.25 Q2029.8 1338.38 2032.02 1338.94 Q2034.24 1339.49 2036.72 1339.49 Q2040.72 1339.49 2043.06 1337.38 Q2045.4 1335.28 2045.4 1331.67 Q2045.4 1328.06 2043.06 1325.95 Q2040.72 1323.84 2036.72 1323.84 Q2034.84 1323.84 2032.97 1324.26 Q2031.12 1324.68 2029.17 1325.56 L2029.17 1308.2 Z" fill="#000000" fill-rule="nonzero" fill-opacity="1" /><path clip-path="url(#clip090)" d="M2067.94 1326.11 L2067.94 1333.33 L2076.07 1333.33 L2076.07 1335.53 L2067.94 1335.53 L2067.94 1342.76 L2065.51 1342.76 L2065.51 1335.53 L2057.39 1335.53 L2057.39 1333.33 L2065.51 1333.33 L2065.51 1326.11 L2067.94 1326.11 Z" fill="#000000" fill-rule="nonzero" fill-opacity="1" /><path clip-path="url(#clip090)" d="M2100.24 1317.59 L2100.24 1321.62 Q2098.43 1320.7 2096.49 1320.23 Q2094.54 1319.77 2092.46 1319.77 Q2089.29 1319.77 2087.69 1320.74 Q2086.11 1321.71 2086.11 1323.66 Q2086.11 1325.14 2087.25 1326 Q2088.38 1326.83 2091.81 1327.59 L2093.27 1327.92 Q2097.8 1328.89 2099.7 1330.67 Q2101.62 1332.43 2101.62 1335.6 Q2101.62 1339.21 2098.75 1341.32 Q2095.91 1343.43 2090.91 1343.43 Q2088.82 1343.43 2086.55 1343.01 Q2084.31 1342.62 2081.81 1341.81 L2081.81 1337.41 Q2084.17 1338.63 2086.46 1339.26 Q2088.75 1339.86 2091 1339.86 Q2094.01 1339.86 2095.63 1338.84 Q2097.25 1337.8 2097.25 1335.93 Q2097.25 1334.19 2096.07 1333.26 Q2094.91 1332.34 2090.95 1331.48 L2089.47 1331.14 Q2085.51 1330.3 2083.75 1328.59 Q2081.99 1326.85 2081.99 1323.84 Q2081.99 1320.19 2084.59 1318.2 Q2087.18 1316.2 2091.95 1316.2 Q2094.31 1316.2 2096.39 1316.55 Q2098.48 1316.9 2100.24 1317.59 Z" fill="#000000" fill-rule="nonzero" fill-opacity="1" /><path clip-path="url(#clip090)" d="M2112.62 1309.47 L2112.62 1316.83 L2121.39 1316.83 L2121.39 1320.14 L2112.62 1320.14 L2112.62 1334.21 Q2112.62 1337.38 2113.48 1338.29 Q2114.36 1339.19 2117.02 1339.19 L2121.39 1339.19 L2121.39 1342.76 L2117.02 1342.76 Q2112.09 1342.76 2110.21 1340.93 Q2108.34 1339.07 2108.34 1334.21 L2108.34 1320.14 L2105.21 1320.14 L2105.21 1316.83 L2108.34 1316.83 L2108.34 1309.47 L2112.62 1309.47 Z" fill="#000000" fill-rule="nonzero" fill-opacity="1" /><path clip-path="url(#clip090)" d="M2137.04 1319.82 Q2133.61 1319.82 2131.62 1322.5 Q2129.63 1325.16 2129.63 1329.82 Q2129.63 1334.47 2131.6 1337.15 Q2133.59 1339.82 2137.04 1339.82 Q2140.44 1339.82 2142.43 1337.13 Q2144.42 1334.45 2144.42 1329.82 Q2144.42 1325.21 2142.43 1322.52 Q2140.44 1319.82 2137.04 1319.82 M2137.04 1316.2 Q2142.6 1316.2 2145.77 1319.82 Q2148.94 1323.43 2148.94 1329.82 Q2148.94 1336.18 2145.77 1339.82 Q2142.6 1343.43 2137.04 1343.43 Q2131.46 1343.43 2128.29 1339.82 Q2125.14 1336.18 2125.14 1329.82 Q2125.14 1323.43 2128.29 1319.82 Q2131.46 1316.2 2137.04 1316.2 Z" fill="#000000" fill-rule="nonzero" fill-opacity="1" /><path clip-path="url(#clip090)" d="M2171.02 1320.81 Q2170.3 1320.39 2169.45 1320.21 Q2168.61 1320 2167.6 1320 Q2163.98 1320 2162.04 1322.36 Q2160.12 1324.7 2160.12 1329.1 L2160.12 1342.76 L2155.84 1342.76 L2155.84 1316.83 L2160.12 1316.83 L2160.12 1320.86 Q2161.46 1318.5 2163.61 1317.36 Q2165.77 1316.2 2168.85 1316.2 Q2169.29 1316.2 2169.82 1316.27 Q2170.35 1316.32 2171 1316.44 L2171.02 1320.81 Z" fill="#000000" fill-rule="nonzero" fill-opacity="1" /><path clip-path="url(#clip090)" d="M2187.27 1329.72 Q2182.11 1329.72 2180.12 1330.9 Q2178.13 1332.08 2178.13 1334.93 Q2178.13 1337.2 2179.61 1338.54 Q2181.11 1339.86 2183.68 1339.86 Q2187.23 1339.86 2189.36 1337.36 Q2191.51 1334.84 2191.51 1330.67 L2191.51 1329.72 L2187.27 1329.72 M2195.77 1327.96 L2195.77 1342.76 L2191.51 1342.76 L2191.51 1338.82 Q2190.05 1341.18 2187.87 1342.32 Q2185.7 1343.43 2182.55 1343.43 Q2178.57 1343.43 2176.21 1341.2 Q2173.87 1338.96 2173.87 1335.21 Q2173.87 1330.83 2176.79 1328.61 Q2179.73 1326.39 2185.54 1326.39 L2191.51 1326.39 L2191.51 1325.97 Q2191.51 1323.03 2189.56 1321.44 Q2187.64 1319.82 2184.15 1319.82 Q2181.92 1319.82 2179.82 1320.35 Q2177.71 1320.88 2175.77 1321.95 L2175.77 1318.01 Q2178.11 1317.11 2180.3 1316.67 Q2182.5 1316.2 2184.59 1316.2 Q2190.21 1316.2 2192.99 1319.12 Q2195.77 1322.04 2195.77 1327.96 Z" fill="#000000" fill-rule="nonzero" fill-opacity="1" /><path clip-path="url(#clip090)" d="M2221.6 1329.49 Q2221.6 1324.86 2219.68 1322.32 Q2217.78 1319.77 2214.33 1319.77 Q2210.91 1319.77 2208.98 1322.32 Q2207.09 1324.86 2207.09 1329.49 Q2207.09 1334.1 2208.98 1336.64 Q2210.91 1339.19 2214.33 1339.19 Q2217.78 1339.19 2219.68 1336.64 Q2221.6 1334.1 2221.6 1329.49 M2225.86 1339.54 Q2225.86 1346.16 2222.92 1349.38 Q2219.98 1352.62 2213.92 1352.62 Q2211.67 1352.62 2209.68 1352.27 Q2207.69 1351.95 2205.81 1351.25 L2205.81 1347.11 Q2207.69 1348.13 2209.52 1348.61 Q2211.35 1349.1 2213.24 1349.1 Q2217.43 1349.1 2219.52 1346.9 Q2221.6 1344.72 2221.6 1340.3 L2221.6 1338.2 Q2220.28 1340.49 2218.22 1341.62 Q2216.16 1342.76 2213.29 1342.76 Q2208.52 1342.76 2205.6 1339.12 Q2202.69 1335.49 2202.69 1329.49 Q2202.69 1323.47 2205.6 1319.84 Q2208.52 1316.2 2213.29 1316.2 Q2216.16 1316.2 2218.22 1317.34 Q2220.28 1318.47 2221.6 1320.76 L2221.6 1316.83 L2225.86 1316.83 L2225.86 1339.54 Z" fill="#000000" fill-rule="nonzero" fill-opacity="1" /><path clip-path="url(#clip090)" d="M2256.81 1328.73 L2256.81 1330.81 L2237.23 1330.81 Q2237.5 1335.21 2239.86 1337.52 Q2242.25 1339.82 2246.48 1339.82 Q2248.94 1339.82 2251.23 1339.21 Q2253.54 1338.61 2255.81 1337.41 L2255.81 1341.44 Q2253.52 1342.41 2251.11 1342.92 Q2248.71 1343.43 2246.23 1343.43 Q2240.03 1343.43 2236.39 1339.82 Q2232.78 1336.2 2232.78 1330.05 Q2232.78 1323.68 2236.21 1319.95 Q2239.66 1316.2 2245.49 1316.2 Q2250.72 1316.2 2253.75 1319.58 Q2256.81 1322.94 2256.81 1328.73 M2252.55 1327.48 Q2252.5 1323.98 2250.58 1321.9 Q2248.68 1319.82 2245.54 1319.82 Q2241.97 1319.82 2239.82 1321.83 Q2237.69 1323.84 2237.36 1327.5 L2252.55 1327.48 Z" fill="#000000" fill-rule="nonzero" fill-opacity="1" /></svg>
