<?xml version="1.0" encoding="utf-8"?>
<svg xmlns="http://www.w3.org/2000/svg" xmlns:xlink="http://www.w3.org/1999/xlink" width="600" height="400" viewBox="0 0 2400 1600">
<defs>
  <clipPath id="clip130">
    <rect x="0" y="0" width="2400" height="1600"/>
  </clipPath>
</defs>
<path clip-path="url(#clip130)" d="M0 1600 L2400 1600 L2400 0 L0 0  Z" fill="#ffffff" fill-rule="evenodd" fill-opacity="1"/>
<defs>
  <clipPath id="clip131">
    <rect x="480" y="0" width="1681" height="1600"/>
  </clipPath>
</defs>
<path clip-path="url(#clip130)" d="M156.598 1423.18 L2352.76 1423.18 L2352.76 47.2441 L156.598 47.2441  Z" fill="#ffffff" fill-rule="evenodd" fill-opacity="1"/>
<defs>
  <clipPath id="clip132">
    <rect x="156" y="47" width="2197" height="1377"/>
  </clipPath>
</defs>
<polyline clip-path="url(#clip132)" style="stroke:#000000; stroke-linecap:round; stroke-linejoin:round; stroke-width:2; stroke-opacity:0.1; fill:none" points="156.598,1423.18 156.598,47.2441 "/>
<polyline clip-path="url(#clip132)" style="stroke:#000000; stroke-linecap:round; stroke-linejoin:round; stroke-width:2; stroke-opacity:0.1; fill:none" points="705.638,1423.18 705.638,47.2441 "/>
<polyline clip-path="url(#clip132)" style="stroke:#000000; stroke-linecap:round; stroke-linejoin:round; stroke-width:2; stroke-opacity:0.1; fill:none" points="1254.68,1423.18 1254.68,47.2441 "/>
<polyline clip-path="url(#clip132)" style="stroke:#000000; stroke-linecap:round; stroke-linejoin:round; stroke-width:2; stroke-opacity:0.1; fill:none" points="1803.72,1423.18 1803.72,47.2441 "/>
<polyline clip-path="url(#clip132)" style="stroke:#000000; stroke-linecap:round; stroke-linejoin:round; stroke-width:2; stroke-opacity:0.1; fill:none" points="2352.76,1423.18 2352.76,47.2441 "/>
<polyline clip-path="url(#clip132)" style="stroke:#000000; stroke-linecap:round; stroke-linejoin:round; stroke-width:2; stroke-opacity:0.1; fill:none" points="156.598,1172.67 2352.76,1172.67 "/>
<polyline clip-path="url(#clip132)" style="stroke:#000000; stroke-linecap:round; stroke-linejoin:round; stroke-width:2; stroke-opacity:0.1; fill:none" points="156.598,899.258 2352.76,899.258 "/>
<polyline clip-path="url(#clip132)" style="stroke:#000000; stroke-linecap:round; stroke-linejoin:round; stroke-width:2; stroke-opacity:0.1; fill:none" points="156.598,625.843 2352.76,625.843 "/>
<polyline clip-path="url(#clip132)" style="stroke:#000000; stroke-linecap:round; stroke-linejoin:round; stroke-width:2; stroke-opacity:0.1; fill:none" points="156.598,352.427 2352.76,352.427 "/>
<polyline clip-path="url(#clip132)" style="stroke:#000000; stroke-linecap:round; stroke-linejoin:round; stroke-width:2; stroke-opacity:0.1; fill:none" points="156.598,79.011 2352.76,79.011 "/>
<polyline clip-path="url(#clip130)" style="stroke:#000000; stroke-linecap:round; stroke-linejoin:round; stroke-width:4; stroke-opacity:1; fill:none" points="156.598,1423.18 2352.76,1423.18 "/>
<polyline clip-path="url(#clip130)" style="stroke:#000000; stroke-linecap:round; stroke-linejoin:round; stroke-width:4; stroke-opacity:1; fill:none" points="156.598,1423.18 156.598,1404.28 "/>
<polyline clip-path="url(#clip130)" style="stroke:#000000; stroke-linecap:round; stroke-linejoin:round; stroke-width:4; stroke-opacity:1; fill:none" points="705.638,1423.18 705.638,1404.28 "/>
<polyline clip-path="url(#clip130)" style="stroke:#000000; stroke-linecap:round; stroke-linejoin:round; stroke-width:4; stroke-opacity:1; fill:none" points="1254.68,1423.18 1254.68,1404.28 "/>
<polyline clip-path="url(#clip130)" style="stroke:#000000; stroke-linecap:round; stroke-linejoin:round; stroke-width:4; stroke-opacity:1; fill:none" points="1803.72,1423.18 1803.72,1404.28 "/>
<polyline clip-path="url(#clip130)" style="stroke:#000000; stroke-linecap:round; stroke-linejoin:round; stroke-width:4; stroke-opacity:1; fill:none" points="2352.76,1423.18 2352.76,1404.28 "/>
<path clip-path="url(#clip130)" d="M133.983 1454.1 Q130.372 1454.1 128.543 1457.66 Q126.737 1461.2 126.737 1468.33 Q126.737 1475.44 128.543 1479.01 Q130.372 1482.55 133.983 1482.55 Q137.617 1482.55 139.422 1479.01 Q141.251 1475.44 141.251 1468.33 Q141.251 1461.2 139.422 1457.66 Q137.617 1454.1 133.983 1454.1 M133.983 1450.39 Q139.793 1450.39 142.848 1455 Q145.927 1459.58 145.927 1468.33 Q145.927 1477.06 142.848 1481.67 Q139.793 1486.25 133.983 1486.25 Q128.172 1486.25 125.094 1481.67 Q122.038 1477.06 122.038 1468.33 Q122.038 1459.58 125.094 1455 Q128.172 1450.39 133.983 1450.39 Z" fill="#000000" fill-rule="nonzero" fill-opacity="1" /><path clip-path="url(#clip130)" d="M154.145 1479.7 L159.029 1479.7 L159.029 1485.58 L154.145 1485.58 L154.145 1479.7 Z" fill="#000000" fill-rule="nonzero" fill-opacity="1" /><path clip-path="url(#clip130)" d="M179.214 1454.1 Q175.603 1454.1 173.774 1457.66 Q171.969 1461.2 171.969 1468.33 Q171.969 1475.44 173.774 1479.01 Q175.603 1482.55 179.214 1482.55 Q182.848 1482.55 184.654 1479.01 Q186.482 1475.44 186.482 1468.33 Q186.482 1461.2 184.654 1457.66 Q182.848 1454.1 179.214 1454.1 M179.214 1450.39 Q185.024 1450.39 188.08 1455 Q191.158 1459.58 191.158 1468.33 Q191.158 1477.06 188.08 1481.67 Q185.024 1486.25 179.214 1486.25 Q173.404 1486.25 170.325 1481.67 Q167.269 1477.06 167.269 1468.33 Q167.269 1459.58 170.325 1455 Q173.404 1450.39 179.214 1450.39 Z" fill="#000000" fill-rule="nonzero" fill-opacity="1" /><path clip-path="url(#clip130)" d="M683.52 1454.1 Q679.909 1454.1 678.08 1457.66 Q676.274 1461.2 676.274 1468.33 Q676.274 1475.44 678.08 1479.01 Q679.909 1482.55 683.52 1482.55 Q687.154 1482.55 688.96 1479.01 Q690.788 1475.44 690.788 1468.33 Q690.788 1461.2 688.96 1457.66 Q687.154 1454.1 683.52 1454.1 M683.52 1450.39 Q689.33 1450.39 692.385 1455 Q695.464 1459.58 695.464 1468.33 Q695.464 1477.06 692.385 1481.67 Q689.33 1486.25 683.52 1486.25 Q677.71 1486.25 674.631 1481.67 Q671.575 1477.06 671.575 1468.33 Q671.575 1459.58 674.631 1455 Q677.71 1450.39 683.52 1450.39 Z" fill="#000000" fill-rule="nonzero" fill-opacity="1" /><path clip-path="url(#clip130)" d="M703.682 1479.7 L708.566 1479.7 L708.566 1485.58 L703.682 1485.58 L703.682 1479.7 Z" fill="#000000" fill-rule="nonzero" fill-opacity="1" /><path clip-path="url(#clip130)" d="M718.797 1451.02 L737.154 1451.02 L737.154 1454.96 L723.08 1454.96 L723.08 1463.43 Q724.098 1463.08 725.117 1462.92 Q726.135 1462.73 727.154 1462.73 Q732.941 1462.73 736.32 1465.9 Q739.7 1469.08 739.7 1474.49 Q739.7 1480.07 736.228 1483.17 Q732.756 1486.25 726.436 1486.25 Q724.26 1486.25 721.992 1485.88 Q719.746 1485.51 717.339 1484.77 L717.339 1480.07 Q719.422 1481.2 721.645 1481.76 Q723.867 1482.32 726.344 1482.32 Q730.348 1482.32 732.686 1480.21 Q735.024 1478.1 735.024 1474.49 Q735.024 1470.88 732.686 1468.77 Q730.348 1466.67 726.344 1466.67 Q724.469 1466.67 722.594 1467.08 Q720.742 1467.5 718.797 1468.38 L718.797 1451.02 Z" fill="#000000" fill-rule="nonzero" fill-opacity="1" /><path clip-path="url(#clip130)" d="M1221.83 1481.64 L1229.47 1481.64 L1229.47 1455.28 L1221.16 1456.95 L1221.16 1452.69 L1229.42 1451.02 L1234.1 1451.02 L1234.1 1481.64 L1241.74 1481.64 L1241.74 1485.58 L1221.83 1485.58 L1221.83 1481.64 Z" fill="#000000" fill-rule="nonzero" fill-opacity="1" /><path clip-path="url(#clip130)" d="M1251.18 1479.7 L1256.07 1479.7 L1256.07 1485.58 L1251.18 1485.58 L1251.18 1479.7 Z" fill="#000000" fill-rule="nonzero" fill-opacity="1" /><path clip-path="url(#clip130)" d="M1276.25 1454.1 Q1272.64 1454.1 1270.81 1457.66 Q1269.01 1461.2 1269.01 1468.33 Q1269.01 1475.44 1270.81 1479.01 Q1272.64 1482.55 1276.25 1482.55 Q1279.89 1482.55 1281.69 1479.01 Q1283.52 1475.44 1283.52 1468.33 Q1283.52 1461.2 1281.69 1457.66 Q1279.89 1454.1 1276.25 1454.1 M1276.25 1450.39 Q1282.06 1450.39 1285.12 1455 Q1288.2 1459.58 1288.2 1468.33 Q1288.2 1477.06 1285.12 1481.67 Q1282.06 1486.25 1276.25 1486.25 Q1270.44 1486.25 1267.36 1481.67 Q1264.31 1477.06 1264.31 1468.33 Q1264.31 1459.58 1267.36 1455 Q1270.44 1450.39 1276.25 1450.39 Z" fill="#000000" fill-rule="nonzero" fill-opacity="1" /><path clip-path="url(#clip130)" d="M1771.37 1481.64 L1779.01 1481.64 L1779.01 1455.28 L1770.7 1456.95 L1770.7 1452.69 L1778.96 1451.02 L1783.64 1451.02 L1783.64 1481.64 L1791.27 1481.64 L1791.27 1485.58 L1771.37 1485.58 L1771.37 1481.64 Z" fill="#000000" fill-rule="nonzero" fill-opacity="1" /><path clip-path="url(#clip130)" d="M1800.72 1479.7 L1805.6 1479.7 L1805.6 1485.58 L1800.72 1485.58 L1800.72 1479.7 Z" fill="#000000" fill-rule="nonzero" fill-opacity="1" /><path clip-path="url(#clip130)" d="M1815.83 1451.02 L1834.19 1451.02 L1834.19 1454.96 L1820.12 1454.96 L1820.12 1463.43 Q1821.14 1463.08 1822.15 1462.92 Q1823.17 1462.73 1824.19 1462.73 Q1829.98 1462.73 1833.36 1465.9 Q1836.74 1469.08 1836.74 1474.49 Q1836.74 1480.07 1833.26 1483.17 Q1829.79 1486.25 1823.47 1486.25 Q1821.3 1486.25 1819.03 1485.88 Q1816.78 1485.51 1814.38 1484.77 L1814.38 1480.07 Q1816.46 1481.2 1818.68 1481.76 Q1820.9 1482.32 1823.38 1482.32 Q1827.39 1482.32 1829.72 1480.21 Q1832.06 1478.1 1832.06 1474.49 Q1832.06 1470.88 1829.72 1468.77 Q1827.39 1466.67 1823.38 1466.67 Q1821.51 1466.67 1819.63 1467.08 Q1817.78 1467.5 1815.83 1468.38 L1815.83 1451.02 Z" fill="#000000" fill-rule="nonzero" fill-opacity="1" /><path clip-path="url(#clip130)" d="M2323.99 1481.64 L2340.31 1481.64 L2340.31 1485.58 L2318.37 1485.58 L2318.37 1481.64 Q2321.03 1478.89 2325.61 1474.26 Q2330.22 1469.61 2331.4 1468.27 Q2333.65 1465.74 2334.53 1464.01 Q2335.43 1462.25 2335.43 1460.56 Q2335.43 1457.8 2333.49 1456.07 Q2331.56 1454.33 2328.46 1454.33 Q2326.26 1454.33 2323.81 1455.09 Q2321.38 1455.86 2318.6 1457.41 L2318.6 1452.69 Q2321.43 1451.55 2323.88 1450.97 Q2326.33 1450.39 2328.37 1450.39 Q2333.74 1450.39 2336.93 1453.08 Q2340.13 1455.77 2340.13 1460.26 Q2340.13 1462.39 2339.32 1464.31 Q2338.53 1466.2 2336.42 1468.8 Q2335.85 1469.47 2332.74 1472.69 Q2329.64 1475.88 2323.99 1481.64 Z" fill="#000000" fill-rule="nonzero" fill-opacity="1" /><path clip-path="url(#clip130)" d="M2350.13 1479.7 L2355.01 1479.7 L2355.01 1485.58 L2350.13 1485.58 L2350.13 1479.7 Z" fill="#000000" fill-rule="nonzero" fill-opacity="1" /><path clip-path="url(#clip130)" d="M2375.2 1454.1 Q2371.59 1454.1 2369.76 1457.66 Q2367.95 1461.2 2367.95 1468.33 Q2367.95 1475.44 2369.76 1479.01 Q2371.59 1482.55 2375.2 1482.55 Q2378.83 1482.55 2380.64 1479.01 Q2382.47 1475.44 2382.47 1468.33 Q2382.47 1461.2 2380.64 1457.66 Q2378.83 1454.1 2375.2 1454.1 M2375.2 1450.39 Q2381.01 1450.39 2384.06 1455 Q2387.14 1459.58 2387.14 1468.33 Q2387.14 1477.06 2384.06 1481.67 Q2381.01 1486.25 2375.2 1486.25 Q2369.39 1486.25 2366.31 1481.67 Q2363.25 1477.06 2363.25 1468.33 Q2363.25 1459.58 2366.31 1455 Q2369.39 1450.39 2375.2 1450.39 Z" fill="#000000" fill-rule="nonzero" fill-opacity="1" /><path clip-path="url(#clip130)" d="M1253.74 1522.27 L1253.74 1532.4 L1265.8 1532.4 L1265.8 1536.95 L1253.74 1536.95 L1253.74 1556.3 Q1253.74 1560.66 1254.92 1561.9 Q1256.13 1563.14 1259.79 1563.14 L1265.8 1563.14 L1265.8 1568.04 L1259.79 1568.04 Q1253.01 1568.04 1250.43 1565.53 Q1247.85 1562.98 1247.85 1556.3 L1247.85 1536.95 L1243.55 1536.95 L1243.55 1532.4 L1247.85 1532.4 L1247.85 1522.27 L1253.74 1522.27 Z" fill="#000000" fill-rule="nonzero" fill-opacity="1" /><polyline clip-path="url(#clip130)" style="stroke:#000000; stroke-linecap:round; stroke-linejoin:round; stroke-width:4; stroke-opacity:1; fill:none" points="156.598,1423.18 156.598,47.2441 "/>
<polyline clip-path="url(#clip130)" style="stroke:#000000; stroke-linecap:round; stroke-linejoin:round; stroke-width:4; stroke-opacity:1; fill:none" points="156.598,1172.67 175.496,1172.67 "/>
<polyline clip-path="url(#clip130)" style="stroke:#000000; stroke-linecap:round; stroke-linejoin:round; stroke-width:4; stroke-opacity:1; fill:none" points="156.598,899.258 175.496,899.258 "/>
<polyline clip-path="url(#clip130)" style="stroke:#000000; stroke-linecap:round; stroke-linejoin:round; stroke-width:4; stroke-opacity:1; fill:none" points="156.598,625.843 175.496,625.843 "/>
<polyline clip-path="url(#clip130)" style="stroke:#000000; stroke-linecap:round; stroke-linejoin:round; stroke-width:4; stroke-opacity:1; fill:none" points="156.598,352.427 175.496,352.427 "/>
<polyline clip-path="url(#clip130)" style="stroke:#000000; stroke-linecap:round; stroke-linejoin:round; stroke-width:4; stroke-opacity:1; fill:none" points="156.598,79.011 175.496,79.011 "/>
<path clip-path="url(#clip130)" d="M62.9365 1158.47 Q59.3254 1158.47 57.4967 1162.04 Q55.6912 1165.58 55.6912 1172.71 Q55.6912 1179.82 57.4967 1183.38 Q59.3254 1186.92 62.9365 1186.92 Q66.5707 1186.92 68.3763 1183.38 Q70.205 1179.82 70.205 1172.71 Q70.205 1165.58 68.3763 1162.04 Q66.5707 1158.47 62.9365 1158.47 M62.9365 1154.77 Q68.7467 1154.77 71.8022 1159.38 Q74.8809 1163.96 74.8809 1172.71 Q74.8809 1181.44 71.8022 1186.04 Q68.7467 1190.63 62.9365 1190.63 Q57.1264 1190.63 54.0477 1186.04 Q50.9921 1181.44 50.9921 1172.71 Q50.9921 1163.96 54.0477 1159.38 Q57.1264 1154.77 62.9365 1154.77 Z" fill="#000000" fill-rule="nonzero" fill-opacity="1" /><path clip-path="url(#clip130)" d="M83.0984 1184.07 L87.9827 1184.07 L87.9827 1189.95 L83.0984 1189.95 L83.0984 1184.07 Z" fill="#000000" fill-rule="nonzero" fill-opacity="1" /><path clip-path="url(#clip130)" d="M111.015 1159.47 L99.2095 1177.92 L111.015 1177.92 L111.015 1159.47 M109.788 1155.39 L115.668 1155.39 L115.668 1177.92 L120.598 1177.92 L120.598 1181.81 L115.668 1181.81 L115.668 1189.95 L111.015 1189.95 L111.015 1181.81 L95.4132 1181.81 L95.4132 1177.29 L109.788 1155.39 Z" fill="#000000" fill-rule="nonzero" fill-opacity="1" /><path clip-path="url(#clip130)" d="M63.2606 885.057 Q59.6495 885.057 57.8208 888.622 Q56.0152 892.163 56.0152 899.293 Q56.0152 906.399 57.8208 909.964 Q59.6495 913.506 63.2606 913.506 Q66.8948 913.506 68.7004 909.964 Q70.5291 906.399 70.5291 899.293 Q70.5291 892.163 68.7004 888.622 Q66.8948 885.057 63.2606 885.057 M63.2606 881.353 Q69.0707 881.353 72.1263 885.96 Q75.205 890.543 75.205 899.293 Q75.205 908.02 72.1263 912.626 Q69.0707 917.21 63.2606 917.21 Q57.4504 917.21 54.3717 912.626 Q51.3162 908.02 51.3162 899.293 Q51.3162 890.543 54.3717 885.96 Q57.4504 881.353 63.2606 881.353 Z" fill="#000000" fill-rule="nonzero" fill-opacity="1" /><path clip-path="url(#clip130)" d="M83.4225 910.659 L88.3067 910.659 L88.3067 916.538 L83.4225 916.538 L83.4225 910.659 Z" fill="#000000" fill-rule="nonzero" fill-opacity="1" /><path clip-path="url(#clip130)" d="M109.071 897.395 Q105.922 897.395 104.071 899.548 Q102.242 901.7 102.242 905.45 Q102.242 909.177 104.071 911.353 Q105.922 913.506 109.071 913.506 Q112.219 913.506 114.047 911.353 Q115.899 909.177 115.899 905.45 Q115.899 901.7 114.047 899.548 Q112.219 897.395 109.071 897.395 M118.353 882.742 L118.353 887.001 Q116.594 886.168 114.788 885.728 Q113.006 885.288 111.246 885.288 Q106.617 885.288 104.163 888.413 Q101.733 891.538 101.385 897.858 Q102.751 895.844 104.811 894.779 Q106.871 893.691 109.348 893.691 Q114.557 893.691 117.566 896.862 Q120.598 900.011 120.598 905.45 Q120.598 910.774 117.45 913.992 Q114.302 917.21 109.071 917.21 Q103.075 917.21 99.9039 912.626 Q96.7326 908.02 96.7326 899.293 Q96.7326 891.099 100.621 886.238 Q104.51 881.353 111.061 881.353 Q112.82 881.353 114.603 881.701 Q116.408 882.048 118.353 882.742 Z" fill="#000000" fill-rule="nonzero" fill-opacity="1" /><path clip-path="url(#clip130)" d="M63.5152 611.641 Q59.9041 611.641 58.0754 615.206 Q56.2699 618.748 56.2699 625.877 Q56.2699 632.984 58.0754 636.549 Q59.9041 640.09 63.5152 640.09 Q67.1494 640.09 68.955 636.549 Q70.7837 632.984 70.7837 625.877 Q70.7837 618.748 68.955 615.206 Q67.1494 611.641 63.5152 611.641 M63.5152 607.938 Q69.3254 607.938 72.3809 612.544 Q75.4596 617.127 75.4596 625.877 Q75.4596 634.604 72.3809 639.211 Q69.3254 643.794 63.5152 643.794 Q57.7051 643.794 54.6264 639.211 Q51.5708 634.604 51.5708 625.877 Q51.5708 617.127 54.6264 612.544 Q57.7051 607.938 63.5152 607.938 Z" fill="#000000" fill-rule="nonzero" fill-opacity="1" /><path clip-path="url(#clip130)" d="M83.6771 637.243 L88.5614 637.243 L88.5614 643.123 L83.6771 643.123 L83.6771 637.243 Z" fill="#000000" fill-rule="nonzero" fill-opacity="1" /><path clip-path="url(#clip130)" d="M108.746 626.711 Q105.413 626.711 103.492 628.493 Q101.594 630.275 101.594 633.4 Q101.594 636.525 103.492 638.308 Q105.413 640.09 108.746 640.09 Q112.08 640.09 114.001 638.308 Q115.922 636.502 115.922 633.4 Q115.922 630.275 114.001 628.493 Q112.103 626.711 108.746 626.711 M104.071 624.72 Q101.061 623.979 99.3715 621.919 Q97.7048 619.859 97.7048 616.896 Q97.7048 612.752 100.645 610.345 Q103.608 607.938 108.746 607.938 Q113.908 607.938 116.848 610.345 Q119.788 612.752 119.788 616.896 Q119.788 619.859 118.098 621.919 Q116.432 623.979 113.445 624.72 Q116.825 625.507 118.7 627.799 Q120.598 630.09 120.598 633.4 Q120.598 638.424 117.52 641.109 Q114.464 643.794 108.746 643.794 Q103.029 643.794 99.9502 641.109 Q96.8947 638.424 96.8947 633.4 Q96.8947 630.09 98.7928 627.799 Q100.691 625.507 104.071 624.72 M102.358 617.336 Q102.358 620.021 104.024 621.525 Q105.714 623.03 108.746 623.03 Q111.756 623.03 113.445 621.525 Q115.158 620.021 115.158 617.336 Q115.158 614.65 113.445 613.146 Q111.756 611.641 108.746 611.641 Q105.714 611.641 104.024 613.146 Q102.358 614.65 102.358 617.336 Z" fill="#000000" fill-rule="nonzero" fill-opacity="1" /><path clip-path="url(#clip130)" d="M54.2328 365.772 L61.8717 365.772 L61.8717 339.406 L53.5616 341.073 L53.5616 336.813 L61.8254 335.147 L66.5013 335.147 L66.5013 365.772 L74.1402 365.772 L74.1402 369.707 L54.2328 369.707 L54.2328 365.772 Z" fill="#000000" fill-rule="nonzero" fill-opacity="1" /><path clip-path="url(#clip130)" d="M83.5845 363.827 L88.4688 363.827 L88.4688 369.707 L83.5845 369.707 L83.5845 363.827 Z" fill="#000000" fill-rule="nonzero" fill-opacity="1" /><path clip-path="url(#clip130)" d="M108.654 338.225 Q105.043 338.225 103.214 341.79 Q101.409 345.332 101.409 352.462 Q101.409 359.568 103.214 363.133 Q105.043 366.674 108.654 366.674 Q112.288 366.674 114.094 363.133 Q115.922 359.568 115.922 352.462 Q115.922 345.332 114.094 341.79 Q112.288 338.225 108.654 338.225 M108.654 334.522 Q114.464 334.522 117.52 339.128 Q120.598 343.712 120.598 352.462 Q120.598 361.188 117.52 365.795 Q114.464 370.378 108.654 370.378 Q102.844 370.378 99.765 365.795 Q96.7095 361.188 96.7095 352.462 Q96.7095 343.712 99.765 339.128 Q102.844 334.522 108.654 334.522 Z" fill="#000000" fill-rule="nonzero" fill-opacity="1" /><path clip-path="url(#clip130)" d="M55.8301 92.3559 L63.4689 92.3559 L63.4689 65.9903 L55.1588 67.6569 L55.1588 63.3977 L63.4226 61.731 L68.0985 61.731 L68.0985 92.3559 L75.7374 92.3559 L75.7374 96.291 L55.8301 96.291 L55.8301 92.3559 Z" fill="#000000" fill-rule="nonzero" fill-opacity="1" /><path clip-path="url(#clip130)" d="M85.1818 90.4114 L90.066 90.4114 L90.066 96.291 L85.1818 96.291 L85.1818 90.4114 Z" fill="#000000" fill-rule="nonzero" fill-opacity="1" /><path clip-path="url(#clip130)" d="M104.279 92.3559 L120.598 92.3559 L120.598 96.291 L98.6539 96.291 L98.6539 92.3559 Q101.316 89.6013 105.899 84.9716 Q110.506 80.3189 111.686 78.9763 Q113.932 76.4532 114.811 74.7171 Q115.714 72.9578 115.714 71.268 Q115.714 68.5134 113.77 66.7773 Q111.848 65.0412 108.746 65.0412 Q106.547 65.0412 104.094 65.8051 Q101.663 66.569 98.8854 68.1199 L98.8854 63.3977 Q101.709 62.2634 104.163 61.6847 Q106.617 61.106 108.654 61.106 Q114.024 61.106 117.219 63.7912 Q120.413 66.4764 120.413 70.9671 Q120.413 73.0967 119.603 75.018 Q118.816 76.9161 116.709 79.5087 Q116.131 80.18 113.029 83.3976 Q109.927 86.592 104.279 92.3559 Z" fill="#000000" fill-rule="nonzero" fill-opacity="1" /><polyline clip-path="url(#clip132)" style="stroke:#009af9; stroke-linecap:round; stroke-linejoin:round; stroke-width:4; stroke-opacity:1; fill:none" points="156.598,86.1857 158.797,99.115 160.995,111.916 163.193,124.589 165.392,137.136 167.59,149.558 169.788,161.856 171.987,174.031 174.185,186.086 176.383,198.02 178.582,209.836 180.78,221.533 182.979,233.115 185.177,244.581 187.375,255.932 189.574,267.171 191.772,278.297 193.97,289.313 196.169,300.219 198.367,311.017 200.565,321.707 202.764,332.29 204.962,342.768 207.16,353.142 209.359,363.412 211.557,373.58 213.755,383.647 215.954,393.613 218.152,403.481 220.351,413.25 222.549,422.921 224.747,432.497 226.946,441.977 229.144,451.363 231.342,460.655 233.541,469.855 235.739,478.963 237.937,487.98 240.136,496.908 242.334,505.746 244.532,514.497 246.731,523.16 248.929,531.738 251.128,540.229 253.326,548.636 255.524,556.96 257.723,565.2 259.921,573.358 262.119,581.435 264.318,589.432 266.516,597.348 268.714,605.186 270.913,612.946 273.111,620.629 275.309,628.235 277.508,635.765 279.706,643.221 281.905,650.602 284.103,657.909 286.301,665.144 288.5,672.307 290.698,679.398 292.896,686.419 295.095,693.37 297.293,700.251 299.491,707.064 301.69,713.81 303.888,720.488 306.086,727.099 308.285,733.645 310.483,740.126 312.682,746.542 314.88,752.895 317.078,759.184 319.277,765.41 321.475,771.575 323.673,777.678 325.872,783.72 328.07,789.702 330.268,795.625 332.467,801.488 334.665,807.294 336.863,813.041 339.062,818.731 341.26,824.364 343.458,829.941 345.657,835.462 347.855,840.929 350.054,846.341 352.252,851.699 354.45,857.004 356.649,862.255 358.847,867.455 361.045,872.602 363.244,877.699 365.442,882.744 367.64,887.74 369.839,892.685 372.037,897.581 374.235,902.429 376.434,907.228 378.632,911.979 380.831,916.684 383.029,921.341 385.227,925.952 387.426,930.517 389.624,935.036 391.822,939.511 394.021,943.941 396.219,948.326 398.417,952.669 400.616,956.968 402.814,961.224 405.012,965.438 407.211,969.61 409.409,973.74 411.608,977.829 413.806,981.878 416.004,985.887 418.203,989.855 420.401,993.784 422.599,997.674 424.798,1001.53 426.996,1005.34 429.194,1009.11 431.393,1012.85 433.591,1016.55 435.789,1020.21 437.988,1023.84 440.186,1027.43 442.385,1030.99 444.583,1034.51 446.781,1037.99 448.98,1041.44 451.178,1044.85 453.376,1048.23 455.575,1051.58 457.773,1054.9 459.971,1058.18 462.17,1061.42 464.368,1064.64 466.566,1067.82 468.765,1070.98 470.963,1074.1 473.162,1077.19 475.36,1080.24 477.558,1083.27 479.757,1086.27 481.955,1089.24 484.153,1092.18 486.352,1095.09 488.55,1097.97 490.748,1100.82 492.947,1103.64 495.145,1106.44 497.343,1109.2 499.542,1111.94 501.74,1114.66 503.938,1117.34 506.137,1120 508.335,1122.63 510.534,1125.24 512.732,1127.82 514.93,1130.37 517.129,1132.9 519.327,1135.41 521.525,1137.88 523.724,1140.34 525.922,1142.77 528.12,1145.17 530.319,1147.56 532.517,1149.91 534.715,1152.25 536.914,1154.56 539.112,1156.85 541.311,1159.12 543.509,1161.36 545.707,1163.58 547.906,1165.78 550.104,1167.96 552.302,1170.11 554.501,1172.24 556.699,1174.36 558.897,1176.45 561.096,1178.52 563.294,1180.57 565.492,1182.6 567.691,1184.61 569.889,1186.6 572.088,1188.57 574.286,1190.52 576.484,1192.45 578.683,1194.36 580.881,1196.25 583.079,1198.12 585.278,1199.98 587.476,1201.81 589.674,1203.63 591.873,1205.43 594.071,1207.21 596.269,1208.97 598.468,1210.72 600.666,1212.45 602.865,1214.16 605.063,1215.85 607.261,1217.53 609.46,1219.19 611.658,1220.84 613.856,1222.46 616.055,1224.08 618.253,1225.67 620.451,1227.25 622.65,1228.81 624.848,1230.36 627.046,1231.9 629.245,1233.41 631.443,1234.92 633.641,1236.4 635.84,1237.88 638.038,1239.33 640.237,1240.78 642.435,1242.21 644.633,1243.62 646.832,1245.02 649.03,1246.41 651.228,1247.78 653.427,1249.14 655.625,1250.49 657.823,1251.82 660.022,1253.14 662.22,1254.45 664.418,1255.74 666.617,1257.02 668.815,1258.29 671.014,1259.54 673.212,1260.79 675.41,1262.02 677.609,1263.24 679.807,1264.44 682.005,1265.64 684.204,1266.82 686.402,1267.99 688.6,1269.15 690.799,1270.3 692.997,1271.43 695.195,1272.56 697.394,1273.67 699.592,1274.77 701.791,1275.86 703.989,1276.94 706.187,1278.01 708.386,1279.07 710.584,1280.12 712.782,1281.16 714.981,1282.19 717.179,1283.2 719.377,1284.21 721.576,1285.21 723.774,1286.19 725.972,1287.17 728.171,1288.14 730.369,1289.1 732.568,1290.04 734.766,1290.98 736.964,1291.91 739.163,1292.83 741.361,1293.74 743.559,1294.65 745.758,1295.54 747.956,1296.42 750.154,1297.3 752.353,1298.16 754.551,1299.02 756.749,1299.87 758.948,1300.71 761.146,1301.54 763.344,1302.37 765.543,1303.18 767.741,1303.99 769.94,1304.79 772.138,1305.58 774.336,1306.36 776.535,1307.14 778.733,1307.91 780.931,1308.67 783.13,1309.42 785.328,1310.17 787.526,1310.91 789.725,1311.64 791.923,1312.36 794.121,1313.08 796.32,1313.78 798.518,1314.49 800.717,1315.18 802.915,1315.87 805.113,1316.55 807.312,1317.23 809.51,1317.89 811.708,1318.56 813.907,1319.21 816.105,1319.86 818.303,1320.5 820.502,1321.14 822.7,1321.77 824.898,1322.39 827.097,1323.01 829.295,1323.62 831.494,1324.22 833.692,1324.82 835.89,1325.41 838.089,1326 840.287,1326.58 842.485,1327.16 844.684,1327.73 846.882,1328.29 849.08,1328.85 851.279,1329.4 853.477,1329.95 855.675,1330.49 857.874,1331.03 860.072,1331.56 862.271,1332.08 864.469,1332.6 866.667,1333.12 868.866,1333.63 871.064,1334.13 873.262,1334.63 875.461,1335.13 877.659,1335.62 879.857,1336.1 882.056,1336.58 884.254,1337.06 886.452,1337.53 888.651,1337.99 890.849,1338.45 893.048,1338.91 895.246,1339.36 897.444,1339.81 899.643,1340.25 901.841,1340.69 904.039,1341.13 906.238,1341.56 908.436,1341.98 910.634,1342.4 912.833,1342.82 915.031,1343.23 917.229,1343.64 919.428,1344.05 921.626,1344.45 923.824,1344.84 926.023,1345.24 928.221,1345.62 930.42,1346.01 932.618,1346.39 934.816,1346.77 937.015,1347.14 939.213,1347.51 941.411,1347.88 943.61,1348.24 945.808,1348.6 948.006,1348.95 950.205,1349.31 952.403,1349.65 954.601,1350 956.8,1350.34 958.998,1350.68 961.197,1351.01 963.395,1351.34 965.593,1351.67 967.792,1352 969.99,1352.32 972.188,1352.64 974.387,1352.95 976.585,1353.26 978.783,1353.57 980.982,1353.88 983.18,1354.18 985.378,1354.48 987.577,1354.78 989.775,1355.07 991.974,1355.37 994.172,1355.65 996.37,1355.94 998.569,1356.22 1000.77,1356.5 1002.97,1356.78 1005.16,1357.05 1007.36,1357.32 1009.56,1357.59 1011.76,1357.86 1013.96,1358.12 1016.16,1358.38 1018.35,1358.64 1020.55,1358.9 1022.75,1359.15 1024.95,1359.4 1027.15,1359.65 1029.35,1359.9 1031.54,1360.14 1033.74,1360.38 1035.94,1360.62 1038.14,1360.85 1040.34,1361.09 1042.54,1361.32 1044.73,1361.55 1046.93,1361.77 1049.13,1362 1051.33,1362.22 1053.53,1362.44 1055.73,1362.66 1057.92,1362.87 1060.12,1363.09 1062.32,1363.3 1064.52,1363.51 1066.72,1363.71 1068.92,1363.92 1071.11,1364.12 1073.31,1364.32 1075.51,1364.52 1077.71,1364.72 1079.91,1364.91 1082.11,1365.11 1084.3,1365.3 1086.5,1365.49 1088.7,1365.67 1090.9,1365.86 1093.1,1366.04 1095.3,1366.22 1097.49,1366.4 1099.69,1366.58 1101.89,1366.76 1104.09,1366.93 1106.29,1367.11 1108.49,1367.28 1110.68,1367.45 1112.88,1367.61 1115.08,1367.78 1117.28,1367.94 1119.48,1368.11 1121.68,1368.27 1123.87,1368.43 1126.07,1368.59 1128.27,1368.74 1130.47,1368.9 1132.67,1369.05 1134.87,1369.2 1137.07,1369.35 1139.26,1369.5 1141.46,1369.65 1143.66,1369.79 1145.86,1369.94 1148.06,1370.08 1150.26,1370.22 1152.45,1370.36 1154.65,1370.5 1156.85,1370.64 1159.05,1370.78 1161.25,1370.91 1163.45,1371.05 1165.64,1371.18 1167.84,1371.31 1170.04,1371.44 1172.24,1371.57 1174.44,1371.69 1176.64,1371.82 1178.83,1371.94 1181.03,1372.07 1183.23,1372.19 1185.43,1372.31 1187.63,1372.43 1189.83,1372.55 1192.02,1372.67 1194.22,1372.78 1196.42,1372.9 1198.62,1373.01 1200.82,1373.12 1203.02,1373.23 1205.21,1373.35 1207.41,1373.45 1209.61,1373.56 1211.81,1373.67 1214.01,1373.78 1216.21,1373.88 1218.4,1373.98 1220.6,1374.09 1222.8,1374.19 1225,1374.29 1227.2,1374.39 1229.4,1374.49 1231.59,1374.59 1233.79,1374.68 1235.99,1374.78 1238.19,1374.87 1240.39,1374.97 1242.59,1375.06 1244.78,1375.15 1246.98,1375.24 1249.18,1375.33 1251.38,1375.42 1253.58,1375.51 1255.78,1375.6 1257.97,1375.69 1260.17,1375.77 1262.37,1375.86 1264.57,1375.94 1266.77,1376.02 1268.97,1376.11 1271.16,1376.19 1273.36,1376.27 1275.56,1376.35 1277.76,1376.43 1279.96,1376.5 1282.16,1376.58 1284.35,1376.66 1286.55,1376.73 1288.75,1376.81 1290.95,1376.88 1293.15,1376.96 1295.35,1377.03 1297.55,1377.1 1299.74,1377.17 1301.94,1377.25 1304.14,1377.32 1306.34,1377.38 1308.54,1377.45 1310.74,1377.52 1312.93,1377.59 1315.13,1377.65 1317.33,1377.72 1319.53,1377.79 1321.73,1377.85 1323.93,1377.91 1326.12,1377.98 1328.32,1378.04 1330.52,1378.1 1332.72,1378.16 1334.92,1378.23 1337.12,1378.29 1339.31,1378.35 1341.51,1378.4 1343.71,1378.46 1345.91,1378.52 1348.11,1378.58 1350.31,1378.64 1352.5,1378.69 1354.7,1378.75 1356.9,1378.8 1359.1,1378.86 1361.3,1378.91 1363.5,1378.97 1365.69,1379.02 1367.89,1379.07 1370.09,1379.12 1372.29,1379.18 1374.49,1379.23 1376.69,1379.28 1378.88,1379.33 1381.08,1379.38 1383.28,1379.43 1385.48,1379.47 1387.68,1379.52 1389.88,1379.57 1392.07,1379.62 1394.27,1379.66 1396.47,1379.71 1398.67,1379.76 1400.87,1379.8 1403.07,1379.85 1405.26,1379.89 1407.46,1379.94 1409.66,1379.98 1411.86,1380.02 1414.06,1380.07 1416.26,1380.11 1418.45,1380.15 1420.65,1380.19 1422.85,1380.23 1425.05,1380.27 1427.25,1380.31 1429.45,1380.35 1431.64,1380.39 1433.84,1380.43 1436.04,1380.47 1438.24,1380.51 1440.44,1380.55 1442.64,1380.58 1444.83,1380.62 1447.03,1380.66 1449.23,1380.69 1451.43,1380.73 1453.63,1380.76 1455.83,1380.8 1458.03,1380.83 1460.22,1380.87 1462.42,1380.9 1464.62,1380.94 1466.82,1380.97 1469.02,1381 1471.22,1381.04 1473.41,1381.07 1475.61,1381.1 1477.81,1381.13 1480.01,1381.16 1482.21,1381.2 1484.41,1381.23 1486.6,1381.26 1488.8,1381.29 1491,1381.32 1493.2,1381.35 1495.4,1381.38 1497.6,1381.41 1499.79,1381.43 1501.99,1381.46 1504.19,1381.49 1506.39,1381.52 1508.59,1381.55 1510.79,1381.57 1512.98,1381.6 1515.18,1381.63 1517.38,1381.65 1519.58,1381.68 1521.78,1381.71 1523.98,1381.73 1526.17,1381.76 1528.37,1381.78 1530.57,1381.81 1532.77,1381.83 1534.97,1381.86 1537.17,1381.88 1539.36,1381.9 1541.56,1381.93 1543.76,1381.95 1545.96,1381.97 1548.16,1382 1550.36,1382.02 1552.55,1382.04 1554.75,1382.07 1556.95,1382.09 1559.15,1382.11 1561.35,1382.13 1563.55,1382.15 1565.74,1382.17 1567.94,1382.19 1570.14,1382.22 1572.34,1382.24 1574.54,1382.26 1576.74,1382.28 1578.93,1382.3 1581.13,1382.32 1583.33,1382.34 1585.53,1382.36 1587.73,1382.38 1589.93,1382.39 1592.12,1382.41 1594.32,1382.43 1596.52,1382.45 1598.72,1382.47 1600.92,1382.49 1603.12,1382.51 1605.31,1382.52 1607.51,1382.54 1609.71,1382.56 1611.91,1382.58 1614.11,1382.59 1616.31,1382.61 1618.5,1382.63 1620.7,1382.64 1622.9,1382.66 1625.1,1382.68 1627.3,1382.69 1629.5,1382.71 1631.7,1382.73 1633.89,1382.74 1636.09,1382.76 1638.29,1382.77 1640.49,1382.79 1642.69,1382.8 1644.89,1382.82 1647.08,1382.83 1649.28,1382.85 1651.48,1382.86 1653.68,1382.88 1655.88,1382.89 1658.08,1382.91 1660.27,1382.92 1662.47,1382.93 1664.67,1382.95 1666.87,1382.96 1669.07,1382.97 1671.27,1382.99 1673.46,1383 1675.66,1383.01 1677.86,1383.03 1680.06,1383.04 1682.26,1383.05 1684.46,1383.06 1686.65,1383.08 1688.85,1383.09 1691.05,1383.1 1693.25,1383.11 1695.45,1383.12 1697.65,1383.14 1699.84,1383.15 1702.04,1383.16 1704.24,1383.17 1706.44,1383.18 1708.64,1383.19 1710.84,1383.2 1713.03,1383.22 1715.23,1383.23 1717.43,1383.24 1719.63,1383.25 1721.83,1383.26 1724.03,1383.27 1726.22,1383.28 1728.42,1383.29 1730.62,1383.3 1732.82,1383.31 1735.02,1383.32 1737.22,1383.33 1739.41,1383.34 1741.61,1383.35 1743.81,1383.36 1746.01,1383.37 1748.21,1383.38 1750.41,1383.38 1752.6,1383.39 1754.8,1383.4 1757,1383.41 1759.2,1383.42 1761.4,1383.43 1763.6,1383.44 1765.79,1383.45 1767.99,1383.45 1770.19,1383.46 1772.39,1383.47 1774.59,1383.48 1776.79,1383.49 1778.98,1383.5 1781.18,1383.5 1783.38,1383.51 1785.58,1383.52 1787.78,1383.53 1789.98,1383.53 1792.18,1383.54 1794.37,1383.55 1796.57,1383.56 1798.77,1383.56 1800.97,1383.57 1803.17,1383.58 1805.37,1383.58 1807.56,1383.59 1809.76,1383.6 1811.96,1383.61 1814.16,1383.61 1816.36,1383.62 1818.56,1383.63 1820.75,1383.63 1822.95,1383.64 1825.15,1383.64 1827.35,1383.65 1829.55,1383.66 1831.75,1383.66 1833.94,1383.67 1836.14,1383.68 1838.34,1383.68 1840.54,1383.69 1842.74,1383.69 1844.94,1383.7 1847.13,1383.71 1849.33,1383.71 1851.53,1383.72 1853.73,1383.72 1855.93,1383.73 1858.13,1383.73 1860.32,1383.74 1862.52,1383.75 1864.72,1383.75 1866.92,1383.76 1869.12,1383.76 1871.32,1383.77 1873.51,1383.77 1875.71,1383.78 1877.91,1383.78 1880.11,1383.79 1882.31,1383.79 1884.51,1383.8 1886.7,1383.8 1888.9,1383.81 1891.1,1383.81 1893.3,1383.82 1895.5,1383.82 1897.7,1383.83 1899.89,1383.83 1902.09,1383.84 1904.29,1383.84 1906.49,1383.85 1908.69,1383.85 1910.89,1383.86 1913.08,1383.86 1915.28,1383.86 1917.48,1383.87 1919.68,1383.87 1921.88,1383.88 1924.08,1383.88 1926.27,1383.89 1928.47,1383.89 1930.67,1383.89 1932.87,1383.9 1935.07,1383.9 1937.27,1383.91 1939.46,1383.91 1941.66,1383.91 1943.86,1383.92 1946.06,1383.92 1948.26,1383.93 1950.46,1383.93 1952.66,1383.93 1954.85,1383.94 1957.05,1383.94 1959.25,1383.94 1961.45,1383.95 1963.65,1383.95 1965.85,1383.96 1968.04,1383.96 1970.24,1383.96 1972.44,1383.97 1974.64,1383.97 1976.84,1383.97 1979.04,1383.98 1981.23,1383.98 1983.43,1383.98 1985.63,1383.99 1987.83,1383.99 1990.03,1383.99 1992.23,1383.99 1994.42,1384 1996.62,1384 1998.82,1384 2001.02,1384.01 2003.22,1384.01 2005.42,1384.01 2007.61,1384.02 2009.81,1384.02 2012.01,1384.02 2014.21,1384.02 2016.41,1384.03 2018.61,1384.03 2020.8,1384.03 2023,1384.03 2025.2,1384.04 2027.4,1384.04 2029.6,1384.04 2031.8,1384.05 2033.99,1384.05 2036.19,1384.05 2038.39,1384.05 2040.59,1384.05 2042.79,1384.06 2044.99,1384.06 2047.18,1384.06 2049.38,1384.06 2051.58,1384.07 2053.78,1384.07 2055.98,1384.07 2058.18,1384.07 2060.37,1384.08 2062.57,1384.08 2064.77,1384.08 2066.97,1384.08 2069.17,1384.08 2071.37,1384.09 2073.56,1384.09 2075.76,1384.09 2077.96,1384.09 2080.16,1384.09 2082.36,1384.1 2084.56,1384.1 2086.75,1384.1 2088.95,1384.1 2091.15,1384.1 2093.35,1384.11 2095.55,1384.11 2097.75,1384.11 2099.94,1384.11 2102.14,1384.11 2104.34,1384.11 2106.54,1384.12 2108.74,1384.12 2110.94,1384.12 2113.14,1384.12 2115.33,1384.12 2117.53,1384.13 2119.73,1384.13 2121.93,1384.13 2124.13,1384.13 2126.33,1384.13 2128.52,1384.13 2130.72,1384.13 2132.92,1384.14 2135.12,1384.14 2137.32,1384.14 2139.52,1384.14 2141.71,1384.14 2143.91,1384.14 2146.11,1384.15 2148.31,1384.15 2150.51,1384.15 2152.71,1384.15 2154.9,1384.15 2157.1,1384.15 2159.3,1384.15 2161.5,1384.16 2163.7,1384.16 2165.9,1384.16 2168.09,1384.16 2170.29,1384.16 2172.49,1384.16 2174.69,1384.16 2176.89,1384.16 2179.09,1384.17 2181.28,1384.17 2183.48,1384.17 2185.68,1384.17 2187.88,1384.17 2190.08,1384.17 2192.28,1384.17 2194.47,1384.18 2196.67,1384.18 2198.87,1384.18 2201.07,1384.18 2203.27,1384.18 2205.47,1384.18 2207.66,1384.18 2209.86,1384.18 2212.06,1384.18 2214.26,1384.19 2216.46,1384.19 2218.66,1384.19 2220.85,1384.19 2223.05,1384.19 2225.25,1384.19 2227.45,1384.19 2229.65,1384.19 2231.85,1384.19 2234.04,1384.2 2236.24,1384.2 2238.44,1384.2 2240.64,1384.2 2242.84,1384.2 2245.04,1384.2 2247.23,1384.2 2249.43,1384.2 2251.63,1384.2 2253.83,1384.2 2256.03,1384.21 2258.23,1384.21 2260.42,1384.21 2262.62,1384.21 2264.82,1384.21 2267.02,1384.21 2269.22,1384.21 2271.42,1384.21 2273.62,1384.21 2275.81,1384.21 2278.01,1384.21 2280.21,1384.21 2282.41,1384.22 2284.61,1384.22 2286.81,1384.22 2289,1384.22 2291.2,1384.22 2293.4,1384.22 2295.6,1384.22 2297.8,1384.22 2300,1384.22 2302.19,1384.22 2304.39,1384.22 2306.59,1384.22 2308.79,1384.22 2310.99,1384.23 2313.19,1384.23 2315.38,1384.23 2317.58,1384.23 2319.78,1384.23 2321.98,1384.23 2324.18,1384.23 2326.38,1384.23 2328.57,1384.23 2330.77,1384.23 2332.97,1384.23 2335.17,1384.23 2337.37,1384.23 2339.57,1384.23 2341.76,1384.24 2343.96,1384.24 2346.16,1384.24 2348.36,1384.24 2350.56,1384.24 2352.76,1384.24 "/>
<polyline clip-path="url(#clip132)" style="stroke:#e26f46; stroke-linecap:round; stroke-linejoin:round; stroke-width:4; stroke-opacity:1; fill:none" points="156.598,169.014 158.797,172.77 160.995,176.539 163.193,180.32 165.392,184.112 167.59,187.916 169.788,191.731 171.987,195.556 174.185,199.391 176.383,203.236 178.582,207.091 180.78,210.954 182.979,214.826 185.177,218.707 187.375,222.595 189.574,226.491 191.772,230.393 193.97,234.303 196.169,238.219 198.367,242.141 200.565,246.069 202.764,250.003 204.962,253.942 207.16,257.885 209.359,261.833 211.557,265.786 213.755,269.742 215.954,273.701 218.152,277.665 220.351,281.631 222.549,285.6 224.747,289.571 226.946,293.544 229.144,297.52 231.342,301.497 233.541,305.475 235.739,309.455 237.937,313.435 240.136,317.416 242.334,321.397 244.532,325.379 246.731,329.36 248.929,333.342 251.128,337.322 253.326,341.302 255.524,345.281 257.723,349.258 259.921,353.234 262.119,357.209 264.318,361.181 266.516,365.152 268.714,369.12 270.913,373.085 273.111,377.048 275.309,381.008 277.508,384.966 279.706,388.919 281.905,392.87 284.103,396.816 286.301,400.759 288.5,404.698 290.698,408.633 292.896,412.563 295.095,416.489 297.293,420.41 299.491,424.326 301.69,428.238 303.888,432.144 306.086,436.045 308.285,439.94 310.483,443.83 312.682,447.714 314.88,451.592 317.078,455.465 319.277,459.331 321.475,463.191 323.673,467.044 325.872,470.891 328.07,474.731 330.268,478.565 332.467,482.391 334.665,486.211 336.863,490.024 339.062,493.829 341.26,497.627 343.458,501.417 345.657,505.2 347.855,508.976 350.054,512.743 352.252,516.503 354.45,520.255 356.649,523.998 358.847,527.734 361.045,531.461 363.244,535.18 365.442,538.891 367.64,542.593 369.839,546.286 372.037,549.971 374.235,553.647 376.434,557.314 378.632,560.972 380.831,564.621 383.029,568.261 385.227,571.892 387.426,575.513 389.624,579.126 391.822,582.729 394.021,586.322 396.219,589.906 398.417,593.48 400.616,597.045 402.814,600.6 405.012,604.145 407.211,607.681 409.409,611.206 411.608,614.722 413.806,618.227 416.004,621.723 418.203,625.208 420.401,628.683 422.599,632.149 424.798,635.604 426.996,639.048 429.194,642.483 431.393,645.907 433.591,649.321 435.789,652.724 437.988,656.117 440.186,659.499 442.385,662.871 444.583,666.233 446.781,669.583 448.98,672.924 451.178,676.253 453.376,679.572 455.575,682.881 457.773,686.178 459.971,689.465 462.17,692.741 464.368,696.007 466.566,699.261 468.765,702.505 470.963,705.738 473.162,708.96 475.36,712.171 477.558,715.371 479.757,718.56 481.955,721.738 484.153,724.905 486.352,728.062 488.55,731.207 490.748,734.341 492.947,737.464 495.145,740.577 497.343,743.678 499.542,746.768 501.74,749.847 503.938,752.915 506.137,755.971 508.335,759.017 510.534,762.052 512.732,765.075 514.93,768.087 517.129,771.088 519.327,774.078 521.525,777.057 523.724,780.025 525.922,782.982 528.12,785.927 530.319,788.862 532.517,791.785 534.715,794.697 536.914,797.598 539.112,800.487 541.311,803.366 543.509,806.234 545.707,809.09 547.906,811.936 550.104,814.77 552.302,817.593 554.501,820.405 556.699,823.207 558.897,825.997 561.096,828.776 563.294,831.544 565.492,834.301 567.691,837.047 569.889,839.782 572.088,842.507 574.286,845.22 576.484,847.922 578.683,850.613 580.881,853.294 583.079,855.963 585.278,858.622 587.476,861.27 589.674,863.907 591.873,866.533 594.071,869.148 596.269,871.753 598.468,874.346 600.666,876.929 602.865,879.501 605.063,882.063 607.261,884.613 609.46,887.153 611.658,889.683 613.856,892.201 616.055,894.709 618.253,897.206 620.451,899.693 622.65,902.169 624.848,904.635 627.046,907.089 629.245,909.534 631.443,911.968 633.641,914.391 635.84,916.804 638.038,919.206 640.237,921.598 642.435,923.98 644.633,926.351 646.832,928.712 649.03,931.062 651.228,933.402 653.427,935.732 655.625,938.051 657.823,940.36 660.022,942.659 662.22,944.948 664.418,947.227 666.617,949.495 668.815,951.753 671.014,954.001 673.212,956.239 675.41,958.467 677.609,960.685 679.807,962.893 682.005,965.092 684.204,967.28 686.402,969.458 688.6,971.626 690.799,973.785 692.997,975.934 695.195,978.072 697.394,980.202 699.592,982.321 701.791,984.431 703.989,986.531 706.187,988.621 708.386,990.702 710.584,992.774 712.782,994.835 714.981,996.888 717.179,998.93 719.377,1000.96 721.576,1002.99 723.774,1005 725.972,1007.01 728.171,1009 730.369,1010.99 732.568,1012.97 734.766,1014.93 736.964,1016.89 739.163,1018.84 741.361,1020.78 743.559,1022.71 745.758,1024.64 747.956,1026.55 750.154,1028.45 752.353,1030.35 754.551,1032.23 756.749,1034.11 758.948,1035.98 761.146,1037.84 763.344,1039.69 765.543,1041.53 767.741,1043.36 769.94,1045.19 772.138,1047 774.336,1048.81 776.535,1050.61 778.733,1052.39 780.931,1054.18 783.13,1055.95 785.328,1057.71 787.526,1059.47 789.725,1061.21 791.923,1062.95 794.121,1064.68 796.32,1066.4 798.518,1068.11 800.717,1069.82 802.915,1071.51 805.113,1073.2 807.312,1074.88 809.51,1076.55 811.708,1078.21 813.907,1079.87 816.105,1081.51 818.303,1083.15 820.502,1084.78 822.7,1086.4 824.898,1088.02 827.097,1089.62 829.295,1091.22 831.494,1092.81 833.692,1094.39 835.89,1095.97 838.089,1097.53 840.287,1099.09 842.485,1100.64 844.684,1102.19 846.882,1103.72 849.08,1105.25 851.279,1106.77 853.477,1108.29 855.675,1109.79 857.874,1111.29 860.072,1112.78 862.271,1114.26 864.469,1115.74 866.667,1117.2 868.866,1118.66 871.064,1120.12 873.262,1121.56 875.461,1123 877.659,1124.43 879.857,1125.86 882.056,1127.27 884.254,1128.68 886.452,1130.09 888.651,1131.48 890.849,1132.87 893.048,1134.25 895.246,1135.62 897.444,1136.99 899.643,1138.35 901.841,1139.71 904.039,1141.05 906.238,1142.39 908.436,1143.72 910.634,1145.05 912.833,1146.37 915.031,1147.68 917.229,1148.99 919.428,1150.29 921.626,1151.58 923.824,1152.86 926.023,1154.14 928.221,1155.41 930.42,1156.68 932.618,1157.94 934.816,1159.19 937.015,1160.44 939.213,1161.68 941.411,1162.91 943.61,1164.14 945.808,1165.36 948.006,1166.57 950.205,1167.78 952.403,1168.98 954.601,1170.18 956.8,1171.37 958.998,1172.55 961.197,1173.73 963.395,1174.9 965.593,1176.06 967.792,1177.22 969.99,1178.37 972.188,1179.52 974.387,1180.66 976.585,1181.8 978.783,1182.92 980.982,1184.05 983.18,1185.16 985.378,1186.27 987.577,1187.38 989.775,1188.48 991.974,1189.57 994.172,1190.66 996.37,1191.74 998.569,1192.82 1000.77,1193.89 1002.97,1194.95 1005.16,1196.01 1007.36,1197.06 1009.56,1198.11 1011.76,1199.15 1013.96,1200.19 1016.16,1201.22 1018.35,1202.25 1020.55,1203.27 1022.75,1204.28 1024.95,1205.29 1027.15,1206.3 1029.35,1207.3 1031.54,1208.29 1033.74,1209.28 1035.94,1210.26 1038.14,1211.24 1040.34,1212.21 1042.54,1213.18 1044.73,1214.14 1046.93,1215.1 1049.13,1216.05 1051.33,1217 1053.53,1217.94 1055.73,1218.88 1057.92,1219.81 1060.12,1220.74 1062.32,1221.66 1064.52,1222.57 1066.72,1223.49 1068.92,1224.39 1071.11,1225.3 1073.31,1226.19 1075.51,1227.09 1077.71,1227.97 1079.91,1228.86 1082.11,1229.73 1084.3,1230.61 1086.5,1231.48 1088.7,1232.34 1090.9,1233.2 1093.1,1234.06 1095.3,1234.91 1097.49,1235.75 1099.69,1236.59 1101.89,1237.43 1104.09,1238.26 1106.29,1239.09 1108.49,1239.91 1110.68,1240.73 1112.88,1241.54 1115.08,1242.35 1117.28,1243.16 1119.48,1243.96 1121.68,1244.76 1123.87,1245.55 1126.07,1246.34 1128.27,1247.12 1130.47,1247.9 1132.67,1248.67 1134.87,1249.44 1137.07,1250.21 1139.26,1250.97 1141.46,1251.73 1143.66,1252.49 1145.86,1253.24 1148.06,1253.98 1150.26,1254.72 1152.45,1255.46 1154.65,1256.19 1156.85,1256.92 1159.05,1257.65 1161.25,1258.37 1163.45,1259.09 1165.64,1259.8 1167.84,1260.51 1170.04,1261.22 1172.24,1261.92 1174.44,1262.62 1176.64,1263.31 1178.83,1264 1181.03,1264.69 1183.23,1265.37 1185.43,1266.05 1187.63,1266.73 1189.83,1267.4 1192.02,1268.07 1194.22,1268.73 1196.42,1269.39 1198.62,1270.05 1200.82,1270.7 1203.02,1271.35 1205.21,1272 1207.41,1272.64 1209.61,1273.28 1211.81,1273.92 1214.01,1274.55 1216.21,1275.18 1218.4,1275.8 1220.6,1276.42 1222.8,1277.04 1225,1277.66 1227.2,1278.27 1229.4,1278.88 1231.59,1279.48 1233.79,1280.08 1235.99,1280.68 1238.19,1281.28 1240.39,1281.87 1242.59,1282.45 1244.78,1283.04 1246.98,1283.62 1249.18,1284.2 1251.38,1284.77 1253.58,1285.35 1255.78,1285.92 1257.97,1286.48 1260.17,1287.04 1262.37,1287.6 1264.57,1288.16 1266.77,1288.71 1268.97,1289.26 1271.16,1289.81 1273.36,1290.35 1275.56,1290.89 1277.76,1291.43 1279.96,1291.97 1282.16,1292.5 1284.35,1293.03 1286.55,1293.55 1288.75,1294.07 1290.95,1294.59 1293.15,1295.11 1295.35,1295.63 1297.55,1296.14 1299.74,1296.65 1301.94,1297.15 1304.14,1297.65 1306.34,1298.15 1308.54,1298.65 1310.74,1299.15 1312.93,1299.64 1315.13,1300.13 1317.33,1300.61 1319.53,1301.1 1321.73,1301.58 1323.93,1302.05 1326.12,1302.53 1328.32,1303 1330.52,1303.47 1332.72,1303.94 1334.92,1304.4 1337.12,1304.87 1339.31,1305.32 1341.51,1305.78 1343.71,1306.24 1345.91,1306.69 1348.11,1307.14 1350.31,1307.58 1352.5,1308.03 1354.7,1308.47 1356.9,1308.91 1359.1,1309.34 1361.3,1309.78 1363.5,1310.21 1365.69,1310.64 1367.89,1311.07 1370.09,1311.49 1372.29,1311.91 1374.49,1312.33 1376.69,1312.75 1378.88,1313.16 1381.08,1313.58 1383.28,1313.99 1385.48,1314.39 1387.68,1314.8 1389.88,1315.2 1392.07,1315.6 1394.27,1316 1396.47,1316.4 1398.67,1316.79 1400.87,1317.18 1403.07,1317.57 1405.26,1317.96 1407.46,1318.35 1409.66,1318.73 1411.86,1319.11 1414.06,1319.49 1416.26,1319.87 1418.45,1320.24 1420.65,1320.61 1422.85,1320.98 1425.05,1321.35 1427.25,1321.72 1429.45,1322.08 1431.64,1322.44 1433.84,1322.8 1436.04,1323.16 1438.24,1323.52 1440.44,1323.87 1442.64,1324.22 1444.83,1324.57 1447.03,1324.92 1449.23,1325.27 1451.43,1325.61 1453.63,1325.95 1455.83,1326.29 1458.03,1326.63 1460.22,1326.96 1462.42,1327.3 1464.62,1327.63 1466.82,1327.96 1469.02,1328.29 1471.22,1328.62 1473.41,1328.94 1475.61,1329.26 1477.81,1329.58 1480.01,1329.9 1482.21,1330.22 1484.41,1330.53 1486.6,1330.85 1488.8,1331.16 1491,1331.47 1493.2,1331.78 1495.4,1332.08 1497.6,1332.39 1499.79,1332.69 1501.99,1332.99 1504.19,1333.29 1506.39,1333.59 1508.59,1333.89 1510.79,1334.18 1512.98,1334.47 1515.18,1334.77 1517.38,1335.05 1519.58,1335.34 1521.78,1335.63 1523.98,1335.91 1526.17,1336.2 1528.37,1336.48 1530.57,1336.76 1532.77,1337.03 1534.97,1337.31 1537.17,1337.59 1539.36,1337.86 1541.56,1338.13 1543.76,1338.4 1545.96,1338.67 1548.16,1338.94 1550.36,1339.2 1552.55,1339.46 1554.75,1339.73 1556.95,1339.99 1559.15,1340.25 1561.35,1340.51 1563.55,1340.76 1565.74,1341.02 1567.94,1341.27 1570.14,1341.52 1572.34,1341.77 1574.54,1342.02 1576.74,1342.27 1578.93,1342.52 1581.13,1342.76 1583.33,1343 1585.53,1343.25 1587.73,1343.49 1589.93,1343.73 1592.12,1343.96 1594.32,1344.2 1596.52,1344.43 1598.72,1344.67 1600.92,1344.9 1603.12,1345.13 1605.31,1345.36 1607.51,1345.59 1609.71,1345.82 1611.91,1346.04 1614.11,1346.27 1616.31,1346.49 1618.5,1346.71 1620.7,1346.93 1622.9,1347.15 1625.1,1347.37 1627.3,1347.59 1629.5,1347.8 1631.7,1348.02 1633.89,1348.23 1636.09,1348.44 1638.29,1348.65 1640.49,1348.86 1642.69,1349.07 1644.89,1349.28 1647.08,1349.48 1649.28,1349.69 1651.48,1349.89 1653.68,1350.09 1655.88,1350.29 1658.08,1350.49 1660.27,1350.69 1662.47,1350.89 1664.67,1351.09 1666.87,1351.28 1669.07,1351.47 1671.27,1351.67 1673.46,1351.86 1675.66,1352.05 1677.86,1352.24 1680.06,1352.43 1682.26,1352.62 1684.46,1352.8 1686.65,1352.99 1688.85,1353.17 1691.05,1353.36 1693.25,1353.54 1695.45,1353.72 1697.65,1353.9 1699.84,1354.08 1702.04,1354.25 1704.24,1354.43 1706.44,1354.61 1708.64,1354.78 1710.84,1354.96 1713.03,1355.13 1715.23,1355.3 1717.43,1355.47 1719.63,1355.64 1721.83,1355.81 1724.03,1355.98 1726.22,1356.14 1728.42,1356.31 1730.62,1356.47 1732.82,1356.64 1735.02,1356.8 1737.22,1356.96 1739.41,1357.12 1741.61,1357.28 1743.81,1357.44 1746.01,1357.6 1748.21,1357.76 1750.41,1357.92 1752.6,1358.07 1754.8,1358.23 1757,1358.38 1759.2,1358.53 1761.4,1358.68 1763.6,1358.83 1765.79,1358.99 1767.99,1359.13 1770.19,1359.28 1772.39,1359.43 1774.59,1359.58 1776.79,1359.72 1778.98,1359.87 1781.18,1360.01 1783.38,1360.15 1785.58,1360.3 1787.78,1360.44 1789.98,1360.58 1792.18,1360.72 1794.37,1360.86 1796.57,1361 1798.77,1361.13 1800.97,1361.27 1803.17,1361.41 1805.37,1361.54 1807.56,1361.68 1809.76,1361.81 1811.96,1361.94 1814.16,1362.07 1816.36,1362.21 1818.56,1362.34 1820.75,1362.47 1822.95,1362.59 1825.15,1362.72 1827.35,1362.85 1829.55,1362.98 1831.75,1363.1 1833.94,1363.23 1836.14,1363.35 1838.34,1363.48 1840.54,1363.6 1842.74,1363.72 1844.94,1363.84 1847.13,1363.96 1849.33,1364.08 1851.53,1364.2 1853.73,1364.32 1855.93,1364.44 1858.13,1364.56 1860.32,1364.67 1862.52,1364.79 1864.72,1364.91 1866.92,1365.02 1869.12,1365.13 1871.32,1365.25 1873.51,1365.36 1875.71,1365.47 1877.91,1365.58 1880.11,1365.69 1882.31,1365.8 1884.51,1365.91 1886.7,1366.02 1888.9,1366.13 1891.1,1366.24 1893.3,1366.34 1895.5,1366.45 1897.7,1366.56 1899.89,1366.66 1902.09,1366.77 1904.29,1366.87 1906.49,1366.97 1908.69,1367.08 1910.89,1367.18 1913.08,1367.28 1915.28,1367.38 1917.48,1367.48 1919.68,1367.58 1921.88,1367.68 1924.08,1367.78 1926.27,1367.88 1928.47,1367.97 1930.67,1368.07 1932.87,1368.17 1935.07,1368.26 1937.27,1368.36 1939.46,1368.45 1941.66,1368.54 1943.86,1368.64 1946.06,1368.73 1948.26,1368.82 1950.46,1368.91 1952.66,1369.01 1954.85,1369.1 1957.05,1369.19 1959.25,1369.28 1961.45,1369.37 1963.65,1369.45 1965.85,1369.54 1968.04,1369.63 1970.24,1369.72 1972.44,1369.8 1974.64,1369.89 1976.84,1369.97 1979.04,1370.06 1981.23,1370.14 1983.43,1370.23 1985.63,1370.31 1987.83,1370.39 1990.03,1370.48 1992.23,1370.56 1994.42,1370.64 1996.62,1370.72 1998.82,1370.8 2001.02,1370.88 2003.22,1370.96 2005.42,1371.04 2007.61,1371.12 2009.81,1371.2 2012.01,1371.27 2014.21,1371.35 2016.41,1371.43 2018.61,1371.5 2020.8,1371.58 2023,1371.66 2025.2,1371.73 2027.4,1371.81 2029.6,1371.88 2031.8,1371.95 2033.99,1372.03 2036.19,1372.1 2038.39,1372.17 2040.59,1372.24 2042.79,1372.31 2044.99,1372.39 2047.18,1372.46 2049.38,1372.53 2051.58,1372.6 2053.78,1372.67 2055.98,1372.73 2058.18,1372.8 2060.37,1372.87 2062.57,1372.94 2064.77,1373.01 2066.97,1373.07 2069.17,1373.14 2071.37,1373.21 2073.56,1373.27 2075.76,1373.34 2077.96,1373.4 2080.16,1373.47 2082.36,1373.53 2084.56,1373.6 2086.75,1373.66 2088.95,1373.72 2091.15,1373.78 2093.35,1373.85 2095.55,1373.91 2097.75,1373.97 2099.94,1374.03 2102.14,1374.09 2104.34,1374.15 2106.54,1374.21 2108.74,1374.27 2110.94,1374.33 2113.14,1374.39 2115.33,1374.45 2117.53,1374.51 2119.73,1374.57 2121.93,1374.63 2124.13,1374.68 2126.33,1374.74 2128.52,1374.8 2130.72,1374.85 2132.92,1374.91 2135.12,1374.96 2137.32,1375.02 2139.52,1375.08 2141.71,1375.13 2143.91,1375.18 2146.11,1375.24 2148.31,1375.29 2150.51,1375.35 2152.71,1375.4 2154.9,1375.45 2157.1,1375.5 2159.3,1375.56 2161.5,1375.61 2163.7,1375.66 2165.9,1375.71 2168.09,1375.76 2170.29,1375.81 2172.49,1375.86 2174.69,1375.91 2176.89,1375.96 2179.09,1376.01 2181.28,1376.06 2183.48,1376.11 2185.68,1376.16 2187.88,1376.21 2190.08,1376.26 2192.28,1376.3 2194.47,1376.35 2196.67,1376.4 2198.87,1376.45 2201.07,1376.49 2203.27,1376.54 2205.47,1376.59 2207.66,1376.63 2209.86,1376.68 2212.06,1376.72 2214.26,1376.77 2216.46,1376.81 2218.66,1376.86 2220.85,1376.9 2223.05,1376.94 2225.25,1376.99 2227.45,1377.03 2229.65,1377.08 2231.85,1377.12 2234.04,1377.16 2236.24,1377.2 2238.44,1377.25 2240.64,1377.29 2242.84,1377.33 2245.04,1377.37 2247.23,1377.41 2249.43,1377.45 2251.63,1377.49 2253.83,1377.53 2256.03,1377.57 2258.23,1377.61 2260.42,1377.65 2262.62,1377.69 2264.82,1377.73 2267.02,1377.77 2269.22,1377.81 2271.42,1377.85 2273.62,1377.89 2275.81,1377.93 2278.01,1377.96 2280.21,1378 2282.41,1378.04 2284.61,1378.08 2286.81,1378.11 2289,1378.15 2291.2,1378.19 2293.4,1378.22 2295.6,1378.26 2297.8,1378.3 2300,1378.33 2302.19,1378.37 2304.39,1378.4 2306.59,1378.44 2308.79,1378.47 2310.99,1378.51 2313.19,1378.54 2315.38,1378.58 2317.58,1378.61 2319.78,1378.64 2321.98,1378.68 2324.18,1378.71 2326.38,1378.74 2328.57,1378.78 2330.77,1378.81 2332.97,1378.84 2335.17,1378.87 2337.37,1378.91 2339.57,1378.94 2341.76,1378.97 2343.96,1379 2346.16,1379.03 2348.36,1379.07 2350.56,1379.1 2352.76,1379.13 "/>
<path clip-path="url(#clip130)" d="M1800.54 248.629 L2279.55 248.629 L2279.55 93.1086 L1800.54 93.1086  Z" fill="#ffffff" fill-rule="evenodd" fill-opacity="1"/>
<polyline clip-path="url(#clip130)" style="stroke:#000000; stroke-linecap:round; stroke-linejoin:round; stroke-width:4; stroke-opacity:1; fill:none" points="1800.54,248.629 2279.55,248.629 2279.55,93.1086 1800.54,93.1086 1800.54,248.629 "/>
<polyline clip-path="url(#clip130)" style="stroke:#009af9; stroke-linecap:round; stroke-linejoin:round; stroke-width:4; stroke-opacity:1; fill:none" points="1824.94,144.949 1971.35,144.949 "/>
<path clip-path="url(#clip130)" d="M1995.75 136.303 L2000.27 136.303 L2008.37 158.062 L2016.47 136.303 L2020.98 136.303 L2011.26 162.229 L2005.47 162.229 L1995.75 136.303 Z" fill="#000000" fill-rule="nonzero" fill-opacity="1" /><path clip-path="url(#clip130)" d="M2028.28 158.293 L2035.91 158.293 L2035.91 131.928 L2027.6 133.595 L2027.6 129.335 L2035.87 127.669 L2040.54 127.669 L2040.54 158.293 L2048.18 158.293 L2048.18 162.229 L2028.28 162.229 L2028.28 158.293 Z" fill="#000000" fill-rule="nonzero" fill-opacity="1" /><path clip-path="url(#clip130)" d="M2066.28 145.585 L2066.28 152.807 L2074.41 152.807 L2074.41 155.006 L2066.28 155.006 L2066.28 162.229 L2063.85 162.229 L2063.85 155.006 L2055.73 155.006 L2055.73 152.807 L2063.85 152.807 L2063.85 145.585 L2066.28 145.585 Z" fill="#000000" fill-rule="nonzero" fill-opacity="1" /><path clip-path="url(#clip130)" d="M2098.58 137.067 L2098.58 141.094 Q2096.77 140.169 2094.83 139.706 Q2092.88 139.243 2090.8 139.243 Q2087.63 139.243 2086.03 140.215 Q2084.46 141.187 2084.46 143.131 Q2084.46 144.613 2085.59 145.469 Q2086.72 146.303 2090.15 147.067 L2091.61 147.391 Q2096.15 148.363 2098.04 150.145 Q2099.96 151.905 2099.96 155.076 Q2099.96 158.687 2097.09 160.793 Q2094.25 162.9 2089.25 162.9 Q2087.16 162.9 2084.9 162.483 Q2082.65 162.09 2080.15 161.28 L2080.15 156.881 Q2082.51 158.108 2084.8 158.733 Q2087.09 159.335 2089.34 159.335 Q2092.35 159.335 2093.97 158.317 Q2095.59 157.275 2095.59 155.4 Q2095.59 153.664 2094.41 152.738 Q2093.25 151.812 2089.29 150.956 L2087.81 150.608 Q2083.85 149.775 2082.09 148.062 Q2080.34 146.326 2080.34 143.317 Q2080.34 139.659 2082.93 137.669 Q2085.52 135.678 2090.29 135.678 Q2092.65 135.678 2094.73 136.025 Q2096.82 136.372 2098.58 137.067 Z" fill="#000000" fill-rule="nonzero" fill-opacity="1" /><path clip-path="url(#clip130)" d="M2110.96 128.942 L2110.96 136.303 L2119.73 136.303 L2119.73 139.613 L2110.96 139.613 L2110.96 153.687 Q2110.96 156.858 2111.82 157.761 Q2112.7 158.664 2115.36 158.664 L2119.73 158.664 L2119.73 162.229 L2115.36 162.229 Q2110.43 162.229 2108.55 160.4 Q2106.68 158.548 2106.68 153.687 L2106.68 139.613 L2103.55 139.613 L2103.55 136.303 L2106.68 136.303 L2106.68 128.942 L2110.96 128.942 Z" fill="#000000" fill-rule="nonzero" fill-opacity="1" /><path clip-path="url(#clip130)" d="M2135.38 139.289 Q2131.96 139.289 2129.96 141.974 Q2127.97 144.636 2127.97 149.289 Q2127.97 153.942 2129.94 156.627 Q2131.93 159.289 2135.38 159.289 Q2138.78 159.289 2140.77 156.604 Q2142.77 153.918 2142.77 149.289 Q2142.77 144.682 2140.77 141.997 Q2138.78 139.289 2135.38 139.289 M2135.38 135.678 Q2140.94 135.678 2144.11 139.289 Q2147.28 142.9 2147.28 149.289 Q2147.28 155.655 2144.11 159.289 Q2140.94 162.9 2135.38 162.9 Q2129.8 162.9 2126.63 159.289 Q2123.48 155.655 2123.48 149.289 Q2123.48 142.9 2126.63 139.289 Q2129.8 135.678 2135.38 135.678 Z" fill="#000000" fill-rule="nonzero" fill-opacity="1" /><path clip-path="url(#clip130)" d="M2169.36 140.284 Q2168.64 139.868 2167.79 139.682 Q2166.95 139.474 2165.94 139.474 Q2162.33 139.474 2160.38 141.835 Q2158.46 144.173 2158.46 148.571 L2158.46 162.229 L2154.18 162.229 L2154.18 136.303 L2158.46 136.303 L2158.46 140.331 Q2159.8 137.969 2161.95 136.835 Q2164.11 135.678 2167.19 135.678 Q2167.63 135.678 2168.16 135.747 Q2168.69 135.794 2169.34 135.909 L2169.36 140.284 Z" fill="#000000" fill-rule="nonzero" fill-opacity="1" /><path clip-path="url(#clip130)" d="M2185.61 149.196 Q2180.45 149.196 2178.46 150.377 Q2176.47 151.557 2176.47 154.405 Q2176.47 156.673 2177.95 158.016 Q2179.45 159.335 2182.02 159.335 Q2185.57 159.335 2187.7 156.835 Q2189.85 154.312 2189.85 150.145 L2189.85 149.196 L2185.61 149.196 M2194.11 147.437 L2194.11 162.229 L2189.85 162.229 L2189.85 158.293 Q2188.39 160.655 2186.21 161.789 Q2184.04 162.9 2180.89 162.9 Q2176.91 162.9 2174.55 160.678 Q2172.21 158.432 2172.21 154.682 Q2172.21 150.307 2175.13 148.085 Q2178.07 145.863 2183.88 145.863 L2189.85 145.863 L2189.85 145.446 Q2189.85 142.507 2187.9 140.909 Q2185.98 139.289 2182.49 139.289 Q2180.27 139.289 2178.16 139.821 Q2176.05 140.354 2174.11 141.419 L2174.11 137.483 Q2176.45 136.581 2178.64 136.141 Q2180.84 135.678 2182.93 135.678 Q2188.55 135.678 2191.33 138.594 Q2194.11 141.511 2194.11 147.437 Z" fill="#000000" fill-rule="nonzero" fill-opacity="1" /><path clip-path="url(#clip130)" d="M2219.94 148.965 Q2219.94 144.335 2218.02 141.789 Q2216.12 139.243 2212.67 139.243 Q2209.25 139.243 2207.33 141.789 Q2205.43 144.335 2205.43 148.965 Q2205.43 153.571 2207.33 156.118 Q2209.25 158.664 2212.67 158.664 Q2216.12 158.664 2218.02 156.118 Q2219.94 153.571 2219.94 148.965 M2224.2 159.011 Q2224.2 165.631 2221.26 168.849 Q2218.32 172.09 2212.26 172.09 Q2210.01 172.09 2208.02 171.742 Q2206.03 171.418 2204.15 170.724 L2204.15 166.58 Q2206.03 167.599 2207.86 168.085 Q2209.69 168.571 2211.58 168.571 Q2215.77 168.571 2217.86 166.372 Q2219.94 164.196 2219.94 159.775 L2219.94 157.668 Q2218.62 159.96 2216.56 161.094 Q2214.5 162.229 2211.63 162.229 Q2206.86 162.229 2203.95 158.594 Q2201.03 154.96 2201.03 148.965 Q2201.03 142.946 2203.95 139.312 Q2206.86 135.678 2211.63 135.678 Q2214.5 135.678 2216.56 136.812 Q2218.62 137.946 2219.94 140.238 L2219.94 136.303 L2224.2 136.303 L2224.2 159.011 Z" fill="#000000" fill-rule="nonzero" fill-opacity="1" /><path clip-path="url(#clip130)" d="M2255.15 148.201 L2255.15 150.284 L2235.57 150.284 Q2235.84 154.682 2238.2 156.997 Q2240.59 159.289 2244.82 159.289 Q2247.28 159.289 2249.57 158.687 Q2251.89 158.085 2254.15 156.881 L2254.15 160.909 Q2251.86 161.881 2249.45 162.391 Q2247.05 162.9 2244.57 162.9 Q2238.37 162.9 2234.73 159.289 Q2231.12 155.678 2231.12 149.52 Q2231.12 143.155 2234.55 139.428 Q2238 135.678 2243.83 135.678 Q2249.06 135.678 2252.09 139.057 Q2255.15 142.414 2255.15 148.201 M2250.89 146.951 Q2250.84 143.456 2248.92 141.372 Q2247.02 139.289 2243.88 139.289 Q2240.31 139.289 2238.16 141.303 Q2236.03 143.317 2235.7 146.974 L2250.89 146.951 Z" fill="#000000" fill-rule="nonzero" fill-opacity="1" /><polyline clip-path="url(#clip130)" style="stroke:#e26f46; stroke-linecap:round; stroke-linejoin:round; stroke-width:4; stroke-opacity:1; fill:none" points="1824.94,196.789 1971.35,196.789 "/>
<path clip-path="url(#clip130)" d="M1995.75 188.143 L2000.27 188.143 L2008.37 209.902 L2016.47 188.143 L2020.98 188.143 L2011.26 214.069 L2005.47 214.069 L1995.75 188.143 Z" fill="#000000" fill-rule="nonzero" fill-opacity="1" /><path clip-path="url(#clip130)" d="M2027.51 179.509 L2045.87 179.509 L2045.87 183.444 L2031.79 183.444 L2031.79 191.916 Q2032.81 191.569 2033.83 191.407 Q2034.85 191.222 2035.87 191.222 Q2041.65 191.222 2045.03 194.393 Q2048.41 197.564 2048.41 202.981 Q2048.41 208.559 2044.94 211.661 Q2041.47 214.74 2035.15 214.74 Q2032.97 214.74 2030.71 214.37 Q2028.46 213.999 2026.05 213.258 L2026.05 208.559 Q2028.14 209.694 2030.36 210.249 Q2032.58 210.805 2035.06 210.805 Q2039.06 210.805 2041.4 208.698 Q2043.74 206.592 2043.74 202.981 Q2043.74 199.37 2041.4 197.263 Q2039.06 195.157 2035.06 195.157 Q2033.18 195.157 2031.31 195.573 Q2029.46 195.99 2027.51 196.87 L2027.51 179.509 Z" fill="#000000" fill-rule="nonzero" fill-opacity="1" /><path clip-path="url(#clip130)" d="M2066.28 197.425 L2066.28 204.647 L2074.41 204.647 L2074.41 206.846 L2066.28 206.846 L2066.28 214.069 L2063.85 214.069 L2063.85 206.846 L2055.73 206.846 L2055.73 204.647 L2063.85 204.647 L2063.85 197.425 L2066.28 197.425 Z" fill="#000000" fill-rule="nonzero" fill-opacity="1" /><path clip-path="url(#clip130)" d="M2098.58 188.907 L2098.58 192.934 Q2096.77 192.009 2094.83 191.546 Q2092.88 191.083 2090.8 191.083 Q2087.63 191.083 2086.03 192.055 Q2084.46 193.027 2084.46 194.971 Q2084.46 196.453 2085.59 197.309 Q2086.72 198.143 2090.15 198.907 L2091.61 199.231 Q2096.15 200.203 2098.04 201.985 Q2099.96 203.745 2099.96 206.916 Q2099.96 210.527 2097.09 212.633 Q2094.25 214.74 2089.25 214.74 Q2087.16 214.74 2084.9 214.323 Q2082.65 213.93 2080.15 213.12 L2080.15 208.721 Q2082.51 209.948 2084.8 210.573 Q2087.09 211.175 2089.34 211.175 Q2092.35 211.175 2093.97 210.157 Q2095.59 209.115 2095.59 207.24 Q2095.59 205.504 2094.41 204.578 Q2093.25 203.652 2089.29 202.796 L2087.81 202.448 Q2083.85 201.615 2082.09 199.902 Q2080.34 198.166 2080.34 195.157 Q2080.34 191.499 2082.93 189.509 Q2085.52 187.518 2090.29 187.518 Q2092.65 187.518 2094.73 187.865 Q2096.82 188.212 2098.58 188.907 Z" fill="#000000" fill-rule="nonzero" fill-opacity="1" /><path clip-path="url(#clip130)" d="M2110.96 180.782 L2110.96 188.143 L2119.73 188.143 L2119.73 191.453 L2110.96 191.453 L2110.96 205.527 Q2110.96 208.698 2111.82 209.601 Q2112.7 210.504 2115.36 210.504 L2119.73 210.504 L2119.73 214.069 L2115.36 214.069 Q2110.43 214.069 2108.55 212.24 Q2106.68 210.388 2106.68 205.527 L2106.68 191.453 L2103.55 191.453 L2103.55 188.143 L2106.68 188.143 L2106.68 180.782 L2110.96 180.782 Z" fill="#000000" fill-rule="nonzero" fill-opacity="1" /><path clip-path="url(#clip130)" d="M2135.38 191.129 Q2131.96 191.129 2129.96 193.814 Q2127.97 196.476 2127.97 201.129 Q2127.97 205.782 2129.94 208.467 Q2131.93 211.129 2135.38 211.129 Q2138.78 211.129 2140.77 208.444 Q2142.77 205.758 2142.77 201.129 Q2142.77 196.522 2140.77 193.837 Q2138.78 191.129 2135.38 191.129 M2135.38 187.518 Q2140.94 187.518 2144.11 191.129 Q2147.28 194.74 2147.28 201.129 Q2147.28 207.495 2144.11 211.129 Q2140.94 214.74 2135.38 214.74 Q2129.8 214.74 2126.63 211.129 Q2123.48 207.495 2123.48 201.129 Q2123.48 194.74 2126.63 191.129 Q2129.8 187.518 2135.38 187.518 Z" fill="#000000" fill-rule="nonzero" fill-opacity="1" /><path clip-path="url(#clip130)" d="M2169.36 192.124 Q2168.64 191.708 2167.79 191.522 Q2166.95 191.314 2165.94 191.314 Q2162.33 191.314 2160.38 193.675 Q2158.46 196.013 2158.46 200.411 L2158.46 214.069 L2154.18 214.069 L2154.18 188.143 L2158.46 188.143 L2158.46 192.171 Q2159.8 189.809 2161.95 188.675 Q2164.11 187.518 2167.19 187.518 Q2167.63 187.518 2168.16 187.587 Q2168.69 187.634 2169.34 187.749 L2169.36 192.124 Z" fill="#000000" fill-rule="nonzero" fill-opacity="1" /><path clip-path="url(#clip130)" d="M2185.61 201.036 Q2180.45 201.036 2178.46 202.217 Q2176.47 203.397 2176.47 206.245 Q2176.47 208.513 2177.95 209.856 Q2179.45 211.175 2182.02 211.175 Q2185.57 211.175 2187.7 208.675 Q2189.85 206.152 2189.85 201.985 L2189.85 201.036 L2185.61 201.036 M2194.11 199.277 L2194.11 214.069 L2189.85 214.069 L2189.85 210.133 Q2188.39 212.495 2186.21 213.629 Q2184.04 214.74 2180.89 214.74 Q2176.91 214.74 2174.55 212.518 Q2172.21 210.272 2172.21 206.522 Q2172.21 202.147 2175.13 199.925 Q2178.07 197.703 2183.88 197.703 L2189.85 197.703 L2189.85 197.286 Q2189.85 194.347 2187.9 192.749 Q2185.98 191.129 2182.49 191.129 Q2180.27 191.129 2178.16 191.661 Q2176.05 192.194 2174.11 193.259 L2174.11 189.323 Q2176.45 188.421 2178.64 187.981 Q2180.84 187.518 2182.93 187.518 Q2188.55 187.518 2191.33 190.434 Q2194.11 193.351 2194.11 199.277 Z" fill="#000000" fill-rule="nonzero" fill-opacity="1" /><path clip-path="url(#clip130)" d="M2219.94 200.805 Q2219.94 196.175 2218.02 193.629 Q2216.12 191.083 2212.67 191.083 Q2209.25 191.083 2207.33 193.629 Q2205.43 196.175 2205.43 200.805 Q2205.43 205.411 2207.33 207.958 Q2209.25 210.504 2212.67 210.504 Q2216.12 210.504 2218.02 207.958 Q2219.94 205.411 2219.94 200.805 M2224.2 210.851 Q2224.2 217.471 2221.26 220.689 Q2218.32 223.93 2212.26 223.93 Q2210.01 223.93 2208.02 223.582 Q2206.03 223.258 2204.15 222.564 L2204.15 218.42 Q2206.03 219.439 2207.86 219.925 Q2209.69 220.411 2211.58 220.411 Q2215.77 220.411 2217.86 218.212 Q2219.94 216.036 2219.94 211.615 L2219.94 209.508 Q2218.62 211.8 2216.56 212.934 Q2214.5 214.069 2211.63 214.069 Q2206.86 214.069 2203.95 210.434 Q2201.03 206.8 2201.03 200.805 Q2201.03 194.786 2203.95 191.152 Q2206.86 187.518 2211.63 187.518 Q2214.5 187.518 2216.56 188.652 Q2218.62 189.786 2219.94 192.078 L2219.94 188.143 L2224.2 188.143 L2224.2 210.851 Z" fill="#000000" fill-rule="nonzero" fill-opacity="1" /><path clip-path="url(#clip130)" d="M2255.15 200.041 L2255.15 202.124 L2235.57 202.124 Q2235.84 206.522 2238.2 208.837 Q2240.59 211.129 2244.82 211.129 Q2247.28 211.129 2249.57 210.527 Q2251.89 209.925 2254.15 208.721 L2254.15 212.749 Q2251.86 213.721 2249.45 214.231 Q2247.05 214.74 2244.57 214.74 Q2238.37 214.74 2234.73 211.129 Q2231.12 207.518 2231.12 201.36 Q2231.12 194.995 2234.55 191.268 Q2238 187.518 2243.83 187.518 Q2249.06 187.518 2252.09 190.897 Q2255.15 194.254 2255.15 200.041 M2250.89 198.791 Q2250.84 195.296 2248.92 193.212 Q2247.02 191.129 2243.88 191.129 Q2240.31 191.129 2238.16 193.143 Q2236.03 195.157 2235.7 198.814 L2250.89 198.791 Z" fill="#000000" fill-rule="nonzero" fill-opacity="1" /></svg>
