<?xml version="1.0" encoding="utf-8"?>
<svg xmlns="http://www.w3.org/2000/svg" xmlns:xlink="http://www.w3.org/1999/xlink" width="600" height="400" viewBox="0 0 2400 1600">
<defs>
  <clipPath id="clip980">
    <rect x="0" y="0" width="2400" height="1600"/>
  </clipPath>
</defs>
<path clip-path="url(#clip980)" d="M0 1600 L2400 1600 L2400 0 L0 0  Z" fill="#ffffff" fill-rule="evenodd" fill-opacity="1"/>
<defs>
  <clipPath id="clip981">
    <rect x="480" y="0" width="1681" height="1600"/>
  </clipPath>
</defs>
<path clip-path="url(#clip980)" d="M156.598 1423.18 L2352.76 1423.18 L2352.76 47.2441 L156.598 47.2441  Z" fill="#ffffff" fill-rule="evenodd" fill-opacity="1"/>
<defs>
  <clipPath id="clip982">
    <rect x="156" y="47" width="2197" height="1377"/>
  </clipPath>
</defs>
<polyline clip-path="url(#clip982)" style="stroke:#000000; stroke-linecap:round; stroke-linejoin:round; stroke-width:2; stroke-opacity:0.1; fill:none" points="156.598,1423.18 156.598,47.2441 "/>
<polyline clip-path="url(#clip982)" style="stroke:#000000; stroke-linecap:round; stroke-linejoin:round; stroke-width:2; stroke-opacity:0.1; fill:none" points="705.638,1423.18 705.638,47.2441 "/>
<polyline clip-path="url(#clip982)" style="stroke:#000000; stroke-linecap:round; stroke-linejoin:round; stroke-width:2; stroke-opacity:0.1; fill:none" points="1254.68,1423.18 1254.68,47.2441 "/>
<polyline clip-path="url(#clip982)" style="stroke:#000000; stroke-linecap:round; stroke-linejoin:round; stroke-width:2; stroke-opacity:0.1; fill:none" points="1803.72,1423.18 1803.72,47.2441 "/>
<polyline clip-path="url(#clip982)" style="stroke:#000000; stroke-linecap:round; stroke-linejoin:round; stroke-width:2; stroke-opacity:0.1; fill:none" points="2352.76,1423.18 2352.76,47.2441 "/>
<polyline clip-path="url(#clip982)" style="stroke:#000000; stroke-linecap:round; stroke-linejoin:round; stroke-width:2; stroke-opacity:0.1; fill:none" points="156.598,1192.05 2352.76,1192.05 "/>
<polyline clip-path="url(#clip982)" style="stroke:#000000; stroke-linecap:round; stroke-linejoin:round; stroke-width:2; stroke-opacity:0.1; fill:none" points="156.598,917.784 2352.76,917.784 "/>
<polyline clip-path="url(#clip982)" style="stroke:#000000; stroke-linecap:round; stroke-linejoin:round; stroke-width:2; stroke-opacity:0.1; fill:none" points="156.598,643.52 2352.76,643.52 "/>
<polyline clip-path="url(#clip982)" style="stroke:#000000; stroke-linecap:round; stroke-linejoin:round; stroke-width:2; stroke-opacity:0.1; fill:none" points="156.598,369.256 2352.76,369.256 "/>
<polyline clip-path="url(#clip982)" style="stroke:#000000; stroke-linecap:round; stroke-linejoin:round; stroke-width:2; stroke-opacity:0.1; fill:none" points="156.598,94.9927 2352.76,94.9927 "/>
<polyline clip-path="url(#clip980)" style="stroke:#000000; stroke-linecap:round; stroke-linejoin:round; stroke-width:4; stroke-opacity:1; fill:none" points="156.598,1423.18 2352.76,1423.18 "/>
<polyline clip-path="url(#clip980)" style="stroke:#000000; stroke-linecap:round; stroke-linejoin:round; stroke-width:4; stroke-opacity:1; fill:none" points="156.598,1423.18 156.598,1404.28 "/>
<polyline clip-path="url(#clip980)" style="stroke:#000000; stroke-linecap:round; stroke-linejoin:round; stroke-width:4; stroke-opacity:1; fill:none" points="705.638,1423.18 705.638,1404.28 "/>
<polyline clip-path="url(#clip980)" style="stroke:#000000; stroke-linecap:round; stroke-linejoin:round; stroke-width:4; stroke-opacity:1; fill:none" points="1254.68,1423.18 1254.68,1404.28 "/>
<polyline clip-path="url(#clip980)" style="stroke:#000000; stroke-linecap:round; stroke-linejoin:round; stroke-width:4; stroke-opacity:1; fill:none" points="1803.72,1423.18 1803.72,1404.28 "/>
<polyline clip-path="url(#clip980)" style="stroke:#000000; stroke-linecap:round; stroke-linejoin:round; stroke-width:4; stroke-opacity:1; fill:none" points="2352.76,1423.18 2352.76,1404.28 "/>
<path clip-path="url(#clip980)" d="M133.983 1454.1 Q130.372 1454.1 128.543 1457.66 Q126.737 1461.2 126.737 1468.33 Q126.737 1475.44 128.543 1479.01 Q130.372 1482.55 133.983 1482.55 Q137.617 1482.55 139.422 1479.01 Q141.251 1475.44 141.251 1468.33 Q141.251 1461.2 139.422 1457.66 Q137.617 1454.1 133.983 1454.1 M133.983 1450.39 Q139.793 1450.39 142.848 1455 Q145.927 1459.58 145.927 1468.33 Q145.927 1477.06 142.848 1481.67 Q139.793 1486.25 133.983 1486.25 Q128.172 1486.25 125.094 1481.67 Q122.038 1477.06 122.038 1468.33 Q122.038 1459.58 125.094 1455 Q128.172 1450.39 133.983 1450.39 Z" fill="#000000" fill-rule="nonzero" fill-opacity="1" /><path clip-path="url(#clip980)" d="M154.145 1479.7 L159.029 1479.7 L159.029 1485.58 L154.145 1485.58 L154.145 1479.7 Z" fill="#000000" fill-rule="nonzero" fill-opacity="1" /><path clip-path="url(#clip980)" d="M179.214 1454.1 Q175.603 1454.1 173.774 1457.66 Q171.969 1461.2 171.969 1468.33 Q171.969 1475.44 173.774 1479.01 Q175.603 1482.55 179.214 1482.55 Q182.848 1482.55 184.654 1479.01 Q186.482 1475.44 186.482 1468.33 Q186.482 1461.2 184.654 1457.66 Q182.848 1454.1 179.214 1454.1 M179.214 1450.39 Q185.024 1450.39 188.08 1455 Q191.158 1459.58 191.158 1468.33 Q191.158 1477.06 188.08 1481.67 Q185.024 1486.25 179.214 1486.25 Q173.404 1486.25 170.325 1481.67 Q167.269 1477.06 167.269 1468.33 Q167.269 1459.58 170.325 1455 Q173.404 1450.39 179.214 1450.39 Z" fill="#000000" fill-rule="nonzero" fill-opacity="1" /><path clip-path="url(#clip980)" d="M683.52 1454.1 Q679.909 1454.1 678.08 1457.66 Q676.274 1461.2 676.274 1468.33 Q676.274 1475.44 678.08 1479.01 Q679.909 1482.55 683.52 1482.55 Q687.154 1482.55 688.96 1479.01 Q690.788 1475.44 690.788 1468.33 Q690.788 1461.2 688.96 1457.66 Q687.154 1454.1 683.52 1454.1 M683.52 1450.39 Q689.33 1450.39 692.385 1455 Q695.464 1459.58 695.464 1468.33 Q695.464 1477.06 692.385 1481.67 Q689.33 1486.25 683.52 1486.25 Q677.71 1486.25 674.631 1481.67 Q671.575 1477.06 671.575 1468.33 Q671.575 1459.58 674.631 1455 Q677.71 1450.39 683.52 1450.39 Z" fill="#000000" fill-rule="nonzero" fill-opacity="1" /><path clip-path="url(#clip980)" d="M703.682 1479.7 L708.566 1479.7 L708.566 1485.58 L703.682 1485.58 L703.682 1479.7 Z" fill="#000000" fill-rule="nonzero" fill-opacity="1" /><path clip-path="url(#clip980)" d="M718.797 1451.02 L737.154 1451.02 L737.154 1454.96 L723.08 1454.96 L723.08 1463.43 Q724.098 1463.08 725.117 1462.92 Q726.135 1462.73 727.154 1462.73 Q732.941 1462.73 736.32 1465.9 Q739.7 1469.08 739.7 1474.49 Q739.7 1480.07 736.228 1483.17 Q732.756 1486.25 726.436 1486.25 Q724.26 1486.25 721.992 1485.88 Q719.746 1485.51 717.339 1484.77 L717.339 1480.07 Q719.422 1481.2 721.645 1481.76 Q723.867 1482.32 726.344 1482.32 Q730.348 1482.32 732.686 1480.21 Q735.024 1478.1 735.024 1474.49 Q735.024 1470.88 732.686 1468.77 Q730.348 1466.67 726.344 1466.67 Q724.469 1466.67 722.594 1467.08 Q720.742 1467.5 718.797 1468.38 L718.797 1451.02 Z" fill="#000000" fill-rule="nonzero" fill-opacity="1" /><path clip-path="url(#clip980)" d="M1221.83 1481.64 L1229.47 1481.64 L1229.47 1455.28 L1221.16 1456.95 L1221.16 1452.69 L1229.42 1451.02 L1234.1 1451.02 L1234.1 1481.64 L1241.74 1481.64 L1241.74 1485.58 L1221.83 1485.58 L1221.83 1481.64 Z" fill="#000000" fill-rule="nonzero" fill-opacity="1" /><path clip-path="url(#clip980)" d="M1251.18 1479.7 L1256.07 1479.7 L1256.07 1485.58 L1251.18 1485.58 L1251.18 1479.7 Z" fill="#000000" fill-rule="nonzero" fill-opacity="1" /><path clip-path="url(#clip980)" d="M1276.25 1454.1 Q1272.64 1454.1 1270.81 1457.66 Q1269.01 1461.2 1269.01 1468.33 Q1269.01 1475.44 1270.81 1479.01 Q1272.64 1482.55 1276.25 1482.55 Q1279.89 1482.55 1281.69 1479.01 Q1283.52 1475.44 1283.52 1468.33 Q1283.52 1461.2 1281.69 1457.66 Q1279.89 1454.1 1276.25 1454.1 M1276.25 1450.39 Q1282.06 1450.39 1285.12 1455 Q1288.2 1459.58 1288.2 1468.33 Q1288.2 1477.06 1285.12 1481.67 Q1282.06 1486.25 1276.25 1486.25 Q1270.44 1486.25 1267.36 1481.67 Q1264.31 1477.06 1264.31 1468.33 Q1264.31 1459.58 1267.36 1455 Q1270.44 1450.39 1276.25 1450.39 Z" fill="#000000" fill-rule="nonzero" fill-opacity="1" /><path clip-path="url(#clip980)" d="M1771.37 1481.64 L1779.01 1481.64 L1779.01 1455.28 L1770.7 1456.95 L1770.7 1452.69 L1778.96 1451.02 L1783.64 1451.02 L1783.64 1481.64 L1791.27 1481.64 L1791.27 1485.58 L1771.37 1485.58 L1771.37 1481.64 Z" fill="#000000" fill-rule="nonzero" fill-opacity="1" /><path clip-path="url(#clip980)" d="M1800.72 1479.7 L1805.6 1479.7 L1805.6 1485.58 L1800.72 1485.58 L1800.72 1479.7 Z" fill="#000000" fill-rule="nonzero" fill-opacity="1" /><path clip-path="url(#clip980)" d="M1815.83 1451.02 L1834.19 1451.02 L1834.19 1454.96 L1820.12 1454.96 L1820.12 1463.43 Q1821.14 1463.08 1822.15 1462.92 Q1823.17 1462.73 1824.19 1462.73 Q1829.98 1462.73 1833.36 1465.9 Q1836.74 1469.08 1836.74 1474.49 Q1836.74 1480.07 1833.26 1483.17 Q1829.79 1486.25 1823.47 1486.25 Q1821.3 1486.25 1819.03 1485.88 Q1816.78 1485.51 1814.38 1484.77 L1814.38 1480.07 Q1816.46 1481.2 1818.68 1481.76 Q1820.9 1482.32 1823.38 1482.32 Q1827.39 1482.32 1829.72 1480.21 Q1832.06 1478.1 1832.06 1474.49 Q1832.06 1470.88 1829.72 1468.77 Q1827.39 1466.67 1823.38 1466.67 Q1821.51 1466.67 1819.63 1467.08 Q1817.78 1467.5 1815.83 1468.38 L1815.83 1451.02 Z" fill="#000000" fill-rule="nonzero" fill-opacity="1" /><path clip-path="url(#clip980)" d="M2323.99 1481.64 L2340.31 1481.64 L2340.31 1485.58 L2318.37 1485.58 L2318.37 1481.64 Q2321.03 1478.89 2325.61 1474.26 Q2330.22 1469.61 2331.4 1468.27 Q2333.65 1465.74 2334.53 1464.01 Q2335.43 1462.25 2335.43 1460.56 Q2335.43 1457.8 2333.49 1456.07 Q2331.56 1454.33 2328.46 1454.33 Q2326.26 1454.33 2323.81 1455.09 Q2321.38 1455.86 2318.6 1457.41 L2318.6 1452.69 Q2321.43 1451.55 2323.88 1450.97 Q2326.33 1450.39 2328.37 1450.39 Q2333.74 1450.39 2336.93 1453.08 Q2340.13 1455.77 2340.13 1460.26 Q2340.13 1462.39 2339.32 1464.31 Q2338.53 1466.2 2336.42 1468.8 Q2335.85 1469.47 2332.74 1472.69 Q2329.64 1475.88 2323.99 1481.64 Z" fill="#000000" fill-rule="nonzero" fill-opacity="1" /><path clip-path="url(#clip980)" d="M2350.13 1479.7 L2355.01 1479.7 L2355.01 1485.58 L2350.13 1485.58 L2350.13 1479.7 Z" fill="#000000" fill-rule="nonzero" fill-opacity="1" /><path clip-path="url(#clip980)" d="M2375.2 1454.1 Q2371.59 1454.1 2369.76 1457.66 Q2367.95 1461.2 2367.95 1468.33 Q2367.95 1475.44 2369.76 1479.01 Q2371.59 1482.55 2375.2 1482.55 Q2378.83 1482.55 2380.64 1479.01 Q2382.47 1475.44 2382.47 1468.33 Q2382.47 1461.2 2380.64 1457.66 Q2378.83 1454.1 2375.2 1454.1 M2375.2 1450.39 Q2381.01 1450.39 2384.06 1455 Q2387.14 1459.58 2387.14 1468.33 Q2387.14 1477.06 2384.06 1481.67 Q2381.01 1486.25 2375.2 1486.25 Q2369.39 1486.25 2366.31 1481.67 Q2363.25 1477.06 2363.25 1468.33 Q2363.25 1459.58 2366.31 1455 Q2369.39 1450.39 2375.2 1450.39 Z" fill="#000000" fill-rule="nonzero" fill-opacity="1" /><path clip-path="url(#clip980)" d="M1253.74 1522.27 L1253.74 1532.4 L1265.8 1532.4 L1265.8 1536.95 L1253.74 1536.95 L1253.74 1556.3 Q1253.74 1560.66 1254.92 1561.9 Q1256.13 1563.14 1259.79 1563.14 L1265.8 1563.14 L1265.8 1568.04 L1259.79 1568.04 Q1253.01 1568.04 1250.43 1565.53 Q1247.85 1562.98 1247.85 1556.3 L1247.85 1536.95 L1243.55 1536.95 L1243.55 1532.4 L1247.85 1532.4 L1247.85 1522.27 L1253.74 1522.27 Z" fill="#000000" fill-rule="nonzero" fill-opacity="1" /><polyline clip-path="url(#clip980)" style="stroke:#000000; stroke-linecap:round; stroke-linejoin:round; stroke-width:4; stroke-opacity:1; fill:none" points="156.598,1423.18 156.598,47.2441 "/>
<polyline clip-path="url(#clip980)" style="stroke:#000000; stroke-linecap:round; stroke-linejoin:round; stroke-width:4; stroke-opacity:1; fill:none" points="156.598,1192.05 175.496,1192.05 "/>
<polyline clip-path="url(#clip980)" style="stroke:#000000; stroke-linecap:round; stroke-linejoin:round; stroke-width:4; stroke-opacity:1; fill:none" points="156.598,917.784 175.496,917.784 "/>
<polyline clip-path="url(#clip980)" style="stroke:#000000; stroke-linecap:round; stroke-linejoin:round; stroke-width:4; stroke-opacity:1; fill:none" points="156.598,643.52 175.496,643.52 "/>
<polyline clip-path="url(#clip980)" style="stroke:#000000; stroke-linecap:round; stroke-linejoin:round; stroke-width:4; stroke-opacity:1; fill:none" points="156.598,369.256 175.496,369.256 "/>
<polyline clip-path="url(#clip980)" style="stroke:#000000; stroke-linecap:round; stroke-linejoin:round; stroke-width:4; stroke-opacity:1; fill:none" points="156.598,94.9927 175.496,94.9927 "/>
<path clip-path="url(#clip980)" d="M65.0198 1177.85 Q61.4087 1177.85 59.58 1181.41 Q57.7745 1184.95 57.7745 1192.08 Q57.7745 1199.19 59.58 1202.75 Q61.4087 1206.3 65.0198 1206.3 Q68.6541 1206.3 70.4596 1202.75 Q72.2883 1199.19 72.2883 1192.08 Q72.2883 1184.95 70.4596 1181.41 Q68.6541 1177.85 65.0198 1177.85 M65.0198 1174.14 Q70.83 1174.14 73.8855 1178.75 Q76.9642 1183.33 76.9642 1192.08 Q76.9642 1200.81 73.8855 1205.42 Q70.83 1210 65.0198 1210 Q59.2097 1210 56.131 1205.42 Q53.0754 1200.81 53.0754 1192.08 Q53.0754 1183.33 56.131 1178.75 Q59.2097 1174.14 65.0198 1174.14 Z" fill="#000000" fill-rule="nonzero" fill-opacity="1" /><path clip-path="url(#clip980)" d="M85.1818 1203.45 L90.066 1203.45 L90.066 1209.33 L85.1818 1209.33 L85.1818 1203.45 Z" fill="#000000" fill-rule="nonzero" fill-opacity="1" /><path clip-path="url(#clip980)" d="M104.279 1205.39 L120.598 1205.39 L120.598 1209.33 L98.6539 1209.33 L98.6539 1205.39 Q101.316 1202.64 105.899 1198.01 Q110.506 1193.36 111.686 1192.01 Q113.932 1189.49 114.811 1187.75 Q115.714 1185.99 115.714 1184.3 Q115.714 1181.55 113.77 1179.81 Q111.848 1178.08 108.746 1178.08 Q106.547 1178.08 104.094 1178.84 Q101.663 1179.61 98.8854 1181.16 L98.8854 1176.43 Q101.709 1175.3 104.163 1174.72 Q106.617 1174.14 108.654 1174.14 Q114.024 1174.14 117.219 1176.83 Q120.413 1179.51 120.413 1184 Q120.413 1186.13 119.603 1188.05 Q118.816 1189.95 116.709 1192.55 Q116.131 1193.22 113.029 1196.43 Q109.927 1199.63 104.279 1205.39 Z" fill="#000000" fill-rule="nonzero" fill-opacity="1" /><path clip-path="url(#clip980)" d="M62.9365 903.583 Q59.3254 903.583 57.4967 907.148 Q55.6912 910.689 55.6912 917.819 Q55.6912 924.925 57.4967 928.49 Q59.3254 932.032 62.9365 932.032 Q66.5707 932.032 68.3763 928.49 Q70.205 924.925 70.205 917.819 Q70.205 910.689 68.3763 907.148 Q66.5707 903.583 62.9365 903.583 M62.9365 899.879 Q68.7467 899.879 71.8022 904.486 Q74.8809 909.069 74.8809 917.819 Q74.8809 926.546 71.8022 931.152 Q68.7467 935.735 62.9365 935.735 Q57.1264 935.735 54.0477 931.152 Q50.9921 926.546 50.9921 917.819 Q50.9921 909.069 54.0477 904.486 Q57.1264 899.879 62.9365 899.879 Z" fill="#000000" fill-rule="nonzero" fill-opacity="1" /><path clip-path="url(#clip980)" d="M83.0984 929.184 L87.9827 929.184 L87.9827 935.064 L83.0984 935.064 L83.0984 929.184 Z" fill="#000000" fill-rule="nonzero" fill-opacity="1" /><path clip-path="url(#clip980)" d="M111.015 904.578 L99.2095 923.027 L111.015 923.027 L111.015 904.578 M109.788 900.504 L115.668 900.504 L115.668 923.027 L120.598 923.027 L120.598 926.916 L115.668 926.916 L115.668 935.064 L111.015 935.064 L111.015 926.916 L95.4132 926.916 L95.4132 922.402 L109.788 900.504 Z" fill="#000000" fill-rule="nonzero" fill-opacity="1" /><path clip-path="url(#clip980)" d="M63.2606 629.319 Q59.6495 629.319 57.8208 632.884 Q56.0152 636.425 56.0152 643.555 Q56.0152 650.661 57.8208 654.226 Q59.6495 657.768 63.2606 657.768 Q66.8948 657.768 68.7004 654.226 Q70.5291 650.661 70.5291 643.555 Q70.5291 636.425 68.7004 632.884 Q66.8948 629.319 63.2606 629.319 M63.2606 625.615 Q69.0707 625.615 72.1263 630.222 Q75.205 634.805 75.205 643.555 Q75.205 652.282 72.1263 656.888 Q69.0707 661.472 63.2606 661.472 Q57.4504 661.472 54.3717 656.888 Q51.3162 652.282 51.3162 643.555 Q51.3162 634.805 54.3717 630.222 Q57.4504 625.615 63.2606 625.615 Z" fill="#000000" fill-rule="nonzero" fill-opacity="1" /><path clip-path="url(#clip980)" d="M83.4225 654.921 L88.3067 654.921 L88.3067 660.8 L83.4225 660.8 L83.4225 654.921 Z" fill="#000000" fill-rule="nonzero" fill-opacity="1" /><path clip-path="url(#clip980)" d="M109.071 641.657 Q105.922 641.657 104.071 643.81 Q102.242 645.962 102.242 649.712 Q102.242 653.439 104.071 655.615 Q105.922 657.768 109.071 657.768 Q112.219 657.768 114.047 655.615 Q115.899 653.439 115.899 649.712 Q115.899 645.962 114.047 643.81 Q112.219 641.657 109.071 641.657 M118.353 627.004 L118.353 631.263 Q116.594 630.43 114.788 629.99 Q113.006 629.55 111.246 629.55 Q106.617 629.55 104.163 632.675 Q101.733 635.8 101.385 642.12 Q102.751 640.106 104.811 639.041 Q106.871 637.953 109.348 637.953 Q114.557 637.953 117.566 641.124 Q120.598 644.273 120.598 649.712 Q120.598 655.036 117.45 658.254 Q114.302 661.472 109.071 661.472 Q103.075 661.472 99.9039 656.888 Q96.7326 652.282 96.7326 643.555 Q96.7326 635.361 100.621 630.5 Q104.51 625.615 111.061 625.615 Q112.82 625.615 114.603 625.962 Q116.408 626.31 118.353 627.004 Z" fill="#000000" fill-rule="nonzero" fill-opacity="1" /><path clip-path="url(#clip980)" d="M63.5152 355.055 Q59.9041 355.055 58.0754 358.62 Q56.2699 362.162 56.2699 369.291 Q56.2699 376.398 58.0754 379.962 Q59.9041 383.504 63.5152 383.504 Q67.1494 383.504 68.955 379.962 Q70.7837 376.398 70.7837 369.291 Q70.7837 362.162 68.955 358.62 Q67.1494 355.055 63.5152 355.055 M63.5152 351.351 Q69.3254 351.351 72.3809 355.958 Q75.4596 360.541 75.4596 369.291 Q75.4596 378.018 72.3809 382.624 Q69.3254 387.208 63.5152 387.208 Q57.7051 387.208 54.6264 382.624 Q51.5708 378.018 51.5708 369.291 Q51.5708 360.541 54.6264 355.958 Q57.7051 351.351 63.5152 351.351 Z" fill="#000000" fill-rule="nonzero" fill-opacity="1" /><path clip-path="url(#clip980)" d="M83.6771 380.657 L88.5614 380.657 L88.5614 386.536 L83.6771 386.536 L83.6771 380.657 Z" fill="#000000" fill-rule="nonzero" fill-opacity="1" /><path clip-path="url(#clip980)" d="M108.746 370.125 Q105.413 370.125 103.492 371.907 Q101.594 373.689 101.594 376.814 Q101.594 379.939 103.492 381.722 Q105.413 383.504 108.746 383.504 Q112.08 383.504 114.001 381.722 Q115.922 379.916 115.922 376.814 Q115.922 373.689 114.001 371.907 Q112.103 370.125 108.746 370.125 M104.071 368.134 Q101.061 367.393 99.3715 365.333 Q97.7048 363.273 97.7048 360.31 Q97.7048 356.166 100.645 353.759 Q103.608 351.351 108.746 351.351 Q113.908 351.351 116.848 353.759 Q119.788 356.166 119.788 360.31 Q119.788 363.273 118.098 365.333 Q116.432 367.393 113.445 368.134 Q116.825 368.921 118.7 371.212 Q120.598 373.504 120.598 376.814 Q120.598 381.837 117.52 384.523 Q114.464 387.208 108.746 387.208 Q103.029 387.208 99.9502 384.523 Q96.8947 381.837 96.8947 376.814 Q96.8947 373.504 98.7928 371.212 Q100.691 368.921 104.071 368.134 M102.358 360.75 Q102.358 363.435 104.024 364.939 Q105.714 366.444 108.746 366.444 Q111.756 366.444 113.445 364.939 Q115.158 363.435 115.158 360.75 Q115.158 358.064 113.445 356.56 Q111.756 355.055 108.746 355.055 Q105.714 355.055 104.024 356.56 Q102.358 358.064 102.358 360.75 Z" fill="#000000" fill-rule="nonzero" fill-opacity="1" /><path clip-path="url(#clip980)" d="M54.2328 108.338 L61.8717 108.338 L61.8717 81.9719 L53.5616 83.6386 L53.5616 79.3794 L61.8254 77.7127 L66.5013 77.7127 L66.5013 108.338 L74.1402 108.338 L74.1402 112.273 L54.2328 112.273 L54.2328 108.338 Z" fill="#000000" fill-rule="nonzero" fill-opacity="1" /><path clip-path="url(#clip980)" d="M83.5845 106.393 L88.4688 106.393 L88.4688 112.273 L83.5845 112.273 L83.5845 106.393 Z" fill="#000000" fill-rule="nonzero" fill-opacity="1" /><path clip-path="url(#clip980)" d="M108.654 80.7914 Q105.043 80.7914 103.214 84.3562 Q101.409 87.8978 101.409 95.0274 Q101.409 102.134 103.214 105.699 Q105.043 109.24 108.654 109.24 Q112.288 109.24 114.094 105.699 Q115.922 102.134 115.922 95.0274 Q115.922 87.8978 114.094 84.3562 Q112.288 80.7914 108.654 80.7914 M108.654 77.0877 Q114.464 77.0877 117.52 81.6942 Q120.598 86.2775 120.598 95.0274 Q120.598 103.754 117.52 108.361 Q114.464 112.944 108.654 112.944 Q102.844 112.944 99.765 108.361 Q96.7095 103.754 96.7095 95.0274 Q96.7095 86.2775 99.765 81.6942 Q102.844 77.0877 108.654 77.0877 Z" fill="#000000" fill-rule="nonzero" fill-opacity="1" /><polyline clip-path="url(#clip982)" style="stroke:#009af9; stroke-linecap:round; stroke-linejoin:round; stroke-width:4; stroke-opacity:1; fill:none" points="156.598,86.1857 158.797,96.1637 160.995,106.042 163.193,115.823 165.392,125.505 167.59,135.092 169.788,144.583 171.987,153.979 174.185,163.282 176.383,172.492 178.582,181.61 180.78,190.638 182.979,199.576 185.177,208.424 187.375,217.185 189.574,225.858 191.772,234.445 193.97,242.946 196.169,251.363 198.367,259.696 200.565,267.945 202.764,276.113 204.962,284.199 207.16,292.205 209.359,300.131 211.557,307.979 213.755,315.747 215.954,323.439 218.152,331.054 220.351,338.593 222.549,346.057 224.747,353.447 226.946,360.763 229.144,368.006 231.342,375.177 233.541,382.277 235.739,389.306 237.937,396.265 240.136,403.154 242.334,409.975 244.532,416.728 246.731,423.414 248.929,430.033 251.128,436.586 253.326,443.074 255.524,449.498 257.723,455.857 259.921,462.153 262.119,468.386 264.318,474.558 266.516,480.668 268.714,486.717 270.913,492.705 273.111,498.635 275.309,504.505 277.508,510.316 279.706,516.07 281.905,521.766 284.103,527.406 286.301,532.989 288.5,538.517 290.698,543.99 292.896,549.408 295.095,554.772 297.293,560.083 299.491,565.341 301.69,570.547 303.888,575.7 306.086,580.803 308.285,585.854 310.483,590.856 312.682,595.807 314.88,600.709 317.078,605.562 319.277,610.367 321.475,615.124 323.673,619.834 325.872,624.497 328.07,629.113 330.268,633.684 332.467,638.208 334.665,642.688 336.863,647.123 339.062,651.515 341.26,655.862 343.458,660.166 345.657,664.427 347.855,668.646 350.054,672.823 352.252,676.958 354.45,681.052 356.649,685.105 358.847,689.118 361.045,693.091 363.244,697.024 365.442,700.918 367.64,704.774 369.839,708.591 372.037,712.369 374.235,716.111 376.434,719.815 378.632,723.482 380.831,727.112 383.029,730.706 385.227,734.265 387.426,737.788 389.624,741.276 391.822,744.729 394.021,748.148 396.219,751.532 398.417,754.883 400.616,758.201 402.814,761.485 405.012,764.737 407.211,767.957 409.409,771.144 411.608,774.3 413.806,777.424 416.004,780.517 418.203,783.58 420.401,786.612 422.599,789.613 424.798,792.585 426.996,795.527 429.194,798.44 431.393,801.324 433.591,804.18 435.789,807.006 437.988,809.805 440.186,812.576 442.385,815.319 444.583,818.035 446.781,820.724 448.98,823.386 451.178,826.022 453.376,828.631 455.575,831.215 457.773,833.772 459.971,836.305 462.17,838.811 464.368,841.293 466.566,843.75 468.765,846.183 470.963,848.592 473.162,850.976 475.36,853.337 477.558,855.674 479.757,857.987 481.955,860.278 484.153,862.546 486.352,864.791 488.55,867.014 490.748,869.215 492.947,871.394 495.145,873.551 497.343,875.687 499.542,877.801 501.74,879.894 503.938,881.967 506.137,884.019 508.335,886.05 510.534,888.061 512.732,890.052 514.93,892.024 517.129,893.975 519.327,895.908 521.525,897.821 523.724,899.715 525.922,901.59 528.12,903.446 530.319,905.284 532.517,907.104 534.715,908.905 536.914,910.689 539.112,912.455 541.311,914.204 543.509,915.935 545.707,917.648 547.906,919.345 550.104,921.025 552.302,922.688 554.501,924.335 556.699,925.965 558.897,927.579 561.096,929.177 563.294,930.759 565.492,932.325 567.691,933.875 569.889,935.41 572.088,936.93 574.286,938.435 576.484,939.924 578.683,941.399 580.881,942.859 583.079,944.305 585.278,945.736 587.476,947.153 589.674,948.555 591.873,949.944 594.071,951.319 596.269,952.68 598.468,954.028 600.666,955.362 602.865,956.683 605.063,957.99 607.261,959.285 609.46,960.567 611.658,961.836 613.856,963.092 616.055,964.336 618.253,965.567 620.451,966.786 622.65,967.993 624.848,969.188 627.046,970.371 629.245,971.543 631.443,972.702 633.641,973.851 635.84,974.987 638.038,976.113 640.237,977.227 642.435,978.33 644.633,979.422 646.832,980.503 649.03,981.574 651.228,982.634 653.427,983.683 655.625,984.722 657.823,985.751 660.022,986.769 662.22,987.777 664.418,988.776 666.617,989.764 668.815,990.742 671.014,991.711 673.212,992.67 675.41,993.62 677.609,994.56 679.807,995.491 682.005,996.412 684.204,997.324 686.402,998.227 688.6,999.122 690.799,1000.01 692.997,1000.88 695.195,1001.75 697.394,1002.61 699.592,1003.46 701.791,1004.3 703.989,1005.14 706.187,1005.96 708.386,1006.78 710.584,1007.59 712.782,1008.39 714.981,1009.18 717.179,1009.97 719.377,1010.74 721.576,1011.51 723.774,1012.27 725.972,1013.03 728.171,1013.77 730.369,1014.51 732.568,1015.24 734.766,1015.97 736.964,1016.69 739.163,1017.4 741.361,1018.1 743.559,1018.79 745.758,1019.48 747.956,1020.17 750.154,1020.84 752.353,1021.51 754.551,1022.17 756.749,1022.83 758.948,1023.48 761.146,1024.12 763.344,1024.75 765.543,1025.38 767.741,1026.01 769.94,1026.62 772.138,1027.24 774.336,1027.84 776.535,1028.44 778.733,1029.03 780.931,1029.62 783.13,1030.2 785.328,1030.78 787.526,1031.35 789.725,1031.91 791.923,1032.47 794.121,1033.02 796.32,1033.57 798.518,1034.11 800.717,1034.65 802.915,1035.18 805.113,1035.71 807.312,1036.23 809.51,1036.74 811.708,1037.25 813.907,1037.76 816.105,1038.26 818.303,1038.76 820.502,1039.25 822.7,1039.73 824.898,1040.21 827.097,1040.69 829.295,1041.16 831.494,1041.63 833.692,1042.09 835.89,1042.55 838.089,1043 840.287,1043.45 842.485,1043.89 844.684,1044.33 846.882,1044.77 849.08,1045.2 851.279,1045.62 853.477,1046.04 855.675,1046.46 857.874,1046.88 860.072,1047.29 862.271,1047.69 864.469,1048.09 866.667,1048.49 868.866,1048.88 871.064,1049.27 873.262,1049.66 875.461,1050.04 877.659,1050.42 879.857,1050.79 882.056,1051.16 884.254,1051.53 886.452,1051.89 888.651,1052.25 890.849,1052.61 893.048,1052.96 895.246,1053.31 897.444,1053.65 899.643,1053.99 901.841,1054.33 904.039,1054.67 906.238,1055 908.436,1055.33 910.634,1055.65 912.833,1055.97 915.031,1056.29 917.229,1056.61 919.428,1056.92 921.626,1057.23 923.824,1057.54 926.023,1057.84 928.221,1058.14 930.42,1058.44 932.618,1058.73 934.816,1059.02 937.015,1059.31 939.213,1059.6 941.411,1059.88 943.61,1060.16 945.808,1060.44 948.006,1060.71 950.205,1060.98 952.403,1061.25 954.601,1061.52 956.8,1061.78 958.998,1062.04 961.197,1062.3 963.395,1062.56 965.593,1062.81 967.792,1063.06 969.99,1063.31 972.188,1063.56 974.387,1063.8 976.585,1064.04 978.783,1064.28 980.982,1064.52 983.18,1064.75 985.378,1064.98 987.577,1065.21 989.775,1065.44 991.974,1065.66 994.172,1065.88 996.37,1066.11 998.569,1066.32 1000.77,1066.54 1002.97,1066.75 1005.16,1066.96 1007.36,1067.17 1009.56,1067.38 1011.76,1067.59 1013.96,1067.79 1016.16,1067.99 1018.35,1068.19 1020.55,1068.39 1022.75,1068.58 1024.95,1068.78 1027.15,1068.97 1029.35,1069.16 1031.54,1069.34 1033.74,1069.53 1035.94,1069.71 1038.14,1069.9 1040.34,1070.08 1042.54,1070.25 1044.73,1070.43 1046.93,1070.61 1049.13,1070.78 1051.33,1070.95 1053.53,1071.12 1055.73,1071.29 1057.92,1071.45 1060.12,1071.62 1062.32,1071.78 1064.52,1071.94 1066.72,1072.1 1068.92,1072.26 1071.11,1072.42 1073.31,1072.57 1075.51,1072.72 1077.71,1072.88 1079.91,1073.03 1082.11,1073.18 1084.3,1073.32 1086.5,1073.47 1088.7,1073.61 1090.9,1073.76 1093.1,1073.9 1095.3,1074.04 1097.49,1074.18 1099.69,1074.31 1101.89,1074.45 1104.09,1074.58 1106.29,1074.72 1108.49,1074.85 1110.68,1074.98 1112.88,1075.11 1115.08,1075.24 1117.28,1075.36 1119.48,1075.49 1121.68,1075.61 1123.87,1075.74 1126.07,1075.86 1128.27,1075.98 1130.47,1076.1 1132.67,1076.22 1134.87,1076.34 1137.07,1076.45 1139.26,1076.57 1141.46,1076.68 1143.66,1076.79 1145.86,1076.91 1148.06,1077.02 1150.26,1077.13 1152.45,1077.23 1154.65,1077.34 1156.85,1077.45 1159.05,1077.55 1161.25,1077.66 1163.45,1077.76 1165.64,1077.86 1167.84,1077.96 1170.04,1078.06 1172.24,1078.16 1174.44,1078.26 1176.64,1078.36 1178.83,1078.45 1181.03,1078.55 1183.23,1078.64 1185.43,1078.74 1187.63,1078.83 1189.83,1078.92 1192.02,1079.01 1194.22,1079.1 1196.42,1079.19 1198.62,1079.28 1200.82,1079.36 1203.02,1079.45 1205.21,1079.53 1207.41,1079.62 1209.61,1079.7 1211.81,1079.78 1214.01,1079.87 1216.21,1079.95 1218.4,1080.03 1220.6,1080.11 1222.8,1080.19 1225,1080.26 1227.2,1080.34 1229.4,1080.42 1231.59,1080.49 1233.79,1080.57 1235.99,1080.64 1238.19,1080.71 1240.39,1080.79 1242.59,1080.86 1244.78,1080.93 1246.98,1081 1249.18,1081.07 1251.38,1081.14 1253.58,1081.2 1255.78,1081.27 1257.97,1081.34 1260.17,1081.41 1262.37,1081.47 1264.57,1081.54 1266.77,1081.6 1268.97,1081.66 1271.16,1081.73 1273.36,1081.79 1275.56,1081.85 1277.76,1081.91 1279.96,1081.97 1282.16,1082.03 1284.35,1082.09 1286.55,1082.15 1288.75,1082.21 1290.95,1082.26 1293.15,1082.32 1295.35,1082.38 1297.55,1082.43 1299.74,1082.49 1301.94,1082.54 1304.14,1082.6 1306.34,1082.65 1308.54,1082.7 1310.74,1082.75 1312.93,1082.81 1315.13,1082.86 1317.33,1082.91 1319.53,1082.96 1321.73,1083.01 1323.93,1083.06 1326.12,1083.11 1328.32,1083.16 1330.52,1083.2 1332.72,1083.25 1334.92,1083.3 1337.12,1083.35 1339.31,1083.39 1341.51,1083.44 1343.71,1083.48 1345.91,1083.53 1348.11,1083.57 1350.31,1083.62 1352.5,1083.66 1354.7,1083.7 1356.9,1083.75 1359.1,1083.79 1361.3,1083.83 1363.5,1083.87 1365.69,1083.91 1367.89,1083.95 1370.09,1083.99 1372.29,1084.03 1374.49,1084.07 1376.69,1084.11 1378.88,1084.15 1381.08,1084.19 1383.28,1084.23 1385.48,1084.27 1387.68,1084.3 1389.88,1084.34 1392.07,1084.38 1394.27,1084.41 1396.47,1084.45 1398.67,1084.48 1400.87,1084.52 1403.07,1084.55 1405.26,1084.59 1407.46,1084.62 1409.66,1084.65 1411.86,1084.69 1414.06,1084.72 1416.26,1084.75 1418.45,1084.79 1420.65,1084.82 1422.85,1084.85 1425.05,1084.88 1427.25,1084.91 1429.45,1084.94 1431.64,1084.97 1433.84,1085 1436.04,1085.03 1438.24,1085.06 1440.44,1085.09 1442.64,1085.12 1444.83,1085.15 1447.03,1085.18 1449.23,1085.21 1451.43,1085.23 1453.63,1085.26 1455.83,1085.29 1458.03,1085.32 1460.22,1085.34 1462.42,1085.37 1464.62,1085.39 1466.82,1085.42 1469.02,1085.45 1471.22,1085.47 1473.41,1085.5 1475.61,1085.52 1477.81,1085.54 1480.01,1085.57 1482.21,1085.59 1484.41,1085.62 1486.6,1085.64 1488.8,1085.66 1491,1085.69 1493.2,1085.71 1495.4,1085.73 1497.6,1085.75 1499.79,1085.78 1501.99,1085.8 1504.19,1085.82 1506.39,1085.84 1508.59,1085.86 1510.79,1085.88 1512.98,1085.9 1515.18,1085.93 1517.38,1085.95 1519.58,1085.97 1521.78,1085.99 1523.98,1086.01 1526.17,1086.02 1528.37,1086.04 1530.57,1086.06 1532.77,1086.08 1534.97,1086.1 1537.17,1086.12 1539.36,1086.14 1541.56,1086.16 1543.76,1086.17 1545.96,1086.19 1548.16,1086.21 1550.36,1086.23 1552.55,1086.24 1554.75,1086.26 1556.95,1086.28 1559.15,1086.3 1561.35,1086.31 1563.55,1086.33 1565.74,1086.35 1567.94,1086.36 1570.14,1086.38 1572.34,1086.39 1574.54,1086.41 1576.74,1086.43 1578.93,1086.44 1581.13,1086.46 1583.33,1086.47 1585.53,1086.49 1587.73,1086.5 1589.93,1086.52 1592.12,1086.53 1594.32,1086.55 1596.52,1086.56 1598.72,1086.57 1600.92,1086.59 1603.12,1086.6 1605.31,1086.62 1607.51,1086.63 1609.71,1086.64 1611.91,1086.66 1614.11,1086.67 1616.31,1086.68 1618.5,1086.7 1620.7,1086.71 1622.9,1086.72 1625.1,1086.74 1627.3,1086.75 1629.5,1086.76 1631.7,1086.77 1633.89,1086.78 1636.09,1086.8 1638.29,1086.81 1640.49,1086.82 1642.69,1086.83 1644.89,1086.84 1647.08,1086.86 1649.28,1086.87 1651.48,1086.88 1653.68,1086.89 1655.88,1086.9 1658.08,1086.91 1660.27,1086.92 1662.47,1086.93 1664.67,1086.94 1666.87,1086.95 1669.07,1086.96 1671.27,1086.97 1673.46,1086.98 1675.66,1086.99 1677.86,1087 1680.06,1087.01 1682.26,1087.02 1684.46,1087.03 1686.65,1087.04 1688.85,1087.05 1691.05,1087.06 1693.25,1087.07 1695.45,1087.08 1697.65,1087.09 1699.84,1087.1 1702.04,1087.11 1704.24,1087.12 1706.44,1087.13 1708.64,1087.13 1710.84,1087.14 1713.03,1087.15 1715.23,1087.16 1717.43,1087.17 1719.63,1087.18 1721.83,1087.18 1724.03,1087.19 1726.22,1087.2 1728.42,1087.21 1730.62,1087.22 1732.82,1087.22 1735.02,1087.23 1737.22,1087.24 1739.41,1087.25 1741.61,1087.25 1743.81,1087.26 1746.01,1087.27 1748.21,1087.27 1750.41,1087.28 1752.6,1087.29 1754.8,1087.3 1757,1087.3 1759.2,1087.31 1761.4,1087.32 1763.6,1087.32 1765.79,1087.33 1767.99,1087.34 1770.19,1087.34 1772.39,1087.35 1774.59,1087.35 1776.79,1087.36 1778.98,1087.37 1781.18,1087.37 1783.38,1087.38 1785.58,1087.38 1787.78,1087.39 1789.98,1087.4 1792.18,1087.4 1794.37,1087.41 1796.57,1087.41 1798.77,1087.42 1800.97,1087.42 1803.17,1087.43 1805.37,1087.44 1807.56,1087.44 1809.76,1087.45 1811.96,1087.45 1814.16,1087.46 1816.36,1087.46 1818.56,1087.47 1820.75,1087.47 1822.95,1087.48 1825.15,1087.48 1827.35,1087.49 1829.55,1087.49 1831.75,1087.5 1833.94,1087.5 1836.14,1087.51 1838.34,1087.51 1840.54,1087.52 1842.74,1087.52 1844.94,1087.52 1847.13,1087.53 1849.33,1087.53 1851.53,1087.54 1853.73,1087.54 1855.93,1087.55 1858.13,1087.55 1860.32,1087.55 1862.52,1087.56 1864.72,1087.56 1866.92,1087.57 1869.12,1087.57 1871.32,1087.58 1873.51,1087.58 1875.71,1087.58 1877.91,1087.59 1880.11,1087.59 1882.31,1087.6 1884.51,1087.6 1886.7,1087.6 1888.9,1087.61 1891.1,1087.61 1893.3,1087.62 1895.5,1087.62 1897.7,1087.62 1899.89,1087.63 1902.09,1087.63 1904.29,1087.63 1906.49,1087.64 1908.69,1087.64 1910.89,1087.64 1913.08,1087.65 1915.28,1087.65 1917.48,1087.65 1919.68,1087.66 1921.88,1087.66 1924.08,1087.66 1926.27,1087.67 1928.47,1087.67 1930.67,1087.67 1932.87,1087.68 1935.07,1087.68 1937.27,1087.68 1939.46,1087.69 1941.66,1087.69 1943.86,1087.69 1946.06,1087.7 1948.26,1087.7 1950.46,1087.7 1952.66,1087.7 1954.85,1087.71 1957.05,1087.71 1959.25,1087.71 1961.45,1087.72 1963.65,1087.72 1965.85,1087.72 1968.04,1087.72 1970.24,1087.73 1972.44,1087.73 1974.64,1087.73 1976.84,1087.73 1979.04,1087.74 1981.23,1087.74 1983.43,1087.74 1985.63,1087.74 1987.83,1087.75 1990.03,1087.75 1992.23,1087.75 1994.42,1087.75 1996.62,1087.76 1998.82,1087.76 2001.02,1087.76 2003.22,1087.76 2005.42,1087.77 2007.61,1087.77 2009.81,1087.77 2012.01,1087.77 2014.21,1087.78 2016.41,1087.78 2018.61,1087.78 2020.8,1087.78 2023,1087.78 2025.2,1087.79 2027.4,1087.79 2029.6,1087.79 2031.8,1087.79 2033.99,1087.79 2036.19,1087.8 2038.39,1087.8 2040.59,1087.8 2042.79,1087.8 2044.99,1087.8 2047.18,1087.8 2049.38,1087.81 2051.58,1087.81 2053.78,1087.81 2055.98,1087.81 2058.18,1087.81 2060.37,1087.82 2062.57,1087.82 2064.77,1087.82 2066.97,1087.82 2069.17,1087.82 2071.37,1087.82 2073.56,1087.83 2075.76,1087.83 2077.96,1087.83 2080.16,1087.83 2082.36,1087.83 2084.56,1087.83 2086.75,1087.83 2088.95,1087.84 2091.15,1087.84 2093.35,1087.84 2095.55,1087.84 2097.75,1087.84 2099.94,1087.84 2102.14,1087.84 2104.34,1087.85 2106.54,1087.85 2108.74,1087.85 2110.94,1087.85 2113.14,1087.85 2115.33,1087.85 2117.53,1087.85 2119.73,1087.85 2121.93,1087.86 2124.13,1087.86 2126.33,1087.86 2128.52,1087.86 2130.72,1087.86 2132.92,1087.86 2135.12,1087.86 2137.32,1087.86 2139.52,1087.87 2141.71,1087.87 2143.91,1087.87 2146.11,1087.87 2148.31,1087.87 2150.51,1087.87 2152.71,1087.87 2154.9,1087.87 2157.1,1087.87 2159.3,1087.87 2161.5,1087.88 2163.7,1087.88 2165.9,1087.88 2168.09,1087.88 2170.29,1087.88 2172.49,1087.88 2174.69,1087.88 2176.89,1087.88 2179.09,1087.88 2181.28,1087.88 2183.48,1087.89 2185.68,1087.89 2187.88,1087.89 2190.08,1087.89 2192.28,1087.89 2194.47,1087.89 2196.67,1087.89 2198.87,1087.89 2201.07,1087.89 2203.27,1087.89 2205.47,1087.89 2207.66,1087.9 2209.86,1087.9 2212.06,1087.9 2214.26,1087.9 2216.46,1087.9 2218.66,1087.9 2220.85,1087.9 2223.05,1087.9 2225.25,1087.9 2227.45,1087.9 2229.65,1087.9 2231.85,1087.91 2234.04,1087.91 2236.24,1087.91 2238.44,1087.91 2240.64,1087.91 2242.84,1087.91 2245.04,1087.91 2247.23,1087.91 2249.43,1087.91 2251.63,1087.91 2253.83,1087.91 2256.03,1087.91 2258.23,1087.91 2260.42,1087.91 2262.62,1087.92 2264.82,1087.92 2267.02,1087.92 2269.22,1087.92 2271.42,1087.92 2273.62,1087.92 2275.81,1087.92 2278.01,1087.92 2280.21,1087.92 2282.41,1087.92 2284.61,1087.92 2286.81,1087.92 2289,1087.92 2291.2,1087.92 2293.4,1087.92 2295.6,1087.93 2297.8,1087.93 2300,1087.93 2302.19,1087.93 2304.39,1087.93 2306.59,1087.93 2308.79,1087.93 2310.99,1087.93 2313.19,1087.93 2315.38,1087.93 2317.58,1087.93 2319.78,1087.93 2321.98,1087.93 2324.18,1087.93 2326.38,1087.93 2328.57,1087.93 2330.77,1087.93 2332.97,1087.94 2335.17,1087.94 2337.37,1087.94 2339.57,1087.94 2341.76,1087.94 2343.96,1087.94 2346.16,1087.94 2348.36,1087.94 2350.56,1087.94 2352.76,1087.94 "/>
<polyline clip-path="url(#clip982)" style="stroke:#e26f46; stroke-linecap:round; stroke-linejoin:round; stroke-width:4; stroke-opacity:1; fill:none" points="156.598,1384.24 158.797,1378.87 160.995,1373.57 163.193,1368.34 165.392,1363.17 167.59,1358.07 169.788,1353.04 171.987,1348.07 174.185,1343.16 176.383,1338.32 178.582,1333.53 180.78,1328.81 182.979,1324.15 185.177,1319.55 187.375,1315.01 189.574,1310.53 191.772,1306.1 193.97,1301.73 196.169,1297.42 198.367,1293.17 200.565,1288.97 202.764,1284.82 204.962,1280.73 207.16,1276.7 209.359,1272.71 211.557,1268.78 213.755,1264.9 215.954,1261.07 218.152,1257.29 220.351,1253.56 222.549,1249.88 224.747,1246.25 226.946,1242.67 229.144,1239.14 231.342,1235.65 233.541,1232.21 235.739,1228.81 237.937,1225.46 240.136,1222.16 242.334,1218.9 244.532,1215.68 246.731,1212.51 248.929,1209.38 251.128,1206.3 253.326,1203.25 255.524,1200.25 257.723,1197.29 259.921,1194.36 262.119,1191.48 264.318,1188.64 266.516,1185.84 268.714,1183.07 270.913,1180.35 273.111,1177.66 275.309,1175.01 277.508,1172.39 279.706,1169.82 281.905,1167.27 284.103,1164.77 286.301,1162.3 288.5,1159.86 290.698,1157.46 292.896,1155.09 295.095,1152.76 297.293,1150.46 299.491,1148.19 301.69,1145.96 303.888,1143.75 306.086,1141.58 308.285,1139.44 310.483,1137.33 312.682,1135.26 314.88,1133.21 317.078,1131.19 319.277,1129.2 321.475,1127.24 323.673,1125.31 325.872,1123.41 328.07,1121.53 330.268,1119.69 332.467,1117.87 334.665,1116.07 336.863,1114.31 339.062,1112.57 341.26,1110.86 343.458,1109.17 345.657,1107.51 347.855,1105.87 350.054,1104.26 352.252,1102.67 354.45,1101.11 356.649,1099.57 358.847,1098.06 361.045,1096.57 363.244,1095.1 365.442,1093.66 367.64,1092.23 369.839,1090.83 372.037,1089.46 374.235,1088.1 376.434,1086.76 378.632,1085.45 380.831,1084.16 383.029,1082.89 385.227,1081.64 387.426,1080.41 389.624,1079.2 391.822,1078 394.021,1076.83 396.219,1075.68 398.417,1074.55 400.616,1073.43 402.814,1072.34 405.012,1071.26 407.211,1070.2 409.409,1069.16 411.608,1068.14 413.806,1067.13 416.004,1066.14 418.203,1065.17 420.401,1064.21 422.599,1063.28 424.798,1062.35 426.996,1061.45 429.194,1060.56 431.393,1059.68 433.591,1058.82 435.789,1057.98 437.988,1057.15 440.186,1056.34 442.385,1055.54 444.583,1054.76 446.781,1053.99 448.98,1053.23 451.178,1052.49 453.376,1051.76 455.575,1051.05 457.773,1050.35 459.971,1049.66 462.17,1048.99 464.368,1048.33 466.566,1047.68 468.765,1047.05 470.963,1046.43 473.162,1045.82 475.36,1045.22 477.558,1044.63 479.757,1044.06 481.955,1043.5 484.153,1042.95 486.352,1042.41 488.55,1041.88 490.748,1041.37 492.947,1040.86 495.145,1040.37 497.343,1039.88 499.542,1039.41 501.74,1038.95 503.938,1038.49 506.137,1038.05 508.335,1037.62 510.534,1037.2 512.732,1036.78 514.93,1036.38 517.129,1035.99 519.327,1035.6 521.525,1035.23 523.724,1034.86 525.922,1034.5 528.12,1034.15 530.319,1033.81 532.517,1033.48 534.715,1033.16 536.914,1032.85 539.112,1032.54 541.311,1032.24 543.509,1031.95 545.707,1031.67 547.906,1031.4 550.104,1031.13 552.302,1030.87 554.501,1030.62 556.699,1030.38 558.897,1030.14 561.096,1029.91 563.294,1029.69 565.492,1029.48 567.691,1029.27 569.889,1029.07 572.088,1028.87 574.286,1028.68 576.484,1028.5 578.683,1028.33 580.881,1028.16 583.079,1028 585.278,1027.84 587.476,1027.69 589.674,1027.55 591.873,1027.41 594.071,1027.28 596.269,1027.15 598.468,1027.03 600.666,1026.91 602.865,1026.8 605.063,1026.7 607.261,1026.6 609.46,1026.51 611.658,1026.42 613.856,1026.33 616.055,1026.26 618.253,1026.18 620.451,1026.11 622.65,1026.05 624.848,1025.99 627.046,1025.93 629.245,1025.88 631.443,1025.84 633.641,1025.8 635.84,1025.76 638.038,1025.73 640.237,1025.7 642.435,1025.68 644.633,1025.66 646.832,1025.64 649.03,1025.63 651.228,1025.62 653.427,1025.61 655.625,1025.61 657.823,1025.62 660.022,1025.62 662.22,1025.63 664.418,1025.65 666.617,1025.66 668.815,1025.69 671.014,1025.71 673.212,1025.74 675.41,1025.77 677.609,1025.8 679.807,1025.84 682.005,1025.88 684.204,1025.92 686.402,1025.97 688.6,1026.02 690.799,1026.07 692.997,1026.13 695.195,1026.18 697.394,1026.24 699.592,1026.31 701.791,1026.37 703.989,1026.44 706.187,1026.51 708.386,1026.59 710.584,1026.66 712.782,1026.74 714.981,1026.82 717.179,1026.91 719.377,1026.99 721.576,1027.08 723.774,1027.17 725.972,1027.26 728.171,1027.36 730.369,1027.46 732.568,1027.56 734.766,1027.66 736.964,1027.76 739.163,1027.86 741.361,1027.97 743.559,1028.08 745.758,1028.19 747.956,1028.3 750.154,1028.42 752.353,1028.53 754.551,1028.65 756.749,1028.77 758.948,1028.89 761.146,1029.01 763.344,1029.14 765.543,1029.26 767.741,1029.39 769.94,1029.52 772.138,1029.65 774.336,1029.78 776.535,1029.91 778.733,1030.05 780.931,1030.18 783.13,1030.32 785.328,1030.46 787.526,1030.6 789.725,1030.74 791.923,1030.88 794.121,1031.02 796.32,1031.17 798.518,1031.31 800.717,1031.46 802.915,1031.6 805.113,1031.75 807.312,1031.9 809.51,1032.05 811.708,1032.2 813.907,1032.35 816.105,1032.51 818.303,1032.66 820.502,1032.82 822.7,1032.97 824.898,1033.13 827.097,1033.28 829.295,1033.44 831.494,1033.6 833.692,1033.76 835.89,1033.92 838.089,1034.08 840.287,1034.24 842.485,1034.4 844.684,1034.57 846.882,1034.73 849.08,1034.89 851.279,1035.06 853.477,1035.22 855.675,1035.39 857.874,1035.55 860.072,1035.72 862.271,1035.89 864.469,1036.05 866.667,1036.22 868.866,1036.39 871.064,1036.56 873.262,1036.73 875.461,1036.9 877.659,1037.07 879.857,1037.24 882.056,1037.41 884.254,1037.58 886.452,1037.75 888.651,1037.92 890.849,1038.09 893.048,1038.27 895.246,1038.44 897.444,1038.61 899.643,1038.78 901.841,1038.96 904.039,1039.13 906.238,1039.3 908.436,1039.48 910.634,1039.65 912.833,1039.82 915.031,1040 917.229,1040.17 919.428,1040.35 921.626,1040.52 923.824,1040.69 926.023,1040.87 928.221,1041.04 930.42,1041.22 932.618,1041.39 934.816,1041.56 937.015,1041.74 939.213,1041.91 941.411,1042.09 943.61,1042.26 945.808,1042.43 948.006,1042.61 950.205,1042.78 952.403,1042.96 954.601,1043.13 956.8,1043.3 958.998,1043.48 961.197,1043.65 963.395,1043.82 965.593,1044 967.792,1044.17 969.99,1044.34 972.188,1044.51 974.387,1044.69 976.585,1044.86 978.783,1045.03 980.982,1045.2 983.18,1045.38 985.378,1045.55 987.577,1045.72 989.775,1045.89 991.974,1046.06 994.172,1046.23 996.37,1046.4 998.569,1046.57 1000.77,1046.74 1002.97,1046.91 1005.16,1047.08 1007.36,1047.25 1009.56,1047.42 1011.76,1047.59 1013.96,1047.76 1016.16,1047.93 1018.35,1048.09 1020.55,1048.26 1022.75,1048.43 1024.95,1048.6 1027.15,1048.76 1029.35,1048.93 1031.54,1049.1 1033.74,1049.26 1035.94,1049.43 1038.14,1049.59 1040.34,1049.76 1042.54,1049.92 1044.73,1050.09 1046.93,1050.25 1049.13,1050.42 1051.33,1050.58 1053.53,1050.74 1055.73,1050.91 1057.92,1051.07 1060.12,1051.23 1062.32,1051.39 1064.52,1051.55 1066.72,1051.71 1068.92,1051.87 1071.11,1052.03 1073.31,1052.19 1075.51,1052.35 1077.71,1052.51 1079.91,1052.67 1082.11,1052.83 1084.3,1052.98 1086.5,1053.14 1088.7,1053.3 1090.9,1053.45 1093.1,1053.61 1095.3,1053.77 1097.49,1053.92 1099.69,1054.08 1101.89,1054.23 1104.09,1054.38 1106.29,1054.54 1108.49,1054.69 1110.68,1054.84 1112.88,1054.99 1115.08,1055.15 1117.28,1055.3 1119.48,1055.45 1121.68,1055.6 1123.87,1055.75 1126.07,1055.9 1128.27,1056.04 1130.47,1056.19 1132.67,1056.34 1134.87,1056.49 1137.07,1056.63 1139.26,1056.78 1141.46,1056.93 1143.66,1057.07 1145.86,1057.22 1148.06,1057.36 1150.26,1057.5 1152.45,1057.65 1154.65,1057.79 1156.85,1057.93 1159.05,1058.08 1161.25,1058.22 1163.45,1058.36 1165.64,1058.5 1167.84,1058.64 1170.04,1058.78 1172.24,1058.92 1174.44,1059.06 1176.64,1059.19 1178.83,1059.33 1181.03,1059.47 1183.23,1059.61 1185.43,1059.74 1187.63,1059.88 1189.83,1060.01 1192.02,1060.15 1194.22,1060.28 1196.42,1060.42 1198.62,1060.55 1200.82,1060.68 1203.02,1060.82 1205.21,1060.95 1207.41,1061.08 1209.61,1061.21 1211.81,1061.34 1214.01,1061.47 1216.21,1061.6 1218.4,1061.73 1220.6,1061.86 1222.8,1061.99 1225,1062.11 1227.2,1062.24 1229.4,1062.37 1231.59,1062.49 1233.79,1062.62 1235.99,1062.75 1238.19,1062.87 1240.39,1062.99 1242.59,1063.12 1244.78,1063.24 1246.98,1063.36 1249.18,1063.49 1251.38,1063.61 1253.58,1063.73 1255.78,1063.85 1257.97,1063.97 1260.17,1064.09 1262.37,1064.21 1264.57,1064.33 1266.77,1064.45 1268.97,1064.57 1271.16,1064.69 1273.36,1064.8 1275.56,1064.92 1277.76,1065.04 1279.96,1065.15 1282.16,1065.27 1284.35,1065.38 1286.55,1065.5 1288.75,1065.61 1290.95,1065.72 1293.15,1065.84 1295.35,1065.95 1297.55,1066.06 1299.74,1066.17 1301.94,1066.28 1304.14,1066.39 1306.34,1066.5 1308.54,1066.61 1310.74,1066.72 1312.93,1066.83 1315.13,1066.94 1317.33,1067.05 1319.53,1067.15 1321.73,1067.26 1323.93,1067.37 1326.12,1067.47 1328.32,1067.58 1330.52,1067.68 1332.72,1067.79 1334.92,1067.89 1337.12,1068 1339.31,1068.1 1341.51,1068.2 1343.71,1068.3 1345.91,1068.41 1348.11,1068.51 1350.31,1068.61 1352.5,1068.71 1354.7,1068.81 1356.9,1068.91 1359.1,1069.01 1361.3,1069.1 1363.5,1069.2 1365.69,1069.3 1367.89,1069.4 1370.09,1069.49 1372.29,1069.59 1374.49,1069.69 1376.69,1069.78 1378.88,1069.88 1381.08,1069.97 1383.28,1070.07 1385.48,1070.16 1387.68,1070.25 1389.88,1070.35 1392.07,1070.44 1394.27,1070.53 1396.47,1070.62 1398.67,1070.71 1400.87,1070.8 1403.07,1070.89 1405.26,1070.98 1407.46,1071.07 1409.66,1071.16 1411.86,1071.25 1414.06,1071.34 1416.26,1071.43 1418.45,1071.51 1420.65,1071.6 1422.85,1071.69 1425.05,1071.77 1427.25,1071.86 1429.45,1071.95 1431.64,1072.03 1433.84,1072.12 1436.04,1072.2 1438.24,1072.28 1440.44,1072.37 1442.64,1072.45 1444.83,1072.53 1447.03,1072.62 1449.23,1072.7 1451.43,1072.78 1453.63,1072.86 1455.83,1072.94 1458.03,1073.02 1460.22,1073.1 1462.42,1073.18 1464.62,1073.26 1466.82,1073.34 1469.02,1073.42 1471.22,1073.5 1473.41,1073.57 1475.61,1073.65 1477.81,1073.73 1480.01,1073.8 1482.21,1073.88 1484.41,1073.96 1486.6,1074.03 1488.8,1074.11 1491,1074.18 1493.2,1074.26 1495.4,1074.33 1497.6,1074.4 1499.79,1074.48 1501.99,1074.55 1504.19,1074.62 1506.39,1074.7 1508.59,1074.77 1510.79,1074.84 1512.98,1074.91 1515.18,1074.98 1517.38,1075.05 1519.58,1075.12 1521.78,1075.19 1523.98,1075.26 1526.17,1075.33 1528.37,1075.4 1530.57,1075.47 1532.77,1075.54 1534.97,1075.6 1537.17,1075.67 1539.36,1075.74 1541.56,1075.81 1543.76,1075.87 1545.96,1075.94 1548.16,1076 1550.36,1076.07 1552.55,1076.14 1554.75,1076.2 1556.95,1076.26 1559.15,1076.33 1561.35,1076.39 1563.55,1076.46 1565.74,1076.52 1567.94,1076.58 1570.14,1076.64 1572.34,1076.71 1574.54,1076.77 1576.74,1076.83 1578.93,1076.89 1581.13,1076.95 1583.33,1077.01 1585.53,1077.07 1587.73,1077.13 1589.93,1077.19 1592.12,1077.25 1594.32,1077.31 1596.52,1077.37 1598.72,1077.43 1600.92,1077.49 1603.12,1077.54 1605.31,1077.6 1607.51,1077.66 1609.71,1077.72 1611.91,1077.77 1614.11,1077.83 1616.31,1077.89 1618.5,1077.94 1620.7,1078 1622.9,1078.05 1625.1,1078.11 1627.3,1078.16 1629.5,1078.22 1631.7,1078.27 1633.89,1078.32 1636.09,1078.38 1638.29,1078.43 1640.49,1078.48 1642.69,1078.54 1644.89,1078.59 1647.08,1078.64 1649.28,1078.69 1651.48,1078.74 1653.68,1078.79 1655.88,1078.85 1658.08,1078.9 1660.27,1078.95 1662.47,1079 1664.67,1079.05 1666.87,1079.1 1669.07,1079.15 1671.27,1079.2 1673.46,1079.24 1675.66,1079.29 1677.86,1079.34 1680.06,1079.39 1682.26,1079.44 1684.46,1079.49 1686.65,1079.53 1688.85,1079.58 1691.05,1079.63 1693.25,1079.67 1695.45,1079.72 1697.65,1079.77 1699.84,1079.81 1702.04,1079.86 1704.24,1079.9 1706.44,1079.95 1708.64,1079.99 1710.84,1080.04 1713.03,1080.08 1715.23,1080.13 1717.43,1080.17 1719.63,1080.22 1721.83,1080.26 1724.03,1080.3 1726.22,1080.35 1728.42,1080.39 1730.62,1080.43 1732.82,1080.47 1735.02,1080.52 1737.22,1080.56 1739.41,1080.6 1741.61,1080.64 1743.81,1080.68 1746.01,1080.72 1748.21,1080.76 1750.41,1080.81 1752.6,1080.85 1754.8,1080.89 1757,1080.93 1759.2,1080.97 1761.4,1081.01 1763.6,1081.05 1765.79,1081.08 1767.99,1081.12 1770.19,1081.16 1772.39,1081.2 1774.59,1081.24 1776.79,1081.28 1778.98,1081.32 1781.18,1081.35 1783.38,1081.39 1785.58,1081.43 1787.78,1081.47 1789.98,1081.5 1792.18,1081.54 1794.37,1081.58 1796.57,1081.61 1798.77,1081.65 1800.97,1081.68 1803.17,1081.72 1805.37,1081.76 1807.56,1081.79 1809.76,1081.83 1811.96,1081.86 1814.16,1081.9 1816.36,1081.93 1818.56,1081.97 1820.75,1082 1822.95,1082.03 1825.15,1082.07 1827.35,1082.1 1829.55,1082.13 1831.75,1082.17 1833.94,1082.2 1836.14,1082.23 1838.34,1082.27 1840.54,1082.3 1842.74,1082.33 1844.94,1082.36 1847.13,1082.4 1849.33,1082.43 1851.53,1082.46 1853.73,1082.49 1855.93,1082.52 1858.13,1082.55 1860.32,1082.58 1862.52,1082.62 1864.72,1082.65 1866.92,1082.68 1869.12,1082.71 1871.32,1082.74 1873.51,1082.77 1875.71,1082.8 1877.91,1082.83 1880.11,1082.86 1882.31,1082.89 1884.51,1082.91 1886.7,1082.94 1888.9,1082.97 1891.1,1083 1893.3,1083.03 1895.5,1083.06 1897.7,1083.09 1899.89,1083.11 1902.09,1083.14 1904.29,1083.17 1906.49,1083.2 1908.69,1083.22 1910.89,1083.25 1913.08,1083.28 1915.28,1083.31 1917.48,1083.33 1919.68,1083.36 1921.88,1083.39 1924.08,1083.41 1926.27,1083.44 1928.47,1083.46 1930.67,1083.49 1932.87,1083.52 1935.07,1083.54 1937.27,1083.57 1939.46,1083.59 1941.66,1083.62 1943.86,1083.64 1946.06,1083.67 1948.26,1083.69 1950.46,1083.72 1952.66,1083.74 1954.85,1083.77 1957.05,1083.79 1959.25,1083.81 1961.45,1083.84 1963.65,1083.86 1965.85,1083.89 1968.04,1083.91 1970.24,1083.93 1972.44,1083.96 1974.64,1083.98 1976.84,1084 1979.04,1084.03 1981.23,1084.05 1983.43,1084.07 1985.63,1084.09 1987.83,1084.12 1990.03,1084.14 1992.23,1084.16 1994.42,1084.18 1996.62,1084.2 1998.82,1084.23 2001.02,1084.25 2003.22,1084.27 2005.42,1084.29 2007.61,1084.31 2009.81,1084.33 2012.01,1084.35 2014.21,1084.38 2016.41,1084.4 2018.61,1084.42 2020.8,1084.44 2023,1084.46 2025.2,1084.48 2027.4,1084.5 2029.6,1084.52 2031.8,1084.54 2033.99,1084.56 2036.19,1084.58 2038.39,1084.6 2040.59,1084.62 2042.79,1084.64 2044.99,1084.66 2047.18,1084.68 2049.38,1084.7 2051.58,1084.71 2053.78,1084.73 2055.98,1084.75 2058.18,1084.77 2060.37,1084.79 2062.57,1084.81 2064.77,1084.83 2066.97,1084.84 2069.17,1084.86 2071.37,1084.88 2073.56,1084.9 2075.76,1084.92 2077.96,1084.93 2080.16,1084.95 2082.36,1084.97 2084.56,1084.99 2086.75,1085.01 2088.95,1085.02 2091.15,1085.04 2093.35,1085.06 2095.55,1085.07 2097.75,1085.09 2099.94,1085.11 2102.14,1085.12 2104.34,1085.14 2106.54,1085.16 2108.74,1085.17 2110.94,1085.19 2113.14,1085.21 2115.33,1085.22 2117.53,1085.24 2119.73,1085.25 2121.93,1085.27 2124.13,1085.29 2126.33,1085.3 2128.52,1085.32 2130.72,1085.33 2132.92,1085.35 2135.12,1085.36 2137.32,1085.38 2139.52,1085.39 2141.71,1085.41 2143.91,1085.43 2146.11,1085.44 2148.31,1085.45 2150.51,1085.47 2152.71,1085.48 2154.9,1085.5 2157.1,1085.51 2159.3,1085.53 2161.5,1085.54 2163.7,1085.56 2165.9,1085.57 2168.09,1085.58 2170.29,1085.6 2172.49,1085.61 2174.69,1085.63 2176.89,1085.64 2179.09,1085.65 2181.28,1085.67 2183.48,1085.68 2185.68,1085.69 2187.88,1085.71 2190.08,1085.72 2192.28,1085.73 2194.47,1085.75 2196.67,1085.76 2198.87,1085.77 2201.07,1085.79 2203.27,1085.8 2205.47,1085.81 2207.66,1085.83 2209.86,1085.84 2212.06,1085.85 2214.26,1085.86 2216.46,1085.88 2218.66,1085.89 2220.85,1085.9 2223.05,1085.91 2225.25,1085.92 2227.45,1085.94 2229.65,1085.95 2231.85,1085.96 2234.04,1085.97 2236.24,1085.98 2238.44,1086 2240.64,1086.01 2242.84,1086.02 2245.04,1086.03 2247.23,1086.04 2249.43,1086.05 2251.63,1086.06 2253.83,1086.08 2256.03,1086.09 2258.23,1086.1 2260.42,1086.11 2262.62,1086.12 2264.82,1086.13 2267.02,1086.14 2269.22,1086.15 2271.42,1086.16 2273.62,1086.17 2275.81,1086.18 2278.01,1086.2 2280.21,1086.21 2282.41,1086.22 2284.61,1086.23 2286.81,1086.24 2289,1086.25 2291.2,1086.26 2293.4,1086.27 2295.6,1086.28 2297.8,1086.29 2300,1086.3 2302.19,1086.31 2304.39,1086.32 2306.59,1086.33 2308.79,1086.34 2310.99,1086.35 2313.19,1086.36 2315.38,1086.37 2317.58,1086.37 2319.78,1086.38 2321.98,1086.39 2324.18,1086.4 2326.38,1086.41 2328.57,1086.42 2330.77,1086.43 2332.97,1086.44 2335.17,1086.45 2337.37,1086.46 2339.57,1086.47 2341.76,1086.48 2343.96,1086.48 2346.16,1086.49 2348.36,1086.5 2350.56,1086.51 2352.76,1086.52 "/>
<path clip-path="url(#clip980)" d="M1800.54 248.629 L2279.55 248.629 L2279.55 93.1086 L1800.54 93.1086  Z" fill="#ffffff" fill-rule="evenodd" fill-opacity="1"/>
<polyline clip-path="url(#clip980)" style="stroke:#000000; stroke-linecap:round; stroke-linejoin:round; stroke-width:4; stroke-opacity:1; fill:none" points="1800.54,248.629 2279.55,248.629 2279.55,93.1086 1800.54,93.1086 1800.54,248.629 "/>
<polyline clip-path="url(#clip980)" style="stroke:#009af9; stroke-linecap:round; stroke-linejoin:round; stroke-width:4; stroke-opacity:1; fill:none" points="1824.94,144.949 1971.35,144.949 "/>
<path clip-path="url(#clip980)" d="M1995.75 136.303 L2000.27 136.303 L2008.37 158.062 L2016.47 136.303 L2020.98 136.303 L2011.26 162.229 L2005.47 162.229 L1995.75 136.303 Z" fill="#000000" fill-rule="nonzero" fill-opacity="1" /><path clip-path="url(#clip980)" d="M2028.28 158.293 L2035.91 158.293 L2035.91 131.928 L2027.6 133.595 L2027.6 129.335 L2035.87 127.669 L2040.54 127.669 L2040.54 158.293 L2048.18 158.293 L2048.18 162.229 L2028.28 162.229 L2028.28 158.293 Z" fill="#000000" fill-rule="nonzero" fill-opacity="1" /><path clip-path="url(#clip980)" d="M2066.28 145.585 L2066.28 152.807 L2074.41 152.807 L2074.41 155.006 L2066.28 155.006 L2066.28 162.229 L2063.85 162.229 L2063.85 155.006 L2055.73 155.006 L2055.73 152.807 L2063.85 152.807 L2063.85 145.585 L2066.28 145.585 Z" fill="#000000" fill-rule="nonzero" fill-opacity="1" /><path clip-path="url(#clip980)" d="M2098.58 137.067 L2098.58 141.094 Q2096.77 140.169 2094.83 139.706 Q2092.88 139.243 2090.8 139.243 Q2087.63 139.243 2086.03 140.215 Q2084.46 141.187 2084.46 143.131 Q2084.46 144.613 2085.59 145.469 Q2086.72 146.303 2090.15 147.067 L2091.61 147.391 Q2096.15 148.363 2098.04 150.145 Q2099.96 151.905 2099.96 155.076 Q2099.96 158.687 2097.09 160.793 Q2094.25 162.9 2089.25 162.9 Q2087.16 162.9 2084.9 162.483 Q2082.65 162.09 2080.15 161.28 L2080.15 156.881 Q2082.51 158.108 2084.8 158.733 Q2087.09 159.335 2089.34 159.335 Q2092.35 159.335 2093.97 158.317 Q2095.59 157.275 2095.59 155.4 Q2095.59 153.664 2094.41 152.738 Q2093.25 151.812 2089.29 150.956 L2087.81 150.608 Q2083.85 149.775 2082.09 148.062 Q2080.34 146.326 2080.34 143.317 Q2080.34 139.659 2082.93 137.669 Q2085.52 135.678 2090.29 135.678 Q2092.65 135.678 2094.73 136.025 Q2096.82 136.372 2098.58 137.067 Z" fill="#000000" fill-rule="nonzero" fill-opacity="1" /><path clip-path="url(#clip980)" d="M2110.96 128.942 L2110.96 136.303 L2119.73 136.303 L2119.73 139.613 L2110.96 139.613 L2110.96 153.687 Q2110.96 156.858 2111.82 157.761 Q2112.7 158.664 2115.36 158.664 L2119.73 158.664 L2119.73 162.229 L2115.36 162.229 Q2110.43 162.229 2108.55 160.4 Q2106.68 158.548 2106.68 153.687 L2106.68 139.613 L2103.55 139.613 L2103.55 136.303 L2106.68 136.303 L2106.68 128.942 L2110.96 128.942 Z" fill="#000000" fill-rule="nonzero" fill-opacity="1" /><path clip-path="url(#clip980)" d="M2135.38 139.289 Q2131.96 139.289 2129.96 141.974 Q2127.97 144.636 2127.97 149.289 Q2127.97 153.942 2129.94 156.627 Q2131.93 159.289 2135.38 159.289 Q2138.78 159.289 2140.77 156.604 Q2142.77 153.918 2142.77 149.289 Q2142.77 144.682 2140.77 141.997 Q2138.78 139.289 2135.38 139.289 M2135.38 135.678 Q2140.94 135.678 2144.11 139.289 Q2147.28 142.9 2147.28 149.289 Q2147.28 155.655 2144.11 159.289 Q2140.94 162.9 2135.38 162.9 Q2129.8 162.9 2126.63 159.289 Q2123.48 155.655 2123.48 149.289 Q2123.48 142.9 2126.63 139.289 Q2129.8 135.678 2135.38 135.678 Z" fill="#000000" fill-rule="nonzero" fill-opacity="1" /><path clip-path="url(#clip980)" d="M2169.36 140.284 Q2168.64 139.868 2167.79 139.682 Q2166.95 139.474 2165.94 139.474 Q2162.33 139.474 2160.38 141.835 Q2158.46 144.173 2158.46 148.571 L2158.46 162.229 L2154.18 162.229 L2154.18 136.303 L2158.46 136.303 L2158.46 140.331 Q2159.8 137.969 2161.95 136.835 Q2164.11 135.678 2167.19 135.678 Q2167.63 135.678 2168.16 135.747 Q2168.69 135.794 2169.34 135.909 L2169.36 140.284 Z" fill="#000000" fill-rule="nonzero" fill-opacity="1" /><path clip-path="url(#clip980)" d="M2185.61 149.196 Q2180.45 149.196 2178.46 150.377 Q2176.47 151.557 2176.47 154.405 Q2176.47 156.673 2177.95 158.016 Q2179.45 159.335 2182.02 159.335 Q2185.57 159.335 2187.7 156.835 Q2189.85 154.312 2189.85 150.145 L2189.85 149.196 L2185.61 149.196 M2194.11 147.437 L2194.11 162.229 L2189.85 162.229 L2189.85 158.293 Q2188.39 160.655 2186.21 161.789 Q2184.04 162.9 2180.89 162.9 Q2176.91 162.9 2174.55 160.678 Q2172.21 158.432 2172.21 154.682 Q2172.21 150.307 2175.13 148.085 Q2178.07 145.863 2183.88 145.863 L2189.85 145.863 L2189.85 145.446 Q2189.85 142.507 2187.9 140.909 Q2185.98 139.289 2182.49 139.289 Q2180.27 139.289 2178.16 139.821 Q2176.05 140.354 2174.11 141.419 L2174.11 137.483 Q2176.45 136.581 2178.64 136.141 Q2180.84 135.678 2182.93 135.678 Q2188.55 135.678 2191.33 138.594 Q2194.11 141.511 2194.11 147.437 Z" fill="#000000" fill-rule="nonzero" fill-opacity="1" /><path clip-path="url(#clip980)" d="M2219.94 148.965 Q2219.94 144.335 2218.02 141.789 Q2216.12 139.243 2212.67 139.243 Q2209.25 139.243 2207.33 141.789 Q2205.43 144.335 2205.43 148.965 Q2205.43 153.571 2207.33 156.118 Q2209.25 158.664 2212.67 158.664 Q2216.12 158.664 2218.02 156.118 Q2219.94 153.571 2219.94 148.965 M2224.2 159.011 Q2224.2 165.631 2221.26 168.849 Q2218.32 172.09 2212.26 172.09 Q2210.01 172.09 2208.02 171.742 Q2206.03 171.418 2204.15 170.724 L2204.15 166.58 Q2206.03 167.599 2207.86 168.085 Q2209.69 168.571 2211.58 168.571 Q2215.77 168.571 2217.86 166.372 Q2219.94 164.196 2219.94 159.775 L2219.94 157.668 Q2218.62 159.96 2216.56 161.094 Q2214.5 162.229 2211.63 162.229 Q2206.86 162.229 2203.95 158.594 Q2201.03 154.96 2201.03 148.965 Q2201.03 142.946 2203.95 139.312 Q2206.86 135.678 2211.63 135.678 Q2214.5 135.678 2216.56 136.812 Q2218.62 137.946 2219.94 140.238 L2219.94 136.303 L2224.2 136.303 L2224.2 159.011 Z" fill="#000000" fill-rule="nonzero" fill-opacity="1" /><path clip-path="url(#clip980)" d="M2255.15 148.201 L2255.15 150.284 L2235.57 150.284 Q2235.84 154.682 2238.2 156.997 Q2240.59 159.289 2244.82 159.289 Q2247.28 159.289 2249.57 158.687 Q2251.89 158.085 2254.15 156.881 L2254.15 160.909 Q2251.86 161.881 2249.45 162.391 Q2247.05 162.9 2244.57 162.9 Q2238.37 162.9 2234.73 159.289 Q2231.12 155.678 2231.12 149.52 Q2231.12 143.155 2234.55 139.428 Q2238 135.678 2243.83 135.678 Q2249.06 135.678 2252.09 139.057 Q2255.15 142.414 2255.15 148.201 M2250.89 146.951 Q2250.84 143.456 2248.92 141.372 Q2247.02 139.289 2243.88 139.289 Q2240.31 139.289 2238.16 141.303 Q2236.03 143.317 2235.7 146.974 L2250.89 146.951 Z" fill="#000000" fill-rule="nonzero" fill-opacity="1" /><polyline clip-path="url(#clip980)" style="stroke:#e26f46; stroke-linecap:round; stroke-linejoin:round; stroke-width:4; stroke-opacity:1; fill:none" points="1824.94,196.789 1971.35,196.789 "/>
<path clip-path="url(#clip980)" d="M1995.75 188.143 L2000.27 188.143 L2008.37 209.902 L2016.47 188.143 L2020.98 188.143 L2011.26 214.069 L2005.47 214.069 L1995.75 188.143 Z" fill="#000000" fill-rule="nonzero" fill-opacity="1" /><path clip-path="url(#clip980)" d="M2027.51 179.509 L2045.87 179.509 L2045.87 183.444 L2031.79 183.444 L2031.79 191.916 Q2032.81 191.569 2033.83 191.407 Q2034.85 191.222 2035.87 191.222 Q2041.65 191.222 2045.03 194.393 Q2048.41 197.564 2048.41 202.981 Q2048.41 208.559 2044.94 211.661 Q2041.47 214.74 2035.15 214.74 Q2032.97 214.74 2030.71 214.37 Q2028.46 213.999 2026.05 213.258 L2026.05 208.559 Q2028.14 209.694 2030.36 210.249 Q2032.58 210.805 2035.06 210.805 Q2039.06 210.805 2041.4 208.698 Q2043.74 206.592 2043.74 202.981 Q2043.74 199.37 2041.4 197.263 Q2039.06 195.157 2035.06 195.157 Q2033.18 195.157 2031.31 195.573 Q2029.46 195.99 2027.51 196.87 L2027.51 179.509 Z" fill="#000000" fill-rule="nonzero" fill-opacity="1" /><path clip-path="url(#clip980)" d="M2066.28 197.425 L2066.28 204.647 L2074.41 204.647 L2074.41 206.846 L2066.28 206.846 L2066.28 214.069 L2063.85 214.069 L2063.85 206.846 L2055.73 206.846 L2055.73 204.647 L2063.85 204.647 L2063.85 197.425 L2066.28 197.425 Z" fill="#000000" fill-rule="nonzero" fill-opacity="1" /><path clip-path="url(#clip980)" d="M2098.58 188.907 L2098.58 192.934 Q2096.77 192.009 2094.83 191.546 Q2092.88 191.083 2090.8 191.083 Q2087.63 191.083 2086.03 192.055 Q2084.46 193.027 2084.46 194.971 Q2084.46 196.453 2085.59 197.309 Q2086.72 198.143 2090.15 198.907 L2091.61 199.231 Q2096.15 200.203 2098.04 201.985 Q2099.96 203.745 2099.96 206.916 Q2099.96 210.527 2097.09 212.633 Q2094.25 214.74 2089.25 214.74 Q2087.16 214.74 2084.9 214.323 Q2082.65 213.93 2080.15 213.12 L2080.15 208.721 Q2082.51 209.948 2084.8 210.573 Q2087.09 211.175 2089.34 211.175 Q2092.35 211.175 2093.97 210.157 Q2095.59 209.115 2095.59 207.24 Q2095.59 205.504 2094.41 204.578 Q2093.25 203.652 2089.29 202.796 L2087.81 202.448 Q2083.85 201.615 2082.09 199.902 Q2080.34 198.166 2080.34 195.157 Q2080.34 191.499 2082.93 189.509 Q2085.52 187.518 2090.29 187.518 Q2092.65 187.518 2094.73 187.865 Q2096.82 188.212 2098.58 188.907 Z" fill="#000000" fill-rule="nonzero" fill-opacity="1" /><path clip-path="url(#clip980)" d="M2110.96 180.782 L2110.96 188.143 L2119.73 188.143 L2119.73 191.453 L2110.96 191.453 L2110.96 205.527 Q2110.96 208.698 2111.82 209.601 Q2112.7 210.504 2115.36 210.504 L2119.73 210.504 L2119.73 214.069 L2115.36 214.069 Q2110.43 214.069 2108.55 212.24 Q2106.68 210.388 2106.68 205.527 L2106.68 191.453 L2103.55 191.453 L2103.55 188.143 L2106.68 188.143 L2106.68 180.782 L2110.96 180.782 Z" fill="#000000" fill-rule="nonzero" fill-opacity="1" /><path clip-path="url(#clip980)" d="M2135.38 191.129 Q2131.96 191.129 2129.96 193.814 Q2127.97 196.476 2127.97 201.129 Q2127.97 205.782 2129.94 208.467 Q2131.93 211.129 2135.38 211.129 Q2138.78 211.129 2140.77 208.444 Q2142.77 205.758 2142.77 201.129 Q2142.77 196.522 2140.77 193.837 Q2138.78 191.129 2135.38 191.129 M2135.38 187.518 Q2140.94 187.518 2144.11 191.129 Q2147.28 194.74 2147.28 201.129 Q2147.28 207.495 2144.11 211.129 Q2140.94 214.74 2135.38 214.74 Q2129.8 214.74 2126.63 211.129 Q2123.48 207.495 2123.48 201.129 Q2123.48 194.74 2126.63 191.129 Q2129.8 187.518 2135.38 187.518 Z" fill="#000000" fill-rule="nonzero" fill-opacity="1" /><path clip-path="url(#clip980)" d="M2169.36 192.124 Q2168.64 191.708 2167.79 191.522 Q2166.95 191.314 2165.94 191.314 Q2162.33 191.314 2160.38 193.675 Q2158.46 196.013 2158.46 200.411 L2158.46 214.069 L2154.18 214.069 L2154.18 188.143 L2158.46 188.143 L2158.46 192.171 Q2159.8 189.809 2161.95 188.675 Q2164.11 187.518 2167.19 187.518 Q2167.63 187.518 2168.16 187.587 Q2168.69 187.634 2169.34 187.749 L2169.36 192.124 Z" fill="#000000" fill-rule="nonzero" fill-opacity="1" /><path clip-path="url(#clip980)" d="M2185.61 201.036 Q2180.45 201.036 2178.46 202.217 Q2176.47 203.397 2176.47 206.245 Q2176.47 208.513 2177.95 209.856 Q2179.45 211.175 2182.02 211.175 Q2185.57 211.175 2187.7 208.675 Q2189.85 206.152 2189.85 201.985 L2189.85 201.036 L2185.61 201.036 M2194.11 199.277 L2194.11 214.069 L2189.85 214.069 L2189.85 210.133 Q2188.39 212.495 2186.21 213.629 Q2184.04 214.74 2180.89 214.74 Q2176.91 214.74 2174.55 212.518 Q2172.21 210.272 2172.21 206.522 Q2172.21 202.147 2175.13 199.925 Q2178.07 197.703 2183.88 197.703 L2189.85 197.703 L2189.85 197.286 Q2189.85 194.347 2187.9 192.749 Q2185.98 191.129 2182.49 191.129 Q2180.27 191.129 2178.16 191.661 Q2176.05 192.194 2174.11 193.259 L2174.11 189.323 Q2176.45 188.421 2178.64 187.981 Q2180.84 187.518 2182.93 187.518 Q2188.55 187.518 2191.33 190.434 Q2194.11 193.351 2194.11 199.277 Z" fill="#000000" fill-rule="nonzero" fill-opacity="1" /><path clip-path="url(#clip980)" d="M2219.94 200.805 Q2219.94 196.175 2218.02 193.629 Q2216.12 191.083 2212.67 191.083 Q2209.25 191.083 2207.33 193.629 Q2205.43 196.175 2205.43 200.805 Q2205.43 205.411 2207.33 207.958 Q2209.25 210.504 2212.67 210.504 Q2216.12 210.504 2218.02 207.958 Q2219.94 205.411 2219.94 200.805 M2224.2 210.851 Q2224.2 217.471 2221.26 220.689 Q2218.32 223.93 2212.26 223.93 Q2210.01 223.93 2208.02 223.582 Q2206.03 223.258 2204.15 222.564 L2204.15 218.42 Q2206.03 219.439 2207.86 219.925 Q2209.69 220.411 2211.58 220.411 Q2215.77 220.411 2217.86 218.212 Q2219.94 216.036 2219.94 211.615 L2219.94 209.508 Q2218.62 211.8 2216.56 212.934 Q2214.5 214.069 2211.63 214.069 Q2206.86 214.069 2203.95 210.434 Q2201.03 206.8 2201.03 200.805 Q2201.03 194.786 2203.95 191.152 Q2206.86 187.518 2211.63 187.518 Q2214.5 187.518 2216.56 188.652 Q2218.62 189.786 2219.94 192.078 L2219.94 188.143 L2224.2 188.143 L2224.2 210.851 Z" fill="#000000" fill-rule="nonzero" fill-opacity="1" /><path clip-path="url(#clip980)" d="M2255.15 200.041 L2255.15 202.124 L2235.57 202.124 Q2235.84 206.522 2238.2 208.837 Q2240.59 211.129 2244.82 211.129 Q2247.28 211.129 2249.57 210.527 Q2251.89 209.925 2254.15 208.721 L2254.15 212.749 Q2251.86 213.721 2249.45 214.231 Q2247.05 214.74 2244.57 214.74 Q2238.37 214.74 2234.73 211.129 Q2231.12 207.518 2231.12 201.36 Q2231.12 194.995 2234.55 191.268 Q2238 187.518 2243.83 187.518 Q2249.06 187.518 2252.09 190.897 Q2255.15 194.254 2255.15 200.041 M2250.89 198.791 Q2250.84 195.296 2248.92 193.212 Q2247.02 191.129 2243.88 191.129 Q2240.31 191.129 2238.16 193.143 Q2236.03 195.157 2235.7 198.814 L2250.89 198.791 Z" fill="#000000" fill-rule="nonzero" fill-opacity="1" /></svg>
