<?xml version="1.0" encoding="utf-8"?>
<svg xmlns="http://www.w3.org/2000/svg" xmlns:xlink="http://www.w3.org/1999/xlink" width="600" height="400" viewBox="0 0 2400 1600">
<defs>
  <clipPath id="clip510">
    <rect x="0" y="0" width="2400" height="1600"/>
  </clipPath>
</defs>
<path clip-path="url(#clip510)" d="M0 1600 L2400 1600 L2400 0 L0 0  Z" fill="#ffffff" fill-rule="evenodd" fill-opacity="1"/>
<defs>
  <clipPath id="clip511">
    <rect x="480" y="0" width="1681" height="1600"/>
  </clipPath>
</defs>
<path clip-path="url(#clip510)" d="M192.941 1423.18 L2352.76 1423.18 L2352.76 47.2441 L192.941 47.2441  Z" fill="#ffffff" fill-rule="evenodd" fill-opacity="1"/>
<defs>
  <clipPath id="clip512">
    <rect x="192" y="47" width="2161" height="1377"/>
  </clipPath>
</defs>
<polyline clip-path="url(#clip512)" style="stroke:#000000; stroke-linecap:round; stroke-linejoin:round; stroke-width:2; stroke-opacity:0.1; fill:none" points="192.941,1423.18 192.941,47.2441 "/>
<polyline clip-path="url(#clip512)" style="stroke:#000000; stroke-linecap:round; stroke-linejoin:round; stroke-width:2; stroke-opacity:0.1; fill:none" points="732.894,1423.18 732.894,47.2441 "/>
<polyline clip-path="url(#clip512)" style="stroke:#000000; stroke-linecap:round; stroke-linejoin:round; stroke-width:2; stroke-opacity:0.1; fill:none" points="1272.85,1423.18 1272.85,47.2441 "/>
<polyline clip-path="url(#clip512)" style="stroke:#000000; stroke-linecap:round; stroke-linejoin:round; stroke-width:2; stroke-opacity:0.1; fill:none" points="1812.8,1423.18 1812.8,47.2441 "/>
<polyline clip-path="url(#clip512)" style="stroke:#000000; stroke-linecap:round; stroke-linejoin:round; stroke-width:2; stroke-opacity:0.1; fill:none" points="2352.76,1423.18 2352.76,47.2441 "/>
<polyline clip-path="url(#clip512)" style="stroke:#000000; stroke-linecap:round; stroke-linejoin:round; stroke-width:2; stroke-opacity:0.1; fill:none" points="192.941,1236.18 2352.76,1236.18 "/>
<polyline clip-path="url(#clip512)" style="stroke:#000000; stroke-linecap:round; stroke-linejoin:round; stroke-width:2; stroke-opacity:0.1; fill:none" points="192.941,863.332 2352.76,863.332 "/>
<polyline clip-path="url(#clip512)" style="stroke:#000000; stroke-linecap:round; stroke-linejoin:round; stroke-width:2; stroke-opacity:0.1; fill:none" points="192.941,490.488 2352.76,490.488 "/>
<polyline clip-path="url(#clip512)" style="stroke:#000000; stroke-linecap:round; stroke-linejoin:round; stroke-width:2; stroke-opacity:0.1; fill:none" points="192.941,117.645 2352.76,117.645 "/>
<polyline clip-path="url(#clip510)" style="stroke:#000000; stroke-linecap:round; stroke-linejoin:round; stroke-width:4; stroke-opacity:1; fill:none" points="192.941,1423.18 2352.76,1423.18 "/>
<polyline clip-path="url(#clip510)" style="stroke:#000000; stroke-linecap:round; stroke-linejoin:round; stroke-width:4; stroke-opacity:1; fill:none" points="192.941,1423.18 192.941,1404.28 "/>
<polyline clip-path="url(#clip510)" style="stroke:#000000; stroke-linecap:round; stroke-linejoin:round; stroke-width:4; stroke-opacity:1; fill:none" points="732.894,1423.18 732.894,1404.28 "/>
<polyline clip-path="url(#clip510)" style="stroke:#000000; stroke-linecap:round; stroke-linejoin:round; stroke-width:4; stroke-opacity:1; fill:none" points="1272.85,1423.18 1272.85,1404.28 "/>
<polyline clip-path="url(#clip510)" style="stroke:#000000; stroke-linecap:round; stroke-linejoin:round; stroke-width:4; stroke-opacity:1; fill:none" points="1812.8,1423.18 1812.8,1404.28 "/>
<polyline clip-path="url(#clip510)" style="stroke:#000000; stroke-linecap:round; stroke-linejoin:round; stroke-width:4; stroke-opacity:1; fill:none" points="2352.76,1423.18 2352.76,1404.28 "/>
<path clip-path="url(#clip510)" d="M170.325 1454.1 Q166.714 1454.1 164.885 1457.66 Q163.08 1461.2 163.08 1468.33 Q163.08 1475.44 164.885 1479.01 Q166.714 1482.55 170.325 1482.55 Q173.959 1482.55 175.765 1479.01 Q177.593 1475.44 177.593 1468.33 Q177.593 1461.2 175.765 1457.66 Q173.959 1454.1 170.325 1454.1 M170.325 1450.39 Q176.135 1450.39 179.191 1455 Q182.269 1459.58 182.269 1468.33 Q182.269 1477.06 179.191 1481.67 Q176.135 1486.25 170.325 1486.25 Q164.515 1486.25 161.436 1481.67 Q158.381 1477.06 158.381 1468.33 Q158.381 1459.58 161.436 1455 Q164.515 1450.39 170.325 1450.39 Z" fill="#000000" fill-rule="nonzero" fill-opacity="1" /><path clip-path="url(#clip510)" d="M190.487 1479.7 L195.371 1479.7 L195.371 1485.58 L190.487 1485.58 L190.487 1479.7 Z" fill="#000000" fill-rule="nonzero" fill-opacity="1" /><path clip-path="url(#clip510)" d="M215.556 1454.1 Q211.945 1454.1 210.116 1457.66 Q208.311 1461.2 208.311 1468.33 Q208.311 1475.44 210.116 1479.01 Q211.945 1482.55 215.556 1482.55 Q219.19 1482.55 220.996 1479.01 Q222.825 1475.44 222.825 1468.33 Q222.825 1461.2 220.996 1457.66 Q219.19 1454.1 215.556 1454.1 M215.556 1450.39 Q221.366 1450.39 224.422 1455 Q227.501 1459.58 227.501 1468.33 Q227.501 1477.06 224.422 1481.67 Q221.366 1486.25 215.556 1486.25 Q209.746 1486.25 206.667 1481.67 Q203.612 1477.06 203.612 1468.33 Q203.612 1459.58 206.667 1455 Q209.746 1450.39 215.556 1450.39 Z" fill="#000000" fill-rule="nonzero" fill-opacity="1" /><path clip-path="url(#clip510)" d="M710.777 1454.1 Q707.165 1454.1 705.337 1457.66 Q703.531 1461.2 703.531 1468.33 Q703.531 1475.44 705.337 1479.01 Q707.165 1482.55 710.777 1482.55 Q714.411 1482.55 716.216 1479.01 Q718.045 1475.44 718.045 1468.33 Q718.045 1461.2 716.216 1457.66 Q714.411 1454.1 710.777 1454.1 M710.777 1450.39 Q716.587 1450.39 719.642 1455 Q722.721 1459.58 722.721 1468.33 Q722.721 1477.06 719.642 1481.67 Q716.587 1486.25 710.777 1486.25 Q704.966 1486.25 701.888 1481.67 Q698.832 1477.06 698.832 1468.33 Q698.832 1459.58 701.888 1455 Q704.966 1450.39 710.777 1450.39 Z" fill="#000000" fill-rule="nonzero" fill-opacity="1" /><path clip-path="url(#clip510)" d="M730.938 1479.7 L735.823 1479.7 L735.823 1485.58 L730.938 1485.58 L730.938 1479.7 Z" fill="#000000" fill-rule="nonzero" fill-opacity="1" /><path clip-path="url(#clip510)" d="M746.054 1451.02 L764.41 1451.02 L764.41 1454.96 L750.336 1454.96 L750.336 1463.43 Q751.355 1463.08 752.374 1462.92 Q753.392 1462.73 754.411 1462.73 Q760.198 1462.73 763.577 1465.9 Q766.957 1469.08 766.957 1474.49 Q766.957 1480.07 763.485 1483.17 Q760.012 1486.25 753.693 1486.25 Q751.517 1486.25 749.249 1485.88 Q747.003 1485.51 744.596 1484.77 L744.596 1480.07 Q746.679 1481.2 748.901 1481.76 Q751.124 1482.32 753.6 1482.32 Q757.605 1482.32 759.943 1480.21 Q762.281 1478.1 762.281 1474.49 Q762.281 1470.88 759.943 1468.77 Q757.605 1466.67 753.6 1466.67 Q751.725 1466.67 749.85 1467.08 Q747.999 1467.5 746.054 1468.38 L746.054 1451.02 Z" fill="#000000" fill-rule="nonzero" fill-opacity="1" /><path clip-path="url(#clip510)" d="M1240 1481.64 L1247.64 1481.64 L1247.64 1455.28 L1239.33 1456.95 L1239.33 1452.69 L1247.59 1451.02 L1252.27 1451.02 L1252.27 1481.64 L1259.91 1481.64 L1259.91 1485.58 L1240 1485.58 L1240 1481.64 Z" fill="#000000" fill-rule="nonzero" fill-opacity="1" /><path clip-path="url(#clip510)" d="M1269.35 1479.7 L1274.24 1479.7 L1274.24 1485.58 L1269.35 1485.58 L1269.35 1479.7 Z" fill="#000000" fill-rule="nonzero" fill-opacity="1" /><path clip-path="url(#clip510)" d="M1294.42 1454.1 Q1290.81 1454.1 1288.98 1457.66 Q1287.18 1461.2 1287.18 1468.33 Q1287.18 1475.44 1288.98 1479.01 Q1290.81 1482.55 1294.42 1482.55 Q1298.06 1482.55 1299.86 1479.01 Q1301.69 1475.44 1301.69 1468.33 Q1301.69 1461.2 1299.86 1457.66 Q1298.06 1454.1 1294.42 1454.1 M1294.42 1450.39 Q1300.23 1450.39 1303.29 1455 Q1306.37 1459.58 1306.37 1468.33 Q1306.37 1477.06 1303.29 1481.67 Q1300.23 1486.25 1294.42 1486.25 Q1288.61 1486.25 1285.53 1481.67 Q1282.48 1477.06 1282.48 1468.33 Q1282.48 1459.58 1285.53 1455 Q1288.61 1450.39 1294.42 1450.39 Z" fill="#000000" fill-rule="nonzero" fill-opacity="1" /><path clip-path="url(#clip510)" d="M1780.45 1481.64 L1788.09 1481.64 L1788.09 1455.28 L1779.78 1456.95 L1779.78 1452.69 L1788.05 1451.02 L1792.72 1451.02 L1792.72 1481.64 L1800.36 1481.64 L1800.36 1485.58 L1780.45 1485.58 L1780.45 1481.64 Z" fill="#000000" fill-rule="nonzero" fill-opacity="1" /><path clip-path="url(#clip510)" d="M1809.8 1479.7 L1814.69 1479.7 L1814.69 1485.58 L1809.8 1485.58 L1809.8 1479.7 Z" fill="#000000" fill-rule="nonzero" fill-opacity="1" /><path clip-path="url(#clip510)" d="M1824.92 1451.02 L1843.28 1451.02 L1843.28 1454.96 L1829.2 1454.96 L1829.2 1463.43 Q1830.22 1463.08 1831.24 1462.92 Q1832.26 1462.73 1833.28 1462.73 Q1839.06 1462.73 1842.44 1465.9 Q1845.82 1469.08 1845.82 1474.49 Q1845.82 1480.07 1842.35 1483.17 Q1838.88 1486.25 1832.56 1486.25 Q1830.38 1486.25 1828.11 1485.88 Q1825.87 1485.51 1823.46 1484.77 L1823.46 1480.07 Q1825.55 1481.2 1827.77 1481.76 Q1829.99 1482.32 1832.47 1482.32 Q1836.47 1482.32 1838.81 1480.21 Q1841.15 1478.1 1841.15 1474.49 Q1841.15 1470.88 1838.81 1468.77 Q1836.47 1466.67 1832.47 1466.67 Q1830.59 1466.67 1828.72 1467.08 Q1826.86 1467.5 1824.92 1468.38 L1824.92 1451.02 Z" fill="#000000" fill-rule="nonzero" fill-opacity="1" /><path clip-path="url(#clip510)" d="M2323.99 1481.64 L2340.31 1481.64 L2340.31 1485.58 L2318.37 1485.58 L2318.37 1481.64 Q2321.03 1478.89 2325.61 1474.26 Q2330.22 1469.61 2331.4 1468.27 Q2333.65 1465.74 2334.53 1464.01 Q2335.43 1462.25 2335.43 1460.56 Q2335.43 1457.8 2333.49 1456.07 Q2331.56 1454.33 2328.46 1454.33 Q2326.26 1454.33 2323.81 1455.09 Q2321.38 1455.86 2318.6 1457.41 L2318.6 1452.69 Q2321.43 1451.55 2323.88 1450.97 Q2326.33 1450.39 2328.37 1450.39 Q2333.74 1450.39 2336.93 1453.08 Q2340.13 1455.77 2340.13 1460.26 Q2340.13 1462.39 2339.32 1464.31 Q2338.53 1466.2 2336.42 1468.8 Q2335.85 1469.47 2332.74 1472.69 Q2329.64 1475.88 2323.99 1481.64 Z" fill="#000000" fill-rule="nonzero" fill-opacity="1" /><path clip-path="url(#clip510)" d="M2350.13 1479.7 L2355.01 1479.7 L2355.01 1485.58 L2350.13 1485.58 L2350.13 1479.7 Z" fill="#000000" fill-rule="nonzero" fill-opacity="1" /><path clip-path="url(#clip510)" d="M2375.2 1454.1 Q2371.59 1454.1 2369.76 1457.66 Q2367.95 1461.2 2367.95 1468.33 Q2367.95 1475.44 2369.76 1479.01 Q2371.59 1482.55 2375.2 1482.55 Q2378.83 1482.55 2380.64 1479.01 Q2382.47 1475.44 2382.47 1468.33 Q2382.47 1461.2 2380.64 1457.66 Q2378.83 1454.1 2375.2 1454.1 M2375.2 1450.39 Q2381.01 1450.39 2384.06 1455 Q2387.14 1459.58 2387.14 1468.33 Q2387.14 1477.06 2384.06 1481.67 Q2381.01 1486.25 2375.2 1486.25 Q2369.39 1486.25 2366.31 1481.67 Q2363.25 1477.06 2363.25 1468.33 Q2363.25 1459.58 2366.31 1455 Q2369.39 1450.39 2375.2 1450.39 Z" fill="#000000" fill-rule="nonzero" fill-opacity="1" /><path clip-path="url(#clip510)" d="M1271.91 1522.27 L1271.91 1532.4 L1283.97 1532.4 L1283.97 1536.95 L1271.91 1536.95 L1271.91 1556.3 Q1271.91 1560.66 1273.09 1561.9 Q1274.3 1563.14 1277.96 1563.14 L1283.97 1563.14 L1283.97 1568.04 L1277.96 1568.04 Q1271.18 1568.04 1268.6 1565.53 Q1266.02 1562.98 1266.02 1556.3 L1266.02 1536.95 L1261.72 1536.95 L1261.72 1532.4 L1266.02 1532.4 L1266.02 1522.27 L1271.91 1522.27 Z" fill="#000000" fill-rule="nonzero" fill-opacity="1" /><polyline clip-path="url(#clip510)" style="stroke:#000000; stroke-linecap:round; stroke-linejoin:round; stroke-width:4; stroke-opacity:1; fill:none" points="192.941,1423.18 192.941,47.2441 "/>
<polyline clip-path="url(#clip510)" style="stroke:#000000; stroke-linecap:round; stroke-linejoin:round; stroke-width:4; stroke-opacity:1; fill:none" points="192.941,1236.18 211.838,1236.18 "/>
<polyline clip-path="url(#clip510)" style="stroke:#000000; stroke-linecap:round; stroke-linejoin:round; stroke-width:4; stroke-opacity:1; fill:none" points="192.941,863.332 211.838,863.332 "/>
<polyline clip-path="url(#clip510)" style="stroke:#000000; stroke-linecap:round; stroke-linejoin:round; stroke-width:4; stroke-opacity:1; fill:none" points="192.941,490.488 211.838,490.488 "/>
<polyline clip-path="url(#clip510)" style="stroke:#000000; stroke-linecap:round; stroke-linejoin:round; stroke-width:4; stroke-opacity:1; fill:none" points="192.941,117.645 211.838,117.645 "/>
<path clip-path="url(#clip510)" d="M50.9921 1236.63 L80.6679 1236.63 L80.6679 1240.56 L50.9921 1240.56 L50.9921 1236.63 Z" fill="#000000" fill-rule="nonzero" fill-opacity="1" /><path clip-path="url(#clip510)" d="M100.76 1221.97 Q97.1493 1221.97 95.3206 1225.54 Q93.515 1229.08 93.515 1236.21 Q93.515 1243.32 95.3206 1246.88 Q97.1493 1250.42 100.76 1250.42 Q104.395 1250.42 106.2 1246.88 Q108.029 1243.32 108.029 1236.21 Q108.029 1229.08 106.2 1225.54 Q104.395 1221.97 100.76 1221.97 M100.76 1218.27 Q106.571 1218.27 109.626 1222.88 Q112.705 1227.46 112.705 1236.21 Q112.705 1244.94 109.626 1249.54 Q106.571 1254.13 100.76 1254.13 Q94.9502 1254.13 91.8715 1249.54 Q88.816 1244.94 88.816 1236.21 Q88.816 1227.46 91.8715 1222.88 Q94.9502 1218.27 100.76 1218.27 Z" fill="#000000" fill-rule="nonzero" fill-opacity="1" /><path clip-path="url(#clip510)" d="M120.922 1247.58 L125.807 1247.58 L125.807 1253.46 L120.922 1253.46 L120.922 1247.58 Z" fill="#000000" fill-rule="nonzero" fill-opacity="1" /><path clip-path="url(#clip510)" d="M136.038 1218.9 L154.394 1218.9 L154.394 1222.83 L140.32 1222.83 L140.32 1231.3 Q141.339 1230.96 142.357 1230.79 Q143.376 1230.61 144.394 1230.61 Q150.181 1230.61 153.561 1233.78 Q156.941 1236.95 156.941 1242.37 Q156.941 1247.95 153.468 1251.05 Q149.996 1254.13 143.677 1254.13 Q141.501 1254.13 139.232 1253.76 Q136.987 1253.39 134.58 1252.65 L134.58 1247.95 Q136.663 1249.08 138.885 1249.64 Q141.107 1250.19 143.584 1250.19 Q147.589 1250.19 149.927 1248.09 Q152.265 1245.98 152.265 1242.37 Q152.265 1238.76 149.927 1236.65 Q147.589 1234.54 143.584 1234.54 Q141.709 1234.54 139.834 1234.96 Q137.982 1235.38 136.038 1236.26 L136.038 1218.9 Z" fill="#000000" fill-rule="nonzero" fill-opacity="1" /><path clip-path="url(#clip510)" d="M99.765 849.131 Q96.1539 849.131 94.3252 852.695 Q92.5197 856.237 92.5197 863.367 Q92.5197 870.473 94.3252 874.038 Q96.1539 877.579 99.765 877.579 Q103.399 877.579 105.205 874.038 Q107.033 870.473 107.033 863.367 Q107.033 856.237 105.205 852.695 Q103.399 849.131 99.765 849.131 M99.765 845.427 Q105.575 845.427 108.631 850.033 Q111.709 854.617 111.709 863.367 Q111.709 872.093 108.631 876.7 Q105.575 881.283 99.765 881.283 Q93.9549 881.283 90.8762 876.7 Q87.8206 872.093 87.8206 863.367 Q87.8206 854.617 90.8762 850.033 Q93.9549 845.427 99.765 845.427 Z" fill="#000000" fill-rule="nonzero" fill-opacity="1" /><path clip-path="url(#clip510)" d="M119.927 874.732 L124.811 874.732 L124.811 880.612 L119.927 880.612 L119.927 874.732 Z" fill="#000000" fill-rule="nonzero" fill-opacity="1" /><path clip-path="url(#clip510)" d="M144.996 849.131 Q141.385 849.131 139.556 852.695 Q137.751 856.237 137.751 863.367 Q137.751 870.473 139.556 874.038 Q141.385 877.579 144.996 877.579 Q148.63 877.579 150.436 874.038 Q152.265 870.473 152.265 863.367 Q152.265 856.237 150.436 852.695 Q148.63 849.131 144.996 849.131 M144.996 845.427 Q150.806 845.427 153.862 850.033 Q156.941 854.617 156.941 863.367 Q156.941 872.093 153.862 876.7 Q150.806 881.283 144.996 881.283 Q139.186 881.283 136.107 876.7 Q133.052 872.093 133.052 863.367 Q133.052 854.617 136.107 850.033 Q139.186 845.427 144.996 845.427 Z" fill="#000000" fill-rule="nonzero" fill-opacity="1" /><path clip-path="url(#clip510)" d="M100.76 476.287 Q97.1493 476.287 95.3206 479.852 Q93.515 483.393 93.515 490.523 Q93.515 497.629 95.3206 501.194 Q97.1493 504.736 100.76 504.736 Q104.395 504.736 106.2 501.194 Q108.029 497.629 108.029 490.523 Q108.029 483.393 106.2 479.852 Q104.395 476.287 100.76 476.287 M100.76 472.583 Q106.571 472.583 109.626 477.19 Q112.705 481.773 112.705 490.523 Q112.705 499.25 109.626 503.856 Q106.571 508.44 100.76 508.44 Q94.9502 508.44 91.8715 503.856 Q88.816 499.25 88.816 490.523 Q88.816 481.773 91.8715 477.19 Q94.9502 472.583 100.76 472.583 Z" fill="#000000" fill-rule="nonzero" fill-opacity="1" /><path clip-path="url(#clip510)" d="M120.922 501.889 L125.807 501.889 L125.807 507.768 L120.922 507.768 L120.922 501.889 Z" fill="#000000" fill-rule="nonzero" fill-opacity="1" /><path clip-path="url(#clip510)" d="M136.038 473.208 L154.394 473.208 L154.394 477.143 L140.32 477.143 L140.32 485.616 Q141.339 485.268 142.357 485.106 Q143.376 484.921 144.394 484.921 Q150.181 484.921 153.561 488.092 Q156.941 491.264 156.941 496.68 Q156.941 502.259 153.468 505.361 Q149.996 508.44 143.677 508.44 Q141.501 508.44 139.232 508.069 Q136.987 507.699 134.58 506.958 L134.58 502.259 Q136.663 503.393 138.885 503.949 Q141.107 504.504 143.584 504.504 Q147.589 504.504 149.927 502.398 Q152.265 500.292 152.265 496.68 Q152.265 493.069 149.927 490.963 Q147.589 488.856 143.584 488.856 Q141.709 488.856 139.834 489.273 Q137.982 489.69 136.038 490.569 L136.038 473.208 Z" fill="#000000" fill-rule="nonzero" fill-opacity="1" /><path clip-path="url(#clip510)" d="M90.5752 130.99 L98.2141 130.99 L98.2141 104.624 L89.904 106.291 L89.904 102.031 L98.1678 100.365 L102.844 100.365 L102.844 130.99 L110.483 130.99 L110.483 134.925 L90.5752 134.925 L90.5752 130.99 Z" fill="#000000" fill-rule="nonzero" fill-opacity="1" /><path clip-path="url(#clip510)" d="M119.927 129.045 L124.811 129.045 L124.811 134.925 L119.927 134.925 L119.927 129.045 Z" fill="#000000" fill-rule="nonzero" fill-opacity="1" /><path clip-path="url(#clip510)" d="M144.996 103.443 Q141.385 103.443 139.556 107.008 Q137.751 110.55 137.751 117.679 Q137.751 124.786 139.556 128.351 Q141.385 131.892 144.996 131.892 Q148.63 131.892 150.436 128.351 Q152.265 124.786 152.265 117.679 Q152.265 110.55 150.436 107.008 Q148.63 103.443 144.996 103.443 M144.996 99.7398 Q150.806 99.7398 153.862 104.346 Q156.941 108.93 156.941 117.679 Q156.941 126.406 153.862 131.013 Q150.806 135.596 144.996 135.596 Q139.186 135.596 136.107 131.013 Q133.052 126.406 133.052 117.679 Q133.052 108.93 136.107 104.346 Q139.186 99.7398 144.996 99.7398 Z" fill="#000000" fill-rule="nonzero" fill-opacity="1" /><polyline clip-path="url(#clip512)" style="stroke:#009af9; stroke-linecap:round; stroke-linejoin:round; stroke-width:4; stroke-opacity:1; fill:none" points="192.941,1384.24 195.103,1377.47 197.265,1370.76 199.427,1364.13 201.589,1357.56 203.751,1351.05 205.912,1344.61 208.074,1338.23 210.236,1331.92 212.398,1325.67 214.56,1319.48 216.722,1313.36 218.884,1307.29 221.046,1301.29 223.208,1295.34 225.37,1289.46 227.532,1283.63 229.694,1277.86 231.856,1272.15 234.018,1266.5 236.18,1260.9 238.342,1255.36 240.504,1249.87 242.666,1244.44 244.828,1239.06 246.99,1233.73 249.152,1228.46 251.314,1223.24 253.476,1218.07 255.638,1212.96 257.8,1207.89 259.962,1202.88 262.124,1197.91 264.286,1193 266.448,1188.13 268.61,1183.31 270.772,1178.55 272.934,1173.82 275.096,1169.15 277.258,1164.52 279.42,1159.94 281.582,1155.4 283.744,1150.91 285.906,1146.46 288.068,1142.06 290.23,1137.7 292.392,1133.38 294.554,1129.11 296.716,1124.88 298.878,1120.69 301.039,1116.55 303.201,1112.44 305.363,1108.38 307.525,1104.36 309.687,1100.37 311.849,1096.43 314.011,1092.53 316.173,1088.66 318.335,1084.83 320.497,1081.04 322.659,1077.29 324.821,1073.58 326.983,1069.9 329.145,1066.26 331.307,1062.66 333.469,1059.09 335.631,1055.56 337.793,1052.06 339.955,1048.6 342.117,1045.17 344.279,1041.78 346.441,1038.42 348.603,1035.09 350.765,1031.8 352.927,1028.54 355.089,1025.31 357.251,1022.11 359.413,1018.95 361.575,1015.81 363.737,1012.71 365.899,1009.64 368.061,1006.6 370.223,1003.59 372.385,1000.61 374.547,997.663 376.709,994.742 378.871,991.851 381.033,988.988 383.195,986.154 385.357,983.348 387.519,980.57 389.681,977.82 391.843,975.097 394.005,972.401 396.166,969.732 398.328,967.09 400.49,964.474 402.652,961.884 404.814,959.32 406.976,956.781 409.138,954.268 411.3,951.78 413.462,949.316 415.624,946.877 417.786,944.462 419.948,942.071 422.11,939.704 424.272,937.361 426.434,935.041 428.596,932.744 430.758,930.47 432.92,928.218 435.082,925.989 437.244,923.782 439.406,921.597 441.568,919.434 443.73,917.293 445.892,915.173 448.054,913.073 450.216,910.995 452.378,908.938 454.54,906.901 456.702,904.884 458.864,902.887 461.026,900.911 463.188,898.954 465.35,897.016 467.512,895.098 469.674,893.199 471.836,891.319 473.998,889.458 476.16,887.615 478.322,885.79 480.484,883.984 482.646,882.196 484.808,880.425 486.97,878.673 489.132,876.937 491.293,875.219 493.455,873.518 495.617,871.834 497.779,870.167 499.941,868.516 502.103,866.882 504.265,865.264 506.427,863.662 508.589,862.076 510.751,860.506 512.913,858.952 515.075,857.413 517.237,855.889 519.399,854.381 521.561,852.887 523.723,851.408 525.885,849.945 528.047,848.495 530.209,847.06 532.371,845.639 534.533,844.233 536.695,842.84 538.857,841.462 541.019,840.097 543.181,838.745 545.343,837.408 547.505,836.083 549.667,834.772 551.829,833.473 553.991,832.188 556.153,830.915 558.315,829.655 560.477,828.408 562.639,827.173 564.801,825.951 566.963,824.74 569.125,823.542 571.287,822.356 573.449,821.181 575.611,820.018 577.773,818.867 579.935,817.727 582.097,816.599 584.259,815.482 586.42,814.376 588.582,813.281 590.744,812.197 592.906,811.124 595.068,810.061 597.23,809.009 599.392,807.967 601.554,806.936 603.716,805.915 605.878,804.905 608.04,803.904 610.202,802.913 612.364,801.933 614.526,800.961 616.688,800 618.85,799.048 621.012,798.106 623.174,797.173 625.336,796.249 627.498,795.335 629.66,794.429 631.822,793.533 633.984,792.645 636.146,791.767 638.308,790.897 640.47,790.035 642.632,789.183 644.794,788.338 646.956,787.503 649.118,786.675 651.28,785.856 653.442,785.045 655.604,784.242 657.766,783.446 659.928,782.659 662.09,781.88 664.252,781.109 666.414,780.345 668.576,779.589 670.738,778.84 672.9,778.099 675.062,777.365 677.224,776.638 679.386,775.919 681.547,775.207 683.709,774.502 685.871,773.804 688.033,773.113 690.195,772.429 692.357,771.752 694.519,771.081 696.681,770.418 698.843,769.76 701.005,769.11 703.167,768.466 705.329,767.828 707.491,767.197 709.653,766.572 711.815,765.953 713.977,765.34 716.139,764.733 718.301,764.133 720.463,763.538 722.625,762.95 724.787,762.367 726.949,761.79 729.111,761.219 731.273,760.653 733.435,760.094 735.597,759.539 737.759,758.99 739.921,758.447 742.083,757.909 744.245,757.377 746.407,756.849 748.569,756.327 750.731,755.81 752.893,755.299 755.055,754.792 757.217,754.29 759.379,753.794 761.541,753.302 763.703,752.815 765.865,752.333 768.027,751.856 770.189,751.383 772.351,750.916 774.513,750.453 776.674,749.994 778.836,749.54 780.998,749.091 783.16,748.646 785.322,748.205 787.484,747.769 789.646,747.337 791.808,746.91 793.97,746.486 796.132,746.067 798.294,745.653 800.456,745.242 802.618,744.835 804.78,744.433 806.942,744.034 809.104,743.64 811.266,743.249 813.428,742.863 815.59,742.48 817.752,742.101 819.914,741.725 822.076,741.354 824.238,740.986 826.4,740.622 828.562,740.262 830.724,739.905 832.886,739.552 835.048,739.202 837.21,738.856 839.372,738.513 841.534,738.173 843.696,737.837 845.858,737.505 848.02,737.175 850.182,736.849 852.344,736.527 854.506,736.207 856.668,735.891 858.83,735.578 860.992,735.267 863.154,734.96 865.316,734.656 867.478,734.356 869.64,734.058 871.801,733.763 873.963,733.471 876.125,733.181 878.287,732.895 880.449,732.612 882.611,732.331 884.773,732.053 886.935,731.778 889.097,731.506 891.259,731.236 893.421,730.969 895.583,730.705 897.745,730.443 899.907,730.184 902.069,729.928 904.231,729.674 906.393,729.422 908.555,729.173 910.717,728.927 912.879,728.683 915.041,728.441 917.203,728.202 919.365,727.965 921.527,727.73 923.689,727.498 925.851,727.268 928.013,727.041 930.175,726.815 932.337,726.592 934.499,726.371 936.661,726.152 938.823,725.936 940.985,725.722 943.147,725.509 945.309,725.299 947.471,725.091 949.633,724.885 951.795,724.681 953.957,724.48 956.119,724.28 958.281,724.082 960.443,723.886 962.605,723.692 964.767,723.5 966.928,723.31 969.09,723.122 971.252,722.936 973.414,722.752 975.576,722.569 977.738,722.388 979.9,722.21 982.062,722.033 984.224,721.857 986.386,721.684 988.548,721.512 990.71,721.342 992.872,721.173 995.034,721.007 997.196,720.842 999.358,720.678 1001.52,720.517 1003.68,720.356 1005.84,720.198 1008.01,720.041 1010.17,719.886 1012.33,719.732 1014.49,719.58 1016.65,719.429 1018.82,719.28 1020.98,719.132 1023.14,718.986 1025.3,718.841 1027.46,718.697 1029.63,718.555 1031.79,718.415 1033.95,718.276 1036.11,718.138 1038.27,718.002 1040.44,717.867 1042.6,717.733 1044.76,717.601 1046.92,717.47 1049.08,717.34 1051.25,717.211 1053.41,717.084 1055.57,716.958 1057.73,716.833 1059.89,716.71 1062.06,716.588 1064.22,716.467 1066.38,716.347 1068.54,716.228 1070.7,716.111 1072.87,715.994 1075.03,715.879 1077.19,715.765 1079.35,715.652 1081.51,715.54 1083.68,715.43 1085.84,715.32 1088,715.211 1090.16,715.104 1092.32,714.997 1094.49,714.892 1096.65,714.788 1098.81,714.684 1100.97,714.582 1103.13,714.481 1105.3,714.381 1107.46,714.281 1109.62,714.183 1111.78,714.086 1113.94,713.989 1116.1,713.894 1118.27,713.8 1120.43,713.706 1122.59,713.614 1124.75,713.522 1126.91,713.431 1129.08,713.342 1131.24,713.253 1133.4,713.165 1135.56,713.078 1137.72,712.991 1139.89,712.906 1142.05,712.822 1144.21,712.738 1146.37,712.655 1148.53,712.573 1150.7,712.492 1152.86,712.412 1155.02,712.332 1157.18,712.253 1159.34,712.175 1161.51,712.098 1163.67,712.022 1165.83,711.946 1167.99,711.871 1170.15,711.797 1172.32,711.724 1174.48,711.651 1176.64,711.58 1178.8,711.508 1180.96,711.438 1183.13,711.368 1185.29,711.299 1187.45,711.231 1189.61,711.163 1191.77,711.096 1193.94,711.03 1196.1,710.964 1198.26,710.899 1200.42,710.835 1202.58,710.771 1204.75,710.708 1206.91,710.646 1209.07,710.584 1211.23,710.523 1213.39,710.462 1215.56,710.403 1217.72,710.343 1219.88,710.284 1222.04,710.226 1224.2,710.169 1226.37,710.112 1228.53,710.055 1230.69,709.999 1232.85,709.944 1235.01,709.889 1237.18,709.835 1239.34,709.781 1241.5,709.728 1243.66,709.675 1245.82,709.623 1247.99,709.572 1250.15,709.521 1252.31,709.47 1254.47,709.42 1256.63,709.37 1258.8,709.321 1260.96,709.272 1263.12,709.224 1265.28,709.176 1267.44,709.129 1269.61,709.082 1271.77,709.036 1273.93,708.99 1276.09,708.945 1278.25,708.9 1280.42,708.855 1282.58,708.811 1284.74,708.767 1286.9,708.724 1289.06,708.681 1291.23,708.639 1293.39,708.597 1295.55,708.555 1297.71,708.514 1299.87,708.473 1302.03,708.433 1304.2,708.393 1306.36,708.353 1308.52,708.314 1310.68,708.275 1312.84,708.237 1315.01,708.199 1317.17,708.161 1319.33,708.124 1321.49,708.087 1323.65,708.05 1325.82,708.014 1327.98,707.978 1330.14,707.943 1332.3,707.908 1334.46,707.873 1336.63,707.838 1338.79,707.804 1340.95,707.771 1343.11,707.737 1345.27,707.704 1347.44,707.672 1349.6,707.639 1351.76,707.607 1353.92,707.575 1356.08,707.544 1358.25,707.513 1360.41,707.482 1362.57,707.452 1364.73,707.422 1366.89,707.392 1369.06,707.362 1371.22,707.333 1373.38,707.304 1375.54,707.276 1377.7,707.247 1379.87,707.219 1382.03,707.191 1384.19,707.164 1386.35,707.137 1388.51,707.11 1390.68,707.083 1392.84,707.057 1395,707.031 1397.16,707.005 1399.32,706.979 1401.49,706.954 1403.65,706.929 1405.81,706.904 1407.97,706.879 1410.13,706.855 1412.3,706.831 1414.46,706.807 1416.62,706.784 1418.78,706.76 1420.94,706.737 1423.11,706.714 1425.27,706.692 1427.43,706.669 1429.59,706.647 1431.75,706.625 1433.92,706.603 1436.08,706.582 1438.24,706.561 1440.4,706.54 1442.56,706.519 1444.73,706.498 1446.89,706.478 1449.05,706.457 1451.21,706.437 1453.37,706.417 1455.54,706.398 1457.7,706.378 1459.86,706.359 1462.02,706.34 1464.18,706.321 1466.35,706.302 1468.51,706.284 1470.67,706.265 1472.83,706.247 1474.99,706.229 1477.16,706.211 1479.32,706.194 1481.48,706.176 1483.64,706.159 1485.8,706.142 1487.97,706.125 1490.13,706.108 1492.29,706.091 1494.45,706.075 1496.61,706.058 1498.77,706.042 1500.94,706.026 1503.1,706.01 1505.26,705.994 1507.42,705.979 1509.58,705.963 1511.75,705.948 1513.91,705.933 1516.07,705.918 1518.23,705.903 1520.39,705.888 1522.56,705.873 1524.72,705.859 1526.88,705.845 1529.04,705.831 1531.2,705.816 1533.37,705.803 1535.53,705.789 1537.69,705.775 1539.85,705.762 1542.01,705.748 1544.18,705.735 1546.34,705.722 1548.5,705.709 1550.66,705.696 1552.82,705.684 1554.99,705.671 1557.15,705.659 1559.31,705.646 1561.47,705.634 1563.63,705.622 1565.8,705.61 1567.96,705.598 1570.12,705.586 1572.28,705.575 1574.44,705.563 1576.61,705.552 1578.77,705.541 1580.93,705.53 1583.09,705.519 1585.25,705.508 1587.42,705.497 1589.58,705.486 1591.74,705.476 1593.9,705.465 1596.06,705.455 1598.23,705.445 1600.39,705.434 1602.55,705.424 1604.71,705.414 1606.87,705.405 1609.04,705.395 1611.2,705.385 1613.36,705.376 1615.52,705.366 1617.68,705.357 1619.85,705.348 1622.01,705.339 1624.17,705.329 1626.33,705.321 1628.49,705.312 1630.66,705.303 1632.82,705.294 1634.98,705.286 1637.14,705.277 1639.3,705.269 1641.47,705.26 1643.63,705.252 1645.79,705.244 1647.95,705.236 1650.11,705.228 1652.28,705.22 1654.44,705.212 1656.6,705.205 1658.76,705.197 1660.92,705.189 1663.09,705.182 1665.25,705.174 1667.41,705.167 1669.57,705.16 1671.73,705.153 1673.9,705.146 1676.06,705.138 1678.22,705.131 1680.38,705.125 1682.54,705.118 1684.7,705.111 1686.87,705.104 1689.03,705.098 1691.19,705.091 1693.35,705.085 1695.51,705.078 1697.68,705.072 1699.84,705.066 1702,705.059 1704.16,705.053 1706.32,705.047 1708.49,705.041 1710.65,705.035 1712.81,705.029 1714.97,705.023 1717.13,705.017 1719.3,705.012 1721.46,705.006 1723.62,705 1725.78,704.995 1727.94,704.989 1730.11,704.984 1732.27,704.978 1734.43,704.973 1736.59,704.968 1738.75,704.962 1740.92,704.957 1743.08,704.952 1745.24,704.947 1747.4,704.942 1749.56,704.937 1751.73,704.932 1753.89,704.927 1756.05,704.922 1758.21,704.917 1760.37,704.912 1762.54,704.907 1764.7,704.902 1766.86,704.898 1769.02,704.893 1771.18,704.888 1773.35,704.884 1775.51,704.879 1777.67,704.875 1779.83,704.87 1781.99,704.866 1784.16,704.861 1786.32,704.857 1788.48,704.853 1790.64,704.849 1792.8,704.844 1794.97,704.84 1797.13,704.836 1799.29,704.832 1801.45,704.828 1803.61,704.824 1805.78,704.82 1807.94,704.816 1810.1,704.812 1812.26,704.808 1814.42,704.804 1816.59,704.801 1818.75,704.797 1820.91,704.793 1823.07,704.789 1825.23,704.786 1827.4,704.782 1829.56,704.779 1831.72,704.775 1833.88,704.772 1836.04,704.768 1838.21,704.765 1840.37,704.761 1842.53,704.758 1844.69,704.755 1846.85,704.751 1849.02,704.748 1851.18,704.745 1853.34,704.742 1855.5,704.739 1857.66,704.735 1859.83,704.732 1861.99,704.729 1864.15,704.726 1866.31,704.723 1868.47,704.72 1870.63,704.717 1872.8,704.715 1874.96,704.712 1877.12,704.709 1879.28,704.706 1881.44,704.703 1883.61,704.7 1885.77,704.698 1887.93,704.695 1890.09,704.692 1892.25,704.69 1894.42,704.687 1896.58,704.685 1898.74,704.682 1900.9,704.68 1903.06,704.677 1905.23,704.675 1907.39,704.672 1909.55,704.67 1911.71,704.667 1913.87,704.665 1916.04,704.663 1918.2,704.66 1920.36,704.658 1922.52,704.656 1924.68,704.654 1926.85,704.651 1929.01,704.649 1931.17,704.647 1933.33,704.645 1935.49,704.643 1937.66,704.641 1939.82,704.639 1941.98,704.637 1944.14,704.635 1946.3,704.633 1948.47,704.631 1950.63,704.629 1952.79,704.627 1954.95,704.625 1957.11,704.623 1959.28,704.621 1961.44,704.619 1963.6,704.617 1965.76,704.616 1967.92,704.614 1970.09,704.612 1972.25,704.61 1974.41,704.608 1976.57,704.607 1978.73,704.605 1980.9,704.603 1983.06,704.602 1985.22,704.6 1987.38,704.598 1989.54,704.597 1991.71,704.595 1993.87,704.594 1996.03,704.592 1998.19,704.591 2000.35,704.589 2002.52,704.588 2004.68,704.586 2006.84,704.585 2009,704.583 2011.16,704.582 2013.33,704.58 2015.49,704.579 2017.65,704.577 2019.81,704.576 2021.97,704.575 2024.14,704.573 2026.3,704.572 2028.46,704.57 2030.62,704.569 2032.78,704.568 2034.95,704.566 2037.11,704.565 2039.27,704.564 2041.43,704.563 2043.59,704.561 2045.76,704.56 2047.92,704.559 2050.08,704.558 2052.24,704.556 2054.4,704.555 2056.57,704.554 2058.73,704.553 2060.89,704.551 2063.05,704.55 2065.21,704.549 2067.37,704.548 2069.54,704.547 2071.7,704.546 2073.86,704.544 2076.02,704.543 2078.18,704.542 2080.35,704.541 2082.51,704.54 2084.67,704.539 2086.83,704.538 2088.99,704.537 2091.16,704.536 2093.32,704.535 2095.48,704.534 2097.64,704.532 2099.8,704.531 2101.97,704.53 2104.13,704.529 2106.29,704.528 2108.45,704.527 2110.61,704.527 2112.78,704.526 2114.94,704.525 2117.1,704.524 2119.26,704.523 2121.42,704.522 2123.59,704.521 2125.75,704.52 2127.91,704.519 2130.07,704.518 2132.23,704.517 2134.4,704.516 2136.56,704.516 2138.72,704.515 2140.88,704.514 2143.04,704.513 2145.21,704.512 2147.37,704.511 2149.53,704.511 2151.69,704.51 2153.85,704.509 2156.02,704.508 2158.18,704.507 2160.34,704.507 2162.5,704.506 2164.66,704.505 2166.83,704.504 2168.99,704.504 2171.15,704.503 2173.31,704.502 2175.47,704.501 2177.64,704.501 2179.8,704.5 2181.96,704.499 2184.12,704.499 2186.28,704.498 2188.45,704.497 2190.61,704.497 2192.77,704.496 2194.93,704.495 2197.09,704.495 2199.26,704.494 2201.42,704.493 2203.58,704.493 2205.74,704.492 2207.9,704.491 2210.07,704.491 2212.23,704.49 2214.39,704.49 2216.55,704.489 2218.71,704.488 2220.88,704.488 2223.04,704.487 2225.2,704.487 2227.36,704.486 2229.52,704.486 2231.69,704.485 2233.85,704.485 2236.01,704.484 2238.17,704.484 2240.33,704.483 2242.5,704.483 2244.66,704.482 2246.82,704.481 2248.98,704.481 2251.14,704.48 2253.3,704.48 2255.47,704.48 2257.63,704.479 2259.79,704.479 2261.95,704.478 2264.11,704.478 2266.28,704.477 2268.44,704.477 2270.6,704.476 2272.76,704.476 2274.92,704.475 2277.09,704.475 2279.25,704.475 2281.41,704.474 2283.57,704.474 2285.73,704.473 2287.9,704.473 2290.06,704.472 2292.22,704.472 2294.38,704.472 2296.54,704.471 2298.71,704.471 2300.87,704.47 2303.03,704.47 2305.19,704.47 2307.35,704.469 2309.52,704.469 2311.68,704.469 2313.84,704.468 2316,704.468 2318.16,704.467 2320.33,704.467 2322.49,704.467 2324.65,704.466 2326.81,704.466 2328.97,704.466 2331.14,704.465 2333.3,704.465 2335.46,704.465 2337.62,704.464 2339.78,704.464 2341.95,704.464 2344.11,704.463 2346.27,704.463 2348.43,704.463 2350.59,704.462 2352.76,704.462 "/>
<polyline clip-path="url(#clip512)" style="stroke:#e26f46; stroke-linecap:round; stroke-linejoin:round; stroke-width:4; stroke-opacity:1; fill:none" points="192.941,86.1857 195.103,90.19 197.265,94.1674 199.427,98.118 201.589,102.042 203.751,105.94 205.912,109.811 208.074,113.656 210.236,117.476 212.398,121.269 214.56,125.037 216.722,128.78 218.884,132.498 221.046,136.191 223.208,139.859 225.37,143.502 227.532,147.121 229.694,150.716 231.856,154.287 234.018,157.834 236.18,161.356 238.342,164.856 240.504,168.332 242.666,171.785 244.828,175.214 246.99,178.621 249.152,182.005 251.314,185.366 253.476,188.705 255.638,192.022 257.8,195.316 259.962,198.588 262.124,201.839 264.286,205.068 266.448,208.276 268.61,211.462 270.772,214.627 272.934,217.77 275.096,220.893 277.258,223.995 279.42,227.077 281.582,230.138 283.744,233.178 285.906,236.199 288.068,239.199 290.23,242.179 292.392,245.14 294.554,248.081 296.716,251.003 298.878,253.905 301.039,256.787 303.201,259.651 305.363,262.496 307.525,265.322 309.687,268.129 311.849,270.918 314.011,273.688 316.173,276.44 318.335,279.173 320.497,281.889 322.659,284.587 324.821,287.267 326.983,289.929 329.145,292.573 331.307,295.2 333.469,297.81 335.631,300.403 337.793,302.978 339.955,305.537 342.117,308.078 344.279,310.603 346.441,313.112 348.603,315.603 350.765,318.079 352.927,320.538 355.089,322.981 357.251,325.407 359.413,327.818 361.575,330.213 363.737,332.593 365.899,334.956 368.061,337.304 370.223,339.637 372.385,341.955 374.547,344.257 376.709,346.544 378.871,348.816 381.033,351.073 383.195,353.316 385.357,355.543 387.519,357.757 389.681,359.955 391.843,362.14 394.005,364.31 396.166,366.465 398.328,368.607 400.49,370.735 402.652,372.849 404.814,374.948 406.976,377.035 409.138,379.107 411.3,381.167 413.462,383.212 415.624,385.245 417.786,387.264 419.948,389.27 422.11,391.263 424.272,393.242 426.434,395.209 428.596,397.164 430.758,399.105 432.92,401.034 435.082,402.95 437.244,404.854 439.406,406.745 441.568,408.625 443.73,410.491 445.892,412.346 448.054,414.189 450.216,416.02 452.378,417.839 454.54,419.646 456.702,421.441 458.864,423.225 461.026,424.997 463.188,426.757 465.35,428.507 467.512,430.245 469.674,431.971 471.836,433.687 473.998,435.391 476.16,437.084 478.322,438.767 480.484,440.438 482.646,442.099 484.808,443.748 486.97,445.388 489.132,447.016 491.293,448.634 493.455,450.242 495.617,451.839 497.779,453.426 499.941,455.003 502.103,456.569 504.265,458.126 506.427,459.672 508.589,461.209 510.751,462.735 512.913,464.252 515.075,465.759 517.237,467.256 519.399,468.743 521.561,470.221 523.723,471.69 525.885,473.149 528.047,474.599 530.209,476.039 532.371,477.47 534.533,478.892 536.695,480.304 538.857,481.708 541.019,483.103 543.181,484.488 545.343,485.865 547.505,487.233 549.667,488.592 551.829,489.943 553.991,491.284 556.153,492.618 558.315,493.942 560.477,495.258 562.639,496.566 564.801,497.865 566.963,499.156 569.125,500.439 571.287,501.713 573.449,502.98 575.611,504.238 577.773,505.488 579.935,506.73 582.097,507.964 584.259,509.191 586.42,510.409 588.582,511.62 590.744,512.823 592.906,514.018 595.068,515.206 597.23,516.386 599.392,517.558 601.554,518.723 603.716,519.881 605.878,521.031 608.04,522.174 610.202,523.309 612.364,524.438 614.526,525.559 616.688,526.673 618.85,527.78 621.012,528.88 623.174,529.972 625.336,531.058 627.498,532.137 629.66,533.209 631.822,534.275 633.984,535.333 636.146,536.385 638.308,537.43 640.47,538.469 642.632,539.501 644.794,540.526 646.956,541.545 649.118,542.557 651.28,543.563 653.442,544.562 655.604,545.556 657.766,546.542 659.928,547.523 662.09,548.497 664.252,549.466 666.414,550.428 668.576,551.384 670.738,552.333 672.9,553.277 675.062,554.215 677.224,555.147 679.386,556.073 681.547,556.993 683.709,557.908 685.871,558.816 688.033,559.719 690.195,560.616 692.357,561.507 694.519,562.393 696.681,563.273 698.843,564.148 701.005,565.017 703.167,565.881 705.329,566.739 707.491,567.591 709.653,568.439 711.815,569.281 713.977,570.117 716.139,570.948 718.301,571.775 720.463,572.595 722.625,573.411 724.787,574.222 726.949,575.027 729.111,575.827 731.273,576.623 733.435,577.413 735.597,578.198 737.759,578.979 739.921,579.754 742.083,580.525 744.245,581.291 746.407,582.051 748.569,582.808 750.731,583.559 752.893,584.305 755.055,585.047 757.217,585.785 759.379,586.517 761.541,587.245 763.703,587.969 765.865,588.688 768.027,589.402 770.189,590.112 772.351,590.817 774.513,591.519 776.674,592.215 778.836,592.907 780.998,593.595 783.16,594.279 785.322,594.958 787.484,595.633 789.646,596.304 791.808,596.971 793.97,597.633 796.132,598.291 798.294,598.945 800.456,599.595 802.618,600.241 804.78,600.883 806.942,601.521 809.104,602.155 811.266,602.785 813.428,603.411 815.59,604.033 817.752,604.651 819.914,605.265 822.076,605.875 824.238,606.482 826.4,607.085 828.562,607.684 830.724,608.279 832.886,608.87 835.048,609.458 837.21,610.042 839.372,610.623 841.534,611.2 843.696,611.773 845.858,612.343 848.02,612.909 850.182,613.471 852.344,614.03 854.506,614.586 856.668,615.138 858.83,615.687 860.992,616.232 863.154,616.774 865.316,617.312 867.478,617.847 869.64,618.379 871.801,618.907 873.963,619.432 876.125,619.954 878.287,620.473 880.449,620.988 882.611,621.5 884.773,622.009 886.935,622.515 889.097,623.018 891.259,623.517 893.421,624.014 895.583,624.507 897.745,624.997 899.907,625.485 902.069,625.969 904.231,626.45 906.393,626.928 908.555,627.403 910.717,627.876 912.879,628.345 915.041,628.811 917.203,629.275 919.365,629.736 921.527,630.193 923.689,630.648 925.851,631.1 928.013,631.55 930.175,631.996 932.337,632.44 934.499,632.881 936.661,633.319 938.823,633.755 940.985,634.188 943.147,634.618 945.309,635.045 947.471,635.47 949.633,635.892 951.795,636.312 953.957,636.729 956.119,637.143 958.281,637.555 960.443,637.964 962.605,638.371 964.767,638.775 966.928,639.176 969.09,639.576 971.252,639.972 973.414,640.366 975.576,640.758 977.738,641.148 979.9,641.534 982.062,641.919 984.224,642.301 986.386,642.681 988.548,643.058 990.71,643.433 992.872,643.806 995.034,644.177 997.196,644.545 999.358,644.911 1001.52,645.274 1003.68,645.636 1005.84,645.995 1008.01,646.352 1010.17,646.706 1012.33,647.059 1014.49,647.409 1016.65,647.757 1018.82,648.103 1020.98,648.447 1023.14,648.789 1025.3,649.128 1027.46,649.466 1029.63,649.801 1031.79,650.135 1033.95,650.466 1036.11,650.795 1038.27,651.123 1040.44,651.448 1042.6,651.771 1044.76,652.092 1046.92,652.411 1049.08,652.729 1051.25,653.044 1053.41,653.357 1055.57,653.669 1057.73,653.978 1059.89,654.286 1062.06,654.592 1064.22,654.895 1066.38,655.197 1068.54,655.497 1070.7,655.796 1072.87,656.092 1075.03,656.387 1077.19,656.68 1079.35,656.971 1081.51,657.26 1083.68,657.547 1085.84,657.833 1088,658.117 1090.16,658.399 1092.32,658.679 1094.49,658.958 1096.65,659.235 1098.81,659.51 1100.97,659.784 1103.13,660.056 1105.3,660.326 1107.46,660.595 1109.62,660.862 1111.78,661.127 1113.94,661.39 1116.1,661.652 1118.27,661.913 1120.43,662.172 1122.59,662.429 1124.75,662.685 1126.91,662.939 1129.08,663.191 1131.24,663.442 1133.4,663.691 1135.56,663.939 1137.72,664.186 1139.89,664.43 1142.05,664.674 1144.21,664.916 1146.37,665.156 1148.53,665.395 1150.7,665.632 1152.86,665.868 1155.02,666.103 1157.18,666.336 1159.34,666.567 1161.51,666.797 1163.67,667.026 1165.83,667.253 1167.99,667.479 1170.15,667.704 1172.32,667.927 1174.48,668.149 1176.64,668.369 1178.8,668.588 1180.96,668.806 1183.13,669.023 1185.29,669.238 1187.45,669.451 1189.61,669.664 1191.77,669.875 1193.94,670.085 1196.1,670.293 1198.26,670.501 1200.42,670.707 1202.58,670.912 1204.75,671.115 1206.91,671.317 1209.07,671.518 1211.23,671.718 1213.39,671.917 1215.56,672.114 1217.72,672.31 1219.88,672.505 1222.04,672.699 1224.2,672.891 1226.37,673.083 1228.53,673.273 1230.69,673.462 1232.85,673.65 1235.01,673.836 1237.18,674.022 1239.34,674.207 1241.5,674.39 1243.66,674.572 1245.82,674.753 1247.99,674.933 1250.15,675.112 1252.31,675.29 1254.47,675.467 1256.63,675.642 1258.8,675.817 1260.96,675.99 1263.12,676.163 1265.28,676.334 1267.44,676.504 1269.61,676.674 1271.77,676.842 1273.93,677.009 1276.09,677.176 1278.25,677.341 1280.42,677.505 1282.58,677.668 1284.74,677.831 1286.9,677.992 1289.06,678.152 1291.23,678.311 1293.39,678.47 1295.55,678.627 1297.71,678.783 1299.87,678.939 1302.03,679.093 1304.2,679.247 1306.36,679.4 1308.52,679.551 1310.68,679.702 1312.84,679.852 1315.01,680.001 1317.17,680.149 1319.33,680.296 1321.49,680.442 1323.65,680.587 1325.82,680.732 1327.98,680.875 1330.14,681.018 1332.3,681.16 1334.46,681.301 1336.63,681.441 1338.79,681.58 1340.95,681.718 1343.11,681.856 1345.27,681.993 1347.44,682.128 1349.6,682.263 1351.76,682.398 1353.92,682.531 1356.08,682.664 1358.25,682.795 1360.41,682.926 1362.57,683.056 1364.73,683.186 1366.89,683.314 1369.06,683.442 1371.22,683.569 1373.38,683.695 1375.54,683.821 1377.7,683.945 1379.87,684.069 1382.03,684.192 1384.19,684.315 1386.35,684.436 1388.51,684.557 1390.68,684.678 1392.84,684.797 1395,684.916 1397.16,685.034 1399.32,685.151 1401.49,685.268 1403.65,685.383 1405.81,685.499 1407.97,685.613 1410.13,685.727 1412.3,685.84 1414.46,685.952 1416.62,686.064 1418.78,686.175 1420.94,686.285 1423.11,686.395 1425.27,686.504 1427.43,686.612 1429.59,686.72 1431.75,686.827 1433.92,686.933 1436.08,687.039 1438.24,687.144 1440.4,687.248 1442.56,687.352 1444.73,687.455 1446.89,687.558 1449.05,687.659 1451.21,687.761 1453.37,687.861 1455.54,687.961 1457.7,688.061 1459.86,688.16 1462.02,688.258 1464.18,688.356 1466.35,688.453 1468.51,688.549 1470.67,688.645 1472.83,688.74 1474.99,688.835 1477.16,688.929 1479.32,689.023 1481.48,689.116 1483.64,689.208 1485.8,689.3 1487.97,689.392 1490.13,689.482 1492.29,689.573 1494.45,689.662 1496.61,689.752 1498.77,689.84 1500.94,689.928 1503.1,690.016 1505.26,690.103 1507.42,690.189 1509.58,690.275 1511.75,690.361 1513.91,690.446 1516.07,690.53 1518.23,690.614 1520.39,690.698 1522.56,690.781 1524.72,690.863 1526.88,690.945 1529.04,691.026 1531.2,691.107 1533.37,691.188 1535.53,691.268 1537.69,691.347 1539.85,691.426 1542.01,691.505 1544.18,691.583 1546.34,691.66 1548.5,691.737 1550.66,691.814 1552.82,691.89 1554.99,691.966 1557.15,692.041 1559.31,692.116 1561.47,692.19 1563.63,692.264 1565.8,692.337 1567.96,692.41 1570.12,692.483 1572.28,692.555 1574.44,692.627 1576.61,692.698 1578.77,692.769 1580.93,692.839 1583.09,692.909 1585.25,692.979 1587.42,693.048 1589.58,693.116 1591.74,693.185 1593.9,693.252 1596.06,693.32 1598.23,693.387 1600.39,693.453 1602.55,693.52 1604.71,693.585 1606.87,693.651 1609.04,693.716 1611.2,693.78 1613.36,693.845 1615.52,693.908 1617.68,693.972 1619.85,694.035 1622.01,694.098 1624.17,694.16 1626.33,694.222 1628.49,694.283 1630.66,694.344 1632.82,694.405 1634.98,694.466 1637.14,694.526 1639.3,694.585 1641.47,694.645 1643.63,694.704 1645.79,694.762 1647.95,694.82 1650.11,694.878 1652.28,694.936 1654.44,694.993 1656.6,695.05 1658.76,695.106 1660.92,695.162 1663.09,695.218 1665.25,695.274 1667.41,695.329 1669.57,695.384 1671.73,695.438 1673.9,695.492 1676.06,695.546 1678.22,695.599 1680.38,695.653 1682.54,695.705 1684.7,695.758 1686.87,695.81 1689.03,695.862 1691.19,695.914 1693.35,695.965 1695.51,696.016 1697.68,696.066 1699.84,696.117 1702,696.167 1704.16,696.216 1706.32,696.266 1708.49,696.315 1710.65,696.364 1712.81,696.412 1714.97,696.461 1717.13,696.508 1719.3,696.556 1721.46,696.604 1723.62,696.651 1725.78,696.697 1727.94,696.744 1730.11,696.79 1732.27,696.836 1734.43,696.882 1736.59,696.927 1738.75,696.972 1740.92,697.017 1743.08,697.062 1745.24,697.106 1747.4,697.15 1749.56,697.194 1751.73,697.238 1753.89,697.281 1756.05,697.324 1758.21,697.367 1760.37,697.409 1762.54,697.451 1764.7,697.493 1766.86,697.535 1769.02,697.577 1771.18,697.618 1773.35,697.659 1775.51,697.7 1777.67,697.74 1779.83,697.781 1781.99,697.821 1784.16,697.86 1786.32,697.9 1788.48,697.939 1790.64,697.978 1792.8,698.017 1794.97,698.056 1797.13,698.094 1799.29,698.133 1801.45,698.17 1803.61,698.208 1805.78,698.246 1807.94,698.283 1810.1,698.32 1812.26,698.357 1814.42,698.393 1816.59,698.43 1818.75,698.466 1820.91,698.502 1823.07,698.538 1825.23,698.573 1827.4,698.608 1829.56,698.643 1831.72,698.678 1833.88,698.713 1836.04,698.747 1838.21,698.782 1840.37,698.816 1842.53,698.849 1844.69,698.883 1846.85,698.916 1849.02,698.95 1851.18,698.983 1853.34,699.015 1855.5,699.048 1857.66,699.08 1859.83,699.113 1861.99,699.145 1864.15,699.176 1866.31,699.208 1868.47,699.239 1870.63,699.271 1872.8,699.302 1874.96,699.333 1877.12,699.363 1879.28,699.394 1881.44,699.424 1883.61,699.454 1885.77,699.484 1887.93,699.514 1890.09,699.543 1892.25,699.573 1894.42,699.602 1896.58,699.631 1898.74,699.66 1900.9,699.689 1903.06,699.717 1905.23,699.745 1907.39,699.774 1909.55,699.802 1911.71,699.829 1913.87,699.857 1916.04,699.885 1918.2,699.912 1920.36,699.939 1922.52,699.966 1924.68,699.993 1926.85,700.02 1929.01,700.046 1931.17,700.072 1933.33,700.099 1935.49,700.125 1937.66,700.15 1939.82,700.176 1941.98,700.202 1944.14,700.227 1946.3,700.252 1948.47,700.277 1950.63,700.302 1952.79,700.327 1954.95,700.352 1957.11,700.376 1959.28,700.4 1961.44,700.425 1963.6,700.449 1965.76,700.473 1967.92,700.496 1970.09,700.52 1972.25,700.543 1974.41,700.567 1976.57,700.59 1978.73,700.613 1980.9,700.636 1983.06,700.659 1985.22,700.681 1987.38,700.704 1989.54,700.726 1991.71,700.748 1993.87,700.77 1996.03,700.792 1998.19,700.814 2000.35,700.836 2002.52,700.857 2004.68,700.879 2006.84,700.9 2009,700.921 2011.16,700.942 2013.33,700.963 2015.49,700.984 2017.65,701.005 2019.81,701.025 2021.97,701.046 2024.14,701.066 2026.3,701.086 2028.46,701.106 2030.62,701.126 2032.78,701.146 2034.95,701.166 2037.11,701.185 2039.27,701.205 2041.43,701.224 2043.59,701.243 2045.76,701.262 2047.92,701.281 2050.08,701.3 2052.24,701.319 2054.4,701.338 2056.57,701.356 2058.73,701.375 2060.89,701.393 2063.05,701.411 2065.21,701.429 2067.37,701.447 2069.54,701.465 2071.7,701.483 2073.86,701.501 2076.02,701.518 2078.18,701.536 2080.35,701.553 2082.51,701.571 2084.67,701.588 2086.83,701.605 2088.99,701.622 2091.16,701.639 2093.32,701.655 2095.48,701.672 2097.64,701.689 2099.8,701.705 2101.97,701.722 2104.13,701.738 2106.29,701.754 2108.45,701.77 2110.61,701.786 2112.78,701.802 2114.94,701.818 2117.1,701.833 2119.26,701.849 2121.42,701.865 2123.59,701.88 2125.75,701.895 2127.91,701.911 2130.07,701.926 2132.23,701.941 2134.4,701.956 2136.56,701.971 2138.72,701.985 2140.88,702 2143.04,702.015 2145.21,702.029 2147.37,702.044 2149.53,702.058 2151.69,702.072 2153.85,702.086 2156.02,702.1 2158.18,702.114 2160.34,702.128 2162.5,702.142 2164.66,702.156 2166.83,702.17 2168.99,702.183 2171.15,702.197 2173.31,702.21 2175.47,702.223 2177.64,702.237 2179.8,702.25 2181.96,702.263 2184.12,702.276 2186.28,702.289 2188.45,702.302 2190.61,702.315 2192.77,702.327 2194.93,702.34 2197.09,702.352 2199.26,702.365 2201.42,702.377 2203.58,702.39 2205.74,702.402 2207.9,702.414 2210.07,702.426 2212.23,702.438 2214.39,702.45 2216.55,702.462 2218.71,702.474 2220.88,702.486 2223.04,702.497 2225.2,702.509 2227.36,702.52 2229.52,702.532 2231.69,702.543 2233.85,702.555 2236.01,702.566 2238.17,702.577 2240.33,702.588 2242.5,702.599 2244.66,702.61 2246.82,702.621 2248.98,702.632 2251.14,702.643 2253.3,702.653 2255.47,702.664 2257.63,702.675 2259.79,702.685 2261.95,702.696 2264.11,702.706 2266.28,702.716 2268.44,702.727 2270.6,702.737 2272.76,702.747 2274.92,702.757 2277.09,702.767 2279.25,702.777 2281.41,702.787 2283.57,702.797 2285.73,702.807 2287.9,702.816 2290.06,702.826 2292.22,702.836 2294.38,702.845 2296.54,702.855 2298.71,702.864 2300.87,702.874 2303.03,702.883 2305.19,702.892 2307.35,702.901 2309.52,702.911 2311.68,702.92 2313.84,702.929 2316,702.938 2318.16,702.947 2320.33,702.956 2322.49,702.964 2324.65,702.973 2326.81,702.982 2328.97,702.991 2331.14,702.999 2333.3,703.008 2335.46,703.016 2337.62,703.025 2339.78,703.033 2341.95,703.042 2344.11,703.05 2346.27,703.058 2348.43,703.066 2350.59,703.075 2352.76,703.083 "/>
<path clip-path="url(#clip510)" d="M1805.38 248.629 L2280.76 248.629 L2280.76 93.1086 L1805.38 93.1086  Z" fill="#ffffff" fill-rule="evenodd" fill-opacity="1"/>
<polyline clip-path="url(#clip510)" style="stroke:#000000; stroke-linecap:round; stroke-linejoin:round; stroke-width:4; stroke-opacity:1; fill:none" points="1805.38,248.629 2280.76,248.629 2280.76,93.1086 1805.38,93.1086 1805.38,248.629 "/>
<polyline clip-path="url(#clip510)" style="stroke:#009af9; stroke-linecap:round; stroke-linejoin:round; stroke-width:4; stroke-opacity:1; fill:none" points="1829.38,144.949 1973.37,144.949 "/>
<path clip-path="url(#clip510)" d="M1997.37 136.303 L2001.88 136.303 L2009.98 158.062 L2018.08 136.303 L2022.6 136.303 L2012.88 162.229 L2007.09 162.229 L1997.37 136.303 Z" fill="#000000" fill-rule="nonzero" fill-opacity="1" /><path clip-path="url(#clip510)" d="M2029.89 158.293 L2037.53 158.293 L2037.53 131.928 L2029.22 133.595 L2029.22 129.335 L2037.48 127.669 L2042.16 127.669 L2042.16 158.293 L2049.8 158.293 L2049.8 162.229 L2029.89 162.229 L2029.89 158.293 Z" fill="#000000" fill-rule="nonzero" fill-opacity="1" /><path clip-path="url(#clip510)" d="M2067.9 145.585 L2067.9 152.807 L2076.02 152.807 L2076.02 155.006 L2067.9 155.006 L2067.9 162.229 L2065.47 162.229 L2065.47 155.006 L2057.34 155.006 L2057.34 152.807 L2065.47 152.807 L2065.47 145.585 L2067.9 145.585 Z" fill="#000000" fill-rule="nonzero" fill-opacity="1" /><path clip-path="url(#clip510)" d="M2100.19 137.067 L2100.19 141.094 Q2098.39 140.169 2096.44 139.706 Q2094.5 139.243 2092.41 139.243 Q2089.24 139.243 2087.64 140.215 Q2086.07 141.187 2086.07 143.131 Q2086.07 144.613 2087.2 145.469 Q2088.34 146.303 2091.76 147.067 L2093.22 147.391 Q2097.76 148.363 2099.66 150.145 Q2101.58 151.905 2101.58 155.076 Q2101.58 158.687 2098.71 160.793 Q2095.86 162.9 2090.86 162.9 Q2088.78 162.9 2086.51 162.483 Q2084.27 162.09 2081.77 161.28 L2081.77 156.881 Q2084.13 158.108 2086.42 158.733 Q2088.71 159.335 2090.95 159.335 Q2093.96 159.335 2095.58 158.317 Q2097.2 157.275 2097.2 155.4 Q2097.2 153.664 2096.02 152.738 Q2094.87 151.812 2090.91 150.956 L2089.43 150.608 Q2085.47 149.775 2083.71 148.062 Q2081.95 146.326 2081.95 143.317 Q2081.95 139.659 2084.54 137.669 Q2087.14 135.678 2091.9 135.678 Q2094.26 135.678 2096.35 136.025 Q2098.43 136.372 2100.19 137.067 Z" fill="#000000" fill-rule="nonzero" fill-opacity="1" /><path clip-path="url(#clip510)" d="M2112.58 128.942 L2112.58 136.303 L2121.35 136.303 L2121.35 139.613 L2112.58 139.613 L2112.58 153.687 Q2112.58 156.858 2113.43 157.761 Q2114.31 158.664 2116.97 158.664 L2121.35 158.664 L2121.35 162.229 L2116.97 162.229 Q2112.04 162.229 2110.17 160.4 Q2108.29 158.548 2108.29 153.687 L2108.29 139.613 L2105.17 139.613 L2105.17 136.303 L2108.29 136.303 L2108.29 128.942 L2112.58 128.942 Z" fill="#000000" fill-rule="nonzero" fill-opacity="1" /><path clip-path="url(#clip510)" d="M2137 139.289 Q2133.57 139.289 2131.58 141.974 Q2129.59 144.636 2129.59 149.289 Q2129.59 153.942 2131.56 156.627 Q2133.55 159.289 2137 159.289 Q2140.4 159.289 2142.39 156.604 Q2144.38 153.918 2144.38 149.289 Q2144.38 144.682 2142.39 141.997 Q2140.4 139.289 2137 139.289 M2137 135.678 Q2142.55 135.678 2145.72 139.289 Q2148.89 142.9 2148.89 149.289 Q2148.89 155.655 2145.72 159.289 Q2142.55 162.9 2137 162.9 Q2131.42 162.9 2128.25 159.289 Q2125.1 155.655 2125.1 149.289 Q2125.1 142.9 2128.25 139.289 Q2131.42 135.678 2137 135.678 Z" fill="#000000" fill-rule="nonzero" fill-opacity="1" /><path clip-path="url(#clip510)" d="M2170.98 140.284 Q2170.26 139.868 2169.4 139.682 Q2168.57 139.474 2167.55 139.474 Q2163.94 139.474 2162 141.835 Q2160.07 144.173 2160.07 148.571 L2160.07 162.229 L2155.79 162.229 L2155.79 136.303 L2160.07 136.303 L2160.07 140.331 Q2161.42 137.969 2163.57 136.835 Q2165.72 135.678 2168.8 135.678 Q2169.24 135.678 2169.77 135.747 Q2170.31 135.794 2170.95 135.909 L2170.98 140.284 Z" fill="#000000" fill-rule="nonzero" fill-opacity="1" /><path clip-path="url(#clip510)" d="M2187.23 149.196 Q2182.07 149.196 2180.07 150.377 Q2178.08 151.557 2178.08 154.405 Q2178.08 156.673 2179.57 158.016 Q2181.07 159.335 2183.64 159.335 Q2187.18 159.335 2189.31 156.835 Q2191.46 154.312 2191.46 150.145 L2191.46 149.196 L2187.23 149.196 M2195.72 147.437 L2195.72 162.229 L2191.46 162.229 L2191.46 158.293 Q2190.01 160.655 2187.83 161.789 Q2185.65 162.9 2182.51 162.9 Q2178.52 162.9 2176.16 160.678 Q2173.82 158.432 2173.82 154.682 Q2173.82 150.307 2176.74 148.085 Q2179.68 145.863 2185.49 145.863 L2191.46 145.863 L2191.46 145.446 Q2191.46 142.507 2189.52 140.909 Q2187.6 139.289 2184.1 139.289 Q2181.88 139.289 2179.77 139.821 Q2177.67 140.354 2175.72 141.419 L2175.72 137.483 Q2178.06 136.581 2180.26 136.141 Q2182.46 135.678 2184.54 135.678 Q2190.17 135.678 2192.95 138.594 Q2195.72 141.511 2195.72 147.437 Z" fill="#000000" fill-rule="nonzero" fill-opacity="1" /><path clip-path="url(#clip510)" d="M2221.56 148.965 Q2221.56 144.335 2219.63 141.789 Q2217.74 139.243 2214.29 139.243 Q2210.86 139.243 2208.94 141.789 Q2207.04 144.335 2207.04 148.965 Q2207.04 153.571 2208.94 156.118 Q2210.86 158.664 2214.29 158.664 Q2217.74 158.664 2219.63 156.118 Q2221.56 153.571 2221.56 148.965 M2225.82 159.011 Q2225.82 165.631 2222.88 168.849 Q2219.94 172.09 2213.87 172.09 Q2211.63 172.09 2209.63 171.742 Q2207.64 171.418 2205.77 170.724 L2205.77 166.58 Q2207.64 167.599 2209.47 168.085 Q2211.3 168.571 2213.2 168.571 Q2217.39 168.571 2219.47 166.372 Q2221.56 164.196 2221.56 159.775 L2221.56 157.668 Q2220.24 159.96 2218.18 161.094 Q2216.12 162.229 2213.25 162.229 Q2208.48 162.229 2205.56 158.594 Q2202.64 154.96 2202.64 148.965 Q2202.64 142.946 2205.56 139.312 Q2208.48 135.678 2213.25 135.678 Q2216.12 135.678 2218.18 136.812 Q2220.24 137.946 2221.56 140.238 L2221.56 136.303 L2225.82 136.303 L2225.82 159.011 Z" fill="#000000" fill-rule="nonzero" fill-opacity="1" /><path clip-path="url(#clip510)" d="M2256.76 148.201 L2256.76 150.284 L2237.18 150.284 Q2237.46 154.682 2239.82 156.997 Q2242.2 159.289 2246.44 159.289 Q2248.89 159.289 2251.19 158.687 Q2253.5 158.085 2255.77 156.881 L2255.77 160.909 Q2253.48 161.881 2251.07 162.391 Q2248.66 162.9 2246.19 162.9 Q2239.98 162.9 2236.35 159.289 Q2232.74 155.678 2232.74 149.52 Q2232.74 143.155 2236.16 139.428 Q2239.61 135.678 2245.44 135.678 Q2250.68 135.678 2253.71 139.057 Q2256.76 142.414 2256.76 148.201 M2252.5 146.951 Q2252.46 143.456 2250.54 141.372 Q2248.64 139.289 2245.49 139.289 Q2241.93 139.289 2239.77 141.303 Q2237.64 143.317 2237.32 146.974 L2252.5 146.951 Z" fill="#000000" fill-rule="nonzero" fill-opacity="1" /><polyline clip-path="url(#clip510)" style="stroke:#e26f46; stroke-linecap:round; stroke-linejoin:round; stroke-width:4; stroke-opacity:1; fill:none" points="1829.38,196.789 1973.37,196.789 "/>
<path clip-path="url(#clip510)" d="M1997.37 188.143 L2001.88 188.143 L2009.98 209.902 L2018.08 188.143 L2022.6 188.143 L2012.88 214.069 L2007.09 214.069 L1997.37 188.143 Z" fill="#000000" fill-rule="nonzero" fill-opacity="1" /><path clip-path="url(#clip510)" d="M2029.13 179.509 L2047.48 179.509 L2047.48 183.444 L2033.41 183.444 L2033.41 191.916 Q2034.43 191.569 2035.45 191.407 Q2036.46 191.222 2037.48 191.222 Q2043.27 191.222 2046.65 194.393 Q2050.03 197.564 2050.03 202.981 Q2050.03 208.559 2046.56 211.661 Q2043.08 214.74 2036.77 214.74 Q2034.59 214.74 2032.32 214.37 Q2030.08 213.999 2027.67 213.258 L2027.67 208.559 Q2029.75 209.694 2031.97 210.249 Q2034.2 210.805 2036.67 210.805 Q2040.68 210.805 2043.02 208.698 Q2045.35 206.592 2045.35 202.981 Q2045.35 199.37 2043.02 197.263 Q2040.68 195.157 2036.67 195.157 Q2034.8 195.157 2032.92 195.573 Q2031.07 195.99 2029.13 196.87 L2029.13 179.509 Z" fill="#000000" fill-rule="nonzero" fill-opacity="1" /><path clip-path="url(#clip510)" d="M2067.9 197.425 L2067.9 204.647 L2076.02 204.647 L2076.02 206.846 L2067.9 206.846 L2067.9 214.069 L2065.47 214.069 L2065.47 206.846 L2057.34 206.846 L2057.34 204.647 L2065.47 204.647 L2065.47 197.425 L2067.9 197.425 Z" fill="#000000" fill-rule="nonzero" fill-opacity="1" /><path clip-path="url(#clip510)" d="M2100.19 188.907 L2100.19 192.934 Q2098.39 192.009 2096.44 191.546 Q2094.5 191.083 2092.41 191.083 Q2089.24 191.083 2087.64 192.055 Q2086.07 193.027 2086.07 194.971 Q2086.07 196.453 2087.2 197.309 Q2088.34 198.143 2091.76 198.907 L2093.22 199.231 Q2097.76 200.203 2099.66 201.985 Q2101.58 203.745 2101.58 206.916 Q2101.58 210.527 2098.71 212.633 Q2095.86 214.74 2090.86 214.74 Q2088.78 214.74 2086.51 214.323 Q2084.27 213.93 2081.77 213.12 L2081.77 208.721 Q2084.13 209.948 2086.42 210.573 Q2088.71 211.175 2090.95 211.175 Q2093.96 211.175 2095.58 210.157 Q2097.2 209.115 2097.2 207.24 Q2097.2 205.504 2096.02 204.578 Q2094.87 203.652 2090.91 202.796 L2089.43 202.448 Q2085.47 201.615 2083.71 199.902 Q2081.95 198.166 2081.95 195.157 Q2081.95 191.499 2084.54 189.509 Q2087.14 187.518 2091.9 187.518 Q2094.26 187.518 2096.35 187.865 Q2098.43 188.212 2100.19 188.907 Z" fill="#000000" fill-rule="nonzero" fill-opacity="1" /><path clip-path="url(#clip510)" d="M2112.58 180.782 L2112.58 188.143 L2121.35 188.143 L2121.35 191.453 L2112.58 191.453 L2112.58 205.527 Q2112.58 208.698 2113.43 209.601 Q2114.31 210.504 2116.97 210.504 L2121.35 210.504 L2121.35 214.069 L2116.97 214.069 Q2112.04 214.069 2110.17 212.24 Q2108.29 210.388 2108.29 205.527 L2108.29 191.453 L2105.17 191.453 L2105.17 188.143 L2108.29 188.143 L2108.29 180.782 L2112.58 180.782 Z" fill="#000000" fill-rule="nonzero" fill-opacity="1" /><path clip-path="url(#clip510)" d="M2137 191.129 Q2133.57 191.129 2131.58 193.814 Q2129.59 196.476 2129.59 201.129 Q2129.59 205.782 2131.56 208.467 Q2133.55 211.129 2137 211.129 Q2140.4 211.129 2142.39 208.444 Q2144.38 205.758 2144.38 201.129 Q2144.38 196.522 2142.39 193.837 Q2140.4 191.129 2137 191.129 M2137 187.518 Q2142.55 187.518 2145.72 191.129 Q2148.89 194.74 2148.89 201.129 Q2148.89 207.495 2145.72 211.129 Q2142.55 214.74 2137 214.74 Q2131.42 214.74 2128.25 211.129 Q2125.1 207.495 2125.1 201.129 Q2125.1 194.74 2128.25 191.129 Q2131.42 187.518 2137 187.518 Z" fill="#000000" fill-rule="nonzero" fill-opacity="1" /><path clip-path="url(#clip510)" d="M2170.98 192.124 Q2170.26 191.708 2169.4 191.522 Q2168.57 191.314 2167.55 191.314 Q2163.94 191.314 2162 193.675 Q2160.07 196.013 2160.07 200.411 L2160.07 214.069 L2155.79 214.069 L2155.79 188.143 L2160.07 188.143 L2160.07 192.171 Q2161.42 189.809 2163.57 188.675 Q2165.72 187.518 2168.8 187.518 Q2169.24 187.518 2169.77 187.587 Q2170.31 187.634 2170.95 187.749 L2170.98 192.124 Z" fill="#000000" fill-rule="nonzero" fill-opacity="1" /><path clip-path="url(#clip510)" d="M2187.23 201.036 Q2182.07 201.036 2180.07 202.217 Q2178.08 203.397 2178.08 206.245 Q2178.08 208.513 2179.57 209.856 Q2181.07 211.175 2183.64 211.175 Q2187.18 211.175 2189.31 208.675 Q2191.46 206.152 2191.46 201.985 L2191.46 201.036 L2187.23 201.036 M2195.72 199.277 L2195.72 214.069 L2191.46 214.069 L2191.46 210.133 Q2190.01 212.495 2187.83 213.629 Q2185.65 214.74 2182.51 214.74 Q2178.52 214.74 2176.16 212.518 Q2173.82 210.272 2173.82 206.522 Q2173.82 202.147 2176.74 199.925 Q2179.68 197.703 2185.49 197.703 L2191.46 197.703 L2191.46 197.286 Q2191.46 194.347 2189.52 192.749 Q2187.6 191.129 2184.1 191.129 Q2181.88 191.129 2179.77 191.661 Q2177.67 192.194 2175.72 193.259 L2175.72 189.323 Q2178.06 188.421 2180.26 187.981 Q2182.46 187.518 2184.54 187.518 Q2190.17 187.518 2192.95 190.434 Q2195.72 193.351 2195.72 199.277 Z" fill="#000000" fill-rule="nonzero" fill-opacity="1" /><path clip-path="url(#clip510)" d="M2221.56 200.805 Q2221.56 196.175 2219.63 193.629 Q2217.74 191.083 2214.29 191.083 Q2210.86 191.083 2208.94 193.629 Q2207.04 196.175 2207.04 200.805 Q2207.04 205.411 2208.94 207.958 Q2210.86 210.504 2214.29 210.504 Q2217.74 210.504 2219.63 207.958 Q2221.56 205.411 2221.56 200.805 M2225.82 210.851 Q2225.82 217.471 2222.88 220.689 Q2219.94 223.93 2213.87 223.93 Q2211.63 223.93 2209.63 223.582 Q2207.64 223.258 2205.77 222.564 L2205.77 218.42 Q2207.64 219.439 2209.47 219.925 Q2211.3 220.411 2213.2 220.411 Q2217.39 220.411 2219.47 218.212 Q2221.56 216.036 2221.56 211.615 L2221.56 209.508 Q2220.24 211.8 2218.18 212.934 Q2216.12 214.069 2213.25 214.069 Q2208.48 214.069 2205.56 210.434 Q2202.64 206.8 2202.64 200.805 Q2202.64 194.786 2205.56 191.152 Q2208.48 187.518 2213.25 187.518 Q2216.12 187.518 2218.18 188.652 Q2220.24 189.786 2221.56 192.078 L2221.56 188.143 L2225.82 188.143 L2225.82 210.851 Z" fill="#000000" fill-rule="nonzero" fill-opacity="1" /><path clip-path="url(#clip510)" d="M2256.76 200.041 L2256.76 202.124 L2237.18 202.124 Q2237.46 206.522 2239.82 208.837 Q2242.2 211.129 2246.44 211.129 Q2248.89 211.129 2251.19 210.527 Q2253.5 209.925 2255.77 208.721 L2255.77 212.749 Q2253.48 213.721 2251.07 214.231 Q2248.66 214.74 2246.19 214.74 Q2239.98 214.74 2236.35 211.129 Q2232.74 207.518 2232.74 201.36 Q2232.74 194.995 2236.16 191.268 Q2239.61 187.518 2245.44 187.518 Q2250.68 187.518 2253.71 190.897 Q2256.76 194.254 2256.76 200.041 M2252.5 198.791 Q2252.46 195.296 2250.54 193.212 Q2248.64 191.129 2245.49 191.129 Q2241.93 191.129 2239.77 193.143 Q2237.64 195.157 2237.32 198.814 L2252.5 198.791 Z" fill="#000000" fill-rule="nonzero" fill-opacity="1" /></svg>
