<?xml version="1.0" encoding="utf-8"?>
<svg xmlns="http://www.w3.org/2000/svg" xmlns:xlink="http://www.w3.org/1999/xlink" width="600" height="400" viewBox="0 0 2400 1600">
<defs>
  <clipPath id="clip080">
    <rect x="0" y="0" width="2400" height="1600"/>
  </clipPath>
</defs>
<path clip-path="url(#clip080)" d="M0 1600 L2400 1600 L2400 0 L0 0  Z" fill="#ffffff" fill-rule="evenodd" fill-opacity="1"/>
<defs>
  <clipPath id="clip081">
    <rect x="480" y="0" width="1681" height="1600"/>
  </clipPath>
</defs>
<path clip-path="url(#clip080)" d="M194.422 1423.18 L2352.76 1423.18 L2352.76 47.2441 L194.422 47.2441  Z" fill="#ffffff" fill-rule="evenodd" fill-opacity="1"/>
<defs>
  <clipPath id="clip082">
    <rect x="194" y="47" width="2159" height="1377"/>
  </clipPath>
</defs>
<polyline clip-path="url(#clip082)" style="stroke:#000000; stroke-linecap:round; stroke-linejoin:round; stroke-width:2; stroke-opacity:0.1; fill:none" points="194.422,1423.18 194.422,47.2441 "/>
<polyline clip-path="url(#clip082)" style="stroke:#000000; stroke-linecap:round; stroke-linejoin:round; stroke-width:2; stroke-opacity:0.1; fill:none" points="734.006,1423.18 734.006,47.2441 "/>
<polyline clip-path="url(#clip082)" style="stroke:#000000; stroke-linecap:round; stroke-linejoin:round; stroke-width:2; stroke-opacity:0.1; fill:none" points="1273.59,1423.18 1273.59,47.2441 "/>
<polyline clip-path="url(#clip082)" style="stroke:#000000; stroke-linecap:round; stroke-linejoin:round; stroke-width:2; stroke-opacity:0.1; fill:none" points="1813.17,1423.18 1813.17,47.2441 "/>
<polyline clip-path="url(#clip082)" style="stroke:#000000; stroke-linecap:round; stroke-linejoin:round; stroke-width:2; stroke-opacity:0.1; fill:none" points="2352.76,1423.18 2352.76,47.2441 "/>
<polyline clip-path="url(#clip082)" style="stroke:#000000; stroke-linecap:round; stroke-linejoin:round; stroke-width:2; stroke-opacity:0.1; fill:none" points="194.422,1413.11 2352.76,1413.11 "/>
<polyline clip-path="url(#clip082)" style="stroke:#000000; stroke-linecap:round; stroke-linejoin:round; stroke-width:2; stroke-opacity:0.1; fill:none" points="194.422,1027.21 2352.76,1027.21 "/>
<polyline clip-path="url(#clip082)" style="stroke:#000000; stroke-linecap:round; stroke-linejoin:round; stroke-width:2; stroke-opacity:0.1; fill:none" points="194.422,641.322 2352.76,641.322 "/>
<polyline clip-path="url(#clip082)" style="stroke:#000000; stroke-linecap:round; stroke-linejoin:round; stroke-width:2; stroke-opacity:0.1; fill:none" points="194.422,255.43 2352.76,255.43 "/>
<polyline clip-path="url(#clip080)" style="stroke:#000000; stroke-linecap:round; stroke-linejoin:round; stroke-width:4; stroke-opacity:1; fill:none" points="194.422,1423.18 2352.76,1423.18 "/>
<polyline clip-path="url(#clip080)" style="stroke:#000000; stroke-linecap:round; stroke-linejoin:round; stroke-width:4; stroke-opacity:1; fill:none" points="194.422,1423.18 194.422,1404.28 "/>
<polyline clip-path="url(#clip080)" style="stroke:#000000; stroke-linecap:round; stroke-linejoin:round; stroke-width:4; stroke-opacity:1; fill:none" points="734.006,1423.18 734.006,1404.28 "/>
<polyline clip-path="url(#clip080)" style="stroke:#000000; stroke-linecap:round; stroke-linejoin:round; stroke-width:4; stroke-opacity:1; fill:none" points="1273.59,1423.18 1273.59,1404.28 "/>
<polyline clip-path="url(#clip080)" style="stroke:#000000; stroke-linecap:round; stroke-linejoin:round; stroke-width:4; stroke-opacity:1; fill:none" points="1813.17,1423.18 1813.17,1404.28 "/>
<polyline clip-path="url(#clip080)" style="stroke:#000000; stroke-linecap:round; stroke-linejoin:round; stroke-width:4; stroke-opacity:1; fill:none" points="2352.76,1423.18 2352.76,1404.28 "/>
<path clip-path="url(#clip080)" d="M171.806 1454.1 Q168.195 1454.1 166.367 1457.66 Q164.561 1461.2 164.561 1468.33 Q164.561 1475.44 166.367 1479.01 Q168.195 1482.55 171.806 1482.55 Q175.441 1482.55 177.246 1479.01 Q179.075 1475.44 179.075 1468.33 Q179.075 1461.2 177.246 1457.66 Q175.441 1454.1 171.806 1454.1 M171.806 1450.39 Q177.617 1450.39 180.672 1455 Q183.751 1459.58 183.751 1468.33 Q183.751 1477.06 180.672 1481.67 Q177.617 1486.25 171.806 1486.25 Q165.996 1486.25 162.918 1481.67 Q159.862 1477.06 159.862 1468.33 Q159.862 1459.58 162.918 1455 Q165.996 1450.39 171.806 1450.39 Z" fill="#000000" fill-rule="nonzero" fill-opacity="1" /><path clip-path="url(#clip080)" d="M191.968 1479.7 L196.853 1479.7 L196.853 1485.58 L191.968 1485.58 L191.968 1479.7 Z" fill="#000000" fill-rule="nonzero" fill-opacity="1" /><path clip-path="url(#clip080)" d="M217.038 1454.1 Q213.427 1454.1 211.598 1457.66 Q209.792 1461.2 209.792 1468.33 Q209.792 1475.44 211.598 1479.01 Q213.427 1482.55 217.038 1482.55 Q220.672 1482.55 222.478 1479.01 Q224.306 1475.44 224.306 1468.33 Q224.306 1461.2 222.478 1457.66 Q220.672 1454.1 217.038 1454.1 M217.038 1450.39 Q222.848 1450.39 225.903 1455 Q228.982 1459.58 228.982 1468.33 Q228.982 1477.06 225.903 1481.67 Q222.848 1486.25 217.038 1486.25 Q211.228 1486.25 208.149 1481.67 Q205.093 1477.06 205.093 1468.33 Q205.093 1459.58 208.149 1455 Q211.228 1450.39 217.038 1450.39 Z" fill="#000000" fill-rule="nonzero" fill-opacity="1" /><path clip-path="url(#clip080)" d="M711.888 1454.1 Q708.277 1454.1 706.448 1457.66 Q704.642 1461.2 704.642 1468.33 Q704.642 1475.44 706.448 1479.01 Q708.277 1482.55 711.888 1482.55 Q715.522 1482.55 717.327 1479.01 Q719.156 1475.44 719.156 1468.33 Q719.156 1461.2 717.327 1457.66 Q715.522 1454.1 711.888 1454.1 M711.888 1450.39 Q717.698 1450.39 720.753 1455 Q723.832 1459.58 723.832 1468.33 Q723.832 1477.06 720.753 1481.67 Q717.698 1486.25 711.888 1486.25 Q706.077 1486.25 702.999 1481.67 Q699.943 1477.06 699.943 1468.33 Q699.943 1459.58 702.999 1455 Q706.077 1450.39 711.888 1450.39 Z" fill="#000000" fill-rule="nonzero" fill-opacity="1" /><path clip-path="url(#clip080)" d="M732.05 1479.7 L736.934 1479.7 L736.934 1485.58 L732.05 1485.58 L732.05 1479.7 Z" fill="#000000" fill-rule="nonzero" fill-opacity="1" /><path clip-path="url(#clip080)" d="M747.165 1451.02 L765.522 1451.02 L765.522 1454.96 L751.448 1454.96 L751.448 1463.43 Q752.466 1463.08 753.485 1462.92 Q754.503 1462.73 755.522 1462.73 Q761.309 1462.73 764.688 1465.9 Q768.068 1469.08 768.068 1474.49 Q768.068 1480.07 764.596 1483.17 Q761.123 1486.25 754.804 1486.25 Q752.628 1486.25 750.36 1485.88 Q748.114 1485.51 745.707 1484.77 L745.707 1480.07 Q747.79 1481.2 750.012 1481.76 Q752.235 1482.32 754.711 1482.32 Q758.716 1482.32 761.054 1480.21 Q763.392 1478.1 763.392 1474.49 Q763.392 1470.88 761.054 1468.77 Q758.716 1466.67 754.711 1466.67 Q752.836 1466.67 750.961 1467.08 Q749.11 1467.5 747.165 1468.38 L747.165 1451.02 Z" fill="#000000" fill-rule="nonzero" fill-opacity="1" /><path clip-path="url(#clip080)" d="M1240.74 1481.64 L1248.38 1481.64 L1248.38 1455.28 L1240.07 1456.95 L1240.07 1452.69 L1248.33 1451.02 L1253.01 1451.02 L1253.01 1481.64 L1260.65 1481.64 L1260.65 1485.58 L1240.74 1485.58 L1240.74 1481.64 Z" fill="#000000" fill-rule="nonzero" fill-opacity="1" /><path clip-path="url(#clip080)" d="M1270.09 1479.7 L1274.98 1479.7 L1274.98 1485.58 L1270.09 1485.58 L1270.09 1479.7 Z" fill="#000000" fill-rule="nonzero" fill-opacity="1" /><path clip-path="url(#clip080)" d="M1295.16 1454.1 Q1291.55 1454.1 1289.72 1457.66 Q1287.92 1461.2 1287.92 1468.33 Q1287.92 1475.44 1289.72 1479.01 Q1291.55 1482.55 1295.16 1482.55 Q1298.8 1482.55 1300.6 1479.01 Q1302.43 1475.44 1302.43 1468.33 Q1302.43 1461.2 1300.6 1457.66 Q1298.8 1454.1 1295.16 1454.1 M1295.16 1450.39 Q1300.97 1450.39 1304.03 1455 Q1307.11 1459.58 1307.11 1468.33 Q1307.11 1477.06 1304.03 1481.67 Q1300.97 1486.25 1295.16 1486.25 Q1289.35 1486.25 1286.27 1481.67 Q1283.22 1477.06 1283.22 1468.33 Q1283.22 1459.58 1286.27 1455 Q1289.35 1450.39 1295.16 1450.39 Z" fill="#000000" fill-rule="nonzero" fill-opacity="1" /><path clip-path="url(#clip080)" d="M1780.82 1481.64 L1788.46 1481.64 L1788.46 1455.28 L1780.15 1456.95 L1780.15 1452.69 L1788.42 1451.02 L1793.09 1451.02 L1793.09 1481.64 L1800.73 1481.64 L1800.73 1485.58 L1780.82 1485.58 L1780.82 1481.64 Z" fill="#000000" fill-rule="nonzero" fill-opacity="1" /><path clip-path="url(#clip080)" d="M1810.17 1479.7 L1815.06 1479.7 L1815.06 1485.58 L1810.17 1485.58 L1810.17 1479.7 Z" fill="#000000" fill-rule="nonzero" fill-opacity="1" /><path clip-path="url(#clip080)" d="M1825.29 1451.02 L1843.65 1451.02 L1843.65 1454.96 L1829.57 1454.96 L1829.57 1463.43 Q1830.59 1463.08 1831.61 1462.92 Q1832.63 1462.73 1833.65 1462.73 Q1839.43 1462.73 1842.81 1465.9 Q1846.19 1469.08 1846.19 1474.49 Q1846.19 1480.07 1842.72 1483.17 Q1839.25 1486.25 1832.93 1486.25 Q1830.75 1486.25 1828.48 1485.88 Q1826.24 1485.51 1823.83 1484.77 L1823.83 1480.07 Q1825.92 1481.2 1828.14 1481.76 Q1830.36 1482.32 1832.84 1482.32 Q1836.84 1482.32 1839.18 1480.21 Q1841.52 1478.1 1841.52 1474.49 Q1841.52 1470.88 1839.18 1468.77 Q1836.84 1466.67 1832.84 1466.67 Q1830.96 1466.67 1829.09 1467.08 Q1827.23 1467.5 1825.29 1468.38 L1825.29 1451.02 Z" fill="#000000" fill-rule="nonzero" fill-opacity="1" /><path clip-path="url(#clip080)" d="M2323.99 1481.64 L2340.31 1481.64 L2340.31 1485.58 L2318.37 1485.58 L2318.37 1481.64 Q2321.03 1478.89 2325.61 1474.26 Q2330.22 1469.61 2331.4 1468.27 Q2333.65 1465.74 2334.53 1464.01 Q2335.43 1462.25 2335.43 1460.56 Q2335.43 1457.8 2333.49 1456.07 Q2331.56 1454.33 2328.46 1454.33 Q2326.26 1454.33 2323.81 1455.09 Q2321.38 1455.86 2318.6 1457.41 L2318.6 1452.69 Q2321.43 1451.55 2323.88 1450.97 Q2326.33 1450.39 2328.37 1450.39 Q2333.74 1450.39 2336.93 1453.08 Q2340.13 1455.77 2340.13 1460.26 Q2340.13 1462.39 2339.32 1464.31 Q2338.53 1466.2 2336.42 1468.8 Q2335.85 1469.47 2332.74 1472.69 Q2329.64 1475.88 2323.99 1481.64 Z" fill="#000000" fill-rule="nonzero" fill-opacity="1" /><path clip-path="url(#clip080)" d="M2350.13 1479.7 L2355.01 1479.7 L2355.01 1485.58 L2350.13 1485.58 L2350.13 1479.7 Z" fill="#000000" fill-rule="nonzero" fill-opacity="1" /><path clip-path="url(#clip080)" d="M2375.2 1454.1 Q2371.59 1454.1 2369.76 1457.66 Q2367.95 1461.2 2367.95 1468.33 Q2367.95 1475.44 2369.76 1479.01 Q2371.59 1482.55 2375.2 1482.55 Q2378.83 1482.55 2380.64 1479.01 Q2382.47 1475.44 2382.47 1468.33 Q2382.47 1461.2 2380.64 1457.66 Q2378.83 1454.1 2375.2 1454.1 M2375.2 1450.39 Q2381.01 1450.39 2384.06 1455 Q2387.14 1459.58 2387.14 1468.33 Q2387.14 1477.06 2384.06 1481.67 Q2381.01 1486.25 2375.2 1486.25 Q2369.39 1486.25 2366.31 1481.67 Q2363.25 1477.06 2363.25 1468.33 Q2363.25 1459.58 2366.31 1455 Q2369.39 1450.39 2375.2 1450.39 Z" fill="#000000" fill-rule="nonzero" fill-opacity="1" /><path clip-path="url(#clip080)" d="M1272.65 1522.27 L1272.65 1532.4 L1284.71 1532.4 L1284.71 1536.95 L1272.65 1536.95 L1272.65 1556.3 Q1272.65 1560.66 1273.83 1561.9 Q1275.04 1563.14 1278.7 1563.14 L1284.71 1563.14 L1284.71 1568.04 L1278.7 1568.04 Q1271.92 1568.04 1269.34 1565.53 Q1266.76 1562.98 1266.76 1556.3 L1266.76 1536.95 L1262.46 1536.95 L1262.46 1532.4 L1266.76 1532.4 L1266.76 1522.27 L1272.65 1522.27 Z" fill="#000000" fill-rule="nonzero" fill-opacity="1" /><polyline clip-path="url(#clip080)" style="stroke:#000000; stroke-linecap:round; stroke-linejoin:round; stroke-width:4; stroke-opacity:1; fill:none" points="194.422,1423.18 194.422,47.2441 "/>
<polyline clip-path="url(#clip080)" style="stroke:#000000; stroke-linecap:round; stroke-linejoin:round; stroke-width:4; stroke-opacity:1; fill:none" points="194.422,1413.11 213.32,1413.11 "/>
<polyline clip-path="url(#clip080)" style="stroke:#000000; stroke-linecap:round; stroke-linejoin:round; stroke-width:4; stroke-opacity:1; fill:none" points="194.422,1027.21 213.32,1027.21 "/>
<polyline clip-path="url(#clip080)" style="stroke:#000000; stroke-linecap:round; stroke-linejoin:round; stroke-width:4; stroke-opacity:1; fill:none" points="194.422,641.322 213.32,641.322 "/>
<polyline clip-path="url(#clip080)" style="stroke:#000000; stroke-linecap:round; stroke-linejoin:round; stroke-width:4; stroke-opacity:1; fill:none" points="194.422,255.43 213.32,255.43 "/>
<path clip-path="url(#clip080)" d="M50.9921 1413.56 L80.6679 1413.56 L80.6679 1417.49 L50.9921 1417.49 L50.9921 1413.56 Z" fill="#000000" fill-rule="nonzero" fill-opacity="1" /><path clip-path="url(#clip080)" d="M100.76 1398.91 Q97.1493 1398.91 95.3206 1402.47 Q93.515 1406.01 93.515 1413.14 Q93.515 1420.25 95.3206 1423.81 Q97.1493 1427.35 100.76 1427.35 Q104.395 1427.35 106.2 1423.81 Q108.029 1420.25 108.029 1413.14 Q108.029 1406.01 106.2 1402.47 Q104.395 1398.91 100.76 1398.91 M100.76 1395.2 Q106.571 1395.2 109.626 1399.81 Q112.705 1404.39 112.705 1413.14 Q112.705 1421.87 109.626 1426.48 Q106.571 1431.06 100.76 1431.06 Q94.9502 1431.06 91.8715 1426.48 Q88.816 1421.87 88.816 1413.14 Q88.816 1404.39 91.8715 1399.81 Q94.9502 1395.2 100.76 1395.2 Z" fill="#000000" fill-rule="nonzero" fill-opacity="1" /><path clip-path="url(#clip080)" d="M120.922 1424.51 L125.807 1424.51 L125.807 1430.39 L120.922 1430.39 L120.922 1424.51 Z" fill="#000000" fill-rule="nonzero" fill-opacity="1" /><path clip-path="url(#clip080)" d="M148.839 1399.9 L137.033 1418.35 L148.839 1418.35 L148.839 1399.9 M147.612 1395.83 L153.492 1395.83 L153.492 1418.35 L158.422 1418.35 L158.422 1422.24 L153.492 1422.24 L153.492 1430.39 L148.839 1430.39 L148.839 1422.24 L133.237 1422.24 L133.237 1417.73 L147.612 1395.83 Z" fill="#000000" fill-rule="nonzero" fill-opacity="1" /><path clip-path="url(#clip080)" d="M53.0754 1027.67 L82.7512 1027.67 L82.7512 1031.6 L53.0754 1031.6 L53.0754 1027.67 Z" fill="#000000" fill-rule="nonzero" fill-opacity="1" /><path clip-path="url(#clip080)" d="M102.844 1013.01 Q99.2326 1013.01 97.4039 1016.58 Q95.5984 1020.12 95.5984 1027.25 Q95.5984 1034.36 97.4039 1037.92 Q99.2326 1041.46 102.844 1041.46 Q106.478 1041.46 108.283 1037.92 Q110.112 1034.36 110.112 1027.25 Q110.112 1020.12 108.283 1016.58 Q106.478 1013.01 102.844 1013.01 M102.844 1009.31 Q108.654 1009.31 111.709 1013.92 Q114.788 1018.5 114.788 1027.25 Q114.788 1035.98 111.709 1040.58 Q108.654 1045.17 102.844 1045.17 Q97.0335 1045.17 93.9549 1040.58 Q90.8993 1035.98 90.8993 1027.25 Q90.8993 1018.5 93.9549 1013.92 Q97.0335 1009.31 102.844 1009.31 Z" fill="#000000" fill-rule="nonzero" fill-opacity="1" /><path clip-path="url(#clip080)" d="M123.006 1038.62 L127.89 1038.62 L127.89 1044.49 L123.006 1044.49 L123.006 1038.62 Z" fill="#000000" fill-rule="nonzero" fill-opacity="1" /><path clip-path="url(#clip080)" d="M142.103 1040.56 L158.422 1040.56 L158.422 1044.49 L136.478 1044.49 L136.478 1040.56 Q139.14 1037.8 143.723 1033.18 Q148.33 1028.52 149.51 1027.18 Q151.755 1024.66 152.635 1022.92 Q153.538 1021.16 153.538 1019.47 Q153.538 1016.72 151.593 1014.98 Q149.672 1013.24 146.57 1013.24 Q144.371 1013.24 141.918 1014.01 Q139.487 1014.77 136.709 1016.32 L136.709 1011.6 Q139.533 1010.47 141.987 1009.89 Q144.441 1009.31 146.478 1009.31 Q151.848 1009.31 155.042 1011.99 Q158.237 1014.68 158.237 1019.17 Q158.237 1021.3 157.427 1023.22 Q156.64 1025.12 154.533 1027.71 Q153.955 1028.38 150.853 1031.6 Q147.751 1034.8 142.103 1040.56 Z" fill="#000000" fill-rule="nonzero" fill-opacity="1" /><path clip-path="url(#clip080)" d="M101.246 627.121 Q97.6354 627.121 95.8067 630.686 Q94.0012 634.227 94.0012 641.357 Q94.0012 648.463 95.8067 652.028 Q97.6354 655.57 101.246 655.57 Q104.881 655.57 106.686 652.028 Q108.515 648.463 108.515 641.357 Q108.515 634.227 106.686 630.686 Q104.881 627.121 101.246 627.121 M101.246 623.417 Q107.057 623.417 110.112 628.024 Q113.191 632.607 113.191 641.357 Q113.191 650.084 110.112 654.69 Q107.057 659.274 101.246 659.274 Q95.4363 659.274 92.3576 654.69 Q89.3021 650.084 89.3021 641.357 Q89.3021 632.607 92.3576 628.024 Q95.4363 623.417 101.246 623.417 Z" fill="#000000" fill-rule="nonzero" fill-opacity="1" /><path clip-path="url(#clip080)" d="M121.408 652.723 L126.293 652.723 L126.293 658.602 L121.408 658.602 L121.408 652.723 Z" fill="#000000" fill-rule="nonzero" fill-opacity="1" /><path clip-path="url(#clip080)" d="M146.478 627.121 Q142.867 627.121 141.038 630.686 Q139.232 634.227 139.232 641.357 Q139.232 648.463 141.038 652.028 Q142.867 655.57 146.478 655.57 Q150.112 655.57 151.918 652.028 Q153.746 648.463 153.746 641.357 Q153.746 634.227 151.918 630.686 Q150.112 627.121 146.478 627.121 M146.478 623.417 Q152.288 623.417 155.343 628.024 Q158.422 632.607 158.422 641.357 Q158.422 650.084 155.343 654.69 Q152.288 659.274 146.478 659.274 Q140.668 659.274 137.589 654.69 Q134.533 650.084 134.533 641.357 Q134.533 632.607 137.589 628.024 Q140.668 623.417 146.478 623.417 Z" fill="#000000" fill-rule="nonzero" fill-opacity="1" /><path clip-path="url(#clip080)" d="M102.844 241.228 Q99.2326 241.228 97.4039 244.793 Q95.5984 248.335 95.5984 255.465 Q95.5984 262.571 97.4039 266.136 Q99.2326 269.677 102.844 269.677 Q106.478 269.677 108.283 266.136 Q110.112 262.571 110.112 255.465 Q110.112 248.335 108.283 244.793 Q106.478 241.228 102.844 241.228 M102.844 237.525 Q108.654 237.525 111.709 242.131 Q114.788 246.715 114.788 255.465 Q114.788 264.191 111.709 268.798 Q108.654 273.381 102.844 273.381 Q97.0335 273.381 93.9549 268.798 Q90.8993 264.191 90.8993 255.465 Q90.8993 246.715 93.9549 242.131 Q97.0335 237.525 102.844 237.525 Z" fill="#000000" fill-rule="nonzero" fill-opacity="1" /><path clip-path="url(#clip080)" d="M123.006 266.83 L127.89 266.83 L127.89 272.71 L123.006 272.71 L123.006 266.83 Z" fill="#000000" fill-rule="nonzero" fill-opacity="1" /><path clip-path="url(#clip080)" d="M142.103 268.775 L158.422 268.775 L158.422 272.71 L136.478 272.71 L136.478 268.775 Q139.14 266.02 143.723 261.39 Q148.33 256.738 149.51 255.395 Q151.755 252.872 152.635 251.136 Q153.538 249.377 153.538 247.687 Q153.538 244.932 151.593 243.196 Q149.672 241.46 146.57 241.46 Q144.371 241.46 141.918 242.224 Q139.487 242.988 136.709 244.539 L136.709 239.816 Q139.533 238.682 141.987 238.104 Q144.441 237.525 146.478 237.525 Q151.848 237.525 155.042 240.21 Q158.237 242.895 158.237 247.386 Q158.237 249.515 157.427 251.437 Q156.64 253.335 154.533 255.927 Q153.955 256.599 150.853 259.816 Q147.751 263.011 142.103 268.775 Z" fill="#000000" fill-rule="nonzero" fill-opacity="1" /><polyline clip-path="url(#clip082)" style="stroke:#009af9; stroke-linecap:round; stroke-linejoin:round; stroke-width:4; stroke-opacity:1; fill:none" points="194.422,917.089 196.583,908.813 198.743,900.619 200.904,892.507 203.064,884.475 205.225,876.524 207.385,868.651 209.546,860.858 211.706,853.141 213.867,845.502 216.027,837.939 218.188,830.451 220.348,823.038 222.509,815.698 224.669,808.432 226.83,801.238 228.99,794.116 231.151,787.064 233.311,780.083 235.471,773.171 237.632,766.328 239.792,759.554 241.953,752.847 244.113,746.206 246.274,739.632 248.434,733.123 250.595,726.679 252.755,720.3 254.916,713.983 257.076,707.73 259.237,701.539 261.397,695.409 263.558,689.341 265.718,683.333 267.879,677.385 270.039,671.496 272.2,665.666 274.36,659.894 276.521,654.18 278.681,648.522 280.842,642.921 283.002,637.375 285.163,631.885 287.323,626.449 289.484,621.068 291.644,615.74 293.805,610.465 295.965,605.243 298.126,600.073 300.286,594.954 302.447,589.887 304.607,584.869 306.768,579.902 308.928,574.984 311.089,570.115 313.249,565.295 315.41,560.523 317.57,555.798 319.731,551.12 321.891,546.489 324.052,541.904 326.212,537.364 328.373,532.87 330.533,528.42 332.694,524.015 334.854,519.654 337.015,515.336 339.175,511.062 341.336,506.829 343.496,502.639 345.657,498.491 347.817,494.384 349.978,490.318 352.138,486.293 354.299,482.307 356.459,478.361 358.62,474.455 360.78,470.587 362.941,466.758 365.101,462.967 367.262,459.214 369.422,455.499 371.583,451.82 373.743,448.178 375.904,444.572 378.064,441.002 380.225,437.468 382.385,433.968 384.546,430.504 386.706,427.074 388.867,423.678 391.027,420.316 393.188,416.988 395.348,413.693 397.509,410.43 399.669,407.2 401.83,404.002 403.99,400.836 406.151,397.702 408.311,394.599 410.472,391.526 412.632,388.485 414.793,385.473 416.953,382.492 419.114,379.54 421.274,376.618 423.435,373.725 425.595,370.86 427.755,368.025 429.916,365.217 432.076,362.438 434.237,359.686 436.397,356.962 438.558,354.264 440.718,351.594 442.879,348.95 445.039,346.333 447.2,343.741 449.36,341.176 451.521,338.636 453.681,336.121 455.842,333.631 458.002,331.167 460.163,328.726 462.323,326.31 464.484,323.918 466.644,321.55 468.805,319.206 470.965,316.884 473.126,314.586 475.286,312.311 477.447,310.058 479.607,307.828 481.768,305.62 483.928,303.434 486.089,301.27 488.249,299.127 490.41,297.005 492.57,294.905 494.731,292.826 496.891,290.767 499.052,288.729 501.212,286.711 503.373,284.713 505.533,282.735 507.694,280.777 509.854,278.839 512.015,276.919 514.175,275.019 516.336,273.138 518.496,271.276 520.657,269.432 522.817,267.606 524.978,265.799 527.138,264.009 529.299,262.238 531.459,260.484 533.62,258.748 535.78,257.029 537.941,255.327 540.101,253.642 542.262,251.974 544.422,250.322 546.583,248.687 548.743,247.068 550.904,245.466 553.064,243.879 555.225,242.308 557.385,240.753 559.546,239.213 561.706,237.688 563.867,236.179 566.027,234.685 568.188,233.206 570.348,231.741 572.509,230.291 574.669,228.855 576.83,227.434 578.99,226.027 581.151,224.633 583.311,223.254 585.472,221.888 587.632,220.536 589.793,219.198 591.953,217.872 594.114,216.56 596.274,215.261 598.435,213.975 600.595,212.702 602.756,211.441 604.916,210.193 607.077,208.957 609.237,207.734 611.398,206.523 613.558,205.324 615.718,204.136 617.879,202.961 620.039,201.798 622.2,200.646 624.36,199.505 626.521,198.376 628.681,197.258 630.842,196.151 633.002,195.056 635.163,193.971 637.323,192.897 639.484,191.834 641.644,190.781 643.805,189.739 645.965,188.708 648.126,187.686 650.286,186.675 652.447,185.674 654.607,184.683 656.768,183.701 658.928,182.73 661.089,181.768 663.249,180.816 665.41,179.873 667.57,178.939 669.731,178.015 671.891,177.1 674.052,176.195 676.212,175.298 678.373,174.41 680.533,173.531 682.694,172.661 684.854,171.799 687.015,170.946 689.175,170.102 691.336,169.265 693.496,168.438 695.657,167.618 697.817,166.807 699.978,166.003 702.138,165.208 704.299,164.42 706.459,163.64 708.62,162.868 710.78,162.104 712.941,161.347 715.101,160.598 717.262,159.856 719.422,159.122 721.583,158.395 723.743,157.675 725.904,156.962 728.064,156.256 730.225,155.558 732.385,154.866 734.546,154.182 736.706,153.504 738.867,152.833 741.027,152.168 743.188,151.51 745.348,150.859 747.509,150.214 749.669,149.576 751.83,148.944 753.99,148.319 756.151,147.699 758.311,147.086 760.472,146.479 762.632,145.878 764.793,145.283 766.953,144.694 769.114,144.111 771.274,143.534 773.435,142.962 775.595,142.396 777.756,141.836 779.916,141.282 782.077,140.733 784.237,140.189 786.398,139.651 788.558,139.118 790.719,138.591 792.879,138.069 795.04,137.552 797.2,137.04 799.361,136.533 801.521,136.032 803.681,135.535 805.842,135.043 808.002,134.557 810.163,134.075 812.323,133.598 814.484,133.125 816.644,132.658 818.805,132.195 820.965,131.736 823.126,131.282 825.286,130.833 827.447,130.388 829.607,129.948 831.768,129.511 833.928,129.08 836.089,128.652 838.249,128.229 840.41,127.81 842.57,127.395 844.731,126.984 846.891,126.577 849.052,126.175 851.212,125.776 853.373,125.381 855.533,124.99 857.694,124.603 859.854,124.22 862.015,123.841 864.175,123.465 866.336,123.093 868.496,122.725 870.657,122.36 872.817,121.999 874.978,121.642 877.138,121.288 879.299,120.938 881.459,120.591 883.62,120.248 885.78,119.908 887.941,119.571 890.101,119.238 892.262,118.908 894.422,118.582 896.583,118.258 898.743,117.938 900.904,117.621 903.064,117.308 905.225,116.997 907.385,116.69 909.546,116.385 911.706,116.084 913.867,115.786 916.027,115.491 918.188,115.198 920.348,114.909 922.509,114.622 924.669,114.339 926.83,114.058 928.99,113.78 931.151,113.505 933.311,113.232 935.472,112.962 937.632,112.695 939.793,112.431 941.953,112.169 944.114,111.91 946.274,111.654 948.435,111.4 950.595,111.149 952.756,110.9 954.916,110.653 957.077,110.41 959.237,110.168 961.398,109.929 963.558,109.692 965.719,109.458 967.879,109.226 970.04,108.997 972.2,108.769 974.361,108.544 976.521,108.321 978.682,108.101 980.842,107.882 983.003,107.666 985.163,107.452 987.324,107.24 989.484,107.03 991.645,106.822 993.805,106.617 995.965,106.413 998.126,106.211 1000.29,106.011 1002.45,105.814 1004.61,105.618 1006.77,105.424 1008.93,105.232 1011.09,105.042 1013.25,104.854 1015.41,104.668 1017.57,104.483 1019.73,104.301 1021.89,104.12 1024.05,103.941 1026.21,103.763 1028.37,103.588 1030.53,103.414 1032.69,103.242 1034.85,103.071 1037.01,102.903 1039.18,102.735 1041.34,102.57 1043.5,102.406 1045.66,102.244 1047.82,102.083 1049.98,101.924 1052.14,101.767 1054.3,101.611 1056.46,101.457 1058.62,101.304 1060.78,101.153 1062.94,101.003 1065.1,100.855 1067.26,100.708 1069.42,100.563 1071.58,100.419 1073.74,100.276 1075.9,100.135 1078.06,99.9957 1080.22,99.8576 1082.39,99.7208 1084.55,99.5854 1086.71,99.4513 1088.87,99.3186 1091.03,99.1872 1093.19,99.0572 1095.35,98.9285 1097.51,98.801 1099.67,98.6749 1101.83,98.55 1103.99,98.4263 1106.15,98.304 1108.31,98.1828 1110.47,98.0629 1112.63,97.9442 1114.79,97.8267 1116.95,97.7104 1119.11,97.5952 1121.27,97.4812 1123.43,97.3684 1125.6,97.2567 1127.76,97.1461 1129.92,97.0366 1132.08,96.9283 1134.24,96.821 1136.4,96.7148 1138.56,96.6097 1140.72,96.5057 1142.88,96.4027 1145.04,96.3007 1147.2,96.1998 1149.36,96.0999 1151.52,96.0009 1153.68,95.903 1155.84,95.8061 1158,95.7101 1160.16,95.6151 1162.32,95.5211 1164.48,95.4279 1166.64,95.3358 1168.81,95.2445 1170.97,95.1542 1173.13,95.0647 1175.29,94.9762 1177.45,94.8885 1179.61,94.8017 1181.77,94.7158 1183.93,94.6307 1186.09,94.5464 1188.25,94.463 1190.41,94.3804 1192.57,94.2987 1194.73,94.2177 1196.89,94.1375 1199.05,94.0581 1201.21,93.9795 1203.37,93.9017 1205.53,93.8246 1207.69,93.7483 1209.85,93.6727 1212.01,93.5979 1214.18,93.5237 1216.34,93.4503 1218.5,93.3776 1220.66,93.3056 1222.82,93.2343 1224.98,93.1637 1227.14,93.0938 1229.3,93.0245 1231.46,92.9559 1233.62,92.888 1235.78,92.8207 1237.94,92.7541 1240.1,92.6882 1242.26,92.6228 1244.42,92.5582 1246.58,92.4941 1248.74,92.4307 1250.9,92.3679 1253.06,92.3057 1255.22,92.2442 1257.39,92.1832 1259.55,92.1229 1261.71,92.0631 1263.87,92.0039 1266.03,91.9454 1268.19,91.8874 1270.35,91.83 1272.51,91.7731 1274.67,91.7168 1276.83,91.6611 1278.99,91.606 1281.15,91.5514 1283.31,91.4973 1285.47,91.4438 1287.63,91.3908 1289.79,91.3384 1291.95,91.2865 1294.11,91.2351 1296.27,91.1842 1298.43,91.1339 1300.6,91.084 1302.76,91.0347 1304.92,90.9858 1307.08,90.9375 1309.24,90.8896 1311.4,90.8423 1313.56,90.7954 1315.72,90.749 1317.88,90.703 1320.04,90.6576 1322.2,90.6126 1324.36,90.568 1326.52,90.5239 1328.68,90.4803 1330.84,90.4371 1333,90.3943 1335.16,90.352 1337.32,90.3101 1339.48,90.2687 1341.64,90.2276 1343.81,90.187 1345.97,90.1468 1348.13,90.1071 1350.29,90.0677 1352.45,90.0287 1354.61,89.9901 1356.77,89.9519 1358.93,89.9141 1361.09,89.8767 1363.25,89.8397 1365.41,89.8031 1367.57,89.7668 1369.73,89.7309 1371.89,89.6954 1374.05,89.6602 1376.21,89.6254 1378.37,89.5909 1380.53,89.5568 1382.69,89.523 1384.85,89.4896 1387.01,89.4565 1389.18,89.4237 1391.34,89.3913 1393.5,89.3592 1395.66,89.3274 1397.82,89.296 1399.98,89.2648 1402.14,89.234 1404.3,89.2035 1406.46,89.1733 1408.62,89.1434 1410.78,89.1137 1412.94,89.0844 1415.1,89.0554 1417.26,89.0266 1419.42,88.9981 1421.58,88.97 1423.74,88.942 1425.9,88.9144 1428.06,88.887 1430.22,88.8599 1432.39,88.8331 1434.55,88.8065 1436.71,88.7801 1438.87,88.754 1441.03,88.7282 1443.19,88.7026 1445.35,88.6773 1447.51,88.6521 1449.67,88.6273 1451.83,88.6026 1453.99,88.5782 1456.15,88.554 1458.31,88.53 1460.47,88.5063 1462.63,88.4827 1464.79,88.4594 1466.95,88.4363 1469.11,88.4135 1471.27,88.3908 1473.43,88.3684 1475.6,88.3462 1477.76,88.3241 1479.92,88.3023 1482.08,88.2807 1484.24,88.2594 1486.4,88.2382 1488.56,88.2172 1490.72,88.1964 1492.88,88.1759 1495.04,88.1555 1497.2,88.1353 1499.36,88.1153 1501.52,88.0956 1503.68,88.076 1505.84,88.0566 1508,88.0374 1510.16,88.0184 1512.32,87.9995 1514.48,87.9809 1516.64,87.9625 1518.81,87.9442 1520.97,87.9261 1523.13,87.9082 1525.29,87.8905 1527.45,87.8729 1529.61,87.8556 1531.77,87.8384 1533.93,87.8214 1536.09,87.8045 1538.25,87.7878 1540.41,87.7713 1542.57,87.755 1544.73,87.7388 1546.89,87.7228 1549.05,87.707 1551.21,87.6913 1553.37,87.6758 1555.53,87.6604 1557.69,87.6452 1559.85,87.6302 1562.01,87.6153 1564.18,87.6006 1566.34,87.586 1568.5,87.5716 1570.66,87.5573 1572.82,87.5432 1574.98,87.5292 1577.14,87.5154 1579.3,87.5017 1581.46,87.4882 1583.62,87.4748 1585.78,87.4615 1587.94,87.4484 1590.1,87.4354 1592.26,87.4226 1594.42,87.4098 1596.58,87.3973 1598.74,87.3848 1600.9,87.3725 1603.06,87.3603 1605.22,87.3483 1607.39,87.3363 1609.55,87.3245 1611.71,87.3129 1613.87,87.3013 1616.03,87.2899 1618.19,87.2786 1620.35,87.2674 1622.51,87.2563 1624.67,87.2454 1626.83,87.2345 1628.99,87.2238 1631.15,87.2132 1633.31,87.2027 1635.47,87.1923 1637.63,87.182 1639.79,87.1718 1641.95,87.1618 1644.11,87.1518 1646.27,87.1419 1648.43,87.1322 1650.6,87.1225 1652.76,87.113 1654.92,87.1035 1657.08,87.0941 1659.24,87.0849 1661.4,87.0757 1663.56,87.0666 1665.72,87.0576 1667.88,87.0487 1670.04,87.0399 1672.2,87.0312 1674.36,87.0226 1676.52,87.0141 1678.68,87.0056 1680.84,86.9972 1683,86.9889 1685.16,86.9807 1687.32,86.9726 1689.48,86.9645 1691.64,86.9566 1693.81,86.9487 1695.97,86.9408 1698.13,86.9331 1700.29,86.9254 1702.45,86.9178 1704.61,86.9103 1706.77,86.9028 1708.93,86.8954 1711.09,86.8881 1713.25,86.8808 1715.41,86.8736 1717.57,86.8665 1719.73,86.8594 1721.89,86.8524 1724.05,86.8454 1726.21,86.8385 1728.37,86.8317 1730.53,86.8249 1732.69,86.8181 1734.85,86.8115 1737.02,86.8048 1739.18,86.7983 1741.34,86.7918 1743.5,86.7853 1745.66,86.7789 1747.82,86.7726 1749.98,86.7663 1752.14,86.7601 1754.3,86.7539 1756.46,86.7478 1758.62,86.7418 1760.78,86.7358 1762.94,86.7298 1765.1,86.7239 1767.26,86.7181 1769.42,86.7123 1771.58,86.7066 1773.74,86.7009 1775.9,86.6953 1778.06,86.6898 1780.22,86.6842 1782.39,86.6788 1784.55,86.6734 1786.71,86.668 1788.87,86.6627 1791.03,86.6575 1793.19,86.6523 1795.35,86.6471 1797.51,86.642 1799.67,86.637 1801.83,86.632 1803.99,86.6271 1806.15,86.6222 1808.31,86.6173 1810.47,86.6125 1812.63,86.6078 1814.79,86.6031 1816.95,86.5984 1819.11,86.5938 1821.27,86.5892 1823.43,86.5847 1825.6,86.5803 1827.76,86.5758 1829.92,86.5715 1832.08,86.5671 1834.24,86.5628 1836.4,86.5586 1838.56,86.5544 1840.72,86.5503 1842.88,86.5461 1845.04,86.5421 1847.2,86.5381 1849.36,86.5341 1851.52,86.5301 1853.68,86.5263 1855.84,86.5224 1858,86.5186 1860.16,86.5148 1862.32,86.5111 1864.48,86.5074 1866.64,86.5038 1868.81,86.5002 1870.97,86.4966 1873.13,86.4931 1875.29,86.4896 1877.45,86.4861 1879.61,86.4827 1881.77,86.4793 1883.93,86.476 1886.09,86.4727 1888.25,86.4694 1890.41,86.4662 1892.57,86.463 1894.73,86.4598 1896.89,86.4567 1899.05,86.4536 1901.21,86.4506 1903.37,86.4476 1905.53,86.4446 1907.69,86.4416 1909.85,86.4387 1912.02,86.4358 1914.18,86.433 1916.34,86.4302 1918.5,86.4274 1920.66,86.4246 1922.82,86.4219 1924.98,86.4192 1927.14,86.4166 1929.3,86.4139 1931.46,86.4113 1933.62,86.4088 1935.78,86.4062 1937.94,86.4037 1940.1,86.4012 1942.26,86.3988 1944.42,86.3963 1946.58,86.3939 1948.74,86.3916 1950.9,86.3892 1953.06,86.3869 1955.22,86.3846 1957.39,86.3823 1959.55,86.3801 1961.71,86.3778 1963.87,86.3756 1966.03,86.3735 1968.19,86.3713 1970.35,86.3692 1972.51,86.3671 1974.67,86.365 1976.83,86.3629 1978.99,86.3609 1981.15,86.3589 1983.31,86.3569 1985.47,86.3549 1987.63,86.353 1989.79,86.351 1991.95,86.3491 1994.11,86.3472 1996.27,86.3453 1998.43,86.3435 2000.6,86.3416 2002.76,86.3398 2004.92,86.338 2007.08,86.3362 2009.24,86.3344 2011.4,86.3327 2013.56,86.3309 2015.72,86.3292 2017.88,86.3275 2020.04,86.3258 2022.2,86.3241 2024.36,86.3224 2026.52,86.3208 2028.68,86.3191 2030.84,86.3175 2033,86.3159 2035.16,86.3142 2037.32,86.3126 2039.48,86.3111 2041.64,86.3095 2043.81,86.3079 2045.97,86.3063 2048.13,86.3048 2050.29,86.3033 2052.45,86.3017 2054.61,86.3002 2056.77,86.2987 2058.93,86.2972 2061.09,86.2957 2063.25,86.2942 2065.41,86.2927 2067.57,86.2913 2069.73,86.2898 2071.89,86.2884 2074.05,86.287 2076.21,86.2856 2078.37,86.2842 2080.53,86.2828 2082.69,86.2814 2084.85,86.2801 2087.02,86.2787 2089.18,86.2774 2091.34,86.2761 2093.5,86.2748 2095.66,86.2735 2097.82,86.2722 2099.98,86.271 2102.14,86.2697 2104.3,86.2685 2106.46,86.2673 2108.62,86.2661 2110.78,86.2649 2112.94,86.2637 2115.1,86.2625 2117.26,86.2613 2119.42,86.2602 2121.58,86.259 2123.74,86.2579 2125.9,86.2568 2128.06,86.2557 2130.22,86.2546 2132.39,86.2535 2134.55,86.2524 2136.71,86.2513 2138.87,86.2503 2141.03,86.2492 2143.19,86.2482 2145.35,86.2472 2147.51,86.2462 2149.67,86.2452 2151.83,86.2442 2153.99,86.2432 2156.15,86.2422 2158.31,86.2412 2160.47,86.2403 2162.63,86.2394 2164.79,86.2384 2166.95,86.2375 2169.11,86.2366 2171.27,86.2357 2173.43,86.2348 2175.6,86.2339 2177.76,86.233 2179.92,86.2322 2182.08,86.2313 2184.24,86.2305 2186.4,86.2296 2188.56,86.2288 2190.72,86.228 2192.88,86.2272 2195.04,86.2264 2197.2,86.2256 2199.36,86.2248 2201.52,86.224 2203.68,86.2232 2205.84,86.2225 2208,86.2217 2210.16,86.221 2212.32,86.2202 2214.48,86.2195 2216.64,86.2188 2218.81,86.2181 2220.97,86.2174 2223.13,86.2167 2225.29,86.216 2227.45,86.2153 2229.61,86.2146 2231.77,86.214 2233.93,86.2133 2236.09,86.2127 2238.25,86.212 2240.41,86.2114 2242.57,86.2107 2244.73,86.2101 2246.89,86.2095 2249.05,86.2089 2251.21,86.2083 2253.37,86.2077 2255.53,86.2071 2257.69,86.2065 2259.85,86.2059 2262.02,86.2053 2264.18,86.2048 2266.34,86.2042 2268.5,86.2036 2270.66,86.2031 2272.82,86.2025 2274.98,86.202 2277.14,86.2015 2279.3,86.2009 2281.46,86.2004 2283.62,86.1999 2285.78,86.1994 2287.94,86.1989 2290.1,86.1984 2292.26,86.1979 2294.42,86.1974 2296.58,86.1969 2298.74,86.1964 2300.9,86.1959 2303.06,86.1955 2305.23,86.195 2307.39,86.1945 2309.55,86.1941 2311.71,86.1936 2313.87,86.1932 2316.03,86.1927 2318.19,86.1923 2320.35,86.1918 2322.51,86.1914 2324.67,86.191 2326.83,86.1905 2328.99,86.1901 2331.15,86.1897 2333.31,86.1893 2335.47,86.1889 2337.63,86.1885 2339.79,86.1881 2341.95,86.1876 2344.11,86.1872 2346.27,86.1868 2348.43,86.1865 2350.6,86.1861 2352.76,86.1857 "/>
<polyline clip-path="url(#clip082)" style="stroke:#e26f46; stroke-linecap:round; stroke-linejoin:round; stroke-width:4; stroke-opacity:1; fill:none" points="194.422,1384.24 196.583,1375.06 198.743,1365.95 200.904,1356.9 203.064,1347.93 205.225,1339.02 207.385,1330.18 209.546,1321.4 211.706,1312.69 213.867,1304.05 216.027,1295.47 218.188,1286.95 220.348,1278.5 222.509,1270.11 224.669,1261.79 226.83,1253.53 228.99,1245.32 231.151,1237.18 233.311,1229.1 235.471,1221.08 237.632,1213.12 239.792,1205.22 241.953,1197.38 244.113,1189.6 246.274,1181.87 248.434,1174.2 250.595,1166.59 252.755,1159.04 254.916,1151.54 257.076,1144.09 259.237,1136.71 261.397,1129.37 263.558,1122.09 265.718,1114.87 267.879,1107.7 270.039,1100.58 272.2,1093.51 274.36,1086.5 276.521,1079.53 278.681,1072.62 280.842,1065.76 283.002,1058.95 285.163,1052.2 287.323,1045.49 289.484,1038.83 291.644,1032.22 293.805,1025.65 295.965,1019.14 298.126,1012.67 300.286,1006.25 302.447,999.882 304.607,993.557 306.768,987.279 308.928,981.046 311.089,974.859 313.249,968.718 315.41,962.621 317.57,956.569 319.731,950.561 321.891,944.597 324.052,938.677 326.212,932.8 328.373,926.965 330.533,921.174 332.694,915.424 334.854,909.717 337.015,904.05 339.175,898.426 341.336,892.842 343.496,887.299 345.657,881.796 347.817,876.333 349.978,870.909 352.138,865.525 354.299,860.181 356.459,854.874 358.62,849.607 360.78,844.377 362.941,839.186 365.101,834.032 367.262,828.915 369.422,823.835 371.583,818.792 373.743,813.785 375.904,808.815 378.064,803.88 380.225,798.981 382.385,794.118 384.546,789.289 386.706,784.495 388.867,779.736 391.027,775.01 393.188,770.319 395.348,765.662 397.509,761.038 399.669,756.447 401.83,751.889 403.99,747.364 406.151,742.872 408.311,738.411 410.472,733.983 412.632,729.586 414.793,725.221 416.953,720.887 419.114,716.584 421.274,712.312 423.435,708.07 425.595,703.859 427.755,699.678 429.916,695.526 432.076,691.405 434.237,687.312 436.397,683.249 438.558,679.215 440.718,675.209 442.879,671.232 445.039,667.284 447.2,663.363 449.36,659.47 451.521,655.605 453.681,651.767 455.842,647.957 458.002,644.174 460.163,640.417 462.323,636.687 464.484,632.984 466.644,629.306 468.805,625.655 470.965,622.03 473.126,618.43 475.286,614.855 477.447,611.306 479.607,607.782 481.768,604.283 483.928,600.809 486.089,597.359 488.249,593.933 490.41,590.531 492.57,587.154 494.731,583.8 496.891,580.47 499.052,577.163 501.212,573.88 503.373,570.619 505.533,567.382 507.694,564.167 509.854,560.975 512.015,557.805 514.175,554.657 516.336,551.532 518.496,548.428 520.657,545.346 522.817,542.286 524.978,539.247 527.138,536.23 529.299,533.233 531.459,530.258 533.62,527.303 535.78,524.369 537.941,521.456 540.101,518.562 542.262,515.689 544.422,512.836 546.583,510.003 548.743,507.19 550.904,504.396 553.064,501.622 555.225,498.867 557.385,496.131 559.546,493.414 561.706,490.716 563.867,488.037 566.027,485.376 568.188,482.734 570.348,480.11 572.509,477.504 574.669,474.916 576.83,472.347 578.99,469.795 581.151,467.26 583.311,464.744 585.472,462.244 587.632,459.762 589.793,457.297 591.953,454.849 594.114,452.418 596.274,450.004 598.435,447.606 600.595,445.225 602.756,442.861 604.916,440.512 607.077,438.18 609.237,435.864 611.398,433.564 613.558,431.279 615.718,429.011 617.879,426.758 620.039,424.52 622.2,422.298 624.36,420.091 626.521,417.899 628.681,415.723 630.842,413.561 633.002,411.414 635.163,409.282 637.323,407.164 639.484,405.061 641.644,402.972 643.805,400.898 645.965,398.838 648.126,396.792 650.286,394.759 652.447,392.741 654.607,390.737 656.768,388.746 658.928,386.769 661.089,384.805 663.249,382.855 665.41,380.918 667.57,378.994 669.731,377.083 671.891,375.186 674.052,373.301 676.212,371.429 678.373,369.57 680.533,367.723 682.694,365.889 684.854,364.067 687.015,362.258 689.175,360.461 691.336,358.676 693.496,356.903 695.657,355.143 697.817,353.394 699.978,351.657 702.138,349.932 704.299,348.218 706.459,346.516 708.62,344.826 710.78,343.147 712.941,341.479 715.101,339.822 717.262,338.177 719.422,336.543 721.583,334.92 723.743,333.307 725.904,331.706 728.064,330.116 730.225,328.536 732.385,326.966 734.546,325.408 736.706,323.86 738.867,322.322 741.027,320.795 743.188,319.278 745.348,317.771 747.509,316.274 749.669,314.787 751.83,313.311 753.99,311.844 756.151,310.387 758.311,308.94 760.472,307.503 762.632,306.075 764.793,304.657 766.953,303.248 769.114,301.849 771.274,300.459 773.435,299.079 775.595,297.708 777.756,296.346 779.916,294.993 782.077,293.649 784.237,292.314 786.398,290.988 788.558,289.671 790.719,288.362 792.879,287.063 795.04,285.772 797.2,284.489 799.361,283.216 801.521,281.95 803.681,280.693 805.842,279.445 808.002,278.205 810.163,276.973 812.323,275.749 814.484,274.534 816.644,273.326 818.805,272.126 820.965,270.935 823.126,269.751 825.286,268.576 827.447,267.408 829.607,266.247 831.768,265.095 833.928,263.95 836.089,262.812 838.249,261.683 840.41,260.56 842.57,259.445 844.731,258.338 846.891,257.237 849.052,256.144 851.212,255.059 853.373,253.98 855.533,252.908 857.694,251.844 859.854,250.786 862.015,249.736 864.175,248.692 866.336,247.656 868.496,246.626 870.657,245.603 872.817,244.586 874.978,243.577 877.138,242.574 879.299,241.577 881.459,240.587 883.62,239.604 885.78,238.627 887.941,237.657 890.101,236.693 892.262,235.735 894.422,234.784 896.583,233.839 898.743,232.9 900.904,231.967 903.064,231.04 905.225,230.12 907.385,229.205 909.546,228.297 911.706,227.394 913.867,226.498 916.027,225.607 918.188,224.722 920.348,223.843 922.509,222.97 924.669,222.102 926.83,221.241 928.99,220.384 931.151,219.534 933.311,218.689 935.472,217.849 937.632,217.015 939.793,216.187 941.953,215.363 944.114,214.546 946.274,213.733 948.435,212.926 950.595,212.124 952.756,211.328 954.916,210.536 957.077,209.75 959.237,208.969 961.398,208.193 963.558,207.422 965.719,206.656 967.879,205.895 970.04,205.139 972.2,204.388 974.361,203.642 976.521,202.9 978.682,202.164 980.842,201.432 983.003,200.705 985.163,199.983 987.324,199.265 989.484,198.552 991.645,197.844 993.805,197.14 995.965,196.441 998.126,195.746 1000.29,195.056 1002.45,194.37 1004.61,193.689 1006.77,193.012 1008.93,192.34 1011.09,191.671 1013.25,191.008 1015.41,190.348 1017.57,189.693 1019.73,189.042 1021.89,188.395 1024.05,187.752 1026.21,187.113 1028.37,186.479 1030.53,185.848 1032.69,185.222 1034.85,184.599 1037.01,183.981 1039.18,183.367 1041.34,182.756 1043.5,182.15 1045.66,181.547 1047.82,180.948 1049.98,180.354 1052.14,179.763 1054.3,179.175 1056.46,178.592 1058.62,178.012 1060.78,177.436 1062.94,176.864 1065.1,176.295 1067.26,175.73 1069.42,175.169 1071.58,174.611 1073.74,174.057 1075.9,173.507 1078.06,172.96 1080.22,172.416 1082.39,171.876 1084.55,171.34 1086.71,170.807 1088.87,170.277 1091.03,169.751 1093.19,169.228 1095.35,168.709 1097.51,168.193 1099.67,167.68 1101.83,167.17 1103.99,166.664 1106.15,166.161 1108.31,165.661 1110.47,165.165 1112.63,164.672 1114.79,164.181 1116.95,163.694 1119.11,163.21 1121.27,162.73 1123.43,162.252 1125.6,161.777 1127.76,161.306 1129.92,160.837 1132.08,160.371 1134.24,159.909 1136.4,159.449 1138.56,158.992 1140.72,158.538 1142.88,158.088 1145.04,157.64 1147.2,157.194 1149.36,156.752 1151.52,156.313 1153.68,155.876 1155.84,155.442 1158,155.011 1160.16,154.582 1162.32,154.157 1164.48,153.734 1166.64,153.314 1168.81,152.896 1170.97,152.481 1173.13,152.069 1175.29,151.659 1177.45,151.252 1179.61,150.847 1181.77,150.446 1183.93,150.046 1186.09,149.649 1188.25,149.255 1190.41,148.863 1192.57,148.474 1194.73,148.087 1196.89,147.703 1199.05,147.321 1201.21,146.941 1203.37,146.564 1205.53,146.189 1207.69,145.816 1209.85,145.446 1212.01,145.079 1214.18,144.713 1216.34,144.35 1218.5,143.989 1220.66,143.63 1222.82,143.274 1224.98,142.92 1227.14,142.568 1229.3,142.218 1231.46,141.871 1233.62,141.526 1235.78,141.183 1237.94,140.842 1240.1,140.503 1242.26,140.166 1244.42,139.831 1246.58,139.499 1248.74,139.169 1250.9,138.84 1253.06,138.514 1255.22,138.19 1257.39,137.868 1259.55,137.548 1261.71,137.229 1263.87,136.913 1266.03,136.599 1268.19,136.287 1270.35,135.977 1272.51,135.669 1274.67,135.363 1276.83,135.058 1278.99,134.756 1281.15,134.455 1283.31,134.157 1285.47,133.86 1287.63,133.565 1289.79,133.272 1291.95,132.981 1294.11,132.692 1296.27,132.404 1298.43,132.119 1300.6,131.835 1302.76,131.553 1304.92,131.272 1307.08,130.994 1309.24,130.717 1311.4,130.442 1313.56,130.169 1315.72,129.897 1317.88,129.627 1320.04,129.359 1322.2,129.093 1324.36,128.828 1326.52,128.565 1328.68,128.304 1330.84,128.044 1333,127.786 1335.16,127.529 1337.32,127.274 1339.48,127.021 1341.64,126.769 1343.81,126.519 1345.97,126.27 1348.13,126.023 1350.29,125.778 1352.45,125.534 1354.61,125.292 1356.77,125.051 1358.93,124.812 1361.09,124.574 1363.25,124.338 1365.41,124.103 1367.57,123.869 1369.73,123.637 1371.89,123.407 1374.05,123.178 1376.21,122.951 1378.37,122.724 1380.53,122.5 1382.69,122.276 1384.85,122.054 1387.01,121.834 1389.18,121.615 1391.34,121.397 1393.5,121.181 1395.66,120.966 1397.82,120.752 1399.98,120.539 1402.14,120.328 1404.3,120.119 1406.46,119.91 1408.62,119.703 1410.78,119.497 1412.94,119.293 1415.1,119.089 1417.26,118.887 1419.42,118.687 1421.58,118.487 1423.74,118.289 1425.9,118.092 1428.06,117.896 1430.22,117.701 1432.39,117.508 1434.55,117.316 1436.71,117.125 1438.87,116.935 1441.03,116.746 1443.19,116.558 1445.35,116.372 1447.51,116.187 1449.67,116.003 1451.83,115.82 1453.99,115.638 1456.15,115.457 1458.31,115.278 1460.47,115.099 1462.63,114.922 1464.79,114.746 1466.95,114.57 1469.11,114.396 1471.27,114.223 1473.43,114.051 1475.6,113.88 1477.76,113.71 1479.92,113.541 1482.08,113.374 1484.24,113.207 1486.4,113.041 1488.56,112.876 1490.72,112.713 1492.88,112.55 1495.04,112.388 1497.2,112.227 1499.36,112.068 1501.52,111.909 1503.68,111.751 1505.84,111.595 1508,111.439 1510.16,111.284 1512.32,111.13 1514.48,110.977 1516.64,110.825 1518.81,110.674 1520.97,110.524 1523.13,110.375 1525.29,110.227 1527.45,110.079 1529.61,109.933 1531.77,109.787 1533.93,109.643 1536.09,109.499 1538.25,109.356 1540.41,109.214 1542.57,109.073 1544.73,108.933 1546.89,108.794 1549.05,108.656 1551.21,108.518 1553.37,108.381 1555.53,108.246 1557.69,108.111 1559.85,107.976 1562.01,107.843 1564.18,107.711 1566.34,107.579 1568.5,107.448 1570.66,107.318 1572.82,107.189 1574.98,107.06 1577.14,106.933 1579.3,106.806 1581.46,106.68 1583.62,106.555 1585.78,106.43 1587.94,106.306 1590.1,106.184 1592.26,106.061 1594.42,105.94 1596.58,105.819 1598.74,105.699 1600.9,105.58 1603.06,105.462 1605.22,105.344 1607.39,105.227 1609.55,105.111 1611.71,104.996 1613.87,104.881 1616.03,104.767 1618.19,104.653 1620.35,104.541 1622.51,104.429 1624.67,104.318 1626.83,104.207 1628.99,104.097 1631.15,103.988 1633.31,103.879 1635.47,103.772 1637.63,103.664 1639.79,103.558 1641.95,103.452 1644.11,103.347 1646.27,103.242 1648.43,103.138 1650.6,103.035 1652.76,102.932 1654.92,102.83 1657.08,102.729 1659.24,102.628 1661.4,102.528 1663.56,102.429 1665.72,102.33 1667.88,102.232 1670.04,102.134 1672.2,102.037 1674.36,101.94 1676.52,101.844 1678.68,101.749 1680.84,101.654 1683,101.56 1685.16,101.467 1687.32,101.374 1689.48,101.281 1691.64,101.189 1693.81,101.098 1695.97,101.007 1698.13,100.917 1700.29,100.828 1702.45,100.738 1704.61,100.65 1706.77,100.562 1708.93,100.474 1711.09,100.387 1713.25,100.301 1715.41,100.215 1717.57,100.13 1719.73,100.045 1721.89,99.9604 1724.05,99.8766 1726.21,99.7932 1728.37,99.7104 1730.53,99.628 1732.69,99.5462 1734.85,99.4648 1737.02,99.3839 1739.18,99.3035 1741.34,99.2236 1743.5,99.1442 1745.66,99.0652 1747.82,98.9867 1749.98,98.9087 1752.14,98.8312 1754.3,98.7541 1756.46,98.6775 1758.62,98.6014 1760.78,98.5257 1762.94,98.4504 1765.1,98.3757 1767.26,98.3014 1769.42,98.2275 1771.58,98.1541 1773.74,98.0811 1775.9,98.0086 1778.06,97.9365 1780.22,97.8648 1782.39,97.7936 1784.55,97.7228 1786.71,97.6525 1788.87,97.5825 1791.03,97.513 1793.19,97.444 1795.35,97.3753 1797.51,97.3071 1799.67,97.2393 1801.83,97.1719 1803.99,97.1049 1806.15,97.0383 1808.31,96.9721 1810.47,96.9064 1812.63,96.841 1814.79,96.776 1816.95,96.7115 1819.11,96.6473 1821.27,96.5835 1823.43,96.5202 1825.6,96.4572 1827.76,96.3946 1829.92,96.3323 1832.08,96.2705 1834.24,96.2091 1836.4,96.148 1838.56,96.0873 1840.72,96.027 1842.88,95.967 1845.04,95.9074 1847.2,95.8482 1849.36,95.7894 1851.52,95.7309 1853.68,95.6728 1855.84,95.615 1858,95.5576 1860.16,95.5005 1862.32,95.4438 1864.48,95.3875 1866.64,95.3315 1868.81,95.2758 1870.97,95.2205 1873.13,95.1655 1875.29,95.1109 1877.45,95.0566 1879.61,95.0026 1881.77,94.949 1883.93,94.8957 1886.09,94.8428 1888.25,94.7901 1890.41,94.7378 1892.57,94.6858 1894.73,94.6342 1896.89,94.5828 1899.05,94.5318 1901.21,94.4811 1903.37,94.4307 1905.53,94.3806 1907.69,94.3309 1909.85,94.2814 1912.02,94.2322 1914.18,94.1834 1916.34,94.1348 1918.5,94.0866 1920.66,94.0386 1922.82,93.991 1924.98,93.9436 1927.14,93.8965 1929.3,93.8497 1931.46,93.8032 1933.62,93.757 1935.78,93.7111 1937.94,93.6655 1940.1,93.6201 1942.26,93.575 1944.42,93.5302 1946.58,93.4857 1948.74,93.4415 1950.9,93.3975 1953.06,93.3538 1955.22,93.3103 1957.39,93.2671 1959.55,93.2242 1961.71,93.1816 1963.87,93.1392 1966.03,93.0971 1968.19,93.0552 1970.35,93.0136 1972.51,92.9722 1974.67,92.9311 1976.83,92.8903 1978.99,92.8497 1981.15,92.8093 1983.31,92.7692 1985.47,92.7293 1987.63,92.6897 1989.79,92.6503 1991.95,92.6111 1994.11,92.5722 1996.27,92.5336 1998.43,92.4951 2000.6,92.4569 2002.76,92.4189 2004.92,92.3812 2007.08,92.3436 2009.24,92.3063 2011.4,92.2693 2013.56,92.2324 2015.72,92.1958 2017.88,92.1594 2020.04,92.1232 2022.2,92.0872 2024.36,92.0514 2026.52,92.0159 2028.68,91.9805 2030.84,91.9454 2033,91.9105 2035.16,91.8757 2037.32,91.8412 2039.48,91.8069 2041.64,91.7728 2043.81,91.7389 2045.97,91.7052 2048.13,91.6717 2050.29,91.6384 2052.45,91.6052 2054.61,91.5723 2056.77,91.5396 2058.93,91.507 2061.09,91.4747 2063.25,91.4425 2065.41,91.4106 2067.57,91.3788 2069.73,91.3472 2071.89,91.3158 2074.05,91.2846 2076.21,91.2536 2078.37,91.2227 2080.53,91.1921 2082.69,91.1616 2084.85,91.1313 2087.02,91.1012 2089.18,91.0713 2091.34,91.0416 2093.5,91.012 2095.66,90.9827 2097.82,90.9535 2099.98,90.9244 2102.14,90.8956 2104.3,90.8669 2106.46,90.8384 2108.62,90.8101 2110.78,90.7819 2112.94,90.7539 2115.1,90.7261 2117.26,90.6985 2119.42,90.671 2121.58,90.6437 2123.74,90.6165 2125.9,90.5895 2128.06,90.5627 2130.22,90.5361 2132.39,90.5096 2134.55,90.4832 2136.71,90.4571 2138.87,90.431 2141.03,90.4052 2143.19,90.3795 2145.35,90.3539 2147.51,90.3286 2149.67,90.3033 2151.83,90.2782 2153.99,90.2533 2156.15,90.2285 2158.31,90.2039 2160.47,90.1794 2162.63,90.1551 2164.79,90.1309 2166.95,90.1069 2169.11,90.083 2171.27,90.0593 2173.43,90.0357 2175.6,90.0123 2177.76,89.989 2179.92,89.9658 2182.08,89.9428 2184.24,89.9199 2186.4,89.8971 2188.56,89.8745 2190.72,89.8521 2192.88,89.8297 2195.04,89.8076 2197.2,89.7855 2199.36,89.7636 2201.52,89.7418 2203.68,89.7201 2205.84,89.6986 2208,89.6772 2210.16,89.656 2212.32,89.6348 2214.48,89.6138 2216.64,89.593 2218.81,89.5722 2220.97,89.5516 2223.13,89.5311 2225.29,89.5107 2227.45,89.4905 2229.61,89.4704 2231.77,89.4504 2233.93,89.4305 2236.09,89.4107 2238.25,89.3911 2240.41,89.3716 2242.57,89.3522 2244.73,89.3329 2246.89,89.3137 2249.05,89.2947 2251.21,89.2758 2253.37,89.2569 2255.53,89.2382 2257.69,89.2196 2259.85,89.2012 2262.02,89.1828 2264.18,89.1646 2266.34,89.1464 2268.5,89.1284 2270.66,89.1105 2272.82,89.0927 2274.98,89.075 2277.14,89.0574 2279.3,89.0399 2281.46,89.0225 2283.62,89.0052 2285.78,88.988 2287.94,88.9709 2290.1,88.954 2292.26,88.9371 2294.42,88.9203 2296.58,88.9037 2298.74,88.8871 2300.9,88.8706 2303.06,88.8543 2305.23,88.838 2307.39,88.8218 2309.55,88.8058 2311.71,88.7898 2313.87,88.7739 2316.03,88.7581 2318.19,88.7424 2320.35,88.7268 2322.51,88.7113 2324.67,88.6959 2326.83,88.6806 2328.99,88.6654 2331.15,88.6502 2333.31,88.6352 2335.47,88.6202 2337.63,88.6054 2339.79,88.5906 2341.95,88.5759 2344.11,88.5613 2346.27,88.5468 2348.43,88.5323 2350.6,88.518 2352.76,88.5037 "/>
<path clip-path="url(#clip080)" d="M1805.58 1377.32 L2280.81 1377.32 L2280.81 1221.8 L1805.58 1221.8  Z" fill="#ffffff" fill-rule="evenodd" fill-opacity="1"/>
<polyline clip-path="url(#clip080)" style="stroke:#000000; stroke-linecap:round; stroke-linejoin:round; stroke-width:4; stroke-opacity:1; fill:none" points="1805.58,1377.32 2280.81,1377.32 2280.81,1221.8 1805.58,1221.8 1805.58,1377.32 "/>
<polyline clip-path="url(#clip080)" style="stroke:#009af9; stroke-linecap:round; stroke-linejoin:round; stroke-width:4; stroke-opacity:1; fill:none" points="1829.56,1273.64 1973.45,1273.64 "/>
<path clip-path="url(#clip080)" d="M1997.43 1264.99 L2001.95 1264.99 L2010.05 1286.75 L2018.15 1264.99 L2022.66 1264.99 L2012.94 1290.92 L2007.16 1290.92 L1997.43 1264.99 Z" fill="#000000" fill-rule="nonzero" fill-opacity="1" /><path clip-path="url(#clip080)" d="M2029.96 1286.98 L2037.6 1286.98 L2037.6 1260.61 L2029.28 1262.28 L2029.28 1258.02 L2037.55 1256.36 L2042.22 1256.36 L2042.22 1286.98 L2049.86 1286.98 L2049.86 1290.92 L2029.96 1290.92 L2029.96 1286.98 Z" fill="#000000" fill-rule="nonzero" fill-opacity="1" /><path clip-path="url(#clip080)" d="M2067.97 1274.27 L2067.97 1281.49 L2076.09 1281.49 L2076.09 1283.69 L2067.97 1283.69 L2067.97 1290.92 L2065.53 1290.92 L2065.53 1283.69 L2057.41 1283.69 L2057.41 1281.49 L2065.53 1281.49 L2065.53 1274.27 L2067.97 1274.27 Z" fill="#000000" fill-rule="nonzero" fill-opacity="1" /><path clip-path="url(#clip080)" d="M2100.26 1265.75 L2100.26 1269.78 Q2098.45 1268.86 2096.51 1268.39 Q2094.56 1267.93 2092.48 1267.93 Q2089.31 1267.93 2087.71 1268.9 Q2086.14 1269.87 2086.14 1271.82 Q2086.14 1273.3 2087.27 1274.16 Q2088.4 1274.99 2091.83 1275.75 L2093.29 1276.08 Q2097.83 1277.05 2099.72 1278.83 Q2101.65 1280.59 2101.65 1283.76 Q2101.65 1287.37 2098.78 1289.48 Q2095.93 1291.59 2090.93 1291.59 Q2088.84 1291.59 2086.58 1291.17 Q2084.33 1290.78 2081.83 1289.97 L2081.83 1285.57 Q2084.19 1286.79 2086.48 1287.42 Q2088.78 1288.02 2091.02 1288.02 Q2094.03 1288.02 2095.65 1287 Q2097.27 1285.96 2097.27 1284.09 Q2097.27 1282.35 2096.09 1281.42 Q2094.93 1280.5 2090.97 1279.64 L2089.49 1279.3 Q2085.53 1278.46 2083.78 1276.75 Q2082.02 1275.01 2082.02 1272 Q2082.02 1268.35 2084.61 1266.36 Q2087.2 1264.36 2091.97 1264.36 Q2094.33 1264.36 2096.41 1264.71 Q2098.5 1265.06 2100.26 1265.75 Z" fill="#000000" fill-rule="nonzero" fill-opacity="1" /><path clip-path="url(#clip080)" d="M2112.64 1257.63 L2112.64 1264.99 L2121.41 1264.99 L2121.41 1268.3 L2112.64 1268.3 L2112.64 1282.37 Q2112.64 1285.54 2113.5 1286.45 Q2114.38 1287.35 2117.04 1287.35 L2121.41 1287.35 L2121.41 1290.92 L2117.04 1290.92 Q2112.11 1290.92 2110.23 1289.09 Q2108.36 1287.23 2108.36 1282.37 L2108.36 1268.3 L2105.23 1268.3 L2105.23 1264.99 L2108.36 1264.99 L2108.36 1257.63 L2112.64 1257.63 Z" fill="#000000" fill-rule="nonzero" fill-opacity="1" /><path clip-path="url(#clip080)" d="M2137.06 1267.98 Q2133.64 1267.98 2131.65 1270.66 Q2129.65 1273.32 2129.65 1277.98 Q2129.65 1282.63 2131.62 1285.31 Q2133.61 1287.98 2137.06 1287.98 Q2140.46 1287.98 2142.46 1285.29 Q2144.45 1282.61 2144.45 1277.98 Q2144.45 1273.37 2142.46 1270.68 Q2140.46 1267.98 2137.06 1267.98 M2137.06 1264.36 Q2142.62 1264.36 2145.79 1267.98 Q2148.96 1271.59 2148.96 1277.98 Q2148.96 1284.34 2145.79 1287.98 Q2142.62 1291.59 2137.06 1291.59 Q2131.48 1291.59 2128.31 1287.98 Q2125.16 1284.34 2125.16 1277.98 Q2125.16 1271.59 2128.31 1267.98 Q2131.48 1264.36 2137.06 1264.36 Z" fill="#000000" fill-rule="nonzero" fill-opacity="1" /><path clip-path="url(#clip080)" d="M2171.04 1268.97 Q2170.33 1268.55 2169.47 1268.37 Q2168.64 1268.16 2167.62 1268.16 Q2164.01 1268.16 2162.06 1270.52 Q2160.14 1272.86 2160.14 1277.26 L2160.14 1290.92 L2155.86 1290.92 L2155.86 1264.99 L2160.14 1264.99 L2160.14 1269.02 Q2161.48 1266.66 2163.64 1265.52 Q2165.79 1264.36 2168.87 1264.36 Q2169.31 1264.36 2169.84 1264.43 Q2170.37 1264.48 2171.02 1264.6 L2171.04 1268.97 Z" fill="#000000" fill-rule="nonzero" fill-opacity="1" /><path clip-path="url(#clip080)" d="M2187.29 1277.88 Q2182.13 1277.88 2180.14 1279.06 Q2178.15 1280.24 2178.15 1283.09 Q2178.15 1285.36 2179.63 1286.7 Q2181.14 1288.02 2183.71 1288.02 Q2187.25 1288.02 2189.38 1285.52 Q2191.53 1283 2191.53 1278.83 L2191.53 1277.88 L2187.29 1277.88 M2195.79 1276.12 L2195.79 1290.92 L2191.53 1290.92 L2191.53 1286.98 Q2190.07 1289.34 2187.9 1290.48 Q2185.72 1291.59 2182.57 1291.59 Q2178.59 1291.59 2176.23 1289.36 Q2173.89 1287.12 2173.89 1283.37 Q2173.89 1278.99 2176.81 1276.77 Q2179.75 1274.55 2185.56 1274.55 L2191.53 1274.55 L2191.53 1274.13 Q2191.53 1271.19 2189.58 1269.6 Q2187.66 1267.98 2184.17 1267.98 Q2181.95 1267.98 2179.84 1268.51 Q2177.73 1269.04 2175.79 1270.11 L2175.79 1266.17 Q2178.13 1265.27 2180.33 1264.83 Q2182.52 1264.36 2184.61 1264.36 Q2190.23 1264.36 2193.01 1267.28 Q2195.79 1270.2 2195.79 1276.12 Z" fill="#000000" fill-rule="nonzero" fill-opacity="1" /><path clip-path="url(#clip080)" d="M2221.62 1277.65 Q2221.62 1273.02 2219.7 1270.48 Q2217.8 1267.93 2214.35 1267.93 Q2210.93 1267.93 2209.01 1270.48 Q2207.11 1273.02 2207.11 1277.65 Q2207.11 1282.26 2209.01 1284.8 Q2210.93 1287.35 2214.35 1287.35 Q2217.8 1287.35 2219.7 1284.8 Q2221.62 1282.26 2221.62 1277.65 M2225.88 1287.7 Q2225.88 1294.32 2222.94 1297.54 Q2220 1300.78 2213.94 1300.78 Q2211.69 1300.78 2209.7 1300.43 Q2207.71 1300.11 2205.83 1299.41 L2205.83 1295.27 Q2207.71 1296.29 2209.54 1296.77 Q2211.37 1297.26 2213.27 1297.26 Q2217.46 1297.26 2219.54 1295.06 Q2221.62 1292.88 2221.62 1288.46 L2221.62 1286.36 Q2220.3 1288.65 2218.24 1289.78 Q2216.18 1290.92 2213.31 1290.92 Q2208.54 1290.92 2205.63 1287.28 Q2202.71 1283.65 2202.71 1277.65 Q2202.71 1271.63 2205.63 1268 Q2208.54 1264.36 2213.31 1264.36 Q2216.18 1264.36 2218.24 1265.5 Q2220.3 1266.63 2221.62 1268.92 L2221.62 1264.99 L2225.88 1264.99 L2225.88 1287.7 Z" fill="#000000" fill-rule="nonzero" fill-opacity="1" /><path clip-path="url(#clip080)" d="M2256.83 1276.89 L2256.83 1278.97 L2237.25 1278.97 Q2237.52 1283.37 2239.89 1285.68 Q2242.27 1287.98 2246.51 1287.98 Q2248.96 1287.98 2251.25 1287.37 Q2253.57 1286.77 2255.83 1285.57 L2255.83 1289.6 Q2253.54 1290.57 2251.14 1291.08 Q2248.73 1291.59 2246.25 1291.59 Q2240.05 1291.59 2236.41 1287.98 Q2232.8 1284.36 2232.8 1278.21 Q2232.8 1271.84 2236.23 1268.11 Q2239.68 1264.36 2245.51 1264.36 Q2250.74 1264.36 2253.77 1267.74 Q2256.83 1271.1 2256.83 1276.89 M2252.57 1275.64 Q2252.52 1272.14 2250.6 1270.06 Q2248.71 1267.98 2245.56 1267.98 Q2241.99 1267.98 2239.84 1269.99 Q2237.71 1272 2237.39 1275.66 L2252.57 1275.64 Z" fill="#000000" fill-rule="nonzero" fill-opacity="1" /><polyline clip-path="url(#clip080)" style="stroke:#e26f46; stroke-linecap:round; stroke-linejoin:round; stroke-width:4; stroke-opacity:1; fill:none" points="1829.56,1325.48 1973.45,1325.48 "/>
<path clip-path="url(#clip080)" d="M1997.43 1316.83 L2001.95 1316.83 L2010.05 1338.59 L2018.15 1316.83 L2022.66 1316.83 L2012.94 1342.76 L2007.16 1342.76 L1997.43 1316.83 Z" fill="#000000" fill-rule="nonzero" fill-opacity="1" /><path clip-path="url(#clip080)" d="M2029.19 1308.2 L2047.55 1308.2 L2047.55 1312.13 L2033.47 1312.13 L2033.47 1320.6 Q2034.49 1320.26 2035.51 1320.09 Q2036.53 1319.91 2037.55 1319.91 Q2043.34 1319.91 2046.72 1323.08 Q2050.09 1326.25 2050.09 1331.67 Q2050.09 1337.25 2046.62 1340.35 Q2043.15 1343.43 2036.83 1343.43 Q2034.66 1343.43 2032.39 1343.06 Q2030.14 1342.69 2027.73 1341.95 L2027.73 1337.25 Q2029.82 1338.38 2032.04 1338.94 Q2034.26 1339.49 2036.74 1339.49 Q2040.74 1339.49 2043.08 1337.38 Q2045.42 1335.28 2045.42 1331.67 Q2045.42 1328.06 2043.08 1325.95 Q2040.74 1323.84 2036.74 1323.84 Q2034.86 1323.84 2032.99 1324.26 Q2031.14 1324.68 2029.19 1325.56 L2029.19 1308.2 Z" fill="#000000" fill-rule="nonzero" fill-opacity="1" /><path clip-path="url(#clip080)" d="M2067.97 1326.11 L2067.97 1333.33 L2076.09 1333.33 L2076.09 1335.53 L2067.97 1335.53 L2067.97 1342.76 L2065.53 1342.76 L2065.53 1335.53 L2057.41 1335.53 L2057.41 1333.33 L2065.53 1333.33 L2065.53 1326.11 L2067.97 1326.11 Z" fill="#000000" fill-rule="nonzero" fill-opacity="1" /><path clip-path="url(#clip080)" d="M2100.26 1317.59 L2100.26 1321.62 Q2098.45 1320.7 2096.51 1320.23 Q2094.56 1319.77 2092.48 1319.77 Q2089.31 1319.77 2087.71 1320.74 Q2086.14 1321.71 2086.14 1323.66 Q2086.14 1325.14 2087.27 1326 Q2088.4 1326.83 2091.83 1327.59 L2093.29 1327.92 Q2097.83 1328.89 2099.72 1330.67 Q2101.65 1332.43 2101.65 1335.6 Q2101.65 1339.21 2098.78 1341.32 Q2095.93 1343.43 2090.93 1343.43 Q2088.84 1343.43 2086.58 1343.01 Q2084.33 1342.62 2081.83 1341.81 L2081.83 1337.41 Q2084.19 1338.63 2086.48 1339.26 Q2088.78 1339.86 2091.02 1339.86 Q2094.03 1339.86 2095.65 1338.84 Q2097.27 1337.8 2097.27 1335.93 Q2097.27 1334.19 2096.09 1333.26 Q2094.93 1332.34 2090.97 1331.48 L2089.49 1331.14 Q2085.53 1330.3 2083.78 1328.59 Q2082.02 1326.85 2082.02 1323.84 Q2082.02 1320.19 2084.61 1318.2 Q2087.2 1316.2 2091.97 1316.2 Q2094.33 1316.2 2096.41 1316.55 Q2098.5 1316.9 2100.26 1317.59 Z" fill="#000000" fill-rule="nonzero" fill-opacity="1" /><path clip-path="url(#clip080)" d="M2112.64 1309.47 L2112.64 1316.83 L2121.41 1316.83 L2121.41 1320.14 L2112.64 1320.14 L2112.64 1334.21 Q2112.64 1337.38 2113.5 1338.29 Q2114.38 1339.19 2117.04 1339.19 L2121.41 1339.19 L2121.41 1342.76 L2117.04 1342.76 Q2112.11 1342.76 2110.23 1340.93 Q2108.36 1339.07 2108.36 1334.21 L2108.36 1320.14 L2105.23 1320.14 L2105.23 1316.83 L2108.36 1316.83 L2108.36 1309.47 L2112.64 1309.47 Z" fill="#000000" fill-rule="nonzero" fill-opacity="1" /><path clip-path="url(#clip080)" d="M2137.06 1319.82 Q2133.64 1319.82 2131.65 1322.5 Q2129.65 1325.16 2129.65 1329.82 Q2129.65 1334.47 2131.62 1337.15 Q2133.61 1339.82 2137.06 1339.82 Q2140.46 1339.82 2142.46 1337.13 Q2144.45 1334.45 2144.45 1329.82 Q2144.45 1325.21 2142.46 1322.52 Q2140.46 1319.82 2137.06 1319.82 M2137.06 1316.2 Q2142.62 1316.2 2145.79 1319.82 Q2148.96 1323.43 2148.96 1329.82 Q2148.96 1336.18 2145.79 1339.82 Q2142.62 1343.43 2137.06 1343.43 Q2131.48 1343.43 2128.31 1339.82 Q2125.16 1336.18 2125.16 1329.82 Q2125.16 1323.43 2128.31 1319.82 Q2131.48 1316.2 2137.06 1316.2 Z" fill="#000000" fill-rule="nonzero" fill-opacity="1" /><path clip-path="url(#clip080)" d="M2171.04 1320.81 Q2170.33 1320.39 2169.47 1320.21 Q2168.64 1320 2167.62 1320 Q2164.01 1320 2162.06 1322.36 Q2160.14 1324.7 2160.14 1329.1 L2160.14 1342.76 L2155.86 1342.76 L2155.86 1316.83 L2160.14 1316.83 L2160.14 1320.86 Q2161.48 1318.5 2163.64 1317.36 Q2165.79 1316.2 2168.87 1316.2 Q2169.31 1316.2 2169.84 1316.27 Q2170.37 1316.32 2171.02 1316.44 L2171.04 1320.81 Z" fill="#000000" fill-rule="nonzero" fill-opacity="1" /><path clip-path="url(#clip080)" d="M2187.29 1329.72 Q2182.13 1329.72 2180.14 1330.9 Q2178.15 1332.08 2178.15 1334.93 Q2178.15 1337.2 2179.63 1338.54 Q2181.14 1339.86 2183.71 1339.86 Q2187.25 1339.86 2189.38 1337.36 Q2191.53 1334.84 2191.53 1330.67 L2191.53 1329.72 L2187.29 1329.72 M2195.79 1327.96 L2195.79 1342.76 L2191.53 1342.76 L2191.53 1338.82 Q2190.07 1341.18 2187.9 1342.32 Q2185.72 1343.43 2182.57 1343.43 Q2178.59 1343.43 2176.23 1341.2 Q2173.89 1338.96 2173.89 1335.21 Q2173.89 1330.83 2176.81 1328.61 Q2179.75 1326.39 2185.56 1326.39 L2191.53 1326.39 L2191.53 1325.97 Q2191.53 1323.03 2189.58 1321.44 Q2187.66 1319.82 2184.17 1319.82 Q2181.95 1319.82 2179.84 1320.35 Q2177.73 1320.88 2175.79 1321.95 L2175.79 1318.01 Q2178.13 1317.11 2180.33 1316.67 Q2182.52 1316.2 2184.61 1316.2 Q2190.23 1316.2 2193.01 1319.12 Q2195.79 1322.04 2195.79 1327.96 Z" fill="#000000" fill-rule="nonzero" fill-opacity="1" /><path clip-path="url(#clip080)" d="M2221.62 1329.49 Q2221.62 1324.86 2219.7 1322.32 Q2217.8 1319.77 2214.35 1319.77 Q2210.93 1319.77 2209.01 1322.32 Q2207.11 1324.86 2207.11 1329.49 Q2207.11 1334.1 2209.01 1336.64 Q2210.93 1339.19 2214.35 1339.19 Q2217.8 1339.19 2219.7 1336.64 Q2221.62 1334.1 2221.62 1329.49 M2225.88 1339.54 Q2225.88 1346.16 2222.94 1349.38 Q2220 1352.62 2213.94 1352.62 Q2211.69 1352.62 2209.7 1352.27 Q2207.71 1351.95 2205.83 1351.25 L2205.83 1347.11 Q2207.71 1348.13 2209.54 1348.61 Q2211.37 1349.1 2213.27 1349.1 Q2217.46 1349.1 2219.54 1346.9 Q2221.62 1344.72 2221.62 1340.3 L2221.62 1338.2 Q2220.3 1340.49 2218.24 1341.62 Q2216.18 1342.76 2213.31 1342.76 Q2208.54 1342.76 2205.63 1339.12 Q2202.71 1335.49 2202.71 1329.49 Q2202.71 1323.47 2205.63 1319.84 Q2208.54 1316.2 2213.31 1316.2 Q2216.18 1316.2 2218.24 1317.34 Q2220.3 1318.47 2221.62 1320.76 L2221.62 1316.83 L2225.88 1316.83 L2225.88 1339.54 Z" fill="#000000" fill-rule="nonzero" fill-opacity="1" /><path clip-path="url(#clip080)" d="M2256.83 1328.73 L2256.83 1330.81 L2237.25 1330.81 Q2237.52 1335.21 2239.89 1337.52 Q2242.27 1339.82 2246.51 1339.82 Q2248.96 1339.82 2251.25 1339.21 Q2253.57 1338.61 2255.83 1337.41 L2255.83 1341.44 Q2253.54 1342.41 2251.14 1342.92 Q2248.73 1343.43 2246.25 1343.43 Q2240.05 1343.43 2236.41 1339.82 Q2232.8 1336.2 2232.8 1330.05 Q2232.8 1323.68 2236.23 1319.95 Q2239.68 1316.2 2245.51 1316.2 Q2250.74 1316.2 2253.77 1319.58 Q2256.83 1322.94 2256.83 1328.73 M2252.57 1327.48 Q2252.52 1323.98 2250.6 1321.9 Q2248.71 1319.82 2245.56 1319.82 Q2241.99 1319.82 2239.84 1321.83 Q2237.71 1323.84 2237.39 1327.5 L2252.57 1327.48 Z" fill="#000000" fill-rule="nonzero" fill-opacity="1" /></svg>
