<?xml version="1.0" encoding="utf-8"?>
<svg xmlns="http://www.w3.org/2000/svg" xmlns:xlink="http://www.w3.org/1999/xlink" width="600" height="400" viewBox="0 0 2400 1600">
<defs>
  <clipPath id="clip060">
    <rect x="0" y="0" width="2400" height="1600"/>
  </clipPath>
</defs>
<path clip-path="url(#clip060)" d="M0 1600 L2400 1600 L2400 0 L0 0  Z" fill="#ffffff" fill-rule="evenodd" fill-opacity="1"/>
<defs>
  <clipPath id="clip061">
    <rect x="480" y="0" width="1681" height="1600"/>
  </clipPath>
</defs>
<path clip-path="url(#clip060)" d="M194.422 1423.18 L2352.76 1423.18 L2352.76 47.2441 L194.422 47.2441  Z" fill="#ffffff" fill-rule="evenodd" fill-opacity="1"/>
<defs>
  <clipPath id="clip062">
    <rect x="194" y="47" width="2159" height="1377"/>
  </clipPath>
</defs>
<polyline clip-path="url(#clip062)" style="stroke:#000000; stroke-linecap:round; stroke-linejoin:round; stroke-width:2; stroke-opacity:0.1; fill:none" points="194.422,1423.18 194.422,47.2441 "/>
<polyline clip-path="url(#clip062)" style="stroke:#000000; stroke-linecap:round; stroke-linejoin:round; stroke-width:2; stroke-opacity:0.1; fill:none" points="734.006,1423.18 734.006,47.2441 "/>
<polyline clip-path="url(#clip062)" style="stroke:#000000; stroke-linecap:round; stroke-linejoin:round; stroke-width:2; stroke-opacity:0.1; fill:none" points="1273.59,1423.18 1273.59,47.2441 "/>
<polyline clip-path="url(#clip062)" style="stroke:#000000; stroke-linecap:round; stroke-linejoin:round; stroke-width:2; stroke-opacity:0.1; fill:none" points="1813.17,1423.18 1813.17,47.2441 "/>
<polyline clip-path="url(#clip062)" style="stroke:#000000; stroke-linecap:round; stroke-linejoin:round; stroke-width:2; stroke-opacity:0.1; fill:none" points="2352.76,1423.18 2352.76,47.2441 "/>
<polyline clip-path="url(#clip062)" style="stroke:#000000; stroke-linecap:round; stroke-linejoin:round; stroke-width:2; stroke-opacity:0.1; fill:none" points="194.422,1347.22 2352.76,1347.22 "/>
<polyline clip-path="url(#clip062)" style="stroke:#000000; stroke-linecap:round; stroke-linejoin:round; stroke-width:2; stroke-opacity:0.1; fill:none" points="194.422,1053.54 2352.76,1053.54 "/>
<polyline clip-path="url(#clip062)" style="stroke:#000000; stroke-linecap:round; stroke-linejoin:round; stroke-width:2; stroke-opacity:0.1; fill:none" points="194.422,759.856 2352.76,759.856 "/>
<polyline clip-path="url(#clip062)" style="stroke:#000000; stroke-linecap:round; stroke-linejoin:round; stroke-width:2; stroke-opacity:0.1; fill:none" points="194.422,466.176 2352.76,466.176 "/>
<polyline clip-path="url(#clip062)" style="stroke:#000000; stroke-linecap:round; stroke-linejoin:round; stroke-width:2; stroke-opacity:0.1; fill:none" points="194.422,172.495 2352.76,172.495 "/>
<polyline clip-path="url(#clip060)" style="stroke:#000000; stroke-linecap:round; stroke-linejoin:round; stroke-width:4; stroke-opacity:1; fill:none" points="194.422,1423.18 2352.76,1423.18 "/>
<polyline clip-path="url(#clip060)" style="stroke:#000000; stroke-linecap:round; stroke-linejoin:round; stroke-width:4; stroke-opacity:1; fill:none" points="194.422,1423.18 194.422,1404.28 "/>
<polyline clip-path="url(#clip060)" style="stroke:#000000; stroke-linecap:round; stroke-linejoin:round; stroke-width:4; stroke-opacity:1; fill:none" points="734.006,1423.18 734.006,1404.28 "/>
<polyline clip-path="url(#clip060)" style="stroke:#000000; stroke-linecap:round; stroke-linejoin:round; stroke-width:4; stroke-opacity:1; fill:none" points="1273.59,1423.18 1273.59,1404.28 "/>
<polyline clip-path="url(#clip060)" style="stroke:#000000; stroke-linecap:round; stroke-linejoin:round; stroke-width:4; stroke-opacity:1; fill:none" points="1813.17,1423.18 1813.17,1404.28 "/>
<polyline clip-path="url(#clip060)" style="stroke:#000000; stroke-linecap:round; stroke-linejoin:round; stroke-width:4; stroke-opacity:1; fill:none" points="2352.76,1423.18 2352.76,1404.28 "/>
<path clip-path="url(#clip060)" d="M171.806 1454.1 Q168.195 1454.1 166.367 1457.66 Q164.561 1461.2 164.561 1468.33 Q164.561 1475.44 166.367 1479.01 Q168.195 1482.55 171.806 1482.55 Q175.441 1482.55 177.246 1479.01 Q179.075 1475.44 179.075 1468.33 Q179.075 1461.2 177.246 1457.66 Q175.441 1454.1 171.806 1454.1 M171.806 1450.39 Q177.617 1450.39 180.672 1455 Q183.751 1459.58 183.751 1468.33 Q183.751 1477.06 180.672 1481.67 Q177.617 1486.25 171.806 1486.25 Q165.996 1486.25 162.918 1481.67 Q159.862 1477.06 159.862 1468.33 Q159.862 1459.58 162.918 1455 Q165.996 1450.39 171.806 1450.39 Z" fill="#000000" fill-rule="nonzero" fill-opacity="1" /><path clip-path="url(#clip060)" d="M191.968 1479.7 L196.853 1479.7 L196.853 1485.58 L191.968 1485.58 L191.968 1479.7 Z" fill="#000000" fill-rule="nonzero" fill-opacity="1" /><path clip-path="url(#clip060)" d="M217.038 1454.1 Q213.427 1454.1 211.598 1457.66 Q209.792 1461.2 209.792 1468.33 Q209.792 1475.44 211.598 1479.01 Q213.427 1482.55 217.038 1482.55 Q220.672 1482.55 222.478 1479.01 Q224.306 1475.44 224.306 1468.33 Q224.306 1461.2 222.478 1457.66 Q220.672 1454.1 217.038 1454.1 M217.038 1450.39 Q222.848 1450.39 225.903 1455 Q228.982 1459.58 228.982 1468.33 Q228.982 1477.06 225.903 1481.67 Q222.848 1486.25 217.038 1486.25 Q211.228 1486.25 208.149 1481.67 Q205.093 1477.06 205.093 1468.33 Q205.093 1459.58 208.149 1455 Q211.228 1450.39 217.038 1450.39 Z" fill="#000000" fill-rule="nonzero" fill-opacity="1" /><path clip-path="url(#clip060)" d="M711.888 1454.1 Q708.277 1454.1 706.448 1457.66 Q704.642 1461.2 704.642 1468.33 Q704.642 1475.44 706.448 1479.01 Q708.277 1482.55 711.888 1482.55 Q715.522 1482.55 717.327 1479.01 Q719.156 1475.44 719.156 1468.33 Q719.156 1461.2 717.327 1457.66 Q715.522 1454.1 711.888 1454.1 M711.888 1450.39 Q717.698 1450.39 720.753 1455 Q723.832 1459.58 723.832 1468.33 Q723.832 1477.06 720.753 1481.67 Q717.698 1486.25 711.888 1486.25 Q706.077 1486.25 702.999 1481.67 Q699.943 1477.06 699.943 1468.33 Q699.943 1459.58 702.999 1455 Q706.077 1450.39 711.888 1450.39 Z" fill="#000000" fill-rule="nonzero" fill-opacity="1" /><path clip-path="url(#clip060)" d="M732.05 1479.7 L736.934 1479.7 L736.934 1485.58 L732.05 1485.58 L732.05 1479.7 Z" fill="#000000" fill-rule="nonzero" fill-opacity="1" /><path clip-path="url(#clip060)" d="M747.165 1451.02 L765.522 1451.02 L765.522 1454.96 L751.448 1454.96 L751.448 1463.43 Q752.466 1463.08 753.485 1462.92 Q754.503 1462.73 755.522 1462.73 Q761.309 1462.73 764.688 1465.9 Q768.068 1469.08 768.068 1474.49 Q768.068 1480.07 764.596 1483.17 Q761.123 1486.25 754.804 1486.25 Q752.628 1486.25 750.36 1485.88 Q748.114 1485.51 745.707 1484.77 L745.707 1480.07 Q747.79 1481.2 750.012 1481.76 Q752.235 1482.32 754.711 1482.32 Q758.716 1482.32 761.054 1480.21 Q763.392 1478.1 763.392 1474.49 Q763.392 1470.88 761.054 1468.77 Q758.716 1466.67 754.711 1466.67 Q752.836 1466.67 750.961 1467.08 Q749.11 1467.5 747.165 1468.38 L747.165 1451.02 Z" fill="#000000" fill-rule="nonzero" fill-opacity="1" /><path clip-path="url(#clip060)" d="M1240.74 1481.64 L1248.38 1481.64 L1248.38 1455.28 L1240.07 1456.95 L1240.07 1452.69 L1248.33 1451.02 L1253.01 1451.02 L1253.01 1481.64 L1260.65 1481.64 L1260.65 1485.58 L1240.74 1485.58 L1240.74 1481.64 Z" fill="#000000" fill-rule="nonzero" fill-opacity="1" /><path clip-path="url(#clip060)" d="M1270.09 1479.7 L1274.98 1479.7 L1274.98 1485.58 L1270.09 1485.58 L1270.09 1479.7 Z" fill="#000000" fill-rule="nonzero" fill-opacity="1" /><path clip-path="url(#clip060)" d="M1295.16 1454.1 Q1291.55 1454.1 1289.72 1457.66 Q1287.92 1461.2 1287.92 1468.33 Q1287.92 1475.44 1289.72 1479.01 Q1291.55 1482.55 1295.16 1482.55 Q1298.8 1482.55 1300.6 1479.01 Q1302.43 1475.44 1302.43 1468.33 Q1302.43 1461.2 1300.6 1457.66 Q1298.8 1454.1 1295.16 1454.1 M1295.16 1450.39 Q1300.97 1450.39 1304.03 1455 Q1307.11 1459.58 1307.11 1468.33 Q1307.11 1477.06 1304.03 1481.67 Q1300.97 1486.25 1295.16 1486.25 Q1289.35 1486.25 1286.27 1481.67 Q1283.22 1477.06 1283.22 1468.33 Q1283.22 1459.58 1286.27 1455 Q1289.35 1450.39 1295.16 1450.39 Z" fill="#000000" fill-rule="nonzero" fill-opacity="1" /><path clip-path="url(#clip060)" d="M1780.82 1481.64 L1788.46 1481.64 L1788.46 1455.28 L1780.15 1456.95 L1780.15 1452.69 L1788.42 1451.02 L1793.09 1451.02 L1793.09 1481.64 L1800.73 1481.64 L1800.73 1485.58 L1780.82 1485.58 L1780.82 1481.64 Z" fill="#000000" fill-rule="nonzero" fill-opacity="1" /><path clip-path="url(#clip060)" d="M1810.17 1479.7 L1815.06 1479.7 L1815.06 1485.58 L1810.17 1485.58 L1810.17 1479.7 Z" fill="#000000" fill-rule="nonzero" fill-opacity="1" /><path clip-path="url(#clip060)" d="M1825.29 1451.02 L1843.65 1451.02 L1843.65 1454.96 L1829.57 1454.96 L1829.57 1463.43 Q1830.59 1463.08 1831.61 1462.92 Q1832.63 1462.73 1833.65 1462.73 Q1839.43 1462.73 1842.81 1465.9 Q1846.19 1469.08 1846.19 1474.49 Q1846.19 1480.07 1842.72 1483.17 Q1839.25 1486.25 1832.93 1486.25 Q1830.75 1486.25 1828.48 1485.88 Q1826.24 1485.51 1823.83 1484.77 L1823.83 1480.07 Q1825.92 1481.2 1828.14 1481.76 Q1830.36 1482.32 1832.84 1482.32 Q1836.84 1482.32 1839.18 1480.21 Q1841.52 1478.1 1841.52 1474.49 Q1841.52 1470.88 1839.18 1468.77 Q1836.84 1466.67 1832.84 1466.67 Q1830.96 1466.67 1829.09 1467.08 Q1827.23 1467.5 1825.29 1468.38 L1825.29 1451.02 Z" fill="#000000" fill-rule="nonzero" fill-opacity="1" /><path clip-path="url(#clip060)" d="M2323.99 1481.64 L2340.31 1481.64 L2340.31 1485.58 L2318.37 1485.58 L2318.37 1481.64 Q2321.03 1478.89 2325.61 1474.26 Q2330.22 1469.61 2331.4 1468.27 Q2333.65 1465.74 2334.53 1464.01 Q2335.43 1462.25 2335.43 1460.56 Q2335.43 1457.8 2333.49 1456.07 Q2331.56 1454.33 2328.46 1454.33 Q2326.26 1454.33 2323.81 1455.09 Q2321.38 1455.86 2318.6 1457.41 L2318.6 1452.69 Q2321.43 1451.55 2323.88 1450.97 Q2326.33 1450.39 2328.37 1450.39 Q2333.74 1450.39 2336.93 1453.08 Q2340.13 1455.77 2340.13 1460.26 Q2340.13 1462.39 2339.32 1464.31 Q2338.53 1466.2 2336.42 1468.8 Q2335.85 1469.47 2332.74 1472.69 Q2329.64 1475.88 2323.99 1481.64 Z" fill="#000000" fill-rule="nonzero" fill-opacity="1" /><path clip-path="url(#clip060)" d="M2350.13 1479.7 L2355.01 1479.7 L2355.01 1485.58 L2350.13 1485.58 L2350.13 1479.7 Z" fill="#000000" fill-rule="nonzero" fill-opacity="1" /><path clip-path="url(#clip060)" d="M2375.2 1454.1 Q2371.59 1454.1 2369.76 1457.66 Q2367.95 1461.2 2367.95 1468.33 Q2367.95 1475.44 2369.76 1479.01 Q2371.59 1482.55 2375.2 1482.55 Q2378.83 1482.55 2380.64 1479.01 Q2382.47 1475.44 2382.47 1468.33 Q2382.47 1461.2 2380.64 1457.66 Q2378.83 1454.1 2375.2 1454.1 M2375.2 1450.39 Q2381.01 1450.39 2384.06 1455 Q2387.14 1459.58 2387.14 1468.33 Q2387.14 1477.06 2384.06 1481.67 Q2381.01 1486.25 2375.2 1486.25 Q2369.39 1486.25 2366.31 1481.67 Q2363.25 1477.06 2363.25 1468.33 Q2363.25 1459.58 2366.31 1455 Q2369.39 1450.39 2375.2 1450.39 Z" fill="#000000" fill-rule="nonzero" fill-opacity="1" /><path clip-path="url(#clip060)" d="M1272.65 1522.27 L1272.65 1532.4 L1284.71 1532.4 L1284.71 1536.95 L1272.65 1536.95 L1272.65 1556.3 Q1272.65 1560.66 1273.83 1561.9 Q1275.04 1563.14 1278.7 1563.14 L1284.71 1563.14 L1284.71 1568.04 L1278.7 1568.04 Q1271.92 1568.04 1269.34 1565.53 Q1266.76 1562.98 1266.76 1556.3 L1266.76 1536.95 L1262.46 1536.95 L1262.46 1532.4 L1266.76 1532.4 L1266.76 1522.27 L1272.65 1522.27 Z" fill="#000000" fill-rule="nonzero" fill-opacity="1" /><polyline clip-path="url(#clip060)" style="stroke:#000000; stroke-linecap:round; stroke-linejoin:round; stroke-width:4; stroke-opacity:1; fill:none" points="194.422,1423.18 194.422,47.2441 "/>
<polyline clip-path="url(#clip060)" style="stroke:#000000; stroke-linecap:round; stroke-linejoin:round; stroke-width:4; stroke-opacity:1; fill:none" points="194.422,1347.22 213.32,1347.22 "/>
<polyline clip-path="url(#clip060)" style="stroke:#000000; stroke-linecap:round; stroke-linejoin:round; stroke-width:4; stroke-opacity:1; fill:none" points="194.422,1053.54 213.32,1053.54 "/>
<polyline clip-path="url(#clip060)" style="stroke:#000000; stroke-linecap:round; stroke-linejoin:round; stroke-width:4; stroke-opacity:1; fill:none" points="194.422,759.856 213.32,759.856 "/>
<polyline clip-path="url(#clip060)" style="stroke:#000000; stroke-linecap:round; stroke-linejoin:round; stroke-width:4; stroke-opacity:1; fill:none" points="194.422,466.176 213.32,466.176 "/>
<polyline clip-path="url(#clip060)" style="stroke:#000000; stroke-linecap:round; stroke-linejoin:round; stroke-width:4; stroke-opacity:1; fill:none" points="194.422,172.495 213.32,172.495 "/>
<path clip-path="url(#clip060)" d="M51.4782 1347.67 L81.154 1347.67 L81.154 1351.6 L51.4782 1351.6 L51.4782 1347.67 Z" fill="#000000" fill-rule="nonzero" fill-opacity="1" /><path clip-path="url(#clip060)" d="M92.0567 1360.56 L99.6956 1360.56 L99.6956 1334.2 L91.3854 1335.86 L91.3854 1331.6 L99.6493 1329.94 L104.325 1329.94 L104.325 1360.56 L111.964 1360.56 L111.964 1364.5 L92.0567 1364.5 L92.0567 1360.56 Z" fill="#000000" fill-rule="nonzero" fill-opacity="1" /><path clip-path="url(#clip060)" d="M121.408 1358.62 L126.293 1358.62 L126.293 1364.5 L121.408 1364.5 L121.408 1358.62 Z" fill="#000000" fill-rule="nonzero" fill-opacity="1" /><path clip-path="url(#clip060)" d="M146.478 1333.02 Q142.867 1333.02 141.038 1336.58 Q139.232 1340.12 139.232 1347.25 Q139.232 1354.36 141.038 1357.92 Q142.867 1361.46 146.478 1361.46 Q150.112 1361.46 151.918 1357.92 Q153.746 1354.36 153.746 1347.25 Q153.746 1340.12 151.918 1336.58 Q150.112 1333.02 146.478 1333.02 M146.478 1329.31 Q152.288 1329.31 155.343 1333.92 Q158.422 1338.5 158.422 1347.25 Q158.422 1355.98 155.343 1360.59 Q152.288 1365.17 146.478 1365.17 Q140.668 1365.17 137.589 1360.59 Q134.533 1355.98 134.533 1347.25 Q134.533 1338.5 137.589 1333.92 Q140.668 1329.31 146.478 1329.31 Z" fill="#000000" fill-rule="nonzero" fill-opacity="1" /><path clip-path="url(#clip060)" d="M51.5708 1053.99 L81.2466 1053.99 L81.2466 1057.92 L51.5708 1057.92 L51.5708 1053.99 Z" fill="#000000" fill-rule="nonzero" fill-opacity="1" /><path clip-path="url(#clip060)" d="M101.339 1039.34 Q97.728 1039.34 95.8993 1042.9 Q94.0937 1046.44 94.0937 1053.57 Q94.0937 1060.68 95.8993 1064.24 Q97.728 1067.78 101.339 1067.78 Q104.973 1067.78 106.779 1064.24 Q108.608 1060.68 108.608 1053.57 Q108.608 1046.44 106.779 1042.9 Q104.973 1039.34 101.339 1039.34 M101.339 1035.63 Q107.149 1035.63 110.205 1040.24 Q113.283 1044.82 113.283 1053.57 Q113.283 1062.3 110.205 1066.9 Q107.149 1071.49 101.339 1071.49 Q95.5289 1071.49 92.4502 1066.9 Q89.3947 1062.3 89.3947 1053.57 Q89.3947 1044.82 92.4502 1040.24 Q95.5289 1035.63 101.339 1035.63 Z" fill="#000000" fill-rule="nonzero" fill-opacity="1" /><path clip-path="url(#clip060)" d="M121.501 1064.94 L126.385 1064.94 L126.385 1070.82 L121.501 1070.82 L121.501 1064.94 Z" fill="#000000" fill-rule="nonzero" fill-opacity="1" /><path clip-path="url(#clip060)" d="M146.57 1054.4 Q143.237 1054.4 141.316 1056.19 Q139.418 1057.97 139.418 1061.09 Q139.418 1064.22 141.316 1066 Q143.237 1067.78 146.57 1067.78 Q149.904 1067.78 151.825 1066 Q153.746 1064.2 153.746 1061.09 Q153.746 1057.97 151.825 1056.19 Q149.927 1054.4 146.57 1054.4 M141.894 1052.41 Q138.885 1051.67 137.195 1049.61 Q135.529 1047.55 135.529 1044.59 Q135.529 1040.45 138.469 1038.04 Q141.431 1035.63 146.57 1035.63 Q151.732 1035.63 154.672 1038.04 Q157.612 1040.45 157.612 1044.59 Q157.612 1047.55 155.922 1049.61 Q154.255 1051.67 151.269 1052.41 Q154.649 1053.2 156.524 1055.49 Q158.422 1057.78 158.422 1061.09 Q158.422 1066.12 155.343 1068.8 Q152.288 1071.49 146.57 1071.49 Q140.853 1071.49 137.774 1068.8 Q134.719 1066.12 134.719 1061.09 Q134.719 1057.78 136.617 1055.49 Q138.515 1053.2 141.894 1052.41 M140.181 1045.03 Q140.181 1047.71 141.848 1049.22 Q143.538 1050.72 146.57 1050.72 Q149.58 1050.72 151.269 1049.22 Q152.982 1047.71 152.982 1045.03 Q152.982 1042.34 151.269 1040.84 Q149.58 1039.34 146.57 1039.34 Q143.538 1039.34 141.848 1040.84 Q140.181 1042.34 140.181 1045.03 Z" fill="#000000" fill-rule="nonzero" fill-opacity="1" /><path clip-path="url(#clip060)" d="M51.3162 760.308 L80.992 760.308 L80.992 764.243 L51.3162 764.243 L51.3162 760.308 Z" fill="#000000" fill-rule="nonzero" fill-opacity="1" /><path clip-path="url(#clip060)" d="M101.084 745.655 Q97.4734 745.655 95.6447 749.22 Q93.8391 752.761 93.8391 759.891 Q93.8391 766.997 95.6447 770.562 Q97.4734 774.104 101.084 774.104 Q104.719 774.104 106.524 770.562 Q108.353 766.997 108.353 759.891 Q108.353 752.761 106.524 749.22 Q104.719 745.655 101.084 745.655 M101.084 741.951 Q106.895 741.951 109.95 746.558 Q113.029 751.141 113.029 759.891 Q113.029 768.618 109.95 773.224 Q106.895 777.807 101.084 777.807 Q95.2743 777.807 92.1956 773.224 Q89.1401 768.618 89.1401 759.891 Q89.1401 751.141 92.1956 746.558 Q95.2743 741.951 101.084 741.951 Z" fill="#000000" fill-rule="nonzero" fill-opacity="1" /><path clip-path="url(#clip060)" d="M121.246 771.257 L126.131 771.257 L126.131 777.136 L121.246 777.136 L121.246 771.257 Z" fill="#000000" fill-rule="nonzero" fill-opacity="1" /><path clip-path="url(#clip060)" d="M146.894 757.993 Q143.746 757.993 141.894 760.145 Q140.066 762.298 140.066 766.048 Q140.066 769.775 141.894 771.951 Q143.746 774.104 146.894 774.104 Q150.043 774.104 151.871 771.951 Q153.723 769.775 153.723 766.048 Q153.723 762.298 151.871 760.145 Q150.043 757.993 146.894 757.993 M156.177 743.34 L156.177 747.599 Q154.417 746.766 152.612 746.326 Q150.83 745.886 149.07 745.886 Q144.441 745.886 141.987 749.011 Q139.556 752.136 139.209 758.456 Q140.575 756.442 142.635 755.377 Q144.695 754.289 147.172 754.289 Q152.38 754.289 155.39 757.46 Q158.422 760.608 158.422 766.048 Q158.422 771.372 155.274 774.59 Q152.126 777.807 146.894 777.807 Q140.899 777.807 137.728 773.224 Q134.556 768.618 134.556 759.891 Q134.556 751.696 138.445 746.835 Q142.334 741.951 148.885 741.951 Q150.644 741.951 152.427 742.298 Q154.232 742.646 156.177 743.34 Z" fill="#000000" fill-rule="nonzero" fill-opacity="1" /><path clip-path="url(#clip060)" d="M50.9921 466.627 L80.6679 466.627 L80.6679 470.562 L50.9921 470.562 L50.9921 466.627 Z" fill="#000000" fill-rule="nonzero" fill-opacity="1" /><path clip-path="url(#clip060)" d="M100.76 451.974 Q97.1493 451.974 95.3206 455.539 Q93.515 459.081 93.515 466.21 Q93.515 473.317 95.3206 476.882 Q97.1493 480.423 100.76 480.423 Q104.395 480.423 106.2 476.882 Q108.029 473.317 108.029 466.21 Q108.029 459.081 106.2 455.539 Q104.395 451.974 100.76 451.974 M100.76 448.271 Q106.571 448.271 109.626 452.877 Q112.705 457.46 112.705 466.21 Q112.705 474.937 109.626 479.544 Q106.571 484.127 100.76 484.127 Q94.9502 484.127 91.8715 479.544 Q88.816 474.937 88.816 466.21 Q88.816 457.46 91.8715 452.877 Q94.9502 448.271 100.76 448.271 Z" fill="#000000" fill-rule="nonzero" fill-opacity="1" /><path clip-path="url(#clip060)" d="M120.922 477.576 L125.807 477.576 L125.807 483.456 L120.922 483.456 L120.922 477.576 Z" fill="#000000" fill-rule="nonzero" fill-opacity="1" /><path clip-path="url(#clip060)" d="M148.839 452.97 L137.033 471.419 L148.839 471.419 L148.839 452.97 M147.612 448.896 L153.492 448.896 L153.492 471.419 L158.422 471.419 L158.422 475.308 L153.492 475.308 L153.492 483.456 L148.839 483.456 L148.839 475.308 L133.237 475.308 L133.237 470.794 L147.612 448.896 Z" fill="#000000" fill-rule="nonzero" fill-opacity="1" /><path clip-path="url(#clip060)" d="M53.0754 172.946 L82.7512 172.946 L82.7512 176.882 L53.0754 176.882 L53.0754 172.946 Z" fill="#000000" fill-rule="nonzero" fill-opacity="1" /><path clip-path="url(#clip060)" d="M102.844 158.294 Q99.2326 158.294 97.4039 161.859 Q95.5984 165.4 95.5984 172.53 Q95.5984 179.636 97.4039 183.201 Q99.2326 186.743 102.844 186.743 Q106.478 186.743 108.283 183.201 Q110.112 179.636 110.112 172.53 Q110.112 165.4 108.283 161.859 Q106.478 158.294 102.844 158.294 M102.844 154.59 Q108.654 154.59 111.709 159.197 Q114.788 163.78 114.788 172.53 Q114.788 181.257 111.709 185.863 Q108.654 190.446 102.844 190.446 Q97.0335 190.446 93.9549 185.863 Q90.8993 181.257 90.8993 172.53 Q90.8993 163.78 93.9549 159.197 Q97.0335 154.59 102.844 154.59 Z" fill="#000000" fill-rule="nonzero" fill-opacity="1" /><path clip-path="url(#clip060)" d="M123.006 183.896 L127.89 183.896 L127.89 189.775 L123.006 189.775 L123.006 183.896 Z" fill="#000000" fill-rule="nonzero" fill-opacity="1" /><path clip-path="url(#clip060)" d="M142.103 185.84 L158.422 185.84 L158.422 189.775 L136.478 189.775 L136.478 185.84 Q139.14 183.085 143.723 178.456 Q148.33 173.803 149.51 172.46 Q151.755 169.937 152.635 168.201 Q153.538 166.442 153.538 164.752 Q153.538 161.997 151.593 160.261 Q149.672 158.525 146.57 158.525 Q144.371 158.525 141.918 159.289 Q139.487 160.053 136.709 161.604 L136.709 156.882 Q139.533 155.748 141.987 155.169 Q144.441 154.59 146.478 154.59 Q151.848 154.59 155.042 157.275 Q158.237 159.96 158.237 164.451 Q158.237 166.581 157.427 168.502 Q156.64 170.4 154.533 172.993 Q153.955 173.664 150.853 176.882 Q147.751 180.076 142.103 185.84 Z" fill="#000000" fill-rule="nonzero" fill-opacity="1" /><polyline clip-path="url(#clip062)" style="stroke:#009af9; stroke-linecap:round; stroke-linejoin:round; stroke-width:4; stroke-opacity:1; fill:none" points="194.422,86.1857 196.583,91.6724 198.743,97.1044 200.904,102.482 203.064,107.807 205.225,113.078 207.385,118.297 209.546,123.464 211.706,128.579 213.867,133.644 216.027,138.658 218.188,143.622 220.348,148.536 222.509,153.402 224.669,158.219 226.83,162.989 228.99,167.71 231.151,172.385 233.311,177.013 235.471,181.595 237.632,186.132 239.792,190.623 241.953,195.069 244.113,199.472 246.274,203.83 248.434,208.145 250.595,212.417 252.755,216.646 254.916,220.834 257.076,224.979 259.237,229.084 261.397,233.147 263.558,237.17 265.718,241.153 267.879,245.096 270.039,249 272.2,252.865 274.36,256.692 276.521,260.48 278.681,264.231 280.842,267.944 283.002,271.621 285.163,275.26 287.323,278.864 289.484,282.431 291.644,285.963 293.805,289.46 295.965,292.922 298.126,296.35 300.286,299.743 302.447,303.103 304.607,306.429 306.768,309.722 308.928,312.983 311.089,316.21 313.249,319.406 315.41,322.57 317.57,325.702 319.731,328.803 321.891,331.874 324.052,334.913 326.212,337.923 328.373,340.902 330.533,343.852 332.694,346.772 334.854,349.664 337.015,352.526 339.175,355.36 341.336,358.166 343.496,360.943 345.657,363.694 347.817,366.416 349.978,369.112 352.138,371.78 354.299,374.423 356.459,377.038 358.62,379.628 360.78,382.192 362.941,384.731 365.101,387.244 367.262,389.732 369.422,392.195 371.583,394.634 373.743,397.048 375.904,399.439 378.064,401.805 380.225,404.149 382.385,406.468 384.546,408.765 386.706,411.039 388.867,413.29 391.027,415.519 393.188,417.725 395.348,419.91 397.509,422.073 399.669,424.214 401.83,426.334 403.99,428.433 406.151,430.511 408.311,432.568 410.472,434.605 412.632,436.621 414.793,438.618 416.953,440.594 419.114,442.551 421.274,444.488 423.435,446.406 425.595,448.305 427.755,450.185 429.916,452.046 432.076,453.889 434.237,455.713 436.397,457.519 438.558,459.308 440.718,461.078 442.879,462.831 445.039,464.566 447.2,466.284 449.36,467.985 451.521,469.669 453.681,471.336 455.842,472.986 458.002,474.62 460.163,476.238 462.323,477.84 464.484,479.426 466.644,480.996 468.805,482.55 470.965,484.089 473.126,485.612 475.286,487.121 477.447,488.614 479.607,490.092 481.768,491.556 483.928,493.005 486.089,494.44 488.249,495.861 490.41,497.267 492.57,498.66 494.731,500.038 496.891,501.403 499.052,502.754 501.212,504.092 503.373,505.417 505.533,506.728 507.694,508.026 509.854,509.311 512.015,510.584 514.175,511.844 516.336,513.091 518.496,514.326 520.657,515.548 522.817,516.758 524.978,517.957 527.138,519.143 529.299,520.317 531.459,521.48 533.62,522.631 535.78,523.771 537.941,524.899 540.101,526.016 542.262,527.122 544.422,528.217 546.583,529.301 548.743,530.374 550.904,531.436 553.064,532.488 555.225,533.53 557.385,534.561 559.546,535.581 561.706,536.592 563.867,537.592 566.027,538.583 568.188,539.564 570.348,540.535 572.509,541.496 574.669,542.447 576.83,543.39 578.99,544.323 581.151,545.246 583.311,546.16 585.472,547.066 587.632,547.962 589.793,548.849 591.953,549.728 594.114,550.598 596.274,551.459 598.435,552.311 600.595,553.155 602.756,553.991 604.916,554.818 607.077,555.638 609.237,556.449 611.398,557.252 613.558,558.047 615.718,558.834 617.879,559.613 620.039,560.385 622.2,561.148 624.36,561.905 626.521,562.653 628.681,563.394 630.842,564.128 633.002,564.855 635.163,565.574 637.323,566.286 639.484,566.991 641.644,567.689 643.805,568.38 645.965,569.064 648.126,569.741 650.286,570.412 652.447,571.076 654.607,571.733 656.768,572.383 658.928,573.028 661.089,573.665 663.249,574.297 665.41,574.922 667.57,575.54 669.731,576.153 671.891,576.759 674.052,577.36 676.212,577.954 678.373,578.543 680.533,579.126 682.694,579.702 684.854,580.274 687.015,580.839 689.175,581.399 691.336,581.953 693.496,582.502 695.657,583.045 697.817,583.583 699.978,584.115 702.138,584.642 704.299,585.164 706.459,585.681 708.62,586.192 710.78,586.699 712.941,587.2 715.101,587.697 717.262,588.188 719.422,588.675 721.583,589.157 723.743,589.634 725.904,590.106 728.064,590.574 730.225,591.037 732.385,591.495 734.546,591.949 736.706,592.398 738.867,592.843 741.027,593.284 743.188,593.72 745.348,594.152 747.509,594.579 749.669,595.003 751.83,595.422 753.99,595.836 756.151,596.247 758.311,596.654 760.472,597.057 762.632,597.455 764.793,597.85 766.953,598.24 769.114,598.627 771.274,599.01 773.435,599.389 775.595,599.765 777.756,600.136 779.916,600.504 782.077,600.868 784.237,601.229 786.398,601.586 788.558,601.939 790.719,602.289 792.879,602.635 795.04,602.978 797.2,603.318 799.361,603.654 801.521,603.986 803.681,604.316 805.842,604.642 808.002,604.964 810.163,605.284 812.323,605.6 814.484,605.914 816.644,606.224 818.805,606.531 820.965,606.835 823.126,607.135 825.286,607.433 827.447,607.728 829.607,608.02 831.768,608.309 833.928,608.595 836.089,608.879 838.249,609.159 840.41,609.437 842.57,609.712 844.731,609.984 846.891,610.253 849.052,610.52 851.212,610.784 853.373,611.046 855.533,611.305 857.694,611.561 859.854,611.815 862.015,612.066 864.175,612.315 866.336,612.561 868.496,612.805 870.657,613.046 872.817,613.285 874.978,613.522 877.138,613.756 879.299,613.988 881.459,614.218 883.62,614.445 885.78,614.67 887.941,614.893 890.101,615.114 892.262,615.333 894.422,615.549 896.583,615.764 898.743,615.976 900.904,616.186 903.064,616.394 905.225,616.6 907.385,616.804 909.546,617.006 911.706,617.205 913.867,617.403 916.027,617.599 918.188,617.793 920.348,617.985 922.509,618.176 924.669,618.364 926.83,618.55 928.99,618.735 931.151,618.917 933.311,619.098 935.472,619.277 937.632,619.454 939.793,619.63 941.953,619.804 944.114,619.976 946.274,620.146 948.435,620.314 950.595,620.481 952.756,620.646 954.916,620.81 957.077,620.972 959.237,621.132 961.398,621.291 963.558,621.448 965.719,621.603 967.879,621.757 970.04,621.91 972.2,622.06 974.361,622.21 976.521,622.358 978.682,622.504 980.842,622.649 983.003,622.792 985.163,622.934 987.324,623.075 989.484,623.214 991.645,623.352 993.805,623.488 995.965,623.623 998.126,623.757 1000.29,623.889 1002.45,624.02 1004.61,624.15 1006.77,624.278 1008.93,624.405 1011.09,624.531 1013.25,624.656 1015.41,624.779 1017.57,624.901 1019.73,625.022 1021.89,625.142 1024.05,625.26 1026.21,625.377 1028.37,625.494 1030.53,625.609 1032.69,625.722 1034.85,625.835 1037.01,625.947 1039.18,626.057 1041.34,626.166 1043.5,626.275 1045.66,626.382 1047.82,626.488 1049.98,626.593 1052.14,626.697 1054.3,626.8 1056.46,626.903 1058.62,627.004 1060.78,627.104 1062.94,627.203 1065.1,627.301 1067.26,627.398 1069.42,627.494 1071.58,627.589 1073.74,627.684 1075.9,627.777 1078.06,627.87 1080.22,627.961 1082.39,628.052 1084.55,628.142 1086.71,628.231 1088.87,628.319 1091.03,628.406 1093.19,628.492 1095.35,628.578 1097.51,628.662 1099.67,628.746 1101.83,628.829 1103.99,628.911 1106.15,628.992 1108.31,629.073 1110.47,629.153 1112.63,629.232 1114.79,629.31 1116.95,629.387 1119.11,629.464 1121.27,629.539 1123.43,629.614 1125.6,629.689 1127.76,629.762 1129.92,629.835 1132.08,629.907 1134.24,629.978 1136.4,630.049 1138.56,630.119 1140.72,630.188 1142.88,630.257 1145.04,630.325 1147.2,630.392 1149.36,630.458 1151.52,630.524 1153.68,630.589 1155.84,630.654 1158,630.717 1160.16,630.781 1162.32,630.843 1164.48,630.905 1166.64,630.966 1168.81,631.027 1170.97,631.087 1173.13,631.146 1175.29,631.205 1177.45,631.264 1179.61,631.321 1181.77,631.378 1183.93,631.435 1186.09,631.491 1188.25,631.546 1190.41,631.601 1192.57,631.655 1194.73,631.709 1196.89,631.762 1199.05,631.814 1201.21,631.866 1203.37,631.918 1205.53,631.969 1207.69,632.02 1209.85,632.07 1212.01,632.119 1214.18,632.168 1216.34,632.217 1218.5,632.265 1220.66,632.312 1222.82,632.359 1224.98,632.406 1227.14,632.452 1229.3,632.498 1231.46,632.543 1233.62,632.588 1235.78,632.632 1237.94,632.676 1240.1,632.719 1242.26,632.762 1244.42,632.805 1246.58,632.847 1248.74,632.889 1250.9,632.93 1253.06,632.971 1255.22,633.011 1257.39,633.052 1259.55,633.091 1261.71,633.131 1263.87,633.17 1266.03,633.208 1268.19,633.247 1270.35,633.284 1272.51,633.322 1274.67,633.359 1276.83,633.396 1278.99,633.432 1281.15,633.468 1283.31,633.504 1285.47,633.539 1287.63,633.574 1289.79,633.609 1291.95,633.644 1294.11,633.678 1296.27,633.711 1298.43,633.745 1300.6,633.778 1302.76,633.811 1304.92,633.843 1307.08,633.875 1309.24,633.907 1311.4,633.938 1313.56,633.97 1315.72,634 1317.88,634.031 1320.04,634.061 1322.2,634.091 1324.36,634.121 1326.52,634.15 1328.68,634.179 1330.84,634.208 1333,634.237 1335.16,634.265 1337.32,634.293 1339.48,634.321 1341.64,634.348 1343.81,634.375 1345.97,634.402 1348.13,634.429 1350.29,634.455 1352.45,634.481 1354.61,634.507 1356.77,634.532 1358.93,634.558 1361.09,634.583 1363.25,634.607 1365.41,634.632 1367.57,634.656 1369.73,634.68 1371.89,634.704 1374.05,634.727 1376.21,634.751 1378.37,634.774 1380.53,634.796 1382.69,634.819 1384.85,634.841 1387.01,634.863 1389.18,634.885 1391.34,634.907 1393.5,634.928 1395.66,634.95 1397.82,634.971 1399.98,634.991 1402.14,635.012 1404.3,635.032 1406.46,635.052 1408.62,635.072 1410.78,635.092 1412.94,635.112 1415.1,635.131 1417.26,635.15 1419.42,635.169 1421.58,635.188 1423.74,635.206 1425.9,635.225 1428.06,635.243 1430.22,635.261 1432.39,635.279 1434.55,635.296 1436.71,635.314 1438.87,635.331 1441.03,635.348 1443.19,635.365 1445.35,635.381 1447.51,635.398 1449.67,635.414 1451.83,635.431 1453.99,635.447 1456.15,635.463 1458.31,635.478 1460.47,635.494 1462.63,635.509 1464.79,635.524 1466.95,635.54 1469.11,635.554 1471.27,635.569 1473.43,635.584 1475.6,635.598 1477.76,635.613 1479.92,635.627 1482.08,635.641 1484.24,635.655 1486.4,635.669 1488.56,635.682 1490.72,635.696 1492.88,635.709 1495.04,635.723 1497.2,635.736 1499.36,635.749 1501.52,635.762 1503.68,635.774 1505.84,635.787 1508,635.799 1510.16,635.812 1512.32,635.824 1514.48,635.836 1516.64,635.848 1518.81,635.86 1520.97,635.872 1523.13,635.884 1525.29,635.896 1527.45,635.907 1529.61,635.918 1531.77,635.93 1533.93,635.941 1536.09,635.952 1538.25,635.963 1540.41,635.974 1542.57,635.985 1544.73,635.996 1546.89,636.006 1549.05,636.017 1551.21,636.027 1553.37,636.037 1555.53,636.048 1557.69,636.058 1559.85,636.068 1562.01,636.078 1564.18,636.088 1566.34,636.097 1568.5,636.107 1570.66,636.116 1572.82,636.126 1574.98,636.135 1577.14,636.145 1579.3,636.154 1581.46,636.163 1583.62,636.172 1585.78,636.181 1587.94,636.19 1590.1,636.198 1592.26,636.207 1594.42,636.216 1596.58,636.224 1598.74,636.233 1600.9,636.241 1603.06,636.249 1605.22,636.257 1607.39,636.265 1609.55,636.273 1611.71,636.281 1613.87,636.289 1616.03,636.297 1618.19,636.304 1620.35,636.312 1622.51,636.32 1624.67,636.327 1626.83,636.334 1628.99,636.342 1631.15,636.349 1633.31,636.356 1635.47,636.363 1637.63,636.37 1639.79,636.377 1641.95,636.384 1644.11,636.391 1646.27,636.397 1648.43,636.404 1650.6,636.41 1652.76,636.417 1654.92,636.423 1657.08,636.43 1659.24,636.436 1661.4,636.442 1663.56,636.448 1665.72,636.454 1667.88,636.46 1670.04,636.466 1672.2,636.472 1674.36,636.478 1676.52,636.484 1678.68,636.489 1680.84,636.495 1683,636.501 1685.16,636.506 1687.32,636.512 1689.48,636.517 1691.64,636.522 1693.81,636.528 1695.97,636.533 1698.13,636.538 1700.29,636.543 1702.45,636.548 1704.61,636.553 1706.77,636.558 1708.93,636.563 1711.09,636.568 1713.25,636.573 1715.41,636.577 1717.57,636.582 1719.73,636.587 1721.89,636.591 1724.05,636.596 1726.21,636.6 1728.37,636.605 1730.53,636.609 1732.69,636.614 1734.85,636.618 1737.02,636.622 1739.18,636.626 1741.34,636.63 1743.5,636.635 1745.66,636.639 1747.82,636.643 1749.98,636.647 1752.14,636.651 1754.3,636.654 1756.46,636.658 1758.62,636.662 1760.78,636.666 1762.94,636.67 1765.1,636.673 1767.26,636.677 1769.42,636.681 1771.58,636.684 1773.74,636.688 1775.9,636.691 1778.06,636.695 1780.22,636.698 1782.39,636.702 1784.55,636.705 1786.71,636.709 1788.87,636.712 1791.03,636.715 1793.19,636.718 1795.35,636.722 1797.51,636.725 1799.67,636.728 1801.83,636.731 1803.99,636.734 1806.15,636.737 1808.31,636.741 1810.47,636.744 1812.63,636.747 1814.79,636.75 1816.95,636.753 1819.11,636.756 1821.27,636.759 1823.43,636.761 1825.6,636.764 1827.76,636.767 1829.92,636.77 1832.08,636.773 1834.24,636.776 1836.4,636.779 1838.56,636.781 1840.72,636.784 1842.88,636.787 1845.04,636.789 1847.2,636.792 1849.36,636.795 1851.52,636.797 1853.68,636.8 1855.84,636.803 1858,636.805 1860.16,636.808 1862.32,636.81 1864.48,636.813 1866.64,636.815 1868.81,636.818 1870.97,636.82 1873.13,636.823 1875.29,636.825 1877.45,636.827 1879.61,636.83 1881.77,636.832 1883.93,636.834 1886.09,636.837 1888.25,636.839 1890.41,636.841 1892.57,636.843 1894.73,636.845 1896.89,636.848 1899.05,636.85 1901.21,636.852 1903.37,636.854 1905.53,636.856 1907.69,636.858 1909.85,636.86 1912.02,636.862 1914.18,636.864 1916.34,636.866 1918.5,636.868 1920.66,636.87 1922.82,636.872 1924.98,636.874 1927.14,636.876 1929.3,636.878 1931.46,636.88 1933.62,636.881 1935.78,636.883 1937.94,636.885 1940.1,636.887 1942.26,636.889 1944.42,636.89 1946.58,636.892 1948.74,636.894 1950.9,636.895 1953.06,636.897 1955.22,636.899 1957.39,636.9 1959.55,636.902 1961.71,636.904 1963.87,636.905 1966.03,636.907 1968.19,636.908 1970.35,636.91 1972.51,636.911 1974.67,636.913 1976.83,636.914 1978.99,636.916 1981.15,636.917 1983.31,636.918 1985.47,636.92 1987.63,636.921 1989.79,636.923 1991.95,636.924 1994.11,636.925 1996.27,636.927 1998.43,636.928 2000.6,636.929 2002.76,636.93 2004.92,636.932 2007.08,636.933 2009.24,636.934 2011.4,636.935 2013.56,636.937 2015.72,636.938 2017.88,636.939 2020.04,636.94 2022.2,636.941 2024.36,636.942 2026.52,636.943 2028.68,636.945 2030.84,636.946 2033,636.947 2035.16,636.948 2037.32,636.949 2039.48,636.95 2041.64,636.951 2043.81,636.952 2045.97,636.953 2048.13,636.954 2050.29,636.955 2052.45,636.956 2054.61,636.957 2056.77,636.958 2058.93,636.959 2061.09,636.959 2063.25,636.96 2065.41,636.961 2067.57,636.962 2069.73,636.963 2071.89,636.964 2074.05,636.965 2076.21,636.965 2078.37,636.966 2080.53,636.967 2082.69,636.968 2084.85,636.969 2087.02,636.969 2089.18,636.97 2091.34,636.971 2093.5,636.972 2095.66,636.973 2097.82,636.973 2099.98,636.974 2102.14,636.975 2104.3,636.975 2106.46,636.976 2108.62,636.977 2110.78,636.977 2112.94,636.978 2115.1,636.979 2117.26,636.98 2119.42,636.98 2121.58,636.981 2123.74,636.981 2125.9,636.982 2128.06,636.983 2130.22,636.983 2132.39,636.984 2134.55,636.985 2136.71,636.985 2138.87,636.986 2141.03,636.986 2143.19,636.987 2145.35,636.988 2147.51,636.988 2149.67,636.989 2151.83,636.989 2153.99,636.99 2156.15,636.991 2158.31,636.991 2160.47,636.992 2162.63,636.992 2164.79,636.993 2166.95,636.993 2169.11,636.994 2171.27,636.994 2173.43,636.995 2175.6,636.996 2177.76,636.996 2179.92,636.997 2182.08,636.997 2184.24,636.998 2186.4,636.998 2188.56,636.999 2190.72,636.999 2192.88,637 2195.04,637.001 2197.2,637.001 2199.36,637.002 2201.52,637.002 2203.68,637.003 2205.84,637.003 2208,637.004 2210.16,637.004 2212.32,637.005 2214.48,637.005 2216.64,637.006 2218.81,637.006 2220.97,637.007 2223.13,637.007 2225.29,637.008 2227.45,637.008 2229.61,637.009 2231.77,637.009 2233.93,637.01 2236.09,637.01 2238.25,637.01 2240.41,637.011 2242.57,637.011 2244.73,637.012 2246.89,637.012 2249.05,637.013 2251.21,637.013 2253.37,637.013 2255.53,637.014 2257.69,637.014 2259.85,637.015 2262.02,637.015 2264.18,637.015 2266.34,637.016 2268.5,637.016 2270.66,637.017 2272.82,637.017 2274.98,637.017 2277.14,637.018 2279.3,637.018 2281.46,637.019 2283.62,637.019 2285.78,637.019 2287.94,637.02 2290.1,637.02 2292.26,637.02 2294.42,637.021 2296.58,637.021 2298.74,637.021 2300.9,637.022 2303.06,637.022 2305.23,637.022 2307.39,637.023 2309.55,637.023 2311.71,637.023 2313.87,637.024 2316.03,637.024 2318.19,637.024 2320.35,637.025 2322.51,637.025 2324.67,637.025 2326.83,637.025 2328.99,637.026 2331.15,637.026 2333.31,637.026 2335.47,637.027 2337.63,637.027 2339.79,637.027 2341.95,637.027 2344.11,637.028 2346.27,637.028 2348.43,637.028 2350.6,637.029 2352.76,637.029 "/>
<polyline clip-path="url(#clip062)" style="stroke:#e26f46; stroke-linecap:round; stroke-linejoin:round; stroke-width:4; stroke-opacity:1; fill:none" points="194.422,1384.24 196.583,1375.53 198.743,1366.92 200.904,1358.4 203.064,1349.97 205.225,1341.63 207.385,1333.38 209.546,1325.23 211.706,1317.16 213.867,1309.18 216.027,1301.28 218.188,1293.47 220.348,1285.75 222.509,1278.11 224.669,1270.56 226.83,1263.08 228.99,1255.69 231.151,1248.38 233.311,1241.14 235.471,1233.99 237.632,1226.92 239.792,1219.92 241.953,1213 244.113,1206.15 246.274,1199.38 248.434,1192.68 250.595,1186.06 252.755,1179.51 254.916,1173.03 257.076,1166.62 259.237,1160.28 261.397,1154.01 263.558,1147.81 265.718,1141.68 267.879,1135.61 270.039,1129.61 272.2,1123.68 274.36,1117.82 276.521,1112.01 278.681,1106.27 280.842,1100.6 283.002,1094.99 285.163,1089.44 287.323,1083.95 289.484,1078.52 291.644,1073.15 293.805,1067.84 295.965,1062.59 298.126,1057.39 300.286,1052.26 302.447,1047.18 304.607,1042.16 306.768,1037.19 308.928,1032.28 311.089,1027.42 313.249,1022.62 315.41,1017.86 317.57,1013.17 319.731,1008.52 321.891,1003.93 324.052,999.385 326.212,994.893 328.373,990.451 330.533,986.058 332.694,981.715 334.854,977.419 337.015,973.172 339.175,968.972 341.336,964.82 343.496,960.713 345.657,956.653 347.817,952.638 349.978,948.668 352.138,944.743 354.299,940.861 356.459,937.023 358.62,933.229 360.78,929.476 362.941,925.767 365.101,922.098 367.262,918.471 369.422,914.885 371.583,911.34 373.743,907.834 375.904,904.368 378.064,900.941 380.225,897.552 382.385,894.202 384.546,890.89 386.706,887.615 388.867,884.378 391.027,881.177 393.188,878.012 395.348,874.883 397.509,871.79 399.669,868.732 401.83,865.709 403.99,862.719 406.151,859.765 408.311,856.843 410.472,853.955 412.632,851.1 414.793,848.278 416.953,845.487 419.114,842.729 421.274,840.003 423.435,837.307 425.595,834.643 427.755,832.009 429.916,829.405 432.076,826.831 434.237,824.287 436.397,821.772 438.558,819.286 440.718,816.828 442.879,814.399 445.039,811.998 447.2,809.625 449.36,807.279 451.521,804.96 453.681,802.668 455.842,800.403 458.002,798.164 460.163,795.951 462.323,793.763 464.484,791.601 466.644,789.464 468.805,787.352 470.965,785.264 473.126,783.201 475.286,781.162 477.447,779.147 479.607,777.155 481.768,775.186 483.928,773.241 486.089,771.318 488.249,769.417 490.41,767.539 492.57,765.683 494.731,763.849 496.891,762.036 499.052,760.245 501.212,758.475 503.373,756.725 505.533,754.997 507.694,753.288 509.854,751.6 512.015,749.932 514.175,748.284 516.336,746.655 518.496,745.046 520.657,743.456 522.817,741.885 524.978,740.332 527.138,738.798 529.299,737.283 531.459,735.785 533.62,734.306 535.78,732.844 537.941,731.4 540.101,729.973 542.262,728.563 544.422,727.17 546.583,725.794 548.743,724.435 550.904,723.092 553.064,721.765 555.225,720.454 557.385,719.159 559.546,717.88 561.706,716.616 563.867,715.368 566.027,714.134 568.188,712.916 570.348,711.713 572.509,710.524 574.669,709.35 576.83,708.19 578.99,707.044 581.151,705.912 583.311,704.795 585.472,703.69 587.632,702.6 589.793,701.523 591.953,700.459 594.114,699.408 596.274,698.37 598.435,697.345 600.595,696.332 602.756,695.332 604.916,694.345 607.077,693.369 609.237,692.406 611.398,691.455 613.558,690.515 615.718,689.587 617.879,688.671 620.039,687.767 622.2,686.873 624.36,685.991 626.521,685.12 628.681,684.26 630.842,683.411 633.002,682.573 635.163,681.745 637.323,680.928 639.484,680.121 641.644,679.324 643.805,678.538 645.965,677.761 648.126,676.995 650.286,676.238 652.447,675.491 654.607,674.754 656.768,674.026 658.928,673.308 661.089,672.599 663.249,671.899 665.41,671.208 667.57,670.526 669.731,669.853 671.891,669.188 674.052,668.533 676.212,667.885 678.373,667.247 680.533,666.616 682.694,665.994 684.854,665.38 687.015,664.775 689.175,664.177 691.336,663.587 693.496,663.005 695.657,662.43 697.817,661.863 699.978,661.304 702.138,660.752 704.299,660.208 706.459,659.67 708.62,659.14 710.78,658.617 712.941,658.101 715.101,657.592 717.262,657.09 719.422,656.595 721.583,656.106 723.743,655.624 725.904,655.148 728.064,654.679 730.225,654.216 732.385,653.759 734.546,653.309 736.706,652.865 738.867,652.427 741.027,651.994 743.188,651.568 745.348,651.148 747.509,650.733 749.669,650.325 751.83,649.921 753.99,649.524 756.151,649.132 758.311,648.746 760.472,648.365 762.632,647.989 764.793,647.619 766.953,647.254 769.114,646.894 771.274,646.54 773.435,646.19 775.595,645.846 777.756,645.506 779.916,645.171 782.077,644.842 784.237,644.517 786.398,644.196 788.558,643.881 790.719,643.57 792.879,643.263 795.04,642.962 797.2,642.664 799.361,642.371 801.521,642.083 803.681,641.798 805.842,641.518 808.002,641.243 810.163,640.971 812.323,640.703 814.484,640.44 816.644,640.181 818.805,639.925 820.965,639.673 823.126,639.426 825.286,639.182 827.447,638.942 829.607,638.705 831.768,638.472 833.928,638.243 836.089,638.018 838.249,637.796 840.41,637.577 842.57,637.362 844.731,637.15 846.891,636.942 849.052,636.737 851.212,636.535 853.373,636.337 855.533,636.142 857.694,635.949 859.854,635.76 862.015,635.574 864.175,635.391 866.336,635.212 868.496,635.035 870.657,634.86 872.817,634.689 874.978,634.521 877.138,634.355 879.299,634.193 881.459,634.032 883.62,633.875 885.78,633.72 887.941,633.568 890.101,633.419 892.262,633.272 894.422,633.127 896.583,632.985 898.743,632.846 900.904,632.709 903.064,632.574 905.225,632.442 907.385,632.312 909.546,632.184 911.706,632.059 913.867,631.936 916.027,631.815 918.188,631.697 920.348,631.58 922.509,631.466 924.669,631.354 926.83,631.244 928.99,631.136 931.151,631.031 933.311,630.927 935.472,630.825 937.632,630.726 939.793,630.628 941.953,630.532 944.114,630.438 946.274,630.346 948.435,630.256 950.595,630.168 952.756,630.082 954.916,629.997 957.077,629.914 959.237,629.833 961.398,629.754 963.558,629.677 965.719,629.601 967.879,629.527 970.04,629.454 972.2,629.383 974.361,629.314 976.521,629.246 978.682,629.18 980.842,629.115 983.003,629.052 985.163,628.991 987.324,628.931 989.484,628.872 991.645,628.815 993.805,628.759 995.965,628.705 998.126,628.652 1000.29,628.6 1002.45,628.55 1004.61,628.501 1006.77,628.453 1008.93,628.406 1011.09,628.361 1013.25,628.317 1015.41,628.275 1017.57,628.233 1019.73,628.193 1021.89,628.154 1024.05,628.116 1026.21,628.079 1028.37,628.044 1030.53,628.009 1032.69,627.975 1034.85,627.943 1037.01,627.912 1039.18,627.881 1041.34,627.852 1043.5,627.824 1045.66,627.796 1047.82,627.77 1049.98,627.745 1052.14,627.72 1054.3,627.697 1056.46,627.674 1058.62,627.652 1060.78,627.631 1062.94,627.611 1065.1,627.592 1067.26,627.574 1069.42,627.557 1071.58,627.54 1073.74,627.524 1075.9,627.509 1078.06,627.495 1080.22,627.481 1082.39,627.468 1084.55,627.456 1086.71,627.445 1088.87,627.434 1091.03,627.425 1093.19,627.415 1095.35,627.407 1097.51,627.399 1099.67,627.392 1101.83,627.386 1103.99,627.38 1106.15,627.375 1108.31,627.371 1110.47,627.367 1112.63,627.364 1114.79,627.362 1116.95,627.36 1119.11,627.359 1121.27,627.358 1123.43,627.358 1125.6,627.358 1127.76,627.36 1129.92,627.361 1132.08,627.364 1134.24,627.366 1136.4,627.37 1138.56,627.374 1140.72,627.378 1142.88,627.383 1145.04,627.388 1147.2,627.394 1149.36,627.401 1151.52,627.408 1153.68,627.415 1155.84,627.423 1158,627.431 1160.16,627.44 1162.32,627.45 1164.48,627.459 1166.64,627.469 1168.81,627.48 1170.97,627.491 1173.13,627.502 1175.29,627.514 1177.45,627.526 1179.61,627.539 1181.77,627.552 1183.93,627.565 1186.09,627.579 1188.25,627.593 1190.41,627.608 1192.57,627.622 1194.73,627.638 1196.89,627.653 1199.05,627.669 1201.21,627.685 1203.37,627.702 1205.53,627.718 1207.69,627.735 1209.85,627.753 1212.01,627.77 1214.18,627.788 1216.34,627.807 1218.5,627.825 1220.66,627.844 1222.82,627.863 1224.98,627.882 1227.14,627.902 1229.3,627.921 1231.46,627.941 1233.62,627.962 1235.78,627.982 1237.94,628.003 1240.1,628.024 1242.26,628.045 1244.42,628.066 1246.58,628.087 1248.74,628.109 1250.9,628.131 1253.06,628.153 1255.22,628.175 1257.39,628.197 1259.55,628.22 1261.71,628.243 1263.87,628.265 1266.03,628.288 1268.19,628.311 1270.35,628.335 1272.51,628.358 1274.67,628.381 1276.83,628.405 1278.99,628.429 1281.15,628.453 1283.31,628.477 1285.47,628.501 1287.63,628.525 1289.79,628.549 1291.95,628.573 1294.11,628.598 1296.27,628.622 1298.43,628.647 1300.6,628.672 1302.76,628.696 1304.92,628.721 1307.08,628.746 1309.24,628.771 1311.4,628.797 1313.56,628.822 1315.72,628.847 1317.88,628.873 1320.04,628.898 1322.2,628.924 1324.36,628.949 1326.52,628.975 1328.68,629.001 1330.84,629.027 1333,629.052 1335.16,629.078 1337.32,629.104 1339.48,629.131 1341.64,629.157 1343.81,629.183 1345.97,629.209 1348.13,629.236 1350.29,629.262 1352.45,629.288 1354.61,629.315 1356.77,629.341 1358.93,629.368 1361.09,629.394 1363.25,629.421 1365.41,629.448 1367.57,629.475 1369.73,629.501 1371.89,629.528 1374.05,629.555 1376.21,629.582 1378.37,629.609 1380.53,629.636 1382.69,629.662 1384.85,629.689 1387.01,629.716 1389.18,629.743 1391.34,629.77 1393.5,629.797 1395.66,629.825 1397.82,629.852 1399.98,629.879 1402.14,629.906 1404.3,629.933 1406.46,629.96 1408.62,629.987 1410.78,630.014 1412.94,630.041 1415.1,630.068 1417.26,630.096 1419.42,630.123 1421.58,630.15 1423.74,630.177 1425.9,630.204 1428.06,630.231 1430.22,630.258 1432.39,630.285 1434.55,630.312 1436.71,630.339 1438.87,630.366 1441.03,630.393 1443.19,630.42 1445.35,630.447 1447.51,630.474 1449.67,630.501 1451.83,630.528 1453.99,630.555 1456.15,630.581 1458.31,630.608 1460.47,630.635 1462.63,630.662 1464.79,630.688 1466.95,630.715 1469.11,630.742 1471.27,630.768 1473.43,630.795 1475.6,630.821 1477.76,630.847 1479.92,630.874 1482.08,630.9 1484.24,630.926 1486.4,630.953 1488.56,630.979 1490.72,631.005 1492.88,631.031 1495.04,631.057 1497.2,631.083 1499.36,631.109 1501.52,631.134 1503.68,631.16 1505.84,631.186 1508,631.211 1510.16,631.237 1512.32,631.262 1514.48,631.288 1516.64,631.313 1518.81,631.338 1520.97,631.364 1523.13,631.389 1525.29,631.414 1527.45,631.439 1529.61,631.463 1531.77,631.488 1533.93,631.513 1536.09,631.537 1538.25,631.562 1540.41,631.586 1542.57,631.611 1544.73,631.635 1546.89,631.659 1549.05,631.683 1551.21,631.707 1553.37,631.731 1555.53,631.755 1557.69,631.779 1559.85,631.803 1562.01,631.827 1564.18,631.85 1566.34,631.874 1568.5,631.897 1570.66,631.921 1572.82,631.944 1574.98,631.967 1577.14,631.991 1579.3,632.014 1581.46,632.037 1583.62,632.06 1585.78,632.083 1587.94,632.106 1590.1,632.128 1592.26,632.151 1594.42,632.174 1596.58,632.196 1598.74,632.219 1600.9,632.241 1603.06,632.264 1605.22,632.286 1607.39,632.308 1609.55,632.33 1611.71,632.352 1613.87,632.374 1616.03,632.396 1618.19,632.418 1620.35,632.44 1622.51,632.462 1624.67,632.483 1626.83,632.505 1628.99,632.527 1631.15,632.548 1633.31,632.569 1635.47,632.591 1637.63,632.612 1639.79,632.633 1641.95,632.654 1644.11,632.675 1646.27,632.696 1648.43,632.717 1650.6,632.738 1652.76,632.759 1654.92,632.78 1657.08,632.8 1659.24,632.821 1661.4,632.841 1663.56,632.862 1665.72,632.882 1667.88,632.902 1670.04,632.923 1672.2,632.943 1674.36,632.963 1676.52,632.983 1678.68,633.003 1680.84,633.023 1683,633.043 1685.16,633.063 1687.32,633.082 1689.48,633.102 1691.64,633.121 1693.81,633.141 1695.97,633.16 1698.13,633.18 1700.29,633.199 1702.45,633.218 1704.61,633.237 1706.77,633.256 1708.93,633.275 1711.09,633.294 1713.25,633.313 1715.41,633.332 1717.57,633.351 1719.73,633.37 1721.89,633.388 1724.05,633.407 1726.21,633.425 1728.37,633.444 1730.53,633.462 1732.69,633.48 1734.85,633.498 1737.02,633.516 1739.18,633.534 1741.34,633.552 1743.5,633.57 1745.66,633.588 1747.82,633.606 1749.98,633.624 1752.14,633.641 1754.3,633.659 1756.46,633.676 1758.62,633.694 1760.78,633.711 1762.94,633.728 1765.1,633.745 1767.26,633.762 1769.42,633.779 1771.58,633.796 1773.74,633.813 1775.9,633.83 1778.06,633.847 1780.22,633.863 1782.39,633.88 1784.55,633.897 1786.71,633.913 1788.87,633.929 1791.03,633.946 1793.19,633.962 1795.35,633.978 1797.51,633.994 1799.67,634.01 1801.83,634.026 1803.99,634.042 1806.15,634.057 1808.31,634.073 1810.47,634.089 1812.63,634.104 1814.79,634.119 1816.95,634.135 1819.11,634.15 1821.27,634.165 1823.43,634.18 1825.6,634.195 1827.76,634.21 1829.92,634.225 1832.08,634.24 1834.24,634.254 1836.4,634.269 1838.56,634.284 1840.72,634.298 1842.88,634.312 1845.04,634.327 1847.2,634.341 1849.36,634.355 1851.52,634.369 1853.68,634.383 1855.84,634.397 1858,634.411 1860.16,634.425 1862.32,634.439 1864.48,634.453 1866.64,634.466 1868.81,634.48 1870.97,634.493 1873.13,634.507 1875.29,634.52 1877.45,634.533 1879.61,634.547 1881.77,634.56 1883.93,634.573 1886.09,634.586 1888.25,634.599 1890.41,634.612 1892.57,634.625 1894.73,634.638 1896.89,634.65 1899.05,634.663 1901.21,634.676 1903.37,634.688 1905.53,634.701 1907.69,634.713 1909.85,634.726 1912.02,634.738 1914.18,634.75 1916.34,634.762 1918.5,634.774 1920.66,634.787 1922.82,634.799 1924.98,634.811 1927.14,634.823 1929.3,634.834 1931.46,634.846 1933.62,634.858 1935.78,634.87 1937.94,634.881 1940.1,634.893 1942.26,634.904 1944.42,634.916 1946.58,634.927 1948.74,634.939 1950.9,634.95 1953.06,634.961 1955.22,634.973 1957.39,634.984 1959.55,634.995 1961.71,635.006 1963.87,635.017 1966.03,635.028 1968.19,635.039 1970.35,635.05 1972.51,635.06 1974.67,635.071 1976.83,635.082 1978.99,635.093 1981.15,635.103 1983.31,635.114 1985.47,635.124 1987.63,635.135 1989.79,635.145 1991.95,635.155 1994.11,635.166 1996.27,635.176 1998.43,635.186 2000.6,635.196 2002.76,635.207 2004.92,635.217 2007.08,635.227 2009.24,635.237 2011.4,635.247 2013.56,635.257 2015.72,635.266 2017.88,635.276 2020.04,635.286 2022.2,635.296 2024.36,635.305 2026.52,635.315 2028.68,635.325 2030.84,635.334 2033,635.344 2035.16,635.353 2037.32,635.362 2039.48,635.372 2041.64,635.381 2043.81,635.39 2045.97,635.4 2048.13,635.409 2050.29,635.418 2052.45,635.427 2054.61,635.436 2056.77,635.445 2058.93,635.454 2061.09,635.463 2063.25,635.472 2065.41,635.481 2067.57,635.489 2069.73,635.498 2071.89,635.507 2074.05,635.516 2076.21,635.524 2078.37,635.533 2080.53,635.541 2082.69,635.55 2084.85,635.558 2087.02,635.567 2089.18,635.575 2091.34,635.583 2093.5,635.592 2095.66,635.6 2097.82,635.608 2099.98,635.616 2102.14,635.624 2104.3,635.632 2106.46,635.641 2108.62,635.649 2110.78,635.656 2112.94,635.664 2115.1,635.672 2117.26,635.68 2119.42,635.688 2121.58,635.696 2123.74,635.703 2125.9,635.711 2128.06,635.719 2130.22,635.726 2132.39,635.734 2134.55,635.741 2136.71,635.749 2138.87,635.756 2141.03,635.763 2143.19,635.771 2145.35,635.778 2147.51,635.785 2149.67,635.793 2151.83,635.8 2153.99,635.807 2156.15,635.814 2158.31,635.821 2160.47,635.828 2162.63,635.835 2164.79,635.842 2166.95,635.849 2169.11,635.856 2171.27,635.862 2173.43,635.869 2175.6,635.876 2177.76,635.883 2179.92,635.889 2182.08,635.896 2184.24,635.902 2186.4,635.909 2188.56,635.915 2190.72,635.922 2192.88,635.928 2195.04,635.934 2197.2,635.941 2199.36,635.947 2201.52,635.953 2203.68,635.959 2205.84,635.965 2208,635.972 2210.16,635.978 2212.32,635.984 2214.48,635.99 2216.64,635.996 2218.81,636.002 2220.97,636.008 2223.13,636.014 2225.29,636.019 2227.45,636.025 2229.61,636.031 2231.77,636.037 2233.93,636.043 2236.09,636.048 2238.25,636.054 2240.41,636.06 2242.57,636.065 2244.73,636.071 2246.89,636.076 2249.05,636.082 2251.21,636.087 2253.37,636.093 2255.53,636.098 2257.69,636.104 2259.85,636.109 2262.02,636.115 2264.18,636.12 2266.34,636.125 2268.5,636.13 2270.66,636.136 2272.82,636.141 2274.98,636.146 2277.14,636.151 2279.3,636.156 2281.46,636.161 2283.62,636.166 2285.78,636.172 2287.94,636.177 2290.1,636.182 2292.26,636.186 2294.42,636.191 2296.58,636.196 2298.74,636.201 2300.9,636.206 2303.06,636.211 2305.23,636.216 2307.39,636.22 2309.55,636.225 2311.71,636.23 2313.87,636.235 2316.03,636.239 2318.19,636.244 2320.35,636.249 2322.51,636.253 2324.67,636.258 2326.83,636.262 2328.99,636.267 2331.15,636.271 2333.31,636.276 2335.47,636.28 2337.63,636.285 2339.79,636.289 2341.95,636.293 2344.11,636.298 2346.27,636.302 2348.43,636.306 2350.6,636.311 2352.76,636.315 "/>
<path clip-path="url(#clip060)" d="M1805.58 248.629 L2280.81 248.629 L2280.81 93.1086 L1805.58 93.1086  Z" fill="#ffffff" fill-rule="evenodd" fill-opacity="1"/>
<polyline clip-path="url(#clip060)" style="stroke:#000000; stroke-linecap:round; stroke-linejoin:round; stroke-width:4; stroke-opacity:1; fill:none" points="1805.58,248.629 2280.81,248.629 2280.81,93.1086 1805.58,93.1086 1805.58,248.629 "/>
<polyline clip-path="url(#clip060)" style="stroke:#009af9; stroke-linecap:round; stroke-linejoin:round; stroke-width:4; stroke-opacity:1; fill:none" points="1829.56,144.949 1973.45,144.949 "/>
<path clip-path="url(#clip060)" d="M1997.43 136.303 L2001.95 136.303 L2010.05 158.062 L2018.15 136.303 L2022.66 136.303 L2012.94 162.229 L2007.16 162.229 L1997.43 136.303 Z" fill="#000000" fill-rule="nonzero" fill-opacity="1" /><path clip-path="url(#clip060)" d="M2029.96 158.293 L2037.6 158.293 L2037.6 131.928 L2029.28 133.595 L2029.28 129.335 L2037.55 127.669 L2042.22 127.669 L2042.22 158.293 L2049.86 158.293 L2049.86 162.229 L2029.96 162.229 L2029.96 158.293 Z" fill="#000000" fill-rule="nonzero" fill-opacity="1" /><path clip-path="url(#clip060)" d="M2067.97 145.585 L2067.97 152.807 L2076.09 152.807 L2076.09 155.006 L2067.97 155.006 L2067.97 162.229 L2065.53 162.229 L2065.53 155.006 L2057.41 155.006 L2057.41 152.807 L2065.53 152.807 L2065.53 145.585 L2067.97 145.585 Z" fill="#000000" fill-rule="nonzero" fill-opacity="1" /><path clip-path="url(#clip060)" d="M2100.26 137.067 L2100.26 141.094 Q2098.45 140.169 2096.51 139.706 Q2094.56 139.243 2092.48 139.243 Q2089.31 139.243 2087.71 140.215 Q2086.14 141.187 2086.14 143.131 Q2086.14 144.613 2087.27 145.469 Q2088.4 146.303 2091.83 147.067 L2093.29 147.391 Q2097.83 148.363 2099.72 150.145 Q2101.65 151.905 2101.65 155.076 Q2101.65 158.687 2098.78 160.793 Q2095.93 162.9 2090.93 162.9 Q2088.84 162.9 2086.58 162.483 Q2084.33 162.09 2081.83 161.28 L2081.83 156.881 Q2084.19 158.108 2086.48 158.733 Q2088.78 159.335 2091.02 159.335 Q2094.03 159.335 2095.65 158.317 Q2097.27 157.275 2097.27 155.4 Q2097.27 153.664 2096.09 152.738 Q2094.93 151.812 2090.97 150.956 L2089.49 150.608 Q2085.53 149.775 2083.78 148.062 Q2082.02 146.326 2082.02 143.317 Q2082.02 139.659 2084.61 137.669 Q2087.2 135.678 2091.97 135.678 Q2094.33 135.678 2096.41 136.025 Q2098.5 136.372 2100.26 137.067 Z" fill="#000000" fill-rule="nonzero" fill-opacity="1" /><path clip-path="url(#clip060)" d="M2112.64 128.942 L2112.64 136.303 L2121.41 136.303 L2121.41 139.613 L2112.64 139.613 L2112.64 153.687 Q2112.64 156.858 2113.5 157.761 Q2114.38 158.664 2117.04 158.664 L2121.41 158.664 L2121.41 162.229 L2117.04 162.229 Q2112.11 162.229 2110.23 160.4 Q2108.36 158.548 2108.36 153.687 L2108.36 139.613 L2105.23 139.613 L2105.23 136.303 L2108.36 136.303 L2108.36 128.942 L2112.64 128.942 Z" fill="#000000" fill-rule="nonzero" fill-opacity="1" /><path clip-path="url(#clip060)" d="M2137.06 139.289 Q2133.64 139.289 2131.65 141.974 Q2129.65 144.636 2129.65 149.289 Q2129.65 153.942 2131.62 156.627 Q2133.61 159.289 2137.06 159.289 Q2140.46 159.289 2142.46 156.604 Q2144.45 153.918 2144.45 149.289 Q2144.45 144.682 2142.46 141.997 Q2140.46 139.289 2137.06 139.289 M2137.06 135.678 Q2142.62 135.678 2145.79 139.289 Q2148.96 142.9 2148.96 149.289 Q2148.96 155.655 2145.79 159.289 Q2142.62 162.9 2137.06 162.9 Q2131.48 162.9 2128.31 159.289 Q2125.16 155.655 2125.16 149.289 Q2125.16 142.9 2128.31 139.289 Q2131.48 135.678 2137.06 135.678 Z" fill="#000000" fill-rule="nonzero" fill-opacity="1" /><path clip-path="url(#clip060)" d="M2171.04 140.284 Q2170.33 139.868 2169.47 139.682 Q2168.64 139.474 2167.62 139.474 Q2164.01 139.474 2162.06 141.835 Q2160.14 144.173 2160.14 148.571 L2160.14 162.229 L2155.86 162.229 L2155.86 136.303 L2160.14 136.303 L2160.14 140.331 Q2161.48 137.969 2163.64 136.835 Q2165.79 135.678 2168.87 135.678 Q2169.31 135.678 2169.84 135.747 Q2170.37 135.794 2171.02 135.909 L2171.04 140.284 Z" fill="#000000" fill-rule="nonzero" fill-opacity="1" /><path clip-path="url(#clip060)" d="M2187.29 149.196 Q2182.13 149.196 2180.14 150.377 Q2178.15 151.557 2178.15 154.405 Q2178.15 156.673 2179.63 158.016 Q2181.14 159.335 2183.71 159.335 Q2187.25 159.335 2189.38 156.835 Q2191.53 154.312 2191.53 150.145 L2191.53 149.196 L2187.29 149.196 M2195.79 147.437 L2195.79 162.229 L2191.53 162.229 L2191.53 158.293 Q2190.07 160.655 2187.9 161.789 Q2185.72 162.9 2182.57 162.9 Q2178.59 162.9 2176.23 160.678 Q2173.89 158.432 2173.89 154.682 Q2173.89 150.307 2176.81 148.085 Q2179.75 145.863 2185.56 145.863 L2191.53 145.863 L2191.53 145.446 Q2191.53 142.507 2189.58 140.909 Q2187.66 139.289 2184.17 139.289 Q2181.95 139.289 2179.84 139.821 Q2177.73 140.354 2175.79 141.419 L2175.79 137.483 Q2178.13 136.581 2180.33 136.141 Q2182.52 135.678 2184.61 135.678 Q2190.23 135.678 2193.01 138.594 Q2195.79 141.511 2195.79 147.437 Z" fill="#000000" fill-rule="nonzero" fill-opacity="1" /><path clip-path="url(#clip060)" d="M2221.62 148.965 Q2221.62 144.335 2219.7 141.789 Q2217.8 139.243 2214.35 139.243 Q2210.93 139.243 2209.01 141.789 Q2207.11 144.335 2207.11 148.965 Q2207.11 153.571 2209.01 156.118 Q2210.93 158.664 2214.35 158.664 Q2217.8 158.664 2219.7 156.118 Q2221.62 153.571 2221.62 148.965 M2225.88 159.011 Q2225.88 165.631 2222.94 168.849 Q2220 172.09 2213.94 172.09 Q2211.69 172.09 2209.7 171.742 Q2207.71 171.418 2205.83 170.724 L2205.83 166.58 Q2207.71 167.599 2209.54 168.085 Q2211.37 168.571 2213.27 168.571 Q2217.46 168.571 2219.54 166.372 Q2221.62 164.196 2221.62 159.775 L2221.62 157.668 Q2220.3 159.96 2218.24 161.094 Q2216.18 162.229 2213.31 162.229 Q2208.54 162.229 2205.63 158.594 Q2202.71 154.96 2202.71 148.965 Q2202.71 142.946 2205.63 139.312 Q2208.54 135.678 2213.31 135.678 Q2216.18 135.678 2218.24 136.812 Q2220.3 137.946 2221.62 140.238 L2221.62 136.303 L2225.88 136.303 L2225.88 159.011 Z" fill="#000000" fill-rule="nonzero" fill-opacity="1" /><path clip-path="url(#clip060)" d="M2256.83 148.201 L2256.83 150.284 L2237.25 150.284 Q2237.52 154.682 2239.89 156.997 Q2242.27 159.289 2246.51 159.289 Q2248.96 159.289 2251.25 158.687 Q2253.57 158.085 2255.83 156.881 L2255.83 160.909 Q2253.54 161.881 2251.14 162.391 Q2248.73 162.9 2246.25 162.9 Q2240.05 162.9 2236.41 159.289 Q2232.8 155.678 2232.8 149.52 Q2232.8 143.155 2236.23 139.428 Q2239.68 135.678 2245.51 135.678 Q2250.74 135.678 2253.77 139.057 Q2256.83 142.414 2256.83 148.201 M2252.57 146.951 Q2252.52 143.456 2250.6 141.372 Q2248.71 139.289 2245.56 139.289 Q2241.99 139.289 2239.84 141.303 Q2237.71 143.317 2237.39 146.974 L2252.57 146.951 Z" fill="#000000" fill-rule="nonzero" fill-opacity="1" /><polyline clip-path="url(#clip060)" style="stroke:#e26f46; stroke-linecap:round; stroke-linejoin:round; stroke-width:4; stroke-opacity:1; fill:none" points="1829.56,196.789 1973.45,196.789 "/>
<path clip-path="url(#clip060)" d="M1997.43 188.143 L2001.95 188.143 L2010.05 209.902 L2018.15 188.143 L2022.66 188.143 L2012.94 214.069 L2007.16 214.069 L1997.43 188.143 Z" fill="#000000" fill-rule="nonzero" fill-opacity="1" /><path clip-path="url(#clip060)" d="M2029.19 179.509 L2047.55 179.509 L2047.55 183.444 L2033.47 183.444 L2033.47 191.916 Q2034.49 191.569 2035.51 191.407 Q2036.53 191.222 2037.55 191.222 Q2043.34 191.222 2046.72 194.393 Q2050.09 197.564 2050.09 202.981 Q2050.09 208.559 2046.62 211.661 Q2043.15 214.74 2036.83 214.74 Q2034.66 214.74 2032.39 214.37 Q2030.14 213.999 2027.73 213.258 L2027.73 208.559 Q2029.82 209.694 2032.04 210.249 Q2034.26 210.805 2036.74 210.805 Q2040.74 210.805 2043.08 208.698 Q2045.42 206.592 2045.42 202.981 Q2045.42 199.37 2043.08 197.263 Q2040.74 195.157 2036.74 195.157 Q2034.86 195.157 2032.99 195.573 Q2031.14 195.99 2029.19 196.87 L2029.19 179.509 Z" fill="#000000" fill-rule="nonzero" fill-opacity="1" /><path clip-path="url(#clip060)" d="M2067.97 197.425 L2067.97 204.647 L2076.09 204.647 L2076.09 206.846 L2067.97 206.846 L2067.97 214.069 L2065.53 214.069 L2065.53 206.846 L2057.41 206.846 L2057.41 204.647 L2065.53 204.647 L2065.53 197.425 L2067.97 197.425 Z" fill="#000000" fill-rule="nonzero" fill-opacity="1" /><path clip-path="url(#clip060)" d="M2100.26 188.907 L2100.26 192.934 Q2098.45 192.009 2096.51 191.546 Q2094.56 191.083 2092.48 191.083 Q2089.31 191.083 2087.71 192.055 Q2086.14 193.027 2086.14 194.971 Q2086.14 196.453 2087.27 197.309 Q2088.4 198.143 2091.83 198.907 L2093.29 199.231 Q2097.83 200.203 2099.72 201.985 Q2101.65 203.745 2101.65 206.916 Q2101.65 210.527 2098.78 212.633 Q2095.93 214.74 2090.93 214.74 Q2088.84 214.74 2086.58 214.323 Q2084.33 213.93 2081.83 213.12 L2081.83 208.721 Q2084.19 209.948 2086.48 210.573 Q2088.78 211.175 2091.02 211.175 Q2094.03 211.175 2095.65 210.157 Q2097.27 209.115 2097.27 207.24 Q2097.27 205.504 2096.09 204.578 Q2094.93 203.652 2090.97 202.796 L2089.49 202.448 Q2085.53 201.615 2083.78 199.902 Q2082.02 198.166 2082.02 195.157 Q2082.02 191.499 2084.61 189.509 Q2087.2 187.518 2091.97 187.518 Q2094.33 187.518 2096.41 187.865 Q2098.5 188.212 2100.26 188.907 Z" fill="#000000" fill-rule="nonzero" fill-opacity="1" /><path clip-path="url(#clip060)" d="M2112.64 180.782 L2112.64 188.143 L2121.41 188.143 L2121.41 191.453 L2112.64 191.453 L2112.64 205.527 Q2112.64 208.698 2113.5 209.601 Q2114.38 210.504 2117.04 210.504 L2121.41 210.504 L2121.41 214.069 L2117.04 214.069 Q2112.11 214.069 2110.23 212.24 Q2108.36 210.388 2108.36 205.527 L2108.36 191.453 L2105.23 191.453 L2105.23 188.143 L2108.36 188.143 L2108.36 180.782 L2112.64 180.782 Z" fill="#000000" fill-rule="nonzero" fill-opacity="1" /><path clip-path="url(#clip060)" d="M2137.06 191.129 Q2133.64 191.129 2131.65 193.814 Q2129.65 196.476 2129.65 201.129 Q2129.65 205.782 2131.62 208.467 Q2133.61 211.129 2137.06 211.129 Q2140.46 211.129 2142.46 208.444 Q2144.45 205.758 2144.45 201.129 Q2144.45 196.522 2142.46 193.837 Q2140.46 191.129 2137.06 191.129 M2137.06 187.518 Q2142.62 187.518 2145.79 191.129 Q2148.96 194.74 2148.96 201.129 Q2148.96 207.495 2145.79 211.129 Q2142.62 214.74 2137.06 214.74 Q2131.48 214.74 2128.31 211.129 Q2125.16 207.495 2125.16 201.129 Q2125.16 194.74 2128.31 191.129 Q2131.48 187.518 2137.06 187.518 Z" fill="#000000" fill-rule="nonzero" fill-opacity="1" /><path clip-path="url(#clip060)" d="M2171.04 192.124 Q2170.33 191.708 2169.47 191.522 Q2168.64 191.314 2167.62 191.314 Q2164.01 191.314 2162.06 193.675 Q2160.14 196.013 2160.14 200.411 L2160.14 214.069 L2155.86 214.069 L2155.86 188.143 L2160.14 188.143 L2160.14 192.171 Q2161.48 189.809 2163.64 188.675 Q2165.79 187.518 2168.87 187.518 Q2169.31 187.518 2169.84 187.587 Q2170.37 187.634 2171.02 187.749 L2171.04 192.124 Z" fill="#000000" fill-rule="nonzero" fill-opacity="1" /><path clip-path="url(#clip060)" d="M2187.29 201.036 Q2182.13 201.036 2180.14 202.217 Q2178.15 203.397 2178.15 206.245 Q2178.15 208.513 2179.63 209.856 Q2181.14 211.175 2183.71 211.175 Q2187.25 211.175 2189.38 208.675 Q2191.53 206.152 2191.53 201.985 L2191.53 201.036 L2187.29 201.036 M2195.79 199.277 L2195.79 214.069 L2191.53 214.069 L2191.53 210.133 Q2190.07 212.495 2187.9 213.629 Q2185.72 214.74 2182.57 214.74 Q2178.59 214.74 2176.23 212.518 Q2173.89 210.272 2173.89 206.522 Q2173.89 202.147 2176.81 199.925 Q2179.75 197.703 2185.56 197.703 L2191.53 197.703 L2191.53 197.286 Q2191.53 194.347 2189.58 192.749 Q2187.66 191.129 2184.17 191.129 Q2181.95 191.129 2179.84 191.661 Q2177.73 192.194 2175.79 193.259 L2175.79 189.323 Q2178.13 188.421 2180.33 187.981 Q2182.52 187.518 2184.61 187.518 Q2190.23 187.518 2193.01 190.434 Q2195.79 193.351 2195.79 199.277 Z" fill="#000000" fill-rule="nonzero" fill-opacity="1" /><path clip-path="url(#clip060)" d="M2221.62 200.805 Q2221.62 196.175 2219.7 193.629 Q2217.8 191.083 2214.35 191.083 Q2210.93 191.083 2209.01 193.629 Q2207.11 196.175 2207.11 200.805 Q2207.11 205.411 2209.01 207.958 Q2210.93 210.504 2214.35 210.504 Q2217.8 210.504 2219.7 207.958 Q2221.62 205.411 2221.62 200.805 M2225.88 210.851 Q2225.88 217.471 2222.94 220.689 Q2220 223.93 2213.94 223.93 Q2211.69 223.93 2209.7 223.582 Q2207.71 223.258 2205.83 222.564 L2205.83 218.42 Q2207.71 219.439 2209.54 219.925 Q2211.37 220.411 2213.27 220.411 Q2217.46 220.411 2219.54 218.212 Q2221.62 216.036 2221.62 211.615 L2221.62 209.508 Q2220.3 211.8 2218.24 212.934 Q2216.18 214.069 2213.31 214.069 Q2208.54 214.069 2205.63 210.434 Q2202.71 206.8 2202.71 200.805 Q2202.71 194.786 2205.63 191.152 Q2208.54 187.518 2213.31 187.518 Q2216.18 187.518 2218.24 188.652 Q2220.3 189.786 2221.62 192.078 L2221.62 188.143 L2225.88 188.143 L2225.88 210.851 Z" fill="#000000" fill-rule="nonzero" fill-opacity="1" /><path clip-path="url(#clip060)" d="M2256.83 200.041 L2256.83 202.124 L2237.25 202.124 Q2237.52 206.522 2239.89 208.837 Q2242.27 211.129 2246.51 211.129 Q2248.96 211.129 2251.25 210.527 Q2253.57 209.925 2255.83 208.721 L2255.83 212.749 Q2253.54 213.721 2251.14 214.231 Q2248.73 214.74 2246.25 214.74 Q2240.05 214.74 2236.41 211.129 Q2232.8 207.518 2232.8 201.36 Q2232.8 194.995 2236.23 191.268 Q2239.68 187.518 2245.51 187.518 Q2250.74 187.518 2253.77 190.897 Q2256.83 194.254 2256.83 200.041 M2252.57 198.791 Q2252.52 195.296 2250.6 193.212 Q2248.71 191.129 2245.56 191.129 Q2241.99 191.129 2239.84 193.143 Q2237.71 195.157 2237.39 198.814 L2252.57 198.791 Z" fill="#000000" fill-rule="nonzero" fill-opacity="1" /></svg>
