<?xml version="1.0" encoding="utf-8"?>
<svg xmlns="http://www.w3.org/2000/svg" xmlns:xlink="http://www.w3.org/1999/xlink" width="600" height="400" viewBox="0 0 2400 1600">
<defs>
  <clipPath id="clip660">
    <rect x="0" y="0" width="2400" height="1600"/>
  </clipPath>
</defs>
<path clip-path="url(#clip660)" d="M0 1600 L2400 1600 L2400 0 L0 0  Z" fill="#ffffff" fill-rule="evenodd" fill-opacity="1"/>
<defs>
  <clipPath id="clip661">
    <rect x="480" y="0" width="1681" height="1600"/>
  </clipPath>
</defs>
<path clip-path="url(#clip660)" d="M192.339 1423.18 L2352.76 1423.18 L2352.76 47.2441 L192.339 47.2441  Z" fill="#ffffff" fill-rule="evenodd" fill-opacity="1"/>
<defs>
  <clipPath id="clip662">
    <rect x="192" y="47" width="2161" height="1377"/>
  </clipPath>
</defs>
<polyline clip-path="url(#clip662)" style="stroke:#000000; stroke-linecap:round; stroke-linejoin:round; stroke-width:2; stroke-opacity:0.1; fill:none" points="192.339,1423.18 192.339,47.2441 "/>
<polyline clip-path="url(#clip662)" style="stroke:#000000; stroke-linecap:round; stroke-linejoin:round; stroke-width:2; stroke-opacity:0.1; fill:none" points="732.443,1423.18 732.443,47.2441 "/>
<polyline clip-path="url(#clip662)" style="stroke:#000000; stroke-linecap:round; stroke-linejoin:round; stroke-width:2; stroke-opacity:0.1; fill:none" points="1272.55,1423.18 1272.55,47.2441 "/>
<polyline clip-path="url(#clip662)" style="stroke:#000000; stroke-linecap:round; stroke-linejoin:round; stroke-width:2; stroke-opacity:0.1; fill:none" points="1812.65,1423.18 1812.65,47.2441 "/>
<polyline clip-path="url(#clip662)" style="stroke:#000000; stroke-linecap:round; stroke-linejoin:round; stroke-width:2; stroke-opacity:0.1; fill:none" points="2352.76,1423.18 2352.76,47.2441 "/>
<polyline clip-path="url(#clip662)" style="stroke:#000000; stroke-linecap:round; stroke-linejoin:round; stroke-width:2; stroke-opacity:0.1; fill:none" points="192.339,1183.21 2352.76,1183.21 "/>
<polyline clip-path="url(#clip662)" style="stroke:#000000; stroke-linecap:round; stroke-linejoin:round; stroke-width:2; stroke-opacity:0.1; fill:none" points="192.339,807.445 2352.76,807.445 "/>
<polyline clip-path="url(#clip662)" style="stroke:#000000; stroke-linecap:round; stroke-linejoin:round; stroke-width:2; stroke-opacity:0.1; fill:none" points="192.339,431.675 2352.76,431.675 "/>
<polyline clip-path="url(#clip662)" style="stroke:#000000; stroke-linecap:round; stroke-linejoin:round; stroke-width:2; stroke-opacity:0.1; fill:none" points="192.339,55.9058 2352.76,55.9058 "/>
<polyline clip-path="url(#clip660)" style="stroke:#000000; stroke-linecap:round; stroke-linejoin:round; stroke-width:4; stroke-opacity:1; fill:none" points="192.339,1423.18 2352.76,1423.18 "/>
<polyline clip-path="url(#clip660)" style="stroke:#000000; stroke-linecap:round; stroke-linejoin:round; stroke-width:4; stroke-opacity:1; fill:none" points="192.339,1423.18 192.339,1404.28 "/>
<polyline clip-path="url(#clip660)" style="stroke:#000000; stroke-linecap:round; stroke-linejoin:round; stroke-width:4; stroke-opacity:1; fill:none" points="732.443,1423.18 732.443,1404.28 "/>
<polyline clip-path="url(#clip660)" style="stroke:#000000; stroke-linecap:round; stroke-linejoin:round; stroke-width:4; stroke-opacity:1; fill:none" points="1272.55,1423.18 1272.55,1404.28 "/>
<polyline clip-path="url(#clip660)" style="stroke:#000000; stroke-linecap:round; stroke-linejoin:round; stroke-width:4; stroke-opacity:1; fill:none" points="1812.65,1423.18 1812.65,1404.28 "/>
<polyline clip-path="url(#clip660)" style="stroke:#000000; stroke-linecap:round; stroke-linejoin:round; stroke-width:4; stroke-opacity:1; fill:none" points="2352.76,1423.18 2352.76,1404.28 "/>
<path clip-path="url(#clip660)" d="M169.723 1454.1 Q166.112 1454.1 164.283 1457.66 Q162.478 1461.2 162.478 1468.33 Q162.478 1475.44 164.283 1479.01 Q166.112 1482.55 169.723 1482.55 Q173.357 1482.55 175.163 1479.01 Q176.992 1475.44 176.992 1468.33 Q176.992 1461.2 175.163 1457.66 Q173.357 1454.1 169.723 1454.1 M169.723 1450.39 Q175.533 1450.39 178.589 1455 Q181.668 1459.58 181.668 1468.33 Q181.668 1477.06 178.589 1481.67 Q175.533 1486.25 169.723 1486.25 Q163.913 1486.25 160.834 1481.67 Q157.779 1477.06 157.779 1468.33 Q157.779 1459.58 160.834 1455 Q163.913 1450.39 169.723 1450.39 Z" fill="#000000" fill-rule="nonzero" fill-opacity="1" /><path clip-path="url(#clip660)" d="M189.885 1479.7 L194.769 1479.7 L194.769 1485.58 L189.885 1485.58 L189.885 1479.7 Z" fill="#000000" fill-rule="nonzero" fill-opacity="1" /><path clip-path="url(#clip660)" d="M214.954 1454.1 Q211.343 1454.1 209.515 1457.66 Q207.709 1461.2 207.709 1468.33 Q207.709 1475.44 209.515 1479.01 Q211.343 1482.55 214.954 1482.55 Q218.589 1482.55 220.394 1479.01 Q222.223 1475.44 222.223 1468.33 Q222.223 1461.2 220.394 1457.66 Q218.589 1454.1 214.954 1454.1 M214.954 1450.39 Q220.765 1450.39 223.82 1455 Q226.899 1459.58 226.899 1468.33 Q226.899 1477.06 223.82 1481.67 Q220.765 1486.25 214.954 1486.25 Q209.144 1486.25 206.066 1481.67 Q203.01 1477.06 203.01 1468.33 Q203.01 1459.58 206.066 1455 Q209.144 1450.39 214.954 1450.39 Z" fill="#000000" fill-rule="nonzero" fill-opacity="1" /><path clip-path="url(#clip660)" d="M710.325 1454.1 Q706.714 1454.1 704.885 1457.66 Q703.08 1461.2 703.08 1468.33 Q703.08 1475.44 704.885 1479.01 Q706.714 1482.55 710.325 1482.55 Q713.959 1482.55 715.765 1479.01 Q717.594 1475.44 717.594 1468.33 Q717.594 1461.2 715.765 1457.66 Q713.959 1454.1 710.325 1454.1 M710.325 1450.39 Q716.135 1450.39 719.191 1455 Q722.27 1459.58 722.27 1468.33 Q722.27 1477.06 719.191 1481.67 Q716.135 1486.25 710.325 1486.25 Q704.515 1486.25 701.436 1481.67 Q698.381 1477.06 698.381 1468.33 Q698.381 1459.58 701.436 1455 Q704.515 1450.39 710.325 1450.39 Z" fill="#000000" fill-rule="nonzero" fill-opacity="1" /><path clip-path="url(#clip660)" d="M730.487 1479.7 L735.371 1479.7 L735.371 1485.58 L730.487 1485.58 L730.487 1479.7 Z" fill="#000000" fill-rule="nonzero" fill-opacity="1" /><path clip-path="url(#clip660)" d="M745.603 1451.02 L763.959 1451.02 L763.959 1454.96 L749.885 1454.96 L749.885 1463.43 Q750.904 1463.08 751.922 1462.92 Q752.941 1462.73 753.959 1462.73 Q759.746 1462.73 763.126 1465.9 Q766.505 1469.08 766.505 1474.49 Q766.505 1480.07 763.033 1483.17 Q759.561 1486.25 753.242 1486.25 Q751.066 1486.25 748.797 1485.88 Q746.552 1485.51 744.144 1484.77 L744.144 1480.07 Q746.228 1481.2 748.45 1481.76 Q750.672 1482.32 753.149 1482.32 Q757.154 1482.32 759.492 1480.21 Q761.829 1478.1 761.829 1474.49 Q761.829 1470.88 759.492 1468.77 Q757.154 1466.67 753.149 1466.67 Q751.274 1466.67 749.399 1467.08 Q747.547 1467.5 745.603 1468.38 L745.603 1451.02 Z" fill="#000000" fill-rule="nonzero" fill-opacity="1" /><path clip-path="url(#clip660)" d="M1239.7 1481.64 L1247.34 1481.64 L1247.34 1455.28 L1239.03 1456.95 L1239.03 1452.69 L1247.29 1451.02 L1251.97 1451.02 L1251.97 1481.64 L1259.61 1481.64 L1259.61 1485.58 L1239.7 1485.58 L1239.7 1481.64 Z" fill="#000000" fill-rule="nonzero" fill-opacity="1" /><path clip-path="url(#clip660)" d="M1269.05 1479.7 L1273.94 1479.7 L1273.94 1485.58 L1269.05 1485.58 L1269.05 1479.7 Z" fill="#000000" fill-rule="nonzero" fill-opacity="1" /><path clip-path="url(#clip660)" d="M1294.12 1454.1 Q1290.51 1454.1 1288.68 1457.66 Q1286.88 1461.2 1286.88 1468.33 Q1286.88 1475.44 1288.68 1479.01 Q1290.51 1482.55 1294.12 1482.55 Q1297.76 1482.55 1299.56 1479.01 Q1301.39 1475.44 1301.39 1468.33 Q1301.39 1461.2 1299.56 1457.66 Q1297.76 1454.1 1294.12 1454.1 M1294.12 1450.39 Q1299.93 1450.39 1302.99 1455 Q1306.07 1459.58 1306.07 1468.33 Q1306.07 1477.06 1302.99 1481.67 Q1299.93 1486.25 1294.12 1486.25 Q1288.31 1486.25 1285.23 1481.67 Q1282.18 1477.06 1282.18 1468.33 Q1282.18 1459.58 1285.23 1455 Q1288.31 1450.39 1294.12 1450.39 Z" fill="#000000" fill-rule="nonzero" fill-opacity="1" /><path clip-path="url(#clip660)" d="M1780.3 1481.64 L1787.94 1481.64 L1787.94 1455.28 L1779.63 1456.95 L1779.63 1452.69 L1787.89 1451.02 L1792.57 1451.02 L1792.57 1481.64 L1800.21 1481.64 L1800.21 1485.58 L1780.3 1485.58 L1780.3 1481.64 Z" fill="#000000" fill-rule="nonzero" fill-opacity="1" /><path clip-path="url(#clip660)" d="M1809.65 1479.7 L1814.54 1479.7 L1814.54 1485.58 L1809.65 1485.58 L1809.65 1479.7 Z" fill="#000000" fill-rule="nonzero" fill-opacity="1" /><path clip-path="url(#clip660)" d="M1824.77 1451.02 L1843.13 1451.02 L1843.13 1454.96 L1829.05 1454.96 L1829.05 1463.43 Q1830.07 1463.08 1831.09 1462.92 Q1832.11 1462.73 1833.13 1462.73 Q1838.91 1462.73 1842.29 1465.9 Q1845.67 1469.08 1845.67 1474.49 Q1845.67 1480.07 1842.2 1483.17 Q1838.73 1486.25 1832.41 1486.25 Q1830.23 1486.25 1827.96 1485.88 Q1825.72 1485.51 1823.31 1484.77 L1823.31 1480.07 Q1825.39 1481.2 1827.62 1481.76 Q1829.84 1482.32 1832.32 1482.32 Q1836.32 1482.32 1838.66 1480.21 Q1841 1478.1 1841 1474.49 Q1841 1470.88 1838.66 1468.77 Q1836.32 1466.67 1832.32 1466.67 Q1830.44 1466.67 1828.57 1467.08 Q1826.71 1467.5 1824.77 1468.38 L1824.77 1451.02 Z" fill="#000000" fill-rule="nonzero" fill-opacity="1" /><path clip-path="url(#clip660)" d="M2323.99 1481.64 L2340.31 1481.64 L2340.31 1485.58 L2318.37 1485.58 L2318.37 1481.64 Q2321.03 1478.89 2325.61 1474.26 Q2330.22 1469.61 2331.4 1468.27 Q2333.65 1465.74 2334.53 1464.01 Q2335.43 1462.25 2335.43 1460.56 Q2335.43 1457.8 2333.49 1456.07 Q2331.56 1454.33 2328.46 1454.33 Q2326.26 1454.33 2323.81 1455.09 Q2321.38 1455.86 2318.6 1457.41 L2318.6 1452.69 Q2321.43 1451.55 2323.88 1450.97 Q2326.33 1450.39 2328.37 1450.39 Q2333.74 1450.39 2336.93 1453.08 Q2340.13 1455.77 2340.13 1460.26 Q2340.13 1462.39 2339.32 1464.31 Q2338.53 1466.2 2336.42 1468.8 Q2335.85 1469.47 2332.74 1472.69 Q2329.64 1475.88 2323.99 1481.64 Z" fill="#000000" fill-rule="nonzero" fill-opacity="1" /><path clip-path="url(#clip660)" d="M2350.13 1479.7 L2355.01 1479.7 L2355.01 1485.58 L2350.13 1485.58 L2350.13 1479.7 Z" fill="#000000" fill-rule="nonzero" fill-opacity="1" /><path clip-path="url(#clip660)" d="M2375.2 1454.1 Q2371.59 1454.1 2369.76 1457.66 Q2367.95 1461.2 2367.95 1468.33 Q2367.95 1475.44 2369.76 1479.01 Q2371.59 1482.55 2375.2 1482.55 Q2378.83 1482.55 2380.64 1479.01 Q2382.47 1475.44 2382.47 1468.33 Q2382.47 1461.2 2380.64 1457.66 Q2378.83 1454.1 2375.2 1454.1 M2375.2 1450.39 Q2381.01 1450.39 2384.06 1455 Q2387.14 1459.58 2387.14 1468.33 Q2387.14 1477.06 2384.06 1481.67 Q2381.01 1486.25 2375.2 1486.25 Q2369.39 1486.25 2366.31 1481.67 Q2363.25 1477.06 2363.25 1468.33 Q2363.25 1459.58 2366.31 1455 Q2369.39 1450.39 2375.2 1450.39 Z" fill="#000000" fill-rule="nonzero" fill-opacity="1" /><path clip-path="url(#clip660)" d="M1271.61 1522.27 L1271.61 1532.4 L1283.67 1532.4 L1283.67 1536.95 L1271.61 1536.95 L1271.61 1556.3 Q1271.61 1560.66 1272.79 1561.9 Q1274 1563.14 1277.66 1563.14 L1283.67 1563.14 L1283.67 1568.04 L1277.66 1568.04 Q1270.88 1568.04 1268.3 1565.53 Q1265.72 1562.98 1265.72 1556.3 L1265.72 1536.95 L1261.42 1536.95 L1261.42 1532.4 L1265.72 1532.4 L1265.72 1522.27 L1271.61 1522.27 Z" fill="#000000" fill-rule="nonzero" fill-opacity="1" /><polyline clip-path="url(#clip660)" style="stroke:#000000; stroke-linecap:round; stroke-linejoin:round; stroke-width:4; stroke-opacity:1; fill:none" points="192.339,1423.18 192.339,47.2441 "/>
<polyline clip-path="url(#clip660)" style="stroke:#000000; stroke-linecap:round; stroke-linejoin:round; stroke-width:4; stroke-opacity:1; fill:none" points="192.339,1183.21 211.236,1183.21 "/>
<polyline clip-path="url(#clip660)" style="stroke:#000000; stroke-linecap:round; stroke-linejoin:round; stroke-width:4; stroke-opacity:1; fill:none" points="192.339,807.445 211.236,807.445 "/>
<polyline clip-path="url(#clip660)" style="stroke:#000000; stroke-linecap:round; stroke-linejoin:round; stroke-width:4; stroke-opacity:1; fill:none" points="192.339,431.675 211.236,431.675 "/>
<polyline clip-path="url(#clip660)" style="stroke:#000000; stroke-linecap:round; stroke-linejoin:round; stroke-width:4; stroke-opacity:1; fill:none" points="192.339,55.9058 211.236,55.9058 "/>
<path clip-path="url(#clip660)" d="M50.9921 1183.67 L80.6679 1183.67 L80.6679 1187.6 L50.9921 1187.6 L50.9921 1183.67 Z" fill="#000000" fill-rule="nonzero" fill-opacity="1" /><path clip-path="url(#clip660)" d="M100.76 1169.01 Q97.1493 1169.01 95.3206 1172.58 Q93.515 1176.12 93.515 1183.25 Q93.515 1190.36 95.3206 1193.92 Q97.1493 1197.46 100.76 1197.46 Q104.395 1197.46 106.2 1193.92 Q108.029 1190.36 108.029 1183.25 Q108.029 1176.12 106.2 1172.58 Q104.395 1169.01 100.76 1169.01 M100.76 1165.31 Q106.571 1165.31 109.626 1169.92 Q112.705 1174.5 112.705 1183.25 Q112.705 1191.98 109.626 1196.58 Q106.571 1201.17 100.76 1201.17 Q94.9502 1201.17 91.8715 1196.58 Q88.816 1191.98 88.816 1183.25 Q88.816 1174.5 91.8715 1169.92 Q94.9502 1165.31 100.76 1165.31 Z" fill="#000000" fill-rule="nonzero" fill-opacity="1" /><path clip-path="url(#clip660)" d="M120.922 1194.61 L125.807 1194.61 L125.807 1200.49 L120.922 1200.49 L120.922 1194.61 Z" fill="#000000" fill-rule="nonzero" fill-opacity="1" /><path clip-path="url(#clip660)" d="M140.019 1196.56 L156.339 1196.56 L156.339 1200.49 L134.394 1200.49 L134.394 1196.56 Q137.056 1193.8 141.64 1189.17 Q146.246 1184.52 147.427 1183.18 Q149.672 1180.66 150.552 1178.92 Q151.455 1177.16 151.455 1175.47 Q151.455 1172.72 149.51 1170.98 Q147.589 1169.24 144.487 1169.24 Q142.288 1169.24 139.834 1170.01 Q137.404 1170.77 134.626 1172.32 L134.626 1167.6 Q137.45 1166.47 139.904 1165.89 Q142.357 1165.31 144.394 1165.31 Q149.765 1165.31 152.959 1167.99 Q156.154 1170.68 156.154 1175.17 Q156.154 1177.3 155.343 1179.22 Q154.556 1181.12 152.45 1183.71 Q151.871 1184.38 148.769 1187.6 Q145.668 1190.8 140.019 1196.56 Z" fill="#000000" fill-rule="nonzero" fill-opacity="1" /><path clip-path="url(#clip660)" d="M99.1632 793.244 Q95.5521 793.244 93.7234 796.808 Q91.9178 800.35 91.9178 807.48 Q91.9178 814.586 93.7234 818.151 Q95.5521 821.692 99.1632 821.692 Q102.797 821.692 104.603 818.151 Q106.432 814.586 106.432 807.48 Q106.432 800.35 104.603 796.808 Q102.797 793.244 99.1632 793.244 M99.1632 789.54 Q104.973 789.54 108.029 794.146 Q111.108 798.73 111.108 807.48 Q111.108 816.206 108.029 820.813 Q104.973 825.396 99.1632 825.396 Q93.353 825.396 90.2743 820.813 Q87.2188 816.206 87.2188 807.48 Q87.2188 798.73 90.2743 794.146 Q93.353 789.54 99.1632 789.54 Z" fill="#000000" fill-rule="nonzero" fill-opacity="1" /><path clip-path="url(#clip660)" d="M119.325 818.845 L124.209 818.845 L124.209 824.725 L119.325 824.725 L119.325 818.845 Z" fill="#000000" fill-rule="nonzero" fill-opacity="1" /><path clip-path="url(#clip660)" d="M144.394 793.244 Q140.783 793.244 138.955 796.808 Q137.149 800.35 137.149 807.48 Q137.149 814.586 138.955 818.151 Q140.783 821.692 144.394 821.692 Q148.029 821.692 149.834 818.151 Q151.663 814.586 151.663 807.48 Q151.663 800.35 149.834 796.808 Q148.029 793.244 144.394 793.244 M144.394 789.54 Q150.205 789.54 153.26 794.146 Q156.339 798.73 156.339 807.48 Q156.339 816.206 153.26 820.813 Q150.205 825.396 144.394 825.396 Q138.584 825.396 135.506 820.813 Q132.45 816.206 132.45 807.48 Q132.45 798.73 135.506 794.146 Q138.584 789.54 144.394 789.54 Z" fill="#000000" fill-rule="nonzero" fill-opacity="1" /><path clip-path="url(#clip660)" d="M100.76 417.474 Q97.1493 417.474 95.3206 421.039 Q93.515 424.58 93.515 431.71 Q93.515 438.816 95.3206 442.381 Q97.1493 445.923 100.76 445.923 Q104.395 445.923 106.2 442.381 Q108.029 438.816 108.029 431.71 Q108.029 424.58 106.2 421.039 Q104.395 417.474 100.76 417.474 M100.76 413.77 Q106.571 413.77 109.626 418.377 Q112.705 422.96 112.705 431.71 Q112.705 440.437 109.626 445.043 Q106.571 449.627 100.76 449.627 Q94.9502 449.627 91.8715 445.043 Q88.816 440.437 88.816 431.71 Q88.816 422.96 91.8715 418.377 Q94.9502 413.77 100.76 413.77 Z" fill="#000000" fill-rule="nonzero" fill-opacity="1" /><path clip-path="url(#clip660)" d="M120.922 443.076 L125.807 443.076 L125.807 448.955 L120.922 448.955 L120.922 443.076 Z" fill="#000000" fill-rule="nonzero" fill-opacity="1" /><path clip-path="url(#clip660)" d="M140.019 445.02 L156.339 445.02 L156.339 448.955 L134.394 448.955 L134.394 445.02 Q137.056 442.266 141.64 437.636 Q146.246 432.983 147.427 431.641 Q149.672 429.117 150.552 427.381 Q151.455 425.622 151.455 423.932 Q151.455 421.178 149.51 419.442 Q147.589 417.705 144.487 417.705 Q142.288 417.705 139.834 418.469 Q137.404 419.233 134.626 420.784 L134.626 416.062 Q137.45 414.928 139.904 414.349 Q142.357 413.77 144.394 413.77 Q149.765 413.77 152.959 416.455 Q156.154 419.141 156.154 423.631 Q156.154 425.761 155.343 427.682 Q154.556 429.58 152.45 432.173 Q151.871 432.844 148.769 436.062 Q145.668 439.256 140.019 445.02 Z" fill="#000000" fill-rule="nonzero" fill-opacity="1" /><path clip-path="url(#clip660)" d="M98.6771 41.7045 Q95.066 41.7045 93.2373 45.2693 Q91.4317 48.8109 91.4317 55.9405 Q91.4317 63.047 93.2373 66.6118 Q95.066 70.1534 98.6771 70.1534 Q102.311 70.1534 104.117 66.6118 Q105.946 63.047 105.946 55.9405 Q105.946 48.8109 104.117 45.2693 Q102.311 41.7045 98.6771 41.7045 M98.6771 38.0008 Q104.487 38.0008 107.543 42.6073 Q110.621 47.1906 110.621 55.9405 Q110.621 64.6673 107.543 69.2738 Q104.487 73.8571 98.6771 73.8571 Q92.8669 73.8571 89.7882 69.2738 Q86.7327 64.6673 86.7327 55.9405 Q86.7327 47.1906 89.7882 42.6073 Q92.8669 38.0008 98.6771 38.0008 Z" fill="#000000" fill-rule="nonzero" fill-opacity="1" /><path clip-path="url(#clip660)" d="M118.839 67.3062 L123.723 67.3062 L123.723 73.1858 L118.839 73.1858 L118.839 67.3062 Z" fill="#000000" fill-rule="nonzero" fill-opacity="1" /><path clip-path="url(#clip660)" d="M146.756 42.6998 L134.95 61.1488 L146.756 61.1488 L146.756 42.6998 M145.529 38.6258 L151.408 38.6258 L151.408 61.1488 L156.339 61.1488 L156.339 65.0377 L151.408 65.0377 L151.408 73.1858 L146.756 73.1858 L146.756 65.0377 L131.154 65.0377 L131.154 60.5238 L145.529 38.6258 Z" fill="#000000" fill-rule="nonzero" fill-opacity="1" /><polyline clip-path="url(#clip662)" style="stroke:#009af9; stroke-linecap:round; stroke-linejoin:round; stroke-width:4; stroke-opacity:1; fill:none" points="192.339,1078.83 194.501,1081.87 196.664,1084.89 198.827,1087.87 200.989,1090.82 203.152,1093.74 205.314,1096.64 207.477,1099.5 209.639,1102.34 211.802,1105.14 213.965,1107.92 216.127,1110.68 218.29,1113.4 220.452,1116.1 222.615,1118.77 224.777,1121.41 226.94,1124.03 229.103,1126.62 231.265,1129.19 233.428,1131.73 235.59,1134.24 237.753,1136.74 239.916,1139.2 242.078,1141.64 244.241,1144.06 246.403,1146.45 248.566,1148.82 250.728,1151.16 252.891,1153.48 255.054,1155.78 257.216,1158.06 259.379,1160.31 261.541,1162.54 263.704,1164.75 265.866,1166.94 268.029,1169.1 270.192,1171.24 272.354,1173.37 274.517,1175.47 276.679,1177.55 278.842,1179.6 281.005,1181.64 283.167,1183.66 285.33,1185.66 287.492,1187.64 289.655,1189.6 291.817,1191.53 293.98,1193.45 296.143,1195.35 298.305,1197.24 300.468,1199.1 302.63,1200.94 304.793,1202.77 306.956,1204.58 309.118,1206.37 311.281,1208.14 313.443,1209.89 315.606,1211.63 317.768,1213.35 319.931,1215.05 322.094,1216.73 324.256,1218.4 326.419,1220.05 328.581,1221.69 330.744,1223.31 332.906,1224.91 335.069,1226.5 337.232,1228.07 339.394,1229.63 341.557,1231.17 343.719,1232.69 345.882,1234.2 348.045,1235.7 350.207,1237.18 352.37,1238.64 354.532,1240.09 356.695,1241.53 358.857,1242.95 361.02,1244.36 363.183,1245.75 365.345,1247.13 367.508,1248.49 369.67,1249.85 371.833,1251.19 373.995,1252.51 376.158,1253.82 378.321,1255.12 380.483,1256.41 382.646,1257.68 384.808,1258.94 386.971,1260.19 389.134,1261.43 391.296,1262.65 393.459,1263.86 395.621,1265.06 397.784,1266.25 399.946,1267.42 402.109,1268.59 404.272,1269.74 406.434,1270.88 408.597,1272.01 410.759,1273.13 412.922,1274.23 415.084,1275.33 417.247,1276.41 419.41,1277.49 421.572,1278.55 423.735,1279.6 425.897,1280.64 428.06,1281.68 430.223,1282.7 432.385,1283.71 434.548,1284.71 436.71,1285.7 438.873,1286.68 441.035,1287.66 443.198,1288.62 445.361,1289.57 447.523,1290.51 449.686,1291.45 451.848,1292.37 454.011,1293.29 456.174,1294.19 458.336,1295.09 460.499,1295.98 462.661,1296.86 464.824,1297.73 466.986,1298.59 469.149,1299.44 471.312,1300.29 473.474,1301.13 475.637,1301.95 477.799,1302.77 479.962,1303.58 482.124,1304.39 484.287,1305.18 486.45,1305.97 488.612,1306.75 490.775,1307.52 492.937,1308.29 495.1,1309.04 497.263,1309.79 499.425,1310.53 501.588,1311.27 503.75,1312 505.913,1312.72 508.075,1313.43 510.238,1314.13 512.401,1314.83 514.563,1315.52 516.726,1316.21 518.888,1316.88 521.051,1317.56 523.213,1318.22 525.376,1318.88 527.539,1319.53 529.701,1320.17 531.864,1320.81 534.026,1321.44 536.189,1322.07 538.352,1322.69 540.514,1323.3 542.677,1323.91 544.839,1324.51 547.002,1325.1 549.164,1325.69 551.327,1326.28 553.49,1326.85 555.652,1327.43 557.815,1327.99 559.977,1328.55 562.14,1329.11 564.302,1329.66 566.465,1330.2 568.628,1330.74 570.79,1331.27 572.953,1331.8 575.115,1332.32 577.278,1332.84 579.441,1333.35 581.603,1333.86 583.766,1334.36 585.928,1334.86 588.091,1335.35 590.253,1335.84 592.416,1336.32 594.579,1336.8 596.741,1337.27 598.904,1337.74 601.066,1338.2 603.229,1338.66 605.392,1339.11 607.554,1339.56 609.717,1340.01 611.879,1340.45 614.042,1340.89 616.204,1341.32 618.367,1341.75 620.53,1342.17 622.692,1342.59 624.855,1343 627.017,1343.41 629.18,1343.82 631.342,1344.22 633.505,1344.62 635.668,1345.02 637.83,1345.41 639.993,1345.79 642.155,1346.18 644.318,1346.56 646.481,1346.93 648.643,1347.3 650.806,1347.67 652.968,1348.04 655.131,1348.4 657.293,1348.75 659.456,1349.11 661.619,1349.46 663.781,1349.8 665.944,1350.15 668.106,1350.49 670.269,1350.82 672.431,1351.15 674.594,1351.48 676.757,1351.81 678.919,1352.13 681.082,1352.45 683.244,1352.77 685.407,1353.08 687.57,1353.39 689.732,1353.7 691.895,1354.01 694.057,1354.31 696.22,1354.6 698.382,1354.9 700.545,1355.19 702.708,1355.48 704.87,1355.77 707.033,1356.05 709.195,1356.33 711.358,1356.61 713.52,1356.89 715.683,1357.16 717.846,1357.43 720.008,1357.7 722.171,1357.96 724.333,1358.22 726.496,1358.48 728.659,1358.74 730.821,1358.99 732.984,1359.25 735.146,1359.49 737.309,1359.74 739.471,1359.99 741.634,1360.23 743.797,1360.47 745.959,1360.7 748.122,1360.94 750.284,1361.17 752.447,1361.4 754.61,1361.63 756.772,1361.85 758.935,1362.08 761.097,1362.3 763.26,1362.52 765.422,1362.73 767.585,1362.95 769.748,1363.16 771.91,1363.37 774.073,1363.58 776.235,1363.78 778.398,1363.99 780.56,1364.19 782.723,1364.39 784.886,1364.59 787.048,1364.78 789.211,1364.98 791.373,1365.17 793.536,1365.36 795.699,1365.55 797.861,1365.73 800.024,1365.92 802.186,1366.1 804.349,1366.28 806.511,1366.46 808.674,1366.64 810.837,1366.81 812.999,1366.99 815.162,1367.16 817.324,1367.33 819.487,1367.5 821.649,1367.66 823.812,1367.83 825.975,1367.99 828.137,1368.15 830.3,1368.31 832.462,1368.47 834.625,1368.63 836.788,1368.78 838.95,1368.94 841.113,1369.09 843.275,1369.24 845.438,1369.39 847.6,1369.54 849.763,1369.69 851.926,1369.83 854.088,1369.97 856.251,1370.12 858.413,1370.26 860.576,1370.4 862.738,1370.54 864.901,1370.67 867.064,1370.81 869.226,1370.94 871.389,1371.07 873.551,1371.21 875.714,1371.34 877.877,1371.46 880.039,1371.59 882.202,1371.72 884.364,1371.84 886.527,1371.97 888.689,1372.09 890.852,1372.21 893.015,1372.33 895.177,1372.45 897.34,1372.57 899.502,1372.68 901.665,1372.8 903.828,1372.91 905.99,1373.03 908.153,1373.14 910.315,1373.25 912.478,1373.36 914.64,1373.47 916.803,1373.58 918.966,1373.68 921.128,1373.79 923.291,1373.89 925.453,1374 927.616,1374.1 929.778,1374.2 931.941,1374.3 934.104,1374.4 936.266,1374.5 938.429,1374.59 940.591,1374.69 942.754,1374.79 944.917,1374.88 947.079,1374.97 949.242,1375.07 951.404,1375.16 953.567,1375.25 955.729,1375.34 957.892,1375.43 960.055,1375.51 962.217,1375.6 964.38,1375.69 966.542,1375.77 968.705,1375.86 970.867,1375.94 973.03,1376.02 975.193,1376.1 977.355,1376.19 979.518,1376.27 981.68,1376.34 983.843,1376.42 986.006,1376.5 988.168,1376.58 990.331,1376.65 992.493,1376.73 994.656,1376.8 996.818,1376.88 998.981,1376.95 1001.14,1377.02 1003.31,1377.1 1005.47,1377.17 1007.63,1377.24 1009.79,1377.31 1011.96,1377.38 1014.12,1377.44 1016.28,1377.51 1018.44,1377.58 1020.61,1377.65 1022.77,1377.71 1024.93,1377.78 1027.09,1377.84 1029.26,1377.9 1031.42,1377.97 1033.58,1378.03 1035.74,1378.09 1037.91,1378.15 1040.07,1378.21 1042.23,1378.27 1044.4,1378.33 1046.56,1378.39 1048.72,1378.45 1050.88,1378.51 1053.05,1378.57 1055.21,1378.62 1057.37,1378.68 1059.53,1378.73 1061.7,1378.79 1063.86,1378.84 1066.02,1378.9 1068.18,1378.95 1070.35,1379 1072.51,1379.06 1074.67,1379.11 1076.83,1379.16 1079,1379.21 1081.16,1379.26 1083.32,1379.31 1085.48,1379.36 1087.65,1379.41 1089.81,1379.46 1091.97,1379.51 1094.13,1379.55 1096.3,1379.6 1098.46,1379.65 1100.62,1379.69 1102.78,1379.74 1104.95,1379.78 1107.11,1379.83 1109.27,1379.87 1111.44,1379.92 1113.6,1379.96 1115.76,1380 1117.92,1380.04 1120.09,1380.09 1122.25,1380.13 1124.41,1380.17 1126.57,1380.21 1128.74,1380.25 1130.9,1380.29 1133.06,1380.33 1135.22,1380.37 1137.39,1380.41 1139.55,1380.45 1141.71,1380.48 1143.87,1380.52 1146.04,1380.56 1148.2,1380.6 1150.36,1380.63 1152.52,1380.67 1154.69,1380.7 1156.85,1380.74 1159.01,1380.77 1161.17,1380.81 1163.34,1380.84 1165.5,1380.88 1167.66,1380.91 1169.82,1380.94 1171.99,1380.98 1174.15,1381.01 1176.31,1381.04 1178.48,1381.07 1180.64,1381.1 1182.8,1381.14 1184.96,1381.17 1187.13,1381.2 1189.29,1381.23 1191.45,1381.26 1193.61,1381.29 1195.78,1381.32 1197.94,1381.35 1200.1,1381.37 1202.26,1381.4 1204.43,1381.43 1206.59,1381.46 1208.75,1381.49 1210.91,1381.51 1213.08,1381.54 1215.24,1381.57 1217.4,1381.6 1219.56,1381.62 1221.73,1381.65 1223.89,1381.67 1226.05,1381.7 1228.21,1381.72 1230.38,1381.75 1232.54,1381.77 1234.7,1381.8 1236.86,1381.82 1239.03,1381.85 1241.19,1381.87 1243.35,1381.9 1245.52,1381.92 1247.68,1381.94 1249.84,1381.96 1252,1381.99 1254.17,1382.01 1256.33,1382.03 1258.49,1382.05 1260.65,1382.08 1262.82,1382.1 1264.98,1382.12 1267.14,1382.14 1269.3,1382.16 1271.47,1382.18 1273.63,1382.2 1275.79,1382.22 1277.95,1382.24 1280.12,1382.26 1282.28,1382.28 1284.44,1382.3 1286.6,1382.32 1288.77,1382.34 1290.93,1382.36 1293.09,1382.38 1295.25,1382.4 1297.42,1382.42 1299.58,1382.44 1301.74,1382.45 1303.9,1382.47 1306.07,1382.49 1308.23,1382.51 1310.39,1382.53 1312.56,1382.54 1314.72,1382.56 1316.88,1382.58 1319.04,1382.59 1321.21,1382.61 1323.37,1382.63 1325.53,1382.64 1327.69,1382.66 1329.86,1382.68 1332.02,1382.69 1334.18,1382.71 1336.34,1382.72 1338.51,1382.74 1340.67,1382.75 1342.83,1382.77 1344.99,1382.78 1347.16,1382.8 1349.32,1382.81 1351.48,1382.83 1353.64,1382.84 1355.81,1382.85 1357.97,1382.87 1360.13,1382.88 1362.29,1382.9 1364.46,1382.91 1366.62,1382.92 1368.78,1382.94 1370.94,1382.95 1373.11,1382.96 1375.27,1382.98 1377.43,1382.99 1379.6,1383 1381.76,1383.01 1383.92,1383.03 1386.08,1383.04 1388.25,1383.05 1390.41,1383.06 1392.57,1383.07 1394.73,1383.09 1396.9,1383.1 1399.06,1383.11 1401.22,1383.12 1403.38,1383.13 1405.55,1383.14 1407.71,1383.15 1409.87,1383.16 1412.03,1383.18 1414.2,1383.19 1416.36,1383.2 1418.52,1383.21 1420.68,1383.22 1422.85,1383.23 1425.01,1383.24 1427.17,1383.25 1429.33,1383.26 1431.5,1383.27 1433.66,1383.28 1435.82,1383.29 1437.98,1383.3 1440.15,1383.31 1442.31,1383.32 1444.47,1383.32 1446.64,1383.33 1448.8,1383.34 1450.96,1383.35 1453.12,1383.36 1455.29,1383.37 1457.45,1383.38 1459.61,1383.39 1461.77,1383.39 1463.94,1383.4 1466.1,1383.41 1468.26,1383.42 1470.42,1383.43 1472.59,1383.44 1474.75,1383.44 1476.91,1383.45 1479.07,1383.46 1481.24,1383.47 1483.4,1383.48 1485.56,1383.48 1487.72,1383.49 1489.89,1383.5 1492.05,1383.51 1494.21,1383.51 1496.37,1383.52 1498.54,1383.53 1500.7,1383.53 1502.86,1383.54 1505.02,1383.55 1507.19,1383.56 1509.35,1383.56 1511.51,1383.57 1513.67,1383.58 1515.84,1383.58 1518,1383.59 1520.16,1383.6 1522.33,1383.6 1524.49,1383.61 1526.65,1383.62 1528.81,1383.62 1530.98,1383.63 1533.14,1383.63 1535.3,1383.64 1537.46,1383.65 1539.63,1383.65 1541.79,1383.66 1543.95,1383.67 1546.11,1383.67 1548.28,1383.68 1550.44,1383.68 1552.6,1383.69 1554.76,1383.69 1556.93,1383.7 1559.09,1383.71 1561.25,1383.71 1563.41,1383.72 1565.58,1383.72 1567.74,1383.73 1569.9,1383.73 1572.06,1383.74 1574.23,1383.74 1576.39,1383.75 1578.55,1383.75 1580.71,1383.76 1582.88,1383.76 1585.04,1383.77 1587.2,1383.77 1589.37,1383.78 1591.53,1383.78 1593.69,1383.79 1595.85,1383.79 1598.02,1383.8 1600.18,1383.8 1602.34,1383.81 1604.5,1383.81 1606.67,1383.81 1608.83,1383.82 1610.99,1383.82 1613.15,1383.83 1615.32,1383.83 1617.48,1383.84 1619.64,1383.84 1621.8,1383.84 1623.97,1383.85 1626.13,1383.85 1628.29,1383.86 1630.45,1383.86 1632.62,1383.86 1634.78,1383.87 1636.94,1383.87 1639.1,1383.88 1641.27,1383.88 1643.43,1383.88 1645.59,1383.89 1647.75,1383.89 1649.92,1383.89 1652.08,1383.9 1654.24,1383.9 1656.41,1383.91 1658.57,1383.91 1660.73,1383.91 1662.89,1383.92 1665.06,1383.92 1667.22,1383.92 1669.38,1383.93 1671.54,1383.93 1673.71,1383.93 1675.87,1383.94 1678.03,1383.94 1680.19,1383.94 1682.36,1383.94 1684.52,1383.95 1686.68,1383.95 1688.84,1383.95 1691.01,1383.96 1693.17,1383.96 1695.33,1383.96 1697.49,1383.97 1699.66,1383.97 1701.82,1383.97 1703.98,1383.97 1706.14,1383.98 1708.31,1383.98 1710.47,1383.98 1712.63,1383.98 1714.79,1383.99 1716.96,1383.99 1719.12,1383.99 1721.28,1383.99 1723.45,1384 1725.61,1384 1727.77,1384 1729.93,1384 1732.1,1384.01 1734.26,1384.01 1736.42,1384.01 1738.58,1384.01 1740.75,1384.02 1742.91,1384.02 1745.07,1384.02 1747.23,1384.02 1749.4,1384.03 1751.56,1384.03 1753.72,1384.03 1755.88,1384.03 1758.05,1384.03 1760.21,1384.04 1762.37,1384.04 1764.53,1384.04 1766.7,1384.04 1768.86,1384.04 1771.02,1384.05 1773.18,1384.05 1775.35,1384.05 1777.51,1384.05 1779.67,1384.05 1781.83,1384.06 1784,1384.06 1786.16,1384.06 1788.32,1384.06 1790.49,1384.06 1792.65,1384.07 1794.81,1384.07 1796.97,1384.07 1799.14,1384.07 1801.3,1384.07 1803.46,1384.07 1805.62,1384.08 1807.79,1384.08 1809.95,1384.08 1812.11,1384.08 1814.27,1384.08 1816.44,1384.08 1818.6,1384.09 1820.76,1384.09 1822.92,1384.09 1825.09,1384.09 1827.25,1384.09 1829.41,1384.09 1831.57,1384.1 1833.74,1384.1 1835.9,1384.1 1838.06,1384.1 1840.22,1384.1 1842.39,1384.1 1844.55,1384.11 1846.71,1384.11 1848.87,1384.11 1851.04,1384.11 1853.2,1384.11 1855.36,1384.11 1857.53,1384.11 1859.69,1384.12 1861.85,1384.12 1864.01,1384.12 1866.18,1384.12 1868.34,1384.12 1870.5,1384.12 1872.66,1384.12 1874.83,1384.13 1876.99,1384.13 1879.15,1384.13 1881.31,1384.13 1883.48,1384.13 1885.64,1384.13 1887.8,1384.13 1889.96,1384.13 1892.13,1384.14 1894.29,1384.14 1896.45,1384.14 1898.61,1384.14 1900.78,1384.14 1902.94,1384.14 1905.1,1384.14 1907.26,1384.14 1909.43,1384.14 1911.59,1384.15 1913.75,1384.15 1915.91,1384.15 1918.08,1384.15 1920.24,1384.15 1922.4,1384.15 1924.57,1384.15 1926.73,1384.15 1928.89,1384.15 1931.05,1384.16 1933.22,1384.16 1935.38,1384.16 1937.54,1384.16 1939.7,1384.16 1941.87,1384.16 1944.03,1384.16 1946.19,1384.16 1948.35,1384.16 1950.52,1384.16 1952.68,1384.16 1954.84,1384.17 1957,1384.17 1959.17,1384.17 1961.33,1384.17 1963.49,1384.17 1965.65,1384.17 1967.82,1384.17 1969.98,1384.17 1972.14,1384.17 1974.3,1384.17 1976.47,1384.17 1978.63,1384.17 1980.79,1384.18 1982.95,1384.18 1985.12,1384.18 1987.28,1384.18 1989.44,1384.18 1991.61,1384.18 1993.77,1384.18 1995.93,1384.18 1998.09,1384.18 2000.26,1384.18 2002.42,1384.18 2004.58,1384.18 2006.74,1384.18 2008.91,1384.19 2011.07,1384.19 2013.23,1384.19 2015.39,1384.19 2017.56,1384.19 2019.72,1384.19 2021.88,1384.19 2024.04,1384.19 2026.21,1384.19 2028.37,1384.19 2030.53,1384.19 2032.69,1384.19 2034.86,1384.19 2037.02,1384.19 2039.18,1384.19 2041.34,1384.19 2043.51,1384.19 2045.67,1384.2 2047.83,1384.2 2049.99,1384.2 2052.16,1384.2 2054.32,1384.2 2056.48,1384.2 2058.65,1384.2 2060.81,1384.2 2062.97,1384.2 2065.13,1384.2 2067.3,1384.2 2069.46,1384.2 2071.62,1384.2 2073.78,1384.2 2075.95,1384.2 2078.11,1384.2 2080.27,1384.2 2082.43,1384.2 2084.6,1384.2 2086.76,1384.2 2088.92,1384.2 2091.08,1384.21 2093.25,1384.21 2095.41,1384.21 2097.57,1384.21 2099.73,1384.21 2101.9,1384.21 2104.06,1384.21 2106.22,1384.21 2108.38,1384.21 2110.55,1384.21 2112.71,1384.21 2114.87,1384.21 2117.03,1384.21 2119.2,1384.21 2121.36,1384.21 2123.52,1384.21 2125.69,1384.21 2127.85,1384.21 2130.01,1384.21 2132.17,1384.21 2134.34,1384.21 2136.5,1384.21 2138.66,1384.21 2140.82,1384.21 2142.99,1384.21 2145.15,1384.22 2147.31,1384.22 2149.47,1384.22 2151.64,1384.22 2153.8,1384.22 2155.96,1384.22 2158.12,1384.22 2160.29,1384.22 2162.45,1384.22 2164.61,1384.22 2166.77,1384.22 2168.94,1384.22 2171.1,1384.22 2173.26,1384.22 2175.42,1384.22 2177.59,1384.22 2179.75,1384.22 2181.91,1384.22 2184.07,1384.22 2186.24,1384.22 2188.4,1384.22 2190.56,1384.22 2192.73,1384.22 2194.89,1384.22 2197.05,1384.22 2199.21,1384.22 2201.38,1384.22 2203.54,1384.22 2205.7,1384.22 2207.86,1384.22 2210.03,1384.22 2212.19,1384.23 2214.35,1384.23 2216.51,1384.23 2218.68,1384.23 2220.84,1384.23 2223,1384.23 2225.16,1384.23 2227.33,1384.23 2229.49,1384.23 2231.65,1384.23 2233.81,1384.23 2235.98,1384.23 2238.14,1384.23 2240.3,1384.23 2242.46,1384.23 2244.63,1384.23 2246.79,1384.23 2248.95,1384.23 2251.11,1384.23 2253.28,1384.23 2255.44,1384.23 2257.6,1384.23 2259.76,1384.23 2261.93,1384.23 2264.09,1384.23 2266.25,1384.23 2268.42,1384.23 2270.58,1384.23 2272.74,1384.23 2274.9,1384.23 2277.07,1384.23 2279.23,1384.23 2281.39,1384.23 2283.55,1384.23 2285.72,1384.23 2287.88,1384.23 2290.04,1384.23 2292.2,1384.23 2294.37,1384.23 2296.53,1384.23 2298.69,1384.23 2300.85,1384.23 2303.02,1384.23 2305.18,1384.23 2307.34,1384.23 2309.5,1384.24 2311.67,1384.24 2313.83,1384.24 2315.99,1384.24 2318.15,1384.24 2320.32,1384.24 2322.48,1384.24 2324.64,1384.24 2326.8,1384.24 2328.97,1384.24 2331.13,1384.24 2333.29,1384.24 2335.46,1384.24 2337.62,1384.24 2339.78,1384.24 2341.94,1384.24 2344.11,1384.24 2346.27,1384.24 2348.43,1384.24 2350.59,1384.24 2352.76,1384.24 "/>
<polyline clip-path="url(#clip662)" style="stroke:#e26f46; stroke-linecap:round; stroke-linejoin:round; stroke-width:4; stroke-opacity:1; fill:none" points="192.339,86.1857 194.501,92.8103 196.664,99.4066 198.827,105.975 200.989,112.515 203.152,119.027 205.314,125.511 207.477,131.967 209.639,138.395 211.802,144.795 213.965,151.168 216.127,157.513 218.29,163.83 220.452,170.12 222.615,176.382 224.777,182.616 226.94,188.824 229.103,195.003 231.265,201.156 233.428,207.282 235.59,213.38 237.753,219.451 239.916,225.496 242.078,231.513 244.241,237.503 246.403,243.467 248.566,249.404 250.728,255.315 252.891,261.198 255.054,267.056 257.216,272.886 259.379,278.691 261.541,284.469 263.704,290.221 265.866,295.947 268.029,301.647 270.192,307.32 272.354,312.968 274.517,318.59 276.679,324.186 278.842,329.757 281.005,335.302 283.167,340.821 285.33,346.315 287.492,351.784 289.655,357.227 291.817,362.645 293.98,368.038 296.143,373.406 298.305,378.748 300.468,384.066 302.63,389.359 304.793,394.628 306.956,399.871 309.118,405.09 311.281,410.285 313.443,415.455 315.606,420.6 317.768,425.722 319.931,430.819 322.094,435.892 324.256,440.941 326.419,445.966 328.581,450.967 330.744,455.945 332.906,460.898 335.069,465.828 337.232,470.735 339.394,475.618 341.557,480.477 343.719,485.314 345.882,490.127 348.045,494.916 350.207,499.683 352.37,504.427 354.532,509.148 356.695,513.846 358.857,518.521 361.02,523.174 363.183,527.804 365.345,532.412 367.508,536.997 369.67,541.56 371.833,546.101 373.995,550.619 376.158,555.116 378.321,559.59 380.483,564.043 382.646,568.474 384.808,572.883 386.971,577.27 389.134,581.636 391.296,585.98 393.459,590.303 395.621,594.605 397.784,598.885 399.946,603.144 402.109,607.382 404.272,611.6 406.434,615.796 408.597,619.971 410.759,624.126 412.922,628.26 415.084,632.373 417.247,636.466 419.41,640.538 421.572,644.59 423.735,648.622 425.897,652.633 428.06,656.625 430.223,660.596 432.385,664.548 434.548,668.479 436.71,672.391 438.873,676.283 441.035,680.156 443.198,684.009 445.361,687.842 447.523,691.656 449.686,695.451 451.848,699.227 454.011,702.983 456.174,706.721 458.336,710.439 460.499,714.138 462.661,717.819 464.824,721.481 466.986,725.124 469.149,728.749 471.312,732.355 473.474,735.943 475.637,739.513 477.799,743.064 479.962,746.597 482.124,750.112 484.287,753.609 486.45,757.088 488.612,760.549 490.775,763.993 492.937,767.418 495.1,770.826 497.263,774.217 499.425,777.59 501.588,780.945 503.75,784.283 505.913,787.604 508.075,790.908 510.238,794.195 512.401,797.465 514.563,800.717 516.726,803.953 518.888,807.172 521.051,810.375 523.213,813.56 525.376,816.729 527.539,819.882 529.701,823.018 531.864,826.138 534.026,829.242 536.189,832.329 538.352,835.4 540.514,838.455 542.677,841.494 544.839,844.518 547.002,847.525 549.164,850.517 551.327,853.493 553.49,856.453 555.652,859.397 557.815,862.327 559.977,865.24 562.14,868.139 564.302,871.022 566.465,873.89 568.628,876.743 570.79,879.581 572.953,882.403 575.115,885.211 577.278,888.004 579.441,890.782 581.603,893.546 583.766,896.295 585.928,899.029 588.091,901.749 590.253,904.454 592.416,907.145 594.579,909.822 596.741,912.484 598.904,915.132 601.066,917.766 603.229,920.387 605.392,922.993 607.554,925.585 609.717,928.164 611.879,930.728 614.042,933.279 616.204,935.817 618.367,938.34 620.53,940.851 622.692,943.348 624.855,945.831 627.017,948.301 629.18,950.758 631.342,953.202 633.505,955.633 635.668,958.05 637.83,960.455 639.993,962.846 642.155,965.225 644.318,967.591 646.481,969.945 648.643,972.285 650.806,974.613 652.968,976.929 655.131,979.232 657.293,981.522 659.456,983.8 661.619,986.066 663.781,988.32 665.944,990.561 668.106,992.79 670.269,995.007 672.431,997.213 674.594,999.406 676.757,1001.59 678.919,1003.76 681.082,1005.91 683.244,1008.06 685.407,1010.19 687.57,1012.32 689.732,1014.43 691.895,1016.53 694.057,1018.62 696.22,1020.69 698.382,1022.76 700.545,1024.81 702.708,1026.86 704.87,1028.89 707.033,1030.91 709.195,1032.92 711.358,1034.92 713.52,1036.91 715.683,1038.88 717.846,1040.85 720.008,1042.8 722.171,1044.75 724.333,1046.68 726.496,1048.61 728.659,1050.52 730.821,1052.42 732.984,1054.31 735.146,1056.2 737.309,1058.07 739.471,1059.93 741.634,1061.78 743.797,1063.62 745.959,1065.45 748.122,1067.27 750.284,1069.08 752.447,1070.88 754.61,1072.67 756.772,1074.45 758.935,1076.22 761.097,1077.98 763.26,1079.74 765.422,1081.48 767.585,1083.21 769.748,1084.93 771.91,1086.64 774.073,1088.35 776.235,1090.04 778.398,1091.73 780.56,1093.4 782.723,1095.07 784.886,1096.73 787.048,1098.37 789.211,1100.01 791.373,1101.64 793.536,1103.26 795.699,1104.87 797.861,1106.48 800.024,1108.07 802.186,1109.66 804.349,1111.23 806.511,1112.8 808.674,1114.36 810.837,1115.91 812.999,1117.45 815.162,1118.98 817.324,1120.51 819.487,1122.02 821.649,1123.53 823.812,1125.03 825.975,1126.52 828.137,1128 830.3,1129.47 832.462,1130.94 834.625,1132.4 836.788,1133.85 838.95,1135.29 841.113,1136.72 843.275,1138.15 845.438,1139.56 847.6,1140.97 849.763,1142.37 851.926,1143.77 854.088,1145.15 856.251,1146.53 858.413,1147.9 860.576,1149.26 862.738,1150.62 864.901,1151.97 867.064,1153.31 869.226,1154.64 871.389,1155.96 873.551,1157.28 875.714,1158.59 877.877,1159.89 880.039,1161.19 882.202,1162.48 884.364,1163.76 886.527,1165.03 888.689,1166.3 890.852,1167.56 893.015,1168.81 895.177,1170.06 897.34,1171.29 899.502,1172.53 901.665,1173.75 903.828,1174.97 905.99,1176.18 908.153,1177.38 910.315,1178.58 912.478,1179.77 914.64,1180.95 916.803,1182.13 918.966,1183.3 921.128,1184.46 923.291,1185.62 925.453,1186.77 927.616,1187.91 929.778,1189.05 931.941,1190.18 934.104,1191.31 936.266,1192.43 938.429,1193.54 940.591,1194.64 942.754,1195.74 944.917,1196.84 947.079,1197.92 949.242,1199 951.404,1200.08 953.567,1201.15 955.729,1202.21 957.892,1203.27 960.055,1204.32 962.217,1205.36 964.38,1206.4 966.542,1207.43 968.705,1208.46 970.867,1209.48 973.03,1210.5 975.193,1211.51 977.355,1212.51 979.518,1213.51 981.68,1214.5 983.843,1215.49 986.006,1216.47 988.168,1217.44 990.331,1218.41 992.493,1219.38 994.656,1220.34 996.818,1221.29 998.981,1222.24 1001.14,1223.18 1003.31,1224.12 1005.47,1225.05 1007.63,1225.98 1009.79,1226.9 1011.96,1227.81 1014.12,1228.73 1016.28,1229.63 1018.44,1230.53 1020.61,1231.43 1022.77,1232.32 1024.93,1233.2 1027.09,1234.08 1029.26,1234.96 1031.42,1235.83 1033.58,1236.69 1035.74,1237.55 1037.91,1238.41 1040.07,1239.26 1042.23,1240.1 1044.4,1240.95 1046.56,1241.78 1048.72,1242.61 1050.88,1243.44 1053.05,1244.26 1055.21,1245.08 1057.37,1245.89 1059.53,1246.7 1061.7,1247.5 1063.86,1248.3 1066.02,1249.09 1068.18,1249.88 1070.35,1250.67 1072.51,1251.45 1074.67,1252.22 1076.83,1252.99 1079,1253.76 1081.16,1254.52 1083.32,1255.28 1085.48,1256.03 1087.65,1256.78 1089.81,1257.53 1091.97,1258.27 1094.13,1259.01 1096.3,1259.74 1098.46,1260.47 1100.62,1261.19 1102.78,1261.91 1104.95,1262.63 1107.11,1263.34 1109.27,1264.05 1111.44,1264.75 1113.6,1265.45 1115.76,1266.14 1117.92,1266.83 1120.09,1267.52 1122.25,1268.21 1124.41,1268.88 1126.57,1269.56 1128.74,1270.23 1130.9,1270.9 1133.06,1271.56 1135.22,1272.22 1137.39,1272.88 1139.55,1273.53 1141.71,1274.18 1143.87,1274.83 1146.04,1275.47 1148.2,1276.1 1150.36,1276.74 1152.52,1277.37 1154.69,1277.99 1156.85,1278.62 1159.01,1279.24 1161.17,1279.85 1163.34,1280.46 1165.5,1281.07 1167.66,1281.68 1169.82,1282.28 1171.99,1282.88 1174.15,1283.47 1176.31,1284.06 1178.48,1284.65 1180.64,1285.24 1182.8,1285.82 1184.96,1286.4 1187.13,1286.97 1189.29,1287.54 1191.45,1288.11 1193.61,1288.67 1195.78,1289.23 1197.94,1289.79 1200.1,1290.35 1202.26,1290.9 1204.43,1291.45 1206.59,1291.99 1208.75,1292.53 1210.91,1293.07 1213.08,1293.61 1215.24,1294.14 1217.4,1294.67 1219.56,1295.2 1221.73,1295.72 1223.89,1296.24 1226.05,1296.76 1228.21,1297.27 1230.38,1297.78 1232.54,1298.29 1234.7,1298.8 1236.86,1299.3 1239.03,1299.8 1241.19,1300.3 1243.35,1300.79 1245.52,1301.28 1247.68,1301.77 1249.84,1302.25 1252,1302.74 1254.17,1303.22 1256.33,1303.69 1258.49,1304.17 1260.65,1304.64 1262.82,1305.11 1264.98,1305.57 1267.14,1306.04 1269.3,1306.5 1271.47,1306.95 1273.63,1307.41 1275.79,1307.86 1277.95,1308.31 1280.12,1308.76 1282.28,1309.2 1284.44,1309.64 1286.6,1310.08 1288.77,1310.52 1290.93,1310.96 1293.09,1311.39 1295.25,1311.82 1297.42,1312.24 1299.58,1312.67 1301.74,1313.09 1303.9,1313.51 1306.07,1313.93 1308.23,1314.34 1310.39,1314.75 1312.56,1315.16 1314.72,1315.57 1316.88,1315.98 1319.04,1316.38 1321.21,1316.78 1323.37,1317.18 1325.53,1317.57 1327.69,1317.97 1329.86,1318.36 1332.02,1318.75 1334.18,1319.13 1336.34,1319.52 1338.51,1319.9 1340.67,1320.28 1342.83,1320.66 1344.99,1321.03 1347.16,1321.4 1349.32,1321.77 1351.48,1322.14 1353.64,1322.51 1355.81,1322.87 1357.97,1323.24 1360.13,1323.6 1362.29,1323.95 1364.46,1324.31 1366.62,1324.66 1368.78,1325.02 1370.94,1325.37 1373.11,1325.71 1375.27,1326.06 1377.43,1326.4 1379.6,1326.74 1381.76,1327.08 1383.92,1327.42 1386.08,1327.76 1388.25,1328.09 1390.41,1328.42 1392.57,1328.75 1394.73,1329.08 1396.9,1329.41 1399.06,1329.73 1401.22,1330.05 1403.38,1330.37 1405.55,1330.69 1407.71,1331.01 1409.87,1331.32 1412.03,1331.64 1414.2,1331.95 1416.36,1332.26 1418.52,1332.56 1420.68,1332.87 1422.85,1333.17 1425.01,1333.47 1427.17,1333.77 1429.33,1334.07 1431.5,1334.37 1433.66,1334.66 1435.82,1334.96 1437.98,1335.25 1440.15,1335.54 1442.31,1335.83 1444.47,1336.11 1446.64,1336.4 1448.8,1336.68 1450.96,1336.96 1453.12,1337.24 1455.29,1337.52 1457.45,1337.8 1459.61,1338.07 1461.77,1338.34 1463.94,1338.62 1466.1,1338.89 1468.26,1339.15 1470.42,1339.42 1472.59,1339.69 1474.75,1339.95 1476.91,1340.21 1479.07,1340.47 1481.24,1340.73 1483.4,1340.99 1485.56,1341.25 1487.72,1341.5 1489.89,1341.75 1492.05,1342.01 1494.21,1342.26 1496.37,1342.5 1498.54,1342.75 1500.7,1343 1502.86,1343.24 1505.02,1343.48 1507.19,1343.73 1509.35,1343.97 1511.51,1344.2 1513.67,1344.44 1515.84,1344.68 1518,1344.91 1520.16,1345.15 1522.33,1345.38 1524.49,1345.61 1526.65,1345.84 1528.81,1346.06 1530.98,1346.29 1533.14,1346.52 1535.3,1346.74 1537.46,1346.96 1539.63,1347.18 1541.79,1347.4 1543.95,1347.62 1546.11,1347.84 1548.28,1348.05 1550.44,1348.27 1552.6,1348.48 1554.76,1348.69 1556.93,1348.91 1559.09,1349.11 1561.25,1349.32 1563.41,1349.53 1565.58,1349.74 1567.74,1349.94 1569.9,1350.15 1572.06,1350.35 1574.23,1350.55 1576.39,1350.75 1578.55,1350.95 1580.71,1351.15 1582.88,1351.34 1585.04,1351.54 1587.2,1351.73 1589.37,1351.92 1591.53,1352.12 1593.69,1352.31 1595.85,1352.5 1598.02,1352.69 1600.18,1352.87 1602.34,1353.06 1604.5,1353.24 1606.67,1353.43 1608.83,1353.61 1610.99,1353.79 1613.15,1353.97 1615.32,1354.15 1617.48,1354.33 1619.64,1354.51 1621.8,1354.69 1623.97,1354.86 1626.13,1355.04 1628.29,1355.21 1630.45,1355.38 1632.62,1355.55 1634.78,1355.72 1636.94,1355.89 1639.1,1356.06 1641.27,1356.23 1643.43,1356.4 1645.59,1356.56 1647.75,1356.73 1649.92,1356.89 1652.08,1357.05 1654.24,1357.21 1656.41,1357.37 1658.57,1357.53 1660.73,1357.69 1662.89,1357.85 1665.06,1358.01 1667.22,1358.16 1669.38,1358.32 1671.54,1358.47 1673.71,1358.63 1675.87,1358.78 1678.03,1358.93 1680.19,1359.08 1682.36,1359.23 1684.52,1359.38 1686.68,1359.53 1688.84,1359.67 1691.01,1359.82 1693.17,1359.96 1695.33,1360.11 1697.49,1360.25 1699.66,1360.39 1701.82,1360.54 1703.98,1360.68 1706.14,1360.82 1708.31,1360.96 1710.47,1361.09 1712.63,1361.23 1714.79,1361.37 1716.96,1361.5 1719.12,1361.64 1721.28,1361.77 1723.45,1361.91 1725.61,1362.04 1727.77,1362.17 1729.93,1362.3 1732.1,1362.43 1734.26,1362.56 1736.42,1362.69 1738.58,1362.82 1740.75,1362.95 1742.91,1363.07 1745.07,1363.2 1747.23,1363.32 1749.4,1363.45 1751.56,1363.57 1753.72,1363.7 1755.88,1363.82 1758.05,1363.94 1760.21,1364.06 1762.37,1364.18 1764.53,1364.3 1766.7,1364.42 1768.86,1364.54 1771.02,1364.65 1773.18,1364.77 1775.35,1364.89 1777.51,1365 1779.67,1365.11 1781.83,1365.23 1784,1365.34 1786.16,1365.45 1788.32,1365.57 1790.49,1365.68 1792.65,1365.79 1794.81,1365.9 1796.97,1366.01 1799.14,1366.12 1801.3,1366.22 1803.46,1366.33 1805.62,1366.44 1807.79,1366.54 1809.95,1366.65 1812.11,1366.75 1814.27,1366.86 1816.44,1366.96 1818.6,1367.06 1820.76,1367.17 1822.92,1367.27 1825.09,1367.37 1827.25,1367.47 1829.41,1367.57 1831.57,1367.67 1833.74,1367.77 1835.9,1367.87 1838.06,1367.96 1840.22,1368.06 1842.39,1368.16 1844.55,1368.25 1846.71,1368.35 1848.87,1368.44 1851.04,1368.54 1853.2,1368.63 1855.36,1368.72 1857.53,1368.82 1859.69,1368.91 1861.85,1369 1864.01,1369.09 1866.18,1369.18 1868.34,1369.27 1870.5,1369.36 1872.66,1369.45 1874.83,1369.54 1876.99,1369.63 1879.15,1369.71 1881.31,1369.8 1883.48,1369.89 1885.64,1369.97 1887.8,1370.06 1889.96,1370.14 1892.13,1370.23 1894.29,1370.31 1896.45,1370.39 1898.61,1370.48 1900.78,1370.56 1902.94,1370.64 1905.1,1370.72 1907.26,1370.8 1909.43,1370.88 1911.59,1370.96 1913.75,1371.04 1915.91,1371.12 1918.08,1371.2 1920.24,1371.28 1922.4,1371.35 1924.57,1371.43 1926.73,1371.51 1928.89,1371.58 1931.05,1371.66 1933.22,1371.73 1935.38,1371.81 1937.54,1371.88 1939.7,1371.96 1941.87,1372.03 1944.03,1372.1 1946.19,1372.17 1948.35,1372.25 1950.52,1372.32 1952.68,1372.39 1954.84,1372.46 1957,1372.53 1959.17,1372.6 1961.33,1372.67 1963.49,1372.74 1965.65,1372.81 1967.82,1372.88 1969.98,1372.94 1972.14,1373.01 1974.3,1373.08 1976.47,1373.14 1978.63,1373.21 1980.79,1373.28 1982.95,1373.34 1985.12,1373.41 1987.28,1373.47 1989.44,1373.54 1991.61,1373.6 1993.77,1373.66 1995.93,1373.73 1998.09,1373.79 2000.26,1373.85 2002.42,1373.91 2004.58,1373.98 2006.74,1374.04 2008.91,1374.1 2011.07,1374.16 2013.23,1374.22 2015.39,1374.28 2017.56,1374.34 2019.72,1374.4 2021.88,1374.46 2024.04,1374.51 2026.21,1374.57 2028.37,1374.63 2030.53,1374.69 2032.69,1374.74 2034.86,1374.8 2037.02,1374.86 2039.18,1374.91 2041.34,1374.97 2043.51,1375.02 2045.67,1375.08 2047.83,1375.13 2049.99,1375.19 2052.16,1375.24 2054.32,1375.29 2056.48,1375.35 2058.65,1375.4 2060.81,1375.45 2062.97,1375.51 2065.13,1375.56 2067.3,1375.61 2069.46,1375.66 2071.62,1375.71 2073.78,1375.76 2075.95,1375.81 2078.11,1375.86 2080.27,1375.91 2082.43,1375.96 2084.6,1376.01 2086.76,1376.06 2088.92,1376.11 2091.08,1376.16 2093.25,1376.21 2095.41,1376.25 2097.57,1376.3 2099.73,1376.35 2101.9,1376.4 2104.06,1376.44 2106.22,1376.49 2108.38,1376.54 2110.55,1376.58 2112.71,1376.63 2114.87,1376.67 2117.03,1376.72 2119.2,1376.76 2121.36,1376.81 2123.52,1376.85 2125.69,1376.9 2127.85,1376.94 2130.01,1376.98 2132.17,1377.03 2134.34,1377.07 2136.5,1377.11 2138.66,1377.16 2140.82,1377.2 2142.99,1377.24 2145.15,1377.28 2147.31,1377.32 2149.47,1377.36 2151.64,1377.41 2153.8,1377.45 2155.96,1377.49 2158.12,1377.53 2160.29,1377.57 2162.45,1377.61 2164.61,1377.65 2166.77,1377.69 2168.94,1377.73 2171.1,1377.76 2173.26,1377.8 2175.42,1377.84 2177.59,1377.88 2179.75,1377.92 2181.91,1377.96 2184.07,1377.99 2186.24,1378.03 2188.4,1378.07 2190.56,1378.1 2192.73,1378.14 2194.89,1378.18 2197.05,1378.21 2199.21,1378.25 2201.38,1378.29 2203.54,1378.32 2205.7,1378.36 2207.86,1378.39 2210.03,1378.43 2212.19,1378.46 2214.35,1378.5 2216.51,1378.53 2218.68,1378.57 2220.84,1378.6 2223,1378.63 2225.16,1378.67 2227.33,1378.7 2229.49,1378.73 2231.65,1378.77 2233.81,1378.8 2235.98,1378.83 2238.14,1378.86 2240.3,1378.9 2242.46,1378.93 2244.63,1378.96 2246.79,1378.99 2248.95,1379.02 2251.11,1379.05 2253.28,1379.08 2255.44,1379.12 2257.6,1379.15 2259.76,1379.18 2261.93,1379.21 2264.09,1379.24 2266.25,1379.27 2268.42,1379.3 2270.58,1379.33 2272.74,1379.36 2274.9,1379.39 2277.07,1379.41 2279.23,1379.44 2281.39,1379.47 2283.55,1379.5 2285.72,1379.53 2287.88,1379.56 2290.04,1379.59 2292.2,1379.61 2294.37,1379.64 2296.53,1379.67 2298.69,1379.7 2300.85,1379.72 2303.02,1379.75 2305.18,1379.78 2307.34,1379.8 2309.5,1379.83 2311.67,1379.86 2313.83,1379.88 2315.99,1379.91 2318.15,1379.93 2320.32,1379.96 2322.48,1379.99 2324.64,1380.01 2326.8,1380.04 2328.97,1380.06 2331.13,1380.09 2333.29,1380.11 2335.46,1380.14 2337.62,1380.16 2339.78,1380.19 2341.94,1380.21 2344.11,1380.23 2346.27,1380.26 2348.43,1380.28 2350.59,1380.31 2352.76,1380.33 "/>
<path clip-path="url(#clip660)" d="M1805.3 248.629 L2280.74 248.629 L2280.74 93.1086 L1805.3 93.1086  Z" fill="#ffffff" fill-rule="evenodd" fill-opacity="1"/>
<polyline clip-path="url(#clip660)" style="stroke:#000000; stroke-linecap:round; stroke-linejoin:round; stroke-width:4; stroke-opacity:1; fill:none" points="1805.3,248.629 2280.74,248.629 2280.74,93.1086 1805.3,93.1086 1805.3,248.629 "/>
<polyline clip-path="url(#clip660)" style="stroke:#009af9; stroke-linecap:round; stroke-linejoin:round; stroke-width:4; stroke-opacity:1; fill:none" points="1829.31,144.949 1973.34,144.949 "/>
<path clip-path="url(#clip660)" d="M1997.34 136.303 L2001.85 136.303 L2009.96 158.062 L2018.06 136.303 L2022.57 136.303 L2012.85 162.229 L2007.06 162.229 L1997.34 136.303 Z" fill="#000000" fill-rule="nonzero" fill-opacity="1" /><path clip-path="url(#clip660)" d="M2029.86 158.293 L2037.5 158.293 L2037.5 131.928 L2029.19 133.595 L2029.19 129.335 L2037.46 127.669 L2042.13 127.669 L2042.13 158.293 L2049.77 158.293 L2049.77 162.229 L2029.86 162.229 L2029.86 158.293 Z" fill="#000000" fill-rule="nonzero" fill-opacity="1" /><path clip-path="url(#clip660)" d="M2067.87 145.585 L2067.87 152.807 L2076 152.807 L2076 155.006 L2067.87 155.006 L2067.87 162.229 L2065.44 162.229 L2065.44 155.006 L2057.32 155.006 L2057.32 152.807 L2065.44 152.807 L2065.44 145.585 L2067.87 145.585 Z" fill="#000000" fill-rule="nonzero" fill-opacity="1" /><path clip-path="url(#clip660)" d="M2100.16 137.067 L2100.16 141.094 Q2098.36 140.169 2096.41 139.706 Q2094.47 139.243 2092.39 139.243 Q2089.22 139.243 2087.62 140.215 Q2086.04 141.187 2086.04 143.131 Q2086.04 144.613 2087.18 145.469 Q2088.31 146.303 2091.74 147.067 L2093.2 147.391 Q2097.73 148.363 2099.63 150.145 Q2101.55 151.905 2101.55 155.076 Q2101.55 158.687 2098.68 160.793 Q2095.84 162.9 2090.84 162.9 Q2088.75 162.9 2086.48 162.483 Q2084.24 162.09 2081.74 161.28 L2081.74 156.881 Q2084.1 158.108 2086.39 158.733 Q2088.68 159.335 2090.93 159.335 Q2093.94 159.335 2095.56 158.317 Q2097.18 157.275 2097.18 155.4 Q2097.18 153.664 2096 152.738 Q2094.84 151.812 2090.88 150.956 L2089.4 150.608 Q2085.44 149.775 2083.68 148.062 Q2081.92 146.326 2081.92 143.317 Q2081.92 139.659 2084.52 137.669 Q2087.11 135.678 2091.88 135.678 Q2094.24 135.678 2096.32 136.025 Q2098.4 136.372 2100.16 137.067 Z" fill="#000000" fill-rule="nonzero" fill-opacity="1" /><path clip-path="url(#clip660)" d="M2112.55 128.942 L2112.55 136.303 L2121.32 136.303 L2121.32 139.613 L2112.55 139.613 L2112.55 153.687 Q2112.55 156.858 2113.4 157.761 Q2114.28 158.664 2116.95 158.664 L2121.32 158.664 L2121.32 162.229 L2116.95 162.229 Q2112.02 162.229 2110.14 160.4 Q2108.27 158.548 2108.27 153.687 L2108.27 139.613 L2105.14 139.613 L2105.14 136.303 L2108.27 136.303 L2108.27 128.942 L2112.55 128.942 Z" fill="#000000" fill-rule="nonzero" fill-opacity="1" /><path clip-path="url(#clip660)" d="M2136.97 139.289 Q2133.54 139.289 2131.55 141.974 Q2129.56 144.636 2129.56 149.289 Q2129.56 153.942 2131.53 156.627 Q2133.52 159.289 2136.97 159.289 Q2140.37 159.289 2142.36 156.604 Q2144.35 153.918 2144.35 149.289 Q2144.35 144.682 2142.36 141.997 Q2140.37 139.289 2136.97 139.289 M2136.97 135.678 Q2142.53 135.678 2145.7 139.289 Q2148.87 142.9 2148.87 149.289 Q2148.87 155.655 2145.7 159.289 Q2142.53 162.9 2136.97 162.9 Q2131.39 162.9 2128.22 159.289 Q2125.07 155.655 2125.07 149.289 Q2125.07 142.9 2128.22 139.289 Q2131.39 135.678 2136.97 135.678 Z" fill="#000000" fill-rule="nonzero" fill-opacity="1" /><path clip-path="url(#clip660)" d="M2170.95 140.284 Q2170.23 139.868 2169.38 139.682 Q2168.54 139.474 2167.52 139.474 Q2163.91 139.474 2161.97 141.835 Q2160.05 144.173 2160.05 148.571 L2160.05 162.229 L2155.77 162.229 L2155.77 136.303 L2160.05 136.303 L2160.05 140.331 Q2161.39 137.969 2163.54 136.835 Q2165.7 135.678 2168.77 135.678 Q2169.21 135.678 2169.75 135.747 Q2170.28 135.794 2170.93 135.909 L2170.95 140.284 Z" fill="#000000" fill-rule="nonzero" fill-opacity="1" /><path clip-path="url(#clip660)" d="M2187.2 149.196 Q2182.04 149.196 2180.05 150.377 Q2178.06 151.557 2178.06 154.405 Q2178.06 156.673 2179.54 158.016 Q2181.04 159.335 2183.61 159.335 Q2187.15 159.335 2189.28 156.835 Q2191.44 154.312 2191.44 150.145 L2191.44 149.196 L2187.2 149.196 M2195.7 147.437 L2195.7 162.229 L2191.44 162.229 L2191.44 158.293 Q2189.98 160.655 2187.8 161.789 Q2185.63 162.9 2182.48 162.9 Q2178.5 162.9 2176.14 160.678 Q2173.8 158.432 2173.8 154.682 Q2173.8 150.307 2176.71 148.085 Q2179.65 145.863 2185.46 145.863 L2191.44 145.863 L2191.44 145.446 Q2191.44 142.507 2189.49 140.909 Q2187.57 139.289 2184.08 139.289 Q2181.85 139.289 2179.75 139.821 Q2177.64 140.354 2175.7 141.419 L2175.7 137.483 Q2178.03 136.581 2180.23 136.141 Q2182.43 135.678 2184.52 135.678 Q2190.14 135.678 2192.92 138.594 Q2195.7 141.511 2195.7 147.437 Z" fill="#000000" fill-rule="nonzero" fill-opacity="1" /><path clip-path="url(#clip660)" d="M2221.53 148.965 Q2221.53 144.335 2219.61 141.789 Q2217.71 139.243 2214.26 139.243 Q2210.83 139.243 2208.91 141.789 Q2207.02 144.335 2207.02 148.965 Q2207.02 153.571 2208.91 156.118 Q2210.83 158.664 2214.26 158.664 Q2217.71 158.664 2219.61 156.118 Q2221.53 153.571 2221.53 148.965 M2225.79 159.011 Q2225.79 165.631 2222.85 168.849 Q2219.91 172.09 2213.84 172.09 Q2211.6 172.09 2209.61 171.742 Q2207.62 171.418 2205.74 170.724 L2205.74 166.58 Q2207.62 167.599 2209.45 168.085 Q2211.27 168.571 2213.17 168.571 Q2217.36 168.571 2219.45 166.372 Q2221.53 164.196 2221.53 159.775 L2221.53 157.668 Q2220.21 159.96 2218.15 161.094 Q2216.09 162.229 2213.22 162.229 Q2208.45 162.229 2205.53 158.594 Q2202.62 154.96 2202.62 148.965 Q2202.62 142.946 2205.53 139.312 Q2208.45 135.678 2213.22 135.678 Q2216.09 135.678 2218.15 136.812 Q2220.21 137.946 2221.53 140.238 L2221.53 136.303 L2225.79 136.303 L2225.79 159.011 Z" fill="#000000" fill-rule="nonzero" fill-opacity="1" /><path clip-path="url(#clip660)" d="M2256.74 148.201 L2256.74 150.284 L2237.15 150.284 Q2237.43 154.682 2239.79 156.997 Q2242.18 159.289 2246.41 159.289 Q2248.87 159.289 2251.16 158.687 Q2253.47 158.085 2255.74 156.881 L2255.74 160.909 Q2253.45 161.881 2251.04 162.391 Q2248.64 162.9 2246.16 162.9 Q2239.96 162.9 2236.32 159.289 Q2232.71 155.678 2232.71 149.52 Q2232.71 143.155 2236.14 139.428 Q2239.58 135.678 2245.42 135.678 Q2250.65 135.678 2253.68 139.057 Q2256.74 142.414 2256.74 148.201 M2252.48 146.951 Q2252.43 143.456 2250.51 141.372 Q2248.61 139.289 2245.46 139.289 Q2241.9 139.289 2239.75 141.303 Q2237.62 143.317 2237.29 146.974 L2252.48 146.951 Z" fill="#000000" fill-rule="nonzero" fill-opacity="1" /><polyline clip-path="url(#clip660)" style="stroke:#e26f46; stroke-linecap:round; stroke-linejoin:round; stroke-width:4; stroke-opacity:1; fill:none" points="1829.31,196.789 1973.34,196.789 "/>
<path clip-path="url(#clip660)" d="M1997.34 188.143 L2001.85 188.143 L2009.96 209.902 L2018.06 188.143 L2022.57 188.143 L2012.85 214.069 L2007.06 214.069 L1997.34 188.143 Z" fill="#000000" fill-rule="nonzero" fill-opacity="1" /><path clip-path="url(#clip660)" d="M2029.1 179.509 L2047.46 179.509 L2047.46 183.444 L2033.38 183.444 L2033.38 191.916 Q2034.4 191.569 2035.42 191.407 Q2036.44 191.222 2037.46 191.222 Q2043.24 191.222 2046.62 194.393 Q2050 197.564 2050 202.981 Q2050 208.559 2046.53 211.661 Q2043.06 214.74 2036.74 214.74 Q2034.56 214.74 2032.29 214.37 Q2030.05 213.999 2027.64 213.258 L2027.64 208.559 Q2029.72 209.694 2031.95 210.249 Q2034.17 210.805 2036.65 210.805 Q2040.65 210.805 2042.99 208.698 Q2045.33 206.592 2045.33 202.981 Q2045.33 199.37 2042.99 197.263 Q2040.65 195.157 2036.65 195.157 Q2034.77 195.157 2032.9 195.573 Q2031.04 195.99 2029.1 196.87 L2029.1 179.509 Z" fill="#000000" fill-rule="nonzero" fill-opacity="1" /><path clip-path="url(#clip660)" d="M2067.87 197.425 L2067.87 204.647 L2076 204.647 L2076 206.846 L2067.87 206.846 L2067.87 214.069 L2065.44 214.069 L2065.44 206.846 L2057.32 206.846 L2057.32 204.647 L2065.44 204.647 L2065.44 197.425 L2067.87 197.425 Z" fill="#000000" fill-rule="nonzero" fill-opacity="1" /><path clip-path="url(#clip660)" d="M2100.16 188.907 L2100.16 192.934 Q2098.36 192.009 2096.41 191.546 Q2094.47 191.083 2092.39 191.083 Q2089.22 191.083 2087.62 192.055 Q2086.04 193.027 2086.04 194.971 Q2086.04 196.453 2087.18 197.309 Q2088.31 198.143 2091.74 198.907 L2093.2 199.231 Q2097.73 200.203 2099.63 201.985 Q2101.55 203.745 2101.55 206.916 Q2101.55 210.527 2098.68 212.633 Q2095.84 214.74 2090.84 214.74 Q2088.75 214.74 2086.48 214.323 Q2084.24 213.93 2081.74 213.12 L2081.74 208.721 Q2084.1 209.948 2086.39 210.573 Q2088.68 211.175 2090.93 211.175 Q2093.94 211.175 2095.56 210.157 Q2097.18 209.115 2097.18 207.24 Q2097.18 205.504 2096 204.578 Q2094.84 203.652 2090.88 202.796 L2089.4 202.448 Q2085.44 201.615 2083.68 199.902 Q2081.92 198.166 2081.92 195.157 Q2081.92 191.499 2084.52 189.509 Q2087.11 187.518 2091.88 187.518 Q2094.24 187.518 2096.32 187.865 Q2098.4 188.212 2100.16 188.907 Z" fill="#000000" fill-rule="nonzero" fill-opacity="1" /><path clip-path="url(#clip660)" d="M2112.55 180.782 L2112.55 188.143 L2121.32 188.143 L2121.32 191.453 L2112.55 191.453 L2112.55 205.527 Q2112.55 208.698 2113.4 209.601 Q2114.28 210.504 2116.95 210.504 L2121.32 210.504 L2121.32 214.069 L2116.95 214.069 Q2112.02 214.069 2110.14 212.24 Q2108.27 210.388 2108.27 205.527 L2108.27 191.453 L2105.14 191.453 L2105.14 188.143 L2108.27 188.143 L2108.27 180.782 L2112.55 180.782 Z" fill="#000000" fill-rule="nonzero" fill-opacity="1" /><path clip-path="url(#clip660)" d="M2136.97 191.129 Q2133.54 191.129 2131.55 193.814 Q2129.56 196.476 2129.56 201.129 Q2129.56 205.782 2131.53 208.467 Q2133.52 211.129 2136.97 211.129 Q2140.37 211.129 2142.36 208.444 Q2144.35 205.758 2144.35 201.129 Q2144.35 196.522 2142.36 193.837 Q2140.37 191.129 2136.97 191.129 M2136.97 187.518 Q2142.53 187.518 2145.7 191.129 Q2148.87 194.74 2148.87 201.129 Q2148.87 207.495 2145.7 211.129 Q2142.53 214.74 2136.97 214.74 Q2131.39 214.74 2128.22 211.129 Q2125.07 207.495 2125.07 201.129 Q2125.07 194.74 2128.22 191.129 Q2131.39 187.518 2136.97 187.518 Z" fill="#000000" fill-rule="nonzero" fill-opacity="1" /><path clip-path="url(#clip660)" d="M2170.95 192.124 Q2170.23 191.708 2169.38 191.522 Q2168.54 191.314 2167.52 191.314 Q2163.91 191.314 2161.97 193.675 Q2160.05 196.013 2160.05 200.411 L2160.05 214.069 L2155.77 214.069 L2155.77 188.143 L2160.05 188.143 L2160.05 192.171 Q2161.39 189.809 2163.54 188.675 Q2165.7 187.518 2168.77 187.518 Q2169.21 187.518 2169.75 187.587 Q2170.28 187.634 2170.93 187.749 L2170.95 192.124 Z" fill="#000000" fill-rule="nonzero" fill-opacity="1" /><path clip-path="url(#clip660)" d="M2187.2 201.036 Q2182.04 201.036 2180.05 202.217 Q2178.06 203.397 2178.06 206.245 Q2178.06 208.513 2179.54 209.856 Q2181.04 211.175 2183.61 211.175 Q2187.15 211.175 2189.28 208.675 Q2191.44 206.152 2191.44 201.985 L2191.44 201.036 L2187.2 201.036 M2195.7 199.277 L2195.7 214.069 L2191.44 214.069 L2191.44 210.133 Q2189.98 212.495 2187.8 213.629 Q2185.63 214.74 2182.48 214.74 Q2178.5 214.74 2176.14 212.518 Q2173.8 210.272 2173.8 206.522 Q2173.8 202.147 2176.71 199.925 Q2179.65 197.703 2185.46 197.703 L2191.44 197.703 L2191.44 197.286 Q2191.44 194.347 2189.49 192.749 Q2187.57 191.129 2184.08 191.129 Q2181.85 191.129 2179.75 191.661 Q2177.64 192.194 2175.7 193.259 L2175.7 189.323 Q2178.03 188.421 2180.23 187.981 Q2182.43 187.518 2184.52 187.518 Q2190.14 187.518 2192.92 190.434 Q2195.7 193.351 2195.7 199.277 Z" fill="#000000" fill-rule="nonzero" fill-opacity="1" /><path clip-path="url(#clip660)" d="M2221.53 200.805 Q2221.53 196.175 2219.61 193.629 Q2217.71 191.083 2214.26 191.083 Q2210.83 191.083 2208.91 193.629 Q2207.02 196.175 2207.02 200.805 Q2207.02 205.411 2208.91 207.958 Q2210.83 210.504 2214.26 210.504 Q2217.71 210.504 2219.61 207.958 Q2221.53 205.411 2221.53 200.805 M2225.79 210.851 Q2225.79 217.471 2222.85 220.689 Q2219.91 223.93 2213.84 223.93 Q2211.6 223.93 2209.61 223.582 Q2207.62 223.258 2205.74 222.564 L2205.74 218.42 Q2207.62 219.439 2209.45 219.925 Q2211.27 220.411 2213.17 220.411 Q2217.36 220.411 2219.45 218.212 Q2221.53 216.036 2221.53 211.615 L2221.53 209.508 Q2220.21 211.8 2218.15 212.934 Q2216.09 214.069 2213.22 214.069 Q2208.45 214.069 2205.53 210.434 Q2202.62 206.8 2202.62 200.805 Q2202.62 194.786 2205.53 191.152 Q2208.45 187.518 2213.22 187.518 Q2216.09 187.518 2218.15 188.652 Q2220.21 189.786 2221.53 192.078 L2221.53 188.143 L2225.79 188.143 L2225.79 210.851 Z" fill="#000000" fill-rule="nonzero" fill-opacity="1" /><path clip-path="url(#clip660)" d="M2256.74 200.041 L2256.74 202.124 L2237.15 202.124 Q2237.43 206.522 2239.79 208.837 Q2242.18 211.129 2246.41 211.129 Q2248.87 211.129 2251.16 210.527 Q2253.47 209.925 2255.74 208.721 L2255.74 212.749 Q2253.45 213.721 2251.04 214.231 Q2248.64 214.74 2246.16 214.74 Q2239.96 214.74 2236.32 211.129 Q2232.71 207.518 2232.71 201.36 Q2232.71 194.995 2236.14 191.268 Q2239.58 187.518 2245.42 187.518 Q2250.65 187.518 2253.68 190.897 Q2256.74 194.254 2256.74 200.041 M2252.48 198.791 Q2252.43 195.296 2250.51 193.212 Q2248.61 191.129 2245.46 191.129 Q2241.9 191.129 2239.75 193.143 Q2237.62 195.157 2237.29 198.814 L2252.48 198.791 Z" fill="#000000" fill-rule="nonzero" fill-opacity="1" /></svg>
