<?xml version="1.0" encoding="utf-8"?>
<svg xmlns="http://www.w3.org/2000/svg" xmlns:xlink="http://www.w3.org/1999/xlink" width="600" height="400" viewBox="0 0 2400 1600">
<defs>
  <clipPath id="clip640">
    <rect x="0" y="0" width="2400" height="1600"/>
  </clipPath>
</defs>
<path clip-path="url(#clip640)" d="M0 1600 L2400 1600 L2400 0 L0 0  Z" fill="#ffffff" fill-rule="evenodd" fill-opacity="1"/>
<defs>
  <clipPath id="clip641">
    <rect x="480" y="0" width="1681" height="1600"/>
  </clipPath>
</defs>
<path clip-path="url(#clip640)" d="M193.936 1423.18 L2352.76 1423.18 L2352.76 47.2441 L193.936 47.2441  Z" fill="#ffffff" fill-rule="evenodd" fill-opacity="1"/>
<defs>
  <clipPath id="clip642">
    <rect x="193" y="47" width="2160" height="1377"/>
  </clipPath>
</defs>
<polyline clip-path="url(#clip642)" style="stroke:#000000; stroke-linecap:round; stroke-linejoin:round; stroke-width:2; stroke-opacity:0.1; fill:none" points="193.936,1423.18 193.936,47.2441 "/>
<polyline clip-path="url(#clip642)" style="stroke:#000000; stroke-linecap:round; stroke-linejoin:round; stroke-width:2; stroke-opacity:0.1; fill:none" points="733.641,1423.18 733.641,47.2441 "/>
<polyline clip-path="url(#clip642)" style="stroke:#000000; stroke-linecap:round; stroke-linejoin:round; stroke-width:2; stroke-opacity:0.1; fill:none" points="1273.35,1423.18 1273.35,47.2441 "/>
<polyline clip-path="url(#clip642)" style="stroke:#000000; stroke-linecap:round; stroke-linejoin:round; stroke-width:2; stroke-opacity:0.1; fill:none" points="1813.05,1423.18 1813.05,47.2441 "/>
<polyline clip-path="url(#clip642)" style="stroke:#000000; stroke-linecap:round; stroke-linejoin:round; stroke-width:2; stroke-opacity:0.1; fill:none" points="2352.76,1423.18 2352.76,47.2441 "/>
<polyline clip-path="url(#clip642)" style="stroke:#000000; stroke-linecap:round; stroke-linejoin:round; stroke-width:2; stroke-opacity:0.1; fill:none" points="193.936,1160.03 2352.76,1160.03 "/>
<polyline clip-path="url(#clip642)" style="stroke:#000000; stroke-linecap:round; stroke-linejoin:round; stroke-width:2; stroke-opacity:0.1; fill:none" points="193.936,851.634 2352.76,851.634 "/>
<polyline clip-path="url(#clip642)" style="stroke:#000000; stroke-linecap:round; stroke-linejoin:round; stroke-width:2; stroke-opacity:0.1; fill:none" points="193.936,543.239 2352.76,543.239 "/>
<polyline clip-path="url(#clip642)" style="stroke:#000000; stroke-linecap:round; stroke-linejoin:round; stroke-width:2; stroke-opacity:0.1; fill:none" points="193.936,234.844 2352.76,234.844 "/>
<polyline clip-path="url(#clip640)" style="stroke:#000000; stroke-linecap:round; stroke-linejoin:round; stroke-width:4; stroke-opacity:1; fill:none" points="193.936,1423.18 2352.76,1423.18 "/>
<polyline clip-path="url(#clip640)" style="stroke:#000000; stroke-linecap:round; stroke-linejoin:round; stroke-width:4; stroke-opacity:1; fill:none" points="193.936,1423.18 193.936,1404.28 "/>
<polyline clip-path="url(#clip640)" style="stroke:#000000; stroke-linecap:round; stroke-linejoin:round; stroke-width:4; stroke-opacity:1; fill:none" points="733.641,1423.18 733.641,1404.28 "/>
<polyline clip-path="url(#clip640)" style="stroke:#000000; stroke-linecap:round; stroke-linejoin:round; stroke-width:4; stroke-opacity:1; fill:none" points="1273.35,1423.18 1273.35,1404.28 "/>
<polyline clip-path="url(#clip640)" style="stroke:#000000; stroke-linecap:round; stroke-linejoin:round; stroke-width:4; stroke-opacity:1; fill:none" points="1813.05,1423.18 1813.05,1404.28 "/>
<polyline clip-path="url(#clip640)" style="stroke:#000000; stroke-linecap:round; stroke-linejoin:round; stroke-width:4; stroke-opacity:1; fill:none" points="2352.76,1423.18 2352.76,1404.28 "/>
<path clip-path="url(#clip640)" d="M171.32 1454.1 Q167.709 1454.1 165.881 1457.66 Q164.075 1461.2 164.075 1468.33 Q164.075 1475.44 165.881 1479.01 Q167.709 1482.55 171.32 1482.55 Q174.955 1482.55 176.76 1479.01 Q178.589 1475.44 178.589 1468.33 Q178.589 1461.2 176.76 1457.66 Q174.955 1454.1 171.32 1454.1 M171.32 1450.39 Q177.131 1450.39 180.186 1455 Q183.265 1459.58 183.265 1468.33 Q183.265 1477.06 180.186 1481.67 Q177.131 1486.25 171.32 1486.25 Q165.51 1486.25 162.432 1481.67 Q159.376 1477.06 159.376 1468.33 Q159.376 1459.58 162.432 1455 Q165.51 1450.39 171.32 1450.39 Z" fill="#000000" fill-rule="nonzero" fill-opacity="1" /><path clip-path="url(#clip640)" d="M191.482 1479.7 L196.367 1479.7 L196.367 1485.58 L191.482 1485.58 L191.482 1479.7 Z" fill="#000000" fill-rule="nonzero" fill-opacity="1" /><path clip-path="url(#clip640)" d="M216.552 1454.1 Q212.941 1454.1 211.112 1457.66 Q209.306 1461.2 209.306 1468.33 Q209.306 1475.44 211.112 1479.01 Q212.941 1482.55 216.552 1482.55 Q220.186 1482.55 221.991 1479.01 Q223.82 1475.44 223.82 1468.33 Q223.82 1461.2 221.991 1457.66 Q220.186 1454.1 216.552 1454.1 M216.552 1450.39 Q222.362 1450.39 225.417 1455 Q228.496 1459.58 228.496 1468.33 Q228.496 1477.06 225.417 1481.67 Q222.362 1486.25 216.552 1486.25 Q210.741 1486.25 207.663 1481.67 Q204.607 1477.06 204.607 1468.33 Q204.607 1459.58 207.663 1455 Q210.741 1450.39 216.552 1450.39 Z" fill="#000000" fill-rule="nonzero" fill-opacity="1" /><path clip-path="url(#clip640)" d="M711.523 1454.1 Q707.912 1454.1 706.083 1457.66 Q704.278 1461.2 704.278 1468.33 Q704.278 1475.44 706.083 1479.01 Q707.912 1482.55 711.523 1482.55 Q715.157 1482.55 716.963 1479.01 Q718.792 1475.44 718.792 1468.33 Q718.792 1461.2 716.963 1457.66 Q715.157 1454.1 711.523 1454.1 M711.523 1450.39 Q717.333 1450.39 720.389 1455 Q723.467 1459.58 723.467 1468.33 Q723.467 1477.06 720.389 1481.67 Q717.333 1486.25 711.523 1486.25 Q705.713 1486.25 702.634 1481.67 Q699.579 1477.06 699.579 1468.33 Q699.579 1459.58 702.634 1455 Q705.713 1450.39 711.523 1450.39 Z" fill="#000000" fill-rule="nonzero" fill-opacity="1" /><path clip-path="url(#clip640)" d="M731.685 1479.7 L736.569 1479.7 L736.569 1485.58 L731.685 1485.58 L731.685 1479.7 Z" fill="#000000" fill-rule="nonzero" fill-opacity="1" /><path clip-path="url(#clip640)" d="M746.801 1451.02 L765.157 1451.02 L765.157 1454.96 L751.083 1454.96 L751.083 1463.43 Q752.102 1463.08 753.12 1462.92 Q754.139 1462.73 755.157 1462.73 Q760.944 1462.73 764.324 1465.9 Q767.703 1469.08 767.703 1474.49 Q767.703 1480.07 764.231 1483.17 Q760.759 1486.25 754.439 1486.25 Q752.264 1486.25 749.995 1485.88 Q747.75 1485.51 745.342 1484.77 L745.342 1480.07 Q747.426 1481.2 749.648 1481.76 Q751.87 1482.32 754.347 1482.32 Q758.351 1482.32 760.689 1480.21 Q763.027 1478.1 763.027 1474.49 Q763.027 1470.88 760.689 1468.77 Q758.351 1466.67 754.347 1466.67 Q752.472 1466.67 750.597 1467.08 Q748.745 1467.5 746.801 1468.38 L746.801 1451.02 Z" fill="#000000" fill-rule="nonzero" fill-opacity="1" /><path clip-path="url(#clip640)" d="M1240.5 1481.64 L1248.14 1481.64 L1248.14 1455.28 L1239.83 1456.95 L1239.83 1452.69 L1248.09 1451.02 L1252.77 1451.02 L1252.77 1481.64 L1260.41 1481.64 L1260.41 1485.58 L1240.5 1485.58 L1240.5 1481.64 Z" fill="#000000" fill-rule="nonzero" fill-opacity="1" /><path clip-path="url(#clip640)" d="M1269.85 1479.7 L1274.73 1479.7 L1274.73 1485.58 L1269.85 1485.58 L1269.85 1479.7 Z" fill="#000000" fill-rule="nonzero" fill-opacity="1" /><path clip-path="url(#clip640)" d="M1294.92 1454.1 Q1291.31 1454.1 1289.48 1457.66 Q1287.67 1461.2 1287.67 1468.33 Q1287.67 1475.44 1289.48 1479.01 Q1291.31 1482.55 1294.92 1482.55 Q1298.55 1482.55 1300.36 1479.01 Q1302.19 1475.44 1302.19 1468.33 Q1302.19 1461.2 1300.36 1457.66 Q1298.55 1454.1 1294.92 1454.1 M1294.92 1450.39 Q1300.73 1450.39 1303.79 1455 Q1306.86 1459.58 1306.86 1468.33 Q1306.86 1477.06 1303.79 1481.67 Q1300.73 1486.25 1294.92 1486.25 Q1289.11 1486.25 1286.03 1481.67 Q1282.98 1477.06 1282.98 1468.33 Q1282.98 1459.58 1286.03 1455 Q1289.11 1450.39 1294.92 1450.39 Z" fill="#000000" fill-rule="nonzero" fill-opacity="1" /><path clip-path="url(#clip640)" d="M1780.7 1481.64 L1788.34 1481.64 L1788.34 1455.28 L1780.03 1456.95 L1780.03 1452.69 L1788.29 1451.02 L1792.97 1451.02 L1792.97 1481.64 L1800.61 1481.64 L1800.61 1485.58 L1780.7 1485.58 L1780.7 1481.64 Z" fill="#000000" fill-rule="nonzero" fill-opacity="1" /><path clip-path="url(#clip640)" d="M1810.05 1479.7 L1814.94 1479.7 L1814.94 1485.58 L1810.05 1485.58 L1810.05 1479.7 Z" fill="#000000" fill-rule="nonzero" fill-opacity="1" /><path clip-path="url(#clip640)" d="M1825.17 1451.02 L1843.53 1451.02 L1843.53 1454.96 L1829.45 1454.96 L1829.45 1463.43 Q1830.47 1463.08 1831.49 1462.92 Q1832.51 1462.73 1833.53 1462.73 Q1839.31 1462.73 1842.69 1465.9 Q1846.07 1469.08 1846.07 1474.49 Q1846.07 1480.07 1842.6 1483.17 Q1839.13 1486.25 1832.81 1486.25 Q1830.63 1486.25 1828.36 1485.88 Q1826.12 1485.51 1823.71 1484.77 L1823.71 1480.07 Q1825.79 1481.2 1828.02 1481.76 Q1830.24 1482.32 1832.72 1482.32 Q1836.72 1482.32 1839.06 1480.21 Q1841.4 1478.1 1841.4 1474.49 Q1841.4 1470.88 1839.06 1468.77 Q1836.72 1466.67 1832.72 1466.67 Q1830.84 1466.67 1828.97 1467.08 Q1827.11 1467.5 1825.17 1468.38 L1825.17 1451.02 Z" fill="#000000" fill-rule="nonzero" fill-opacity="1" /><path clip-path="url(#clip640)" d="M2323.99 1481.64 L2340.31 1481.64 L2340.31 1485.58 L2318.37 1485.58 L2318.37 1481.64 Q2321.03 1478.89 2325.61 1474.26 Q2330.22 1469.61 2331.4 1468.27 Q2333.65 1465.74 2334.53 1464.01 Q2335.43 1462.25 2335.43 1460.56 Q2335.43 1457.8 2333.49 1456.07 Q2331.56 1454.33 2328.46 1454.33 Q2326.26 1454.33 2323.81 1455.09 Q2321.38 1455.86 2318.6 1457.41 L2318.6 1452.69 Q2321.43 1451.55 2323.88 1450.97 Q2326.33 1450.39 2328.37 1450.39 Q2333.74 1450.39 2336.93 1453.08 Q2340.13 1455.77 2340.13 1460.26 Q2340.13 1462.39 2339.32 1464.31 Q2338.53 1466.2 2336.42 1468.8 Q2335.85 1469.47 2332.74 1472.69 Q2329.64 1475.88 2323.99 1481.64 Z" fill="#000000" fill-rule="nonzero" fill-opacity="1" /><path clip-path="url(#clip640)" d="M2350.13 1479.7 L2355.01 1479.7 L2355.01 1485.58 L2350.13 1485.58 L2350.13 1479.7 Z" fill="#000000" fill-rule="nonzero" fill-opacity="1" /><path clip-path="url(#clip640)" d="M2375.2 1454.1 Q2371.59 1454.1 2369.76 1457.66 Q2367.95 1461.2 2367.95 1468.33 Q2367.95 1475.44 2369.76 1479.01 Q2371.59 1482.55 2375.2 1482.55 Q2378.83 1482.55 2380.64 1479.01 Q2382.47 1475.44 2382.47 1468.33 Q2382.47 1461.2 2380.64 1457.66 Q2378.83 1454.1 2375.2 1454.1 M2375.2 1450.39 Q2381.01 1450.39 2384.06 1455 Q2387.14 1459.58 2387.14 1468.33 Q2387.14 1477.06 2384.06 1481.67 Q2381.01 1486.25 2375.2 1486.25 Q2369.39 1486.25 2366.31 1481.67 Q2363.25 1477.06 2363.25 1468.33 Q2363.25 1459.58 2366.31 1455 Q2369.39 1450.39 2375.2 1450.39 Z" fill="#000000" fill-rule="nonzero" fill-opacity="1" /><path clip-path="url(#clip640)" d="M1272.41 1522.27 L1272.41 1532.4 L1284.47 1532.4 L1284.47 1536.95 L1272.41 1536.95 L1272.41 1556.3 Q1272.41 1560.66 1273.58 1561.9 Q1274.79 1563.14 1278.45 1563.14 L1284.47 1563.14 L1284.47 1568.04 L1278.45 1568.04 Q1271.67 1568.04 1269.1 1565.53 Q1266.52 1562.98 1266.52 1556.3 L1266.52 1536.95 L1262.22 1536.95 L1262.22 1532.4 L1266.52 1532.4 L1266.52 1522.27 L1272.41 1522.27 Z" fill="#000000" fill-rule="nonzero" fill-opacity="1" /><polyline clip-path="url(#clip640)" style="stroke:#000000; stroke-linecap:round; stroke-linejoin:round; stroke-width:4; stroke-opacity:1; fill:none" points="193.936,1423.18 193.936,47.2441 "/>
<polyline clip-path="url(#clip640)" style="stroke:#000000; stroke-linecap:round; stroke-linejoin:round; stroke-width:4; stroke-opacity:1; fill:none" points="193.936,1160.03 212.834,1160.03 "/>
<polyline clip-path="url(#clip640)" style="stroke:#000000; stroke-linecap:round; stroke-linejoin:round; stroke-width:4; stroke-opacity:1; fill:none" points="193.936,851.634 212.834,851.634 "/>
<polyline clip-path="url(#clip640)" style="stroke:#000000; stroke-linecap:round; stroke-linejoin:round; stroke-width:4; stroke-opacity:1; fill:none" points="193.936,543.239 212.834,543.239 "/>
<polyline clip-path="url(#clip640)" style="stroke:#000000; stroke-linecap:round; stroke-linejoin:round; stroke-width:4; stroke-opacity:1; fill:none" points="193.936,234.844 212.834,234.844 "/>
<path clip-path="url(#clip640)" d="M51.9875 1160.48 L81.6633 1160.48 L81.6633 1164.42 L51.9875 1164.42 L51.9875 1160.48 Z" fill="#000000" fill-rule="nonzero" fill-opacity="1" /><path clip-path="url(#clip640)" d="M92.566 1173.37 L100.205 1173.37 L100.205 1147.01 L91.8947 1148.68 L91.8947 1144.42 L100.159 1142.75 L104.834 1142.75 L104.834 1173.37 L112.473 1173.37 L112.473 1177.31 L92.566 1177.31 L92.566 1173.37 Z" fill="#000000" fill-rule="nonzero" fill-opacity="1" /><path clip-path="url(#clip640)" d="M121.918 1171.43 L126.802 1171.43 L126.802 1177.31 L121.918 1177.31 L121.918 1171.43 Z" fill="#000000" fill-rule="nonzero" fill-opacity="1" /><path clip-path="url(#clip640)" d="M137.033 1142.75 L155.39 1142.75 L155.39 1146.68 L141.316 1146.68 L141.316 1155.16 Q142.334 1154.81 143.353 1154.65 Q144.371 1154.46 145.39 1154.46 Q151.177 1154.46 154.556 1157.63 Q157.936 1160.8 157.936 1166.22 Q157.936 1171.8 154.464 1174.9 Q150.992 1177.98 144.672 1177.98 Q142.496 1177.98 140.228 1177.61 Q137.982 1177.24 135.575 1176.5 L135.575 1171.8 Q137.658 1172.93 139.881 1173.49 Q142.103 1174.05 144.58 1174.05 Q148.584 1174.05 150.922 1171.94 Q153.26 1169.83 153.26 1166.22 Q153.26 1162.61 150.922 1160.5 Q148.584 1158.4 144.58 1158.4 Q142.705 1158.4 140.83 1158.81 Q138.978 1159.23 137.033 1160.11 L137.033 1142.75 Z" fill="#000000" fill-rule="nonzero" fill-opacity="1" /><path clip-path="url(#clip640)" d="M50.9921 852.085 L80.6679 852.085 L80.6679 856.021 L50.9921 856.021 L50.9921 852.085 Z" fill="#000000" fill-rule="nonzero" fill-opacity="1" /><path clip-path="url(#clip640)" d="M91.5706 864.979 L99.2095 864.979 L99.2095 838.613 L90.8993 840.28 L90.8993 836.021 L99.1632 834.354 L103.839 834.354 L103.839 864.979 L111.478 864.979 L111.478 868.914 L91.5706 868.914 L91.5706 864.979 Z" fill="#000000" fill-rule="nonzero" fill-opacity="1" /><path clip-path="url(#clip640)" d="M120.922 863.034 L125.807 863.034 L125.807 868.914 L120.922 868.914 L120.922 863.034 Z" fill="#000000" fill-rule="nonzero" fill-opacity="1" /><path clip-path="url(#clip640)" d="M145.992 837.433 Q142.381 837.433 140.552 840.998 Q138.746 844.539 138.746 851.669 Q138.746 858.775 140.552 862.34 Q142.381 865.882 145.992 865.882 Q149.626 865.882 151.431 862.34 Q153.26 858.775 153.26 851.669 Q153.26 844.539 151.431 840.998 Q149.626 837.433 145.992 837.433 M145.992 833.729 Q151.802 833.729 154.857 838.335 Q157.936 842.919 157.936 851.669 Q157.936 860.396 154.857 865.002 Q151.802 869.585 145.992 869.585 Q140.181 869.585 137.103 865.002 Q134.047 860.396 134.047 851.669 Q134.047 842.919 137.103 838.335 Q140.181 833.729 145.992 833.729 Z" fill="#000000" fill-rule="nonzero" fill-opacity="1" /><path clip-path="url(#clip640)" d="M51.9875 543.69 L81.6633 543.69 L81.6633 547.625 L51.9875 547.625 L51.9875 543.69 Z" fill="#000000" fill-rule="nonzero" fill-opacity="1" /><path clip-path="url(#clip640)" d="M101.756 529.037 Q98.1447 529.037 96.316 532.602 Q94.5104 536.144 94.5104 543.273 Q94.5104 550.38 96.316 553.945 Q98.1447 557.486 101.756 557.486 Q105.39 557.486 107.196 553.945 Q109.024 550.38 109.024 543.273 Q109.024 536.144 107.196 532.602 Q105.39 529.037 101.756 529.037 M101.756 525.334 Q107.566 525.334 110.621 529.94 Q113.7 534.524 113.7 543.273 Q113.7 552 110.621 556.607 Q107.566 561.19 101.756 561.19 Q95.9456 561.19 92.8669 556.607 Q89.8114 552 89.8114 543.273 Q89.8114 534.524 92.8669 529.94 Q95.9456 525.334 101.756 525.334 Z" fill="#000000" fill-rule="nonzero" fill-opacity="1" /><path clip-path="url(#clip640)" d="M121.918 554.639 L126.802 554.639 L126.802 560.519 L121.918 560.519 L121.918 554.639 Z" fill="#000000" fill-rule="nonzero" fill-opacity="1" /><path clip-path="url(#clip640)" d="M137.033 525.959 L155.39 525.959 L155.39 529.894 L141.316 529.894 L141.316 538.366 Q142.334 538.019 143.353 537.857 Q144.371 537.672 145.39 537.672 Q151.177 537.672 154.556 540.843 Q157.936 544.014 157.936 549.431 Q157.936 555.01 154.464 558.111 Q150.992 561.19 144.672 561.19 Q142.496 561.19 140.228 560.82 Q137.982 560.449 135.575 559.709 L135.575 555.01 Q137.658 556.144 139.881 556.699 Q142.103 557.255 144.58 557.255 Q148.584 557.255 150.922 555.148 Q153.26 553.042 153.26 549.431 Q153.26 545.82 150.922 543.713 Q148.584 541.607 144.58 541.607 Q142.705 541.607 140.83 542.023 Q138.978 542.44 137.033 543.32 L137.033 525.959 Z" fill="#000000" fill-rule="nonzero" fill-opacity="1" /><path clip-path="url(#clip640)" d="M100.76 220.642 Q97.1493 220.642 95.3206 224.207 Q93.515 227.749 93.515 234.878 Q93.515 241.985 95.3206 245.549 Q97.1493 249.091 100.76 249.091 Q104.395 249.091 106.2 245.549 Q108.029 241.985 108.029 234.878 Q108.029 227.749 106.2 224.207 Q104.395 220.642 100.76 220.642 M100.76 216.939 Q106.571 216.939 109.626 221.545 Q112.705 226.128 112.705 234.878 Q112.705 243.605 109.626 248.211 Q106.571 252.795 100.76 252.795 Q94.9502 252.795 91.8715 248.211 Q88.816 243.605 88.816 234.878 Q88.816 226.128 91.8715 221.545 Q94.9502 216.939 100.76 216.939 Z" fill="#000000" fill-rule="nonzero" fill-opacity="1" /><path clip-path="url(#clip640)" d="M120.922 246.244 L125.807 246.244 L125.807 252.124 L120.922 252.124 L120.922 246.244 Z" fill="#000000" fill-rule="nonzero" fill-opacity="1" /><path clip-path="url(#clip640)" d="M145.992 220.642 Q142.381 220.642 140.552 224.207 Q138.746 227.749 138.746 234.878 Q138.746 241.985 140.552 245.549 Q142.381 249.091 145.992 249.091 Q149.626 249.091 151.431 245.549 Q153.26 241.985 153.26 234.878 Q153.26 227.749 151.431 224.207 Q149.626 220.642 145.992 220.642 M145.992 216.939 Q151.802 216.939 154.857 221.545 Q157.936 226.128 157.936 234.878 Q157.936 243.605 154.857 248.211 Q151.802 252.795 145.992 252.795 Q140.181 252.795 137.103 248.211 Q134.047 243.605 134.047 234.878 Q134.047 226.128 137.103 221.545 Q140.181 216.939 145.992 216.939 Z" fill="#000000" fill-rule="nonzero" fill-opacity="1" /><polyline clip-path="url(#clip642)" style="stroke:#009af9; stroke-linecap:round; stroke-linejoin:round; stroke-width:4; stroke-opacity:1; fill:none" points="193.936,1384.24 196.097,1375.37 198.258,1366.59 200.419,1357.9 202.58,1349.29 204.741,1340.77 206.902,1332.34 209.063,1323.99 211.224,1315.72 213.385,1307.54 215.546,1299.43 217.707,1291.41 219.868,1283.47 222.029,1275.6 224.19,1267.82 226.351,1260.11 228.512,1252.48 230.673,1244.92 232.834,1237.44 234.995,1230.04 237.156,1222.7 239.317,1215.45 241.478,1208.26 243.639,1201.14 245.8,1194.1 247.961,1187.13 250.122,1180.22 252.282,1173.39 254.443,1166.62 256.604,1159.92 258.765,1153.29 260.926,1146.72 263.087,1140.22 265.248,1133.78 267.409,1127.41 269.57,1121.1 271.731,1114.85 273.892,1108.67 276.053,1102.54 278.214,1096.48 280.375,1090.48 282.536,1084.54 284.697,1078.65 286.858,1072.83 289.019,1067.06 291.18,1061.36 293.341,1055.7 295.502,1050.11 297.663,1044.57 299.824,1039.08 301.985,1033.65 304.146,1028.28 306.307,1022.96 308.468,1017.69 310.629,1012.47 312.79,1007.31 314.951,1002.19 317.112,997.13 319.273,992.118 321.434,987.156 323.595,982.243 325.756,977.379 327.917,972.564 330.078,967.797 332.239,963.077 334.4,958.404 336.561,953.778 338.722,949.198 340.883,944.663 343.044,940.174 345.205,935.729 347.366,931.328 349.527,926.972 351.688,922.659 353.849,918.388 356.01,914.161 358.171,909.975 360.332,905.831 362.493,901.728 364.653,897.667 366.814,893.645 368.975,889.664 371.136,885.722 373.297,881.82 375.458,877.956 377.619,874.131 379.78,870.344 381.941,866.595 384.102,862.883 386.263,859.208 388.424,855.569 390.585,851.967 392.746,848.401 394.907,844.87 397.068,841.374 399.229,837.914 401.39,834.487 403.551,831.095 405.712,827.737 407.873,824.412 410.034,821.121 412.195,817.862 414.356,814.635 416.517,811.441 418.678,808.278 420.839,805.147 423,802.048 425.161,798.979 427.322,795.94 429.483,792.932 431.644,789.954 433.805,787.006 435.966,784.087 438.127,781.197 440.288,778.336 442.449,775.503 444.61,772.698 446.771,769.922 448.932,767.173 451.093,764.451 453.254,761.757 455.415,759.089 457.576,756.448 459.737,753.833 461.898,751.244 464.059,748.681 466.22,746.144 468.381,743.631 470.542,741.144 472.703,738.682 474.864,736.244 477.024,733.83 479.185,731.44 481.346,729.074 483.507,726.732 485.668,724.413 487.829,722.117 489.99,719.844 492.151,717.594 494.312,715.366 496.473,713.16 498.634,710.977 500.795,708.815 502.956,706.674 505.117,704.555 507.278,702.457 509.439,700.38 511.6,698.324 513.761,696.288 515.922,694.273 518.083,692.277 520.244,690.302 522.405,688.346 524.566,686.41 526.727,684.492 528.888,682.594 531.049,680.715 533.21,678.855 535.371,677.013 537.532,675.19 539.693,673.384 541.854,671.597 544.015,669.827 546.176,668.075 548.337,666.341 550.498,664.623 552.659,662.923 554.82,661.24 556.981,659.573 559.142,657.924 561.303,656.29 563.464,654.673 565.625,653.071 567.786,651.486 569.947,649.917 572.108,648.363 574.269,646.824 576.43,645.301 578.591,643.793 580.752,642.3 582.913,640.822 585.074,639.359 587.235,637.91 589.396,636.476 591.556,635.056 593.717,633.65 595.878,632.258 598.039,630.88 600.2,629.516 602.361,628.165 604.522,626.828 606.683,625.504 608.844,624.194 611.005,622.896 613.166,621.612 615.327,620.34 617.488,619.081 619.649,617.834 621.81,616.6 623.971,615.378 626.132,614.169 628.293,612.971 630.454,611.785 632.615,610.612 634.776,609.449 636.937,608.299 639.098,607.16 641.259,606.032 643.42,604.916 645.581,603.81 647.742,602.716 649.903,601.632 652.064,600.56 654.225,599.498 656.386,598.446 658.547,597.405 660.708,596.374 662.869,595.354 665.03,594.344 667.191,593.344 669.352,592.353 671.513,591.373 673.674,590.402 675.835,589.441 677.996,588.49 680.157,587.548 682.318,586.615 684.479,585.692 686.64,584.778 688.801,583.873 690.962,582.977 693.123,582.09 695.284,581.211 697.445,580.342 699.606,579.481 701.767,578.628 703.927,577.785 706.088,576.949 708.249,576.122 710.41,575.303 712.571,574.493 714.732,573.69 716.893,572.895 719.054,572.109 721.215,571.33 723.376,570.559 725.537,569.796 727.698,569.04 729.859,568.292 732.02,567.551 734.181,566.818 736.342,566.092 738.503,565.373 740.664,564.661 742.825,563.957 744.986,563.259 747.147,562.569 749.308,561.885 751.469,561.208 753.63,560.538 755.791,559.874 757.952,559.218 760.113,558.567 762.274,557.924 764.435,557.286 766.596,556.655 768.757,556.03 770.918,555.412 773.079,554.799 775.24,554.193 777.401,553.593 779.562,552.999 781.723,552.41 783.884,551.828 786.045,551.251 788.206,550.68 790.367,550.115 792.528,549.555 794.689,549.001 796.85,548.452 799.011,547.909 801.172,547.371 803.333,546.839 805.494,546.312 807.655,545.79 809.816,545.273 811.977,544.761 814.138,544.255 816.298,543.753 818.459,543.256 820.62,542.765 822.781,542.278 824.942,541.796 827.103,541.319 829.264,540.847 831.425,540.379 833.586,539.916 835.747,539.458 837.908,539.004 840.069,538.555 842.23,538.11 844.391,537.67 846.552,537.234 848.713,536.803 850.874,536.375 853.035,535.952 855.196,535.534 857.357,535.119 859.518,534.709 861.679,534.302 863.84,533.9 866.001,533.502 868.162,533.108 870.323,532.717 872.484,532.331 874.645,531.948 876.806,531.57 878.967,531.195 881.128,530.824 883.289,530.456 885.45,530.092 887.611,529.732 889.772,529.376 891.933,529.023 894.094,528.673 896.255,528.327 898.416,527.985 900.577,527.646 902.738,527.31 904.899,526.977 907.06,526.648 909.221,526.323 911.382,526 913.543,525.681 915.704,525.364 917.865,525.051 920.026,524.742 922.187,524.435 924.348,524.131 926.509,523.83 928.669,523.532 930.83,523.238 932.991,522.946 935.152,522.657 937.313,522.371 939.474,522.087 941.635,521.807 943.796,521.529 945.957,521.254 948.118,520.982 950.279,520.712 952.44,520.445 954.601,520.181 956.762,519.92 958.923,519.66 961.084,519.404 963.245,519.15 965.406,518.899 967.567,518.65 969.728,518.403 971.889,518.159 974.05,517.918 976.211,517.678 978.372,517.442 980.533,517.207 982.694,516.975 984.855,516.745 987.016,516.518 989.177,516.292 991.338,516.069 993.499,515.849 995.66,515.63 997.821,515.414 999.982,515.199 1002.14,514.987 1004.3,514.777 1006.46,514.57 1008.63,514.364 1010.79,514.16 1012.95,513.958 1015.11,513.759 1017.27,513.561 1019.43,513.365 1021.59,513.172 1023.75,512.98 1025.91,512.79 1028.07,512.602 1030.24,512.416 1032.4,512.232 1034.56,512.049 1036.72,511.869 1038.88,511.69 1041.04,511.513 1043.2,511.338 1045.36,511.165 1047.52,510.993 1049.68,510.823 1051.85,510.655 1054.01,510.488 1056.17,510.323 1058.33,510.16 1060.49,509.998 1062.65,509.838 1064.81,509.68 1066.97,509.523 1069.13,509.368 1071.29,509.214 1073.46,509.062 1075.62,508.911 1077.78,508.762 1079.94,508.614 1082.1,508.468 1084.26,508.323 1086.42,508.18 1088.58,508.038 1090.74,507.898 1092.9,507.759 1095.07,507.621 1097.23,507.485 1099.39,507.35 1101.55,507.216 1103.71,507.084 1105.87,506.953 1108.03,506.823 1110.19,506.694 1112.35,506.567 1114.51,506.441 1116.67,506.317 1118.84,506.193 1121,506.071 1123.16,505.95 1125.32,505.83 1127.48,505.711 1129.64,505.594 1131.8,505.477 1133.96,505.362 1136.12,505.248 1138.28,505.135 1140.45,505.023 1142.61,504.912 1144.77,504.803 1146.93,504.694 1149.09,504.587 1151.25,504.48 1153.41,504.375 1155.57,504.27 1157.73,504.167 1159.89,504.065 1162.06,503.964 1164.22,503.863 1166.38,503.764 1168.54,503.666 1170.7,503.569 1172.86,503.472 1175.02,503.377 1177.18,503.283 1179.34,503.189 1181.5,503.097 1183.67,503.005 1185.83,502.915 1187.99,502.825 1190.15,502.736 1192.31,502.648 1194.47,502.561 1196.63,502.475 1198.79,502.39 1200.95,502.305 1203.11,502.222 1205.28,502.139 1207.44,502.057 1209.6,501.976 1211.76,501.896 1213.92,501.816 1216.08,501.738 1218.24,501.66 1220.4,501.583 1222.56,501.507 1224.72,501.431 1226.88,501.356 1229.05,501.282 1231.21,501.209 1233.37,501.136 1235.53,501.065 1237.69,500.994 1239.85,500.923 1242.01,500.854 1244.17,500.785 1246.33,500.716 1248.49,500.649 1250.66,500.582 1252.82,500.516 1254.98,500.45 1257.14,500.385 1259.3,500.321 1261.46,500.257 1263.62,500.194 1265.78,500.132 1267.94,500.07 1270.1,500.009 1272.27,499.949 1274.43,499.889 1276.59,499.83 1278.75,499.771 1280.91,499.713 1283.07,499.655 1285.23,499.598 1287.39,499.542 1289.55,499.486 1291.71,499.431 1293.88,499.376 1296.04,499.322 1298.2,499.268 1300.36,499.215 1302.52,499.162 1304.68,499.11 1306.84,499.059 1309,499.007 1311.16,498.957 1313.32,498.907 1315.49,498.857 1317.65,498.808 1319.81,498.759 1321.97,498.711 1324.13,498.663 1326.29,498.616 1328.45,498.569 1330.61,498.523 1332.77,498.477 1334.93,498.431 1337.09,498.386 1339.26,498.342 1341.42,498.298 1343.58,498.254 1345.74,498.21 1347.9,498.168 1350.06,498.125 1352.22,498.083 1354.38,498.042 1356.54,498 1358.7,497.96 1360.87,497.919 1363.03,497.879 1365.19,497.84 1367.35,497.8 1369.51,497.762 1371.67,497.723 1373.83,497.685 1375.99,497.648 1378.15,497.61 1380.31,497.573 1382.48,497.537 1384.64,497.501 1386.8,497.465 1388.96,497.429 1391.12,497.394 1393.28,497.36 1395.44,497.325 1397.6,497.291 1399.76,497.258 1401.92,497.224 1404.09,497.191 1406.25,497.159 1408.41,497.126 1410.57,497.094 1412.73,497.063 1414.89,497.031 1417.05,497 1419.21,496.969 1421.37,496.939 1423.53,496.909 1425.7,496.879 1427.86,496.85 1430.02,496.82 1432.18,496.792 1434.34,496.763 1436.5,496.735 1438.66,496.707 1440.82,496.679 1442.98,496.651 1445.14,496.624 1447.3,496.597 1449.47,496.571 1451.63,496.544 1453.79,496.518 1455.95,496.493 1458.11,496.467 1460.27,496.442 1462.43,496.417 1464.59,496.392 1466.75,496.367 1468.91,496.343 1471.08,496.319 1473.24,496.295 1475.4,496.272 1477.56,496.248 1479.72,496.225 1481.88,496.203 1484.04,496.18 1486.2,496.158 1488.36,496.135 1490.52,496.113 1492.69,496.092 1494.85,496.07 1497.01,496.049 1499.17,496.028 1501.33,496.007 1503.49,495.986 1505.65,495.966 1507.81,495.946 1509.97,495.926 1512.13,495.906 1514.3,495.886 1516.46,495.867 1518.62,495.847 1520.78,495.828 1522.94,495.809 1525.1,495.791 1527.26,495.772 1529.42,495.754 1531.58,495.736 1533.74,495.717 1535.91,495.7 1538.07,495.682 1540.23,495.664 1542.39,495.647 1544.55,495.63 1546.71,495.613 1548.87,495.596 1551.03,495.579 1553.19,495.563 1555.35,495.546 1557.51,495.53 1559.68,495.514 1561.84,495.498 1564,495.482 1566.16,495.467 1568.32,495.451 1570.48,495.436 1572.64,495.421 1574.8,495.406 1576.96,495.391 1579.12,495.376 1581.29,495.361 1583.45,495.347 1585.61,495.333 1587.77,495.318 1589.93,495.304 1592.09,495.291 1594.25,495.277 1596.41,495.263 1598.57,495.25 1600.73,495.236 1602.9,495.223 1605.06,495.21 1607.22,495.197 1609.38,495.184 1611.54,495.171 1613.7,495.159 1615.86,495.146 1618.02,495.134 1620.18,495.122 1622.34,495.11 1624.51,495.098 1626.67,495.086 1628.83,495.074 1630.99,495.063 1633.15,495.051 1635.31,495.04 1637.47,495.028 1639.63,495.017 1641.79,495.006 1643.95,494.995 1646.12,494.985 1648.28,494.974 1650.44,494.963 1652.6,494.953 1654.76,494.942 1656.92,494.932 1659.08,494.922 1661.24,494.912 1663.4,494.902 1665.56,494.892 1667.72,494.883 1669.89,494.873 1672.05,494.863 1674.21,494.854 1676.37,494.845 1678.53,494.835 1680.69,494.826 1682.85,494.817 1685.01,494.808 1687.17,494.799 1689.33,494.791 1691.5,494.782 1693.66,494.773 1695.82,494.765 1697.98,494.757 1700.14,494.748 1702.3,494.74 1704.46,494.732 1706.62,494.724 1708.78,494.716 1710.94,494.708 1713.11,494.7 1715.27,494.693 1717.43,494.685 1719.59,494.677 1721.75,494.67 1723.91,494.662 1726.07,494.655 1728.23,494.648 1730.39,494.641 1732.55,494.634 1734.72,494.627 1736.88,494.62 1739.04,494.613 1741.2,494.606 1743.36,494.599 1745.52,494.593 1747.68,494.586 1749.84,494.58 1752,494.573 1754.16,494.567 1756.33,494.56 1758.49,494.554 1760.65,494.548 1762.81,494.542 1764.97,494.536 1767.13,494.53 1769.29,494.524 1771.45,494.518 1773.61,494.512 1775.77,494.506 1777.93,494.5 1780.1,494.495 1782.26,494.489 1784.42,494.484 1786.58,494.478 1788.74,494.473 1790.9,494.467 1793.06,494.462 1795.22,494.456 1797.38,494.451 1799.54,494.446 1801.71,494.441 1803.87,494.436 1806.03,494.431 1808.19,494.426 1810.35,494.421 1812.51,494.416 1814.67,494.411 1816.83,494.406 1818.99,494.401 1821.15,494.396 1823.32,494.391 1825.48,494.387 1827.64,494.382 1829.8,494.378 1831.96,494.373 1834.12,494.368 1836.28,494.364 1838.44,494.359 1840.6,494.355 1842.76,494.351 1844.93,494.346 1847.09,494.342 1849.25,494.338 1851.41,494.333 1853.57,494.329 1855.73,494.325 1857.89,494.321 1860.05,494.317 1862.21,494.313 1864.37,494.309 1866.54,494.305 1868.7,494.301 1870.86,494.297 1873.02,494.293 1875.18,494.29 1877.34,494.286 1879.5,494.282 1881.66,494.278 1883.82,494.275 1885.98,494.271 1888.15,494.268 1890.31,494.264 1892.47,494.26 1894.63,494.257 1896.79,494.254 1898.95,494.25 1901.11,494.247 1903.27,494.243 1905.43,494.24 1907.59,494.237 1909.75,494.234 1911.92,494.23 1914.08,494.227 1916.24,494.224 1918.4,494.221 1920.56,494.218 1922.72,494.215 1924.88,494.212 1927.04,494.209 1929.2,494.206 1931.36,494.203 1933.53,494.2 1935.69,494.197 1937.85,494.194 1940.01,494.192 1942.17,494.189 1944.33,494.186 1946.49,494.183 1948.65,494.181 1950.81,494.178 1952.97,494.175 1955.14,494.173 1957.3,494.17 1959.46,494.168 1961.62,494.165 1963.78,494.163 1965.94,494.16 1968.1,494.158 1970.26,494.155 1972.42,494.153 1974.58,494.151 1976.75,494.148 1978.91,494.146 1981.07,494.144 1983.23,494.142 1985.39,494.139 1987.55,494.137 1989.71,494.135 1991.87,494.133 1994.03,494.131 1996.19,494.129 1998.36,494.127 2000.52,494.125 2002.68,494.123 2004.84,494.121 2007,494.119 2009.16,494.117 2011.32,494.115 2013.48,494.113 2015.64,494.111 2017.8,494.109 2019.96,494.107 2022.13,494.105 2024.29,494.104 2026.45,494.102 2028.61,494.1 2030.77,494.098 2032.93,494.097 2035.09,494.095 2037.25,494.093 2039.41,494.091 2041.57,494.09 2043.74,494.088 2045.9,494.087 2048.06,494.085 2050.22,494.083 2052.38,494.082 2054.54,494.08 2056.7,494.079 2058.86,494.077 2061.02,494.076 2063.18,494.074 2065.35,494.073 2067.51,494.071 2069.67,494.07 2071.83,494.069 2073.99,494.067 2076.15,494.066 2078.31,494.064 2080.47,494.063 2082.63,494.062 2084.79,494.06 2086.96,494.059 2089.12,494.058 2091.28,494.056 2093.44,494.055 2095.6,494.054 2097.76,494.053 2099.92,494.051 2102.08,494.05 2104.24,494.049 2106.4,494.048 2108.57,494.047 2110.73,494.045 2112.89,494.044 2115.05,494.043 2117.21,494.042 2119.37,494.041 2121.53,494.039 2123.69,494.038 2125.85,494.037 2128.01,494.036 2130.17,494.035 2132.34,494.034 2134.5,494.033 2136.66,494.032 2138.82,494.031 2140.98,494.029 2143.14,494.028 2145.3,494.027 2147.46,494.026 2149.62,494.025 2151.78,494.024 2153.95,494.023 2156.11,494.022 2158.27,494.021 2160.43,494.02 2162.59,494.019 2164.75,494.018 2166.91,494.017 2169.07,494.016 2171.23,494.015 2173.39,494.014 2175.56,494.013 2177.72,494.012 2179.88,494.011 2182.04,494.01 2184.2,494.01 2186.36,494.009 2188.52,494.008 2190.68,494.007 2192.84,494.006 2195,494.005 2197.17,494.004 2199.33,494.003 2201.49,494.003 2203.65,494.002 2205.81,494.001 2207.97,494 2210.13,493.999 2212.29,493.999 2214.45,493.998 2216.61,493.997 2218.78,493.996 2220.94,493.995 2223.1,493.995 2225.26,493.994 2227.42,493.993 2229.58,493.992 2231.74,493.992 2233.9,493.991 2236.06,493.99 2238.22,493.99 2240.38,493.989 2242.55,493.988 2244.71,493.987 2246.87,493.987 2249.03,493.986 2251.19,493.985 2253.35,493.985 2255.51,493.984 2257.67,493.984 2259.83,493.983 2261.99,493.982 2264.16,493.982 2266.32,493.981 2268.48,493.98 2270.64,493.98 2272.8,493.979 2274.96,493.979 2277.12,493.978 2279.28,493.977 2281.44,493.977 2283.6,493.976 2285.77,493.976 2287.93,493.975 2290.09,493.975 2292.25,493.974 2294.41,493.974 2296.57,493.973 2298.73,493.972 2300.89,493.972 2303.05,493.971 2305.21,493.971 2307.38,493.97 2309.54,493.97 2311.7,493.969 2313.86,493.969 2316.02,493.968 2318.18,493.968 2320.34,493.967 2322.5,493.967 2324.66,493.966 2326.82,493.966 2328.99,493.966 2331.15,493.965 2333.31,493.965 2335.47,493.964 2337.63,493.964 2339.79,493.963 2341.95,493.963 2344.11,493.962 2346.27,493.962 2348.43,493.962 2350.59,493.961 2352.76,493.961 "/>
<polyline clip-path="url(#clip642)" style="stroke:#e26f46; stroke-linecap:round; stroke-linejoin:round; stroke-width:4; stroke-opacity:1; fill:none" points="193.936,86.1857 196.097,91.7798 198.258,97.3091 200.419,102.774 202.58,108.176 204.741,113.515 206.902,118.791 209.063,124.006 211.224,129.161 213.385,134.255 215.546,139.29 217.707,144.265 219.868,149.183 222.029,154.043 224.19,158.846 226.351,163.593 228.512,168.284 230.673,172.92 232.834,177.502 234.995,182.029 237.156,186.503 239.317,190.925 241.478,195.294 243.639,199.612 245.8,203.878 247.961,208.095 250.122,212.261 252.282,216.378 254.443,220.446 256.604,224.465 258.765,228.437 260.926,232.362 263.087,236.239 265.248,240.071 267.409,243.857 269.57,247.597 271.731,251.293 273.892,254.945 276.053,258.553 278.214,262.117 280.375,265.639 282.536,269.118 284.697,272.556 286.858,275.952 289.019,279.307 291.18,282.621 293.341,285.896 295.502,289.131 297.663,292.327 299.824,295.484 301.985,298.602 304.146,301.683 306.307,304.727 308.468,307.733 310.629,310.702 312.79,313.636 314.951,316.533 317.112,319.395 319.273,322.222 321.434,325.015 323.595,327.773 325.756,330.497 327.917,333.187 330.078,335.844 332.239,338.469 334.4,341.061 336.561,343.621 338.722,346.15 340.883,348.647 343.044,351.112 345.205,353.548 347.366,355.953 349.527,358.328 351.688,360.673 353.849,362.989 356.01,365.276 358.171,367.535 360.332,369.765 362.493,371.967 364.653,374.141 366.814,376.288 368.975,378.408 371.136,380.501 373.297,382.567 375.458,384.608 377.619,386.622 379.78,388.611 381.941,390.575 384.102,392.514 386.263,394.427 388.424,396.317 390.585,398.182 392.746,400.023 394.907,401.841 397.068,403.635 399.229,405.406 401.39,407.154 403.551,408.88 405.712,410.583 407.873,412.264 410.034,413.923 412.195,415.561 414.356,417.177 416.517,418.772 418.678,420.346 420.839,421.9 423,423.433 425.161,424.946 427.322,426.439 429.483,427.913 431.644,429.367 433.805,430.802 435.966,432.217 438.127,433.614 440.288,434.992 442.449,436.352 444.61,437.694 446.771,439.018 448.932,440.324 451.093,441.612 453.254,442.884 455.415,444.138 457.576,445.375 459.737,446.595 461.898,447.799 464.059,448.986 466.22,450.158 468.381,451.313 470.542,452.452 472.703,453.576 474.864,454.685 477.024,455.778 479.185,456.856 481.346,457.919 483.507,458.967 485.668,460.001 487.829,461.02 489.99,462.026 492.151,463.017 494.312,463.994 496.473,464.957 498.634,465.907 500.795,466.843 502.956,467.766 505.117,468.676 507.278,469.573 509.439,470.458 511.6,471.329 513.761,472.188 515.922,473.035 518.083,473.869 520.244,474.692 522.405,475.502 524.566,476.301 526.727,477.088 528.888,477.863 531.049,478.627 533.21,479.38 535.371,480.122 537.532,480.853 539.693,481.573 541.854,482.282 544.015,482.981 546.176,483.669 548.337,484.347 550.498,485.015 552.659,485.673 554.82,486.321 556.981,486.959 559.142,487.587 561.303,488.206 563.464,488.815 565.625,489.415 567.786,490.006 569.947,490.587 572.108,491.159 574.269,491.723 576.43,492.278 578.591,492.824 580.752,493.361 582.913,493.89 585.074,494.411 587.235,494.923 589.396,495.427 591.556,495.923 593.717,496.411 595.878,496.891 598.039,497.363 600.2,497.827 602.361,498.284 604.522,498.733 606.683,499.175 608.844,499.61 611.005,500.037 613.166,500.457 615.327,500.87 617.488,501.276 619.649,501.675 621.81,502.067 623.971,502.453 626.132,502.832 628.293,503.204 630.454,503.57 632.615,503.929 634.776,504.283 636.937,504.629 639.098,504.97 641.259,505.305 643.42,505.634 645.581,505.956 647.742,506.273 649.903,506.585 652.064,506.89 654.225,507.19 656.386,507.484 658.547,507.773 660.708,508.056 662.869,508.334 665.03,508.607 667.191,508.875 669.352,509.137 671.513,509.395 673.674,509.647 675.835,509.895 677.996,510.137 680.157,510.375 682.318,510.608 684.479,510.837 686.64,511.06 688.801,511.28 690.962,511.494 693.123,511.704 695.284,511.91 697.445,512.112 699.606,512.309 701.767,512.502 703.927,512.691 706.088,512.875 708.249,513.056 710.41,513.232 712.571,513.405 714.732,513.574 716.893,513.739 719.054,513.9 721.215,514.057 723.376,514.21 725.537,514.36 727.698,514.507 729.859,514.649 732.02,514.789 734.181,514.924 736.342,515.057 738.503,515.186 740.664,515.311 742.825,515.434 744.986,515.553 747.147,515.669 749.308,515.781 751.469,515.891 753.63,515.998 755.791,516.101 757.952,516.202 760.113,516.3 762.274,516.395 764.435,516.486 766.596,516.576 768.757,516.662 770.918,516.746 773.079,516.827 775.24,516.905 777.401,516.981 779.562,517.054 781.723,517.125 783.884,517.193 786.045,517.258 788.206,517.322 790.367,517.382 792.528,517.441 794.689,517.497 796.85,517.551 799.011,517.603 801.172,517.652 803.333,517.699 805.494,517.744 807.655,517.787 809.816,517.828 811.977,517.867 814.138,517.904 816.298,517.939 818.459,517.971 820.62,518.002 822.781,518.031 824.942,518.058 827.103,518.083 829.264,518.107 831.425,518.128 833.586,518.148 835.747,518.166 837.908,518.182 840.069,518.197 842.23,518.209 844.391,518.221 846.552,518.23 848.713,518.238 850.874,518.244 853.035,518.249 855.196,518.252 857.357,518.254 859.518,518.254 861.679,518.253 863.84,518.25 866.001,518.246 868.162,518.241 870.323,518.234 872.484,518.226 874.645,518.216 876.806,518.205 878.967,518.193 881.128,518.18 883.289,518.165 885.45,518.149 887.611,518.132 889.772,518.114 891.933,518.094 894.094,518.074 896.255,518.052 898.416,518.029 900.577,518.005 902.738,517.98 904.899,517.954 907.06,517.927 909.221,517.899 911.382,517.87 913.543,517.84 915.704,517.809 917.865,517.777 920.026,517.745 922.187,517.711 924.348,517.676 926.509,517.641 928.669,517.605 930.83,517.568 932.991,517.53 935.152,517.491 937.313,517.452 939.474,517.411 941.635,517.37 943.796,517.329 945.957,517.286 948.118,517.243 950.279,517.199 952.44,517.155 954.601,517.11 956.762,517.064 958.923,517.017 961.084,516.97 963.245,516.923 965.406,516.874 967.567,516.826 969.728,516.776 971.889,516.726 974.05,516.675 976.211,516.624 978.372,516.573 980.533,516.52 982.694,516.468 984.855,516.414 987.016,516.361 989.177,516.306 991.338,516.252 993.499,516.197 995.66,516.141 997.821,516.085 999.982,516.028 1002.14,515.971 1004.3,515.914 1006.46,515.856 1008.63,515.798 1010.79,515.74 1012.95,515.681 1015.11,515.621 1017.27,515.562 1019.43,515.502 1021.59,515.441 1023.75,515.381 1025.91,515.32 1028.07,515.258 1030.24,515.197 1032.4,515.135 1034.56,515.073 1036.72,515.01 1038.88,514.947 1041.04,514.884 1043.2,514.821 1045.36,514.758 1047.52,514.694 1049.68,514.63 1051.85,514.566 1054.01,514.501 1056.17,514.436 1058.33,514.372 1060.49,514.306 1062.65,514.241 1064.81,514.176 1066.97,514.11 1069.13,514.044 1071.29,513.978 1073.46,513.912 1075.62,513.846 1077.78,513.78 1079.94,513.713 1082.1,513.647 1084.26,513.58 1086.42,513.513 1088.58,513.446 1090.74,513.379 1092.9,513.312 1095.07,513.245 1097.23,513.178 1099.39,513.11 1101.55,513.043 1103.71,512.975 1105.87,512.908 1108.03,512.84 1110.19,512.772 1112.35,512.705 1114.51,512.637 1116.67,512.569 1118.84,512.501 1121,512.434 1123.16,512.366 1125.32,512.298 1127.48,512.23 1129.64,512.162 1131.8,512.095 1133.96,512.027 1136.12,511.959 1138.28,511.891 1140.45,511.823 1142.61,511.756 1144.77,511.688 1146.93,511.62 1149.09,511.552 1151.25,511.485 1153.41,511.417 1155.57,511.35 1157.73,511.282 1159.89,511.214 1162.06,511.147 1164.22,511.079 1166.38,511.012 1168.54,510.945 1170.7,510.877 1172.86,510.81 1175.02,510.743 1177.18,510.676 1179.34,510.609 1181.5,510.542 1183.67,510.475 1185.83,510.408 1187.99,510.341 1190.15,510.274 1192.31,510.208 1194.47,510.141 1196.63,510.075 1198.79,510.008 1200.95,509.942 1203.11,509.876 1205.28,509.81 1207.44,509.744 1209.6,509.678 1211.76,509.612 1213.92,509.546 1216.08,509.481 1218.24,509.415 1220.4,509.35 1222.56,509.285 1224.72,509.219 1226.88,509.154 1229.05,509.089 1231.21,509.025 1233.37,508.96 1235.53,508.895 1237.69,508.831 1239.85,508.767 1242.01,508.702 1244.17,508.638 1246.33,508.574 1248.49,508.511 1250.66,508.447 1252.82,508.383 1254.98,508.32 1257.14,508.257 1259.3,508.194 1261.46,508.131 1263.62,508.068 1265.78,508.005 1267.94,507.943 1270.1,507.881 1272.27,507.818 1274.43,507.756 1276.59,507.695 1278.75,507.633 1280.91,507.571 1283.07,507.51 1285.23,507.449 1287.39,507.388 1289.55,507.327 1291.71,507.266 1293.88,507.206 1296.04,507.145 1298.2,507.085 1300.36,507.025 1302.52,506.965 1304.68,506.906 1306.84,506.846 1309,506.787 1311.16,506.728 1313.32,506.669 1315.49,506.61 1317.65,506.552 1319.81,506.494 1321.97,506.435 1324.13,506.377 1326.29,506.32 1328.45,506.262 1330.61,506.205 1332.77,506.147 1334.93,506.09 1337.09,506.034 1339.26,505.977 1341.42,505.921 1343.58,505.864 1345.74,505.808 1347.9,505.752 1350.06,505.697 1352.22,505.641 1354.38,505.586 1356.54,505.53 1358.7,505.476 1360.87,505.421 1363.03,505.366 1365.19,505.312 1367.35,505.257 1369.51,505.203 1371.67,505.15 1373.83,505.096 1375.99,505.042 1378.15,504.989 1380.31,504.936 1382.48,504.883 1384.64,504.83 1386.8,504.778 1388.96,504.725 1391.12,504.673 1393.28,504.621 1395.44,504.569 1397.6,504.518 1399.76,504.466 1401.92,504.415 1404.09,504.364 1406.25,504.313 1408.41,504.262 1410.57,504.212 1412.73,504.161 1414.89,504.111 1417.05,504.061 1419.21,504.012 1421.37,503.962 1423.53,503.913 1425.7,503.863 1427.86,503.814 1430.02,503.765 1432.18,503.717 1434.34,503.668 1436.5,503.62 1438.66,503.572 1440.82,503.524 1442.98,503.476 1445.14,503.428 1447.3,503.381 1449.47,503.334 1451.63,503.287 1453.79,503.24 1455.95,503.193 1458.11,503.147 1460.27,503.101 1462.43,503.054 1464.59,503.009 1466.75,502.963 1468.91,502.917 1471.08,502.872 1473.24,502.827 1475.4,502.782 1477.56,502.737 1479.72,502.692 1481.88,502.648 1484.04,502.603 1486.2,502.559 1488.36,502.515 1490.52,502.472 1492.69,502.428 1494.85,502.385 1497.01,502.342 1499.17,502.299 1501.33,502.256 1503.49,502.213 1505.65,502.171 1507.81,502.128 1509.97,502.086 1512.13,502.045 1514.3,502.003 1516.46,501.961 1518.62,501.92 1520.78,501.879 1522.94,501.838 1525.1,501.797 1527.26,501.756 1529.42,501.716 1531.58,501.676 1533.74,501.636 1535.91,501.596 1538.07,501.556 1540.23,501.516 1542.39,501.477 1544.55,501.438 1546.71,501.399 1548.87,501.36 1551.03,501.322 1553.19,501.283 1555.35,501.245 1557.51,501.207 1559.68,501.169 1561.84,501.131 1564,501.094 1566.16,501.056 1568.32,501.019 1570.48,500.982 1572.64,500.945 1574.8,500.908 1576.96,500.872 1579.12,500.836 1581.29,500.799 1583.45,500.763 1585.61,500.727 1587.77,500.692 1589.93,500.656 1592.09,500.621 1594.25,500.586 1596.41,500.551 1598.57,500.516 1600.73,500.481 1602.9,500.446 1605.06,500.412 1607.22,500.378 1609.38,500.344 1611.54,500.31 1613.7,500.276 1615.86,500.243 1618.02,500.209 1620.18,500.176 1622.34,500.143 1624.51,500.11 1626.67,500.077 1628.83,500.044 1630.99,500.012 1633.15,499.979 1635.31,499.947 1637.47,499.915 1639.63,499.883 1641.79,499.851 1643.95,499.82 1646.12,499.788 1648.28,499.757 1650.44,499.726 1652.6,499.695 1654.76,499.664 1656.92,499.633 1659.08,499.603 1661.24,499.572 1663.4,499.542 1665.56,499.512 1667.72,499.482 1669.89,499.452 1672.05,499.422 1674.21,499.392 1676.37,499.363 1678.53,499.334 1680.69,499.305 1682.85,499.276 1685.01,499.247 1687.17,499.218 1689.33,499.189 1691.5,499.161 1693.66,499.132 1695.82,499.104 1697.98,499.076 1700.14,499.048 1702.3,499.02 1704.46,498.993 1706.62,498.965 1708.78,498.938 1710.94,498.911 1713.11,498.883 1715.27,498.856 1717.43,498.83 1719.59,498.803 1721.75,498.776 1723.91,498.75 1726.07,498.723 1728.23,498.697 1730.39,498.671 1732.55,498.645 1734.72,498.619 1736.88,498.594 1739.04,498.568 1741.2,498.543 1743.36,498.517 1745.52,498.492 1747.68,498.467 1749.84,498.442 1752,498.417 1754.16,498.393 1756.33,498.368 1758.49,498.344 1760.65,498.319 1762.81,498.295 1764.97,498.271 1767.13,498.247 1769.29,498.223 1771.45,498.199 1773.61,498.176 1775.77,498.152 1777.93,498.129 1780.1,498.106 1782.26,498.083 1784.42,498.06 1786.58,498.037 1788.74,498.014 1790.9,497.992 1793.06,497.969 1795.22,497.947 1797.38,497.924 1799.54,497.902 1801.71,497.88 1803.87,497.858 1806.03,497.836 1808.19,497.815 1810.35,497.793 1812.51,497.772 1814.67,497.75 1816.83,497.729 1818.99,497.708 1821.15,497.687 1823.32,497.666 1825.48,497.645 1827.64,497.625 1829.8,497.604 1831.96,497.584 1834.12,497.563 1836.28,497.543 1838.44,497.523 1840.6,497.503 1842.76,497.483 1844.93,497.463 1847.09,497.444 1849.25,497.424 1851.41,497.405 1853.57,497.385 1855.73,497.366 1857.89,497.347 1860.05,497.328 1862.21,497.309 1864.37,497.29 1866.54,497.271 1868.7,497.253 1870.86,497.234 1873.02,497.215 1875.18,497.197 1877.34,497.179 1879.5,497.161 1881.66,497.143 1883.82,497.125 1885.98,497.107 1888.15,497.089 1890.31,497.071 1892.47,497.054 1894.63,497.036 1896.79,497.019 1898.95,497.001 1901.11,496.984 1903.27,496.967 1905.43,496.95 1907.59,496.933 1909.75,496.916 1911.92,496.899 1914.08,496.883 1916.24,496.866 1918.4,496.849 1920.56,496.833 1922.72,496.817 1924.88,496.8 1927.04,496.784 1929.2,496.768 1931.36,496.752 1933.53,496.736 1935.69,496.72 1937.85,496.705 1940.01,496.689 1942.17,496.673 1944.33,496.658 1946.49,496.642 1948.65,496.627 1950.81,496.612 1952.97,496.597 1955.14,496.581 1957.3,496.566 1959.46,496.552 1961.62,496.537 1963.78,496.522 1965.94,496.507 1968.1,496.493 1970.26,496.478 1972.42,496.464 1974.58,496.449 1976.75,496.435 1978.91,496.421 1981.07,496.406 1983.23,496.392 1985.39,496.378 1987.55,496.364 1989.71,496.351 1991.87,496.337 1994.03,496.323 1996.19,496.309 1998.36,496.296 2000.52,496.282 2002.68,496.269 2004.84,496.255 2007,496.242 2009.16,496.229 2011.32,496.216 2013.48,496.203 2015.64,496.19 2017.8,496.177 2019.96,496.164 2022.13,496.151 2024.29,496.138 2026.45,496.126 2028.61,496.113 2030.77,496.101 2032.93,496.088 2035.09,496.076 2037.25,496.064 2039.41,496.051 2041.57,496.039 2043.74,496.027 2045.9,496.015 2048.06,496.003 2050.22,495.991 2052.38,495.979 2054.54,495.967 2056.7,495.956 2058.86,495.944 2061.02,495.932 2063.18,495.921 2065.35,495.909 2067.51,495.898 2069.67,495.887 2071.83,495.875 2073.99,495.864 2076.15,495.853 2078.31,495.842 2080.47,495.831 2082.63,495.82 2084.79,495.809 2086.96,495.798 2089.12,495.787 2091.28,495.776 2093.44,495.766 2095.6,495.755 2097.76,495.745 2099.92,495.734 2102.08,495.724 2104.24,495.713 2106.4,495.703 2108.57,495.693 2110.73,495.682 2112.89,495.672 2115.05,495.662 2117.21,495.652 2119.37,495.642 2121.53,495.632 2123.69,495.622 2125.85,495.613 2128.01,495.603 2130.17,495.593 2132.34,495.583 2134.5,495.574 2136.66,495.564 2138.82,495.555 2140.98,495.545 2143.14,495.536 2145.3,495.527 2147.46,495.518 2149.62,495.508 2151.78,495.499 2153.95,495.49 2156.11,495.481 2158.27,495.472 2160.43,495.463 2162.59,495.454 2164.75,495.445 2166.91,495.437 2169.07,495.428 2171.23,495.419 2173.39,495.411 2175.56,495.402 2177.72,495.393 2179.88,495.385 2182.04,495.377 2184.2,495.368 2186.36,495.36 2188.52,495.351 2190.68,495.343 2192.84,495.335 2195,495.327 2197.17,495.319 2199.33,495.311 2201.49,495.303 2203.65,495.295 2205.81,495.287 2207.97,495.279 2210.13,495.271 2212.29,495.263 2214.45,495.255 2216.61,495.248 2218.78,495.24 2220.94,495.232 2223.1,495.225 2225.26,495.217 2227.42,495.21 2229.58,495.202 2231.74,495.195 2233.9,495.187 2236.06,495.18 2238.22,495.173 2240.38,495.165 2242.55,495.158 2244.71,495.151 2246.87,495.144 2249.03,495.137 2251.19,495.13 2253.35,495.123 2255.51,495.116 2257.67,495.109 2259.83,495.102 2261.99,495.095 2264.16,495.088 2266.32,495.082 2268.48,495.075 2270.64,495.068 2272.8,495.061 2274.96,495.055 2277.12,495.048 2279.28,495.042 2281.44,495.035 2283.6,495.029 2285.77,495.022 2287.93,495.016 2290.09,495.009 2292.25,495.003 2294.41,494.997 2296.57,494.991 2298.73,494.984 2300.89,494.978 2303.05,494.972 2305.21,494.966 2307.38,494.96 2309.54,494.954 2311.7,494.948 2313.86,494.942 2316.02,494.936 2318.18,494.93 2320.34,494.924 2322.5,494.918 2324.66,494.912 2326.82,494.907 2328.99,494.901 2331.15,494.895 2333.31,494.889 2335.47,494.884 2337.63,494.878 2339.79,494.873 2341.95,494.867 2344.11,494.861 2346.27,494.856 2348.43,494.851 2350.59,494.845 2352.76,494.84 "/>
<path clip-path="url(#clip640)" d="M1805.52 248.629 L2280.8 248.629 L2280.8 93.1086 L1805.52 93.1086  Z" fill="#ffffff" fill-rule="evenodd" fill-opacity="1"/>
<polyline clip-path="url(#clip640)" style="stroke:#000000; stroke-linecap:round; stroke-linejoin:round; stroke-width:4; stroke-opacity:1; fill:none" points="1805.52,248.629 2280.8,248.629 2280.8,93.1086 1805.52,93.1086 1805.52,248.629 "/>
<polyline clip-path="url(#clip640)" style="stroke:#009af9; stroke-linecap:round; stroke-linejoin:round; stroke-width:4; stroke-opacity:1; fill:none" points="1829.5,144.949 1973.42,144.949 "/>
<path clip-path="url(#clip640)" d="M1997.41 136.303 L2001.93 136.303 L2010.03 158.062 L2018.13 136.303 L2022.64 136.303 L2012.92 162.229 L2007.13 162.229 L1997.41 136.303 Z" fill="#000000" fill-rule="nonzero" fill-opacity="1" /><path clip-path="url(#clip640)" d="M2029.93 158.293 L2037.57 158.293 L2037.57 131.928 L2029.26 133.595 L2029.26 129.335 L2037.53 127.669 L2042.2 127.669 L2042.2 158.293 L2049.84 158.293 L2049.84 162.229 L2029.93 162.229 L2029.93 158.293 Z" fill="#000000" fill-rule="nonzero" fill-opacity="1" /><path clip-path="url(#clip640)" d="M2067.94 145.585 L2067.94 152.807 L2076.07 152.807 L2076.07 155.006 L2067.94 155.006 L2067.94 162.229 L2065.51 162.229 L2065.51 155.006 L2057.39 155.006 L2057.39 152.807 L2065.51 152.807 L2065.51 145.585 L2067.94 145.585 Z" fill="#000000" fill-rule="nonzero" fill-opacity="1" /><path clip-path="url(#clip640)" d="M2100.24 137.067 L2100.24 141.094 Q2098.43 140.169 2096.49 139.706 Q2094.54 139.243 2092.46 139.243 Q2089.29 139.243 2087.69 140.215 Q2086.11 141.187 2086.11 143.131 Q2086.11 144.613 2087.25 145.469 Q2088.38 146.303 2091.81 147.067 L2093.27 147.391 Q2097.8 148.363 2099.7 150.145 Q2101.62 151.905 2101.62 155.076 Q2101.62 158.687 2098.75 160.793 Q2095.91 162.9 2090.91 162.9 Q2088.82 162.9 2086.55 162.483 Q2084.31 162.09 2081.81 161.28 L2081.81 156.881 Q2084.17 158.108 2086.46 158.733 Q2088.75 159.335 2091 159.335 Q2094.01 159.335 2095.63 158.317 Q2097.25 157.275 2097.25 155.4 Q2097.25 153.664 2096.07 152.738 Q2094.91 151.812 2090.95 150.956 L2089.47 150.608 Q2085.51 149.775 2083.75 148.062 Q2081.99 146.326 2081.99 143.317 Q2081.99 139.659 2084.59 137.669 Q2087.18 135.678 2091.95 135.678 Q2094.31 135.678 2096.39 136.025 Q2098.48 136.372 2100.24 137.067 Z" fill="#000000" fill-rule="nonzero" fill-opacity="1" /><path clip-path="url(#clip640)" d="M2112.62 128.942 L2112.62 136.303 L2121.39 136.303 L2121.39 139.613 L2112.62 139.613 L2112.62 153.687 Q2112.62 156.858 2113.48 157.761 Q2114.36 158.664 2117.02 158.664 L2121.39 158.664 L2121.39 162.229 L2117.02 162.229 Q2112.09 162.229 2110.21 160.4 Q2108.34 158.548 2108.34 153.687 L2108.34 139.613 L2105.21 139.613 L2105.21 136.303 L2108.34 136.303 L2108.34 128.942 L2112.62 128.942 Z" fill="#000000" fill-rule="nonzero" fill-opacity="1" /><path clip-path="url(#clip640)" d="M2137.04 139.289 Q2133.61 139.289 2131.62 141.974 Q2129.63 144.636 2129.63 149.289 Q2129.63 153.942 2131.6 156.627 Q2133.59 159.289 2137.04 159.289 Q2140.44 159.289 2142.43 156.604 Q2144.42 153.918 2144.42 149.289 Q2144.42 144.682 2142.43 141.997 Q2140.44 139.289 2137.04 139.289 M2137.04 135.678 Q2142.6 135.678 2145.77 139.289 Q2148.94 142.9 2148.94 149.289 Q2148.94 155.655 2145.77 159.289 Q2142.6 162.9 2137.04 162.9 Q2131.46 162.9 2128.29 159.289 Q2125.14 155.655 2125.14 149.289 Q2125.14 142.9 2128.29 139.289 Q2131.46 135.678 2137.04 135.678 Z" fill="#000000" fill-rule="nonzero" fill-opacity="1" /><path clip-path="url(#clip640)" d="M2171.02 140.284 Q2170.3 139.868 2169.45 139.682 Q2168.61 139.474 2167.6 139.474 Q2163.98 139.474 2162.04 141.835 Q2160.12 144.173 2160.12 148.571 L2160.12 162.229 L2155.84 162.229 L2155.84 136.303 L2160.12 136.303 L2160.12 140.331 Q2161.46 137.969 2163.61 136.835 Q2165.77 135.678 2168.85 135.678 Q2169.29 135.678 2169.82 135.747 Q2170.35 135.794 2171 135.909 L2171.02 140.284 Z" fill="#000000" fill-rule="nonzero" fill-opacity="1" /><path clip-path="url(#clip640)" d="M2187.27 149.196 Q2182.11 149.196 2180.12 150.377 Q2178.13 151.557 2178.13 154.405 Q2178.13 156.673 2179.61 158.016 Q2181.11 159.335 2183.68 159.335 Q2187.23 159.335 2189.36 156.835 Q2191.51 154.312 2191.51 150.145 L2191.51 149.196 L2187.27 149.196 M2195.77 147.437 L2195.77 162.229 L2191.51 162.229 L2191.51 158.293 Q2190.05 160.655 2187.87 161.789 Q2185.7 162.9 2182.55 162.9 Q2178.57 162.9 2176.21 160.678 Q2173.87 158.432 2173.87 154.682 Q2173.87 150.307 2176.79 148.085 Q2179.73 145.863 2185.54 145.863 L2191.51 145.863 L2191.51 145.446 Q2191.51 142.507 2189.56 140.909 Q2187.64 139.289 2184.15 139.289 Q2181.92 139.289 2179.82 139.821 Q2177.71 140.354 2175.77 141.419 L2175.77 137.483 Q2178.11 136.581 2180.3 136.141 Q2182.5 135.678 2184.59 135.678 Q2190.21 135.678 2192.99 138.594 Q2195.77 141.511 2195.77 147.437 Z" fill="#000000" fill-rule="nonzero" fill-opacity="1" /><path clip-path="url(#clip640)" d="M2221.6 148.965 Q2221.6 144.335 2219.68 141.789 Q2217.78 139.243 2214.33 139.243 Q2210.91 139.243 2208.98 141.789 Q2207.09 144.335 2207.09 148.965 Q2207.09 153.571 2208.98 156.118 Q2210.91 158.664 2214.33 158.664 Q2217.78 158.664 2219.68 156.118 Q2221.6 153.571 2221.6 148.965 M2225.86 159.011 Q2225.86 165.631 2222.92 168.849 Q2219.98 172.09 2213.92 172.09 Q2211.67 172.09 2209.68 171.742 Q2207.69 171.418 2205.81 170.724 L2205.81 166.58 Q2207.69 167.599 2209.52 168.085 Q2211.35 168.571 2213.24 168.571 Q2217.43 168.571 2219.52 166.372 Q2221.6 164.196 2221.6 159.775 L2221.6 157.668 Q2220.28 159.96 2218.22 161.094 Q2216.16 162.229 2213.29 162.229 Q2208.52 162.229 2205.6 158.594 Q2202.69 154.96 2202.69 148.965 Q2202.69 142.946 2205.6 139.312 Q2208.52 135.678 2213.29 135.678 Q2216.16 135.678 2218.22 136.812 Q2220.28 137.946 2221.6 140.238 L2221.6 136.303 L2225.86 136.303 L2225.86 159.011 Z" fill="#000000" fill-rule="nonzero" fill-opacity="1" /><path clip-path="url(#clip640)" d="M2256.81 148.201 L2256.81 150.284 L2237.23 150.284 Q2237.5 154.682 2239.86 156.997 Q2242.25 159.289 2246.48 159.289 Q2248.94 159.289 2251.23 158.687 Q2253.54 158.085 2255.81 156.881 L2255.81 160.909 Q2253.52 161.881 2251.11 162.391 Q2248.71 162.9 2246.23 162.9 Q2240.03 162.9 2236.39 159.289 Q2232.78 155.678 2232.78 149.52 Q2232.78 143.155 2236.21 139.428 Q2239.66 135.678 2245.49 135.678 Q2250.72 135.678 2253.75 139.057 Q2256.81 142.414 2256.81 148.201 M2252.55 146.951 Q2252.5 143.456 2250.58 141.372 Q2248.68 139.289 2245.54 139.289 Q2241.97 139.289 2239.82 141.303 Q2237.69 143.317 2237.36 146.974 L2252.55 146.951 Z" fill="#000000" fill-rule="nonzero" fill-opacity="1" /><polyline clip-path="url(#clip640)" style="stroke:#e26f46; stroke-linecap:round; stroke-linejoin:round; stroke-width:4; stroke-opacity:1; fill:none" points="1829.5,196.789 1973.42,196.789 "/>
<path clip-path="url(#clip640)" d="M1997.41 188.143 L2001.93 188.143 L2010.03 209.902 L2018.13 188.143 L2022.64 188.143 L2012.92 214.069 L2007.13 214.069 L1997.41 188.143 Z" fill="#000000" fill-rule="nonzero" fill-opacity="1" /><path clip-path="url(#clip640)" d="M2029.17 179.509 L2047.53 179.509 L2047.53 183.444 L2033.45 183.444 L2033.45 191.916 Q2034.47 191.569 2035.49 191.407 Q2036.51 191.222 2037.53 191.222 Q2043.31 191.222 2046.69 194.393 Q2050.07 197.564 2050.07 202.981 Q2050.07 208.559 2046.6 211.661 Q2043.13 214.74 2036.81 214.74 Q2034.63 214.74 2032.37 214.37 Q2030.12 213.999 2027.71 213.258 L2027.71 208.559 Q2029.8 209.694 2032.02 210.249 Q2034.24 210.805 2036.72 210.805 Q2040.72 210.805 2043.06 208.698 Q2045.4 206.592 2045.4 202.981 Q2045.4 199.37 2043.06 197.263 Q2040.72 195.157 2036.72 195.157 Q2034.84 195.157 2032.97 195.573 Q2031.12 195.99 2029.17 196.87 L2029.17 179.509 Z" fill="#000000" fill-rule="nonzero" fill-opacity="1" /><path clip-path="url(#clip640)" d="M2067.94 197.425 L2067.94 204.647 L2076.07 204.647 L2076.07 206.846 L2067.94 206.846 L2067.94 214.069 L2065.51 214.069 L2065.51 206.846 L2057.39 206.846 L2057.39 204.647 L2065.51 204.647 L2065.51 197.425 L2067.94 197.425 Z" fill="#000000" fill-rule="nonzero" fill-opacity="1" /><path clip-path="url(#clip640)" d="M2100.24 188.907 L2100.24 192.934 Q2098.43 192.009 2096.49 191.546 Q2094.54 191.083 2092.46 191.083 Q2089.29 191.083 2087.69 192.055 Q2086.11 193.027 2086.11 194.971 Q2086.11 196.453 2087.25 197.309 Q2088.38 198.143 2091.81 198.907 L2093.27 199.231 Q2097.8 200.203 2099.7 201.985 Q2101.62 203.745 2101.62 206.916 Q2101.62 210.527 2098.75 212.633 Q2095.91 214.74 2090.91 214.74 Q2088.82 214.74 2086.55 214.323 Q2084.31 213.93 2081.81 213.12 L2081.81 208.721 Q2084.17 209.948 2086.46 210.573 Q2088.75 211.175 2091 211.175 Q2094.01 211.175 2095.63 210.157 Q2097.25 209.115 2097.25 207.24 Q2097.25 205.504 2096.07 204.578 Q2094.91 203.652 2090.95 202.796 L2089.47 202.448 Q2085.51 201.615 2083.75 199.902 Q2081.99 198.166 2081.99 195.157 Q2081.99 191.499 2084.59 189.509 Q2087.18 187.518 2091.95 187.518 Q2094.31 187.518 2096.39 187.865 Q2098.48 188.212 2100.24 188.907 Z" fill="#000000" fill-rule="nonzero" fill-opacity="1" /><path clip-path="url(#clip640)" d="M2112.62 180.782 L2112.62 188.143 L2121.39 188.143 L2121.39 191.453 L2112.62 191.453 L2112.62 205.527 Q2112.62 208.698 2113.48 209.601 Q2114.36 210.504 2117.02 210.504 L2121.39 210.504 L2121.39 214.069 L2117.02 214.069 Q2112.09 214.069 2110.21 212.24 Q2108.34 210.388 2108.34 205.527 L2108.34 191.453 L2105.21 191.453 L2105.21 188.143 L2108.34 188.143 L2108.34 180.782 L2112.62 180.782 Z" fill="#000000" fill-rule="nonzero" fill-opacity="1" /><path clip-path="url(#clip640)" d="M2137.04 191.129 Q2133.61 191.129 2131.62 193.814 Q2129.63 196.476 2129.63 201.129 Q2129.63 205.782 2131.6 208.467 Q2133.59 211.129 2137.04 211.129 Q2140.44 211.129 2142.43 208.444 Q2144.42 205.758 2144.42 201.129 Q2144.42 196.522 2142.43 193.837 Q2140.44 191.129 2137.04 191.129 M2137.04 187.518 Q2142.6 187.518 2145.77 191.129 Q2148.94 194.74 2148.94 201.129 Q2148.94 207.495 2145.77 211.129 Q2142.6 214.74 2137.04 214.74 Q2131.46 214.74 2128.29 211.129 Q2125.14 207.495 2125.14 201.129 Q2125.14 194.74 2128.29 191.129 Q2131.46 187.518 2137.04 187.518 Z" fill="#000000" fill-rule="nonzero" fill-opacity="1" /><path clip-path="url(#clip640)" d="M2171.02 192.124 Q2170.3 191.708 2169.45 191.522 Q2168.61 191.314 2167.6 191.314 Q2163.98 191.314 2162.04 193.675 Q2160.12 196.013 2160.12 200.411 L2160.12 214.069 L2155.84 214.069 L2155.84 188.143 L2160.12 188.143 L2160.12 192.171 Q2161.46 189.809 2163.61 188.675 Q2165.77 187.518 2168.85 187.518 Q2169.29 187.518 2169.82 187.587 Q2170.35 187.634 2171 187.749 L2171.02 192.124 Z" fill="#000000" fill-rule="nonzero" fill-opacity="1" /><path clip-path="url(#clip640)" d="M2187.27 201.036 Q2182.11 201.036 2180.12 202.217 Q2178.13 203.397 2178.13 206.245 Q2178.13 208.513 2179.61 209.856 Q2181.11 211.175 2183.68 211.175 Q2187.23 211.175 2189.36 208.675 Q2191.51 206.152 2191.51 201.985 L2191.51 201.036 L2187.27 201.036 M2195.77 199.277 L2195.77 214.069 L2191.51 214.069 L2191.51 210.133 Q2190.05 212.495 2187.87 213.629 Q2185.7 214.74 2182.55 214.74 Q2178.57 214.74 2176.21 212.518 Q2173.87 210.272 2173.87 206.522 Q2173.87 202.147 2176.79 199.925 Q2179.73 197.703 2185.54 197.703 L2191.51 197.703 L2191.51 197.286 Q2191.51 194.347 2189.56 192.749 Q2187.64 191.129 2184.15 191.129 Q2181.92 191.129 2179.82 191.661 Q2177.71 192.194 2175.77 193.259 L2175.77 189.323 Q2178.11 188.421 2180.3 187.981 Q2182.5 187.518 2184.59 187.518 Q2190.21 187.518 2192.99 190.434 Q2195.77 193.351 2195.77 199.277 Z" fill="#000000" fill-rule="nonzero" fill-opacity="1" /><path clip-path="url(#clip640)" d="M2221.6 200.805 Q2221.6 196.175 2219.68 193.629 Q2217.78 191.083 2214.33 191.083 Q2210.91 191.083 2208.98 193.629 Q2207.09 196.175 2207.09 200.805 Q2207.09 205.411 2208.98 207.958 Q2210.91 210.504 2214.33 210.504 Q2217.78 210.504 2219.68 207.958 Q2221.6 205.411 2221.6 200.805 M2225.86 210.851 Q2225.86 217.471 2222.92 220.689 Q2219.98 223.93 2213.92 223.93 Q2211.67 223.93 2209.68 223.582 Q2207.69 223.258 2205.81 222.564 L2205.81 218.42 Q2207.69 219.439 2209.52 219.925 Q2211.35 220.411 2213.24 220.411 Q2217.43 220.411 2219.52 218.212 Q2221.6 216.036 2221.6 211.615 L2221.6 209.508 Q2220.28 211.8 2218.22 212.934 Q2216.16 214.069 2213.29 214.069 Q2208.52 214.069 2205.6 210.434 Q2202.69 206.8 2202.69 200.805 Q2202.69 194.786 2205.6 191.152 Q2208.52 187.518 2213.29 187.518 Q2216.16 187.518 2218.22 188.652 Q2220.28 189.786 2221.6 192.078 L2221.6 188.143 L2225.86 188.143 L2225.86 210.851 Z" fill="#000000" fill-rule="nonzero" fill-opacity="1" /><path clip-path="url(#clip640)" d="M2256.81 200.041 L2256.81 202.124 L2237.23 202.124 Q2237.5 206.522 2239.86 208.837 Q2242.25 211.129 2246.48 211.129 Q2248.94 211.129 2251.23 210.527 Q2253.54 209.925 2255.81 208.721 L2255.81 212.749 Q2253.52 213.721 2251.11 214.231 Q2248.71 214.74 2246.23 214.74 Q2240.03 214.74 2236.39 211.129 Q2232.78 207.518 2232.78 201.36 Q2232.78 194.995 2236.21 191.268 Q2239.66 187.518 2245.49 187.518 Q2250.72 187.518 2253.75 190.897 Q2256.81 194.254 2256.81 200.041 M2252.55 198.791 Q2252.5 195.296 2250.58 193.212 Q2248.68 191.129 2245.54 191.129 Q2241.97 191.129 2239.82 193.143 Q2237.69 195.157 2237.36 198.814 L2252.55 198.791 Z" fill="#000000" fill-rule="nonzero" fill-opacity="1" /></svg>
