<?xml version="1.0" encoding="utf-8"?>
<svg xmlns="http://www.w3.org/2000/svg" xmlns:xlink="http://www.w3.org/1999/xlink" width="600" height="400" viewBox="0 0 2400 1600">
<defs>
  <clipPath id="clip040">
    <rect x="0" y="0" width="2400" height="1600"/>
  </clipPath>
</defs>
<path clip-path="url(#clip040)" d="M0 1600 L2400 1600 L2400 0 L0 0  Z" fill="#ffffff" fill-rule="evenodd" fill-opacity="1"/>
<defs>
  <clipPath id="clip041">
    <rect x="480" y="0" width="1681" height="1600"/>
  </clipPath>
</defs>
<path clip-path="url(#clip040)" d="M193.936 1423.18 L2352.76 1423.18 L2352.76 47.2441 L193.936 47.2441  Z" fill="#ffffff" fill-rule="evenodd" fill-opacity="1"/>
<defs>
  <clipPath id="clip042">
    <rect x="193" y="47" width="2160" height="1377"/>
  </clipPath>
</defs>
<polyline clip-path="url(#clip042)" style="stroke:#000000; stroke-linecap:round; stroke-linejoin:round; stroke-width:2; stroke-opacity:0.1; fill:none" points="193.936,1423.18 193.936,47.2441 "/>
<polyline clip-path="url(#clip042)" style="stroke:#000000; stroke-linecap:round; stroke-linejoin:round; stroke-width:2; stroke-opacity:0.1; fill:none" points="733.641,1423.18 733.641,47.2441 "/>
<polyline clip-path="url(#clip042)" style="stroke:#000000; stroke-linecap:round; stroke-linejoin:round; stroke-width:2; stroke-opacity:0.1; fill:none" points="1273.35,1423.18 1273.35,47.2441 "/>
<polyline clip-path="url(#clip042)" style="stroke:#000000; stroke-linecap:round; stroke-linejoin:round; stroke-width:2; stroke-opacity:0.1; fill:none" points="1813.05,1423.18 1813.05,47.2441 "/>
<polyline clip-path="url(#clip042)" style="stroke:#000000; stroke-linecap:round; stroke-linejoin:round; stroke-width:2; stroke-opacity:0.1; fill:none" points="2352.76,1423.18 2352.76,47.2441 "/>
<polyline clip-path="url(#clip042)" style="stroke:#000000; stroke-linecap:round; stroke-linejoin:round; stroke-width:2; stroke-opacity:0.1; fill:none" points="193.936,1323.9 2352.76,1323.9 "/>
<polyline clip-path="url(#clip042)" style="stroke:#000000; stroke-linecap:round; stroke-linejoin:round; stroke-width:2; stroke-opacity:0.1; fill:none" points="193.936,1043.63 2352.76,1043.63 "/>
<polyline clip-path="url(#clip042)" style="stroke:#000000; stroke-linecap:round; stroke-linejoin:round; stroke-width:2; stroke-opacity:0.1; fill:none" points="193.936,763.361 2352.76,763.361 "/>
<polyline clip-path="url(#clip042)" style="stroke:#000000; stroke-linecap:round; stroke-linejoin:round; stroke-width:2; stroke-opacity:0.1; fill:none" points="193.936,483.089 2352.76,483.089 "/>
<polyline clip-path="url(#clip042)" style="stroke:#000000; stroke-linecap:round; stroke-linejoin:round; stroke-width:2; stroke-opacity:0.1; fill:none" points="193.936,202.817 2352.76,202.817 "/>
<polyline clip-path="url(#clip040)" style="stroke:#000000; stroke-linecap:round; stroke-linejoin:round; stroke-width:4; stroke-opacity:1; fill:none" points="193.936,1423.18 2352.76,1423.18 "/>
<polyline clip-path="url(#clip040)" style="stroke:#000000; stroke-linecap:round; stroke-linejoin:round; stroke-width:4; stroke-opacity:1; fill:none" points="193.936,1423.18 193.936,1404.28 "/>
<polyline clip-path="url(#clip040)" style="stroke:#000000; stroke-linecap:round; stroke-linejoin:round; stroke-width:4; stroke-opacity:1; fill:none" points="733.641,1423.18 733.641,1404.28 "/>
<polyline clip-path="url(#clip040)" style="stroke:#000000; stroke-linecap:round; stroke-linejoin:round; stroke-width:4; stroke-opacity:1; fill:none" points="1273.35,1423.18 1273.35,1404.28 "/>
<polyline clip-path="url(#clip040)" style="stroke:#000000; stroke-linecap:round; stroke-linejoin:round; stroke-width:4; stroke-opacity:1; fill:none" points="1813.05,1423.18 1813.05,1404.28 "/>
<polyline clip-path="url(#clip040)" style="stroke:#000000; stroke-linecap:round; stroke-linejoin:round; stroke-width:4; stroke-opacity:1; fill:none" points="2352.76,1423.18 2352.76,1404.28 "/>
<path clip-path="url(#clip040)" d="M171.32 1454.1 Q167.709 1454.1 165.881 1457.66 Q164.075 1461.2 164.075 1468.33 Q164.075 1475.44 165.881 1479.01 Q167.709 1482.55 171.32 1482.55 Q174.955 1482.55 176.76 1479.01 Q178.589 1475.44 178.589 1468.33 Q178.589 1461.2 176.76 1457.66 Q174.955 1454.1 171.32 1454.1 M171.32 1450.39 Q177.131 1450.39 180.186 1455 Q183.265 1459.58 183.265 1468.33 Q183.265 1477.06 180.186 1481.67 Q177.131 1486.25 171.32 1486.25 Q165.51 1486.25 162.432 1481.67 Q159.376 1477.06 159.376 1468.33 Q159.376 1459.58 162.432 1455 Q165.51 1450.39 171.32 1450.39 Z" fill="#000000" fill-rule="nonzero" fill-opacity="1" /><path clip-path="url(#clip040)" d="M191.482 1479.7 L196.367 1479.7 L196.367 1485.58 L191.482 1485.58 L191.482 1479.7 Z" fill="#000000" fill-rule="nonzero" fill-opacity="1" /><path clip-path="url(#clip040)" d="M216.552 1454.1 Q212.941 1454.1 211.112 1457.66 Q209.306 1461.2 209.306 1468.33 Q209.306 1475.44 211.112 1479.01 Q212.941 1482.55 216.552 1482.55 Q220.186 1482.55 221.991 1479.01 Q223.82 1475.44 223.82 1468.33 Q223.82 1461.2 221.991 1457.66 Q220.186 1454.1 216.552 1454.1 M216.552 1450.39 Q222.362 1450.39 225.417 1455 Q228.496 1459.58 228.496 1468.33 Q228.496 1477.06 225.417 1481.67 Q222.362 1486.25 216.552 1486.25 Q210.741 1486.25 207.663 1481.67 Q204.607 1477.06 204.607 1468.33 Q204.607 1459.58 207.663 1455 Q210.741 1450.39 216.552 1450.39 Z" fill="#000000" fill-rule="nonzero" fill-opacity="1" /><path clip-path="url(#clip040)" d="M711.523 1454.1 Q707.912 1454.1 706.083 1457.66 Q704.278 1461.2 704.278 1468.33 Q704.278 1475.44 706.083 1479.01 Q707.912 1482.55 711.523 1482.55 Q715.157 1482.55 716.963 1479.01 Q718.792 1475.44 718.792 1468.33 Q718.792 1461.2 716.963 1457.66 Q715.157 1454.1 711.523 1454.1 M711.523 1450.39 Q717.333 1450.39 720.389 1455 Q723.467 1459.58 723.467 1468.33 Q723.467 1477.06 720.389 1481.67 Q717.333 1486.25 711.523 1486.25 Q705.713 1486.25 702.634 1481.67 Q699.579 1477.06 699.579 1468.33 Q699.579 1459.58 702.634 1455 Q705.713 1450.39 711.523 1450.39 Z" fill="#000000" fill-rule="nonzero" fill-opacity="1" /><path clip-path="url(#clip040)" d="M731.685 1479.7 L736.569 1479.7 L736.569 1485.58 L731.685 1485.58 L731.685 1479.7 Z" fill="#000000" fill-rule="nonzero" fill-opacity="1" /><path clip-path="url(#clip040)" d="M746.801 1451.02 L765.157 1451.02 L765.157 1454.96 L751.083 1454.96 L751.083 1463.43 Q752.102 1463.08 753.12 1462.92 Q754.139 1462.73 755.157 1462.73 Q760.944 1462.73 764.324 1465.9 Q767.703 1469.08 767.703 1474.49 Q767.703 1480.07 764.231 1483.17 Q760.759 1486.25 754.439 1486.25 Q752.264 1486.25 749.995 1485.88 Q747.75 1485.51 745.342 1484.77 L745.342 1480.07 Q747.426 1481.2 749.648 1481.76 Q751.87 1482.32 754.347 1482.32 Q758.351 1482.32 760.689 1480.21 Q763.027 1478.1 763.027 1474.49 Q763.027 1470.88 760.689 1468.77 Q758.351 1466.67 754.347 1466.67 Q752.472 1466.67 750.597 1467.08 Q748.745 1467.5 746.801 1468.38 L746.801 1451.02 Z" fill="#000000" fill-rule="nonzero" fill-opacity="1" /><path clip-path="url(#clip040)" d="M1240.5 1481.64 L1248.14 1481.64 L1248.14 1455.28 L1239.83 1456.95 L1239.83 1452.69 L1248.09 1451.02 L1252.77 1451.02 L1252.77 1481.64 L1260.41 1481.64 L1260.41 1485.58 L1240.5 1485.58 L1240.5 1481.64 Z" fill="#000000" fill-rule="nonzero" fill-opacity="1" /><path clip-path="url(#clip040)" d="M1269.85 1479.7 L1274.73 1479.7 L1274.73 1485.58 L1269.85 1485.58 L1269.85 1479.7 Z" fill="#000000" fill-rule="nonzero" fill-opacity="1" /><path clip-path="url(#clip040)" d="M1294.92 1454.1 Q1291.31 1454.1 1289.48 1457.66 Q1287.67 1461.2 1287.67 1468.33 Q1287.67 1475.44 1289.48 1479.01 Q1291.31 1482.55 1294.92 1482.55 Q1298.55 1482.55 1300.36 1479.01 Q1302.19 1475.44 1302.19 1468.33 Q1302.19 1461.2 1300.36 1457.66 Q1298.55 1454.1 1294.92 1454.1 M1294.92 1450.39 Q1300.73 1450.39 1303.79 1455 Q1306.86 1459.58 1306.86 1468.33 Q1306.86 1477.06 1303.79 1481.67 Q1300.73 1486.25 1294.92 1486.25 Q1289.11 1486.25 1286.03 1481.67 Q1282.98 1477.06 1282.98 1468.33 Q1282.98 1459.58 1286.03 1455 Q1289.11 1450.39 1294.92 1450.39 Z" fill="#000000" fill-rule="nonzero" fill-opacity="1" /><path clip-path="url(#clip040)" d="M1780.7 1481.64 L1788.34 1481.64 L1788.34 1455.28 L1780.03 1456.95 L1780.03 1452.69 L1788.29 1451.02 L1792.97 1451.02 L1792.97 1481.64 L1800.61 1481.64 L1800.61 1485.58 L1780.7 1485.58 L1780.7 1481.64 Z" fill="#000000" fill-rule="nonzero" fill-opacity="1" /><path clip-path="url(#clip040)" d="M1810.05 1479.7 L1814.94 1479.7 L1814.94 1485.58 L1810.05 1485.58 L1810.05 1479.7 Z" fill="#000000" fill-rule="nonzero" fill-opacity="1" /><path clip-path="url(#clip040)" d="M1825.17 1451.02 L1843.53 1451.02 L1843.53 1454.96 L1829.45 1454.96 L1829.45 1463.43 Q1830.47 1463.08 1831.49 1462.92 Q1832.51 1462.73 1833.53 1462.73 Q1839.31 1462.73 1842.69 1465.9 Q1846.07 1469.08 1846.07 1474.49 Q1846.07 1480.07 1842.6 1483.17 Q1839.13 1486.25 1832.81 1486.25 Q1830.63 1486.25 1828.36 1485.88 Q1826.12 1485.51 1823.71 1484.77 L1823.71 1480.07 Q1825.79 1481.2 1828.02 1481.76 Q1830.24 1482.32 1832.72 1482.32 Q1836.72 1482.32 1839.06 1480.21 Q1841.4 1478.1 1841.4 1474.49 Q1841.4 1470.88 1839.06 1468.77 Q1836.72 1466.67 1832.72 1466.67 Q1830.84 1466.67 1828.97 1467.08 Q1827.11 1467.5 1825.17 1468.38 L1825.17 1451.02 Z" fill="#000000" fill-rule="nonzero" fill-opacity="1" /><path clip-path="url(#clip040)" d="M2323.99 1481.64 L2340.31 1481.64 L2340.31 1485.58 L2318.37 1485.58 L2318.37 1481.64 Q2321.03 1478.89 2325.61 1474.26 Q2330.22 1469.61 2331.4 1468.27 Q2333.65 1465.74 2334.53 1464.01 Q2335.43 1462.25 2335.43 1460.56 Q2335.43 1457.8 2333.49 1456.07 Q2331.56 1454.33 2328.46 1454.33 Q2326.26 1454.33 2323.81 1455.09 Q2321.38 1455.86 2318.6 1457.41 L2318.6 1452.69 Q2321.43 1451.55 2323.88 1450.97 Q2326.33 1450.39 2328.37 1450.39 Q2333.74 1450.39 2336.93 1453.08 Q2340.13 1455.77 2340.13 1460.26 Q2340.13 1462.39 2339.32 1464.31 Q2338.53 1466.2 2336.42 1468.8 Q2335.85 1469.47 2332.74 1472.69 Q2329.64 1475.88 2323.99 1481.64 Z" fill="#000000" fill-rule="nonzero" fill-opacity="1" /><path clip-path="url(#clip040)" d="M2350.13 1479.7 L2355.01 1479.7 L2355.01 1485.58 L2350.13 1485.58 L2350.13 1479.7 Z" fill="#000000" fill-rule="nonzero" fill-opacity="1" /><path clip-path="url(#clip040)" d="M2375.2 1454.1 Q2371.59 1454.1 2369.76 1457.66 Q2367.95 1461.2 2367.95 1468.33 Q2367.95 1475.44 2369.76 1479.01 Q2371.59 1482.55 2375.2 1482.55 Q2378.83 1482.55 2380.64 1479.01 Q2382.47 1475.44 2382.47 1468.33 Q2382.47 1461.2 2380.64 1457.66 Q2378.83 1454.1 2375.2 1454.1 M2375.2 1450.39 Q2381.01 1450.39 2384.06 1455 Q2387.14 1459.58 2387.14 1468.33 Q2387.14 1477.06 2384.06 1481.67 Q2381.01 1486.25 2375.2 1486.25 Q2369.39 1486.25 2366.31 1481.67 Q2363.25 1477.06 2363.25 1468.33 Q2363.25 1459.58 2366.31 1455 Q2369.39 1450.39 2375.2 1450.39 Z" fill="#000000" fill-rule="nonzero" fill-opacity="1" /><path clip-path="url(#clip040)" d="M1272.41 1522.27 L1272.41 1532.4 L1284.47 1532.4 L1284.47 1536.95 L1272.41 1536.95 L1272.41 1556.3 Q1272.41 1560.66 1273.58 1561.9 Q1274.79 1563.14 1278.45 1563.14 L1284.47 1563.14 L1284.47 1568.04 L1278.45 1568.04 Q1271.67 1568.04 1269.1 1565.53 Q1266.52 1562.98 1266.52 1556.3 L1266.52 1536.95 L1262.22 1536.95 L1262.22 1532.4 L1266.52 1532.4 L1266.52 1522.27 L1272.41 1522.27 Z" fill="#000000" fill-rule="nonzero" fill-opacity="1" /><polyline clip-path="url(#clip040)" style="stroke:#000000; stroke-linecap:round; stroke-linejoin:round; stroke-width:4; stroke-opacity:1; fill:none" points="193.936,1423.18 193.936,47.2441 "/>
<polyline clip-path="url(#clip040)" style="stroke:#000000; stroke-linecap:round; stroke-linejoin:round; stroke-width:4; stroke-opacity:1; fill:none" points="193.936,1323.9 212.834,1323.9 "/>
<polyline clip-path="url(#clip040)" style="stroke:#000000; stroke-linecap:round; stroke-linejoin:round; stroke-width:4; stroke-opacity:1; fill:none" points="193.936,1043.63 212.834,1043.63 "/>
<polyline clip-path="url(#clip040)" style="stroke:#000000; stroke-linecap:round; stroke-linejoin:round; stroke-width:4; stroke-opacity:1; fill:none" points="193.936,763.361 212.834,763.361 "/>
<polyline clip-path="url(#clip040)" style="stroke:#000000; stroke-linecap:round; stroke-linejoin:round; stroke-width:4; stroke-opacity:1; fill:none" points="193.936,483.089 212.834,483.089 "/>
<polyline clip-path="url(#clip040)" style="stroke:#000000; stroke-linecap:round; stroke-linejoin:round; stroke-width:4; stroke-opacity:1; fill:none" points="193.936,202.817 212.834,202.817 "/>
<path clip-path="url(#clip040)" d="M51.9875 1324.36 L81.6633 1324.36 L81.6633 1328.29 L51.9875 1328.29 L51.9875 1324.36 Z" fill="#000000" fill-rule="nonzero" fill-opacity="1" /><path clip-path="url(#clip040)" d="M92.566 1337.25 L100.205 1337.25 L100.205 1310.88 L91.8947 1312.55 L91.8947 1308.29 L100.159 1306.62 L104.834 1306.62 L104.834 1337.25 L112.473 1337.25 L112.473 1341.18 L92.566 1341.18 L92.566 1337.25 Z" fill="#000000" fill-rule="nonzero" fill-opacity="1" /><path clip-path="url(#clip040)" d="M121.918 1335.31 L126.802 1335.31 L126.802 1341.18 L121.918 1341.18 L121.918 1335.31 Z" fill="#000000" fill-rule="nonzero" fill-opacity="1" /><path clip-path="url(#clip040)" d="M137.033 1306.62 L155.39 1306.62 L155.39 1310.56 L141.316 1310.56 L141.316 1319.03 Q142.334 1318.68 143.353 1318.52 Q144.371 1318.34 145.39 1318.34 Q151.177 1318.34 154.556 1321.51 Q157.936 1324.68 157.936 1330.1 Q157.936 1335.68 154.464 1338.78 Q150.992 1341.86 144.672 1341.86 Q142.496 1341.86 140.228 1341.49 Q137.982 1341.12 135.575 1340.37 L135.575 1335.68 Q137.658 1336.81 139.881 1337.37 Q142.103 1337.92 144.58 1337.92 Q148.584 1337.92 150.922 1335.81 Q153.26 1333.71 153.26 1330.1 Q153.26 1326.49 150.922 1324.38 Q148.584 1322.27 144.58 1322.27 Q142.705 1322.27 140.83 1322.69 Q138.978 1323.11 137.033 1323.99 L137.033 1306.62 Z" fill="#000000" fill-rule="nonzero" fill-opacity="1" /><path clip-path="url(#clip040)" d="M50.9921 1044.08 L80.6679 1044.08 L80.6679 1048.02 L50.9921 1048.02 L50.9921 1044.08 Z" fill="#000000" fill-rule="nonzero" fill-opacity="1" /><path clip-path="url(#clip040)" d="M91.5706 1056.98 L99.2095 1056.98 L99.2095 1030.61 L90.8993 1032.28 L90.8993 1028.02 L99.1632 1026.35 L103.839 1026.35 L103.839 1056.98 L111.478 1056.98 L111.478 1060.91 L91.5706 1060.91 L91.5706 1056.98 Z" fill="#000000" fill-rule="nonzero" fill-opacity="1" /><path clip-path="url(#clip040)" d="M120.922 1055.03 L125.807 1055.03 L125.807 1060.91 L120.922 1060.91 L120.922 1055.03 Z" fill="#000000" fill-rule="nonzero" fill-opacity="1" /><path clip-path="url(#clip040)" d="M145.992 1029.43 Q142.381 1029.43 140.552 1033 Q138.746 1036.54 138.746 1043.67 Q138.746 1050.77 140.552 1054.34 Q142.381 1057.88 145.992 1057.88 Q149.626 1057.88 151.431 1054.34 Q153.26 1050.77 153.26 1043.67 Q153.26 1036.54 151.431 1033 Q149.626 1029.43 145.992 1029.43 M145.992 1025.73 Q151.802 1025.73 154.857 1030.33 Q157.936 1034.92 157.936 1043.67 Q157.936 1052.39 154.857 1057 Q151.802 1061.58 145.992 1061.58 Q140.181 1061.58 137.103 1057 Q134.047 1052.39 134.047 1043.67 Q134.047 1034.92 137.103 1030.33 Q140.181 1025.73 145.992 1025.73 Z" fill="#000000" fill-rule="nonzero" fill-opacity="1" /><path clip-path="url(#clip040)" d="M51.9875 763.812 L81.6633 763.812 L81.6633 767.747 L51.9875 767.747 L51.9875 763.812 Z" fill="#000000" fill-rule="nonzero" fill-opacity="1" /><path clip-path="url(#clip040)" d="M101.756 749.159 Q98.1447 749.159 96.316 752.724 Q94.5104 756.266 94.5104 763.395 Q94.5104 770.502 96.316 774.067 Q98.1447 777.608 101.756 777.608 Q105.39 777.608 107.196 774.067 Q109.024 770.502 109.024 763.395 Q109.024 756.266 107.196 752.724 Q105.39 749.159 101.756 749.159 M101.756 745.456 Q107.566 745.456 110.621 750.062 Q113.7 754.645 113.7 763.395 Q113.7 772.122 110.621 776.729 Q107.566 781.312 101.756 781.312 Q95.9456 781.312 92.8669 776.729 Q89.8114 772.122 89.8114 763.395 Q89.8114 754.645 92.8669 750.062 Q95.9456 745.456 101.756 745.456 Z" fill="#000000" fill-rule="nonzero" fill-opacity="1" /><path clip-path="url(#clip040)" d="M121.918 774.761 L126.802 774.761 L126.802 780.641 L121.918 780.641 L121.918 774.761 Z" fill="#000000" fill-rule="nonzero" fill-opacity="1" /><path clip-path="url(#clip040)" d="M137.033 746.081 L155.39 746.081 L155.39 750.016 L141.316 750.016 L141.316 758.488 Q142.334 758.141 143.353 757.979 Q144.371 757.794 145.39 757.794 Q151.177 757.794 154.556 760.965 Q157.936 764.136 157.936 769.553 Q157.936 775.131 154.464 778.233 Q150.992 781.312 144.672 781.312 Q142.496 781.312 140.228 780.942 Q137.982 780.571 135.575 779.83 L135.575 775.131 Q137.658 776.266 139.881 776.821 Q142.103 777.377 144.58 777.377 Q148.584 777.377 150.922 775.27 Q153.26 773.164 153.26 769.553 Q153.26 765.942 150.922 763.835 Q148.584 761.729 144.58 761.729 Q142.705 761.729 140.83 762.145 Q138.978 762.562 137.033 763.442 L137.033 746.081 Z" fill="#000000" fill-rule="nonzero" fill-opacity="1" /><path clip-path="url(#clip040)" d="M100.76 468.887 Q97.1493 468.887 95.3206 472.452 Q93.515 475.994 93.515 483.123 Q93.515 490.23 95.3206 493.795 Q97.1493 497.336 100.76 497.336 Q104.395 497.336 106.2 493.795 Q108.029 490.23 108.029 483.123 Q108.029 475.994 106.2 472.452 Q104.395 468.887 100.76 468.887 M100.76 465.184 Q106.571 465.184 109.626 469.79 Q112.705 474.373 112.705 483.123 Q112.705 491.85 109.626 496.457 Q106.571 501.04 100.76 501.04 Q94.9502 501.04 91.8715 496.457 Q88.816 491.85 88.816 483.123 Q88.816 474.373 91.8715 469.79 Q94.9502 465.184 100.76 465.184 Z" fill="#000000" fill-rule="nonzero" fill-opacity="1" /><path clip-path="url(#clip040)" d="M120.922 494.489 L125.807 494.489 L125.807 500.369 L120.922 500.369 L120.922 494.489 Z" fill="#000000" fill-rule="nonzero" fill-opacity="1" /><path clip-path="url(#clip040)" d="M145.992 468.887 Q142.381 468.887 140.552 472.452 Q138.746 475.994 138.746 483.123 Q138.746 490.23 140.552 493.795 Q142.381 497.336 145.992 497.336 Q149.626 497.336 151.431 493.795 Q153.26 490.23 153.26 483.123 Q153.26 475.994 151.431 472.452 Q149.626 468.887 145.992 468.887 M145.992 465.184 Q151.802 465.184 154.857 469.79 Q157.936 474.373 157.936 483.123 Q157.936 491.85 154.857 496.457 Q151.802 501.04 145.992 501.04 Q140.181 501.04 137.103 496.457 Q134.047 491.85 134.047 483.123 Q134.047 474.373 137.103 469.79 Q140.181 465.184 145.992 465.184 Z" fill="#000000" fill-rule="nonzero" fill-opacity="1" /><path clip-path="url(#clip040)" d="M101.756 188.615 Q98.1447 188.615 96.316 192.18 Q94.5104 195.722 94.5104 202.851 Q94.5104 209.958 96.316 213.523 Q98.1447 217.064 101.756 217.064 Q105.39 217.064 107.196 213.523 Q109.024 209.958 109.024 202.851 Q109.024 195.722 107.196 192.18 Q105.39 188.615 101.756 188.615 M101.756 184.912 Q107.566 184.912 110.621 189.518 Q113.7 194.101 113.7 202.851 Q113.7 211.578 110.621 216.185 Q107.566 220.768 101.756 220.768 Q95.9456 220.768 92.8669 216.185 Q89.8114 211.578 89.8114 202.851 Q89.8114 194.101 92.8669 189.518 Q95.9456 184.912 101.756 184.912 Z" fill="#000000" fill-rule="nonzero" fill-opacity="1" /><path clip-path="url(#clip040)" d="M121.918 214.217 L126.802 214.217 L126.802 220.097 L121.918 220.097 L121.918 214.217 Z" fill="#000000" fill-rule="nonzero" fill-opacity="1" /><path clip-path="url(#clip040)" d="M137.033 185.537 L155.39 185.537 L155.39 189.472 L141.316 189.472 L141.316 197.944 Q142.334 197.597 143.353 197.435 Q144.371 197.249 145.39 197.249 Q151.177 197.249 154.556 200.421 Q157.936 203.592 157.936 209.009 Q157.936 214.587 154.464 217.689 Q150.992 220.768 144.672 220.768 Q142.496 220.768 140.228 220.397 Q137.982 220.027 135.575 219.286 L135.575 214.587 Q137.658 215.722 139.881 216.277 Q142.103 216.833 144.58 216.833 Q148.584 216.833 150.922 214.726 Q153.26 212.62 153.26 209.009 Q153.26 205.398 150.922 203.291 Q148.584 201.185 144.58 201.185 Q142.705 201.185 140.83 201.601 Q138.978 202.018 137.033 202.898 L137.033 185.537 Z" fill="#000000" fill-rule="nonzero" fill-opacity="1" /><polyline clip-path="url(#clip042)" style="stroke:#009af9; stroke-linecap:round; stroke-linejoin:round; stroke-width:4; stroke-opacity:1; fill:none" points="193.936,86.1857 196.097,88.5532 198.258,90.8972 200.419,93.2179 202.58,95.5154 204.741,97.79 206.902,100.042 209.063,102.272 211.224,104.479 213.385,106.664 215.546,108.828 217.707,110.97 219.868,113.091 222.029,115.19 224.19,117.269 226.351,119.327 228.512,121.364 230.673,123.381 232.834,125.378 234.995,127.356 237.156,129.313 239.317,131.251 241.478,133.17 243.639,135.069 245.8,136.95 247.961,138.812 250.122,140.655 252.282,142.48 254.443,144.287 256.604,146.076 258.765,147.847 260.926,149.601 263.087,151.337 265.248,153.055 267.409,154.757 269.57,156.441 271.731,158.109 273.892,159.76 276.053,161.395 278.214,163.014 280.375,164.616 282.536,166.202 284.697,167.773 286.858,169.328 289.019,170.867 291.18,172.392 293.341,173.9 295.502,175.394 297.663,176.873 299.824,178.338 301.985,179.787 304.146,181.223 306.307,182.644 308.468,184.05 310.629,185.443 312.79,186.822 314.951,188.187 317.112,189.539 319.273,190.877 321.434,192.202 323.595,193.513 325.756,194.812 327.917,196.098 330.078,197.37 332.239,198.631 334.4,199.878 336.561,201.113 338.722,202.336 340.883,203.547 343.044,204.746 345.205,205.932 347.366,207.107 349.527,208.271 351.688,209.422 353.849,210.562 356.01,211.691 358.171,212.809 360.332,213.915 362.493,215.01 364.653,216.095 366.814,217.169 368.975,218.232 371.136,219.284 373.297,220.326 375.458,221.357 377.619,222.379 379.78,223.39 381.941,224.391 384.102,225.382 386.263,226.363 388.424,227.334 390.585,228.296 392.746,229.248 394.907,230.19 397.068,231.124 399.229,232.048 401.39,232.962 403.551,233.868 405.712,234.764 407.873,235.652 410.034,236.531 412.195,237.401 414.356,238.262 416.517,239.115 418.678,239.96 420.839,240.796 423,241.623 425.161,242.443 427.322,243.254 429.483,244.057 431.644,244.852 433.805,245.639 435.966,246.419 438.127,247.19 440.288,247.954 442.449,248.711 444.61,249.46 446.771,250.201 448.932,250.935 451.093,251.662 453.254,252.381 455.415,253.094 457.576,253.799 459.737,254.497 461.898,255.188 464.059,255.872 466.22,256.55 468.381,257.221 470.542,257.885 472.703,258.542 474.864,259.193 477.024,259.837 479.185,260.475 481.346,261.107 483.507,261.732 485.668,262.351 487.829,262.964 489.99,263.571 492.151,264.172 494.312,264.766 496.473,265.355 498.634,265.938 500.795,266.515 502.956,267.087 505.117,267.653 507.278,268.213 509.439,268.767 511.6,269.316 513.761,269.86 515.922,270.398 518.083,270.93 520.244,271.458 522.405,271.98 524.566,272.497 526.727,273.009 528.888,273.516 531.049,274.017 533.21,274.514 535.371,275.006 537.532,275.493 539.693,275.975 541.854,276.452 544.015,276.925 546.176,277.393 548.337,277.856 550.498,278.314 552.659,278.768 554.82,279.218 556.981,279.663 559.142,280.103 561.303,280.54 563.464,280.971 565.625,281.399 567.786,281.822 569.947,282.241 572.108,282.656 574.269,283.067 576.43,283.474 578.591,283.876 580.752,284.275 582.913,284.669 585.074,285.06 587.235,285.447 589.396,285.83 591.556,286.209 593.717,286.584 595.878,286.956 598.039,287.324 600.2,287.688 602.361,288.048 604.522,288.405 606.683,288.759 608.844,289.109 611.005,289.455 613.166,289.798 615.327,290.137 617.488,290.473 619.649,290.806 621.81,291.136 623.971,291.462 626.132,291.785 628.293,292.105 630.454,292.421 632.615,292.734 634.776,293.045 636.937,293.352 639.098,293.656 641.259,293.957 643.42,294.255 645.581,294.55 647.742,294.842 649.903,295.132 652.064,295.418 654.225,295.702 656.386,295.982 658.547,296.26 660.708,296.535 662.869,296.808 665.03,297.078 667.191,297.345 669.352,297.609 671.513,297.871 673.674,298.13 675.835,298.387 677.996,298.641 680.157,298.892 682.318,299.142 684.479,299.388 686.64,299.632 688.801,299.874 690.962,300.113 693.123,300.35 695.284,300.585 697.445,300.817 699.606,301.047 701.767,301.274 703.927,301.5 706.088,301.723 708.249,301.943 710.41,302.162 712.571,302.379 714.732,302.593 716.893,302.805 719.054,303.015 721.215,303.223 723.376,303.429 725.537,303.633 727.698,303.834 729.859,304.034 732.02,304.232 734.181,304.428 736.342,304.621 738.503,304.813 740.664,305.003 742.825,305.191 744.986,305.378 747.147,305.562 749.308,305.744 751.469,305.925 753.63,306.104 755.791,306.281 757.952,306.456 760.113,306.63 762.274,306.802 764.435,306.972 766.596,307.14 768.757,307.307 770.918,307.472 773.079,307.636 775.24,307.798 777.401,307.958 779.562,308.116 781.723,308.274 783.884,308.429 786.045,308.583 788.206,308.735 790.367,308.886 792.528,309.036 794.689,309.184 796.85,309.33 799.011,309.475 801.172,309.619 803.333,309.761 805.494,309.902 807.655,310.041 809.816,310.179 811.977,310.315 814.138,310.451 816.298,310.585 818.459,310.717 820.62,310.848 822.781,310.978 824.942,311.107 827.103,311.234 829.264,311.36 831.425,311.485 833.586,311.609 835.747,311.731 837.908,311.852 840.069,311.972 842.23,312.091 844.391,312.209 846.552,312.325 848.713,312.44 850.874,312.554 853.035,312.667 855.196,312.779 857.357,312.89 859.518,312.999 861.679,313.108 863.84,313.215 866.001,313.322 868.162,313.427 870.323,313.531 872.484,313.634 874.645,313.736 876.806,313.837 878.967,313.938 881.128,314.037 883.289,314.135 885.45,314.232 887.611,314.328 889.772,314.423 891.933,314.518 894.094,314.611 896.255,314.703 898.416,314.795 900.577,314.885 902.738,314.975 904.899,315.064 907.06,315.152 909.221,315.239 911.382,315.325 913.543,315.41 915.704,315.494 917.865,315.578 920.026,315.661 922.187,315.743 924.348,315.824 926.509,315.904 928.669,315.984 930.83,316.062 932.991,316.14 935.152,316.217 937.313,316.294 939.474,316.369 941.635,316.444 943.796,316.518 945.957,316.592 948.118,316.665 950.279,316.737 952.44,316.808 954.601,316.878 956.762,316.948 958.923,317.017 961.084,317.086 963.245,317.154 965.406,317.221 967.567,317.287 969.728,317.353 971.889,317.418 974.05,317.483 976.211,317.547 978.372,317.61 980.533,317.672 982.694,317.734 984.855,317.796 987.016,317.856 989.177,317.917 991.338,317.976 993.499,318.035 995.66,318.093 997.821,318.151 999.982,318.208 1002.14,318.265 1004.3,318.321 1006.46,318.377 1008.63,318.432 1010.79,318.486 1012.95,318.54 1015.11,318.593 1017.27,318.646 1019.43,318.698 1021.59,318.75 1023.75,318.801 1025.91,318.852 1028.07,318.902 1030.24,318.952 1032.4,319.001 1034.56,319.05 1036.72,319.098 1038.88,319.146 1041.04,319.193 1043.2,319.24 1045.36,319.286 1047.52,319.332 1049.68,319.377 1051.85,319.422 1054.01,319.467 1056.17,319.511 1058.33,319.554 1060.49,319.597 1062.65,319.64 1064.81,319.682 1066.97,319.724 1069.13,319.766 1071.29,319.807 1073.46,319.847 1075.62,319.888 1077.78,319.927 1079.94,319.967 1082.1,320.006 1084.26,320.044 1086.42,320.083 1088.58,320.121 1090.74,320.158 1092.9,320.195 1095.07,320.232 1097.23,320.268 1099.39,320.304 1101.55,320.34 1103.71,320.375 1105.87,320.41 1108.03,320.445 1110.19,320.479 1112.35,320.513 1114.51,320.547 1116.67,320.58 1118.84,320.613 1121,320.646 1123.16,320.678 1125.32,320.71 1127.48,320.742 1129.64,320.773 1131.8,320.804 1133.96,320.835 1136.12,320.865 1138.28,320.895 1140.45,320.925 1142.61,320.955 1144.77,320.984 1146.93,321.013 1149.09,321.042 1151.25,321.07 1153.41,321.098 1155.57,321.126 1157.73,321.154 1159.89,321.181 1162.06,321.208 1164.22,321.235 1166.38,321.261 1168.54,321.288 1170.7,321.314 1172.86,321.339 1175.02,321.365 1177.18,321.39 1179.34,321.415 1181.5,321.44 1183.67,321.464 1185.83,321.488 1187.99,321.512 1190.15,321.536 1192.31,321.559 1194.47,321.583 1196.63,321.606 1198.79,321.628 1200.95,321.651 1203.11,321.673 1205.28,321.695 1207.44,321.717 1209.6,321.739 1211.76,321.76 1213.92,321.782 1216.08,321.803 1218.24,321.823 1220.4,321.844 1222.56,321.864 1224.72,321.885 1226.88,321.905 1229.05,321.924 1231.21,321.944 1233.37,321.963 1235.53,321.982 1237.69,322.001 1239.85,322.02 1242.01,322.039 1244.17,322.057 1246.33,322.075 1248.49,322.094 1250.66,322.111 1252.82,322.129 1254.98,322.147 1257.14,322.164 1259.3,322.181 1261.46,322.198 1263.62,322.215 1265.78,322.232 1267.94,322.248 1270.1,322.264 1272.27,322.28 1274.43,322.296 1276.59,322.312 1278.75,322.328 1280.91,322.343 1283.07,322.359 1285.23,322.374 1287.39,322.389 1289.55,322.404 1291.71,322.419 1293.88,322.433 1296.04,322.448 1298.2,322.462 1300.36,322.476 1302.52,322.49 1304.68,322.504 1306.84,322.518 1309,322.532 1311.16,322.545 1313.32,322.559 1315.49,322.572 1317.65,322.585 1319.81,322.598 1321.97,322.611 1324.13,322.623 1326.29,322.636 1328.45,322.648 1330.61,322.661 1332.77,322.673 1334.93,322.685 1337.09,322.697 1339.26,322.709 1341.42,322.721 1343.58,322.733 1345.74,322.744 1347.9,322.756 1350.06,322.767 1352.22,322.778 1354.38,322.789 1356.54,322.8 1358.7,322.811 1360.87,322.822 1363.03,322.833 1365.19,322.843 1367.35,322.854 1369.51,322.864 1371.67,322.874 1373.83,322.884 1375.99,322.894 1378.15,322.904 1380.31,322.914 1382.48,322.924 1384.64,322.934 1386.8,322.943 1388.96,322.953 1391.12,322.962 1393.28,322.971 1395.44,322.981 1397.6,322.99 1399.76,322.999 1401.92,323.008 1404.09,323.016 1406.25,323.025 1408.41,323.034 1410.57,323.042 1412.73,323.051 1414.89,323.059 1417.05,323.067 1419.21,323.076 1421.37,323.084 1423.53,323.092 1425.7,323.1 1427.86,323.108 1430.02,323.116 1432.18,323.123 1434.34,323.131 1436.5,323.139 1438.66,323.146 1440.82,323.153 1442.98,323.161 1445.14,323.168 1447.3,323.175 1449.47,323.182 1451.63,323.189 1453.79,323.196 1455.95,323.203 1458.11,323.21 1460.27,323.217 1462.43,323.224 1464.59,323.23 1466.75,323.237 1468.91,323.243 1471.08,323.25 1473.24,323.256 1475.4,323.262 1477.56,323.269 1479.72,323.275 1481.88,323.281 1484.04,323.287 1486.2,323.293 1488.36,323.299 1490.52,323.305 1492.69,323.31 1494.85,323.316 1497.01,323.322 1499.17,323.327 1501.33,323.333 1503.49,323.338 1505.65,323.344 1507.81,323.349 1509.97,323.355 1512.13,323.36 1514.3,323.365 1516.46,323.37 1518.62,323.376 1520.78,323.381 1522.94,323.386 1525.1,323.391 1527.26,323.396 1529.42,323.4 1531.58,323.405 1533.74,323.41 1535.91,323.415 1538.07,323.42 1540.23,323.424 1542.39,323.429 1544.55,323.433 1546.71,323.438 1548.87,323.442 1551.03,323.447 1553.19,323.451 1555.35,323.456 1557.51,323.46 1559.68,323.464 1561.84,323.468 1564,323.473 1566.16,323.477 1568.32,323.481 1570.48,323.485 1572.64,323.489 1574.8,323.493 1576.96,323.497 1579.12,323.501 1581.29,323.505 1583.45,323.509 1585.61,323.512 1587.77,323.516 1589.93,323.52 1592.09,323.524 1594.25,323.527 1596.41,323.531 1598.57,323.535 1600.73,323.538 1602.9,323.542 1605.06,323.545 1607.22,323.549 1609.38,323.552 1611.54,323.555 1613.7,323.559 1615.86,323.562 1618.02,323.565 1620.18,323.569 1622.34,323.572 1624.51,323.575 1626.67,323.578 1628.83,323.581 1630.99,323.585 1633.15,323.588 1635.31,323.591 1637.47,323.594 1639.63,323.597 1641.79,323.6 1643.95,323.602 1646.12,323.605 1648.28,323.608 1650.44,323.611 1652.6,323.614 1654.76,323.617 1656.92,323.619 1659.08,323.622 1661.24,323.625 1663.4,323.627 1665.56,323.63 1667.72,323.633 1669.89,323.635 1672.05,323.638 1674.21,323.64 1676.37,323.643 1678.53,323.645 1680.69,323.648 1682.85,323.65 1685.01,323.653 1687.17,323.655 1689.33,323.657 1691.5,323.66 1693.66,323.662 1695.82,323.664 1697.98,323.667 1700.14,323.669 1702.3,323.671 1704.46,323.673 1706.62,323.675 1708.78,323.677 1710.94,323.68 1713.11,323.682 1715.27,323.684 1717.43,323.686 1719.59,323.688 1721.75,323.69 1723.91,323.692 1726.07,323.694 1728.23,323.696 1730.39,323.698 1732.55,323.7 1734.72,323.701 1736.88,323.703 1739.04,323.705 1741.2,323.707 1743.36,323.709 1745.52,323.711 1747.68,323.712 1749.84,323.714 1752,323.716 1754.16,323.718 1756.33,323.719 1758.49,323.721 1760.65,323.723 1762.81,323.724 1764.97,323.726 1767.13,323.727 1769.29,323.729 1771.45,323.731 1773.61,323.732 1775.77,323.734 1777.93,323.735 1780.1,323.737 1782.26,323.738 1784.42,323.74 1786.58,323.741 1788.74,323.743 1790.9,323.744 1793.06,323.745 1795.22,323.747 1797.38,323.748 1799.54,323.75 1801.71,323.751 1803.87,323.752 1806.03,323.754 1808.19,323.755 1810.35,323.756 1812.51,323.758 1814.67,323.759 1816.83,323.76 1818.99,323.762 1821.15,323.763 1823.32,323.764 1825.48,323.765 1827.64,323.766 1829.8,323.768 1831.96,323.769 1834.12,323.77 1836.28,323.771 1838.44,323.772 1840.6,323.774 1842.76,323.775 1844.93,323.776 1847.09,323.777 1849.25,323.778 1851.41,323.779 1853.57,323.78 1855.73,323.781 1857.89,323.783 1860.05,323.784 1862.21,323.785 1864.37,323.786 1866.54,323.787 1868.7,323.788 1870.86,323.789 1873.02,323.79 1875.18,323.791 1877.34,323.792 1879.5,323.793 1881.66,323.794 1883.82,323.795 1885.98,323.796 1888.15,323.797 1890.31,323.798 1892.47,323.799 1894.63,323.8 1896.79,323.801 1898.95,323.801 1901.11,323.802 1903.27,323.803 1905.43,323.804 1907.59,323.805 1909.75,323.806 1911.92,323.807 1914.08,323.808 1916.24,323.808 1918.4,323.809 1920.56,323.81 1922.72,323.811 1924.88,323.812 1927.04,323.812 1929.2,323.813 1931.36,323.814 1933.53,323.815 1935.69,323.816 1937.85,323.816 1940.01,323.817 1942.17,323.818 1944.33,323.819 1946.49,323.819 1948.65,323.82 1950.81,323.821 1952.97,323.821 1955.14,323.822 1957.3,323.823 1959.46,323.824 1961.62,323.824 1963.78,323.825 1965.94,323.826 1968.1,323.826 1970.26,323.827 1972.42,323.828 1974.58,323.828 1976.75,323.829 1978.91,323.829 1981.07,323.83 1983.23,323.831 1985.39,323.831 1987.55,323.832 1989.71,323.832 1991.87,323.833 1994.03,323.834 1996.19,323.834 1998.36,323.835 2000.52,323.835 2002.68,323.836 2004.84,323.836 2007,323.837 2009.16,323.837 2011.32,323.838 2013.48,323.838 2015.64,323.839 2017.8,323.839 2019.96,323.84 2022.13,323.84 2024.29,323.841 2026.45,323.841 2028.61,323.842 2030.77,323.842 2032.93,323.843 2035.09,323.843 2037.25,323.844 2039.41,323.844 2041.57,323.845 2043.74,323.845 2045.9,323.846 2048.06,323.846 2050.22,323.846 2052.38,323.847 2054.54,323.847 2056.7,323.848 2058.86,323.848 2061.02,323.848 2063.18,323.849 2065.35,323.849 2067.51,323.85 2069.67,323.85 2071.83,323.85 2073.99,323.851 2076.15,323.851 2078.31,323.852 2080.47,323.852 2082.63,323.852 2084.79,323.853 2086.96,323.853 2089.12,323.853 2091.28,323.854 2093.44,323.854 2095.6,323.854 2097.76,323.855 2099.92,323.855 2102.08,323.855 2104.24,323.856 2106.4,323.856 2108.57,323.856 2110.73,323.857 2112.89,323.857 2115.05,323.857 2117.21,323.858 2119.37,323.858 2121.53,323.858 2123.69,323.858 2125.85,323.859 2128.01,323.859 2130.17,323.859 2132.34,323.86 2134.5,323.86 2136.66,323.86 2138.82,323.86 2140.98,323.861 2143.14,323.861 2145.3,323.861 2147.46,323.862 2149.62,323.862 2151.78,323.862 2153.95,323.862 2156.11,323.863 2158.27,323.863 2160.43,323.863 2162.59,323.863 2164.75,323.864 2166.91,323.864 2169.07,323.864 2171.23,323.864 2173.39,323.865 2175.56,323.865 2177.72,323.865 2179.88,323.865 2182.04,323.866 2184.2,323.866 2186.36,323.866 2188.52,323.866 2190.68,323.867 2192.84,323.867 2195,323.867 2197.17,323.867 2199.33,323.868 2201.49,323.868 2203.65,323.868 2205.81,323.868 2207.97,323.868 2210.13,323.869 2212.29,323.869 2214.45,323.869 2216.61,323.869 2218.78,323.87 2220.94,323.87 2223.1,323.87 2225.26,323.87 2227.42,323.87 2229.58,323.871 2231.74,323.871 2233.9,323.871 2236.06,323.871 2238.22,323.871 2240.38,323.871 2242.55,323.872 2244.71,323.872 2246.87,323.872 2249.03,323.872 2251.19,323.872 2253.35,323.873 2255.51,323.873 2257.67,323.873 2259.83,323.873 2261.99,323.873 2264.16,323.873 2266.32,323.874 2268.48,323.874 2270.64,323.874 2272.8,323.874 2274.96,323.874 2277.12,323.874 2279.28,323.875 2281.44,323.875 2283.6,323.875 2285.77,323.875 2287.93,323.875 2290.09,323.875 2292.25,323.875 2294.41,323.876 2296.57,323.876 2298.73,323.876 2300.89,323.876 2303.05,323.876 2305.21,323.876 2307.38,323.876 2309.54,323.877 2311.7,323.877 2313.86,323.877 2316.02,323.877 2318.18,323.877 2320.34,323.877 2322.5,323.877 2324.66,323.877 2326.82,323.878 2328.99,323.878 2331.15,323.878 2333.31,323.878 2335.47,323.878 2337.63,323.878 2339.79,323.878 2341.95,323.878 2344.11,323.879 2346.27,323.879 2348.43,323.879 2350.59,323.879 2352.76,323.879 "/>
<polyline clip-path="url(#clip042)" style="stroke:#e26f46; stroke-linecap:round; stroke-linejoin:round; stroke-width:4; stroke-opacity:1; fill:none" points="193.936,1384.24 196.097,1376.31 198.258,1368.45 200.419,1360.65 202.58,1352.91 204.741,1345.24 206.902,1337.62 209.063,1330.07 211.224,1322.58 213.385,1315.14 215.546,1307.77 217.707,1300.45 219.868,1293.19 222.029,1285.99 224.19,1278.84 226.351,1271.76 228.512,1264.72 230.673,1257.75 232.834,1250.83 234.995,1243.96 237.156,1237.15 239.317,1230.39 241.478,1223.68 243.639,1217.03 245.8,1210.43 247.961,1203.88 250.122,1197.39 252.282,1190.94 254.443,1184.55 256.604,1178.2 258.765,1171.91 260.926,1165.66 263.087,1159.47 265.248,1153.32 267.409,1147.22 269.57,1141.17 271.731,1135.17 273.892,1129.21 276.053,1123.3 278.214,1117.43 280.375,1111.62 282.536,1105.84 284.697,1100.12 286.858,1094.43 289.019,1088.79 291.18,1083.2 293.341,1077.65 295.502,1072.14 297.663,1066.68 299.824,1061.25 301.985,1055.87 304.146,1050.54 306.307,1045.24 308.468,1039.98 310.629,1034.77 312.79,1029.59 314.951,1024.46 317.112,1019.36 319.273,1014.31 321.434,1009.29 323.595,1004.32 325.756,999.377 327.917,994.477 330.078,989.614 332.239,984.789 334.4,980.001 336.561,975.251 338.722,970.536 340.883,965.858 343.044,961.216 345.205,956.61 347.366,952.039 349.527,947.504 351.688,943.003 353.849,938.537 356.01,934.105 358.171,929.707 360.332,925.343 362.493,921.012 364.653,916.715 366.814,912.451 368.975,908.219 371.136,904.019 373.297,899.852 375.458,895.717 377.619,891.613 379.78,887.541 381.941,883.499 384.102,879.489 386.263,875.509 388.424,871.559 390.585,867.64 392.746,863.75 394.907,859.89 397.068,856.06 399.229,852.258 401.39,848.485 403.551,844.741 405.712,841.026 407.873,837.338 410.034,833.679 412.195,830.047 414.356,826.443 416.517,822.866 418.678,819.316 420.839,815.794 423,812.297 425.161,808.827 427.322,805.383 429.483,801.966 431.644,798.574 433.805,795.207 435.966,791.866 438.127,788.55 440.288,785.259 442.449,781.993 444.61,778.751 446.771,775.534 448.932,772.341 451.093,769.172 453.254,766.027 455.415,762.905 457.576,759.807 459.737,756.732 461.898,753.68 464.059,750.651 466.22,747.645 468.381,744.661 470.542,741.699 472.703,738.76 474.864,735.842 477.024,732.947 479.185,730.073 481.346,727.22 483.507,724.389 485.668,721.579 487.829,718.789 489.99,716.021 492.151,713.273 494.312,710.546 496.473,707.838 498.634,705.151 500.795,702.484 502.956,699.837 505.117,697.209 507.278,694.601 509.439,692.012 511.6,689.443 513.761,686.892 515.922,684.36 518.083,681.847 520.244,679.353 522.405,676.877 524.566,674.419 526.727,671.98 528.888,669.558 531.049,667.154 533.21,664.768 535.371,662.4 537.532,660.049 539.693,657.715 541.854,655.398 544.015,653.098 546.176,650.816 548.337,648.55 550.498,646.3 552.659,644.067 554.82,641.851 556.981,639.651 559.142,637.467 561.303,635.298 563.464,633.146 565.625,631.01 567.786,628.889 569.947,626.784 572.108,624.694 574.269,622.619 576.43,620.559 578.591,618.515 580.752,616.485 582.913,614.471 585.074,612.471 587.235,610.485 589.396,608.514 591.556,606.558 593.717,604.615 595.878,602.687 598.039,600.773 600.2,598.872 602.361,596.986 604.522,595.113 606.683,593.254 608.844,591.408 611.005,589.576 613.166,587.756 615.327,585.951 617.488,584.158 619.649,582.378 621.81,580.611 623.971,578.857 626.132,577.115 628.293,575.386 630.454,573.669 632.615,571.965 634.776,570.273 636.937,568.594 639.098,566.926 641.259,565.27 643.42,563.627 645.581,561.995 647.742,560.375 649.903,558.766 652.064,557.169 654.225,555.583 656.386,554.009 658.547,552.446 660.708,550.895 662.869,549.354 665.03,547.824 667.191,546.306 669.352,544.798 671.513,543.301 673.674,541.814 675.835,540.338 677.996,538.873 680.157,537.418 682.318,535.974 684.479,534.54 686.64,533.116 688.801,531.702 690.962,530.298 693.123,528.904 695.284,527.521 697.445,526.147 699.606,524.782 701.767,523.428 703.927,522.083 706.088,520.748 708.249,519.422 710.41,518.105 712.571,516.798 714.732,515.501 716.893,514.212 719.054,512.932 721.215,511.662 723.376,510.401 725.537,509.148 727.698,507.905 729.859,506.67 732.02,505.444 734.181,504.226 736.342,503.017 738.503,501.817 740.664,500.625 742.825,499.442 744.986,498.267 747.147,497.1 749.308,495.941 751.469,494.791 753.63,493.649 755.791,492.514 757.952,491.388 760.113,490.27 762.274,489.159 764.435,488.056 766.596,486.961 768.757,485.874 770.918,484.794 773.079,483.722 775.24,482.657 777.401,481.6 779.562,480.55 781.723,479.507 783.884,478.472 786.045,477.444 788.206,476.423 790.367,475.409 792.528,474.403 794.689,473.403 796.85,472.41 799.011,471.425 801.172,470.446 803.333,469.473 805.494,468.508 807.655,467.549 809.816,466.597 811.977,465.652 814.138,464.713 816.298,463.78 818.459,462.854 820.62,461.935 822.781,461.022 824.942,460.115 827.103,459.214 829.264,458.32 831.425,457.432 833.586,456.55 835.747,455.674 837.908,454.804 840.069,453.94 842.23,453.083 844.391,452.231 846.552,451.385 848.713,450.544 850.874,449.71 853.035,448.881 855.196,448.058 857.357,447.241 859.518,446.43 861.679,445.624 863.84,444.823 866.001,444.028 868.162,443.239 870.323,442.455 872.484,441.676 874.645,440.903 876.806,440.135 878.967,439.372 881.128,438.615 883.289,437.862 885.45,437.115 887.611,436.373 889.772,435.637 891.933,434.905 894.094,434.178 896.255,433.456 898.416,432.739 900.577,432.027 902.738,431.32 904.899,430.618 907.06,429.92 909.221,429.227 911.382,428.539 913.543,427.856 915.704,427.177 917.865,426.503 920.026,425.834 922.187,425.169 924.348,424.509 926.509,423.853 928.669,423.201 930.83,422.554 932.991,421.912 935.152,421.273 937.313,420.639 939.474,420.01 941.635,419.384 943.796,418.763 945.957,418.146 948.118,417.533 950.279,416.925 952.44,416.32 954.601,415.72 956.762,415.124 958.923,414.531 961.084,413.943 963.245,413.358 965.406,412.778 967.567,412.201 969.728,411.629 971.889,411.06 974.05,410.495 976.211,409.934 978.372,409.376 980.533,408.823 982.694,408.273 984.855,407.727 987.016,407.184 989.177,406.645 991.338,406.11 993.499,405.578 995.66,405.05 997.821,404.526 999.982,404.005 1002.14,403.487 1004.3,402.973 1006.46,402.463 1008.63,401.955 1010.79,401.452 1012.95,400.951 1015.11,400.454 1017.27,399.961 1019.43,399.47 1021.59,398.983 1023.75,398.5 1025.91,398.019 1028.07,397.542 1030.24,397.068 1032.4,396.597 1034.56,396.129 1036.72,395.664 1038.88,395.203 1041.04,394.744 1043.2,394.289 1045.36,393.837 1047.52,393.387 1049.68,392.941 1051.85,392.498 1054.01,392.057 1056.17,391.62 1058.33,391.185 1060.49,390.754 1062.65,390.325 1064.81,389.899 1066.97,389.476 1069.13,389.056 1071.29,388.638 1073.46,388.224 1075.62,387.812 1077.78,387.402 1079.94,386.996 1082.1,386.592 1084.26,386.191 1086.42,385.793 1088.58,385.397 1090.74,385.004 1092.9,384.613 1095.07,384.225 1097.23,383.84 1099.39,383.457 1101.55,383.076 1103.71,382.698 1105.87,382.323 1108.03,381.95 1110.19,381.58 1112.35,381.212 1114.51,380.846 1116.67,380.483 1118.84,380.122 1121,379.764 1123.16,379.408 1125.32,379.054 1127.48,378.703 1129.64,378.354 1131.8,378.007 1133.96,377.662 1136.12,377.32 1138.28,376.98 1140.45,376.642 1142.61,376.306 1144.77,375.973 1146.93,375.642 1149.09,375.313 1151.25,374.986 1153.41,374.661 1155.57,374.338 1157.73,374.018 1159.89,373.699 1162.06,373.383 1164.22,373.069 1166.38,372.757 1168.54,372.446 1170.7,372.138 1172.86,371.832 1175.02,371.528 1177.18,371.226 1179.34,370.926 1181.5,370.628 1183.67,370.331 1185.83,370.037 1187.99,369.745 1190.15,369.454 1192.31,369.166 1194.47,368.879 1196.63,368.594 1198.79,368.311 1200.95,368.03 1203.11,367.751 1205.28,367.474 1207.44,367.198 1209.6,366.924 1211.76,366.652 1213.92,366.382 1216.08,366.114 1218.24,365.847 1220.4,365.582 1222.56,365.319 1224.72,365.057 1226.88,364.798 1229.05,364.54 1231.21,364.283 1233.37,364.028 1235.53,363.775 1237.69,363.524 1239.85,363.274 1242.01,363.026 1244.17,362.779 1246.33,362.534 1248.49,362.291 1250.66,362.049 1252.82,361.809 1254.98,361.57 1257.14,361.333 1259.3,361.098 1261.46,360.864 1263.62,360.631 1265.78,360.4 1267.94,360.171 1270.1,359.943 1272.27,359.716 1274.43,359.491 1276.59,359.267 1278.75,359.045 1280.91,358.824 1283.07,358.605 1285.23,358.387 1287.39,358.171 1289.55,357.955 1291.71,357.742 1293.88,357.529 1296.04,357.318 1298.2,357.109 1300.36,356.9 1302.52,356.694 1304.68,356.488 1306.84,356.284 1309,356.081 1311.16,355.879 1313.32,355.679 1315.49,355.479 1317.65,355.282 1319.81,355.085 1321.97,354.89 1324.13,354.696 1326.29,354.503 1328.45,354.311 1330.61,354.121 1332.77,353.932 1334.93,353.744 1337.09,353.557 1339.26,353.371 1341.42,353.187 1343.58,353.004 1345.74,352.822 1347.9,352.641 1350.06,352.461 1352.22,352.282 1354.38,352.105 1356.54,351.928 1358.7,351.753 1360.87,351.579 1363.03,351.406 1365.19,351.234 1367.35,351.064 1369.51,350.894 1371.67,350.725 1373.83,350.558 1375.99,350.391 1378.15,350.226 1380.31,350.061 1382.48,349.898 1384.64,349.736 1386.8,349.575 1388.96,349.414 1391.12,349.255 1393.28,349.097 1395.44,348.94 1397.6,348.784 1399.76,348.629 1401.92,348.475 1404.09,348.321 1406.25,348.169 1408.41,348.018 1410.57,347.868 1412.73,347.719 1414.89,347.57 1417.05,347.423 1419.21,347.276 1421.37,347.131 1423.53,346.986 1425.7,346.843 1427.86,346.7 1430.02,346.558 1432.18,346.417 1434.34,346.277 1436.5,346.138 1438.66,346 1440.82,345.863 1442.98,345.726 1445.14,345.591 1447.3,345.456 1449.47,345.322 1451.63,345.189 1453.79,345.057 1455.95,344.925 1458.11,344.795 1460.27,344.665 1462.43,344.537 1464.59,344.409 1466.75,344.281 1468.91,344.155 1471.08,344.029 1473.24,343.905 1475.4,343.781 1477.56,343.657 1479.72,343.535 1481.88,343.413 1484.04,343.293 1486.2,343.172 1488.36,343.053 1490.52,342.935 1492.69,342.817 1494.85,342.7 1497.01,342.583 1499.17,342.468 1501.33,342.353 1503.49,342.239 1505.65,342.125 1507.81,342.013 1509.97,341.901 1512.13,341.789 1514.3,341.679 1516.46,341.569 1518.62,341.46 1520.78,341.351 1522.94,341.243 1525.1,341.136 1527.26,341.03 1529.42,340.924 1531.58,340.819 1533.74,340.714 1535.91,340.61 1538.07,340.507 1540.23,340.405 1542.39,340.303 1544.55,340.201 1546.71,340.101 1548.87,340.001 1551.03,339.901 1553.19,339.803 1555.35,339.704 1557.51,339.607 1559.68,339.51 1561.84,339.414 1564,339.318 1566.16,339.223 1568.32,339.128 1570.48,339.034 1572.64,338.941 1574.8,338.848 1576.96,338.756 1579.12,338.664 1581.29,338.573 1583.45,338.483 1585.61,338.393 1587.77,338.303 1589.93,338.214 1592.09,338.126 1594.25,338.038 1596.41,337.951 1598.57,337.864 1600.73,337.778 1602.9,337.693 1605.06,337.608 1607.22,337.523 1609.38,337.439 1611.54,337.356 1613.7,337.273 1615.86,337.19 1618.02,337.108 1620.18,337.027 1622.34,336.946 1624.51,336.866 1626.67,336.786 1628.83,336.706 1630.99,336.628 1633.15,336.549 1635.31,336.471 1637.47,336.394 1639.63,336.317 1641.79,336.24 1643.95,336.164 1646.12,336.089 1648.28,336.014 1650.44,335.939 1652.6,335.865 1654.76,335.792 1656.92,335.718 1659.08,335.646 1661.24,335.574 1663.4,335.502 1665.56,335.43 1667.72,335.359 1669.89,335.289 1672.05,335.219 1674.21,335.149 1676.37,335.08 1678.53,335.012 1680.69,334.943 1682.85,334.876 1685.01,334.808 1687.17,334.741 1689.33,334.675 1691.5,334.608 1693.66,334.543 1695.82,334.477 1697.98,334.413 1700.14,334.348 1702.3,334.284 1704.46,334.22 1706.62,334.157 1708.78,334.094 1710.94,334.032 1713.11,333.969 1715.27,333.908 1717.43,333.846 1719.59,333.785 1721.75,333.725 1723.91,333.665 1726.07,333.605 1728.23,333.545 1730.39,333.486 1732.55,333.428 1734.72,333.369 1736.88,333.311 1739.04,333.254 1741.2,333.197 1743.36,333.14 1745.52,333.083 1747.68,333.027 1749.84,332.971 1752,332.916 1754.16,332.861 1756.33,332.806 1758.49,332.751 1760.65,332.697 1762.81,332.644 1764.97,332.59 1767.13,332.537 1769.29,332.484 1771.45,332.432 1773.61,332.38 1775.77,332.328 1777.93,332.277 1780.1,332.225 1782.26,332.175 1784.42,332.124 1786.58,332.074 1788.74,332.024 1790.9,331.974 1793.06,331.925 1795.22,331.876 1797.38,331.827 1799.54,331.779 1801.71,331.731 1803.87,331.683 1806.03,331.636 1808.19,331.588 1810.35,331.542 1812.51,331.495 1814.67,331.449 1816.83,331.403 1818.99,331.357 1821.15,331.311 1823.32,331.266 1825.48,331.221 1827.64,331.176 1829.8,331.132 1831.96,331.088 1834.12,331.044 1836.28,331 1838.44,330.957 1840.6,330.914 1842.76,330.871 1844.93,330.829 1847.09,330.786 1849.25,330.744 1851.41,330.703 1853.57,330.661 1855.73,330.62 1857.89,330.579 1860.05,330.538 1862.21,330.497 1864.37,330.457 1866.54,330.417 1868.7,330.377 1870.86,330.338 1873.02,330.298 1875.18,330.259 1877.34,330.22 1879.5,330.182 1881.66,330.143 1883.82,330.105 1885.98,330.067 1888.15,330.029 1890.31,329.992 1892.47,329.955 1894.63,329.918 1896.79,329.881 1898.95,329.844 1901.11,329.808 1903.27,329.772 1905.43,329.736 1907.59,329.7 1909.75,329.665 1911.92,329.63 1914.08,329.595 1916.24,329.56 1918.4,329.525 1920.56,329.491 1922.72,329.457 1924.88,329.423 1927.04,329.389 1929.2,329.356 1931.36,329.322 1933.53,329.289 1935.69,329.256 1937.85,329.224 1940.01,329.191 1942.17,329.159 1944.33,329.127 1946.49,329.095 1948.65,329.063 1950.81,329.032 1952.97,329 1955.14,328.969 1957.3,328.938 1959.46,328.907 1961.62,328.877 1963.78,328.847 1965.94,328.816 1968.1,328.786 1970.26,328.757 1972.42,328.727 1974.58,328.698 1976.75,328.668 1978.91,328.639 1981.07,328.61 1983.23,328.582 1985.39,328.553 1987.55,328.525 1989.71,328.497 1991.87,328.469 1994.03,328.441 1996.19,328.413 1998.36,328.386 2000.52,328.358 2002.68,328.331 2004.84,328.304 2007,328.278 2009.16,328.251 2011.32,328.225 2013.48,328.198 2015.64,328.172 2017.8,328.146 2019.96,328.12 2022.13,328.095 2024.29,328.069 2026.45,328.044 2028.61,328.019 2030.77,327.994 2032.93,327.969 2035.09,327.944 2037.25,327.92 2039.41,327.895 2041.57,327.871 2043.74,327.847 2045.9,327.823 2048.06,327.799 2050.22,327.775 2052.38,327.752 2054.54,327.729 2056.7,327.705 2058.86,327.682 2061.02,327.659 2063.18,327.637 2065.35,327.614 2067.51,327.592 2069.67,327.569 2071.83,327.547 2073.99,327.525 2076.15,327.503 2078.31,327.481 2080.47,327.459 2082.63,327.438 2084.79,327.416 2086.96,327.395 2089.12,327.374 2091.28,327.353 2093.44,327.332 2095.6,327.311 2097.76,327.291 2099.92,327.27 2102.08,327.25 2104.24,327.23 2106.4,327.209 2108.57,327.189 2110.73,327.169 2112.89,327.15 2115.05,327.13 2117.21,327.111 2119.37,327.091 2121.53,327.072 2123.69,327.053 2125.85,327.034 2128.01,327.015 2130.17,326.996 2132.34,326.977 2134.5,326.958 2136.66,326.94 2138.82,326.921 2140.98,326.903 2143.14,326.885 2145.3,326.867 2147.46,326.849 2149.62,326.831 2151.78,326.813 2153.95,326.796 2156.11,326.778 2158.27,326.761 2160.43,326.743 2162.59,326.726 2164.75,326.709 2166.91,326.692 2169.07,326.675 2171.23,326.658 2173.39,326.642 2175.56,326.625 2177.72,326.608 2179.88,326.592 2182.04,326.576 2184.2,326.559 2186.36,326.543 2188.52,326.527 2190.68,326.511 2192.84,326.495 2195,326.48 2197.17,326.464 2199.33,326.448 2201.49,326.433 2203.65,326.417 2205.81,326.402 2207.97,326.387 2210.13,326.372 2212.29,326.357 2214.45,326.342 2216.61,326.327 2218.78,326.312 2220.94,326.298 2223.1,326.283 2225.26,326.269 2227.42,326.254 2229.58,326.24 2231.74,326.226 2233.9,326.212 2236.06,326.198 2238.22,326.184 2240.38,326.17 2242.55,326.156 2244.71,326.142 2246.87,326.129 2249.03,326.115 2251.19,326.102 2253.35,326.089 2255.51,326.075 2257.67,326.062 2259.83,326.049 2261.99,326.036 2264.16,326.023 2266.32,326.01 2268.48,325.997 2270.64,325.985 2272.8,325.972 2274.96,325.959 2277.12,325.947 2279.28,325.934 2281.44,325.922 2283.6,325.91 2285.77,325.898 2287.93,325.885 2290.09,325.873 2292.25,325.861 2294.41,325.85 2296.57,325.838 2298.73,325.826 2300.89,325.814 2303.05,325.803 2305.21,325.791 2307.38,325.78 2309.54,325.768 2311.7,325.757 2313.86,325.746 2316.02,325.734 2318.18,325.723 2320.34,325.712 2322.5,325.701 2324.66,325.69 2326.82,325.679 2328.99,325.669 2331.15,325.658 2333.31,325.647 2335.47,325.637 2337.63,325.626 2339.79,325.616 2341.95,325.605 2344.11,325.595 2346.27,325.585 2348.43,325.574 2350.59,325.564 2352.76,325.554 "/>
<path clip-path="url(#clip040)" d="M1805.52 1377.32 L2280.8 1377.32 L2280.8 1221.8 L1805.52 1221.8  Z" fill="#ffffff" fill-rule="evenodd" fill-opacity="1"/>
<polyline clip-path="url(#clip040)" style="stroke:#000000; stroke-linecap:round; stroke-linejoin:round; stroke-width:4; stroke-opacity:1; fill:none" points="1805.52,1377.32 2280.8,1377.32 2280.8,1221.8 1805.52,1221.8 1805.52,1377.32 "/>
<polyline clip-path="url(#clip040)" style="stroke:#009af9; stroke-linecap:round; stroke-linejoin:round; stroke-width:4; stroke-opacity:1; fill:none" points="1829.5,1273.64 1973.42,1273.64 "/>
<path clip-path="url(#clip040)" d="M1997.41 1264.99 L2001.93 1264.99 L2010.03 1286.75 L2018.13 1264.99 L2022.64 1264.99 L2012.92 1290.92 L2007.13 1290.92 L1997.41 1264.99 Z" fill="#000000" fill-rule="nonzero" fill-opacity="1" /><path clip-path="url(#clip040)" d="M2029.93 1286.98 L2037.57 1286.98 L2037.57 1260.61 L2029.26 1262.28 L2029.26 1258.02 L2037.53 1256.36 L2042.2 1256.36 L2042.2 1286.98 L2049.84 1286.98 L2049.84 1290.92 L2029.93 1290.92 L2029.93 1286.98 Z" fill="#000000" fill-rule="nonzero" fill-opacity="1" /><path clip-path="url(#clip040)" d="M2067.94 1274.27 L2067.94 1281.49 L2076.07 1281.49 L2076.07 1283.69 L2067.94 1283.69 L2067.94 1290.92 L2065.51 1290.92 L2065.51 1283.69 L2057.39 1283.69 L2057.39 1281.49 L2065.51 1281.49 L2065.51 1274.27 L2067.94 1274.27 Z" fill="#000000" fill-rule="nonzero" fill-opacity="1" /><path clip-path="url(#clip040)" d="M2100.24 1265.75 L2100.24 1269.78 Q2098.43 1268.86 2096.49 1268.39 Q2094.54 1267.93 2092.46 1267.93 Q2089.29 1267.93 2087.69 1268.9 Q2086.11 1269.87 2086.11 1271.82 Q2086.11 1273.3 2087.25 1274.16 Q2088.38 1274.99 2091.81 1275.75 L2093.27 1276.08 Q2097.8 1277.05 2099.7 1278.83 Q2101.62 1280.59 2101.62 1283.76 Q2101.62 1287.37 2098.75 1289.48 Q2095.91 1291.59 2090.91 1291.59 Q2088.82 1291.59 2086.55 1291.17 Q2084.31 1290.78 2081.81 1289.97 L2081.81 1285.57 Q2084.17 1286.79 2086.46 1287.42 Q2088.75 1288.02 2091 1288.02 Q2094.01 1288.02 2095.63 1287 Q2097.25 1285.96 2097.25 1284.09 Q2097.25 1282.35 2096.07 1281.42 Q2094.91 1280.5 2090.95 1279.64 L2089.47 1279.3 Q2085.51 1278.46 2083.75 1276.75 Q2081.99 1275.01 2081.99 1272 Q2081.99 1268.35 2084.59 1266.36 Q2087.18 1264.36 2091.95 1264.36 Q2094.31 1264.36 2096.39 1264.71 Q2098.48 1265.06 2100.24 1265.75 Z" fill="#000000" fill-rule="nonzero" fill-opacity="1" /><path clip-path="url(#clip040)" d="M2112.62 1257.63 L2112.62 1264.99 L2121.39 1264.99 L2121.39 1268.3 L2112.62 1268.3 L2112.62 1282.37 Q2112.62 1285.54 2113.48 1286.45 Q2114.36 1287.35 2117.02 1287.35 L2121.39 1287.35 L2121.39 1290.92 L2117.02 1290.92 Q2112.09 1290.92 2110.21 1289.09 Q2108.34 1287.23 2108.34 1282.37 L2108.34 1268.3 L2105.21 1268.3 L2105.21 1264.99 L2108.34 1264.99 L2108.34 1257.63 L2112.62 1257.63 Z" fill="#000000" fill-rule="nonzero" fill-opacity="1" /><path clip-path="url(#clip040)" d="M2137.04 1267.98 Q2133.61 1267.98 2131.62 1270.66 Q2129.63 1273.32 2129.63 1277.98 Q2129.63 1282.63 2131.6 1285.31 Q2133.59 1287.98 2137.04 1287.98 Q2140.44 1287.98 2142.43 1285.29 Q2144.42 1282.61 2144.42 1277.98 Q2144.42 1273.37 2142.43 1270.68 Q2140.44 1267.98 2137.04 1267.98 M2137.04 1264.36 Q2142.6 1264.36 2145.77 1267.98 Q2148.94 1271.59 2148.94 1277.98 Q2148.94 1284.34 2145.77 1287.98 Q2142.6 1291.59 2137.04 1291.59 Q2131.46 1291.59 2128.29 1287.98 Q2125.14 1284.34 2125.14 1277.98 Q2125.14 1271.59 2128.29 1267.98 Q2131.46 1264.36 2137.04 1264.36 Z" fill="#000000" fill-rule="nonzero" fill-opacity="1" /><path clip-path="url(#clip040)" d="M2171.02 1268.97 Q2170.3 1268.55 2169.45 1268.37 Q2168.61 1268.16 2167.6 1268.16 Q2163.98 1268.16 2162.04 1270.52 Q2160.12 1272.86 2160.12 1277.26 L2160.12 1290.92 L2155.84 1290.92 L2155.84 1264.99 L2160.12 1264.99 L2160.12 1269.02 Q2161.46 1266.66 2163.61 1265.52 Q2165.77 1264.36 2168.85 1264.36 Q2169.29 1264.36 2169.82 1264.43 Q2170.35 1264.48 2171 1264.6 L2171.02 1268.97 Z" fill="#000000" fill-rule="nonzero" fill-opacity="1" /><path clip-path="url(#clip040)" d="M2187.27 1277.88 Q2182.11 1277.88 2180.12 1279.06 Q2178.13 1280.24 2178.13 1283.09 Q2178.13 1285.36 2179.61 1286.7 Q2181.11 1288.02 2183.68 1288.02 Q2187.23 1288.02 2189.36 1285.52 Q2191.51 1283 2191.51 1278.83 L2191.51 1277.88 L2187.27 1277.88 M2195.77 1276.12 L2195.77 1290.92 L2191.51 1290.92 L2191.51 1286.98 Q2190.05 1289.34 2187.87 1290.48 Q2185.7 1291.59 2182.55 1291.59 Q2178.57 1291.59 2176.21 1289.36 Q2173.87 1287.12 2173.87 1283.37 Q2173.87 1278.99 2176.79 1276.77 Q2179.73 1274.55 2185.54 1274.55 L2191.51 1274.55 L2191.51 1274.13 Q2191.51 1271.19 2189.56 1269.6 Q2187.64 1267.98 2184.15 1267.98 Q2181.92 1267.98 2179.82 1268.51 Q2177.71 1269.04 2175.77 1270.11 L2175.77 1266.17 Q2178.11 1265.27 2180.3 1264.83 Q2182.5 1264.36 2184.59 1264.36 Q2190.21 1264.36 2192.99 1267.28 Q2195.77 1270.2 2195.77 1276.12 Z" fill="#000000" fill-rule="nonzero" fill-opacity="1" /><path clip-path="url(#clip040)" d="M2221.6 1277.65 Q2221.6 1273.02 2219.68 1270.48 Q2217.78 1267.93 2214.33 1267.93 Q2210.91 1267.93 2208.98 1270.48 Q2207.09 1273.02 2207.09 1277.65 Q2207.09 1282.26 2208.98 1284.8 Q2210.91 1287.35 2214.33 1287.35 Q2217.78 1287.35 2219.68 1284.8 Q2221.6 1282.26 2221.6 1277.65 M2225.86 1287.7 Q2225.86 1294.32 2222.92 1297.54 Q2219.98 1300.78 2213.92 1300.78 Q2211.67 1300.78 2209.68 1300.43 Q2207.69 1300.11 2205.81 1299.41 L2205.81 1295.27 Q2207.69 1296.29 2209.52 1296.77 Q2211.35 1297.26 2213.24 1297.26 Q2217.43 1297.26 2219.52 1295.06 Q2221.6 1292.88 2221.6 1288.46 L2221.6 1286.36 Q2220.28 1288.65 2218.22 1289.78 Q2216.16 1290.92 2213.29 1290.92 Q2208.52 1290.92 2205.6 1287.28 Q2202.69 1283.65 2202.69 1277.65 Q2202.69 1271.63 2205.6 1268 Q2208.52 1264.36 2213.29 1264.36 Q2216.16 1264.36 2218.22 1265.5 Q2220.28 1266.63 2221.6 1268.92 L2221.6 1264.99 L2225.86 1264.99 L2225.86 1287.7 Z" fill="#000000" fill-rule="nonzero" fill-opacity="1" /><path clip-path="url(#clip040)" d="M2256.81 1276.89 L2256.81 1278.97 L2237.23 1278.97 Q2237.5 1283.37 2239.86 1285.68 Q2242.25 1287.98 2246.48 1287.98 Q2248.94 1287.98 2251.23 1287.37 Q2253.54 1286.77 2255.81 1285.57 L2255.81 1289.6 Q2253.52 1290.57 2251.11 1291.08 Q2248.71 1291.59 2246.23 1291.59 Q2240.03 1291.59 2236.39 1287.98 Q2232.78 1284.36 2232.78 1278.21 Q2232.78 1271.84 2236.21 1268.11 Q2239.66 1264.36 2245.49 1264.36 Q2250.72 1264.36 2253.75 1267.74 Q2256.81 1271.1 2256.81 1276.89 M2252.55 1275.64 Q2252.5 1272.14 2250.58 1270.06 Q2248.68 1267.98 2245.54 1267.98 Q2241.97 1267.98 2239.82 1269.99 Q2237.69 1272 2237.36 1275.66 L2252.55 1275.64 Z" fill="#000000" fill-rule="nonzero" fill-opacity="1" /><polyline clip-path="url(#clip040)" style="stroke:#e26f46; stroke-linecap:round; stroke-linejoin:round; stroke-width:4; stroke-opacity:1; fill:none" points="1829.5,1325.48 1973.42,1325.48 "/>
<path clip-path="url(#clip040)" d="M1997.41 1316.83 L2001.93 1316.83 L2010.03 1338.59 L2018.13 1316.83 L2022.64 1316.83 L2012.92 1342.76 L2007.13 1342.76 L1997.41 1316.83 Z" fill="#000000" fill-rule="nonzero" fill-opacity="1" /><path clip-path="url(#clip040)" d="M2029.17 1308.2 L2047.53 1308.2 L2047.53 1312.13 L2033.45 1312.13 L2033.45 1320.6 Q2034.47 1320.26 2035.49 1320.09 Q2036.51 1319.91 2037.53 1319.91 Q2043.31 1319.91 2046.69 1323.08 Q2050.07 1326.25 2050.07 1331.67 Q2050.07 1337.25 2046.6 1340.35 Q2043.13 1343.43 2036.81 1343.43 Q2034.63 1343.43 2032.37 1343.06 Q2030.12 1342.69 2027.71 1341.95 L2027.71 1337.25 Q2029.8 1338.38 2032.02 1338.94 Q2034.24 1339.49 2036.72 1339.49 Q2040.72 1339.49 2043.06 1337.38 Q2045.4 1335.28 2045.4 1331.67 Q2045.4 1328.06 2043.06 1325.95 Q2040.72 1323.84 2036.72 1323.84 Q2034.84 1323.84 2032.97 1324.26 Q2031.12 1324.68 2029.17 1325.56 L2029.17 1308.2 Z" fill="#000000" fill-rule="nonzero" fill-opacity="1" /><path clip-path="url(#clip040)" d="M2067.94 1326.11 L2067.94 1333.33 L2076.07 1333.33 L2076.07 1335.53 L2067.94 1335.53 L2067.94 1342.76 L2065.51 1342.76 L2065.51 1335.53 L2057.39 1335.53 L2057.39 1333.33 L2065.51 1333.33 L2065.51 1326.11 L2067.94 1326.11 Z" fill="#000000" fill-rule="nonzero" fill-opacity="1" /><path clip-path="url(#clip040)" d="M2100.24 1317.59 L2100.24 1321.62 Q2098.43 1320.7 2096.49 1320.23 Q2094.54 1319.77 2092.46 1319.77 Q2089.29 1319.77 2087.69 1320.74 Q2086.11 1321.71 2086.11 1323.66 Q2086.11 1325.14 2087.25 1326 Q2088.38 1326.83 2091.81 1327.59 L2093.27 1327.92 Q2097.8 1328.89 2099.7 1330.67 Q2101.62 1332.43 2101.62 1335.6 Q2101.62 1339.21 2098.75 1341.32 Q2095.91 1343.43 2090.91 1343.43 Q2088.82 1343.43 2086.55 1343.01 Q2084.31 1342.62 2081.81 1341.81 L2081.81 1337.41 Q2084.17 1338.63 2086.46 1339.26 Q2088.75 1339.86 2091 1339.86 Q2094.01 1339.86 2095.63 1338.84 Q2097.25 1337.8 2097.25 1335.93 Q2097.25 1334.19 2096.07 1333.26 Q2094.91 1332.34 2090.95 1331.48 L2089.47 1331.14 Q2085.51 1330.3 2083.75 1328.59 Q2081.99 1326.85 2081.99 1323.84 Q2081.99 1320.19 2084.59 1318.2 Q2087.18 1316.2 2091.95 1316.2 Q2094.31 1316.2 2096.39 1316.55 Q2098.48 1316.9 2100.24 1317.59 Z" fill="#000000" fill-rule="nonzero" fill-opacity="1" /><path clip-path="url(#clip040)" d="M2112.62 1309.47 L2112.62 1316.83 L2121.39 1316.83 L2121.39 1320.14 L2112.62 1320.14 L2112.62 1334.21 Q2112.62 1337.38 2113.48 1338.29 Q2114.36 1339.19 2117.02 1339.19 L2121.39 1339.19 L2121.39 1342.76 L2117.02 1342.76 Q2112.09 1342.76 2110.21 1340.93 Q2108.34 1339.07 2108.34 1334.21 L2108.34 1320.14 L2105.21 1320.14 L2105.21 1316.83 L2108.34 1316.83 L2108.34 1309.47 L2112.62 1309.47 Z" fill="#000000" fill-rule="nonzero" fill-opacity="1" /><path clip-path="url(#clip040)" d="M2137.04 1319.82 Q2133.61 1319.82 2131.62 1322.5 Q2129.63 1325.16 2129.63 1329.82 Q2129.63 1334.47 2131.6 1337.15 Q2133.59 1339.82 2137.04 1339.82 Q2140.44 1339.82 2142.43 1337.13 Q2144.42 1334.45 2144.42 1329.82 Q2144.42 1325.21 2142.43 1322.52 Q2140.44 1319.82 2137.04 1319.82 M2137.04 1316.2 Q2142.6 1316.2 2145.77 1319.82 Q2148.94 1323.43 2148.94 1329.82 Q2148.94 1336.18 2145.77 1339.82 Q2142.6 1343.43 2137.04 1343.43 Q2131.46 1343.43 2128.29 1339.82 Q2125.14 1336.18 2125.14 1329.82 Q2125.14 1323.43 2128.29 1319.82 Q2131.46 1316.2 2137.04 1316.2 Z" fill="#000000" fill-rule="nonzero" fill-opacity="1" /><path clip-path="url(#clip040)" d="M2171.02 1320.81 Q2170.3 1320.39 2169.45 1320.21 Q2168.61 1320 2167.6 1320 Q2163.98 1320 2162.04 1322.36 Q2160.12 1324.7 2160.12 1329.1 L2160.12 1342.76 L2155.84 1342.76 L2155.84 1316.83 L2160.12 1316.83 L2160.12 1320.86 Q2161.46 1318.5 2163.61 1317.36 Q2165.77 1316.2 2168.85 1316.2 Q2169.29 1316.2 2169.82 1316.27 Q2170.35 1316.32 2171 1316.44 L2171.02 1320.81 Z" fill="#000000" fill-rule="nonzero" fill-opacity="1" /><path clip-path="url(#clip040)" d="M2187.27 1329.72 Q2182.11 1329.72 2180.12 1330.9 Q2178.13 1332.08 2178.13 1334.93 Q2178.13 1337.2 2179.61 1338.54 Q2181.11 1339.86 2183.68 1339.86 Q2187.23 1339.86 2189.36 1337.36 Q2191.51 1334.84 2191.51 1330.67 L2191.51 1329.72 L2187.27 1329.72 M2195.77 1327.96 L2195.77 1342.76 L2191.51 1342.76 L2191.51 1338.82 Q2190.05 1341.18 2187.87 1342.32 Q2185.7 1343.43 2182.55 1343.43 Q2178.57 1343.43 2176.21 1341.2 Q2173.87 1338.96 2173.87 1335.21 Q2173.87 1330.83 2176.79 1328.61 Q2179.73 1326.39 2185.54 1326.39 L2191.51 1326.39 L2191.51 1325.97 Q2191.51 1323.03 2189.56 1321.44 Q2187.64 1319.82 2184.15 1319.82 Q2181.92 1319.82 2179.82 1320.35 Q2177.71 1320.88 2175.77 1321.95 L2175.77 1318.01 Q2178.11 1317.11 2180.3 1316.67 Q2182.5 1316.2 2184.59 1316.2 Q2190.21 1316.2 2192.99 1319.12 Q2195.77 1322.04 2195.77 1327.96 Z" fill="#000000" fill-rule="nonzero" fill-opacity="1" /><path clip-path="url(#clip040)" d="M2221.6 1329.49 Q2221.6 1324.86 2219.68 1322.32 Q2217.78 1319.77 2214.33 1319.77 Q2210.91 1319.77 2208.98 1322.32 Q2207.09 1324.86 2207.09 1329.49 Q2207.09 1334.1 2208.98 1336.64 Q2210.91 1339.19 2214.33 1339.19 Q2217.78 1339.19 2219.68 1336.64 Q2221.6 1334.1 2221.6 1329.49 M2225.86 1339.54 Q2225.86 1346.16 2222.92 1349.38 Q2219.98 1352.62 2213.92 1352.62 Q2211.67 1352.62 2209.68 1352.27 Q2207.69 1351.95 2205.81 1351.25 L2205.81 1347.11 Q2207.69 1348.13 2209.52 1348.61 Q2211.35 1349.1 2213.24 1349.1 Q2217.43 1349.1 2219.52 1346.9 Q2221.6 1344.72 2221.6 1340.3 L2221.6 1338.2 Q2220.28 1340.49 2218.22 1341.62 Q2216.16 1342.76 2213.29 1342.76 Q2208.52 1342.76 2205.6 1339.12 Q2202.69 1335.49 2202.69 1329.49 Q2202.69 1323.47 2205.6 1319.84 Q2208.52 1316.2 2213.29 1316.2 Q2216.16 1316.2 2218.22 1317.34 Q2220.28 1318.47 2221.6 1320.76 L2221.6 1316.83 L2225.86 1316.83 L2225.86 1339.54 Z" fill="#000000" fill-rule="nonzero" fill-opacity="1" /><path clip-path="url(#clip040)" d="M2256.81 1328.73 L2256.81 1330.81 L2237.23 1330.81 Q2237.5 1335.21 2239.86 1337.52 Q2242.25 1339.82 2246.48 1339.82 Q2248.94 1339.82 2251.23 1339.21 Q2253.54 1338.61 2255.81 1337.41 L2255.81 1341.44 Q2253.52 1342.41 2251.11 1342.92 Q2248.71 1343.43 2246.23 1343.43 Q2240.03 1343.43 2236.39 1339.82 Q2232.78 1336.2 2232.78 1330.05 Q2232.78 1323.68 2236.21 1319.95 Q2239.66 1316.2 2245.49 1316.2 Q2250.72 1316.2 2253.75 1319.58 Q2256.81 1322.94 2256.81 1328.73 M2252.55 1327.48 Q2252.5 1323.98 2250.58 1321.9 Q2248.68 1319.82 2245.54 1319.82 Q2241.97 1319.82 2239.82 1321.83 Q2237.69 1323.84 2237.36 1327.5 L2252.55 1327.48 Z" fill="#000000" fill-rule="nonzero" fill-opacity="1" /></svg>
