<?xml version="1.0" encoding="utf-8"?>
<svg xmlns="http://www.w3.org/2000/svg" xmlns:xlink="http://www.w3.org/1999/xlink" width="600" height="400" viewBox="0 0 2400 1600">
<defs>
  <clipPath id="clip670">
    <rect x="0" y="0" width="2400" height="1600"/>
  </clipPath>
</defs>
<path clip-path="url(#clip670)" d="M0 1600 L2400 1600 L2400 0 L0 0  Z" fill="#ffffff" fill-rule="evenodd" fill-opacity="1"/>
<defs>
  <clipPath id="clip671">
    <rect x="480" y="0" width="1681" height="1600"/>
  </clipPath>
</defs>
<path clip-path="url(#clip670)" d="M156.598 1423.18 L2352.76 1423.18 L2352.76 47.2441 L156.598 47.2441  Z" fill="#ffffff" fill-rule="evenodd" fill-opacity="1"/>
<defs>
  <clipPath id="clip672">
    <rect x="156" y="47" width="2197" height="1377"/>
  </clipPath>
</defs>
<polyline clip-path="url(#clip672)" style="stroke:#000000; stroke-linecap:round; stroke-linejoin:round; stroke-width:2; stroke-opacity:0.1; fill:none" points="156.598,1423.18 156.598,47.2441 "/>
<polyline clip-path="url(#clip672)" style="stroke:#000000; stroke-linecap:round; stroke-linejoin:round; stroke-width:2; stroke-opacity:0.1; fill:none" points="705.638,1423.18 705.638,47.2441 "/>
<polyline clip-path="url(#clip672)" style="stroke:#000000; stroke-linecap:round; stroke-linejoin:round; stroke-width:2; stroke-opacity:0.1; fill:none" points="1254.68,1423.18 1254.68,47.2441 "/>
<polyline clip-path="url(#clip672)" style="stroke:#000000; stroke-linecap:round; stroke-linejoin:round; stroke-width:2; stroke-opacity:0.1; fill:none" points="1803.72,1423.18 1803.72,47.2441 "/>
<polyline clip-path="url(#clip672)" style="stroke:#000000; stroke-linecap:round; stroke-linejoin:round; stroke-width:2; stroke-opacity:0.1; fill:none" points="2352.76,1423.18 2352.76,47.2441 "/>
<polyline clip-path="url(#clip672)" style="stroke:#000000; stroke-linecap:round; stroke-linejoin:round; stroke-width:2; stroke-opacity:0.1; fill:none" points="156.598,1283.81 2352.76,1283.81 "/>
<polyline clip-path="url(#clip672)" style="stroke:#000000; stroke-linecap:round; stroke-linejoin:round; stroke-width:2; stroke-opacity:0.1; fill:none" points="156.598,1023.67 2352.76,1023.67 "/>
<polyline clip-path="url(#clip672)" style="stroke:#000000; stroke-linecap:round; stroke-linejoin:round; stroke-width:2; stroke-opacity:0.1; fill:none" points="156.598,763.536 2352.76,763.536 "/>
<polyline clip-path="url(#clip672)" style="stroke:#000000; stroke-linecap:round; stroke-linejoin:round; stroke-width:2; stroke-opacity:0.1; fill:none" points="156.598,503.397 2352.76,503.397 "/>
<polyline clip-path="url(#clip672)" style="stroke:#000000; stroke-linecap:round; stroke-linejoin:round; stroke-width:2; stroke-opacity:0.1; fill:none" points="156.598,243.258 2352.76,243.258 "/>
<polyline clip-path="url(#clip670)" style="stroke:#000000; stroke-linecap:round; stroke-linejoin:round; stroke-width:4; stroke-opacity:1; fill:none" points="156.598,1423.18 2352.76,1423.18 "/>
<polyline clip-path="url(#clip670)" style="stroke:#000000; stroke-linecap:round; stroke-linejoin:round; stroke-width:4; stroke-opacity:1; fill:none" points="156.598,1423.18 156.598,1404.28 "/>
<polyline clip-path="url(#clip670)" style="stroke:#000000; stroke-linecap:round; stroke-linejoin:round; stroke-width:4; stroke-opacity:1; fill:none" points="705.638,1423.18 705.638,1404.28 "/>
<polyline clip-path="url(#clip670)" style="stroke:#000000; stroke-linecap:round; stroke-linejoin:round; stroke-width:4; stroke-opacity:1; fill:none" points="1254.68,1423.18 1254.68,1404.28 "/>
<polyline clip-path="url(#clip670)" style="stroke:#000000; stroke-linecap:round; stroke-linejoin:round; stroke-width:4; stroke-opacity:1; fill:none" points="1803.72,1423.18 1803.72,1404.28 "/>
<polyline clip-path="url(#clip670)" style="stroke:#000000; stroke-linecap:round; stroke-linejoin:round; stroke-width:4; stroke-opacity:1; fill:none" points="2352.76,1423.18 2352.76,1404.28 "/>
<path clip-path="url(#clip670)" d="M133.983 1454.1 Q130.372 1454.1 128.543 1457.66 Q126.737 1461.2 126.737 1468.33 Q126.737 1475.44 128.543 1479.01 Q130.372 1482.55 133.983 1482.55 Q137.617 1482.55 139.422 1479.01 Q141.251 1475.44 141.251 1468.33 Q141.251 1461.2 139.422 1457.66 Q137.617 1454.1 133.983 1454.1 M133.983 1450.39 Q139.793 1450.39 142.848 1455 Q145.927 1459.58 145.927 1468.33 Q145.927 1477.06 142.848 1481.67 Q139.793 1486.25 133.983 1486.25 Q128.172 1486.25 125.094 1481.67 Q122.038 1477.06 122.038 1468.33 Q122.038 1459.58 125.094 1455 Q128.172 1450.39 133.983 1450.39 Z" fill="#000000" fill-rule="nonzero" fill-opacity="1" /><path clip-path="url(#clip670)" d="M154.145 1479.7 L159.029 1479.7 L159.029 1485.58 L154.145 1485.58 L154.145 1479.7 Z" fill="#000000" fill-rule="nonzero" fill-opacity="1" /><path clip-path="url(#clip670)" d="M179.214 1454.1 Q175.603 1454.1 173.774 1457.66 Q171.969 1461.2 171.969 1468.33 Q171.969 1475.44 173.774 1479.01 Q175.603 1482.55 179.214 1482.55 Q182.848 1482.55 184.654 1479.01 Q186.482 1475.44 186.482 1468.33 Q186.482 1461.2 184.654 1457.66 Q182.848 1454.1 179.214 1454.1 M179.214 1450.39 Q185.024 1450.39 188.08 1455 Q191.158 1459.58 191.158 1468.33 Q191.158 1477.06 188.08 1481.67 Q185.024 1486.25 179.214 1486.25 Q173.404 1486.25 170.325 1481.67 Q167.269 1477.06 167.269 1468.33 Q167.269 1459.58 170.325 1455 Q173.404 1450.39 179.214 1450.39 Z" fill="#000000" fill-rule="nonzero" fill-opacity="1" /><path clip-path="url(#clip670)" d="M683.52 1454.1 Q679.909 1454.1 678.08 1457.66 Q676.274 1461.2 676.274 1468.33 Q676.274 1475.44 678.08 1479.01 Q679.909 1482.55 683.52 1482.55 Q687.154 1482.55 688.96 1479.01 Q690.788 1475.44 690.788 1468.33 Q690.788 1461.2 688.96 1457.66 Q687.154 1454.1 683.52 1454.1 M683.52 1450.39 Q689.33 1450.39 692.385 1455 Q695.464 1459.58 695.464 1468.33 Q695.464 1477.06 692.385 1481.67 Q689.33 1486.25 683.52 1486.25 Q677.71 1486.25 674.631 1481.67 Q671.575 1477.06 671.575 1468.33 Q671.575 1459.58 674.631 1455 Q677.71 1450.39 683.52 1450.39 Z" fill="#000000" fill-rule="nonzero" fill-opacity="1" /><path clip-path="url(#clip670)" d="M703.682 1479.7 L708.566 1479.7 L708.566 1485.58 L703.682 1485.58 L703.682 1479.7 Z" fill="#000000" fill-rule="nonzero" fill-opacity="1" /><path clip-path="url(#clip670)" d="M718.797 1451.02 L737.154 1451.02 L737.154 1454.96 L723.08 1454.96 L723.08 1463.43 Q724.098 1463.08 725.117 1462.92 Q726.135 1462.73 727.154 1462.73 Q732.941 1462.73 736.32 1465.9 Q739.7 1469.08 739.7 1474.49 Q739.7 1480.07 736.228 1483.17 Q732.756 1486.25 726.436 1486.25 Q724.26 1486.25 721.992 1485.88 Q719.746 1485.51 717.339 1484.77 L717.339 1480.07 Q719.422 1481.2 721.645 1481.76 Q723.867 1482.32 726.344 1482.32 Q730.348 1482.32 732.686 1480.21 Q735.024 1478.1 735.024 1474.49 Q735.024 1470.88 732.686 1468.77 Q730.348 1466.67 726.344 1466.67 Q724.469 1466.67 722.594 1467.08 Q720.742 1467.5 718.797 1468.38 L718.797 1451.02 Z" fill="#000000" fill-rule="nonzero" fill-opacity="1" /><path clip-path="url(#clip670)" d="M1221.83 1481.64 L1229.47 1481.64 L1229.47 1455.28 L1221.16 1456.95 L1221.16 1452.69 L1229.42 1451.02 L1234.1 1451.02 L1234.1 1481.64 L1241.74 1481.64 L1241.74 1485.58 L1221.83 1485.58 L1221.83 1481.64 Z" fill="#000000" fill-rule="nonzero" fill-opacity="1" /><path clip-path="url(#clip670)" d="M1251.18 1479.7 L1256.07 1479.7 L1256.07 1485.58 L1251.18 1485.58 L1251.18 1479.7 Z" fill="#000000" fill-rule="nonzero" fill-opacity="1" /><path clip-path="url(#clip670)" d="M1276.25 1454.1 Q1272.64 1454.1 1270.81 1457.66 Q1269.01 1461.2 1269.01 1468.33 Q1269.01 1475.44 1270.81 1479.01 Q1272.64 1482.55 1276.25 1482.55 Q1279.89 1482.55 1281.69 1479.01 Q1283.52 1475.44 1283.52 1468.33 Q1283.52 1461.2 1281.69 1457.66 Q1279.89 1454.1 1276.25 1454.1 M1276.25 1450.39 Q1282.06 1450.39 1285.12 1455 Q1288.2 1459.58 1288.2 1468.33 Q1288.2 1477.06 1285.12 1481.67 Q1282.06 1486.25 1276.25 1486.25 Q1270.44 1486.25 1267.36 1481.67 Q1264.31 1477.06 1264.31 1468.33 Q1264.31 1459.58 1267.36 1455 Q1270.44 1450.39 1276.25 1450.39 Z" fill="#000000" fill-rule="nonzero" fill-opacity="1" /><path clip-path="url(#clip670)" d="M1771.37 1481.64 L1779.01 1481.64 L1779.01 1455.28 L1770.7 1456.95 L1770.7 1452.69 L1778.96 1451.02 L1783.64 1451.02 L1783.64 1481.64 L1791.27 1481.64 L1791.27 1485.58 L1771.37 1485.58 L1771.37 1481.64 Z" fill="#000000" fill-rule="nonzero" fill-opacity="1" /><path clip-path="url(#clip670)" d="M1800.72 1479.7 L1805.6 1479.7 L1805.6 1485.58 L1800.72 1485.58 L1800.72 1479.7 Z" fill="#000000" fill-rule="nonzero" fill-opacity="1" /><path clip-path="url(#clip670)" d="M1815.83 1451.02 L1834.19 1451.02 L1834.19 1454.96 L1820.12 1454.96 L1820.12 1463.43 Q1821.14 1463.08 1822.15 1462.92 Q1823.17 1462.73 1824.19 1462.73 Q1829.98 1462.73 1833.36 1465.9 Q1836.74 1469.08 1836.74 1474.49 Q1836.74 1480.07 1833.26 1483.17 Q1829.79 1486.25 1823.47 1486.25 Q1821.3 1486.25 1819.03 1485.88 Q1816.78 1485.51 1814.38 1484.77 L1814.38 1480.07 Q1816.46 1481.2 1818.68 1481.76 Q1820.9 1482.32 1823.38 1482.32 Q1827.39 1482.32 1829.72 1480.21 Q1832.06 1478.1 1832.06 1474.49 Q1832.06 1470.88 1829.72 1468.77 Q1827.39 1466.67 1823.38 1466.67 Q1821.51 1466.67 1819.63 1467.08 Q1817.78 1467.5 1815.83 1468.38 L1815.83 1451.02 Z" fill="#000000" fill-rule="nonzero" fill-opacity="1" /><path clip-path="url(#clip670)" d="M2323.99 1481.64 L2340.31 1481.64 L2340.31 1485.58 L2318.37 1485.58 L2318.37 1481.64 Q2321.03 1478.89 2325.61 1474.26 Q2330.22 1469.61 2331.4 1468.27 Q2333.65 1465.74 2334.53 1464.01 Q2335.43 1462.25 2335.43 1460.56 Q2335.43 1457.8 2333.49 1456.07 Q2331.56 1454.33 2328.46 1454.33 Q2326.26 1454.33 2323.81 1455.09 Q2321.38 1455.86 2318.6 1457.41 L2318.6 1452.69 Q2321.43 1451.55 2323.88 1450.97 Q2326.33 1450.39 2328.37 1450.39 Q2333.74 1450.39 2336.93 1453.08 Q2340.13 1455.77 2340.13 1460.26 Q2340.13 1462.39 2339.32 1464.31 Q2338.53 1466.2 2336.42 1468.8 Q2335.85 1469.47 2332.74 1472.69 Q2329.64 1475.88 2323.99 1481.64 Z" fill="#000000" fill-rule="nonzero" fill-opacity="1" /><path clip-path="url(#clip670)" d="M2350.13 1479.7 L2355.01 1479.7 L2355.01 1485.58 L2350.13 1485.58 L2350.13 1479.7 Z" fill="#000000" fill-rule="nonzero" fill-opacity="1" /><path clip-path="url(#clip670)" d="M2375.2 1454.1 Q2371.59 1454.1 2369.76 1457.66 Q2367.95 1461.2 2367.95 1468.33 Q2367.95 1475.44 2369.76 1479.01 Q2371.59 1482.55 2375.2 1482.55 Q2378.83 1482.55 2380.64 1479.01 Q2382.47 1475.44 2382.47 1468.33 Q2382.47 1461.2 2380.64 1457.66 Q2378.83 1454.1 2375.2 1454.1 M2375.2 1450.39 Q2381.01 1450.39 2384.06 1455 Q2387.14 1459.58 2387.14 1468.33 Q2387.14 1477.06 2384.06 1481.67 Q2381.01 1486.25 2375.2 1486.25 Q2369.39 1486.25 2366.31 1481.67 Q2363.25 1477.06 2363.25 1468.33 Q2363.25 1459.58 2366.31 1455 Q2369.39 1450.39 2375.2 1450.39 Z" fill="#000000" fill-rule="nonzero" fill-opacity="1" /><path clip-path="url(#clip670)" d="M1253.74 1522.27 L1253.74 1532.4 L1265.8 1532.4 L1265.8 1536.95 L1253.74 1536.95 L1253.74 1556.3 Q1253.74 1560.66 1254.92 1561.9 Q1256.13 1563.14 1259.79 1563.14 L1265.8 1563.14 L1265.8 1568.04 L1259.79 1568.04 Q1253.01 1568.04 1250.43 1565.53 Q1247.85 1562.98 1247.85 1556.3 L1247.85 1536.95 L1243.55 1536.95 L1243.55 1532.4 L1247.85 1532.4 L1247.85 1522.27 L1253.74 1522.27 Z" fill="#000000" fill-rule="nonzero" fill-opacity="1" /><polyline clip-path="url(#clip670)" style="stroke:#000000; stroke-linecap:round; stroke-linejoin:round; stroke-width:4; stroke-opacity:1; fill:none" points="156.598,1423.18 156.598,47.2441 "/>
<polyline clip-path="url(#clip670)" style="stroke:#000000; stroke-linecap:round; stroke-linejoin:round; stroke-width:4; stroke-opacity:1; fill:none" points="156.598,1283.81 175.496,1283.81 "/>
<polyline clip-path="url(#clip670)" style="stroke:#000000; stroke-linecap:round; stroke-linejoin:round; stroke-width:4; stroke-opacity:1; fill:none" points="156.598,1023.67 175.496,1023.67 "/>
<polyline clip-path="url(#clip670)" style="stroke:#000000; stroke-linecap:round; stroke-linejoin:round; stroke-width:4; stroke-opacity:1; fill:none" points="156.598,763.536 175.496,763.536 "/>
<polyline clip-path="url(#clip670)" style="stroke:#000000; stroke-linecap:round; stroke-linejoin:round; stroke-width:4; stroke-opacity:1; fill:none" points="156.598,503.397 175.496,503.397 "/>
<polyline clip-path="url(#clip670)" style="stroke:#000000; stroke-linecap:round; stroke-linejoin:round; stroke-width:4; stroke-opacity:1; fill:none" points="156.598,243.258 175.496,243.258 "/>
<path clip-path="url(#clip670)" d="M62.9365 1269.61 Q59.3254 1269.61 57.4967 1273.18 Q55.6912 1276.72 55.6912 1283.85 Q55.6912 1290.95 57.4967 1294.52 Q59.3254 1298.06 62.9365 1298.06 Q66.5707 1298.06 68.3763 1294.52 Q70.205 1290.95 70.205 1283.85 Q70.205 1276.72 68.3763 1273.18 Q66.5707 1269.61 62.9365 1269.61 M62.9365 1265.91 Q68.7467 1265.91 71.8022 1270.51 Q74.8809 1275.1 74.8809 1283.85 Q74.8809 1292.57 71.8022 1297.18 Q68.7467 1301.76 62.9365 1301.76 Q57.1264 1301.76 54.0477 1297.18 Q50.9921 1292.57 50.9921 1283.85 Q50.9921 1275.1 54.0477 1270.51 Q57.1264 1265.91 62.9365 1265.91 Z" fill="#000000" fill-rule="nonzero" fill-opacity="1" /><path clip-path="url(#clip670)" d="M83.0984 1295.21 L87.9827 1295.21 L87.9827 1301.09 L83.0984 1301.09 L83.0984 1295.21 Z" fill="#000000" fill-rule="nonzero" fill-opacity="1" /><path clip-path="url(#clip670)" d="M111.015 1270.61 L99.2095 1289.06 L111.015 1289.06 L111.015 1270.61 M109.788 1266.53 L115.668 1266.53 L115.668 1289.06 L120.598 1289.06 L120.598 1292.95 L115.668 1292.95 L115.668 1301.09 L111.015 1301.09 L111.015 1292.95 L95.4132 1292.95 L95.4132 1288.43 L109.788 1266.53 Z" fill="#000000" fill-rule="nonzero" fill-opacity="1" /><path clip-path="url(#clip670)" d="M63.2606 1009.47 Q59.6495 1009.47 57.8208 1013.04 Q56.0152 1016.58 56.0152 1023.71 Q56.0152 1030.82 57.8208 1034.38 Q59.6495 1037.92 63.2606 1037.92 Q66.8948 1037.92 68.7004 1034.38 Q70.5291 1030.82 70.5291 1023.71 Q70.5291 1016.58 68.7004 1013.04 Q66.8948 1009.47 63.2606 1009.47 M63.2606 1005.77 Q69.0707 1005.77 72.1263 1010.38 Q75.205 1014.96 75.205 1023.71 Q75.205 1032.44 72.1263 1037.04 Q69.0707 1041.63 63.2606 1041.63 Q57.4504 1041.63 54.3717 1037.04 Q51.3162 1032.44 51.3162 1023.71 Q51.3162 1014.96 54.3717 1010.38 Q57.4504 1005.77 63.2606 1005.77 Z" fill="#000000" fill-rule="nonzero" fill-opacity="1" /><path clip-path="url(#clip670)" d="M83.4225 1035.08 L88.3067 1035.08 L88.3067 1040.95 L83.4225 1040.95 L83.4225 1035.08 Z" fill="#000000" fill-rule="nonzero" fill-opacity="1" /><path clip-path="url(#clip670)" d="M109.071 1021.81 Q105.922 1021.81 104.071 1023.96 Q102.242 1026.12 102.242 1029.87 Q102.242 1033.59 104.071 1035.77 Q105.922 1037.92 109.071 1037.92 Q112.219 1037.92 114.047 1035.77 Q115.899 1033.59 115.899 1029.87 Q115.899 1026.12 114.047 1023.96 Q112.219 1021.81 109.071 1021.81 M118.353 1007.16 L118.353 1011.42 Q116.594 1010.58 114.788 1010.14 Q113.006 1009.7 111.246 1009.7 Q106.617 1009.7 104.163 1012.83 Q101.733 1015.95 101.385 1022.27 Q102.751 1020.26 104.811 1019.2 Q106.871 1018.11 109.348 1018.11 Q114.557 1018.11 117.566 1021.28 Q120.598 1024.43 120.598 1029.87 Q120.598 1035.19 117.45 1038.41 Q114.302 1041.63 109.071 1041.63 Q103.075 1041.63 99.9039 1037.04 Q96.7326 1032.44 96.7326 1023.71 Q96.7326 1015.52 100.621 1010.65 Q104.51 1005.77 111.061 1005.77 Q112.82 1005.77 114.603 1006.12 Q116.408 1006.46 118.353 1007.16 Z" fill="#000000" fill-rule="nonzero" fill-opacity="1" /><path clip-path="url(#clip670)" d="M63.5152 749.335 Q59.9041 749.335 58.0754 752.899 Q56.2699 756.441 56.2699 763.571 Q56.2699 770.677 58.0754 774.242 Q59.9041 777.784 63.5152 777.784 Q67.1494 777.784 68.955 774.242 Q70.7837 770.677 70.7837 763.571 Q70.7837 756.441 68.955 752.899 Q67.1494 749.335 63.5152 749.335 M63.5152 745.631 Q69.3254 745.631 72.3809 750.237 Q75.4596 754.821 75.4596 763.571 Q75.4596 772.297 72.3809 776.904 Q69.3254 781.487 63.5152 781.487 Q57.7051 781.487 54.6264 776.904 Q51.5708 772.297 51.5708 763.571 Q51.5708 754.821 54.6264 750.237 Q57.7051 745.631 63.5152 745.631 Z" fill="#000000" fill-rule="nonzero" fill-opacity="1" /><path clip-path="url(#clip670)" d="M83.6771 774.936 L88.5614 774.936 L88.5614 780.816 L83.6771 780.816 L83.6771 774.936 Z" fill="#000000" fill-rule="nonzero" fill-opacity="1" /><path clip-path="url(#clip670)" d="M108.746 764.404 Q105.413 764.404 103.492 766.186 Q101.594 767.969 101.594 771.094 Q101.594 774.219 103.492 776.001 Q105.413 777.784 108.746 777.784 Q112.08 777.784 114.001 776.001 Q115.922 774.196 115.922 771.094 Q115.922 767.969 114.001 766.186 Q112.103 764.404 108.746 764.404 M104.071 762.413 Q101.061 761.673 99.3715 759.612 Q97.7048 757.552 97.7048 754.589 Q97.7048 750.446 100.645 748.038 Q103.608 745.631 108.746 745.631 Q113.908 745.631 116.848 748.038 Q119.788 750.446 119.788 754.589 Q119.788 757.552 118.098 759.612 Q116.432 761.673 113.445 762.413 Q116.825 763.2 118.7 765.492 Q120.598 767.784 120.598 771.094 Q120.598 776.117 117.52 778.802 Q114.464 781.487 108.746 781.487 Q103.029 781.487 99.9502 778.802 Q96.8947 776.117 96.8947 771.094 Q96.8947 767.784 98.7928 765.492 Q100.691 763.2 104.071 762.413 M102.358 755.029 Q102.358 757.714 104.024 759.219 Q105.714 760.723 108.746 760.723 Q111.756 760.723 113.445 759.219 Q115.158 757.714 115.158 755.029 Q115.158 752.344 113.445 750.839 Q111.756 749.335 108.746 749.335 Q105.714 749.335 104.024 750.839 Q102.358 752.344 102.358 755.029 Z" fill="#000000" fill-rule="nonzero" fill-opacity="1" /><path clip-path="url(#clip670)" d="M54.2328 516.742 L61.8717 516.742 L61.8717 490.376 L53.5616 492.043 L53.5616 487.784 L61.8254 486.117 L66.5013 486.117 L66.5013 516.742 L74.1402 516.742 L74.1402 520.677 L54.2328 520.677 L54.2328 516.742 Z" fill="#000000" fill-rule="nonzero" fill-opacity="1" /><path clip-path="url(#clip670)" d="M83.5845 514.798 L88.4688 514.798 L88.4688 520.677 L83.5845 520.677 L83.5845 514.798 Z" fill="#000000" fill-rule="nonzero" fill-opacity="1" /><path clip-path="url(#clip670)" d="M108.654 489.196 Q105.043 489.196 103.214 492.761 Q101.409 496.302 101.409 503.432 Q101.409 510.538 103.214 514.103 Q105.043 517.645 108.654 517.645 Q112.288 517.645 114.094 514.103 Q115.922 510.538 115.922 503.432 Q115.922 496.302 114.094 492.761 Q112.288 489.196 108.654 489.196 M108.654 485.492 Q114.464 485.492 117.52 490.099 Q120.598 494.682 120.598 503.432 Q120.598 512.159 117.52 516.765 Q114.464 521.348 108.654 521.348 Q102.844 521.348 99.765 516.765 Q96.7095 512.159 96.7095 503.432 Q96.7095 494.682 99.765 490.099 Q102.844 485.492 108.654 485.492 Z" fill="#000000" fill-rule="nonzero" fill-opacity="1" /><path clip-path="url(#clip670)" d="M55.8301 256.603 L63.4689 256.603 L63.4689 230.238 L55.1588 231.904 L55.1588 227.645 L63.4226 225.978 L68.0985 225.978 L68.0985 256.603 L75.7374 256.603 L75.7374 260.538 L55.8301 260.538 L55.8301 256.603 Z" fill="#000000" fill-rule="nonzero" fill-opacity="1" /><path clip-path="url(#clip670)" d="M85.1818 254.659 L90.066 254.659 L90.066 260.538 L85.1818 260.538 L85.1818 254.659 Z" fill="#000000" fill-rule="nonzero" fill-opacity="1" /><path clip-path="url(#clip670)" d="M104.279 256.603 L120.598 256.603 L120.598 260.538 L98.6539 260.538 L98.6539 256.603 Q101.316 253.849 105.899 249.219 Q110.506 244.566 111.686 243.224 Q113.932 240.701 114.811 238.964 Q115.714 237.205 115.714 235.515 Q115.714 232.761 113.77 231.025 Q111.848 229.289 108.746 229.289 Q106.547 229.289 104.094 230.053 Q101.663 230.816 98.8854 232.367 L98.8854 227.645 Q101.709 226.511 104.163 225.932 Q106.617 225.353 108.654 225.353 Q114.024 225.353 117.219 228.039 Q120.413 230.724 120.413 235.215 Q120.413 237.344 119.603 239.265 Q118.816 241.164 116.709 243.756 Q116.131 244.427 113.029 247.645 Q109.927 250.839 104.279 256.603 Z" fill="#000000" fill-rule="nonzero" fill-opacity="1" /><polyline clip-path="url(#clip672)" style="stroke:#009af9; stroke-linecap:round; stroke-linejoin:round; stroke-width:4; stroke-opacity:1; fill:none" points="156.598,166.155 158.797,178.287 160.995,190.299 163.193,202.192 165.392,213.966 167.59,225.622 169.788,237.163 171.987,248.588 174.185,259.9 176.383,271.099 178.582,282.187 180.78,293.164 182.979,304.031 185.177,314.791 187.375,325.443 189.574,335.989 191.772,346.431 193.97,356.768 196.169,367.002 198.367,377.134 200.565,387.166 202.764,397.097 204.962,406.93 207.16,416.665 209.359,426.302 211.557,435.844 213.755,445.291 215.954,454.643 218.152,463.903 220.351,473.07 222.549,482.146 224.747,491.131 226.946,500.027 229.144,508.835 231.342,517.555 233.541,526.187 235.739,534.734 237.937,543.196 240.136,551.573 242.334,559.867 244.532,568.078 246.731,576.208 248.929,584.257 251.128,592.225 253.326,600.114 255.524,607.925 257.723,615.657 259.921,623.313 262.119,630.892 264.318,638.396 266.516,645.826 268.714,653.181 270.913,660.463 273.111,667.672 275.309,674.81 277.508,681.877 279.706,688.873 281.905,695.799 284.103,702.657 286.301,709.446 288.5,716.168 290.698,722.823 292.896,729.411 295.095,735.934 297.293,742.391 299.491,748.785 301.69,755.114 303.888,761.381 306.086,767.585 308.285,773.728 310.483,779.809 312.682,785.83 314.88,791.79 317.078,797.692 319.277,803.534 321.475,809.319 323.673,815.046 325.872,820.715 328.07,826.329 330.268,831.886 332.467,837.388 334.665,842.835 336.863,848.228 339.062,853.567 341.26,858.854 343.458,864.087 345.657,869.269 347.855,874.398 350.054,879.477 352.252,884.505 354.45,889.484 356.649,894.412 358.847,899.292 361.045,904.122 363.244,908.905 365.442,913.64 367.64,918.328 369.839,922.969 372.037,927.564 374.235,932.113 376.434,936.617 378.632,941.076 380.831,945.49 383.029,949.861 385.227,954.188 387.426,958.471 389.624,962.713 391.822,966.912 394.021,971.069 396.219,975.184 398.417,979.259 400.616,983.293 402.814,987.287 405.012,991.241 407.211,995.156 409.409,999.032 411.608,1002.87 413.806,1006.67 416.004,1010.43 418.203,1014.15 420.401,1017.84 422.599,1021.49 424.798,1025.1 426.996,1028.68 429.194,1032.22 431.393,1035.73 433.591,1039.2 435.789,1042.64 437.988,1046.04 440.186,1049.41 442.385,1052.75 444.583,1056.05 446.781,1059.32 448.98,1062.55 451.178,1065.76 453.376,1068.93 455.575,1072.07 457.773,1075.18 459.971,1078.26 462.17,1081.31 464.368,1084.33 466.566,1087.32 468.765,1090.27 470.963,1093.2 473.162,1096.1 475.36,1098.97 477.558,1101.81 479.757,1104.63 481.955,1107.41 484.153,1110.17 486.352,1112.9 488.55,1115.6 490.748,1118.28 492.947,1120.93 495.145,1123.55 497.343,1126.15 499.542,1128.72 501.74,1131.27 503.938,1133.79 506.137,1136.28 508.335,1138.75 510.534,1141.2 512.732,1143.62 514.93,1146.01 517.129,1148.39 519.327,1150.74 521.525,1153.06 523.724,1155.37 525.922,1157.65 528.12,1159.9 530.319,1162.14 532.517,1164.35 534.715,1166.54 536.914,1168.71 539.112,1170.86 541.311,1172.99 543.509,1175.09 545.707,1177.18 547.906,1179.24 550.104,1181.28 552.302,1183.3 554.501,1185.31 556.699,1187.29 558.897,1189.25 561.096,1191.19 563.294,1193.12 565.492,1195.02 567.691,1196.91 569.889,1198.77 572.088,1200.62 574.286,1202.45 576.484,1204.26 578.683,1206.06 580.881,1207.83 583.079,1209.59 585.278,1211.33 587.476,1213.05 589.674,1214.76 591.873,1216.45 594.071,1218.12 596.269,1219.77 598.468,1221.41 600.666,1223.03 602.865,1224.64 605.063,1226.23 607.261,1227.8 609.46,1229.36 611.658,1230.9 613.856,1232.43 616.055,1233.94 618.253,1235.44 620.451,1236.92 622.65,1238.39 624.848,1239.84 627.046,1241.28 629.245,1242.71 631.443,1244.12 633.641,1245.51 635.84,1246.89 638.038,1248.26 640.237,1249.62 642.435,1250.96 644.633,1252.29 646.832,1253.6 649.03,1254.9 651.228,1256.19 653.427,1257.47 655.625,1258.73 657.823,1259.98 660.022,1261.22 662.22,1262.45 664.418,1263.66 666.617,1264.86 668.815,1266.05 671.014,1267.23 673.212,1268.4 675.41,1269.55 677.609,1270.69 679.807,1271.83 682.005,1272.95 684.204,1274.06 686.402,1275.15 688.6,1276.24 690.799,1277.32 692.997,1278.38 695.195,1279.44 697.394,1280.48 699.592,1281.52 701.791,1282.54 703.989,1283.56 706.187,1284.56 708.386,1285.55 710.584,1286.54 712.782,1287.51 714.981,1288.47 717.179,1289.43 719.377,1290.37 721.576,1291.31 723.774,1292.23 725.972,1293.15 728.171,1294.06 730.369,1294.96 732.568,1295.85 734.766,1296.73 736.964,1297.6 739.163,1298.46 741.361,1299.32 743.559,1300.16 745.758,1301 747.956,1301.83 750.154,1302.65 752.353,1303.47 754.551,1304.27 756.749,1305.07 758.948,1305.86 761.146,1306.64 763.344,1307.41 765.543,1308.18 767.741,1308.93 769.94,1309.68 772.138,1310.43 774.336,1311.16 776.535,1311.89 778.733,1312.61 780.931,1313.33 783.13,1314.03 785.328,1314.73 787.526,1315.42 789.725,1316.11 791.923,1316.79 794.121,1317.46 796.32,1318.13 798.518,1318.79 800.717,1319.44 802.915,1320.09 805.113,1320.73 807.312,1321.36 809.51,1321.99 811.708,1322.61 813.907,1323.22 816.105,1323.83 818.303,1324.43 820.502,1325.03 822.7,1325.62 824.898,1326.21 827.097,1326.78 829.295,1327.36 831.494,1327.93 833.692,1328.49 835.89,1329.04 838.089,1329.59 840.287,1330.14 842.485,1330.68 844.684,1331.21 846.882,1331.74 849.08,1332.27 851.279,1332.78 853.477,1333.3 855.675,1333.81 857.874,1334.31 860.072,1334.81 862.271,1335.3 864.469,1335.79 866.667,1336.27 868.866,1336.75 871.064,1337.22 873.262,1337.69 875.461,1338.16 877.659,1338.62 879.857,1339.07 882.056,1339.52 884.254,1339.97 886.452,1340.41 888.651,1340.84 890.849,1341.28 893.048,1341.71 895.246,1342.13 897.444,1342.55 899.643,1342.96 901.841,1343.38 904.039,1343.78 906.238,1344.19 908.436,1344.59 910.634,1344.98 912.833,1345.37 915.031,1345.76 917.229,1346.14 919.428,1346.52 921.626,1346.9 923.824,1347.27 926.023,1347.64 928.221,1348 930.42,1348.37 932.618,1348.72 934.816,1349.08 937.015,1349.43 939.213,1349.77 941.411,1350.12 943.61,1350.46 945.808,1350.8 948.006,1351.13 950.205,1351.46 952.403,1351.79 954.601,1352.11 956.8,1352.43 958.998,1352.75 961.197,1353.06 963.395,1353.37 965.593,1353.68 967.792,1353.99 969.99,1354.29 972.188,1354.59 974.387,1354.88 976.585,1355.18 978.783,1355.47 980.982,1355.75 983.18,1356.04 985.378,1356.32 987.577,1356.6 989.775,1356.88 991.974,1357.15 994.172,1357.42 996.37,1357.69 998.569,1357.95 1000.77,1358.22 1002.97,1358.48 1005.16,1358.73 1007.36,1358.99 1009.56,1359.24 1011.76,1359.49 1013.96,1359.74 1016.16,1359.98 1018.35,1360.23 1020.55,1360.47 1022.75,1360.7 1024.95,1360.94 1027.15,1361.17 1029.35,1361.4 1031.54,1361.63 1033.74,1361.86 1035.94,1362.08 1038.14,1362.3 1040.34,1362.52 1042.54,1362.74 1044.73,1362.95 1046.93,1363.16 1049.13,1363.37 1051.33,1363.58 1053.53,1363.79 1055.73,1363.99 1057.92,1364.2 1060.12,1364.4 1062.32,1364.59 1064.52,1364.79 1066.72,1364.98 1068.92,1365.18 1071.11,1365.37 1073.31,1365.56 1075.51,1365.74 1077.71,1365.93 1079.91,1366.11 1082.11,1366.29 1084.3,1366.47 1086.5,1366.65 1088.7,1366.82 1090.9,1367 1093.1,1367.17 1095.3,1367.34 1097.49,1367.51 1099.69,1367.67 1101.89,1367.84 1104.09,1368 1106.29,1368.16 1108.49,1368.32 1110.68,1368.48 1112.88,1368.64 1115.08,1368.8 1117.28,1368.95 1119.48,1369.1 1121.68,1369.25 1123.87,1369.4 1126.07,1369.55 1128.27,1369.7 1130.47,1369.84 1132.67,1369.99 1134.87,1370.13 1137.07,1370.27 1139.26,1370.41 1141.46,1370.55 1143.66,1370.69 1145.86,1370.82 1148.06,1370.95 1150.26,1371.09 1152.45,1371.22 1154.65,1371.35 1156.85,1371.48 1159.05,1371.61 1161.25,1371.73 1163.45,1371.86 1165.64,1371.98 1167.84,1372.11 1170.04,1372.23 1172.24,1372.35 1174.44,1372.47 1176.64,1372.58 1178.83,1372.7 1181.03,1372.82 1183.23,1372.93 1185.43,1373.05 1187.63,1373.16 1189.83,1373.27 1192.02,1373.38 1194.22,1373.49 1196.42,1373.6 1198.62,1373.7 1200.82,1373.81 1203.02,1373.91 1205.21,1374.02 1207.41,1374.12 1209.61,1374.22 1211.81,1374.32 1214.01,1374.42 1216.21,1374.52 1218.4,1374.62 1220.6,1374.71 1222.8,1374.81 1225,1374.91 1227.2,1375 1229.4,1375.09 1231.59,1375.18 1233.79,1375.27 1235.99,1375.36 1238.19,1375.45 1240.39,1375.54 1242.59,1375.63 1244.78,1375.72 1246.98,1375.8 1249.18,1375.89 1251.38,1375.97 1253.58,1376.05 1255.78,1376.13 1257.97,1376.22 1260.17,1376.3 1262.37,1376.38 1264.57,1376.45 1266.77,1376.53 1268.97,1376.61 1271.16,1376.69 1273.36,1376.76 1275.56,1376.84 1277.76,1376.91 1279.96,1376.98 1282.16,1377.06 1284.35,1377.13 1286.55,1377.2 1288.75,1377.27 1290.95,1377.34 1293.15,1377.41 1295.35,1377.48 1297.55,1377.55 1299.74,1377.61 1301.94,1377.68 1304.14,1377.75 1306.34,1377.81 1308.54,1377.87 1310.74,1377.94 1312.93,1378 1315.13,1378.06 1317.33,1378.13 1319.53,1378.19 1321.73,1378.25 1323.93,1378.31 1326.12,1378.37 1328.32,1378.43 1330.52,1378.48 1332.72,1378.54 1334.92,1378.6 1337.12,1378.65 1339.31,1378.71 1341.51,1378.77 1343.71,1378.82 1345.91,1378.87 1348.11,1378.93 1350.31,1378.98 1352.5,1379.03 1354.7,1379.09 1356.9,1379.14 1359.1,1379.19 1361.3,1379.24 1363.5,1379.29 1365.69,1379.34 1367.89,1379.39 1370.09,1379.44 1372.29,1379.49 1374.49,1379.53 1376.69,1379.58 1378.88,1379.63 1381.08,1379.68 1383.28,1379.72 1385.48,1379.77 1387.68,1379.81 1389.88,1379.86 1392.07,1379.9 1394.27,1379.95 1396.47,1379.99 1398.67,1380.03 1400.87,1380.08 1403.07,1380.12 1405.26,1380.16 1407.46,1380.2 1409.66,1380.24 1411.86,1380.28 1414.06,1380.32 1416.26,1380.36 1418.45,1380.4 1420.65,1380.44 1422.85,1380.48 1425.05,1380.52 1427.25,1380.56 1429.45,1380.59 1431.64,1380.63 1433.84,1380.67 1436.04,1380.7 1438.24,1380.74 1440.44,1380.78 1442.64,1380.81 1444.83,1380.85 1447.03,1380.88 1449.23,1380.91 1451.43,1380.95 1453.63,1380.98 1455.83,1381.01 1458.03,1381.05 1460.22,1381.08 1462.42,1381.11 1464.62,1381.14 1466.82,1381.18 1469.02,1381.21 1471.22,1381.24 1473.41,1381.27 1475.61,1381.3 1477.81,1381.33 1480.01,1381.36 1482.21,1381.39 1484.41,1381.42 1486.6,1381.45 1488.8,1381.47 1491,1381.5 1493.2,1381.53 1495.4,1381.56 1497.6,1381.59 1499.79,1381.61 1501.99,1381.64 1504.19,1381.67 1506.39,1381.69 1508.59,1381.72 1510.79,1381.74 1512.98,1381.77 1515.18,1381.79 1517.38,1381.82 1519.58,1381.84 1521.78,1381.87 1523.98,1381.89 1526.17,1381.92 1528.37,1381.94 1530.57,1381.96 1532.77,1381.99 1534.97,1382.01 1537.17,1382.03 1539.36,1382.05 1541.56,1382.08 1543.76,1382.1 1545.96,1382.12 1548.16,1382.14 1550.36,1382.16 1552.55,1382.18 1554.75,1382.2 1556.95,1382.22 1559.15,1382.24 1561.35,1382.26 1563.55,1382.28 1565.74,1382.3 1567.94,1382.32 1570.14,1382.34 1572.34,1382.36 1574.54,1382.38 1576.74,1382.4 1578.93,1382.42 1581.13,1382.44 1583.33,1382.46 1585.53,1382.47 1587.73,1382.49 1589.93,1382.51 1592.12,1382.53 1594.32,1382.54 1596.52,1382.56 1598.72,1382.58 1600.92,1382.6 1603.12,1382.61 1605.31,1382.63 1607.51,1382.65 1609.71,1382.66 1611.91,1382.68 1614.11,1382.69 1616.31,1382.71 1618.5,1382.73 1620.7,1382.74 1622.9,1382.76 1625.1,1382.77 1627.3,1382.79 1629.5,1382.8 1631.7,1382.82 1633.89,1382.83 1636.09,1382.85 1638.29,1382.86 1640.49,1382.88 1642.69,1382.89 1644.89,1382.9 1647.08,1382.92 1649.28,1382.93 1651.48,1382.94 1653.68,1382.96 1655.88,1382.97 1658.08,1382.99 1660.27,1383 1662.47,1383.01 1664.67,1383.02 1666.87,1383.04 1669.07,1383.05 1671.27,1383.06 1673.46,1383.07 1675.66,1383.09 1677.86,1383.1 1680.06,1383.11 1682.26,1383.12 1684.46,1383.14 1686.65,1383.15 1688.85,1383.16 1691.05,1383.17 1693.25,1383.18 1695.45,1383.19 1697.65,1383.2 1699.84,1383.21 1702.04,1383.23 1704.24,1383.24 1706.44,1383.25 1708.64,1383.26 1710.84,1383.27 1713.03,1383.28 1715.23,1383.29 1717.43,1383.3 1719.63,1383.31 1721.83,1383.32 1724.03,1383.33 1726.22,1383.34 1728.42,1383.35 1730.62,1383.36 1732.82,1383.37 1735.02,1383.38 1737.22,1383.39 1739.41,1383.4 1741.61,1383.4 1743.81,1383.41 1746.01,1383.42 1748.21,1383.43 1750.41,1383.44 1752.6,1383.45 1754.8,1383.46 1757,1383.47 1759.2,1383.47 1761.4,1383.48 1763.6,1383.49 1765.79,1383.5 1767.99,1383.51 1770.19,1383.51 1772.39,1383.52 1774.59,1383.53 1776.79,1383.54 1778.98,1383.55 1781.18,1383.55 1783.38,1383.56 1785.58,1383.57 1787.78,1383.58 1789.98,1383.58 1792.18,1383.59 1794.37,1383.6 1796.57,1383.6 1798.77,1383.61 1800.97,1383.62 1803.17,1383.62 1805.37,1383.63 1807.56,1383.64 1809.76,1383.64 1811.96,1383.65 1814.16,1383.66 1816.36,1383.66 1818.56,1383.67 1820.75,1383.68 1822.95,1383.68 1825.15,1383.69 1827.35,1383.69 1829.55,1383.7 1831.75,1383.7 1833.94,1383.71 1836.14,1383.72 1838.34,1383.72 1840.54,1383.73 1842.74,1383.73 1844.94,1383.74 1847.13,1383.74 1849.33,1383.75 1851.53,1383.75 1853.73,1383.76 1855.93,1383.76 1858.13,1383.77 1860.32,1383.78 1862.52,1383.78 1864.72,1383.79 1866.92,1383.79 1869.12,1383.79 1871.32,1383.8 1873.51,1383.8 1875.71,1383.81 1877.91,1383.81 1880.11,1383.82 1882.31,1383.82 1884.51,1383.83 1886.7,1383.83 1888.9,1383.84 1891.1,1383.84 1893.3,1383.85 1895.5,1383.85 1897.7,1383.85 1899.89,1383.86 1902.09,1383.86 1904.29,1383.87 1906.49,1383.87 1908.69,1383.87 1910.89,1383.88 1913.08,1383.88 1915.28,1383.89 1917.48,1383.89 1919.68,1383.89 1921.88,1383.9 1924.08,1383.9 1926.27,1383.91 1928.47,1383.91 1930.67,1383.91 1932.87,1383.92 1935.07,1383.92 1937.27,1383.93 1939.46,1383.93 1941.66,1383.93 1943.86,1383.94 1946.06,1383.94 1948.26,1383.94 1950.46,1383.95 1952.66,1383.95 1954.85,1383.95 1957.05,1383.96 1959.25,1383.96 1961.45,1383.96 1963.65,1383.97 1965.85,1383.97 1968.04,1383.97 1970.24,1383.98 1972.44,1383.98 1974.64,1383.98 1976.84,1383.99 1979.04,1383.99 1981.23,1383.99 1983.43,1384 1985.63,1384 1987.83,1384 1990.03,1384.01 1992.23,1384.01 1994.42,1384.01 1996.62,1384.01 1998.82,1384.02 2001.02,1384.02 2003.22,1384.02 2005.42,1384.03 2007.61,1384.03 2009.81,1384.03 2012.01,1384.03 2014.21,1384.04 2016.41,1384.04 2018.61,1384.04 2020.8,1384.04 2023,1384.05 2025.2,1384.05 2027.4,1384.05 2029.6,1384.06 2031.8,1384.06 2033.99,1384.06 2036.19,1384.06 2038.39,1384.07 2040.59,1384.07 2042.79,1384.07 2044.99,1384.07 2047.18,1384.07 2049.38,1384.08 2051.58,1384.08 2053.78,1384.08 2055.98,1384.08 2058.18,1384.09 2060.37,1384.09 2062.57,1384.09 2064.77,1384.09 2066.97,1384.09 2069.17,1384.1 2071.37,1384.1 2073.56,1384.1 2075.76,1384.1 2077.96,1384.1 2080.16,1384.11 2082.36,1384.11 2084.56,1384.11 2086.75,1384.11 2088.95,1384.11 2091.15,1384.12 2093.35,1384.12 2095.55,1384.12 2097.75,1384.12 2099.94,1384.12 2102.14,1384.13 2104.34,1384.13 2106.54,1384.13 2108.74,1384.13 2110.94,1384.13 2113.14,1384.13 2115.33,1384.14 2117.53,1384.14 2119.73,1384.14 2121.93,1384.14 2124.13,1384.14 2126.33,1384.14 2128.52,1384.14 2130.72,1384.15 2132.92,1384.15 2135.12,1384.15 2137.32,1384.15 2139.52,1384.15 2141.71,1384.15 2143.91,1384.16 2146.11,1384.16 2148.31,1384.16 2150.51,1384.16 2152.71,1384.16 2154.9,1384.16 2157.1,1384.16 2159.3,1384.16 2161.5,1384.17 2163.7,1384.17 2165.9,1384.17 2168.09,1384.17 2170.29,1384.17 2172.49,1384.17 2174.69,1384.17 2176.89,1384.17 2179.09,1384.18 2181.28,1384.18 2183.48,1384.18 2185.68,1384.18 2187.88,1384.18 2190.08,1384.18 2192.28,1384.18 2194.47,1384.18 2196.67,1384.18 2198.87,1384.18 2201.07,1384.19 2203.27,1384.19 2205.47,1384.19 2207.66,1384.19 2209.86,1384.19 2212.06,1384.19 2214.26,1384.19 2216.46,1384.19 2218.66,1384.19 2220.85,1384.19 2223.05,1384.2 2225.25,1384.2 2227.45,1384.2 2229.65,1384.2 2231.85,1384.2 2234.04,1384.2 2236.24,1384.2 2238.44,1384.2 2240.64,1384.2 2242.84,1384.2 2245.04,1384.2 2247.23,1384.2 2249.43,1384.21 2251.63,1384.21 2253.83,1384.21 2256.03,1384.21 2258.23,1384.21 2260.42,1384.21 2262.62,1384.21 2264.82,1384.21 2267.02,1384.21 2269.22,1384.21 2271.42,1384.21 2273.62,1384.21 2275.81,1384.21 2278.01,1384.22 2280.21,1384.22 2282.41,1384.22 2284.61,1384.22 2286.81,1384.22 2289,1384.22 2291.2,1384.22 2293.4,1384.22 2295.6,1384.22 2297.8,1384.22 2300,1384.22 2302.19,1384.22 2304.39,1384.22 2306.59,1384.22 2308.79,1384.23 2310.99,1384.23 2313.19,1384.23 2315.38,1384.23 2317.58,1384.23 2319.78,1384.23 2321.98,1384.23 2324.18,1384.23 2326.38,1384.23 2328.57,1384.23 2330.77,1384.23 2332.97,1384.23 2335.17,1384.23 2337.37,1384.23 2339.57,1384.23 2341.76,1384.24 2343.96,1384.24 2346.16,1384.24 2348.36,1384.24 2350.56,1384.24 2352.76,1384.24 "/>
<polyline clip-path="url(#clip672)" style="stroke:#e26f46; stroke-linecap:round; stroke-linejoin:round; stroke-width:4; stroke-opacity:1; fill:none" points="156.598,86.1857 158.797,94.5646 160.995,102.887 163.193,111.154 165.392,119.366 167.59,127.522 169.788,135.624 171.987,143.672 174.185,151.666 176.383,159.606 178.582,167.493 180.78,175.327 182.979,183.109 185.177,190.839 187.375,198.518 189.574,206.145 191.772,213.721 193.97,221.247 196.169,228.722 198.367,236.148 200.565,243.524 202.764,250.85 204.962,258.129 207.16,265.358 209.359,272.54 211.557,279.673 213.755,286.76 215.954,293.799 218.152,300.791 220.351,307.737 222.549,314.636 224.747,321.49 226.946,328.299 229.144,335.062 231.342,341.78 233.541,348.454 235.739,355.083 237.937,361.669 240.136,368.21 242.334,374.709 244.532,381.164 246.731,387.577 248.929,393.947 251.128,400.276 253.326,406.562 255.524,412.806 257.723,419.01 259.921,425.172 262.119,431.294 264.318,437.375 266.516,443.417 268.714,449.418 270.913,455.38 273.111,461.302 275.309,467.185 277.508,473.03 279.706,478.836 281.905,484.604 284.103,490.333 286.301,496.026 288.5,501.68 290.698,507.298 292.896,512.878 295.095,518.422 297.293,523.929 299.491,529.4 301.69,534.836 303.888,540.235 306.086,545.599 308.285,550.928 310.483,556.222 312.682,561.481 314.88,566.706 317.078,571.896 319.277,577.053 321.475,582.175 323.673,587.264 325.872,592.32 328.07,597.343 330.268,602.332 332.467,607.29 334.665,612.214 336.863,617.107 339.062,621.967 341.26,626.796 343.458,631.593 345.657,636.359 347.855,641.094 350.054,645.798 352.252,650.471 354.45,655.114 356.649,659.727 358.847,664.309 361.045,668.862 363.244,673.385 365.442,677.878 367.64,682.342 369.839,686.777 372.037,691.183 374.235,695.561 376.434,699.91 378.632,704.231 380.831,708.523 383.029,712.788 385.227,717.025 387.426,721.235 389.624,725.417 391.822,729.572 394.021,733.7 396.219,737.801 398.417,741.876 400.616,745.924 402.814,749.946 405.012,753.942 407.211,757.912 409.409,761.857 411.608,765.775 413.806,769.669 416.004,773.537 418.203,777.38 420.401,781.198 422.599,784.992 424.798,788.761 426.996,792.506 429.194,796.226 431.393,799.923 433.591,803.595 435.789,807.244 437.988,810.87 440.186,814.472 442.385,818.05 444.583,821.606 446.781,825.139 448.98,828.649 451.178,832.136 453.376,835.601 455.575,839.043 457.773,842.463 459.971,845.862 462.17,849.238 464.368,852.593 466.566,855.926 468.765,859.237 470.963,862.528 473.162,865.797 475.36,869.045 477.558,872.272 479.757,875.479 481.955,878.664 484.153,881.83 486.352,884.975 488.55,888.1 490.748,891.205 492.947,894.29 495.145,897.355 497.343,900.4 499.542,903.426 501.74,906.433 503.938,909.42 506.137,912.388 508.335,915.337 510.534,918.267 512.732,921.179 514.93,924.072 517.129,926.946 519.327,929.802 521.525,932.64 523.724,935.459 525.922,938.261 528.12,941.044 530.319,943.81 532.517,946.558 534.715,949.289 536.914,952.002 539.112,954.698 541.311,957.377 543.509,960.038 545.707,962.683 547.906,965.311 550.104,967.922 552.302,970.516 554.501,973.094 556.699,975.655 558.897,978.2 561.096,980.729 563.294,983.241 565.492,985.738 567.691,988.219 569.889,990.684 572.088,993.133 574.286,995.567 576.484,997.985 578.683,1000.39 580.881,1002.78 583.079,1005.15 585.278,1007.5 587.476,1009.85 589.674,1012.17 591.873,1014.49 594.071,1016.78 596.269,1019.07 598.468,1021.34 600.666,1023.59 602.865,1025.83 605.063,1028.06 607.261,1030.27 609.46,1032.47 611.658,1034.65 613.856,1036.82 616.055,1038.98 618.253,1041.12 620.451,1043.25 622.65,1045.36 624.848,1047.47 627.046,1049.55 629.245,1051.63 631.443,1053.69 633.641,1055.74 635.84,1057.78 638.038,1059.8 640.237,1061.81 642.435,1063.81 644.633,1065.8 646.832,1067.77 649.03,1069.73 651.228,1071.68 653.427,1073.61 655.625,1075.54 657.823,1077.45 660.022,1079.35 662.22,1081.23 664.418,1083.11 666.617,1084.97 668.815,1086.82 671.014,1088.66 673.212,1090.49 675.41,1092.31 677.609,1094.12 679.807,1095.91 682.005,1097.69 684.204,1099.46 686.402,1101.22 688.6,1102.97 690.799,1104.71 692.997,1106.44 695.195,1108.16 697.394,1109.86 699.592,1111.56 701.791,1113.24 703.989,1114.92 706.187,1116.58 708.386,1118.23 710.584,1119.87 712.782,1121.51 714.981,1123.13 717.179,1124.74 719.377,1126.34 721.576,1127.93 723.774,1129.51 725.972,1131.08 728.171,1132.65 730.369,1134.2 732.568,1135.74 734.766,1137.27 736.964,1138.79 739.163,1140.31 741.361,1141.81 743.559,1143.31 745.758,1144.79 747.956,1146.27 750.154,1147.73 752.353,1149.19 754.551,1150.64 756.749,1152.08 758.948,1153.51 761.146,1154.93 763.344,1156.34 765.543,1157.74 767.741,1159.14 769.94,1160.52 772.138,1161.9 774.336,1163.27 776.535,1164.63 778.733,1165.98 780.931,1167.32 783.13,1168.66 785.328,1169.98 787.526,1171.3 789.725,1172.61 791.923,1173.91 794.121,1175.2 796.32,1176.49 798.518,1177.77 800.717,1179.04 802.915,1180.3 805.113,1181.55 807.312,1182.8 809.51,1184.04 811.708,1185.27 813.907,1186.49 816.105,1187.7 818.303,1188.91 820.502,1190.11 822.7,1191.3 824.898,1192.49 827.097,1193.67 829.295,1194.84 831.494,1196 833.692,1197.15 835.89,1198.3 838.089,1199.44 840.287,1200.58 842.485,1201.71 844.684,1202.83 846.882,1203.94 849.08,1205.04 851.279,1206.14 853.477,1207.24 855.675,1208.32 857.874,1209.4 860.072,1210.47 862.271,1211.54 864.469,1212.6 866.667,1213.65 868.866,1214.7 871.064,1215.73 873.262,1216.77 875.461,1217.79 877.659,1218.81 879.857,1219.83 882.056,1220.83 884.254,1221.84 886.452,1222.83 888.651,1223.82 890.849,1224.8 893.048,1225.78 895.246,1226.75 897.444,1227.71 899.643,1228.67 901.841,1229.62 904.039,1230.57 906.238,1231.51 908.436,1232.44 910.634,1233.37 912.833,1234.3 915.031,1235.21 917.229,1236.13 919.428,1237.03 921.626,1237.93 923.824,1238.83 926.023,1239.72 928.221,1240.6 930.42,1241.48 932.618,1242.35 934.816,1243.22 937.015,1244.08 939.213,1244.94 941.411,1245.79 943.61,1246.64 945.808,1247.48 948.006,1248.31 950.205,1249.14 952.403,1249.97 954.601,1250.79 956.8,1251.61 958.998,1252.42 961.197,1253.22 963.395,1254.02 965.593,1254.82 967.792,1255.61 969.99,1256.39 972.188,1257.18 974.387,1257.95 976.585,1258.72 978.783,1259.49 980.982,1260.25 983.18,1261.01 985.378,1261.76 987.577,1262.51 989.775,1263.25 991.974,1263.99 994.172,1264.72 996.37,1265.45 998.569,1266.18 1000.77,1266.9 1002.97,1267.61 1005.16,1268.33 1007.36,1269.03 1009.56,1269.74 1011.76,1270.44 1013.96,1271.13 1016.16,1271.82 1018.35,1272.51 1020.55,1273.19 1022.75,1273.86 1024.95,1274.54 1027.15,1275.21 1029.35,1275.87 1031.54,1276.53 1033.74,1277.19 1035.94,1277.84 1038.14,1278.49 1040.34,1279.13 1042.54,1279.77 1044.73,1280.41 1046.93,1281.04 1049.13,1281.67 1051.33,1282.3 1053.53,1282.92 1055.73,1283.54 1057.92,1284.15 1060.12,1284.76 1062.32,1285.36 1064.52,1285.97 1066.72,1286.56 1068.92,1287.16 1071.11,1287.75 1073.31,1288.34 1075.51,1288.92 1077.71,1289.5 1079.91,1290.08 1082.11,1290.65 1084.3,1291.22 1086.5,1291.79 1088.7,1292.35 1090.9,1292.91 1093.1,1293.47 1095.3,1294.02 1097.49,1294.57 1099.69,1295.11 1101.89,1295.65 1104.09,1296.19 1106.29,1296.73 1108.49,1297.26 1110.68,1297.79 1112.88,1298.32 1115.08,1298.84 1117.28,1299.36 1119.48,1299.87 1121.68,1300.39 1123.87,1300.9 1126.07,1301.4 1128.27,1301.91 1130.47,1302.41 1132.67,1302.91 1134.87,1303.4 1137.07,1303.89 1139.26,1304.38 1141.46,1304.86 1143.66,1305.35 1145.86,1305.83 1148.06,1306.3 1150.26,1306.78 1152.45,1307.25 1154.65,1307.72 1156.85,1308.18 1159.05,1308.64 1161.25,1309.1 1163.45,1309.56 1165.64,1310.01 1167.84,1310.46 1170.04,1310.91 1172.24,1311.36 1174.44,1311.8 1176.64,1312.24 1178.83,1312.68 1181.03,1313.11 1183.23,1313.54 1185.43,1313.97 1187.63,1314.4 1189.83,1314.83 1192.02,1315.25 1194.22,1315.67 1196.42,1316.08 1198.62,1316.5 1200.82,1316.91 1203.02,1317.32 1205.21,1317.72 1207.41,1318.13 1209.61,1318.53 1211.81,1318.93 1214.01,1319.32 1216.21,1319.72 1218.4,1320.11 1220.6,1320.5 1222.8,1320.89 1225,1321.27 1227.2,1321.65 1229.4,1322.03 1231.59,1322.41 1233.79,1322.78 1235.99,1323.16 1238.19,1323.53 1240.39,1323.9 1242.59,1324.26 1244.78,1324.63 1246.98,1324.99 1249.18,1325.35 1251.38,1325.7 1253.58,1326.06 1255.78,1326.41 1257.97,1326.76 1260.17,1327.11 1262.37,1327.46 1264.57,1327.8 1266.77,1328.14 1268.97,1328.48 1271.16,1328.82 1273.36,1329.16 1275.56,1329.49 1277.76,1329.82 1279.96,1330.15 1282.16,1330.48 1284.35,1330.81 1286.55,1331.13 1288.75,1331.45 1290.95,1331.77 1293.15,1332.09 1295.35,1332.41 1297.55,1332.72 1299.74,1333.03 1301.94,1333.34 1304.14,1333.65 1306.34,1333.96 1308.54,1334.26 1310.74,1334.56 1312.93,1334.87 1315.13,1335.16 1317.33,1335.46 1319.53,1335.76 1321.73,1336.05 1323.93,1336.34 1326.12,1336.63 1328.32,1336.92 1330.52,1337.21 1332.72,1337.49 1334.92,1337.77 1337.12,1338.06 1339.31,1338.34 1341.51,1338.61 1343.71,1338.89 1345.91,1339.16 1348.11,1339.44 1350.31,1339.71 1352.5,1339.98 1354.7,1340.25 1356.9,1340.51 1359.1,1340.78 1361.3,1341.04 1363.5,1341.3 1365.69,1341.56 1367.89,1341.82 1370.09,1342.08 1372.29,1342.33 1374.49,1342.59 1376.69,1342.84 1378.88,1343.09 1381.08,1343.34 1383.28,1343.59 1385.48,1343.83 1387.68,1344.08 1389.88,1344.32 1392.07,1344.56 1394.27,1344.8 1396.47,1345.04 1398.67,1345.28 1400.87,1345.51 1403.07,1345.75 1405.26,1345.98 1407.46,1346.21 1409.66,1346.44 1411.86,1346.67 1414.06,1346.9 1416.26,1347.12 1418.45,1347.35 1420.65,1347.57 1422.85,1347.79 1425.05,1348.01 1427.25,1348.23 1429.45,1348.45 1431.64,1348.67 1433.84,1348.88 1436.04,1349.1 1438.24,1349.31 1440.44,1349.52 1442.64,1349.73 1444.83,1349.94 1447.03,1350.15 1449.23,1350.35 1451.43,1350.56 1453.63,1350.76 1455.83,1350.97 1458.03,1351.17 1460.22,1351.37 1462.42,1351.57 1464.62,1351.76 1466.82,1351.96 1469.02,1352.16 1471.22,1352.35 1473.41,1352.54 1475.61,1352.73 1477.81,1352.92 1480.01,1353.11 1482.21,1353.3 1484.41,1353.49 1486.6,1353.68 1488.8,1353.86 1491,1354.04 1493.2,1354.23 1495.4,1354.41 1497.6,1354.59 1499.79,1354.77 1501.99,1354.95 1504.19,1355.12 1506.39,1355.3 1508.59,1355.47 1510.79,1355.65 1512.98,1355.82 1515.18,1355.99 1517.38,1356.16 1519.58,1356.33 1521.78,1356.5 1523.98,1356.67 1526.17,1356.83 1528.37,1357 1530.57,1357.17 1532.77,1357.33 1534.97,1357.49 1537.17,1357.65 1539.36,1357.81 1541.56,1357.97 1543.76,1358.13 1545.96,1358.29 1548.16,1358.45 1550.36,1358.6 1552.55,1358.76 1554.75,1358.91 1556.95,1359.06 1559.15,1359.22 1561.35,1359.37 1563.55,1359.52 1565.74,1359.67 1567.94,1359.81 1570.14,1359.96 1572.34,1360.11 1574.54,1360.25 1576.74,1360.4 1578.93,1360.54 1581.13,1360.69 1583.33,1360.83 1585.53,1360.97 1587.73,1361.11 1589.93,1361.25 1592.12,1361.39 1594.32,1361.53 1596.52,1361.66 1598.72,1361.8 1600.92,1361.94 1603.12,1362.07 1605.31,1362.2 1607.51,1362.34 1609.71,1362.47 1611.91,1362.6 1614.11,1362.73 1616.31,1362.86 1618.5,1362.99 1620.7,1363.12 1622.9,1363.25 1625.1,1363.37 1627.3,1363.5 1629.5,1363.62 1631.7,1363.75 1633.89,1363.87 1636.09,1364 1638.29,1364.12 1640.49,1364.24 1642.69,1364.36 1644.89,1364.48 1647.08,1364.6 1649.28,1364.72 1651.48,1364.84 1653.68,1364.95 1655.88,1365.07 1658.08,1365.19 1660.27,1365.3 1662.47,1365.42 1664.67,1365.53 1666.87,1365.64 1669.07,1365.75 1671.27,1365.87 1673.46,1365.98 1675.66,1366.09 1677.86,1366.2 1680.06,1366.31 1682.26,1366.42 1684.46,1366.52 1686.65,1366.63 1688.85,1366.74 1691.05,1366.84 1693.25,1366.95 1695.45,1367.05 1697.65,1367.16 1699.84,1367.26 1702.04,1367.36 1704.24,1367.46 1706.44,1367.57 1708.64,1367.67 1710.84,1367.77 1713.03,1367.87 1715.23,1367.97 1717.43,1368.06 1719.63,1368.16 1721.83,1368.26 1724.03,1368.36 1726.22,1368.45 1728.42,1368.55 1730.62,1368.64 1732.82,1368.74 1735.02,1368.83 1737.22,1368.92 1739.41,1369.02 1741.61,1369.11 1743.81,1369.2 1746.01,1369.29 1748.21,1369.38 1750.41,1369.47 1752.6,1369.56 1754.8,1369.65 1757,1369.74 1759.2,1369.82 1761.4,1369.91 1763.6,1370 1765.79,1370.08 1767.99,1370.17 1770.19,1370.25 1772.39,1370.34 1774.59,1370.42 1776.79,1370.51 1778.98,1370.59 1781.18,1370.67 1783.38,1370.75 1785.58,1370.84 1787.78,1370.92 1789.98,1371 1792.18,1371.08 1794.37,1371.16 1796.57,1371.24 1798.77,1371.31 1800.97,1371.39 1803.17,1371.47 1805.37,1371.55 1807.56,1371.62 1809.76,1371.7 1811.96,1371.77 1814.16,1371.85 1816.36,1371.92 1818.56,1372 1820.75,1372.07 1822.95,1372.15 1825.15,1372.22 1827.35,1372.29 1829.55,1372.36 1831.75,1372.44 1833.94,1372.51 1836.14,1372.58 1838.34,1372.65 1840.54,1372.72 1842.74,1372.79 1844.94,1372.86 1847.13,1372.93 1849.33,1372.99 1851.53,1373.06 1853.73,1373.13 1855.93,1373.2 1858.13,1373.26 1860.32,1373.33 1862.52,1373.39 1864.72,1373.46 1866.92,1373.52 1869.12,1373.59 1871.32,1373.65 1873.51,1373.72 1875.71,1373.78 1877.91,1373.84 1880.11,1373.91 1882.31,1373.97 1884.51,1374.03 1886.7,1374.09 1888.9,1374.15 1891.1,1374.21 1893.3,1374.28 1895.5,1374.34 1897.7,1374.4 1899.89,1374.45 1902.09,1374.51 1904.29,1374.57 1906.49,1374.63 1908.69,1374.69 1910.89,1374.75 1913.08,1374.8 1915.28,1374.86 1917.48,1374.92 1919.68,1374.97 1921.88,1375.03 1924.08,1375.09 1926.27,1375.14 1928.47,1375.2 1930.67,1375.25 1932.87,1375.3 1935.07,1375.36 1937.27,1375.41 1939.46,1375.47 1941.66,1375.52 1943.86,1375.57 1946.06,1375.62 1948.26,1375.68 1950.46,1375.73 1952.66,1375.78 1954.85,1375.83 1957.05,1375.88 1959.25,1375.93 1961.45,1375.98 1963.65,1376.03 1965.85,1376.08 1968.04,1376.13 1970.24,1376.18 1972.44,1376.23 1974.64,1376.28 1976.84,1376.33 1979.04,1376.37 1981.23,1376.42 1983.43,1376.47 1985.63,1376.52 1987.83,1376.56 1990.03,1376.61 1992.23,1376.66 1994.42,1376.7 1996.62,1376.75 1998.82,1376.79 2001.02,1376.84 2003.22,1376.88 2005.42,1376.93 2007.61,1376.97 2009.81,1377.02 2012.01,1377.06 2014.21,1377.1 2016.41,1377.15 2018.61,1377.19 2020.8,1377.23 2023,1377.28 2025.2,1377.32 2027.4,1377.36 2029.6,1377.4 2031.8,1377.44 2033.99,1377.48 2036.19,1377.53 2038.39,1377.57 2040.59,1377.61 2042.79,1377.65 2044.99,1377.69 2047.18,1377.73 2049.38,1377.77 2051.58,1377.81 2053.78,1377.85 2055.98,1377.88 2058.18,1377.92 2060.37,1377.96 2062.57,1378 2064.77,1378.04 2066.97,1378.07 2069.17,1378.11 2071.37,1378.15 2073.56,1378.19 2075.76,1378.22 2077.96,1378.26 2080.16,1378.3 2082.36,1378.33 2084.56,1378.37 2086.75,1378.4 2088.95,1378.44 2091.15,1378.47 2093.35,1378.51 2095.55,1378.54 2097.75,1378.58 2099.94,1378.61 2102.14,1378.65 2104.34,1378.68 2106.54,1378.71 2108.74,1378.75 2110.94,1378.78 2113.14,1378.81 2115.33,1378.85 2117.53,1378.88 2119.73,1378.91 2121.93,1378.95 2124.13,1378.98 2126.33,1379.01 2128.52,1379.04 2130.72,1379.07 2132.92,1379.1 2135.12,1379.13 2137.32,1379.17 2139.52,1379.2 2141.71,1379.23 2143.91,1379.26 2146.11,1379.29 2148.31,1379.32 2150.51,1379.35 2152.71,1379.38 2154.9,1379.41 2157.1,1379.44 2159.3,1379.47 2161.5,1379.49 2163.7,1379.52 2165.9,1379.55 2168.09,1379.58 2170.29,1379.61 2172.49,1379.64 2174.69,1379.66 2176.89,1379.69 2179.09,1379.72 2181.28,1379.75 2183.48,1379.77 2185.68,1379.8 2187.88,1379.83 2190.08,1379.85 2192.28,1379.88 2194.47,1379.91 2196.67,1379.93 2198.87,1379.96 2201.07,1379.99 2203.27,1380.01 2205.47,1380.04 2207.66,1380.06 2209.86,1380.09 2212.06,1380.11 2214.26,1380.14 2216.46,1380.16 2218.66,1380.19 2220.85,1380.21 2223.05,1380.24 2225.25,1380.26 2227.45,1380.28 2229.65,1380.31 2231.85,1380.33 2234.04,1380.36 2236.24,1380.38 2238.44,1380.4 2240.64,1380.43 2242.84,1380.45 2245.04,1380.47 2247.23,1380.5 2249.43,1380.52 2251.63,1380.54 2253.83,1380.56 2256.03,1380.58 2258.23,1380.61 2260.42,1380.63 2262.62,1380.65 2264.82,1380.67 2267.02,1380.69 2269.22,1380.72 2271.42,1380.74 2273.62,1380.76 2275.81,1380.78 2278.01,1380.8 2280.21,1380.82 2282.41,1380.84 2284.61,1380.86 2286.81,1380.88 2289,1380.9 2291.2,1380.92 2293.4,1380.94 2295.6,1380.96 2297.8,1380.98 2300,1381 2302.19,1381.02 2304.39,1381.04 2306.59,1381.06 2308.79,1381.08 2310.99,1381.1 2313.19,1381.12 2315.38,1381.14 2317.58,1381.16 2319.78,1381.18 2321.98,1381.2 2324.18,1381.22 2326.38,1381.23 2328.57,1381.25 2330.77,1381.27 2332.97,1381.29 2335.17,1381.31 2337.37,1381.32 2339.57,1381.34 2341.76,1381.36 2343.96,1381.38 2346.16,1381.4 2348.36,1381.41 2350.56,1381.43 2352.76,1381.45 "/>
<path clip-path="url(#clip670)" d="M1800.54 248.629 L2279.55 248.629 L2279.55 93.1086 L1800.54 93.1086  Z" fill="#ffffff" fill-rule="evenodd" fill-opacity="1"/>
<polyline clip-path="url(#clip670)" style="stroke:#000000; stroke-linecap:round; stroke-linejoin:round; stroke-width:4; stroke-opacity:1; fill:none" points="1800.54,248.629 2279.55,248.629 2279.55,93.1086 1800.54,93.1086 1800.54,248.629 "/>
<polyline clip-path="url(#clip670)" style="stroke:#009af9; stroke-linecap:round; stroke-linejoin:round; stroke-width:4; stroke-opacity:1; fill:none" points="1824.94,144.949 1971.35,144.949 "/>
<path clip-path="url(#clip670)" d="M1995.75 136.303 L2000.27 136.303 L2008.37 158.062 L2016.47 136.303 L2020.98 136.303 L2011.26 162.229 L2005.47 162.229 L1995.75 136.303 Z" fill="#000000" fill-rule="nonzero" fill-opacity="1" /><path clip-path="url(#clip670)" d="M2028.28 158.293 L2035.91 158.293 L2035.91 131.928 L2027.6 133.595 L2027.6 129.335 L2035.87 127.669 L2040.54 127.669 L2040.54 158.293 L2048.18 158.293 L2048.18 162.229 L2028.28 162.229 L2028.28 158.293 Z" fill="#000000" fill-rule="nonzero" fill-opacity="1" /><path clip-path="url(#clip670)" d="M2066.28 145.585 L2066.28 152.807 L2074.41 152.807 L2074.41 155.006 L2066.28 155.006 L2066.28 162.229 L2063.85 162.229 L2063.85 155.006 L2055.73 155.006 L2055.73 152.807 L2063.85 152.807 L2063.85 145.585 L2066.28 145.585 Z" fill="#000000" fill-rule="nonzero" fill-opacity="1" /><path clip-path="url(#clip670)" d="M2098.58 137.067 L2098.58 141.094 Q2096.77 140.169 2094.83 139.706 Q2092.88 139.243 2090.8 139.243 Q2087.63 139.243 2086.03 140.215 Q2084.46 141.187 2084.46 143.131 Q2084.46 144.613 2085.59 145.469 Q2086.72 146.303 2090.15 147.067 L2091.61 147.391 Q2096.15 148.363 2098.04 150.145 Q2099.96 151.905 2099.96 155.076 Q2099.96 158.687 2097.09 160.793 Q2094.25 162.9 2089.25 162.9 Q2087.16 162.9 2084.9 162.483 Q2082.65 162.09 2080.15 161.28 L2080.15 156.881 Q2082.51 158.108 2084.8 158.733 Q2087.09 159.335 2089.34 159.335 Q2092.35 159.335 2093.97 158.317 Q2095.59 157.275 2095.59 155.4 Q2095.59 153.664 2094.41 152.738 Q2093.25 151.812 2089.29 150.956 L2087.81 150.608 Q2083.85 149.775 2082.09 148.062 Q2080.34 146.326 2080.34 143.317 Q2080.34 139.659 2082.93 137.669 Q2085.52 135.678 2090.29 135.678 Q2092.65 135.678 2094.73 136.025 Q2096.82 136.372 2098.58 137.067 Z" fill="#000000" fill-rule="nonzero" fill-opacity="1" /><path clip-path="url(#clip670)" d="M2110.96 128.942 L2110.96 136.303 L2119.73 136.303 L2119.73 139.613 L2110.96 139.613 L2110.96 153.687 Q2110.96 156.858 2111.82 157.761 Q2112.7 158.664 2115.36 158.664 L2119.73 158.664 L2119.73 162.229 L2115.36 162.229 Q2110.43 162.229 2108.55 160.4 Q2106.68 158.548 2106.68 153.687 L2106.68 139.613 L2103.55 139.613 L2103.55 136.303 L2106.68 136.303 L2106.68 128.942 L2110.96 128.942 Z" fill="#000000" fill-rule="nonzero" fill-opacity="1" /><path clip-path="url(#clip670)" d="M2135.38 139.289 Q2131.96 139.289 2129.96 141.974 Q2127.97 144.636 2127.97 149.289 Q2127.97 153.942 2129.94 156.627 Q2131.93 159.289 2135.38 159.289 Q2138.78 159.289 2140.77 156.604 Q2142.77 153.918 2142.77 149.289 Q2142.77 144.682 2140.77 141.997 Q2138.78 139.289 2135.38 139.289 M2135.38 135.678 Q2140.94 135.678 2144.11 139.289 Q2147.28 142.9 2147.28 149.289 Q2147.28 155.655 2144.11 159.289 Q2140.94 162.9 2135.38 162.9 Q2129.8 162.9 2126.63 159.289 Q2123.48 155.655 2123.48 149.289 Q2123.48 142.9 2126.63 139.289 Q2129.8 135.678 2135.38 135.678 Z" fill="#000000" fill-rule="nonzero" fill-opacity="1" /><path clip-path="url(#clip670)" d="M2169.36 140.284 Q2168.64 139.868 2167.79 139.682 Q2166.95 139.474 2165.94 139.474 Q2162.33 139.474 2160.38 141.835 Q2158.46 144.173 2158.46 148.571 L2158.46 162.229 L2154.18 162.229 L2154.18 136.303 L2158.46 136.303 L2158.46 140.331 Q2159.8 137.969 2161.95 136.835 Q2164.11 135.678 2167.19 135.678 Q2167.63 135.678 2168.16 135.747 Q2168.69 135.794 2169.34 135.909 L2169.36 140.284 Z" fill="#000000" fill-rule="nonzero" fill-opacity="1" /><path clip-path="url(#clip670)" d="M2185.61 149.196 Q2180.45 149.196 2178.46 150.377 Q2176.47 151.557 2176.47 154.405 Q2176.47 156.673 2177.95 158.016 Q2179.45 159.335 2182.02 159.335 Q2185.57 159.335 2187.7 156.835 Q2189.85 154.312 2189.85 150.145 L2189.85 149.196 L2185.61 149.196 M2194.11 147.437 L2194.11 162.229 L2189.85 162.229 L2189.85 158.293 Q2188.39 160.655 2186.21 161.789 Q2184.04 162.9 2180.89 162.9 Q2176.91 162.9 2174.55 160.678 Q2172.21 158.432 2172.21 154.682 Q2172.21 150.307 2175.13 148.085 Q2178.07 145.863 2183.88 145.863 L2189.85 145.863 L2189.85 145.446 Q2189.85 142.507 2187.9 140.909 Q2185.98 139.289 2182.49 139.289 Q2180.27 139.289 2178.16 139.821 Q2176.05 140.354 2174.11 141.419 L2174.11 137.483 Q2176.45 136.581 2178.64 136.141 Q2180.84 135.678 2182.93 135.678 Q2188.55 135.678 2191.33 138.594 Q2194.11 141.511 2194.11 147.437 Z" fill="#000000" fill-rule="nonzero" fill-opacity="1" /><path clip-path="url(#clip670)" d="M2219.94 148.965 Q2219.94 144.335 2218.02 141.789 Q2216.12 139.243 2212.67 139.243 Q2209.25 139.243 2207.33 141.789 Q2205.43 144.335 2205.43 148.965 Q2205.43 153.571 2207.33 156.118 Q2209.25 158.664 2212.67 158.664 Q2216.12 158.664 2218.02 156.118 Q2219.94 153.571 2219.94 148.965 M2224.2 159.011 Q2224.2 165.631 2221.26 168.849 Q2218.32 172.09 2212.26 172.09 Q2210.01 172.09 2208.02 171.742 Q2206.03 171.418 2204.15 170.724 L2204.15 166.58 Q2206.03 167.599 2207.86 168.085 Q2209.69 168.571 2211.58 168.571 Q2215.77 168.571 2217.86 166.372 Q2219.94 164.196 2219.94 159.775 L2219.94 157.668 Q2218.62 159.96 2216.56 161.094 Q2214.5 162.229 2211.63 162.229 Q2206.86 162.229 2203.95 158.594 Q2201.03 154.96 2201.03 148.965 Q2201.03 142.946 2203.95 139.312 Q2206.86 135.678 2211.63 135.678 Q2214.5 135.678 2216.56 136.812 Q2218.62 137.946 2219.94 140.238 L2219.94 136.303 L2224.2 136.303 L2224.2 159.011 Z" fill="#000000" fill-rule="nonzero" fill-opacity="1" /><path clip-path="url(#clip670)" d="M2255.15 148.201 L2255.15 150.284 L2235.57 150.284 Q2235.84 154.682 2238.2 156.997 Q2240.59 159.289 2244.82 159.289 Q2247.28 159.289 2249.57 158.687 Q2251.89 158.085 2254.15 156.881 L2254.15 160.909 Q2251.86 161.881 2249.45 162.391 Q2247.05 162.9 2244.57 162.9 Q2238.37 162.9 2234.73 159.289 Q2231.12 155.678 2231.12 149.52 Q2231.12 143.155 2234.55 139.428 Q2238 135.678 2243.83 135.678 Q2249.06 135.678 2252.09 139.057 Q2255.15 142.414 2255.15 148.201 M2250.89 146.951 Q2250.84 143.456 2248.92 141.372 Q2247.02 139.289 2243.88 139.289 Q2240.31 139.289 2238.16 141.303 Q2236.03 143.317 2235.7 146.974 L2250.89 146.951 Z" fill="#000000" fill-rule="nonzero" fill-opacity="1" /><polyline clip-path="url(#clip670)" style="stroke:#e26f46; stroke-linecap:round; stroke-linejoin:round; stroke-width:4; stroke-opacity:1; fill:none" points="1824.94,196.789 1971.35,196.789 "/>
<path clip-path="url(#clip670)" d="M1995.75 188.143 L2000.27 188.143 L2008.37 209.902 L2016.47 188.143 L2020.98 188.143 L2011.26 214.069 L2005.47 214.069 L1995.75 188.143 Z" fill="#000000" fill-rule="nonzero" fill-opacity="1" /><path clip-path="url(#clip670)" d="M2027.51 179.509 L2045.87 179.509 L2045.87 183.444 L2031.79 183.444 L2031.79 191.916 Q2032.81 191.569 2033.83 191.407 Q2034.85 191.222 2035.87 191.222 Q2041.65 191.222 2045.03 194.393 Q2048.41 197.564 2048.41 202.981 Q2048.41 208.559 2044.94 211.661 Q2041.47 214.74 2035.15 214.74 Q2032.97 214.74 2030.71 214.37 Q2028.46 213.999 2026.05 213.258 L2026.05 208.559 Q2028.14 209.694 2030.36 210.249 Q2032.58 210.805 2035.06 210.805 Q2039.06 210.805 2041.4 208.698 Q2043.74 206.592 2043.74 202.981 Q2043.74 199.37 2041.4 197.263 Q2039.06 195.157 2035.06 195.157 Q2033.18 195.157 2031.31 195.573 Q2029.46 195.99 2027.51 196.87 L2027.51 179.509 Z" fill="#000000" fill-rule="nonzero" fill-opacity="1" /><path clip-path="url(#clip670)" d="M2066.28 197.425 L2066.28 204.647 L2074.41 204.647 L2074.41 206.846 L2066.28 206.846 L2066.28 214.069 L2063.85 214.069 L2063.85 206.846 L2055.73 206.846 L2055.73 204.647 L2063.85 204.647 L2063.85 197.425 L2066.28 197.425 Z" fill="#000000" fill-rule="nonzero" fill-opacity="1" /><path clip-path="url(#clip670)" d="M2098.58 188.907 L2098.58 192.934 Q2096.77 192.009 2094.83 191.546 Q2092.88 191.083 2090.8 191.083 Q2087.63 191.083 2086.03 192.055 Q2084.46 193.027 2084.46 194.971 Q2084.46 196.453 2085.59 197.309 Q2086.72 198.143 2090.15 198.907 L2091.61 199.231 Q2096.15 200.203 2098.04 201.985 Q2099.96 203.745 2099.96 206.916 Q2099.96 210.527 2097.09 212.633 Q2094.25 214.74 2089.25 214.74 Q2087.16 214.74 2084.9 214.323 Q2082.65 213.93 2080.15 213.12 L2080.15 208.721 Q2082.51 209.948 2084.8 210.573 Q2087.09 211.175 2089.34 211.175 Q2092.35 211.175 2093.97 210.157 Q2095.59 209.115 2095.59 207.24 Q2095.59 205.504 2094.41 204.578 Q2093.25 203.652 2089.29 202.796 L2087.81 202.448 Q2083.85 201.615 2082.09 199.902 Q2080.34 198.166 2080.34 195.157 Q2080.34 191.499 2082.93 189.509 Q2085.52 187.518 2090.29 187.518 Q2092.65 187.518 2094.73 187.865 Q2096.82 188.212 2098.58 188.907 Z" fill="#000000" fill-rule="nonzero" fill-opacity="1" /><path clip-path="url(#clip670)" d="M2110.96 180.782 L2110.96 188.143 L2119.73 188.143 L2119.73 191.453 L2110.96 191.453 L2110.96 205.527 Q2110.96 208.698 2111.82 209.601 Q2112.7 210.504 2115.36 210.504 L2119.73 210.504 L2119.73 214.069 L2115.36 214.069 Q2110.43 214.069 2108.55 212.24 Q2106.68 210.388 2106.68 205.527 L2106.68 191.453 L2103.55 191.453 L2103.55 188.143 L2106.68 188.143 L2106.68 180.782 L2110.96 180.782 Z" fill="#000000" fill-rule="nonzero" fill-opacity="1" /><path clip-path="url(#clip670)" d="M2135.38 191.129 Q2131.96 191.129 2129.96 193.814 Q2127.97 196.476 2127.97 201.129 Q2127.97 205.782 2129.94 208.467 Q2131.93 211.129 2135.38 211.129 Q2138.78 211.129 2140.77 208.444 Q2142.77 205.758 2142.77 201.129 Q2142.77 196.522 2140.77 193.837 Q2138.78 191.129 2135.38 191.129 M2135.38 187.518 Q2140.94 187.518 2144.11 191.129 Q2147.28 194.74 2147.28 201.129 Q2147.28 207.495 2144.11 211.129 Q2140.94 214.74 2135.38 214.74 Q2129.8 214.74 2126.63 211.129 Q2123.48 207.495 2123.48 201.129 Q2123.48 194.74 2126.63 191.129 Q2129.8 187.518 2135.38 187.518 Z" fill="#000000" fill-rule="nonzero" fill-opacity="1" /><path clip-path="url(#clip670)" d="M2169.36 192.124 Q2168.64 191.708 2167.79 191.522 Q2166.95 191.314 2165.94 191.314 Q2162.33 191.314 2160.38 193.675 Q2158.46 196.013 2158.46 200.411 L2158.46 214.069 L2154.18 214.069 L2154.18 188.143 L2158.46 188.143 L2158.46 192.171 Q2159.8 189.809 2161.95 188.675 Q2164.11 187.518 2167.19 187.518 Q2167.63 187.518 2168.16 187.587 Q2168.69 187.634 2169.34 187.749 L2169.36 192.124 Z" fill="#000000" fill-rule="nonzero" fill-opacity="1" /><path clip-path="url(#clip670)" d="M2185.61 201.036 Q2180.45 201.036 2178.46 202.217 Q2176.47 203.397 2176.47 206.245 Q2176.47 208.513 2177.95 209.856 Q2179.45 211.175 2182.02 211.175 Q2185.57 211.175 2187.7 208.675 Q2189.85 206.152 2189.85 201.985 L2189.85 201.036 L2185.61 201.036 M2194.11 199.277 L2194.11 214.069 L2189.85 214.069 L2189.85 210.133 Q2188.39 212.495 2186.21 213.629 Q2184.04 214.74 2180.89 214.74 Q2176.91 214.74 2174.55 212.518 Q2172.21 210.272 2172.21 206.522 Q2172.21 202.147 2175.13 199.925 Q2178.07 197.703 2183.88 197.703 L2189.85 197.703 L2189.85 197.286 Q2189.85 194.347 2187.9 192.749 Q2185.98 191.129 2182.49 191.129 Q2180.27 191.129 2178.16 191.661 Q2176.05 192.194 2174.11 193.259 L2174.11 189.323 Q2176.45 188.421 2178.64 187.981 Q2180.84 187.518 2182.93 187.518 Q2188.55 187.518 2191.33 190.434 Q2194.11 193.351 2194.11 199.277 Z" fill="#000000" fill-rule="nonzero" fill-opacity="1" /><path clip-path="url(#clip670)" d="M2219.94 200.805 Q2219.94 196.175 2218.02 193.629 Q2216.12 191.083 2212.67 191.083 Q2209.25 191.083 2207.33 193.629 Q2205.43 196.175 2205.43 200.805 Q2205.43 205.411 2207.33 207.958 Q2209.25 210.504 2212.67 210.504 Q2216.12 210.504 2218.02 207.958 Q2219.94 205.411 2219.94 200.805 M2224.2 210.851 Q2224.2 217.471 2221.26 220.689 Q2218.32 223.93 2212.26 223.93 Q2210.01 223.93 2208.02 223.582 Q2206.03 223.258 2204.15 222.564 L2204.15 218.42 Q2206.03 219.439 2207.86 219.925 Q2209.69 220.411 2211.58 220.411 Q2215.77 220.411 2217.86 218.212 Q2219.94 216.036 2219.94 211.615 L2219.94 209.508 Q2218.62 211.8 2216.56 212.934 Q2214.5 214.069 2211.63 214.069 Q2206.86 214.069 2203.95 210.434 Q2201.03 206.8 2201.03 200.805 Q2201.03 194.786 2203.95 191.152 Q2206.86 187.518 2211.63 187.518 Q2214.5 187.518 2216.56 188.652 Q2218.62 189.786 2219.94 192.078 L2219.94 188.143 L2224.2 188.143 L2224.2 210.851 Z" fill="#000000" fill-rule="nonzero" fill-opacity="1" /><path clip-path="url(#clip670)" d="M2255.15 200.041 L2255.15 202.124 L2235.57 202.124 Q2235.84 206.522 2238.2 208.837 Q2240.59 211.129 2244.82 211.129 Q2247.28 211.129 2249.57 210.527 Q2251.89 209.925 2254.15 208.721 L2254.15 212.749 Q2251.86 213.721 2249.45 214.231 Q2247.05 214.74 2244.57 214.74 Q2238.37 214.74 2234.73 211.129 Q2231.12 207.518 2231.12 201.36 Q2231.12 194.995 2234.55 191.268 Q2238 187.518 2243.83 187.518 Q2249.06 187.518 2252.09 190.897 Q2255.15 194.254 2255.15 200.041 M2250.89 198.791 Q2250.84 195.296 2248.92 193.212 Q2247.02 191.129 2243.88 191.129 Q2240.31 191.129 2238.16 193.143 Q2236.03 195.157 2235.7 198.814 L2250.89 198.791 Z" fill="#000000" fill-rule="nonzero" fill-opacity="1" /></svg>
