<?xml version="1.0" encoding="utf-8"?>
<svg xmlns="http://www.w3.org/2000/svg" xmlns:xlink="http://www.w3.org/1999/xlink" width="600" height="400" viewBox="0 0 2400 1600">
<defs>
  <clipPath id="clip340">
    <rect x="0" y="0" width="2400" height="1600"/>
  </clipPath>
</defs>
<path clip-path="url(#clip340)" d="M0 1600 L2400 1600 L2400 0 L0 0  Z" fill="#ffffff" fill-rule="evenodd" fill-opacity="1"/>
<defs>
  <clipPath id="clip341">
    <rect x="480" y="0" width="1681" height="1600"/>
  </clipPath>
</defs>
<path clip-path="url(#clip340)" d="M194.422 1423.18 L2352.76 1423.18 L2352.76 47.2441 L194.422 47.2441  Z" fill="#ffffff" fill-rule="evenodd" fill-opacity="1"/>
<defs>
  <clipPath id="clip342">
    <rect x="194" y="47" width="2159" height="1377"/>
  </clipPath>
</defs>
<polyline clip-path="url(#clip342)" style="stroke:#000000; stroke-linecap:round; stroke-linejoin:round; stroke-width:2; stroke-opacity:0.1; fill:none" points="194.422,1423.18 194.422,47.2441 "/>
<polyline clip-path="url(#clip342)" style="stroke:#000000; stroke-linecap:round; stroke-linejoin:round; stroke-width:2; stroke-opacity:0.1; fill:none" points="734.006,1423.18 734.006,47.2441 "/>
<polyline clip-path="url(#clip342)" style="stroke:#000000; stroke-linecap:round; stroke-linejoin:round; stroke-width:2; stroke-opacity:0.1; fill:none" points="1273.59,1423.18 1273.59,47.2441 "/>
<polyline clip-path="url(#clip342)" style="stroke:#000000; stroke-linecap:round; stroke-linejoin:round; stroke-width:2; stroke-opacity:0.1; fill:none" points="1813.17,1423.18 1813.17,47.2441 "/>
<polyline clip-path="url(#clip342)" style="stroke:#000000; stroke-linecap:round; stroke-linejoin:round; stroke-width:2; stroke-opacity:0.1; fill:none" points="2352.76,1423.18 2352.76,47.2441 "/>
<polyline clip-path="url(#clip342)" style="stroke:#000000; stroke-linecap:round; stroke-linejoin:round; stroke-width:2; stroke-opacity:0.1; fill:none" points="194.422,1194.29 2352.76,1194.29 "/>
<polyline clip-path="url(#clip342)" style="stroke:#000000; stroke-linecap:round; stroke-linejoin:round; stroke-width:2; stroke-opacity:0.1; fill:none" points="194.422,902.855 2352.76,902.855 "/>
<polyline clip-path="url(#clip342)" style="stroke:#000000; stroke-linecap:round; stroke-linejoin:round; stroke-width:2; stroke-opacity:0.1; fill:none" points="194.422,611.423 2352.76,611.423 "/>
<polyline clip-path="url(#clip342)" style="stroke:#000000; stroke-linecap:round; stroke-linejoin:round; stroke-width:2; stroke-opacity:0.1; fill:none" points="194.422,319.99 2352.76,319.99 "/>
<polyline clip-path="url(#clip340)" style="stroke:#000000; stroke-linecap:round; stroke-linejoin:round; stroke-width:4; stroke-opacity:1; fill:none" points="194.422,1423.18 2352.76,1423.18 "/>
<polyline clip-path="url(#clip340)" style="stroke:#000000; stroke-linecap:round; stroke-linejoin:round; stroke-width:4; stroke-opacity:1; fill:none" points="194.422,1423.18 194.422,1404.28 "/>
<polyline clip-path="url(#clip340)" style="stroke:#000000; stroke-linecap:round; stroke-linejoin:round; stroke-width:4; stroke-opacity:1; fill:none" points="734.006,1423.18 734.006,1404.28 "/>
<polyline clip-path="url(#clip340)" style="stroke:#000000; stroke-linecap:round; stroke-linejoin:round; stroke-width:4; stroke-opacity:1; fill:none" points="1273.59,1423.18 1273.59,1404.28 "/>
<polyline clip-path="url(#clip340)" style="stroke:#000000; stroke-linecap:round; stroke-linejoin:round; stroke-width:4; stroke-opacity:1; fill:none" points="1813.17,1423.18 1813.17,1404.28 "/>
<polyline clip-path="url(#clip340)" style="stroke:#000000; stroke-linecap:round; stroke-linejoin:round; stroke-width:4; stroke-opacity:1; fill:none" points="2352.76,1423.18 2352.76,1404.28 "/>
<path clip-path="url(#clip340)" d="M171.806 1454.1 Q168.195 1454.1 166.367 1457.66 Q164.561 1461.2 164.561 1468.33 Q164.561 1475.44 166.367 1479.01 Q168.195 1482.55 171.806 1482.55 Q175.441 1482.55 177.246 1479.01 Q179.075 1475.44 179.075 1468.33 Q179.075 1461.2 177.246 1457.66 Q175.441 1454.1 171.806 1454.1 M171.806 1450.39 Q177.617 1450.39 180.672 1455 Q183.751 1459.58 183.751 1468.33 Q183.751 1477.06 180.672 1481.67 Q177.617 1486.25 171.806 1486.25 Q165.996 1486.25 162.918 1481.67 Q159.862 1477.06 159.862 1468.33 Q159.862 1459.58 162.918 1455 Q165.996 1450.39 171.806 1450.39 Z" fill="#000000" fill-rule="nonzero" fill-opacity="1" /><path clip-path="url(#clip340)" d="M191.968 1479.7 L196.853 1479.7 L196.853 1485.58 L191.968 1485.58 L191.968 1479.7 Z" fill="#000000" fill-rule="nonzero" fill-opacity="1" /><path clip-path="url(#clip340)" d="M217.038 1454.1 Q213.427 1454.1 211.598 1457.66 Q209.792 1461.2 209.792 1468.33 Q209.792 1475.44 211.598 1479.01 Q213.427 1482.55 217.038 1482.55 Q220.672 1482.55 222.478 1479.01 Q224.306 1475.44 224.306 1468.33 Q224.306 1461.2 222.478 1457.66 Q220.672 1454.1 217.038 1454.1 M217.038 1450.39 Q222.848 1450.39 225.903 1455 Q228.982 1459.58 228.982 1468.33 Q228.982 1477.06 225.903 1481.67 Q222.848 1486.25 217.038 1486.25 Q211.228 1486.25 208.149 1481.67 Q205.093 1477.06 205.093 1468.33 Q205.093 1459.58 208.149 1455 Q211.228 1450.39 217.038 1450.39 Z" fill="#000000" fill-rule="nonzero" fill-opacity="1" /><path clip-path="url(#clip340)" d="M711.888 1454.1 Q708.277 1454.1 706.448 1457.66 Q704.642 1461.2 704.642 1468.33 Q704.642 1475.44 706.448 1479.01 Q708.277 1482.55 711.888 1482.55 Q715.522 1482.55 717.327 1479.01 Q719.156 1475.44 719.156 1468.33 Q719.156 1461.2 717.327 1457.66 Q715.522 1454.1 711.888 1454.1 M711.888 1450.39 Q717.698 1450.39 720.753 1455 Q723.832 1459.58 723.832 1468.33 Q723.832 1477.06 720.753 1481.67 Q717.698 1486.25 711.888 1486.25 Q706.077 1486.25 702.999 1481.67 Q699.943 1477.06 699.943 1468.33 Q699.943 1459.58 702.999 1455 Q706.077 1450.39 711.888 1450.39 Z" fill="#000000" fill-rule="nonzero" fill-opacity="1" /><path clip-path="url(#clip340)" d="M732.05 1479.7 L736.934 1479.7 L736.934 1485.58 L732.05 1485.58 L732.05 1479.7 Z" fill="#000000" fill-rule="nonzero" fill-opacity="1" /><path clip-path="url(#clip340)" d="M747.165 1451.02 L765.522 1451.02 L765.522 1454.96 L751.448 1454.96 L751.448 1463.43 Q752.466 1463.08 753.485 1462.92 Q754.503 1462.73 755.522 1462.73 Q761.309 1462.73 764.688 1465.9 Q768.068 1469.08 768.068 1474.49 Q768.068 1480.07 764.596 1483.17 Q761.123 1486.25 754.804 1486.25 Q752.628 1486.25 750.36 1485.88 Q748.114 1485.51 745.707 1484.77 L745.707 1480.07 Q747.79 1481.2 750.012 1481.76 Q752.235 1482.32 754.711 1482.32 Q758.716 1482.32 761.054 1480.21 Q763.392 1478.1 763.392 1474.49 Q763.392 1470.88 761.054 1468.77 Q758.716 1466.67 754.711 1466.67 Q752.836 1466.67 750.961 1467.08 Q749.11 1467.5 747.165 1468.38 L747.165 1451.02 Z" fill="#000000" fill-rule="nonzero" fill-opacity="1" /><path clip-path="url(#clip340)" d="M1240.74 1481.64 L1248.38 1481.64 L1248.38 1455.28 L1240.07 1456.95 L1240.07 1452.69 L1248.33 1451.02 L1253.01 1451.02 L1253.01 1481.64 L1260.65 1481.64 L1260.65 1485.58 L1240.74 1485.58 L1240.74 1481.64 Z" fill="#000000" fill-rule="nonzero" fill-opacity="1" /><path clip-path="url(#clip340)" d="M1270.09 1479.7 L1274.98 1479.7 L1274.98 1485.58 L1270.09 1485.58 L1270.09 1479.7 Z" fill="#000000" fill-rule="nonzero" fill-opacity="1" /><path clip-path="url(#clip340)" d="M1295.16 1454.1 Q1291.55 1454.1 1289.72 1457.66 Q1287.92 1461.2 1287.92 1468.33 Q1287.92 1475.44 1289.72 1479.01 Q1291.55 1482.55 1295.16 1482.55 Q1298.8 1482.55 1300.6 1479.01 Q1302.43 1475.44 1302.43 1468.33 Q1302.43 1461.2 1300.6 1457.66 Q1298.8 1454.1 1295.16 1454.1 M1295.16 1450.39 Q1300.97 1450.39 1304.03 1455 Q1307.11 1459.58 1307.11 1468.33 Q1307.11 1477.06 1304.03 1481.67 Q1300.97 1486.25 1295.16 1486.25 Q1289.35 1486.25 1286.27 1481.67 Q1283.22 1477.06 1283.22 1468.33 Q1283.22 1459.58 1286.27 1455 Q1289.35 1450.39 1295.16 1450.39 Z" fill="#000000" fill-rule="nonzero" fill-opacity="1" /><path clip-path="url(#clip340)" d="M1780.82 1481.64 L1788.46 1481.64 L1788.46 1455.28 L1780.15 1456.95 L1780.15 1452.69 L1788.42 1451.02 L1793.09 1451.02 L1793.09 1481.64 L1800.73 1481.64 L1800.73 1485.58 L1780.82 1485.58 L1780.82 1481.64 Z" fill="#000000" fill-rule="nonzero" fill-opacity="1" /><path clip-path="url(#clip340)" d="M1810.17 1479.7 L1815.06 1479.7 L1815.06 1485.58 L1810.17 1485.58 L1810.17 1479.7 Z" fill="#000000" fill-rule="nonzero" fill-opacity="1" /><path clip-path="url(#clip340)" d="M1825.29 1451.02 L1843.65 1451.02 L1843.65 1454.96 L1829.57 1454.96 L1829.57 1463.43 Q1830.59 1463.08 1831.61 1462.92 Q1832.63 1462.73 1833.65 1462.73 Q1839.43 1462.73 1842.81 1465.9 Q1846.19 1469.08 1846.19 1474.49 Q1846.19 1480.07 1842.72 1483.17 Q1839.25 1486.25 1832.93 1486.25 Q1830.75 1486.25 1828.48 1485.88 Q1826.24 1485.51 1823.83 1484.77 L1823.83 1480.07 Q1825.92 1481.2 1828.14 1481.76 Q1830.36 1482.32 1832.84 1482.32 Q1836.84 1482.32 1839.18 1480.21 Q1841.52 1478.1 1841.52 1474.49 Q1841.52 1470.88 1839.18 1468.77 Q1836.84 1466.67 1832.84 1466.67 Q1830.96 1466.67 1829.09 1467.08 Q1827.23 1467.5 1825.29 1468.38 L1825.29 1451.02 Z" fill="#000000" fill-rule="nonzero" fill-opacity="1" /><path clip-path="url(#clip340)" d="M2323.99 1481.64 L2340.31 1481.64 L2340.31 1485.58 L2318.37 1485.58 L2318.37 1481.64 Q2321.03 1478.89 2325.61 1474.26 Q2330.22 1469.61 2331.4 1468.27 Q2333.65 1465.74 2334.53 1464.01 Q2335.43 1462.25 2335.43 1460.56 Q2335.43 1457.8 2333.49 1456.07 Q2331.56 1454.33 2328.46 1454.33 Q2326.26 1454.33 2323.81 1455.09 Q2321.38 1455.86 2318.6 1457.41 L2318.6 1452.69 Q2321.43 1451.55 2323.88 1450.97 Q2326.33 1450.39 2328.37 1450.39 Q2333.74 1450.39 2336.93 1453.08 Q2340.13 1455.77 2340.13 1460.26 Q2340.13 1462.39 2339.32 1464.31 Q2338.53 1466.2 2336.42 1468.8 Q2335.85 1469.47 2332.74 1472.69 Q2329.64 1475.88 2323.99 1481.64 Z" fill="#000000" fill-rule="nonzero" fill-opacity="1" /><path clip-path="url(#clip340)" d="M2350.13 1479.7 L2355.01 1479.7 L2355.01 1485.58 L2350.13 1485.58 L2350.13 1479.7 Z" fill="#000000" fill-rule="nonzero" fill-opacity="1" /><path clip-path="url(#clip340)" d="M2375.2 1454.1 Q2371.59 1454.1 2369.76 1457.66 Q2367.95 1461.2 2367.95 1468.33 Q2367.95 1475.44 2369.76 1479.01 Q2371.59 1482.55 2375.2 1482.55 Q2378.83 1482.55 2380.64 1479.01 Q2382.47 1475.44 2382.47 1468.33 Q2382.47 1461.2 2380.64 1457.66 Q2378.83 1454.1 2375.2 1454.1 M2375.2 1450.39 Q2381.01 1450.39 2384.06 1455 Q2387.14 1459.58 2387.14 1468.33 Q2387.14 1477.06 2384.06 1481.67 Q2381.01 1486.25 2375.2 1486.25 Q2369.39 1486.25 2366.31 1481.67 Q2363.25 1477.06 2363.25 1468.33 Q2363.25 1459.58 2366.31 1455 Q2369.39 1450.39 2375.2 1450.39 Z" fill="#000000" fill-rule="nonzero" fill-opacity="1" /><path clip-path="url(#clip340)" d="M1272.65 1522.27 L1272.65 1532.4 L1284.71 1532.4 L1284.71 1536.95 L1272.65 1536.95 L1272.65 1556.3 Q1272.65 1560.66 1273.83 1561.9 Q1275.04 1563.14 1278.7 1563.14 L1284.71 1563.14 L1284.71 1568.04 L1278.7 1568.04 Q1271.92 1568.04 1269.34 1565.53 Q1266.76 1562.98 1266.76 1556.3 L1266.76 1536.95 L1262.46 1536.95 L1262.46 1532.4 L1266.76 1532.4 L1266.76 1522.27 L1272.65 1522.27 Z" fill="#000000" fill-rule="nonzero" fill-opacity="1" /><polyline clip-path="url(#clip340)" style="stroke:#000000; stroke-linecap:round; stroke-linejoin:round; stroke-width:4; stroke-opacity:1; fill:none" points="194.422,1423.18 194.422,47.2441 "/>
<polyline clip-path="url(#clip340)" style="stroke:#000000; stroke-linecap:round; stroke-linejoin:round; stroke-width:4; stroke-opacity:1; fill:none" points="194.422,1194.29 213.32,1194.29 "/>
<polyline clip-path="url(#clip340)" style="stroke:#000000; stroke-linecap:round; stroke-linejoin:round; stroke-width:4; stroke-opacity:1; fill:none" points="194.422,902.855 213.32,902.855 "/>
<polyline clip-path="url(#clip340)" style="stroke:#000000; stroke-linecap:round; stroke-linejoin:round; stroke-width:4; stroke-opacity:1; fill:none" points="194.422,611.423 213.32,611.423 "/>
<polyline clip-path="url(#clip340)" style="stroke:#000000; stroke-linecap:round; stroke-linejoin:round; stroke-width:4; stroke-opacity:1; fill:none" points="194.422,319.99 213.32,319.99 "/>
<path clip-path="url(#clip340)" d="M51.3162 1194.74 L80.992 1194.74 L80.992 1198.67 L51.3162 1198.67 L51.3162 1194.74 Z" fill="#000000" fill-rule="nonzero" fill-opacity="1" /><path clip-path="url(#clip340)" d="M101.084 1180.09 Q97.4734 1180.09 95.6447 1183.65 Q93.8391 1187.19 93.8391 1194.32 Q93.8391 1201.43 95.6447 1204.99 Q97.4734 1208.54 101.084 1208.54 Q104.719 1208.54 106.524 1204.99 Q108.353 1201.43 108.353 1194.32 Q108.353 1187.19 106.524 1183.65 Q104.719 1180.09 101.084 1180.09 M101.084 1176.38 Q106.895 1176.38 109.95 1180.99 Q113.029 1185.57 113.029 1194.32 Q113.029 1203.05 109.95 1207.66 Q106.895 1212.24 101.084 1212.24 Q95.2743 1212.24 92.1956 1207.66 Q89.1401 1203.05 89.1401 1194.32 Q89.1401 1185.57 92.1956 1180.99 Q95.2743 1176.38 101.084 1176.38 Z" fill="#000000" fill-rule="nonzero" fill-opacity="1" /><path clip-path="url(#clip340)" d="M121.246 1205.69 L126.131 1205.69 L126.131 1211.57 L121.246 1211.57 L121.246 1205.69 Z" fill="#000000" fill-rule="nonzero" fill-opacity="1" /><path clip-path="url(#clip340)" d="M146.894 1192.42 Q143.746 1192.42 141.894 1194.58 Q140.066 1196.73 140.066 1200.48 Q140.066 1204.21 141.894 1206.38 Q143.746 1208.54 146.894 1208.54 Q150.043 1208.54 151.871 1206.38 Q153.723 1204.21 153.723 1200.48 Q153.723 1196.73 151.871 1194.58 Q150.043 1192.42 146.894 1192.42 M156.177 1177.77 L156.177 1182.03 Q154.417 1181.2 152.612 1180.76 Q150.83 1180.32 149.07 1180.32 Q144.441 1180.32 141.987 1183.44 Q139.556 1186.57 139.209 1192.89 Q140.575 1190.87 142.635 1189.81 Q144.695 1188.72 147.172 1188.72 Q152.38 1188.72 155.39 1191.89 Q158.422 1195.04 158.422 1200.48 Q158.422 1205.8 155.274 1209.02 Q152.126 1212.24 146.894 1212.24 Q140.899 1212.24 137.728 1207.66 Q134.556 1203.05 134.556 1194.32 Q134.556 1186.13 138.445 1181.27 Q142.334 1176.38 148.885 1176.38 Q150.644 1176.38 152.427 1176.73 Q154.232 1177.08 156.177 1177.77 Z" fill="#000000" fill-rule="nonzero" fill-opacity="1" /><path clip-path="url(#clip340)" d="M52.4736 903.306 L82.1494 903.306 L82.1494 907.242 L52.4736 907.242 L52.4736 903.306 Z" fill="#000000" fill-rule="nonzero" fill-opacity="1" /><path clip-path="url(#clip340)" d="M102.242 888.654 Q98.6308 888.654 96.8021 892.219 Q94.9965 895.76 94.9965 902.89 Q94.9965 909.996 96.8021 913.561 Q98.6308 917.103 102.242 917.103 Q105.876 917.103 107.682 913.561 Q109.51 909.996 109.51 902.89 Q109.51 895.76 107.682 892.219 Q105.876 888.654 102.242 888.654 M102.242 884.95 Q108.052 884.95 111.108 889.557 Q114.186 894.14 114.186 902.89 Q114.186 911.617 111.108 916.223 Q108.052 920.806 102.242 920.806 Q96.4317 920.806 93.353 916.223 Q90.2975 911.617 90.2975 902.89 Q90.2975 894.14 93.353 889.557 Q96.4317 884.95 102.242 884.95 Z" fill="#000000" fill-rule="nonzero" fill-opacity="1" /><path clip-path="url(#clip340)" d="M122.404 914.255 L127.288 914.255 L127.288 920.135 L122.404 920.135 L122.404 914.255 Z" fill="#000000" fill-rule="nonzero" fill-opacity="1" /><path clip-path="url(#clip340)" d="M137.519 885.575 L155.876 885.575 L155.876 889.51 L141.802 889.51 L141.802 897.982 Q142.82 897.635 143.839 897.473 Q144.857 897.288 145.876 897.288 Q151.663 897.288 155.042 900.459 Q158.422 903.631 158.422 909.047 Q158.422 914.626 154.95 917.728 Q151.478 920.806 145.158 920.806 Q142.982 920.806 140.714 920.436 Q138.469 920.066 136.061 919.325 L136.061 914.626 Q138.144 915.76 140.367 916.316 Q142.589 916.871 145.066 916.871 Q149.07 916.871 151.408 914.765 Q153.746 912.658 153.746 909.047 Q153.746 905.436 151.408 903.33 Q149.07 901.223 145.066 901.223 Q143.191 901.223 141.316 901.64 Q139.464 902.056 137.519 902.936 L137.519 885.575 Z" fill="#000000" fill-rule="nonzero" fill-opacity="1" /><path clip-path="url(#clip340)" d="M50.9921 611.874 L80.6679 611.874 L80.6679 615.809 L50.9921 615.809 L50.9921 611.874 Z" fill="#000000" fill-rule="nonzero" fill-opacity="1" /><path clip-path="url(#clip340)" d="M100.76 597.221 Q97.1493 597.221 95.3206 600.786 Q93.515 604.328 93.515 611.457 Q93.515 618.564 95.3206 622.128 Q97.1493 625.67 100.76 625.67 Q104.395 625.67 106.2 622.128 Q108.029 618.564 108.029 611.457 Q108.029 604.328 106.2 600.786 Q104.395 597.221 100.76 597.221 M100.76 593.518 Q106.571 593.518 109.626 598.124 Q112.705 602.707 112.705 611.457 Q112.705 620.184 109.626 624.791 Q106.571 629.374 100.76 629.374 Q94.9502 629.374 91.8715 624.791 Q88.816 620.184 88.816 611.457 Q88.816 602.707 91.8715 598.124 Q94.9502 593.518 100.76 593.518 Z" fill="#000000" fill-rule="nonzero" fill-opacity="1" /><path clip-path="url(#clip340)" d="M120.922 622.823 L125.807 622.823 L125.807 628.703 L120.922 628.703 L120.922 622.823 Z" fill="#000000" fill-rule="nonzero" fill-opacity="1" /><path clip-path="url(#clip340)" d="M148.839 598.217 L137.033 616.666 L148.839 616.666 L148.839 598.217 M147.612 594.143 L153.492 594.143 L153.492 616.666 L158.422 616.666 L158.422 620.554 L153.492 620.554 L153.492 628.703 L148.839 628.703 L148.839 620.554 L133.237 620.554 L133.237 616.041 L147.612 594.143 Z" fill="#000000" fill-rule="nonzero" fill-opacity="1" /><path clip-path="url(#clip340)" d="M52.1264 320.441 L81.8021 320.441 L81.8021 324.377 L52.1264 324.377 L52.1264 320.441 Z" fill="#000000" fill-rule="nonzero" fill-opacity="1" /><path clip-path="url(#clip340)" d="M101.895 305.789 Q98.2835 305.789 96.4548 309.353 Q94.6493 312.895 94.6493 320.025 Q94.6493 327.131 96.4548 330.696 Q98.2835 334.238 101.895 334.238 Q105.529 334.238 107.334 330.696 Q109.163 327.131 109.163 320.025 Q109.163 312.895 107.334 309.353 Q105.529 305.789 101.895 305.789 M101.895 302.085 Q107.705 302.085 110.76 306.691 Q113.839 311.275 113.839 320.025 Q113.839 328.752 110.76 333.358 Q107.705 337.941 101.895 337.941 Q96.0845 337.941 93.0058 333.358 Q89.9503 328.752 89.9503 320.025 Q89.9503 311.275 93.0058 306.691 Q96.0845 302.085 101.895 302.085 Z" fill="#000000" fill-rule="nonzero" fill-opacity="1" /><path clip-path="url(#clip340)" d="M122.057 331.39 L126.941 331.39 L126.941 337.27 L122.057 337.27 L122.057 331.39 Z" fill="#000000" fill-rule="nonzero" fill-opacity="1" /><path clip-path="url(#clip340)" d="M151.293 318.636 Q154.649 319.353 156.524 321.622 Q158.422 323.89 158.422 327.224 Q158.422 332.339 154.904 335.14 Q151.385 337.941 144.904 337.941 Q142.728 337.941 140.413 337.501 Q138.121 337.085 135.668 336.228 L135.668 331.714 Q137.612 332.849 139.927 333.427 Q142.242 334.006 144.765 334.006 Q149.163 334.006 151.455 332.27 Q153.769 330.534 153.769 327.224 Q153.769 324.168 151.617 322.455 Q149.487 320.719 145.668 320.719 L141.64 320.719 L141.64 316.877 L145.853 316.877 Q149.302 316.877 151.13 315.511 Q152.959 314.122 152.959 311.529 Q152.959 308.867 151.061 307.455 Q149.186 306.02 145.668 306.02 Q143.746 306.02 141.547 306.437 Q139.348 306.853 136.709 307.733 L136.709 303.566 Q139.371 302.826 141.686 302.455 Q144.024 302.085 146.084 302.085 Q151.408 302.085 154.51 304.516 Q157.612 306.923 157.612 311.043 Q157.612 313.914 155.968 315.904 Q154.325 317.872 151.293 318.636 Z" fill="#000000" fill-rule="nonzero" fill-opacity="1" /><polyline clip-path="url(#clip342)" style="stroke:#009af9; stroke-linecap:round; stroke-linejoin:round; stroke-width:4; stroke-opacity:1; fill:none" points="194.422,1384.24 196.583,1371.31 198.743,1358.51 200.904,1345.84 203.064,1333.29 205.225,1320.87 207.385,1308.57 209.546,1296.39 211.706,1284.34 213.867,1272.4 216.027,1260.59 218.188,1248.89 220.348,1237.31 222.509,1225.84 224.669,1214.49 226.83,1203.25 228.99,1192.13 231.151,1181.11 233.311,1170.2 235.471,1159.41 237.632,1148.72 239.792,1138.13 241.953,1127.66 244.113,1117.28 246.274,1107.01 248.434,1096.84 250.595,1086.78 252.755,1076.81 254.916,1066.94 257.076,1057.17 259.237,1047.5 261.397,1037.93 263.558,1028.45 265.718,1019.06 267.879,1009.77 270.039,1000.57 272.2,991.461 274.36,982.444 276.521,973.516 278.681,964.678 280.842,955.927 283.002,947.264 285.163,938.687 287.323,930.195 289.484,921.788 291.644,913.465 293.805,905.225 295.965,897.067 298.126,888.99 300.286,880.993 302.447,873.076 304.607,865.238 306.768,857.478 308.928,849.796 311.089,842.19 313.249,834.659 315.41,827.204 317.57,819.822 319.731,812.515 321.891,805.28 324.052,798.117 326.212,791.025 328.373,784.004 330.533,777.053 332.694,770.172 334.854,763.358 337.015,756.613 339.175,749.934 341.336,743.323 343.496,736.777 345.657,730.296 347.817,723.88 349.978,717.528 352.138,711.239 354.299,705.012 356.459,698.848 358.62,692.745 360.78,686.703 362.941,680.722 365.101,674.8 367.262,668.936 369.422,663.132 371.583,657.385 373.743,651.695 375.904,646.062 378.064,640.485 380.225,634.964 382.385,629.498 384.546,624.086 386.706,618.728 388.867,613.423 391.027,608.171 393.188,602.972 395.348,597.824 397.509,592.728 399.669,587.682 401.83,582.686 403.99,577.741 406.151,572.844 408.311,567.996 410.472,563.197 412.632,558.445 414.793,553.741 416.953,549.083 419.114,544.472 421.274,539.906 423.435,535.386 425.595,530.911 427.755,526.481 429.916,522.095 432.076,517.752 434.237,513.453 436.397,509.196 438.558,504.982 440.718,500.81 442.879,496.68 445.039,492.591 447.2,488.542 449.36,484.534 451.521,480.566 453.681,476.637 455.842,472.748 458.002,468.897 460.163,465.085 462.323,461.31 464.484,457.574 466.644,453.874 468.805,450.211 470.965,446.585 473.126,442.995 475.286,439.441 477.447,435.922 479.607,432.438 481.768,428.989 483.928,425.574 486.089,422.194 488.249,418.847 490.41,415.533 492.57,412.252 494.731,409.004 496.891,405.788 499.052,402.604 501.212,399.452 503.373,396.332 505.533,393.242 507.694,390.183 509.854,387.155 512.015,384.156 514.175,381.188 516.336,378.249 518.496,375.339 520.657,372.458 522.817,369.606 524.978,366.782 527.138,363.986 529.299,361.218 531.459,358.478 533.62,355.765 535.78,353.079 537.941,350.42 540.101,347.787 542.262,345.181 544.422,342.6 546.583,340.046 548.743,337.516 550.904,335.012 553.064,332.533 555.225,330.079 557.385,327.649 559.546,325.243 561.706,322.862 563.867,320.504 566.027,318.17 568.188,315.858 570.348,313.57 572.509,311.305 574.669,309.062 576.83,306.842 578.99,304.644 581.151,302.468 583.311,300.313 585.472,298.18 587.632,296.068 589.793,293.978 591.953,291.908 594.114,289.858 596.274,287.829 598.435,285.821 600.595,283.832 602.756,281.863 604.916,279.914 607.077,277.984 609.237,276.073 611.398,274.181 613.558,272.308 615.718,270.454 617.879,268.618 620.039,266.801 622.2,265.001 624.36,263.22 626.521,261.456 628.681,259.71 630.842,257.98 633.002,256.269 635.163,254.574 637.323,252.896 639.484,251.234 641.644,249.59 643.805,247.961 645.965,246.349 648.126,244.753 650.286,243.172 652.447,241.608 654.607,240.059 656.768,238.525 658.928,237.007 661.089,235.504 663.249,234.016 665.41,232.542 667.57,231.084 669.731,229.64 671.891,228.21 674.052,226.795 676.212,225.394 678.373,224.006 680.533,222.633 682.694,221.273 684.854,219.927 687.015,218.594 689.175,217.275 691.336,215.969 693.496,214.676 695.657,213.395 697.817,212.128 699.978,210.873 702.138,209.631 704.299,208.401 706.459,207.183 708.62,205.978 710.78,204.784 712.941,203.602 715.101,202.433 717.262,201.274 719.422,200.128 721.583,198.993 723.743,197.869 725.904,196.756 728.064,195.655 730.225,194.564 732.385,193.484 734.546,192.415 736.706,191.357 738.867,190.309 741.027,189.271 743.188,188.244 745.348,187.227 747.509,186.221 749.669,185.224 751.83,184.237 753.99,183.26 756.151,182.292 758.311,181.335 760.472,180.386 762.632,179.447 764.793,178.518 766.953,177.597 769.114,176.686 771.274,175.784 773.435,174.891 775.595,174.006 777.756,173.131 779.916,172.264 782.077,171.406 784.237,170.556 786.398,169.715 788.558,168.882 790.719,168.057 792.879,167.241 795.04,166.433 797.2,165.633 799.361,164.84 801.521,164.056 803.681,163.28 805.842,162.511 808.002,161.75 810.163,160.997 812.323,160.251 814.484,159.512 816.644,158.781 818.805,158.057 820.965,157.341 823.126,156.632 825.286,155.929 827.447,155.234 829.607,154.546 831.768,153.864 833.928,153.19 836.089,152.522 838.249,151.86 840.41,151.206 842.57,150.558 844.731,149.916 846.891,149.281 849.052,148.652 851.212,148.03 853.373,147.413 855.533,146.803 857.694,146.199 859.854,145.601 862.015,145.009 864.175,144.422 866.336,143.842 868.496,143.267 870.657,142.699 872.817,142.135 874.978,141.578 877.138,141.026 879.299,140.479 881.459,139.938 883.62,139.402 885.78,138.872 887.941,138.347 890.101,137.827 892.262,137.312 894.422,136.802 896.583,136.298 898.743,135.798 900.904,135.303 903.064,134.813 905.225,134.329 907.385,133.848 909.546,133.373 911.706,132.902 913.867,132.436 916.027,131.975 918.188,131.518 920.348,131.066 922.509,130.618 924.669,130.175 926.83,129.736 928.99,129.302 931.151,128.871 933.311,128.445 935.472,128.024 937.632,127.606 939.793,127.193 941.953,126.784 944.114,126.378 946.274,125.977 948.435,125.58 950.595,125.187 952.756,124.798 954.916,124.413 957.077,124.031 959.237,123.653 961.398,123.28 963.558,122.909 965.719,122.543 967.879,122.18 970.04,121.821 972.2,121.465 974.361,121.113 976.521,120.765 978.682,120.42 980.842,120.078 983.003,119.74 985.163,119.405 987.324,119.074 989.484,118.746 991.645,118.421 993.805,118.099 995.965,117.781 998.126,117.466 1000.29,117.154 1002.45,116.845 1004.61,116.539 1006.77,116.236 1008.93,115.936 1011.09,115.64 1013.25,115.346 1015.41,115.055 1017.57,114.767 1019.73,114.482 1021.89,114.2 1024.05,113.92 1026.21,113.643 1028.37,113.37 1030.53,113.098 1032.69,112.83 1034.85,112.564 1037.01,112.301 1039.18,112.04 1041.34,111.782 1043.5,111.527 1045.66,111.274 1047.82,111.024 1049.98,110.776 1052.14,110.53 1054.3,110.287 1056.46,110.046 1058.62,109.808 1060.78,109.572 1062.94,109.339 1065.1,109.108 1067.26,108.879 1069.42,108.652 1071.58,108.427 1073.74,108.205 1075.9,107.985 1078.06,107.767 1080.22,107.551 1082.39,107.337 1084.55,107.126 1086.71,106.917 1088.87,106.709 1091.03,106.504 1093.19,106.301 1095.35,106.099 1097.51,105.9 1099.67,105.703 1101.83,105.508 1103.99,105.314 1106.15,105.123 1108.31,104.933 1110.47,104.746 1112.63,104.56 1114.79,104.376 1116.95,104.194 1119.11,104.014 1121.27,103.836 1123.43,103.659 1125.6,103.484 1127.76,103.311 1129.92,103.14 1132.08,102.97 1134.24,102.802 1136.4,102.636 1138.56,102.471 1140.72,102.308 1142.88,102.147 1145.04,101.988 1147.2,101.829 1149.36,101.673 1151.52,101.518 1153.68,101.365 1155.84,101.213 1158,101.063 1160.16,100.914 1162.32,100.767 1164.48,100.621 1166.64,100.477 1168.81,100.334 1170.97,100.193 1173.13,100.053 1175.29,99.9141 1177.45,99.7769 1179.61,99.6411 1181.77,99.5067 1183.93,99.3736 1186.09,99.2418 1188.25,99.1114 1190.41,98.9823 1192.57,98.8545 1194.73,98.7279 1196.89,98.6026 1199.05,98.4786 1201.21,98.3558 1203.37,98.2343 1205.53,98.1139 1207.69,97.9948 1209.85,97.8768 1212.01,97.76 1214.18,97.6444 1216.34,97.5299 1218.5,97.4166 1220.66,97.3043 1222.82,97.1932 1224.98,97.0832 1227.14,96.9743 1229.3,96.8664 1231.46,96.7597 1233.62,96.6539 1235.78,96.5492 1237.94,96.4455 1240.1,96.3429 1242.26,96.2412 1244.42,96.1406 1246.58,96.0409 1248.74,95.9422 1250.9,95.8445 1253.06,95.7477 1255.22,95.6518 1257.39,95.5569 1259.55,95.4629 1261.71,95.3698 1263.87,95.2777 1266.03,95.1864 1268.19,95.096 1270.35,95.0066 1272.51,94.918 1274.67,94.8302 1276.83,94.7434 1278.99,94.6573 1281.15,94.5722 1283.31,94.4879 1285.47,94.4044 1287.63,94.3217 1289.79,94.2399 1291.95,94.1589 1294.11,94.0786 1296.27,93.9992 1298.43,93.9206 1300.6,93.8427 1302.76,93.7657 1304.92,93.6894 1307.08,93.6138 1309.24,93.5391 1311.4,93.465 1313.56,93.3918 1315.72,93.3192 1317.88,93.2474 1320.04,93.1763 1322.2,93.1059 1324.36,93.0362 1326.52,92.9672 1328.68,92.899 1330.84,92.8314 1333,92.7645 1335.16,92.6982 1337.32,92.6327 1339.48,92.5678 1341.64,92.5035 1343.81,92.4399 1345.97,92.377 1348.13,92.3147 1350.29,92.253 1352.45,92.1919 1354.61,92.1315 1356.77,92.0716 1358.93,92.0124 1361.09,91.9538 1363.25,91.8958 1365.41,91.8383 1367.57,91.7815 1369.73,91.7252 1371.89,91.6695 1374.05,91.6143 1376.21,91.5597 1378.37,91.5057 1380.53,91.4522 1382.69,91.3993 1384.85,91.3468 1387.01,91.295 1389.18,91.2436 1391.34,91.1928 1393.5,91.1424 1395.66,91.0926 1397.82,91.0433 1399.98,90.9945 1402.14,90.9461 1404.3,90.8983 1406.46,90.8509 1408.62,90.804 1410.78,90.7576 1412.94,90.7116 1415.1,90.6661 1417.26,90.6211 1419.42,90.5765 1421.58,90.5323 1423.74,90.4886 1425.9,90.4454 1428.06,90.4025 1430.22,90.3601 1432.39,90.3181 1434.55,90.2765 1436.71,90.2353 1438.87,90.1945 1441.03,90.1541 1443.19,90.1142 1445.35,90.0746 1447.51,90.0354 1449.67,89.9965 1451.83,89.9581 1453.99,89.92 1456.15,89.8823 1458.31,89.8449 1460.47,89.8079 1462.63,89.7713 1464.79,89.735 1466.95,89.6991 1469.11,89.6635 1471.27,89.6282 1473.43,89.5933 1475.6,89.5587 1477.76,89.5244 1479.92,89.4905 1482.08,89.4569 1484.24,89.4236 1486.4,89.3907 1488.56,89.358 1490.72,89.3257 1492.88,89.2937 1495.04,89.262 1497.2,89.2306 1499.36,89.1995 1501.52,89.1687 1503.68,89.1382 1505.84,89.108 1508,89.0781 1510.16,89.0486 1512.32,89.0193 1514.48,88.9902 1516.64,88.9615 1518.81,88.9331 1520.97,88.9049 1523.13,88.8771 1525.29,88.8495 1527.45,88.8222 1529.61,88.7951 1531.77,88.7683 1533.93,88.7418 1536.09,88.7156 1538.25,88.6896 1540.41,88.6639 1542.57,88.6385 1544.73,88.6133 1546.89,88.5883 1549.05,88.5636 1551.21,88.5392 1553.37,88.515 1555.53,88.4911 1557.69,88.4674 1559.85,88.4439 1562.01,88.4207 1564.18,88.3977 1566.34,88.375 1568.5,88.3525 1570.66,88.3302 1572.82,88.3082 1574.98,88.2864 1577.14,88.2648 1579.3,88.2434 1581.46,88.2223 1583.62,88.2013 1585.78,88.1806 1587.94,88.1601 1590.1,88.1398 1592.26,88.1197 1594.42,88.0999 1596.58,88.0802 1598.74,88.0607 1600.9,88.0415 1603.06,88.0224 1605.22,88.0036 1607.39,87.9849 1609.55,87.9664 1611.71,87.9481 1613.87,87.93 1616.03,87.9121 1618.19,87.8944 1620.35,87.8769 1622.51,87.8595 1624.67,87.8424 1626.83,87.8254 1628.99,87.8085 1631.15,87.7919 1633.31,87.7754 1635.47,87.7591 1637.63,87.743 1639.79,87.727 1641.95,87.7112 1644.11,87.6955 1646.27,87.6801 1648.43,87.6647 1650.6,87.6496 1652.76,87.6345 1654.92,87.6197 1657.08,87.605 1659.24,87.5904 1661.4,87.576 1663.56,87.5617 1665.72,87.5476 1667.88,87.5336 1670.04,87.5197 1672.2,87.506 1674.36,87.4924 1676.52,87.479 1678.68,87.4657 1680.84,87.4525 1683,87.4395 1685.16,87.4265 1687.32,87.4137 1689.48,87.401 1691.64,87.3885 1693.81,87.3761 1695.97,87.3637 1698.13,87.3515 1700.29,87.3395 1702.45,87.3275 1704.61,87.3156 1706.77,87.3039 1708.93,87.2922 1711.09,87.2807 1713.25,87.2692 1715.41,87.2579 1717.57,87.2467 1719.73,87.2355 1721.89,87.2245 1724.05,87.2136 1726.21,87.2027 1728.37,87.192 1730.53,87.1813 1732.69,87.1708 1734.85,87.1603 1737.02,87.15 1739.18,87.1397 1741.34,87.1296 1743.5,87.1195 1745.66,87.1095 1747.82,87.0997 1749.98,87.0899 1752.14,87.0802 1754.3,87.0706 1756.46,87.0611 1758.62,87.0517 1760.78,87.0423 1762.94,87.0331 1765.1,87.0239 1767.26,87.0149 1769.42,87.0059 1771.58,86.997 1773.74,86.9882 1775.9,86.9795 1778.06,86.9709 1780.22,86.9623 1782.39,86.9539 1784.55,86.9455 1786.71,86.9372 1788.87,86.929 1791.03,86.9209 1793.19,86.9128 1795.35,86.9049 1797.51,86.897 1799.67,86.8892 1801.83,86.8815 1803.99,86.8738 1806.15,86.8662 1808.31,86.8587 1810.47,86.8513 1812.63,86.844 1814.79,86.8367 1816.95,86.8295 1819.11,86.8224 1821.27,86.8154 1823.43,86.8084 1825.6,86.8015 1827.76,86.7947 1829.92,86.7879 1832.08,86.7813 1834.24,86.7746 1836.4,86.7681 1838.56,86.7616 1840.72,86.7552 1842.88,86.7489 1845.04,86.7426 1847.2,86.7364 1849.36,86.7303 1851.52,86.7242 1853.68,86.7182 1855.84,86.7122 1858,86.7063 1860.16,86.7005 1862.32,86.6948 1864.48,86.6891 1866.64,86.6834 1868.81,86.6779 1870.97,86.6724 1873.13,86.6669 1875.29,86.6615 1877.45,86.6562 1879.61,86.6509 1881.77,86.6457 1883.93,86.6405 1886.09,86.6354 1888.25,86.6303 1890.41,86.6253 1892.57,86.6204 1894.73,86.6155 1896.89,86.6107 1899.05,86.6059 1901.21,86.6011 1903.37,86.5965 1905.53,86.5918 1907.69,86.5872 1909.85,86.5827 1912.02,86.5782 1914.18,86.5738 1916.34,86.5694 1918.5,86.5651 1920.66,86.5608 1922.82,86.5565 1924.98,86.5523 1927.14,86.5481 1929.3,86.544 1931.46,86.54 1933.62,86.5359 1935.78,86.5319 1937.94,86.528 1940.1,86.5241 1942.26,86.5202 1944.42,86.5164 1946.58,86.5126 1948.74,86.5089 1950.9,86.5052 1953.06,86.5015 1955.22,86.4979 1957.39,86.4943 1959.55,86.4907 1961.71,86.4872 1963.87,86.4837 1966.03,86.4803 1968.19,86.4768 1970.35,86.4734 1972.51,86.4701 1974.67,86.4668 1976.83,86.4635 1978.99,86.4602 1981.15,86.457 1983.31,86.4538 1985.47,86.4506 1987.63,86.4475 1989.79,86.4443 1991.95,86.4413 1994.11,86.4382 1996.27,86.4352 1998.43,86.4322 2000.6,86.4292 2002.76,86.4262 2004.92,86.4233 2007.08,86.4204 2009.24,86.4175 2011.4,86.4146 2013.56,86.4117 2015.72,86.4089 2017.88,86.4061 2020.04,86.4033 2022.2,86.4005 2024.36,86.3978 2026.52,86.3951 2028.68,86.3924 2030.84,86.3897 2033,86.3871 2035.16,86.3844 2037.32,86.3818 2039.48,86.3792 2041.64,86.3767 2043.81,86.3742 2045.97,86.3716 2048.13,86.3692 2050.29,86.3667 2052.45,86.3642 2054.61,86.3618 2056.77,86.3594 2058.93,86.357 2061.09,86.3547 2063.25,86.3524 2065.41,86.3501 2067.57,86.3478 2069.73,86.3455 2071.89,86.3433 2074.05,86.341 2076.21,86.3388 2078.37,86.3367 2080.53,86.3345 2082.69,86.3324 2084.85,86.3302 2087.02,86.3281 2089.18,86.3261 2091.34,86.324 2093.5,86.322 2095.66,86.32 2097.82,86.318 2099.98,86.316 2102.14,86.314 2104.3,86.3121 2106.46,86.3102 2108.62,86.3083 2110.78,86.3064 2112.94,86.3046 2115.1,86.3027 2117.26,86.3009 2119.42,86.2991 2121.58,86.2973 2123.74,86.2956 2125.9,86.2938 2128.06,86.2921 2130.22,86.2904 2132.39,86.2887 2134.55,86.287 2136.71,86.2854 2138.87,86.2837 2141.03,86.2821 2143.19,86.2805 2145.35,86.2789 2147.51,86.2774 2149.67,86.2758 2151.83,86.2743 2153.99,86.2728 2156.15,86.2713 2158.31,86.2698 2160.47,86.2683 2162.63,86.2669 2164.79,86.2654 2166.95,86.264 2169.11,86.2626 2171.27,86.2612 2173.43,86.2599 2175.6,86.2585 2177.76,86.2572 2179.92,86.2558 2182.08,86.2545 2184.24,86.2532 2186.4,86.252 2188.56,86.2507 2190.72,86.2494 2192.88,86.2482 2195.04,86.247 2197.2,86.2458 2199.36,86.2446 2201.52,86.2434 2203.68,86.2422 2205.84,86.2411 2208,86.2399 2210.16,86.2388 2212.32,86.2377 2214.48,86.2366 2216.64,86.2355 2218.81,86.2344 2220.97,86.2334 2223.13,86.2323 2225.29,86.2313 2227.45,86.2302 2229.61,86.2292 2231.77,86.2282 2233.93,86.2272 2236.09,86.2263 2238.25,86.2253 2240.41,86.2243 2242.57,86.2234 2244.73,86.2224 2246.89,86.2215 2249.05,86.2206 2251.21,86.2197 2253.37,86.2188 2255.53,86.2179 2257.69,86.217 2259.85,86.2162 2262.02,86.2153 2264.18,86.2145 2266.34,86.2136 2268.5,86.2128 2270.66,86.212 2272.82,86.2111 2274.98,86.2103 2277.14,86.2095 2279.3,86.2088 2281.46,86.208 2283.62,86.2072 2285.78,86.2064 2287.94,86.2057 2290.1,86.2049 2292.26,86.2042 2294.42,86.2035 2296.58,86.2027 2298.74,86.202 2300.9,86.2013 2303.06,86.2006 2305.23,86.1999 2307.39,86.1992 2309.55,86.1985 2311.71,86.1978 2313.87,86.1971 2316.03,86.1965 2318.19,86.1958 2320.35,86.1951 2322.51,86.1945 2324.67,86.1938 2326.83,86.1932 2328.99,86.1925 2331.15,86.1919 2333.31,86.1912 2335.47,86.1906 2337.63,86.19 2339.79,86.1894 2341.95,86.1887 2344.11,86.1881 2346.27,86.1875 2348.43,86.1869 2350.6,86.1863 2352.76,86.1857 "/>
<polyline clip-path="url(#clip342)" style="stroke:#e26f46; stroke-linecap:round; stroke-linejoin:round; stroke-width:4; stroke-opacity:1; fill:none" points="194.422,929.93 196.583,932.574 198.743,935.126 200.904,937.587 203.064,939.958 205.225,942.241 207.385,944.436 209.546,946.545 211.706,948.569 213.867,950.509 216.027,952.368 218.188,954.144 220.348,955.841 222.509,957.459 224.669,959 226.83,960.464 228.99,961.852 231.151,963.166 233.311,964.407 235.471,965.576 237.632,966.674 239.792,967.702 241.953,968.661 244.113,969.552 246.274,970.376 248.434,971.135 250.595,971.828 252.755,972.458 254.916,973.025 257.076,973.53 259.237,973.974 261.397,974.358 263.558,974.684 265.718,974.95 267.879,975.16 270.039,975.313 272.2,975.411 274.36,975.455 276.521,975.444 278.681,975.381 280.842,975.265 283.002,975.099 285.163,974.881 287.323,974.615 289.484,974.299 291.644,973.936 293.805,973.525 295.965,973.068 298.126,972.566 300.286,972.018 302.447,971.427 304.607,970.792 306.768,970.114 308.928,969.394 311.089,968.633 313.249,967.832 315.41,966.991 317.57,966.11 319.731,965.191 321.891,964.235 324.052,963.241 326.212,962.211 328.373,961.144 330.533,960.043 332.694,958.907 334.854,957.737 337.015,956.534 339.175,955.298 341.336,954.03 343.496,952.73 345.657,951.399 347.817,950.037 349.978,948.646 352.138,947.225 354.299,945.776 356.459,944.298 358.62,942.792 360.78,941.26 362.941,939.7 365.101,938.114 367.262,936.503 369.422,934.867 371.583,933.206 373.743,931.521 375.904,929.812 378.064,928.08 380.225,926.325 382.385,924.548 384.546,922.749 386.706,920.929 388.867,919.088 391.027,917.227 393.188,915.346 395.348,913.445 397.509,911.525 399.669,909.586 401.83,907.629 403.99,905.654 406.151,903.662 408.311,901.652 410.472,899.626 412.632,897.584 414.793,895.526 416.953,893.452 419.114,891.363 421.274,889.259 423.435,887.141 425.595,885.009 427.755,882.863 429.916,880.704 432.076,878.531 434.237,876.346 436.397,874.148 438.558,871.938 440.718,869.717 442.879,867.484 445.039,865.239 447.2,862.984 449.36,860.719 451.521,858.443 453.681,856.157 455.842,853.862 458.002,851.557 460.163,849.243 462.323,846.92 464.484,844.589 466.644,842.25 468.805,839.902 470.965,837.547 473.126,835.185 475.286,832.815 477.447,830.439 479.607,828.056 481.768,825.666 483.928,823.271 486.089,820.869 488.249,818.462 490.41,816.05 492.57,813.632 494.731,811.209 496.891,808.782 499.052,806.35 501.212,803.913 503.373,801.473 505.533,799.029 507.694,796.581 509.854,794.13 512.015,791.675 514.175,789.218 516.336,786.757 518.496,784.294 520.657,781.829 522.817,779.361 524.978,776.892 527.138,774.42 529.299,771.946 531.459,769.471 533.62,766.995 535.78,764.517 537.941,762.038 540.101,759.558 542.262,757.078 544.422,754.596 546.583,752.115 548.743,749.633 550.904,747.15 553.064,744.668 555.225,742.186 557.385,739.704 559.546,737.223 561.706,734.742 563.867,732.261 566.027,729.782 568.188,727.304 570.348,724.826 572.509,722.35 574.669,719.876 576.83,717.402 578.99,714.931 581.151,712.461 583.311,709.993 585.472,707.527 587.632,705.063 589.793,702.601 591.953,700.142 594.114,697.685 596.274,695.231 598.435,692.779 600.595,690.33 602.756,687.884 604.916,685.441 607.077,683.001 609.237,680.565 611.398,678.131 613.558,675.701 615.718,673.274 617.879,670.851 620.039,668.432 622.2,666.016 624.36,663.604 626.521,661.197 628.681,658.793 630.842,656.393 633.002,653.997 635.163,651.606 637.323,649.219 639.484,646.837 641.644,644.458 643.805,642.085 645.965,639.716 648.126,637.351 650.286,634.992 652.447,632.637 654.607,630.287 656.768,627.941 658.928,625.601 661.089,623.266 663.249,620.935 665.41,618.61 667.57,616.29 669.731,613.975 671.891,611.666 674.052,609.362 676.212,607.063 678.373,604.77 680.533,602.482 682.694,600.199 684.854,597.922 687.015,595.651 689.175,593.386 691.336,591.126 693.496,588.872 695.657,586.623 697.817,584.381 699.978,582.144 702.138,579.914 704.299,577.689 706.459,575.47 708.62,573.257 710.78,571.051 712.941,568.85 715.101,566.656 717.262,564.468 719.422,562.286 721.583,560.11 723.743,557.941 725.904,555.778 728.064,553.621 730.225,551.471 732.385,549.327 734.546,547.19 736.706,545.059 738.867,542.934 741.027,540.816 743.188,538.705 745.348,536.6 747.509,534.502 749.669,532.41 751.83,530.326 753.99,528.247 756.151,526.176 758.311,524.111 760.472,522.053 762.632,520.001 764.793,517.957 766.953,515.919 769.114,513.888 771.274,511.864 773.435,509.846 775.595,507.836 777.756,505.832 779.916,503.835 782.077,501.845 784.237,499.861 786.398,497.885 788.558,495.915 790.719,493.953 792.879,491.997 795.04,490.048 797.2,488.105 799.361,486.17 801.521,484.242 803.681,482.32 805.842,480.405 808.002,478.498 810.163,476.597 812.323,474.703 814.484,472.816 816.644,470.936 818.805,469.062 820.965,467.196 823.126,465.336 825.286,463.484 827.447,461.638 829.607,459.799 831.768,457.967 833.928,456.142 836.089,454.324 838.249,452.513 840.41,450.709 842.57,448.912 844.731,447.121 846.891,445.338 849.052,443.561 851.212,441.791 853.373,440.028 855.533,438.272 857.694,436.523 859.854,434.781 862.015,433.045 864.175,431.317 866.336,429.595 868.496,427.88 870.657,426.173 872.817,424.471 874.978,422.777 877.138,421.09 879.299,419.409 881.459,417.736 883.62,416.069 885.78,414.409 887.941,412.755 890.101,411.109 892.262,409.469 894.422,407.836 896.583,406.21 898.743,404.591 900.904,402.979 903.064,401.373 905.225,399.774 907.385,398.181 909.546,396.596 911.706,395.017 913.867,393.445 916.027,391.879 918.188,390.32 920.348,388.768 922.509,387.222 924.669,385.683 926.83,384.151 928.99,382.625 931.151,381.106 933.311,379.593 935.472,378.087 937.632,376.588 939.793,375.094 941.953,373.608 944.114,372.128 946.274,370.654 948.435,369.187 950.595,367.726 952.756,366.271 954.916,364.823 957.077,363.382 959.237,361.946 961.398,360.517 963.558,359.095 965.719,357.678 967.879,356.268 970.04,354.865 972.2,353.467 974.361,352.076 976.521,350.691 978.682,349.312 980.842,347.939 983.003,346.573 985.163,345.213 987.324,343.859 989.484,342.511 991.645,341.169 993.805,339.833 995.965,338.503 998.126,337.18 1000.29,335.862 1002.45,334.55 1004.61,333.245 1006.77,331.945 1008.93,330.652 1011.09,329.364 1013.25,328.082 1015.41,326.807 1017.57,325.537 1019.73,324.273 1021.89,323.015 1024.05,321.763 1026.21,320.516 1028.37,319.276 1030.53,318.041 1032.69,316.812 1034.85,315.589 1037.01,314.371 1039.18,313.16 1041.34,311.954 1043.5,310.754 1045.66,309.559 1047.82,308.37 1049.98,307.187 1052.14,306.009 1054.3,304.837 1056.46,303.671 1058.62,302.51 1060.78,301.355 1062.94,300.205 1065.1,299.061 1067.26,297.922 1069.42,296.789 1071.58,295.661 1073.74,294.539 1075.9,293.422 1078.06,292.31 1080.22,291.204 1082.39,290.103 1084.55,289.008 1086.71,287.918 1088.87,286.833 1091.03,285.754 1093.19,284.679 1095.35,283.61 1097.51,282.546 1099.67,281.488 1101.83,280.434 1103.99,279.386 1106.15,278.343 1108.31,277.305 1110.47,276.272 1112.63,275.244 1114.79,274.221 1116.95,273.203 1119.11,272.19 1121.27,271.182 1123.43,270.179 1125.6,269.181 1127.76,268.188 1129.92,267.2 1132.08,266.217 1134.24,265.239 1136.4,264.265 1138.56,263.297 1140.72,262.333 1142.88,261.374 1145.04,260.419 1147.2,259.47 1149.36,258.525 1151.52,257.585 1153.68,256.649 1155.84,255.719 1158,254.793 1160.16,253.871 1162.32,252.954 1164.48,252.042 1166.64,251.135 1168.81,250.232 1170.97,249.333 1173.13,248.439 1175.29,247.55 1177.45,246.665 1179.61,245.784 1181.77,244.908 1183.93,244.036 1186.09,243.169 1188.25,242.306 1190.41,241.448 1192.57,240.594 1194.73,239.744 1196.89,238.899 1199.05,238.058 1201.21,237.221 1203.37,236.388 1205.53,235.56 1207.69,234.736 1209.85,233.916 1212.01,233.101 1214.18,232.289 1216.34,231.482 1218.5,230.679 1220.66,229.88 1222.82,229.086 1224.98,228.295 1227.14,227.508 1229.3,226.726 1231.46,225.947 1233.62,225.173 1235.78,224.403 1237.94,223.636 1240.1,222.874 1242.26,222.115 1244.42,221.361 1246.58,220.61 1248.74,219.864 1250.9,219.121 1253.06,218.382 1255.22,217.648 1257.39,216.917 1259.55,216.189 1261.71,215.466 1263.87,214.746 1266.03,214.03 1268.19,213.318 1270.35,212.61 1272.51,211.905 1274.67,211.204 1276.83,210.507 1278.99,209.814 1281.15,209.124 1283.31,208.437 1285.47,207.755 1287.63,207.076 1289.79,206.4 1291.95,205.728 1294.11,205.06 1296.27,204.395 1298.43,203.733 1300.6,203.076 1302.76,202.421 1304.92,201.77 1307.08,201.123 1309.24,200.479 1311.4,199.838 1313.56,199.201 1315.72,198.567 1317.88,197.936 1320.04,197.309 1322.2,196.685 1324.36,196.065 1326.52,195.448 1328.68,194.834 1330.84,194.223 1333,193.616 1335.16,193.012 1337.32,192.411 1339.48,191.813 1341.64,191.218 1343.81,190.627 1345.97,190.039 1348.13,189.453 1350.29,188.871 1352.45,188.293 1354.61,187.717 1356.77,187.144 1358.93,186.575 1361.09,186.008 1363.25,185.444 1365.41,184.884 1367.57,184.326 1369.73,183.772 1371.89,183.22 1374.05,182.672 1376.21,182.126 1378.37,181.584 1380.53,181.044 1382.69,180.507 1384.85,179.973 1387.01,179.442 1389.18,178.914 1391.34,178.388 1393.5,177.866 1395.66,177.346 1397.82,176.829 1399.98,176.315 1402.14,175.804 1404.3,175.295 1406.46,174.789 1408.62,174.286 1410.78,173.786 1412.94,173.288 1415.1,172.794 1417.26,172.301 1419.42,171.812 1421.58,171.325 1423.74,170.841 1425.9,170.359 1428.06,169.88 1430.22,169.404 1432.39,168.93 1434.55,168.459 1436.71,167.991 1438.87,167.525 1441.03,167.061 1443.19,166.6 1445.35,166.142 1447.51,165.686 1449.67,165.233 1451.83,164.782 1453.99,164.334 1456.15,163.888 1458.31,163.444 1460.47,163.003 1462.63,162.565 1464.79,162.128 1466.95,161.695 1469.11,161.263 1471.27,160.835 1473.43,160.408 1475.6,159.984 1477.76,159.562 1479.92,159.142 1482.08,158.725 1484.24,158.31 1486.4,157.897 1488.56,157.487 1490.72,157.079 1492.88,156.673 1495.04,156.269 1497.2,155.868 1499.36,155.469 1501.52,155.072 1503.68,154.677 1505.84,154.285 1508,153.894 1510.16,153.506 1512.32,153.12 1514.48,152.736 1516.64,152.354 1518.81,151.975 1520.97,151.597 1523.13,151.222 1525.29,150.848 1527.45,150.477 1529.61,150.108 1531.77,149.74 1533.93,149.375 1536.09,149.012 1538.25,148.651 1540.41,148.292 1542.57,147.935 1544.73,147.58 1546.89,147.226 1549.05,146.875 1551.21,146.526 1553.37,146.179 1555.53,145.833 1557.69,145.49 1559.85,145.148 1562.01,144.809 1564.18,144.471 1566.34,144.135 1568.5,143.801 1570.66,143.469 1572.82,143.139 1574.98,142.811 1577.14,142.484 1579.3,142.159 1581.46,141.836 1583.62,141.515 1585.78,141.196 1587.94,140.878 1590.1,140.563 1592.26,140.249 1594.42,139.936 1596.58,139.626 1598.74,139.317 1600.9,139.01 1603.06,138.705 1605.22,138.401 1607.39,138.099 1609.55,137.799 1611.71,137.501 1613.87,137.204 1616.03,136.909 1618.19,136.615 1620.35,136.323 1622.51,136.033 1624.67,135.744 1626.83,135.458 1628.99,135.172 1631.15,134.888 1633.31,134.606 1635.47,134.326 1637.63,134.047 1639.79,133.769 1641.95,133.493 1644.11,133.219 1646.27,132.946 1648.43,132.675 1650.6,132.405 1652.76,132.137 1654.92,131.871 1657.08,131.605 1659.24,131.342 1661.4,131.08 1663.56,130.819 1665.72,130.56 1667.88,130.302 1670.04,130.046 1672.2,129.791 1674.36,129.538 1676.52,129.286 1678.68,129.035 1680.84,128.786 1683,128.538 1685.16,128.292 1687.32,128.047 1689.48,127.804 1691.64,127.562 1693.81,127.321 1695.97,127.081 1698.13,126.843 1700.29,126.607 1702.45,126.372 1704.61,126.138 1706.77,125.905 1708.93,125.674 1711.09,125.444 1713.25,125.215 1715.41,124.988 1717.57,124.762 1719.73,124.537 1721.89,124.314 1724.05,124.091 1726.21,123.87 1728.37,123.651 1730.53,123.432 1732.69,123.215 1734.85,122.999 1737.02,122.785 1739.18,122.571 1741.34,122.359 1743.5,122.148 1745.66,121.938 1747.82,121.73 1749.98,121.522 1752.14,121.316 1754.3,121.111 1756.46,120.907 1758.62,120.704 1760.78,120.502 1762.94,120.302 1765.1,120.103 1767.26,119.905 1769.42,119.708 1771.58,119.512 1773.74,119.317 1775.9,119.123 1778.06,118.931 1780.22,118.739 1782.39,118.549 1784.55,118.36 1786.71,118.171 1788.87,117.984 1791.03,117.798 1793.19,117.613 1795.35,117.429 1797.51,117.247 1799.67,117.065 1801.83,116.884 1803.99,116.704 1806.15,116.526 1808.31,116.348 1810.47,116.171 1812.63,115.996 1814.79,115.821 1816.95,115.648 1819.11,115.475 1821.27,115.303 1823.43,115.133 1825.6,114.963 1827.76,114.794 1829.92,114.627 1832.08,114.46 1834.24,114.294 1836.4,114.129 1838.56,113.966 1840.72,113.803 1842.88,113.641 1845.04,113.48 1847.2,113.32 1849.36,113.16 1851.52,113.002 1853.68,112.845 1855.84,112.688 1858,112.533 1860.16,112.378 1862.32,112.224 1864.48,112.071 1866.64,111.919 1868.81,111.768 1870.97,111.618 1873.13,111.469 1875.29,111.32 1877.45,111.172 1879.61,111.026 1881.77,110.88 1883.93,110.735 1886.09,110.59 1888.25,110.447 1890.41,110.304 1892.57,110.162 1894.73,110.021 1896.89,109.881 1899.05,109.742 1901.21,109.603 1903.37,109.466 1905.53,109.329 1907.69,109.193 1909.85,109.057 1912.02,108.923 1914.18,108.789 1916.34,108.656 1918.5,108.524 1920.66,108.392 1922.82,108.261 1924.98,108.131 1927.14,108.002 1929.3,107.874 1931.46,107.746 1933.62,107.619 1935.78,107.493 1937.94,107.367 1940.1,107.242 1942.26,107.118 1944.42,106.995 1946.58,106.872 1948.74,106.75 1950.9,106.629 1953.06,106.509 1955.22,106.389 1957.39,106.27 1959.55,106.151 1961.71,106.033 1963.87,105.916 1966.03,105.8 1968.19,105.684 1970.35,105.569 1972.51,105.455 1974.67,105.341 1976.83,105.228 1978.99,105.116 1981.15,105.004 1983.31,104.893 1985.47,104.782 1987.63,104.673 1989.79,104.563 1991.95,104.455 1994.11,104.347 1996.27,104.24 1998.43,104.133 2000.6,104.027 2002.76,103.922 2004.92,103.817 2007.08,103.713 2009.24,103.609 2011.4,103.506 2013.56,103.404 2015.72,103.302 2017.88,103.201 2020.04,103.1 2022.2,103 2024.36,102.901 2026.52,102.802 2028.68,102.704 2030.84,102.606 2033,102.509 2035.16,102.412 2037.32,102.316 2039.48,102.221 2041.64,102.126 2043.81,102.031 2045.97,101.938 2048.13,101.844 2050.29,101.752 2052.45,101.659 2054.61,101.568 2056.77,101.477 2058.93,101.386 2061.09,101.296 2063.25,101.206 2065.41,101.117 2067.57,101.029 2069.73,100.941 2071.89,100.853 2074.05,100.766 2076.21,100.68 2078.37,100.594 2080.53,100.509 2082.69,100.424 2084.85,100.339 2087.02,100.255 2089.18,100.172 2091.34,100.089 2093.5,100.006 2095.66,99.9242 2097.82,99.8426 2099.98,99.7616 2102.14,99.681 2104.3,99.6009 2106.46,99.5212 2108.62,99.442 2110.78,99.3633 2112.94,99.2851 2115.1,99.2073 2117.26,99.13 2119.42,99.0531 2121.58,98.9766 2123.74,98.9007 2125.9,98.8251 2128.06,98.75 2130.22,98.6754 2132.39,98.6012 2134.55,98.5274 2136.71,98.4541 2138.87,98.3811 2141.03,98.3087 2143.19,98.2366 2145.35,98.165 2147.51,98.0938 2149.67,98.023 2151.83,97.9526 2153.99,97.8827 2156.15,97.8131 2158.31,97.744 2160.47,97.6753 2162.63,97.6069 2164.79,97.539 2166.95,97.4715 2169.11,97.4044 2171.27,97.3377 2173.43,97.2713 2175.6,97.2054 2177.76,97.1398 2179.92,97.0747 2182.08,97.0099 2184.24,96.9455 2186.4,96.8815 2188.56,96.8179 2190.72,96.7546 2192.88,96.6917 2195.04,96.6292 2197.2,96.567 2199.36,96.5053 2201.52,96.4438 2203.68,96.3828 2205.84,96.3221 2208,96.2617 2210.16,96.2018 2212.32,96.1421 2214.48,96.0829 2216.64,96.0239 2218.81,95.9654 2220.97,95.9071 2223.13,95.8492 2225.29,95.7917 2227.45,95.7345 2229.61,95.6776 2231.77,95.6211 2233.93,95.5649 2236.09,95.509 2238.25,95.4535 2240.41,95.3983 2242.57,95.3434 2244.73,95.2888 2246.89,95.2346 2249.05,95.1807 2251.21,95.1271 2253.37,95.0738 2255.53,95.0208 2257.69,94.9681 2259.85,94.9158 2262.02,94.8637 2264.18,94.812 2266.34,94.7606 2268.5,94.7094 2270.66,94.6586 2272.82,94.6081 2274.98,94.5578 2277.14,94.5079 2279.3,94.4583 2281.46,94.4089 2283.62,94.3599 2285.78,94.3111 2287.94,94.2626 2290.1,94.2144 2292.26,94.1665 2294.42,94.1188 2296.58,94.0715 2298.74,94.0244 2300.9,93.9776 2303.06,93.9311 2305.23,93.8848 2307.39,93.8388 2309.55,93.7931 2311.71,93.7477 2313.87,93.7025 2316.03,93.6576 2318.19,93.6129 2320.35,93.5686 2322.51,93.5244 2324.67,93.4806 2326.83,93.437 2328.99,93.3936 2331.15,93.3505 2333.31,93.3076 2335.47,93.265 2337.63,93.2227 2339.79,93.1806 2341.95,93.1387 2344.11,93.0971 2346.27,93.0558 2348.43,93.0146 2350.6,92.9737 2352.76,92.9331 "/>
<path clip-path="url(#clip340)" d="M1805.58 1377.32 L2280.81 1377.32 L2280.81 1221.8 L1805.58 1221.8  Z" fill="#ffffff" fill-rule="evenodd" fill-opacity="1"/>
<polyline clip-path="url(#clip340)" style="stroke:#000000; stroke-linecap:round; stroke-linejoin:round; stroke-width:4; stroke-opacity:1; fill:none" points="1805.58,1377.32 2280.81,1377.32 2280.81,1221.8 1805.58,1221.8 1805.58,1377.32 "/>
<polyline clip-path="url(#clip340)" style="stroke:#009af9; stroke-linecap:round; stroke-linejoin:round; stroke-width:4; stroke-opacity:1; fill:none" points="1829.56,1273.64 1973.45,1273.64 "/>
<path clip-path="url(#clip340)" d="M1997.43 1264.99 L2001.95 1264.99 L2010.05 1286.75 L2018.15 1264.99 L2022.66 1264.99 L2012.94 1290.92 L2007.16 1290.92 L1997.43 1264.99 Z" fill="#000000" fill-rule="nonzero" fill-opacity="1" /><path clip-path="url(#clip340)" d="M2029.96 1286.98 L2037.6 1286.98 L2037.6 1260.61 L2029.28 1262.28 L2029.28 1258.02 L2037.55 1256.36 L2042.22 1256.36 L2042.22 1286.98 L2049.86 1286.98 L2049.86 1290.92 L2029.96 1290.92 L2029.96 1286.98 Z" fill="#000000" fill-rule="nonzero" fill-opacity="1" /><path clip-path="url(#clip340)" d="M2067.97 1274.27 L2067.97 1281.49 L2076.09 1281.49 L2076.09 1283.69 L2067.97 1283.69 L2067.97 1290.92 L2065.53 1290.92 L2065.53 1283.69 L2057.41 1283.69 L2057.41 1281.49 L2065.53 1281.49 L2065.53 1274.27 L2067.97 1274.27 Z" fill="#000000" fill-rule="nonzero" fill-opacity="1" /><path clip-path="url(#clip340)" d="M2100.26 1265.75 L2100.26 1269.78 Q2098.45 1268.86 2096.51 1268.39 Q2094.56 1267.93 2092.48 1267.93 Q2089.31 1267.93 2087.71 1268.9 Q2086.14 1269.87 2086.14 1271.82 Q2086.14 1273.3 2087.27 1274.16 Q2088.4 1274.99 2091.83 1275.75 L2093.29 1276.08 Q2097.83 1277.05 2099.72 1278.83 Q2101.65 1280.59 2101.65 1283.76 Q2101.65 1287.37 2098.78 1289.48 Q2095.93 1291.59 2090.93 1291.59 Q2088.84 1291.59 2086.58 1291.17 Q2084.33 1290.78 2081.83 1289.97 L2081.83 1285.57 Q2084.19 1286.79 2086.48 1287.42 Q2088.78 1288.02 2091.02 1288.02 Q2094.03 1288.02 2095.65 1287 Q2097.27 1285.96 2097.27 1284.09 Q2097.27 1282.35 2096.09 1281.42 Q2094.93 1280.5 2090.97 1279.64 L2089.49 1279.3 Q2085.53 1278.46 2083.78 1276.75 Q2082.02 1275.01 2082.02 1272 Q2082.02 1268.35 2084.61 1266.36 Q2087.2 1264.36 2091.97 1264.36 Q2094.33 1264.36 2096.41 1264.71 Q2098.5 1265.06 2100.26 1265.75 Z" fill="#000000" fill-rule="nonzero" fill-opacity="1" /><path clip-path="url(#clip340)" d="M2112.64 1257.63 L2112.64 1264.99 L2121.41 1264.99 L2121.41 1268.3 L2112.64 1268.3 L2112.64 1282.37 Q2112.64 1285.54 2113.5 1286.45 Q2114.38 1287.35 2117.04 1287.35 L2121.41 1287.35 L2121.41 1290.92 L2117.04 1290.92 Q2112.11 1290.92 2110.23 1289.09 Q2108.36 1287.23 2108.36 1282.37 L2108.36 1268.3 L2105.23 1268.3 L2105.23 1264.99 L2108.36 1264.99 L2108.36 1257.63 L2112.64 1257.63 Z" fill="#000000" fill-rule="nonzero" fill-opacity="1" /><path clip-path="url(#clip340)" d="M2137.06 1267.98 Q2133.64 1267.98 2131.65 1270.66 Q2129.65 1273.32 2129.65 1277.98 Q2129.65 1282.63 2131.62 1285.31 Q2133.61 1287.98 2137.06 1287.98 Q2140.46 1287.98 2142.46 1285.29 Q2144.45 1282.61 2144.45 1277.98 Q2144.45 1273.37 2142.46 1270.68 Q2140.46 1267.98 2137.06 1267.98 M2137.06 1264.36 Q2142.62 1264.36 2145.79 1267.98 Q2148.96 1271.59 2148.96 1277.98 Q2148.96 1284.34 2145.79 1287.98 Q2142.62 1291.59 2137.06 1291.59 Q2131.48 1291.59 2128.31 1287.98 Q2125.16 1284.34 2125.16 1277.98 Q2125.16 1271.59 2128.31 1267.98 Q2131.48 1264.36 2137.06 1264.36 Z" fill="#000000" fill-rule="nonzero" fill-opacity="1" /><path clip-path="url(#clip340)" d="M2171.04 1268.97 Q2170.33 1268.55 2169.47 1268.37 Q2168.64 1268.16 2167.62 1268.16 Q2164.01 1268.16 2162.06 1270.52 Q2160.14 1272.86 2160.14 1277.26 L2160.14 1290.92 L2155.86 1290.92 L2155.86 1264.99 L2160.14 1264.99 L2160.14 1269.02 Q2161.48 1266.66 2163.64 1265.52 Q2165.79 1264.36 2168.87 1264.36 Q2169.31 1264.36 2169.84 1264.43 Q2170.37 1264.48 2171.02 1264.6 L2171.04 1268.97 Z" fill="#000000" fill-rule="nonzero" fill-opacity="1" /><path clip-path="url(#clip340)" d="M2187.29 1277.88 Q2182.13 1277.88 2180.14 1279.06 Q2178.15 1280.24 2178.15 1283.09 Q2178.15 1285.36 2179.63 1286.7 Q2181.14 1288.02 2183.71 1288.02 Q2187.25 1288.02 2189.38 1285.52 Q2191.53 1283 2191.53 1278.83 L2191.53 1277.88 L2187.29 1277.88 M2195.79 1276.12 L2195.79 1290.92 L2191.53 1290.92 L2191.53 1286.98 Q2190.07 1289.34 2187.9 1290.48 Q2185.72 1291.59 2182.57 1291.59 Q2178.59 1291.59 2176.23 1289.36 Q2173.89 1287.12 2173.89 1283.37 Q2173.89 1278.99 2176.81 1276.77 Q2179.75 1274.55 2185.56 1274.55 L2191.53 1274.55 L2191.53 1274.13 Q2191.53 1271.19 2189.58 1269.6 Q2187.66 1267.98 2184.17 1267.98 Q2181.95 1267.98 2179.84 1268.51 Q2177.73 1269.04 2175.79 1270.11 L2175.79 1266.17 Q2178.13 1265.27 2180.33 1264.83 Q2182.52 1264.36 2184.61 1264.36 Q2190.23 1264.36 2193.01 1267.28 Q2195.79 1270.2 2195.79 1276.12 Z" fill="#000000" fill-rule="nonzero" fill-opacity="1" /><path clip-path="url(#clip340)" d="M2221.62 1277.65 Q2221.62 1273.02 2219.7 1270.48 Q2217.8 1267.93 2214.35 1267.93 Q2210.93 1267.93 2209.01 1270.48 Q2207.11 1273.02 2207.11 1277.65 Q2207.11 1282.26 2209.01 1284.8 Q2210.93 1287.35 2214.35 1287.35 Q2217.8 1287.35 2219.7 1284.8 Q2221.62 1282.26 2221.62 1277.65 M2225.88 1287.7 Q2225.88 1294.32 2222.94 1297.54 Q2220 1300.78 2213.94 1300.78 Q2211.69 1300.78 2209.7 1300.43 Q2207.71 1300.11 2205.83 1299.41 L2205.83 1295.27 Q2207.71 1296.29 2209.54 1296.77 Q2211.37 1297.26 2213.27 1297.26 Q2217.46 1297.26 2219.54 1295.06 Q2221.62 1292.88 2221.62 1288.46 L2221.62 1286.36 Q2220.3 1288.65 2218.24 1289.78 Q2216.18 1290.92 2213.31 1290.92 Q2208.54 1290.92 2205.63 1287.28 Q2202.71 1283.65 2202.71 1277.65 Q2202.71 1271.63 2205.63 1268 Q2208.54 1264.36 2213.31 1264.36 Q2216.18 1264.36 2218.24 1265.5 Q2220.3 1266.63 2221.62 1268.92 L2221.62 1264.99 L2225.88 1264.99 L2225.88 1287.7 Z" fill="#000000" fill-rule="nonzero" fill-opacity="1" /><path clip-path="url(#clip340)" d="M2256.83 1276.89 L2256.83 1278.97 L2237.25 1278.97 Q2237.52 1283.37 2239.89 1285.68 Q2242.27 1287.98 2246.51 1287.98 Q2248.96 1287.98 2251.25 1287.37 Q2253.57 1286.77 2255.83 1285.57 L2255.83 1289.6 Q2253.54 1290.57 2251.14 1291.08 Q2248.73 1291.59 2246.25 1291.59 Q2240.05 1291.59 2236.41 1287.98 Q2232.8 1284.36 2232.8 1278.21 Q2232.8 1271.84 2236.23 1268.11 Q2239.68 1264.36 2245.51 1264.36 Q2250.74 1264.36 2253.77 1267.74 Q2256.83 1271.1 2256.83 1276.89 M2252.57 1275.64 Q2252.52 1272.14 2250.6 1270.06 Q2248.71 1267.98 2245.56 1267.98 Q2241.99 1267.98 2239.84 1269.99 Q2237.71 1272 2237.39 1275.66 L2252.57 1275.64 Z" fill="#000000" fill-rule="nonzero" fill-opacity="1" /><polyline clip-path="url(#clip340)" style="stroke:#e26f46; stroke-linecap:round; stroke-linejoin:round; stroke-width:4; stroke-opacity:1; fill:none" points="1829.56,1325.48 1973.45,1325.48 "/>
<path clip-path="url(#clip340)" d="M1997.43 1316.83 L2001.95 1316.83 L2010.05 1338.59 L2018.15 1316.83 L2022.66 1316.83 L2012.94 1342.76 L2007.16 1342.76 L1997.43 1316.83 Z" fill="#000000" fill-rule="nonzero" fill-opacity="1" /><path clip-path="url(#clip340)" d="M2029.19 1308.2 L2047.55 1308.2 L2047.55 1312.13 L2033.47 1312.13 L2033.47 1320.6 Q2034.49 1320.26 2035.51 1320.09 Q2036.53 1319.91 2037.55 1319.91 Q2043.34 1319.91 2046.72 1323.08 Q2050.09 1326.25 2050.09 1331.67 Q2050.09 1337.25 2046.62 1340.35 Q2043.15 1343.43 2036.83 1343.43 Q2034.66 1343.43 2032.39 1343.06 Q2030.14 1342.69 2027.73 1341.95 L2027.73 1337.25 Q2029.82 1338.38 2032.04 1338.94 Q2034.26 1339.49 2036.74 1339.49 Q2040.74 1339.49 2043.08 1337.38 Q2045.42 1335.28 2045.42 1331.67 Q2045.42 1328.06 2043.08 1325.95 Q2040.74 1323.84 2036.74 1323.84 Q2034.86 1323.84 2032.99 1324.26 Q2031.14 1324.68 2029.19 1325.56 L2029.19 1308.2 Z" fill="#000000" fill-rule="nonzero" fill-opacity="1" /><path clip-path="url(#clip340)" d="M2067.97 1326.11 L2067.97 1333.33 L2076.09 1333.33 L2076.09 1335.53 L2067.97 1335.53 L2067.97 1342.76 L2065.53 1342.76 L2065.53 1335.53 L2057.41 1335.53 L2057.41 1333.33 L2065.53 1333.33 L2065.53 1326.11 L2067.97 1326.11 Z" fill="#000000" fill-rule="nonzero" fill-opacity="1" /><path clip-path="url(#clip340)" d="M2100.26 1317.59 L2100.26 1321.62 Q2098.45 1320.7 2096.51 1320.23 Q2094.56 1319.77 2092.48 1319.77 Q2089.31 1319.77 2087.71 1320.74 Q2086.14 1321.71 2086.14 1323.66 Q2086.14 1325.14 2087.27 1326 Q2088.4 1326.83 2091.83 1327.59 L2093.29 1327.92 Q2097.83 1328.89 2099.72 1330.67 Q2101.65 1332.43 2101.65 1335.6 Q2101.65 1339.21 2098.78 1341.32 Q2095.93 1343.43 2090.93 1343.43 Q2088.84 1343.43 2086.58 1343.01 Q2084.33 1342.62 2081.83 1341.81 L2081.83 1337.41 Q2084.19 1338.63 2086.48 1339.26 Q2088.78 1339.86 2091.02 1339.86 Q2094.03 1339.86 2095.65 1338.84 Q2097.27 1337.8 2097.27 1335.93 Q2097.27 1334.19 2096.09 1333.26 Q2094.93 1332.34 2090.97 1331.48 L2089.49 1331.14 Q2085.53 1330.3 2083.78 1328.59 Q2082.02 1326.85 2082.02 1323.84 Q2082.02 1320.19 2084.61 1318.2 Q2087.2 1316.2 2091.97 1316.2 Q2094.33 1316.2 2096.41 1316.55 Q2098.5 1316.9 2100.26 1317.59 Z" fill="#000000" fill-rule="nonzero" fill-opacity="1" /><path clip-path="url(#clip340)" d="M2112.64 1309.47 L2112.64 1316.83 L2121.41 1316.83 L2121.41 1320.14 L2112.64 1320.14 L2112.64 1334.21 Q2112.64 1337.38 2113.5 1338.29 Q2114.38 1339.19 2117.04 1339.19 L2121.41 1339.19 L2121.41 1342.76 L2117.04 1342.76 Q2112.11 1342.76 2110.23 1340.93 Q2108.36 1339.07 2108.36 1334.21 L2108.36 1320.14 L2105.23 1320.14 L2105.23 1316.83 L2108.36 1316.83 L2108.36 1309.47 L2112.64 1309.47 Z" fill="#000000" fill-rule="nonzero" fill-opacity="1" /><path clip-path="url(#clip340)" d="M2137.06 1319.82 Q2133.64 1319.82 2131.65 1322.5 Q2129.65 1325.16 2129.65 1329.82 Q2129.65 1334.47 2131.62 1337.15 Q2133.61 1339.82 2137.06 1339.82 Q2140.46 1339.82 2142.46 1337.13 Q2144.45 1334.45 2144.45 1329.82 Q2144.45 1325.21 2142.46 1322.52 Q2140.46 1319.82 2137.06 1319.82 M2137.06 1316.2 Q2142.62 1316.2 2145.79 1319.82 Q2148.96 1323.43 2148.96 1329.82 Q2148.96 1336.18 2145.79 1339.82 Q2142.62 1343.43 2137.06 1343.43 Q2131.48 1343.43 2128.31 1339.82 Q2125.16 1336.18 2125.16 1329.82 Q2125.16 1323.43 2128.31 1319.82 Q2131.48 1316.2 2137.06 1316.2 Z" fill="#000000" fill-rule="nonzero" fill-opacity="1" /><path clip-path="url(#clip340)" d="M2171.04 1320.81 Q2170.33 1320.39 2169.47 1320.21 Q2168.64 1320 2167.62 1320 Q2164.01 1320 2162.06 1322.36 Q2160.14 1324.7 2160.14 1329.1 L2160.14 1342.76 L2155.86 1342.76 L2155.86 1316.83 L2160.14 1316.83 L2160.14 1320.86 Q2161.48 1318.5 2163.64 1317.36 Q2165.79 1316.2 2168.87 1316.2 Q2169.31 1316.2 2169.84 1316.27 Q2170.37 1316.32 2171.02 1316.44 L2171.04 1320.81 Z" fill="#000000" fill-rule="nonzero" fill-opacity="1" /><path clip-path="url(#clip340)" d="M2187.29 1329.72 Q2182.13 1329.72 2180.14 1330.9 Q2178.15 1332.08 2178.15 1334.93 Q2178.15 1337.2 2179.63 1338.54 Q2181.14 1339.86 2183.71 1339.86 Q2187.25 1339.86 2189.38 1337.36 Q2191.53 1334.84 2191.53 1330.67 L2191.53 1329.72 L2187.29 1329.72 M2195.79 1327.96 L2195.79 1342.76 L2191.53 1342.76 L2191.53 1338.82 Q2190.07 1341.18 2187.9 1342.32 Q2185.72 1343.43 2182.57 1343.43 Q2178.59 1343.43 2176.23 1341.2 Q2173.89 1338.96 2173.89 1335.21 Q2173.89 1330.83 2176.81 1328.61 Q2179.75 1326.39 2185.56 1326.39 L2191.53 1326.39 L2191.53 1325.97 Q2191.53 1323.03 2189.58 1321.44 Q2187.66 1319.82 2184.17 1319.82 Q2181.95 1319.82 2179.84 1320.35 Q2177.73 1320.88 2175.79 1321.95 L2175.79 1318.01 Q2178.13 1317.11 2180.33 1316.67 Q2182.52 1316.2 2184.61 1316.2 Q2190.23 1316.2 2193.01 1319.12 Q2195.79 1322.04 2195.79 1327.96 Z" fill="#000000" fill-rule="nonzero" fill-opacity="1" /><path clip-path="url(#clip340)" d="M2221.62 1329.49 Q2221.62 1324.86 2219.7 1322.32 Q2217.8 1319.77 2214.35 1319.77 Q2210.93 1319.77 2209.01 1322.32 Q2207.11 1324.86 2207.11 1329.49 Q2207.11 1334.1 2209.01 1336.64 Q2210.93 1339.19 2214.35 1339.19 Q2217.8 1339.19 2219.7 1336.64 Q2221.62 1334.1 2221.62 1329.49 M2225.88 1339.54 Q2225.88 1346.16 2222.94 1349.38 Q2220 1352.62 2213.94 1352.62 Q2211.69 1352.62 2209.7 1352.27 Q2207.71 1351.95 2205.83 1351.25 L2205.83 1347.11 Q2207.71 1348.13 2209.54 1348.61 Q2211.37 1349.1 2213.27 1349.1 Q2217.46 1349.1 2219.54 1346.9 Q2221.62 1344.72 2221.62 1340.3 L2221.62 1338.2 Q2220.3 1340.49 2218.24 1341.62 Q2216.18 1342.76 2213.31 1342.76 Q2208.54 1342.76 2205.63 1339.12 Q2202.71 1335.49 2202.71 1329.49 Q2202.71 1323.47 2205.63 1319.84 Q2208.54 1316.2 2213.31 1316.2 Q2216.18 1316.2 2218.24 1317.34 Q2220.3 1318.47 2221.62 1320.76 L2221.62 1316.83 L2225.88 1316.83 L2225.88 1339.54 Z" fill="#000000" fill-rule="nonzero" fill-opacity="1" /><path clip-path="url(#clip340)" d="M2256.83 1328.73 L2256.83 1330.81 L2237.25 1330.81 Q2237.52 1335.21 2239.89 1337.52 Q2242.27 1339.82 2246.51 1339.82 Q2248.96 1339.82 2251.25 1339.21 Q2253.57 1338.61 2255.83 1337.41 L2255.83 1341.44 Q2253.54 1342.41 2251.14 1342.92 Q2248.73 1343.43 2246.25 1343.43 Q2240.05 1343.43 2236.41 1339.82 Q2232.8 1336.2 2232.8 1330.05 Q2232.8 1323.68 2236.23 1319.95 Q2239.68 1316.2 2245.51 1316.2 Q2250.74 1316.2 2253.77 1319.58 Q2256.83 1322.94 2256.83 1328.73 M2252.57 1327.48 Q2252.52 1323.98 2250.6 1321.9 Q2248.71 1319.82 2245.56 1319.82 Q2241.99 1319.82 2239.84 1321.83 Q2237.71 1323.84 2237.39 1327.5 L2252.57 1327.48 Z" fill="#000000" fill-rule="nonzero" fill-opacity="1" /></svg>
