<?xml version="1.0" encoding="utf-8"?>
<svg xmlns="http://www.w3.org/2000/svg" xmlns:xlink="http://www.w3.org/1999/xlink" width="600" height="400" viewBox="0 0 2400 1600">
<defs>
  <clipPath id="clip150">
    <rect x="0" y="0" width="2400" height="1600"/>
  </clipPath>
</defs>
<path clip-path="url(#clip150)" d="M0 1600 L2400 1600 L2400 0 L0 0  Z" fill="#ffffff" fill-rule="evenodd" fill-opacity="1"/>
<defs>
  <clipPath id="clip151">
    <rect x="480" y="0" width="1681" height="1600"/>
  </clipPath>
</defs>
<path clip-path="url(#clip150)" d="M156.02 1423.18 L2352.76 1423.18 L2352.76 47.2441 L156.02 47.2441  Z" fill="#ffffff" fill-rule="evenodd" fill-opacity="1"/>
<defs>
  <clipPath id="clip152">
    <rect x="156" y="47" width="2198" height="1377"/>
  </clipPath>
</defs>
<polyline clip-path="url(#clip152)" style="stroke:#000000; stroke-linecap:round; stroke-linejoin:round; stroke-width:2; stroke-opacity:0.1; fill:none" points="156.02,1423.18 156.02,47.2441 "/>
<polyline clip-path="url(#clip152)" style="stroke:#000000; stroke-linecap:round; stroke-linejoin:round; stroke-width:2; stroke-opacity:0.1; fill:none" points="705.204,1423.18 705.204,47.2441 "/>
<polyline clip-path="url(#clip152)" style="stroke:#000000; stroke-linecap:round; stroke-linejoin:round; stroke-width:2; stroke-opacity:0.1; fill:none" points="1254.39,1423.18 1254.39,47.2441 "/>
<polyline clip-path="url(#clip152)" style="stroke:#000000; stroke-linecap:round; stroke-linejoin:round; stroke-width:2; stroke-opacity:0.1; fill:none" points="1803.57,1423.18 1803.57,47.2441 "/>
<polyline clip-path="url(#clip152)" style="stroke:#000000; stroke-linecap:round; stroke-linejoin:round; stroke-width:2; stroke-opacity:0.1; fill:none" points="2352.76,1423.18 2352.76,47.2441 "/>
<polyline clip-path="url(#clip152)" style="stroke:#000000; stroke-linecap:round; stroke-linejoin:round; stroke-width:2; stroke-opacity:0.1; fill:none" points="156.02,1176.15 2352.76,1176.15 "/>
<polyline clip-path="url(#clip152)" style="stroke:#000000; stroke-linecap:round; stroke-linejoin:round; stroke-width:2; stroke-opacity:0.1; fill:none" points="156.02,897.933 2352.76,897.933 "/>
<polyline clip-path="url(#clip152)" style="stroke:#000000; stroke-linecap:round; stroke-linejoin:round; stroke-width:2; stroke-opacity:0.1; fill:none" points="156.02,619.721 2352.76,619.721 "/>
<polyline clip-path="url(#clip152)" style="stroke:#000000; stroke-linecap:round; stroke-linejoin:round; stroke-width:2; stroke-opacity:0.1; fill:none" points="156.02,341.508 2352.76,341.508 "/>
<polyline clip-path="url(#clip152)" style="stroke:#000000; stroke-linecap:round; stroke-linejoin:round; stroke-width:2; stroke-opacity:0.1; fill:none" points="156.02,63.295 2352.76,63.295 "/>
<polyline clip-path="url(#clip150)" style="stroke:#000000; stroke-linecap:round; stroke-linejoin:round; stroke-width:4; stroke-opacity:1; fill:none" points="156.02,1423.18 2352.76,1423.18 "/>
<polyline clip-path="url(#clip150)" style="stroke:#000000; stroke-linecap:round; stroke-linejoin:round; stroke-width:4; stroke-opacity:1; fill:none" points="156.02,1423.18 156.02,1404.28 "/>
<polyline clip-path="url(#clip150)" style="stroke:#000000; stroke-linecap:round; stroke-linejoin:round; stroke-width:4; stroke-opacity:1; fill:none" points="705.204,1423.18 705.204,1404.28 "/>
<polyline clip-path="url(#clip150)" style="stroke:#000000; stroke-linecap:round; stroke-linejoin:round; stroke-width:4; stroke-opacity:1; fill:none" points="1254.39,1423.18 1254.39,1404.28 "/>
<polyline clip-path="url(#clip150)" style="stroke:#000000; stroke-linecap:round; stroke-linejoin:round; stroke-width:4; stroke-opacity:1; fill:none" points="1803.57,1423.18 1803.57,1404.28 "/>
<polyline clip-path="url(#clip150)" style="stroke:#000000; stroke-linecap:round; stroke-linejoin:round; stroke-width:4; stroke-opacity:1; fill:none" points="2352.76,1423.18 2352.76,1404.28 "/>
<path clip-path="url(#clip150)" d="M133.404 1454.1 Q129.793 1454.1 127.964 1457.66 Q126.159 1461.2 126.159 1468.33 Q126.159 1475.44 127.964 1479.01 Q129.793 1482.55 133.404 1482.55 Q137.038 1482.55 138.844 1479.01 Q140.672 1475.44 140.672 1468.33 Q140.672 1461.2 138.844 1457.66 Q137.038 1454.1 133.404 1454.1 M133.404 1450.39 Q139.214 1450.39 142.27 1455 Q145.348 1459.58 145.348 1468.33 Q145.348 1477.06 142.27 1481.67 Q139.214 1486.25 133.404 1486.25 Q127.594 1486.25 124.515 1481.67 Q121.46 1477.06 121.46 1468.33 Q121.46 1459.58 124.515 1455 Q127.594 1450.39 133.404 1450.39 Z" fill="#000000" fill-rule="nonzero" fill-opacity="1" /><path clip-path="url(#clip150)" d="M153.566 1479.7 L158.45 1479.7 L158.45 1485.58 L153.566 1485.58 L153.566 1479.7 Z" fill="#000000" fill-rule="nonzero" fill-opacity="1" /><path clip-path="url(#clip150)" d="M178.635 1454.1 Q175.024 1454.1 173.195 1457.66 Q171.39 1461.2 171.39 1468.33 Q171.39 1475.44 173.195 1479.01 Q175.024 1482.55 178.635 1482.55 Q182.269 1482.55 184.075 1479.01 Q185.904 1475.44 185.904 1468.33 Q185.904 1461.2 184.075 1457.66 Q182.269 1454.1 178.635 1454.1 M178.635 1450.39 Q184.445 1450.39 187.501 1455 Q190.58 1459.58 190.58 1468.33 Q190.58 1477.06 187.501 1481.67 Q184.445 1486.25 178.635 1486.25 Q172.825 1486.25 169.746 1481.67 Q166.691 1477.06 166.691 1468.33 Q166.691 1459.58 169.746 1455 Q172.825 1450.39 178.635 1450.39 Z" fill="#000000" fill-rule="nonzero" fill-opacity="1" /><path clip-path="url(#clip150)" d="M683.086 1454.1 Q679.475 1454.1 677.646 1457.66 Q675.84 1461.2 675.84 1468.33 Q675.84 1475.44 677.646 1479.01 Q679.475 1482.55 683.086 1482.55 Q686.72 1482.55 688.525 1479.01 Q690.354 1475.44 690.354 1468.33 Q690.354 1461.2 688.525 1457.66 Q686.72 1454.1 683.086 1454.1 M683.086 1450.39 Q688.896 1450.39 691.951 1455 Q695.03 1459.58 695.03 1468.33 Q695.03 1477.06 691.951 1481.67 Q688.896 1486.25 683.086 1486.25 Q677.276 1486.25 674.197 1481.67 Q671.141 1477.06 671.141 1468.33 Q671.141 1459.58 674.197 1455 Q677.276 1450.39 683.086 1450.39 Z" fill="#000000" fill-rule="nonzero" fill-opacity="1" /><path clip-path="url(#clip150)" d="M703.248 1479.7 L708.132 1479.7 L708.132 1485.58 L703.248 1485.58 L703.248 1479.7 Z" fill="#000000" fill-rule="nonzero" fill-opacity="1" /><path clip-path="url(#clip150)" d="M718.363 1451.02 L736.72 1451.02 L736.72 1454.96 L722.646 1454.96 L722.646 1463.43 Q723.664 1463.08 724.683 1462.92 Q725.701 1462.73 726.72 1462.73 Q732.507 1462.73 735.886 1465.9 Q739.266 1469.08 739.266 1474.49 Q739.266 1480.07 735.794 1483.17 Q732.322 1486.25 726.002 1486.25 Q723.826 1486.25 721.558 1485.88 Q719.312 1485.51 716.905 1484.77 L716.905 1480.07 Q718.988 1481.2 721.21 1481.76 Q723.433 1482.32 725.91 1482.32 Q729.914 1482.32 732.252 1480.21 Q734.59 1478.1 734.59 1474.49 Q734.59 1470.88 732.252 1468.77 Q729.914 1466.67 725.91 1466.67 Q724.035 1466.67 722.16 1467.08 Q720.308 1467.5 718.363 1468.38 L718.363 1451.02 Z" fill="#000000" fill-rule="nonzero" fill-opacity="1" /><path clip-path="url(#clip150)" d="M1221.54 1481.64 L1229.18 1481.64 L1229.18 1455.28 L1220.87 1456.95 L1220.87 1452.69 L1229.13 1451.02 L1233.81 1451.02 L1233.81 1481.64 L1241.45 1481.64 L1241.45 1485.58 L1221.54 1485.58 L1221.54 1481.64 Z" fill="#000000" fill-rule="nonzero" fill-opacity="1" /><path clip-path="url(#clip150)" d="M1250.89 1479.7 L1255.78 1479.7 L1255.78 1485.58 L1250.89 1485.58 L1250.89 1479.7 Z" fill="#000000" fill-rule="nonzero" fill-opacity="1" /><path clip-path="url(#clip150)" d="M1275.96 1454.1 Q1272.35 1454.1 1270.52 1457.66 Q1268.72 1461.2 1268.72 1468.33 Q1268.72 1475.44 1270.52 1479.01 Q1272.35 1482.55 1275.96 1482.55 Q1279.6 1482.55 1281.4 1479.01 Q1283.23 1475.44 1283.23 1468.33 Q1283.23 1461.2 1281.4 1457.66 Q1279.6 1454.1 1275.96 1454.1 M1275.96 1450.39 Q1281.77 1450.39 1284.83 1455 Q1287.91 1459.58 1287.91 1468.33 Q1287.91 1477.06 1284.83 1481.67 Q1281.77 1486.25 1275.96 1486.25 Q1270.15 1486.25 1267.07 1481.67 Q1264.02 1477.06 1264.02 1468.33 Q1264.02 1459.58 1267.07 1455 Q1270.15 1450.39 1275.96 1450.39 Z" fill="#000000" fill-rule="nonzero" fill-opacity="1" /><path clip-path="url(#clip150)" d="M1771.22 1481.64 L1778.86 1481.64 L1778.86 1455.28 L1770.55 1456.95 L1770.55 1452.69 L1778.82 1451.02 L1783.49 1451.02 L1783.49 1481.64 L1791.13 1481.64 L1791.13 1485.58 L1771.22 1485.58 L1771.22 1481.64 Z" fill="#000000" fill-rule="nonzero" fill-opacity="1" /><path clip-path="url(#clip150)" d="M1800.57 1479.7 L1805.46 1479.7 L1805.46 1485.58 L1800.57 1485.58 L1800.57 1479.7 Z" fill="#000000" fill-rule="nonzero" fill-opacity="1" /><path clip-path="url(#clip150)" d="M1815.69 1451.02 L1834.05 1451.02 L1834.05 1454.96 L1819.97 1454.96 L1819.97 1463.43 Q1820.99 1463.08 1822.01 1462.92 Q1823.03 1462.73 1824.05 1462.73 Q1829.83 1462.73 1833.21 1465.9 Q1836.59 1469.08 1836.59 1474.49 Q1836.59 1480.07 1833.12 1483.17 Q1829.65 1486.25 1823.33 1486.25 Q1821.15 1486.25 1818.88 1485.88 Q1816.64 1485.51 1814.23 1484.77 L1814.23 1480.07 Q1816.31 1481.2 1818.54 1481.76 Q1820.76 1482.32 1823.24 1482.32 Q1827.24 1482.32 1829.58 1480.21 Q1831.92 1478.1 1831.92 1474.49 Q1831.92 1470.88 1829.58 1468.77 Q1827.24 1466.67 1823.24 1466.67 Q1821.36 1466.67 1819.49 1467.08 Q1817.63 1467.5 1815.69 1468.38 L1815.69 1451.02 Z" fill="#000000" fill-rule="nonzero" fill-opacity="1" /><path clip-path="url(#clip150)" d="M2323.99 1481.64 L2340.31 1481.64 L2340.31 1485.58 L2318.37 1485.58 L2318.37 1481.64 Q2321.03 1478.89 2325.61 1474.26 Q2330.22 1469.61 2331.4 1468.27 Q2333.65 1465.74 2334.53 1464.01 Q2335.43 1462.25 2335.43 1460.56 Q2335.43 1457.8 2333.49 1456.07 Q2331.56 1454.33 2328.46 1454.33 Q2326.26 1454.33 2323.81 1455.09 Q2321.38 1455.86 2318.6 1457.41 L2318.6 1452.69 Q2321.43 1451.55 2323.88 1450.97 Q2326.33 1450.39 2328.37 1450.39 Q2333.74 1450.39 2336.93 1453.08 Q2340.13 1455.77 2340.13 1460.26 Q2340.13 1462.39 2339.32 1464.31 Q2338.53 1466.2 2336.42 1468.8 Q2335.85 1469.47 2332.74 1472.69 Q2329.64 1475.88 2323.99 1481.64 Z" fill="#000000" fill-rule="nonzero" fill-opacity="1" /><path clip-path="url(#clip150)" d="M2350.13 1479.7 L2355.01 1479.7 L2355.01 1485.58 L2350.13 1485.58 L2350.13 1479.7 Z" fill="#000000" fill-rule="nonzero" fill-opacity="1" /><path clip-path="url(#clip150)" d="M2375.2 1454.1 Q2371.59 1454.1 2369.76 1457.66 Q2367.95 1461.2 2367.95 1468.33 Q2367.95 1475.44 2369.76 1479.01 Q2371.59 1482.55 2375.2 1482.55 Q2378.83 1482.55 2380.64 1479.01 Q2382.47 1475.44 2382.47 1468.33 Q2382.47 1461.2 2380.64 1457.66 Q2378.83 1454.1 2375.2 1454.1 M2375.2 1450.39 Q2381.01 1450.39 2384.06 1455 Q2387.14 1459.58 2387.14 1468.33 Q2387.14 1477.06 2384.06 1481.67 Q2381.01 1486.25 2375.2 1486.25 Q2369.39 1486.25 2366.31 1481.67 Q2363.25 1477.06 2363.25 1468.33 Q2363.25 1459.58 2366.31 1455 Q2369.39 1450.39 2375.2 1450.39 Z" fill="#000000" fill-rule="nonzero" fill-opacity="1" /><path clip-path="url(#clip150)" d="M1253.45 1522.27 L1253.45 1532.4 L1265.51 1532.4 L1265.51 1536.95 L1253.45 1536.95 L1253.45 1556.3 Q1253.45 1560.66 1254.63 1561.9 Q1255.84 1563.14 1259.5 1563.14 L1265.51 1563.14 L1265.51 1568.04 L1259.5 1568.04 Q1252.72 1568.04 1250.14 1565.53 Q1247.56 1562.98 1247.56 1556.3 L1247.56 1536.95 L1243.26 1536.95 L1243.26 1532.4 L1247.56 1532.4 L1247.56 1522.27 L1253.45 1522.27 Z" fill="#000000" fill-rule="nonzero" fill-opacity="1" /><polyline clip-path="url(#clip150)" style="stroke:#000000; stroke-linecap:round; stroke-linejoin:round; stroke-width:4; stroke-opacity:1; fill:none" points="156.02,1423.18 156.02,47.2441 "/>
<polyline clip-path="url(#clip150)" style="stroke:#000000; stroke-linecap:round; stroke-linejoin:round; stroke-width:4; stroke-opacity:1; fill:none" points="156.02,1176.15 174.917,1176.15 "/>
<polyline clip-path="url(#clip150)" style="stroke:#000000; stroke-linecap:round; stroke-linejoin:round; stroke-width:4; stroke-opacity:1; fill:none" points="156.02,897.933 174.917,897.933 "/>
<polyline clip-path="url(#clip150)" style="stroke:#000000; stroke-linecap:round; stroke-linejoin:round; stroke-width:4; stroke-opacity:1; fill:none" points="156.02,619.721 174.917,619.721 "/>
<polyline clip-path="url(#clip150)" style="stroke:#000000; stroke-linecap:round; stroke-linejoin:round; stroke-width:4; stroke-opacity:1; fill:none" points="156.02,341.508 174.917,341.508 "/>
<polyline clip-path="url(#clip150)" style="stroke:#000000; stroke-linecap:round; stroke-linejoin:round; stroke-width:4; stroke-opacity:1; fill:none" points="156.02,63.295 174.917,63.295 "/>
<path clip-path="url(#clip150)" d="M62.9365 1161.94 Q59.3254 1161.94 57.4967 1165.51 Q55.6912 1169.05 55.6912 1176.18 Q55.6912 1183.29 57.4967 1186.85 Q59.3254 1190.39 62.9365 1190.39 Q66.5707 1190.39 68.3763 1186.85 Q70.205 1183.29 70.205 1176.18 Q70.205 1169.05 68.3763 1165.51 Q66.5707 1161.94 62.9365 1161.94 M62.9365 1158.24 Q68.7467 1158.24 71.8022 1162.85 Q74.8809 1167.43 74.8809 1176.18 Q74.8809 1184.91 71.8022 1189.51 Q68.7467 1194.1 62.9365 1194.1 Q57.1264 1194.1 54.0477 1189.51 Q50.9921 1184.91 50.9921 1176.18 Q50.9921 1167.43 54.0477 1162.85 Q57.1264 1158.24 62.9365 1158.24 Z" fill="#000000" fill-rule="nonzero" fill-opacity="1" /><path clip-path="url(#clip150)" d="M83.0984 1187.55 L87.9827 1187.55 L87.9827 1193.43 L83.0984 1193.43 L83.0984 1187.55 Z" fill="#000000" fill-rule="nonzero" fill-opacity="1" /><path clip-path="url(#clip150)" d="M108.168 1177.01 Q104.834 1177.01 102.913 1178.8 Q101.015 1180.58 101.015 1183.7 Q101.015 1186.83 102.913 1188.61 Q104.834 1190.39 108.168 1190.39 Q111.501 1190.39 113.422 1188.61 Q115.344 1186.81 115.344 1183.7 Q115.344 1180.58 113.422 1178.8 Q111.524 1177.01 108.168 1177.01 M103.492 1175.02 Q100.483 1174.28 98.7928 1172.22 Q97.1261 1170.16 97.1261 1167.2 Q97.1261 1163.06 100.066 1160.65 Q103.029 1158.24 108.168 1158.24 Q113.33 1158.24 116.27 1160.65 Q119.209 1163.06 119.209 1167.2 Q119.209 1170.16 117.52 1172.22 Q115.853 1174.28 112.867 1175.02 Q116.246 1175.81 118.121 1178.1 Q120.02 1180.39 120.02 1183.7 Q120.02 1188.73 116.941 1191.41 Q113.885 1194.1 108.168 1194.1 Q102.45 1194.1 99.3715 1191.41 Q96.316 1188.73 96.316 1183.7 Q96.316 1180.39 98.2141 1178.1 Q100.112 1175.81 103.492 1175.02 M101.779 1167.64 Q101.779 1170.32 103.446 1171.83 Q105.135 1173.33 108.168 1173.33 Q111.177 1173.33 112.867 1171.83 Q114.58 1170.32 114.58 1167.64 Q114.58 1164.95 112.867 1163.45 Q111.177 1161.94 108.168 1161.94 Q105.135 1161.94 103.446 1163.45 Q101.779 1164.95 101.779 1167.64 Z" fill="#000000" fill-rule="nonzero" fill-opacity="1" /><path clip-path="url(#clip150)" d="M53.6541 911.278 L61.293 911.278 L61.293 884.913 L52.9829 886.579 L52.9829 882.32 L61.2467 880.653 L65.9226 880.653 L65.9226 911.278 L73.5614 911.278 L73.5614 915.213 L53.6541 915.213 L53.6541 911.278 Z" fill="#000000" fill-rule="nonzero" fill-opacity="1" /><path clip-path="url(#clip150)" d="M83.0058 909.334 L87.8901 909.334 L87.8901 915.213 L83.0058 915.213 L83.0058 909.334 Z" fill="#000000" fill-rule="nonzero" fill-opacity="1" /><path clip-path="url(#clip150)" d="M108.075 883.732 Q104.464 883.732 102.635 887.297 Q100.83 890.839 100.83 897.968 Q100.83 905.075 102.635 908.639 Q104.464 912.181 108.075 912.181 Q111.709 912.181 113.515 908.639 Q115.344 905.075 115.344 897.968 Q115.344 890.839 113.515 887.297 Q111.709 883.732 108.075 883.732 M108.075 880.028 Q113.885 880.028 116.941 884.635 Q120.02 889.218 120.02 897.968 Q120.02 906.695 116.941 911.301 Q113.885 915.885 108.075 915.885 Q102.265 915.885 99.1863 911.301 Q96.1308 906.695 96.1308 897.968 Q96.1308 889.218 99.1863 884.635 Q102.265 880.028 108.075 880.028 Z" fill="#000000" fill-rule="nonzero" fill-opacity="1" /><path clip-path="url(#clip150)" d="M55.2514 633.065 L62.8902 633.065 L62.8902 606.7 L54.5801 608.366 L54.5801 604.107 L62.8439 602.441 L67.5198 602.441 L67.5198 633.065 L75.1587 633.065 L75.1587 637.001 L55.2514 637.001 L55.2514 633.065 Z" fill="#000000" fill-rule="nonzero" fill-opacity="1" /><path clip-path="url(#clip150)" d="M84.6031 631.121 L89.4873 631.121 L89.4873 637.001 L84.6031 637.001 L84.6031 631.121 Z" fill="#000000" fill-rule="nonzero" fill-opacity="1" /><path clip-path="url(#clip150)" d="M103.7 633.065 L120.02 633.065 L120.02 637.001 L98.0752 637.001 L98.0752 633.065 Q100.737 630.311 105.321 625.681 Q109.927 621.028 111.108 619.686 Q113.353 617.163 114.233 615.427 Q115.135 613.667 115.135 611.978 Q115.135 609.223 113.191 607.487 Q111.27 605.751 108.168 605.751 Q105.969 605.751 103.515 606.515 Q101.084 607.279 98.3067 608.829 L98.3067 604.107 Q101.131 602.973 103.584 602.394 Q106.038 601.816 108.075 601.816 Q113.445 601.816 116.64 604.501 Q119.834 607.186 119.834 611.677 Q119.834 613.806 119.024 615.728 Q118.237 617.626 116.131 620.218 Q115.552 620.89 112.45 624.107 Q109.348 627.302 103.7 633.065 Z" fill="#000000" fill-rule="nonzero" fill-opacity="1" /><path clip-path="url(#clip150)" d="M53.168 354.853 L60.8069 354.853 L60.8069 328.487 L52.4967 330.154 L52.4967 325.894 L60.7606 324.228 L65.4365 324.228 L65.4365 354.853 L73.0753 354.853 L73.0753 358.788 L53.168 358.788 L53.168 354.853 Z" fill="#000000" fill-rule="nonzero" fill-opacity="1" /><path clip-path="url(#clip150)" d="M82.5197 352.908 L87.404 352.908 L87.404 358.788 L82.5197 358.788 L82.5197 352.908 Z" fill="#000000" fill-rule="nonzero" fill-opacity="1" /><path clip-path="url(#clip150)" d="M110.436 328.302 L98.6308 346.751 L110.436 346.751 L110.436 328.302 M109.209 324.228 L115.089 324.228 L115.089 346.751 L120.02 346.751 L120.02 350.64 L115.089 350.64 L115.089 358.788 L110.436 358.788 L110.436 350.64 L94.8345 350.64 L94.8345 346.126 L109.209 324.228 Z" fill="#000000" fill-rule="nonzero" fill-opacity="1" /><path clip-path="url(#clip150)" d="M53.4921 76.6398 L61.131 76.6398 L61.131 50.2742 L52.8208 51.9409 L52.8208 47.6817 L61.0847 46.015 L65.7606 46.015 L65.7606 76.6398 L73.3994 76.6398 L73.3994 80.575 L53.4921 80.575 L53.4921 76.6398 Z" fill="#000000" fill-rule="nonzero" fill-opacity="1" /><path clip-path="url(#clip150)" d="M82.8438 74.6954 L87.728 74.6954 L87.728 80.575 L82.8438 80.575 L82.8438 74.6954 Z" fill="#000000" fill-rule="nonzero" fill-opacity="1" /><path clip-path="url(#clip150)" d="M108.492 61.4316 Q105.344 61.4316 103.492 63.5843 Q101.663 65.7371 101.663 69.4871 Q101.663 73.2139 103.492 75.3898 Q105.344 77.5426 108.492 77.5426 Q111.64 77.5426 113.469 75.3898 Q115.32 73.2139 115.32 69.4871 Q115.32 65.7371 113.469 63.5843 Q111.64 61.4316 108.492 61.4316 M117.774 46.7789 L117.774 51.0381 Q116.015 50.2048 114.209 49.765 Q112.427 49.3252 110.668 49.3252 Q106.038 49.3252 103.584 52.4501 Q101.154 55.5751 100.807 61.8945 Q102.172 59.8807 104.233 58.8159 Q106.293 57.7279 108.77 57.7279 Q113.978 57.7279 116.987 60.8992 Q120.02 64.0473 120.02 69.4871 Q120.02 74.8111 116.871 78.0287 Q113.723 81.2463 108.492 81.2463 Q102.496 81.2463 99.3252 76.663 Q96.1539 72.0565 96.1539 63.3297 Q96.1539 55.1353 100.043 50.2742 Q103.932 45.39 110.483 45.39 Q112.242 45.39 114.024 45.7372 Q115.83 46.0844 117.774 46.7789 Z" fill="#000000" fill-rule="nonzero" fill-opacity="1" /><polyline clip-path="url(#clip152)" style="stroke:#009af9; stroke-linecap:round; stroke-linejoin:round; stroke-width:4; stroke-opacity:1; fill:none" points="156.02,86.1857 158.218,99.115 160.417,111.916 162.616,124.589 164.815,137.136 167.014,149.558 169.213,161.856 171.412,174.031 173.611,186.086 175.81,198.02 178.009,209.836 180.208,221.533 182.407,233.115 184.606,244.581 186.805,255.932 189.004,267.171 191.202,278.297 193.401,289.313 195.6,300.219 197.799,311.017 199.998,321.707 202.197,332.291 204.396,342.769 206.595,353.142 208.794,363.413 210.993,373.581 213.192,383.648 215.391,393.614 217.59,403.482 219.789,413.251 221.988,422.923 224.187,432.498 226.385,441.978 228.584,451.364 230.783,460.656 232.982,469.856 235.181,478.964 237.38,487.981 239.579,496.909 241.778,505.747 243.977,514.498 246.176,523.161 248.375,531.738 250.574,540.229 252.773,548.636 254.972,556.96 257.171,565.2 259.369,573.358 261.568,581.435 263.767,589.432 265.966,597.349 268.165,605.187 270.364,612.947 272.563,620.629 274.762,628.236 276.961,635.766 279.16,643.222 281.359,650.603 283.558,657.911 285.757,665.146 287.956,672.309 290.155,679.4 292.354,686.421 294.552,693.372 296.751,700.254 298.95,707.067 301.149,713.813 303.348,720.491 305.547,727.103 307.746,733.648 309.945,740.129 312.144,746.545 314.343,752.897 316.542,759.186 318.741,765.412 320.94,771.576 323.139,777.679 325.338,783.721 327.536,789.703 329.735,795.625 331.934,801.488 334.133,807.293 336.332,813.04 338.531,818.729 340.73,824.362 342.929,829.939 345.128,835.461 347.327,840.927 349.526,846.339 351.725,851.698 353.924,857.002 356.123,862.254 358.322,867.454 360.521,872.602 362.719,877.699 364.918,882.745 367.117,887.741 369.316,892.687 371.515,897.584 373.714,902.432 375.913,907.232 378.112,911.984 380.311,916.688 382.51,921.346 384.709,925.957 386.908,930.523 389.107,935.043 391.306,939.517 393.505,943.948 395.703,948.334 397.902,952.676 400.101,956.975 402.3,961.231 404.499,965.445 406.698,969.617 408.897,973.747 411.096,977.836 413.295,981.884 415.494,985.892 417.693,989.86 419.892,993.789 422.091,997.678 424.29,1001.53 426.489,1005.34 428.688,1009.12 430.886,1012.85 433.085,1016.55 435.284,1020.21 437.483,1023.84 439.682,1027.43 441.881,1030.98 444.08,1034.5 446.279,1037.99 448.478,1041.44 450.677,1044.85 452.876,1048.23 455.075,1051.58 457.274,1054.89 459.473,1058.17 461.672,1061.42 463.87,1064.64 466.069,1067.82 468.268,1070.97 470.467,1074.1 472.666,1077.19 474.865,1080.24 477.064,1083.27 479.263,1086.27 481.462,1089.24 483.661,1092.18 485.86,1095.09 488.059,1097.97 490.258,1100.82 492.457,1103.65 494.656,1106.44 496.855,1109.21 499.053,1111.95 501.252,1114.66 503.451,1117.35 505.65,1120.01 507.849,1122.64 510.048,1125.25 512.247,1127.83 514.446,1130.38 516.645,1132.91 518.844,1135.42 521.043,1137.89 523.242,1140.35 525.441,1142.78 527.64,1145.18 529.839,1147.56 532.037,1149.92 534.236,1152.26 536.435,1154.57 538.634,1156.86 540.833,1159.12 543.032,1161.36 545.231,1163.58 547.43,1165.78 549.629,1167.96 551.828,1170.11 554.027,1172.24 556.226,1174.36 558.425,1176.45 560.624,1178.52 562.823,1180.57 565.022,1182.6 567.22,1184.6 569.419,1186.59 571.618,1188.56 573.817,1190.51 576.016,1192.44 578.215,1194.35 580.414,1196.24 582.613,1198.12 584.812,1199.97 587.011,1201.81 589.21,1203.63 591.409,1205.43 593.608,1207.21 595.807,1208.97 598.006,1210.72 600.204,1212.45 602.403,1214.16 604.602,1215.86 606.801,1217.53 609,1219.2 611.199,1220.84 613.398,1222.47 615.597,1224.08 617.796,1225.68 619.995,1227.26 622.194,1228.82 624.393,1230.37 626.592,1231.91 628.791,1233.42 630.99,1234.93 633.188,1236.42 635.387,1237.89 637.586,1239.35 639.785,1240.79 641.984,1242.22 644.183,1243.64 646.382,1245.04 648.581,1246.42 650.78,1247.8 652.979,1249.16 655.178,1250.5 657.377,1251.84 659.576,1253.16 661.775,1254.46 663.974,1255.75 666.173,1257.03 668.371,1258.3 670.57,1259.56 672.769,1260.8 674.968,1262.03 677.167,1263.25 679.366,1264.45 681.565,1265.64 683.764,1266.83 685.963,1268 688.162,1269.15 690.361,1270.3 692.56,1271.43 694.759,1272.56 696.958,1273.67 699.157,1274.77 701.355,1275.86 703.554,1276.94 705.753,1278.01 707.952,1279.07 710.151,1280.12 712.35,1281.15 714.549,1282.18 716.748,1283.2 718.947,1284.2 721.146,1285.2 723.345,1286.19 725.544,1287.17 727.743,1288.13 729.942,1289.09 732.141,1290.04 734.34,1290.98 736.538,1291.91 738.737,1292.83 740.936,1293.74 743.135,1294.64 745.334,1295.54 747.533,1296.42 749.732,1297.3 751.931,1298.16 754.13,1299.02 756.329,1299.87 758.528,1300.71 760.727,1301.55 762.926,1302.37 765.125,1303.19 767.324,1304 769.522,1304.8 771.721,1305.59 773.92,1306.37 776.119,1307.15 778.318,1307.92 780.517,1308.68 782.716,1309.43 784.915,1310.18 787.114,1310.92 789.313,1311.65 791.512,1312.37 793.711,1313.09 795.91,1313.8 798.109,1314.5 800.308,1315.2 802.507,1315.89 804.705,1316.57 806.904,1317.24 809.103,1317.91 811.302,1318.57 813.501,1319.23 815.7,1319.88 817.899,1320.52 820.098,1321.15 822.297,1321.78 824.496,1322.4 826.695,1323.02 828.894,1323.63 831.093,1324.23 833.292,1324.83 835.491,1325.42 837.689,1326.01 839.888,1326.59 842.087,1327.16 844.286,1327.73 846.485,1328.3 848.684,1328.85 850.883,1329.41 853.082,1329.95 855.281,1330.49 857.48,1331.03 859.679,1331.56 861.878,1332.08 864.077,1332.6 866.276,1333.12 868.475,1333.63 870.674,1334.13 872.872,1334.63 875.071,1335.12 877.27,1335.61 879.469,1336.1 881.668,1336.58 883.867,1337.05 886.066,1337.52 888.265,1337.99 890.464,1338.45 892.663,1338.91 894.862,1339.36 897.061,1339.8 899.26,1340.25 901.459,1340.69 903.658,1341.12 905.856,1341.55 908.055,1341.98 910.254,1342.4 912.453,1342.82 914.652,1343.23 916.851,1343.64 919.05,1344.04 921.249,1344.45 923.448,1344.84 925.647,1345.24 927.846,1345.63 930.045,1346.01 932.244,1346.39 934.443,1346.77 936.642,1347.15 938.841,1347.52 941.039,1347.88 943.238,1348.25 945.437,1348.61 947.636,1348.96 949.835,1349.32 952.034,1349.67 954.233,1350.01 956.432,1350.35 958.631,1350.69 960.83,1351.03 963.029,1351.36 965.228,1351.69 967.427,1352.01 969.626,1352.34 971.825,1352.65 974.023,1352.97 976.222,1353.28 978.421,1353.59 980.62,1353.9 982.819,1354.2 985.018,1354.5 987.217,1354.8 989.416,1355.09 991.615,1355.38 993.814,1355.67 996.013,1355.96 998.212,1356.24 1000.41,1356.52 1002.61,1356.8 1004.81,1357.07 1007.01,1357.34 1009.21,1357.61 1011.41,1357.87 1013.6,1358.14 1015.8,1358.4 1018,1358.66 1020.2,1358.91 1022.4,1359.16 1024.6,1359.41 1026.8,1359.66 1029,1359.91 1031.2,1360.15 1033.39,1360.39 1035.59,1360.63 1037.79,1360.86 1039.99,1361.09 1042.19,1361.33 1044.39,1361.55 1046.59,1361.78 1048.79,1362 1050.99,1362.22 1053.19,1362.44 1055.38,1362.66 1057.58,1362.88 1059.78,1363.09 1061.98,1363.3 1064.18,1363.51 1066.38,1363.72 1068.58,1363.92 1070.78,1364.12 1072.98,1364.32 1075.17,1364.52 1077.37,1364.72 1079.57,1364.91 1081.77,1365.1 1083.97,1365.3 1086.17,1365.48 1088.37,1365.67 1090.57,1365.86 1092.77,1366.04 1094.96,1366.22 1097.16,1366.4 1099.36,1366.58 1101.56,1366.76 1103.76,1366.93 1105.96,1367.1 1108.16,1367.28 1110.36,1367.44 1112.56,1367.61 1114.76,1367.78 1116.95,1367.94 1119.15,1368.11 1121.35,1368.27 1123.55,1368.43 1125.75,1368.59 1127.95,1368.74 1130.15,1368.9 1132.35,1369.05 1134.55,1369.21 1136.74,1369.36 1138.94,1369.51 1141.14,1369.65 1143.34,1369.8 1145.54,1369.95 1147.74,1370.09 1149.94,1370.23 1152.14,1370.37 1154.34,1370.51 1156.54,1370.65 1158.73,1370.79 1160.93,1370.92 1163.13,1371.05 1165.33,1371.19 1167.53,1371.32 1169.73,1371.45 1171.93,1371.58 1174.13,1371.7 1176.33,1371.83 1178.52,1371.95 1180.72,1372.08 1182.92,1372.2 1185.12,1372.32 1187.32,1372.44 1189.52,1372.56 1191.72,1372.68 1193.92,1372.79 1196.12,1372.91 1198.31,1373.02 1200.51,1373.13 1202.71,1373.25 1204.91,1373.36 1207.11,1373.46 1209.31,1373.57 1211.51,1373.68 1213.71,1373.79 1215.91,1373.89 1218.11,1373.99 1220.3,1374.1 1222.5,1374.2 1224.7,1374.3 1226.9,1374.4 1229.1,1374.5 1231.3,1374.6 1233.5,1374.69 1235.7,1374.79 1237.9,1374.88 1240.09,1374.98 1242.29,1375.07 1244.49,1375.16 1246.69,1375.25 1248.89,1375.34 1251.09,1375.43 1253.29,1375.52 1255.49,1375.6 1257.69,1375.69 1259.89,1375.78 1262.08,1375.86 1264.28,1375.94 1266.48,1376.03 1268.68,1376.11 1270.88,1376.19 1273.08,1376.27 1275.28,1376.35 1277.48,1376.43 1279.68,1376.51 1281.87,1376.58 1284.07,1376.66 1286.27,1376.74 1288.47,1376.81 1290.67,1376.88 1292.87,1376.96 1295.07,1377.03 1297.27,1377.1 1299.47,1377.17 1301.66,1377.24 1303.86,1377.31 1306.06,1377.38 1308.26,1377.45 1310.46,1377.52 1312.66,1377.59 1314.86,1377.65 1317.06,1377.72 1319.26,1377.78 1321.46,1377.85 1323.65,1377.91 1325.85,1377.98 1328.05,1378.04 1330.25,1378.1 1332.45,1378.16 1334.65,1378.22 1336.85,1378.28 1339.05,1378.34 1341.25,1378.4 1343.44,1378.46 1345.64,1378.52 1347.84,1378.58 1350.04,1378.63 1352.24,1378.69 1354.44,1378.75 1356.64,1378.8 1358.84,1378.86 1361.04,1378.91 1363.24,1378.97 1365.43,1379.02 1367.63,1379.07 1369.83,1379.12 1372.03,1379.18 1374.23,1379.23 1376.43,1379.28 1378.63,1379.33 1380.83,1379.38 1383.03,1379.43 1385.22,1379.48 1387.42,1379.53 1389.62,1379.57 1391.82,1379.62 1394.02,1379.67 1396.22,1379.72 1398.42,1379.76 1400.62,1379.81 1402.82,1379.85 1405.01,1379.9 1407.21,1379.94 1409.41,1379.99 1411.61,1380.03 1413.81,1380.07 1416.01,1380.11 1418.21,1380.16 1420.41,1380.2 1422.61,1380.24 1424.81,1380.28 1427,1380.32 1429.2,1380.36 1431.4,1380.4 1433.6,1380.44 1435.8,1380.48 1438,1380.52 1440.2,1380.56 1442.4,1380.59 1444.6,1380.63 1446.79,1380.67 1448.99,1380.7 1451.19,1380.74 1453.39,1380.78 1455.59,1380.81 1457.79,1380.85 1459.99,1380.88 1462.19,1380.91 1464.39,1380.95 1466.58,1380.98 1468.78,1381.02 1470.98,1381.05 1473.18,1381.08 1475.38,1381.11 1477.58,1381.14 1479.78,1381.18 1481.98,1381.21 1484.18,1381.24 1486.38,1381.27 1488.57,1381.3 1490.77,1381.33 1492.97,1381.36 1495.17,1381.39 1497.37,1381.42 1499.57,1381.44 1501.77,1381.47 1503.97,1381.5 1506.17,1381.53 1508.36,1381.56 1510.56,1381.58 1512.76,1381.61 1514.96,1381.64 1517.16,1381.66 1519.36,1381.69 1521.56,1381.72 1523.76,1381.74 1525.96,1381.77 1528.16,1381.79 1530.35,1381.82 1532.55,1381.84 1534.75,1381.86 1536.95,1381.89 1539.15,1381.91 1541.35,1381.93 1543.55,1381.96 1545.75,1381.98 1547.95,1382 1550.14,1382.03 1552.34,1382.05 1554.54,1382.07 1556.74,1382.09 1558.94,1382.11 1561.14,1382.14 1563.34,1382.16 1565.54,1382.18 1567.74,1382.2 1569.93,1382.22 1572.13,1382.24 1574.33,1382.26 1576.53,1382.28 1578.73,1382.3 1580.93,1382.32 1583.13,1382.34 1585.33,1382.36 1587.53,1382.38 1589.73,1382.39 1591.92,1382.41 1594.12,1382.43 1596.32,1382.45 1598.52,1382.47 1600.72,1382.49 1602.92,1382.5 1605.12,1382.52 1607.32,1382.54 1609.52,1382.56 1611.71,1382.57 1613.91,1382.59 1616.11,1382.61 1618.31,1382.62 1620.51,1382.64 1622.71,1382.66 1624.91,1382.67 1627.11,1382.69 1629.31,1382.71 1631.51,1382.72 1633.7,1382.74 1635.9,1382.75 1638.1,1382.77 1640.3,1382.78 1642.5,1382.8 1644.7,1382.81 1646.9,1382.83 1649.1,1382.84 1651.3,1382.86 1653.49,1382.87 1655.69,1382.89 1657.89,1382.9 1660.09,1382.92 1662.29,1382.93 1664.49,1382.94 1666.69,1382.96 1668.89,1382.97 1671.09,1382.99 1673.28,1383 1675.48,1383.01 1677.68,1383.02 1679.88,1383.04 1682.08,1383.05 1684.28,1383.06 1686.48,1383.08 1688.68,1383.09 1690.88,1383.1 1693.08,1383.11 1695.27,1383.13 1697.47,1383.14 1699.67,1383.15 1701.87,1383.16 1704.07,1383.17 1706.27,1383.18 1708.47,1383.2 1710.67,1383.21 1712.87,1383.22 1715.06,1383.23 1717.26,1383.24 1719.46,1383.25 1721.66,1383.26 1723.86,1383.27 1726.06,1383.28 1728.26,1383.29 1730.46,1383.3 1732.66,1383.31 1734.86,1383.32 1737.05,1383.33 1739.25,1383.34 1741.45,1383.35 1743.65,1383.36 1745.85,1383.37 1748.05,1383.38 1750.25,1383.39 1752.45,1383.4 1754.65,1383.41 1756.84,1383.42 1759.04,1383.43 1761.24,1383.44 1763.44,1383.45 1765.64,1383.46 1767.84,1383.46 1770.04,1383.47 1772.24,1383.48 1774.44,1383.49 1776.63,1383.5 1778.83,1383.51 1781.03,1383.51 1783.23,1383.52 1785.43,1383.53 1787.63,1383.54 1789.83,1383.54 1792.03,1383.55 1794.23,1383.56 1796.43,1383.57 1798.62,1383.57 1800.82,1383.58 1803.02,1383.59 1805.22,1383.6 1807.42,1383.6 1809.62,1383.61 1811.82,1383.62 1814.02,1383.62 1816.22,1383.63 1818.41,1383.64 1820.61,1383.64 1822.81,1383.65 1825.01,1383.66 1827.21,1383.66 1829.41,1383.67 1831.61,1383.67 1833.81,1383.68 1836.01,1383.69 1838.21,1383.69 1840.4,1383.7 1842.6,1383.7 1844.8,1383.71 1847,1383.72 1849.2,1383.72 1851.4,1383.73 1853.6,1383.73 1855.8,1383.74 1858,1383.74 1860.19,1383.75 1862.39,1383.75 1864.59,1383.76 1866.79,1383.76 1868.99,1383.77 1871.19,1383.77 1873.39,1383.78 1875.59,1383.78 1877.79,1383.79 1879.98,1383.79 1882.18,1383.8 1884.38,1383.8 1886.58,1383.81 1888.78,1383.81 1890.98,1383.82 1893.18,1383.82 1895.38,1383.83 1897.58,1383.83 1899.78,1383.83 1901.97,1383.84 1904.17,1383.84 1906.37,1383.85 1908.57,1383.85 1910.77,1383.86 1912.97,1383.86 1915.17,1383.86 1917.37,1383.87 1919.57,1383.87 1921.76,1383.88 1923.96,1383.88 1926.16,1383.88 1928.36,1383.89 1930.56,1383.89 1932.76,1383.9 1934.96,1383.9 1937.16,1383.9 1939.36,1383.91 1941.56,1383.91 1943.75,1383.91 1945.95,1383.92 1948.15,1383.92 1950.35,1383.93 1952.55,1383.93 1954.75,1383.93 1956.95,1383.94 1959.15,1383.94 1961.35,1383.94 1963.54,1383.95 1965.74,1383.95 1967.94,1383.95 1970.14,1383.96 1972.34,1383.96 1974.54,1383.96 1976.74,1383.97 1978.94,1383.97 1981.14,1383.97 1983.33,1383.98 1985.53,1383.98 1987.73,1383.98 1989.93,1383.99 1992.13,1383.99 1994.33,1383.99 1996.53,1384 1998.73,1384 2000.93,1384 2003.13,1384.01 2005.32,1384.01 2007.52,1384.01 2009.72,1384.01 2011.92,1384.02 2014.12,1384.02 2016.32,1384.02 2018.52,1384.03 2020.72,1384.03 2022.92,1384.03 2025.11,1384.04 2027.31,1384.04 2029.51,1384.04 2031.71,1384.04 2033.91,1384.05 2036.11,1384.05 2038.31,1384.05 2040.51,1384.05 2042.71,1384.06 2044.9,1384.06 2047.1,1384.06 2049.3,1384.06 2051.5,1384.07 2053.7,1384.07 2055.9,1384.07 2058.1,1384.07 2060.3,1384.08 2062.5,1384.08 2064.7,1384.08 2066.89,1384.08 2069.09,1384.09 2071.29,1384.09 2073.49,1384.09 2075.69,1384.09 2077.89,1384.1 2080.09,1384.1 2082.29,1384.1 2084.49,1384.1 2086.68,1384.1 2088.88,1384.11 2091.08,1384.11 2093.28,1384.11 2095.48,1384.11 2097.68,1384.11 2099.88,1384.12 2102.08,1384.12 2104.28,1384.12 2106.48,1384.12 2108.67,1384.12 2110.87,1384.13 2113.07,1384.13 2115.27,1384.13 2117.47,1384.13 2119.67,1384.13 2121.87,1384.13 2124.07,1384.14 2126.27,1384.14 2128.46,1384.14 2130.66,1384.14 2132.86,1384.14 2135.06,1384.14 2137.26,1384.15 2139.46,1384.15 2141.66,1384.15 2143.86,1384.15 2146.06,1384.15 2148.25,1384.15 2150.45,1384.16 2152.65,1384.16 2154.85,1384.16 2157.05,1384.16 2159.25,1384.16 2161.45,1384.16 2163.65,1384.16 2165.85,1384.17 2168.05,1384.17 2170.24,1384.17 2172.44,1384.17 2174.64,1384.17 2176.84,1384.17 2179.04,1384.17 2181.24,1384.17 2183.44,1384.18 2185.64,1384.18 2187.84,1384.18 2190.03,1384.18 2192.23,1384.18 2194.43,1384.18 2196.63,1384.18 2198.83,1384.18 2201.03,1384.19 2203.23,1384.19 2205.43,1384.19 2207.63,1384.19 2209.83,1384.19 2212.02,1384.19 2214.22,1384.19 2216.42,1384.19 2218.62,1384.19 2220.82,1384.19 2223.02,1384.2 2225.22,1384.2 2227.42,1384.2 2229.62,1384.2 2231.81,1384.2 2234.01,1384.2 2236.21,1384.2 2238.41,1384.2 2240.61,1384.2 2242.81,1384.2 2245.01,1384.2 2247.21,1384.21 2249.41,1384.21 2251.6,1384.21 2253.8,1384.21 2256,1384.21 2258.2,1384.21 2260.4,1384.21 2262.6,1384.21 2264.8,1384.21 2267,1384.21 2269.2,1384.21 2271.4,1384.21 2273.59,1384.21 2275.79,1384.22 2277.99,1384.22 2280.19,1384.22 2282.39,1384.22 2284.59,1384.22 2286.79,1384.22 2288.99,1384.22 2291.19,1384.22 2293.38,1384.22 2295.58,1384.22 2297.78,1384.22 2299.98,1384.22 2302.18,1384.22 2304.38,1384.22 2306.58,1384.22 2308.78,1384.23 2310.98,1384.23 2313.18,1384.23 2315.37,1384.23 2317.57,1384.23 2319.77,1384.23 2321.97,1384.23 2324.17,1384.23 2326.37,1384.23 2328.57,1384.23 2330.77,1384.23 2332.97,1384.23 2335.16,1384.23 2337.36,1384.23 2339.56,1384.23 2341.76,1384.24 2343.96,1384.24 2346.16,1384.24 2348.36,1384.24 2350.56,1384.24 2352.76,1384.24 "/>
<polyline clip-path="url(#clip152)" style="stroke:#e26f46; stroke-linecap:round; stroke-linejoin:round; stroke-width:4; stroke-opacity:1; fill:none" points="156.02,766.709 158.218,770.476 160.417,774.22 162.616,777.94 164.815,781.638 167.014,785.313 169.213,788.965 171.412,792.594 173.611,796.202 175.81,799.787 178.009,803.35 180.208,806.891 182.407,810.41 184.606,813.907 186.805,817.383 189.004,820.838 191.202,824.271 193.401,827.683 195.6,831.074 197.799,834.444 199.998,837.793 202.197,841.122 204.396,844.431 206.595,847.718 208.794,850.986 210.993,854.234 213.192,857.461 215.391,860.669 217.59,863.857 219.789,867.025 221.988,870.174 224.187,873.304 226.385,876.414 228.584,879.505 230.783,882.577 232.982,885.631 235.181,888.665 237.38,891.681 239.579,894.678 241.778,897.657 243.977,900.618 246.176,903.56 248.375,906.484 250.574,909.391 252.773,912.279 254.972,915.15 257.171,918.003 259.369,920.839 261.568,923.657 263.767,926.458 265.966,929.241 268.165,932.008 270.364,934.758 272.563,937.49 274.762,940.206 276.961,942.906 279.16,945.588 281.359,948.255 283.558,950.905 285.757,953.538 287.956,956.156 290.155,958.757 292.354,961.343 294.552,963.912 296.751,966.466 298.95,969.004 301.149,971.527 303.348,974.034 305.547,976.526 307.746,979.003 309.945,981.464 312.144,983.911 314.343,986.342 316.542,988.758 318.741,991.16 320.94,993.547 323.139,995.919 325.338,998.277 327.536,1000.62 329.735,1002.95 331.934,1005.26 334.133,1007.56 336.332,1009.85 338.531,1012.12 340.73,1014.38 342.929,1016.63 345.128,1018.86 347.327,1021.08 349.526,1023.28 351.725,1025.47 353.924,1027.65 356.123,1029.81 358.322,1031.96 360.521,1034.1 362.719,1036.22 364.918,1038.33 367.117,1040.43 369.316,1042.52 371.515,1044.59 373.714,1046.65 375.913,1048.7 378.112,1050.73 380.311,1052.75 382.51,1054.76 384.709,1056.76 386.908,1058.75 389.107,1060.72 391.306,1062.68 393.505,1064.63 395.703,1066.57 397.902,1068.49 400.101,1070.41 402.3,1072.31 404.499,1074.2 406.698,1076.08 408.897,1077.95 411.096,1079.8 413.295,1081.65 415.494,1083.48 417.693,1085.31 419.892,1087.12 422.091,1088.92 424.29,1090.71 426.489,1092.48 428.688,1094.25 430.886,1096.01 433.085,1097.75 435.284,1099.49 437.483,1101.21 439.682,1102.93 441.881,1104.63 444.08,1106.33 446.279,1108.01 448.478,1109.68 450.677,1111.34 452.876,1113 455.075,1114.64 457.274,1116.27 459.473,1117.89 461.672,1119.51 463.87,1121.11 466.069,1122.7 468.268,1124.29 470.467,1125.86 472.666,1127.42 474.865,1128.98 477.064,1130.52 479.263,1132.06 481.462,1133.58 483.661,1135.1 485.86,1136.61 488.059,1138.11 490.258,1139.6 492.457,1141.08 494.656,1142.55 496.855,1144.01 499.053,1145.46 501.252,1146.91 503.451,1148.34 505.65,1149.77 507.849,1151.19 510.048,1152.6 512.247,1154 514.446,1155.39 516.645,1156.78 518.844,1158.15 521.043,1159.52 523.242,1160.88 525.441,1162.23 527.64,1163.57 529.839,1164.91 532.037,1166.23 534.236,1167.55 536.435,1168.86 538.634,1170.16 540.833,1171.46 543.032,1172.75 545.231,1174.02 547.43,1175.29 549.629,1176.56 551.828,1177.81 554.027,1179.06 556.226,1180.3 558.425,1181.53 560.624,1182.76 562.823,1183.98 565.022,1185.19 567.22,1186.39 569.419,1187.59 571.618,1188.77 573.817,1189.96 576.016,1191.13 578.215,1192.3 580.414,1193.46 582.613,1194.61 584.812,1195.75 587.011,1196.89 589.21,1198.02 591.409,1199.15 593.608,1200.27 595.807,1201.38 598.006,1202.48 600.204,1203.58 602.403,1204.67 604.602,1205.76 606.801,1206.84 609,1207.91 611.199,1208.97 613.398,1210.03 615.597,1211.08 617.796,1212.13 619.995,1213.17 622.194,1214.2 624.393,1215.23 626.592,1216.25 628.791,1217.26 630.99,1218.27 633.188,1219.27 635.387,1220.27 637.586,1221.26 639.785,1222.24 641.984,1223.22 644.183,1224.19 646.382,1225.16 648.581,1226.12 650.78,1227.08 652.979,1228.02 655.178,1228.97 657.377,1229.9 659.576,1230.84 661.775,1231.76 663.974,1232.68 666.173,1233.6 668.371,1234.51 670.57,1235.41 672.769,1236.31 674.968,1237.2 677.167,1238.09 679.366,1238.97 681.565,1239.85 683.764,1240.72 685.963,1241.58 688.162,1242.44 690.361,1243.3 692.56,1244.15 694.759,1244.99 696.958,1245.83 699.157,1246.67 701.355,1247.5 703.554,1248.32 705.753,1249.14 707.952,1249.96 710.151,1250.77 712.35,1251.57 714.549,1252.37 716.748,1253.17 718.947,1253.96 721.146,1254.75 723.345,1255.53 725.544,1256.3 727.743,1257.08 729.942,1257.84 732.141,1258.6 734.34,1259.36 736.538,1260.12 738.737,1260.86 740.936,1261.61 743.135,1262.35 745.334,1263.08 747.533,1263.81 749.732,1264.54 751.931,1265.26 754.13,1265.98 756.329,1266.69 758.528,1267.4 760.727,1268.1 762.926,1268.81 765.125,1269.5 767.324,1270.19 769.522,1270.88 771.721,1271.56 773.92,1272.24 776.119,1272.92 778.318,1273.59 780.517,1274.26 782.716,1274.92 784.915,1275.58 787.114,1276.23 789.313,1276.88 791.512,1277.53 793.711,1278.17 795.91,1278.81 798.109,1279.45 800.308,1280.08 802.507,1280.71 804.705,1281.33 806.904,1281.95 809.103,1282.57 811.302,1283.18 813.501,1283.79 815.7,1284.4 817.899,1285 820.098,1285.6 822.297,1286.19 824.496,1286.78 826.695,1287.37 828.894,1287.95 831.093,1288.53 833.292,1289.11 835.491,1289.68 837.689,1290.25 839.888,1290.82 842.087,1291.38 844.286,1291.94 846.485,1292.5 848.684,1293.05 850.883,1293.6 853.082,1294.14 855.281,1294.69 857.48,1295.23 859.679,1295.76 861.878,1296.3 864.077,1296.82 866.276,1297.35 868.475,1297.87 870.674,1298.39 872.872,1298.91 875.071,1299.43 877.27,1299.94 879.469,1300.44 881.668,1300.95 883.867,1301.45 886.066,1301.95 888.265,1302.44 890.464,1302.94 892.663,1303.43 894.862,1303.91 897.061,1304.4 899.26,1304.88 901.459,1305.36 903.658,1305.83 905.856,1306.3 908.055,1306.77 910.254,1307.24 912.453,1307.7 914.652,1308.16 916.851,1308.62 919.05,1309.08 921.249,1309.53 923.448,1309.98 925.647,1310.43 927.846,1310.87 930.045,1311.31 932.244,1311.75 934.443,1312.19 936.642,1312.62 938.841,1313.05 941.039,1313.48 943.238,1313.91 945.437,1314.33 947.636,1314.75 949.835,1315.17 952.034,1315.59 954.233,1316 956.432,1316.41 958.631,1316.82 960.83,1317.23 963.029,1317.63 965.228,1318.03 967.427,1318.43 969.626,1318.83 971.825,1319.22 974.023,1319.61 976.222,1320 978.421,1320.39 980.62,1320.77 982.819,1321.15 985.018,1321.53 987.217,1321.91 989.416,1322.29 991.615,1322.66 993.814,1323.03 996.013,1323.4 998.212,1323.76 1000.41,1324.13 1002.61,1324.49 1004.81,1324.85 1007.01,1325.21 1009.21,1325.56 1011.41,1325.91 1013.6,1326.27 1015.8,1326.61 1018,1326.96 1020.2,1327.31 1022.4,1327.65 1024.6,1327.99 1026.8,1328.33 1029,1328.66 1031.2,1329 1033.39,1329.33 1035.59,1329.66 1037.79,1329.99 1039.99,1330.32 1042.19,1330.64 1044.39,1330.96 1046.59,1331.28 1048.79,1331.6 1050.99,1331.92 1053.19,1332.23 1055.38,1332.55 1057.58,1332.86 1059.78,1333.17 1061.98,1333.47 1064.18,1333.78 1066.38,1334.08 1068.58,1334.38 1070.78,1334.68 1072.98,1334.98 1075.17,1335.28 1077.37,1335.57 1079.57,1335.87 1081.77,1336.16 1083.97,1336.45 1086.17,1336.73 1088.37,1337.02 1090.57,1337.3 1092.77,1337.59 1094.96,1337.87 1097.16,1338.15 1099.36,1338.42 1101.56,1338.7 1103.76,1338.97 1105.96,1339.25 1108.16,1339.52 1110.36,1339.79 1112.56,1340.05 1114.76,1340.32 1116.95,1340.58 1119.15,1340.85 1121.35,1341.11 1123.55,1341.37 1125.75,1341.62 1127.95,1341.88 1130.15,1342.14 1132.35,1342.39 1134.55,1342.64 1136.74,1342.89 1138.94,1343.14 1141.14,1343.39 1143.34,1343.63 1145.54,1343.88 1147.74,1344.12 1149.94,1344.36 1152.14,1344.6 1154.34,1344.84 1156.54,1345.08 1158.73,1345.31 1160.93,1345.55 1163.13,1345.78 1165.33,1346.01 1167.53,1346.24 1169.73,1346.47 1171.93,1346.7 1174.13,1346.92 1176.33,1347.15 1178.52,1347.37 1180.72,1347.59 1182.92,1347.81 1185.12,1348.03 1187.32,1348.25 1189.52,1348.47 1191.72,1348.68 1193.92,1348.9 1196.12,1349.11 1198.31,1349.32 1200.51,1349.53 1202.71,1349.74 1204.91,1349.95 1207.11,1350.15 1209.31,1350.36 1211.51,1350.56 1213.71,1350.76 1215.91,1350.97 1218.11,1351.17 1220.3,1351.37 1222.5,1351.56 1224.7,1351.76 1226.9,1351.96 1229.1,1352.15 1231.3,1352.34 1233.5,1352.53 1235.7,1352.72 1237.9,1352.91 1240.09,1353.1 1242.29,1353.29 1244.49,1353.48 1246.69,1353.66 1248.89,1353.85 1251.09,1354.03 1253.29,1354.21 1255.49,1354.39 1257.69,1354.57 1259.89,1354.75 1262.08,1354.93 1264.28,1355.1 1266.48,1355.28 1268.68,1355.45 1270.88,1355.62 1273.08,1355.8 1275.28,1355.97 1277.48,1356.14 1279.68,1356.31 1281.87,1356.47 1284.07,1356.64 1286.27,1356.81 1288.47,1356.97 1290.67,1357.14 1292.87,1357.3 1295.07,1357.46 1297.27,1357.62 1299.47,1357.78 1301.66,1357.94 1303.86,1358.1 1306.06,1358.26 1308.26,1358.41 1310.46,1358.57 1312.66,1358.72 1314.86,1358.88 1317.06,1359.03 1319.26,1359.18 1321.46,1359.33 1323.65,1359.48 1325.85,1359.63 1328.05,1359.78 1330.25,1359.93 1332.45,1360.07 1334.65,1360.22 1336.85,1360.36 1339.05,1360.51 1341.25,1360.65 1343.44,1360.79 1345.64,1360.93 1347.84,1361.07 1350.04,1361.21 1352.24,1361.35 1354.44,1361.49 1356.64,1361.62 1358.84,1361.76 1361.04,1361.9 1363.24,1362.03 1365.43,1362.16 1367.63,1362.3 1369.83,1362.43 1372.03,1362.56 1374.23,1362.69 1376.43,1362.82 1378.63,1362.95 1380.83,1363.08 1383.03,1363.21 1385.22,1363.33 1387.42,1363.46 1389.62,1363.58 1391.82,1363.71 1394.02,1363.83 1396.22,1363.95 1398.42,1364.08 1400.62,1364.2 1402.82,1364.32 1405.01,1364.44 1407.21,1364.56 1409.41,1364.68 1411.61,1364.79 1413.81,1364.91 1416.01,1365.03 1418.21,1365.14 1420.41,1365.26 1422.61,1365.37 1424.81,1365.49 1427,1365.6 1429.2,1365.71 1431.4,1365.82 1433.6,1365.93 1435.8,1366.04 1438,1366.15 1440.2,1366.26 1442.4,1366.37 1444.6,1366.48 1446.79,1366.59 1448.99,1366.69 1451.19,1366.8 1453.39,1366.9 1455.59,1367.01 1457.79,1367.11 1459.99,1367.21 1462.19,1367.32 1464.39,1367.42 1466.58,1367.52 1468.78,1367.62 1470.98,1367.72 1473.18,1367.82 1475.38,1367.92 1477.58,1368.02 1479.78,1368.11 1481.98,1368.21 1484.18,1368.31 1486.38,1368.4 1488.57,1368.5 1490.77,1368.59 1492.97,1368.69 1495.17,1368.78 1497.37,1368.88 1499.57,1368.97 1501.77,1369.06 1503.97,1369.15 1506.17,1369.24 1508.36,1369.33 1510.56,1369.42 1512.76,1369.51 1514.96,1369.6 1517.16,1369.69 1519.36,1369.78 1521.56,1369.86 1523.76,1369.95 1525.96,1370.04 1528.16,1370.12 1530.35,1370.21 1532.55,1370.29 1534.75,1370.37 1536.95,1370.46 1539.15,1370.54 1541.35,1370.62 1543.55,1370.7 1545.75,1370.79 1547.95,1370.87 1550.14,1370.95 1552.34,1371.03 1554.54,1371.11 1556.74,1371.19 1558.94,1371.26 1561.14,1371.34 1563.34,1371.42 1565.54,1371.5 1567.74,1371.57 1569.93,1371.65 1572.13,1371.73 1574.33,1371.8 1576.53,1371.88 1578.73,1371.95 1580.93,1372.03 1583.13,1372.1 1585.33,1372.17 1587.53,1372.24 1589.73,1372.32 1591.92,1372.39 1594.12,1372.46 1596.32,1372.53 1598.52,1372.6 1600.72,1372.67 1602.92,1372.74 1605.12,1372.81 1607.32,1372.88 1609.52,1372.95 1611.71,1373.02 1613.91,1373.08 1616.11,1373.15 1618.31,1373.22 1620.51,1373.28 1622.71,1373.35 1624.91,1373.42 1627.11,1373.48 1629.31,1373.55 1631.51,1373.61 1633.7,1373.67 1635.9,1373.74 1638.1,1373.8 1640.3,1373.86 1642.5,1373.93 1644.7,1373.99 1646.9,1374.05 1649.1,1374.11 1651.3,1374.17 1653.49,1374.23 1655.69,1374.3 1657.89,1374.36 1660.09,1374.42 1662.29,1374.47 1664.49,1374.53 1666.69,1374.59 1668.89,1374.65 1671.09,1374.71 1673.28,1374.77 1675.48,1374.82 1677.68,1374.88 1679.88,1374.94 1682.08,1374.99 1684.28,1375.05 1686.48,1375.1 1688.68,1375.16 1690.88,1375.21 1693.08,1375.27 1695.27,1375.32 1697.47,1375.38 1699.67,1375.43 1701.87,1375.48 1704.07,1375.54 1706.27,1375.59 1708.47,1375.64 1710.67,1375.69 1712.87,1375.75 1715.06,1375.8 1717.26,1375.85 1719.46,1375.9 1721.66,1375.95 1723.86,1376 1726.06,1376.05 1728.26,1376.1 1730.46,1376.15 1732.66,1376.2 1734.86,1376.25 1737.05,1376.29 1739.25,1376.34 1741.45,1376.39 1743.65,1376.44 1745.85,1376.48 1748.05,1376.53 1750.25,1376.58 1752.45,1376.62 1754.65,1376.67 1756.84,1376.72 1759.04,1376.76 1761.24,1376.81 1763.44,1376.85 1765.64,1376.9 1767.84,1376.94 1770.04,1376.99 1772.24,1377.03 1774.44,1377.07 1776.63,1377.12 1778.83,1377.16 1781.03,1377.2 1783.23,1377.25 1785.43,1377.29 1787.63,1377.33 1789.83,1377.37 1792.03,1377.41 1794.23,1377.45 1796.43,1377.5 1798.62,1377.54 1800.82,1377.58 1803.02,1377.62 1805.22,1377.66 1807.42,1377.7 1809.62,1377.74 1811.82,1377.78 1814.02,1377.81 1816.22,1377.85 1818.41,1377.89 1820.61,1377.93 1822.81,1377.97 1825.01,1378.01 1827.21,1378.04 1829.41,1378.08 1831.61,1378.12 1833.81,1378.16 1836.01,1378.19 1838.21,1378.23 1840.4,1378.27 1842.6,1378.3 1844.8,1378.34 1847,1378.37 1849.2,1378.41 1851.4,1378.44 1853.6,1378.48 1855.8,1378.51 1858,1378.55 1860.19,1378.58 1862.39,1378.62 1864.59,1378.65 1866.79,1378.68 1868.99,1378.72 1871.19,1378.75 1873.39,1378.78 1875.59,1378.82 1877.79,1378.85 1879.98,1378.88 1882.18,1378.92 1884.38,1378.95 1886.58,1378.98 1888.78,1379.01 1890.98,1379.04 1893.18,1379.07 1895.38,1379.11 1897.58,1379.14 1899.78,1379.17 1901.97,1379.2 1904.17,1379.23 1906.37,1379.26 1908.57,1379.29 1910.77,1379.32 1912.97,1379.35 1915.17,1379.38 1917.37,1379.41 1919.57,1379.44 1921.76,1379.47 1923.96,1379.5 1926.16,1379.52 1928.36,1379.55 1930.56,1379.58 1932.76,1379.61 1934.96,1379.64 1937.16,1379.67 1939.36,1379.69 1941.56,1379.72 1943.75,1379.75 1945.95,1379.78 1948.15,1379.8 1950.35,1379.83 1952.55,1379.86 1954.75,1379.88 1956.95,1379.91 1959.15,1379.94 1961.35,1379.96 1963.54,1379.99 1965.74,1380.01 1967.94,1380.04 1970.14,1380.06 1972.34,1380.09 1974.54,1380.12 1976.74,1380.14 1978.94,1380.17 1981.14,1380.19 1983.33,1380.21 1985.53,1380.24 1987.73,1380.26 1989.93,1380.29 1992.13,1380.31 1994.33,1380.34 1996.53,1380.36 1998.73,1380.38 2000.93,1380.41 2003.13,1380.43 2005.32,1380.45 2007.52,1380.48 2009.72,1380.5 2011.92,1380.52 2014.12,1380.55 2016.32,1380.57 2018.52,1380.59 2020.72,1380.61 2022.92,1380.63 2025.11,1380.66 2027.31,1380.68 2029.51,1380.7 2031.71,1380.72 2033.91,1380.74 2036.11,1380.76 2038.31,1380.79 2040.51,1380.81 2042.71,1380.83 2044.9,1380.85 2047.1,1380.87 2049.3,1380.89 2051.5,1380.91 2053.7,1380.93 2055.9,1380.95 2058.1,1380.97 2060.3,1380.99 2062.5,1381.01 2064.7,1381.03 2066.89,1381.05 2069.09,1381.07 2071.29,1381.09 2073.49,1381.11 2075.69,1381.13 2077.89,1381.15 2080.09,1381.17 2082.29,1381.19 2084.49,1381.2 2086.68,1381.22 2088.88,1381.24 2091.08,1381.26 2093.28,1381.28 2095.48,1381.3 2097.68,1381.31 2099.88,1381.33 2102.08,1381.35 2104.28,1381.37 2106.48,1381.39 2108.67,1381.4 2110.87,1381.42 2113.07,1381.44 2115.27,1381.46 2117.47,1381.47 2119.67,1381.49 2121.87,1381.51 2124.07,1381.52 2126.27,1381.54 2128.46,1381.56 2130.66,1381.57 2132.86,1381.59 2135.06,1381.61 2137.26,1381.62 2139.46,1381.64 2141.66,1381.65 2143.86,1381.67 2146.06,1381.69 2148.25,1381.7 2150.45,1381.72 2152.65,1381.73 2154.85,1381.75 2157.05,1381.76 2159.25,1381.78 2161.45,1381.79 2163.65,1381.81 2165.85,1381.82 2168.05,1381.84 2170.24,1381.85 2172.44,1381.87 2174.64,1381.88 2176.84,1381.9 2179.04,1381.91 2181.24,1381.92 2183.44,1381.94 2185.64,1381.95 2187.84,1381.97 2190.03,1381.98 2192.23,1382 2194.43,1382.01 2196.63,1382.02 2198.83,1382.04 2201.03,1382.05 2203.23,1382.06 2205.43,1382.08 2207.63,1382.09 2209.83,1382.1 2212.02,1382.12 2214.22,1382.13 2216.42,1382.14 2218.62,1382.16 2220.82,1382.17 2223.02,1382.18 2225.22,1382.19 2227.42,1382.21 2229.62,1382.22 2231.81,1382.23 2234.01,1382.24 2236.21,1382.26 2238.41,1382.27 2240.61,1382.28 2242.81,1382.29 2245.01,1382.3 2247.21,1382.32 2249.41,1382.33 2251.6,1382.34 2253.8,1382.35 2256,1382.36 2258.2,1382.37 2260.4,1382.39 2262.6,1382.4 2264.8,1382.41 2267,1382.42 2269.2,1382.43 2271.4,1382.44 2273.59,1382.45 2275.79,1382.46 2277.99,1382.47 2280.19,1382.49 2282.39,1382.5 2284.59,1382.51 2286.79,1382.52 2288.99,1382.53 2291.19,1382.54 2293.38,1382.55 2295.58,1382.56 2297.78,1382.57 2299.98,1382.58 2302.18,1382.59 2304.38,1382.6 2306.58,1382.61 2308.78,1382.62 2310.98,1382.63 2313.18,1382.64 2315.37,1382.65 2317.57,1382.66 2319.77,1382.67 2321.97,1382.68 2324.17,1382.69 2326.37,1382.7 2328.57,1382.71 2330.77,1382.72 2332.97,1382.73 2335.16,1382.74 2337.36,1382.75 2339.56,1382.76 2341.76,1382.77 2343.96,1382.78 2346.16,1382.78 2348.36,1382.79 2350.56,1382.8 2352.76,1382.81 "/>
<path clip-path="url(#clip150)" d="M1800.46 248.629 L2279.53 248.629 L2279.53 93.1086 L1800.46 93.1086  Z" fill="#ffffff" fill-rule="evenodd" fill-opacity="1"/>
<polyline clip-path="url(#clip150)" style="stroke:#000000; stroke-linecap:round; stroke-linejoin:round; stroke-width:4; stroke-opacity:1; fill:none" points="1800.46,248.629 2279.53,248.629 2279.53,93.1086 1800.46,93.1086 1800.46,248.629 "/>
<polyline clip-path="url(#clip150)" style="stroke:#009af9; stroke-linecap:round; stroke-linejoin:round; stroke-width:4; stroke-opacity:1; fill:none" points="1824.87,144.949 1971.32,144.949 "/>
<path clip-path="url(#clip150)" d="M1995.73 136.303 L2000.24 136.303 L2008.34 158.062 L2016.44 136.303 L2020.96 136.303 L2011.24 162.229 L2005.45 162.229 L1995.73 136.303 Z" fill="#000000" fill-rule="nonzero" fill-opacity="1" /><path clip-path="url(#clip150)" d="M2028.25 158.293 L2035.89 158.293 L2035.89 131.928 L2027.58 133.595 L2027.58 129.335 L2035.84 127.669 L2040.52 127.669 L2040.52 158.293 L2048.16 158.293 L2048.16 162.229 L2028.25 162.229 L2028.25 158.293 Z" fill="#000000" fill-rule="nonzero" fill-opacity="1" /><path clip-path="url(#clip150)" d="M2066.26 145.585 L2066.26 152.807 L2074.38 152.807 L2074.38 155.006 L2066.26 155.006 L2066.26 162.229 L2063.83 162.229 L2063.83 155.006 L2055.7 155.006 L2055.7 152.807 L2063.83 152.807 L2063.83 145.585 L2066.26 145.585 Z" fill="#000000" fill-rule="nonzero" fill-opacity="1" /><path clip-path="url(#clip150)" d="M2098.55 137.067 L2098.55 141.094 Q2096.74 140.169 2094.8 139.706 Q2092.86 139.243 2090.77 139.243 Q2087.6 139.243 2086 140.215 Q2084.43 141.187 2084.43 143.131 Q2084.43 144.613 2085.56 145.469 Q2086.7 146.303 2090.12 147.067 L2091.58 147.391 Q2096.12 148.363 2098.02 150.145 Q2099.94 151.905 2099.94 155.076 Q2099.94 158.687 2097.07 160.793 Q2094.22 162.9 2089.22 162.9 Q2087.14 162.9 2084.87 162.483 Q2082.62 162.09 2080.12 161.28 L2080.12 156.881 Q2082.49 158.108 2084.78 158.733 Q2087.07 159.335 2089.31 159.335 Q2092.32 159.335 2093.94 158.317 Q2095.56 157.275 2095.56 155.4 Q2095.56 153.664 2094.38 152.738 Q2093.23 151.812 2089.27 150.956 L2087.79 150.608 Q2083.83 149.775 2082.07 148.062 Q2080.31 146.326 2080.31 143.317 Q2080.31 139.659 2082.9 137.669 Q2085.49 135.678 2090.26 135.678 Q2092.62 135.678 2094.71 136.025 Q2096.79 136.372 2098.55 137.067 Z" fill="#000000" fill-rule="nonzero" fill-opacity="1" /><path clip-path="url(#clip150)" d="M2110.93 128.942 L2110.93 136.303 L2119.71 136.303 L2119.71 139.613 L2110.93 139.613 L2110.93 153.687 Q2110.93 156.858 2111.79 157.761 Q2112.67 158.664 2115.33 158.664 L2119.71 158.664 L2119.71 162.229 L2115.33 162.229 Q2110.4 162.229 2108.53 160.4 Q2106.65 158.548 2106.65 153.687 L2106.65 139.613 L2103.53 139.613 L2103.53 136.303 L2106.65 136.303 L2106.65 128.942 L2110.93 128.942 Z" fill="#000000" fill-rule="nonzero" fill-opacity="1" /><path clip-path="url(#clip150)" d="M2135.36 139.289 Q2131.93 139.289 2129.94 141.974 Q2127.95 144.636 2127.95 149.289 Q2127.95 153.942 2129.92 156.627 Q2131.91 159.289 2135.36 159.289 Q2138.76 159.289 2140.75 156.604 Q2142.74 153.918 2142.74 149.289 Q2142.74 144.682 2140.75 141.997 Q2138.76 139.289 2135.36 139.289 M2135.36 135.678 Q2140.91 135.678 2144.08 139.289 Q2147.25 142.9 2147.25 149.289 Q2147.25 155.655 2144.08 159.289 Q2140.91 162.9 2135.36 162.9 Q2129.78 162.9 2126.61 159.289 Q2123.46 155.655 2123.46 149.289 Q2123.46 142.9 2126.61 139.289 Q2129.78 135.678 2135.36 135.678 Z" fill="#000000" fill-rule="nonzero" fill-opacity="1" /><path clip-path="url(#clip150)" d="M2169.34 140.284 Q2168.62 139.868 2167.76 139.682 Q2166.93 139.474 2165.91 139.474 Q2162.3 139.474 2160.36 141.835 Q2158.43 144.173 2158.43 148.571 L2158.43 162.229 L2154.15 162.229 L2154.15 136.303 L2158.43 136.303 L2158.43 140.331 Q2159.78 137.969 2161.93 136.835 Q2164.08 135.678 2167.16 135.678 Q2167.6 135.678 2168.13 135.747 Q2168.67 135.794 2169.31 135.909 L2169.34 140.284 Z" fill="#000000" fill-rule="nonzero" fill-opacity="1" /><path clip-path="url(#clip150)" d="M2185.59 149.196 Q2180.42 149.196 2178.43 150.377 Q2176.44 151.557 2176.44 154.405 Q2176.44 156.673 2177.92 158.016 Q2179.43 159.335 2182 159.335 Q2185.54 159.335 2187.67 156.835 Q2189.82 154.312 2189.82 150.145 L2189.82 149.196 L2185.59 149.196 M2194.08 147.437 L2194.08 162.229 L2189.82 162.229 L2189.82 158.293 Q2188.36 160.655 2186.19 161.789 Q2184.01 162.9 2180.86 162.9 Q2176.88 162.9 2174.52 160.678 Q2172.18 158.432 2172.18 154.682 Q2172.18 150.307 2175.1 148.085 Q2178.04 145.863 2183.85 145.863 L2189.82 145.863 L2189.82 145.446 Q2189.82 142.507 2187.88 140.909 Q2185.96 139.289 2182.46 139.289 Q2180.24 139.289 2178.13 139.821 Q2176.03 140.354 2174.08 141.419 L2174.08 137.483 Q2176.42 136.581 2178.62 136.141 Q2180.82 135.678 2182.9 135.678 Q2188.53 135.678 2191.3 138.594 Q2194.08 141.511 2194.08 147.437 Z" fill="#000000" fill-rule="nonzero" fill-opacity="1" /><path clip-path="url(#clip150)" d="M2219.92 148.965 Q2219.92 144.335 2217.99 141.789 Q2216.1 139.243 2212.65 139.243 Q2209.22 139.243 2207.3 141.789 Q2205.4 144.335 2205.4 148.965 Q2205.4 153.571 2207.3 156.118 Q2209.22 158.664 2212.65 158.664 Q2216.1 158.664 2217.99 156.118 Q2219.92 153.571 2219.92 148.965 M2224.17 159.011 Q2224.17 165.631 2221.23 168.849 Q2218.29 172.09 2212.23 172.09 Q2209.98 172.09 2207.99 171.742 Q2206 171.418 2204.13 170.724 L2204.13 166.58 Q2206 167.599 2207.83 168.085 Q2209.66 168.571 2211.56 168.571 Q2215.75 168.571 2217.83 166.372 Q2219.92 164.196 2219.92 159.775 L2219.92 157.668 Q2218.6 159.96 2216.54 161.094 Q2214.48 162.229 2211.6 162.229 Q2206.84 162.229 2203.92 158.594 Q2201 154.96 2201 148.965 Q2201 142.946 2203.92 139.312 Q2206.84 135.678 2211.6 135.678 Q2214.48 135.678 2216.54 136.812 Q2218.6 137.946 2219.92 140.238 L2219.92 136.303 L2224.17 136.303 L2224.17 159.011 Z" fill="#000000" fill-rule="nonzero" fill-opacity="1" /><path clip-path="url(#clip150)" d="M2255.12 148.201 L2255.12 150.284 L2235.54 150.284 Q2235.82 154.682 2238.18 156.997 Q2240.56 159.289 2244.8 159.289 Q2247.25 159.289 2249.54 158.687 Q2251.86 158.085 2254.13 156.881 L2254.13 160.909 Q2251.84 161.881 2249.43 162.391 Q2247.02 162.9 2244.54 162.9 Q2238.34 162.9 2234.71 159.289 Q2231.1 155.678 2231.1 149.52 Q2231.1 143.155 2234.52 139.428 Q2237.97 135.678 2243.8 135.678 Q2249.04 135.678 2252.07 139.057 Q2255.12 142.414 2255.12 148.201 M2250.86 146.951 Q2250.82 143.456 2248.9 141.372 Q2247 139.289 2243.85 139.289 Q2240.29 139.289 2238.13 141.303 Q2236 143.317 2235.68 146.974 L2250.86 146.951 Z" fill="#000000" fill-rule="nonzero" fill-opacity="1" /><polyline clip-path="url(#clip150)" style="stroke:#e26f46; stroke-linecap:round; stroke-linejoin:round; stroke-width:4; stroke-opacity:1; fill:none" points="1824.87,196.789 1971.32,196.789 "/>
<path clip-path="url(#clip150)" d="M1995.73 188.143 L2000.24 188.143 L2008.34 209.902 L2016.44 188.143 L2020.96 188.143 L2011.24 214.069 L2005.45 214.069 L1995.73 188.143 Z" fill="#000000" fill-rule="nonzero" fill-opacity="1" /><path clip-path="url(#clip150)" d="M2027.49 179.509 L2045.84 179.509 L2045.84 183.444 L2031.77 183.444 L2031.77 191.916 Q2032.79 191.569 2033.8 191.407 Q2034.82 191.222 2035.84 191.222 Q2041.63 191.222 2045.01 194.393 Q2048.39 197.564 2048.39 202.981 Q2048.39 208.559 2044.92 211.661 Q2041.44 214.74 2035.12 214.74 Q2032.95 214.74 2030.68 214.37 Q2028.43 213.999 2026.03 213.258 L2026.03 208.559 Q2028.11 209.694 2030.33 210.249 Q2032.55 210.805 2035.03 210.805 Q2039.04 210.805 2041.37 208.698 Q2043.71 206.592 2043.71 202.981 Q2043.71 199.37 2041.37 197.263 Q2039.04 195.157 2035.03 195.157 Q2033.16 195.157 2031.28 195.573 Q2029.43 195.99 2027.49 196.87 L2027.49 179.509 Z" fill="#000000" fill-rule="nonzero" fill-opacity="1" /><path clip-path="url(#clip150)" d="M2066.26 197.425 L2066.26 204.647 L2074.38 204.647 L2074.38 206.846 L2066.26 206.846 L2066.26 214.069 L2063.83 214.069 L2063.83 206.846 L2055.7 206.846 L2055.7 204.647 L2063.83 204.647 L2063.83 197.425 L2066.26 197.425 Z" fill="#000000" fill-rule="nonzero" fill-opacity="1" /><path clip-path="url(#clip150)" d="M2098.55 188.907 L2098.55 192.934 Q2096.74 192.009 2094.8 191.546 Q2092.86 191.083 2090.77 191.083 Q2087.6 191.083 2086 192.055 Q2084.43 193.027 2084.43 194.971 Q2084.43 196.453 2085.56 197.309 Q2086.7 198.143 2090.12 198.907 L2091.58 199.231 Q2096.12 200.203 2098.02 201.985 Q2099.94 203.745 2099.94 206.916 Q2099.94 210.527 2097.07 212.633 Q2094.22 214.74 2089.22 214.74 Q2087.14 214.74 2084.87 214.323 Q2082.62 213.93 2080.12 213.12 L2080.12 208.721 Q2082.49 209.948 2084.78 210.573 Q2087.07 211.175 2089.31 211.175 Q2092.32 211.175 2093.94 210.157 Q2095.56 209.115 2095.56 207.24 Q2095.56 205.504 2094.38 204.578 Q2093.23 203.652 2089.27 202.796 L2087.79 202.448 Q2083.83 201.615 2082.07 199.902 Q2080.31 198.166 2080.31 195.157 Q2080.31 191.499 2082.9 189.509 Q2085.49 187.518 2090.26 187.518 Q2092.62 187.518 2094.71 187.865 Q2096.79 188.212 2098.55 188.907 Z" fill="#000000" fill-rule="nonzero" fill-opacity="1" /><path clip-path="url(#clip150)" d="M2110.93 180.782 L2110.93 188.143 L2119.71 188.143 L2119.71 191.453 L2110.93 191.453 L2110.93 205.527 Q2110.93 208.698 2111.79 209.601 Q2112.67 210.504 2115.33 210.504 L2119.71 210.504 L2119.71 214.069 L2115.33 214.069 Q2110.4 214.069 2108.53 212.24 Q2106.65 210.388 2106.65 205.527 L2106.65 191.453 L2103.53 191.453 L2103.53 188.143 L2106.65 188.143 L2106.65 180.782 L2110.93 180.782 Z" fill="#000000" fill-rule="nonzero" fill-opacity="1" /><path clip-path="url(#clip150)" d="M2135.36 191.129 Q2131.93 191.129 2129.94 193.814 Q2127.95 196.476 2127.95 201.129 Q2127.95 205.782 2129.92 208.467 Q2131.91 211.129 2135.36 211.129 Q2138.76 211.129 2140.75 208.444 Q2142.74 205.758 2142.74 201.129 Q2142.74 196.522 2140.75 193.837 Q2138.76 191.129 2135.36 191.129 M2135.36 187.518 Q2140.91 187.518 2144.08 191.129 Q2147.25 194.74 2147.25 201.129 Q2147.25 207.495 2144.08 211.129 Q2140.91 214.74 2135.36 214.74 Q2129.78 214.74 2126.61 211.129 Q2123.46 207.495 2123.46 201.129 Q2123.46 194.74 2126.61 191.129 Q2129.78 187.518 2135.36 187.518 Z" fill="#000000" fill-rule="nonzero" fill-opacity="1" /><path clip-path="url(#clip150)" d="M2169.34 192.124 Q2168.62 191.708 2167.76 191.522 Q2166.93 191.314 2165.91 191.314 Q2162.3 191.314 2160.36 193.675 Q2158.43 196.013 2158.43 200.411 L2158.43 214.069 L2154.15 214.069 L2154.15 188.143 L2158.43 188.143 L2158.43 192.171 Q2159.78 189.809 2161.93 188.675 Q2164.08 187.518 2167.16 187.518 Q2167.6 187.518 2168.13 187.587 Q2168.67 187.634 2169.31 187.749 L2169.34 192.124 Z" fill="#000000" fill-rule="nonzero" fill-opacity="1" /><path clip-path="url(#clip150)" d="M2185.59 201.036 Q2180.42 201.036 2178.43 202.217 Q2176.44 203.397 2176.44 206.245 Q2176.44 208.513 2177.92 209.856 Q2179.43 211.175 2182 211.175 Q2185.54 211.175 2187.67 208.675 Q2189.82 206.152 2189.82 201.985 L2189.82 201.036 L2185.59 201.036 M2194.08 199.277 L2194.08 214.069 L2189.82 214.069 L2189.82 210.133 Q2188.36 212.495 2186.19 213.629 Q2184.01 214.74 2180.86 214.74 Q2176.88 214.74 2174.52 212.518 Q2172.18 210.272 2172.18 206.522 Q2172.18 202.147 2175.1 199.925 Q2178.04 197.703 2183.85 197.703 L2189.82 197.703 L2189.82 197.286 Q2189.82 194.347 2187.88 192.749 Q2185.96 191.129 2182.46 191.129 Q2180.24 191.129 2178.13 191.661 Q2176.03 192.194 2174.08 193.259 L2174.08 189.323 Q2176.42 188.421 2178.62 187.981 Q2180.82 187.518 2182.9 187.518 Q2188.53 187.518 2191.3 190.434 Q2194.08 193.351 2194.08 199.277 Z" fill="#000000" fill-rule="nonzero" fill-opacity="1" /><path clip-path="url(#clip150)" d="M2219.92 200.805 Q2219.92 196.175 2217.99 193.629 Q2216.1 191.083 2212.65 191.083 Q2209.22 191.083 2207.3 193.629 Q2205.4 196.175 2205.4 200.805 Q2205.4 205.411 2207.3 207.958 Q2209.22 210.504 2212.65 210.504 Q2216.1 210.504 2217.99 207.958 Q2219.92 205.411 2219.92 200.805 M2224.17 210.851 Q2224.17 217.471 2221.23 220.689 Q2218.29 223.93 2212.23 223.93 Q2209.98 223.93 2207.99 223.582 Q2206 223.258 2204.13 222.564 L2204.13 218.42 Q2206 219.439 2207.83 219.925 Q2209.66 220.411 2211.56 220.411 Q2215.75 220.411 2217.83 218.212 Q2219.92 216.036 2219.92 211.615 L2219.92 209.508 Q2218.6 211.8 2216.54 212.934 Q2214.48 214.069 2211.6 214.069 Q2206.84 214.069 2203.92 210.434 Q2201 206.8 2201 200.805 Q2201 194.786 2203.92 191.152 Q2206.84 187.518 2211.6 187.518 Q2214.48 187.518 2216.54 188.652 Q2218.6 189.786 2219.92 192.078 L2219.92 188.143 L2224.17 188.143 L2224.17 210.851 Z" fill="#000000" fill-rule="nonzero" fill-opacity="1" /><path clip-path="url(#clip150)" d="M2255.12 200.041 L2255.12 202.124 L2235.54 202.124 Q2235.82 206.522 2238.18 208.837 Q2240.56 211.129 2244.8 211.129 Q2247.25 211.129 2249.54 210.527 Q2251.86 209.925 2254.13 208.721 L2254.13 212.749 Q2251.84 213.721 2249.43 214.231 Q2247.02 214.74 2244.54 214.74 Q2238.34 214.74 2234.71 211.129 Q2231.1 207.518 2231.1 201.36 Q2231.1 194.995 2234.52 191.268 Q2237.97 187.518 2243.8 187.518 Q2249.04 187.518 2252.07 190.897 Q2255.12 194.254 2255.12 200.041 M2250.86 198.791 Q2250.82 195.296 2248.9 193.212 Q2247 191.129 2243.85 191.129 Q2240.29 191.129 2238.13 193.143 Q2236 195.157 2235.68 198.814 L2250.86 198.791 Z" fill="#000000" fill-rule="nonzero" fill-opacity="1" /></svg>
