<?xml version="1.0" encoding="utf-8"?>
<svg xmlns="http://www.w3.org/2000/svg" xmlns:xlink="http://www.w3.org/1999/xlink" width="600" height="400" viewBox="0 0 2400 1600">
<defs>
  <clipPath id="clip160">
    <rect x="0" y="0" width="2400" height="1600"/>
  </clipPath>
</defs>
<path clip-path="url(#clip160)" d="M0 1600 L2400 1600 L2400 0 L0 0  Z" fill="#ffffff" fill-rule="evenodd" fill-opacity="1"/>
<defs>
  <clipPath id="clip161">
    <rect x="480" y="0" width="1681" height="1600"/>
  </clipPath>
</defs>
<path clip-path="url(#clip160)" d="M224.098 1423.18 L2352.76 1423.18 L2352.76 47.2441 L224.098 47.2441  Z" fill="#ffffff" fill-rule="evenodd" fill-opacity="1"/>
<defs>
  <clipPath id="clip162">
    <rect x="224" y="47" width="2130" height="1377"/>
  </clipPath>
</defs>
<polyline clip-path="url(#clip162)" style="stroke:#000000; stroke-linecap:round; stroke-linejoin:round; stroke-width:2; stroke-opacity:0.1; fill:none" points="224.098,1423.18 224.098,47.2441 "/>
<polyline clip-path="url(#clip162)" style="stroke:#000000; stroke-linecap:round; stroke-linejoin:round; stroke-width:2; stroke-opacity:0.1; fill:none" points="756.262,1423.18 756.262,47.2441 "/>
<polyline clip-path="url(#clip162)" style="stroke:#000000; stroke-linecap:round; stroke-linejoin:round; stroke-width:2; stroke-opacity:0.1; fill:none" points="1288.43,1423.18 1288.43,47.2441 "/>
<polyline clip-path="url(#clip162)" style="stroke:#000000; stroke-linecap:round; stroke-linejoin:round; stroke-width:2; stroke-opacity:0.1; fill:none" points="1820.59,1423.18 1820.59,47.2441 "/>
<polyline clip-path="url(#clip162)" style="stroke:#000000; stroke-linecap:round; stroke-linejoin:round; stroke-width:2; stroke-opacity:0.1; fill:none" points="2352.76,1423.18 2352.76,47.2441 "/>
<polyline clip-path="url(#clip162)" style="stroke:#000000; stroke-linecap:round; stroke-linejoin:round; stroke-width:2; stroke-opacity:0.1; fill:none" points="224.098,1294.71 2352.76,1294.71 "/>
<polyline clip-path="url(#clip162)" style="stroke:#000000; stroke-linecap:round; stroke-linejoin:round; stroke-width:2; stroke-opacity:0.1; fill:none" points="224.098,1101.16 2352.76,1101.16 "/>
<polyline clip-path="url(#clip162)" style="stroke:#000000; stroke-linecap:round; stroke-linejoin:round; stroke-width:2; stroke-opacity:0.1; fill:none" points="224.098,907.607 2352.76,907.607 "/>
<polyline clip-path="url(#clip162)" style="stroke:#000000; stroke-linecap:round; stroke-linejoin:round; stroke-width:2; stroke-opacity:0.1; fill:none" points="224.098,714.053 2352.76,714.053 "/>
<polyline clip-path="url(#clip162)" style="stroke:#000000; stroke-linecap:round; stroke-linejoin:round; stroke-width:2; stroke-opacity:0.1; fill:none" points="224.098,520.499 2352.76,520.499 "/>
<polyline clip-path="url(#clip162)" style="stroke:#000000; stroke-linecap:round; stroke-linejoin:round; stroke-width:2; stroke-opacity:0.1; fill:none" points="224.098,326.945 2352.76,326.945 "/>
<polyline clip-path="url(#clip162)" style="stroke:#000000; stroke-linecap:round; stroke-linejoin:round; stroke-width:2; stroke-opacity:0.1; fill:none" points="224.098,133.391 2352.76,133.391 "/>
<polyline clip-path="url(#clip160)" style="stroke:#000000; stroke-linecap:round; stroke-linejoin:round; stroke-width:4; stroke-opacity:1; fill:none" points="224.098,1423.18 2352.76,1423.18 "/>
<polyline clip-path="url(#clip160)" style="stroke:#000000; stroke-linecap:round; stroke-linejoin:round; stroke-width:4; stroke-opacity:1; fill:none" points="224.098,1423.18 224.098,1404.28 "/>
<polyline clip-path="url(#clip160)" style="stroke:#000000; stroke-linecap:round; stroke-linejoin:round; stroke-width:4; stroke-opacity:1; fill:none" points="756.262,1423.18 756.262,1404.28 "/>
<polyline clip-path="url(#clip160)" style="stroke:#000000; stroke-linecap:round; stroke-linejoin:round; stroke-width:4; stroke-opacity:1; fill:none" points="1288.43,1423.18 1288.43,1404.28 "/>
<polyline clip-path="url(#clip160)" style="stroke:#000000; stroke-linecap:round; stroke-linejoin:round; stroke-width:4; stroke-opacity:1; fill:none" points="1820.59,1423.18 1820.59,1404.28 "/>
<polyline clip-path="url(#clip160)" style="stroke:#000000; stroke-linecap:round; stroke-linejoin:round; stroke-width:4; stroke-opacity:1; fill:none" points="2352.76,1423.18 2352.76,1404.28 "/>
<path clip-path="url(#clip160)" d="M201.482 1454.1 Q197.871 1454.1 196.042 1457.66 Q194.237 1461.2 194.237 1468.33 Q194.237 1475.44 196.042 1479.01 Q197.871 1482.55 201.482 1482.55 Q205.116 1482.55 206.922 1479.01 Q208.751 1475.44 208.751 1468.33 Q208.751 1461.2 206.922 1457.66 Q205.116 1454.1 201.482 1454.1 M201.482 1450.39 Q207.292 1450.39 210.348 1455 Q213.427 1459.58 213.427 1468.33 Q213.427 1477.06 210.348 1481.67 Q207.292 1486.25 201.482 1486.25 Q195.672 1486.25 192.593 1481.67 Q189.538 1477.06 189.538 1468.33 Q189.538 1459.58 192.593 1455 Q195.672 1450.39 201.482 1450.39 Z" fill="#000000" fill-rule="nonzero" fill-opacity="1" /><path clip-path="url(#clip160)" d="M221.644 1479.7 L226.528 1479.7 L226.528 1485.58 L221.644 1485.58 L221.644 1479.7 Z" fill="#000000" fill-rule="nonzero" fill-opacity="1" /><path clip-path="url(#clip160)" d="M246.713 1454.1 Q243.102 1454.1 241.274 1457.66 Q239.468 1461.2 239.468 1468.33 Q239.468 1475.44 241.274 1479.01 Q243.102 1482.55 246.713 1482.55 Q250.348 1482.55 252.153 1479.01 Q253.982 1475.44 253.982 1468.33 Q253.982 1461.2 252.153 1457.66 Q250.348 1454.1 246.713 1454.1 M246.713 1450.39 Q252.524 1450.39 255.579 1455 Q258.658 1459.58 258.658 1468.33 Q258.658 1477.06 255.579 1481.67 Q252.524 1486.25 246.713 1486.25 Q240.903 1486.25 237.825 1481.67 Q234.769 1477.06 234.769 1468.33 Q234.769 1459.58 237.825 1455 Q240.903 1450.39 246.713 1450.39 Z" fill="#000000" fill-rule="nonzero" fill-opacity="1" /><path clip-path="url(#clip160)" d="M734.144 1454.1 Q730.533 1454.1 728.705 1457.66 Q726.899 1461.2 726.899 1468.33 Q726.899 1475.44 728.705 1479.01 Q730.533 1482.55 734.144 1482.55 Q737.779 1482.55 739.584 1479.01 Q741.413 1475.44 741.413 1468.33 Q741.413 1461.2 739.584 1457.66 Q737.779 1454.1 734.144 1454.1 M734.144 1450.39 Q739.955 1450.39 743.01 1455 Q746.089 1459.58 746.089 1468.33 Q746.089 1477.06 743.01 1481.67 Q739.955 1486.25 734.144 1486.25 Q728.334 1486.25 725.256 1481.67 Q722.2 1477.06 722.2 1468.33 Q722.2 1459.58 725.256 1455 Q728.334 1450.39 734.144 1450.39 Z" fill="#000000" fill-rule="nonzero" fill-opacity="1" /><path clip-path="url(#clip160)" d="M754.306 1479.7 L759.191 1479.7 L759.191 1485.58 L754.306 1485.58 L754.306 1479.7 Z" fill="#000000" fill-rule="nonzero" fill-opacity="1" /><path clip-path="url(#clip160)" d="M769.422 1451.02 L787.778 1451.02 L787.778 1454.96 L773.704 1454.96 L773.704 1463.43 Q774.723 1463.08 775.741 1462.92 Q776.76 1462.73 777.778 1462.73 Q783.565 1462.73 786.945 1465.9 Q790.325 1469.08 790.325 1474.49 Q790.325 1480.07 786.852 1483.17 Q783.38 1486.25 777.061 1486.25 Q774.885 1486.25 772.616 1485.88 Q770.371 1485.51 767.964 1484.77 L767.964 1480.07 Q770.047 1481.2 772.269 1481.76 Q774.491 1482.32 776.968 1482.32 Q780.973 1482.32 783.311 1480.21 Q785.649 1478.1 785.649 1474.49 Q785.649 1470.88 783.311 1468.77 Q780.973 1466.67 776.968 1466.67 Q775.093 1466.67 773.218 1467.08 Q771.366 1467.5 769.422 1468.38 L769.422 1451.02 Z" fill="#000000" fill-rule="nonzero" fill-opacity="1" /><path clip-path="url(#clip160)" d="M1255.58 1481.64 L1263.22 1481.64 L1263.22 1455.28 L1254.91 1456.95 L1254.91 1452.69 L1263.17 1451.02 L1267.85 1451.02 L1267.85 1481.64 L1275.49 1481.64 L1275.49 1485.58 L1255.58 1485.58 L1255.58 1481.64 Z" fill="#000000" fill-rule="nonzero" fill-opacity="1" /><path clip-path="url(#clip160)" d="M1284.93 1479.7 L1289.82 1479.7 L1289.82 1485.58 L1284.93 1485.58 L1284.93 1479.7 Z" fill="#000000" fill-rule="nonzero" fill-opacity="1" /><path clip-path="url(#clip160)" d="M1310 1454.1 Q1306.39 1454.1 1304.56 1457.66 Q1302.76 1461.2 1302.76 1468.33 Q1302.76 1475.44 1304.56 1479.01 Q1306.39 1482.55 1310 1482.55 Q1313.64 1482.55 1315.44 1479.01 Q1317.27 1475.44 1317.27 1468.33 Q1317.27 1461.2 1315.44 1457.66 Q1313.64 1454.1 1310 1454.1 M1310 1450.39 Q1315.81 1450.39 1318.87 1455 Q1321.95 1459.58 1321.95 1468.33 Q1321.95 1477.06 1318.87 1481.67 Q1315.81 1486.25 1310 1486.25 Q1304.19 1486.25 1301.11 1481.67 Q1298.06 1477.06 1298.06 1468.33 Q1298.06 1459.58 1301.11 1455 Q1304.19 1450.39 1310 1450.39 Z" fill="#000000" fill-rule="nonzero" fill-opacity="1" /><path clip-path="url(#clip160)" d="M1788.24 1481.64 L1795.88 1481.64 L1795.88 1455.28 L1787.57 1456.95 L1787.57 1452.69 L1795.83 1451.02 L1800.51 1451.02 L1800.51 1481.64 L1808.15 1481.64 L1808.15 1485.58 L1788.24 1485.58 L1788.24 1481.64 Z" fill="#000000" fill-rule="nonzero" fill-opacity="1" /><path clip-path="url(#clip160)" d="M1817.59 1479.7 L1822.48 1479.7 L1822.48 1485.58 L1817.59 1485.58 L1817.59 1479.7 Z" fill="#000000" fill-rule="nonzero" fill-opacity="1" /><path clip-path="url(#clip160)" d="M1832.71 1451.02 L1851.07 1451.02 L1851.07 1454.96 L1836.99 1454.96 L1836.99 1463.43 Q1838.01 1463.08 1839.03 1462.92 Q1840.05 1462.73 1841.07 1462.73 Q1846.85 1462.73 1850.23 1465.9 Q1853.61 1469.08 1853.61 1474.49 Q1853.61 1480.07 1850.14 1483.17 Q1846.67 1486.25 1840.35 1486.25 Q1838.17 1486.25 1835.9 1485.88 Q1833.66 1485.51 1831.25 1484.77 L1831.25 1480.07 Q1833.33 1481.2 1835.56 1481.76 Q1837.78 1482.32 1840.26 1482.32 Q1844.26 1482.32 1846.6 1480.21 Q1848.94 1478.1 1848.94 1474.49 Q1848.94 1470.88 1846.6 1468.77 Q1844.26 1466.67 1840.26 1466.67 Q1838.38 1466.67 1836.51 1467.08 Q1834.65 1467.5 1832.71 1468.38 L1832.71 1451.02 Z" fill="#000000" fill-rule="nonzero" fill-opacity="1" /><path clip-path="url(#clip160)" d="M2323.99 1481.64 L2340.31 1481.64 L2340.31 1485.58 L2318.37 1485.58 L2318.37 1481.64 Q2321.03 1478.89 2325.61 1474.26 Q2330.22 1469.61 2331.4 1468.27 Q2333.65 1465.74 2334.53 1464.01 Q2335.43 1462.25 2335.43 1460.56 Q2335.43 1457.8 2333.49 1456.07 Q2331.56 1454.33 2328.46 1454.33 Q2326.26 1454.33 2323.81 1455.09 Q2321.38 1455.86 2318.6 1457.41 L2318.6 1452.69 Q2321.43 1451.55 2323.88 1450.97 Q2326.33 1450.39 2328.37 1450.39 Q2333.74 1450.39 2336.93 1453.08 Q2340.13 1455.77 2340.13 1460.26 Q2340.13 1462.39 2339.32 1464.31 Q2338.53 1466.2 2336.42 1468.8 Q2335.85 1469.47 2332.74 1472.69 Q2329.64 1475.88 2323.99 1481.64 Z" fill="#000000" fill-rule="nonzero" fill-opacity="1" /><path clip-path="url(#clip160)" d="M2350.13 1479.7 L2355.01 1479.7 L2355.01 1485.58 L2350.13 1485.58 L2350.13 1479.7 Z" fill="#000000" fill-rule="nonzero" fill-opacity="1" /><path clip-path="url(#clip160)" d="M2375.2 1454.1 Q2371.59 1454.1 2369.76 1457.66 Q2367.95 1461.2 2367.95 1468.33 Q2367.95 1475.44 2369.76 1479.01 Q2371.59 1482.55 2375.2 1482.55 Q2378.83 1482.55 2380.64 1479.01 Q2382.47 1475.44 2382.47 1468.33 Q2382.47 1461.2 2380.64 1457.66 Q2378.83 1454.1 2375.2 1454.1 M2375.2 1450.39 Q2381.01 1450.39 2384.06 1455 Q2387.14 1459.58 2387.14 1468.33 Q2387.14 1477.06 2384.06 1481.67 Q2381.01 1486.25 2375.2 1486.25 Q2369.39 1486.25 2366.31 1481.67 Q2363.25 1477.06 2363.25 1468.33 Q2363.25 1459.58 2366.31 1455 Q2369.39 1450.39 2375.2 1450.39 Z" fill="#000000" fill-rule="nonzero" fill-opacity="1" /><path clip-path="url(#clip160)" d="M1287.49 1522.27 L1287.49 1532.4 L1299.55 1532.4 L1299.55 1536.95 L1287.49 1536.95 L1287.49 1556.3 Q1287.49 1560.66 1288.67 1561.9 Q1289.88 1563.14 1293.54 1563.14 L1299.55 1563.14 L1299.55 1568.04 L1293.54 1568.04 Q1286.76 1568.04 1284.18 1565.53 Q1281.6 1562.98 1281.6 1556.3 L1281.6 1536.95 L1277.3 1536.95 L1277.3 1532.4 L1281.6 1532.4 L1281.6 1522.27 L1287.49 1522.27 Z" fill="#000000" fill-rule="nonzero" fill-opacity="1" /><polyline clip-path="url(#clip160)" style="stroke:#000000; stroke-linecap:round; stroke-linejoin:round; stroke-width:4; stroke-opacity:1; fill:none" points="224.098,1423.18 224.098,47.2441 "/>
<polyline clip-path="url(#clip160)" style="stroke:#000000; stroke-linecap:round; stroke-linejoin:round; stroke-width:4; stroke-opacity:1; fill:none" points="224.098,1294.71 242.996,1294.71 "/>
<polyline clip-path="url(#clip160)" style="stroke:#000000; stroke-linecap:round; stroke-linejoin:round; stroke-width:4; stroke-opacity:1; fill:none" points="224.098,1101.16 242.996,1101.16 "/>
<polyline clip-path="url(#clip160)" style="stroke:#000000; stroke-linecap:round; stroke-linejoin:round; stroke-width:4; stroke-opacity:1; fill:none" points="224.098,907.607 242.996,907.607 "/>
<polyline clip-path="url(#clip160)" style="stroke:#000000; stroke-linecap:round; stroke-linejoin:round; stroke-width:4; stroke-opacity:1; fill:none" points="224.098,714.053 242.996,714.053 "/>
<polyline clip-path="url(#clip160)" style="stroke:#000000; stroke-linecap:round; stroke-linejoin:round; stroke-width:4; stroke-opacity:1; fill:none" points="224.098,520.499 242.996,520.499 "/>
<polyline clip-path="url(#clip160)" style="stroke:#000000; stroke-linecap:round; stroke-linejoin:round; stroke-width:4; stroke-opacity:1; fill:none" points="224.098,326.945 242.996,326.945 "/>
<polyline clip-path="url(#clip160)" style="stroke:#000000; stroke-linecap:round; stroke-linejoin:round; stroke-width:4; stroke-opacity:1; fill:none" points="224.098,133.391 242.996,133.391 "/>
<path clip-path="url(#clip160)" d="M51.9875 1295.17 L81.6633 1295.17 L81.6633 1299.1 L51.9875 1299.1 L51.9875 1295.17 Z" fill="#000000" fill-rule="nonzero" fill-opacity="1" /><path clip-path="url(#clip160)" d="M101.756 1280.51 Q98.1447 1280.51 96.316 1284.08 Q94.5104 1287.62 94.5104 1294.75 Q94.5104 1301.86 96.316 1305.42 Q98.1447 1308.96 101.756 1308.96 Q105.39 1308.96 107.196 1305.42 Q109.024 1301.86 109.024 1294.75 Q109.024 1287.62 107.196 1284.08 Q105.39 1280.51 101.756 1280.51 M101.756 1276.81 Q107.566 1276.81 110.621 1281.42 Q113.7 1286 113.7 1294.75 Q113.7 1303.48 110.621 1308.08 Q107.566 1312.67 101.756 1312.67 Q95.9456 1312.67 92.8669 1308.08 Q89.8114 1303.48 89.8114 1294.75 Q89.8114 1286 92.8669 1281.42 Q95.9456 1276.81 101.756 1276.81 Z" fill="#000000" fill-rule="nonzero" fill-opacity="1" /><path clip-path="url(#clip160)" d="M121.918 1306.11 L126.802 1306.11 L126.802 1311.99 L121.918 1311.99 L121.918 1306.11 Z" fill="#000000" fill-rule="nonzero" fill-opacity="1" /><path clip-path="url(#clip160)" d="M135.806 1277.43 L158.029 1277.43 L158.029 1279.43 L145.482 1311.99 L140.598 1311.99 L152.404 1281.37 L135.806 1281.37 L135.806 1277.43 Z" fill="#000000" fill-rule="nonzero" fill-opacity="1" /><path clip-path="url(#clip160)" d="M167.195 1277.43 L185.552 1277.43 L185.552 1281.37 L171.478 1281.37 L171.478 1289.84 Q172.496 1289.49 173.515 1289.33 Q174.533 1289.15 175.552 1289.15 Q181.339 1289.15 184.718 1292.32 Q188.098 1295.49 188.098 1300.91 Q188.098 1306.49 184.626 1309.59 Q181.153 1312.67 174.834 1312.67 Q172.658 1312.67 170.39 1312.3 Q168.144 1311.93 165.737 1311.18 L165.737 1306.49 Q167.82 1307.62 170.042 1308.18 Q172.265 1308.73 174.741 1308.73 Q178.746 1308.73 181.084 1306.62 Q183.422 1304.52 183.422 1300.91 Q183.422 1297.3 181.084 1295.19 Q178.746 1293.08 174.741 1293.08 Q172.866 1293.08 170.991 1293.5 Q169.14 1293.92 167.195 1294.8 L167.195 1277.43 Z" fill="#000000" fill-rule="nonzero" fill-opacity="1" /><path clip-path="url(#clip160)" d="M50.9921 1101.61 L80.6679 1101.61 L80.6679 1105.55 L50.9921 1105.55 L50.9921 1101.61 Z" fill="#000000" fill-rule="nonzero" fill-opacity="1" /><path clip-path="url(#clip160)" d="M100.76 1086.96 Q97.1493 1086.96 95.3206 1090.52 Q93.515 1094.07 93.515 1101.2 Q93.515 1108.3 95.3206 1111.87 Q97.1493 1115.41 100.76 1115.41 Q104.395 1115.41 106.2 1111.87 Q108.029 1108.3 108.029 1101.2 Q108.029 1094.07 106.2 1090.52 Q104.395 1086.96 100.76 1086.96 M100.76 1083.26 Q106.571 1083.26 109.626 1087.86 Q112.705 1092.45 112.705 1101.2 Q112.705 1109.92 109.626 1114.53 Q106.571 1119.11 100.76 1119.11 Q94.9502 1119.11 91.8715 1114.53 Q88.816 1109.92 88.816 1101.2 Q88.816 1092.45 91.8715 1087.86 Q94.9502 1083.26 100.76 1083.26 Z" fill="#000000" fill-rule="nonzero" fill-opacity="1" /><path clip-path="url(#clip160)" d="M120.922 1112.56 L125.807 1112.56 L125.807 1118.44 L120.922 1118.44 L120.922 1112.56 Z" fill="#000000" fill-rule="nonzero" fill-opacity="1" /><path clip-path="url(#clip160)" d="M136.038 1083.88 L154.394 1083.88 L154.394 1087.82 L140.32 1087.82 L140.32 1096.29 Q141.339 1095.94 142.357 1095.78 Q143.376 1095.59 144.394 1095.59 Q150.181 1095.59 153.561 1098.76 Q156.941 1101.94 156.941 1107.35 Q156.941 1112.93 153.468 1116.03 Q149.996 1119.11 143.677 1119.11 Q141.501 1119.11 139.232 1118.74 Q136.987 1118.37 134.58 1117.63 L134.58 1112.93 Q136.663 1114.07 138.885 1114.62 Q141.107 1115.18 143.584 1115.18 Q147.589 1115.18 149.927 1113.07 Q152.265 1110.96 152.265 1107.35 Q152.265 1103.74 149.927 1101.64 Q147.589 1099.53 143.584 1099.53 Q141.709 1099.53 139.834 1099.95 Q137.982 1100.36 136.038 1101.24 L136.038 1083.88 Z" fill="#000000" fill-rule="nonzero" fill-opacity="1" /><path clip-path="url(#clip160)" d="M176.153 1086.96 Q172.542 1086.96 170.714 1090.52 Q168.908 1094.07 168.908 1101.2 Q168.908 1108.3 170.714 1111.87 Q172.542 1115.41 176.153 1115.41 Q179.788 1115.41 181.593 1111.87 Q183.422 1108.3 183.422 1101.2 Q183.422 1094.07 181.593 1090.52 Q179.788 1086.96 176.153 1086.96 M176.153 1083.26 Q181.964 1083.26 185.019 1087.86 Q188.098 1092.45 188.098 1101.2 Q188.098 1109.92 185.019 1114.53 Q181.964 1119.11 176.153 1119.11 Q170.343 1119.11 167.265 1114.53 Q164.209 1109.92 164.209 1101.2 Q164.209 1092.45 167.265 1087.86 Q170.343 1083.26 176.153 1083.26 Z" fill="#000000" fill-rule="nonzero" fill-opacity="1" /><path clip-path="url(#clip160)" d="M51.9875 908.058 L81.6633 908.058 L81.6633 911.993 L51.9875 911.993 L51.9875 908.058 Z" fill="#000000" fill-rule="nonzero" fill-opacity="1" /><path clip-path="url(#clip160)" d="M101.756 893.405 Q98.1447 893.405 96.316 896.97 Q94.5104 900.512 94.5104 907.641 Q94.5104 914.748 96.316 918.313 Q98.1447 921.854 101.756 921.854 Q105.39 921.854 107.196 918.313 Q109.024 914.748 109.024 907.641 Q109.024 900.512 107.196 896.97 Q105.39 893.405 101.756 893.405 M101.756 889.702 Q107.566 889.702 110.621 894.308 Q113.7 898.891 113.7 907.641 Q113.7 916.368 110.621 920.975 Q107.566 925.558 101.756 925.558 Q95.9456 925.558 92.8669 920.975 Q89.8114 916.368 89.8114 907.641 Q89.8114 898.891 92.8669 894.308 Q95.9456 889.702 101.756 889.702 Z" fill="#000000" fill-rule="nonzero" fill-opacity="1" /><path clip-path="url(#clip160)" d="M121.918 919.007 L126.802 919.007 L126.802 924.887 L121.918 924.887 L121.918 919.007 Z" fill="#000000" fill-rule="nonzero" fill-opacity="1" /><path clip-path="url(#clip160)" d="M141.015 920.952 L157.334 920.952 L157.334 924.887 L135.39 924.887 L135.39 920.952 Q138.052 918.197 142.635 913.567 Q147.242 908.915 148.422 907.572 Q150.668 905.049 151.547 903.313 Q152.45 901.553 152.45 899.864 Q152.45 897.109 150.505 895.373 Q148.584 893.637 145.482 893.637 Q143.283 893.637 140.83 894.401 Q138.399 895.165 135.621 896.716 L135.621 891.993 Q138.445 890.859 140.899 890.28 Q143.353 889.702 145.39 889.702 Q150.76 889.702 153.955 892.387 Q157.149 895.072 157.149 899.563 Q157.149 901.692 156.339 903.614 Q155.552 905.512 153.445 908.104 Q152.867 908.776 149.765 911.993 Q146.663 915.188 141.015 920.952 Z" fill="#000000" fill-rule="nonzero" fill-opacity="1" /><path clip-path="url(#clip160)" d="M167.195 890.327 L185.552 890.327 L185.552 894.262 L171.478 894.262 L171.478 902.734 Q172.496 902.387 173.515 902.225 Q174.533 902.04 175.552 902.04 Q181.339 902.04 184.718 905.211 Q188.098 908.382 188.098 913.799 Q188.098 919.377 184.626 922.479 Q181.153 925.558 174.834 925.558 Q172.658 925.558 170.39 925.188 Q168.144 924.817 165.737 924.076 L165.737 919.377 Q167.82 920.512 170.042 921.067 Q172.265 921.623 174.741 921.623 Q178.746 921.623 181.084 919.516 Q183.422 917.41 183.422 913.799 Q183.422 910.188 181.084 908.081 Q178.746 905.975 174.741 905.975 Q172.866 905.975 170.991 906.391 Q169.14 906.808 167.195 907.688 L167.195 890.327 Z" fill="#000000" fill-rule="nonzero" fill-opacity="1" /><path clip-path="url(#clip160)" d="M100.76 699.851 Q97.1493 699.851 95.3206 703.416 Q93.515 706.958 93.515 714.088 Q93.515 721.194 95.3206 724.759 Q97.1493 728.3 100.76 728.3 Q104.395 728.3 106.2 724.759 Q108.029 721.194 108.029 714.088 Q108.029 706.958 106.2 703.416 Q104.395 699.851 100.76 699.851 M100.76 696.148 Q106.571 696.148 109.626 700.754 Q112.705 705.338 112.705 714.088 Q112.705 722.814 109.626 727.421 Q106.571 732.004 100.76 732.004 Q94.9502 732.004 91.8715 727.421 Q88.816 722.814 88.816 714.088 Q88.816 705.338 91.8715 700.754 Q94.9502 696.148 100.76 696.148 Z" fill="#000000" fill-rule="nonzero" fill-opacity="1" /><path clip-path="url(#clip160)" d="M120.922 725.453 L125.807 725.453 L125.807 731.333 L120.922 731.333 L120.922 725.453 Z" fill="#000000" fill-rule="nonzero" fill-opacity="1" /><path clip-path="url(#clip160)" d="M145.992 699.851 Q142.381 699.851 140.552 703.416 Q138.746 706.958 138.746 714.088 Q138.746 721.194 140.552 724.759 Q142.381 728.3 145.992 728.3 Q149.626 728.3 151.431 724.759 Q153.26 721.194 153.26 714.088 Q153.26 706.958 151.431 703.416 Q149.626 699.851 145.992 699.851 M145.992 696.148 Q151.802 696.148 154.857 700.754 Q157.936 705.338 157.936 714.088 Q157.936 722.814 154.857 727.421 Q151.802 732.004 145.992 732.004 Q140.181 732.004 137.103 727.421 Q134.047 722.814 134.047 714.088 Q134.047 705.338 137.103 700.754 Q140.181 696.148 145.992 696.148 Z" fill="#000000" fill-rule="nonzero" fill-opacity="1" /><path clip-path="url(#clip160)" d="M176.153 699.851 Q172.542 699.851 170.714 703.416 Q168.908 706.958 168.908 714.088 Q168.908 721.194 170.714 724.759 Q172.542 728.3 176.153 728.3 Q179.788 728.3 181.593 724.759 Q183.422 721.194 183.422 714.088 Q183.422 706.958 181.593 703.416 Q179.788 699.851 176.153 699.851 M176.153 696.148 Q181.964 696.148 185.019 700.754 Q188.098 705.338 188.098 714.088 Q188.098 722.814 185.019 727.421 Q181.964 732.004 176.153 732.004 Q170.343 732.004 167.265 727.421 Q164.209 722.814 164.209 714.088 Q164.209 705.338 167.265 700.754 Q170.343 696.148 176.153 696.148 Z" fill="#000000" fill-rule="nonzero" fill-opacity="1" /><path clip-path="url(#clip160)" d="M101.756 506.298 Q98.1447 506.298 96.316 509.862 Q94.5104 513.404 94.5104 520.534 Q94.5104 527.64 96.316 531.205 Q98.1447 534.747 101.756 534.747 Q105.39 534.747 107.196 531.205 Q109.024 527.64 109.024 520.534 Q109.024 513.404 107.196 509.862 Q105.39 506.298 101.756 506.298 M101.756 502.594 Q107.566 502.594 110.621 507.2 Q113.7 511.784 113.7 520.534 Q113.7 529.26 110.621 533.867 Q107.566 538.45 101.756 538.45 Q95.9456 538.45 92.8669 533.867 Q89.8114 529.26 89.8114 520.534 Q89.8114 511.784 92.8669 507.2 Q95.9456 502.594 101.756 502.594 Z" fill="#000000" fill-rule="nonzero" fill-opacity="1" /><path clip-path="url(#clip160)" d="M121.918 531.899 L126.802 531.899 L126.802 537.779 L121.918 537.779 L121.918 531.899 Z" fill="#000000" fill-rule="nonzero" fill-opacity="1" /><path clip-path="url(#clip160)" d="M141.015 533.844 L157.334 533.844 L157.334 537.779 L135.39 537.779 L135.39 533.844 Q138.052 531.089 142.635 526.46 Q147.242 521.807 148.422 520.464 Q150.668 517.941 151.547 516.205 Q152.45 514.446 152.45 512.756 Q152.45 510.001 150.505 508.265 Q148.584 506.529 145.482 506.529 Q143.283 506.529 140.83 507.293 Q138.399 508.057 135.621 509.608 L135.621 504.886 Q138.445 503.751 140.899 503.173 Q143.353 502.594 145.39 502.594 Q150.76 502.594 153.955 505.279 Q157.149 507.964 157.149 512.455 Q157.149 514.585 156.339 516.506 Q155.552 518.404 153.445 520.997 Q152.867 521.668 149.765 524.885 Q146.663 528.08 141.015 533.844 Z" fill="#000000" fill-rule="nonzero" fill-opacity="1" /><path clip-path="url(#clip160)" d="M167.195 503.219 L185.552 503.219 L185.552 507.154 L171.478 507.154 L171.478 515.626 Q172.496 515.279 173.515 515.117 Q174.533 514.932 175.552 514.932 Q181.339 514.932 184.718 518.103 Q188.098 521.274 188.098 526.691 Q188.098 532.27 184.626 535.372 Q181.153 538.45 174.834 538.45 Q172.658 538.45 170.39 538.08 Q168.144 537.709 165.737 536.969 L165.737 532.27 Q167.82 533.404 170.042 533.959 Q172.265 534.515 174.741 534.515 Q178.746 534.515 181.084 532.409 Q183.422 530.302 183.422 526.691 Q183.422 523.08 181.084 520.973 Q178.746 518.867 174.741 518.867 Q172.866 518.867 170.991 519.284 Q169.14 519.7 167.195 520.58 L167.195 503.219 Z" fill="#000000" fill-rule="nonzero" fill-opacity="1" /><path clip-path="url(#clip160)" d="M100.76 312.744 Q97.1493 312.744 95.3206 316.308 Q93.515 319.85 93.515 326.98 Q93.515 334.086 95.3206 337.651 Q97.1493 341.193 100.76 341.193 Q104.395 341.193 106.2 337.651 Q108.029 334.086 108.029 326.98 Q108.029 319.85 106.2 316.308 Q104.395 312.744 100.76 312.744 M100.76 309.04 Q106.571 309.04 109.626 313.646 Q112.705 318.23 112.705 326.98 Q112.705 335.707 109.626 340.313 Q106.571 344.896 100.76 344.896 Q94.9502 344.896 91.8715 340.313 Q88.816 335.707 88.816 326.98 Q88.816 318.23 91.8715 313.646 Q94.9502 309.04 100.76 309.04 Z" fill="#000000" fill-rule="nonzero" fill-opacity="1" /><path clip-path="url(#clip160)" d="M120.922 338.345 L125.807 338.345 L125.807 344.225 L120.922 344.225 L120.922 338.345 Z" fill="#000000" fill-rule="nonzero" fill-opacity="1" /><path clip-path="url(#clip160)" d="M136.038 309.665 L154.394 309.665 L154.394 313.6 L140.32 313.6 L140.32 322.072 Q141.339 321.725 142.357 321.563 Q143.376 321.378 144.394 321.378 Q150.181 321.378 153.561 324.549 Q156.941 327.72 156.941 333.137 Q156.941 338.716 153.468 341.818 Q149.996 344.896 143.677 344.896 Q141.501 344.896 139.232 344.526 Q136.987 344.156 134.58 343.415 L134.58 338.716 Q136.663 339.85 138.885 340.406 Q141.107 340.961 143.584 340.961 Q147.589 340.961 149.927 338.855 Q152.265 336.748 152.265 333.137 Q152.265 329.526 149.927 327.42 Q147.589 325.313 143.584 325.313 Q141.709 325.313 139.834 325.73 Q137.982 326.146 136.038 327.026 L136.038 309.665 Z" fill="#000000" fill-rule="nonzero" fill-opacity="1" /><path clip-path="url(#clip160)" d="M176.153 312.744 Q172.542 312.744 170.714 316.308 Q168.908 319.85 168.908 326.98 Q168.908 334.086 170.714 337.651 Q172.542 341.193 176.153 341.193 Q179.788 341.193 181.593 337.651 Q183.422 334.086 183.422 326.98 Q183.422 319.85 181.593 316.308 Q179.788 312.744 176.153 312.744 M176.153 309.04 Q181.964 309.04 185.019 313.646 Q188.098 318.23 188.098 326.98 Q188.098 335.707 185.019 340.313 Q181.964 344.896 176.153 344.896 Q170.343 344.896 167.265 340.313 Q164.209 335.707 164.209 326.98 Q164.209 318.23 167.265 313.646 Q170.343 309.04 176.153 309.04 Z" fill="#000000" fill-rule="nonzero" fill-opacity="1" /><path clip-path="url(#clip160)" d="M101.756 119.19 Q98.1447 119.19 96.316 122.755 Q94.5104 126.296 94.5104 133.426 Q94.5104 140.532 96.316 144.097 Q98.1447 147.639 101.756 147.639 Q105.39 147.639 107.196 144.097 Q109.024 140.532 109.024 133.426 Q109.024 126.296 107.196 122.755 Q105.39 119.19 101.756 119.19 M101.756 115.486 Q107.566 115.486 110.621 120.093 Q113.7 124.676 113.7 133.426 Q113.7 142.153 110.621 146.759 Q107.566 151.342 101.756 151.342 Q95.9456 151.342 92.8669 146.759 Q89.8114 142.153 89.8114 133.426 Q89.8114 124.676 92.8669 120.093 Q95.9456 115.486 101.756 115.486 Z" fill="#000000" fill-rule="nonzero" fill-opacity="1" /><path clip-path="url(#clip160)" d="M121.918 144.792 L126.802 144.792 L126.802 150.671 L121.918 150.671 L121.918 144.792 Z" fill="#000000" fill-rule="nonzero" fill-opacity="1" /><path clip-path="url(#clip160)" d="M135.806 116.111 L158.029 116.111 L158.029 118.102 L145.482 150.671 L140.598 150.671 L152.404 120.046 L135.806 120.046 L135.806 116.111 Z" fill="#000000" fill-rule="nonzero" fill-opacity="1" /><path clip-path="url(#clip160)" d="M167.195 116.111 L185.552 116.111 L185.552 120.046 L171.478 120.046 L171.478 128.518 Q172.496 128.171 173.515 128.009 Q174.533 127.824 175.552 127.824 Q181.339 127.824 184.718 130.995 Q188.098 134.167 188.098 139.583 Q188.098 145.162 184.626 148.264 Q181.153 151.342 174.834 151.342 Q172.658 151.342 170.39 150.972 Q168.144 150.602 165.737 149.861 L165.737 145.162 Q167.82 146.296 170.042 146.852 Q172.265 147.407 174.741 147.407 Q178.746 147.407 181.084 145.301 Q183.422 143.194 183.422 139.583 Q183.422 135.972 181.084 133.866 Q178.746 131.759 174.741 131.759 Q172.866 131.759 170.991 132.176 Q169.14 132.593 167.195 133.472 L167.195 116.111 Z" fill="#000000" fill-rule="nonzero" fill-opacity="1" /><polyline clip-path="url(#clip162)" style="stroke:#009af9; stroke-linecap:round; stroke-linejoin:round; stroke-width:4; stroke-opacity:1; fill:none" points="224.098,86.1857 226.229,93.9648 228.359,101.666 230.49,109.291 232.621,116.84 234.752,124.314 236.883,131.713 239.013,139.039 241.144,146.292 243.275,153.472 245.406,160.581 247.537,167.619 249.667,174.587 251.798,181.486 253.929,188.316 256.06,195.077 258.19,201.772 260.321,208.4 262.452,214.961 264.583,221.458 266.714,227.89 268.844,234.257 270.975,240.562 273.106,246.803 275.237,252.982 277.368,259.1 279.498,265.157 281.629,271.153 283.76,277.09 285.891,282.968 288.022,288.787 290.152,294.548 292.283,300.252 294.414,305.899 296.545,311.49 298.675,317.025 300.806,322.505 302.937,327.93 305.068,333.301 307.199,338.619 309.329,343.884 311.46,349.096 313.591,354.257 315.722,359.366 317.853,364.424 319.983,369.432 322.114,374.39 324.245,379.298 326.376,384.158 328.507,388.969 330.637,393.732 332.768,398.448 334.899,403.117 337.03,407.739 339.16,412.316 341.291,416.847 343.422,421.332 345.553,425.773 347.684,430.17 349.814,434.523 351.945,438.833 354.076,443.1 356.207,447.324 358.338,451.506 360.468,455.646 362.599,459.746 364.73,463.804 366.861,467.822 368.992,471.8 371.122,475.739 373.253,479.638 375.384,483.498 377.515,487.32 379.645,491.103 381.776,494.849 383.907,498.558 386.038,502.23 388.169,505.865 390.299,509.464 392.43,513.027 394.561,516.555 396.692,520.047 398.823,523.505 400.953,526.928 403.084,530.318 405.215,533.673 407.346,536.995 409.477,540.284 411.607,543.54 413.738,546.764 415.869,549.956 418,553.116 420.13,556.244 422.261,559.341 424.392,562.408 426.523,565.444 428.654,568.449 430.784,571.425 432.915,574.371 435.046,577.288 437.177,580.176 439.308,583.035 441.438,585.865 443.569,588.668 445.7,591.442 447.831,594.189 449.961,596.908 452.092,599.6 454.223,602.266 456.354,604.905 458.485,607.517 460.615,610.104 462.746,612.665 464.877,615.2 467.008,617.71 469.139,620.195 471.269,622.655 473.4,625.091 475.531,627.502 477.662,629.89 479.793,632.253 481.923,634.594 484.054,636.91 486.185,639.204 488.316,641.475 490.446,643.723 492.577,645.949 494.708,648.153 496.839,650.335 498.97,652.495 501.1,654.633 503.231,656.751 505.362,658.847 507.493,660.922 509.624,662.977 511.754,665.011 513.885,667.025 516.016,669.019 518.147,670.993 520.278,672.948 522.408,674.883 524.539,676.799 526.67,678.695 528.801,680.573 530.931,682.432 533.062,684.273 535.193,686.095 537.324,687.899 539.455,689.685 541.585,691.453 543.716,693.204 545.847,694.937 547.978,696.653 550.109,698.352 552.239,700.034 554.37,701.699 556.501,703.347 558.632,704.979 560.763,706.595 562.893,708.195 565.024,709.779 567.155,711.347 569.286,712.899 571.416,714.436 573.547,715.957 575.678,717.464 577.809,718.955 579.94,720.432 582.07,721.893 584.201,723.341 586.332,724.773 588.463,726.192 590.594,727.596 592.724,728.987 594.855,730.364 596.986,731.726 599.117,733.076 601.247,734.412 603.378,735.734 605.509,737.044 607.64,738.34 609.771,739.624 611.901,740.895 614.032,742.153 616.163,743.398 618.294,744.632 620.425,745.853 622.555,747.061 624.686,748.258 626.817,749.443 628.948,750.616 631.079,751.777 633.209,752.927 635.34,754.066 637.471,755.193 639.602,756.308 641.732,757.413 643.863,758.507 645.994,759.59 648.125,760.662 650.256,761.723 652.386,762.774 654.517,763.814 656.648,764.844 658.779,765.863 660.91,766.873 663.04,767.872 665.171,768.861 667.302,769.841 669.433,770.811 671.564,771.771 673.694,772.721 675.825,773.662 677.956,774.594 680.087,775.517 682.217,776.43 684.348,777.334 686.479,778.229 688.61,779.115 690.741,779.993 692.871,780.861 695.002,781.721 697.133,782.573 699.264,783.416 701.395,784.25 703.525,785.076 705.656,785.894 707.787,786.704 709.918,787.506 712.049,788.3 714.179,789.086 716.31,789.864 718.441,790.634 720.572,791.397 722.702,792.152 724.833,792.9 726.964,793.64 729.095,794.373 731.226,795.099 733.356,795.817 735.487,796.528 737.618,797.232 739.749,797.93 741.88,798.62 744.01,799.303 746.141,799.98 748.272,800.65 750.403,801.313 752.534,801.969 754.664,802.619 756.795,803.263 758.926,803.9 761.057,804.53 763.187,805.155 765.318,805.773 767.449,806.385 769.58,806.991 771.711,807.591 773.841,808.185 775.972,808.772 778.103,809.355 780.234,809.931 782.365,810.501 784.495,811.066 786.626,811.625 788.757,812.179 790.888,812.727 793.018,813.269 795.149,813.807 797.28,814.338 799.411,814.865 801.542,815.386 803.672,815.902 805.803,816.413 807.934,816.919 810.065,817.42 812.196,817.916 814.326,818.406 816.457,818.892 818.588,819.374 820.719,819.85 822.85,820.321 824.98,820.788 827.111,821.251 829.242,821.708 831.373,822.161 833.503,822.61 835.634,823.054 837.765,823.494 839.896,823.929 842.027,824.36 844.157,824.787 846.288,825.209 848.419,825.628 850.55,826.042 852.681,826.452 854.811,826.858 856.942,827.26 859.073,827.658 861.204,828.052 863.335,828.442 865.465,828.828 867.596,829.211 869.727,829.589 871.858,829.964 873.988,830.335 876.119,830.703 878.25,831.067 880.381,831.427 882.512,831.783 884.642,832.136 886.773,832.486 888.904,832.832 891.035,833.174 893.166,833.514 895.296,833.849 897.427,834.182 899.558,834.511 901.689,834.837 903.82,835.159 905.95,835.478 908.081,835.795 910.212,836.108 912.343,836.417 914.473,836.724 916.604,837.028 918.735,837.328 920.866,837.626 922.997,837.921 925.127,838.212 927.258,838.501 929.389,838.787 931.52,839.07 933.651,839.35 935.781,839.628 937.912,839.903 940.043,840.174 942.174,840.444 944.304,840.71 946.435,840.974 948.566,841.235 950.697,841.494 952.828,841.75 954.958,842.003 957.089,842.254 959.22,842.503 961.351,842.749 963.482,842.992 965.612,843.233 967.743,843.472 969.874,843.708 972.005,843.942 974.136,844.174 976.266,844.403 978.397,844.63 980.528,844.855 982.659,845.078 984.789,845.298 986.92,845.516 989.051,845.732 991.182,845.946 993.313,846.158 995.443,846.368 997.574,846.575 999.705,846.781 1001.84,846.984 1003.97,847.186 1006.1,847.385 1008.23,847.583 1010.36,847.778 1012.49,847.972 1014.62,848.164 1016.75,848.353 1018.88,848.541 1021.01,848.728 1023.14,848.912 1025.27,849.094 1027.41,849.275 1029.54,849.454 1031.67,849.631 1033.8,849.806 1035.93,849.979 1038.06,850.151 1040.19,850.321 1042.32,850.49 1044.45,850.656 1046.58,850.822 1048.71,850.985 1050.84,851.147 1052.97,851.307 1055.11,851.465 1057.24,851.622 1059.37,851.778 1061.5,851.932 1063.63,852.084 1065.76,852.235 1067.89,852.384 1070.02,852.532 1072.15,852.678 1074.28,852.823 1076.41,852.966 1078.54,853.108 1080.67,853.248 1082.81,853.387 1084.94,853.525 1087.07,853.661 1089.2,853.796 1091.33,853.93 1093.46,854.062 1095.59,854.193 1097.72,854.323 1099.85,854.451 1101.98,854.578 1104.11,854.704 1106.24,854.828 1108.38,854.951 1110.51,855.073 1112.64,855.194 1114.77,855.314 1116.9,855.432 1119.03,855.549 1121.16,855.665 1123.29,855.78 1125.42,855.894 1127.55,856.006 1129.68,856.118 1131.81,856.228 1133.94,856.338 1136.08,856.446 1138.21,856.553 1140.34,856.659 1142.47,856.764 1144.6,856.868 1146.73,856.97 1148.86,857.072 1150.99,857.173 1153.12,857.273 1155.25,857.372 1157.38,857.47 1159.51,857.567 1161.64,857.663 1163.78,857.758 1165.91,857.852 1168.04,857.945 1170.17,858.037 1172.3,858.129 1174.43,858.219 1176.56,858.309 1178.69,858.397 1180.82,858.485 1182.95,858.572 1185.08,858.658 1187.21,858.743 1189.35,858.828 1191.48,858.911 1193.61,858.994 1195.74,859.076 1197.87,859.157 1200,859.238 1202.13,859.317 1204.26,859.396 1206.39,859.474 1208.52,859.551 1210.65,859.628 1212.78,859.703 1214.91,859.778 1217.05,859.852 1219.18,859.926 1221.31,859.998 1223.44,860.07 1225.57,860.142 1227.7,860.212 1229.83,860.282 1231.96,860.351 1234.09,860.42 1236.22,860.487 1238.35,860.555 1240.48,860.621 1242.61,860.687 1244.75,860.752 1246.88,860.816 1249.01,860.88 1251.14,860.943 1253.27,861.006 1255.4,861.068 1257.53,861.129 1259.66,861.189 1261.79,861.249 1263.92,861.309 1266.05,861.368 1268.18,861.426 1270.32,861.484 1272.45,861.541 1274.58,861.597 1276.71,861.653 1278.84,861.708 1280.97,861.763 1283.1,861.817 1285.23,861.871 1287.36,861.924 1289.49,861.977 1291.62,862.029 1293.75,862.08 1295.88,862.131 1298.02,862.182 1300.15,862.232 1302.28,862.281 1304.41,862.33 1306.54,862.379 1308.67,862.427 1310.8,862.474 1312.93,862.522 1315.06,862.568 1317.19,862.614 1319.32,862.66 1321.45,862.705 1323.58,862.75 1325.72,862.794 1327.85,862.838 1329.98,862.881 1332.11,862.924 1334.24,862.967 1336.37,863.009 1338.5,863.051 1340.63,863.092 1342.76,863.133 1344.89,863.174 1347.02,863.214 1349.15,863.253 1351.29,863.293 1353.42,863.332 1355.55,863.37 1357.68,863.408 1359.81,863.446 1361.94,863.483 1364.07,863.521 1366.2,863.557 1368.33,863.594 1370.46,863.63 1372.59,863.665 1374.72,863.7 1376.85,863.735 1378.99,863.77 1381.12,863.804 1383.25,863.838 1385.38,863.872 1387.51,863.905 1389.64,863.938 1391.77,863.971 1393.9,864.003 1396.03,864.035 1398.16,864.067 1400.29,864.098 1402.42,864.129 1404.55,864.16 1406.69,864.191 1408.82,864.221 1410.95,864.251 1413.08,864.28 1415.21,864.31 1417.34,864.339 1419.47,864.368 1421.6,864.396 1423.73,864.424 1425.86,864.452 1427.99,864.48 1430.12,864.507 1432.26,864.534 1434.39,864.561 1436.52,864.587 1438.65,864.614 1440.78,864.64 1442.91,864.665 1445.04,864.691 1447.17,864.716 1449.3,864.741 1451.43,864.766 1453.56,864.79 1455.69,864.814 1457.82,864.838 1459.96,864.862 1462.09,864.886 1464.22,864.909 1466.35,864.932 1468.48,864.955 1470.61,864.977 1472.74,864.999 1474.87,865.022 1477,865.043 1479.13,865.065 1481.26,865.086 1483.39,865.108 1485.52,865.129 1487.66,865.149 1489.79,865.17 1491.92,865.19 1494.05,865.21 1496.18,865.23 1498.31,865.25 1500.44,865.27 1502.57,865.289 1504.7,865.308 1506.83,865.327 1508.96,865.346 1511.09,865.364 1513.23,865.383 1515.36,865.401 1517.49,865.419 1519.62,865.436 1521.75,865.454 1523.88,865.471 1526.01,865.489 1528.14,865.506 1530.27,865.523 1532.4,865.539 1534.53,865.556 1536.66,865.572 1538.79,865.589 1540.93,865.605 1543.06,865.621 1545.19,865.636 1547.32,865.652 1549.45,865.667 1551.58,865.682 1553.71,865.698 1555.84,865.713 1557.97,865.727 1560.1,865.742 1562.23,865.757 1564.36,865.771 1566.49,865.785 1568.63,865.799 1570.76,865.813 1572.89,865.827 1575.02,865.841 1577.15,865.854 1579.28,865.868 1581.41,865.881 1583.54,865.894 1585.67,865.907 1587.8,865.92 1589.93,865.933 1592.06,865.945 1594.2,865.958 1596.33,865.97 1598.46,865.983 1600.59,865.995 1602.72,866.007 1604.85,866.019 1606.98,866.031 1609.11,866.042 1611.24,866.054 1613.37,866.065 1615.5,866.077 1617.63,866.088 1619.76,866.099 1621.9,866.11 1624.03,866.121 1626.16,866.132 1628.29,866.143 1630.42,866.154 1632.55,866.164 1634.68,866.175 1636.81,866.185 1638.94,866.195 1641.07,866.206 1643.2,866.216 1645.33,866.226 1647.46,866.236 1649.6,866.245 1651.73,866.255 1653.86,866.265 1655.99,866.274 1658.12,866.284 1660.25,866.293 1662.38,866.302 1664.51,866.311 1666.64,866.32 1668.77,866.329 1670.9,866.338 1673.03,866.347 1675.17,866.356 1677.3,866.364 1679.43,866.373 1681.56,866.381 1683.69,866.39 1685.82,866.398 1687.95,866.406 1690.08,866.414 1692.21,866.422 1694.34,866.43 1696.47,866.438 1698.6,866.446 1700.73,866.454 1702.87,866.461 1705,866.469 1707.13,866.476 1709.26,866.484 1711.39,866.491 1713.52,866.498 1715.65,866.505 1717.78,866.512 1719.91,866.519 1722.04,866.526 1724.17,866.533 1726.3,866.54 1728.43,866.547 1730.57,866.553 1732.7,866.56 1734.83,866.567 1736.96,866.573 1739.09,866.579 1741.22,866.586 1743.35,866.592 1745.48,866.598 1747.61,866.604 1749.74,866.61 1751.87,866.616 1754,866.622 1756.14,866.628 1758.27,866.634 1760.4,866.64 1762.53,866.645 1764.66,866.651 1766.79,866.657 1768.92,866.662 1771.05,866.667 1773.18,866.673 1775.31,866.678 1777.44,866.683 1779.57,866.689 1781.7,866.694 1783.84,866.699 1785.97,866.704 1788.1,866.709 1790.23,866.714 1792.36,866.719 1794.49,866.724 1796.62,866.728 1798.75,866.733 1800.88,866.738 1803.01,866.742 1805.14,866.747 1807.27,866.752 1809.4,866.756 1811.54,866.761 1813.67,866.765 1815.8,866.769 1817.93,866.774 1820.06,866.778 1822.19,866.782 1824.32,866.786 1826.45,866.79 1828.58,866.795 1830.71,866.799 1832.84,866.803 1834.97,866.807 1837.11,866.811 1839.24,866.814 1841.37,866.818 1843.5,866.822 1845.63,866.826 1847.76,866.83 1849.89,866.833 1852.02,866.837 1854.15,866.841 1856.28,866.844 1858.41,866.848 1860.54,866.851 1862.67,866.855 1864.81,866.858 1866.94,866.862 1869.07,866.865 1871.2,866.869 1873.33,866.872 1875.46,866.875 1877.59,866.879 1879.72,866.882 1881.85,866.885 1883.98,866.888 1886.11,866.891 1888.24,866.895 1890.37,866.898 1892.51,866.901 1894.64,866.904 1896.77,866.907 1898.9,866.91 1901.03,866.913 1903.16,866.916 1905.29,866.919 1907.42,866.922 1909.55,866.925 1911.68,866.928 1913.81,866.931 1915.94,866.933 1918.07,866.936 1920.21,866.939 1922.34,866.942 1924.47,866.944 1926.6,866.947 1928.73,866.95 1930.86,866.953 1932.99,866.955 1935.12,866.958 1937.25,866.96 1939.38,866.963 1941.51,866.965 1943.64,866.968 1945.78,866.97 1947.91,866.973 1950.04,866.975 1952.17,866.978 1954.3,866.98 1956.43,866.982 1958.56,866.985 1960.69,866.987 1962.82,866.989 1964.95,866.992 1967.08,866.994 1969.21,866.996 1971.34,866.998 1973.48,867.001 1975.61,867.003 1977.74,867.005 1979.87,867.007 1982,867.009 1984.13,867.011 1986.26,867.013 1988.39,867.015 1990.52,867.017 1992.65,867.019 1994.78,867.021 1996.91,867.023 1999.04,867.025 2001.18,867.027 2003.31,867.029 2005.44,867.031 2007.57,867.033 2009.7,867.034 2011.83,867.036 2013.96,867.038 2016.09,867.04 2018.22,867.042 2020.35,867.043 2022.48,867.045 2024.61,867.047 2026.75,867.048 2028.88,867.05 2031.01,867.052 2033.14,867.053 2035.27,867.055 2037.4,867.056 2039.53,867.058 2041.66,867.06 2043.79,867.061 2045.92,867.063 2048.05,867.064 2050.18,867.066 2052.31,867.067 2054.45,867.069 2056.58,867.07 2058.71,867.071 2060.84,867.073 2062.97,867.074 2065.1,867.076 2067.23,867.077 2069.36,867.078 2071.49,867.079 2073.62,867.081 2075.75,867.082 2077.88,867.083 2080.01,867.085 2082.15,867.086 2084.28,867.087 2086.41,867.088 2088.54,867.089 2090.67,867.091 2092.8,867.092 2094.93,867.093 2097.06,867.094 2099.19,867.095 2101.32,867.096 2103.45,867.097 2105.58,867.099 2107.72,867.1 2109.85,867.101 2111.98,867.102 2114.11,867.103 2116.24,867.104 2118.37,867.105 2120.5,867.106 2122.63,867.107 2124.76,867.108 2126.89,867.109 2129.02,867.11 2131.15,867.111 2133.28,867.112 2135.42,867.113 2137.55,867.114 2139.68,867.114 2141.81,867.115 2143.94,867.116 2146.07,867.117 2148.2,867.118 2150.33,867.119 2152.46,867.12 2154.59,867.121 2156.72,867.121 2158.85,867.122 2160.98,867.123 2163.12,867.124 2165.25,867.125 2167.38,867.125 2169.51,867.126 2171.64,867.127 2173.77,867.128 2175.9,867.128 2178.03,867.129 2180.16,867.13 2182.29,867.131 2184.42,867.131 2186.55,867.132 2188.69,867.133 2190.82,867.134 2192.95,867.134 2195.08,867.135 2197.21,867.136 2199.34,867.137 2201.47,867.137 2203.6,867.138 2205.73,867.139 2207.86,867.139 2209.99,867.14 2212.12,867.141 2214.25,867.141 2216.39,867.142 2218.52,867.143 2220.65,867.143 2222.78,867.144 2224.91,867.145 2227.04,867.145 2229.17,867.146 2231.3,867.147 2233.43,867.147 2235.56,867.148 2237.69,867.149 2239.82,867.149 2241.95,867.15 2244.09,867.15 2246.22,867.151 2248.35,867.152 2250.48,867.152 2252.61,867.153 2254.74,867.153 2256.87,867.154 2259,867.154 2261.13,867.155 2263.26,867.156 2265.39,867.156 2267.52,867.157 2269.66,867.157 2271.79,867.158 2273.92,867.158 2276.05,867.159 2278.18,867.159 2280.31,867.16 2282.44,867.16 2284.57,867.161 2286.7,867.161 2288.83,867.162 2290.96,867.162 2293.09,867.163 2295.22,867.163 2297.36,867.164 2299.49,867.164 2301.62,867.165 2303.75,867.165 2305.88,867.166 2308.01,867.166 2310.14,867.167 2312.27,867.167 2314.4,867.167 2316.53,867.168 2318.66,867.168 2320.79,867.169 2322.92,867.169 2325.06,867.17 2327.19,867.17 2329.32,867.17 2331.45,867.171 2333.58,867.171 2335.71,867.172 2337.84,867.172 2339.97,867.172 2342.1,867.173 2344.23,867.173 2346.36,867.174 2348.49,867.174 2350.63,867.174 2352.76,867.175 "/>
<polyline clip-path="url(#clip162)" style="stroke:#e26f46; stroke-linecap:round; stroke-linejoin:round; stroke-width:4; stroke-opacity:1; fill:none" points="224.098,1384.24 226.229,1380.48 228.359,1376.76 230.49,1373.06 232.621,1369.39 234.752,1365.75 236.883,1362.14 239.013,1358.55 241.144,1355 243.275,1351.47 245.406,1347.97 247.537,1344.49 249.667,1341.04 251.798,1337.62 253.929,1334.23 256.06,1330.86 258.19,1327.51 260.321,1324.2 262.452,1320.9 264.583,1317.64 266.714,1314.39 268.844,1311.18 270.975,1307.98 273.106,1304.82 275.237,1301.67 277.368,1298.55 279.498,1295.46 281.629,1292.38 283.76,1289.33 285.891,1286.31 288.022,1283.31 290.152,1280.33 292.283,1277.37 294.414,1274.44 296.545,1271.52 298.675,1268.63 300.806,1265.77 302.937,1262.92 305.068,1260.09 307.199,1257.29 309.329,1254.51 311.46,1251.75 313.591,1249.01 315.722,1246.29 317.853,1243.59 319.983,1240.91 322.114,1238.26 324.245,1235.62 326.376,1233 328.507,1230.4 330.637,1227.82 332.768,1225.27 334.899,1222.73 337.03,1220.21 339.16,1217.7 341.291,1215.22 343.422,1212.76 345.553,1210.31 347.684,1207.88 349.814,1205.48 351.945,1203.09 354.076,1200.71 356.207,1198.36 358.338,1196.02 360.468,1193.7 362.599,1191.4 364.73,1189.11 366.861,1186.85 368.992,1184.59 371.122,1182.36 373.253,1180.14 375.384,1177.94 377.515,1175.76 379.645,1173.59 381.776,1171.44 383.907,1169.3 386.038,1167.18 388.169,1165.08 390.299,1162.99 392.43,1160.92 394.561,1158.86 396.692,1156.82 398.823,1154.79 400.953,1152.78 403.084,1150.78 405.215,1148.8 407.346,1146.83 409.477,1144.88 411.607,1142.94 413.738,1141.01 415.869,1139.1 418,1137.21 420.13,1135.33 422.261,1133.46 424.392,1131.6 426.523,1129.76 428.654,1127.94 430.784,1126.12 432.915,1124.32 435.046,1122.54 437.177,1120.76 439.308,1119 441.438,1117.26 443.569,1115.52 445.7,1113.8 447.831,1112.09 449.961,1110.39 452.092,1108.71 454.223,1107.04 456.354,1105.38 458.485,1103.73 460.615,1102.09 462.746,1100.47 464.877,1098.86 467.008,1097.26 469.139,1095.67 471.269,1094.09 473.4,1092.53 475.531,1090.98 477.662,1089.43 479.793,1087.9 481.923,1086.38 484.054,1084.87 486.185,1083.38 488.316,1081.89 490.446,1080.41 492.577,1078.95 494.708,1077.49 496.839,1076.05 498.97,1074.62 501.1,1073.19 503.231,1071.78 505.362,1070.38 507.493,1068.99 509.624,1067.6 511.754,1066.23 513.885,1064.87 516.016,1063.52 518.147,1062.17 520.278,1060.84 522.408,1059.52 524.539,1058.2 526.67,1056.9 528.801,1055.6 530.931,1054.32 533.062,1053.04 535.193,1051.77 537.324,1050.52 539.455,1049.27 541.585,1048.03 543.716,1046.8 545.847,1045.57 547.978,1044.36 550.109,1043.16 552.239,1041.96 554.37,1040.77 556.501,1039.59 558.632,1038.42 560.763,1037.26 562.893,1036.11 565.024,1034.96 567.155,1033.82 569.286,1032.7 571.416,1031.57 573.547,1030.46 575.678,1029.36 577.809,1028.26 579.94,1027.17 582.07,1026.09 584.201,1025.01 586.332,1023.95 588.463,1022.89 590.594,1021.84 592.724,1020.79 594.855,1019.76 596.986,1018.73 599.117,1017.71 601.247,1016.69 603.378,1015.69 605.509,1014.69 607.64,1013.69 609.771,1012.71 611.901,1011.73 614.032,1010.76 616.163,1009.79 618.294,1008.83 620.425,1007.88 622.555,1006.94 624.686,1006 626.817,1005.07 628.948,1004.14 631.079,1003.22 633.209,1002.31 635.34,1001.41 637.471,1000.51 639.602,999.615 641.732,998.728 643.863,997.848 645.994,996.974 648.125,996.106 650.256,995.244 652.386,994.389 654.517,993.539 656.648,992.695 658.779,991.858 660.91,991.026 663.04,990.2 665.171,989.379 667.302,988.565 669.433,987.756 671.564,986.953 673.694,986.155 675.825,985.363 677.956,984.577 680.087,983.796 682.217,983.02 684.348,982.25 686.479,981.486 688.61,980.726 690.741,979.972 692.871,979.224 695.002,978.48 697.133,977.742 699.264,977.008 701.395,976.28 703.525,975.557 705.656,974.839 707.787,974.126 709.918,973.418 712.049,972.715 714.179,972.016 716.31,971.323 718.441,970.634 720.572,969.95 722.702,969.271 724.833,968.596 726.964,967.927 729.095,967.261 731.226,966.601 733.356,965.945 735.487,965.293 737.618,964.646 739.749,964.004 741.88,963.366 744.01,962.732 746.141,962.103 748.272,961.478 750.403,960.857 752.534,960.24 754.664,959.628 756.795,959.02 758.926,958.417 761.057,957.817 763.187,957.222 765.318,956.63 767.449,956.043 769.58,955.46 771.711,954.88 773.841,954.305 775.972,953.734 778.103,953.166 780.234,952.603 782.365,952.043 784.495,951.487 786.626,950.935 788.757,950.387 790.888,949.843 793.018,949.302 795.149,948.765 797.28,948.231 799.411,947.702 801.542,947.176 803.672,946.653 805.803,946.134 807.934,945.619 810.065,945.107 812.196,944.598 814.326,944.093 816.457,943.592 818.588,943.094 820.719,942.599 822.85,942.108 824.98,941.62 827.111,941.135 829.242,940.654 831.373,940.175 833.503,939.701 835.634,939.229 837.765,938.76 839.896,938.295 842.027,937.833 844.157,937.374 846.288,936.918 848.419,936.465 850.55,936.015 852.681,935.569 854.811,935.125 856.942,934.684 859.073,934.246 861.204,933.812 863.335,933.38 865.465,932.951 867.596,932.525 869.727,932.101 871.858,931.681 873.988,931.264 876.119,930.849 878.25,930.437 880.381,930.028 882.512,929.621 884.642,929.218 886.773,928.817 888.904,928.419 891.035,928.023 893.166,927.63 895.296,927.24 897.427,926.852 899.558,926.467 901.689,926.085 903.82,925.705 905.95,925.328 908.081,924.953 910.212,924.58 912.343,924.211 914.473,923.843 916.604,923.478 918.735,923.116 920.866,922.756 922.997,922.399 925.127,922.043 927.258,921.691 929.389,921.34 931.52,920.992 933.651,920.646 935.781,920.303 937.912,919.962 940.043,919.623 942.174,919.286 944.304,918.952 946.435,918.62 948.566,918.29 950.697,917.962 952.828,917.636 954.958,917.313 957.089,916.992 959.22,916.673 961.351,916.356 963.482,916.041 965.612,915.728 967.743,915.417 969.874,915.109 972.005,914.802 974.136,914.497 976.266,914.195 978.397,913.894 980.528,913.596 982.659,913.299 984.789,913.004 986.92,912.712 989.051,912.421 991.182,912.132 993.313,911.845 995.443,911.56 997.574,911.277 999.705,910.996 1001.84,910.716 1003.97,910.439 1006.1,910.163 1008.23,909.889 1010.36,909.617 1012.49,909.347 1014.62,909.078 1016.75,908.811 1018.88,908.546 1021.01,908.283 1023.14,908.021 1025.27,907.761 1027.41,907.503 1029.54,907.247 1031.67,906.992 1033.8,906.739 1035.93,906.487 1038.06,906.238 1040.19,905.99 1042.32,905.743 1044.45,905.498 1046.58,905.255 1048.71,905.013 1050.84,904.773 1052.97,904.535 1055.11,904.298 1057.24,904.062 1059.37,903.828 1061.5,903.596 1063.63,903.365 1065.76,903.136 1067.89,902.908 1070.02,902.682 1072.15,902.457 1074.28,902.234 1076.41,902.012 1078.54,901.792 1080.67,901.573 1082.81,901.355 1084.94,901.139 1087.07,900.924 1089.2,900.711 1091.33,900.499 1093.46,900.288 1095.59,900.079 1097.72,899.872 1099.85,899.665 1101.98,899.46 1104.11,899.256 1106.24,899.054 1108.38,898.853 1110.51,898.653 1112.64,898.455 1114.77,898.257 1116.9,898.061 1119.03,897.867 1121.16,897.673 1123.29,897.481 1125.42,897.29 1127.55,897.101 1129.68,896.912 1131.81,896.725 1133.94,896.539 1136.08,896.355 1138.21,896.171 1140.34,895.989 1142.47,895.808 1144.6,895.628 1146.73,895.449 1148.86,895.271 1150.99,895.094 1153.12,894.919 1155.25,894.745 1157.38,894.572 1159.51,894.4 1161.64,894.229 1163.78,894.059 1165.91,893.89 1168.04,893.723 1170.17,893.556 1172.3,893.39 1174.43,893.226 1176.56,893.063 1178.69,892.9 1180.82,892.739 1182.95,892.579 1185.08,892.42 1187.21,892.261 1189.35,892.104 1191.48,891.948 1193.61,891.793 1195.74,891.639 1197.87,891.486 1200,891.333 1202.13,891.182 1204.26,891.032 1206.39,890.883 1208.52,890.734 1210.65,890.587 1212.78,890.441 1214.91,890.295 1217.05,890.15 1219.18,890.007 1221.31,889.864 1223.44,889.722 1225.57,889.582 1227.7,889.442 1229.83,889.302 1231.96,889.164 1234.09,889.027 1236.22,888.891 1238.35,888.755 1240.48,888.62 1242.61,888.487 1244.75,888.354 1246.88,888.222 1249.01,888.09 1251.14,887.96 1253.27,887.83 1255.4,887.702 1257.53,887.574 1259.66,887.447 1261.79,887.32 1263.92,887.195 1266.05,887.07 1268.18,886.946 1270.32,886.823 1272.45,886.701 1274.58,886.58 1276.71,886.459 1278.84,886.339 1280.97,886.22 1283.1,886.101 1285.23,885.984 1287.36,885.867 1289.49,885.751 1291.62,885.635 1293.75,885.521 1295.88,885.407 1298.02,885.294 1300.15,885.181 1302.28,885.069 1304.41,884.958 1306.54,884.848 1308.67,884.738 1310.8,884.629 1312.93,884.521 1315.06,884.413 1317.19,884.307 1319.32,884.2 1321.45,884.095 1323.58,883.99 1325.72,883.886 1327.85,883.782 1329.98,883.679 1332.11,883.577 1334.24,883.476 1336.37,883.375 1338.5,883.274 1340.63,883.175 1342.76,883.076 1344.89,882.977 1347.02,882.879 1349.15,882.782 1351.29,882.686 1353.42,882.59 1355.55,882.495 1357.68,882.4 1359.81,882.306 1361.94,882.212 1364.07,882.119 1366.2,882.027 1368.33,881.935 1370.46,881.844 1372.59,881.753 1374.72,881.663 1376.85,881.574 1378.99,881.485 1381.12,881.396 1383.25,881.308 1385.38,881.221 1387.51,881.134 1389.64,881.048 1391.77,880.963 1393.9,880.878 1396.03,880.793 1398.16,880.709 1400.29,880.625 1402.42,880.542 1404.55,880.46 1406.69,880.378 1408.82,880.297 1410.95,880.216 1413.08,880.135 1415.21,880.055 1417.34,879.976 1419.47,879.897 1421.6,879.819 1423.73,879.741 1425.86,879.663 1427.99,879.586 1430.12,879.51 1432.26,879.434 1434.39,879.358 1436.52,879.283 1438.65,879.209 1440.78,879.135 1442.91,879.061 1445.04,878.988 1447.17,878.915 1449.3,878.843 1451.43,878.771 1453.56,878.7 1455.69,878.629 1457.82,878.559 1459.96,878.489 1462.09,878.419 1464.22,878.35 1466.35,878.281 1468.48,878.213 1470.61,878.145 1472.74,878.078 1474.87,878.011 1477,877.944 1479.13,877.878 1481.26,877.813 1483.39,877.747 1485.52,877.682 1487.66,877.618 1489.79,877.554 1491.92,877.49 1494.05,877.427 1496.18,877.364 1498.31,877.302 1500.44,877.24 1502.57,877.178 1504.7,877.117 1506.83,877.056 1508.96,876.995 1511.09,876.935 1513.23,876.875 1515.36,876.816 1517.49,876.757 1519.62,876.698 1521.75,876.64 1523.88,876.582 1526.01,876.525 1528.14,876.467 1530.27,876.41 1532.4,876.354 1534.53,876.298 1536.66,876.242 1538.79,876.187 1540.93,876.132 1543.06,876.077 1545.19,876.023 1547.32,875.968 1549.45,875.915 1551.58,875.861 1553.71,875.808 1555.84,875.756 1557.97,875.703 1560.1,875.651 1562.23,875.599 1564.36,875.548 1566.49,875.497 1568.63,875.446 1570.76,875.396 1572.89,875.346 1575.02,875.296 1577.15,875.246 1579.28,875.197 1581.41,875.148 1583.54,875.099 1585.67,875.051 1587.8,875.003 1589.93,874.955 1592.06,874.908 1594.2,874.861 1596.33,874.814 1598.46,874.768 1600.59,874.721 1602.72,874.675 1604.85,874.63 1606.98,874.584 1609.11,874.539 1611.24,874.494 1613.37,874.45 1615.5,874.405 1617.63,874.361 1619.76,874.317 1621.9,874.274 1624.03,874.231 1626.16,874.188 1628.29,874.145 1630.42,874.103 1632.55,874.06 1634.68,874.019 1636.81,873.977 1638.94,873.935 1641.07,873.894 1643.2,873.853 1645.33,873.813 1647.46,873.772 1649.6,873.732 1651.73,873.692 1653.86,873.653 1655.99,873.613 1658.12,873.574 1660.25,873.535 1662.38,873.496 1664.51,873.458 1666.64,873.42 1668.77,873.382 1670.9,873.344 1673.03,873.306 1675.17,873.269 1677.3,873.232 1679.43,873.195 1681.56,873.159 1683.69,873.122 1685.82,873.086 1687.95,873.05 1690.08,873.015 1692.21,872.979 1694.34,872.944 1696.47,872.909 1698.6,872.874 1700.73,872.84 1702.87,872.805 1705,872.771 1707.13,872.737 1709.26,872.703 1711.39,872.67 1713.52,872.636 1715.65,872.603 1717.78,872.57 1719.91,872.538 1722.04,872.505 1724.17,872.473 1726.3,872.441 1728.43,872.409 1730.57,872.377 1732.7,872.346 1734.83,872.314 1736.96,872.283 1739.09,872.252 1741.22,872.222 1743.35,872.191 1745.48,872.161 1747.61,872.131 1749.74,872.101 1751.87,872.071 1754,872.041 1756.14,872.012 1758.27,871.983 1760.4,871.954 1762.53,871.925 1764.66,871.896 1766.79,871.867 1768.92,871.839 1771.05,871.811 1773.18,871.783 1775.31,871.755 1777.44,871.728 1779.57,871.7 1781.7,871.673 1783.84,871.646 1785.97,871.619 1788.1,871.592 1790.23,871.565 1792.36,871.539 1794.49,871.513 1796.62,871.486 1798.75,871.46 1800.88,871.435 1803.01,871.409 1805.14,871.383 1807.27,871.358 1809.4,871.333 1811.54,871.308 1813.67,871.283 1815.8,871.258 1817.93,871.234 1820.06,871.209 1822.19,871.185 1824.32,871.161 1826.45,871.137 1828.58,871.113 1830.71,871.09 1832.84,871.066 1834.97,871.043 1837.11,871.019 1839.24,870.996 1841.37,870.973 1843.5,870.95 1845.63,870.928 1847.76,870.905 1849.89,870.883 1852.02,870.861 1854.15,870.838 1856.28,870.816 1858.41,870.795 1860.54,870.773 1862.67,870.751 1864.81,870.73 1866.94,870.708 1869.07,870.687 1871.2,870.666 1873.33,870.645 1875.46,870.624 1877.59,870.604 1879.72,870.583 1881.85,870.563 1883.98,870.542 1886.11,870.522 1888.24,870.502 1890.37,870.482 1892.51,870.462 1894.64,870.443 1896.77,870.423 1898.9,870.403 1901.03,870.384 1903.16,870.365 1905.29,870.346 1907.42,870.327 1909.55,870.308 1911.68,870.289 1913.81,870.27 1915.94,870.252 1918.07,870.233 1920.21,870.215 1922.34,870.197 1924.47,870.178 1926.6,870.16 1928.73,870.142 1930.86,870.125 1932.99,870.107 1935.12,870.089 1937.25,870.072 1939.38,870.054 1941.51,870.037 1943.64,870.02 1945.78,870.003 1947.91,869.986 1950.04,869.969 1952.17,869.952 1954.3,869.936 1956.43,869.919 1958.56,869.903 1960.69,869.886 1962.82,869.87 1964.95,869.854 1967.08,869.838 1969.21,869.822 1971.34,869.806 1973.48,869.79 1975.61,869.775 1977.74,869.759 1979.87,869.744 1982,869.728 1984.13,869.713 1986.26,869.698 1988.39,869.683 1990.52,869.668 1992.65,869.653 1994.78,869.638 1996.91,869.623 1999.04,869.609 2001.18,869.594 2003.31,869.58 2005.44,869.565 2007.57,869.551 2009.7,869.537 2011.83,869.523 2013.96,869.509 2016.09,869.495 2018.22,869.481 2020.35,869.467 2022.48,869.453 2024.61,869.44 2026.75,869.426 2028.88,869.413 2031.01,869.4 2033.14,869.386 2035.27,869.373 2037.4,869.36 2039.53,869.347 2041.66,869.334 2043.79,869.321 2045.92,869.308 2048.05,869.296 2050.18,869.283 2052.31,869.271 2054.45,869.258 2056.58,869.246 2058.71,869.233 2060.84,869.221 2062.97,869.209 2065.1,869.197 2067.23,869.185 2069.36,869.173 2071.49,869.161 2073.62,869.149 2075.75,869.138 2077.88,869.126 2080.01,869.115 2082.15,869.103 2084.28,869.092 2086.41,869.08 2088.54,869.069 2090.67,869.058 2092.8,869.047 2094.93,869.036 2097.06,869.025 2099.19,869.014 2101.32,869.003 2103.45,868.992 2105.58,868.981 2107.72,868.971 2109.85,868.96 2111.98,868.95 2114.11,868.939 2116.24,868.929 2118.37,868.918 2120.5,868.908 2122.63,868.898 2124.76,868.888 2126.89,868.878 2129.02,868.868 2131.15,868.858 2133.28,868.848 2135.42,868.838 2137.55,868.828 2139.68,868.818 2141.81,868.809 2143.94,868.799 2146.07,868.79 2148.2,868.78 2150.33,868.771 2152.46,868.761 2154.59,868.752 2156.72,868.743 2158.85,868.733 2160.98,868.724 2163.12,868.715 2165.25,868.706 2167.38,868.697 2169.51,868.688 2171.64,868.679 2173.77,868.671 2175.9,868.662 2178.03,868.653 2180.16,868.644 2182.29,868.636 2184.42,868.627 2186.55,868.619 2188.69,868.61 2190.82,868.602 2192.95,868.593 2195.08,868.585 2197.21,868.577 2199.34,868.569 2201.47,868.561 2203.6,868.552 2205.73,868.544 2207.86,868.536 2209.99,868.528 2212.12,868.52 2214.25,868.513 2216.39,868.505 2218.52,868.497 2220.65,868.489 2222.78,868.481 2224.91,868.474 2227.04,868.466 2229.17,868.459 2231.3,868.451 2233.43,868.444 2235.56,868.436 2237.69,868.429 2239.82,868.421 2241.95,868.414 2244.09,868.407 2246.22,868.4 2248.35,868.392 2250.48,868.385 2252.61,868.378 2254.74,868.371 2256.87,868.364 2259,868.357 2261.13,868.35 2263.26,868.344 2265.39,868.337 2267.52,868.33 2269.66,868.323 2271.79,868.316 2273.92,868.31 2276.05,868.303 2278.18,868.297 2280.31,868.29 2282.44,868.284 2284.57,868.277 2286.7,868.271 2288.83,868.264 2290.96,868.258 2293.09,868.252 2295.22,868.245 2297.36,868.239 2299.49,868.233 2301.62,868.227 2303.75,868.221 2305.88,868.215 2308.01,868.208 2310.14,868.202 2312.27,868.197 2314.4,868.191 2316.53,868.185 2318.66,868.179 2320.79,868.173 2322.92,868.167 2325.06,868.161 2327.19,868.156 2329.32,868.15 2331.45,868.144 2333.58,868.139 2335.71,868.133 2337.84,868.128 2339.97,868.122 2342.1,868.117 2344.23,868.111 2346.36,868.106 2348.49,868.1 2350.63,868.095 2352.76,868.09 "/>
<path clip-path="url(#clip160)" d="M1809.54 248.629 L2281.8 248.629 L2281.8 93.1086 L1809.54 93.1086  Z" fill="#ffffff" fill-rule="evenodd" fill-opacity="1"/>
<polyline clip-path="url(#clip160)" style="stroke:#000000; stroke-linecap:round; stroke-linejoin:round; stroke-width:4; stroke-opacity:1; fill:none" points="1809.54,248.629 2281.8,248.629 2281.8,93.1086 1809.54,93.1086 1809.54,248.629 "/>
<polyline clip-path="url(#clip160)" style="stroke:#009af9; stroke-linecap:round; stroke-linejoin:round; stroke-width:4; stroke-opacity:1; fill:none" points="1833.19,144.949 1975.1,144.949 "/>
<path clip-path="url(#clip160)" d="M1998.75 136.303 L2003.27 136.303 L2011.37 158.062 L2019.47 136.303 L2023.98 136.303 L2014.26 162.229 L2008.47 162.229 L1998.75 136.303 Z" fill="#000000" fill-rule="nonzero" fill-opacity="1" /><path clip-path="url(#clip160)" d="M2031.28 158.293 L2038.91 158.293 L2038.91 131.928 L2030.6 133.595 L2030.6 129.335 L2038.87 127.669 L2043.54 127.669 L2043.54 158.293 L2051.18 158.293 L2051.18 162.229 L2031.28 162.229 L2031.28 158.293 Z" fill="#000000" fill-rule="nonzero" fill-opacity="1" /><path clip-path="url(#clip160)" d="M2069.28 145.585 L2069.28 152.807 L2077.41 152.807 L2077.41 155.006 L2069.28 155.006 L2069.28 162.229 L2066.85 162.229 L2066.85 155.006 L2058.73 155.006 L2058.73 152.807 L2066.85 152.807 L2066.85 145.585 L2069.28 145.585 Z" fill="#000000" fill-rule="nonzero" fill-opacity="1" /><path clip-path="url(#clip160)" d="M2101.58 137.067 L2101.58 141.094 Q2099.77 140.169 2097.83 139.706 Q2095.88 139.243 2093.8 139.243 Q2090.63 139.243 2089.03 140.215 Q2087.46 141.187 2087.46 143.131 Q2087.46 144.613 2088.59 145.469 Q2089.72 146.303 2093.15 147.067 L2094.61 147.391 Q2099.15 148.363 2101.04 150.145 Q2102.96 151.905 2102.96 155.076 Q2102.96 158.687 2100.09 160.793 Q2097.25 162.9 2092.25 162.9 Q2090.16 162.9 2087.9 162.483 Q2085.65 162.09 2083.15 161.28 L2083.15 156.881 Q2085.51 158.108 2087.8 158.733 Q2090.09 159.335 2092.34 159.335 Q2095.35 159.335 2096.97 158.317 Q2098.59 157.275 2098.59 155.4 Q2098.59 153.664 2097.41 152.738 Q2096.25 151.812 2092.29 150.956 L2090.81 150.608 Q2086.85 149.775 2085.09 148.062 Q2083.34 146.326 2083.34 143.317 Q2083.34 139.659 2085.93 137.669 Q2088.52 135.678 2093.29 135.678 Q2095.65 135.678 2097.73 136.025 Q2099.82 136.372 2101.58 137.067 Z" fill="#000000" fill-rule="nonzero" fill-opacity="1" /><path clip-path="url(#clip160)" d="M2113.96 128.942 L2113.96 136.303 L2122.73 136.303 L2122.73 139.613 L2113.96 139.613 L2113.96 153.687 Q2113.96 156.858 2114.82 157.761 Q2115.7 158.664 2118.36 158.664 L2122.73 158.664 L2122.73 162.229 L2118.36 162.229 Q2113.43 162.229 2111.55 160.4 Q2109.68 158.548 2109.68 153.687 L2109.68 139.613 L2106.55 139.613 L2106.55 136.303 L2109.68 136.303 L2109.68 128.942 L2113.96 128.942 Z" fill="#000000" fill-rule="nonzero" fill-opacity="1" /><path clip-path="url(#clip160)" d="M2138.38 139.289 Q2134.96 139.289 2132.96 141.974 Q2130.97 144.636 2130.97 149.289 Q2130.97 153.942 2132.94 156.627 Q2134.93 159.289 2138.38 159.289 Q2141.78 159.289 2143.77 156.604 Q2145.77 153.918 2145.77 149.289 Q2145.77 144.682 2143.77 141.997 Q2141.78 139.289 2138.38 139.289 M2138.38 135.678 Q2143.94 135.678 2147.11 139.289 Q2150.28 142.9 2150.28 149.289 Q2150.28 155.655 2147.11 159.289 Q2143.94 162.9 2138.38 162.9 Q2132.8 162.9 2129.63 159.289 Q2126.48 155.655 2126.48 149.289 Q2126.48 142.9 2129.63 139.289 Q2132.8 135.678 2138.38 135.678 Z" fill="#000000" fill-rule="nonzero" fill-opacity="1" /><path clip-path="url(#clip160)" d="M2172.36 140.284 Q2171.64 139.868 2170.79 139.682 Q2169.95 139.474 2168.94 139.474 Q2165.33 139.474 2163.38 141.835 Q2161.46 144.173 2161.46 148.571 L2161.46 162.229 L2157.18 162.229 L2157.18 136.303 L2161.46 136.303 L2161.46 140.331 Q2162.8 137.969 2164.95 136.835 Q2167.11 135.678 2170.19 135.678 Q2170.63 135.678 2171.16 135.747 Q2171.69 135.794 2172.34 135.909 L2172.36 140.284 Z" fill="#000000" fill-rule="nonzero" fill-opacity="1" /><path clip-path="url(#clip160)" d="M2188.61 149.196 Q2183.45 149.196 2181.46 150.377 Q2179.47 151.557 2179.47 154.405 Q2179.47 156.673 2180.95 158.016 Q2182.45 159.335 2185.02 159.335 Q2188.57 159.335 2190.7 156.835 Q2192.85 154.312 2192.85 150.145 L2192.85 149.196 L2188.61 149.196 M2197.11 147.437 L2197.11 162.229 L2192.85 162.229 L2192.85 158.293 Q2191.39 160.655 2189.21 161.789 Q2187.04 162.9 2183.89 162.9 Q2179.91 162.9 2177.55 160.678 Q2175.21 158.432 2175.21 154.682 Q2175.21 150.307 2178.13 148.085 Q2181.07 145.863 2186.88 145.863 L2192.85 145.863 L2192.85 145.446 Q2192.85 142.507 2190.9 140.909 Q2188.98 139.289 2185.49 139.289 Q2183.27 139.289 2181.16 139.821 Q2179.05 140.354 2177.11 141.419 L2177.11 137.483 Q2179.45 136.581 2181.64 136.141 Q2183.84 135.678 2185.93 135.678 Q2191.55 135.678 2194.33 138.594 Q2197.11 141.511 2197.11 147.437 Z" fill="#000000" fill-rule="nonzero" fill-opacity="1" /><path clip-path="url(#clip160)" d="M2222.94 148.965 Q2222.94 144.335 2221.02 141.789 Q2219.12 139.243 2215.67 139.243 Q2212.25 139.243 2210.33 141.789 Q2208.43 144.335 2208.43 148.965 Q2208.43 153.571 2210.33 156.118 Q2212.25 158.664 2215.67 158.664 Q2219.12 158.664 2221.02 156.118 Q2222.94 153.571 2222.94 148.965 M2227.2 159.011 Q2227.2 165.631 2224.26 168.849 Q2221.32 172.09 2215.26 172.09 Q2213.01 172.09 2211.02 171.742 Q2209.03 171.418 2207.15 170.724 L2207.15 166.58 Q2209.03 167.599 2210.86 168.085 Q2212.69 168.571 2214.58 168.571 Q2218.77 168.571 2220.86 166.372 Q2222.94 164.196 2222.94 159.775 L2222.94 157.668 Q2221.62 159.96 2219.56 161.094 Q2217.5 162.229 2214.63 162.229 Q2209.86 162.229 2206.95 158.594 Q2204.03 154.96 2204.03 148.965 Q2204.03 142.946 2206.95 139.312 Q2209.86 135.678 2214.63 135.678 Q2217.5 135.678 2219.56 136.812 Q2221.62 137.946 2222.94 140.238 L2222.94 136.303 L2227.2 136.303 L2227.2 159.011 Z" fill="#000000" fill-rule="nonzero" fill-opacity="1" /><path clip-path="url(#clip160)" d="M2258.15 148.201 L2258.15 150.284 L2238.57 150.284 Q2238.84 154.682 2241.2 156.997 Q2243.59 159.289 2247.82 159.289 Q2250.28 159.289 2252.57 158.687 Q2254.89 158.085 2257.15 156.881 L2257.15 160.909 Q2254.86 161.881 2252.45 162.391 Q2250.05 162.9 2247.57 162.9 Q2241.37 162.9 2237.73 159.289 Q2234.12 155.678 2234.12 149.52 Q2234.12 143.155 2237.55 139.428 Q2241 135.678 2246.83 135.678 Q2252.06 135.678 2255.09 139.057 Q2258.15 142.414 2258.15 148.201 M2253.89 146.951 Q2253.84 143.456 2251.92 141.372 Q2250.02 139.289 2246.88 139.289 Q2243.31 139.289 2241.16 141.303 Q2239.03 143.317 2238.7 146.974 L2253.89 146.951 Z" fill="#000000" fill-rule="nonzero" fill-opacity="1" /><polyline clip-path="url(#clip160)" style="stroke:#e26f46; stroke-linecap:round; stroke-linejoin:round; stroke-width:4; stroke-opacity:1; fill:none" points="1833.19,196.789 1975.1,196.789 "/>
<path clip-path="url(#clip160)" d="M1998.75 188.143 L2003.27 188.143 L2011.37 209.902 L2019.47 188.143 L2023.98 188.143 L2014.26 214.069 L2008.47 214.069 L1998.75 188.143 Z" fill="#000000" fill-rule="nonzero" fill-opacity="1" /><path clip-path="url(#clip160)" d="M2030.51 179.509 L2048.87 179.509 L2048.87 183.444 L2034.79 183.444 L2034.79 191.916 Q2035.81 191.569 2036.83 191.407 Q2037.85 191.222 2038.87 191.222 Q2044.65 191.222 2048.03 194.393 Q2051.41 197.564 2051.41 202.981 Q2051.41 208.559 2047.94 211.661 Q2044.47 214.74 2038.15 214.74 Q2035.97 214.74 2033.71 214.37 Q2031.46 213.999 2029.05 213.258 L2029.05 208.559 Q2031.14 209.694 2033.36 210.249 Q2035.58 210.805 2038.06 210.805 Q2042.06 210.805 2044.4 208.698 Q2046.74 206.592 2046.74 202.981 Q2046.74 199.37 2044.4 197.263 Q2042.06 195.157 2038.06 195.157 Q2036.18 195.157 2034.31 195.573 Q2032.46 195.99 2030.51 196.87 L2030.51 179.509 Z" fill="#000000" fill-rule="nonzero" fill-opacity="1" /><path clip-path="url(#clip160)" d="M2069.28 197.425 L2069.28 204.647 L2077.41 204.647 L2077.41 206.846 L2069.28 206.846 L2069.28 214.069 L2066.85 214.069 L2066.85 206.846 L2058.73 206.846 L2058.73 204.647 L2066.85 204.647 L2066.85 197.425 L2069.28 197.425 Z" fill="#000000" fill-rule="nonzero" fill-opacity="1" /><path clip-path="url(#clip160)" d="M2101.58 188.907 L2101.58 192.934 Q2099.77 192.009 2097.83 191.546 Q2095.88 191.083 2093.8 191.083 Q2090.63 191.083 2089.03 192.055 Q2087.46 193.027 2087.46 194.971 Q2087.46 196.453 2088.59 197.309 Q2089.72 198.143 2093.15 198.907 L2094.61 199.231 Q2099.15 200.203 2101.04 201.985 Q2102.96 203.745 2102.96 206.916 Q2102.96 210.527 2100.09 212.633 Q2097.25 214.74 2092.25 214.74 Q2090.16 214.74 2087.9 214.323 Q2085.65 213.93 2083.15 213.12 L2083.15 208.721 Q2085.51 209.948 2087.8 210.573 Q2090.09 211.175 2092.34 211.175 Q2095.35 211.175 2096.97 210.157 Q2098.59 209.115 2098.59 207.24 Q2098.59 205.504 2097.41 204.578 Q2096.25 203.652 2092.29 202.796 L2090.81 202.448 Q2086.85 201.615 2085.09 199.902 Q2083.34 198.166 2083.34 195.157 Q2083.34 191.499 2085.93 189.509 Q2088.52 187.518 2093.29 187.518 Q2095.65 187.518 2097.73 187.865 Q2099.82 188.212 2101.58 188.907 Z" fill="#000000" fill-rule="nonzero" fill-opacity="1" /><path clip-path="url(#clip160)" d="M2113.96 180.782 L2113.96 188.143 L2122.73 188.143 L2122.73 191.453 L2113.96 191.453 L2113.96 205.527 Q2113.96 208.698 2114.82 209.601 Q2115.7 210.504 2118.36 210.504 L2122.73 210.504 L2122.73 214.069 L2118.36 214.069 Q2113.43 214.069 2111.55 212.24 Q2109.68 210.388 2109.68 205.527 L2109.68 191.453 L2106.55 191.453 L2106.55 188.143 L2109.68 188.143 L2109.68 180.782 L2113.96 180.782 Z" fill="#000000" fill-rule="nonzero" fill-opacity="1" /><path clip-path="url(#clip160)" d="M2138.38 191.129 Q2134.96 191.129 2132.96 193.814 Q2130.97 196.476 2130.97 201.129 Q2130.97 205.782 2132.94 208.467 Q2134.93 211.129 2138.38 211.129 Q2141.78 211.129 2143.77 208.444 Q2145.77 205.758 2145.77 201.129 Q2145.77 196.522 2143.77 193.837 Q2141.78 191.129 2138.38 191.129 M2138.38 187.518 Q2143.94 187.518 2147.11 191.129 Q2150.28 194.74 2150.28 201.129 Q2150.28 207.495 2147.11 211.129 Q2143.94 214.74 2138.38 214.74 Q2132.8 214.74 2129.63 211.129 Q2126.48 207.495 2126.48 201.129 Q2126.48 194.74 2129.63 191.129 Q2132.8 187.518 2138.38 187.518 Z" fill="#000000" fill-rule="nonzero" fill-opacity="1" /><path clip-path="url(#clip160)" d="M2172.36 192.124 Q2171.64 191.708 2170.79 191.522 Q2169.95 191.314 2168.94 191.314 Q2165.33 191.314 2163.38 193.675 Q2161.46 196.013 2161.46 200.411 L2161.46 214.069 L2157.18 214.069 L2157.18 188.143 L2161.46 188.143 L2161.46 192.171 Q2162.8 189.809 2164.95 188.675 Q2167.11 187.518 2170.19 187.518 Q2170.63 187.518 2171.16 187.587 Q2171.69 187.634 2172.34 187.749 L2172.36 192.124 Z" fill="#000000" fill-rule="nonzero" fill-opacity="1" /><path clip-path="url(#clip160)" d="M2188.61 201.036 Q2183.45 201.036 2181.46 202.217 Q2179.47 203.397 2179.47 206.245 Q2179.47 208.513 2180.95 209.856 Q2182.45 211.175 2185.02 211.175 Q2188.57 211.175 2190.7 208.675 Q2192.85 206.152 2192.85 201.985 L2192.85 201.036 L2188.61 201.036 M2197.11 199.277 L2197.11 214.069 L2192.85 214.069 L2192.85 210.133 Q2191.39 212.495 2189.21 213.629 Q2187.04 214.74 2183.89 214.74 Q2179.91 214.74 2177.55 212.518 Q2175.21 210.272 2175.21 206.522 Q2175.21 202.147 2178.13 199.925 Q2181.07 197.703 2186.88 197.703 L2192.85 197.703 L2192.85 197.286 Q2192.85 194.347 2190.9 192.749 Q2188.98 191.129 2185.49 191.129 Q2183.27 191.129 2181.16 191.661 Q2179.05 192.194 2177.11 193.259 L2177.11 189.323 Q2179.45 188.421 2181.64 187.981 Q2183.84 187.518 2185.93 187.518 Q2191.55 187.518 2194.33 190.434 Q2197.11 193.351 2197.11 199.277 Z" fill="#000000" fill-rule="nonzero" fill-opacity="1" /><path clip-path="url(#clip160)" d="M2222.94 200.805 Q2222.94 196.175 2221.02 193.629 Q2219.12 191.083 2215.67 191.083 Q2212.25 191.083 2210.33 193.629 Q2208.43 196.175 2208.43 200.805 Q2208.43 205.411 2210.33 207.958 Q2212.25 210.504 2215.67 210.504 Q2219.12 210.504 2221.02 207.958 Q2222.94 205.411 2222.94 200.805 M2227.2 210.851 Q2227.2 217.471 2224.26 220.689 Q2221.32 223.93 2215.26 223.93 Q2213.01 223.93 2211.02 223.582 Q2209.03 223.258 2207.15 222.564 L2207.15 218.42 Q2209.03 219.439 2210.86 219.925 Q2212.69 220.411 2214.58 220.411 Q2218.77 220.411 2220.86 218.212 Q2222.94 216.036 2222.94 211.615 L2222.94 209.508 Q2221.62 211.8 2219.56 212.934 Q2217.5 214.069 2214.63 214.069 Q2209.86 214.069 2206.95 210.434 Q2204.03 206.8 2204.03 200.805 Q2204.03 194.786 2206.95 191.152 Q2209.86 187.518 2214.63 187.518 Q2217.5 187.518 2219.56 188.652 Q2221.62 189.786 2222.94 192.078 L2222.94 188.143 L2227.2 188.143 L2227.2 210.851 Z" fill="#000000" fill-rule="nonzero" fill-opacity="1" /><path clip-path="url(#clip160)" d="M2258.15 200.041 L2258.15 202.124 L2238.57 202.124 Q2238.84 206.522 2241.2 208.837 Q2243.59 211.129 2247.82 211.129 Q2250.28 211.129 2252.57 210.527 Q2254.89 209.925 2257.15 208.721 L2257.15 212.749 Q2254.86 213.721 2252.45 214.231 Q2250.05 214.74 2247.57 214.74 Q2241.37 214.74 2237.73 211.129 Q2234.12 207.518 2234.12 201.36 Q2234.12 194.995 2237.55 191.268 Q2241 187.518 2246.83 187.518 Q2252.06 187.518 2255.09 190.897 Q2258.15 194.254 2258.15 200.041 M2253.89 198.791 Q2253.84 195.296 2251.92 193.212 Q2250.02 191.129 2246.88 191.129 Q2243.31 191.129 2241.16 193.143 Q2239.03 195.157 2238.7 198.814 L2253.89 198.791 Z" fill="#000000" fill-rule="nonzero" fill-opacity="1" /></svg>
