<?xml version="1.0" encoding="utf-8"?>
<svg xmlns="http://www.w3.org/2000/svg" xmlns:xlink="http://www.w3.org/1999/xlink" width="600" height="400" viewBox="0 0 2400 1600">
<defs>
  <clipPath id="clip190">
    <rect x="0" y="0" width="2400" height="1600"/>
  </clipPath>
</defs>
<path clip-path="url(#clip190)" d="M0 1600 L2400 1600 L2400 0 L0 0  Z" fill="#ffffff" fill-rule="evenodd" fill-opacity="1"/>
<defs>
  <clipPath id="clip191">
    <rect x="480" y="0" width="1681" height="1600"/>
  </clipPath>
</defs>
<path clip-path="url(#clip190)" d="M192.339 1423.18 L2352.76 1423.18 L2352.76 47.2441 L192.339 47.2441  Z" fill="#ffffff" fill-rule="evenodd" fill-opacity="1"/>
<defs>
  <clipPath id="clip192">
    <rect x="192" y="47" width="2161" height="1377"/>
  </clipPath>
</defs>
<polyline clip-path="url(#clip192)" style="stroke:#000000; stroke-linecap:round; stroke-linejoin:round; stroke-width:2; stroke-opacity:0.1; fill:none" points="192.339,1423.18 192.339,47.2441 "/>
<polyline clip-path="url(#clip192)" style="stroke:#000000; stroke-linecap:round; stroke-linejoin:round; stroke-width:2; stroke-opacity:0.1; fill:none" points="732.443,1423.18 732.443,47.2441 "/>
<polyline clip-path="url(#clip192)" style="stroke:#000000; stroke-linecap:round; stroke-linejoin:round; stroke-width:2; stroke-opacity:0.1; fill:none" points="1272.55,1423.18 1272.55,47.2441 "/>
<polyline clip-path="url(#clip192)" style="stroke:#000000; stroke-linecap:round; stroke-linejoin:round; stroke-width:2; stroke-opacity:0.1; fill:none" points="1812.65,1423.18 1812.65,47.2441 "/>
<polyline clip-path="url(#clip192)" style="stroke:#000000; stroke-linecap:round; stroke-linejoin:round; stroke-width:2; stroke-opacity:0.1; fill:none" points="2352.76,1423.18 2352.76,47.2441 "/>
<polyline clip-path="url(#clip192)" style="stroke:#000000; stroke-linecap:round; stroke-linejoin:round; stroke-width:2; stroke-opacity:0.1; fill:none" points="192.339,1381.3 2352.76,1381.3 "/>
<polyline clip-path="url(#clip192)" style="stroke:#000000; stroke-linecap:round; stroke-linejoin:round; stroke-width:2; stroke-opacity:0.1; fill:none" points="192.339,1093.77 2352.76,1093.77 "/>
<polyline clip-path="url(#clip192)" style="stroke:#000000; stroke-linecap:round; stroke-linejoin:round; stroke-width:2; stroke-opacity:0.1; fill:none" points="192.339,806.239 2352.76,806.239 "/>
<polyline clip-path="url(#clip192)" style="stroke:#000000; stroke-linecap:round; stroke-linejoin:round; stroke-width:2; stroke-opacity:0.1; fill:none" points="192.339,518.708 2352.76,518.708 "/>
<polyline clip-path="url(#clip192)" style="stroke:#000000; stroke-linecap:round; stroke-linejoin:round; stroke-width:2; stroke-opacity:0.1; fill:none" points="192.339,231.176 2352.76,231.176 "/>
<polyline clip-path="url(#clip190)" style="stroke:#000000; stroke-linecap:round; stroke-linejoin:round; stroke-width:4; stroke-opacity:1; fill:none" points="192.339,1423.18 2352.76,1423.18 "/>
<polyline clip-path="url(#clip190)" style="stroke:#000000; stroke-linecap:round; stroke-linejoin:round; stroke-width:4; stroke-opacity:1; fill:none" points="192.339,1423.18 192.339,1404.28 "/>
<polyline clip-path="url(#clip190)" style="stroke:#000000; stroke-linecap:round; stroke-linejoin:round; stroke-width:4; stroke-opacity:1; fill:none" points="732.443,1423.18 732.443,1404.28 "/>
<polyline clip-path="url(#clip190)" style="stroke:#000000; stroke-linecap:round; stroke-linejoin:round; stroke-width:4; stroke-opacity:1; fill:none" points="1272.55,1423.18 1272.55,1404.28 "/>
<polyline clip-path="url(#clip190)" style="stroke:#000000; stroke-linecap:round; stroke-linejoin:round; stroke-width:4; stroke-opacity:1; fill:none" points="1812.65,1423.18 1812.65,1404.28 "/>
<polyline clip-path="url(#clip190)" style="stroke:#000000; stroke-linecap:round; stroke-linejoin:round; stroke-width:4; stroke-opacity:1; fill:none" points="2352.76,1423.18 2352.76,1404.28 "/>
<path clip-path="url(#clip190)" d="M169.723 1454.1 Q166.112 1454.1 164.283 1457.66 Q162.478 1461.2 162.478 1468.33 Q162.478 1475.44 164.283 1479.01 Q166.112 1482.55 169.723 1482.55 Q173.357 1482.55 175.163 1479.01 Q176.992 1475.44 176.992 1468.33 Q176.992 1461.2 175.163 1457.66 Q173.357 1454.1 169.723 1454.1 M169.723 1450.39 Q175.533 1450.39 178.589 1455 Q181.668 1459.58 181.668 1468.33 Q181.668 1477.06 178.589 1481.67 Q175.533 1486.25 169.723 1486.25 Q163.913 1486.25 160.834 1481.67 Q157.779 1477.06 157.779 1468.33 Q157.779 1459.58 160.834 1455 Q163.913 1450.39 169.723 1450.39 Z" fill="#000000" fill-rule="nonzero" fill-opacity="1" /><path clip-path="url(#clip190)" d="M189.885 1479.7 L194.769 1479.7 L194.769 1485.58 L189.885 1485.58 L189.885 1479.7 Z" fill="#000000" fill-rule="nonzero" fill-opacity="1" /><path clip-path="url(#clip190)" d="M214.954 1454.1 Q211.343 1454.1 209.515 1457.66 Q207.709 1461.2 207.709 1468.33 Q207.709 1475.44 209.515 1479.01 Q211.343 1482.55 214.954 1482.55 Q218.589 1482.55 220.394 1479.01 Q222.223 1475.44 222.223 1468.33 Q222.223 1461.2 220.394 1457.66 Q218.589 1454.1 214.954 1454.1 M214.954 1450.39 Q220.765 1450.39 223.82 1455 Q226.899 1459.58 226.899 1468.33 Q226.899 1477.06 223.82 1481.67 Q220.765 1486.25 214.954 1486.25 Q209.144 1486.25 206.066 1481.67 Q203.01 1477.06 203.01 1468.33 Q203.01 1459.58 206.066 1455 Q209.144 1450.39 214.954 1450.39 Z" fill="#000000" fill-rule="nonzero" fill-opacity="1" /><path clip-path="url(#clip190)" d="M710.325 1454.1 Q706.714 1454.1 704.885 1457.66 Q703.08 1461.2 703.08 1468.33 Q703.08 1475.44 704.885 1479.01 Q706.714 1482.55 710.325 1482.55 Q713.959 1482.55 715.765 1479.01 Q717.594 1475.44 717.594 1468.33 Q717.594 1461.2 715.765 1457.66 Q713.959 1454.1 710.325 1454.1 M710.325 1450.39 Q716.135 1450.39 719.191 1455 Q722.27 1459.58 722.27 1468.33 Q722.27 1477.06 719.191 1481.67 Q716.135 1486.25 710.325 1486.25 Q704.515 1486.25 701.436 1481.67 Q698.381 1477.06 698.381 1468.33 Q698.381 1459.58 701.436 1455 Q704.515 1450.39 710.325 1450.39 Z" fill="#000000" fill-rule="nonzero" fill-opacity="1" /><path clip-path="url(#clip190)" d="M730.487 1479.7 L735.371 1479.7 L735.371 1485.58 L730.487 1485.58 L730.487 1479.7 Z" fill="#000000" fill-rule="nonzero" fill-opacity="1" /><path clip-path="url(#clip190)" d="M745.603 1451.02 L763.959 1451.02 L763.959 1454.96 L749.885 1454.96 L749.885 1463.43 Q750.904 1463.08 751.922 1462.92 Q752.941 1462.73 753.959 1462.73 Q759.746 1462.73 763.126 1465.9 Q766.505 1469.08 766.505 1474.49 Q766.505 1480.07 763.033 1483.17 Q759.561 1486.25 753.242 1486.25 Q751.066 1486.25 748.797 1485.88 Q746.552 1485.51 744.144 1484.77 L744.144 1480.07 Q746.228 1481.2 748.45 1481.76 Q750.672 1482.32 753.149 1482.32 Q757.154 1482.32 759.492 1480.21 Q761.829 1478.1 761.829 1474.49 Q761.829 1470.88 759.492 1468.77 Q757.154 1466.67 753.149 1466.67 Q751.274 1466.67 749.399 1467.08 Q747.547 1467.5 745.603 1468.38 L745.603 1451.02 Z" fill="#000000" fill-rule="nonzero" fill-opacity="1" /><path clip-path="url(#clip190)" d="M1239.7 1481.64 L1247.34 1481.64 L1247.34 1455.28 L1239.03 1456.95 L1239.03 1452.69 L1247.29 1451.02 L1251.97 1451.02 L1251.97 1481.64 L1259.61 1481.64 L1259.61 1485.58 L1239.7 1485.58 L1239.7 1481.64 Z" fill="#000000" fill-rule="nonzero" fill-opacity="1" /><path clip-path="url(#clip190)" d="M1269.05 1479.7 L1273.94 1479.7 L1273.94 1485.58 L1269.05 1485.58 L1269.05 1479.7 Z" fill="#000000" fill-rule="nonzero" fill-opacity="1" /><path clip-path="url(#clip190)" d="M1294.12 1454.1 Q1290.51 1454.1 1288.68 1457.66 Q1286.88 1461.2 1286.88 1468.33 Q1286.88 1475.44 1288.68 1479.01 Q1290.51 1482.55 1294.12 1482.55 Q1297.76 1482.55 1299.56 1479.01 Q1301.39 1475.44 1301.39 1468.33 Q1301.39 1461.2 1299.56 1457.66 Q1297.76 1454.1 1294.12 1454.1 M1294.12 1450.39 Q1299.93 1450.39 1302.99 1455 Q1306.07 1459.58 1306.07 1468.33 Q1306.07 1477.06 1302.99 1481.67 Q1299.93 1486.25 1294.12 1486.25 Q1288.31 1486.25 1285.23 1481.67 Q1282.18 1477.06 1282.18 1468.33 Q1282.18 1459.58 1285.23 1455 Q1288.31 1450.39 1294.12 1450.39 Z" fill="#000000" fill-rule="nonzero" fill-opacity="1" /><path clip-path="url(#clip190)" d="M1780.3 1481.64 L1787.94 1481.64 L1787.94 1455.28 L1779.63 1456.95 L1779.63 1452.69 L1787.89 1451.02 L1792.57 1451.02 L1792.57 1481.64 L1800.21 1481.64 L1800.21 1485.58 L1780.3 1485.58 L1780.3 1481.64 Z" fill="#000000" fill-rule="nonzero" fill-opacity="1" /><path clip-path="url(#clip190)" d="M1809.65 1479.7 L1814.54 1479.7 L1814.54 1485.58 L1809.65 1485.58 L1809.65 1479.7 Z" fill="#000000" fill-rule="nonzero" fill-opacity="1" /><path clip-path="url(#clip190)" d="M1824.77 1451.02 L1843.13 1451.02 L1843.13 1454.96 L1829.05 1454.96 L1829.05 1463.43 Q1830.07 1463.08 1831.09 1462.92 Q1832.11 1462.73 1833.13 1462.73 Q1838.91 1462.73 1842.29 1465.9 Q1845.67 1469.08 1845.67 1474.49 Q1845.67 1480.07 1842.2 1483.17 Q1838.73 1486.25 1832.41 1486.25 Q1830.23 1486.25 1827.96 1485.88 Q1825.72 1485.51 1823.31 1484.77 L1823.31 1480.07 Q1825.39 1481.2 1827.62 1481.76 Q1829.84 1482.32 1832.32 1482.32 Q1836.32 1482.32 1838.66 1480.21 Q1841 1478.1 1841 1474.49 Q1841 1470.88 1838.66 1468.77 Q1836.32 1466.67 1832.32 1466.67 Q1830.44 1466.67 1828.57 1467.08 Q1826.71 1467.5 1824.77 1468.38 L1824.77 1451.02 Z" fill="#000000" fill-rule="nonzero" fill-opacity="1" /><path clip-path="url(#clip190)" d="M2323.99 1481.64 L2340.31 1481.64 L2340.31 1485.58 L2318.37 1485.58 L2318.37 1481.64 Q2321.03 1478.89 2325.61 1474.26 Q2330.22 1469.61 2331.4 1468.27 Q2333.65 1465.74 2334.53 1464.01 Q2335.43 1462.25 2335.43 1460.56 Q2335.43 1457.8 2333.49 1456.07 Q2331.56 1454.33 2328.46 1454.33 Q2326.26 1454.33 2323.81 1455.09 Q2321.38 1455.86 2318.6 1457.41 L2318.6 1452.69 Q2321.43 1451.55 2323.88 1450.97 Q2326.33 1450.39 2328.37 1450.39 Q2333.74 1450.39 2336.93 1453.08 Q2340.13 1455.77 2340.13 1460.26 Q2340.13 1462.39 2339.32 1464.31 Q2338.53 1466.2 2336.42 1468.8 Q2335.85 1469.47 2332.74 1472.69 Q2329.64 1475.88 2323.99 1481.64 Z" fill="#000000" fill-rule="nonzero" fill-opacity="1" /><path clip-path="url(#clip190)" d="M2350.13 1479.7 L2355.01 1479.7 L2355.01 1485.58 L2350.13 1485.58 L2350.13 1479.7 Z" fill="#000000" fill-rule="nonzero" fill-opacity="1" /><path clip-path="url(#clip190)" d="M2375.2 1454.1 Q2371.59 1454.1 2369.76 1457.66 Q2367.95 1461.2 2367.95 1468.33 Q2367.95 1475.44 2369.76 1479.01 Q2371.59 1482.55 2375.2 1482.55 Q2378.83 1482.55 2380.64 1479.01 Q2382.47 1475.44 2382.47 1468.33 Q2382.47 1461.2 2380.64 1457.66 Q2378.83 1454.1 2375.2 1454.1 M2375.2 1450.39 Q2381.01 1450.39 2384.06 1455 Q2387.14 1459.58 2387.14 1468.33 Q2387.14 1477.06 2384.06 1481.67 Q2381.01 1486.25 2375.2 1486.25 Q2369.39 1486.25 2366.31 1481.67 Q2363.25 1477.06 2363.25 1468.33 Q2363.25 1459.58 2366.31 1455 Q2369.39 1450.39 2375.2 1450.39 Z" fill="#000000" fill-rule="nonzero" fill-opacity="1" /><path clip-path="url(#clip190)" d="M1271.61 1522.27 L1271.61 1532.4 L1283.67 1532.4 L1283.67 1536.95 L1271.61 1536.95 L1271.61 1556.3 Q1271.61 1560.66 1272.79 1561.9 Q1274 1563.14 1277.66 1563.14 L1283.67 1563.14 L1283.67 1568.04 L1277.66 1568.04 Q1270.88 1568.04 1268.3 1565.53 Q1265.72 1562.98 1265.72 1556.3 L1265.72 1536.95 L1261.42 1536.95 L1261.42 1532.4 L1265.72 1532.4 L1265.72 1522.27 L1271.61 1522.27 Z" fill="#000000" fill-rule="nonzero" fill-opacity="1" /><polyline clip-path="url(#clip190)" style="stroke:#000000; stroke-linecap:round; stroke-linejoin:round; stroke-width:4; stroke-opacity:1; fill:none" points="192.339,1423.18 192.339,47.2441 "/>
<polyline clip-path="url(#clip190)" style="stroke:#000000; stroke-linecap:round; stroke-linejoin:round; stroke-width:4; stroke-opacity:1; fill:none" points="192.339,1381.3 211.236,1381.3 "/>
<polyline clip-path="url(#clip190)" style="stroke:#000000; stroke-linecap:round; stroke-linejoin:round; stroke-width:4; stroke-opacity:1; fill:none" points="192.339,1093.77 211.236,1093.77 "/>
<polyline clip-path="url(#clip190)" style="stroke:#000000; stroke-linecap:round; stroke-linejoin:round; stroke-width:4; stroke-opacity:1; fill:none" points="192.339,806.239 211.236,806.239 "/>
<polyline clip-path="url(#clip190)" style="stroke:#000000; stroke-linecap:round; stroke-linejoin:round; stroke-width:4; stroke-opacity:1; fill:none" points="192.339,518.708 211.236,518.708 "/>
<polyline clip-path="url(#clip190)" style="stroke:#000000; stroke-linecap:round; stroke-linejoin:round; stroke-width:4; stroke-opacity:1; fill:none" points="192.339,231.176 211.236,231.176 "/>
<path clip-path="url(#clip190)" d="M50.9921 1381.75 L80.6679 1381.75 L80.6679 1385.69 L50.9921 1385.69 L50.9921 1381.75 Z" fill="#000000" fill-rule="nonzero" fill-opacity="1" /><path clip-path="url(#clip190)" d="M100.76 1367.1 Q97.1493 1367.1 95.3206 1370.67 Q93.515 1374.21 93.515 1381.34 Q93.515 1388.44 95.3206 1392.01 Q97.1493 1395.55 100.76 1395.55 Q104.395 1395.55 106.2 1392.01 Q108.029 1388.44 108.029 1381.34 Q108.029 1374.21 106.2 1370.67 Q104.395 1367.1 100.76 1367.1 M100.76 1363.4 Q106.571 1363.4 109.626 1368 Q112.705 1372.59 112.705 1381.34 Q112.705 1390.06 109.626 1394.67 Q106.571 1399.25 100.76 1399.25 Q94.9502 1399.25 91.8715 1394.67 Q88.816 1390.06 88.816 1381.34 Q88.816 1372.59 91.8715 1368 Q94.9502 1363.4 100.76 1363.4 Z" fill="#000000" fill-rule="nonzero" fill-opacity="1" /><path clip-path="url(#clip190)" d="M120.922 1392.7 L125.807 1392.7 L125.807 1398.58 L120.922 1398.58 L120.922 1392.7 Z" fill="#000000" fill-rule="nonzero" fill-opacity="1" /><path clip-path="url(#clip190)" d="M140.019 1394.65 L156.339 1394.65 L156.339 1398.58 L134.394 1398.58 L134.394 1394.65 Q137.056 1391.89 141.64 1387.26 Q146.246 1382.61 147.427 1381.27 Q149.672 1378.74 150.552 1377.01 Q151.455 1375.25 151.455 1373.56 Q151.455 1370.8 149.51 1369.07 Q147.589 1367.33 144.487 1367.33 Q142.288 1367.33 139.834 1368.1 Q137.404 1368.86 134.626 1370.41 L134.626 1365.69 Q137.45 1364.55 139.904 1363.98 Q142.357 1363.4 144.394 1363.4 Q149.765 1363.4 152.959 1366.08 Q156.154 1368.77 156.154 1373.26 Q156.154 1375.39 155.343 1377.31 Q154.556 1379.21 152.45 1381.8 Q151.871 1382.47 148.769 1385.69 Q145.668 1388.88 140.019 1394.65 Z" fill="#000000" fill-rule="nonzero" fill-opacity="1" /><path clip-path="url(#clip190)" d="M99.1632 1079.57 Q95.5521 1079.57 93.7234 1083.13 Q91.9178 1086.68 91.9178 1093.81 Q91.9178 1100.91 93.7234 1104.48 Q95.5521 1108.02 99.1632 1108.02 Q102.797 1108.02 104.603 1104.48 Q106.432 1100.91 106.432 1093.81 Q106.432 1086.68 104.603 1083.13 Q102.797 1079.57 99.1632 1079.57 M99.1632 1075.87 Q104.973 1075.87 108.029 1080.47 Q111.108 1085.06 111.108 1093.81 Q111.108 1102.53 108.029 1107.14 Q104.973 1111.72 99.1632 1111.72 Q93.353 1111.72 90.2743 1107.14 Q87.2188 1102.53 87.2188 1093.81 Q87.2188 1085.06 90.2743 1080.47 Q93.353 1075.87 99.1632 1075.87 Z" fill="#000000" fill-rule="nonzero" fill-opacity="1" /><path clip-path="url(#clip190)" d="M119.325 1105.17 L124.209 1105.17 L124.209 1111.05 L119.325 1111.05 L119.325 1105.17 Z" fill="#000000" fill-rule="nonzero" fill-opacity="1" /><path clip-path="url(#clip190)" d="M144.394 1079.57 Q140.783 1079.57 138.955 1083.13 Q137.149 1086.68 137.149 1093.81 Q137.149 1100.91 138.955 1104.48 Q140.783 1108.02 144.394 1108.02 Q148.029 1108.02 149.834 1104.48 Q151.663 1100.91 151.663 1093.81 Q151.663 1086.68 149.834 1083.13 Q148.029 1079.57 144.394 1079.57 M144.394 1075.87 Q150.205 1075.87 153.26 1080.47 Q156.339 1085.06 156.339 1093.81 Q156.339 1102.53 153.26 1107.14 Q150.205 1111.72 144.394 1111.72 Q138.584 1111.72 135.506 1107.14 Q132.45 1102.53 132.45 1093.81 Q132.45 1085.06 135.506 1080.47 Q138.584 1075.87 144.394 1075.87 Z" fill="#000000" fill-rule="nonzero" fill-opacity="1" /><path clip-path="url(#clip190)" d="M100.76 792.038 Q97.1493 792.038 95.3206 795.603 Q93.515 799.145 93.515 806.274 Q93.515 813.381 95.3206 816.945 Q97.1493 820.487 100.76 820.487 Q104.395 820.487 106.2 816.945 Q108.029 813.381 108.029 806.274 Q108.029 799.145 106.2 795.603 Q104.395 792.038 100.76 792.038 M100.76 788.334 Q106.571 788.334 109.626 792.941 Q112.705 797.524 112.705 806.274 Q112.705 815.001 109.626 819.607 Q106.571 824.191 100.76 824.191 Q94.9502 824.191 91.8715 819.607 Q88.816 815.001 88.816 806.274 Q88.816 797.524 91.8715 792.941 Q94.9502 788.334 100.76 788.334 Z" fill="#000000" fill-rule="nonzero" fill-opacity="1" /><path clip-path="url(#clip190)" d="M120.922 817.64 L125.807 817.64 L125.807 823.519 L120.922 823.519 L120.922 817.64 Z" fill="#000000" fill-rule="nonzero" fill-opacity="1" /><path clip-path="url(#clip190)" d="M140.019 819.584 L156.339 819.584 L156.339 823.519 L134.394 823.519 L134.394 819.584 Q137.056 816.83 141.64 812.2 Q146.246 807.547 147.427 806.205 Q149.672 803.682 150.552 801.945 Q151.455 800.186 151.455 798.496 Q151.455 795.742 149.51 794.006 Q147.589 792.27 144.487 792.27 Q142.288 792.27 139.834 793.034 Q137.404 793.797 134.626 795.348 L134.626 790.626 Q137.45 789.492 139.904 788.913 Q142.357 788.334 144.394 788.334 Q149.765 788.334 152.959 791.02 Q156.154 793.705 156.154 798.196 Q156.154 800.325 155.343 802.246 Q154.556 804.145 152.45 806.737 Q151.871 807.408 148.769 810.626 Q145.668 813.82 140.019 819.584 Z" fill="#000000" fill-rule="nonzero" fill-opacity="1" /><path clip-path="url(#clip190)" d="M98.6771 504.507 Q95.066 504.507 93.2373 508.071 Q91.4317 511.613 91.4317 518.743 Q91.4317 525.849 93.2373 529.414 Q95.066 532.956 98.6771 532.956 Q102.311 532.956 104.117 529.414 Q105.946 525.849 105.946 518.743 Q105.946 511.613 104.117 508.071 Q102.311 504.507 98.6771 504.507 M98.6771 500.803 Q104.487 500.803 107.543 505.409 Q110.621 509.993 110.621 518.743 Q110.621 527.469 107.543 532.076 Q104.487 536.659 98.6771 536.659 Q92.8669 536.659 89.7882 532.076 Q86.7327 527.469 86.7327 518.743 Q86.7327 509.993 89.7882 505.409 Q92.8669 500.803 98.6771 500.803 Z" fill="#000000" fill-rule="nonzero" fill-opacity="1" /><path clip-path="url(#clip190)" d="M118.839 530.108 L123.723 530.108 L123.723 535.988 L118.839 535.988 L118.839 530.108 Z" fill="#000000" fill-rule="nonzero" fill-opacity="1" /><path clip-path="url(#clip190)" d="M146.756 505.502 L134.95 523.951 L146.756 523.951 L146.756 505.502 M145.529 501.428 L151.408 501.428 L151.408 523.951 L156.339 523.951 L156.339 527.84 L151.408 527.84 L151.408 535.988 L146.756 535.988 L146.756 527.84 L131.154 527.84 L131.154 523.326 L145.529 501.428 Z" fill="#000000" fill-rule="nonzero" fill-opacity="1" /><path clip-path="url(#clip190)" d="M99.0011 216.975 Q95.39 216.975 93.5613 220.54 Q91.7558 224.082 91.7558 231.211 Q91.7558 238.318 93.5613 241.882 Q95.39 245.424 99.0011 245.424 Q102.635 245.424 104.441 241.882 Q106.27 238.318 106.27 231.211 Q106.27 224.082 104.441 220.54 Q102.635 216.975 99.0011 216.975 M99.0011 213.271 Q104.811 213.271 107.867 217.878 Q110.946 222.461 110.946 231.211 Q110.946 239.938 107.867 244.544 Q104.811 249.128 99.0011 249.128 Q93.191 249.128 90.1123 244.544 Q87.0567 239.938 87.0567 231.211 Q87.0567 222.461 90.1123 217.878 Q93.191 213.271 99.0011 213.271 Z" fill="#000000" fill-rule="nonzero" fill-opacity="1" /><path clip-path="url(#clip190)" d="M119.163 242.577 L124.047 242.577 L124.047 248.456 L119.163 248.456 L119.163 242.577 Z" fill="#000000" fill-rule="nonzero" fill-opacity="1" /><path clip-path="url(#clip190)" d="M144.811 229.313 Q141.663 229.313 139.811 231.466 Q137.982 233.619 137.982 237.369 Q137.982 241.095 139.811 243.271 Q141.663 245.424 144.811 245.424 Q147.959 245.424 149.788 243.271 Q151.64 241.095 151.64 237.369 Q151.64 233.619 149.788 231.466 Q147.959 229.313 144.811 229.313 M154.093 214.66 L154.093 218.92 Q152.334 218.086 150.529 217.646 Q148.746 217.207 146.987 217.207 Q142.357 217.207 139.904 220.332 Q137.473 223.457 137.126 229.776 Q138.492 227.762 140.552 226.697 Q142.612 225.609 145.089 225.609 Q150.297 225.609 153.306 228.781 Q156.339 231.929 156.339 237.369 Q156.339 242.693 153.191 245.91 Q150.043 249.128 144.811 249.128 Q138.816 249.128 135.644 244.544 Q132.473 239.938 132.473 231.211 Q132.473 223.017 136.362 218.156 Q140.251 213.271 146.802 213.271 Q148.561 213.271 150.343 213.619 Q152.149 213.966 154.093 214.66 Z" fill="#000000" fill-rule="nonzero" fill-opacity="1" /><polyline clip-path="url(#clip192)" style="stroke:#009af9; stroke-linecap:round; stroke-linejoin:round; stroke-width:4; stroke-opacity:1; fill:none" points="192.339,1384.24 194.501,1380.08 196.664,1375.97 198.827,1371.9 200.989,1367.87 203.152,1363.88 205.314,1359.92 207.477,1356.01 209.639,1352.14 211.802,1348.3 213.965,1344.51 216.127,1340.75 218.29,1337.03 220.452,1333.34 222.615,1329.69 224.777,1326.08 226.94,1322.51 229.103,1318.97 231.265,1315.46 233.428,1311.99 235.59,1308.56 237.753,1305.16 239.916,1301.79 242.078,1298.46 244.241,1295.16 246.403,1291.89 248.566,1288.66 250.728,1285.45 252.891,1282.28 255.054,1279.14 257.216,1276.04 259.379,1272.96 261.541,1269.91 263.704,1266.9 265.866,1263.91 268.029,1260.95 270.192,1258.03 272.354,1255.13 274.517,1252.26 276.679,1249.42 278.842,1246.61 281.005,1243.83 283.167,1241.07 285.33,1238.34 287.492,1235.64 289.655,1232.97 291.817,1230.32 293.98,1227.7 296.143,1225.1 298.305,1222.53 300.468,1219.99 302.63,1217.47 304.793,1214.98 306.956,1212.51 309.118,1210.06 311.281,1207.64 313.443,1205.25 315.606,1202.88 317.768,1200.53 319.931,1198.2 322.094,1195.9 324.256,1193.62 326.419,1191.37 328.581,1189.13 330.744,1186.92 332.906,1184.73 335.069,1182.56 337.232,1180.42 339.394,1178.29 341.557,1176.19 343.719,1174.11 345.882,1172.05 348.045,1170.01 350.207,1167.98 352.37,1165.98 354.532,1164 356.695,1162.04 358.857,1160.1 361.02,1158.18 363.183,1156.28 365.345,1154.39 367.508,1152.53 369.67,1150.68 371.833,1148.85 373.995,1147.04 376.158,1145.25 378.321,1143.48 380.483,1141.72 382.646,1139.98 384.808,1138.26 386.971,1136.55 389.134,1134.87 391.296,1133.2 393.459,1131.54 395.621,1129.9 397.784,1128.28 399.946,1126.68 402.109,1125.09 404.272,1123.51 406.434,1121.96 408.597,1120.41 410.759,1118.89 412.922,1117.38 415.084,1115.88 417.247,1114.4 419.41,1112.93 421.572,1111.48 423.735,1110.04 425.897,1108.62 428.06,1107.21 430.223,1105.81 432.385,1104.43 434.548,1103.06 436.71,1101.71 438.873,1100.37 441.035,1099.04 443.198,1097.73 445.361,1096.43 447.523,1095.14 449.686,1093.86 451.848,1092.6 454.011,1091.35 456.174,1090.11 458.336,1088.89 460.499,1087.68 462.661,1086.47 464.824,1085.29 466.986,1084.11 469.149,1082.94 471.312,1081.79 473.474,1080.65 475.637,1079.52 477.799,1078.4 479.962,1077.29 482.124,1076.19 484.287,1075.11 486.45,1074.03 488.612,1072.97 490.775,1071.91 492.937,1070.87 495.1,1069.83 497.263,1068.81 499.425,1067.8 501.588,1066.8 503.75,1065.8 505.913,1064.82 508.075,1063.85 510.238,1062.88 512.401,1061.93 514.563,1060.99 516.726,1060.05 518.888,1059.12 521.051,1058.21 523.213,1057.3 525.376,1056.4 527.539,1055.51 529.701,1054.63 531.864,1053.76 534.026,1052.9 536.189,1052.04 538.352,1051.2 540.514,1050.36 542.677,1049.53 544.839,1048.71 547.002,1047.9 549.164,1047.09 551.327,1046.3 553.49,1045.51 555.652,1044.73 557.815,1043.95 559.977,1043.19 562.14,1042.43 564.302,1041.68 566.465,1040.94 568.628,1040.2 570.79,1039.48 572.953,1038.75 575.115,1038.04 577.278,1037.33 579.441,1036.64 581.603,1035.94 583.766,1035.26 585.928,1034.58 588.091,1033.91 590.253,1033.24 592.416,1032.58 594.579,1031.93 596.741,1031.29 598.904,1030.65 601.066,1030.01 603.229,1029.39 605.392,1028.77 607.554,1028.15 609.717,1027.55 611.879,1026.94 614.042,1026.35 616.204,1025.76 618.367,1025.17 620.53,1024.59 622.692,1024.02 624.855,1023.46 627.017,1022.89 629.18,1022.34 631.342,1021.79 633.505,1021.24 635.668,1020.7 637.83,1020.17 639.993,1019.64 642.155,1019.12 644.318,1018.6 646.481,1018.09 648.643,1017.58 650.806,1017.08 652.968,1016.58 655.131,1016.09 657.293,1015.6 659.456,1015.12 661.619,1014.64 663.781,1014.17 665.944,1013.7 668.106,1013.23 670.269,1012.77 672.431,1012.32 674.594,1011.87 676.757,1011.42 678.919,1010.98 681.082,1010.55 683.244,1010.11 685.407,1009.68 687.57,1009.26 689.732,1008.84 691.895,1008.43 694.057,1008.01 696.22,1007.61 698.382,1007.2 700.545,1006.8 702.708,1006.41 704.87,1006.02 707.033,1005.63 709.195,1005.25 711.358,1004.87 713.52,1004.49 715.683,1004.12 717.846,1003.75 720.008,1003.39 722.171,1003.02 724.333,1002.67 726.496,1002.31 728.659,1001.96 730.821,1001.62 732.984,1001.27 735.146,1000.93 737.309,1000.59 739.471,1000.26 741.634,999.931 743.797,999.604 745.959,999.28 748.122,998.96 750.284,998.643 752.447,998.329 754.61,998.018 756.772,997.71 758.935,997.405 761.097,997.103 763.26,996.805 765.422,996.509 767.585,996.216 769.748,995.926 771.91,995.639 774.073,995.355 776.235,995.074 778.398,994.795 780.56,994.519 782.723,994.247 784.886,993.976 787.048,993.709 789.211,993.444 791.373,993.182 793.536,992.922 795.699,992.665 797.861,992.411 800.024,992.159 802.186,991.909 804.349,991.663 806.511,991.418 808.674,991.176 810.837,990.937 812.999,990.699 815.162,990.465 817.324,990.232 819.487,990.002 821.649,989.774 823.812,989.549 825.975,989.325 828.137,989.104 830.3,988.885 832.462,988.668 834.625,988.454 836.788,988.241 838.95,988.031 841.113,987.823 843.275,987.617 845.438,987.413 847.6,987.211 849.763,987.01 851.926,986.812 854.088,986.616 856.251,986.422 858.413,986.23 860.576,986.04 862.738,985.851 864.901,985.665 867.064,985.48 869.226,985.297 871.389,985.116 873.551,984.937 875.714,984.759 877.877,984.583 880.039,984.409 882.202,984.237 884.364,984.066 886.527,983.897 888.689,983.73 890.852,983.565 893.015,983.401 895.177,983.238 897.34,983.078 899.502,982.919 901.665,982.761 903.828,982.605 905.99,982.451 908.153,982.298 910.315,982.147 912.478,981.997 914.64,981.849 916.803,981.702 918.966,981.556 921.128,981.413 923.291,981.27 925.453,981.129 927.616,980.989 929.778,980.851 931.941,980.714 934.104,980.579 936.266,980.445 938.429,980.312 940.591,980.181 942.754,980.051 944.917,979.922 947.079,979.794 949.242,979.668 951.404,979.543 953.567,979.419 955.729,979.297 957.892,979.175 960.055,979.055 962.217,978.937 964.38,978.819 966.542,978.702 968.705,978.587 970.867,978.473 973.03,978.36 975.193,978.248 977.355,978.137 979.518,978.028 981.68,977.919 983.843,977.811 986.006,977.705 988.168,977.6 990.331,977.495 992.493,977.392 994.656,977.29 996.818,977.189 998.981,977.088 1001.14,976.989 1003.31,976.891 1005.47,976.794 1007.63,976.697 1009.79,976.602 1011.96,976.508 1014.12,976.414 1016.28,976.322 1018.44,976.23 1020.61,976.139 1022.77,976.05 1024.93,975.961 1027.09,975.873 1029.26,975.786 1031.42,975.699 1033.58,975.614 1035.74,975.529 1037.91,975.445 1040.07,975.362 1042.23,975.28 1044.4,975.199 1046.56,975.118 1048.72,975.039 1050.88,974.96 1053.05,974.882 1055.21,974.804 1057.37,974.728 1059.53,974.652 1061.7,974.577 1063.86,974.502 1066.02,974.429 1068.18,974.356 1070.35,974.283 1072.51,974.212 1074.67,974.141 1076.83,974.071 1079,974.002 1081.16,973.933 1083.32,973.865 1085.48,973.798 1087.65,973.731 1089.81,973.665 1091.97,973.6 1094.13,973.536 1096.3,973.472 1098.46,973.408 1100.62,973.346 1102.78,973.283 1104.95,973.222 1107.11,973.161 1109.27,973.101 1111.44,973.041 1113.6,972.982 1115.76,972.924 1117.92,972.866 1120.09,972.809 1122.25,972.752 1124.41,972.696 1126.57,972.64 1128.74,972.585 1130.9,972.531 1133.06,972.477 1135.22,972.424 1137.39,972.371 1139.55,972.319 1141.71,972.267 1143.87,972.216 1146.04,972.165 1148.2,972.115 1150.36,972.065 1152.52,972.016 1154.69,971.967 1156.85,971.919 1159.01,971.871 1161.17,971.824 1163.34,971.777 1165.5,971.731 1167.66,971.685 1169.82,971.639 1171.99,971.594 1174.15,971.55 1176.31,971.506 1178.48,971.462 1180.64,971.419 1182.8,971.376 1184.96,971.334 1187.13,971.292 1189.29,971.25 1191.45,971.209 1193.61,971.169 1195.78,971.128 1197.94,971.088 1200.1,971.049 1202.26,971.01 1204.43,970.971 1206.59,970.933 1208.75,970.895 1210.91,970.857 1213.08,970.82 1215.24,970.783 1217.4,970.747 1219.56,970.71 1221.73,970.675 1223.89,970.639 1226.05,970.604 1228.21,970.569 1230.38,970.535 1232.54,970.501 1234.7,970.467 1236.86,970.434 1239.03,970.401 1241.19,970.368 1243.35,970.335 1245.52,970.303 1247.68,970.271 1249.84,970.24 1252,970.209 1254.17,970.178 1256.33,970.147 1258.49,970.117 1260.65,970.087 1262.82,970.057 1264.98,970.028 1267.14,969.999 1269.3,969.97 1271.47,969.942 1273.63,969.913 1275.79,969.885 1277.95,969.858 1280.12,969.83 1282.28,969.803 1284.44,969.777 1286.6,969.75 1288.77,969.724 1290.93,969.698 1293.09,969.672 1295.25,969.646 1297.42,969.621 1299.58,969.596 1301.74,969.571 1303.9,969.547 1306.07,969.523 1308.23,969.499 1310.39,969.475 1312.56,969.451 1314.72,969.428 1316.88,969.405 1319.04,969.382 1321.21,969.36 1323.37,969.337 1325.53,969.315 1327.69,969.293 1329.86,969.272 1332.02,969.25 1334.18,969.229 1336.34,969.208 1338.51,969.187 1340.67,969.167 1342.83,969.146 1344.99,969.126 1347.16,969.106 1349.32,969.086 1351.48,969.067 1353.64,969.048 1355.81,969.028 1357.97,969.009 1360.13,968.991 1362.29,968.972 1364.46,968.954 1366.62,968.935 1368.78,968.917 1370.94,968.9 1373.11,968.882 1375.27,968.864 1377.43,968.847 1379.6,968.83 1381.76,968.813 1383.92,968.796 1386.08,968.779 1388.25,968.763 1390.41,968.747 1392.57,968.731 1394.73,968.715 1396.9,968.699 1399.06,968.683 1401.22,968.668 1403.38,968.652 1405.55,968.637 1407.71,968.622 1409.87,968.607 1412.03,968.592 1414.2,968.578 1416.36,968.563 1418.52,968.549 1420.68,968.535 1422.85,968.521 1425.01,968.507 1427.17,968.493 1429.33,968.479 1431.5,968.466 1433.66,968.452 1435.82,968.439 1437.98,968.426 1440.15,968.413 1442.31,968.4 1444.47,968.387 1446.64,968.374 1448.8,968.362 1450.96,968.349 1453.12,968.337 1455.29,968.325 1457.45,968.313 1459.61,968.301 1461.77,968.289 1463.94,968.277 1466.1,968.266 1468.26,968.254 1470.42,968.243 1472.59,968.232 1474.75,968.221 1476.91,968.21 1479.07,968.199 1481.24,968.188 1483.4,968.177 1485.56,968.166 1487.72,968.156 1489.89,968.146 1492.05,968.135 1494.21,968.125 1496.37,968.115 1498.54,968.105 1500.7,968.095 1502.86,968.085 1505.02,968.076 1507.19,968.066 1509.35,968.057 1511.51,968.047 1513.67,968.038 1515.84,968.029 1518,968.019 1520.16,968.01 1522.33,968.002 1524.49,967.993 1526.65,967.984 1528.81,967.975 1530.98,967.967 1533.14,967.958 1535.3,967.95 1537.46,967.941 1539.63,967.933 1541.79,967.925 1543.95,967.917 1546.11,967.909 1548.28,967.901 1550.44,967.893 1552.6,967.886 1554.76,967.878 1556.93,967.87 1559.09,967.863 1561.25,967.855 1563.41,967.848 1565.58,967.841 1567.74,967.834 1569.9,967.826 1572.06,967.819 1574.23,967.812 1576.39,967.806 1578.55,967.799 1580.71,967.792 1582.88,967.785 1585.04,967.779 1587.2,967.772 1589.37,967.766 1591.53,967.759 1593.69,967.753 1595.85,967.747 1598.02,967.74 1600.18,967.734 1602.34,967.728 1604.5,967.722 1606.67,967.716 1608.83,967.71 1610.99,967.704 1613.15,967.698 1615.32,967.693 1617.48,967.687 1619.64,967.681 1621.8,967.676 1623.97,967.67 1626.13,967.665 1628.29,967.66 1630.45,967.654 1632.62,967.649 1634.78,967.644 1636.94,967.638 1639.1,967.633 1641.27,967.628 1643.43,967.623 1645.59,967.618 1647.75,967.613 1649.92,967.608 1652.08,967.604 1654.24,967.599 1656.41,967.594 1658.57,967.589 1660.73,967.585 1662.89,967.58 1665.06,967.576 1667.22,967.571 1669.38,967.567 1671.54,967.562 1673.71,967.558 1675.87,967.553 1678.03,967.549 1680.19,967.545 1682.36,967.541 1684.52,967.536 1686.68,967.532 1688.84,967.528 1691.01,967.524 1693.17,967.52 1695.33,967.516 1697.49,967.512 1699.66,967.508 1701.82,967.504 1703.98,967.5 1706.14,967.496 1708.31,967.493 1710.47,967.489 1712.63,967.485 1714.79,967.481 1716.96,967.478 1719.12,967.474 1721.28,967.471 1723.45,967.467 1725.61,967.463 1727.77,967.46 1729.93,967.457 1732.1,967.453 1734.26,967.45 1736.42,967.446 1738.58,967.443 1740.75,967.44 1742.91,967.437 1745.07,967.433 1747.23,967.43 1749.4,967.427 1751.56,967.424 1753.72,967.421 1755.88,967.418 1758.05,967.415 1760.21,967.412 1762.37,967.409 1764.53,967.406 1766.7,967.403 1768.86,967.4 1771.02,967.397 1773.18,967.394 1775.35,967.392 1777.51,967.389 1779.67,967.386 1781.83,967.383 1784,967.381 1786.16,967.378 1788.32,967.375 1790.49,967.373 1792.65,967.37 1794.81,967.368 1796.97,967.365 1799.14,967.363 1801.3,967.36 1803.46,967.358 1805.62,967.355 1807.79,967.353 1809.95,967.351 1812.11,967.348 1814.27,967.346 1816.44,967.344 1818.6,967.341 1820.76,967.339 1822.92,967.337 1825.09,967.335 1827.25,967.333 1829.41,967.33 1831.57,967.328 1833.74,967.326 1835.9,967.324 1838.06,967.322 1840.22,967.32 1842.39,967.318 1844.55,967.316 1846.71,967.314 1848.87,967.312 1851.04,967.31 1853.2,967.308 1855.36,967.306 1857.53,967.304 1859.69,967.303 1861.85,967.301 1864.01,967.299 1866.18,967.297 1868.34,967.295 1870.5,967.294 1872.66,967.292 1874.83,967.29 1876.99,967.289 1879.15,967.287 1881.31,967.285 1883.48,967.284 1885.64,967.282 1887.8,967.28 1889.96,967.279 1892.13,967.277 1894.29,967.276 1896.45,967.274 1898.61,967.273 1900.78,967.271 1902.94,967.27 1905.1,967.268 1907.26,967.267 1909.43,967.265 1911.59,967.264 1913.75,967.262 1915.91,967.261 1918.08,967.26 1920.24,967.258 1922.4,967.257 1924.57,967.256 1926.73,967.254 1928.89,967.253 1931.05,967.252 1933.22,967.25 1935.38,967.249 1937.54,967.248 1939.7,967.246 1941.87,967.245 1944.03,967.244 1946.19,967.243 1948.35,967.242 1950.52,967.24 1952.68,967.239 1954.84,967.238 1957,967.237 1959.17,967.236 1961.33,967.235 1963.49,967.233 1965.65,967.232 1967.82,967.231 1969.98,967.23 1972.14,967.229 1974.3,967.228 1976.47,967.227 1978.63,967.226 1980.79,967.225 1982.95,967.224 1985.12,967.222 1987.28,967.221 1989.44,967.22 1991.61,967.219 1993.77,967.218 1995.93,967.217 1998.09,967.216 2000.26,967.215 2002.42,967.214 2004.58,967.213 2006.74,967.212 2008.91,967.211 2011.07,967.211 2013.23,967.21 2015.39,967.209 2017.56,967.208 2019.72,967.207 2021.88,967.206 2024.04,967.205 2026.21,967.204 2028.37,967.203 2030.53,967.202 2032.69,967.202 2034.86,967.201 2037.02,967.2 2039.18,967.199 2041.34,967.198 2043.51,967.197 2045.67,967.196 2047.83,967.196 2049.99,967.195 2052.16,967.194 2054.32,967.193 2056.48,967.193 2058.65,967.192 2060.81,967.191 2062.97,967.19 2065.13,967.19 2067.3,967.189 2069.46,967.188 2071.62,967.187 2073.78,967.187 2075.95,967.186 2078.11,967.185 2080.27,967.184 2082.43,967.184 2084.6,967.183 2086.76,967.182 2088.92,967.182 2091.08,967.181 2093.25,967.18 2095.41,967.18 2097.57,967.179 2099.73,967.179 2101.9,967.178 2104.06,967.177 2106.22,967.177 2108.38,967.176 2110.55,967.176 2112.71,967.175 2114.87,967.174 2117.03,967.174 2119.2,967.173 2121.36,967.173 2123.52,967.172 2125.69,967.172 2127.85,967.171 2130.01,967.17 2132.17,967.17 2134.34,967.169 2136.5,967.169 2138.66,967.168 2140.82,967.168 2142.99,967.167 2145.15,967.167 2147.31,967.166 2149.47,967.166 2151.64,967.165 2153.8,967.165 2155.96,967.164 2158.12,967.164 2160.29,967.163 2162.45,967.163 2164.61,967.163 2166.77,967.162 2168.94,967.162 2171.1,967.161 2173.26,967.161 2175.42,967.16 2177.59,967.16 2179.75,967.16 2181.91,967.159 2184.07,967.159 2186.24,967.158 2188.4,967.158 2190.56,967.158 2192.73,967.157 2194.89,967.157 2197.05,967.156 2199.21,967.156 2201.38,967.156 2203.54,967.155 2205.7,967.155 2207.86,967.155 2210.03,967.154 2212.19,967.154 2214.35,967.154 2216.51,967.153 2218.68,967.153 2220.84,967.153 2223,967.152 2225.16,967.152 2227.33,967.152 2229.49,967.151 2231.65,967.151 2233.81,967.151 2235.98,967.15 2238.14,967.15 2240.3,967.15 2242.46,967.149 2244.63,967.149 2246.79,967.149 2248.95,967.149 2251.11,967.148 2253.28,967.148 2255.44,967.148 2257.6,967.147 2259.76,967.147 2261.93,967.147 2264.09,967.147 2266.25,967.146 2268.42,967.146 2270.58,967.146 2272.74,967.146 2274.9,967.145 2277.07,967.145 2279.23,967.145 2281.39,967.145 2283.55,967.144 2285.72,967.144 2287.88,967.144 2290.04,967.144 2292.2,967.143 2294.37,967.143 2296.53,967.143 2298.69,967.143 2300.85,967.142 2303.02,967.142 2305.18,967.142 2307.34,967.142 2309.5,967.141 2311.67,967.141 2313.83,967.141 2315.99,967.141 2318.15,967.141 2320.32,967.14 2322.48,967.14 2324.64,967.14 2326.8,967.14 2328.97,967.139 2331.13,967.139 2333.29,967.139 2335.46,967.139 2337.62,967.139 2339.78,967.138 2341.94,967.138 2344.11,967.138 2346.27,967.138 2348.43,967.138 2350.59,967.137 2352.76,967.137 "/>
<polyline clip-path="url(#clip192)" style="stroke:#e26f46; stroke-linecap:round; stroke-linejoin:round; stroke-width:4; stroke-opacity:1; fill:none" points="192.339,86.1857 194.501,91.4371 196.664,96.6572 198.827,101.846 200.989,107.005 203.152,112.132 205.314,117.23 207.477,122.296 209.639,127.333 211.802,132.34 213.965,137.317 216.127,142.264 218.29,147.183 220.452,152.071 222.615,156.931 224.777,161.762 226.94,166.564 229.103,171.338 231.265,176.083 233.428,180.8 235.59,185.489 237.753,190.15 239.916,194.783 242.078,199.389 244.241,203.967 246.403,208.518 248.566,213.042 250.728,217.54 252.891,222.01 255.054,226.454 257.216,230.871 259.379,235.262 261.541,239.628 263.704,243.967 265.866,248.28 268.029,252.567 270.192,256.829 272.354,261.066 274.517,265.278 276.679,269.464 278.842,273.626 281.005,277.763 283.167,281.875 285.33,285.962 287.492,290.026 289.655,294.065 291.817,298.08 293.98,302.071 296.143,306.039 298.305,309.983 300.468,313.903 302.63,317.8 304.793,321.674 306.956,325.525 309.118,329.353 311.281,333.158 313.443,336.941 315.606,340.701 317.768,344.439 319.931,348.154 322.094,351.847 324.256,355.518 326.419,359.168 328.581,362.796 330.744,366.402 332.906,369.986 335.069,373.55 337.232,377.092 339.394,380.613 341.557,384.113 343.719,387.592 345.882,391.05 348.045,394.488 350.207,397.906 352.37,401.303 354.532,404.68 356.695,408.036 358.857,411.373 361.02,414.69 363.183,417.987 365.345,421.264 367.508,424.522 369.67,427.761 371.833,430.98 373.995,434.18 376.158,437.361 378.321,440.523 380.483,443.667 382.646,446.791 384.808,449.897 386.971,452.985 389.134,456.054 391.296,459.104 393.459,462.137 395.621,465.151 397.784,468.148 399.946,471.127 402.109,474.088 404.272,477.031 406.434,479.957 408.597,482.865 410.759,485.756 412.922,488.63 415.084,491.487 417.247,494.326 419.41,497.149 421.572,499.955 423.735,502.744 425.897,505.517 428.06,508.273 430.223,511.012 432.385,513.736 434.548,516.443 436.71,519.134 438.873,521.809 441.035,524.468 443.198,527.111 445.361,529.738 447.523,532.35 449.686,534.946 451.848,537.526 454.011,540.092 456.174,542.642 458.336,545.177 460.499,547.696 462.661,550.201 464.824,552.691 466.986,555.165 469.149,557.626 471.312,560.071 473.474,562.502 475.637,564.918 477.799,567.32 479.962,569.708 482.124,572.081 484.287,574.441 486.45,576.786 488.612,579.117 490.775,581.435 492.937,583.738 495.1,586.028 497.263,588.304 499.425,590.567 501.588,592.816 503.75,595.051 505.913,597.274 508.075,599.483 510.238,601.679 512.401,603.862 514.563,606.031 516.726,608.188 518.888,610.332 521.051,612.464 523.213,614.582 525.376,616.688 527.539,618.781 529.701,620.862 531.864,622.931 534.026,624.987 536.189,627.03 538.352,629.062 540.514,631.082 542.677,633.089 544.839,635.085 547.002,637.068 549.164,639.04 551.327,641 553.49,642.948 555.652,644.885 557.815,646.81 559.977,648.724 562.14,650.626 564.302,652.517 566.465,654.396 568.628,656.265 570.79,658.122 572.953,659.968 575.115,661.803 577.278,663.627 579.441,665.441 581.603,667.243 583.766,669.035 585.928,670.816 588.091,672.586 590.253,674.346 592.416,676.096 594.579,677.835 596.741,679.563 598.904,681.281 601.066,682.989 603.229,684.687 605.392,686.375 607.554,688.053 609.717,689.72 611.879,691.378 614.042,693.026 616.204,694.664 618.367,696.292 620.53,697.91 622.692,699.519 624.855,701.118 627.017,702.708 629.18,704.288 631.342,705.859 633.505,707.42 635.668,708.972 637.83,710.515 639.993,712.048 642.155,713.573 644.318,715.088 646.481,716.594 648.643,718.091 650.806,719.58 652.968,721.059 655.131,722.53 657.293,723.992 659.456,725.445 661.619,726.889 663.781,728.325 665.944,729.752 668.106,731.171 670.269,732.581 672.431,733.983 674.594,735.376 676.757,736.761 678.919,738.138 681.082,739.507 683.244,740.867 685.407,742.22 687.57,743.564 689.732,744.9 691.895,746.228 694.057,747.549 696.22,748.861 698.382,750.166 700.545,751.463 702.708,752.752 704.87,754.033 707.033,755.307 709.195,756.573 711.358,757.831 713.52,759.082 715.683,760.326 717.846,761.562 720.008,762.791 722.171,764.012 724.333,765.227 726.496,766.434 728.659,767.633 730.821,768.826 732.984,770.011 735.146,771.19 737.309,772.361 739.471,773.525 741.634,774.683 743.797,775.833 745.959,776.977 748.122,778.114 750.284,779.243 752.447,780.367 754.61,781.483 756.772,782.593 758.935,783.696 761.097,784.793 763.26,785.883 765.422,786.967 767.585,788.044 769.748,789.114 771.91,790.179 774.073,791.237 776.235,792.288 778.398,793.333 780.56,794.373 782.723,795.405 784.886,796.432 787.048,797.453 789.211,798.467 791.373,799.475 793.536,800.478 795.699,801.474 797.861,802.465 800.024,803.449 802.186,804.428 804.349,805.4 806.511,806.367 808.674,807.329 810.837,808.284 812.999,809.234 815.162,810.178 817.324,811.116 819.487,812.049 821.649,812.976 823.812,813.898 825.975,814.814 828.137,815.725 830.3,816.63 832.462,817.53 834.625,818.424 836.788,819.314 838.95,820.197 841.113,821.076 843.275,821.949 845.438,822.817 847.6,823.68 849.763,824.538 851.926,825.391 854.088,826.238 856.251,827.081 858.413,827.918 860.576,828.751 862.738,829.578 864.901,830.401 867.064,831.218 869.226,832.031 871.389,832.839 873.551,833.642 875.714,834.44 877.877,835.234 880.039,836.022 882.202,836.806 884.364,837.586 886.527,838.361 888.689,839.131 890.852,839.896 893.015,840.657 895.177,841.413 897.34,842.165 899.502,842.913 901.665,843.655 903.828,844.394 905.99,845.128 908.153,845.858 910.315,846.583 912.478,847.304 914.64,848.02 916.803,848.733 918.966,849.441 921.128,850.145 923.291,850.844 925.453,851.54 927.616,852.231 929.778,852.918 931.941,853.601 934.104,854.28 936.266,854.955 938.429,855.626 940.591,856.293 942.754,856.956 944.917,857.615 947.079,858.27 949.242,858.921 951.404,859.568 953.567,860.211 955.729,860.851 957.892,861.486 960.055,862.118 962.217,862.746 964.38,863.37 966.542,863.991 968.705,864.608 970.867,865.221 973.03,865.83 975.193,866.436 977.355,867.039 979.518,867.637 981.68,868.232 983.843,868.824 986.006,869.412 988.168,869.996 990.331,870.577 992.493,871.154 994.656,871.728 996.818,872.299 998.981,872.866 1001.14,873.43 1003.31,873.99 1005.47,874.547 1007.63,875.101 1009.79,875.652 1011.96,876.199 1014.12,876.743 1016.28,877.283 1018.44,877.821 1020.61,878.355 1022.77,878.886 1024.93,879.414 1027.09,879.938 1029.26,880.46 1031.42,880.978 1033.58,881.494 1035.74,882.006 1037.91,882.515 1040.07,883.021 1042.23,883.524 1044.4,884.024 1046.56,884.521 1048.72,885.016 1050.88,885.507 1053.05,885.995 1055.21,886.48 1057.37,886.963 1059.53,887.443 1061.7,887.919 1063.86,888.393 1066.02,888.864 1068.18,889.332 1070.35,889.798 1072.51,890.26 1074.67,890.72 1076.83,891.177 1079,891.632 1081.16,892.083 1083.32,892.532 1085.48,892.979 1087.65,893.422 1089.81,893.863 1091.97,894.301 1094.13,894.737 1096.3,895.17 1098.46,895.601 1100.62,896.029 1102.78,896.454 1104.95,896.877 1107.11,897.297 1109.27,897.715 1111.44,898.13 1113.6,898.543 1115.76,898.953 1117.92,899.361 1120.09,899.766 1122.25,900.169 1124.41,900.57 1126.57,900.968 1128.74,901.364 1130.9,901.757 1133.06,902.148 1135.22,902.537 1137.39,902.923 1139.55,903.307 1141.71,903.689 1143.87,904.069 1146.04,904.446 1148.2,904.821 1150.36,905.194 1152.52,905.564 1154.69,905.932 1156.85,906.298 1159.01,906.662 1161.17,907.024 1163.34,907.384 1165.5,907.741 1167.66,908.096 1169.82,908.449 1171.99,908.8 1174.15,909.149 1176.31,909.496 1178.48,909.841 1180.64,910.184 1182.8,910.524 1184.96,910.863 1187.13,911.199 1189.29,911.534 1191.45,911.867 1193.61,912.197 1195.78,912.526 1197.94,912.852 1200.1,913.177 1202.26,913.5 1204.43,913.821 1206.59,914.14 1208.75,914.457 1210.91,914.772 1213.08,915.085 1215.24,915.396 1217.4,915.706 1219.56,916.013 1221.73,916.319 1223.89,916.623 1226.05,916.925 1228.21,917.226 1230.38,917.524 1232.54,917.821 1234.7,918.116 1236.86,918.41 1239.03,918.701 1241.19,918.991 1243.35,919.279 1245.52,919.565 1247.68,919.85 1249.84,920.133 1252,920.414 1254.17,920.694 1256.33,920.971 1258.49,921.248 1260.65,921.522 1262.82,921.795 1264.98,922.066 1267.14,922.336 1269.3,922.604 1271.47,922.871 1273.63,923.135 1275.79,923.399 1277.95,923.66 1280.12,923.92 1282.28,924.179 1284.44,924.436 1286.6,924.692 1288.77,924.945 1290.93,925.198 1293.09,925.449 1295.25,925.698 1297.42,925.946 1299.58,926.193 1301.74,926.437 1303.9,926.681 1306.07,926.923 1308.23,927.164 1310.39,927.403 1312.56,927.64 1314.72,927.877 1316.88,928.111 1319.04,928.345 1321.21,928.577 1323.37,928.808 1325.53,929.037 1327.69,929.265 1329.86,929.491 1332.02,929.716 1334.18,929.94 1336.34,930.163 1338.51,930.384 1340.67,930.604 1342.83,930.822 1344.99,931.039 1347.16,931.255 1349.32,931.47 1351.48,931.683 1353.64,931.895 1355.81,932.106 1357.97,932.315 1360.13,932.524 1362.29,932.731 1364.46,932.936 1366.62,933.141 1368.78,933.344 1370.94,933.546 1373.11,933.747 1375.27,933.947 1377.43,934.145 1379.6,934.343 1381.76,934.539 1383.92,934.734 1386.08,934.927 1388.25,935.12 1390.41,935.312 1392.57,935.502 1394.73,935.691 1396.9,935.879 1399.06,936.066 1401.22,936.252 1403.38,936.437 1405.55,936.62 1407.71,936.803 1409.87,936.984 1412.03,937.164 1414.2,937.344 1416.36,937.522 1418.52,937.699 1420.68,937.875 1422.85,938.05 1425.01,938.224 1427.17,938.397 1429.33,938.569 1431.5,938.74 1433.66,938.909 1435.82,939.078 1437.98,939.246 1440.15,939.413 1442.31,939.579 1444.47,939.744 1446.64,939.907 1448.8,940.07 1450.96,940.232 1453.12,940.393 1455.29,940.553 1457.45,940.712 1459.61,940.87 1461.77,941.027 1463.94,941.184 1466.1,941.339 1468.26,941.493 1470.42,941.647 1472.59,941.799 1474.75,941.951 1476.91,942.101 1479.07,942.251 1481.24,942.4 1483.4,942.548 1485.56,942.695 1487.72,942.842 1489.89,942.987 1492.05,943.131 1494.21,943.275 1496.37,943.418 1498.54,943.56 1500.7,943.701 1502.86,943.841 1505.02,943.98 1507.19,944.119 1509.35,944.257 1511.51,944.394 1513.67,944.53 1515.84,944.665 1518,944.799 1520.16,944.933 1522.33,945.066 1524.49,945.198 1526.65,945.329 1528.81,945.459 1530.98,945.589 1533.14,945.718 1535.3,945.846 1537.46,945.973 1539.63,946.1 1541.79,946.226 1543.95,946.351 1546.11,946.475 1548.28,946.599 1550.44,946.722 1552.6,946.844 1554.76,946.965 1556.93,947.086 1559.09,947.206 1561.25,947.325 1563.41,947.443 1565.58,947.561 1567.74,947.678 1569.9,947.794 1572.06,947.91 1574.23,948.025 1576.39,948.139 1578.55,948.253 1580.71,948.366 1582.88,948.478 1585.04,948.59 1587.2,948.7 1589.37,948.811 1591.53,948.92 1593.69,949.029 1595.85,949.137 1598.02,949.245 1600.18,949.352 1602.34,949.458 1604.5,949.564 1606.67,949.669 1608.83,949.773 1610.99,949.877 1613.15,949.98 1615.32,950.083 1617.48,950.185 1619.64,950.286 1621.8,950.387 1623.97,950.487 1626.13,950.586 1628.29,950.685 1630.45,950.784 1632.62,950.881 1634.78,950.978 1636.94,951.075 1639.1,951.171 1641.27,951.266 1643.43,951.361 1645.59,951.455 1647.75,951.549 1649.92,951.642 1652.08,951.735 1654.24,951.827 1656.41,951.918 1658.57,952.009 1660.73,952.1 1662.89,952.19 1665.06,952.279 1667.22,952.368 1669.38,952.456 1671.54,952.544 1673.71,952.631 1675.87,952.718 1678.03,952.804 1680.19,952.89 1682.36,952.975 1684.52,953.059 1686.68,953.144 1688.84,953.227 1691.01,953.31 1693.17,953.393 1695.33,953.475 1697.49,953.557 1699.66,953.638 1701.82,953.719 1703.98,953.799 1706.14,953.879 1708.31,953.958 1710.47,954.037 1712.63,954.115 1714.79,954.193 1716.96,954.271 1719.12,954.348 1721.28,954.424 1723.45,954.5 1725.61,954.576 1727.77,954.651 1729.93,954.726 1732.1,954.8 1734.26,954.874 1736.42,954.947 1738.58,955.02 1740.75,955.092 1742.91,955.164 1745.07,955.236 1747.23,955.307 1749.4,955.378 1751.56,955.448 1753.72,955.518 1755.88,955.588 1758.05,955.657 1760.21,955.726 1762.37,955.794 1764.53,955.862 1766.7,955.929 1768.86,955.996 1771.02,956.063 1773.18,956.129 1775.35,956.195 1777.51,956.26 1779.67,956.325 1781.83,956.39 1784,956.454 1786.16,956.518 1788.32,956.582 1790.49,956.645 1792.65,956.707 1794.81,956.77 1796.97,956.832 1799.14,956.893 1801.3,956.955 1803.46,957.016 1805.62,957.076 1807.79,957.136 1809.95,957.196 1812.11,957.255 1814.27,957.314 1816.44,957.373 1818.6,957.431 1820.76,957.489 1822.92,957.547 1825.09,957.604 1827.25,957.661 1829.41,957.718 1831.57,957.774 1833.74,957.83 1835.9,957.886 1838.06,957.941 1840.22,957.996 1842.39,958.051 1844.55,958.105 1846.71,958.159 1848.87,958.212 1851.04,958.266 1853.2,958.319 1855.36,958.371 1857.53,958.424 1859.69,958.476 1861.85,958.527 1864.01,958.579 1866.18,958.63 1868.34,958.681 1870.5,958.731 1872.66,958.781 1874.83,958.831 1876.99,958.881 1879.15,958.93 1881.31,958.979 1883.48,959.028 1885.64,959.076 1887.8,959.124 1889.96,959.172 1892.13,959.219 1894.29,959.267 1896.45,959.314 1898.61,959.36 1900.78,959.407 1902.94,959.453 1905.1,959.499 1907.26,959.544 1909.43,959.589 1911.59,959.634 1913.75,959.679 1915.91,959.724 1918.08,959.768 1920.24,959.812 1922.4,959.855 1924.57,959.899 1926.73,959.942 1928.89,959.985 1931.05,960.028 1933.22,960.07 1935.38,960.112 1937.54,960.154 1939.7,960.196 1941.87,960.237 1944.03,960.278 1946.19,960.319 1948.35,960.36 1950.52,960.4 1952.68,960.44 1954.84,960.48 1957,960.52 1959.17,960.559 1961.33,960.599 1963.49,960.638 1965.65,960.676 1967.82,960.715 1969.98,960.753 1972.14,960.791 1974.3,960.829 1976.47,960.867 1978.63,960.904 1980.79,960.942 1982.95,960.979 1985.12,961.015 1987.28,961.052 1989.44,961.088 1991.61,961.124 1993.77,961.16 1995.93,961.196 1998.09,961.231 2000.26,961.267 2002.42,961.302 2004.58,961.336 2006.74,961.371 2008.91,961.406 2011.07,961.44 2013.23,961.474 2015.39,961.508 2017.56,961.541 2019.72,961.575 2021.88,961.608 2024.04,961.641 2026.21,961.674 2028.37,961.706 2030.53,961.739 2032.69,961.771 2034.86,961.803 2037.02,961.835 2039.18,961.867 2041.34,961.898 2043.51,961.93 2045.67,961.961 2047.83,961.992 2049.99,962.022 2052.16,962.053 2054.32,962.083 2056.48,962.114 2058.65,962.144 2060.81,962.173 2062.97,962.203 2065.13,962.233 2067.3,962.262 2069.46,962.291 2071.62,962.32 2073.78,962.349 2075.95,962.377 2078.11,962.406 2080.27,962.434 2082.43,962.462 2084.6,962.49 2086.76,962.518 2088.92,962.545 2091.08,962.573 2093.25,962.6 2095.41,962.627 2097.57,962.654 2099.73,962.681 2101.9,962.707 2104.06,962.734 2106.22,962.76 2108.38,962.786 2110.55,962.812 2112.71,962.838 2114.87,962.864 2117.03,962.889 2119.2,962.915 2121.36,962.94 2123.52,962.965 2125.69,962.99 2127.85,963.014 2130.01,963.039 2132.17,963.063 2134.34,963.088 2136.5,963.112 2138.66,963.136 2140.82,963.16 2142.99,963.183 2145.15,963.207 2147.31,963.23 2149.47,963.254 2151.64,963.277 2153.8,963.3 2155.96,963.323 2158.12,963.345 2160.29,963.368 2162.45,963.39 2164.61,963.413 2166.77,963.435 2168.94,963.457 2171.1,963.479 2173.26,963.5 2175.42,963.522 2177.59,963.544 2179.75,963.565 2181.91,963.586 2184.07,963.607 2186.24,963.628 2188.4,963.649 2190.56,963.67 2192.73,963.69 2194.89,963.711 2197.05,963.731 2199.21,963.752 2201.38,963.772 2203.54,963.792 2205.7,963.812 2207.86,963.831 2210.03,963.851 2212.19,963.87 2214.35,963.89 2216.51,963.909 2218.68,963.928 2220.84,963.947 2223,963.966 2225.16,963.985 2227.33,964.004 2229.49,964.022 2231.65,964.041 2233.81,964.059 2235.98,964.077 2238.14,964.096 2240.3,964.114 2242.46,964.132 2244.63,964.149 2246.79,964.167 2248.95,964.185 2251.11,964.202 2253.28,964.22 2255.44,964.237 2257.6,964.254 2259.76,964.271 2261.93,964.288 2264.09,964.305 2266.25,964.322 2268.42,964.339 2270.58,964.355 2272.74,964.372 2274.9,964.388 2277.07,964.404 2279.23,964.421 2281.39,964.437 2283.55,964.453 2285.72,964.469 2287.88,964.484 2290.04,964.5 2292.2,964.516 2294.37,964.531 2296.53,964.547 2298.69,964.562 2300.85,964.577 2303.02,964.593 2305.18,964.608 2307.34,964.623 2309.5,964.638 2311.67,964.653 2313.83,964.667 2315.99,964.682 2318.15,964.697 2320.32,964.711 2322.48,964.725 2324.64,964.74 2326.8,964.754 2328.97,964.768 2331.13,964.782 2333.29,964.796 2335.46,964.81 2337.62,964.824 2339.78,964.838 2341.94,964.851 2344.11,964.865 2346.27,964.878 2348.43,964.892 2350.59,964.905 2352.76,964.918 "/>
<path clip-path="url(#clip190)" d="M1805.3 248.629 L2280.74 248.629 L2280.74 93.1086 L1805.3 93.1086  Z" fill="#ffffff" fill-rule="evenodd" fill-opacity="1"/>
<polyline clip-path="url(#clip190)" style="stroke:#000000; stroke-linecap:round; stroke-linejoin:round; stroke-width:4; stroke-opacity:1; fill:none" points="1805.3,248.629 2280.74,248.629 2280.74,93.1086 1805.3,93.1086 1805.3,248.629 "/>
<polyline clip-path="url(#clip190)" style="stroke:#009af9; stroke-linecap:round; stroke-linejoin:round; stroke-width:4; stroke-opacity:1; fill:none" points="1829.31,144.949 1973.34,144.949 "/>
<path clip-path="url(#clip190)" d="M1997.34 136.303 L2001.85 136.303 L2009.96 158.062 L2018.06 136.303 L2022.57 136.303 L2012.85 162.229 L2007.06 162.229 L1997.34 136.303 Z" fill="#000000" fill-rule="nonzero" fill-opacity="1" /><path clip-path="url(#clip190)" d="M2029.86 158.293 L2037.5 158.293 L2037.5 131.928 L2029.19 133.595 L2029.19 129.335 L2037.46 127.669 L2042.13 127.669 L2042.13 158.293 L2049.77 158.293 L2049.77 162.229 L2029.86 162.229 L2029.86 158.293 Z" fill="#000000" fill-rule="nonzero" fill-opacity="1" /><path clip-path="url(#clip190)" d="M2067.87 145.585 L2067.87 152.807 L2076 152.807 L2076 155.006 L2067.87 155.006 L2067.87 162.229 L2065.44 162.229 L2065.44 155.006 L2057.32 155.006 L2057.32 152.807 L2065.44 152.807 L2065.44 145.585 L2067.87 145.585 Z" fill="#000000" fill-rule="nonzero" fill-opacity="1" /><path clip-path="url(#clip190)" d="M2100.16 137.067 L2100.16 141.094 Q2098.36 140.169 2096.41 139.706 Q2094.47 139.243 2092.39 139.243 Q2089.22 139.243 2087.62 140.215 Q2086.04 141.187 2086.04 143.131 Q2086.04 144.613 2087.18 145.469 Q2088.31 146.303 2091.74 147.067 L2093.2 147.391 Q2097.73 148.363 2099.63 150.145 Q2101.55 151.905 2101.55 155.076 Q2101.55 158.687 2098.68 160.793 Q2095.84 162.9 2090.84 162.9 Q2088.75 162.9 2086.48 162.483 Q2084.24 162.09 2081.74 161.28 L2081.74 156.881 Q2084.1 158.108 2086.39 158.733 Q2088.68 159.335 2090.93 159.335 Q2093.94 159.335 2095.56 158.317 Q2097.18 157.275 2097.18 155.4 Q2097.18 153.664 2096 152.738 Q2094.84 151.812 2090.88 150.956 L2089.4 150.608 Q2085.44 149.775 2083.68 148.062 Q2081.92 146.326 2081.92 143.317 Q2081.92 139.659 2084.52 137.669 Q2087.11 135.678 2091.88 135.678 Q2094.24 135.678 2096.32 136.025 Q2098.4 136.372 2100.16 137.067 Z" fill="#000000" fill-rule="nonzero" fill-opacity="1" /><path clip-path="url(#clip190)" d="M2112.55 128.942 L2112.55 136.303 L2121.32 136.303 L2121.32 139.613 L2112.55 139.613 L2112.55 153.687 Q2112.55 156.858 2113.4 157.761 Q2114.28 158.664 2116.95 158.664 L2121.32 158.664 L2121.32 162.229 L2116.95 162.229 Q2112.02 162.229 2110.14 160.4 Q2108.27 158.548 2108.27 153.687 L2108.27 139.613 L2105.14 139.613 L2105.14 136.303 L2108.27 136.303 L2108.27 128.942 L2112.55 128.942 Z" fill="#000000" fill-rule="nonzero" fill-opacity="1" /><path clip-path="url(#clip190)" d="M2136.97 139.289 Q2133.54 139.289 2131.55 141.974 Q2129.56 144.636 2129.56 149.289 Q2129.56 153.942 2131.53 156.627 Q2133.52 159.289 2136.97 159.289 Q2140.37 159.289 2142.36 156.604 Q2144.35 153.918 2144.35 149.289 Q2144.35 144.682 2142.36 141.997 Q2140.37 139.289 2136.97 139.289 M2136.97 135.678 Q2142.53 135.678 2145.7 139.289 Q2148.87 142.9 2148.87 149.289 Q2148.87 155.655 2145.7 159.289 Q2142.53 162.9 2136.97 162.9 Q2131.39 162.9 2128.22 159.289 Q2125.07 155.655 2125.07 149.289 Q2125.07 142.9 2128.22 139.289 Q2131.39 135.678 2136.97 135.678 Z" fill="#000000" fill-rule="nonzero" fill-opacity="1" /><path clip-path="url(#clip190)" d="M2170.95 140.284 Q2170.23 139.868 2169.38 139.682 Q2168.54 139.474 2167.52 139.474 Q2163.91 139.474 2161.97 141.835 Q2160.05 144.173 2160.05 148.571 L2160.05 162.229 L2155.77 162.229 L2155.77 136.303 L2160.05 136.303 L2160.05 140.331 Q2161.39 137.969 2163.54 136.835 Q2165.7 135.678 2168.77 135.678 Q2169.21 135.678 2169.75 135.747 Q2170.28 135.794 2170.93 135.909 L2170.95 140.284 Z" fill="#000000" fill-rule="nonzero" fill-opacity="1" /><path clip-path="url(#clip190)" d="M2187.2 149.196 Q2182.04 149.196 2180.05 150.377 Q2178.06 151.557 2178.06 154.405 Q2178.06 156.673 2179.54 158.016 Q2181.04 159.335 2183.61 159.335 Q2187.15 159.335 2189.28 156.835 Q2191.44 154.312 2191.44 150.145 L2191.44 149.196 L2187.2 149.196 M2195.7 147.437 L2195.7 162.229 L2191.44 162.229 L2191.44 158.293 Q2189.98 160.655 2187.8 161.789 Q2185.63 162.9 2182.48 162.9 Q2178.5 162.9 2176.14 160.678 Q2173.8 158.432 2173.8 154.682 Q2173.8 150.307 2176.71 148.085 Q2179.65 145.863 2185.46 145.863 L2191.44 145.863 L2191.44 145.446 Q2191.44 142.507 2189.49 140.909 Q2187.57 139.289 2184.08 139.289 Q2181.85 139.289 2179.75 139.821 Q2177.64 140.354 2175.7 141.419 L2175.7 137.483 Q2178.03 136.581 2180.23 136.141 Q2182.43 135.678 2184.52 135.678 Q2190.14 135.678 2192.92 138.594 Q2195.7 141.511 2195.7 147.437 Z" fill="#000000" fill-rule="nonzero" fill-opacity="1" /><path clip-path="url(#clip190)" d="M2221.53 148.965 Q2221.53 144.335 2219.61 141.789 Q2217.71 139.243 2214.26 139.243 Q2210.83 139.243 2208.91 141.789 Q2207.02 144.335 2207.02 148.965 Q2207.02 153.571 2208.91 156.118 Q2210.83 158.664 2214.26 158.664 Q2217.71 158.664 2219.61 156.118 Q2221.53 153.571 2221.53 148.965 M2225.79 159.011 Q2225.79 165.631 2222.85 168.849 Q2219.91 172.09 2213.84 172.09 Q2211.6 172.09 2209.61 171.742 Q2207.62 171.418 2205.74 170.724 L2205.74 166.58 Q2207.62 167.599 2209.45 168.085 Q2211.27 168.571 2213.17 168.571 Q2217.36 168.571 2219.45 166.372 Q2221.53 164.196 2221.53 159.775 L2221.53 157.668 Q2220.21 159.96 2218.15 161.094 Q2216.09 162.229 2213.22 162.229 Q2208.45 162.229 2205.53 158.594 Q2202.62 154.96 2202.62 148.965 Q2202.62 142.946 2205.53 139.312 Q2208.45 135.678 2213.22 135.678 Q2216.09 135.678 2218.15 136.812 Q2220.21 137.946 2221.53 140.238 L2221.53 136.303 L2225.79 136.303 L2225.79 159.011 Z" fill="#000000" fill-rule="nonzero" fill-opacity="1" /><path clip-path="url(#clip190)" d="M2256.74 148.201 L2256.74 150.284 L2237.15 150.284 Q2237.43 154.682 2239.79 156.997 Q2242.18 159.289 2246.41 159.289 Q2248.87 159.289 2251.16 158.687 Q2253.47 158.085 2255.74 156.881 L2255.74 160.909 Q2253.45 161.881 2251.04 162.391 Q2248.64 162.9 2246.16 162.9 Q2239.96 162.9 2236.32 159.289 Q2232.71 155.678 2232.71 149.52 Q2232.71 143.155 2236.14 139.428 Q2239.58 135.678 2245.42 135.678 Q2250.65 135.678 2253.68 139.057 Q2256.74 142.414 2256.74 148.201 M2252.48 146.951 Q2252.43 143.456 2250.51 141.372 Q2248.61 139.289 2245.46 139.289 Q2241.9 139.289 2239.75 141.303 Q2237.62 143.317 2237.29 146.974 L2252.48 146.951 Z" fill="#000000" fill-rule="nonzero" fill-opacity="1" /><polyline clip-path="url(#clip190)" style="stroke:#e26f46; stroke-linecap:round; stroke-linejoin:round; stroke-width:4; stroke-opacity:1; fill:none" points="1829.31,196.789 1973.34,196.789 "/>
<path clip-path="url(#clip190)" d="M1997.34 188.143 L2001.85 188.143 L2009.96 209.902 L2018.06 188.143 L2022.57 188.143 L2012.85 214.069 L2007.06 214.069 L1997.34 188.143 Z" fill="#000000" fill-rule="nonzero" fill-opacity="1" /><path clip-path="url(#clip190)" d="M2029.1 179.509 L2047.46 179.509 L2047.46 183.444 L2033.38 183.444 L2033.38 191.916 Q2034.4 191.569 2035.42 191.407 Q2036.44 191.222 2037.46 191.222 Q2043.24 191.222 2046.62 194.393 Q2050 197.564 2050 202.981 Q2050 208.559 2046.53 211.661 Q2043.06 214.74 2036.74 214.74 Q2034.56 214.74 2032.29 214.37 Q2030.05 213.999 2027.64 213.258 L2027.64 208.559 Q2029.72 209.694 2031.95 210.249 Q2034.17 210.805 2036.65 210.805 Q2040.65 210.805 2042.99 208.698 Q2045.33 206.592 2045.33 202.981 Q2045.33 199.37 2042.99 197.263 Q2040.65 195.157 2036.65 195.157 Q2034.77 195.157 2032.9 195.573 Q2031.04 195.99 2029.1 196.87 L2029.1 179.509 Z" fill="#000000" fill-rule="nonzero" fill-opacity="1" /><path clip-path="url(#clip190)" d="M2067.87 197.425 L2067.87 204.647 L2076 204.647 L2076 206.846 L2067.87 206.846 L2067.87 214.069 L2065.44 214.069 L2065.44 206.846 L2057.32 206.846 L2057.32 204.647 L2065.44 204.647 L2065.44 197.425 L2067.87 197.425 Z" fill="#000000" fill-rule="nonzero" fill-opacity="1" /><path clip-path="url(#clip190)" d="M2100.16 188.907 L2100.16 192.934 Q2098.36 192.009 2096.41 191.546 Q2094.47 191.083 2092.39 191.083 Q2089.22 191.083 2087.62 192.055 Q2086.04 193.027 2086.04 194.971 Q2086.04 196.453 2087.18 197.309 Q2088.31 198.143 2091.74 198.907 L2093.2 199.231 Q2097.73 200.203 2099.63 201.985 Q2101.55 203.745 2101.55 206.916 Q2101.55 210.527 2098.68 212.633 Q2095.84 214.74 2090.84 214.74 Q2088.75 214.74 2086.48 214.323 Q2084.24 213.93 2081.74 213.12 L2081.74 208.721 Q2084.1 209.948 2086.39 210.573 Q2088.68 211.175 2090.93 211.175 Q2093.94 211.175 2095.56 210.157 Q2097.18 209.115 2097.18 207.24 Q2097.18 205.504 2096 204.578 Q2094.84 203.652 2090.88 202.796 L2089.4 202.448 Q2085.44 201.615 2083.68 199.902 Q2081.92 198.166 2081.92 195.157 Q2081.92 191.499 2084.52 189.509 Q2087.11 187.518 2091.88 187.518 Q2094.24 187.518 2096.32 187.865 Q2098.4 188.212 2100.16 188.907 Z" fill="#000000" fill-rule="nonzero" fill-opacity="1" /><path clip-path="url(#clip190)" d="M2112.55 180.782 L2112.55 188.143 L2121.32 188.143 L2121.32 191.453 L2112.55 191.453 L2112.55 205.527 Q2112.55 208.698 2113.4 209.601 Q2114.28 210.504 2116.95 210.504 L2121.32 210.504 L2121.32 214.069 L2116.95 214.069 Q2112.02 214.069 2110.14 212.24 Q2108.27 210.388 2108.27 205.527 L2108.27 191.453 L2105.14 191.453 L2105.14 188.143 L2108.27 188.143 L2108.27 180.782 L2112.55 180.782 Z" fill="#000000" fill-rule="nonzero" fill-opacity="1" /><path clip-path="url(#clip190)" d="M2136.97 191.129 Q2133.54 191.129 2131.55 193.814 Q2129.56 196.476 2129.56 201.129 Q2129.56 205.782 2131.53 208.467 Q2133.52 211.129 2136.97 211.129 Q2140.37 211.129 2142.36 208.444 Q2144.35 205.758 2144.35 201.129 Q2144.35 196.522 2142.36 193.837 Q2140.37 191.129 2136.97 191.129 M2136.97 187.518 Q2142.53 187.518 2145.7 191.129 Q2148.87 194.74 2148.87 201.129 Q2148.87 207.495 2145.7 211.129 Q2142.53 214.74 2136.97 214.74 Q2131.39 214.74 2128.22 211.129 Q2125.07 207.495 2125.07 201.129 Q2125.07 194.74 2128.22 191.129 Q2131.39 187.518 2136.97 187.518 Z" fill="#000000" fill-rule="nonzero" fill-opacity="1" /><path clip-path="url(#clip190)" d="M2170.95 192.124 Q2170.23 191.708 2169.38 191.522 Q2168.54 191.314 2167.52 191.314 Q2163.91 191.314 2161.97 193.675 Q2160.05 196.013 2160.05 200.411 L2160.05 214.069 L2155.77 214.069 L2155.77 188.143 L2160.05 188.143 L2160.05 192.171 Q2161.39 189.809 2163.54 188.675 Q2165.7 187.518 2168.77 187.518 Q2169.21 187.518 2169.75 187.587 Q2170.28 187.634 2170.93 187.749 L2170.95 192.124 Z" fill="#000000" fill-rule="nonzero" fill-opacity="1" /><path clip-path="url(#clip190)" d="M2187.2 201.036 Q2182.04 201.036 2180.05 202.217 Q2178.06 203.397 2178.06 206.245 Q2178.06 208.513 2179.54 209.856 Q2181.04 211.175 2183.61 211.175 Q2187.15 211.175 2189.28 208.675 Q2191.44 206.152 2191.44 201.985 L2191.44 201.036 L2187.2 201.036 M2195.7 199.277 L2195.7 214.069 L2191.44 214.069 L2191.44 210.133 Q2189.98 212.495 2187.8 213.629 Q2185.63 214.74 2182.48 214.74 Q2178.5 214.74 2176.14 212.518 Q2173.8 210.272 2173.8 206.522 Q2173.8 202.147 2176.71 199.925 Q2179.65 197.703 2185.46 197.703 L2191.44 197.703 L2191.44 197.286 Q2191.44 194.347 2189.49 192.749 Q2187.57 191.129 2184.08 191.129 Q2181.85 191.129 2179.75 191.661 Q2177.64 192.194 2175.7 193.259 L2175.7 189.323 Q2178.03 188.421 2180.23 187.981 Q2182.43 187.518 2184.52 187.518 Q2190.14 187.518 2192.92 190.434 Q2195.7 193.351 2195.7 199.277 Z" fill="#000000" fill-rule="nonzero" fill-opacity="1" /><path clip-path="url(#clip190)" d="M2221.53 200.805 Q2221.53 196.175 2219.61 193.629 Q2217.71 191.083 2214.26 191.083 Q2210.83 191.083 2208.91 193.629 Q2207.02 196.175 2207.02 200.805 Q2207.02 205.411 2208.91 207.958 Q2210.83 210.504 2214.26 210.504 Q2217.71 210.504 2219.61 207.958 Q2221.53 205.411 2221.53 200.805 M2225.79 210.851 Q2225.79 217.471 2222.85 220.689 Q2219.91 223.93 2213.84 223.93 Q2211.6 223.93 2209.61 223.582 Q2207.62 223.258 2205.74 222.564 L2205.74 218.42 Q2207.62 219.439 2209.45 219.925 Q2211.27 220.411 2213.17 220.411 Q2217.36 220.411 2219.45 218.212 Q2221.53 216.036 2221.53 211.615 L2221.53 209.508 Q2220.21 211.8 2218.15 212.934 Q2216.09 214.069 2213.22 214.069 Q2208.45 214.069 2205.53 210.434 Q2202.62 206.8 2202.62 200.805 Q2202.62 194.786 2205.53 191.152 Q2208.45 187.518 2213.22 187.518 Q2216.09 187.518 2218.15 188.652 Q2220.21 189.786 2221.53 192.078 L2221.53 188.143 L2225.79 188.143 L2225.79 210.851 Z" fill="#000000" fill-rule="nonzero" fill-opacity="1" /><path clip-path="url(#clip190)" d="M2256.74 200.041 L2256.74 202.124 L2237.15 202.124 Q2237.43 206.522 2239.79 208.837 Q2242.18 211.129 2246.41 211.129 Q2248.87 211.129 2251.16 210.527 Q2253.47 209.925 2255.74 208.721 L2255.74 212.749 Q2253.45 213.721 2251.04 214.231 Q2248.64 214.74 2246.16 214.74 Q2239.96 214.74 2236.32 211.129 Q2232.71 207.518 2232.71 201.36 Q2232.71 194.995 2236.14 191.268 Q2239.58 187.518 2245.42 187.518 Q2250.65 187.518 2253.68 190.897 Q2256.74 194.254 2256.74 200.041 M2252.48 198.791 Q2252.43 195.296 2250.51 193.212 Q2248.61 191.129 2245.46 191.129 Q2241.9 191.129 2239.75 193.143 Q2237.62 195.157 2237.29 198.814 L2252.48 198.791 Z" fill="#000000" fill-rule="nonzero" fill-opacity="1" /></svg>
