<?xml version="1.0" encoding="utf-8"?>
<svg xmlns="http://www.w3.org/2000/svg" xmlns:xlink="http://www.w3.org/1999/xlink" width="600" height="400" viewBox="0 0 2400 1600">
<defs>
  <clipPath id="clip110">
    <rect x="0" y="0" width="2400" height="1600"/>
  </clipPath>
</defs>
<path clip-path="url(#clip110)" d="M0 1600 L2400 1600 L2400 0 L0 0  Z" fill="#ffffff" fill-rule="evenodd" fill-opacity="1"/>
<defs>
  <clipPath id="clip111">
    <rect x="480" y="0" width="1681" height="1600"/>
  </clipPath>
</defs>
<path clip-path="url(#clip110)" d="M194.422 1423.18 L2352.76 1423.18 L2352.76 47.2441 L194.422 47.2441  Z" fill="#ffffff" fill-rule="evenodd" fill-opacity="1"/>
<defs>
  <clipPath id="clip112">
    <rect x="194" y="47" width="2159" height="1377"/>
  </clipPath>
</defs>
<polyline clip-path="url(#clip112)" style="stroke:#000000; stroke-linecap:round; stroke-linejoin:round; stroke-width:2; stroke-opacity:0.1; fill:none" points="194.422,1423.18 194.422,47.2441 "/>
<polyline clip-path="url(#clip112)" style="stroke:#000000; stroke-linecap:round; stroke-linejoin:round; stroke-width:2; stroke-opacity:0.1; fill:none" points="734.006,1423.18 734.006,47.2441 "/>
<polyline clip-path="url(#clip112)" style="stroke:#000000; stroke-linecap:round; stroke-linejoin:round; stroke-width:2; stroke-opacity:0.1; fill:none" points="1273.59,1423.18 1273.59,47.2441 "/>
<polyline clip-path="url(#clip112)" style="stroke:#000000; stroke-linecap:round; stroke-linejoin:round; stroke-width:2; stroke-opacity:0.1; fill:none" points="1813.17,1423.18 1813.17,47.2441 "/>
<polyline clip-path="url(#clip112)" style="stroke:#000000; stroke-linecap:round; stroke-linejoin:round; stroke-width:2; stroke-opacity:0.1; fill:none" points="2352.76,1423.18 2352.76,47.2441 "/>
<polyline clip-path="url(#clip112)" style="stroke:#000000; stroke-linecap:round; stroke-linejoin:round; stroke-width:2; stroke-opacity:0.1; fill:none" points="194.422,1389.88 2352.76,1389.88 "/>
<polyline clip-path="url(#clip112)" style="stroke:#000000; stroke-linecap:round; stroke-linejoin:round; stroke-width:2; stroke-opacity:0.1; fill:none" points="194.422,1189.54 2352.76,1189.54 "/>
<polyline clip-path="url(#clip112)" style="stroke:#000000; stroke-linecap:round; stroke-linejoin:round; stroke-width:2; stroke-opacity:0.1; fill:none" points="194.422,989.187 2352.76,989.187 "/>
<polyline clip-path="url(#clip112)" style="stroke:#000000; stroke-linecap:round; stroke-linejoin:round; stroke-width:2; stroke-opacity:0.1; fill:none" points="194.422,788.838 2352.76,788.838 "/>
<polyline clip-path="url(#clip112)" style="stroke:#000000; stroke-linecap:round; stroke-linejoin:round; stroke-width:2; stroke-opacity:0.1; fill:none" points="194.422,588.49 2352.76,588.49 "/>
<polyline clip-path="url(#clip112)" style="stroke:#000000; stroke-linecap:round; stroke-linejoin:round; stroke-width:2; stroke-opacity:0.1; fill:none" points="194.422,388.141 2352.76,388.141 "/>
<polyline clip-path="url(#clip112)" style="stroke:#000000; stroke-linecap:round; stroke-linejoin:round; stroke-width:2; stroke-opacity:0.1; fill:none" points="194.422,187.793 2352.76,187.793 "/>
<polyline clip-path="url(#clip110)" style="stroke:#000000; stroke-linecap:round; stroke-linejoin:round; stroke-width:4; stroke-opacity:1; fill:none" points="194.422,1423.18 2352.76,1423.18 "/>
<polyline clip-path="url(#clip110)" style="stroke:#000000; stroke-linecap:round; stroke-linejoin:round; stroke-width:4; stroke-opacity:1; fill:none" points="194.422,1423.18 194.422,1404.28 "/>
<polyline clip-path="url(#clip110)" style="stroke:#000000; stroke-linecap:round; stroke-linejoin:round; stroke-width:4; stroke-opacity:1; fill:none" points="734.006,1423.18 734.006,1404.28 "/>
<polyline clip-path="url(#clip110)" style="stroke:#000000; stroke-linecap:round; stroke-linejoin:round; stroke-width:4; stroke-opacity:1; fill:none" points="1273.59,1423.18 1273.59,1404.28 "/>
<polyline clip-path="url(#clip110)" style="stroke:#000000; stroke-linecap:round; stroke-linejoin:round; stroke-width:4; stroke-opacity:1; fill:none" points="1813.17,1423.18 1813.17,1404.28 "/>
<polyline clip-path="url(#clip110)" style="stroke:#000000; stroke-linecap:round; stroke-linejoin:round; stroke-width:4; stroke-opacity:1; fill:none" points="2352.76,1423.18 2352.76,1404.28 "/>
<path clip-path="url(#clip110)" d="M171.806 1454.1 Q168.195 1454.1 166.367 1457.66 Q164.561 1461.2 164.561 1468.33 Q164.561 1475.44 166.367 1479.01 Q168.195 1482.55 171.806 1482.55 Q175.441 1482.55 177.246 1479.01 Q179.075 1475.44 179.075 1468.33 Q179.075 1461.2 177.246 1457.66 Q175.441 1454.1 171.806 1454.1 M171.806 1450.39 Q177.617 1450.39 180.672 1455 Q183.751 1459.58 183.751 1468.33 Q183.751 1477.06 180.672 1481.67 Q177.617 1486.25 171.806 1486.25 Q165.996 1486.25 162.918 1481.67 Q159.862 1477.06 159.862 1468.33 Q159.862 1459.58 162.918 1455 Q165.996 1450.39 171.806 1450.39 Z" fill="#000000" fill-rule="nonzero" fill-opacity="1" /><path clip-path="url(#clip110)" d="M191.968 1479.7 L196.853 1479.7 L196.853 1485.58 L191.968 1485.58 L191.968 1479.7 Z" fill="#000000" fill-rule="nonzero" fill-opacity="1" /><path clip-path="url(#clip110)" d="M217.038 1454.1 Q213.427 1454.1 211.598 1457.66 Q209.792 1461.2 209.792 1468.33 Q209.792 1475.44 211.598 1479.01 Q213.427 1482.55 217.038 1482.55 Q220.672 1482.55 222.478 1479.01 Q224.306 1475.44 224.306 1468.33 Q224.306 1461.2 222.478 1457.66 Q220.672 1454.1 217.038 1454.1 M217.038 1450.39 Q222.848 1450.39 225.903 1455 Q228.982 1459.58 228.982 1468.33 Q228.982 1477.06 225.903 1481.67 Q222.848 1486.25 217.038 1486.25 Q211.228 1486.25 208.149 1481.67 Q205.093 1477.06 205.093 1468.33 Q205.093 1459.58 208.149 1455 Q211.228 1450.39 217.038 1450.39 Z" fill="#000000" fill-rule="nonzero" fill-opacity="1" /><path clip-path="url(#clip110)" d="M711.888 1454.1 Q708.277 1454.1 706.448 1457.66 Q704.642 1461.2 704.642 1468.33 Q704.642 1475.44 706.448 1479.01 Q708.277 1482.55 711.888 1482.55 Q715.522 1482.55 717.327 1479.01 Q719.156 1475.44 719.156 1468.33 Q719.156 1461.2 717.327 1457.66 Q715.522 1454.1 711.888 1454.1 M711.888 1450.39 Q717.698 1450.39 720.753 1455 Q723.832 1459.58 723.832 1468.33 Q723.832 1477.06 720.753 1481.67 Q717.698 1486.25 711.888 1486.25 Q706.077 1486.25 702.999 1481.67 Q699.943 1477.06 699.943 1468.33 Q699.943 1459.58 702.999 1455 Q706.077 1450.39 711.888 1450.39 Z" fill="#000000" fill-rule="nonzero" fill-opacity="1" /><path clip-path="url(#clip110)" d="M732.05 1479.7 L736.934 1479.7 L736.934 1485.58 L732.05 1485.58 L732.05 1479.7 Z" fill="#000000" fill-rule="nonzero" fill-opacity="1" /><path clip-path="url(#clip110)" d="M747.165 1451.02 L765.522 1451.02 L765.522 1454.96 L751.448 1454.96 L751.448 1463.43 Q752.466 1463.08 753.485 1462.92 Q754.503 1462.73 755.522 1462.73 Q761.309 1462.73 764.688 1465.9 Q768.068 1469.08 768.068 1474.49 Q768.068 1480.07 764.596 1483.17 Q761.123 1486.25 754.804 1486.25 Q752.628 1486.25 750.36 1485.88 Q748.114 1485.51 745.707 1484.77 L745.707 1480.07 Q747.79 1481.2 750.012 1481.76 Q752.235 1482.32 754.711 1482.32 Q758.716 1482.32 761.054 1480.21 Q763.392 1478.1 763.392 1474.49 Q763.392 1470.88 761.054 1468.77 Q758.716 1466.67 754.711 1466.67 Q752.836 1466.67 750.961 1467.08 Q749.11 1467.5 747.165 1468.38 L747.165 1451.02 Z" fill="#000000" fill-rule="nonzero" fill-opacity="1" /><path clip-path="url(#clip110)" d="M1240.74 1481.64 L1248.38 1481.64 L1248.38 1455.28 L1240.07 1456.95 L1240.07 1452.69 L1248.33 1451.02 L1253.01 1451.02 L1253.01 1481.64 L1260.65 1481.64 L1260.65 1485.58 L1240.74 1485.58 L1240.74 1481.64 Z" fill="#000000" fill-rule="nonzero" fill-opacity="1" /><path clip-path="url(#clip110)" d="M1270.09 1479.7 L1274.98 1479.7 L1274.98 1485.58 L1270.09 1485.58 L1270.09 1479.7 Z" fill="#000000" fill-rule="nonzero" fill-opacity="1" /><path clip-path="url(#clip110)" d="M1295.16 1454.1 Q1291.55 1454.1 1289.72 1457.66 Q1287.92 1461.2 1287.92 1468.33 Q1287.92 1475.44 1289.72 1479.01 Q1291.55 1482.55 1295.16 1482.55 Q1298.8 1482.55 1300.6 1479.01 Q1302.43 1475.44 1302.43 1468.33 Q1302.43 1461.2 1300.6 1457.66 Q1298.8 1454.1 1295.16 1454.1 M1295.16 1450.39 Q1300.97 1450.39 1304.03 1455 Q1307.11 1459.58 1307.11 1468.33 Q1307.11 1477.06 1304.03 1481.67 Q1300.97 1486.25 1295.16 1486.25 Q1289.35 1486.25 1286.27 1481.67 Q1283.22 1477.06 1283.22 1468.33 Q1283.22 1459.58 1286.27 1455 Q1289.35 1450.39 1295.16 1450.39 Z" fill="#000000" fill-rule="nonzero" fill-opacity="1" /><path clip-path="url(#clip110)" d="M1780.82 1481.64 L1788.46 1481.64 L1788.46 1455.28 L1780.15 1456.95 L1780.15 1452.69 L1788.42 1451.02 L1793.09 1451.02 L1793.09 1481.64 L1800.73 1481.64 L1800.73 1485.58 L1780.82 1485.58 L1780.82 1481.64 Z" fill="#000000" fill-rule="nonzero" fill-opacity="1" /><path clip-path="url(#clip110)" d="M1810.17 1479.7 L1815.06 1479.7 L1815.06 1485.58 L1810.17 1485.58 L1810.17 1479.7 Z" fill="#000000" fill-rule="nonzero" fill-opacity="1" /><path clip-path="url(#clip110)" d="M1825.29 1451.02 L1843.65 1451.02 L1843.65 1454.96 L1829.57 1454.96 L1829.57 1463.43 Q1830.59 1463.08 1831.61 1462.92 Q1832.63 1462.73 1833.65 1462.73 Q1839.43 1462.73 1842.81 1465.9 Q1846.19 1469.08 1846.19 1474.49 Q1846.19 1480.07 1842.72 1483.17 Q1839.25 1486.25 1832.93 1486.25 Q1830.75 1486.25 1828.48 1485.88 Q1826.24 1485.51 1823.83 1484.77 L1823.83 1480.07 Q1825.92 1481.2 1828.14 1481.76 Q1830.36 1482.32 1832.84 1482.32 Q1836.84 1482.32 1839.18 1480.21 Q1841.52 1478.1 1841.52 1474.49 Q1841.52 1470.88 1839.18 1468.77 Q1836.84 1466.67 1832.84 1466.67 Q1830.96 1466.67 1829.09 1467.08 Q1827.23 1467.5 1825.29 1468.38 L1825.29 1451.02 Z" fill="#000000" fill-rule="nonzero" fill-opacity="1" /><path clip-path="url(#clip110)" d="M2323.99 1481.64 L2340.31 1481.64 L2340.31 1485.58 L2318.37 1485.58 L2318.37 1481.64 Q2321.03 1478.89 2325.61 1474.26 Q2330.22 1469.61 2331.4 1468.27 Q2333.65 1465.74 2334.53 1464.01 Q2335.43 1462.25 2335.43 1460.56 Q2335.43 1457.8 2333.49 1456.07 Q2331.56 1454.33 2328.46 1454.33 Q2326.26 1454.33 2323.81 1455.09 Q2321.38 1455.86 2318.6 1457.41 L2318.6 1452.69 Q2321.43 1451.55 2323.88 1450.97 Q2326.33 1450.39 2328.37 1450.39 Q2333.74 1450.39 2336.93 1453.08 Q2340.13 1455.77 2340.13 1460.26 Q2340.13 1462.39 2339.32 1464.31 Q2338.53 1466.2 2336.42 1468.8 Q2335.85 1469.47 2332.74 1472.69 Q2329.64 1475.88 2323.99 1481.64 Z" fill="#000000" fill-rule="nonzero" fill-opacity="1" /><path clip-path="url(#clip110)" d="M2350.13 1479.7 L2355.01 1479.7 L2355.01 1485.58 L2350.13 1485.58 L2350.13 1479.7 Z" fill="#000000" fill-rule="nonzero" fill-opacity="1" /><path clip-path="url(#clip110)" d="M2375.2 1454.1 Q2371.59 1454.1 2369.76 1457.66 Q2367.95 1461.2 2367.95 1468.33 Q2367.95 1475.44 2369.76 1479.01 Q2371.59 1482.55 2375.2 1482.55 Q2378.83 1482.55 2380.64 1479.01 Q2382.47 1475.44 2382.47 1468.33 Q2382.47 1461.2 2380.64 1457.66 Q2378.83 1454.1 2375.2 1454.1 M2375.2 1450.39 Q2381.01 1450.39 2384.06 1455 Q2387.14 1459.58 2387.14 1468.33 Q2387.14 1477.06 2384.06 1481.67 Q2381.01 1486.25 2375.2 1486.25 Q2369.39 1486.25 2366.31 1481.67 Q2363.25 1477.06 2363.25 1468.33 Q2363.25 1459.58 2366.31 1455 Q2369.39 1450.39 2375.2 1450.39 Z" fill="#000000" fill-rule="nonzero" fill-opacity="1" /><path clip-path="url(#clip110)" d="M1272.65 1522.27 L1272.65 1532.4 L1284.71 1532.4 L1284.71 1536.95 L1272.65 1536.95 L1272.65 1556.3 Q1272.65 1560.66 1273.83 1561.9 Q1275.04 1563.14 1278.7 1563.14 L1284.71 1563.14 L1284.71 1568.04 L1278.7 1568.04 Q1271.92 1568.04 1269.34 1565.53 Q1266.76 1562.98 1266.76 1556.3 L1266.76 1536.95 L1262.46 1536.95 L1262.46 1532.4 L1266.76 1532.4 L1266.76 1522.27 L1272.65 1522.27 Z" fill="#000000" fill-rule="nonzero" fill-opacity="1" /><polyline clip-path="url(#clip110)" style="stroke:#000000; stroke-linecap:round; stroke-linejoin:round; stroke-width:4; stroke-opacity:1; fill:none" points="194.422,1423.18 194.422,47.2441 "/>
<polyline clip-path="url(#clip110)" style="stroke:#000000; stroke-linecap:round; stroke-linejoin:round; stroke-width:4; stroke-opacity:1; fill:none" points="194.422,1389.88 213.32,1389.88 "/>
<polyline clip-path="url(#clip110)" style="stroke:#000000; stroke-linecap:round; stroke-linejoin:round; stroke-width:4; stroke-opacity:1; fill:none" points="194.422,1189.54 213.32,1189.54 "/>
<polyline clip-path="url(#clip110)" style="stroke:#000000; stroke-linecap:round; stroke-linejoin:round; stroke-width:4; stroke-opacity:1; fill:none" points="194.422,989.187 213.32,989.187 "/>
<polyline clip-path="url(#clip110)" style="stroke:#000000; stroke-linecap:round; stroke-linejoin:round; stroke-width:4; stroke-opacity:1; fill:none" points="194.422,788.838 213.32,788.838 "/>
<polyline clip-path="url(#clip110)" style="stroke:#000000; stroke-linecap:round; stroke-linejoin:round; stroke-width:4; stroke-opacity:1; fill:none" points="194.422,588.49 213.32,588.49 "/>
<polyline clip-path="url(#clip110)" style="stroke:#000000; stroke-linecap:round; stroke-linejoin:round; stroke-width:4; stroke-opacity:1; fill:none" points="194.422,388.141 213.32,388.141 "/>
<polyline clip-path="url(#clip110)" style="stroke:#000000; stroke-linecap:round; stroke-linejoin:round; stroke-width:4; stroke-opacity:1; fill:none" points="194.422,187.793 213.32,187.793 "/>
<path clip-path="url(#clip110)" d="M51.5708 1390.34 L81.2466 1390.34 L81.2466 1394.27 L51.5708 1394.27 L51.5708 1390.34 Z" fill="#000000" fill-rule="nonzero" fill-opacity="1" /><path clip-path="url(#clip110)" d="M92.1493 1403.23 L99.7882 1403.23 L99.7882 1376.86 L91.478 1378.53 L91.478 1374.27 L99.7419 1372.6 L104.418 1372.6 L104.418 1403.23 L112.057 1403.23 L112.057 1407.16 L92.1493 1407.16 L92.1493 1403.23 Z" fill="#000000" fill-rule="nonzero" fill-opacity="1" /><path clip-path="url(#clip110)" d="M121.501 1401.28 L126.385 1401.28 L126.385 1407.16 L121.501 1407.16 L121.501 1401.28 Z" fill="#000000" fill-rule="nonzero" fill-opacity="1" /><path clip-path="url(#clip110)" d="M146.57 1390.75 Q143.237 1390.75 141.316 1392.53 Q139.418 1394.32 139.418 1397.44 Q139.418 1400.57 141.316 1402.35 Q143.237 1404.13 146.57 1404.13 Q149.904 1404.13 151.825 1402.35 Q153.746 1400.54 153.746 1397.44 Q153.746 1394.32 151.825 1392.53 Q149.927 1390.75 146.57 1390.75 M141.894 1388.76 Q138.885 1388.02 137.195 1385.96 Q135.529 1383.9 135.529 1380.94 Q135.529 1376.79 138.469 1374.39 Q141.431 1371.98 146.57 1371.98 Q151.732 1371.98 154.672 1374.39 Q157.612 1376.79 157.612 1380.94 Q157.612 1383.9 155.922 1385.96 Q154.255 1388.02 151.269 1388.76 Q154.649 1389.55 156.524 1391.84 Q158.422 1394.13 158.422 1397.44 Q158.422 1402.47 155.343 1405.15 Q152.288 1407.84 146.57 1407.84 Q140.853 1407.84 137.774 1405.15 Q134.719 1402.47 134.719 1397.44 Q134.719 1394.13 136.617 1391.84 Q138.515 1389.55 141.894 1388.76 M140.181 1381.38 Q140.181 1384.06 141.848 1385.57 Q143.538 1387.07 146.57 1387.07 Q149.58 1387.07 151.269 1385.57 Q152.982 1384.06 152.982 1381.38 Q152.982 1378.69 151.269 1377.19 Q149.58 1375.68 146.57 1375.68 Q143.538 1375.68 141.848 1377.19 Q140.181 1378.69 140.181 1381.38 Z" fill="#000000" fill-rule="nonzero" fill-opacity="1" /><path clip-path="url(#clip110)" d="M51.3162 1189.99 L80.992 1189.99 L80.992 1193.92 L51.3162 1193.92 L51.3162 1189.99 Z" fill="#000000" fill-rule="nonzero" fill-opacity="1" /><path clip-path="url(#clip110)" d="M91.8947 1202.88 L99.5335 1202.88 L99.5335 1176.51 L91.2234 1178.18 L91.2234 1173.92 L99.4872 1172.26 L104.163 1172.26 L104.163 1202.88 L111.802 1202.88 L111.802 1206.82 L91.8947 1206.82 L91.8947 1202.88 Z" fill="#000000" fill-rule="nonzero" fill-opacity="1" /><path clip-path="url(#clip110)" d="M121.246 1200.94 L126.131 1200.94 L126.131 1206.82 L121.246 1206.82 L121.246 1200.94 Z" fill="#000000" fill-rule="nonzero" fill-opacity="1" /><path clip-path="url(#clip110)" d="M146.894 1187.67 Q143.746 1187.67 141.894 1189.82 Q140.066 1191.98 140.066 1195.73 Q140.066 1199.45 141.894 1201.63 Q143.746 1203.78 146.894 1203.78 Q150.043 1203.78 151.871 1201.63 Q153.723 1199.45 153.723 1195.73 Q153.723 1191.98 151.871 1189.82 Q150.043 1187.67 146.894 1187.67 M156.177 1173.02 L156.177 1177.28 Q154.417 1176.45 152.612 1176.01 Q150.83 1175.57 149.07 1175.57 Q144.441 1175.57 141.987 1178.69 Q139.556 1181.82 139.209 1188.14 Q140.575 1186.12 142.635 1185.06 Q144.695 1183.97 147.172 1183.97 Q152.38 1183.97 155.39 1187.14 Q158.422 1190.29 158.422 1195.73 Q158.422 1201.05 155.274 1204.27 Q152.126 1207.49 146.894 1207.49 Q140.899 1207.49 137.728 1202.9 Q134.556 1198.3 134.556 1189.57 Q134.556 1181.38 138.445 1176.51 Q142.334 1171.63 148.885 1171.63 Q150.644 1171.63 152.427 1171.98 Q154.232 1172.33 156.177 1173.02 Z" fill="#000000" fill-rule="nonzero" fill-opacity="1" /><path clip-path="url(#clip110)" d="M50.9921 989.638 L80.6679 989.638 L80.6679 993.574 L50.9921 993.574 L50.9921 989.638 Z" fill="#000000" fill-rule="nonzero" fill-opacity="1" /><path clip-path="url(#clip110)" d="M91.5706 1002.53 L99.2095 1002.53 L99.2095 976.166 L90.8993 977.833 L90.8993 973.574 L99.1632 971.907 L103.839 971.907 L103.839 1002.53 L111.478 1002.53 L111.478 1006.47 L91.5706 1006.47 L91.5706 1002.53 Z" fill="#000000" fill-rule="nonzero" fill-opacity="1" /><path clip-path="url(#clip110)" d="M120.922 1000.59 L125.807 1000.59 L125.807 1006.47 L120.922 1006.47 L120.922 1000.59 Z" fill="#000000" fill-rule="nonzero" fill-opacity="1" /><path clip-path="url(#clip110)" d="M148.839 975.981 L137.033 994.43 L148.839 994.43 L148.839 975.981 M147.612 971.907 L153.492 971.907 L153.492 994.43 L158.422 994.43 L158.422 998.319 L153.492 998.319 L153.492 1006.47 L148.839 1006.47 L148.839 998.319 L133.237 998.319 L133.237 993.805 L147.612 971.907 Z" fill="#000000" fill-rule="nonzero" fill-opacity="1" /><path clip-path="url(#clip110)" d="M53.0754 789.29 L82.7512 789.29 L82.7512 793.225 L53.0754 793.225 L53.0754 789.29 Z" fill="#000000" fill-rule="nonzero" fill-opacity="1" /><path clip-path="url(#clip110)" d="M93.6539 802.183 L101.293 802.183 L101.293 775.818 L92.9826 777.484 L92.9826 773.225 L101.246 771.558 L105.922 771.558 L105.922 802.183 L113.561 802.183 L113.561 806.118 L93.6539 806.118 L93.6539 802.183 Z" fill="#000000" fill-rule="nonzero" fill-opacity="1" /><path clip-path="url(#clip110)" d="M123.006 800.239 L127.89 800.239 L127.89 806.118 L123.006 806.118 L123.006 800.239 Z" fill="#000000" fill-rule="nonzero" fill-opacity="1" /><path clip-path="url(#clip110)" d="M142.103 802.183 L158.422 802.183 L158.422 806.118 L136.478 806.118 L136.478 802.183 Q139.14 799.429 143.723 794.799 Q148.33 790.146 149.51 788.804 Q151.755 786.281 152.635 784.544 Q153.538 782.785 153.538 781.095 Q153.538 778.341 151.593 776.605 Q149.672 774.869 146.57 774.869 Q144.371 774.869 141.918 775.632 Q139.487 776.396 136.709 777.947 L136.709 773.225 Q139.533 772.091 141.987 771.512 Q144.441 770.933 146.478 770.933 Q151.848 770.933 155.042 773.619 Q158.237 776.304 158.237 780.794 Q158.237 782.924 157.427 784.845 Q156.64 786.744 154.533 789.336 Q153.955 790.007 150.853 793.225 Q147.751 796.419 142.103 802.183 Z" fill="#000000" fill-rule="nonzero" fill-opacity="1" /><path clip-path="url(#clip110)" d="M51.4782 588.941 L81.154 588.941 L81.154 592.876 L51.4782 592.876 L51.4782 588.941 Z" fill="#000000" fill-rule="nonzero" fill-opacity="1" /><path clip-path="url(#clip110)" d="M92.0567 601.835 L99.6956 601.835 L99.6956 575.469 L91.3854 577.136 L91.3854 572.876 L99.6493 571.21 L104.325 571.21 L104.325 601.835 L111.964 601.835 L111.964 605.77 L92.0567 605.77 L92.0567 601.835 Z" fill="#000000" fill-rule="nonzero" fill-opacity="1" /><path clip-path="url(#clip110)" d="M121.408 599.89 L126.293 599.89 L126.293 605.77 L121.408 605.77 L121.408 599.89 Z" fill="#000000" fill-rule="nonzero" fill-opacity="1" /><path clip-path="url(#clip110)" d="M146.478 574.289 Q142.867 574.289 141.038 577.853 Q139.232 581.395 139.232 588.525 Q139.232 595.631 141.038 599.196 Q142.867 602.737 146.478 602.737 Q150.112 602.737 151.918 599.196 Q153.746 595.631 153.746 588.525 Q153.746 581.395 151.918 577.853 Q150.112 574.289 146.478 574.289 M146.478 570.585 Q152.288 570.585 155.343 575.191 Q158.422 579.775 158.422 588.525 Q158.422 597.251 155.343 601.858 Q152.288 606.441 146.478 606.441 Q140.668 606.441 137.589 601.858 Q134.533 597.251 134.533 588.525 Q134.533 579.775 137.589 575.191 Q140.668 570.585 146.478 570.585 Z" fill="#000000" fill-rule="nonzero" fill-opacity="1" /><path clip-path="url(#clip110)" d="M51.5708 388.593 L81.2466 388.593 L81.2466 392.528 L51.5708 392.528 L51.5708 388.593 Z" fill="#000000" fill-rule="nonzero" fill-opacity="1" /><path clip-path="url(#clip110)" d="M101.339 373.94 Q97.728 373.94 95.8993 377.505 Q94.0937 381.046 94.0937 388.176 Q94.0937 395.282 95.8993 398.847 Q97.728 402.389 101.339 402.389 Q104.973 402.389 106.779 398.847 Q108.608 395.282 108.608 388.176 Q108.608 381.046 106.779 377.505 Q104.973 373.94 101.339 373.94 M101.339 370.236 Q107.149 370.236 110.205 374.843 Q113.283 379.426 113.283 388.176 Q113.283 396.903 110.205 401.509 Q107.149 406.093 101.339 406.093 Q95.5289 406.093 92.4502 401.509 Q89.3947 396.903 89.3947 388.176 Q89.3947 379.426 92.4502 374.843 Q95.5289 370.236 101.339 370.236 Z" fill="#000000" fill-rule="nonzero" fill-opacity="1" /><path clip-path="url(#clip110)" d="M121.501 399.542 L126.385 399.542 L126.385 405.421 L121.501 405.421 L121.501 399.542 Z" fill="#000000" fill-rule="nonzero" fill-opacity="1" /><path clip-path="url(#clip110)" d="M146.57 389.009 Q143.237 389.009 141.316 390.792 Q139.418 392.574 139.418 395.699 Q139.418 398.824 141.316 400.606 Q143.237 402.389 146.57 402.389 Q149.904 402.389 151.825 400.606 Q153.746 398.801 153.746 395.699 Q153.746 392.574 151.825 390.792 Q149.927 389.009 146.57 389.009 M141.894 387.019 Q138.885 386.278 137.195 384.218 Q135.529 382.157 135.529 379.195 Q135.529 375.051 138.469 372.644 Q141.431 370.236 146.57 370.236 Q151.732 370.236 154.672 372.644 Q157.612 375.051 157.612 379.195 Q157.612 382.157 155.922 384.218 Q154.255 386.278 151.269 387.019 Q154.649 387.806 156.524 390.097 Q158.422 392.389 158.422 395.699 Q158.422 400.722 155.343 403.407 Q152.288 406.093 146.57 406.093 Q140.853 406.093 137.774 403.407 Q134.719 400.722 134.719 395.699 Q134.719 392.389 136.617 390.097 Q138.515 387.806 141.894 387.019 M140.181 379.634 Q140.181 382.32 141.848 383.824 Q143.538 385.329 146.57 385.329 Q149.58 385.329 151.269 383.824 Q152.982 382.32 152.982 379.634 Q152.982 376.949 151.269 375.445 Q149.58 373.94 146.57 373.94 Q143.538 373.94 141.848 375.445 Q140.181 376.949 140.181 379.634 Z" fill="#000000" fill-rule="nonzero" fill-opacity="1" /><path clip-path="url(#clip110)" d="M51.3162 188.244 L80.992 188.244 L80.992 192.179 L51.3162 192.179 L51.3162 188.244 Z" fill="#000000" fill-rule="nonzero" fill-opacity="1" /><path clip-path="url(#clip110)" d="M101.084 173.591 Q97.4734 173.591 95.6447 177.156 Q93.8391 180.698 93.8391 187.827 Q93.8391 194.934 95.6447 198.499 Q97.4734 202.04 101.084 202.04 Q104.719 202.04 106.524 198.499 Q108.353 194.934 108.353 187.827 Q108.353 180.698 106.524 177.156 Q104.719 173.591 101.084 173.591 M101.084 169.888 Q106.895 169.888 109.95 174.494 Q113.029 179.077 113.029 187.827 Q113.029 196.554 109.95 201.161 Q106.895 205.744 101.084 205.744 Q95.2743 205.744 92.1956 201.161 Q89.1401 196.554 89.1401 187.827 Q89.1401 179.077 92.1956 174.494 Q95.2743 169.888 101.084 169.888 Z" fill="#000000" fill-rule="nonzero" fill-opacity="1" /><path clip-path="url(#clip110)" d="M121.246 199.193 L126.131 199.193 L126.131 205.073 L121.246 205.073 L121.246 199.193 Z" fill="#000000" fill-rule="nonzero" fill-opacity="1" /><path clip-path="url(#clip110)" d="M146.894 185.929 Q143.746 185.929 141.894 188.082 Q140.066 190.235 140.066 193.985 Q140.066 197.712 141.894 199.888 Q143.746 202.04 146.894 202.04 Q150.043 202.04 151.871 199.888 Q153.723 197.712 153.723 193.985 Q153.723 190.235 151.871 188.082 Q150.043 185.929 146.894 185.929 M156.177 171.277 L156.177 175.536 Q154.417 174.702 152.612 174.263 Q150.83 173.823 149.07 173.823 Q144.441 173.823 141.987 176.948 Q139.556 180.073 139.209 186.392 Q140.575 184.378 142.635 183.314 Q144.695 182.226 147.172 182.226 Q152.38 182.226 155.39 185.397 Q158.422 188.545 158.422 193.985 Q158.422 199.309 155.274 202.526 Q152.126 205.744 146.894 205.744 Q140.899 205.744 137.728 201.161 Q134.556 196.554 134.556 187.827 Q134.556 179.633 138.445 174.772 Q142.334 169.888 148.885 169.888 Q150.644 169.888 152.427 170.235 Q154.232 170.582 156.177 171.277 Z" fill="#000000" fill-rule="nonzero" fill-opacity="1" /><polyline clip-path="url(#clip112)" style="stroke:#009af9; stroke-linecap:round; stroke-linejoin:round; stroke-width:4; stroke-opacity:1; fill:none" points="194.422,1384.24 196.583,1371.31 198.743,1358.51 200.904,1345.84 203.064,1333.29 205.225,1320.87 207.385,1308.57 209.546,1296.39 211.706,1284.34 213.867,1272.4 216.027,1260.59 218.188,1248.89 220.348,1237.31 222.509,1225.84 224.669,1214.49 226.83,1203.25 228.99,1192.13 231.151,1181.11 233.311,1170.2 235.471,1159.41 237.632,1148.72 239.792,1138.13 241.953,1127.66 244.113,1117.28 246.274,1107.01 248.434,1096.84 250.595,1086.78 252.755,1076.81 254.916,1066.94 257.076,1057.17 259.237,1047.5 261.397,1037.93 263.558,1028.45 265.718,1019.06 267.879,1009.77 270.039,1000.57 272.2,991.46 274.36,982.443 276.521,973.515 278.681,964.677 280.842,955.926 283.002,947.263 285.163,938.686 287.323,930.194 289.484,921.787 291.644,913.464 293.805,905.224 295.965,897.066 298.126,888.989 300.286,880.992 302.447,873.075 304.607,865.237 306.768,857.477 308.928,849.795 311.089,842.189 313.249,834.658 315.41,827.203 317.57,819.822 319.731,812.514 321.891,805.279 324.052,798.116 326.212,791.025 328.373,784.004 330.533,777.053 332.694,770.171 334.854,763.358 337.015,756.613 339.175,749.934 341.336,743.323 343.496,736.777 345.657,730.296 347.817,723.88 349.978,717.527 352.138,711.238 354.299,705.012 356.459,698.847 358.62,692.745 360.78,686.702 362.941,680.72 365.101,674.798 367.262,668.935 369.422,663.13 371.583,657.383 373.743,651.693 375.904,646.06 378.064,640.483 380.225,634.962 382.385,629.496 384.546,624.084 386.706,618.726 388.867,613.421 391.027,608.169 393.188,602.97 395.348,597.822 397.509,592.726 399.669,587.68 401.83,582.685 403.99,577.739 406.151,572.843 408.311,567.995 410.472,563.196 412.632,558.444 414.793,553.74 416.953,549.083 419.114,544.471 421.274,539.906 423.435,535.387 425.595,530.912 427.755,526.482 429.916,522.095 432.076,517.753 434.237,513.454 436.397,509.197 438.558,504.983 440.718,500.811 442.879,496.68 445.039,492.591 447.2,488.542 449.36,484.534 451.521,480.566 453.681,476.637 455.842,472.747 458.002,468.897 460.163,465.084 462.323,461.31 464.484,457.573 466.644,453.873 468.805,450.21 470.965,446.584 473.126,442.994 475.286,439.44 477.447,435.921 479.607,432.437 481.768,428.988 483.928,425.573 486.089,422.192 488.249,418.845 490.41,415.531 492.57,412.25 494.731,409.002 496.891,405.787 499.052,402.603 501.212,399.451 503.373,396.33 505.533,393.241 507.694,390.182 509.854,387.153 512.015,384.155 514.175,381.187 516.336,378.248 518.496,375.338 520.657,372.458 522.817,369.606 524.978,366.782 527.138,363.986 529.299,361.219 531.459,358.478 533.62,355.765 535.78,353.079 537.941,350.42 540.101,347.787 542.262,345.181 544.422,342.6 546.583,340.045 548.743,337.516 550.904,335.012 553.064,332.533 555.225,330.078 557.385,327.648 559.546,325.242 561.706,322.86 563.867,320.502 566.027,318.168 568.188,315.857 570.348,313.568 572.509,311.303 574.669,309.06 576.83,306.84 578.99,304.642 581.151,302.465 583.311,300.311 585.472,298.177 587.632,296.066 589.793,293.975 591.953,291.905 594.114,289.855 596.274,287.826 598.435,285.818 600.595,283.829 602.756,281.86 604.916,279.911 607.077,277.981 609.237,276.07 611.398,274.179 613.558,272.306 615.718,270.452 617.879,268.616 620.039,266.799 622.2,264.999 624.36,263.218 626.521,261.454 628.681,259.708 630.842,257.979 633.002,256.268 635.163,254.573 637.323,252.895 639.484,251.234 641.644,249.59 643.805,247.961 645.965,246.349 648.126,244.753 650.286,243.173 652.447,241.608 654.607,240.059 656.768,238.526 658.928,237.007 661.089,235.504 663.249,234.016 665.41,232.543 667.57,231.084 669.731,229.64 671.891,228.21 674.052,226.794 676.212,225.393 678.373,224.005 680.533,222.632 682.694,221.272 684.854,219.925 687.015,218.593 689.175,217.273 691.336,215.967 693.496,214.673 695.657,213.393 697.817,212.125 699.978,210.87 702.138,209.628 704.299,208.398 706.459,207.18 708.62,205.974 710.78,204.78 712.941,203.599 715.101,202.429 717.262,201.271 719.422,200.124 721.583,198.989 723.743,197.865 725.904,196.752 728.064,195.651 730.225,194.56 732.385,193.48 734.546,192.411 736.706,191.353 738.867,190.305 741.027,189.268 743.188,188.241 745.348,187.224 747.509,186.218 749.669,185.221 751.83,184.234 753.99,183.257 756.151,182.29 758.311,181.333 760.472,180.385 762.632,179.446 764.793,178.517 766.953,177.597 769.114,176.686 771.274,175.784 773.435,174.891 775.595,174.007 777.756,173.131 779.916,172.265 782.077,171.406 784.237,170.557 786.398,169.716 788.558,168.883 790.719,168.058 792.879,167.242 795.04,166.433 797.2,165.633 799.361,164.841 801.521,164.056 803.681,163.279 805.842,162.51 808.002,161.749 810.163,160.995 812.323,160.249 814.484,159.51 816.644,158.779 818.805,158.055 820.965,157.338 823.126,156.628 825.286,155.926 827.447,155.23 829.607,154.541 831.768,153.86 833.928,153.185 836.089,152.516 838.249,151.855 840.41,151.2 842.57,150.552 844.731,149.91 846.891,149.274 849.052,148.645 851.212,148.023 853.373,147.406 855.533,146.796 857.694,146.192 859.854,145.593 862.015,145.001 864.175,144.415 866.336,143.834 868.496,143.26 870.657,142.691 872.817,142.128 874.978,141.57 877.138,141.018 879.299,140.472 881.459,139.931 883.62,139.395 885.78,138.865 887.941,138.34 890.101,137.821 892.262,137.306 894.422,136.797 896.583,136.292 898.743,135.793 900.904,135.299 903.064,134.809 905.225,134.325 907.385,133.845 909.546,133.37 911.706,132.9 913.867,132.435 916.027,131.974 918.188,131.517 920.348,131.066 922.509,130.618 924.669,130.175 926.83,129.737 928.99,129.303 931.151,128.873 933.311,128.447 935.472,128.026 937.632,127.608 939.793,127.195 941.953,126.786 944.114,126.381 946.274,125.98 948.435,125.583 950.595,125.19 952.756,124.8 954.916,124.415 957.077,124.033 959.237,123.655 961.398,123.281 963.558,122.911 965.719,122.544 967.879,122.181 970.04,121.821 972.2,121.465 974.361,121.113 976.521,120.764 978.682,120.418 980.842,120.076 983.003,119.738 985.163,119.402 987.324,119.07 989.484,118.742 991.645,118.417 993.805,118.094 995.965,117.776 998.126,117.46 1000.29,117.148 1002.45,116.838 1004.61,116.532 1006.77,116.229 1008.93,115.929 1011.09,115.632 1013.25,115.338 1015.41,115.046 1017.57,114.758 1019.73,114.473 1021.89,114.19 1024.05,113.911 1026.21,113.634 1028.37,113.36 1030.53,113.089 1032.69,112.82 1034.85,112.554 1037.01,112.291 1039.18,112.031 1041.34,111.773 1043.5,111.517 1045.66,111.265 1047.82,111.014 1049.98,110.767 1052.14,110.521 1054.3,110.279 1056.46,110.038 1058.62,109.8 1060.78,109.565 1062.94,109.332 1065.1,109.101 1067.26,108.872 1069.42,108.646 1071.58,108.422 1073.74,108.201 1075.9,107.981 1078.06,107.764 1080.22,107.549 1082.39,107.336 1084.55,107.125 1086.71,106.916 1088.87,106.709 1091.03,106.505 1093.19,106.302 1095.35,106.101 1097.51,105.903 1099.67,105.706 1101.83,105.511 1103.99,105.319 1106.15,105.128 1108.31,104.939 1110.47,104.752 1112.63,104.566 1114.79,104.383 1116.95,104.201 1119.11,104.021 1121.27,103.843 1123.43,103.667 1125.6,103.492 1127.76,103.319 1129.92,103.148 1132.08,102.978 1134.24,102.81 1136.4,102.644 1138.56,102.479 1140.72,102.316 1142.88,102.155 1145.04,101.995 1147.2,101.837 1149.36,101.68 1151.52,101.524 1153.68,101.371 1155.84,101.219 1158,101.068 1160.16,100.919 1162.32,100.771 1164.48,100.625 1166.64,100.48 1168.81,100.336 1170.97,100.194 1173.13,100.054 1175.29,99.9147 1177.45,99.7769 1179.61,99.6405 1181.77,99.5055 1183.93,99.3718 1186.09,99.2394 1188.25,99.1084 1190.41,98.9787 1192.57,98.8503 1194.73,98.7232 1196.89,98.5974 1199.05,98.4728 1201.21,98.3495 1203.37,98.2275 1205.53,98.1066 1207.69,97.987 1209.85,97.8686 1212.01,97.7514 1214.18,97.6354 1216.34,97.5206 1218.5,97.4069 1220.66,97.2943 1222.82,97.1829 1224.98,97.0727 1227.14,96.9635 1229.3,96.8555 1231.46,96.7486 1233.62,96.6427 1235.78,96.5379 1237.94,96.4342 1240.1,96.3316 1242.26,96.2299 1244.42,96.1293 1246.58,96.0298 1248.74,95.9312 1250.9,95.8337 1253.06,95.7371 1255.22,95.6415 1257.39,95.5469 1259.55,95.4533 1261.71,95.3605 1263.87,95.2688 1266.03,95.1779 1268.19,95.088 1270.35,94.999 1272.51,94.9109 1274.67,94.8237 1276.83,94.7374 1278.99,94.6519 1281.15,94.5673 1283.31,94.4835 1285.47,94.4006 1287.63,94.3185 1289.79,94.2373 1291.95,94.1568 1294.11,94.0772 1296.27,93.9984 1298.43,93.9203 1300.6,93.843 1302.76,93.7665 1304.92,93.6908 1307.08,93.6158 1309.24,93.5415 1311.4,93.468 1313.56,93.3952 1315.72,93.3231 1317.88,93.2518 1320.04,93.1811 1322.2,93.1111 1324.36,93.0418 1326.52,92.9732 1328.68,92.9053 1330.84,92.838 1333,92.7713 1335.16,92.7053 1337.32,92.6399 1339.48,92.5752 1341.64,92.511 1343.81,92.4475 1345.97,92.3846 1348.13,92.3223 1350.29,92.2605 1352.45,92.1994 1354.61,92.1388 1356.77,92.0788 1358.93,92.0194 1361.09,91.9606 1363.25,91.9023 1365.41,91.8446 1367.57,91.7874 1369.73,91.7308 1371.89,91.6747 1374.05,91.6192 1376.21,91.5642 1378.37,91.5097 1380.53,91.4558 1382.69,91.4024 1384.85,91.3496 1387.01,91.2972 1389.18,91.2454 1391.34,91.1941 1393.5,91.1432 1395.66,91.0929 1397.82,91.0431 1399.98,90.9938 1402.14,90.9449 1404.3,90.8966 1406.46,90.8487 1408.62,90.8013 1410.78,90.7544 1412.94,90.708 1415.1,90.662 1417.26,90.6165 1419.42,90.5715 1421.58,90.5269 1423.74,90.4827 1425.9,90.439 1428.06,90.3958 1430.22,90.3529 1432.39,90.3106 1434.55,90.2686 1436.71,90.2271 1438.87,90.186 1441.03,90.1453 1443.19,90.105 1445.35,90.0652 1447.51,90.0257 1449.67,89.9867 1451.83,89.9481 1453.99,89.9098 1456.15,89.872 1458.31,89.8345 1460.47,89.7975 1462.63,89.7608 1464.79,89.7245 1466.95,89.6885 1469.11,89.653 1471.27,89.6178 1473.43,89.5829 1475.6,89.5485 1477.76,89.5144 1479.92,89.4806 1482.08,89.4472 1484.24,89.4141 1486.4,89.3814 1488.56,89.3491 1490.72,89.317 1492.88,89.2853 1495.04,89.2539 1497.2,89.2229 1499.36,89.1921 1501.52,89.1617 1503.68,89.1316 1505.84,89.1018 1508,89.0724 1510.16,89.0432 1512.32,89.0143 1514.48,88.9857 1516.64,88.9575 1518.81,88.9295 1520.97,88.9018 1523.13,88.8743 1525.29,88.8472 1527.45,88.8204 1529.61,88.7938 1531.77,88.7675 1533.93,88.7414 1536.09,88.7156 1538.25,88.6901 1540.41,88.6649 1542.57,88.6399 1544.73,88.6151 1546.89,88.5906 1549.05,88.5663 1551.21,88.5423 1553.37,88.5185 1555.53,88.495 1557.69,88.4717 1559.85,88.4486 1562.01,88.4258 1564.18,88.4031 1566.34,88.3807 1568.5,88.3585 1570.66,88.3366 1572.82,88.3148 1574.98,88.2932 1577.14,88.2719 1579.3,88.2507 1581.46,88.2298 1583.62,88.209 1585.78,88.1884 1587.94,88.1681 1590.1,88.1479 1592.26,88.1279 1594.42,88.1081 1596.58,88.0884 1598.74,88.069 1600.9,88.0497 1603.06,88.0305 1605.22,88.0116 1607.39,87.9928 1609.55,87.9741 1611.71,87.9557 1613.87,87.9374 1616.03,87.9193 1618.19,87.9013 1620.35,87.8835 1622.51,87.8659 1624.67,87.8484 1626.83,87.8311 1628.99,87.814 1631.15,87.797 1633.31,87.7802 1635.47,87.7635 1637.63,87.747 1639.79,87.7306 1641.95,87.7144 1644.11,87.6984 1646.27,87.6825 1648.43,87.6668 1650.6,87.6512 1652.76,87.6358 1654.92,87.6205 1657.08,87.6053 1659.24,87.5904 1661.4,87.5755 1663.56,87.5608 1665.72,87.5463 1667.88,87.5319 1670.04,87.5176 1672.2,87.5035 1674.36,87.4895 1676.52,87.4756 1678.68,87.4619 1680.84,87.4484 1683,87.4349 1685.16,87.4216 1687.32,87.4085 1689.48,87.3955 1691.64,87.3826 1693.81,87.3698 1695.97,87.3572 1698.13,87.3447 1700.29,87.3323 1702.45,87.3201 1704.61,87.308 1706.77,87.296 1708.93,87.2841 1711.09,87.2724 1713.25,87.2607 1715.41,87.2492 1717.57,87.2379 1719.73,87.2266 1721.89,87.2155 1724.05,87.2045 1726.21,87.1936 1728.37,87.1828 1730.53,87.1721 1732.69,87.1615 1734.85,87.1511 1737.02,87.1408 1739.18,87.1306 1741.34,87.1204 1743.5,87.1104 1745.66,87.1005 1747.82,87.0908 1749.98,87.0811 1752.14,87.0715 1754.3,87.062 1756.46,87.0527 1758.62,87.0434 1760.78,87.0342 1762.94,87.0252 1765.1,87.0162 1767.26,87.0073 1769.42,86.9986 1771.58,86.9899 1773.74,86.9813 1775.9,86.9728 1778.06,86.9644 1780.22,86.9561 1782.39,86.9479 1784.55,86.9398 1786.71,86.9318 1788.87,86.9238 1791.03,86.916 1793.19,86.9082 1795.35,86.9005 1797.51,86.8929 1799.67,86.8854 1801.83,86.878 1803.99,86.8706 1806.15,86.8634 1808.31,86.8562 1810.47,86.849 1812.63,86.842 1814.79,86.835 1816.95,86.8282 1819.11,86.8213 1821.27,86.8146 1823.43,86.8079 1825.6,86.8013 1827.76,86.7948 1829.92,86.7883 1832.08,86.7819 1834.24,86.7756 1836.4,86.7693 1838.56,86.7631 1840.72,86.757 1842.88,86.7509 1845.04,86.7449 1847.2,86.739 1849.36,86.7331 1851.52,86.7273 1853.68,86.7215 1855.84,86.7158 1858,86.7101 1860.16,86.7045 1862.32,86.6989 1864.48,86.6934 1866.64,86.688 1868.81,86.6826 1870.97,86.6772 1873.13,86.6719 1875.29,86.6667 1877.45,86.6615 1879.61,86.6563 1881.77,86.6512 1883.93,86.6461 1886.09,86.6411 1888.25,86.6361 1890.41,86.6311 1892.57,86.6262 1894.73,86.6213 1896.89,86.6165 1899.05,86.6117 1901.21,86.6069 1903.37,86.6022 1905.53,86.5975 1907.69,86.5928 1909.85,86.5882 1912.02,86.5836 1914.18,86.579 1916.34,86.5744 1918.5,86.5699 1920.66,86.5654 1922.82,86.561 1924.98,86.5566 1927.14,86.5523 1929.3,86.5479 1931.46,86.5436 1933.62,86.5394 1935.78,86.5352 1937.94,86.531 1940.1,86.5269 1942.26,86.5228 1944.42,86.5187 1946.58,86.5146 1948.74,86.5106 1950.9,86.5067 1953.06,86.5028 1955.22,86.4989 1957.39,86.495 1959.55,86.4912 1961.71,86.4874 1963.87,86.4836 1966.03,86.4799 1968.19,86.4762 1970.35,86.4726 1972.51,86.469 1974.67,86.4654 1976.83,86.4618 1978.99,86.4583 1981.15,86.4549 1983.31,86.4514 1985.47,86.448 1987.63,86.4446 1989.79,86.4413 1991.95,86.438 1994.11,86.4347 1996.27,86.4314 1998.43,86.4282 2000.6,86.425 2002.76,86.4219 2004.92,86.4188 2007.08,86.4157 2009.24,86.4126 2011.4,86.4096 2013.56,86.4066 2015.72,86.4037 2017.88,86.4007 2020.04,86.3978 2022.2,86.395 2024.36,86.3921 2026.52,86.3893 2028.68,86.3865 2030.84,86.3838 2033,86.3811 2035.16,86.3784 2037.32,86.3757 2039.48,86.3731 2041.64,86.3705 2043.81,86.368 2045.97,86.3654 2048.13,86.3629 2050.29,86.3604 2052.45,86.358 2054.61,86.3555 2056.77,86.3532 2058.93,86.3508 2061.09,86.3484 2063.25,86.3461 2065.41,86.3438 2067.57,86.3416 2069.73,86.3393 2071.89,86.3371 2074.05,86.335 2076.21,86.3328 2078.37,86.3307 2080.53,86.3286 2082.69,86.3265 2084.85,86.3244 2087.02,86.3224 2089.18,86.3204 2091.34,86.3184 2093.5,86.3165 2095.66,86.3145 2097.82,86.3126 2099.98,86.3108 2102.14,86.3089 2104.3,86.3071 2106.46,86.3052 2108.62,86.3035 2110.78,86.3017 2112.94,86.2999 2115.1,86.2982 2117.26,86.2965 2119.42,86.2948 2121.58,86.2932 2123.74,86.2915 2125.9,86.2899 2128.06,86.2883 2130.22,86.2867 2132.39,86.2852 2134.55,86.2836 2136.71,86.2821 2138.87,86.2806 2141.03,86.2792 2143.19,86.2777 2145.35,86.2763 2147.51,86.2748 2149.67,86.2734 2151.83,86.272 2153.99,86.2707 2156.15,86.2693 2158.31,86.268 2160.47,86.2667 2162.63,86.2653 2164.79,86.2641 2166.95,86.2628 2169.11,86.2615 2171.27,86.2603 2173.43,86.2591 2175.6,86.2579 2177.76,86.2567 2179.92,86.2555 2182.08,86.2543 2184.24,86.2531 2186.4,86.252 2188.56,86.2509 2190.72,86.2498 2192.88,86.2487 2195.04,86.2476 2197.2,86.2465 2199.36,86.2454 2201.52,86.2443 2203.68,86.2433 2205.84,86.2423 2208,86.2412 2210.16,86.2402 2212.32,86.2392 2214.48,86.2382 2216.64,86.2372 2218.81,86.2362 2220.97,86.2353 2223.13,86.2343 2225.29,86.2333 2227.45,86.2324 2229.61,86.2314 2231.77,86.2305 2233.93,86.2296 2236.09,86.2286 2238.25,86.2277 2240.41,86.2268 2242.57,86.2259 2244.73,86.225 2246.89,86.2241 2249.05,86.2232 2251.21,86.2223 2253.37,86.2214 2255.53,86.2205 2257.69,86.2196 2259.85,86.2188 2262.02,86.2179 2264.18,86.217 2266.34,86.2161 2268.5,86.2152 2270.66,86.2144 2272.82,86.2135 2274.98,86.2126 2277.14,86.2117 2279.3,86.2109 2281.46,86.21 2283.62,86.2091 2285.78,86.2083 2287.94,86.2074 2290.1,86.2066 2292.26,86.2058 2294.42,86.2049 2296.58,86.2041 2298.74,86.2033 2300.9,86.2025 2303.06,86.2018 2305.23,86.201 2307.39,86.2002 2309.55,86.1994 2311.71,86.1987 2313.87,86.1979 2316.03,86.1972 2318.19,86.1965 2320.35,86.1957 2322.51,86.195 2324.67,86.1943 2326.83,86.1936 2328.99,86.1929 2331.15,86.1922 2333.31,86.1915 2335.47,86.1909 2337.63,86.1902 2339.79,86.1895 2341.95,86.1889 2344.11,86.1882 2346.27,86.1876 2348.43,86.1869 2350.6,86.1863 2352.76,86.1857 "/>
<polyline clip-path="url(#clip112)" style="stroke:#e26f46; stroke-linecap:round; stroke-linejoin:round; stroke-width:4; stroke-opacity:1; fill:none" points="194.422,617.897 196.583,616.261 198.743,614.619 200.904,612.972 203.064,611.32 205.225,609.662 207.385,608 209.546,606.333 211.706,604.661 213.867,602.985 216.027,601.305 218.188,599.621 220.348,597.933 222.509,596.241 224.669,594.546 226.83,592.847 228.99,591.145 231.151,589.44 233.311,587.732 235.471,586.021 237.632,584.308 239.792,582.592 241.953,580.874 244.113,579.153 246.274,577.431 248.434,575.707 250.595,573.98 252.755,572.252 254.916,570.523 257.076,568.792 259.237,567.06 261.397,565.327 263.558,563.593 265.718,561.857 267.879,560.121 270.039,558.385 272.2,556.647 274.36,554.91 276.521,553.172 278.681,551.433 280.842,549.695 283.002,547.956 285.163,546.218 287.323,544.48 289.484,542.742 291.644,541.004 293.805,539.267 295.965,537.53 298.126,535.794 300.286,534.059 302.447,532.325 304.607,530.592 306.768,528.859 308.928,527.128 311.089,525.398 313.249,523.669 315.41,521.942 317.57,520.216 319.731,518.492 321.891,516.769 324.052,515.048 326.212,513.329 328.373,511.612 330.533,509.896 332.694,508.182 334.854,506.471 337.015,504.762 339.175,503.055 341.336,501.35 343.496,499.647 345.657,497.947 347.817,496.249 349.978,494.554 352.138,492.862 354.299,491.172 356.459,489.484 358.62,487.8 360.78,486.118 362.941,484.439 365.101,482.763 367.262,481.09 369.422,479.42 371.583,477.753 373.743,476.09 375.904,474.429 378.064,472.772 380.225,471.117 382.385,469.467 384.546,467.819 386.706,466.175 388.867,464.535 391.027,462.897 393.188,461.264 395.348,459.634 397.509,458.008 399.669,456.385 401.83,454.766 403.99,453.151 406.151,451.539 408.311,449.931 410.472,448.328 412.632,446.728 414.793,445.132 416.953,443.54 419.114,441.952 421.274,440.368 423.435,438.787 425.595,437.212 427.755,435.64 429.916,434.072 432.076,432.509 434.237,430.949 436.397,429.394 438.558,427.843 440.718,426.297 442.879,424.754 445.039,423.216 447.2,421.683 449.36,420.153 451.521,418.628 453.681,417.108 455.842,415.591 458.002,414.08 460.163,412.572 462.323,411.07 464.484,409.571 466.644,408.077 468.805,406.588 470.965,405.103 473.126,403.623 475.286,402.148 477.447,400.677 479.607,399.21 481.768,397.748 483.928,396.291 486.089,394.839 488.249,393.391 490.41,391.948 492.57,390.509 494.731,389.076 496.891,387.647 499.052,386.222 501.212,384.803 503.373,383.388 505.533,381.978 507.694,380.572 509.854,379.172 512.015,377.776 514.175,376.385 516.336,374.999 518.496,373.618 520.657,372.241 522.817,370.869 524.978,369.502 527.138,368.14 529.299,366.783 531.459,365.431 533.62,364.083 535.78,362.74 537.941,361.402 540.101,360.069 542.262,358.741 544.422,357.418 546.583,356.099 548.743,354.785 550.904,353.476 553.064,352.172 555.225,350.873 557.385,349.579 559.546,348.289 561.706,347.005 563.867,345.725 566.027,344.45 568.188,343.18 570.348,341.915 572.509,340.654 574.669,339.399 576.83,338.148 578.99,336.902 581.151,335.661 583.311,334.425 585.472,333.193 587.632,331.967 589.793,330.745 591.953,329.528 594.114,328.316 596.274,327.109 598.435,325.906 600.595,324.708 602.756,323.515 604.916,322.327 607.077,321.144 609.237,319.965 611.398,318.792 613.558,317.623 615.718,316.458 617.879,315.299 620.039,314.144 622.2,312.994 624.36,311.849 626.521,310.709 628.681,309.573 630.842,308.442 633.002,307.315 635.163,306.194 637.323,305.077 639.484,303.965 641.644,302.857 643.805,301.754 645.965,300.656 648.126,299.563 650.286,298.474 652.447,297.39 654.607,296.31 656.768,295.235 658.928,294.165 661.089,293.099 663.249,292.038 665.41,290.982 667.57,289.93 669.731,288.882 671.891,287.839 674.052,286.801 676.212,285.767 678.373,284.738 680.533,283.713 682.694,282.693 684.854,281.677 687.015,280.666 689.175,279.659 691.336,278.656 693.496,277.658 695.657,276.665 697.817,275.676 699.978,274.691 702.138,273.71 704.299,272.734 706.459,271.763 708.62,270.796 710.78,269.833 712.941,268.874 715.101,267.92 717.262,266.97 719.422,266.024 721.583,265.083 723.743,264.146 725.904,263.213 728.064,262.285 730.225,261.36 732.385,260.44 734.546,259.524 736.706,258.613 738.867,257.705 741.027,256.802 743.188,255.903 745.348,255.008 747.509,254.117 749.669,253.231 751.83,252.348 753.99,251.47 756.151,250.595 758.311,249.725 760.472,248.859 762.632,247.997 764.793,247.139 766.953,246.285 769.114,245.435 771.274,244.589 773.435,243.747 775.595,242.909 777.756,242.075 779.916,241.245 782.077,240.419 784.237,239.597 786.398,238.778 788.558,237.964 790.719,237.154 792.879,236.347 795.04,235.544 797.2,234.745 799.361,233.95 801.521,233.159 803.681,232.372 805.842,231.588 808.002,230.808 810.163,230.032 812.323,229.26 814.484,228.491 816.644,227.726 818.805,226.965 820.965,226.208 823.126,225.454 825.286,224.704 827.447,223.957 829.607,223.214 831.768,222.475 833.928,221.739 836.089,221.007 838.249,220.279 840.41,219.554 842.57,218.833 844.731,218.115 846.891,217.401 849.052,216.69 851.212,215.983 853.373,215.279 855.533,214.579 857.694,213.882 859.854,213.188 862.015,212.499 864.175,211.812 866.336,211.129 868.496,210.449 870.657,209.773 872.817,209.1 874.978,208.43 877.138,207.764 879.299,207.101 881.459,206.441 883.62,205.785 885.78,205.132 887.941,204.482 890.101,203.835 892.262,203.192 894.422,202.552 896.583,201.915 898.743,201.282 900.904,200.651 903.064,200.024 905.225,199.4 907.385,198.779 909.546,198.161 911.706,197.547 913.867,196.935 916.027,196.327 918.188,195.722 920.348,195.119 922.509,194.52 924.669,193.924 926.83,193.331 928.99,192.741 931.151,192.154 933.311,191.57 935.472,190.989 937.632,190.411 939.793,189.836 941.953,189.264 944.114,188.695 946.274,188.129 948.435,187.566 950.595,187.005 952.756,186.448 954.916,185.893 957.077,185.342 959.237,184.793 961.398,184.247 963.558,183.703 965.719,183.163 967.879,182.626 970.04,182.091 972.2,181.559 974.361,181.029 976.521,180.503 978.682,179.979 980.842,179.458 983.003,178.94 985.163,178.424 987.324,177.911 989.484,177.401 991.645,176.893 993.805,176.388 995.965,175.886 998.126,175.386 1000.29,174.889 1002.45,174.395 1004.61,173.903 1006.77,173.414 1008.93,172.927 1011.09,172.443 1013.25,171.961 1015.41,171.482 1017.57,171.005 1019.73,170.531 1021.89,170.06 1024.05,169.591 1026.21,169.124 1028.37,168.66 1030.53,168.198 1032.69,167.739 1034.85,167.282 1037.01,166.827 1039.18,166.375 1041.34,165.926 1043.5,165.478 1045.66,165.034 1047.82,164.591 1049.98,164.151 1052.14,163.713 1054.3,163.277 1056.46,162.844 1058.62,162.413 1060.78,161.985 1062.94,161.558 1065.1,161.134 1067.26,160.712 1069.42,160.293 1071.58,159.875 1073.74,159.46 1075.9,159.048 1078.06,158.637 1080.22,158.228 1082.39,157.822 1084.55,157.418 1086.71,157.016 1088.87,156.616 1091.03,156.219 1093.19,155.823 1095.35,155.43 1097.51,155.039 1099.67,154.649 1101.83,154.262 1103.99,153.877 1106.15,153.495 1108.31,153.114 1110.47,152.735 1112.63,152.358 1114.79,151.984 1116.95,151.611 1119.11,151.24 1121.27,150.872 1123.43,150.505 1125.6,150.141 1127.76,149.778 1129.92,149.417 1132.08,149.059 1134.24,148.702 1136.4,148.347 1138.56,147.994 1140.72,147.643 1142.88,147.294 1145.04,146.947 1147.2,146.602 1149.36,146.258 1151.52,145.917 1153.68,145.577 1155.84,145.239 1158,144.903 1160.16,144.569 1162.32,144.237 1164.48,143.907 1166.64,143.578 1168.81,143.251 1170.97,142.926 1173.13,142.603 1175.29,142.281 1177.45,141.961 1179.61,141.643 1181.77,141.327 1183.93,141.012 1186.09,140.7 1188.25,140.388 1190.41,140.079 1192.57,139.771 1194.73,139.465 1196.89,139.161 1199.05,138.858 1201.21,138.557 1203.37,138.258 1205.53,137.96 1207.69,137.664 1209.85,137.37 1212.01,137.077 1214.18,136.786 1216.34,136.496 1218.5,136.208 1220.66,135.922 1222.82,135.637 1224.98,135.354 1227.14,135.072 1229.3,134.792 1231.46,134.513 1233.62,134.236 1235.78,133.96 1237.94,133.686 1240.1,133.414 1242.26,133.143 1244.42,132.873 1246.58,132.605 1248.74,132.339 1250.9,132.074 1253.06,131.81 1255.22,131.548 1257.39,131.288 1259.55,131.028 1261.71,130.771 1263.87,130.514 1266.03,130.259 1268.19,130.006 1270.35,129.754 1272.51,129.503 1274.67,129.254 1276.83,129.006 1278.99,128.759 1281.15,128.514 1283.31,128.27 1285.47,128.028 1287.63,127.787 1289.79,127.547 1291.95,127.309 1294.11,127.071 1296.27,126.836 1298.43,126.601 1300.6,126.368 1302.76,126.136 1304.92,125.906 1307.08,125.677 1309.24,125.449 1311.4,125.222 1313.56,124.996 1315.72,124.772 1317.88,124.549 1320.04,124.328 1322.2,124.107 1324.36,123.888 1326.52,123.67 1328.68,123.454 1330.84,123.238 1333,123.024 1335.16,122.811 1337.32,122.599 1339.48,122.388 1341.64,122.179 1343.81,121.97 1345.97,121.763 1348.13,121.557 1350.29,121.353 1352.45,121.149 1354.61,120.946 1356.77,120.745 1358.93,120.545 1361.09,120.346 1363.25,120.148 1365.41,119.951 1367.57,119.755 1369.73,119.561 1371.89,119.367 1374.05,119.175 1376.21,118.983 1378.37,118.793 1380.53,118.604 1382.69,118.416 1384.85,118.229 1387.01,118.043 1389.18,117.858 1391.34,117.674 1393.5,117.491 1395.66,117.309 1397.82,117.128 1399.98,116.948 1402.14,116.77 1404.3,116.592 1406.46,116.415 1408.62,116.239 1410.78,116.065 1412.94,115.891 1415.1,115.718 1417.26,115.546 1419.42,115.376 1421.58,115.206 1423.74,115.037 1425.9,114.869 1428.06,114.702 1430.22,114.536 1432.39,114.371 1434.55,114.207 1436.71,114.043 1438.87,113.881 1441.03,113.72 1443.19,113.559 1445.35,113.4 1447.51,113.241 1449.67,113.084 1451.83,112.927 1453.99,112.771 1456.15,112.616 1458.31,112.462 1460.47,112.308 1462.63,112.156 1464.79,112.004 1466.95,111.854 1469.11,111.704 1471.27,111.555 1473.43,111.407 1475.6,111.26 1477.76,111.113 1479.92,110.968 1482.08,110.823 1484.24,110.679 1486.4,110.536 1488.56,110.394 1490.72,110.252 1492.88,110.111 1495.04,109.972 1497.2,109.833 1499.36,109.694 1501.52,109.557 1503.68,109.42 1505.84,109.284 1508,109.149 1510.16,109.015 1512.32,108.881 1514.48,108.748 1516.64,108.616 1518.81,108.485 1520.97,108.354 1523.13,108.225 1525.29,108.096 1527.45,107.967 1529.61,107.84 1531.77,107.713 1533.93,107.587 1536.09,107.461 1538.25,107.337 1540.41,107.213 1542.57,107.089 1544.73,106.967 1546.89,106.845 1549.05,106.724 1551.21,106.603 1553.37,106.483 1555.53,106.364 1557.69,106.246 1559.85,106.128 1562.01,106.011 1564.18,105.895 1566.34,105.779 1568.5,105.664 1570.66,105.55 1572.82,105.436 1574.98,105.323 1577.14,105.211 1579.3,105.099 1581.46,104.988 1583.62,104.877 1585.78,104.768 1587.94,104.658 1590.1,104.55 1592.26,104.442 1594.42,104.335 1596.58,104.228 1598.74,104.122 1600.9,104.016 1603.06,103.911 1605.22,103.807 1607.39,103.704 1609.55,103.601 1611.71,103.498 1613.87,103.396 1616.03,103.295 1618.19,103.194 1620.35,103.094 1622.51,102.995 1624.67,102.896 1626.83,102.797 1628.99,102.699 1631.15,102.602 1633.31,102.505 1635.47,102.409 1637.63,102.314 1639.79,102.219 1641.95,102.124 1644.11,102.03 1646.27,101.937 1648.43,101.844 1650.6,101.752 1652.76,101.66 1654.92,101.569 1657.08,101.478 1659.24,101.388 1661.4,101.298 1663.56,101.209 1665.72,101.12 1667.88,101.032 1670.04,100.944 1672.2,100.857 1674.36,100.771 1676.52,100.684 1678.68,100.599 1680.84,100.514 1683,100.429 1685.16,100.345 1687.32,100.261 1689.48,100.178 1691.64,100.096 1693.81,100.013 1695.97,99.9316 1698.13,99.8504 1700.29,99.7697 1702.45,99.6894 1704.61,99.6095 1706.77,99.5302 1708.93,99.4513 1711.09,99.3729 1713.25,99.2949 1715.41,99.2173 1717.57,99.1403 1719.73,99.0636 1721.89,98.9875 1724.05,98.9117 1726.21,98.8364 1728.37,98.7616 1730.53,98.6872 1732.69,98.6132 1734.85,98.5397 1737.02,98.4665 1739.18,98.3938 1741.34,98.3216 1743.5,98.2497 1745.66,98.1783 1747.82,98.1073 1749.98,98.0367 1752.14,97.9665 1754.3,97.8967 1756.46,97.8274 1758.62,97.7584 1760.78,97.6898 1762.94,97.6217 1765.1,97.5539 1767.26,97.4866 1769.42,97.4196 1771.58,97.353 1773.74,97.2868 1775.9,97.221 1778.06,97.1556 1780.22,97.0906 1782.39,97.0259 1784.55,96.9616 1786.71,96.8977 1788.87,96.8342 1791.03,96.7711 1793.19,96.7083 1795.35,96.6458 1797.51,96.5838 1799.67,96.5221 1801.83,96.4608 1803.99,96.3998 1806.15,96.3392 1808.31,96.2789 1810.47,96.219 1812.63,96.1594 1814.79,96.1002 1816.95,96.0414 1819.11,95.9828 1821.27,95.9247 1823.43,95.8668 1825.6,95.8093 1827.76,95.7522 1829.92,95.6953 1832.08,95.6388 1834.24,95.5827 1836.4,95.5268 1838.56,95.4713 1840.72,95.4161 1842.88,95.3612 1845.04,95.3067 1847.2,95.2525 1849.36,95.1986 1851.52,95.145 1853.68,95.0917 1855.84,95.0387 1858,94.9861 1860.16,94.9337 1862.32,94.8817 1864.48,94.8299 1866.64,94.7785 1868.81,94.7273 1870.97,94.6765 1873.13,94.626 1875.29,94.5757 1877.45,94.5258 1879.61,94.4761 1881.77,94.4267 1883.93,94.3776 1886.09,94.3288 1888.25,94.2803 1890.41,94.2321 1892.57,94.1842 1894.73,94.1365 1896.89,94.0891 1899.05,94.042 1901.21,93.9952 1903.37,93.9486 1905.53,93.9023 1907.69,93.8563 1909.85,93.8106 1912.02,93.7651 1914.18,93.7199 1916.34,93.6749 1918.5,93.6303 1920.66,93.5858 1922.82,93.5417 1924.98,93.4977 1927.14,93.4541 1929.3,93.4107 1931.46,93.3675 1933.62,93.3246 1935.78,93.2819 1937.94,93.2395 1940.1,93.1973 1942.26,93.1554 1944.42,93.1137 1946.58,93.0723 1948.74,93.0311 1950.9,92.9902 1953.06,92.9494 1955.22,92.909 1957.39,92.8687 1959.55,92.8287 1961.71,92.7889 1963.87,92.7494 1966.03,92.7101 1968.19,92.671 1970.35,92.6322 1972.51,92.5936 1974.67,92.5552 1976.83,92.517 1978.99,92.479 1981.15,92.4413 1983.31,92.4038 1985.47,92.3665 1987.63,92.3295 1989.79,92.2926 1991.95,92.256 1994.11,92.2196 1996.27,92.1834 1998.43,92.1474 2000.6,92.1117 2002.76,92.0761 2004.92,92.0408 2007.08,92.0056 2009.24,91.9707 2011.4,91.936 2013.56,91.9014 2015.72,91.8671 2017.88,91.833 2020.04,91.7991 2022.2,91.7654 2024.36,91.7319 2026.52,91.6986 2028.68,91.6655 2030.84,91.6326 2033,91.5998 2035.16,91.5673 2037.32,91.535 2039.48,91.5028 2041.64,91.4709 2043.81,91.4391 2045.97,91.4076 2048.13,91.3762 2050.29,91.345 2052.45,91.314 2054.61,91.2831 2056.77,91.2525 2058.93,91.222 2061.09,91.1918 2063.25,91.1617 2065.41,91.1317 2067.57,91.102 2069.73,91.0724 2071.89,91.0431 2074.05,91.0138 2076.21,90.9848 2078.37,90.9559 2080.53,90.9273 2082.69,90.8987 2084.85,90.8704 2087.02,90.8422 2089.18,90.8142 2091.34,90.7863 2093.5,90.7587 2095.66,90.7311 2097.82,90.7038 2099.98,90.6766 2102.14,90.6496 2104.3,90.6227 2106.46,90.596 2108.62,90.5695 2110.78,90.5431 2112.94,90.5169 2115.1,90.4908 2117.26,90.4649 2119.42,90.4391 2121.58,90.4135 2123.74,90.3881 2125.9,90.3628 2128.06,90.3376 2130.22,90.3126 2132.39,90.2877 2134.55,90.263 2136.71,90.2385 2138.87,90.2141 2141.03,90.1898 2143.19,90.1657 2145.35,90.1417 2147.51,90.1179 2149.67,90.0942 2151.83,90.0706 2153.99,90.0472 2156.15,90.024 2158.31,90.0008 2160.47,89.9778 2162.63,89.955 2164.79,89.9323 2166.95,89.9097 2169.11,89.8872 2171.27,89.8649 2173.43,89.8427 2175.6,89.8207 2177.76,89.7987 2179.92,89.7769 2182.08,89.7553 2184.24,89.7337 2186.4,89.7123 2188.56,89.691 2190.72,89.6699 2192.88,89.6489 2195.04,89.628 2197.2,89.6072 2199.36,89.5865 2201.52,89.566 2203.68,89.5456 2205.84,89.5253 2208,89.5051 2210.16,89.485 2212.32,89.4651 2214.48,89.4453 2216.64,89.4256 2218.81,89.406 2220.97,89.3865 2223.13,89.3672 2225.29,89.3479 2227.45,89.3288 2229.61,89.3098 2231.77,89.2908 2233.93,89.272 2236.09,89.2534 2238.25,89.2348 2240.41,89.2163 2242.57,89.198 2244.73,89.1797 2246.89,89.1616 2249.05,89.1435 2251.21,89.1256 2253.37,89.1077 2255.53,89.09 2257.69,89.0724 2259.85,89.0549 2262.02,89.0374 2264.18,89.0201 2266.34,89.0029 2268.5,88.9858 2270.66,88.9688 2272.82,88.9518 2274.98,88.935 2277.14,88.9183 2279.3,88.9017 2281.46,88.8851 2283.62,88.8687 2285.78,88.8524 2287.94,88.8361 2290.1,88.82 2292.26,88.8039 2294.42,88.788 2296.58,88.7721 2298.74,88.7564 2300.9,88.7407 2303.06,88.7251 2305.23,88.7096 2307.39,88.6942 2309.55,88.6789 2311.71,88.6637 2313.87,88.6486 2316.03,88.6336 2318.19,88.6186 2320.35,88.6038 2322.51,88.589 2324.67,88.5743 2326.83,88.5597 2328.99,88.5452 2331.15,88.5308 2333.31,88.5165 2335.47,88.5022 2337.63,88.4881 2339.79,88.474 2341.95,88.46 2344.11,88.4461 2346.27,88.4323 2348.43,88.4185 2350.6,88.4048 2352.76,88.3913 "/>
<path clip-path="url(#clip110)" d="M1805.58 1377.32 L2280.81 1377.32 L2280.81 1221.8 L1805.58 1221.8  Z" fill="#ffffff" fill-rule="evenodd" fill-opacity="1"/>
<polyline clip-path="url(#clip110)" style="stroke:#000000; stroke-linecap:round; stroke-linejoin:round; stroke-width:4; stroke-opacity:1; fill:none" points="1805.58,1377.32 2280.81,1377.32 2280.81,1221.8 1805.58,1221.8 1805.58,1377.32 "/>
<polyline clip-path="url(#clip110)" style="stroke:#009af9; stroke-linecap:round; stroke-linejoin:round; stroke-width:4; stroke-opacity:1; fill:none" points="1829.56,1273.64 1973.45,1273.64 "/>
<path clip-path="url(#clip110)" d="M1997.43 1264.99 L2001.95 1264.99 L2010.05 1286.75 L2018.15 1264.99 L2022.66 1264.99 L2012.94 1290.92 L2007.16 1290.92 L1997.43 1264.99 Z" fill="#000000" fill-rule="nonzero" fill-opacity="1" /><path clip-path="url(#clip110)" d="M2029.96 1286.98 L2037.6 1286.98 L2037.6 1260.61 L2029.28 1262.28 L2029.28 1258.02 L2037.55 1256.36 L2042.22 1256.36 L2042.22 1286.98 L2049.86 1286.98 L2049.86 1290.92 L2029.96 1290.92 L2029.96 1286.98 Z" fill="#000000" fill-rule="nonzero" fill-opacity="1" /><path clip-path="url(#clip110)" d="M2067.97 1274.27 L2067.97 1281.49 L2076.09 1281.49 L2076.09 1283.69 L2067.97 1283.69 L2067.97 1290.92 L2065.53 1290.92 L2065.53 1283.69 L2057.41 1283.69 L2057.41 1281.49 L2065.53 1281.49 L2065.53 1274.27 L2067.97 1274.27 Z" fill="#000000" fill-rule="nonzero" fill-opacity="1" /><path clip-path="url(#clip110)" d="M2100.26 1265.75 L2100.26 1269.78 Q2098.45 1268.86 2096.51 1268.39 Q2094.56 1267.93 2092.48 1267.93 Q2089.31 1267.93 2087.71 1268.9 Q2086.14 1269.87 2086.14 1271.82 Q2086.14 1273.3 2087.27 1274.16 Q2088.4 1274.99 2091.83 1275.75 L2093.29 1276.08 Q2097.83 1277.05 2099.72 1278.83 Q2101.65 1280.59 2101.65 1283.76 Q2101.65 1287.37 2098.78 1289.48 Q2095.93 1291.59 2090.93 1291.59 Q2088.84 1291.59 2086.58 1291.17 Q2084.33 1290.78 2081.83 1289.97 L2081.83 1285.57 Q2084.19 1286.79 2086.48 1287.42 Q2088.78 1288.02 2091.02 1288.02 Q2094.03 1288.02 2095.65 1287 Q2097.27 1285.96 2097.27 1284.09 Q2097.27 1282.35 2096.09 1281.42 Q2094.93 1280.5 2090.97 1279.64 L2089.49 1279.3 Q2085.53 1278.46 2083.78 1276.75 Q2082.02 1275.01 2082.02 1272 Q2082.02 1268.35 2084.61 1266.36 Q2087.2 1264.36 2091.97 1264.36 Q2094.33 1264.36 2096.41 1264.71 Q2098.5 1265.06 2100.26 1265.75 Z" fill="#000000" fill-rule="nonzero" fill-opacity="1" /><path clip-path="url(#clip110)" d="M2112.64 1257.63 L2112.64 1264.99 L2121.41 1264.99 L2121.41 1268.3 L2112.64 1268.3 L2112.64 1282.37 Q2112.64 1285.54 2113.5 1286.45 Q2114.38 1287.35 2117.04 1287.35 L2121.41 1287.35 L2121.41 1290.92 L2117.04 1290.92 Q2112.11 1290.92 2110.23 1289.09 Q2108.36 1287.23 2108.36 1282.37 L2108.36 1268.3 L2105.23 1268.3 L2105.23 1264.99 L2108.36 1264.99 L2108.36 1257.63 L2112.64 1257.63 Z" fill="#000000" fill-rule="nonzero" fill-opacity="1" /><path clip-path="url(#clip110)" d="M2137.06 1267.98 Q2133.64 1267.98 2131.65 1270.66 Q2129.65 1273.32 2129.65 1277.98 Q2129.65 1282.63 2131.62 1285.31 Q2133.61 1287.98 2137.06 1287.98 Q2140.46 1287.98 2142.46 1285.29 Q2144.45 1282.61 2144.45 1277.98 Q2144.45 1273.37 2142.46 1270.68 Q2140.46 1267.98 2137.06 1267.98 M2137.06 1264.36 Q2142.62 1264.36 2145.79 1267.98 Q2148.96 1271.59 2148.96 1277.98 Q2148.96 1284.34 2145.79 1287.98 Q2142.62 1291.59 2137.06 1291.59 Q2131.48 1291.59 2128.31 1287.98 Q2125.16 1284.34 2125.16 1277.98 Q2125.16 1271.59 2128.31 1267.98 Q2131.48 1264.36 2137.06 1264.36 Z" fill="#000000" fill-rule="nonzero" fill-opacity="1" /><path clip-path="url(#clip110)" d="M2171.04 1268.97 Q2170.33 1268.55 2169.47 1268.37 Q2168.64 1268.16 2167.62 1268.16 Q2164.01 1268.16 2162.06 1270.52 Q2160.14 1272.86 2160.14 1277.26 L2160.14 1290.92 L2155.86 1290.92 L2155.86 1264.99 L2160.14 1264.99 L2160.14 1269.02 Q2161.48 1266.66 2163.64 1265.52 Q2165.79 1264.36 2168.87 1264.36 Q2169.31 1264.36 2169.84 1264.43 Q2170.37 1264.48 2171.02 1264.6 L2171.04 1268.97 Z" fill="#000000" fill-rule="nonzero" fill-opacity="1" /><path clip-path="url(#clip110)" d="M2187.29 1277.88 Q2182.13 1277.88 2180.14 1279.06 Q2178.15 1280.24 2178.15 1283.09 Q2178.15 1285.36 2179.63 1286.7 Q2181.14 1288.02 2183.71 1288.02 Q2187.25 1288.02 2189.38 1285.52 Q2191.53 1283 2191.53 1278.83 L2191.53 1277.88 L2187.29 1277.88 M2195.79 1276.12 L2195.79 1290.92 L2191.53 1290.92 L2191.53 1286.98 Q2190.07 1289.34 2187.9 1290.48 Q2185.72 1291.59 2182.57 1291.59 Q2178.59 1291.59 2176.23 1289.36 Q2173.89 1287.12 2173.89 1283.37 Q2173.89 1278.99 2176.81 1276.77 Q2179.75 1274.55 2185.56 1274.55 L2191.53 1274.55 L2191.53 1274.13 Q2191.53 1271.19 2189.58 1269.6 Q2187.66 1267.98 2184.17 1267.98 Q2181.95 1267.98 2179.84 1268.51 Q2177.73 1269.04 2175.79 1270.11 L2175.79 1266.17 Q2178.13 1265.27 2180.33 1264.83 Q2182.52 1264.36 2184.61 1264.36 Q2190.23 1264.36 2193.01 1267.28 Q2195.79 1270.2 2195.79 1276.12 Z" fill="#000000" fill-rule="nonzero" fill-opacity="1" /><path clip-path="url(#clip110)" d="M2221.62 1277.65 Q2221.62 1273.02 2219.7 1270.48 Q2217.8 1267.93 2214.35 1267.93 Q2210.93 1267.93 2209.01 1270.48 Q2207.11 1273.02 2207.11 1277.65 Q2207.11 1282.26 2209.01 1284.8 Q2210.93 1287.35 2214.35 1287.35 Q2217.8 1287.35 2219.7 1284.8 Q2221.62 1282.26 2221.62 1277.65 M2225.88 1287.7 Q2225.88 1294.32 2222.94 1297.54 Q2220 1300.78 2213.94 1300.78 Q2211.69 1300.78 2209.7 1300.43 Q2207.71 1300.11 2205.83 1299.41 L2205.83 1295.27 Q2207.71 1296.29 2209.54 1296.77 Q2211.37 1297.26 2213.27 1297.26 Q2217.46 1297.26 2219.54 1295.06 Q2221.62 1292.88 2221.62 1288.46 L2221.62 1286.36 Q2220.3 1288.65 2218.24 1289.78 Q2216.18 1290.92 2213.31 1290.92 Q2208.54 1290.92 2205.63 1287.28 Q2202.71 1283.65 2202.71 1277.65 Q2202.71 1271.63 2205.63 1268 Q2208.54 1264.36 2213.31 1264.36 Q2216.18 1264.36 2218.24 1265.5 Q2220.3 1266.63 2221.62 1268.92 L2221.62 1264.99 L2225.88 1264.99 L2225.88 1287.7 Z" fill="#000000" fill-rule="nonzero" fill-opacity="1" /><path clip-path="url(#clip110)" d="M2256.83 1276.89 L2256.83 1278.97 L2237.25 1278.97 Q2237.52 1283.37 2239.89 1285.68 Q2242.27 1287.98 2246.51 1287.98 Q2248.96 1287.98 2251.25 1287.37 Q2253.57 1286.77 2255.83 1285.57 L2255.83 1289.6 Q2253.54 1290.57 2251.14 1291.08 Q2248.73 1291.59 2246.25 1291.59 Q2240.05 1291.59 2236.41 1287.98 Q2232.8 1284.36 2232.8 1278.21 Q2232.8 1271.84 2236.23 1268.11 Q2239.68 1264.36 2245.51 1264.36 Q2250.74 1264.36 2253.77 1267.74 Q2256.83 1271.1 2256.83 1276.89 M2252.57 1275.64 Q2252.52 1272.14 2250.6 1270.06 Q2248.71 1267.98 2245.56 1267.98 Q2241.99 1267.98 2239.84 1269.99 Q2237.71 1272 2237.39 1275.66 L2252.57 1275.64 Z" fill="#000000" fill-rule="nonzero" fill-opacity="1" /><polyline clip-path="url(#clip110)" style="stroke:#e26f46; stroke-linecap:round; stroke-linejoin:round; stroke-width:4; stroke-opacity:1; fill:none" points="1829.56,1325.48 1973.45,1325.48 "/>
<path clip-path="url(#clip110)" d="M1997.43 1316.83 L2001.95 1316.83 L2010.05 1338.59 L2018.15 1316.83 L2022.66 1316.83 L2012.94 1342.76 L2007.16 1342.76 L1997.43 1316.83 Z" fill="#000000" fill-rule="nonzero" fill-opacity="1" /><path clip-path="url(#clip110)" d="M2029.19 1308.2 L2047.55 1308.2 L2047.55 1312.13 L2033.47 1312.13 L2033.47 1320.6 Q2034.49 1320.26 2035.51 1320.09 Q2036.53 1319.91 2037.55 1319.91 Q2043.34 1319.91 2046.72 1323.08 Q2050.09 1326.25 2050.09 1331.67 Q2050.09 1337.25 2046.62 1340.35 Q2043.15 1343.43 2036.83 1343.43 Q2034.66 1343.43 2032.39 1343.06 Q2030.14 1342.69 2027.73 1341.95 L2027.73 1337.25 Q2029.82 1338.38 2032.04 1338.94 Q2034.26 1339.49 2036.74 1339.49 Q2040.74 1339.49 2043.08 1337.38 Q2045.42 1335.28 2045.42 1331.67 Q2045.42 1328.06 2043.08 1325.95 Q2040.74 1323.84 2036.74 1323.84 Q2034.86 1323.84 2032.99 1324.26 Q2031.14 1324.68 2029.19 1325.56 L2029.19 1308.2 Z" fill="#000000" fill-rule="nonzero" fill-opacity="1" /><path clip-path="url(#clip110)" d="M2067.97 1326.11 L2067.97 1333.33 L2076.09 1333.33 L2076.09 1335.53 L2067.97 1335.53 L2067.97 1342.76 L2065.53 1342.76 L2065.53 1335.53 L2057.41 1335.53 L2057.41 1333.33 L2065.53 1333.33 L2065.53 1326.11 L2067.97 1326.11 Z" fill="#000000" fill-rule="nonzero" fill-opacity="1" /><path clip-path="url(#clip110)" d="M2100.26 1317.59 L2100.26 1321.62 Q2098.45 1320.7 2096.51 1320.23 Q2094.56 1319.77 2092.48 1319.77 Q2089.31 1319.77 2087.71 1320.74 Q2086.14 1321.71 2086.14 1323.66 Q2086.14 1325.14 2087.27 1326 Q2088.4 1326.83 2091.83 1327.59 L2093.29 1327.92 Q2097.83 1328.89 2099.72 1330.67 Q2101.65 1332.43 2101.65 1335.6 Q2101.65 1339.21 2098.78 1341.32 Q2095.93 1343.43 2090.93 1343.43 Q2088.84 1343.43 2086.58 1343.01 Q2084.33 1342.62 2081.83 1341.81 L2081.83 1337.41 Q2084.19 1338.63 2086.48 1339.26 Q2088.78 1339.86 2091.02 1339.86 Q2094.03 1339.86 2095.65 1338.84 Q2097.27 1337.8 2097.27 1335.93 Q2097.27 1334.19 2096.09 1333.26 Q2094.93 1332.34 2090.97 1331.48 L2089.49 1331.14 Q2085.53 1330.3 2083.78 1328.59 Q2082.02 1326.85 2082.02 1323.84 Q2082.02 1320.19 2084.61 1318.2 Q2087.2 1316.2 2091.97 1316.2 Q2094.33 1316.2 2096.41 1316.55 Q2098.5 1316.9 2100.26 1317.59 Z" fill="#000000" fill-rule="nonzero" fill-opacity="1" /><path clip-path="url(#clip110)" d="M2112.64 1309.47 L2112.64 1316.83 L2121.41 1316.83 L2121.41 1320.14 L2112.64 1320.14 L2112.64 1334.21 Q2112.64 1337.38 2113.5 1338.29 Q2114.38 1339.19 2117.04 1339.19 L2121.41 1339.19 L2121.41 1342.76 L2117.04 1342.76 Q2112.11 1342.76 2110.23 1340.93 Q2108.36 1339.07 2108.36 1334.21 L2108.36 1320.14 L2105.23 1320.14 L2105.23 1316.83 L2108.36 1316.83 L2108.36 1309.47 L2112.64 1309.47 Z" fill="#000000" fill-rule="nonzero" fill-opacity="1" /><path clip-path="url(#clip110)" d="M2137.06 1319.82 Q2133.64 1319.82 2131.65 1322.5 Q2129.65 1325.16 2129.65 1329.82 Q2129.65 1334.47 2131.62 1337.15 Q2133.61 1339.82 2137.06 1339.82 Q2140.46 1339.82 2142.46 1337.13 Q2144.45 1334.45 2144.45 1329.82 Q2144.45 1325.21 2142.46 1322.52 Q2140.46 1319.82 2137.06 1319.82 M2137.06 1316.2 Q2142.62 1316.2 2145.79 1319.82 Q2148.96 1323.43 2148.96 1329.82 Q2148.96 1336.18 2145.79 1339.82 Q2142.62 1343.43 2137.06 1343.43 Q2131.48 1343.43 2128.31 1339.82 Q2125.16 1336.18 2125.16 1329.82 Q2125.16 1323.43 2128.31 1319.82 Q2131.48 1316.2 2137.06 1316.2 Z" fill="#000000" fill-rule="nonzero" fill-opacity="1" /><path clip-path="url(#clip110)" d="M2171.04 1320.81 Q2170.33 1320.39 2169.47 1320.21 Q2168.64 1320 2167.62 1320 Q2164.01 1320 2162.06 1322.36 Q2160.14 1324.7 2160.14 1329.1 L2160.14 1342.76 L2155.86 1342.76 L2155.86 1316.83 L2160.14 1316.83 L2160.14 1320.86 Q2161.48 1318.5 2163.64 1317.36 Q2165.79 1316.2 2168.87 1316.2 Q2169.31 1316.2 2169.84 1316.27 Q2170.37 1316.32 2171.02 1316.44 L2171.04 1320.81 Z" fill="#000000" fill-rule="nonzero" fill-opacity="1" /><path clip-path="url(#clip110)" d="M2187.29 1329.72 Q2182.13 1329.72 2180.14 1330.9 Q2178.15 1332.08 2178.15 1334.93 Q2178.15 1337.2 2179.63 1338.54 Q2181.14 1339.86 2183.71 1339.86 Q2187.25 1339.86 2189.38 1337.36 Q2191.53 1334.84 2191.53 1330.67 L2191.53 1329.72 L2187.29 1329.72 M2195.79 1327.96 L2195.79 1342.76 L2191.53 1342.76 L2191.53 1338.82 Q2190.07 1341.18 2187.9 1342.32 Q2185.72 1343.43 2182.57 1343.43 Q2178.59 1343.43 2176.23 1341.2 Q2173.89 1338.96 2173.89 1335.21 Q2173.89 1330.83 2176.81 1328.61 Q2179.75 1326.39 2185.56 1326.39 L2191.53 1326.39 L2191.53 1325.97 Q2191.53 1323.03 2189.58 1321.44 Q2187.66 1319.82 2184.17 1319.82 Q2181.95 1319.82 2179.84 1320.35 Q2177.73 1320.88 2175.79 1321.95 L2175.79 1318.01 Q2178.13 1317.11 2180.33 1316.67 Q2182.52 1316.2 2184.61 1316.2 Q2190.23 1316.2 2193.01 1319.12 Q2195.79 1322.04 2195.79 1327.96 Z" fill="#000000" fill-rule="nonzero" fill-opacity="1" /><path clip-path="url(#clip110)" d="M2221.62 1329.49 Q2221.62 1324.86 2219.7 1322.32 Q2217.8 1319.77 2214.35 1319.77 Q2210.93 1319.77 2209.01 1322.32 Q2207.11 1324.86 2207.11 1329.49 Q2207.11 1334.1 2209.01 1336.64 Q2210.93 1339.19 2214.35 1339.19 Q2217.8 1339.19 2219.7 1336.64 Q2221.62 1334.1 2221.62 1329.49 M2225.88 1339.54 Q2225.88 1346.16 2222.94 1349.38 Q2220 1352.62 2213.94 1352.62 Q2211.69 1352.62 2209.7 1352.27 Q2207.71 1351.95 2205.83 1351.25 L2205.83 1347.11 Q2207.71 1348.13 2209.54 1348.61 Q2211.37 1349.1 2213.27 1349.1 Q2217.46 1349.1 2219.54 1346.9 Q2221.62 1344.72 2221.62 1340.3 L2221.62 1338.2 Q2220.3 1340.49 2218.24 1341.62 Q2216.18 1342.76 2213.31 1342.76 Q2208.54 1342.76 2205.63 1339.12 Q2202.71 1335.49 2202.71 1329.49 Q2202.71 1323.47 2205.63 1319.84 Q2208.54 1316.2 2213.31 1316.2 Q2216.18 1316.2 2218.24 1317.34 Q2220.3 1318.47 2221.62 1320.76 L2221.62 1316.83 L2225.88 1316.83 L2225.88 1339.54 Z" fill="#000000" fill-rule="nonzero" fill-opacity="1" /><path clip-path="url(#clip110)" d="M2256.83 1328.73 L2256.83 1330.81 L2237.25 1330.81 Q2237.52 1335.21 2239.89 1337.52 Q2242.27 1339.82 2246.51 1339.82 Q2248.96 1339.82 2251.25 1339.21 Q2253.57 1338.61 2255.83 1337.41 L2255.83 1341.44 Q2253.54 1342.41 2251.14 1342.92 Q2248.73 1343.43 2246.25 1343.43 Q2240.05 1343.43 2236.41 1339.82 Q2232.8 1336.2 2232.8 1330.05 Q2232.8 1323.68 2236.23 1319.95 Q2239.68 1316.2 2245.51 1316.2 Q2250.74 1316.2 2253.77 1319.58 Q2256.83 1322.94 2256.83 1328.73 M2252.57 1327.48 Q2252.52 1323.98 2250.6 1321.9 Q2248.71 1319.82 2245.56 1319.82 Q2241.99 1319.82 2239.84 1321.83 Q2237.71 1323.84 2237.39 1327.5 L2252.57 1327.48 Z" fill="#000000" fill-rule="nonzero" fill-opacity="1" /></svg>
