<?xml version="1.0" encoding="utf-8"?>
<svg xmlns="http://www.w3.org/2000/svg" xmlns:xlink="http://www.w3.org/1999/xlink" width="600" height="400" viewBox="0 0 2400 1600">
<defs>
  <clipPath id="clip940">
    <rect x="0" y="0" width="2400" height="1600"/>
  </clipPath>
</defs>
<path clip-path="url(#clip940)" d="M0 1600 L2400 1600 L2400 0 L0 0  Z" fill="#ffffff" fill-rule="evenodd" fill-opacity="1"/>
<defs>
  <clipPath id="clip941">
    <rect x="480" y="0" width="1681" height="1600"/>
  </clipPath>
</defs>
<path clip-path="url(#clip940)" d="M192.709 1423.18 L2352.76 1423.18 L2352.76 47.2441 L192.709 47.2441  Z" fill="#ffffff" fill-rule="evenodd" fill-opacity="1"/>
<defs>
  <clipPath id="clip942">
    <rect x="192" y="47" width="2161" height="1377"/>
  </clipPath>
</defs>
<polyline clip-path="url(#clip942)" style="stroke:#000000; stroke-linecap:round; stroke-linejoin:round; stroke-width:2; stroke-opacity:0.1; fill:none" points="192.709,1423.18 192.709,47.2441 "/>
<polyline clip-path="url(#clip942)" style="stroke:#000000; stroke-linecap:round; stroke-linejoin:round; stroke-width:2; stroke-opacity:0.1; fill:none" points="732.721,1423.18 732.721,47.2441 "/>
<polyline clip-path="url(#clip942)" style="stroke:#000000; stroke-linecap:round; stroke-linejoin:round; stroke-width:2; stroke-opacity:0.1; fill:none" points="1272.73,1423.18 1272.73,47.2441 "/>
<polyline clip-path="url(#clip942)" style="stroke:#000000; stroke-linecap:round; stroke-linejoin:round; stroke-width:2; stroke-opacity:0.1; fill:none" points="1812.74,1423.18 1812.74,47.2441 "/>
<polyline clip-path="url(#clip942)" style="stroke:#000000; stroke-linecap:round; stroke-linejoin:round; stroke-width:2; stroke-opacity:0.1; fill:none" points="2352.76,1423.18 2352.76,47.2441 "/>
<polyline clip-path="url(#clip942)" style="stroke:#000000; stroke-linecap:round; stroke-linejoin:round; stroke-width:2; stroke-opacity:0.1; fill:none" points="192.709,1326.32 2352.76,1326.32 "/>
<polyline clip-path="url(#clip942)" style="stroke:#000000; stroke-linecap:round; stroke-linejoin:round; stroke-width:2; stroke-opacity:0.1; fill:none" points="192.709,1129.44 2352.76,1129.44 "/>
<polyline clip-path="url(#clip942)" style="stroke:#000000; stroke-linecap:round; stroke-linejoin:round; stroke-width:2; stroke-opacity:0.1; fill:none" points="192.709,932.567 2352.76,932.567 "/>
<polyline clip-path="url(#clip942)" style="stroke:#000000; stroke-linecap:round; stroke-linejoin:round; stroke-width:2; stroke-opacity:0.1; fill:none" points="192.709,735.693 2352.76,735.693 "/>
<polyline clip-path="url(#clip942)" style="stroke:#000000; stroke-linecap:round; stroke-linejoin:round; stroke-width:2; stroke-opacity:0.1; fill:none" points="192.709,538.819 2352.76,538.819 "/>
<polyline clip-path="url(#clip942)" style="stroke:#000000; stroke-linecap:round; stroke-linejoin:round; stroke-width:2; stroke-opacity:0.1; fill:none" points="192.709,341.945 2352.76,341.945 "/>
<polyline clip-path="url(#clip942)" style="stroke:#000000; stroke-linecap:round; stroke-linejoin:round; stroke-width:2; stroke-opacity:0.1; fill:none" points="192.709,145.071 2352.76,145.071 "/>
<polyline clip-path="url(#clip940)" style="stroke:#000000; stroke-linecap:round; stroke-linejoin:round; stroke-width:4; stroke-opacity:1; fill:none" points="192.709,1423.18 2352.76,1423.18 "/>
<polyline clip-path="url(#clip940)" style="stroke:#000000; stroke-linecap:round; stroke-linejoin:round; stroke-width:4; stroke-opacity:1; fill:none" points="192.709,1423.18 192.709,1404.28 "/>
<polyline clip-path="url(#clip940)" style="stroke:#000000; stroke-linecap:round; stroke-linejoin:round; stroke-width:4; stroke-opacity:1; fill:none" points="732.721,1423.18 732.721,1404.28 "/>
<polyline clip-path="url(#clip940)" style="stroke:#000000; stroke-linecap:round; stroke-linejoin:round; stroke-width:4; stroke-opacity:1; fill:none" points="1272.73,1423.18 1272.73,1404.28 "/>
<polyline clip-path="url(#clip940)" style="stroke:#000000; stroke-linecap:round; stroke-linejoin:round; stroke-width:4; stroke-opacity:1; fill:none" points="1812.74,1423.18 1812.74,1404.28 "/>
<polyline clip-path="url(#clip940)" style="stroke:#000000; stroke-linecap:round; stroke-linejoin:round; stroke-width:4; stroke-opacity:1; fill:none" points="2352.76,1423.18 2352.76,1404.28 "/>
<path clip-path="url(#clip940)" d="M170.094 1454.1 Q166.482 1454.1 164.654 1457.66 Q162.848 1461.2 162.848 1468.33 Q162.848 1475.44 164.654 1479.01 Q166.482 1482.55 170.094 1482.55 Q173.728 1482.55 175.533 1479.01 Q177.362 1475.44 177.362 1468.33 Q177.362 1461.2 175.533 1457.66 Q173.728 1454.1 170.094 1454.1 M170.094 1450.39 Q175.904 1450.39 178.959 1455 Q182.038 1459.58 182.038 1468.33 Q182.038 1477.06 178.959 1481.67 Q175.904 1486.25 170.094 1486.25 Q164.283 1486.25 161.205 1481.67 Q158.149 1477.06 158.149 1468.33 Q158.149 1459.58 161.205 1455 Q164.283 1450.39 170.094 1450.39 Z" fill="#000000" fill-rule="nonzero" fill-opacity="1" /><path clip-path="url(#clip940)" d="M190.255 1479.7 L195.14 1479.7 L195.14 1485.58 L190.255 1485.58 L190.255 1479.7 Z" fill="#000000" fill-rule="nonzero" fill-opacity="1" /><path clip-path="url(#clip940)" d="M215.325 1454.1 Q211.714 1454.1 209.885 1457.66 Q208.079 1461.2 208.079 1468.33 Q208.079 1475.44 209.885 1479.01 Q211.714 1482.55 215.325 1482.55 Q218.959 1482.55 220.765 1479.01 Q222.593 1475.44 222.593 1468.33 Q222.593 1461.2 220.765 1457.66 Q218.959 1454.1 215.325 1454.1 M215.325 1450.39 Q221.135 1450.39 224.19 1455 Q227.269 1459.58 227.269 1468.33 Q227.269 1477.06 224.19 1481.67 Q221.135 1486.25 215.325 1486.25 Q209.515 1486.25 206.436 1481.67 Q203.38 1477.06 203.38 1468.33 Q203.38 1459.58 206.436 1455 Q209.515 1450.39 215.325 1450.39 Z" fill="#000000" fill-rule="nonzero" fill-opacity="1" /><path clip-path="url(#clip940)" d="M710.603 1454.1 Q706.992 1454.1 705.163 1457.66 Q703.358 1461.2 703.358 1468.33 Q703.358 1475.44 705.163 1479.01 Q706.992 1482.55 710.603 1482.55 Q714.237 1482.55 716.043 1479.01 Q717.871 1475.44 717.871 1468.33 Q717.871 1461.2 716.043 1457.66 Q714.237 1454.1 710.603 1454.1 M710.603 1450.39 Q716.413 1450.39 719.469 1455 Q722.547 1459.58 722.547 1468.33 Q722.547 1477.06 719.469 1481.67 Q716.413 1486.25 710.603 1486.25 Q704.793 1486.25 701.714 1481.67 Q698.659 1477.06 698.659 1468.33 Q698.659 1459.58 701.714 1455 Q704.793 1450.39 710.603 1450.39 Z" fill="#000000" fill-rule="nonzero" fill-opacity="1" /><path clip-path="url(#clip940)" d="M730.765 1479.7 L735.649 1479.7 L735.649 1485.58 L730.765 1485.58 L730.765 1479.7 Z" fill="#000000" fill-rule="nonzero" fill-opacity="1" /><path clip-path="url(#clip940)" d="M745.88 1451.02 L764.237 1451.02 L764.237 1454.96 L750.163 1454.96 L750.163 1463.43 Q751.181 1463.08 752.2 1462.92 Q753.218 1462.73 754.237 1462.73 Q760.024 1462.73 763.404 1465.9 Q766.783 1469.08 766.783 1474.49 Q766.783 1480.07 763.311 1483.17 Q759.839 1486.25 753.519 1486.25 Q751.343 1486.25 749.075 1485.88 Q746.83 1485.51 744.422 1484.77 L744.422 1480.07 Q746.505 1481.2 748.728 1481.76 Q750.95 1482.32 753.427 1482.32 Q757.431 1482.32 759.769 1480.21 Q762.107 1478.1 762.107 1474.49 Q762.107 1470.88 759.769 1468.77 Q757.431 1466.67 753.427 1466.67 Q751.552 1466.67 749.677 1467.08 Q747.825 1467.5 745.88 1468.38 L745.88 1451.02 Z" fill="#000000" fill-rule="nonzero" fill-opacity="1" /><path clip-path="url(#clip940)" d="M1239.89 1481.64 L1247.52 1481.64 L1247.52 1455.28 L1239.21 1456.95 L1239.21 1452.69 L1247.48 1451.02 L1252.15 1451.02 L1252.15 1481.64 L1259.79 1481.64 L1259.79 1485.58 L1239.89 1485.58 L1239.89 1481.64 Z" fill="#000000" fill-rule="nonzero" fill-opacity="1" /><path clip-path="url(#clip940)" d="M1269.24 1479.7 L1274.12 1479.7 L1274.12 1485.58 L1269.24 1485.58 L1269.24 1479.7 Z" fill="#000000" fill-rule="nonzero" fill-opacity="1" /><path clip-path="url(#clip940)" d="M1294.31 1454.1 Q1290.7 1454.1 1288.87 1457.66 Q1287.06 1461.2 1287.06 1468.33 Q1287.06 1475.44 1288.87 1479.01 Q1290.7 1482.55 1294.31 1482.55 Q1297.94 1482.55 1299.75 1479.01 Q1301.57 1475.44 1301.57 1468.33 Q1301.57 1461.2 1299.75 1457.66 Q1297.94 1454.1 1294.31 1454.1 M1294.31 1450.39 Q1300.12 1450.39 1303.17 1455 Q1306.25 1459.58 1306.25 1468.33 Q1306.25 1477.06 1303.17 1481.67 Q1300.12 1486.25 1294.31 1486.25 Q1288.5 1486.25 1285.42 1481.67 Q1282.36 1477.06 1282.36 1468.33 Q1282.36 1459.58 1285.42 1455 Q1288.5 1450.39 1294.31 1450.39 Z" fill="#000000" fill-rule="nonzero" fill-opacity="1" /><path clip-path="url(#clip940)" d="M1780.39 1481.64 L1788.03 1481.64 L1788.03 1455.28 L1779.72 1456.95 L1779.72 1452.69 L1787.99 1451.02 L1792.66 1451.02 L1792.66 1481.64 L1800.3 1481.64 L1800.3 1485.58 L1780.39 1485.58 L1780.39 1481.64 Z" fill="#000000" fill-rule="nonzero" fill-opacity="1" /><path clip-path="url(#clip940)" d="M1809.75 1479.7 L1814.63 1479.7 L1814.63 1485.58 L1809.75 1485.58 L1809.75 1479.7 Z" fill="#000000" fill-rule="nonzero" fill-opacity="1" /><path clip-path="url(#clip940)" d="M1824.86 1451.02 L1843.22 1451.02 L1843.22 1454.96 L1829.14 1454.96 L1829.14 1463.43 Q1830.16 1463.08 1831.18 1462.92 Q1832.2 1462.73 1833.22 1462.73 Q1839.01 1462.73 1842.39 1465.9 Q1845.76 1469.08 1845.76 1474.49 Q1845.76 1480.07 1842.29 1483.17 Q1838.82 1486.25 1832.5 1486.25 Q1830.33 1486.25 1828.06 1485.88 Q1825.81 1485.51 1823.4 1484.77 L1823.4 1480.07 Q1825.49 1481.2 1827.71 1481.76 Q1829.93 1482.32 1832.41 1482.32 Q1836.41 1482.32 1838.75 1480.21 Q1841.09 1478.1 1841.09 1474.49 Q1841.09 1470.88 1838.75 1468.77 Q1836.41 1466.67 1832.41 1466.67 Q1830.53 1466.67 1828.66 1467.08 Q1826.81 1467.5 1824.86 1468.38 L1824.86 1451.02 Z" fill="#000000" fill-rule="nonzero" fill-opacity="1" /><path clip-path="url(#clip940)" d="M2323.99 1481.64 L2340.31 1481.64 L2340.31 1485.58 L2318.37 1485.58 L2318.37 1481.64 Q2321.03 1478.89 2325.61 1474.26 Q2330.22 1469.61 2331.4 1468.27 Q2333.65 1465.74 2334.53 1464.01 Q2335.43 1462.25 2335.43 1460.56 Q2335.43 1457.8 2333.49 1456.07 Q2331.56 1454.33 2328.46 1454.33 Q2326.26 1454.33 2323.81 1455.09 Q2321.38 1455.86 2318.6 1457.41 L2318.6 1452.69 Q2321.43 1451.55 2323.88 1450.97 Q2326.33 1450.39 2328.37 1450.39 Q2333.74 1450.39 2336.93 1453.08 Q2340.13 1455.77 2340.13 1460.26 Q2340.13 1462.39 2339.32 1464.31 Q2338.53 1466.2 2336.42 1468.8 Q2335.85 1469.47 2332.74 1472.69 Q2329.64 1475.88 2323.99 1481.64 Z" fill="#000000" fill-rule="nonzero" fill-opacity="1" /><path clip-path="url(#clip940)" d="M2350.13 1479.7 L2355.01 1479.7 L2355.01 1485.58 L2350.13 1485.58 L2350.13 1479.7 Z" fill="#000000" fill-rule="nonzero" fill-opacity="1" /><path clip-path="url(#clip940)" d="M2375.2 1454.1 Q2371.59 1454.1 2369.76 1457.66 Q2367.95 1461.2 2367.95 1468.33 Q2367.95 1475.44 2369.76 1479.01 Q2371.59 1482.55 2375.2 1482.55 Q2378.83 1482.55 2380.64 1479.01 Q2382.47 1475.44 2382.47 1468.33 Q2382.47 1461.2 2380.64 1457.66 Q2378.83 1454.1 2375.2 1454.1 M2375.2 1450.39 Q2381.01 1450.39 2384.06 1455 Q2387.14 1459.58 2387.14 1468.33 Q2387.14 1477.06 2384.06 1481.67 Q2381.01 1486.25 2375.2 1486.25 Q2369.39 1486.25 2366.31 1481.67 Q2363.25 1477.06 2363.25 1468.33 Q2363.25 1459.58 2366.31 1455 Q2369.39 1450.39 2375.2 1450.39 Z" fill="#000000" fill-rule="nonzero" fill-opacity="1" /><path clip-path="url(#clip940)" d="M1271.79 1522.27 L1271.79 1532.4 L1283.86 1532.4 L1283.86 1536.95 L1271.79 1536.95 L1271.79 1556.3 Q1271.79 1560.66 1272.97 1561.9 Q1274.18 1563.14 1277.84 1563.14 L1283.86 1563.14 L1283.86 1568.04 L1277.84 1568.04 Q1271.06 1568.04 1268.48 1565.53 Q1265.91 1562.98 1265.91 1556.3 L1265.91 1536.95 L1261.61 1536.95 L1261.61 1532.4 L1265.91 1532.4 L1265.91 1522.27 L1271.79 1522.27 Z" fill="#000000" fill-rule="nonzero" fill-opacity="1" /><polyline clip-path="url(#clip940)" style="stroke:#000000; stroke-linecap:round; stroke-linejoin:round; stroke-width:4; stroke-opacity:1; fill:none" points="192.709,1423.18 192.709,47.2441 "/>
<polyline clip-path="url(#clip940)" style="stroke:#000000; stroke-linecap:round; stroke-linejoin:round; stroke-width:4; stroke-opacity:1; fill:none" points="192.709,1326.32 211.607,1326.32 "/>
<polyline clip-path="url(#clip940)" style="stroke:#000000; stroke-linecap:round; stroke-linejoin:round; stroke-width:4; stroke-opacity:1; fill:none" points="192.709,1129.44 211.607,1129.44 "/>
<polyline clip-path="url(#clip940)" style="stroke:#000000; stroke-linecap:round; stroke-linejoin:round; stroke-width:4; stroke-opacity:1; fill:none" points="192.709,932.567 211.607,932.567 "/>
<polyline clip-path="url(#clip940)" style="stroke:#000000; stroke-linecap:round; stroke-linejoin:round; stroke-width:4; stroke-opacity:1; fill:none" points="192.709,735.693 211.607,735.693 "/>
<polyline clip-path="url(#clip940)" style="stroke:#000000; stroke-linecap:round; stroke-linejoin:round; stroke-width:4; stroke-opacity:1; fill:none" points="192.709,538.819 211.607,538.819 "/>
<polyline clip-path="url(#clip940)" style="stroke:#000000; stroke-linecap:round; stroke-linejoin:round; stroke-width:4; stroke-opacity:1; fill:none" points="192.709,341.945 211.607,341.945 "/>
<polyline clip-path="url(#clip940)" style="stroke:#000000; stroke-linecap:round; stroke-linejoin:round; stroke-width:4; stroke-opacity:1; fill:none" points="192.709,145.071 211.607,145.071 "/>
<path clip-path="url(#clip940)" d="M51.3625 1326.77 L81.0383 1326.77 L81.0383 1330.7 L51.3625 1330.7 L51.3625 1326.77 Z" fill="#000000" fill-rule="nonzero" fill-opacity="1" /><path clip-path="url(#clip940)" d="M101.131 1312.11 Q97.5197 1312.11 95.691 1315.68 Q93.8854 1319.22 93.8854 1326.35 Q93.8854 1333.46 95.691 1337.02 Q97.5197 1340.56 101.131 1340.56 Q104.765 1340.56 106.571 1337.02 Q108.399 1333.46 108.399 1326.35 Q108.399 1319.22 106.571 1315.68 Q104.765 1312.11 101.131 1312.11 M101.131 1308.41 Q106.941 1308.41 109.996 1313.02 Q113.075 1317.6 113.075 1326.35 Q113.075 1335.08 109.996 1339.68 Q106.941 1344.27 101.131 1344.27 Q95.3206 1344.27 92.2419 1339.68 Q89.1864 1335.08 89.1864 1326.35 Q89.1864 1317.6 92.2419 1313.02 Q95.3206 1308.41 101.131 1308.41 Z" fill="#000000" fill-rule="nonzero" fill-opacity="1" /><path clip-path="url(#clip940)" d="M121.293 1337.72 L126.177 1337.72 L126.177 1343.6 L121.293 1343.6 L121.293 1337.72 Z" fill="#000000" fill-rule="nonzero" fill-opacity="1" /><path clip-path="url(#clip940)" d="M140.39 1339.66 L156.709 1339.66 L156.709 1343.6 L134.765 1343.6 L134.765 1339.66 Q137.427 1336.91 142.01 1332.28 Q146.617 1327.62 147.797 1326.28 Q150.043 1323.76 150.922 1322.02 Q151.825 1320.26 151.825 1318.57 Q151.825 1315.82 149.88 1314.08 Q147.959 1312.35 144.857 1312.35 Q142.658 1312.35 140.205 1313.11 Q137.774 1313.87 134.996 1315.42 L134.996 1310.7 Q137.82 1309.57 140.274 1308.99 Q142.728 1308.41 144.765 1308.41 Q150.135 1308.41 153.33 1311.1 Q156.524 1313.78 156.524 1318.27 Q156.524 1320.4 155.714 1322.32 Q154.927 1324.22 152.82 1326.81 Q152.242 1327.48 149.14 1330.7 Q146.038 1333.9 140.39 1339.66 Z" fill="#000000" fill-rule="nonzero" fill-opacity="1" /><path clip-path="url(#clip940)" d="M50.9921 1129.89 L80.6679 1129.89 L80.6679 1133.83 L50.9921 1133.83 L50.9921 1129.89 Z" fill="#000000" fill-rule="nonzero" fill-opacity="1" /><path clip-path="url(#clip940)" d="M100.76 1115.24 Q97.1493 1115.24 95.3206 1118.8 Q93.515 1122.35 93.515 1129.48 Q93.515 1136.58 95.3206 1140.15 Q97.1493 1143.69 100.76 1143.69 Q104.395 1143.69 106.2 1140.15 Q108.029 1136.58 108.029 1129.48 Q108.029 1122.35 106.2 1118.8 Q104.395 1115.24 100.76 1115.24 M100.76 1111.54 Q106.571 1111.54 109.626 1116.14 Q112.705 1120.73 112.705 1129.48 Q112.705 1138.2 109.626 1142.81 Q106.571 1147.39 100.76 1147.39 Q94.9502 1147.39 91.8715 1142.81 Q88.816 1138.2 88.816 1129.48 Q88.816 1120.73 91.8715 1116.14 Q94.9502 1111.54 100.76 1111.54 Z" fill="#000000" fill-rule="nonzero" fill-opacity="1" /><path clip-path="url(#clip940)" d="M120.922 1140.84 L125.807 1140.84 L125.807 1146.72 L120.922 1146.72 L120.922 1140.84 Z" fill="#000000" fill-rule="nonzero" fill-opacity="1" /><path clip-path="url(#clip940)" d="M136.802 1142.79 L144.441 1142.79 L144.441 1116.42 L136.131 1118.09 L136.131 1113.83 L144.394 1112.16 L149.07 1112.16 L149.07 1142.79 L156.709 1142.79 L156.709 1146.72 L136.802 1146.72 L136.802 1142.79 Z" fill="#000000" fill-rule="nonzero" fill-opacity="1" /><path clip-path="url(#clip940)" d="M99.5335 918.366 Q95.9224 918.366 94.0937 921.931 Q92.2882 925.473 92.2882 932.602 Q92.2882 939.709 94.0937 943.273 Q95.9224 946.815 99.5335 946.815 Q103.168 946.815 104.973 943.273 Q106.802 939.709 106.802 932.602 Q106.802 925.473 104.973 921.931 Q103.168 918.366 99.5335 918.366 M99.5335 914.662 Q105.344 914.662 108.399 919.269 Q111.478 923.852 111.478 932.602 Q111.478 941.329 108.399 945.935 Q105.344 950.519 99.5335 950.519 Q93.7234 950.519 90.6447 945.935 Q87.5892 941.329 87.5892 932.602 Q87.5892 923.852 90.6447 919.269 Q93.7234 914.662 99.5335 914.662 Z" fill="#000000" fill-rule="nonzero" fill-opacity="1" /><path clip-path="url(#clip940)" d="M119.695 943.968 L124.58 943.968 L124.58 949.847 L119.695 949.847 L119.695 943.968 Z" fill="#000000" fill-rule="nonzero" fill-opacity="1" /><path clip-path="url(#clip940)" d="M144.765 918.366 Q141.154 918.366 139.325 921.931 Q137.519 925.473 137.519 932.602 Q137.519 939.709 139.325 943.273 Q141.154 946.815 144.765 946.815 Q148.399 946.815 150.205 943.273 Q152.033 939.709 152.033 932.602 Q152.033 925.473 150.205 921.931 Q148.399 918.366 144.765 918.366 M144.765 914.662 Q150.575 914.662 153.63 919.269 Q156.709 923.852 156.709 932.602 Q156.709 941.329 153.63 945.935 Q150.575 950.519 144.765 950.519 Q138.955 950.519 135.876 945.935 Q132.82 941.329 132.82 932.602 Q132.82 923.852 135.876 919.269 Q138.955 914.662 144.765 914.662 Z" fill="#000000" fill-rule="nonzero" fill-opacity="1" /><path clip-path="url(#clip940)" d="M100.76 721.492 Q97.1493 721.492 95.3206 725.057 Q93.515 728.598 93.515 735.728 Q93.515 742.834 95.3206 746.399 Q97.1493 749.941 100.76 749.941 Q104.395 749.941 106.2 746.399 Q108.029 742.834 108.029 735.728 Q108.029 728.598 106.2 725.057 Q104.395 721.492 100.76 721.492 M100.76 717.788 Q106.571 717.788 109.626 722.395 Q112.705 726.978 112.705 735.728 Q112.705 744.455 109.626 749.061 Q106.571 753.645 100.76 753.645 Q94.9502 753.645 91.8715 749.061 Q88.816 744.455 88.816 735.728 Q88.816 726.978 91.8715 722.395 Q94.9502 717.788 100.76 717.788 Z" fill="#000000" fill-rule="nonzero" fill-opacity="1" /><path clip-path="url(#clip940)" d="M120.922 747.094 L125.807 747.094 L125.807 752.973 L120.922 752.973 L120.922 747.094 Z" fill="#000000" fill-rule="nonzero" fill-opacity="1" /><path clip-path="url(#clip940)" d="M136.802 749.038 L144.441 749.038 L144.441 722.673 L136.131 724.339 L136.131 720.08 L144.394 718.413 L149.07 718.413 L149.07 749.038 L156.709 749.038 L156.709 752.973 L136.802 752.973 L136.802 749.038 Z" fill="#000000" fill-rule="nonzero" fill-opacity="1" /><path clip-path="url(#clip940)" d="M101.131 524.618 Q97.5197 524.618 95.691 528.183 Q93.8854 531.724 93.8854 538.854 Q93.8854 545.96 95.691 549.525 Q97.5197 553.067 101.131 553.067 Q104.765 553.067 106.571 549.525 Q108.399 545.96 108.399 538.854 Q108.399 531.724 106.571 528.183 Q104.765 524.618 101.131 524.618 M101.131 520.914 Q106.941 520.914 109.996 525.521 Q113.075 530.104 113.075 538.854 Q113.075 547.581 109.996 552.187 Q106.941 556.771 101.131 556.771 Q95.3206 556.771 92.2419 552.187 Q89.1864 547.581 89.1864 538.854 Q89.1864 530.104 92.2419 525.521 Q95.3206 520.914 101.131 520.914 Z" fill="#000000" fill-rule="nonzero" fill-opacity="1" /><path clip-path="url(#clip940)" d="M121.293 550.22 L126.177 550.22 L126.177 556.099 L121.293 556.099 L121.293 550.22 Z" fill="#000000" fill-rule="nonzero" fill-opacity="1" /><path clip-path="url(#clip940)" d="M140.39 552.164 L156.709 552.164 L156.709 556.099 L134.765 556.099 L134.765 552.164 Q137.427 549.409 142.01 544.78 Q146.617 540.127 147.797 538.784 Q150.043 536.261 150.922 534.525 Q151.825 532.766 151.825 531.076 Q151.825 528.322 149.88 526.585 Q147.959 524.849 144.857 524.849 Q142.658 524.849 140.205 525.613 Q137.774 526.377 134.996 527.928 L134.996 523.206 Q137.82 522.072 140.274 521.493 Q142.728 520.914 144.765 520.914 Q150.135 520.914 153.33 523.599 Q156.524 526.285 156.524 530.775 Q156.524 532.905 155.714 534.826 Q154.927 536.724 152.82 539.317 Q152.242 539.988 149.14 543.206 Q146.038 546.4 140.39 552.164 Z" fill="#000000" fill-rule="nonzero" fill-opacity="1" /><path clip-path="url(#clip940)" d="M100.182 327.744 Q96.5706 327.744 94.7419 331.309 Q92.9363 334.85 92.9363 341.98 Q92.9363 349.086 94.7419 352.651 Q96.5706 356.193 100.182 356.193 Q103.816 356.193 105.621 352.651 Q107.45 349.086 107.45 341.98 Q107.45 334.85 105.621 331.309 Q103.816 327.744 100.182 327.744 M100.182 324.04 Q105.992 324.04 109.047 328.647 Q112.126 333.23 112.126 341.98 Q112.126 350.707 109.047 355.313 Q105.992 359.896 100.182 359.896 Q94.3715 359.896 91.2928 355.313 Q88.2373 350.707 88.2373 341.98 Q88.2373 333.23 91.2928 328.647 Q94.3715 324.04 100.182 324.04 Z" fill="#000000" fill-rule="nonzero" fill-opacity="1" /><path clip-path="url(#clip940)" d="M120.344 353.346 L125.228 353.346 L125.228 359.225 L120.344 359.225 L120.344 353.346 Z" fill="#000000" fill-rule="nonzero" fill-opacity="1" /><path clip-path="url(#clip940)" d="M149.58 340.591 Q152.936 341.309 154.811 343.577 Q156.709 345.846 156.709 349.179 Q156.709 354.295 153.191 357.096 Q149.672 359.896 143.191 359.896 Q141.015 359.896 138.7 359.457 Q136.408 359.04 133.955 358.183 L133.955 353.67 Q135.899 354.804 138.214 355.383 Q140.529 355.961 143.052 355.961 Q147.45 355.961 149.742 354.225 Q152.056 352.489 152.056 349.179 Q152.056 346.123 149.904 344.41 Q147.774 342.674 143.955 342.674 L139.927 342.674 L139.927 338.832 L144.14 338.832 Q147.589 338.832 149.418 337.466 Q151.246 336.077 151.246 333.485 Q151.246 330.822 149.348 329.41 Q147.473 327.975 143.955 327.975 Q142.033 327.975 139.834 328.392 Q137.635 328.809 134.996 329.688 L134.996 325.522 Q137.658 324.781 139.973 324.41 Q142.311 324.04 144.371 324.04 Q149.695 324.04 152.797 326.471 Q155.899 328.878 155.899 332.998 Q155.899 335.869 154.255 337.859 Q152.612 339.827 149.58 340.591 Z" fill="#000000" fill-rule="nonzero" fill-opacity="1" /><path clip-path="url(#clip940)" d="M99.0474 130.87 Q95.4363 130.87 93.6076 134.435 Q91.8021 137.976 91.8021 145.106 Q91.8021 152.212 93.6076 155.777 Q95.4363 159.319 99.0474 159.319 Q102.682 159.319 104.487 155.777 Q106.316 152.212 106.316 145.106 Q106.316 137.976 104.487 134.435 Q102.682 130.87 99.0474 130.87 M99.0474 127.166 Q104.858 127.166 107.913 131.772 Q110.992 136.356 110.992 145.106 Q110.992 153.833 107.913 158.439 Q104.858 163.022 99.0474 163.022 Q93.2373 163.022 90.1586 158.439 Q87.103 153.833 87.103 145.106 Q87.103 136.356 90.1586 131.772 Q93.2373 127.166 99.0474 127.166 Z" fill="#000000" fill-rule="nonzero" fill-opacity="1" /><path clip-path="url(#clip940)" d="M119.209 156.471 L124.094 156.471 L124.094 162.351 L119.209 162.351 L119.209 156.471 Z" fill="#000000" fill-rule="nonzero" fill-opacity="1" /><path clip-path="url(#clip940)" d="M147.126 131.865 L135.32 150.314 L147.126 150.314 L147.126 131.865 M145.899 127.791 L151.779 127.791 L151.779 150.314 L156.709 150.314 L156.709 154.203 L151.779 154.203 L151.779 162.351 L147.126 162.351 L147.126 154.203 L131.524 154.203 L131.524 149.689 L145.899 127.791 Z" fill="#000000" fill-rule="nonzero" fill-opacity="1" /><polyline clip-path="url(#clip942)" style="stroke:#009af9; stroke-linecap:round; stroke-linejoin:round; stroke-width:4; stroke-opacity:1; fill:none" points="192.709,86.1857 194.871,96.3 197.034,106.314 199.196,116.227 201.358,126.043 203.52,135.76 205.682,145.381 207.845,154.905 210.007,164.335 212.169,173.671 214.331,182.914 216.493,192.065 218.656,201.125 220.818,210.094 222.98,218.974 225.142,227.766 227.304,236.47 229.467,245.088 231.629,253.619 233.791,262.066 235.953,270.429 238.116,278.708 240.278,286.905 242.44,295.02 244.602,303.054 246.764,311.009 248.927,318.884 251.089,326.68 253.251,334.399 255.413,342.042 257.575,349.608 259.738,357.098 261.9,364.514 264.062,371.856 266.224,379.125 268.386,386.322 270.549,393.447 272.711,400.501 274.873,407.485 277.035,414.399 279.198,421.244 281.36,428.021 283.522,434.731 285.684,441.373 287.846,447.95 290.009,454.461 292.171,460.907 294.333,467.289 296.495,473.608 298.657,479.864 300.82,486.057 302.982,492.188 305.144,498.259 307.306,504.269 309.468,510.219 311.631,516.11 313.793,521.943 315.955,527.717 318.117,533.434 320.279,539.094 322.442,544.697 324.604,550.244 326.766,555.737 328.928,561.174 331.091,566.558 333.253,571.888 335.415,577.164 337.577,582.388 339.739,587.56 341.902,592.681 344.064,597.75 346.226,602.77 348.388,607.739 350.55,612.658 352.713,617.529 354.875,622.351 357.037,627.125 359.199,631.851 361.361,636.531 363.524,641.163 365.686,645.75 367.848,650.291 370.01,654.787 372.172,659.238 374.335,663.645 376.497,668.007 378.659,672.327 380.821,676.603 382.984,680.837 385.146,685.029 387.308,689.179 389.47,693.287 391.632,697.355 393.795,701.382 395.957,705.369 398.119,709.316 400.281,713.224 402.443,717.093 404.606,720.924 406.768,724.716 408.93,728.471 411.092,732.188 413.254,735.868 415.417,739.512 417.579,743.119 419.741,746.69 421.903,750.225 424.066,753.726 426.228,757.191 428.39,760.622 430.552,764.019 432.714,767.382 434.877,770.712 437.039,774.008 439.201,777.271 441.363,780.502 443.525,783.701 445.688,786.868 447.85,790.003 450.012,793.108 452.174,796.181 454.336,799.223 456.499,802.236 458.661,805.218 460.823,808.171 462.985,811.094 465.147,813.988 467.31,816.854 469.472,819.691 471.634,822.499 473.796,825.28 475.959,828.033 478.121,830.759 480.283,833.457 482.445,836.129 484.607,838.774 486.77,841.393 488.932,843.985 491.094,846.552 493.256,849.093 495.418,851.609 497.581,854.1 499.743,856.566 501.905,859.007 504.067,861.424 506.229,863.817 508.392,866.186 510.554,868.531 512.716,870.853 514.878,873.152 517.04,875.428 519.203,877.682 521.365,879.913 523.527,882.121 525.689,884.308 527.852,886.473 530.014,888.616 532.176,890.738 534.338,892.839 536.5,894.919 538.663,896.978 540.825,899.016 542.987,901.035 545.149,903.033 547.311,905.011 549.474,906.97 551.636,908.909 553.798,910.829 555.96,912.73 558.122,914.612 560.285,916.475 562.447,918.319 564.609,920.145 566.771,921.953 568.934,923.744 571.096,925.516 573.258,927.27 575.42,929.008 577.582,930.727 579.745,932.43 581.907,934.116 584.069,935.785 586.231,937.437 588.393,939.073 590.556,940.693 592.718,942.297 594.88,943.884 597.042,945.456 599.204,947.012 601.367,948.552 603.529,950.078 605.691,951.588 607.853,953.082 610.015,954.562 612.178,956.028 614.34,957.478 616.502,958.915 618.664,960.336 620.827,961.744 622.989,963.138 625.151,964.518 627.313,965.884 629.475,967.236 631.638,968.575 633.8,969.9 635.962,971.213 638.124,972.512 640.286,973.798 642.449,975.072 644.611,976.333 646.773,977.581 648.935,978.817 651.097,980.04 653.26,981.252 655.422,982.451 657.584,983.638 659.746,984.814 661.908,985.978 664.071,987.13 666.233,988.271 668.395,989.4 670.557,990.518 672.72,991.626 674.882,992.722 677.044,993.807 679.206,994.881 681.368,995.945 683.531,996.998 685.693,998.041 687.855,999.073 690.017,1000.09 692.179,1001.11 694.342,1002.11 696.504,1003.1 698.666,1004.08 700.828,1005.05 702.99,1006.02 705.153,1006.97 707.315,1007.91 709.477,1008.85 711.639,1009.77 713.802,1010.69 715.964,1011.59 718.126,1012.49 720.288,1013.38 722.45,1014.26 724.613,1015.13 726.775,1015.99 728.937,1016.84 731.099,1017.69 733.261,1018.53 735.424,1019.35 737.586,1020.17 739.748,1020.99 741.91,1021.79 744.072,1022.58 746.235,1023.37 748.397,1024.15 750.559,1024.92 752.721,1025.69 754.883,1026.45 757.046,1027.19 759.208,1027.94 761.37,1028.67 763.532,1029.4 765.695,1030.12 767.857,1030.83 770.019,1031.54 772.181,1032.23 774.343,1032.93 776.506,1033.61 778.668,1034.29 780.83,1034.96 782.992,1035.62 785.154,1036.28 787.317,1036.93 789.479,1037.58 791.641,1038.22 793.803,1038.85 795.965,1039.47 798.128,1040.09 800.29,1040.71 802.452,1041.31 804.614,1041.91 806.776,1042.51 808.939,1043.1 811.101,1043.68 813.263,1044.26 815.425,1044.83 817.588,1045.4 819.75,1045.96 821.912,1046.51 824.074,1047.06 826.236,1047.61 828.399,1048.15 830.561,1048.68 832.723,1049.21 834.885,1049.73 837.047,1050.25 839.21,1050.76 841.372,1051.27 843.534,1051.77 845.696,1052.27 847.858,1052.76 850.021,1053.25 852.183,1053.73 854.345,1054.21 856.507,1054.68 858.67,1055.15 860.832,1055.61 862.994,1056.07 865.156,1056.52 867.318,1056.97 869.481,1057.42 871.643,1057.86 873.805,1058.3 875.967,1058.73 878.129,1059.16 880.292,1059.58 882.454,1060 884.616,1060.41 886.778,1060.82 888.94,1061.23 891.103,1061.63 893.265,1062.03 895.427,1062.43 897.589,1062.82 899.751,1063.2 901.914,1063.59 904.076,1063.97 906.238,1064.34 908.4,1064.71 910.563,1065.08 912.725,1065.45 914.887,1065.81 917.049,1066.16 919.211,1066.52 921.374,1066.87 923.536,1067.21 925.698,1067.56 927.86,1067.9 930.022,1068.23 932.185,1068.57 934.347,1068.9 936.509,1069.22 938.671,1069.55 940.833,1069.87 942.996,1070.18 945.158,1070.5 947.32,1070.81 949.482,1071.11 951.644,1071.42 953.807,1071.72 955.969,1072.02 958.131,1072.31 960.293,1072.61 962.456,1072.9 964.618,1073.18 966.78,1073.47 968.942,1073.75 971.104,1074.03 973.267,1074.3 975.429,1074.57 977.591,1074.84 979.753,1075.11 981.915,1075.38 984.078,1075.64 986.24,1075.9 988.402,1076.15 990.564,1076.41 992.726,1076.66 994.889,1076.91 997.051,1077.16 999.213,1077.4 1001.38,1077.64 1003.54,1077.88 1005.7,1078.12 1007.86,1078.35 1010.02,1078.59 1012.19,1078.82 1014.35,1079.04 1016.51,1079.27 1018.67,1079.49 1020.84,1079.71 1023,1079.93 1025.16,1080.15 1027.32,1080.36 1029.48,1080.57 1031.65,1080.78 1033.81,1080.99 1035.97,1081.2 1038.13,1081.4 1040.3,1081.6 1042.46,1081.8 1044.62,1082 1046.78,1082.2 1048.94,1082.39 1051.11,1082.58 1053.27,1082.77 1055.43,1082.96 1057.59,1083.15 1059.75,1083.33 1061.92,1083.51 1064.08,1083.69 1066.24,1083.87 1068.4,1084.05 1070.57,1084.23 1072.73,1084.4 1074.89,1084.57 1077.05,1084.74 1079.21,1084.91 1081.38,1085.08 1083.54,1085.24 1085.7,1085.41 1087.86,1085.57 1090.03,1085.73 1092.19,1085.89 1094.35,1086.05 1096.51,1086.2 1098.67,1086.36 1100.84,1086.51 1103,1086.66 1105.16,1086.81 1107.32,1086.96 1109.49,1087.1 1111.65,1087.25 1113.81,1087.39 1115.97,1087.53 1118.13,1087.68 1120.3,1087.81 1122.46,1087.95 1124.62,1088.09 1126.78,1088.22 1128.95,1088.36 1131.11,1088.49 1133.27,1088.62 1135.43,1088.75 1137.59,1088.88 1139.76,1089.01 1141.92,1089.14 1144.08,1089.26 1146.24,1089.38 1148.41,1089.51 1150.57,1089.63 1152.73,1089.75 1154.89,1089.87 1157.05,1089.98 1159.22,1090.1 1161.38,1090.22 1163.54,1090.33 1165.7,1090.44 1167.87,1090.55 1170.03,1090.67 1172.19,1090.78 1174.35,1090.88 1176.51,1090.99 1178.68,1091.1 1180.84,1091.2 1183,1091.31 1185.16,1091.41 1187.33,1091.51 1189.49,1091.61 1191.65,1091.71 1193.81,1091.81 1195.97,1091.91 1198.14,1092.01 1200.3,1092.1 1202.46,1092.2 1204.62,1092.29 1206.79,1092.39 1208.95,1092.48 1211.11,1092.57 1213.27,1092.66 1215.43,1092.75 1217.6,1092.84 1219.76,1092.93 1221.92,1093.01 1224.08,1093.1 1226.25,1093.19 1228.41,1093.27 1230.57,1093.35 1232.73,1093.44 1234.89,1093.52 1237.06,1093.6 1239.22,1093.68 1241.38,1093.76 1243.54,1093.84 1245.7,1093.92 1247.87,1093.99 1250.03,1094.07 1252.19,1094.15 1254.35,1094.22 1256.52,1094.3 1258.68,1094.37 1260.84,1094.44 1263,1094.51 1265.16,1094.59 1267.33,1094.66 1269.49,1094.73 1271.65,1094.8 1273.81,1094.86 1275.98,1094.93 1278.14,1095 1280.3,1095.07 1282.46,1095.13 1284.62,1095.2 1286.79,1095.26 1288.95,1095.33 1291.11,1095.39 1293.27,1095.45 1295.44,1095.51 1297.6,1095.57 1299.76,1095.64 1301.92,1095.7 1304.08,1095.76 1306.25,1095.81 1308.41,1095.87 1310.57,1095.93 1312.73,1095.99 1314.9,1096.04 1317.06,1096.1 1319.22,1096.16 1321.38,1096.21 1323.54,1096.27 1325.71,1096.32 1327.87,1096.37 1330.03,1096.43 1332.19,1096.48 1334.36,1096.53 1336.52,1096.58 1338.68,1096.63 1340.84,1096.68 1343,1096.73 1345.17,1096.78 1347.33,1096.83 1349.49,1096.88 1351.65,1096.93 1353.82,1096.97 1355.98,1097.02 1358.14,1097.07 1360.3,1097.11 1362.46,1097.16 1364.63,1097.2 1366.79,1097.25 1368.95,1097.29 1371.11,1097.33 1373.28,1097.38 1375.44,1097.42 1377.6,1097.46 1379.76,1097.5 1381.92,1097.55 1384.09,1097.59 1386.25,1097.63 1388.41,1097.67 1390.57,1097.71 1392.74,1097.75 1394.9,1097.79 1397.06,1097.82 1399.22,1097.86 1401.38,1097.9 1403.55,1097.94 1405.71,1097.98 1407.87,1098.01 1410.03,1098.05 1412.2,1098.08 1414.36,1098.12 1416.52,1098.16 1418.68,1098.19 1420.84,1098.22 1423.01,1098.26 1425.17,1098.29 1427.33,1098.33 1429.49,1098.36 1431.65,1098.39 1433.82,1098.43 1435.98,1098.46 1438.14,1098.49 1440.3,1098.52 1442.47,1098.55 1444.63,1098.58 1446.79,1098.62 1448.95,1098.65 1451.11,1098.68 1453.28,1098.71 1455.44,1098.74 1457.6,1098.76 1459.76,1098.79 1461.93,1098.82 1464.09,1098.85 1466.25,1098.88 1468.41,1098.91 1470.57,1098.93 1472.74,1098.96 1474.9,1098.99 1477.06,1099.02 1479.22,1099.04 1481.39,1099.07 1483.55,1099.09 1485.71,1099.12 1487.87,1099.15 1490.03,1099.17 1492.2,1099.2 1494.36,1099.22 1496.52,1099.24 1498.68,1099.27 1500.85,1099.29 1503.01,1099.32 1505.17,1099.34 1507.33,1099.36 1509.49,1099.39 1511.66,1099.41 1513.82,1099.43 1515.98,1099.45 1518.14,1099.48 1520.31,1099.5 1522.47,1099.52 1524.63,1099.54 1526.79,1099.56 1528.95,1099.58 1531.12,1099.6 1533.28,1099.63 1535.44,1099.65 1537.6,1099.67 1539.77,1099.69 1541.93,1099.71 1544.09,1099.73 1546.25,1099.74 1548.41,1099.76 1550.58,1099.78 1552.74,1099.8 1554.9,1099.82 1557.06,1099.84 1559.23,1099.86 1561.39,1099.88 1563.55,1099.89 1565.71,1099.91 1567.87,1099.93 1570.04,1099.95 1572.2,1099.96 1574.36,1099.98 1576.52,1100 1578.69,1100.01 1580.85,1100.03 1583.01,1100.05 1585.17,1100.06 1587.33,1100.08 1589.5,1100.09 1591.66,1100.11 1593.82,1100.13 1595.98,1100.14 1598.14,1100.16 1600.31,1100.17 1602.47,1100.19 1604.63,1100.2 1606.79,1100.21 1608.96,1100.23 1611.12,1100.24 1613.28,1100.26 1615.44,1100.27 1617.6,1100.29 1619.77,1100.3 1621.93,1100.31 1624.09,1100.33 1626.25,1100.34 1628.42,1100.35 1630.58,1100.37 1632.74,1100.38 1634.9,1100.39 1637.06,1100.4 1639.23,1100.42 1641.39,1100.43 1643.55,1100.44 1645.71,1100.45 1647.88,1100.47 1650.04,1100.48 1652.2,1100.49 1654.36,1100.5 1656.52,1100.51 1658.69,1100.53 1660.85,1100.54 1663.01,1100.55 1665.17,1100.56 1667.34,1100.57 1669.5,1100.58 1671.66,1100.59 1673.82,1100.6 1675.98,1100.61 1678.15,1100.62 1680.31,1100.64 1682.47,1100.65 1684.63,1100.66 1686.8,1100.67 1688.96,1100.68 1691.12,1100.69 1693.28,1100.7 1695.44,1100.71 1697.61,1100.72 1699.77,1100.73 1701.93,1100.73 1704.09,1100.74 1706.26,1100.75 1708.42,1100.76 1710.58,1100.77 1712.74,1100.78 1714.9,1100.79 1717.07,1100.8 1719.23,1100.81 1721.39,1100.82 1723.55,1100.82 1725.72,1100.83 1727.88,1100.84 1730.04,1100.85 1732.2,1100.86 1734.36,1100.87 1736.53,1100.87 1738.69,1100.88 1740.85,1100.89 1743.01,1100.9 1745.18,1100.91 1747.34,1100.91 1749.5,1100.92 1751.66,1100.93 1753.82,1100.94 1755.99,1100.94 1758.15,1100.95 1760.31,1100.96 1762.47,1100.96 1764.64,1100.97 1766.8,1100.98 1768.96,1100.99 1771.12,1100.99 1773.28,1101 1775.45,1101.01 1777.61,1101.01 1779.77,1101.02 1781.93,1101.03 1784.09,1101.03 1786.26,1101.04 1788.42,1101.04 1790.58,1101.05 1792.74,1101.06 1794.91,1101.06 1797.07,1101.07 1799.23,1101.08 1801.39,1101.08 1803.55,1101.09 1805.72,1101.09 1807.88,1101.1 1810.04,1101.1 1812.2,1101.11 1814.37,1101.12 1816.53,1101.12 1818.69,1101.13 1820.85,1101.13 1823.01,1101.14 1825.18,1101.14 1827.34,1101.15 1829.5,1101.15 1831.66,1101.16 1833.83,1101.16 1835.99,1101.17 1838.15,1101.17 1840.31,1101.18 1842.47,1101.18 1844.64,1101.19 1846.8,1101.19 1848.96,1101.2 1851.12,1101.2 1853.29,1101.21 1855.45,1101.21 1857.61,1101.22 1859.77,1101.22 1861.93,1101.22 1864.1,1101.23 1866.26,1101.23 1868.42,1101.24 1870.58,1101.24 1872.75,1101.25 1874.91,1101.25 1877.07,1101.25 1879.23,1101.26 1881.39,1101.26 1883.56,1101.27 1885.72,1101.27 1887.88,1101.28 1890.04,1101.28 1892.21,1101.28 1894.37,1101.29 1896.53,1101.29 1898.69,1101.29 1900.85,1101.3 1903.02,1101.3 1905.18,1101.31 1907.34,1101.31 1909.5,1101.31 1911.67,1101.32 1913.83,1101.32 1915.99,1101.32 1918.15,1101.33 1920.31,1101.33 1922.48,1101.33 1924.64,1101.34 1926.8,1101.34 1928.96,1101.34 1931.13,1101.35 1933.29,1101.35 1935.45,1101.35 1937.61,1101.36 1939.77,1101.36 1941.94,1101.36 1944.1,1101.37 1946.26,1101.37 1948.42,1101.37 1950.59,1101.38 1952.75,1101.38 1954.91,1101.38 1957.07,1101.38 1959.23,1101.39 1961.4,1101.39 1963.56,1101.39 1965.72,1101.4 1967.88,1101.4 1970.04,1101.4 1972.21,1101.4 1974.37,1101.41 1976.53,1101.41 1978.69,1101.41 1980.86,1101.42 1983.02,1101.42 1985.18,1101.42 1987.34,1101.42 1989.5,1101.43 1991.67,1101.43 1993.83,1101.43 1995.99,1101.43 1998.15,1101.44 2000.32,1101.44 2002.48,1101.44 2004.64,1101.44 2006.8,1101.44 2008.96,1101.45 2011.13,1101.45 2013.29,1101.45 2015.45,1101.45 2017.61,1101.46 2019.78,1101.46 2021.94,1101.46 2024.1,1101.46 2026.26,1101.46 2028.42,1101.47 2030.59,1101.47 2032.75,1101.47 2034.91,1101.47 2037.07,1101.47 2039.24,1101.48 2041.4,1101.48 2043.56,1101.48 2045.72,1101.48 2047.88,1101.48 2050.05,1101.49 2052.21,1101.49 2054.37,1101.49 2056.53,1101.49 2058.7,1101.49 2060.86,1101.5 2063.02,1101.5 2065.18,1101.5 2067.34,1101.5 2069.51,1101.5 2071.67,1101.5 2073.83,1101.51 2075.99,1101.51 2078.16,1101.51 2080.32,1101.51 2082.48,1101.51 2084.64,1101.51 2086.8,1101.51 2088.97,1101.52 2091.13,1101.52 2093.29,1101.52 2095.45,1101.52 2097.62,1101.52 2099.78,1101.52 2101.94,1101.53 2104.1,1101.53 2106.26,1101.53 2108.43,1101.53 2110.59,1101.53 2112.75,1101.53 2114.91,1101.53 2117.08,1101.54 2119.24,1101.54 2121.4,1101.54 2123.56,1101.54 2125.72,1101.54 2127.89,1101.54 2130.05,1101.54 2132.21,1101.54 2134.37,1101.55 2136.54,1101.55 2138.7,1101.55 2140.86,1101.55 2143.02,1101.55 2145.18,1101.55 2147.35,1101.55 2149.51,1101.55 2151.67,1101.55 2153.83,1101.56 2155.99,1101.56 2158.16,1101.56 2160.32,1101.56 2162.48,1101.56 2164.64,1101.56 2166.81,1101.56 2168.97,1101.56 2171.13,1101.56 2173.29,1101.57 2175.45,1101.57 2177.62,1101.57 2179.78,1101.57 2181.94,1101.57 2184.1,1101.57 2186.27,1101.57 2188.43,1101.57 2190.59,1101.57 2192.75,1101.58 2194.91,1101.58 2197.08,1101.58 2199.24,1101.58 2201.4,1101.58 2203.56,1101.58 2205.73,1101.58 2207.89,1101.58 2210.05,1101.58 2212.21,1101.58 2214.37,1101.58 2216.54,1101.59 2218.7,1101.59 2220.86,1101.59 2223.02,1101.59 2225.19,1101.59 2227.35,1101.59 2229.51,1101.59 2231.67,1101.59 2233.83,1101.59 2236,1101.59 2238.16,1101.59 2240.32,1101.59 2242.48,1101.6 2244.65,1101.6 2246.81,1101.6 2248.97,1101.6 2251.13,1101.6 2253.29,1101.6 2255.46,1101.6 2257.62,1101.6 2259.78,1101.6 2261.94,1101.6 2264.11,1101.6 2266.27,1101.6 2268.43,1101.6 2270.59,1101.6 2272.75,1101.61 2274.92,1101.61 2277.08,1101.61 2279.24,1101.61 2281.4,1101.61 2283.57,1101.61 2285.73,1101.61 2287.89,1101.61 2290.05,1101.61 2292.21,1101.61 2294.38,1101.61 2296.54,1101.61 2298.7,1101.61 2300.86,1101.61 2303.03,1101.61 2305.19,1101.61 2307.35,1101.62 2309.51,1101.62 2311.67,1101.62 2313.84,1101.62 2316,1101.62 2318.16,1101.62 2320.32,1101.62 2322.48,1101.62 2324.65,1101.62 2326.81,1101.62 2328.97,1101.62 2331.13,1101.62 2333.3,1101.62 2335.46,1101.62 2337.62,1101.62 2339.78,1101.62 2341.94,1101.62 2344.11,1101.62 2346.27,1101.62 2348.43,1101.63 2350.59,1101.63 2352.76,1101.63 "/>
<polyline clip-path="url(#clip942)" style="stroke:#e26f46; stroke-linecap:round; stroke-linejoin:round; stroke-width:4; stroke-opacity:1; fill:none" points="192.709,1122.47 194.871,1128.18 197.034,1133.79 199.196,1139.31 201.358,1144.74 203.52,1150.08 205.682,1155.34 207.845,1160.5 210.007,1165.59 212.169,1170.58 214.331,1175.5 216.493,1180.33 218.656,1185.08 220.818,1189.75 222.98,1194.34 225.142,1198.85 227.304,1203.28 229.467,1207.64 231.629,1211.92 233.791,1216.13 235.953,1220.26 238.116,1224.33 240.278,1228.31 242.44,1232.23 244.602,1236.08 246.764,1239.86 248.927,1243.57 251.089,1247.21 253.251,1250.79 255.413,1254.3 257.575,1257.75 259.738,1261.13 261.9,1264.45 264.062,1267.71 266.224,1270.9 268.386,1274.03 270.549,1277.11 272.711,1280.12 274.873,1283.08 277.035,1285.98 279.198,1288.82 281.36,1291.6 283.522,1294.33 285.684,1297.01 287.846,1299.63 290.009,1302.19 292.171,1304.71 294.333,1307.17 296.495,1309.58 298.657,1311.94 300.82,1314.25 302.982,1316.51 305.144,1318.72 307.306,1320.89 309.468,1323 311.631,1325.07 313.793,1327.1 315.955,1329.07 318.117,1331.01 320.279,1332.9 322.442,1334.74 324.604,1336.54 326.766,1338.3 328.928,1340.02 331.091,1341.69 333.253,1343.33 335.415,1344.92 337.577,1346.47 339.739,1347.99 341.902,1349.46 344.064,1350.9 346.226,1352.3 348.388,1353.66 350.55,1354.99 352.713,1356.28 354.875,1357.53 357.037,1358.75 359.199,1359.94 361.361,1361.09 363.524,1362.2 365.686,1363.29 367.848,1364.34 370.01,1365.36 372.172,1366.34 374.335,1367.3 376.497,1368.22 378.659,1369.11 380.821,1369.98 382.984,1370.81 385.146,1371.61 387.308,1372.39 389.47,1373.14 391.632,1373.85 393.795,1374.55 395.957,1375.21 398.119,1375.85 400.281,1376.46 402.443,1377.04 404.606,1377.6 406.768,1378.13 408.93,1378.64 411.092,1379.12 413.254,1379.58 415.417,1380.02 417.579,1380.43 419.741,1380.82 421.903,1381.19 424.066,1381.53 426.228,1381.85 428.39,1382.15 430.552,1382.43 432.714,1382.68 434.877,1382.92 437.039,1383.14 439.201,1383.33 441.363,1383.51 443.525,1383.66 445.688,1383.8 447.85,1383.92 450.012,1384.01 452.174,1384.1 454.336,1384.16 456.499,1384.2 458.661,1384.23 460.823,1384.24 462.985,1384.23 465.147,1384.21 467.31,1384.17 469.472,1384.11 471.634,1384.04 473.796,1383.95 475.959,1383.85 478.121,1383.73 480.283,1383.59 482.445,1383.44 484.607,1383.28 486.77,1383.1 488.932,1382.91 491.094,1382.71 493.256,1382.49 495.418,1382.26 497.581,1382.01 499.743,1381.76 501.905,1381.49 504.067,1381.2 506.229,1380.91 508.392,1380.6 510.554,1380.28 512.716,1379.95 514.878,1379.61 517.04,1379.26 519.203,1378.89 521.365,1378.52 523.527,1378.14 525.689,1377.74 527.852,1377.33 530.014,1376.92 532.176,1376.49 534.338,1376.06 536.5,1375.61 538.663,1375.16 540.825,1374.7 542.987,1374.23 545.149,1373.74 547.311,1373.26 549.474,1372.76 551.636,1372.25 553.798,1371.74 555.96,1371.22 558.122,1370.69 560.285,1370.15 562.447,1369.6 564.609,1369.05 566.771,1368.49 568.934,1367.93 571.096,1367.35 573.258,1366.77 575.42,1366.19 577.582,1365.6 579.745,1365 581.907,1364.39 584.069,1363.78 586.231,1363.16 588.393,1362.54 590.556,1361.91 592.718,1361.28 594.88,1360.64 597.042,1359.99 599.204,1359.34 601.367,1358.69 603.529,1358.03 605.691,1357.36 607.853,1356.69 610.015,1356.02 612.178,1355.34 614.34,1354.66 616.502,1353.97 618.664,1353.28 620.827,1352.58 622.989,1351.88 625.151,1351.18 627.313,1350.47 629.475,1349.76 631.638,1349.05 633.8,1348.33 635.962,1347.61 638.124,1346.89 640.286,1346.16 642.449,1345.43 644.611,1344.7 646.773,1343.96 648.935,1343.22 651.097,1342.48 653.26,1341.74 655.422,1340.99 657.584,1340.24 659.746,1339.49 661.908,1338.74 664.071,1337.98 666.233,1337.22 668.395,1336.46 670.557,1335.7 672.72,1334.94 674.882,1334.17 677.044,1333.41 679.206,1332.64 681.368,1331.87 683.531,1331.1 685.693,1330.32 687.855,1329.55 690.017,1328.77 692.179,1328 694.342,1327.22 696.504,1326.44 698.666,1325.66 700.828,1324.88 702.99,1324.1 705.153,1323.32 707.315,1322.53 709.477,1321.75 711.639,1320.96 713.802,1320.18 715.964,1319.39 718.126,1318.6 720.288,1317.82 722.45,1317.03 724.613,1316.24 726.775,1315.45 728.937,1314.67 731.099,1313.88 733.261,1313.09 735.424,1312.3 737.586,1311.51 739.748,1310.72 741.91,1309.93 744.072,1309.15 746.235,1308.36 748.397,1307.57 750.559,1306.78 752.721,1305.99 754.883,1305.21 757.046,1304.42 759.208,1303.63 761.37,1302.85 763.532,1302.06 765.695,1301.27 767.857,1300.49 770.019,1299.71 772.181,1298.92 774.343,1298.14 776.506,1297.36 778.668,1296.58 780.83,1295.8 782.992,1295.02 785.154,1294.24 787.317,1293.46 789.479,1292.68 791.641,1291.91 793.803,1291.13 795.965,1290.36 798.128,1289.59 800.29,1288.81 802.452,1288.04 804.614,1287.27 806.776,1286.51 808.939,1285.74 811.101,1284.97 813.263,1284.21 815.425,1283.44 817.588,1282.68 819.75,1281.92 821.912,1281.16 824.074,1280.4 826.236,1279.65 828.399,1278.89 830.561,1278.14 832.723,1277.39 834.885,1276.64 837.047,1275.89 839.21,1275.14 841.372,1274.39 843.534,1273.65 845.696,1272.9 847.858,1272.16 850.021,1271.42 852.183,1270.68 854.345,1269.95 856.507,1269.21 858.67,1268.48 860.832,1267.75 862.994,1267.02 865.156,1266.29 867.318,1265.56 869.481,1264.84 871.643,1264.11 873.805,1263.39 875.967,1262.67 878.129,1261.96 880.292,1261.24 882.454,1260.53 884.616,1259.81 886.778,1259.1 888.94,1258.4 891.103,1257.69 893.265,1256.98 895.427,1256.28 897.589,1255.58 899.751,1254.88 901.914,1254.19 904.076,1253.49 906.238,1252.8 908.4,1252.11 910.563,1251.42 912.725,1250.73 914.887,1250.05 917.049,1249.36 919.211,1248.68 921.374,1248 923.536,1247.33 925.698,1246.65 927.86,1245.98 930.022,1245.31 932.185,1244.64 934.347,1243.98 936.509,1243.31 938.671,1242.65 940.833,1241.99 942.996,1241.33 945.158,1240.68 947.32,1240.02 949.482,1239.37 951.644,1238.72 953.807,1238.08 955.969,1237.43 958.131,1236.79 960.293,1236.15 962.456,1235.51 964.618,1234.87 966.78,1234.24 968.942,1233.61 971.104,1232.98 973.267,1232.35 975.429,1231.73 977.591,1231.1 979.753,1230.48 981.915,1229.86 984.078,1229.25 986.24,1228.63 988.402,1228.02 990.564,1227.41 992.726,1226.8 994.889,1226.2 997.051,1225.59 999.213,1224.99 1001.38,1224.39 1003.54,1223.8 1005.7,1223.2 1007.86,1222.61 1010.02,1222.02 1012.19,1221.43 1014.35,1220.84 1016.51,1220.26 1018.67,1219.68 1020.84,1219.1 1023,1218.52 1025.16,1217.95 1027.32,1217.38 1029.48,1216.8 1031.65,1216.24 1033.81,1215.67 1035.97,1215.11 1038.13,1214.54 1040.3,1213.98 1042.46,1213.43 1044.62,1212.87 1046.78,1212.32 1048.94,1211.77 1051.11,1211.22 1053.27,1210.67 1055.43,1210.13 1057.59,1209.59 1059.75,1209.05 1061.92,1208.51 1064.08,1207.97 1066.24,1207.44 1068.4,1206.91 1070.57,1206.38 1072.73,1205.85 1074.89,1205.33 1077.05,1204.8 1079.21,1204.28 1081.38,1203.77 1083.54,1203.25 1085.7,1202.74 1087.86,1202.22 1090.03,1201.71 1092.19,1201.21 1094.35,1200.7 1096.51,1200.2 1098.67,1199.7 1100.84,1199.2 1103,1198.7 1105.16,1198.21 1107.32,1197.71 1109.49,1197.22 1111.65,1196.73 1113.81,1196.25 1115.97,1195.76 1118.13,1195.28 1120.3,1194.8 1122.46,1194.32 1124.62,1193.85 1126.78,1193.37 1128.95,1192.9 1131.11,1192.43 1133.27,1191.96 1135.43,1191.5 1137.59,1191.04 1139.76,1190.57 1141.92,1190.11 1144.08,1189.66 1146.24,1189.2 1148.41,1188.75 1150.57,1188.3 1152.73,1187.85 1154.89,1187.4 1157.05,1186.95 1159.22,1186.51 1161.38,1186.07 1163.54,1185.63 1165.7,1185.19 1167.87,1184.76 1170.03,1184.32 1172.19,1183.89 1174.35,1183.46 1176.51,1183.03 1178.68,1182.61 1180.84,1182.18 1183,1181.76 1185.16,1181.34 1187.33,1180.92 1189.49,1180.51 1191.65,1180.09 1193.81,1179.68 1195.97,1179.27 1198.14,1178.86 1200.3,1178.45 1202.46,1178.05 1204.62,1177.64 1206.79,1177.24 1208.95,1176.84 1211.11,1176.45 1213.27,1176.05 1215.43,1175.66 1217.6,1175.27 1219.76,1174.88 1221.92,1174.49 1224.08,1174.1 1226.25,1173.72 1228.41,1173.33 1230.57,1172.95 1232.73,1172.57 1234.89,1172.2 1237.06,1171.82 1239.22,1171.45 1241.38,1171.08 1243.54,1170.7 1245.7,1170.34 1247.87,1169.97 1250.03,1169.6 1252.19,1169.24 1254.35,1168.88 1256.52,1168.52 1258.68,1168.16 1260.84,1167.81 1263,1167.45 1265.16,1167.1 1267.33,1166.75 1269.49,1166.4 1271.65,1166.05 1273.81,1165.71 1275.98,1165.36 1278.14,1165.02 1280.3,1164.68 1282.46,1164.34 1284.62,1164 1286.79,1163.66 1288.95,1163.33 1291.11,1163 1293.27,1162.67 1295.44,1162.34 1297.6,1162.01 1299.76,1161.68 1301.92,1161.36 1304.08,1161.04 1306.25,1160.71 1308.41,1160.39 1310.57,1160.08 1312.73,1159.76 1314.9,1159.44 1317.06,1159.13 1319.22,1158.82 1321.38,1158.51 1323.54,1158.2 1325.71,1157.89 1327.87,1157.59 1330.03,1157.28 1332.19,1156.98 1334.36,1156.68 1336.52,1156.38 1338.68,1156.08 1340.84,1155.78 1343,1155.49 1345.17,1155.19 1347.33,1154.9 1349.49,1154.61 1351.65,1154.32 1353.82,1154.03 1355.98,1153.75 1358.14,1153.46 1360.3,1153.18 1362.46,1152.89 1364.63,1152.61 1366.79,1152.33 1368.95,1152.06 1371.11,1151.78 1373.28,1151.5 1375.44,1151.23 1377.6,1150.96 1379.76,1150.69 1381.92,1150.42 1384.09,1150.15 1386.25,1149.88 1388.41,1149.62 1390.57,1149.35 1392.74,1149.09 1394.9,1148.83 1397.06,1148.57 1399.22,1148.31 1401.38,1148.05 1403.55,1147.8 1405.71,1147.54 1407.87,1147.29 1410.03,1147.04 1412.2,1146.78 1414.36,1146.53 1416.52,1146.29 1418.68,1146.04 1420.84,1145.79 1423.01,1145.55 1425.17,1145.31 1427.33,1145.06 1429.49,1144.82 1431.65,1144.58 1433.82,1144.35 1435.98,1144.11 1438.14,1143.87 1440.3,1143.64 1442.47,1143.41 1444.63,1143.17 1446.79,1142.94 1448.95,1142.71 1451.11,1142.49 1453.28,1142.26 1455.44,1142.03 1457.6,1141.81 1459.76,1141.58 1461.93,1141.36 1464.09,1141.14 1466.25,1140.92 1468.41,1140.7 1470.57,1140.48 1472.74,1140.27 1474.9,1140.05 1477.06,1139.84 1479.22,1139.62 1481.39,1139.41 1483.55,1139.2 1485.71,1138.99 1487.87,1138.78 1490.03,1138.57 1492.2,1138.37 1494.36,1138.16 1496.52,1137.96 1498.68,1137.75 1500.85,1137.55 1503.01,1137.35 1505.17,1137.15 1507.33,1136.95 1509.49,1136.75 1511.66,1136.56 1513.82,1136.36 1515.98,1136.17 1518.14,1135.97 1520.31,1135.78 1522.47,1135.59 1524.63,1135.4 1526.79,1135.21 1528.95,1135.02 1531.12,1134.83 1533.28,1134.64 1535.44,1134.46 1537.6,1134.27 1539.77,1134.09 1541.93,1133.91 1544.09,1133.73 1546.25,1133.55 1548.41,1133.37 1550.58,1133.19 1552.74,1133.01 1554.9,1132.83 1557.06,1132.66 1559.23,1132.48 1561.39,1132.31 1563.55,1132.13 1565.71,1131.96 1567.87,1131.79 1570.04,1131.62 1572.2,1131.45 1574.36,1131.28 1576.52,1131.11 1578.69,1130.95 1580.85,1130.78 1583.01,1130.62 1585.17,1130.45 1587.33,1130.29 1589.5,1130.13 1591.66,1129.97 1593.82,1129.81 1595.98,1129.65 1598.14,1129.49 1600.31,1129.33 1602.47,1129.17 1604.63,1129.02 1606.79,1128.86 1608.96,1128.71 1611.12,1128.55 1613.28,1128.4 1615.44,1128.25 1617.6,1128.1 1619.77,1127.95 1621.93,1127.8 1624.09,1127.65 1626.25,1127.5 1628.42,1127.35 1630.58,1127.21 1632.74,1127.06 1634.9,1126.92 1637.06,1126.77 1639.23,1126.63 1641.39,1126.49 1643.55,1126.35 1645.71,1126.21 1647.88,1126.07 1650.04,1125.93 1652.2,1125.79 1654.36,1125.65 1656.52,1125.51 1658.69,1125.38 1660.85,1125.24 1663.01,1125.11 1665.17,1124.97 1667.34,1124.84 1669.5,1124.71 1671.66,1124.58 1673.82,1124.45 1675.98,1124.32 1678.15,1124.19 1680.31,1124.06 1682.47,1123.93 1684.63,1123.8 1686.8,1123.68 1688.96,1123.55 1691.12,1123.42 1693.28,1123.3 1695.44,1123.18 1697.61,1123.05 1699.77,1122.93 1701.93,1122.81 1704.09,1122.69 1706.26,1122.57 1708.42,1122.45 1710.58,1122.33 1712.74,1122.21 1714.9,1122.09 1717.07,1121.97 1719.23,1121.86 1721.39,1121.74 1723.55,1121.63 1725.72,1121.51 1727.88,1121.4 1730.04,1121.28 1732.2,1121.17 1734.36,1121.06 1736.53,1120.95 1738.69,1120.84 1740.85,1120.73 1743.01,1120.62 1745.18,1120.51 1747.34,1120.4 1749.5,1120.29 1751.66,1120.19 1753.82,1120.08 1755.99,1119.97 1758.15,1119.87 1760.31,1119.76 1762.47,1119.66 1764.64,1119.55 1766.8,1119.45 1768.96,1119.35 1771.12,1119.25 1773.28,1119.15 1775.45,1119.05 1777.61,1118.95 1779.77,1118.85 1781.93,1118.75 1784.09,1118.65 1786.26,1118.55 1788.42,1118.45 1790.58,1118.36 1792.74,1118.26 1794.91,1118.16 1797.07,1118.07 1799.23,1117.97 1801.39,1117.88 1803.55,1117.79 1805.72,1117.69 1807.88,1117.6 1810.04,1117.51 1812.2,1117.42 1814.37,1117.33 1816.53,1117.23 1818.69,1117.14 1820.85,1117.06 1823.01,1116.97 1825.18,1116.88 1827.34,1116.79 1829.5,1116.7 1831.66,1116.62 1833.83,1116.53 1835.99,1116.44 1838.15,1116.36 1840.31,1116.27 1842.47,1116.19 1844.64,1116.1 1846.8,1116.02 1848.96,1115.94 1851.12,1115.85 1853.29,1115.77 1855.45,1115.69 1857.61,1115.61 1859.77,1115.53 1861.93,1115.45 1864.1,1115.37 1866.26,1115.29 1868.42,1115.21 1870.58,1115.13 1872.75,1115.05 1874.91,1114.97 1877.07,1114.9 1879.23,1114.82 1881.39,1114.74 1883.56,1114.67 1885.72,1114.59 1887.88,1114.52 1890.04,1114.44 1892.21,1114.37 1894.37,1114.29 1896.53,1114.22 1898.69,1114.15 1900.85,1114.08 1903.02,1114 1905.18,1113.93 1907.34,1113.86 1909.5,1113.79 1911.67,1113.72 1913.83,1113.65 1915.99,1113.58 1918.15,1113.51 1920.31,1113.44 1922.48,1113.37 1924.64,1113.3 1926.8,1113.24 1928.96,1113.17 1931.13,1113.1 1933.29,1113.04 1935.45,1112.97 1937.61,1112.9 1939.77,1112.84 1941.94,1112.77 1944.1,1112.71 1946.26,1112.64 1948.42,1112.58 1950.59,1112.52 1952.75,1112.45 1954.91,1112.39 1957.07,1112.33 1959.23,1112.27 1961.4,1112.2 1963.56,1112.14 1965.72,1112.08 1967.88,1112.02 1970.04,1111.96 1972.21,1111.9 1974.37,1111.84 1976.53,1111.78 1978.69,1111.72 1980.86,1111.66 1983.02,1111.61 1985.18,1111.55 1987.34,1111.49 1989.5,1111.43 1991.67,1111.38 1993.83,1111.32 1995.99,1111.26 1998.15,1111.21 2000.32,1111.15 2002.48,1111.1 2004.64,1111.04 2006.8,1110.99 2008.96,1110.93 2011.13,1110.88 2013.29,1110.82 2015.45,1110.77 2017.61,1110.72 2019.78,1110.66 2021.94,1110.61 2024.1,1110.56 2026.26,1110.51 2028.42,1110.45 2030.59,1110.4 2032.75,1110.35 2034.91,1110.3 2037.07,1110.25 2039.24,1110.2 2041.4,1110.15 2043.56,1110.1 2045.72,1110.05 2047.88,1110 2050.05,1109.95 2052.21,1109.91 2054.37,1109.86 2056.53,1109.81 2058.7,1109.76 2060.86,1109.71 2063.02,1109.67 2065.18,1109.62 2067.34,1109.57 2069.51,1109.53 2071.67,1109.48 2073.83,1109.44 2075.99,1109.39 2078.16,1109.34 2080.32,1109.3 2082.48,1109.25 2084.64,1109.21 2086.8,1109.17 2088.97,1109.12 2091.13,1109.08 2093.29,1109.03 2095.45,1108.99 2097.62,1108.95 2099.78,1108.91 2101.94,1108.86 2104.1,1108.82 2106.26,1108.78 2108.43,1108.74 2110.59,1108.7 2112.75,1108.66 2114.91,1108.61 2117.08,1108.57 2119.24,1108.53 2121.4,1108.49 2123.56,1108.45 2125.72,1108.41 2127.89,1108.37 2130.05,1108.33 2132.21,1108.29 2134.37,1108.26 2136.54,1108.22 2138.7,1108.18 2140.86,1108.14 2143.02,1108.1 2145.18,1108.06 2147.35,1108.03 2149.51,1107.99 2151.67,1107.95 2153.83,1107.92 2155.99,1107.88 2158.16,1107.84 2160.32,1107.81 2162.48,1107.77 2164.64,1107.73 2166.81,1107.7 2168.97,1107.66 2171.13,1107.63 2173.29,1107.59 2175.45,1107.56 2177.62,1107.52 2179.78,1107.49 2181.94,1107.45 2184.1,1107.42 2186.27,1107.39 2188.43,1107.35 2190.59,1107.32 2192.75,1107.29 2194.91,1107.25 2197.08,1107.22 2199.24,1107.19 2201.4,1107.15 2203.56,1107.12 2205.73,1107.09 2207.89,1107.06 2210.05,1107.03 2212.21,1107 2214.37,1106.96 2216.54,1106.93 2218.7,1106.9 2220.86,1106.87 2223.02,1106.84 2225.19,1106.81 2227.35,1106.78 2229.51,1106.75 2231.67,1106.72 2233.83,1106.69 2236,1106.66 2238.16,1106.63 2240.32,1106.6 2242.48,1106.57 2244.65,1106.54 2246.81,1106.51 2248.97,1106.49 2251.13,1106.46 2253.29,1106.43 2255.46,1106.4 2257.62,1106.37 2259.78,1106.35 2261.94,1106.32 2264.11,1106.29 2266.27,1106.26 2268.43,1106.24 2270.59,1106.21 2272.75,1106.18 2274.92,1106.16 2277.08,1106.13 2279.24,1106.1 2281.4,1106.08 2283.57,1106.05 2285.73,1106.03 2287.89,1106 2290.05,1105.97 2292.21,1105.95 2294.38,1105.92 2296.54,1105.9 2298.7,1105.87 2300.86,1105.85 2303.03,1105.82 2305.19,1105.8 2307.35,1105.78 2309.51,1105.75 2311.67,1105.73 2313.84,1105.7 2316,1105.68 2318.16,1105.66 2320.32,1105.63 2322.48,1105.61 2324.65,1105.59 2326.81,1105.56 2328.97,1105.54 2331.13,1105.52 2333.3,1105.49 2335.46,1105.47 2337.62,1105.45 2339.78,1105.43 2341.94,1105.4 2344.11,1105.38 2346.27,1105.36 2348.43,1105.34 2350.59,1105.32 2352.76,1105.3 "/>
<path clip-path="url(#clip940)" d="M1805.35 248.629 L2280.75 248.629 L2280.75 93.1086 L1805.35 93.1086  Z" fill="#ffffff" fill-rule="evenodd" fill-opacity="1"/>
<polyline clip-path="url(#clip940)" style="stroke:#000000; stroke-linecap:round; stroke-linejoin:round; stroke-width:4; stroke-opacity:1; fill:none" points="1805.35,248.629 2280.75,248.629 2280.75,93.1086 1805.35,93.1086 1805.35,248.629 "/>
<polyline clip-path="url(#clip940)" style="stroke:#009af9; stroke-linecap:round; stroke-linejoin:round; stroke-width:4; stroke-opacity:1; fill:none" points="1829.35,144.949 1973.36,144.949 "/>
<path clip-path="url(#clip940)" d="M1997.36 136.303 L2001.87 136.303 L2009.97 158.062 L2018.07 136.303 L2022.59 136.303 L2012.87 162.229 L2007.08 162.229 L1997.36 136.303 Z" fill="#000000" fill-rule="nonzero" fill-opacity="1" /><path clip-path="url(#clip940)" d="M2029.88 158.293 L2037.52 158.293 L2037.52 131.928 L2029.21 133.595 L2029.21 129.335 L2037.47 127.669 L2042.15 127.669 L2042.15 158.293 L2049.79 158.293 L2049.79 162.229 L2029.88 162.229 L2029.88 158.293 Z" fill="#000000" fill-rule="nonzero" fill-opacity="1" /><path clip-path="url(#clip940)" d="M2067.89 145.585 L2067.89 152.807 L2076.01 152.807 L2076.01 155.006 L2067.89 155.006 L2067.89 162.229 L2065.46 162.229 L2065.46 155.006 L2057.33 155.006 L2057.33 152.807 L2065.46 152.807 L2065.46 145.585 L2067.89 145.585 Z" fill="#000000" fill-rule="nonzero" fill-opacity="1" /><path clip-path="url(#clip940)" d="M2100.18 137.067 L2100.18 141.094 Q2098.38 140.169 2096.43 139.706 Q2094.49 139.243 2092.4 139.243 Q2089.23 139.243 2087.63 140.215 Q2086.06 141.187 2086.06 143.131 Q2086.06 144.613 2087.19 145.469 Q2088.33 146.303 2091.75 147.067 L2093.21 147.391 Q2097.75 148.363 2099.65 150.145 Q2101.57 151.905 2101.57 155.076 Q2101.57 158.687 2098.7 160.793 Q2095.85 162.9 2090.85 162.9 Q2088.77 162.9 2086.5 162.483 Q2084.25 162.09 2081.75 161.28 L2081.75 156.881 Q2084.12 158.108 2086.41 158.733 Q2088.7 159.335 2090.94 159.335 Q2093.95 159.335 2095.57 158.317 Q2097.19 157.275 2097.19 155.4 Q2097.19 153.664 2096.01 152.738 Q2094.86 151.812 2090.9 150.956 L2089.42 150.608 Q2085.46 149.775 2083.7 148.062 Q2081.94 146.326 2081.94 143.317 Q2081.94 139.659 2084.53 137.669 Q2087.13 135.678 2091.89 135.678 Q2094.25 135.678 2096.34 136.025 Q2098.42 136.372 2100.18 137.067 Z" fill="#000000" fill-rule="nonzero" fill-opacity="1" /><path clip-path="url(#clip940)" d="M2112.56 128.942 L2112.56 136.303 L2121.34 136.303 L2121.34 139.613 L2112.56 139.613 L2112.56 153.687 Q2112.56 156.858 2113.42 157.761 Q2114.3 158.664 2116.96 158.664 L2121.34 158.664 L2121.34 162.229 L2116.96 162.229 Q2112.03 162.229 2110.16 160.4 Q2108.28 158.548 2108.28 153.687 L2108.28 139.613 L2105.16 139.613 L2105.16 136.303 L2108.28 136.303 L2108.28 128.942 L2112.56 128.942 Z" fill="#000000" fill-rule="nonzero" fill-opacity="1" /><path clip-path="url(#clip940)" d="M2136.99 139.289 Q2133.56 139.289 2131.57 141.974 Q2129.58 144.636 2129.58 149.289 Q2129.58 153.942 2131.55 156.627 Q2133.54 159.289 2136.99 159.289 Q2140.39 159.289 2142.38 156.604 Q2144.37 153.918 2144.37 149.289 Q2144.37 144.682 2142.38 141.997 Q2140.39 139.289 2136.99 139.289 M2136.99 135.678 Q2142.54 135.678 2145.71 139.289 Q2148.88 142.9 2148.88 149.289 Q2148.88 155.655 2145.71 159.289 Q2142.54 162.9 2136.99 162.9 Q2131.41 162.9 2128.24 159.289 Q2125.09 155.655 2125.09 149.289 Q2125.09 142.9 2128.24 139.289 Q2131.41 135.678 2136.99 135.678 Z" fill="#000000" fill-rule="nonzero" fill-opacity="1" /><path clip-path="url(#clip940)" d="M2170.97 140.284 Q2170.25 139.868 2169.39 139.682 Q2168.56 139.474 2167.54 139.474 Q2163.93 139.474 2161.99 141.835 Q2160.06 144.173 2160.06 148.571 L2160.06 162.229 L2155.78 162.229 L2155.78 136.303 L2160.06 136.303 L2160.06 140.331 Q2161.41 137.969 2163.56 136.835 Q2165.71 135.678 2168.79 135.678 Q2169.23 135.678 2169.76 135.747 Q2170.3 135.794 2170.94 135.909 L2170.97 140.284 Z" fill="#000000" fill-rule="nonzero" fill-opacity="1" /><path clip-path="url(#clip940)" d="M2187.22 149.196 Q2182.06 149.196 2180.06 150.377 Q2178.07 151.557 2178.07 154.405 Q2178.07 156.673 2179.56 158.016 Q2181.06 159.335 2183.63 159.335 Q2187.17 159.335 2189.3 156.835 Q2191.45 154.312 2191.45 150.145 L2191.45 149.196 L2187.22 149.196 M2195.71 147.437 L2195.71 162.229 L2191.45 162.229 L2191.45 158.293 Q2189.99 160.655 2187.82 161.789 Q2185.64 162.9 2182.49 162.9 Q2178.51 162.9 2176.15 160.678 Q2173.81 158.432 2173.81 154.682 Q2173.81 150.307 2176.73 148.085 Q2179.67 145.863 2185.48 145.863 L2191.45 145.863 L2191.45 145.446 Q2191.45 142.507 2189.51 140.909 Q2187.59 139.289 2184.09 139.289 Q2181.87 139.289 2179.76 139.821 Q2177.66 140.354 2175.71 141.419 L2175.71 137.483 Q2178.05 136.581 2180.25 136.141 Q2182.45 135.678 2184.53 135.678 Q2190.16 135.678 2192.93 138.594 Q2195.71 141.511 2195.71 147.437 Z" fill="#000000" fill-rule="nonzero" fill-opacity="1" /><path clip-path="url(#clip940)" d="M2221.55 148.965 Q2221.55 144.335 2219.62 141.789 Q2217.73 139.243 2214.28 139.243 Q2210.85 139.243 2208.93 141.789 Q2207.03 144.335 2207.03 148.965 Q2207.03 153.571 2208.93 156.118 Q2210.85 158.664 2214.28 158.664 Q2217.73 158.664 2219.62 156.118 Q2221.55 153.571 2221.55 148.965 M2225.8 159.011 Q2225.8 165.631 2222.87 168.849 Q2219.93 172.09 2213.86 172.09 Q2211.62 172.09 2209.62 171.742 Q2207.63 171.418 2205.76 170.724 L2205.76 166.58 Q2207.63 167.599 2209.46 168.085 Q2211.29 168.571 2213.19 168.571 Q2217.38 168.571 2219.46 166.372 Q2221.55 164.196 2221.55 159.775 L2221.55 157.668 Q2220.23 159.96 2218.17 161.094 Q2216.11 162.229 2213.24 162.229 Q2208.47 162.229 2205.55 158.594 Q2202.63 154.96 2202.63 148.965 Q2202.63 142.946 2205.55 139.312 Q2208.47 135.678 2213.24 135.678 Q2216.11 135.678 2218.17 136.812 Q2220.23 137.946 2221.55 140.238 L2221.55 136.303 L2225.8 136.303 L2225.8 159.011 Z" fill="#000000" fill-rule="nonzero" fill-opacity="1" /><path clip-path="url(#clip940)" d="M2256.75 148.201 L2256.75 150.284 L2237.17 150.284 Q2237.45 154.682 2239.81 156.997 Q2242.19 159.289 2246.43 159.289 Q2248.88 159.289 2251.18 158.687 Q2253.49 158.085 2255.76 156.881 L2255.76 160.909 Q2253.47 161.881 2251.06 162.391 Q2248.65 162.9 2246.18 162.9 Q2239.97 162.9 2236.34 159.289 Q2232.73 155.678 2232.73 149.52 Q2232.73 143.155 2236.15 139.428 Q2239.6 135.678 2245.43 135.678 Q2250.67 135.678 2253.7 139.057 Q2256.75 142.414 2256.75 148.201 M2252.49 146.951 Q2252.45 143.456 2250.53 141.372 Q2248.63 139.289 2245.48 139.289 Q2241.92 139.289 2239.76 141.303 Q2237.63 143.317 2237.31 146.974 L2252.49 146.951 Z" fill="#000000" fill-rule="nonzero" fill-opacity="1" /><polyline clip-path="url(#clip940)" style="stroke:#e26f46; stroke-linecap:round; stroke-linejoin:round; stroke-width:4; stroke-opacity:1; fill:none" points="1829.35,196.789 1973.36,196.789 "/>
<path clip-path="url(#clip940)" d="M1997.36 188.143 L2001.87 188.143 L2009.97 209.902 L2018.07 188.143 L2022.59 188.143 L2012.87 214.069 L2007.08 214.069 L1997.36 188.143 Z" fill="#000000" fill-rule="nonzero" fill-opacity="1" /><path clip-path="url(#clip940)" d="M2029.12 179.509 L2047.47 179.509 L2047.47 183.444 L2033.4 183.444 L2033.4 191.916 Q2034.42 191.569 2035.44 191.407 Q2036.45 191.222 2037.47 191.222 Q2043.26 191.222 2046.64 194.393 Q2050.02 197.564 2050.02 202.981 Q2050.02 208.559 2046.55 211.661 Q2043.07 214.74 2036.76 214.74 Q2034.58 214.74 2032.31 214.37 Q2030.07 213.999 2027.66 213.258 L2027.66 208.559 Q2029.74 209.694 2031.96 210.249 Q2034.19 210.805 2036.66 210.805 Q2040.67 210.805 2043 208.698 Q2045.34 206.592 2045.34 202.981 Q2045.34 199.37 2043 197.263 Q2040.67 195.157 2036.66 195.157 Q2034.79 195.157 2032.91 195.573 Q2031.06 195.99 2029.12 196.87 L2029.12 179.509 Z" fill="#000000" fill-rule="nonzero" fill-opacity="1" /><path clip-path="url(#clip940)" d="M2067.89 197.425 L2067.89 204.647 L2076.01 204.647 L2076.01 206.846 L2067.89 206.846 L2067.89 214.069 L2065.46 214.069 L2065.46 206.846 L2057.33 206.846 L2057.33 204.647 L2065.46 204.647 L2065.46 197.425 L2067.89 197.425 Z" fill="#000000" fill-rule="nonzero" fill-opacity="1" /><path clip-path="url(#clip940)" d="M2100.18 188.907 L2100.18 192.934 Q2098.38 192.009 2096.43 191.546 Q2094.49 191.083 2092.4 191.083 Q2089.23 191.083 2087.63 192.055 Q2086.06 193.027 2086.06 194.971 Q2086.06 196.453 2087.19 197.309 Q2088.33 198.143 2091.75 198.907 L2093.21 199.231 Q2097.75 200.203 2099.65 201.985 Q2101.57 203.745 2101.57 206.916 Q2101.57 210.527 2098.7 212.633 Q2095.85 214.74 2090.85 214.74 Q2088.77 214.74 2086.5 214.323 Q2084.25 213.93 2081.75 213.12 L2081.75 208.721 Q2084.12 209.948 2086.41 210.573 Q2088.7 211.175 2090.94 211.175 Q2093.95 211.175 2095.57 210.157 Q2097.19 209.115 2097.19 207.24 Q2097.19 205.504 2096.01 204.578 Q2094.86 203.652 2090.9 202.796 L2089.42 202.448 Q2085.46 201.615 2083.7 199.902 Q2081.94 198.166 2081.94 195.157 Q2081.94 191.499 2084.53 189.509 Q2087.13 187.518 2091.89 187.518 Q2094.25 187.518 2096.34 187.865 Q2098.42 188.212 2100.18 188.907 Z" fill="#000000" fill-rule="nonzero" fill-opacity="1" /><path clip-path="url(#clip940)" d="M2112.56 180.782 L2112.56 188.143 L2121.34 188.143 L2121.34 191.453 L2112.56 191.453 L2112.56 205.527 Q2112.56 208.698 2113.42 209.601 Q2114.3 210.504 2116.96 210.504 L2121.34 210.504 L2121.34 214.069 L2116.96 214.069 Q2112.03 214.069 2110.16 212.24 Q2108.28 210.388 2108.28 205.527 L2108.28 191.453 L2105.16 191.453 L2105.16 188.143 L2108.28 188.143 L2108.28 180.782 L2112.56 180.782 Z" fill="#000000" fill-rule="nonzero" fill-opacity="1" /><path clip-path="url(#clip940)" d="M2136.99 191.129 Q2133.56 191.129 2131.57 193.814 Q2129.58 196.476 2129.58 201.129 Q2129.58 205.782 2131.55 208.467 Q2133.54 211.129 2136.99 211.129 Q2140.39 211.129 2142.38 208.444 Q2144.37 205.758 2144.37 201.129 Q2144.37 196.522 2142.38 193.837 Q2140.39 191.129 2136.99 191.129 M2136.99 187.518 Q2142.54 187.518 2145.71 191.129 Q2148.88 194.74 2148.88 201.129 Q2148.88 207.495 2145.71 211.129 Q2142.54 214.74 2136.99 214.74 Q2131.41 214.74 2128.24 211.129 Q2125.09 207.495 2125.09 201.129 Q2125.09 194.74 2128.24 191.129 Q2131.41 187.518 2136.99 187.518 Z" fill="#000000" fill-rule="nonzero" fill-opacity="1" /><path clip-path="url(#clip940)" d="M2170.97 192.124 Q2170.25 191.708 2169.39 191.522 Q2168.56 191.314 2167.54 191.314 Q2163.93 191.314 2161.99 193.675 Q2160.06 196.013 2160.06 200.411 L2160.06 214.069 L2155.78 214.069 L2155.78 188.143 L2160.06 188.143 L2160.06 192.171 Q2161.41 189.809 2163.56 188.675 Q2165.71 187.518 2168.79 187.518 Q2169.23 187.518 2169.76 187.587 Q2170.3 187.634 2170.94 187.749 L2170.97 192.124 Z" fill="#000000" fill-rule="nonzero" fill-opacity="1" /><path clip-path="url(#clip940)" d="M2187.22 201.036 Q2182.06 201.036 2180.06 202.217 Q2178.07 203.397 2178.07 206.245 Q2178.07 208.513 2179.56 209.856 Q2181.06 211.175 2183.63 211.175 Q2187.17 211.175 2189.3 208.675 Q2191.45 206.152 2191.45 201.985 L2191.45 201.036 L2187.22 201.036 M2195.71 199.277 L2195.71 214.069 L2191.45 214.069 L2191.45 210.133 Q2189.99 212.495 2187.82 213.629 Q2185.64 214.74 2182.49 214.74 Q2178.51 214.74 2176.15 212.518 Q2173.81 210.272 2173.81 206.522 Q2173.81 202.147 2176.73 199.925 Q2179.67 197.703 2185.48 197.703 L2191.45 197.703 L2191.45 197.286 Q2191.45 194.347 2189.51 192.749 Q2187.59 191.129 2184.09 191.129 Q2181.87 191.129 2179.76 191.661 Q2177.66 192.194 2175.71 193.259 L2175.71 189.323 Q2178.05 188.421 2180.25 187.981 Q2182.45 187.518 2184.53 187.518 Q2190.16 187.518 2192.93 190.434 Q2195.71 193.351 2195.71 199.277 Z" fill="#000000" fill-rule="nonzero" fill-opacity="1" /><path clip-path="url(#clip940)" d="M2221.55 200.805 Q2221.55 196.175 2219.62 193.629 Q2217.73 191.083 2214.28 191.083 Q2210.85 191.083 2208.93 193.629 Q2207.03 196.175 2207.03 200.805 Q2207.03 205.411 2208.93 207.958 Q2210.85 210.504 2214.28 210.504 Q2217.73 210.504 2219.62 207.958 Q2221.55 205.411 2221.55 200.805 M2225.8 210.851 Q2225.8 217.471 2222.87 220.689 Q2219.93 223.93 2213.86 223.93 Q2211.62 223.93 2209.62 223.582 Q2207.63 223.258 2205.76 222.564 L2205.76 218.42 Q2207.63 219.439 2209.46 219.925 Q2211.29 220.411 2213.19 220.411 Q2217.38 220.411 2219.46 218.212 Q2221.55 216.036 2221.55 211.615 L2221.55 209.508 Q2220.23 211.8 2218.17 212.934 Q2216.11 214.069 2213.24 214.069 Q2208.47 214.069 2205.55 210.434 Q2202.63 206.8 2202.63 200.805 Q2202.63 194.786 2205.55 191.152 Q2208.47 187.518 2213.24 187.518 Q2216.11 187.518 2218.17 188.652 Q2220.23 189.786 2221.55 192.078 L2221.55 188.143 L2225.8 188.143 L2225.8 210.851 Z" fill="#000000" fill-rule="nonzero" fill-opacity="1" /><path clip-path="url(#clip940)" d="M2256.75 200.041 L2256.75 202.124 L2237.17 202.124 Q2237.45 206.522 2239.81 208.837 Q2242.19 211.129 2246.43 211.129 Q2248.88 211.129 2251.18 210.527 Q2253.49 209.925 2255.76 208.721 L2255.76 212.749 Q2253.47 213.721 2251.06 214.231 Q2248.65 214.74 2246.18 214.74 Q2239.97 214.74 2236.34 211.129 Q2232.73 207.518 2232.73 201.36 Q2232.73 194.995 2236.15 191.268 Q2239.6 187.518 2245.43 187.518 Q2250.67 187.518 2253.7 190.897 Q2256.75 194.254 2256.75 200.041 M2252.49 198.791 Q2252.45 195.296 2250.53 193.212 Q2248.63 191.129 2245.48 191.129 Q2241.92 191.129 2239.76 193.143 Q2237.63 195.157 2237.31 198.814 L2252.49 198.791 Z" fill="#000000" fill-rule="nonzero" fill-opacity="1" /></svg>
