<?xml version="1.0" encoding="utf-8"?>
<svg xmlns="http://www.w3.org/2000/svg" xmlns:xlink="http://www.w3.org/1999/xlink" width="600" height="400" viewBox="0 0 2400 1600">
<defs>
  <clipPath id="clip780">
    <rect x="0" y="0" width="2400" height="1600"/>
  </clipPath>
</defs>
<path clip-path="url(#clip780)" d="M0 1600 L2400 1600 L2400 0 L0 0  Z" fill="#ffffff" fill-rule="evenodd" fill-opacity="1"/>
<defs>
  <clipPath id="clip781">
    <rect x="480" y="0" width="1681" height="1600"/>
  </clipPath>
</defs>
<path clip-path="url(#clip780)" d="M223.103 1423.18 L2352.76 1423.18 L2352.76 47.2441 L223.103 47.2441  Z" fill="#ffffff" fill-rule="evenodd" fill-opacity="1"/>
<defs>
  <clipPath id="clip782">
    <rect x="223" y="47" width="2131" height="1377"/>
  </clipPath>
</defs>
<polyline clip-path="url(#clip782)" style="stroke:#000000; stroke-linecap:round; stroke-linejoin:round; stroke-width:2; stroke-opacity:0.1; fill:none" points="223.103,1423.18 223.103,47.2441 "/>
<polyline clip-path="url(#clip782)" style="stroke:#000000; stroke-linecap:round; stroke-linejoin:round; stroke-width:2; stroke-opacity:0.1; fill:none" points="755.516,1423.18 755.516,47.2441 "/>
<polyline clip-path="url(#clip782)" style="stroke:#000000; stroke-linecap:round; stroke-linejoin:round; stroke-width:2; stroke-opacity:0.1; fill:none" points="1287.93,1423.18 1287.93,47.2441 "/>
<polyline clip-path="url(#clip782)" style="stroke:#000000; stroke-linecap:round; stroke-linejoin:round; stroke-width:2; stroke-opacity:0.1; fill:none" points="1820.34,1423.18 1820.34,47.2441 "/>
<polyline clip-path="url(#clip782)" style="stroke:#000000; stroke-linecap:round; stroke-linejoin:round; stroke-width:2; stroke-opacity:0.1; fill:none" points="2352.76,1423.18 2352.76,47.2441 "/>
<polyline clip-path="url(#clip782)" style="stroke:#000000; stroke-linecap:round; stroke-linejoin:round; stroke-width:2; stroke-opacity:0.1; fill:none" points="223.103,1194.42 2352.76,1194.42 "/>
<polyline clip-path="url(#clip782)" style="stroke:#000000; stroke-linecap:round; stroke-linejoin:round; stroke-width:2; stroke-opacity:0.1; fill:none" points="223.103,964.842 2352.76,964.842 "/>
<polyline clip-path="url(#clip782)" style="stroke:#000000; stroke-linecap:round; stroke-linejoin:round; stroke-width:2; stroke-opacity:0.1; fill:none" points="223.103,735.264 2352.76,735.264 "/>
<polyline clip-path="url(#clip782)" style="stroke:#000000; stroke-linecap:round; stroke-linejoin:round; stroke-width:2; stroke-opacity:0.1; fill:none" points="223.103,505.687 2352.76,505.687 "/>
<polyline clip-path="url(#clip782)" style="stroke:#000000; stroke-linecap:round; stroke-linejoin:round; stroke-width:2; stroke-opacity:0.1; fill:none" points="223.103,276.109 2352.76,276.109 "/>
<polyline clip-path="url(#clip780)" style="stroke:#000000; stroke-linecap:round; stroke-linejoin:round; stroke-width:4; stroke-opacity:1; fill:none" points="223.103,1423.18 2352.76,1423.18 "/>
<polyline clip-path="url(#clip780)" style="stroke:#000000; stroke-linecap:round; stroke-linejoin:round; stroke-width:4; stroke-opacity:1; fill:none" points="223.103,1423.18 223.103,1404.28 "/>
<polyline clip-path="url(#clip780)" style="stroke:#000000; stroke-linecap:round; stroke-linejoin:round; stroke-width:4; stroke-opacity:1; fill:none" points="755.516,1423.18 755.516,1404.28 "/>
<polyline clip-path="url(#clip780)" style="stroke:#000000; stroke-linecap:round; stroke-linejoin:round; stroke-width:4; stroke-opacity:1; fill:none" points="1287.93,1423.18 1287.93,1404.28 "/>
<polyline clip-path="url(#clip780)" style="stroke:#000000; stroke-linecap:round; stroke-linejoin:round; stroke-width:4; stroke-opacity:1; fill:none" points="1820.34,1423.18 1820.34,1404.28 "/>
<polyline clip-path="url(#clip780)" style="stroke:#000000; stroke-linecap:round; stroke-linejoin:round; stroke-width:4; stroke-opacity:1; fill:none" points="2352.76,1423.18 2352.76,1404.28 "/>
<path clip-path="url(#clip780)" d="M200.487 1454.1 Q196.876 1454.1 195.047 1457.66 Q193.242 1461.2 193.242 1468.33 Q193.242 1475.44 195.047 1479.01 Q196.876 1482.55 200.487 1482.55 Q204.121 1482.55 205.927 1479.01 Q207.755 1475.44 207.755 1468.33 Q207.755 1461.2 205.927 1457.66 Q204.121 1454.1 200.487 1454.1 M200.487 1450.39 Q206.297 1450.39 209.353 1455 Q212.431 1459.58 212.431 1468.33 Q212.431 1477.06 209.353 1481.67 Q206.297 1486.25 200.487 1486.25 Q194.677 1486.25 191.598 1481.67 Q188.543 1477.06 188.543 1468.33 Q188.543 1459.58 191.598 1455 Q194.677 1450.39 200.487 1450.39 Z" fill="#000000" fill-rule="nonzero" fill-opacity="1" /><path clip-path="url(#clip780)" d="M220.649 1479.7 L225.533 1479.7 L225.533 1485.58 L220.649 1485.58 L220.649 1479.7 Z" fill="#000000" fill-rule="nonzero" fill-opacity="1" /><path clip-path="url(#clip780)" d="M245.718 1454.1 Q242.107 1454.1 240.278 1457.66 Q238.473 1461.2 238.473 1468.33 Q238.473 1475.44 240.278 1479.01 Q242.107 1482.55 245.718 1482.55 Q249.352 1482.55 251.158 1479.01 Q252.987 1475.44 252.987 1468.33 Q252.987 1461.2 251.158 1457.66 Q249.352 1454.1 245.718 1454.1 M245.718 1450.39 Q251.528 1450.39 254.584 1455 Q257.663 1459.58 257.663 1468.33 Q257.663 1477.06 254.584 1481.67 Q251.528 1486.25 245.718 1486.25 Q239.908 1486.25 236.829 1481.67 Q233.774 1477.06 233.774 1468.33 Q233.774 1459.58 236.829 1455 Q239.908 1450.39 245.718 1450.39 Z" fill="#000000" fill-rule="nonzero" fill-opacity="1" /><path clip-path="url(#clip780)" d="M733.398 1454.1 Q729.787 1454.1 727.958 1457.66 Q726.153 1461.2 726.153 1468.33 Q726.153 1475.44 727.958 1479.01 Q729.787 1482.55 733.398 1482.55 Q737.032 1482.55 738.838 1479.01 Q740.666 1475.44 740.666 1468.33 Q740.666 1461.2 738.838 1457.66 Q737.032 1454.1 733.398 1454.1 M733.398 1450.39 Q739.208 1450.39 742.264 1455 Q745.342 1459.58 745.342 1468.33 Q745.342 1477.06 742.264 1481.67 Q739.208 1486.25 733.398 1486.25 Q727.588 1486.25 724.509 1481.67 Q721.454 1477.06 721.454 1468.33 Q721.454 1459.58 724.509 1455 Q727.588 1450.39 733.398 1450.39 Z" fill="#000000" fill-rule="nonzero" fill-opacity="1" /><path clip-path="url(#clip780)" d="M753.56 1479.7 L758.444 1479.7 L758.444 1485.58 L753.56 1485.58 L753.56 1479.7 Z" fill="#000000" fill-rule="nonzero" fill-opacity="1" /><path clip-path="url(#clip780)" d="M768.676 1451.02 L787.032 1451.02 L787.032 1454.96 L772.958 1454.96 L772.958 1463.43 Q773.976 1463.08 774.995 1462.92 Q776.013 1462.73 777.032 1462.73 Q782.819 1462.73 786.199 1465.9 Q789.578 1469.08 789.578 1474.49 Q789.578 1480.07 786.106 1483.17 Q782.634 1486.25 776.314 1486.25 Q774.138 1486.25 771.87 1485.88 Q769.625 1485.51 767.217 1484.77 L767.217 1480.07 Q769.301 1481.2 771.523 1481.76 Q773.745 1482.32 776.222 1482.32 Q780.226 1482.32 782.564 1480.21 Q784.902 1478.1 784.902 1474.49 Q784.902 1470.88 782.564 1468.77 Q780.226 1466.67 776.222 1466.67 Q774.347 1466.67 772.472 1467.08 Q770.62 1467.5 768.676 1468.38 L768.676 1451.02 Z" fill="#000000" fill-rule="nonzero" fill-opacity="1" /><path clip-path="url(#clip780)" d="M1255.08 1481.64 L1262.72 1481.64 L1262.72 1455.28 L1254.41 1456.95 L1254.41 1452.69 L1262.67 1451.02 L1267.35 1451.02 L1267.35 1481.64 L1274.99 1481.64 L1274.99 1485.58 L1255.08 1485.58 L1255.08 1481.64 Z" fill="#000000" fill-rule="nonzero" fill-opacity="1" /><path clip-path="url(#clip780)" d="M1284.43 1479.7 L1289.32 1479.7 L1289.32 1485.58 L1284.43 1485.58 L1284.43 1479.7 Z" fill="#000000" fill-rule="nonzero" fill-opacity="1" /><path clip-path="url(#clip780)" d="M1309.5 1454.1 Q1305.89 1454.1 1304.06 1457.66 Q1302.26 1461.2 1302.26 1468.33 Q1302.26 1475.44 1304.06 1479.01 Q1305.89 1482.55 1309.5 1482.55 Q1313.14 1482.55 1314.94 1479.01 Q1316.77 1475.44 1316.77 1468.33 Q1316.77 1461.2 1314.94 1457.66 Q1313.14 1454.1 1309.5 1454.1 M1309.5 1450.39 Q1315.31 1450.39 1318.37 1455 Q1321.45 1459.58 1321.45 1468.33 Q1321.45 1477.06 1318.37 1481.67 Q1315.31 1486.25 1309.5 1486.25 Q1303.69 1486.25 1300.61 1481.67 Q1297.56 1477.06 1297.56 1468.33 Q1297.56 1459.58 1300.61 1455 Q1303.69 1450.39 1309.5 1450.39 Z" fill="#000000" fill-rule="nonzero" fill-opacity="1" /><path clip-path="url(#clip780)" d="M1787.99 1481.64 L1795.63 1481.64 L1795.63 1455.28 L1787.32 1456.95 L1787.32 1452.69 L1795.59 1451.02 L1800.26 1451.02 L1800.26 1481.64 L1807.9 1481.64 L1807.9 1485.58 L1787.99 1485.58 L1787.99 1481.64 Z" fill="#000000" fill-rule="nonzero" fill-opacity="1" /><path clip-path="url(#clip780)" d="M1817.34 1479.7 L1822.23 1479.7 L1822.23 1485.58 L1817.34 1485.58 L1817.34 1479.7 Z" fill="#000000" fill-rule="nonzero" fill-opacity="1" /><path clip-path="url(#clip780)" d="M1832.46 1451.02 L1850.82 1451.02 L1850.82 1454.96 L1836.74 1454.96 L1836.74 1463.43 Q1837.76 1463.08 1838.78 1462.92 Q1839.8 1462.73 1840.82 1462.73 Q1846.6 1462.73 1849.98 1465.9 Q1853.36 1469.08 1853.36 1474.49 Q1853.36 1480.07 1849.89 1483.17 Q1846.42 1486.25 1840.1 1486.25 Q1837.92 1486.25 1835.65 1485.88 Q1833.41 1485.51 1831 1484.77 L1831 1480.07 Q1833.09 1481.2 1835.31 1481.76 Q1837.53 1482.32 1840.01 1482.32 Q1844.01 1482.32 1846.35 1480.21 Q1848.69 1478.1 1848.69 1474.49 Q1848.69 1470.88 1846.35 1468.77 Q1844.01 1466.67 1840.01 1466.67 Q1838.13 1466.67 1836.26 1467.08 Q1834.4 1467.5 1832.46 1468.38 L1832.46 1451.02 Z" fill="#000000" fill-rule="nonzero" fill-opacity="1" /><path clip-path="url(#clip780)" d="M2323.99 1481.64 L2340.31 1481.64 L2340.31 1485.58 L2318.37 1485.58 L2318.37 1481.64 Q2321.03 1478.89 2325.61 1474.26 Q2330.22 1469.61 2331.4 1468.27 Q2333.65 1465.74 2334.53 1464.01 Q2335.43 1462.25 2335.43 1460.56 Q2335.43 1457.8 2333.49 1456.07 Q2331.56 1454.33 2328.46 1454.33 Q2326.26 1454.33 2323.81 1455.09 Q2321.38 1455.86 2318.6 1457.41 L2318.6 1452.69 Q2321.43 1451.55 2323.88 1450.97 Q2326.33 1450.39 2328.37 1450.39 Q2333.74 1450.39 2336.93 1453.08 Q2340.13 1455.77 2340.13 1460.26 Q2340.13 1462.39 2339.32 1464.31 Q2338.53 1466.2 2336.42 1468.8 Q2335.85 1469.47 2332.74 1472.69 Q2329.64 1475.88 2323.99 1481.64 Z" fill="#000000" fill-rule="nonzero" fill-opacity="1" /><path clip-path="url(#clip780)" d="M2350.13 1479.7 L2355.01 1479.7 L2355.01 1485.58 L2350.13 1485.58 L2350.13 1479.7 Z" fill="#000000" fill-rule="nonzero" fill-opacity="1" /><path clip-path="url(#clip780)" d="M2375.2 1454.1 Q2371.59 1454.1 2369.76 1457.66 Q2367.95 1461.2 2367.95 1468.33 Q2367.95 1475.44 2369.76 1479.01 Q2371.59 1482.55 2375.2 1482.55 Q2378.83 1482.55 2380.64 1479.01 Q2382.47 1475.44 2382.47 1468.33 Q2382.47 1461.2 2380.64 1457.66 Q2378.83 1454.1 2375.2 1454.1 M2375.2 1450.39 Q2381.01 1450.39 2384.06 1455 Q2387.14 1459.58 2387.14 1468.33 Q2387.14 1477.06 2384.06 1481.67 Q2381.01 1486.25 2375.2 1486.25 Q2369.39 1486.25 2366.31 1481.67 Q2363.25 1477.06 2363.25 1468.33 Q2363.25 1459.58 2366.31 1455 Q2369.39 1450.39 2375.2 1450.39 Z" fill="#000000" fill-rule="nonzero" fill-opacity="1" /><path clip-path="url(#clip780)" d="M1286.99 1522.27 L1286.99 1532.4 L1299.05 1532.4 L1299.05 1536.95 L1286.99 1536.95 L1286.99 1556.3 Q1286.99 1560.66 1288.17 1561.9 Q1289.38 1563.14 1293.04 1563.14 L1299.05 1563.14 L1299.05 1568.04 L1293.04 1568.04 Q1286.26 1568.04 1283.68 1565.53 Q1281.1 1562.98 1281.1 1556.3 L1281.1 1536.95 L1276.81 1536.95 L1276.81 1532.4 L1281.1 1532.4 L1281.1 1522.27 L1286.99 1522.27 Z" fill="#000000" fill-rule="nonzero" fill-opacity="1" /><polyline clip-path="url(#clip780)" style="stroke:#000000; stroke-linecap:round; stroke-linejoin:round; stroke-width:4; stroke-opacity:1; fill:none" points="223.103,1423.18 223.103,47.2441 "/>
<polyline clip-path="url(#clip780)" style="stroke:#000000; stroke-linecap:round; stroke-linejoin:round; stroke-width:4; stroke-opacity:1; fill:none" points="223.103,1194.42 242,1194.42 "/>
<polyline clip-path="url(#clip780)" style="stroke:#000000; stroke-linecap:round; stroke-linejoin:round; stroke-width:4; stroke-opacity:1; fill:none" points="223.103,964.842 242,964.842 "/>
<polyline clip-path="url(#clip780)" style="stroke:#000000; stroke-linecap:round; stroke-linejoin:round; stroke-width:4; stroke-opacity:1; fill:none" points="223.103,735.264 242,735.264 "/>
<polyline clip-path="url(#clip780)" style="stroke:#000000; stroke-linecap:round; stroke-linejoin:round; stroke-width:4; stroke-opacity:1; fill:none" points="223.103,505.687 242,505.687 "/>
<polyline clip-path="url(#clip780)" style="stroke:#000000; stroke-linecap:round; stroke-linejoin:round; stroke-width:4; stroke-opacity:1; fill:none" points="223.103,276.109 242,276.109 "/>
<path clip-path="url(#clip780)" d="M50.9921 1194.87 L80.6679 1194.87 L80.6679 1198.81 L50.9921 1198.81 L50.9921 1194.87 Z" fill="#000000" fill-rule="nonzero" fill-opacity="1" /><path clip-path="url(#clip780)" d="M100.76 1180.22 Q97.1493 1180.22 95.3206 1183.78 Q93.515 1187.32 93.515 1194.45 Q93.515 1201.56 95.3206 1205.13 Q97.1493 1208.67 100.76 1208.67 Q104.395 1208.67 106.2 1205.13 Q108.029 1201.56 108.029 1194.45 Q108.029 1187.32 106.2 1183.78 Q104.395 1180.22 100.76 1180.22 M100.76 1176.51 Q106.571 1176.51 109.626 1181.12 Q112.705 1185.7 112.705 1194.45 Q112.705 1203.18 109.626 1207.79 Q106.571 1212.37 100.76 1212.37 Q94.9502 1212.37 91.8715 1207.79 Q88.816 1203.18 88.816 1194.45 Q88.816 1185.7 91.8715 1181.12 Q94.9502 1176.51 100.76 1176.51 Z" fill="#000000" fill-rule="nonzero" fill-opacity="1" /><path clip-path="url(#clip780)" d="M120.922 1205.82 L125.807 1205.82 L125.807 1211.7 L120.922 1211.7 L120.922 1205.82 Z" fill="#000000" fill-rule="nonzero" fill-opacity="1" /><path clip-path="url(#clip780)" d="M140.019 1207.76 L156.339 1207.76 L156.339 1211.7 L134.394 1211.7 L134.394 1207.76 Q137.056 1205.01 141.64 1200.38 Q146.246 1195.73 147.427 1194.38 Q149.672 1191.86 150.552 1190.13 Q151.455 1188.37 151.455 1186.68 Q151.455 1183.92 149.51 1182.19 Q147.589 1180.45 144.487 1180.45 Q142.288 1180.45 139.834 1181.21 Q137.404 1181.98 134.626 1183.53 L134.626 1178.81 Q137.45 1177.67 139.904 1177.09 Q142.357 1176.51 144.394 1176.51 Q149.765 1176.51 152.959 1179.2 Q156.154 1181.88 156.154 1186.38 Q156.154 1188.51 155.343 1190.43 Q154.556 1192.32 152.45 1194.92 Q151.871 1195.59 148.769 1198.81 Q145.668 1202 140.019 1207.76 Z" fill="#000000" fill-rule="nonzero" fill-opacity="1" /><path clip-path="url(#clip780)" d="M166.2 1177.14 L184.556 1177.14 L184.556 1181.07 L170.482 1181.07 L170.482 1189.55 Q171.501 1189.2 172.519 1189.04 Q173.538 1188.85 174.556 1188.85 Q180.343 1188.85 183.723 1192.02 Q187.103 1195.19 187.103 1200.61 Q187.103 1206.19 183.63 1209.29 Q180.158 1212.37 173.839 1212.37 Q171.663 1212.37 169.394 1212 Q167.149 1211.63 164.742 1210.89 L164.742 1206.19 Q166.825 1207.32 169.047 1207.88 Q171.269 1208.44 173.746 1208.44 Q177.751 1208.44 180.089 1206.33 Q182.427 1204.22 182.427 1200.61 Q182.427 1197 180.089 1194.89 Q177.751 1192.79 173.746 1192.79 Q171.871 1192.79 169.996 1193.2 Q168.144 1193.62 166.2 1194.5 L166.2 1177.14 Z" fill="#000000" fill-rule="nonzero" fill-opacity="1" /><path clip-path="url(#clip780)" d="M99.765 950.641 Q96.1539 950.641 94.3252 954.205 Q92.5197 957.747 92.5197 964.877 Q92.5197 971.983 94.3252 975.548 Q96.1539 979.089 99.765 979.089 Q103.399 979.089 105.205 975.548 Q107.033 971.983 107.033 964.877 Q107.033 957.747 105.205 954.205 Q103.399 950.641 99.765 950.641 M99.765 946.937 Q105.575 946.937 108.631 951.543 Q111.709 956.127 111.709 964.877 Q111.709 973.603 108.631 978.21 Q105.575 982.793 99.765 982.793 Q93.9549 982.793 90.8762 978.21 Q87.8206 973.603 87.8206 964.877 Q87.8206 956.127 90.8762 951.543 Q93.9549 946.937 99.765 946.937 Z" fill="#000000" fill-rule="nonzero" fill-opacity="1" /><path clip-path="url(#clip780)" d="M119.927 976.242 L124.811 976.242 L124.811 982.122 L119.927 982.122 L119.927 976.242 Z" fill="#000000" fill-rule="nonzero" fill-opacity="1" /><path clip-path="url(#clip780)" d="M144.996 950.641 Q141.385 950.641 139.556 954.205 Q137.751 957.747 137.751 964.877 Q137.751 971.983 139.556 975.548 Q141.385 979.089 144.996 979.089 Q148.63 979.089 150.436 975.548 Q152.265 971.983 152.265 964.877 Q152.265 957.747 150.436 954.205 Q148.63 950.641 144.996 950.641 M144.996 946.937 Q150.806 946.937 153.862 951.543 Q156.941 956.127 156.941 964.877 Q156.941 973.603 153.862 978.21 Q150.806 982.793 144.996 982.793 Q139.186 982.793 136.107 978.21 Q133.052 973.603 133.052 964.877 Q133.052 956.127 136.107 951.543 Q139.186 946.937 144.996 946.937 Z" fill="#000000" fill-rule="nonzero" fill-opacity="1" /><path clip-path="url(#clip780)" d="M175.158 950.641 Q171.547 950.641 169.718 954.205 Q167.913 957.747 167.913 964.877 Q167.913 971.983 169.718 975.548 Q171.547 979.089 175.158 979.089 Q178.792 979.089 180.598 975.548 Q182.427 971.983 182.427 964.877 Q182.427 957.747 180.598 954.205 Q178.792 950.641 175.158 950.641 M175.158 946.937 Q180.968 946.937 184.024 951.543 Q187.103 956.127 187.103 964.877 Q187.103 973.603 184.024 978.21 Q180.968 982.793 175.158 982.793 Q169.348 982.793 166.269 978.21 Q163.214 973.603 163.214 964.877 Q163.214 956.127 166.269 951.543 Q169.348 946.937 175.158 946.937 Z" fill="#000000" fill-rule="nonzero" fill-opacity="1" /><path clip-path="url(#clip780)" d="M100.76 721.063 Q97.1493 721.063 95.3206 724.628 Q93.515 728.169 93.515 735.299 Q93.515 742.405 95.3206 745.97 Q97.1493 749.512 100.76 749.512 Q104.395 749.512 106.2 745.97 Q108.029 742.405 108.029 735.299 Q108.029 728.169 106.2 724.628 Q104.395 721.063 100.76 721.063 M100.76 717.359 Q106.571 717.359 109.626 721.966 Q112.705 726.549 112.705 735.299 Q112.705 744.026 109.626 748.632 Q106.571 753.216 100.76 753.216 Q94.9502 753.216 91.8715 748.632 Q88.816 744.026 88.816 735.299 Q88.816 726.549 91.8715 721.966 Q94.9502 717.359 100.76 717.359 Z" fill="#000000" fill-rule="nonzero" fill-opacity="1" /><path clip-path="url(#clip780)" d="M120.922 746.665 L125.807 746.665 L125.807 752.544 L120.922 752.544 L120.922 746.665 Z" fill="#000000" fill-rule="nonzero" fill-opacity="1" /><path clip-path="url(#clip780)" d="M140.019 748.609 L156.339 748.609 L156.339 752.544 L134.394 752.544 L134.394 748.609 Q137.056 745.855 141.64 741.225 Q146.246 736.572 147.427 735.23 Q149.672 732.706 150.552 730.97 Q151.455 729.211 151.455 727.521 Q151.455 724.767 149.51 723.031 Q147.589 721.294 144.487 721.294 Q142.288 721.294 139.834 722.058 Q137.404 722.822 134.626 724.373 L134.626 719.651 Q137.45 718.517 139.904 717.938 Q142.357 717.359 144.394 717.359 Q149.765 717.359 152.959 720.044 Q156.154 722.73 156.154 727.22 Q156.154 729.35 155.343 731.271 Q154.556 733.169 152.45 735.762 Q151.871 736.433 148.769 739.651 Q145.668 742.845 140.019 748.609 Z" fill="#000000" fill-rule="nonzero" fill-opacity="1" /><path clip-path="url(#clip780)" d="M166.2 717.984 L184.556 717.984 L184.556 721.919 L170.482 721.919 L170.482 730.392 Q171.501 730.044 172.519 729.882 Q173.538 729.697 174.556 729.697 Q180.343 729.697 183.723 732.868 Q187.103 736.04 187.103 741.456 Q187.103 747.035 183.63 750.137 Q180.158 753.216 173.839 753.216 Q171.663 753.216 169.394 752.845 Q167.149 752.475 164.742 751.734 L164.742 747.035 Q166.825 748.169 169.047 748.725 Q171.269 749.28 173.746 749.28 Q177.751 749.28 180.089 747.174 Q182.427 745.067 182.427 741.456 Q182.427 737.845 180.089 735.739 Q177.751 733.632 173.746 733.632 Q171.871 733.632 169.996 734.049 Q168.144 734.466 166.2 735.345 L166.2 717.984 Z" fill="#000000" fill-rule="nonzero" fill-opacity="1" /><path clip-path="url(#clip780)" d="M99.765 491.485 Q96.1539 491.485 94.3252 495.05 Q92.5197 498.592 92.5197 505.721 Q92.5197 512.828 94.3252 516.393 Q96.1539 519.934 99.765 519.934 Q103.399 519.934 105.205 516.393 Q107.033 512.828 107.033 505.721 Q107.033 498.592 105.205 495.05 Q103.399 491.485 99.765 491.485 M99.765 487.782 Q105.575 487.782 108.631 492.388 Q111.709 496.972 111.709 505.721 Q111.709 514.448 108.631 519.055 Q105.575 523.638 99.765 523.638 Q93.9549 523.638 90.8762 519.055 Q87.8206 514.448 87.8206 505.721 Q87.8206 496.972 90.8762 492.388 Q93.9549 487.782 99.765 487.782 Z" fill="#000000" fill-rule="nonzero" fill-opacity="1" /><path clip-path="url(#clip780)" d="M119.927 517.087 L124.811 517.087 L124.811 522.967 L119.927 522.967 L119.927 517.087 Z" fill="#000000" fill-rule="nonzero" fill-opacity="1" /><path clip-path="url(#clip780)" d="M135.043 488.407 L153.399 488.407 L153.399 492.342 L139.325 492.342 L139.325 500.814 Q140.343 500.467 141.362 500.305 Q142.381 500.12 143.399 500.12 Q149.186 500.12 152.566 503.291 Q155.945 506.462 155.945 511.879 Q155.945 517.458 152.473 520.559 Q149.001 523.638 142.681 523.638 Q140.506 523.638 138.237 523.268 Q135.992 522.897 133.584 522.157 L133.584 517.458 Q135.668 518.592 137.89 519.147 Q140.112 519.703 142.589 519.703 Q146.593 519.703 148.931 517.596 Q151.269 515.49 151.269 511.879 Q151.269 508.268 148.931 506.161 Q146.593 504.055 142.589 504.055 Q140.714 504.055 138.839 504.471 Q136.987 504.888 135.043 505.768 L135.043 488.407 Z" fill="#000000" fill-rule="nonzero" fill-opacity="1" /><path clip-path="url(#clip780)" d="M175.158 491.485 Q171.547 491.485 169.718 495.05 Q167.913 498.592 167.913 505.721 Q167.913 512.828 169.718 516.393 Q171.547 519.934 175.158 519.934 Q178.792 519.934 180.598 516.393 Q182.427 512.828 182.427 505.721 Q182.427 498.592 180.598 495.05 Q178.792 491.485 175.158 491.485 M175.158 487.782 Q180.968 487.782 184.024 492.388 Q187.103 496.972 187.103 505.721 Q187.103 514.448 184.024 519.055 Q180.968 523.638 175.158 523.638 Q169.348 523.638 166.269 519.055 Q163.214 514.448 163.214 505.721 Q163.214 496.972 166.269 492.388 Q169.348 487.782 175.158 487.782 Z" fill="#000000" fill-rule="nonzero" fill-opacity="1" /><path clip-path="url(#clip780)" d="M100.76 261.908 Q97.1493 261.908 95.3206 265.473 Q93.515 269.014 93.515 276.144 Q93.515 283.25 95.3206 286.815 Q97.1493 290.357 100.76 290.357 Q104.395 290.357 106.2 286.815 Q108.029 283.25 108.029 276.144 Q108.029 269.014 106.2 265.473 Q104.395 261.908 100.76 261.908 M100.76 258.204 Q106.571 258.204 109.626 262.811 Q112.705 267.394 112.705 276.144 Q112.705 284.871 109.626 289.477 Q106.571 294.06 100.76 294.06 Q94.9502 294.06 91.8715 289.477 Q88.816 284.871 88.816 276.144 Q88.816 267.394 91.8715 262.811 Q94.9502 258.204 100.76 258.204 Z" fill="#000000" fill-rule="nonzero" fill-opacity="1" /><path clip-path="url(#clip780)" d="M120.922 287.51 L125.807 287.51 L125.807 293.389 L120.922 293.389 L120.922 287.51 Z" fill="#000000" fill-rule="nonzero" fill-opacity="1" /><path clip-path="url(#clip780)" d="M134.811 258.829 L157.033 258.829 L157.033 260.82 L144.487 293.389 L139.603 293.389 L151.408 262.764 L134.811 262.764 L134.811 258.829 Z" fill="#000000" fill-rule="nonzero" fill-opacity="1" /><path clip-path="url(#clip780)" d="M166.2 258.829 L184.556 258.829 L184.556 262.764 L170.482 262.764 L170.482 271.237 Q171.501 270.889 172.519 270.727 Q173.538 270.542 174.556 270.542 Q180.343 270.542 183.723 273.713 Q187.103 276.885 187.103 282.301 Q187.103 287.88 183.63 290.982 Q180.158 294.06 173.839 294.06 Q171.663 294.06 169.394 293.69 Q167.149 293.32 164.742 292.579 L164.742 287.88 Q166.825 289.014 169.047 289.57 Q171.269 290.125 173.746 290.125 Q177.751 290.125 180.089 288.019 Q182.427 285.912 182.427 282.301 Q182.427 278.69 180.089 276.584 Q177.751 274.477 173.746 274.477 Q171.871 274.477 169.996 274.894 Q168.144 275.311 166.2 276.19 L166.2 258.829 Z" fill="#000000" fill-rule="nonzero" fill-opacity="1" /><polyline clip-path="url(#clip782)" style="stroke:#009af9; stroke-linecap:round; stroke-linejoin:round; stroke-width:4; stroke-opacity:1; fill:none" points="223.103,1384.24 225.234,1383.04 227.366,1381.86 229.498,1380.69 231.63,1379.53 233.761,1378.39 235.893,1377.25 238.025,1376.13 240.157,1375.01 242.289,1373.91 244.42,1372.82 246.552,1371.74 248.684,1370.67 250.816,1369.61 252.948,1368.56 255.079,1367.52 257.211,1366.5 259.343,1365.48 261.475,1364.47 263.606,1363.47 265.738,1362.49 267.87,1361.51 270.002,1360.54 272.134,1359.58 274.265,1358.63 276.397,1357.7 278.529,1356.77 280.661,1355.85 282.792,1354.93 284.924,1354.03 287.056,1353.14 289.188,1352.25 291.32,1351.38 293.451,1350.51 295.583,1349.65 297.715,1348.8 299.847,1347.96 301.979,1347.13 304.11,1346.31 306.242,1345.49 308.374,1344.68 310.506,1343.88 312.637,1343.09 314.769,1342.3 316.901,1341.53 319.033,1340.76 321.165,1340 323.296,1339.24 325.428,1338.5 327.56,1337.76 329.692,1337.03 331.824,1336.31 333.955,1335.59 336.087,1334.88 338.219,1334.18 340.351,1333.48 342.482,1332.79 344.614,1332.11 346.746,1331.44 348.878,1330.77 351.01,1330.11 353.141,1329.45 355.273,1328.8 357.405,1328.16 359.537,1327.53 361.669,1326.9 363.8,1326.27 365.932,1325.66 368.064,1325.05 370.196,1324.44 372.327,1323.84 374.459,1323.25 376.591,1322.66 378.723,1322.08 380.855,1321.51 382.986,1320.94 385.118,1320.38 387.25,1319.82 389.382,1319.26 391.514,1318.72 393.645,1318.18 395.777,1317.64 397.909,1317.11 400.041,1316.58 402.172,1316.06 404.304,1315.55 406.436,1315.04 408.568,1314.53 410.7,1314.03 412.831,1313.54 414.963,1313.05 417.095,1312.56 419.227,1312.08 421.359,1311.61 423.49,1311.14 425.622,1310.67 427.754,1310.21 429.886,1309.75 432.017,1309.3 434.149,1308.85 436.281,1308.41 438.413,1307.97 440.545,1307.54 442.676,1307.11 444.808,1306.68 446.94,1306.26 449.072,1305.84 451.204,1305.43 453.335,1305.02 455.467,1304.61 457.599,1304.21 459.731,1303.82 461.862,1303.42 463.994,1303.03 466.126,1302.65 468.258,1302.27 470.39,1301.89 472.521,1301.52 474.653,1301.15 476.785,1300.78 478.917,1300.42 481.049,1300.06 483.18,1299.7 485.312,1299.35 487.444,1299 489.576,1298.66 491.707,1298.31 493.839,1297.98 495.971,1297.64 498.103,1297.31 500.235,1296.98 502.366,1296.66 504.498,1296.33 506.63,1296.02 508.762,1295.7 510.894,1295.39 513.025,1295.08 515.157,1294.77 517.289,1294.47 519.421,1294.17 521.552,1293.87 523.684,1293.58 525.816,1293.29 527.948,1293 530.08,1292.71 532.211,1292.43 534.343,1292.15 536.475,1291.87 538.607,1291.6 540.739,1291.33 542.87,1291.06 545.002,1290.79 547.134,1290.53 549.266,1290.27 551.397,1290.01 553.529,1289.76 555.661,1289.5 557.793,1289.25 559.925,1289 562.056,1288.76 564.188,1288.52 566.32,1288.27 568.452,1288.04 570.583,1287.8 572.715,1287.57 574.847,1287.34 576.979,1287.11 579.111,1286.88 581.242,1286.66 583.374,1286.43 585.506,1286.21 587.638,1286 589.77,1285.78 591.901,1285.57 594.033,1285.36 596.165,1285.15 598.297,1284.94 600.428,1284.73 602.56,1284.53 604.692,1284.33 606.824,1284.13 608.956,1283.93 611.087,1283.74 613.219,1283.55 615.351,1283.36 617.483,1283.17 619.615,1282.98 621.746,1282.79 623.878,1282.61 626.01,1282.43 628.142,1282.25 630.273,1282.07 632.405,1281.89 634.537,1281.72 636.669,1281.55 638.801,1281.37 640.932,1281.2 643.064,1281.04 645.196,1280.87 647.328,1280.71 649.46,1280.54 651.591,1280.38 653.723,1280.22 655.855,1280.06 657.987,1279.91 660.118,1279.75 662.25,1279.6 664.382,1279.45 666.514,1279.3 668.646,1279.15 670.777,1279 672.909,1278.85 675.041,1278.71 677.173,1278.57 679.305,1278.42 681.436,1278.28 683.568,1278.15 685.7,1278.01 687.832,1277.87 689.963,1277.74 692.095,1277.6 694.227,1277.47 696.359,1277.34 698.491,1277.21 700.622,1277.08 702.754,1276.96 704.886,1276.83 707.018,1276.71 709.15,1276.58 711.281,1276.46 713.413,1276.34 715.545,1276.22 717.677,1276.1 719.808,1275.99 721.94,1275.87 724.072,1275.76 726.204,1275.64 728.336,1275.53 730.467,1275.42 732.599,1275.31 734.731,1275.2 736.863,1275.09 738.995,1274.98 741.126,1274.88 743.258,1274.77 745.39,1274.67 747.522,1274.57 749.653,1274.47 751.785,1274.37 753.917,1274.27 756.049,1274.17 758.181,1274.07 760.312,1273.97 762.444,1273.88 764.576,1273.78 766.708,1273.69 768.84,1273.59 770.971,1273.5 773.103,1273.41 775.235,1273.32 777.367,1273.23 779.498,1273.14 781.63,1273.06 783.762,1272.97 785.894,1272.88 788.026,1272.8 790.157,1272.71 792.289,1272.63 794.421,1272.55 796.553,1272.47 798.685,1272.39 800.816,1272.31 802.948,1272.23 805.08,1272.15 807.212,1272.07 809.343,1271.99 811.475,1271.92 813.607,1271.84 815.739,1271.77 817.871,1271.69 820.002,1271.62 822.134,1271.55 824.266,1271.48 826.398,1271.41 828.529,1271.33 830.661,1271.27 832.793,1271.2 834.925,1271.13 837.057,1271.06 839.188,1270.99 841.32,1270.93 843.452,1270.86 845.584,1270.8 847.716,1270.73 849.847,1270.67 851.979,1270.61 854.111,1270.54 856.243,1270.48 858.374,1270.42 860.506,1270.36 862.638,1270.3 864.77,1270.24 866.902,1270.18 869.033,1270.12 871.165,1270.07 873.297,1270.01 875.429,1269.95 877.561,1269.9 879.692,1269.84 881.824,1269.79 883.956,1269.73 886.088,1269.68 888.219,1269.63 890.351,1269.58 892.483,1269.52 894.615,1269.47 896.747,1269.42 898.878,1269.37 901.01,1269.32 903.142,1269.27 905.274,1269.22 907.406,1269.17 909.537,1269.13 911.669,1269.08 913.801,1269.03 915.933,1268.98 918.064,1268.94 920.196,1268.89 922.328,1268.85 924.46,1268.8 926.592,1268.76 928.723,1268.71 930.855,1268.67 932.987,1268.63 935.119,1268.59 937.251,1268.54 939.382,1268.5 941.514,1268.46 943.646,1268.42 945.778,1268.38 947.909,1268.34 950.041,1268.3 952.173,1268.26 954.305,1268.22 956.437,1268.18 958.568,1268.14 960.7,1268.11 962.832,1268.07 964.964,1268.03 967.096,1267.99 969.227,1267.96 971.359,1267.92 973.491,1267.89 975.623,1267.85 977.754,1267.82 979.886,1267.78 982.018,1267.75 984.15,1267.71 986.282,1267.68 988.413,1267.65 990.545,1267.61 992.677,1267.58 994.809,1267.55 996.941,1267.52 999.072,1267.49 1001.2,1267.45 1003.34,1267.42 1005.47,1267.39 1007.6,1267.36 1009.73,1267.33 1011.86,1267.3 1013.99,1267.27 1016.13,1267.24 1018.26,1267.21 1020.39,1267.19 1022.52,1267.16 1024.65,1267.13 1026.79,1267.1 1028.92,1267.07 1031.05,1267.05 1033.18,1267.02 1035.31,1266.99 1037.44,1266.97 1039.58,1266.94 1041.71,1266.92 1043.84,1266.89 1045.97,1266.86 1048.1,1266.84 1050.24,1266.82 1052.37,1266.79 1054.5,1266.77 1056.63,1266.74 1058.76,1266.72 1060.89,1266.69 1063.03,1266.67 1065.16,1266.65 1067.29,1266.63 1069.42,1266.6 1071.55,1266.58 1073.68,1266.56 1075.82,1266.54 1077.95,1266.51 1080.08,1266.49 1082.21,1266.47 1084.34,1266.45 1086.48,1266.43 1088.61,1266.41 1090.74,1266.39 1092.87,1266.37 1095,1266.35 1097.13,1266.33 1099.27,1266.31 1101.4,1266.29 1103.53,1266.27 1105.66,1266.25 1107.79,1266.23 1109.93,1266.21 1112.06,1266.2 1114.19,1266.18 1116.32,1266.16 1118.45,1266.14 1120.58,1266.12 1122.72,1266.11 1124.85,1266.09 1126.98,1266.07 1129.11,1266.05 1131.24,1266.04 1133.37,1266.02 1135.51,1266 1137.64,1265.99 1139.77,1265.97 1141.9,1265.95 1144.03,1265.94 1146.17,1265.92 1148.3,1265.91 1150.43,1265.89 1152.56,1265.88 1154.69,1265.86 1156.82,1265.85 1158.96,1265.83 1161.09,1265.82 1163.22,1265.8 1165.35,1265.79 1167.48,1265.77 1169.62,1265.76 1171.75,1265.74 1173.88,1265.73 1176.01,1265.72 1178.14,1265.7 1180.27,1265.69 1182.41,1265.68 1184.54,1265.66 1186.67,1265.65 1188.8,1265.64 1190.93,1265.62 1193.06,1265.61 1195.2,1265.6 1197.33,1265.59 1199.46,1265.57 1201.59,1265.56 1203.72,1265.55 1205.86,1265.54 1207.99,1265.53 1210.12,1265.51 1212.25,1265.5 1214.38,1265.49 1216.51,1265.48 1218.65,1265.47 1220.78,1265.46 1222.91,1265.45 1225.04,1265.44 1227.17,1265.42 1229.31,1265.41 1231.44,1265.4 1233.57,1265.39 1235.7,1265.38 1237.83,1265.37 1239.96,1265.36 1242.1,1265.35 1244.23,1265.34 1246.36,1265.33 1248.49,1265.32 1250.62,1265.31 1252.75,1265.3 1254.89,1265.29 1257.02,1265.28 1259.15,1265.27 1261.28,1265.27 1263.41,1265.26 1265.55,1265.25 1267.68,1265.24 1269.81,1265.23 1271.94,1265.22 1274.07,1265.21 1276.2,1265.2 1278.34,1265.19 1280.47,1265.19 1282.6,1265.18 1284.73,1265.17 1286.86,1265.16 1289,1265.15 1291.13,1265.15 1293.26,1265.14 1295.39,1265.13 1297.52,1265.12 1299.65,1265.11 1301.79,1265.11 1303.92,1265.1 1306.05,1265.09 1308.18,1265.08 1310.31,1265.08 1312.44,1265.07 1314.58,1265.06 1316.71,1265.06 1318.84,1265.05 1320.97,1265.04 1323.1,1265.04 1325.24,1265.03 1327.37,1265.02 1329.5,1265.02 1331.63,1265.01 1333.76,1265 1335.89,1265 1338.03,1264.99 1340.16,1264.98 1342.29,1264.98 1344.42,1264.97 1346.55,1264.96 1348.69,1264.96 1350.82,1264.95 1352.95,1264.95 1355.08,1264.94 1357.21,1264.93 1359.34,1264.93 1361.48,1264.92 1363.61,1264.92 1365.74,1264.91 1367.87,1264.91 1370,1264.9 1372.13,1264.9 1374.27,1264.89 1376.4,1264.88 1378.53,1264.88 1380.66,1264.87 1382.79,1264.87 1384.93,1264.86 1387.06,1264.86 1389.19,1264.85 1391.32,1264.85 1393.45,1264.84 1395.58,1264.84 1397.72,1264.83 1399.85,1264.83 1401.98,1264.82 1404.11,1264.82 1406.24,1264.81 1408.38,1264.81 1410.51,1264.81 1412.64,1264.8 1414.77,1264.8 1416.9,1264.79 1419.03,1264.79 1421.17,1264.78 1423.3,1264.78 1425.43,1264.77 1427.56,1264.77 1429.69,1264.77 1431.82,1264.76 1433.96,1264.76 1436.09,1264.75 1438.22,1264.75 1440.35,1264.75 1442.48,1264.74 1444.62,1264.74 1446.75,1264.73 1448.88,1264.73 1451.01,1264.73 1453.14,1264.72 1455.27,1264.72 1457.41,1264.71 1459.54,1264.71 1461.67,1264.71 1463.8,1264.7 1465.93,1264.7 1468.07,1264.7 1470.2,1264.69 1472.33,1264.69 1474.46,1264.69 1476.59,1264.68 1478.72,1264.68 1480.86,1264.68 1482.99,1264.67 1485.12,1264.67 1487.25,1264.67 1489.38,1264.66 1491.51,1264.66 1493.65,1264.66 1495.78,1264.65 1497.91,1264.65 1500.04,1264.65 1502.17,1264.64 1504.31,1264.64 1506.44,1264.64 1508.57,1264.64 1510.7,1264.63 1512.83,1264.63 1514.96,1264.63 1517.1,1264.62 1519.23,1264.62 1521.36,1264.62 1523.49,1264.62 1525.62,1264.61 1527.76,1264.61 1529.89,1264.61 1532.02,1264.61 1534.15,1264.6 1536.28,1264.6 1538.41,1264.6 1540.55,1264.6 1542.68,1264.59 1544.81,1264.59 1546.94,1264.59 1549.07,1264.59 1551.2,1264.58 1553.34,1264.58 1555.47,1264.58 1557.6,1264.58 1559.73,1264.58 1561.86,1264.57 1564,1264.57 1566.13,1264.57 1568.26,1264.57 1570.39,1264.56 1572.52,1264.56 1574.65,1264.56 1576.79,1264.56 1578.92,1264.56 1581.05,1264.55 1583.18,1264.55 1585.31,1264.55 1587.45,1264.55 1589.58,1264.55 1591.71,1264.54 1593.84,1264.54 1595.97,1264.54 1598.1,1264.54 1600.24,1264.54 1602.37,1264.54 1604.5,1264.53 1606.63,1264.53 1608.76,1264.53 1610.89,1264.53 1613.03,1264.53 1615.16,1264.52 1617.29,1264.52 1619.42,1264.52 1621.55,1264.52 1623.69,1264.52 1625.82,1264.52 1627.95,1264.51 1630.08,1264.51 1632.21,1264.51 1634.34,1264.51 1636.48,1264.51 1638.61,1264.51 1640.74,1264.51 1642.87,1264.5 1645,1264.5 1647.14,1264.5 1649.27,1264.5 1651.4,1264.5 1653.53,1264.5 1655.66,1264.49 1657.79,1264.49 1659.93,1264.49 1662.06,1264.49 1664.19,1264.49 1666.32,1264.49 1668.45,1264.49 1670.58,1264.48 1672.72,1264.48 1674.85,1264.48 1676.98,1264.48 1679.11,1264.48 1681.24,1264.48 1683.38,1264.48 1685.51,1264.48 1687.64,1264.47 1689.77,1264.47 1691.9,1264.47 1694.03,1264.47 1696.17,1264.47 1698.3,1264.47 1700.43,1264.47 1702.56,1264.47 1704.69,1264.46 1706.82,1264.46 1708.96,1264.46 1711.09,1264.46 1713.22,1264.46 1715.35,1264.46 1717.48,1264.46 1719.62,1264.46 1721.75,1264.46 1723.88,1264.45 1726.01,1264.45 1728.14,1264.45 1730.27,1264.45 1732.41,1264.45 1734.54,1264.45 1736.67,1264.45 1738.8,1264.45 1740.93,1264.45 1743.07,1264.45 1745.2,1264.44 1747.33,1264.44 1749.46,1264.44 1751.59,1264.44 1753.72,1264.44 1755.86,1264.44 1757.99,1264.44 1760.12,1264.44 1762.25,1264.44 1764.38,1264.44 1766.51,1264.44 1768.65,1264.43 1770.78,1264.43 1772.91,1264.43 1775.04,1264.43 1777.17,1264.43 1779.31,1264.43 1781.44,1264.43 1783.57,1264.43 1785.7,1264.43 1787.83,1264.43 1789.96,1264.43 1792.1,1264.43 1794.23,1264.42 1796.36,1264.42 1798.49,1264.42 1800.62,1264.42 1802.76,1264.42 1804.89,1264.42 1807.02,1264.42 1809.15,1264.42 1811.28,1264.42 1813.41,1264.42 1815.55,1264.42 1817.68,1264.42 1819.81,1264.42 1821.94,1264.42 1824.07,1264.42 1826.2,1264.41 1828.34,1264.41 1830.47,1264.41 1832.6,1264.41 1834.73,1264.41 1836.86,1264.41 1839,1264.41 1841.13,1264.41 1843.26,1264.41 1845.39,1264.41 1847.52,1264.41 1849.65,1264.41 1851.79,1264.41 1853.92,1264.41 1856.05,1264.41 1858.18,1264.41 1860.31,1264.41 1862.45,1264.4 1864.58,1264.4 1866.71,1264.4 1868.84,1264.4 1870.97,1264.4 1873.1,1264.4 1875.24,1264.4 1877.37,1264.4 1879.5,1264.4 1881.63,1264.4 1883.76,1264.4 1885.89,1264.4 1888.03,1264.4 1890.16,1264.4 1892.29,1264.4 1894.42,1264.4 1896.55,1264.4 1898.69,1264.4 1900.82,1264.4 1902.95,1264.4 1905.08,1264.4 1907.21,1264.39 1909.34,1264.39 1911.48,1264.39 1913.61,1264.39 1915.74,1264.39 1917.87,1264.39 1920,1264.39 1922.14,1264.39 1924.27,1264.39 1926.4,1264.39 1928.53,1264.39 1930.66,1264.39 1932.79,1264.39 1934.93,1264.39 1937.06,1264.39 1939.19,1264.39 1941.32,1264.39 1943.45,1264.39 1945.58,1264.39 1947.72,1264.39 1949.85,1264.39 1951.98,1264.39 1954.11,1264.39 1956.24,1264.39 1958.38,1264.39 1960.51,1264.39 1962.64,1264.38 1964.77,1264.38 1966.9,1264.38 1969.03,1264.38 1971.17,1264.38 1973.3,1264.38 1975.43,1264.38 1977.56,1264.38 1979.69,1264.38 1981.83,1264.38 1983.96,1264.38 1986.09,1264.38 1988.22,1264.38 1990.35,1264.38 1992.48,1264.38 1994.62,1264.38 1996.75,1264.38 1998.88,1264.38 2001.01,1264.38 2003.14,1264.38 2005.27,1264.38 2007.41,1264.38 2009.54,1264.38 2011.67,1264.38 2013.8,1264.38 2015.93,1264.38 2018.07,1264.38 2020.2,1264.38 2022.33,1264.38 2024.46,1264.38 2026.59,1264.38 2028.72,1264.38 2030.86,1264.38 2032.99,1264.37 2035.12,1264.37 2037.25,1264.37 2039.38,1264.37 2041.52,1264.37 2043.65,1264.37 2045.78,1264.37 2047.91,1264.37 2050.04,1264.37 2052.17,1264.37 2054.31,1264.37 2056.44,1264.37 2058.57,1264.37 2060.7,1264.37 2062.83,1264.37 2064.96,1264.37 2067.1,1264.37 2069.23,1264.37 2071.36,1264.37 2073.49,1264.37 2075.62,1264.37 2077.76,1264.37 2079.89,1264.37 2082.02,1264.37 2084.15,1264.37 2086.28,1264.37 2088.41,1264.37 2090.55,1264.37 2092.68,1264.37 2094.81,1264.37 2096.94,1264.37 2099.07,1264.37 2101.21,1264.37 2103.34,1264.37 2105.47,1264.37 2107.6,1264.37 2109.73,1264.37 2111.86,1264.37 2114,1264.37 2116.13,1264.37 2118.26,1264.37 2120.39,1264.37 2122.52,1264.37 2124.65,1264.37 2126.79,1264.37 2128.92,1264.37 2131.05,1264.37 2133.18,1264.37 2135.31,1264.37 2137.45,1264.37 2139.58,1264.36 2141.71,1264.36 2143.84,1264.36 2145.97,1264.36 2148.1,1264.36 2150.24,1264.36 2152.37,1264.36 2154.5,1264.36 2156.63,1264.36 2158.76,1264.36 2160.9,1264.36 2163.03,1264.36 2165.16,1264.36 2167.29,1264.36 2169.42,1264.36 2171.55,1264.36 2173.69,1264.36 2175.82,1264.36 2177.95,1264.36 2180.08,1264.36 2182.21,1264.36 2184.34,1264.36 2186.48,1264.36 2188.61,1264.36 2190.74,1264.36 2192.87,1264.36 2195,1264.36 2197.14,1264.36 2199.27,1264.36 2201.4,1264.36 2203.53,1264.36 2205.66,1264.36 2207.79,1264.36 2209.93,1264.36 2212.06,1264.36 2214.19,1264.36 2216.32,1264.36 2218.45,1264.36 2220.59,1264.36 2222.72,1264.36 2224.85,1264.36 2226.98,1264.36 2229.11,1264.36 2231.24,1264.36 2233.38,1264.36 2235.51,1264.36 2237.64,1264.36 2239.77,1264.36 2241.9,1264.36 2244.03,1264.36 2246.17,1264.36 2248.3,1264.36 2250.43,1264.36 2252.56,1264.36 2254.69,1264.36 2256.83,1264.36 2258.96,1264.36 2261.09,1264.36 2263.22,1264.36 2265.35,1264.36 2267.48,1264.36 2269.62,1264.36 2271.75,1264.36 2273.88,1264.36 2276.01,1264.36 2278.14,1264.36 2280.28,1264.36 2282.41,1264.36 2284.54,1264.36 2286.67,1264.36 2288.8,1264.36 2290.93,1264.36 2293.07,1264.36 2295.2,1264.36 2297.33,1264.36 2299.46,1264.36 2301.59,1264.36 2303.72,1264.36 2305.86,1264.36 2307.99,1264.36 2310.12,1264.36 2312.25,1264.36 2314.38,1264.36 2316.52,1264.36 2318.65,1264.36 2320.78,1264.36 2322.91,1264.36 2325.04,1264.36 2327.17,1264.36 2329.31,1264.36 2331.44,1264.36 2333.57,1264.36 2335.7,1264.36 2337.83,1264.36 2339.97,1264.36 2342.1,1264.36 2344.23,1264.36 2346.36,1264.36 2348.49,1264.36 2350.62,1264.36 2352.76,1264.36 "/>
<polyline clip-path="url(#clip782)" style="stroke:#e26f46; stroke-linecap:round; stroke-linejoin:round; stroke-width:4; stroke-opacity:1; fill:none" points="223.103,86.1857 225.234,93.5622 227.366,100.891 229.498,108.174 231.63,115.409 233.761,122.598 235.893,129.741 238.025,136.838 240.157,143.889 242.289,150.896 244.42,157.857 246.552,164.774 248.684,171.646 250.816,178.475 252.948,185.259 255.079,192.001 257.211,198.699 259.343,205.354 261.475,211.967 263.606,218.537 265.738,225.065 267.87,231.552 270.002,237.997 272.134,244.401 274.265,250.764 276.397,257.086 278.529,263.368 280.661,269.61 282.792,275.812 284.924,281.974 287.056,288.098 289.188,294.182 291.32,300.227 293.451,306.234 295.583,312.202 297.715,318.132 299.847,324.025 301.979,329.88 304.11,335.698 306.242,341.479 308.374,347.223 310.506,352.93 312.637,358.601 314.769,364.236 316.901,369.835 319.033,375.399 321.165,380.927 323.296,386.42 325.428,391.878 327.56,397.301 329.692,402.69 331.824,408.045 333.955,413.365 336.087,418.652 338.219,423.905 340.351,429.125 342.482,434.312 344.614,439.466 346.746,444.587 348.878,449.676 351.01,454.733 353.141,459.757 355.273,464.75 357.405,469.71 359.537,474.64 361.669,479.538 363.8,484.406 365.932,489.242 368.064,494.048 370.196,498.823 372.327,503.568 374.459,508.284 376.591,512.969 378.723,517.625 380.855,522.251 382.986,526.848 385.118,531.416 387.25,535.955 389.382,540.466 391.514,544.948 393.645,549.402 395.777,553.827 397.909,558.225 400.041,562.595 402.172,566.937 404.304,571.252 406.436,575.54 408.568,579.801 410.7,584.034 412.831,588.242 414.963,592.422 417.095,596.576 419.227,600.704 421.359,604.806 423.49,608.883 425.622,612.933 427.754,616.958 429.886,620.958 432.017,624.932 434.149,628.882 436.281,632.806 438.413,636.706 440.545,640.582 442.676,644.433 444.808,648.26 446.94,652.062 449.072,655.841 451.204,659.596 453.335,663.328 455.467,667.036 457.599,670.72 459.731,674.382 461.862,678.02 463.994,681.636 466.126,685.229 468.258,688.8 470.39,692.348 472.521,695.874 474.653,699.377 476.785,702.859 478.917,706.319 481.049,709.757 483.18,713.174 485.312,716.569 487.444,719.943 489.576,723.296 491.707,726.628 493.839,729.939 495.971,733.229 498.103,736.499 500.235,739.748 502.366,742.977 504.498,746.186 506.63,749.374 508.762,752.543 510.894,755.692 513.025,758.821 515.157,761.931 517.289,765.021 519.421,768.092 521.552,771.144 523.684,774.176 525.816,777.19 527.948,780.185 530.08,783.161 532.211,786.119 534.343,789.058 536.475,791.979 538.607,794.881 540.739,797.766 542.87,800.632 545.002,803.481 547.134,806.311 549.266,809.124 551.397,811.92 553.529,814.698 555.661,817.459 557.793,820.202 559.925,822.928 562.056,825.638 564.188,828.33 566.32,831.006 568.452,833.665 570.583,836.308 572.715,838.934 574.847,841.543 576.979,844.137 579.111,846.714 581.242,849.275 583.374,851.82 585.506,854.35 587.638,856.863 589.77,859.361 591.901,861.844 594.033,864.311 596.165,866.763 598.297,869.199 600.428,871.62 602.56,874.027 604.692,876.418 606.824,878.794 608.956,881.156 611.087,883.503 613.219,885.836 615.351,888.154 617.483,890.457 619.615,892.747 621.746,895.022 623.878,897.283 626.01,899.53 628.142,901.763 630.273,903.982 632.405,906.187 634.537,908.379 636.669,910.557 638.801,912.722 640.932,914.873 643.064,917.011 645.196,919.136 647.328,921.247 649.46,923.346 651.591,925.431 653.723,927.504 655.855,929.564 657.987,931.611 660.118,933.645 662.25,935.667 664.382,937.676 666.514,939.673 668.646,941.657 670.777,943.629 672.909,945.589 675.041,947.537 677.173,949.473 679.305,951.396 681.436,953.308 683.568,955.208 685.7,957.096 687.832,958.973 689.963,960.838 692.095,962.691 694.227,964.533 696.359,966.364 698.491,968.183 700.622,969.991 702.754,971.788 704.886,973.573 707.018,975.348 709.15,977.112 711.281,978.865 713.413,980.607 715.545,982.338 717.677,984.058 719.808,985.768 721.94,987.467 724.072,989.156 726.204,990.835 728.336,992.503 730.467,994.16 732.599,995.808 734.731,997.445 736.863,999.073 738.995,1000.69 741.126,1002.3 743.258,1003.89 745.39,1005.48 747.522,1007.06 749.653,1008.63 751.785,1010.19 753.917,1011.73 756.049,1013.27 758.181,1014.8 760.312,1016.32 762.444,1017.83 764.576,1019.34 766.708,1020.83 768.84,1022.31 770.971,1023.79 773.103,1025.25 775.235,1026.71 777.367,1028.15 779.498,1029.59 781.63,1031.02 783.762,1032.44 785.894,1033.85 788.026,1035.26 790.157,1036.65 792.289,1038.04 794.421,1039.41 796.553,1040.78 798.685,1042.14 800.816,1043.5 802.948,1044.84 805.08,1046.18 807.212,1047.5 809.343,1048.82 811.475,1050.13 813.607,1051.44 815.739,1052.73 817.871,1054.02 820.002,1055.3 822.134,1056.57 824.266,1057.83 826.398,1059.09 828.529,1060.34 830.661,1061.58 832.793,1062.81 834.925,1064.04 837.057,1065.25 839.188,1066.46 841.32,1067.67 843.452,1068.86 845.584,1070.05 847.716,1071.23 849.847,1072.4 851.979,1073.57 854.111,1074.73 856.243,1075.88 858.374,1077.03 860.506,1078.17 862.638,1079.3 864.77,1080.42 866.902,1081.54 869.033,1082.65 871.165,1083.75 873.297,1084.85 875.429,1085.94 877.561,1087.02 879.692,1088.1 881.824,1089.17 883.956,1090.23 886.088,1091.29 888.219,1092.34 890.351,1093.38 892.483,1094.42 894.615,1095.45 896.747,1096.48 898.878,1097.5 901.01,1098.51 903.142,1099.51 905.274,1100.52 907.406,1101.51 909.537,1102.5 911.669,1103.48 913.801,1104.45 915.933,1105.42 918.064,1106.39 920.196,1107.35 922.328,1108.3 924.46,1109.25 926.592,1110.19 928.723,1111.12 930.855,1112.05 932.987,1112.97 935.119,1113.89 937.251,1114.8 939.382,1115.71 941.514,1116.61 943.646,1117.51 945.778,1118.4 947.909,1119.28 950.041,1120.16 952.173,1121.04 954.305,1121.9 956.437,1122.77 958.568,1123.63 960.7,1124.48 962.832,1125.33 964.964,1126.17 967.096,1127.01 969.227,1127.84 971.359,1128.67 973.491,1129.49 975.623,1130.31 977.754,1131.12 979.886,1131.93 982.018,1132.73 984.15,1133.53 986.282,1134.32 988.413,1135.11 990.545,1135.89 992.677,1136.67 994.809,1137.44 996.941,1138.21 999.072,1138.97 1001.2,1139.73 1003.34,1140.49 1005.47,1141.24 1007.6,1141.98 1009.73,1142.72 1011.86,1143.46 1013.99,1144.19 1016.13,1144.92 1018.26,1145.64 1020.39,1146.36 1022.52,1147.08 1024.65,1147.79 1026.79,1148.49 1028.92,1149.19 1031.05,1149.89 1033.18,1150.58 1035.31,1151.27 1037.44,1151.95 1039.58,1152.63 1041.71,1153.31 1043.84,1153.98 1045.97,1154.65 1048.1,1155.31 1050.24,1155.97 1052.37,1156.63 1054.5,1157.28 1056.63,1157.93 1058.76,1158.57 1060.89,1159.21 1063.03,1159.85 1065.16,1160.48 1067.29,1161.11 1069.42,1161.73 1071.55,1162.35 1073.68,1162.97 1075.82,1163.58 1077.95,1164.19 1080.08,1164.8 1082.21,1165.4 1084.34,1166 1086.48,1166.59 1088.61,1167.18 1090.74,1167.77 1092.87,1168.35 1095,1168.93 1097.13,1169.51 1099.27,1170.08 1101.4,1170.65 1103.53,1171.22 1105.66,1171.78 1107.79,1172.34 1109.93,1172.89 1112.06,1173.45 1114.19,1174 1116.32,1174.54 1118.45,1175.08 1120.58,1175.62 1122.72,1176.16 1124.85,1176.69 1126.98,1177.22 1129.11,1177.75 1131.24,1178.27 1133.37,1178.79 1135.51,1179.31 1137.64,1179.82 1139.77,1180.33 1141.9,1180.84 1144.03,1181.34 1146.17,1181.84 1148.3,1182.34 1150.43,1182.84 1152.56,1183.33 1154.69,1183.82 1156.82,1184.31 1158.96,1184.79 1161.09,1185.27 1163.22,1185.75 1165.35,1186.22 1167.48,1186.69 1169.62,1187.16 1171.75,1187.63 1173.88,1188.09 1176.01,1188.55 1178.14,1189.01 1180.27,1189.46 1182.41,1189.92 1184.54,1190.37 1186.67,1190.81 1188.8,1191.26 1190.93,1191.7 1193.06,1192.14 1195.2,1192.57 1197.33,1193.01 1199.46,1193.44 1201.59,1193.87 1203.72,1194.29 1205.86,1194.71 1207.99,1195.13 1210.12,1195.55 1212.25,1195.97 1214.38,1196.38 1216.51,1196.79 1218.65,1197.2 1220.78,1197.6 1222.91,1198.01 1225.04,1198.41 1227.17,1198.8 1229.31,1199.2 1231.44,1199.59 1233.57,1199.98 1235.7,1200.37 1237.83,1200.76 1239.96,1201.14 1242.1,1201.52 1244.23,1201.9 1246.36,1202.28 1248.49,1202.65 1250.62,1203.02 1252.75,1203.39 1254.89,1203.76 1257.02,1204.13 1259.15,1204.49 1261.28,1204.85 1263.41,1205.21 1265.55,1205.57 1267.68,1205.92 1269.81,1206.27 1271.94,1206.62 1274.07,1206.97 1276.2,1207.32 1278.34,1207.66 1280.47,1208 1282.6,1208.34 1284.73,1208.68 1286.86,1209.01 1289,1209.35 1291.13,1209.68 1293.26,1210.01 1295.39,1210.34 1297.52,1210.66 1299.65,1210.99 1301.79,1211.31 1303.92,1211.63 1306.05,1211.94 1308.18,1212.26 1310.31,1212.57 1312.44,1212.89 1314.58,1213.2 1316.71,1213.5 1318.84,1213.81 1320.97,1214.11 1323.1,1214.42 1325.24,1214.72 1327.37,1215.02 1329.5,1215.31 1331.63,1215.61 1333.76,1215.9 1335.89,1216.19 1338.03,1216.48 1340.16,1216.77 1342.29,1217.06 1344.42,1217.34 1346.55,1217.63 1348.69,1217.91 1350.82,1218.19 1352.95,1218.47 1355.08,1218.74 1357.21,1219.02 1359.34,1219.29 1361.48,1219.56 1363.61,1219.83 1365.74,1220.1 1367.87,1220.36 1370,1220.63 1372.13,1220.89 1374.27,1221.15 1376.4,1221.41 1378.53,1221.67 1380.66,1221.93 1382.79,1222.18 1384.93,1222.44 1387.06,1222.69 1389.19,1222.94 1391.32,1223.19 1393.45,1223.44 1395.58,1223.69 1397.72,1223.93 1399.85,1224.17 1401.98,1224.42 1404.11,1224.66 1406.24,1224.9 1408.38,1225.13 1410.51,1225.37 1412.64,1225.6 1414.77,1225.84 1416.9,1226.07 1419.03,1226.3 1421.17,1226.53 1423.3,1226.76 1425.43,1226.98 1427.56,1227.21 1429.69,1227.43 1431.82,1227.65 1433.96,1227.88 1436.09,1228.1 1438.22,1228.31 1440.35,1228.53 1442.48,1228.75 1444.62,1228.96 1446.75,1229.17 1448.88,1229.39 1451.01,1229.6 1453.14,1229.81 1455.27,1230.01 1457.41,1230.22 1459.54,1230.43 1461.67,1230.63 1463.8,1230.83 1465.93,1231.03 1468.07,1231.24 1470.2,1231.43 1472.33,1231.63 1474.46,1231.83 1476.59,1232.03 1478.72,1232.22 1480.86,1232.41 1482.99,1232.61 1485.12,1232.8 1487.25,1232.99 1489.38,1233.18 1491.51,1233.36 1493.65,1233.55 1495.78,1233.73 1497.91,1233.92 1500.04,1234.1 1502.17,1234.28 1504.31,1234.47 1506.44,1234.64 1508.57,1234.82 1510.7,1235 1512.83,1235.18 1514.96,1235.35 1517.1,1235.53 1519.23,1235.7 1521.36,1235.87 1523.49,1236.04 1525.62,1236.21 1527.76,1236.38 1529.89,1236.55 1532.02,1236.72 1534.15,1236.88 1536.28,1237.05 1538.41,1237.21 1540.55,1237.38 1542.68,1237.54 1544.81,1237.7 1546.94,1237.86 1549.07,1238.02 1551.2,1238.18 1553.34,1238.33 1555.47,1238.49 1557.6,1238.65 1559.73,1238.8 1561.86,1238.95 1564,1239.11 1566.13,1239.26 1568.26,1239.41 1570.39,1239.56 1572.52,1239.71 1574.65,1239.86 1576.79,1240 1578.92,1240.15 1581.05,1240.29 1583.18,1240.44 1585.31,1240.58 1587.45,1240.73 1589.58,1240.87 1591.71,1241.01 1593.84,1241.15 1595.97,1241.29 1598.1,1241.43 1600.24,1241.56 1602.37,1241.7 1604.5,1241.84 1606.63,1241.97 1608.76,1242.11 1610.89,1242.24 1613.03,1242.37 1615.16,1242.5 1617.29,1242.64 1619.42,1242.77 1621.55,1242.9 1623.69,1243.02 1625.82,1243.15 1627.95,1243.28 1630.08,1243.41 1632.21,1243.53 1634.34,1243.66 1636.48,1243.78 1638.61,1243.9 1640.74,1244.03 1642.87,1244.15 1645,1244.27 1647.14,1244.39 1649.27,1244.51 1651.4,1244.63 1653.53,1244.75 1655.66,1244.87 1657.79,1244.98 1659.93,1245.1 1662.06,1245.22 1664.19,1245.33 1666.32,1245.44 1668.45,1245.56 1670.58,1245.67 1672.72,1245.78 1674.85,1245.89 1676.98,1246.01 1679.11,1246.12 1681.24,1246.23 1683.38,1246.33 1685.51,1246.44 1687.64,1246.55 1689.77,1246.66 1691.9,1246.76 1694.03,1246.87 1696.17,1246.98 1698.3,1247.08 1700.43,1247.18 1702.56,1247.29 1704.69,1247.39 1706.82,1247.49 1708.96,1247.59 1711.09,1247.69 1713.22,1247.79 1715.35,1247.89 1717.48,1247.99 1719.62,1248.09 1721.75,1248.19 1723.88,1248.29 1726.01,1248.38 1728.14,1248.48 1730.27,1248.57 1732.41,1248.67 1734.54,1248.76 1736.67,1248.86 1738.8,1248.95 1740.93,1249.04 1743.07,1249.13 1745.2,1249.23 1747.33,1249.32 1749.46,1249.41 1751.59,1249.5 1753.72,1249.59 1755.86,1249.68 1757.99,1249.76 1760.12,1249.85 1762.25,1249.94 1764.38,1250.03 1766.51,1250.11 1768.65,1250.2 1770.78,1250.28 1772.91,1250.37 1775.04,1250.45 1777.17,1250.53 1779.31,1250.62 1781.44,1250.7 1783.57,1250.78 1785.7,1250.86 1787.83,1250.94 1789.96,1251.02 1792.1,1251.1 1794.23,1251.18 1796.36,1251.26 1798.49,1251.34 1800.62,1251.42 1802.76,1251.5 1804.89,1251.57 1807.02,1251.65 1809.15,1251.73 1811.28,1251.8 1813.41,1251.88 1815.55,1251.95 1817.68,1252.03 1819.81,1252.1 1821.94,1252.18 1824.07,1252.25 1826.2,1252.32 1828.34,1252.39 1830.47,1252.46 1832.6,1252.54 1834.73,1252.61 1836.86,1252.68 1839,1252.75 1841.13,1252.82 1843.26,1252.89 1845.39,1252.95 1847.52,1253.02 1849.65,1253.09 1851.79,1253.16 1853.92,1253.23 1856.05,1253.29 1858.18,1253.36 1860.31,1253.42 1862.45,1253.49 1864.58,1253.55 1866.71,1253.62 1868.84,1253.68 1870.97,1253.75 1873.1,1253.81 1875.24,1253.87 1877.37,1253.94 1879.5,1254 1881.63,1254.06 1883.76,1254.12 1885.89,1254.18 1888.03,1254.25 1890.16,1254.31 1892.29,1254.37 1894.42,1254.43 1896.55,1254.49 1898.69,1254.54 1900.82,1254.6 1902.95,1254.66 1905.08,1254.72 1907.21,1254.78 1909.34,1254.83 1911.48,1254.89 1913.61,1254.95 1915.74,1255 1917.87,1255.06 1920,1255.12 1922.14,1255.17 1924.27,1255.23 1926.4,1255.28 1928.53,1255.33 1930.66,1255.39 1932.79,1255.44 1934.93,1255.5 1937.06,1255.55 1939.19,1255.6 1941.32,1255.65 1943.45,1255.71 1945.58,1255.76 1947.72,1255.81 1949.85,1255.86 1951.98,1255.91 1954.11,1255.96 1956.24,1256.01 1958.38,1256.06 1960.51,1256.11 1962.64,1256.16 1964.77,1256.21 1966.9,1256.26 1969.03,1256.31 1971.17,1256.36 1973.3,1256.4 1975.43,1256.45 1977.56,1256.5 1979.69,1256.55 1981.83,1256.59 1983.96,1256.64 1986.09,1256.69 1988.22,1256.73 1990.35,1256.78 1992.48,1256.82 1994.62,1256.87 1996.75,1256.91 1998.88,1256.96 2001.01,1257 2003.14,1257.05 2005.27,1257.09 2007.41,1257.13 2009.54,1257.18 2011.67,1257.22 2013.8,1257.26 2015.93,1257.31 2018.07,1257.35 2020.2,1257.39 2022.33,1257.43 2024.46,1257.47 2026.59,1257.52 2028.72,1257.56 2030.86,1257.6 2032.99,1257.64 2035.12,1257.68 2037.25,1257.72 2039.38,1257.76 2041.52,1257.8 2043.65,1257.84 2045.78,1257.88 2047.91,1257.92 2050.04,1257.95 2052.17,1257.99 2054.31,1258.03 2056.44,1258.07 2058.57,1258.11 2060.7,1258.14 2062.83,1258.18 2064.96,1258.22 2067.1,1258.26 2069.23,1258.29 2071.36,1258.33 2073.49,1258.37 2075.62,1258.4 2077.76,1258.44 2079.89,1258.47 2082.02,1258.51 2084.15,1258.54 2086.28,1258.58 2088.41,1258.61 2090.55,1258.65 2092.68,1258.68 2094.81,1258.72 2096.94,1258.75 2099.07,1258.78 2101.21,1258.82 2103.34,1258.85 2105.47,1258.88 2107.6,1258.92 2109.73,1258.95 2111.86,1258.98 2114,1259.01 2116.13,1259.05 2118.26,1259.08 2120.39,1259.11 2122.52,1259.14 2124.65,1259.17 2126.79,1259.2 2128.92,1259.23 2131.05,1259.26 2133.18,1259.3 2135.31,1259.33 2137.45,1259.36 2139.58,1259.39 2141.71,1259.42 2143.84,1259.44 2145.97,1259.47 2148.1,1259.5 2150.24,1259.53 2152.37,1259.56 2154.5,1259.59 2156.63,1259.62 2158.76,1259.65 2160.9,1259.68 2163.03,1259.7 2165.16,1259.73 2167.29,1259.76 2169.42,1259.79 2171.55,1259.81 2173.69,1259.84 2175.82,1259.87 2177.95,1259.89 2180.08,1259.92 2182.21,1259.95 2184.34,1259.97 2186.48,1260 2188.61,1260.03 2190.74,1260.05 2192.87,1260.08 2195,1260.1 2197.14,1260.13 2199.27,1260.15 2201.4,1260.18 2203.53,1260.2 2205.66,1260.23 2207.79,1260.25 2209.93,1260.28 2212.06,1260.3 2214.19,1260.33 2216.32,1260.35 2218.45,1260.37 2220.59,1260.4 2222.72,1260.42 2224.85,1260.45 2226.98,1260.47 2229.11,1260.49 2231.24,1260.51 2233.38,1260.54 2235.51,1260.56 2237.64,1260.58 2239.77,1260.61 2241.9,1260.63 2244.03,1260.65 2246.17,1260.67 2248.3,1260.69 2250.43,1260.72 2252.56,1260.74 2254.69,1260.76 2256.83,1260.78 2258.96,1260.8 2261.09,1260.82 2263.22,1260.84 2265.35,1260.86 2267.48,1260.89 2269.62,1260.91 2271.75,1260.93 2273.88,1260.95 2276.01,1260.97 2278.14,1260.99 2280.28,1261.01 2282.41,1261.03 2284.54,1261.05 2286.67,1261.07 2288.8,1261.09 2290.93,1261.11 2293.07,1261.13 2295.2,1261.14 2297.33,1261.16 2299.46,1261.18 2301.59,1261.2 2303.72,1261.22 2305.86,1261.24 2307.99,1261.26 2310.12,1261.28 2312.25,1261.29 2314.38,1261.31 2316.52,1261.33 2318.65,1261.35 2320.78,1261.37 2322.91,1261.38 2325.04,1261.4 2327.17,1261.42 2329.31,1261.44 2331.44,1261.45 2333.57,1261.47 2335.7,1261.49 2337.83,1261.51 2339.97,1261.52 2342.1,1261.54 2344.23,1261.56 2346.36,1261.57 2348.49,1261.59 2350.62,1261.61 2352.76,1261.62 "/>
<path clip-path="url(#clip780)" d="M1809.41 248.629 L2281.77 248.629 L2281.77 93.1086 L1809.41 93.1086  Z" fill="#ffffff" fill-rule="evenodd" fill-opacity="1"/>
<polyline clip-path="url(#clip780)" style="stroke:#000000; stroke-linecap:round; stroke-linejoin:round; stroke-width:4; stroke-opacity:1; fill:none" points="1809.41,248.629 2281.77,248.629 2281.77,93.1086 1809.41,93.1086 1809.41,248.629 "/>
<polyline clip-path="url(#clip780)" style="stroke:#009af9; stroke-linecap:round; stroke-linejoin:round; stroke-width:4; stroke-opacity:1; fill:none" points="1833.07,144.949 1975.05,144.949 "/>
<path clip-path="url(#clip780)" d="M1998.71 136.303 L2003.22 136.303 L2011.32 158.062 L2019.43 136.303 L2023.94 136.303 L2014.22 162.229 L2008.43 162.229 L1998.71 136.303 Z" fill="#000000" fill-rule="nonzero" fill-opacity="1" /><path clip-path="url(#clip780)" d="M2031.23 158.293 L2038.87 158.293 L2038.87 131.928 L2030.56 133.595 L2030.56 129.335 L2038.82 127.669 L2043.5 127.669 L2043.5 158.293 L2051.14 158.293 L2051.14 162.229 L2031.23 162.229 L2031.23 158.293 Z" fill="#000000" fill-rule="nonzero" fill-opacity="1" /><path clip-path="url(#clip780)" d="M2069.24 145.585 L2069.24 152.807 L2077.36 152.807 L2077.36 155.006 L2069.24 155.006 L2069.24 162.229 L2066.81 162.229 L2066.81 155.006 L2058.68 155.006 L2058.68 152.807 L2066.81 152.807 L2066.81 145.585 L2069.24 145.585 Z" fill="#000000" fill-rule="nonzero" fill-opacity="1" /><path clip-path="url(#clip780)" d="M2101.53 137.067 L2101.53 141.094 Q2099.73 140.169 2097.78 139.706 Q2095.84 139.243 2093.75 139.243 Q2090.58 139.243 2088.99 140.215 Q2087.41 141.187 2087.41 143.131 Q2087.41 144.613 2088.55 145.469 Q2089.68 146.303 2093.11 147.067 L2094.56 147.391 Q2099.1 148.363 2101 150.145 Q2102.92 151.905 2102.92 155.076 Q2102.92 158.687 2100.05 160.793 Q2097.2 162.9 2092.2 162.9 Q2090.12 162.9 2087.85 162.483 Q2085.61 162.09 2083.11 161.28 L2083.11 156.881 Q2085.47 158.108 2087.76 158.733 Q2090.05 159.335 2092.3 159.335 Q2095.3 159.335 2096.92 158.317 Q2098.55 157.275 2098.55 155.4 Q2098.55 153.664 2097.36 152.738 Q2096.21 151.812 2092.25 150.956 L2090.77 150.608 Q2086.81 149.775 2085.05 148.062 Q2083.29 146.326 2083.29 143.317 Q2083.29 139.659 2085.88 137.669 Q2088.48 135.678 2093.24 135.678 Q2095.61 135.678 2097.69 136.025 Q2099.77 136.372 2101.53 137.067 Z" fill="#000000" fill-rule="nonzero" fill-opacity="1" /><path clip-path="url(#clip780)" d="M2113.92 128.942 L2113.92 136.303 L2122.69 136.303 L2122.69 139.613 L2113.92 139.613 L2113.92 153.687 Q2113.92 156.858 2114.77 157.761 Q2115.65 158.664 2118.31 158.664 L2122.69 158.664 L2122.69 162.229 L2118.31 162.229 Q2113.38 162.229 2111.51 160.4 Q2109.63 158.548 2109.63 153.687 L2109.63 139.613 L2106.51 139.613 L2106.51 136.303 L2109.63 136.303 L2109.63 128.942 L2113.92 128.942 Z" fill="#000000" fill-rule="nonzero" fill-opacity="1" /><path clip-path="url(#clip780)" d="M2138.34 139.289 Q2134.91 139.289 2132.92 141.974 Q2130.93 144.636 2130.93 149.289 Q2130.93 153.942 2132.9 156.627 Q2134.89 159.289 2138.34 159.289 Q2141.74 159.289 2143.73 156.604 Q2145.72 153.918 2145.72 149.289 Q2145.72 144.682 2143.73 141.997 Q2141.74 139.289 2138.34 139.289 M2138.34 135.678 Q2143.89 135.678 2147.06 139.289 Q2150.23 142.9 2150.23 149.289 Q2150.23 155.655 2147.06 159.289 Q2143.89 162.9 2138.34 162.9 Q2132.76 162.9 2129.59 159.289 Q2126.44 155.655 2126.44 149.289 Q2126.44 142.9 2129.59 139.289 Q2132.76 135.678 2138.34 135.678 Z" fill="#000000" fill-rule="nonzero" fill-opacity="1" /><path clip-path="url(#clip780)" d="M2172.32 140.284 Q2171.6 139.868 2170.74 139.682 Q2169.91 139.474 2168.89 139.474 Q2165.28 139.474 2163.34 141.835 Q2161.42 144.173 2161.42 148.571 L2161.42 162.229 L2157.13 162.229 L2157.13 136.303 L2161.42 136.303 L2161.42 140.331 Q2162.76 137.969 2164.91 136.835 Q2167.06 135.678 2170.14 135.678 Q2170.58 135.678 2171.11 135.747 Q2171.65 135.794 2172.29 135.909 L2172.32 140.284 Z" fill="#000000" fill-rule="nonzero" fill-opacity="1" /><path clip-path="url(#clip780)" d="M2188.57 149.196 Q2183.41 149.196 2181.42 150.377 Q2179.42 151.557 2179.42 154.405 Q2179.42 156.673 2180.91 158.016 Q2182.41 159.335 2184.98 159.335 Q2188.52 159.335 2190.65 156.835 Q2192.8 154.312 2192.8 150.145 L2192.8 149.196 L2188.57 149.196 M2197.06 147.437 L2197.06 162.229 L2192.8 162.229 L2192.8 158.293 Q2191.35 160.655 2189.17 161.789 Q2186.99 162.9 2183.85 162.9 Q2179.86 162.9 2177.5 160.678 Q2175.17 158.432 2175.17 154.682 Q2175.17 150.307 2178.08 148.085 Q2181.02 145.863 2186.83 145.863 L2192.8 145.863 L2192.8 145.446 Q2192.8 142.507 2190.86 140.909 Q2188.94 139.289 2185.44 139.289 Q2183.22 139.289 2181.11 139.821 Q2179.01 140.354 2177.06 141.419 L2177.06 137.483 Q2179.4 136.581 2181.6 136.141 Q2183.8 135.678 2185.88 135.678 Q2191.51 135.678 2194.29 138.594 Q2197.06 141.511 2197.06 147.437 Z" fill="#000000" fill-rule="nonzero" fill-opacity="1" /><path clip-path="url(#clip780)" d="M2222.9 148.965 Q2222.9 144.335 2220.98 141.789 Q2219.08 139.243 2215.63 139.243 Q2212.2 139.243 2210.28 141.789 Q2208.38 144.335 2208.38 148.965 Q2208.38 153.571 2210.28 156.118 Q2212.2 158.664 2215.63 158.664 Q2219.08 158.664 2220.98 156.118 Q2222.9 153.571 2222.9 148.965 M2227.16 159.011 Q2227.16 165.631 2224.22 168.849 Q2221.28 172.09 2215.21 172.09 Q2212.97 172.09 2210.98 171.742 Q2208.98 171.418 2207.11 170.724 L2207.11 166.58 Q2208.98 167.599 2210.81 168.085 Q2212.64 168.571 2214.54 168.571 Q2218.73 168.571 2220.81 166.372 Q2222.9 164.196 2222.9 159.775 L2222.9 157.668 Q2221.58 159.96 2219.52 161.094 Q2217.46 162.229 2214.59 162.229 Q2209.82 162.229 2206.9 158.594 Q2203.98 154.96 2203.98 148.965 Q2203.98 142.946 2206.9 139.312 Q2209.82 135.678 2214.59 135.678 Q2217.46 135.678 2219.52 136.812 Q2221.58 137.946 2222.9 140.238 L2222.9 136.303 L2227.16 136.303 L2227.16 159.011 Z" fill="#000000" fill-rule="nonzero" fill-opacity="1" /><path clip-path="url(#clip780)" d="M2258.1 148.201 L2258.1 150.284 L2238.52 150.284 Q2238.8 154.682 2241.16 156.997 Q2243.54 159.289 2247.78 159.289 Q2250.23 159.289 2252.53 158.687 Q2254.84 158.085 2257.11 156.881 L2257.11 160.909 Q2254.82 161.881 2252.41 162.391 Q2250 162.9 2247.53 162.9 Q2241.32 162.9 2237.69 159.289 Q2234.08 155.678 2234.08 149.52 Q2234.08 143.155 2237.5 139.428 Q2240.95 135.678 2246.79 135.678 Q2252.02 135.678 2255.05 139.057 Q2258.1 142.414 2258.1 148.201 M2253.85 146.951 Q2253.8 143.456 2251.88 141.372 Q2249.98 139.289 2246.83 139.289 Q2243.27 139.289 2241.11 141.303 Q2238.98 143.317 2238.66 146.974 L2253.85 146.951 Z" fill="#000000" fill-rule="nonzero" fill-opacity="1" /><polyline clip-path="url(#clip780)" style="stroke:#e26f46; stroke-linecap:round; stroke-linejoin:round; stroke-width:4; stroke-opacity:1; fill:none" points="1833.07,196.789 1975.05,196.789 "/>
<path clip-path="url(#clip780)" d="M1998.71 188.143 L2003.22 188.143 L2011.32 209.902 L2019.43 188.143 L2023.94 188.143 L2014.22 214.069 L2008.43 214.069 L1998.71 188.143 Z" fill="#000000" fill-rule="nonzero" fill-opacity="1" /><path clip-path="url(#clip780)" d="M2030.47 179.509 L2048.82 179.509 L2048.82 183.444 L2034.75 183.444 L2034.75 191.916 Q2035.77 191.569 2036.79 191.407 Q2037.8 191.222 2038.82 191.222 Q2044.61 191.222 2047.99 194.393 Q2051.37 197.564 2051.37 202.981 Q2051.37 208.559 2047.9 211.661 Q2044.43 214.74 2038.11 214.74 Q2035.93 214.74 2033.66 214.37 Q2031.42 213.999 2029.01 213.258 L2029.01 208.559 Q2031.09 209.694 2033.31 210.249 Q2035.54 210.805 2038.01 210.805 Q2042.02 210.805 2044.36 208.698 Q2046.69 206.592 2046.69 202.981 Q2046.69 199.37 2044.36 197.263 Q2042.02 195.157 2038.01 195.157 Q2036.14 195.157 2034.26 195.573 Q2032.41 195.99 2030.47 196.87 L2030.47 179.509 Z" fill="#000000" fill-rule="nonzero" fill-opacity="1" /><path clip-path="url(#clip780)" d="M2069.24 197.425 L2069.24 204.647 L2077.36 204.647 L2077.36 206.846 L2069.24 206.846 L2069.24 214.069 L2066.81 214.069 L2066.81 206.846 L2058.68 206.846 L2058.68 204.647 L2066.81 204.647 L2066.81 197.425 L2069.24 197.425 Z" fill="#000000" fill-rule="nonzero" fill-opacity="1" /><path clip-path="url(#clip780)" d="M2101.53 188.907 L2101.53 192.934 Q2099.73 192.009 2097.78 191.546 Q2095.84 191.083 2093.75 191.083 Q2090.58 191.083 2088.99 192.055 Q2087.41 193.027 2087.41 194.971 Q2087.41 196.453 2088.55 197.309 Q2089.68 198.143 2093.11 198.907 L2094.56 199.231 Q2099.1 200.203 2101 201.985 Q2102.92 203.745 2102.92 206.916 Q2102.92 210.527 2100.05 212.633 Q2097.2 214.74 2092.2 214.74 Q2090.12 214.74 2087.85 214.323 Q2085.61 213.93 2083.11 213.12 L2083.11 208.721 Q2085.47 209.948 2087.76 210.573 Q2090.05 211.175 2092.3 211.175 Q2095.3 211.175 2096.92 210.157 Q2098.55 209.115 2098.55 207.24 Q2098.55 205.504 2097.36 204.578 Q2096.21 203.652 2092.25 202.796 L2090.77 202.448 Q2086.81 201.615 2085.05 199.902 Q2083.29 198.166 2083.29 195.157 Q2083.29 191.499 2085.88 189.509 Q2088.48 187.518 2093.24 187.518 Q2095.61 187.518 2097.69 187.865 Q2099.77 188.212 2101.53 188.907 Z" fill="#000000" fill-rule="nonzero" fill-opacity="1" /><path clip-path="url(#clip780)" d="M2113.92 180.782 L2113.92 188.143 L2122.69 188.143 L2122.69 191.453 L2113.92 191.453 L2113.92 205.527 Q2113.92 208.698 2114.77 209.601 Q2115.65 210.504 2118.31 210.504 L2122.69 210.504 L2122.69 214.069 L2118.31 214.069 Q2113.38 214.069 2111.51 212.24 Q2109.63 210.388 2109.63 205.527 L2109.63 191.453 L2106.51 191.453 L2106.51 188.143 L2109.63 188.143 L2109.63 180.782 L2113.92 180.782 Z" fill="#000000" fill-rule="nonzero" fill-opacity="1" /><path clip-path="url(#clip780)" d="M2138.34 191.129 Q2134.91 191.129 2132.92 193.814 Q2130.93 196.476 2130.93 201.129 Q2130.93 205.782 2132.9 208.467 Q2134.89 211.129 2138.34 211.129 Q2141.74 211.129 2143.73 208.444 Q2145.72 205.758 2145.72 201.129 Q2145.72 196.522 2143.73 193.837 Q2141.74 191.129 2138.34 191.129 M2138.34 187.518 Q2143.89 187.518 2147.06 191.129 Q2150.23 194.74 2150.23 201.129 Q2150.23 207.495 2147.06 211.129 Q2143.89 214.74 2138.34 214.74 Q2132.76 214.74 2129.59 211.129 Q2126.44 207.495 2126.44 201.129 Q2126.44 194.74 2129.59 191.129 Q2132.76 187.518 2138.34 187.518 Z" fill="#000000" fill-rule="nonzero" fill-opacity="1" /><path clip-path="url(#clip780)" d="M2172.32 192.124 Q2171.6 191.708 2170.74 191.522 Q2169.91 191.314 2168.89 191.314 Q2165.28 191.314 2163.34 193.675 Q2161.42 196.013 2161.42 200.411 L2161.42 214.069 L2157.13 214.069 L2157.13 188.143 L2161.42 188.143 L2161.42 192.171 Q2162.76 189.809 2164.91 188.675 Q2167.06 187.518 2170.14 187.518 Q2170.58 187.518 2171.11 187.587 Q2171.65 187.634 2172.29 187.749 L2172.32 192.124 Z" fill="#000000" fill-rule="nonzero" fill-opacity="1" /><path clip-path="url(#clip780)" d="M2188.57 201.036 Q2183.41 201.036 2181.42 202.217 Q2179.42 203.397 2179.42 206.245 Q2179.42 208.513 2180.91 209.856 Q2182.41 211.175 2184.98 211.175 Q2188.52 211.175 2190.65 208.675 Q2192.8 206.152 2192.8 201.985 L2192.8 201.036 L2188.57 201.036 M2197.06 199.277 L2197.06 214.069 L2192.8 214.069 L2192.8 210.133 Q2191.35 212.495 2189.17 213.629 Q2186.99 214.74 2183.85 214.74 Q2179.86 214.74 2177.5 212.518 Q2175.17 210.272 2175.17 206.522 Q2175.17 202.147 2178.08 199.925 Q2181.02 197.703 2186.83 197.703 L2192.8 197.703 L2192.8 197.286 Q2192.8 194.347 2190.86 192.749 Q2188.94 191.129 2185.44 191.129 Q2183.22 191.129 2181.11 191.661 Q2179.01 192.194 2177.06 193.259 L2177.06 189.323 Q2179.4 188.421 2181.6 187.981 Q2183.8 187.518 2185.88 187.518 Q2191.51 187.518 2194.29 190.434 Q2197.06 193.351 2197.06 199.277 Z" fill="#000000" fill-rule="nonzero" fill-opacity="1" /><path clip-path="url(#clip780)" d="M2222.9 200.805 Q2222.9 196.175 2220.98 193.629 Q2219.08 191.083 2215.63 191.083 Q2212.2 191.083 2210.28 193.629 Q2208.38 196.175 2208.38 200.805 Q2208.38 205.411 2210.28 207.958 Q2212.2 210.504 2215.63 210.504 Q2219.08 210.504 2220.98 207.958 Q2222.9 205.411 2222.9 200.805 M2227.16 210.851 Q2227.16 217.471 2224.22 220.689 Q2221.28 223.93 2215.21 223.93 Q2212.97 223.93 2210.98 223.582 Q2208.98 223.258 2207.11 222.564 L2207.11 218.42 Q2208.98 219.439 2210.81 219.925 Q2212.64 220.411 2214.54 220.411 Q2218.73 220.411 2220.81 218.212 Q2222.9 216.036 2222.9 211.615 L2222.9 209.508 Q2221.58 211.8 2219.52 212.934 Q2217.46 214.069 2214.59 214.069 Q2209.82 214.069 2206.9 210.434 Q2203.98 206.8 2203.98 200.805 Q2203.98 194.786 2206.9 191.152 Q2209.82 187.518 2214.59 187.518 Q2217.46 187.518 2219.52 188.652 Q2221.58 189.786 2222.9 192.078 L2222.9 188.143 L2227.16 188.143 L2227.16 210.851 Z" fill="#000000" fill-rule="nonzero" fill-opacity="1" /><path clip-path="url(#clip780)" d="M2258.1 200.041 L2258.1 202.124 L2238.52 202.124 Q2238.8 206.522 2241.16 208.837 Q2243.54 211.129 2247.78 211.129 Q2250.23 211.129 2252.53 210.527 Q2254.84 209.925 2257.11 208.721 L2257.11 212.749 Q2254.82 213.721 2252.41 214.231 Q2250 214.74 2247.53 214.74 Q2241.32 214.74 2237.69 211.129 Q2234.08 207.518 2234.08 201.36 Q2234.08 194.995 2237.5 191.268 Q2240.95 187.518 2246.79 187.518 Q2252.02 187.518 2255.05 190.897 Q2258.1 194.254 2258.1 200.041 M2253.85 198.791 Q2253.8 195.296 2251.88 193.212 Q2249.98 191.129 2246.83 191.129 Q2243.27 191.129 2241.11 193.143 Q2238.98 195.157 2238.66 198.814 L2253.85 198.791 Z" fill="#000000" fill-rule="nonzero" fill-opacity="1" /></svg>
