<?xml version="1.0" encoding="utf-8"?>
<svg xmlns="http://www.w3.org/2000/svg" xmlns:xlink="http://www.w3.org/1999/xlink" width="600" height="400" viewBox="0 0 2400 1600">
<defs>
  <clipPath id="clip570">
    <rect x="0" y="0" width="2400" height="1600"/>
  </clipPath>
</defs>
<path clip-path="url(#clip570)" d="M0 1600 L2400 1600 L2400 0 L0 0  Z" fill="#ffffff" fill-rule="evenodd" fill-opacity="1"/>
<defs>
  <clipPath id="clip571">
    <rect x="480" y="0" width="1681" height="1600"/>
  </clipPath>
</defs>
<path clip-path="url(#clip570)" d="M156.112 1423.18 L2352.76 1423.18 L2352.76 47.2441 L156.112 47.2441  Z" fill="#ffffff" fill-rule="evenodd" fill-opacity="1"/>
<defs>
  <clipPath id="clip572">
    <rect x="156" y="47" width="2198" height="1377"/>
  </clipPath>
</defs>
<polyline clip-path="url(#clip572)" style="stroke:#000000; stroke-linecap:round; stroke-linejoin:round; stroke-width:2; stroke-opacity:0.1; fill:none" points="156.112,1423.18 156.112,47.2441 "/>
<polyline clip-path="url(#clip572)" style="stroke:#000000; stroke-linecap:round; stroke-linejoin:round; stroke-width:2; stroke-opacity:0.1; fill:none" points="705.273,1423.18 705.273,47.2441 "/>
<polyline clip-path="url(#clip572)" style="stroke:#000000; stroke-linecap:round; stroke-linejoin:round; stroke-width:2; stroke-opacity:0.1; fill:none" points="1254.43,1423.18 1254.43,47.2441 "/>
<polyline clip-path="url(#clip572)" style="stroke:#000000; stroke-linecap:round; stroke-linejoin:round; stroke-width:2; stroke-opacity:0.1; fill:none" points="1803.59,1423.18 1803.59,47.2441 "/>
<polyline clip-path="url(#clip572)" style="stroke:#000000; stroke-linecap:round; stroke-linejoin:round; stroke-width:2; stroke-opacity:0.1; fill:none" points="2352.76,1423.18 2352.76,47.2441 "/>
<polyline clip-path="url(#clip572)" style="stroke:#000000; stroke-linecap:round; stroke-linejoin:round; stroke-width:2; stroke-opacity:0.1; fill:none" points="156.112,1261.35 2352.76,1261.35 "/>
<polyline clip-path="url(#clip572)" style="stroke:#000000; stroke-linecap:round; stroke-linejoin:round; stroke-width:2; stroke-opacity:0.1; fill:none" points="156.112,860.833 2352.76,860.833 "/>
<polyline clip-path="url(#clip572)" style="stroke:#000000; stroke-linecap:round; stroke-linejoin:round; stroke-width:2; stroke-opacity:0.1; fill:none" points="156.112,460.32 2352.76,460.32 "/>
<polyline clip-path="url(#clip572)" style="stroke:#000000; stroke-linecap:round; stroke-linejoin:round; stroke-width:2; stroke-opacity:0.1; fill:none" points="156.112,59.8059 2352.76,59.8059 "/>
<polyline clip-path="url(#clip570)" style="stroke:#000000; stroke-linecap:round; stroke-linejoin:round; stroke-width:4; stroke-opacity:1; fill:none" points="156.112,1423.18 2352.76,1423.18 "/>
<polyline clip-path="url(#clip570)" style="stroke:#000000; stroke-linecap:round; stroke-linejoin:round; stroke-width:4; stroke-opacity:1; fill:none" points="156.112,1423.18 156.112,1404.28 "/>
<polyline clip-path="url(#clip570)" style="stroke:#000000; stroke-linecap:round; stroke-linejoin:round; stroke-width:4; stroke-opacity:1; fill:none" points="705.273,1423.18 705.273,1404.28 "/>
<polyline clip-path="url(#clip570)" style="stroke:#000000; stroke-linecap:round; stroke-linejoin:round; stroke-width:4; stroke-opacity:1; fill:none" points="1254.43,1423.18 1254.43,1404.28 "/>
<polyline clip-path="url(#clip570)" style="stroke:#000000; stroke-linecap:round; stroke-linejoin:round; stroke-width:4; stroke-opacity:1; fill:none" points="1803.59,1423.18 1803.59,1404.28 "/>
<polyline clip-path="url(#clip570)" style="stroke:#000000; stroke-linecap:round; stroke-linejoin:round; stroke-width:4; stroke-opacity:1; fill:none" points="2352.76,1423.18 2352.76,1404.28 "/>
<path clip-path="url(#clip570)" d="M133.497 1454.1 Q129.885 1454.1 128.057 1457.66 Q126.251 1461.2 126.251 1468.33 Q126.251 1475.44 128.057 1479.01 Q129.885 1482.55 133.497 1482.55 Q137.131 1482.55 138.936 1479.01 Q140.765 1475.44 140.765 1468.33 Q140.765 1461.2 138.936 1457.66 Q137.131 1454.1 133.497 1454.1 M133.497 1450.39 Q139.307 1450.39 142.362 1455 Q145.441 1459.58 145.441 1468.33 Q145.441 1477.06 142.362 1481.67 Q139.307 1486.25 133.497 1486.25 Q127.686 1486.25 124.608 1481.67 Q121.552 1477.06 121.552 1468.33 Q121.552 1459.58 124.608 1455 Q127.686 1450.39 133.497 1450.39 Z" fill="#000000" fill-rule="nonzero" fill-opacity="1" /><path clip-path="url(#clip570)" d="M153.658 1479.7 L158.543 1479.7 L158.543 1485.58 L153.658 1485.58 L153.658 1479.7 Z" fill="#000000" fill-rule="nonzero" fill-opacity="1" /><path clip-path="url(#clip570)" d="M178.728 1454.1 Q175.117 1454.1 173.288 1457.66 Q171.482 1461.2 171.482 1468.33 Q171.482 1475.44 173.288 1479.01 Q175.117 1482.55 178.728 1482.55 Q182.362 1482.55 184.168 1479.01 Q185.996 1475.44 185.996 1468.33 Q185.996 1461.2 184.168 1457.66 Q182.362 1454.1 178.728 1454.1 M178.728 1450.39 Q184.538 1450.39 187.593 1455 Q190.672 1459.58 190.672 1468.33 Q190.672 1477.06 187.593 1481.67 Q184.538 1486.25 178.728 1486.25 Q172.918 1486.25 169.839 1481.67 Q166.783 1477.06 166.783 1468.33 Q166.783 1459.58 169.839 1455 Q172.918 1450.39 178.728 1450.39 Z" fill="#000000" fill-rule="nonzero" fill-opacity="1" /><path clip-path="url(#clip570)" d="M683.155 1454.1 Q679.544 1454.1 677.715 1457.66 Q675.91 1461.2 675.91 1468.33 Q675.91 1475.44 677.715 1479.01 Q679.544 1482.55 683.155 1482.55 Q686.789 1482.55 688.595 1479.01 Q690.424 1475.44 690.424 1468.33 Q690.424 1461.2 688.595 1457.66 Q686.789 1454.1 683.155 1454.1 M683.155 1450.39 Q688.965 1450.39 692.021 1455 Q695.1 1459.58 695.1 1468.33 Q695.1 1477.06 692.021 1481.67 Q688.965 1486.25 683.155 1486.25 Q677.345 1486.25 674.266 1481.67 Q671.211 1477.06 671.211 1468.33 Q671.211 1459.58 674.266 1455 Q677.345 1450.39 683.155 1450.39 Z" fill="#000000" fill-rule="nonzero" fill-opacity="1" /><path clip-path="url(#clip570)" d="M703.317 1479.7 L708.201 1479.7 L708.201 1485.58 L703.317 1485.58 L703.317 1479.7 Z" fill="#000000" fill-rule="nonzero" fill-opacity="1" /><path clip-path="url(#clip570)" d="M718.433 1451.02 L736.789 1451.02 L736.789 1454.96 L722.715 1454.96 L722.715 1463.43 Q723.734 1463.08 724.752 1462.92 Q725.771 1462.73 726.789 1462.73 Q732.576 1462.73 735.956 1465.9 Q739.335 1469.08 739.335 1474.49 Q739.335 1480.07 735.863 1483.17 Q732.391 1486.25 726.072 1486.25 Q723.896 1486.25 721.627 1485.88 Q719.382 1485.51 716.974 1484.77 L716.974 1480.07 Q719.058 1481.2 721.28 1481.76 Q723.502 1482.32 725.979 1482.32 Q729.984 1482.32 732.322 1480.21 Q734.659 1478.1 734.659 1474.49 Q734.659 1470.88 732.322 1468.77 Q729.984 1466.67 725.979 1466.67 Q724.104 1466.67 722.229 1467.08 Q720.377 1467.5 718.433 1468.38 L718.433 1451.02 Z" fill="#000000" fill-rule="nonzero" fill-opacity="1" /><path clip-path="url(#clip570)" d="M1221.59 1481.64 L1229.23 1481.64 L1229.23 1455.28 L1220.92 1456.95 L1220.92 1452.69 L1229.18 1451.02 L1233.86 1451.02 L1233.86 1481.64 L1241.49 1481.64 L1241.49 1485.58 L1221.59 1485.58 L1221.59 1481.64 Z" fill="#000000" fill-rule="nonzero" fill-opacity="1" /><path clip-path="url(#clip570)" d="M1250.94 1479.7 L1255.82 1479.7 L1255.82 1485.58 L1250.94 1485.58 L1250.94 1479.7 Z" fill="#000000" fill-rule="nonzero" fill-opacity="1" /><path clip-path="url(#clip570)" d="M1276.01 1454.1 Q1272.4 1454.1 1270.57 1457.66 Q1268.76 1461.2 1268.76 1468.33 Q1268.76 1475.44 1270.57 1479.01 Q1272.4 1482.55 1276.01 1482.55 Q1279.64 1482.55 1281.45 1479.01 Q1283.28 1475.44 1283.28 1468.33 Q1283.28 1461.2 1281.45 1457.66 Q1279.64 1454.1 1276.01 1454.1 M1276.01 1450.39 Q1281.82 1450.39 1284.87 1455 Q1287.95 1459.58 1287.95 1468.33 Q1287.95 1477.06 1284.87 1481.67 Q1281.82 1486.25 1276.01 1486.25 Q1270.2 1486.25 1267.12 1481.67 Q1264.06 1477.06 1264.06 1468.33 Q1264.06 1459.58 1267.12 1455 Q1270.2 1450.39 1276.01 1450.39 Z" fill="#000000" fill-rule="nonzero" fill-opacity="1" /><path clip-path="url(#clip570)" d="M1771.25 1481.64 L1778.88 1481.64 L1778.88 1455.28 L1770.57 1456.95 L1770.57 1452.69 L1778.84 1451.02 L1783.51 1451.02 L1783.51 1481.64 L1791.15 1481.64 L1791.15 1485.58 L1771.25 1485.58 L1771.25 1481.64 Z" fill="#000000" fill-rule="nonzero" fill-opacity="1" /><path clip-path="url(#clip570)" d="M1800.6 1479.7 L1805.48 1479.7 L1805.48 1485.58 L1800.6 1485.58 L1800.6 1479.7 Z" fill="#000000" fill-rule="nonzero" fill-opacity="1" /><path clip-path="url(#clip570)" d="M1815.71 1451.02 L1834.07 1451.02 L1834.07 1454.96 L1820 1454.96 L1820 1463.43 Q1821.01 1463.08 1822.03 1462.92 Q1823.05 1462.73 1824.07 1462.73 Q1829.86 1462.73 1833.24 1465.9 Q1836.62 1469.08 1836.62 1474.49 Q1836.62 1480.07 1833.14 1483.17 Q1829.67 1486.25 1823.35 1486.25 Q1821.18 1486.25 1818.91 1485.88 Q1816.66 1485.51 1814.25 1484.77 L1814.25 1480.07 Q1816.34 1481.2 1818.56 1481.76 Q1820.78 1482.32 1823.26 1482.32 Q1827.26 1482.32 1829.6 1480.21 Q1831.94 1478.1 1831.94 1474.49 Q1831.94 1470.88 1829.6 1468.77 Q1827.26 1466.67 1823.26 1466.67 Q1821.38 1466.67 1819.51 1467.08 Q1817.66 1467.5 1815.71 1468.38 L1815.71 1451.02 Z" fill="#000000" fill-rule="nonzero" fill-opacity="1" /><path clip-path="url(#clip570)" d="M2323.99 1481.64 L2340.31 1481.64 L2340.31 1485.58 L2318.37 1485.58 L2318.37 1481.64 Q2321.03 1478.89 2325.61 1474.26 Q2330.22 1469.61 2331.4 1468.27 Q2333.65 1465.74 2334.53 1464.01 Q2335.43 1462.25 2335.43 1460.56 Q2335.43 1457.8 2333.49 1456.07 Q2331.56 1454.33 2328.46 1454.33 Q2326.26 1454.33 2323.81 1455.09 Q2321.38 1455.86 2318.6 1457.41 L2318.6 1452.69 Q2321.43 1451.55 2323.88 1450.97 Q2326.33 1450.39 2328.37 1450.39 Q2333.74 1450.39 2336.93 1453.08 Q2340.13 1455.77 2340.13 1460.26 Q2340.13 1462.39 2339.32 1464.31 Q2338.53 1466.2 2336.42 1468.8 Q2335.85 1469.47 2332.74 1472.69 Q2329.64 1475.88 2323.99 1481.64 Z" fill="#000000" fill-rule="nonzero" fill-opacity="1" /><path clip-path="url(#clip570)" d="M2350.13 1479.7 L2355.01 1479.7 L2355.01 1485.58 L2350.13 1485.58 L2350.13 1479.7 Z" fill="#000000" fill-rule="nonzero" fill-opacity="1" /><path clip-path="url(#clip570)" d="M2375.2 1454.1 Q2371.59 1454.1 2369.76 1457.66 Q2367.95 1461.2 2367.95 1468.33 Q2367.95 1475.44 2369.76 1479.01 Q2371.59 1482.55 2375.2 1482.55 Q2378.83 1482.55 2380.64 1479.01 Q2382.47 1475.44 2382.47 1468.33 Q2382.47 1461.2 2380.64 1457.66 Q2378.83 1454.1 2375.2 1454.1 M2375.2 1450.39 Q2381.01 1450.39 2384.06 1455 Q2387.14 1459.58 2387.14 1468.33 Q2387.14 1477.06 2384.06 1481.67 Q2381.01 1486.25 2375.2 1486.25 Q2369.39 1486.25 2366.31 1481.67 Q2363.25 1477.06 2363.25 1468.33 Q2363.25 1459.58 2366.31 1455 Q2369.39 1450.39 2375.2 1450.39 Z" fill="#000000" fill-rule="nonzero" fill-opacity="1" /><path clip-path="url(#clip570)" d="M1253.5 1522.27 L1253.5 1532.4 L1265.56 1532.4 L1265.56 1536.95 L1253.5 1536.95 L1253.5 1556.3 Q1253.5 1560.66 1254.67 1561.9 Q1255.88 1563.14 1259.54 1563.14 L1265.56 1563.14 L1265.56 1568.04 L1259.54 1568.04 Q1252.76 1568.04 1250.18 1565.53 Q1247.61 1562.98 1247.61 1556.3 L1247.61 1536.95 L1243.31 1536.95 L1243.31 1532.4 L1247.61 1532.4 L1247.61 1522.27 L1253.5 1522.27 Z" fill="#000000" fill-rule="nonzero" fill-opacity="1" /><polyline clip-path="url(#clip570)" style="stroke:#000000; stroke-linecap:round; stroke-linejoin:round; stroke-width:4; stroke-opacity:1; fill:none" points="156.112,1423.18 156.112,47.2441 "/>
<polyline clip-path="url(#clip570)" style="stroke:#000000; stroke-linecap:round; stroke-linejoin:round; stroke-width:4; stroke-opacity:1; fill:none" points="156.112,1261.35 175.01,1261.35 "/>
<polyline clip-path="url(#clip570)" style="stroke:#000000; stroke-linecap:round; stroke-linejoin:round; stroke-width:4; stroke-opacity:1; fill:none" points="156.112,860.833 175.01,860.833 "/>
<polyline clip-path="url(#clip570)" style="stroke:#000000; stroke-linecap:round; stroke-linejoin:round; stroke-width:4; stroke-opacity:1; fill:none" points="156.112,460.32 175.01,460.32 "/>
<polyline clip-path="url(#clip570)" style="stroke:#000000; stroke-linecap:round; stroke-linejoin:round; stroke-width:4; stroke-opacity:1; fill:none" points="156.112,59.8059 175.01,59.8059 "/>
<path clip-path="url(#clip570)" d="M62.9365 1247.15 Q59.3254 1247.15 57.4967 1250.71 Q55.6912 1254.25 55.6912 1261.38 Q55.6912 1268.49 57.4967 1272.05 Q59.3254 1275.59 62.9365 1275.59 Q66.5707 1275.59 68.3763 1272.05 Q70.205 1268.49 70.205 1261.38 Q70.205 1254.25 68.3763 1250.71 Q66.5707 1247.15 62.9365 1247.15 M62.9365 1243.44 Q68.7467 1243.44 71.8022 1248.05 Q74.8809 1252.63 74.8809 1261.38 Q74.8809 1270.11 71.8022 1274.72 Q68.7467 1279.3 62.9365 1279.3 Q57.1264 1279.3 54.0477 1274.72 Q50.9921 1270.11 50.9921 1261.38 Q50.9921 1252.63 54.0477 1248.05 Q57.1264 1243.44 62.9365 1243.44 Z" fill="#000000" fill-rule="nonzero" fill-opacity="1" /><path clip-path="url(#clip570)" d="M83.0984 1272.75 L87.9827 1272.75 L87.9827 1278.63 L83.0984 1278.63 L83.0984 1272.75 Z" fill="#000000" fill-rule="nonzero" fill-opacity="1" /><path clip-path="url(#clip570)" d="M108.168 1247.15 Q104.557 1247.15 102.728 1250.71 Q100.922 1254.25 100.922 1261.38 Q100.922 1268.49 102.728 1272.05 Q104.557 1275.59 108.168 1275.59 Q111.802 1275.59 113.608 1272.05 Q115.436 1268.49 115.436 1261.38 Q115.436 1254.25 113.608 1250.71 Q111.802 1247.15 108.168 1247.15 M108.168 1243.44 Q113.978 1243.44 117.033 1248.05 Q120.112 1252.63 120.112 1261.38 Q120.112 1270.11 117.033 1274.72 Q113.978 1279.3 108.168 1279.3 Q102.358 1279.3 99.2789 1274.72 Q96.2234 1270.11 96.2234 1261.38 Q96.2234 1252.63 99.2789 1248.05 Q102.358 1243.44 108.168 1243.44 Z" fill="#000000" fill-rule="nonzero" fill-opacity="1" /><path clip-path="url(#clip570)" d="M64.1634 846.632 Q60.5523 846.632 58.7236 850.197 Q56.918 853.739 56.918 860.868 Q56.918 867.975 58.7236 871.539 Q60.5523 875.081 64.1634 875.081 Q67.7976 875.081 69.6031 871.539 Q71.4318 867.975 71.4318 860.868 Q71.4318 853.739 69.6031 850.197 Q67.7976 846.632 64.1634 846.632 M64.1634 842.928 Q69.9735 842.928 73.029 847.535 Q76.1077 852.118 76.1077 860.868 Q76.1077 869.595 73.029 874.201 Q69.9735 878.785 64.1634 878.785 Q58.3532 878.785 55.2745 874.201 Q52.219 869.595 52.219 860.868 Q52.219 852.118 55.2745 847.535 Q58.3532 842.928 64.1634 842.928 Z" fill="#000000" fill-rule="nonzero" fill-opacity="1" /><path clip-path="url(#clip570)" d="M84.3253 872.234 L89.2095 872.234 L89.2095 878.113 L84.3253 878.113 L84.3253 872.234 Z" fill="#000000" fill-rule="nonzero" fill-opacity="1" /><path clip-path="url(#clip570)" d="M100.205 874.178 L107.844 874.178 L107.844 847.813 L99.5335 849.479 L99.5335 845.22 L107.797 843.553 L112.473 843.553 L112.473 874.178 L120.112 874.178 L120.112 878.113 L100.205 878.113 L100.205 874.178 Z" fill="#000000" fill-rule="nonzero" fill-opacity="1" /><path clip-path="url(#clip570)" d="M64.5337 446.118 Q60.9226 446.118 59.0939 449.683 Q57.2884 453.225 57.2884 460.354 Q57.2884 467.461 59.0939 471.026 Q60.9226 474.567 64.5337 474.567 Q68.168 474.567 69.9735 471.026 Q71.8022 467.461 71.8022 460.354 Q71.8022 453.225 69.9735 449.683 Q68.168 446.118 64.5337 446.118 M64.5337 442.415 Q70.3439 442.415 73.3994 447.021 Q76.4781 451.604 76.4781 460.354 Q76.4781 469.081 73.3994 473.688 Q70.3439 478.271 64.5337 478.271 Q58.7236 478.271 55.6449 473.688 Q52.5893 469.081 52.5893 460.354 Q52.5893 451.604 55.6449 447.021 Q58.7236 442.415 64.5337 442.415 Z" fill="#000000" fill-rule="nonzero" fill-opacity="1" /><path clip-path="url(#clip570)" d="M84.6956 471.72 L89.5799 471.72 L89.5799 477.6 L84.6956 477.6 L84.6956 471.72 Z" fill="#000000" fill-rule="nonzero" fill-opacity="1" /><path clip-path="url(#clip570)" d="M103.793 473.665 L120.112 473.665 L120.112 477.6 L98.1678 477.6 L98.1678 473.665 Q100.83 470.91 105.413 466.28 Q110.02 461.628 111.2 460.285 Q113.445 457.762 114.325 456.026 Q115.228 454.266 115.228 452.577 Q115.228 449.822 113.283 448.086 Q111.362 446.35 108.26 446.35 Q106.061 446.35 103.608 447.114 Q101.177 447.878 98.3993 449.429 L98.3993 444.706 Q101.223 443.572 103.677 442.993 Q106.131 442.415 108.168 442.415 Q113.538 442.415 116.733 445.1 Q119.927 447.785 119.927 452.276 Q119.927 454.405 119.117 456.327 Q118.33 458.225 116.223 460.817 Q115.645 461.489 112.543 464.706 Q109.441 467.901 103.793 473.665 Z" fill="#000000" fill-rule="nonzero" fill-opacity="1" /><path clip-path="url(#clip570)" d="M63.5847 45.6046 Q59.9736 45.6046 58.1449 49.1694 Q56.3393 52.7111 56.3393 59.8406 Q56.3393 66.9471 58.1449 70.5119 Q59.9736 74.0535 63.5847 74.0535 Q67.2189 74.0535 69.0244 70.5119 Q70.8531 66.9471 70.8531 59.8406 Q70.8531 52.7111 69.0244 49.1694 Q67.2189 45.6046 63.5847 45.6046 M63.5847 41.9009 Q69.3948 41.9009 72.4503 46.5074 Q75.529 51.0907 75.529 59.8406 Q75.529 68.5674 72.4503 73.1739 Q69.3948 77.7572 63.5847 77.7572 Q57.7745 77.7572 54.6958 73.1739 Q51.6403 68.5674 51.6403 59.8406 Q51.6403 51.0907 54.6958 46.5074 Q57.7745 41.9009 63.5847 41.9009 Z" fill="#000000" fill-rule="nonzero" fill-opacity="1" /><path clip-path="url(#clip570)" d="M83.7466 71.2063 L88.6308 71.2063 L88.6308 77.0859 L83.7466 77.0859 L83.7466 71.2063 Z" fill="#000000" fill-rule="nonzero" fill-opacity="1" /><path clip-path="url(#clip570)" d="M112.983 58.4518 Q116.339 59.1694 118.214 61.4379 Q120.112 63.7064 120.112 67.0397 Q120.112 72.1554 116.594 74.9563 Q113.075 77.7572 106.594 77.7572 Q104.418 77.7572 102.103 77.3174 Q99.8113 76.9007 97.3576 76.0443 L97.3576 71.5304 Q99.3021 72.6646 101.617 73.2433 Q103.932 73.822 106.455 73.822 Q110.853 73.822 113.145 72.0859 Q115.459 70.3498 115.459 67.0397 Q115.459 63.9841 113.307 62.2712 Q111.177 60.5351 107.358 60.5351 L103.33 60.5351 L103.33 56.6925 L107.543 56.6925 Q110.992 56.6925 112.82 55.3268 Q114.649 53.9379 114.649 51.3453 Q114.649 48.6833 112.751 47.2713 Q110.876 45.8361 107.358 45.8361 Q105.436 45.8361 103.237 46.2528 Q101.038 46.6694 98.3993 47.549 L98.3993 43.3824 Q101.061 42.6417 103.376 42.2713 Q105.714 41.9009 107.774 41.9009 Q113.098 41.9009 116.2 44.3315 Q119.302 46.7389 119.302 50.8592 Q119.302 53.7296 117.658 55.7203 Q116.015 57.6879 112.983 58.4518 Z" fill="#000000" fill-rule="nonzero" fill-opacity="1" /><polyline clip-path="url(#clip572)" style="stroke:#009af9; stroke-linecap:round; stroke-linejoin:round; stroke-width:4; stroke-opacity:1; fill:none" points="156.112,530.775 158.311,538.874 160.51,546.893 162.709,554.833 164.907,562.693 167.106,570.475 169.305,578.179 171.504,585.807 173.703,593.358 175.902,600.835 178.101,608.237 180.299,615.565 182.498,622.82 184.697,630.003 186.896,637.115 189.095,644.155 191.294,651.126 193.492,658.027 195.691,664.859 197.89,671.623 200.089,678.32 202.288,684.95 204.487,691.514 206.686,698.013 208.884,704.447 211.083,710.817 213.282,717.124 215.481,723.367 217.68,729.549 219.879,735.669 222.077,741.728 224.276,747.727 226.475,753.666 228.674,759.545 230.873,765.367 233.072,771.13 235.27,776.836 237.469,782.485 239.668,788.077 241.867,793.614 244.066,799.096 246.265,804.523 248.464,809.896 250.662,815.216 252.861,820.483 255.06,825.697 257.259,830.859 259.458,835.97 261.657,841.03 263.855,846.04 266.054,850.999 268.253,855.91 270.452,860.771 272.651,865.584 274.85,870.349 277.048,875.067 279.247,879.737 281.446,884.361 283.645,888.939 285.844,893.472 288.043,897.959 290.242,902.402 292.44,906.8 294.639,911.155 296.838,915.466 299.037,919.734 301.236,923.96 303.435,928.143 305.633,932.285 307.832,936.386 310.031,940.446 312.23,944.465 314.429,948.445 316.628,952.384 318.826,956.285 321.025,960.146 323.224,963.969 325.423,967.754 327.622,971.502 329.821,975.212 332.02,978.885 334.218,982.521 336.417,986.122 338.616,989.686 340.815,993.215 343.014,996.709 345.213,1000.17 347.411,1003.59 349.61,1006.98 351.809,1010.34 354.008,1013.66 356.207,1016.95 358.406,1020.21 360.604,1023.44 362.803,1026.63 365.002,1029.79 367.201,1032.92 369.4,1036.02 371.599,1039.09 373.798,1042.12 375.996,1045.13 378.195,1048.11 380.394,1051.05 382.593,1053.97 384.792,1056.86 386.991,1059.72 389.189,1062.55 391.388,1065.35 393.587,1068.13 395.786,1070.88 397.985,1073.6 400.184,1076.29 402.382,1078.96 404.581,1081.6 406.78,1084.21 408.979,1086.8 411.178,1089.36 413.377,1091.89 415.576,1094.41 417.774,1096.89 419.973,1099.35 422.172,1101.79 424.371,1104.2 426.57,1106.59 428.769,1108.95 430.967,1111.3 433.166,1113.61 435.365,1115.91 437.564,1118.18 439.763,1120.43 441.962,1122.66 444.161,1124.86 446.359,1127.04 448.558,1129.2 450.757,1131.34 452.956,1133.46 455.155,1135.56 457.354,1137.64 459.552,1139.69 461.751,1141.73 463.95,1143.74 466.149,1145.73 468.348,1147.71 470.547,1149.66 472.745,1151.6 474.944,1153.52 477.143,1155.41 479.342,1157.29 481.541,1159.15 483.74,1160.99 485.939,1162.81 488.137,1164.62 490.336,1166.41 492.535,1168.17 494.734,1169.93 496.933,1171.66 499.132,1173.38 501.33,1175.08 503.529,1176.76 505.728,1178.42 507.927,1180.07 510.126,1181.71 512.325,1183.32 514.523,1184.92 516.722,1186.51 518.921,1188.08 521.12,1189.63 523.319,1191.17 525.518,1192.69 527.717,1194.2 529.915,1195.69 532.114,1197.16 534.313,1198.63 536.512,1200.07 538.711,1201.51 540.91,1202.93 543.108,1204.33 545.307,1205.72 547.506,1207.1 549.705,1208.46 551.904,1209.81 554.103,1211.15 556.301,1212.47 558.5,1213.78 560.699,1215.08 562.898,1216.37 565.097,1217.64 567.296,1218.9 569.495,1220.14 571.693,1221.37 573.892,1222.6 576.091,1223.81 578.29,1225 580.489,1226.19 582.688,1227.36 584.886,1228.52 587.085,1229.67 589.284,1230.81 591.483,1231.94 593.682,1233.05 595.881,1234.16 598.079,1235.25 600.278,1236.34 602.477,1237.41 604.676,1238.47 606.875,1239.52 609.074,1240.56 611.273,1241.59 613.471,1242.61 615.67,1243.62 617.869,1244.62 620.068,1245.61 622.267,1246.59 624.466,1247.56 626.664,1248.52 628.863,1249.47 631.062,1250.41 633.261,1251.35 635.46,1252.27 637.659,1253.18 639.858,1254.09 642.056,1254.98 644.255,1255.87 646.454,1256.75 648.653,1257.62 650.852,1258.48 653.051,1259.33 655.249,1260.17 657.448,1261.01 659.647,1261.83 661.846,1262.65 664.045,1263.46 666.244,1264.26 668.442,1265.06 670.641,1265.84 672.84,1266.62 675.039,1267.39 677.238,1268.16 679.437,1268.91 681.636,1269.66 683.834,1270.4 686.033,1271.13 688.232,1271.86 690.431,1272.58 692.63,1273.29 694.829,1273.99 697.027,1274.69 699.226,1275.38 701.425,1276.06 703.624,1276.74 705.823,1277.41 708.022,1278.07 710.22,1278.73 712.419,1279.38 714.618,1280.02 716.817,1280.66 719.016,1281.29 721.215,1281.92 723.414,1282.53 725.612,1283.15 727.811,1283.75 730.01,1284.35 732.209,1284.95 734.408,1285.53 736.607,1286.12 738.805,1286.69 741.004,1287.26 743.203,1287.83 745.402,1288.39 747.601,1288.94 749.8,1289.49 751.998,1290.03 754.197,1290.57 756.396,1291.1 758.595,1291.63 760.794,1292.15 762.993,1292.67 765.192,1293.18 767.39,1293.69 769.589,1294.19 771.788,1294.68 773.987,1295.17 776.186,1295.66 778.385,1296.14 780.583,1296.62 782.782,1297.09 784.981,1297.56 787.18,1298.02 789.379,1298.48 791.578,1298.93 793.776,1299.38 795.975,1299.83 798.174,1300.27 800.373,1300.7 802.572,1301.13 804.771,1301.56 806.97,1301.98 809.168,1302.4 811.367,1302.81 813.566,1303.22 815.765,1303.63 817.964,1304.03 820.163,1304.43 822.361,1304.82 824.56,1305.21 826.759,1305.6 828.958,1305.98 831.157,1306.36 833.356,1306.74 835.554,1307.11 837.753,1307.47 839.952,1307.84 842.151,1308.2 844.35,1308.56 846.549,1308.91 848.748,1309.26 850.946,1309.6 853.145,1309.95 855.344,1310.29 857.543,1310.62 859.742,1310.95 861.941,1311.28 864.139,1311.61 866.338,1311.93 868.537,1312.25 870.736,1312.57 872.935,1312.88 875.134,1313.19 877.333,1313.5 879.531,1313.8 881.73,1314.1 883.929,1314.4 886.128,1314.69 888.327,1314.99 890.526,1315.28 892.724,1315.56 894.923,1315.84 897.122,1316.13 899.321,1316.4 901.52,1316.68 903.719,1316.95 905.917,1317.22 908.116,1317.49 910.315,1317.75 912.514,1318.01 914.713,1318.27 916.912,1318.53 919.111,1318.78 921.309,1319.03 923.508,1319.28 925.707,1319.53 927.906,1319.77 930.105,1320.01 932.304,1320.25 934.502,1320.49 936.701,1320.72 938.9,1320.95 941.099,1321.18 943.298,1321.41 945.497,1321.63 947.695,1321.86 949.894,1322.08 952.093,1322.3 954.292,1322.51 956.491,1322.73 958.69,1322.94 960.889,1323.15 963.087,1323.35 965.286,1323.56 967.485,1323.76 969.684,1323.96 971.883,1324.16 974.082,1324.36 976.28,1324.56 978.479,1324.75 980.678,1324.94 982.877,1325.13 985.076,1325.32 987.275,1325.51 989.473,1325.69 991.672,1325.87 993.871,1326.05 996.07,1326.23 998.269,1326.41 1000.47,1326.58 1002.67,1326.76 1004.87,1326.93 1007.06,1327.1 1009.26,1327.27 1011.46,1327.43 1013.66,1327.6 1015.86,1327.76 1018.06,1327.92 1020.26,1328.09 1022.46,1328.24 1024.65,1328.4 1026.85,1328.56 1029.05,1328.71 1031.25,1328.86 1033.45,1329.01 1035.65,1329.16 1037.85,1329.31 1040.05,1329.46 1042.25,1329.6 1044.44,1329.74 1046.64,1329.89 1048.84,1330.03 1051.04,1330.17 1053.24,1330.3 1055.44,1330.44 1057.64,1330.58 1059.84,1330.71 1062.04,1330.84 1064.23,1330.97 1066.43,1331.1 1068.63,1331.23 1070.83,1331.36 1073.03,1331.48 1075.23,1331.61 1077.43,1331.73 1079.63,1331.85 1081.82,1331.97 1084.02,1332.09 1086.22,1332.21 1088.42,1332.33 1090.62,1332.45 1092.82,1332.56 1095.02,1332.67 1097.22,1332.79 1099.42,1332.9 1101.61,1333.01 1103.81,1333.12 1106.01,1333.23 1108.21,1333.33 1110.41,1333.44 1112.61,1333.55 1114.81,1333.65 1117.01,1333.75 1119.21,1333.85 1121.4,1333.96 1123.6,1334.06 1125.8,1334.15 1128,1334.25 1130.2,1334.35 1132.4,1334.45 1134.6,1334.54 1136.8,1334.64 1138.99,1334.73 1141.19,1334.82 1143.39,1334.91 1145.59,1335 1147.79,1335.09 1149.99,1335.18 1152.19,1335.27 1154.39,1335.36 1156.59,1335.44 1158.78,1335.53 1160.98,1335.61 1163.18,1335.7 1165.38,1335.78 1167.58,1335.86 1169.78,1335.94 1171.98,1336.02 1174.18,1336.1 1176.38,1336.18 1178.57,1336.26 1180.77,1336.33 1182.97,1336.41 1185.17,1336.49 1187.37,1336.56 1189.57,1336.64 1191.77,1336.71 1193.97,1336.78 1196.16,1336.85 1198.36,1336.92 1200.56,1336.99 1202.76,1337.06 1204.96,1337.13 1207.16,1337.2 1209.36,1337.27 1211.56,1337.34 1213.76,1337.4 1215.95,1337.47 1218.15,1337.53 1220.35,1337.6 1222.55,1337.66 1224.75,1337.72 1226.95,1337.79 1229.15,1337.85 1231.35,1337.91 1233.55,1337.97 1235.74,1338.03 1237.94,1338.09 1240.14,1338.15 1242.34,1338.21 1244.54,1338.26 1246.74,1338.32 1248.94,1338.38 1251.14,1338.43 1253.33,1338.49 1255.53,1338.54 1257.73,1338.6 1259.93,1338.65 1262.13,1338.71 1264.33,1338.76 1266.53,1338.81 1268.73,1338.86 1270.93,1338.91 1273.12,1338.96 1275.32,1339.01 1277.52,1339.06 1279.72,1339.11 1281.92,1339.16 1284.12,1339.21 1286.32,1339.26 1288.52,1339.3 1290.71,1339.35 1292.91,1339.4 1295.11,1339.44 1297.31,1339.49 1299.51,1339.53 1301.71,1339.58 1303.91,1339.62 1306.11,1339.67 1308.31,1339.71 1310.5,1339.75 1312.7,1339.79 1314.9,1339.84 1317.1,1339.88 1319.3,1339.92 1321.5,1339.96 1323.7,1340 1325.9,1340.04 1328.1,1340.08 1330.29,1340.12 1332.49,1340.16 1334.69,1340.19 1336.89,1340.23 1339.09,1340.27 1341.29,1340.31 1343.49,1340.34 1345.69,1340.38 1347.88,1340.42 1350.08,1340.45 1352.28,1340.49 1354.48,1340.52 1356.68,1340.56 1358.88,1340.59 1361.08,1340.62 1363.28,1340.66 1365.48,1340.69 1367.67,1340.72 1369.87,1340.76 1372.07,1340.79 1374.27,1340.82 1376.47,1340.85 1378.67,1340.88 1380.87,1340.92 1383.07,1340.95 1385.27,1340.98 1387.46,1341.01 1389.66,1341.04 1391.86,1341.07 1394.06,1341.09 1396.26,1341.12 1398.46,1341.15 1400.66,1341.18 1402.86,1341.21 1405.05,1341.24 1407.25,1341.26 1409.45,1341.29 1411.65,1341.32 1413.85,1341.34 1416.05,1341.37 1418.25,1341.4 1420.45,1341.42 1422.65,1341.45 1424.84,1341.47 1427.04,1341.5 1429.24,1341.52 1431.44,1341.55 1433.64,1341.57 1435.84,1341.6 1438.04,1341.62 1440.24,1341.64 1442.44,1341.67 1444.63,1341.69 1446.83,1341.71 1449.03,1341.74 1451.23,1341.76 1453.43,1341.78 1455.63,1341.8 1457.83,1341.83 1460.03,1341.85 1462.22,1341.87 1464.42,1341.89 1466.62,1341.91 1468.82,1341.93 1471.02,1341.95 1473.22,1341.97 1475.42,1341.99 1477.62,1342.01 1479.82,1342.03 1482.01,1342.05 1484.21,1342.07 1486.41,1342.09 1488.61,1342.11 1490.81,1342.13 1493.01,1342.15 1495.21,1342.17 1497.41,1342.18 1499.6,1342.2 1501.8,1342.22 1504,1342.24 1506.2,1342.26 1508.4,1342.27 1510.6,1342.29 1512.8,1342.31 1515,1342.32 1517.2,1342.34 1519.39,1342.36 1521.59,1342.37 1523.79,1342.39 1525.99,1342.41 1528.19,1342.42 1530.39,1342.44 1532.59,1342.45 1534.79,1342.47 1536.99,1342.48 1539.18,1342.5 1541.38,1342.51 1543.58,1342.53 1545.78,1342.54 1547.98,1342.56 1550.18,1342.57 1552.38,1342.59 1554.58,1342.6 1556.77,1342.61 1558.97,1342.63 1561.17,1342.64 1563.37,1342.65 1565.57,1342.67 1567.77,1342.68 1569.97,1342.69 1572.17,1342.71 1574.37,1342.72 1576.56,1342.73 1578.76,1342.75 1580.96,1342.76 1583.16,1342.77 1585.36,1342.78 1587.56,1342.79 1589.76,1342.81 1591.96,1342.82 1594.16,1342.83 1596.35,1342.84 1598.55,1342.85 1600.75,1342.86 1602.95,1342.88 1605.15,1342.89 1607.35,1342.9 1609.55,1342.91 1611.75,1342.92 1613.94,1342.93 1616.14,1342.94 1618.34,1342.95 1620.54,1342.96 1622.74,1342.97 1624.94,1342.98 1627.14,1342.99 1629.34,1343 1631.54,1343.01 1633.73,1343.02 1635.93,1343.03 1638.13,1343.04 1640.33,1343.05 1642.53,1343.06 1644.73,1343.07 1646.93,1343.08 1649.13,1343.09 1651.33,1343.1 1653.52,1343.11 1655.72,1343.11 1657.92,1343.12 1660.12,1343.13 1662.32,1343.14 1664.52,1343.15 1666.72,1343.16 1668.92,1343.17 1671.11,1343.17 1673.31,1343.18 1675.51,1343.19 1677.71,1343.2 1679.91,1343.21 1682.11,1343.21 1684.31,1343.22 1686.51,1343.23 1688.71,1343.24 1690.9,1343.25 1693.1,1343.25 1695.3,1343.26 1697.5,1343.27 1699.7,1343.27 1701.9,1343.28 1704.1,1343.29 1706.3,1343.3 1708.5,1343.3 1710.69,1343.31 1712.89,1343.32 1715.09,1343.32 1717.29,1343.33 1719.49,1343.34 1721.69,1343.34 1723.89,1343.35 1726.09,1343.36 1728.28,1343.36 1730.48,1343.37 1732.68,1343.38 1734.88,1343.38 1737.08,1343.39 1739.28,1343.39 1741.48,1343.4 1743.68,1343.41 1745.88,1343.41 1748.07,1343.42 1750.27,1343.42 1752.47,1343.43 1754.67,1343.44 1756.87,1343.44 1759.07,1343.45 1761.27,1343.45 1763.47,1343.46 1765.66,1343.46 1767.86,1343.47 1770.06,1343.47 1772.26,1343.48 1774.46,1343.48 1776.66,1343.49 1778.86,1343.49 1781.06,1343.5 1783.26,1343.5 1785.45,1343.51 1787.65,1343.51 1789.85,1343.52 1792.05,1343.52 1794.25,1343.53 1796.45,1343.53 1798.65,1343.54 1800.85,1343.54 1803.05,1343.55 1805.24,1343.55 1807.44,1343.55 1809.64,1343.56 1811.84,1343.56 1814.04,1343.57 1816.24,1343.57 1818.44,1343.58 1820.64,1343.58 1822.83,1343.58 1825.03,1343.59 1827.23,1343.59 1829.43,1343.6 1831.63,1343.6 1833.83,1343.6 1836.03,1343.61 1838.23,1343.61 1840.43,1343.62 1842.62,1343.62 1844.82,1343.62 1847.02,1343.63 1849.22,1343.63 1851.42,1343.63 1853.62,1343.64 1855.82,1343.64 1858.02,1343.65 1860.22,1343.65 1862.41,1343.65 1864.61,1343.66 1866.81,1343.66 1869.01,1343.66 1871.21,1343.67 1873.41,1343.67 1875.61,1343.67 1877.81,1343.68 1880,1343.68 1882.2,1343.68 1884.4,1343.69 1886.6,1343.69 1888.8,1343.69 1891,1343.69 1893.2,1343.7 1895.4,1343.7 1897.6,1343.7 1899.79,1343.71 1901.99,1343.71 1904.19,1343.71 1906.39,1343.71 1908.59,1343.72 1910.79,1343.72 1912.99,1343.72 1915.19,1343.73 1917.39,1343.73 1919.58,1343.73 1921.78,1343.73 1923.98,1343.74 1926.18,1343.74 1928.38,1343.74 1930.58,1343.74 1932.78,1343.75 1934.98,1343.75 1937.17,1343.75 1939.37,1343.75 1941.57,1343.76 1943.77,1343.76 1945.97,1343.76 1948.17,1343.76 1950.37,1343.77 1952.57,1343.77 1954.77,1343.77 1956.96,1343.77 1959.16,1343.78 1961.36,1343.78 1963.56,1343.78 1965.76,1343.78 1967.96,1343.78 1970.16,1343.79 1972.36,1343.79 1974.55,1343.79 1976.75,1343.79 1978.95,1343.79 1981.15,1343.8 1983.35,1343.8 1985.55,1343.8 1987.75,1343.8 1989.95,1343.8 1992.15,1343.81 1994.34,1343.81 1996.54,1343.81 1998.74,1343.81 2000.94,1343.81 2003.14,1343.82 2005.34,1343.82 2007.54,1343.82 2009.74,1343.82 2011.94,1343.82 2014.13,1343.82 2016.33,1343.83 2018.53,1343.83 2020.73,1343.83 2022.93,1343.83 2025.13,1343.83 2027.33,1343.83 2029.53,1343.84 2031.72,1343.84 2033.92,1343.84 2036.12,1343.84 2038.32,1343.84 2040.52,1343.84 2042.72,1343.85 2044.92,1343.85 2047.12,1343.85 2049.32,1343.85 2051.51,1343.85 2053.71,1343.85 2055.91,1343.85 2058.11,1343.86 2060.31,1343.86 2062.51,1343.86 2064.71,1343.86 2066.91,1343.86 2069.11,1343.86 2071.3,1343.86 2073.5,1343.87 2075.7,1343.87 2077.9,1343.87 2080.1,1343.87 2082.3,1343.87 2084.5,1343.87 2086.7,1343.87 2088.89,1343.87 2091.09,1343.88 2093.29,1343.88 2095.49,1343.88 2097.69,1343.88 2099.89,1343.88 2102.09,1343.88 2104.29,1343.88 2106.49,1343.88 2108.68,1343.88 2110.88,1343.89 2113.08,1343.89 2115.28,1343.89 2117.48,1343.89 2119.68,1343.89 2121.88,1343.89 2124.08,1343.89 2126.28,1343.89 2128.47,1343.89 2130.67,1343.89 2132.87,1343.9 2135.07,1343.9 2137.27,1343.9 2139.47,1343.9 2141.67,1343.9 2143.87,1343.9 2146.06,1343.9 2148.26,1343.9 2150.46,1343.9 2152.66,1343.9 2154.86,1343.91 2157.06,1343.91 2159.26,1343.91 2161.46,1343.91 2163.66,1343.91 2165.85,1343.91 2168.05,1343.91 2170.25,1343.91 2172.45,1343.91 2174.65,1343.91 2176.85,1343.91 2179.05,1343.92 2181.25,1343.92 2183.45,1343.92 2185.64,1343.92 2187.84,1343.92 2190.04,1343.92 2192.24,1343.92 2194.44,1343.92 2196.64,1343.92 2198.84,1343.92 2201.04,1343.92 2203.23,1343.92 2205.43,1343.92 2207.63,1343.93 2209.83,1343.93 2212.03,1343.93 2214.23,1343.93 2216.43,1343.93 2218.63,1343.93 2220.83,1343.93 2223.02,1343.93 2225.22,1343.93 2227.42,1343.93 2229.62,1343.93 2231.82,1343.93 2234.02,1343.93 2236.22,1343.93 2238.42,1343.93 2240.61,1343.94 2242.81,1343.94 2245.01,1343.94 2247.21,1343.94 2249.41,1343.94 2251.61,1343.94 2253.81,1343.94 2256.01,1343.94 2258.21,1343.94 2260.4,1343.94 2262.6,1343.94 2264.8,1343.94 2267,1343.94 2269.2,1343.94 2271.4,1343.94 2273.6,1343.94 2275.8,1343.94 2278,1343.94 2280.19,1343.95 2282.39,1343.95 2284.59,1343.95 2286.79,1343.95 2288.99,1343.95 2291.19,1343.95 2293.39,1343.95 2295.59,1343.95 2297.78,1343.95 2299.98,1343.95 2302.18,1343.95 2304.38,1343.95 2306.58,1343.95 2308.78,1343.95 2310.98,1343.95 2313.18,1343.95 2315.38,1343.95 2317.57,1343.95 2319.77,1343.95 2321.97,1343.95 2324.17,1343.95 2326.37,1343.95 2328.57,1343.96 2330.77,1343.96 2332.97,1343.96 2335.17,1343.96 2337.36,1343.96 2339.56,1343.96 2341.76,1343.96 2343.96,1343.96 2346.16,1343.96 2348.36,1343.96 2350.56,1343.96 2352.76,1343.96 "/>
<polyline clip-path="url(#clip572)" style="stroke:#e26f46; stroke-linecap:round; stroke-linejoin:round; stroke-width:4; stroke-opacity:1; fill:none" points="156.112,86.1857 158.311,102.08 160.51,117.796 162.709,133.335 164.907,148.7 167.106,163.891 169.305,178.912 171.504,193.764 173.703,208.448 175.902,222.966 178.101,237.321 180.299,251.514 182.498,265.546 184.697,279.42 186.896,293.137 189.095,306.698 191.294,320.106 193.492,333.362 195.691,346.467 197.89,359.424 200.089,372.234 202.288,384.898 204.487,397.418 206.686,409.796 208.884,422.033 211.083,434.13 213.282,446.089 215.481,457.912 217.68,469.6 219.879,481.155 222.077,492.577 224.276,503.869 226.475,515.031 228.674,526.065 230.873,536.973 233.072,547.756 235.27,558.415 237.469,568.951 239.668,579.366 241.867,589.661 244.066,599.838 246.265,609.897 248.464,619.84 250.662,629.668 252.861,639.383 255.06,648.986 257.259,658.477 259.458,667.859 261.657,677.131 263.855,686.297 266.054,695.355 268.253,704.309 270.452,713.159 272.651,721.905 274.85,730.55 277.048,739.094 279.247,747.538 281.446,755.884 283.645,764.132 285.844,772.284 288.043,780.34 290.242,788.302 292.44,796.171 294.639,803.947 296.838,811.632 299.037,819.227 301.236,826.732 303.435,834.148 305.633,841.478 307.832,848.72 310.031,855.877 312.23,862.95 314.429,869.939 316.628,876.845 318.826,883.669 321.025,890.412 323.224,897.075 325.423,903.659 327.622,910.165 329.821,916.593 332.02,922.945 334.218,929.22 336.417,935.421 338.616,941.548 340.815,947.601 343.014,953.582 345.213,959.491 347.411,965.329 349.61,971.097 351.809,976.795 354.008,982.425 356.207,987.987 358.406,993.482 360.604,998.911 362.803,1004.27 365.002,1009.57 367.201,1014.81 369.4,1019.98 371.599,1025.08 373.798,1030.13 375.996,1035.11 378.195,1040.03 380.394,1044.9 382.593,1049.7 384.792,1054.45 386.991,1059.13 389.189,1063.76 391.388,1068.33 393.587,1072.85 395.786,1077.31 397.985,1081.71 400.184,1086.07 402.382,1090.36 404.581,1094.61 406.78,1098.8 408.979,1102.94 411.178,1107.03 413.377,1111.06 415.576,1115.05 417.774,1118.99 419.973,1122.88 422.172,1126.72 424.371,1130.51 426.57,1134.25 428.769,1137.95 430.967,1141.6 433.166,1145.21 435.365,1148.76 437.564,1152.28 439.763,1155.75 441.962,1159.18 444.161,1162.56 446.359,1165.9 448.558,1169.2 450.757,1172.45 452.956,1175.67 455.155,1178.84 457.354,1181.97 459.552,1185.06 461.751,1188.12 463.95,1191.13 466.149,1194.1 468.348,1197.04 470.547,1199.94 472.745,1202.8 474.944,1205.62 477.143,1208.41 479.342,1211.16 481.541,1213.88 483.74,1216.56 485.939,1219.2 488.137,1221.81 490.336,1224.39 492.535,1226.93 494.734,1229.44 496.933,1231.92 499.132,1234.36 501.33,1236.77 503.529,1239.15 505.728,1241.5 507.927,1243.81 510.126,1246.1 512.325,1248.35 514.523,1250.58 516.722,1252.77 518.921,1254.94 521.12,1257.08 523.319,1259.18 525.518,1261.26 527.717,1263.31 529.915,1265.34 532.114,1267.33 534.313,1269.3 536.512,1271.25 538.711,1273.16 540.91,1275.05 543.108,1276.92 545.307,1278.75 547.506,1280.57 549.705,1282.35 551.904,1284.12 554.103,1285.86 556.301,1287.57 558.5,1289.26 560.699,1290.93 562.898,1292.57 565.097,1294.19 567.296,1295.79 569.495,1297.36 571.693,1298.92 573.892,1300.45 576.091,1301.96 578.29,1303.44 580.489,1304.91 582.688,1306.35 584.886,1307.78 587.085,1309.18 589.284,1310.57 591.483,1311.93 593.682,1313.28 595.881,1314.6 598.079,1315.91 600.278,1317.19 602.477,1318.46 604.676,1319.71 606.875,1320.94 609.074,1322.15 611.273,1323.35 613.471,1324.52 615.67,1325.68 617.869,1326.82 620.068,1327.95 622.267,1329.06 624.466,1330.15 626.664,1331.22 628.863,1332.28 631.062,1333.32 633.261,1334.35 635.46,1335.36 637.659,1336.35 639.858,1337.33 642.056,1338.3 644.255,1339.25 646.454,1340.18 648.653,1341.1 650.852,1342.01 653.051,1342.9 655.249,1343.78 657.448,1344.64 659.647,1345.49 661.846,1346.33 664.045,1347.15 666.244,1347.96 668.442,1348.75 670.641,1349.54 672.84,1350.31 675.039,1351.07 677.238,1351.81 679.437,1352.54 681.636,1353.27 683.834,1353.97 686.033,1354.67 688.232,1355.36 690.431,1356.03 692.63,1356.69 694.829,1357.34 697.027,1357.98 699.226,1358.61 701.425,1359.23 703.624,1359.84 705.823,1360.43 708.022,1361.02 710.22,1361.6 712.419,1362.16 714.618,1362.72 716.817,1363.26 719.016,1363.8 721.215,1364.32 723.414,1364.84 725.612,1365.35 727.811,1365.85 730.01,1366.34 732.209,1366.81 734.408,1367.29 736.607,1367.75 738.805,1368.2 741.004,1368.64 743.203,1369.08 745.402,1369.51 747.601,1369.93 749.8,1370.34 751.998,1370.74 754.197,1371.14 756.396,1371.52 758.595,1371.9 760.794,1372.27 762.993,1372.64 765.192,1372.99 767.39,1373.34 769.589,1373.69 771.788,1374.02 773.987,1374.35 776.186,1374.67 778.385,1374.98 780.583,1375.29 782.782,1375.59 784.981,1375.88 787.18,1376.17 789.379,1376.45 791.578,1376.72 793.776,1376.99 795.975,1377.25 798.174,1377.5 800.373,1377.75 802.572,1378 804.771,1378.23 806.97,1378.46 809.168,1378.69 811.367,1378.91 813.566,1379.12 815.765,1379.33 817.964,1379.54 820.163,1379.73 822.361,1379.93 824.56,1380.11 826.759,1380.3 828.958,1380.47 831.157,1380.65 833.356,1380.81 835.554,1380.98 837.753,1381.13 839.952,1381.29 842.151,1381.44 844.35,1381.58 846.549,1381.72 848.748,1381.85 850.946,1381.99 853.145,1382.11 855.344,1382.23 857.543,1382.35 859.742,1382.47 861.941,1382.57 864.139,1382.68 866.338,1382.78 868.537,1382.88 870.736,1382.97 872.935,1383.06 875.134,1383.15 877.333,1383.23 879.531,1383.31 881.73,1383.39 883.929,1383.46 886.128,1383.53 888.327,1383.59 890.526,1383.65 892.724,1383.71 894.923,1383.76 897.122,1383.82 899.321,1383.86 901.52,1383.91 903.719,1383.95 905.917,1383.99 908.116,1384.03 910.315,1384.06 912.514,1384.09 914.713,1384.12 916.912,1384.14 919.111,1384.16 921.309,1384.18 923.508,1384.2 925.707,1384.21 927.906,1384.22 930.105,1384.23 932.304,1384.23 934.502,1384.24 936.701,1384.24 938.9,1384.24 941.099,1384.23 943.298,1384.23 945.497,1384.22 947.695,1384.21 949.894,1384.19 952.093,1384.18 954.292,1384.16 956.491,1384.14 958.69,1384.12 960.889,1384.09 963.087,1384.07 965.286,1384.04 967.485,1384.01 969.684,1383.98 971.883,1383.95 974.082,1383.91 976.28,1383.87 978.479,1383.83 980.678,1383.79 982.877,1383.75 985.076,1383.71 987.275,1383.66 989.473,1383.61 991.672,1383.57 993.871,1383.52 996.07,1383.46 998.269,1383.41 1000.47,1383.35 1002.67,1383.3 1004.87,1383.24 1007.06,1383.18 1009.26,1383.12 1011.46,1383.06 1013.66,1382.99 1015.86,1382.93 1018.06,1382.86 1020.26,1382.8 1022.46,1382.73 1024.65,1382.66 1026.85,1382.59 1029.05,1382.51 1031.25,1382.44 1033.45,1382.37 1035.65,1382.29 1037.85,1382.21 1040.05,1382.14 1042.25,1382.06 1044.44,1381.98 1046.64,1381.9 1048.84,1381.82 1051.04,1381.73 1053.24,1381.65 1055.44,1381.56 1057.64,1381.48 1059.84,1381.39 1062.04,1381.3 1064.23,1381.22 1066.43,1381.13 1068.63,1381.04 1070.83,1380.95 1073.03,1380.86 1075.23,1380.76 1077.43,1380.67 1079.63,1380.58 1081.82,1380.48 1084.02,1380.39 1086.22,1380.29 1088.42,1380.2 1090.62,1380.1 1092.82,1380 1095.02,1379.9 1097.22,1379.8 1099.42,1379.71 1101.61,1379.61 1103.81,1379.51 1106.01,1379.4 1108.21,1379.3 1110.41,1379.2 1112.61,1379.1 1114.81,1379 1117.01,1378.89 1119.21,1378.79 1121.4,1378.69 1123.6,1378.58 1125.8,1378.48 1128,1378.37 1130.2,1378.26 1132.4,1378.16 1134.6,1378.05 1136.8,1377.95 1138.99,1377.84 1141.19,1377.73 1143.39,1377.62 1145.59,1377.52 1147.79,1377.41 1149.99,1377.3 1152.19,1377.19 1154.39,1377.08 1156.59,1376.97 1158.78,1376.86 1160.98,1376.75 1163.18,1376.64 1165.38,1376.53 1167.58,1376.42 1169.78,1376.31 1171.98,1376.2 1174.18,1376.09 1176.38,1375.98 1178.57,1375.87 1180.77,1375.76 1182.97,1375.65 1185.17,1375.54 1187.37,1375.42 1189.57,1375.31 1191.77,1375.2 1193.97,1375.09 1196.16,1374.98 1198.36,1374.87 1200.56,1374.75 1202.76,1374.64 1204.96,1374.53 1207.16,1374.42 1209.36,1374.3 1211.56,1374.19 1213.76,1374.08 1215.95,1373.97 1218.15,1373.85 1220.35,1373.74 1222.55,1373.63 1224.75,1373.52 1226.95,1373.41 1229.15,1373.29 1231.35,1373.18 1233.55,1373.07 1235.74,1372.96 1237.94,1372.84 1240.14,1372.73 1242.34,1372.62 1244.54,1372.51 1246.74,1372.4 1248.94,1372.28 1251.14,1372.17 1253.33,1372.06 1255.53,1371.95 1257.73,1371.84 1259.93,1371.73 1262.13,1371.62 1264.33,1371.5 1266.53,1371.39 1268.73,1371.28 1270.93,1371.17 1273.12,1371.06 1275.32,1370.95 1277.52,1370.84 1279.72,1370.73 1281.92,1370.62 1284.12,1370.51 1286.32,1370.4 1288.52,1370.29 1290.71,1370.18 1292.91,1370.07 1295.11,1369.97 1297.31,1369.86 1299.51,1369.75 1301.71,1369.64 1303.91,1369.53 1306.11,1369.42 1308.31,1369.32 1310.5,1369.21 1312.7,1369.1 1314.9,1368.99 1317.1,1368.89 1319.3,1368.78 1321.5,1368.68 1323.7,1368.57 1325.9,1368.46 1328.1,1368.36 1330.29,1368.25 1332.49,1368.15 1334.69,1368.04 1336.89,1367.94 1339.09,1367.83 1341.29,1367.73 1343.49,1367.62 1345.69,1367.52 1347.88,1367.42 1350.08,1367.31 1352.28,1367.21 1354.48,1367.11 1356.68,1367 1358.88,1366.9 1361.08,1366.8 1363.28,1366.7 1365.48,1366.6 1367.67,1366.49 1369.87,1366.39 1372.07,1366.29 1374.27,1366.19 1376.47,1366.09 1378.67,1365.99 1380.87,1365.89 1383.07,1365.79 1385.27,1365.69 1387.46,1365.59 1389.66,1365.5 1391.86,1365.4 1394.06,1365.3 1396.26,1365.2 1398.46,1365.1 1400.66,1365.01 1402.86,1364.91 1405.05,1364.81 1407.25,1364.72 1409.45,1364.62 1411.65,1364.53 1413.85,1364.43 1416.05,1364.34 1418.25,1364.24 1420.45,1364.15 1422.65,1364.05 1424.84,1363.96 1427.04,1363.86 1429.24,1363.77 1431.44,1363.68 1433.64,1363.58 1435.84,1363.49 1438.04,1363.4 1440.24,1363.31 1442.44,1363.22 1444.63,1363.13 1446.83,1363.04 1449.03,1362.94 1451.23,1362.85 1453.43,1362.76 1455.63,1362.67 1457.83,1362.59 1460.03,1362.5 1462.22,1362.41 1464.42,1362.32 1466.62,1362.23 1468.82,1362.14 1471.02,1362.06 1473.22,1361.97 1475.42,1361.88 1477.62,1361.8 1479.82,1361.71 1482.01,1361.62 1484.21,1361.54 1486.41,1361.45 1488.61,1361.37 1490.81,1361.28 1493.01,1361.2 1495.21,1361.12 1497.41,1361.03 1499.6,1360.95 1501.8,1360.87 1504,1360.78 1506.2,1360.7 1508.4,1360.62 1510.6,1360.54 1512.8,1360.46 1515,1360.37 1517.2,1360.29 1519.39,1360.21 1521.59,1360.13 1523.79,1360.05 1525.99,1359.97 1528.19,1359.89 1530.39,1359.82 1532.59,1359.74 1534.79,1359.66 1536.99,1359.58 1539.18,1359.5 1541.38,1359.43 1543.58,1359.35 1545.78,1359.27 1547.98,1359.19 1550.18,1359.12 1552.38,1359.04 1554.58,1358.97 1556.77,1358.89 1558.97,1358.82 1561.17,1358.74 1563.37,1358.67 1565.57,1358.59 1567.77,1358.52 1569.97,1358.45 1572.17,1358.37 1574.37,1358.3 1576.56,1358.23 1578.76,1358.16 1580.96,1358.08 1583.16,1358.01 1585.36,1357.94 1587.56,1357.87 1589.76,1357.8 1591.96,1357.73 1594.16,1357.66 1596.35,1357.59 1598.55,1357.52 1600.75,1357.45 1602.95,1357.38 1605.15,1357.31 1607.35,1357.24 1609.55,1357.18 1611.75,1357.11 1613.94,1357.04 1616.14,1356.97 1618.34,1356.91 1620.54,1356.84 1622.74,1356.77 1624.94,1356.71 1627.14,1356.64 1629.34,1356.58 1631.54,1356.51 1633.73,1356.45 1635.93,1356.38 1638.13,1356.32 1640.33,1356.25 1642.53,1356.19 1644.73,1356.13 1646.93,1356.06 1649.13,1356 1651.33,1355.94 1653.52,1355.88 1655.72,1355.81 1657.92,1355.75 1660.12,1355.69 1662.32,1355.63 1664.52,1355.57 1666.72,1355.51 1668.92,1355.45 1671.11,1355.39 1673.31,1355.33 1675.51,1355.27 1677.71,1355.21 1679.91,1355.15 1682.11,1355.09 1684.31,1355.03 1686.51,1354.98 1688.71,1354.92 1690.9,1354.86 1693.1,1354.8 1695.3,1354.75 1697.5,1354.69 1699.7,1354.63 1701.9,1354.58 1704.1,1354.52 1706.3,1354.46 1708.5,1354.41 1710.69,1354.35 1712.89,1354.3 1715.09,1354.24 1717.29,1354.19 1719.49,1354.14 1721.69,1354.08 1723.89,1354.03 1726.09,1353.97 1728.28,1353.92 1730.48,1353.87 1732.68,1353.82 1734.88,1353.76 1737.08,1353.71 1739.28,1353.66 1741.48,1353.61 1743.68,1353.56 1745.88,1353.51 1748.07,1353.45 1750.27,1353.4 1752.47,1353.35 1754.67,1353.3 1756.87,1353.25 1759.07,1353.2 1761.27,1353.15 1763.47,1353.1 1765.66,1353.06 1767.86,1353.01 1770.06,1352.96 1772.26,1352.91 1774.46,1352.86 1776.66,1352.81 1778.86,1352.77 1781.06,1352.72 1783.26,1352.67 1785.45,1352.63 1787.65,1352.58 1789.85,1352.53 1792.05,1352.49 1794.25,1352.44 1796.45,1352.39 1798.65,1352.35 1800.85,1352.3 1803.05,1352.26 1805.24,1352.21 1807.44,1352.17 1809.64,1352.12 1811.84,1352.08 1814.04,1352.04 1816.24,1351.99 1818.44,1351.95 1820.64,1351.91 1822.83,1351.86 1825.03,1351.82 1827.23,1351.78 1829.43,1351.73 1831.63,1351.69 1833.83,1351.65 1836.03,1351.61 1838.23,1351.57 1840.43,1351.53 1842.62,1351.48 1844.82,1351.44 1847.02,1351.4 1849.22,1351.36 1851.42,1351.32 1853.62,1351.28 1855.82,1351.24 1858.02,1351.2 1860.22,1351.16 1862.41,1351.12 1864.61,1351.08 1866.81,1351.04 1869.01,1351.01 1871.21,1350.97 1873.41,1350.93 1875.61,1350.89 1877.81,1350.85 1880,1350.82 1882.2,1350.78 1884.4,1350.74 1886.6,1350.7 1888.8,1350.67 1891,1350.63 1893.2,1350.59 1895.4,1350.56 1897.6,1350.52 1899.79,1350.48 1901.99,1350.45 1904.19,1350.41 1906.39,1350.38 1908.59,1350.34 1910.79,1350.31 1912.99,1350.27 1915.19,1350.24 1917.39,1350.2 1919.58,1350.17 1921.78,1350.13 1923.98,1350.1 1926.18,1350.07 1928.38,1350.03 1930.58,1350 1932.78,1349.97 1934.98,1349.93 1937.17,1349.9 1939.37,1349.87 1941.57,1349.83 1943.77,1349.8 1945.97,1349.77 1948.17,1349.74 1950.37,1349.71 1952.57,1349.67 1954.77,1349.64 1956.96,1349.61 1959.16,1349.58 1961.36,1349.55 1963.56,1349.52 1965.76,1349.49 1967.96,1349.46 1970.16,1349.42 1972.36,1349.39 1974.55,1349.36 1976.75,1349.33 1978.95,1349.3 1981.15,1349.27 1983.35,1349.25 1985.55,1349.22 1987.75,1349.19 1989.95,1349.16 1992.15,1349.13 1994.34,1349.1 1996.54,1349.07 1998.74,1349.04 2000.94,1349.01 2003.14,1348.99 2005.34,1348.96 2007.54,1348.93 2009.74,1348.9 2011.94,1348.88 2014.13,1348.85 2016.33,1348.82 2018.53,1348.79 2020.73,1348.77 2022.93,1348.74 2025.13,1348.71 2027.33,1348.69 2029.53,1348.66 2031.72,1348.63 2033.92,1348.61 2036.12,1348.58 2038.32,1348.56 2040.52,1348.53 2042.72,1348.5 2044.92,1348.48 2047.12,1348.45 2049.32,1348.43 2051.51,1348.4 2053.71,1348.38 2055.91,1348.35 2058.11,1348.33 2060.31,1348.3 2062.51,1348.28 2064.71,1348.26 2066.91,1348.23 2069.11,1348.21 2071.3,1348.18 2073.5,1348.16 2075.7,1348.14 2077.9,1348.11 2080.1,1348.09 2082.3,1348.07 2084.5,1348.04 2086.7,1348.02 2088.89,1348 2091.09,1347.97 2093.29,1347.95 2095.49,1347.93 2097.69,1347.91 2099.89,1347.89 2102.09,1347.86 2104.29,1347.84 2106.49,1347.82 2108.68,1347.8 2110.88,1347.78 2113.08,1347.75 2115.28,1347.73 2117.48,1347.71 2119.68,1347.69 2121.88,1347.67 2124.08,1347.65 2126.28,1347.63 2128.47,1347.61 2130.67,1347.59 2132.87,1347.57 2135.07,1347.55 2137.27,1347.53 2139.47,1347.51 2141.67,1347.49 2143.87,1347.47 2146.06,1347.45 2148.26,1347.43 2150.46,1347.41 2152.66,1347.39 2154.86,1347.37 2157.06,1347.35 2159.26,1347.33 2161.46,1347.31 2163.66,1347.29 2165.85,1347.27 2168.05,1347.25 2170.25,1347.24 2172.45,1347.22 2174.65,1347.2 2176.85,1347.18 2179.05,1347.16 2181.25,1347.14 2183.45,1347.13 2185.64,1347.11 2187.84,1347.09 2190.04,1347.07 2192.24,1347.05 2194.44,1347.04 2196.64,1347.02 2198.84,1347 2201.04,1346.99 2203.23,1346.97 2205.43,1346.95 2207.63,1346.93 2209.83,1346.92 2212.03,1346.9 2214.23,1346.88 2216.43,1346.87 2218.63,1346.85 2220.83,1346.83 2223.02,1346.82 2225.22,1346.8 2227.42,1346.79 2229.62,1346.77 2231.82,1346.75 2234.02,1346.74 2236.22,1346.72 2238.42,1346.71 2240.61,1346.69 2242.81,1346.68 2245.01,1346.66 2247.21,1346.64 2249.41,1346.63 2251.61,1346.61 2253.81,1346.6 2256.01,1346.58 2258.21,1346.57 2260.4,1346.55 2262.6,1346.54 2264.8,1346.53 2267,1346.51 2269.2,1346.5 2271.4,1346.48 2273.6,1346.47 2275.8,1346.45 2278,1346.44 2280.19,1346.42 2282.39,1346.41 2284.59,1346.4 2286.79,1346.38 2288.99,1346.37 2291.19,1346.36 2293.39,1346.34 2295.59,1346.33 2297.78,1346.31 2299.98,1346.3 2302.18,1346.29 2304.38,1346.27 2306.58,1346.26 2308.78,1346.25 2310.98,1346.24 2313.18,1346.22 2315.38,1346.21 2317.57,1346.2 2319.77,1346.18 2321.97,1346.17 2324.17,1346.16 2326.37,1346.15 2328.57,1346.13 2330.77,1346.12 2332.97,1346.11 2335.17,1346.1 2337.36,1346.08 2339.56,1346.07 2341.76,1346.06 2343.96,1346.05 2346.16,1346.04 2348.36,1346.03 2350.56,1346.01 2352.76,1346 "/>
<path clip-path="url(#clip570)" d="M1800.47 248.629 L2279.53 248.629 L2279.53 93.1086 L1800.47 93.1086  Z" fill="#ffffff" fill-rule="evenodd" fill-opacity="1"/>
<polyline clip-path="url(#clip570)" style="stroke:#000000; stroke-linecap:round; stroke-linejoin:round; stroke-width:4; stroke-opacity:1; fill:none" points="1800.47,248.629 2279.53,248.629 2279.53,93.1086 1800.47,93.1086 1800.47,248.629 "/>
<polyline clip-path="url(#clip570)" style="stroke:#009af9; stroke-linecap:round; stroke-linejoin:round; stroke-width:4; stroke-opacity:1; fill:none" points="1824.88,144.949 1971.32,144.949 "/>
<path clip-path="url(#clip570)" d="M1995.73 136.303 L2000.24 136.303 L2008.35 158.062 L2016.45 136.303 L2020.96 136.303 L2011.24 162.229 L2005.45 162.229 L1995.73 136.303 Z" fill="#000000" fill-rule="nonzero" fill-opacity="1" /><path clip-path="url(#clip570)" d="M2028.25 158.293 L2035.89 158.293 L2035.89 131.928 L2027.58 133.595 L2027.58 129.335 L2035.85 127.669 L2040.52 127.669 L2040.52 158.293 L2048.16 158.293 L2048.16 162.229 L2028.25 162.229 L2028.25 158.293 Z" fill="#000000" fill-rule="nonzero" fill-opacity="1" /><path clip-path="url(#clip570)" d="M2066.26 145.585 L2066.26 152.807 L2074.39 152.807 L2074.39 155.006 L2066.26 155.006 L2066.26 162.229 L2063.83 162.229 L2063.83 155.006 L2055.71 155.006 L2055.71 152.807 L2063.83 152.807 L2063.83 145.585 L2066.26 145.585 Z" fill="#000000" fill-rule="nonzero" fill-opacity="1" /><path clip-path="url(#clip570)" d="M2098.55 137.067 L2098.55 141.094 Q2096.75 140.169 2094.8 139.706 Q2092.86 139.243 2090.78 139.243 Q2087.61 139.243 2086.01 140.215 Q2084.43 141.187 2084.43 143.131 Q2084.43 144.613 2085.57 145.469 Q2086.7 146.303 2090.13 147.067 L2091.59 147.391 Q2096.12 148.363 2098.02 150.145 Q2099.94 151.905 2099.94 155.076 Q2099.94 158.687 2097.07 160.793 Q2094.23 162.9 2089.23 162.9 Q2087.14 162.9 2084.87 162.483 Q2082.63 162.09 2080.13 161.28 L2080.13 156.881 Q2082.49 158.108 2084.78 158.733 Q2087.07 159.335 2089.32 159.335 Q2092.33 159.335 2093.95 158.317 Q2095.57 157.275 2095.57 155.4 Q2095.57 153.664 2094.39 152.738 Q2093.23 151.812 2089.27 150.956 L2087.79 150.608 Q2083.83 149.775 2082.07 148.062 Q2080.31 146.326 2080.31 143.317 Q2080.31 139.659 2082.91 137.669 Q2085.5 135.678 2090.27 135.678 Q2092.63 135.678 2094.71 136.025 Q2096.79 136.372 2098.55 137.067 Z" fill="#000000" fill-rule="nonzero" fill-opacity="1" /><path clip-path="url(#clip570)" d="M2110.94 128.942 L2110.94 136.303 L2119.71 136.303 L2119.71 139.613 L2110.94 139.613 L2110.94 153.687 Q2110.94 156.858 2111.79 157.761 Q2112.67 158.664 2115.34 158.664 L2119.71 158.664 L2119.71 162.229 L2115.34 162.229 Q2110.41 162.229 2108.53 160.4 Q2106.66 158.548 2106.66 153.687 L2106.66 139.613 L2103.53 139.613 L2103.53 136.303 L2106.66 136.303 L2106.66 128.942 L2110.94 128.942 Z" fill="#000000" fill-rule="nonzero" fill-opacity="1" /><path clip-path="url(#clip570)" d="M2135.36 139.289 Q2131.93 139.289 2129.94 141.974 Q2127.95 144.636 2127.95 149.289 Q2127.95 153.942 2129.92 156.627 Q2131.91 159.289 2135.36 159.289 Q2138.76 159.289 2140.75 156.604 Q2142.74 153.918 2142.74 149.289 Q2142.74 144.682 2140.75 141.997 Q2138.76 139.289 2135.36 139.289 M2135.36 135.678 Q2140.91 135.678 2144.09 139.289 Q2147.26 142.9 2147.26 149.289 Q2147.26 155.655 2144.09 159.289 Q2140.91 162.9 2135.36 162.9 Q2129.78 162.9 2126.61 159.289 Q2123.46 155.655 2123.46 149.289 Q2123.46 142.9 2126.61 139.289 Q2129.78 135.678 2135.36 135.678 Z" fill="#000000" fill-rule="nonzero" fill-opacity="1" /><path clip-path="url(#clip570)" d="M2169.34 140.284 Q2168.62 139.868 2167.77 139.682 Q2166.93 139.474 2165.91 139.474 Q2162.3 139.474 2160.36 141.835 Q2158.44 144.173 2158.44 148.571 L2158.44 162.229 L2154.16 162.229 L2154.16 136.303 L2158.44 136.303 L2158.44 140.331 Q2159.78 137.969 2161.93 136.835 Q2164.09 135.678 2167.16 135.678 Q2167.6 135.678 2168.14 135.747 Q2168.67 135.794 2169.32 135.909 L2169.34 140.284 Z" fill="#000000" fill-rule="nonzero" fill-opacity="1" /><path clip-path="url(#clip570)" d="M2185.59 149.196 Q2180.43 149.196 2178.44 150.377 Q2176.45 151.557 2176.45 154.405 Q2176.45 156.673 2177.93 158.016 Q2179.43 159.335 2182 159.335 Q2185.54 159.335 2187.67 156.835 Q2189.83 154.312 2189.83 150.145 L2189.83 149.196 L2185.59 149.196 M2194.09 147.437 L2194.09 162.229 L2189.83 162.229 L2189.83 158.293 Q2188.37 160.655 2186.19 161.789 Q2184.02 162.9 2180.87 162.9 Q2176.89 162.9 2174.53 160.678 Q2172.19 158.432 2172.19 154.682 Q2172.19 150.307 2175.1 148.085 Q2178.04 145.863 2183.85 145.863 L2189.83 145.863 L2189.83 145.446 Q2189.83 142.507 2187.88 140.909 Q2185.96 139.289 2182.47 139.289 Q2180.24 139.289 2178.14 139.821 Q2176.03 140.354 2174.09 141.419 L2174.09 137.483 Q2176.42 136.581 2178.62 136.141 Q2180.82 135.678 2182.91 135.678 Q2188.53 135.678 2191.31 138.594 Q2194.09 141.511 2194.09 147.437 Z" fill="#000000" fill-rule="nonzero" fill-opacity="1" /><path clip-path="url(#clip570)" d="M2219.92 148.965 Q2219.92 144.335 2218 141.789 Q2216.1 139.243 2212.65 139.243 Q2209.22 139.243 2207.3 141.789 Q2205.41 144.335 2205.41 148.965 Q2205.41 153.571 2207.3 156.118 Q2209.22 158.664 2212.65 158.664 Q2216.1 158.664 2218 156.118 Q2219.92 153.571 2219.92 148.965 M2224.18 159.011 Q2224.18 165.631 2221.24 168.849 Q2218.3 172.09 2212.23 172.09 Q2209.99 172.09 2208 171.742 Q2206.01 171.418 2204.13 170.724 L2204.13 166.58 Q2206.01 167.599 2207.84 168.085 Q2209.66 168.571 2211.56 168.571 Q2215.75 168.571 2217.84 166.372 Q2219.92 164.196 2219.92 159.775 L2219.92 157.668 Q2218.6 159.96 2216.54 161.094 Q2214.48 162.229 2211.61 162.229 Q2206.84 162.229 2203.92 158.594 Q2201.01 154.96 2201.01 148.965 Q2201.01 142.946 2203.92 139.312 Q2206.84 135.678 2211.61 135.678 Q2214.48 135.678 2216.54 136.812 Q2218.6 137.946 2219.92 140.238 L2219.92 136.303 L2224.18 136.303 L2224.18 159.011 Z" fill="#000000" fill-rule="nonzero" fill-opacity="1" /><path clip-path="url(#clip570)" d="M2255.13 148.201 L2255.13 150.284 L2235.54 150.284 Q2235.82 154.682 2238.18 156.997 Q2240.57 159.289 2244.8 159.289 Q2247.26 159.289 2249.55 158.687 Q2251.86 158.085 2254.13 156.881 L2254.13 160.909 Q2251.84 161.881 2249.43 162.391 Q2247.03 162.9 2244.55 162.9 Q2238.34 162.9 2234.71 159.289 Q2231.1 155.678 2231.1 149.52 Q2231.1 143.155 2234.53 139.428 Q2237.97 135.678 2243.81 135.678 Q2249.04 135.678 2252.07 139.057 Q2255.13 142.414 2255.13 148.201 M2250.87 146.951 Q2250.82 143.456 2248.9 141.372 Q2247 139.289 2243.85 139.289 Q2240.29 139.289 2238.14 141.303 Q2236.01 143.317 2235.68 146.974 L2250.87 146.951 Z" fill="#000000" fill-rule="nonzero" fill-opacity="1" /><polyline clip-path="url(#clip570)" style="stroke:#e26f46; stroke-linecap:round; stroke-linejoin:round; stroke-width:4; stroke-opacity:1; fill:none" points="1824.88,196.789 1971.32,196.789 "/>
<path clip-path="url(#clip570)" d="M1995.73 188.143 L2000.24 188.143 L2008.35 209.902 L2016.45 188.143 L2020.96 188.143 L2011.24 214.069 L2005.45 214.069 L1995.73 188.143 Z" fill="#000000" fill-rule="nonzero" fill-opacity="1" /><path clip-path="url(#clip570)" d="M2027.49 179.509 L2045.85 179.509 L2045.85 183.444 L2031.77 183.444 L2031.77 191.916 Q2032.79 191.569 2033.81 191.407 Q2034.83 191.222 2035.85 191.222 Q2041.63 191.222 2045.01 194.393 Q2048.39 197.564 2048.39 202.981 Q2048.39 208.559 2044.92 211.661 Q2041.45 214.74 2035.13 214.74 Q2032.95 214.74 2030.68 214.37 Q2028.44 213.999 2026.03 213.258 L2026.03 208.559 Q2028.11 209.694 2030.34 210.249 Q2032.56 210.805 2035.04 210.805 Q2039.04 210.805 2041.38 208.698 Q2043.72 206.592 2043.72 202.981 Q2043.72 199.37 2041.38 197.263 Q2039.04 195.157 2035.04 195.157 Q2033.16 195.157 2031.29 195.573 Q2029.43 195.99 2027.49 196.87 L2027.49 179.509 Z" fill="#000000" fill-rule="nonzero" fill-opacity="1" /><path clip-path="url(#clip570)" d="M2066.26 197.425 L2066.26 204.647 L2074.39 204.647 L2074.39 206.846 L2066.26 206.846 L2066.26 214.069 L2063.83 214.069 L2063.83 206.846 L2055.71 206.846 L2055.71 204.647 L2063.83 204.647 L2063.83 197.425 L2066.26 197.425 Z" fill="#000000" fill-rule="nonzero" fill-opacity="1" /><path clip-path="url(#clip570)" d="M2098.55 188.907 L2098.55 192.934 Q2096.75 192.009 2094.8 191.546 Q2092.86 191.083 2090.78 191.083 Q2087.61 191.083 2086.01 192.055 Q2084.43 193.027 2084.43 194.971 Q2084.43 196.453 2085.57 197.309 Q2086.7 198.143 2090.13 198.907 L2091.59 199.231 Q2096.12 200.203 2098.02 201.985 Q2099.94 203.745 2099.94 206.916 Q2099.94 210.527 2097.07 212.633 Q2094.23 214.74 2089.23 214.74 Q2087.14 214.74 2084.87 214.323 Q2082.63 213.93 2080.13 213.12 L2080.13 208.721 Q2082.49 209.948 2084.78 210.573 Q2087.07 211.175 2089.32 211.175 Q2092.33 211.175 2093.95 210.157 Q2095.57 209.115 2095.57 207.24 Q2095.57 205.504 2094.39 204.578 Q2093.23 203.652 2089.27 202.796 L2087.79 202.448 Q2083.83 201.615 2082.07 199.902 Q2080.31 198.166 2080.31 195.157 Q2080.31 191.499 2082.91 189.509 Q2085.5 187.518 2090.27 187.518 Q2092.63 187.518 2094.71 187.865 Q2096.79 188.212 2098.55 188.907 Z" fill="#000000" fill-rule="nonzero" fill-opacity="1" /><path clip-path="url(#clip570)" d="M2110.94 180.782 L2110.94 188.143 L2119.71 188.143 L2119.71 191.453 L2110.94 191.453 L2110.94 205.527 Q2110.94 208.698 2111.79 209.601 Q2112.67 210.504 2115.34 210.504 L2119.71 210.504 L2119.71 214.069 L2115.34 214.069 Q2110.41 214.069 2108.53 212.24 Q2106.66 210.388 2106.66 205.527 L2106.66 191.453 L2103.53 191.453 L2103.53 188.143 L2106.66 188.143 L2106.66 180.782 L2110.94 180.782 Z" fill="#000000" fill-rule="nonzero" fill-opacity="1" /><path clip-path="url(#clip570)" d="M2135.36 191.129 Q2131.93 191.129 2129.94 193.814 Q2127.95 196.476 2127.95 201.129 Q2127.95 205.782 2129.92 208.467 Q2131.91 211.129 2135.36 211.129 Q2138.76 211.129 2140.75 208.444 Q2142.74 205.758 2142.74 201.129 Q2142.74 196.522 2140.75 193.837 Q2138.76 191.129 2135.36 191.129 M2135.36 187.518 Q2140.91 187.518 2144.09 191.129 Q2147.26 194.74 2147.26 201.129 Q2147.26 207.495 2144.09 211.129 Q2140.91 214.74 2135.36 214.74 Q2129.78 214.74 2126.61 211.129 Q2123.46 207.495 2123.46 201.129 Q2123.46 194.74 2126.61 191.129 Q2129.78 187.518 2135.36 187.518 Z" fill="#000000" fill-rule="nonzero" fill-opacity="1" /><path clip-path="url(#clip570)" d="M2169.34 192.124 Q2168.62 191.708 2167.77 191.522 Q2166.93 191.314 2165.91 191.314 Q2162.3 191.314 2160.36 193.675 Q2158.44 196.013 2158.44 200.411 L2158.44 214.069 L2154.16 214.069 L2154.16 188.143 L2158.44 188.143 L2158.44 192.171 Q2159.78 189.809 2161.93 188.675 Q2164.09 187.518 2167.16 187.518 Q2167.6 187.518 2168.14 187.587 Q2168.67 187.634 2169.32 187.749 L2169.34 192.124 Z" fill="#000000" fill-rule="nonzero" fill-opacity="1" /><path clip-path="url(#clip570)" d="M2185.59 201.036 Q2180.43 201.036 2178.44 202.217 Q2176.45 203.397 2176.45 206.245 Q2176.45 208.513 2177.93 209.856 Q2179.43 211.175 2182 211.175 Q2185.54 211.175 2187.67 208.675 Q2189.83 206.152 2189.83 201.985 L2189.83 201.036 L2185.59 201.036 M2194.09 199.277 L2194.09 214.069 L2189.83 214.069 L2189.83 210.133 Q2188.37 212.495 2186.19 213.629 Q2184.02 214.74 2180.87 214.74 Q2176.89 214.74 2174.53 212.518 Q2172.19 210.272 2172.19 206.522 Q2172.19 202.147 2175.1 199.925 Q2178.04 197.703 2183.85 197.703 L2189.83 197.703 L2189.83 197.286 Q2189.83 194.347 2187.88 192.749 Q2185.96 191.129 2182.47 191.129 Q2180.24 191.129 2178.14 191.661 Q2176.03 192.194 2174.09 193.259 L2174.09 189.323 Q2176.42 188.421 2178.62 187.981 Q2180.82 187.518 2182.91 187.518 Q2188.53 187.518 2191.31 190.434 Q2194.09 193.351 2194.09 199.277 Z" fill="#000000" fill-rule="nonzero" fill-opacity="1" /><path clip-path="url(#clip570)" d="M2219.92 200.805 Q2219.92 196.175 2218 193.629 Q2216.1 191.083 2212.65 191.083 Q2209.22 191.083 2207.3 193.629 Q2205.41 196.175 2205.41 200.805 Q2205.41 205.411 2207.3 207.958 Q2209.22 210.504 2212.65 210.504 Q2216.1 210.504 2218 207.958 Q2219.92 205.411 2219.92 200.805 M2224.18 210.851 Q2224.18 217.471 2221.24 220.689 Q2218.3 223.93 2212.23 223.93 Q2209.99 223.93 2208 223.582 Q2206.01 223.258 2204.13 222.564 L2204.13 218.42 Q2206.01 219.439 2207.84 219.925 Q2209.66 220.411 2211.56 220.411 Q2215.75 220.411 2217.84 218.212 Q2219.92 216.036 2219.92 211.615 L2219.92 209.508 Q2218.6 211.8 2216.54 212.934 Q2214.48 214.069 2211.61 214.069 Q2206.84 214.069 2203.92 210.434 Q2201.01 206.8 2201.01 200.805 Q2201.01 194.786 2203.92 191.152 Q2206.84 187.518 2211.61 187.518 Q2214.48 187.518 2216.54 188.652 Q2218.6 189.786 2219.92 192.078 L2219.92 188.143 L2224.18 188.143 L2224.18 210.851 Z" fill="#000000" fill-rule="nonzero" fill-opacity="1" /><path clip-path="url(#clip570)" d="M2255.13 200.041 L2255.13 202.124 L2235.54 202.124 Q2235.82 206.522 2238.18 208.837 Q2240.57 211.129 2244.8 211.129 Q2247.26 211.129 2249.55 210.527 Q2251.86 209.925 2254.13 208.721 L2254.13 212.749 Q2251.84 213.721 2249.43 214.231 Q2247.03 214.74 2244.55 214.74 Q2238.34 214.74 2234.71 211.129 Q2231.1 207.518 2231.1 201.36 Q2231.1 194.995 2234.53 191.268 Q2237.97 187.518 2243.81 187.518 Q2249.04 187.518 2252.07 190.897 Q2255.13 194.254 2255.13 200.041 M2250.87 198.791 Q2250.82 195.296 2248.9 193.212 Q2247 191.129 2243.85 191.129 Q2240.29 191.129 2238.14 193.143 Q2236.01 195.157 2235.68 198.814 L2250.87 198.791 Z" fill="#000000" fill-rule="nonzero" fill-opacity="1" /></svg>
