<?xml version="1.0" encoding="utf-8"?>
<svg xmlns="http://www.w3.org/2000/svg" xmlns:xlink="http://www.w3.org/1999/xlink" width="600" height="400" viewBox="0 0 2400 1600">
<defs>
  <clipPath id="clip470">
    <rect x="0" y="0" width="2400" height="1600"/>
  </clipPath>
</defs>
<path clip-path="url(#clip470)" d="M0 1600 L2400 1600 L2400 0 L0 0  Z" fill="#ffffff" fill-rule="evenodd" fill-opacity="1"/>
<defs>
  <clipPath id="clip471">
    <rect x="480" y="0" width="1681" height="1600"/>
  </clipPath>
</defs>
<path clip-path="url(#clip470)" d="M194.422 1423.18 L2352.76 1423.18 L2352.76 47.2441 L194.422 47.2441  Z" fill="#ffffff" fill-rule="evenodd" fill-opacity="1"/>
<defs>
  <clipPath id="clip472">
    <rect x="194" y="47" width="2159" height="1377"/>
  </clipPath>
</defs>
<polyline clip-path="url(#clip472)" style="stroke:#000000; stroke-linecap:round; stroke-linejoin:round; stroke-width:2; stroke-opacity:0.1; fill:none" points="194.422,1423.18 194.422,47.2441 "/>
<polyline clip-path="url(#clip472)" style="stroke:#000000; stroke-linecap:round; stroke-linejoin:round; stroke-width:2; stroke-opacity:0.1; fill:none" points="734.006,1423.18 734.006,47.2441 "/>
<polyline clip-path="url(#clip472)" style="stroke:#000000; stroke-linecap:round; stroke-linejoin:round; stroke-width:2; stroke-opacity:0.1; fill:none" points="1273.59,1423.18 1273.59,47.2441 "/>
<polyline clip-path="url(#clip472)" style="stroke:#000000; stroke-linecap:round; stroke-linejoin:round; stroke-width:2; stroke-opacity:0.1; fill:none" points="1813.17,1423.18 1813.17,47.2441 "/>
<polyline clip-path="url(#clip472)" style="stroke:#000000; stroke-linecap:round; stroke-linejoin:round; stroke-width:2; stroke-opacity:0.1; fill:none" points="2352.76,1423.18 2352.76,47.2441 "/>
<polyline clip-path="url(#clip472)" style="stroke:#000000; stroke-linecap:round; stroke-linejoin:round; stroke-width:2; stroke-opacity:0.1; fill:none" points="194.422,1197.98 2352.76,1197.98 "/>
<polyline clip-path="url(#clip472)" style="stroke:#000000; stroke-linecap:round; stroke-linejoin:round; stroke-width:2; stroke-opacity:0.1; fill:none" points="194.422,956.289 2352.76,956.289 "/>
<polyline clip-path="url(#clip472)" style="stroke:#000000; stroke-linecap:round; stroke-linejoin:round; stroke-width:2; stroke-opacity:0.1; fill:none" points="194.422,714.602 2352.76,714.602 "/>
<polyline clip-path="url(#clip472)" style="stroke:#000000; stroke-linecap:round; stroke-linejoin:round; stroke-width:2; stroke-opacity:0.1; fill:none" points="194.422,472.915 2352.76,472.915 "/>
<polyline clip-path="url(#clip472)" style="stroke:#000000; stroke-linecap:round; stroke-linejoin:round; stroke-width:2; stroke-opacity:0.1; fill:none" points="194.422,231.228 2352.76,231.228 "/>
<polyline clip-path="url(#clip470)" style="stroke:#000000; stroke-linecap:round; stroke-linejoin:round; stroke-width:4; stroke-opacity:1; fill:none" points="194.422,1423.18 2352.76,1423.18 "/>
<polyline clip-path="url(#clip470)" style="stroke:#000000; stroke-linecap:round; stroke-linejoin:round; stroke-width:4; stroke-opacity:1; fill:none" points="194.422,1423.18 194.422,1404.28 "/>
<polyline clip-path="url(#clip470)" style="stroke:#000000; stroke-linecap:round; stroke-linejoin:round; stroke-width:4; stroke-opacity:1; fill:none" points="734.006,1423.18 734.006,1404.28 "/>
<polyline clip-path="url(#clip470)" style="stroke:#000000; stroke-linecap:round; stroke-linejoin:round; stroke-width:4; stroke-opacity:1; fill:none" points="1273.59,1423.18 1273.59,1404.28 "/>
<polyline clip-path="url(#clip470)" style="stroke:#000000; stroke-linecap:round; stroke-linejoin:round; stroke-width:4; stroke-opacity:1; fill:none" points="1813.17,1423.18 1813.17,1404.28 "/>
<polyline clip-path="url(#clip470)" style="stroke:#000000; stroke-linecap:round; stroke-linejoin:round; stroke-width:4; stroke-opacity:1; fill:none" points="2352.76,1423.18 2352.76,1404.28 "/>
<path clip-path="url(#clip470)" d="M171.806 1454.1 Q168.195 1454.1 166.367 1457.66 Q164.561 1461.2 164.561 1468.33 Q164.561 1475.44 166.367 1479.01 Q168.195 1482.55 171.806 1482.55 Q175.441 1482.55 177.246 1479.01 Q179.075 1475.44 179.075 1468.33 Q179.075 1461.2 177.246 1457.66 Q175.441 1454.1 171.806 1454.1 M171.806 1450.39 Q177.617 1450.39 180.672 1455 Q183.751 1459.58 183.751 1468.33 Q183.751 1477.06 180.672 1481.67 Q177.617 1486.25 171.806 1486.25 Q165.996 1486.25 162.918 1481.67 Q159.862 1477.06 159.862 1468.33 Q159.862 1459.58 162.918 1455 Q165.996 1450.39 171.806 1450.39 Z" fill="#000000" fill-rule="nonzero" fill-opacity="1" /><path clip-path="url(#clip470)" d="M191.968 1479.7 L196.853 1479.7 L196.853 1485.58 L191.968 1485.58 L191.968 1479.7 Z" fill="#000000" fill-rule="nonzero" fill-opacity="1" /><path clip-path="url(#clip470)" d="M217.038 1454.1 Q213.427 1454.1 211.598 1457.66 Q209.792 1461.2 209.792 1468.33 Q209.792 1475.44 211.598 1479.01 Q213.427 1482.55 217.038 1482.55 Q220.672 1482.55 222.478 1479.01 Q224.306 1475.44 224.306 1468.33 Q224.306 1461.2 222.478 1457.66 Q220.672 1454.1 217.038 1454.1 M217.038 1450.39 Q222.848 1450.39 225.903 1455 Q228.982 1459.58 228.982 1468.33 Q228.982 1477.06 225.903 1481.67 Q222.848 1486.25 217.038 1486.25 Q211.228 1486.25 208.149 1481.67 Q205.093 1477.06 205.093 1468.33 Q205.093 1459.58 208.149 1455 Q211.228 1450.39 217.038 1450.39 Z" fill="#000000" fill-rule="nonzero" fill-opacity="1" /><path clip-path="url(#clip470)" d="M711.888 1454.1 Q708.277 1454.1 706.448 1457.66 Q704.642 1461.2 704.642 1468.33 Q704.642 1475.44 706.448 1479.01 Q708.277 1482.55 711.888 1482.55 Q715.522 1482.55 717.327 1479.01 Q719.156 1475.44 719.156 1468.33 Q719.156 1461.2 717.327 1457.66 Q715.522 1454.1 711.888 1454.1 M711.888 1450.39 Q717.698 1450.39 720.753 1455 Q723.832 1459.58 723.832 1468.33 Q723.832 1477.06 720.753 1481.67 Q717.698 1486.25 711.888 1486.25 Q706.077 1486.25 702.999 1481.67 Q699.943 1477.06 699.943 1468.33 Q699.943 1459.58 702.999 1455 Q706.077 1450.39 711.888 1450.39 Z" fill="#000000" fill-rule="nonzero" fill-opacity="1" /><path clip-path="url(#clip470)" d="M732.05 1479.7 L736.934 1479.7 L736.934 1485.58 L732.05 1485.58 L732.05 1479.7 Z" fill="#000000" fill-rule="nonzero" fill-opacity="1" /><path clip-path="url(#clip470)" d="M747.165 1451.02 L765.522 1451.02 L765.522 1454.96 L751.448 1454.96 L751.448 1463.43 Q752.466 1463.08 753.485 1462.92 Q754.503 1462.73 755.522 1462.73 Q761.309 1462.73 764.688 1465.9 Q768.068 1469.08 768.068 1474.49 Q768.068 1480.07 764.596 1483.17 Q761.123 1486.25 754.804 1486.25 Q752.628 1486.25 750.36 1485.88 Q748.114 1485.51 745.707 1484.77 L745.707 1480.07 Q747.79 1481.2 750.012 1481.76 Q752.235 1482.32 754.711 1482.32 Q758.716 1482.32 761.054 1480.21 Q763.392 1478.1 763.392 1474.49 Q763.392 1470.88 761.054 1468.77 Q758.716 1466.67 754.711 1466.67 Q752.836 1466.67 750.961 1467.08 Q749.11 1467.5 747.165 1468.38 L747.165 1451.02 Z" fill="#000000" fill-rule="nonzero" fill-opacity="1" /><path clip-path="url(#clip470)" d="M1240.74 1481.64 L1248.38 1481.64 L1248.38 1455.28 L1240.07 1456.95 L1240.07 1452.69 L1248.33 1451.02 L1253.01 1451.02 L1253.01 1481.64 L1260.65 1481.64 L1260.65 1485.58 L1240.74 1485.58 L1240.74 1481.64 Z" fill="#000000" fill-rule="nonzero" fill-opacity="1" /><path clip-path="url(#clip470)" d="M1270.09 1479.7 L1274.98 1479.7 L1274.98 1485.58 L1270.09 1485.58 L1270.09 1479.7 Z" fill="#000000" fill-rule="nonzero" fill-opacity="1" /><path clip-path="url(#clip470)" d="M1295.16 1454.1 Q1291.55 1454.1 1289.72 1457.66 Q1287.92 1461.2 1287.92 1468.33 Q1287.92 1475.44 1289.72 1479.01 Q1291.55 1482.55 1295.16 1482.55 Q1298.8 1482.55 1300.6 1479.01 Q1302.43 1475.44 1302.43 1468.33 Q1302.43 1461.2 1300.6 1457.66 Q1298.8 1454.1 1295.16 1454.1 M1295.16 1450.39 Q1300.97 1450.39 1304.03 1455 Q1307.11 1459.58 1307.11 1468.33 Q1307.11 1477.06 1304.03 1481.67 Q1300.97 1486.25 1295.16 1486.25 Q1289.35 1486.25 1286.27 1481.67 Q1283.22 1477.06 1283.22 1468.33 Q1283.22 1459.58 1286.27 1455 Q1289.35 1450.39 1295.16 1450.39 Z" fill="#000000" fill-rule="nonzero" fill-opacity="1" /><path clip-path="url(#clip470)" d="M1780.82 1481.64 L1788.46 1481.64 L1788.46 1455.28 L1780.15 1456.95 L1780.15 1452.69 L1788.42 1451.02 L1793.09 1451.02 L1793.09 1481.64 L1800.73 1481.64 L1800.73 1485.58 L1780.82 1485.58 L1780.82 1481.64 Z" fill="#000000" fill-rule="nonzero" fill-opacity="1" /><path clip-path="url(#clip470)" d="M1810.17 1479.7 L1815.06 1479.7 L1815.06 1485.58 L1810.17 1485.58 L1810.17 1479.7 Z" fill="#000000" fill-rule="nonzero" fill-opacity="1" /><path clip-path="url(#clip470)" d="M1825.29 1451.02 L1843.65 1451.02 L1843.65 1454.96 L1829.57 1454.96 L1829.57 1463.43 Q1830.59 1463.08 1831.61 1462.92 Q1832.63 1462.73 1833.65 1462.73 Q1839.43 1462.73 1842.81 1465.9 Q1846.19 1469.08 1846.19 1474.49 Q1846.19 1480.07 1842.72 1483.17 Q1839.25 1486.25 1832.93 1486.25 Q1830.75 1486.25 1828.48 1485.88 Q1826.24 1485.51 1823.83 1484.77 L1823.83 1480.07 Q1825.92 1481.2 1828.14 1481.76 Q1830.36 1482.32 1832.84 1482.32 Q1836.84 1482.32 1839.18 1480.21 Q1841.52 1478.1 1841.52 1474.49 Q1841.52 1470.88 1839.18 1468.77 Q1836.84 1466.67 1832.84 1466.67 Q1830.96 1466.67 1829.09 1467.08 Q1827.23 1467.5 1825.29 1468.38 L1825.29 1451.02 Z" fill="#000000" fill-rule="nonzero" fill-opacity="1" /><path clip-path="url(#clip470)" d="M2323.99 1481.64 L2340.31 1481.64 L2340.31 1485.58 L2318.37 1485.58 L2318.37 1481.64 Q2321.03 1478.89 2325.61 1474.26 Q2330.22 1469.61 2331.4 1468.27 Q2333.65 1465.74 2334.53 1464.01 Q2335.43 1462.25 2335.43 1460.56 Q2335.43 1457.8 2333.49 1456.07 Q2331.56 1454.33 2328.46 1454.33 Q2326.26 1454.33 2323.81 1455.09 Q2321.38 1455.86 2318.6 1457.41 L2318.6 1452.69 Q2321.43 1451.55 2323.88 1450.97 Q2326.33 1450.39 2328.37 1450.39 Q2333.74 1450.39 2336.93 1453.08 Q2340.13 1455.77 2340.13 1460.26 Q2340.13 1462.39 2339.32 1464.31 Q2338.53 1466.2 2336.42 1468.8 Q2335.85 1469.47 2332.74 1472.69 Q2329.64 1475.88 2323.99 1481.64 Z" fill="#000000" fill-rule="nonzero" fill-opacity="1" /><path clip-path="url(#clip470)" d="M2350.13 1479.7 L2355.01 1479.7 L2355.01 1485.58 L2350.13 1485.58 L2350.13 1479.7 Z" fill="#000000" fill-rule="nonzero" fill-opacity="1" /><path clip-path="url(#clip470)" d="M2375.2 1454.1 Q2371.59 1454.1 2369.76 1457.66 Q2367.95 1461.2 2367.95 1468.33 Q2367.95 1475.44 2369.76 1479.01 Q2371.59 1482.55 2375.2 1482.55 Q2378.83 1482.55 2380.64 1479.01 Q2382.47 1475.44 2382.47 1468.33 Q2382.47 1461.2 2380.64 1457.66 Q2378.83 1454.1 2375.2 1454.1 M2375.2 1450.39 Q2381.01 1450.39 2384.06 1455 Q2387.14 1459.58 2387.14 1468.33 Q2387.14 1477.06 2384.06 1481.67 Q2381.01 1486.25 2375.2 1486.25 Q2369.39 1486.25 2366.31 1481.67 Q2363.25 1477.06 2363.25 1468.33 Q2363.25 1459.58 2366.31 1455 Q2369.39 1450.39 2375.2 1450.39 Z" fill="#000000" fill-rule="nonzero" fill-opacity="1" /><path clip-path="url(#clip470)" d="M1272.65 1522.27 L1272.65 1532.4 L1284.71 1532.4 L1284.71 1536.95 L1272.65 1536.95 L1272.65 1556.3 Q1272.65 1560.66 1273.83 1561.9 Q1275.04 1563.14 1278.7 1563.14 L1284.71 1563.14 L1284.71 1568.04 L1278.7 1568.04 Q1271.92 1568.04 1269.34 1565.53 Q1266.76 1562.98 1266.76 1556.3 L1266.76 1536.95 L1262.46 1536.95 L1262.46 1532.4 L1266.76 1532.4 L1266.76 1522.27 L1272.65 1522.27 Z" fill="#000000" fill-rule="nonzero" fill-opacity="1" /><polyline clip-path="url(#clip470)" style="stroke:#000000; stroke-linecap:round; stroke-linejoin:round; stroke-width:4; stroke-opacity:1; fill:none" points="194.422,1423.18 194.422,47.2441 "/>
<polyline clip-path="url(#clip470)" style="stroke:#000000; stroke-linecap:round; stroke-linejoin:round; stroke-width:4; stroke-opacity:1; fill:none" points="194.422,1197.98 213.32,1197.98 "/>
<polyline clip-path="url(#clip470)" style="stroke:#000000; stroke-linecap:round; stroke-linejoin:round; stroke-width:4; stroke-opacity:1; fill:none" points="194.422,956.289 213.32,956.289 "/>
<polyline clip-path="url(#clip470)" style="stroke:#000000; stroke-linecap:round; stroke-linejoin:round; stroke-width:4; stroke-opacity:1; fill:none" points="194.422,714.602 213.32,714.602 "/>
<polyline clip-path="url(#clip470)" style="stroke:#000000; stroke-linecap:round; stroke-linejoin:round; stroke-width:4; stroke-opacity:1; fill:none" points="194.422,472.915 213.32,472.915 "/>
<polyline clip-path="url(#clip470)" style="stroke:#000000; stroke-linecap:round; stroke-linejoin:round; stroke-width:4; stroke-opacity:1; fill:none" points="194.422,231.228 213.32,231.228 "/>
<path clip-path="url(#clip470)" d="M51.4782 1198.43 L81.154 1198.43 L81.154 1202.36 L51.4782 1202.36 L51.4782 1198.43 Z" fill="#000000" fill-rule="nonzero" fill-opacity="1" /><path clip-path="url(#clip470)" d="M92.0567 1211.32 L99.6956 1211.32 L99.6956 1184.95 L91.3854 1186.62 L91.3854 1182.36 L99.6493 1180.7 L104.325 1180.7 L104.325 1211.32 L111.964 1211.32 L111.964 1215.26 L92.0567 1215.26 L92.0567 1211.32 Z" fill="#000000" fill-rule="nonzero" fill-opacity="1" /><path clip-path="url(#clip470)" d="M121.408 1209.38 L126.293 1209.38 L126.293 1215.26 L121.408 1215.26 L121.408 1209.38 Z" fill="#000000" fill-rule="nonzero" fill-opacity="1" /><path clip-path="url(#clip470)" d="M146.478 1183.77 Q142.867 1183.77 141.038 1187.34 Q139.232 1190.88 139.232 1198.01 Q139.232 1205.12 141.038 1208.68 Q142.867 1212.22 146.478 1212.22 Q150.112 1212.22 151.918 1208.68 Q153.746 1205.12 153.746 1198.01 Q153.746 1190.88 151.918 1187.34 Q150.112 1183.77 146.478 1183.77 M146.478 1180.07 Q152.288 1180.07 155.343 1184.68 Q158.422 1189.26 158.422 1198.01 Q158.422 1206.74 155.343 1211.34 Q152.288 1215.93 146.478 1215.93 Q140.668 1215.93 137.589 1211.34 Q134.533 1206.74 134.533 1198.01 Q134.533 1189.26 137.589 1184.68 Q140.668 1180.07 146.478 1180.07 Z" fill="#000000" fill-rule="nonzero" fill-opacity="1" /><path clip-path="url(#clip470)" d="M51.5708 956.74 L81.2466 956.74 L81.2466 960.675 L51.5708 960.675 L51.5708 956.74 Z" fill="#000000" fill-rule="nonzero" fill-opacity="1" /><path clip-path="url(#clip470)" d="M101.339 942.087 Q97.728 942.087 95.8993 945.652 Q94.0937 949.194 94.0937 956.323 Q94.0937 963.43 95.8993 966.994 Q97.728 970.536 101.339 970.536 Q104.973 970.536 106.779 966.994 Q108.608 963.43 108.608 956.323 Q108.608 949.194 106.779 945.652 Q104.973 942.087 101.339 942.087 M101.339 938.384 Q107.149 938.384 110.205 942.99 Q113.283 947.573 113.283 956.323 Q113.283 965.05 110.205 969.657 Q107.149 974.24 101.339 974.24 Q95.5289 974.24 92.4502 969.657 Q89.3947 965.05 89.3947 956.323 Q89.3947 947.573 92.4502 942.99 Q95.5289 938.384 101.339 938.384 Z" fill="#000000" fill-rule="nonzero" fill-opacity="1" /><path clip-path="url(#clip470)" d="M121.501 967.689 L126.385 967.689 L126.385 973.569 L121.501 973.569 L121.501 967.689 Z" fill="#000000" fill-rule="nonzero" fill-opacity="1" /><path clip-path="url(#clip470)" d="M146.57 957.157 Q143.237 957.157 141.316 958.939 Q139.418 960.721 139.418 963.846 Q139.418 966.971 141.316 968.754 Q143.237 970.536 146.57 970.536 Q149.904 970.536 151.825 968.754 Q153.746 966.948 153.746 963.846 Q153.746 960.721 151.825 958.939 Q149.927 957.157 146.57 957.157 M141.894 955.166 Q138.885 954.425 137.195 952.365 Q135.529 950.305 135.529 947.342 Q135.529 943.198 138.469 940.791 Q141.431 938.384 146.57 938.384 Q151.732 938.384 154.672 940.791 Q157.612 943.198 157.612 947.342 Q157.612 950.305 155.922 952.365 Q154.255 954.425 151.269 955.166 Q154.649 955.953 156.524 958.245 Q158.422 960.536 158.422 963.846 Q158.422 968.869 155.343 971.555 Q152.288 974.24 146.57 974.24 Q140.853 974.24 137.774 971.555 Q134.719 968.869 134.719 963.846 Q134.719 960.536 136.617 958.245 Q138.515 955.953 141.894 955.166 M140.181 947.782 Q140.181 950.467 141.848 951.971 Q143.538 953.476 146.57 953.476 Q149.58 953.476 151.269 951.971 Q152.982 950.467 152.982 947.782 Q152.982 945.096 151.269 943.592 Q149.58 942.087 146.57 942.087 Q143.538 942.087 141.848 943.592 Q140.181 945.096 140.181 947.782 Z" fill="#000000" fill-rule="nonzero" fill-opacity="1" /><path clip-path="url(#clip470)" d="M51.3162 715.053 L80.992 715.053 L80.992 718.988 L51.3162 718.988 L51.3162 715.053 Z" fill="#000000" fill-rule="nonzero" fill-opacity="1" /><path clip-path="url(#clip470)" d="M101.084 700.401 Q97.4734 700.401 95.6447 703.965 Q93.8391 707.507 93.8391 714.637 Q93.8391 721.743 95.6447 725.308 Q97.4734 728.849 101.084 728.849 Q104.719 728.849 106.524 725.308 Q108.353 721.743 108.353 714.637 Q108.353 707.507 106.524 703.965 Q104.719 700.401 101.084 700.401 M101.084 696.697 Q106.895 696.697 109.95 701.303 Q113.029 705.887 113.029 714.637 Q113.029 723.363 109.95 727.97 Q106.895 732.553 101.084 732.553 Q95.2743 732.553 92.1956 727.97 Q89.1401 723.363 89.1401 714.637 Q89.1401 705.887 92.1956 701.303 Q95.2743 696.697 101.084 696.697 Z" fill="#000000" fill-rule="nonzero" fill-opacity="1" /><path clip-path="url(#clip470)" d="M121.246 726.002 L126.131 726.002 L126.131 731.882 L121.246 731.882 L121.246 726.002 Z" fill="#000000" fill-rule="nonzero" fill-opacity="1" /><path clip-path="url(#clip470)" d="M146.894 712.738 Q143.746 712.738 141.894 714.891 Q140.066 717.044 140.066 720.794 Q140.066 724.521 141.894 726.697 Q143.746 728.849 146.894 728.849 Q150.043 728.849 151.871 726.697 Q153.723 724.521 153.723 720.794 Q153.723 717.044 151.871 714.891 Q150.043 712.738 146.894 712.738 M156.177 698.086 L156.177 702.345 Q154.417 701.512 152.612 701.072 Q150.83 700.632 149.07 700.632 Q144.441 700.632 141.987 703.757 Q139.556 706.882 139.209 713.201 Q140.575 711.187 142.635 710.123 Q144.695 709.035 147.172 709.035 Q152.38 709.035 155.39 712.206 Q158.422 715.354 158.422 720.794 Q158.422 726.118 155.274 729.336 Q152.126 732.553 146.894 732.553 Q140.899 732.553 137.728 727.97 Q134.556 723.363 134.556 714.637 Q134.556 706.442 138.445 701.581 Q142.334 696.697 148.885 696.697 Q150.644 696.697 152.427 697.044 Q154.232 697.391 156.177 698.086 Z" fill="#000000" fill-rule="nonzero" fill-opacity="1" /><path clip-path="url(#clip470)" d="M50.9921 473.367 L80.6679 473.367 L80.6679 477.302 L50.9921 477.302 L50.9921 473.367 Z" fill="#000000" fill-rule="nonzero" fill-opacity="1" /><path clip-path="url(#clip470)" d="M100.76 458.714 Q97.1493 458.714 95.3206 462.279 Q93.515 465.82 93.515 472.95 Q93.515 480.056 95.3206 483.621 Q97.1493 487.163 100.76 487.163 Q104.395 487.163 106.2 483.621 Q108.029 480.056 108.029 472.95 Q108.029 465.82 106.2 462.279 Q104.395 458.714 100.76 458.714 M100.76 455.01 Q106.571 455.01 109.626 459.617 Q112.705 464.2 112.705 472.95 Q112.705 481.677 109.626 486.283 Q106.571 490.866 100.76 490.866 Q94.9502 490.866 91.8715 486.283 Q88.816 481.677 88.816 472.95 Q88.816 464.2 91.8715 459.617 Q94.9502 455.01 100.76 455.01 Z" fill="#000000" fill-rule="nonzero" fill-opacity="1" /><path clip-path="url(#clip470)" d="M120.922 484.316 L125.807 484.316 L125.807 490.195 L120.922 490.195 L120.922 484.316 Z" fill="#000000" fill-rule="nonzero" fill-opacity="1" /><path clip-path="url(#clip470)" d="M148.839 459.709 L137.033 478.158 L148.839 478.158 L148.839 459.709 M147.612 455.635 L153.492 455.635 L153.492 478.158 L158.422 478.158 L158.422 482.047 L153.492 482.047 L153.492 490.195 L148.839 490.195 L148.839 482.047 L133.237 482.047 L133.237 477.533 L147.612 455.635 Z" fill="#000000" fill-rule="nonzero" fill-opacity="1" /><path clip-path="url(#clip470)" d="M53.0754 231.68 L82.7512 231.68 L82.7512 235.615 L53.0754 235.615 L53.0754 231.68 Z" fill="#000000" fill-rule="nonzero" fill-opacity="1" /><path clip-path="url(#clip470)" d="M102.844 217.027 Q99.2326 217.027 97.4039 220.592 Q95.5984 224.134 95.5984 231.263 Q95.5984 238.37 97.4039 241.934 Q99.2326 245.476 102.844 245.476 Q106.478 245.476 108.283 241.934 Q110.112 238.37 110.112 231.263 Q110.112 224.134 108.283 220.592 Q106.478 217.027 102.844 217.027 M102.844 213.323 Q108.654 213.323 111.709 217.93 Q114.788 222.513 114.788 231.263 Q114.788 239.99 111.709 244.596 Q108.654 249.18 102.844 249.18 Q97.0335 249.18 93.9549 244.596 Q90.8993 239.99 90.8993 231.263 Q90.8993 222.513 93.9549 217.93 Q97.0335 213.323 102.844 213.323 Z" fill="#000000" fill-rule="nonzero" fill-opacity="1" /><path clip-path="url(#clip470)" d="M123.006 242.629 L127.89 242.629 L127.89 248.508 L123.006 248.508 L123.006 242.629 Z" fill="#000000" fill-rule="nonzero" fill-opacity="1" /><path clip-path="url(#clip470)" d="M142.103 244.573 L158.422 244.573 L158.422 248.508 L136.478 248.508 L136.478 244.573 Q139.14 241.819 143.723 237.189 Q148.33 232.536 149.51 231.194 Q151.755 228.671 152.635 226.934 Q153.538 225.175 153.538 223.485 Q153.538 220.731 151.593 218.995 Q149.672 217.259 146.57 217.259 Q144.371 217.259 141.918 218.022 Q139.487 218.786 136.709 220.337 L136.709 215.615 Q139.533 214.481 141.987 213.902 Q144.441 213.323 146.478 213.323 Q151.848 213.323 155.042 216.009 Q158.237 218.694 158.237 223.184 Q158.237 225.314 157.427 227.235 Q156.64 229.134 154.533 231.726 Q153.955 232.397 150.853 235.615 Q147.751 238.809 142.103 244.573 Z" fill="#000000" fill-rule="nonzero" fill-opacity="1" /><polyline clip-path="url(#clip472)" style="stroke:#009af9; stroke-linecap:round; stroke-linejoin:round; stroke-width:4; stroke-opacity:1; fill:none" points="194.422,183.022 196.583,182.058 198.743,181.103 200.904,180.157 203.064,179.221 205.225,178.295 207.385,177.377 209.546,176.469 211.706,175.57 213.867,174.679 216.027,173.798 218.188,172.925 220.348,172.061 222.509,171.206 224.669,170.359 226.83,169.521 228.99,168.69 231.151,167.869 233.311,167.055 235.471,166.25 237.632,165.452 239.792,164.663 241.953,163.881 244.113,163.107 246.274,162.341 248.434,161.582 250.595,160.831 252.755,160.088 254.916,159.352 257.076,158.623 259.237,157.901 261.397,157.187 263.558,156.48 265.718,155.78 267.879,155.086 270.039,154.4 272.2,153.721 274.36,153.048 276.521,152.382 278.681,151.722 280.842,151.07 283.002,150.423 285.163,149.784 287.323,149.15 289.484,148.523 291.644,147.902 293.805,147.287 295.965,146.679 298.126,146.076 300.286,145.479 302.447,144.889 304.607,144.304 306.768,143.725 308.928,143.152 311.089,142.585 313.249,142.023 315.41,141.467 317.57,140.916 319.731,140.371 321.891,139.831 324.052,139.297 326.212,138.768 328.373,138.244 330.533,137.725 332.694,137.212 334.854,136.704 337.015,136.201 339.175,135.702 341.336,135.209 343.496,134.721 345.657,134.237 347.817,133.759 349.978,133.285 352.138,132.816 354.299,132.351 356.459,131.891 358.62,131.436 360.78,130.985 362.941,130.539 365.101,130.097 367.262,129.66 369.422,129.227 371.583,128.798 373.743,128.374 375.904,127.953 378.064,127.537 380.225,127.125 382.385,126.718 384.546,126.314 386.706,125.914 388.867,125.518 391.027,125.127 393.188,124.739 395.348,124.355 397.509,123.974 399.669,123.598 401.83,123.225 403.99,122.856 406.151,122.491 408.311,122.129 410.472,121.771 412.632,121.417 414.793,121.066 416.953,120.718 419.114,120.374 421.274,120.034 423.435,119.697 425.595,119.363 427.755,119.032 429.916,118.705 432.076,118.381 434.237,118.06 436.397,117.743 438.558,117.429 440.718,117.117 442.879,116.809 445.039,116.504 447.2,116.202 449.36,115.903 451.521,115.607 453.681,115.314 455.842,115.024 458.002,114.737 460.163,114.452 462.323,114.171 464.484,113.892 466.644,113.616 468.805,113.343 470.965,113.072 473.126,112.804 475.286,112.539 477.447,112.277 479.607,112.017 481.768,111.759 483.928,111.505 486.089,111.252 488.249,111.003 490.41,110.756 492.57,110.511 494.731,110.268 496.891,110.029 499.052,109.791 501.212,109.556 503.373,109.323 505.533,109.093 507.694,108.864 509.854,108.638 512.015,108.415 514.175,108.193 516.336,107.974 518.496,107.757 520.657,107.542 522.817,107.329 524.978,107.119 527.138,106.91 529.299,106.704 531.459,106.499 533.62,106.297 535.78,106.096 537.941,105.898 540.101,105.702 542.262,105.507 544.422,105.315 546.583,105.124 548.743,104.935 550.904,104.749 553.064,104.564 555.225,104.381 557.385,104.199 559.546,104.02 561.706,103.842 563.867,103.666 566.027,103.492 568.188,103.32 570.348,103.149 572.509,102.98 574.669,102.813 576.83,102.647 578.99,102.483 581.151,102.321 583.311,102.16 585.472,102.001 587.632,101.843 589.793,101.687 591.953,101.533 594.114,101.38 596.274,101.229 598.435,101.079 600.595,100.93 602.756,100.784 604.916,100.638 607.077,100.494 609.237,100.352 611.398,100.21 613.558,100.071 615.718,99.9324 617.879,99.7954 620.039,99.6598 622.2,99.5255 624.36,99.3926 626.521,99.261 628.681,99.1307 630.842,99.0017 633.002,98.874 635.163,98.7476 637.323,98.6224 639.484,98.4985 641.644,98.3758 643.805,98.2543 645.965,98.134 648.126,98.015 650.286,97.8971 652.447,97.7804 654.607,97.6649 656.768,97.5505 658.928,97.4373 661.089,97.3251 663.249,97.2142 665.41,97.1043 667.57,96.9955 669.731,96.8878 671.891,96.7811 674.052,96.6756 676.212,96.5711 678.373,96.4676 680.533,96.3651 682.694,96.2637 684.854,96.1633 687.015,96.0639 689.175,95.9655 691.336,95.868 693.496,95.7716 695.657,95.6761 697.817,95.5815 699.978,95.4879 702.138,95.3952 704.299,95.3034 706.459,95.2126 708.62,95.1226 710.78,95.0336 712.941,94.9454 715.101,94.8581 717.262,94.7717 719.422,94.6862 721.583,94.6015 723.743,94.5176 725.904,94.4346 728.064,94.3524 730.225,94.271 732.385,94.1904 734.546,94.1106 736.706,94.0316 738.867,93.9534 741.027,93.876 743.188,93.7993 745.348,93.7235 747.509,93.6483 749.669,93.5739 751.83,93.5003 753.99,93.4274 756.151,93.3552 758.311,93.2838 760.472,93.213 762.632,93.143 764.793,93.0736 766.953,93.005 769.114,92.937 771.274,92.8697 773.435,92.8031 775.595,92.7371 777.756,92.6718 779.916,92.6072 782.077,92.5432 784.237,92.4798 786.398,92.4171 788.558,92.355 790.719,92.2935 792.879,92.2326 795.04,92.1724 797.2,92.1127 799.361,92.0536 801.521,91.9951 803.681,91.9372 805.842,91.8799 808.002,91.8232 810.163,91.767 812.323,91.7114 814.484,91.6563 816.644,91.6018 818.805,91.5478 820.965,91.4943 823.126,91.4414 825.286,91.389 827.447,91.3372 829.607,91.2858 831.768,91.235 833.928,91.1846 836.089,91.1348 838.249,91.0855 840.41,91.0366 842.57,90.9883 844.731,90.9404 846.891,90.893 849.052,90.846 851.212,90.7996 853.373,90.7536 855.533,90.708 857.694,90.6629 859.854,90.6183 862.015,90.5741 864.175,90.5303 866.336,90.487 868.496,90.4441 870.657,90.4016 872.817,90.3595 874.978,90.3179 877.138,90.2767 879.299,90.2359 881.459,90.1955 883.62,90.1555 885.78,90.1159 887.941,90.0767 890.101,90.0379 892.262,89.9995 894.422,89.9615 896.583,89.9238 898.743,89.8865 900.904,89.8496 903.064,89.8131 905.225,89.7769 907.385,89.7411 909.546,89.7057 911.706,89.6706 913.867,89.6358 916.027,89.6014 918.188,89.5673 920.348,89.5336 922.509,89.5002 924.669,89.4672 926.83,89.4345 928.99,89.4021 931.151,89.37 933.311,89.3383 935.472,89.3068 937.632,89.2757 939.793,89.2449 941.953,89.2144 944.114,89.1842 946.274,89.1543 948.435,89.1247 950.595,89.0954 952.756,89.0663 954.916,89.0376 957.077,89.0092 959.237,88.981 961.398,88.9531 963.558,88.9255 965.719,88.8982 967.879,88.8711 970.04,88.8444 972.2,88.8178 974.361,88.7916 976.521,88.7656 978.682,88.7398 980.842,88.7143 983.003,88.6891 985.163,88.6641 987.324,88.6394 989.484,88.6149 991.645,88.5907 993.805,88.5666 995.965,88.5429 998.126,88.5193 1000.29,88.496 1002.45,88.473 1004.61,88.4501 1006.77,88.4275 1008.93,88.4052 1011.09,88.383 1013.25,88.3611 1015.41,88.3393 1017.57,88.3178 1019.73,88.2965 1021.89,88.2755 1024.05,88.2546 1026.21,88.2339 1028.37,88.2135 1030.53,88.1932 1032.69,88.1732 1034.85,88.1533 1037.01,88.1337 1039.18,88.1143 1041.34,88.095 1043.5,88.0759 1045.66,88.0571 1047.82,88.0384 1049.98,88.0199 1052.14,88.0016 1054.3,87.9834 1056.46,87.9655 1058.62,87.9477 1060.78,87.9301 1062.94,87.9127 1065.1,87.8955 1067.26,87.8784 1069.42,87.8615 1071.58,87.8448 1073.74,87.8282 1075.9,87.8118 1078.06,87.7956 1080.22,87.7795 1082.39,87.7636 1084.55,87.7479 1086.71,87.7323 1088.87,87.7168 1091.03,87.7015 1093.19,87.6864 1095.35,87.6714 1097.51,87.6566 1099.67,87.6419 1101.83,87.6274 1103.99,87.613 1106.15,87.5987 1108.31,87.5846 1110.47,87.5706 1112.63,87.5568 1114.79,87.5431 1116.95,87.5295 1119.11,87.5161 1121.27,87.5028 1123.43,87.4897 1125.6,87.4766 1127.76,87.4637 1129.92,87.4509 1132.08,87.4383 1134.24,87.4258 1136.4,87.4134 1138.56,87.4011 1140.72,87.3889 1142.88,87.3769 1145.04,87.365 1147.2,87.3532 1149.36,87.3415 1151.52,87.3299 1153.68,87.3185 1155.84,87.3072 1158,87.2959 1160.16,87.2848 1162.32,87.2738 1164.48,87.2629 1166.64,87.2521 1168.81,87.2415 1170.97,87.2309 1173.13,87.2204 1175.29,87.2101 1177.45,87.1998 1179.61,87.1897 1181.77,87.1796 1183.93,87.1697 1186.09,87.1598 1188.25,87.1501 1190.41,87.1404 1192.57,87.1308 1194.73,87.1214 1196.89,87.112 1199.05,87.1027 1201.21,87.0936 1203.37,87.0845 1205.53,87.0755 1207.69,87.0666 1209.85,87.0577 1212.01,87.049 1214.18,87.0404 1216.34,87.0318 1218.5,87.0233 1220.66,87.015 1222.82,87.0067 1224.98,86.9984 1227.14,86.9903 1229.3,86.9822 1231.46,86.9743 1233.62,86.9664 1235.78,86.9586 1237.94,86.9508 1240.1,86.9432 1242.26,86.9356 1244.42,86.9281 1246.58,86.9206 1248.74,86.9133 1250.9,86.906 1253.06,86.8988 1255.22,86.8917 1257.39,86.8846 1259.55,86.8776 1261.71,86.8707 1263.87,86.8638 1266.03,86.857 1268.19,86.8503 1270.35,86.8436 1272.51,86.837 1274.67,86.8305 1276.83,86.8241 1278.99,86.8177 1281.15,86.8113 1283.31,86.8051 1285.47,86.7989 1287.63,86.7927 1289.79,86.7866 1291.95,86.7806 1294.11,86.7746 1296.27,86.7687 1298.43,86.7629 1300.6,86.7571 1302.76,86.7513 1304.92,86.7457 1307.08,86.74 1309.24,86.7345 1311.4,86.729 1313.56,86.7235 1315.72,86.7181 1317.88,86.7127 1320.04,86.7074 1322.2,86.7022 1324.36,86.697 1326.52,86.6919 1328.68,86.6868 1330.84,86.6817 1333,86.6767 1335.16,86.6718 1337.32,86.6669 1339.48,86.662 1341.64,86.6572 1343.81,86.6525 1345.97,86.6478 1348.13,86.6431 1350.29,86.6385 1352.45,86.634 1354.61,86.6295 1356.77,86.625 1358.93,86.6206 1361.09,86.6162 1363.25,86.6118 1365.41,86.6075 1367.57,86.6033 1369.73,86.5991 1371.89,86.5949 1374.05,86.5908 1376.21,86.5867 1378.37,86.5827 1380.53,86.5787 1382.69,86.5747 1384.85,86.5708 1387.01,86.5669 1389.18,86.563 1391.34,86.5592 1393.5,86.5555 1395.66,86.5517 1397.82,86.5481 1399.98,86.5444 1402.14,86.5408 1404.3,86.5372 1406.46,86.5337 1408.62,86.5301 1410.78,86.5267 1412.94,86.5232 1415.1,86.5198 1417.26,86.5165 1419.42,86.5131 1421.58,86.5098 1423.74,86.5066 1425.9,86.5033 1428.06,86.5001 1430.22,86.4969 1432.39,86.4938 1434.55,86.4907 1436.71,86.4876 1438.87,86.4846 1441.03,86.4816 1443.19,86.4786 1445.35,86.4756 1447.51,86.4727 1449.67,86.4698 1451.83,86.4669 1453.99,86.4641 1456.15,86.4613 1458.31,86.4585 1460.47,86.4557 1462.63,86.453 1464.79,86.4503 1466.95,86.4476 1469.11,86.445 1471.27,86.4424 1473.43,86.4398 1475.6,86.4372 1477.76,86.4347 1479.92,86.4322 1482.08,86.4297 1484.24,86.4272 1486.4,86.4247 1488.56,86.4223 1490.72,86.4199 1492.88,86.4175 1495.04,86.4152 1497.2,86.4129 1499.36,86.4106 1501.52,86.4083 1503.68,86.406 1505.84,86.4038 1508,86.4016 1510.16,86.3994 1512.32,86.3972 1514.48,86.395 1516.64,86.3929 1518.81,86.3908 1520.97,86.3887 1523.13,86.3866 1525.29,86.3846 1527.45,86.3825 1529.61,86.3805 1531.77,86.3785 1533.93,86.3766 1536.09,86.3746 1538.25,86.3727 1540.41,86.3708 1542.57,86.3689 1544.73,86.367 1546.89,86.3651 1549.05,86.3633 1551.21,86.3615 1553.37,86.3597 1555.53,86.3579 1557.69,86.3561 1559.85,86.3544 1562.01,86.3526 1564.18,86.3509 1566.34,86.3492 1568.5,86.3476 1570.66,86.3459 1572.82,86.3442 1574.98,86.3426 1577.14,86.341 1579.3,86.3394 1581.46,86.3378 1583.62,86.3363 1585.78,86.3347 1587.94,86.3332 1590.1,86.3317 1592.26,86.3302 1594.42,86.3287 1596.58,86.3272 1598.74,86.3258 1600.9,86.3243 1603.06,86.3229 1605.22,86.3215 1607.39,86.3201 1609.55,86.3187 1611.71,86.3173 1613.87,86.316 1616.03,86.3146 1618.19,86.3133 1620.35,86.312 1622.51,86.3107 1624.67,86.3094 1626.83,86.3081 1628.99,86.3068 1631.15,86.3056 1633.31,86.3044 1635.47,86.3031 1637.63,86.3019 1639.79,86.3007 1641.95,86.2995 1644.11,86.2984 1646.27,86.2972 1648.43,86.2961 1650.6,86.2949 1652.76,86.2938 1654.92,86.2927 1657.08,86.2916 1659.24,86.2905 1661.4,86.2894 1663.56,86.2883 1665.72,86.2873 1667.88,86.2862 1670.04,86.2852 1672.2,86.2841 1674.36,86.2831 1676.52,86.2821 1678.68,86.2811 1680.84,86.2801 1683,86.2791 1685.16,86.2782 1687.32,86.2772 1689.48,86.2763 1691.64,86.2753 1693.81,86.2744 1695.97,86.2735 1698.13,86.2726 1700.29,86.2716 1702.45,86.2708 1704.61,86.2699 1706.77,86.269 1708.93,86.2681 1711.09,86.2673 1713.25,86.2664 1715.41,86.2656 1717.57,86.2647 1719.73,86.2639 1721.89,86.2631 1724.05,86.2623 1726.21,86.2615 1728.37,86.2607 1730.53,86.2599 1732.69,86.2591 1734.85,86.2583 1737.02,86.2575 1739.18,86.2568 1741.34,86.256 1743.5,86.2553 1745.66,86.2545 1747.82,86.2538 1749.98,86.2531 1752.14,86.2524 1754.3,86.2516 1756.46,86.2509 1758.62,86.2502 1760.78,86.2495 1762.94,86.2489 1765.1,86.2482 1767.26,86.2475 1769.42,86.2468 1771.58,86.2462 1773.74,86.2455 1775.9,86.2449 1778.06,86.2443 1780.22,86.2436 1782.39,86.243 1784.55,86.2424 1786.71,86.2418 1788.87,86.2412 1791.03,86.2405 1793.19,86.24 1795.35,86.2394 1797.51,86.2388 1799.67,86.2382 1801.83,86.2376 1803.99,86.2371 1806.15,86.2365 1808.31,86.2359 1810.47,86.2354 1812.63,86.2349 1814.79,86.2343 1816.95,86.2338 1819.11,86.2333 1821.27,86.2327 1823.43,86.2322 1825.6,86.2317 1827.76,86.2312 1829.92,86.2307 1832.08,86.2302 1834.24,86.2297 1836.4,86.2292 1838.56,86.2287 1840.72,86.2283 1842.88,86.2278 1845.04,86.2273 1847.2,86.2269 1849.36,86.2264 1851.52,86.226 1853.68,86.2255 1855.84,86.2251 1858,86.2246 1860.16,86.2242 1862.32,86.2238 1864.48,86.2233 1866.64,86.2229 1868.81,86.2225 1870.97,86.2221 1873.13,86.2217 1875.29,86.2213 1877.45,86.2209 1879.61,86.2205 1881.77,86.2201 1883.93,86.2197 1886.09,86.2193 1888.25,86.219 1890.41,86.2186 1892.57,86.2182 1894.73,86.2179 1896.89,86.2175 1899.05,86.2171 1901.21,86.2168 1903.37,86.2164 1905.53,86.2161 1907.69,86.2157 1909.85,86.2154 1912.02,86.2151 1914.18,86.2147 1916.34,86.2144 1918.5,86.2141 1920.66,86.2137 1922.82,86.2134 1924.98,86.2131 1927.14,86.2128 1929.3,86.2125 1931.46,86.2122 1933.62,86.2119 1935.78,86.2116 1937.94,86.2113 1940.1,86.211 1942.26,86.2107 1944.42,86.2104 1946.58,86.2101 1948.74,86.2098 1950.9,86.2096 1953.06,86.2093 1955.22,86.209 1957.39,86.2087 1959.55,86.2085 1961.71,86.2082 1963.87,86.2079 1966.03,86.2077 1968.19,86.2074 1970.35,86.2071 1972.51,86.2069 1974.67,86.2066 1976.83,86.2064 1978.99,86.2061 1981.15,86.2059 1983.31,86.2057 1985.47,86.2054 1987.63,86.2052 1989.79,86.2049 1991.95,86.2047 1994.11,86.2045 1996.27,86.2042 1998.43,86.204 2000.6,86.2038 2002.76,86.2036 2004.92,86.2033 2007.08,86.2031 2009.24,86.2029 2011.4,86.2027 2013.56,86.2025 2015.72,86.2022 2017.88,86.202 2020.04,86.2018 2022.2,86.2016 2024.36,86.2014 2026.52,86.2012 2028.68,86.201 2030.84,86.2008 2033,86.2006 2035.16,86.2004 2037.32,86.2002 2039.48,86.2 2041.64,86.1998 2043.81,86.1996 2045.97,86.1995 2048.13,86.1993 2050.29,86.1991 2052.45,86.1989 2054.61,86.1987 2056.77,86.1986 2058.93,86.1984 2061.09,86.1982 2063.25,86.198 2065.41,86.1979 2067.57,86.1977 2069.73,86.1975 2071.89,86.1974 2074.05,86.1972 2076.21,86.197 2078.37,86.1969 2080.53,86.1967 2082.69,86.1965 2084.85,86.1964 2087.02,86.1962 2089.18,86.1961 2091.34,86.1959 2093.5,86.1958 2095.66,86.1956 2097.82,86.1955 2099.98,86.1953 2102.14,86.1952 2104.3,86.1951 2106.46,86.1949 2108.62,86.1948 2110.78,86.1946 2112.94,86.1945 2115.1,86.1944 2117.26,86.1942 2119.42,86.1941 2121.58,86.194 2123.74,86.1938 2125.9,86.1937 2128.06,86.1936 2130.22,86.1935 2132.39,86.1933 2134.55,86.1932 2136.71,86.1931 2138.87,86.193 2141.03,86.1929 2143.19,86.1927 2145.35,86.1926 2147.51,86.1925 2149.67,86.1924 2151.83,86.1923 2153.99,86.1922 2156.15,86.1921 2158.31,86.192 2160.47,86.1919 2162.63,86.1917 2164.79,86.1916 2166.95,86.1915 2169.11,86.1914 2171.27,86.1913 2173.43,86.1912 2175.6,86.1911 2177.76,86.191 2179.92,86.1909 2182.08,86.1908 2184.24,86.1908 2186.4,86.1907 2188.56,86.1906 2190.72,86.1905 2192.88,86.1904 2195.04,86.1903 2197.2,86.1902 2199.36,86.1901 2201.52,86.19 2203.68,86.1899 2205.84,86.1899 2208,86.1898 2210.16,86.1897 2212.32,86.1896 2214.48,86.1895 2216.64,86.1895 2218.81,86.1894 2220.97,86.1893 2223.13,86.1892 2225.29,86.1891 2227.45,86.1891 2229.61,86.189 2231.77,86.1889 2233.93,86.1888 2236.09,86.1888 2238.25,86.1887 2240.41,86.1886 2242.57,86.1886 2244.73,86.1885 2246.89,86.1884 2249.05,86.1883 2251.21,86.1883 2253.37,86.1882 2255.53,86.1881 2257.69,86.1881 2259.85,86.188 2262.02,86.188 2264.18,86.1879 2266.34,86.1878 2268.5,86.1878 2270.66,86.1877 2272.82,86.1876 2274.98,86.1876 2277.14,86.1875 2279.3,86.1875 2281.46,86.1874 2283.62,86.1873 2285.78,86.1873 2287.94,86.1872 2290.1,86.1872 2292.26,86.1871 2294.42,86.187 2296.58,86.187 2298.74,86.1869 2300.9,86.1869 2303.06,86.1868 2305.23,86.1868 2307.39,86.1867 2309.55,86.1867 2311.71,86.1866 2313.87,86.1866 2316.03,86.1865 2318.19,86.1864 2320.35,86.1864 2322.51,86.1863 2324.67,86.1863 2326.83,86.1862 2328.99,86.1862 2331.15,86.1861 2333.31,86.1861 2335.47,86.186 2337.63,86.186 2339.79,86.1859 2341.95,86.1859 2344.11,86.1859 2346.27,86.1858 2348.43,86.1858 2350.6,86.1857 2352.76,86.1857 "/>
<polyline clip-path="url(#clip472)" style="stroke:#e26f46; stroke-linecap:round; stroke-linejoin:round; stroke-width:4; stroke-opacity:1; fill:none" points="194.422,1384.24 196.583,1372.88 198.743,1361.62 200.904,1350.47 203.064,1339.42 205.225,1328.47 207.385,1317.62 209.546,1306.87 211.706,1296.22 213.867,1285.66 216.027,1275.2 218.188,1264.83 220.348,1254.56 222.509,1244.39 224.669,1234.3 226.83,1224.31 228.99,1214.41 231.151,1204.6 233.311,1194.88 235.471,1185.24 237.632,1175.7 239.792,1166.24 241.953,1156.86 244.113,1147.57 246.274,1138.37 248.434,1129.25 250.595,1120.21 252.755,1111.25 254.916,1102.38 257.076,1093.58 259.237,1084.87 261.397,1076.23 263.558,1067.67 265.718,1059.19 267.879,1050.79 270.039,1042.46 272.2,1034.21 274.36,1026.03 276.521,1017.93 278.681,1009.9 280.842,1001.94 283.002,994.051 285.163,986.236 287.323,978.491 289.484,970.816 291.644,963.21 293.805,955.672 295.965,948.203 298.126,940.801 300.286,933.465 302.447,926.196 304.607,918.992 306.768,911.852 308.928,904.777 311.089,897.766 313.249,890.817 315.41,883.931 317.57,877.107 319.731,870.343 321.891,863.641 324.052,856.999 326.212,850.416 328.373,843.892 330.533,837.427 332.694,831.019 334.854,824.669 337.015,818.376 339.175,812.139 341.336,805.958 343.496,799.832 345.657,793.761 347.817,787.744 349.978,781.781 352.138,775.872 354.299,770.015 356.459,764.21 358.62,758.457 360.78,752.756 362.941,747.105 365.101,741.505 367.262,735.954 369.422,730.454 371.583,725.002 373.743,719.598 375.904,714.243 378.064,708.935 380.225,703.675 382.385,698.461 384.546,693.293 386.706,688.172 388.867,683.096 391.027,678.065 393.188,673.078 395.348,668.136 397.509,663.238 399.669,658.383 401.83,653.571 403.99,648.801 406.151,644.074 408.311,639.389 410.472,634.745 412.632,630.142 414.793,625.579 416.953,621.057 419.114,616.575 421.274,612.133 423.435,607.73 425.595,603.365 427.755,599.039 429.916,594.752 432.076,590.502 434.237,586.289 436.397,582.114 438.558,577.975 440.718,573.873 442.879,569.807 445.039,565.777 447.2,561.782 449.36,557.823 451.521,553.898 453.681,550.007 455.842,546.151 458.002,542.329 460.163,538.54 462.323,534.784 464.484,531.062 466.644,527.372 468.805,523.714 470.965,520.088 473.126,516.494 475.286,512.932 477.447,509.4 479.607,505.9 481.768,502.43 483.928,498.99 486.089,495.58 488.249,492.201 490.41,488.85 492.57,485.529 494.731,482.237 496.891,478.973 499.052,475.738 501.212,472.531 503.373,469.352 505.533,466.2 507.694,463.076 509.854,459.979 512.015,456.909 514.175,453.865 516.336,450.848 518.496,447.858 520.657,444.893 522.817,441.953 524.978,439.04 527.138,436.151 529.299,433.288 531.459,430.449 533.62,427.635 535.78,424.845 537.941,422.08 540.101,419.338 542.262,416.62 544.422,413.926 546.583,411.255 548.743,408.607 550.904,405.982 553.064,403.379 555.225,400.799 557.385,398.241 559.546,395.705 561.706,393.191 563.867,390.699 566.027,388.228 568.188,385.778 570.348,383.35 572.509,380.942 574.669,378.555 576.83,376.189 578.99,373.842 581.151,371.516 583.311,369.21 585.472,366.924 587.632,364.657 589.793,362.409 591.953,360.181 594.114,357.972 596.274,355.782 598.435,353.61 600.595,351.457 602.756,349.323 604.916,347.206 607.077,345.108 609.237,343.027 611.398,340.964 613.558,338.919 615.718,336.891 617.879,334.881 620.039,332.887 622.2,330.911 624.36,328.951 626.521,327.008 628.681,325.081 630.842,323.171 633.002,321.277 635.163,319.399 637.323,317.537 639.484,315.691 641.644,313.86 643.805,312.045 645.965,310.245 648.126,308.461 650.286,306.692 652.447,304.937 654.607,303.198 656.768,301.473 658.928,299.763 661.089,298.067 663.249,296.385 665.41,294.718 667.57,293.065 669.731,291.426 671.891,289.8 674.052,288.189 676.212,286.59 678.373,285.006 680.533,283.434 682.694,281.876 684.854,280.331 687.015,278.799 689.175,277.28 691.336,275.773 693.496,274.279 695.657,272.798 697.817,271.329 699.978,269.872 702.138,268.428 704.299,266.995 706.459,265.575 708.62,264.166 710.78,262.769 712.941,261.384 715.101,260.01 717.262,258.648 719.422,257.297 721.583,255.958 723.743,254.629 725.904,253.312 728.064,252.006 730.225,250.71 732.385,249.425 734.546,248.151 736.706,246.887 738.867,245.634 741.027,244.391 743.188,243.159 745.348,241.937 747.509,240.725 749.669,239.523 751.83,238.331 753.99,237.148 756.151,235.976 758.311,234.813 760.472,233.66 762.632,232.517 764.793,231.383 766.953,230.258 769.114,229.142 771.274,228.036 773.435,226.939 775.595,225.851 777.756,224.772 779.916,223.701 782.077,222.64 784.237,221.587 786.398,220.543 788.558,219.508 790.719,218.481 792.879,217.462 795.04,216.452 797.2,215.45 799.361,214.457 801.521,213.471 803.681,212.494 805.842,211.524 808.002,210.563 810.163,209.609 812.323,208.663 814.484,207.725 816.644,206.794 818.805,205.872 820.965,204.956 823.126,204.048 825.286,203.148 827.447,202.254 829.607,201.369 831.768,200.49 833.928,199.618 836.089,198.754 838.249,197.896 840.41,197.045 842.57,196.202 844.731,195.365 846.891,194.535 849.052,193.711 851.212,192.895 853.373,192.085 855.533,191.281 857.694,190.484 859.854,189.693 862.015,188.909 864.175,188.131 866.336,187.359 868.496,186.594 870.657,185.835 872.817,185.082 874.978,184.335 877.138,183.594 879.299,182.858 881.459,182.129 883.62,181.406 885.78,180.689 887.941,179.977 890.101,179.271 892.262,178.571 894.422,177.876 896.583,177.187 898.743,176.503 900.904,175.825 903.064,175.153 905.225,174.485 907.385,173.823 909.546,173.167 911.706,172.515 913.867,171.869 916.027,171.228 918.188,170.592 920.348,169.962 922.509,169.336 924.669,168.715 926.83,168.099 928.99,167.488 931.151,166.882 933.311,166.281 935.472,165.685 937.632,165.093 939.793,164.506 941.953,163.923 944.114,163.346 946.274,162.773 948.435,162.204 950.595,161.64 952.756,161.08 954.916,160.525 957.077,159.974 959.237,159.427 961.398,158.885 963.558,158.347 965.719,157.814 967.879,157.284 970.04,156.759 972.2,156.237 974.361,155.72 976.521,155.207 978.682,154.698 980.842,154.193 983.003,153.692 985.163,153.195 987.324,152.702 989.484,152.212 991.645,151.726 993.805,151.245 995.965,150.767 998.126,150.292 1000.29,149.822 1002.45,149.355 1004.61,148.892 1006.77,148.432 1008.93,147.976 1011.09,147.523 1013.25,147.074 1015.41,146.629 1017.57,146.187 1019.73,145.748 1021.89,145.313 1024.05,144.882 1026.21,144.453 1028.37,144.028 1030.53,143.607 1032.69,143.188 1034.85,142.773 1037.01,142.361 1039.18,141.952 1041.34,141.547 1043.5,141.144 1045.66,140.745 1047.82,140.349 1049.98,139.956 1052.14,139.566 1054.3,139.179 1056.46,138.795 1058.62,138.413 1060.78,138.035 1062.94,137.66 1065.1,137.288 1067.26,136.918 1069.42,136.552 1071.58,136.188 1073.74,135.827 1075.9,135.469 1078.06,135.113 1080.22,134.761 1082.39,134.411 1084.55,134.063 1086.71,133.719 1088.87,133.377 1091.03,133.037 1093.19,132.7 1095.35,132.366 1097.51,132.035 1099.67,131.705 1101.83,131.379 1103.99,131.055 1106.15,130.733 1108.31,130.414 1110.47,130.097 1112.63,129.783 1114.79,129.471 1116.95,129.161 1119.11,128.854 1121.27,128.549 1123.43,128.246 1125.6,127.946 1127.76,127.648 1129.92,127.352 1132.08,127.059 1134.24,126.767 1136.4,126.478 1138.56,126.191 1140.72,125.906 1142.88,125.624 1145.04,125.343 1147.2,125.065 1149.36,124.788 1151.52,124.514 1153.68,124.242 1155.84,123.972 1158,123.704 1160.16,123.438 1162.32,123.174 1164.48,122.911 1166.64,122.651 1168.81,122.393 1170.97,122.137 1173.13,121.883 1175.29,121.63 1177.45,121.38 1179.61,121.131 1181.77,120.885 1183.93,120.64 1186.09,120.397 1188.25,120.156 1190.41,119.916 1192.57,119.679 1194.73,119.443 1196.89,119.209 1199.05,118.976 1201.21,118.746 1203.37,118.517 1205.53,118.29 1207.69,118.065 1209.85,117.841 1212.01,117.619 1214.18,117.399 1216.34,117.18 1218.5,116.963 1220.66,116.747 1222.82,116.533 1224.98,116.321 1227.14,116.11 1229.3,115.901 1231.46,115.694 1233.62,115.488 1235.78,115.283 1237.94,115.08 1240.1,114.879 1242.26,114.679 1244.42,114.48 1246.58,114.283 1248.74,114.088 1250.9,113.893 1253.06,113.701 1255.22,113.509 1257.39,113.32 1259.55,113.131 1261.71,112.944 1263.87,112.758 1266.03,112.574 1268.19,112.391 1270.35,112.209 1272.51,112.029 1274.67,111.85 1276.83,111.672 1278.99,111.496 1281.15,111.321 1283.31,111.147 1285.47,110.975 1287.63,110.803 1289.79,110.633 1291.95,110.464 1294.11,110.297 1296.27,110.131 1298.43,109.965 1300.6,109.801 1302.76,109.639 1304.92,109.477 1307.08,109.317 1309.24,109.157 1311.4,108.999 1313.56,108.842 1315.72,108.687 1317.88,108.532 1320.04,108.378 1322.2,108.226 1324.36,108.074 1326.52,107.924 1328.68,107.775 1330.84,107.627 1333,107.48 1335.16,107.334 1337.32,107.189 1339.48,107.045 1341.64,106.902 1343.81,106.76 1345.97,106.62 1348.13,106.48 1350.29,106.341 1352.45,106.203 1354.61,106.067 1356.77,105.931 1358.93,105.796 1361.09,105.662 1363.25,105.53 1365.41,105.398 1367.57,105.267 1369.73,105.137 1371.89,105.008 1374.05,104.88 1376.21,104.752 1378.37,104.626 1380.53,104.501 1382.69,104.376 1384.85,104.253 1387.01,104.13 1389.18,104.008 1391.34,103.887 1393.5,103.767 1395.66,103.648 1397.82,103.53 1399.98,103.412 1402.14,103.296 1404.3,103.18 1406.46,103.065 1408.62,102.951 1410.78,102.838 1412.94,102.725 1415.1,102.613 1417.26,102.503 1419.42,102.392 1421.58,102.283 1423.74,102.175 1425.9,102.067 1428.06,101.96 1430.22,101.854 1432.39,101.748 1434.55,101.643 1436.71,101.539 1438.87,101.436 1441.03,101.334 1443.19,101.232 1445.35,101.131 1447.51,101.03 1449.67,100.931 1451.83,100.832 1453.99,100.734 1456.15,100.636 1458.31,100.539 1460.47,100.443 1462.63,100.348 1464.79,100.253 1466.95,100.159 1469.11,100.065 1471.27,99.9723 1473.43,99.8801 1475.6,99.7886 1477.76,99.6977 1479.92,99.6074 1482.08,99.5178 1484.24,99.4288 1486.4,99.3404 1488.56,99.2526 1490.72,99.1655 1492.88,99.0789 1495.04,98.9929 1497.2,98.9076 1499.36,98.8228 1501.52,98.7386 1503.68,98.655 1505.84,98.572 1508,98.4895 1510.16,98.4076 1512.32,98.3263 1514.48,98.2456 1516.64,98.1654 1518.81,98.0857 1520.97,98.0066 1523.13,97.9281 1525.29,97.8501 1527.45,97.7726 1529.61,97.6957 1531.77,97.6193 1533.93,97.5434 1536.09,97.468 1538.25,97.3932 1540.41,97.3189 1542.57,97.2451 1544.73,97.1719 1546.89,97.0991 1549.05,97.0268 1551.21,96.9551 1553.37,96.8838 1555.53,96.813 1557.69,96.7427 1559.85,96.6729 1562.01,96.6036 1564.18,96.5348 1566.34,96.4665 1568.5,96.3986 1570.66,96.3312 1572.82,96.2642 1574.98,96.1978 1577.14,96.1317 1579.3,96.0662 1581.46,96.0011 1583.62,95.9364 1585.78,95.8722 1587.94,95.8085 1590.1,95.7452 1592.26,95.6823 1594.42,95.6198 1596.58,95.5578 1598.74,95.4963 1600.9,95.4351 1603.06,95.3744 1605.22,95.3141 1607.39,95.2542 1609.55,95.1947 1611.71,95.1356 1613.87,95.077 1616.03,95.0187 1618.19,94.9609 1620.35,94.9034 1622.51,94.8463 1624.67,94.7897 1626.83,94.7334 1628.99,94.6775 1631.15,94.622 1633.31,94.5669 1635.47,94.5122 1637.63,94.4578 1639.79,94.4038 1641.95,94.3502 1644.11,94.2969 1646.27,94.2441 1648.43,94.1915 1650.6,94.1394 1652.76,94.0876 1654.92,94.0361 1657.08,93.985 1659.24,93.9342 1661.4,93.8838 1663.56,93.8338 1665.72,93.784 1667.88,93.7347 1670.04,93.6856 1672.2,93.6369 1674.36,93.5885 1676.52,93.5404 1678.68,93.4927 1680.84,93.4453 1683,93.3982 1685.16,93.3514 1687.32,93.305 1689.48,93.2588 1691.64,93.213 1693.81,93.1675 1695.97,93.1222 1698.13,93.0773 1700.29,93.0327 1702.45,92.9884 1704.61,92.9444 1706.77,92.9006 1708.93,92.8572 1711.09,92.8141 1713.25,92.7712 1715.41,92.7286 1717.57,92.6863 1719.73,92.6443 1721.89,92.6026 1724.05,92.5611 1726.21,92.5199 1728.37,92.479 1730.53,92.4384 1732.69,92.398 1734.85,92.3579 1737.02,92.318 1739.18,92.2784 1741.34,92.2391 1743.5,92.2 1745.66,92.1612 1747.82,92.1227 1749.98,92.0844 1752.14,92.0463 1754.3,92.0085 1756.46,91.971 1758.62,91.9337 1760.78,91.8966 1762.94,91.8598 1765.1,91.8232 1767.26,91.7869 1769.42,91.7508 1771.58,91.715 1773.74,91.6794 1775.9,91.644 1778.06,91.6089 1780.22,91.574 1782.39,91.5393 1784.55,91.5049 1786.71,91.4707 1788.87,91.4367 1791.03,91.403 1793.19,91.3694 1795.35,91.3361 1797.51,91.303 1799.67,91.2702 1801.83,91.2375 1803.99,91.2051 1806.15,91.1729 1808.31,91.1409 1810.47,91.1091 1812.63,91.0776 1814.79,91.0462 1816.95,91.0151 1819.11,90.9841 1821.27,90.9534 1823.43,90.9229 1825.6,90.8925 1827.76,90.8624 1829.92,90.8325 1832.08,90.8028 1834.24,90.7733 1836.4,90.7439 1838.56,90.7148 1840.72,90.6859 1842.88,90.6571 1845.04,90.6286 1847.2,90.6002 1849.36,90.5721 1851.52,90.5441 1853.68,90.5163 1855.84,90.4887 1858,90.4612 1860.16,90.434 1862.32,90.4069 1864.48,90.3801 1866.64,90.3534 1868.81,90.3268 1870.97,90.3005 1873.13,90.2743 1875.29,90.2483 1877.45,90.2225 1879.61,90.1969 1881.77,90.1714 1883.93,90.1461 1886.09,90.1209 1888.25,90.096 1890.41,90.0712 1892.57,90.0465 1894.73,90.022 1896.89,89.9977 1899.05,89.9735 1901.21,89.9496 1903.37,89.9257 1905.53,89.902 1907.69,89.8785 1909.85,89.8551 1912.02,89.8319 1914.18,89.8088 1916.34,89.7859 1918.5,89.7632 1920.66,89.7406 1922.82,89.7181 1924.98,89.6958 1927.14,89.6736 1929.3,89.6516 1931.46,89.6297 1933.62,89.608 1935.78,89.5864 1937.94,89.5649 1940.1,89.5436 1942.26,89.5224 1944.42,89.5014 1946.58,89.4805 1948.74,89.4597 1950.9,89.4391 1953.06,89.4186 1955.22,89.3982 1957.39,89.378 1959.55,89.3578 1961.71,89.3379 1963.87,89.318 1966.03,89.2983 1968.19,89.2787 1970.35,89.2592 1972.51,89.2399 1974.67,89.2206 1976.83,89.2015 1978.99,89.1826 1981.15,89.1637 1983.31,89.1449 1985.47,89.1263 1987.63,89.1078 1989.79,89.0894 1991.95,89.0711 1994.11,89.053 1996.27,89.0349 1998.43,89.017 2000.6,88.9992 2002.76,88.9814 2004.92,88.9638 2007.08,88.9463 2009.24,88.929 2011.4,88.9117 2013.56,88.8945 2015.72,88.8775 2017.88,88.8605 2020.04,88.8437 2022.2,88.8269 2024.36,88.8103 2026.52,88.7938 2028.68,88.7774 2030.84,88.761 2033,88.7448 2035.16,88.7287 2037.32,88.7127 2039.48,88.6968 2041.64,88.681 2043.81,88.6653 2045.97,88.6497 2048.13,88.6342 2050.29,88.6188 2052.45,88.6035 2054.61,88.5883 2056.77,88.5731 2058.93,88.5581 2061.09,88.5432 2063.25,88.5284 2065.41,88.5137 2067.57,88.499 2069.73,88.4845 2071.89,88.47 2074.05,88.4557 2076.21,88.4414 2078.37,88.4273 2080.53,88.4132 2082.69,88.3992 2084.85,88.3853 2087.02,88.3715 2089.18,88.3578 2091.34,88.3441 2093.5,88.3306 2095.66,88.3171 2097.82,88.3038 2099.98,88.2905 2102.14,88.2773 2104.3,88.2642 2106.46,88.2512 2108.62,88.2382 2110.78,88.2254 2112.94,88.2126 2115.1,88.1999 2117.26,88.1873 2119.42,88.1748 2121.58,88.1624 2123.74,88.15 2125.9,88.1377 2128.06,88.1255 2130.22,88.1134 2132.39,88.1013 2134.55,88.0894 2136.71,88.0775 2138.87,88.0657 2141.03,88.0539 2143.19,88.0423 2145.35,88.0307 2147.51,88.0192 2149.67,88.0078 2151.83,87.9964 2153.99,87.9851 2156.15,87.9739 2158.31,87.9628 2160.47,87.9517 2162.63,87.9407 2164.79,87.9298 2166.95,87.919 2169.11,87.9082 2171.27,87.8975 2173.43,87.8868 2175.6,87.8763 2177.76,87.8658 2179.92,87.8553 2182.08,87.845 2184.24,87.8347 2186.4,87.8245 2188.56,87.8143 2190.72,87.8042 2192.88,87.7942 2195.04,87.7842 2197.2,87.7743 2199.36,87.7644 2201.52,87.7547 2203.68,87.745 2205.84,87.7353 2208,87.7257 2210.16,87.7162 2212.32,87.7067 2214.48,87.6973 2216.64,87.688 2218.81,87.6787 2220.97,87.6695 2223.13,87.6603 2225.29,87.6512 2227.45,87.6421 2229.61,87.6331 2231.77,87.6242 2233.93,87.6153 2236.09,87.6065 2238.25,87.5977 2240.41,87.589 2242.57,87.5804 2244.73,87.5718 2246.89,87.5632 2249.05,87.5547 2251.21,87.5463 2253.37,87.5379 2255.53,87.5296 2257.69,87.5213 2259.85,87.513 2262.02,87.5049 2264.18,87.4967 2266.34,87.4886 2268.5,87.4806 2270.66,87.4726 2272.82,87.4647 2274.98,87.4568 2277.14,87.449 2279.3,87.4412 2281.46,87.4335 2283.62,87.4258 2285.78,87.4181 2287.94,87.4105 2290.1,87.403 2292.26,87.3955 2294.42,87.388 2296.58,87.3806 2298.74,87.3732 2300.9,87.3659 2303.06,87.3586 2305.23,87.3514 2307.39,87.3442 2309.55,87.337 2311.71,87.3299 2313.87,87.3228 2316.03,87.3158 2318.19,87.3088 2320.35,87.3018 2322.51,87.2949 2324.67,87.2881 2326.83,87.2813 2328.99,87.2745 2331.15,87.2678 2333.31,87.2611 2335.47,87.2544 2337.63,87.2478 2339.79,87.2412 2341.95,87.2347 2344.11,87.2282 2346.27,87.2218 2348.43,87.2154 2350.6,87.209 2352.76,87.2027 "/>
<path clip-path="url(#clip470)" d="M1805.58 1377.32 L2280.81 1377.32 L2280.81 1221.8 L1805.58 1221.8  Z" fill="#ffffff" fill-rule="evenodd" fill-opacity="1"/>
<polyline clip-path="url(#clip470)" style="stroke:#000000; stroke-linecap:round; stroke-linejoin:round; stroke-width:4; stroke-opacity:1; fill:none" points="1805.58,1377.32 2280.81,1377.32 2280.81,1221.8 1805.58,1221.8 1805.58,1377.32 "/>
<polyline clip-path="url(#clip470)" style="stroke:#009af9; stroke-linecap:round; stroke-linejoin:round; stroke-width:4; stroke-opacity:1; fill:none" points="1829.56,1273.64 1973.45,1273.64 "/>
<path clip-path="url(#clip470)" d="M1997.43 1264.99 L2001.95 1264.99 L2010.05 1286.75 L2018.15 1264.99 L2022.66 1264.99 L2012.94 1290.92 L2007.16 1290.92 L1997.43 1264.99 Z" fill="#000000" fill-rule="nonzero" fill-opacity="1" /><path clip-path="url(#clip470)" d="M2029.96 1286.98 L2037.6 1286.98 L2037.6 1260.61 L2029.28 1262.28 L2029.28 1258.02 L2037.55 1256.36 L2042.22 1256.36 L2042.22 1286.98 L2049.86 1286.98 L2049.86 1290.92 L2029.96 1290.92 L2029.96 1286.98 Z" fill="#000000" fill-rule="nonzero" fill-opacity="1" /><path clip-path="url(#clip470)" d="M2067.97 1274.27 L2067.97 1281.49 L2076.09 1281.49 L2076.09 1283.69 L2067.97 1283.69 L2067.97 1290.92 L2065.53 1290.92 L2065.53 1283.69 L2057.41 1283.69 L2057.41 1281.49 L2065.53 1281.49 L2065.53 1274.27 L2067.97 1274.27 Z" fill="#000000" fill-rule="nonzero" fill-opacity="1" /><path clip-path="url(#clip470)" d="M2100.26 1265.75 L2100.26 1269.78 Q2098.45 1268.86 2096.51 1268.39 Q2094.56 1267.93 2092.48 1267.93 Q2089.31 1267.93 2087.71 1268.9 Q2086.14 1269.87 2086.14 1271.82 Q2086.14 1273.3 2087.27 1274.16 Q2088.4 1274.99 2091.83 1275.75 L2093.29 1276.08 Q2097.83 1277.05 2099.72 1278.83 Q2101.65 1280.59 2101.65 1283.76 Q2101.65 1287.37 2098.78 1289.48 Q2095.93 1291.59 2090.93 1291.59 Q2088.84 1291.59 2086.58 1291.17 Q2084.33 1290.78 2081.83 1289.97 L2081.83 1285.57 Q2084.19 1286.79 2086.48 1287.42 Q2088.78 1288.02 2091.02 1288.02 Q2094.03 1288.02 2095.65 1287 Q2097.27 1285.96 2097.27 1284.09 Q2097.27 1282.35 2096.09 1281.42 Q2094.93 1280.5 2090.97 1279.64 L2089.49 1279.3 Q2085.53 1278.46 2083.78 1276.75 Q2082.02 1275.01 2082.02 1272 Q2082.02 1268.35 2084.61 1266.36 Q2087.2 1264.36 2091.97 1264.36 Q2094.33 1264.36 2096.41 1264.71 Q2098.5 1265.06 2100.26 1265.75 Z" fill="#000000" fill-rule="nonzero" fill-opacity="1" /><path clip-path="url(#clip470)" d="M2112.64 1257.63 L2112.64 1264.99 L2121.41 1264.99 L2121.41 1268.3 L2112.64 1268.3 L2112.64 1282.37 Q2112.64 1285.54 2113.5 1286.45 Q2114.38 1287.35 2117.04 1287.35 L2121.41 1287.35 L2121.41 1290.92 L2117.04 1290.92 Q2112.11 1290.92 2110.23 1289.09 Q2108.36 1287.23 2108.36 1282.37 L2108.36 1268.3 L2105.23 1268.3 L2105.23 1264.99 L2108.36 1264.99 L2108.36 1257.63 L2112.64 1257.63 Z" fill="#000000" fill-rule="nonzero" fill-opacity="1" /><path clip-path="url(#clip470)" d="M2137.06 1267.98 Q2133.64 1267.98 2131.65 1270.66 Q2129.65 1273.32 2129.65 1277.98 Q2129.65 1282.63 2131.62 1285.31 Q2133.61 1287.98 2137.06 1287.98 Q2140.46 1287.98 2142.46 1285.29 Q2144.45 1282.61 2144.45 1277.98 Q2144.45 1273.37 2142.46 1270.68 Q2140.46 1267.98 2137.06 1267.98 M2137.06 1264.36 Q2142.62 1264.36 2145.79 1267.98 Q2148.96 1271.59 2148.96 1277.98 Q2148.96 1284.34 2145.79 1287.98 Q2142.62 1291.59 2137.06 1291.59 Q2131.48 1291.59 2128.31 1287.98 Q2125.16 1284.34 2125.16 1277.98 Q2125.16 1271.59 2128.31 1267.98 Q2131.48 1264.36 2137.06 1264.36 Z" fill="#000000" fill-rule="nonzero" fill-opacity="1" /><path clip-path="url(#clip470)" d="M2171.04 1268.97 Q2170.33 1268.55 2169.47 1268.37 Q2168.64 1268.16 2167.62 1268.16 Q2164.01 1268.16 2162.06 1270.52 Q2160.14 1272.86 2160.14 1277.26 L2160.14 1290.92 L2155.86 1290.92 L2155.86 1264.99 L2160.14 1264.99 L2160.14 1269.02 Q2161.48 1266.66 2163.64 1265.52 Q2165.79 1264.36 2168.87 1264.36 Q2169.31 1264.36 2169.84 1264.43 Q2170.37 1264.48 2171.02 1264.6 L2171.04 1268.97 Z" fill="#000000" fill-rule="nonzero" fill-opacity="1" /><path clip-path="url(#clip470)" d="M2187.29 1277.88 Q2182.13 1277.88 2180.14 1279.06 Q2178.15 1280.24 2178.15 1283.09 Q2178.15 1285.36 2179.63 1286.7 Q2181.14 1288.02 2183.71 1288.02 Q2187.25 1288.02 2189.38 1285.52 Q2191.53 1283 2191.53 1278.83 L2191.53 1277.88 L2187.29 1277.88 M2195.79 1276.12 L2195.79 1290.92 L2191.53 1290.92 L2191.53 1286.98 Q2190.07 1289.34 2187.9 1290.48 Q2185.72 1291.59 2182.57 1291.59 Q2178.59 1291.59 2176.23 1289.36 Q2173.89 1287.12 2173.89 1283.37 Q2173.89 1278.99 2176.81 1276.77 Q2179.75 1274.55 2185.56 1274.55 L2191.53 1274.55 L2191.53 1274.13 Q2191.53 1271.19 2189.58 1269.6 Q2187.66 1267.98 2184.17 1267.98 Q2181.95 1267.98 2179.84 1268.51 Q2177.73 1269.04 2175.79 1270.11 L2175.79 1266.17 Q2178.13 1265.27 2180.33 1264.83 Q2182.52 1264.36 2184.61 1264.36 Q2190.23 1264.36 2193.01 1267.28 Q2195.79 1270.2 2195.79 1276.12 Z" fill="#000000" fill-rule="nonzero" fill-opacity="1" /><path clip-path="url(#clip470)" d="M2221.62 1277.65 Q2221.62 1273.02 2219.7 1270.48 Q2217.8 1267.93 2214.35 1267.93 Q2210.93 1267.93 2209.01 1270.48 Q2207.11 1273.02 2207.11 1277.65 Q2207.11 1282.26 2209.01 1284.8 Q2210.93 1287.35 2214.35 1287.35 Q2217.8 1287.35 2219.7 1284.8 Q2221.62 1282.26 2221.62 1277.65 M2225.88 1287.7 Q2225.88 1294.32 2222.94 1297.54 Q2220 1300.78 2213.94 1300.78 Q2211.69 1300.78 2209.7 1300.43 Q2207.71 1300.11 2205.83 1299.41 L2205.83 1295.27 Q2207.71 1296.29 2209.54 1296.77 Q2211.37 1297.26 2213.27 1297.26 Q2217.46 1297.26 2219.54 1295.06 Q2221.62 1292.88 2221.62 1288.46 L2221.62 1286.36 Q2220.3 1288.65 2218.24 1289.78 Q2216.18 1290.92 2213.31 1290.92 Q2208.54 1290.92 2205.63 1287.28 Q2202.71 1283.65 2202.71 1277.65 Q2202.71 1271.63 2205.63 1268 Q2208.54 1264.36 2213.31 1264.36 Q2216.18 1264.36 2218.24 1265.5 Q2220.3 1266.63 2221.62 1268.92 L2221.62 1264.99 L2225.88 1264.99 L2225.88 1287.7 Z" fill="#000000" fill-rule="nonzero" fill-opacity="1" /><path clip-path="url(#clip470)" d="M2256.83 1276.89 L2256.83 1278.97 L2237.25 1278.97 Q2237.52 1283.37 2239.89 1285.68 Q2242.27 1287.98 2246.51 1287.98 Q2248.96 1287.98 2251.25 1287.37 Q2253.57 1286.77 2255.83 1285.57 L2255.83 1289.6 Q2253.54 1290.57 2251.14 1291.08 Q2248.73 1291.59 2246.25 1291.59 Q2240.05 1291.59 2236.41 1287.98 Q2232.8 1284.36 2232.8 1278.21 Q2232.8 1271.84 2236.23 1268.11 Q2239.68 1264.36 2245.51 1264.36 Q2250.74 1264.36 2253.77 1267.74 Q2256.83 1271.1 2256.83 1276.89 M2252.57 1275.64 Q2252.52 1272.14 2250.6 1270.06 Q2248.71 1267.98 2245.56 1267.98 Q2241.99 1267.98 2239.84 1269.99 Q2237.71 1272 2237.39 1275.66 L2252.57 1275.64 Z" fill="#000000" fill-rule="nonzero" fill-opacity="1" /><polyline clip-path="url(#clip470)" style="stroke:#e26f46; stroke-linecap:round; stroke-linejoin:round; stroke-width:4; stroke-opacity:1; fill:none" points="1829.56,1325.48 1973.45,1325.48 "/>
<path clip-path="url(#clip470)" d="M1997.43 1316.83 L2001.95 1316.83 L2010.05 1338.59 L2018.15 1316.83 L2022.66 1316.83 L2012.94 1342.76 L2007.16 1342.76 L1997.43 1316.83 Z" fill="#000000" fill-rule="nonzero" fill-opacity="1" /><path clip-path="url(#clip470)" d="M2029.19 1308.2 L2047.55 1308.2 L2047.55 1312.13 L2033.47 1312.13 L2033.47 1320.6 Q2034.49 1320.26 2035.51 1320.09 Q2036.53 1319.91 2037.55 1319.91 Q2043.34 1319.91 2046.72 1323.08 Q2050.09 1326.25 2050.09 1331.67 Q2050.09 1337.25 2046.62 1340.35 Q2043.15 1343.43 2036.83 1343.43 Q2034.66 1343.43 2032.39 1343.06 Q2030.14 1342.69 2027.73 1341.95 L2027.73 1337.25 Q2029.82 1338.38 2032.04 1338.94 Q2034.26 1339.49 2036.74 1339.49 Q2040.74 1339.49 2043.08 1337.38 Q2045.42 1335.28 2045.42 1331.67 Q2045.42 1328.06 2043.08 1325.95 Q2040.74 1323.84 2036.74 1323.84 Q2034.86 1323.84 2032.99 1324.26 Q2031.14 1324.68 2029.19 1325.56 L2029.19 1308.2 Z" fill="#000000" fill-rule="nonzero" fill-opacity="1" /><path clip-path="url(#clip470)" d="M2067.97 1326.11 L2067.97 1333.33 L2076.09 1333.33 L2076.09 1335.53 L2067.97 1335.53 L2067.97 1342.76 L2065.53 1342.76 L2065.53 1335.53 L2057.41 1335.53 L2057.41 1333.33 L2065.53 1333.33 L2065.53 1326.11 L2067.97 1326.11 Z" fill="#000000" fill-rule="nonzero" fill-opacity="1" /><path clip-path="url(#clip470)" d="M2100.26 1317.59 L2100.26 1321.62 Q2098.45 1320.7 2096.51 1320.23 Q2094.56 1319.77 2092.48 1319.77 Q2089.31 1319.77 2087.71 1320.74 Q2086.14 1321.71 2086.14 1323.66 Q2086.14 1325.14 2087.27 1326 Q2088.4 1326.83 2091.83 1327.59 L2093.29 1327.92 Q2097.83 1328.89 2099.72 1330.67 Q2101.65 1332.43 2101.65 1335.6 Q2101.65 1339.21 2098.78 1341.32 Q2095.93 1343.43 2090.93 1343.43 Q2088.84 1343.43 2086.58 1343.01 Q2084.33 1342.62 2081.83 1341.81 L2081.83 1337.41 Q2084.19 1338.63 2086.48 1339.26 Q2088.78 1339.86 2091.02 1339.86 Q2094.03 1339.86 2095.65 1338.84 Q2097.27 1337.8 2097.27 1335.93 Q2097.27 1334.19 2096.09 1333.26 Q2094.93 1332.34 2090.97 1331.48 L2089.49 1331.14 Q2085.53 1330.3 2083.78 1328.59 Q2082.02 1326.85 2082.02 1323.84 Q2082.02 1320.19 2084.61 1318.2 Q2087.2 1316.2 2091.97 1316.2 Q2094.33 1316.2 2096.41 1316.55 Q2098.5 1316.9 2100.26 1317.59 Z" fill="#000000" fill-rule="nonzero" fill-opacity="1" /><path clip-path="url(#clip470)" d="M2112.64 1309.47 L2112.64 1316.83 L2121.41 1316.83 L2121.41 1320.14 L2112.64 1320.14 L2112.64 1334.21 Q2112.64 1337.38 2113.5 1338.29 Q2114.38 1339.19 2117.04 1339.19 L2121.41 1339.19 L2121.41 1342.76 L2117.04 1342.76 Q2112.11 1342.76 2110.23 1340.93 Q2108.36 1339.07 2108.36 1334.21 L2108.36 1320.14 L2105.23 1320.14 L2105.23 1316.83 L2108.36 1316.83 L2108.36 1309.47 L2112.64 1309.47 Z" fill="#000000" fill-rule="nonzero" fill-opacity="1" /><path clip-path="url(#clip470)" d="M2137.06 1319.82 Q2133.64 1319.82 2131.65 1322.5 Q2129.65 1325.16 2129.65 1329.82 Q2129.65 1334.47 2131.62 1337.15 Q2133.61 1339.82 2137.06 1339.82 Q2140.46 1339.82 2142.46 1337.13 Q2144.45 1334.45 2144.45 1329.82 Q2144.45 1325.21 2142.46 1322.52 Q2140.46 1319.82 2137.06 1319.82 M2137.06 1316.2 Q2142.62 1316.2 2145.79 1319.82 Q2148.96 1323.43 2148.96 1329.82 Q2148.96 1336.18 2145.79 1339.82 Q2142.62 1343.43 2137.06 1343.43 Q2131.48 1343.43 2128.31 1339.82 Q2125.16 1336.18 2125.16 1329.82 Q2125.16 1323.43 2128.31 1319.82 Q2131.48 1316.2 2137.06 1316.2 Z" fill="#000000" fill-rule="nonzero" fill-opacity="1" /><path clip-path="url(#clip470)" d="M2171.04 1320.81 Q2170.33 1320.39 2169.47 1320.21 Q2168.64 1320 2167.62 1320 Q2164.01 1320 2162.06 1322.36 Q2160.14 1324.7 2160.14 1329.1 L2160.14 1342.76 L2155.86 1342.76 L2155.86 1316.83 L2160.14 1316.83 L2160.14 1320.86 Q2161.48 1318.5 2163.64 1317.36 Q2165.79 1316.2 2168.87 1316.2 Q2169.31 1316.2 2169.84 1316.27 Q2170.37 1316.32 2171.02 1316.44 L2171.04 1320.81 Z" fill="#000000" fill-rule="nonzero" fill-opacity="1" /><path clip-path="url(#clip470)" d="M2187.29 1329.72 Q2182.13 1329.72 2180.14 1330.9 Q2178.15 1332.08 2178.15 1334.93 Q2178.15 1337.2 2179.63 1338.54 Q2181.14 1339.86 2183.71 1339.86 Q2187.25 1339.86 2189.38 1337.36 Q2191.53 1334.84 2191.53 1330.67 L2191.53 1329.72 L2187.29 1329.72 M2195.79 1327.96 L2195.79 1342.76 L2191.53 1342.76 L2191.53 1338.82 Q2190.07 1341.18 2187.9 1342.32 Q2185.72 1343.43 2182.57 1343.43 Q2178.59 1343.43 2176.23 1341.2 Q2173.89 1338.96 2173.89 1335.21 Q2173.89 1330.83 2176.81 1328.61 Q2179.75 1326.39 2185.56 1326.39 L2191.53 1326.39 L2191.53 1325.97 Q2191.53 1323.03 2189.58 1321.44 Q2187.66 1319.82 2184.17 1319.82 Q2181.95 1319.82 2179.84 1320.35 Q2177.73 1320.88 2175.79 1321.95 L2175.79 1318.01 Q2178.13 1317.11 2180.33 1316.67 Q2182.52 1316.2 2184.61 1316.2 Q2190.23 1316.2 2193.01 1319.12 Q2195.79 1322.04 2195.79 1327.96 Z" fill="#000000" fill-rule="nonzero" fill-opacity="1" /><path clip-path="url(#clip470)" d="M2221.62 1329.49 Q2221.62 1324.86 2219.7 1322.32 Q2217.8 1319.77 2214.35 1319.77 Q2210.93 1319.77 2209.01 1322.32 Q2207.11 1324.86 2207.11 1329.49 Q2207.11 1334.1 2209.01 1336.64 Q2210.93 1339.19 2214.35 1339.19 Q2217.8 1339.19 2219.7 1336.64 Q2221.62 1334.1 2221.62 1329.49 M2225.88 1339.54 Q2225.88 1346.16 2222.94 1349.38 Q2220 1352.62 2213.94 1352.62 Q2211.69 1352.62 2209.7 1352.27 Q2207.71 1351.95 2205.83 1351.25 L2205.83 1347.11 Q2207.71 1348.13 2209.54 1348.61 Q2211.37 1349.1 2213.27 1349.1 Q2217.46 1349.1 2219.54 1346.9 Q2221.62 1344.72 2221.62 1340.3 L2221.62 1338.2 Q2220.3 1340.49 2218.24 1341.62 Q2216.18 1342.76 2213.31 1342.76 Q2208.54 1342.76 2205.63 1339.12 Q2202.71 1335.49 2202.71 1329.49 Q2202.71 1323.47 2205.63 1319.84 Q2208.54 1316.2 2213.31 1316.2 Q2216.18 1316.2 2218.24 1317.34 Q2220.3 1318.47 2221.62 1320.76 L2221.62 1316.83 L2225.88 1316.83 L2225.88 1339.54 Z" fill="#000000" fill-rule="nonzero" fill-opacity="1" /><path clip-path="url(#clip470)" d="M2256.83 1328.73 L2256.83 1330.81 L2237.25 1330.81 Q2237.52 1335.21 2239.89 1337.52 Q2242.27 1339.82 2246.51 1339.82 Q2248.96 1339.82 2251.25 1339.21 Q2253.57 1338.61 2255.83 1337.41 L2255.83 1341.44 Q2253.54 1342.41 2251.14 1342.92 Q2248.73 1343.43 2246.25 1343.43 Q2240.05 1343.43 2236.41 1339.82 Q2232.8 1336.2 2232.8 1330.05 Q2232.8 1323.68 2236.23 1319.95 Q2239.68 1316.2 2245.51 1316.2 Q2250.74 1316.2 2253.77 1319.58 Q2256.83 1322.94 2256.83 1328.73 M2252.57 1327.48 Q2252.52 1323.98 2250.6 1321.9 Q2248.71 1319.82 2245.56 1319.82 Q2241.99 1319.82 2239.84 1321.83 Q2237.71 1323.84 2237.39 1327.5 L2252.57 1327.48 Z" fill="#000000" fill-rule="nonzero" fill-opacity="1" /></svg>
