<?xml version="1.0" encoding="utf-8"?>
<svg xmlns="http://www.w3.org/2000/svg" xmlns:xlink="http://www.w3.org/1999/xlink" width="600" height="400" viewBox="0 0 2400 1600">
<defs>
  <clipPath id="clip870">
    <rect x="0" y="0" width="2400" height="1600"/>
  </clipPath>
</defs>
<path clip-path="url(#clip870)" d="M0 1600 L2400 1600 L2400 0 L0 0  Z" fill="#ffffff" fill-rule="evenodd" fill-opacity="1"/>
<defs>
  <clipPath id="clip871">
    <rect x="480" y="0" width="1681" height="1600"/>
  </clipPath>
</defs>
<path clip-path="url(#clip870)" d="M194.422 1423.18 L2352.76 1423.18 L2352.76 47.2441 L194.422 47.2441  Z" fill="#ffffff" fill-rule="evenodd" fill-opacity="1"/>
<defs>
  <clipPath id="clip872">
    <rect x="194" y="47" width="2159" height="1377"/>
  </clipPath>
</defs>
<polyline clip-path="url(#clip872)" style="stroke:#000000; stroke-linecap:round; stroke-linejoin:round; stroke-width:2; stroke-opacity:0.1; fill:none" points="194.422,1423.18 194.422,47.2441 "/>
<polyline clip-path="url(#clip872)" style="stroke:#000000; stroke-linecap:round; stroke-linejoin:round; stroke-width:2; stroke-opacity:0.1; fill:none" points="734.006,1423.18 734.006,47.2441 "/>
<polyline clip-path="url(#clip872)" style="stroke:#000000; stroke-linecap:round; stroke-linejoin:round; stroke-width:2; stroke-opacity:0.1; fill:none" points="1273.59,1423.18 1273.59,47.2441 "/>
<polyline clip-path="url(#clip872)" style="stroke:#000000; stroke-linecap:round; stroke-linejoin:round; stroke-width:2; stroke-opacity:0.1; fill:none" points="1813.17,1423.18 1813.17,47.2441 "/>
<polyline clip-path="url(#clip872)" style="stroke:#000000; stroke-linecap:round; stroke-linejoin:round; stroke-width:2; stroke-opacity:0.1; fill:none" points="2352.76,1423.18 2352.76,47.2441 "/>
<polyline clip-path="url(#clip872)" style="stroke:#000000; stroke-linecap:round; stroke-linejoin:round; stroke-width:2; stroke-opacity:0.1; fill:none" points="194.422,1371.19 2352.76,1371.19 "/>
<polyline clip-path="url(#clip872)" style="stroke:#000000; stroke-linecap:round; stroke-linejoin:round; stroke-width:2; stroke-opacity:0.1; fill:none" points="194.422,1112.8 2352.76,1112.8 "/>
<polyline clip-path="url(#clip872)" style="stroke:#000000; stroke-linecap:round; stroke-linejoin:round; stroke-width:2; stroke-opacity:0.1; fill:none" points="194.422,854.408 2352.76,854.408 "/>
<polyline clip-path="url(#clip872)" style="stroke:#000000; stroke-linecap:round; stroke-linejoin:round; stroke-width:2; stroke-opacity:0.1; fill:none" points="194.422,596.017 2352.76,596.017 "/>
<polyline clip-path="url(#clip872)" style="stroke:#000000; stroke-linecap:round; stroke-linejoin:round; stroke-width:2; stroke-opacity:0.1; fill:none" points="194.422,337.626 2352.76,337.626 "/>
<polyline clip-path="url(#clip872)" style="stroke:#000000; stroke-linecap:round; stroke-linejoin:round; stroke-width:2; stroke-opacity:0.1; fill:none" points="194.422,79.2347 2352.76,79.2347 "/>
<polyline clip-path="url(#clip870)" style="stroke:#000000; stroke-linecap:round; stroke-linejoin:round; stroke-width:4; stroke-opacity:1; fill:none" points="194.422,1423.18 2352.76,1423.18 "/>
<polyline clip-path="url(#clip870)" style="stroke:#000000; stroke-linecap:round; stroke-linejoin:round; stroke-width:4; stroke-opacity:1; fill:none" points="194.422,1423.18 194.422,1404.28 "/>
<polyline clip-path="url(#clip870)" style="stroke:#000000; stroke-linecap:round; stroke-linejoin:round; stroke-width:4; stroke-opacity:1; fill:none" points="734.006,1423.18 734.006,1404.28 "/>
<polyline clip-path="url(#clip870)" style="stroke:#000000; stroke-linecap:round; stroke-linejoin:round; stroke-width:4; stroke-opacity:1; fill:none" points="1273.59,1423.18 1273.59,1404.28 "/>
<polyline clip-path="url(#clip870)" style="stroke:#000000; stroke-linecap:round; stroke-linejoin:round; stroke-width:4; stroke-opacity:1; fill:none" points="1813.17,1423.18 1813.17,1404.28 "/>
<polyline clip-path="url(#clip870)" style="stroke:#000000; stroke-linecap:round; stroke-linejoin:round; stroke-width:4; stroke-opacity:1; fill:none" points="2352.76,1423.18 2352.76,1404.28 "/>
<path clip-path="url(#clip870)" d="M171.806 1454.1 Q168.195 1454.1 166.367 1457.66 Q164.561 1461.2 164.561 1468.33 Q164.561 1475.44 166.367 1479.01 Q168.195 1482.55 171.806 1482.55 Q175.441 1482.55 177.246 1479.01 Q179.075 1475.44 179.075 1468.33 Q179.075 1461.2 177.246 1457.66 Q175.441 1454.1 171.806 1454.1 M171.806 1450.39 Q177.617 1450.39 180.672 1455 Q183.751 1459.58 183.751 1468.33 Q183.751 1477.06 180.672 1481.67 Q177.617 1486.25 171.806 1486.25 Q165.996 1486.25 162.918 1481.67 Q159.862 1477.06 159.862 1468.33 Q159.862 1459.58 162.918 1455 Q165.996 1450.39 171.806 1450.39 Z" fill="#000000" fill-rule="nonzero" fill-opacity="1" /><path clip-path="url(#clip870)" d="M191.968 1479.7 L196.853 1479.7 L196.853 1485.58 L191.968 1485.58 L191.968 1479.7 Z" fill="#000000" fill-rule="nonzero" fill-opacity="1" /><path clip-path="url(#clip870)" d="M217.038 1454.1 Q213.427 1454.1 211.598 1457.66 Q209.792 1461.2 209.792 1468.33 Q209.792 1475.44 211.598 1479.01 Q213.427 1482.55 217.038 1482.55 Q220.672 1482.55 222.478 1479.01 Q224.306 1475.44 224.306 1468.33 Q224.306 1461.2 222.478 1457.66 Q220.672 1454.1 217.038 1454.1 M217.038 1450.39 Q222.848 1450.39 225.903 1455 Q228.982 1459.58 228.982 1468.33 Q228.982 1477.06 225.903 1481.67 Q222.848 1486.25 217.038 1486.25 Q211.228 1486.25 208.149 1481.67 Q205.093 1477.06 205.093 1468.33 Q205.093 1459.58 208.149 1455 Q211.228 1450.39 217.038 1450.39 Z" fill="#000000" fill-rule="nonzero" fill-opacity="1" /><path clip-path="url(#clip870)" d="M711.888 1454.1 Q708.277 1454.1 706.448 1457.66 Q704.642 1461.2 704.642 1468.33 Q704.642 1475.44 706.448 1479.01 Q708.277 1482.55 711.888 1482.55 Q715.522 1482.55 717.327 1479.01 Q719.156 1475.44 719.156 1468.33 Q719.156 1461.2 717.327 1457.66 Q715.522 1454.1 711.888 1454.1 M711.888 1450.39 Q717.698 1450.39 720.753 1455 Q723.832 1459.58 723.832 1468.33 Q723.832 1477.06 720.753 1481.67 Q717.698 1486.25 711.888 1486.25 Q706.077 1486.25 702.999 1481.67 Q699.943 1477.06 699.943 1468.33 Q699.943 1459.58 702.999 1455 Q706.077 1450.39 711.888 1450.39 Z" fill="#000000" fill-rule="nonzero" fill-opacity="1" /><path clip-path="url(#clip870)" d="M732.05 1479.7 L736.934 1479.7 L736.934 1485.58 L732.05 1485.58 L732.05 1479.7 Z" fill="#000000" fill-rule="nonzero" fill-opacity="1" /><path clip-path="url(#clip870)" d="M747.165 1451.02 L765.522 1451.02 L765.522 1454.96 L751.448 1454.96 L751.448 1463.43 Q752.466 1463.08 753.485 1462.92 Q754.503 1462.73 755.522 1462.73 Q761.309 1462.73 764.688 1465.9 Q768.068 1469.08 768.068 1474.49 Q768.068 1480.07 764.596 1483.17 Q761.123 1486.25 754.804 1486.25 Q752.628 1486.25 750.36 1485.88 Q748.114 1485.51 745.707 1484.77 L745.707 1480.07 Q747.79 1481.2 750.012 1481.76 Q752.235 1482.32 754.711 1482.32 Q758.716 1482.32 761.054 1480.21 Q763.392 1478.1 763.392 1474.49 Q763.392 1470.88 761.054 1468.77 Q758.716 1466.67 754.711 1466.67 Q752.836 1466.67 750.961 1467.08 Q749.11 1467.5 747.165 1468.38 L747.165 1451.02 Z" fill="#000000" fill-rule="nonzero" fill-opacity="1" /><path clip-path="url(#clip870)" d="M1240.74 1481.64 L1248.38 1481.64 L1248.38 1455.28 L1240.07 1456.95 L1240.07 1452.69 L1248.33 1451.02 L1253.01 1451.02 L1253.01 1481.64 L1260.65 1481.64 L1260.65 1485.58 L1240.74 1485.58 L1240.74 1481.64 Z" fill="#000000" fill-rule="nonzero" fill-opacity="1" /><path clip-path="url(#clip870)" d="M1270.09 1479.7 L1274.98 1479.7 L1274.98 1485.58 L1270.09 1485.58 L1270.09 1479.7 Z" fill="#000000" fill-rule="nonzero" fill-opacity="1" /><path clip-path="url(#clip870)" d="M1295.16 1454.1 Q1291.55 1454.1 1289.72 1457.66 Q1287.92 1461.2 1287.92 1468.33 Q1287.92 1475.44 1289.72 1479.01 Q1291.55 1482.55 1295.16 1482.55 Q1298.8 1482.55 1300.6 1479.01 Q1302.43 1475.44 1302.43 1468.33 Q1302.43 1461.2 1300.6 1457.66 Q1298.8 1454.1 1295.16 1454.1 M1295.16 1450.39 Q1300.97 1450.39 1304.03 1455 Q1307.11 1459.58 1307.11 1468.33 Q1307.11 1477.06 1304.03 1481.67 Q1300.97 1486.25 1295.16 1486.25 Q1289.35 1486.25 1286.27 1481.67 Q1283.22 1477.06 1283.22 1468.33 Q1283.22 1459.58 1286.27 1455 Q1289.35 1450.39 1295.16 1450.39 Z" fill="#000000" fill-rule="nonzero" fill-opacity="1" /><path clip-path="url(#clip870)" d="M1780.82 1481.64 L1788.46 1481.64 L1788.46 1455.28 L1780.15 1456.95 L1780.15 1452.69 L1788.42 1451.02 L1793.09 1451.02 L1793.09 1481.64 L1800.73 1481.64 L1800.73 1485.58 L1780.82 1485.58 L1780.82 1481.64 Z" fill="#000000" fill-rule="nonzero" fill-opacity="1" /><path clip-path="url(#clip870)" d="M1810.17 1479.7 L1815.06 1479.7 L1815.06 1485.58 L1810.17 1485.58 L1810.17 1479.7 Z" fill="#000000" fill-rule="nonzero" fill-opacity="1" /><path clip-path="url(#clip870)" d="M1825.29 1451.02 L1843.65 1451.02 L1843.65 1454.96 L1829.57 1454.96 L1829.57 1463.43 Q1830.59 1463.08 1831.61 1462.92 Q1832.63 1462.73 1833.65 1462.73 Q1839.43 1462.73 1842.81 1465.9 Q1846.19 1469.08 1846.19 1474.49 Q1846.19 1480.07 1842.72 1483.17 Q1839.25 1486.25 1832.93 1486.25 Q1830.75 1486.25 1828.48 1485.88 Q1826.24 1485.51 1823.83 1484.77 L1823.83 1480.07 Q1825.92 1481.2 1828.14 1481.76 Q1830.36 1482.32 1832.84 1482.32 Q1836.84 1482.32 1839.18 1480.21 Q1841.52 1478.1 1841.52 1474.49 Q1841.52 1470.88 1839.18 1468.77 Q1836.84 1466.67 1832.84 1466.67 Q1830.96 1466.67 1829.09 1467.08 Q1827.23 1467.5 1825.29 1468.38 L1825.29 1451.02 Z" fill="#000000" fill-rule="nonzero" fill-opacity="1" /><path clip-path="url(#clip870)" d="M2323.99 1481.64 L2340.31 1481.64 L2340.31 1485.58 L2318.37 1485.58 L2318.37 1481.64 Q2321.03 1478.89 2325.61 1474.26 Q2330.22 1469.61 2331.4 1468.27 Q2333.65 1465.74 2334.53 1464.01 Q2335.43 1462.25 2335.43 1460.56 Q2335.43 1457.8 2333.49 1456.07 Q2331.56 1454.33 2328.46 1454.33 Q2326.26 1454.33 2323.81 1455.09 Q2321.38 1455.86 2318.6 1457.41 L2318.6 1452.69 Q2321.43 1451.55 2323.88 1450.97 Q2326.33 1450.39 2328.37 1450.39 Q2333.74 1450.39 2336.93 1453.08 Q2340.13 1455.77 2340.13 1460.26 Q2340.13 1462.39 2339.32 1464.31 Q2338.53 1466.2 2336.42 1468.8 Q2335.85 1469.47 2332.74 1472.69 Q2329.64 1475.88 2323.99 1481.64 Z" fill="#000000" fill-rule="nonzero" fill-opacity="1" /><path clip-path="url(#clip870)" d="M2350.13 1479.7 L2355.01 1479.7 L2355.01 1485.58 L2350.13 1485.58 L2350.13 1479.7 Z" fill="#000000" fill-rule="nonzero" fill-opacity="1" /><path clip-path="url(#clip870)" d="M2375.2 1454.1 Q2371.59 1454.1 2369.76 1457.66 Q2367.95 1461.2 2367.95 1468.33 Q2367.95 1475.44 2369.76 1479.01 Q2371.59 1482.55 2375.2 1482.55 Q2378.83 1482.55 2380.64 1479.01 Q2382.47 1475.44 2382.47 1468.33 Q2382.47 1461.2 2380.64 1457.66 Q2378.83 1454.1 2375.2 1454.1 M2375.2 1450.39 Q2381.01 1450.39 2384.06 1455 Q2387.14 1459.58 2387.14 1468.33 Q2387.14 1477.06 2384.06 1481.67 Q2381.01 1486.25 2375.2 1486.25 Q2369.39 1486.25 2366.31 1481.67 Q2363.25 1477.06 2363.25 1468.33 Q2363.25 1459.58 2366.31 1455 Q2369.39 1450.39 2375.2 1450.39 Z" fill="#000000" fill-rule="nonzero" fill-opacity="1" /><path clip-path="url(#clip870)" d="M1272.65 1522.27 L1272.65 1532.4 L1284.71 1532.4 L1284.71 1536.95 L1272.65 1536.95 L1272.65 1556.3 Q1272.65 1560.66 1273.83 1561.9 Q1275.04 1563.14 1278.7 1563.14 L1284.71 1563.14 L1284.71 1568.04 L1278.7 1568.04 Q1271.92 1568.04 1269.34 1565.53 Q1266.76 1562.98 1266.76 1556.3 L1266.76 1536.95 L1262.46 1536.95 L1262.46 1532.4 L1266.76 1532.4 L1266.76 1522.27 L1272.65 1522.27 Z" fill="#000000" fill-rule="nonzero" fill-opacity="1" /><polyline clip-path="url(#clip870)" style="stroke:#000000; stroke-linecap:round; stroke-linejoin:round; stroke-width:4; stroke-opacity:1; fill:none" points="194.422,1423.18 194.422,47.2441 "/>
<polyline clip-path="url(#clip870)" style="stroke:#000000; stroke-linecap:round; stroke-linejoin:round; stroke-width:4; stroke-opacity:1; fill:none" points="194.422,1371.19 213.32,1371.19 "/>
<polyline clip-path="url(#clip870)" style="stroke:#000000; stroke-linecap:round; stroke-linejoin:round; stroke-width:4; stroke-opacity:1; fill:none" points="194.422,1112.8 213.32,1112.8 "/>
<polyline clip-path="url(#clip870)" style="stroke:#000000; stroke-linecap:round; stroke-linejoin:round; stroke-width:4; stroke-opacity:1; fill:none" points="194.422,854.408 213.32,854.408 "/>
<polyline clip-path="url(#clip870)" style="stroke:#000000; stroke-linecap:round; stroke-linejoin:round; stroke-width:4; stroke-opacity:1; fill:none" points="194.422,596.017 213.32,596.017 "/>
<polyline clip-path="url(#clip870)" style="stroke:#000000; stroke-linecap:round; stroke-linejoin:round; stroke-width:4; stroke-opacity:1; fill:none" points="194.422,337.626 213.32,337.626 "/>
<polyline clip-path="url(#clip870)" style="stroke:#000000; stroke-linecap:round; stroke-linejoin:round; stroke-width:4; stroke-opacity:1; fill:none" points="194.422,79.2347 213.32,79.2347 "/>
<path clip-path="url(#clip870)" d="M52.381 1371.64 L82.0568 1371.64 L82.0568 1375.58 L52.381 1375.58 L52.381 1371.64 Z" fill="#000000" fill-rule="nonzero" fill-opacity="1" /><path clip-path="url(#clip870)" d="M102.149 1356.99 Q98.5382 1356.99 96.7095 1360.55 Q94.9039 1364.1 94.9039 1371.23 Q94.9039 1378.33 96.7095 1381.9 Q98.5382 1385.44 102.149 1385.44 Q105.783 1385.44 107.589 1381.9 Q109.418 1378.33 109.418 1371.23 Q109.418 1364.1 107.589 1360.55 Q105.783 1356.99 102.149 1356.99 M102.149 1353.29 Q107.959 1353.29 111.015 1357.89 Q114.094 1362.48 114.094 1371.23 Q114.094 1379.95 111.015 1384.56 Q107.959 1389.14 102.149 1389.14 Q96.3391 1389.14 93.2604 1384.56 Q90.2049 1379.95 90.2049 1371.23 Q90.2049 1362.48 93.2604 1357.89 Q96.3391 1353.29 102.149 1353.29 Z" fill="#000000" fill-rule="nonzero" fill-opacity="1" /><path clip-path="url(#clip870)" d="M122.311 1382.59 L127.195 1382.59 L127.195 1388.47 L122.311 1388.47 L122.311 1382.59 Z" fill="#000000" fill-rule="nonzero" fill-opacity="1" /><path clip-path="url(#clip870)" d="M136.2 1353.91 L158.422 1353.91 L158.422 1355.9 L145.876 1388.47 L140.992 1388.47 L152.797 1357.85 L136.2 1357.85 L136.2 1353.91 Z" fill="#000000" fill-rule="nonzero" fill-opacity="1" /><path clip-path="url(#clip870)" d="M51.3162 1113.25 L80.992 1113.25 L80.992 1117.19 L51.3162 1117.19 L51.3162 1113.25 Z" fill="#000000" fill-rule="nonzero" fill-opacity="1" /><path clip-path="url(#clip870)" d="M101.084 1098.6 Q97.4734 1098.6 95.6447 1102.16 Q93.8391 1105.7 93.8391 1112.83 Q93.8391 1119.94 95.6447 1123.51 Q97.4734 1127.05 101.084 1127.05 Q104.719 1127.05 106.524 1123.51 Q108.353 1119.94 108.353 1112.83 Q108.353 1105.7 106.524 1102.16 Q104.719 1098.6 101.084 1098.6 M101.084 1094.89 Q106.895 1094.89 109.95 1099.5 Q113.029 1104.08 113.029 1112.83 Q113.029 1121.56 109.95 1126.17 Q106.895 1130.75 101.084 1130.75 Q95.2743 1130.75 92.1956 1126.17 Q89.1401 1121.56 89.1401 1112.83 Q89.1401 1104.08 92.1956 1099.5 Q95.2743 1094.89 101.084 1094.89 Z" fill="#000000" fill-rule="nonzero" fill-opacity="1" /><path clip-path="url(#clip870)" d="M121.246 1124.2 L126.131 1124.2 L126.131 1130.08 L121.246 1130.08 L121.246 1124.2 Z" fill="#000000" fill-rule="nonzero" fill-opacity="1" /><path clip-path="url(#clip870)" d="M146.894 1110.94 Q143.746 1110.94 141.894 1113.09 Q140.066 1115.24 140.066 1118.99 Q140.066 1122.72 141.894 1124.89 Q143.746 1127.05 146.894 1127.05 Q150.043 1127.05 151.871 1124.89 Q153.723 1122.72 153.723 1118.99 Q153.723 1115.24 151.871 1113.09 Q150.043 1110.94 146.894 1110.94 M156.177 1096.28 L156.177 1100.54 Q154.417 1099.71 152.612 1099.27 Q150.83 1098.83 149.07 1098.83 Q144.441 1098.83 141.987 1101.95 Q139.556 1105.08 139.209 1111.4 Q140.575 1109.39 142.635 1108.32 Q144.695 1107.23 147.172 1107.23 Q152.38 1107.23 155.39 1110.4 Q158.422 1113.55 158.422 1118.99 Q158.422 1124.32 155.274 1127.53 Q152.126 1130.75 146.894 1130.75 Q140.899 1130.75 137.728 1126.17 Q134.556 1121.56 134.556 1112.83 Q134.556 1104.64 138.445 1099.78 Q142.334 1094.89 148.885 1094.89 Q150.644 1094.89 152.427 1095.24 Q154.232 1095.59 156.177 1096.28 Z" fill="#000000" fill-rule="nonzero" fill-opacity="1" /><path clip-path="url(#clip870)" d="M52.4736 854.86 L82.1494 854.86 L82.1494 858.795 L52.4736 858.795 L52.4736 854.86 Z" fill="#000000" fill-rule="nonzero" fill-opacity="1" /><path clip-path="url(#clip870)" d="M102.242 840.207 Q98.6308 840.207 96.8021 843.772 Q94.9965 847.314 94.9965 854.443 Q94.9965 861.55 96.8021 865.114 Q98.6308 868.656 102.242 868.656 Q105.876 868.656 107.682 865.114 Q109.51 861.55 109.51 854.443 Q109.51 847.314 107.682 843.772 Q105.876 840.207 102.242 840.207 M102.242 836.503 Q108.052 836.503 111.108 841.11 Q114.186 845.693 114.186 854.443 Q114.186 863.17 111.108 867.776 Q108.052 872.36 102.242 872.36 Q96.4317 872.36 93.353 867.776 Q90.2975 863.17 90.2975 854.443 Q90.2975 845.693 93.353 841.11 Q96.4317 836.503 102.242 836.503 Z" fill="#000000" fill-rule="nonzero" fill-opacity="1" /><path clip-path="url(#clip870)" d="M122.404 865.809 L127.288 865.809 L127.288 871.688 L122.404 871.688 L122.404 865.809 Z" fill="#000000" fill-rule="nonzero" fill-opacity="1" /><path clip-path="url(#clip870)" d="M137.519 837.128 L155.876 837.128 L155.876 841.064 L141.802 841.064 L141.802 849.536 Q142.82 849.189 143.839 849.026 Q144.857 848.841 145.876 848.841 Q151.663 848.841 155.042 852.013 Q158.422 855.184 158.422 860.6 Q158.422 866.179 154.95 869.281 Q151.478 872.36 145.158 872.36 Q142.982 872.36 140.714 871.989 Q138.469 871.619 136.061 870.878 L136.061 866.179 Q138.144 867.313 140.367 867.869 Q142.589 868.425 145.066 868.425 Q149.07 868.425 151.408 866.318 Q153.746 864.212 153.746 860.6 Q153.746 856.989 151.408 854.883 Q149.07 852.776 145.066 852.776 Q143.191 852.776 141.316 853.193 Q139.464 853.61 137.519 854.489 L137.519 837.128 Z" fill="#000000" fill-rule="nonzero" fill-opacity="1" /><path clip-path="url(#clip870)" d="M50.9921 596.469 L80.6679 596.469 L80.6679 600.404 L50.9921 600.404 L50.9921 596.469 Z" fill="#000000" fill-rule="nonzero" fill-opacity="1" /><path clip-path="url(#clip870)" d="M100.76 581.816 Q97.1493 581.816 95.3206 585.381 Q93.515 588.922 93.515 596.052 Q93.515 603.158 95.3206 606.723 Q97.1493 610.265 100.76 610.265 Q104.395 610.265 106.2 606.723 Q108.029 603.158 108.029 596.052 Q108.029 588.922 106.2 585.381 Q104.395 581.816 100.76 581.816 M100.76 578.112 Q106.571 578.112 109.626 582.719 Q112.705 587.302 112.705 596.052 Q112.705 604.779 109.626 609.385 Q106.571 613.968 100.76 613.968 Q94.9502 613.968 91.8715 609.385 Q88.816 604.779 88.816 596.052 Q88.816 587.302 91.8715 582.719 Q94.9502 578.112 100.76 578.112 Z" fill="#000000" fill-rule="nonzero" fill-opacity="1" /><path clip-path="url(#clip870)" d="M120.922 607.418 L125.807 607.418 L125.807 613.297 L120.922 613.297 L120.922 607.418 Z" fill="#000000" fill-rule="nonzero" fill-opacity="1" /><path clip-path="url(#clip870)" d="M148.839 582.811 L137.033 601.26 L148.839 601.26 L148.839 582.811 M147.612 578.737 L153.492 578.737 L153.492 601.26 L158.422 601.26 L158.422 605.149 L153.492 605.149 L153.492 613.297 L148.839 613.297 L148.839 605.149 L133.237 605.149 L133.237 600.635 L147.612 578.737 Z" fill="#000000" fill-rule="nonzero" fill-opacity="1" /><path clip-path="url(#clip870)" d="M52.1264 338.077 L81.8021 338.077 L81.8021 342.012 L52.1264 342.012 L52.1264 338.077 Z" fill="#000000" fill-rule="nonzero" fill-opacity="1" /><path clip-path="url(#clip870)" d="M101.895 323.425 Q98.2835 323.425 96.4548 326.989 Q94.6493 330.531 94.6493 337.661 Q94.6493 344.767 96.4548 348.332 Q98.2835 351.874 101.895 351.874 Q105.529 351.874 107.334 348.332 Q109.163 344.767 109.163 337.661 Q109.163 330.531 107.334 326.989 Q105.529 323.425 101.895 323.425 M101.895 319.721 Q107.705 319.721 110.76 324.327 Q113.839 328.911 113.839 337.661 Q113.839 346.387 110.76 350.994 Q107.705 355.577 101.895 355.577 Q96.0845 355.577 93.0058 350.994 Q89.9503 346.387 89.9503 337.661 Q89.9503 328.911 93.0058 324.327 Q96.0845 319.721 101.895 319.721 Z" fill="#000000" fill-rule="nonzero" fill-opacity="1" /><path clip-path="url(#clip870)" d="M122.057 349.026 L126.941 349.026 L126.941 354.906 L122.057 354.906 L122.057 349.026 Z" fill="#000000" fill-rule="nonzero" fill-opacity="1" /><path clip-path="url(#clip870)" d="M151.293 336.272 Q154.649 336.989 156.524 339.258 Q158.422 341.526 158.422 344.86 Q158.422 349.975 154.904 352.776 Q151.385 355.577 144.904 355.577 Q142.728 355.577 140.413 355.137 Q138.121 354.721 135.668 353.864 L135.668 349.35 Q137.612 350.485 139.927 351.063 Q142.242 351.642 144.765 351.642 Q149.163 351.642 151.455 349.906 Q153.769 348.17 153.769 344.86 Q153.769 341.804 151.617 340.091 Q149.487 338.355 145.668 338.355 L141.64 338.355 L141.64 334.512 L145.853 334.512 Q149.302 334.512 151.13 333.147 Q152.959 331.758 152.959 329.165 Q152.959 326.503 151.061 325.091 Q149.186 323.656 145.668 323.656 Q143.746 323.656 141.547 324.073 Q139.348 324.489 136.709 325.369 L136.709 321.202 Q139.371 320.462 141.686 320.091 Q144.024 319.721 146.084 319.721 Q151.408 319.721 154.51 322.151 Q157.612 324.559 157.612 328.679 Q157.612 331.55 155.968 333.54 Q154.325 335.508 151.293 336.272 Z" fill="#000000" fill-rule="nonzero" fill-opacity="1" /><path clip-path="url(#clip870)" d="M53.0754 79.686 L82.7512 79.686 L82.7512 83.6212 L53.0754 83.6212 L53.0754 79.686 Z" fill="#000000" fill-rule="nonzero" fill-opacity="1" /><path clip-path="url(#clip870)" d="M102.844 65.0333 Q99.2326 65.0333 97.4039 68.5981 Q95.5984 72.1398 95.5984 79.2694 Q95.5984 86.3758 97.4039 89.9406 Q99.2326 93.4823 102.844 93.4823 Q106.478 93.4823 108.283 89.9406 Q110.112 86.3758 110.112 79.2694 Q110.112 72.1398 108.283 68.5981 Q106.478 65.0333 102.844 65.0333 M102.844 61.3297 Q108.654 61.3297 111.709 65.9361 Q114.788 70.5194 114.788 79.2694 Q114.788 87.9962 111.709 92.6026 Q108.654 97.1859 102.844 97.1859 Q97.0335 97.1859 93.9549 92.6026 Q90.8993 87.9962 90.8993 79.2694 Q90.8993 70.5194 93.9549 65.9361 Q97.0335 61.3297 102.844 61.3297 Z" fill="#000000" fill-rule="nonzero" fill-opacity="1" /><path clip-path="url(#clip870)" d="M123.006 90.6351 L127.89 90.6351 L127.89 96.5147 L123.006 96.5147 L123.006 90.6351 Z" fill="#000000" fill-rule="nonzero" fill-opacity="1" /><path clip-path="url(#clip870)" d="M142.103 92.5795 L158.422 92.5795 L158.422 96.5147 L136.478 96.5147 L136.478 92.5795 Q139.14 89.8249 143.723 85.1953 Q148.33 80.5425 149.51 79.1999 Q151.755 76.6768 152.635 74.9407 Q153.538 73.1814 153.538 71.4916 Q153.538 68.737 151.593 67.0009 Q149.672 65.2648 146.57 65.2648 Q144.371 65.2648 141.918 66.0287 Q139.487 66.7926 136.709 68.3435 L136.709 63.6213 Q139.533 62.4871 141.987 61.9084 Q144.441 61.3297 146.478 61.3297 Q151.848 61.3297 155.042 64.0148 Q158.237 66.7 158.237 71.1907 Q158.237 73.3203 157.427 75.2416 Q156.64 77.1398 154.533 79.7323 Q153.955 80.4036 150.853 83.6212 Q147.751 86.8156 142.103 92.5795 Z" fill="#000000" fill-rule="nonzero" fill-opacity="1" /><polyline clip-path="url(#clip872)" style="stroke:#009af9; stroke-linecap:round; stroke-linejoin:round; stroke-width:4; stroke-opacity:1; fill:none" points="194.422,86.1857 196.583,86.4339 198.743,86.6797 200.904,86.9231 203.064,87.164 205.225,87.4025 207.385,87.6387 209.546,87.8725 211.706,88.1039 213.867,88.3331 216.027,88.56 218.188,88.7846 220.348,89.007 222.509,89.2271 224.669,89.4451 226.83,89.6609 228.99,89.8745 231.151,90.0861 233.311,90.2955 235.471,90.5028 237.632,90.7081 239.792,90.9113 241.953,91.1125 244.113,91.3117 246.274,91.5089 248.434,91.7041 250.595,91.8974 252.755,92.0888 254.916,92.2782 257.076,92.4658 259.237,92.6515 261.397,92.8354 263.558,93.0174 265.718,93.1977 267.879,93.3761 270.039,93.5527 272.2,93.7276 274.36,93.9008 276.521,94.0722 278.681,94.2419 280.842,94.4099 283.002,94.5763 285.163,94.741 287.323,94.904 289.484,95.0655 291.644,95.2253 293.805,95.3835 295.965,95.5402 298.126,95.6953 300.286,95.8488 302.447,96.0008 304.607,96.1513 306.768,96.3003 308.928,96.4478 311.089,96.5939 313.249,96.7385 315.41,96.8816 317.57,97.0234 319.731,97.1637 321.891,97.3026 324.052,97.4401 326.212,97.5763 328.373,97.7111 330.533,97.8446 332.694,97.9767 334.854,98.1075 337.015,98.2371 339.175,98.3653 341.336,98.4922 343.496,98.6179 345.657,98.7424 347.817,98.8656 349.978,98.9875 352.138,99.1083 354.299,99.2279 356.459,99.3462 358.62,99.4634 360.78,99.5794 362.941,99.6943 365.101,99.808 367.262,99.9206 369.422,100.032 371.583,100.142 373.743,100.252 375.904,100.36 378.064,100.467 380.225,100.573 382.385,100.678 384.546,100.782 386.706,100.885 388.867,100.987 391.027,101.087 393.188,101.187 395.348,101.286 397.509,101.384 399.669,101.481 401.83,101.577 403.99,101.672 406.151,101.766 408.311,101.859 410.472,101.951 412.632,102.042 414.793,102.133 416.953,102.222 419.114,102.311 421.274,102.398 423.435,102.485 425.595,102.571 427.755,102.656 429.916,102.74 432.076,102.824 434.237,102.906 436.397,102.988 438.558,103.069 440.718,103.149 442.879,103.228 445.039,103.307 447.2,103.384 449.36,103.461 451.521,103.538 453.681,103.613 455.842,103.688 458.002,103.762 460.163,103.835 462.323,103.907 464.484,103.979 466.644,104.05 468.805,104.12 470.965,104.19 473.126,104.259 475.286,104.327 477.447,104.395 479.607,104.462 481.768,104.528 483.928,104.594 486.089,104.659 488.249,104.723 490.41,104.786 492.57,104.849 494.731,104.912 496.891,104.974 499.052,105.035 501.212,105.095 503.373,105.155 505.533,105.214 507.694,105.273 509.854,105.331 512.015,105.389 514.175,105.446 516.336,105.502 518.496,105.558 520.657,105.613 522.817,105.668 524.978,105.722 527.138,105.776 529.299,105.829 531.459,105.882 533.62,105.934 535.78,105.986 537.941,106.037 540.101,106.087 542.262,106.137 544.422,106.187 546.583,106.236 548.743,106.284 550.904,106.332 553.064,106.38 555.225,106.427 557.385,106.474 559.546,106.52 561.706,106.566 563.867,106.611 566.027,106.656 568.188,106.7 570.348,106.744 572.509,106.788 574.669,106.831 576.83,106.873 578.99,106.916 581.151,106.957 583.311,106.999 585.472,107.04 587.632,107.08 589.793,107.12 591.953,107.16 594.114,107.2 596.274,107.239 598.435,107.277 600.595,107.315 602.756,107.353 604.916,107.391 607.077,107.428 609.237,107.464 611.398,107.501 613.558,107.537 615.718,107.572 617.879,107.607 620.039,107.642 622.2,107.677 624.36,107.711 626.521,107.745 628.681,107.778 630.842,107.812 633.002,107.845 635.163,107.877 637.323,107.909 639.484,107.941 641.644,107.973 643.805,108.004 645.965,108.035 648.126,108.066 650.286,108.096 652.447,108.126 654.607,108.156 656.768,108.185 658.928,108.214 661.089,108.243 663.249,108.272 665.41,108.3 667.57,108.328 669.731,108.356 671.891,108.383 674.052,108.41 676.212,108.437 678.373,108.464 680.533,108.49 682.694,108.516 684.854,108.542 687.015,108.568 689.175,108.593 691.336,108.618 693.496,108.643 695.657,108.668 697.817,108.692 699.978,108.716 702.138,108.74 704.299,108.764 706.459,108.787 708.62,108.81 710.78,108.833 712.941,108.856 715.101,108.878 717.262,108.901 719.422,108.923 721.583,108.944 723.743,108.966 725.904,108.987 728.064,109.008 730.225,109.029 732.385,109.05 734.546,109.071 736.706,109.091 738.867,109.111 741.027,109.131 743.188,109.151 745.348,109.17 747.509,109.19 749.669,109.209 751.83,109.228 753.99,109.247 756.151,109.265 758.311,109.283 760.472,109.302 762.632,109.32 764.793,109.338 766.953,109.355 769.114,109.373 771.274,109.39 773.435,109.407 775.595,109.424 777.756,109.441 779.916,109.458 782.077,109.474 784.237,109.49 786.398,109.506 788.558,109.522 790.719,109.538 792.879,109.554 795.04,109.569 797.2,109.585 799.361,109.6 801.521,109.615 803.681,109.63 805.842,109.645 808.002,109.659 810.163,109.674 812.323,109.688 814.484,109.702 816.644,109.716 818.805,109.73 820.965,109.744 823.126,109.758 825.286,109.771 827.447,109.784 829.607,109.798 831.768,109.811 833.928,109.824 836.089,109.836 838.249,109.849 840.41,109.862 842.57,109.874 844.731,109.887 846.891,109.899 849.052,109.911 851.212,109.923 853.373,109.935 855.533,109.946 857.694,109.958 859.854,109.969 862.015,109.981 864.175,109.992 866.336,110.003 868.496,110.014 870.657,110.025 872.817,110.036 874.978,110.047 877.138,110.057 879.299,110.068 881.459,110.078 883.62,110.089 885.78,110.099 887.941,110.109 890.101,110.119 892.262,110.129 894.422,110.139 896.583,110.148 898.743,110.158 900.904,110.167 903.064,110.177 905.225,110.186 907.385,110.195 909.546,110.204 911.706,110.213 913.867,110.222 916.027,110.231 918.188,110.24 920.348,110.249 922.509,110.257 924.669,110.266 926.83,110.274 928.99,110.282 931.151,110.291 933.311,110.299 935.472,110.307 937.632,110.315 939.793,110.323 941.953,110.331 944.114,110.339 946.274,110.346 948.435,110.354 950.595,110.361 952.756,110.369 954.916,110.376 957.077,110.384 959.237,110.391 961.398,110.398 963.558,110.405 965.719,110.412 967.879,110.419 970.04,110.426 972.2,110.433 974.361,110.44 976.521,110.446 978.682,110.453 980.842,110.459 983.003,110.466 985.163,110.472 987.324,110.479 989.484,110.485 991.645,110.491 993.805,110.497 995.965,110.504 998.126,110.51 1000.29,110.516 1002.45,110.522 1004.61,110.527 1006.77,110.533 1008.93,110.539 1011.09,110.545 1013.25,110.55 1015.41,110.556 1017.57,110.562 1019.73,110.567 1021.89,110.573 1024.05,110.578 1026.21,110.583 1028.37,110.588 1030.53,110.594 1032.69,110.599 1034.85,110.604 1037.01,110.609 1039.18,110.614 1041.34,110.619 1043.5,110.624 1045.66,110.629 1047.82,110.634 1049.98,110.638 1052.14,110.643 1054.3,110.648 1056.46,110.652 1058.62,110.657 1060.78,110.661 1062.94,110.666 1065.1,110.67 1067.26,110.675 1069.42,110.679 1071.58,110.683 1073.74,110.688 1075.9,110.692 1078.06,110.696 1080.22,110.7 1082.39,110.704 1084.55,110.708 1086.71,110.712 1088.87,110.716 1091.03,110.72 1093.19,110.724 1095.35,110.728 1097.51,110.732 1099.67,110.736 1101.83,110.739 1103.99,110.743 1106.15,110.747 1108.31,110.75 1110.47,110.754 1112.63,110.758 1114.79,110.761 1116.95,110.765 1119.11,110.768 1121.27,110.771 1123.43,110.775 1125.6,110.778 1127.76,110.781 1129.92,110.785 1132.08,110.788 1134.24,110.791 1136.4,110.794 1138.56,110.798 1140.72,110.801 1142.88,110.804 1145.04,110.807 1147.2,110.81 1149.36,110.813 1151.52,110.816 1153.68,110.819 1155.84,110.822 1158,110.825 1160.16,110.827 1162.32,110.83 1164.48,110.833 1166.64,110.836 1168.81,110.838 1170.97,110.841 1173.13,110.844 1175.29,110.847 1177.45,110.849 1179.61,110.852 1181.77,110.854 1183.93,110.857 1186.09,110.86 1188.25,110.862 1190.41,110.865 1192.57,110.867 1194.73,110.869 1196.89,110.872 1199.05,110.874 1201.21,110.877 1203.37,110.879 1205.53,110.881 1207.69,110.884 1209.85,110.886 1212.01,110.888 1214.18,110.89 1216.34,110.893 1218.5,110.895 1220.66,110.897 1222.82,110.899 1224.98,110.901 1227.14,110.903 1229.3,110.905 1231.46,110.907 1233.62,110.909 1235.78,110.911 1237.94,110.913 1240.1,110.915 1242.26,110.917 1244.42,110.919 1246.58,110.921 1248.74,110.923 1250.9,110.925 1253.06,110.927 1255.22,110.929 1257.39,110.931 1259.55,110.932 1261.71,110.934 1263.87,110.936 1266.03,110.938 1268.19,110.939 1270.35,110.941 1272.51,110.943 1274.67,110.945 1276.83,110.946 1278.99,110.948 1281.15,110.949 1283.31,110.951 1285.47,110.953 1287.63,110.954 1289.79,110.956 1291.95,110.957 1294.11,110.959 1296.27,110.96 1298.43,110.962 1300.6,110.963 1302.76,110.965 1304.92,110.966 1307.08,110.968 1309.24,110.969 1311.4,110.971 1313.56,110.972 1315.72,110.973 1317.88,110.975 1320.04,110.976 1322.2,110.977 1324.36,110.979 1326.52,110.98 1328.68,110.981 1330.84,110.983 1333,110.984 1335.16,110.985 1337.32,110.987 1339.48,110.988 1341.64,110.989 1343.81,110.99 1345.97,110.991 1348.13,110.993 1350.29,110.994 1352.45,110.995 1354.61,110.996 1356.77,110.997 1358.93,110.998 1361.09,110.999 1363.25,111.001 1365.41,111.002 1367.57,111.003 1369.73,111.004 1371.89,111.005 1374.05,111.006 1376.21,111.007 1378.37,111.008 1380.53,111.009 1382.69,111.01 1384.85,111.011 1387.01,111.012 1389.18,111.013 1391.34,111.014 1393.5,111.015 1395.66,111.016 1397.82,111.017 1399.98,111.018 1402.14,111.019 1404.3,111.02 1406.46,111.021 1408.62,111.022 1410.78,111.022 1412.94,111.023 1415.1,111.024 1417.26,111.025 1419.42,111.026 1421.58,111.027 1423.74,111.028 1425.9,111.029 1428.06,111.029 1430.22,111.03 1432.39,111.031 1434.55,111.032 1436.71,111.033 1438.87,111.033 1441.03,111.034 1443.19,111.035 1445.35,111.036 1447.51,111.036 1449.67,111.037 1451.83,111.038 1453.99,111.039 1456.15,111.039 1458.31,111.04 1460.47,111.041 1462.63,111.042 1464.79,111.042 1466.95,111.043 1469.11,111.044 1471.27,111.044 1473.43,111.045 1475.6,111.046 1477.76,111.046 1479.92,111.047 1482.08,111.048 1484.24,111.048 1486.4,111.049 1488.56,111.05 1490.72,111.05 1492.88,111.051 1495.04,111.051 1497.2,111.052 1499.36,111.053 1501.52,111.053 1503.68,111.054 1505.84,111.054 1508,111.055 1510.16,111.055 1512.32,111.056 1514.48,111.057 1516.64,111.057 1518.81,111.058 1520.97,111.058 1523.13,111.059 1525.29,111.059 1527.45,111.06 1529.61,111.06 1531.77,111.061 1533.93,111.061 1536.09,111.062 1538.25,111.062 1540.41,111.063 1542.57,111.063 1544.73,111.064 1546.89,111.064 1549.05,111.065 1551.21,111.065 1553.37,111.066 1555.53,111.066 1557.69,111.067 1559.85,111.067 1562.01,111.067 1564.18,111.068 1566.34,111.068 1568.5,111.069 1570.66,111.069 1572.82,111.07 1574.98,111.07 1577.14,111.07 1579.3,111.071 1581.46,111.071 1583.62,111.072 1585.78,111.072 1587.94,111.072 1590.1,111.073 1592.26,111.073 1594.42,111.074 1596.58,111.074 1598.74,111.074 1600.9,111.075 1603.06,111.075 1605.22,111.075 1607.39,111.076 1609.55,111.076 1611.71,111.076 1613.87,111.077 1616.03,111.077 1618.19,111.077 1620.35,111.078 1622.51,111.078 1624.67,111.078 1626.83,111.079 1628.99,111.079 1631.15,111.079 1633.31,111.08 1635.47,111.08 1637.63,111.08 1639.79,111.081 1641.95,111.081 1644.11,111.081 1646.27,111.082 1648.43,111.082 1650.6,111.082 1652.76,111.082 1654.92,111.083 1657.08,111.083 1659.24,111.083 1661.4,111.084 1663.56,111.084 1665.72,111.084 1667.88,111.084 1670.04,111.085 1672.2,111.085 1674.36,111.085 1676.52,111.085 1678.68,111.086 1680.84,111.086 1683,111.086 1685.16,111.086 1687.32,111.087 1689.48,111.087 1691.64,111.087 1693.81,111.087 1695.97,111.088 1698.13,111.088 1700.29,111.088 1702.45,111.088 1704.61,111.089 1706.77,111.089 1708.93,111.089 1711.09,111.089 1713.25,111.09 1715.41,111.09 1717.57,111.09 1719.73,111.09 1721.89,111.09 1724.05,111.091 1726.21,111.091 1728.37,111.091 1730.53,111.091 1732.69,111.091 1734.85,111.092 1737.02,111.092 1739.18,111.092 1741.34,111.092 1743.5,111.092 1745.66,111.093 1747.82,111.093 1749.98,111.093 1752.14,111.093 1754.3,111.093 1756.46,111.094 1758.62,111.094 1760.78,111.094 1762.94,111.094 1765.1,111.094 1767.26,111.094 1769.42,111.095 1771.58,111.095 1773.74,111.095 1775.9,111.095 1778.06,111.095 1780.22,111.095 1782.39,111.096 1784.55,111.096 1786.71,111.096 1788.87,111.096 1791.03,111.096 1793.19,111.096 1795.35,111.097 1797.51,111.097 1799.67,111.097 1801.83,111.097 1803.99,111.097 1806.15,111.097 1808.31,111.097 1810.47,111.098 1812.63,111.098 1814.79,111.098 1816.95,111.098 1819.11,111.098 1821.27,111.098 1823.43,111.098 1825.6,111.099 1827.76,111.099 1829.92,111.099 1832.08,111.099 1834.24,111.099 1836.4,111.099 1838.56,111.099 1840.72,111.099 1842.88,111.1 1845.04,111.1 1847.2,111.1 1849.36,111.1 1851.52,111.1 1853.68,111.1 1855.84,111.1 1858,111.1 1860.16,111.1 1862.32,111.101 1864.48,111.101 1866.64,111.101 1868.81,111.101 1870.97,111.101 1873.13,111.101 1875.29,111.101 1877.45,111.101 1879.61,111.101 1881.77,111.101 1883.93,111.102 1886.09,111.102 1888.25,111.102 1890.41,111.102 1892.57,111.102 1894.73,111.102 1896.89,111.102 1899.05,111.102 1901.21,111.102 1903.37,111.102 1905.53,111.102 1907.69,111.103 1909.85,111.103 1912.02,111.103 1914.18,111.103 1916.34,111.103 1918.5,111.103 1920.66,111.103 1922.82,111.103 1924.98,111.103 1927.14,111.103 1929.3,111.103 1931.46,111.103 1933.62,111.104 1935.78,111.104 1937.94,111.104 1940.1,111.104 1942.26,111.104 1944.42,111.104 1946.58,111.104 1948.74,111.104 1950.9,111.104 1953.06,111.104 1955.22,111.104 1957.39,111.104 1959.55,111.104 1961.71,111.104 1963.87,111.105 1966.03,111.105 1968.19,111.105 1970.35,111.105 1972.51,111.105 1974.67,111.105 1976.83,111.105 1978.99,111.105 1981.15,111.105 1983.31,111.105 1985.47,111.105 1987.63,111.105 1989.79,111.105 1991.95,111.105 1994.11,111.105 1996.27,111.106 1998.43,111.106 2000.6,111.106 2002.76,111.106 2004.92,111.106 2007.08,111.106 2009.24,111.106 2011.4,111.106 2013.56,111.106 2015.72,111.106 2017.88,111.106 2020.04,111.106 2022.2,111.106 2024.36,111.106 2026.52,111.106 2028.68,111.106 2030.84,111.106 2033,111.106 2035.16,111.107 2037.32,111.107 2039.48,111.107 2041.64,111.107 2043.81,111.107 2045.97,111.107 2048.13,111.107 2050.29,111.107 2052.45,111.107 2054.61,111.107 2056.77,111.107 2058.93,111.107 2061.09,111.107 2063.25,111.107 2065.41,111.107 2067.57,111.107 2069.73,111.107 2071.89,111.107 2074.05,111.107 2076.21,111.107 2078.37,111.107 2080.53,111.108 2082.69,111.108 2084.85,111.108 2087.02,111.108 2089.18,111.108 2091.34,111.108 2093.5,111.108 2095.66,111.108 2097.82,111.108 2099.98,111.108 2102.14,111.108 2104.3,111.108 2106.46,111.108 2108.62,111.108 2110.78,111.108 2112.94,111.108 2115.1,111.108 2117.26,111.108 2119.42,111.108 2121.58,111.108 2123.74,111.108 2125.9,111.108 2128.06,111.108 2130.22,111.108 2132.39,111.108 2134.55,111.108 2136.71,111.108 2138.87,111.108 2141.03,111.109 2143.19,111.109 2145.35,111.109 2147.51,111.109 2149.67,111.109 2151.83,111.109 2153.99,111.109 2156.15,111.109 2158.31,111.109 2160.47,111.109 2162.63,111.109 2164.79,111.109 2166.95,111.109 2169.11,111.109 2171.27,111.109 2173.43,111.109 2175.6,111.109 2177.76,111.109 2179.92,111.109 2182.08,111.109 2184.24,111.109 2186.4,111.109 2188.56,111.109 2190.72,111.109 2192.88,111.109 2195.04,111.109 2197.2,111.109 2199.36,111.109 2201.52,111.109 2203.68,111.109 2205.84,111.109 2208,111.109 2210.16,111.109 2212.32,111.109 2214.48,111.109 2216.64,111.109 2218.81,111.109 2220.97,111.109 2223.13,111.109 2225.29,111.109 2227.45,111.109 2229.61,111.11 2231.77,111.11 2233.93,111.11 2236.09,111.11 2238.25,111.11 2240.41,111.11 2242.57,111.11 2244.73,111.11 2246.89,111.11 2249.05,111.11 2251.21,111.11 2253.37,111.11 2255.53,111.11 2257.69,111.11 2259.85,111.11 2262.02,111.11 2264.18,111.11 2266.34,111.11 2268.5,111.11 2270.66,111.11 2272.82,111.11 2274.98,111.11 2277.14,111.11 2279.3,111.11 2281.46,111.11 2283.62,111.11 2285.78,111.11 2287.94,111.11 2290.1,111.11 2292.26,111.11 2294.42,111.11 2296.58,111.11 2298.74,111.11 2300.9,111.11 2303.06,111.11 2305.23,111.11 2307.39,111.11 2309.55,111.11 2311.71,111.11 2313.87,111.11 2316.03,111.11 2318.19,111.11 2320.35,111.11 2322.51,111.11 2324.67,111.11 2326.83,111.11 2328.99,111.11 2331.15,111.11 2333.31,111.11 2335.47,111.11 2337.63,111.11 2339.79,111.11 2341.95,111.11 2344.11,111.11 2346.27,111.11 2348.43,111.11 2350.6,111.11 2352.76,111.11 "/>
<polyline clip-path="url(#clip872)" style="stroke:#e26f46; stroke-linecap:round; stroke-linejoin:round; stroke-width:4; stroke-opacity:1; fill:none" points="194.422,1384.24 196.583,1379.2 198.743,1374.17 200.904,1369.14 203.064,1364.12 205.225,1359.1 207.385,1354.09 209.546,1349.08 211.706,1344.08 213.867,1339.08 216.027,1334.09 218.188,1329.11 220.348,1324.13 222.509,1319.16 224.669,1314.2 226.83,1309.24 228.99,1304.29 231.151,1299.35 233.311,1294.42 235.471,1289.49 237.632,1284.57 239.792,1279.66 241.953,1274.76 244.113,1269.87 246.274,1264.98 248.434,1260.11 250.595,1255.24 252.755,1250.38 254.916,1245.54 257.076,1240.7 259.237,1235.87 261.397,1231.05 263.558,1226.24 265.718,1221.44 267.879,1216.65 270.039,1211.87 272.2,1207.1 274.36,1202.34 276.521,1197.59 278.681,1192.85 280.842,1188.13 283.002,1183.41 285.163,1178.71 287.323,1174.01 289.484,1169.33 291.644,1164.66 293.805,1160 295.965,1155.35 298.126,1150.71 300.286,1146.08 302.447,1141.47 304.607,1136.87 306.768,1132.28 308.928,1127.7 311.089,1123.13 313.249,1118.58 315.41,1114.04 317.57,1109.51 319.731,1104.99 321.891,1100.49 324.052,1096 326.212,1091.52 328.373,1087.05 330.533,1082.6 332.694,1078.16 334.854,1073.73 337.015,1069.31 339.175,1064.91 341.336,1060.52 343.496,1056.15 345.657,1051.78 347.817,1047.44 349.978,1043.1 352.138,1038.78 354.299,1034.47 356.459,1030.17 358.62,1025.89 360.78,1021.62 362.941,1017.36 365.101,1013.12 367.262,1008.89 369.422,1004.68 371.583,1000.48 373.743,996.291 375.904,992.118 378.064,987.958 380.225,983.812 382.385,979.679 384.546,975.561 386.706,971.456 388.867,967.366 391.027,963.289 393.188,959.226 395.348,955.177 397.509,951.142 399.669,947.121 401.83,943.114 403.99,939.122 406.151,935.143 408.311,931.178 410.472,927.227 412.632,923.291 414.793,919.368 416.953,915.46 419.114,911.566 421.274,907.686 423.435,903.82 425.595,899.968 427.755,896.13 429.916,892.307 432.076,888.498 434.237,884.702 436.397,880.921 438.558,877.155 440.718,873.402 442.879,869.664 445.039,865.939 447.2,862.229 449.36,858.533 451.521,854.852 453.681,851.184 455.842,847.531 458.002,843.891 460.163,840.266 462.323,836.655 464.484,833.058 466.644,829.475 468.805,825.906 470.965,822.352 473.126,818.811 475.286,815.284 477.447,811.772 479.607,808.273 481.768,804.789 483.928,801.318 486.089,797.861 488.249,794.419 490.41,790.99 492.57,787.575 494.731,784.174 496.891,780.787 499.052,777.414 501.212,774.055 503.373,770.709 505.533,767.377 507.694,764.059 509.854,760.755 512.015,757.465 514.175,754.188 516.336,750.925 518.496,747.676 520.657,744.44 522.817,741.218 524.978,738.01 527.138,734.815 529.299,731.633 531.459,728.466 533.62,725.311 535.78,722.171 537.941,719.043 540.101,715.93 542.262,712.829 544.422,709.742 546.583,706.668 548.743,703.608 550.904,700.561 553.064,697.527 555.225,694.507 557.385,691.499 559.546,688.505 561.706,685.524 563.867,682.556 566.027,679.601 568.188,676.66 570.348,673.731 572.509,670.815 574.669,667.912 576.83,665.023 578.99,662.146 581.151,659.281 583.311,656.43 585.472,653.592 587.632,650.766 589.793,647.953 591.953,645.152 594.114,642.364 596.274,639.589 598.435,636.827 600.595,634.077 602.756,631.339 604.916,628.614 607.077,625.901 609.237,623.201 611.398,620.513 613.558,617.837 615.718,615.174 617.879,612.523 620.039,609.884 622.2,607.257 624.36,604.642 626.521,602.04 628.681,599.449 630.842,596.871 633.002,594.305 635.163,591.75 637.323,589.208 639.484,586.677 641.644,584.158 643.805,581.651 645.965,579.156 648.126,576.672 650.286,574.2 652.447,571.74 654.607,569.292 656.768,566.855 658.928,564.429 661.089,562.015 663.249,559.613 665.41,557.222 667.57,554.842 669.731,552.474 671.891,550.117 674.052,547.771 676.212,545.437 678.373,543.113 680.533,540.801 682.694,538.5 684.854,536.21 687.015,533.932 689.175,531.664 691.336,529.407 693.496,527.161 695.657,524.926 697.817,522.702 699.978,520.488 702.138,518.286 704.299,516.094 706.459,513.912 708.62,511.742 710.78,509.582 712.941,507.432 715.101,505.293 717.262,503.165 719.422,501.046 721.583,498.939 723.743,496.841 725.904,494.754 728.064,492.678 730.225,490.611 732.385,488.555 734.546,486.509 736.706,484.472 738.867,482.446 741.027,480.43 743.188,478.425 745.348,476.428 747.509,474.442 749.669,472.466 751.83,470.5 753.99,468.543 756.151,466.596 758.311,464.659 760.472,462.732 762.632,460.814 764.793,458.906 766.953,457.007 769.114,455.118 771.274,453.239 773.435,451.368 775.595,449.508 777.756,447.656 779.916,445.814 782.077,443.982 784.237,442.158 786.398,440.344 788.558,438.539 790.719,436.743 792.879,434.956 795.04,433.178 797.2,431.41 799.361,429.65 801.521,427.899 803.681,426.158 805.842,424.425 808.002,422.701 810.163,420.985 812.323,419.279 814.484,417.581 816.644,415.892 818.805,414.212 820.965,412.54 823.126,410.877 825.286,409.223 827.447,407.577 829.607,405.939 831.768,404.31 833.928,402.689 836.089,401.077 838.249,399.473 840.41,397.878 842.57,396.29 844.731,394.711 846.891,393.14 849.052,391.577 851.212,390.022 853.373,388.475 855.533,386.937 857.694,385.406 859.854,383.883 862.015,382.369 864.175,380.862 866.336,379.363 868.496,377.871 870.657,376.388 872.817,374.912 874.978,373.444 877.138,371.984 879.299,370.531 881.459,369.086 883.62,367.649 885.78,366.219 887.941,364.796 890.101,363.381 892.262,361.974 894.422,360.574 896.583,359.181 898.743,357.795 900.904,356.417 903.064,355.046 905.225,353.682 907.385,352.326 909.546,350.977 911.706,349.634 913.867,348.299 916.027,346.971 918.188,345.65 920.348,344.336 922.509,343.029 924.669,341.729 926.83,340.436 928.99,339.149 931.151,337.87 933.311,336.597 935.472,335.331 937.632,334.072 939.793,332.819 941.953,331.573 944.114,330.334 946.274,329.102 948.435,327.876 950.595,326.656 952.756,325.443 954.916,324.237 957.077,323.037 959.237,321.843 961.398,320.656 963.558,319.475 965.719,318.301 967.879,317.133 970.04,315.971 972.2,314.815 974.361,313.666 976.521,312.523 978.682,311.386 980.842,310.255 983.003,309.13 985.163,308.011 987.324,306.898 989.484,305.792 991.645,304.691 993.805,303.596 995.965,302.507 998.126,301.424 1000.29,300.347 1002.45,299.276 1004.61,298.211 1006.77,297.151 1008.93,296.097 1011.09,295.049 1013.25,294.006 1015.41,292.969 1017.57,291.938 1019.73,290.912 1021.89,289.892 1024.05,288.878 1026.21,287.869 1028.37,286.865 1030.53,285.867 1032.69,284.875 1034.85,283.887 1037.01,282.906 1039.18,281.929 1041.34,280.958 1043.5,279.992 1045.66,279.031 1047.82,278.076 1049.98,277.126 1052.14,276.181 1054.3,275.241 1056.46,274.307 1058.62,273.377 1060.78,272.453 1062.94,271.533 1065.1,270.619 1067.26,269.71 1069.42,268.805 1071.58,267.906 1073.74,267.012 1075.9,266.122 1078.06,265.237 1080.22,264.358 1082.39,263.483 1084.55,262.612 1086.71,261.747 1088.87,260.886 1091.03,260.031 1093.19,259.179 1095.35,258.333 1097.51,257.491 1099.67,256.654 1101.83,255.821 1103.99,254.994 1106.15,254.17 1108.31,253.351 1110.47,252.537 1112.63,251.727 1114.79,250.922 1116.95,250.121 1119.11,249.324 1121.27,248.532 1123.43,247.745 1125.6,246.961 1127.76,246.182 1129.92,245.408 1132.08,244.637 1134.24,243.871 1136.4,243.11 1138.56,242.352 1140.72,241.599 1142.88,240.849 1145.04,240.104 1147.2,239.363 1149.36,238.627 1151.52,237.894 1153.68,237.165 1155.84,236.441 1158,235.72 1160.16,235.004 1162.32,234.291 1164.48,233.583 1166.64,232.878 1168.81,232.178 1170.97,231.481 1173.13,230.788 1175.29,230.099 1177.45,229.414 1179.61,228.733 1181.77,228.056 1183.93,227.382 1186.09,226.712 1188.25,226.046 1190.41,225.384 1192.57,224.725 1194.73,224.07 1196.89,223.419 1199.05,222.772 1201.21,222.128 1203.37,221.487 1205.53,220.85 1207.69,220.217 1209.85,219.587 1212.01,218.961 1214.18,218.339 1216.34,217.72 1218.5,217.104 1220.66,216.492 1222.82,215.883 1224.98,215.278 1227.14,214.676 1229.3,214.077 1231.46,213.482 1233.62,212.89 1235.78,212.302 1237.94,211.717 1240.1,211.135 1242.26,210.556 1244.42,209.981 1246.58,209.409 1248.74,208.84 1250.9,208.275 1253.06,207.712 1255.22,207.153 1257.39,206.597 1259.55,206.044 1261.71,205.494 1263.87,204.947 1266.03,204.404 1268.19,203.863 1270.35,203.326 1272.51,202.791 1274.67,202.26 1276.83,201.731 1278.99,201.206 1281.15,200.683 1283.31,200.164 1285.47,199.647 1287.63,199.134 1289.79,198.623 1291.95,198.115 1294.11,197.61 1296.27,197.108 1298.43,196.609 1300.6,196.112 1302.76,195.619 1304.92,195.128 1307.08,194.64 1309.24,194.155 1311.4,193.672 1313.56,193.192 1315.72,192.715 1317.88,192.241 1320.04,191.769 1322.2,191.3 1324.36,190.834 1326.52,190.371 1328.68,189.91 1330.84,189.451 1333,188.995 1335.16,188.542 1337.32,188.092 1339.48,187.644 1341.64,187.198 1343.81,186.755 1345.97,186.315 1348.13,185.877 1350.29,185.442 1352.45,185.009 1354.61,184.578 1356.77,184.15 1358.93,183.725 1361.09,183.302 1363.25,182.881 1365.41,182.463 1367.57,182.047 1369.73,181.633 1371.89,181.222 1374.05,180.813 1376.21,180.407 1378.37,180.003 1380.53,179.601 1382.69,179.201 1384.85,178.804 1387.01,178.409 1389.18,178.016 1391.34,177.626 1393.5,177.238 1395.66,176.852 1397.82,176.468 1399.98,176.087 1402.14,175.707 1404.3,175.33 1406.46,174.955 1408.62,174.582 1410.78,174.211 1412.94,173.843 1415.1,173.476 1417.26,173.112 1419.42,172.749 1421.58,172.389 1423.74,172.031 1425.9,171.675 1428.06,171.321 1430.22,170.969 1432.39,170.619 1434.55,170.271 1436.71,169.925 1438.87,169.581 1441.03,169.239 1443.19,168.898 1445.35,168.56 1447.51,168.224 1449.67,167.89 1451.83,167.558 1453.99,167.227 1456.15,166.899 1458.31,166.572 1460.47,166.247 1462.63,165.924 1464.79,165.603 1466.95,165.284 1469.11,164.967 1471.27,164.651 1473.43,164.338 1475.6,164.026 1477.76,163.716 1479.92,163.408 1482.08,163.101 1484.24,162.796 1486.4,162.493 1488.56,162.192 1490.72,161.893 1492.88,161.595 1495.04,161.299 1497.2,161.005 1499.36,160.712 1501.52,160.421 1503.68,160.132 1505.84,159.845 1508,159.559 1510.16,159.274 1512.32,158.992 1514.48,158.711 1516.64,158.432 1518.81,158.154 1520.97,157.878 1523.13,157.603 1525.29,157.33 1527.45,157.059 1529.61,156.789 1531.77,156.521 1533.93,156.255 1536.09,155.99 1538.25,155.726 1540.41,155.464 1542.57,155.203 1544.73,154.944 1546.89,154.687 1549.05,154.431 1551.21,154.176 1553.37,153.923 1555.53,153.672 1557.69,153.422 1559.85,153.173 1562.01,152.926 1564.18,152.68 1566.34,152.436 1568.5,152.193 1570.66,151.951 1572.82,151.711 1574.98,151.473 1577.14,151.235 1579.3,150.999 1581.46,150.765 1583.62,150.531 1585.78,150.3 1587.94,150.069 1590.1,149.84 1592.26,149.612 1594.42,149.385 1596.58,149.16 1598.74,148.936 1600.9,148.714 1603.06,148.492 1605.22,148.272 1607.39,148.054 1609.55,147.836 1611.71,147.62 1613.87,147.405 1616.03,147.191 1618.19,146.979 1620.35,146.768 1622.51,146.558 1624.67,146.349 1626.83,146.141 1628.99,145.935 1631.15,145.73 1633.31,145.526 1635.47,145.323 1637.63,145.121 1639.79,144.921 1641.95,144.722 1644.11,144.524 1646.27,144.327 1648.43,144.131 1650.6,143.936 1652.76,143.743 1654.92,143.55 1657.08,143.359 1659.24,143.169 1661.4,142.98 1663.56,142.792 1665.72,142.605 1667.88,142.419 1670.04,142.235 1672.2,142.051 1674.36,141.869 1676.52,141.687 1678.68,141.507 1680.84,141.327 1683,141.149 1685.16,140.972 1687.32,140.796 1689.48,140.62 1691.64,140.446 1693.81,140.273 1695.97,140.101 1698.13,139.929 1700.29,139.759 1702.45,139.59 1704.61,139.422 1706.77,139.255 1708.93,139.088 1711.09,138.923 1713.25,138.759 1715.41,138.595 1717.57,138.433 1719.73,138.271 1721.89,138.111 1724.05,137.951 1726.21,137.793 1728.37,137.635 1730.53,137.478 1732.69,137.322 1734.85,137.167 1737.02,137.013 1739.18,136.86 1741.34,136.708 1743.5,136.557 1745.66,136.406 1747.82,136.257 1749.98,136.108 1752.14,135.96 1754.3,135.813 1756.46,135.667 1758.62,135.522 1760.78,135.377 1762.94,135.234 1765.1,135.091 1767.26,134.949 1769.42,134.808 1771.58,134.668 1773.74,134.529 1775.9,134.39 1778.06,134.252 1780.22,134.115 1782.39,133.979 1784.55,133.844 1786.71,133.709 1788.87,133.576 1791.03,133.443 1793.19,133.311 1795.35,133.179 1797.51,133.049 1799.67,132.919 1801.83,132.79 1803.99,132.661 1806.15,132.534 1808.31,132.407 1810.47,132.281 1812.63,132.156 1814.79,132.031 1816.95,131.907 1819.11,131.784 1821.27,131.662 1823.43,131.54 1825.6,131.419 1827.76,131.299 1829.92,131.179 1832.08,131.061 1834.24,130.943 1836.4,130.825 1838.56,130.708 1840.72,130.592 1842.88,130.477 1845.04,130.362 1847.2,130.248 1849.36,130.135 1851.52,130.022 1853.68,129.91 1855.84,129.799 1858,129.688 1860.16,129.578 1862.32,129.469 1864.48,129.36 1866.64,129.252 1868.81,129.145 1870.97,129.038 1873.13,128.932 1875.29,128.826 1877.45,128.721 1879.61,128.617 1881.77,128.513 1883.93,128.41 1886.09,128.308 1888.25,128.206 1890.41,128.105 1892.57,128.004 1894.73,127.904 1896.89,127.804 1899.05,127.705 1901.21,127.607 1903.37,127.509 1905.53,127.412 1907.69,127.316 1909.85,127.22 1912.02,127.124 1914.18,127.029 1916.34,126.935 1918.5,126.841 1920.66,126.748 1922.82,126.655 1924.98,126.563 1927.14,126.471 1929.3,126.38 1931.46,126.29 1933.62,126.2 1935.78,126.11 1937.94,126.021 1940.1,125.933 1942.26,125.845 1944.42,125.758 1946.58,125.671 1948.74,125.584 1950.9,125.499 1953.06,125.413 1955.22,125.328 1957.39,125.244 1959.55,125.16 1961.71,125.077 1963.87,124.994 1966.03,124.911 1968.19,124.83 1970.35,124.748 1972.51,124.667 1974.67,124.587 1976.83,124.507 1978.99,124.427 1981.15,124.348 1983.31,124.269 1985.47,124.191 1987.63,124.113 1989.79,124.036 1991.95,123.959 1994.11,123.883 1996.27,123.807 1998.43,123.732 2000.6,123.657 2002.76,123.582 2004.92,123.508 2007.08,123.434 2009.24,123.361 2011.4,123.288 2013.56,123.215 2015.72,123.143 2017.88,123.072 2020.04,123.001 2022.2,122.93 2024.36,122.86 2026.52,122.79 2028.68,122.72 2030.84,122.651 2033,122.582 2035.16,122.514 2037.32,122.446 2039.48,122.379 2041.64,122.312 2043.81,122.245 2045.97,122.179 2048.13,122.113 2050.29,122.047 2052.45,121.982 2054.61,121.917 2056.77,121.853 2058.93,121.789 2061.09,121.725 2063.25,121.662 2065.41,121.599 2067.57,121.537 2069.73,121.475 2071.89,121.413 2074.05,121.352 2076.21,121.291 2078.37,121.23 2080.53,121.17 2082.69,121.11 2084.85,121.05 2087.02,120.991 2089.18,120.932 2091.34,120.874 2093.5,120.816 2095.66,120.758 2097.82,120.7 2099.98,120.643 2102.14,120.586 2104.3,120.53 2106.46,120.474 2108.62,120.418 2110.78,120.363 2112.94,120.308 2115.1,120.253 2117.26,120.199 2119.42,120.144 2121.58,120.091 2123.74,120.037 2125.9,119.984 2128.06,119.931 2130.22,119.879 2132.39,119.827 2134.55,119.775 2136.71,119.723 2138.87,119.672 2141.03,119.621 2143.19,119.57 2145.35,119.52 2147.51,119.47 2149.67,119.42 2151.83,119.371 2153.99,119.322 2156.15,119.273 2158.31,119.224 2160.47,119.176 2162.63,119.128 2164.79,119.08 2166.95,119.033 2169.11,118.986 2171.27,118.939 2173.43,118.892 2175.6,118.846 2177.76,118.8 2179.92,118.754 2182.08,118.709 2184.24,118.664 2186.4,118.619 2188.56,118.574 2190.72,118.53 2192.88,118.486 2195.04,118.442 2197.2,118.398 2199.36,118.355 2201.52,118.312 2203.68,118.269 2205.84,118.227 2208,118.184 2210.16,118.142 2212.32,118.101 2214.48,118.059 2216.64,118.018 2218.81,117.977 2220.97,117.936 2223.13,117.895 2225.29,117.855 2227.45,117.815 2229.61,117.775 2231.77,117.736 2233.93,117.696 2236.09,117.657 2238.25,117.618 2240.41,117.58 2242.57,117.541 2244.73,117.503 2246.89,117.465 2249.05,117.427 2251.21,117.39 2253.37,117.352 2255.53,117.315 2257.69,117.279 2259.85,117.242 2262.02,117.205 2264.18,117.169 2266.34,117.133 2268.5,117.098 2270.66,117.062 2272.82,117.027 2274.98,116.991 2277.14,116.956 2279.3,116.922 2281.46,116.887 2283.62,116.853 2285.78,116.819 2287.94,116.785 2290.1,116.751 2292.26,116.718 2294.42,116.684 2296.58,116.651 2298.74,116.618 2300.9,116.585 2303.06,116.553 2305.23,116.52 2307.39,116.488 2309.55,116.456 2311.71,116.424 2313.87,116.393 2316.03,116.361 2318.19,116.33 2320.35,116.299 2322.51,116.268 2324.67,116.237 2326.83,116.207 2328.99,116.177 2331.15,116.146 2333.31,116.116 2335.47,116.087 2337.63,116.057 2339.79,116.027 2341.95,115.998 2344.11,115.969 2346.27,115.94 2348.43,115.911 2350.6,115.883 2352.76,115.854 "/>
<path clip-path="url(#clip870)" d="M1805.58 1377.32 L2280.81 1377.32 L2280.81 1221.8 L1805.58 1221.8  Z" fill="#ffffff" fill-rule="evenodd" fill-opacity="1"/>
<polyline clip-path="url(#clip870)" style="stroke:#000000; stroke-linecap:round; stroke-linejoin:round; stroke-width:4; stroke-opacity:1; fill:none" points="1805.58,1377.32 2280.81,1377.32 2280.81,1221.8 1805.58,1221.8 1805.58,1377.32 "/>
<polyline clip-path="url(#clip870)" style="stroke:#009af9; stroke-linecap:round; stroke-linejoin:round; stroke-width:4; stroke-opacity:1; fill:none" points="1829.56,1273.64 1973.45,1273.64 "/>
<path clip-path="url(#clip870)" d="M1997.43 1264.99 L2001.95 1264.99 L2010.05 1286.75 L2018.15 1264.99 L2022.66 1264.99 L2012.94 1290.92 L2007.16 1290.92 L1997.43 1264.99 Z" fill="#000000" fill-rule="nonzero" fill-opacity="1" /><path clip-path="url(#clip870)" d="M2029.96 1286.98 L2037.6 1286.98 L2037.6 1260.61 L2029.28 1262.28 L2029.28 1258.02 L2037.55 1256.36 L2042.22 1256.36 L2042.22 1286.98 L2049.86 1286.98 L2049.86 1290.92 L2029.96 1290.92 L2029.96 1286.98 Z" fill="#000000" fill-rule="nonzero" fill-opacity="1" /><path clip-path="url(#clip870)" d="M2067.97 1274.27 L2067.97 1281.49 L2076.09 1281.49 L2076.09 1283.69 L2067.97 1283.69 L2067.97 1290.92 L2065.53 1290.92 L2065.53 1283.69 L2057.41 1283.69 L2057.41 1281.49 L2065.53 1281.49 L2065.53 1274.27 L2067.97 1274.27 Z" fill="#000000" fill-rule="nonzero" fill-opacity="1" /><path clip-path="url(#clip870)" d="M2100.26 1265.75 L2100.26 1269.78 Q2098.45 1268.86 2096.51 1268.39 Q2094.56 1267.93 2092.48 1267.93 Q2089.31 1267.93 2087.71 1268.9 Q2086.14 1269.87 2086.14 1271.82 Q2086.14 1273.3 2087.27 1274.16 Q2088.4 1274.99 2091.83 1275.75 L2093.29 1276.08 Q2097.83 1277.05 2099.72 1278.83 Q2101.65 1280.59 2101.65 1283.76 Q2101.65 1287.37 2098.78 1289.48 Q2095.93 1291.59 2090.93 1291.59 Q2088.84 1291.59 2086.58 1291.17 Q2084.33 1290.78 2081.83 1289.97 L2081.83 1285.57 Q2084.19 1286.79 2086.48 1287.42 Q2088.78 1288.02 2091.02 1288.02 Q2094.03 1288.02 2095.65 1287 Q2097.27 1285.96 2097.27 1284.09 Q2097.27 1282.35 2096.09 1281.42 Q2094.93 1280.5 2090.97 1279.64 L2089.49 1279.3 Q2085.53 1278.46 2083.78 1276.75 Q2082.02 1275.01 2082.02 1272 Q2082.02 1268.35 2084.61 1266.36 Q2087.2 1264.36 2091.97 1264.36 Q2094.33 1264.36 2096.41 1264.71 Q2098.5 1265.06 2100.26 1265.75 Z" fill="#000000" fill-rule="nonzero" fill-opacity="1" /><path clip-path="url(#clip870)" d="M2112.64 1257.63 L2112.64 1264.99 L2121.41 1264.99 L2121.41 1268.3 L2112.64 1268.3 L2112.64 1282.37 Q2112.64 1285.54 2113.5 1286.45 Q2114.38 1287.35 2117.04 1287.35 L2121.41 1287.35 L2121.41 1290.92 L2117.04 1290.92 Q2112.11 1290.92 2110.23 1289.09 Q2108.36 1287.23 2108.36 1282.37 L2108.36 1268.3 L2105.23 1268.3 L2105.23 1264.99 L2108.36 1264.99 L2108.36 1257.63 L2112.64 1257.63 Z" fill="#000000" fill-rule="nonzero" fill-opacity="1" /><path clip-path="url(#clip870)" d="M2137.06 1267.98 Q2133.64 1267.98 2131.65 1270.66 Q2129.65 1273.32 2129.65 1277.98 Q2129.65 1282.63 2131.62 1285.31 Q2133.61 1287.98 2137.06 1287.98 Q2140.46 1287.98 2142.46 1285.29 Q2144.45 1282.61 2144.45 1277.98 Q2144.45 1273.37 2142.46 1270.68 Q2140.46 1267.98 2137.06 1267.98 M2137.06 1264.36 Q2142.62 1264.36 2145.79 1267.98 Q2148.96 1271.59 2148.96 1277.98 Q2148.96 1284.34 2145.79 1287.98 Q2142.62 1291.59 2137.06 1291.59 Q2131.48 1291.59 2128.31 1287.98 Q2125.16 1284.34 2125.16 1277.98 Q2125.16 1271.59 2128.31 1267.98 Q2131.48 1264.36 2137.06 1264.36 Z" fill="#000000" fill-rule="nonzero" fill-opacity="1" /><path clip-path="url(#clip870)" d="M2171.04 1268.97 Q2170.33 1268.55 2169.47 1268.37 Q2168.64 1268.16 2167.62 1268.16 Q2164.01 1268.16 2162.06 1270.52 Q2160.14 1272.86 2160.14 1277.26 L2160.14 1290.92 L2155.86 1290.92 L2155.86 1264.99 L2160.14 1264.99 L2160.14 1269.02 Q2161.48 1266.66 2163.64 1265.52 Q2165.79 1264.36 2168.87 1264.36 Q2169.31 1264.36 2169.84 1264.43 Q2170.37 1264.48 2171.02 1264.6 L2171.04 1268.97 Z" fill="#000000" fill-rule="nonzero" fill-opacity="1" /><path clip-path="url(#clip870)" d="M2187.29 1277.88 Q2182.13 1277.88 2180.14 1279.06 Q2178.15 1280.24 2178.15 1283.09 Q2178.15 1285.36 2179.63 1286.7 Q2181.14 1288.02 2183.71 1288.02 Q2187.25 1288.02 2189.38 1285.52 Q2191.53 1283 2191.53 1278.83 L2191.53 1277.88 L2187.29 1277.88 M2195.79 1276.12 L2195.79 1290.92 L2191.53 1290.92 L2191.53 1286.98 Q2190.07 1289.34 2187.9 1290.48 Q2185.72 1291.59 2182.57 1291.59 Q2178.59 1291.59 2176.23 1289.36 Q2173.89 1287.12 2173.89 1283.37 Q2173.89 1278.99 2176.81 1276.77 Q2179.75 1274.55 2185.56 1274.55 L2191.53 1274.55 L2191.53 1274.13 Q2191.53 1271.19 2189.58 1269.6 Q2187.66 1267.98 2184.17 1267.98 Q2181.95 1267.98 2179.84 1268.51 Q2177.73 1269.04 2175.79 1270.11 L2175.79 1266.17 Q2178.13 1265.27 2180.33 1264.83 Q2182.52 1264.36 2184.61 1264.36 Q2190.23 1264.36 2193.01 1267.28 Q2195.79 1270.2 2195.79 1276.12 Z" fill="#000000" fill-rule="nonzero" fill-opacity="1" /><path clip-path="url(#clip870)" d="M2221.62 1277.65 Q2221.62 1273.02 2219.7 1270.48 Q2217.8 1267.93 2214.35 1267.93 Q2210.93 1267.93 2209.01 1270.48 Q2207.11 1273.02 2207.11 1277.65 Q2207.11 1282.26 2209.01 1284.8 Q2210.93 1287.35 2214.35 1287.35 Q2217.8 1287.35 2219.7 1284.8 Q2221.62 1282.26 2221.62 1277.65 M2225.88 1287.7 Q2225.88 1294.32 2222.94 1297.54 Q2220 1300.78 2213.94 1300.78 Q2211.69 1300.78 2209.7 1300.43 Q2207.71 1300.11 2205.83 1299.41 L2205.83 1295.27 Q2207.71 1296.29 2209.54 1296.77 Q2211.37 1297.26 2213.27 1297.26 Q2217.46 1297.26 2219.54 1295.06 Q2221.62 1292.88 2221.62 1288.46 L2221.62 1286.36 Q2220.3 1288.65 2218.24 1289.78 Q2216.18 1290.92 2213.31 1290.92 Q2208.54 1290.92 2205.63 1287.28 Q2202.71 1283.65 2202.71 1277.65 Q2202.71 1271.63 2205.63 1268 Q2208.54 1264.36 2213.31 1264.36 Q2216.18 1264.36 2218.24 1265.5 Q2220.3 1266.63 2221.62 1268.92 L2221.62 1264.99 L2225.88 1264.99 L2225.88 1287.7 Z" fill="#000000" fill-rule="nonzero" fill-opacity="1" /><path clip-path="url(#clip870)" d="M2256.83 1276.89 L2256.83 1278.97 L2237.25 1278.97 Q2237.52 1283.37 2239.89 1285.68 Q2242.27 1287.98 2246.51 1287.98 Q2248.96 1287.98 2251.25 1287.37 Q2253.57 1286.77 2255.83 1285.57 L2255.83 1289.6 Q2253.54 1290.57 2251.14 1291.08 Q2248.73 1291.59 2246.25 1291.59 Q2240.05 1291.59 2236.41 1287.98 Q2232.8 1284.36 2232.8 1278.21 Q2232.8 1271.84 2236.23 1268.11 Q2239.68 1264.36 2245.51 1264.36 Q2250.74 1264.36 2253.77 1267.74 Q2256.83 1271.1 2256.83 1276.89 M2252.57 1275.64 Q2252.52 1272.14 2250.6 1270.06 Q2248.71 1267.98 2245.56 1267.98 Q2241.99 1267.98 2239.84 1269.99 Q2237.71 1272 2237.39 1275.66 L2252.57 1275.64 Z" fill="#000000" fill-rule="nonzero" fill-opacity="1" /><polyline clip-path="url(#clip870)" style="stroke:#e26f46; stroke-linecap:round; stroke-linejoin:round; stroke-width:4; stroke-opacity:1; fill:none" points="1829.56,1325.48 1973.45,1325.48 "/>
<path clip-path="url(#clip870)" d="M1997.43 1316.83 L2001.95 1316.83 L2010.05 1338.59 L2018.15 1316.83 L2022.66 1316.83 L2012.94 1342.76 L2007.16 1342.76 L1997.43 1316.83 Z" fill="#000000" fill-rule="nonzero" fill-opacity="1" /><path clip-path="url(#clip870)" d="M2029.19 1308.2 L2047.55 1308.2 L2047.55 1312.13 L2033.47 1312.13 L2033.47 1320.6 Q2034.49 1320.26 2035.51 1320.09 Q2036.53 1319.91 2037.55 1319.91 Q2043.34 1319.91 2046.72 1323.08 Q2050.09 1326.25 2050.09 1331.67 Q2050.09 1337.25 2046.62 1340.35 Q2043.15 1343.43 2036.83 1343.43 Q2034.66 1343.43 2032.39 1343.06 Q2030.14 1342.69 2027.73 1341.95 L2027.73 1337.25 Q2029.82 1338.38 2032.04 1338.94 Q2034.26 1339.49 2036.74 1339.49 Q2040.74 1339.49 2043.08 1337.38 Q2045.42 1335.28 2045.42 1331.67 Q2045.42 1328.06 2043.08 1325.95 Q2040.74 1323.84 2036.74 1323.84 Q2034.86 1323.84 2032.99 1324.26 Q2031.14 1324.68 2029.19 1325.56 L2029.19 1308.2 Z" fill="#000000" fill-rule="nonzero" fill-opacity="1" /><path clip-path="url(#clip870)" d="M2067.97 1326.11 L2067.97 1333.33 L2076.09 1333.33 L2076.09 1335.53 L2067.97 1335.53 L2067.97 1342.76 L2065.53 1342.76 L2065.53 1335.53 L2057.41 1335.53 L2057.41 1333.33 L2065.53 1333.33 L2065.53 1326.11 L2067.97 1326.11 Z" fill="#000000" fill-rule="nonzero" fill-opacity="1" /><path clip-path="url(#clip870)" d="M2100.26 1317.59 L2100.26 1321.62 Q2098.45 1320.7 2096.51 1320.23 Q2094.56 1319.77 2092.48 1319.77 Q2089.31 1319.77 2087.71 1320.74 Q2086.14 1321.71 2086.14 1323.66 Q2086.14 1325.14 2087.27 1326 Q2088.4 1326.83 2091.83 1327.59 L2093.29 1327.92 Q2097.83 1328.89 2099.72 1330.67 Q2101.65 1332.43 2101.65 1335.6 Q2101.65 1339.21 2098.78 1341.32 Q2095.93 1343.43 2090.93 1343.43 Q2088.84 1343.43 2086.58 1343.01 Q2084.33 1342.62 2081.83 1341.81 L2081.83 1337.41 Q2084.19 1338.63 2086.48 1339.26 Q2088.78 1339.86 2091.02 1339.86 Q2094.03 1339.86 2095.65 1338.84 Q2097.27 1337.8 2097.27 1335.93 Q2097.27 1334.19 2096.09 1333.26 Q2094.93 1332.34 2090.97 1331.48 L2089.49 1331.14 Q2085.53 1330.3 2083.78 1328.59 Q2082.02 1326.85 2082.02 1323.84 Q2082.02 1320.19 2084.61 1318.2 Q2087.2 1316.2 2091.97 1316.2 Q2094.33 1316.2 2096.41 1316.55 Q2098.5 1316.9 2100.26 1317.59 Z" fill="#000000" fill-rule="nonzero" fill-opacity="1" /><path clip-path="url(#clip870)" d="M2112.64 1309.47 L2112.64 1316.83 L2121.41 1316.83 L2121.41 1320.14 L2112.64 1320.14 L2112.64 1334.21 Q2112.64 1337.38 2113.5 1338.29 Q2114.38 1339.19 2117.04 1339.19 L2121.41 1339.19 L2121.41 1342.76 L2117.04 1342.76 Q2112.11 1342.76 2110.23 1340.93 Q2108.36 1339.07 2108.36 1334.21 L2108.36 1320.14 L2105.23 1320.14 L2105.23 1316.83 L2108.36 1316.83 L2108.36 1309.47 L2112.64 1309.47 Z" fill="#000000" fill-rule="nonzero" fill-opacity="1" /><path clip-path="url(#clip870)" d="M2137.06 1319.82 Q2133.64 1319.82 2131.65 1322.5 Q2129.65 1325.16 2129.65 1329.82 Q2129.65 1334.47 2131.62 1337.15 Q2133.61 1339.82 2137.06 1339.82 Q2140.46 1339.82 2142.46 1337.13 Q2144.45 1334.45 2144.45 1329.82 Q2144.45 1325.21 2142.46 1322.52 Q2140.46 1319.82 2137.06 1319.82 M2137.06 1316.2 Q2142.62 1316.2 2145.79 1319.82 Q2148.96 1323.43 2148.96 1329.82 Q2148.96 1336.18 2145.79 1339.82 Q2142.62 1343.43 2137.06 1343.43 Q2131.48 1343.43 2128.31 1339.82 Q2125.16 1336.18 2125.16 1329.82 Q2125.16 1323.43 2128.31 1319.82 Q2131.48 1316.2 2137.06 1316.2 Z" fill="#000000" fill-rule="nonzero" fill-opacity="1" /><path clip-path="url(#clip870)" d="M2171.04 1320.81 Q2170.33 1320.39 2169.47 1320.21 Q2168.64 1320 2167.62 1320 Q2164.01 1320 2162.06 1322.36 Q2160.14 1324.7 2160.14 1329.1 L2160.14 1342.76 L2155.86 1342.76 L2155.86 1316.83 L2160.14 1316.83 L2160.14 1320.86 Q2161.48 1318.5 2163.64 1317.36 Q2165.79 1316.2 2168.87 1316.2 Q2169.31 1316.2 2169.84 1316.27 Q2170.37 1316.32 2171.02 1316.44 L2171.04 1320.81 Z" fill="#000000" fill-rule="nonzero" fill-opacity="1" /><path clip-path="url(#clip870)" d="M2187.29 1329.72 Q2182.13 1329.72 2180.14 1330.9 Q2178.15 1332.08 2178.15 1334.93 Q2178.15 1337.2 2179.63 1338.54 Q2181.14 1339.86 2183.71 1339.86 Q2187.25 1339.86 2189.38 1337.36 Q2191.53 1334.84 2191.53 1330.67 L2191.53 1329.72 L2187.29 1329.72 M2195.79 1327.96 L2195.79 1342.76 L2191.53 1342.76 L2191.53 1338.82 Q2190.07 1341.18 2187.9 1342.32 Q2185.72 1343.43 2182.57 1343.43 Q2178.59 1343.43 2176.23 1341.2 Q2173.89 1338.96 2173.89 1335.21 Q2173.89 1330.83 2176.81 1328.61 Q2179.75 1326.39 2185.56 1326.39 L2191.53 1326.39 L2191.53 1325.97 Q2191.53 1323.03 2189.58 1321.44 Q2187.66 1319.82 2184.17 1319.82 Q2181.95 1319.82 2179.84 1320.35 Q2177.73 1320.88 2175.79 1321.95 L2175.79 1318.01 Q2178.13 1317.11 2180.33 1316.67 Q2182.52 1316.2 2184.61 1316.2 Q2190.23 1316.2 2193.01 1319.12 Q2195.79 1322.04 2195.79 1327.96 Z" fill="#000000" fill-rule="nonzero" fill-opacity="1" /><path clip-path="url(#clip870)" d="M2221.62 1329.49 Q2221.62 1324.86 2219.7 1322.32 Q2217.8 1319.77 2214.35 1319.77 Q2210.93 1319.77 2209.01 1322.32 Q2207.11 1324.86 2207.11 1329.49 Q2207.11 1334.1 2209.01 1336.64 Q2210.93 1339.19 2214.35 1339.19 Q2217.8 1339.19 2219.7 1336.64 Q2221.62 1334.1 2221.62 1329.49 M2225.88 1339.54 Q2225.88 1346.16 2222.94 1349.38 Q2220 1352.62 2213.94 1352.62 Q2211.69 1352.62 2209.7 1352.27 Q2207.71 1351.95 2205.83 1351.25 L2205.83 1347.11 Q2207.71 1348.13 2209.54 1348.61 Q2211.37 1349.1 2213.27 1349.1 Q2217.46 1349.1 2219.54 1346.9 Q2221.62 1344.72 2221.62 1340.3 L2221.62 1338.2 Q2220.3 1340.49 2218.24 1341.62 Q2216.18 1342.76 2213.31 1342.76 Q2208.54 1342.76 2205.63 1339.12 Q2202.71 1335.49 2202.71 1329.49 Q2202.71 1323.47 2205.63 1319.84 Q2208.54 1316.2 2213.31 1316.2 Q2216.18 1316.2 2218.24 1317.34 Q2220.3 1318.47 2221.62 1320.76 L2221.62 1316.83 L2225.88 1316.83 L2225.88 1339.54 Z" fill="#000000" fill-rule="nonzero" fill-opacity="1" /><path clip-path="url(#clip870)" d="M2256.83 1328.73 L2256.83 1330.81 L2237.25 1330.81 Q2237.52 1335.21 2239.89 1337.52 Q2242.27 1339.82 2246.51 1339.82 Q2248.96 1339.82 2251.25 1339.21 Q2253.57 1338.61 2255.83 1337.41 L2255.83 1341.44 Q2253.54 1342.41 2251.14 1342.92 Q2248.73 1343.43 2246.25 1343.43 Q2240.05 1343.43 2236.41 1339.82 Q2232.8 1336.2 2232.8 1330.05 Q2232.8 1323.68 2236.23 1319.95 Q2239.68 1316.2 2245.51 1316.2 Q2250.74 1316.2 2253.77 1319.58 Q2256.83 1322.94 2256.83 1328.73 M2252.57 1327.48 Q2252.52 1323.98 2250.6 1321.9 Q2248.71 1319.82 2245.56 1319.82 Q2241.99 1319.82 2239.84 1321.83 Q2237.71 1323.84 2237.39 1327.5 L2252.57 1327.48 Z" fill="#000000" fill-rule="nonzero" fill-opacity="1" /></svg>
