<?xml version="1.0" encoding="utf-8"?>
<svg xmlns="http://www.w3.org/2000/svg" xmlns:xlink="http://www.w3.org/1999/xlink" width="600" height="400" viewBox="0 0 2400 1600">
<defs>
  <clipPath id="clip310">
    <rect x="0" y="0" width="2400" height="1600"/>
  </clipPath>
</defs>
<path clip-path="url(#clip310)" d="M0 1600 L2400 1600 L2400 0 L0 0  Z" fill="#ffffff" fill-rule="evenodd" fill-opacity="1"/>
<defs>
  <clipPath id="clip311">
    <rect x="480" y="0" width="1681" height="1600"/>
  </clipPath>
</defs>
<path clip-path="url(#clip310)" d="M192.709 1423.18 L2352.76 1423.18 L2352.76 47.2441 L192.709 47.2441  Z" fill="#ffffff" fill-rule="evenodd" fill-opacity="1"/>
<defs>
  <clipPath id="clip312">
    <rect x="192" y="47" width="2161" height="1377"/>
  </clipPath>
</defs>
<polyline clip-path="url(#clip312)" style="stroke:#000000; stroke-linecap:round; stroke-linejoin:round; stroke-width:2; stroke-opacity:0.1; fill:none" points="192.709,1423.18 192.709,47.2441 "/>
<polyline clip-path="url(#clip312)" style="stroke:#000000; stroke-linecap:round; stroke-linejoin:round; stroke-width:2; stroke-opacity:0.1; fill:none" points="732.721,1423.18 732.721,47.2441 "/>
<polyline clip-path="url(#clip312)" style="stroke:#000000; stroke-linecap:round; stroke-linejoin:round; stroke-width:2; stroke-opacity:0.1; fill:none" points="1272.73,1423.18 1272.73,47.2441 "/>
<polyline clip-path="url(#clip312)" style="stroke:#000000; stroke-linecap:round; stroke-linejoin:round; stroke-width:2; stroke-opacity:0.1; fill:none" points="1812.74,1423.18 1812.74,47.2441 "/>
<polyline clip-path="url(#clip312)" style="stroke:#000000; stroke-linecap:round; stroke-linejoin:round; stroke-width:2; stroke-opacity:0.1; fill:none" points="2352.76,1423.18 2352.76,47.2441 "/>
<polyline clip-path="url(#clip312)" style="stroke:#000000; stroke-linecap:round; stroke-linejoin:round; stroke-width:2; stroke-opacity:0.1; fill:none" points="192.709,1259.7 2352.76,1259.7 "/>
<polyline clip-path="url(#clip312)" style="stroke:#000000; stroke-linecap:round; stroke-linejoin:round; stroke-width:2; stroke-opacity:0.1; fill:none" points="192.709,1030.16 2352.76,1030.16 "/>
<polyline clip-path="url(#clip312)" style="stroke:#000000; stroke-linecap:round; stroke-linejoin:round; stroke-width:2; stroke-opacity:0.1; fill:none" points="192.709,800.627 2352.76,800.627 "/>
<polyline clip-path="url(#clip312)" style="stroke:#000000; stroke-linecap:round; stroke-linejoin:round; stroke-width:2; stroke-opacity:0.1; fill:none" points="192.709,571.09 2352.76,571.09 "/>
<polyline clip-path="url(#clip312)" style="stroke:#000000; stroke-linecap:round; stroke-linejoin:round; stroke-width:2; stroke-opacity:0.1; fill:none" points="192.709,341.553 2352.76,341.553 "/>
<polyline clip-path="url(#clip312)" style="stroke:#000000; stroke-linecap:round; stroke-linejoin:round; stroke-width:2; stroke-opacity:0.1; fill:none" points="192.709,112.017 2352.76,112.017 "/>
<polyline clip-path="url(#clip310)" style="stroke:#000000; stroke-linecap:round; stroke-linejoin:round; stroke-width:4; stroke-opacity:1; fill:none" points="192.709,1423.18 2352.76,1423.18 "/>
<polyline clip-path="url(#clip310)" style="stroke:#000000; stroke-linecap:round; stroke-linejoin:round; stroke-width:4; stroke-opacity:1; fill:none" points="192.709,1423.18 192.709,1404.28 "/>
<polyline clip-path="url(#clip310)" style="stroke:#000000; stroke-linecap:round; stroke-linejoin:round; stroke-width:4; stroke-opacity:1; fill:none" points="732.721,1423.18 732.721,1404.28 "/>
<polyline clip-path="url(#clip310)" style="stroke:#000000; stroke-linecap:round; stroke-linejoin:round; stroke-width:4; stroke-opacity:1; fill:none" points="1272.73,1423.18 1272.73,1404.28 "/>
<polyline clip-path="url(#clip310)" style="stroke:#000000; stroke-linecap:round; stroke-linejoin:round; stroke-width:4; stroke-opacity:1; fill:none" points="1812.74,1423.18 1812.74,1404.28 "/>
<polyline clip-path="url(#clip310)" style="stroke:#000000; stroke-linecap:round; stroke-linejoin:round; stroke-width:4; stroke-opacity:1; fill:none" points="2352.76,1423.18 2352.76,1404.28 "/>
<path clip-path="url(#clip310)" d="M170.094 1454.1 Q166.482 1454.1 164.654 1457.66 Q162.848 1461.2 162.848 1468.33 Q162.848 1475.44 164.654 1479.01 Q166.482 1482.55 170.094 1482.55 Q173.728 1482.55 175.533 1479.01 Q177.362 1475.44 177.362 1468.33 Q177.362 1461.2 175.533 1457.66 Q173.728 1454.1 170.094 1454.1 M170.094 1450.39 Q175.904 1450.39 178.959 1455 Q182.038 1459.58 182.038 1468.33 Q182.038 1477.06 178.959 1481.67 Q175.904 1486.25 170.094 1486.25 Q164.283 1486.25 161.205 1481.67 Q158.149 1477.06 158.149 1468.33 Q158.149 1459.58 161.205 1455 Q164.283 1450.39 170.094 1450.39 Z" fill="#000000" fill-rule="nonzero" fill-opacity="1" /><path clip-path="url(#clip310)" d="M190.255 1479.7 L195.14 1479.7 L195.14 1485.58 L190.255 1485.58 L190.255 1479.7 Z" fill="#000000" fill-rule="nonzero" fill-opacity="1" /><path clip-path="url(#clip310)" d="M215.325 1454.1 Q211.714 1454.1 209.885 1457.66 Q208.079 1461.2 208.079 1468.33 Q208.079 1475.44 209.885 1479.01 Q211.714 1482.55 215.325 1482.55 Q218.959 1482.55 220.765 1479.01 Q222.593 1475.44 222.593 1468.33 Q222.593 1461.2 220.765 1457.66 Q218.959 1454.1 215.325 1454.1 M215.325 1450.39 Q221.135 1450.39 224.19 1455 Q227.269 1459.58 227.269 1468.33 Q227.269 1477.06 224.19 1481.67 Q221.135 1486.25 215.325 1486.25 Q209.515 1486.25 206.436 1481.67 Q203.38 1477.06 203.38 1468.33 Q203.38 1459.58 206.436 1455 Q209.515 1450.39 215.325 1450.39 Z" fill="#000000" fill-rule="nonzero" fill-opacity="1" /><path clip-path="url(#clip310)" d="M710.603 1454.1 Q706.992 1454.1 705.163 1457.66 Q703.358 1461.2 703.358 1468.33 Q703.358 1475.44 705.163 1479.01 Q706.992 1482.55 710.603 1482.55 Q714.237 1482.55 716.043 1479.01 Q717.871 1475.44 717.871 1468.33 Q717.871 1461.2 716.043 1457.66 Q714.237 1454.1 710.603 1454.1 M710.603 1450.39 Q716.413 1450.39 719.469 1455 Q722.547 1459.58 722.547 1468.33 Q722.547 1477.06 719.469 1481.67 Q716.413 1486.25 710.603 1486.25 Q704.793 1486.25 701.714 1481.67 Q698.659 1477.06 698.659 1468.33 Q698.659 1459.58 701.714 1455 Q704.793 1450.39 710.603 1450.39 Z" fill="#000000" fill-rule="nonzero" fill-opacity="1" /><path clip-path="url(#clip310)" d="M730.765 1479.7 L735.649 1479.7 L735.649 1485.58 L730.765 1485.58 L730.765 1479.7 Z" fill="#000000" fill-rule="nonzero" fill-opacity="1" /><path clip-path="url(#clip310)" d="M745.88 1451.02 L764.237 1451.02 L764.237 1454.96 L750.163 1454.96 L750.163 1463.43 Q751.181 1463.08 752.2 1462.92 Q753.218 1462.73 754.237 1462.73 Q760.024 1462.73 763.404 1465.9 Q766.783 1469.08 766.783 1474.49 Q766.783 1480.07 763.311 1483.17 Q759.839 1486.25 753.519 1486.25 Q751.343 1486.25 749.075 1485.88 Q746.83 1485.51 744.422 1484.77 L744.422 1480.07 Q746.505 1481.2 748.728 1481.76 Q750.95 1482.32 753.427 1482.32 Q757.431 1482.32 759.769 1480.21 Q762.107 1478.1 762.107 1474.49 Q762.107 1470.88 759.769 1468.77 Q757.431 1466.67 753.427 1466.67 Q751.552 1466.67 749.677 1467.08 Q747.825 1467.5 745.88 1468.38 L745.88 1451.02 Z" fill="#000000" fill-rule="nonzero" fill-opacity="1" /><path clip-path="url(#clip310)" d="M1239.89 1481.64 L1247.52 1481.64 L1247.52 1455.28 L1239.21 1456.95 L1239.21 1452.69 L1247.48 1451.02 L1252.15 1451.02 L1252.15 1481.64 L1259.79 1481.64 L1259.79 1485.58 L1239.89 1485.58 L1239.89 1481.64 Z" fill="#000000" fill-rule="nonzero" fill-opacity="1" /><path clip-path="url(#clip310)" d="M1269.24 1479.7 L1274.12 1479.7 L1274.12 1485.58 L1269.24 1485.58 L1269.24 1479.7 Z" fill="#000000" fill-rule="nonzero" fill-opacity="1" /><path clip-path="url(#clip310)" d="M1294.31 1454.1 Q1290.7 1454.1 1288.87 1457.66 Q1287.06 1461.2 1287.06 1468.33 Q1287.06 1475.44 1288.87 1479.01 Q1290.7 1482.55 1294.31 1482.55 Q1297.94 1482.55 1299.75 1479.01 Q1301.57 1475.44 1301.57 1468.33 Q1301.57 1461.2 1299.75 1457.66 Q1297.94 1454.1 1294.31 1454.1 M1294.31 1450.39 Q1300.12 1450.39 1303.17 1455 Q1306.25 1459.58 1306.25 1468.33 Q1306.25 1477.06 1303.17 1481.67 Q1300.12 1486.25 1294.31 1486.25 Q1288.5 1486.25 1285.42 1481.67 Q1282.36 1477.06 1282.36 1468.33 Q1282.36 1459.58 1285.42 1455 Q1288.5 1450.39 1294.31 1450.39 Z" fill="#000000" fill-rule="nonzero" fill-opacity="1" /><path clip-path="url(#clip310)" d="M1780.39 1481.64 L1788.03 1481.64 L1788.03 1455.28 L1779.72 1456.95 L1779.72 1452.69 L1787.99 1451.02 L1792.66 1451.02 L1792.66 1481.64 L1800.3 1481.64 L1800.3 1485.58 L1780.39 1485.58 L1780.39 1481.64 Z" fill="#000000" fill-rule="nonzero" fill-opacity="1" /><path clip-path="url(#clip310)" d="M1809.75 1479.7 L1814.63 1479.7 L1814.63 1485.58 L1809.75 1485.58 L1809.75 1479.7 Z" fill="#000000" fill-rule="nonzero" fill-opacity="1" /><path clip-path="url(#clip310)" d="M1824.86 1451.02 L1843.22 1451.02 L1843.22 1454.96 L1829.14 1454.96 L1829.14 1463.43 Q1830.16 1463.08 1831.18 1462.92 Q1832.2 1462.73 1833.22 1462.73 Q1839.01 1462.73 1842.39 1465.9 Q1845.76 1469.08 1845.76 1474.49 Q1845.76 1480.07 1842.29 1483.17 Q1838.82 1486.25 1832.5 1486.25 Q1830.33 1486.25 1828.06 1485.88 Q1825.81 1485.51 1823.4 1484.77 L1823.4 1480.07 Q1825.49 1481.2 1827.71 1481.76 Q1829.93 1482.32 1832.41 1482.32 Q1836.41 1482.32 1838.75 1480.21 Q1841.09 1478.1 1841.09 1474.49 Q1841.09 1470.88 1838.75 1468.77 Q1836.41 1466.67 1832.41 1466.67 Q1830.53 1466.67 1828.66 1467.08 Q1826.81 1467.5 1824.86 1468.38 L1824.86 1451.02 Z" fill="#000000" fill-rule="nonzero" fill-opacity="1" /><path clip-path="url(#clip310)" d="M2323.99 1481.64 L2340.31 1481.64 L2340.31 1485.58 L2318.37 1485.58 L2318.37 1481.64 Q2321.03 1478.89 2325.61 1474.26 Q2330.22 1469.61 2331.4 1468.27 Q2333.65 1465.74 2334.53 1464.01 Q2335.43 1462.25 2335.43 1460.56 Q2335.43 1457.8 2333.49 1456.07 Q2331.56 1454.33 2328.46 1454.33 Q2326.26 1454.33 2323.81 1455.09 Q2321.38 1455.86 2318.6 1457.41 L2318.6 1452.69 Q2321.43 1451.55 2323.88 1450.97 Q2326.33 1450.39 2328.37 1450.39 Q2333.74 1450.39 2336.93 1453.08 Q2340.13 1455.77 2340.13 1460.26 Q2340.13 1462.39 2339.32 1464.31 Q2338.53 1466.2 2336.42 1468.8 Q2335.85 1469.47 2332.74 1472.69 Q2329.64 1475.88 2323.99 1481.64 Z" fill="#000000" fill-rule="nonzero" fill-opacity="1" /><path clip-path="url(#clip310)" d="M2350.13 1479.7 L2355.01 1479.7 L2355.01 1485.58 L2350.13 1485.58 L2350.13 1479.7 Z" fill="#000000" fill-rule="nonzero" fill-opacity="1" /><path clip-path="url(#clip310)" d="M2375.2 1454.1 Q2371.59 1454.1 2369.76 1457.66 Q2367.95 1461.2 2367.95 1468.33 Q2367.95 1475.44 2369.76 1479.01 Q2371.59 1482.55 2375.2 1482.55 Q2378.83 1482.55 2380.64 1479.01 Q2382.47 1475.44 2382.47 1468.33 Q2382.47 1461.2 2380.64 1457.66 Q2378.83 1454.1 2375.2 1454.1 M2375.2 1450.39 Q2381.01 1450.39 2384.06 1455 Q2387.14 1459.58 2387.14 1468.33 Q2387.14 1477.06 2384.06 1481.67 Q2381.01 1486.25 2375.2 1486.25 Q2369.39 1486.25 2366.31 1481.67 Q2363.25 1477.06 2363.25 1468.33 Q2363.25 1459.58 2366.31 1455 Q2369.39 1450.39 2375.2 1450.39 Z" fill="#000000" fill-rule="nonzero" fill-opacity="1" /><path clip-path="url(#clip310)" d="M1271.79 1522.27 L1271.79 1532.4 L1283.86 1532.4 L1283.86 1536.95 L1271.79 1536.95 L1271.79 1556.3 Q1271.79 1560.66 1272.97 1561.9 Q1274.18 1563.14 1277.84 1563.14 L1283.86 1563.14 L1283.86 1568.04 L1277.84 1568.04 Q1271.06 1568.04 1268.48 1565.53 Q1265.91 1562.98 1265.91 1556.3 L1265.91 1536.95 L1261.61 1536.95 L1261.61 1532.4 L1265.91 1532.4 L1265.91 1522.27 L1271.79 1522.27 Z" fill="#000000" fill-rule="nonzero" fill-opacity="1" /><polyline clip-path="url(#clip310)" style="stroke:#000000; stroke-linecap:round; stroke-linejoin:round; stroke-width:4; stroke-opacity:1; fill:none" points="192.709,1423.18 192.709,47.2441 "/>
<polyline clip-path="url(#clip310)" style="stroke:#000000; stroke-linecap:round; stroke-linejoin:round; stroke-width:4; stroke-opacity:1; fill:none" points="192.709,1259.7 211.607,1259.7 "/>
<polyline clip-path="url(#clip310)" style="stroke:#000000; stroke-linecap:round; stroke-linejoin:round; stroke-width:4; stroke-opacity:1; fill:none" points="192.709,1030.16 211.607,1030.16 "/>
<polyline clip-path="url(#clip310)" style="stroke:#000000; stroke-linecap:round; stroke-linejoin:round; stroke-width:4; stroke-opacity:1; fill:none" points="192.709,800.627 211.607,800.627 "/>
<polyline clip-path="url(#clip310)" style="stroke:#000000; stroke-linecap:round; stroke-linejoin:round; stroke-width:4; stroke-opacity:1; fill:none" points="192.709,571.09 211.607,571.09 "/>
<polyline clip-path="url(#clip310)" style="stroke:#000000; stroke-linecap:round; stroke-linejoin:round; stroke-width:4; stroke-opacity:1; fill:none" points="192.709,341.553 211.607,341.553 "/>
<polyline clip-path="url(#clip310)" style="stroke:#000000; stroke-linecap:round; stroke-linejoin:round; stroke-width:4; stroke-opacity:1; fill:none" points="192.709,112.017 211.607,112.017 "/>
<path clip-path="url(#clip310)" d="M51.3625 1260.15 L81.0383 1260.15 L81.0383 1264.09 L51.3625 1264.09 L51.3625 1260.15 Z" fill="#000000" fill-rule="nonzero" fill-opacity="1" /><path clip-path="url(#clip310)" d="M101.131 1245.5 Q97.5197 1245.5 95.691 1249.06 Q93.8854 1252.61 93.8854 1259.73 Q93.8854 1266.84 95.691 1270.41 Q97.5197 1273.95 101.131 1273.95 Q104.765 1273.95 106.571 1270.41 Q108.399 1266.84 108.399 1259.73 Q108.399 1252.61 106.571 1249.06 Q104.765 1245.5 101.131 1245.5 M101.131 1241.79 Q106.941 1241.79 109.996 1246.4 Q113.075 1250.98 113.075 1259.73 Q113.075 1268.46 109.996 1273.07 Q106.941 1277.65 101.131 1277.65 Q95.3206 1277.65 92.2419 1273.07 Q89.1864 1268.46 89.1864 1259.73 Q89.1864 1250.98 92.2419 1246.4 Q95.3206 1241.79 101.131 1241.79 Z" fill="#000000" fill-rule="nonzero" fill-opacity="1" /><path clip-path="url(#clip310)" d="M121.293 1271.1 L126.177 1271.1 L126.177 1276.98 L121.293 1276.98 L121.293 1271.1 Z" fill="#000000" fill-rule="nonzero" fill-opacity="1" /><path clip-path="url(#clip310)" d="M140.39 1273.04 L156.709 1273.04 L156.709 1276.98 L134.765 1276.98 L134.765 1273.04 Q137.427 1270.29 142.01 1265.66 Q146.617 1261.01 147.797 1259.67 Q150.043 1257.14 150.922 1255.41 Q151.825 1253.65 151.825 1251.96 Q151.825 1249.2 149.88 1247.47 Q147.959 1245.73 144.857 1245.73 Q142.658 1245.73 140.205 1246.49 Q137.774 1247.26 134.996 1248.81 L134.996 1244.09 Q137.82 1242.95 140.274 1242.37 Q142.728 1241.79 144.765 1241.79 Q150.135 1241.79 153.33 1244.48 Q156.524 1247.17 156.524 1251.66 Q156.524 1253.79 155.714 1255.71 Q154.927 1257.61 152.82 1260.2 Q152.242 1260.87 149.14 1264.09 Q146.038 1267.28 140.39 1273.04 Z" fill="#000000" fill-rule="nonzero" fill-opacity="1" /><path clip-path="url(#clip310)" d="M50.9921 1030.61 L80.6679 1030.61 L80.6679 1034.55 L50.9921 1034.55 L50.9921 1030.61 Z" fill="#000000" fill-rule="nonzero" fill-opacity="1" /><path clip-path="url(#clip310)" d="M100.76 1015.96 Q97.1493 1015.96 95.3206 1019.53 Q93.515 1023.07 93.515 1030.2 Q93.515 1037.3 95.3206 1040.87 Q97.1493 1044.41 100.76 1044.41 Q104.395 1044.41 106.2 1040.87 Q108.029 1037.3 108.029 1030.2 Q108.029 1023.07 106.2 1019.53 Q104.395 1015.96 100.76 1015.96 M100.76 1012.26 Q106.571 1012.26 109.626 1016.86 Q112.705 1021.45 112.705 1030.2 Q112.705 1038.92 109.626 1043.53 Q106.571 1048.11 100.76 1048.11 Q94.9502 1048.11 91.8715 1043.53 Q88.816 1038.92 88.816 1030.2 Q88.816 1021.45 91.8715 1016.86 Q94.9502 1012.26 100.76 1012.26 Z" fill="#000000" fill-rule="nonzero" fill-opacity="1" /><path clip-path="url(#clip310)" d="M120.922 1041.56 L125.807 1041.56 L125.807 1047.44 L120.922 1047.44 L120.922 1041.56 Z" fill="#000000" fill-rule="nonzero" fill-opacity="1" /><path clip-path="url(#clip310)" d="M136.802 1043.51 L144.441 1043.51 L144.441 1017.14 L136.131 1018.81 L136.131 1014.55 L144.394 1012.88 L149.07 1012.88 L149.07 1043.51 L156.709 1043.51 L156.709 1047.44 L136.802 1047.44 L136.802 1043.51 Z" fill="#000000" fill-rule="nonzero" fill-opacity="1" /><path clip-path="url(#clip310)" d="M99.5335 786.425 Q95.9224 786.425 94.0937 789.99 Q92.2882 793.532 92.2882 800.661 Q92.2882 807.768 94.0937 811.333 Q95.9224 814.874 99.5335 814.874 Q103.168 814.874 104.973 811.333 Q106.802 807.768 106.802 800.661 Q106.802 793.532 104.973 789.99 Q103.168 786.425 99.5335 786.425 M99.5335 782.722 Q105.344 782.722 108.399 787.328 Q111.478 791.911 111.478 800.661 Q111.478 809.388 108.399 813.995 Q105.344 818.578 99.5335 818.578 Q93.7234 818.578 90.6447 813.995 Q87.5892 809.388 87.5892 800.661 Q87.5892 791.911 90.6447 787.328 Q93.7234 782.722 99.5335 782.722 Z" fill="#000000" fill-rule="nonzero" fill-opacity="1" /><path clip-path="url(#clip310)" d="M119.695 812.027 L124.58 812.027 L124.58 817.907 L119.695 817.907 L119.695 812.027 Z" fill="#000000" fill-rule="nonzero" fill-opacity="1" /><path clip-path="url(#clip310)" d="M144.765 786.425 Q141.154 786.425 139.325 789.99 Q137.519 793.532 137.519 800.661 Q137.519 807.768 139.325 811.333 Q141.154 814.874 144.765 814.874 Q148.399 814.874 150.205 811.333 Q152.033 807.768 152.033 800.661 Q152.033 793.532 150.205 789.99 Q148.399 786.425 144.765 786.425 M144.765 782.722 Q150.575 782.722 153.63 787.328 Q156.709 791.911 156.709 800.661 Q156.709 809.388 153.63 813.995 Q150.575 818.578 144.765 818.578 Q138.955 818.578 135.876 813.995 Q132.82 809.388 132.82 800.661 Q132.82 791.911 135.876 787.328 Q138.955 782.722 144.765 782.722 Z" fill="#000000" fill-rule="nonzero" fill-opacity="1" /><path clip-path="url(#clip310)" d="M100.76 556.889 Q97.1493 556.889 95.3206 560.454 Q93.515 563.995 93.515 571.125 Q93.515 578.231 95.3206 581.796 Q97.1493 585.338 100.76 585.338 Q104.395 585.338 106.2 581.796 Q108.029 578.231 108.029 571.125 Q108.029 563.995 106.2 560.454 Q104.395 556.889 100.76 556.889 M100.76 553.185 Q106.571 553.185 109.626 557.792 Q112.705 562.375 112.705 571.125 Q112.705 579.852 109.626 584.458 Q106.571 589.041 100.76 589.041 Q94.9502 589.041 91.8715 584.458 Q88.816 579.852 88.816 571.125 Q88.816 562.375 91.8715 557.792 Q94.9502 553.185 100.76 553.185 Z" fill="#000000" fill-rule="nonzero" fill-opacity="1" /><path clip-path="url(#clip310)" d="M120.922 582.491 L125.807 582.491 L125.807 588.37 L120.922 588.37 L120.922 582.491 Z" fill="#000000" fill-rule="nonzero" fill-opacity="1" /><path clip-path="url(#clip310)" d="M136.802 584.435 L144.441 584.435 L144.441 558.069 L136.131 559.736 L136.131 555.477 L144.394 553.81 L149.07 553.81 L149.07 584.435 L156.709 584.435 L156.709 588.37 L136.802 588.37 L136.802 584.435 Z" fill="#000000" fill-rule="nonzero" fill-opacity="1" /><path clip-path="url(#clip310)" d="M101.131 327.352 Q97.5197 327.352 95.691 330.917 Q93.8854 334.459 93.8854 341.588 Q93.8854 348.695 95.691 352.259 Q97.5197 355.801 101.131 355.801 Q104.765 355.801 106.571 352.259 Q108.399 348.695 108.399 341.588 Q108.399 334.459 106.571 330.917 Q104.765 327.352 101.131 327.352 M101.131 323.648 Q106.941 323.648 109.996 328.255 Q113.075 332.838 113.075 341.588 Q113.075 350.315 109.996 354.921 Q106.941 359.505 101.131 359.505 Q95.3206 359.505 92.2419 354.921 Q89.1864 350.315 89.1864 341.588 Q89.1864 332.838 92.2419 328.255 Q95.3206 323.648 101.131 323.648 Z" fill="#000000" fill-rule="nonzero" fill-opacity="1" /><path clip-path="url(#clip310)" d="M121.293 352.954 L126.177 352.954 L126.177 358.833 L121.293 358.833 L121.293 352.954 Z" fill="#000000" fill-rule="nonzero" fill-opacity="1" /><path clip-path="url(#clip310)" d="M140.39 354.898 L156.709 354.898 L156.709 358.833 L134.765 358.833 L134.765 354.898 Q137.427 352.144 142.01 347.514 Q146.617 342.861 147.797 341.519 Q150.043 338.996 150.922 337.26 Q151.825 335.5 151.825 333.81 Q151.825 331.056 149.88 329.32 Q147.959 327.584 144.857 327.584 Q142.658 327.584 140.205 328.348 Q137.774 329.111 134.996 330.662 L134.996 325.94 Q137.82 324.806 140.274 324.227 Q142.728 323.648 144.765 323.648 Q150.135 323.648 153.33 326.334 Q156.524 329.019 156.524 333.51 Q156.524 335.639 155.714 337.56 Q154.927 339.459 152.82 342.051 Q152.242 342.722 149.14 345.94 Q146.038 349.134 140.39 354.898 Z" fill="#000000" fill-rule="nonzero" fill-opacity="1" /><path clip-path="url(#clip310)" d="M100.182 97.8156 Q96.5706 97.8156 94.7419 101.38 Q92.9363 104.922 92.9363 112.052 Q92.9363 119.158 94.7419 122.723 Q96.5706 126.264 100.182 126.264 Q103.816 126.264 105.621 122.723 Q107.45 119.158 107.45 112.052 Q107.45 104.922 105.621 101.38 Q103.816 97.8156 100.182 97.8156 M100.182 94.1119 Q105.992 94.1119 109.047 98.7183 Q112.126 103.302 112.126 112.052 Q112.126 120.778 109.047 125.385 Q105.992 129.968 100.182 129.968 Q94.3715 129.968 91.2928 125.385 Q88.2373 120.778 88.2373 112.052 Q88.2373 103.302 91.2928 98.7183 Q94.3715 94.1119 100.182 94.1119 Z" fill="#000000" fill-rule="nonzero" fill-opacity="1" /><path clip-path="url(#clip310)" d="M120.344 123.417 L125.228 123.417 L125.228 129.297 L120.344 129.297 L120.344 123.417 Z" fill="#000000" fill-rule="nonzero" fill-opacity="1" /><path clip-path="url(#clip310)" d="M149.58 110.663 Q152.936 111.38 154.811 113.649 Q156.709 115.917 156.709 119.251 Q156.709 124.366 153.191 127.167 Q149.672 129.968 143.191 129.968 Q141.015 129.968 138.7 129.528 Q136.408 129.112 133.955 128.255 L133.955 123.741 Q135.899 124.876 138.214 125.454 Q140.529 126.033 143.052 126.033 Q147.45 126.033 149.742 124.297 Q152.056 122.561 152.056 119.251 Q152.056 116.195 149.904 114.482 Q147.774 112.746 143.955 112.746 L139.927 112.746 L139.927 108.903 L144.14 108.903 Q147.589 108.903 149.418 107.538 Q151.246 106.149 151.246 103.556 Q151.246 100.894 149.348 99.4822 Q147.473 98.047 143.955 98.047 Q142.033 98.047 139.834 98.4637 Q137.635 98.8804 134.996 99.76 L134.996 95.5933 Q137.658 94.8526 139.973 94.4822 Q142.311 94.1119 144.371 94.1119 Q149.695 94.1119 152.797 96.5424 Q155.899 98.9498 155.899 103.07 Q155.899 105.941 154.255 107.931 Q152.612 109.899 149.58 110.663 Z" fill="#000000" fill-rule="nonzero" fill-opacity="1" /><polyline clip-path="url(#clip312)" style="stroke:#009af9; stroke-linecap:round; stroke-linejoin:round; stroke-width:4; stroke-opacity:1; fill:none" points="192.709,1384.24 194.871,1374.09 197.034,1364.04 199.196,1354.1 201.358,1344.25 203.52,1334.5 205.682,1324.85 207.845,1315.29 210.007,1305.83 212.169,1296.46 214.331,1287.19 216.493,1278.01 218.656,1268.92 220.818,1259.92 222.98,1251.01 225.142,1242.19 227.304,1233.46 229.467,1224.81 231.629,1216.25 233.791,1207.78 235.953,1199.39 238.116,1191.08 240.278,1182.86 242.44,1174.71 244.602,1166.65 246.764,1158.67 248.927,1150.77 251.089,1142.95 253.251,1135.21 255.413,1127.54 257.575,1119.95 259.738,1112.43 261.9,1104.99 264.062,1097.62 266.224,1090.33 268.386,1083.11 270.549,1075.96 272.711,1068.89 274.873,1061.88 277.035,1054.94 279.198,1048.07 281.36,1041.27 283.522,1034.54 285.684,1027.88 287.846,1021.28 290.009,1014.75 292.171,1008.28 294.333,1001.88 296.495,995.537 298.657,989.261 300.82,983.047 302.982,976.895 305.144,970.805 307.306,964.775 309.468,958.805 311.631,952.895 313.793,947.043 315.955,941.25 318.117,935.515 320.279,929.836 322.442,924.215 324.604,918.649 326.766,913.138 328.928,907.683 331.091,902.281 333.253,896.934 335.415,891.64 337.577,886.398 339.739,881.209 341.902,876.071 344.064,870.985 346.226,865.949 348.388,860.963 350.55,856.027 352.713,851.141 354.875,846.302 357.037,841.513 359.199,836.77 361.361,832.076 363.524,827.428 365.686,822.826 367.848,818.27 370.01,813.759 372.172,809.294 374.335,804.872 376.497,800.495 378.659,796.162 380.821,791.872 382.984,787.624 385.146,783.419 387.308,779.255 389.47,775.133 391.632,771.052 393.795,767.012 395.957,763.012 398.119,759.052 400.281,755.131 402.443,751.25 404.606,747.406 406.768,743.602 408.93,739.835 411.092,736.105 413.254,732.413 415.417,728.757 417.579,725.138 419.741,721.555 421.903,718.008 424.066,714.496 426.228,711.018 428.39,707.576 430.552,704.168 432.714,700.793 434.877,697.453 437.039,694.145 439.201,690.871 441.363,687.629 443.525,684.42 445.688,681.242 447.85,678.097 450.012,674.982 452.174,671.899 454.336,668.846 456.499,665.824 458.661,662.831 460.823,659.869 462.985,656.936 465.147,654.033 467.31,651.158 469.472,648.312 471.634,645.494 473.796,642.704 475.959,639.942 478.121,637.208 480.283,634.501 482.445,631.821 484.607,629.167 486.77,626.54 488.932,623.939 491.094,621.364 493.256,618.815 495.418,616.291 497.581,613.792 499.743,611.318 501.905,608.868 504.067,606.443 506.229,604.042 508.392,601.665 510.554,599.312 512.716,596.982 514.878,594.675 517.04,592.391 519.203,590.13 521.365,587.891 523.527,585.675 525.689,583.481 527.852,581.309 530.014,579.158 532.176,577.029 534.338,574.921 536.5,572.834 538.663,570.767 540.825,568.722 542.987,566.697 545.149,564.692 547.311,562.707 549.474,560.741 551.636,558.796 553.798,556.87 555.96,554.963 558.122,553.075 560.285,551.206 562.447,549.355 564.609,547.523 566.771,545.709 568.934,543.913 571.096,542.136 573.258,540.375 575.42,538.633 577.582,536.908 579.745,535.2 581.907,533.509 584.069,531.834 586.231,530.177 588.393,528.536 590.556,526.911 592.718,525.303 594.88,523.71 597.042,522.134 599.204,520.573 601.367,519.027 603.529,517.497 605.691,515.982 607.853,514.483 610.015,512.998 612.178,511.528 614.34,510.072 616.502,508.631 618.664,507.205 620.827,505.792 622.989,504.394 625.151,503.009 627.313,501.638 629.475,500.281 631.638,498.937 633.8,497.607 635.962,496.29 638.124,494.986 640.286,493.695 642.449,492.417 644.611,491.151 646.773,489.899 648.935,488.658 651.097,487.43 653.26,486.215 655.422,485.011 657.584,483.82 659.746,482.64 661.908,481.472 664.071,480.316 666.233,479.171 668.395,478.038 670.557,476.916 672.72,475.805 674.882,474.706 677.044,473.617 679.206,472.539 681.368,471.472 683.531,470.416 685.693,469.37 687.855,468.335 690.017,467.309 692.179,466.295 694.342,465.29 696.504,464.295 698.666,463.31 700.828,462.335 702.99,461.37 705.153,460.414 707.315,459.468 709.477,458.532 711.639,457.604 713.802,456.686 715.964,455.777 718.126,454.877 720.288,453.986 722.45,453.104 724.613,452.231 726.775,451.366 728.937,450.51 731.099,449.663 733.261,448.823 735.424,447.993 737.586,447.17 739.748,446.356 741.91,445.55 744.072,444.751 746.235,443.961 748.397,443.178 750.559,442.404 752.721,441.637 754.883,440.877 757.046,440.125 759.208,439.381 761.37,438.644 763.532,437.914 765.695,437.191 767.857,436.476 770.019,435.767 772.181,435.066 774.343,434.372 776.506,433.685 778.668,433.004 780.83,432.33 782.992,431.663 785.154,431.003 787.317,430.349 789.479,429.702 791.641,429.061 793.803,428.427 795.965,427.799 798.128,427.177 800.29,426.562 802.452,425.952 804.614,425.349 806.776,424.752 808.939,424.16 811.101,423.575 813.263,422.995 815.425,422.422 817.588,421.854 819.75,421.291 821.912,420.735 824.074,420.184 826.236,419.638 828.399,419.098 830.561,418.563 832.723,418.034 834.885,417.51 837.047,416.991 839.21,416.477 841.372,415.969 843.534,415.465 845.696,414.967 847.858,414.473 850.021,413.985 852.183,413.501 854.345,413.022 856.507,412.548 858.67,412.079 860.832,411.614 862.994,411.154 865.156,410.699 867.318,410.248 869.481,409.802 871.643,409.36 873.805,408.922 875.967,408.489 878.129,408.06 880.292,407.636 882.454,407.215 884.616,406.799 886.778,406.387 888.94,405.979 891.103,405.575 893.265,405.175 895.427,404.779 897.589,404.387 899.751,403.999 901.914,403.614 904.076,403.234 906.238,402.857 908.4,402.484 910.563,402.114 912.725,401.748 914.887,401.386 917.049,401.028 919.211,400.672 921.374,400.321 923.536,399.973 925.698,399.628 927.86,399.287 930.022,398.949 932.185,398.615 934.347,398.283 936.509,397.956 938.671,397.631 940.833,397.31 942.996,396.991 945.158,396.676 947.32,396.364 949.482,396.056 951.644,395.75 953.807,395.447 955.969,395.148 958.131,394.851 960.293,394.558 962.456,394.267 964.618,393.979 966.78,393.694 968.942,393.412 971.104,393.133 973.267,392.856 975.429,392.583 977.591,392.312 979.753,392.044 981.915,391.778 984.078,391.515 986.24,391.255 988.402,390.998 990.564,390.743 992.726,390.49 994.889,390.24 997.051,389.993 999.213,389.748 1001.38,389.506 1003.54,389.266 1005.7,389.028 1007.86,388.793 1010.02,388.56 1012.19,388.329 1014.35,388.101 1016.51,387.875 1018.67,387.652 1020.84,387.43 1023,387.211 1025.16,386.994 1027.32,386.779 1029.48,386.567 1031.65,386.356 1033.81,386.148 1035.97,385.941 1038.13,385.737 1040.3,385.535 1042.46,385.335 1044.62,385.136 1046.78,384.94 1048.94,384.746 1051.11,384.553 1053.27,384.363 1055.43,384.174 1057.59,383.988 1059.75,383.803 1061.92,383.62 1064.08,383.439 1066.24,383.259 1068.4,383.082 1070.57,382.906 1072.73,382.732 1074.89,382.559 1077.05,382.388 1079.21,382.219 1081.38,382.052 1083.54,381.886 1085.7,381.722 1087.86,381.559 1090.03,381.399 1092.19,381.239 1094.35,381.081 1096.51,380.925 1098.67,380.77 1100.84,380.617 1103,380.465 1105.16,380.315 1107.32,380.166 1109.49,380.019 1111.65,379.873 1113.81,379.729 1115.97,379.586 1118.13,379.444 1120.3,379.304 1122.46,379.165 1124.62,379.028 1126.78,378.892 1128.95,378.757 1131.11,378.623 1133.27,378.491 1135.43,378.361 1137.59,378.231 1139.76,378.103 1141.92,377.976 1144.08,377.851 1146.24,377.726 1148.41,377.603 1150.57,377.481 1152.73,377.361 1154.89,377.241 1157.05,377.123 1159.22,377.006 1161.38,376.89 1163.54,376.776 1165.7,376.662 1167.87,376.55 1170.03,376.438 1172.19,376.328 1174.35,376.219 1176.51,376.111 1178.68,376.005 1180.84,375.899 1183,375.794 1185.16,375.691 1187.33,375.588 1189.49,375.487 1191.65,375.386 1193.81,375.287 1195.97,375.188 1198.14,375.091 1200.3,374.994 1202.46,374.899 1204.62,374.804 1206.79,374.711 1208.95,374.618 1211.11,374.526 1213.27,374.436 1215.43,374.346 1217.6,374.257 1219.76,374.169 1221.92,374.082 1224.08,373.995 1226.25,373.91 1228.41,373.825 1230.57,373.742 1232.73,373.659 1234.89,373.577 1237.06,373.496 1239.22,373.415 1241.38,373.336 1243.54,373.257 1245.7,373.179 1247.87,373.102 1250.03,373.026 1252.19,372.95 1254.35,372.875 1256.52,372.801 1258.68,372.727 1260.84,372.655 1263,372.583 1265.16,372.512 1267.33,372.441 1269.49,372.371 1271.65,372.302 1273.81,372.234 1275.98,372.166 1278.14,372.099 1280.3,372.032 1282.46,371.966 1284.62,371.901 1286.79,371.837 1288.95,371.773 1291.11,371.709 1293.27,371.647 1295.44,371.584 1297.6,371.523 1299.76,371.462 1301.92,371.402 1304.08,371.342 1306.25,371.283 1308.41,371.224 1310.57,371.166 1312.73,371.109 1314.9,371.052 1317.06,370.995 1319.22,370.939 1321.38,370.884 1323.54,370.829 1325.71,370.775 1327.87,370.721 1330.03,370.668 1332.19,370.615 1334.36,370.563 1336.52,370.512 1338.68,370.46 1340.84,370.41 1343,370.36 1345.17,370.31 1347.33,370.261 1349.49,370.212 1351.65,370.164 1353.82,370.116 1355.98,370.069 1358.14,370.022 1360.3,369.976 1362.46,369.93 1364.63,369.885 1366.79,369.84 1368.95,369.795 1371.11,369.751 1373.28,369.708 1375.44,369.664 1377.6,369.622 1379.76,369.58 1381.92,369.538 1384.09,369.496 1386.25,369.455 1388.41,369.415 1390.57,369.374 1392.74,369.335 1394.9,369.295 1397.06,369.256 1399.22,369.218 1401.38,369.18 1403.55,369.142 1405.71,369.105 1407.87,369.068 1410.03,369.031 1412.2,368.995 1414.36,368.959 1416.52,368.923 1418.68,368.888 1420.84,368.853 1423.01,368.819 1425.17,368.785 1427.33,368.751 1429.49,368.718 1431.65,368.685 1433.82,368.652 1435.98,368.62 1438.14,368.588 1440.3,368.556 1442.47,368.525 1444.63,368.494 1446.79,368.463 1448.95,368.432 1451.11,368.402 1453.28,368.373 1455.44,368.343 1457.6,368.314 1459.76,368.285 1461.93,368.257 1464.09,368.228 1466.25,368.2 1468.41,368.173 1470.57,368.145 1472.74,368.118 1474.9,368.091 1477.06,368.065 1479.22,368.038 1481.39,368.012 1483.55,367.986 1485.71,367.961 1487.87,367.936 1490.03,367.911 1492.2,367.886 1494.36,367.861 1496.52,367.837 1498.68,367.813 1500.85,367.789 1503.01,367.766 1505.17,367.742 1507.33,367.719 1509.49,367.696 1511.66,367.674 1513.82,367.651 1515.98,367.629 1518.14,367.607 1520.31,367.585 1522.47,367.564 1524.63,367.542 1526.79,367.521 1528.95,367.5 1531.12,367.48 1533.28,367.459 1535.44,367.439 1537.6,367.419 1539.77,367.399 1541.93,367.379 1544.09,367.359 1546.25,367.34 1548.41,367.32 1550.58,367.301 1552.74,367.282 1554.9,367.264 1557.06,367.245 1559.23,367.227 1561.39,367.208 1563.55,367.19 1565.71,367.172 1567.87,367.155 1570.04,367.137 1572.2,367.12 1574.36,367.102 1576.52,367.085 1578.69,367.069 1580.85,367.052 1583.01,367.035 1585.17,367.019 1587.33,367.002 1589.5,366.986 1591.66,366.97 1593.82,366.955 1595.98,366.939 1598.14,366.923 1600.31,366.908 1602.47,366.893 1604.63,366.878 1606.79,366.863 1608.96,366.848 1611.12,366.834 1613.28,366.819 1615.44,366.805 1617.6,366.791 1619.77,366.777 1621.93,366.763 1624.09,366.749 1626.25,366.735 1628.42,366.722 1630.58,366.709 1632.74,366.695 1634.9,366.682 1637.06,366.669 1639.23,366.656 1641.39,366.644 1643.55,366.631 1645.71,366.619 1647.88,366.607 1650.04,366.594 1652.2,366.582 1654.36,366.57 1656.52,366.559 1658.69,366.547 1660.85,366.535 1663.01,366.524 1665.17,366.513 1667.34,366.502 1669.5,366.49 1671.66,366.48 1673.82,366.469 1675.98,366.458 1678.15,366.447 1680.31,366.437 1682.47,366.427 1684.63,366.416 1686.8,366.406 1688.96,366.396 1691.12,366.386 1693.28,366.376 1695.44,366.366 1697.61,366.357 1699.77,366.347 1701.93,366.338 1704.09,366.329 1706.26,366.319 1708.42,366.31 1710.58,366.301 1712.74,366.292 1714.9,366.283 1717.07,366.275 1719.23,366.266 1721.39,366.257 1723.55,366.249 1725.72,366.241 1727.88,366.232 1730.04,366.224 1732.2,366.216 1734.36,366.208 1736.53,366.2 1738.69,366.192 1740.85,366.184 1743.01,366.177 1745.18,366.169 1747.34,366.162 1749.5,366.154 1751.66,366.147 1753.82,366.14 1755.99,366.132 1758.15,366.125 1760.31,366.118 1762.47,366.111 1764.64,366.104 1766.8,366.097 1768.96,366.091 1771.12,366.084 1773.28,366.077 1775.45,366.071 1777.61,366.064 1779.77,366.058 1781.93,366.051 1784.09,366.045 1786.26,366.039 1788.42,366.033 1790.58,366.026 1792.74,366.02 1794.91,366.014 1797.07,366.008 1799.23,366.003 1801.39,365.997 1803.55,365.991 1805.72,365.985 1807.88,365.979 1810.04,365.974 1812.2,365.968 1814.37,365.963 1816.53,365.957 1818.69,365.952 1820.85,365.946 1823.01,365.941 1825.18,365.936 1827.34,365.931 1829.5,365.925 1831.66,365.92 1833.83,365.915 1835.99,365.91 1838.15,365.905 1840.31,365.9 1842.47,365.895 1844.64,365.89 1846.8,365.885 1848.96,365.88 1851.12,365.875 1853.29,365.871 1855.45,365.866 1857.61,365.861 1859.77,365.857 1861.93,365.852 1864.1,365.847 1866.26,365.843 1868.42,365.838 1870.58,365.834 1872.75,365.83 1874.91,365.825 1877.07,365.821 1879.23,365.817 1881.39,365.812 1883.56,365.808 1885.72,365.804 1887.88,365.8 1890.04,365.796 1892.21,365.792 1894.37,365.788 1896.53,365.784 1898.69,365.78 1900.85,365.776 1903.02,365.772 1905.18,365.768 1907.34,365.765 1909.5,365.761 1911.67,365.757 1913.83,365.754 1915.99,365.75 1918.15,365.746 1920.31,365.743 1922.48,365.739 1924.64,365.736 1926.8,365.732 1928.96,365.729 1931.13,365.725 1933.29,365.722 1935.45,365.719 1937.61,365.716 1939.77,365.712 1941.94,365.709 1944.1,365.706 1946.26,365.703 1948.42,365.7 1950.59,365.697 1952.75,365.694 1954.91,365.691 1957.07,365.688 1959.23,365.685 1961.4,365.682 1963.56,365.679 1965.72,365.676 1967.88,365.673 1970.04,365.67 1972.21,365.668 1974.37,365.665 1976.53,365.662 1978.69,365.659 1980.86,365.657 1983.02,365.654 1985.18,365.652 1987.34,365.649 1989.5,365.647 1991.67,365.644 1993.83,365.642 1995.99,365.639 1998.15,365.637 2000.32,365.634 2002.48,365.632 2004.64,365.63 2006.8,365.627 2008.96,365.625 2011.13,365.623 2013.29,365.621 2015.45,365.618 2017.61,365.616 2019.78,365.614 2021.94,365.612 2024.1,365.61 2026.26,365.608 2028.42,365.606 2030.59,365.604 2032.75,365.602 2034.91,365.6 2037.07,365.598 2039.24,365.596 2041.4,365.594 2043.56,365.592 2045.72,365.59 2047.88,365.588 2050.05,365.587 2052.21,365.585 2054.37,365.583 2056.53,365.581 2058.7,365.579 2060.86,365.578 2063.02,365.576 2065.18,365.574 2067.34,365.573 2069.51,365.571 2071.67,365.569 2073.83,365.568 2075.99,365.566 2078.16,365.565 2080.32,365.563 2082.48,365.562 2084.64,365.56 2086.8,365.559 2088.97,365.557 2091.13,365.556 2093.29,365.554 2095.45,365.553 2097.62,365.551 2099.78,365.55 2101.94,365.548 2104.1,365.547 2106.26,365.546 2108.43,365.544 2110.59,365.543 2112.75,365.542 2114.91,365.54 2117.08,365.539 2119.24,365.538 2121.4,365.537 2123.56,365.535 2125.72,365.534 2127.89,365.533 2130.05,365.532 2132.21,365.53 2134.37,365.529 2136.54,365.528 2138.7,365.527 2140.86,365.526 2143.02,365.524 2145.18,365.523 2147.35,365.522 2149.51,365.521 2151.67,365.52 2153.83,365.519 2155.99,365.518 2158.16,365.517 2160.32,365.515 2162.48,365.514 2164.64,365.513 2166.81,365.512 2168.97,365.511 2171.13,365.51 2173.29,365.509 2175.45,365.508 2177.62,365.507 2179.78,365.506 2181.94,365.505 2184.1,365.504 2186.27,365.503 2188.43,365.502 2190.59,365.501 2192.75,365.5 2194.91,365.499 2197.08,365.498 2199.24,365.497 2201.4,365.496 2203.56,365.495 2205.73,365.494 2207.89,365.493 2210.05,365.492 2212.21,365.491 2214.37,365.49 2216.54,365.489 2218.7,365.488 2220.86,365.487 2223.02,365.486 2225.19,365.486 2227.35,365.485 2229.51,365.484 2231.67,365.483 2233.83,365.482 2236,365.481 2238.16,365.481 2240.32,365.48 2242.48,365.479 2244.65,365.478 2246.81,365.477 2248.97,365.477 2251.13,365.476 2253.29,365.475 2255.46,365.474 2257.62,365.474 2259.78,365.473 2261.94,365.472 2264.11,365.471 2266.27,365.471 2268.43,365.47 2270.59,365.469 2272.75,365.469 2274.92,365.468 2277.08,365.467 2279.24,365.467 2281.4,365.466 2283.57,365.465 2285.73,365.465 2287.89,365.464 2290.05,365.463 2292.21,365.463 2294.38,365.462 2296.54,365.461 2298.7,365.461 2300.86,365.46 2303.03,365.46 2305.19,365.459 2307.35,365.458 2309.51,365.458 2311.67,365.457 2313.84,365.457 2316,365.456 2318.16,365.456 2320.32,365.455 2322.48,365.454 2324.65,365.454 2326.81,365.453 2328.97,365.453 2331.13,365.452 2333.3,365.452 2335.46,365.451 2337.62,365.451 2339.78,365.45 2341.94,365.45 2344.11,365.449 2346.27,365.449 2348.43,365.448 2350.59,365.448 2352.76,365.447 "/>
<polyline clip-path="url(#clip312)" style="stroke:#e26f46; stroke-linecap:round; stroke-linejoin:round; stroke-width:4; stroke-opacity:1; fill:none" points="192.709,86.1857 194.871,88.4117 197.034,90.6188 199.196,92.8073 201.358,94.9772 203.52,97.1289 205.682,99.2623 207.845,101.378 210.007,103.475 212.169,105.555 214.331,107.617 216.493,109.662 218.656,111.69 220.818,113.7 222.98,115.694 225.142,117.671 227.304,119.631 229.467,121.575 231.629,123.502 233.791,125.413 235.953,127.308 238.116,129.188 240.278,131.051 242.44,132.899 244.602,134.731 246.764,136.548 248.927,138.35 251.089,140.137 253.251,141.908 255.413,143.665 257.575,145.408 259.738,147.135 261.9,148.848 264.062,150.547 266.224,152.232 268.386,153.903 270.549,155.56 272.711,157.202 274.873,158.832 277.035,160.447 279.198,162.05 281.36,163.639 283.522,165.214 285.684,166.777 287.846,168.326 290.009,169.863 292.171,171.387 294.333,172.899 296.495,174.397 298.657,175.884 300.82,177.358 302.982,178.82 305.144,180.269 307.306,181.707 309.468,183.133 311.631,184.547 313.793,185.95 315.955,187.341 318.117,188.72 320.279,190.088 322.442,191.445 324.604,192.79 326.766,194.125 328.928,195.448 331.091,196.761 333.253,198.062 335.415,199.354 337.577,200.634 339.739,201.904 341.902,203.164 344.064,204.413 346.226,205.652 348.388,206.88 350.55,208.099 352.713,209.308 354.875,210.507 357.037,211.696 359.199,212.875 361.361,214.045 363.524,215.205 365.686,216.355 367.848,217.497 370.01,218.629 372.172,219.751 374.335,220.865 376.497,221.969 378.659,223.065 380.821,224.151 382.984,225.229 385.146,226.298 387.308,227.358 389.47,228.41 391.632,229.453 393.795,230.487 395.957,231.514 398.119,232.532 400.281,233.541 402.443,234.543 404.606,235.536 406.768,236.522 408.93,237.499 411.092,238.468 413.254,239.43 415.417,240.384 417.579,241.33 419.741,242.269 421.903,243.2 424.066,244.123 426.228,245.039 428.39,245.948 430.552,246.849 432.714,247.744 434.877,248.631 437.039,249.51 439.201,250.383 441.363,251.249 443.525,252.108 445.688,252.959 447.85,253.804 450.012,254.643 452.174,255.474 454.336,256.299 456.499,257.118 458.661,257.929 460.823,258.735 462.985,259.533 465.147,260.326 467.31,261.112 469.472,261.892 471.634,262.665 473.796,263.433 475.959,264.194 478.121,264.95 480.283,265.699 482.445,266.442 484.607,267.18 486.77,267.911 488.932,268.637 491.094,269.357 493.256,270.071 495.418,270.78 497.581,271.483 499.743,272.18 501.905,272.872 504.067,273.559 506.229,274.24 508.392,274.916 510.554,275.586 512.716,276.251 514.878,276.911 517.04,277.565 519.203,278.215 521.365,278.859 523.527,279.498 525.689,280.133 527.852,280.762 530.014,281.386 532.176,282.005 534.338,282.62 536.5,283.229 538.663,283.834 540.825,284.434 542.987,285.03 545.149,285.621 547.311,286.207 549.474,286.788 551.636,287.365 553.798,287.938 555.96,288.506 558.122,289.069 560.285,289.628 562.447,290.183 564.609,290.733 566.771,291.279 568.934,291.821 571.096,292.359 573.258,292.892 575.42,293.422 577.582,293.947 579.745,294.468 581.907,294.985 584.069,295.498 586.231,296.007 588.393,296.512 590.556,297.013 592.718,297.511 594.88,298.004 597.042,298.494 599.204,298.98 601.367,299.462 603.529,299.94 605.691,300.415 607.853,300.886 610.015,301.353 612.178,301.817 614.34,302.277 616.502,302.734 618.664,303.187 620.827,303.637 622.989,304.083 625.151,304.526 627.313,304.965 629.475,305.401 631.638,305.834 633.8,306.263 635.962,306.689 638.124,307.112 640.286,307.531 642.449,307.948 644.611,308.361 646.773,308.771 648.935,309.178 651.097,309.581 653.26,309.982 655.422,310.38 657.584,310.774 659.746,311.166 661.908,311.554 664.071,311.94 666.233,312.322 668.395,312.702 670.557,313.079 672.72,313.453 674.882,313.824 677.044,314.192 679.206,314.558 681.368,314.92 683.531,315.28 685.693,315.638 687.855,315.992 690.017,316.344 692.179,316.693 694.342,317.039 696.504,317.383 698.666,317.725 700.828,318.063 702.99,318.399 705.153,318.733 707.315,319.064 709.477,319.393 711.639,319.719 713.802,320.042 715.964,320.364 718.126,320.682 720.288,320.999 722.45,321.313 724.613,321.624 726.775,321.934 728.937,322.241 731.099,322.545 733.261,322.848 735.424,323.148 737.586,323.446 739.748,323.742 741.91,324.035 744.072,324.326 746.235,324.615 748.397,324.902 750.559,325.187 752.721,325.47 754.883,325.75 757.046,326.029 759.208,326.305 761.37,326.58 763.532,326.852 765.695,327.122 767.857,327.391 770.019,327.657 772.181,327.921 774.343,328.184 776.506,328.444 778.668,328.703 780.83,328.959 782.992,329.214 785.154,329.467 787.317,329.717 789.479,329.967 791.641,330.214 793.803,330.459 795.965,330.703 798.128,330.944 800.29,331.184 802.452,331.422 804.614,331.659 806.776,331.894 808.939,332.126 811.101,332.358 813.263,332.587 815.425,332.815 817.588,333.041 819.75,333.266 821.912,333.488 824.074,333.71 826.236,333.929 828.399,334.147 830.561,334.363 832.723,334.578 834.885,334.791 837.047,335.003 839.21,335.213 841.372,335.421 843.534,335.628 845.696,335.834 847.858,336.038 850.021,336.24 852.183,336.441 854.345,336.641 856.507,336.839 858.67,337.035 860.832,337.231 862.994,337.424 865.156,337.617 867.318,337.808 869.481,337.997 871.643,338.185 873.805,338.372 875.967,338.558 878.129,338.742 880.292,338.925 882.454,339.106 884.616,339.286 886.778,339.465 888.94,339.643 891.103,339.819 893.265,339.994 895.427,340.168 897.589,340.34 899.751,340.511 901.914,340.681 904.076,340.85 906.238,341.018 908.4,341.184 910.563,341.349 912.725,341.513 914.887,341.676 917.049,341.838 919.211,341.998 921.374,342.158 923.536,342.316 925.698,342.473 927.86,342.629 930.022,342.784 932.185,342.937 934.347,343.09 936.509,343.242 938.671,343.392 940.833,343.541 942.996,343.69 945.158,343.837 947.32,343.983 949.482,344.128 951.644,344.272 953.807,344.415 955.969,344.557 958.131,344.699 960.293,344.839 962.456,344.978 964.618,345.116 966.78,345.253 968.942,345.389 971.104,345.524 973.267,345.658 975.429,345.791 977.591,345.923 979.753,346.055 981.915,346.185 984.078,346.314 986.24,346.443 988.402,346.57 990.564,346.697 992.726,346.823 994.889,346.948 997.051,347.072 999.213,347.195 1001.38,347.317 1003.54,347.438 1005.7,347.559 1007.86,347.679 1010.02,347.797 1012.19,347.915 1014.35,348.033 1016.51,348.149 1018.67,348.264 1020.84,348.379 1023,348.493 1025.16,348.606 1027.32,348.718 1029.48,348.83 1031.65,348.94 1033.81,349.05 1035.97,349.159 1038.13,349.268 1040.3,349.375 1042.46,349.482 1044.62,349.588 1046.78,349.694 1048.94,349.798 1051.11,349.902 1053.27,350.005 1055.43,350.108 1057.59,350.21 1059.75,350.311 1061.92,350.411 1064.08,350.51 1066.24,350.609 1068.4,350.708 1070.57,350.805 1072.73,350.902 1074.89,350.998 1077.05,351.094 1079.21,351.189 1081.38,351.283 1083.54,351.376 1085.7,351.469 1087.86,351.562 1090.03,351.653 1092.19,351.744 1094.35,351.835 1096.51,351.925 1098.67,352.014 1100.84,352.102 1103,352.19 1105.16,352.277 1107.32,352.364 1109.49,352.45 1111.65,352.536 1113.81,352.621 1115.97,352.705 1118.13,352.789 1120.3,352.872 1122.46,352.955 1124.62,353.037 1126.78,353.118 1128.95,353.199 1131.11,353.28 1133.27,353.359 1135.43,353.439 1137.59,353.517 1139.76,353.596 1141.92,353.673 1144.08,353.75 1146.24,353.827 1148.41,353.903 1150.57,353.979 1152.73,354.054 1154.89,354.128 1157.05,354.202 1159.22,354.276 1161.38,354.349 1163.54,354.421 1165.7,354.493 1167.87,354.564 1170.03,354.635 1172.19,354.706 1174.35,354.776 1176.51,354.845 1178.68,354.914 1180.84,354.983 1183,355.051 1185.16,355.119 1187.33,355.186 1189.49,355.253 1191.65,355.319 1193.81,355.385 1195.97,355.45 1198.14,355.515 1200.3,355.579 1202.46,355.643 1204.62,355.707 1206.79,355.77 1208.95,355.833 1211.11,355.895 1213.27,355.957 1215.43,356.018 1217.6,356.079 1219.76,356.14 1221.92,356.2 1224.08,356.26 1226.25,356.319 1228.41,356.378 1230.57,356.437 1232.73,356.495 1234.89,356.553 1237.06,356.61 1239.22,356.667 1241.38,356.724 1243.54,356.78 1245.7,356.836 1247.87,356.891 1250.03,356.946 1252.19,357.001 1254.35,357.055 1256.52,357.109 1258.68,357.163 1260.84,357.216 1263,357.269 1265.16,357.322 1267.33,357.374 1269.49,357.426 1271.65,357.477 1273.81,357.528 1275.98,357.579 1278.14,357.63 1280.3,357.68 1282.46,357.729 1284.62,357.779 1286.79,357.828 1288.95,357.877 1291.11,357.925 1293.27,357.974 1295.44,358.021 1297.6,358.069 1299.76,358.116 1301.92,358.163 1304.08,358.21 1306.25,358.256 1308.41,358.302 1310.57,358.348 1312.73,358.393 1314.9,358.438 1317.06,358.483 1319.22,358.527 1321.38,358.571 1323.54,358.615 1325.71,358.659 1327.87,358.702 1330.03,358.745 1332.19,358.788 1334.36,358.831 1336.52,358.873 1338.68,358.915 1340.84,358.956 1343,358.998 1345.17,359.039 1347.33,359.08 1349.49,359.12 1351.65,359.16 1353.82,359.2 1355.98,359.24 1358.14,359.28 1360.3,359.319 1362.46,359.358 1364.63,359.396 1366.79,359.435 1368.95,359.473 1371.11,359.511 1373.28,359.549 1375.44,359.586 1377.6,359.623 1379.76,359.66 1381.92,359.697 1384.09,359.733 1386.25,359.769 1388.41,359.805 1390.57,359.841 1392.74,359.877 1394.9,359.912 1397.06,359.947 1399.22,359.982 1401.38,360.016 1403.55,360.05 1405.71,360.085 1407.87,360.118 1410.03,360.152 1412.2,360.185 1414.36,360.219 1416.52,360.252 1418.68,360.284 1420.84,360.317 1423.01,360.349 1425.17,360.381 1427.33,360.413 1429.49,360.445 1431.65,360.476 1433.82,360.508 1435.98,360.539 1438.14,360.569 1440.3,360.6 1442.47,360.631 1444.63,360.661 1446.79,360.691 1448.95,360.721 1451.11,360.75 1453.28,360.78 1455.44,360.809 1457.6,360.838 1459.76,360.867 1461.93,360.896 1464.09,360.924 1466.25,360.952 1468.41,360.981 1470.57,361.008 1472.74,361.036 1474.9,361.064 1477.06,361.091 1479.22,361.118 1481.39,361.145 1483.55,361.172 1485.71,361.199 1487.87,361.225 1490.03,361.252 1492.2,361.278 1494.36,361.304 1496.52,361.33 1498.68,361.355 1500.85,361.381 1503.01,361.406 1505.17,361.431 1507.33,361.456 1509.49,361.481 1511.66,361.506 1513.82,361.53 1515.98,361.555 1518.14,361.579 1520.31,361.603 1522.47,361.627 1524.63,361.651 1526.79,361.674 1528.95,361.698 1531.12,361.721 1533.28,361.744 1535.44,361.767 1537.6,361.79 1539.77,361.812 1541.93,361.835 1544.09,361.857 1546.25,361.88 1548.41,361.902 1550.58,361.924 1552.74,361.946 1554.9,361.967 1557.06,361.989 1559.23,362.01 1561.39,362.032 1563.55,362.053 1565.71,362.074 1567.87,362.095 1570.04,362.116 1572.2,362.136 1574.36,362.157 1576.52,362.177 1578.69,362.197 1580.85,362.217 1583.01,362.237 1585.17,362.257 1587.33,362.277 1589.5,362.297 1591.66,362.316 1593.82,362.335 1595.98,362.355 1598.14,362.374 1600.31,362.393 1602.47,362.412 1604.63,362.43 1606.79,362.449 1608.96,362.467 1611.12,362.486 1613.28,362.504 1615.44,362.522 1617.6,362.54 1619.77,362.558 1621.93,362.576 1624.09,362.594 1626.25,362.611 1628.42,362.629 1630.58,362.646 1632.74,362.663 1634.9,362.68 1637.06,362.697 1639.23,362.714 1641.39,362.731 1643.55,362.748 1645.71,362.764 1647.88,362.781 1650.04,362.797 1652.2,362.813 1654.36,362.83 1656.52,362.846 1658.69,362.862 1660.85,362.877 1663.01,362.893 1665.17,362.909 1667.34,362.924 1669.5,362.94 1671.66,362.955 1673.82,362.97 1675.98,362.986 1678.15,363.001 1680.31,363.016 1682.47,363.03 1684.63,363.045 1686.8,363.06 1688.96,363.074 1691.12,363.089 1693.28,363.103 1695.44,363.118 1697.61,363.132 1699.77,363.146 1701.93,363.16 1704.09,363.174 1706.26,363.188 1708.42,363.201 1710.58,363.215 1712.74,363.228 1714.9,363.242 1717.07,363.255 1719.23,363.269 1721.39,363.282 1723.55,363.295 1725.72,363.308 1727.88,363.321 1730.04,363.334 1732.2,363.347 1734.36,363.359 1736.53,363.372 1738.69,363.385 1740.85,363.397 1743.01,363.409 1745.18,363.422 1747.34,363.434 1749.5,363.446 1751.66,363.458 1753.82,363.47 1755.99,363.482 1758.15,363.494 1760.31,363.506 1762.47,363.517 1764.64,363.529 1766.8,363.541 1768.96,363.552 1771.12,363.563 1773.28,363.575 1775.45,363.586 1777.61,363.597 1779.77,363.608 1781.93,363.619 1784.09,363.63 1786.26,363.641 1788.42,363.652 1790.58,363.663 1792.74,363.674 1794.91,363.684 1797.07,363.695 1799.23,363.705 1801.39,363.716 1803.55,363.726 1805.72,363.736 1807.88,363.747 1810.04,363.757 1812.2,363.767 1814.37,363.777 1816.53,363.787 1818.69,363.797 1820.85,363.807 1823.01,363.817 1825.18,363.826 1827.34,363.836 1829.5,363.846 1831.66,363.855 1833.83,363.865 1835.99,363.874 1838.15,363.884 1840.31,363.893 1842.47,363.902 1844.64,363.912 1846.8,363.921 1848.96,363.93 1851.12,363.939 1853.29,363.948 1855.45,363.957 1857.61,363.966 1859.77,363.975 1861.93,363.984 1864.1,363.992 1866.26,364.001 1868.42,364.01 1870.58,364.018 1872.75,364.027 1874.91,364.035 1877.07,364.044 1879.23,364.052 1881.39,364.06 1883.56,364.069 1885.72,364.077 1887.88,364.085 1890.04,364.093 1892.21,364.101 1894.37,364.109 1896.53,364.117 1898.69,364.125 1900.85,364.133 1903.02,364.141 1905.18,364.148 1907.34,364.156 1909.5,364.164 1911.67,364.171 1913.83,364.179 1915.99,364.187 1918.15,364.194 1920.31,364.201 1922.48,364.209 1924.64,364.216 1926.8,364.224 1928.96,364.231 1931.13,364.238 1933.29,364.245 1935.45,364.252 1937.61,364.259 1939.77,364.266 1941.94,364.273 1944.1,364.28 1946.26,364.287 1948.42,364.294 1950.59,364.301 1952.75,364.308 1954.91,364.314 1957.07,364.321 1959.23,364.328 1961.4,364.334 1963.56,364.341 1965.72,364.347 1967.88,364.354 1970.04,364.36 1972.21,364.367 1974.37,364.373 1976.53,364.379 1978.69,364.385 1980.86,364.392 1983.02,364.398 1985.18,364.404 1987.34,364.41 1989.5,364.416 1991.67,364.422 1993.83,364.428 1995.99,364.434 1998.15,364.44 2000.32,364.446 2002.48,364.452 2004.64,364.458 2006.8,364.463 2008.96,364.469 2011.13,364.475 2013.29,364.48 2015.45,364.486 2017.61,364.492 2019.78,364.497 2021.94,364.503 2024.1,364.508 2026.26,364.514 2028.42,364.519 2030.59,364.524 2032.75,364.53 2034.91,364.535 2037.07,364.54 2039.24,364.546 2041.4,364.551 2043.56,364.556 2045.72,364.561 2047.88,364.566 2050.05,364.571 2052.21,364.576 2054.37,364.581 2056.53,364.586 2058.7,364.591 2060.86,364.596 2063.02,364.601 2065.18,364.606 2067.34,364.611 2069.51,364.616 2071.67,364.62 2073.83,364.625 2075.99,364.63 2078.16,364.634 2080.32,364.639 2082.48,364.644 2084.64,364.648 2086.8,364.653 2088.97,364.657 2091.13,364.662 2093.29,364.666 2095.45,364.671 2097.62,364.675 2099.78,364.68 2101.94,364.684 2104.1,364.688 2106.26,364.693 2108.43,364.697 2110.59,364.701 2112.75,364.705 2114.91,364.71 2117.08,364.714 2119.24,364.718 2121.4,364.722 2123.56,364.726 2125.72,364.73 2127.89,364.734 2130.05,364.738 2132.21,364.742 2134.37,364.746 2136.54,364.75 2138.7,364.754 2140.86,364.758 2143.02,364.762 2145.18,364.766 2147.35,364.77 2149.51,364.774 2151.67,364.777 2153.83,364.781 2155.99,364.785 2158.16,364.789 2160.32,364.792 2162.48,364.796 2164.64,364.8 2166.81,364.803 2168.97,364.807 2171.13,364.811 2173.29,364.814 2175.45,364.818 2177.62,364.821 2179.78,364.825 2181.94,364.828 2184.1,364.832 2186.27,364.835 2188.43,364.839 2190.59,364.842 2192.75,364.845 2194.91,364.849 2197.08,364.852 2199.24,364.856 2201.4,364.859 2203.56,364.862 2205.73,364.865 2207.89,364.869 2210.05,364.872 2212.21,364.875 2214.37,364.878 2216.54,364.881 2218.7,364.885 2220.86,364.888 2223.02,364.891 2225.19,364.894 2227.35,364.897 2229.51,364.9 2231.67,364.903 2233.83,364.906 2236,364.909 2238.16,364.912 2240.32,364.915 2242.48,364.918 2244.65,364.921 2246.81,364.924 2248.97,364.927 2251.13,364.93 2253.29,364.932 2255.46,364.935 2257.62,364.938 2259.78,364.941 2261.94,364.944 2264.11,364.947 2266.27,364.949 2268.43,364.952 2270.59,364.955 2272.75,364.957 2274.92,364.96 2277.08,364.963 2279.24,364.965 2281.4,364.968 2283.57,364.971 2285.73,364.973 2287.89,364.976 2290.05,364.978 2292.21,364.981 2294.38,364.984 2296.54,364.986 2298.7,364.989 2300.86,364.991 2303.03,364.994 2305.19,364.996 2307.35,364.998 2309.51,365.001 2311.67,365.003 2313.84,365.006 2316,365.008 2318.16,365.01 2320.32,365.013 2322.48,365.015 2324.65,365.018 2326.81,365.02 2328.97,365.022 2331.13,365.024 2333.3,365.027 2335.46,365.029 2337.62,365.031 2339.78,365.033 2341.94,365.036 2344.11,365.038 2346.27,365.04 2348.43,365.042 2350.59,365.044 2352.76,365.047 "/>
<path clip-path="url(#clip310)" d="M1805.35 1377.32 L2280.75 1377.32 L2280.75 1221.8 L1805.35 1221.8  Z" fill="#ffffff" fill-rule="evenodd" fill-opacity="1"/>
<polyline clip-path="url(#clip310)" style="stroke:#000000; stroke-linecap:round; stroke-linejoin:round; stroke-width:4; stroke-opacity:1; fill:none" points="1805.35,1377.32 2280.75,1377.32 2280.75,1221.8 1805.35,1221.8 1805.35,1377.32 "/>
<polyline clip-path="url(#clip310)" style="stroke:#009af9; stroke-linecap:round; stroke-linejoin:round; stroke-width:4; stroke-opacity:1; fill:none" points="1829.35,1273.64 1973.36,1273.64 "/>
<path clip-path="url(#clip310)" d="M1997.36 1264.99 L2001.87 1264.99 L2009.97 1286.75 L2018.07 1264.99 L2022.59 1264.99 L2012.87 1290.92 L2007.08 1290.92 L1997.36 1264.99 Z" fill="#000000" fill-rule="nonzero" fill-opacity="1" /><path clip-path="url(#clip310)" d="M2029.88 1286.98 L2037.52 1286.98 L2037.52 1260.61 L2029.21 1262.28 L2029.21 1258.02 L2037.47 1256.36 L2042.15 1256.36 L2042.15 1286.98 L2049.79 1286.98 L2049.79 1290.92 L2029.88 1290.92 L2029.88 1286.98 Z" fill="#000000" fill-rule="nonzero" fill-opacity="1" /><path clip-path="url(#clip310)" d="M2067.89 1274.27 L2067.89 1281.49 L2076.01 1281.49 L2076.01 1283.69 L2067.89 1283.69 L2067.89 1290.92 L2065.46 1290.92 L2065.46 1283.69 L2057.33 1283.69 L2057.33 1281.49 L2065.46 1281.49 L2065.46 1274.27 L2067.89 1274.27 Z" fill="#000000" fill-rule="nonzero" fill-opacity="1" /><path clip-path="url(#clip310)" d="M2100.18 1265.75 L2100.18 1269.78 Q2098.38 1268.86 2096.43 1268.39 Q2094.49 1267.93 2092.4 1267.93 Q2089.23 1267.93 2087.63 1268.9 Q2086.06 1269.87 2086.06 1271.82 Q2086.06 1273.3 2087.19 1274.16 Q2088.33 1274.99 2091.75 1275.75 L2093.21 1276.08 Q2097.75 1277.05 2099.65 1278.83 Q2101.57 1280.59 2101.57 1283.76 Q2101.57 1287.37 2098.7 1289.48 Q2095.85 1291.59 2090.85 1291.59 Q2088.77 1291.59 2086.5 1291.17 Q2084.25 1290.78 2081.75 1289.97 L2081.75 1285.57 Q2084.12 1286.79 2086.41 1287.42 Q2088.7 1288.02 2090.94 1288.02 Q2093.95 1288.02 2095.57 1287 Q2097.19 1285.96 2097.19 1284.09 Q2097.19 1282.35 2096.01 1281.42 Q2094.86 1280.5 2090.9 1279.64 L2089.42 1279.3 Q2085.46 1278.46 2083.7 1276.75 Q2081.94 1275.01 2081.94 1272 Q2081.94 1268.35 2084.53 1266.36 Q2087.13 1264.36 2091.89 1264.36 Q2094.25 1264.36 2096.34 1264.71 Q2098.42 1265.06 2100.18 1265.75 Z" fill="#000000" fill-rule="nonzero" fill-opacity="1" /><path clip-path="url(#clip310)" d="M2112.56 1257.63 L2112.56 1264.99 L2121.34 1264.99 L2121.34 1268.3 L2112.56 1268.3 L2112.56 1282.37 Q2112.56 1285.54 2113.42 1286.45 Q2114.3 1287.35 2116.96 1287.35 L2121.34 1287.35 L2121.34 1290.92 L2116.96 1290.92 Q2112.03 1290.92 2110.16 1289.09 Q2108.28 1287.23 2108.28 1282.37 L2108.28 1268.3 L2105.16 1268.3 L2105.16 1264.99 L2108.28 1264.99 L2108.28 1257.63 L2112.56 1257.63 Z" fill="#000000" fill-rule="nonzero" fill-opacity="1" /><path clip-path="url(#clip310)" d="M2136.99 1267.98 Q2133.56 1267.98 2131.57 1270.66 Q2129.58 1273.32 2129.58 1277.98 Q2129.58 1282.63 2131.55 1285.31 Q2133.54 1287.98 2136.99 1287.98 Q2140.39 1287.98 2142.38 1285.29 Q2144.37 1282.61 2144.37 1277.98 Q2144.37 1273.37 2142.38 1270.68 Q2140.39 1267.98 2136.99 1267.98 M2136.99 1264.36 Q2142.54 1264.36 2145.71 1267.98 Q2148.88 1271.59 2148.88 1277.98 Q2148.88 1284.34 2145.71 1287.98 Q2142.54 1291.59 2136.99 1291.59 Q2131.41 1291.59 2128.24 1287.98 Q2125.09 1284.34 2125.09 1277.98 Q2125.09 1271.59 2128.24 1267.98 Q2131.41 1264.36 2136.99 1264.36 Z" fill="#000000" fill-rule="nonzero" fill-opacity="1" /><path clip-path="url(#clip310)" d="M2170.97 1268.97 Q2170.25 1268.55 2169.39 1268.37 Q2168.56 1268.16 2167.54 1268.16 Q2163.93 1268.16 2161.99 1270.52 Q2160.06 1272.86 2160.06 1277.26 L2160.06 1290.92 L2155.78 1290.92 L2155.78 1264.99 L2160.06 1264.99 L2160.06 1269.02 Q2161.41 1266.66 2163.56 1265.52 Q2165.71 1264.36 2168.79 1264.36 Q2169.23 1264.36 2169.76 1264.43 Q2170.3 1264.48 2170.94 1264.6 L2170.97 1268.97 Z" fill="#000000" fill-rule="nonzero" fill-opacity="1" /><path clip-path="url(#clip310)" d="M2187.22 1277.88 Q2182.06 1277.88 2180.06 1279.06 Q2178.07 1280.24 2178.07 1283.09 Q2178.07 1285.36 2179.56 1286.7 Q2181.06 1288.02 2183.63 1288.02 Q2187.17 1288.02 2189.3 1285.52 Q2191.45 1283 2191.45 1278.83 L2191.45 1277.88 L2187.22 1277.88 M2195.71 1276.12 L2195.71 1290.92 L2191.45 1290.92 L2191.45 1286.98 Q2189.99 1289.34 2187.82 1290.48 Q2185.64 1291.59 2182.49 1291.59 Q2178.51 1291.59 2176.15 1289.36 Q2173.81 1287.12 2173.81 1283.37 Q2173.81 1278.99 2176.73 1276.77 Q2179.67 1274.55 2185.48 1274.55 L2191.45 1274.55 L2191.45 1274.13 Q2191.45 1271.19 2189.51 1269.6 Q2187.59 1267.98 2184.09 1267.98 Q2181.87 1267.98 2179.76 1268.51 Q2177.66 1269.04 2175.71 1270.11 L2175.71 1266.17 Q2178.05 1265.27 2180.25 1264.83 Q2182.45 1264.36 2184.53 1264.36 Q2190.16 1264.36 2192.93 1267.28 Q2195.71 1270.2 2195.71 1276.12 Z" fill="#000000" fill-rule="nonzero" fill-opacity="1" /><path clip-path="url(#clip310)" d="M2221.55 1277.65 Q2221.55 1273.02 2219.62 1270.48 Q2217.73 1267.93 2214.28 1267.93 Q2210.85 1267.93 2208.93 1270.48 Q2207.03 1273.02 2207.03 1277.65 Q2207.03 1282.26 2208.93 1284.8 Q2210.85 1287.35 2214.28 1287.35 Q2217.73 1287.35 2219.62 1284.8 Q2221.55 1282.26 2221.55 1277.65 M2225.8 1287.7 Q2225.8 1294.32 2222.87 1297.54 Q2219.93 1300.78 2213.86 1300.78 Q2211.62 1300.78 2209.62 1300.43 Q2207.63 1300.11 2205.76 1299.41 L2205.76 1295.27 Q2207.63 1296.29 2209.46 1296.77 Q2211.29 1297.26 2213.19 1297.26 Q2217.38 1297.26 2219.46 1295.06 Q2221.55 1292.88 2221.55 1288.46 L2221.55 1286.36 Q2220.23 1288.65 2218.17 1289.78 Q2216.11 1290.92 2213.24 1290.92 Q2208.47 1290.92 2205.55 1287.28 Q2202.63 1283.65 2202.63 1277.65 Q2202.63 1271.63 2205.55 1268 Q2208.47 1264.36 2213.24 1264.36 Q2216.11 1264.36 2218.17 1265.5 Q2220.23 1266.63 2221.55 1268.92 L2221.55 1264.99 L2225.8 1264.99 L2225.8 1287.7 Z" fill="#000000" fill-rule="nonzero" fill-opacity="1" /><path clip-path="url(#clip310)" d="M2256.75 1276.89 L2256.75 1278.97 L2237.17 1278.97 Q2237.45 1283.37 2239.81 1285.68 Q2242.19 1287.98 2246.43 1287.98 Q2248.88 1287.98 2251.18 1287.37 Q2253.49 1286.77 2255.76 1285.57 L2255.76 1289.6 Q2253.47 1290.57 2251.06 1291.08 Q2248.65 1291.59 2246.18 1291.59 Q2239.97 1291.59 2236.34 1287.98 Q2232.73 1284.36 2232.73 1278.21 Q2232.73 1271.84 2236.15 1268.11 Q2239.6 1264.36 2245.43 1264.36 Q2250.67 1264.36 2253.7 1267.74 Q2256.75 1271.1 2256.75 1276.89 M2252.49 1275.64 Q2252.45 1272.14 2250.53 1270.06 Q2248.63 1267.98 2245.48 1267.98 Q2241.92 1267.98 2239.76 1269.99 Q2237.63 1272 2237.31 1275.66 L2252.49 1275.64 Z" fill="#000000" fill-rule="nonzero" fill-opacity="1" /><polyline clip-path="url(#clip310)" style="stroke:#e26f46; stroke-linecap:round; stroke-linejoin:round; stroke-width:4; stroke-opacity:1; fill:none" points="1829.35,1325.48 1973.36,1325.48 "/>
<path clip-path="url(#clip310)" d="M1997.36 1316.83 L2001.87 1316.83 L2009.97 1338.59 L2018.07 1316.83 L2022.59 1316.83 L2012.87 1342.76 L2007.08 1342.76 L1997.36 1316.83 Z" fill="#000000" fill-rule="nonzero" fill-opacity="1" /><path clip-path="url(#clip310)" d="M2029.12 1308.2 L2047.47 1308.2 L2047.47 1312.13 L2033.4 1312.13 L2033.4 1320.6 Q2034.42 1320.26 2035.44 1320.09 Q2036.45 1319.91 2037.47 1319.91 Q2043.26 1319.91 2046.64 1323.08 Q2050.02 1326.25 2050.02 1331.67 Q2050.02 1337.25 2046.55 1340.35 Q2043.07 1343.43 2036.76 1343.43 Q2034.58 1343.43 2032.31 1343.06 Q2030.07 1342.69 2027.66 1341.95 L2027.66 1337.25 Q2029.74 1338.38 2031.96 1338.94 Q2034.19 1339.49 2036.66 1339.49 Q2040.67 1339.49 2043 1337.38 Q2045.34 1335.28 2045.34 1331.67 Q2045.34 1328.06 2043 1325.95 Q2040.67 1323.84 2036.66 1323.84 Q2034.79 1323.84 2032.91 1324.26 Q2031.06 1324.68 2029.12 1325.56 L2029.12 1308.2 Z" fill="#000000" fill-rule="nonzero" fill-opacity="1" /><path clip-path="url(#clip310)" d="M2067.89 1326.11 L2067.89 1333.33 L2076.01 1333.33 L2076.01 1335.53 L2067.89 1335.53 L2067.89 1342.76 L2065.46 1342.76 L2065.46 1335.53 L2057.33 1335.53 L2057.33 1333.33 L2065.46 1333.33 L2065.46 1326.11 L2067.89 1326.11 Z" fill="#000000" fill-rule="nonzero" fill-opacity="1" /><path clip-path="url(#clip310)" d="M2100.18 1317.59 L2100.18 1321.62 Q2098.38 1320.7 2096.43 1320.23 Q2094.49 1319.77 2092.4 1319.77 Q2089.23 1319.77 2087.63 1320.74 Q2086.06 1321.71 2086.06 1323.66 Q2086.06 1325.14 2087.19 1326 Q2088.33 1326.83 2091.75 1327.59 L2093.21 1327.92 Q2097.75 1328.89 2099.65 1330.67 Q2101.57 1332.43 2101.57 1335.6 Q2101.57 1339.21 2098.7 1341.32 Q2095.85 1343.43 2090.85 1343.43 Q2088.77 1343.43 2086.5 1343.01 Q2084.25 1342.62 2081.75 1341.81 L2081.75 1337.41 Q2084.12 1338.63 2086.41 1339.26 Q2088.7 1339.86 2090.94 1339.86 Q2093.95 1339.86 2095.57 1338.84 Q2097.19 1337.8 2097.19 1335.93 Q2097.19 1334.19 2096.01 1333.26 Q2094.86 1332.34 2090.9 1331.48 L2089.42 1331.14 Q2085.46 1330.3 2083.7 1328.59 Q2081.94 1326.85 2081.94 1323.84 Q2081.94 1320.19 2084.53 1318.2 Q2087.13 1316.2 2091.89 1316.2 Q2094.25 1316.2 2096.34 1316.55 Q2098.42 1316.9 2100.18 1317.59 Z" fill="#000000" fill-rule="nonzero" fill-opacity="1" /><path clip-path="url(#clip310)" d="M2112.56 1309.47 L2112.56 1316.83 L2121.34 1316.83 L2121.34 1320.14 L2112.56 1320.14 L2112.56 1334.21 Q2112.56 1337.38 2113.42 1338.29 Q2114.3 1339.19 2116.96 1339.19 L2121.34 1339.19 L2121.34 1342.76 L2116.96 1342.76 Q2112.03 1342.76 2110.16 1340.93 Q2108.28 1339.07 2108.28 1334.21 L2108.28 1320.14 L2105.16 1320.14 L2105.16 1316.83 L2108.28 1316.83 L2108.28 1309.47 L2112.56 1309.47 Z" fill="#000000" fill-rule="nonzero" fill-opacity="1" /><path clip-path="url(#clip310)" d="M2136.99 1319.82 Q2133.56 1319.82 2131.57 1322.5 Q2129.58 1325.16 2129.58 1329.82 Q2129.58 1334.47 2131.55 1337.15 Q2133.54 1339.82 2136.99 1339.82 Q2140.39 1339.82 2142.38 1337.13 Q2144.37 1334.45 2144.37 1329.82 Q2144.37 1325.21 2142.38 1322.52 Q2140.39 1319.82 2136.99 1319.82 M2136.99 1316.2 Q2142.54 1316.2 2145.71 1319.82 Q2148.88 1323.43 2148.88 1329.82 Q2148.88 1336.18 2145.71 1339.82 Q2142.54 1343.43 2136.99 1343.43 Q2131.41 1343.43 2128.24 1339.82 Q2125.09 1336.18 2125.09 1329.82 Q2125.09 1323.43 2128.24 1319.82 Q2131.41 1316.2 2136.99 1316.2 Z" fill="#000000" fill-rule="nonzero" fill-opacity="1" /><path clip-path="url(#clip310)" d="M2170.97 1320.81 Q2170.25 1320.39 2169.39 1320.21 Q2168.56 1320 2167.54 1320 Q2163.93 1320 2161.99 1322.36 Q2160.06 1324.7 2160.06 1329.1 L2160.06 1342.76 L2155.78 1342.76 L2155.78 1316.83 L2160.06 1316.83 L2160.06 1320.86 Q2161.41 1318.5 2163.56 1317.36 Q2165.71 1316.2 2168.79 1316.2 Q2169.23 1316.2 2169.76 1316.27 Q2170.3 1316.32 2170.94 1316.44 L2170.97 1320.81 Z" fill="#000000" fill-rule="nonzero" fill-opacity="1" /><path clip-path="url(#clip310)" d="M2187.22 1329.72 Q2182.06 1329.72 2180.06 1330.9 Q2178.07 1332.08 2178.07 1334.93 Q2178.07 1337.2 2179.56 1338.54 Q2181.06 1339.86 2183.63 1339.86 Q2187.17 1339.86 2189.3 1337.36 Q2191.45 1334.84 2191.45 1330.67 L2191.45 1329.72 L2187.22 1329.72 M2195.71 1327.96 L2195.71 1342.76 L2191.45 1342.76 L2191.45 1338.82 Q2189.99 1341.18 2187.82 1342.32 Q2185.64 1343.43 2182.49 1343.43 Q2178.51 1343.43 2176.15 1341.2 Q2173.81 1338.96 2173.81 1335.21 Q2173.81 1330.83 2176.73 1328.61 Q2179.67 1326.39 2185.48 1326.39 L2191.45 1326.39 L2191.45 1325.97 Q2191.45 1323.03 2189.51 1321.44 Q2187.59 1319.82 2184.09 1319.82 Q2181.87 1319.82 2179.76 1320.35 Q2177.66 1320.88 2175.71 1321.95 L2175.71 1318.01 Q2178.05 1317.11 2180.25 1316.67 Q2182.45 1316.2 2184.53 1316.2 Q2190.16 1316.2 2192.93 1319.12 Q2195.71 1322.04 2195.71 1327.96 Z" fill="#000000" fill-rule="nonzero" fill-opacity="1" /><path clip-path="url(#clip310)" d="M2221.55 1329.49 Q2221.55 1324.86 2219.62 1322.32 Q2217.73 1319.77 2214.28 1319.77 Q2210.85 1319.77 2208.93 1322.32 Q2207.03 1324.86 2207.03 1329.49 Q2207.03 1334.1 2208.93 1336.64 Q2210.85 1339.19 2214.28 1339.19 Q2217.73 1339.19 2219.62 1336.64 Q2221.55 1334.1 2221.55 1329.49 M2225.8 1339.54 Q2225.8 1346.16 2222.87 1349.38 Q2219.93 1352.62 2213.86 1352.62 Q2211.62 1352.62 2209.62 1352.27 Q2207.63 1351.95 2205.76 1351.25 L2205.76 1347.11 Q2207.63 1348.13 2209.46 1348.61 Q2211.29 1349.1 2213.19 1349.1 Q2217.38 1349.1 2219.46 1346.9 Q2221.55 1344.72 2221.55 1340.3 L2221.55 1338.2 Q2220.23 1340.49 2218.17 1341.62 Q2216.11 1342.76 2213.24 1342.76 Q2208.47 1342.76 2205.55 1339.12 Q2202.63 1335.49 2202.63 1329.49 Q2202.63 1323.47 2205.55 1319.84 Q2208.47 1316.2 2213.24 1316.2 Q2216.11 1316.2 2218.17 1317.34 Q2220.23 1318.47 2221.55 1320.76 L2221.55 1316.83 L2225.8 1316.83 L2225.8 1339.54 Z" fill="#000000" fill-rule="nonzero" fill-opacity="1" /><path clip-path="url(#clip310)" d="M2256.75 1328.73 L2256.75 1330.81 L2237.17 1330.81 Q2237.45 1335.21 2239.81 1337.52 Q2242.19 1339.82 2246.43 1339.82 Q2248.88 1339.82 2251.18 1339.21 Q2253.49 1338.61 2255.76 1337.41 L2255.76 1341.44 Q2253.47 1342.41 2251.06 1342.92 Q2248.65 1343.43 2246.18 1343.43 Q2239.97 1343.43 2236.34 1339.82 Q2232.73 1336.2 2232.73 1330.05 Q2232.73 1323.68 2236.15 1319.95 Q2239.6 1316.2 2245.43 1316.2 Q2250.67 1316.2 2253.7 1319.58 Q2256.75 1322.94 2256.75 1328.73 M2252.49 1327.48 Q2252.45 1323.98 2250.53 1321.9 Q2248.63 1319.82 2245.48 1319.82 Q2241.92 1319.82 2239.76 1321.83 Q2237.63 1323.84 2237.31 1327.5 L2252.49 1327.48 Z" fill="#000000" fill-rule="nonzero" fill-opacity="1" /></svg>
