<?xml version="1.0" encoding="utf-8"?>
<svg xmlns="http://www.w3.org/2000/svg" xmlns:xlink="http://www.w3.org/1999/xlink" width="600" height="400" viewBox="0 0 2400 1600">
<defs>
  <clipPath id="clip210">
    <rect x="0" y="0" width="2400" height="1600"/>
  </clipPath>
</defs>
<path clip-path="url(#clip210)" d="M0 1600 L2400 1600 L2400 0 L0 0  Z" fill="#ffffff" fill-rule="evenodd" fill-opacity="1"/>
<defs>
  <clipPath id="clip211">
    <rect x="480" y="0" width="1681" height="1600"/>
  </clipPath>
</defs>
<path clip-path="url(#clip210)" d="M156.598 1423.18 L2352.76 1423.18 L2352.76 47.2441 L156.598 47.2441  Z" fill="#ffffff" fill-rule="evenodd" fill-opacity="1"/>
<defs>
  <clipPath id="clip212">
    <rect x="156" y="47" width="2197" height="1377"/>
  </clipPath>
</defs>
<polyline clip-path="url(#clip212)" style="stroke:#000000; stroke-linecap:round; stroke-linejoin:round; stroke-width:2; stroke-opacity:0.1; fill:none" points="156.598,1423.18 156.598,47.2441 "/>
<polyline clip-path="url(#clip212)" style="stroke:#000000; stroke-linecap:round; stroke-linejoin:round; stroke-width:2; stroke-opacity:0.1; fill:none" points="705.638,1423.18 705.638,47.2441 "/>
<polyline clip-path="url(#clip212)" style="stroke:#000000; stroke-linecap:round; stroke-linejoin:round; stroke-width:2; stroke-opacity:0.1; fill:none" points="1254.68,1423.18 1254.68,47.2441 "/>
<polyline clip-path="url(#clip212)" style="stroke:#000000; stroke-linecap:round; stroke-linejoin:round; stroke-width:2; stroke-opacity:0.1; fill:none" points="1803.72,1423.18 1803.72,47.2441 "/>
<polyline clip-path="url(#clip212)" style="stroke:#000000; stroke-linecap:round; stroke-linejoin:round; stroke-width:2; stroke-opacity:0.1; fill:none" points="2352.76,1423.18 2352.76,47.2441 "/>
<polyline clip-path="url(#clip212)" style="stroke:#000000; stroke-linecap:round; stroke-linejoin:round; stroke-width:2; stroke-opacity:0.1; fill:none" points="156.598,1267.44 2352.76,1267.44 "/>
<polyline clip-path="url(#clip212)" style="stroke:#000000; stroke-linecap:round; stroke-linejoin:round; stroke-width:2; stroke-opacity:0.1; fill:none" points="156.598,1077.09 2352.76,1077.09 "/>
<polyline clip-path="url(#clip212)" style="stroke:#000000; stroke-linecap:round; stroke-linejoin:round; stroke-width:2; stroke-opacity:0.1; fill:none" points="156.598,886.734 2352.76,886.734 "/>
<polyline clip-path="url(#clip212)" style="stroke:#000000; stroke-linecap:round; stroke-linejoin:round; stroke-width:2; stroke-opacity:0.1; fill:none" points="156.598,696.382 2352.76,696.382 "/>
<polyline clip-path="url(#clip212)" style="stroke:#000000; stroke-linecap:round; stroke-linejoin:round; stroke-width:2; stroke-opacity:0.1; fill:none" points="156.598,506.03 2352.76,506.03 "/>
<polyline clip-path="url(#clip212)" style="stroke:#000000; stroke-linecap:round; stroke-linejoin:round; stroke-width:2; stroke-opacity:0.1; fill:none" points="156.598,315.678 2352.76,315.678 "/>
<polyline clip-path="url(#clip212)" style="stroke:#000000; stroke-linecap:round; stroke-linejoin:round; stroke-width:2; stroke-opacity:0.1; fill:none" points="156.598,125.326 2352.76,125.326 "/>
<polyline clip-path="url(#clip210)" style="stroke:#000000; stroke-linecap:round; stroke-linejoin:round; stroke-width:4; stroke-opacity:1; fill:none" points="156.598,1423.18 2352.76,1423.18 "/>
<polyline clip-path="url(#clip210)" style="stroke:#000000; stroke-linecap:round; stroke-linejoin:round; stroke-width:4; stroke-opacity:1; fill:none" points="156.598,1423.18 156.598,1404.28 "/>
<polyline clip-path="url(#clip210)" style="stroke:#000000; stroke-linecap:round; stroke-linejoin:round; stroke-width:4; stroke-opacity:1; fill:none" points="705.638,1423.18 705.638,1404.28 "/>
<polyline clip-path="url(#clip210)" style="stroke:#000000; stroke-linecap:round; stroke-linejoin:round; stroke-width:4; stroke-opacity:1; fill:none" points="1254.68,1423.18 1254.68,1404.28 "/>
<polyline clip-path="url(#clip210)" style="stroke:#000000; stroke-linecap:round; stroke-linejoin:round; stroke-width:4; stroke-opacity:1; fill:none" points="1803.72,1423.18 1803.72,1404.28 "/>
<polyline clip-path="url(#clip210)" style="stroke:#000000; stroke-linecap:round; stroke-linejoin:round; stroke-width:4; stroke-opacity:1; fill:none" points="2352.76,1423.18 2352.76,1404.28 "/>
<path clip-path="url(#clip210)" d="M133.983 1454.1 Q130.372 1454.1 128.543 1457.66 Q126.737 1461.2 126.737 1468.33 Q126.737 1475.44 128.543 1479.01 Q130.372 1482.55 133.983 1482.55 Q137.617 1482.55 139.422 1479.01 Q141.251 1475.44 141.251 1468.33 Q141.251 1461.2 139.422 1457.66 Q137.617 1454.1 133.983 1454.1 M133.983 1450.39 Q139.793 1450.39 142.848 1455 Q145.927 1459.58 145.927 1468.33 Q145.927 1477.06 142.848 1481.67 Q139.793 1486.25 133.983 1486.25 Q128.172 1486.25 125.094 1481.67 Q122.038 1477.06 122.038 1468.33 Q122.038 1459.58 125.094 1455 Q128.172 1450.39 133.983 1450.39 Z" fill="#000000" fill-rule="nonzero" fill-opacity="1" /><path clip-path="url(#clip210)" d="M154.145 1479.7 L159.029 1479.7 L159.029 1485.58 L154.145 1485.58 L154.145 1479.7 Z" fill="#000000" fill-rule="nonzero" fill-opacity="1" /><path clip-path="url(#clip210)" d="M179.214 1454.1 Q175.603 1454.1 173.774 1457.66 Q171.969 1461.2 171.969 1468.33 Q171.969 1475.44 173.774 1479.01 Q175.603 1482.55 179.214 1482.55 Q182.848 1482.55 184.654 1479.01 Q186.482 1475.44 186.482 1468.33 Q186.482 1461.2 184.654 1457.66 Q182.848 1454.1 179.214 1454.1 M179.214 1450.39 Q185.024 1450.39 188.08 1455 Q191.158 1459.58 191.158 1468.33 Q191.158 1477.06 188.08 1481.67 Q185.024 1486.25 179.214 1486.25 Q173.404 1486.25 170.325 1481.67 Q167.269 1477.06 167.269 1468.33 Q167.269 1459.58 170.325 1455 Q173.404 1450.39 179.214 1450.39 Z" fill="#000000" fill-rule="nonzero" fill-opacity="1" /><path clip-path="url(#clip210)" d="M683.52 1454.1 Q679.909 1454.1 678.08 1457.66 Q676.274 1461.2 676.274 1468.33 Q676.274 1475.44 678.08 1479.01 Q679.909 1482.55 683.52 1482.55 Q687.154 1482.55 688.96 1479.01 Q690.788 1475.44 690.788 1468.33 Q690.788 1461.2 688.96 1457.66 Q687.154 1454.1 683.52 1454.1 M683.52 1450.39 Q689.33 1450.39 692.385 1455 Q695.464 1459.58 695.464 1468.33 Q695.464 1477.06 692.385 1481.67 Q689.33 1486.25 683.52 1486.25 Q677.71 1486.25 674.631 1481.67 Q671.575 1477.06 671.575 1468.33 Q671.575 1459.58 674.631 1455 Q677.71 1450.39 683.52 1450.39 Z" fill="#000000" fill-rule="nonzero" fill-opacity="1" /><path clip-path="url(#clip210)" d="M703.682 1479.7 L708.566 1479.7 L708.566 1485.58 L703.682 1485.58 L703.682 1479.7 Z" fill="#000000" fill-rule="nonzero" fill-opacity="1" /><path clip-path="url(#clip210)" d="M718.797 1451.02 L737.154 1451.02 L737.154 1454.96 L723.08 1454.96 L723.08 1463.43 Q724.098 1463.08 725.117 1462.92 Q726.135 1462.73 727.154 1462.73 Q732.941 1462.73 736.32 1465.9 Q739.7 1469.08 739.7 1474.49 Q739.7 1480.07 736.228 1483.17 Q732.756 1486.25 726.436 1486.25 Q724.26 1486.25 721.992 1485.88 Q719.746 1485.51 717.339 1484.77 L717.339 1480.07 Q719.422 1481.2 721.645 1481.76 Q723.867 1482.32 726.344 1482.32 Q730.348 1482.32 732.686 1480.21 Q735.024 1478.1 735.024 1474.49 Q735.024 1470.88 732.686 1468.77 Q730.348 1466.67 726.344 1466.67 Q724.469 1466.67 722.594 1467.08 Q720.742 1467.5 718.797 1468.38 L718.797 1451.02 Z" fill="#000000" fill-rule="nonzero" fill-opacity="1" /><path clip-path="url(#clip210)" d="M1221.83 1481.64 L1229.47 1481.64 L1229.47 1455.28 L1221.16 1456.95 L1221.16 1452.69 L1229.42 1451.02 L1234.1 1451.02 L1234.1 1481.64 L1241.74 1481.64 L1241.74 1485.58 L1221.83 1485.58 L1221.83 1481.64 Z" fill="#000000" fill-rule="nonzero" fill-opacity="1" /><path clip-path="url(#clip210)" d="M1251.18 1479.7 L1256.07 1479.7 L1256.07 1485.58 L1251.18 1485.58 L1251.18 1479.7 Z" fill="#000000" fill-rule="nonzero" fill-opacity="1" /><path clip-path="url(#clip210)" d="M1276.25 1454.1 Q1272.64 1454.1 1270.81 1457.66 Q1269.01 1461.2 1269.01 1468.33 Q1269.01 1475.44 1270.81 1479.01 Q1272.64 1482.55 1276.25 1482.55 Q1279.89 1482.55 1281.69 1479.01 Q1283.52 1475.44 1283.52 1468.33 Q1283.52 1461.2 1281.69 1457.66 Q1279.89 1454.1 1276.25 1454.1 M1276.25 1450.39 Q1282.06 1450.39 1285.12 1455 Q1288.2 1459.58 1288.2 1468.33 Q1288.2 1477.06 1285.12 1481.67 Q1282.06 1486.25 1276.25 1486.25 Q1270.44 1486.25 1267.36 1481.67 Q1264.31 1477.06 1264.31 1468.33 Q1264.31 1459.58 1267.36 1455 Q1270.44 1450.39 1276.25 1450.39 Z" fill="#000000" fill-rule="nonzero" fill-opacity="1" /><path clip-path="url(#clip210)" d="M1771.37 1481.64 L1779.01 1481.64 L1779.01 1455.28 L1770.7 1456.95 L1770.7 1452.69 L1778.96 1451.02 L1783.64 1451.02 L1783.64 1481.64 L1791.27 1481.64 L1791.27 1485.58 L1771.37 1485.58 L1771.37 1481.64 Z" fill="#000000" fill-rule="nonzero" fill-opacity="1" /><path clip-path="url(#clip210)" d="M1800.72 1479.7 L1805.6 1479.7 L1805.6 1485.58 L1800.72 1485.58 L1800.72 1479.7 Z" fill="#000000" fill-rule="nonzero" fill-opacity="1" /><path clip-path="url(#clip210)" d="M1815.83 1451.02 L1834.19 1451.02 L1834.19 1454.96 L1820.12 1454.96 L1820.12 1463.43 Q1821.14 1463.08 1822.15 1462.92 Q1823.17 1462.73 1824.19 1462.73 Q1829.98 1462.73 1833.36 1465.9 Q1836.74 1469.08 1836.74 1474.49 Q1836.74 1480.07 1833.26 1483.17 Q1829.79 1486.25 1823.47 1486.25 Q1821.3 1486.25 1819.03 1485.88 Q1816.78 1485.51 1814.38 1484.77 L1814.38 1480.07 Q1816.46 1481.2 1818.68 1481.76 Q1820.9 1482.32 1823.38 1482.32 Q1827.39 1482.32 1829.72 1480.21 Q1832.06 1478.1 1832.06 1474.49 Q1832.06 1470.88 1829.72 1468.77 Q1827.39 1466.67 1823.38 1466.67 Q1821.51 1466.67 1819.63 1467.08 Q1817.78 1467.5 1815.83 1468.38 L1815.83 1451.02 Z" fill="#000000" fill-rule="nonzero" fill-opacity="1" /><path clip-path="url(#clip210)" d="M2323.99 1481.64 L2340.31 1481.64 L2340.31 1485.58 L2318.37 1485.58 L2318.37 1481.64 Q2321.03 1478.89 2325.61 1474.26 Q2330.22 1469.61 2331.4 1468.27 Q2333.65 1465.74 2334.53 1464.01 Q2335.43 1462.25 2335.43 1460.56 Q2335.43 1457.8 2333.49 1456.07 Q2331.56 1454.33 2328.46 1454.33 Q2326.26 1454.33 2323.81 1455.09 Q2321.38 1455.86 2318.6 1457.41 L2318.6 1452.69 Q2321.43 1451.55 2323.88 1450.97 Q2326.33 1450.39 2328.37 1450.39 Q2333.74 1450.39 2336.93 1453.08 Q2340.13 1455.77 2340.13 1460.26 Q2340.13 1462.39 2339.32 1464.31 Q2338.53 1466.2 2336.42 1468.8 Q2335.85 1469.47 2332.74 1472.69 Q2329.64 1475.88 2323.99 1481.64 Z" fill="#000000" fill-rule="nonzero" fill-opacity="1" /><path clip-path="url(#clip210)" d="M2350.13 1479.7 L2355.01 1479.7 L2355.01 1485.58 L2350.13 1485.58 L2350.13 1479.7 Z" fill="#000000" fill-rule="nonzero" fill-opacity="1" /><path clip-path="url(#clip210)" d="M2375.2 1454.1 Q2371.59 1454.1 2369.76 1457.66 Q2367.95 1461.2 2367.95 1468.33 Q2367.95 1475.44 2369.76 1479.01 Q2371.59 1482.55 2375.2 1482.55 Q2378.83 1482.55 2380.64 1479.01 Q2382.47 1475.44 2382.47 1468.33 Q2382.47 1461.2 2380.64 1457.66 Q2378.83 1454.1 2375.2 1454.1 M2375.2 1450.39 Q2381.01 1450.39 2384.06 1455 Q2387.14 1459.58 2387.14 1468.33 Q2387.14 1477.06 2384.06 1481.67 Q2381.01 1486.25 2375.2 1486.25 Q2369.39 1486.25 2366.31 1481.67 Q2363.25 1477.06 2363.25 1468.33 Q2363.25 1459.58 2366.31 1455 Q2369.39 1450.39 2375.2 1450.39 Z" fill="#000000" fill-rule="nonzero" fill-opacity="1" /><path clip-path="url(#clip210)" d="M1253.74 1522.27 L1253.74 1532.4 L1265.8 1532.4 L1265.8 1536.95 L1253.74 1536.95 L1253.74 1556.3 Q1253.74 1560.66 1254.92 1561.9 Q1256.13 1563.14 1259.79 1563.14 L1265.8 1563.14 L1265.8 1568.04 L1259.79 1568.04 Q1253.01 1568.04 1250.43 1565.53 Q1247.85 1562.98 1247.85 1556.3 L1247.85 1536.95 L1243.55 1536.95 L1243.55 1532.4 L1247.85 1532.4 L1247.85 1522.27 L1253.74 1522.27 Z" fill="#000000" fill-rule="nonzero" fill-opacity="1" /><polyline clip-path="url(#clip210)" style="stroke:#000000; stroke-linecap:round; stroke-linejoin:round; stroke-width:4; stroke-opacity:1; fill:none" points="156.598,1423.18 156.598,47.2441 "/>
<polyline clip-path="url(#clip210)" style="stroke:#000000; stroke-linecap:round; stroke-linejoin:round; stroke-width:4; stroke-opacity:1; fill:none" points="156.598,1267.44 175.496,1267.44 "/>
<polyline clip-path="url(#clip210)" style="stroke:#000000; stroke-linecap:round; stroke-linejoin:round; stroke-width:4; stroke-opacity:1; fill:none" points="156.598,1077.09 175.496,1077.09 "/>
<polyline clip-path="url(#clip210)" style="stroke:#000000; stroke-linecap:round; stroke-linejoin:round; stroke-width:4; stroke-opacity:1; fill:none" points="156.598,886.734 175.496,886.734 "/>
<polyline clip-path="url(#clip210)" style="stroke:#000000; stroke-linecap:round; stroke-linejoin:round; stroke-width:4; stroke-opacity:1; fill:none" points="156.598,696.382 175.496,696.382 "/>
<polyline clip-path="url(#clip210)" style="stroke:#000000; stroke-linecap:round; stroke-linejoin:round; stroke-width:4; stroke-opacity:1; fill:none" points="156.598,506.03 175.496,506.03 "/>
<polyline clip-path="url(#clip210)" style="stroke:#000000; stroke-linecap:round; stroke-linejoin:round; stroke-width:4; stroke-opacity:1; fill:none" points="156.598,315.678 175.496,315.678 "/>
<polyline clip-path="url(#clip210)" style="stroke:#000000; stroke-linecap:round; stroke-linejoin:round; stroke-width:4; stroke-opacity:1; fill:none" points="156.598,125.326 175.496,125.326 "/>
<path clip-path="url(#clip210)" d="M65.0198 1253.24 Q61.4087 1253.24 59.58 1256.8 Q57.7745 1260.34 57.7745 1267.47 Q57.7745 1274.58 59.58 1278.14 Q61.4087 1281.69 65.0198 1281.69 Q68.6541 1281.69 70.4596 1278.14 Q72.2883 1274.58 72.2883 1267.47 Q72.2883 1260.34 70.4596 1256.8 Q68.6541 1253.24 65.0198 1253.24 M65.0198 1249.53 Q70.83 1249.53 73.8855 1254.14 Q76.9642 1258.72 76.9642 1267.47 Q76.9642 1276.2 73.8855 1280.81 Q70.83 1285.39 65.0198 1285.39 Q59.2097 1285.39 56.131 1280.81 Q53.0754 1276.2 53.0754 1267.47 Q53.0754 1258.72 56.131 1254.14 Q59.2097 1249.53 65.0198 1249.53 Z" fill="#000000" fill-rule="nonzero" fill-opacity="1" /><path clip-path="url(#clip210)" d="M85.1818 1278.84 L90.066 1278.84 L90.066 1284.72 L85.1818 1284.72 L85.1818 1278.84 Z" fill="#000000" fill-rule="nonzero" fill-opacity="1" /><path clip-path="url(#clip210)" d="M104.279 1280.78 L120.598 1280.78 L120.598 1284.72 L98.6539 1284.72 L98.6539 1280.78 Q101.316 1278.03 105.899 1273.4 Q110.506 1268.75 111.686 1267.4 Q113.932 1264.88 114.811 1263.14 Q115.714 1261.38 115.714 1259.69 Q115.714 1256.94 113.77 1255.2 Q111.848 1253.47 108.746 1253.47 Q106.547 1253.47 104.094 1254.23 Q101.663 1255 98.8854 1256.55 L98.8854 1251.82 Q101.709 1250.69 104.163 1250.11 Q106.617 1249.53 108.654 1249.53 Q114.024 1249.53 117.219 1252.22 Q120.413 1254.9 120.413 1259.39 Q120.413 1261.52 119.603 1263.44 Q118.816 1265.34 116.709 1267.94 Q116.131 1268.61 113.029 1271.82 Q109.927 1275.02 104.279 1280.78 Z" fill="#000000" fill-rule="nonzero" fill-opacity="1" /><path clip-path="url(#clip210)" d="M64.0708 1062.88 Q60.4597 1062.88 58.631 1066.45 Q56.8254 1069.99 56.8254 1077.12 Q56.8254 1084.23 58.631 1087.79 Q60.4597 1091.33 64.0708 1091.33 Q67.705 1091.33 69.5105 1087.79 Q71.3392 1084.23 71.3392 1077.12 Q71.3392 1069.99 69.5105 1066.45 Q67.705 1062.88 64.0708 1062.88 M64.0708 1059.18 Q69.8809 1059.18 72.9365 1063.79 Q76.0151 1068.37 76.0151 1077.12 Q76.0151 1085.85 72.9365 1090.45 Q69.8809 1095.04 64.0708 1095.04 Q58.2606 1095.04 55.1819 1090.45 Q52.1264 1085.85 52.1264 1077.12 Q52.1264 1068.37 55.1819 1063.79 Q58.2606 1059.18 64.0708 1059.18 Z" fill="#000000" fill-rule="nonzero" fill-opacity="1" /><path clip-path="url(#clip210)" d="M84.2327 1088.49 L89.1169 1088.49 L89.1169 1094.37 L84.2327 1094.37 L84.2327 1088.49 Z" fill="#000000" fill-rule="nonzero" fill-opacity="1" /><path clip-path="url(#clip210)" d="M113.469 1075.73 Q116.825 1076.45 118.7 1078.72 Q120.598 1080.99 120.598 1084.32 Q120.598 1089.44 117.08 1092.24 Q113.561 1095.04 107.08 1095.04 Q104.904 1095.04 102.589 1094.6 Q100.297 1094.18 97.8437 1093.32 L97.8437 1088.81 Q99.7882 1089.94 102.103 1090.52 Q104.418 1091.1 106.941 1091.1 Q111.339 1091.1 113.631 1089.37 Q115.945 1087.63 115.945 1084.32 Q115.945 1081.26 113.793 1079.55 Q111.663 1077.81 107.844 1077.81 L103.816 1077.81 L103.816 1073.97 L108.029 1073.97 Q111.478 1073.97 113.307 1072.61 Q115.135 1071.22 115.135 1068.62 Q115.135 1065.96 113.237 1064.55 Q111.362 1063.12 107.844 1063.12 Q105.922 1063.12 103.723 1063.53 Q101.524 1063.95 98.8854 1064.83 L98.8854 1060.66 Q101.547 1059.92 103.862 1059.55 Q106.2 1059.18 108.26 1059.18 Q113.584 1059.18 116.686 1061.61 Q119.788 1064.02 119.788 1068.14 Q119.788 1071.01 118.145 1073 Q116.501 1074.97 113.469 1075.73 Z" fill="#000000" fill-rule="nonzero" fill-opacity="1" /><path clip-path="url(#clip210)" d="M62.9365 872.532 Q59.3254 872.532 57.4967 876.097 Q55.6912 879.639 55.6912 886.768 Q55.6912 893.875 57.4967 897.44 Q59.3254 900.981 62.9365 900.981 Q66.5707 900.981 68.3763 897.44 Q70.205 893.875 70.205 886.768 Q70.205 879.639 68.3763 876.097 Q66.5707 872.532 62.9365 872.532 M62.9365 868.829 Q68.7467 868.829 71.8022 873.435 Q74.8809 878.018 74.8809 886.768 Q74.8809 895.495 71.8022 900.102 Q68.7467 904.685 62.9365 904.685 Q57.1264 904.685 54.0477 900.102 Q50.9921 895.495 50.9921 886.768 Q50.9921 878.018 54.0477 873.435 Q57.1264 868.829 62.9365 868.829 Z" fill="#000000" fill-rule="nonzero" fill-opacity="1" /><path clip-path="url(#clip210)" d="M83.0984 898.134 L87.9827 898.134 L87.9827 904.014 L83.0984 904.014 L83.0984 898.134 Z" fill="#000000" fill-rule="nonzero" fill-opacity="1" /><path clip-path="url(#clip210)" d="M111.015 873.528 L99.2095 891.977 L111.015 891.977 L111.015 873.528 M109.788 869.454 L115.668 869.454 L115.668 891.977 L120.598 891.977 L120.598 895.866 L115.668 895.866 L115.668 904.014 L111.015 904.014 L111.015 895.866 L95.4132 895.866 L95.4132 891.352 L109.788 869.454 Z" fill="#000000" fill-rule="nonzero" fill-opacity="1" /><path clip-path="url(#clip210)" d="M64.418 682.18 Q60.8069 682.18 58.9782 685.745 Q57.1726 689.287 57.1726 696.416 Q57.1726 703.523 58.9782 707.088 Q60.8069 710.629 64.418 710.629 Q68.0522 710.629 69.8578 707.088 Q71.6865 703.523 71.6865 696.416 Q71.6865 689.287 69.8578 685.745 Q68.0522 682.18 64.418 682.18 M64.418 678.477 Q70.2281 678.477 73.2837 683.083 Q76.3624 687.667 76.3624 696.416 Q76.3624 705.143 73.2837 709.75 Q70.2281 714.333 64.418 714.333 Q58.6078 714.333 55.5291 709.75 Q52.4736 705.143 52.4736 696.416 Q52.4736 687.667 55.5291 683.083 Q58.6078 678.477 64.418 678.477 Z" fill="#000000" fill-rule="nonzero" fill-opacity="1" /><path clip-path="url(#clip210)" d="M84.5799 707.782 L89.4641 707.782 L89.4641 713.662 L84.5799 713.662 L84.5799 707.782 Z" fill="#000000" fill-rule="nonzero" fill-opacity="1" /><path clip-path="url(#clip210)" d="M99.6956 679.102 L118.052 679.102 L118.052 683.037 L103.978 683.037 L103.978 691.509 Q104.996 691.162 106.015 691 Q107.033 690.815 108.052 690.815 Q113.839 690.815 117.219 693.986 Q120.598 697.157 120.598 702.574 Q120.598 708.153 117.126 711.254 Q113.654 714.333 107.334 714.333 Q105.159 714.333 102.89 713.963 Q100.645 713.592 98.2372 712.852 L98.2372 708.153 Q100.321 709.287 102.543 709.842 Q104.765 710.398 107.242 710.398 Q111.246 710.398 113.584 708.291 Q115.922 706.185 115.922 702.574 Q115.922 698.963 113.584 696.856 Q111.246 694.75 107.242 694.75 Q105.367 694.75 103.492 695.166 Q101.64 695.583 99.6956 696.463 L99.6956 679.102 Z" fill="#000000" fill-rule="nonzero" fill-opacity="1" /><path clip-path="url(#clip210)" d="M63.2606 491.829 Q59.6495 491.829 57.8208 495.393 Q56.0152 498.935 56.0152 506.065 Q56.0152 513.171 57.8208 516.736 Q59.6495 520.277 63.2606 520.277 Q66.8948 520.277 68.7004 516.736 Q70.5291 513.171 70.5291 506.065 Q70.5291 498.935 68.7004 495.393 Q66.8948 491.829 63.2606 491.829 M63.2606 488.125 Q69.0707 488.125 72.1263 492.731 Q75.205 497.315 75.205 506.065 Q75.205 514.791 72.1263 519.398 Q69.0707 523.981 63.2606 523.981 Q57.4504 523.981 54.3717 519.398 Q51.3162 514.791 51.3162 506.065 Q51.3162 497.315 54.3717 492.731 Q57.4504 488.125 63.2606 488.125 Z" fill="#000000" fill-rule="nonzero" fill-opacity="1" /><path clip-path="url(#clip210)" d="M83.4225 517.43 L88.3067 517.43 L88.3067 523.31 L83.4225 523.31 L83.4225 517.43 Z" fill="#000000" fill-rule="nonzero" fill-opacity="1" /><path clip-path="url(#clip210)" d="M109.071 504.166 Q105.922 504.166 104.071 506.319 Q102.242 508.472 102.242 512.222 Q102.242 515.949 104.071 518.125 Q105.922 520.277 109.071 520.277 Q112.219 520.277 114.047 518.125 Q115.899 515.949 115.899 512.222 Q115.899 508.472 114.047 506.319 Q112.219 504.166 109.071 504.166 M118.353 489.514 L118.353 493.773 Q116.594 492.94 114.788 492.5 Q113.006 492.06 111.246 492.06 Q106.617 492.06 104.163 495.185 Q101.733 498.31 101.385 504.629 Q102.751 502.616 104.811 501.551 Q106.871 500.463 109.348 500.463 Q114.557 500.463 117.566 503.634 Q120.598 506.782 120.598 512.222 Q120.598 517.546 117.45 520.764 Q114.302 523.981 109.071 523.981 Q103.075 523.981 99.9039 519.398 Q96.7326 514.791 96.7326 506.065 Q96.7326 497.87 100.621 493.009 Q104.51 488.125 111.061 488.125 Q112.82 488.125 114.603 488.472 Q116.408 488.819 118.353 489.514 Z" fill="#000000" fill-rule="nonzero" fill-opacity="1" /><path clip-path="url(#clip210)" d="M64.3254 301.477 Q60.7143 301.477 58.8856 305.041 Q57.0801 308.583 57.0801 315.713 Q57.0801 322.819 58.8856 326.384 Q60.7143 329.926 64.3254 329.926 Q67.9596 329.926 69.7652 326.384 Q71.5939 322.819 71.5939 315.713 Q71.5939 308.583 69.7652 305.041 Q67.9596 301.477 64.3254 301.477 M64.3254 297.773 Q70.1355 297.773 73.1911 302.379 Q76.2698 306.963 76.2698 315.713 Q76.2698 324.439 73.1911 329.046 Q70.1355 333.629 64.3254 333.629 Q58.5152 333.629 55.4365 329.046 Q52.381 324.439 52.381 315.713 Q52.381 306.963 55.4365 302.379 Q58.5152 297.773 64.3254 297.773 Z" fill="#000000" fill-rule="nonzero" fill-opacity="1" /><path clip-path="url(#clip210)" d="M84.4873 327.078 L89.3715 327.078 L89.3715 332.958 L84.4873 332.958 L84.4873 327.078 Z" fill="#000000" fill-rule="nonzero" fill-opacity="1" /><path clip-path="url(#clip210)" d="M98.3761 298.398 L120.598 298.398 L120.598 300.389 L108.052 332.958 L103.168 332.958 L114.973 302.333 L98.3761 302.333 L98.3761 298.398 Z" fill="#000000" fill-rule="nonzero" fill-opacity="1" /><path clip-path="url(#clip210)" d="M63.5152 111.125 Q59.9041 111.125 58.0754 114.69 Q56.2699 118.231 56.2699 125.361 Q56.2699 132.467 58.0754 136.032 Q59.9041 139.574 63.5152 139.574 Q67.1494 139.574 68.955 136.032 Q70.7837 132.467 70.7837 125.361 Q70.7837 118.231 68.955 114.69 Q67.1494 111.125 63.5152 111.125 M63.5152 107.421 Q69.3254 107.421 72.3809 112.027 Q75.4596 116.611 75.4596 125.361 Q75.4596 134.088 72.3809 138.694 Q69.3254 143.277 63.5152 143.277 Q57.7051 143.277 54.6264 138.694 Q51.5708 134.088 51.5708 125.361 Q51.5708 116.611 54.6264 112.027 Q57.7051 107.421 63.5152 107.421 Z" fill="#000000" fill-rule="nonzero" fill-opacity="1" /><path clip-path="url(#clip210)" d="M83.6771 136.726 L88.5614 136.726 L88.5614 142.606 L83.6771 142.606 L83.6771 136.726 Z" fill="#000000" fill-rule="nonzero" fill-opacity="1" /><path clip-path="url(#clip210)" d="M108.746 126.194 Q105.413 126.194 103.492 127.976 Q101.594 129.759 101.594 132.884 Q101.594 136.009 103.492 137.791 Q105.413 139.574 108.746 139.574 Q112.08 139.574 114.001 137.791 Q115.922 135.986 115.922 132.884 Q115.922 129.759 114.001 127.976 Q112.103 126.194 108.746 126.194 M104.071 124.203 Q101.061 123.463 99.3715 121.402 Q97.7048 119.342 97.7048 116.379 Q97.7048 112.236 100.645 109.828 Q103.608 107.421 108.746 107.421 Q113.908 107.421 116.848 109.828 Q119.788 112.236 119.788 116.379 Q119.788 119.342 118.098 121.402 Q116.432 123.463 113.445 124.203 Q116.825 124.99 118.7 127.282 Q120.598 129.574 120.598 132.884 Q120.598 137.907 117.52 140.592 Q114.464 143.277 108.746 143.277 Q103.029 143.277 99.9502 140.592 Q96.8947 137.907 96.8947 132.884 Q96.8947 129.574 98.7928 127.282 Q100.691 124.99 104.071 124.203 M102.358 116.819 Q102.358 119.504 104.024 121.009 Q105.714 122.514 108.746 122.514 Q111.756 122.514 113.445 121.009 Q115.158 119.504 115.158 116.819 Q115.158 114.134 113.445 112.629 Q111.756 111.125 108.746 111.125 Q105.714 111.125 104.024 112.629 Q102.358 114.134 102.358 116.819 Z" fill="#000000" fill-rule="nonzero" fill-opacity="1" /><polyline clip-path="url(#clip212)" style="stroke:#009af9; stroke-linecap:round; stroke-linejoin:round; stroke-width:4; stroke-opacity:1; fill:none" points="156.598,86.1857 158.797,98.5277 160.995,110.747 163.193,122.844 165.392,134.821 167.59,146.679 169.788,158.418 171.987,170.041 174.185,181.548 176.383,192.94 178.582,204.219 180.78,215.385 182.979,226.44 185.177,237.386 187.375,248.222 189.574,258.95 191.772,269.571 193.97,280.087 196.169,290.497 198.367,300.805 200.565,311.009 202.764,321.112 204.962,331.114 207.16,341.017 209.359,350.82 211.557,360.527 213.755,370.136 215.954,379.65 218.152,389.069 220.351,398.395 222.549,407.627 224.747,416.767 226.946,425.817 229.144,434.776 231.342,443.646 233.541,452.428 235.739,461.122 237.937,469.73 240.136,478.252 242.334,486.689 244.532,495.042 246.731,503.312 248.929,511.499 251.128,519.605 253.326,527.63 255.524,535.576 257.723,543.442 259.921,551.23 262.119,558.94 264.318,566.573 266.516,574.13 268.714,581.612 270.913,589.02 273.111,596.354 275.309,603.614 277.508,610.803 279.706,617.92 281.905,624.965 284.103,631.941 286.301,638.847 288.5,645.685 290.698,652.454 292.896,659.156 295.095,665.792 297.293,672.361 299.491,678.865 301.69,685.304 303.888,691.679 306.086,697.99 308.285,704.239 310.483,710.425 312.682,716.549 314.88,722.613 317.078,728.616 319.277,734.56 321.475,740.444 323.673,746.27 325.872,752.037 328.07,757.747 330.268,763.4 332.467,768.997 334.665,774.538 336.863,780.024 339.062,785.456 341.26,790.833 343.458,796.157 345.657,801.427 347.855,806.645 350.054,811.811 352.252,816.926 354.45,821.99 356.649,827.003 358.847,831.967 361.045,836.881 363.244,841.746 365.442,846.562 367.64,851.331 369.839,856.052 372.037,860.726 374.235,865.354 376.434,869.935 378.632,874.471 380.831,878.962 383.029,883.408 385.227,887.81 387.426,892.168 389.624,896.483 391.822,900.754 394.021,904.983 396.219,909.17 398.417,913.315 400.616,917.419 402.814,921.482 405.012,925.505 407.211,929.487 409.409,933.43 411.608,937.333 413.806,941.198 416.004,945.024 418.203,948.812 420.401,952.562 422.599,956.275 424.798,959.95 426.996,963.59 429.194,967.192 431.393,970.759 433.591,974.291 435.789,977.787 437.988,981.249 440.186,984.676 442.385,988.069 444.583,991.428 446.781,994.754 448.98,998.046 451.178,1001.31 453.376,1004.53 455.575,1007.73 457.773,1010.89 459.971,1014.02 462.17,1017.12 464.368,1020.19 466.566,1023.23 468.765,1026.24 470.963,1029.22 473.162,1032.17 475.36,1035.09 477.558,1037.98 479.757,1040.84 481.955,1043.68 484.153,1046.48 486.352,1049.26 488.55,1052.01 490.748,1054.73 492.947,1057.43 495.145,1060.1 497.343,1062.74 499.542,1065.35 501.74,1067.94 503.938,1070.51 506.137,1073.05 508.335,1075.56 510.534,1078.05 512.732,1080.51 514.93,1082.95 517.129,1085.36 519.327,1087.75 521.525,1090.12 523.724,1092.46 525.922,1094.78 528.12,1097.08 530.319,1099.35 532.517,1101.6 534.715,1103.83 536.914,1106.04 539.112,1108.22 541.311,1110.38 543.509,1112.52 545.707,1114.64 547.906,1116.74 550.104,1118.82 552.302,1120.88 554.501,1122.91 556.699,1124.93 558.897,1126.92 561.096,1128.9 563.294,1130.86 565.492,1132.79 567.691,1134.71 569.889,1136.61 572.088,1138.49 574.286,1140.35 576.484,1142.19 578.683,1144.02 580.881,1145.83 583.079,1147.61 585.278,1149.38 587.476,1151.14 589.674,1152.87 591.873,1154.59 594.071,1156.29 596.269,1157.98 598.468,1159.64 600.666,1161.29 602.865,1162.93 605.063,1164.55 607.261,1166.15 609.46,1167.73 611.658,1169.3 613.856,1170.86 616.055,1172.4 618.253,1173.92 620.451,1175.43 622.65,1176.92 624.848,1178.4 627.046,1179.86 629.245,1181.31 631.443,1182.75 633.641,1184.17 635.84,1185.57 638.038,1186.96 640.237,1188.34 642.435,1189.71 644.633,1191.06 646.832,1192.39 649.03,1193.72 651.228,1195.03 653.427,1196.33 655.625,1197.61 657.823,1198.88 660.022,1200.14 662.22,1201.39 664.418,1202.62 666.617,1203.84 668.815,1205.05 671.014,1206.25 673.212,1207.44 675.41,1208.61 677.609,1209.77 679.807,1210.93 682.005,1212.06 684.204,1213.19 686.402,1214.31 688.6,1215.42 690.799,1216.51 692.997,1217.59 695.195,1218.67 697.394,1219.73 699.592,1220.78 701.791,1221.82 703.989,1222.85 706.187,1223.88 708.386,1224.89 710.584,1225.89 712.782,1226.88 714.981,1227.86 717.179,1228.83 719.377,1229.79 721.576,1230.74 723.774,1231.69 725.972,1232.62 728.171,1233.54 730.369,1234.46 732.568,1235.36 734.766,1236.26 736.964,1237.15 739.163,1238.03 741.361,1238.9 743.559,1239.76 745.758,1240.61 747.956,1241.45 750.154,1242.29 752.353,1243.12 754.551,1243.93 756.749,1244.75 758.948,1245.55 761.146,1246.34 763.344,1247.13 765.543,1247.91 767.741,1248.68 769.94,1249.44 772.138,1250.2 774.336,1250.95 776.535,1251.69 778.733,1252.42 780.931,1253.15 783.13,1253.87 785.328,1254.58 787.526,1255.28 789.725,1255.98 791.923,1256.67 794.121,1257.35 796.32,1258.03 798.518,1258.7 800.717,1259.36 802.915,1260.02 805.113,1260.67 807.312,1261.32 809.51,1261.95 811.708,1262.58 813.907,1263.21 816.105,1263.83 818.303,1264.44 820.502,1265.05 822.7,1265.65 824.898,1266.24 827.097,1266.83 829.295,1267.41 831.494,1267.99 833.692,1268.56 835.89,1269.13 838.089,1269.69 840.287,1270.24 842.485,1270.79 844.684,1271.33 846.882,1271.87 849.08,1272.4 851.279,1272.93 853.477,1273.45 855.675,1273.97 857.874,1274.48 860.072,1274.99 862.271,1275.49 864.469,1275.99 866.667,1276.48 868.866,1276.97 871.064,1277.45 873.262,1277.93 875.461,1278.4 877.659,1278.87 879.857,1279.33 882.056,1279.79 884.254,1280.24 886.452,1280.69 888.651,1281.14 890.849,1281.58 893.048,1282.01 895.246,1282.44 897.444,1282.87 899.643,1283.3 901.841,1283.71 904.039,1284.13 906.238,1284.54 908.436,1284.95 910.634,1285.35 912.833,1285.75 915.031,1286.14 917.229,1286.53 919.428,1286.92 921.626,1287.3 923.824,1287.68 926.023,1288.05 928.221,1288.43 930.42,1288.79 932.618,1289.16 934.816,1289.52 937.015,1289.87 939.213,1290.23 941.411,1290.58 943.61,1290.92 945.808,1291.27 948.006,1291.6 950.205,1291.94 952.403,1292.27 954.601,1292.6 956.8,1292.93 958.998,1293.25 961.197,1293.57 963.395,1293.89 965.593,1294.2 967.792,1294.51 969.99,1294.82 972.188,1295.12 974.387,1295.42 976.585,1295.72 978.783,1296.01 980.982,1296.3 983.18,1296.59 985.378,1296.88 987.577,1297.16 989.775,1297.44 991.974,1297.72 994.172,1297.99 996.37,1298.27 998.569,1298.54 1000.77,1298.8 1002.97,1299.07 1005.16,1299.33 1007.36,1299.59 1009.56,1299.84 1011.76,1300.1 1013.96,1300.35 1016.16,1300.6 1018.35,1300.84 1020.55,1301.09 1022.75,1301.33 1024.95,1301.57 1027.15,1301.81 1029.35,1302.04 1031.54,1302.27 1033.74,1302.5 1035.94,1302.73 1038.14,1302.96 1040.34,1303.18 1042.54,1303.4 1044.73,1303.62 1046.93,1303.84 1049.13,1304.05 1051.33,1304.26 1053.53,1304.47 1055.73,1304.68 1057.92,1304.89 1060.12,1305.09 1062.32,1305.29 1064.52,1305.49 1066.72,1305.69 1068.92,1305.89 1071.11,1306.08 1073.31,1306.27 1075.51,1306.46 1077.71,1306.65 1079.91,1306.84 1082.11,1307.02 1084.3,1307.2 1086.5,1307.39 1088.7,1307.56 1090.9,1307.74 1093.1,1307.92 1095.3,1308.09 1097.49,1308.26 1099.69,1308.43 1101.89,1308.6 1104.09,1308.77 1106.29,1308.93 1108.49,1309.1 1110.68,1309.26 1112.88,1309.42 1115.08,1309.58 1117.28,1309.73 1119.48,1309.89 1121.68,1310.04 1123.87,1310.19 1126.07,1310.35 1128.27,1310.49 1130.47,1310.64 1132.67,1310.79 1134.87,1310.93 1137.07,1311.08 1139.26,1311.22 1141.46,1311.36 1143.66,1311.5 1145.86,1311.64 1148.06,1311.77 1150.26,1311.91 1152.45,1312.04 1154.65,1312.17 1156.85,1312.3 1159.05,1312.43 1161.25,1312.56 1163.45,1312.69 1165.64,1312.81 1167.84,1312.94 1170.04,1313.06 1172.24,1313.18 1174.44,1313.3 1176.64,1313.42 1178.83,1313.54 1181.03,1313.66 1183.23,1313.78 1185.43,1313.89 1187.63,1314 1189.83,1314.12 1192.02,1314.23 1194.22,1314.34 1196.42,1314.45 1198.62,1314.56 1200.82,1314.66 1203.02,1314.77 1205.21,1314.88 1207.41,1314.98 1209.61,1315.08 1211.81,1315.18 1214.01,1315.29 1216.21,1315.39 1218.4,1315.49 1220.6,1315.58 1222.8,1315.68 1225,1315.78 1227.2,1315.87 1229.4,1315.97 1231.59,1316.06 1233.79,1316.15 1235.99,1316.24 1238.19,1316.34 1240.39,1316.43 1242.59,1316.51 1244.78,1316.6 1246.98,1316.69 1249.18,1316.78 1251.38,1316.86 1253.58,1316.95 1255.78,1317.03 1257.97,1317.11 1260.17,1317.2 1262.37,1317.28 1264.57,1317.36 1266.77,1317.44 1268.97,1317.52 1271.16,1317.59 1273.36,1317.67 1275.56,1317.75 1277.76,1317.82 1279.96,1317.9 1282.16,1317.97 1284.35,1318.05 1286.55,1318.12 1288.75,1318.19 1290.95,1318.26 1293.15,1318.33 1295.35,1318.4 1297.55,1318.47 1299.74,1318.54 1301.94,1318.61 1304.14,1318.68 1306.34,1318.74 1308.54,1318.81 1310.74,1318.87 1312.93,1318.94 1315.13,1319 1317.33,1319.07 1319.53,1319.13 1321.73,1319.19 1323.93,1319.25 1326.12,1319.31 1328.32,1319.37 1330.52,1319.43 1332.72,1319.49 1334.92,1319.55 1337.12,1319.61 1339.31,1319.66 1341.51,1319.72 1343.71,1319.77 1345.91,1319.83 1348.11,1319.88 1350.31,1319.94 1352.5,1319.99 1354.7,1320.05 1356.9,1320.1 1359.1,1320.15 1361.3,1320.2 1363.5,1320.25 1365.69,1320.3 1367.89,1320.35 1370.09,1320.4 1372.29,1320.45 1374.49,1320.5 1376.69,1320.55 1378.88,1320.6 1381.08,1320.64 1383.28,1320.69 1385.48,1320.73 1387.68,1320.78 1389.88,1320.83 1392.07,1320.87 1394.27,1320.91 1396.47,1320.96 1398.67,1321 1400.87,1321.04 1403.07,1321.09 1405.26,1321.13 1407.46,1321.17 1409.66,1321.21 1411.86,1321.25 1414.06,1321.29 1416.26,1321.33 1418.45,1321.37 1420.65,1321.41 1422.85,1321.45 1425.05,1321.49 1427.25,1321.53 1429.45,1321.57 1431.64,1321.6 1433.84,1321.64 1436.04,1321.68 1438.24,1321.71 1440.44,1321.75 1442.64,1321.79 1444.83,1321.82 1447.03,1321.86 1449.23,1321.89 1451.43,1321.93 1453.63,1321.96 1455.83,1321.99 1458.03,1322.03 1460.22,1322.06 1462.42,1322.09 1464.62,1322.12 1466.82,1322.16 1469.02,1322.19 1471.22,1322.22 1473.41,1322.25 1475.61,1322.28 1477.81,1322.31 1480.01,1322.34 1482.21,1322.37 1484.41,1322.4 1486.6,1322.43 1488.8,1322.46 1491,1322.49 1493.2,1322.52 1495.4,1322.55 1497.6,1322.58 1499.79,1322.6 1501.99,1322.63 1504.19,1322.66 1506.39,1322.68 1508.59,1322.71 1510.79,1322.74 1512.98,1322.76 1515.18,1322.79 1517.38,1322.82 1519.58,1322.84 1521.78,1322.87 1523.98,1322.89 1526.17,1322.92 1528.37,1322.94 1530.57,1322.96 1532.77,1322.99 1534.97,1323.01 1537.17,1323.03 1539.36,1323.06 1541.56,1323.08 1543.76,1323.1 1545.96,1323.13 1548.16,1323.15 1550.36,1323.17 1552.55,1323.19 1554.75,1323.21 1556.95,1323.23 1559.15,1323.25 1561.35,1323.28 1563.55,1323.3 1565.74,1323.32 1567.94,1323.34 1570.14,1323.36 1572.34,1323.38 1574.54,1323.4 1576.74,1323.42 1578.93,1323.43 1581.13,1323.45 1583.33,1323.47 1585.53,1323.49 1587.73,1323.51 1589.93,1323.53 1592.12,1323.54 1594.32,1323.56 1596.52,1323.58 1598.72,1323.6 1600.92,1323.61 1603.12,1323.63 1605.31,1323.65 1607.51,1323.67 1609.71,1323.68 1611.91,1323.7 1614.11,1323.71 1616.31,1323.73 1618.5,1323.75 1620.7,1323.76 1622.9,1323.78 1625.1,1323.79 1627.3,1323.81 1629.5,1323.82 1631.7,1323.84 1633.89,1323.85 1636.09,1323.87 1638.29,1323.88 1640.49,1323.9 1642.69,1323.91 1644.89,1323.92 1647.08,1323.94 1649.28,1323.95 1651.48,1323.97 1653.68,1323.98 1655.88,1323.99 1658.08,1324.01 1660.27,1324.02 1662.47,1324.03 1664.67,1324.04 1666.87,1324.06 1669.07,1324.07 1671.27,1324.08 1673.46,1324.09 1675.66,1324.11 1677.86,1324.12 1680.06,1324.13 1682.26,1324.14 1684.46,1324.15 1686.65,1324.17 1688.85,1324.18 1691.05,1324.19 1693.25,1324.2 1695.45,1324.21 1697.65,1324.22 1699.84,1324.23 1702.04,1324.24 1704.24,1324.26 1706.44,1324.27 1708.64,1324.28 1710.84,1324.29 1713.03,1324.3 1715.23,1324.31 1717.43,1324.32 1719.63,1324.33 1721.83,1324.34 1724.03,1324.35 1726.22,1324.36 1728.42,1324.37 1730.62,1324.38 1732.82,1324.39 1735.02,1324.4 1737.22,1324.41 1739.41,1324.42 1741.61,1324.43 1743.81,1324.43 1746.01,1324.44 1748.21,1324.45 1750.41,1324.46 1752.6,1324.47 1754.8,1324.48 1757,1324.49 1759.2,1324.5 1761.4,1324.51 1763.6,1324.51 1765.79,1324.52 1767.99,1324.53 1770.19,1324.54 1772.39,1324.55 1774.59,1324.55 1776.79,1324.56 1778.98,1324.57 1781.18,1324.58 1783.38,1324.59 1785.58,1324.59 1787.78,1324.6 1789.98,1324.61 1792.18,1324.62 1794.37,1324.62 1796.57,1324.63 1798.77,1324.64 1800.97,1324.65 1803.17,1324.65 1805.37,1324.66 1807.56,1324.67 1809.76,1324.67 1811.96,1324.68 1814.16,1324.69 1816.36,1324.69 1818.56,1324.7 1820.75,1324.71 1822.95,1324.71 1825.15,1324.72 1827.35,1324.73 1829.55,1324.73 1831.75,1324.74 1833.94,1324.74 1836.14,1324.75 1838.34,1324.76 1840.54,1324.76 1842.74,1324.77 1844.94,1324.77 1847.13,1324.78 1849.33,1324.78 1851.53,1324.79 1853.73,1324.8 1855.93,1324.8 1858.13,1324.81 1860.32,1324.81 1862.52,1324.82 1864.72,1324.82 1866.92,1324.83 1869.12,1324.83 1871.32,1324.84 1873.51,1324.84 1875.71,1324.85 1877.91,1324.85 1880.11,1324.86 1882.31,1324.86 1884.51,1324.87 1886.7,1324.87 1888.9,1324.88 1891.1,1324.88 1893.3,1324.88 1895.5,1324.89 1897.7,1324.89 1899.89,1324.9 1902.09,1324.9 1904.29,1324.91 1906.49,1324.91 1908.69,1324.92 1910.89,1324.92 1913.08,1324.92 1915.28,1324.93 1917.48,1324.93 1919.68,1324.94 1921.88,1324.94 1924.08,1324.94 1926.27,1324.95 1928.47,1324.95 1930.67,1324.95 1932.87,1324.96 1935.07,1324.96 1937.27,1324.97 1939.46,1324.97 1941.66,1324.97 1943.86,1324.98 1946.06,1324.98 1948.26,1324.98 1950.46,1324.99 1952.66,1324.99 1954.85,1324.99 1957.05,1325 1959.25,1325 1961.45,1325 1963.65,1325.01 1965.85,1325.01 1968.04,1325.01 1970.24,1325.01 1972.44,1325.02 1974.64,1325.02 1976.84,1325.02 1979.04,1325.03 1981.23,1325.03 1983.43,1325.03 1985.63,1325.04 1987.83,1325.04 1990.03,1325.04 1992.23,1325.04 1994.42,1325.05 1996.62,1325.05 1998.82,1325.05 2001.02,1325.06 2003.22,1325.06 2005.42,1325.06 2007.61,1325.06 2009.81,1325.07 2012.01,1325.07 2014.21,1325.07 2016.41,1325.07 2018.61,1325.08 2020.8,1325.08 2023,1325.08 2025.2,1325.08 2027.4,1325.09 2029.6,1325.09 2031.8,1325.09 2033.99,1325.09 2036.19,1325.1 2038.39,1325.1 2040.59,1325.1 2042.79,1325.1 2044.99,1325.11 2047.18,1325.11 2049.38,1325.11 2051.58,1325.11 2053.78,1325.11 2055.98,1325.12 2058.18,1325.12 2060.37,1325.12 2062.57,1325.12 2064.77,1325.13 2066.97,1325.13 2069.17,1325.13 2071.37,1325.13 2073.56,1325.13 2075.76,1325.14 2077.96,1325.14 2080.16,1325.14 2082.36,1325.14 2084.56,1325.14 2086.75,1325.15 2088.95,1325.15 2091.15,1325.15 2093.35,1325.15 2095.55,1325.15 2097.75,1325.16 2099.94,1325.16 2102.14,1325.16 2104.34,1325.16 2106.54,1325.16 2108.74,1325.16 2110.94,1325.17 2113.14,1325.17 2115.33,1325.17 2117.53,1325.17 2119.73,1325.17 2121.93,1325.17 2124.13,1325.18 2126.33,1325.18 2128.52,1325.18 2130.72,1325.18 2132.92,1325.18 2135.12,1325.18 2137.32,1325.19 2139.52,1325.19 2141.71,1325.19 2143.91,1325.19 2146.11,1325.19 2148.31,1325.19 2150.51,1325.2 2152.71,1325.2 2154.9,1325.2 2157.1,1325.2 2159.3,1325.2 2161.5,1325.2 2163.7,1325.2 2165.9,1325.2 2168.09,1325.21 2170.29,1325.21 2172.49,1325.21 2174.69,1325.21 2176.89,1325.21 2179.09,1325.21 2181.28,1325.21 2183.48,1325.22 2185.68,1325.22 2187.88,1325.22 2190.08,1325.22 2192.28,1325.22 2194.47,1325.22 2196.67,1325.22 2198.87,1325.22 2201.07,1325.22 2203.27,1325.23 2205.47,1325.23 2207.66,1325.23 2209.86,1325.23 2212.06,1325.23 2214.26,1325.23 2216.46,1325.23 2218.66,1325.23 2220.85,1325.23 2223.05,1325.24 2225.25,1325.24 2227.45,1325.24 2229.65,1325.24 2231.85,1325.24 2234.04,1325.24 2236.24,1325.24 2238.44,1325.24 2240.64,1325.24 2242.84,1325.24 2245.04,1325.24 2247.23,1325.25 2249.43,1325.25 2251.63,1325.25 2253.83,1325.25 2256.03,1325.25 2258.23,1325.25 2260.42,1325.25 2262.62,1325.25 2264.82,1325.25 2267.02,1325.25 2269.22,1325.25 2271.42,1325.26 2273.62,1325.26 2275.81,1325.26 2278.01,1325.26 2280.21,1325.26 2282.41,1325.26 2284.61,1325.26 2286.81,1325.26 2289,1325.26 2291.2,1325.26 2293.4,1325.26 2295.6,1325.26 2297.8,1325.26 2300,1325.26 2302.19,1325.27 2304.39,1325.27 2306.59,1325.27 2308.79,1325.27 2310.99,1325.27 2313.19,1325.27 2315.38,1325.27 2317.58,1325.27 2319.78,1325.27 2321.98,1325.27 2324.18,1325.27 2326.38,1325.27 2328.57,1325.27 2330.77,1325.27 2332.97,1325.27 2335.17,1325.28 2337.37,1325.28 2339.57,1325.28 2341.76,1325.28 2343.96,1325.28 2346.16,1325.28 2348.36,1325.28 2350.56,1325.28 2352.76,1325.28 "/>
<polyline clip-path="url(#clip212)" style="stroke:#e26f46; stroke-linecap:round; stroke-linejoin:round; stroke-width:4; stroke-opacity:1; fill:none" points="156.598,1384.24 158.797,1383.1 160.995,1381.98 163.193,1380.87 165.392,1379.77 167.59,1378.69 169.788,1377.63 171.987,1376.57 174.185,1375.53 176.383,1374.51 178.582,1373.5 180.78,1372.5 182.979,1371.51 185.177,1370.54 187.375,1369.58 189.574,1368.63 191.772,1367.69 193.97,1366.77 196.169,1365.86 198.367,1364.96 200.565,1364.07 202.764,1363.2 204.962,1362.34 207.16,1361.48 209.359,1360.64 211.557,1359.81 213.755,1359 215.954,1358.19 218.152,1357.39 220.351,1356.61 222.549,1355.83 224.747,1355.07 226.946,1354.31 229.144,1353.57 231.342,1352.84 233.541,1352.11 235.739,1351.4 237.937,1350.7 240.136,1350 242.334,1349.32 244.532,1348.64 246.731,1347.98 248.929,1347.32 251.128,1346.67 253.326,1346.03 255.524,1345.4 257.723,1344.78 259.921,1344.17 262.119,1343.57 264.318,1342.97 266.516,1342.39 268.714,1341.81 270.913,1341.24 273.111,1340.68 275.309,1340.12 277.508,1339.58 279.706,1339.04 281.905,1338.51 284.103,1337.98 286.301,1337.47 288.5,1336.96 290.698,1336.46 292.896,1335.97 295.095,1335.48 297.293,1335 299.491,1334.53 301.69,1334.07 303.888,1333.61 306.086,1333.16 308.285,1332.71 310.483,1332.27 312.682,1331.84 314.88,1331.42 317.078,1331 319.277,1330.59 321.475,1330.18 323.673,1329.78 325.872,1329.39 328.07,1329 330.268,1328.62 332.467,1328.24 334.665,1327.87 336.863,1327.51 339.062,1327.15 341.26,1326.8 343.458,1326.45 345.657,1326.11 347.855,1325.77 350.054,1325.44 352.252,1325.11 354.45,1324.79 356.649,1324.48 358.847,1324.16 361.045,1323.86 363.244,1323.56 365.442,1323.26 367.64,1322.97 369.839,1322.68 372.037,1322.4 374.235,1322.13 376.434,1321.85 378.632,1321.59 380.831,1321.32 383.029,1321.06 385.227,1320.81 387.426,1320.56 389.624,1320.31 391.822,1320.07 394.021,1319.83 396.219,1319.6 398.417,1319.37 400.616,1319.14 402.814,1318.92 405.012,1318.71 407.211,1318.49 409.409,1318.28 411.608,1318.08 413.806,1317.87 416.004,1317.67 418.203,1317.48 420.401,1317.29 422.599,1317.1 424.798,1316.92 426.996,1316.73 429.194,1316.56 431.393,1316.38 433.591,1316.21 435.789,1316.04 437.988,1315.88 440.186,1315.72 442.385,1315.56 444.583,1315.4 446.781,1315.25 448.98,1315.1 451.178,1314.96 453.376,1314.81 455.575,1314.67 457.773,1314.53 459.971,1314.4 462.17,1314.27 464.368,1314.14 466.566,1314.01 468.765,1313.89 470.963,1313.77 473.162,1313.65 475.36,1313.53 477.558,1313.42 479.757,1313.31 481.955,1313.2 484.153,1313.09 486.352,1312.99 488.55,1312.89 490.748,1312.79 492.947,1312.7 495.145,1312.6 497.343,1312.51 499.542,1312.42 501.74,1312.33 503.938,1312.25 506.137,1312.16 508.335,1312.08 510.534,1312 512.732,1311.93 514.93,1311.85 517.129,1311.78 519.327,1311.71 521.525,1311.64 523.724,1311.57 525.922,1311.51 528.12,1311.44 530.319,1311.38 532.517,1311.32 534.715,1311.26 536.914,1311.21 539.112,1311.15 541.311,1311.1 543.509,1311.05 545.707,1311 547.906,1310.95 550.104,1310.91 552.302,1310.86 554.501,1310.82 556.699,1310.78 558.897,1310.74 561.096,1310.7 563.294,1310.66 565.492,1310.63 567.691,1310.59 569.889,1310.56 572.088,1310.53 574.286,1310.5 576.484,1310.47 578.683,1310.44 580.881,1310.42 583.079,1310.39 585.278,1310.37 587.476,1310.35 589.674,1310.33 591.873,1310.31 594.071,1310.29 596.269,1310.27 598.468,1310.26 600.666,1310.24 602.865,1310.23 605.063,1310.22 607.261,1310.21 609.46,1310.19 611.658,1310.19 613.856,1310.18 616.055,1310.17 618.253,1310.16 620.451,1310.16 622.65,1310.15 624.848,1310.15 627.046,1310.15 629.245,1310.15 631.443,1310.15 633.641,1310.15 635.84,1310.15 638.038,1310.15 640.237,1310.16 642.435,1310.16 644.633,1310.16 646.832,1310.17 649.03,1310.18 651.228,1310.18 653.427,1310.19 655.625,1310.2 657.823,1310.21 660.022,1310.22 662.22,1310.23 664.418,1310.24 666.617,1310.26 668.815,1310.27 671.014,1310.28 673.212,1310.3 675.41,1310.31 677.609,1310.33 679.807,1310.35 682.005,1310.36 684.204,1310.38 686.402,1310.4 688.6,1310.42 690.799,1310.44 692.997,1310.46 695.195,1310.48 697.394,1310.5 699.592,1310.52 701.791,1310.55 703.989,1310.57 706.187,1310.59 708.386,1310.62 710.584,1310.64 712.782,1310.67 714.981,1310.69 717.179,1310.72 719.377,1310.74 721.576,1310.77 723.774,1310.8 725.972,1310.83 728.171,1310.85 730.369,1310.88 732.568,1310.91 734.766,1310.94 736.964,1310.97 739.163,1311 741.361,1311.03 743.559,1311.06 745.758,1311.09 747.956,1311.12 750.154,1311.16 752.353,1311.19 754.551,1311.22 756.749,1311.25 758.948,1311.29 761.146,1311.32 763.344,1311.35 765.543,1311.39 767.741,1311.42 769.94,1311.46 772.138,1311.49 774.336,1311.53 776.535,1311.56 778.733,1311.6 780.931,1311.64 783.13,1311.67 785.328,1311.71 787.526,1311.74 789.725,1311.78 791.923,1311.82 794.121,1311.86 796.32,1311.89 798.518,1311.93 800.717,1311.97 802.915,1312.01 805.113,1312.05 807.312,1312.09 809.51,1312.12 811.708,1312.16 813.907,1312.2 816.105,1312.24 818.303,1312.28 820.502,1312.32 822.7,1312.36 824.898,1312.4 827.097,1312.44 829.295,1312.48 831.494,1312.52 833.692,1312.56 835.89,1312.6 838.089,1312.64 840.287,1312.68 842.485,1312.72 844.684,1312.77 846.882,1312.81 849.08,1312.85 851.279,1312.89 853.477,1312.93 855.675,1312.97 857.874,1313.01 860.072,1313.05 862.271,1313.1 864.469,1313.14 866.667,1313.18 868.866,1313.22 871.064,1313.26 873.262,1313.3 875.461,1313.35 877.659,1313.39 879.857,1313.43 882.056,1313.47 884.254,1313.51 886.452,1313.56 888.651,1313.6 890.849,1313.64 893.048,1313.68 895.246,1313.73 897.444,1313.77 899.643,1313.81 901.841,1313.85 904.039,1313.9 906.238,1313.94 908.436,1313.98 910.634,1314.02 912.833,1314.06 915.031,1314.11 917.229,1314.15 919.428,1314.19 921.626,1314.23 923.824,1314.28 926.023,1314.32 928.221,1314.36 930.42,1314.4 932.618,1314.45 934.816,1314.49 937.015,1314.53 939.213,1314.57 941.411,1314.62 943.61,1314.66 945.808,1314.7 948.006,1314.74 950.205,1314.78 952.403,1314.83 954.601,1314.87 956.8,1314.91 958.998,1314.95 961.197,1314.99 963.395,1315.04 965.593,1315.08 967.792,1315.12 969.99,1315.16 972.188,1315.2 974.387,1315.24 976.585,1315.29 978.783,1315.33 980.982,1315.37 983.18,1315.41 985.378,1315.45 987.577,1315.49 989.775,1315.53 991.974,1315.57 994.172,1315.62 996.37,1315.66 998.569,1315.7 1000.77,1315.74 1002.97,1315.78 1005.16,1315.82 1007.36,1315.86 1009.56,1315.9 1011.76,1315.94 1013.96,1315.98 1016.16,1316.02 1018.35,1316.06 1020.55,1316.1 1022.75,1316.14 1024.95,1316.18 1027.15,1316.22 1029.35,1316.26 1031.54,1316.3 1033.74,1316.34 1035.94,1316.38 1038.14,1316.42 1040.34,1316.46 1042.54,1316.5 1044.73,1316.54 1046.93,1316.57 1049.13,1316.61 1051.33,1316.65 1053.53,1316.69 1055.73,1316.73 1057.92,1316.77 1060.12,1316.81 1062.32,1316.84 1064.52,1316.88 1066.72,1316.92 1068.92,1316.96 1071.11,1317 1073.31,1317.03 1075.51,1317.07 1077.71,1317.11 1079.91,1317.15 1082.11,1317.18 1084.3,1317.22 1086.5,1317.26 1088.7,1317.29 1090.9,1317.33 1093.1,1317.37 1095.3,1317.4 1097.49,1317.44 1099.69,1317.48 1101.89,1317.51 1104.09,1317.55 1106.29,1317.59 1108.49,1317.62 1110.68,1317.66 1112.88,1317.69 1115.08,1317.73 1117.28,1317.77 1119.48,1317.8 1121.68,1317.84 1123.87,1317.87 1126.07,1317.91 1128.27,1317.94 1130.47,1317.98 1132.67,1318.01 1134.87,1318.05 1137.07,1318.08 1139.26,1318.11 1141.46,1318.15 1143.66,1318.18 1145.86,1318.22 1148.06,1318.25 1150.26,1318.29 1152.45,1318.32 1154.65,1318.35 1156.85,1318.39 1159.05,1318.42 1161.25,1318.45 1163.45,1318.49 1165.64,1318.52 1167.84,1318.55 1170.04,1318.58 1172.24,1318.62 1174.44,1318.65 1176.64,1318.68 1178.83,1318.71 1181.03,1318.75 1183.23,1318.78 1185.43,1318.81 1187.63,1318.84 1189.83,1318.87 1192.02,1318.91 1194.22,1318.94 1196.42,1318.97 1198.62,1319 1200.82,1319.03 1203.02,1319.06 1205.21,1319.09 1207.41,1319.12 1209.61,1319.15 1211.81,1319.19 1214.01,1319.22 1216.21,1319.25 1218.4,1319.28 1220.6,1319.31 1222.8,1319.34 1225,1319.37 1227.2,1319.4 1229.4,1319.43 1231.59,1319.45 1233.79,1319.48 1235.99,1319.51 1238.19,1319.54 1240.39,1319.57 1242.59,1319.6 1244.78,1319.63 1246.98,1319.66 1249.18,1319.69 1251.38,1319.71 1253.58,1319.74 1255.78,1319.77 1257.97,1319.8 1260.17,1319.83 1262.37,1319.85 1264.57,1319.88 1266.77,1319.91 1268.97,1319.94 1271.16,1319.96 1273.36,1319.99 1275.56,1320.02 1277.76,1320.05 1279.96,1320.07 1282.16,1320.1 1284.35,1320.13 1286.55,1320.15 1288.75,1320.18 1290.95,1320.21 1293.15,1320.23 1295.35,1320.26 1297.55,1320.28 1299.74,1320.31 1301.94,1320.34 1304.14,1320.36 1306.34,1320.39 1308.54,1320.41 1310.74,1320.44 1312.93,1320.46 1315.13,1320.49 1317.33,1320.51 1319.53,1320.54 1321.73,1320.56 1323.93,1320.59 1326.12,1320.61 1328.32,1320.64 1330.52,1320.66 1332.72,1320.69 1334.92,1320.71 1337.12,1320.73 1339.31,1320.76 1341.51,1320.78 1343.71,1320.8 1345.91,1320.83 1348.11,1320.85 1350.31,1320.88 1352.5,1320.9 1354.7,1320.92 1356.9,1320.95 1359.1,1320.97 1361.3,1320.99 1363.5,1321.01 1365.69,1321.04 1367.89,1321.06 1370.09,1321.08 1372.29,1321.1 1374.49,1321.13 1376.69,1321.15 1378.88,1321.17 1381.08,1321.19 1383.28,1321.21 1385.48,1321.24 1387.68,1321.26 1389.88,1321.28 1392.07,1321.3 1394.27,1321.32 1396.47,1321.34 1398.67,1321.36 1400.87,1321.39 1403.07,1321.41 1405.26,1321.43 1407.46,1321.45 1409.66,1321.47 1411.86,1321.49 1414.06,1321.51 1416.26,1321.53 1418.45,1321.55 1420.65,1321.57 1422.85,1321.59 1425.05,1321.61 1427.25,1321.63 1429.45,1321.65 1431.64,1321.67 1433.84,1321.69 1436.04,1321.71 1438.24,1321.73 1440.44,1321.75 1442.64,1321.77 1444.83,1321.79 1447.03,1321.81 1449.23,1321.82 1451.43,1321.84 1453.63,1321.86 1455.83,1321.88 1458.03,1321.9 1460.22,1321.92 1462.42,1321.94 1464.62,1321.95 1466.82,1321.97 1469.02,1321.99 1471.22,1322.01 1473.41,1322.03 1475.61,1322.04 1477.81,1322.06 1480.01,1322.08 1482.21,1322.1 1484.41,1322.12 1486.6,1322.13 1488.8,1322.15 1491,1322.17 1493.2,1322.18 1495.4,1322.2 1497.6,1322.22 1499.79,1322.24 1501.99,1322.25 1504.19,1322.27 1506.39,1322.29 1508.59,1322.3 1510.79,1322.32 1512.98,1322.34 1515.18,1322.35 1517.38,1322.37 1519.58,1322.38 1521.78,1322.4 1523.98,1322.42 1526.17,1322.43 1528.37,1322.45 1530.57,1322.46 1532.77,1322.48 1534.97,1322.49 1537.17,1322.51 1539.36,1322.53 1541.56,1322.54 1543.76,1322.56 1545.96,1322.57 1548.16,1322.59 1550.36,1322.6 1552.55,1322.62 1554.75,1322.63 1556.95,1322.65 1559.15,1322.66 1561.35,1322.68 1563.55,1322.69 1565.74,1322.71 1567.94,1322.72 1570.14,1322.73 1572.34,1322.75 1574.54,1322.76 1576.74,1322.78 1578.93,1322.79 1581.13,1322.81 1583.33,1322.82 1585.53,1322.83 1587.73,1322.85 1589.93,1322.86 1592.12,1322.87 1594.32,1322.89 1596.52,1322.9 1598.72,1322.91 1600.92,1322.93 1603.12,1322.94 1605.31,1322.95 1607.51,1322.97 1609.71,1322.98 1611.91,1322.99 1614.11,1323.01 1616.31,1323.02 1618.5,1323.03 1620.7,1323.05 1622.9,1323.06 1625.1,1323.07 1627.3,1323.08 1629.5,1323.1 1631.7,1323.11 1633.89,1323.12 1636.09,1323.13 1638.29,1323.15 1640.49,1323.16 1642.69,1323.17 1644.89,1323.18 1647.08,1323.19 1649.28,1323.21 1651.48,1323.22 1653.68,1323.23 1655.88,1323.24 1658.08,1323.25 1660.27,1323.27 1662.47,1323.28 1664.67,1323.29 1666.87,1323.3 1669.07,1323.31 1671.27,1323.32 1673.46,1323.33 1675.66,1323.35 1677.86,1323.36 1680.06,1323.37 1682.26,1323.38 1684.46,1323.39 1686.65,1323.4 1688.85,1323.41 1691.05,1323.42 1693.25,1323.43 1695.45,1323.44 1697.65,1323.45 1699.84,1323.47 1702.04,1323.48 1704.24,1323.49 1706.44,1323.5 1708.64,1323.51 1710.84,1323.52 1713.03,1323.53 1715.23,1323.54 1717.43,1323.55 1719.63,1323.56 1721.83,1323.57 1724.03,1323.58 1726.22,1323.59 1728.42,1323.6 1730.62,1323.61 1732.82,1323.62 1735.02,1323.63 1737.22,1323.64 1739.41,1323.65 1741.61,1323.66 1743.81,1323.66 1746.01,1323.67 1748.21,1323.68 1750.41,1323.69 1752.6,1323.7 1754.8,1323.71 1757,1323.72 1759.2,1323.73 1761.4,1323.74 1763.6,1323.75 1765.79,1323.76 1767.99,1323.77 1770.19,1323.77 1772.39,1323.78 1774.59,1323.79 1776.79,1323.8 1778.98,1323.81 1781.18,1323.82 1783.38,1323.83 1785.58,1323.84 1787.78,1323.84 1789.98,1323.85 1792.18,1323.86 1794.37,1323.87 1796.57,1323.88 1798.77,1323.89 1800.97,1323.89 1803.17,1323.9 1805.37,1323.91 1807.56,1323.92 1809.76,1323.93 1811.96,1323.93 1814.16,1323.94 1816.36,1323.95 1818.56,1323.96 1820.75,1323.97 1822.95,1323.97 1825.15,1323.98 1827.35,1323.99 1829.55,1324 1831.75,1324.01 1833.94,1324.01 1836.14,1324.02 1838.34,1324.03 1840.54,1324.04 1842.74,1324.04 1844.94,1324.05 1847.13,1324.06 1849.33,1324.06 1851.53,1324.07 1853.73,1324.08 1855.93,1324.09 1858.13,1324.09 1860.32,1324.1 1862.52,1324.11 1864.72,1324.11 1866.92,1324.12 1869.12,1324.13 1871.32,1324.14 1873.51,1324.14 1875.71,1324.15 1877.91,1324.16 1880.11,1324.16 1882.31,1324.17 1884.51,1324.18 1886.7,1324.18 1888.9,1324.19 1891.1,1324.2 1893.3,1324.2 1895.5,1324.21 1897.7,1324.22 1899.89,1324.22 1902.09,1324.23 1904.29,1324.23 1906.49,1324.24 1908.69,1324.25 1910.89,1324.25 1913.08,1324.26 1915.28,1324.27 1917.48,1324.27 1919.68,1324.28 1921.88,1324.28 1924.08,1324.29 1926.27,1324.3 1928.47,1324.3 1930.67,1324.31 1932.87,1324.31 1935.07,1324.32 1937.27,1324.33 1939.46,1324.33 1941.66,1324.34 1943.86,1324.34 1946.06,1324.35 1948.26,1324.36 1950.46,1324.36 1952.66,1324.37 1954.85,1324.37 1957.05,1324.38 1959.25,1324.38 1961.45,1324.39 1963.65,1324.39 1965.85,1324.4 1968.04,1324.41 1970.24,1324.41 1972.44,1324.42 1974.64,1324.42 1976.84,1324.43 1979.04,1324.43 1981.23,1324.44 1983.43,1324.44 1985.63,1324.45 1987.83,1324.45 1990.03,1324.46 1992.23,1324.46 1994.42,1324.47 1996.62,1324.47 1998.82,1324.48 2001.02,1324.48 2003.22,1324.49 2005.42,1324.49 2007.61,1324.5 2009.81,1324.5 2012.01,1324.51 2014.21,1324.51 2016.41,1324.52 2018.61,1324.52 2020.8,1324.53 2023,1324.53 2025.2,1324.54 2027.4,1324.54 2029.6,1324.55 2031.8,1324.55 2033.99,1324.55 2036.19,1324.56 2038.39,1324.56 2040.59,1324.57 2042.79,1324.57 2044.99,1324.58 2047.18,1324.58 2049.38,1324.59 2051.58,1324.59 2053.78,1324.59 2055.98,1324.6 2058.18,1324.6 2060.37,1324.61 2062.57,1324.61 2064.77,1324.62 2066.97,1324.62 2069.17,1324.62 2071.37,1324.63 2073.56,1324.63 2075.76,1324.64 2077.96,1324.64 2080.16,1324.64 2082.36,1324.65 2084.56,1324.65 2086.75,1324.66 2088.95,1324.66 2091.15,1324.66 2093.35,1324.67 2095.55,1324.67 2097.75,1324.68 2099.94,1324.68 2102.14,1324.68 2104.34,1324.69 2106.54,1324.69 2108.74,1324.69 2110.94,1324.7 2113.14,1324.7 2115.33,1324.71 2117.53,1324.71 2119.73,1324.71 2121.93,1324.72 2124.13,1324.72 2126.33,1324.72 2128.52,1324.73 2130.72,1324.73 2132.92,1324.73 2135.12,1324.74 2137.32,1324.74 2139.52,1324.75 2141.71,1324.75 2143.91,1324.75 2146.11,1324.76 2148.31,1324.76 2150.51,1324.76 2152.71,1324.77 2154.9,1324.77 2157.1,1324.77 2159.3,1324.78 2161.5,1324.78 2163.7,1324.78 2165.9,1324.79 2168.09,1324.79 2170.29,1324.79 2172.49,1324.8 2174.69,1324.8 2176.89,1324.8 2179.09,1324.8 2181.28,1324.81 2183.48,1324.81 2185.68,1324.81 2187.88,1324.82 2190.08,1324.82 2192.28,1324.82 2194.47,1324.83 2196.67,1324.83 2198.87,1324.83 2201.07,1324.83 2203.27,1324.84 2205.47,1324.84 2207.66,1324.84 2209.86,1324.85 2212.06,1324.85 2214.26,1324.85 2216.46,1324.86 2218.66,1324.86 2220.85,1324.86 2223.05,1324.86 2225.25,1324.87 2227.45,1324.87 2229.65,1324.87 2231.85,1324.87 2234.04,1324.88 2236.24,1324.88 2238.44,1324.88 2240.64,1324.89 2242.84,1324.89 2245.04,1324.89 2247.23,1324.89 2249.43,1324.9 2251.63,1324.9 2253.83,1324.9 2256.03,1324.9 2258.23,1324.91 2260.42,1324.91 2262.62,1324.91 2264.82,1324.91 2267.02,1324.92 2269.22,1324.92 2271.42,1324.92 2273.62,1324.92 2275.81,1324.93 2278.01,1324.93 2280.21,1324.93 2282.41,1324.93 2284.61,1324.94 2286.81,1324.94 2289,1324.94 2291.2,1324.94 2293.4,1324.94 2295.6,1324.95 2297.8,1324.95 2300,1324.95 2302.19,1324.95 2304.39,1324.96 2306.59,1324.96 2308.79,1324.96 2310.99,1324.96 2313.19,1324.97 2315.38,1324.97 2317.58,1324.97 2319.78,1324.97 2321.98,1324.97 2324.18,1324.98 2326.38,1324.98 2328.57,1324.98 2330.77,1324.98 2332.97,1324.98 2335.17,1324.99 2337.37,1324.99 2339.57,1324.99 2341.76,1324.99 2343.96,1324.99 2346.16,1325 2348.36,1325 2350.56,1325 2352.76,1325 "/>
<path clip-path="url(#clip210)" d="M1800.54 248.629 L2279.55 248.629 L2279.55 93.1086 L1800.54 93.1086  Z" fill="#ffffff" fill-rule="evenodd" fill-opacity="1"/>
<polyline clip-path="url(#clip210)" style="stroke:#000000; stroke-linecap:round; stroke-linejoin:round; stroke-width:4; stroke-opacity:1; fill:none" points="1800.54,248.629 2279.55,248.629 2279.55,93.1086 1800.54,93.1086 1800.54,248.629 "/>
<polyline clip-path="url(#clip210)" style="stroke:#009af9; stroke-linecap:round; stroke-linejoin:round; stroke-width:4; stroke-opacity:1; fill:none" points="1824.94,144.949 1971.35,144.949 "/>
<path clip-path="url(#clip210)" d="M1995.75 136.303 L2000.27 136.303 L2008.37 158.062 L2016.47 136.303 L2020.98 136.303 L2011.26 162.229 L2005.47 162.229 L1995.75 136.303 Z" fill="#000000" fill-rule="nonzero" fill-opacity="1" /><path clip-path="url(#clip210)" d="M2028.28 158.293 L2035.91 158.293 L2035.91 131.928 L2027.6 133.595 L2027.6 129.335 L2035.87 127.669 L2040.54 127.669 L2040.54 158.293 L2048.18 158.293 L2048.18 162.229 L2028.28 162.229 L2028.28 158.293 Z" fill="#000000" fill-rule="nonzero" fill-opacity="1" /><path clip-path="url(#clip210)" d="M2066.28 145.585 L2066.28 152.807 L2074.41 152.807 L2074.41 155.006 L2066.28 155.006 L2066.28 162.229 L2063.85 162.229 L2063.85 155.006 L2055.73 155.006 L2055.73 152.807 L2063.85 152.807 L2063.85 145.585 L2066.28 145.585 Z" fill="#000000" fill-rule="nonzero" fill-opacity="1" /><path clip-path="url(#clip210)" d="M2098.58 137.067 L2098.58 141.094 Q2096.77 140.169 2094.83 139.706 Q2092.88 139.243 2090.8 139.243 Q2087.63 139.243 2086.03 140.215 Q2084.46 141.187 2084.46 143.131 Q2084.46 144.613 2085.59 145.469 Q2086.72 146.303 2090.15 147.067 L2091.61 147.391 Q2096.15 148.363 2098.04 150.145 Q2099.96 151.905 2099.96 155.076 Q2099.96 158.687 2097.09 160.793 Q2094.25 162.9 2089.25 162.9 Q2087.16 162.9 2084.9 162.483 Q2082.65 162.09 2080.15 161.28 L2080.15 156.881 Q2082.51 158.108 2084.8 158.733 Q2087.09 159.335 2089.34 159.335 Q2092.35 159.335 2093.97 158.317 Q2095.59 157.275 2095.59 155.4 Q2095.59 153.664 2094.41 152.738 Q2093.25 151.812 2089.29 150.956 L2087.81 150.608 Q2083.85 149.775 2082.09 148.062 Q2080.34 146.326 2080.34 143.317 Q2080.34 139.659 2082.93 137.669 Q2085.52 135.678 2090.29 135.678 Q2092.65 135.678 2094.73 136.025 Q2096.82 136.372 2098.58 137.067 Z" fill="#000000" fill-rule="nonzero" fill-opacity="1" /><path clip-path="url(#clip210)" d="M2110.96 128.942 L2110.96 136.303 L2119.73 136.303 L2119.73 139.613 L2110.96 139.613 L2110.96 153.687 Q2110.96 156.858 2111.82 157.761 Q2112.7 158.664 2115.36 158.664 L2119.73 158.664 L2119.73 162.229 L2115.36 162.229 Q2110.43 162.229 2108.55 160.4 Q2106.68 158.548 2106.68 153.687 L2106.68 139.613 L2103.55 139.613 L2103.55 136.303 L2106.68 136.303 L2106.68 128.942 L2110.96 128.942 Z" fill="#000000" fill-rule="nonzero" fill-opacity="1" /><path clip-path="url(#clip210)" d="M2135.38 139.289 Q2131.96 139.289 2129.96 141.974 Q2127.97 144.636 2127.97 149.289 Q2127.97 153.942 2129.94 156.627 Q2131.93 159.289 2135.38 159.289 Q2138.78 159.289 2140.77 156.604 Q2142.77 153.918 2142.77 149.289 Q2142.77 144.682 2140.77 141.997 Q2138.78 139.289 2135.38 139.289 M2135.38 135.678 Q2140.94 135.678 2144.11 139.289 Q2147.28 142.9 2147.28 149.289 Q2147.28 155.655 2144.11 159.289 Q2140.94 162.9 2135.38 162.9 Q2129.8 162.9 2126.63 159.289 Q2123.48 155.655 2123.48 149.289 Q2123.48 142.9 2126.63 139.289 Q2129.8 135.678 2135.38 135.678 Z" fill="#000000" fill-rule="nonzero" fill-opacity="1" /><path clip-path="url(#clip210)" d="M2169.36 140.284 Q2168.64 139.868 2167.79 139.682 Q2166.95 139.474 2165.94 139.474 Q2162.33 139.474 2160.38 141.835 Q2158.46 144.173 2158.46 148.571 L2158.46 162.229 L2154.18 162.229 L2154.18 136.303 L2158.46 136.303 L2158.46 140.331 Q2159.8 137.969 2161.95 136.835 Q2164.11 135.678 2167.19 135.678 Q2167.63 135.678 2168.16 135.747 Q2168.69 135.794 2169.34 135.909 L2169.36 140.284 Z" fill="#000000" fill-rule="nonzero" fill-opacity="1" /><path clip-path="url(#clip210)" d="M2185.61 149.196 Q2180.45 149.196 2178.46 150.377 Q2176.47 151.557 2176.47 154.405 Q2176.47 156.673 2177.95 158.016 Q2179.45 159.335 2182.02 159.335 Q2185.57 159.335 2187.7 156.835 Q2189.85 154.312 2189.85 150.145 L2189.85 149.196 L2185.61 149.196 M2194.11 147.437 L2194.11 162.229 L2189.85 162.229 L2189.85 158.293 Q2188.39 160.655 2186.21 161.789 Q2184.04 162.9 2180.89 162.9 Q2176.91 162.9 2174.55 160.678 Q2172.21 158.432 2172.21 154.682 Q2172.21 150.307 2175.13 148.085 Q2178.07 145.863 2183.88 145.863 L2189.85 145.863 L2189.85 145.446 Q2189.85 142.507 2187.9 140.909 Q2185.98 139.289 2182.49 139.289 Q2180.27 139.289 2178.16 139.821 Q2176.05 140.354 2174.11 141.419 L2174.11 137.483 Q2176.45 136.581 2178.64 136.141 Q2180.84 135.678 2182.93 135.678 Q2188.55 135.678 2191.33 138.594 Q2194.11 141.511 2194.11 147.437 Z" fill="#000000" fill-rule="nonzero" fill-opacity="1" /><path clip-path="url(#clip210)" d="M2219.94 148.965 Q2219.94 144.335 2218.02 141.789 Q2216.12 139.243 2212.67 139.243 Q2209.25 139.243 2207.33 141.789 Q2205.43 144.335 2205.43 148.965 Q2205.43 153.571 2207.33 156.118 Q2209.25 158.664 2212.67 158.664 Q2216.12 158.664 2218.02 156.118 Q2219.94 153.571 2219.94 148.965 M2224.2 159.011 Q2224.2 165.631 2221.26 168.849 Q2218.32 172.09 2212.26 172.09 Q2210.01 172.09 2208.02 171.742 Q2206.03 171.418 2204.15 170.724 L2204.15 166.58 Q2206.03 167.599 2207.86 168.085 Q2209.69 168.571 2211.58 168.571 Q2215.77 168.571 2217.86 166.372 Q2219.94 164.196 2219.94 159.775 L2219.94 157.668 Q2218.62 159.96 2216.56 161.094 Q2214.5 162.229 2211.63 162.229 Q2206.86 162.229 2203.95 158.594 Q2201.03 154.96 2201.03 148.965 Q2201.03 142.946 2203.95 139.312 Q2206.86 135.678 2211.63 135.678 Q2214.5 135.678 2216.56 136.812 Q2218.62 137.946 2219.94 140.238 L2219.94 136.303 L2224.2 136.303 L2224.2 159.011 Z" fill="#000000" fill-rule="nonzero" fill-opacity="1" /><path clip-path="url(#clip210)" d="M2255.15 148.201 L2255.15 150.284 L2235.57 150.284 Q2235.84 154.682 2238.2 156.997 Q2240.59 159.289 2244.82 159.289 Q2247.28 159.289 2249.57 158.687 Q2251.89 158.085 2254.15 156.881 L2254.15 160.909 Q2251.86 161.881 2249.45 162.391 Q2247.05 162.9 2244.57 162.9 Q2238.37 162.9 2234.73 159.289 Q2231.12 155.678 2231.12 149.52 Q2231.12 143.155 2234.55 139.428 Q2238 135.678 2243.83 135.678 Q2249.06 135.678 2252.09 139.057 Q2255.15 142.414 2255.15 148.201 M2250.89 146.951 Q2250.84 143.456 2248.92 141.372 Q2247.02 139.289 2243.88 139.289 Q2240.31 139.289 2238.16 141.303 Q2236.03 143.317 2235.7 146.974 L2250.89 146.951 Z" fill="#000000" fill-rule="nonzero" fill-opacity="1" /><polyline clip-path="url(#clip210)" style="stroke:#e26f46; stroke-linecap:round; stroke-linejoin:round; stroke-width:4; stroke-opacity:1; fill:none" points="1824.94,196.789 1971.35,196.789 "/>
<path clip-path="url(#clip210)" d="M1995.75 188.143 L2000.27 188.143 L2008.37 209.902 L2016.47 188.143 L2020.98 188.143 L2011.26 214.069 L2005.47 214.069 L1995.75 188.143 Z" fill="#000000" fill-rule="nonzero" fill-opacity="1" /><path clip-path="url(#clip210)" d="M2027.51 179.509 L2045.87 179.509 L2045.87 183.444 L2031.79 183.444 L2031.79 191.916 Q2032.81 191.569 2033.83 191.407 Q2034.85 191.222 2035.87 191.222 Q2041.65 191.222 2045.03 194.393 Q2048.41 197.564 2048.41 202.981 Q2048.41 208.559 2044.94 211.661 Q2041.47 214.74 2035.15 214.74 Q2032.97 214.74 2030.71 214.37 Q2028.46 213.999 2026.05 213.258 L2026.05 208.559 Q2028.14 209.694 2030.36 210.249 Q2032.58 210.805 2035.06 210.805 Q2039.06 210.805 2041.4 208.698 Q2043.74 206.592 2043.74 202.981 Q2043.74 199.37 2041.4 197.263 Q2039.06 195.157 2035.06 195.157 Q2033.18 195.157 2031.31 195.573 Q2029.46 195.99 2027.51 196.87 L2027.51 179.509 Z" fill="#000000" fill-rule="nonzero" fill-opacity="1" /><path clip-path="url(#clip210)" d="M2066.28 197.425 L2066.28 204.647 L2074.41 204.647 L2074.41 206.846 L2066.28 206.846 L2066.28 214.069 L2063.85 214.069 L2063.85 206.846 L2055.73 206.846 L2055.73 204.647 L2063.85 204.647 L2063.85 197.425 L2066.28 197.425 Z" fill="#000000" fill-rule="nonzero" fill-opacity="1" /><path clip-path="url(#clip210)" d="M2098.58 188.907 L2098.58 192.934 Q2096.77 192.009 2094.83 191.546 Q2092.88 191.083 2090.8 191.083 Q2087.63 191.083 2086.03 192.055 Q2084.46 193.027 2084.46 194.971 Q2084.46 196.453 2085.59 197.309 Q2086.72 198.143 2090.15 198.907 L2091.61 199.231 Q2096.15 200.203 2098.04 201.985 Q2099.96 203.745 2099.96 206.916 Q2099.96 210.527 2097.09 212.633 Q2094.25 214.74 2089.25 214.74 Q2087.16 214.74 2084.9 214.323 Q2082.65 213.93 2080.15 213.12 L2080.15 208.721 Q2082.51 209.948 2084.8 210.573 Q2087.09 211.175 2089.34 211.175 Q2092.35 211.175 2093.97 210.157 Q2095.59 209.115 2095.59 207.24 Q2095.59 205.504 2094.41 204.578 Q2093.25 203.652 2089.29 202.796 L2087.81 202.448 Q2083.85 201.615 2082.09 199.902 Q2080.34 198.166 2080.34 195.157 Q2080.34 191.499 2082.93 189.509 Q2085.52 187.518 2090.29 187.518 Q2092.65 187.518 2094.73 187.865 Q2096.82 188.212 2098.58 188.907 Z" fill="#000000" fill-rule="nonzero" fill-opacity="1" /><path clip-path="url(#clip210)" d="M2110.96 180.782 L2110.96 188.143 L2119.73 188.143 L2119.73 191.453 L2110.96 191.453 L2110.96 205.527 Q2110.96 208.698 2111.82 209.601 Q2112.7 210.504 2115.36 210.504 L2119.73 210.504 L2119.73 214.069 L2115.36 214.069 Q2110.43 214.069 2108.55 212.24 Q2106.68 210.388 2106.68 205.527 L2106.68 191.453 L2103.55 191.453 L2103.55 188.143 L2106.68 188.143 L2106.68 180.782 L2110.96 180.782 Z" fill="#000000" fill-rule="nonzero" fill-opacity="1" /><path clip-path="url(#clip210)" d="M2135.38 191.129 Q2131.96 191.129 2129.96 193.814 Q2127.97 196.476 2127.97 201.129 Q2127.97 205.782 2129.94 208.467 Q2131.93 211.129 2135.38 211.129 Q2138.78 211.129 2140.77 208.444 Q2142.77 205.758 2142.77 201.129 Q2142.77 196.522 2140.77 193.837 Q2138.78 191.129 2135.38 191.129 M2135.38 187.518 Q2140.94 187.518 2144.11 191.129 Q2147.28 194.74 2147.28 201.129 Q2147.28 207.495 2144.11 211.129 Q2140.94 214.74 2135.38 214.74 Q2129.8 214.74 2126.63 211.129 Q2123.48 207.495 2123.48 201.129 Q2123.48 194.74 2126.63 191.129 Q2129.8 187.518 2135.38 187.518 Z" fill="#000000" fill-rule="nonzero" fill-opacity="1" /><path clip-path="url(#clip210)" d="M2169.36 192.124 Q2168.64 191.708 2167.79 191.522 Q2166.95 191.314 2165.94 191.314 Q2162.33 191.314 2160.38 193.675 Q2158.46 196.013 2158.46 200.411 L2158.46 214.069 L2154.18 214.069 L2154.18 188.143 L2158.46 188.143 L2158.46 192.171 Q2159.8 189.809 2161.95 188.675 Q2164.11 187.518 2167.19 187.518 Q2167.63 187.518 2168.16 187.587 Q2168.69 187.634 2169.34 187.749 L2169.36 192.124 Z" fill="#000000" fill-rule="nonzero" fill-opacity="1" /><path clip-path="url(#clip210)" d="M2185.61 201.036 Q2180.45 201.036 2178.46 202.217 Q2176.47 203.397 2176.47 206.245 Q2176.47 208.513 2177.95 209.856 Q2179.45 211.175 2182.02 211.175 Q2185.57 211.175 2187.7 208.675 Q2189.85 206.152 2189.85 201.985 L2189.85 201.036 L2185.61 201.036 M2194.11 199.277 L2194.11 214.069 L2189.85 214.069 L2189.85 210.133 Q2188.39 212.495 2186.21 213.629 Q2184.04 214.74 2180.89 214.74 Q2176.91 214.74 2174.55 212.518 Q2172.21 210.272 2172.21 206.522 Q2172.21 202.147 2175.13 199.925 Q2178.07 197.703 2183.88 197.703 L2189.85 197.703 L2189.85 197.286 Q2189.85 194.347 2187.9 192.749 Q2185.98 191.129 2182.49 191.129 Q2180.27 191.129 2178.16 191.661 Q2176.05 192.194 2174.11 193.259 L2174.11 189.323 Q2176.45 188.421 2178.64 187.981 Q2180.84 187.518 2182.93 187.518 Q2188.55 187.518 2191.33 190.434 Q2194.11 193.351 2194.11 199.277 Z" fill="#000000" fill-rule="nonzero" fill-opacity="1" /><path clip-path="url(#clip210)" d="M2219.94 200.805 Q2219.94 196.175 2218.02 193.629 Q2216.12 191.083 2212.67 191.083 Q2209.25 191.083 2207.33 193.629 Q2205.43 196.175 2205.43 200.805 Q2205.43 205.411 2207.33 207.958 Q2209.25 210.504 2212.67 210.504 Q2216.12 210.504 2218.02 207.958 Q2219.94 205.411 2219.94 200.805 M2224.2 210.851 Q2224.2 217.471 2221.26 220.689 Q2218.32 223.93 2212.26 223.93 Q2210.01 223.93 2208.02 223.582 Q2206.03 223.258 2204.15 222.564 L2204.15 218.42 Q2206.03 219.439 2207.86 219.925 Q2209.69 220.411 2211.58 220.411 Q2215.77 220.411 2217.86 218.212 Q2219.94 216.036 2219.94 211.615 L2219.94 209.508 Q2218.62 211.8 2216.56 212.934 Q2214.5 214.069 2211.63 214.069 Q2206.86 214.069 2203.95 210.434 Q2201.03 206.8 2201.03 200.805 Q2201.03 194.786 2203.95 191.152 Q2206.86 187.518 2211.63 187.518 Q2214.5 187.518 2216.56 188.652 Q2218.62 189.786 2219.94 192.078 L2219.94 188.143 L2224.2 188.143 L2224.2 210.851 Z" fill="#000000" fill-rule="nonzero" fill-opacity="1" /><path clip-path="url(#clip210)" d="M2255.15 200.041 L2255.15 202.124 L2235.57 202.124 Q2235.84 206.522 2238.2 208.837 Q2240.59 211.129 2244.82 211.129 Q2247.28 211.129 2249.57 210.527 Q2251.89 209.925 2254.15 208.721 L2254.15 212.749 Q2251.86 213.721 2249.45 214.231 Q2247.05 214.74 2244.57 214.74 Q2238.37 214.74 2234.73 211.129 Q2231.12 207.518 2231.12 201.36 Q2231.12 194.995 2234.55 191.268 Q2238 187.518 2243.83 187.518 Q2249.06 187.518 2252.09 190.897 Q2255.15 194.254 2255.15 200.041 M2250.89 198.791 Q2250.84 195.296 2248.92 193.212 Q2247.02 191.129 2243.88 191.129 Q2240.31 191.129 2238.16 193.143 Q2236.03 195.157 2235.7 198.814 L2250.89 198.791 Z" fill="#000000" fill-rule="nonzero" fill-opacity="1" /></svg>
