<?xml version="1.0" encoding="utf-8"?>
<svg xmlns="http://www.w3.org/2000/svg" xmlns:xlink="http://www.w3.org/1999/xlink" width="600" height="400" viewBox="0 0 2400 1600">
<defs>
  <clipPath id="clip100">
    <rect x="0" y="0" width="2400" height="1600"/>
  </clipPath>
</defs>
<path clip-path="url(#clip100)" d="M0 1600 L2400 1600 L2400 0 L0 0  Z" fill="#ffffff" fill-rule="evenodd" fill-opacity="1"/>
<defs>
  <clipPath id="clip101">
    <rect x="480" y="0" width="1681" height="1600"/>
  </clipPath>
</defs>
<path clip-path="url(#clip100)" d="M154.515 1423.18 L2352.76 1423.18 L2352.76 47.2441 L154.515 47.2441  Z" fill="#ffffff" fill-rule="evenodd" fill-opacity="1"/>
<defs>
  <clipPath id="clip102">
    <rect x="154" y="47" width="2199" height="1377"/>
  </clipPath>
</defs>
<polyline clip-path="url(#clip102)" style="stroke:#000000; stroke-linecap:round; stroke-linejoin:round; stroke-width:2; stroke-opacity:0.1; fill:none" points="154.515,1423.18 154.515,47.2441 "/>
<polyline clip-path="url(#clip102)" style="stroke:#000000; stroke-linecap:round; stroke-linejoin:round; stroke-width:2; stroke-opacity:0.1; fill:none" points="704.075,1423.18 704.075,47.2441 "/>
<polyline clip-path="url(#clip102)" style="stroke:#000000; stroke-linecap:round; stroke-linejoin:round; stroke-width:2; stroke-opacity:0.1; fill:none" points="1253.64,1423.18 1253.64,47.2441 "/>
<polyline clip-path="url(#clip102)" style="stroke:#000000; stroke-linecap:round; stroke-linejoin:round; stroke-width:2; stroke-opacity:0.1; fill:none" points="1803.2,1423.18 1803.2,47.2441 "/>
<polyline clip-path="url(#clip102)" style="stroke:#000000; stroke-linecap:round; stroke-linejoin:round; stroke-width:2; stroke-opacity:0.1; fill:none" points="2352.76,1423.18 2352.76,47.2441 "/>
<polyline clip-path="url(#clip102)" style="stroke:#000000; stroke-linecap:round; stroke-linejoin:round; stroke-width:2; stroke-opacity:0.1; fill:none" points="154.515,1225.66 2352.76,1225.66 "/>
<polyline clip-path="url(#clip102)" style="stroke:#000000; stroke-linecap:round; stroke-linejoin:round; stroke-width:2; stroke-opacity:0.1; fill:none" points="154.515,916.289 2352.76,916.289 "/>
<polyline clip-path="url(#clip102)" style="stroke:#000000; stroke-linecap:round; stroke-linejoin:round; stroke-width:2; stroke-opacity:0.1; fill:none" points="154.515,606.922 2352.76,606.922 "/>
<polyline clip-path="url(#clip102)" style="stroke:#000000; stroke-linecap:round; stroke-linejoin:round; stroke-width:2; stroke-opacity:0.1; fill:none" points="154.515,297.555 2352.76,297.555 "/>
<polyline clip-path="url(#clip100)" style="stroke:#000000; stroke-linecap:round; stroke-linejoin:round; stroke-width:4; stroke-opacity:1; fill:none" points="154.515,1423.18 2352.76,1423.18 "/>
<polyline clip-path="url(#clip100)" style="stroke:#000000; stroke-linecap:round; stroke-linejoin:round; stroke-width:4; stroke-opacity:1; fill:none" points="154.515,1423.18 154.515,1404.28 "/>
<polyline clip-path="url(#clip100)" style="stroke:#000000; stroke-linecap:round; stroke-linejoin:round; stroke-width:4; stroke-opacity:1; fill:none" points="704.075,1423.18 704.075,1404.28 "/>
<polyline clip-path="url(#clip100)" style="stroke:#000000; stroke-linecap:round; stroke-linejoin:round; stroke-width:4; stroke-opacity:1; fill:none" points="1253.64,1423.18 1253.64,1404.28 "/>
<polyline clip-path="url(#clip100)" style="stroke:#000000; stroke-linecap:round; stroke-linejoin:round; stroke-width:4; stroke-opacity:1; fill:none" points="1803.2,1423.18 1803.2,1404.28 "/>
<polyline clip-path="url(#clip100)" style="stroke:#000000; stroke-linecap:round; stroke-linejoin:round; stroke-width:4; stroke-opacity:1; fill:none" points="2352.76,1423.18 2352.76,1404.28 "/>
<path clip-path="url(#clip100)" d="M131.899 1454.1 Q128.288 1454.1 126.46 1457.66 Q124.654 1461.2 124.654 1468.33 Q124.654 1475.44 126.46 1479.01 Q128.288 1482.55 131.899 1482.55 Q135.534 1482.55 137.339 1479.01 Q139.168 1475.44 139.168 1468.33 Q139.168 1461.2 137.339 1457.66 Q135.534 1454.1 131.899 1454.1 M131.899 1450.39 Q137.709 1450.39 140.765 1455 Q143.844 1459.58 143.844 1468.33 Q143.844 1477.06 140.765 1481.67 Q137.709 1486.25 131.899 1486.25 Q126.089 1486.25 123.01 1481.67 Q119.955 1477.06 119.955 1468.33 Q119.955 1459.58 123.01 1455 Q126.089 1450.39 131.899 1450.39 Z" fill="#000000" fill-rule="nonzero" fill-opacity="1" /><path clip-path="url(#clip100)" d="M152.061 1479.7 L156.945 1479.7 L156.945 1485.58 L152.061 1485.58 L152.061 1479.7 Z" fill="#000000" fill-rule="nonzero" fill-opacity="1" /><path clip-path="url(#clip100)" d="M177.131 1454.1 Q173.519 1454.1 171.691 1457.66 Q169.885 1461.2 169.885 1468.33 Q169.885 1475.44 171.691 1479.01 Q173.519 1482.55 177.131 1482.55 Q180.765 1482.55 182.57 1479.01 Q184.399 1475.44 184.399 1468.33 Q184.399 1461.2 182.57 1457.66 Q180.765 1454.1 177.131 1454.1 M177.131 1450.39 Q182.941 1450.39 185.996 1455 Q189.075 1459.58 189.075 1468.33 Q189.075 1477.06 185.996 1481.67 Q182.941 1486.25 177.131 1486.25 Q171.32 1486.25 168.242 1481.67 Q165.186 1477.06 165.186 1468.33 Q165.186 1459.58 168.242 1455 Q171.32 1450.39 177.131 1450.39 Z" fill="#000000" fill-rule="nonzero" fill-opacity="1" /><path clip-path="url(#clip100)" d="M681.957 1454.1 Q678.346 1454.1 676.517 1457.66 Q674.712 1461.2 674.712 1468.33 Q674.712 1475.44 676.517 1479.01 Q678.346 1482.55 681.957 1482.55 Q685.591 1482.55 687.397 1479.01 Q689.226 1475.44 689.226 1468.33 Q689.226 1461.2 687.397 1457.66 Q685.591 1454.1 681.957 1454.1 M681.957 1450.39 Q687.767 1450.39 690.823 1455 Q693.902 1459.58 693.902 1468.33 Q693.902 1477.06 690.823 1481.67 Q687.767 1486.25 681.957 1486.25 Q676.147 1486.25 673.068 1481.67 Q670.013 1477.06 670.013 1468.33 Q670.013 1459.58 673.068 1455 Q676.147 1450.39 681.957 1450.39 Z" fill="#000000" fill-rule="nonzero" fill-opacity="1" /><path clip-path="url(#clip100)" d="M702.119 1479.7 L707.003 1479.7 L707.003 1485.58 L702.119 1485.58 L702.119 1479.7 Z" fill="#000000" fill-rule="nonzero" fill-opacity="1" /><path clip-path="url(#clip100)" d="M717.235 1451.02 L735.591 1451.02 L735.591 1454.96 L721.517 1454.96 L721.517 1463.43 Q722.536 1463.08 723.554 1462.92 Q724.573 1462.73 725.591 1462.73 Q731.378 1462.73 734.758 1465.9 Q738.137 1469.08 738.137 1474.49 Q738.137 1480.07 734.665 1483.17 Q731.193 1486.25 724.874 1486.25 Q722.698 1486.25 720.429 1485.88 Q718.184 1485.51 715.776 1484.77 L715.776 1480.07 Q717.86 1481.2 720.082 1481.76 Q722.304 1482.32 724.781 1482.32 Q728.786 1482.32 731.124 1480.21 Q733.462 1478.1 733.462 1474.49 Q733.462 1470.88 731.124 1468.77 Q728.786 1466.67 724.781 1466.67 Q722.906 1466.67 721.031 1467.08 Q719.179 1467.5 717.235 1468.38 L717.235 1451.02 Z" fill="#000000" fill-rule="nonzero" fill-opacity="1" /><path clip-path="url(#clip100)" d="M1220.79 1481.64 L1228.43 1481.64 L1228.43 1455.28 L1220.12 1456.95 L1220.12 1452.69 L1228.38 1451.02 L1233.06 1451.02 L1233.06 1481.64 L1240.7 1481.64 L1240.7 1485.58 L1220.79 1485.58 L1220.79 1481.64 Z" fill="#000000" fill-rule="nonzero" fill-opacity="1" /><path clip-path="url(#clip100)" d="M1250.14 1479.7 L1255.02 1479.7 L1255.02 1485.58 L1250.14 1485.58 L1250.14 1479.7 Z" fill="#000000" fill-rule="nonzero" fill-opacity="1" /><path clip-path="url(#clip100)" d="M1275.21 1454.1 Q1271.6 1454.1 1269.77 1457.66 Q1267.96 1461.2 1267.96 1468.33 Q1267.96 1475.44 1269.77 1479.01 Q1271.6 1482.55 1275.21 1482.55 Q1278.84 1482.55 1280.65 1479.01 Q1282.48 1475.44 1282.48 1468.33 Q1282.48 1461.2 1280.65 1457.66 Q1278.84 1454.1 1275.21 1454.1 M1275.21 1450.39 Q1281.02 1450.39 1284.08 1455 Q1287.15 1459.58 1287.15 1468.33 Q1287.15 1477.06 1284.08 1481.67 Q1281.02 1486.25 1275.21 1486.25 Q1269.4 1486.25 1266.32 1481.67 Q1263.26 1477.06 1263.26 1468.33 Q1263.26 1459.58 1266.32 1455 Q1269.4 1450.39 1275.21 1450.39 Z" fill="#000000" fill-rule="nonzero" fill-opacity="1" /><path clip-path="url(#clip100)" d="M1770.85 1481.64 L1778.49 1481.64 L1778.49 1455.28 L1770.18 1456.95 L1770.18 1452.69 L1778.44 1451.02 L1783.11 1451.02 L1783.11 1481.64 L1790.75 1481.64 L1790.75 1485.58 L1770.85 1485.58 L1770.85 1481.64 Z" fill="#000000" fill-rule="nonzero" fill-opacity="1" /><path clip-path="url(#clip100)" d="M1800.2 1479.7 L1805.08 1479.7 L1805.08 1485.58 L1800.2 1485.58 L1800.2 1479.7 Z" fill="#000000" fill-rule="nonzero" fill-opacity="1" /><path clip-path="url(#clip100)" d="M1815.31 1451.02 L1833.67 1451.02 L1833.67 1454.96 L1819.6 1454.96 L1819.6 1463.43 Q1820.61 1463.08 1821.63 1462.92 Q1822.65 1462.73 1823.67 1462.73 Q1829.46 1462.73 1832.84 1465.9 Q1836.22 1469.08 1836.22 1474.49 Q1836.22 1480.07 1832.74 1483.17 Q1829.27 1486.25 1822.95 1486.25 Q1820.78 1486.25 1818.51 1485.88 Q1816.26 1485.51 1813.86 1484.77 L1813.86 1480.07 Q1815.94 1481.2 1818.16 1481.76 Q1820.38 1482.32 1822.86 1482.32 Q1826.86 1482.32 1829.2 1480.21 Q1831.54 1478.1 1831.54 1474.49 Q1831.54 1470.88 1829.2 1468.77 Q1826.86 1466.67 1822.86 1466.67 Q1820.98 1466.67 1819.11 1467.08 Q1817.26 1467.5 1815.31 1468.38 L1815.31 1451.02 Z" fill="#000000" fill-rule="nonzero" fill-opacity="1" /><path clip-path="url(#clip100)" d="M2323.99 1481.64 L2340.31 1481.64 L2340.31 1485.58 L2318.37 1485.58 L2318.37 1481.64 Q2321.03 1478.89 2325.61 1474.26 Q2330.22 1469.61 2331.4 1468.27 Q2333.65 1465.74 2334.53 1464.01 Q2335.43 1462.25 2335.43 1460.56 Q2335.43 1457.8 2333.49 1456.07 Q2331.56 1454.33 2328.46 1454.33 Q2326.26 1454.33 2323.81 1455.09 Q2321.38 1455.86 2318.6 1457.41 L2318.6 1452.69 Q2321.43 1451.55 2323.88 1450.97 Q2326.33 1450.39 2328.37 1450.39 Q2333.74 1450.39 2336.93 1453.08 Q2340.13 1455.77 2340.13 1460.26 Q2340.13 1462.39 2339.32 1464.31 Q2338.53 1466.2 2336.42 1468.8 Q2335.85 1469.47 2332.74 1472.69 Q2329.64 1475.88 2323.99 1481.64 Z" fill="#000000" fill-rule="nonzero" fill-opacity="1" /><path clip-path="url(#clip100)" d="M2350.13 1479.7 L2355.01 1479.7 L2355.01 1485.58 L2350.13 1485.58 L2350.13 1479.7 Z" fill="#000000" fill-rule="nonzero" fill-opacity="1" /><path clip-path="url(#clip100)" d="M2375.2 1454.1 Q2371.59 1454.1 2369.76 1457.66 Q2367.95 1461.2 2367.95 1468.33 Q2367.95 1475.44 2369.76 1479.01 Q2371.59 1482.55 2375.2 1482.55 Q2378.83 1482.55 2380.64 1479.01 Q2382.47 1475.44 2382.47 1468.33 Q2382.47 1461.2 2380.64 1457.66 Q2378.83 1454.1 2375.2 1454.1 M2375.2 1450.39 Q2381.01 1450.39 2384.06 1455 Q2387.14 1459.58 2387.14 1468.33 Q2387.14 1477.06 2384.06 1481.67 Q2381.01 1486.25 2375.2 1486.25 Q2369.39 1486.25 2366.31 1481.67 Q2363.25 1477.06 2363.25 1468.33 Q2363.25 1459.58 2366.31 1455 Q2369.39 1450.39 2375.2 1450.39 Z" fill="#000000" fill-rule="nonzero" fill-opacity="1" /><path clip-path="url(#clip100)" d="M1252.7 1522.27 L1252.7 1532.4 L1264.76 1532.4 L1264.76 1536.95 L1252.7 1536.95 L1252.7 1556.3 Q1252.7 1560.66 1253.87 1561.9 Q1255.08 1563.14 1258.74 1563.14 L1264.76 1563.14 L1264.76 1568.04 L1258.74 1568.04 Q1251.96 1568.04 1249.39 1565.53 Q1246.81 1562.98 1246.81 1556.3 L1246.81 1536.95 L1242.51 1536.95 L1242.51 1532.4 L1246.81 1532.4 L1246.81 1522.27 L1252.7 1522.27 Z" fill="#000000" fill-rule="nonzero" fill-opacity="1" /><polyline clip-path="url(#clip100)" style="stroke:#000000; stroke-linecap:round; stroke-linejoin:round; stroke-width:4; stroke-opacity:1; fill:none" points="154.515,1423.18 154.515,47.2441 "/>
<polyline clip-path="url(#clip100)" style="stroke:#000000; stroke-linecap:round; stroke-linejoin:round; stroke-width:4; stroke-opacity:1; fill:none" points="154.515,1225.66 173.413,1225.66 "/>
<polyline clip-path="url(#clip100)" style="stroke:#000000; stroke-linecap:round; stroke-linejoin:round; stroke-width:4; stroke-opacity:1; fill:none" points="154.515,916.289 173.413,916.289 "/>
<polyline clip-path="url(#clip100)" style="stroke:#000000; stroke-linecap:round; stroke-linejoin:round; stroke-width:4; stroke-opacity:1; fill:none" points="154.515,606.922 173.413,606.922 "/>
<polyline clip-path="url(#clip100)" style="stroke:#000000; stroke-linecap:round; stroke-linejoin:round; stroke-width:4; stroke-opacity:1; fill:none" points="154.515,297.555 173.413,297.555 "/>
<path clip-path="url(#clip100)" d="M53.7467 1239 L61.3856 1239 L61.3856 1212.64 L53.0754 1214.3 L53.0754 1210.04 L61.3393 1208.38 L66.0152 1208.38 L66.0152 1239 L73.654 1239 L73.654 1242.94 L53.7467 1242.94 L53.7467 1239 Z" fill="#000000" fill-rule="nonzero" fill-opacity="1" /><path clip-path="url(#clip100)" d="M83.0984 1237.06 L87.9827 1237.06 L87.9827 1242.94 L83.0984 1242.94 L83.0984 1237.06 Z" fill="#000000" fill-rule="nonzero" fill-opacity="1" /><path clip-path="url(#clip100)" d="M102.196 1239 L118.515 1239 L118.515 1242.94 L96.5706 1242.94 L96.5706 1239 Q99.2326 1236.25 103.816 1231.62 Q108.422 1226.96 109.603 1225.62 Q111.848 1223.1 112.728 1221.36 Q113.631 1219.6 113.631 1217.91 Q113.631 1215.16 111.686 1213.42 Q109.765 1211.69 106.663 1211.69 Q104.464 1211.69 102.01 1212.45 Q99.5798 1213.21 96.8021 1214.77 L96.8021 1210.04 Q99.6261 1208.91 102.08 1208.33 Q104.534 1207.75 106.571 1207.75 Q111.941 1207.75 115.135 1210.44 Q118.33 1213.12 118.33 1217.61 Q118.33 1219.74 117.52 1221.66 Q116.733 1223.56 114.626 1226.15 Q114.047 1226.83 110.946 1230.04 Q107.844 1233.24 102.196 1239 Z" fill="#000000" fill-rule="nonzero" fill-opacity="1" /><path clip-path="url(#clip100)" d="M51.6634 929.634 L59.3023 929.634 L59.3023 903.269 L50.9921 904.935 L50.9921 900.676 L59.256 899.009 L63.9319 899.009 L63.9319 929.634 L71.5707 929.634 L71.5707 933.569 L51.6634 933.569 L51.6634 929.634 Z" fill="#000000" fill-rule="nonzero" fill-opacity="1" /><path clip-path="url(#clip100)" d="M81.0151 927.69 L85.8993 927.69 L85.8993 933.569 L81.0151 933.569 L81.0151 927.69 Z" fill="#000000" fill-rule="nonzero" fill-opacity="1" /><path clip-path="url(#clip100)" d="M108.932 903.083 L97.1261 921.532 L108.932 921.532 L108.932 903.083 M107.705 899.009 L113.584 899.009 L113.584 921.532 L118.515 921.532 L118.515 925.421 L113.584 925.421 L113.584 933.569 L108.932 933.569 L108.932 925.421 L93.3299 925.421 L93.3299 920.907 L107.705 899.009 Z" fill="#000000" fill-rule="nonzero" fill-opacity="1" /><path clip-path="url(#clip100)" d="M51.9875 620.267 L59.6263 620.267 L59.6263 593.901 L51.3162 595.568 L51.3162 591.309 L59.58 589.642 L64.2559 589.642 L64.2559 620.267 L71.8948 620.267 L71.8948 624.202 L51.9875 624.202 L51.9875 620.267 Z" fill="#000000" fill-rule="nonzero" fill-opacity="1" /><path clip-path="url(#clip100)" d="M81.3392 618.322 L86.2234 618.322 L86.2234 624.202 L81.3392 624.202 L81.3392 618.322 Z" fill="#000000" fill-rule="nonzero" fill-opacity="1" /><path clip-path="url(#clip100)" d="M106.987 605.059 Q103.839 605.059 101.987 607.211 Q100.159 609.364 100.159 613.114 Q100.159 616.841 101.987 619.017 Q103.839 621.17 106.987 621.17 Q110.135 621.17 111.964 619.017 Q113.816 616.841 113.816 613.114 Q113.816 609.364 111.964 607.211 Q110.135 605.059 106.987 605.059 M116.27 590.406 L116.27 594.665 Q114.51 593.832 112.705 593.392 Q110.922 592.952 109.163 592.952 Q104.534 592.952 102.08 596.077 Q99.6493 599.202 99.3021 605.522 Q100.668 603.508 102.728 602.443 Q104.788 601.355 107.265 601.355 Q112.473 601.355 115.483 604.526 Q118.515 607.674 118.515 613.114 Q118.515 618.438 115.367 621.656 Q112.219 624.873 106.987 624.873 Q100.992 624.873 97.8206 620.29 Q94.6493 615.684 94.6493 606.957 Q94.6493 598.762 98.5382 593.901 Q102.427 589.017 108.978 589.017 Q110.737 589.017 112.52 589.364 Q114.325 589.712 116.27 590.406 Z" fill="#000000" fill-rule="nonzero" fill-opacity="1" /><path clip-path="url(#clip100)" d="M52.2421 310.9 L59.881 310.9 L59.881 284.534 L51.5708 286.201 L51.5708 281.941 L59.8347 280.275 L64.5106 280.275 L64.5106 310.9 L72.1494 310.9 L72.1494 314.835 L52.2421 314.835 L52.2421 310.9 Z" fill="#000000" fill-rule="nonzero" fill-opacity="1" /><path clip-path="url(#clip100)" d="M81.5938 308.955 L86.478 308.955 L86.478 314.835 L81.5938 314.835 L81.5938 308.955 Z" fill="#000000" fill-rule="nonzero" fill-opacity="1" /><path clip-path="url(#clip100)" d="M106.663 298.423 Q103.33 298.423 101.409 300.205 Q99.5104 301.988 99.5104 305.113 Q99.5104 308.238 101.409 310.02 Q103.33 311.802 106.663 311.802 Q109.996 311.802 111.918 310.02 Q113.839 308.214 113.839 305.113 Q113.839 301.988 111.918 300.205 Q110.02 298.423 106.663 298.423 M101.987 296.432 Q98.978 295.691 97.2882 293.631 Q95.6215 291.571 95.6215 288.608 Q95.6215 284.465 98.5613 282.057 Q101.524 279.65 106.663 279.65 Q111.825 279.65 114.765 282.057 Q117.705 284.465 117.705 288.608 Q117.705 291.571 116.015 293.631 Q114.348 295.691 111.362 296.432 Q114.742 297.219 116.617 299.511 Q118.515 301.802 118.515 305.113 Q118.515 310.136 115.436 312.821 Q112.381 315.506 106.663 315.506 Q100.946 315.506 97.8669 312.821 Q94.8113 310.136 94.8113 305.113 Q94.8113 301.802 96.7095 299.511 Q98.6076 297.219 101.987 296.432 M100.274 289.048 Q100.274 291.733 101.941 293.238 Q103.631 294.742 106.663 294.742 Q109.672 294.742 111.362 293.238 Q113.075 291.733 113.075 289.048 Q113.075 286.363 111.362 284.858 Q109.672 283.353 106.663 283.353 Q103.631 283.353 101.941 284.858 Q100.274 286.363 100.274 289.048 Z" fill="#000000" fill-rule="nonzero" fill-opacity="1" /><polyline clip-path="url(#clip102)" style="stroke:#009af9; stroke-linecap:round; stroke-linejoin:round; stroke-width:4; stroke-opacity:1; fill:none" points="154.515,86.1857 156.715,99.115 158.916,111.916 161.116,124.589 163.317,137.135 165.517,149.557 167.718,161.856 169.918,174.031 172.118,186.086 174.319,198.02 176.519,209.835 178.72,221.533 180.92,233.114 183.121,244.58 185.321,255.932 187.522,267.17 189.722,278.297 191.922,289.313 194.123,300.219 196.323,311.017 198.524,321.707 200.724,332.29 202.925,342.768 205.125,353.142 207.326,363.412 209.526,373.581 211.726,383.648 213.927,393.614 216.127,403.482 218.328,413.251 220.528,422.922 222.729,432.498 224.929,441.978 227.129,451.364 229.33,460.656 231.53,469.855 233.731,478.963 235.931,487.98 238.132,496.908 240.332,505.746 242.533,514.497 244.733,523.16 246.933,531.737 249.134,540.228 251.334,548.635 253.535,556.959 255.735,565.199 257.936,573.357 260.136,581.434 262.337,589.431 264.537,597.348 266.737,605.186 268.938,612.946 271.138,620.629 273.339,628.235 275.539,635.766 277.74,643.221 279.94,650.602 282.141,657.91 284.341,665.145 286.541,672.308 288.742,679.4 290.942,686.421 293.143,693.372 295.343,700.254 297.544,707.067 299.744,713.812 301.944,720.49 304.145,727.102 306.345,733.648 308.546,740.128 310.746,746.544 312.947,752.896 315.147,759.185 317.348,765.411 319.548,771.575 321.748,777.678 323.949,783.72 326.149,789.701 328.35,795.624 330.55,801.487 332.751,807.292 334.951,813.038 337.152,818.728 339.352,824.361 341.552,829.938 343.753,835.46 345.953,840.926 348.154,846.338 350.354,851.696 352.555,857.001 354.755,862.253 356.956,867.453 359.156,872.601 361.356,877.698 363.557,882.744 365.757,887.74 367.958,892.686 370.158,897.583 372.359,902.431 374.559,907.231 376.759,911.983 378.96,916.687 381.16,921.345 383.361,925.956 385.561,930.522 387.762,935.042 389.962,939.516 392.163,943.947 394.363,948.333 396.563,952.675 398.764,956.974 400.964,961.23 403.165,965.444 405.365,969.615 407.566,973.745 409.766,977.834 411.967,981.883 414.167,985.891 416.367,989.859 418.568,993.787 420.768,997.676 422.969,1001.53 425.169,1005.34 427.37,1009.11 429.57,1012.85 431.771,1016.55 433.971,1020.21 436.171,1023.84 438.372,1027.43 440.572,1030.98 442.773,1034.5 444.973,1037.99 447.174,1041.43 449.374,1044.85 451.575,1048.23 453.775,1051.58 455.975,1054.89 458.176,1058.17 460.376,1061.42 462.577,1064.64 464.777,1067.82 466.978,1070.97 469.178,1074.09 471.378,1077.18 473.579,1080.24 475.779,1083.27 477.98,1086.27 480.18,1089.24 482.381,1092.18 484.581,1095.09 486.782,1097.97 488.982,1100.82 491.182,1103.65 493.383,1106.44 495.583,1109.21 497.784,1111.95 499.984,1114.66 502.185,1117.35 504.385,1120.01 506.586,1122.64 508.786,1125.25 510.986,1127.83 513.187,1130.38 515.387,1132.91 517.588,1135.41 519.788,1137.89 521.989,1140.35 524.189,1142.78 526.39,1145.18 528.59,1147.56 530.79,1149.92 532.991,1152.26 535.191,1154.57 537.392,1156.85 539.592,1159.12 541.793,1161.36 543.993,1163.58 546.193,1165.78 548.394,1167.96 550.594,1170.11 552.795,1172.24 554.995,1174.36 557.196,1176.45 559.396,1178.52 561.597,1180.57 563.797,1182.59 565.997,1184.6 568.198,1186.59 570.398,1188.56 572.599,1190.51 574.799,1192.44 577,1194.35 579.2,1196.24 581.401,1198.12 583.601,1199.97 585.801,1201.81 588.002,1203.62 590.202,1205.42 592.403,1207.21 594.603,1208.97 596.804,1210.72 599.004,1212.45 601.205,1214.16 603.405,1215.85 605.605,1217.53 607.806,1219.19 610.006,1220.84 612.207,1222.47 614.407,1224.08 616.608,1225.68 618.808,1227.26 621.008,1228.82 623.209,1230.37 625.409,1231.91 627.61,1233.42 629.81,1234.93 632.011,1236.42 634.211,1237.89 636.412,1239.35 638.612,1240.79 640.812,1242.22 643.013,1243.64 645.213,1245.04 647.414,1246.42 649.614,1247.8 651.815,1249.16 654.015,1250.5 656.216,1251.84 658.416,1253.16 660.616,1254.46 662.817,1255.75 665.017,1257.03 667.218,1258.3 669.418,1259.56 671.619,1260.8 673.819,1262.03 676.02,1263.25 678.22,1264.45 680.42,1265.64 682.621,1266.83 684.821,1268 687.022,1269.15 689.222,1270.3 691.423,1271.43 693.623,1272.56 695.824,1273.67 698.024,1274.77 700.224,1275.86 702.425,1276.94 704.625,1278.01 706.826,1279.07 709.026,1280.12 711.227,1281.15 713.427,1282.18 715.627,1283.2 717.828,1284.2 720.028,1285.2 722.229,1286.19 724.429,1287.16 726.63,1288.13 728.83,1289.09 731.031,1290.04 733.231,1290.98 735.431,1291.9 737.632,1292.82 739.832,1293.74 742.033,1294.64 744.233,1295.53 746.434,1296.42 748.634,1297.29 750.835,1298.16 753.035,1299.02 755.235,1299.87 757.436,1300.71 759.636,1301.54 761.837,1302.37 764.037,1303.18 766.238,1303.99 768.438,1304.79 770.639,1305.59 772.839,1306.37 775.039,1307.15 777.24,1307.92 779.44,1308.68 781.641,1309.43 783.841,1310.18 786.042,1310.92 788.242,1311.65 790.442,1312.37 792.643,1313.09 794.843,1313.8 797.044,1314.5 799.244,1315.2 801.445,1315.89 803.645,1316.57 805.846,1317.24 808.046,1317.91 810.246,1318.57 812.447,1319.23 814.647,1319.88 816.848,1320.52 819.048,1321.15 821.249,1321.78 823.449,1322.41 825.65,1323.02 827.85,1323.63 830.05,1324.24 832.251,1324.83 834.451,1325.43 836.652,1326.01 838.852,1326.59 841.053,1327.17 843.253,1327.74 845.454,1328.3 847.654,1328.86 849.854,1329.41 852.055,1329.95 854.255,1330.49 856.456,1331.03 858.656,1331.56 860.857,1332.08 863.057,1332.6 865.257,1333.12 867.458,1333.63 869.658,1334.13 871.859,1334.63 874.059,1335.12 876.26,1335.61 878.46,1336.1 880.661,1336.58 882.861,1337.05 885.061,1337.52 887.262,1337.99 889.462,1338.45 891.663,1338.9 893.863,1339.36 896.064,1339.8 898.264,1340.25 900.465,1340.68 902.665,1341.12 904.865,1341.55 907.066,1341.97 909.266,1342.39 911.467,1342.81 913.667,1343.23 915.868,1343.63 918.068,1344.04 920.269,1344.44 922.469,1344.84 924.669,1345.23 926.87,1345.62 929.07,1346.01 931.271,1346.39 933.471,1346.77 935.672,1347.14 937.872,1347.51 940.073,1347.88 942.273,1348.24 944.473,1348.6 946.674,1348.96 948.874,1349.31 951.075,1349.66 953.275,1350 955.476,1350.35 957.676,1350.69 959.876,1351.02 962.077,1351.35 964.277,1351.68 966.478,1352.01 968.678,1352.33 970.879,1352.65 973.079,1352.97 975.28,1353.28 977.48,1353.59 979.68,1353.9 981.881,1354.2 984.081,1354.5 986.282,1354.8 988.482,1355.09 990.683,1355.38 992.883,1355.67 995.084,1355.96 997.284,1356.24 999.484,1356.52 1001.68,1356.8 1003.89,1357.07 1006.09,1357.34 1008.29,1357.61 1010.49,1357.88 1012.69,1358.14 1014.89,1358.4 1017.09,1358.66 1019.29,1358.91 1021.49,1359.17 1023.69,1359.42 1025.89,1359.67 1028.09,1359.91 1030.29,1360.15 1032.49,1360.39 1034.69,1360.63 1036.89,1360.87 1039.09,1361.1 1041.29,1361.33 1043.49,1361.56 1045.69,1361.79 1047.89,1362.01 1050.09,1362.23 1052.3,1362.45 1054.5,1362.67 1056.7,1362.88 1058.9,1363.09 1061.1,1363.31 1063.3,1363.51 1065.5,1363.72 1067.7,1363.92 1069.9,1364.13 1072.1,1364.33 1074.3,1364.53 1076.5,1364.72 1078.7,1364.92 1080.9,1365.11 1083.1,1365.3 1085.3,1365.49 1087.5,1365.67 1089.7,1365.86 1091.9,1366.04 1094.1,1366.22 1096.3,1366.4 1098.5,1366.58 1100.7,1366.76 1102.91,1366.93 1105.11,1367.1 1107.31,1367.27 1109.51,1367.44 1111.71,1367.61 1113.91,1367.78 1116.11,1367.94 1118.31,1368.1 1120.51,1368.26 1122.71,1368.42 1124.91,1368.58 1127.11,1368.74 1129.31,1368.89 1131.51,1369.04 1133.71,1369.2 1135.91,1369.35 1138.11,1369.5 1140.31,1369.64 1142.51,1369.79 1144.71,1369.94 1146.91,1370.08 1149.11,1370.22 1151.31,1370.36 1153.52,1370.5 1155.72,1370.64 1157.92,1370.77 1160.12,1370.91 1162.32,1371.04 1164.52,1371.18 1166.72,1371.31 1168.92,1371.44 1171.12,1371.57 1173.32,1371.69 1175.52,1371.82 1177.72,1371.95 1179.92,1372.07 1182.12,1372.19 1184.32,1372.31 1186.52,1372.43 1188.72,1372.55 1190.92,1372.67 1193.12,1372.79 1195.32,1372.9 1197.52,1373.02 1199.72,1373.13 1201.93,1373.24 1204.13,1373.35 1206.33,1373.46 1208.53,1373.57 1210.73,1373.68 1212.93,1373.78 1215.13,1373.89 1217.33,1373.99 1219.53,1374.1 1221.73,1374.2 1223.93,1374.3 1226.13,1374.4 1228.33,1374.5 1230.53,1374.6 1232.73,1374.69 1234.93,1374.79 1237.13,1374.88 1239.33,1374.98 1241.53,1375.07 1243.73,1375.16 1245.93,1375.25 1248.13,1375.34 1250.33,1375.43 1252.54,1375.52 1254.74,1375.61 1256.94,1375.7 1259.14,1375.78 1261.34,1375.87 1263.54,1375.95 1265.74,1376.03 1267.94,1376.12 1270.14,1376.2 1272.34,1376.28 1274.54,1376.36 1276.74,1376.44 1278.94,1376.51 1281.14,1376.59 1283.34,1376.67 1285.54,1376.74 1287.74,1376.82 1289.94,1376.89 1292.14,1376.97 1294.34,1377.04 1296.54,1377.11 1298.74,1377.18 1300.94,1377.25 1303.15,1377.32 1305.35,1377.39 1307.55,1377.46 1309.75,1377.53 1311.95,1377.59 1314.15,1377.66 1316.35,1377.73 1318.55,1377.79 1320.75,1377.85 1322.95,1377.92 1325.15,1377.98 1327.35,1378.04 1329.55,1378.1 1331.75,1378.17 1333.95,1378.23 1336.15,1378.29 1338.35,1378.35 1340.55,1378.4 1342.75,1378.46 1344.95,1378.52 1347.15,1378.58 1349.35,1378.63 1351.56,1378.69 1353.76,1378.74 1355.96,1378.8 1358.16,1378.85 1360.36,1378.91 1362.56,1378.96 1364.76,1379.01 1366.96,1379.07 1369.16,1379.12 1371.36,1379.17 1373.56,1379.22 1375.76,1379.27 1377.96,1379.32 1380.16,1379.37 1382.36,1379.42 1384.56,1379.47 1386.76,1379.51 1388.96,1379.56 1391.16,1379.61 1393.36,1379.66 1395.56,1379.7 1397.76,1379.75 1399.96,1379.79 1402.17,1379.84 1404.37,1379.88 1406.57,1379.93 1408.77,1379.97 1410.97,1380.02 1413.17,1380.06 1415.37,1380.1 1417.57,1380.14 1419.77,1380.19 1421.97,1380.23 1424.17,1380.27 1426.37,1380.31 1428.57,1380.35 1430.77,1380.39 1432.97,1380.43 1435.17,1380.47 1437.37,1380.51 1439.57,1380.54 1441.77,1380.58 1443.97,1380.62 1446.17,1380.66 1448.37,1380.69 1450.57,1380.73 1452.78,1380.77 1454.98,1380.8 1457.18,1380.84 1459.38,1380.87 1461.58,1380.91 1463.78,1380.94 1465.98,1380.97 1468.18,1381.01 1470.38,1381.04 1472.58,1381.07 1474.78,1381.11 1476.98,1381.14 1479.18,1381.17 1481.38,1381.2 1483.58,1381.23 1485.78,1381.27 1487.98,1381.3 1490.18,1381.33 1492.38,1381.36 1494.58,1381.39 1496.78,1381.42 1498.98,1381.44 1501.19,1381.47 1503.39,1381.5 1505.59,1381.53 1507.79,1381.56 1509.99,1381.59 1512.19,1381.61 1514.39,1381.64 1516.59,1381.67 1518.79,1381.69 1520.99,1381.72 1523.19,1381.74 1525.39,1381.77 1527.59,1381.8 1529.79,1381.82 1531.99,1381.85 1534.19,1381.87 1536.39,1381.89 1538.59,1381.92 1540.79,1381.94 1542.99,1381.97 1545.19,1381.99 1547.39,1382.01 1549.59,1382.03 1551.8,1382.06 1554,1382.08 1556.2,1382.1 1558.4,1382.12 1560.6,1382.14 1562.8,1382.17 1565,1382.19 1567.2,1382.21 1569.4,1382.23 1571.6,1382.25 1573.8,1382.27 1576,1382.29 1578.2,1382.31 1580.4,1382.33 1582.6,1382.35 1584.8,1382.37 1587,1382.38 1589.2,1382.4 1591.4,1382.42 1593.6,1382.44 1595.8,1382.46 1598,1382.48 1600.2,1382.49 1602.41,1382.51 1604.61,1382.53 1606.81,1382.55 1609.01,1382.56 1611.21,1382.58 1613.41,1382.6 1615.61,1382.61 1617.81,1382.63 1620.01,1382.64 1622.21,1382.66 1624.41,1382.68 1626.61,1382.69 1628.81,1382.71 1631.01,1382.72 1633.21,1382.74 1635.41,1382.75 1637.61,1382.77 1639.81,1382.78 1642.01,1382.8 1644.21,1382.81 1646.41,1382.83 1648.61,1382.84 1650.82,1382.85 1653.02,1382.87 1655.22,1382.88 1657.42,1382.9 1659.62,1382.91 1661.82,1382.92 1664.02,1382.94 1666.22,1382.95 1668.42,1382.96 1670.62,1382.98 1672.82,1382.99 1675.02,1383 1677.22,1383.01 1679.42,1383.03 1681.62,1383.04 1683.82,1383.05 1686.02,1383.06 1688.22,1383.08 1690.42,1383.09 1692.62,1383.1 1694.82,1383.11 1697.02,1383.12 1699.22,1383.14 1701.43,1383.15 1703.63,1383.16 1705.83,1383.17 1708.03,1383.18 1710.23,1383.19 1712.43,1383.21 1714.63,1383.22 1716.83,1383.23 1719.03,1383.24 1721.23,1383.25 1723.43,1383.26 1725.63,1383.27 1727.83,1383.28 1730.03,1383.29 1732.23,1383.3 1734.43,1383.31 1736.63,1383.32 1738.83,1383.33 1741.03,1383.34 1743.23,1383.35 1745.43,1383.36 1747.63,1383.37 1749.83,1383.38 1752.04,1383.39 1754.24,1383.4 1756.44,1383.41 1758.64,1383.42 1760.84,1383.43 1763.04,1383.44 1765.24,1383.45 1767.44,1383.45 1769.64,1383.46 1771.84,1383.47 1774.04,1383.48 1776.24,1383.49 1778.44,1383.5 1780.64,1383.51 1782.84,1383.51 1785.04,1383.52 1787.24,1383.53 1789.44,1383.54 1791.64,1383.55 1793.84,1383.55 1796.04,1383.56 1798.24,1383.57 1800.45,1383.58 1802.65,1383.58 1804.85,1383.59 1807.05,1383.6 1809.25,1383.61 1811.45,1383.61 1813.65,1383.62 1815.85,1383.63 1818.05,1383.63 1820.25,1383.64 1822.45,1383.65 1824.65,1383.65 1826.85,1383.66 1829.05,1383.67 1831.25,1383.67 1833.45,1383.68 1835.65,1383.69 1837.85,1383.69 1840.05,1383.7 1842.25,1383.71 1844.45,1383.71 1846.65,1383.72 1848.85,1383.72 1851.06,1383.73 1853.26,1383.74 1855.46,1383.74 1857.66,1383.75 1859.86,1383.75 1862.06,1383.76 1864.26,1383.76 1866.46,1383.77 1868.66,1383.77 1870.86,1383.78 1873.06,1383.78 1875.26,1383.79 1877.46,1383.79 1879.66,1383.8 1881.86,1383.8 1884.06,1383.81 1886.26,1383.81 1888.46,1383.82 1890.66,1383.82 1892.86,1383.83 1895.06,1383.83 1897.26,1383.84 1899.46,1383.84 1901.67,1383.85 1903.87,1383.85 1906.07,1383.86 1908.27,1383.86 1910.47,1383.86 1912.67,1383.87 1914.87,1383.87 1917.07,1383.88 1919.27,1383.88 1921.47,1383.88 1923.67,1383.89 1925.87,1383.89 1928.07,1383.9 1930.27,1383.9 1932.47,1383.9 1934.67,1383.91 1936.87,1383.91 1939.07,1383.91 1941.27,1383.92 1943.47,1383.92 1945.67,1383.92 1947.87,1383.93 1950.08,1383.93 1952.28,1383.93 1954.48,1383.94 1956.68,1383.94 1958.88,1383.94 1961.08,1383.95 1963.28,1383.95 1965.48,1383.95 1967.68,1383.96 1969.88,1383.96 1972.08,1383.96 1974.28,1383.97 1976.48,1383.97 1978.68,1383.97 1980.88,1383.98 1983.08,1383.98 1985.28,1383.98 1987.48,1383.98 1989.68,1383.99 1991.88,1383.99 1994.08,1383.99 1996.28,1383.99 1998.48,1384 2000.69,1384 2002.89,1384 2005.09,1384.01 2007.29,1384.01 2009.49,1384.01 2011.69,1384.01 2013.89,1384.02 2016.09,1384.02 2018.29,1384.02 2020.49,1384.02 2022.69,1384.03 2024.89,1384.03 2027.09,1384.03 2029.29,1384.03 2031.49,1384.04 2033.69,1384.04 2035.89,1384.04 2038.09,1384.04 2040.29,1384.05 2042.49,1384.05 2044.69,1384.05 2046.89,1384.05 2049.09,1384.06 2051.3,1384.06 2053.5,1384.06 2055.7,1384.06 2057.9,1384.07 2060.1,1384.07 2062.3,1384.07 2064.5,1384.07 2066.7,1384.07 2068.9,1384.08 2071.1,1384.08 2073.3,1384.08 2075.5,1384.08 2077.7,1384.09 2079.9,1384.09 2082.1,1384.09 2084.3,1384.09 2086.5,1384.09 2088.7,1384.1 2090.9,1384.1 2093.1,1384.1 2095.3,1384.1 2097.5,1384.1 2099.71,1384.11 2101.91,1384.11 2104.11,1384.11 2106.31,1384.11 2108.51,1384.11 2110.71,1384.12 2112.91,1384.12 2115.11,1384.12 2117.31,1384.12 2119.51,1384.12 2121.71,1384.12 2123.91,1384.13 2126.11,1384.13 2128.31,1384.13 2130.51,1384.13 2132.71,1384.13 2134.91,1384.14 2137.11,1384.14 2139.31,1384.14 2141.51,1384.14 2143.71,1384.14 2145.91,1384.14 2148.11,1384.15 2150.32,1384.15 2152.52,1384.15 2154.72,1384.15 2156.92,1384.15 2159.12,1384.15 2161.32,1384.15 2163.52,1384.16 2165.72,1384.16 2167.92,1384.16 2170.12,1384.16 2172.32,1384.16 2174.52,1384.16 2176.72,1384.16 2178.92,1384.17 2181.12,1384.17 2183.32,1384.17 2185.52,1384.17 2187.72,1384.17 2189.92,1384.17 2192.12,1384.17 2194.32,1384.17 2196.52,1384.18 2198.73,1384.18 2200.93,1384.18 2203.13,1384.18 2205.33,1384.18 2207.53,1384.18 2209.73,1384.18 2211.93,1384.18 2214.13,1384.19 2216.33,1384.19 2218.53,1384.19 2220.73,1384.19 2222.93,1384.19 2225.13,1384.19 2227.33,1384.19 2229.53,1384.19 2231.73,1384.19 2233.93,1384.2 2236.13,1384.2 2238.33,1384.2 2240.53,1384.2 2242.73,1384.2 2244.93,1384.2 2247.13,1384.2 2249.34,1384.2 2251.54,1384.2 2253.74,1384.2 2255.94,1384.21 2258.14,1384.21 2260.34,1384.21 2262.54,1384.21 2264.74,1384.21 2266.94,1384.21 2269.14,1384.21 2271.34,1384.21 2273.54,1384.21 2275.74,1384.21 2277.94,1384.21 2280.14,1384.21 2282.34,1384.22 2284.54,1384.22 2286.74,1384.22 2288.94,1384.22 2291.14,1384.22 2293.34,1384.22 2295.54,1384.22 2297.74,1384.22 2299.95,1384.22 2302.15,1384.22 2304.35,1384.22 2306.55,1384.22 2308.75,1384.22 2310.95,1384.23 2313.15,1384.23 2315.35,1384.23 2317.55,1384.23 2319.75,1384.23 2321.95,1384.23 2324.15,1384.23 2326.35,1384.23 2328.55,1384.23 2330.75,1384.23 2332.95,1384.23 2335.15,1384.23 2337.35,1384.23 2339.55,1384.23 2341.75,1384.24 2343.95,1384.24 2346.15,1384.24 2348.36,1384.24 2350.56,1384.24 2352.76,1384.24 "/>
<polyline clip-path="url(#clip102)" style="stroke:#e26f46; stroke-linecap:round; stroke-linejoin:round; stroke-width:4; stroke-opacity:1; fill:none" points="154.515,1110.66 156.715,1108.82 158.916,1107.03 161.116,1105.28 163.317,1103.58 165.517,1101.92 167.718,1100.31 169.918,1098.74 172.118,1097.21 174.319,1095.72 176.519,1094.27 178.72,1092.87 180.92,1091.5 183.121,1090.17 185.321,1088.88 187.522,1087.63 189.722,1086.42 191.922,1085.24 194.123,1084.1 196.323,1082.99 198.524,1081.93 200.724,1080.89 202.925,1079.89 205.125,1078.93 207.326,1078 209.526,1077.1 211.726,1076.23 213.927,1075.4 216.127,1074.6 218.328,1073.82 220.528,1073.08 222.729,1072.37 224.929,1071.69 227.129,1071.04 229.33,1070.42 231.53,1069.83 233.731,1069.27 235.931,1068.73 238.132,1068.22 240.332,1067.74 242.533,1067.28 244.733,1066.85 246.933,1066.45 249.134,1066.07 251.334,1065.71 253.535,1065.38 255.735,1065.08 257.936,1064.8 260.136,1064.54 262.337,1064.31 264.537,1064.09 266.737,1063.91 268.938,1063.74 271.138,1063.59 273.339,1063.47 275.539,1063.37 277.74,1063.28 279.94,1063.22 282.141,1063.18 284.341,1063.16 286.541,1063.16 288.742,1063.17 290.942,1063.21 293.143,1063.27 295.343,1063.34 297.544,1063.43 299.744,1063.54 301.944,1063.66 304.145,1063.81 306.345,1063.97 308.546,1064.14 310.746,1064.34 312.947,1064.54 315.147,1064.77 317.348,1065.01 319.548,1065.26 321.748,1065.54 323.949,1065.82 326.149,1066.12 328.35,1066.43 330.55,1066.76 332.751,1067.1 334.951,1067.46 337.152,1067.83 339.352,1068.21 341.552,1068.6 343.753,1069.01 345.953,1069.43 348.154,1069.86 350.354,1070.3 352.555,1070.75 354.755,1071.22 356.956,1071.7 359.156,1072.19 361.356,1072.68 363.557,1073.19 365.757,1073.71 367.958,1074.25 370.158,1074.79 372.359,1075.34 374.559,1075.9 376.759,1076.47 378.96,1077.04 381.16,1077.63 383.361,1078.23 385.561,1078.84 387.762,1079.45 389.962,1080.07 392.163,1080.7 394.363,1081.34 396.563,1081.99 398.764,1082.64 400.964,1083.31 403.165,1083.98 405.365,1084.65 407.566,1085.34 409.766,1086.03 411.967,1086.73 414.167,1087.43 416.367,1088.14 418.568,1088.86 420.768,1089.59 422.969,1090.32 425.169,1091.05 427.37,1091.79 429.57,1092.54 431.771,1093.29 433.971,1094.05 436.171,1094.82 438.372,1095.58 440.572,1096.36 442.773,1097.14 444.973,1097.92 447.174,1098.71 449.374,1099.5 451.575,1100.3 453.775,1101.1 455.975,1101.9 458.176,1102.71 460.376,1103.53 462.577,1104.34 464.777,1105.16 466.978,1105.99 469.178,1106.81 471.378,1107.65 473.579,1108.48 475.779,1109.32 477.98,1110.16 480.18,1111 482.381,1111.85 484.581,1112.7 486.782,1113.55 488.982,1114.4 491.182,1115.26 493.383,1116.12 495.583,1116.98 497.784,1117.85 499.984,1118.71 502.185,1119.58 504.385,1120.45 506.586,1121.32 508.786,1122.2 510.986,1123.07 513.187,1123.95 515.387,1124.83 517.588,1125.71 519.788,1126.59 521.989,1127.48 524.189,1128.36 526.39,1129.25 528.59,1130.14 530.79,1131.02 532.991,1131.91 535.191,1132.8 537.392,1133.7 539.592,1134.59 541.793,1135.48 543.993,1136.37 546.193,1137.27 548.394,1138.16 550.594,1139.06 552.795,1139.95 554.995,1140.85 557.196,1141.74 559.396,1142.64 561.597,1143.54 563.797,1144.43 565.997,1145.33 568.198,1146.23 570.398,1147.12 572.599,1148.02 574.799,1148.92 577,1149.81 579.2,1150.71 581.401,1151.6 583.601,1152.5 585.801,1153.39 588.002,1154.29 590.202,1155.18 592.403,1156.07 594.603,1156.97 596.804,1157.86 599.004,1158.75 601.205,1159.64 603.405,1160.53 605.605,1161.42 607.806,1162.3 610.006,1163.19 612.207,1164.08 614.407,1164.96 616.608,1165.85 618.808,1166.73 621.008,1167.61 623.209,1168.49 625.409,1169.37 627.61,1170.25 629.81,1171.13 632.011,1172.01 634.211,1172.88 636.412,1173.75 638.612,1174.63 640.812,1175.5 643.013,1176.37 645.213,1177.24 647.414,1178.1 649.614,1178.97 651.815,1179.83 654.015,1180.7 656.216,1181.56 658.416,1182.42 660.616,1183.27 662.817,1184.13 665.017,1184.98 667.218,1185.84 669.418,1186.69 671.619,1187.54 673.819,1188.39 676.02,1189.23 678.22,1190.08 680.42,1190.92 682.621,1191.76 684.821,1192.6 687.022,1193.44 689.222,1194.27 691.423,1195.1 693.623,1195.93 695.824,1196.76 698.024,1197.59 700.224,1198.42 702.425,1199.24 704.625,1200.06 706.826,1200.88 709.026,1201.7 711.227,1202.51 713.427,1203.32 715.627,1204.13 717.828,1204.94 720.028,1205.75 722.229,1206.55 724.429,1207.36 726.63,1208.16 728.83,1208.95 731.031,1209.75 733.231,1210.54 735.431,1211.33 737.632,1212.12 739.832,1212.91 742.033,1213.69 744.233,1214.47 746.434,1215.25 748.634,1216.03 750.835,1216.8 753.035,1217.57 755.235,1218.34 757.436,1219.11 759.636,1219.88 761.837,1220.64 764.037,1221.4 766.238,1222.16 768.438,1222.91 770.639,1223.67 772.839,1224.42 775.039,1225.16 777.24,1225.91 779.44,1226.65 781.641,1227.4 783.841,1228.13 786.042,1228.87 788.242,1229.6 790.442,1230.34 792.643,1231.06 794.843,1231.79 797.044,1232.52 799.244,1233.24 801.445,1233.96 803.645,1234.67 805.846,1235.39 808.046,1236.1 810.246,1236.81 812.447,1237.52 814.647,1238.22 816.848,1238.92 819.048,1239.62 821.249,1240.32 823.449,1241.02 825.65,1241.71 827.85,1242.4 830.05,1243.09 832.251,1243.77 834.451,1244.45 836.652,1245.13 838.852,1245.81 841.053,1246.48 843.253,1247.16 845.454,1247.83 847.654,1248.49 849.854,1249.16 852.055,1249.82 854.255,1250.48 856.456,1251.14 858.656,1251.8 860.857,1252.45 863.057,1253.1 865.257,1253.75 867.458,1254.39 869.658,1255.03 871.859,1255.67 874.059,1256.31 876.26,1256.95 878.46,1257.58 880.661,1258.21 882.861,1258.84 885.061,1259.46 887.262,1260.08 889.462,1260.7 891.663,1261.32 893.863,1261.94 896.064,1262.55 898.264,1263.16 900.465,1263.77 902.665,1264.37 904.865,1264.98 907.066,1265.58 909.266,1266.17 911.467,1266.77 913.667,1267.36 915.868,1267.95 918.068,1268.54 920.269,1269.13 922.469,1269.71 924.669,1270.29 926.87,1270.87 929.07,1271.44 931.271,1272.02 933.471,1272.59 935.672,1273.15 937.872,1273.72 940.073,1274.28 942.273,1274.84 944.473,1275.4 946.674,1275.96 948.874,1276.51 951.075,1277.06 953.275,1277.61 955.476,1278.16 957.676,1278.7 959.876,1279.25 962.077,1279.79 964.277,1280.32 966.478,1280.86 968.678,1281.39 970.879,1281.92 973.079,1282.45 975.28,1282.97 977.48,1283.5 979.68,1284.02 981.881,1284.54 984.081,1285.05 986.282,1285.57 988.482,1286.08 990.683,1286.59 992.883,1287.1 995.084,1287.6 997.284,1288.11 999.484,1288.61 1001.68,1289.1 1003.89,1289.6 1006.09,1290.1 1008.29,1290.59 1010.49,1291.08 1012.69,1291.56 1014.89,1292.05 1017.09,1292.53 1019.29,1293.01 1021.49,1293.49 1023.69,1293.97 1025.89,1294.44 1028.09,1294.91 1030.29,1295.38 1032.49,1295.85 1034.69,1296.32 1036.89,1296.78 1039.09,1297.24 1041.29,1297.7 1043.49,1298.16 1045.69,1298.61 1047.89,1299.07 1050.09,1299.52 1052.3,1299.97 1054.5,1300.41 1056.7,1300.86 1058.9,1301.3 1061.1,1301.74 1063.3,1302.18 1065.5,1302.62 1067.7,1303.05 1069.9,1303.48 1072.1,1303.91 1074.3,1304.34 1076.5,1304.77 1078.7,1305.19 1080.9,1305.61 1083.1,1306.04 1085.3,1306.45 1087.5,1306.87 1089.7,1307.28 1091.9,1307.7 1094.1,1308.11 1096.3,1308.51 1098.5,1308.92 1100.7,1309.32 1102.91,1309.73 1105.11,1310.13 1107.31,1310.53 1109.51,1310.92 1111.71,1311.32 1113.91,1311.71 1116.11,1312.1 1118.31,1312.49 1120.51,1312.88 1122.71,1313.26 1124.91,1313.64 1127.11,1314.02 1129.31,1314.4 1131.51,1314.78 1133.71,1315.16 1135.91,1315.53 1138.11,1315.9 1140.31,1316.27 1142.51,1316.64 1144.71,1317.01 1146.91,1317.37 1149.11,1317.73 1151.31,1318.09 1153.52,1318.45 1155.72,1318.81 1157.92,1319.17 1160.12,1319.52 1162.32,1319.87 1164.52,1320.22 1166.72,1320.57 1168.92,1320.92 1171.12,1321.26 1173.32,1321.6 1175.52,1321.95 1177.72,1322.28 1179.92,1322.62 1182.12,1322.96 1184.32,1323.29 1186.52,1323.63 1188.72,1323.96 1190.92,1324.29 1193.12,1324.62 1195.32,1324.94 1197.52,1325.27 1199.72,1325.59 1201.93,1325.91 1204.13,1326.23 1206.33,1326.55 1208.53,1326.87 1210.73,1327.18 1212.93,1327.49 1215.13,1327.81 1217.33,1328.12 1219.53,1328.42 1221.73,1328.73 1223.93,1329.04 1226.13,1329.34 1228.33,1329.64 1230.53,1329.94 1232.73,1330.24 1234.93,1330.54 1237.13,1330.84 1239.33,1331.13 1241.53,1331.43 1243.73,1331.72 1245.93,1332.01 1248.13,1332.3 1250.33,1332.58 1252.54,1332.87 1254.74,1333.15 1256.94,1333.44 1259.14,1333.72 1261.34,1334 1263.54,1334.28 1265.74,1334.55 1267.94,1334.83 1270.14,1335.1 1272.34,1335.38 1274.54,1335.65 1276.74,1335.92 1278.94,1336.19 1281.14,1336.46 1283.34,1336.72 1285.54,1336.99 1287.74,1337.25 1289.94,1337.51 1292.14,1337.77 1294.34,1338.03 1296.54,1338.29 1298.74,1338.55 1300.94,1338.8 1303.15,1339.05 1305.35,1339.31 1307.55,1339.56 1309.75,1339.81 1311.95,1340.06 1314.15,1340.3 1316.35,1340.55 1318.55,1340.79 1320.75,1341.04 1322.95,1341.28 1325.15,1341.52 1327.35,1341.76 1329.55,1342 1331.75,1342.24 1333.95,1342.47 1336.15,1342.71 1338.35,1342.94 1340.55,1343.17 1342.75,1343.4 1344.95,1343.63 1347.15,1343.86 1349.35,1344.09 1351.56,1344.31 1353.76,1344.54 1355.96,1344.76 1358.16,1344.98 1360.36,1345.2 1362.56,1345.42 1364.76,1345.64 1366.96,1345.86 1369.16,1346.08 1371.36,1346.29 1373.56,1346.51 1375.76,1346.72 1377.96,1346.93 1380.16,1347.14 1382.36,1347.35 1384.56,1347.56 1386.76,1347.77 1388.96,1347.97 1391.16,1348.18 1393.36,1348.38 1395.56,1348.58 1397.76,1348.78 1399.96,1348.98 1402.17,1349.18 1404.37,1349.38 1406.57,1349.58 1408.77,1349.78 1410.97,1349.97 1413.17,1350.16 1415.37,1350.36 1417.57,1350.55 1419.77,1350.74 1421.97,1350.93 1424.17,1351.12 1426.37,1351.31 1428.57,1351.49 1430.77,1351.68 1432.97,1351.86 1435.17,1352.05 1437.37,1352.23 1439.57,1352.41 1441.77,1352.59 1443.97,1352.77 1446.17,1352.95 1448.37,1353.13 1450.57,1353.31 1452.78,1353.48 1454.98,1353.66 1457.18,1353.83 1459.38,1354 1461.58,1354.18 1463.78,1354.35 1465.98,1354.52 1468.18,1354.69 1470.38,1354.85 1472.58,1355.02 1474.78,1355.19 1476.98,1355.35 1479.18,1355.52 1481.38,1355.68 1483.58,1355.85 1485.78,1356.01 1487.98,1356.17 1490.18,1356.33 1492.38,1356.49 1494.58,1356.65 1496.78,1356.8 1498.98,1356.96 1501.19,1357.12 1503.39,1357.27 1505.59,1357.43 1507.79,1357.58 1509.99,1357.73 1512.19,1357.88 1514.39,1358.04 1516.59,1358.19 1518.79,1358.33 1520.99,1358.48 1523.19,1358.63 1525.39,1358.78 1527.59,1358.92 1529.79,1359.07 1531.99,1359.21 1534.19,1359.36 1536.39,1359.5 1538.59,1359.64 1540.79,1359.78 1542.99,1359.92 1545.19,1360.06 1547.39,1360.2 1549.59,1360.34 1551.8,1360.48 1554,1360.61 1556.2,1360.75 1558.4,1360.89 1560.6,1361.02 1562.8,1361.15 1565,1361.29 1567.2,1361.42 1569.4,1361.55 1571.6,1361.68 1573.8,1361.81 1576,1361.94 1578.2,1362.07 1580.4,1362.2 1582.6,1362.32 1584.8,1362.45 1587,1362.58 1589.2,1362.7 1591.4,1362.83 1593.6,1362.95 1595.8,1363.07 1598,1363.19 1600.2,1363.32 1602.41,1363.44 1604.61,1363.56 1606.81,1363.68 1609.01,1363.8 1611.21,1363.91 1613.41,1364.03 1615.61,1364.15 1617.81,1364.27 1620.01,1364.38 1622.21,1364.5 1624.41,1364.61 1626.61,1364.72 1628.81,1364.84 1631.01,1364.95 1633.21,1365.06 1635.41,1365.17 1637.61,1365.28 1639.81,1365.39 1642.01,1365.5 1644.21,1365.61 1646.41,1365.72 1648.61,1365.83 1650.82,1365.93 1653.02,1366.04 1655.22,1366.15 1657.42,1366.25 1659.62,1366.36 1661.82,1366.46 1664.02,1366.56 1666.22,1366.67 1668.42,1366.77 1670.62,1366.87 1672.82,1366.97 1675.02,1367.07 1677.22,1367.17 1679.42,1367.27 1681.62,1367.37 1683.82,1367.47 1686.02,1367.56 1688.22,1367.66 1690.42,1367.76 1692.62,1367.85 1694.82,1367.95 1697.02,1368.04 1699.22,1368.14 1701.43,1368.23 1703.63,1368.32 1705.83,1368.42 1708.03,1368.51 1710.23,1368.6 1712.43,1368.69 1714.63,1368.78 1716.83,1368.87 1719.03,1368.96 1721.23,1369.05 1723.43,1369.14 1725.63,1369.23 1727.83,1369.31 1730.03,1369.4 1732.23,1369.49 1734.43,1369.57 1736.63,1369.66 1738.83,1369.74 1741.03,1369.83 1743.23,1369.91 1745.43,1370 1747.63,1370.08 1749.83,1370.16 1752.04,1370.24 1754.24,1370.33 1756.44,1370.41 1758.64,1370.49 1760.84,1370.57 1763.04,1370.65 1765.24,1370.73 1767.44,1370.81 1769.64,1370.89 1771.84,1370.96 1774.04,1371.04 1776.24,1371.12 1778.44,1371.19 1780.64,1371.27 1782.84,1371.35 1785.04,1371.42 1787.24,1371.5 1789.44,1371.57 1791.64,1371.65 1793.84,1371.72 1796.04,1371.79 1798.24,1371.87 1800.45,1371.94 1802.65,1372.01 1804.85,1372.08 1807.05,1372.15 1809.25,1372.22 1811.45,1372.29 1813.65,1372.36 1815.85,1372.43 1818.05,1372.5 1820.25,1372.57 1822.45,1372.64 1824.65,1372.71 1826.85,1372.78 1829.05,1372.84 1831.25,1372.91 1833.45,1372.98 1835.65,1373.04 1837.85,1373.11 1840.05,1373.17 1842.25,1373.24 1844.45,1373.3 1846.65,1373.37 1848.85,1373.43 1851.06,1373.5 1853.26,1373.56 1855.46,1373.62 1857.66,1373.68 1859.86,1373.75 1862.06,1373.81 1864.26,1373.87 1866.46,1373.93 1868.66,1373.99 1870.86,1374.05 1873.06,1374.11 1875.26,1374.17 1877.46,1374.23 1879.66,1374.29 1881.86,1374.35 1884.06,1374.41 1886.26,1374.46 1888.46,1374.52 1890.66,1374.58 1892.86,1374.63 1895.06,1374.69 1897.26,1374.75 1899.46,1374.8 1901.67,1374.86 1903.87,1374.91 1906.07,1374.97 1908.27,1375.02 1910.47,1375.08 1912.67,1375.13 1914.87,1375.19 1917.07,1375.24 1919.27,1375.29 1921.47,1375.35 1923.67,1375.4 1925.87,1375.45 1928.07,1375.5 1930.27,1375.55 1932.47,1375.61 1934.67,1375.66 1936.87,1375.71 1939.07,1375.76 1941.27,1375.81 1943.47,1375.86 1945.67,1375.91 1947.87,1375.96 1950.08,1376.01 1952.28,1376.05 1954.48,1376.1 1956.68,1376.15 1958.88,1376.2 1961.08,1376.25 1963.28,1376.29 1965.48,1376.34 1967.68,1376.39 1969.88,1376.43 1972.08,1376.48 1974.28,1376.53 1976.48,1376.57 1978.68,1376.62 1980.88,1376.66 1983.08,1376.71 1985.28,1376.75 1987.48,1376.8 1989.68,1376.84 1991.88,1376.88 1994.08,1376.93 1996.28,1376.97 1998.48,1377.01 2000.69,1377.06 2002.89,1377.1 2005.09,1377.14 2007.29,1377.18 2009.49,1377.23 2011.69,1377.27 2013.89,1377.31 2016.09,1377.35 2018.29,1377.39 2020.49,1377.43 2022.69,1377.47 2024.89,1377.51 2027.09,1377.55 2029.29,1377.59 2031.49,1377.63 2033.69,1377.67 2035.89,1377.71 2038.09,1377.75 2040.29,1377.79 2042.49,1377.83 2044.69,1377.86 2046.89,1377.9 2049.09,1377.94 2051.3,1377.98 2053.5,1378.01 2055.7,1378.05 2057.9,1378.09 2060.1,1378.12 2062.3,1378.16 2064.5,1378.2 2066.7,1378.23 2068.9,1378.27 2071.1,1378.3 2073.3,1378.34 2075.5,1378.37 2077.7,1378.41 2079.9,1378.44 2082.1,1378.48 2084.3,1378.51 2086.5,1378.55 2088.7,1378.58 2090.9,1378.61 2093.1,1378.65 2095.3,1378.68 2097.5,1378.71 2099.71,1378.75 2101.91,1378.78 2104.11,1378.81 2106.31,1378.85 2108.51,1378.88 2110.71,1378.91 2112.91,1378.94 2115.11,1378.97 2117.31,1379 2119.51,1379.04 2121.71,1379.07 2123.91,1379.1 2126.11,1379.13 2128.31,1379.16 2130.51,1379.19 2132.71,1379.22 2134.91,1379.25 2137.11,1379.28 2139.31,1379.31 2141.51,1379.34 2143.71,1379.37 2145.91,1379.4 2148.11,1379.43 2150.32,1379.45 2152.52,1379.48 2154.72,1379.51 2156.92,1379.54 2159.12,1379.57 2161.32,1379.6 2163.52,1379.62 2165.72,1379.65 2167.92,1379.68 2170.12,1379.71 2172.32,1379.73 2174.52,1379.76 2176.72,1379.79 2178.92,1379.81 2181.12,1379.84 2183.32,1379.87 2185.52,1379.89 2187.72,1379.92 2189.92,1379.94 2192.12,1379.97 2194.32,1380 2196.52,1380.02 2198.73,1380.05 2200.93,1380.07 2203.13,1380.1 2205.33,1380.12 2207.53,1380.15 2209.73,1380.17 2211.93,1380.2 2214.13,1380.22 2216.33,1380.24 2218.53,1380.27 2220.73,1380.29 2222.93,1380.32 2225.13,1380.34 2227.33,1380.36 2229.53,1380.39 2231.73,1380.41 2233.93,1380.43 2236.13,1380.45 2238.33,1380.48 2240.53,1380.5 2242.73,1380.52 2244.93,1380.54 2247.13,1380.57 2249.34,1380.59 2251.54,1380.61 2253.74,1380.63 2255.94,1380.65 2258.14,1380.68 2260.34,1380.7 2262.54,1380.72 2264.74,1380.74 2266.94,1380.76 2269.14,1380.78 2271.34,1380.8 2273.54,1380.82 2275.74,1380.84 2277.94,1380.86 2280.14,1380.88 2282.34,1380.9 2284.54,1380.92 2286.74,1380.94 2288.94,1380.96 2291.14,1380.98 2293.34,1381 2295.54,1381.02 2297.74,1381.04 2299.95,1381.06 2302.15,1381.08 2304.35,1381.1 2306.55,1381.12 2308.75,1381.14 2310.95,1381.16 2313.15,1381.18 2315.35,1381.19 2317.55,1381.21 2319.75,1381.23 2321.95,1381.25 2324.15,1381.27 2326.35,1381.29 2328.55,1381.3 2330.75,1381.32 2332.95,1381.34 2335.15,1381.36 2337.35,1381.37 2339.55,1381.39 2341.75,1381.41 2343.95,1381.43 2346.15,1381.44 2348.36,1381.46 2350.56,1381.48 2352.76,1381.49 "/>
<path clip-path="url(#clip100)" d="M1800.26 248.629 L2279.48 248.629 L2279.48 93.1086 L1800.26 93.1086  Z" fill="#ffffff" fill-rule="evenodd" fill-opacity="1"/>
<polyline clip-path="url(#clip100)" style="stroke:#000000; stroke-linecap:round; stroke-linejoin:round; stroke-width:4; stroke-opacity:1; fill:none" points="1800.26,248.629 2279.48,248.629 2279.48,93.1086 1800.26,93.1086 1800.26,248.629 "/>
<polyline clip-path="url(#clip100)" style="stroke:#009af9; stroke-linecap:round; stroke-linejoin:round; stroke-width:4; stroke-opacity:1; fill:none" points="1824.69,144.949 1971.23,144.949 "/>
<path clip-path="url(#clip100)" d="M1995.66 136.303 L2000.17 136.303 L2008.28 158.062 L2016.38 136.303 L2020.89 136.303 L2011.17 162.229 L2005.38 162.229 L1995.66 136.303 Z" fill="#000000" fill-rule="nonzero" fill-opacity="1" /><path clip-path="url(#clip100)" d="M2028.18 158.293 L2035.82 158.293 L2035.82 131.928 L2027.51 133.595 L2027.51 129.335 L2035.78 127.669 L2040.45 127.669 L2040.45 158.293 L2048.09 158.293 L2048.09 162.229 L2028.18 162.229 L2028.18 158.293 Z" fill="#000000" fill-rule="nonzero" fill-opacity="1" /><path clip-path="url(#clip100)" d="M2066.19 145.585 L2066.19 152.807 L2074.32 152.807 L2074.32 155.006 L2066.19 155.006 L2066.19 162.229 L2063.76 162.229 L2063.76 155.006 L2055.64 155.006 L2055.64 152.807 L2063.76 152.807 L2063.76 145.585 L2066.19 145.585 Z" fill="#000000" fill-rule="nonzero" fill-opacity="1" /><path clip-path="url(#clip100)" d="M2098.48 137.067 L2098.48 141.094 Q2096.68 140.169 2094.73 139.706 Q2092.79 139.243 2090.71 139.243 Q2087.53 139.243 2085.94 140.215 Q2084.36 141.187 2084.36 143.131 Q2084.36 144.613 2085.5 145.469 Q2086.63 146.303 2090.06 147.067 L2091.52 147.391 Q2096.05 148.363 2097.95 150.145 Q2099.87 151.905 2099.87 155.076 Q2099.87 158.687 2097 160.793 Q2094.15 162.9 2089.15 162.9 Q2087.07 162.9 2084.8 162.483 Q2082.56 162.09 2080.06 161.28 L2080.06 156.881 Q2082.42 158.108 2084.71 158.733 Q2087 159.335 2089.25 159.335 Q2092.26 159.335 2093.88 158.317 Q2095.5 157.275 2095.5 155.4 Q2095.5 153.664 2094.32 152.738 Q2093.16 151.812 2089.2 150.956 L2087.72 150.608 Q2083.76 149.775 2082 148.062 Q2080.24 146.326 2080.24 143.317 Q2080.24 139.659 2082.84 137.669 Q2085.43 135.678 2090.2 135.678 Q2092.56 135.678 2094.64 136.025 Q2096.72 136.372 2098.48 137.067 Z" fill="#000000" fill-rule="nonzero" fill-opacity="1" /><path clip-path="url(#clip100)" d="M2110.87 128.942 L2110.87 136.303 L2119.64 136.303 L2119.64 139.613 L2110.87 139.613 L2110.87 153.687 Q2110.87 156.858 2111.72 157.761 Q2112.6 158.664 2115.27 158.664 L2119.64 158.664 L2119.64 162.229 L2115.27 162.229 Q2110.33 162.229 2108.46 160.4 Q2106.58 158.548 2106.58 153.687 L2106.58 139.613 L2103.46 139.613 L2103.46 136.303 L2106.58 136.303 L2106.58 128.942 L2110.87 128.942 Z" fill="#000000" fill-rule="nonzero" fill-opacity="1" /><path clip-path="url(#clip100)" d="M2135.29 139.289 Q2131.86 139.289 2129.87 141.974 Q2127.88 144.636 2127.88 149.289 Q2127.88 153.942 2129.85 156.627 Q2131.84 159.289 2135.29 159.289 Q2138.69 159.289 2140.68 156.604 Q2142.67 153.918 2142.67 149.289 Q2142.67 144.682 2140.68 141.997 Q2138.69 139.289 2135.29 139.289 M2135.29 135.678 Q2140.84 135.678 2144.02 139.289 Q2147.19 142.9 2147.19 149.289 Q2147.19 155.655 2144.02 159.289 Q2140.84 162.9 2135.29 162.9 Q2129.71 162.9 2126.54 159.289 Q2123.39 155.655 2123.39 149.289 Q2123.39 142.9 2126.54 139.289 Q2129.71 135.678 2135.29 135.678 Z" fill="#000000" fill-rule="nonzero" fill-opacity="1" /><path clip-path="url(#clip100)" d="M2169.27 140.284 Q2168.55 139.868 2167.7 139.682 Q2166.86 139.474 2165.84 139.474 Q2162.23 139.474 2160.29 141.835 Q2158.37 144.173 2158.37 148.571 L2158.37 162.229 L2154.08 162.229 L2154.08 136.303 L2158.37 136.303 L2158.37 140.331 Q2159.71 137.969 2161.86 136.835 Q2164.02 135.678 2167.09 135.678 Q2167.53 135.678 2168.07 135.747 Q2168.6 135.794 2169.25 135.909 L2169.27 140.284 Z" fill="#000000" fill-rule="nonzero" fill-opacity="1" /><path clip-path="url(#clip100)" d="M2185.52 149.196 Q2180.36 149.196 2178.37 150.377 Q2176.38 151.557 2176.38 154.405 Q2176.38 156.673 2177.86 158.016 Q2179.36 159.335 2181.93 159.335 Q2185.47 159.335 2187.6 156.835 Q2189.76 154.312 2189.76 150.145 L2189.76 149.196 L2185.52 149.196 M2194.01 147.437 L2194.01 162.229 L2189.76 162.229 L2189.76 158.293 Q2188.3 160.655 2186.12 161.789 Q2183.95 162.9 2180.8 162.9 Q2176.82 162.9 2174.45 160.678 Q2172.12 158.432 2172.12 154.682 Q2172.12 150.307 2175.03 148.085 Q2177.97 145.863 2183.78 145.863 L2189.76 145.863 L2189.76 145.446 Q2189.76 142.507 2187.81 140.909 Q2185.89 139.289 2182.39 139.289 Q2180.17 139.289 2178.07 139.821 Q2175.96 140.354 2174.02 141.419 L2174.02 137.483 Q2176.35 136.581 2178.55 136.141 Q2180.75 135.678 2182.83 135.678 Q2188.46 135.678 2191.24 138.594 Q2194.01 141.511 2194.01 147.437 Z" fill="#000000" fill-rule="nonzero" fill-opacity="1" /><path clip-path="url(#clip100)" d="M2219.85 148.965 Q2219.85 144.335 2217.93 141.789 Q2216.03 139.243 2212.58 139.243 Q2209.15 139.243 2207.23 141.789 Q2205.33 144.335 2205.33 148.965 Q2205.33 153.571 2207.23 156.118 Q2209.15 158.664 2212.58 158.664 Q2216.03 158.664 2217.93 156.118 Q2219.85 153.571 2219.85 148.965 M2224.11 159.011 Q2224.11 165.631 2221.17 168.849 Q2218.23 172.09 2212.16 172.09 Q2209.92 172.09 2207.93 171.742 Q2205.94 171.418 2204.06 170.724 L2204.06 166.58 Q2205.94 167.599 2207.76 168.085 Q2209.59 168.571 2211.49 168.571 Q2215.68 168.571 2217.76 166.372 Q2219.85 164.196 2219.85 159.775 L2219.85 157.668 Q2218.53 159.96 2216.47 161.094 Q2214.41 162.229 2211.54 162.229 Q2206.77 162.229 2203.85 158.594 Q2200.94 154.96 2200.94 148.965 Q2200.94 142.946 2203.85 139.312 Q2206.77 135.678 2211.54 135.678 Q2214.41 135.678 2216.47 136.812 Q2218.53 137.946 2219.85 140.238 L2219.85 136.303 L2224.11 136.303 L2224.11 159.011 Z" fill="#000000" fill-rule="nonzero" fill-opacity="1" /><path clip-path="url(#clip100)" d="M2255.06 148.201 L2255.06 150.284 L2235.47 150.284 Q2235.75 154.682 2238.11 156.997 Q2240.5 159.289 2244.73 159.289 Q2247.19 159.289 2249.48 158.687 Q2251.79 158.085 2254.06 156.881 L2254.06 160.909 Q2251.77 161.881 2249.36 162.391 Q2246.95 162.9 2244.48 162.9 Q2238.27 162.9 2234.64 159.289 Q2231.03 155.678 2231.03 149.52 Q2231.03 143.155 2234.45 139.428 Q2237.9 135.678 2243.74 135.678 Q2248.97 135.678 2252 139.057 Q2255.06 142.414 2255.06 148.201 M2250.8 146.951 Q2250.75 143.456 2248.83 141.372 Q2246.93 139.289 2243.78 139.289 Q2240.22 139.289 2238.07 141.303 Q2235.94 143.317 2235.61 146.974 L2250.8 146.951 Z" fill="#000000" fill-rule="nonzero" fill-opacity="1" /><polyline clip-path="url(#clip100)" style="stroke:#e26f46; stroke-linecap:round; stroke-linejoin:round; stroke-width:4; stroke-opacity:1; fill:none" points="1824.69,196.789 1971.23,196.789 "/>
<path clip-path="url(#clip100)" d="M1995.66 188.143 L2000.17 188.143 L2008.28 209.902 L2016.38 188.143 L2020.89 188.143 L2011.17 214.069 L2005.38 214.069 L1995.66 188.143 Z" fill="#000000" fill-rule="nonzero" fill-opacity="1" /><path clip-path="url(#clip100)" d="M2027.42 179.509 L2045.78 179.509 L2045.78 183.444 L2031.7 183.444 L2031.7 191.916 Q2032.72 191.569 2033.74 191.407 Q2034.76 191.222 2035.78 191.222 Q2041.56 191.222 2044.94 194.393 Q2048.32 197.564 2048.32 202.981 Q2048.32 208.559 2044.85 211.661 Q2041.38 214.74 2035.06 214.74 Q2032.88 214.74 2030.61 214.37 Q2028.37 213.999 2025.96 213.258 L2025.96 208.559 Q2028.04 209.694 2030.27 210.249 Q2032.49 210.805 2034.96 210.805 Q2038.97 210.805 2041.31 208.698 Q2043.65 206.592 2043.65 202.981 Q2043.65 199.37 2041.31 197.263 Q2038.97 195.157 2034.96 195.157 Q2033.09 195.157 2031.21 195.573 Q2029.36 195.99 2027.42 196.87 L2027.42 179.509 Z" fill="#000000" fill-rule="nonzero" fill-opacity="1" /><path clip-path="url(#clip100)" d="M2066.19 197.425 L2066.19 204.647 L2074.32 204.647 L2074.32 206.846 L2066.19 206.846 L2066.19 214.069 L2063.76 214.069 L2063.76 206.846 L2055.64 206.846 L2055.64 204.647 L2063.76 204.647 L2063.76 197.425 L2066.19 197.425 Z" fill="#000000" fill-rule="nonzero" fill-opacity="1" /><path clip-path="url(#clip100)" d="M2098.48 188.907 L2098.48 192.934 Q2096.68 192.009 2094.73 191.546 Q2092.79 191.083 2090.71 191.083 Q2087.53 191.083 2085.94 192.055 Q2084.36 193.027 2084.36 194.971 Q2084.36 196.453 2085.5 197.309 Q2086.63 198.143 2090.06 198.907 L2091.52 199.231 Q2096.05 200.203 2097.95 201.985 Q2099.87 203.745 2099.87 206.916 Q2099.87 210.527 2097 212.633 Q2094.15 214.74 2089.15 214.74 Q2087.07 214.74 2084.8 214.323 Q2082.56 213.93 2080.06 213.12 L2080.06 208.721 Q2082.42 209.948 2084.71 210.573 Q2087 211.175 2089.25 211.175 Q2092.26 211.175 2093.88 210.157 Q2095.5 209.115 2095.5 207.24 Q2095.5 205.504 2094.32 204.578 Q2093.16 203.652 2089.2 202.796 L2087.72 202.448 Q2083.76 201.615 2082 199.902 Q2080.24 198.166 2080.24 195.157 Q2080.24 191.499 2082.84 189.509 Q2085.43 187.518 2090.2 187.518 Q2092.56 187.518 2094.64 187.865 Q2096.72 188.212 2098.48 188.907 Z" fill="#000000" fill-rule="nonzero" fill-opacity="1" /><path clip-path="url(#clip100)" d="M2110.87 180.782 L2110.87 188.143 L2119.64 188.143 L2119.64 191.453 L2110.87 191.453 L2110.87 205.527 Q2110.87 208.698 2111.72 209.601 Q2112.6 210.504 2115.27 210.504 L2119.64 210.504 L2119.64 214.069 L2115.27 214.069 Q2110.33 214.069 2108.46 212.24 Q2106.58 210.388 2106.58 205.527 L2106.58 191.453 L2103.46 191.453 L2103.46 188.143 L2106.58 188.143 L2106.58 180.782 L2110.87 180.782 Z" fill="#000000" fill-rule="nonzero" fill-opacity="1" /><path clip-path="url(#clip100)" d="M2135.29 191.129 Q2131.86 191.129 2129.87 193.814 Q2127.88 196.476 2127.88 201.129 Q2127.88 205.782 2129.85 208.467 Q2131.84 211.129 2135.29 211.129 Q2138.69 211.129 2140.68 208.444 Q2142.67 205.758 2142.67 201.129 Q2142.67 196.522 2140.68 193.837 Q2138.69 191.129 2135.29 191.129 M2135.29 187.518 Q2140.84 187.518 2144.02 191.129 Q2147.19 194.74 2147.19 201.129 Q2147.19 207.495 2144.02 211.129 Q2140.84 214.74 2135.29 214.74 Q2129.71 214.74 2126.54 211.129 Q2123.39 207.495 2123.39 201.129 Q2123.39 194.74 2126.54 191.129 Q2129.71 187.518 2135.29 187.518 Z" fill="#000000" fill-rule="nonzero" fill-opacity="1" /><path clip-path="url(#clip100)" d="M2169.27 192.124 Q2168.55 191.708 2167.7 191.522 Q2166.86 191.314 2165.84 191.314 Q2162.23 191.314 2160.29 193.675 Q2158.37 196.013 2158.37 200.411 L2158.37 214.069 L2154.08 214.069 L2154.08 188.143 L2158.37 188.143 L2158.37 192.171 Q2159.71 189.809 2161.86 188.675 Q2164.02 187.518 2167.09 187.518 Q2167.53 187.518 2168.07 187.587 Q2168.6 187.634 2169.25 187.749 L2169.27 192.124 Z" fill="#000000" fill-rule="nonzero" fill-opacity="1" /><path clip-path="url(#clip100)" d="M2185.52 201.036 Q2180.36 201.036 2178.37 202.217 Q2176.38 203.397 2176.38 206.245 Q2176.38 208.513 2177.86 209.856 Q2179.36 211.175 2181.93 211.175 Q2185.47 211.175 2187.6 208.675 Q2189.76 206.152 2189.76 201.985 L2189.76 201.036 L2185.52 201.036 M2194.01 199.277 L2194.01 214.069 L2189.76 214.069 L2189.76 210.133 Q2188.3 212.495 2186.12 213.629 Q2183.95 214.74 2180.8 214.74 Q2176.82 214.74 2174.45 212.518 Q2172.12 210.272 2172.12 206.522 Q2172.12 202.147 2175.03 199.925 Q2177.97 197.703 2183.78 197.703 L2189.76 197.703 L2189.76 197.286 Q2189.76 194.347 2187.81 192.749 Q2185.89 191.129 2182.39 191.129 Q2180.17 191.129 2178.07 191.661 Q2175.96 192.194 2174.02 193.259 L2174.02 189.323 Q2176.35 188.421 2178.55 187.981 Q2180.75 187.518 2182.83 187.518 Q2188.46 187.518 2191.24 190.434 Q2194.01 193.351 2194.01 199.277 Z" fill="#000000" fill-rule="nonzero" fill-opacity="1" /><path clip-path="url(#clip100)" d="M2219.85 200.805 Q2219.85 196.175 2217.93 193.629 Q2216.03 191.083 2212.58 191.083 Q2209.15 191.083 2207.23 193.629 Q2205.33 196.175 2205.33 200.805 Q2205.33 205.411 2207.23 207.958 Q2209.15 210.504 2212.58 210.504 Q2216.03 210.504 2217.93 207.958 Q2219.85 205.411 2219.85 200.805 M2224.11 210.851 Q2224.11 217.471 2221.17 220.689 Q2218.23 223.93 2212.16 223.93 Q2209.92 223.93 2207.93 223.582 Q2205.94 223.258 2204.06 222.564 L2204.06 218.42 Q2205.94 219.439 2207.76 219.925 Q2209.59 220.411 2211.49 220.411 Q2215.68 220.411 2217.76 218.212 Q2219.85 216.036 2219.85 211.615 L2219.85 209.508 Q2218.53 211.8 2216.47 212.934 Q2214.41 214.069 2211.54 214.069 Q2206.77 214.069 2203.85 210.434 Q2200.94 206.8 2200.94 200.805 Q2200.94 194.786 2203.85 191.152 Q2206.77 187.518 2211.54 187.518 Q2214.41 187.518 2216.47 188.652 Q2218.53 189.786 2219.85 192.078 L2219.85 188.143 L2224.11 188.143 L2224.11 210.851 Z" fill="#000000" fill-rule="nonzero" fill-opacity="1" /><path clip-path="url(#clip100)" d="M2255.06 200.041 L2255.06 202.124 L2235.47 202.124 Q2235.75 206.522 2238.11 208.837 Q2240.5 211.129 2244.73 211.129 Q2247.19 211.129 2249.48 210.527 Q2251.79 209.925 2254.06 208.721 L2254.06 212.749 Q2251.77 213.721 2249.36 214.231 Q2246.95 214.74 2244.48 214.74 Q2238.27 214.74 2234.64 211.129 Q2231.03 207.518 2231.03 201.36 Q2231.03 194.995 2234.45 191.268 Q2237.9 187.518 2243.74 187.518 Q2248.97 187.518 2252 190.897 Q2255.06 194.254 2255.06 200.041 M2250.8 198.791 Q2250.75 195.296 2248.83 193.212 Q2246.93 191.129 2243.78 191.129 Q2240.22 191.129 2238.07 193.143 Q2235.94 195.157 2235.61 198.814 L2250.8 198.791 Z" fill="#000000" fill-rule="nonzero" fill-opacity="1" /></svg>
