<?xml version="1.0" encoding="utf-8"?>
<svg xmlns="http://www.w3.org/2000/svg" xmlns:xlink="http://www.w3.org/1999/xlink" width="600" height="400" viewBox="0 0 2400 1600">
<defs>
  <clipPath id="clip850">
    <rect x="0" y="0" width="2400" height="1600"/>
  </clipPath>
</defs>
<path clip-path="url(#clip850)" d="M0 1600 L2400 1600 L2400 0 L0 0  Z" fill="#ffffff" fill-rule="evenodd" fill-opacity="1"/>
<defs>
  <clipPath id="clip851">
    <rect x="480" y="0" width="1681" height="1600"/>
  </clipPath>
</defs>
<path clip-path="url(#clip850)" d="M224.098 1423.18 L2352.76 1423.18 L2352.76 47.2441 L224.098 47.2441  Z" fill="#ffffff" fill-rule="evenodd" fill-opacity="1"/>
<defs>
  <clipPath id="clip852">
    <rect x="224" y="47" width="2130" height="1377"/>
  </clipPath>
</defs>
<polyline clip-path="url(#clip852)" style="stroke:#000000; stroke-linecap:round; stroke-linejoin:round; stroke-width:2; stroke-opacity:0.1; fill:none" points="224.098,1423.18 224.098,47.2441 "/>
<polyline clip-path="url(#clip852)" style="stroke:#000000; stroke-linecap:round; stroke-linejoin:round; stroke-width:2; stroke-opacity:0.1; fill:none" points="756.262,1423.18 756.262,47.2441 "/>
<polyline clip-path="url(#clip852)" style="stroke:#000000; stroke-linecap:round; stroke-linejoin:round; stroke-width:2; stroke-opacity:0.1; fill:none" points="1288.43,1423.18 1288.43,47.2441 "/>
<polyline clip-path="url(#clip852)" style="stroke:#000000; stroke-linecap:round; stroke-linejoin:round; stroke-width:2; stroke-opacity:0.1; fill:none" points="1820.59,1423.18 1820.59,47.2441 "/>
<polyline clip-path="url(#clip852)" style="stroke:#000000; stroke-linecap:round; stroke-linejoin:round; stroke-width:2; stroke-opacity:0.1; fill:none" points="2352.76,1423.18 2352.76,47.2441 "/>
<polyline clip-path="url(#clip852)" style="stroke:#000000; stroke-linecap:round; stroke-linejoin:round; stroke-width:2; stroke-opacity:0.1; fill:none" points="224.098,1348.37 2352.76,1348.37 "/>
<polyline clip-path="url(#clip852)" style="stroke:#000000; stroke-linecap:round; stroke-linejoin:round; stroke-width:2; stroke-opacity:0.1; fill:none" points="224.098,997.891 2352.76,997.891 "/>
<polyline clip-path="url(#clip852)" style="stroke:#000000; stroke-linecap:round; stroke-linejoin:round; stroke-width:2; stroke-opacity:0.1; fill:none" points="224.098,647.407 2352.76,647.407 "/>
<polyline clip-path="url(#clip852)" style="stroke:#000000; stroke-linecap:round; stroke-linejoin:round; stroke-width:2; stroke-opacity:0.1; fill:none" points="224.098,296.923 2352.76,296.923 "/>
<polyline clip-path="url(#clip850)" style="stroke:#000000; stroke-linecap:round; stroke-linejoin:round; stroke-width:4; stroke-opacity:1; fill:none" points="224.098,1423.18 2352.76,1423.18 "/>
<polyline clip-path="url(#clip850)" style="stroke:#000000; stroke-linecap:round; stroke-linejoin:round; stroke-width:4; stroke-opacity:1; fill:none" points="224.098,1423.18 224.098,1404.28 "/>
<polyline clip-path="url(#clip850)" style="stroke:#000000; stroke-linecap:round; stroke-linejoin:round; stroke-width:4; stroke-opacity:1; fill:none" points="756.262,1423.18 756.262,1404.28 "/>
<polyline clip-path="url(#clip850)" style="stroke:#000000; stroke-linecap:round; stroke-linejoin:round; stroke-width:4; stroke-opacity:1; fill:none" points="1288.43,1423.18 1288.43,1404.28 "/>
<polyline clip-path="url(#clip850)" style="stroke:#000000; stroke-linecap:round; stroke-linejoin:round; stroke-width:4; stroke-opacity:1; fill:none" points="1820.59,1423.18 1820.59,1404.28 "/>
<polyline clip-path="url(#clip850)" style="stroke:#000000; stroke-linecap:round; stroke-linejoin:round; stroke-width:4; stroke-opacity:1; fill:none" points="2352.76,1423.18 2352.76,1404.28 "/>
<path clip-path="url(#clip850)" d="M201.482 1454.1 Q197.871 1454.1 196.042 1457.66 Q194.237 1461.2 194.237 1468.33 Q194.237 1475.44 196.042 1479.01 Q197.871 1482.55 201.482 1482.55 Q205.116 1482.55 206.922 1479.01 Q208.751 1475.44 208.751 1468.33 Q208.751 1461.2 206.922 1457.66 Q205.116 1454.1 201.482 1454.1 M201.482 1450.39 Q207.292 1450.39 210.348 1455 Q213.427 1459.58 213.427 1468.33 Q213.427 1477.06 210.348 1481.67 Q207.292 1486.25 201.482 1486.25 Q195.672 1486.25 192.593 1481.67 Q189.538 1477.06 189.538 1468.33 Q189.538 1459.58 192.593 1455 Q195.672 1450.39 201.482 1450.39 Z" fill="#000000" fill-rule="nonzero" fill-opacity="1" /><path clip-path="url(#clip850)" d="M221.644 1479.7 L226.528 1479.7 L226.528 1485.58 L221.644 1485.58 L221.644 1479.7 Z" fill="#000000" fill-rule="nonzero" fill-opacity="1" /><path clip-path="url(#clip850)" d="M246.713 1454.1 Q243.102 1454.1 241.274 1457.66 Q239.468 1461.2 239.468 1468.33 Q239.468 1475.44 241.274 1479.01 Q243.102 1482.55 246.713 1482.55 Q250.348 1482.55 252.153 1479.01 Q253.982 1475.44 253.982 1468.33 Q253.982 1461.2 252.153 1457.66 Q250.348 1454.1 246.713 1454.1 M246.713 1450.39 Q252.524 1450.39 255.579 1455 Q258.658 1459.58 258.658 1468.33 Q258.658 1477.06 255.579 1481.67 Q252.524 1486.25 246.713 1486.25 Q240.903 1486.25 237.825 1481.67 Q234.769 1477.06 234.769 1468.33 Q234.769 1459.58 237.825 1455 Q240.903 1450.39 246.713 1450.39 Z" fill="#000000" fill-rule="nonzero" fill-opacity="1" /><path clip-path="url(#clip850)" d="M734.144 1454.1 Q730.533 1454.1 728.705 1457.66 Q726.899 1461.2 726.899 1468.33 Q726.899 1475.44 728.705 1479.01 Q730.533 1482.55 734.144 1482.55 Q737.779 1482.55 739.584 1479.01 Q741.413 1475.44 741.413 1468.33 Q741.413 1461.2 739.584 1457.66 Q737.779 1454.1 734.144 1454.1 M734.144 1450.39 Q739.955 1450.39 743.01 1455 Q746.089 1459.58 746.089 1468.33 Q746.089 1477.06 743.01 1481.67 Q739.955 1486.25 734.144 1486.25 Q728.334 1486.25 725.256 1481.67 Q722.2 1477.06 722.2 1468.33 Q722.2 1459.58 725.256 1455 Q728.334 1450.39 734.144 1450.39 Z" fill="#000000" fill-rule="nonzero" fill-opacity="1" /><path clip-path="url(#clip850)" d="M754.306 1479.7 L759.191 1479.7 L759.191 1485.58 L754.306 1485.58 L754.306 1479.7 Z" fill="#000000" fill-rule="nonzero" fill-opacity="1" /><path clip-path="url(#clip850)" d="M769.422 1451.02 L787.778 1451.02 L787.778 1454.96 L773.704 1454.96 L773.704 1463.43 Q774.723 1463.08 775.741 1462.92 Q776.76 1462.73 777.778 1462.73 Q783.565 1462.73 786.945 1465.9 Q790.325 1469.08 790.325 1474.49 Q790.325 1480.07 786.852 1483.17 Q783.38 1486.25 777.061 1486.25 Q774.885 1486.25 772.616 1485.88 Q770.371 1485.51 767.964 1484.77 L767.964 1480.07 Q770.047 1481.2 772.269 1481.76 Q774.491 1482.32 776.968 1482.32 Q780.973 1482.32 783.311 1480.21 Q785.649 1478.1 785.649 1474.49 Q785.649 1470.88 783.311 1468.77 Q780.973 1466.67 776.968 1466.67 Q775.093 1466.67 773.218 1467.08 Q771.366 1467.5 769.422 1468.38 L769.422 1451.02 Z" fill="#000000" fill-rule="nonzero" fill-opacity="1" /><path clip-path="url(#clip850)" d="M1255.58 1481.64 L1263.22 1481.64 L1263.22 1455.28 L1254.91 1456.95 L1254.91 1452.69 L1263.17 1451.02 L1267.85 1451.02 L1267.85 1481.64 L1275.49 1481.64 L1275.49 1485.58 L1255.58 1485.58 L1255.58 1481.64 Z" fill="#000000" fill-rule="nonzero" fill-opacity="1" /><path clip-path="url(#clip850)" d="M1284.93 1479.7 L1289.82 1479.7 L1289.82 1485.58 L1284.93 1485.58 L1284.93 1479.7 Z" fill="#000000" fill-rule="nonzero" fill-opacity="1" /><path clip-path="url(#clip850)" d="M1310 1454.1 Q1306.39 1454.1 1304.56 1457.66 Q1302.76 1461.2 1302.76 1468.33 Q1302.76 1475.44 1304.56 1479.01 Q1306.39 1482.55 1310 1482.55 Q1313.64 1482.55 1315.44 1479.01 Q1317.27 1475.44 1317.27 1468.33 Q1317.27 1461.2 1315.44 1457.66 Q1313.64 1454.1 1310 1454.1 M1310 1450.39 Q1315.81 1450.39 1318.87 1455 Q1321.95 1459.58 1321.95 1468.33 Q1321.95 1477.06 1318.87 1481.67 Q1315.81 1486.25 1310 1486.25 Q1304.19 1486.25 1301.11 1481.67 Q1298.06 1477.06 1298.06 1468.33 Q1298.06 1459.58 1301.11 1455 Q1304.19 1450.39 1310 1450.39 Z" fill="#000000" fill-rule="nonzero" fill-opacity="1" /><path clip-path="url(#clip850)" d="M1788.24 1481.64 L1795.88 1481.64 L1795.88 1455.28 L1787.57 1456.95 L1787.57 1452.69 L1795.83 1451.02 L1800.51 1451.02 L1800.51 1481.64 L1808.15 1481.64 L1808.15 1485.58 L1788.24 1485.58 L1788.24 1481.64 Z" fill="#000000" fill-rule="nonzero" fill-opacity="1" /><path clip-path="url(#clip850)" d="M1817.59 1479.7 L1822.48 1479.7 L1822.48 1485.58 L1817.59 1485.58 L1817.59 1479.7 Z" fill="#000000" fill-rule="nonzero" fill-opacity="1" /><path clip-path="url(#clip850)" d="M1832.71 1451.02 L1851.07 1451.02 L1851.07 1454.96 L1836.99 1454.96 L1836.99 1463.43 Q1838.01 1463.08 1839.03 1462.92 Q1840.05 1462.73 1841.07 1462.73 Q1846.85 1462.73 1850.23 1465.9 Q1853.61 1469.08 1853.61 1474.49 Q1853.61 1480.07 1850.14 1483.17 Q1846.67 1486.25 1840.35 1486.25 Q1838.17 1486.25 1835.9 1485.88 Q1833.66 1485.51 1831.25 1484.77 L1831.25 1480.07 Q1833.33 1481.2 1835.56 1481.76 Q1837.78 1482.32 1840.26 1482.32 Q1844.26 1482.32 1846.6 1480.21 Q1848.94 1478.1 1848.94 1474.49 Q1848.94 1470.88 1846.6 1468.77 Q1844.26 1466.67 1840.26 1466.67 Q1838.38 1466.67 1836.51 1467.08 Q1834.65 1467.5 1832.71 1468.38 L1832.71 1451.02 Z" fill="#000000" fill-rule="nonzero" fill-opacity="1" /><path clip-path="url(#clip850)" d="M2323.99 1481.64 L2340.31 1481.64 L2340.31 1485.58 L2318.37 1485.58 L2318.37 1481.64 Q2321.03 1478.89 2325.61 1474.26 Q2330.22 1469.61 2331.4 1468.27 Q2333.65 1465.74 2334.53 1464.01 Q2335.43 1462.25 2335.43 1460.56 Q2335.43 1457.8 2333.49 1456.07 Q2331.56 1454.33 2328.46 1454.33 Q2326.26 1454.33 2323.81 1455.09 Q2321.38 1455.86 2318.6 1457.41 L2318.6 1452.69 Q2321.43 1451.55 2323.88 1450.97 Q2326.33 1450.39 2328.37 1450.39 Q2333.74 1450.39 2336.93 1453.08 Q2340.13 1455.77 2340.13 1460.26 Q2340.13 1462.39 2339.32 1464.31 Q2338.53 1466.2 2336.42 1468.8 Q2335.85 1469.47 2332.74 1472.69 Q2329.64 1475.88 2323.99 1481.64 Z" fill="#000000" fill-rule="nonzero" fill-opacity="1" /><path clip-path="url(#clip850)" d="M2350.13 1479.7 L2355.01 1479.7 L2355.01 1485.58 L2350.13 1485.58 L2350.13 1479.7 Z" fill="#000000" fill-rule="nonzero" fill-opacity="1" /><path clip-path="url(#clip850)" d="M2375.2 1454.1 Q2371.59 1454.1 2369.76 1457.66 Q2367.95 1461.2 2367.95 1468.33 Q2367.95 1475.44 2369.76 1479.01 Q2371.59 1482.55 2375.2 1482.55 Q2378.83 1482.55 2380.64 1479.01 Q2382.47 1475.44 2382.47 1468.33 Q2382.47 1461.2 2380.64 1457.66 Q2378.83 1454.1 2375.2 1454.1 M2375.2 1450.39 Q2381.01 1450.39 2384.06 1455 Q2387.14 1459.58 2387.14 1468.33 Q2387.14 1477.06 2384.06 1481.67 Q2381.01 1486.25 2375.2 1486.25 Q2369.39 1486.25 2366.31 1481.67 Q2363.25 1477.06 2363.25 1468.33 Q2363.25 1459.58 2366.31 1455 Q2369.39 1450.39 2375.2 1450.39 Z" fill="#000000" fill-rule="nonzero" fill-opacity="1" /><path clip-path="url(#clip850)" d="M1287.49 1522.27 L1287.49 1532.4 L1299.55 1532.4 L1299.55 1536.95 L1287.49 1536.95 L1287.49 1556.3 Q1287.49 1560.66 1288.67 1561.9 Q1289.88 1563.14 1293.54 1563.14 L1299.55 1563.14 L1299.55 1568.04 L1293.54 1568.04 Q1286.76 1568.04 1284.18 1565.53 Q1281.6 1562.98 1281.6 1556.3 L1281.6 1536.95 L1277.3 1536.95 L1277.3 1532.4 L1281.6 1532.4 L1281.6 1522.27 L1287.49 1522.27 Z" fill="#000000" fill-rule="nonzero" fill-opacity="1" /><polyline clip-path="url(#clip850)" style="stroke:#000000; stroke-linecap:round; stroke-linejoin:round; stroke-width:4; stroke-opacity:1; fill:none" points="224.098,1423.18 224.098,47.2441 "/>
<polyline clip-path="url(#clip850)" style="stroke:#000000; stroke-linecap:round; stroke-linejoin:round; stroke-width:4; stroke-opacity:1; fill:none" points="224.098,1348.37 242.996,1348.37 "/>
<polyline clip-path="url(#clip850)" style="stroke:#000000; stroke-linecap:round; stroke-linejoin:round; stroke-width:4; stroke-opacity:1; fill:none" points="224.098,997.891 242.996,997.891 "/>
<polyline clip-path="url(#clip850)" style="stroke:#000000; stroke-linecap:round; stroke-linejoin:round; stroke-width:4; stroke-opacity:1; fill:none" points="224.098,647.407 242.996,647.407 "/>
<polyline clip-path="url(#clip850)" style="stroke:#000000; stroke-linecap:round; stroke-linejoin:round; stroke-width:4; stroke-opacity:1; fill:none" points="224.098,296.923 242.996,296.923 "/>
<path clip-path="url(#clip850)" d="M50.9921 1348.83 L80.6679 1348.83 L80.6679 1352.76 L50.9921 1352.76 L50.9921 1348.83 Z" fill="#000000" fill-rule="nonzero" fill-opacity="1" /><path clip-path="url(#clip850)" d="M100.76 1334.17 Q97.1493 1334.17 95.3206 1337.74 Q93.515 1341.28 93.515 1348.41 Q93.515 1355.52 95.3206 1359.08 Q97.1493 1362.62 100.76 1362.62 Q104.395 1362.62 106.2 1359.08 Q108.029 1355.52 108.029 1348.41 Q108.029 1341.28 106.2 1337.74 Q104.395 1334.17 100.76 1334.17 M100.76 1330.47 Q106.571 1330.47 109.626 1335.08 Q112.705 1339.66 112.705 1348.41 Q112.705 1357.14 109.626 1361.74 Q106.571 1366.33 100.76 1366.33 Q94.9502 1366.33 91.8715 1361.74 Q88.816 1357.14 88.816 1348.41 Q88.816 1339.66 91.8715 1335.08 Q94.9502 1330.47 100.76 1330.47 Z" fill="#000000" fill-rule="nonzero" fill-opacity="1" /><path clip-path="url(#clip850)" d="M120.922 1359.77 L125.807 1359.77 L125.807 1365.65 L120.922 1365.65 L120.922 1359.77 Z" fill="#000000" fill-rule="nonzero" fill-opacity="1" /><path clip-path="url(#clip850)" d="M136.802 1361.72 L144.441 1361.72 L144.441 1335.35 L136.131 1337.02 L136.131 1332.76 L144.394 1331.09 L149.07 1331.09 L149.07 1361.72 L156.709 1361.72 L156.709 1365.65 L136.802 1365.65 L136.802 1361.72 Z" fill="#000000" fill-rule="nonzero" fill-opacity="1" /><path clip-path="url(#clip850)" d="M176.153 1334.17 Q172.542 1334.17 170.714 1337.74 Q168.908 1341.28 168.908 1348.41 Q168.908 1355.52 170.714 1359.08 Q172.542 1362.62 176.153 1362.62 Q179.788 1362.62 181.593 1359.08 Q183.422 1355.52 183.422 1348.41 Q183.422 1341.28 181.593 1337.74 Q179.788 1334.17 176.153 1334.17 M176.153 1330.47 Q181.964 1330.47 185.019 1335.08 Q188.098 1339.66 188.098 1348.41 Q188.098 1357.14 185.019 1361.74 Q181.964 1366.33 176.153 1366.33 Q170.343 1366.33 167.265 1361.74 Q164.209 1357.14 164.209 1348.41 Q164.209 1339.66 167.265 1335.08 Q170.343 1330.47 176.153 1330.47 Z" fill="#000000" fill-rule="nonzero" fill-opacity="1" /><path clip-path="url(#clip850)" d="M51.9875 998.342 L81.6633 998.342 L81.6633 1002.28 L51.9875 1002.28 L51.9875 998.342 Z" fill="#000000" fill-rule="nonzero" fill-opacity="1" /><path clip-path="url(#clip850)" d="M101.756 983.69 Q98.1447 983.69 96.316 987.254 Q94.5104 990.796 94.5104 997.926 Q94.5104 1005.03 96.316 1008.6 Q98.1447 1012.14 101.756 1012.14 Q105.39 1012.14 107.196 1008.6 Q109.024 1005.03 109.024 997.926 Q109.024 990.796 107.196 987.254 Q105.39 983.69 101.756 983.69 M101.756 979.986 Q107.566 979.986 110.621 984.592 Q113.7 989.176 113.7 997.926 Q113.7 1006.65 110.621 1011.26 Q107.566 1015.84 101.756 1015.84 Q95.9456 1015.84 92.8669 1011.26 Q89.8114 1006.65 89.8114 997.926 Q89.8114 989.176 92.8669 984.592 Q95.9456 979.986 101.756 979.986 Z" fill="#000000" fill-rule="nonzero" fill-opacity="1" /><path clip-path="url(#clip850)" d="M121.918 1009.29 L126.802 1009.29 L126.802 1015.17 L121.918 1015.17 L121.918 1009.29 Z" fill="#000000" fill-rule="nonzero" fill-opacity="1" /><path clip-path="url(#clip850)" d="M146.987 983.69 Q143.376 983.69 141.547 987.254 Q139.742 990.796 139.742 997.926 Q139.742 1005.03 141.547 1008.6 Q143.376 1012.14 146.987 1012.14 Q150.621 1012.14 152.427 1008.6 Q154.255 1005.03 154.255 997.926 Q154.255 990.796 152.427 987.254 Q150.621 983.69 146.987 983.69 M146.987 979.986 Q152.797 979.986 155.853 984.592 Q158.931 989.176 158.931 997.926 Q158.931 1006.65 155.853 1011.26 Q152.797 1015.84 146.987 1015.84 Q141.177 1015.84 138.098 1011.26 Q135.043 1006.65 135.043 997.926 Q135.043 989.176 138.098 984.592 Q141.177 979.986 146.987 979.986 Z" fill="#000000" fill-rule="nonzero" fill-opacity="1" /><path clip-path="url(#clip850)" d="M167.195 980.611 L185.552 980.611 L185.552 984.546 L171.478 984.546 L171.478 993.018 Q172.496 992.671 173.515 992.509 Q174.533 992.324 175.552 992.324 Q181.339 992.324 184.718 995.495 Q188.098 998.666 188.098 1004.08 Q188.098 1009.66 184.626 1012.76 Q181.153 1015.84 174.834 1015.84 Q172.658 1015.84 170.39 1015.47 Q168.144 1015.1 165.737 1014.36 L165.737 1009.66 Q167.82 1010.8 170.042 1011.35 Q172.265 1011.91 174.741 1011.91 Q178.746 1011.91 181.084 1009.8 Q183.422 1007.69 183.422 1004.08 Q183.422 1000.47 181.084 998.365 Q178.746 996.259 174.741 996.259 Q172.866 996.259 170.991 996.676 Q169.14 997.092 167.195 997.972 L167.195 980.611 Z" fill="#000000" fill-rule="nonzero" fill-opacity="1" /><path clip-path="url(#clip850)" d="M100.76 633.206 Q97.1493 633.206 95.3206 636.771 Q93.515 640.312 93.515 647.442 Q93.515 654.548 95.3206 658.113 Q97.1493 661.655 100.76 661.655 Q104.395 661.655 106.2 658.113 Q108.029 654.548 108.029 647.442 Q108.029 640.312 106.2 636.771 Q104.395 633.206 100.76 633.206 M100.76 629.502 Q106.571 629.502 109.626 634.109 Q112.705 638.692 112.705 647.442 Q112.705 656.169 109.626 660.775 Q106.571 665.358 100.76 665.358 Q94.9502 665.358 91.8715 660.775 Q88.816 656.169 88.816 647.442 Q88.816 638.692 91.8715 634.109 Q94.9502 629.502 100.76 629.502 Z" fill="#000000" fill-rule="nonzero" fill-opacity="1" /><path clip-path="url(#clip850)" d="M120.922 658.808 L125.807 658.808 L125.807 664.687 L120.922 664.687 L120.922 658.808 Z" fill="#000000" fill-rule="nonzero" fill-opacity="1" /><path clip-path="url(#clip850)" d="M145.992 633.206 Q142.381 633.206 140.552 636.771 Q138.746 640.312 138.746 647.442 Q138.746 654.548 140.552 658.113 Q142.381 661.655 145.992 661.655 Q149.626 661.655 151.431 658.113 Q153.26 654.548 153.26 647.442 Q153.26 640.312 151.431 636.771 Q149.626 633.206 145.992 633.206 M145.992 629.502 Q151.802 629.502 154.857 634.109 Q157.936 638.692 157.936 647.442 Q157.936 656.169 154.857 660.775 Q151.802 665.358 145.992 665.358 Q140.181 665.358 137.103 660.775 Q134.047 656.169 134.047 647.442 Q134.047 638.692 137.103 634.109 Q140.181 629.502 145.992 629.502 Z" fill="#000000" fill-rule="nonzero" fill-opacity="1" /><path clip-path="url(#clip850)" d="M176.153 633.206 Q172.542 633.206 170.714 636.771 Q168.908 640.312 168.908 647.442 Q168.908 654.548 170.714 658.113 Q172.542 661.655 176.153 661.655 Q179.788 661.655 181.593 658.113 Q183.422 654.548 183.422 647.442 Q183.422 640.312 181.593 636.771 Q179.788 633.206 176.153 633.206 M176.153 629.502 Q181.964 629.502 185.019 634.109 Q188.098 638.692 188.098 647.442 Q188.098 656.169 185.019 660.775 Q181.964 665.358 176.153 665.358 Q170.343 665.358 167.265 660.775 Q164.209 656.169 164.209 647.442 Q164.209 638.692 167.265 634.109 Q170.343 629.502 176.153 629.502 Z" fill="#000000" fill-rule="nonzero" fill-opacity="1" /><path clip-path="url(#clip850)" d="M101.756 282.722 Q98.1447 282.722 96.316 286.287 Q94.5104 289.829 94.5104 296.958 Q94.5104 304.065 96.316 307.629 Q98.1447 311.171 101.756 311.171 Q105.39 311.171 107.196 307.629 Q109.024 304.065 109.024 296.958 Q109.024 289.829 107.196 286.287 Q105.39 282.722 101.756 282.722 M101.756 279.018 Q107.566 279.018 110.621 283.625 Q113.7 288.208 113.7 296.958 Q113.7 305.685 110.621 310.291 Q107.566 314.875 101.756 314.875 Q95.9456 314.875 92.8669 310.291 Q89.8114 305.685 89.8114 296.958 Q89.8114 288.208 92.8669 283.625 Q95.9456 279.018 101.756 279.018 Z" fill="#000000" fill-rule="nonzero" fill-opacity="1" /><path clip-path="url(#clip850)" d="M121.918 308.324 L126.802 308.324 L126.802 314.203 L121.918 314.203 L121.918 308.324 Z" fill="#000000" fill-rule="nonzero" fill-opacity="1" /><path clip-path="url(#clip850)" d="M146.987 282.722 Q143.376 282.722 141.547 286.287 Q139.742 289.829 139.742 296.958 Q139.742 304.065 141.547 307.629 Q143.376 311.171 146.987 311.171 Q150.621 311.171 152.427 307.629 Q154.255 304.065 154.255 296.958 Q154.255 289.829 152.427 286.287 Q150.621 282.722 146.987 282.722 M146.987 279.018 Q152.797 279.018 155.853 283.625 Q158.931 288.208 158.931 296.958 Q158.931 305.685 155.853 310.291 Q152.797 314.875 146.987 314.875 Q141.177 314.875 138.098 310.291 Q135.043 305.685 135.043 296.958 Q135.043 288.208 138.098 283.625 Q141.177 279.018 146.987 279.018 Z" fill="#000000" fill-rule="nonzero" fill-opacity="1" /><path clip-path="url(#clip850)" d="M167.195 279.643 L185.552 279.643 L185.552 283.579 L171.478 283.579 L171.478 292.051 Q172.496 291.703 173.515 291.541 Q174.533 291.356 175.552 291.356 Q181.339 291.356 184.718 294.528 Q188.098 297.699 188.098 303.115 Q188.098 308.694 184.626 311.796 Q181.153 314.875 174.834 314.875 Q172.658 314.875 170.39 314.504 Q168.144 314.134 165.737 313.393 L165.737 308.694 Q167.82 309.828 170.042 310.384 Q172.265 310.94 174.741 310.94 Q178.746 310.94 181.084 308.833 Q183.422 306.727 183.422 303.115 Q183.422 299.504 181.084 297.398 Q178.746 295.291 174.741 295.291 Q172.866 295.291 170.991 295.708 Q169.14 296.125 167.195 297.004 L167.195 279.643 Z" fill="#000000" fill-rule="nonzero" fill-opacity="1" /><polyline clip-path="url(#clip852)" style="stroke:#009af9; stroke-linecap:round; stroke-linejoin:round; stroke-width:4; stroke-opacity:1; fill:none" points="224.098,86.1857 226.229,91.3766 228.359,96.5159 230.49,101.604 232.621,106.641 234.752,111.629 236.883,116.566 239.013,121.454 241.144,126.294 243.275,131.086 245.406,135.829 247.537,140.526 249.667,145.176 251.798,149.779 253.929,154.336 256.06,158.849 258.19,163.316 260.321,167.739 262.452,172.117 264.583,176.452 266.714,180.744 268.844,184.993 270.975,189.2 273.106,193.365 275.237,197.488 277.368,201.571 279.498,205.613 281.629,209.614 283.76,213.576 285.891,217.498 288.022,221.381 290.152,225.225 292.283,229.031 294.414,232.8 296.545,236.53 298.675,240.224 300.806,243.88 302.937,247.501 305.068,251.085 307.199,254.633 309.329,258.147 311.46,261.625 313.591,265.068 315.722,268.478 317.853,271.853 319.983,275.195 322.114,278.503 324.245,281.778 326.376,285.021 328.507,288.232 330.637,291.41 332.768,294.557 334.899,297.673 337.03,300.757 339.16,303.811 341.291,306.835 343.422,309.828 345.553,312.791 347.684,315.725 349.814,318.63 351.945,321.506 354.076,324.353 356.207,327.172 358.338,329.963 360.468,332.725 362.599,335.461 364.73,338.169 366.861,340.85 368.992,343.505 371.122,346.133 373.253,348.734 375.384,351.31 377.515,353.861 379.645,356.385 381.776,358.885 383.907,361.36 386.038,363.81 388.169,366.236 390.299,368.638 392.43,371.015 394.561,373.369 396.692,375.7 398.823,378.007 400.953,380.292 403.084,382.553 405.215,384.792 407.346,387.009 409.477,389.204 411.607,391.377 413.738,393.528 415.869,395.658 418,397.767 420.13,399.854 422.261,401.921 424.392,403.967 426.523,405.993 428.654,407.999 430.784,409.984 432.915,411.95 435.046,413.896 437.177,415.823 439.308,417.731 441.438,419.62 443.569,421.49 445.7,423.341 447.831,425.174 449.961,426.988 452.092,428.785 454.223,430.563 456.354,432.324 458.485,434.068 460.615,435.794 462.746,437.503 464.877,439.194 467.008,440.869 469.139,442.528 471.269,444.169 473.4,445.795 475.531,447.404 477.662,448.997 479.793,450.574 481.923,452.136 484.054,453.682 486.185,455.213 488.316,456.728 490.446,458.229 492.577,459.714 494.708,461.185 496.839,462.641 498.97,464.082 501.1,465.509 503.231,466.922 505.362,468.321 507.493,469.706 509.624,471.077 511.754,472.434 513.885,473.778 516.016,475.109 518.147,476.426 520.278,477.73 522.408,479.021 524.539,480.299 526.67,481.565 528.801,482.818 530.931,484.058 533.062,485.286 535.193,486.502 537.324,487.706 539.455,488.897 541.585,490.077 543.716,491.245 545.847,492.402 547.978,493.547 550.109,494.681 552.239,495.803 554.37,496.914 556.501,498.014 558.632,499.103 560.763,500.181 562.893,501.249 565.024,502.306 567.155,503.352 569.286,504.388 571.416,505.414 573.547,506.429 575.678,507.435 577.809,508.43 579.94,509.416 582.07,510.391 584.201,511.357 586.332,512.313 588.463,513.26 590.594,514.197 592.724,515.125 594.855,516.044 596.986,516.954 599.117,517.854 601.247,518.746 603.378,519.628 605.509,520.502 607.64,521.367 609.771,522.224 611.901,523.072 614.032,523.911 616.163,524.742 618.294,525.565 620.425,526.38 622.555,527.186 624.686,527.985 626.817,528.775 628.948,529.558 631.079,530.333 633.209,531.1 635.34,531.859 637.471,532.611 639.602,533.356 641.732,534.093 643.863,534.823 645.994,535.545 648.125,536.26 650.256,536.968 652.386,537.67 654.517,538.364 656.648,539.051 658.779,539.731 660.91,540.405 663.04,541.072 665.171,541.732 667.302,542.386 669.433,543.033 671.564,543.674 673.694,544.308 675.825,544.936 677.956,545.558 680.087,546.174 682.217,546.783 684.348,547.387 686.479,547.984 688.61,548.575 690.741,549.161 692.871,549.741 695.002,550.315 697.133,550.883 699.264,551.446 701.395,552.002 703.525,552.554 705.656,553.1 707.787,553.64 709.918,554.175 712.049,554.705 714.179,555.23 716.31,555.749 718.441,556.263 720.572,556.772 722.702,557.276 724.833,557.774 726.964,558.268 729.095,558.757 731.226,559.241 733.356,559.721 735.487,560.195 737.618,560.665 739.749,561.13 741.88,561.59 744.01,562.046 746.141,562.497 748.272,562.944 750.403,563.386 752.534,563.824 754.664,564.258 756.795,564.687 758.926,565.112 761.057,565.533 763.187,565.949 765.318,566.362 767.449,566.77 769.58,567.174 771.711,567.575 773.841,567.971 775.972,568.363 778.103,568.752 780.234,569.136 782.365,569.517 784.495,569.894 786.626,570.267 788.757,570.637 790.888,571.002 793.018,571.365 795.149,571.723 797.28,572.078 799.411,572.43 801.542,572.778 803.672,573.122 805.803,573.463 807.934,573.801 810.065,574.135 812.196,574.466 814.326,574.794 816.457,575.119 818.588,575.44 820.719,575.758 822.85,576.073 824.98,576.384 827.111,576.693 829.242,576.998 831.373,577.301 833.503,577.6 835.634,577.897 837.765,578.19 839.896,578.481 842.027,578.768 844.157,579.053 846.288,579.335 848.419,579.614 850.55,579.89 852.681,580.164 854.811,580.435 856.942,580.703 859.073,580.968 861.204,581.231 863.335,581.491 865.465,581.749 867.596,582.004 869.727,582.257 871.858,582.507 873.988,582.754 876.119,582.999 878.25,583.242 880.381,583.482 882.512,583.72 884.642,583.955 886.773,584.188 888.904,584.419 891.035,584.647 893.166,584.873 895.296,585.097 897.427,585.319 899.558,585.539 901.689,585.756 903.82,585.971 905.95,586.184 908.081,586.395 910.212,586.604 912.343,586.811 914.473,587.015 916.604,587.218 918.735,587.419 920.866,587.617 922.997,587.814 925.127,588.009 927.258,588.202 929.389,588.392 931.52,588.581 933.651,588.769 935.781,588.954 937.912,589.137 940.043,589.319 942.174,589.499 944.304,589.677 946.435,589.853 948.566,590.027 950.697,590.2 952.828,590.371 954.958,590.54 957.089,590.708 959.22,590.874 961.351,591.038 963.482,591.201 965.612,591.362 967.743,591.521 969.874,591.679 972.005,591.835 974.136,591.99 976.266,592.143 978.397,592.294 980.528,592.444 982.659,592.593 984.789,592.74 986.92,592.886 989.051,593.03 991.182,593.172 993.313,593.314 995.443,593.454 997.574,593.592 999.705,593.729 1001.84,593.865 1003.97,593.999 1006.1,594.132 1008.23,594.264 1010.36,594.394 1012.49,594.524 1014.62,594.651 1016.75,594.778 1018.88,594.903 1021.01,595.027 1023.14,595.15 1025.27,595.271 1027.41,595.392 1029.54,595.511 1031.67,595.629 1033.8,595.746 1035.93,595.861 1038.06,595.976 1040.19,596.089 1042.32,596.201 1044.45,596.313 1046.58,596.423 1048.71,596.532 1050.84,596.639 1052.97,596.746 1055.11,596.852 1057.24,596.957 1059.37,597.06 1061.5,597.163 1063.63,597.264 1065.76,597.365 1067.89,597.465 1070.02,597.563 1072.15,597.661 1074.28,597.758 1076.41,597.853 1078.54,597.948 1080.67,598.042 1082.81,598.135 1084.94,598.227 1087.07,598.318 1089.2,598.408 1091.33,598.497 1093.46,598.585 1095.59,598.673 1097.72,598.759 1099.85,598.845 1101.98,598.93 1104.11,599.014 1106.24,599.097 1108.38,599.18 1110.51,599.261 1112.64,599.342 1114.77,599.422 1116.9,599.501 1119.03,599.579 1121.16,599.657 1123.29,599.733 1125.42,599.809 1127.55,599.885 1129.68,599.959 1131.81,600.033 1133.94,600.106 1136.08,600.178 1138.21,600.25 1140.34,600.32 1142.47,600.39 1144.6,600.46 1146.73,600.529 1148.86,600.597 1150.99,600.664 1153.12,600.731 1155.25,600.797 1157.38,600.862 1159.51,600.927 1161.64,600.991 1163.78,601.054 1165.91,601.117 1168.04,601.179 1170.17,601.241 1172.3,601.301 1174.43,601.362 1176.56,601.421 1178.69,601.481 1180.82,601.539 1182.95,601.597 1185.08,601.654 1187.21,601.711 1189.35,601.767 1191.48,601.823 1193.61,601.878 1195.74,601.933 1197.87,601.987 1200,602.04 1202.13,602.093 1204.26,602.146 1206.39,602.198 1208.52,602.249 1210.65,602.3 1212.78,602.35 1214.91,602.4 1217.05,602.45 1219.18,602.499 1221.31,602.547 1223.44,602.595 1225.57,602.642 1227.7,602.689 1229.83,602.736 1231.96,602.782 1234.09,602.828 1236.22,602.873 1238.35,602.918 1240.48,602.962 1242.61,603.006 1244.75,603.049 1246.88,603.092 1249.01,603.135 1251.14,603.177 1253.27,603.219 1255.4,603.26 1257.53,603.301 1259.66,603.341 1261.79,603.381 1263.92,603.421 1266.05,603.46 1268.18,603.499 1270.32,603.538 1272.45,603.576 1274.58,603.614 1276.71,603.651 1278.84,603.688 1280.97,603.724 1283.1,603.761 1285.23,603.797 1287.36,603.832 1289.49,603.867 1291.62,603.902 1293.75,603.937 1295.88,603.971 1298.02,604.004 1300.15,604.038 1302.28,604.071 1304.41,604.104 1306.54,604.136 1308.67,604.168 1310.8,604.2 1312.93,604.232 1315.06,604.263 1317.19,604.294 1319.32,604.324 1321.45,604.354 1323.58,604.384 1325.72,604.414 1327.85,604.443 1329.98,604.472 1332.11,604.501 1334.24,604.529 1336.37,604.558 1338.5,604.585 1340.63,604.613 1342.76,604.64 1344.89,604.667 1347.02,604.694 1349.15,604.721 1351.29,604.747 1353.42,604.773 1355.55,604.799 1357.68,604.824 1359.81,604.85 1361.94,604.874 1364.07,604.899 1366.2,604.924 1368.33,604.948 1370.46,604.972 1372.59,604.996 1374.72,605.019 1376.85,605.043 1378.99,605.066 1381.12,605.088 1383.25,605.111 1385.38,605.133 1387.51,605.156 1389.64,605.178 1391.77,605.199 1393.9,605.221 1396.03,605.242 1398.16,605.263 1400.29,605.284 1402.42,605.305 1404.55,605.325 1406.69,605.346 1408.82,605.366 1410.95,605.386 1413.08,605.405 1415.21,605.425 1417.34,605.444 1419.47,605.463 1421.6,605.482 1423.73,605.501 1425.86,605.52 1427.99,605.538 1430.12,605.556 1432.26,605.574 1434.39,605.592 1436.52,605.61 1438.65,605.627 1440.78,605.644 1442.91,605.661 1445.04,605.678 1447.17,605.695 1449.3,605.712 1451.43,605.728 1453.56,605.745 1455.69,605.761 1457.82,605.777 1459.96,605.792 1462.09,605.808 1464.22,605.824 1466.35,605.839 1468.48,605.854 1470.61,605.869 1472.74,605.884 1474.87,605.899 1477,605.913 1479.13,605.928 1481.26,605.942 1483.39,605.956 1485.52,605.97 1487.66,605.984 1489.79,605.998 1491.92,606.011 1494.05,606.025 1496.18,606.038 1498.31,606.051 1500.44,606.064 1502.57,606.077 1504.7,606.09 1506.83,606.102 1508.96,606.115 1511.09,606.127 1513.23,606.14 1515.36,606.152 1517.49,606.164 1519.62,606.176 1521.75,606.187 1523.88,606.199 1526.01,606.211 1528.14,606.222 1530.27,606.233 1532.4,606.245 1534.53,606.256 1536.66,606.267 1538.79,606.278 1540.93,606.288 1543.06,606.299 1545.19,606.31 1547.32,606.32 1549.45,606.33 1551.58,606.341 1553.71,606.351 1555.84,606.361 1557.97,606.371 1560.1,606.381 1562.23,606.39 1564.36,606.4 1566.49,606.41 1568.63,606.419 1570.76,606.428 1572.89,606.438 1575.02,606.447 1577.15,606.456 1579.28,606.465 1581.41,606.474 1583.54,606.483 1585.67,606.491 1587.8,606.5 1589.93,606.509 1592.06,606.517 1594.2,606.526 1596.33,606.534 1598.46,606.542 1600.59,606.55 1602.72,606.558 1604.85,606.566 1606.98,606.574 1609.11,606.582 1611.24,606.59 1613.37,606.598 1615.5,606.605 1617.63,606.613 1619.76,606.62 1621.9,606.628 1624.03,606.635 1626.16,606.642 1628.29,606.649 1630.42,606.657 1632.55,606.664 1634.68,606.671 1636.81,606.677 1638.94,606.684 1641.07,606.691 1643.2,606.698 1645.33,606.704 1647.46,606.711 1649.6,606.717 1651.73,606.724 1653.86,606.73 1655.99,606.736 1658.12,606.743 1660.25,606.749 1662.38,606.755 1664.51,606.761 1666.64,606.767 1668.77,606.773 1670.9,606.779 1673.03,606.784 1675.17,606.79 1677.3,606.796 1679.43,606.802 1681.56,606.807 1683.69,606.813 1685.82,606.818 1687.95,606.824 1690.08,606.829 1692.21,606.834 1694.34,606.839 1696.47,606.845 1698.6,606.85 1700.73,606.855 1702.87,606.86 1705,606.865 1707.13,606.87 1709.26,606.875 1711.39,606.879 1713.52,606.884 1715.65,606.889 1717.78,606.894 1719.91,606.898 1722.04,606.903 1724.17,606.907 1726.3,606.912 1728.43,606.916 1730.57,606.921 1732.7,606.925 1734.83,606.93 1736.96,606.934 1739.09,606.938 1741.22,606.942 1743.35,606.946 1745.48,606.951 1747.61,606.955 1749.74,606.959 1751.87,606.963 1754,606.967 1756.14,606.971 1758.27,606.974 1760.4,606.978 1762.53,606.982 1764.66,606.986 1766.79,606.99 1768.92,606.993 1771.05,606.997 1773.18,607.001 1775.31,607.004 1777.44,607.008 1779.57,607.011 1781.7,607.015 1783.84,607.018 1785.97,607.022 1788.1,607.025 1790.23,607.028 1792.36,607.032 1794.49,607.035 1796.62,607.038 1798.75,607.041 1800.88,607.045 1803.01,607.048 1805.14,607.051 1807.27,607.054 1809.4,607.057 1811.54,607.06 1813.67,607.063 1815.8,607.066 1817.93,607.069 1820.06,607.072 1822.19,607.075 1824.32,607.078 1826.45,607.08 1828.58,607.083 1830.71,607.086 1832.84,607.089 1834.97,607.091 1837.11,607.094 1839.24,607.097 1841.37,607.099 1843.5,607.102 1845.63,607.105 1847.76,607.107 1849.89,607.11 1852.02,607.112 1854.15,607.115 1856.28,607.117 1858.41,607.12 1860.54,607.122 1862.67,607.124 1864.81,607.127 1866.94,607.129 1869.07,607.131 1871.2,607.134 1873.33,607.136 1875.46,607.138 1877.59,607.14 1879.72,607.143 1881.85,607.145 1883.98,607.147 1886.11,607.149 1888.24,607.151 1890.37,607.153 1892.51,607.155 1894.64,607.157 1896.77,607.159 1898.9,607.161 1901.03,607.163 1903.16,607.165 1905.29,607.167 1907.42,607.169 1909.55,607.171 1911.68,607.173 1913.81,607.175 1915.94,607.177 1918.07,607.179 1920.21,607.18 1922.34,607.182 1924.47,607.184 1926.6,607.186 1928.73,607.187 1930.86,607.189 1932.99,607.191 1935.12,607.193 1937.25,607.194 1939.38,607.196 1941.51,607.198 1943.64,607.199 1945.78,607.201 1947.91,607.202 1950.04,607.204 1952.17,607.206 1954.3,607.207 1956.43,607.209 1958.56,607.21 1960.69,607.212 1962.82,607.213 1964.95,607.215 1967.08,607.216 1969.21,607.217 1971.34,607.219 1973.48,607.22 1975.61,607.222 1977.74,607.223 1979.87,607.224 1982,607.226 1984.13,607.227 1986.26,607.228 1988.39,607.23 1990.52,607.231 1992.65,607.232 1994.78,607.234 1996.91,607.235 1999.04,607.236 2001.18,607.237 2003.31,607.239 2005.44,607.24 2007.57,607.241 2009.7,607.242 2011.83,607.244 2013.96,607.245 2016.09,607.246 2018.22,607.247 2020.35,607.248 2022.48,607.249 2024.61,607.25 2026.75,607.251 2028.88,607.253 2031.01,607.254 2033.14,607.255 2035.27,607.256 2037.4,607.257 2039.53,607.258 2041.66,607.259 2043.79,607.26 2045.92,607.261 2048.05,607.262 2050.18,607.263 2052.31,607.264 2054.45,607.265 2056.58,607.266 2058.71,607.267 2060.84,607.268 2062.97,607.269 2065.1,607.27 2067.23,607.271 2069.36,607.271 2071.49,607.272 2073.62,607.273 2075.75,607.274 2077.88,607.275 2080.01,607.276 2082.15,607.277 2084.28,607.278 2086.41,607.278 2088.54,607.279 2090.67,607.28 2092.8,607.281 2094.93,607.282 2097.06,607.282 2099.19,607.283 2101.32,607.284 2103.45,607.285 2105.58,607.286 2107.72,607.286 2109.85,607.287 2111.98,607.288 2114.11,607.288 2116.24,607.289 2118.37,607.29 2120.5,607.291 2122.63,607.291 2124.76,607.292 2126.89,607.293 2129.02,607.293 2131.15,607.294 2133.28,607.295 2135.42,607.295 2137.55,607.296 2139.68,607.297 2141.81,607.297 2143.94,607.298 2146.07,607.299 2148.2,607.299 2150.33,607.3 2152.46,607.3 2154.59,607.301 2156.72,607.302 2158.85,607.302 2160.98,607.303 2163.12,607.303 2165.25,607.304 2167.38,607.304 2169.51,607.305 2171.64,607.306 2173.77,607.306 2175.9,607.307 2178.03,607.307 2180.16,607.308 2182.29,607.308 2184.42,607.309 2186.55,607.309 2188.69,607.31 2190.82,607.31 2192.95,607.311 2195.08,607.311 2197.21,607.312 2199.34,607.312 2201.47,607.313 2203.6,607.313 2205.73,607.314 2207.86,607.314 2209.99,607.315 2212.12,607.315 2214.25,607.316 2216.39,607.316 2218.52,607.316 2220.65,607.317 2222.78,607.317 2224.91,607.318 2227.04,607.318 2229.17,607.319 2231.3,607.319 2233.43,607.319 2235.56,607.32 2237.69,607.32 2239.82,607.321 2241.95,607.321 2244.09,607.321 2246.22,607.322 2248.35,607.322 2250.48,607.323 2252.61,607.323 2254.74,607.323 2256.87,607.324 2259,607.324 2261.13,607.325 2263.26,607.325 2265.39,607.325 2267.52,607.326 2269.66,607.326 2271.79,607.326 2273.92,607.327 2276.05,607.327 2278.18,607.327 2280.31,607.328 2282.44,607.328 2284.57,607.328 2286.7,607.329 2288.83,607.329 2290.96,607.329 2293.09,607.33 2295.22,607.33 2297.36,607.33 2299.49,607.331 2301.62,607.331 2303.75,607.331 2305.88,607.331 2308.01,607.332 2310.14,607.332 2312.27,607.332 2314.4,607.333 2316.53,607.333 2318.66,607.333 2320.79,607.333 2322.92,607.334 2325.06,607.334 2327.19,607.334 2329.32,607.335 2331.45,607.335 2333.58,607.335 2335.71,607.335 2337.84,607.336 2339.97,607.336 2342.1,607.336 2344.23,607.336 2346.36,607.337 2348.49,607.337 2350.63,607.337 2352.76,607.337 "/>
<polyline clip-path="url(#clip852)" style="stroke:#e26f46; stroke-linecap:round; stroke-linejoin:round; stroke-width:4; stroke-opacity:1; fill:none" points="224.098,1384.24 226.229,1369.2 228.359,1354.37 230.49,1339.72 232.621,1325.26 234.752,1310.98 236.883,1296.9 239.013,1282.99 241.144,1269.27 243.275,1255.72 245.406,1242.35 247.537,1229.16 249.667,1216.13 251.798,1203.28 253.929,1190.6 256.06,1178.08 258.19,1165.73 260.321,1153.54 262.452,1141.52 264.583,1129.65 266.714,1117.94 268.844,1106.38 270.975,1094.98 273.106,1083.73 275.237,1072.63 277.368,1061.68 279.498,1050.88 281.629,1040.22 283.76,1029.71 285.891,1019.33 288.022,1009.1 290.152,999.007 292.283,989.05 294.414,979.228 296.545,969.541 298.675,959.985 300.806,950.561 302.937,941.266 305.068,932.098 307.199,923.057 309.329,914.141 311.46,905.348 313.591,896.677 315.722,888.126 317.853,879.695 319.983,871.381 322.114,863.184 324.245,855.101 326.376,847.133 328.507,839.276 330.637,831.531 332.768,823.895 334.899,816.367 337.03,808.947 339.16,801.632 341.291,794.422 343.422,787.316 345.553,780.312 347.684,773.408 349.814,766.605 351.945,759.9 354.076,753.293 356.207,746.782 358.338,740.366 360.468,734.044 362.599,727.815 364.73,721.678 366.861,715.631 368.992,709.674 371.122,703.806 373.253,698.025 375.384,692.331 377.515,686.722 379.645,681.197 381.776,675.756 383.907,670.397 386.038,665.12 388.169,659.923 390.299,654.805 392.43,649.766 394.561,644.804 396.692,639.919 398.823,635.109 400.953,630.375 403.084,625.714 405.215,621.126 407.346,616.61 409.477,612.165 411.607,607.791 413.738,603.486 415.869,599.249 418,595.081 420.13,590.979 422.261,586.944 424.392,582.974 426.523,579.069 428.654,575.227 430.784,571.448 432.915,567.732 435.046,564.077 437.177,560.483 439.308,556.948 441.438,553.473 443.569,550.056 445.7,546.697 447.831,543.395 449.961,540.149 452.092,536.959 454.223,533.823 456.354,530.742 458.485,527.715 460.615,524.74 462.746,521.817 464.877,518.946 467.008,516.126 469.139,513.356 471.269,510.635 473.4,507.964 475.531,505.341 477.662,502.765 479.793,500.237 481.923,497.755 484.054,495.319 486.185,492.929 488.316,490.583 490.446,488.282 492.577,486.024 494.708,483.809 496.839,481.637 498.97,479.507 501.1,477.419 503.231,475.371 505.362,473.364 507.493,471.397 509.624,469.469 511.754,467.58 513.885,465.73 516.016,463.917 518.147,462.142 520.278,460.403 522.408,458.701 524.539,457.035 526.67,455.405 528.801,453.809 530.931,452.248 533.062,450.721 535.193,449.227 537.324,447.767 539.455,446.339 541.585,444.944 543.716,443.581 545.847,442.249 547.978,440.947 550.109,439.677 552.239,438.437 554.37,437.226 556.501,436.045 558.632,434.893 560.763,433.769 562.893,432.673 565.024,431.606 567.155,430.565 569.286,429.552 571.416,428.565 573.547,427.605 575.678,426.67 577.809,425.762 579.94,424.878 582.07,424.019 584.201,423.185 586.332,422.376 588.463,421.59 590.594,420.828 592.724,420.089 594.855,419.373 596.986,418.679 599.117,418.008 601.247,417.359 603.378,416.731 605.509,416.125 607.64,415.54 609.771,414.976 611.901,414.432 614.032,413.909 616.163,413.405 618.294,412.921 620.425,412.456 622.555,412.011 624.686,411.584 626.817,411.175 628.948,410.785 631.079,410.412 633.209,410.058 635.34,409.72 637.471,409.4 639.602,409.097 641.732,408.81 643.863,408.54 645.994,408.286 648.125,408.047 650.256,407.825 652.386,407.618 654.517,407.426 656.648,407.249 658.779,407.086 660.91,406.938 663.04,406.805 665.171,406.685 667.302,406.58 669.433,406.487 671.564,406.409 673.694,406.343 675.825,406.291 677.956,406.251 680.087,406.224 682.217,406.209 684.348,406.206 686.479,406.216 688.61,406.237 690.741,406.27 692.871,406.315 695.002,406.371 697.133,406.438 699.264,406.516 701.395,406.604 703.525,406.704 705.656,406.813 707.787,406.933 709.918,407.063 712.049,407.203 714.179,407.353 716.31,407.512 718.441,407.681 720.572,407.859 722.702,408.046 724.833,408.242 726.964,408.446 729.095,408.66 731.226,408.882 733.356,409.112 735.487,409.35 737.618,409.597 739.749,409.851 741.88,410.113 744.01,410.383 746.141,410.66 748.272,410.944 750.403,411.236 752.534,411.535 754.664,411.841 756.795,412.153 758.926,412.472 761.057,412.798 763.187,413.13 765.318,413.468 767.449,413.813 769.58,414.163 771.711,414.52 773.841,414.882 775.972,415.25 778.103,415.624 780.234,416.003 782.365,416.387 784.495,416.777 786.626,417.172 788.757,417.571 790.888,417.976 793.018,418.385 795.149,418.8 797.28,419.219 799.411,419.642 801.542,420.07 803.672,420.502 805.803,420.939 807.934,421.38 810.065,421.824 812.196,422.273 814.326,422.726 816.457,423.183 818.588,423.643 820.719,424.107 822.85,424.575 824.98,425.046 827.111,425.52 829.242,425.998 831.373,426.479 833.503,426.963 835.634,427.451 837.765,427.941 839.896,428.434 842.027,428.931 844.157,429.43 846.288,429.931 848.419,430.436 850.55,430.942 852.681,431.452 854.811,431.964 856.942,432.478 859.073,432.994 861.204,433.513 863.335,434.034 865.465,434.556 867.596,435.081 869.727,435.608 871.858,436.137 873.988,436.667 876.119,437.2 878.25,437.733 880.381,438.269 882.512,438.806 884.642,439.345 886.773,439.885 888.904,440.427 891.035,440.969 893.166,441.514 895.296,442.059 897.427,442.605 899.558,443.153 901.689,443.702 903.82,444.252 905.95,444.802 908.081,445.354 910.212,445.906 912.343,446.46 914.473,447.014 916.604,447.569 918.735,448.124 920.866,448.68 922.997,449.237 925.127,449.794 927.258,450.352 929.389,450.91 931.52,451.469 933.651,452.028 935.781,452.587 937.912,453.147 940.043,453.707 942.174,454.268 944.304,454.828 946.435,455.389 948.566,455.95 950.697,456.511 952.828,457.073 954.958,457.634 957.089,458.195 959.22,458.756 961.351,459.318 963.482,459.879 965.612,460.44 967.743,461.001 969.874,461.562 972.005,462.122 974.136,462.683 976.266,463.243 978.397,463.803 980.528,464.362 982.659,464.921 984.789,465.48 986.92,466.039 989.051,466.597 991.182,467.154 993.313,467.711 995.443,468.268 997.574,468.824 999.705,469.379 1001.84,469.934 1003.97,470.488 1006.1,471.042 1008.23,471.595 1010.36,472.147 1012.49,472.699 1014.62,473.25 1016.75,473.8 1018.88,474.349 1021.01,474.898 1023.14,475.446 1025.27,475.993 1027.41,476.539 1029.54,477.084 1031.67,477.628 1033.8,478.172 1035.93,478.714 1038.06,479.256 1040.19,479.796 1042.32,480.336 1044.45,480.874 1046.58,481.412 1048.71,481.948 1050.84,482.483 1052.97,483.018 1055.11,483.551 1057.24,484.083 1059.37,484.614 1061.5,485.144 1063.63,485.672 1065.76,486.2 1067.89,486.726 1070.02,487.251 1072.15,487.775 1074.28,488.297 1076.41,488.819 1078.54,489.339 1080.67,489.858 1082.81,490.376 1084.94,490.892 1087.07,491.408 1089.2,491.922 1091.33,492.434 1093.46,492.946 1095.59,493.456 1097.72,493.965 1099.85,494.472 1101.98,494.978 1104.11,495.483 1106.24,495.986 1108.38,496.489 1110.51,496.989 1112.64,497.489 1114.77,497.987 1116.9,498.483 1119.03,498.979 1121.16,499.473 1123.29,499.965 1125.42,500.456 1127.55,500.946 1129.68,501.434 1131.81,501.921 1133.94,502.406 1136.08,502.89 1138.21,503.373 1140.34,503.854 1142.47,504.334 1144.6,504.812 1146.73,505.288 1148.86,505.764 1150.99,506.237 1153.12,506.71 1155.25,507.18 1157.38,507.65 1159.51,508.117 1161.64,508.584 1163.78,509.049 1165.91,509.512 1168.04,509.974 1170.17,510.434 1172.3,510.892 1174.43,511.35 1176.56,511.805 1178.69,512.259 1180.82,512.712 1182.95,513.163 1185.08,513.612 1187.21,514.06 1189.35,514.507 1191.48,514.951 1193.61,515.395 1195.74,515.836 1197.87,516.276 1200,516.715 1202.13,517.152 1204.26,517.587 1206.39,518.021 1208.52,518.453 1210.65,518.884 1212.78,519.313 1214.91,519.74 1217.05,520.166 1219.18,520.59 1221.31,521.013 1223.44,521.434 1225.57,521.854 1227.7,522.272 1229.83,522.688 1231.96,523.103 1234.09,523.516 1236.22,523.928 1238.35,524.338 1240.48,524.746 1242.61,525.153 1244.75,525.559 1246.88,525.962 1249.01,526.365 1251.14,526.765 1253.27,527.164 1255.4,527.562 1257.53,527.958 1259.66,528.352 1261.79,528.745 1263.92,529.137 1266.05,529.526 1268.18,529.915 1270.32,530.301 1272.45,530.686 1274.58,531.07 1276.71,531.452 1278.84,531.833 1280.97,532.212 1283.1,532.589 1285.23,532.965 1287.36,533.34 1289.49,533.712 1291.62,534.084 1293.75,534.454 1295.88,534.822 1298.02,535.189 1300.15,535.554 1302.28,535.918 1304.41,536.28 1306.54,536.641 1308.67,537 1310.8,537.358 1312.93,537.714 1315.06,538.069 1317.19,538.422 1319.32,538.774 1321.45,539.124 1323.58,539.473 1325.72,539.82 1327.85,540.166 1329.98,540.511 1332.11,540.853 1334.24,541.195 1336.37,541.535 1338.5,541.873 1340.63,542.21 1342.76,542.546 1344.89,542.88 1347.02,543.212 1349.15,543.543 1351.29,543.873 1353.42,544.201 1355.55,544.528 1357.68,544.854 1359.81,545.177 1361.94,545.5 1364.07,545.821 1366.2,546.141 1368.33,546.459 1370.46,546.775 1372.59,547.091 1374.72,547.405 1376.85,547.717 1378.99,548.028 1381.12,548.338 1383.25,548.646 1385.38,548.953 1387.51,549.258 1389.64,549.562 1391.77,549.865 1393.9,550.166 1396.03,550.466 1398.16,550.765 1400.29,551.062 1402.42,551.357 1404.55,551.652 1406.69,551.945 1408.82,552.236 1410.95,552.527 1413.08,552.816 1415.21,553.103 1417.34,553.389 1419.47,553.674 1421.6,553.958 1423.73,554.24 1425.86,554.521 1427.99,554.801 1430.12,555.079 1432.26,555.356 1434.39,555.632 1436.52,555.906 1438.65,556.179 1440.78,556.451 1442.91,556.722 1445.04,556.991 1447.17,557.259 1449.3,557.526 1451.43,557.791 1453.56,558.056 1455.69,558.319 1457.82,558.58 1459.96,558.841 1462.09,559.1 1464.22,559.358 1466.35,559.615 1468.48,559.87 1470.61,560.125 1472.74,560.378 1474.87,560.63 1477,560.88 1479.13,561.13 1481.26,561.378 1483.39,561.625 1485.52,561.871 1487.66,562.116 1489.79,562.359 1491.92,562.601 1494.05,562.843 1496.18,563.083 1498.31,563.321 1500.44,563.559 1502.57,563.796 1504.7,564.031 1506.83,564.265 1508.96,564.498 1511.09,564.73 1513.23,564.961 1515.36,565.19 1517.49,565.419 1519.62,565.646 1521.75,565.872 1523.88,566.098 1526.01,566.322 1528.14,566.545 1530.27,566.766 1532.4,566.987 1534.53,567.207 1536.66,567.425 1538.79,567.643 1540.93,567.859 1543.06,568.074 1545.19,568.288 1547.32,568.501 1549.45,568.714 1551.58,568.924 1553.71,569.134 1555.84,569.343 1557.97,569.551 1560.1,569.758 1562.23,569.964 1564.36,570.168 1566.49,570.372 1568.63,570.574 1570.76,570.776 1572.89,570.976 1575.02,571.176 1577.15,571.375 1579.28,571.572 1581.41,571.768 1583.54,571.964 1585.67,572.158 1587.8,572.352 1589.93,572.544 1592.06,572.736 1594.2,572.926 1596.33,573.116 1598.46,573.304 1600.59,573.492 1602.72,573.679 1604.85,573.864 1606.98,574.049 1609.11,574.233 1611.24,574.416 1613.37,574.598 1615.5,574.778 1617.63,574.959 1619.76,575.138 1621.9,575.316 1624.03,575.493 1626.16,575.669 1628.29,575.845 1630.42,576.019 1632.55,576.193 1634.68,576.366 1636.81,576.537 1638.94,576.708 1641.07,576.878 1643.2,577.047 1645.33,577.216 1647.46,577.383 1649.6,577.55 1651.73,577.715 1653.86,577.88 1655.99,578.044 1658.12,578.207 1660.25,578.369 1662.38,578.531 1664.51,578.691 1666.64,578.851 1668.77,579.01 1670.9,579.168 1673.03,579.325 1675.17,579.482 1677.3,579.637 1679.43,579.792 1681.56,579.946 1683.69,580.099 1685.82,580.251 1687.95,580.403 1690.08,580.554 1692.21,580.703 1694.34,580.853 1696.47,581.001 1698.6,581.148 1700.73,581.295 1702.87,581.441 1705,581.587 1707.13,581.731 1709.26,581.875 1711.39,582.018 1713.52,582.16 1715.65,582.301 1717.78,582.442 1719.91,582.582 1722.04,582.721 1724.17,582.86 1726.3,582.997 1728.43,583.134 1730.57,583.271 1732.7,583.406 1734.83,583.541 1736.96,583.675 1739.09,583.808 1741.22,583.941 1743.35,584.073 1745.48,584.204 1747.61,584.335 1749.74,584.464 1751.87,584.594 1754,584.722 1756.14,584.85 1758.27,584.977 1760.4,585.103 1762.53,585.229 1764.66,585.354 1766.79,585.478 1768.92,585.602 1771.05,585.725 1773.18,585.847 1775.31,585.969 1777.44,586.09 1779.57,586.21 1781.7,586.33 1783.84,586.449 1785.97,586.567 1788.1,586.685 1790.23,586.802 1792.36,586.919 1794.49,587.034 1796.62,587.15 1798.75,587.264 1800.88,587.378 1803.01,587.492 1805.14,587.604 1807.27,587.716 1809.4,587.828 1811.54,587.939 1813.67,588.049 1815.8,588.159 1817.93,588.268 1820.06,588.376 1822.19,588.484 1824.32,588.592 1826.45,588.698 1828.58,588.804 1830.71,588.91 1832.84,589.015 1834.97,589.119 1837.11,589.223 1839.24,589.327 1841.37,589.429 1843.5,589.531 1845.63,589.633 1847.76,589.734 1849.89,589.835 1852.02,589.935 1854.15,590.034 1856.28,590.133 1858.41,590.231 1860.54,590.329 1862.67,590.426 1864.81,590.523 1866.94,590.619 1869.07,590.714 1871.2,590.81 1873.33,590.904 1875.46,590.998 1877.59,591.092 1879.72,591.185 1881.85,591.277 1883.98,591.369 1886.11,591.461 1888.24,591.552 1890.37,591.642 1892.51,591.732 1894.64,591.822 1896.77,591.911 1898.9,591.999 1901.03,592.087 1903.16,592.175 1905.29,592.262 1907.42,592.348 1909.55,592.434 1911.68,592.52 1913.81,592.605 1915.94,592.69 1918.07,592.774 1920.21,592.858 1922.34,592.941 1924.47,593.024 1926.6,593.106 1928.73,593.188 1930.86,593.269 1932.99,593.35 1935.12,593.431 1937.25,593.511 1939.38,593.591 1941.51,593.67 1943.64,593.749 1945.78,593.827 1947.91,593.905 1950.04,593.982 1952.17,594.059 1954.3,594.136 1956.43,594.212 1958.56,594.288 1960.69,594.363 1962.82,594.438 1964.95,594.512 1967.08,594.586 1969.21,594.66 1971.34,594.733 1973.48,594.806 1975.61,594.878 1977.74,594.95 1979.87,595.022 1982,595.093 1984.13,595.164 1986.26,595.234 1988.39,595.304 1990.52,595.374 1992.65,595.443 1994.78,595.512 1996.91,595.58 1999.04,595.648 2001.18,595.716 2003.31,595.783 2005.44,595.85 2007.57,595.916 2009.7,595.983 2011.83,596.048 2013.96,596.114 2016.09,596.179 2018.22,596.243 2020.35,596.308 2022.48,596.372 2024.61,596.435 2026.75,596.498 2028.88,596.561 2031.01,596.624 2033.14,596.686 2035.27,596.748 2037.4,596.809 2039.53,596.87 2041.66,596.931 2043.79,596.992 2045.92,597.052 2048.05,597.111 2050.18,597.171 2052.31,597.23 2054.45,597.289 2056.58,597.347 2058.71,597.405 2060.84,597.463 2062.97,597.52 2065.1,597.577 2067.23,597.634 2069.36,597.69 2071.49,597.747 2073.62,597.802 2075.75,597.858 2077.88,597.913 2080.01,597.968 2082.15,598.022 2084.28,598.077 2086.41,598.131 2088.54,598.184 2090.67,598.238 2092.8,598.291 2094.93,598.343 2097.06,598.396 2099.19,598.448 2101.32,598.5 2103.45,598.551 2105.58,598.602 2107.72,598.653 2109.85,598.704 2111.98,598.754 2114.11,598.804 2116.24,598.854 2118.37,598.904 2120.5,598.953 2122.63,599.002 2124.76,599.05 2126.89,599.099 2129.02,599.147 2131.15,599.195 2133.28,599.242 2135.42,599.29 2137.55,599.337 2139.68,599.383 2141.81,599.43 2143.94,599.476 2146.07,599.522 2148.2,599.568 2150.33,599.613 2152.46,599.658 2154.59,599.703 2156.72,599.748 2158.85,599.792 2160.98,599.837 2163.12,599.88 2165.25,599.924 2167.38,599.968 2169.51,600.011 2171.64,600.054 2173.77,600.096 2175.9,600.139 2178.03,600.181 2180.16,600.223 2182.29,600.264 2184.42,600.306 2186.55,600.347 2188.69,600.388 2190.82,600.429 2192.95,600.469 2195.08,600.51 2197.21,600.55 2199.34,600.589 2201.47,600.629 2203.6,600.668 2205.73,600.708 2207.86,600.746 2209.99,600.785 2212.12,600.824 2214.25,600.862 2216.39,600.9 2218.52,600.938 2220.65,600.975 2222.78,601.013 2224.91,601.05 2227.04,601.087 2229.17,601.123 2231.3,601.16 2233.43,601.196 2235.56,601.232 2237.69,601.268 2239.82,601.304 2241.95,601.339 2244.09,601.375 2246.22,601.41 2248.35,601.444 2250.48,601.479 2252.61,601.514 2254.74,601.548 2256.87,601.582 2259,601.616 2261.13,601.649 2263.26,601.683 2265.39,601.716 2267.52,601.749 2269.66,601.782 2271.79,601.815 2273.92,601.847 2276.05,601.88 2278.18,601.912 2280.31,601.944 2282.44,601.976 2284.57,602.007 2286.7,602.039 2288.83,602.07 2290.96,602.101 2293.09,602.132 2295.22,602.162 2297.36,602.193 2299.49,602.223 2301.62,602.253 2303.75,602.283 2305.88,602.313 2308.01,602.343 2310.14,602.372 2312.27,602.402 2314.4,602.431 2316.53,602.46 2318.66,602.488 2320.79,602.517 2322.92,602.546 2325.06,602.574 2327.19,602.602 2329.32,602.63 2331.45,602.658 2333.58,602.685 2335.71,602.713 2337.84,602.74 2339.97,602.767 2342.1,602.794 2344.23,602.821 2346.36,602.848 2348.49,602.874 2350.63,602.901 2352.76,602.927 "/>
<path clip-path="url(#clip850)" d="M1809.54 248.629 L2281.8 248.629 L2281.8 93.1086 L1809.54 93.1086  Z" fill="#ffffff" fill-rule="evenodd" fill-opacity="1"/>
<polyline clip-path="url(#clip850)" style="stroke:#000000; stroke-linecap:round; stroke-linejoin:round; stroke-width:4; stroke-opacity:1; fill:none" points="1809.54,248.629 2281.8,248.629 2281.8,93.1086 1809.54,93.1086 1809.54,248.629 "/>
<polyline clip-path="url(#clip850)" style="stroke:#009af9; stroke-linecap:round; stroke-linejoin:round; stroke-width:4; stroke-opacity:1; fill:none" points="1833.19,144.949 1975.1,144.949 "/>
<path clip-path="url(#clip850)" d="M1998.75 136.303 L2003.27 136.303 L2011.37 158.062 L2019.47 136.303 L2023.98 136.303 L2014.26 162.229 L2008.47 162.229 L1998.75 136.303 Z" fill="#000000" fill-rule="nonzero" fill-opacity="1" /><path clip-path="url(#clip850)" d="M2031.28 158.293 L2038.91 158.293 L2038.91 131.928 L2030.6 133.595 L2030.6 129.335 L2038.87 127.669 L2043.54 127.669 L2043.54 158.293 L2051.18 158.293 L2051.18 162.229 L2031.28 162.229 L2031.28 158.293 Z" fill="#000000" fill-rule="nonzero" fill-opacity="1" /><path clip-path="url(#clip850)" d="M2069.28 145.585 L2069.28 152.807 L2077.41 152.807 L2077.41 155.006 L2069.28 155.006 L2069.28 162.229 L2066.85 162.229 L2066.85 155.006 L2058.73 155.006 L2058.73 152.807 L2066.85 152.807 L2066.85 145.585 L2069.28 145.585 Z" fill="#000000" fill-rule="nonzero" fill-opacity="1" /><path clip-path="url(#clip850)" d="M2101.58 137.067 L2101.58 141.094 Q2099.77 140.169 2097.83 139.706 Q2095.88 139.243 2093.8 139.243 Q2090.63 139.243 2089.03 140.215 Q2087.46 141.187 2087.46 143.131 Q2087.46 144.613 2088.59 145.469 Q2089.72 146.303 2093.15 147.067 L2094.61 147.391 Q2099.15 148.363 2101.04 150.145 Q2102.96 151.905 2102.96 155.076 Q2102.96 158.687 2100.09 160.793 Q2097.25 162.9 2092.25 162.9 Q2090.16 162.9 2087.9 162.483 Q2085.65 162.09 2083.15 161.28 L2083.15 156.881 Q2085.51 158.108 2087.8 158.733 Q2090.09 159.335 2092.34 159.335 Q2095.35 159.335 2096.97 158.317 Q2098.59 157.275 2098.59 155.4 Q2098.59 153.664 2097.41 152.738 Q2096.25 151.812 2092.29 150.956 L2090.81 150.608 Q2086.85 149.775 2085.09 148.062 Q2083.34 146.326 2083.34 143.317 Q2083.34 139.659 2085.93 137.669 Q2088.52 135.678 2093.29 135.678 Q2095.65 135.678 2097.73 136.025 Q2099.82 136.372 2101.58 137.067 Z" fill="#000000" fill-rule="nonzero" fill-opacity="1" /><path clip-path="url(#clip850)" d="M2113.96 128.942 L2113.96 136.303 L2122.73 136.303 L2122.73 139.613 L2113.96 139.613 L2113.96 153.687 Q2113.96 156.858 2114.82 157.761 Q2115.7 158.664 2118.36 158.664 L2122.73 158.664 L2122.73 162.229 L2118.36 162.229 Q2113.43 162.229 2111.55 160.4 Q2109.68 158.548 2109.68 153.687 L2109.68 139.613 L2106.55 139.613 L2106.55 136.303 L2109.68 136.303 L2109.68 128.942 L2113.96 128.942 Z" fill="#000000" fill-rule="nonzero" fill-opacity="1" /><path clip-path="url(#clip850)" d="M2138.38 139.289 Q2134.96 139.289 2132.96 141.974 Q2130.97 144.636 2130.97 149.289 Q2130.97 153.942 2132.94 156.627 Q2134.93 159.289 2138.38 159.289 Q2141.78 159.289 2143.77 156.604 Q2145.77 153.918 2145.77 149.289 Q2145.77 144.682 2143.77 141.997 Q2141.78 139.289 2138.38 139.289 M2138.38 135.678 Q2143.94 135.678 2147.11 139.289 Q2150.28 142.9 2150.28 149.289 Q2150.28 155.655 2147.11 159.289 Q2143.94 162.9 2138.38 162.9 Q2132.8 162.9 2129.63 159.289 Q2126.48 155.655 2126.48 149.289 Q2126.48 142.9 2129.63 139.289 Q2132.8 135.678 2138.38 135.678 Z" fill="#000000" fill-rule="nonzero" fill-opacity="1" /><path clip-path="url(#clip850)" d="M2172.36 140.284 Q2171.64 139.868 2170.79 139.682 Q2169.95 139.474 2168.94 139.474 Q2165.33 139.474 2163.38 141.835 Q2161.46 144.173 2161.46 148.571 L2161.46 162.229 L2157.18 162.229 L2157.18 136.303 L2161.46 136.303 L2161.46 140.331 Q2162.8 137.969 2164.95 136.835 Q2167.11 135.678 2170.19 135.678 Q2170.63 135.678 2171.16 135.747 Q2171.69 135.794 2172.34 135.909 L2172.36 140.284 Z" fill="#000000" fill-rule="nonzero" fill-opacity="1" /><path clip-path="url(#clip850)" d="M2188.61 149.196 Q2183.45 149.196 2181.46 150.377 Q2179.47 151.557 2179.47 154.405 Q2179.47 156.673 2180.95 158.016 Q2182.45 159.335 2185.02 159.335 Q2188.57 159.335 2190.7 156.835 Q2192.85 154.312 2192.85 150.145 L2192.85 149.196 L2188.61 149.196 M2197.11 147.437 L2197.11 162.229 L2192.85 162.229 L2192.85 158.293 Q2191.39 160.655 2189.21 161.789 Q2187.04 162.9 2183.89 162.9 Q2179.91 162.9 2177.55 160.678 Q2175.21 158.432 2175.21 154.682 Q2175.21 150.307 2178.13 148.085 Q2181.07 145.863 2186.88 145.863 L2192.85 145.863 L2192.85 145.446 Q2192.85 142.507 2190.9 140.909 Q2188.98 139.289 2185.49 139.289 Q2183.27 139.289 2181.16 139.821 Q2179.05 140.354 2177.11 141.419 L2177.11 137.483 Q2179.45 136.581 2181.64 136.141 Q2183.84 135.678 2185.93 135.678 Q2191.55 135.678 2194.33 138.594 Q2197.11 141.511 2197.11 147.437 Z" fill="#000000" fill-rule="nonzero" fill-opacity="1" /><path clip-path="url(#clip850)" d="M2222.94 148.965 Q2222.94 144.335 2221.02 141.789 Q2219.12 139.243 2215.67 139.243 Q2212.25 139.243 2210.33 141.789 Q2208.43 144.335 2208.43 148.965 Q2208.43 153.571 2210.33 156.118 Q2212.25 158.664 2215.67 158.664 Q2219.12 158.664 2221.02 156.118 Q2222.94 153.571 2222.94 148.965 M2227.2 159.011 Q2227.2 165.631 2224.26 168.849 Q2221.32 172.09 2215.26 172.09 Q2213.01 172.09 2211.02 171.742 Q2209.03 171.418 2207.15 170.724 L2207.15 166.58 Q2209.03 167.599 2210.86 168.085 Q2212.69 168.571 2214.58 168.571 Q2218.77 168.571 2220.86 166.372 Q2222.94 164.196 2222.94 159.775 L2222.94 157.668 Q2221.62 159.96 2219.56 161.094 Q2217.5 162.229 2214.63 162.229 Q2209.86 162.229 2206.95 158.594 Q2204.03 154.96 2204.03 148.965 Q2204.03 142.946 2206.95 139.312 Q2209.86 135.678 2214.63 135.678 Q2217.5 135.678 2219.56 136.812 Q2221.62 137.946 2222.94 140.238 L2222.94 136.303 L2227.2 136.303 L2227.2 159.011 Z" fill="#000000" fill-rule="nonzero" fill-opacity="1" /><path clip-path="url(#clip850)" d="M2258.15 148.201 L2258.15 150.284 L2238.57 150.284 Q2238.84 154.682 2241.2 156.997 Q2243.59 159.289 2247.82 159.289 Q2250.28 159.289 2252.57 158.687 Q2254.89 158.085 2257.15 156.881 L2257.15 160.909 Q2254.86 161.881 2252.45 162.391 Q2250.05 162.9 2247.57 162.9 Q2241.37 162.9 2237.73 159.289 Q2234.12 155.678 2234.12 149.52 Q2234.12 143.155 2237.55 139.428 Q2241 135.678 2246.83 135.678 Q2252.06 135.678 2255.09 139.057 Q2258.15 142.414 2258.15 148.201 M2253.89 146.951 Q2253.84 143.456 2251.92 141.372 Q2250.02 139.289 2246.88 139.289 Q2243.31 139.289 2241.16 141.303 Q2239.03 143.317 2238.7 146.974 L2253.89 146.951 Z" fill="#000000" fill-rule="nonzero" fill-opacity="1" /><polyline clip-path="url(#clip850)" style="stroke:#e26f46; stroke-linecap:round; stroke-linejoin:round; stroke-width:4; stroke-opacity:1; fill:none" points="1833.19,196.789 1975.1,196.789 "/>
<path clip-path="url(#clip850)" d="M1998.75 188.143 L2003.27 188.143 L2011.37 209.902 L2019.47 188.143 L2023.98 188.143 L2014.26 214.069 L2008.47 214.069 L1998.75 188.143 Z" fill="#000000" fill-rule="nonzero" fill-opacity="1" /><path clip-path="url(#clip850)" d="M2030.51 179.509 L2048.87 179.509 L2048.87 183.444 L2034.79 183.444 L2034.79 191.916 Q2035.81 191.569 2036.83 191.407 Q2037.85 191.222 2038.87 191.222 Q2044.65 191.222 2048.03 194.393 Q2051.41 197.564 2051.41 202.981 Q2051.41 208.559 2047.94 211.661 Q2044.47 214.74 2038.15 214.74 Q2035.97 214.74 2033.71 214.37 Q2031.46 213.999 2029.05 213.258 L2029.05 208.559 Q2031.14 209.694 2033.36 210.249 Q2035.58 210.805 2038.06 210.805 Q2042.06 210.805 2044.4 208.698 Q2046.74 206.592 2046.74 202.981 Q2046.74 199.37 2044.4 197.263 Q2042.06 195.157 2038.06 195.157 Q2036.18 195.157 2034.31 195.573 Q2032.46 195.99 2030.51 196.87 L2030.51 179.509 Z" fill="#000000" fill-rule="nonzero" fill-opacity="1" /><path clip-path="url(#clip850)" d="M2069.28 197.425 L2069.28 204.647 L2077.41 204.647 L2077.41 206.846 L2069.28 206.846 L2069.28 214.069 L2066.85 214.069 L2066.85 206.846 L2058.73 206.846 L2058.73 204.647 L2066.85 204.647 L2066.85 197.425 L2069.28 197.425 Z" fill="#000000" fill-rule="nonzero" fill-opacity="1" /><path clip-path="url(#clip850)" d="M2101.58 188.907 L2101.58 192.934 Q2099.77 192.009 2097.83 191.546 Q2095.88 191.083 2093.8 191.083 Q2090.63 191.083 2089.03 192.055 Q2087.46 193.027 2087.46 194.971 Q2087.46 196.453 2088.59 197.309 Q2089.72 198.143 2093.15 198.907 L2094.61 199.231 Q2099.15 200.203 2101.04 201.985 Q2102.96 203.745 2102.96 206.916 Q2102.96 210.527 2100.09 212.633 Q2097.25 214.74 2092.25 214.74 Q2090.16 214.74 2087.9 214.323 Q2085.65 213.93 2083.15 213.12 L2083.15 208.721 Q2085.51 209.948 2087.8 210.573 Q2090.09 211.175 2092.34 211.175 Q2095.35 211.175 2096.97 210.157 Q2098.59 209.115 2098.59 207.24 Q2098.59 205.504 2097.41 204.578 Q2096.25 203.652 2092.29 202.796 L2090.81 202.448 Q2086.85 201.615 2085.09 199.902 Q2083.34 198.166 2083.34 195.157 Q2083.34 191.499 2085.93 189.509 Q2088.52 187.518 2093.29 187.518 Q2095.65 187.518 2097.73 187.865 Q2099.82 188.212 2101.58 188.907 Z" fill="#000000" fill-rule="nonzero" fill-opacity="1" /><path clip-path="url(#clip850)" d="M2113.96 180.782 L2113.96 188.143 L2122.73 188.143 L2122.73 191.453 L2113.96 191.453 L2113.96 205.527 Q2113.96 208.698 2114.82 209.601 Q2115.7 210.504 2118.36 210.504 L2122.73 210.504 L2122.73 214.069 L2118.36 214.069 Q2113.43 214.069 2111.55 212.24 Q2109.68 210.388 2109.68 205.527 L2109.68 191.453 L2106.55 191.453 L2106.55 188.143 L2109.68 188.143 L2109.68 180.782 L2113.96 180.782 Z" fill="#000000" fill-rule="nonzero" fill-opacity="1" /><path clip-path="url(#clip850)" d="M2138.38 191.129 Q2134.96 191.129 2132.96 193.814 Q2130.97 196.476 2130.97 201.129 Q2130.97 205.782 2132.94 208.467 Q2134.93 211.129 2138.38 211.129 Q2141.78 211.129 2143.77 208.444 Q2145.77 205.758 2145.77 201.129 Q2145.77 196.522 2143.77 193.837 Q2141.78 191.129 2138.38 191.129 M2138.38 187.518 Q2143.94 187.518 2147.11 191.129 Q2150.28 194.74 2150.28 201.129 Q2150.28 207.495 2147.11 211.129 Q2143.94 214.74 2138.38 214.74 Q2132.8 214.74 2129.63 211.129 Q2126.48 207.495 2126.48 201.129 Q2126.48 194.74 2129.63 191.129 Q2132.8 187.518 2138.38 187.518 Z" fill="#000000" fill-rule="nonzero" fill-opacity="1" /><path clip-path="url(#clip850)" d="M2172.36 192.124 Q2171.64 191.708 2170.79 191.522 Q2169.95 191.314 2168.94 191.314 Q2165.33 191.314 2163.38 193.675 Q2161.46 196.013 2161.46 200.411 L2161.46 214.069 L2157.18 214.069 L2157.18 188.143 L2161.46 188.143 L2161.46 192.171 Q2162.8 189.809 2164.95 188.675 Q2167.11 187.518 2170.19 187.518 Q2170.63 187.518 2171.16 187.587 Q2171.69 187.634 2172.34 187.749 L2172.36 192.124 Z" fill="#000000" fill-rule="nonzero" fill-opacity="1" /><path clip-path="url(#clip850)" d="M2188.61 201.036 Q2183.45 201.036 2181.46 202.217 Q2179.47 203.397 2179.47 206.245 Q2179.47 208.513 2180.95 209.856 Q2182.45 211.175 2185.02 211.175 Q2188.57 211.175 2190.7 208.675 Q2192.85 206.152 2192.85 201.985 L2192.85 201.036 L2188.61 201.036 M2197.11 199.277 L2197.11 214.069 L2192.85 214.069 L2192.85 210.133 Q2191.39 212.495 2189.21 213.629 Q2187.04 214.74 2183.89 214.74 Q2179.91 214.74 2177.55 212.518 Q2175.21 210.272 2175.21 206.522 Q2175.21 202.147 2178.13 199.925 Q2181.07 197.703 2186.88 197.703 L2192.85 197.703 L2192.85 197.286 Q2192.85 194.347 2190.9 192.749 Q2188.98 191.129 2185.49 191.129 Q2183.27 191.129 2181.16 191.661 Q2179.05 192.194 2177.11 193.259 L2177.11 189.323 Q2179.45 188.421 2181.64 187.981 Q2183.84 187.518 2185.93 187.518 Q2191.55 187.518 2194.33 190.434 Q2197.11 193.351 2197.11 199.277 Z" fill="#000000" fill-rule="nonzero" fill-opacity="1" /><path clip-path="url(#clip850)" d="M2222.94 200.805 Q2222.94 196.175 2221.02 193.629 Q2219.12 191.083 2215.67 191.083 Q2212.25 191.083 2210.33 193.629 Q2208.43 196.175 2208.43 200.805 Q2208.43 205.411 2210.33 207.958 Q2212.25 210.504 2215.67 210.504 Q2219.12 210.504 2221.02 207.958 Q2222.94 205.411 2222.94 200.805 M2227.2 210.851 Q2227.2 217.471 2224.26 220.689 Q2221.32 223.93 2215.26 223.93 Q2213.01 223.93 2211.02 223.582 Q2209.03 223.258 2207.15 222.564 L2207.15 218.42 Q2209.03 219.439 2210.86 219.925 Q2212.69 220.411 2214.58 220.411 Q2218.77 220.411 2220.86 218.212 Q2222.94 216.036 2222.94 211.615 L2222.94 209.508 Q2221.62 211.8 2219.56 212.934 Q2217.5 214.069 2214.63 214.069 Q2209.86 214.069 2206.95 210.434 Q2204.03 206.8 2204.03 200.805 Q2204.03 194.786 2206.95 191.152 Q2209.86 187.518 2214.63 187.518 Q2217.5 187.518 2219.56 188.652 Q2221.62 189.786 2222.94 192.078 L2222.94 188.143 L2227.2 188.143 L2227.2 210.851 Z" fill="#000000" fill-rule="nonzero" fill-opacity="1" /><path clip-path="url(#clip850)" d="M2258.15 200.041 L2258.15 202.124 L2238.57 202.124 Q2238.84 206.522 2241.2 208.837 Q2243.59 211.129 2247.82 211.129 Q2250.28 211.129 2252.57 210.527 Q2254.89 209.925 2257.15 208.721 L2257.15 212.749 Q2254.86 213.721 2252.45 214.231 Q2250.05 214.74 2247.57 214.74 Q2241.37 214.74 2237.73 211.129 Q2234.12 207.518 2234.12 201.36 Q2234.12 194.995 2237.55 191.268 Q2241 187.518 2246.83 187.518 Q2252.06 187.518 2255.09 190.897 Q2258.15 194.254 2258.15 200.041 M2253.89 198.791 Q2253.84 195.296 2251.92 193.212 Q2250.02 191.129 2246.88 191.129 Q2243.31 191.129 2241.16 193.143 Q2239.03 195.157 2238.7 198.814 L2253.89 198.791 Z" fill="#000000" fill-rule="nonzero" fill-opacity="1" /></svg>
