<?xml version="1.0" encoding="utf-8"?>
<svg xmlns="http://www.w3.org/2000/svg" xmlns:xlink="http://www.w3.org/1999/xlink" width="600" height="400" viewBox="0 0 2400 1600">
<defs>
  <clipPath id="clip770">
    <rect x="0" y="0" width="2400" height="1600"/>
  </clipPath>
</defs>
<path clip-path="url(#clip770)" d="M0 1600 L2400 1600 L2400 0 L0 0  Z" fill="#ffffff" fill-rule="evenodd" fill-opacity="1"/>
<defs>
  <clipPath id="clip771">
    <rect x="480" y="0" width="1681" height="1600"/>
  </clipPath>
</defs>
<path clip-path="url(#clip770)" d="M193.288 1423.18 L2352.76 1423.18 L2352.76 47.2441 L193.288 47.2441  Z" fill="#ffffff" fill-rule="evenodd" fill-opacity="1"/>
<defs>
  <clipPath id="clip772">
    <rect x="193" y="47" width="2160" height="1377"/>
  </clipPath>
</defs>
<polyline clip-path="url(#clip772)" style="stroke:#000000; stroke-linecap:round; stroke-linejoin:round; stroke-width:2; stroke-opacity:0.1; fill:none" points="193.288,1423.18 193.288,47.2441 "/>
<polyline clip-path="url(#clip772)" style="stroke:#000000; stroke-linecap:round; stroke-linejoin:round; stroke-width:2; stroke-opacity:0.1; fill:none" points="733.155,1423.18 733.155,47.2441 "/>
<polyline clip-path="url(#clip772)" style="stroke:#000000; stroke-linecap:round; stroke-linejoin:round; stroke-width:2; stroke-opacity:0.1; fill:none" points="1273.02,1423.18 1273.02,47.2441 "/>
<polyline clip-path="url(#clip772)" style="stroke:#000000; stroke-linecap:round; stroke-linejoin:round; stroke-width:2; stroke-opacity:0.1; fill:none" points="1812.89,1423.18 1812.89,47.2441 "/>
<polyline clip-path="url(#clip772)" style="stroke:#000000; stroke-linecap:round; stroke-linejoin:round; stroke-width:2; stroke-opacity:0.1; fill:none" points="2352.76,1423.18 2352.76,47.2441 "/>
<polyline clip-path="url(#clip772)" style="stroke:#000000; stroke-linecap:round; stroke-linejoin:round; stroke-width:2; stroke-opacity:0.1; fill:none" points="193.288,1281.31 2352.76,1281.31 "/>
<polyline clip-path="url(#clip772)" style="stroke:#000000; stroke-linecap:round; stroke-linejoin:round; stroke-width:2; stroke-opacity:0.1; fill:none" points="193.288,1017.98 2352.76,1017.98 "/>
<polyline clip-path="url(#clip772)" style="stroke:#000000; stroke-linecap:round; stroke-linejoin:round; stroke-width:2; stroke-opacity:0.1; fill:none" points="193.288,754.646 2352.76,754.646 "/>
<polyline clip-path="url(#clip772)" style="stroke:#000000; stroke-linecap:round; stroke-linejoin:round; stroke-width:2; stroke-opacity:0.1; fill:none" points="193.288,491.312 2352.76,491.312 "/>
<polyline clip-path="url(#clip772)" style="stroke:#000000; stroke-linecap:round; stroke-linejoin:round; stroke-width:2; stroke-opacity:0.1; fill:none" points="193.288,227.978 2352.76,227.978 "/>
<polyline clip-path="url(#clip770)" style="stroke:#000000; stroke-linecap:round; stroke-linejoin:round; stroke-width:4; stroke-opacity:1; fill:none" points="193.288,1423.18 2352.76,1423.18 "/>
<polyline clip-path="url(#clip770)" style="stroke:#000000; stroke-linecap:round; stroke-linejoin:round; stroke-width:4; stroke-opacity:1; fill:none" points="193.288,1423.18 193.288,1404.28 "/>
<polyline clip-path="url(#clip770)" style="stroke:#000000; stroke-linecap:round; stroke-linejoin:round; stroke-width:4; stroke-opacity:1; fill:none" points="733.155,1423.18 733.155,1404.28 "/>
<polyline clip-path="url(#clip770)" style="stroke:#000000; stroke-linecap:round; stroke-linejoin:round; stroke-width:4; stroke-opacity:1; fill:none" points="1273.02,1423.18 1273.02,1404.28 "/>
<polyline clip-path="url(#clip770)" style="stroke:#000000; stroke-linecap:round; stroke-linejoin:round; stroke-width:4; stroke-opacity:1; fill:none" points="1812.89,1423.18 1812.89,1404.28 "/>
<polyline clip-path="url(#clip770)" style="stroke:#000000; stroke-linecap:round; stroke-linejoin:round; stroke-width:4; stroke-opacity:1; fill:none" points="2352.76,1423.18 2352.76,1404.28 "/>
<path clip-path="url(#clip770)" d="M170.672 1454.1 Q167.061 1454.1 165.232 1457.66 Q163.427 1461.2 163.427 1468.33 Q163.427 1475.44 165.232 1479.01 Q167.061 1482.55 170.672 1482.55 Q174.306 1482.55 176.112 1479.01 Q177.941 1475.44 177.941 1468.33 Q177.941 1461.2 176.112 1457.66 Q174.306 1454.1 170.672 1454.1 M170.672 1450.39 Q176.482 1450.39 179.538 1455 Q182.617 1459.58 182.617 1468.33 Q182.617 1477.06 179.538 1481.67 Q176.482 1486.25 170.672 1486.25 Q164.862 1486.25 161.783 1481.67 Q158.728 1477.06 158.728 1468.33 Q158.728 1459.58 161.783 1455 Q164.862 1450.39 170.672 1450.39 Z" fill="#000000" fill-rule="nonzero" fill-opacity="1" /><path clip-path="url(#clip770)" d="M190.834 1479.7 L195.718 1479.7 L195.718 1485.58 L190.834 1485.58 L190.834 1479.7 Z" fill="#000000" fill-rule="nonzero" fill-opacity="1" /><path clip-path="url(#clip770)" d="M215.903 1454.1 Q212.292 1454.1 210.464 1457.66 Q208.658 1461.2 208.658 1468.33 Q208.658 1475.44 210.464 1479.01 Q212.292 1482.55 215.903 1482.55 Q219.538 1482.55 221.343 1479.01 Q223.172 1475.44 223.172 1468.33 Q223.172 1461.2 221.343 1457.66 Q219.538 1454.1 215.903 1454.1 M215.903 1450.39 Q221.714 1450.39 224.769 1455 Q227.848 1459.58 227.848 1468.33 Q227.848 1477.06 224.769 1481.67 Q221.714 1486.25 215.903 1486.25 Q210.093 1486.25 207.015 1481.67 Q203.959 1477.06 203.959 1468.33 Q203.959 1459.58 207.015 1455 Q210.093 1450.39 215.903 1450.39 Z" fill="#000000" fill-rule="nonzero" fill-opacity="1" /><path clip-path="url(#clip770)" d="M711.037 1454.1 Q707.426 1454.1 705.597 1457.66 Q703.792 1461.2 703.792 1468.33 Q703.792 1475.44 705.597 1479.01 Q707.426 1482.55 711.037 1482.55 Q714.671 1482.55 716.477 1479.01 Q718.305 1475.44 718.305 1468.33 Q718.305 1461.2 716.477 1457.66 Q714.671 1454.1 711.037 1454.1 M711.037 1450.39 Q716.847 1450.39 719.903 1455 Q722.981 1459.58 722.981 1468.33 Q722.981 1477.06 719.903 1481.67 Q716.847 1486.25 711.037 1486.25 Q705.227 1486.25 702.148 1481.67 Q699.093 1477.06 699.093 1468.33 Q699.093 1459.58 702.148 1455 Q705.227 1450.39 711.037 1450.39 Z" fill="#000000" fill-rule="nonzero" fill-opacity="1" /><path clip-path="url(#clip770)" d="M731.199 1479.7 L736.083 1479.7 L736.083 1485.58 L731.199 1485.58 L731.199 1479.7 Z" fill="#000000" fill-rule="nonzero" fill-opacity="1" /><path clip-path="url(#clip770)" d="M746.315 1451.02 L764.671 1451.02 L764.671 1454.96 L750.597 1454.96 L750.597 1463.43 Q751.615 1463.08 752.634 1462.92 Q753.652 1462.73 754.671 1462.73 Q760.458 1462.73 763.838 1465.9 Q767.217 1469.08 767.217 1474.49 Q767.217 1480.07 763.745 1483.17 Q760.273 1486.25 753.953 1486.25 Q751.777 1486.25 749.509 1485.88 Q747.264 1485.51 744.856 1484.77 L744.856 1480.07 Q746.94 1481.2 749.162 1481.76 Q751.384 1482.32 753.861 1482.32 Q757.865 1482.32 760.203 1480.21 Q762.541 1478.1 762.541 1474.49 Q762.541 1470.88 760.203 1468.77 Q757.865 1466.67 753.861 1466.67 Q751.986 1466.67 750.111 1467.08 Q748.259 1467.5 746.315 1468.38 L746.315 1451.02 Z" fill="#000000" fill-rule="nonzero" fill-opacity="1" /><path clip-path="url(#clip770)" d="M1240.17 1481.64 L1247.81 1481.64 L1247.81 1455.28 L1239.5 1456.95 L1239.5 1452.69 L1247.77 1451.02 L1252.44 1451.02 L1252.44 1481.64 L1260.08 1481.64 L1260.08 1485.58 L1240.17 1485.58 L1240.17 1481.64 Z" fill="#000000" fill-rule="nonzero" fill-opacity="1" /><path clip-path="url(#clip770)" d="M1269.53 1479.7 L1274.41 1479.7 L1274.41 1485.58 L1269.53 1485.58 L1269.53 1479.7 Z" fill="#000000" fill-rule="nonzero" fill-opacity="1" /><path clip-path="url(#clip770)" d="M1294.6 1454.1 Q1290.98 1454.1 1289.16 1457.66 Q1287.35 1461.2 1287.35 1468.33 Q1287.35 1475.44 1289.16 1479.01 Q1290.98 1482.55 1294.6 1482.55 Q1298.23 1482.55 1300.04 1479.01 Q1301.86 1475.44 1301.86 1468.33 Q1301.86 1461.2 1300.04 1457.66 Q1298.23 1454.1 1294.6 1454.1 M1294.6 1450.39 Q1300.41 1450.39 1303.46 1455 Q1306.54 1459.58 1306.54 1468.33 Q1306.54 1477.06 1303.46 1481.67 Q1300.41 1486.25 1294.6 1486.25 Q1288.79 1486.25 1285.71 1481.67 Q1282.65 1477.06 1282.65 1468.33 Q1282.65 1459.58 1285.71 1455 Q1288.79 1450.39 1294.6 1450.39 Z" fill="#000000" fill-rule="nonzero" fill-opacity="1" /><path clip-path="url(#clip770)" d="M1780.54 1481.64 L1788.18 1481.64 L1788.18 1455.28 L1779.87 1456.95 L1779.87 1452.69 L1788.13 1451.02 L1792.81 1451.02 L1792.81 1481.64 L1800.45 1481.64 L1800.45 1485.58 L1780.54 1485.58 L1780.54 1481.64 Z" fill="#000000" fill-rule="nonzero" fill-opacity="1" /><path clip-path="url(#clip770)" d="M1809.89 1479.7 L1814.78 1479.7 L1814.78 1485.58 L1809.89 1485.58 L1809.89 1479.7 Z" fill="#000000" fill-rule="nonzero" fill-opacity="1" /><path clip-path="url(#clip770)" d="M1825.01 1451.02 L1843.36 1451.02 L1843.36 1454.96 L1829.29 1454.96 L1829.29 1463.43 Q1830.31 1463.08 1831.33 1462.92 Q1832.34 1462.73 1833.36 1462.73 Q1839.15 1462.73 1842.53 1465.9 Q1845.91 1469.08 1845.91 1474.49 Q1845.91 1480.07 1842.44 1483.17 Q1838.97 1486.25 1832.65 1486.25 Q1830.47 1486.25 1828.2 1485.88 Q1825.96 1485.51 1823.55 1484.77 L1823.55 1480.07 Q1825.63 1481.2 1827.85 1481.76 Q1830.08 1482.32 1832.55 1482.32 Q1836.56 1482.32 1838.9 1480.21 Q1841.23 1478.1 1841.23 1474.49 Q1841.23 1470.88 1838.9 1468.77 Q1836.56 1466.67 1832.55 1466.67 Q1830.68 1466.67 1828.8 1467.08 Q1826.95 1467.5 1825.01 1468.38 L1825.01 1451.02 Z" fill="#000000" fill-rule="nonzero" fill-opacity="1" /><path clip-path="url(#clip770)" d="M2323.99 1481.64 L2340.31 1481.64 L2340.31 1485.58 L2318.37 1485.58 L2318.37 1481.64 Q2321.03 1478.89 2325.61 1474.26 Q2330.22 1469.61 2331.4 1468.27 Q2333.65 1465.74 2334.53 1464.01 Q2335.43 1462.25 2335.43 1460.56 Q2335.43 1457.8 2333.49 1456.07 Q2331.56 1454.33 2328.46 1454.33 Q2326.26 1454.33 2323.81 1455.09 Q2321.38 1455.86 2318.6 1457.41 L2318.6 1452.69 Q2321.43 1451.55 2323.88 1450.97 Q2326.33 1450.39 2328.37 1450.39 Q2333.74 1450.39 2336.93 1453.08 Q2340.13 1455.77 2340.13 1460.26 Q2340.13 1462.39 2339.32 1464.31 Q2338.53 1466.2 2336.42 1468.8 Q2335.85 1469.47 2332.74 1472.69 Q2329.64 1475.88 2323.99 1481.64 Z" fill="#000000" fill-rule="nonzero" fill-opacity="1" /><path clip-path="url(#clip770)" d="M2350.13 1479.7 L2355.01 1479.7 L2355.01 1485.58 L2350.13 1485.58 L2350.13 1479.7 Z" fill="#000000" fill-rule="nonzero" fill-opacity="1" /><path clip-path="url(#clip770)" d="M2375.2 1454.1 Q2371.59 1454.1 2369.76 1457.66 Q2367.95 1461.2 2367.95 1468.33 Q2367.95 1475.44 2369.76 1479.01 Q2371.59 1482.55 2375.2 1482.55 Q2378.83 1482.55 2380.64 1479.01 Q2382.47 1475.44 2382.47 1468.33 Q2382.47 1461.2 2380.64 1457.66 Q2378.83 1454.1 2375.2 1454.1 M2375.2 1450.39 Q2381.01 1450.39 2384.06 1455 Q2387.14 1459.58 2387.14 1468.33 Q2387.14 1477.06 2384.06 1481.67 Q2381.01 1486.25 2375.2 1486.25 Q2369.39 1486.25 2366.31 1481.67 Q2363.25 1477.06 2363.25 1468.33 Q2363.25 1459.58 2366.31 1455 Q2369.39 1450.39 2375.2 1450.39 Z" fill="#000000" fill-rule="nonzero" fill-opacity="1" /><path clip-path="url(#clip770)" d="M1272.08 1522.27 L1272.08 1532.4 L1284.15 1532.4 L1284.15 1536.95 L1272.08 1536.95 L1272.08 1556.3 Q1272.08 1560.66 1273.26 1561.9 Q1274.47 1563.14 1278.13 1563.14 L1284.15 1563.14 L1284.15 1568.04 L1278.13 1568.04 Q1271.35 1568.04 1268.77 1565.53 Q1266.19 1562.98 1266.19 1556.3 L1266.19 1536.95 L1261.9 1536.95 L1261.9 1532.4 L1266.19 1532.4 L1266.19 1522.27 L1272.08 1522.27 Z" fill="#000000" fill-rule="nonzero" fill-opacity="1" /><polyline clip-path="url(#clip770)" style="stroke:#000000; stroke-linecap:round; stroke-linejoin:round; stroke-width:4; stroke-opacity:1; fill:none" points="193.288,1423.18 193.288,47.2441 "/>
<polyline clip-path="url(#clip770)" style="stroke:#000000; stroke-linecap:round; stroke-linejoin:round; stroke-width:4; stroke-opacity:1; fill:none" points="193.288,1281.31 212.185,1281.31 "/>
<polyline clip-path="url(#clip770)" style="stroke:#000000; stroke-linecap:round; stroke-linejoin:round; stroke-width:4; stroke-opacity:1; fill:none" points="193.288,1017.98 212.185,1017.98 "/>
<polyline clip-path="url(#clip770)" style="stroke:#000000; stroke-linecap:round; stroke-linejoin:round; stroke-width:4; stroke-opacity:1; fill:none" points="193.288,754.646 212.185,754.646 "/>
<polyline clip-path="url(#clip770)" style="stroke:#000000; stroke-linecap:round; stroke-linejoin:round; stroke-width:4; stroke-opacity:1; fill:none" points="193.288,491.312 212.185,491.312 "/>
<polyline clip-path="url(#clip770)" style="stroke:#000000; stroke-linecap:round; stroke-linejoin:round; stroke-width:4; stroke-opacity:1; fill:none" points="193.288,227.978 212.185,227.978 "/>
<path clip-path="url(#clip770)" d="M50.9921 1281.76 L80.6679 1281.76 L80.6679 1285.7 L50.9921 1285.7 L50.9921 1281.76 Z" fill="#000000" fill-rule="nonzero" fill-opacity="1" /><path clip-path="url(#clip770)" d="M100.76 1267.11 Q97.1493 1267.11 95.3206 1270.68 Q93.515 1274.22 93.515 1281.35 Q93.515 1288.45 95.3206 1292.02 Q97.1493 1295.56 100.76 1295.56 Q104.395 1295.56 106.2 1292.02 Q108.029 1288.45 108.029 1281.35 Q108.029 1274.22 106.2 1270.68 Q104.395 1267.11 100.76 1267.11 M100.76 1263.41 Q106.571 1263.41 109.626 1268.01 Q112.705 1272.6 112.705 1281.35 Q112.705 1290.07 109.626 1294.68 Q106.571 1299.26 100.76 1299.26 Q94.9502 1299.26 91.8715 1294.68 Q88.816 1290.07 88.816 1281.35 Q88.816 1272.6 91.8715 1268.01 Q94.9502 1263.41 100.76 1263.41 Z" fill="#000000" fill-rule="nonzero" fill-opacity="1" /><path clip-path="url(#clip770)" d="M120.922 1292.71 L125.807 1292.71 L125.807 1298.59 L120.922 1298.59 L120.922 1292.71 Z" fill="#000000" fill-rule="nonzero" fill-opacity="1" /><path clip-path="url(#clip770)" d="M150.158 1279.96 Q153.515 1280.68 155.39 1282.95 Q157.288 1285.21 157.288 1288.55 Q157.288 1293.66 153.769 1296.46 Q150.251 1299.26 143.769 1299.26 Q141.593 1299.26 139.279 1298.82 Q136.987 1298.41 134.533 1297.55 L134.533 1293.04 Q136.478 1294.17 138.793 1294.75 Q141.107 1295.33 143.631 1295.33 Q148.029 1295.33 150.32 1293.59 Q152.635 1291.86 152.635 1288.55 Q152.635 1285.49 150.482 1283.78 Q148.353 1282.04 144.533 1282.04 L140.506 1282.04 L140.506 1278.2 L144.718 1278.2 Q148.168 1278.2 149.996 1276.83 Q151.825 1275.45 151.825 1272.85 Q151.825 1270.19 149.927 1268.78 Q148.052 1267.34 144.533 1267.34 Q142.612 1267.34 140.413 1267.76 Q138.214 1268.18 135.575 1269.06 L135.575 1264.89 Q138.237 1264.15 140.552 1263.78 Q142.89 1263.41 144.95 1263.41 Q150.274 1263.41 153.376 1265.84 Q156.478 1268.25 156.478 1272.37 Q156.478 1275.24 154.834 1277.23 Q153.191 1279.2 150.158 1279.96 Z" fill="#000000" fill-rule="nonzero" fill-opacity="1" /><path clip-path="url(#clip770)" d="M100.112 1003.78 Q96.5011 1003.78 94.6724 1007.34 Q92.8669 1010.88 92.8669 1018.01 Q92.8669 1025.12 94.6724 1028.69 Q96.5011 1032.23 100.112 1032.23 Q103.746 1032.23 105.552 1028.69 Q107.381 1025.12 107.381 1018.01 Q107.381 1010.88 105.552 1007.34 Q103.746 1003.78 100.112 1003.78 M100.112 1000.07 Q105.922 1000.07 108.978 1004.68 Q112.057 1009.26 112.057 1018.01 Q112.057 1026.74 108.978 1031.35 Q105.922 1035.93 100.112 1035.93 Q94.3021 1035.93 91.2234 1031.35 Q88.1679 1026.74 88.1679 1018.01 Q88.1679 1009.26 91.2234 1004.68 Q94.3021 1000.07 100.112 1000.07 Z" fill="#000000" fill-rule="nonzero" fill-opacity="1" /><path clip-path="url(#clip770)" d="M120.274 1029.38 L125.158 1029.38 L125.158 1035.26 L120.274 1035.26 L120.274 1029.38 Z" fill="#000000" fill-rule="nonzero" fill-opacity="1" /><path clip-path="url(#clip770)" d="M145.343 1003.78 Q141.732 1003.78 139.904 1007.34 Q138.098 1010.88 138.098 1018.01 Q138.098 1025.12 139.904 1028.69 Q141.732 1032.23 145.343 1032.23 Q148.978 1032.23 150.783 1028.69 Q152.612 1025.12 152.612 1018.01 Q152.612 1010.88 150.783 1007.34 Q148.978 1003.78 145.343 1003.78 M145.343 1000.07 Q151.154 1000.07 154.209 1004.68 Q157.288 1009.26 157.288 1018.01 Q157.288 1026.74 154.209 1031.35 Q151.154 1035.93 145.343 1035.93 Q139.533 1035.93 136.455 1031.35 Q133.399 1026.74 133.399 1018.01 Q133.399 1009.26 136.455 1004.68 Q139.533 1000.07 145.343 1000.07 Z" fill="#000000" fill-rule="nonzero" fill-opacity="1" /><path clip-path="url(#clip770)" d="M100.76 740.444 Q97.1493 740.444 95.3206 744.009 Q93.515 747.551 93.515 754.68 Q93.515 761.787 95.3206 765.352 Q97.1493 768.893 100.76 768.893 Q104.395 768.893 106.2 765.352 Q108.029 761.787 108.029 754.68 Q108.029 747.551 106.2 744.009 Q104.395 740.444 100.76 740.444 M100.76 736.741 Q106.571 736.741 109.626 741.347 Q112.705 745.93 112.705 754.68 Q112.705 763.407 109.626 768.014 Q106.571 772.597 100.76 772.597 Q94.9502 772.597 91.8715 768.014 Q88.816 763.407 88.816 754.68 Q88.816 745.93 91.8715 741.347 Q94.9502 736.741 100.76 736.741 Z" fill="#000000" fill-rule="nonzero" fill-opacity="1" /><path clip-path="url(#clip770)" d="M120.922 766.046 L125.807 766.046 L125.807 771.926 L120.922 771.926 L120.922 766.046 Z" fill="#000000" fill-rule="nonzero" fill-opacity="1" /><path clip-path="url(#clip770)" d="M150.158 753.292 Q153.515 754.009 155.39 756.278 Q157.288 758.546 157.288 761.879 Q157.288 766.995 153.769 769.796 Q150.251 772.597 143.769 772.597 Q141.593 772.597 139.279 772.157 Q136.987 771.741 134.533 770.884 L134.533 766.37 Q136.478 767.504 138.793 768.083 Q141.107 768.662 143.631 768.662 Q148.029 768.662 150.32 766.926 Q152.635 765.19 152.635 761.879 Q152.635 758.824 150.482 757.111 Q148.353 755.375 144.533 755.375 L140.506 755.375 L140.506 751.532 L144.718 751.532 Q148.168 751.532 149.996 750.167 Q151.825 748.778 151.825 746.185 Q151.825 743.523 149.927 742.111 Q148.052 740.676 144.533 740.676 Q142.612 740.676 140.413 741.093 Q138.214 741.509 135.575 742.389 L135.575 738.222 Q138.237 737.481 140.552 737.111 Q142.89 736.741 144.95 736.741 Q150.274 736.741 153.376 739.171 Q156.478 741.579 156.478 745.699 Q156.478 748.569 154.834 750.56 Q153.191 752.528 150.158 753.292 Z" fill="#000000" fill-rule="nonzero" fill-opacity="1" /><path clip-path="url(#clip770)" d="M99.9502 477.111 Q96.3391 477.111 94.5104 480.675 Q92.7049 484.217 92.7049 491.347 Q92.7049 498.453 94.5104 502.018 Q96.3391 505.56 99.9502 505.56 Q103.584 505.56 105.39 502.018 Q107.219 498.453 107.219 491.347 Q107.219 484.217 105.39 480.675 Q103.584 477.111 99.9502 477.111 M99.9502 473.407 Q105.76 473.407 108.816 478.013 Q111.895 482.597 111.895 491.347 Q111.895 500.073 108.816 504.68 Q105.76 509.263 99.9502 509.263 Q94.14 509.263 91.0614 504.68 Q88.0058 500.073 88.0058 491.347 Q88.0058 482.597 91.0614 478.013 Q94.14 473.407 99.9502 473.407 Z" fill="#000000" fill-rule="nonzero" fill-opacity="1" /><path clip-path="url(#clip770)" d="M120.112 502.712 L124.996 502.712 L124.996 508.592 L120.112 508.592 L120.112 502.712 Z" fill="#000000" fill-rule="nonzero" fill-opacity="1" /><path clip-path="url(#clip770)" d="M145.76 489.449 Q142.612 489.449 140.76 491.601 Q138.931 493.754 138.931 497.504 Q138.931 501.231 140.76 503.407 Q142.612 505.56 145.76 505.56 Q148.908 505.56 150.737 503.407 Q152.589 501.231 152.589 497.504 Q152.589 493.754 150.737 491.601 Q148.908 489.449 145.76 489.449 M155.042 474.796 L155.042 479.055 Q153.283 478.222 151.478 477.782 Q149.695 477.342 147.936 477.342 Q143.306 477.342 140.853 480.467 Q138.422 483.592 138.075 489.911 Q139.441 487.898 141.501 486.833 Q143.561 485.745 146.038 485.745 Q151.246 485.745 154.255 488.916 Q157.288 492.064 157.288 497.504 Q157.288 502.828 154.14 506.046 Q150.992 509.263 145.76 509.263 Q139.765 509.263 136.594 504.68 Q133.422 500.073 133.422 491.347 Q133.422 483.152 137.311 478.291 Q141.2 473.407 147.751 473.407 Q149.51 473.407 151.293 473.754 Q153.098 474.101 155.042 474.796 Z" fill="#000000" fill-rule="nonzero" fill-opacity="1" /><path clip-path="url(#clip770)" d="M100.297 213.777 Q96.6863 213.777 94.8576 217.342 Q93.0521 220.883 93.0521 228.013 Q93.0521 235.119 94.8576 238.684 Q96.6863 242.226 100.297 242.226 Q103.932 242.226 105.737 238.684 Q107.566 235.119 107.566 228.013 Q107.566 220.883 105.737 217.342 Q103.932 213.777 100.297 213.777 M100.297 210.073 Q106.108 210.073 109.163 214.68 Q112.242 219.263 112.242 228.013 Q112.242 236.74 109.163 241.346 Q106.108 245.929 100.297 245.929 Q94.4873 245.929 91.4086 241.346 Q88.353 236.74 88.353 228.013 Q88.353 219.263 91.4086 214.68 Q94.4873 210.073 100.297 210.073 Z" fill="#000000" fill-rule="nonzero" fill-opacity="1" /><path clip-path="url(#clip770)" d="M120.459 239.379 L125.344 239.379 L125.344 245.258 L120.459 245.258 L120.459 239.379 Z" fill="#000000" fill-rule="nonzero" fill-opacity="1" /><path clip-path="url(#clip770)" d="M135.668 244.541 L135.668 240.281 Q137.427 241.115 139.232 241.554 Q141.038 241.994 142.774 241.994 Q147.404 241.994 149.834 238.892 Q152.288 235.767 152.635 229.425 Q151.293 231.416 149.232 232.48 Q147.172 233.545 144.672 233.545 Q139.487 233.545 136.455 230.42 Q133.445 227.272 133.445 221.832 Q133.445 216.508 136.594 213.291 Q139.742 210.073 144.973 210.073 Q150.968 210.073 154.117 214.68 Q157.288 219.263 157.288 228.013 Q157.288 236.184 153.399 241.068 Q149.533 245.929 142.982 245.929 Q141.223 245.929 139.418 245.582 Q137.612 245.235 135.668 244.541 M144.973 229.888 Q148.121 229.888 149.95 227.735 Q151.802 225.582 151.802 221.832 Q151.802 218.106 149.95 215.953 Q148.121 213.777 144.973 213.777 Q141.825 213.777 139.973 215.953 Q138.144 218.106 138.144 221.832 Q138.144 225.582 139.973 227.735 Q141.825 229.888 144.973 229.888 Z" fill="#000000" fill-rule="nonzero" fill-opacity="1" /><polyline clip-path="url(#clip772)" style="stroke:#009af9; stroke-linecap:round; stroke-linejoin:round; stroke-width:4; stroke-opacity:1; fill:none" points="193.288,1384.24 195.449,1382.36 197.611,1380.5 199.773,1378.65 201.934,1376.83 204.096,1375.02 206.258,1373.23 208.419,1371.46 210.581,1369.71 212.743,1367.97 214.904,1366.25 217.066,1364.55 219.227,1362.87 221.389,1361.2 223.551,1359.55 225.712,1357.91 227.874,1356.29 230.036,1354.69 232.197,1353.11 234.359,1351.54 236.52,1349.98 238.682,1348.44 240.844,1346.92 243.005,1345.41 245.167,1343.91 247.329,1342.44 249.49,1340.97 251.652,1339.52 253.813,1338.09 255.975,1336.66 258.137,1335.26 260.298,1333.87 262.46,1332.49 264.622,1331.12 266.783,1329.77 268.945,1328.43 271.107,1327.11 273.268,1325.79 275.43,1324.5 277.591,1323.21 279.753,1321.94 281.915,1320.68 284.076,1319.43 286.238,1318.19 288.4,1316.97 290.561,1315.76 292.723,1314.56 294.884,1313.38 297.046,1312.2 299.208,1311.04 301.369,1309.89 303.531,1308.75 305.693,1307.62 307.854,1306.5 310.016,1305.39 312.177,1304.3 314.339,1303.21 316.501,1302.14 318.662,1301.08 320.824,1300.03 322.986,1298.98 325.147,1297.95 327.309,1296.93 329.471,1295.92 331.632,1294.92 333.794,1293.93 335.955,1292.95 338.117,1291.98 340.279,1291.01 342.44,1290.06 344.602,1289.12 346.764,1288.19 348.925,1287.26 351.087,1286.35 353.248,1285.44 355.41,1284.54 357.572,1283.66 359.733,1282.78 361.895,1281.91 364.057,1281.05 366.218,1280.19 368.38,1279.35 370.541,1278.51 372.703,1277.69 374.865,1276.87 377.026,1276.05 379.188,1275.25 381.35,1274.46 383.511,1273.67 385.673,1272.89 387.835,1272.12 389.996,1271.35 392.158,1270.6 394.319,1269.85 396.481,1269.11 398.643,1268.37 400.804,1267.65 402.966,1266.93 405.128,1266.22 407.289,1265.51 409.451,1264.81 411.612,1264.12 413.774,1263.44 415.936,1262.76 418.097,1262.09 420.259,1261.42 422.421,1260.77 424.582,1260.12 426.744,1259.47 428.905,1258.83 431.067,1258.2 433.229,1257.58 435.39,1256.96 437.552,1256.35 439.714,1255.74 441.875,1255.14 444.037,1254.54 446.199,1253.95 448.36,1253.37 450.522,1252.79 452.683,1252.22 454.845,1251.66 457.007,1251.1 459.168,1250.54 461.33,1249.99 463.492,1249.45 465.653,1248.91 467.815,1248.38 469.976,1247.85 472.138,1247.33 474.3,1246.81 476.461,1246.3 478.623,1245.79 480.785,1245.29 482.946,1244.79 485.108,1244.3 487.269,1243.82 489.431,1243.33 491.593,1242.86 493.754,1242.38 495.916,1241.92 498.078,1241.45 500.239,1240.99 502.401,1240.54 504.563,1240.09 506.724,1239.65 508.886,1239.21 511.047,1238.77 513.209,1238.34 515.371,1237.91 517.532,1237.49 519.694,1237.07 521.856,1236.65 524.017,1236.24 526.179,1235.84 528.34,1235.43 530.502,1235.04 532.664,1234.64 534.825,1234.25 536.987,1233.86 539.149,1233.48 541.31,1233.1 543.472,1232.73 545.633,1232.35 547.795,1231.99 549.957,1231.62 552.118,1231.26 554.28,1230.91 556.442,1230.55 558.603,1230.2 560.765,1229.86 562.927,1229.51 565.088,1229.17 567.25,1228.84 569.411,1228.5 571.573,1228.17 573.735,1227.85 575.896,1227.53 578.058,1227.21 580.22,1226.89 582.381,1226.58 584.543,1226.27 586.704,1225.96 588.866,1225.65 591.028,1225.35 593.189,1225.05 595.351,1224.76 597.513,1224.47 599.674,1224.18 601.836,1223.89 603.997,1223.61 606.159,1223.33 608.321,1223.05 610.482,1222.77 612.644,1222.5 614.806,1222.23 616.967,1221.96 619.129,1221.7 621.291,1221.44 623.452,1221.18 625.614,1220.92 627.775,1220.67 629.937,1220.42 632.099,1220.17 634.26,1219.92 636.422,1219.68 638.584,1219.44 640.745,1219.2 642.907,1218.96 645.068,1218.72 647.23,1218.49 649.392,1218.26 651.553,1218.04 653.715,1217.81 655.877,1217.59 658.038,1217.37 660.2,1217.15 662.361,1216.93 664.523,1216.72 666.685,1216.51 668.846,1216.3 671.008,1216.09 673.17,1215.88 675.331,1215.68 677.493,1215.48 679.655,1215.28 681.816,1215.08 683.978,1214.88 686.139,1214.69 688.301,1214.5 690.463,1214.31 692.624,1214.12 694.786,1213.93 696.948,1213.75 699.109,1213.57 701.271,1213.39 703.432,1213.21 705.594,1213.03 707.756,1212.85 709.917,1212.68 712.079,1212.51 714.241,1212.34 716.402,1212.17 718.564,1212 720.725,1211.84 722.887,1211.67 725.049,1211.51 727.21,1211.35 729.372,1211.19 731.534,1211.04 733.695,1210.88 735.857,1210.73 738.019,1210.57 740.18,1210.42 742.342,1210.27 744.503,1210.12 746.665,1209.98 748.827,1209.83 750.988,1209.69 753.15,1209.55 755.312,1209.41 757.473,1209.27 759.635,1209.13 761.796,1208.99 763.958,1208.86 766.12,1208.72 768.281,1208.59 770.443,1208.46 772.605,1208.33 774.766,1208.2 776.928,1208.07 779.089,1207.95 781.251,1207.82 783.413,1207.7 785.574,1207.58 787.736,1207.46 789.898,1207.34 792.059,1207.22 794.221,1207.1 796.383,1206.98 798.544,1206.87 800.706,1206.75 802.867,1206.64 805.029,1206.53 807.191,1206.42 809.352,1206.31 811.514,1206.2 813.676,1206.09 815.837,1205.99 817.999,1205.88 820.16,1205.78 822.322,1205.68 824.484,1205.57 826.645,1205.47 828.807,1205.37 830.969,1205.27 833.13,1205.18 835.292,1205.08 837.453,1204.98 839.615,1204.89 841.777,1204.79 843.938,1204.7 846.1,1204.61 848.262,1204.52 850.423,1204.43 852.585,1204.34 854.747,1204.25 856.908,1204.16 859.07,1204.07 861.231,1203.99 863.393,1203.9 865.555,1203.82 867.716,1203.73 869.878,1203.65 872.04,1203.57 874.201,1203.49 876.363,1203.41 878.524,1203.33 880.686,1203.25 882.848,1203.17 885.009,1203.09 887.171,1203.02 889.333,1202.94 891.494,1202.87 893.656,1202.79 895.817,1202.72 897.979,1202.65 900.141,1202.57 902.302,1202.5 904.464,1202.43 906.626,1202.36 908.787,1202.29 910.949,1202.22 913.111,1202.16 915.272,1202.09 917.434,1202.02 919.595,1201.96 921.757,1201.89 923.919,1201.83 926.08,1201.76 928.242,1201.7 930.404,1201.64 932.565,1201.58 934.727,1201.51 936.888,1201.45 939.05,1201.39 941.212,1201.33 943.373,1201.27 945.535,1201.22 947.697,1201.16 949.858,1201.1 952.02,1201.04 954.182,1200.99 956.343,1200.93 958.505,1200.88 960.666,1200.82 962.828,1200.77 964.99,1200.72 967.151,1200.66 969.313,1200.61 971.475,1200.56 973.636,1200.51 975.798,1200.46 977.959,1200.41 980.121,1200.36 982.283,1200.31 984.444,1200.26 986.606,1200.21 988.768,1200.16 990.929,1200.12 993.091,1200.07 995.252,1200.02 997.414,1199.98 999.576,1199.93 1001.74,1199.89 1003.9,1199.84 1006.06,1199.8 1008.22,1199.76 1010.38,1199.71 1012.55,1199.67 1014.71,1199.63 1016.87,1199.59 1019.03,1199.55 1021.19,1199.5 1023.35,1199.46 1025.52,1199.42 1027.68,1199.38 1029.84,1199.34 1032,1199.3 1034.16,1199.27 1036.32,1199.23 1038.49,1199.19 1040.65,1199.15 1042.81,1199.12 1044.97,1199.08 1047.13,1199.04 1049.29,1199.01 1051.45,1198.97 1053.62,1198.93 1055.78,1198.9 1057.94,1198.87 1060.1,1198.83 1062.26,1198.8 1064.42,1198.76 1066.59,1198.73 1068.75,1198.7 1070.91,1198.66 1073.07,1198.63 1075.23,1198.6 1077.39,1198.57 1079.56,1198.54 1081.72,1198.51 1083.88,1198.47 1086.04,1198.44 1088.2,1198.41 1090.36,1198.38 1092.53,1198.35 1094.69,1198.33 1096.85,1198.3 1099.01,1198.27 1101.17,1198.24 1103.33,1198.21 1105.5,1198.18 1107.66,1198.16 1109.82,1198.13 1111.98,1198.1 1114.14,1198.07 1116.3,1198.05 1118.47,1198.02 1120.63,1198 1122.79,1197.97 1124.95,1197.94 1127.11,1197.92 1129.27,1197.89 1131.44,1197.87 1133.6,1197.85 1135.76,1197.82 1137.92,1197.8 1140.08,1197.77 1142.24,1197.75 1144.4,1197.73 1146.57,1197.7 1148.73,1197.68 1150.89,1197.66 1153.05,1197.64 1155.21,1197.61 1157.37,1197.59 1159.54,1197.57 1161.7,1197.55 1163.86,1197.53 1166.02,1197.51 1168.18,1197.49 1170.34,1197.47 1172.51,1197.45 1174.67,1197.43 1176.83,1197.41 1178.99,1197.39 1181.15,1197.37 1183.31,1197.35 1185.48,1197.33 1187.64,1197.31 1189.8,1197.29 1191.96,1197.27 1194.12,1197.25 1196.28,1197.24 1198.45,1197.22 1200.61,1197.2 1202.77,1197.18 1204.93,1197.16 1207.09,1197.15 1209.25,1197.13 1211.42,1197.11 1213.58,1197.1 1215.74,1197.08 1217.9,1197.06 1220.06,1197.05 1222.22,1197.03 1224.39,1197.01 1226.55,1197 1228.71,1196.98 1230.87,1196.97 1233.03,1196.95 1235.19,1196.94 1237.35,1196.92 1239.52,1196.91 1241.68,1196.89 1243.84,1196.88 1246,1196.86 1248.16,1196.85 1250.32,1196.83 1252.49,1196.82 1254.65,1196.81 1256.81,1196.79 1258.97,1196.78 1261.13,1196.77 1263.29,1196.75 1265.46,1196.74 1267.62,1196.73 1269.78,1196.71 1271.94,1196.7 1274.1,1196.69 1276.26,1196.67 1278.43,1196.66 1280.59,1196.65 1282.75,1196.64 1284.91,1196.62 1287.07,1196.61 1289.23,1196.6 1291.4,1196.59 1293.56,1196.58 1295.72,1196.57 1297.88,1196.55 1300.04,1196.54 1302.2,1196.53 1304.37,1196.52 1306.53,1196.51 1308.69,1196.5 1310.85,1196.49 1313.01,1196.48 1315.17,1196.47 1317.34,1196.46 1319.5,1196.45 1321.66,1196.44 1323.82,1196.43 1325.98,1196.42 1328.14,1196.41 1330.31,1196.4 1332.47,1196.39 1334.63,1196.38 1336.79,1196.37 1338.95,1196.36 1341.11,1196.35 1343.27,1196.34 1345.44,1196.33 1347.6,1196.32 1349.76,1196.31 1351.92,1196.3 1354.08,1196.29 1356.24,1196.28 1358.41,1196.28 1360.57,1196.27 1362.73,1196.26 1364.89,1196.25 1367.05,1196.24 1369.21,1196.23 1371.38,1196.23 1373.54,1196.22 1375.7,1196.21 1377.86,1196.2 1380.02,1196.19 1382.18,1196.19 1384.35,1196.18 1386.51,1196.17 1388.67,1196.16 1390.83,1196.16 1392.99,1196.15 1395.15,1196.14 1397.32,1196.13 1399.48,1196.13 1401.64,1196.12 1403.8,1196.11 1405.96,1196.11 1408.12,1196.1 1410.29,1196.09 1412.45,1196.09 1414.61,1196.08 1416.77,1196.07 1418.93,1196.07 1421.09,1196.06 1423.26,1196.05 1425.42,1196.05 1427.58,1196.04 1429.74,1196.04 1431.9,1196.03 1434.06,1196.02 1436.22,1196.02 1438.39,1196.01 1440.55,1196.01 1442.71,1196 1444.87,1195.99 1447.03,1195.99 1449.19,1195.98 1451.36,1195.98 1453.52,1195.97 1455.68,1195.97 1457.84,1195.96 1460,1195.96 1462.16,1195.95 1464.33,1195.95 1466.49,1195.94 1468.65,1195.93 1470.81,1195.93 1472.97,1195.92 1475.13,1195.92 1477.3,1195.91 1479.46,1195.91 1481.62,1195.91 1483.78,1195.9 1485.94,1195.9 1488.1,1195.89 1490.27,1195.89 1492.43,1195.88 1494.59,1195.88 1496.75,1195.87 1498.91,1195.87 1501.07,1195.86 1503.24,1195.86 1505.4,1195.85 1507.56,1195.85 1509.72,1195.85 1511.88,1195.84 1514.04,1195.84 1516.21,1195.83 1518.37,1195.83 1520.53,1195.82 1522.69,1195.82 1524.85,1195.82 1527.01,1195.81 1529.17,1195.81 1531.34,1195.81 1533.5,1195.8 1535.66,1195.8 1537.82,1195.79 1539.98,1195.79 1542.14,1195.79 1544.31,1195.78 1546.47,1195.78 1548.63,1195.78 1550.79,1195.77 1552.95,1195.77 1555.11,1195.76 1557.28,1195.76 1559.44,1195.76 1561.6,1195.75 1563.76,1195.75 1565.92,1195.75 1568.08,1195.74 1570.25,1195.74 1572.41,1195.74 1574.57,1195.73 1576.73,1195.73 1578.89,1195.73 1581.05,1195.73 1583.22,1195.72 1585.38,1195.72 1587.54,1195.72 1589.7,1195.71 1591.86,1195.71 1594.02,1195.71 1596.19,1195.7 1598.35,1195.7 1600.51,1195.7 1602.67,1195.7 1604.83,1195.69 1606.99,1195.69 1609.16,1195.69 1611.32,1195.69 1613.48,1195.68 1615.64,1195.68 1617.8,1195.68 1619.96,1195.67 1622.13,1195.67 1624.29,1195.67 1626.45,1195.67 1628.61,1195.66 1630.77,1195.66 1632.93,1195.66 1635.09,1195.66 1637.26,1195.66 1639.42,1195.65 1641.58,1195.65 1643.74,1195.65 1645.9,1195.65 1648.06,1195.64 1650.23,1195.64 1652.39,1195.64 1654.55,1195.64 1656.71,1195.63 1658.87,1195.63 1661.03,1195.63 1663.2,1195.63 1665.36,1195.63 1667.52,1195.62 1669.68,1195.62 1671.84,1195.62 1674,1195.62 1676.17,1195.62 1678.33,1195.61 1680.49,1195.61 1682.65,1195.61 1684.81,1195.61 1686.97,1195.61 1689.14,1195.61 1691.3,1195.6 1693.46,1195.6 1695.62,1195.6 1697.78,1195.6 1699.94,1195.6 1702.11,1195.59 1704.27,1195.59 1706.43,1195.59 1708.59,1195.59 1710.75,1195.59 1712.91,1195.59 1715.08,1195.58 1717.24,1195.58 1719.4,1195.58 1721.56,1195.58 1723.72,1195.58 1725.88,1195.58 1728.04,1195.58 1730.21,1195.57 1732.37,1195.57 1734.53,1195.57 1736.69,1195.57 1738.85,1195.57 1741.01,1195.57 1743.18,1195.56 1745.34,1195.56 1747.5,1195.56 1749.66,1195.56 1751.82,1195.56 1753.98,1195.56 1756.15,1195.56 1758.31,1195.56 1760.47,1195.55 1762.63,1195.55 1764.79,1195.55 1766.95,1195.55 1769.12,1195.55 1771.28,1195.55 1773.44,1195.55 1775.6,1195.54 1777.76,1195.54 1779.92,1195.54 1782.09,1195.54 1784.25,1195.54 1786.41,1195.54 1788.57,1195.54 1790.73,1195.54 1792.89,1195.54 1795.06,1195.53 1797.22,1195.53 1799.38,1195.53 1801.54,1195.53 1803.7,1195.53 1805.86,1195.53 1808.03,1195.53 1810.19,1195.53 1812.35,1195.53 1814.51,1195.52 1816.67,1195.52 1818.83,1195.52 1821,1195.52 1823.16,1195.52 1825.32,1195.52 1827.48,1195.52 1829.64,1195.52 1831.8,1195.52 1833.96,1195.51 1836.13,1195.51 1838.29,1195.51 1840.45,1195.51 1842.61,1195.51 1844.77,1195.51 1846.93,1195.51 1849.1,1195.51 1851.26,1195.51 1853.42,1195.51 1855.58,1195.51 1857.74,1195.5 1859.9,1195.5 1862.07,1195.5 1864.23,1195.5 1866.39,1195.5 1868.55,1195.5 1870.71,1195.5 1872.87,1195.5 1875.04,1195.5 1877.2,1195.5 1879.36,1195.5 1881.52,1195.5 1883.68,1195.5 1885.84,1195.49 1888.01,1195.49 1890.17,1195.49 1892.33,1195.49 1894.49,1195.49 1896.65,1195.49 1898.81,1195.49 1900.98,1195.49 1903.14,1195.49 1905.3,1195.49 1907.46,1195.49 1909.62,1195.49 1911.78,1195.49 1913.95,1195.49 1916.11,1195.48 1918.27,1195.48 1920.43,1195.48 1922.59,1195.48 1924.75,1195.48 1926.91,1195.48 1929.08,1195.48 1931.24,1195.48 1933.4,1195.48 1935.56,1195.48 1937.72,1195.48 1939.88,1195.48 1942.05,1195.48 1944.21,1195.48 1946.37,1195.48 1948.53,1195.48 1950.69,1195.47 1952.85,1195.47 1955.02,1195.47 1957.18,1195.47 1959.34,1195.47 1961.5,1195.47 1963.66,1195.47 1965.82,1195.47 1967.99,1195.47 1970.15,1195.47 1972.31,1195.47 1974.47,1195.47 1976.63,1195.47 1978.79,1195.47 1980.96,1195.47 1983.12,1195.47 1985.28,1195.47 1987.44,1195.47 1989.6,1195.47 1991.76,1195.47 1993.93,1195.47 1996.09,1195.46 1998.25,1195.46 2000.41,1195.46 2002.57,1195.46 2004.73,1195.46 2006.9,1195.46 2009.06,1195.46 2011.22,1195.46 2013.38,1195.46 2015.54,1195.46 2017.7,1195.46 2019.86,1195.46 2022.03,1195.46 2024.19,1195.46 2026.35,1195.46 2028.51,1195.46 2030.67,1195.46 2032.83,1195.46 2035,1195.46 2037.16,1195.46 2039.32,1195.46 2041.48,1195.46 2043.64,1195.46 2045.8,1195.46 2047.97,1195.46 2050.13,1195.46 2052.29,1195.45 2054.45,1195.45 2056.61,1195.45 2058.77,1195.45 2060.94,1195.45 2063.1,1195.45 2065.26,1195.45 2067.42,1195.45 2069.58,1195.45 2071.74,1195.45 2073.91,1195.45 2076.07,1195.45 2078.23,1195.45 2080.39,1195.45 2082.55,1195.45 2084.71,1195.45 2086.88,1195.45 2089.04,1195.45 2091.2,1195.45 2093.36,1195.45 2095.52,1195.45 2097.68,1195.45 2099.85,1195.45 2102.01,1195.45 2104.17,1195.45 2106.33,1195.45 2108.49,1195.45 2110.65,1195.45 2112.82,1195.45 2114.98,1195.45 2117.14,1195.45 2119.3,1195.45 2121.46,1195.45 2123.62,1195.45 2125.78,1195.44 2127.95,1195.44 2130.11,1195.44 2132.27,1195.44 2134.43,1195.44 2136.59,1195.44 2138.75,1195.44 2140.92,1195.44 2143.08,1195.44 2145.24,1195.44 2147.4,1195.44 2149.56,1195.44 2151.72,1195.44 2153.89,1195.44 2156.05,1195.44 2158.21,1195.44 2160.37,1195.44 2162.53,1195.44 2164.69,1195.44 2166.86,1195.44 2169.02,1195.44 2171.18,1195.44 2173.34,1195.44 2175.5,1195.44 2177.66,1195.44 2179.83,1195.44 2181.99,1195.44 2184.15,1195.44 2186.31,1195.44 2188.47,1195.44 2190.63,1195.44 2192.8,1195.44 2194.96,1195.44 2197.12,1195.44 2199.28,1195.44 2201.44,1195.44 2203.6,1195.44 2205.77,1195.44 2207.93,1195.44 2210.09,1195.44 2212.25,1195.44 2214.41,1195.44 2216.57,1195.44 2218.73,1195.44 2220.9,1195.44 2223.06,1195.44 2225.22,1195.44 2227.38,1195.44 2229.54,1195.44 2231.7,1195.44 2233.87,1195.44 2236.03,1195.43 2238.19,1195.43 2240.35,1195.43 2242.51,1195.43 2244.67,1195.43 2246.84,1195.43 2249,1195.43 2251.16,1195.43 2253.32,1195.43 2255.48,1195.43 2257.64,1195.43 2259.81,1195.43 2261.97,1195.43 2264.13,1195.43 2266.29,1195.43 2268.45,1195.43 2270.61,1195.43 2272.78,1195.43 2274.94,1195.43 2277.1,1195.43 2279.26,1195.43 2281.42,1195.43 2283.58,1195.43 2285.75,1195.43 2287.91,1195.43 2290.07,1195.43 2292.23,1195.43 2294.39,1195.43 2296.55,1195.43 2298.72,1195.43 2300.88,1195.43 2303.04,1195.43 2305.2,1195.43 2307.36,1195.43 2309.52,1195.43 2311.68,1195.43 2313.85,1195.43 2316.01,1195.43 2318.17,1195.43 2320.33,1195.43 2322.49,1195.43 2324.65,1195.43 2326.82,1195.43 2328.98,1195.43 2331.14,1195.43 2333.3,1195.43 2335.46,1195.43 2337.62,1195.43 2339.79,1195.43 2341.95,1195.43 2344.11,1195.43 2346.27,1195.43 2348.43,1195.43 2350.59,1195.43 2352.76,1195.43 "/>
<polyline clip-path="url(#clip772)" style="stroke:#e26f46; stroke-linecap:round; stroke-linejoin:round; stroke-width:4; stroke-opacity:1; fill:none" points="193.288,86.1857 195.449,92.9977 197.611,99.7672 199.773,106.494 201.934,113.18 204.096,119.823 206.258,126.426 208.419,132.987 210.581,139.507 212.743,145.987 214.904,152.426 217.066,158.825 219.227,165.184 221.389,171.504 223.551,177.785 225.712,184.026 227.874,190.228 230.036,196.392 232.197,202.518 234.359,208.605 236.52,214.654 238.682,220.666 240.844,226.641 243.005,232.578 245.167,238.479 247.329,244.342 249.49,250.17 251.652,255.961 253.813,261.716 255.975,267.435 258.137,273.119 260.298,278.768 262.46,284.381 264.622,289.96 266.783,295.504 268.945,301.013 271.107,306.489 273.268,311.93 275.43,317.338 277.591,322.712 279.753,328.053 281.915,333.361 284.076,338.635 286.238,343.877 288.4,349.087 290.561,354.264 292.723,359.409 294.884,364.522 297.046,369.604 299.208,374.654 301.369,379.673 303.531,384.66 305.693,389.617 307.854,394.543 310.016,399.439 312.177,404.304 314.339,409.139 316.501,413.944 318.662,418.72 320.824,423.466 322.986,428.182 325.147,432.87 327.309,437.528 329.471,442.158 331.632,446.759 333.794,451.331 335.955,455.875 338.117,460.392 340.279,464.88 342.44,469.34 344.602,473.773 346.764,478.179 348.925,482.557 351.087,486.908 353.248,491.233 355.41,495.53 357.572,499.802 359.733,504.046 361.895,508.265 364.057,512.458 366.218,516.624 368.38,520.765 370.541,524.881 372.703,528.971 374.865,533.035 377.026,537.075 379.188,541.09 381.35,545.08 383.511,549.045 385.673,552.986 387.835,556.903 389.996,560.795 392.158,564.663 394.319,568.508 396.481,572.329 398.643,576.126 400.804,579.9 402.966,583.651 405.128,587.379 407.289,591.083 409.451,594.765 411.612,598.424 413.774,602.061 415.936,605.675 418.097,609.267 420.259,612.837 422.421,616.385 424.582,619.911 426.744,623.415 428.905,626.898 431.067,630.359 433.229,633.799 435.39,637.218 437.552,640.616 439.714,643.993 441.875,647.349 444.037,650.685 446.199,654 448.36,657.294 450.522,660.569 452.683,663.823 454.845,667.057 457.007,670.272 459.168,673.467 461.33,676.642 463.492,679.797 465.653,682.934 467.815,686.05 469.976,689.148 472.138,692.227 474.3,695.287 476.461,698.328 478.623,701.351 480.785,704.354 482.946,707.34 485.108,710.307 487.269,713.256 489.431,716.187 491.593,719.099 493.754,721.994 495.916,724.871 498.078,727.731 500.239,730.573 502.401,733.397 504.563,736.205 506.724,738.995 508.886,741.767 511.047,744.523 513.209,747.262 515.371,749.984 517.532,752.69 519.694,755.379 521.856,758.051 524.017,760.707 526.179,763.347 528.34,765.971 530.502,768.578 532.664,771.17 534.825,773.745 536.987,776.305 539.149,778.849 541.31,781.378 543.472,783.891 545.633,786.389 547.795,788.871 549.957,791.339 552.118,793.791 554.28,796.228 556.442,798.65 558.603,801.058 560.765,803.45 562.927,805.828 565.088,808.192 567.25,810.541 569.411,812.876 571.573,815.196 573.735,817.502 575.896,819.795 578.058,822.073 580.22,824.337 582.381,826.587 584.543,828.824 586.704,831.047 588.866,833.256 591.028,835.452 593.189,837.635 595.351,839.804 597.513,841.96 599.674,844.102 601.836,846.232 603.997,848.349 606.159,850.452 608.321,852.543 610.482,854.621 612.644,856.687 614.806,858.739 616.967,860.78 619.129,862.807 621.291,864.823 623.452,866.826 625.614,868.816 627.775,870.795 629.937,872.762 632.099,874.716 634.26,876.659 636.422,878.59 638.584,880.509 640.745,882.416 642.907,884.312 645.068,886.196 647.23,888.068 649.392,889.929 651.553,891.779 653.715,893.618 655.877,895.445 658.038,897.261 660.2,899.066 662.361,900.86 664.523,902.643 666.685,904.416 668.846,906.177 671.008,907.928 673.17,909.668 675.331,911.397 677.493,913.116 679.655,914.825 681.816,916.523 683.978,918.211 686.139,919.888 688.301,921.555 690.463,923.212 692.624,924.859 694.786,926.496 696.948,928.123 699.109,929.74 701.271,931.347 703.432,932.945 705.594,934.532 707.756,936.11 709.917,937.679 712.079,939.238 714.241,940.787 716.402,942.327 718.564,943.858 720.725,945.379 722.887,946.891 725.049,948.394 727.21,949.888 729.372,951.373 731.534,952.848 733.695,954.315 735.857,955.773 738.019,957.222 740.18,958.662 742.342,960.093 744.503,961.516 746.665,962.93 748.827,964.335 750.988,965.732 753.15,967.12 755.312,968.5 757.473,969.871 759.635,971.234 761.796,972.589 763.958,973.936 766.12,975.274 768.281,976.604 770.443,977.927 772.605,979.241 774.766,980.547 776.928,981.845 779.089,983.135 781.251,984.418 783.413,985.692 785.574,986.959 787.736,988.218 789.898,989.47 792.059,990.714 794.221,991.95 796.383,993.179 798.544,994.4 800.706,995.614 802.867,996.821 805.029,998.02 807.191,999.212 809.352,1000.4 811.514,1001.57 813.676,1002.74 815.837,1003.91 817.999,1005.06 820.16,1006.21 822.322,1007.36 824.484,1008.49 826.645,1009.62 828.807,1010.74 830.969,1011.86 833.13,1012.96 835.292,1014.06 837.453,1015.16 839.615,1016.25 841.777,1017.33 843.938,1018.4 846.1,1019.47 848.262,1020.53 850.423,1021.59 852.585,1022.64 854.747,1023.68 856.908,1024.72 859.07,1025.75 861.231,1026.77 863.393,1027.79 865.555,1028.8 867.716,1029.8 869.878,1030.8 872.04,1031.8 874.201,1032.78 876.363,1033.77 878.524,1034.74 880.686,1035.71 882.848,1036.67 885.009,1037.63 887.171,1038.58 889.333,1039.53 891.494,1040.47 893.656,1041.4 895.817,1042.33 897.979,1043.26 900.141,1044.17 902.302,1045.09 904.464,1045.99 906.626,1046.89 908.787,1047.79 910.949,1048.68 913.111,1049.56 915.272,1050.44 917.434,1051.32 919.595,1052.19 921.757,1053.05 923.919,1053.91 926.08,1054.76 928.242,1055.61 930.404,1056.45 932.565,1057.29 934.727,1058.12 936.888,1058.95 939.05,1059.77 941.212,1060.59 943.373,1061.4 945.535,1062.21 947.697,1063.01 949.858,1063.81 952.02,1064.61 954.182,1065.39 956.343,1066.18 958.505,1066.96 960.666,1067.73 962.828,1068.5 964.99,1069.27 967.151,1070.03 969.313,1070.78 971.475,1071.53 973.636,1072.28 975.798,1073.02 977.959,1073.76 980.121,1074.49 982.283,1075.22 984.444,1075.94 986.606,1076.66 988.768,1077.38 990.929,1078.09 993.091,1078.8 995.252,1079.5 997.414,1080.2 999.576,1080.89 1001.74,1081.58 1003.9,1082.27 1006.06,1082.95 1008.22,1083.62 1010.38,1084.3 1012.55,1084.97 1014.71,1085.63 1016.87,1086.29 1019.03,1086.95 1021.19,1087.6 1023.35,1088.25 1025.52,1088.9 1027.68,1089.54 1029.84,1090.18 1032,1090.81 1034.16,1091.44 1036.32,1092.07 1038.49,1092.69 1040.65,1093.31 1042.81,1093.92 1044.97,1094.53 1047.13,1095.14 1049.29,1095.74 1051.45,1096.35 1053.62,1096.94 1055.78,1097.53 1057.94,1098.12 1060.1,1098.71 1062.26,1099.29 1064.42,1099.87 1066.59,1100.45 1068.75,1101.02 1070.91,1101.59 1073.07,1102.15 1075.23,1102.71 1077.39,1103.27 1079.56,1103.82 1081.72,1104.38 1083.88,1104.92 1086.04,1105.47 1088.2,1106.01 1090.36,1106.55 1092.53,1107.08 1094.69,1107.62 1096.85,1108.14 1099.01,1108.67 1101.17,1109.19 1103.33,1109.71 1105.5,1110.23 1107.66,1110.74 1109.82,1111.25 1111.98,1111.75 1114.14,1112.26 1116.3,1112.76 1118.47,1113.26 1120.63,1113.75 1122.79,1114.24 1124.95,1114.73 1127.11,1115.22 1129.27,1115.7 1131.44,1116.18 1133.6,1116.65 1135.76,1117.13 1137.92,1117.6 1140.08,1118.07 1142.24,1118.53 1144.4,1119 1146.57,1119.46 1148.73,1119.91 1150.89,1120.37 1153.05,1120.82 1155.21,1121.27 1157.37,1121.71 1159.54,1122.16 1161.7,1122.6 1163.86,1123.03 1166.02,1123.47 1168.18,1123.9 1170.34,1124.33 1172.51,1124.76 1174.67,1125.18 1176.83,1125.61 1178.99,1126.03 1181.15,1126.44 1183.31,1126.86 1185.48,1127.27 1187.64,1127.68 1189.8,1128.09 1191.96,1128.49 1194.12,1128.89 1196.28,1129.29 1198.45,1129.69 1200.61,1130.09 1202.77,1130.48 1204.93,1130.87 1207.09,1131.26 1209.25,1131.64 1211.42,1132.03 1213.58,1132.41 1215.74,1132.79 1217.9,1133.16 1220.06,1133.54 1222.22,1133.91 1224.39,1134.28 1226.55,1134.65 1228.71,1135.01 1230.87,1135.38 1233.03,1135.74 1235.19,1136.1 1237.35,1136.45 1239.52,1136.81 1241.68,1137.16 1243.84,1137.51 1246,1137.86 1248.16,1138.2 1250.32,1138.55 1252.49,1138.89 1254.65,1139.23 1256.81,1139.57 1258.97,1139.9 1261.13,1140.24 1263.29,1140.57 1265.46,1140.9 1267.62,1141.22 1269.78,1141.55 1271.94,1141.87 1274.1,1142.2 1276.26,1142.52 1278.43,1142.83 1280.59,1143.15 1282.75,1143.46 1284.91,1143.78 1287.07,1144.09 1289.23,1144.4 1291.4,1144.7 1293.56,1145.01 1295.72,1145.31 1297.88,1145.61 1300.04,1145.91 1302.2,1146.21 1304.37,1146.5 1306.53,1146.8 1308.69,1147.09 1310.85,1147.38 1313.01,1147.67 1315.17,1147.96 1317.34,1148.24 1319.5,1148.53 1321.66,1148.81 1323.82,1149.09 1325.98,1149.37 1328.14,1149.64 1330.31,1149.92 1332.47,1150.19 1334.63,1150.46 1336.79,1150.73 1338.95,1151 1341.11,1151.27 1343.27,1151.53 1345.44,1151.8 1347.6,1152.06 1349.76,1152.32 1351.92,1152.58 1354.08,1152.84 1356.24,1153.09 1358.41,1153.35 1360.57,1153.6 1362.73,1153.85 1364.89,1154.1 1367.05,1154.35 1369.21,1154.59 1371.38,1154.84 1373.54,1155.08 1375.7,1155.33 1377.86,1155.57 1380.02,1155.81 1382.18,1156.04 1384.35,1156.28 1386.51,1156.51 1388.67,1156.75 1390.83,1156.98 1392.99,1157.21 1395.15,1157.44 1397.32,1157.67 1399.48,1157.9 1401.64,1158.12 1403.8,1158.34 1405.96,1158.57 1408.12,1158.79 1410.29,1159.01 1412.45,1159.23 1414.61,1159.44 1416.77,1159.66 1418.93,1159.87 1421.09,1160.09 1423.26,1160.3 1425.42,1160.51 1427.58,1160.72 1429.74,1160.93 1431.9,1161.14 1434.06,1161.34 1436.22,1161.55 1438.39,1161.75 1440.55,1161.95 1442.71,1162.15 1444.87,1162.35 1447.03,1162.55 1449.19,1162.75 1451.36,1162.94 1453.52,1163.14 1455.68,1163.33 1457.84,1163.52 1460,1163.72 1462.16,1163.91 1464.33,1164.1 1466.49,1164.28 1468.65,1164.47 1470.81,1164.66 1472.97,1164.84 1475.13,1165.02 1477.3,1165.21 1479.46,1165.39 1481.62,1165.57 1483.78,1165.75 1485.94,1165.93 1488.1,1166.1 1490.27,1166.28 1492.43,1166.45 1494.59,1166.63 1496.75,1166.8 1498.91,1166.97 1501.07,1167.14 1503.24,1167.31 1505.4,1167.48 1507.56,1167.65 1509.72,1167.82 1511.88,1167.98 1514.04,1168.15 1516.21,1168.31 1518.37,1168.47 1520.53,1168.63 1522.69,1168.8 1524.85,1168.96 1527.01,1169.11 1529.17,1169.27 1531.34,1169.43 1533.5,1169.59 1535.66,1169.74 1537.82,1169.89 1539.98,1170.05 1542.14,1170.2 1544.31,1170.35 1546.47,1170.5 1548.63,1170.65 1550.79,1170.8 1552.95,1170.95 1555.11,1171.1 1557.28,1171.24 1559.44,1171.39 1561.6,1171.53 1563.76,1171.67 1565.92,1171.82 1568.08,1171.96 1570.25,1172.1 1572.41,1172.24 1574.57,1172.38 1576.73,1172.52 1578.89,1172.65 1581.05,1172.79 1583.22,1172.93 1585.38,1173.06 1587.54,1173.2 1589.7,1173.33 1591.86,1173.46 1594.02,1173.59 1596.19,1173.73 1598.35,1173.86 1600.51,1173.98 1602.67,1174.11 1604.83,1174.24 1606.99,1174.37 1609.16,1174.49 1611.32,1174.62 1613.48,1174.74 1615.64,1174.87 1617.8,1174.99 1619.96,1175.11 1622.13,1175.24 1624.29,1175.36 1626.45,1175.48 1628.61,1175.6 1630.77,1175.72 1632.93,1175.83 1635.09,1175.95 1637.26,1176.07 1639.42,1176.19 1641.58,1176.3 1643.74,1176.42 1645.9,1176.53 1648.06,1176.64 1650.23,1176.75 1652.39,1176.87 1654.55,1176.98 1656.71,1177.09 1658.87,1177.2 1661.03,1177.31 1663.2,1177.42 1665.36,1177.52 1667.52,1177.63 1669.68,1177.74 1671.84,1177.84 1674,1177.95 1676.17,1178.05 1678.33,1178.16 1680.49,1178.26 1682.65,1178.36 1684.81,1178.47 1686.97,1178.57 1689.14,1178.67 1691.3,1178.77 1693.46,1178.87 1695.62,1178.97 1697.78,1179.07 1699.94,1179.17 1702.11,1179.26 1704.27,1179.36 1706.43,1179.46 1708.59,1179.55 1710.75,1179.65 1712.91,1179.74 1715.08,1179.83 1717.24,1179.93 1719.4,1180.02 1721.56,1180.11 1723.72,1180.21 1725.88,1180.3 1728.04,1180.39 1730.21,1180.48 1732.37,1180.57 1734.53,1180.66 1736.69,1180.74 1738.85,1180.83 1741.01,1180.92 1743.18,1181.01 1745.34,1181.09 1747.5,1181.18 1749.66,1181.26 1751.82,1181.35 1753.98,1181.43 1756.15,1181.52 1758.31,1181.6 1760.47,1181.68 1762.63,1181.77 1764.79,1181.85 1766.95,1181.93 1769.12,1182.01 1771.28,1182.09 1773.44,1182.17 1775.6,1182.25 1777.76,1182.33 1779.92,1182.41 1782.09,1182.49 1784.25,1182.56 1786.41,1182.64 1788.57,1182.72 1790.73,1182.79 1792.89,1182.87 1795.06,1182.94 1797.22,1183.02 1799.38,1183.09 1801.54,1183.17 1803.7,1183.24 1805.86,1183.31 1808.03,1183.39 1810.19,1183.46 1812.35,1183.53 1814.51,1183.6 1816.67,1183.67 1818.83,1183.74 1821,1183.81 1823.16,1183.88 1825.32,1183.95 1827.48,1184.02 1829.64,1184.09 1831.8,1184.16 1833.96,1184.23 1836.13,1184.29 1838.29,1184.36 1840.45,1184.43 1842.61,1184.49 1844.77,1184.56 1846.93,1184.62 1849.1,1184.69 1851.26,1184.75 1853.42,1184.82 1855.58,1184.88 1857.74,1184.94 1859.9,1185.01 1862.07,1185.07 1864.23,1185.13 1866.39,1185.19 1868.55,1185.25 1870.71,1185.31 1872.87,1185.38 1875.04,1185.44 1877.2,1185.5 1879.36,1185.56 1881.52,1185.61 1883.68,1185.67 1885.84,1185.73 1888.01,1185.79 1890.17,1185.85 1892.33,1185.9 1894.49,1185.96 1896.65,1186.02 1898.81,1186.08 1900.98,1186.13 1903.14,1186.19 1905.3,1186.24 1907.46,1186.3 1909.62,1186.35 1911.78,1186.41 1913.95,1186.46 1916.11,1186.51 1918.27,1186.57 1920.43,1186.62 1922.59,1186.67 1924.75,1186.73 1926.91,1186.78 1929.08,1186.83 1931.24,1186.88 1933.4,1186.93 1935.56,1186.98 1937.72,1187.03 1939.88,1187.08 1942.05,1187.13 1944.21,1187.18 1946.37,1187.23 1948.53,1187.28 1950.69,1187.33 1952.85,1187.38 1955.02,1187.43 1957.18,1187.48 1959.34,1187.52 1961.5,1187.57 1963.66,1187.62 1965.82,1187.66 1967.99,1187.71 1970.15,1187.76 1972.31,1187.8 1974.47,1187.85 1976.63,1187.89 1978.79,1187.94 1980.96,1187.98 1983.12,1188.03 1985.28,1188.07 1987.44,1188.12 1989.6,1188.16 1991.76,1188.2 1993.93,1188.25 1996.09,1188.29 1998.25,1188.33 2000.41,1188.37 2002.57,1188.42 2004.73,1188.46 2006.9,1188.5 2009.06,1188.54 2011.22,1188.58 2013.38,1188.62 2015.54,1188.66 2017.7,1188.7 2019.86,1188.74 2022.03,1188.78 2024.19,1188.82 2026.35,1188.86 2028.51,1188.9 2030.67,1188.94 2032.83,1188.98 2035,1189.02 2037.16,1189.06 2039.32,1189.09 2041.48,1189.13 2043.64,1189.17 2045.8,1189.21 2047.97,1189.24 2050.13,1189.28 2052.29,1189.32 2054.45,1189.36 2056.61,1189.39 2058.77,1189.43 2060.94,1189.46 2063.1,1189.5 2065.26,1189.53 2067.42,1189.57 2069.58,1189.6 2071.74,1189.64 2073.91,1189.67 2076.07,1189.71 2078.23,1189.74 2080.39,1189.78 2082.55,1189.81 2084.71,1189.84 2086.88,1189.88 2089.04,1189.91 2091.2,1189.94 2093.36,1189.98 2095.52,1190.01 2097.68,1190.04 2099.85,1190.07 2102.01,1190.11 2104.17,1190.14 2106.33,1190.17 2108.49,1190.2 2110.65,1190.23 2112.82,1190.26 2114.98,1190.29 2117.14,1190.33 2119.3,1190.36 2121.46,1190.39 2123.62,1190.42 2125.78,1190.45 2127.95,1190.48 2130.11,1190.51 2132.27,1190.54 2134.43,1190.56 2136.59,1190.59 2138.75,1190.62 2140.92,1190.65 2143.08,1190.68 2145.24,1190.71 2147.4,1190.74 2149.56,1190.76 2151.72,1190.79 2153.89,1190.82 2156.05,1190.85 2158.21,1190.88 2160.37,1190.9 2162.53,1190.93 2164.69,1190.96 2166.86,1190.98 2169.02,1191.01 2171.18,1191.04 2173.34,1191.06 2175.5,1191.09 2177.66,1191.11 2179.83,1191.14 2181.99,1191.17 2184.15,1191.19 2186.31,1191.22 2188.47,1191.24 2190.63,1191.27 2192.8,1191.29 2194.96,1191.32 2197.12,1191.34 2199.28,1191.37 2201.44,1191.39 2203.6,1191.41 2205.77,1191.44 2207.93,1191.46 2210.09,1191.49 2212.25,1191.51 2214.41,1191.53 2216.57,1191.56 2218.73,1191.58 2220.9,1191.6 2223.06,1191.63 2225.22,1191.65 2227.38,1191.67 2229.54,1191.69 2231.7,1191.72 2233.87,1191.74 2236.03,1191.76 2238.19,1191.78 2240.35,1191.8 2242.51,1191.82 2244.67,1191.85 2246.84,1191.87 2249,1191.89 2251.16,1191.91 2253.32,1191.93 2255.48,1191.95 2257.64,1191.97 2259.81,1191.99 2261.97,1192.01 2264.13,1192.03 2266.29,1192.05 2268.45,1192.07 2270.61,1192.09 2272.78,1192.11 2274.94,1192.13 2277.1,1192.15 2279.26,1192.17 2281.42,1192.19 2283.58,1192.21 2285.75,1192.23 2287.91,1192.25 2290.07,1192.27 2292.23,1192.29 2294.39,1192.31 2296.55,1192.33 2298.72,1192.34 2300.88,1192.36 2303.04,1192.38 2305.2,1192.4 2307.36,1192.42 2309.52,1192.44 2311.68,1192.45 2313.85,1192.47 2316.01,1192.49 2318.17,1192.51 2320.33,1192.52 2322.49,1192.54 2324.65,1192.56 2326.82,1192.58 2328.98,1192.59 2331.14,1192.61 2333.3,1192.63 2335.46,1192.64 2337.62,1192.66 2339.79,1192.68 2341.95,1192.69 2344.11,1192.71 2346.27,1192.73 2348.43,1192.74 2350.59,1192.76 2352.76,1192.77 "/>
<path clip-path="url(#clip770)" d="M1805.43 248.629 L2280.77 248.629 L2280.77 93.1086 L1805.43 93.1086  Z" fill="#ffffff" fill-rule="evenodd" fill-opacity="1"/>
<polyline clip-path="url(#clip770)" style="stroke:#000000; stroke-linecap:round; stroke-linejoin:round; stroke-width:4; stroke-opacity:1; fill:none" points="1805.43,248.629 2280.77,248.629 2280.77,93.1086 1805.43,93.1086 1805.43,248.629 "/>
<polyline clip-path="url(#clip770)" style="stroke:#009af9; stroke-linecap:round; stroke-linejoin:round; stroke-width:4; stroke-opacity:1; fill:none" points="1829.42,144.949 1973.39,144.949 "/>
<path clip-path="url(#clip770)" d="M1997.38 136.303 L2001.9 136.303 L2010 158.062 L2018.1 136.303 L2022.61 136.303 L2012.89 162.229 L2007.1 162.229 L1997.38 136.303 Z" fill="#000000" fill-rule="nonzero" fill-opacity="1" /><path clip-path="url(#clip770)" d="M2029.91 158.293 L2037.54 158.293 L2037.54 131.928 L2029.23 133.595 L2029.23 129.335 L2037.5 127.669 L2042.17 127.669 L2042.17 158.293 L2049.81 158.293 L2049.81 162.229 L2029.91 162.229 L2029.91 158.293 Z" fill="#000000" fill-rule="nonzero" fill-opacity="1" /><path clip-path="url(#clip770)" d="M2067.91 145.585 L2067.91 152.807 L2076.04 152.807 L2076.04 155.006 L2067.91 155.006 L2067.91 162.229 L2065.48 162.229 L2065.48 155.006 L2057.36 155.006 L2057.36 152.807 L2065.48 152.807 L2065.48 145.585 L2067.91 145.585 Z" fill="#000000" fill-rule="nonzero" fill-opacity="1" /><path clip-path="url(#clip770)" d="M2100.21 137.067 L2100.21 141.094 Q2098.4 140.169 2096.46 139.706 Q2094.51 139.243 2092.43 139.243 Q2089.26 139.243 2087.66 140.215 Q2086.09 141.187 2086.09 143.131 Q2086.09 144.613 2087.22 145.469 Q2088.35 146.303 2091.78 147.067 L2093.24 147.391 Q2097.78 148.363 2099.67 150.145 Q2101.6 151.905 2101.6 155.076 Q2101.6 158.687 2098.72 160.793 Q2095.88 162.9 2090.88 162.9 Q2088.79 162.9 2086.53 162.483 Q2084.28 162.09 2081.78 161.28 L2081.78 156.881 Q2084.14 158.108 2086.43 158.733 Q2088.72 159.335 2090.97 159.335 Q2093.98 159.335 2095.6 158.317 Q2097.22 157.275 2097.22 155.4 Q2097.22 153.664 2096.04 152.738 Q2094.88 151.812 2090.92 150.956 L2089.44 150.608 Q2085.48 149.775 2083.72 148.062 Q2081.97 146.326 2081.97 143.317 Q2081.97 139.659 2084.56 137.669 Q2087.15 135.678 2091.92 135.678 Q2094.28 135.678 2096.36 136.025 Q2098.45 136.372 2100.21 137.067 Z" fill="#000000" fill-rule="nonzero" fill-opacity="1" /><path clip-path="url(#clip770)" d="M2112.59 128.942 L2112.59 136.303 L2121.36 136.303 L2121.36 139.613 L2112.59 139.613 L2112.59 153.687 Q2112.59 156.858 2113.45 157.761 Q2114.33 158.664 2116.99 158.664 L2121.36 158.664 L2121.36 162.229 L2116.99 162.229 Q2112.06 162.229 2110.18 160.4 Q2108.31 158.548 2108.31 153.687 L2108.31 139.613 L2105.18 139.613 L2105.18 136.303 L2108.31 136.303 L2108.31 128.942 L2112.59 128.942 Z" fill="#000000" fill-rule="nonzero" fill-opacity="1" /><path clip-path="url(#clip770)" d="M2137.01 139.289 Q2133.59 139.289 2131.6 141.974 Q2129.6 144.636 2129.6 149.289 Q2129.6 153.942 2131.57 156.627 Q2133.56 159.289 2137.01 159.289 Q2140.41 159.289 2142.41 156.604 Q2144.4 153.918 2144.4 149.289 Q2144.4 144.682 2142.41 141.997 Q2140.41 139.289 2137.01 139.289 M2137.01 135.678 Q2142.57 135.678 2145.74 139.289 Q2148.91 142.9 2148.91 149.289 Q2148.91 155.655 2145.74 159.289 Q2142.57 162.9 2137.01 162.9 Q2131.43 162.9 2128.26 159.289 Q2125.11 155.655 2125.11 149.289 Q2125.11 142.9 2128.26 139.289 Q2131.43 135.678 2137.01 135.678 Z" fill="#000000" fill-rule="nonzero" fill-opacity="1" /><path clip-path="url(#clip770)" d="M2170.99 140.284 Q2170.28 139.868 2169.42 139.682 Q2168.59 139.474 2167.57 139.474 Q2163.96 139.474 2162.01 141.835 Q2160.09 144.173 2160.09 148.571 L2160.09 162.229 L2155.81 162.229 L2155.81 136.303 L2160.09 136.303 L2160.09 140.331 Q2161.43 137.969 2163.59 136.835 Q2165.74 135.678 2168.82 135.678 Q2169.26 135.678 2169.79 135.747 Q2170.32 135.794 2170.97 135.909 L2170.99 140.284 Z" fill="#000000" fill-rule="nonzero" fill-opacity="1" /><path clip-path="url(#clip770)" d="M2187.24 149.196 Q2182.08 149.196 2180.09 150.377 Q2178.1 151.557 2178.1 154.405 Q2178.1 156.673 2179.58 158.016 Q2181.09 159.335 2183.65 159.335 Q2187.2 159.335 2189.33 156.835 Q2191.48 154.312 2191.48 150.145 L2191.48 149.196 L2187.24 149.196 M2195.74 147.437 L2195.74 162.229 L2191.48 162.229 L2191.48 158.293 Q2190.02 160.655 2187.84 161.789 Q2185.67 162.9 2182.52 162.9 Q2178.54 162.9 2176.18 160.678 Q2173.84 158.432 2173.84 154.682 Q2173.84 150.307 2176.76 148.085 Q2179.7 145.863 2185.51 145.863 L2191.48 145.863 L2191.48 145.446 Q2191.48 142.507 2189.53 140.909 Q2187.61 139.289 2184.12 139.289 Q2181.9 139.289 2179.79 139.821 Q2177.68 140.354 2175.74 141.419 L2175.74 137.483 Q2178.08 136.581 2180.28 136.141 Q2182.47 135.678 2184.56 135.678 Q2190.18 135.678 2192.96 138.594 Q2195.74 141.511 2195.74 147.437 Z" fill="#000000" fill-rule="nonzero" fill-opacity="1" /><path clip-path="url(#clip770)" d="M2221.57 148.965 Q2221.57 144.335 2219.65 141.789 Q2217.75 139.243 2214.3 139.243 Q2210.88 139.243 2208.96 141.789 Q2207.06 144.335 2207.06 148.965 Q2207.06 153.571 2208.96 156.118 Q2210.88 158.664 2214.3 158.664 Q2217.75 158.664 2219.65 156.118 Q2221.57 153.571 2221.57 148.965 M2225.83 159.011 Q2225.83 165.631 2222.89 168.849 Q2219.95 172.09 2213.89 172.09 Q2211.64 172.09 2209.65 171.742 Q2207.66 171.418 2205.78 170.724 L2205.78 166.58 Q2207.66 167.599 2209.49 168.085 Q2211.32 168.571 2213.21 168.571 Q2217.4 168.571 2219.49 166.372 Q2221.57 164.196 2221.57 159.775 L2221.57 157.668 Q2220.25 159.96 2218.19 161.094 Q2216.13 162.229 2213.26 162.229 Q2208.49 162.229 2205.58 158.594 Q2202.66 154.96 2202.66 148.965 Q2202.66 142.946 2205.58 139.312 Q2208.49 135.678 2213.26 135.678 Q2216.13 135.678 2218.19 136.812 Q2220.25 137.946 2221.57 140.238 L2221.57 136.303 L2225.83 136.303 L2225.83 159.011 Z" fill="#000000" fill-rule="nonzero" fill-opacity="1" /><path clip-path="url(#clip770)" d="M2256.78 148.201 L2256.78 150.284 L2237.2 150.284 Q2237.47 154.682 2239.84 156.997 Q2242.22 159.289 2246.46 159.289 Q2248.91 159.289 2251.2 158.687 Q2253.52 158.085 2255.78 156.881 L2255.78 160.909 Q2253.49 161.881 2251.09 162.391 Q2248.68 162.9 2246.2 162.9 Q2240 162.9 2236.36 159.289 Q2232.75 155.678 2232.75 149.52 Q2232.75 143.155 2236.18 139.428 Q2239.63 135.678 2245.46 135.678 Q2250.69 135.678 2253.72 139.057 Q2256.78 142.414 2256.78 148.201 M2252.52 146.951 Q2252.47 143.456 2250.55 141.372 Q2248.65 139.289 2245.51 139.289 Q2241.94 139.289 2239.79 141.303 Q2237.66 143.317 2237.34 146.974 L2252.52 146.951 Z" fill="#000000" fill-rule="nonzero" fill-opacity="1" /><polyline clip-path="url(#clip770)" style="stroke:#e26f46; stroke-linecap:round; stroke-linejoin:round; stroke-width:4; stroke-opacity:1; fill:none" points="1829.42,196.789 1973.39,196.789 "/>
<path clip-path="url(#clip770)" d="M1997.38 188.143 L2001.9 188.143 L2010 209.902 L2018.1 188.143 L2022.61 188.143 L2012.89 214.069 L2007.1 214.069 L1997.38 188.143 Z" fill="#000000" fill-rule="nonzero" fill-opacity="1" /><path clip-path="url(#clip770)" d="M2029.14 179.509 L2047.5 179.509 L2047.5 183.444 L2033.42 183.444 L2033.42 191.916 Q2034.44 191.569 2035.46 191.407 Q2036.48 191.222 2037.5 191.222 Q2043.29 191.222 2046.66 194.393 Q2050.04 197.564 2050.04 202.981 Q2050.04 208.559 2046.57 211.661 Q2043.1 214.74 2036.78 214.74 Q2034.6 214.74 2032.34 214.37 Q2030.09 213.999 2027.68 213.258 L2027.68 208.559 Q2029.77 209.694 2031.99 210.249 Q2034.21 210.805 2036.69 210.805 Q2040.69 210.805 2043.03 208.698 Q2045.37 206.592 2045.37 202.981 Q2045.37 199.37 2043.03 197.263 Q2040.69 195.157 2036.69 195.157 Q2034.81 195.157 2032.94 195.573 Q2031.09 195.99 2029.14 196.87 L2029.14 179.509 Z" fill="#000000" fill-rule="nonzero" fill-opacity="1" /><path clip-path="url(#clip770)" d="M2067.91 197.425 L2067.91 204.647 L2076.04 204.647 L2076.04 206.846 L2067.91 206.846 L2067.91 214.069 L2065.48 214.069 L2065.48 206.846 L2057.36 206.846 L2057.36 204.647 L2065.48 204.647 L2065.48 197.425 L2067.91 197.425 Z" fill="#000000" fill-rule="nonzero" fill-opacity="1" /><path clip-path="url(#clip770)" d="M2100.21 188.907 L2100.21 192.934 Q2098.4 192.009 2096.46 191.546 Q2094.51 191.083 2092.43 191.083 Q2089.26 191.083 2087.66 192.055 Q2086.09 193.027 2086.09 194.971 Q2086.09 196.453 2087.22 197.309 Q2088.35 198.143 2091.78 198.907 L2093.24 199.231 Q2097.78 200.203 2099.67 201.985 Q2101.6 203.745 2101.6 206.916 Q2101.6 210.527 2098.72 212.633 Q2095.88 214.74 2090.88 214.74 Q2088.79 214.74 2086.53 214.323 Q2084.28 213.93 2081.78 213.12 L2081.78 208.721 Q2084.14 209.948 2086.43 210.573 Q2088.72 211.175 2090.97 211.175 Q2093.98 211.175 2095.6 210.157 Q2097.22 209.115 2097.22 207.24 Q2097.22 205.504 2096.04 204.578 Q2094.88 203.652 2090.92 202.796 L2089.44 202.448 Q2085.48 201.615 2083.72 199.902 Q2081.97 198.166 2081.97 195.157 Q2081.97 191.499 2084.56 189.509 Q2087.15 187.518 2091.92 187.518 Q2094.28 187.518 2096.36 187.865 Q2098.45 188.212 2100.21 188.907 Z" fill="#000000" fill-rule="nonzero" fill-opacity="1" /><path clip-path="url(#clip770)" d="M2112.59 180.782 L2112.59 188.143 L2121.36 188.143 L2121.36 191.453 L2112.59 191.453 L2112.59 205.527 Q2112.59 208.698 2113.45 209.601 Q2114.33 210.504 2116.99 210.504 L2121.36 210.504 L2121.36 214.069 L2116.99 214.069 Q2112.06 214.069 2110.18 212.24 Q2108.31 210.388 2108.31 205.527 L2108.31 191.453 L2105.18 191.453 L2105.18 188.143 L2108.31 188.143 L2108.31 180.782 L2112.59 180.782 Z" fill="#000000" fill-rule="nonzero" fill-opacity="1" /><path clip-path="url(#clip770)" d="M2137.01 191.129 Q2133.59 191.129 2131.6 193.814 Q2129.6 196.476 2129.6 201.129 Q2129.6 205.782 2131.57 208.467 Q2133.56 211.129 2137.01 211.129 Q2140.41 211.129 2142.41 208.444 Q2144.4 205.758 2144.4 201.129 Q2144.4 196.522 2142.41 193.837 Q2140.41 191.129 2137.01 191.129 M2137.01 187.518 Q2142.57 187.518 2145.74 191.129 Q2148.91 194.74 2148.91 201.129 Q2148.91 207.495 2145.74 211.129 Q2142.57 214.74 2137.01 214.74 Q2131.43 214.74 2128.26 211.129 Q2125.11 207.495 2125.11 201.129 Q2125.11 194.74 2128.26 191.129 Q2131.43 187.518 2137.01 187.518 Z" fill="#000000" fill-rule="nonzero" fill-opacity="1" /><path clip-path="url(#clip770)" d="M2170.99 192.124 Q2170.28 191.708 2169.42 191.522 Q2168.59 191.314 2167.57 191.314 Q2163.96 191.314 2162.01 193.675 Q2160.09 196.013 2160.09 200.411 L2160.09 214.069 L2155.81 214.069 L2155.81 188.143 L2160.09 188.143 L2160.09 192.171 Q2161.43 189.809 2163.59 188.675 Q2165.74 187.518 2168.82 187.518 Q2169.26 187.518 2169.79 187.587 Q2170.32 187.634 2170.97 187.749 L2170.99 192.124 Z" fill="#000000" fill-rule="nonzero" fill-opacity="1" /><path clip-path="url(#clip770)" d="M2187.24 201.036 Q2182.08 201.036 2180.09 202.217 Q2178.1 203.397 2178.1 206.245 Q2178.1 208.513 2179.58 209.856 Q2181.09 211.175 2183.65 211.175 Q2187.2 211.175 2189.33 208.675 Q2191.48 206.152 2191.48 201.985 L2191.48 201.036 L2187.24 201.036 M2195.74 199.277 L2195.74 214.069 L2191.48 214.069 L2191.48 210.133 Q2190.02 212.495 2187.84 213.629 Q2185.67 214.74 2182.52 214.74 Q2178.54 214.74 2176.18 212.518 Q2173.84 210.272 2173.84 206.522 Q2173.84 202.147 2176.76 199.925 Q2179.7 197.703 2185.51 197.703 L2191.48 197.703 L2191.48 197.286 Q2191.48 194.347 2189.53 192.749 Q2187.61 191.129 2184.12 191.129 Q2181.9 191.129 2179.79 191.661 Q2177.68 192.194 2175.74 193.259 L2175.74 189.323 Q2178.08 188.421 2180.28 187.981 Q2182.47 187.518 2184.56 187.518 Q2190.18 187.518 2192.96 190.434 Q2195.74 193.351 2195.74 199.277 Z" fill="#000000" fill-rule="nonzero" fill-opacity="1" /><path clip-path="url(#clip770)" d="M2221.57 200.805 Q2221.57 196.175 2219.65 193.629 Q2217.75 191.083 2214.3 191.083 Q2210.88 191.083 2208.96 193.629 Q2207.06 196.175 2207.06 200.805 Q2207.06 205.411 2208.96 207.958 Q2210.88 210.504 2214.3 210.504 Q2217.75 210.504 2219.65 207.958 Q2221.57 205.411 2221.57 200.805 M2225.83 210.851 Q2225.83 217.471 2222.89 220.689 Q2219.95 223.93 2213.89 223.93 Q2211.64 223.93 2209.65 223.582 Q2207.66 223.258 2205.78 222.564 L2205.78 218.42 Q2207.66 219.439 2209.49 219.925 Q2211.32 220.411 2213.21 220.411 Q2217.4 220.411 2219.49 218.212 Q2221.57 216.036 2221.57 211.615 L2221.57 209.508 Q2220.25 211.8 2218.19 212.934 Q2216.13 214.069 2213.26 214.069 Q2208.49 214.069 2205.58 210.434 Q2202.66 206.8 2202.66 200.805 Q2202.66 194.786 2205.58 191.152 Q2208.49 187.518 2213.26 187.518 Q2216.13 187.518 2218.19 188.652 Q2220.25 189.786 2221.57 192.078 L2221.57 188.143 L2225.83 188.143 L2225.83 210.851 Z" fill="#000000" fill-rule="nonzero" fill-opacity="1" /><path clip-path="url(#clip770)" d="M2256.78 200.041 L2256.78 202.124 L2237.2 202.124 Q2237.47 206.522 2239.84 208.837 Q2242.22 211.129 2246.46 211.129 Q2248.91 211.129 2251.2 210.527 Q2253.52 209.925 2255.78 208.721 L2255.78 212.749 Q2253.49 213.721 2251.09 214.231 Q2248.68 214.74 2246.2 214.74 Q2240 214.74 2236.36 211.129 Q2232.75 207.518 2232.75 201.36 Q2232.75 194.995 2236.18 191.268 Q2239.63 187.518 2245.46 187.518 Q2250.69 187.518 2253.72 190.897 Q2256.78 194.254 2256.78 200.041 M2252.52 198.791 Q2252.47 195.296 2250.55 193.212 Q2248.65 191.129 2245.51 191.129 Q2241.94 191.129 2239.79 193.143 Q2237.66 195.157 2237.34 198.814 L2252.52 198.791 Z" fill="#000000" fill-rule="nonzero" fill-opacity="1" /></svg>
