<?xml version="1.0" encoding="utf-8"?>
<svg xmlns="http://www.w3.org/2000/svg" xmlns:xlink="http://www.w3.org/1999/xlink" width="600" height="400" viewBox="0 0 2400 1600">
<defs>
  <clipPath id="clip610">
    <rect x="0" y="0" width="2400" height="1600"/>
  </clipPath>
</defs>
<path clip-path="url(#clip610)" d="M0 1600 L2400 1600 L2400 0 L0 0  Z" fill="#ffffff" fill-rule="evenodd" fill-opacity="1"/>
<defs>
  <clipPath id="clip611">
    <rect x="480" y="0" width="1681" height="1600"/>
  </clipPath>
</defs>
<path clip-path="url(#clip610)" d="M193.936 1423.18 L2352.76 1423.18 L2352.76 47.2441 L193.936 47.2441  Z" fill="#ffffff" fill-rule="evenodd" fill-opacity="1"/>
<defs>
  <clipPath id="clip612">
    <rect x="193" y="47" width="2160" height="1377"/>
  </clipPath>
</defs>
<polyline clip-path="url(#clip612)" style="stroke:#000000; stroke-linecap:round; stroke-linejoin:round; stroke-width:2; stroke-opacity:0.1; fill:none" points="193.936,1423.18 193.936,47.2441 "/>
<polyline clip-path="url(#clip612)" style="stroke:#000000; stroke-linecap:round; stroke-linejoin:round; stroke-width:2; stroke-opacity:0.1; fill:none" points="733.641,1423.18 733.641,47.2441 "/>
<polyline clip-path="url(#clip612)" style="stroke:#000000; stroke-linecap:round; stroke-linejoin:round; stroke-width:2; stroke-opacity:0.1; fill:none" points="1273.35,1423.18 1273.35,47.2441 "/>
<polyline clip-path="url(#clip612)" style="stroke:#000000; stroke-linecap:round; stroke-linejoin:round; stroke-width:2; stroke-opacity:0.1; fill:none" points="1813.05,1423.18 1813.05,47.2441 "/>
<polyline clip-path="url(#clip612)" style="stroke:#000000; stroke-linecap:round; stroke-linejoin:round; stroke-width:2; stroke-opacity:0.1; fill:none" points="2352.76,1423.18 2352.76,47.2441 "/>
<polyline clip-path="url(#clip612)" style="stroke:#000000; stroke-linecap:round; stroke-linejoin:round; stroke-width:2; stroke-opacity:0.1; fill:none" points="193.936,1231.51 2352.76,1231.51 "/>
<polyline clip-path="url(#clip612)" style="stroke:#000000; stroke-linecap:round; stroke-linejoin:round; stroke-width:2; stroke-opacity:0.1; fill:none" points="193.936,967.825 2352.76,967.825 "/>
<polyline clip-path="url(#clip612)" style="stroke:#000000; stroke-linecap:round; stroke-linejoin:round; stroke-width:2; stroke-opacity:0.1; fill:none" points="193.936,704.141 2352.76,704.141 "/>
<polyline clip-path="url(#clip612)" style="stroke:#000000; stroke-linecap:round; stroke-linejoin:round; stroke-width:2; stroke-opacity:0.1; fill:none" points="193.936,440.457 2352.76,440.457 "/>
<polyline clip-path="url(#clip612)" style="stroke:#000000; stroke-linecap:round; stroke-linejoin:round; stroke-width:2; stroke-opacity:0.1; fill:none" points="193.936,176.773 2352.76,176.773 "/>
<polyline clip-path="url(#clip610)" style="stroke:#000000; stroke-linecap:round; stroke-linejoin:round; stroke-width:4; stroke-opacity:1; fill:none" points="193.936,1423.18 2352.76,1423.18 "/>
<polyline clip-path="url(#clip610)" style="stroke:#000000; stroke-linecap:round; stroke-linejoin:round; stroke-width:4; stroke-opacity:1; fill:none" points="193.936,1423.18 193.936,1404.28 "/>
<polyline clip-path="url(#clip610)" style="stroke:#000000; stroke-linecap:round; stroke-linejoin:round; stroke-width:4; stroke-opacity:1; fill:none" points="733.641,1423.18 733.641,1404.28 "/>
<polyline clip-path="url(#clip610)" style="stroke:#000000; stroke-linecap:round; stroke-linejoin:round; stroke-width:4; stroke-opacity:1; fill:none" points="1273.35,1423.18 1273.35,1404.28 "/>
<polyline clip-path="url(#clip610)" style="stroke:#000000; stroke-linecap:round; stroke-linejoin:round; stroke-width:4; stroke-opacity:1; fill:none" points="1813.05,1423.18 1813.05,1404.28 "/>
<polyline clip-path="url(#clip610)" style="stroke:#000000; stroke-linecap:round; stroke-linejoin:round; stroke-width:4; stroke-opacity:1; fill:none" points="2352.76,1423.18 2352.76,1404.28 "/>
<path clip-path="url(#clip610)" d="M171.32 1454.1 Q167.709 1454.1 165.881 1457.66 Q164.075 1461.2 164.075 1468.33 Q164.075 1475.44 165.881 1479.01 Q167.709 1482.55 171.32 1482.55 Q174.955 1482.55 176.76 1479.01 Q178.589 1475.44 178.589 1468.33 Q178.589 1461.2 176.76 1457.66 Q174.955 1454.1 171.32 1454.1 M171.32 1450.39 Q177.131 1450.39 180.186 1455 Q183.265 1459.58 183.265 1468.33 Q183.265 1477.06 180.186 1481.67 Q177.131 1486.25 171.32 1486.25 Q165.51 1486.25 162.432 1481.67 Q159.376 1477.06 159.376 1468.33 Q159.376 1459.58 162.432 1455 Q165.51 1450.39 171.32 1450.39 Z" fill="#000000" fill-rule="nonzero" fill-opacity="1" /><path clip-path="url(#clip610)" d="M191.482 1479.7 L196.367 1479.7 L196.367 1485.58 L191.482 1485.58 L191.482 1479.7 Z" fill="#000000" fill-rule="nonzero" fill-opacity="1" /><path clip-path="url(#clip610)" d="M216.552 1454.1 Q212.941 1454.1 211.112 1457.66 Q209.306 1461.2 209.306 1468.33 Q209.306 1475.44 211.112 1479.01 Q212.941 1482.55 216.552 1482.55 Q220.186 1482.55 221.991 1479.01 Q223.82 1475.44 223.82 1468.33 Q223.82 1461.2 221.991 1457.66 Q220.186 1454.1 216.552 1454.1 M216.552 1450.39 Q222.362 1450.39 225.417 1455 Q228.496 1459.58 228.496 1468.33 Q228.496 1477.06 225.417 1481.67 Q222.362 1486.25 216.552 1486.25 Q210.741 1486.25 207.663 1481.67 Q204.607 1477.06 204.607 1468.33 Q204.607 1459.58 207.663 1455 Q210.741 1450.39 216.552 1450.39 Z" fill="#000000" fill-rule="nonzero" fill-opacity="1" /><path clip-path="url(#clip610)" d="M711.523 1454.1 Q707.912 1454.1 706.083 1457.66 Q704.278 1461.2 704.278 1468.33 Q704.278 1475.44 706.083 1479.01 Q707.912 1482.55 711.523 1482.55 Q715.157 1482.55 716.963 1479.01 Q718.792 1475.44 718.792 1468.33 Q718.792 1461.2 716.963 1457.66 Q715.157 1454.1 711.523 1454.1 M711.523 1450.39 Q717.333 1450.39 720.389 1455 Q723.467 1459.58 723.467 1468.33 Q723.467 1477.06 720.389 1481.67 Q717.333 1486.25 711.523 1486.25 Q705.713 1486.25 702.634 1481.67 Q699.579 1477.06 699.579 1468.33 Q699.579 1459.58 702.634 1455 Q705.713 1450.39 711.523 1450.39 Z" fill="#000000" fill-rule="nonzero" fill-opacity="1" /><path clip-path="url(#clip610)" d="M731.685 1479.7 L736.569 1479.7 L736.569 1485.58 L731.685 1485.58 L731.685 1479.7 Z" fill="#000000" fill-rule="nonzero" fill-opacity="1" /><path clip-path="url(#clip610)" d="M746.801 1451.02 L765.157 1451.02 L765.157 1454.96 L751.083 1454.96 L751.083 1463.43 Q752.102 1463.08 753.12 1462.92 Q754.139 1462.73 755.157 1462.73 Q760.944 1462.73 764.324 1465.9 Q767.703 1469.08 767.703 1474.49 Q767.703 1480.07 764.231 1483.17 Q760.759 1486.25 754.439 1486.25 Q752.264 1486.25 749.995 1485.88 Q747.75 1485.51 745.342 1484.77 L745.342 1480.07 Q747.426 1481.2 749.648 1481.76 Q751.87 1482.32 754.347 1482.32 Q758.351 1482.32 760.689 1480.21 Q763.027 1478.1 763.027 1474.49 Q763.027 1470.88 760.689 1468.77 Q758.351 1466.67 754.347 1466.67 Q752.472 1466.67 750.597 1467.08 Q748.745 1467.5 746.801 1468.38 L746.801 1451.02 Z" fill="#000000" fill-rule="nonzero" fill-opacity="1" /><path clip-path="url(#clip610)" d="M1240.5 1481.64 L1248.14 1481.64 L1248.14 1455.28 L1239.83 1456.95 L1239.83 1452.69 L1248.09 1451.02 L1252.77 1451.02 L1252.77 1481.64 L1260.41 1481.64 L1260.41 1485.58 L1240.5 1485.58 L1240.5 1481.64 Z" fill="#000000" fill-rule="nonzero" fill-opacity="1" /><path clip-path="url(#clip610)" d="M1269.85 1479.7 L1274.73 1479.7 L1274.73 1485.58 L1269.85 1485.58 L1269.85 1479.7 Z" fill="#000000" fill-rule="nonzero" fill-opacity="1" /><path clip-path="url(#clip610)" d="M1294.92 1454.1 Q1291.31 1454.1 1289.48 1457.66 Q1287.67 1461.2 1287.67 1468.33 Q1287.67 1475.44 1289.48 1479.01 Q1291.31 1482.55 1294.92 1482.55 Q1298.55 1482.55 1300.36 1479.01 Q1302.19 1475.44 1302.19 1468.33 Q1302.19 1461.2 1300.36 1457.66 Q1298.55 1454.1 1294.92 1454.1 M1294.92 1450.39 Q1300.73 1450.39 1303.79 1455 Q1306.86 1459.58 1306.86 1468.33 Q1306.86 1477.06 1303.79 1481.67 Q1300.73 1486.25 1294.92 1486.25 Q1289.11 1486.25 1286.03 1481.67 Q1282.98 1477.06 1282.98 1468.33 Q1282.98 1459.58 1286.03 1455 Q1289.11 1450.39 1294.92 1450.39 Z" fill="#000000" fill-rule="nonzero" fill-opacity="1" /><path clip-path="url(#clip610)" d="M1780.7 1481.64 L1788.34 1481.64 L1788.34 1455.28 L1780.03 1456.95 L1780.03 1452.69 L1788.29 1451.02 L1792.97 1451.02 L1792.97 1481.64 L1800.61 1481.64 L1800.61 1485.58 L1780.7 1485.58 L1780.7 1481.64 Z" fill="#000000" fill-rule="nonzero" fill-opacity="1" /><path clip-path="url(#clip610)" d="M1810.05 1479.7 L1814.94 1479.7 L1814.94 1485.58 L1810.05 1485.58 L1810.05 1479.7 Z" fill="#000000" fill-rule="nonzero" fill-opacity="1" /><path clip-path="url(#clip610)" d="M1825.17 1451.02 L1843.53 1451.02 L1843.53 1454.96 L1829.45 1454.96 L1829.45 1463.43 Q1830.47 1463.08 1831.49 1462.92 Q1832.51 1462.73 1833.53 1462.73 Q1839.31 1462.73 1842.69 1465.9 Q1846.07 1469.08 1846.07 1474.49 Q1846.07 1480.07 1842.6 1483.17 Q1839.13 1486.25 1832.81 1486.25 Q1830.63 1486.25 1828.36 1485.88 Q1826.12 1485.51 1823.71 1484.77 L1823.71 1480.07 Q1825.79 1481.2 1828.02 1481.76 Q1830.24 1482.32 1832.72 1482.32 Q1836.72 1482.32 1839.06 1480.21 Q1841.4 1478.1 1841.4 1474.49 Q1841.4 1470.88 1839.06 1468.77 Q1836.72 1466.67 1832.72 1466.67 Q1830.84 1466.67 1828.97 1467.08 Q1827.11 1467.5 1825.17 1468.38 L1825.17 1451.02 Z" fill="#000000" fill-rule="nonzero" fill-opacity="1" /><path clip-path="url(#clip610)" d="M2323.99 1481.64 L2340.31 1481.64 L2340.31 1485.58 L2318.37 1485.58 L2318.37 1481.64 Q2321.03 1478.89 2325.61 1474.26 Q2330.22 1469.61 2331.4 1468.27 Q2333.65 1465.74 2334.53 1464.01 Q2335.43 1462.25 2335.43 1460.56 Q2335.43 1457.8 2333.49 1456.07 Q2331.56 1454.33 2328.46 1454.33 Q2326.26 1454.33 2323.81 1455.09 Q2321.38 1455.86 2318.6 1457.41 L2318.6 1452.69 Q2321.43 1451.55 2323.88 1450.97 Q2326.33 1450.39 2328.37 1450.39 Q2333.74 1450.39 2336.93 1453.08 Q2340.13 1455.77 2340.13 1460.26 Q2340.13 1462.39 2339.32 1464.31 Q2338.53 1466.2 2336.42 1468.8 Q2335.85 1469.47 2332.74 1472.69 Q2329.64 1475.88 2323.99 1481.64 Z" fill="#000000" fill-rule="nonzero" fill-opacity="1" /><path clip-path="url(#clip610)" d="M2350.13 1479.7 L2355.01 1479.7 L2355.01 1485.58 L2350.13 1485.58 L2350.13 1479.7 Z" fill="#000000" fill-rule="nonzero" fill-opacity="1" /><path clip-path="url(#clip610)" d="M2375.2 1454.1 Q2371.59 1454.1 2369.76 1457.66 Q2367.95 1461.2 2367.95 1468.33 Q2367.95 1475.44 2369.76 1479.01 Q2371.59 1482.55 2375.2 1482.55 Q2378.83 1482.55 2380.64 1479.01 Q2382.47 1475.44 2382.47 1468.33 Q2382.47 1461.2 2380.64 1457.66 Q2378.83 1454.1 2375.2 1454.1 M2375.2 1450.39 Q2381.01 1450.39 2384.06 1455 Q2387.14 1459.58 2387.14 1468.33 Q2387.14 1477.06 2384.06 1481.67 Q2381.01 1486.25 2375.2 1486.25 Q2369.39 1486.25 2366.31 1481.67 Q2363.25 1477.06 2363.25 1468.33 Q2363.25 1459.58 2366.31 1455 Q2369.39 1450.39 2375.2 1450.39 Z" fill="#000000" fill-rule="nonzero" fill-opacity="1" /><path clip-path="url(#clip610)" d="M1272.41 1522.27 L1272.41 1532.4 L1284.47 1532.4 L1284.47 1536.95 L1272.41 1536.95 L1272.41 1556.3 Q1272.41 1560.66 1273.58 1561.9 Q1274.79 1563.14 1278.45 1563.14 L1284.47 1563.14 L1284.47 1568.04 L1278.45 1568.04 Q1271.67 1568.04 1269.1 1565.53 Q1266.52 1562.98 1266.52 1556.3 L1266.52 1536.95 L1262.22 1536.95 L1262.22 1532.4 L1266.52 1532.4 L1266.52 1522.27 L1272.41 1522.27 Z" fill="#000000" fill-rule="nonzero" fill-opacity="1" /><polyline clip-path="url(#clip610)" style="stroke:#000000; stroke-linecap:round; stroke-linejoin:round; stroke-width:4; stroke-opacity:1; fill:none" points="193.936,1423.18 193.936,47.2441 "/>
<polyline clip-path="url(#clip610)" style="stroke:#000000; stroke-linecap:round; stroke-linejoin:round; stroke-width:4; stroke-opacity:1; fill:none" points="193.936,1231.51 212.834,1231.51 "/>
<polyline clip-path="url(#clip610)" style="stroke:#000000; stroke-linecap:round; stroke-linejoin:round; stroke-width:4; stroke-opacity:1; fill:none" points="193.936,967.825 212.834,967.825 "/>
<polyline clip-path="url(#clip610)" style="stroke:#000000; stroke-linecap:round; stroke-linejoin:round; stroke-width:4; stroke-opacity:1; fill:none" points="193.936,704.141 212.834,704.141 "/>
<polyline clip-path="url(#clip610)" style="stroke:#000000; stroke-linecap:round; stroke-linejoin:round; stroke-width:4; stroke-opacity:1; fill:none" points="193.936,440.457 212.834,440.457 "/>
<polyline clip-path="url(#clip610)" style="stroke:#000000; stroke-linecap:round; stroke-linejoin:round; stroke-width:4; stroke-opacity:1; fill:none" points="193.936,176.773 212.834,176.773 "/>
<path clip-path="url(#clip610)" d="M50.9921 1231.96 L80.6679 1231.96 L80.6679 1235.9 L50.9921 1235.9 L50.9921 1231.96 Z" fill="#000000" fill-rule="nonzero" fill-opacity="1" /><path clip-path="url(#clip610)" d="M91.5706 1244.85 L99.2095 1244.85 L99.2095 1218.49 L90.8993 1220.16 L90.8993 1215.9 L99.1632 1214.23 L103.839 1214.23 L103.839 1244.85 L111.478 1244.85 L111.478 1248.79 L91.5706 1248.79 L91.5706 1244.85 Z" fill="#000000" fill-rule="nonzero" fill-opacity="1" /><path clip-path="url(#clip610)" d="M120.922 1242.91 L125.807 1242.91 L125.807 1248.79 L120.922 1248.79 L120.922 1242.91 Z" fill="#000000" fill-rule="nonzero" fill-opacity="1" /><path clip-path="url(#clip610)" d="M145.992 1217.31 Q142.381 1217.31 140.552 1220.87 Q138.746 1224.41 138.746 1231.54 Q138.746 1238.65 140.552 1242.22 Q142.381 1245.76 145.992 1245.76 Q149.626 1245.76 151.431 1242.22 Q153.26 1238.65 153.26 1231.54 Q153.26 1224.41 151.431 1220.87 Q149.626 1217.31 145.992 1217.31 M145.992 1213.6 Q151.802 1213.6 154.857 1218.21 Q157.936 1222.79 157.936 1231.54 Q157.936 1240.27 154.857 1244.88 Q151.802 1249.46 145.992 1249.46 Q140.181 1249.46 137.103 1244.88 Q134.047 1240.27 134.047 1231.54 Q134.047 1222.79 137.103 1218.21 Q140.181 1213.6 145.992 1213.6 Z" fill="#000000" fill-rule="nonzero" fill-opacity="1" /><path clip-path="url(#clip610)" d="M51.9875 968.276 L81.6633 968.276 L81.6633 972.212 L51.9875 972.212 L51.9875 968.276 Z" fill="#000000" fill-rule="nonzero" fill-opacity="1" /><path clip-path="url(#clip610)" d="M101.756 953.624 Q98.1447 953.624 96.316 957.188 Q94.5104 960.73 94.5104 967.86 Q94.5104 974.966 96.316 978.531 Q98.1447 982.073 101.756 982.073 Q105.39 982.073 107.196 978.531 Q109.024 974.966 109.024 967.86 Q109.024 960.73 107.196 957.188 Q105.39 953.624 101.756 953.624 M101.756 949.92 Q107.566 949.92 110.621 954.526 Q113.7 959.11 113.7 967.86 Q113.7 976.587 110.621 981.193 Q107.566 985.776 101.756 985.776 Q95.9456 985.776 92.8669 981.193 Q89.8114 976.587 89.8114 967.86 Q89.8114 959.11 92.8669 954.526 Q95.9456 949.92 101.756 949.92 Z" fill="#000000" fill-rule="nonzero" fill-opacity="1" /><path clip-path="url(#clip610)" d="M121.918 979.225 L126.802 979.225 L126.802 985.105 L121.918 985.105 L121.918 979.225 Z" fill="#000000" fill-rule="nonzero" fill-opacity="1" /><path clip-path="url(#clip610)" d="M137.033 950.545 L155.39 950.545 L155.39 954.48 L141.316 954.48 L141.316 962.952 Q142.334 962.605 143.353 962.443 Q144.371 962.258 145.39 962.258 Q151.177 962.258 154.556 965.429 Q157.936 968.6 157.936 974.017 Q157.936 979.596 154.464 982.698 Q150.992 985.776 144.672 985.776 Q142.496 985.776 140.228 985.406 Q137.982 985.036 135.575 984.295 L135.575 979.596 Q137.658 980.73 139.881 981.286 Q142.103 981.841 144.58 981.841 Q148.584 981.841 150.922 979.735 Q153.26 977.628 153.26 974.017 Q153.26 970.406 150.922 968.3 Q148.584 966.193 144.58 966.193 Q142.705 966.193 140.83 966.61 Q138.978 967.026 137.033 967.906 L137.033 950.545 Z" fill="#000000" fill-rule="nonzero" fill-opacity="1" /><path clip-path="url(#clip610)" d="M100.76 689.94 Q97.1493 689.94 95.3206 693.504 Q93.515 697.046 93.515 704.176 Q93.515 711.282 95.3206 714.847 Q97.1493 718.388 100.76 718.388 Q104.395 718.388 106.2 714.847 Q108.029 711.282 108.029 704.176 Q108.029 697.046 106.2 693.504 Q104.395 689.94 100.76 689.94 M100.76 686.236 Q106.571 686.236 109.626 690.842 Q112.705 695.426 112.705 704.176 Q112.705 712.902 109.626 717.509 Q106.571 722.092 100.76 722.092 Q94.9502 722.092 91.8715 717.509 Q88.816 712.902 88.816 704.176 Q88.816 695.426 91.8715 690.842 Q94.9502 686.236 100.76 686.236 Z" fill="#000000" fill-rule="nonzero" fill-opacity="1" /><path clip-path="url(#clip610)" d="M120.922 715.541 L125.807 715.541 L125.807 721.421 L120.922 721.421 L120.922 715.541 Z" fill="#000000" fill-rule="nonzero" fill-opacity="1" /><path clip-path="url(#clip610)" d="M145.992 689.94 Q142.381 689.94 140.552 693.504 Q138.746 697.046 138.746 704.176 Q138.746 711.282 140.552 714.847 Q142.381 718.388 145.992 718.388 Q149.626 718.388 151.431 714.847 Q153.26 711.282 153.26 704.176 Q153.26 697.046 151.431 693.504 Q149.626 689.94 145.992 689.94 M145.992 686.236 Q151.802 686.236 154.857 690.842 Q157.936 695.426 157.936 704.176 Q157.936 712.902 154.857 717.509 Q151.802 722.092 145.992 722.092 Q140.181 722.092 137.103 717.509 Q134.047 712.902 134.047 704.176 Q134.047 695.426 137.103 690.842 Q140.181 686.236 145.992 686.236 Z" fill="#000000" fill-rule="nonzero" fill-opacity="1" /><path clip-path="url(#clip610)" d="M101.756 426.255 Q98.1447 426.255 96.316 429.82 Q94.5104 433.362 94.5104 440.491 Q94.5104 447.598 96.316 451.163 Q98.1447 454.704 101.756 454.704 Q105.39 454.704 107.196 451.163 Q109.024 447.598 109.024 440.491 Q109.024 433.362 107.196 429.82 Q105.39 426.255 101.756 426.255 M101.756 422.552 Q107.566 422.552 110.621 427.158 Q113.7 431.741 113.7 440.491 Q113.7 449.218 110.621 453.825 Q107.566 458.408 101.756 458.408 Q95.9456 458.408 92.8669 453.825 Q89.8114 449.218 89.8114 440.491 Q89.8114 431.741 92.8669 427.158 Q95.9456 422.552 101.756 422.552 Z" fill="#000000" fill-rule="nonzero" fill-opacity="1" /><path clip-path="url(#clip610)" d="M121.918 451.857 L126.802 451.857 L126.802 457.737 L121.918 457.737 L121.918 451.857 Z" fill="#000000" fill-rule="nonzero" fill-opacity="1" /><path clip-path="url(#clip610)" d="M137.033 423.177 L155.39 423.177 L155.39 427.112 L141.316 427.112 L141.316 435.584 Q142.334 435.237 143.353 435.075 Q144.371 434.89 145.39 434.89 Q151.177 434.89 154.556 438.061 Q157.936 441.232 157.936 446.649 Q157.936 452.227 154.464 455.329 Q150.992 458.408 144.672 458.408 Q142.496 458.408 140.228 458.038 Q137.982 457.667 135.575 456.927 L135.575 452.227 Q137.658 453.362 139.881 453.917 Q142.103 454.473 144.58 454.473 Q148.584 454.473 150.922 452.366 Q153.26 450.26 153.26 446.649 Q153.26 443.038 150.922 440.931 Q148.584 438.825 144.58 438.825 Q142.705 438.825 140.83 439.241 Q138.978 439.658 137.033 440.538 L137.033 423.177 Z" fill="#000000" fill-rule="nonzero" fill-opacity="1" /><path clip-path="url(#clip610)" d="M91.5706 190.117 L99.2095 190.117 L99.2095 163.752 L90.8993 165.418 L90.8993 161.159 L99.1632 159.493 L103.839 159.493 L103.839 190.117 L111.478 190.117 L111.478 194.053 L91.5706 194.053 L91.5706 190.117 Z" fill="#000000" fill-rule="nonzero" fill-opacity="1" /><path clip-path="url(#clip610)" d="M120.922 188.173 L125.807 188.173 L125.807 194.053 L120.922 194.053 L120.922 188.173 Z" fill="#000000" fill-rule="nonzero" fill-opacity="1" /><path clip-path="url(#clip610)" d="M145.992 162.571 Q142.381 162.571 140.552 166.136 Q138.746 169.678 138.746 176.807 Q138.746 183.914 140.552 187.479 Q142.381 191.02 145.992 191.02 Q149.626 191.02 151.431 187.479 Q153.26 183.914 153.26 176.807 Q153.26 169.678 151.431 166.136 Q149.626 162.571 145.992 162.571 M145.992 158.868 Q151.802 158.868 154.857 163.474 Q157.936 168.057 157.936 176.807 Q157.936 185.534 154.857 190.141 Q151.802 194.724 145.992 194.724 Q140.181 194.724 137.103 190.141 Q134.047 185.534 134.047 176.807 Q134.047 168.057 137.103 163.474 Q140.181 158.868 145.992 158.868 Z" fill="#000000" fill-rule="nonzero" fill-opacity="1" /><polyline clip-path="url(#clip612)" style="stroke:#009af9; stroke-linecap:round; stroke-linejoin:round; stroke-width:4; stroke-opacity:1; fill:none" points="193.936,86.1857 196.097,91.1718 198.258,96.1082 200.419,100.995 202.58,105.834 204.741,110.624 206.902,115.367 209.063,120.063 211.224,124.711 213.385,129.314 215.546,133.87 217.707,138.381 219.868,142.847 222.029,147.269 224.19,151.647 226.351,155.981 228.512,160.272 230.673,164.52 232.834,168.726 234.995,172.89 237.156,177.012 239.317,181.094 241.478,185.135 243.639,189.135 245.8,193.096 247.961,197.017 250.122,200.899 252.282,204.743 254.443,208.548 256.604,212.315 258.765,216.045 260.926,219.738 263.087,223.394 265.248,227.013 267.409,230.597 269.57,234.145 271.731,237.657 273.892,241.134 276.053,244.577 278.214,247.986 280.375,251.36 282.536,254.701 284.697,258.009 286.858,261.283 289.019,264.525 291.18,267.735 293.341,270.913 295.502,274.059 297.663,277.174 299.824,280.258 301.985,283.311 304.146,286.334 306.307,289.326 308.468,292.289 310.629,295.222 312.79,298.127 314.951,301.002 317.112,303.848 319.273,306.666 321.434,309.457 323.595,312.219 325.756,314.954 327.917,317.661 330.078,320.342 332.239,322.996 334.4,325.623 336.561,328.224 338.722,330.8 340.883,333.349 343.044,335.874 345.205,338.373 347.366,340.847 349.527,343.297 351.688,345.722 353.849,348.123 356.01,350.5 358.171,352.854 360.332,355.184 362.493,357.49 364.653,359.774 366.814,362.035 368.975,364.274 371.136,366.49 373.297,368.685 375.458,370.857 377.619,373.008 379.78,375.137 381.941,377.245 384.102,379.333 386.263,381.399 388.424,383.445 390.585,385.47 392.746,387.475 394.907,389.461 397.068,391.426 399.229,393.372 401.39,395.298 403.551,397.206 405.712,399.094 407.873,400.963 410.034,402.814 412.195,404.647 414.356,406.461 416.517,408.257 418.678,410.035 420.839,411.796 423,413.539 425.161,415.264 427.322,416.973 429.483,418.664 431.644,420.338 433.805,421.996 435.966,423.638 438.127,425.263 440.288,426.871 442.449,428.464 444.61,430.041 446.771,431.602 448.932,433.148 451.093,434.678 453.254,436.194 455.415,437.694 457.576,439.179 459.737,440.649 461.898,442.105 464.059,443.546 466.22,444.973 468.381,446.385 470.542,447.784 472.703,449.168 474.864,450.539 477.024,451.896 479.185,453.24 481.346,454.57 483.507,455.887 485.668,457.191 487.829,458.482 489.99,459.76 492.151,461.025 494.312,462.278 496.473,463.518 498.634,464.746 500.795,465.961 502.956,467.165 505.117,468.356 507.278,469.536 509.439,470.704 511.6,471.86 513.761,473.005 515.922,474.138 518.083,475.26 520.244,476.371 522.405,477.471 524.566,478.559 526.727,479.637 528.888,480.704 531.049,481.761 533.21,482.807 535.371,483.843 537.532,484.868 539.693,485.883 541.854,486.888 544.015,487.883 546.176,488.868 548.337,489.844 550.498,490.809 552.659,491.765 554.82,492.712 556.981,493.649 559.142,494.577 561.303,495.495 563.464,496.405 565.625,497.305 567.786,498.197 569.947,499.079 572.108,499.953 574.269,500.818 576.43,501.674 578.591,502.522 580.752,503.362 582.913,504.193 585.074,505.015 587.235,505.83 589.396,506.636 591.556,507.435 593.717,508.225 595.878,509.008 598.039,509.783 600.2,510.55 602.361,511.309 604.522,512.061 606.683,512.805 608.844,513.542 611.005,514.272 613.166,514.994 615.327,515.709 617.488,516.417 619.649,517.118 621.81,517.812 623.971,518.499 626.132,519.179 628.293,519.852 630.454,520.519 632.615,521.179 634.776,521.832 636.937,522.479 639.098,523.12 641.259,523.754 643.42,524.382 645.581,525.003 647.742,525.619 649.903,526.228 652.064,526.831 654.225,527.428 656.386,528.019 658.547,528.605 660.708,529.184 662.869,529.758 665.03,530.326 667.191,530.888 669.352,531.445 671.513,531.997 673.674,532.542 675.835,533.083 677.996,533.618 680.157,534.147 682.318,534.672 684.479,535.191 686.64,535.705 688.801,536.214 690.962,536.718 693.123,537.217 695.284,537.711 697.445,538.2 699.606,538.684 701.767,539.163 703.927,539.637 706.088,540.107 708.249,540.572 710.41,541.033 712.571,541.488 714.732,541.94 716.893,542.386 719.054,542.829 721.215,543.267 723.376,543.7 725.537,544.129 727.698,544.554 729.859,544.975 732.02,545.391 734.181,545.804 736.342,546.212 738.503,546.616 740.664,547.016 742.825,547.412 744.986,547.805 747.147,548.193 749.308,548.577 751.469,548.958 753.63,549.335 755.791,549.708 757.952,550.077 760.113,550.442 762.274,550.804 764.435,551.163 766.596,551.518 768.757,551.869 770.918,552.217 773.079,552.561 775.24,552.902 777.401,553.239 779.562,553.573 781.723,553.904 783.884,554.232 786.045,554.556 788.206,554.877 790.367,555.195 792.528,555.51 794.689,555.821 796.85,556.13 799.011,556.435 801.172,556.738 803.333,557.037 805.494,557.333 807.655,557.627 809.816,557.917 811.977,558.205 814.138,558.49 816.298,558.772 818.459,559.051 820.62,559.327 822.781,559.601 824.942,559.872 827.103,560.14 829.264,560.405 831.425,560.668 833.586,560.929 835.747,561.186 837.908,561.441 840.069,561.694 842.23,561.944 844.391,562.191 846.552,562.436 848.713,562.679 850.874,562.919 853.035,563.157 855.196,563.392 857.357,563.625 859.518,563.856 861.679,564.085 863.84,564.311 866.001,564.535 868.162,564.756 870.323,564.976 872.484,565.193 874.645,565.408 876.806,565.621 878.967,565.832 881.128,566.041 883.289,566.247 885.45,566.452 887.611,566.654 889.772,566.855 891.933,567.054 894.094,567.25 896.255,567.445 898.416,567.637 900.577,567.828 902.738,568.017 904.899,568.204 907.06,568.389 909.221,568.572 911.382,568.754 913.543,568.933 915.704,569.111 917.865,569.287 920.026,569.462 922.187,569.634 924.348,569.805 926.509,569.974 928.669,570.142 930.83,570.308 932.991,570.472 935.152,570.634 937.313,570.795 939.474,570.955 941.635,571.113 943.796,571.269 945.957,571.424 948.118,571.577 950.279,571.728 952.44,571.879 954.601,572.027 956.762,572.174 958.923,572.32 961.084,572.464 963.245,572.607 965.406,572.749 967.567,572.889 969.728,573.027 971.889,573.164 974.05,573.3 976.211,573.435 978.372,573.568 980.533,573.699 982.694,573.83 984.855,573.959 987.016,574.087 989.177,574.214 991.338,574.339 993.499,574.463 995.66,574.586 997.821,574.707 999.982,574.828 1002.14,574.947 1004.3,575.065 1006.46,575.182 1008.63,575.297 1010.79,575.412 1012.95,575.525 1015.11,575.637 1017.27,575.749 1019.43,575.859 1021.59,575.967 1023.75,576.075 1025.91,576.182 1028.07,576.287 1030.24,576.392 1032.4,576.496 1034.56,576.598 1036.72,576.7 1038.88,576.8 1041.04,576.899 1043.2,576.998 1045.36,577.095 1047.52,577.192 1049.68,577.287 1051.85,577.382 1054.01,577.476 1056.17,577.568 1058.33,577.66 1060.49,577.751 1062.65,577.841 1064.81,577.93 1066.97,578.018 1069.13,578.106 1071.29,578.192 1073.46,578.278 1075.62,578.362 1077.78,578.446 1079.94,578.529 1082.1,578.612 1084.26,578.693 1086.42,578.774 1088.58,578.853 1090.74,578.933 1092.9,579.011 1095.07,579.088 1097.23,579.165 1099.39,579.241 1101.55,579.316 1103.71,579.391 1105.87,579.465 1108.03,579.538 1110.19,579.61 1112.35,579.681 1114.51,579.752 1116.67,579.823 1118.84,579.892 1121,579.961 1123.16,580.029 1125.32,580.096 1127.48,580.163 1129.64,580.229 1131.8,580.295 1133.96,580.36 1136.12,580.424 1138.28,580.487 1140.45,580.55 1142.61,580.612 1144.77,580.674 1146.93,580.735 1149.09,580.795 1151.25,580.855 1153.41,580.914 1155.57,580.973 1157.73,581.031 1159.89,581.088 1162.06,581.145 1164.22,581.201 1166.38,581.257 1168.54,581.312 1170.7,581.367 1172.86,581.421 1175.02,581.475 1177.18,581.527 1179.34,581.58 1181.5,581.632 1183.67,581.683 1185.83,581.734 1187.99,581.784 1190.15,581.834 1192.31,581.884 1194.47,581.933 1196.63,581.981 1198.79,582.029 1200.95,582.076 1203.11,582.123 1205.28,582.17 1207.44,582.216 1209.6,582.261 1211.76,582.306 1213.92,582.351 1216.08,582.395 1218.24,582.439 1220.4,582.482 1222.56,582.525 1224.72,582.567 1226.88,582.609 1229.05,582.651 1231.21,582.692 1233.37,582.733 1235.53,582.773 1237.69,582.813 1239.85,582.853 1242.01,582.892 1244.17,582.931 1246.33,582.969 1248.49,583.007 1250.66,583.045 1252.82,583.082 1254.98,583.119 1257.14,583.156 1259.3,583.192 1261.46,583.228 1263.62,583.263 1265.78,583.298 1267.94,583.333 1270.1,583.367 1272.27,583.402 1274.43,583.435 1276.59,583.469 1278.75,583.502 1280.91,583.535 1283.07,583.567 1285.23,583.599 1287.39,583.631 1289.55,583.663 1291.71,583.694 1293.88,583.725 1296.04,583.755 1298.2,583.786 1300.36,583.816 1302.52,583.845 1304.68,583.875 1306.84,583.904 1309,583.933 1311.16,583.961 1313.32,583.99 1315.49,584.018 1317.65,584.045 1319.81,584.073 1321.97,584.1 1324.13,584.127 1326.29,584.153 1328.45,584.18 1330.61,584.206 1332.77,584.232 1334.93,584.257 1337.09,584.283 1339.26,584.308 1341.42,584.332 1343.58,584.357 1345.74,584.381 1347.9,584.405 1350.06,584.429 1352.22,584.453 1354.38,584.476 1356.54,584.499 1358.7,584.522 1360.87,584.545 1363.03,584.567 1365.19,584.589 1367.35,584.611 1369.51,584.633 1371.67,584.655 1373.83,584.676 1375.99,584.697 1378.15,584.718 1380.31,584.739 1382.48,584.759 1384.64,584.779 1386.8,584.799 1388.96,584.819 1391.12,584.839 1393.28,584.858 1395.44,584.878 1397.6,584.897 1399.76,584.916 1401.92,584.934 1404.09,584.953 1406.25,584.971 1408.41,584.989 1410.57,585.007 1412.73,585.025 1414.89,585.042 1417.05,585.06 1419.21,585.077 1421.37,585.094 1423.53,585.111 1425.7,585.127 1427.86,585.144 1430.02,585.16 1432.18,585.177 1434.34,585.193 1436.5,585.208 1438.66,585.224 1440.82,585.24 1442.98,585.255 1445.14,585.27 1447.3,585.285 1449.47,585.3 1451.63,585.315 1453.79,585.33 1455.95,585.344 1458.11,585.359 1460.27,585.373 1462.43,585.387 1464.59,585.401 1466.75,585.415 1468.91,585.428 1471.08,585.442 1473.24,585.455 1475.4,585.469 1477.56,585.482 1479.72,585.495 1481.88,585.508 1484.04,585.52 1486.2,585.533 1488.36,585.546 1490.52,585.558 1492.69,585.57 1494.85,585.582 1497.01,585.594 1499.17,585.606 1501.33,585.618 1503.49,585.63 1505.65,585.642 1507.81,585.653 1509.97,585.664 1512.13,585.676 1514.3,585.687 1516.46,585.698 1518.62,585.709 1520.78,585.72 1522.94,585.73 1525.1,585.741 1527.26,585.752 1529.42,585.762 1531.58,585.772 1533.74,585.782 1535.91,585.793 1538.07,585.803 1540.23,585.813 1542.39,585.822 1544.55,585.832 1546.71,585.842 1548.87,585.851 1551.03,585.861 1553.19,585.87 1555.35,585.879 1557.51,585.888 1559.68,585.897 1561.84,585.906 1564,585.915 1566.16,585.924 1568.32,585.933 1570.48,585.941 1572.64,585.95 1574.8,585.958 1576.96,585.967 1579.12,585.975 1581.29,585.983 1583.45,585.991 1585.61,585.999 1587.77,586.007 1589.93,586.015 1592.09,586.023 1594.25,586.03 1596.41,586.038 1598.57,586.046 1600.73,586.053 1602.9,586.06 1605.06,586.068 1607.22,586.075 1609.38,586.082 1611.54,586.089 1613.7,586.096 1615.86,586.103 1618.02,586.11 1620.18,586.117 1622.34,586.124 1624.51,586.13 1626.67,586.137 1628.83,586.143 1630.99,586.15 1633.15,586.156 1635.31,586.163 1637.47,586.169 1639.63,586.175 1641.79,586.181 1643.95,586.187 1646.12,586.193 1648.28,586.199 1650.44,586.205 1652.6,586.211 1654.76,586.217 1656.92,586.222 1659.08,586.228 1661.24,586.233 1663.4,586.239 1665.56,586.244 1667.72,586.25 1669.89,586.255 1672.05,586.261 1674.21,586.266 1676.37,586.271 1678.53,586.276 1680.69,586.281 1682.85,586.286 1685.01,586.291 1687.17,586.296 1689.33,586.301 1691.5,586.306 1693.66,586.311 1695.82,586.315 1697.98,586.32 1700.14,586.325 1702.3,586.329 1704.46,586.334 1706.62,586.339 1708.78,586.343 1710.94,586.347 1713.11,586.352 1715.27,586.356 1717.43,586.36 1719.59,586.365 1721.75,586.369 1723.91,586.373 1726.07,586.377 1728.23,586.381 1730.39,586.385 1732.55,586.389 1734.72,586.393 1736.88,586.397 1739.04,586.401 1741.2,586.405 1743.36,586.409 1745.52,586.413 1747.68,586.417 1749.84,586.42 1752,586.424 1754.16,586.428 1756.33,586.431 1758.49,586.435 1760.65,586.439 1762.81,586.442 1764.97,586.446 1767.13,586.449 1769.29,586.453 1771.45,586.456 1773.61,586.459 1775.77,586.463 1777.93,586.466 1780.1,586.469 1782.26,586.473 1784.42,586.476 1786.58,586.479 1788.74,586.482 1790.9,586.485 1793.06,586.488 1795.22,586.492 1797.38,586.495 1799.54,586.498 1801.71,586.501 1803.87,586.503 1806.03,586.506 1808.19,586.509 1810.35,586.512 1812.51,586.515 1814.67,586.518 1816.83,586.521 1818.99,586.523 1821.15,586.526 1823.32,586.529 1825.48,586.531 1827.64,586.534 1829.8,586.537 1831.96,586.539 1834.12,586.542 1836.28,586.544 1838.44,586.547 1840.6,586.549 1842.76,586.552 1844.93,586.554 1847.09,586.557 1849.25,586.559 1851.41,586.561 1853.57,586.564 1855.73,586.566 1857.89,586.568 1860.05,586.571 1862.21,586.573 1864.37,586.575 1866.54,586.577 1868.7,586.579 1870.86,586.582 1873.02,586.584 1875.18,586.586 1877.34,586.588 1879.5,586.59 1881.66,586.592 1883.82,586.594 1885.98,586.596 1888.15,586.598 1890.31,586.6 1892.47,586.602 1894.63,586.604 1896.79,586.605 1898.95,586.607 1901.11,586.609 1903.27,586.611 1905.43,586.613 1907.59,586.615 1909.75,586.616 1911.92,586.618 1914.08,586.62 1916.24,586.622 1918.4,586.623 1920.56,586.625 1922.72,586.627 1924.88,586.628 1927.04,586.63 1929.2,586.631 1931.36,586.633 1933.53,586.635 1935.69,586.636 1937.85,586.638 1940.01,586.639 1942.17,586.641 1944.33,586.642 1946.49,586.644 1948.65,586.645 1950.81,586.646 1952.97,586.648 1955.14,586.649 1957.3,586.651 1959.46,586.652 1961.62,586.653 1963.78,586.655 1965.94,586.656 1968.1,586.657 1970.26,586.659 1972.42,586.66 1974.58,586.661 1976.75,586.663 1978.91,586.664 1981.07,586.665 1983.23,586.666 1985.39,586.667 1987.55,586.669 1989.71,586.67 1991.87,586.671 1994.03,586.672 1996.19,586.673 1998.36,586.674 2000.52,586.676 2002.68,586.677 2004.84,586.678 2007,586.679 2009.16,586.68 2011.32,586.681 2013.48,586.682 2015.64,586.683 2017.8,586.684 2019.96,586.685 2022.13,586.686 2024.29,586.687 2026.45,586.688 2028.61,586.69 2030.77,586.691 2032.93,586.692 2035.09,586.693 2037.25,586.693 2039.41,586.694 2041.57,586.695 2043.74,586.696 2045.9,586.697 2048.06,586.698 2050.22,586.699 2052.38,586.7 2054.54,586.701 2056.7,586.702 2058.86,586.703 2061.02,586.704 2063.18,586.705 2065.35,586.706 2067.51,586.706 2069.67,586.707 2071.83,586.708 2073.99,586.709 2076.15,586.71 2078.31,586.711 2080.47,586.712 2082.63,586.712 2084.79,586.713 2086.96,586.714 2089.12,586.715 2091.28,586.716 2093.44,586.716 2095.6,586.717 2097.76,586.718 2099.92,586.719 2102.08,586.719 2104.24,586.72 2106.4,586.721 2108.57,586.722 2110.73,586.722 2112.89,586.723 2115.05,586.724 2117.21,586.724 2119.37,586.725 2121.53,586.726 2123.69,586.726 2125.85,586.727 2128.01,586.728 2130.17,586.728 2132.34,586.729 2134.5,586.73 2136.66,586.73 2138.82,586.731 2140.98,586.732 2143.14,586.732 2145.3,586.733 2147.46,586.733 2149.62,586.734 2151.78,586.735 2153.95,586.735 2156.11,586.736 2158.27,586.736 2160.43,586.737 2162.59,586.738 2164.75,586.738 2166.91,586.739 2169.07,586.739 2171.23,586.74 2173.39,586.74 2175.56,586.741 2177.72,586.741 2179.88,586.742 2182.04,586.742 2184.2,586.743 2186.36,586.743 2188.52,586.744 2190.68,586.744 2192.84,586.745 2195,586.745 2197.17,586.746 2199.33,586.746 2201.49,586.747 2203.65,586.747 2205.81,586.748 2207.97,586.748 2210.13,586.748 2212.29,586.749 2214.45,586.749 2216.61,586.75 2218.78,586.75 2220.94,586.751 2223.1,586.751 2225.26,586.751 2227.42,586.752 2229.58,586.752 2231.74,586.753 2233.9,586.753 2236.06,586.753 2238.22,586.754 2240.38,586.754 2242.55,586.755 2244.71,586.755 2246.87,586.755 2249.03,586.756 2251.19,586.756 2253.35,586.756 2255.51,586.757 2257.67,586.757 2259.83,586.757 2261.99,586.758 2264.16,586.758 2266.32,586.758 2268.48,586.759 2270.64,586.759 2272.8,586.759 2274.96,586.76 2277.12,586.76 2279.28,586.76 2281.44,586.761 2283.6,586.761 2285.77,586.761 2287.93,586.761 2290.09,586.762 2292.25,586.762 2294.41,586.762 2296.57,586.763 2298.73,586.763 2300.89,586.763 2303.05,586.764 2305.21,586.764 2307.38,586.764 2309.54,586.764 2311.7,586.765 2313.86,586.765 2316.02,586.765 2318.18,586.765 2320.34,586.766 2322.5,586.766 2324.66,586.766 2326.82,586.766 2328.99,586.767 2331.15,586.767 2333.31,586.767 2335.47,586.767 2337.63,586.768 2339.79,586.768 2341.95,586.768 2344.11,586.768 2346.27,586.769 2348.43,586.769 2350.59,586.769 2352.76,586.769 "/>
<polyline clip-path="url(#clip612)" style="stroke:#e26f46; stroke-linecap:round; stroke-linejoin:round; stroke-width:4; stroke-opacity:1; fill:none" points="193.936,1384.24 196.097,1377.5 198.258,1370.82 200.419,1364.19 202.58,1357.63 204.741,1351.13 206.902,1344.68 209.063,1338.29 211.224,1331.96 213.385,1325.68 215.546,1319.46 217.707,1313.29 219.868,1307.18 222.029,1301.12 224.19,1295.12 226.351,1289.17 228.512,1283.27 230.673,1277.43 232.834,1271.63 234.995,1265.89 237.156,1260.2 239.317,1254.56 241.478,1248.96 243.639,1243.42 245.8,1237.93 247.961,1232.48 250.122,1227.09 252.282,1221.74 254.443,1216.43 256.604,1211.18 258.765,1205.97 260.926,1200.81 263.087,1195.69 265.248,1190.61 267.409,1185.58 269.57,1180.6 271.731,1175.66 273.892,1170.76 276.053,1165.91 278.214,1161.1 280.375,1156.33 282.536,1151.6 284.697,1146.91 286.858,1142.27 289.019,1137.66 291.18,1133.1 293.341,1128.57 295.502,1124.09 297.663,1119.64 299.824,1115.24 301.985,1110.87 304.146,1106.54 306.307,1102.25 308.468,1097.99 310.629,1093.77 312.79,1089.59 314.951,1085.45 317.112,1081.34 319.273,1077.27 321.434,1073.23 323.595,1069.23 325.756,1065.26 327.917,1061.33 330.078,1057.43 332.239,1053.57 334.4,1049.73 336.561,1045.94 338.722,1042.17 340.883,1038.44 343.044,1034.74 345.205,1031.07 347.366,1027.44 349.527,1023.83 351.688,1020.26 353.849,1016.72 356.01,1013.2 358.171,1009.72 360.332,1006.27 362.493,1002.85 364.653,999.459 366.814,996.096 368.975,992.762 371.136,989.458 373.297,986.181 375.458,982.933 377.619,979.713 379.78,976.52 381.941,973.355 384.102,970.218 386.263,967.107 388.424,964.023 390.585,960.965 392.746,957.934 394.907,954.929 397.068,951.949 399.229,948.995 401.39,946.067 403.551,943.164 405.712,940.285 407.873,937.431 410.034,934.602 412.195,931.797 414.356,929.015 416.517,926.258 418.678,923.524 420.839,920.814 423,918.126 425.161,915.462 427.322,912.82 429.483,910.201 431.644,907.604 433.805,905.03 435.966,902.477 438.127,899.946 440.288,897.436 442.449,894.948 444.61,892.481 446.771,890.035 448.932,887.61 451.093,885.205 453.254,882.821 455.415,880.457 457.576,878.112 459.737,875.788 461.898,873.484 464.059,871.199 466.22,868.933 468.381,866.687 470.542,864.459 472.703,862.25 474.864,860.06 477.024,857.889 479.185,855.736 481.346,853.601 483.507,851.484 485.668,849.384 487.829,847.303 489.99,845.239 492.151,843.193 494.312,841.163 496.473,839.151 498.634,837.156 500.795,835.178 502.956,833.216 505.117,831.27 507.278,829.341 509.439,827.428 511.6,825.532 513.761,823.651 515.922,821.786 518.083,819.936 520.244,818.102 522.405,816.283 524.566,814.48 526.727,812.692 528.888,810.918 531.049,809.159 533.21,807.415 535.371,805.686 537.532,803.971 539.693,802.27 541.854,800.584 544.015,798.911 546.176,797.253 548.337,795.608 550.498,793.977 552.659,792.359 554.82,790.755 556.981,789.164 559.142,787.586 561.303,786.022 563.464,784.47 565.625,782.931 567.786,781.405 569.947,779.892 572.108,778.391 574.269,776.903 576.43,775.426 578.591,773.963 580.752,772.511 582.913,771.071 585.074,769.643 587.235,768.227 589.396,766.822 591.556,765.429 593.717,764.048 595.878,762.678 598.039,761.319 600.2,759.972 602.361,758.635 604.522,757.31 606.683,755.995 608.844,754.692 611.005,753.399 613.166,752.116 615.327,750.844 617.488,749.583 619.649,748.332 621.81,747.091 623.971,745.86 626.132,744.64 628.293,743.429 630.454,742.228 632.615,741.037 634.776,739.856 636.937,738.684 639.098,737.522 641.259,736.37 643.42,735.227 645.581,734.093 647.742,732.968 649.903,731.853 652.064,730.746 654.225,729.649 656.386,728.56 658.547,727.481 660.708,726.41 662.869,725.347 665.03,724.294 667.191,723.249 669.352,722.212 671.513,721.184 673.674,720.164 675.835,719.152 677.996,718.148 680.157,717.153 682.318,716.166 684.479,715.186 686.64,714.215 688.801,713.251 690.962,712.295 693.123,711.347 695.284,710.406 697.445,709.473 699.606,708.547 701.767,707.629 703.927,706.719 706.088,705.815 708.249,704.919 710.41,704.03 712.571,703.148 714.732,702.274 716.893,701.406 719.054,700.545 721.215,699.691 723.376,698.844 725.537,698.004 727.698,697.171 729.859,696.344 732.02,695.524 734.181,694.71 736.342,693.903 738.503,693.102 740.664,692.308 742.825,691.52 744.986,690.738 747.147,689.963 749.308,689.193 751.469,688.43 753.63,687.673 755.791,686.922 757.952,686.177 760.113,685.438 762.274,684.704 764.435,683.977 766.596,683.255 768.757,682.539 770.918,681.828 773.079,681.124 775.24,680.424 777.401,679.731 779.562,679.042 781.723,678.36 783.884,677.682 786.045,677.01 788.206,676.343 790.367,675.682 792.528,675.025 794.689,674.374 796.85,673.728 799.011,673.087 801.172,672.451 803.333,671.82 805.494,671.194 807.655,670.573 809.816,669.957 811.977,669.345 814.138,668.739 816.298,668.137 818.459,667.539 820.62,666.947 822.781,666.359 824.942,665.776 827.103,665.197 829.264,664.623 831.425,664.053 833.586,663.488 835.747,662.927 837.908,662.37 840.069,661.818 842.23,661.27 844.391,660.727 846.552,660.187 848.713,659.652 850.874,659.121 853.035,658.594 855.196,658.072 857.357,657.553 859.518,657.038 861.679,656.527 863.84,656.021 866.001,655.518 868.162,655.019 870.323,654.524 872.484,654.033 874.645,653.545 876.806,653.062 878.967,652.582 881.128,652.106 883.289,651.633 885.45,651.164 887.611,650.699 889.772,650.237 891.933,649.779 894.094,649.324 896.255,648.873 898.416,648.425 900.577,647.981 902.738,647.54 904.899,647.103 907.06,646.669 909.221,646.238 911.382,645.811 913.543,645.386 915.704,644.965 917.865,644.548 920.026,644.133 922.187,643.722 924.348,643.313 926.509,642.908 928.669,642.506 930.83,642.107 932.991,641.711 935.152,641.318 937.313,640.928 939.474,640.541 941.635,640.157 943.796,639.776 945.957,639.397 948.118,639.022 950.279,638.649 952.44,638.28 954.601,637.913 956.762,637.548 958.923,637.187 961.084,636.828 963.245,636.472 965.406,636.119 967.567,635.768 969.728,635.42 971.889,635.075 974.05,634.732 976.211,634.392 978.372,634.055 980.533,633.719 982.694,633.387 984.855,633.057 987.016,632.73 989.177,632.404 991.338,632.082 993.499,631.762 995.66,631.444 997.821,631.129 999.982,630.816 1002.14,630.505 1004.3,630.197 1006.46,629.891 1008.63,629.587 1010.79,629.286 1012.95,628.987 1015.11,628.69 1017.27,628.395 1019.43,628.103 1021.59,627.812 1023.75,627.524 1025.91,627.238 1028.07,626.955 1030.24,626.673 1032.4,626.393 1034.56,626.116 1036.72,625.841 1038.88,625.567 1041.04,625.296 1043.2,625.026 1045.36,624.759 1047.52,624.494 1049.68,624.23 1051.85,623.969 1054.01,623.71 1056.17,623.452 1058.33,623.196 1060.49,622.943 1062.65,622.691 1064.81,622.441 1066.97,622.193 1069.13,621.946 1071.29,621.702 1073.46,621.459 1075.62,621.218 1077.78,620.979 1079.94,620.741 1082.1,620.506 1084.26,620.272 1086.42,620.039 1088.58,619.809 1090.74,619.58 1092.9,619.353 1095.07,619.127 1097.23,618.903 1099.39,618.681 1101.55,618.46 1103.71,618.241 1105.87,618.024 1108.03,617.808 1110.19,617.594 1112.35,617.381 1114.51,617.17 1116.67,616.96 1118.84,616.752 1121,616.546 1123.16,616.341 1125.32,616.137 1127.48,615.935 1129.64,615.734 1131.8,615.535 1133.96,615.337 1136.12,615.141 1138.28,614.946 1140.45,614.753 1142.61,614.561 1144.77,614.37 1146.93,614.181 1149.09,613.993 1151.25,613.807 1153.41,613.622 1155.57,613.438 1157.73,613.255 1159.89,613.074 1162.06,612.894 1164.22,612.716 1166.38,612.539 1168.54,612.363 1170.7,612.188 1172.86,612.015 1175.02,611.842 1177.18,611.672 1179.34,611.502 1181.5,611.333 1183.67,611.166 1185.83,611 1187.99,610.835 1190.15,610.672 1192.31,610.509 1194.47,610.348 1196.63,610.188 1198.79,610.029 1200.95,609.871 1203.11,609.715 1205.28,609.559 1207.44,609.405 1209.6,609.251 1211.76,609.099 1213.92,608.948 1216.08,608.798 1218.24,608.649 1220.4,608.501 1222.56,608.354 1224.72,608.208 1226.88,608.064 1229.05,607.92 1231.21,607.777 1233.37,607.636 1235.53,607.495 1237.69,607.355 1239.85,607.216 1242.01,607.079 1244.17,606.942 1246.33,606.806 1248.49,606.672 1250.66,606.538 1252.82,606.405 1254.98,606.273 1257.14,606.142 1259.3,606.012 1261.46,605.883 1263.62,605.754 1265.78,605.627 1267.94,605.5 1270.1,605.375 1272.27,605.25 1274.43,605.126 1276.59,605.003 1278.75,604.881 1280.91,604.76 1283.07,604.64 1285.23,604.52 1287.39,604.401 1289.55,604.283 1291.71,604.166 1293.88,604.05 1296.04,603.935 1298.2,603.82 1300.36,603.706 1302.52,603.593 1304.68,603.481 1306.84,603.369 1309,603.259 1311.16,603.149 1313.32,603.04 1315.49,602.931 1317.65,602.824 1319.81,602.717 1321.97,602.611 1324.13,602.505 1326.29,602.401 1328.45,602.297 1330.61,602.193 1332.77,602.091 1334.93,601.989 1337.09,601.888 1339.26,601.788 1341.42,601.688 1343.58,601.589 1345.74,601.491 1347.9,601.393 1350.06,601.297 1352.22,601.2 1354.38,601.105 1356.54,601.01 1358.7,600.916 1360.87,600.822 1363.03,600.729 1365.19,600.637 1367.35,600.546 1369.51,600.455 1371.67,600.364 1373.83,600.275 1375.99,600.186 1378.15,600.097 1380.31,600.009 1382.48,599.922 1384.64,599.836 1386.8,599.75 1388.96,599.664 1391.12,599.579 1393.28,599.495 1395.44,599.412 1397.6,599.328 1399.76,599.246 1401.92,599.164 1404.09,599.083 1406.25,599.002 1408.41,598.922 1410.57,598.842 1412.73,598.763 1414.89,598.684 1417.05,598.606 1419.21,598.529 1421.37,598.452 1423.53,598.376 1425.7,598.3 1427.86,598.224 1430.02,598.149 1432.18,598.075 1434.34,598.001 1436.5,597.928 1438.66,597.855 1440.82,597.783 1442.98,597.711 1445.14,597.64 1447.3,597.569 1449.47,597.498 1451.63,597.429 1453.79,597.359 1455.95,597.29 1458.11,597.222 1460.27,597.154 1462.43,597.086 1464.59,597.019 1466.75,596.952 1468.91,596.886 1471.08,596.821 1473.24,596.755 1475.4,596.69 1477.56,596.626 1479.72,596.562 1481.88,596.498 1484.04,596.435 1486.2,596.373 1488.36,596.31 1490.52,596.248 1492.69,596.187 1494.85,596.126 1497.01,596.065 1499.17,596.005 1501.33,595.945 1503.49,595.886 1505.65,595.827 1507.81,595.768 1509.97,595.71 1512.13,595.652 1514.3,595.594 1516.46,595.537 1518.62,595.481 1520.78,595.424 1522.94,595.368 1525.1,595.313 1527.26,595.258 1529.42,595.203 1531.58,595.148 1533.74,595.094 1535.91,595.04 1538.07,594.987 1540.23,594.934 1542.39,594.881 1544.55,594.829 1546.71,594.777 1548.87,594.725 1551.03,594.674 1553.19,594.623 1555.35,594.573 1557.51,594.522 1559.68,594.472 1561.84,594.423 1564,594.374 1566.16,594.325 1568.32,594.276 1570.48,594.228 1572.64,594.18 1574.8,594.132 1576.96,594.085 1579.12,594.038 1581.29,593.992 1583.45,593.945 1585.61,593.899 1587.77,593.853 1589.93,593.808 1592.09,593.763 1594.25,593.718 1596.41,593.674 1598.57,593.629 1600.73,593.586 1602.9,593.542 1605.06,593.499 1607.22,593.456 1609.38,593.413 1611.54,593.37 1613.7,593.328 1615.86,593.286 1618.02,593.245 1620.18,593.204 1622.34,593.163 1624.51,593.122 1626.67,593.081 1628.83,593.041 1630.99,593.001 1633.15,592.961 1635.31,592.922 1637.47,592.883 1639.63,592.844 1641.79,592.805 1643.95,592.767 1646.12,592.729 1648.28,592.691 1650.44,592.653 1652.6,592.616 1654.76,592.579 1656.92,592.542 1659.08,592.505 1661.24,592.469 1663.4,592.433 1665.56,592.397 1667.72,592.361 1669.89,592.326 1672.05,592.291 1674.21,592.256 1676.37,592.221 1678.53,592.187 1680.69,592.152 1682.85,592.118 1685.01,592.085 1687.17,592.051 1689.33,592.018 1691.5,591.984 1693.66,591.951 1695.82,591.919 1697.98,591.886 1700.14,591.854 1702.3,591.822 1704.46,591.79 1706.62,591.758 1708.78,591.727 1710.94,591.696 1713.11,591.665 1715.27,591.634 1717.43,591.603 1719.59,591.573 1721.75,591.542 1723.91,591.512 1726.07,591.482 1728.23,591.453 1730.39,591.423 1732.55,591.394 1734.72,591.365 1736.88,591.336 1739.04,591.307 1741.2,591.279 1743.36,591.25 1745.52,591.222 1747.68,591.194 1749.84,591.166 1752,591.139 1754.16,591.111 1756.33,591.084 1758.49,591.057 1760.65,591.03 1762.81,591.003 1764.97,590.976 1767.13,590.95 1769.29,590.924 1771.45,590.897 1773.61,590.871 1775.77,590.846 1777.93,590.82 1780.1,590.795 1782.26,590.769 1784.42,590.744 1786.58,590.719 1788.74,590.694 1790.9,590.67 1793.06,590.645 1795.22,590.621 1797.38,590.597 1799.54,590.573 1801.71,590.549 1803.87,590.525 1806.03,590.502 1808.19,590.478 1810.35,590.455 1812.51,590.432 1814.67,590.409 1816.83,590.386 1818.99,590.364 1821.15,590.341 1823.32,590.319 1825.48,590.296 1827.64,590.274 1829.8,590.252 1831.96,590.231 1834.12,590.209 1836.28,590.188 1838.44,590.166 1840.6,590.145 1842.76,590.124 1844.93,590.103 1847.09,590.082 1849.25,590.062 1851.41,590.041 1853.57,590.021 1855.73,590 1857.89,589.98 1860.05,589.96 1862.21,589.94 1864.37,589.921 1866.54,589.901 1868.7,589.881 1870.86,589.862 1873.02,589.843 1875.18,589.824 1877.34,589.805 1879.5,589.786 1881.66,589.767 1883.82,589.749 1885.98,589.73 1888.15,589.712 1890.31,589.693 1892.47,589.675 1894.63,589.657 1896.79,589.639 1898.95,589.622 1901.11,589.604 1903.27,589.586 1905.43,589.569 1907.59,589.552 1909.75,589.535 1911.92,589.517 1914.08,589.5 1916.24,589.484 1918.4,589.467 1920.56,589.45 1922.72,589.434 1924.88,589.417 1927.04,589.401 1929.2,589.385 1931.36,589.369 1933.53,589.352 1935.69,589.337 1937.85,589.321 1940.01,589.305 1942.17,589.289 1944.33,589.274 1946.49,589.259 1948.65,589.243 1950.81,589.228 1952.97,589.213 1955.14,589.198 1957.3,589.183 1959.46,589.168 1961.62,589.154 1963.78,589.139 1965.94,589.124 1968.1,589.11 1970.26,589.096 1972.42,589.081 1974.58,589.067 1976.75,589.053 1978.91,589.039 1981.07,589.025 1983.23,589.011 1985.39,588.998 1987.55,588.984 1989.71,588.97 1991.87,588.957 1994.03,588.944 1996.19,588.93 1998.36,588.917 2000.52,588.904 2002.68,588.891 2004.84,588.878 2007,588.865 2009.16,588.852 2011.32,588.84 2013.48,588.827 2015.64,588.814 2017.8,588.802 2019.96,588.789 2022.13,588.777 2024.29,588.765 2026.45,588.753 2028.61,588.741 2030.77,588.728 2032.93,588.717 2035.09,588.705 2037.25,588.693 2039.41,588.681 2041.57,588.669 2043.74,588.658 2045.9,588.646 2048.06,588.635 2050.22,588.623 2052.38,588.612 2054.54,588.601 2056.7,588.59 2058.86,588.578 2061.02,588.567 2063.18,588.556 2065.35,588.545 2067.51,588.535 2069.67,588.524 2071.83,588.513 2073.99,588.502 2076.15,588.492 2078.31,588.481 2080.47,588.471 2082.63,588.46 2084.79,588.45 2086.96,588.44 2089.12,588.43 2091.28,588.42 2093.44,588.41 2095.6,588.4 2097.76,588.39 2099.92,588.38 2102.08,588.37 2104.24,588.36 2106.4,588.35 2108.57,588.341 2110.73,588.331 2112.89,588.322 2115.05,588.312 2117.21,588.303 2119.37,588.294 2121.53,588.284 2123.69,588.275 2125.85,588.266 2128.01,588.257 2130.17,588.248 2132.34,588.239 2134.5,588.23 2136.66,588.221 2138.82,588.212 2140.98,588.203 2143.14,588.195 2145.3,588.186 2147.46,588.177 2149.62,588.169 2151.78,588.16 2153.95,588.152 2156.11,588.144 2158.27,588.135 2160.43,588.127 2162.59,588.119 2164.75,588.111 2166.91,588.102 2169.07,588.094 2171.23,588.086 2173.39,588.078 2175.56,588.071 2177.72,588.063 2179.88,588.055 2182.04,588.047 2184.2,588.039 2186.36,588.032 2188.52,588.024 2190.68,588.017 2192.84,588.009 2195,588.002 2197.17,587.994 2199.33,587.987 2201.49,587.979 2203.65,587.972 2205.81,587.965 2207.97,587.958 2210.13,587.951 2212.29,587.943 2214.45,587.936 2216.61,587.929 2218.78,587.922 2220.94,587.915 2223.1,587.909 2225.26,587.902 2227.42,587.895 2229.58,587.888 2231.74,587.881 2233.9,587.875 2236.06,587.868 2238.22,587.862 2240.38,587.855 2242.55,587.849 2244.71,587.842 2246.87,587.836 2249.03,587.829 2251.19,587.823 2253.35,587.817 2255.51,587.81 2257.67,587.804 2259.83,587.798 2261.99,587.792 2264.16,587.786 2266.32,587.78 2268.48,587.774 2270.64,587.768 2272.8,587.762 2274.96,587.756 2277.12,587.75 2279.28,587.744 2281.44,587.738 2283.6,587.733 2285.77,587.727 2287.93,587.721 2290.09,587.716 2292.25,587.71 2294.41,587.704 2296.57,587.699 2298.73,587.693 2300.89,587.688 2303.05,587.682 2305.21,587.677 2307.38,587.671 2309.54,587.666 2311.7,587.661 2313.86,587.655 2316.02,587.65 2318.18,587.645 2320.34,587.64 2322.5,587.635 2324.66,587.63 2326.82,587.624 2328.99,587.619 2331.15,587.614 2333.31,587.609 2335.47,587.604 2337.63,587.599 2339.79,587.594 2341.95,587.59 2344.11,587.585 2346.27,587.58 2348.43,587.575 2350.59,587.57 2352.76,587.566 "/>
<path clip-path="url(#clip610)" d="M1805.52 248.629 L2280.8 248.629 L2280.8 93.1086 L1805.52 93.1086  Z" fill="#ffffff" fill-rule="evenodd" fill-opacity="1"/>
<polyline clip-path="url(#clip610)" style="stroke:#000000; stroke-linecap:round; stroke-linejoin:round; stroke-width:4; stroke-opacity:1; fill:none" points="1805.52,248.629 2280.8,248.629 2280.8,93.1086 1805.52,93.1086 1805.52,248.629 "/>
<polyline clip-path="url(#clip610)" style="stroke:#009af9; stroke-linecap:round; stroke-linejoin:round; stroke-width:4; stroke-opacity:1; fill:none" points="1829.5,144.949 1973.42,144.949 "/>
<path clip-path="url(#clip610)" d="M1997.41 136.303 L2001.93 136.303 L2010.03 158.062 L2018.13 136.303 L2022.64 136.303 L2012.92 162.229 L2007.13 162.229 L1997.41 136.303 Z" fill="#000000" fill-rule="nonzero" fill-opacity="1" /><path clip-path="url(#clip610)" d="M2029.93 158.293 L2037.57 158.293 L2037.57 131.928 L2029.26 133.595 L2029.26 129.335 L2037.53 127.669 L2042.2 127.669 L2042.2 158.293 L2049.84 158.293 L2049.84 162.229 L2029.93 162.229 L2029.93 158.293 Z" fill="#000000" fill-rule="nonzero" fill-opacity="1" /><path clip-path="url(#clip610)" d="M2067.94 145.585 L2067.94 152.807 L2076.07 152.807 L2076.07 155.006 L2067.94 155.006 L2067.94 162.229 L2065.51 162.229 L2065.51 155.006 L2057.39 155.006 L2057.39 152.807 L2065.51 152.807 L2065.51 145.585 L2067.94 145.585 Z" fill="#000000" fill-rule="nonzero" fill-opacity="1" /><path clip-path="url(#clip610)" d="M2100.24 137.067 L2100.24 141.094 Q2098.43 140.169 2096.49 139.706 Q2094.54 139.243 2092.46 139.243 Q2089.29 139.243 2087.69 140.215 Q2086.11 141.187 2086.11 143.131 Q2086.11 144.613 2087.25 145.469 Q2088.38 146.303 2091.81 147.067 L2093.27 147.391 Q2097.8 148.363 2099.7 150.145 Q2101.62 151.905 2101.62 155.076 Q2101.62 158.687 2098.75 160.793 Q2095.91 162.9 2090.91 162.9 Q2088.82 162.9 2086.55 162.483 Q2084.31 162.09 2081.81 161.28 L2081.81 156.881 Q2084.17 158.108 2086.46 158.733 Q2088.75 159.335 2091 159.335 Q2094.01 159.335 2095.63 158.317 Q2097.25 157.275 2097.25 155.4 Q2097.25 153.664 2096.07 152.738 Q2094.91 151.812 2090.95 150.956 L2089.47 150.608 Q2085.51 149.775 2083.75 148.062 Q2081.99 146.326 2081.99 143.317 Q2081.99 139.659 2084.59 137.669 Q2087.18 135.678 2091.95 135.678 Q2094.31 135.678 2096.39 136.025 Q2098.48 136.372 2100.24 137.067 Z" fill="#000000" fill-rule="nonzero" fill-opacity="1" /><path clip-path="url(#clip610)" d="M2112.62 128.942 L2112.62 136.303 L2121.39 136.303 L2121.39 139.613 L2112.62 139.613 L2112.62 153.687 Q2112.62 156.858 2113.48 157.761 Q2114.36 158.664 2117.02 158.664 L2121.39 158.664 L2121.39 162.229 L2117.02 162.229 Q2112.09 162.229 2110.21 160.4 Q2108.34 158.548 2108.34 153.687 L2108.34 139.613 L2105.21 139.613 L2105.21 136.303 L2108.34 136.303 L2108.34 128.942 L2112.62 128.942 Z" fill="#000000" fill-rule="nonzero" fill-opacity="1" /><path clip-path="url(#clip610)" d="M2137.04 139.289 Q2133.61 139.289 2131.62 141.974 Q2129.63 144.636 2129.63 149.289 Q2129.63 153.942 2131.6 156.627 Q2133.59 159.289 2137.04 159.289 Q2140.44 159.289 2142.43 156.604 Q2144.42 153.918 2144.42 149.289 Q2144.42 144.682 2142.43 141.997 Q2140.44 139.289 2137.04 139.289 M2137.04 135.678 Q2142.6 135.678 2145.77 139.289 Q2148.94 142.9 2148.94 149.289 Q2148.94 155.655 2145.77 159.289 Q2142.6 162.9 2137.04 162.9 Q2131.46 162.9 2128.29 159.289 Q2125.14 155.655 2125.14 149.289 Q2125.14 142.9 2128.29 139.289 Q2131.46 135.678 2137.04 135.678 Z" fill="#000000" fill-rule="nonzero" fill-opacity="1" /><path clip-path="url(#clip610)" d="M2171.02 140.284 Q2170.3 139.868 2169.45 139.682 Q2168.61 139.474 2167.6 139.474 Q2163.98 139.474 2162.04 141.835 Q2160.12 144.173 2160.12 148.571 L2160.12 162.229 L2155.84 162.229 L2155.84 136.303 L2160.12 136.303 L2160.12 140.331 Q2161.46 137.969 2163.61 136.835 Q2165.77 135.678 2168.85 135.678 Q2169.29 135.678 2169.82 135.747 Q2170.35 135.794 2171 135.909 L2171.02 140.284 Z" fill="#000000" fill-rule="nonzero" fill-opacity="1" /><path clip-path="url(#clip610)" d="M2187.27 149.196 Q2182.11 149.196 2180.12 150.377 Q2178.13 151.557 2178.13 154.405 Q2178.13 156.673 2179.61 158.016 Q2181.11 159.335 2183.68 159.335 Q2187.23 159.335 2189.36 156.835 Q2191.51 154.312 2191.51 150.145 L2191.51 149.196 L2187.27 149.196 M2195.77 147.437 L2195.77 162.229 L2191.51 162.229 L2191.51 158.293 Q2190.05 160.655 2187.87 161.789 Q2185.7 162.9 2182.55 162.9 Q2178.57 162.9 2176.21 160.678 Q2173.87 158.432 2173.87 154.682 Q2173.87 150.307 2176.79 148.085 Q2179.73 145.863 2185.54 145.863 L2191.51 145.863 L2191.51 145.446 Q2191.51 142.507 2189.56 140.909 Q2187.64 139.289 2184.15 139.289 Q2181.92 139.289 2179.82 139.821 Q2177.71 140.354 2175.77 141.419 L2175.77 137.483 Q2178.11 136.581 2180.3 136.141 Q2182.5 135.678 2184.59 135.678 Q2190.21 135.678 2192.99 138.594 Q2195.77 141.511 2195.77 147.437 Z" fill="#000000" fill-rule="nonzero" fill-opacity="1" /><path clip-path="url(#clip610)" d="M2221.6 148.965 Q2221.6 144.335 2219.68 141.789 Q2217.78 139.243 2214.33 139.243 Q2210.91 139.243 2208.98 141.789 Q2207.09 144.335 2207.09 148.965 Q2207.09 153.571 2208.98 156.118 Q2210.91 158.664 2214.33 158.664 Q2217.78 158.664 2219.68 156.118 Q2221.6 153.571 2221.6 148.965 M2225.86 159.011 Q2225.86 165.631 2222.92 168.849 Q2219.98 172.09 2213.92 172.09 Q2211.67 172.09 2209.68 171.742 Q2207.69 171.418 2205.81 170.724 L2205.81 166.58 Q2207.69 167.599 2209.52 168.085 Q2211.35 168.571 2213.24 168.571 Q2217.43 168.571 2219.52 166.372 Q2221.6 164.196 2221.6 159.775 L2221.6 157.668 Q2220.28 159.96 2218.22 161.094 Q2216.16 162.229 2213.29 162.229 Q2208.52 162.229 2205.6 158.594 Q2202.69 154.96 2202.69 148.965 Q2202.69 142.946 2205.6 139.312 Q2208.52 135.678 2213.29 135.678 Q2216.16 135.678 2218.22 136.812 Q2220.28 137.946 2221.6 140.238 L2221.6 136.303 L2225.86 136.303 L2225.86 159.011 Z" fill="#000000" fill-rule="nonzero" fill-opacity="1" /><path clip-path="url(#clip610)" d="M2256.81 148.201 L2256.81 150.284 L2237.23 150.284 Q2237.5 154.682 2239.86 156.997 Q2242.25 159.289 2246.48 159.289 Q2248.94 159.289 2251.23 158.687 Q2253.54 158.085 2255.81 156.881 L2255.81 160.909 Q2253.52 161.881 2251.11 162.391 Q2248.71 162.9 2246.23 162.9 Q2240.03 162.9 2236.39 159.289 Q2232.78 155.678 2232.78 149.52 Q2232.78 143.155 2236.21 139.428 Q2239.66 135.678 2245.49 135.678 Q2250.72 135.678 2253.75 139.057 Q2256.81 142.414 2256.81 148.201 M2252.55 146.951 Q2252.5 143.456 2250.58 141.372 Q2248.68 139.289 2245.54 139.289 Q2241.97 139.289 2239.82 141.303 Q2237.69 143.317 2237.36 146.974 L2252.55 146.951 Z" fill="#000000" fill-rule="nonzero" fill-opacity="1" /><polyline clip-path="url(#clip610)" style="stroke:#e26f46; stroke-linecap:round; stroke-linejoin:round; stroke-width:4; stroke-opacity:1; fill:none" points="1829.5,196.789 1973.42,196.789 "/>
<path clip-path="url(#clip610)" d="M1997.41 188.143 L2001.93 188.143 L2010.03 209.902 L2018.13 188.143 L2022.64 188.143 L2012.92 214.069 L2007.13 214.069 L1997.41 188.143 Z" fill="#000000" fill-rule="nonzero" fill-opacity="1" /><path clip-path="url(#clip610)" d="M2029.17 179.509 L2047.53 179.509 L2047.53 183.444 L2033.45 183.444 L2033.45 191.916 Q2034.47 191.569 2035.49 191.407 Q2036.51 191.222 2037.53 191.222 Q2043.31 191.222 2046.69 194.393 Q2050.07 197.564 2050.07 202.981 Q2050.07 208.559 2046.6 211.661 Q2043.13 214.74 2036.81 214.74 Q2034.63 214.74 2032.37 214.37 Q2030.12 213.999 2027.71 213.258 L2027.71 208.559 Q2029.8 209.694 2032.02 210.249 Q2034.24 210.805 2036.72 210.805 Q2040.72 210.805 2043.06 208.698 Q2045.4 206.592 2045.4 202.981 Q2045.4 199.37 2043.06 197.263 Q2040.72 195.157 2036.72 195.157 Q2034.84 195.157 2032.97 195.573 Q2031.12 195.99 2029.17 196.87 L2029.17 179.509 Z" fill="#000000" fill-rule="nonzero" fill-opacity="1" /><path clip-path="url(#clip610)" d="M2067.94 197.425 L2067.94 204.647 L2076.07 204.647 L2076.07 206.846 L2067.94 206.846 L2067.94 214.069 L2065.51 214.069 L2065.51 206.846 L2057.39 206.846 L2057.39 204.647 L2065.51 204.647 L2065.51 197.425 L2067.94 197.425 Z" fill="#000000" fill-rule="nonzero" fill-opacity="1" /><path clip-path="url(#clip610)" d="M2100.24 188.907 L2100.24 192.934 Q2098.43 192.009 2096.49 191.546 Q2094.54 191.083 2092.46 191.083 Q2089.29 191.083 2087.69 192.055 Q2086.11 193.027 2086.11 194.971 Q2086.11 196.453 2087.25 197.309 Q2088.38 198.143 2091.81 198.907 L2093.27 199.231 Q2097.8 200.203 2099.7 201.985 Q2101.62 203.745 2101.62 206.916 Q2101.62 210.527 2098.75 212.633 Q2095.91 214.74 2090.91 214.74 Q2088.82 214.74 2086.55 214.323 Q2084.31 213.93 2081.81 213.12 L2081.81 208.721 Q2084.17 209.948 2086.46 210.573 Q2088.75 211.175 2091 211.175 Q2094.01 211.175 2095.63 210.157 Q2097.25 209.115 2097.25 207.24 Q2097.25 205.504 2096.07 204.578 Q2094.91 203.652 2090.95 202.796 L2089.47 202.448 Q2085.51 201.615 2083.75 199.902 Q2081.99 198.166 2081.99 195.157 Q2081.99 191.499 2084.59 189.509 Q2087.18 187.518 2091.95 187.518 Q2094.31 187.518 2096.39 187.865 Q2098.48 188.212 2100.24 188.907 Z" fill="#000000" fill-rule="nonzero" fill-opacity="1" /><path clip-path="url(#clip610)" d="M2112.62 180.782 L2112.62 188.143 L2121.39 188.143 L2121.39 191.453 L2112.62 191.453 L2112.62 205.527 Q2112.62 208.698 2113.48 209.601 Q2114.36 210.504 2117.02 210.504 L2121.39 210.504 L2121.39 214.069 L2117.02 214.069 Q2112.09 214.069 2110.21 212.24 Q2108.34 210.388 2108.34 205.527 L2108.34 191.453 L2105.21 191.453 L2105.21 188.143 L2108.34 188.143 L2108.34 180.782 L2112.62 180.782 Z" fill="#000000" fill-rule="nonzero" fill-opacity="1" /><path clip-path="url(#clip610)" d="M2137.04 191.129 Q2133.61 191.129 2131.62 193.814 Q2129.63 196.476 2129.63 201.129 Q2129.63 205.782 2131.6 208.467 Q2133.59 211.129 2137.04 211.129 Q2140.44 211.129 2142.43 208.444 Q2144.42 205.758 2144.42 201.129 Q2144.42 196.522 2142.43 193.837 Q2140.44 191.129 2137.04 191.129 M2137.04 187.518 Q2142.6 187.518 2145.77 191.129 Q2148.94 194.74 2148.94 201.129 Q2148.94 207.495 2145.77 211.129 Q2142.6 214.74 2137.04 214.74 Q2131.46 214.74 2128.29 211.129 Q2125.14 207.495 2125.14 201.129 Q2125.14 194.74 2128.29 191.129 Q2131.46 187.518 2137.04 187.518 Z" fill="#000000" fill-rule="nonzero" fill-opacity="1" /><path clip-path="url(#clip610)" d="M2171.02 192.124 Q2170.3 191.708 2169.45 191.522 Q2168.61 191.314 2167.6 191.314 Q2163.98 191.314 2162.04 193.675 Q2160.12 196.013 2160.12 200.411 L2160.12 214.069 L2155.84 214.069 L2155.84 188.143 L2160.12 188.143 L2160.12 192.171 Q2161.46 189.809 2163.61 188.675 Q2165.77 187.518 2168.85 187.518 Q2169.29 187.518 2169.82 187.587 Q2170.35 187.634 2171 187.749 L2171.02 192.124 Z" fill="#000000" fill-rule="nonzero" fill-opacity="1" /><path clip-path="url(#clip610)" d="M2187.27 201.036 Q2182.11 201.036 2180.12 202.217 Q2178.13 203.397 2178.13 206.245 Q2178.13 208.513 2179.61 209.856 Q2181.11 211.175 2183.68 211.175 Q2187.23 211.175 2189.36 208.675 Q2191.51 206.152 2191.51 201.985 L2191.51 201.036 L2187.27 201.036 M2195.77 199.277 L2195.77 214.069 L2191.51 214.069 L2191.51 210.133 Q2190.05 212.495 2187.87 213.629 Q2185.7 214.74 2182.55 214.74 Q2178.57 214.74 2176.21 212.518 Q2173.87 210.272 2173.87 206.522 Q2173.87 202.147 2176.79 199.925 Q2179.73 197.703 2185.54 197.703 L2191.51 197.703 L2191.51 197.286 Q2191.51 194.347 2189.56 192.749 Q2187.64 191.129 2184.15 191.129 Q2181.92 191.129 2179.82 191.661 Q2177.71 192.194 2175.77 193.259 L2175.77 189.323 Q2178.11 188.421 2180.3 187.981 Q2182.5 187.518 2184.59 187.518 Q2190.21 187.518 2192.99 190.434 Q2195.77 193.351 2195.77 199.277 Z" fill="#000000" fill-rule="nonzero" fill-opacity="1" /><path clip-path="url(#clip610)" d="M2221.6 200.805 Q2221.6 196.175 2219.68 193.629 Q2217.78 191.083 2214.33 191.083 Q2210.91 191.083 2208.98 193.629 Q2207.09 196.175 2207.09 200.805 Q2207.09 205.411 2208.98 207.958 Q2210.91 210.504 2214.33 210.504 Q2217.78 210.504 2219.68 207.958 Q2221.6 205.411 2221.6 200.805 M2225.86 210.851 Q2225.86 217.471 2222.92 220.689 Q2219.98 223.93 2213.92 223.93 Q2211.67 223.93 2209.68 223.582 Q2207.69 223.258 2205.81 222.564 L2205.81 218.42 Q2207.69 219.439 2209.52 219.925 Q2211.35 220.411 2213.24 220.411 Q2217.43 220.411 2219.52 218.212 Q2221.6 216.036 2221.6 211.615 L2221.6 209.508 Q2220.28 211.8 2218.22 212.934 Q2216.16 214.069 2213.29 214.069 Q2208.52 214.069 2205.6 210.434 Q2202.69 206.8 2202.69 200.805 Q2202.69 194.786 2205.6 191.152 Q2208.52 187.518 2213.29 187.518 Q2216.16 187.518 2218.22 188.652 Q2220.28 189.786 2221.6 192.078 L2221.6 188.143 L2225.86 188.143 L2225.86 210.851 Z" fill="#000000" fill-rule="nonzero" fill-opacity="1" /><path clip-path="url(#clip610)" d="M2256.81 200.041 L2256.81 202.124 L2237.23 202.124 Q2237.5 206.522 2239.86 208.837 Q2242.25 211.129 2246.48 211.129 Q2248.94 211.129 2251.23 210.527 Q2253.54 209.925 2255.81 208.721 L2255.81 212.749 Q2253.52 213.721 2251.11 214.231 Q2248.71 214.74 2246.23 214.74 Q2240.03 214.74 2236.39 211.129 Q2232.78 207.518 2232.78 201.36 Q2232.78 194.995 2236.21 191.268 Q2239.66 187.518 2245.49 187.518 Q2250.72 187.518 2253.75 190.897 Q2256.81 194.254 2256.81 200.041 M2252.55 198.791 Q2252.5 195.296 2250.58 193.212 Q2248.68 191.129 2245.54 191.129 Q2241.97 191.129 2239.82 193.143 Q2237.69 195.157 2237.36 198.814 L2252.55 198.791 Z" fill="#000000" fill-rule="nonzero" fill-opacity="1" /></svg>
