<?xml version="1.0" encoding="utf-8"?>
<svg xmlns="http://www.w3.org/2000/svg" xmlns:xlink="http://www.w3.org/1999/xlink" width="600" height="400" viewBox="0 0 2400 1600">
<defs>
  <clipPath id="clip980">
    <rect x="0" y="0" width="2400" height="1600"/>
  </clipPath>
</defs>
<path clip-path="url(#clip980)" d="M0 1600 L2400 1600 L2400 0 L0 0  Z" fill="#ffffff" fill-rule="evenodd" fill-opacity="1"/>
<defs>
  <clipPath id="clip981">
    <rect x="480" y="0" width="1681" height="1600"/>
  </clipPath>
</defs>
<path clip-path="url(#clip980)" d="M224.098 1423.18 L2352.76 1423.18 L2352.76 47.2441 L224.098 47.2441  Z" fill="#ffffff" fill-rule="evenodd" fill-opacity="1"/>
<defs>
  <clipPath id="clip982">
    <rect x="224" y="47" width="2130" height="1377"/>
  </clipPath>
</defs>
<polyline clip-path="url(#clip982)" style="stroke:#000000; stroke-linecap:round; stroke-linejoin:round; stroke-width:2; stroke-opacity:0.1; fill:none" points="224.098,1423.18 224.098,47.2441 "/>
<polyline clip-path="url(#clip982)" style="stroke:#000000; stroke-linecap:round; stroke-linejoin:round; stroke-width:2; stroke-opacity:0.1; fill:none" points="756.262,1423.18 756.262,47.2441 "/>
<polyline clip-path="url(#clip982)" style="stroke:#000000; stroke-linecap:round; stroke-linejoin:round; stroke-width:2; stroke-opacity:0.1; fill:none" points="1288.43,1423.18 1288.43,47.2441 "/>
<polyline clip-path="url(#clip982)" style="stroke:#000000; stroke-linecap:round; stroke-linejoin:round; stroke-width:2; stroke-opacity:0.1; fill:none" points="1820.59,1423.18 1820.59,47.2441 "/>
<polyline clip-path="url(#clip982)" style="stroke:#000000; stroke-linecap:round; stroke-linejoin:round; stroke-width:2; stroke-opacity:0.1; fill:none" points="2352.76,1423.18 2352.76,47.2441 "/>
<polyline clip-path="url(#clip982)" style="stroke:#000000; stroke-linecap:round; stroke-linejoin:round; stroke-width:2; stroke-opacity:0.1; fill:none" points="224.098,1220.11 2352.76,1220.11 "/>
<polyline clip-path="url(#clip982)" style="stroke:#000000; stroke-linecap:round; stroke-linejoin:round; stroke-width:2; stroke-opacity:0.1; fill:none" points="224.098,981.955 2352.76,981.955 "/>
<polyline clip-path="url(#clip982)" style="stroke:#000000; stroke-linecap:round; stroke-linejoin:round; stroke-width:2; stroke-opacity:0.1; fill:none" points="224.098,743.795 2352.76,743.795 "/>
<polyline clip-path="url(#clip982)" style="stroke:#000000; stroke-linecap:round; stroke-linejoin:round; stroke-width:2; stroke-opacity:0.1; fill:none" points="224.098,505.636 2352.76,505.636 "/>
<polyline clip-path="url(#clip982)" style="stroke:#000000; stroke-linecap:round; stroke-linejoin:round; stroke-width:2; stroke-opacity:0.1; fill:none" points="224.098,267.476 2352.76,267.476 "/>
<polyline clip-path="url(#clip980)" style="stroke:#000000; stroke-linecap:round; stroke-linejoin:round; stroke-width:4; stroke-opacity:1; fill:none" points="224.098,1423.18 2352.76,1423.18 "/>
<polyline clip-path="url(#clip980)" style="stroke:#000000; stroke-linecap:round; stroke-linejoin:round; stroke-width:4; stroke-opacity:1; fill:none" points="224.098,1423.18 224.098,1404.28 "/>
<polyline clip-path="url(#clip980)" style="stroke:#000000; stroke-linecap:round; stroke-linejoin:round; stroke-width:4; stroke-opacity:1; fill:none" points="756.262,1423.18 756.262,1404.28 "/>
<polyline clip-path="url(#clip980)" style="stroke:#000000; stroke-linecap:round; stroke-linejoin:round; stroke-width:4; stroke-opacity:1; fill:none" points="1288.43,1423.18 1288.43,1404.28 "/>
<polyline clip-path="url(#clip980)" style="stroke:#000000; stroke-linecap:round; stroke-linejoin:round; stroke-width:4; stroke-opacity:1; fill:none" points="1820.59,1423.18 1820.59,1404.28 "/>
<polyline clip-path="url(#clip980)" style="stroke:#000000; stroke-linecap:round; stroke-linejoin:round; stroke-width:4; stroke-opacity:1; fill:none" points="2352.76,1423.18 2352.76,1404.28 "/>
<path clip-path="url(#clip980)" d="M201.482 1454.1 Q197.871 1454.1 196.042 1457.66 Q194.237 1461.2 194.237 1468.33 Q194.237 1475.44 196.042 1479.01 Q197.871 1482.55 201.482 1482.55 Q205.116 1482.55 206.922 1479.01 Q208.751 1475.44 208.751 1468.33 Q208.751 1461.2 206.922 1457.66 Q205.116 1454.1 201.482 1454.1 M201.482 1450.39 Q207.292 1450.39 210.348 1455 Q213.427 1459.58 213.427 1468.33 Q213.427 1477.06 210.348 1481.67 Q207.292 1486.25 201.482 1486.25 Q195.672 1486.25 192.593 1481.67 Q189.538 1477.06 189.538 1468.33 Q189.538 1459.58 192.593 1455 Q195.672 1450.39 201.482 1450.39 Z" fill="#000000" fill-rule="nonzero" fill-opacity="1" /><path clip-path="url(#clip980)" d="M221.644 1479.7 L226.528 1479.7 L226.528 1485.58 L221.644 1485.58 L221.644 1479.7 Z" fill="#000000" fill-rule="nonzero" fill-opacity="1" /><path clip-path="url(#clip980)" d="M246.713 1454.1 Q243.102 1454.1 241.274 1457.66 Q239.468 1461.2 239.468 1468.33 Q239.468 1475.44 241.274 1479.01 Q243.102 1482.55 246.713 1482.55 Q250.348 1482.55 252.153 1479.01 Q253.982 1475.44 253.982 1468.33 Q253.982 1461.2 252.153 1457.66 Q250.348 1454.1 246.713 1454.1 M246.713 1450.39 Q252.524 1450.39 255.579 1455 Q258.658 1459.58 258.658 1468.33 Q258.658 1477.06 255.579 1481.67 Q252.524 1486.25 246.713 1486.25 Q240.903 1486.25 237.825 1481.67 Q234.769 1477.06 234.769 1468.33 Q234.769 1459.58 237.825 1455 Q240.903 1450.39 246.713 1450.39 Z" fill="#000000" fill-rule="nonzero" fill-opacity="1" /><path clip-path="url(#clip980)" d="M734.144 1454.1 Q730.533 1454.1 728.705 1457.66 Q726.899 1461.2 726.899 1468.33 Q726.899 1475.44 728.705 1479.01 Q730.533 1482.55 734.144 1482.55 Q737.779 1482.55 739.584 1479.01 Q741.413 1475.44 741.413 1468.33 Q741.413 1461.2 739.584 1457.66 Q737.779 1454.1 734.144 1454.1 M734.144 1450.39 Q739.955 1450.39 743.01 1455 Q746.089 1459.58 746.089 1468.33 Q746.089 1477.06 743.01 1481.67 Q739.955 1486.25 734.144 1486.25 Q728.334 1486.25 725.256 1481.67 Q722.2 1477.06 722.2 1468.33 Q722.2 1459.58 725.256 1455 Q728.334 1450.39 734.144 1450.39 Z" fill="#000000" fill-rule="nonzero" fill-opacity="1" /><path clip-path="url(#clip980)" d="M754.306 1479.7 L759.191 1479.7 L759.191 1485.58 L754.306 1485.58 L754.306 1479.7 Z" fill="#000000" fill-rule="nonzero" fill-opacity="1" /><path clip-path="url(#clip980)" d="M769.422 1451.02 L787.778 1451.02 L787.778 1454.96 L773.704 1454.96 L773.704 1463.43 Q774.723 1463.08 775.741 1462.92 Q776.76 1462.73 777.778 1462.73 Q783.565 1462.73 786.945 1465.9 Q790.325 1469.08 790.325 1474.49 Q790.325 1480.07 786.852 1483.17 Q783.38 1486.25 777.061 1486.25 Q774.885 1486.25 772.616 1485.88 Q770.371 1485.51 767.964 1484.77 L767.964 1480.07 Q770.047 1481.2 772.269 1481.76 Q774.491 1482.32 776.968 1482.32 Q780.973 1482.32 783.311 1480.21 Q785.649 1478.1 785.649 1474.49 Q785.649 1470.88 783.311 1468.77 Q780.973 1466.67 776.968 1466.67 Q775.093 1466.67 773.218 1467.08 Q771.366 1467.5 769.422 1468.38 L769.422 1451.02 Z" fill="#000000" fill-rule="nonzero" fill-opacity="1" /><path clip-path="url(#clip980)" d="M1255.58 1481.64 L1263.22 1481.64 L1263.22 1455.28 L1254.91 1456.95 L1254.91 1452.69 L1263.17 1451.02 L1267.85 1451.02 L1267.85 1481.64 L1275.49 1481.64 L1275.49 1485.58 L1255.58 1485.58 L1255.58 1481.64 Z" fill="#000000" fill-rule="nonzero" fill-opacity="1" /><path clip-path="url(#clip980)" d="M1284.93 1479.7 L1289.82 1479.7 L1289.82 1485.58 L1284.93 1485.58 L1284.93 1479.7 Z" fill="#000000" fill-rule="nonzero" fill-opacity="1" /><path clip-path="url(#clip980)" d="M1310 1454.1 Q1306.39 1454.1 1304.56 1457.66 Q1302.76 1461.2 1302.76 1468.33 Q1302.76 1475.44 1304.56 1479.01 Q1306.39 1482.55 1310 1482.55 Q1313.64 1482.55 1315.44 1479.01 Q1317.27 1475.44 1317.27 1468.33 Q1317.27 1461.2 1315.44 1457.66 Q1313.64 1454.1 1310 1454.1 M1310 1450.39 Q1315.81 1450.39 1318.87 1455 Q1321.95 1459.58 1321.95 1468.33 Q1321.95 1477.06 1318.87 1481.67 Q1315.81 1486.25 1310 1486.25 Q1304.19 1486.25 1301.11 1481.67 Q1298.06 1477.06 1298.06 1468.33 Q1298.06 1459.58 1301.11 1455 Q1304.19 1450.39 1310 1450.39 Z" fill="#000000" fill-rule="nonzero" fill-opacity="1" /><path clip-path="url(#clip980)" d="M1788.24 1481.64 L1795.88 1481.64 L1795.88 1455.28 L1787.57 1456.95 L1787.57 1452.69 L1795.83 1451.02 L1800.51 1451.02 L1800.51 1481.64 L1808.15 1481.64 L1808.15 1485.58 L1788.24 1485.58 L1788.24 1481.64 Z" fill="#000000" fill-rule="nonzero" fill-opacity="1" /><path clip-path="url(#clip980)" d="M1817.59 1479.7 L1822.48 1479.7 L1822.48 1485.58 L1817.59 1485.58 L1817.59 1479.7 Z" fill="#000000" fill-rule="nonzero" fill-opacity="1" /><path clip-path="url(#clip980)" d="M1832.71 1451.02 L1851.07 1451.02 L1851.07 1454.96 L1836.99 1454.96 L1836.99 1463.43 Q1838.01 1463.08 1839.03 1462.92 Q1840.05 1462.73 1841.07 1462.73 Q1846.85 1462.73 1850.23 1465.9 Q1853.61 1469.08 1853.61 1474.49 Q1853.61 1480.07 1850.14 1483.17 Q1846.67 1486.25 1840.35 1486.25 Q1838.17 1486.25 1835.9 1485.88 Q1833.66 1485.51 1831.25 1484.77 L1831.25 1480.07 Q1833.33 1481.2 1835.56 1481.76 Q1837.78 1482.32 1840.26 1482.32 Q1844.26 1482.32 1846.6 1480.21 Q1848.94 1478.1 1848.94 1474.49 Q1848.94 1470.88 1846.6 1468.77 Q1844.26 1466.67 1840.26 1466.67 Q1838.38 1466.67 1836.51 1467.08 Q1834.65 1467.5 1832.71 1468.38 L1832.71 1451.02 Z" fill="#000000" fill-rule="nonzero" fill-opacity="1" /><path clip-path="url(#clip980)" d="M2323.99 1481.64 L2340.31 1481.64 L2340.31 1485.58 L2318.37 1485.58 L2318.37 1481.64 Q2321.03 1478.89 2325.61 1474.26 Q2330.22 1469.61 2331.4 1468.27 Q2333.65 1465.74 2334.53 1464.01 Q2335.43 1462.25 2335.43 1460.56 Q2335.43 1457.8 2333.49 1456.07 Q2331.56 1454.33 2328.46 1454.33 Q2326.26 1454.33 2323.81 1455.09 Q2321.38 1455.86 2318.6 1457.41 L2318.6 1452.69 Q2321.43 1451.55 2323.88 1450.97 Q2326.33 1450.39 2328.37 1450.39 Q2333.74 1450.39 2336.93 1453.08 Q2340.13 1455.77 2340.13 1460.26 Q2340.13 1462.39 2339.32 1464.31 Q2338.53 1466.2 2336.42 1468.8 Q2335.85 1469.47 2332.74 1472.69 Q2329.64 1475.88 2323.99 1481.64 Z" fill="#000000" fill-rule="nonzero" fill-opacity="1" /><path clip-path="url(#clip980)" d="M2350.13 1479.7 L2355.01 1479.7 L2355.01 1485.58 L2350.13 1485.58 L2350.13 1479.7 Z" fill="#000000" fill-rule="nonzero" fill-opacity="1" /><path clip-path="url(#clip980)" d="M2375.2 1454.1 Q2371.59 1454.1 2369.76 1457.66 Q2367.95 1461.2 2367.95 1468.33 Q2367.95 1475.44 2369.76 1479.01 Q2371.59 1482.55 2375.2 1482.55 Q2378.83 1482.55 2380.64 1479.01 Q2382.47 1475.44 2382.47 1468.33 Q2382.47 1461.2 2380.64 1457.66 Q2378.83 1454.1 2375.2 1454.1 M2375.2 1450.39 Q2381.01 1450.39 2384.06 1455 Q2387.14 1459.58 2387.14 1468.33 Q2387.14 1477.06 2384.06 1481.67 Q2381.01 1486.25 2375.2 1486.25 Q2369.39 1486.25 2366.31 1481.67 Q2363.25 1477.06 2363.25 1468.33 Q2363.25 1459.58 2366.31 1455 Q2369.39 1450.39 2375.2 1450.39 Z" fill="#000000" fill-rule="nonzero" fill-opacity="1" /><path clip-path="url(#clip980)" d="M1287.49 1522.27 L1287.49 1532.4 L1299.55 1532.4 L1299.55 1536.95 L1287.49 1536.95 L1287.49 1556.3 Q1287.49 1560.66 1288.67 1561.9 Q1289.88 1563.14 1293.54 1563.14 L1299.55 1563.14 L1299.55 1568.04 L1293.54 1568.04 Q1286.76 1568.04 1284.18 1565.53 Q1281.6 1562.98 1281.6 1556.3 L1281.6 1536.95 L1277.3 1536.95 L1277.3 1532.4 L1281.6 1532.4 L1281.6 1522.27 L1287.49 1522.27 Z" fill="#000000" fill-rule="nonzero" fill-opacity="1" /><polyline clip-path="url(#clip980)" style="stroke:#000000; stroke-linecap:round; stroke-linejoin:round; stroke-width:4; stroke-opacity:1; fill:none" points="224.098,1423.18 224.098,47.2441 "/>
<polyline clip-path="url(#clip980)" style="stroke:#000000; stroke-linecap:round; stroke-linejoin:round; stroke-width:4; stroke-opacity:1; fill:none" points="224.098,1220.11 242.996,1220.11 "/>
<polyline clip-path="url(#clip980)" style="stroke:#000000; stroke-linecap:round; stroke-linejoin:round; stroke-width:4; stroke-opacity:1; fill:none" points="224.098,981.955 242.996,981.955 "/>
<polyline clip-path="url(#clip980)" style="stroke:#000000; stroke-linecap:round; stroke-linejoin:round; stroke-width:4; stroke-opacity:1; fill:none" points="224.098,743.795 242.996,743.795 "/>
<polyline clip-path="url(#clip980)" style="stroke:#000000; stroke-linecap:round; stroke-linejoin:round; stroke-width:4; stroke-opacity:1; fill:none" points="224.098,505.636 242.996,505.636 "/>
<polyline clip-path="url(#clip980)" style="stroke:#000000; stroke-linecap:round; stroke-linejoin:round; stroke-width:4; stroke-opacity:1; fill:none" points="224.098,267.476 242.996,267.476 "/>
<path clip-path="url(#clip980)" d="M50.9921 1220.57 L80.6679 1220.57 L80.6679 1224.5 L50.9921 1224.5 L50.9921 1220.57 Z" fill="#000000" fill-rule="nonzero" fill-opacity="1" /><path clip-path="url(#clip980)" d="M91.5706 1233.46 L99.2095 1233.46 L99.2095 1207.09 L90.8993 1208.76 L90.8993 1204.5 L99.1632 1202.83 L103.839 1202.83 L103.839 1233.46 L111.478 1233.46 L111.478 1237.39 L91.5706 1237.39 L91.5706 1233.46 Z" fill="#000000" fill-rule="nonzero" fill-opacity="1" /><path clip-path="url(#clip980)" d="M120.922 1231.51 L125.807 1231.51 L125.807 1237.39 L120.922 1237.39 L120.922 1231.51 Z" fill="#000000" fill-rule="nonzero" fill-opacity="1" /><path clip-path="url(#clip980)" d="M145.992 1205.91 Q142.381 1205.91 140.552 1209.48 Q138.746 1213.02 138.746 1220.15 Q138.746 1227.26 140.552 1230.82 Q142.381 1234.36 145.992 1234.36 Q149.626 1234.36 151.431 1230.82 Q153.26 1227.26 153.26 1220.15 Q153.26 1213.02 151.431 1209.48 Q149.626 1205.91 145.992 1205.91 M145.992 1202.21 Q151.802 1202.21 154.857 1206.82 Q157.936 1211.4 157.936 1220.15 Q157.936 1228.88 154.857 1233.48 Q151.802 1238.07 145.992 1238.07 Q140.181 1238.07 137.103 1233.48 Q134.047 1228.88 134.047 1220.15 Q134.047 1211.4 137.103 1206.82 Q140.181 1202.21 145.992 1202.21 Z" fill="#000000" fill-rule="nonzero" fill-opacity="1" /><path clip-path="url(#clip980)" d="M176.153 1205.91 Q172.542 1205.91 170.714 1209.48 Q168.908 1213.02 168.908 1220.15 Q168.908 1227.26 170.714 1230.82 Q172.542 1234.36 176.153 1234.36 Q179.788 1234.36 181.593 1230.82 Q183.422 1227.26 183.422 1220.15 Q183.422 1213.02 181.593 1209.48 Q179.788 1205.91 176.153 1205.91 M176.153 1202.21 Q181.964 1202.21 185.019 1206.82 Q188.098 1211.4 188.098 1220.15 Q188.098 1228.88 185.019 1233.48 Q181.964 1238.07 176.153 1238.07 Q170.343 1238.07 167.265 1233.48 Q164.209 1228.88 164.209 1220.15 Q164.209 1211.4 167.265 1206.82 Q170.343 1202.21 176.153 1202.21 Z" fill="#000000" fill-rule="nonzero" fill-opacity="1" /><path clip-path="url(#clip980)" d="M51.9875 982.406 L81.6633 982.406 L81.6633 986.341 L51.9875 986.341 L51.9875 982.406 Z" fill="#000000" fill-rule="nonzero" fill-opacity="1" /><path clip-path="url(#clip980)" d="M101.756 967.753 Q98.1447 967.753 96.316 971.318 Q94.5104 974.86 94.5104 981.989 Q94.5104 989.096 96.316 992.661 Q98.1447 996.202 101.756 996.202 Q105.39 996.202 107.196 992.661 Q109.024 989.096 109.024 981.989 Q109.024 974.86 107.196 971.318 Q105.39 967.753 101.756 967.753 M101.756 964.05 Q107.566 964.05 110.621 968.656 Q113.7 973.239 113.7 981.989 Q113.7 990.716 110.621 995.323 Q107.566 999.906 101.756 999.906 Q95.9456 999.906 92.8669 995.323 Q89.8114 990.716 89.8114 981.989 Q89.8114 973.239 92.8669 968.656 Q95.9456 964.05 101.756 964.05 Z" fill="#000000" fill-rule="nonzero" fill-opacity="1" /><path clip-path="url(#clip980)" d="M121.918 993.355 L126.802 993.355 L126.802 999.235 L121.918 999.235 L121.918 993.355 Z" fill="#000000" fill-rule="nonzero" fill-opacity="1" /><path clip-path="url(#clip980)" d="M135.806 964.675 L158.029 964.675 L158.029 966.665 L145.482 999.235 L140.598 999.235 L152.404 968.61 L135.806 968.61 L135.806 964.675 Z" fill="#000000" fill-rule="nonzero" fill-opacity="1" /><path clip-path="url(#clip980)" d="M167.195 964.675 L185.552 964.675 L185.552 968.61 L171.478 968.61 L171.478 977.082 Q172.496 976.735 173.515 976.573 Q174.533 976.387 175.552 976.387 Q181.339 976.387 184.718 979.559 Q188.098 982.73 188.098 988.147 Q188.098 993.725 184.626 996.827 Q181.153 999.906 174.834 999.906 Q172.658 999.906 170.39 999.536 Q168.144 999.165 165.737 998.424 L165.737 993.725 Q167.82 994.86 170.042 995.415 Q172.265 995.971 174.741 995.971 Q178.746 995.971 181.084 993.864 Q183.422 991.758 183.422 988.147 Q183.422 984.536 181.084 982.429 Q178.746 980.323 174.741 980.323 Q172.866 980.323 170.991 980.739 Q169.14 981.156 167.195 982.036 L167.195 964.675 Z" fill="#000000" fill-rule="nonzero" fill-opacity="1" /><path clip-path="url(#clip980)" d="M50.9921 744.247 L80.6679 744.247 L80.6679 748.182 L50.9921 748.182 L50.9921 744.247 Z" fill="#000000" fill-rule="nonzero" fill-opacity="1" /><path clip-path="url(#clip980)" d="M100.76 729.594 Q97.1493 729.594 95.3206 733.159 Q93.515 736.7 93.515 743.83 Q93.515 750.936 95.3206 754.501 Q97.1493 758.043 100.76 758.043 Q104.395 758.043 106.2 754.501 Q108.029 750.936 108.029 743.83 Q108.029 736.7 106.2 733.159 Q104.395 729.594 100.76 729.594 M100.76 725.89 Q106.571 725.89 109.626 730.497 Q112.705 735.08 112.705 743.83 Q112.705 752.557 109.626 757.163 Q106.571 761.746 100.76 761.746 Q94.9502 761.746 91.8715 757.163 Q88.816 752.557 88.816 743.83 Q88.816 735.08 91.8715 730.497 Q94.9502 725.89 100.76 725.89 Z" fill="#000000" fill-rule="nonzero" fill-opacity="1" /><path clip-path="url(#clip980)" d="M120.922 755.196 L125.807 755.196 L125.807 761.075 L120.922 761.075 L120.922 755.196 Z" fill="#000000" fill-rule="nonzero" fill-opacity="1" /><path clip-path="url(#clip980)" d="M136.038 726.515 L154.394 726.515 L154.394 730.45 L140.32 730.45 L140.32 738.922 Q141.339 738.575 142.357 738.413 Q143.376 738.228 144.394 738.228 Q150.181 738.228 153.561 741.399 Q156.941 744.571 156.941 749.987 Q156.941 755.566 153.468 758.668 Q149.996 761.746 143.677 761.746 Q141.501 761.746 139.232 761.376 Q136.987 761.006 134.58 760.265 L134.58 755.566 Q136.663 756.7 138.885 757.256 Q141.107 757.811 143.584 757.811 Q147.589 757.811 149.927 755.705 Q152.265 753.598 152.265 749.987 Q152.265 746.376 149.927 744.27 Q147.589 742.163 143.584 742.163 Q141.709 742.163 139.834 742.58 Q137.982 742.997 136.038 743.876 L136.038 726.515 Z" fill="#000000" fill-rule="nonzero" fill-opacity="1" /><path clip-path="url(#clip980)" d="M176.153 729.594 Q172.542 729.594 170.714 733.159 Q168.908 736.7 168.908 743.83 Q168.908 750.936 170.714 754.501 Q172.542 758.043 176.153 758.043 Q179.788 758.043 181.593 754.501 Q183.422 750.936 183.422 743.83 Q183.422 736.7 181.593 733.159 Q179.788 729.594 176.153 729.594 M176.153 725.89 Q181.964 725.89 185.019 730.497 Q188.098 735.08 188.098 743.83 Q188.098 752.557 185.019 757.163 Q181.964 761.746 176.153 761.746 Q170.343 761.746 167.265 757.163 Q164.209 752.557 164.209 743.83 Q164.209 735.08 167.265 730.497 Q170.343 725.89 176.153 725.89 Z" fill="#000000" fill-rule="nonzero" fill-opacity="1" /><path clip-path="url(#clip980)" d="M51.9875 506.087 L81.6633 506.087 L81.6633 510.022 L51.9875 510.022 L51.9875 506.087 Z" fill="#000000" fill-rule="nonzero" fill-opacity="1" /><path clip-path="url(#clip980)" d="M101.756 491.434 Q98.1447 491.434 96.316 494.999 Q94.5104 498.541 94.5104 505.67 Q94.5104 512.777 96.316 516.342 Q98.1447 519.883 101.756 519.883 Q105.39 519.883 107.196 516.342 Q109.024 512.777 109.024 505.67 Q109.024 498.541 107.196 494.999 Q105.39 491.434 101.756 491.434 M101.756 487.731 Q107.566 487.731 110.621 492.337 Q113.7 496.92 113.7 505.67 Q113.7 514.397 110.621 519.004 Q107.566 523.587 101.756 523.587 Q95.9456 523.587 92.8669 519.004 Q89.8114 514.397 89.8114 505.67 Q89.8114 496.92 92.8669 492.337 Q95.9456 487.731 101.756 487.731 Z" fill="#000000" fill-rule="nonzero" fill-opacity="1" /><path clip-path="url(#clip980)" d="M121.918 517.036 L126.802 517.036 L126.802 522.916 L121.918 522.916 L121.918 517.036 Z" fill="#000000" fill-rule="nonzero" fill-opacity="1" /><path clip-path="url(#clip980)" d="M141.015 518.981 L157.334 518.981 L157.334 522.916 L135.39 522.916 L135.39 518.981 Q138.052 516.226 142.635 511.596 Q147.242 506.944 148.422 505.601 Q150.668 503.078 151.547 501.342 Q152.45 499.582 152.45 497.893 Q152.45 495.138 150.505 493.402 Q148.584 491.666 145.482 491.666 Q143.283 491.666 140.83 492.43 Q138.399 493.194 135.621 494.745 L135.621 490.022 Q138.445 488.888 140.899 488.309 Q143.353 487.731 145.39 487.731 Q150.76 487.731 153.955 490.416 Q157.149 493.101 157.149 497.592 Q157.149 499.721 156.339 501.643 Q155.552 503.541 153.445 506.133 Q152.867 506.805 149.765 510.022 Q146.663 513.217 141.015 518.981 Z" fill="#000000" fill-rule="nonzero" fill-opacity="1" /><path clip-path="url(#clip980)" d="M167.195 488.356 L185.552 488.356 L185.552 492.291 L171.478 492.291 L171.478 500.763 Q172.496 500.416 173.515 500.254 Q174.533 500.069 175.552 500.069 Q181.339 500.069 184.718 503.24 Q188.098 506.411 188.098 511.828 Q188.098 517.406 184.626 520.508 Q181.153 523.587 174.834 523.587 Q172.658 523.587 170.39 523.217 Q168.144 522.846 165.737 522.106 L165.737 517.406 Q167.82 518.541 170.042 519.096 Q172.265 519.652 174.741 519.652 Q178.746 519.652 181.084 517.545 Q183.422 515.439 183.422 511.828 Q183.422 508.217 181.084 506.11 Q178.746 504.004 174.741 504.004 Q172.866 504.004 170.991 504.42 Q169.14 504.837 167.195 505.717 L167.195 488.356 Z" fill="#000000" fill-rule="nonzero" fill-opacity="1" /><path clip-path="url(#clip980)" d="M100.76 253.275 Q97.1493 253.275 95.3206 256.84 Q93.515 260.381 93.515 267.511 Q93.515 274.617 95.3206 278.182 Q97.1493 281.724 100.76 281.724 Q104.395 281.724 106.2 278.182 Q108.029 274.617 108.029 267.511 Q108.029 260.381 106.2 256.84 Q104.395 253.275 100.76 253.275 M100.76 249.571 Q106.571 249.571 109.626 254.178 Q112.705 258.761 112.705 267.511 Q112.705 276.238 109.626 280.844 Q106.571 285.428 100.76 285.428 Q94.9502 285.428 91.8715 280.844 Q88.816 276.238 88.816 267.511 Q88.816 258.761 91.8715 254.178 Q94.9502 249.571 100.76 249.571 Z" fill="#000000" fill-rule="nonzero" fill-opacity="1" /><path clip-path="url(#clip980)" d="M120.922 278.877 L125.807 278.877 L125.807 284.756 L120.922 284.756 L120.922 278.877 Z" fill="#000000" fill-rule="nonzero" fill-opacity="1" /><path clip-path="url(#clip980)" d="M145.992 253.275 Q142.381 253.275 140.552 256.84 Q138.746 260.381 138.746 267.511 Q138.746 274.617 140.552 278.182 Q142.381 281.724 145.992 281.724 Q149.626 281.724 151.431 278.182 Q153.26 274.617 153.26 267.511 Q153.26 260.381 151.431 256.84 Q149.626 253.275 145.992 253.275 M145.992 249.571 Q151.802 249.571 154.857 254.178 Q157.936 258.761 157.936 267.511 Q157.936 276.238 154.857 280.844 Q151.802 285.428 145.992 285.428 Q140.181 285.428 137.103 280.844 Q134.047 276.238 134.047 267.511 Q134.047 258.761 137.103 254.178 Q140.181 249.571 145.992 249.571 Z" fill="#000000" fill-rule="nonzero" fill-opacity="1" /><path clip-path="url(#clip980)" d="M176.153 253.275 Q172.542 253.275 170.714 256.84 Q168.908 260.381 168.908 267.511 Q168.908 274.617 170.714 278.182 Q172.542 281.724 176.153 281.724 Q179.788 281.724 181.593 278.182 Q183.422 274.617 183.422 267.511 Q183.422 260.381 181.593 256.84 Q179.788 253.275 176.153 253.275 M176.153 249.571 Q181.964 249.571 185.019 254.178 Q188.098 258.761 188.098 267.511 Q188.098 276.238 185.019 280.844 Q181.964 285.428 176.153 285.428 Q170.343 285.428 167.265 280.844 Q164.209 276.238 164.209 267.511 Q164.209 258.761 167.265 254.178 Q170.343 249.571 176.153 249.571 Z" fill="#000000" fill-rule="nonzero" fill-opacity="1" /><polyline clip-path="url(#clip982)" style="stroke:#009af9; stroke-linecap:round; stroke-linejoin:round; stroke-width:4; stroke-opacity:1; fill:none" points="224.098,86.1857 226.229,90.2603 228.359,94.2944 230.49,98.2883 232.621,102.242 234.752,106.157 236.883,110.033 239.013,113.87 241.144,117.669 243.275,121.43 245.406,125.154 247.537,128.84 249.667,132.49 251.798,136.103 253.929,139.681 256.06,143.223 258.19,146.729 260.321,150.201 262.452,153.638 264.583,157.041 266.714,160.41 268.844,163.745 270.975,167.047 273.106,170.316 275.237,173.553 277.368,176.758 279.498,179.93 281.629,183.071 283.76,186.181 285.891,189.26 288.022,192.308 290.152,195.325 292.283,198.313 294.414,201.271 296.545,204.199 298.675,207.099 300.806,209.969 302.937,212.811 305.068,215.624 307.199,218.41 309.329,221.167 311.46,223.897 313.591,226.601 315.722,229.277 317.853,231.926 319.983,234.549 322.114,237.146 324.245,239.717 326.376,242.263 328.507,244.783 330.637,247.278 332.768,249.748 334.899,252.193 337.03,254.614 339.16,257.012 341.291,259.385 343.422,261.734 345.553,264.061 347.684,266.364 349.814,268.644 351.945,270.901 354.076,273.136 356.207,275.349 358.338,277.539 360.468,279.708 362.599,281.855 364.73,283.981 366.861,286.086 368.992,288.169 371.122,290.232 373.253,292.275 375.384,294.297 377.515,296.298 379.645,298.28 381.776,300.242 383.907,302.185 386.038,304.108 388.169,306.012 390.299,307.898 392.43,309.764 394.561,311.612 396.692,313.441 398.823,315.252 400.953,317.045 403.084,318.821 405.215,320.578 407.346,322.318 409.477,324.041 411.607,325.747 413.738,327.435 415.869,329.107 418,330.762 420.13,332.401 422.261,334.023 424.392,335.629 426.523,337.219 428.654,338.794 430.784,340.352 432.915,341.896 435.046,343.423 437.177,344.936 439.308,346.434 441.438,347.916 443.569,349.384 445.7,350.837 447.831,352.276 449.961,353.7 452.092,355.111 454.223,356.507 456.354,357.889 458.485,359.258 460.615,360.612 462.746,361.954 464.877,363.282 467.008,364.597 469.139,365.898 471.269,367.187 473.4,368.463 475.531,369.726 477.662,370.976 479.793,372.214 481.923,373.44 484.054,374.654 486.185,375.855 488.316,377.045 490.446,378.222 492.577,379.388 494.708,380.542 496.839,381.685 498.97,382.817 501.1,383.937 503.231,385.046 505.362,386.144 507.493,387.231 509.624,388.307 511.754,389.372 513.885,390.427 516.016,391.472 518.147,392.506 520.278,393.529 522.408,394.543 524.539,395.546 526.67,396.54 528.801,397.524 530.931,398.497 533.062,399.461 535.193,400.416 537.324,401.361 539.455,402.297 541.585,403.223 543.716,404.14 545.847,405.048 547.978,405.947 550.109,406.836 552.239,407.718 554.37,408.59 556.501,409.453 558.632,410.308 560.763,411.155 562.893,411.993 565.024,412.822 567.155,413.643 569.286,414.457 571.416,415.262 573.547,416.059 575.678,416.848 577.809,417.629 579.94,418.402 582.07,419.168 584.201,419.926 586.332,420.677 588.463,421.42 590.594,422.155 592.724,422.883 594.855,423.605 596.986,424.318 599.117,425.025 601.247,425.725 603.378,426.418 605.509,427.103 607.64,427.782 609.771,428.455 611.901,429.12 614.032,429.779 616.163,430.432 618.294,431.077 620.425,431.717 622.555,432.35 624.686,432.977 626.817,433.597 628.948,434.212 631.079,434.82 633.209,435.422 635.34,436.019 637.471,436.609 639.602,437.193 641.732,437.772 643.863,438.345 645.994,438.912 648.125,439.474 650.256,440.03 652.386,440.58 654.517,441.125 656.648,441.665 658.779,442.199 660.91,442.728 663.04,443.251 665.171,443.77 667.302,444.283 669.433,444.791 671.564,445.294 673.694,445.792 675.825,446.285 677.956,446.773 680.087,447.256 682.217,447.734 684.348,448.208 686.479,448.677 688.61,449.141 690.741,449.601 692.871,450.056 695.002,450.506 697.133,450.952 699.264,451.394 701.395,451.831 703.525,452.264 705.656,452.692 707.787,453.116 709.918,453.536 712.049,453.952 714.179,454.363 716.31,454.771 718.441,455.174 720.572,455.574 722.702,455.969 724.833,456.361 726.964,456.748 729.095,457.132 731.226,457.512 733.356,457.888 735.487,458.26 737.618,458.629 739.749,458.994 741.88,459.355 744.01,459.713 746.141,460.068 748.272,460.418 750.403,460.765 752.534,461.109 754.664,461.45 756.795,461.787 758.926,462.12 761.057,462.451 763.187,462.778 765.318,463.102 767.449,463.422 769.58,463.74 771.711,464.054 773.841,464.365 775.972,464.673 778.103,464.978 780.234,465.28 782.365,465.579 784.495,465.875 786.626,466.168 788.757,466.459 790.888,466.746 793.018,467.03 795.149,467.312 797.28,467.591 799.411,467.867 801.542,468.14 803.672,468.41 805.803,468.678 807.934,468.943 810.065,469.206 812.196,469.466 814.326,469.723 816.457,469.978 818.588,470.23 820.719,470.479 822.85,470.727 824.98,470.971 827.111,471.213 829.242,471.453 831.373,471.69 833.503,471.925 835.634,472.158 837.765,472.388 839.896,472.616 842.027,472.842 844.157,473.066 846.288,473.287 848.419,473.506 850.55,473.723 852.681,473.937 854.811,474.15 856.942,474.36 859.073,474.569 861.204,474.775 863.335,474.979 865.465,475.181 867.596,475.381 869.727,475.579 871.858,475.775 873.988,475.969 876.119,476.162 878.25,476.352 880.381,476.54 882.512,476.727 884.642,476.912 886.773,477.094 888.904,477.276 891.035,477.455 893.166,477.632 895.296,477.808 897.427,477.982 899.558,478.154 901.689,478.325 903.82,478.493 905.95,478.661 908.081,478.826 910.212,478.99 912.343,479.152 914.473,479.313 916.604,479.472 918.735,479.629 920.866,479.785 922.997,479.94 925.127,480.093 927.258,480.244 929.389,480.394 931.52,480.542 933.651,480.689 935.781,480.835 937.912,480.979 940.043,481.121 942.174,481.263 944.304,481.402 946.435,481.541 948.566,481.678 950.697,481.814 952.828,481.948 954.958,482.081 957.089,482.212 959.22,482.343 961.351,482.472 963.482,482.6 965.612,482.726 967.743,482.851 969.874,482.975 972.005,483.098 974.136,483.22 976.266,483.34 978.397,483.459 980.528,483.577 982.659,483.693 984.789,483.809 986.92,483.923 989.051,484.037 991.182,484.149 993.313,484.26 995.443,484.37 997.574,484.478 999.705,484.586 1001.84,484.692 1003.97,484.798 1006.1,484.902 1008.23,485.006 1010.36,485.108 1012.49,485.209 1014.62,485.31 1016.75,485.409 1018.88,485.507 1021.01,485.605 1023.14,485.701 1025.27,485.796 1027.41,485.891 1029.54,485.984 1031.67,486.077 1033.8,486.168 1035.93,486.259 1038.06,486.349 1040.19,486.438 1042.32,486.526 1044.45,486.613 1046.58,486.699 1048.71,486.784 1050.84,486.869 1052.97,486.953 1055.11,487.035 1057.24,487.118 1059.37,487.199 1061.5,487.279 1063.63,487.359 1065.76,487.438 1067.89,487.516 1070.02,487.593 1072.15,487.669 1074.28,487.745 1076.41,487.82 1078.54,487.894 1080.67,487.968 1082.81,488.04 1084.94,488.113 1087.07,488.184 1089.2,488.255 1091.33,488.325 1093.46,488.394 1095.59,488.462 1097.72,488.53 1099.85,488.598 1101.98,488.664 1104.11,488.73 1106.24,488.795 1108.38,488.86 1110.51,488.924 1112.64,488.988 1114.77,489.05 1116.9,489.113 1119.03,489.174 1121.16,489.235 1123.29,489.296 1125.42,489.355 1127.55,489.415 1129.68,489.473 1131.81,489.531 1133.94,489.589 1136.08,489.646 1138.21,489.702 1140.34,489.758 1142.47,489.813 1144.6,489.867 1146.73,489.922 1148.86,489.975 1150.99,490.028 1153.12,490.081 1155.25,490.133 1157.38,490.184 1159.51,490.235 1161.64,490.285 1163.78,490.335 1165.91,490.385 1168.04,490.434 1170.17,490.482 1172.3,490.53 1174.43,490.578 1176.56,490.625 1178.69,490.671 1180.82,490.717 1182.95,490.763 1185.08,490.808 1187.21,490.852 1189.35,490.897 1191.48,490.94 1193.61,490.984 1195.74,491.027 1197.87,491.069 1200,491.111 1202.13,491.153 1204.26,491.194 1206.39,491.235 1208.52,491.275 1210.65,491.315 1212.78,491.354 1214.91,491.393 1217.05,491.432 1219.18,491.47 1221.31,491.508 1223.44,491.546 1225.57,491.583 1227.7,491.62 1229.83,491.656 1231.96,491.692 1234.09,491.728 1236.22,491.763 1238.35,491.798 1240.48,491.833 1242.61,491.867 1244.75,491.901 1246.88,491.935 1249.01,491.968 1251.14,492.001 1253.27,492.033 1255.4,492.066 1257.53,492.098 1259.66,492.129 1261.79,492.16 1263.92,492.191 1266.05,492.222 1268.18,492.252 1270.32,492.282 1272.45,492.312 1274.58,492.342 1276.71,492.371 1278.84,492.4 1280.97,492.428 1283.1,492.457 1285.23,492.485 1287.36,492.512 1289.49,492.54 1291.62,492.567 1293.75,492.594 1295.88,492.621 1298.02,492.647 1300.15,492.673 1302.28,492.699 1304.41,492.725 1306.54,492.75 1308.67,492.775 1310.8,492.8 1312.93,492.825 1315.06,492.85 1317.19,492.874 1319.32,492.898 1321.45,492.922 1323.58,492.945 1325.72,492.969 1327.85,492.992 1329.98,493.014 1332.11,493.037 1334.24,493.06 1336.37,493.082 1338.5,493.104 1340.63,493.126 1342.76,493.147 1344.89,493.169 1347.02,493.19 1349.15,493.211 1351.29,493.232 1353.42,493.252 1355.55,493.272 1357.68,493.293 1359.81,493.313 1361.94,493.332 1364.07,493.352 1366.2,493.371 1368.33,493.39 1370.46,493.409 1372.59,493.428 1374.72,493.447 1376.85,493.465 1378.99,493.483 1381.12,493.501 1383.25,493.519 1385.38,493.537 1387.51,493.555 1389.64,493.572 1391.77,493.589 1393.9,493.606 1396.03,493.623 1398.16,493.64 1400.29,493.656 1402.42,493.672 1404.55,493.688 1406.69,493.704 1408.82,493.72 1410.95,493.736 1413.08,493.751 1415.21,493.767 1417.34,493.782 1419.47,493.797 1421.6,493.812 1423.73,493.826 1425.86,493.841 1427.99,493.855 1430.12,493.87 1432.26,493.884 1434.39,493.898 1436.52,493.912 1438.65,493.925 1440.78,493.939 1442.91,493.952 1445.04,493.965 1447.17,493.979 1449.3,493.992 1451.43,494.004 1453.56,494.017 1455.69,494.03 1457.82,494.042 1459.96,494.055 1462.09,494.067 1464.22,494.079 1466.35,494.091 1468.48,494.103 1470.61,494.114 1472.74,494.126 1474.87,494.137 1477,494.149 1479.13,494.16 1481.26,494.171 1483.39,494.182 1485.52,494.193 1487.66,494.204 1489.79,494.214 1491.92,494.225 1494.05,494.235 1496.18,494.246 1498.31,494.256 1500.44,494.266 1502.57,494.276 1504.7,494.286 1506.83,494.296 1508.96,494.306 1511.09,494.315 1513.23,494.325 1515.36,494.334 1517.49,494.344 1519.62,494.353 1521.75,494.362 1523.88,494.371 1526.01,494.38 1528.14,494.389 1530.27,494.398 1532.4,494.406 1534.53,494.415 1536.66,494.424 1538.79,494.432 1540.93,494.44 1543.06,494.449 1545.19,494.457 1547.32,494.465 1549.45,494.473 1551.58,494.481 1553.71,494.489 1555.84,494.497 1557.97,494.505 1560.1,494.513 1562.23,494.52 1564.36,494.528 1566.49,494.535 1568.63,494.543 1570.76,494.55 1572.89,494.558 1575.02,494.565 1577.15,494.572 1579.28,494.579 1581.41,494.586 1583.54,494.593 1585.67,494.6 1587.8,494.607 1589.93,494.614 1592.06,494.62 1594.2,494.627 1596.33,494.634 1598.46,494.64 1600.59,494.647 1602.72,494.653 1604.85,494.659 1606.98,494.666 1609.11,494.672 1611.24,494.678 1613.37,494.684 1615.5,494.69 1617.63,494.696 1619.76,494.702 1621.9,494.708 1624.03,494.714 1626.16,494.72 1628.29,494.725 1630.42,494.731 1632.55,494.737 1634.68,494.742 1636.81,494.748 1638.94,494.753 1641.07,494.759 1643.2,494.764 1645.33,494.769 1647.46,494.774 1649.6,494.78 1651.73,494.785 1653.86,494.79 1655.99,494.795 1658.12,494.8 1660.25,494.805 1662.38,494.809 1664.51,494.814 1666.64,494.819 1668.77,494.824 1670.9,494.828 1673.03,494.833 1675.17,494.837 1677.3,494.842 1679.43,494.846 1681.56,494.851 1683.69,494.855 1685.82,494.86 1687.95,494.864 1690.08,494.868 1692.21,494.872 1694.34,494.876 1696.47,494.88 1698.6,494.885 1700.73,494.889 1702.87,494.893 1705,494.896 1707.13,494.9 1709.26,494.904 1711.39,494.908 1713.52,494.912 1715.65,494.915 1717.78,494.919 1719.91,494.923 1722.04,494.926 1724.17,494.93 1726.3,494.933 1728.43,494.937 1730.57,494.94 1732.7,494.944 1734.83,494.947 1736.96,494.95 1739.09,494.954 1741.22,494.957 1743.35,494.96 1745.48,494.963 1747.61,494.967 1749.74,494.97 1751.87,494.973 1754,494.976 1756.14,494.979 1758.27,494.982 1760.4,494.985 1762.53,494.988 1764.66,494.991 1766.79,494.993 1768.92,494.996 1771.05,494.999 1773.18,495.002 1775.31,495.005 1777.44,495.007 1779.57,495.01 1781.7,495.013 1783.84,495.015 1785.97,495.018 1788.1,495.02 1790.23,495.023 1792.36,495.025 1794.49,495.028 1796.62,495.03 1798.75,495.033 1800.88,495.035 1803.01,495.038 1805.14,495.04 1807.27,495.042 1809.4,495.045 1811.54,495.047 1813.67,495.049 1815.8,495.052 1817.93,495.054 1820.06,495.056 1822.19,495.058 1824.32,495.06 1826.45,495.063 1828.58,495.065 1830.71,495.067 1832.84,495.069 1834.97,495.071 1837.11,495.073 1839.24,495.075 1841.37,495.077 1843.5,495.079 1845.63,495.081 1847.76,495.083 1849.89,495.085 1852.02,495.087 1854.15,495.089 1856.28,495.091 1858.41,495.093 1860.54,495.095 1862.67,495.096 1864.81,495.098 1866.94,495.1 1869.07,495.102 1871.2,495.104 1873.33,495.106 1875.46,495.107 1877.59,495.109 1879.72,495.111 1881.85,495.113 1883.98,495.114 1886.11,495.116 1888.24,495.118 1890.37,495.119 1892.51,495.121 1894.64,495.123 1896.77,495.124 1898.9,495.126 1901.03,495.128 1903.16,495.129 1905.29,495.131 1907.42,495.132 1909.55,495.134 1911.68,495.136 1913.81,495.137 1915.94,495.139 1918.07,495.14 1920.21,495.142 1922.34,495.143 1924.47,495.144 1926.6,495.146 1928.73,495.147 1930.86,495.149 1932.99,495.15 1935.12,495.152 1937.25,495.153 1939.38,495.154 1941.51,495.156 1943.64,495.157 1945.78,495.158 1947.91,495.16 1950.04,495.161 1952.17,495.162 1954.3,495.163 1956.43,495.165 1958.56,495.166 1960.69,495.167 1962.82,495.168 1964.95,495.17 1967.08,495.171 1969.21,495.172 1971.34,495.173 1973.48,495.174 1975.61,495.175 1977.74,495.176 1979.87,495.178 1982,495.179 1984.13,495.18 1986.26,495.181 1988.39,495.182 1990.52,495.183 1992.65,495.184 1994.78,495.185 1996.91,495.186 1999.04,495.187 2001.18,495.188 2003.31,495.189 2005.44,495.19 2007.57,495.191 2009.7,495.192 2011.83,495.193 2013.96,495.194 2016.09,495.195 2018.22,495.196 2020.35,495.197 2022.48,495.197 2024.61,495.198 2026.75,495.199 2028.88,495.2 2031.01,495.201 2033.14,495.202 2035.27,495.203 2037.4,495.203 2039.53,495.204 2041.66,495.205 2043.79,495.206 2045.92,495.207 2048.05,495.207 2050.18,495.208 2052.31,495.209 2054.45,495.21 2056.58,495.21 2058.71,495.211 2060.84,495.212 2062.97,495.212 2065.1,495.213 2067.23,495.214 2069.36,495.215 2071.49,495.215 2073.62,495.216 2075.75,495.217 2077.88,495.217 2080.01,495.218 2082.15,495.218 2084.28,495.219 2086.41,495.22 2088.54,495.22 2090.67,495.221 2092.8,495.222 2094.93,495.222 2097.06,495.223 2099.19,495.223 2101.32,495.224 2103.45,495.224 2105.58,495.225 2107.72,495.226 2109.85,495.226 2111.98,495.227 2114.11,495.227 2116.24,495.228 2118.37,495.228 2120.5,495.229 2122.63,495.229 2124.76,495.23 2126.89,495.23 2129.02,495.231 2131.15,495.231 2133.28,495.232 2135.42,495.232 2137.55,495.233 2139.68,495.233 2141.81,495.233 2143.94,495.234 2146.07,495.234 2148.2,495.235 2150.33,495.235 2152.46,495.236 2154.59,495.236 2156.72,495.237 2158.85,495.237 2160.98,495.237 2163.12,495.238 2165.25,495.238 2167.38,495.239 2169.51,495.239 2171.64,495.239 2173.77,495.24 2175.9,495.24 2178.03,495.241 2180.16,495.241 2182.29,495.241 2184.42,495.242 2186.55,495.242 2188.69,495.243 2190.82,495.243 2192.95,495.243 2195.08,495.244 2197.21,495.244 2199.34,495.245 2201.47,495.245 2203.6,495.245 2205.73,495.246 2207.86,495.246 2209.99,495.246 2212.12,495.247 2214.25,495.247 2216.39,495.247 2218.52,495.248 2220.65,495.248 2222.78,495.249 2224.91,495.249 2227.04,495.249 2229.17,495.25 2231.3,495.25 2233.43,495.25 2235.56,495.251 2237.69,495.251 2239.82,495.251 2241.95,495.252 2244.09,495.252 2246.22,495.252 2248.35,495.253 2250.48,495.253 2252.61,495.253 2254.74,495.254 2256.87,495.254 2259,495.254 2261.13,495.254 2263.26,495.255 2265.39,495.255 2267.52,495.255 2269.66,495.256 2271.79,495.256 2273.92,495.256 2276.05,495.256 2278.18,495.257 2280.31,495.257 2282.44,495.257 2284.57,495.258 2286.7,495.258 2288.83,495.258 2290.96,495.258 2293.09,495.259 2295.22,495.259 2297.36,495.259 2299.49,495.259 2301.62,495.26 2303.75,495.26 2305.88,495.26 2308.01,495.26 2310.14,495.261 2312.27,495.261 2314.4,495.261 2316.53,495.261 2318.66,495.262 2320.79,495.262 2322.92,495.262 2325.06,495.262 2327.19,495.262 2329.32,495.263 2331.45,495.263 2333.58,495.263 2335.71,495.263 2337.84,495.263 2339.97,495.264 2342.1,495.264 2344.23,495.264 2346.36,495.264 2348.49,495.264 2350.63,495.265 2352.76,495.265 "/>
<polyline clip-path="url(#clip982)" style="stroke:#e26f46; stroke-linecap:round; stroke-linejoin:round; stroke-width:4; stroke-opacity:1; fill:none" points="224.098,1384.24 226.229,1378.12 228.359,1372.04 230.49,1366.01 232.621,1360.02 234.752,1354.07 236.883,1348.17 239.013,1342.31 241.144,1336.49 243.275,1330.72 245.406,1324.99 247.537,1319.3 249.667,1313.65 251.798,1308.04 253.929,1302.47 256.06,1296.94 258.19,1291.45 260.321,1286.01 262.452,1280.6 264.583,1275.23 266.714,1269.9 268.844,1264.61 270.975,1259.35 273.106,1254.14 275.237,1248.96 277.368,1243.82 279.498,1238.71 281.629,1233.64 283.76,1228.61 285.891,1223.62 288.022,1218.66 290.152,1213.74 292.283,1208.85 294.414,1204 296.545,1199.18 298.675,1194.39 300.806,1189.65 302.937,1184.93 305.068,1180.25 307.199,1175.6 309.329,1170.99 311.46,1166.41 313.591,1161.86 315.722,1157.34 317.853,1152.86 319.983,1148.41 322.114,1143.99 324.245,1139.6 326.376,1135.24 328.507,1130.92 330.637,1126.62 332.768,1122.36 334.899,1118.12 337.03,1113.92 339.16,1109.74 341.291,1105.6 343.422,1101.48 345.553,1097.4 347.684,1093.34 349.814,1089.31 351.945,1085.31 354.076,1081.34 356.207,1077.4 358.338,1073.48 360.468,1069.6 362.599,1065.74 364.73,1061.9 366.861,1058.1 368.992,1054.32 371.122,1050.57 373.253,1046.84 375.384,1043.14 377.515,1039.47 379.645,1035.82 381.776,1032.2 383.907,1028.61 386.038,1025.03 388.169,1021.49 390.299,1017.97 392.43,1014.47 394.561,1011 396.692,1007.56 398.823,1004.13 400.953,1000.73 403.084,997.36 405.215,994.009 407.346,990.681 409.477,987.377 411.607,984.096 413.738,980.838 415.869,977.603 418,974.39 420.13,971.2 422.261,968.033 424.392,964.887 426.523,961.763 428.654,958.661 430.784,955.581 432.915,952.522 435.046,949.485 437.177,946.468 439.308,943.473 441.438,940.499 443.569,937.545 445.7,934.612 447.831,931.699 449.961,928.807 452.092,925.934 454.223,923.082 456.354,920.249 458.485,917.436 460.615,914.643 462.746,911.869 464.877,909.114 467.008,906.378 469.139,903.661 471.269,900.963 473.4,898.284 475.531,895.623 477.662,892.981 479.793,890.357 481.923,887.751 484.054,885.163 486.185,882.593 488.316,880.041 490.446,877.506 492.577,874.989 494.708,872.489 496.839,870.006 498.97,867.54 501.1,865.092 503.231,862.66 505.362,860.245 507.493,857.846 509.624,855.464 511.754,853.099 513.885,850.749 516.016,848.416 518.147,846.099 520.278,843.798 522.408,841.512 524.539,839.242 526.67,836.988 528.801,834.749 530.931,832.525 533.062,830.317 535.193,828.123 537.324,825.945 539.455,823.781 541.585,821.633 543.716,819.499 545.847,817.379 547.978,815.274 550.109,813.184 552.239,811.107 554.37,809.045 556.501,806.997 558.632,804.963 560.763,802.943 562.893,800.936 565.024,798.943 567.155,796.964 569.286,794.998 571.416,793.046 573.547,791.107 575.678,789.18 577.809,787.268 579.94,785.368 582.07,783.48 584.201,781.606 586.332,779.745 588.463,777.896 590.594,776.059 592.724,774.235 594.855,772.424 596.986,770.624 599.117,768.837 601.247,767.062 603.378,765.299 605.509,763.547 607.64,761.808 609.771,760.08 611.901,758.364 614.032,756.66 616.163,754.967 618.294,753.285 620.425,751.615 622.555,749.956 624.686,748.308 626.817,746.671 628.948,745.046 631.079,743.431 633.209,741.827 635.34,740.234 637.471,738.651 639.602,737.079 641.732,735.518 643.863,733.967 645.994,732.426 648.125,730.896 650.256,729.376 652.386,727.867 654.517,726.367 656.648,724.878 658.779,723.398 660.91,721.928 663.04,720.469 665.171,719.019 667.302,717.578 669.433,716.147 671.564,714.726 673.694,713.315 675.825,711.912 677.956,710.52 680.087,709.136 682.217,707.762 684.348,706.396 686.479,705.04 688.61,703.693 690.741,702.355 692.871,701.026 695.002,699.706 697.133,698.394 699.264,697.092 701.395,695.798 703.525,694.512 705.656,693.235 707.787,691.967 709.918,690.707 712.049,689.455 714.179,688.212 716.31,686.977 718.441,685.75 720.572,684.531 722.702,683.32 724.833,682.118 726.964,680.923 729.095,679.736 731.226,678.557 733.356,677.386 735.487,676.223 737.618,675.067 739.749,673.919 741.88,672.779 744.01,671.646 746.141,670.52 748.272,669.402 750.403,668.291 752.534,667.188 754.664,666.092 756.795,665.003 758.926,663.921 761.057,662.847 763.187,661.779 765.318,660.719 767.449,659.665 769.58,658.619 771.711,657.579 773.841,656.546 775.972,655.52 778.103,654.501 780.234,653.488 782.365,652.482 784.495,651.482 786.626,650.49 788.757,649.503 790.888,648.523 793.018,647.55 795.149,646.583 797.28,645.622 799.411,644.668 801.542,643.72 803.672,642.778 805.803,641.842 807.934,640.912 810.065,639.989 812.196,639.071 814.326,638.16 816.457,637.254 818.588,636.355 820.719,635.461 822.85,634.573 824.98,633.691 827.111,632.815 829.242,631.944 831.373,631.079 833.503,630.22 835.634,629.367 837.765,628.519 839.896,627.676 842.027,626.839 844.157,626.008 846.288,625.182 848.419,624.361 850.55,623.545 852.681,622.735 854.811,621.931 856.942,621.131 859.073,620.337 861.204,619.548 863.335,618.764 865.465,617.985 867.596,617.211 869.727,616.442 871.858,615.678 873.988,614.919 876.119,614.165 878.25,613.416 880.381,612.672 882.512,611.932 884.642,611.198 886.773,610.468 888.904,609.743 891.035,609.022 893.166,608.307 895.296,607.595 897.427,606.889 899.558,606.187 901.689,605.489 903.82,604.796 905.95,604.108 908.081,603.424 910.212,602.744 912.343,602.069 914.473,601.398 916.604,600.732 918.735,600.069 920.866,599.411 922.997,598.757 925.127,598.108 927.258,597.462 929.389,596.821 931.52,596.184 933.651,595.551 935.781,594.922 937.912,594.297 940.043,593.676 942.174,593.059 944.304,592.446 946.435,591.837 948.566,591.232 950.697,590.631 952.828,590.033 954.958,589.44 957.089,588.85 959.22,588.264 961.351,587.682 963.482,587.104 965.612,586.529 967.743,585.958 969.874,585.391 972.005,584.827 974.136,584.267 976.266,583.71 978.397,583.157 980.528,582.608 982.659,582.062 984.789,581.52 986.92,580.981 989.051,580.446 991.182,579.914 993.313,579.385 995.443,578.86 997.574,578.338 999.705,577.82 1001.84,577.305 1003.97,576.793 1006.1,576.284 1008.23,575.779 1010.36,575.277 1012.49,574.778 1014.62,574.283 1016.75,573.79 1018.88,573.301 1021.01,572.815 1023.14,572.332 1025.27,571.852 1027.41,571.375 1029.54,570.901 1031.67,570.43 1033.8,569.962 1035.93,569.497 1038.06,569.035 1040.19,568.576 1042.32,568.12 1044.45,567.667 1046.58,567.217 1048.71,566.769 1050.84,566.325 1052.97,565.883 1055.11,565.444 1057.24,565.008 1059.37,564.575 1061.5,564.144 1063.63,563.716 1065.76,563.291 1067.89,562.869 1070.02,562.449 1072.15,562.032 1074.28,561.617 1076.41,561.206 1078.54,560.796 1080.67,560.39 1082.81,559.986 1084.94,559.584 1087.07,559.185 1089.2,558.789 1091.33,558.395 1093.46,558.003 1095.59,557.614 1097.72,557.228 1099.85,556.844 1101.98,556.462 1104.11,556.083 1106.24,555.706 1108.38,555.331 1110.51,554.959 1112.64,554.589 1114.77,554.222 1116.9,553.857 1119.03,553.494 1121.16,553.133 1123.29,552.775 1125.42,552.419 1127.55,552.065 1129.68,551.713 1131.81,551.364 1133.94,551.017 1136.08,550.672 1138.21,550.329 1140.34,549.988 1142.47,549.65 1144.6,549.313 1146.73,548.979 1148.86,548.647 1150.99,548.317 1153.12,547.989 1155.25,547.663 1157.38,547.339 1159.51,547.017 1161.64,546.698 1163.78,546.38 1165.91,546.064 1168.04,545.75 1170.17,545.439 1172.3,545.129 1174.43,544.821 1176.56,544.515 1178.69,544.211 1180.82,543.909 1182.95,543.609 1185.08,543.311 1187.21,543.014 1189.35,542.72 1191.48,542.427 1193.61,542.136 1195.74,541.847 1197.87,541.56 1200,541.275 1202.13,540.991 1204.26,540.71 1206.39,540.43 1208.52,540.151 1210.65,539.875 1212.78,539.6 1214.91,539.327 1217.05,539.056 1219.18,538.786 1221.31,538.518 1223.44,538.252 1225.57,537.988 1227.7,537.725 1229.83,537.464 1231.96,537.204 1234.09,536.946 1236.22,536.69 1238.35,536.435 1240.48,536.182 1242.61,535.93 1244.75,535.681 1246.88,535.432 1249.01,535.185 1251.14,534.94 1253.27,534.696 1255.4,534.454 1257.53,534.213 1259.66,533.974 1261.79,533.736 1263.92,533.5 1266.05,533.265 1268.18,533.032 1270.32,532.8 1272.45,532.57 1274.58,532.341 1276.71,532.114 1278.84,531.887 1280.97,531.663 1283.1,531.439 1285.23,531.218 1287.36,530.997 1289.49,530.778 1291.62,530.56 1293.75,530.344 1295.88,530.128 1298.02,529.915 1300.15,529.702 1302.28,529.491 1304.41,529.281 1306.54,529.073 1308.67,528.866 1310.8,528.66 1312.93,528.455 1315.06,528.252 1317.19,528.049 1319.32,527.848 1321.45,527.649 1323.58,527.45 1325.72,527.253 1327.85,527.057 1329.98,526.862 1332.11,526.669 1334.24,526.476 1336.37,526.285 1338.5,526.095 1340.63,525.906 1342.76,525.719 1344.89,525.532 1347.02,525.347 1349.15,525.162 1351.29,524.979 1353.42,524.797 1355.55,524.617 1357.68,524.437 1359.81,524.258 1361.94,524.081 1364.07,523.904 1366.2,523.729 1368.33,523.555 1370.46,523.382 1372.59,523.21 1374.72,523.039 1376.85,522.869 1378.99,522.7 1381.12,522.532 1383.25,522.365 1385.38,522.2 1387.51,522.035 1389.64,521.871 1391.77,521.709 1393.9,521.547 1396.03,521.386 1398.16,521.227 1400.29,521.068 1402.42,520.91 1404.55,520.754 1406.69,520.598 1408.82,520.443 1410.95,520.29 1413.08,520.137 1415.21,519.985 1417.34,519.834 1419.47,519.684 1421.6,519.535 1423.73,519.387 1425.86,519.24 1427.99,519.093 1430.12,518.948 1432.26,518.803 1434.39,518.66 1436.52,518.517 1438.65,518.375 1440.78,518.234 1442.91,518.094 1445.04,517.955 1447.17,517.817 1449.3,517.679 1451.43,517.543 1453.56,517.407 1455.69,517.272 1457.82,517.138 1459.96,517.005 1462.09,516.873 1464.22,516.741 1466.35,516.61 1468.48,516.48 1470.61,516.351 1472.74,516.223 1474.87,516.095 1477,515.968 1479.13,515.842 1481.26,515.717 1483.39,515.593 1485.52,515.469 1487.66,515.346 1489.79,515.224 1491.92,515.103 1494.05,514.982 1496.18,514.862 1498.31,514.743 1500.44,514.625 1502.57,514.507 1504.7,514.39 1506.83,514.274 1508.96,514.158 1511.09,514.043 1513.23,513.929 1515.36,513.816 1517.49,513.703 1519.62,513.591 1521.75,513.48 1523.88,513.369 1526.01,513.259 1528.14,513.15 1530.27,513.041 1532.4,512.933 1534.53,512.826 1536.66,512.72 1538.79,512.614 1540.93,512.508 1543.06,512.404 1545.19,512.299 1547.32,512.196 1549.45,512.093 1551.58,511.991 1553.71,511.89 1555.84,511.789 1557.97,511.688 1560.1,511.589 1562.23,511.489 1564.36,511.391 1566.49,511.293 1568.63,511.196 1570.76,511.099 1572.89,511.003 1575.02,510.907 1577.15,510.812 1579.28,510.718 1581.41,510.624 1583.54,510.531 1585.67,510.438 1587.8,510.346 1589.93,510.254 1592.06,510.163 1594.2,510.073 1596.33,509.983 1598.46,509.894 1600.59,509.805 1602.72,509.716 1604.85,509.629 1606.98,509.541 1609.11,509.455 1611.24,509.369 1613.37,509.283 1615.5,509.198 1617.63,509.113 1619.76,509.029 1621.9,508.946 1624.03,508.862 1626.16,508.78 1628.29,508.698 1630.42,508.616 1632.55,508.535 1634.68,508.455 1636.81,508.375 1638.94,508.295 1641.07,508.216 1643.2,508.138 1645.33,508.059 1647.46,507.982 1649.6,507.905 1651.73,507.828 1653.86,507.752 1655.99,507.676 1658.12,507.601 1660.25,507.526 1662.38,507.452 1664.51,507.378 1666.64,507.304 1668.77,507.231 1670.9,507.159 1673.03,507.087 1675.17,507.015 1677.3,506.944 1679.43,506.873 1681.56,506.803 1683.69,506.733 1685.82,506.664 1687.95,506.595 1690.08,506.526 1692.21,506.458 1694.34,506.39 1696.47,506.323 1698.6,506.256 1700.73,506.189 1702.87,506.123 1705,506.057 1707.13,505.992 1709.26,505.927 1711.39,505.863 1713.52,505.799 1715.65,505.735 1717.78,505.672 1719.91,505.609 1722.04,505.546 1724.17,505.484 1726.3,505.422 1728.43,505.361 1730.57,505.3 1732.7,505.24 1734.83,505.179 1736.96,505.119 1739.09,505.06 1741.22,505.001 1743.35,504.942 1745.48,504.884 1747.61,504.826 1749.74,504.768 1751.87,504.711 1754,504.654 1756.14,504.597 1758.27,504.541 1760.4,504.485 1762.53,504.429 1764.66,504.374 1766.79,504.319 1768.92,504.264 1771.05,504.21 1773.18,504.156 1775.31,504.103 1777.44,504.05 1779.57,503.997 1781.7,503.944 1783.84,503.892 1785.97,503.84 1788.1,503.788 1790.23,503.737 1792.36,503.686 1794.49,503.635 1796.62,503.585 1798.75,503.535 1800.88,503.485 1803.01,503.435 1805.14,503.386 1807.27,503.337 1809.4,503.289 1811.54,503.24 1813.67,503.192 1815.8,503.145 1817.93,503.097 1820.06,503.05 1822.19,503.003 1824.32,502.957 1826.45,502.911 1828.58,502.865 1830.71,502.819 1832.84,502.773 1834.97,502.728 1837.11,502.683 1839.24,502.639 1841.37,502.594 1843.5,502.55 1845.63,502.506 1847.76,502.463 1849.89,502.419 1852.02,502.376 1854.15,502.334 1856.28,502.291 1858.41,502.249 1860.54,502.207 1862.67,502.165 1864.81,502.123 1866.94,502.082 1869.07,502.041 1871.2,502 1873.33,501.959 1875.46,501.919 1877.59,501.879 1879.72,501.839 1881.85,501.8 1883.98,501.76 1886.11,501.721 1888.24,501.682 1890.37,501.643 1892.51,501.605 1894.64,501.567 1896.77,501.529 1898.9,501.491 1901.03,501.453 1903.16,501.416 1905.29,501.379 1907.42,501.342 1909.55,501.305 1911.68,501.269 1913.81,501.233 1915.94,501.197 1918.07,501.161 1920.21,501.125 1922.34,501.09 1924.47,501.055 1926.6,501.02 1928.73,500.985 1930.86,500.951 1932.99,500.916 1935.12,500.882 1937.25,500.848 1939.38,500.815 1941.51,500.781 1943.64,500.748 1945.78,500.715 1947.91,500.682 1950.04,500.649 1952.17,500.617 1954.3,500.585 1956.43,500.553 1958.56,500.521 1960.69,500.489 1962.82,500.458 1964.95,500.426 1967.08,500.395 1969.21,500.364 1971.34,500.333 1973.48,500.303 1975.61,500.273 1977.74,500.242 1979.87,500.212 1982,500.183 1984.13,500.153 1986.26,500.124 1988.39,500.094 1990.52,500.065 1992.65,500.036 1994.78,500.008 1996.91,499.979 1999.04,499.951 2001.18,499.923 2003.31,499.895 2005.44,499.867 2007.57,499.839 2009.7,499.812 2011.83,499.784 2013.96,499.757 2016.09,499.73 2018.22,499.703 2020.35,499.677 2022.48,499.65 2024.61,499.624 2026.75,499.598 2028.88,499.572 2031.01,499.546 2033.14,499.52 2035.27,499.495 2037.4,499.469 2039.53,499.444 2041.66,499.419 2043.79,499.394 2045.92,499.369 2048.05,499.345 2050.18,499.32 2052.31,499.296 2054.45,499.272 2056.58,499.248 2058.71,499.224 2060.84,499.2 2062.97,499.177 2065.1,499.153 2067.23,499.13 2069.36,499.107 2071.49,499.084 2073.62,499.061 2075.75,499.038 2077.88,499.016 2080.01,498.993 2082.15,498.971 2084.28,498.949 2086.41,498.927 2088.54,498.905 2090.67,498.883 2092.8,498.862 2094.93,498.84 2097.06,498.819 2099.19,498.798 2101.32,498.777 2103.45,498.756 2105.58,498.735 2107.72,498.714 2109.85,498.694 2111.98,498.673 2114.11,498.653 2116.24,498.633 2118.37,498.613 2120.5,498.593 2122.63,498.573 2124.76,498.553 2126.89,498.534 2129.02,498.514 2131.15,498.495 2133.28,498.476 2135.42,498.456 2137.55,498.437 2139.68,498.419 2141.81,498.4 2143.94,498.381 2146.07,498.363 2148.2,498.344 2150.33,498.326 2152.46,498.308 2154.59,498.289 2156.72,498.271 2158.85,498.254 2160.98,498.236 2163.12,498.218 2165.25,498.201 2167.38,498.183 2169.51,498.166 2171.64,498.148 2173.77,498.131 2175.9,498.114 2178.03,498.097 2180.16,498.08 2182.29,498.064 2184.42,498.047 2186.55,498.03 2188.69,498.014 2190.82,497.998 2192.95,497.981 2195.08,497.965 2197.21,497.949 2199.34,497.933 2201.47,497.917 2203.6,497.901 2205.73,497.886 2207.86,497.87 2209.99,497.854 2212.12,497.839 2214.25,497.824 2216.39,497.808 2218.52,497.793 2220.65,497.778 2222.78,497.763 2224.91,497.748 2227.04,497.733 2229.17,497.719 2231.3,497.704 2233.43,497.689 2235.56,497.675 2237.69,497.661 2239.82,497.646 2241.95,497.632 2244.09,497.618 2246.22,497.604 2248.35,497.59 2250.48,497.576 2252.61,497.562 2254.74,497.549 2256.87,497.535 2259,497.521 2261.13,497.508 2263.26,497.495 2265.39,497.481 2267.52,497.468 2269.66,497.455 2271.79,497.442 2273.92,497.429 2276.05,497.416 2278.18,497.403 2280.31,497.39 2282.44,497.378 2284.57,497.365 2286.7,497.353 2288.83,497.34 2290.96,497.328 2293.09,497.316 2295.22,497.303 2297.36,497.291 2299.49,497.279 2301.62,497.267 2303.75,497.255 2305.88,497.243 2308.01,497.232 2310.14,497.22 2312.27,497.208 2314.4,497.197 2316.53,497.185 2318.66,497.174 2320.79,497.162 2322.92,497.151 2325.06,497.14 2327.19,497.129 2329.32,497.118 2331.45,497.107 2333.58,497.096 2335.71,497.085 2337.84,497.074 2339.97,497.063 2342.1,497.053 2344.23,497.042 2346.36,497.031 2348.49,497.021 2350.63,497.01 2352.76,497 "/>
<path clip-path="url(#clip980)" d="M1809.54 248.629 L2281.8 248.629 L2281.8 93.1086 L1809.54 93.1086  Z" fill="#ffffff" fill-rule="evenodd" fill-opacity="1"/>
<polyline clip-path="url(#clip980)" style="stroke:#000000; stroke-linecap:round; stroke-linejoin:round; stroke-width:4; stroke-opacity:1; fill:none" points="1809.54,248.629 2281.8,248.629 2281.8,93.1086 1809.54,93.1086 1809.54,248.629 "/>
<polyline clip-path="url(#clip980)" style="stroke:#009af9; stroke-linecap:round; stroke-linejoin:round; stroke-width:4; stroke-opacity:1; fill:none" points="1833.19,144.949 1975.1,144.949 "/>
<path clip-path="url(#clip980)" d="M1998.75 136.303 L2003.27 136.303 L2011.37 158.062 L2019.47 136.303 L2023.98 136.303 L2014.26 162.229 L2008.47 162.229 L1998.75 136.303 Z" fill="#000000" fill-rule="nonzero" fill-opacity="1" /><path clip-path="url(#clip980)" d="M2031.28 158.293 L2038.91 158.293 L2038.91 131.928 L2030.6 133.595 L2030.6 129.335 L2038.87 127.669 L2043.54 127.669 L2043.54 158.293 L2051.18 158.293 L2051.18 162.229 L2031.28 162.229 L2031.28 158.293 Z" fill="#000000" fill-rule="nonzero" fill-opacity="1" /><path clip-path="url(#clip980)" d="M2069.28 145.585 L2069.28 152.807 L2077.41 152.807 L2077.41 155.006 L2069.28 155.006 L2069.28 162.229 L2066.85 162.229 L2066.85 155.006 L2058.73 155.006 L2058.73 152.807 L2066.85 152.807 L2066.85 145.585 L2069.28 145.585 Z" fill="#000000" fill-rule="nonzero" fill-opacity="1" /><path clip-path="url(#clip980)" d="M2101.58 137.067 L2101.58 141.094 Q2099.77 140.169 2097.83 139.706 Q2095.88 139.243 2093.8 139.243 Q2090.63 139.243 2089.03 140.215 Q2087.46 141.187 2087.46 143.131 Q2087.46 144.613 2088.59 145.469 Q2089.72 146.303 2093.15 147.067 L2094.61 147.391 Q2099.15 148.363 2101.04 150.145 Q2102.96 151.905 2102.96 155.076 Q2102.96 158.687 2100.09 160.793 Q2097.25 162.9 2092.25 162.9 Q2090.16 162.9 2087.9 162.483 Q2085.65 162.09 2083.15 161.28 L2083.15 156.881 Q2085.51 158.108 2087.8 158.733 Q2090.09 159.335 2092.34 159.335 Q2095.35 159.335 2096.97 158.317 Q2098.59 157.275 2098.59 155.4 Q2098.59 153.664 2097.41 152.738 Q2096.25 151.812 2092.29 150.956 L2090.81 150.608 Q2086.85 149.775 2085.09 148.062 Q2083.34 146.326 2083.34 143.317 Q2083.34 139.659 2085.93 137.669 Q2088.52 135.678 2093.29 135.678 Q2095.65 135.678 2097.73 136.025 Q2099.82 136.372 2101.58 137.067 Z" fill="#000000" fill-rule="nonzero" fill-opacity="1" /><path clip-path="url(#clip980)" d="M2113.96 128.942 L2113.96 136.303 L2122.73 136.303 L2122.73 139.613 L2113.96 139.613 L2113.96 153.687 Q2113.96 156.858 2114.82 157.761 Q2115.7 158.664 2118.36 158.664 L2122.73 158.664 L2122.73 162.229 L2118.36 162.229 Q2113.43 162.229 2111.55 160.4 Q2109.68 158.548 2109.68 153.687 L2109.68 139.613 L2106.55 139.613 L2106.55 136.303 L2109.68 136.303 L2109.68 128.942 L2113.96 128.942 Z" fill="#000000" fill-rule="nonzero" fill-opacity="1" /><path clip-path="url(#clip980)" d="M2138.38 139.289 Q2134.96 139.289 2132.96 141.974 Q2130.97 144.636 2130.97 149.289 Q2130.97 153.942 2132.94 156.627 Q2134.93 159.289 2138.38 159.289 Q2141.78 159.289 2143.77 156.604 Q2145.77 153.918 2145.77 149.289 Q2145.77 144.682 2143.77 141.997 Q2141.78 139.289 2138.38 139.289 M2138.38 135.678 Q2143.94 135.678 2147.11 139.289 Q2150.28 142.9 2150.28 149.289 Q2150.28 155.655 2147.11 159.289 Q2143.94 162.9 2138.38 162.9 Q2132.8 162.9 2129.63 159.289 Q2126.48 155.655 2126.48 149.289 Q2126.48 142.9 2129.63 139.289 Q2132.8 135.678 2138.38 135.678 Z" fill="#000000" fill-rule="nonzero" fill-opacity="1" /><path clip-path="url(#clip980)" d="M2172.36 140.284 Q2171.64 139.868 2170.79 139.682 Q2169.95 139.474 2168.94 139.474 Q2165.33 139.474 2163.38 141.835 Q2161.46 144.173 2161.46 148.571 L2161.46 162.229 L2157.18 162.229 L2157.18 136.303 L2161.46 136.303 L2161.46 140.331 Q2162.8 137.969 2164.95 136.835 Q2167.11 135.678 2170.19 135.678 Q2170.63 135.678 2171.16 135.747 Q2171.69 135.794 2172.34 135.909 L2172.36 140.284 Z" fill="#000000" fill-rule="nonzero" fill-opacity="1" /><path clip-path="url(#clip980)" d="M2188.61 149.196 Q2183.45 149.196 2181.46 150.377 Q2179.47 151.557 2179.47 154.405 Q2179.47 156.673 2180.95 158.016 Q2182.45 159.335 2185.02 159.335 Q2188.57 159.335 2190.7 156.835 Q2192.85 154.312 2192.85 150.145 L2192.85 149.196 L2188.61 149.196 M2197.11 147.437 L2197.11 162.229 L2192.85 162.229 L2192.85 158.293 Q2191.39 160.655 2189.21 161.789 Q2187.04 162.9 2183.89 162.9 Q2179.91 162.9 2177.55 160.678 Q2175.21 158.432 2175.21 154.682 Q2175.21 150.307 2178.13 148.085 Q2181.07 145.863 2186.88 145.863 L2192.85 145.863 L2192.85 145.446 Q2192.85 142.507 2190.9 140.909 Q2188.98 139.289 2185.49 139.289 Q2183.27 139.289 2181.16 139.821 Q2179.05 140.354 2177.11 141.419 L2177.11 137.483 Q2179.45 136.581 2181.64 136.141 Q2183.84 135.678 2185.93 135.678 Q2191.55 135.678 2194.33 138.594 Q2197.11 141.511 2197.11 147.437 Z" fill="#000000" fill-rule="nonzero" fill-opacity="1" /><path clip-path="url(#clip980)" d="M2222.94 148.965 Q2222.94 144.335 2221.02 141.789 Q2219.12 139.243 2215.67 139.243 Q2212.25 139.243 2210.33 141.789 Q2208.43 144.335 2208.43 148.965 Q2208.43 153.571 2210.33 156.118 Q2212.25 158.664 2215.67 158.664 Q2219.12 158.664 2221.02 156.118 Q2222.94 153.571 2222.94 148.965 M2227.2 159.011 Q2227.2 165.631 2224.26 168.849 Q2221.32 172.09 2215.26 172.09 Q2213.01 172.09 2211.02 171.742 Q2209.03 171.418 2207.15 170.724 L2207.15 166.58 Q2209.03 167.599 2210.86 168.085 Q2212.69 168.571 2214.58 168.571 Q2218.77 168.571 2220.86 166.372 Q2222.94 164.196 2222.94 159.775 L2222.94 157.668 Q2221.62 159.96 2219.56 161.094 Q2217.5 162.229 2214.63 162.229 Q2209.86 162.229 2206.95 158.594 Q2204.03 154.96 2204.03 148.965 Q2204.03 142.946 2206.95 139.312 Q2209.86 135.678 2214.63 135.678 Q2217.5 135.678 2219.56 136.812 Q2221.62 137.946 2222.94 140.238 L2222.94 136.303 L2227.2 136.303 L2227.2 159.011 Z" fill="#000000" fill-rule="nonzero" fill-opacity="1" /><path clip-path="url(#clip980)" d="M2258.15 148.201 L2258.15 150.284 L2238.57 150.284 Q2238.84 154.682 2241.2 156.997 Q2243.59 159.289 2247.82 159.289 Q2250.28 159.289 2252.57 158.687 Q2254.89 158.085 2257.15 156.881 L2257.15 160.909 Q2254.86 161.881 2252.45 162.391 Q2250.05 162.9 2247.57 162.9 Q2241.37 162.9 2237.73 159.289 Q2234.12 155.678 2234.12 149.52 Q2234.12 143.155 2237.55 139.428 Q2241 135.678 2246.83 135.678 Q2252.06 135.678 2255.09 139.057 Q2258.15 142.414 2258.15 148.201 M2253.89 146.951 Q2253.84 143.456 2251.92 141.372 Q2250.02 139.289 2246.88 139.289 Q2243.31 139.289 2241.16 141.303 Q2239.03 143.317 2238.7 146.974 L2253.89 146.951 Z" fill="#000000" fill-rule="nonzero" fill-opacity="1" /><polyline clip-path="url(#clip980)" style="stroke:#e26f46; stroke-linecap:round; stroke-linejoin:round; stroke-width:4; stroke-opacity:1; fill:none" points="1833.19,196.789 1975.1,196.789 "/>
<path clip-path="url(#clip980)" d="M1998.75 188.143 L2003.27 188.143 L2011.37 209.902 L2019.47 188.143 L2023.98 188.143 L2014.26 214.069 L2008.47 214.069 L1998.75 188.143 Z" fill="#000000" fill-rule="nonzero" fill-opacity="1" /><path clip-path="url(#clip980)" d="M2030.51 179.509 L2048.87 179.509 L2048.87 183.444 L2034.79 183.444 L2034.79 191.916 Q2035.81 191.569 2036.83 191.407 Q2037.85 191.222 2038.87 191.222 Q2044.65 191.222 2048.03 194.393 Q2051.41 197.564 2051.41 202.981 Q2051.41 208.559 2047.94 211.661 Q2044.47 214.74 2038.15 214.74 Q2035.97 214.74 2033.71 214.37 Q2031.46 213.999 2029.05 213.258 L2029.05 208.559 Q2031.14 209.694 2033.36 210.249 Q2035.58 210.805 2038.06 210.805 Q2042.06 210.805 2044.4 208.698 Q2046.74 206.592 2046.74 202.981 Q2046.74 199.37 2044.4 197.263 Q2042.06 195.157 2038.06 195.157 Q2036.18 195.157 2034.31 195.573 Q2032.46 195.99 2030.51 196.87 L2030.51 179.509 Z" fill="#000000" fill-rule="nonzero" fill-opacity="1" /><path clip-path="url(#clip980)" d="M2069.28 197.425 L2069.28 204.647 L2077.41 204.647 L2077.41 206.846 L2069.28 206.846 L2069.28 214.069 L2066.85 214.069 L2066.85 206.846 L2058.73 206.846 L2058.73 204.647 L2066.85 204.647 L2066.85 197.425 L2069.28 197.425 Z" fill="#000000" fill-rule="nonzero" fill-opacity="1" /><path clip-path="url(#clip980)" d="M2101.58 188.907 L2101.58 192.934 Q2099.77 192.009 2097.83 191.546 Q2095.88 191.083 2093.8 191.083 Q2090.63 191.083 2089.03 192.055 Q2087.46 193.027 2087.46 194.971 Q2087.46 196.453 2088.59 197.309 Q2089.72 198.143 2093.15 198.907 L2094.61 199.231 Q2099.15 200.203 2101.04 201.985 Q2102.96 203.745 2102.96 206.916 Q2102.96 210.527 2100.09 212.633 Q2097.25 214.74 2092.25 214.74 Q2090.16 214.74 2087.9 214.323 Q2085.65 213.93 2083.15 213.12 L2083.15 208.721 Q2085.51 209.948 2087.8 210.573 Q2090.09 211.175 2092.34 211.175 Q2095.35 211.175 2096.97 210.157 Q2098.59 209.115 2098.59 207.24 Q2098.59 205.504 2097.41 204.578 Q2096.25 203.652 2092.29 202.796 L2090.81 202.448 Q2086.85 201.615 2085.09 199.902 Q2083.34 198.166 2083.34 195.157 Q2083.34 191.499 2085.93 189.509 Q2088.52 187.518 2093.29 187.518 Q2095.65 187.518 2097.73 187.865 Q2099.82 188.212 2101.58 188.907 Z" fill="#000000" fill-rule="nonzero" fill-opacity="1" /><path clip-path="url(#clip980)" d="M2113.96 180.782 L2113.96 188.143 L2122.73 188.143 L2122.73 191.453 L2113.96 191.453 L2113.96 205.527 Q2113.96 208.698 2114.82 209.601 Q2115.7 210.504 2118.36 210.504 L2122.73 210.504 L2122.73 214.069 L2118.36 214.069 Q2113.43 214.069 2111.55 212.24 Q2109.68 210.388 2109.68 205.527 L2109.68 191.453 L2106.55 191.453 L2106.55 188.143 L2109.68 188.143 L2109.68 180.782 L2113.96 180.782 Z" fill="#000000" fill-rule="nonzero" fill-opacity="1" /><path clip-path="url(#clip980)" d="M2138.38 191.129 Q2134.96 191.129 2132.96 193.814 Q2130.97 196.476 2130.97 201.129 Q2130.97 205.782 2132.94 208.467 Q2134.93 211.129 2138.38 211.129 Q2141.78 211.129 2143.77 208.444 Q2145.77 205.758 2145.77 201.129 Q2145.77 196.522 2143.77 193.837 Q2141.78 191.129 2138.38 191.129 M2138.38 187.518 Q2143.94 187.518 2147.11 191.129 Q2150.28 194.74 2150.28 201.129 Q2150.28 207.495 2147.11 211.129 Q2143.94 214.74 2138.38 214.74 Q2132.8 214.74 2129.63 211.129 Q2126.48 207.495 2126.48 201.129 Q2126.48 194.74 2129.63 191.129 Q2132.8 187.518 2138.38 187.518 Z" fill="#000000" fill-rule="nonzero" fill-opacity="1" /><path clip-path="url(#clip980)" d="M2172.36 192.124 Q2171.64 191.708 2170.79 191.522 Q2169.95 191.314 2168.94 191.314 Q2165.33 191.314 2163.38 193.675 Q2161.46 196.013 2161.46 200.411 L2161.46 214.069 L2157.18 214.069 L2157.18 188.143 L2161.46 188.143 L2161.46 192.171 Q2162.8 189.809 2164.95 188.675 Q2167.11 187.518 2170.19 187.518 Q2170.63 187.518 2171.16 187.587 Q2171.69 187.634 2172.34 187.749 L2172.36 192.124 Z" fill="#000000" fill-rule="nonzero" fill-opacity="1" /><path clip-path="url(#clip980)" d="M2188.61 201.036 Q2183.45 201.036 2181.46 202.217 Q2179.47 203.397 2179.47 206.245 Q2179.47 208.513 2180.95 209.856 Q2182.45 211.175 2185.02 211.175 Q2188.57 211.175 2190.7 208.675 Q2192.85 206.152 2192.85 201.985 L2192.85 201.036 L2188.61 201.036 M2197.11 199.277 L2197.11 214.069 L2192.85 214.069 L2192.85 210.133 Q2191.39 212.495 2189.21 213.629 Q2187.04 214.74 2183.89 214.74 Q2179.91 214.74 2177.55 212.518 Q2175.21 210.272 2175.21 206.522 Q2175.21 202.147 2178.13 199.925 Q2181.07 197.703 2186.88 197.703 L2192.85 197.703 L2192.85 197.286 Q2192.85 194.347 2190.9 192.749 Q2188.98 191.129 2185.49 191.129 Q2183.27 191.129 2181.16 191.661 Q2179.05 192.194 2177.11 193.259 L2177.11 189.323 Q2179.45 188.421 2181.64 187.981 Q2183.84 187.518 2185.93 187.518 Q2191.55 187.518 2194.33 190.434 Q2197.11 193.351 2197.11 199.277 Z" fill="#000000" fill-rule="nonzero" fill-opacity="1" /><path clip-path="url(#clip980)" d="M2222.94 200.805 Q2222.94 196.175 2221.02 193.629 Q2219.12 191.083 2215.67 191.083 Q2212.25 191.083 2210.33 193.629 Q2208.43 196.175 2208.43 200.805 Q2208.43 205.411 2210.33 207.958 Q2212.25 210.504 2215.67 210.504 Q2219.12 210.504 2221.02 207.958 Q2222.94 205.411 2222.94 200.805 M2227.2 210.851 Q2227.2 217.471 2224.26 220.689 Q2221.32 223.93 2215.26 223.93 Q2213.01 223.93 2211.02 223.582 Q2209.03 223.258 2207.15 222.564 L2207.15 218.42 Q2209.03 219.439 2210.86 219.925 Q2212.69 220.411 2214.58 220.411 Q2218.77 220.411 2220.86 218.212 Q2222.94 216.036 2222.94 211.615 L2222.94 209.508 Q2221.62 211.8 2219.56 212.934 Q2217.5 214.069 2214.63 214.069 Q2209.86 214.069 2206.95 210.434 Q2204.03 206.8 2204.03 200.805 Q2204.03 194.786 2206.95 191.152 Q2209.86 187.518 2214.63 187.518 Q2217.5 187.518 2219.56 188.652 Q2221.62 189.786 2222.94 192.078 L2222.94 188.143 L2227.2 188.143 L2227.2 210.851 Z" fill="#000000" fill-rule="nonzero" fill-opacity="1" /><path clip-path="url(#clip980)" d="M2258.15 200.041 L2258.15 202.124 L2238.57 202.124 Q2238.84 206.522 2241.2 208.837 Q2243.59 211.129 2247.82 211.129 Q2250.28 211.129 2252.57 210.527 Q2254.89 209.925 2257.15 208.721 L2257.15 212.749 Q2254.86 213.721 2252.45 214.231 Q2250.05 214.74 2247.57 214.74 Q2241.37 214.74 2237.73 211.129 Q2234.12 207.518 2234.12 201.36 Q2234.12 194.995 2237.55 191.268 Q2241 187.518 2246.83 187.518 Q2252.06 187.518 2255.09 190.897 Q2258.15 194.254 2258.15 200.041 M2253.89 198.791 Q2253.84 195.296 2251.92 193.212 Q2250.02 191.129 2246.88 191.129 Q2243.31 191.129 2241.16 193.143 Q2239.03 195.157 2238.7 198.814 L2253.89 198.791 Z" fill="#000000" fill-rule="nonzero" fill-opacity="1" /></svg>
