<?xml version="1.0" encoding="utf-8"?>
<svg xmlns="http://www.w3.org/2000/svg" xmlns:xlink="http://www.w3.org/1999/xlink" width="600" height="400" viewBox="0 0 2400 1600">
<defs>
  <clipPath id="clip540">
    <rect x="0" y="0" width="2400" height="1600"/>
  </clipPath>
</defs>
<path clip-path="url(#clip540)" d="M0 1600 L2400 1600 L2400 0 L0 0  Z" fill="#ffffff" fill-rule="evenodd" fill-opacity="1"/>
<defs>
  <clipPath id="clip541">
    <rect x="480" y="0" width="1681" height="1600"/>
  </clipPath>
</defs>
<path clip-path="url(#clip540)" d="M194.422 1423.18 L2352.76 1423.18 L2352.76 47.2441 L194.422 47.2441  Z" fill="#ffffff" fill-rule="evenodd" fill-opacity="1"/>
<defs>
  <clipPath id="clip542">
    <rect x="194" y="47" width="2159" height="1377"/>
  </clipPath>
</defs>
<polyline clip-path="url(#clip542)" style="stroke:#000000; stroke-linecap:round; stroke-linejoin:round; stroke-width:2; stroke-opacity:0.1; fill:none" points="194.422,1423.18 194.422,47.2441 "/>
<polyline clip-path="url(#clip542)" style="stroke:#000000; stroke-linecap:round; stroke-linejoin:round; stroke-width:2; stroke-opacity:0.1; fill:none" points="734.006,1423.18 734.006,47.2441 "/>
<polyline clip-path="url(#clip542)" style="stroke:#000000; stroke-linecap:round; stroke-linejoin:round; stroke-width:2; stroke-opacity:0.1; fill:none" points="1273.59,1423.18 1273.59,47.2441 "/>
<polyline clip-path="url(#clip542)" style="stroke:#000000; stroke-linecap:round; stroke-linejoin:round; stroke-width:2; stroke-opacity:0.1; fill:none" points="1813.17,1423.18 1813.17,47.2441 "/>
<polyline clip-path="url(#clip542)" style="stroke:#000000; stroke-linecap:round; stroke-linejoin:round; stroke-width:2; stroke-opacity:0.1; fill:none" points="2352.76,1423.18 2352.76,47.2441 "/>
<polyline clip-path="url(#clip542)" style="stroke:#000000; stroke-linecap:round; stroke-linejoin:round; stroke-width:2; stroke-opacity:0.1; fill:none" points="194.422,1327.81 2352.76,1327.81 "/>
<polyline clip-path="url(#clip542)" style="stroke:#000000; stroke-linecap:round; stroke-linejoin:round; stroke-width:2; stroke-opacity:0.1; fill:none" points="194.422,1138.74 2352.76,1138.74 "/>
<polyline clip-path="url(#clip542)" style="stroke:#000000; stroke-linecap:round; stroke-linejoin:round; stroke-width:2; stroke-opacity:0.1; fill:none" points="194.422,949.663 2352.76,949.663 "/>
<polyline clip-path="url(#clip542)" style="stroke:#000000; stroke-linecap:round; stroke-linejoin:round; stroke-width:2; stroke-opacity:0.1; fill:none" points="194.422,760.59 2352.76,760.59 "/>
<polyline clip-path="url(#clip542)" style="stroke:#000000; stroke-linecap:round; stroke-linejoin:round; stroke-width:2; stroke-opacity:0.1; fill:none" points="194.422,571.517 2352.76,571.517 "/>
<polyline clip-path="url(#clip542)" style="stroke:#000000; stroke-linecap:round; stroke-linejoin:round; stroke-width:2; stroke-opacity:0.1; fill:none" points="194.422,382.444 2352.76,382.444 "/>
<polyline clip-path="url(#clip542)" style="stroke:#000000; stroke-linecap:round; stroke-linejoin:round; stroke-width:2; stroke-opacity:0.1; fill:none" points="194.422,193.371 2352.76,193.371 "/>
<polyline clip-path="url(#clip540)" style="stroke:#000000; stroke-linecap:round; stroke-linejoin:round; stroke-width:4; stroke-opacity:1; fill:none" points="194.422,1423.18 2352.76,1423.18 "/>
<polyline clip-path="url(#clip540)" style="stroke:#000000; stroke-linecap:round; stroke-linejoin:round; stroke-width:4; stroke-opacity:1; fill:none" points="194.422,1423.18 194.422,1404.28 "/>
<polyline clip-path="url(#clip540)" style="stroke:#000000; stroke-linecap:round; stroke-linejoin:round; stroke-width:4; stroke-opacity:1; fill:none" points="734.006,1423.18 734.006,1404.28 "/>
<polyline clip-path="url(#clip540)" style="stroke:#000000; stroke-linecap:round; stroke-linejoin:round; stroke-width:4; stroke-opacity:1; fill:none" points="1273.59,1423.18 1273.59,1404.28 "/>
<polyline clip-path="url(#clip540)" style="stroke:#000000; stroke-linecap:round; stroke-linejoin:round; stroke-width:4; stroke-opacity:1; fill:none" points="1813.17,1423.18 1813.17,1404.28 "/>
<polyline clip-path="url(#clip540)" style="stroke:#000000; stroke-linecap:round; stroke-linejoin:round; stroke-width:4; stroke-opacity:1; fill:none" points="2352.76,1423.18 2352.76,1404.28 "/>
<path clip-path="url(#clip540)" d="M171.806 1454.1 Q168.195 1454.1 166.367 1457.66 Q164.561 1461.2 164.561 1468.33 Q164.561 1475.44 166.367 1479.01 Q168.195 1482.55 171.806 1482.55 Q175.441 1482.55 177.246 1479.01 Q179.075 1475.44 179.075 1468.33 Q179.075 1461.2 177.246 1457.66 Q175.441 1454.1 171.806 1454.1 M171.806 1450.39 Q177.617 1450.39 180.672 1455 Q183.751 1459.58 183.751 1468.33 Q183.751 1477.06 180.672 1481.67 Q177.617 1486.25 171.806 1486.25 Q165.996 1486.25 162.918 1481.67 Q159.862 1477.06 159.862 1468.33 Q159.862 1459.58 162.918 1455 Q165.996 1450.39 171.806 1450.39 Z" fill="#000000" fill-rule="nonzero" fill-opacity="1" /><path clip-path="url(#clip540)" d="M191.968 1479.7 L196.853 1479.7 L196.853 1485.58 L191.968 1485.58 L191.968 1479.7 Z" fill="#000000" fill-rule="nonzero" fill-opacity="1" /><path clip-path="url(#clip540)" d="M217.038 1454.1 Q213.427 1454.1 211.598 1457.66 Q209.792 1461.2 209.792 1468.33 Q209.792 1475.44 211.598 1479.01 Q213.427 1482.55 217.038 1482.55 Q220.672 1482.55 222.478 1479.01 Q224.306 1475.44 224.306 1468.33 Q224.306 1461.2 222.478 1457.66 Q220.672 1454.1 217.038 1454.1 M217.038 1450.39 Q222.848 1450.39 225.903 1455 Q228.982 1459.58 228.982 1468.33 Q228.982 1477.06 225.903 1481.67 Q222.848 1486.25 217.038 1486.25 Q211.228 1486.25 208.149 1481.67 Q205.093 1477.06 205.093 1468.33 Q205.093 1459.58 208.149 1455 Q211.228 1450.39 217.038 1450.39 Z" fill="#000000" fill-rule="nonzero" fill-opacity="1" /><path clip-path="url(#clip540)" d="M711.888 1454.1 Q708.277 1454.1 706.448 1457.66 Q704.642 1461.2 704.642 1468.33 Q704.642 1475.44 706.448 1479.01 Q708.277 1482.55 711.888 1482.55 Q715.522 1482.55 717.327 1479.01 Q719.156 1475.44 719.156 1468.33 Q719.156 1461.2 717.327 1457.66 Q715.522 1454.1 711.888 1454.1 M711.888 1450.39 Q717.698 1450.39 720.753 1455 Q723.832 1459.58 723.832 1468.33 Q723.832 1477.06 720.753 1481.67 Q717.698 1486.25 711.888 1486.25 Q706.077 1486.25 702.999 1481.67 Q699.943 1477.06 699.943 1468.33 Q699.943 1459.58 702.999 1455 Q706.077 1450.39 711.888 1450.39 Z" fill="#000000" fill-rule="nonzero" fill-opacity="1" /><path clip-path="url(#clip540)" d="M732.05 1479.7 L736.934 1479.7 L736.934 1485.58 L732.05 1485.58 L732.05 1479.7 Z" fill="#000000" fill-rule="nonzero" fill-opacity="1" /><path clip-path="url(#clip540)" d="M747.165 1451.02 L765.522 1451.02 L765.522 1454.96 L751.448 1454.96 L751.448 1463.43 Q752.466 1463.08 753.485 1462.92 Q754.503 1462.73 755.522 1462.73 Q761.309 1462.73 764.688 1465.9 Q768.068 1469.08 768.068 1474.49 Q768.068 1480.07 764.596 1483.17 Q761.123 1486.25 754.804 1486.25 Q752.628 1486.25 750.36 1485.88 Q748.114 1485.51 745.707 1484.77 L745.707 1480.07 Q747.79 1481.2 750.012 1481.76 Q752.235 1482.32 754.711 1482.32 Q758.716 1482.32 761.054 1480.21 Q763.392 1478.1 763.392 1474.49 Q763.392 1470.88 761.054 1468.77 Q758.716 1466.67 754.711 1466.67 Q752.836 1466.67 750.961 1467.08 Q749.11 1467.5 747.165 1468.38 L747.165 1451.02 Z" fill="#000000" fill-rule="nonzero" fill-opacity="1" /><path clip-path="url(#clip540)" d="M1240.74 1481.64 L1248.38 1481.64 L1248.38 1455.28 L1240.07 1456.95 L1240.07 1452.69 L1248.33 1451.02 L1253.01 1451.02 L1253.01 1481.64 L1260.65 1481.64 L1260.65 1485.58 L1240.74 1485.58 L1240.74 1481.64 Z" fill="#000000" fill-rule="nonzero" fill-opacity="1" /><path clip-path="url(#clip540)" d="M1270.09 1479.7 L1274.98 1479.7 L1274.98 1485.58 L1270.09 1485.58 L1270.09 1479.7 Z" fill="#000000" fill-rule="nonzero" fill-opacity="1" /><path clip-path="url(#clip540)" d="M1295.16 1454.1 Q1291.55 1454.1 1289.72 1457.66 Q1287.92 1461.2 1287.92 1468.33 Q1287.92 1475.44 1289.72 1479.01 Q1291.55 1482.55 1295.16 1482.55 Q1298.8 1482.55 1300.6 1479.01 Q1302.43 1475.44 1302.43 1468.33 Q1302.43 1461.2 1300.6 1457.66 Q1298.8 1454.1 1295.16 1454.1 M1295.16 1450.39 Q1300.97 1450.39 1304.03 1455 Q1307.11 1459.58 1307.11 1468.33 Q1307.11 1477.06 1304.03 1481.67 Q1300.97 1486.25 1295.16 1486.25 Q1289.35 1486.25 1286.27 1481.67 Q1283.22 1477.06 1283.22 1468.33 Q1283.22 1459.58 1286.27 1455 Q1289.35 1450.39 1295.16 1450.39 Z" fill="#000000" fill-rule="nonzero" fill-opacity="1" /><path clip-path="url(#clip540)" d="M1780.82 1481.64 L1788.46 1481.64 L1788.46 1455.28 L1780.15 1456.95 L1780.15 1452.69 L1788.42 1451.02 L1793.09 1451.02 L1793.09 1481.64 L1800.73 1481.64 L1800.73 1485.58 L1780.82 1485.58 L1780.82 1481.64 Z" fill="#000000" fill-rule="nonzero" fill-opacity="1" /><path clip-path="url(#clip540)" d="M1810.17 1479.7 L1815.06 1479.7 L1815.06 1485.58 L1810.17 1485.58 L1810.17 1479.7 Z" fill="#000000" fill-rule="nonzero" fill-opacity="1" /><path clip-path="url(#clip540)" d="M1825.29 1451.02 L1843.65 1451.02 L1843.65 1454.96 L1829.57 1454.96 L1829.57 1463.43 Q1830.59 1463.08 1831.61 1462.92 Q1832.63 1462.73 1833.65 1462.73 Q1839.43 1462.73 1842.81 1465.9 Q1846.19 1469.08 1846.19 1474.49 Q1846.19 1480.07 1842.72 1483.17 Q1839.25 1486.25 1832.93 1486.25 Q1830.75 1486.25 1828.48 1485.88 Q1826.24 1485.51 1823.83 1484.77 L1823.83 1480.07 Q1825.92 1481.2 1828.14 1481.76 Q1830.36 1482.32 1832.84 1482.32 Q1836.84 1482.32 1839.18 1480.21 Q1841.52 1478.1 1841.52 1474.49 Q1841.52 1470.88 1839.18 1468.77 Q1836.84 1466.67 1832.84 1466.67 Q1830.96 1466.67 1829.09 1467.08 Q1827.23 1467.5 1825.29 1468.38 L1825.29 1451.02 Z" fill="#000000" fill-rule="nonzero" fill-opacity="1" /><path clip-path="url(#clip540)" d="M2323.99 1481.64 L2340.31 1481.64 L2340.31 1485.58 L2318.37 1485.58 L2318.37 1481.64 Q2321.03 1478.89 2325.61 1474.26 Q2330.22 1469.61 2331.4 1468.27 Q2333.65 1465.74 2334.53 1464.01 Q2335.43 1462.25 2335.43 1460.56 Q2335.43 1457.8 2333.49 1456.07 Q2331.56 1454.33 2328.46 1454.33 Q2326.26 1454.33 2323.81 1455.09 Q2321.38 1455.86 2318.6 1457.41 L2318.6 1452.69 Q2321.43 1451.55 2323.88 1450.97 Q2326.33 1450.39 2328.37 1450.39 Q2333.74 1450.39 2336.93 1453.08 Q2340.13 1455.77 2340.13 1460.26 Q2340.13 1462.39 2339.32 1464.31 Q2338.53 1466.2 2336.42 1468.8 Q2335.85 1469.47 2332.74 1472.69 Q2329.64 1475.88 2323.99 1481.64 Z" fill="#000000" fill-rule="nonzero" fill-opacity="1" /><path clip-path="url(#clip540)" d="M2350.13 1479.7 L2355.01 1479.7 L2355.01 1485.58 L2350.13 1485.58 L2350.13 1479.7 Z" fill="#000000" fill-rule="nonzero" fill-opacity="1" /><path clip-path="url(#clip540)" d="M2375.2 1454.1 Q2371.59 1454.1 2369.76 1457.66 Q2367.95 1461.2 2367.95 1468.33 Q2367.95 1475.44 2369.76 1479.01 Q2371.59 1482.55 2375.2 1482.55 Q2378.83 1482.55 2380.64 1479.01 Q2382.47 1475.44 2382.47 1468.33 Q2382.47 1461.2 2380.64 1457.66 Q2378.83 1454.1 2375.2 1454.1 M2375.2 1450.39 Q2381.01 1450.39 2384.06 1455 Q2387.14 1459.58 2387.14 1468.33 Q2387.14 1477.06 2384.06 1481.67 Q2381.01 1486.25 2375.2 1486.25 Q2369.39 1486.25 2366.31 1481.67 Q2363.25 1477.06 2363.25 1468.33 Q2363.25 1459.58 2366.31 1455 Q2369.39 1450.39 2375.2 1450.39 Z" fill="#000000" fill-rule="nonzero" fill-opacity="1" /><path clip-path="url(#clip540)" d="M1272.65 1522.27 L1272.65 1532.4 L1284.71 1532.4 L1284.71 1536.95 L1272.65 1536.95 L1272.65 1556.3 Q1272.65 1560.66 1273.83 1561.9 Q1275.04 1563.14 1278.7 1563.14 L1284.71 1563.14 L1284.71 1568.04 L1278.7 1568.04 Q1271.92 1568.04 1269.34 1565.53 Q1266.76 1562.98 1266.76 1556.3 L1266.76 1536.95 L1262.46 1536.95 L1262.46 1532.4 L1266.76 1532.4 L1266.76 1522.27 L1272.65 1522.27 Z" fill="#000000" fill-rule="nonzero" fill-opacity="1" /><polyline clip-path="url(#clip540)" style="stroke:#000000; stroke-linecap:round; stroke-linejoin:round; stroke-width:4; stroke-opacity:1; fill:none" points="194.422,1423.18 194.422,47.2441 "/>
<polyline clip-path="url(#clip540)" style="stroke:#000000; stroke-linecap:round; stroke-linejoin:round; stroke-width:4; stroke-opacity:1; fill:none" points="194.422,1327.81 213.32,1327.81 "/>
<polyline clip-path="url(#clip540)" style="stroke:#000000; stroke-linecap:round; stroke-linejoin:round; stroke-width:4; stroke-opacity:1; fill:none" points="194.422,1138.74 213.32,1138.74 "/>
<polyline clip-path="url(#clip540)" style="stroke:#000000; stroke-linecap:round; stroke-linejoin:round; stroke-width:4; stroke-opacity:1; fill:none" points="194.422,949.663 213.32,949.663 "/>
<polyline clip-path="url(#clip540)" style="stroke:#000000; stroke-linecap:round; stroke-linejoin:round; stroke-width:4; stroke-opacity:1; fill:none" points="194.422,760.59 213.32,760.59 "/>
<polyline clip-path="url(#clip540)" style="stroke:#000000; stroke-linecap:round; stroke-linejoin:round; stroke-width:4; stroke-opacity:1; fill:none" points="194.422,571.517 213.32,571.517 "/>
<polyline clip-path="url(#clip540)" style="stroke:#000000; stroke-linecap:round; stroke-linejoin:round; stroke-width:4; stroke-opacity:1; fill:none" points="194.422,382.444 213.32,382.444 "/>
<polyline clip-path="url(#clip540)" style="stroke:#000000; stroke-linecap:round; stroke-linejoin:round; stroke-width:4; stroke-opacity:1; fill:none" points="194.422,193.371 213.32,193.371 "/>
<path clip-path="url(#clip540)" d="M51.5708 1328.26 L81.2466 1328.26 L81.2466 1332.2 L51.5708 1332.2 L51.5708 1328.26 Z" fill="#000000" fill-rule="nonzero" fill-opacity="1" /><path clip-path="url(#clip540)" d="M101.339 1313.61 Q97.728 1313.61 95.8993 1317.17 Q94.0937 1320.71 94.0937 1327.84 Q94.0937 1334.95 95.8993 1338.51 Q97.728 1342.06 101.339 1342.06 Q104.973 1342.06 106.779 1338.51 Q108.608 1334.95 108.608 1327.84 Q108.608 1320.71 106.779 1317.17 Q104.973 1313.61 101.339 1313.61 M101.339 1309.9 Q107.149 1309.9 110.205 1314.51 Q113.283 1319.09 113.283 1327.84 Q113.283 1336.57 110.205 1341.18 Q107.149 1345.76 101.339 1345.76 Q95.5289 1345.76 92.4502 1341.18 Q89.3947 1336.57 89.3947 1327.84 Q89.3947 1319.09 92.4502 1314.51 Q95.5289 1309.9 101.339 1309.9 Z" fill="#000000" fill-rule="nonzero" fill-opacity="1" /><path clip-path="url(#clip540)" d="M121.501 1339.21 L126.385 1339.21 L126.385 1345.09 L121.501 1345.09 L121.501 1339.21 Z" fill="#000000" fill-rule="nonzero" fill-opacity="1" /><path clip-path="url(#clip540)" d="M146.57 1328.68 Q143.237 1328.68 141.316 1330.46 Q139.418 1332.24 139.418 1335.37 Q139.418 1338.49 141.316 1340.27 Q143.237 1342.06 146.57 1342.06 Q149.904 1342.06 151.825 1340.27 Q153.746 1338.47 153.746 1335.37 Q153.746 1332.24 151.825 1330.46 Q149.927 1328.68 146.57 1328.68 M141.894 1326.69 Q138.885 1325.95 137.195 1323.89 Q135.529 1321.83 135.529 1318.86 Q135.529 1314.72 138.469 1312.31 Q141.431 1309.9 146.57 1309.9 Q151.732 1309.9 154.672 1312.31 Q157.612 1314.72 157.612 1318.86 Q157.612 1321.83 155.922 1323.89 Q154.255 1325.95 151.269 1326.69 Q154.649 1327.47 156.524 1329.76 Q158.422 1332.06 158.422 1335.37 Q158.422 1340.39 155.343 1343.07 Q152.288 1345.76 146.57 1345.76 Q140.853 1345.76 137.774 1343.07 Q134.719 1340.39 134.719 1335.37 Q134.719 1332.06 136.617 1329.76 Q138.515 1327.47 141.894 1326.69 M140.181 1319.3 Q140.181 1321.99 141.848 1323.49 Q143.538 1325 146.57 1325 Q149.58 1325 151.269 1323.49 Q152.982 1321.99 152.982 1319.3 Q152.982 1316.62 151.269 1315.11 Q149.58 1313.61 146.57 1313.61 Q143.538 1313.61 141.848 1315.11 Q140.181 1316.62 140.181 1319.3 Z" fill="#000000" fill-rule="nonzero" fill-opacity="1" /><path clip-path="url(#clip540)" d="M52.381 1139.19 L82.0568 1139.19 L82.0568 1143.12 L52.381 1143.12 L52.381 1139.19 Z" fill="#000000" fill-rule="nonzero" fill-opacity="1" /><path clip-path="url(#clip540)" d="M102.149 1124.53 Q98.5382 1124.53 96.7095 1128.1 Q94.9039 1131.64 94.9039 1138.77 Q94.9039 1145.88 96.7095 1149.44 Q98.5382 1152.98 102.149 1152.98 Q105.783 1152.98 107.589 1149.44 Q109.418 1145.88 109.418 1138.77 Q109.418 1131.64 107.589 1128.1 Q105.783 1124.53 102.149 1124.53 M102.149 1120.83 Q107.959 1120.83 111.015 1125.44 Q114.094 1130.02 114.094 1138.77 Q114.094 1147.5 111.015 1152.1 Q107.959 1156.69 102.149 1156.69 Q96.3391 1156.69 93.2604 1152.1 Q90.2049 1147.5 90.2049 1138.77 Q90.2049 1130.02 93.2604 1125.44 Q96.3391 1120.83 102.149 1120.83 Z" fill="#000000" fill-rule="nonzero" fill-opacity="1" /><path clip-path="url(#clip540)" d="M122.311 1150.14 L127.195 1150.14 L127.195 1156.02 L122.311 1156.02 L122.311 1150.14 Z" fill="#000000" fill-rule="nonzero" fill-opacity="1" /><path clip-path="url(#clip540)" d="M136.2 1121.46 L158.422 1121.46 L158.422 1123.45 L145.876 1156.02 L140.992 1156.02 L152.797 1125.39 L136.2 1125.39 L136.2 1121.46 Z" fill="#000000" fill-rule="nonzero" fill-opacity="1" /><path clip-path="url(#clip540)" d="M51.3162 950.114 L80.992 950.114 L80.992 954.049 L51.3162 954.049 L51.3162 950.114 Z" fill="#000000" fill-rule="nonzero" fill-opacity="1" /><path clip-path="url(#clip540)" d="M101.084 935.462 Q97.4734 935.462 95.6447 939.026 Q93.8391 942.568 93.8391 949.698 Q93.8391 956.804 95.6447 960.369 Q97.4734 963.91 101.084 963.91 Q104.719 963.91 106.524 960.369 Q108.353 956.804 108.353 949.698 Q108.353 942.568 106.524 939.026 Q104.719 935.462 101.084 935.462 M101.084 931.758 Q106.895 931.758 109.95 936.364 Q113.029 940.948 113.029 949.698 Q113.029 958.424 109.95 963.031 Q106.895 967.614 101.084 967.614 Q95.2743 967.614 92.1956 963.031 Q89.1401 958.424 89.1401 949.698 Q89.1401 940.948 92.1956 936.364 Q95.2743 931.758 101.084 931.758 Z" fill="#000000" fill-rule="nonzero" fill-opacity="1" /><path clip-path="url(#clip540)" d="M121.246 961.063 L126.131 961.063 L126.131 966.943 L121.246 966.943 L121.246 961.063 Z" fill="#000000" fill-rule="nonzero" fill-opacity="1" /><path clip-path="url(#clip540)" d="M146.894 947.799 Q143.746 947.799 141.894 949.952 Q140.066 952.105 140.066 955.855 Q140.066 959.582 141.894 961.758 Q143.746 963.91 146.894 963.91 Q150.043 963.91 151.871 961.758 Q153.723 959.582 153.723 955.855 Q153.723 952.105 151.871 949.952 Q150.043 947.799 146.894 947.799 M156.177 933.147 L156.177 937.406 Q154.417 936.573 152.612 936.133 Q150.83 935.693 149.07 935.693 Q144.441 935.693 141.987 938.818 Q139.556 941.943 139.209 948.262 Q140.575 946.249 142.635 945.184 Q144.695 944.096 147.172 944.096 Q152.38 944.096 155.39 947.267 Q158.422 950.415 158.422 955.855 Q158.422 961.179 155.274 964.397 Q152.126 967.614 146.894 967.614 Q140.899 967.614 137.728 963.031 Q134.556 958.424 134.556 949.698 Q134.556 941.503 138.445 936.642 Q142.334 931.758 148.885 931.758 Q150.644 931.758 152.427 932.105 Q154.232 932.452 156.177 933.147 Z" fill="#000000" fill-rule="nonzero" fill-opacity="1" /><path clip-path="url(#clip540)" d="M52.4736 761.041 L82.1494 761.041 L82.1494 764.976 L52.4736 764.976 L52.4736 761.041 Z" fill="#000000" fill-rule="nonzero" fill-opacity="1" /><path clip-path="url(#clip540)" d="M102.242 746.389 Q98.6308 746.389 96.8021 749.953 Q94.9965 753.495 94.9965 760.625 Q94.9965 767.731 96.8021 771.296 Q98.6308 774.837 102.242 774.837 Q105.876 774.837 107.682 771.296 Q109.51 767.731 109.51 760.625 Q109.51 753.495 107.682 749.953 Q105.876 746.389 102.242 746.389 M102.242 742.685 Q108.052 742.685 111.108 747.291 Q114.186 751.875 114.186 760.625 Q114.186 769.351 111.108 773.958 Q108.052 778.541 102.242 778.541 Q96.4317 778.541 93.353 773.958 Q90.2975 769.351 90.2975 760.625 Q90.2975 751.875 93.353 747.291 Q96.4317 742.685 102.242 742.685 Z" fill="#000000" fill-rule="nonzero" fill-opacity="1" /><path clip-path="url(#clip540)" d="M122.404 771.99 L127.288 771.99 L127.288 777.87 L122.404 777.87 L122.404 771.99 Z" fill="#000000" fill-rule="nonzero" fill-opacity="1" /><path clip-path="url(#clip540)" d="M137.519 743.31 L155.876 743.31 L155.876 747.245 L141.802 747.245 L141.802 755.717 Q142.82 755.37 143.839 755.208 Q144.857 755.023 145.876 755.023 Q151.663 755.023 155.042 758.194 Q158.422 761.365 158.422 766.782 Q158.422 772.361 154.95 775.462 Q151.478 778.541 145.158 778.541 Q142.982 778.541 140.714 778.171 Q138.469 777.8 136.061 777.06 L136.061 772.361 Q138.144 773.495 140.367 774.05 Q142.589 774.606 145.066 774.606 Q149.07 774.606 151.408 772.5 Q153.746 770.393 153.746 766.782 Q153.746 763.171 151.408 761.064 Q149.07 758.958 145.066 758.958 Q143.191 758.958 141.316 759.375 Q139.464 759.791 137.519 760.671 L137.519 743.31 Z" fill="#000000" fill-rule="nonzero" fill-opacity="1" /><path clip-path="url(#clip540)" d="M50.9921 571.968 L80.6679 571.968 L80.6679 575.903 L50.9921 575.903 L50.9921 571.968 Z" fill="#000000" fill-rule="nonzero" fill-opacity="1" /><path clip-path="url(#clip540)" d="M100.76 557.316 Q97.1493 557.316 95.3206 560.88 Q93.515 564.422 93.515 571.552 Q93.515 578.658 95.3206 582.223 Q97.1493 585.765 100.76 585.765 Q104.395 585.765 106.2 582.223 Q108.029 578.658 108.029 571.552 Q108.029 564.422 106.2 560.88 Q104.395 557.316 100.76 557.316 M100.76 553.612 Q106.571 553.612 109.626 558.218 Q112.705 562.802 112.705 571.552 Q112.705 580.278 109.626 584.885 Q106.571 589.468 100.76 589.468 Q94.9502 589.468 91.8715 584.885 Q88.816 580.278 88.816 571.552 Q88.816 562.802 91.8715 558.218 Q94.9502 553.612 100.76 553.612 Z" fill="#000000" fill-rule="nonzero" fill-opacity="1" /><path clip-path="url(#clip540)" d="M120.922 582.917 L125.807 582.917 L125.807 588.797 L120.922 588.797 L120.922 582.917 Z" fill="#000000" fill-rule="nonzero" fill-opacity="1" /><path clip-path="url(#clip540)" d="M148.839 558.311 L137.033 576.76 L148.839 576.76 L148.839 558.311 M147.612 554.237 L153.492 554.237 L153.492 576.76 L158.422 576.76 L158.422 580.649 L153.492 580.649 L153.492 588.797 L148.839 588.797 L148.839 580.649 L133.237 580.649 L133.237 576.135 L147.612 554.237 Z" fill="#000000" fill-rule="nonzero" fill-opacity="1" /><path clip-path="url(#clip540)" d="M52.1264 382.895 L81.8021 382.895 L81.8021 386.83 L52.1264 386.83 L52.1264 382.895 Z" fill="#000000" fill-rule="nonzero" fill-opacity="1" /><path clip-path="url(#clip540)" d="M101.895 368.243 Q98.2835 368.243 96.4548 371.807 Q94.6493 375.349 94.6493 382.479 Q94.6493 389.585 96.4548 393.15 Q98.2835 396.692 101.895 396.692 Q105.529 396.692 107.334 393.15 Q109.163 389.585 109.163 382.479 Q109.163 375.349 107.334 371.807 Q105.529 368.243 101.895 368.243 M101.895 364.539 Q107.705 364.539 110.76 369.145 Q113.839 373.729 113.839 382.479 Q113.839 391.205 110.76 395.812 Q107.705 400.395 101.895 400.395 Q96.0845 400.395 93.0058 395.812 Q89.9503 391.205 89.9503 382.479 Q89.9503 373.729 93.0058 369.145 Q96.0845 364.539 101.895 364.539 Z" fill="#000000" fill-rule="nonzero" fill-opacity="1" /><path clip-path="url(#clip540)" d="M122.057 393.844 L126.941 393.844 L126.941 399.724 L122.057 399.724 L122.057 393.844 Z" fill="#000000" fill-rule="nonzero" fill-opacity="1" /><path clip-path="url(#clip540)" d="M151.293 381.09 Q154.649 381.807 156.524 384.076 Q158.422 386.344 158.422 389.678 Q158.422 394.793 154.904 397.594 Q151.385 400.395 144.904 400.395 Q142.728 400.395 140.413 399.955 Q138.121 399.539 135.668 398.682 L135.668 394.168 Q137.612 395.303 139.927 395.881 Q142.242 396.46 144.765 396.46 Q149.163 396.46 151.455 394.724 Q153.769 392.988 153.769 389.678 Q153.769 386.622 151.617 384.909 Q149.487 383.173 145.668 383.173 L141.64 383.173 L141.64 379.331 L145.853 379.331 Q149.302 379.331 151.13 377.965 Q152.959 376.576 152.959 373.983 Q152.959 371.321 151.061 369.909 Q149.186 368.474 145.668 368.474 Q143.746 368.474 141.547 368.891 Q139.348 369.307 136.709 370.187 L136.709 366.02 Q139.371 365.28 141.686 364.909 Q144.024 364.539 146.084 364.539 Q151.408 364.539 154.51 366.969 Q157.612 369.377 157.612 373.497 Q157.612 376.368 155.968 378.358 Q154.325 380.326 151.293 381.09 Z" fill="#000000" fill-rule="nonzero" fill-opacity="1" /><path clip-path="url(#clip540)" d="M53.0754 193.822 L82.7512 193.822 L82.7512 197.758 L53.0754 197.758 L53.0754 193.822 Z" fill="#000000" fill-rule="nonzero" fill-opacity="1" /><path clip-path="url(#clip540)" d="M102.844 179.17 Q99.2326 179.17 97.4039 182.734 Q95.5984 186.276 95.5984 193.406 Q95.5984 200.512 97.4039 204.077 Q99.2326 207.619 102.844 207.619 Q106.478 207.619 108.283 204.077 Q110.112 200.512 110.112 193.406 Q110.112 186.276 108.283 182.734 Q106.478 179.17 102.844 179.17 M102.844 175.466 Q108.654 175.466 111.709 180.072 Q114.788 184.656 114.788 193.406 Q114.788 202.132 111.709 206.739 Q108.654 211.322 102.844 211.322 Q97.0335 211.322 93.9549 206.739 Q90.8993 202.132 90.8993 193.406 Q90.8993 184.656 93.9549 180.072 Q97.0335 175.466 102.844 175.466 Z" fill="#000000" fill-rule="nonzero" fill-opacity="1" /><path clip-path="url(#clip540)" d="M123.006 204.771 L127.89 204.771 L127.89 210.651 L123.006 210.651 L123.006 204.771 Z" fill="#000000" fill-rule="nonzero" fill-opacity="1" /><path clip-path="url(#clip540)" d="M142.103 206.716 L158.422 206.716 L158.422 210.651 L136.478 210.651 L136.478 206.716 Q139.14 203.961 143.723 199.332 Q148.33 194.679 149.51 193.336 Q151.755 190.813 152.635 189.077 Q153.538 187.318 153.538 185.628 Q153.538 182.873 151.593 181.137 Q149.672 179.401 146.57 179.401 Q144.371 179.401 141.918 180.165 Q139.487 180.929 136.709 182.48 L136.709 177.758 Q139.533 176.623 141.987 176.045 Q144.441 175.466 146.478 175.466 Q151.848 175.466 155.042 178.151 Q158.237 180.836 158.237 185.327 Q158.237 187.457 157.427 189.378 Q156.64 191.276 154.533 193.869 Q153.955 194.54 150.853 197.758 Q147.751 200.952 142.103 206.716 Z" fill="#000000" fill-rule="nonzero" fill-opacity="1" /><polyline clip-path="url(#clip542)" style="stroke:#009af9; stroke-linecap:round; stroke-linejoin:round; stroke-width:4; stroke-opacity:1; fill:none" points="194.422,1384.24 196.583,1371.9 198.743,1359.68 200.904,1347.58 203.064,1335.61 205.225,1323.75 207.385,1312.01 209.546,1300.39 211.706,1288.88 213.867,1277.49 216.027,1266.21 218.188,1255.05 220.348,1243.99 222.509,1233.05 224.669,1222.21 226.83,1211.48 228.99,1200.86 231.151,1190.35 233.311,1179.94 235.471,1169.63 237.632,1159.43 239.792,1149.33 241.953,1139.32 244.113,1129.42 246.274,1119.62 248.434,1109.91 250.595,1100.3 252.755,1090.79 254.916,1081.37 257.076,1072.05 259.237,1062.82 261.397,1053.68 263.558,1044.63 265.718,1035.67 267.879,1026.8 270.039,1018.02 272.2,1009.32 274.36,1000.72 276.521,992.195 278.681,983.759 280.842,975.406 283.002,967.137 285.163,958.95 287.323,950.844 289.484,942.82 291.644,934.875 293.805,927.009 295.965,919.222 298.126,911.512 300.286,903.879 302.447,896.322 304.607,888.84 306.768,881.433 308.928,874.1 311.089,866.84 313.249,859.652 315.41,852.535 317.57,845.49 319.731,838.514 321.891,831.608 324.052,824.771 326.212,818.002 328.373,811.301 330.533,804.666 332.694,798.097 334.854,791.594 337.015,785.156 339.175,778.781 341.336,772.47 343.496,766.222 345.657,760.037 347.817,753.912 349.978,747.849 352.138,741.846 354.299,735.903 356.459,730.019 358.62,724.194 360.78,718.427 362.941,712.717 365.101,707.064 367.262,701.467 369.422,695.926 371.583,690.44 373.743,685.009 375.904,679.632 378.064,674.309 380.225,669.038 382.385,663.82 384.546,658.654 386.706,653.54 388.867,648.476 391.027,643.463 393.188,638.5 395.348,633.586 397.509,628.721 399.669,623.905 401.83,619.137 403.99,614.416 406.151,609.742 408.311,605.115 410.472,600.534 412.632,595.999 414.793,591.508 416.953,587.063 419.114,582.661 421.274,578.304 423.435,573.99 425.595,569.719 427.755,565.49 429.916,561.304 432.076,557.159 434.237,553.055 436.397,548.993 438.558,544.97 440.718,540.988 442.879,537.046 445.039,533.142 447.2,529.278 449.36,525.452 451.521,521.664 453.681,517.914 455.842,514.201 458.002,510.525 460.163,506.886 462.323,503.283 464.484,499.716 466.644,496.184 468.805,492.688 470.965,489.226 473.126,485.799 475.286,482.406 477.447,479.047 479.607,475.722 481.768,472.429 483.928,469.17 486.089,465.942 488.249,462.747 490.41,459.584 492.57,456.453 494.731,453.352 496.891,450.283 499.052,447.244 501.212,444.235 503.373,441.257 505.533,438.308 507.694,435.388 509.854,432.497 512.015,429.636 514.175,426.802 516.336,423.997 518.496,421.22 520.657,418.471 522.817,415.749 524.978,413.054 527.138,410.385 529.299,407.744 531.459,405.128 533.62,402.539 535.78,399.976 537.941,397.438 540.101,394.925 542.262,392.437 544.422,389.974 546.583,387.536 548.743,385.121 550.904,382.731 553.064,380.364 555.225,378.022 557.385,375.702 559.546,373.406 561.706,371.132 563.867,368.881 566.027,366.652 568.188,364.446 570.348,362.262 572.509,360.099 574.669,357.958 576.83,355.839 578.99,353.74 581.151,351.663 583.311,349.606 585.472,347.57 587.632,345.553 589.793,343.558 591.953,341.582 594.114,339.625 596.274,337.688 598.435,335.771 600.595,333.872 602.756,331.993 604.916,330.132 607.077,328.29 609.237,326.466 611.398,324.661 613.558,322.873 615.718,321.103 617.879,319.351 620.039,317.616 622.2,315.899 624.36,314.198 626.521,312.515 628.681,310.848 630.842,309.198 633.002,307.564 635.163,305.947 637.323,304.345 639.484,302.76 641.644,301.19 643.805,299.636 645.965,298.098 648.126,296.575 650.286,295.066 652.447,293.573 654.607,292.095 656.768,290.631 658.928,289.182 661.089,287.748 663.249,286.327 665.41,284.921 667.57,283.529 669.731,282.15 671.891,280.786 674.052,279.435 676.212,278.097 678.373,276.773 680.533,275.462 682.694,274.163 684.854,272.878 687.015,271.606 689.175,270.346 691.336,269.099 693.496,267.865 695.657,266.642 697.817,265.432 699.978,264.234 702.138,263.048 704.299,261.874 706.459,260.712 708.62,259.561 710.78,258.421 712.941,257.293 715.101,256.176 717.262,255.071 719.422,253.976 721.583,252.892 723.743,251.819 725.904,250.757 728.064,249.706 730.225,248.664 732.385,247.634 734.546,246.613 736.706,245.603 738.867,244.603 741.027,243.612 743.188,242.632 745.348,241.661 747.509,240.7 749.669,239.749 751.83,238.807 753.99,237.875 756.151,236.951 758.311,236.037 760.472,235.132 762.632,234.236 764.793,233.349 766.953,232.471 769.114,231.601 771.274,230.74 773.435,229.888 775.595,229.044 777.756,228.209 779.916,227.381 782.077,226.562 784.237,225.752 786.398,224.949 788.558,224.154 790.719,223.367 792.879,222.588 795.04,221.817 797.2,221.053 799.361,220.297 801.521,219.548 803.681,218.807 805.842,218.073 808.002,217.347 810.163,216.628 812.323,215.916 814.484,215.211 816.644,214.513 818.805,213.822 820.965,213.138 823.126,212.461 825.286,211.79 827.447,211.127 829.607,210.469 831.768,209.819 833.928,209.175 836.089,208.537 838.249,207.906 840.41,207.281 842.57,206.662 844.731,206.05 846.891,205.443 849.052,204.843 851.212,204.248 853.373,203.66 855.533,203.077 857.694,202.501 859.854,201.93 862.015,201.364 864.175,200.805 866.336,200.251 868.496,199.702 870.657,199.159 872.817,198.621 874.978,198.089 877.138,197.562 879.299,197.04 881.459,196.523 883.62,196.012 885.78,195.506 887.941,195.004 890.101,194.508 892.262,194.017 894.422,193.53 896.583,193.048 898.743,192.572 900.904,192.099 903.064,191.632 905.225,191.169 907.385,190.711 909.546,190.257 911.706,189.808 913.867,189.363 916.027,188.923 918.188,188.487 920.348,188.056 922.509,187.628 924.669,187.205 926.83,186.786 928.99,186.372 931.151,185.961 933.311,185.554 935.472,185.152 937.632,184.753 939.793,184.359 941.953,183.968 944.114,183.582 946.274,183.199 948.435,182.82 950.595,182.444 952.756,182.073 954.916,181.705 957.077,181.341 959.237,180.98 961.398,180.623 963.558,180.27 965.719,179.92 967.879,179.574 970.04,179.231 972.2,178.892 974.361,178.556 976.521,178.223 978.682,177.893 980.842,177.567 983.003,177.245 985.163,176.925 987.324,176.609 989.484,176.295 991.645,175.985 993.805,175.678 995.965,175.374 998.126,175.074 1000.29,174.776 1002.45,174.481 1004.61,174.189 1006.77,173.9 1008.93,173.614 1011.09,173.33 1013.25,173.05 1015.41,172.772 1017.57,172.497 1019.73,172.225 1021.89,171.956 1024.05,171.689 1026.21,171.425 1028.37,171.163 1030.53,170.905 1032.69,170.648 1034.85,170.394 1037.01,170.143 1039.18,169.895 1041.34,169.648 1043.5,169.405 1045.66,169.163 1047.82,168.924 1049.98,168.688 1052.14,168.453 1054.3,168.221 1056.46,167.992 1058.62,167.764 1060.78,167.539 1062.94,167.316 1065.1,167.096 1067.26,166.877 1069.42,166.661 1071.58,166.447 1073.74,166.235 1075.9,166.025 1078.06,165.817 1080.22,165.611 1082.39,165.407 1084.55,165.205 1086.71,165.005 1088.87,164.808 1091.03,164.612 1093.19,164.418 1095.35,164.226 1097.51,164.036 1099.67,163.847 1101.83,163.661 1103.99,163.477 1106.15,163.294 1108.31,163.113 1110.47,162.934 1112.63,162.757 1114.79,162.581 1116.95,162.408 1119.11,162.236 1121.27,162.065 1123.43,161.897 1125.6,161.73 1127.76,161.565 1129.92,161.401 1132.08,161.239 1134.24,161.079 1136.4,160.921 1138.56,160.763 1140.72,160.608 1142.88,160.454 1145.04,160.302 1147.2,160.151 1149.36,160.001 1151.52,159.854 1153.68,159.707 1155.84,159.562 1158,159.419 1160.16,159.277 1162.32,159.136 1164.48,158.997 1166.64,158.859 1168.81,158.723 1170.97,158.588 1173.13,158.454 1175.29,158.322 1177.45,158.191 1179.61,158.061 1181.77,157.933 1183.93,157.806 1186.09,157.68 1188.25,157.555 1190.41,157.432 1192.57,157.31 1194.73,157.189 1196.89,157.07 1199.05,156.951 1201.21,156.834 1203.37,156.718 1205.53,156.603 1207.69,156.489 1209.85,156.376 1212.01,156.265 1214.18,156.154 1216.34,156.045 1218.5,155.937 1220.66,155.829 1222.82,155.723 1224.98,155.618 1227.14,155.514 1229.3,155.411 1231.46,155.309 1233.62,155.208 1235.78,155.108 1237.94,155.009 1240.1,154.911 1242.26,154.814 1244.42,154.718 1246.58,154.623 1248.74,154.529 1250.9,154.435 1253.06,154.343 1255.22,154.251 1257.39,154.161 1259.55,154.071 1261.71,153.982 1263.87,153.894 1266.03,153.807 1268.19,153.721 1270.35,153.635 1272.51,153.551 1274.67,153.467 1276.83,153.384 1278.99,153.302 1281.15,153.221 1283.31,153.14 1285.47,153.061 1287.63,152.982 1289.79,152.904 1291.95,152.826 1294.11,152.75 1296.27,152.674 1298.43,152.599 1300.6,152.525 1302.76,152.451 1304.92,152.379 1307.08,152.307 1309.24,152.235 1311.4,152.165 1313.56,152.095 1315.72,152.025 1317.88,151.957 1320.04,151.889 1322.2,151.822 1324.36,151.756 1326.52,151.69 1328.68,151.625 1330.84,151.56 1333,151.496 1335.16,151.433 1337.32,151.371 1339.48,151.309 1341.64,151.247 1343.81,151.187 1345.97,151.127 1348.13,151.067 1350.29,151.008 1352.45,150.95 1354.61,150.893 1356.77,150.835 1358.93,150.779 1361.09,150.723 1363.25,150.668 1365.41,150.613 1367.57,150.559 1369.73,150.505 1371.89,150.452 1374.05,150.399 1376.21,150.347 1378.37,150.295 1380.53,150.244 1382.69,150.194 1384.85,150.144 1387.01,150.094 1389.18,150.045 1391.34,149.997 1393.5,149.949 1395.66,149.901 1397.82,149.854 1399.98,149.807 1402.14,149.761 1404.3,149.716 1406.46,149.67 1408.62,149.626 1410.78,149.581 1412.94,149.537 1415.1,149.494 1417.26,149.451 1419.42,149.408 1421.58,149.366 1423.74,149.324 1425.9,149.283 1428.06,149.242 1430.22,149.201 1432.39,149.161 1434.55,149.121 1436.71,149.082 1438.87,149.043 1441.03,149.004 1443.19,148.966 1445.35,148.928 1447.51,148.891 1449.67,148.854 1451.83,148.817 1453.99,148.781 1456.15,148.745 1458.31,148.709 1460.47,148.673 1462.63,148.638 1464.79,148.604 1466.95,148.569 1469.11,148.535 1471.27,148.502 1473.43,148.468 1475.6,148.435 1477.76,148.402 1479.92,148.37 1482.08,148.338 1484.24,148.306 1486.4,148.275 1488.56,148.243 1490.72,148.213 1492.88,148.182 1495.04,148.152 1497.2,148.122 1499.36,148.092 1501.52,148.063 1503.68,148.034 1505.84,148.005 1508,147.977 1510.16,147.948 1512.32,147.92 1514.48,147.893 1516.64,147.865 1518.81,147.838 1520.97,147.812 1523.13,147.785 1525.29,147.759 1527.45,147.733 1529.61,147.707 1531.77,147.681 1533.93,147.656 1536.09,147.631 1538.25,147.606 1540.41,147.582 1542.57,147.558 1544.73,147.534 1546.89,147.51 1549.05,147.487 1551.21,147.463 1553.37,147.44 1555.53,147.418 1557.69,147.395 1559.85,147.373 1562.01,147.351 1564.18,147.329 1566.34,147.307 1568.5,147.286 1570.66,147.265 1572.82,147.244 1574.98,147.223 1577.14,147.202 1579.3,147.182 1581.46,147.162 1583.62,147.142 1585.78,147.122 1587.94,147.103 1590.1,147.083 1592.26,147.064 1594.42,147.045 1596.58,147.027 1598.74,147.008 1600.9,146.99 1603.06,146.971 1605.22,146.953 1607.39,146.936 1609.55,146.918 1611.71,146.901 1613.87,146.883 1616.03,146.866 1618.19,146.849 1620.35,146.833 1622.51,146.816 1624.67,146.8 1626.83,146.784 1628.99,146.768 1631.15,146.752 1633.31,146.736 1635.47,146.72 1637.63,146.705 1639.79,146.69 1641.95,146.674 1644.11,146.66 1646.27,146.645 1648.43,146.63 1650.6,146.616 1652.76,146.601 1654.92,146.587 1657.08,146.573 1659.24,146.559 1661.4,146.545 1663.56,146.531 1665.72,146.518 1667.88,146.504 1670.04,146.491 1672.2,146.478 1674.36,146.465 1676.52,146.452 1678.68,146.439 1680.84,146.426 1683,146.414 1685.16,146.401 1687.32,146.389 1689.48,146.377 1691.64,146.365 1693.81,146.353 1695.97,146.341 1698.13,146.329 1700.29,146.318 1702.45,146.306 1704.61,146.295 1706.77,146.283 1708.93,146.272 1711.09,146.261 1713.25,146.25 1715.41,146.239 1717.57,146.228 1719.73,146.217 1721.89,146.207 1724.05,146.196 1726.21,146.186 1728.37,146.176 1730.53,146.165 1732.69,146.155 1734.85,146.145 1737.02,146.135 1739.18,146.125 1741.34,146.116 1743.5,146.106 1745.66,146.097 1747.82,146.087 1749.98,146.078 1752.14,146.069 1754.3,146.059 1756.46,146.05 1758.62,146.041 1760.78,146.032 1762.94,146.024 1765.1,146.015 1767.26,146.006 1769.42,145.998 1771.58,145.989 1773.74,145.981 1775.9,145.973 1778.06,145.964 1780.22,145.956 1782.39,145.948 1784.55,145.94 1786.71,145.933 1788.87,145.925 1791.03,145.917 1793.19,145.909 1795.35,145.902 1797.51,145.894 1799.67,145.887 1801.83,145.88 1803.99,145.872 1806.15,145.865 1808.31,145.858 1810.47,145.851 1812.63,145.844 1814.79,145.837 1816.95,145.831 1819.11,145.824 1821.27,145.817 1823.43,145.811 1825.6,145.804 1827.76,145.798 1829.92,145.791 1832.08,145.785 1834.24,145.779 1836.4,145.772 1838.56,145.766 1840.72,145.76 1842.88,145.754 1845.04,145.748 1847.2,145.743 1849.36,145.737 1851.52,145.731 1853.68,145.725 1855.84,145.72 1858,145.714 1860.16,145.709 1862.32,145.703 1864.48,145.698 1866.64,145.693 1868.81,145.687 1870.97,145.682 1873.13,145.677 1875.29,145.672 1877.45,145.667 1879.61,145.662 1881.77,145.657 1883.93,145.652 1886.09,145.647 1888.25,145.642 1890.41,145.638 1892.57,145.633 1894.73,145.628 1896.89,145.624 1899.05,145.619 1901.21,145.615 1903.37,145.61 1905.53,145.606 1907.69,145.601 1909.85,145.597 1912.02,145.593 1914.18,145.589 1916.34,145.584 1918.5,145.58 1920.66,145.576 1922.82,145.572 1924.98,145.568 1927.14,145.564 1929.3,145.56 1931.46,145.556 1933.62,145.552 1935.78,145.549 1937.94,145.545 1940.1,145.541 1942.26,145.537 1944.42,145.534 1946.58,145.53 1948.74,145.526 1950.9,145.523 1953.06,145.519 1955.22,145.516 1957.39,145.512 1959.55,145.509 1961.71,145.505 1963.87,145.502 1966.03,145.499 1968.19,145.495 1970.35,145.492 1972.51,145.489 1974.67,145.485 1976.83,145.482 1978.99,145.479 1981.15,145.476 1983.31,145.473 1985.47,145.47 1987.63,145.466 1989.79,145.463 1991.95,145.46 1994.11,145.457 1996.27,145.454 1998.43,145.451 2000.6,145.448 2002.76,145.445 2004.92,145.443 2007.08,145.44 2009.24,145.437 2011.4,145.434 2013.56,145.431 2015.72,145.428 2017.88,145.426 2020.04,145.423 2022.2,145.42 2024.36,145.418 2026.52,145.415 2028.68,145.412 2030.84,145.41 2033,145.407 2035.16,145.405 2037.32,145.402 2039.48,145.4 2041.64,145.397 2043.81,145.395 2045.97,145.392 2048.13,145.39 2050.29,145.388 2052.45,145.385 2054.61,145.383 2056.77,145.381 2058.93,145.378 2061.09,145.376 2063.25,145.374 2065.41,145.372 2067.57,145.369 2069.73,145.367 2071.89,145.365 2074.05,145.363 2076.21,145.361 2078.37,145.359 2080.53,145.357 2082.69,145.355 2084.85,145.353 2087.02,145.351 2089.18,145.349 2091.34,145.347 2093.5,145.345 2095.66,145.343 2097.82,145.341 2099.98,145.339 2102.14,145.337 2104.3,145.336 2106.46,145.334 2108.62,145.332 2110.78,145.33 2112.94,145.329 2115.1,145.327 2117.26,145.325 2119.42,145.323 2121.58,145.322 2123.74,145.32 2125.9,145.318 2128.06,145.317 2130.22,145.315 2132.39,145.314 2134.55,145.312 2136.71,145.311 2138.87,145.309 2141.03,145.308 2143.19,145.306 2145.35,145.305 2147.51,145.303 2149.67,145.302 2151.83,145.3 2153.99,145.299 2156.15,145.297 2158.31,145.296 2160.47,145.295 2162.63,145.293 2164.79,145.292 2166.95,145.291 2169.11,145.289 2171.27,145.288 2173.43,145.287 2175.6,145.286 2177.76,145.284 2179.92,145.283 2182.08,145.282 2184.24,145.281 2186.4,145.28 2188.56,145.278 2190.72,145.277 2192.88,145.276 2195.04,145.275 2197.2,145.274 2199.36,145.273 2201.52,145.272 2203.68,145.271 2205.84,145.27 2208,145.269 2210.16,145.267 2212.32,145.266 2214.48,145.265 2216.64,145.264 2218.81,145.263 2220.97,145.262 2223.13,145.262 2225.29,145.261 2227.45,145.26 2229.61,145.259 2231.77,145.258 2233.93,145.257 2236.09,145.256 2238.25,145.255 2240.41,145.254 2242.57,145.253 2244.73,145.252 2246.89,145.252 2249.05,145.251 2251.21,145.25 2253.37,145.249 2255.53,145.248 2257.69,145.247 2259.85,145.247 2262.02,145.246 2264.18,145.245 2266.34,145.244 2268.5,145.243 2270.66,145.243 2272.82,145.242 2274.98,145.241 2277.14,145.24 2279.3,145.24 2281.46,145.239 2283.62,145.238 2285.78,145.237 2287.94,145.237 2290.1,145.236 2292.26,145.235 2294.42,145.234 2296.58,145.234 2298.74,145.233 2300.9,145.232 2303.06,145.232 2305.23,145.231 2307.39,145.23 2309.55,145.23 2311.71,145.229 2313.87,145.228 2316.03,145.227 2318.19,145.227 2320.35,145.226 2322.51,145.225 2324.67,145.225 2326.83,145.224 2328.99,145.223 2331.15,145.223 2333.31,145.222 2335.47,145.222 2337.63,145.221 2339.79,145.22 2341.95,145.22 2344.11,145.219 2346.27,145.218 2348.43,145.218 2350.6,145.217 2352.76,145.217 "/>
<polyline clip-path="url(#clip542)" style="stroke:#e26f46; stroke-linecap:round; stroke-linejoin:round; stroke-width:4; stroke-opacity:1; fill:none" points="194.422,490.15 196.583,484.261 198.743,478.446 200.904,472.704 203.064,467.033 205.225,461.433 207.385,455.903 209.546,450.443 211.706,445.051 213.867,439.727 216.027,434.469 218.188,429.279 220.348,424.153 222.509,419.093 224.669,414.096 226.83,409.163 228.99,404.293 231.151,399.484 233.311,394.737 235.471,390.05 237.632,385.423 239.792,380.855 241.953,376.346 244.113,371.895 246.274,367.501 248.434,363.163 250.595,358.881 252.755,354.655 254.916,350.483 257.076,346.366 259.237,342.301 261.397,338.29 263.558,334.331 265.718,330.423 267.879,326.566 270.039,322.76 272.2,319.004 274.36,315.297 276.521,311.639 278.681,308.029 280.842,304.467 283.002,300.951 285.163,297.483 287.323,294.06 289.484,290.683 291.644,287.351 293.805,284.063 295.965,280.819 298.126,277.619 300.286,274.461 302.447,271.346 304.607,268.273 306.768,265.242 308.928,262.251 311.089,259.301 313.249,256.392 315.41,253.521 317.57,250.69 319.731,247.898 321.891,245.144 324.052,242.427 326.212,239.748 328.373,237.106 330.533,234.5 332.694,231.931 334.854,229.397 337.015,226.898 339.175,224.435 341.336,222.005 343.496,219.61 345.657,217.248 347.817,214.919 349.978,212.624 352.138,210.361 354.299,208.129 356.459,205.93 358.62,203.762 360.78,201.624 362.941,199.518 365.101,197.441 367.262,195.394 369.422,193.377 371.583,191.389 373.743,189.43 375.904,187.5 378.064,185.597 380.225,183.723 382.385,181.875 384.546,180.055 386.706,178.262 388.867,176.496 391.027,174.755 393.188,173.041 395.348,171.352 397.509,169.688 399.669,168.05 401.83,166.436 403.99,164.846 406.151,163.281 408.311,161.739 410.472,160.221 412.632,158.726 414.793,157.254 416.953,155.804 419.114,154.378 421.274,152.973 423.435,151.59 425.595,150.228 427.755,148.888 429.916,147.569 432.076,146.271 434.237,144.993 436.397,143.736 438.558,142.499 440.718,141.281 442.879,140.083 445.039,138.905 447.2,137.745 449.36,136.604 451.521,135.482 453.681,134.378 455.842,133.293 458.002,132.225 460.163,131.175 462.323,130.143 464.484,129.128 466.644,128.13 468.805,127.149 470.965,126.185 473.126,125.237 475.286,124.305 477.447,123.39 479.607,122.49 481.768,121.606 483.928,120.737 486.089,119.884 488.249,119.046 490.41,118.222 492.57,117.414 494.731,116.62 496.891,115.84 499.052,115.074 501.212,114.323 503.373,113.585 505.533,112.86 507.694,112.15 509.854,111.452 512.015,110.767 514.175,110.096 516.336,109.437 518.496,108.791 520.657,108.157 522.817,107.536 524.978,106.926 527.138,106.329 529.299,105.743 531.459,105.169 533.62,104.606 535.78,104.055 537.941,103.515 540.101,102.986 542.262,102.468 544.422,101.961 546.583,101.464 548.743,100.978 550.904,100.502 553.064,100.036 555.225,99.5808 557.385,99.1352 559.546,98.6994 561.706,98.2733 563.867,97.8567 566.027,97.4496 568.188,97.0519 570.348,96.6633 572.509,96.2838 574.669,95.9133 576.83,95.5516 578.99,95.1986 581.151,94.8542 583.311,94.5183 585.472,94.1908 587.632,93.8716 589.793,93.5605 591.953,93.2574 594.114,92.9623 596.274,92.675 598.435,92.3954 600.595,92.1234 602.756,91.8589 604.916,91.6017 607.077,91.3519 609.237,91.1093 611.398,90.8737 613.558,90.6451 615.718,90.4235 617.879,90.2086 620.039,90.0004 622.2,89.7988 624.36,89.6037 626.521,89.415 628.681,89.2326 630.842,89.0565 633.002,88.8865 635.163,88.7225 637.323,88.5645 639.484,88.4124 641.644,88.266 643.805,88.1254 645.965,87.9904 648.126,87.8609 650.286,87.7369 652.447,87.6183 654.607,87.5049 656.768,87.3968 658.928,87.2938 661.089,87.1959 663.249,87.1029 665.41,87.0149 667.57,86.9317 669.731,86.8533 671.891,86.7797 674.052,86.7107 676.212,86.6462 678.373,86.5863 680.533,86.5309 682.694,86.4798 684.854,86.433 687.015,86.3905 689.175,86.3522 691.336,86.318 693.496,86.2879 695.657,86.2617 697.817,86.2396 699.978,86.2213 702.138,86.2068 704.299,86.1961 706.459,86.189 708.62,86.1857 710.78,86.1859 712.941,86.1896 715.101,86.1968 717.262,86.2075 719.422,86.2215 721.583,86.2387 723.743,86.2593 725.904,86.283 728.064,86.3099 730.225,86.3399 732.385,86.3729 734.546,86.4089 736.706,86.4479 738.867,86.4897 741.027,86.5344 743.188,86.5818 745.348,86.632 747.509,86.6849 749.669,86.7405 751.83,86.7986 753.99,86.8593 756.151,86.9225 758.311,86.9882 760.472,87.0562 762.632,87.1267 764.793,87.1995 766.953,87.2746 769.114,87.3519 771.274,87.4314 773.435,87.5131 775.595,87.5969 777.756,87.6828 779.916,87.7708 782.077,87.8607 784.237,87.9527 786.398,88.0465 788.558,88.1423 790.719,88.2399 792.879,88.3393 795.04,88.4406 797.2,88.5436 799.361,88.6483 801.521,88.7548 803.681,88.8629 805.842,88.9727 808.002,89.0841 810.163,89.197 812.323,89.3115 814.484,89.4275 816.644,89.545 818.805,89.664 820.965,89.7843 823.126,89.9061 825.286,90.0293 827.447,90.1538 829.607,90.2796 831.768,90.4066 833.928,90.535 836.089,90.6646 838.249,90.7953 840.41,90.9273 842.57,91.0604 844.731,91.1946 846.891,91.3299 849.052,91.4663 851.212,91.6037 853.373,91.7422 855.533,91.8816 857.694,92.022 859.854,92.1634 862.015,92.3057 864.175,92.4489 866.336,92.5929 868.496,92.7378 870.657,92.8836 872.817,93.0301 874.978,93.1774 877.138,93.3255 879.299,93.4743 881.459,93.6239 883.62,93.7741 885.78,93.925 887.941,94.0766 890.101,94.2288 892.262,94.3816 894.422,94.5351 896.583,94.6891 898.743,94.8436 900.904,94.9987 903.064,95.1543 905.225,95.3104 907.385,95.467 909.546,95.6241 911.706,95.7816 913.867,95.9395 916.027,96.0979 918.188,96.2566 920.348,96.4157 922.509,96.5752 924.669,96.7351 926.83,96.8952 928.99,97.0557 931.151,97.2165 933.311,97.3776 935.472,97.539 937.632,97.7007 939.793,97.8626 941.953,98.0248 944.114,98.1872 946.274,98.3498 948.435,98.5126 950.595,98.6756 952.756,98.8388 954.916,99.0022 957.077,99.1657 959.237,99.3294 961.398,99.4933 963.558,99.6572 965.719,99.8213 967.879,99.9855 970.04,100.15 972.2,100.314 974.361,100.478 976.521,100.643 978.682,100.807 980.842,100.972 983.003,101.137 985.163,101.301 987.324,101.466 989.484,101.631 991.645,101.795 993.805,101.96 995.965,102.124 998.126,102.289 1000.29,102.453 1002.45,102.618 1004.61,102.782 1006.77,102.946 1008.93,103.11 1011.09,103.275 1013.25,103.438 1015.41,103.602 1017.57,103.766 1019.73,103.93 1021.89,104.093 1024.05,104.257 1026.21,104.42 1028.37,104.583 1030.53,104.746 1032.69,104.908 1034.85,105.071 1037.01,105.233 1039.18,105.395 1041.34,105.557 1043.5,105.719 1045.66,105.88 1047.82,106.041 1049.98,106.202 1052.14,106.363 1054.3,106.524 1056.46,106.684 1058.62,106.844 1060.78,107.004 1062.94,107.163 1065.1,107.322 1067.26,107.481 1069.42,107.64 1071.58,107.798 1073.74,107.956 1075.9,108.114 1078.06,108.271 1080.22,108.428 1082.39,108.585 1084.55,108.741 1086.71,108.898 1088.87,109.053 1091.03,109.209 1093.19,109.364 1095.35,109.519 1097.51,109.673 1099.67,109.827 1101.83,109.981 1103.99,110.135 1106.15,110.288 1108.31,110.44 1110.47,110.593 1112.63,110.745 1114.79,110.896 1116.95,111.048 1119.11,111.199 1121.27,111.349 1123.43,111.499 1125.6,111.649 1127.76,111.799 1129.92,111.948 1132.08,112.096 1134.24,112.245 1136.4,112.393 1138.56,112.54 1140.72,112.687 1142.88,112.834 1145.04,112.98 1147.2,113.126 1149.36,113.272 1151.52,113.417 1153.68,113.562 1155.84,113.706 1158,113.85 1160.16,113.993 1162.32,114.137 1164.48,114.279 1166.64,114.421 1168.81,114.563 1170.97,114.705 1173.13,114.846 1175.29,114.986 1177.45,115.126 1179.61,115.266 1181.77,115.405 1183.93,115.544 1186.09,115.683 1188.25,115.821 1190.41,115.958 1192.57,116.095 1194.73,116.232 1196.89,116.368 1199.05,116.504 1201.21,116.639 1203.37,116.774 1205.53,116.909 1207.69,117.042 1209.85,117.176 1212.01,117.309 1214.18,117.442 1216.34,117.574 1218.5,117.706 1220.66,117.837 1222.82,117.968 1224.98,118.098 1227.14,118.228 1229.3,118.357 1231.46,118.486 1233.62,118.615 1235.78,118.743 1237.94,118.87 1240.1,118.997 1242.26,119.124 1244.42,119.25 1246.58,119.376 1248.74,119.501 1250.9,119.626 1253.06,119.75 1255.22,119.874 1257.39,119.997 1259.55,120.12 1261.71,120.242 1263.87,120.364 1266.03,120.486 1268.19,120.607 1270.35,120.727 1272.51,120.847 1274.67,120.967 1276.83,121.086 1278.99,121.205 1281.15,121.323 1283.31,121.441 1285.47,121.558 1287.63,121.675 1289.79,121.791 1291.95,121.907 1294.11,122.023 1296.27,122.138 1298.43,122.252 1300.6,122.366 1302.76,122.48 1304.92,122.593 1307.08,122.706 1309.24,122.818 1311.4,122.93 1313.56,123.042 1315.72,123.153 1317.88,123.263 1320.04,123.373 1322.2,123.483 1324.36,123.592 1326.52,123.701 1328.68,123.809 1330.84,123.917 1333,124.024 1335.16,124.131 1337.32,124.238 1339.48,124.344 1341.64,124.449 1343.81,124.555 1345.97,124.659 1348.13,124.764 1350.29,124.868 1352.45,124.971 1354.61,125.074 1356.77,125.177 1358.93,125.279 1361.09,125.381 1363.25,125.482 1365.41,125.583 1367.57,125.683 1369.73,125.783 1371.89,125.883 1374.05,125.982 1376.21,126.081 1378.37,126.179 1380.53,126.277 1382.69,126.374 1384.85,126.471 1387.01,126.568 1389.18,126.664 1391.34,126.76 1393.5,126.855 1395.66,126.95 1397.82,127.045 1399.98,127.139 1402.14,127.232 1404.3,127.325 1406.46,127.418 1408.62,127.511 1410.78,127.603 1412.94,127.694 1415.1,127.785 1417.26,127.876 1419.42,127.967 1421.58,128.056 1423.74,128.146 1425.9,128.235 1428.06,128.324 1430.22,128.412 1432.39,128.5 1434.55,128.587 1436.71,128.674 1438.87,128.761 1441.03,128.847 1443.19,128.933 1445.35,129.019 1447.51,129.104 1449.67,129.188 1451.83,129.273 1453.99,129.357 1456.15,129.44 1458.31,129.523 1460.47,129.606 1462.63,129.688 1464.79,129.77 1466.95,129.851 1469.11,129.932 1471.27,130.013 1473.43,130.094 1475.6,130.173 1477.76,130.253 1479.92,130.332 1482.08,130.411 1484.24,130.489 1486.4,130.568 1488.56,130.645 1490.72,130.723 1492.88,130.8 1495.04,130.876 1497.2,130.952 1499.36,131.028 1501.52,131.104 1503.68,131.179 1505.84,131.254 1508,131.328 1510.16,131.402 1512.32,131.476 1514.48,131.549 1516.64,131.622 1518.81,131.695 1520.97,131.767 1523.13,131.839 1525.29,131.911 1527.45,131.982 1529.61,132.053 1531.77,132.123 1533.93,132.193 1536.09,132.263 1538.25,132.333 1540.41,132.402 1542.57,132.471 1544.73,132.539 1546.89,132.608 1549.05,132.676 1551.21,132.743 1553.37,132.81 1555.53,132.877 1557.69,132.944 1559.85,133.01 1562.01,133.076 1564.18,133.141 1566.34,133.207 1568.5,133.272 1570.66,133.336 1572.82,133.4 1574.98,133.464 1577.14,133.528 1579.3,133.591 1581.46,133.654 1583.62,133.717 1585.78,133.78 1587.94,133.842 1590.1,133.903 1592.26,133.965 1594.42,134.026 1596.58,134.087 1598.74,134.148 1600.9,134.208 1603.06,134.268 1605.22,134.327 1607.39,134.387 1609.55,134.446 1611.71,134.505 1613.87,134.563 1616.03,134.621 1618.19,134.679 1620.35,134.737 1622.51,134.794 1624.67,134.851 1626.83,134.908 1628.99,134.964 1631.15,135.02 1633.31,135.076 1635.47,135.132 1637.63,135.187 1639.79,135.242 1641.95,135.297 1644.11,135.351 1646.27,135.406 1648.43,135.459 1650.6,135.513 1652.76,135.566 1654.92,135.619 1657.08,135.672 1659.24,135.725 1661.4,135.777 1663.56,135.829 1665.72,135.881 1667.88,135.932 1670.04,135.983 1672.2,136.034 1674.36,136.085 1676.52,136.135 1678.68,136.185 1680.84,136.235 1683,136.285 1685.16,136.334 1687.32,136.383 1689.48,136.432 1691.64,136.48 1693.81,136.529 1695.97,136.577 1698.13,136.624 1700.29,136.672 1702.45,136.719 1704.61,136.766 1706.77,136.813 1708.93,136.859 1711.09,136.905 1713.25,136.951 1715.41,136.997 1717.57,137.043 1719.73,137.088 1721.89,137.133 1724.05,137.178 1726.21,137.222 1728.37,137.267 1730.53,137.311 1732.69,137.355 1734.85,137.398 1737.02,137.442 1739.18,137.485 1741.34,137.528 1743.5,137.571 1745.66,137.613 1747.82,137.655 1749.98,137.697 1752.14,137.739 1754.3,137.781 1756.46,137.822 1758.62,137.863 1760.78,137.904 1762.94,137.945 1765.1,137.985 1767.26,138.026 1769.42,138.066 1771.58,138.105 1773.74,138.145 1775.9,138.185 1778.06,138.224 1780.22,138.263 1782.39,138.302 1784.55,138.34 1786.71,138.379 1788.87,138.417 1791.03,138.455 1793.19,138.492 1795.35,138.53 1797.51,138.567 1799.67,138.605 1801.83,138.642 1803.99,138.678 1806.15,138.715 1808.31,138.751 1810.47,138.787 1812.63,138.823 1814.79,138.859 1816.95,138.895 1819.11,138.93 1821.27,138.965 1823.43,139.001 1825.6,139.035 1827.76,139.07 1829.92,139.104 1832.08,139.139 1834.24,139.173 1836.4,139.207 1838.56,139.241 1840.72,139.274 1842.88,139.308 1845.04,139.341 1847.2,139.374 1849.36,139.407 1851.52,139.439 1853.68,139.472 1855.84,139.504 1858,139.536 1860.16,139.568 1862.32,139.6 1864.48,139.632 1866.64,139.663 1868.81,139.694 1870.97,139.725 1873.13,139.756 1875.29,139.787 1877.45,139.818 1879.61,139.848 1881.77,139.878 1883.93,139.909 1886.09,139.939 1888.25,139.968 1890.41,139.998 1892.57,140.027 1894.73,140.057 1896.89,140.086 1899.05,140.115 1901.21,140.144 1903.37,140.172 1905.53,140.201 1907.69,140.229 1909.85,140.257 1912.02,140.285 1914.18,140.313 1916.34,140.341 1918.5,140.369 1920.66,140.396 1922.82,140.423 1924.98,140.45 1927.14,140.477 1929.3,140.504 1931.46,140.531 1933.62,140.557 1935.78,140.584 1937.94,140.61 1940.1,140.636 1942.26,140.662 1944.42,140.688 1946.58,140.714 1948.74,140.739 1950.9,140.764 1953.06,140.79 1955.22,140.815 1957.39,140.84 1959.55,140.864 1961.71,140.889 1963.87,140.914 1966.03,140.938 1968.19,140.962 1970.35,140.986 1972.51,141.01 1974.67,141.034 1976.83,141.058 1978.99,141.081 1981.15,141.105 1983.31,141.128 1985.47,141.151 1987.63,141.174 1989.79,141.197 1991.95,141.22 1994.11,141.243 1996.27,141.265 1998.43,141.288 2000.6,141.31 2002.76,141.332 2004.92,141.354 2007.08,141.376 2009.24,141.398 2011.4,141.419 2013.56,141.441 2015.72,141.462 2017.88,141.484 2020.04,141.505 2022.2,141.526 2024.36,141.547 2026.52,141.568 2028.68,141.588 2030.84,141.609 2033,141.629 2035.16,141.65 2037.32,141.67 2039.48,141.69 2041.64,141.71 2043.81,141.73 2045.97,141.75 2048.13,141.77 2050.29,141.789 2052.45,141.809 2054.61,141.828 2056.77,141.847 2058.93,141.866 2061.09,141.885 2063.25,141.904 2065.41,141.923 2067.57,141.942 2069.73,141.96 2071.89,141.979 2074.05,141.997 2076.21,142.016 2078.37,142.034 2080.53,142.052 2082.69,142.07 2084.85,142.088 2087.02,142.105 2089.18,142.123 2091.34,142.141 2093.5,142.158 2095.66,142.176 2097.82,142.193 2099.98,142.21 2102.14,142.227 2104.3,142.244 2106.46,142.261 2108.62,142.278 2110.78,142.295 2112.94,142.311 2115.1,142.328 2117.26,142.344 2119.42,142.36 2121.58,142.377 2123.74,142.393 2125.9,142.409 2128.06,142.425 2130.22,142.441 2132.39,142.456 2134.55,142.472 2136.71,142.488 2138.87,142.503 2141.03,142.519 2143.19,142.534 2145.35,142.549 2147.51,142.565 2149.67,142.58 2151.83,142.595 2153.99,142.61 2156.15,142.624 2158.31,142.639 2160.47,142.654 2162.63,142.668 2164.79,142.683 2166.95,142.697 2169.11,142.712 2171.27,142.726 2173.43,142.74 2175.6,142.754 2177.76,142.768 2179.92,142.782 2182.08,142.796 2184.24,142.81 2186.4,142.823 2188.56,142.837 2190.72,142.85 2192.88,142.864 2195.04,142.877 2197.2,142.891 2199.36,142.904 2201.52,142.917 2203.68,142.93 2205.84,142.943 2208,142.956 2210.16,142.969 2212.32,142.982 2214.48,142.994 2216.64,143.007 2218.81,143.02 2220.97,143.032 2223.13,143.045 2225.29,143.057 2227.45,143.069 2229.61,143.081 2231.77,143.094 2233.93,143.106 2236.09,143.118 2238.25,143.13 2240.41,143.141 2242.57,143.153 2244.73,143.165 2246.89,143.177 2249.05,143.188 2251.21,143.2 2253.37,143.211 2255.53,143.223 2257.69,143.234 2259.85,143.245 2262.02,143.257 2264.18,143.268 2266.34,143.279 2268.5,143.29 2270.66,143.301 2272.82,143.312 2274.98,143.322 2277.14,143.333 2279.3,143.344 2281.46,143.354 2283.62,143.365 2285.78,143.376 2287.94,143.386 2290.1,143.396 2292.26,143.407 2294.42,143.417 2296.58,143.427 2298.74,143.437 2300.9,143.447 2303.06,143.458 2305.23,143.467 2307.39,143.477 2309.55,143.487 2311.71,143.497 2313.87,143.507 2316.03,143.516 2318.19,143.526 2320.35,143.536 2322.51,143.545 2324.67,143.555 2326.83,143.564 2328.99,143.573 2331.15,143.583 2333.31,143.592 2335.47,143.601 2337.63,143.61 2339.79,143.619 2341.95,143.628 2344.11,143.637 2346.27,143.646 2348.43,143.655 2350.6,143.664 2352.76,143.673 "/>
<path clip-path="url(#clip540)" d="M1805.58 1377.32 L2280.81 1377.32 L2280.81 1221.8 L1805.58 1221.8  Z" fill="#ffffff" fill-rule="evenodd" fill-opacity="1"/>
<polyline clip-path="url(#clip540)" style="stroke:#000000; stroke-linecap:round; stroke-linejoin:round; stroke-width:4; stroke-opacity:1; fill:none" points="1805.58,1377.32 2280.81,1377.32 2280.81,1221.8 1805.58,1221.8 1805.58,1377.32 "/>
<polyline clip-path="url(#clip540)" style="stroke:#009af9; stroke-linecap:round; stroke-linejoin:round; stroke-width:4; stroke-opacity:1; fill:none" points="1829.56,1273.64 1973.45,1273.64 "/>
<path clip-path="url(#clip540)" d="M1997.43 1264.99 L2001.95 1264.99 L2010.05 1286.75 L2018.15 1264.99 L2022.66 1264.99 L2012.94 1290.92 L2007.16 1290.92 L1997.43 1264.99 Z" fill="#000000" fill-rule="nonzero" fill-opacity="1" /><path clip-path="url(#clip540)" d="M2029.96 1286.98 L2037.6 1286.98 L2037.6 1260.61 L2029.28 1262.28 L2029.28 1258.02 L2037.55 1256.36 L2042.22 1256.36 L2042.22 1286.98 L2049.86 1286.98 L2049.86 1290.92 L2029.96 1290.92 L2029.96 1286.98 Z" fill="#000000" fill-rule="nonzero" fill-opacity="1" /><path clip-path="url(#clip540)" d="M2067.97 1274.27 L2067.97 1281.49 L2076.09 1281.49 L2076.09 1283.69 L2067.97 1283.69 L2067.97 1290.92 L2065.53 1290.92 L2065.53 1283.69 L2057.41 1283.69 L2057.41 1281.49 L2065.53 1281.49 L2065.53 1274.27 L2067.97 1274.27 Z" fill="#000000" fill-rule="nonzero" fill-opacity="1" /><path clip-path="url(#clip540)" d="M2100.26 1265.75 L2100.26 1269.78 Q2098.45 1268.86 2096.51 1268.39 Q2094.56 1267.93 2092.48 1267.93 Q2089.31 1267.93 2087.71 1268.9 Q2086.14 1269.87 2086.14 1271.82 Q2086.14 1273.3 2087.27 1274.16 Q2088.4 1274.99 2091.83 1275.75 L2093.29 1276.08 Q2097.83 1277.05 2099.72 1278.83 Q2101.65 1280.59 2101.65 1283.76 Q2101.65 1287.37 2098.78 1289.48 Q2095.93 1291.59 2090.93 1291.59 Q2088.84 1291.59 2086.58 1291.17 Q2084.33 1290.78 2081.83 1289.97 L2081.83 1285.57 Q2084.19 1286.79 2086.48 1287.42 Q2088.78 1288.02 2091.02 1288.02 Q2094.03 1288.02 2095.65 1287 Q2097.27 1285.96 2097.27 1284.09 Q2097.27 1282.35 2096.09 1281.42 Q2094.93 1280.5 2090.97 1279.64 L2089.49 1279.3 Q2085.53 1278.46 2083.78 1276.75 Q2082.02 1275.01 2082.02 1272 Q2082.02 1268.35 2084.61 1266.36 Q2087.2 1264.36 2091.97 1264.36 Q2094.33 1264.36 2096.41 1264.71 Q2098.5 1265.06 2100.26 1265.75 Z" fill="#000000" fill-rule="nonzero" fill-opacity="1" /><path clip-path="url(#clip540)" d="M2112.64 1257.63 L2112.64 1264.99 L2121.41 1264.99 L2121.41 1268.3 L2112.64 1268.3 L2112.64 1282.37 Q2112.64 1285.54 2113.5 1286.45 Q2114.38 1287.35 2117.04 1287.35 L2121.41 1287.35 L2121.41 1290.92 L2117.04 1290.92 Q2112.11 1290.92 2110.23 1289.09 Q2108.36 1287.23 2108.36 1282.37 L2108.36 1268.3 L2105.23 1268.3 L2105.23 1264.99 L2108.36 1264.99 L2108.36 1257.63 L2112.64 1257.63 Z" fill="#000000" fill-rule="nonzero" fill-opacity="1" /><path clip-path="url(#clip540)" d="M2137.06 1267.98 Q2133.64 1267.98 2131.65 1270.66 Q2129.65 1273.32 2129.65 1277.98 Q2129.65 1282.63 2131.62 1285.31 Q2133.61 1287.98 2137.06 1287.98 Q2140.46 1287.98 2142.46 1285.29 Q2144.45 1282.61 2144.45 1277.98 Q2144.45 1273.37 2142.46 1270.68 Q2140.46 1267.98 2137.06 1267.98 M2137.06 1264.36 Q2142.62 1264.36 2145.79 1267.98 Q2148.96 1271.59 2148.96 1277.98 Q2148.96 1284.34 2145.79 1287.98 Q2142.62 1291.59 2137.06 1291.59 Q2131.48 1291.59 2128.31 1287.98 Q2125.16 1284.34 2125.16 1277.98 Q2125.16 1271.59 2128.31 1267.98 Q2131.48 1264.36 2137.06 1264.36 Z" fill="#000000" fill-rule="nonzero" fill-opacity="1" /><path clip-path="url(#clip540)" d="M2171.04 1268.97 Q2170.33 1268.55 2169.47 1268.37 Q2168.64 1268.16 2167.62 1268.16 Q2164.01 1268.16 2162.06 1270.52 Q2160.14 1272.86 2160.14 1277.26 L2160.14 1290.92 L2155.86 1290.92 L2155.86 1264.99 L2160.14 1264.99 L2160.14 1269.02 Q2161.48 1266.66 2163.64 1265.52 Q2165.79 1264.36 2168.87 1264.36 Q2169.31 1264.36 2169.84 1264.43 Q2170.37 1264.48 2171.02 1264.6 L2171.04 1268.97 Z" fill="#000000" fill-rule="nonzero" fill-opacity="1" /><path clip-path="url(#clip540)" d="M2187.29 1277.88 Q2182.13 1277.88 2180.14 1279.06 Q2178.15 1280.24 2178.15 1283.09 Q2178.15 1285.36 2179.63 1286.7 Q2181.14 1288.02 2183.71 1288.02 Q2187.25 1288.02 2189.38 1285.52 Q2191.53 1283 2191.53 1278.83 L2191.53 1277.88 L2187.29 1277.88 M2195.79 1276.12 L2195.79 1290.92 L2191.53 1290.92 L2191.53 1286.98 Q2190.07 1289.34 2187.9 1290.48 Q2185.72 1291.59 2182.57 1291.59 Q2178.59 1291.59 2176.23 1289.36 Q2173.89 1287.12 2173.89 1283.37 Q2173.89 1278.99 2176.81 1276.77 Q2179.75 1274.55 2185.56 1274.55 L2191.53 1274.55 L2191.53 1274.13 Q2191.53 1271.19 2189.58 1269.6 Q2187.66 1267.98 2184.17 1267.98 Q2181.95 1267.98 2179.84 1268.51 Q2177.73 1269.04 2175.79 1270.11 L2175.79 1266.17 Q2178.13 1265.27 2180.33 1264.83 Q2182.52 1264.36 2184.61 1264.36 Q2190.23 1264.36 2193.01 1267.28 Q2195.79 1270.2 2195.79 1276.12 Z" fill="#000000" fill-rule="nonzero" fill-opacity="1" /><path clip-path="url(#clip540)" d="M2221.62 1277.65 Q2221.62 1273.02 2219.7 1270.48 Q2217.8 1267.93 2214.35 1267.93 Q2210.93 1267.93 2209.01 1270.48 Q2207.11 1273.02 2207.11 1277.65 Q2207.11 1282.26 2209.01 1284.8 Q2210.93 1287.35 2214.35 1287.35 Q2217.8 1287.35 2219.7 1284.8 Q2221.62 1282.26 2221.62 1277.65 M2225.88 1287.7 Q2225.88 1294.32 2222.94 1297.54 Q2220 1300.78 2213.94 1300.78 Q2211.69 1300.78 2209.7 1300.43 Q2207.71 1300.11 2205.83 1299.41 L2205.83 1295.27 Q2207.71 1296.29 2209.54 1296.77 Q2211.37 1297.26 2213.27 1297.26 Q2217.46 1297.26 2219.54 1295.06 Q2221.62 1292.88 2221.62 1288.46 L2221.62 1286.36 Q2220.3 1288.65 2218.24 1289.78 Q2216.18 1290.92 2213.31 1290.92 Q2208.54 1290.92 2205.63 1287.28 Q2202.71 1283.65 2202.71 1277.65 Q2202.71 1271.63 2205.63 1268 Q2208.54 1264.36 2213.31 1264.36 Q2216.18 1264.36 2218.24 1265.5 Q2220.3 1266.63 2221.62 1268.92 L2221.62 1264.99 L2225.88 1264.99 L2225.88 1287.7 Z" fill="#000000" fill-rule="nonzero" fill-opacity="1" /><path clip-path="url(#clip540)" d="M2256.83 1276.89 L2256.83 1278.97 L2237.25 1278.97 Q2237.52 1283.37 2239.89 1285.68 Q2242.27 1287.98 2246.51 1287.98 Q2248.96 1287.98 2251.25 1287.37 Q2253.57 1286.77 2255.83 1285.57 L2255.83 1289.6 Q2253.54 1290.57 2251.14 1291.08 Q2248.73 1291.59 2246.25 1291.59 Q2240.05 1291.59 2236.41 1287.98 Q2232.8 1284.36 2232.8 1278.21 Q2232.8 1271.84 2236.23 1268.11 Q2239.68 1264.36 2245.51 1264.36 Q2250.74 1264.36 2253.77 1267.74 Q2256.83 1271.1 2256.83 1276.89 M2252.57 1275.64 Q2252.52 1272.14 2250.6 1270.06 Q2248.71 1267.98 2245.56 1267.98 Q2241.99 1267.98 2239.84 1269.99 Q2237.71 1272 2237.39 1275.66 L2252.57 1275.64 Z" fill="#000000" fill-rule="nonzero" fill-opacity="1" /><polyline clip-path="url(#clip540)" style="stroke:#e26f46; stroke-linecap:round; stroke-linejoin:round; stroke-width:4; stroke-opacity:1; fill:none" points="1829.56,1325.48 1973.45,1325.48 "/>
<path clip-path="url(#clip540)" d="M1997.43 1316.83 L2001.95 1316.83 L2010.05 1338.59 L2018.15 1316.83 L2022.66 1316.83 L2012.94 1342.76 L2007.16 1342.76 L1997.43 1316.83 Z" fill="#000000" fill-rule="nonzero" fill-opacity="1" /><path clip-path="url(#clip540)" d="M2029.19 1308.2 L2047.55 1308.2 L2047.55 1312.13 L2033.47 1312.13 L2033.47 1320.6 Q2034.49 1320.26 2035.51 1320.09 Q2036.53 1319.91 2037.55 1319.91 Q2043.34 1319.91 2046.72 1323.08 Q2050.09 1326.25 2050.09 1331.67 Q2050.09 1337.25 2046.62 1340.35 Q2043.15 1343.43 2036.83 1343.43 Q2034.66 1343.43 2032.39 1343.06 Q2030.14 1342.69 2027.73 1341.95 L2027.73 1337.25 Q2029.82 1338.38 2032.04 1338.94 Q2034.26 1339.49 2036.74 1339.49 Q2040.74 1339.49 2043.08 1337.38 Q2045.42 1335.28 2045.42 1331.67 Q2045.42 1328.06 2043.08 1325.95 Q2040.74 1323.84 2036.74 1323.84 Q2034.86 1323.84 2032.99 1324.26 Q2031.14 1324.68 2029.19 1325.56 L2029.19 1308.2 Z" fill="#000000" fill-rule="nonzero" fill-opacity="1" /><path clip-path="url(#clip540)" d="M2067.97 1326.11 L2067.97 1333.33 L2076.09 1333.33 L2076.09 1335.53 L2067.97 1335.53 L2067.97 1342.76 L2065.53 1342.76 L2065.53 1335.53 L2057.41 1335.53 L2057.41 1333.33 L2065.53 1333.33 L2065.53 1326.11 L2067.97 1326.11 Z" fill="#000000" fill-rule="nonzero" fill-opacity="1" /><path clip-path="url(#clip540)" d="M2100.26 1317.59 L2100.26 1321.62 Q2098.45 1320.7 2096.51 1320.23 Q2094.56 1319.77 2092.48 1319.77 Q2089.31 1319.77 2087.71 1320.74 Q2086.14 1321.71 2086.14 1323.66 Q2086.14 1325.14 2087.27 1326 Q2088.4 1326.83 2091.83 1327.59 L2093.29 1327.92 Q2097.83 1328.89 2099.72 1330.67 Q2101.65 1332.43 2101.65 1335.6 Q2101.65 1339.21 2098.78 1341.32 Q2095.93 1343.43 2090.93 1343.43 Q2088.84 1343.43 2086.58 1343.01 Q2084.33 1342.62 2081.83 1341.81 L2081.83 1337.41 Q2084.19 1338.63 2086.48 1339.26 Q2088.78 1339.86 2091.02 1339.86 Q2094.03 1339.86 2095.65 1338.84 Q2097.27 1337.8 2097.27 1335.93 Q2097.27 1334.19 2096.09 1333.26 Q2094.93 1332.34 2090.97 1331.48 L2089.49 1331.14 Q2085.53 1330.3 2083.78 1328.59 Q2082.02 1326.85 2082.02 1323.84 Q2082.02 1320.19 2084.61 1318.2 Q2087.2 1316.2 2091.97 1316.2 Q2094.33 1316.2 2096.41 1316.55 Q2098.5 1316.9 2100.26 1317.59 Z" fill="#000000" fill-rule="nonzero" fill-opacity="1" /><path clip-path="url(#clip540)" d="M2112.64 1309.47 L2112.64 1316.83 L2121.41 1316.83 L2121.41 1320.14 L2112.64 1320.14 L2112.64 1334.21 Q2112.64 1337.38 2113.5 1338.29 Q2114.38 1339.19 2117.04 1339.19 L2121.41 1339.19 L2121.41 1342.76 L2117.04 1342.76 Q2112.11 1342.76 2110.23 1340.93 Q2108.36 1339.07 2108.36 1334.21 L2108.36 1320.14 L2105.23 1320.14 L2105.23 1316.83 L2108.36 1316.83 L2108.36 1309.47 L2112.64 1309.47 Z" fill="#000000" fill-rule="nonzero" fill-opacity="1" /><path clip-path="url(#clip540)" d="M2137.06 1319.82 Q2133.64 1319.82 2131.65 1322.5 Q2129.65 1325.16 2129.65 1329.82 Q2129.65 1334.47 2131.62 1337.15 Q2133.61 1339.82 2137.06 1339.82 Q2140.46 1339.82 2142.46 1337.13 Q2144.45 1334.45 2144.45 1329.82 Q2144.45 1325.21 2142.46 1322.52 Q2140.46 1319.82 2137.06 1319.82 M2137.06 1316.2 Q2142.62 1316.2 2145.79 1319.82 Q2148.96 1323.43 2148.96 1329.82 Q2148.96 1336.18 2145.79 1339.82 Q2142.62 1343.43 2137.06 1343.43 Q2131.48 1343.43 2128.31 1339.82 Q2125.16 1336.18 2125.16 1329.82 Q2125.16 1323.43 2128.31 1319.82 Q2131.48 1316.2 2137.06 1316.2 Z" fill="#000000" fill-rule="nonzero" fill-opacity="1" /><path clip-path="url(#clip540)" d="M2171.04 1320.81 Q2170.33 1320.39 2169.47 1320.21 Q2168.64 1320 2167.62 1320 Q2164.01 1320 2162.06 1322.36 Q2160.14 1324.7 2160.14 1329.1 L2160.14 1342.76 L2155.86 1342.76 L2155.86 1316.83 L2160.14 1316.83 L2160.14 1320.86 Q2161.48 1318.5 2163.64 1317.36 Q2165.79 1316.2 2168.87 1316.2 Q2169.31 1316.2 2169.84 1316.27 Q2170.37 1316.32 2171.02 1316.44 L2171.04 1320.81 Z" fill="#000000" fill-rule="nonzero" fill-opacity="1" /><path clip-path="url(#clip540)" d="M2187.29 1329.72 Q2182.13 1329.72 2180.14 1330.9 Q2178.15 1332.08 2178.15 1334.93 Q2178.15 1337.2 2179.63 1338.54 Q2181.14 1339.86 2183.71 1339.86 Q2187.25 1339.86 2189.38 1337.36 Q2191.53 1334.84 2191.53 1330.67 L2191.53 1329.72 L2187.29 1329.72 M2195.79 1327.96 L2195.79 1342.76 L2191.53 1342.76 L2191.53 1338.82 Q2190.07 1341.18 2187.9 1342.32 Q2185.72 1343.43 2182.57 1343.43 Q2178.59 1343.43 2176.23 1341.2 Q2173.89 1338.96 2173.89 1335.21 Q2173.89 1330.83 2176.81 1328.61 Q2179.75 1326.39 2185.56 1326.39 L2191.53 1326.39 L2191.53 1325.97 Q2191.53 1323.03 2189.58 1321.44 Q2187.66 1319.82 2184.17 1319.82 Q2181.95 1319.82 2179.84 1320.35 Q2177.73 1320.88 2175.79 1321.95 L2175.79 1318.01 Q2178.13 1317.11 2180.33 1316.67 Q2182.52 1316.2 2184.61 1316.2 Q2190.23 1316.2 2193.01 1319.12 Q2195.79 1322.04 2195.79 1327.96 Z" fill="#000000" fill-rule="nonzero" fill-opacity="1" /><path clip-path="url(#clip540)" d="M2221.62 1329.49 Q2221.62 1324.86 2219.7 1322.32 Q2217.8 1319.77 2214.35 1319.77 Q2210.93 1319.77 2209.01 1322.32 Q2207.11 1324.86 2207.11 1329.49 Q2207.11 1334.1 2209.01 1336.64 Q2210.93 1339.19 2214.35 1339.19 Q2217.8 1339.19 2219.7 1336.64 Q2221.62 1334.1 2221.62 1329.49 M2225.88 1339.54 Q2225.88 1346.16 2222.94 1349.38 Q2220 1352.62 2213.94 1352.62 Q2211.69 1352.62 2209.7 1352.27 Q2207.71 1351.95 2205.83 1351.25 L2205.83 1347.11 Q2207.71 1348.13 2209.54 1348.61 Q2211.37 1349.1 2213.27 1349.1 Q2217.46 1349.1 2219.54 1346.9 Q2221.62 1344.72 2221.62 1340.3 L2221.62 1338.2 Q2220.3 1340.49 2218.24 1341.62 Q2216.18 1342.76 2213.31 1342.76 Q2208.54 1342.76 2205.63 1339.12 Q2202.71 1335.49 2202.71 1329.49 Q2202.71 1323.47 2205.63 1319.84 Q2208.54 1316.2 2213.31 1316.2 Q2216.18 1316.2 2218.24 1317.34 Q2220.3 1318.47 2221.62 1320.76 L2221.62 1316.83 L2225.88 1316.83 L2225.88 1339.54 Z" fill="#000000" fill-rule="nonzero" fill-opacity="1" /><path clip-path="url(#clip540)" d="M2256.83 1328.73 L2256.83 1330.81 L2237.25 1330.81 Q2237.52 1335.21 2239.89 1337.52 Q2242.27 1339.82 2246.51 1339.82 Q2248.96 1339.82 2251.25 1339.21 Q2253.57 1338.61 2255.83 1337.41 L2255.83 1341.44 Q2253.54 1342.41 2251.14 1342.92 Q2248.73 1343.43 2246.25 1343.43 Q2240.05 1343.43 2236.41 1339.82 Q2232.8 1336.2 2232.8 1330.05 Q2232.8 1323.68 2236.23 1319.95 Q2239.68 1316.2 2245.51 1316.2 Q2250.74 1316.2 2253.77 1319.58 Q2256.83 1322.94 2256.83 1328.73 M2252.57 1327.48 Q2252.52 1323.98 2250.6 1321.9 Q2248.71 1319.82 2245.56 1319.82 Q2241.99 1319.82 2239.84 1321.83 Q2237.71 1323.84 2237.39 1327.5 L2252.57 1327.48 Z" fill="#000000" fill-rule="nonzero" fill-opacity="1" /></svg>
