<?xml version="1.0" encoding="utf-8"?>
<svg xmlns="http://www.w3.org/2000/svg" xmlns:xlink="http://www.w3.org/1999/xlink" width="600" height="400" viewBox="0 0 2400 1600">
<defs>
  <clipPath id="clip440">
    <rect x="0" y="0" width="2400" height="1600"/>
  </clipPath>
</defs>
<path clip-path="url(#clip440)" d="M0 1600 L2400 1600 L2400 0 L0 0  Z" fill="#ffffff" fill-rule="evenodd" fill-opacity="1"/>
<defs>
  <clipPath id="clip441">
    <rect x="480" y="0" width="1681" height="1600"/>
  </clipPath>
</defs>
<path clip-path="url(#clip440)" d="M194.422 1423.18 L2352.76 1423.18 L2352.76 47.2441 L194.422 47.2441  Z" fill="#ffffff" fill-rule="evenodd" fill-opacity="1"/>
<defs>
  <clipPath id="clip442">
    <rect x="194" y="47" width="2159" height="1377"/>
  </clipPath>
</defs>
<polyline clip-path="url(#clip442)" style="stroke:#000000; stroke-linecap:round; stroke-linejoin:round; stroke-width:2; stroke-opacity:0.1; fill:none" points="194.422,1423.18 194.422,47.2441 "/>
<polyline clip-path="url(#clip442)" style="stroke:#000000; stroke-linecap:round; stroke-linejoin:round; stroke-width:2; stroke-opacity:0.1; fill:none" points="734.006,1423.18 734.006,47.2441 "/>
<polyline clip-path="url(#clip442)" style="stroke:#000000; stroke-linecap:round; stroke-linejoin:round; stroke-width:2; stroke-opacity:0.1; fill:none" points="1273.59,1423.18 1273.59,47.2441 "/>
<polyline clip-path="url(#clip442)" style="stroke:#000000; stroke-linecap:round; stroke-linejoin:round; stroke-width:2; stroke-opacity:0.1; fill:none" points="1813.17,1423.18 1813.17,47.2441 "/>
<polyline clip-path="url(#clip442)" style="stroke:#000000; stroke-linecap:round; stroke-linejoin:round; stroke-width:2; stroke-opacity:0.1; fill:none" points="2352.76,1423.18 2352.76,47.2441 "/>
<polyline clip-path="url(#clip442)" style="stroke:#000000; stroke-linecap:round; stroke-linejoin:round; stroke-width:2; stroke-opacity:0.1; fill:none" points="194.422,1351.63 2352.76,1351.63 "/>
<polyline clip-path="url(#clip442)" style="stroke:#000000; stroke-linecap:round; stroke-linejoin:round; stroke-width:2; stroke-opacity:0.1; fill:none" points="194.422,1004.21 2352.76,1004.21 "/>
<polyline clip-path="url(#clip442)" style="stroke:#000000; stroke-linecap:round; stroke-linejoin:round; stroke-width:2; stroke-opacity:0.1; fill:none" points="194.422,656.782 2352.76,656.782 "/>
<polyline clip-path="url(#clip442)" style="stroke:#000000; stroke-linecap:round; stroke-linejoin:round; stroke-width:2; stroke-opacity:0.1; fill:none" points="194.422,309.36 2352.76,309.36 "/>
<polyline clip-path="url(#clip440)" style="stroke:#000000; stroke-linecap:round; stroke-linejoin:round; stroke-width:4; stroke-opacity:1; fill:none" points="194.422,1423.18 2352.76,1423.18 "/>
<polyline clip-path="url(#clip440)" style="stroke:#000000; stroke-linecap:round; stroke-linejoin:round; stroke-width:4; stroke-opacity:1; fill:none" points="194.422,1423.18 194.422,1404.28 "/>
<polyline clip-path="url(#clip440)" style="stroke:#000000; stroke-linecap:round; stroke-linejoin:round; stroke-width:4; stroke-opacity:1; fill:none" points="734.006,1423.18 734.006,1404.28 "/>
<polyline clip-path="url(#clip440)" style="stroke:#000000; stroke-linecap:round; stroke-linejoin:round; stroke-width:4; stroke-opacity:1; fill:none" points="1273.59,1423.18 1273.59,1404.28 "/>
<polyline clip-path="url(#clip440)" style="stroke:#000000; stroke-linecap:round; stroke-linejoin:round; stroke-width:4; stroke-opacity:1; fill:none" points="1813.17,1423.18 1813.17,1404.28 "/>
<polyline clip-path="url(#clip440)" style="stroke:#000000; stroke-linecap:round; stroke-linejoin:round; stroke-width:4; stroke-opacity:1; fill:none" points="2352.76,1423.18 2352.76,1404.28 "/>
<path clip-path="url(#clip440)" d="M171.806 1454.1 Q168.195 1454.1 166.367 1457.66 Q164.561 1461.2 164.561 1468.33 Q164.561 1475.44 166.367 1479.01 Q168.195 1482.55 171.806 1482.55 Q175.441 1482.55 177.246 1479.01 Q179.075 1475.44 179.075 1468.33 Q179.075 1461.2 177.246 1457.66 Q175.441 1454.1 171.806 1454.1 M171.806 1450.39 Q177.617 1450.39 180.672 1455 Q183.751 1459.58 183.751 1468.33 Q183.751 1477.06 180.672 1481.67 Q177.617 1486.25 171.806 1486.25 Q165.996 1486.25 162.918 1481.67 Q159.862 1477.06 159.862 1468.33 Q159.862 1459.58 162.918 1455 Q165.996 1450.39 171.806 1450.39 Z" fill="#000000" fill-rule="nonzero" fill-opacity="1" /><path clip-path="url(#clip440)" d="M191.968 1479.7 L196.853 1479.7 L196.853 1485.58 L191.968 1485.58 L191.968 1479.7 Z" fill="#000000" fill-rule="nonzero" fill-opacity="1" /><path clip-path="url(#clip440)" d="M217.038 1454.1 Q213.427 1454.1 211.598 1457.66 Q209.792 1461.2 209.792 1468.33 Q209.792 1475.44 211.598 1479.01 Q213.427 1482.55 217.038 1482.55 Q220.672 1482.55 222.478 1479.01 Q224.306 1475.44 224.306 1468.33 Q224.306 1461.2 222.478 1457.66 Q220.672 1454.1 217.038 1454.1 M217.038 1450.39 Q222.848 1450.39 225.903 1455 Q228.982 1459.58 228.982 1468.33 Q228.982 1477.06 225.903 1481.67 Q222.848 1486.25 217.038 1486.25 Q211.228 1486.25 208.149 1481.67 Q205.093 1477.06 205.093 1468.33 Q205.093 1459.58 208.149 1455 Q211.228 1450.39 217.038 1450.39 Z" fill="#000000" fill-rule="nonzero" fill-opacity="1" /><path clip-path="url(#clip440)" d="M711.888 1454.1 Q708.277 1454.1 706.448 1457.66 Q704.642 1461.2 704.642 1468.33 Q704.642 1475.44 706.448 1479.01 Q708.277 1482.55 711.888 1482.55 Q715.522 1482.55 717.327 1479.01 Q719.156 1475.44 719.156 1468.33 Q719.156 1461.2 717.327 1457.66 Q715.522 1454.1 711.888 1454.1 M711.888 1450.39 Q717.698 1450.39 720.753 1455 Q723.832 1459.58 723.832 1468.33 Q723.832 1477.06 720.753 1481.67 Q717.698 1486.25 711.888 1486.25 Q706.077 1486.25 702.999 1481.67 Q699.943 1477.06 699.943 1468.33 Q699.943 1459.58 702.999 1455 Q706.077 1450.39 711.888 1450.39 Z" fill="#000000" fill-rule="nonzero" fill-opacity="1" /><path clip-path="url(#clip440)" d="M732.05 1479.7 L736.934 1479.7 L736.934 1485.58 L732.05 1485.58 L732.05 1479.7 Z" fill="#000000" fill-rule="nonzero" fill-opacity="1" /><path clip-path="url(#clip440)" d="M747.165 1451.02 L765.522 1451.02 L765.522 1454.96 L751.448 1454.96 L751.448 1463.43 Q752.466 1463.08 753.485 1462.92 Q754.503 1462.73 755.522 1462.73 Q761.309 1462.73 764.688 1465.9 Q768.068 1469.08 768.068 1474.49 Q768.068 1480.07 764.596 1483.17 Q761.123 1486.25 754.804 1486.25 Q752.628 1486.25 750.36 1485.88 Q748.114 1485.51 745.707 1484.77 L745.707 1480.07 Q747.79 1481.2 750.012 1481.76 Q752.235 1482.32 754.711 1482.32 Q758.716 1482.32 761.054 1480.21 Q763.392 1478.1 763.392 1474.49 Q763.392 1470.88 761.054 1468.77 Q758.716 1466.67 754.711 1466.67 Q752.836 1466.67 750.961 1467.08 Q749.11 1467.5 747.165 1468.38 L747.165 1451.02 Z" fill="#000000" fill-rule="nonzero" fill-opacity="1" /><path clip-path="url(#clip440)" d="M1240.74 1481.64 L1248.38 1481.64 L1248.38 1455.28 L1240.07 1456.95 L1240.07 1452.69 L1248.33 1451.02 L1253.01 1451.02 L1253.01 1481.64 L1260.65 1481.64 L1260.65 1485.58 L1240.74 1485.58 L1240.74 1481.64 Z" fill="#000000" fill-rule="nonzero" fill-opacity="1" /><path clip-path="url(#clip440)" d="M1270.09 1479.7 L1274.98 1479.7 L1274.98 1485.58 L1270.09 1485.58 L1270.09 1479.7 Z" fill="#000000" fill-rule="nonzero" fill-opacity="1" /><path clip-path="url(#clip440)" d="M1295.16 1454.1 Q1291.55 1454.1 1289.72 1457.66 Q1287.92 1461.2 1287.92 1468.33 Q1287.92 1475.44 1289.72 1479.01 Q1291.55 1482.55 1295.16 1482.55 Q1298.8 1482.55 1300.6 1479.01 Q1302.43 1475.44 1302.43 1468.33 Q1302.43 1461.2 1300.6 1457.66 Q1298.8 1454.1 1295.16 1454.1 M1295.16 1450.39 Q1300.97 1450.39 1304.03 1455 Q1307.11 1459.58 1307.11 1468.33 Q1307.11 1477.06 1304.03 1481.67 Q1300.97 1486.25 1295.16 1486.25 Q1289.35 1486.25 1286.27 1481.67 Q1283.22 1477.06 1283.22 1468.33 Q1283.22 1459.58 1286.27 1455 Q1289.35 1450.39 1295.16 1450.39 Z" fill="#000000" fill-rule="nonzero" fill-opacity="1" /><path clip-path="url(#clip440)" d="M1780.82 1481.64 L1788.46 1481.64 L1788.46 1455.28 L1780.15 1456.95 L1780.15 1452.69 L1788.42 1451.02 L1793.09 1451.02 L1793.09 1481.64 L1800.73 1481.64 L1800.73 1485.58 L1780.82 1485.58 L1780.82 1481.64 Z" fill="#000000" fill-rule="nonzero" fill-opacity="1" /><path clip-path="url(#clip440)" d="M1810.17 1479.7 L1815.06 1479.7 L1815.06 1485.58 L1810.17 1485.58 L1810.17 1479.7 Z" fill="#000000" fill-rule="nonzero" fill-opacity="1" /><path clip-path="url(#clip440)" d="M1825.29 1451.02 L1843.65 1451.02 L1843.65 1454.96 L1829.57 1454.96 L1829.57 1463.43 Q1830.59 1463.08 1831.61 1462.92 Q1832.63 1462.73 1833.65 1462.73 Q1839.43 1462.73 1842.81 1465.9 Q1846.19 1469.08 1846.19 1474.49 Q1846.19 1480.07 1842.72 1483.17 Q1839.25 1486.25 1832.93 1486.25 Q1830.75 1486.25 1828.48 1485.88 Q1826.24 1485.51 1823.83 1484.77 L1823.83 1480.07 Q1825.92 1481.2 1828.14 1481.76 Q1830.36 1482.32 1832.84 1482.32 Q1836.84 1482.32 1839.18 1480.21 Q1841.52 1478.1 1841.52 1474.49 Q1841.52 1470.88 1839.18 1468.77 Q1836.84 1466.67 1832.84 1466.67 Q1830.96 1466.67 1829.09 1467.08 Q1827.23 1467.5 1825.29 1468.38 L1825.29 1451.02 Z" fill="#000000" fill-rule="nonzero" fill-opacity="1" /><path clip-path="url(#clip440)" d="M2323.99 1481.64 L2340.31 1481.64 L2340.31 1485.58 L2318.37 1485.58 L2318.37 1481.64 Q2321.03 1478.89 2325.61 1474.26 Q2330.22 1469.61 2331.4 1468.27 Q2333.65 1465.74 2334.53 1464.01 Q2335.43 1462.25 2335.43 1460.56 Q2335.43 1457.8 2333.49 1456.07 Q2331.56 1454.33 2328.46 1454.33 Q2326.26 1454.33 2323.81 1455.09 Q2321.38 1455.86 2318.6 1457.41 L2318.6 1452.69 Q2321.43 1451.55 2323.88 1450.97 Q2326.33 1450.39 2328.37 1450.39 Q2333.74 1450.39 2336.93 1453.08 Q2340.13 1455.77 2340.13 1460.26 Q2340.13 1462.39 2339.32 1464.31 Q2338.53 1466.2 2336.42 1468.8 Q2335.85 1469.47 2332.74 1472.69 Q2329.64 1475.88 2323.99 1481.64 Z" fill="#000000" fill-rule="nonzero" fill-opacity="1" /><path clip-path="url(#clip440)" d="M2350.13 1479.7 L2355.01 1479.7 L2355.01 1485.58 L2350.13 1485.58 L2350.13 1479.7 Z" fill="#000000" fill-rule="nonzero" fill-opacity="1" /><path clip-path="url(#clip440)" d="M2375.2 1454.1 Q2371.59 1454.1 2369.76 1457.66 Q2367.95 1461.2 2367.95 1468.33 Q2367.95 1475.44 2369.76 1479.01 Q2371.59 1482.55 2375.2 1482.55 Q2378.83 1482.55 2380.64 1479.01 Q2382.47 1475.44 2382.47 1468.33 Q2382.47 1461.2 2380.64 1457.66 Q2378.83 1454.1 2375.2 1454.1 M2375.2 1450.39 Q2381.01 1450.39 2384.06 1455 Q2387.14 1459.58 2387.14 1468.33 Q2387.14 1477.06 2384.06 1481.67 Q2381.01 1486.25 2375.2 1486.25 Q2369.39 1486.25 2366.31 1481.67 Q2363.25 1477.06 2363.25 1468.33 Q2363.25 1459.58 2366.31 1455 Q2369.39 1450.39 2375.2 1450.39 Z" fill="#000000" fill-rule="nonzero" fill-opacity="1" /><path clip-path="url(#clip440)" d="M1272.65 1522.27 L1272.65 1532.4 L1284.71 1532.4 L1284.71 1536.95 L1272.65 1536.95 L1272.65 1556.3 Q1272.65 1560.66 1273.83 1561.9 Q1275.04 1563.14 1278.7 1563.14 L1284.71 1563.14 L1284.71 1568.04 L1278.7 1568.04 Q1271.92 1568.04 1269.34 1565.53 Q1266.76 1562.98 1266.76 1556.3 L1266.76 1536.95 L1262.46 1536.95 L1262.46 1532.4 L1266.76 1532.4 L1266.76 1522.27 L1272.65 1522.27 Z" fill="#000000" fill-rule="nonzero" fill-opacity="1" /><polyline clip-path="url(#clip440)" style="stroke:#000000; stroke-linecap:round; stroke-linejoin:round; stroke-width:4; stroke-opacity:1; fill:none" points="194.422,1423.18 194.422,47.2441 "/>
<polyline clip-path="url(#clip440)" style="stroke:#000000; stroke-linecap:round; stroke-linejoin:round; stroke-width:4; stroke-opacity:1; fill:none" points="194.422,1351.63 213.32,1351.63 "/>
<polyline clip-path="url(#clip440)" style="stroke:#000000; stroke-linecap:round; stroke-linejoin:round; stroke-width:4; stroke-opacity:1; fill:none" points="194.422,1004.21 213.32,1004.21 "/>
<polyline clip-path="url(#clip440)" style="stroke:#000000; stroke-linecap:round; stroke-linejoin:round; stroke-width:4; stroke-opacity:1; fill:none" points="194.422,656.782 213.32,656.782 "/>
<polyline clip-path="url(#clip440)" style="stroke:#000000; stroke-linecap:round; stroke-linejoin:round; stroke-width:4; stroke-opacity:1; fill:none" points="194.422,309.36 213.32,309.36 "/>
<path clip-path="url(#clip440)" d="M51.5708 1352.08 L81.2466 1352.08 L81.2466 1356.01 L51.5708 1356.01 L51.5708 1352.08 Z" fill="#000000" fill-rule="nonzero" fill-opacity="1" /><path clip-path="url(#clip440)" d="M101.339 1337.43 Q97.728 1337.43 95.8993 1340.99 Q94.0937 1344.53 94.0937 1351.66 Q94.0937 1358.77 95.8993 1362.33 Q97.728 1365.88 101.339 1365.88 Q104.973 1365.88 106.779 1362.33 Q108.608 1358.77 108.608 1351.66 Q108.608 1344.53 106.779 1340.99 Q104.973 1337.43 101.339 1337.43 M101.339 1333.72 Q107.149 1333.72 110.205 1338.33 Q113.283 1342.91 113.283 1351.66 Q113.283 1360.39 110.205 1365 Q107.149 1369.58 101.339 1369.58 Q95.5289 1369.58 92.4502 1365 Q89.3947 1360.39 89.3947 1351.66 Q89.3947 1342.91 92.4502 1338.33 Q95.5289 1333.72 101.339 1333.72 Z" fill="#000000" fill-rule="nonzero" fill-opacity="1" /><path clip-path="url(#clip440)" d="M121.501 1363.03 L126.385 1363.03 L126.385 1368.91 L121.501 1368.91 L121.501 1363.03 Z" fill="#000000" fill-rule="nonzero" fill-opacity="1" /><path clip-path="url(#clip440)" d="M146.57 1352.5 Q143.237 1352.5 141.316 1354.28 Q139.418 1356.06 139.418 1359.19 Q139.418 1362.31 141.316 1364.09 Q143.237 1365.88 146.57 1365.88 Q149.904 1365.88 151.825 1364.09 Q153.746 1362.29 153.746 1359.19 Q153.746 1356.06 151.825 1354.28 Q149.927 1352.5 146.57 1352.5 M141.894 1350.51 Q138.885 1349.76 137.195 1347.7 Q135.529 1345.64 135.529 1342.68 Q135.529 1338.54 138.469 1336.13 Q141.431 1333.72 146.57 1333.72 Q151.732 1333.72 154.672 1336.13 Q157.612 1338.54 157.612 1342.68 Q157.612 1345.64 155.922 1347.7 Q154.255 1349.76 151.269 1350.51 Q154.649 1351.29 156.524 1353.58 Q158.422 1355.88 158.422 1359.19 Q158.422 1364.21 155.343 1366.89 Q152.288 1369.58 146.57 1369.58 Q140.853 1369.58 137.774 1366.89 Q134.719 1364.21 134.719 1359.19 Q134.719 1355.88 136.617 1353.58 Q138.515 1351.29 141.894 1350.51 M140.181 1343.12 Q140.181 1345.81 141.848 1347.31 Q143.538 1348.82 146.57 1348.82 Q149.58 1348.82 151.269 1347.31 Q152.982 1345.81 152.982 1343.12 Q152.982 1340.44 151.269 1338.93 Q149.58 1337.43 146.57 1337.43 Q143.538 1337.43 141.848 1338.93 Q140.181 1340.44 140.181 1343.12 Z" fill="#000000" fill-rule="nonzero" fill-opacity="1" /><path clip-path="url(#clip440)" d="M51.3162 1004.66 L80.992 1004.66 L80.992 1008.59 L51.3162 1008.59 L51.3162 1004.66 Z" fill="#000000" fill-rule="nonzero" fill-opacity="1" /><path clip-path="url(#clip440)" d="M101.084 990.004 Q97.4734 990.004 95.6447 993.569 Q93.8391 997.11 93.8391 1004.24 Q93.8391 1011.35 95.6447 1014.91 Q97.4734 1018.45 101.084 1018.45 Q104.719 1018.45 106.524 1014.91 Q108.353 1011.35 108.353 1004.24 Q108.353 997.11 106.524 993.569 Q104.719 990.004 101.084 990.004 M101.084 986.3 Q106.895 986.3 109.95 990.907 Q113.029 995.49 113.029 1004.24 Q113.029 1012.97 109.95 1017.57 Q106.895 1022.16 101.084 1022.16 Q95.2743 1022.16 92.1956 1017.57 Q89.1401 1012.97 89.1401 1004.24 Q89.1401 995.49 92.1956 990.907 Q95.2743 986.3 101.084 986.3 Z" fill="#000000" fill-rule="nonzero" fill-opacity="1" /><path clip-path="url(#clip440)" d="M121.246 1015.61 L126.131 1015.61 L126.131 1021.49 L121.246 1021.49 L121.246 1015.61 Z" fill="#000000" fill-rule="nonzero" fill-opacity="1" /><path clip-path="url(#clip440)" d="M146.894 1002.34 Q143.746 1002.34 141.894 1004.49 Q140.066 1006.65 140.066 1010.4 Q140.066 1014.12 141.894 1016.3 Q143.746 1018.45 146.894 1018.45 Q150.043 1018.45 151.871 1016.3 Q153.723 1014.12 153.723 1010.4 Q153.723 1006.65 151.871 1004.49 Q150.043 1002.34 146.894 1002.34 M156.177 987.689 L156.177 991.948 Q154.417 991.115 152.612 990.675 Q150.83 990.236 149.07 990.236 Q144.441 990.236 141.987 993.361 Q139.556 996.485 139.209 1002.8 Q140.575 1000.79 142.635 999.726 Q144.695 998.638 147.172 998.638 Q152.38 998.638 155.39 1001.81 Q158.422 1004.96 158.422 1010.4 Q158.422 1015.72 155.274 1018.94 Q152.126 1022.16 146.894 1022.16 Q140.899 1022.16 137.728 1017.57 Q134.556 1012.97 134.556 1004.24 Q134.556 996.046 138.445 991.185 Q142.334 986.3 148.885 986.3 Q150.644 986.3 152.427 986.648 Q154.232 986.995 156.177 987.689 Z" fill="#000000" fill-rule="nonzero" fill-opacity="1" /><path clip-path="url(#clip440)" d="M50.9921 657.234 L80.6679 657.234 L80.6679 661.169 L50.9921 661.169 L50.9921 657.234 Z" fill="#000000" fill-rule="nonzero" fill-opacity="1" /><path clip-path="url(#clip440)" d="M100.76 642.581 Q97.1493 642.581 95.3206 646.146 Q93.515 649.688 93.515 656.817 Q93.515 663.924 95.3206 667.488 Q97.1493 671.03 100.76 671.03 Q104.395 671.03 106.2 667.488 Q108.029 663.924 108.029 656.817 Q108.029 649.688 106.2 646.146 Q104.395 642.581 100.76 642.581 M100.76 638.877 Q106.571 638.877 109.626 643.484 Q112.705 648.067 112.705 656.817 Q112.705 665.544 109.626 670.15 Q106.571 674.734 100.76 674.734 Q94.9502 674.734 91.8715 670.15 Q88.816 665.544 88.816 656.817 Q88.816 648.067 91.8715 643.484 Q94.9502 638.877 100.76 638.877 Z" fill="#000000" fill-rule="nonzero" fill-opacity="1" /><path clip-path="url(#clip440)" d="M120.922 668.183 L125.807 668.183 L125.807 674.062 L120.922 674.062 L120.922 668.183 Z" fill="#000000" fill-rule="nonzero" fill-opacity="1" /><path clip-path="url(#clip440)" d="M148.839 643.577 L137.033 662.026 L148.839 662.026 L148.839 643.577 M147.612 639.502 L153.492 639.502 L153.492 662.026 L158.422 662.026 L158.422 665.914 L153.492 665.914 L153.492 674.062 L148.839 674.062 L148.839 665.914 L133.237 665.914 L133.237 661.401 L147.612 639.502 Z" fill="#000000" fill-rule="nonzero" fill-opacity="1" /><path clip-path="url(#clip440)" d="M53.0754 309.811 L82.7512 309.811 L82.7512 313.746 L53.0754 313.746 L53.0754 309.811 Z" fill="#000000" fill-rule="nonzero" fill-opacity="1" /><path clip-path="url(#clip440)" d="M102.844 295.158 Q99.2326 295.158 97.4039 298.723 Q95.5984 302.265 95.5984 309.394 Q95.5984 316.501 97.4039 320.066 Q99.2326 323.607 102.844 323.607 Q106.478 323.607 108.283 320.066 Q110.112 316.501 110.112 309.394 Q110.112 302.265 108.283 298.723 Q106.478 295.158 102.844 295.158 M102.844 291.455 Q108.654 291.455 111.709 296.061 Q114.788 300.644 114.788 309.394 Q114.788 318.121 111.709 322.728 Q108.654 327.311 102.844 327.311 Q97.0335 327.311 93.9549 322.728 Q90.8993 318.121 90.8993 309.394 Q90.8993 300.644 93.9549 296.061 Q97.0335 291.455 102.844 291.455 Z" fill="#000000" fill-rule="nonzero" fill-opacity="1" /><path clip-path="url(#clip440)" d="M123.006 320.76 L127.89 320.76 L127.89 326.64 L123.006 326.64 L123.006 320.76 Z" fill="#000000" fill-rule="nonzero" fill-opacity="1" /><path clip-path="url(#clip440)" d="M142.103 322.704 L158.422 322.704 L158.422 326.64 L136.478 326.64 L136.478 322.704 Q139.14 319.95 143.723 315.32 Q148.33 310.668 149.51 309.325 Q151.755 306.802 152.635 305.066 Q153.538 303.306 153.538 301.617 Q153.538 298.862 151.593 297.126 Q149.672 295.39 146.57 295.39 Q144.371 295.39 141.918 296.154 Q139.487 296.918 136.709 298.468 L136.709 293.746 Q139.533 292.612 141.987 292.033 Q144.441 291.455 146.478 291.455 Q151.848 291.455 155.042 294.14 Q158.237 296.825 158.237 301.316 Q158.237 303.445 157.427 305.367 Q156.64 307.265 154.533 309.857 Q153.955 310.529 150.853 313.746 Q147.751 316.941 142.103 322.704 Z" fill="#000000" fill-rule="nonzero" fill-opacity="1" /><polyline clip-path="url(#clip442)" style="stroke:#009af9; stroke-linecap:round; stroke-linejoin:round; stroke-width:4; stroke-opacity:1; fill:none" points="194.422,86.1857 196.583,98.5686 198.743,110.828 200.904,122.966 203.064,134.982 205.225,146.879 207.385,158.657 209.546,170.318 211.706,181.863 213.867,193.293 216.027,204.609 218.188,215.813 220.348,226.905 222.509,237.886 224.669,248.758 226.83,259.521 228.99,270.178 231.151,280.728 233.311,291.173 235.471,301.515 237.632,311.753 239.792,321.889 241.953,331.924 244.113,341.86 246.274,351.696 248.434,361.435 250.595,371.076 252.755,380.621 254.916,390.072 257.076,399.428 259.237,408.691 261.397,417.862 263.558,426.941 265.718,435.93 267.879,444.829 270.039,453.64 272.2,462.363 274.36,470.999 276.521,479.549 278.681,488.014 280.842,496.395 283.002,504.692 285.163,512.906 287.323,521.039 289.484,529.091 291.644,537.062 293.805,544.954 295.965,552.768 298.126,560.504 300.286,568.162 302.447,575.745 304.607,583.252 306.768,590.684 308.928,598.042 311.089,605.327 313.249,612.539 315.41,619.68 317.57,626.749 319.731,633.748 321.891,640.677 324.052,647.537 326.212,654.329 328.373,661.053 330.533,667.71 332.694,674.301 334.854,680.826 337.015,687.286 339.175,693.682 341.336,700.014 343.496,706.283 345.657,712.49 347.817,718.635 349.978,724.718 352.138,730.741 354.299,736.704 356.459,742.608 358.62,748.453 360.78,754.239 362.941,759.968 365.101,765.64 367.262,771.256 369.422,776.815 371.583,782.32 373.743,787.769 375.904,793.164 378.064,798.506 380.225,803.794 382.385,809.03 384.546,814.213 386.706,819.345 388.867,824.426 391.027,829.456 393.188,834.436 395.348,839.367 397.509,844.248 399.669,849.08 401.83,853.865 403.99,858.602 406.151,863.291 408.311,867.934 410.472,872.531 412.632,877.082 414.793,881.587 416.953,886.047 419.114,890.464 421.274,894.836 423.435,899.164 425.595,903.45 427.755,907.692 429.916,911.893 432.076,916.051 434.237,920.169 436.397,924.245 438.558,928.28 440.718,932.276 442.879,936.231 445.039,940.148 447.2,944.025 449.36,947.864 451.521,951.664 453.681,955.427 455.842,959.152 458.002,962.84 460.163,966.491 462.323,970.106 464.484,973.685 466.644,977.229 468.805,980.737 470.965,984.21 473.126,987.649 475.286,991.054 477.447,994.425 479.607,997.762 481.768,1001.07 483.928,1004.34 486.089,1007.57 488.249,1010.78 490.41,1013.95 492.57,1017.1 494.731,1020.21 496.891,1023.29 499.052,1026.34 501.212,1029.36 503.373,1032.35 505.533,1035.31 507.694,1038.23 509.854,1041.14 512.015,1044.01 514.175,1046.85 516.336,1049.66 518.496,1052.45 520.657,1055.21 522.817,1057.94 524.978,1060.64 527.138,1063.32 529.299,1065.97 531.459,1068.6 533.62,1071.19 535.78,1073.77 537.941,1076.31 540.101,1078.83 542.262,1081.33 544.422,1083.8 546.583,1086.25 548.743,1088.67 550.904,1091.07 553.064,1093.44 555.225,1095.79 557.385,1098.12 559.546,1100.42 561.706,1102.7 563.867,1104.96 566.027,1107.2 568.188,1109.41 570.348,1111.6 572.509,1113.77 574.669,1115.92 576.83,1118.04 578.99,1120.15 581.151,1122.24 583.311,1124.3 585.472,1126.34 587.632,1128.37 589.793,1130.37 591.953,1132.35 594.114,1134.32 596.274,1136.26 598.435,1138.18 600.595,1140.09 602.756,1141.98 604.916,1143.84 607.077,1145.69 609.237,1147.52 611.398,1149.34 613.558,1151.13 615.718,1152.91 617.879,1154.66 620.039,1156.41 622.2,1158.13 624.36,1159.84 626.521,1161.52 628.681,1163.2 630.842,1164.85 633.002,1166.49 635.163,1168.12 637.323,1169.72 639.484,1171.31 641.644,1172.89 643.805,1174.45 645.965,1175.99 648.126,1177.52 650.286,1179.03 652.447,1180.53 654.607,1182.01 656.768,1183.48 658.928,1184.93 661.089,1186.37 663.249,1187.8 665.41,1189.21 667.57,1190.6 669.731,1191.99 671.891,1193.35 674.052,1194.71 676.212,1196.05 678.373,1197.38 680.533,1198.69 682.694,1200 684.854,1201.29 687.015,1202.56 689.175,1203.82 691.336,1205.08 693.496,1206.31 695.657,1207.54 697.817,1208.75 699.978,1209.96 702.138,1211.15 704.299,1212.32 706.459,1213.49 708.62,1214.65 710.78,1215.79 712.941,1216.92 715.101,1218.04 717.262,1219.15 719.422,1220.25 721.583,1221.34 723.743,1222.42 725.904,1223.48 728.064,1224.54 730.225,1225.58 732.385,1226.62 734.546,1227.64 736.706,1228.66 738.867,1229.66 741.027,1230.66 743.188,1231.64 745.348,1232.61 747.509,1233.58 749.669,1234.54 751.83,1235.48 753.99,1236.42 756.151,1237.34 758.311,1238.26 760.472,1239.17 762.632,1240.07 764.793,1240.96 766.953,1241.84 769.114,1242.71 771.274,1243.58 773.435,1244.43 775.595,1245.28 777.756,1246.12 779.916,1246.95 782.077,1247.77 784.237,1248.58 786.398,1249.39 788.558,1250.19 790.719,1250.97 792.879,1251.76 795.04,1252.53 797.2,1253.3 799.361,1254.05 801.521,1254.8 803.681,1255.55 805.842,1256.28 808.002,1257.01 810.163,1257.73 812.323,1258.45 814.484,1259.15 816.644,1259.85 818.805,1260.54 820.965,1261.23 823.126,1261.91 825.286,1262.58 827.447,1263.25 829.607,1263.91 831.768,1264.56 833.928,1265.2 836.089,1265.84 838.249,1266.48 840.41,1267.1 842.57,1267.72 844.731,1268.34 846.891,1268.95 849.052,1269.55 851.212,1270.14 853.373,1270.73 855.533,1271.32 857.694,1271.9 859.854,1272.47 862.015,1273.04 864.175,1273.6 866.336,1274.16 868.496,1274.71 870.657,1275.25 872.817,1275.79 874.978,1276.33 877.138,1276.86 879.299,1277.38 881.459,1277.9 883.62,1278.41 885.78,1278.92 887.941,1279.42 890.101,1279.92 892.262,1280.42 894.422,1280.91 896.583,1281.39 898.743,1281.87 900.904,1282.34 903.064,1282.81 905.225,1283.28 907.385,1283.74 909.546,1284.19 911.706,1284.65 913.867,1285.09 916.027,1285.53 918.188,1285.97 920.348,1286.41 922.509,1286.83 924.669,1287.26 926.83,1287.68 928.99,1288.1 931.151,1288.51 933.311,1288.92 935.472,1289.32 937.632,1289.72 939.793,1290.12 941.953,1290.51 944.114,1290.9 946.274,1291.28 948.435,1291.66 950.595,1292.04 952.756,1292.41 954.916,1292.78 957.077,1293.14 959.237,1293.5 961.398,1293.86 963.558,1294.22 965.719,1294.57 967.879,1294.91 970.04,1295.26 972.2,1295.6 974.361,1295.93 976.521,1296.27 978.682,1296.6 980.842,1296.92 983.003,1297.25 985.163,1297.57 987.324,1297.88 989.484,1298.2 991.645,1298.51 993.805,1298.82 995.965,1299.12 998.126,1299.42 1000.29,1299.72 1002.45,1300.02 1004.61,1300.31 1006.77,1300.6 1008.93,1300.89 1011.09,1301.17 1013.25,1301.45 1015.41,1301.73 1017.57,1302 1019.73,1302.28 1021.89,1302.55 1024.05,1302.81 1026.21,1303.08 1028.37,1303.34 1030.53,1303.6 1032.69,1303.86 1034.85,1304.11 1037.01,1304.36 1039.18,1304.61 1041.34,1304.86 1043.5,1305.11 1045.66,1305.35 1047.82,1305.59 1049.98,1305.83 1052.14,1306.06 1054.3,1306.29 1056.46,1306.52 1058.62,1306.75 1060.78,1306.98 1062.94,1307.2 1065.1,1307.42 1067.26,1307.64 1069.42,1307.86 1071.58,1308.08 1073.74,1308.29 1075.9,1308.5 1078.06,1308.71 1080.22,1308.92 1082.39,1309.12 1084.55,1309.32 1086.71,1309.53 1088.87,1309.72 1091.03,1309.92 1093.19,1310.12 1095.35,1310.31 1097.51,1310.5 1099.67,1310.69 1101.83,1310.88 1103.99,1311.06 1106.15,1311.25 1108.31,1311.43 1110.47,1311.61 1112.63,1311.79 1114.79,1311.96 1116.95,1312.14 1119.11,1312.31 1121.27,1312.48 1123.43,1312.65 1125.6,1312.82 1127.76,1312.98 1129.92,1313.15 1132.08,1313.31 1134.24,1313.47 1136.4,1313.63 1138.56,1313.79 1140.72,1313.94 1142.88,1314.1 1145.04,1314.25 1147.2,1314.4 1149.36,1314.55 1151.52,1314.7 1153.68,1314.85 1155.84,1314.99 1158,1315.14 1160.16,1315.28 1162.32,1315.42 1164.48,1315.56 1166.64,1315.7 1168.81,1315.83 1170.97,1315.97 1173.13,1316.1 1175.29,1316.24 1177.45,1316.37 1179.61,1316.5 1181.77,1316.63 1183.93,1316.75 1186.09,1316.88 1188.25,1317 1190.41,1317.13 1192.57,1317.25 1194.73,1317.37 1196.89,1317.49 1199.05,1317.61 1201.21,1317.73 1203.37,1317.84 1205.53,1317.96 1207.69,1318.07 1209.85,1318.18 1212.01,1318.3 1214.18,1318.41 1216.34,1318.52 1218.5,1318.62 1220.66,1318.73 1222.82,1318.84 1224.98,1318.94 1227.14,1319.05 1229.3,1319.15 1231.46,1319.25 1233.62,1319.35 1235.78,1319.45 1237.94,1319.55 1240.1,1319.65 1242.26,1319.75 1244.42,1319.84 1246.58,1319.94 1248.74,1320.03 1250.9,1320.13 1253.06,1320.22 1255.22,1320.31 1257.39,1320.4 1259.55,1320.49 1261.71,1320.58 1263.87,1320.67 1266.03,1320.75 1268.19,1320.84 1270.35,1320.93 1272.51,1321.01 1274.67,1321.1 1276.83,1321.18 1278.99,1321.26 1281.15,1321.34 1283.31,1321.42 1285.47,1321.5 1287.63,1321.58 1289.79,1321.66 1291.95,1321.74 1294.11,1321.82 1296.27,1321.89 1298.43,1321.97 1300.6,1322.04 1302.76,1322.12 1304.92,1322.19 1307.08,1322.26 1309.24,1322.33 1311.4,1322.41 1313.56,1322.48 1315.72,1322.55 1317.88,1322.61 1320.04,1322.68 1322.2,1322.75 1324.36,1322.82 1326.52,1322.88 1328.68,1322.95 1330.84,1323.02 1333,1323.08 1335.16,1323.14 1337.32,1323.21 1339.48,1323.27 1341.64,1323.33 1343.81,1323.39 1345.97,1323.45 1348.13,1323.51 1350.29,1323.57 1352.45,1323.63 1354.61,1323.69 1356.77,1323.75 1358.93,1323.8 1361.09,1323.86 1363.25,1323.92 1365.41,1323.97 1367.57,1324.03 1369.73,1324.08 1371.89,1324.13 1374.05,1324.19 1376.21,1324.24 1378.37,1324.29 1380.53,1324.34 1382.69,1324.39 1384.85,1324.44 1387.01,1324.49 1389.18,1324.54 1391.34,1324.59 1393.5,1324.64 1395.66,1324.69 1397.82,1324.74 1399.98,1324.78 1402.14,1324.83 1404.3,1324.87 1406.46,1324.92 1408.62,1324.97 1410.78,1325.01 1412.94,1325.05 1415.1,1325.1 1417.26,1325.14 1419.42,1325.18 1421.58,1325.22 1423.74,1325.27 1425.9,1325.31 1428.06,1325.35 1430.22,1325.39 1432.39,1325.43 1434.55,1325.47 1436.71,1325.51 1438.87,1325.55 1441.03,1325.59 1443.19,1325.62 1445.35,1325.66 1447.51,1325.7 1449.67,1325.74 1451.83,1325.77 1453.99,1325.81 1456.15,1325.84 1458.31,1325.88 1460.47,1325.91 1462.63,1325.95 1464.79,1325.98 1466.95,1326.02 1469.11,1326.05 1471.27,1326.08 1473.43,1326.12 1475.6,1326.15 1477.76,1326.18 1479.92,1326.21 1482.08,1326.25 1484.24,1326.28 1486.4,1326.31 1488.56,1326.34 1490.72,1326.37 1492.88,1326.4 1495.04,1326.43 1497.2,1326.46 1499.36,1326.49 1501.52,1326.52 1503.68,1326.55 1505.84,1326.57 1508,1326.6 1510.16,1326.63 1512.32,1326.66 1514.48,1326.69 1516.64,1326.71 1518.81,1326.74 1520.97,1326.77 1523.13,1326.79 1525.29,1326.82 1527.45,1326.85 1529.61,1326.87 1531.77,1326.9 1533.93,1326.92 1536.09,1326.95 1538.25,1326.97 1540.41,1327 1542.57,1327.02 1544.73,1327.05 1546.89,1327.07 1549.05,1327.09 1551.21,1327.12 1553.37,1327.14 1555.53,1327.16 1557.69,1327.19 1559.85,1327.21 1562.01,1327.23 1564.18,1327.25 1566.34,1327.28 1568.5,1327.3 1570.66,1327.32 1572.82,1327.34 1574.98,1327.36 1577.14,1327.38 1579.3,1327.4 1581.46,1327.42 1583.62,1327.44 1585.78,1327.46 1587.94,1327.48 1590.1,1327.5 1592.26,1327.52 1594.42,1327.54 1596.58,1327.56 1598.74,1327.58 1600.9,1327.6 1603.06,1327.62 1605.22,1327.64 1607.39,1327.66 1609.55,1327.67 1611.71,1327.69 1613.87,1327.71 1616.03,1327.73 1618.19,1327.74 1620.35,1327.76 1622.51,1327.78 1624.67,1327.8 1626.83,1327.81 1628.99,1327.83 1631.15,1327.85 1633.31,1327.86 1635.47,1327.88 1637.63,1327.89 1639.79,1327.91 1641.95,1327.92 1644.11,1327.94 1646.27,1327.95 1648.43,1327.97 1650.6,1327.98 1652.76,1328 1654.92,1328.01 1657.08,1328.03 1659.24,1328.04 1661.4,1328.06 1663.56,1328.07 1665.72,1328.08 1667.88,1328.1 1670.04,1328.11 1672.2,1328.12 1674.36,1328.14 1676.52,1328.15 1678.68,1328.16 1680.84,1328.18 1683,1328.19 1685.16,1328.2 1687.32,1328.21 1689.48,1328.23 1691.64,1328.24 1693.81,1328.25 1695.97,1328.26 1698.13,1328.27 1700.29,1328.28 1702.45,1328.3 1704.61,1328.31 1706.77,1328.32 1708.93,1328.33 1711.09,1328.34 1713.25,1328.35 1715.41,1328.36 1717.57,1328.37 1719.73,1328.38 1721.89,1328.39 1724.05,1328.4 1726.21,1328.41 1728.37,1328.42 1730.53,1328.43 1732.69,1328.44 1734.85,1328.45 1737.02,1328.46 1739.18,1328.47 1741.34,1328.48 1743.5,1328.49 1745.66,1328.5 1747.82,1328.51 1749.98,1328.52 1752.14,1328.53 1754.3,1328.53 1756.46,1328.54 1758.62,1328.55 1760.78,1328.56 1762.94,1328.57 1765.1,1328.58 1767.26,1328.59 1769.42,1328.59 1771.58,1328.6 1773.74,1328.61 1775.9,1328.62 1778.06,1328.63 1780.22,1328.63 1782.39,1328.64 1784.55,1328.65 1786.71,1328.66 1788.87,1328.66 1791.03,1328.67 1793.19,1328.68 1795.35,1328.69 1797.51,1328.69 1799.67,1328.7 1801.83,1328.71 1803.99,1328.71 1806.15,1328.72 1808.31,1328.73 1810.47,1328.73 1812.63,1328.74 1814.79,1328.75 1816.95,1328.75 1819.11,1328.76 1821.27,1328.77 1823.43,1328.77 1825.6,1328.78 1827.76,1328.79 1829.92,1328.79 1832.08,1328.8 1834.24,1328.81 1836.4,1328.81 1838.56,1328.82 1840.72,1328.82 1842.88,1328.83 1845.04,1328.84 1847.2,1328.84 1849.36,1328.85 1851.52,1328.85 1853.68,1328.86 1855.84,1328.87 1858,1328.87 1860.16,1328.88 1862.32,1328.88 1864.48,1328.89 1866.64,1328.89 1868.81,1328.9 1870.97,1328.91 1873.13,1328.91 1875.29,1328.92 1877.45,1328.92 1879.61,1328.93 1881.77,1328.93 1883.93,1328.94 1886.09,1328.94 1888.25,1328.95 1890.41,1328.95 1892.57,1328.96 1894.73,1328.96 1896.89,1328.97 1899.05,1328.97 1901.21,1328.98 1903.37,1328.98 1905.53,1328.99 1907.69,1328.99 1909.85,1329 1912.02,1329 1914.18,1329.01 1916.34,1329.01 1918.5,1329.01 1920.66,1329.02 1922.82,1329.02 1924.98,1329.03 1927.14,1329.03 1929.3,1329.04 1931.46,1329.04 1933.62,1329.05 1935.78,1329.05 1937.94,1329.05 1940.1,1329.06 1942.26,1329.06 1944.42,1329.07 1946.58,1329.07 1948.74,1329.07 1950.9,1329.08 1953.06,1329.08 1955.22,1329.08 1957.39,1329.09 1959.55,1329.09 1961.71,1329.1 1963.87,1329.1 1966.03,1329.1 1968.19,1329.11 1970.35,1329.11 1972.51,1329.11 1974.67,1329.12 1976.83,1329.12 1978.99,1329.12 1981.15,1329.13 1983.31,1329.13 1985.47,1329.13 1987.63,1329.14 1989.79,1329.14 1991.95,1329.14 1994.11,1329.15 1996.27,1329.15 1998.43,1329.15 2000.6,1329.16 2002.76,1329.16 2004.92,1329.16 2007.08,1329.16 2009.24,1329.17 2011.4,1329.17 2013.56,1329.17 2015.72,1329.17 2017.88,1329.18 2020.04,1329.18 2022.2,1329.18 2024.36,1329.19 2026.52,1329.19 2028.68,1329.19 2030.84,1329.19 2033,1329.2 2035.16,1329.2 2037.32,1329.2 2039.48,1329.2 2041.64,1329.2 2043.81,1329.21 2045.97,1329.21 2048.13,1329.21 2050.29,1329.21 2052.45,1329.22 2054.61,1329.22 2056.77,1329.22 2058.93,1329.22 2061.09,1329.22 2063.25,1329.23 2065.41,1329.23 2067.57,1329.23 2069.73,1329.23 2071.89,1329.23 2074.05,1329.24 2076.21,1329.24 2078.37,1329.24 2080.53,1329.24 2082.69,1329.24 2084.85,1329.25 2087.02,1329.25 2089.18,1329.25 2091.34,1329.25 2093.5,1329.25 2095.66,1329.25 2097.82,1329.26 2099.98,1329.26 2102.14,1329.26 2104.3,1329.26 2106.46,1329.26 2108.62,1329.26 2110.78,1329.26 2112.94,1329.27 2115.1,1329.27 2117.26,1329.27 2119.42,1329.27 2121.58,1329.27 2123.74,1329.27 2125.9,1329.28 2128.06,1329.28 2130.22,1329.28 2132.39,1329.28 2134.55,1329.28 2136.71,1329.28 2138.87,1329.28 2141.03,1329.28 2143.19,1329.29 2145.35,1329.29 2147.51,1329.29 2149.67,1329.29 2151.83,1329.29 2153.99,1329.29 2156.15,1329.29 2158.31,1329.29 2160.47,1329.3 2162.63,1329.3 2164.79,1329.3 2166.95,1329.3 2169.11,1329.3 2171.27,1329.3 2173.43,1329.3 2175.6,1329.3 2177.76,1329.3 2179.92,1329.31 2182.08,1329.31 2184.24,1329.31 2186.4,1329.31 2188.56,1329.31 2190.72,1329.31 2192.88,1329.31 2195.04,1329.31 2197.2,1329.31 2199.36,1329.32 2201.52,1329.32 2203.68,1329.32 2205.84,1329.32 2208,1329.32 2210.16,1329.32 2212.32,1329.32 2214.48,1329.32 2216.64,1329.32 2218.81,1329.33 2220.97,1329.33 2223.13,1329.33 2225.29,1329.33 2227.45,1329.33 2229.61,1329.33 2231.77,1329.33 2233.93,1329.33 2236.09,1329.33 2238.25,1329.34 2240.41,1329.34 2242.57,1329.34 2244.73,1329.34 2246.89,1329.34 2249.05,1329.34 2251.21,1329.34 2253.37,1329.34 2255.53,1329.34 2257.69,1329.34 2259.85,1329.35 2262.02,1329.35 2264.18,1329.35 2266.34,1329.35 2268.5,1329.35 2270.66,1329.35 2272.82,1329.35 2274.98,1329.35 2277.14,1329.35 2279.3,1329.35 2281.46,1329.35 2283.62,1329.35 2285.78,1329.36 2287.94,1329.36 2290.1,1329.36 2292.26,1329.36 2294.42,1329.36 2296.58,1329.36 2298.74,1329.36 2300.9,1329.36 2303.06,1329.36 2305.23,1329.36 2307.39,1329.36 2309.55,1329.36 2311.71,1329.36 2313.87,1329.37 2316.03,1329.37 2318.19,1329.37 2320.35,1329.37 2322.51,1329.37 2324.67,1329.37 2326.83,1329.37 2328.99,1329.37 2331.15,1329.37 2333.31,1329.37 2335.47,1329.37 2337.63,1329.37 2339.79,1329.37 2341.95,1329.37 2344.11,1329.38 2346.27,1329.38 2348.43,1329.38 2350.6,1329.38 2352.76,1329.38 "/>
<polyline clip-path="url(#clip442)" style="stroke:#e26f46; stroke-linecap:round; stroke-linejoin:round; stroke-width:4; stroke-opacity:1; fill:none" points="194.422,1122.3 196.583,1126.34 198.743,1130.33 200.904,1134.26 203.064,1138.14 205.225,1141.98 207.385,1145.76 209.546,1149.49 211.706,1153.18 213.867,1156.82 216.027,1160.41 218.188,1163.95 220.348,1167.44 222.509,1170.9 224.669,1174.3 226.83,1177.66 228.99,1180.98 231.151,1184.25 233.311,1187.48 235.471,1190.66 237.632,1193.81 239.792,1196.91 241.953,1199.97 244.113,1202.99 246.274,1205.97 248.434,1208.91 250.595,1211.81 252.755,1214.67 254.916,1217.49 257.076,1220.27 259.237,1223.02 261.397,1225.73 263.558,1228.4 265.718,1231.04 267.879,1233.63 270.039,1236.2 272.2,1238.73 274.36,1241.22 276.521,1243.68 278.681,1246.11 280.842,1248.5 283.002,1250.86 285.163,1253.18 287.323,1255.48 289.484,1257.74 291.644,1259.97 293.805,1262.17 295.965,1264.34 298.126,1266.47 300.286,1268.58 302.447,1270.66 304.607,1272.7 306.768,1274.72 308.928,1276.71 311.089,1278.67 313.249,1280.61 315.41,1282.51 317.57,1284.39 319.731,1286.24 321.891,1288.07 324.052,1289.86 326.212,1291.63 328.373,1293.38 330.533,1295.1 332.694,1296.79 334.854,1298.46 337.015,1300.11 339.175,1301.73 341.336,1303.32 343.496,1304.9 345.657,1306.44 347.817,1307.97 349.978,1309.47 352.138,1310.95 354.299,1312.41 356.459,1313.85 358.62,1315.26 360.78,1316.65 362.941,1318.02 365.101,1319.37 367.262,1320.7 369.422,1322.01 371.583,1323.3 373.743,1324.56 375.904,1325.81 378.064,1327.04 380.225,1328.25 382.385,1329.44 384.546,1330.61 386.706,1331.76 388.867,1332.9 391.027,1334.01 393.188,1335.11 395.348,1336.19 397.509,1337.25 399.669,1338.3 401.83,1339.32 403.99,1340.34 406.151,1341.33 408.311,1342.31 410.472,1343.27 412.632,1344.21 414.793,1345.14 416.953,1346.06 419.114,1346.95 421.274,1347.84 423.435,1348.7 425.595,1349.56 427.755,1350.39 429.916,1351.22 432.076,1352.03 434.237,1352.82 436.397,1353.6 438.558,1354.37 440.718,1355.12 442.879,1355.86 445.039,1356.59 447.2,1357.3 449.36,1358 451.521,1358.69 453.681,1359.36 455.842,1360.03 458.002,1360.68 460.163,1361.31 462.323,1361.94 464.484,1362.55 466.644,1363.16 468.805,1363.75 470.965,1364.33 473.126,1364.89 475.286,1365.45 477.447,1366 479.607,1366.53 481.768,1367.06 483.928,1367.57 486.089,1368.07 488.249,1368.57 490.41,1369.05 492.57,1369.52 494.731,1369.98 496.891,1370.44 499.052,1370.88 501.212,1371.31 503.373,1371.74 505.533,1372.15 507.694,1372.56 509.854,1372.96 512.015,1373.34 514.175,1373.72 516.336,1374.09 518.496,1374.46 520.657,1374.81 522.817,1375.16 524.978,1375.49 527.138,1375.82 529.299,1376.14 531.459,1376.45 533.62,1376.76 535.78,1377.06 537.941,1377.35 540.101,1377.63 542.262,1377.9 544.422,1378.17 546.583,1378.43 548.743,1378.69 550.904,1378.93 553.064,1379.17 555.225,1379.41 557.385,1379.63 559.546,1379.85 561.706,1380.07 563.867,1380.27 566.027,1380.47 568.188,1380.67 570.348,1380.86 572.509,1381.04 574.669,1381.21 576.83,1381.38 578.99,1381.55 581.151,1381.71 583.311,1381.86 585.472,1382.01 587.632,1382.15 589.793,1382.29 591.953,1382.42 594.114,1382.55 596.274,1382.67 598.435,1382.78 600.595,1382.9 602.756,1383 604.916,1383.1 607.077,1383.2 609.237,1383.29 611.398,1383.38 613.558,1383.46 615.718,1383.54 617.879,1383.61 620.039,1383.68 622.2,1383.75 624.36,1383.81 626.521,1383.86 628.681,1383.91 630.842,1383.96 633.002,1384.01 635.163,1384.04 637.323,1384.08 639.484,1384.11 641.644,1384.14 643.805,1384.17 645.965,1384.19 648.126,1384.2 650.286,1384.22 652.447,1384.23 654.607,1384.23 656.768,1384.24 658.928,1384.24 661.089,1384.24 663.249,1384.23 665.41,1384.22 667.57,1384.21 669.731,1384.19 671.891,1384.17 674.052,1384.15 676.212,1384.13 678.373,1384.1 680.533,1384.07 682.694,1384.03 684.854,1384 687.015,1383.96 689.175,1383.92 691.336,1383.87 693.496,1383.83 695.657,1383.78 697.817,1383.73 699.978,1383.67 702.138,1383.62 704.299,1383.56 706.459,1383.5 708.62,1383.44 710.78,1383.37 712.941,1383.3 715.101,1383.24 717.262,1383.16 719.422,1383.09 721.583,1383.02 723.743,1382.94 725.904,1382.86 728.064,1382.78 730.225,1382.69 732.385,1382.61 734.546,1382.52 736.706,1382.43 738.867,1382.34 741.027,1382.25 743.188,1382.16 745.348,1382.06 747.509,1381.97 749.669,1381.87 751.83,1381.77 753.99,1381.66 756.151,1381.56 758.311,1381.46 760.472,1381.35 762.632,1381.24 764.793,1381.13 766.953,1381.02 769.114,1380.91 771.274,1380.8 773.435,1380.68 775.595,1380.57 777.756,1380.45 779.916,1380.33 782.077,1380.22 784.237,1380.09 786.398,1379.97 788.558,1379.85 790.719,1379.73 792.879,1379.6 795.04,1379.48 797.2,1379.35 799.361,1379.22 801.521,1379.09 803.681,1378.96 805.842,1378.83 808.002,1378.7 810.163,1378.57 812.323,1378.44 814.484,1378.3 816.644,1378.17 818.805,1378.03 820.965,1377.9 823.126,1377.76 825.286,1377.62 827.447,1377.48 829.607,1377.34 831.768,1377.2 833.928,1377.06 836.089,1376.92 838.249,1376.78 840.41,1376.64 842.57,1376.5 844.731,1376.35 846.891,1376.21 849.052,1376.07 851.212,1375.92 853.373,1375.78 855.533,1375.63 857.694,1375.49 859.854,1375.34 862.015,1375.19 864.175,1375.05 866.336,1374.9 868.496,1374.75 870.657,1374.6 872.817,1374.45 874.978,1374.3 877.138,1374.16 879.299,1374.01 881.459,1373.86 883.62,1373.71 885.78,1373.56 887.941,1373.41 890.101,1373.26 892.262,1373.11 894.422,1372.95 896.583,1372.8 898.743,1372.65 900.904,1372.5 903.064,1372.35 905.225,1372.2 907.385,1372.05 909.546,1371.89 911.706,1371.74 913.867,1371.59 916.027,1371.44 918.188,1371.28 920.348,1371.13 922.509,1370.98 924.669,1370.83 926.83,1370.67 928.99,1370.52 931.151,1370.37 933.311,1370.22 935.472,1370.06 937.632,1369.91 939.793,1369.76 941.953,1369.6 944.114,1369.45 946.274,1369.3 948.435,1369.15 950.595,1368.99 952.756,1368.84 954.916,1368.69 957.077,1368.53 959.237,1368.38 961.398,1368.23 963.558,1368.08 965.719,1367.93 967.879,1367.77 970.04,1367.62 972.2,1367.47 974.361,1367.32 976.521,1367.17 978.682,1367.01 980.842,1366.86 983.003,1366.71 985.163,1366.56 987.324,1366.41 989.484,1366.26 991.645,1366.11 993.805,1365.96 995.965,1365.81 998.126,1365.66 1000.29,1365.51 1002.45,1365.36 1004.61,1365.21 1006.77,1365.06 1008.93,1364.91 1011.09,1364.76 1013.25,1364.62 1015.41,1364.47 1017.57,1364.32 1019.73,1364.17 1021.89,1364.03 1024.05,1363.88 1026.21,1363.73 1028.37,1363.59 1030.53,1363.44 1032.69,1363.3 1034.85,1363.15 1037.01,1363 1039.18,1362.86 1041.34,1362.72 1043.5,1362.57 1045.66,1362.43 1047.82,1362.28 1049.98,1362.14 1052.14,1362 1054.3,1361.86 1056.46,1361.71 1058.62,1361.57 1060.78,1361.43 1062.94,1361.29 1065.1,1361.15 1067.26,1361.01 1069.42,1360.87 1071.58,1360.73 1073.74,1360.59 1075.9,1360.45 1078.06,1360.31 1080.22,1360.18 1082.39,1360.04 1084.55,1359.9 1086.71,1359.76 1088.87,1359.63 1091.03,1359.49 1093.19,1359.36 1095.35,1359.22 1097.51,1359.09 1099.67,1358.95 1101.83,1358.82 1103.99,1358.68 1106.15,1358.55 1108.31,1358.42 1110.47,1358.28 1112.63,1358.15 1114.79,1358.02 1116.95,1357.89 1119.11,1357.76 1121.27,1357.63 1123.43,1357.49 1125.6,1357.36 1127.76,1357.23 1129.92,1357.11 1132.08,1356.98 1134.24,1356.85 1136.4,1356.72 1138.56,1356.59 1140.72,1356.47 1142.88,1356.34 1145.04,1356.21 1147.2,1356.09 1149.36,1355.96 1151.52,1355.83 1153.68,1355.71 1155.84,1355.59 1158,1355.46 1160.16,1355.34 1162.32,1355.21 1164.48,1355.09 1166.64,1354.97 1168.81,1354.85 1170.97,1354.73 1173.13,1354.6 1175.29,1354.48 1177.45,1354.36 1179.61,1354.24 1181.77,1354.12 1183.93,1354 1186.09,1353.89 1188.25,1353.77 1190.41,1353.65 1192.57,1353.53 1194.73,1353.42 1196.89,1353.3 1199.05,1353.18 1201.21,1353.07 1203.37,1352.95 1205.53,1352.84 1207.69,1352.72 1209.85,1352.61 1212.01,1352.49 1214.18,1352.38 1216.34,1352.27 1218.5,1352.16 1220.66,1352.04 1222.82,1351.93 1224.98,1351.82 1227.14,1351.71 1229.3,1351.6 1231.46,1351.49 1233.62,1351.38 1235.78,1351.27 1237.94,1351.16 1240.1,1351.06 1242.26,1350.95 1244.42,1350.84 1246.58,1350.73 1248.74,1350.63 1250.9,1350.52 1253.06,1350.42 1255.22,1350.31 1257.39,1350.21 1259.55,1350.1 1261.71,1350 1263.87,1349.9 1266.03,1349.79 1268.19,1349.69 1270.35,1349.59 1272.51,1349.49 1274.67,1349.39 1276.83,1349.29 1278.99,1349.19 1281.15,1349.09 1283.31,1348.99 1285.47,1348.89 1287.63,1348.79 1289.79,1348.69 1291.95,1348.59 1294.11,1348.5 1296.27,1348.4 1298.43,1348.3 1300.6,1348.21 1302.76,1348.11 1304.92,1348.02 1307.08,1347.92 1309.24,1347.83 1311.4,1347.73 1313.56,1347.64 1315.72,1347.55 1317.88,1347.45 1320.04,1347.36 1322.2,1347.27 1324.36,1347.18 1326.52,1347.09 1328.68,1347 1330.84,1346.91 1333,1346.82 1335.16,1346.73 1337.32,1346.64 1339.48,1346.55 1341.64,1346.46 1343.81,1346.37 1345.97,1346.28 1348.13,1346.2 1350.29,1346.11 1352.45,1346.02 1354.61,1345.94 1356.77,1345.85 1358.93,1345.77 1361.09,1345.68 1363.25,1345.6 1365.41,1345.51 1367.57,1345.43 1369.73,1345.35 1371.89,1345.26 1374.05,1345.18 1376.21,1345.1 1378.37,1345.02 1380.53,1344.93 1382.69,1344.85 1384.85,1344.77 1387.01,1344.69 1389.18,1344.61 1391.34,1344.53 1393.5,1344.45 1395.66,1344.37 1397.82,1344.29 1399.98,1344.22 1402.14,1344.14 1404.3,1344.06 1406.46,1343.98 1408.62,1343.91 1410.78,1343.83 1412.94,1343.75 1415.1,1343.68 1417.26,1343.6 1419.42,1343.53 1421.58,1343.45 1423.74,1343.38 1425.9,1343.3 1428.06,1343.23 1430.22,1343.15 1432.39,1343.08 1434.55,1343.01 1436.71,1342.94 1438.87,1342.86 1441.03,1342.79 1443.19,1342.72 1445.35,1342.65 1447.51,1342.58 1449.67,1342.51 1451.83,1342.44 1453.99,1342.37 1456.15,1342.3 1458.31,1342.23 1460.47,1342.16 1462.63,1342.09 1464.79,1342.02 1466.95,1341.96 1469.11,1341.89 1471.27,1341.82 1473.43,1341.76 1475.6,1341.69 1477.76,1341.62 1479.92,1341.56 1482.08,1341.49 1484.24,1341.43 1486.4,1341.36 1488.56,1341.3 1490.72,1341.23 1492.88,1341.17 1495.04,1341.11 1497.2,1341.04 1499.36,1340.98 1501.52,1340.92 1503.68,1340.85 1505.84,1340.79 1508,1340.73 1510.16,1340.67 1512.32,1340.61 1514.48,1340.55 1516.64,1340.49 1518.81,1340.43 1520.97,1340.37 1523.13,1340.31 1525.29,1340.25 1527.45,1340.19 1529.61,1340.13 1531.77,1340.07 1533.93,1340.01 1536.09,1339.96 1538.25,1339.9 1540.41,1339.84 1542.57,1339.79 1544.73,1339.73 1546.89,1339.67 1549.05,1339.62 1551.21,1339.56 1553.37,1339.51 1555.53,1339.45 1557.69,1339.4 1559.85,1339.34 1562.01,1339.29 1564.18,1339.23 1566.34,1339.18 1568.5,1339.13 1570.66,1339.07 1572.82,1339.02 1574.98,1338.97 1577.14,1338.92 1579.3,1338.86 1581.46,1338.81 1583.62,1338.76 1585.78,1338.71 1587.94,1338.66 1590.1,1338.61 1592.26,1338.56 1594.42,1338.51 1596.58,1338.46 1598.74,1338.41 1600.9,1338.36 1603.06,1338.31 1605.22,1338.26 1607.39,1338.21 1609.55,1338.16 1611.71,1338.12 1613.87,1338.07 1616.03,1338.02 1618.19,1337.97 1620.35,1337.93 1622.51,1337.88 1624.67,1337.83 1626.83,1337.78 1628.99,1337.74 1631.15,1337.69 1633.31,1337.65 1635.47,1337.6 1637.63,1337.56 1639.79,1337.51 1641.95,1337.47 1644.11,1337.42 1646.27,1337.38 1648.43,1337.33 1650.6,1337.29 1652.76,1337.25 1654.92,1337.2 1657.08,1337.16 1659.24,1337.12 1661.4,1337.07 1663.56,1337.03 1665.72,1336.99 1667.88,1336.95 1670.04,1336.9 1672.2,1336.86 1674.36,1336.82 1676.52,1336.78 1678.68,1336.74 1680.84,1336.7 1683,1336.66 1685.16,1336.62 1687.32,1336.58 1689.48,1336.54 1691.64,1336.5 1693.81,1336.46 1695.97,1336.42 1698.13,1336.38 1700.29,1336.34 1702.45,1336.3 1704.61,1336.26 1706.77,1336.22 1708.93,1336.19 1711.09,1336.15 1713.25,1336.11 1715.41,1336.07 1717.57,1336.04 1719.73,1336 1721.89,1335.96 1724.05,1335.92 1726.21,1335.89 1728.37,1335.85 1730.53,1335.82 1732.69,1335.78 1734.85,1335.74 1737.02,1335.71 1739.18,1335.67 1741.34,1335.64 1743.5,1335.6 1745.66,1335.57 1747.82,1335.53 1749.98,1335.5 1752.14,1335.46 1754.3,1335.43 1756.46,1335.4 1758.62,1335.36 1760.78,1335.33 1762.94,1335.29 1765.1,1335.26 1767.26,1335.23 1769.42,1335.2 1771.58,1335.16 1773.74,1335.13 1775.9,1335.1 1778.06,1335.07 1780.22,1335.03 1782.39,1335 1784.55,1334.97 1786.71,1334.94 1788.87,1334.91 1791.03,1334.88 1793.19,1334.85 1795.35,1334.81 1797.51,1334.78 1799.67,1334.75 1801.83,1334.72 1803.99,1334.69 1806.15,1334.66 1808.31,1334.63 1810.47,1334.6 1812.63,1334.57 1814.79,1334.55 1816.95,1334.52 1819.11,1334.49 1821.27,1334.46 1823.43,1334.43 1825.6,1334.4 1827.76,1334.37 1829.92,1334.34 1832.08,1334.32 1834.24,1334.29 1836.4,1334.26 1838.56,1334.23 1840.72,1334.21 1842.88,1334.18 1845.04,1334.15 1847.2,1334.13 1849.36,1334.1 1851.52,1334.07 1853.68,1334.05 1855.84,1334.02 1858,1333.99 1860.16,1333.97 1862.32,1333.94 1864.48,1333.92 1866.64,1333.89 1868.81,1333.86 1870.97,1333.84 1873.13,1333.81 1875.29,1333.79 1877.45,1333.76 1879.61,1333.74 1881.77,1333.72 1883.93,1333.69 1886.09,1333.67 1888.25,1333.64 1890.41,1333.62 1892.57,1333.59 1894.73,1333.57 1896.89,1333.55 1899.05,1333.52 1901.21,1333.5 1903.37,1333.48 1905.53,1333.45 1907.69,1333.43 1909.85,1333.41 1912.02,1333.39 1914.18,1333.36 1916.34,1333.34 1918.5,1333.32 1920.66,1333.3 1922.82,1333.27 1924.98,1333.25 1927.14,1333.23 1929.3,1333.21 1931.46,1333.19 1933.62,1333.16 1935.78,1333.14 1937.94,1333.12 1940.1,1333.1 1942.26,1333.08 1944.42,1333.06 1946.58,1333.04 1948.74,1333.02 1950.9,1333 1953.06,1332.98 1955.22,1332.96 1957.39,1332.94 1959.55,1332.92 1961.71,1332.9 1963.87,1332.88 1966.03,1332.86 1968.19,1332.84 1970.35,1332.82 1972.51,1332.8 1974.67,1332.78 1976.83,1332.76 1978.99,1332.74 1981.15,1332.72 1983.31,1332.7 1985.47,1332.68 1987.63,1332.66 1989.79,1332.65 1991.95,1332.63 1994.11,1332.61 1996.27,1332.59 1998.43,1332.57 2000.6,1332.55 2002.76,1332.54 2004.92,1332.52 2007.08,1332.5 2009.24,1332.48 2011.4,1332.47 2013.56,1332.45 2015.72,1332.43 2017.88,1332.41 2020.04,1332.4 2022.2,1332.38 2024.36,1332.36 2026.52,1332.34 2028.68,1332.33 2030.84,1332.31 2033,1332.29 2035.16,1332.28 2037.32,1332.26 2039.48,1332.25 2041.64,1332.23 2043.81,1332.21 2045.97,1332.2 2048.13,1332.18 2050.29,1332.16 2052.45,1332.15 2054.61,1332.13 2056.77,1332.12 2058.93,1332.1 2061.09,1332.09 2063.25,1332.07 2065.41,1332.06 2067.57,1332.04 2069.73,1332.03 2071.89,1332.01 2074.05,1332 2076.21,1331.98 2078.37,1331.97 2080.53,1331.95 2082.69,1331.94 2084.85,1331.92 2087.02,1331.91 2089.18,1331.89 2091.34,1331.88 2093.5,1331.86 2095.66,1331.85 2097.82,1331.84 2099.98,1331.82 2102.14,1331.81 2104.3,1331.79 2106.46,1331.78 2108.62,1331.77 2110.78,1331.75 2112.94,1331.74 2115.1,1331.73 2117.26,1331.71 2119.42,1331.7 2121.58,1331.69 2123.74,1331.67 2125.9,1331.66 2128.06,1331.65 2130.22,1331.63 2132.39,1331.62 2134.55,1331.61 2136.71,1331.6 2138.87,1331.58 2141.03,1331.57 2143.19,1331.56 2145.35,1331.55 2147.51,1331.53 2149.67,1331.52 2151.83,1331.51 2153.99,1331.5 2156.15,1331.49 2158.31,1331.47 2160.47,1331.46 2162.63,1331.45 2164.79,1331.44 2166.95,1331.43 2169.11,1331.41 2171.27,1331.4 2173.43,1331.39 2175.6,1331.38 2177.76,1331.37 2179.92,1331.36 2182.08,1331.35 2184.24,1331.33 2186.4,1331.32 2188.56,1331.31 2190.72,1331.3 2192.88,1331.29 2195.04,1331.28 2197.2,1331.27 2199.36,1331.26 2201.52,1331.25 2203.68,1331.24 2205.84,1331.23 2208,1331.22 2210.16,1331.21 2212.32,1331.2 2214.48,1331.18 2216.64,1331.17 2218.81,1331.16 2220.97,1331.15 2223.13,1331.14 2225.29,1331.13 2227.45,1331.12 2229.61,1331.11 2231.77,1331.1 2233.93,1331.1 2236.09,1331.09 2238.25,1331.08 2240.41,1331.07 2242.57,1331.06 2244.73,1331.05 2246.89,1331.04 2249.05,1331.03 2251.21,1331.02 2253.37,1331.01 2255.53,1331 2257.69,1330.99 2259.85,1330.98 2262.02,1330.97 2264.18,1330.96 2266.34,1330.96 2268.5,1330.95 2270.66,1330.94 2272.82,1330.93 2274.98,1330.92 2277.14,1330.91 2279.3,1330.9 2281.46,1330.89 2283.62,1330.89 2285.78,1330.88 2287.94,1330.87 2290.1,1330.86 2292.26,1330.85 2294.42,1330.84 2296.58,1330.84 2298.74,1330.83 2300.9,1330.82 2303.06,1330.81 2305.23,1330.8 2307.39,1330.8 2309.55,1330.79 2311.71,1330.78 2313.87,1330.77 2316.03,1330.76 2318.19,1330.76 2320.35,1330.75 2322.51,1330.74 2324.67,1330.73 2326.83,1330.73 2328.99,1330.72 2331.15,1330.71 2333.31,1330.7 2335.47,1330.7 2337.63,1330.69 2339.79,1330.68 2341.95,1330.67 2344.11,1330.67 2346.27,1330.66 2348.43,1330.65 2350.6,1330.64 2352.76,1330.64 "/>
<path clip-path="url(#clip440)" d="M1805.58 248.629 L2280.81 248.629 L2280.81 93.1086 L1805.58 93.1086  Z" fill="#ffffff" fill-rule="evenodd" fill-opacity="1"/>
<polyline clip-path="url(#clip440)" style="stroke:#000000; stroke-linecap:round; stroke-linejoin:round; stroke-width:4; stroke-opacity:1; fill:none" points="1805.58,248.629 2280.81,248.629 2280.81,93.1086 1805.58,93.1086 1805.58,248.629 "/>
<polyline clip-path="url(#clip440)" style="stroke:#009af9; stroke-linecap:round; stroke-linejoin:round; stroke-width:4; stroke-opacity:1; fill:none" points="1829.56,144.949 1973.45,144.949 "/>
<path clip-path="url(#clip440)" d="M1997.43 136.303 L2001.95 136.303 L2010.05 158.062 L2018.15 136.303 L2022.66 136.303 L2012.94 162.229 L2007.16 162.229 L1997.43 136.303 Z" fill="#000000" fill-rule="nonzero" fill-opacity="1" /><path clip-path="url(#clip440)" d="M2029.96 158.293 L2037.6 158.293 L2037.6 131.928 L2029.28 133.595 L2029.28 129.335 L2037.55 127.669 L2042.22 127.669 L2042.22 158.293 L2049.86 158.293 L2049.86 162.229 L2029.96 162.229 L2029.96 158.293 Z" fill="#000000" fill-rule="nonzero" fill-opacity="1" /><path clip-path="url(#clip440)" d="M2067.97 145.585 L2067.97 152.807 L2076.09 152.807 L2076.09 155.006 L2067.97 155.006 L2067.97 162.229 L2065.53 162.229 L2065.53 155.006 L2057.41 155.006 L2057.41 152.807 L2065.53 152.807 L2065.53 145.585 L2067.97 145.585 Z" fill="#000000" fill-rule="nonzero" fill-opacity="1" /><path clip-path="url(#clip440)" d="M2100.26 137.067 L2100.26 141.094 Q2098.45 140.169 2096.51 139.706 Q2094.56 139.243 2092.48 139.243 Q2089.31 139.243 2087.71 140.215 Q2086.14 141.187 2086.14 143.131 Q2086.14 144.613 2087.27 145.469 Q2088.4 146.303 2091.83 147.067 L2093.29 147.391 Q2097.83 148.363 2099.72 150.145 Q2101.65 151.905 2101.65 155.076 Q2101.65 158.687 2098.78 160.793 Q2095.93 162.9 2090.93 162.9 Q2088.84 162.9 2086.58 162.483 Q2084.33 162.09 2081.83 161.28 L2081.83 156.881 Q2084.19 158.108 2086.48 158.733 Q2088.78 159.335 2091.02 159.335 Q2094.03 159.335 2095.65 158.317 Q2097.27 157.275 2097.27 155.4 Q2097.27 153.664 2096.09 152.738 Q2094.93 151.812 2090.97 150.956 L2089.49 150.608 Q2085.53 149.775 2083.78 148.062 Q2082.02 146.326 2082.02 143.317 Q2082.02 139.659 2084.61 137.669 Q2087.2 135.678 2091.97 135.678 Q2094.33 135.678 2096.41 136.025 Q2098.5 136.372 2100.26 137.067 Z" fill="#000000" fill-rule="nonzero" fill-opacity="1" /><path clip-path="url(#clip440)" d="M2112.64 128.942 L2112.64 136.303 L2121.41 136.303 L2121.41 139.613 L2112.64 139.613 L2112.64 153.687 Q2112.64 156.858 2113.5 157.761 Q2114.38 158.664 2117.04 158.664 L2121.41 158.664 L2121.41 162.229 L2117.04 162.229 Q2112.11 162.229 2110.23 160.4 Q2108.36 158.548 2108.36 153.687 L2108.36 139.613 L2105.23 139.613 L2105.23 136.303 L2108.36 136.303 L2108.36 128.942 L2112.64 128.942 Z" fill="#000000" fill-rule="nonzero" fill-opacity="1" /><path clip-path="url(#clip440)" d="M2137.06 139.289 Q2133.64 139.289 2131.65 141.974 Q2129.65 144.636 2129.65 149.289 Q2129.65 153.942 2131.62 156.627 Q2133.61 159.289 2137.06 159.289 Q2140.46 159.289 2142.46 156.604 Q2144.45 153.918 2144.45 149.289 Q2144.45 144.682 2142.46 141.997 Q2140.46 139.289 2137.06 139.289 M2137.06 135.678 Q2142.62 135.678 2145.79 139.289 Q2148.96 142.9 2148.96 149.289 Q2148.96 155.655 2145.79 159.289 Q2142.62 162.9 2137.06 162.9 Q2131.48 162.9 2128.31 159.289 Q2125.16 155.655 2125.16 149.289 Q2125.16 142.9 2128.31 139.289 Q2131.48 135.678 2137.06 135.678 Z" fill="#000000" fill-rule="nonzero" fill-opacity="1" /><path clip-path="url(#clip440)" d="M2171.04 140.284 Q2170.33 139.868 2169.47 139.682 Q2168.64 139.474 2167.62 139.474 Q2164.01 139.474 2162.06 141.835 Q2160.14 144.173 2160.14 148.571 L2160.14 162.229 L2155.86 162.229 L2155.86 136.303 L2160.14 136.303 L2160.14 140.331 Q2161.48 137.969 2163.64 136.835 Q2165.79 135.678 2168.87 135.678 Q2169.31 135.678 2169.84 135.747 Q2170.37 135.794 2171.02 135.909 L2171.04 140.284 Z" fill="#000000" fill-rule="nonzero" fill-opacity="1" /><path clip-path="url(#clip440)" d="M2187.29 149.196 Q2182.13 149.196 2180.14 150.377 Q2178.15 151.557 2178.15 154.405 Q2178.15 156.673 2179.63 158.016 Q2181.14 159.335 2183.71 159.335 Q2187.25 159.335 2189.38 156.835 Q2191.53 154.312 2191.53 150.145 L2191.53 149.196 L2187.29 149.196 M2195.79 147.437 L2195.79 162.229 L2191.53 162.229 L2191.53 158.293 Q2190.07 160.655 2187.9 161.789 Q2185.72 162.9 2182.57 162.9 Q2178.59 162.9 2176.23 160.678 Q2173.89 158.432 2173.89 154.682 Q2173.89 150.307 2176.81 148.085 Q2179.75 145.863 2185.56 145.863 L2191.53 145.863 L2191.53 145.446 Q2191.53 142.507 2189.58 140.909 Q2187.66 139.289 2184.17 139.289 Q2181.95 139.289 2179.84 139.821 Q2177.73 140.354 2175.79 141.419 L2175.79 137.483 Q2178.13 136.581 2180.33 136.141 Q2182.52 135.678 2184.61 135.678 Q2190.23 135.678 2193.01 138.594 Q2195.79 141.511 2195.79 147.437 Z" fill="#000000" fill-rule="nonzero" fill-opacity="1" /><path clip-path="url(#clip440)" d="M2221.62 148.965 Q2221.62 144.335 2219.7 141.789 Q2217.8 139.243 2214.35 139.243 Q2210.93 139.243 2209.01 141.789 Q2207.11 144.335 2207.11 148.965 Q2207.11 153.571 2209.01 156.118 Q2210.93 158.664 2214.35 158.664 Q2217.8 158.664 2219.7 156.118 Q2221.62 153.571 2221.62 148.965 M2225.88 159.011 Q2225.88 165.631 2222.94 168.849 Q2220 172.09 2213.94 172.09 Q2211.69 172.09 2209.7 171.742 Q2207.71 171.418 2205.83 170.724 L2205.83 166.58 Q2207.71 167.599 2209.54 168.085 Q2211.37 168.571 2213.27 168.571 Q2217.46 168.571 2219.54 166.372 Q2221.62 164.196 2221.62 159.775 L2221.62 157.668 Q2220.3 159.96 2218.24 161.094 Q2216.18 162.229 2213.31 162.229 Q2208.54 162.229 2205.63 158.594 Q2202.71 154.96 2202.71 148.965 Q2202.71 142.946 2205.63 139.312 Q2208.54 135.678 2213.31 135.678 Q2216.18 135.678 2218.24 136.812 Q2220.3 137.946 2221.62 140.238 L2221.62 136.303 L2225.88 136.303 L2225.88 159.011 Z" fill="#000000" fill-rule="nonzero" fill-opacity="1" /><path clip-path="url(#clip440)" d="M2256.83 148.201 L2256.83 150.284 L2237.25 150.284 Q2237.52 154.682 2239.89 156.997 Q2242.27 159.289 2246.51 159.289 Q2248.96 159.289 2251.25 158.687 Q2253.57 158.085 2255.83 156.881 L2255.83 160.909 Q2253.54 161.881 2251.14 162.391 Q2248.73 162.9 2246.25 162.9 Q2240.05 162.9 2236.41 159.289 Q2232.8 155.678 2232.8 149.52 Q2232.8 143.155 2236.23 139.428 Q2239.68 135.678 2245.51 135.678 Q2250.74 135.678 2253.77 139.057 Q2256.83 142.414 2256.83 148.201 M2252.57 146.951 Q2252.52 143.456 2250.6 141.372 Q2248.71 139.289 2245.56 139.289 Q2241.99 139.289 2239.84 141.303 Q2237.71 143.317 2237.39 146.974 L2252.57 146.951 Z" fill="#000000" fill-rule="nonzero" fill-opacity="1" /><polyline clip-path="url(#clip440)" style="stroke:#e26f46; stroke-linecap:round; stroke-linejoin:round; stroke-width:4; stroke-opacity:1; fill:none" points="1829.56,196.789 1973.45,196.789 "/>
<path clip-path="url(#clip440)" d="M1997.43 188.143 L2001.95 188.143 L2010.05 209.902 L2018.15 188.143 L2022.66 188.143 L2012.94 214.069 L2007.16 214.069 L1997.43 188.143 Z" fill="#000000" fill-rule="nonzero" fill-opacity="1" /><path clip-path="url(#clip440)" d="M2029.19 179.509 L2047.55 179.509 L2047.55 183.444 L2033.47 183.444 L2033.47 191.916 Q2034.49 191.569 2035.51 191.407 Q2036.53 191.222 2037.55 191.222 Q2043.34 191.222 2046.72 194.393 Q2050.09 197.564 2050.09 202.981 Q2050.09 208.559 2046.62 211.661 Q2043.15 214.74 2036.83 214.74 Q2034.66 214.74 2032.39 214.37 Q2030.14 213.999 2027.73 213.258 L2027.73 208.559 Q2029.82 209.694 2032.04 210.249 Q2034.26 210.805 2036.74 210.805 Q2040.74 210.805 2043.08 208.698 Q2045.42 206.592 2045.42 202.981 Q2045.42 199.37 2043.08 197.263 Q2040.74 195.157 2036.74 195.157 Q2034.86 195.157 2032.99 195.573 Q2031.14 195.99 2029.19 196.87 L2029.19 179.509 Z" fill="#000000" fill-rule="nonzero" fill-opacity="1" /><path clip-path="url(#clip440)" d="M2067.97 197.425 L2067.97 204.647 L2076.09 204.647 L2076.09 206.846 L2067.97 206.846 L2067.97 214.069 L2065.53 214.069 L2065.53 206.846 L2057.41 206.846 L2057.41 204.647 L2065.53 204.647 L2065.53 197.425 L2067.97 197.425 Z" fill="#000000" fill-rule="nonzero" fill-opacity="1" /><path clip-path="url(#clip440)" d="M2100.26 188.907 L2100.26 192.934 Q2098.45 192.009 2096.51 191.546 Q2094.56 191.083 2092.48 191.083 Q2089.31 191.083 2087.71 192.055 Q2086.14 193.027 2086.14 194.971 Q2086.14 196.453 2087.27 197.309 Q2088.4 198.143 2091.83 198.907 L2093.29 199.231 Q2097.83 200.203 2099.72 201.985 Q2101.65 203.745 2101.65 206.916 Q2101.65 210.527 2098.78 212.633 Q2095.93 214.74 2090.93 214.74 Q2088.84 214.74 2086.58 214.323 Q2084.33 213.93 2081.83 213.12 L2081.83 208.721 Q2084.19 209.948 2086.48 210.573 Q2088.78 211.175 2091.02 211.175 Q2094.03 211.175 2095.65 210.157 Q2097.27 209.115 2097.27 207.24 Q2097.27 205.504 2096.09 204.578 Q2094.93 203.652 2090.97 202.796 L2089.49 202.448 Q2085.53 201.615 2083.78 199.902 Q2082.02 198.166 2082.02 195.157 Q2082.02 191.499 2084.61 189.509 Q2087.2 187.518 2091.97 187.518 Q2094.33 187.518 2096.41 187.865 Q2098.5 188.212 2100.26 188.907 Z" fill="#000000" fill-rule="nonzero" fill-opacity="1" /><path clip-path="url(#clip440)" d="M2112.64 180.782 L2112.64 188.143 L2121.41 188.143 L2121.41 191.453 L2112.64 191.453 L2112.64 205.527 Q2112.64 208.698 2113.5 209.601 Q2114.38 210.504 2117.04 210.504 L2121.41 210.504 L2121.41 214.069 L2117.04 214.069 Q2112.11 214.069 2110.23 212.24 Q2108.36 210.388 2108.36 205.527 L2108.36 191.453 L2105.23 191.453 L2105.23 188.143 L2108.36 188.143 L2108.36 180.782 L2112.64 180.782 Z" fill="#000000" fill-rule="nonzero" fill-opacity="1" /><path clip-path="url(#clip440)" d="M2137.06 191.129 Q2133.64 191.129 2131.65 193.814 Q2129.65 196.476 2129.65 201.129 Q2129.65 205.782 2131.62 208.467 Q2133.61 211.129 2137.06 211.129 Q2140.46 211.129 2142.46 208.444 Q2144.45 205.758 2144.45 201.129 Q2144.45 196.522 2142.46 193.837 Q2140.46 191.129 2137.06 191.129 M2137.06 187.518 Q2142.62 187.518 2145.79 191.129 Q2148.96 194.74 2148.96 201.129 Q2148.96 207.495 2145.79 211.129 Q2142.62 214.74 2137.06 214.74 Q2131.48 214.74 2128.31 211.129 Q2125.16 207.495 2125.16 201.129 Q2125.16 194.74 2128.31 191.129 Q2131.48 187.518 2137.06 187.518 Z" fill="#000000" fill-rule="nonzero" fill-opacity="1" /><path clip-path="url(#clip440)" d="M2171.04 192.124 Q2170.33 191.708 2169.47 191.522 Q2168.64 191.314 2167.62 191.314 Q2164.01 191.314 2162.06 193.675 Q2160.14 196.013 2160.14 200.411 L2160.14 214.069 L2155.86 214.069 L2155.86 188.143 L2160.14 188.143 L2160.14 192.171 Q2161.48 189.809 2163.64 188.675 Q2165.79 187.518 2168.87 187.518 Q2169.31 187.518 2169.84 187.587 Q2170.37 187.634 2171.02 187.749 L2171.04 192.124 Z" fill="#000000" fill-rule="nonzero" fill-opacity="1" /><path clip-path="url(#clip440)" d="M2187.29 201.036 Q2182.13 201.036 2180.14 202.217 Q2178.15 203.397 2178.15 206.245 Q2178.15 208.513 2179.63 209.856 Q2181.14 211.175 2183.71 211.175 Q2187.25 211.175 2189.38 208.675 Q2191.53 206.152 2191.53 201.985 L2191.53 201.036 L2187.29 201.036 M2195.79 199.277 L2195.79 214.069 L2191.53 214.069 L2191.53 210.133 Q2190.07 212.495 2187.9 213.629 Q2185.72 214.74 2182.57 214.74 Q2178.59 214.74 2176.23 212.518 Q2173.89 210.272 2173.89 206.522 Q2173.89 202.147 2176.81 199.925 Q2179.75 197.703 2185.56 197.703 L2191.53 197.703 L2191.53 197.286 Q2191.53 194.347 2189.58 192.749 Q2187.66 191.129 2184.17 191.129 Q2181.95 191.129 2179.84 191.661 Q2177.73 192.194 2175.79 193.259 L2175.79 189.323 Q2178.13 188.421 2180.33 187.981 Q2182.52 187.518 2184.61 187.518 Q2190.23 187.518 2193.01 190.434 Q2195.79 193.351 2195.79 199.277 Z" fill="#000000" fill-rule="nonzero" fill-opacity="1" /><path clip-path="url(#clip440)" d="M2221.62 200.805 Q2221.62 196.175 2219.7 193.629 Q2217.8 191.083 2214.35 191.083 Q2210.93 191.083 2209.01 193.629 Q2207.11 196.175 2207.11 200.805 Q2207.11 205.411 2209.01 207.958 Q2210.93 210.504 2214.35 210.504 Q2217.8 210.504 2219.7 207.958 Q2221.62 205.411 2221.62 200.805 M2225.88 210.851 Q2225.88 217.471 2222.94 220.689 Q2220 223.93 2213.94 223.93 Q2211.69 223.93 2209.7 223.582 Q2207.71 223.258 2205.83 222.564 L2205.83 218.42 Q2207.71 219.439 2209.54 219.925 Q2211.37 220.411 2213.27 220.411 Q2217.46 220.411 2219.54 218.212 Q2221.62 216.036 2221.62 211.615 L2221.62 209.508 Q2220.3 211.8 2218.24 212.934 Q2216.18 214.069 2213.31 214.069 Q2208.54 214.069 2205.63 210.434 Q2202.71 206.8 2202.71 200.805 Q2202.71 194.786 2205.63 191.152 Q2208.54 187.518 2213.31 187.518 Q2216.18 187.518 2218.24 188.652 Q2220.3 189.786 2221.62 192.078 L2221.62 188.143 L2225.88 188.143 L2225.88 210.851 Z" fill="#000000" fill-rule="nonzero" fill-opacity="1" /><path clip-path="url(#clip440)" d="M2256.83 200.041 L2256.83 202.124 L2237.25 202.124 Q2237.52 206.522 2239.89 208.837 Q2242.27 211.129 2246.51 211.129 Q2248.96 211.129 2251.25 210.527 Q2253.57 209.925 2255.83 208.721 L2255.83 212.749 Q2253.54 213.721 2251.14 214.231 Q2248.73 214.74 2246.25 214.74 Q2240.05 214.74 2236.41 211.129 Q2232.8 207.518 2232.8 201.36 Q2232.8 194.995 2236.23 191.268 Q2239.68 187.518 2245.51 187.518 Q2250.74 187.518 2253.77 190.897 Q2256.83 194.254 2256.83 200.041 M2252.57 198.791 Q2252.52 195.296 2250.6 193.212 Q2248.71 191.129 2245.56 191.129 Q2241.99 191.129 2239.84 193.143 Q2237.71 195.157 2237.39 198.814 L2252.57 198.791 Z" fill="#000000" fill-rule="nonzero" fill-opacity="1" /></svg>
