<?xml version="1.0" encoding="utf-8"?>
<svg xmlns="http://www.w3.org/2000/svg" xmlns:xlink="http://www.w3.org/1999/xlink" width="600" height="400" viewBox="0 0 2400 1600">
<defs>
  <clipPath id="clip000">
    <rect x="0" y="0" width="2400" height="1600"/>
  </clipPath>
</defs>
<path clip-path="url(#clip000)" d="M0 1600 L2400 1600 L2400 0 L0 0  Z" fill="#ffffff" fill-rule="evenodd" fill-opacity="1"/>
<defs>
  <clipPath id="clip001">
    <rect x="480" y="0" width="1681" height="1600"/>
  </clipPath>
</defs>
<path clip-path="url(#clip000)" d="M193.288 1423.18 L2352.76 1423.18 L2352.76 47.2441 L193.288 47.2441  Z" fill="#ffffff" fill-rule="evenodd" fill-opacity="1"/>
<defs>
  <clipPath id="clip002">
    <rect x="193" y="47" width="2160" height="1377"/>
  </clipPath>
</defs>
<polyline clip-path="url(#clip002)" style="stroke:#000000; stroke-linecap:round; stroke-linejoin:round; stroke-width:2; stroke-opacity:0.1; fill:none" points="193.288,1423.18 193.288,47.2441 "/>
<polyline clip-path="url(#clip002)" style="stroke:#000000; stroke-linecap:round; stroke-linejoin:round; stroke-width:2; stroke-opacity:0.1; fill:none" points="733.155,1423.18 733.155,47.2441 "/>
<polyline clip-path="url(#clip002)" style="stroke:#000000; stroke-linecap:round; stroke-linejoin:round; stroke-width:2; stroke-opacity:0.1; fill:none" points="1273.02,1423.18 1273.02,47.2441 "/>
<polyline clip-path="url(#clip002)" style="stroke:#000000; stroke-linecap:round; stroke-linejoin:round; stroke-width:2; stroke-opacity:0.1; fill:none" points="1812.89,1423.18 1812.89,47.2441 "/>
<polyline clip-path="url(#clip002)" style="stroke:#000000; stroke-linecap:round; stroke-linejoin:round; stroke-width:2; stroke-opacity:0.1; fill:none" points="2352.76,1423.18 2352.76,47.2441 "/>
<polyline clip-path="url(#clip002)" style="stroke:#000000; stroke-linecap:round; stroke-linejoin:round; stroke-width:2; stroke-opacity:0.1; fill:none" points="193.288,1224.93 2352.76,1224.93 "/>
<polyline clip-path="url(#clip002)" style="stroke:#000000; stroke-linecap:round; stroke-linejoin:round; stroke-width:2; stroke-opacity:0.1; fill:none" points="193.288,1024.26 2352.76,1024.26 "/>
<polyline clip-path="url(#clip002)" style="stroke:#000000; stroke-linecap:round; stroke-linejoin:round; stroke-width:2; stroke-opacity:0.1; fill:none" points="193.288,823.582 2352.76,823.582 "/>
<polyline clip-path="url(#clip002)" style="stroke:#000000; stroke-linecap:round; stroke-linejoin:round; stroke-width:2; stroke-opacity:0.1; fill:none" points="193.288,622.908 2352.76,622.908 "/>
<polyline clip-path="url(#clip002)" style="stroke:#000000; stroke-linecap:round; stroke-linejoin:round; stroke-width:2; stroke-opacity:0.1; fill:none" points="193.288,422.234 2352.76,422.234 "/>
<polyline clip-path="url(#clip002)" style="stroke:#000000; stroke-linecap:round; stroke-linejoin:round; stroke-width:2; stroke-opacity:0.1; fill:none" points="193.288,221.56 2352.76,221.56 "/>
<polyline clip-path="url(#clip000)" style="stroke:#000000; stroke-linecap:round; stroke-linejoin:round; stroke-width:4; stroke-opacity:1; fill:none" points="193.288,1423.18 2352.76,1423.18 "/>
<polyline clip-path="url(#clip000)" style="stroke:#000000; stroke-linecap:round; stroke-linejoin:round; stroke-width:4; stroke-opacity:1; fill:none" points="193.288,1423.18 193.288,1404.28 "/>
<polyline clip-path="url(#clip000)" style="stroke:#000000; stroke-linecap:round; stroke-linejoin:round; stroke-width:4; stroke-opacity:1; fill:none" points="733.155,1423.18 733.155,1404.28 "/>
<polyline clip-path="url(#clip000)" style="stroke:#000000; stroke-linecap:round; stroke-linejoin:round; stroke-width:4; stroke-opacity:1; fill:none" points="1273.02,1423.18 1273.02,1404.28 "/>
<polyline clip-path="url(#clip000)" style="stroke:#000000; stroke-linecap:round; stroke-linejoin:round; stroke-width:4; stroke-opacity:1; fill:none" points="1812.89,1423.18 1812.89,1404.28 "/>
<polyline clip-path="url(#clip000)" style="stroke:#000000; stroke-linecap:round; stroke-linejoin:round; stroke-width:4; stroke-opacity:1; fill:none" points="2352.76,1423.18 2352.76,1404.28 "/>
<path clip-path="url(#clip000)" d="M170.672 1454.1 Q167.061 1454.1 165.232 1457.66 Q163.427 1461.2 163.427 1468.33 Q163.427 1475.44 165.232 1479.01 Q167.061 1482.55 170.672 1482.55 Q174.306 1482.55 176.112 1479.01 Q177.941 1475.44 177.941 1468.33 Q177.941 1461.2 176.112 1457.66 Q174.306 1454.1 170.672 1454.1 M170.672 1450.39 Q176.482 1450.39 179.538 1455 Q182.617 1459.58 182.617 1468.33 Q182.617 1477.06 179.538 1481.67 Q176.482 1486.25 170.672 1486.25 Q164.862 1486.25 161.783 1481.67 Q158.728 1477.06 158.728 1468.33 Q158.728 1459.58 161.783 1455 Q164.862 1450.39 170.672 1450.39 Z" fill="#000000" fill-rule="nonzero" fill-opacity="1" /><path clip-path="url(#clip000)" d="M190.834 1479.7 L195.718 1479.7 L195.718 1485.58 L190.834 1485.58 L190.834 1479.7 Z" fill="#000000" fill-rule="nonzero" fill-opacity="1" /><path clip-path="url(#clip000)" d="M215.903 1454.1 Q212.292 1454.1 210.464 1457.66 Q208.658 1461.2 208.658 1468.33 Q208.658 1475.44 210.464 1479.01 Q212.292 1482.55 215.903 1482.55 Q219.538 1482.55 221.343 1479.01 Q223.172 1475.44 223.172 1468.33 Q223.172 1461.2 221.343 1457.66 Q219.538 1454.1 215.903 1454.1 M215.903 1450.39 Q221.714 1450.39 224.769 1455 Q227.848 1459.58 227.848 1468.33 Q227.848 1477.06 224.769 1481.67 Q221.714 1486.25 215.903 1486.25 Q210.093 1486.25 207.015 1481.67 Q203.959 1477.06 203.959 1468.33 Q203.959 1459.58 207.015 1455 Q210.093 1450.39 215.903 1450.39 Z" fill="#000000" fill-rule="nonzero" fill-opacity="1" /><path clip-path="url(#clip000)" d="M711.037 1454.1 Q707.426 1454.1 705.597 1457.66 Q703.792 1461.2 703.792 1468.33 Q703.792 1475.44 705.597 1479.01 Q707.426 1482.55 711.037 1482.55 Q714.671 1482.55 716.477 1479.01 Q718.305 1475.44 718.305 1468.33 Q718.305 1461.2 716.477 1457.66 Q714.671 1454.1 711.037 1454.1 M711.037 1450.39 Q716.847 1450.39 719.903 1455 Q722.981 1459.58 722.981 1468.33 Q722.981 1477.06 719.903 1481.67 Q716.847 1486.25 711.037 1486.25 Q705.227 1486.25 702.148 1481.67 Q699.093 1477.06 699.093 1468.33 Q699.093 1459.58 702.148 1455 Q705.227 1450.39 711.037 1450.39 Z" fill="#000000" fill-rule="nonzero" fill-opacity="1" /><path clip-path="url(#clip000)" d="M731.199 1479.7 L736.083 1479.7 L736.083 1485.58 L731.199 1485.58 L731.199 1479.7 Z" fill="#000000" fill-rule="nonzero" fill-opacity="1" /><path clip-path="url(#clip000)" d="M746.315 1451.02 L764.671 1451.02 L764.671 1454.96 L750.597 1454.96 L750.597 1463.43 Q751.615 1463.08 752.634 1462.92 Q753.652 1462.73 754.671 1462.73 Q760.458 1462.73 763.838 1465.9 Q767.217 1469.08 767.217 1474.49 Q767.217 1480.07 763.745 1483.17 Q760.273 1486.25 753.953 1486.25 Q751.777 1486.25 749.509 1485.88 Q747.264 1485.51 744.856 1484.77 L744.856 1480.07 Q746.94 1481.2 749.162 1481.76 Q751.384 1482.32 753.861 1482.32 Q757.865 1482.32 760.203 1480.21 Q762.541 1478.1 762.541 1474.49 Q762.541 1470.88 760.203 1468.77 Q757.865 1466.67 753.861 1466.67 Q751.986 1466.67 750.111 1467.08 Q748.259 1467.5 746.315 1468.38 L746.315 1451.02 Z" fill="#000000" fill-rule="nonzero" fill-opacity="1" /><path clip-path="url(#clip000)" d="M1240.17 1481.64 L1247.81 1481.64 L1247.81 1455.28 L1239.5 1456.95 L1239.5 1452.69 L1247.77 1451.02 L1252.44 1451.02 L1252.44 1481.64 L1260.08 1481.64 L1260.08 1485.58 L1240.17 1485.58 L1240.17 1481.64 Z" fill="#000000" fill-rule="nonzero" fill-opacity="1" /><path clip-path="url(#clip000)" d="M1269.53 1479.7 L1274.41 1479.7 L1274.41 1485.58 L1269.53 1485.58 L1269.53 1479.7 Z" fill="#000000" fill-rule="nonzero" fill-opacity="1" /><path clip-path="url(#clip000)" d="M1294.6 1454.1 Q1290.98 1454.1 1289.16 1457.66 Q1287.35 1461.2 1287.35 1468.33 Q1287.35 1475.44 1289.16 1479.01 Q1290.98 1482.55 1294.6 1482.55 Q1298.23 1482.55 1300.04 1479.01 Q1301.86 1475.44 1301.86 1468.33 Q1301.86 1461.2 1300.04 1457.66 Q1298.23 1454.1 1294.6 1454.1 M1294.6 1450.39 Q1300.41 1450.39 1303.46 1455 Q1306.54 1459.58 1306.54 1468.33 Q1306.54 1477.06 1303.46 1481.67 Q1300.41 1486.25 1294.6 1486.25 Q1288.79 1486.25 1285.71 1481.67 Q1282.65 1477.06 1282.65 1468.33 Q1282.65 1459.58 1285.71 1455 Q1288.79 1450.39 1294.6 1450.39 Z" fill="#000000" fill-rule="nonzero" fill-opacity="1" /><path clip-path="url(#clip000)" d="M1780.54 1481.64 L1788.18 1481.64 L1788.18 1455.28 L1779.87 1456.95 L1779.87 1452.69 L1788.13 1451.02 L1792.81 1451.02 L1792.81 1481.64 L1800.45 1481.64 L1800.45 1485.58 L1780.54 1485.58 L1780.54 1481.64 Z" fill="#000000" fill-rule="nonzero" fill-opacity="1" /><path clip-path="url(#clip000)" d="M1809.89 1479.7 L1814.78 1479.7 L1814.78 1485.58 L1809.89 1485.58 L1809.89 1479.7 Z" fill="#000000" fill-rule="nonzero" fill-opacity="1" /><path clip-path="url(#clip000)" d="M1825.01 1451.02 L1843.36 1451.02 L1843.36 1454.96 L1829.29 1454.96 L1829.29 1463.43 Q1830.31 1463.08 1831.33 1462.92 Q1832.34 1462.73 1833.36 1462.73 Q1839.15 1462.73 1842.53 1465.9 Q1845.91 1469.08 1845.91 1474.49 Q1845.91 1480.07 1842.44 1483.17 Q1838.97 1486.25 1832.65 1486.25 Q1830.47 1486.25 1828.2 1485.88 Q1825.96 1485.51 1823.55 1484.77 L1823.55 1480.07 Q1825.63 1481.2 1827.85 1481.76 Q1830.08 1482.32 1832.55 1482.32 Q1836.56 1482.32 1838.9 1480.21 Q1841.23 1478.1 1841.23 1474.49 Q1841.23 1470.88 1838.9 1468.77 Q1836.56 1466.67 1832.55 1466.67 Q1830.68 1466.67 1828.8 1467.08 Q1826.95 1467.5 1825.01 1468.38 L1825.01 1451.02 Z" fill="#000000" fill-rule="nonzero" fill-opacity="1" /><path clip-path="url(#clip000)" d="M2323.99 1481.64 L2340.31 1481.64 L2340.31 1485.58 L2318.37 1485.58 L2318.37 1481.64 Q2321.03 1478.89 2325.61 1474.26 Q2330.22 1469.61 2331.4 1468.27 Q2333.65 1465.74 2334.53 1464.01 Q2335.43 1462.25 2335.43 1460.56 Q2335.43 1457.8 2333.49 1456.07 Q2331.56 1454.33 2328.46 1454.33 Q2326.26 1454.33 2323.81 1455.09 Q2321.38 1455.86 2318.6 1457.41 L2318.6 1452.69 Q2321.43 1451.55 2323.88 1450.97 Q2326.33 1450.39 2328.37 1450.39 Q2333.74 1450.39 2336.93 1453.08 Q2340.13 1455.77 2340.13 1460.26 Q2340.13 1462.39 2339.32 1464.31 Q2338.53 1466.2 2336.42 1468.8 Q2335.85 1469.47 2332.74 1472.69 Q2329.64 1475.88 2323.99 1481.64 Z" fill="#000000" fill-rule="nonzero" fill-opacity="1" /><path clip-path="url(#clip000)" d="M2350.13 1479.7 L2355.01 1479.7 L2355.01 1485.58 L2350.13 1485.58 L2350.13 1479.7 Z" fill="#000000" fill-rule="nonzero" fill-opacity="1" /><path clip-path="url(#clip000)" d="M2375.2 1454.1 Q2371.59 1454.1 2369.76 1457.66 Q2367.95 1461.2 2367.95 1468.33 Q2367.95 1475.44 2369.76 1479.01 Q2371.59 1482.55 2375.2 1482.55 Q2378.83 1482.55 2380.64 1479.01 Q2382.47 1475.44 2382.47 1468.33 Q2382.47 1461.2 2380.64 1457.66 Q2378.83 1454.1 2375.2 1454.1 M2375.2 1450.39 Q2381.01 1450.39 2384.06 1455 Q2387.14 1459.58 2387.14 1468.33 Q2387.14 1477.06 2384.06 1481.67 Q2381.01 1486.25 2375.2 1486.25 Q2369.39 1486.25 2366.31 1481.67 Q2363.25 1477.06 2363.25 1468.33 Q2363.25 1459.58 2366.31 1455 Q2369.39 1450.39 2375.2 1450.39 Z" fill="#000000" fill-rule="nonzero" fill-opacity="1" /><path clip-path="url(#clip000)" d="M1272.08 1522.27 L1272.08 1532.4 L1284.15 1532.4 L1284.15 1536.95 L1272.08 1536.95 L1272.08 1556.3 Q1272.08 1560.66 1273.26 1561.9 Q1274.47 1563.14 1278.13 1563.14 L1284.15 1563.14 L1284.15 1568.04 L1278.13 1568.04 Q1271.35 1568.04 1268.77 1565.53 Q1266.19 1562.98 1266.19 1556.3 L1266.19 1536.95 L1261.9 1536.95 L1261.9 1532.4 L1266.19 1532.4 L1266.19 1522.27 L1272.08 1522.27 Z" fill="#000000" fill-rule="nonzero" fill-opacity="1" /><polyline clip-path="url(#clip000)" style="stroke:#000000; stroke-linecap:round; stroke-linejoin:round; stroke-width:4; stroke-opacity:1; fill:none" points="193.288,1423.18 193.288,47.2441 "/>
<polyline clip-path="url(#clip000)" style="stroke:#000000; stroke-linecap:round; stroke-linejoin:round; stroke-width:4; stroke-opacity:1; fill:none" points="193.288,1224.93 212.185,1224.93 "/>
<polyline clip-path="url(#clip000)" style="stroke:#000000; stroke-linecap:round; stroke-linejoin:round; stroke-width:4; stroke-opacity:1; fill:none" points="193.288,1024.26 212.185,1024.26 "/>
<polyline clip-path="url(#clip000)" style="stroke:#000000; stroke-linecap:round; stroke-linejoin:round; stroke-width:4; stroke-opacity:1; fill:none" points="193.288,823.582 212.185,823.582 "/>
<polyline clip-path="url(#clip000)" style="stroke:#000000; stroke-linecap:round; stroke-linejoin:round; stroke-width:4; stroke-opacity:1; fill:none" points="193.288,622.908 212.185,622.908 "/>
<polyline clip-path="url(#clip000)" style="stroke:#000000; stroke-linecap:round; stroke-linejoin:round; stroke-width:4; stroke-opacity:1; fill:none" points="193.288,422.234 212.185,422.234 "/>
<polyline clip-path="url(#clip000)" style="stroke:#000000; stroke-linecap:round; stroke-linejoin:round; stroke-width:4; stroke-opacity:1; fill:none" points="193.288,221.56 212.185,221.56 "/>
<path clip-path="url(#clip000)" d="M50.9921 1225.38 L80.6679 1225.38 L80.6679 1229.32 L50.9921 1229.32 L50.9921 1225.38 Z" fill="#000000" fill-rule="nonzero" fill-opacity="1" /><path clip-path="url(#clip000)" d="M100.76 1210.73 Q97.1493 1210.73 95.3206 1214.29 Q93.515 1217.84 93.515 1224.97 Q93.515 1232.07 95.3206 1235.64 Q97.1493 1239.18 100.76 1239.18 Q104.395 1239.18 106.2 1235.64 Q108.029 1232.07 108.029 1224.97 Q108.029 1217.84 106.2 1214.29 Q104.395 1210.73 100.76 1210.73 M100.76 1207.03 Q106.571 1207.03 109.626 1211.63 Q112.705 1216.22 112.705 1224.97 Q112.705 1233.69 109.626 1238.3 Q106.571 1242.88 100.76 1242.88 Q94.9502 1242.88 91.8715 1238.3 Q88.816 1233.69 88.816 1224.97 Q88.816 1216.22 91.8715 1211.63 Q94.9502 1207.03 100.76 1207.03 Z" fill="#000000" fill-rule="nonzero" fill-opacity="1" /><path clip-path="url(#clip000)" d="M120.922 1236.33 L125.807 1236.33 L125.807 1242.21 L120.922 1242.21 L120.922 1236.33 Z" fill="#000000" fill-rule="nonzero" fill-opacity="1" /><path clip-path="url(#clip000)" d="M150.158 1223.58 Q153.515 1224.29 155.39 1226.56 Q157.288 1228.83 157.288 1232.16 Q157.288 1237.28 153.769 1240.08 Q150.251 1242.88 143.769 1242.88 Q141.593 1242.88 139.279 1242.44 Q136.987 1242.03 134.533 1241.17 L134.533 1236.66 Q136.478 1237.79 138.793 1238.37 Q141.107 1238.95 143.631 1238.95 Q148.029 1238.95 150.32 1237.21 Q152.635 1235.47 152.635 1232.16 Q152.635 1229.11 150.482 1227.4 Q148.353 1225.66 144.533 1225.66 L140.506 1225.66 L140.506 1221.82 L144.718 1221.82 Q148.168 1221.82 149.996 1220.45 Q151.825 1219.06 151.825 1216.47 Q151.825 1213.81 149.927 1212.4 Q148.052 1210.96 144.533 1210.96 Q142.612 1210.96 140.413 1211.38 Q138.214 1211.79 135.575 1212.67 L135.575 1208.51 Q138.237 1207.77 140.552 1207.4 Q142.89 1207.03 144.95 1207.03 Q150.274 1207.03 153.376 1209.46 Q156.478 1211.86 156.478 1215.98 Q156.478 1218.85 154.834 1220.84 Q153.191 1222.81 150.158 1223.58 Z" fill="#000000" fill-rule="nonzero" fill-opacity="1" /><path clip-path="url(#clip000)" d="M51.9412 1024.71 L81.617 1024.71 L81.617 1028.64 L51.9412 1028.64 L51.9412 1024.71 Z" fill="#000000" fill-rule="nonzero" fill-opacity="1" /><path clip-path="url(#clip000)" d="M101.709 1010.06 Q98.0984 1010.06 96.2697 1013.62 Q94.4641 1017.16 94.4641 1024.29 Q94.4641 1031.4 96.2697 1034.96 Q98.0984 1038.5 101.709 1038.5 Q105.344 1038.5 107.149 1034.96 Q108.978 1031.4 108.978 1024.29 Q108.978 1017.16 107.149 1013.62 Q105.344 1010.06 101.709 1010.06 M101.709 1006.35 Q107.52 1006.35 110.575 1010.96 Q113.654 1015.54 113.654 1024.29 Q113.654 1033.02 110.575 1037.62 Q107.52 1042.21 101.709 1042.21 Q95.8993 1042.21 92.8206 1037.62 Q89.7651 1033.02 89.7651 1024.29 Q89.7651 1015.54 92.8206 1010.96 Q95.8993 1006.35 101.709 1006.35 Z" fill="#000000" fill-rule="nonzero" fill-opacity="1" /><path clip-path="url(#clip000)" d="M121.871 1035.66 L126.756 1035.66 L126.756 1041.54 L121.871 1041.54 L121.871 1035.66 Z" fill="#000000" fill-rule="nonzero" fill-opacity="1" /><path clip-path="url(#clip000)" d="M140.968 1037.6 L157.288 1037.6 L157.288 1041.54 L135.344 1041.54 L135.344 1037.6 Q138.006 1034.85 142.589 1030.22 Q147.195 1025.56 148.376 1024.22 Q150.621 1021.7 151.501 1019.96 Q152.404 1018.2 152.404 1016.51 Q152.404 1013.76 150.459 1012.02 Q148.538 1010.29 145.436 1010.29 Q143.237 1010.29 140.783 1011.05 Q138.353 1011.81 135.575 1013.37 L135.575 1008.64 Q138.399 1007.51 140.853 1006.93 Q143.306 1006.35 145.343 1006.35 Q150.714 1006.35 153.908 1009.04 Q157.103 1011.72 157.103 1016.21 Q157.103 1018.34 156.292 1020.26 Q155.505 1022.16 153.399 1024.75 Q152.82 1025.43 149.718 1028.64 Q146.617 1031.84 140.968 1037.6 Z" fill="#000000" fill-rule="nonzero" fill-opacity="1" /><path clip-path="url(#clip000)" d="M51.5708 824.034 L81.2466 824.034 L81.2466 827.969 L51.5708 827.969 L51.5708 824.034 Z" fill="#000000" fill-rule="nonzero" fill-opacity="1" /><path clip-path="url(#clip000)" d="M101.339 809.381 Q97.728 809.381 95.8993 812.946 Q94.0937 816.487 94.0937 823.617 Q94.0937 830.723 95.8993 834.288 Q97.728 837.83 101.339 837.83 Q104.973 837.83 106.779 834.288 Q108.608 830.723 108.608 823.617 Q108.608 816.487 106.779 812.946 Q104.973 809.381 101.339 809.381 M101.339 805.677 Q107.149 805.677 110.205 810.284 Q113.283 814.867 113.283 823.617 Q113.283 832.344 110.205 836.95 Q107.149 841.534 101.339 841.534 Q95.5289 841.534 92.4502 836.95 Q89.3947 832.344 89.3947 823.617 Q89.3947 814.867 92.4502 810.284 Q95.5289 805.677 101.339 805.677 Z" fill="#000000" fill-rule="nonzero" fill-opacity="1" /><path clip-path="url(#clip000)" d="M121.501 834.983 L126.385 834.983 L126.385 840.862 L121.501 840.862 L121.501 834.983 Z" fill="#000000" fill-rule="nonzero" fill-opacity="1" /><path clip-path="url(#clip000)" d="M137.381 836.927 L145.019 836.927 L145.019 810.562 L136.709 812.228 L136.709 807.969 L144.973 806.302 L149.649 806.302 L149.649 836.927 L157.288 836.927 L157.288 840.862 L137.381 840.862 L137.381 836.927 Z" fill="#000000" fill-rule="nonzero" fill-opacity="1" /><path clip-path="url(#clip000)" d="M100.112 608.707 Q96.5011 608.707 94.6724 612.272 Q92.8669 615.813 92.8669 622.943 Q92.8669 630.049 94.6724 633.614 Q96.5011 637.156 100.112 637.156 Q103.746 637.156 105.552 633.614 Q107.381 630.049 107.381 622.943 Q107.381 615.813 105.552 612.272 Q103.746 608.707 100.112 608.707 M100.112 605.003 Q105.922 605.003 108.978 609.61 Q112.057 614.193 112.057 622.943 Q112.057 631.67 108.978 636.276 Q105.922 640.859 100.112 640.859 Q94.3021 640.859 91.2234 636.276 Q88.1679 631.67 88.1679 622.943 Q88.1679 614.193 91.2234 609.61 Q94.3021 605.003 100.112 605.003 Z" fill="#000000" fill-rule="nonzero" fill-opacity="1" /><path clip-path="url(#clip000)" d="M120.274 634.309 L125.158 634.309 L125.158 640.188 L120.274 640.188 L120.274 634.309 Z" fill="#000000" fill-rule="nonzero" fill-opacity="1" /><path clip-path="url(#clip000)" d="M145.343 608.707 Q141.732 608.707 139.904 612.272 Q138.098 615.813 138.098 622.943 Q138.098 630.049 139.904 633.614 Q141.732 637.156 145.343 637.156 Q148.978 637.156 150.783 633.614 Q152.612 630.049 152.612 622.943 Q152.612 615.813 150.783 612.272 Q148.978 608.707 145.343 608.707 M145.343 605.003 Q151.154 605.003 154.209 609.61 Q157.288 614.193 157.288 622.943 Q157.288 631.67 154.209 636.276 Q151.154 640.859 145.343 640.859 Q139.533 640.859 136.455 636.276 Q133.399 631.67 133.399 622.943 Q133.399 614.193 136.455 609.61 Q139.533 605.003 145.343 605.003 Z" fill="#000000" fill-rule="nonzero" fill-opacity="1" /><path clip-path="url(#clip000)" d="M101.339 408.033 Q97.728 408.033 95.8993 411.597 Q94.0937 415.139 94.0937 422.269 Q94.0937 429.375 95.8993 432.94 Q97.728 436.482 101.339 436.482 Q104.973 436.482 106.779 432.94 Q108.608 429.375 108.608 422.269 Q108.608 415.139 106.779 411.597 Q104.973 408.033 101.339 408.033 M101.339 404.329 Q107.149 404.329 110.205 408.935 Q113.283 413.519 113.283 422.269 Q113.283 430.995 110.205 435.602 Q107.149 440.185 101.339 440.185 Q95.5289 440.185 92.4502 435.602 Q89.3947 430.995 89.3947 422.269 Q89.3947 413.519 92.4502 408.935 Q95.5289 404.329 101.339 404.329 Z" fill="#000000" fill-rule="nonzero" fill-opacity="1" /><path clip-path="url(#clip000)" d="M121.501 433.634 L126.385 433.634 L126.385 439.514 L121.501 439.514 L121.501 433.634 Z" fill="#000000" fill-rule="nonzero" fill-opacity="1" /><path clip-path="url(#clip000)" d="M137.381 435.579 L145.019 435.579 L145.019 409.213 L136.709 410.88 L136.709 406.621 L144.973 404.954 L149.649 404.954 L149.649 435.579 L157.288 435.579 L157.288 439.514 L137.381 439.514 L137.381 435.579 Z" fill="#000000" fill-rule="nonzero" fill-opacity="1" /><path clip-path="url(#clip000)" d="M101.709 207.358 Q98.0984 207.358 96.2697 210.923 Q94.4641 214.465 94.4641 221.595 Q94.4641 228.701 96.2697 232.266 Q98.0984 235.807 101.709 235.807 Q105.344 235.807 107.149 232.266 Q108.978 228.701 108.978 221.595 Q108.978 214.465 107.149 210.923 Q105.344 207.358 101.709 207.358 M101.709 203.655 Q107.52 203.655 110.575 208.261 Q113.654 212.845 113.654 221.595 Q113.654 230.321 110.575 234.928 Q107.52 239.511 101.709 239.511 Q95.8993 239.511 92.8206 234.928 Q89.7651 230.321 89.7651 221.595 Q89.7651 212.845 92.8206 208.261 Q95.8993 203.655 101.709 203.655 Z" fill="#000000" fill-rule="nonzero" fill-opacity="1" /><path clip-path="url(#clip000)" d="M121.871 232.96 L126.756 232.96 L126.756 238.84 L121.871 238.84 L121.871 232.96 Z" fill="#000000" fill-rule="nonzero" fill-opacity="1" /><path clip-path="url(#clip000)" d="M140.968 234.905 L157.288 234.905 L157.288 238.84 L135.344 238.84 L135.344 234.905 Q138.006 232.15 142.589 227.52 Q147.195 222.868 148.376 221.525 Q150.621 219.002 151.501 217.266 Q152.404 215.507 152.404 213.817 Q152.404 211.062 150.459 209.326 Q148.538 207.59 145.436 207.59 Q143.237 207.59 140.783 208.354 Q138.353 209.118 135.575 210.669 L135.575 205.946 Q138.399 204.812 140.853 204.233 Q143.306 203.655 145.343 203.655 Q150.714 203.655 153.908 206.34 Q157.103 209.025 157.103 213.516 Q157.103 215.645 156.292 217.567 Q155.505 219.465 153.399 222.057 Q152.82 222.729 149.718 225.946 Q146.617 229.141 140.968 234.905 Z" fill="#000000" fill-rule="nonzero" fill-opacity="1" /><polyline clip-path="url(#clip002)" style="stroke:#009af9; stroke-linecap:round; stroke-linejoin:round; stroke-width:4; stroke-opacity:1; fill:none" points="193.288,1384.24 195.449,1377.25 197.611,1370.34 199.773,1363.5 201.934,1356.72 204.096,1350.01 206.258,1343.37 208.419,1336.79 210.581,1330.28 212.743,1323.83 214.904,1317.45 217.066,1311.13 219.227,1304.88 221.389,1298.69 223.551,1292.56 225.712,1286.48 227.874,1280.48 230.036,1274.53 232.197,1268.63 234.359,1262.8 236.52,1257.03 238.682,1251.31 240.844,1245.65 243.005,1240.05 245.167,1234.5 247.329,1229.01 249.49,1223.57 251.652,1218.19 253.813,1212.86 255.975,1207.58 258.137,1202.36 260.298,1197.19 262.46,1192.07 264.622,1187 266.783,1181.98 268.945,1177.01 271.107,1172.09 273.268,1167.22 275.43,1162.4 277.591,1157.63 279.753,1152.9 281.915,1148.22 284.076,1143.59 286.238,1139 288.4,1134.46 290.561,1129.96 292.723,1125.51 294.884,1121.11 297.046,1116.74 299.208,1112.43 301.369,1108.15 303.531,1103.92 305.693,1099.72 307.854,1095.58 310.016,1091.47 312.177,1087.4 314.339,1083.37 316.501,1079.39 318.662,1075.44 320.824,1071.53 322.986,1067.66 325.147,1063.83 327.309,1060.04 329.471,1056.29 331.632,1052.57 333.794,1048.89 335.955,1045.25 338.117,1041.64 340.279,1038.07 342.44,1034.53 344.602,1031.03 346.764,1027.57 348.925,1024.14 351.087,1020.74 353.248,1017.38 355.41,1014.05 357.572,1010.75 359.733,1007.49 361.895,1004.26 364.057,1001.06 366.218,997.89 368.38,994.755 370.541,991.651 372.703,988.578 374.865,985.535 377.026,982.523 379.188,979.541 381.35,976.588 383.511,973.665 385.673,970.771 387.835,967.906 389.996,965.069 392.158,962.261 394.319,959.48 396.481,956.727 398.643,954.002 400.804,951.304 402.966,948.632 405.128,945.988 407.289,943.369 409.451,940.777 411.612,938.21 413.774,935.669 415.936,933.154 418.097,930.663 420.259,928.198 422.421,925.756 424.582,923.34 426.744,920.947 428.905,918.578 431.067,916.232 433.229,913.911 435.39,911.612 437.552,909.336 439.714,907.082 441.875,904.852 444.037,902.643 446.199,900.456 448.36,898.292 450.522,896.148 452.683,894.026 454.845,891.926 457.007,889.846 459.168,887.787 461.33,885.748 463.492,883.73 465.653,881.731 467.815,879.753 469.976,877.794 472.138,875.855 474.3,873.935 476.461,872.034 478.623,870.153 480.785,868.289 482.946,866.445 485.108,864.619 487.269,862.811 489.431,861.021 491.593,859.249 493.754,857.494 495.916,855.757 498.078,854.037 500.239,852.335 502.401,850.649 504.563,848.98 506.724,847.328 508.886,845.692 511.047,844.073 513.209,842.47 515.371,840.882 517.532,839.311 519.694,837.755 521.856,836.215 524.017,834.69 526.179,833.18 528.34,831.685 530.502,830.206 532.664,828.74 534.825,827.29 536.987,825.854 539.149,824.432 541.31,823.024 543.472,821.631 545.633,820.251 547.795,818.885 549.957,817.533 552.118,816.194 554.28,814.868 556.442,813.556 558.603,812.257 560.765,810.97 562.927,809.697 565.088,808.436 567.25,807.187 569.411,805.951 571.573,804.728 573.735,803.516 575.896,802.317 578.058,801.129 580.22,799.954 582.381,798.79 584.543,797.637 586.704,796.496 588.866,795.367 591.028,794.249 593.189,793.141 595.351,792.045 597.513,790.96 599.674,789.886 601.836,788.822 603.997,787.769 606.159,786.727 608.321,785.695 610.482,784.673 612.644,783.661 614.806,782.66 616.967,781.668 619.129,780.686 621.291,779.714 623.452,778.752 625.614,777.8 627.775,776.856 629.937,775.923 632.099,774.998 634.26,774.083 636.422,773.177 638.584,772.28 640.745,771.392 642.907,770.512 645.068,769.642 647.23,768.78 649.392,767.927 651.553,767.082 653.715,766.246 655.877,765.417 658.038,764.598 660.2,763.786 662.361,762.982 664.523,762.187 666.685,761.399 668.846,760.619 671.008,759.847 673.17,759.083 675.331,758.326 677.493,757.577 679.655,756.835 681.816,756.1 683.978,755.373 686.139,754.653 688.301,753.941 690.463,753.235 692.624,752.536 694.786,751.845 696.948,751.16 699.109,750.482 701.271,749.811 703.432,749.146 705.594,748.488 707.756,747.837 709.917,747.192 712.079,746.554 714.241,745.922 716.402,745.296 718.564,744.676 720.725,744.063 722.887,743.456 725.049,742.855 727.21,742.26 729.372,741.671 731.534,741.087 733.695,740.51 735.857,739.938 738.019,739.372 740.18,738.811 742.342,738.257 744.503,737.707 746.665,737.164 748.827,736.625 750.988,736.092 753.15,735.564 755.312,735.042 757.473,734.525 759.635,734.013 761.796,733.506 763.958,733.004 766.12,732.507 768.281,732.015 770.443,731.528 772.605,731.045 774.766,730.568 776.928,730.095 779.089,729.627 781.251,729.164 783.413,728.705 785.574,728.251 787.736,727.801 789.898,727.356 792.059,726.915 794.221,726.479 796.383,726.047 798.544,725.619 800.706,725.195 802.867,724.776 805.029,724.361 807.191,723.95 809.352,723.543 811.514,723.14 813.676,722.741 815.837,722.346 817.999,721.955 820.16,721.568 822.322,721.185 824.484,720.806 826.645,720.43 828.807,720.058 830.969,719.69 833.13,719.326 835.292,718.965 837.453,718.607 839.615,718.254 841.777,717.904 843.938,717.557 846.1,717.214 848.262,716.874 850.423,716.538 852.585,716.205 854.747,715.875 856.908,715.548 859.07,715.225 861.231,714.905 863.393,714.589 865.555,714.275 867.716,713.965 869.878,713.657 872.04,713.353 874.201,713.052 876.363,712.754 878.524,712.458 880.686,712.166 882.848,711.877 885.009,711.59 887.171,711.306 889.333,711.025 891.494,710.747 893.656,710.472 895.817,710.2 897.979,709.93 900.141,709.663 902.302,709.398 904.464,709.136 906.626,708.877 908.787,708.62 910.949,708.366 913.111,708.115 915.272,707.865 917.434,707.619 919.595,707.375 921.757,707.133 923.919,706.894 926.08,706.657 928.242,706.422 930.404,706.19 932.565,705.96 934.727,705.732 936.888,705.506 939.05,705.283 941.212,705.062 943.373,704.843 945.535,704.627 947.697,704.412 949.858,704.2 952.02,703.99 954.182,703.782 956.343,703.576 958.505,703.372 960.666,703.17 962.828,702.97 964.99,702.772 967.151,702.576 969.313,702.382 971.475,702.19 973.636,702 975.798,701.811 977.959,701.625 980.121,701.44 982.283,701.258 984.444,701.077 986.606,700.898 988.768,700.721 990.929,700.545 993.091,700.371 995.252,700.199 997.414,700.029 999.576,699.861 1001.74,699.694 1003.9,699.528 1006.06,699.365 1008.22,699.203 1010.38,699.043 1012.55,698.884 1014.71,698.727 1016.87,698.571 1019.03,698.417 1021.19,698.265 1023.35,698.114 1025.52,697.964 1027.68,697.816 1029.84,697.67 1032,697.525 1034.16,697.381 1036.32,697.239 1038.49,697.098 1040.65,696.959 1042.81,696.821 1044.97,696.684 1047.13,696.549 1049.29,696.415 1051.45,696.283 1053.62,696.151 1055.78,696.021 1057.94,695.893 1060.1,695.765 1062.26,695.639 1064.42,695.514 1066.59,695.391 1068.75,695.268 1070.91,695.147 1073.07,695.027 1075.23,694.908 1077.39,694.791 1079.56,694.674 1081.72,694.559 1083.88,694.445 1086.04,694.332 1088.2,694.22 1090.36,694.109 1092.53,693.999 1094.69,693.891 1096.85,693.783 1099.01,693.677 1101.17,693.571 1103.33,693.467 1105.5,693.364 1107.66,693.261 1109.82,693.16 1111.98,693.06 1114.14,692.961 1116.3,692.863 1118.47,692.765 1120.63,692.669 1122.79,692.574 1124.95,692.479 1127.11,692.386 1129.27,692.293 1131.44,692.202 1133.6,692.111 1135.76,692.021 1137.92,691.933 1140.08,691.845 1142.24,691.758 1144.4,691.671 1146.57,691.586 1148.73,691.502 1150.89,691.418 1153.05,691.335 1155.21,691.253 1157.37,691.172 1159.54,691.092 1161.7,691.012 1163.86,690.933 1166.02,690.855 1168.18,690.778 1170.34,690.702 1172.51,690.626 1174.67,690.551 1176.83,690.477 1178.99,690.404 1181.15,690.331 1183.31,690.259 1185.48,690.188 1187.64,690.117 1189.8,690.047 1191.96,689.978 1194.12,689.91 1196.28,689.842 1198.45,689.775 1200.61,689.708 1202.77,689.643 1204.93,689.578 1207.09,689.513 1209.25,689.449 1211.42,689.386 1213.58,689.323 1215.74,689.262 1217.9,689.2 1220.06,689.139 1222.22,689.079 1224.39,689.02 1226.55,688.961 1228.71,688.902 1230.87,688.845 1233.03,688.787 1235.19,688.731 1237.35,688.675 1239.52,688.619 1241.68,688.564 1243.84,688.51 1246,688.456 1248.16,688.402 1250.32,688.35 1252.49,688.297 1254.65,688.245 1256.81,688.194 1258.97,688.143 1261.13,688.093 1263.29,688.043 1265.46,687.994 1267.62,687.945 1269.78,687.897 1271.94,687.849 1274.1,687.802 1276.26,687.755 1278.43,687.709 1280.59,687.663 1282.75,687.617 1284.91,687.572 1287.07,687.528 1289.23,687.484 1291.4,687.44 1293.56,687.397 1295.72,687.354 1297.88,687.312 1300.04,687.27 1302.2,687.228 1304.37,687.187 1306.53,687.147 1308.69,687.106 1310.85,687.066 1313.01,687.027 1315.17,686.988 1317.34,686.949 1319.5,686.911 1321.66,686.873 1323.82,686.835 1325.98,686.798 1328.14,686.761 1330.31,686.725 1332.47,686.689 1334.63,686.653 1336.79,686.618 1338.95,686.583 1341.11,686.548 1343.27,686.514 1345.44,686.48 1347.6,686.446 1349.76,686.413 1351.92,686.38 1354.08,686.348 1356.24,686.315 1358.41,686.283 1360.57,686.252 1362.73,686.22 1364.89,686.189 1367.05,686.158 1369.21,686.128 1371.38,686.098 1373.54,686.068 1375.7,686.039 1377.86,686.009 1380.02,685.98 1382.18,685.952 1384.35,685.923 1386.51,685.895 1388.67,685.867 1390.83,685.84 1392.99,685.813 1395.15,685.786 1397.32,685.759 1399.48,685.732 1401.64,685.706 1403.8,685.68 1405.96,685.655 1408.12,685.629 1410.29,685.604 1412.45,685.579 1414.61,685.554 1416.77,685.53 1418.93,685.506 1421.09,685.482 1423.26,685.458 1425.42,685.434 1427.58,685.411 1429.74,685.388 1431.9,685.365 1434.06,685.343 1436.22,685.321 1438.39,685.298 1440.55,685.277 1442.71,685.255 1444.87,685.233 1447.03,685.212 1449.19,685.191 1451.36,685.17 1453.52,685.15 1455.68,685.129 1457.84,685.109 1460,685.089 1462.16,685.069 1464.33,685.05 1466.49,685.03 1468.65,685.011 1470.81,684.992 1472.97,684.973 1475.13,684.955 1477.3,684.936 1479.46,684.918 1481.62,684.9 1483.78,684.882 1485.94,684.864 1488.1,684.847 1490.27,684.829 1492.43,684.812 1494.59,684.795 1496.75,684.778 1498.91,684.761 1501.07,684.745 1503.24,684.729 1505.4,684.712 1507.56,684.696 1509.72,684.68 1511.88,684.665 1514.04,684.649 1516.21,684.634 1518.37,684.619 1520.53,684.603 1522.69,684.589 1524.85,684.574 1527.01,684.559 1529.17,684.545 1531.34,684.53 1533.5,684.516 1535.66,684.502 1537.82,684.488 1539.98,684.474 1542.14,684.461 1544.31,684.447 1546.47,684.434 1548.63,684.42 1550.79,684.407 1552.95,684.394 1555.11,684.381 1557.28,684.369 1559.44,684.356 1561.6,684.343 1563.76,684.331 1565.92,684.319 1568.08,684.307 1570.25,684.295 1572.41,684.283 1574.57,684.271 1576.73,684.259 1578.89,684.248 1581.05,684.236 1583.22,684.225 1585.38,684.214 1587.54,684.203 1589.7,684.192 1591.86,684.181 1594.02,684.17 1596.19,684.159 1598.35,684.149 1600.51,684.138 1602.67,684.128 1604.83,684.118 1606.99,684.108 1609.16,684.098 1611.32,684.088 1613.48,684.078 1615.64,684.068 1617.8,684.058 1619.96,684.049 1622.13,684.039 1624.29,684.03 1626.45,684.021 1628.61,684.012 1630.77,684.003 1632.93,683.994 1635.09,683.985 1637.26,683.976 1639.42,683.967 1641.58,683.958 1643.74,683.95 1645.9,683.941 1648.06,683.933 1650.23,683.925 1652.39,683.917 1654.55,683.908 1656.71,683.9 1658.87,683.892 1661.03,683.885 1663.2,683.877 1665.36,683.869 1667.52,683.861 1669.68,683.854 1671.84,683.846 1674,683.839 1676.17,683.832 1678.33,683.824 1680.49,683.817 1682.65,683.81 1684.81,683.803 1686.97,683.796 1689.14,683.789 1691.3,683.782 1693.46,683.776 1695.62,683.769 1697.78,683.762 1699.94,683.756 1702.11,683.749 1704.27,683.743 1706.43,683.736 1708.59,683.73 1710.75,683.724 1712.91,683.718 1715.08,683.712 1717.24,683.705 1719.4,683.699 1721.56,683.694 1723.72,683.688 1725.88,683.682 1728.04,683.676 1730.21,683.67 1732.37,683.665 1734.53,683.659 1736.69,683.654 1738.85,683.648 1741.01,683.643 1743.18,683.637 1745.34,683.632 1747.5,683.627 1749.66,683.622 1751.82,683.616 1753.98,683.611 1756.15,683.606 1758.31,683.601 1760.47,683.596 1762.63,683.591 1764.79,683.586 1766.95,683.582 1769.12,683.577 1771.28,683.572 1773.44,683.567 1775.6,683.563 1777.76,683.558 1779.92,683.554 1782.09,683.549 1784.25,683.545 1786.41,683.54 1788.57,683.536 1790.73,683.532 1792.89,683.527 1795.06,683.523 1797.22,683.519 1799.38,683.515 1801.54,683.511 1803.7,683.506 1805.86,683.502 1808.03,683.498 1810.19,683.494 1812.35,683.49 1814.51,683.487 1816.67,683.483 1818.83,683.479 1821,683.475 1823.16,683.471 1825.32,683.468 1827.48,683.464 1829.64,683.46 1831.8,683.457 1833.96,683.453 1836.13,683.45 1838.29,683.446 1840.45,683.443 1842.61,683.439 1844.77,683.436 1846.93,683.433 1849.1,683.429 1851.26,683.426 1853.42,683.423 1855.58,683.42 1857.74,683.417 1859.9,683.413 1862.07,683.41 1864.23,683.407 1866.39,683.404 1868.55,683.401 1870.71,683.398 1872.87,683.395 1875.04,683.392 1877.2,683.389 1879.36,683.386 1881.52,683.384 1883.68,683.381 1885.84,683.378 1888.01,683.375 1890.17,683.373 1892.33,683.37 1894.49,683.367 1896.65,683.365 1898.81,683.362 1900.98,683.359 1903.14,683.357 1905.3,683.354 1907.46,683.352 1909.62,683.349 1911.78,683.347 1913.95,683.344 1916.11,683.342 1918.27,683.34 1920.43,683.337 1922.59,683.335 1924.75,683.333 1926.91,683.33 1929.08,683.328 1931.24,683.326 1933.4,683.324 1935.56,683.321 1937.72,683.319 1939.88,683.317 1942.05,683.315 1944.21,683.313 1946.37,683.311 1948.53,683.309 1950.69,683.307 1952.85,683.305 1955.02,683.303 1957.18,683.301 1959.34,683.299 1961.5,683.297 1963.66,683.295 1965.82,683.293 1967.99,683.291 1970.15,683.289 1972.31,683.287 1974.47,683.285 1976.63,683.283 1978.79,683.282 1980.96,683.28 1983.12,683.278 1985.28,683.276 1987.44,683.275 1989.6,683.273 1991.76,683.271 1993.93,683.27 1996.09,683.268 1998.25,683.266 2000.41,683.265 2002.57,683.263 2004.73,683.261 2006.9,683.26 2009.06,683.258 2011.22,683.257 2013.38,683.255 2015.54,683.254 2017.7,683.252 2019.86,683.251 2022.03,683.249 2024.19,683.248 2026.35,683.246 2028.51,683.245 2030.67,683.243 2032.83,683.242 2035,683.24 2037.16,683.239 2039.32,683.238 2041.48,683.236 2043.64,683.235 2045.8,683.234 2047.97,683.232 2050.13,683.231 2052.29,683.23 2054.45,683.228 2056.61,683.227 2058.77,683.226 2060.94,683.225 2063.1,683.223 2065.26,683.222 2067.42,683.221 2069.58,683.22 2071.74,683.218 2073.91,683.217 2076.07,683.216 2078.23,683.215 2080.39,683.214 2082.55,683.213 2084.71,683.212 2086.88,683.21 2089.04,683.209 2091.2,683.208 2093.36,683.207 2095.52,683.206 2097.68,683.205 2099.85,683.204 2102.01,683.203 2104.17,683.202 2106.33,683.201 2108.49,683.2 2110.65,683.199 2112.82,683.198 2114.98,683.197 2117.14,683.196 2119.3,683.195 2121.46,683.194 2123.62,683.193 2125.78,683.192 2127.95,683.191 2130.11,683.191 2132.27,683.19 2134.43,683.189 2136.59,683.188 2138.75,683.187 2140.92,683.186 2143.08,683.185 2145.24,683.185 2147.4,683.184 2149.56,683.183 2151.72,683.182 2153.89,683.181 2156.05,683.181 2158.21,683.18 2160.37,683.179 2162.53,683.178 2164.69,683.177 2166.86,683.177 2169.02,683.176 2171.18,683.175 2173.34,683.174 2175.5,683.174 2177.66,683.173 2179.83,683.172 2181.99,683.172 2184.15,683.171 2186.31,683.17 2188.47,683.17 2190.63,683.169 2192.8,683.168 2194.96,683.168 2197.12,683.167 2199.28,683.166 2201.44,683.166 2203.6,683.165 2205.77,683.164 2207.93,683.164 2210.09,683.163 2212.25,683.163 2214.41,683.162 2216.57,683.161 2218.73,683.161 2220.9,683.16 2223.06,683.16 2225.22,683.159 2227.38,683.159 2229.54,683.158 2231.7,683.157 2233.87,683.157 2236.03,683.156 2238.19,683.156 2240.35,683.155 2242.51,683.155 2244.67,683.154 2246.84,683.154 2249,683.153 2251.16,683.153 2253.32,683.152 2255.48,683.152 2257.64,683.151 2259.81,683.151 2261.97,683.15 2264.13,683.15 2266.29,683.149 2268.45,683.149 2270.61,683.148 2272.78,683.148 2274.94,683.147 2277.1,683.147 2279.26,683.147 2281.42,683.146 2283.58,683.146 2285.75,683.145 2287.91,683.145 2290.07,683.144 2292.23,683.144 2294.39,683.144 2296.55,683.143 2298.72,683.143 2300.88,683.142 2303.04,683.142 2305.2,683.141 2307.36,683.141 2309.52,683.141 2311.68,683.14 2313.85,683.14 2316.01,683.14 2318.17,683.139 2320.33,683.139 2322.49,683.138 2324.65,683.138 2326.82,683.138 2328.98,683.137 2331.14,683.137 2333.3,683.137 2335.46,683.136 2337.62,683.136 2339.79,683.136 2341.95,683.135 2344.11,683.135 2346.27,683.135 2348.43,683.134 2350.59,683.134 2352.76,683.134 "/>
<polyline clip-path="url(#clip002)" style="stroke:#e26f46; stroke-linecap:round; stroke-linejoin:round; stroke-width:4; stroke-opacity:1; fill:none" points="193.288,86.1857 195.449,96.3777 197.611,106.443 199.773,116.382 201.934,126.198 204.096,135.891 206.258,145.462 208.419,154.913 210.581,164.246 212.743,173.461 214.904,182.561 217.066,191.545 219.227,200.416 221.389,209.175 223.551,217.823 225.712,226.362 227.874,234.792 230.036,243.114 232.197,251.331 234.359,259.443 236.52,267.452 238.682,275.357 240.844,283.162 243.005,290.867 245.167,298.472 247.329,305.98 249.49,313.39 251.652,320.706 253.813,327.926 255.975,335.053 258.137,342.088 260.298,349.031 262.46,355.884 264.622,362.647 266.783,369.322 268.945,375.909 271.107,382.411 273.268,388.827 275.43,395.158 277.591,401.406 279.753,407.572 281.915,413.656 284.076,419.659 286.238,425.583 288.4,431.428 290.561,437.195 292.723,442.885 294.884,448.499 297.046,454.038 299.208,459.503 301.369,464.894 303.531,470.212 305.693,475.459 307.854,480.634 310.016,485.74 312.177,490.776 314.339,495.744 316.501,500.644 318.662,505.477 320.824,510.244 322.986,514.945 325.147,519.582 327.309,524.155 329.471,528.664 331.632,533.111 333.794,537.497 335.955,541.821 338.117,546.085 340.279,550.29 342.44,554.436 344.602,558.523 346.764,562.553 348.925,566.526 351.087,570.443 353.248,574.304 355.41,578.11 357.572,581.863 359.733,585.561 361.895,589.207 364.057,592.8 366.218,596.342 368.38,599.832 370.541,603.273 372.703,606.663 374.865,610.004 377.026,613.296 379.188,616.54 381.35,619.736 383.511,622.886 385.673,625.989 387.835,629.046 389.996,632.058 392.158,635.025 394.319,637.948 396.481,640.827 398.643,643.663 400.804,646.456 402.966,649.207 405.128,651.916 407.289,654.585 409.451,657.212 411.612,659.799 413.774,662.347 415.936,664.855 418.097,667.324 420.259,669.755 422.421,672.149 424.582,674.504 426.744,676.823 428.905,679.106 431.067,681.352 433.229,683.563 435.39,685.739 437.552,687.88 439.714,689.986 441.875,692.059 444.037,694.098 446.199,696.104 448.36,698.078 450.522,700.019 452.683,701.929 454.845,703.807 457.007,705.654 459.168,707.47 461.33,709.256 463.492,711.012 465.653,712.738 467.815,714.436 469.976,716.104 472.138,717.744 474.3,719.356 476.461,720.94 478.623,722.497 480.785,724.027 482.946,725.53 485.108,727.006 487.269,728.457 489.431,729.882 491.593,731.281 493.754,732.655 495.916,734.005 498.078,735.33 500.239,736.63 502.401,737.907 504.563,739.16 506.724,740.39 508.886,741.597 511.047,742.782 513.209,743.944 515.371,745.084 517.532,746.202 519.694,747.298 521.856,748.373 524.017,749.427 526.179,750.461 528.34,751.474 530.502,752.467 532.664,753.44 534.825,754.393 536.987,755.327 539.149,756.242 541.31,757.138 543.472,758.015 545.633,758.874 547.795,759.714 549.957,760.537 552.118,761.342 554.28,762.13 556.442,762.9 558.603,763.654 560.765,764.39 562.927,765.11 565.088,765.814 567.25,766.502 569.411,767.174 571.573,767.83 573.735,768.471 575.896,769.097 578.058,769.707 580.22,770.303 582.381,770.884 584.543,771.45 586.704,772.003 588.866,772.541 591.028,773.065 593.189,773.575 595.351,774.072 597.513,774.556 599.674,775.027 601.836,775.484 603.997,775.929 606.159,776.361 608.321,776.781 610.482,777.188 612.644,777.583 614.806,777.967 616.967,778.338 619.129,778.698 621.291,779.047 623.452,779.384 625.614,779.71 627.775,780.025 629.937,780.33 632.099,780.623 634.26,780.907 636.422,781.179 638.584,781.442 640.745,781.695 642.907,781.938 645.068,782.171 647.23,782.394 649.392,782.608 651.553,782.813 653.715,783.008 655.877,783.194 658.038,783.372 660.2,783.541 662.361,783.701 664.523,783.852 666.685,783.995 668.846,784.13 671.008,784.257 673.17,784.375 675.331,784.486 677.493,784.589 679.655,784.685 681.816,784.772 683.978,784.853 686.139,784.926 688.301,784.992 690.463,785.05 692.624,785.102 694.786,785.147 696.948,785.185 699.109,785.216 701.271,785.241 703.432,785.259 705.594,785.271 707.756,785.276 709.917,785.276 712.079,785.269 714.241,785.256 716.402,785.237 718.564,785.213 720.725,785.183 722.887,785.147 725.049,785.105 727.21,785.059 729.372,785.006 731.534,784.949 733.695,784.886 735.857,784.819 738.019,784.746 740.18,784.668 742.342,784.586 744.503,784.498 746.665,784.407 748.827,784.31 750.988,784.209 753.15,784.104 755.312,783.994 757.473,783.88 759.635,783.761 761.796,783.639 763.958,783.513 766.12,783.382 768.281,783.248 770.443,783.11 772.605,782.968 774.766,782.822 776.928,782.673 779.089,782.52 781.251,782.364 783.413,782.204 785.574,782.041 787.736,781.875 789.898,781.705 792.059,781.533 794.221,781.357 796.383,781.178 798.544,780.996 800.706,780.811 802.867,780.624 805.029,780.433 807.191,780.24 809.352,780.044 811.514,779.845 813.676,779.644 815.837,779.44 817.999,779.234 820.16,779.025 822.322,778.814 824.484,778.601 826.645,778.385 828.807,778.167 830.969,777.946 833.13,777.724 835.292,777.499 837.453,777.273 839.615,777.044 841.777,776.813 843.938,776.581 846.1,776.346 848.262,776.11 850.423,775.872 852.585,775.632 854.747,775.39 856.908,775.147 859.07,774.902 861.231,774.655 863.393,774.407 865.555,774.158 867.716,773.906 869.878,773.654 872.04,773.4 874.201,773.145 876.363,772.888 878.524,772.63 880.686,772.371 882.848,772.111 885.009,771.849 887.171,771.586 889.333,771.323 891.494,771.058 893.656,770.792 895.817,770.525 897.979,770.257 900.141,769.988 902.302,769.719 904.464,769.448 906.626,769.177 908.787,768.904 910.949,768.631 913.111,768.358 915.272,768.083 917.434,767.808 919.595,767.532 921.757,767.256 923.919,766.978 926.08,766.701 928.242,766.423 930.404,766.144 932.565,765.865 934.727,765.585 936.888,765.305 939.05,765.024 941.212,764.743 943.373,764.461 945.535,764.18 947.697,763.897 949.858,763.615 952.02,763.332 954.182,763.049 956.343,762.766 958.505,762.482 960.666,762.198 962.828,761.914 964.99,761.63 967.151,761.345 969.313,761.061 971.475,760.776 973.636,760.491 975.798,760.206 977.959,759.921 980.121,759.636 982.283,759.351 984.444,759.065 986.606,758.78 988.768,758.495 990.929,758.21 993.091,757.925 995.252,757.64 997.414,757.355 999.576,757.07 1001.74,756.785 1003.9,756.5 1006.06,756.216 1008.22,755.931 1010.38,755.647 1012.55,755.363 1014.71,755.079 1016.87,754.796 1019.03,754.512 1021.19,754.229 1023.35,753.946 1025.52,753.664 1027.68,753.381 1029.84,753.099 1032,752.817 1034.16,752.536 1036.32,752.255 1038.49,751.974 1040.65,751.694 1042.81,751.414 1044.97,751.134 1047.13,750.855 1049.29,750.576 1051.45,750.297 1053.62,750.019 1055.78,749.742 1057.94,749.465 1060.1,749.188 1062.26,748.912 1064.42,748.636 1066.59,748.361 1068.75,748.086 1070.91,747.812 1073.07,747.538 1075.23,747.265 1077.39,746.992 1079.56,746.72 1081.72,746.448 1083.88,746.177 1086.04,745.907 1088.2,745.637 1090.36,745.367 1092.53,745.098 1094.69,744.83 1096.85,744.562 1099.01,744.295 1101.17,744.029 1103.33,743.763 1105.5,743.498 1107.66,743.233 1109.82,742.969 1111.98,742.705 1114.14,742.442 1116.3,742.18 1118.47,741.919 1120.63,741.658 1122.79,741.397 1124.95,741.138 1127.11,740.879 1129.27,740.621 1131.44,740.363 1133.6,740.106 1135.76,739.85 1137.92,739.594 1140.08,739.339 1142.24,739.085 1144.4,738.831 1146.57,738.579 1148.73,738.326 1150.89,738.075 1153.05,737.824 1155.21,737.574 1157.37,737.325 1159.54,737.076 1161.7,736.828 1163.86,736.581 1166.02,736.335 1168.18,736.089 1170.34,735.844 1172.51,735.6 1174.67,735.357 1176.83,735.114 1178.99,734.872 1181.15,734.631 1183.31,734.391 1185.48,734.151 1187.64,733.912 1189.8,733.674 1191.96,733.436 1194.12,733.2 1196.28,732.964 1198.45,732.729 1200.61,732.495 1202.77,732.261 1204.93,732.029 1207.09,731.797 1209.25,731.566 1211.42,731.335 1213.58,731.106 1215.74,730.877 1217.9,730.649 1220.06,730.422 1222.22,730.195 1224.39,729.97 1226.55,729.745 1228.71,729.521 1230.87,729.298 1233.03,729.076 1235.19,728.854 1237.35,728.633 1239.52,728.413 1241.68,728.194 1243.84,727.976 1246,727.758 1248.16,727.541 1250.32,727.325 1252.49,727.11 1254.65,726.896 1256.81,726.682 1258.97,726.469 1261.13,726.257 1263.29,726.046 1265.46,725.836 1267.62,725.626 1269.78,725.417 1271.94,725.209 1274.1,725.002 1276.26,724.795 1278.43,724.59 1280.59,724.385 1282.75,724.181 1284.91,723.977 1287.07,723.775 1289.23,723.573 1291.4,723.372 1293.56,723.172 1295.72,722.972 1297.88,722.774 1300.04,722.576 1302.2,722.379 1304.37,722.183 1306.53,721.987 1308.69,721.793 1310.85,721.599 1313.01,721.406 1315.17,721.213 1317.34,721.022 1319.5,720.831 1321.66,720.641 1323.82,720.452 1325.98,720.263 1328.14,720.076 1330.31,719.889 1332.47,719.702 1334.63,719.517 1336.79,719.333 1338.95,719.149 1341.11,718.966 1343.27,718.783 1345.44,718.602 1347.6,718.421 1349.76,718.241 1351.92,718.062 1354.08,717.883 1356.24,717.706 1358.41,717.529 1360.57,717.353 1362.73,717.177 1364.89,717.002 1367.05,716.829 1369.21,716.655 1371.38,716.483 1373.54,716.311 1375.7,716.14 1377.86,715.97 1380.02,715.801 1382.18,715.632 1384.35,715.464 1386.51,715.297 1388.67,715.131 1390.83,714.965 1392.99,714.8 1395.15,714.636 1397.32,714.472 1399.48,714.31 1401.64,714.148 1403.8,713.986 1405.96,713.826 1408.12,713.666 1410.29,713.507 1412.45,713.348 1414.61,713.191 1416.77,713.034 1418.93,712.877 1421.09,712.722 1423.26,712.567 1425.42,712.413 1427.58,712.259 1429.74,712.106 1431.9,711.954 1434.06,711.803 1436.22,711.652 1438.39,711.502 1440.55,711.353 1442.71,711.204 1444.87,711.056 1447.03,710.909 1449.19,710.763 1451.36,710.617 1453.52,710.471 1455.68,710.327 1457.84,710.183 1460,710.04 1462.16,709.897 1464.33,709.755 1466.49,709.614 1468.65,709.474 1470.81,709.334 1472.97,709.195 1475.13,709.056 1477.3,708.918 1479.46,708.781 1481.62,708.644 1483.78,708.508 1485.94,708.373 1488.1,708.238 1490.27,708.104 1492.43,707.971 1494.59,707.838 1496.75,707.706 1498.91,707.574 1501.07,707.443 1503.24,707.313 1505.4,707.183 1507.56,707.054 1509.72,706.926 1511.88,706.798 1514.04,706.671 1516.21,706.544 1518.37,706.418 1520.53,706.293 1522.69,706.168 1524.85,706.044 1527.01,705.921 1529.17,705.798 1531.34,705.676 1533.5,705.554 1535.66,705.433 1537.82,705.312 1539.98,705.192 1542.14,705.073 1544.31,704.954 1546.47,704.836 1548.63,704.718 1550.79,704.601 1552.95,704.485 1555.11,704.369 1557.28,704.254 1559.44,704.139 1561.6,704.025 1563.76,703.912 1565.92,703.799 1568.08,703.686 1570.25,703.574 1572.41,703.463 1574.57,703.352 1576.73,703.242 1578.89,703.132 1581.05,703.023 1583.22,702.915 1585.38,702.807 1587.54,702.699 1589.7,702.592 1591.86,702.486 1594.02,702.38 1596.19,702.275 1598.35,702.17 1600.51,702.066 1602.67,701.962 1604.83,701.859 1606.99,701.756 1609.16,701.654 1611.32,701.552 1613.48,701.451 1615.64,701.35 1617.8,701.25 1619.96,701.151 1622.13,701.052 1624.29,700.953 1626.45,700.855 1628.61,700.757 1630.77,700.66 1632.93,700.564 1635.09,700.467 1637.26,700.372 1639.42,700.277 1641.58,700.182 1643.74,700.088 1645.9,699.994 1648.06,699.901 1650.23,699.808 1652.39,699.716 1654.55,699.624 1656.71,699.533 1658.87,699.442 1661.03,699.352 1663.2,699.262 1665.36,699.172 1667.52,699.083 1669.68,698.995 1671.84,698.907 1674,698.819 1676.17,698.732 1678.33,698.645 1680.49,698.559 1682.65,698.473 1684.81,698.388 1686.97,698.303 1689.14,698.218 1691.3,698.134 1693.46,698.051 1695.62,697.967 1697.78,697.885 1699.94,697.802 1702.11,697.721 1704.27,697.639 1706.43,697.558 1708.59,697.477 1710.75,697.397 1712.91,697.318 1715.08,697.238 1717.24,697.159 1719.4,697.081 1721.56,697.003 1723.72,696.925 1725.88,696.848 1728.04,696.771 1730.21,696.694 1732.37,696.618 1734.53,696.543 1736.69,696.467 1738.85,696.392 1741.01,696.318 1743.18,696.244 1745.34,696.17 1747.5,696.097 1749.66,696.024 1751.82,695.952 1753.98,695.88 1756.15,695.808 1758.31,695.736 1760.47,695.665 1762.63,695.595 1764.79,695.525 1766.95,695.455 1769.12,695.385 1771.28,695.316 1773.44,695.248 1775.6,695.179 1777.76,695.111 1779.92,695.044 1782.09,694.977 1784.25,694.91 1786.41,694.843 1788.57,694.777 1790.73,694.711 1792.89,694.646 1795.06,694.581 1797.22,694.516 1799.38,694.451 1801.54,694.387 1803.7,694.324 1805.86,694.26 1808.03,694.197 1810.19,694.135 1812.35,694.072 1814.51,694.01 1816.67,693.949 1818.83,693.887 1821,693.826 1823.16,693.766 1825.32,693.705 1827.48,693.645 1829.64,693.585 1831.8,693.526 1833.96,693.467 1836.13,693.408 1838.29,693.35 1840.45,693.292 1842.61,693.234 1844.77,693.177 1846.93,693.119 1849.1,693.063 1851.26,693.006 1853.42,692.95 1855.58,692.894 1857.74,692.838 1859.9,692.783 1862.07,692.728 1864.23,692.673 1866.39,692.619 1868.55,692.565 1870.71,692.511 1872.87,692.457 1875.04,692.404 1877.2,692.351 1879.36,692.298 1881.52,692.246 1883.68,692.194 1885.84,692.142 1888.01,692.091 1890.17,692.039 1892.33,691.988 1894.49,691.938 1896.65,691.887 1898.81,691.837 1900.98,691.787 1903.14,691.738 1905.3,691.688 1907.46,691.639 1909.62,691.591 1911.78,691.542 1913.95,691.494 1916.11,691.446 1918.27,691.398 1920.43,691.351 1922.59,691.304 1924.75,691.257 1926.91,691.21 1929.08,691.164 1931.24,691.117 1933.4,691.072 1935.56,691.026 1937.72,690.981 1939.88,690.935 1942.05,690.89 1944.21,690.846 1946.37,690.801 1948.53,690.757 1950.69,690.713 1952.85,690.67 1955.02,690.626 1957.18,690.583 1959.34,690.54 1961.5,690.498 1963.66,690.455 1965.82,690.413 1967.99,690.371 1970.15,690.329 1972.31,690.288 1974.47,690.246 1976.63,690.205 1978.79,690.164 1980.96,690.124 1983.12,690.083 1985.28,690.043 1987.44,690.003 1989.6,689.964 1991.76,689.924 1993.93,689.885 1996.09,689.846 1998.25,689.807 2000.41,689.768 2002.57,689.73 2004.73,689.692 2006.9,689.654 2009.06,689.616 2011.22,689.579 2013.38,689.541 2015.54,689.504 2017.7,689.467 2019.86,689.431 2022.03,689.394 2024.19,689.358 2026.35,689.322 2028.51,689.286 2030.67,689.25 2032.83,689.215 2035,689.179 2037.16,689.144 2039.32,689.109 2041.48,689.075 2043.64,689.04 2045.8,689.006 2047.97,688.972 2050.13,688.938 2052.29,688.904 2054.45,688.871 2056.61,688.837 2058.77,688.804 2060.94,688.771 2063.1,688.738 2065.26,688.706 2067.42,688.673 2069.58,688.641 2071.74,688.609 2073.91,688.577 2076.07,688.546 2078.23,688.514 2080.39,688.483 2082.55,688.452 2084.71,688.421 2086.88,688.39 2089.04,688.359 2091.2,688.329 2093.36,688.298 2095.52,688.268 2097.68,688.238 2099.85,688.209 2102.01,688.179 2104.17,688.15 2106.33,688.12 2108.49,688.091 2110.65,688.062 2112.82,688.033 2114.98,688.005 2117.14,687.976 2119.3,687.948 2121.46,687.92 2123.62,687.892 2125.78,687.864 2127.95,687.836 2130.11,687.809 2132.27,687.782 2134.43,687.754 2136.59,687.727 2138.75,687.701 2140.92,687.674 2143.08,687.647 2145.24,687.621 2147.4,687.595 2149.56,687.568 2151.72,687.542 2153.89,687.517 2156.05,687.491 2158.21,687.465 2160.37,687.44 2162.53,687.415 2164.69,687.39 2166.86,687.365 2169.02,687.34 2171.18,687.315 2173.34,687.291 2175.5,687.266 2177.66,687.242 2179.83,687.218 2181.99,687.194 2184.15,687.17 2186.31,687.146 2188.47,687.123 2190.63,687.099 2192.8,687.076 2194.96,687.053 2197.12,687.03 2199.28,687.007 2201.44,686.984 2203.6,686.961 2205.77,686.939 2207.93,686.917 2210.09,686.894 2212.25,686.872 2214.41,686.85 2216.57,686.828 2218.73,686.807 2220.9,686.785 2223.06,686.763 2225.22,686.742 2227.38,686.721 2229.54,686.7 2231.7,686.679 2233.87,686.658 2236.03,686.637 2238.19,686.616 2240.35,686.596 2242.51,686.575 2244.67,686.555 2246.84,686.535 2249,686.515 2251.16,686.495 2253.32,686.475 2255.48,686.455 2257.64,686.436 2259.81,686.416 2261.97,686.397 2264.13,686.377 2266.29,686.358 2268.45,686.339 2270.61,686.32 2272.78,686.301 2274.94,686.283 2277.1,686.264 2279.26,686.246 2281.42,686.227 2283.58,686.209 2285.75,686.191 2287.91,686.173 2290.07,686.155 2292.23,686.137 2294.39,686.119 2296.55,686.101 2298.72,686.084 2300.88,686.066 2303.04,686.049 2305.2,686.032 2307.36,686.014 2309.52,685.997 2311.68,685.98 2313.85,685.963 2316.01,685.947 2318.17,685.93 2320.33,685.913 2322.49,685.897 2324.65,685.881 2326.82,685.864 2328.98,685.848 2331.14,685.832 2333.3,685.816 2335.46,685.8 2337.62,685.784 2339.79,685.768 2341.95,685.753 2344.11,685.737 2346.27,685.722 2348.43,685.706 2350.59,685.691 2352.76,685.676 "/>
<path clip-path="url(#clip000)" d="M1805.43 248.629 L2280.77 248.629 L2280.77 93.1086 L1805.43 93.1086  Z" fill="#ffffff" fill-rule="evenodd" fill-opacity="1"/>
<polyline clip-path="url(#clip000)" style="stroke:#000000; stroke-linecap:round; stroke-linejoin:round; stroke-width:4; stroke-opacity:1; fill:none" points="1805.43,248.629 2280.77,248.629 2280.77,93.1086 1805.43,93.1086 1805.43,248.629 "/>
<polyline clip-path="url(#clip000)" style="stroke:#009af9; stroke-linecap:round; stroke-linejoin:round; stroke-width:4; stroke-opacity:1; fill:none" points="1829.42,144.949 1973.39,144.949 "/>
<path clip-path="url(#clip000)" d="M1997.38 136.303 L2001.9 136.303 L2010 158.062 L2018.1 136.303 L2022.61 136.303 L2012.89 162.229 L2007.1 162.229 L1997.38 136.303 Z" fill="#000000" fill-rule="nonzero" fill-opacity="1" /><path clip-path="url(#clip000)" d="M2029.91 158.293 L2037.54 158.293 L2037.54 131.928 L2029.23 133.595 L2029.23 129.335 L2037.5 127.669 L2042.17 127.669 L2042.17 158.293 L2049.81 158.293 L2049.81 162.229 L2029.91 162.229 L2029.91 158.293 Z" fill="#000000" fill-rule="nonzero" fill-opacity="1" /><path clip-path="url(#clip000)" d="M2067.91 145.585 L2067.91 152.807 L2076.04 152.807 L2076.04 155.006 L2067.91 155.006 L2067.91 162.229 L2065.48 162.229 L2065.48 155.006 L2057.36 155.006 L2057.36 152.807 L2065.48 152.807 L2065.48 145.585 L2067.91 145.585 Z" fill="#000000" fill-rule="nonzero" fill-opacity="1" /><path clip-path="url(#clip000)" d="M2100.21 137.067 L2100.21 141.094 Q2098.4 140.169 2096.46 139.706 Q2094.51 139.243 2092.43 139.243 Q2089.26 139.243 2087.66 140.215 Q2086.09 141.187 2086.09 143.131 Q2086.09 144.613 2087.22 145.469 Q2088.35 146.303 2091.78 147.067 L2093.24 147.391 Q2097.78 148.363 2099.67 150.145 Q2101.6 151.905 2101.6 155.076 Q2101.6 158.687 2098.72 160.793 Q2095.88 162.9 2090.88 162.9 Q2088.79 162.9 2086.53 162.483 Q2084.28 162.09 2081.78 161.28 L2081.78 156.881 Q2084.14 158.108 2086.43 158.733 Q2088.72 159.335 2090.97 159.335 Q2093.98 159.335 2095.6 158.317 Q2097.22 157.275 2097.22 155.4 Q2097.22 153.664 2096.04 152.738 Q2094.88 151.812 2090.92 150.956 L2089.44 150.608 Q2085.48 149.775 2083.72 148.062 Q2081.97 146.326 2081.97 143.317 Q2081.97 139.659 2084.56 137.669 Q2087.15 135.678 2091.92 135.678 Q2094.28 135.678 2096.36 136.025 Q2098.45 136.372 2100.21 137.067 Z" fill="#000000" fill-rule="nonzero" fill-opacity="1" /><path clip-path="url(#clip000)" d="M2112.59 128.942 L2112.59 136.303 L2121.36 136.303 L2121.36 139.613 L2112.59 139.613 L2112.59 153.687 Q2112.59 156.858 2113.45 157.761 Q2114.33 158.664 2116.99 158.664 L2121.36 158.664 L2121.36 162.229 L2116.99 162.229 Q2112.06 162.229 2110.18 160.4 Q2108.31 158.548 2108.31 153.687 L2108.31 139.613 L2105.18 139.613 L2105.18 136.303 L2108.31 136.303 L2108.31 128.942 L2112.59 128.942 Z" fill="#000000" fill-rule="nonzero" fill-opacity="1" /><path clip-path="url(#clip000)" d="M2137.01 139.289 Q2133.59 139.289 2131.6 141.974 Q2129.6 144.636 2129.6 149.289 Q2129.6 153.942 2131.57 156.627 Q2133.56 159.289 2137.01 159.289 Q2140.41 159.289 2142.41 156.604 Q2144.4 153.918 2144.4 149.289 Q2144.4 144.682 2142.41 141.997 Q2140.41 139.289 2137.01 139.289 M2137.01 135.678 Q2142.57 135.678 2145.74 139.289 Q2148.91 142.9 2148.91 149.289 Q2148.91 155.655 2145.74 159.289 Q2142.57 162.9 2137.01 162.9 Q2131.43 162.9 2128.26 159.289 Q2125.11 155.655 2125.11 149.289 Q2125.11 142.9 2128.26 139.289 Q2131.43 135.678 2137.01 135.678 Z" fill="#000000" fill-rule="nonzero" fill-opacity="1" /><path clip-path="url(#clip000)" d="M2170.99 140.284 Q2170.28 139.868 2169.42 139.682 Q2168.59 139.474 2167.57 139.474 Q2163.96 139.474 2162.01 141.835 Q2160.09 144.173 2160.09 148.571 L2160.09 162.229 L2155.81 162.229 L2155.81 136.303 L2160.09 136.303 L2160.09 140.331 Q2161.43 137.969 2163.59 136.835 Q2165.74 135.678 2168.82 135.678 Q2169.26 135.678 2169.79 135.747 Q2170.32 135.794 2170.97 135.909 L2170.99 140.284 Z" fill="#000000" fill-rule="nonzero" fill-opacity="1" /><path clip-path="url(#clip000)" d="M2187.24 149.196 Q2182.08 149.196 2180.09 150.377 Q2178.1 151.557 2178.1 154.405 Q2178.1 156.673 2179.58 158.016 Q2181.09 159.335 2183.65 159.335 Q2187.2 159.335 2189.33 156.835 Q2191.48 154.312 2191.48 150.145 L2191.48 149.196 L2187.24 149.196 M2195.74 147.437 L2195.74 162.229 L2191.48 162.229 L2191.48 158.293 Q2190.02 160.655 2187.84 161.789 Q2185.67 162.9 2182.52 162.9 Q2178.54 162.9 2176.18 160.678 Q2173.84 158.432 2173.84 154.682 Q2173.84 150.307 2176.76 148.085 Q2179.7 145.863 2185.51 145.863 L2191.48 145.863 L2191.48 145.446 Q2191.48 142.507 2189.53 140.909 Q2187.61 139.289 2184.12 139.289 Q2181.9 139.289 2179.79 139.821 Q2177.68 140.354 2175.74 141.419 L2175.74 137.483 Q2178.08 136.581 2180.28 136.141 Q2182.47 135.678 2184.56 135.678 Q2190.18 135.678 2192.96 138.594 Q2195.74 141.511 2195.74 147.437 Z" fill="#000000" fill-rule="nonzero" fill-opacity="1" /><path clip-path="url(#clip000)" d="M2221.57 148.965 Q2221.57 144.335 2219.65 141.789 Q2217.75 139.243 2214.3 139.243 Q2210.88 139.243 2208.96 141.789 Q2207.06 144.335 2207.06 148.965 Q2207.06 153.571 2208.96 156.118 Q2210.88 158.664 2214.3 158.664 Q2217.75 158.664 2219.65 156.118 Q2221.57 153.571 2221.57 148.965 M2225.83 159.011 Q2225.83 165.631 2222.89 168.849 Q2219.95 172.09 2213.89 172.09 Q2211.64 172.09 2209.65 171.742 Q2207.66 171.418 2205.78 170.724 L2205.78 166.58 Q2207.66 167.599 2209.49 168.085 Q2211.32 168.571 2213.21 168.571 Q2217.4 168.571 2219.49 166.372 Q2221.57 164.196 2221.57 159.775 L2221.57 157.668 Q2220.25 159.96 2218.19 161.094 Q2216.13 162.229 2213.26 162.229 Q2208.49 162.229 2205.58 158.594 Q2202.66 154.96 2202.66 148.965 Q2202.66 142.946 2205.58 139.312 Q2208.49 135.678 2213.26 135.678 Q2216.13 135.678 2218.19 136.812 Q2220.25 137.946 2221.57 140.238 L2221.57 136.303 L2225.83 136.303 L2225.83 159.011 Z" fill="#000000" fill-rule="nonzero" fill-opacity="1" /><path clip-path="url(#clip000)" d="M2256.78 148.201 L2256.78 150.284 L2237.2 150.284 Q2237.47 154.682 2239.84 156.997 Q2242.22 159.289 2246.46 159.289 Q2248.91 159.289 2251.2 158.687 Q2253.52 158.085 2255.78 156.881 L2255.78 160.909 Q2253.49 161.881 2251.09 162.391 Q2248.68 162.9 2246.2 162.9 Q2240 162.9 2236.36 159.289 Q2232.75 155.678 2232.75 149.52 Q2232.75 143.155 2236.18 139.428 Q2239.63 135.678 2245.46 135.678 Q2250.69 135.678 2253.72 139.057 Q2256.78 142.414 2256.78 148.201 M2252.52 146.951 Q2252.47 143.456 2250.55 141.372 Q2248.65 139.289 2245.51 139.289 Q2241.94 139.289 2239.79 141.303 Q2237.66 143.317 2237.34 146.974 L2252.52 146.951 Z" fill="#000000" fill-rule="nonzero" fill-opacity="1" /><polyline clip-path="url(#clip000)" style="stroke:#e26f46; stroke-linecap:round; stroke-linejoin:round; stroke-width:4; stroke-opacity:1; fill:none" points="1829.42,196.789 1973.39,196.789 "/>
<path clip-path="url(#clip000)" d="M1997.38 188.143 L2001.9 188.143 L2010 209.902 L2018.1 188.143 L2022.61 188.143 L2012.89 214.069 L2007.1 214.069 L1997.38 188.143 Z" fill="#000000" fill-rule="nonzero" fill-opacity="1" /><path clip-path="url(#clip000)" d="M2029.14 179.509 L2047.5 179.509 L2047.5 183.444 L2033.42 183.444 L2033.42 191.916 Q2034.44 191.569 2035.46 191.407 Q2036.48 191.222 2037.5 191.222 Q2043.29 191.222 2046.66 194.393 Q2050.04 197.564 2050.04 202.981 Q2050.04 208.559 2046.57 211.661 Q2043.1 214.74 2036.78 214.74 Q2034.6 214.74 2032.34 214.37 Q2030.09 213.999 2027.68 213.258 L2027.68 208.559 Q2029.77 209.694 2031.99 210.249 Q2034.21 210.805 2036.69 210.805 Q2040.69 210.805 2043.03 208.698 Q2045.37 206.592 2045.37 202.981 Q2045.37 199.37 2043.03 197.263 Q2040.69 195.157 2036.69 195.157 Q2034.81 195.157 2032.94 195.573 Q2031.09 195.99 2029.14 196.87 L2029.14 179.509 Z" fill="#000000" fill-rule="nonzero" fill-opacity="1" /><path clip-path="url(#clip000)" d="M2067.91 197.425 L2067.91 204.647 L2076.04 204.647 L2076.04 206.846 L2067.91 206.846 L2067.91 214.069 L2065.48 214.069 L2065.48 206.846 L2057.36 206.846 L2057.36 204.647 L2065.48 204.647 L2065.48 197.425 L2067.91 197.425 Z" fill="#000000" fill-rule="nonzero" fill-opacity="1" /><path clip-path="url(#clip000)" d="M2100.21 188.907 L2100.21 192.934 Q2098.4 192.009 2096.46 191.546 Q2094.51 191.083 2092.43 191.083 Q2089.26 191.083 2087.66 192.055 Q2086.09 193.027 2086.09 194.971 Q2086.09 196.453 2087.22 197.309 Q2088.35 198.143 2091.78 198.907 L2093.24 199.231 Q2097.78 200.203 2099.67 201.985 Q2101.6 203.745 2101.6 206.916 Q2101.6 210.527 2098.72 212.633 Q2095.88 214.74 2090.88 214.74 Q2088.79 214.74 2086.53 214.323 Q2084.28 213.93 2081.78 213.12 L2081.78 208.721 Q2084.14 209.948 2086.43 210.573 Q2088.72 211.175 2090.97 211.175 Q2093.98 211.175 2095.6 210.157 Q2097.22 209.115 2097.22 207.24 Q2097.22 205.504 2096.04 204.578 Q2094.88 203.652 2090.92 202.796 L2089.44 202.448 Q2085.48 201.615 2083.72 199.902 Q2081.97 198.166 2081.97 195.157 Q2081.97 191.499 2084.56 189.509 Q2087.15 187.518 2091.92 187.518 Q2094.28 187.518 2096.36 187.865 Q2098.45 188.212 2100.21 188.907 Z" fill="#000000" fill-rule="nonzero" fill-opacity="1" /><path clip-path="url(#clip000)" d="M2112.59 180.782 L2112.59 188.143 L2121.36 188.143 L2121.36 191.453 L2112.59 191.453 L2112.59 205.527 Q2112.59 208.698 2113.45 209.601 Q2114.33 210.504 2116.99 210.504 L2121.36 210.504 L2121.36 214.069 L2116.99 214.069 Q2112.06 214.069 2110.18 212.24 Q2108.31 210.388 2108.31 205.527 L2108.31 191.453 L2105.18 191.453 L2105.18 188.143 L2108.31 188.143 L2108.31 180.782 L2112.59 180.782 Z" fill="#000000" fill-rule="nonzero" fill-opacity="1" /><path clip-path="url(#clip000)" d="M2137.01 191.129 Q2133.59 191.129 2131.6 193.814 Q2129.6 196.476 2129.6 201.129 Q2129.6 205.782 2131.57 208.467 Q2133.56 211.129 2137.01 211.129 Q2140.41 211.129 2142.41 208.444 Q2144.4 205.758 2144.4 201.129 Q2144.4 196.522 2142.41 193.837 Q2140.41 191.129 2137.01 191.129 M2137.01 187.518 Q2142.57 187.518 2145.74 191.129 Q2148.91 194.74 2148.91 201.129 Q2148.91 207.495 2145.74 211.129 Q2142.57 214.74 2137.01 214.74 Q2131.43 214.74 2128.26 211.129 Q2125.11 207.495 2125.11 201.129 Q2125.11 194.74 2128.26 191.129 Q2131.43 187.518 2137.01 187.518 Z" fill="#000000" fill-rule="nonzero" fill-opacity="1" /><path clip-path="url(#clip000)" d="M2170.99 192.124 Q2170.28 191.708 2169.42 191.522 Q2168.59 191.314 2167.57 191.314 Q2163.96 191.314 2162.01 193.675 Q2160.09 196.013 2160.09 200.411 L2160.09 214.069 L2155.81 214.069 L2155.81 188.143 L2160.09 188.143 L2160.09 192.171 Q2161.43 189.809 2163.59 188.675 Q2165.74 187.518 2168.82 187.518 Q2169.26 187.518 2169.79 187.587 Q2170.32 187.634 2170.97 187.749 L2170.99 192.124 Z" fill="#000000" fill-rule="nonzero" fill-opacity="1" /><path clip-path="url(#clip000)" d="M2187.24 201.036 Q2182.08 201.036 2180.09 202.217 Q2178.1 203.397 2178.1 206.245 Q2178.1 208.513 2179.58 209.856 Q2181.09 211.175 2183.65 211.175 Q2187.2 211.175 2189.33 208.675 Q2191.48 206.152 2191.48 201.985 L2191.48 201.036 L2187.24 201.036 M2195.74 199.277 L2195.74 214.069 L2191.48 214.069 L2191.48 210.133 Q2190.02 212.495 2187.84 213.629 Q2185.67 214.74 2182.52 214.74 Q2178.54 214.74 2176.18 212.518 Q2173.84 210.272 2173.84 206.522 Q2173.84 202.147 2176.76 199.925 Q2179.7 197.703 2185.51 197.703 L2191.48 197.703 L2191.48 197.286 Q2191.48 194.347 2189.53 192.749 Q2187.61 191.129 2184.12 191.129 Q2181.9 191.129 2179.79 191.661 Q2177.68 192.194 2175.74 193.259 L2175.74 189.323 Q2178.08 188.421 2180.28 187.981 Q2182.47 187.518 2184.56 187.518 Q2190.18 187.518 2192.96 190.434 Q2195.74 193.351 2195.74 199.277 Z" fill="#000000" fill-rule="nonzero" fill-opacity="1" /><path clip-path="url(#clip000)" d="M2221.57 200.805 Q2221.57 196.175 2219.65 193.629 Q2217.75 191.083 2214.3 191.083 Q2210.88 191.083 2208.96 193.629 Q2207.06 196.175 2207.06 200.805 Q2207.06 205.411 2208.96 207.958 Q2210.88 210.504 2214.3 210.504 Q2217.75 210.504 2219.65 207.958 Q2221.57 205.411 2221.57 200.805 M2225.83 210.851 Q2225.83 217.471 2222.89 220.689 Q2219.95 223.93 2213.89 223.93 Q2211.64 223.93 2209.65 223.582 Q2207.66 223.258 2205.78 222.564 L2205.78 218.42 Q2207.66 219.439 2209.49 219.925 Q2211.32 220.411 2213.21 220.411 Q2217.4 220.411 2219.49 218.212 Q2221.57 216.036 2221.57 211.615 L2221.57 209.508 Q2220.25 211.8 2218.19 212.934 Q2216.13 214.069 2213.26 214.069 Q2208.49 214.069 2205.58 210.434 Q2202.66 206.8 2202.66 200.805 Q2202.66 194.786 2205.58 191.152 Q2208.49 187.518 2213.26 187.518 Q2216.13 187.518 2218.19 188.652 Q2220.25 189.786 2221.57 192.078 L2221.57 188.143 L2225.83 188.143 L2225.83 210.851 Z" fill="#000000" fill-rule="nonzero" fill-opacity="1" /><path clip-path="url(#clip000)" d="M2256.78 200.041 L2256.78 202.124 L2237.2 202.124 Q2237.47 206.522 2239.84 208.837 Q2242.22 211.129 2246.46 211.129 Q2248.91 211.129 2251.2 210.527 Q2253.52 209.925 2255.78 208.721 L2255.78 212.749 Q2253.49 213.721 2251.09 214.231 Q2248.68 214.74 2246.2 214.74 Q2240 214.74 2236.36 211.129 Q2232.75 207.518 2232.75 201.36 Q2232.75 194.995 2236.18 191.268 Q2239.63 187.518 2245.46 187.518 Q2250.69 187.518 2253.72 190.897 Q2256.78 194.254 2256.78 200.041 M2252.52 198.791 Q2252.47 195.296 2250.55 193.212 Q2248.65 191.129 2245.51 191.129 Q2241.94 191.129 2239.79 193.143 Q2237.66 195.157 2237.34 198.814 L2252.52 198.791 Z" fill="#000000" fill-rule="nonzero" fill-opacity="1" /></svg>
