<?xml version="1.0" encoding="utf-8"?>
<svg xmlns="http://www.w3.org/2000/svg" xmlns:xlink="http://www.w3.org/1999/xlink" width="600" height="400" viewBox="0 0 2400 1600">
<defs>
  <clipPath id="clip720">
    <rect x="0" y="0" width="2400" height="1600"/>
  </clipPath>
</defs>
<path clip-path="url(#clip720)" d="M0 1600 L2400 1600 L2400 0 L0 0  Z" fill="#ffffff" fill-rule="evenodd" fill-opacity="1"/>
<defs>
  <clipPath id="clip721">
    <rect x="480" y="0" width="1681" height="1600"/>
  </clipPath>
</defs>
<path clip-path="url(#clip720)" d="M192.709 1423.18 L2352.76 1423.18 L2352.76 47.2441 L192.709 47.2441  Z" fill="#ffffff" fill-rule="evenodd" fill-opacity="1"/>
<defs>
  <clipPath id="clip722">
    <rect x="192" y="47" width="2161" height="1377"/>
  </clipPath>
</defs>
<polyline clip-path="url(#clip722)" style="stroke:#000000; stroke-linecap:round; stroke-linejoin:round; stroke-width:2; stroke-opacity:0.1; fill:none" points="192.709,1423.18 192.709,47.2441 "/>
<polyline clip-path="url(#clip722)" style="stroke:#000000; stroke-linecap:round; stroke-linejoin:round; stroke-width:2; stroke-opacity:0.1; fill:none" points="732.721,1423.18 732.721,47.2441 "/>
<polyline clip-path="url(#clip722)" style="stroke:#000000; stroke-linecap:round; stroke-linejoin:round; stroke-width:2; stroke-opacity:0.1; fill:none" points="1272.73,1423.18 1272.73,47.2441 "/>
<polyline clip-path="url(#clip722)" style="stroke:#000000; stroke-linecap:round; stroke-linejoin:round; stroke-width:2; stroke-opacity:0.1; fill:none" points="1812.74,1423.18 1812.74,47.2441 "/>
<polyline clip-path="url(#clip722)" style="stroke:#000000; stroke-linecap:round; stroke-linejoin:round; stroke-width:2; stroke-opacity:0.1; fill:none" points="2352.76,1423.18 2352.76,47.2441 "/>
<polyline clip-path="url(#clip722)" style="stroke:#000000; stroke-linecap:round; stroke-linejoin:round; stroke-width:2; stroke-opacity:0.1; fill:none" points="192.709,1408.53 2352.76,1408.53 "/>
<polyline clip-path="url(#clip722)" style="stroke:#000000; stroke-linecap:round; stroke-linejoin:round; stroke-width:2; stroke-opacity:0.1; fill:none" points="192.709,1202.61 2352.76,1202.61 "/>
<polyline clip-path="url(#clip722)" style="stroke:#000000; stroke-linecap:round; stroke-linejoin:round; stroke-width:2; stroke-opacity:0.1; fill:none" points="192.709,996.679 2352.76,996.679 "/>
<polyline clip-path="url(#clip722)" style="stroke:#000000; stroke-linecap:round; stroke-linejoin:round; stroke-width:2; stroke-opacity:0.1; fill:none" points="192.709,790.751 2352.76,790.751 "/>
<polyline clip-path="url(#clip722)" style="stroke:#000000; stroke-linecap:round; stroke-linejoin:round; stroke-width:2; stroke-opacity:0.1; fill:none" points="192.709,584.824 2352.76,584.824 "/>
<polyline clip-path="url(#clip722)" style="stroke:#000000; stroke-linecap:round; stroke-linejoin:round; stroke-width:2; stroke-opacity:0.1; fill:none" points="192.709,378.896 2352.76,378.896 "/>
<polyline clip-path="url(#clip722)" style="stroke:#000000; stroke-linecap:round; stroke-linejoin:round; stroke-width:2; stroke-opacity:0.1; fill:none" points="192.709,172.969 2352.76,172.969 "/>
<polyline clip-path="url(#clip720)" style="stroke:#000000; stroke-linecap:round; stroke-linejoin:round; stroke-width:4; stroke-opacity:1; fill:none" points="192.709,1423.18 2352.76,1423.18 "/>
<polyline clip-path="url(#clip720)" style="stroke:#000000; stroke-linecap:round; stroke-linejoin:round; stroke-width:4; stroke-opacity:1; fill:none" points="192.709,1423.18 192.709,1404.28 "/>
<polyline clip-path="url(#clip720)" style="stroke:#000000; stroke-linecap:round; stroke-linejoin:round; stroke-width:4; stroke-opacity:1; fill:none" points="732.721,1423.18 732.721,1404.28 "/>
<polyline clip-path="url(#clip720)" style="stroke:#000000; stroke-linecap:round; stroke-linejoin:round; stroke-width:4; stroke-opacity:1; fill:none" points="1272.73,1423.18 1272.73,1404.28 "/>
<polyline clip-path="url(#clip720)" style="stroke:#000000; stroke-linecap:round; stroke-linejoin:round; stroke-width:4; stroke-opacity:1; fill:none" points="1812.74,1423.18 1812.74,1404.28 "/>
<polyline clip-path="url(#clip720)" style="stroke:#000000; stroke-linecap:round; stroke-linejoin:round; stroke-width:4; stroke-opacity:1; fill:none" points="2352.76,1423.18 2352.76,1404.28 "/>
<path clip-path="url(#clip720)" d="M170.094 1454.1 Q166.482 1454.1 164.654 1457.66 Q162.848 1461.2 162.848 1468.33 Q162.848 1475.44 164.654 1479.01 Q166.482 1482.55 170.094 1482.55 Q173.728 1482.55 175.533 1479.01 Q177.362 1475.44 177.362 1468.33 Q177.362 1461.2 175.533 1457.66 Q173.728 1454.1 170.094 1454.1 M170.094 1450.39 Q175.904 1450.39 178.959 1455 Q182.038 1459.58 182.038 1468.33 Q182.038 1477.06 178.959 1481.67 Q175.904 1486.25 170.094 1486.25 Q164.283 1486.25 161.205 1481.67 Q158.149 1477.06 158.149 1468.33 Q158.149 1459.58 161.205 1455 Q164.283 1450.39 170.094 1450.39 Z" fill="#000000" fill-rule="nonzero" fill-opacity="1" /><path clip-path="url(#clip720)" d="M190.255 1479.7 L195.14 1479.7 L195.14 1485.58 L190.255 1485.58 L190.255 1479.7 Z" fill="#000000" fill-rule="nonzero" fill-opacity="1" /><path clip-path="url(#clip720)" d="M215.325 1454.1 Q211.714 1454.1 209.885 1457.66 Q208.079 1461.2 208.079 1468.33 Q208.079 1475.44 209.885 1479.01 Q211.714 1482.55 215.325 1482.55 Q218.959 1482.55 220.765 1479.01 Q222.593 1475.44 222.593 1468.33 Q222.593 1461.2 220.765 1457.66 Q218.959 1454.1 215.325 1454.1 M215.325 1450.39 Q221.135 1450.39 224.19 1455 Q227.269 1459.58 227.269 1468.33 Q227.269 1477.06 224.19 1481.67 Q221.135 1486.25 215.325 1486.25 Q209.515 1486.25 206.436 1481.67 Q203.38 1477.06 203.38 1468.33 Q203.38 1459.58 206.436 1455 Q209.515 1450.39 215.325 1450.39 Z" fill="#000000" fill-rule="nonzero" fill-opacity="1" /><path clip-path="url(#clip720)" d="M710.603 1454.1 Q706.992 1454.1 705.163 1457.66 Q703.358 1461.2 703.358 1468.33 Q703.358 1475.44 705.163 1479.01 Q706.992 1482.55 710.603 1482.55 Q714.237 1482.55 716.043 1479.01 Q717.871 1475.44 717.871 1468.33 Q717.871 1461.2 716.043 1457.66 Q714.237 1454.1 710.603 1454.1 M710.603 1450.39 Q716.413 1450.39 719.469 1455 Q722.547 1459.58 722.547 1468.33 Q722.547 1477.06 719.469 1481.67 Q716.413 1486.25 710.603 1486.25 Q704.793 1486.25 701.714 1481.67 Q698.659 1477.06 698.659 1468.33 Q698.659 1459.58 701.714 1455 Q704.793 1450.39 710.603 1450.39 Z" fill="#000000" fill-rule="nonzero" fill-opacity="1" /><path clip-path="url(#clip720)" d="M730.765 1479.7 L735.649 1479.7 L735.649 1485.58 L730.765 1485.58 L730.765 1479.7 Z" fill="#000000" fill-rule="nonzero" fill-opacity="1" /><path clip-path="url(#clip720)" d="M745.88 1451.02 L764.237 1451.02 L764.237 1454.96 L750.163 1454.96 L750.163 1463.43 Q751.181 1463.08 752.2 1462.92 Q753.218 1462.73 754.237 1462.73 Q760.024 1462.73 763.404 1465.9 Q766.783 1469.08 766.783 1474.49 Q766.783 1480.07 763.311 1483.17 Q759.839 1486.25 753.519 1486.25 Q751.343 1486.25 749.075 1485.88 Q746.83 1485.51 744.422 1484.77 L744.422 1480.07 Q746.505 1481.2 748.728 1481.76 Q750.95 1482.32 753.427 1482.32 Q757.431 1482.32 759.769 1480.21 Q762.107 1478.1 762.107 1474.49 Q762.107 1470.88 759.769 1468.77 Q757.431 1466.67 753.427 1466.67 Q751.552 1466.67 749.677 1467.08 Q747.825 1467.5 745.88 1468.38 L745.88 1451.02 Z" fill="#000000" fill-rule="nonzero" fill-opacity="1" /><path clip-path="url(#clip720)" d="M1239.89 1481.64 L1247.52 1481.64 L1247.52 1455.28 L1239.21 1456.95 L1239.21 1452.69 L1247.48 1451.02 L1252.15 1451.02 L1252.15 1481.64 L1259.79 1481.64 L1259.79 1485.58 L1239.89 1485.58 L1239.89 1481.64 Z" fill="#000000" fill-rule="nonzero" fill-opacity="1" /><path clip-path="url(#clip720)" d="M1269.24 1479.7 L1274.12 1479.7 L1274.12 1485.58 L1269.24 1485.58 L1269.24 1479.7 Z" fill="#000000" fill-rule="nonzero" fill-opacity="1" /><path clip-path="url(#clip720)" d="M1294.31 1454.1 Q1290.7 1454.1 1288.87 1457.66 Q1287.06 1461.2 1287.06 1468.33 Q1287.06 1475.44 1288.87 1479.01 Q1290.7 1482.55 1294.31 1482.55 Q1297.94 1482.55 1299.75 1479.01 Q1301.57 1475.44 1301.57 1468.33 Q1301.57 1461.2 1299.75 1457.66 Q1297.94 1454.1 1294.31 1454.1 M1294.31 1450.39 Q1300.12 1450.39 1303.17 1455 Q1306.25 1459.58 1306.25 1468.33 Q1306.25 1477.06 1303.17 1481.67 Q1300.12 1486.25 1294.31 1486.25 Q1288.5 1486.25 1285.42 1481.67 Q1282.36 1477.06 1282.36 1468.33 Q1282.36 1459.58 1285.42 1455 Q1288.5 1450.39 1294.31 1450.39 Z" fill="#000000" fill-rule="nonzero" fill-opacity="1" /><path clip-path="url(#clip720)" d="M1780.39 1481.64 L1788.03 1481.64 L1788.03 1455.28 L1779.72 1456.95 L1779.72 1452.69 L1787.99 1451.02 L1792.66 1451.02 L1792.66 1481.64 L1800.3 1481.64 L1800.3 1485.58 L1780.39 1485.58 L1780.39 1481.64 Z" fill="#000000" fill-rule="nonzero" fill-opacity="1" /><path clip-path="url(#clip720)" d="M1809.75 1479.7 L1814.63 1479.7 L1814.63 1485.58 L1809.75 1485.58 L1809.75 1479.7 Z" fill="#000000" fill-rule="nonzero" fill-opacity="1" /><path clip-path="url(#clip720)" d="M1824.86 1451.02 L1843.22 1451.02 L1843.22 1454.96 L1829.14 1454.96 L1829.14 1463.43 Q1830.16 1463.08 1831.18 1462.92 Q1832.2 1462.73 1833.22 1462.73 Q1839.01 1462.73 1842.39 1465.9 Q1845.76 1469.08 1845.76 1474.49 Q1845.76 1480.07 1842.29 1483.17 Q1838.82 1486.25 1832.5 1486.25 Q1830.33 1486.25 1828.06 1485.88 Q1825.81 1485.51 1823.4 1484.77 L1823.4 1480.07 Q1825.49 1481.2 1827.71 1481.76 Q1829.93 1482.32 1832.41 1482.32 Q1836.41 1482.32 1838.75 1480.21 Q1841.09 1478.1 1841.09 1474.49 Q1841.09 1470.88 1838.75 1468.77 Q1836.41 1466.67 1832.41 1466.67 Q1830.53 1466.67 1828.66 1467.08 Q1826.81 1467.5 1824.86 1468.38 L1824.86 1451.02 Z" fill="#000000" fill-rule="nonzero" fill-opacity="1" /><path clip-path="url(#clip720)" d="M2323.99 1481.64 L2340.31 1481.64 L2340.31 1485.58 L2318.37 1485.58 L2318.37 1481.64 Q2321.03 1478.89 2325.61 1474.26 Q2330.22 1469.61 2331.4 1468.27 Q2333.65 1465.74 2334.53 1464.01 Q2335.43 1462.25 2335.43 1460.56 Q2335.43 1457.8 2333.49 1456.07 Q2331.56 1454.33 2328.46 1454.33 Q2326.26 1454.33 2323.81 1455.09 Q2321.38 1455.86 2318.6 1457.41 L2318.6 1452.69 Q2321.43 1451.55 2323.88 1450.97 Q2326.33 1450.39 2328.37 1450.39 Q2333.74 1450.39 2336.93 1453.08 Q2340.13 1455.77 2340.13 1460.26 Q2340.13 1462.39 2339.32 1464.31 Q2338.53 1466.2 2336.42 1468.8 Q2335.85 1469.47 2332.74 1472.69 Q2329.64 1475.88 2323.99 1481.64 Z" fill="#000000" fill-rule="nonzero" fill-opacity="1" /><path clip-path="url(#clip720)" d="M2350.13 1479.7 L2355.01 1479.7 L2355.01 1485.58 L2350.13 1485.58 L2350.13 1479.7 Z" fill="#000000" fill-rule="nonzero" fill-opacity="1" /><path clip-path="url(#clip720)" d="M2375.2 1454.1 Q2371.59 1454.1 2369.76 1457.66 Q2367.95 1461.2 2367.95 1468.33 Q2367.95 1475.44 2369.76 1479.01 Q2371.59 1482.55 2375.2 1482.55 Q2378.83 1482.55 2380.64 1479.01 Q2382.47 1475.44 2382.47 1468.33 Q2382.47 1461.2 2380.64 1457.66 Q2378.83 1454.1 2375.2 1454.1 M2375.2 1450.39 Q2381.01 1450.39 2384.06 1455 Q2387.14 1459.58 2387.14 1468.33 Q2387.14 1477.06 2384.06 1481.67 Q2381.01 1486.25 2375.2 1486.25 Q2369.39 1486.25 2366.31 1481.67 Q2363.25 1477.06 2363.25 1468.33 Q2363.25 1459.58 2366.31 1455 Q2369.39 1450.39 2375.2 1450.39 Z" fill="#000000" fill-rule="nonzero" fill-opacity="1" /><path clip-path="url(#clip720)" d="M1271.79 1522.27 L1271.79 1532.4 L1283.86 1532.4 L1283.86 1536.95 L1271.79 1536.95 L1271.79 1556.3 Q1271.79 1560.66 1272.97 1561.9 Q1274.18 1563.14 1277.84 1563.14 L1283.86 1563.14 L1283.86 1568.04 L1277.84 1568.04 Q1271.06 1568.04 1268.48 1565.53 Q1265.91 1562.98 1265.91 1556.3 L1265.91 1536.95 L1261.61 1536.95 L1261.61 1532.4 L1265.91 1532.4 L1265.91 1522.27 L1271.79 1522.27 Z" fill="#000000" fill-rule="nonzero" fill-opacity="1" /><polyline clip-path="url(#clip720)" style="stroke:#000000; stroke-linecap:round; stroke-linejoin:round; stroke-width:4; stroke-opacity:1; fill:none" points="192.709,1423.18 192.709,47.2441 "/>
<polyline clip-path="url(#clip720)" style="stroke:#000000; stroke-linecap:round; stroke-linejoin:round; stroke-width:4; stroke-opacity:1; fill:none" points="192.709,1408.53 211.607,1408.53 "/>
<polyline clip-path="url(#clip720)" style="stroke:#000000; stroke-linecap:round; stroke-linejoin:round; stroke-width:4; stroke-opacity:1; fill:none" points="192.709,1202.61 211.607,1202.61 "/>
<polyline clip-path="url(#clip720)" style="stroke:#000000; stroke-linecap:round; stroke-linejoin:round; stroke-width:4; stroke-opacity:1; fill:none" points="192.709,996.679 211.607,996.679 "/>
<polyline clip-path="url(#clip720)" style="stroke:#000000; stroke-linecap:round; stroke-linejoin:round; stroke-width:4; stroke-opacity:1; fill:none" points="192.709,790.751 211.607,790.751 "/>
<polyline clip-path="url(#clip720)" style="stroke:#000000; stroke-linecap:round; stroke-linejoin:round; stroke-width:4; stroke-opacity:1; fill:none" points="192.709,584.824 211.607,584.824 "/>
<polyline clip-path="url(#clip720)" style="stroke:#000000; stroke-linecap:round; stroke-linejoin:round; stroke-width:4; stroke-opacity:1; fill:none" points="192.709,378.896 211.607,378.896 "/>
<polyline clip-path="url(#clip720)" style="stroke:#000000; stroke-linecap:round; stroke-linejoin:round; stroke-width:4; stroke-opacity:1; fill:none" points="192.709,172.969 211.607,172.969 "/>
<path clip-path="url(#clip720)" d="M50.9921 1408.98 L80.6679 1408.98 L80.6679 1412.92 L50.9921 1412.92 L50.9921 1408.98 Z" fill="#000000" fill-rule="nonzero" fill-opacity="1" /><path clip-path="url(#clip720)" d="M100.76 1394.33 Q97.1493 1394.33 95.3206 1397.9 Q93.515 1401.44 93.515 1408.57 Q93.515 1415.67 95.3206 1419.24 Q97.1493 1422.78 100.76 1422.78 Q104.395 1422.78 106.2 1419.24 Q108.029 1415.67 108.029 1408.57 Q108.029 1401.44 106.2 1397.9 Q104.395 1394.33 100.76 1394.33 M100.76 1390.63 Q106.571 1390.63 109.626 1395.23 Q112.705 1399.82 112.705 1408.57 Q112.705 1417.3 109.626 1421.9 Q106.571 1426.48 100.76 1426.48 Q94.9502 1426.48 91.8715 1421.9 Q88.816 1417.3 88.816 1408.57 Q88.816 1399.82 91.8715 1395.23 Q94.9502 1390.63 100.76 1390.63 Z" fill="#000000" fill-rule="nonzero" fill-opacity="1" /><path clip-path="url(#clip720)" d="M120.922 1419.93 L125.807 1419.93 L125.807 1425.81 L120.922 1425.81 L120.922 1419.93 Z" fill="#000000" fill-rule="nonzero" fill-opacity="1" /><path clip-path="url(#clip720)" d="M136.802 1421.88 L144.441 1421.88 L144.441 1395.51 L136.131 1397.18 L136.131 1392.92 L144.394 1391.25 L149.07 1391.25 L149.07 1421.88 L156.709 1421.88 L156.709 1425.81 L136.802 1425.81 L136.802 1421.88 Z" fill="#000000" fill-rule="nonzero" fill-opacity="1" /><path clip-path="url(#clip720)" d="M99.5335 1188.4 Q95.9224 1188.4 94.0937 1191.97 Q92.2882 1195.51 92.2882 1202.64 Q92.2882 1209.75 94.0937 1213.31 Q95.9224 1216.85 99.5335 1216.85 Q103.168 1216.85 104.973 1213.31 Q106.802 1209.75 106.802 1202.64 Q106.802 1195.51 104.973 1191.97 Q103.168 1188.4 99.5335 1188.4 M99.5335 1184.7 Q105.344 1184.7 108.399 1189.31 Q111.478 1193.89 111.478 1202.64 Q111.478 1211.37 108.399 1215.97 Q105.344 1220.56 99.5335 1220.56 Q93.7234 1220.56 90.6447 1215.97 Q87.5892 1211.37 87.5892 1202.64 Q87.5892 1193.89 90.6447 1189.31 Q93.7234 1184.7 99.5335 1184.7 Z" fill="#000000" fill-rule="nonzero" fill-opacity="1" /><path clip-path="url(#clip720)" d="M119.695 1214.01 L124.58 1214.01 L124.58 1219.89 L119.695 1219.89 L119.695 1214.01 Z" fill="#000000" fill-rule="nonzero" fill-opacity="1" /><path clip-path="url(#clip720)" d="M144.765 1188.4 Q141.154 1188.4 139.325 1191.97 Q137.519 1195.51 137.519 1202.64 Q137.519 1209.75 139.325 1213.31 Q141.154 1216.85 144.765 1216.85 Q148.399 1216.85 150.205 1213.31 Q152.033 1209.75 152.033 1202.64 Q152.033 1195.51 150.205 1191.97 Q148.399 1188.4 144.765 1188.4 M144.765 1184.7 Q150.575 1184.7 153.63 1189.31 Q156.709 1193.89 156.709 1202.64 Q156.709 1211.37 153.63 1215.97 Q150.575 1220.56 144.765 1220.56 Q138.955 1220.56 135.876 1215.97 Q132.82 1211.37 132.82 1202.64 Q132.82 1193.89 135.876 1189.31 Q138.955 1184.7 144.765 1184.7 Z" fill="#000000" fill-rule="nonzero" fill-opacity="1" /><path clip-path="url(#clip720)" d="M100.76 982.477 Q97.1493 982.477 95.3206 986.042 Q93.515 989.584 93.515 996.713 Q93.515 1003.82 95.3206 1007.38 Q97.1493 1010.93 100.76 1010.93 Q104.395 1010.93 106.2 1007.38 Q108.029 1003.82 108.029 996.713 Q108.029 989.584 106.2 986.042 Q104.395 982.477 100.76 982.477 M100.76 978.774 Q106.571 978.774 109.626 983.38 Q112.705 987.963 112.705 996.713 Q112.705 1005.44 109.626 1010.05 Q106.571 1014.63 100.76 1014.63 Q94.9502 1014.63 91.8715 1010.05 Q88.816 1005.44 88.816 996.713 Q88.816 987.963 91.8715 983.38 Q94.9502 978.774 100.76 978.774 Z" fill="#000000" fill-rule="nonzero" fill-opacity="1" /><path clip-path="url(#clip720)" d="M120.922 1008.08 L125.807 1008.08 L125.807 1013.96 L120.922 1013.96 L120.922 1008.08 Z" fill="#000000" fill-rule="nonzero" fill-opacity="1" /><path clip-path="url(#clip720)" d="M136.802 1010.02 L144.441 1010.02 L144.441 983.658 L136.131 985.325 L136.131 981.065 L144.394 979.399 L149.07 979.399 L149.07 1010.02 L156.709 1010.02 L156.709 1013.96 L136.802 1013.96 L136.802 1010.02 Z" fill="#000000" fill-rule="nonzero" fill-opacity="1" /><path clip-path="url(#clip720)" d="M101.131 776.55 Q97.5197 776.55 95.691 780.115 Q93.8854 783.656 93.8854 790.786 Q93.8854 797.892 95.691 801.457 Q97.5197 804.999 101.131 804.999 Q104.765 804.999 106.571 801.457 Q108.399 797.892 108.399 790.786 Q108.399 783.656 106.571 780.115 Q104.765 776.55 101.131 776.55 M101.131 772.846 Q106.941 772.846 109.996 777.453 Q113.075 782.036 113.075 790.786 Q113.075 799.513 109.996 804.119 Q106.941 808.703 101.131 808.703 Q95.3206 808.703 92.2419 804.119 Q89.1864 799.513 89.1864 790.786 Q89.1864 782.036 92.2419 777.453 Q95.3206 772.846 101.131 772.846 Z" fill="#000000" fill-rule="nonzero" fill-opacity="1" /><path clip-path="url(#clip720)" d="M121.293 802.152 L126.177 802.152 L126.177 808.031 L121.293 808.031 L121.293 802.152 Z" fill="#000000" fill-rule="nonzero" fill-opacity="1" /><path clip-path="url(#clip720)" d="M140.39 804.096 L156.709 804.096 L156.709 808.031 L134.765 808.031 L134.765 804.096 Q137.427 801.341 142.01 796.712 Q146.617 792.059 147.797 790.717 Q150.043 788.193 150.922 786.457 Q151.825 784.698 151.825 783.008 Q151.825 780.254 149.88 778.518 Q147.959 776.781 144.857 776.781 Q142.658 776.781 140.205 777.545 Q137.774 778.309 134.996 779.86 L134.996 775.138 Q137.82 774.004 140.274 773.425 Q142.728 772.846 144.765 772.846 Q150.135 772.846 153.33 775.531 Q156.524 778.217 156.524 782.707 Q156.524 784.837 155.714 786.758 Q154.927 788.656 152.82 791.249 Q152.242 791.92 149.14 795.138 Q146.038 798.332 140.39 804.096 Z" fill="#000000" fill-rule="nonzero" fill-opacity="1" /><path clip-path="url(#clip720)" d="M100.182 570.623 Q96.5706 570.623 94.7419 574.187 Q92.9363 577.729 92.9363 584.859 Q92.9363 591.965 94.7419 595.53 Q96.5706 599.071 100.182 599.071 Q103.816 599.071 105.621 595.53 Q107.45 591.965 107.45 584.859 Q107.45 577.729 105.621 574.187 Q103.816 570.623 100.182 570.623 M100.182 566.919 Q105.992 566.919 109.047 571.525 Q112.126 576.109 112.126 584.859 Q112.126 593.585 109.047 598.192 Q105.992 602.775 100.182 602.775 Q94.3715 602.775 91.2928 598.192 Q88.2373 593.585 88.2373 584.859 Q88.2373 576.109 91.2928 571.525 Q94.3715 566.919 100.182 566.919 Z" fill="#000000" fill-rule="nonzero" fill-opacity="1" /><path clip-path="url(#clip720)" d="M120.344 596.224 L125.228 596.224 L125.228 602.104 L120.344 602.104 L120.344 596.224 Z" fill="#000000" fill-rule="nonzero" fill-opacity="1" /><path clip-path="url(#clip720)" d="M149.58 583.47 Q152.936 584.187 154.811 586.456 Q156.709 588.724 156.709 592.058 Q156.709 597.173 153.191 599.974 Q149.672 602.775 143.191 602.775 Q141.015 602.775 138.7 602.335 Q136.408 601.919 133.955 601.062 L133.955 596.548 Q135.899 597.683 138.214 598.261 Q140.529 598.84 143.052 598.84 Q147.45 598.84 149.742 597.104 Q152.056 595.368 152.056 592.058 Q152.056 589.002 149.904 587.289 Q147.774 585.553 143.955 585.553 L139.927 585.553 L139.927 581.71 L144.14 581.71 Q147.589 581.71 149.418 580.345 Q151.246 578.956 151.246 576.363 Q151.246 573.701 149.348 572.289 Q147.473 570.854 143.955 570.854 Q142.033 570.854 139.834 571.271 Q137.635 571.687 134.996 572.567 L134.996 568.4 Q137.658 567.66 139.973 567.289 Q142.311 566.919 144.371 566.919 Q149.695 566.919 152.797 569.349 Q155.899 571.757 155.899 575.877 Q155.899 578.748 154.255 580.738 Q152.612 582.706 149.58 583.47 Z" fill="#000000" fill-rule="nonzero" fill-opacity="1" /><path clip-path="url(#clip720)" d="M99.0474 364.695 Q95.4363 364.695 93.6076 368.26 Q91.8021 371.802 91.8021 378.931 Q91.8021 386.038 93.6076 389.602 Q95.4363 393.144 99.0474 393.144 Q102.682 393.144 104.487 389.602 Q106.316 386.038 106.316 378.931 Q106.316 371.802 104.487 368.26 Q102.682 364.695 99.0474 364.695 M99.0474 360.991 Q104.858 360.991 107.913 365.598 Q110.992 370.181 110.992 378.931 Q110.992 387.658 107.913 392.264 Q104.858 396.848 99.0474 396.848 Q93.2373 396.848 90.1586 392.264 Q87.103 387.658 87.103 378.931 Q87.103 370.181 90.1586 365.598 Q93.2373 360.991 99.0474 360.991 Z" fill="#000000" fill-rule="nonzero" fill-opacity="1" /><path clip-path="url(#clip720)" d="M119.209 390.297 L124.094 390.297 L124.094 396.176 L119.209 396.176 L119.209 390.297 Z" fill="#000000" fill-rule="nonzero" fill-opacity="1" /><path clip-path="url(#clip720)" d="M147.126 365.69 L135.32 384.139 L147.126 384.139 L147.126 365.69 M145.899 361.616 L151.779 361.616 L151.779 384.139 L156.709 384.139 L156.709 388.028 L151.779 388.028 L151.779 396.176 L147.126 396.176 L147.126 388.028 L131.524 388.028 L131.524 383.514 L145.899 361.616 Z" fill="#000000" fill-rule="nonzero" fill-opacity="1" /><path clip-path="url(#clip720)" d="M100.529 158.768 Q96.9178 158.768 95.0891 162.333 Q93.2836 165.874 93.2836 173.004 Q93.2836 180.11 95.0891 183.675 Q96.9178 187.217 100.529 187.217 Q104.163 187.217 105.969 183.675 Q107.797 180.11 107.797 173.004 Q107.797 165.874 105.969 162.333 Q104.163 158.768 100.529 158.768 M100.529 155.064 Q106.339 155.064 109.395 159.67 Q112.473 164.254 112.473 173.004 Q112.473 181.731 109.395 186.337 Q106.339 190.92 100.529 190.92 Q94.7187 190.92 91.6401 186.337 Q88.5845 181.731 88.5845 173.004 Q88.5845 164.254 91.6401 159.67 Q94.7187 155.064 100.529 155.064 Z" fill="#000000" fill-rule="nonzero" fill-opacity="1" /><path clip-path="url(#clip720)" d="M120.691 184.369 L125.575 184.369 L125.575 190.249 L120.691 190.249 L120.691 184.369 Z" fill="#000000" fill-rule="nonzero" fill-opacity="1" /><path clip-path="url(#clip720)" d="M135.806 155.689 L154.163 155.689 L154.163 159.624 L140.089 159.624 L140.089 168.096 Q141.107 167.749 142.126 167.587 Q143.144 167.402 144.163 167.402 Q149.95 167.402 153.33 170.573 Q156.709 173.744 156.709 179.161 Q156.709 184.74 153.237 187.842 Q149.765 190.92 143.445 190.92 Q141.269 190.92 139.001 190.55 Q136.756 190.18 134.348 189.439 L134.348 184.74 Q136.431 185.874 138.654 186.43 Q140.876 186.985 143.353 186.985 Q147.357 186.985 149.695 184.879 Q152.033 182.772 152.033 179.161 Q152.033 175.55 149.695 173.444 Q147.357 171.337 143.353 171.337 Q141.478 171.337 139.603 171.754 Q137.751 172.17 135.806 173.05 L135.806 155.689 Z" fill="#000000" fill-rule="nonzero" fill-opacity="1" /><polyline clip-path="url(#clip722)" style="stroke:#009af9; stroke-linecap:round; stroke-linejoin:round; stroke-width:4; stroke-opacity:1; fill:none" points="192.709,1384.24 194.871,1371.31 197.034,1358.51 199.196,1345.84 201.358,1333.29 203.52,1320.87 205.682,1308.57 207.845,1296.39 210.007,1284.34 212.169,1272.4 214.331,1260.59 216.493,1248.89 218.656,1237.31 220.818,1225.84 222.98,1214.49 225.142,1203.25 227.304,1192.13 229.467,1181.11 231.629,1170.2 233.791,1159.41 235.953,1148.72 238.116,1138.13 240.278,1127.65 242.44,1117.28 244.602,1107.01 246.764,1096.84 248.927,1086.78 251.089,1076.81 253.251,1066.94 255.413,1057.17 257.575,1047.5 259.738,1037.92 261.9,1028.44 264.062,1019.06 266.224,1009.77 268.386,1000.57 270.549,991.46 272.711,982.442 274.873,973.515 277.035,964.676 279.198,955.926 281.36,947.263 283.522,938.686 285.684,930.194 287.846,921.787 290.009,913.464 292.171,905.223 294.333,897.065 296.495,888.988 298.657,880.991 300.82,873.074 302.982,865.236 305.144,857.476 307.306,849.793 309.468,842.186 311.631,834.656 313.793,827.2 315.955,819.819 318.117,812.511 320.279,805.276 322.442,798.113 324.604,791.022 326.766,784.001 328.928,777.05 331.091,770.168 333.253,763.355 335.415,756.61 337.577,749.932 339.739,743.32 341.902,736.775 344.064,730.294 346.226,723.878 348.388,717.526 350.55,711.237 352.713,705.011 354.875,698.847 357.037,692.744 359.199,686.702 361.361,680.72 363.524,674.798 365.686,668.935 367.848,663.13 370.01,657.383 372.172,651.693 374.335,646.06 376.497,640.482 378.659,634.961 380.821,629.494 382.984,624.082 385.146,618.723 387.308,613.418 389.47,608.166 391.632,602.966 393.795,597.818 395.957,592.722 398.119,587.676 400.281,582.68 402.443,577.734 404.606,572.838 406.768,567.99 408.93,563.19 411.092,558.439 413.254,553.734 415.417,549.077 417.579,544.466 419.741,539.901 421.903,535.381 424.066,530.907 426.228,526.477 428.39,522.091 430.552,517.749 432.714,513.45 434.877,509.194 437.039,504.98 439.201,500.809 441.363,496.678 443.525,492.589 445.688,488.541 447.85,484.533 450.012,480.565 452.174,476.636 454.336,472.747 456.499,468.896 458.661,465.083 460.823,461.309 462.985,457.572 465.147,453.872 467.31,450.209 469.472,446.582 471.634,442.992 473.796,439.437 475.959,435.917 478.121,432.433 480.283,428.983 482.445,425.568 484.607,422.187 486.77,418.839 488.932,415.525 491.094,412.244 493.256,408.995 495.418,405.779 497.581,402.595 499.743,399.443 501.905,396.322 504.067,393.232 506.229,390.173 508.392,387.145 510.554,384.146 512.716,381.178 514.878,378.239 517.04,375.33 519.203,372.449 521.365,369.598 523.527,366.774 525.689,363.979 527.852,361.212 530.014,358.472 532.176,355.76 534.338,353.074 536.5,350.416 538.663,347.784 540.825,345.178 542.987,342.598 545.149,340.044 547.311,337.515 549.474,335.011 551.636,332.532 553.798,330.078 555.96,327.649 558.122,325.243 560.285,322.862 562.447,320.504 564.609,318.17 566.771,315.859 568.934,313.57 571.096,311.305 573.258,309.062 575.42,306.842 577.582,304.643 579.745,302.466 581.907,300.311 584.069,298.178 586.231,296.065 588.393,293.974 590.556,291.903 592.718,289.853 594.88,287.823 597.042,285.814 599.204,283.824 601.367,281.854 603.529,279.904 605.691,277.974 607.853,276.062 610.015,274.17 612.178,272.297 614.34,270.442 616.502,268.606 618.664,266.788 620.827,264.988 622.989,263.206 625.151,261.442 627.313,259.696 629.475,257.967 631.638,256.255 633.8,254.56 635.962,252.882 638.124,251.221 640.286,249.577 642.449,247.949 644.611,246.337 646.773,244.742 648.935,243.162 651.097,241.598 653.26,240.05 655.422,238.517 657.584,236.999 659.746,235.497 661.908,234.009 664.071,232.537 666.233,231.079 668.395,229.635 670.557,228.206 672.72,226.792 674.882,225.391 677.044,224.004 679.206,222.631 681.368,221.272 683.531,219.926 685.693,218.594 687.855,217.275 690.017,215.969 692.179,214.676 694.342,213.396 696.504,212.129 698.666,210.874 700.828,209.631 702.99,208.401 705.153,207.184 707.315,205.978 709.477,204.784 711.639,203.602 713.802,202.432 715.964,201.274 718.126,200.126 720.288,198.991 722.45,197.866 724.613,196.753 726.775,195.65 728.937,194.559 731.099,193.478 733.261,192.408 735.424,191.349 737.586,190.3 739.748,189.262 741.91,188.234 744.072,187.216 746.235,186.209 748.397,185.211 750.559,184.224 752.721,183.246 754.883,182.278 757.046,181.32 759.208,180.371 761.37,179.432 763.532,178.502 765.695,177.581 767.857,176.67 770.019,175.767 772.181,174.874 774.343,173.99 776.506,173.114 778.668,172.248 780.83,171.39 782.992,170.54 785.154,169.699 787.317,168.867 789.479,168.043 791.641,167.227 793.803,166.419 795.965,165.619 798.128,164.828 800.29,164.044 802.452,163.268 804.614,162.5 806.776,161.74 808.939,160.987 811.101,160.241 813.263,159.504 815.425,158.773 817.588,158.05 819.75,157.334 821.912,156.625 824.074,155.923 826.236,155.229 828.399,154.541 830.561,153.86 832.723,153.186 834.885,152.518 837.047,151.857 839.21,151.203 841.372,150.556 843.534,149.914 845.696,149.279 847.858,148.651 850.021,148.029 852.183,147.412 854.345,146.802 856.507,146.198 858.67,145.6 860.832,145.008 862.994,144.422 865.156,143.842 867.318,143.267 869.481,142.698 871.643,142.134 873.805,141.577 875.967,141.024 878.129,140.477 880.292,139.936 882.454,139.4 884.616,138.869 886.778,138.343 888.94,137.822 891.103,137.307 893.265,136.797 895.427,136.291 897.589,135.791 899.751,135.296 901.914,134.805 904.076,134.32 906.238,133.839 908.4,133.363 910.563,132.892 912.725,132.425 914.887,131.963 917.049,131.506 919.211,131.053 921.374,130.605 923.536,130.161 925.698,129.722 927.86,129.287 930.022,128.856 932.185,128.43 934.347,128.008 936.509,127.59 938.671,127.177 940.833,126.767 942.996,126.362 945.158,125.961 947.32,125.564 949.482,125.171 951.644,124.781 953.807,124.396 955.969,124.014 958.131,123.637 960.293,123.263 962.456,122.893 964.618,122.527 966.78,122.164 968.942,121.805 971.104,121.45 973.267,121.098 975.429,120.749 977.591,120.405 979.753,120.063 981.915,119.725 984.078,119.391 986.24,119.06 988.402,118.732 990.564,118.408 992.726,118.086 994.889,117.768 997.051,117.454 999.213,117.142 1001.38,116.834 1003.54,116.528 1005.7,116.226 1007.86,115.926 1010.02,115.63 1012.19,115.337 1014.35,115.046 1016.51,114.759 1018.67,114.474 1020.84,114.192 1023,113.913 1025.16,113.637 1027.32,113.364 1029.48,113.093 1031.65,112.825 1033.81,112.56 1035.97,112.297 1038.13,112.037 1040.3,111.779 1042.46,111.524 1044.62,111.271 1046.78,111.021 1048.94,110.774 1051.11,110.529 1053.27,110.286 1055.43,110.046 1057.59,109.808 1059.75,109.572 1061.92,109.338 1064.08,109.107 1066.24,108.879 1068.4,108.652 1070.57,108.427 1072.73,108.205 1074.89,107.985 1077.05,107.767 1079.21,107.551 1081.38,107.337 1083.54,107.126 1085.7,106.916 1087.86,106.709 1090.03,106.503 1092.19,106.3 1094.35,106.098 1096.51,105.898 1098.67,105.701 1100.84,105.505 1103,105.312 1105.16,105.12 1107.32,104.93 1109.49,104.742 1111.65,104.556 1113.81,104.371 1115.97,104.189 1118.13,104.008 1120.3,103.829 1122.46,103.652 1124.62,103.477 1126.78,103.304 1128.95,103.132 1131.11,102.962 1133.27,102.793 1135.43,102.627 1137.59,102.462 1139.76,102.298 1141.92,102.137 1144.08,101.977 1146.24,101.818 1148.41,101.662 1150.57,101.506 1152.73,101.353 1154.89,101.201 1157.05,101.05 1159.22,100.901 1161.38,100.753 1163.54,100.607 1165.7,100.463 1167.87,100.32 1170.03,100.178 1172.19,100.038 1174.35,99.8993 1176.51,99.7619 1178.68,99.626 1180.84,99.4914 1183,99.3583 1185.16,99.2265 1187.33,99.096 1189.49,98.9668 1191.65,98.839 1193.81,98.7125 1195.97,98.5873 1198.14,98.4633 1200.3,98.3406 1202.46,98.2192 1204.62,98.099 1206.79,97.98 1208.95,97.8622 1211.11,97.7456 1213.27,97.6302 1215.43,97.516 1217.6,97.403 1219.76,97.291 1221.92,97.1803 1224.08,97.0706 1226.25,96.9621 1228.41,96.8546 1230.57,96.7482 1232.73,96.6429 1234.89,96.5387 1237.06,96.4355 1239.22,96.3334 1241.38,96.2322 1243.54,96.1321 1245.7,96.033 1247.87,95.9349 1250.03,95.8377 1252.19,95.7415 1254.35,95.6463 1256.52,95.552 1258.68,95.4587 1260.84,95.3662 1263,95.2747 1265.16,95.1841 1267.33,95.0943 1269.49,95.0055 1271.65,94.9174 1273.81,94.8303 1275.98,94.744 1278.14,94.6585 1280.3,94.5738 1282.46,94.49 1284.62,94.4069 1286.79,94.3247 1288.95,94.2432 1291.11,94.1625 1293.27,94.0825 1295.44,94.0033 1297.6,93.9249 1299.76,93.8471 1301.92,93.7701 1304.08,93.6938 1306.25,93.6182 1308.41,93.5434 1310.57,93.4692 1312.73,93.3958 1314.9,93.323 1317.06,93.251 1319.22,93.1796 1321.38,93.1089 1323.54,93.0389 1325.71,92.9696 1327.87,92.9009 1330.03,92.8329 1332.19,92.7656 1334.36,92.6989 1336.52,92.6329 1338.68,92.5675 1340.84,92.5027 1343,92.4386 1345.17,92.3751 1347.33,92.3123 1349.49,92.25 1351.65,92.1884 1353.82,92.1274 1355.98,92.067 1358.14,92.0072 1360.3,91.948 1362.46,91.8894 1364.63,91.8313 1366.79,91.7739 1368.95,91.717 1371.11,91.6607 1373.28,91.605 1375.44,91.5498 1377.6,91.4952 1379.76,91.4412 1381.92,91.3877 1384.09,91.3348 1386.25,91.2823 1388.41,91.2305 1390.57,91.1791 1392.74,91.1283 1394.9,91.078 1397.06,91.0283 1399.22,90.979 1401.38,90.9302 1403.55,90.882 1405.71,90.8343 1407.87,90.787 1410.03,90.7402 1412.2,90.694 1414.36,90.6482 1416.52,90.6029 1418.68,90.558 1420.84,90.5137 1423.01,90.4698 1425.17,90.4263 1427.33,90.3833 1429.49,90.3408 1431.65,90.2987 1433.82,90.257 1435.98,90.2158 1438.14,90.175 1440.3,90.1347 1442.47,90.0947 1444.63,90.0552 1446.79,90.0161 1448.95,89.9775 1451.11,89.9392 1453.28,89.9013 1455.44,89.8638 1457.6,89.8268 1459.76,89.7901 1461.93,89.7538 1464.09,89.7179 1466.25,89.6823 1468.41,89.6471 1470.57,89.6123 1472.74,89.5779 1474.9,89.5438 1477.06,89.5101 1479.22,89.4767 1481.39,89.4437 1483.55,89.411 1485.71,89.3787 1487.87,89.3467 1490.03,89.315 1492.2,89.2837 1494.36,89.2527 1496.52,89.222 1498.68,89.1916 1500.85,89.1615 1503.01,89.1317 1505.17,89.1023 1507.33,89.0731 1509.49,89.0442 1511.66,89.0156 1513.82,88.9873 1515.98,88.9593 1518.14,88.9316 1520.31,88.9041 1522.47,88.8769 1524.63,88.85 1526.79,88.8233 1528.95,88.7969 1531.12,88.7707 1533.28,88.7448 1535.44,88.7192 1537.6,88.6938 1539.77,88.6686 1541.93,88.6436 1544.09,88.6189 1546.25,88.5944 1548.41,88.5702 1550.58,88.5461 1552.74,88.5223 1554.9,88.4987 1557.06,88.4753 1559.23,88.4521 1561.39,88.4291 1563.55,88.4063 1565.71,88.3836 1567.87,88.3612 1570.04,88.339 1572.2,88.3169 1574.36,88.295 1576.52,88.2733 1578.69,88.2518 1580.85,88.2305 1583.01,88.2093 1585.17,88.1884 1587.33,88.1676 1589.5,88.1471 1591.66,88.1267 1593.82,88.1065 1595.98,88.0864 1598.14,88.0666 1600.31,88.0469 1602.47,88.0274 1604.63,88.0081 1606.79,87.989 1608.96,87.9701 1611.12,87.9513 1613.28,87.9327 1615.44,87.9143 1617.6,87.896 1619.77,87.878 1621.93,87.86 1624.09,87.8423 1626.25,87.8248 1628.42,87.8074 1630.58,87.7901 1632.74,87.7731 1634.9,87.7562 1637.06,87.7395 1639.23,87.7229 1641.39,87.7065 1643.55,87.6902 1645.71,87.6742 1647.88,87.6583 1650.04,87.6425 1652.2,87.6269 1654.36,87.6115 1656.52,87.5962 1658.69,87.581 1660.85,87.5661 1663.01,87.5512 1665.17,87.5366 1667.34,87.5221 1669.5,87.5077 1671.66,87.4935 1673.82,87.4794 1675.98,87.4655 1678.15,87.4517 1680.31,87.4381 1682.47,87.4246 1684.63,87.4112 1686.8,87.398 1688.96,87.385 1691.12,87.3721 1693.28,87.3593 1695.44,87.3466 1697.61,87.3341 1699.77,87.3218 1701.93,87.3095 1704.09,87.2974 1706.26,87.2855 1708.42,87.2736 1710.58,87.2619 1712.74,87.2504 1714.9,87.2389 1717.07,87.2276 1719.23,87.2164 1721.39,87.2053 1723.55,87.1944 1725.72,87.1836 1727.88,87.1729 1730.04,87.1623 1732.2,87.1518 1734.36,87.1415 1736.53,87.1313 1738.69,87.1212 1740.85,87.1112 1743.01,87.1013 1745.18,87.0915 1747.34,87.0819 1749.5,87.0724 1751.66,87.0629 1753.82,87.0536 1755.99,87.0444 1758.15,87.0353 1760.31,87.0263 1762.47,87.0174 1764.64,87.0086 1766.8,86.9999 1768.96,86.9913 1771.12,86.9828 1773.28,86.9744 1775.45,86.9661 1777.61,86.9579 1779.77,86.9498 1781.93,86.9418 1784.09,86.9338 1786.26,86.926 1788.42,86.9182 1790.58,86.9106 1792.74,86.903 1794.91,86.8955 1797.07,86.8881 1799.23,86.8808 1801.39,86.8736 1803.55,86.8664 1805.72,86.8594 1807.88,86.8524 1810.04,86.8454 1812.2,86.8386 1814.37,86.8318 1816.53,86.8251 1818.69,86.8185 1820.85,86.812 1823.01,86.8055 1825.18,86.7991 1827.34,86.7927 1829.5,86.7865 1831.66,86.7802 1833.83,86.7741 1835.99,86.768 1838.15,86.762 1840.31,86.756 1842.47,86.7501 1844.64,86.7442 1846.8,86.7385 1848.96,86.7327 1851.12,86.727 1853.29,86.7214 1855.45,86.7158 1857.61,86.7103 1859.77,86.7048 1861.93,86.6993 1864.1,86.6939 1866.26,86.6886 1868.42,86.6833 1870.58,86.678 1872.75,86.6727 1874.91,86.6676 1877.07,86.6624 1879.23,86.6573 1881.39,86.6522 1883.56,86.6471 1885.72,86.6421 1887.88,86.6371 1890.04,86.6322 1892.21,86.6272 1894.37,86.6223 1896.53,86.6174 1898.69,86.6126 1900.85,86.6077 1903.02,86.6029 1905.18,86.5981 1907.34,86.5933 1909.5,86.5886 1911.67,86.5839 1913.83,86.5792 1915.99,86.5746 1918.15,86.57 1920.31,86.5654 1922.48,86.5608 1924.64,86.5563 1926.8,86.5519 1928.96,86.5474 1931.13,86.543 1933.29,86.5387 1935.45,86.5343 1937.61,86.53 1939.77,86.5257 1941.94,86.5215 1944.1,86.5173 1946.26,86.5132 1948.42,86.509 1950.59,86.5049 1952.75,86.5009 1954.91,86.4968 1957.07,86.4928 1959.23,86.4889 1961.4,86.485 1963.56,86.4811 1965.72,86.4772 1967.88,86.4734 1970.04,86.4696 1972.21,86.4659 1974.37,86.4621 1976.53,86.4585 1978.69,86.4548 1980.86,86.4512 1983.02,86.4476 1985.18,86.4441 1987.34,86.4405 1989.5,86.4371 1991.67,86.4336 1993.83,86.4302 1995.99,86.4268 1998.15,86.4235 2000.32,86.4202 2002.48,86.4169 2004.64,86.4136 2006.8,86.4104 2008.96,86.4072 2011.13,86.4041 2013.29,86.401 2015.45,86.3979 2017.61,86.3948 2019.78,86.3918 2021.94,86.3888 2024.1,86.3859 2026.26,86.383 2028.42,86.3801 2030.59,86.3772 2032.75,86.3744 2034.91,86.3716 2037.07,86.3689 2039.24,86.3661 2041.4,86.3634 2043.56,86.3608 2045.72,86.3581 2047.88,86.3555 2050.05,86.353 2052.21,86.3504 2054.37,86.3479 2056.53,86.3454 2058.7,86.343 2060.86,86.3406 2063.02,86.3382 2065.18,86.3358 2067.34,86.3335 2069.51,86.3312 2071.67,86.3289 2073.83,86.3267 2075.99,86.3245 2078.16,86.3223 2080.32,86.3202 2082.48,86.318 2084.64,86.3159 2086.8,86.3139 2088.97,86.3118 2091.13,86.3098 2093.29,86.3078 2095.45,86.3059 2097.62,86.3039 2099.78,86.302 2101.94,86.3002 2104.1,86.2983 2106.26,86.2965 2108.43,86.2947 2110.59,86.2929 2112.75,86.2912 2114.91,86.2895 2117.08,86.2878 2119.24,86.2861 2121.4,86.2845 2123.56,86.2828 2125.72,86.2812 2127.89,86.2797 2130.05,86.2781 2132.21,86.2766 2134.37,86.2751 2136.54,86.2736 2138.7,86.2721 2140.86,86.2707 2143.02,86.2693 2145.18,86.2679 2147.35,86.2665 2149.51,86.2652 2151.67,86.2639 2153.83,86.2626 2155.99,86.2613 2158.16,86.26 2160.32,86.2588 2162.48,86.2575 2164.64,86.2563 2166.81,86.2551 2168.97,86.254 2171.13,86.2528 2173.29,86.2517 2175.45,86.2506 2177.62,86.2495 2179.78,86.2484 2181.94,86.2473 2184.1,86.2463 2186.27,86.2452 2188.43,86.2442 2190.59,86.2432 2192.75,86.2422 2194.91,86.2413 2197.08,86.2403 2199.24,86.2394 2201.4,86.2384 2203.56,86.2375 2205.73,86.2366 2207.89,86.2357 2210.05,86.2348 2212.21,86.234 2214.37,86.2331 2216.54,86.2323 2218.7,86.2314 2220.86,86.2306 2223.02,86.2298 2225.19,86.229 2227.35,86.2282 2229.51,86.2274 2231.67,86.2266 2233.83,86.2258 2236,86.2251 2238.16,86.2243 2240.32,86.2236 2242.48,86.2228 2244.65,86.2221 2246.81,86.2213 2248.97,86.2206 2251.13,86.2199 2253.29,86.2192 2255.46,86.2185 2257.62,86.2177 2259.78,86.217 2261.94,86.2163 2264.11,86.2156 2266.27,86.2149 2268.43,86.2142 2270.59,86.2135 2272.75,86.2128 2274.92,86.2121 2277.08,86.2114 2279.24,86.2107 2281.4,86.21 2283.57,86.2093 2285.73,86.2086 2287.89,86.2078 2290.05,86.2071 2292.21,86.2064 2294.38,86.2057 2296.54,86.2049 2298.7,86.2042 2300.86,86.2035 2303.03,86.2027 2305.19,86.2019 2307.35,86.2012 2309.51,86.2004 2311.67,86.1996 2313.84,86.1988 2316,86.198 2318.16,86.1973 2320.32,86.1965 2322.48,86.1957 2324.65,86.1949 2326.81,86.1942 2328.97,86.1934 2331.13,86.1927 2333.3,86.192 2335.46,86.1912 2337.62,86.1905 2339.78,86.1898 2341.94,86.1891 2344.11,86.1884 2346.27,86.1877 2348.43,86.187 2350.59,86.1863 2352.76,86.1857 "/>
<polyline clip-path="url(#clip722)" style="stroke:#e26f46; stroke-linecap:round; stroke-linejoin:round; stroke-width:4; stroke-opacity:1; fill:none" points="192.709,477.679 194.871,476.11 197.034,474.542 199.196,472.976 201.358,471.411 203.52,469.849 205.682,468.289 207.845,466.73 210.007,465.174 212.169,463.62 214.331,462.067 216.493,460.518 218.656,458.97 220.818,457.425 222.98,455.882 225.142,454.342 227.304,452.804 229.467,451.269 231.629,449.736 233.791,448.206 235.953,446.679 238.116,445.154 240.278,443.633 242.44,442.114 244.602,440.598 246.764,439.085 248.927,437.575 251.089,436.068 253.251,434.564 255.413,433.063 257.575,431.566 259.738,430.071 261.9,428.58 264.062,427.092 266.224,425.607 268.386,424.126 270.549,422.648 272.711,421.174 274.873,419.703 277.035,418.235 279.198,416.771 281.36,415.311 283.522,413.854 285.684,412.4 287.846,410.95 290.009,409.504 292.171,408.062 294.333,406.623 296.495,405.188 298.657,403.757 300.82,402.33 302.982,400.906 305.144,399.487 307.306,398.071 309.468,396.659 311.631,395.251 313.793,393.847 315.955,392.447 318.117,391.051 320.279,389.659 322.442,388.27 324.604,386.886 326.766,385.506 328.928,384.13 331.091,382.758 333.253,381.391 335.415,380.027 337.577,378.667 339.739,377.312 341.902,375.961 344.064,374.614 346.226,373.271 348.388,371.932 350.55,370.598 352.713,369.268 354.875,367.942 357.037,366.62 359.199,365.303 361.361,363.99 363.524,362.681 365.686,361.376 367.848,360.076 370.01,358.78 372.172,357.489 374.335,356.201 376.497,354.918 378.659,353.64 380.821,352.366 382.984,351.096 385.146,349.831 387.308,348.57 389.47,347.313 391.632,346.061 393.795,344.813 395.957,343.569 398.119,342.33 400.281,341.096 402.443,339.865 404.606,338.639 406.768,337.418 408.93,336.201 411.092,334.988 413.254,333.78 415.417,332.576 417.579,331.377 419.741,330.182 421.903,328.992 424.066,327.806 426.228,326.624 428.39,325.447 430.552,324.274 432.714,323.106 434.877,321.942 437.039,320.782 439.201,319.627 441.363,318.477 443.525,317.33 445.688,316.189 447.85,315.051 450.012,313.918 452.174,312.79 454.336,311.666 456.499,310.546 458.661,309.431 460.823,308.32 462.985,307.213 465.147,306.111 467.31,305.014 469.472,303.92 471.634,302.831 473.796,301.747 475.959,300.667 478.121,299.591 480.283,298.519 482.445,297.452 484.607,296.39 486.77,295.331 488.932,294.277 491.094,293.228 493.256,292.182 495.418,291.141 497.581,290.104 499.743,289.072 501.905,288.044 504.067,287.02 506.229,286 508.392,284.985 510.554,283.974 512.716,282.967 514.878,281.965 517.04,280.966 519.203,279.972 521.365,278.982 523.527,277.997 525.689,277.015 527.852,276.038 530.014,275.065 532.176,274.096 534.338,273.132 536.5,272.171 538.663,271.215 540.825,270.263 542.987,269.315 545.149,268.371 547.311,267.431 549.474,266.496 551.636,265.564 553.798,264.637 555.96,263.714 558.122,262.794 560.285,261.879 562.447,260.968 564.609,260.061 566.771,259.158 568.934,258.259 571.096,257.364 573.258,256.473 575.42,255.586 577.582,254.703 579.745,253.824 581.907,252.949 584.069,252.078 586.231,251.211 588.393,250.348 590.556,249.489 592.718,248.633 594.88,247.782 597.042,246.934 599.204,246.091 601.367,245.251 603.529,244.415 605.691,243.583 607.853,242.755 610.015,241.93 612.178,241.11 614.34,240.293 616.502,239.48 618.664,238.67 620.827,237.865 622.989,237.063 625.151,236.265 627.313,235.47 629.475,234.68 631.638,233.893 633.8,233.11 635.962,232.33 638.124,231.554 640.286,230.782 642.449,230.013 644.611,229.248 646.773,228.487 648.935,227.729 651.097,226.975 653.26,226.224 655.422,225.477 657.584,224.734 659.746,223.994 661.908,223.257 664.071,222.524 666.233,221.795 668.395,221.069 670.557,220.347 672.72,219.628 674.882,218.912 677.044,218.2 679.206,217.492 681.368,216.786 683.531,216.085 685.693,215.386 687.855,214.691 690.017,214 692.179,213.311 694.342,212.626 696.504,211.945 698.666,211.267 700.828,210.592 702.99,209.92 705.153,209.252 707.315,208.587 709.477,207.925 711.639,207.266 713.802,206.611 715.964,205.959 718.126,205.31 720.288,204.665 722.45,204.022 724.613,203.383 726.775,202.747 728.937,202.114 731.099,201.484 733.261,200.858 735.424,200.234 737.586,199.614 739.748,198.996 741.91,198.382 744.072,197.771 746.235,197.163 748.397,196.558 750.559,195.956 752.721,195.357 754.883,194.76 757.046,194.167 759.208,193.577 761.37,192.99 763.532,192.406 765.695,191.825 767.857,191.246 770.019,190.671 772.181,190.099 774.343,189.529 776.506,188.962 778.668,188.398 780.83,187.837 782.992,187.279 785.154,186.724 787.317,186.171 789.479,185.622 791.641,185.075 793.803,184.531 795.965,183.989 798.128,183.451 800.29,182.915 802.452,182.382 804.614,181.851 806.776,181.324 808.939,180.799 811.101,180.277 813.263,179.757 815.425,179.24 817.588,178.726 819.75,178.214 821.912,177.705 824.074,177.199 826.236,176.695 828.399,176.194 830.561,175.695 832.723,175.199 834.885,174.706 837.047,174.215 839.21,173.727 841.372,173.241 843.534,172.758 845.696,172.277 847.858,171.799 850.021,171.323 852.183,170.85 854.345,170.379 856.507,169.911 858.67,169.445 860.832,168.981 862.994,168.52 865.156,168.062 867.318,167.605 869.481,167.151 871.643,166.7 873.805,166.251 875.967,165.804 878.129,165.36 880.292,164.918 882.454,164.478 884.616,164.041 886.778,163.606 888.94,163.173 891.103,162.742 893.265,162.314 895.427,161.888 897.589,161.464 899.751,161.043 901.914,160.624 904.076,160.207 906.238,159.792 908.4,159.379 910.563,158.969 912.725,158.561 914.887,158.155 917.049,157.751 919.211,157.349 921.374,156.949 923.536,156.552 925.698,156.156 927.86,155.763 930.022,155.372 932.185,154.983 934.347,154.596 936.509,154.211 938.671,153.828 940.833,153.447 942.996,153.068 945.158,152.691 947.32,152.316 949.482,151.944 951.644,151.573 953.807,151.204 955.969,150.837 958.131,150.472 960.293,150.109 962.456,149.748 964.618,149.389 966.78,149.032 968.942,148.677 971.104,148.324 973.267,147.972 975.429,147.623 977.591,147.275 979.753,146.929 981.915,146.586 984.078,146.244 986.24,145.903 988.402,145.565 990.564,145.229 992.726,144.894 994.889,144.561 997.051,144.23 999.213,143.901 1001.38,143.573 1003.54,143.247 1005.7,142.923 1007.86,142.601 1010.02,142.281 1012.19,141.962 1014.35,141.645 1016.51,141.33 1018.67,141.016 1020.84,140.704 1023,140.394 1025.16,140.086 1027.32,139.779 1029.48,139.474 1031.65,139.171 1033.81,138.869 1035.97,138.569 1038.13,138.27 1040.3,137.973 1042.46,137.678 1044.62,137.384 1046.78,137.092 1048.94,136.802 1051.11,136.513 1053.27,136.226 1055.43,135.94 1057.59,135.656 1059.75,135.374 1061.92,135.093 1064.08,134.813 1066.24,134.536 1068.4,134.259 1070.57,133.984 1072.73,133.711 1074.89,133.439 1077.05,133.169 1079.21,132.9 1081.38,132.633 1083.54,132.367 1085.7,132.103 1087.86,131.84 1090.03,131.578 1092.19,131.318 1094.35,131.06 1096.51,130.803 1098.67,130.547 1100.84,130.293 1103,130.04 1105.16,129.788 1107.32,129.538 1109.49,129.289 1111.65,129.042 1113.81,128.796 1115.97,128.551 1118.13,128.308 1120.3,128.066 1122.46,127.825 1124.62,127.586 1126.78,127.348 1128.95,127.112 1131.11,126.876 1133.27,126.642 1135.43,126.41 1137.59,126.178 1139.76,125.948 1141.92,125.72 1144.08,125.492 1146.24,125.266 1148.41,125.041 1150.57,124.817 1152.73,124.594 1154.89,124.373 1157.05,124.153 1159.22,123.934 1161.38,123.717 1163.54,123.5 1165.7,123.285 1167.87,123.071 1170.03,122.858 1172.19,122.647 1174.35,122.437 1176.51,122.227 1178.68,122.019 1180.84,121.812 1183,121.607 1185.16,121.402 1187.33,121.199 1189.49,120.996 1191.65,120.795 1193.81,120.595 1195.97,120.396 1198.14,120.198 1200.3,120.002 1202.46,119.806 1204.62,119.612 1206.79,119.418 1208.95,119.226 1211.11,119.035 1213.27,118.844 1215.43,118.655 1217.6,118.467 1219.76,118.28 1221.92,118.094 1224.08,117.909 1226.25,117.726 1228.41,117.543 1230.57,117.361 1232.73,117.18 1234.89,117.001 1237.06,116.822 1239.22,116.644 1241.38,116.467 1243.54,116.292 1245.7,116.117 1247.87,115.943 1250.03,115.77 1252.19,115.599 1254.35,115.428 1256.52,115.258 1258.68,115.089 1260.84,114.921 1263,114.754 1265.16,114.588 1267.33,114.423 1269.49,114.259 1271.65,114.096 1273.81,113.933 1275.98,113.772 1278.14,113.612 1280.3,113.452 1282.46,113.293 1284.62,113.136 1286.79,112.979 1288.95,112.823 1291.11,112.668 1293.27,112.514 1295.44,112.36 1297.6,112.208 1299.76,112.056 1301.92,111.906 1304.08,111.756 1306.25,111.607 1308.41,111.459 1310.57,111.311 1312.73,111.165 1314.9,111.019 1317.06,110.874 1319.22,110.73 1321.38,110.587 1323.54,110.445 1325.71,110.303 1327.87,110.163 1330.03,110.023 1332.19,109.883 1334.36,109.745 1336.52,109.608 1338.68,109.471 1340.84,109.335 1343,109.2 1345.17,109.065 1347.33,108.931 1349.49,108.799 1351.65,108.666 1353.82,108.535 1355.98,108.404 1358.14,108.274 1360.3,108.145 1362.46,108.017 1364.63,107.889 1366.79,107.762 1368.95,107.636 1371.11,107.511 1373.28,107.386 1375.44,107.262 1377.6,107.138 1379.76,107.016 1381.92,106.894 1384.09,106.772 1386.25,106.652 1388.41,106.532 1390.57,106.413 1392.74,106.294 1394.9,106.177 1397.06,106.059 1399.22,105.943 1401.38,105.827 1403.55,105.712 1405.71,105.598 1407.87,105.484 1410.03,105.371 1412.2,105.258 1414.36,105.146 1416.52,105.035 1418.68,104.924 1420.84,104.814 1423.01,104.705 1425.17,104.596 1427.33,104.488 1429.49,104.381 1431.65,104.274 1433.82,104.168 1435.98,104.062 1438.14,103.957 1440.3,103.853 1442.47,103.749 1444.63,103.646 1446.79,103.543 1448.95,103.441 1451.11,103.34 1453.28,103.239 1455.44,103.139 1457.6,103.039 1459.76,102.94 1461.93,102.842 1464.09,102.744 1466.25,102.646 1468.41,102.55 1470.57,102.453 1472.74,102.358 1474.9,102.262 1477.06,102.168 1479.22,102.074 1481.39,101.98 1483.55,101.887 1485.71,101.795 1487.87,101.703 1490.03,101.611 1492.2,101.521 1494.36,101.43 1496.52,101.34 1498.68,101.251 1500.85,101.162 1503.01,101.074 1505.17,100.986 1507.33,100.899 1509.49,100.812 1511.66,100.726 1513.82,100.64 1515.98,100.555 1518.14,100.47 1520.31,100.386 1522.47,100.302 1524.63,100.219 1526.79,100.136 1528.95,100.054 1531.12,99.9721 1533.28,99.8907 1535.44,99.8098 1537.6,99.7294 1539.77,99.6494 1541.93,99.5699 1544.09,99.4908 1546.25,99.4122 1548.41,99.3341 1550.58,99.2564 1552.74,99.1792 1554.9,99.1024 1557.06,99.0261 1559.23,98.9502 1561.39,98.8748 1563.55,98.7997 1565.71,98.7252 1567.87,98.651 1570.04,98.5773 1572.2,98.5041 1574.36,98.4312 1576.52,98.3588 1578.69,98.2868 1580.85,98.2152 1583.01,98.144 1585.17,98.0732 1587.33,98.0028 1589.5,97.9329 1591.66,97.8633 1593.82,97.7942 1595.98,97.7254 1598.14,97.6571 1600.31,97.5891 1602.47,97.5215 1604.63,97.4543 1606.79,97.3876 1608.96,97.3212 1611.12,97.2551 1613.28,97.1895 1615.44,97.1243 1617.6,97.0594 1619.77,96.9949 1621.93,96.9308 1624.09,96.867 1626.25,96.8036 1628.42,96.7406 1630.58,96.678 1632.74,96.6157 1634.9,96.5538 1637.06,96.4923 1639.23,96.4311 1641.39,96.3702 1643.55,96.3097 1645.71,96.2496 1647.88,96.1898 1650.04,96.1304 1652.2,96.0713 1654.36,96.0126 1656.52,95.9542 1658.69,95.8961 1660.85,95.8384 1663.01,95.7811 1665.17,95.724 1667.34,95.6673 1669.5,95.611 1671.66,95.5549 1673.82,95.4992 1675.98,95.4438 1678.15,95.3887 1680.31,95.334 1682.47,95.2796 1684.63,95.2255 1686.8,95.1717 1688.96,95.1182 1691.12,95.0651 1693.28,95.0123 1695.44,94.9597 1697.61,94.9075 1699.77,94.8556 1701.93,94.804 1704.09,94.7527 1706.26,94.7017 1708.42,94.651 1710.58,94.6006 1712.74,94.5504 1714.9,94.5006 1717.07,94.4511 1719.23,94.4019 1721.39,94.3529 1723.55,94.3043 1725.72,94.2559 1727.88,94.2078 1730.04,94.16 1732.2,94.1125 1734.36,94.0653 1736.53,94.0183 1738.69,93.9716 1740.85,93.9252 1743.01,93.8791 1745.18,93.8332 1747.34,93.7876 1749.5,93.7423 1751.66,93.6972 1753.82,93.6525 1755.99,93.6079 1758.15,93.5637 1760.31,93.5197 1762.47,93.4759 1764.64,93.4324 1766.8,93.3892 1768.96,93.3462 1771.12,93.3035 1773.28,93.261 1775.45,93.2188 1777.61,93.1768 1779.77,93.1351 1781.93,93.0936 1784.09,93.0523 1786.26,93.0113 1788.42,92.9706 1790.58,92.9301 1792.74,92.8898 1794.91,92.8498 1797.07,92.81 1799.23,92.7704 1801.39,92.7311 1803.55,92.6919 1805.72,92.6531 1807.88,92.6144 1810.04,92.576 1812.2,92.5378 1814.37,92.4998 1816.53,92.4621 1818.69,92.4246 1820.85,92.3873 1823.01,92.3502 1825.18,92.3133 1827.34,92.2767 1829.5,92.2402 1831.66,92.204 1833.83,92.168 1835.99,92.1322 1838.15,92.0966 1840.31,92.0612 1842.47,92.0261 1844.64,91.9911 1846.8,91.9563 1848.96,91.9218 1851.12,91.8874 1853.29,91.8533 1855.45,91.8193 1857.61,91.7856 1859.77,91.752 1861.93,91.7187 1864.1,91.6855 1866.26,91.6525 1868.42,91.6198 1870.58,91.5872 1872.75,91.5548 1874.91,91.5226 1877.07,91.4906 1879.23,91.4588 1881.39,91.4271 1883.56,91.3957 1885.72,91.3644 1887.88,91.3333 1890.04,91.3024 1892.21,91.2717 1894.37,91.2411 1896.53,91.2108 1898.69,91.1806 1900.85,91.1506 1903.02,91.1207 1905.18,91.0911 1907.34,91.0616 1909.5,91.0323 1911.67,91.0031 1913.83,90.9741 1915.99,90.9453 1918.15,90.9167 1920.31,90.8882 1922.48,90.8598 1924.64,90.8317 1926.8,90.8037 1928.96,90.7759 1931.13,90.7482 1933.29,90.7207 1935.45,90.6933 1937.61,90.6661 1939.77,90.6391 1941.94,90.6122 1944.1,90.5855 1946.26,90.5589 1948.42,90.5325 1950.59,90.5062 1952.75,90.4801 1954.91,90.4541 1957.07,90.4283 1959.23,90.4027 1961.4,90.3772 1963.56,90.3518 1965.72,90.3266 1967.88,90.3016 1970.04,90.2766 1972.21,90.2519 1974.37,90.2273 1976.53,90.2028 1978.69,90.1784 1980.86,90.1543 1983.02,90.1302 1985.18,90.1063 1987.34,90.0825 1989.5,90.0589 1991.67,90.0354 1993.83,90.0121 1995.99,89.9889 1998.15,89.9658 2000.32,89.9429 2002.48,89.9201 2004.64,89.8974 2006.8,89.8749 2008.96,89.8525 2011.13,89.8302 2013.29,89.8081 2015.45,89.7861 2017.61,89.7643 2019.78,89.7425 2021.94,89.7209 2024.1,89.6994 2026.26,89.6781 2028.42,89.6569 2030.59,89.6358 2032.75,89.6148 2034.91,89.594 2037.07,89.5733 2039.24,89.5527 2041.4,89.5322 2043.56,89.5118 2045.72,89.4916 2047.88,89.4715 2050.05,89.4515 2052.21,89.4317 2054.37,89.4119 2056.53,89.3923 2058.7,89.3728 2060.86,89.3534 2063.02,89.3341 2065.18,89.315 2067.34,89.2959 2069.51,89.277 2071.67,89.2582 2073.83,89.2395 2075.99,89.2209 2078.16,89.2024 2080.32,89.1841 2082.48,89.1658 2084.64,89.1477 2086.8,89.1296 2088.97,89.1117 2091.13,89.0939 2093.29,89.0762 2095.45,89.0586 2097.62,89.0411 2099.78,89.0237 2101.94,89.0064 2104.1,88.9893 2106.26,88.9722 2108.43,88.9552 2110.59,88.9383 2112.75,88.9216 2114.91,88.9049 2117.08,88.8883 2119.24,88.8719 2121.4,88.8555 2123.56,88.8392 2125.72,88.8231 2127.89,88.807 2130.05,88.791 2132.21,88.7752 2134.37,88.7594 2136.54,88.7437 2138.7,88.7281 2140.86,88.7126 2143.02,88.6972 2145.18,88.6819 2147.35,88.6667 2149.51,88.6516 2151.67,88.6365 2153.83,88.6216 2155.99,88.6067 2158.16,88.592 2160.32,88.5773 2162.48,88.5627 2164.64,88.5482 2166.81,88.5338 2168.97,88.5195 2171.13,88.5053 2173.29,88.4911 2175.45,88.4771 2177.62,88.4631 2179.78,88.4492 2181.94,88.4354 2184.1,88.4216 2186.27,88.408 2188.43,88.3944 2190.59,88.381 2192.75,88.3676 2194.91,88.3542 2197.08,88.341 2199.24,88.3278 2201.4,88.3147 2203.56,88.3017 2205.73,88.2888 2207.89,88.276 2210.05,88.2632 2212.21,88.2505 2214.37,88.2379 2216.54,88.2253 2218.7,88.2129 2220.86,88.2005 2223.02,88.1881 2225.19,88.1759 2227.35,88.1637 2229.51,88.1516 2231.67,88.1396 2233.83,88.1276 2236,88.1157 2238.16,88.1039 2240.32,88.0921 2242.48,88.0804 2244.65,88.0688 2246.81,88.0573 2248.97,88.0458 2251.13,88.0344 2253.29,88.0231 2255.46,88.0118 2257.62,88.0006 2259.78,87.9894 2261.94,87.9783 2264.11,87.9673 2266.27,87.9564 2268.43,87.9455 2270.59,87.9346 2272.75,87.9239 2274.92,87.9132 2277.08,87.9025 2279.24,87.892 2281.4,87.8814 2283.57,87.871 2285.73,87.8606 2287.89,87.8502 2290.05,87.84 2292.21,87.8297 2294.38,87.8196 2296.54,87.8095 2298.7,87.7994 2300.86,87.7894 2303.03,87.7795 2305.19,87.7696 2307.35,87.7598 2309.51,87.75 2311.67,87.7403 2313.84,87.7307 2316,87.7211 2318.16,87.7115 2320.32,87.702 2322.48,87.6926 2324.65,87.6832 2326.81,87.6739 2328.97,87.6646 2331.13,87.6554 2333.3,87.6463 2335.46,87.6372 2337.62,87.6281 2339.78,87.6191 2341.94,87.6102 2344.11,87.6013 2346.27,87.5925 2348.43,87.5837 2350.59,87.5749 2352.76,87.5663 "/>
<path clip-path="url(#clip720)" d="M1805.35 1377.32 L2280.75 1377.32 L2280.75 1221.8 L1805.35 1221.8  Z" fill="#ffffff" fill-rule="evenodd" fill-opacity="1"/>
<polyline clip-path="url(#clip720)" style="stroke:#000000; stroke-linecap:round; stroke-linejoin:round; stroke-width:4; stroke-opacity:1; fill:none" points="1805.35,1377.32 2280.75,1377.32 2280.75,1221.8 1805.35,1221.8 1805.35,1377.32 "/>
<polyline clip-path="url(#clip720)" style="stroke:#009af9; stroke-linecap:round; stroke-linejoin:round; stroke-width:4; stroke-opacity:1; fill:none" points="1829.35,1273.64 1973.36,1273.64 "/>
<path clip-path="url(#clip720)" d="M1997.36 1264.99 L2001.87 1264.99 L2009.97 1286.75 L2018.07 1264.99 L2022.59 1264.99 L2012.87 1290.92 L2007.08 1290.92 L1997.36 1264.99 Z" fill="#000000" fill-rule="nonzero" fill-opacity="1" /><path clip-path="url(#clip720)" d="M2029.88 1286.98 L2037.52 1286.98 L2037.52 1260.61 L2029.21 1262.28 L2029.21 1258.02 L2037.47 1256.36 L2042.15 1256.36 L2042.15 1286.98 L2049.79 1286.98 L2049.79 1290.92 L2029.88 1290.92 L2029.88 1286.98 Z" fill="#000000" fill-rule="nonzero" fill-opacity="1" /><path clip-path="url(#clip720)" d="M2067.89 1274.27 L2067.89 1281.49 L2076.01 1281.49 L2076.01 1283.69 L2067.89 1283.69 L2067.89 1290.92 L2065.46 1290.92 L2065.46 1283.69 L2057.33 1283.69 L2057.33 1281.49 L2065.46 1281.49 L2065.46 1274.27 L2067.89 1274.27 Z" fill="#000000" fill-rule="nonzero" fill-opacity="1" /><path clip-path="url(#clip720)" d="M2100.18 1265.75 L2100.18 1269.78 Q2098.38 1268.86 2096.43 1268.39 Q2094.49 1267.93 2092.4 1267.93 Q2089.23 1267.93 2087.63 1268.9 Q2086.06 1269.87 2086.06 1271.82 Q2086.06 1273.3 2087.19 1274.16 Q2088.33 1274.99 2091.75 1275.75 L2093.21 1276.08 Q2097.75 1277.05 2099.65 1278.83 Q2101.57 1280.59 2101.57 1283.76 Q2101.57 1287.37 2098.7 1289.48 Q2095.85 1291.59 2090.85 1291.59 Q2088.77 1291.59 2086.5 1291.17 Q2084.25 1290.78 2081.75 1289.97 L2081.75 1285.57 Q2084.12 1286.79 2086.41 1287.42 Q2088.7 1288.02 2090.94 1288.02 Q2093.95 1288.02 2095.57 1287 Q2097.19 1285.96 2097.19 1284.09 Q2097.19 1282.35 2096.01 1281.42 Q2094.86 1280.5 2090.9 1279.64 L2089.42 1279.3 Q2085.46 1278.46 2083.7 1276.75 Q2081.94 1275.01 2081.94 1272 Q2081.94 1268.35 2084.53 1266.36 Q2087.13 1264.36 2091.89 1264.36 Q2094.25 1264.36 2096.34 1264.71 Q2098.42 1265.06 2100.18 1265.75 Z" fill="#000000" fill-rule="nonzero" fill-opacity="1" /><path clip-path="url(#clip720)" d="M2112.56 1257.63 L2112.56 1264.99 L2121.34 1264.99 L2121.34 1268.3 L2112.56 1268.3 L2112.56 1282.37 Q2112.56 1285.54 2113.42 1286.45 Q2114.3 1287.35 2116.96 1287.35 L2121.34 1287.35 L2121.34 1290.92 L2116.96 1290.92 Q2112.03 1290.92 2110.16 1289.09 Q2108.28 1287.23 2108.28 1282.37 L2108.28 1268.3 L2105.16 1268.3 L2105.16 1264.99 L2108.28 1264.99 L2108.28 1257.63 L2112.56 1257.63 Z" fill="#000000" fill-rule="nonzero" fill-opacity="1" /><path clip-path="url(#clip720)" d="M2136.99 1267.98 Q2133.56 1267.98 2131.57 1270.66 Q2129.58 1273.32 2129.58 1277.98 Q2129.58 1282.63 2131.55 1285.31 Q2133.54 1287.98 2136.99 1287.98 Q2140.39 1287.98 2142.38 1285.29 Q2144.37 1282.61 2144.37 1277.98 Q2144.37 1273.37 2142.38 1270.68 Q2140.39 1267.98 2136.99 1267.98 M2136.99 1264.36 Q2142.54 1264.36 2145.71 1267.98 Q2148.88 1271.59 2148.88 1277.98 Q2148.88 1284.34 2145.71 1287.98 Q2142.54 1291.59 2136.99 1291.59 Q2131.41 1291.59 2128.24 1287.98 Q2125.09 1284.34 2125.09 1277.98 Q2125.09 1271.59 2128.24 1267.98 Q2131.41 1264.36 2136.99 1264.36 Z" fill="#000000" fill-rule="nonzero" fill-opacity="1" /><path clip-path="url(#clip720)" d="M2170.97 1268.97 Q2170.25 1268.55 2169.39 1268.37 Q2168.56 1268.16 2167.54 1268.16 Q2163.93 1268.16 2161.99 1270.52 Q2160.06 1272.86 2160.06 1277.26 L2160.06 1290.92 L2155.78 1290.92 L2155.78 1264.99 L2160.06 1264.99 L2160.06 1269.02 Q2161.41 1266.66 2163.56 1265.52 Q2165.71 1264.36 2168.79 1264.36 Q2169.23 1264.36 2169.76 1264.43 Q2170.3 1264.48 2170.94 1264.6 L2170.97 1268.97 Z" fill="#000000" fill-rule="nonzero" fill-opacity="1" /><path clip-path="url(#clip720)" d="M2187.22 1277.88 Q2182.06 1277.88 2180.06 1279.06 Q2178.07 1280.24 2178.07 1283.09 Q2178.07 1285.36 2179.56 1286.7 Q2181.06 1288.02 2183.63 1288.02 Q2187.17 1288.02 2189.3 1285.52 Q2191.45 1283 2191.45 1278.83 L2191.45 1277.88 L2187.22 1277.88 M2195.71 1276.12 L2195.71 1290.92 L2191.45 1290.92 L2191.45 1286.98 Q2189.99 1289.34 2187.82 1290.48 Q2185.64 1291.59 2182.49 1291.59 Q2178.51 1291.59 2176.15 1289.36 Q2173.81 1287.12 2173.81 1283.37 Q2173.81 1278.99 2176.73 1276.77 Q2179.67 1274.55 2185.48 1274.55 L2191.45 1274.55 L2191.45 1274.13 Q2191.45 1271.19 2189.51 1269.6 Q2187.59 1267.98 2184.09 1267.98 Q2181.87 1267.98 2179.76 1268.51 Q2177.66 1269.04 2175.71 1270.11 L2175.71 1266.17 Q2178.05 1265.27 2180.25 1264.83 Q2182.45 1264.36 2184.53 1264.36 Q2190.16 1264.36 2192.93 1267.28 Q2195.71 1270.2 2195.71 1276.12 Z" fill="#000000" fill-rule="nonzero" fill-opacity="1" /><path clip-path="url(#clip720)" d="M2221.55 1277.65 Q2221.55 1273.02 2219.62 1270.48 Q2217.73 1267.93 2214.28 1267.93 Q2210.85 1267.93 2208.93 1270.48 Q2207.03 1273.02 2207.03 1277.65 Q2207.03 1282.26 2208.93 1284.8 Q2210.85 1287.35 2214.28 1287.35 Q2217.73 1287.35 2219.62 1284.8 Q2221.55 1282.26 2221.55 1277.65 M2225.8 1287.7 Q2225.8 1294.32 2222.87 1297.54 Q2219.93 1300.78 2213.86 1300.78 Q2211.62 1300.78 2209.62 1300.43 Q2207.63 1300.11 2205.76 1299.41 L2205.76 1295.27 Q2207.63 1296.29 2209.46 1296.77 Q2211.29 1297.26 2213.19 1297.26 Q2217.38 1297.26 2219.46 1295.06 Q2221.55 1292.88 2221.55 1288.46 L2221.55 1286.36 Q2220.23 1288.65 2218.17 1289.78 Q2216.11 1290.92 2213.24 1290.92 Q2208.47 1290.92 2205.55 1287.28 Q2202.63 1283.65 2202.63 1277.65 Q2202.63 1271.63 2205.55 1268 Q2208.47 1264.36 2213.24 1264.36 Q2216.11 1264.36 2218.17 1265.5 Q2220.23 1266.63 2221.55 1268.92 L2221.55 1264.99 L2225.8 1264.99 L2225.8 1287.7 Z" fill="#000000" fill-rule="nonzero" fill-opacity="1" /><path clip-path="url(#clip720)" d="M2256.75 1276.89 L2256.75 1278.97 L2237.17 1278.97 Q2237.45 1283.37 2239.81 1285.68 Q2242.19 1287.98 2246.43 1287.98 Q2248.88 1287.98 2251.18 1287.37 Q2253.49 1286.77 2255.76 1285.57 L2255.76 1289.6 Q2253.47 1290.57 2251.06 1291.08 Q2248.65 1291.59 2246.18 1291.59 Q2239.97 1291.59 2236.34 1287.98 Q2232.73 1284.36 2232.73 1278.21 Q2232.73 1271.84 2236.15 1268.11 Q2239.6 1264.36 2245.43 1264.36 Q2250.67 1264.36 2253.7 1267.74 Q2256.75 1271.1 2256.75 1276.89 M2252.49 1275.64 Q2252.45 1272.14 2250.53 1270.06 Q2248.63 1267.98 2245.48 1267.98 Q2241.92 1267.98 2239.76 1269.99 Q2237.63 1272 2237.31 1275.66 L2252.49 1275.64 Z" fill="#000000" fill-rule="nonzero" fill-opacity="1" /><polyline clip-path="url(#clip720)" style="stroke:#e26f46; stroke-linecap:round; stroke-linejoin:round; stroke-width:4; stroke-opacity:1; fill:none" points="1829.35,1325.48 1973.36,1325.48 "/>
<path clip-path="url(#clip720)" d="M1997.36 1316.83 L2001.87 1316.83 L2009.97 1338.59 L2018.07 1316.83 L2022.59 1316.83 L2012.87 1342.76 L2007.08 1342.76 L1997.36 1316.83 Z" fill="#000000" fill-rule="nonzero" fill-opacity="1" /><path clip-path="url(#clip720)" d="M2029.12 1308.2 L2047.47 1308.2 L2047.47 1312.13 L2033.4 1312.13 L2033.4 1320.6 Q2034.42 1320.26 2035.44 1320.09 Q2036.45 1319.91 2037.47 1319.91 Q2043.26 1319.91 2046.64 1323.08 Q2050.02 1326.25 2050.02 1331.67 Q2050.02 1337.25 2046.55 1340.35 Q2043.07 1343.43 2036.76 1343.43 Q2034.58 1343.43 2032.31 1343.06 Q2030.07 1342.69 2027.66 1341.95 L2027.66 1337.25 Q2029.74 1338.38 2031.96 1338.94 Q2034.19 1339.49 2036.66 1339.49 Q2040.67 1339.49 2043 1337.38 Q2045.34 1335.28 2045.34 1331.67 Q2045.34 1328.06 2043 1325.95 Q2040.67 1323.84 2036.66 1323.84 Q2034.79 1323.84 2032.91 1324.26 Q2031.06 1324.68 2029.12 1325.56 L2029.12 1308.2 Z" fill="#000000" fill-rule="nonzero" fill-opacity="1" /><path clip-path="url(#clip720)" d="M2067.89 1326.11 L2067.89 1333.33 L2076.01 1333.33 L2076.01 1335.53 L2067.89 1335.53 L2067.89 1342.76 L2065.46 1342.76 L2065.46 1335.53 L2057.33 1335.53 L2057.33 1333.33 L2065.46 1333.33 L2065.46 1326.11 L2067.89 1326.11 Z" fill="#000000" fill-rule="nonzero" fill-opacity="1" /><path clip-path="url(#clip720)" d="M2100.18 1317.59 L2100.18 1321.62 Q2098.38 1320.7 2096.43 1320.23 Q2094.49 1319.77 2092.4 1319.77 Q2089.23 1319.77 2087.63 1320.74 Q2086.06 1321.71 2086.06 1323.66 Q2086.06 1325.14 2087.19 1326 Q2088.33 1326.83 2091.75 1327.59 L2093.21 1327.92 Q2097.75 1328.89 2099.65 1330.67 Q2101.57 1332.43 2101.57 1335.6 Q2101.57 1339.21 2098.7 1341.32 Q2095.85 1343.43 2090.85 1343.43 Q2088.77 1343.43 2086.5 1343.01 Q2084.25 1342.62 2081.75 1341.81 L2081.75 1337.41 Q2084.12 1338.63 2086.41 1339.26 Q2088.7 1339.86 2090.94 1339.86 Q2093.95 1339.86 2095.57 1338.84 Q2097.19 1337.8 2097.19 1335.93 Q2097.19 1334.19 2096.01 1333.26 Q2094.86 1332.34 2090.9 1331.48 L2089.42 1331.14 Q2085.46 1330.3 2083.7 1328.59 Q2081.94 1326.85 2081.94 1323.84 Q2081.94 1320.19 2084.53 1318.2 Q2087.13 1316.2 2091.89 1316.2 Q2094.25 1316.2 2096.34 1316.55 Q2098.42 1316.9 2100.18 1317.59 Z" fill="#000000" fill-rule="nonzero" fill-opacity="1" /><path clip-path="url(#clip720)" d="M2112.56 1309.47 L2112.56 1316.83 L2121.34 1316.83 L2121.34 1320.14 L2112.56 1320.14 L2112.56 1334.21 Q2112.56 1337.38 2113.42 1338.29 Q2114.3 1339.19 2116.96 1339.19 L2121.34 1339.19 L2121.34 1342.76 L2116.96 1342.76 Q2112.03 1342.76 2110.16 1340.93 Q2108.28 1339.07 2108.28 1334.21 L2108.28 1320.14 L2105.16 1320.14 L2105.16 1316.83 L2108.28 1316.83 L2108.28 1309.47 L2112.56 1309.47 Z" fill="#000000" fill-rule="nonzero" fill-opacity="1" /><path clip-path="url(#clip720)" d="M2136.99 1319.82 Q2133.56 1319.82 2131.57 1322.5 Q2129.58 1325.16 2129.58 1329.82 Q2129.58 1334.47 2131.55 1337.15 Q2133.54 1339.82 2136.99 1339.82 Q2140.39 1339.82 2142.38 1337.13 Q2144.37 1334.45 2144.37 1329.82 Q2144.37 1325.21 2142.38 1322.52 Q2140.39 1319.82 2136.99 1319.82 M2136.99 1316.2 Q2142.54 1316.2 2145.71 1319.82 Q2148.88 1323.43 2148.88 1329.82 Q2148.88 1336.18 2145.71 1339.82 Q2142.54 1343.43 2136.99 1343.43 Q2131.41 1343.43 2128.24 1339.82 Q2125.09 1336.18 2125.09 1329.82 Q2125.09 1323.43 2128.24 1319.82 Q2131.41 1316.2 2136.99 1316.2 Z" fill="#000000" fill-rule="nonzero" fill-opacity="1" /><path clip-path="url(#clip720)" d="M2170.97 1320.81 Q2170.25 1320.39 2169.39 1320.21 Q2168.56 1320 2167.54 1320 Q2163.93 1320 2161.99 1322.36 Q2160.06 1324.7 2160.06 1329.1 L2160.06 1342.76 L2155.78 1342.76 L2155.78 1316.83 L2160.06 1316.83 L2160.06 1320.86 Q2161.41 1318.5 2163.56 1317.36 Q2165.71 1316.2 2168.79 1316.2 Q2169.23 1316.2 2169.76 1316.27 Q2170.3 1316.32 2170.94 1316.44 L2170.97 1320.81 Z" fill="#000000" fill-rule="nonzero" fill-opacity="1" /><path clip-path="url(#clip720)" d="M2187.22 1329.72 Q2182.06 1329.72 2180.06 1330.9 Q2178.07 1332.08 2178.07 1334.93 Q2178.07 1337.2 2179.56 1338.54 Q2181.06 1339.86 2183.63 1339.86 Q2187.17 1339.86 2189.3 1337.36 Q2191.45 1334.84 2191.45 1330.67 L2191.45 1329.72 L2187.22 1329.72 M2195.71 1327.96 L2195.71 1342.76 L2191.45 1342.76 L2191.45 1338.82 Q2189.99 1341.18 2187.82 1342.32 Q2185.64 1343.43 2182.49 1343.43 Q2178.51 1343.43 2176.15 1341.2 Q2173.81 1338.96 2173.81 1335.21 Q2173.81 1330.83 2176.73 1328.61 Q2179.67 1326.39 2185.48 1326.39 L2191.45 1326.39 L2191.45 1325.97 Q2191.45 1323.03 2189.51 1321.44 Q2187.59 1319.82 2184.09 1319.82 Q2181.87 1319.82 2179.76 1320.35 Q2177.66 1320.88 2175.71 1321.95 L2175.71 1318.01 Q2178.05 1317.11 2180.25 1316.67 Q2182.45 1316.2 2184.53 1316.2 Q2190.16 1316.2 2192.93 1319.12 Q2195.71 1322.04 2195.71 1327.96 Z" fill="#000000" fill-rule="nonzero" fill-opacity="1" /><path clip-path="url(#clip720)" d="M2221.55 1329.49 Q2221.55 1324.86 2219.62 1322.32 Q2217.73 1319.77 2214.28 1319.77 Q2210.85 1319.77 2208.93 1322.32 Q2207.03 1324.86 2207.03 1329.49 Q2207.03 1334.1 2208.93 1336.64 Q2210.85 1339.19 2214.28 1339.19 Q2217.73 1339.19 2219.62 1336.64 Q2221.55 1334.1 2221.55 1329.49 M2225.8 1339.54 Q2225.8 1346.16 2222.87 1349.38 Q2219.93 1352.62 2213.86 1352.62 Q2211.62 1352.62 2209.62 1352.27 Q2207.63 1351.95 2205.76 1351.25 L2205.76 1347.11 Q2207.63 1348.13 2209.46 1348.61 Q2211.29 1349.1 2213.19 1349.1 Q2217.38 1349.1 2219.46 1346.9 Q2221.55 1344.72 2221.55 1340.3 L2221.55 1338.2 Q2220.23 1340.49 2218.17 1341.62 Q2216.11 1342.76 2213.24 1342.76 Q2208.47 1342.76 2205.55 1339.12 Q2202.63 1335.49 2202.63 1329.49 Q2202.63 1323.47 2205.55 1319.84 Q2208.47 1316.2 2213.24 1316.2 Q2216.11 1316.2 2218.17 1317.34 Q2220.23 1318.47 2221.55 1320.76 L2221.55 1316.83 L2225.8 1316.83 L2225.8 1339.54 Z" fill="#000000" fill-rule="nonzero" fill-opacity="1" /><path clip-path="url(#clip720)" d="M2256.75 1328.73 L2256.75 1330.81 L2237.17 1330.81 Q2237.45 1335.21 2239.81 1337.52 Q2242.19 1339.82 2246.43 1339.82 Q2248.88 1339.82 2251.18 1339.21 Q2253.49 1338.61 2255.76 1337.41 L2255.76 1341.44 Q2253.47 1342.41 2251.06 1342.92 Q2248.65 1343.43 2246.18 1343.43 Q2239.97 1343.43 2236.34 1339.82 Q2232.73 1336.2 2232.73 1330.05 Q2232.73 1323.68 2236.15 1319.95 Q2239.6 1316.2 2245.43 1316.2 Q2250.67 1316.2 2253.7 1319.58 Q2256.75 1322.94 2256.75 1328.73 M2252.49 1327.48 Q2252.45 1323.98 2250.53 1321.9 Q2248.63 1319.82 2245.48 1319.82 Q2241.92 1319.82 2239.76 1321.83 Q2237.63 1323.84 2237.31 1327.5 L2252.49 1327.48 Z" fill="#000000" fill-rule="nonzero" fill-opacity="1" /></svg>
