<?xml version="1.0" encoding="utf-8"?>
<svg xmlns="http://www.w3.org/2000/svg" xmlns:xlink="http://www.w3.org/1999/xlink" width="600" height="400" viewBox="0 0 2400 1600">
<defs>
  <clipPath id="clip670">
    <rect x="0" y="0" width="2400" height="1600"/>
  </clipPath>
</defs>
<path clip-path="url(#clip670)" d="M0 1600 L2400 1600 L2400 0 L0 0  Z" fill="#ffffff" fill-rule="evenodd" fill-opacity="1"/>
<defs>
  <clipPath id="clip671">
    <rect x="480" y="0" width="1681" height="1600"/>
  </clipPath>
</defs>
<path clip-path="url(#clip670)" d="M186.274 1423.18 L2352.76 1423.18 L2352.76 47.2441 L186.274 47.2441  Z" fill="#ffffff" fill-rule="evenodd" fill-opacity="1"/>
<defs>
  <clipPath id="clip672">
    <rect x="186" y="47" width="2167" height="1377"/>
  </clipPath>
</defs>
<polyline clip-path="url(#clip672)" style="stroke:#000000; stroke-linecap:round; stroke-linejoin:round; stroke-width:2; stroke-opacity:0.1; fill:none" points="186.274,1423.18 186.274,47.2441 "/>
<polyline clip-path="url(#clip672)" style="stroke:#000000; stroke-linecap:round; stroke-linejoin:round; stroke-width:2; stroke-opacity:0.1; fill:none" points="727.894,1423.18 727.894,47.2441 "/>
<polyline clip-path="url(#clip672)" style="stroke:#000000; stroke-linecap:round; stroke-linejoin:round; stroke-width:2; stroke-opacity:0.1; fill:none" points="1269.51,1423.18 1269.51,47.2441 "/>
<polyline clip-path="url(#clip672)" style="stroke:#000000; stroke-linecap:round; stroke-linejoin:round; stroke-width:2; stroke-opacity:0.1; fill:none" points="1811.14,1423.18 1811.14,47.2441 "/>
<polyline clip-path="url(#clip672)" style="stroke:#000000; stroke-linecap:round; stroke-linejoin:round; stroke-width:2; stroke-opacity:0.1; fill:none" points="2352.76,1423.18 2352.76,47.2441 "/>
<polyline clip-path="url(#clip672)" style="stroke:#000000; stroke-linecap:round; stroke-linejoin:round; stroke-width:2; stroke-opacity:0.1; fill:none" points="186.274,1129.07 2352.76,1129.07 "/>
<polyline clip-path="url(#clip672)" style="stroke:#000000; stroke-linecap:round; stroke-linejoin:round; stroke-width:2; stroke-opacity:0.1; fill:none" points="186.274,811.015 2352.76,811.015 "/>
<polyline clip-path="url(#clip672)" style="stroke:#000000; stroke-linecap:round; stroke-linejoin:round; stroke-width:2; stroke-opacity:0.1; fill:none" points="186.274,492.956 2352.76,492.956 "/>
<polyline clip-path="url(#clip672)" style="stroke:#000000; stroke-linecap:round; stroke-linejoin:round; stroke-width:2; stroke-opacity:0.1; fill:none" points="186.274,174.897 2352.76,174.897 "/>
<polyline clip-path="url(#clip670)" style="stroke:#000000; stroke-linecap:round; stroke-linejoin:round; stroke-width:4; stroke-opacity:1; fill:none" points="186.274,1423.18 2352.76,1423.18 "/>
<polyline clip-path="url(#clip670)" style="stroke:#000000; stroke-linecap:round; stroke-linejoin:round; stroke-width:4; stroke-opacity:1; fill:none" points="186.274,1423.18 186.274,1404.28 "/>
<polyline clip-path="url(#clip670)" style="stroke:#000000; stroke-linecap:round; stroke-linejoin:round; stroke-width:4; stroke-opacity:1; fill:none" points="727.894,1423.18 727.894,1404.28 "/>
<polyline clip-path="url(#clip670)" style="stroke:#000000; stroke-linecap:round; stroke-linejoin:round; stroke-width:4; stroke-opacity:1; fill:none" points="1269.51,1423.18 1269.51,1404.28 "/>
<polyline clip-path="url(#clip670)" style="stroke:#000000; stroke-linecap:round; stroke-linejoin:round; stroke-width:4; stroke-opacity:1; fill:none" points="1811.14,1423.18 1811.14,1404.28 "/>
<polyline clip-path="url(#clip670)" style="stroke:#000000; stroke-linecap:round; stroke-linejoin:round; stroke-width:4; stroke-opacity:1; fill:none" points="2352.76,1423.18 2352.76,1404.28 "/>
<path clip-path="url(#clip670)" d="M163.658 1454.1 Q160.047 1454.1 158.219 1457.66 Q156.413 1461.2 156.413 1468.33 Q156.413 1475.44 158.219 1479.01 Q160.047 1482.55 163.658 1482.55 Q167.293 1482.55 169.098 1479.01 Q170.927 1475.44 170.927 1468.33 Q170.927 1461.2 169.098 1457.66 Q167.293 1454.1 163.658 1454.1 M163.658 1450.39 Q169.469 1450.39 172.524 1455 Q175.603 1459.58 175.603 1468.33 Q175.603 1477.06 172.524 1481.67 Q169.469 1486.25 163.658 1486.25 Q157.848 1486.25 154.77 1481.67 Q151.714 1477.06 151.714 1468.33 Q151.714 1459.58 154.77 1455 Q157.848 1450.39 163.658 1450.39 Z" fill="#000000" fill-rule="nonzero" fill-opacity="1" /><path clip-path="url(#clip670)" d="M183.82 1479.7 L188.705 1479.7 L188.705 1485.58 L183.82 1485.58 L183.82 1479.7 Z" fill="#000000" fill-rule="nonzero" fill-opacity="1" /><path clip-path="url(#clip670)" d="M208.89 1454.1 Q205.279 1454.1 203.45 1457.66 Q201.644 1461.2 201.644 1468.33 Q201.644 1475.44 203.45 1479.01 Q205.279 1482.55 208.89 1482.55 Q212.524 1482.55 214.329 1479.01 Q216.158 1475.44 216.158 1468.33 Q216.158 1461.2 214.329 1457.66 Q212.524 1454.1 208.89 1454.1 M208.89 1450.39 Q214.7 1450.39 217.755 1455 Q220.834 1459.58 220.834 1468.33 Q220.834 1477.06 217.755 1481.67 Q214.7 1486.25 208.89 1486.25 Q203.079 1486.25 200.001 1481.67 Q196.945 1477.06 196.945 1468.33 Q196.945 1459.58 200.001 1455 Q203.079 1450.39 208.89 1450.39 Z" fill="#000000" fill-rule="nonzero" fill-opacity="1" /><path clip-path="url(#clip670)" d="M705.777 1454.1 Q702.165 1454.1 700.337 1457.66 Q698.531 1461.2 698.531 1468.33 Q698.531 1475.44 700.337 1479.01 Q702.165 1482.55 705.777 1482.55 Q709.411 1482.55 711.216 1479.01 Q713.045 1475.44 713.045 1468.33 Q713.045 1461.2 711.216 1457.66 Q709.411 1454.1 705.777 1454.1 M705.777 1450.39 Q711.587 1450.39 714.642 1455 Q717.721 1459.58 717.721 1468.33 Q717.721 1477.06 714.642 1481.67 Q711.587 1486.25 705.777 1486.25 Q699.966 1486.25 696.888 1481.67 Q693.832 1477.06 693.832 1468.33 Q693.832 1459.58 696.888 1455 Q699.966 1450.39 705.777 1450.39 Z" fill="#000000" fill-rule="nonzero" fill-opacity="1" /><path clip-path="url(#clip670)" d="M725.938 1479.7 L730.823 1479.7 L730.823 1485.58 L725.938 1485.58 L725.938 1479.7 Z" fill="#000000" fill-rule="nonzero" fill-opacity="1" /><path clip-path="url(#clip670)" d="M741.054 1451.02 L759.411 1451.02 L759.411 1454.96 L745.337 1454.96 L745.337 1463.43 Q746.355 1463.08 747.374 1462.92 Q748.392 1462.73 749.411 1462.73 Q755.198 1462.73 758.577 1465.9 Q761.957 1469.08 761.957 1474.49 Q761.957 1480.07 758.485 1483.17 Q755.012 1486.25 748.693 1486.25 Q746.517 1486.25 744.249 1485.88 Q742.003 1485.51 739.596 1484.77 L739.596 1480.07 Q741.679 1481.2 743.901 1481.76 Q746.124 1482.32 748.6 1482.32 Q752.605 1482.32 754.943 1480.21 Q757.281 1478.1 757.281 1474.49 Q757.281 1470.88 754.943 1468.77 Q752.605 1466.67 748.6 1466.67 Q746.725 1466.67 744.85 1467.08 Q742.999 1467.5 741.054 1468.38 L741.054 1451.02 Z" fill="#000000" fill-rule="nonzero" fill-opacity="1" /><path clip-path="url(#clip670)" d="M1236.67 1481.64 L1244.31 1481.64 L1244.31 1455.28 L1236 1456.95 L1236 1452.69 L1244.26 1451.02 L1248.94 1451.02 L1248.94 1481.64 L1256.58 1481.64 L1256.58 1485.58 L1236.67 1485.58 L1236.67 1481.64 Z" fill="#000000" fill-rule="nonzero" fill-opacity="1" /><path clip-path="url(#clip670)" d="M1266.02 1479.7 L1270.9 1479.7 L1270.9 1485.58 L1266.02 1485.58 L1266.02 1479.7 Z" fill="#000000" fill-rule="nonzero" fill-opacity="1" /><path clip-path="url(#clip670)" d="M1291.09 1454.1 Q1287.48 1454.1 1285.65 1457.66 Q1283.84 1461.2 1283.84 1468.33 Q1283.84 1475.44 1285.65 1479.01 Q1287.48 1482.55 1291.09 1482.55 Q1294.72 1482.55 1296.53 1479.01 Q1298.36 1475.44 1298.36 1468.33 Q1298.36 1461.2 1296.53 1457.66 Q1294.72 1454.1 1291.09 1454.1 M1291.09 1450.39 Q1296.9 1450.39 1299.95 1455 Q1303.03 1459.58 1303.03 1468.33 Q1303.03 1477.06 1299.95 1481.67 Q1296.9 1486.25 1291.09 1486.25 Q1285.28 1486.25 1282.2 1481.67 Q1279.14 1477.06 1279.14 1468.33 Q1279.14 1459.58 1282.2 1455 Q1285.28 1450.39 1291.09 1450.39 Z" fill="#000000" fill-rule="nonzero" fill-opacity="1" /><path clip-path="url(#clip670)" d="M1778.79 1481.64 L1786.42 1481.64 L1786.42 1455.28 L1778.11 1456.95 L1778.11 1452.69 L1786.38 1451.02 L1791.05 1451.02 L1791.05 1481.64 L1798.69 1481.64 L1798.69 1485.58 L1778.79 1485.58 L1778.79 1481.64 Z" fill="#000000" fill-rule="nonzero" fill-opacity="1" /><path clip-path="url(#clip670)" d="M1808.14 1479.7 L1813.02 1479.7 L1813.02 1485.58 L1808.14 1485.58 L1808.14 1479.7 Z" fill="#000000" fill-rule="nonzero" fill-opacity="1" /><path clip-path="url(#clip670)" d="M1823.25 1451.02 L1841.61 1451.02 L1841.61 1454.96 L1827.54 1454.96 L1827.54 1463.43 Q1828.55 1463.08 1829.57 1462.92 Q1830.59 1462.73 1831.61 1462.73 Q1837.4 1462.73 1840.78 1465.9 Q1844.16 1469.08 1844.16 1474.49 Q1844.16 1480.07 1840.68 1483.17 Q1837.21 1486.25 1830.89 1486.25 Q1828.72 1486.25 1826.45 1485.88 Q1824.2 1485.51 1821.8 1484.77 L1821.8 1480.07 Q1823.88 1481.2 1826.1 1481.76 Q1828.32 1482.32 1830.8 1482.32 Q1834.8 1482.32 1837.14 1480.21 Q1839.48 1478.1 1839.48 1474.49 Q1839.48 1470.88 1837.14 1468.77 Q1834.8 1466.67 1830.8 1466.67 Q1828.92 1466.67 1827.05 1467.08 Q1825.2 1467.5 1823.25 1468.38 L1823.25 1451.02 Z" fill="#000000" fill-rule="nonzero" fill-opacity="1" /><path clip-path="url(#clip670)" d="M2323.99 1481.64 L2340.31 1481.64 L2340.31 1485.58 L2318.37 1485.58 L2318.37 1481.64 Q2321.03 1478.89 2325.61 1474.26 Q2330.22 1469.61 2331.4 1468.27 Q2333.65 1465.74 2334.53 1464.01 Q2335.43 1462.25 2335.43 1460.56 Q2335.43 1457.8 2333.49 1456.07 Q2331.56 1454.33 2328.46 1454.33 Q2326.26 1454.33 2323.81 1455.09 Q2321.38 1455.86 2318.6 1457.41 L2318.6 1452.69 Q2321.43 1451.55 2323.88 1450.97 Q2326.33 1450.39 2328.37 1450.39 Q2333.74 1450.39 2336.93 1453.08 Q2340.13 1455.77 2340.13 1460.26 Q2340.13 1462.39 2339.32 1464.31 Q2338.53 1466.2 2336.42 1468.8 Q2335.85 1469.47 2332.74 1472.69 Q2329.64 1475.88 2323.99 1481.64 Z" fill="#000000" fill-rule="nonzero" fill-opacity="1" /><path clip-path="url(#clip670)" d="M2350.13 1479.7 L2355.01 1479.7 L2355.01 1485.58 L2350.13 1485.58 L2350.13 1479.7 Z" fill="#000000" fill-rule="nonzero" fill-opacity="1" /><path clip-path="url(#clip670)" d="M2375.2 1454.1 Q2371.59 1454.1 2369.76 1457.66 Q2367.95 1461.2 2367.95 1468.33 Q2367.95 1475.44 2369.76 1479.01 Q2371.59 1482.55 2375.2 1482.55 Q2378.83 1482.55 2380.64 1479.01 Q2382.47 1475.44 2382.47 1468.33 Q2382.47 1461.2 2380.64 1457.66 Q2378.83 1454.1 2375.2 1454.1 M2375.2 1450.39 Q2381.01 1450.39 2384.06 1455 Q2387.14 1459.58 2387.14 1468.33 Q2387.14 1477.06 2384.06 1481.67 Q2381.01 1486.25 2375.2 1486.25 Q2369.39 1486.25 2366.31 1481.67 Q2363.25 1477.06 2363.25 1468.33 Q2363.25 1459.58 2366.31 1455 Q2369.39 1450.39 2375.2 1450.39 Z" fill="#000000" fill-rule="nonzero" fill-opacity="1" /><path clip-path="url(#clip670)" d="M1268.58 1522.27 L1268.58 1532.4 L1280.64 1532.4 L1280.64 1536.95 L1268.58 1536.95 L1268.58 1556.3 Q1268.58 1560.66 1269.75 1561.9 Q1270.96 1563.14 1274.62 1563.14 L1280.64 1563.14 L1280.64 1568.04 L1274.62 1568.04 Q1267.84 1568.04 1265.27 1565.53 Q1262.69 1562.98 1262.69 1556.3 L1262.69 1536.95 L1258.39 1536.95 L1258.39 1532.4 L1262.69 1532.4 L1262.69 1522.27 L1268.58 1522.27 Z" fill="#000000" fill-rule="nonzero" fill-opacity="1" /><polyline clip-path="url(#clip670)" style="stroke:#000000; stroke-linecap:round; stroke-linejoin:round; stroke-width:4; stroke-opacity:1; fill:none" points="186.274,1423.18 186.274,47.2441 "/>
<polyline clip-path="url(#clip670)" style="stroke:#000000; stroke-linecap:round; stroke-linejoin:round; stroke-width:4; stroke-opacity:1; fill:none" points="186.274,1129.07 205.172,1129.07 "/>
<polyline clip-path="url(#clip670)" style="stroke:#000000; stroke-linecap:round; stroke-linejoin:round; stroke-width:4; stroke-opacity:1; fill:none" points="186.274,811.015 205.172,811.015 "/>
<polyline clip-path="url(#clip670)" style="stroke:#000000; stroke-linecap:round; stroke-linejoin:round; stroke-width:4; stroke-opacity:1; fill:none" points="186.274,492.956 205.172,492.956 "/>
<polyline clip-path="url(#clip670)" style="stroke:#000000; stroke-linecap:round; stroke-linejoin:round; stroke-width:4; stroke-opacity:1; fill:none" points="186.274,174.897 205.172,174.897 "/>
<path clip-path="url(#clip670)" d="M62.9365 1114.87 Q59.3254 1114.87 57.4967 1118.44 Q55.6912 1121.98 55.6912 1129.11 Q55.6912 1136.21 57.4967 1139.78 Q59.3254 1143.32 62.9365 1143.32 Q66.5707 1143.32 68.3763 1139.78 Q70.205 1136.21 70.205 1129.11 Q70.205 1121.98 68.3763 1118.44 Q66.5707 1114.87 62.9365 1114.87 M62.9365 1111.17 Q68.7467 1111.17 71.8022 1115.77 Q74.8809 1120.36 74.8809 1129.11 Q74.8809 1137.83 71.8022 1142.44 Q68.7467 1147.02 62.9365 1147.02 Q57.1264 1147.02 54.0477 1142.44 Q50.9921 1137.83 50.9921 1129.11 Q50.9921 1120.36 54.0477 1115.77 Q57.1264 1111.17 62.9365 1111.17 Z" fill="#000000" fill-rule="nonzero" fill-opacity="1" /><path clip-path="url(#clip670)" d="M83.0984 1140.47 L87.9827 1140.47 L87.9827 1146.35 L83.0984 1146.35 L83.0984 1140.47 Z" fill="#000000" fill-rule="nonzero" fill-opacity="1" /><path clip-path="url(#clip670)" d="M108.168 1114.87 Q104.557 1114.87 102.728 1118.44 Q100.922 1121.98 100.922 1129.11 Q100.922 1136.21 102.728 1139.78 Q104.557 1143.32 108.168 1143.32 Q111.802 1143.32 113.608 1139.78 Q115.436 1136.21 115.436 1129.11 Q115.436 1121.98 113.608 1118.44 Q111.802 1114.87 108.168 1114.87 M108.168 1111.17 Q113.978 1111.17 117.033 1115.77 Q120.112 1120.36 120.112 1129.11 Q120.112 1137.83 117.033 1142.44 Q113.978 1147.02 108.168 1147.02 Q102.358 1147.02 99.2789 1142.44 Q96.2234 1137.83 96.2234 1129.11 Q96.2234 1120.36 99.2789 1115.77 Q102.358 1111.17 108.168 1111.17 Z" fill="#000000" fill-rule="nonzero" fill-opacity="1" /><path clip-path="url(#clip670)" d="M138.33 1114.87 Q134.719 1114.87 132.89 1118.44 Q131.084 1121.98 131.084 1129.11 Q131.084 1136.21 132.89 1139.78 Q134.719 1143.32 138.33 1143.32 Q141.964 1143.32 143.769 1139.78 Q145.598 1136.21 145.598 1129.11 Q145.598 1121.98 143.769 1118.44 Q141.964 1114.87 138.33 1114.87 M138.33 1111.17 Q144.14 1111.17 147.195 1115.77 Q150.274 1120.36 150.274 1129.11 Q150.274 1137.83 147.195 1142.44 Q144.14 1147.02 138.33 1147.02 Q132.519 1147.02 129.441 1142.44 Q126.385 1137.83 126.385 1129.11 Q126.385 1120.36 129.441 1115.77 Q132.519 1111.17 138.33 1111.17 Z" fill="#000000" fill-rule="nonzero" fill-opacity="1" /><path clip-path="url(#clip670)" d="M63.9319 796.813 Q60.3208 796.813 58.4921 800.378 Q56.6865 803.92 56.6865 811.049 Q56.6865 818.156 58.4921 821.721 Q60.3208 825.262 63.9319 825.262 Q67.5661 825.262 69.3717 821.721 Q71.2004 818.156 71.2004 811.049 Q71.2004 803.92 69.3717 800.378 Q67.5661 796.813 63.9319 796.813 M63.9319 793.11 Q69.742 793.11 72.7976 797.716 Q75.8763 802.299 75.8763 811.049 Q75.8763 819.776 72.7976 824.383 Q69.742 828.966 63.9319 828.966 Q58.1217 828.966 55.043 824.383 Q51.9875 819.776 51.9875 811.049 Q51.9875 802.299 55.043 797.716 Q58.1217 793.11 63.9319 793.11 Z" fill="#000000" fill-rule="nonzero" fill-opacity="1" /><path clip-path="url(#clip670)" d="M84.0938 822.415 L88.978 822.415 L88.978 828.295 L84.0938 828.295 L84.0938 822.415 Z" fill="#000000" fill-rule="nonzero" fill-opacity="1" /><path clip-path="url(#clip670)" d="M103.191 824.359 L119.51 824.359 L119.51 828.295 L97.566 828.295 L97.566 824.359 Q100.228 821.605 104.811 816.975 Q109.418 812.323 110.598 810.98 Q112.844 808.457 113.723 806.721 Q114.626 804.961 114.626 803.272 Q114.626 800.517 112.682 798.781 Q110.76 797.045 107.658 797.045 Q105.459 797.045 103.006 797.809 Q100.575 798.573 97.7974 800.124 L97.7974 795.401 Q100.621 794.267 103.075 793.688 Q105.529 793.11 107.566 793.11 Q112.936 793.11 116.131 795.795 Q119.325 798.48 119.325 802.971 Q119.325 805.1 118.515 807.022 Q117.728 808.92 115.621 811.512 Q115.043 812.184 111.941 815.401 Q108.839 818.596 103.191 824.359 Z" fill="#000000" fill-rule="nonzero" fill-opacity="1" /><path clip-path="url(#clip670)" d="M129.371 793.735 L147.728 793.735 L147.728 797.67 L133.654 797.67 L133.654 806.142 Q134.672 805.795 135.691 805.633 Q136.709 805.448 137.728 805.448 Q143.515 805.448 146.894 808.619 Q150.274 811.79 150.274 817.207 Q150.274 822.785 146.802 825.887 Q143.33 828.966 137.01 828.966 Q134.834 828.966 132.566 828.596 Q130.32 828.225 127.913 827.484 L127.913 822.785 Q129.996 823.92 132.219 824.475 Q134.441 825.031 136.918 825.031 Q140.922 825.031 143.26 822.924 Q145.598 820.818 145.598 817.207 Q145.598 813.596 143.26 811.489 Q140.922 809.383 136.918 809.383 Q135.043 809.383 133.168 809.799 Q131.316 810.216 129.371 811.096 L129.371 793.735 Z" fill="#000000" fill-rule="nonzero" fill-opacity="1" /><path clip-path="url(#clip670)" d="M62.9365 478.755 Q59.3254 478.755 57.4967 482.319 Q55.6912 485.861 55.6912 492.991 Q55.6912 500.097 57.4967 503.662 Q59.3254 507.204 62.9365 507.204 Q66.5707 507.204 68.3763 503.662 Q70.205 500.097 70.205 492.991 Q70.205 485.861 68.3763 482.319 Q66.5707 478.755 62.9365 478.755 M62.9365 475.051 Q68.7467 475.051 71.8022 479.657 Q74.8809 484.241 74.8809 492.991 Q74.8809 501.717 71.8022 506.324 Q68.7467 510.907 62.9365 510.907 Q57.1264 510.907 54.0477 506.324 Q50.9921 501.717 50.9921 492.991 Q50.9921 484.241 54.0477 479.657 Q57.1264 475.051 62.9365 475.051 Z" fill="#000000" fill-rule="nonzero" fill-opacity="1" /><path clip-path="url(#clip670)" d="M83.0984 504.356 L87.9827 504.356 L87.9827 510.236 L83.0984 510.236 L83.0984 504.356 Z" fill="#000000" fill-rule="nonzero" fill-opacity="1" /><path clip-path="url(#clip670)" d="M98.2141 475.676 L116.57 475.676 L116.57 479.611 L102.496 479.611 L102.496 488.083 Q103.515 487.736 104.534 487.574 Q105.552 487.389 106.571 487.389 Q112.358 487.389 115.737 490.56 Q119.117 493.731 119.117 499.148 Q119.117 504.727 115.645 507.829 Q112.172 510.907 105.853 510.907 Q103.677 510.907 101.409 510.537 Q99.1632 510.167 96.7558 509.426 L96.7558 504.727 Q98.8391 505.861 101.061 506.417 Q103.284 506.972 105.76 506.972 Q109.765 506.972 112.103 504.866 Q114.441 502.759 114.441 499.148 Q114.441 495.537 112.103 493.43 Q109.765 491.324 105.76 491.324 Q103.885 491.324 102.01 491.741 Q100.159 492.157 98.2141 493.037 L98.2141 475.676 Z" fill="#000000" fill-rule="nonzero" fill-opacity="1" /><path clip-path="url(#clip670)" d="M138.33 478.755 Q134.719 478.755 132.89 482.319 Q131.084 485.861 131.084 492.991 Q131.084 500.097 132.89 503.662 Q134.719 507.204 138.33 507.204 Q141.964 507.204 143.769 503.662 Q145.598 500.097 145.598 492.991 Q145.598 485.861 143.769 482.319 Q141.964 478.755 138.33 478.755 M138.33 475.051 Q144.14 475.051 147.195 479.657 Q150.274 484.241 150.274 492.991 Q150.274 501.717 147.195 506.324 Q144.14 510.907 138.33 510.907 Q132.519 510.907 129.441 506.324 Q126.385 501.717 126.385 492.991 Q126.385 484.241 129.441 479.657 Q132.519 475.051 138.33 475.051 Z" fill="#000000" fill-rule="nonzero" fill-opacity="1" /><path clip-path="url(#clip670)" d="M63.9319 160.696 Q60.3208 160.696 58.4921 164.261 Q56.6865 167.802 56.6865 174.932 Q56.6865 182.038 58.4921 185.603 Q60.3208 189.145 63.9319 189.145 Q67.5661 189.145 69.3717 185.603 Q71.2004 182.038 71.2004 174.932 Q71.2004 167.802 69.3717 164.261 Q67.5661 160.696 63.9319 160.696 M63.9319 156.992 Q69.742 156.992 72.7976 161.599 Q75.8763 166.182 75.8763 174.932 Q75.8763 183.659 72.7976 188.265 Q69.742 192.849 63.9319 192.849 Q58.1217 192.849 55.043 188.265 Q51.9875 183.659 51.9875 174.932 Q51.9875 166.182 55.043 161.599 Q58.1217 156.992 63.9319 156.992 Z" fill="#000000" fill-rule="nonzero" fill-opacity="1" /><path clip-path="url(#clip670)" d="M84.0938 186.298 L88.978 186.298 L88.978 192.177 L84.0938 192.177 L84.0938 186.298 Z" fill="#000000" fill-rule="nonzero" fill-opacity="1" /><path clip-path="url(#clip670)" d="M97.9826 157.617 L120.205 157.617 L120.205 159.608 L107.658 192.177 L102.774 192.177 L114.58 161.552 L97.9826 161.552 L97.9826 157.617 Z" fill="#000000" fill-rule="nonzero" fill-opacity="1" /><path clip-path="url(#clip670)" d="M129.371 157.617 L147.728 157.617 L147.728 161.552 L133.654 161.552 L133.654 170.025 Q134.672 169.677 135.691 169.515 Q136.709 169.33 137.728 169.33 Q143.515 169.33 146.894 172.501 Q150.274 175.673 150.274 181.089 Q150.274 186.668 146.802 189.77 Q143.33 192.849 137.01 192.849 Q134.834 192.849 132.566 192.478 Q130.32 192.108 127.913 191.367 L127.913 186.668 Q129.996 187.802 132.219 188.358 Q134.441 188.913 136.918 188.913 Q140.922 188.913 143.26 186.807 Q145.598 184.7 145.598 181.089 Q145.598 177.478 143.26 175.372 Q140.922 173.265 136.918 173.265 Q135.043 173.265 133.168 173.682 Q131.316 174.099 129.371 174.978 L129.371 157.617 Z" fill="#000000" fill-rule="nonzero" fill-opacity="1" /><polyline clip-path="url(#clip672)" style="stroke:#009af9; stroke-linecap:round; stroke-linejoin:round; stroke-width:4; stroke-opacity:1; fill:none" points="186.274,86.1857 188.443,92.716 190.611,99.1812 192.78,105.582 194.949,111.919 197.117,118.193 199.286,124.405 201.455,130.554 203.623,136.643 205.792,142.67 207.961,148.638 210.129,154.546 212.298,160.396 214.466,166.187 216.635,171.92 218.804,177.597 220.972,183.217 223.141,188.78 225.31,194.289 227.478,199.742 229.647,205.142 231.816,210.487 233.984,215.779 236.153,221.019 238.322,226.206 240.49,231.342 242.659,236.427 244.828,241.461 246.996,246.444 249.165,251.378 251.334,256.263 253.502,261.1 255.671,265.888 257.839,270.628 260.008,275.321 262.177,279.968 264.345,284.568 266.514,289.122 268.683,293.631 270.851,298.096 273.02,302.515 275.189,306.891 277.357,311.223 279.526,315.512 281.695,319.758 283.863,323.962 286.032,328.124 288.201,332.245 290.369,336.324 292.538,340.363 294.707,344.362 296.875,348.321 299.044,352.24 301.212,356.121 303.381,359.962 305.55,363.766 307.718,367.531 309.887,371.259 312.056,374.95 314.224,378.605 316.393,382.222 318.562,385.804 320.73,389.35 322.899,392.861 325.068,396.337 327.236,399.778 329.405,403.185 331.574,406.557 333.742,409.897 335.911,413.203 338.08,416.476 340.248,419.717 342.417,422.925 344.585,426.101 346.754,429.246 348.923,432.359 351.091,435.442 353.26,438.493 355.429,441.515 357.597,444.506 359.766,447.467 361.935,450.399 364.103,453.302 366.272,456.176 368.441,459.021 370.609,461.838 372.778,464.627 374.947,467.388 377.115,470.121 379.284,472.828 381.453,475.507 383.621,478.16 385.79,480.786 387.959,483.386 390.127,485.96 392.296,488.508 394.464,491.031 396.633,493.529 398.802,496.003 400.97,498.451 403.139,500.875 405.308,503.275 407.476,505.651 409.645,508.003 411.814,510.332 413.982,512.638 416.151,514.921 418.32,517.181 420.488,519.418 422.657,521.634 424.826,523.827 426.994,525.998 429.163,528.148 431.332,530.276 433.5,532.383 435.669,534.47 437.837,536.535 440.006,538.58 442.175,540.605 444.343,542.609 446.512,544.593 448.681,546.558 450.849,548.503 453.018,550.429 455.187,552.335 457.355,554.223 459.524,556.092 461.693,557.942 463.861,559.773 466.03,561.587 468.199,563.382 470.367,565.159 472.536,566.919 474.705,568.661 476.873,570.386 479.042,572.093 481.21,573.784 483.379,575.458 485.548,577.115 487.716,578.755 489.885,580.38 492.054,581.987 494.222,583.579 496.391,585.156 498.56,586.716 500.728,588.261 502.897,589.79 505.066,591.305 507.234,592.804 509.403,594.288 511.572,595.757 513.74,597.212 515.909,598.653 518.078,600.079 520.246,601.491 522.415,602.888 524.583,604.272 526.752,605.642 528.921,606.999 531.089,608.342 533.258,609.671 535.427,610.988 537.595,612.291 539.764,613.581 541.933,614.859 544.101,616.124 546.27,617.376 548.439,618.616 550.607,619.843 552.776,621.058 554.945,622.261 557.113,623.452 559.282,624.632 561.451,625.799 563.619,626.955 565.788,628.099 567.956,629.232 570.125,630.354 572.294,631.464 574.462,632.563 576.631,633.652 578.8,634.729 580.968,635.796 583.137,636.852 585.306,637.898 587.474,638.933 589.643,639.958 591.812,640.973 593.98,641.977 596.149,642.972 598.318,643.956 600.486,644.931 602.655,645.896 604.824,646.851 606.992,647.797 609.161,648.734 611.33,649.661 613.498,650.579 615.667,651.488 617.835,652.387 620.004,653.278 622.173,654.16 624.341,655.033 626.51,655.898 628.679,656.753 630.847,657.601 633.016,658.439 635.185,659.27 637.353,660.092 639.522,660.906 641.691,661.712 643.859,662.51 646.028,663.3 648.197,664.083 650.365,664.857 652.534,665.624 654.703,666.383 656.871,667.134 659.04,667.878 661.208,668.615 663.377,669.345 665.546,670.067 667.714,670.782 669.883,671.49 672.052,672.191 674.22,672.884 676.389,673.571 678.558,674.251 680.726,674.925 682.895,675.591 685.064,676.251 687.232,676.905 689.401,677.552 691.57,678.192 693.738,678.826 695.907,679.454 698.076,680.075 700.244,680.69 702.413,681.3 704.581,681.903 706.75,682.5 708.919,683.091 711.087,683.676 713.256,684.255 715.425,684.828 717.593,685.396 719.762,685.958 721.931,686.515 724.099,687.066 726.268,687.611 728.437,688.151 730.605,688.686 732.774,689.215 734.943,689.739 737.111,690.257 739.28,690.771 741.449,691.279 743.617,691.783 745.786,692.281 747.954,692.774 750.123,693.263 752.292,693.746 754.46,694.225 756.629,694.699 758.798,695.168 760.966,695.633 763.135,696.093 765.304,696.548 767.472,696.999 769.641,697.446 771.81,697.888 773.978,698.325 776.147,698.758 778.316,699.187 780.484,699.612 782.653,700.032 784.822,700.449 786.99,700.861 789.159,701.269 791.328,701.673 793.496,702.073 795.665,702.469 797.833,702.861 800.002,703.249 802.171,703.634 804.339,704.014 806.508,704.391 808.677,704.764 810.845,705.134 813.014,705.499 815.183,705.861 817.351,706.22 819.52,706.575 821.689,706.926 823.857,707.274 826.026,707.619 828.195,707.96 830.363,708.297 832.532,708.631 834.701,708.962 836.869,709.29 839.038,709.614 841.206,709.935 843.375,710.253 845.544,710.568 847.712,710.879 849.881,711.188 852.05,711.493 854.218,711.795 856.387,712.095 858.556,712.391 860.724,712.684 862.893,712.975 865.062,713.262 867.23,713.547 869.399,713.828 871.568,714.107 873.736,714.384 875.905,714.657 878.074,714.927 880.242,715.195 882.411,715.461 884.579,715.723 886.748,715.983 888.917,716.241 891.085,716.495 893.254,716.748 895.423,716.997 897.591,717.244 899.76,717.489 901.929,717.731 904.097,717.971 906.266,718.209 908.435,718.444 910.603,718.677 912.772,718.907 914.941,719.135 917.109,719.361 919.278,719.585 921.447,719.806 923.615,720.025 925.784,720.242 927.952,720.457 930.121,720.67 932.29,720.881 934.458,721.089 936.627,721.296 938.796,721.5 940.964,721.702 943.133,721.903 945.302,722.101 947.47,722.298 949.639,722.492 951.808,722.685 953.976,722.875 956.145,723.064 958.314,723.251 960.482,723.436 962.651,723.619 964.82,723.801 966.988,723.981 969.157,724.159 971.326,724.335 973.494,724.509 975.663,724.682 977.831,724.853 980,725.022 982.169,725.19 984.337,725.356 986.506,725.52 988.675,725.683 990.843,725.844 993.012,726.003 995.181,726.161 997.349,726.318 999.518,726.472 1001.69,726.626 1003.86,726.777 1006.02,726.927 1008.19,727.076 1010.36,727.223 1012.53,727.369 1014.7,727.513 1016.87,727.656 1019.04,727.797 1021.2,727.937 1023.37,728.076 1025.54,728.213 1027.71,728.349 1029.88,728.483 1032.05,728.616 1034.22,728.748 1036.39,728.878 1038.55,729.008 1040.72,729.135 1042.89,729.262 1045.06,729.387 1047.23,729.511 1049.4,729.634 1051.57,729.755 1053.73,729.876 1055.9,729.995 1058.07,730.113 1060.24,730.229 1062.41,730.345 1064.58,730.459 1066.75,730.572 1068.91,730.684 1071.08,730.795 1073.25,730.905 1075.42,731.014 1077.59,731.121 1079.76,731.228 1081.93,731.333 1084.1,731.438 1086.26,731.541 1088.43,731.643 1090.6,731.745 1092.77,731.845 1094.94,731.944 1097.11,732.043 1099.28,732.14 1101.44,732.236 1103.61,732.332 1105.78,732.426 1107.95,732.52 1110.12,732.612 1112.29,732.704 1114.46,732.794 1116.63,732.884 1118.79,732.973 1120.96,733.061 1123.13,733.148 1125.3,733.235 1127.47,733.32 1129.64,733.405 1131.81,733.489 1133.97,733.572 1136.14,733.654 1138.31,733.735 1140.48,733.816 1142.65,733.895 1144.82,733.974 1146.99,734.053 1149.15,734.13 1151.32,734.207 1153.49,734.283 1155.66,734.358 1157.83,734.433 1160,734.506 1162.17,734.579 1164.34,734.652 1166.5,734.723 1168.67,734.794 1170.84,734.865 1173.01,734.934 1175.18,735.003 1177.35,735.071 1179.52,735.139 1181.68,735.206 1183.85,735.272 1186.02,735.337 1188.19,735.402 1190.36,735.466 1192.53,735.53 1194.7,735.593 1196.87,735.655 1199.03,735.717 1201.2,735.778 1203.37,735.839 1205.54,735.899 1207.71,735.958 1209.88,736.016 1212.05,736.075 1214.21,736.132 1216.38,736.189 1218.55,736.245 1220.72,736.301 1222.89,736.357 1225.06,736.411 1227.23,736.465 1229.39,736.519 1231.56,736.572 1233.73,736.624 1235.9,736.676 1238.07,736.728 1240.24,736.779 1242.41,736.829 1244.58,736.879 1246.74,736.929 1248.91,736.977 1251.08,737.026 1253.25,737.074 1255.42,737.121 1257.59,737.168 1259.76,737.215 1261.92,737.261 1264.09,737.306 1266.26,737.351 1268.43,737.396 1270.6,737.44 1272.77,737.484 1274.94,737.527 1277.11,737.57 1279.27,737.612 1281.44,737.654 1283.61,737.696 1285.78,737.737 1287.95,737.777 1290.12,737.818 1292.29,737.858 1294.45,737.897 1296.62,737.936 1298.79,737.975 1300.96,738.013 1303.13,738.051 1305.3,738.088 1307.47,738.126 1309.63,738.162 1311.8,738.199 1313.97,738.235 1316.14,738.27 1318.31,738.306 1320.48,738.341 1322.65,738.375 1324.82,738.409 1326.98,738.443 1329.15,738.477 1331.32,738.51 1333.49,738.543 1335.66,738.576 1337.83,738.608 1340,738.64 1342.16,738.671 1344.33,738.703 1346.5,738.734 1348.67,738.765 1350.84,738.795 1353.01,738.825 1355.18,738.855 1357.35,738.884 1359.51,738.914 1361.68,738.943 1363.85,738.971 1366.02,739 1368.19,739.028 1370.36,739.056 1372.53,739.083 1374.69,739.111 1376.86,739.138 1379.03,739.165 1381.2,739.191 1383.37,739.218 1385.54,739.244 1387.71,739.27 1389.88,739.295 1392.04,739.321 1394.21,739.346 1396.38,739.371 1398.55,739.395 1400.72,739.42 1402.89,739.444 1405.06,739.468 1407.22,739.491 1409.39,739.515 1411.56,739.538 1413.73,739.561 1415.9,739.584 1418.07,739.606 1420.24,739.629 1422.4,739.651 1424.57,739.673 1426.74,739.694 1428.91,739.716 1431.08,739.737 1433.25,739.758 1435.42,739.779 1437.59,739.8 1439.75,739.82 1441.92,739.84 1444.09,739.86 1446.26,739.88 1448.43,739.899 1450.6,739.919 1452.77,739.938 1454.93,739.957 1457.1,739.976 1459.27,739.995 1461.44,740.013 1463.61,740.031 1465.78,740.049 1467.95,740.067 1470.12,740.085 1472.28,740.102 1474.45,740.12 1476.62,740.137 1478.79,740.154 1480.96,740.171 1483.13,740.187 1485.3,740.204 1487.46,740.22 1489.63,740.236 1491.8,740.252 1493.97,740.268 1496.14,740.283 1498.31,740.299 1500.48,740.314 1502.64,740.329 1504.81,740.344 1506.98,740.359 1509.15,740.374 1511.32,740.388 1513.49,740.403 1515.66,740.417 1517.83,740.431 1519.99,740.445 1522.16,740.459 1524.33,740.472 1526.5,740.486 1528.67,740.499 1530.84,740.512 1533.01,740.525 1535.17,740.538 1537.34,740.551 1539.51,740.564 1541.68,740.576 1543.85,740.589 1546.02,740.601 1548.19,740.613 1550.36,740.625 1552.52,740.637 1554.69,740.649 1556.86,740.661 1559.03,740.672 1561.2,740.684 1563.37,740.695 1565.54,740.706 1567.7,740.717 1569.87,740.728 1572.04,740.739 1574.21,740.75 1576.38,740.76 1578.55,740.771 1580.72,740.781 1582.88,740.792 1585.05,740.802 1587.22,740.812 1589.39,740.822 1591.56,740.832 1593.73,740.842 1595.9,740.851 1598.07,740.861 1600.23,740.871 1602.4,740.88 1604.57,740.889 1606.74,740.899 1608.91,740.908 1611.08,740.917 1613.25,740.926 1615.41,740.935 1617.58,740.944 1619.75,740.952 1621.92,740.961 1624.09,740.97 1626.26,740.978 1628.43,740.987 1630.6,740.995 1632.76,741.003 1634.93,741.012 1637.1,741.02 1639.27,741.028 1641.44,741.036 1643.61,741.044 1645.78,741.052 1647.94,741.059 1650.11,741.067 1652.28,741.075 1654.45,741.082 1656.62,741.09 1658.79,741.097 1660.96,741.105 1663.13,741.112 1665.29,741.119 1667.46,741.127 1669.63,741.134 1671.8,741.141 1673.97,741.148 1676.14,741.155 1678.31,741.161 1680.47,741.168 1682.64,741.175 1684.81,741.182 1686.98,741.188 1689.15,741.195 1691.32,741.201 1693.49,741.208 1695.65,741.214 1697.82,741.22 1699.99,741.226 1702.16,741.232 1704.33,741.239 1706.5,741.245 1708.67,741.251 1710.84,741.256 1713,741.262 1715.17,741.268 1717.34,741.274 1719.51,741.279 1721.68,741.285 1723.85,741.291 1726.02,741.296 1728.18,741.302 1730.35,741.307 1732.52,741.312 1734.69,741.318 1736.86,741.323 1739.03,741.328 1741.2,741.333 1743.37,741.338 1745.53,741.343 1747.7,741.348 1749.87,741.353 1752.04,741.358 1754.21,741.363 1756.38,741.367 1758.55,741.372 1760.71,741.377 1762.88,741.381 1765.05,741.386 1767.22,741.39 1769.39,741.395 1771.56,741.399 1773.73,741.404 1775.89,741.408 1778.06,741.412 1780.23,741.416 1782.4,741.42 1784.57,741.425 1786.74,741.429 1788.91,741.433 1791.08,741.437 1793.24,741.441 1795.41,741.445 1797.58,741.448 1799.75,741.452 1801.92,741.456 1804.09,741.46 1806.26,741.463 1808.42,741.467 1810.59,741.471 1812.76,741.474 1814.93,741.478 1817.1,741.481 1819.27,741.485 1821.44,741.488 1823.61,741.492 1825.77,741.495 1827.94,741.498 1830.11,741.502 1832.28,741.505 1834.45,741.508 1836.62,741.511 1838.79,741.514 1840.95,741.517 1843.12,741.52 1845.29,741.523 1847.46,741.526 1849.63,741.529 1851.8,741.532 1853.97,741.535 1856.13,741.538 1858.3,741.541 1860.47,741.544 1862.64,741.547 1864.81,741.549 1866.98,741.552 1869.15,741.555 1871.32,741.557 1873.48,741.56 1875.65,741.563 1877.82,741.565 1879.99,741.568 1882.16,741.57 1884.33,741.573 1886.5,741.575 1888.66,741.578 1890.83,741.58 1893,741.583 1895.17,741.585 1897.34,741.587 1899.51,741.59 1901.68,741.592 1903.85,741.594 1906.01,741.597 1908.18,741.599 1910.35,741.601 1912.52,741.603 1914.69,741.605 1916.86,741.608 1919.03,741.61 1921.19,741.612 1923.36,741.614 1925.53,741.616 1927.7,741.618 1929.87,741.62 1932.04,741.622 1934.21,741.624 1936.37,741.626 1938.54,741.629 1940.71,741.631 1942.88,741.633 1945.05,741.634 1947.22,741.636 1949.39,741.638 1951.56,741.64 1953.72,741.642 1955.89,741.644 1958.06,741.646 1960.23,741.648 1962.4,741.65 1964.57,741.652 1966.74,741.653 1968.9,741.655 1971.07,741.657 1973.24,741.659 1975.41,741.661 1977.58,741.662 1979.75,741.664 1981.92,741.666 1984.09,741.668 1986.25,741.669 1988.42,741.671 1990.59,741.673 1992.76,741.674 1994.93,741.676 1997.1,741.677 1999.27,741.679 2001.43,741.681 2003.6,741.682 2005.77,741.684 2007.94,741.685 2010.11,741.687 2012.28,741.688 2014.45,741.69 2016.62,741.691 2018.78,741.693 2020.95,741.694 2023.12,741.696 2025.29,741.697 2027.46,741.699 2029.63,741.7 2031.8,741.701 2033.96,741.703 2036.13,741.704 2038.3,741.705 2040.47,741.707 2042.64,741.708 2044.81,741.709 2046.98,741.711 2049.14,741.712 2051.31,741.713 2053.48,741.714 2055.65,741.716 2057.82,741.717 2059.99,741.718 2062.16,741.719 2064.33,741.72 2066.49,741.722 2068.66,741.723 2070.83,741.724 2073,741.725 2075.17,741.726 2077.34,741.727 2079.51,741.728 2081.67,741.729 2083.84,741.73 2086.01,741.732 2088.18,741.733 2090.35,741.734 2092.52,741.735 2094.69,741.736 2096.86,741.737 2099.02,741.738 2101.19,741.739 2103.36,741.74 2105.53,741.741 2107.7,741.741 2109.87,741.742 2112.04,741.743 2114.2,741.744 2116.37,741.745 2118.54,741.746 2120.71,741.747 2122.88,741.748 2125.05,741.749 2127.22,741.749 2129.38,741.75 2131.55,741.751 2133.72,741.752 2135.89,741.753 2138.06,741.753 2140.23,741.754 2142.4,741.755 2144.57,741.756 2146.73,741.757 2148.9,741.757 2151.07,741.758 2153.24,741.759 2155.41,741.759 2157.58,741.76 2159.75,741.761 2161.91,741.762 2164.08,741.762 2166.25,741.763 2168.42,741.764 2170.59,741.764 2172.76,741.765 2174.93,741.766 2177.1,741.766 2179.26,741.767 2181.43,741.767 2183.6,741.768 2185.77,741.769 2187.94,741.769 2190.11,741.77 2192.28,741.77 2194.44,741.771 2196.61,741.772 2198.78,741.772 2200.95,741.773 2203.12,741.773 2205.29,741.774 2207.46,741.774 2209.62,741.775 2211.79,741.775 2213.96,741.776 2216.13,741.776 2218.3,741.777 2220.47,741.777 2222.64,741.778 2224.81,741.778 2226.97,741.779 2229.14,741.779 2231.31,741.78 2233.48,741.78 2235.65,741.781 2237.82,741.781 2239.99,741.782 2242.15,741.782 2244.32,741.782 2246.49,741.783 2248.66,741.783 2250.83,741.784 2253,741.784 2255.17,741.785 2257.34,741.785 2259.5,741.785 2261.67,741.786 2263.84,741.786 2266.01,741.787 2268.18,741.787 2270.35,741.787 2272.52,741.788 2274.68,741.788 2276.85,741.789 2279.02,741.789 2281.19,741.789 2283.36,741.79 2285.53,741.79 2287.7,741.791 2289.87,741.791 2292.03,741.791 2294.2,741.792 2296.37,741.792 2298.54,741.792 2300.71,741.793 2302.88,741.793 2305.05,741.794 2307.21,741.794 2309.38,741.794 2311.55,741.795 2313.72,741.795 2315.89,741.795 2318.06,741.796 2320.23,741.796 2322.39,741.797 2324.56,741.797 2326.73,741.797 2328.9,741.798 2331.07,741.798 2333.24,741.798 2335.41,741.799 2337.58,741.799 2339.74,741.799 2341.91,741.8 2344.08,741.8 2346.25,741.8 2348.42,741.801 2350.59,741.801 2352.76,741.801 "/>
<polyline clip-path="url(#clip672)" style="stroke:#e26f46; stroke-linecap:round; stroke-linejoin:round; stroke-width:4; stroke-opacity:1; fill:none" points="186.274,1384.24 188.443,1378.24 190.611,1372.3 192.78,1366.42 194.949,1360.6 197.117,1354.83 199.286,1349.11 201.455,1343.45 203.623,1337.85 205.792,1332.29 207.961,1326.79 210.129,1321.35 212.298,1315.95 214.466,1310.61 216.635,1305.31 218.804,1300.07 220.972,1294.88 223.141,1289.74 225.31,1284.64 227.478,1279.6 229.647,1274.6 231.816,1269.65 233.984,1264.75 236.153,1259.89 238.322,1255.08 240.49,1250.32 242.659,1245.6 244.828,1240.93 246.996,1236.3 249.165,1231.72 251.334,1227.18 253.502,1222.68 255.671,1218.22 257.839,1213.81 260.008,1209.44 262.177,1205.11 264.345,1200.82 266.514,1196.57 268.683,1192.37 270.851,1188.2 273.02,1184.07 275.189,1179.99 277.357,1175.94 279.526,1171.92 281.695,1167.95 283.863,1164.02 286.032,1160.12 288.201,1156.26 290.369,1152.43 292.538,1148.65 294.707,1144.89 296.875,1141.18 299.044,1137.5 301.212,1133.85 303.381,1130.24 305.55,1126.66 307.718,1123.12 309.887,1119.61 312.056,1116.13 314.224,1112.69 316.393,1109.28 318.562,1105.9 320.73,1102.55 322.899,1099.23 325.068,1095.95 327.236,1092.7 329.405,1089.47 331.574,1086.28 333.742,1083.12 335.911,1079.99 338.08,1076.89 340.248,1073.82 342.417,1070.77 344.585,1067.76 346.754,1064.77 348.923,1061.81 351.091,1058.88 353.26,1055.98 355.429,1053.1 357.597,1050.25 359.766,1047.43 361.935,1044.64 364.103,1041.87 366.272,1039.13 368.441,1036.41 370.609,1033.72 372.778,1031.05 374.947,1028.41 377.115,1025.8 379.284,1023.21 381.453,1020.64 383.621,1018.1 385.79,1015.58 387.959,1013.08 390.127,1010.61 392.296,1008.16 394.464,1005.74 396.633,1003.34 398.802,1000.96 400.97,998.6 403.139,996.265 405.308,993.952 407.476,991.66 409.645,989.39 411.814,987.141 413.982,984.913 416.151,982.706 418.32,980.52 420.488,978.355 422.657,976.209 424.826,974.084 426.994,971.979 429.163,969.893 431.332,967.827 433.5,965.78 435.669,963.753 437.837,961.744 440.006,959.754 442.175,957.783 444.343,955.83 446.512,953.896 448.681,951.979 450.849,950.081 453.018,948.2 455.187,946.336 457.355,944.491 459.524,942.662 461.693,940.851 463.861,939.056 466.03,937.278 468.199,935.517 470.367,933.772 472.536,932.044 474.705,930.332 476.873,928.635 479.042,926.955 481.21,925.29 483.379,923.641 485.548,922.007 487.716,920.388 489.885,918.784 492.054,917.196 494.222,915.622 496.391,914.062 498.56,912.517 500.728,910.987 502.897,909.471 505.066,907.969 507.234,906.481 509.403,905.006 511.572,903.546 513.74,902.099 515.909,900.665 518.078,899.245 520.246,897.837 522.415,896.443 524.583,895.062 526.752,893.694 528.921,892.338 531.089,890.995 533.258,889.664 535.427,888.345 537.595,887.039 539.764,885.745 541.933,884.463 544.101,883.192 546.27,881.934 548.439,880.687 550.607,879.451 552.776,878.227 554.945,877.014 557.113,875.813 559.282,874.622 561.451,873.443 563.619,872.274 565.788,871.117 567.956,869.97 570.125,868.833 572.294,867.707 574.462,866.592 576.631,865.486 578.8,864.391 580.968,863.306 583.137,862.231 585.306,861.166 587.474,860.111 589.643,859.066 591.812,858.03 593.98,857.003 596.149,855.986 598.318,854.979 600.486,853.981 602.655,852.992 604.824,852.012 606.992,851.041 609.161,850.078 611.33,849.125 613.498,848.181 615.667,847.245 617.835,846.318 620.004,845.399 622.173,844.489 624.341,843.587 626.51,842.693 628.679,841.807 630.847,840.93 633.016,840.06 635.185,839.199 637.353,838.345 639.522,837.5 641.691,836.662 643.859,835.831 646.028,835.008 648.197,834.193 650.365,833.385 652.534,832.584 654.703,831.791 656.871,831.005 659.04,830.226 661.208,829.454 663.377,828.689 665.546,827.932 667.714,827.181 669.883,826.436 672.052,825.699 674.22,824.968 676.389,824.244 678.558,823.527 680.726,822.816 682.895,822.112 685.064,821.414 687.232,820.722 689.401,820.037 691.57,819.358 693.738,818.685 695.907,818.018 698.076,817.357 700.244,816.702 702.413,816.053 704.581,815.41 706.75,814.773 708.919,814.142 711.087,813.516 713.256,812.897 715.425,812.282 717.593,811.674 719.762,811.07 721.931,810.473 724.099,809.88 726.268,809.294 728.437,808.712 730.605,808.136 732.774,807.564 734.943,806.999 737.111,806.438 739.28,805.882 741.449,805.331 743.617,804.785 745.786,804.244 747.954,803.708 750.123,803.177 752.292,802.651 754.46,802.129 756.629,801.612 758.798,801.1 760.966,800.592 763.135,800.089 765.304,799.591 767.472,799.096 769.641,798.607 771.81,798.121 773.978,797.64 776.147,797.164 778.316,796.691 780.484,796.223 782.653,795.759 784.822,795.299 786.99,794.843 789.159,794.392 791.328,793.944 793.496,793.5 795.665,793.061 797.833,792.625 800.002,792.193 802.171,791.765 804.339,791.34 806.508,790.92 808.677,790.503 810.845,790.09 813.014,789.68 815.183,789.275 817.351,788.872 819.52,788.474 821.689,788.079 823.857,787.687 826.026,787.299 828.195,786.915 830.363,786.533 832.532,786.156 834.701,785.781 836.869,785.41 839.038,785.042 841.206,784.678 843.375,784.317 845.544,783.959 847.712,783.604 849.881,783.252 852.05,782.903 854.218,782.558 856.387,782.216 858.556,781.876 860.724,781.54 862.893,781.207 865.062,780.876 867.23,780.549 869.399,780.224 871.568,779.902 873.736,779.584 875.905,779.268 878.074,778.954 880.242,778.644 882.411,778.336 884.579,778.031 886.748,777.729 888.917,777.43 891.085,777.133 893.254,776.838 895.423,776.547 897.591,776.257 899.76,775.971 901.929,775.687 904.097,775.405 906.266,775.126 908.435,774.85 910.603,774.575 912.772,774.303 914.941,774.034 917.109,773.767 919.278,773.502 921.447,773.24 923.615,772.98 925.784,772.722 927.952,772.466 930.121,772.213 932.29,771.962 934.458,771.713 936.627,771.466 938.796,771.221 940.964,770.979 943.133,770.739 945.302,770.5 947.47,770.264 949.639,770.03 951.808,769.798 953.976,769.567 956.145,769.339 958.314,769.113 960.482,768.889 962.651,768.666 964.82,768.446 966.988,768.227 969.157,768.011 971.326,767.796 973.494,767.583 975.663,767.372 977.831,767.162 980,766.955 982.169,766.749 984.337,766.545 986.506,766.343 988.675,766.143 990.843,765.944 993.012,765.747 995.181,765.552 997.349,765.358 999.518,765.166 1001.69,764.976 1003.86,764.787 1006.02,764.6 1008.19,764.415 1010.36,764.231 1012.53,764.049 1014.7,763.868 1016.87,763.689 1019.04,763.512 1021.2,763.336 1023.37,763.161 1025.54,762.989 1027.71,762.817 1029.88,762.647 1032.05,762.479 1034.22,762.312 1036.39,762.146 1038.55,761.982 1040.72,761.819 1042.89,761.658 1045.06,761.498 1047.23,761.339 1049.4,761.182 1051.57,761.026 1053.73,760.872 1055.9,760.719 1058.07,760.567 1060.24,760.416 1062.41,760.267 1064.58,760.119 1066.75,759.972 1068.91,759.827 1071.08,759.683 1073.25,759.54 1075.42,759.398 1077.59,759.257 1079.76,759.118 1081.93,758.98 1084.1,758.843 1086.26,758.707 1088.43,758.573 1090.6,758.439 1092.77,758.307 1094.94,758.176 1097.11,758.045 1099.28,757.916 1101.44,757.789 1103.61,757.662 1105.78,757.536 1107.95,757.411 1110.12,757.288 1112.29,757.165 1114.46,757.043 1116.63,756.923 1118.79,756.803 1120.96,756.685 1123.13,756.567 1125.3,756.451 1127.47,756.335 1129.64,756.221 1131.81,756.107 1133.97,755.994 1136.14,755.882 1138.31,755.772 1140.48,755.662 1142.65,755.553 1144.82,755.445 1146.99,755.337 1149.15,755.231 1151.32,755.125 1153.49,755.021 1155.66,754.917 1157.83,754.814 1160,754.712 1162.17,754.611 1164.34,754.511 1166.5,754.411 1168.67,754.312 1170.84,754.214 1173.01,754.117 1175.18,754.021 1177.35,753.925 1179.52,753.831 1181.68,753.737 1183.85,753.644 1186.02,753.551 1188.19,753.46 1190.36,753.369 1192.53,753.279 1194.7,753.189 1196.87,753.101 1199.03,753.013 1201.2,752.926 1203.37,752.839 1205.54,752.753 1207.71,752.668 1209.88,752.584 1212.05,752.5 1214.21,752.418 1216.38,752.335 1218.55,752.254 1220.72,752.173 1222.89,752.093 1225.06,752.013 1227.23,751.934 1229.39,751.856 1231.56,751.779 1233.73,751.702 1235.9,751.626 1238.07,751.55 1240.24,751.475 1242.41,751.401 1244.58,751.327 1246.74,751.254 1248.91,751.181 1251.08,751.109 1253.25,751.038 1255.42,750.967 1257.59,750.897 1259.76,750.827 1261.92,750.758 1264.09,750.69 1266.26,750.622 1268.43,750.555 1270.6,750.488 1272.77,750.422 1274.94,750.356 1277.11,750.291 1279.27,750.227 1281.44,750.163 1283.61,750.099 1285.78,750.036 1287.95,749.974 1290.12,749.912 1292.29,749.85 1294.45,749.789 1296.62,749.729 1298.79,749.669 1300.96,749.61 1303.13,749.551 1305.3,749.492 1307.47,749.434 1309.63,749.377 1311.8,749.32 1313.97,749.263 1316.14,749.207 1318.31,749.151 1320.48,749.096 1322.65,749.041 1324.82,748.987 1326.98,748.933 1329.15,748.879 1331.32,748.826 1333.49,748.774 1335.66,748.722 1337.83,748.67 1340,748.618 1342.16,748.568 1344.33,748.517 1346.5,748.467 1348.67,748.417 1350.84,748.368 1353.01,748.319 1355.18,748.27 1357.35,748.222 1359.51,748.174 1361.68,748.127 1363.85,748.08 1366.02,748.033 1368.19,747.986 1370.36,747.94 1372.53,747.895 1374.69,747.85 1376.86,747.805 1379.03,747.76 1381.2,747.716 1383.37,747.672 1385.54,747.628 1387.71,747.585 1389.88,747.542 1392.04,747.499 1394.21,747.457 1396.38,747.415 1398.55,747.374 1400.72,747.332 1402.89,747.292 1405.06,747.251 1407.22,747.211 1409.39,747.171 1411.56,747.131 1413.73,747.092 1415.9,747.052 1418.07,747.014 1420.24,746.975 1422.4,746.937 1424.57,746.899 1426.74,746.862 1428.91,746.824 1431.08,746.787 1433.25,746.751 1435.42,746.714 1437.59,746.678 1439.75,746.642 1441.92,746.607 1444.09,746.572 1446.26,746.537 1448.43,746.502 1450.6,746.468 1452.77,746.433 1454.93,746.4 1457.1,746.366 1459.27,746.333 1461.44,746.299 1463.61,746.267 1465.78,746.234 1467.95,746.202 1470.12,746.17 1472.28,746.138 1474.45,746.106 1476.62,746.075 1478.79,746.044 1480.96,746.013 1483.13,745.983 1485.3,745.953 1487.46,745.922 1489.63,745.893 1491.8,745.863 1493.97,745.834 1496.14,745.805 1498.31,745.776 1500.48,745.747 1502.64,745.719 1504.81,745.69 1506.98,745.662 1509.15,745.635 1511.32,745.607 1513.49,745.58 1515.66,745.553 1517.83,745.526 1519.99,745.499 1522.16,745.473 1524.33,745.446 1526.5,745.42 1528.67,745.395 1530.84,745.369 1533.01,745.343 1535.17,745.318 1537.34,745.293 1539.51,745.268 1541.68,745.244 1543.85,745.219 1546.02,745.195 1548.19,745.171 1550.36,745.147 1552.52,745.123 1554.69,745.1 1556.86,745.077 1559.03,745.053 1561.2,745.03 1563.37,745.008 1565.54,744.985 1567.7,744.963 1569.87,744.94 1572.04,744.918 1574.21,744.896 1576.38,744.874 1578.55,744.853 1580.72,744.831 1582.88,744.81 1585.05,744.789 1587.22,744.768 1589.39,744.747 1591.56,744.727 1593.73,744.706 1595.9,744.686 1598.07,744.666 1600.23,744.646 1602.4,744.626 1604.57,744.606 1606.74,744.587 1608.91,744.567 1611.08,744.548 1613.25,744.529 1615.41,744.51 1617.58,744.491 1619.75,744.472 1621.92,744.453 1624.09,744.435 1626.26,744.417 1628.43,744.398 1630.6,744.38 1632.76,744.362 1634.93,744.344 1637.1,744.327 1639.27,744.309 1641.44,744.292 1643.61,744.274 1645.78,744.257 1647.94,744.24 1650.11,744.223 1652.28,744.206 1654.45,744.189 1656.62,744.173 1658.79,744.156 1660.96,744.14 1663.13,744.124 1665.29,744.107 1667.46,744.091 1669.63,744.076 1671.8,744.06 1673.97,744.044 1676.14,744.028 1678.31,744.013 1680.47,743.998 1682.64,743.982 1684.81,743.967 1686.98,743.952 1689.15,743.937 1691.32,743.923 1693.49,743.908 1695.65,743.893 1697.82,743.879 1699.99,743.865 1702.16,743.85 1704.33,743.836 1706.5,743.822 1708.67,743.808 1710.84,743.794 1713,743.781 1715.17,743.767 1717.34,743.753 1719.51,743.74 1721.68,743.727 1723.85,743.713 1726.02,743.7 1728.18,743.687 1730.35,743.674 1732.52,743.662 1734.69,743.649 1736.86,743.636 1739.03,743.624 1741.2,743.611 1743.37,743.599 1745.53,743.587 1747.7,743.574 1749.87,743.562 1752.04,743.55 1754.21,743.538 1756.38,743.527 1758.55,743.515 1760.71,743.503 1762.88,743.492 1765.05,743.48 1767.22,743.469 1769.39,743.458 1771.56,743.446 1773.73,743.435 1775.89,743.424 1778.06,743.413 1780.23,743.402 1782.4,743.392 1784.57,743.381 1786.74,743.37 1788.91,743.36 1791.08,743.349 1793.24,743.339 1795.41,743.329 1797.58,743.318 1799.75,743.308 1801.92,743.298 1804.09,743.288 1806.26,743.278 1808.42,743.268 1810.59,743.259 1812.76,743.249 1814.93,743.239 1817.1,743.23 1819.27,743.22 1821.44,743.211 1823.61,743.202 1825.77,743.192 1827.94,743.183 1830.11,743.174 1832.28,743.165 1834.45,743.156 1836.62,743.147 1838.79,743.138 1840.95,743.129 1843.12,743.121 1845.29,743.112 1847.46,743.103 1849.63,743.095 1851.8,743.086 1853.97,743.078 1856.13,743.07 1858.3,743.061 1860.47,743.053 1862.64,743.045 1864.81,743.037 1866.98,743.029 1869.15,743.021 1871.32,743.013 1873.48,743.005 1875.65,742.997 1877.82,742.989 1879.99,742.982 1882.16,742.974 1884.33,742.966 1886.5,742.959 1888.66,742.951 1890.83,742.944 1893,742.937 1895.17,742.929 1897.34,742.922 1899.51,742.915 1901.68,742.908 1903.85,742.9 1906.01,742.893 1908.18,742.886 1910.35,742.879 1912.52,742.872 1914.69,742.865 1916.86,742.859 1919.03,742.852 1921.19,742.845 1923.36,742.838 1925.53,742.832 1927.7,742.825 1929.87,742.818 1932.04,742.812 1934.21,742.805 1936.37,742.799 1938.54,742.792 1940.71,742.786 1942.88,742.78 1945.05,742.773 1947.22,742.767 1949.39,742.761 1951.56,742.755 1953.72,742.748 1955.89,742.742 1958.06,742.736 1960.23,742.73 1962.4,742.724 1964.57,742.718 1966.74,742.712 1968.9,742.706 1971.07,742.701 1973.24,742.695 1975.41,742.689 1977.58,742.683 1979.75,742.678 1981.92,742.672 1984.09,742.666 1986.25,742.661 1988.42,742.655 1990.59,742.65 1992.76,742.644 1994.93,742.639 1997.1,742.633 1999.27,742.628 2001.43,742.623 2003.6,742.617 2005.77,742.612 2007.94,742.607 2010.11,742.602 2012.28,742.597 2014.45,742.592 2016.62,742.587 2018.78,742.581 2020.95,742.576 2023.12,742.572 2025.29,742.567 2027.46,742.562 2029.63,742.557 2031.8,742.552 2033.96,742.547 2036.13,742.542 2038.3,742.538 2040.47,742.533 2042.64,742.528 2044.81,742.524 2046.98,742.519 2049.14,742.515 2051.31,742.51 2053.48,742.505 2055.65,742.501 2057.82,742.497 2059.99,742.492 2062.16,742.488 2064.33,742.483 2066.49,742.479 2068.66,742.475 2070.83,742.471 2073,742.466 2075.17,742.462 2077.34,742.458 2079.51,742.454 2081.67,742.45 2083.84,742.446 2086.01,742.442 2088.18,742.438 2090.35,742.434 2092.52,742.43 2094.69,742.426 2096.86,742.422 2099.02,742.418 2101.19,742.414 2103.36,742.41 2105.53,742.407 2107.7,742.403 2109.87,742.399 2112.04,742.395 2114.2,742.392 2116.37,742.388 2118.54,742.384 2120.71,742.381 2122.88,742.377 2125.05,742.374 2127.22,742.37 2129.38,742.367 2131.55,742.363 2133.72,742.36 2135.89,742.356 2138.06,742.353 2140.23,742.35 2142.4,742.346 2144.57,742.343 2146.73,742.34 2148.9,742.336 2151.07,742.333 2153.24,742.33 2155.41,742.327 2157.58,742.323 2159.75,742.32 2161.91,742.317 2164.08,742.314 2166.25,742.311 2168.42,742.308 2170.59,742.305 2172.76,742.302 2174.93,742.299 2177.1,742.296 2179.26,742.293 2181.43,742.29 2183.6,742.287 2185.77,742.284 2187.94,742.281 2190.11,742.278 2192.28,742.276 2194.44,742.273 2196.61,742.27 2198.78,742.267 2200.95,742.265 2203.12,742.262 2205.29,742.259 2207.46,742.256 2209.62,742.254 2211.79,742.251 2213.96,742.248 2216.13,742.246 2218.3,742.243 2220.47,742.241 2222.64,742.238 2224.81,742.236 2226.97,742.233 2229.14,742.23 2231.31,742.228 2233.48,742.226 2235.65,742.223 2237.82,742.221 2239.99,742.218 2242.15,742.216 2244.32,742.213 2246.49,742.211 2248.66,742.209 2250.83,742.206 2253,742.204 2255.17,742.202 2257.34,742.199 2259.5,742.197 2261.67,742.195 2263.84,742.192 2266.01,742.19 2268.18,742.188 2270.35,742.186 2272.52,742.184 2274.68,742.181 2276.85,742.179 2279.02,742.177 2281.19,742.175 2283.36,742.173 2285.53,742.171 2287.7,742.168 2289.87,742.166 2292.03,742.164 2294.2,742.162 2296.37,742.16 2298.54,742.158 2300.71,742.156 2302.88,742.154 2305.05,742.152 2307.21,742.15 2309.38,742.148 2311.55,742.146 2313.72,742.144 2315.89,742.142 2318.06,742.14 2320.23,742.138 2322.39,742.136 2324.56,742.134 2326.73,742.132 2328.9,742.13 2331.07,742.128 2333.24,742.126 2335.41,742.124 2337.58,742.123 2339.74,742.121 2341.91,742.119 2344.08,742.117 2346.25,742.115 2348.42,742.113 2350.59,742.112 2352.76,742.11 "/>
<path clip-path="url(#clip670)" d="M1804.49 248.629 L2280.54 248.629 L2280.54 93.1086 L1804.49 93.1086  Z" fill="#ffffff" fill-rule="evenodd" fill-opacity="1"/>
<polyline clip-path="url(#clip670)" style="stroke:#000000; stroke-linecap:round; stroke-linejoin:round; stroke-width:4; stroke-opacity:1; fill:none" points="1804.49,248.629 2280.54,248.629 2280.54,93.1086 1804.49,93.1086 1804.49,248.629 "/>
<polyline clip-path="url(#clip670)" style="stroke:#009af9; stroke-linecap:round; stroke-linejoin:round; stroke-width:4; stroke-opacity:1; fill:none" points="1828.57,144.949 1973,144.949 "/>
<path clip-path="url(#clip670)" d="M1997.07 136.303 L2001.58 136.303 L2009.69 158.062 L2017.79 136.303 L2022.3 136.303 L2012.58 162.229 L2006.79 162.229 L1997.07 136.303 Z" fill="#000000" fill-rule="nonzero" fill-opacity="1" /><path clip-path="url(#clip670)" d="M2029.59 158.293 L2037.23 158.293 L2037.23 131.928 L2028.92 133.595 L2028.92 129.335 L2037.19 127.669 L2041.86 127.669 L2041.86 158.293 L2049.5 158.293 L2049.5 162.229 L2029.59 162.229 L2029.59 158.293 Z" fill="#000000" fill-rule="nonzero" fill-opacity="1" /><path clip-path="url(#clip670)" d="M2067.6 145.585 L2067.6 152.807 L2075.73 152.807 L2075.73 155.006 L2067.6 155.006 L2067.6 162.229 L2065.17 162.229 L2065.17 155.006 L2057.05 155.006 L2057.05 152.807 L2065.17 152.807 L2065.17 145.585 L2067.6 145.585 Z" fill="#000000" fill-rule="nonzero" fill-opacity="1" /><path clip-path="url(#clip670)" d="M2099.89 137.067 L2099.89 141.094 Q2098.09 140.169 2096.14 139.706 Q2094.2 139.243 2092.12 139.243 Q2088.95 139.243 2087.35 140.215 Q2085.77 141.187 2085.77 143.131 Q2085.77 144.613 2086.91 145.469 Q2088.04 146.303 2091.47 147.067 L2092.93 147.391 Q2097.46 148.363 2099.36 150.145 Q2101.28 151.905 2101.28 155.076 Q2101.28 158.687 2098.41 160.793 Q2095.57 162.9 2090.57 162.9 Q2088.48 162.9 2086.21 162.483 Q2083.97 162.09 2081.47 161.28 L2081.47 156.881 Q2083.83 158.108 2086.12 158.733 Q2088.41 159.335 2090.66 159.335 Q2093.67 159.335 2095.29 158.317 Q2096.91 157.275 2096.91 155.4 Q2096.91 153.664 2095.73 152.738 Q2094.57 151.812 2090.61 150.956 L2089.13 150.608 Q2085.17 149.775 2083.41 148.062 Q2081.65 146.326 2081.65 143.317 Q2081.65 139.659 2084.25 137.669 Q2086.84 135.678 2091.61 135.678 Q2093.97 135.678 2096.05 136.025 Q2098.14 136.372 2099.89 137.067 Z" fill="#000000" fill-rule="nonzero" fill-opacity="1" /><path clip-path="url(#clip670)" d="M2112.28 128.942 L2112.28 136.303 L2121.05 136.303 L2121.05 139.613 L2112.28 139.613 L2112.28 153.687 Q2112.28 156.858 2113.14 157.761 Q2114.01 158.664 2116.68 158.664 L2121.05 158.664 L2121.05 162.229 L2116.68 162.229 Q2111.75 162.229 2109.87 160.4 Q2108 158.548 2108 153.687 L2108 139.613 L2104.87 139.613 L2104.87 136.303 L2108 136.303 L2108 128.942 L2112.28 128.942 Z" fill="#000000" fill-rule="nonzero" fill-opacity="1" /><path clip-path="url(#clip670)" d="M2136.7 139.289 Q2133.27 139.289 2131.28 141.974 Q2129.29 144.636 2129.29 149.289 Q2129.29 153.942 2131.26 156.627 Q2133.25 159.289 2136.7 159.289 Q2140.1 159.289 2142.09 156.604 Q2144.08 153.918 2144.08 149.289 Q2144.08 144.682 2142.09 141.997 Q2140.1 139.289 2136.7 139.289 M2136.7 135.678 Q2142.26 135.678 2145.43 139.289 Q2148.6 142.9 2148.6 149.289 Q2148.6 155.655 2145.43 159.289 Q2142.26 162.9 2136.7 162.9 Q2131.12 162.9 2127.95 159.289 Q2124.8 155.655 2124.8 149.289 Q2124.8 142.9 2127.95 139.289 Q2131.12 135.678 2136.7 135.678 Z" fill="#000000" fill-rule="nonzero" fill-opacity="1" /><path clip-path="url(#clip670)" d="M2170.68 140.284 Q2169.96 139.868 2169.11 139.682 Q2168.27 139.474 2167.26 139.474 Q2163.64 139.474 2161.7 141.835 Q2159.78 144.173 2159.78 148.571 L2159.78 162.229 L2155.5 162.229 L2155.5 136.303 L2159.78 136.303 L2159.78 140.331 Q2161.12 137.969 2163.27 136.835 Q2165.43 135.678 2168.51 135.678 Q2168.95 135.678 2169.48 135.747 Q2170.01 135.794 2170.66 135.909 L2170.68 140.284 Z" fill="#000000" fill-rule="nonzero" fill-opacity="1" /><path clip-path="url(#clip670)" d="M2186.93 149.196 Q2181.77 149.196 2179.78 150.377 Q2177.79 151.557 2177.79 154.405 Q2177.79 156.673 2179.27 158.016 Q2180.77 159.335 2183.34 159.335 Q2186.88 159.335 2189.01 156.835 Q2191.17 154.312 2191.17 150.145 L2191.17 149.196 L2186.93 149.196 M2195.43 147.437 L2195.43 162.229 L2191.17 162.229 L2191.17 158.293 Q2189.71 160.655 2187.53 161.789 Q2185.36 162.9 2182.21 162.9 Q2178.23 162.9 2175.87 160.678 Q2173.53 158.432 2173.53 154.682 Q2173.53 150.307 2176.45 148.085 Q2179.38 145.863 2185.2 145.863 L2191.17 145.863 L2191.17 145.446 Q2191.17 142.507 2189.22 140.909 Q2187.3 139.289 2183.81 139.289 Q2181.58 139.289 2179.48 139.821 Q2177.37 140.354 2175.43 141.419 L2175.43 137.483 Q2177.76 136.581 2179.96 136.141 Q2182.16 135.678 2184.25 135.678 Q2189.87 135.678 2192.65 138.594 Q2195.43 141.511 2195.43 147.437 Z" fill="#000000" fill-rule="nonzero" fill-opacity="1" /><path clip-path="url(#clip670)" d="M2221.26 148.965 Q2221.26 144.335 2219.34 141.789 Q2217.44 139.243 2213.99 139.243 Q2210.57 139.243 2208.64 141.789 Q2206.75 144.335 2206.75 148.965 Q2206.75 153.571 2208.64 156.118 Q2210.57 158.664 2213.99 158.664 Q2217.44 158.664 2219.34 156.118 Q2221.26 153.571 2221.26 148.965 M2225.52 159.011 Q2225.52 165.631 2222.58 168.849 Q2219.64 172.09 2213.57 172.09 Q2211.33 172.09 2209.34 171.742 Q2207.35 171.418 2205.47 170.724 L2205.47 166.58 Q2207.35 167.599 2209.18 168.085 Q2211.01 168.571 2212.9 168.571 Q2217.09 168.571 2219.18 166.372 Q2221.26 164.196 2221.26 159.775 L2221.26 157.668 Q2219.94 159.96 2217.88 161.094 Q2215.82 162.229 2212.95 162.229 Q2208.18 162.229 2205.26 158.594 Q2202.35 154.96 2202.35 148.965 Q2202.35 142.946 2205.26 139.312 Q2208.18 135.678 2212.95 135.678 Q2215.82 135.678 2217.88 136.812 Q2219.94 137.946 2221.26 140.238 L2221.26 136.303 L2225.52 136.303 L2225.52 159.011 Z" fill="#000000" fill-rule="nonzero" fill-opacity="1" /><path clip-path="url(#clip670)" d="M2256.47 148.201 L2256.47 150.284 L2236.88 150.284 Q2237.16 154.682 2239.52 156.997 Q2241.91 159.289 2246.14 159.289 Q2248.6 159.289 2250.89 158.687 Q2253.2 158.085 2255.47 156.881 L2255.47 160.909 Q2253.18 161.881 2250.77 162.391 Q2248.37 162.9 2245.89 162.9 Q2239.69 162.9 2236.05 159.289 Q2232.44 155.678 2232.44 149.52 Q2232.44 143.155 2235.87 139.428 Q2239.32 135.678 2245.15 135.678 Q2250.38 135.678 2253.41 139.057 Q2256.47 142.414 2256.47 148.201 M2252.21 146.951 Q2252.16 143.456 2250.24 141.372 Q2248.34 139.289 2245.19 139.289 Q2241.63 139.289 2239.48 141.303 Q2237.35 143.317 2237.02 146.974 L2252.21 146.951 Z" fill="#000000" fill-rule="nonzero" fill-opacity="1" /><polyline clip-path="url(#clip670)" style="stroke:#e26f46; stroke-linecap:round; stroke-linejoin:round; stroke-width:4; stroke-opacity:1; fill:none" points="1828.57,196.789 1973,196.789 "/>
<path clip-path="url(#clip670)" d="M1997.07 188.143 L2001.58 188.143 L2009.69 209.902 L2017.79 188.143 L2022.3 188.143 L2012.58 214.069 L2006.79 214.069 L1997.07 188.143 Z" fill="#000000" fill-rule="nonzero" fill-opacity="1" /><path clip-path="url(#clip670)" d="M2028.83 179.509 L2047.19 179.509 L2047.19 183.444 L2033.11 183.444 L2033.11 191.916 Q2034.13 191.569 2035.15 191.407 Q2036.17 191.222 2037.19 191.222 Q2042.97 191.222 2046.35 194.393 Q2049.73 197.564 2049.73 202.981 Q2049.73 208.559 2046.26 211.661 Q2042.79 214.74 2036.47 214.74 Q2034.29 214.74 2032.02 214.37 Q2029.78 213.999 2027.37 213.258 L2027.37 208.559 Q2029.46 209.694 2031.68 210.249 Q2033.9 210.805 2036.38 210.805 Q2040.38 210.805 2042.72 208.698 Q2045.06 206.592 2045.06 202.981 Q2045.06 199.37 2042.72 197.263 Q2040.38 195.157 2036.38 195.157 Q2034.5 195.157 2032.63 195.573 Q2030.77 195.99 2028.83 196.87 L2028.83 179.509 Z" fill="#000000" fill-rule="nonzero" fill-opacity="1" /><path clip-path="url(#clip670)" d="M2067.6 197.425 L2067.6 204.647 L2075.73 204.647 L2075.73 206.846 L2067.6 206.846 L2067.6 214.069 L2065.17 214.069 L2065.17 206.846 L2057.05 206.846 L2057.05 204.647 L2065.17 204.647 L2065.17 197.425 L2067.6 197.425 Z" fill="#000000" fill-rule="nonzero" fill-opacity="1" /><path clip-path="url(#clip670)" d="M2099.89 188.907 L2099.89 192.934 Q2098.09 192.009 2096.14 191.546 Q2094.2 191.083 2092.12 191.083 Q2088.95 191.083 2087.35 192.055 Q2085.77 193.027 2085.77 194.971 Q2085.77 196.453 2086.91 197.309 Q2088.04 198.143 2091.47 198.907 L2092.93 199.231 Q2097.46 200.203 2099.36 201.985 Q2101.28 203.745 2101.28 206.916 Q2101.28 210.527 2098.41 212.633 Q2095.57 214.74 2090.57 214.74 Q2088.48 214.74 2086.21 214.323 Q2083.97 213.93 2081.47 213.12 L2081.47 208.721 Q2083.83 209.948 2086.12 210.573 Q2088.41 211.175 2090.66 211.175 Q2093.67 211.175 2095.29 210.157 Q2096.91 209.115 2096.91 207.24 Q2096.91 205.504 2095.73 204.578 Q2094.57 203.652 2090.61 202.796 L2089.13 202.448 Q2085.17 201.615 2083.41 199.902 Q2081.65 198.166 2081.65 195.157 Q2081.65 191.499 2084.25 189.509 Q2086.84 187.518 2091.61 187.518 Q2093.97 187.518 2096.05 187.865 Q2098.14 188.212 2099.89 188.907 Z" fill="#000000" fill-rule="nonzero" fill-opacity="1" /><path clip-path="url(#clip670)" d="M2112.28 180.782 L2112.28 188.143 L2121.05 188.143 L2121.05 191.453 L2112.28 191.453 L2112.28 205.527 Q2112.28 208.698 2113.14 209.601 Q2114.01 210.504 2116.68 210.504 L2121.05 210.504 L2121.05 214.069 L2116.68 214.069 Q2111.75 214.069 2109.87 212.24 Q2108 210.388 2108 205.527 L2108 191.453 L2104.87 191.453 L2104.87 188.143 L2108 188.143 L2108 180.782 L2112.28 180.782 Z" fill="#000000" fill-rule="nonzero" fill-opacity="1" /><path clip-path="url(#clip670)" d="M2136.7 191.129 Q2133.27 191.129 2131.28 193.814 Q2129.29 196.476 2129.29 201.129 Q2129.29 205.782 2131.26 208.467 Q2133.25 211.129 2136.7 211.129 Q2140.1 211.129 2142.09 208.444 Q2144.08 205.758 2144.08 201.129 Q2144.08 196.522 2142.09 193.837 Q2140.1 191.129 2136.7 191.129 M2136.7 187.518 Q2142.26 187.518 2145.43 191.129 Q2148.6 194.74 2148.6 201.129 Q2148.6 207.495 2145.43 211.129 Q2142.26 214.74 2136.7 214.74 Q2131.12 214.74 2127.95 211.129 Q2124.8 207.495 2124.8 201.129 Q2124.8 194.74 2127.95 191.129 Q2131.12 187.518 2136.7 187.518 Z" fill="#000000" fill-rule="nonzero" fill-opacity="1" /><path clip-path="url(#clip670)" d="M2170.68 192.124 Q2169.96 191.708 2169.11 191.522 Q2168.27 191.314 2167.26 191.314 Q2163.64 191.314 2161.7 193.675 Q2159.78 196.013 2159.78 200.411 L2159.78 214.069 L2155.5 214.069 L2155.5 188.143 L2159.78 188.143 L2159.78 192.171 Q2161.12 189.809 2163.27 188.675 Q2165.43 187.518 2168.51 187.518 Q2168.95 187.518 2169.48 187.587 Q2170.01 187.634 2170.66 187.749 L2170.68 192.124 Z" fill="#000000" fill-rule="nonzero" fill-opacity="1" /><path clip-path="url(#clip670)" d="M2186.93 201.036 Q2181.77 201.036 2179.78 202.217 Q2177.79 203.397 2177.79 206.245 Q2177.79 208.513 2179.27 209.856 Q2180.77 211.175 2183.34 211.175 Q2186.88 211.175 2189.01 208.675 Q2191.17 206.152 2191.17 201.985 L2191.17 201.036 L2186.93 201.036 M2195.43 199.277 L2195.43 214.069 L2191.17 214.069 L2191.17 210.133 Q2189.71 212.495 2187.53 213.629 Q2185.36 214.74 2182.21 214.74 Q2178.23 214.74 2175.87 212.518 Q2173.53 210.272 2173.53 206.522 Q2173.53 202.147 2176.45 199.925 Q2179.38 197.703 2185.2 197.703 L2191.17 197.703 L2191.17 197.286 Q2191.17 194.347 2189.22 192.749 Q2187.3 191.129 2183.81 191.129 Q2181.58 191.129 2179.48 191.661 Q2177.37 192.194 2175.43 193.259 L2175.43 189.323 Q2177.76 188.421 2179.96 187.981 Q2182.16 187.518 2184.25 187.518 Q2189.87 187.518 2192.65 190.434 Q2195.43 193.351 2195.43 199.277 Z" fill="#000000" fill-rule="nonzero" fill-opacity="1" /><path clip-path="url(#clip670)" d="M2221.26 200.805 Q2221.26 196.175 2219.34 193.629 Q2217.44 191.083 2213.99 191.083 Q2210.57 191.083 2208.64 193.629 Q2206.75 196.175 2206.75 200.805 Q2206.75 205.411 2208.64 207.958 Q2210.57 210.504 2213.99 210.504 Q2217.44 210.504 2219.34 207.958 Q2221.26 205.411 2221.26 200.805 M2225.52 210.851 Q2225.52 217.471 2222.58 220.689 Q2219.64 223.93 2213.57 223.93 Q2211.33 223.93 2209.34 223.582 Q2207.35 223.258 2205.47 222.564 L2205.47 218.42 Q2207.35 219.439 2209.18 219.925 Q2211.01 220.411 2212.9 220.411 Q2217.09 220.411 2219.18 218.212 Q2221.26 216.036 2221.26 211.615 L2221.26 209.508 Q2219.94 211.8 2217.88 212.934 Q2215.82 214.069 2212.95 214.069 Q2208.18 214.069 2205.26 210.434 Q2202.35 206.8 2202.35 200.805 Q2202.35 194.786 2205.26 191.152 Q2208.18 187.518 2212.95 187.518 Q2215.82 187.518 2217.88 188.652 Q2219.94 189.786 2221.26 192.078 L2221.26 188.143 L2225.52 188.143 L2225.52 210.851 Z" fill="#000000" fill-rule="nonzero" fill-opacity="1" /><path clip-path="url(#clip670)" d="M2256.47 200.041 L2256.47 202.124 L2236.88 202.124 Q2237.16 206.522 2239.52 208.837 Q2241.91 211.129 2246.14 211.129 Q2248.6 211.129 2250.89 210.527 Q2253.2 209.925 2255.47 208.721 L2255.47 212.749 Q2253.18 213.721 2250.77 214.231 Q2248.37 214.74 2245.89 214.74 Q2239.69 214.74 2236.05 211.129 Q2232.44 207.518 2232.44 201.36 Q2232.44 194.995 2235.87 191.268 Q2239.32 187.518 2245.15 187.518 Q2250.38 187.518 2253.41 190.897 Q2256.47 194.254 2256.47 200.041 M2252.21 198.791 Q2252.16 195.296 2250.24 193.212 Q2248.34 191.129 2245.19 191.129 Q2241.63 191.129 2239.48 193.143 Q2237.35 195.157 2237.02 198.814 L2252.21 198.791 Z" fill="#000000" fill-rule="nonzero" fill-opacity="1" /></svg>
