<?xml version="1.0" encoding="utf-8"?>
<svg xmlns="http://www.w3.org/2000/svg" xmlns:xlink="http://www.w3.org/1999/xlink" width="600" height="400" viewBox="0 0 2400 1600">
<defs>
  <clipPath id="clip810">
    <rect x="0" y="0" width="2400" height="1600"/>
  </clipPath>
</defs>
<path clip-path="url(#clip810)" d="M0 1600 L2400 1600 L2400 0 L0 0  Z" fill="#ffffff" fill-rule="evenodd" fill-opacity="1"/>
<defs>
  <clipPath id="clip811">
    <rect x="480" y="0" width="1681" height="1600"/>
  </clipPath>
</defs>
<path clip-path="url(#clip810)" d="M156.598 1423.18 L2352.76 1423.18 L2352.76 47.2441 L156.598 47.2441  Z" fill="#ffffff" fill-rule="evenodd" fill-opacity="1"/>
<defs>
  <clipPath id="clip812">
    <rect x="156" y="47" width="2197" height="1377"/>
  </clipPath>
</defs>
<polyline clip-path="url(#clip812)" style="stroke:#000000; stroke-linecap:round; stroke-linejoin:round; stroke-width:2; stroke-opacity:0.1; fill:none" points="156.598,1423.18 156.598,47.2441 "/>
<polyline clip-path="url(#clip812)" style="stroke:#000000; stroke-linecap:round; stroke-linejoin:round; stroke-width:2; stroke-opacity:0.1; fill:none" points="705.638,1423.18 705.638,47.2441 "/>
<polyline clip-path="url(#clip812)" style="stroke:#000000; stroke-linecap:round; stroke-linejoin:round; stroke-width:2; stroke-opacity:0.1; fill:none" points="1254.68,1423.18 1254.68,47.2441 "/>
<polyline clip-path="url(#clip812)" style="stroke:#000000; stroke-linecap:round; stroke-linejoin:round; stroke-width:2; stroke-opacity:0.1; fill:none" points="1803.72,1423.18 1803.72,47.2441 "/>
<polyline clip-path="url(#clip812)" style="stroke:#000000; stroke-linecap:round; stroke-linejoin:round; stroke-width:2; stroke-opacity:0.1; fill:none" points="2352.76,1423.18 2352.76,47.2441 "/>
<polyline clip-path="url(#clip812)" style="stroke:#000000; stroke-linecap:round; stroke-linejoin:round; stroke-width:2; stroke-opacity:0.1; fill:none" points="156.598,1207.24 2352.76,1207.24 "/>
<polyline clip-path="url(#clip812)" style="stroke:#000000; stroke-linecap:round; stroke-linejoin:round; stroke-width:2; stroke-opacity:0.1; fill:none" points="156.598,936.695 2352.76,936.695 "/>
<polyline clip-path="url(#clip812)" style="stroke:#000000; stroke-linecap:round; stroke-linejoin:round; stroke-width:2; stroke-opacity:0.1; fill:none" points="156.598,666.15 2352.76,666.15 "/>
<polyline clip-path="url(#clip812)" style="stroke:#000000; stroke-linecap:round; stroke-linejoin:round; stroke-width:2; stroke-opacity:0.1; fill:none" points="156.598,395.604 2352.76,395.604 "/>
<polyline clip-path="url(#clip812)" style="stroke:#000000; stroke-linecap:round; stroke-linejoin:round; stroke-width:2; stroke-opacity:0.1; fill:none" points="156.598,125.058 2352.76,125.058 "/>
<polyline clip-path="url(#clip810)" style="stroke:#000000; stroke-linecap:round; stroke-linejoin:round; stroke-width:4; stroke-opacity:1; fill:none" points="156.598,1423.18 2352.76,1423.18 "/>
<polyline clip-path="url(#clip810)" style="stroke:#000000; stroke-linecap:round; stroke-linejoin:round; stroke-width:4; stroke-opacity:1; fill:none" points="156.598,1423.18 156.598,1404.28 "/>
<polyline clip-path="url(#clip810)" style="stroke:#000000; stroke-linecap:round; stroke-linejoin:round; stroke-width:4; stroke-opacity:1; fill:none" points="705.638,1423.18 705.638,1404.28 "/>
<polyline clip-path="url(#clip810)" style="stroke:#000000; stroke-linecap:round; stroke-linejoin:round; stroke-width:4; stroke-opacity:1; fill:none" points="1254.68,1423.18 1254.68,1404.28 "/>
<polyline clip-path="url(#clip810)" style="stroke:#000000; stroke-linecap:round; stroke-linejoin:round; stroke-width:4; stroke-opacity:1; fill:none" points="1803.72,1423.18 1803.72,1404.28 "/>
<polyline clip-path="url(#clip810)" style="stroke:#000000; stroke-linecap:round; stroke-linejoin:round; stroke-width:4; stroke-opacity:1; fill:none" points="2352.76,1423.18 2352.76,1404.28 "/>
<path clip-path="url(#clip810)" d="M133.983 1454.1 Q130.372 1454.1 128.543 1457.66 Q126.737 1461.2 126.737 1468.33 Q126.737 1475.44 128.543 1479.01 Q130.372 1482.55 133.983 1482.55 Q137.617 1482.55 139.422 1479.01 Q141.251 1475.44 141.251 1468.33 Q141.251 1461.2 139.422 1457.66 Q137.617 1454.1 133.983 1454.1 M133.983 1450.39 Q139.793 1450.39 142.848 1455 Q145.927 1459.58 145.927 1468.33 Q145.927 1477.06 142.848 1481.67 Q139.793 1486.25 133.983 1486.25 Q128.172 1486.25 125.094 1481.67 Q122.038 1477.06 122.038 1468.33 Q122.038 1459.58 125.094 1455 Q128.172 1450.39 133.983 1450.39 Z" fill="#000000" fill-rule="nonzero" fill-opacity="1" /><path clip-path="url(#clip810)" d="M154.145 1479.7 L159.029 1479.7 L159.029 1485.58 L154.145 1485.58 L154.145 1479.7 Z" fill="#000000" fill-rule="nonzero" fill-opacity="1" /><path clip-path="url(#clip810)" d="M179.214 1454.1 Q175.603 1454.1 173.774 1457.66 Q171.969 1461.2 171.969 1468.33 Q171.969 1475.44 173.774 1479.01 Q175.603 1482.55 179.214 1482.55 Q182.848 1482.55 184.654 1479.01 Q186.482 1475.44 186.482 1468.33 Q186.482 1461.2 184.654 1457.66 Q182.848 1454.1 179.214 1454.1 M179.214 1450.39 Q185.024 1450.39 188.08 1455 Q191.158 1459.58 191.158 1468.33 Q191.158 1477.06 188.08 1481.67 Q185.024 1486.25 179.214 1486.25 Q173.404 1486.25 170.325 1481.67 Q167.269 1477.06 167.269 1468.33 Q167.269 1459.58 170.325 1455 Q173.404 1450.39 179.214 1450.39 Z" fill="#000000" fill-rule="nonzero" fill-opacity="1" /><path clip-path="url(#clip810)" d="M683.52 1454.1 Q679.909 1454.1 678.08 1457.66 Q676.274 1461.2 676.274 1468.33 Q676.274 1475.44 678.08 1479.01 Q679.909 1482.55 683.52 1482.55 Q687.154 1482.55 688.96 1479.01 Q690.788 1475.44 690.788 1468.33 Q690.788 1461.2 688.96 1457.66 Q687.154 1454.1 683.52 1454.1 M683.52 1450.39 Q689.33 1450.39 692.385 1455 Q695.464 1459.58 695.464 1468.33 Q695.464 1477.06 692.385 1481.67 Q689.33 1486.25 683.52 1486.25 Q677.71 1486.25 674.631 1481.67 Q671.575 1477.06 671.575 1468.33 Q671.575 1459.58 674.631 1455 Q677.71 1450.39 683.52 1450.39 Z" fill="#000000" fill-rule="nonzero" fill-opacity="1" /><path clip-path="url(#clip810)" d="M703.682 1479.7 L708.566 1479.7 L708.566 1485.58 L703.682 1485.58 L703.682 1479.7 Z" fill="#000000" fill-rule="nonzero" fill-opacity="1" /><path clip-path="url(#clip810)" d="M718.797 1451.02 L737.154 1451.02 L737.154 1454.96 L723.08 1454.96 L723.08 1463.43 Q724.098 1463.08 725.117 1462.92 Q726.135 1462.73 727.154 1462.73 Q732.941 1462.73 736.32 1465.9 Q739.7 1469.08 739.7 1474.49 Q739.7 1480.07 736.228 1483.17 Q732.756 1486.25 726.436 1486.25 Q724.26 1486.25 721.992 1485.88 Q719.746 1485.51 717.339 1484.77 L717.339 1480.07 Q719.422 1481.2 721.645 1481.76 Q723.867 1482.32 726.344 1482.32 Q730.348 1482.32 732.686 1480.21 Q735.024 1478.1 735.024 1474.49 Q735.024 1470.88 732.686 1468.77 Q730.348 1466.67 726.344 1466.67 Q724.469 1466.67 722.594 1467.08 Q720.742 1467.5 718.797 1468.38 L718.797 1451.02 Z" fill="#000000" fill-rule="nonzero" fill-opacity="1" /><path clip-path="url(#clip810)" d="M1221.83 1481.64 L1229.47 1481.64 L1229.47 1455.28 L1221.16 1456.95 L1221.16 1452.69 L1229.42 1451.02 L1234.1 1451.02 L1234.1 1481.64 L1241.74 1481.64 L1241.74 1485.58 L1221.83 1485.58 L1221.83 1481.64 Z" fill="#000000" fill-rule="nonzero" fill-opacity="1" /><path clip-path="url(#clip810)" d="M1251.18 1479.7 L1256.07 1479.7 L1256.07 1485.58 L1251.18 1485.58 L1251.18 1479.7 Z" fill="#000000" fill-rule="nonzero" fill-opacity="1" /><path clip-path="url(#clip810)" d="M1276.25 1454.1 Q1272.64 1454.1 1270.81 1457.66 Q1269.01 1461.2 1269.01 1468.33 Q1269.01 1475.44 1270.81 1479.01 Q1272.64 1482.55 1276.25 1482.55 Q1279.89 1482.55 1281.69 1479.01 Q1283.52 1475.44 1283.52 1468.33 Q1283.52 1461.2 1281.69 1457.66 Q1279.89 1454.1 1276.25 1454.1 M1276.25 1450.39 Q1282.06 1450.39 1285.12 1455 Q1288.2 1459.58 1288.2 1468.33 Q1288.2 1477.06 1285.12 1481.67 Q1282.06 1486.25 1276.25 1486.25 Q1270.44 1486.25 1267.36 1481.67 Q1264.31 1477.06 1264.31 1468.33 Q1264.31 1459.58 1267.36 1455 Q1270.44 1450.39 1276.25 1450.39 Z" fill="#000000" fill-rule="nonzero" fill-opacity="1" /><path clip-path="url(#clip810)" d="M1771.37 1481.64 L1779.01 1481.64 L1779.01 1455.28 L1770.7 1456.95 L1770.7 1452.69 L1778.96 1451.02 L1783.64 1451.02 L1783.64 1481.64 L1791.27 1481.64 L1791.27 1485.58 L1771.37 1485.58 L1771.37 1481.64 Z" fill="#000000" fill-rule="nonzero" fill-opacity="1" /><path clip-path="url(#clip810)" d="M1800.72 1479.7 L1805.6 1479.7 L1805.6 1485.58 L1800.72 1485.58 L1800.72 1479.7 Z" fill="#000000" fill-rule="nonzero" fill-opacity="1" /><path clip-path="url(#clip810)" d="M1815.83 1451.02 L1834.19 1451.02 L1834.19 1454.96 L1820.12 1454.96 L1820.12 1463.43 Q1821.14 1463.08 1822.15 1462.92 Q1823.17 1462.73 1824.19 1462.73 Q1829.98 1462.73 1833.36 1465.9 Q1836.74 1469.08 1836.74 1474.49 Q1836.74 1480.07 1833.26 1483.17 Q1829.79 1486.25 1823.47 1486.25 Q1821.3 1486.25 1819.03 1485.88 Q1816.78 1485.51 1814.38 1484.77 L1814.38 1480.07 Q1816.46 1481.2 1818.68 1481.76 Q1820.9 1482.32 1823.38 1482.32 Q1827.39 1482.32 1829.72 1480.21 Q1832.06 1478.1 1832.06 1474.49 Q1832.06 1470.88 1829.72 1468.77 Q1827.39 1466.67 1823.38 1466.67 Q1821.51 1466.67 1819.63 1467.08 Q1817.78 1467.5 1815.83 1468.38 L1815.83 1451.02 Z" fill="#000000" fill-rule="nonzero" fill-opacity="1" /><path clip-path="url(#clip810)" d="M2323.99 1481.64 L2340.31 1481.64 L2340.31 1485.58 L2318.37 1485.58 L2318.37 1481.64 Q2321.03 1478.89 2325.61 1474.26 Q2330.22 1469.61 2331.4 1468.27 Q2333.65 1465.74 2334.53 1464.01 Q2335.43 1462.25 2335.43 1460.56 Q2335.43 1457.8 2333.49 1456.07 Q2331.56 1454.33 2328.46 1454.33 Q2326.26 1454.33 2323.81 1455.09 Q2321.38 1455.86 2318.6 1457.41 L2318.6 1452.69 Q2321.43 1451.55 2323.88 1450.97 Q2326.33 1450.39 2328.37 1450.39 Q2333.74 1450.39 2336.93 1453.08 Q2340.13 1455.77 2340.13 1460.26 Q2340.13 1462.39 2339.32 1464.31 Q2338.53 1466.2 2336.42 1468.8 Q2335.85 1469.47 2332.74 1472.69 Q2329.64 1475.88 2323.99 1481.64 Z" fill="#000000" fill-rule="nonzero" fill-opacity="1" /><path clip-path="url(#clip810)" d="M2350.13 1479.7 L2355.01 1479.7 L2355.01 1485.58 L2350.13 1485.58 L2350.13 1479.7 Z" fill="#000000" fill-rule="nonzero" fill-opacity="1" /><path clip-path="url(#clip810)" d="M2375.2 1454.1 Q2371.59 1454.1 2369.76 1457.66 Q2367.95 1461.2 2367.95 1468.33 Q2367.95 1475.44 2369.76 1479.01 Q2371.59 1482.55 2375.2 1482.55 Q2378.83 1482.55 2380.64 1479.01 Q2382.47 1475.44 2382.47 1468.33 Q2382.47 1461.2 2380.64 1457.66 Q2378.83 1454.1 2375.2 1454.1 M2375.2 1450.39 Q2381.01 1450.39 2384.06 1455 Q2387.14 1459.58 2387.14 1468.33 Q2387.14 1477.06 2384.06 1481.67 Q2381.01 1486.25 2375.2 1486.25 Q2369.39 1486.25 2366.31 1481.67 Q2363.25 1477.06 2363.25 1468.33 Q2363.25 1459.58 2366.31 1455 Q2369.39 1450.39 2375.2 1450.39 Z" fill="#000000" fill-rule="nonzero" fill-opacity="1" /><path clip-path="url(#clip810)" d="M1253.74 1522.27 L1253.74 1532.4 L1265.8 1532.4 L1265.8 1536.95 L1253.74 1536.95 L1253.74 1556.3 Q1253.74 1560.66 1254.92 1561.9 Q1256.13 1563.14 1259.79 1563.14 L1265.8 1563.14 L1265.8 1568.04 L1259.79 1568.04 Q1253.01 1568.04 1250.43 1565.53 Q1247.85 1562.98 1247.85 1556.3 L1247.85 1536.95 L1243.55 1536.95 L1243.55 1532.4 L1247.85 1532.4 L1247.85 1522.27 L1253.74 1522.27 Z" fill="#000000" fill-rule="nonzero" fill-opacity="1" /><polyline clip-path="url(#clip810)" style="stroke:#000000; stroke-linecap:round; stroke-linejoin:round; stroke-width:4; stroke-opacity:1; fill:none" points="156.598,1423.18 156.598,47.2441 "/>
<polyline clip-path="url(#clip810)" style="stroke:#000000; stroke-linecap:round; stroke-linejoin:round; stroke-width:4; stroke-opacity:1; fill:none" points="156.598,1207.24 175.496,1207.24 "/>
<polyline clip-path="url(#clip810)" style="stroke:#000000; stroke-linecap:round; stroke-linejoin:round; stroke-width:4; stroke-opacity:1; fill:none" points="156.598,936.695 175.496,936.695 "/>
<polyline clip-path="url(#clip810)" style="stroke:#000000; stroke-linecap:round; stroke-linejoin:round; stroke-width:4; stroke-opacity:1; fill:none" points="156.598,666.15 175.496,666.15 "/>
<polyline clip-path="url(#clip810)" style="stroke:#000000; stroke-linecap:round; stroke-linejoin:round; stroke-width:4; stroke-opacity:1; fill:none" points="156.598,395.604 175.496,395.604 "/>
<polyline clip-path="url(#clip810)" style="stroke:#000000; stroke-linecap:round; stroke-linejoin:round; stroke-width:4; stroke-opacity:1; fill:none" points="156.598,125.058 175.496,125.058 "/>
<path clip-path="url(#clip810)" d="M63.4226 1193.04 Q59.8115 1193.04 57.9828 1196.6 Q56.1773 1200.15 56.1773 1207.28 Q56.1773 1214.38 57.9828 1217.95 Q59.8115 1221.49 63.4226 1221.49 Q67.0569 1221.49 68.8624 1217.95 Q70.6911 1214.38 70.6911 1207.28 Q70.6911 1200.15 68.8624 1196.6 Q67.0569 1193.04 63.4226 1193.04 M63.4226 1189.34 Q69.2328 1189.34 72.2883 1193.94 Q75.367 1198.53 75.367 1207.28 Q75.367 1216 72.2883 1220.61 Q69.2328 1225.19 63.4226 1225.19 Q57.6125 1225.19 54.5338 1220.61 Q51.4782 1216 51.4782 1207.28 Q51.4782 1198.53 54.5338 1193.94 Q57.6125 1189.34 63.4226 1189.34 Z" fill="#000000" fill-rule="nonzero" fill-opacity="1" /><path clip-path="url(#clip810)" d="M83.5845 1218.64 L88.4688 1218.64 L88.4688 1224.52 L83.5845 1224.52 L83.5845 1218.64 Z" fill="#000000" fill-rule="nonzero" fill-opacity="1" /><path clip-path="url(#clip810)" d="M108.654 1193.04 Q105.043 1193.04 103.214 1196.6 Q101.409 1200.15 101.409 1207.28 Q101.409 1214.38 103.214 1217.95 Q105.043 1221.49 108.654 1221.49 Q112.288 1221.49 114.094 1217.95 Q115.922 1214.38 115.922 1207.28 Q115.922 1200.15 114.094 1196.6 Q112.288 1193.04 108.654 1193.04 M108.654 1189.34 Q114.464 1189.34 117.52 1193.94 Q120.598 1198.53 120.598 1207.28 Q120.598 1216 117.52 1220.61 Q114.464 1225.19 108.654 1225.19 Q102.844 1225.19 99.765 1220.61 Q96.7095 1216 96.7095 1207.28 Q96.7095 1198.53 99.765 1193.94 Q102.844 1189.34 108.654 1189.34 Z" fill="#000000" fill-rule="nonzero" fill-opacity="1" /><path clip-path="url(#clip810)" d="M65.0198 922.494 Q61.4087 922.494 59.58 926.059 Q57.7745 929.6 57.7745 936.73 Q57.7745 943.836 59.58 947.401 Q61.4087 950.943 65.0198 950.943 Q68.6541 950.943 70.4596 947.401 Q72.2883 943.836 72.2883 936.73 Q72.2883 929.6 70.4596 926.059 Q68.6541 922.494 65.0198 922.494 M65.0198 918.79 Q70.83 918.79 73.8855 923.397 Q76.9642 927.98 76.9642 936.73 Q76.9642 945.457 73.8855 950.063 Q70.83 954.646 65.0198 954.646 Q59.2097 954.646 56.131 950.063 Q53.0754 945.457 53.0754 936.73 Q53.0754 927.98 56.131 923.397 Q59.2097 918.79 65.0198 918.79 Z" fill="#000000" fill-rule="nonzero" fill-opacity="1" /><path clip-path="url(#clip810)" d="M85.1818 948.096 L90.066 948.096 L90.066 953.975 L85.1818 953.975 L85.1818 948.096 Z" fill="#000000" fill-rule="nonzero" fill-opacity="1" /><path clip-path="url(#clip810)" d="M104.279 950.04 L120.598 950.04 L120.598 953.975 L98.6539 953.975 L98.6539 950.04 Q101.316 947.285 105.899 942.656 Q110.506 938.003 111.686 936.66 Q113.932 934.137 114.811 932.401 Q115.714 930.642 115.714 928.952 Q115.714 926.198 113.77 924.461 Q111.848 922.725 108.746 922.725 Q106.547 922.725 104.094 923.489 Q101.663 924.253 98.8854 925.804 L98.8854 921.082 Q101.709 919.948 104.163 919.369 Q106.617 918.79 108.654 918.79 Q114.024 918.79 117.219 921.475 Q120.413 924.161 120.413 928.651 Q120.413 930.781 119.603 932.702 Q118.816 934.6 116.709 937.193 Q116.131 937.864 113.029 941.082 Q109.927 944.276 104.279 950.04 Z" fill="#000000" fill-rule="nonzero" fill-opacity="1" /><path clip-path="url(#clip810)" d="M62.9365 651.948 Q59.3254 651.948 57.4967 655.513 Q55.6912 659.055 55.6912 666.184 Q55.6912 673.291 57.4967 676.855 Q59.3254 680.397 62.9365 680.397 Q66.5707 680.397 68.3763 676.855 Q70.205 673.291 70.205 666.184 Q70.205 659.055 68.3763 655.513 Q66.5707 651.948 62.9365 651.948 M62.9365 648.245 Q68.7467 648.245 71.8022 652.851 Q74.8809 657.434 74.8809 666.184 Q74.8809 674.911 71.8022 679.517 Q68.7467 684.101 62.9365 684.101 Q57.1264 684.101 54.0477 679.517 Q50.9921 674.911 50.9921 666.184 Q50.9921 657.434 54.0477 652.851 Q57.1264 648.245 62.9365 648.245 Z" fill="#000000" fill-rule="nonzero" fill-opacity="1" /><path clip-path="url(#clip810)" d="M83.0984 677.55 L87.9827 677.55 L87.9827 683.43 L83.0984 683.43 L83.0984 677.55 Z" fill="#000000" fill-rule="nonzero" fill-opacity="1" /><path clip-path="url(#clip810)" d="M111.015 652.944 L99.2095 671.393 L111.015 671.393 L111.015 652.944 M109.788 648.87 L115.668 648.87 L115.668 671.393 L120.598 671.393 L120.598 675.281 L115.668 675.281 L115.668 683.43 L111.015 683.43 L111.015 675.281 L95.4132 675.281 L95.4132 670.768 L109.788 648.87 Z" fill="#000000" fill-rule="nonzero" fill-opacity="1" /><path clip-path="url(#clip810)" d="M63.2606 381.403 Q59.6495 381.403 57.8208 384.967 Q56.0152 388.509 56.0152 395.639 Q56.0152 402.745 57.8208 406.31 Q59.6495 409.851 63.2606 409.851 Q66.8948 409.851 68.7004 406.31 Q70.5291 402.745 70.5291 395.639 Q70.5291 388.509 68.7004 384.967 Q66.8948 381.403 63.2606 381.403 M63.2606 377.699 Q69.0707 377.699 72.1263 382.305 Q75.205 386.889 75.205 395.639 Q75.205 404.365 72.1263 408.972 Q69.0707 413.555 63.2606 413.555 Q57.4504 413.555 54.3717 408.972 Q51.3162 404.365 51.3162 395.639 Q51.3162 386.889 54.3717 382.305 Q57.4504 377.699 63.2606 377.699 Z" fill="#000000" fill-rule="nonzero" fill-opacity="1" /><path clip-path="url(#clip810)" d="M83.4225 407.004 L88.3067 407.004 L88.3067 412.884 L83.4225 412.884 L83.4225 407.004 Z" fill="#000000" fill-rule="nonzero" fill-opacity="1" /><path clip-path="url(#clip810)" d="M109.071 393.74 Q105.922 393.74 104.071 395.893 Q102.242 398.046 102.242 401.796 Q102.242 405.523 104.071 407.699 Q105.922 409.851 109.071 409.851 Q112.219 409.851 114.047 407.699 Q115.899 405.523 115.899 401.796 Q115.899 398.046 114.047 395.893 Q112.219 393.74 109.071 393.74 M118.353 379.088 L118.353 383.347 Q116.594 382.514 114.788 382.074 Q113.006 381.634 111.246 381.634 Q106.617 381.634 104.163 384.759 Q101.733 387.884 101.385 394.203 Q102.751 392.19 104.811 391.125 Q106.871 390.037 109.348 390.037 Q114.557 390.037 117.566 393.208 Q120.598 396.356 120.598 401.796 Q120.598 407.12 117.45 410.338 Q114.302 413.555 109.071 413.555 Q103.075 413.555 99.9039 408.972 Q96.7326 404.365 96.7326 395.639 Q96.7326 387.444 100.621 382.583 Q104.51 377.699 111.061 377.699 Q112.82 377.699 114.603 378.046 Q116.408 378.393 118.353 379.088 Z" fill="#000000" fill-rule="nonzero" fill-opacity="1" /><path clip-path="url(#clip810)" d="M63.5152 110.857 Q59.9041 110.857 58.0754 114.422 Q56.2699 117.963 56.2699 125.093 Q56.2699 132.199 58.0754 135.764 Q59.9041 139.306 63.5152 139.306 Q67.1494 139.306 68.955 135.764 Q70.7837 132.199 70.7837 125.093 Q70.7837 117.963 68.955 114.422 Q67.1494 110.857 63.5152 110.857 M63.5152 107.153 Q69.3254 107.153 72.3809 111.76 Q75.4596 116.343 75.4596 125.093 Q75.4596 133.82 72.3809 138.426 Q69.3254 143.009 63.5152 143.009 Q57.7051 143.009 54.6264 138.426 Q51.5708 133.82 51.5708 125.093 Q51.5708 116.343 54.6264 111.76 Q57.7051 107.153 63.5152 107.153 Z" fill="#000000" fill-rule="nonzero" fill-opacity="1" /><path clip-path="url(#clip810)" d="M83.6771 136.459 L88.5614 136.459 L88.5614 142.338 L83.6771 142.338 L83.6771 136.459 Z" fill="#000000" fill-rule="nonzero" fill-opacity="1" /><path clip-path="url(#clip810)" d="M108.746 125.926 Q105.413 125.926 103.492 127.709 Q101.594 129.491 101.594 132.616 Q101.594 135.741 103.492 137.523 Q105.413 139.306 108.746 139.306 Q112.08 139.306 114.001 137.523 Q115.922 135.718 115.922 132.616 Q115.922 129.491 114.001 127.709 Q112.103 125.926 108.746 125.926 M104.071 123.935 Q101.061 123.195 99.3715 121.135 Q97.7048 119.074 97.7048 116.111 Q97.7048 111.968 100.645 109.561 Q103.608 107.153 108.746 107.153 Q113.908 107.153 116.848 109.561 Q119.788 111.968 119.788 116.111 Q119.788 119.074 118.098 121.135 Q116.432 123.195 113.445 123.935 Q116.825 124.723 118.7 127.014 Q120.598 129.306 120.598 132.616 Q120.598 137.639 117.52 140.324 Q114.464 143.009 108.746 143.009 Q103.029 143.009 99.9502 140.324 Q96.8947 137.639 96.8947 132.616 Q96.8947 129.306 98.7928 127.014 Q100.691 124.723 104.071 123.935 M102.358 116.551 Q102.358 119.236 104.024 120.741 Q105.714 122.246 108.746 122.246 Q111.756 122.246 113.445 120.741 Q115.158 119.236 115.158 116.551 Q115.158 113.866 113.445 112.361 Q111.756 110.857 108.746 110.857 Q105.714 110.857 104.024 112.361 Q102.358 113.866 102.358 116.551 Z" fill="#000000" fill-rule="nonzero" fill-opacity="1" /><polyline clip-path="url(#clip812)" style="stroke:#009af9; stroke-linecap:round; stroke-linejoin:round; stroke-width:4; stroke-opacity:1; fill:none" points="156.598,86.1857 158.797,97.665 160.995,109.03 163.193,120.282 165.392,131.422 167.59,142.451 169.788,153.37 171.987,164.18 174.185,174.882 176.383,185.478 178.582,195.969 180.78,206.355 182.979,216.637 185.177,226.817 187.375,236.896 189.574,246.874 191.772,256.753 193.97,266.533 196.169,276.216 198.367,285.803 200.565,295.294 202.764,304.69 204.962,313.993 207.16,323.204 209.359,332.322 211.557,341.35 213.755,350.288 215.954,359.137 218.152,367.897 220.351,376.571 222.549,385.158 224.747,393.66 226.946,402.077 229.144,410.41 231.342,418.66 233.541,426.828 235.739,434.915 237.937,442.921 240.136,450.847 242.334,458.694 244.532,466.463 246.731,474.155 248.929,481.77 251.128,489.31 253.326,496.774 255.524,504.164 257.723,511.48 259.921,518.723 262.119,525.894 264.318,532.994 266.516,540.023 268.714,546.982 270.913,553.872 273.111,560.693 275.309,567.446 277.508,574.132 279.706,580.751 281.905,587.304 284.103,593.793 286.301,600.216 288.5,606.576 290.698,612.872 292.896,619.105 295.095,625.277 297.293,631.387 299.491,637.436 301.69,643.425 303.888,649.354 306.086,655.225 308.285,661.037 310.483,666.791 312.682,672.487 314.88,678.127 317.078,683.711 319.277,689.239 321.475,694.712 323.673,700.131 325.872,705.495 328.07,710.806 330.268,716.064 332.467,721.27 334.665,726.424 336.863,731.526 339.062,736.578 341.26,741.579 343.458,746.531 345.657,751.433 347.855,756.286 350.054,761.091 352.252,765.848 354.45,770.558 356.649,775.221 358.847,779.837 361.045,784.407 363.244,788.932 365.442,793.412 367.64,797.847 369.839,802.238 372.037,806.585 374.235,810.889 376.434,815.15 378.632,819.369 380.831,823.546 383.029,827.681 385.227,831.775 387.426,835.828 389.624,839.841 391.822,843.814 394.021,847.748 396.219,851.642 398.417,855.497 400.616,859.315 402.814,863.094 405.012,866.835 407.211,870.54 409.409,874.207 411.608,877.838 413.806,881.433 416.004,884.991 418.203,888.515 420.401,892.003 422.599,895.457 424.798,898.876 426.996,902.261 429.194,905.612 431.393,908.93 433.591,912.214 435.789,915.466 437.988,918.686 440.186,921.874 442.385,925.029 444.583,928.154 446.781,931.247 448.98,934.309 451.178,937.341 453.376,940.342 455.575,943.314 457.773,946.256 459.971,949.169 462.17,952.053 464.368,954.908 466.566,957.734 468.765,960.533 470.963,963.303 473.162,966.046 475.36,968.762 477.558,971.451 479.757,974.112 481.955,976.748 484.153,979.357 486.352,981.94 488.55,984.498 490.748,987.03 492.947,989.537 495.145,992.018 497.343,994.476 499.542,996.909 501.74,999.317 503.938,1001.7 506.137,1004.06 508.335,1006.4 510.534,1008.71 512.732,1011.01 514.93,1013.27 517.129,1015.52 519.327,1017.74 521.525,1019.94 523.724,1022.12 525.922,1024.28 528.12,1026.42 530.319,1028.53 532.517,1030.63 534.715,1032.7 536.914,1034.75 539.112,1036.78 541.311,1038.79 543.509,1040.79 545.707,1042.76 547.906,1044.71 550.104,1046.64 552.302,1048.55 554.501,1050.45 556.699,1052.32 558.897,1054.18 561.096,1056.02 563.294,1057.84 565.492,1059.64 567.691,1061.42 569.889,1063.19 572.088,1064.94 574.286,1066.67 576.484,1068.38 578.683,1070.08 580.881,1071.76 583.079,1073.42 585.278,1075.06 587.476,1076.69 589.674,1078.31 591.873,1079.91 594.071,1081.49 596.269,1083.05 598.468,1084.6 600.666,1086.14 602.865,1087.66 605.063,1089.16 607.261,1090.65 609.46,1092.13 611.658,1093.59 613.856,1095.03 616.055,1096.46 618.253,1097.88 620.451,1099.28 622.65,1100.67 624.848,1102.05 627.046,1103.41 629.245,1104.76 631.443,1106.09 633.641,1107.41 635.84,1108.72 638.038,1110.02 640.237,1111.3 642.435,1112.57 644.633,1113.82 646.832,1115.07 649.03,1116.3 651.228,1117.52 653.427,1118.73 655.625,1119.92 657.823,1121.11 660.022,1122.28 662.22,1123.44 664.418,1124.59 666.617,1125.72 668.815,1126.85 671.014,1127.96 673.212,1129.07 675.41,1130.16 677.609,1131.24 679.807,1132.31 682.005,1133.37 684.204,1134.42 686.402,1135.46 688.6,1136.49 690.799,1137.5 692.997,1138.51 695.195,1139.51 697.394,1140.5 699.592,1141.48 701.791,1142.44 703.989,1143.4 706.187,1144.35 708.386,1145.29 710.584,1146.22 712.782,1147.14 714.981,1148.06 717.179,1148.96 719.377,1149.85 721.576,1150.74 723.774,1151.61 725.972,1152.48 728.171,1153.34 730.369,1154.19 732.568,1155.03 734.766,1155.86 736.964,1156.69 739.163,1157.51 741.361,1158.32 743.559,1159.12 745.758,1159.91 747.956,1160.69 750.154,1161.47 752.353,1162.24 754.551,1163 756.749,1163.76 758.948,1164.5 761.146,1165.24 763.344,1165.97 765.543,1166.7 767.741,1167.42 769.94,1168.13 772.138,1168.83 774.336,1169.53 776.535,1170.22 778.733,1170.9 780.931,1171.57 783.13,1172.24 785.328,1172.91 787.526,1173.56 789.725,1174.21 791.923,1174.85 794.121,1175.49 796.32,1176.12 798.518,1176.74 800.717,1177.36 802.915,1177.97 805.113,1178.58 807.312,1179.18 809.51,1179.77 811.708,1180.36 813.907,1180.94 816.105,1181.51 818.303,1182.08 820.502,1182.65 822.7,1183.21 824.898,1183.76 827.097,1184.31 829.295,1184.85 831.494,1185.38 833.692,1185.92 835.89,1186.44 838.089,1186.96 840.287,1187.48 842.485,1187.99 844.684,1188.49 846.882,1188.99 849.08,1189.49 851.279,1189.98 853.477,1190.46 855.675,1190.94 857.874,1191.42 860.072,1191.89 862.271,1192.36 864.469,1192.82 866.667,1193.28 868.866,1193.73 871.064,1194.18 873.262,1194.62 875.461,1195.06 877.659,1195.49 879.857,1195.92 882.056,1196.35 884.254,1196.77 886.452,1197.19 888.651,1197.6 890.849,1198.01 893.048,1198.42 895.246,1198.82 897.444,1199.22 899.643,1199.61 901.841,1200 904.039,1200.39 906.238,1200.77 908.436,1201.15 910.634,1201.52 912.833,1201.89 915.031,1202.26 917.229,1202.62 919.428,1202.98 921.626,1203.34 923.824,1203.69 926.023,1204.04 928.221,1204.38 930.42,1204.73 932.618,1205.06 934.816,1205.4 937.015,1205.73 939.213,1206.06 941.411,1206.39 943.61,1206.71 945.808,1207.03 948.006,1207.34 950.205,1207.66 952.403,1207.96 954.601,1208.27 956.8,1208.57 958.998,1208.87 961.197,1209.17 963.395,1209.47 965.593,1209.76 967.792,1210.05 969.99,1210.33 972.188,1210.61 974.387,1210.89 976.585,1211.17 978.783,1211.45 980.982,1211.72 983.18,1211.99 985.378,1212.25 987.577,1212.52 989.775,1212.78 991.974,1213.04 994.172,1213.29 996.37,1213.54 998.569,1213.79 1000.77,1214.04 1002.97,1214.29 1005.16,1214.53 1007.36,1214.77 1009.56,1215.01 1011.76,1215.25 1013.96,1215.48 1016.16,1215.71 1018.35,1215.94 1020.55,1216.17 1022.75,1216.39 1024.95,1216.61 1027.15,1216.84 1029.35,1217.05 1031.54,1217.27 1033.74,1217.48 1035.94,1217.69 1038.14,1217.9 1040.34,1218.11 1042.54,1218.32 1044.73,1218.52 1046.93,1218.72 1049.13,1218.92 1051.33,1219.12 1053.53,1219.31 1055.73,1219.51 1057.92,1219.7 1060.12,1219.89 1062.32,1220.07 1064.52,1220.26 1066.72,1220.44 1068.92,1220.63 1071.11,1220.81 1073.31,1220.98 1075.51,1221.16 1077.71,1221.34 1079.91,1221.51 1082.11,1221.68 1084.3,1221.85 1086.5,1222.02 1088.7,1222.19 1090.9,1222.35 1093.1,1222.51 1095.3,1222.67 1097.49,1222.83 1099.69,1222.99 1101.89,1223.15 1104.09,1223.3 1106.29,1223.46 1108.49,1223.61 1110.68,1223.76 1112.88,1223.91 1115.08,1224.06 1117.28,1224.2 1119.48,1224.35 1121.68,1224.49 1123.87,1224.63 1126.07,1224.77 1128.27,1224.91 1130.47,1225.05 1132.67,1225.19 1134.87,1225.32 1137.07,1225.45 1139.26,1225.59 1141.46,1225.72 1143.66,1225.85 1145.86,1225.97 1148.06,1226.1 1150.26,1226.23 1152.45,1226.35 1154.65,1226.47 1156.85,1226.6 1159.05,1226.72 1161.25,1226.84 1163.45,1226.95 1165.64,1227.07 1167.84,1227.19 1170.04,1227.3 1172.24,1227.42 1174.44,1227.53 1176.64,1227.64 1178.83,1227.75 1181.03,1227.86 1183.23,1227.97 1185.43,1228.08 1187.63,1228.18 1189.83,1228.29 1192.02,1228.39 1194.22,1228.49 1196.42,1228.59 1198.62,1228.7 1200.82,1228.8 1203.02,1228.89 1205.21,1228.99 1207.41,1229.09 1209.61,1229.19 1211.81,1229.28 1214.01,1229.37 1216.21,1229.47 1218.4,1229.56 1220.6,1229.65 1222.8,1229.74 1225,1229.83 1227.2,1229.92 1229.4,1230.01 1231.59,1230.09 1233.79,1230.18 1235.99,1230.27 1238.19,1230.35 1240.39,1230.43 1242.59,1230.52 1244.78,1230.6 1246.98,1230.68 1249.18,1230.76 1251.38,1230.84 1253.58,1230.92 1255.78,1230.99 1257.97,1231.07 1260.17,1231.15 1262.37,1231.22 1264.57,1231.3 1266.77,1231.37 1268.97,1231.44 1271.16,1231.52 1273.36,1231.59 1275.56,1231.66 1277.76,1231.73 1279.96,1231.8 1282.16,1231.87 1284.35,1231.94 1286.55,1232 1288.75,1232.07 1290.95,1232.14 1293.15,1232.2 1295.35,1232.27 1297.55,1232.33 1299.74,1232.4 1301.94,1232.46 1304.14,1232.52 1306.34,1232.58 1308.54,1232.64 1310.74,1232.7 1312.93,1232.76 1315.13,1232.82 1317.33,1232.88 1319.53,1232.94 1321.73,1233 1323.93,1233.05 1326.12,1233.11 1328.32,1233.17 1330.52,1233.22 1332.72,1233.28 1334.92,1233.33 1337.12,1233.38 1339.31,1233.44 1341.51,1233.49 1343.71,1233.54 1345.91,1233.59 1348.11,1233.64 1350.31,1233.7 1352.5,1233.75 1354.7,1233.79 1356.9,1233.84 1359.1,1233.89 1361.3,1233.94 1363.5,1233.99 1365.69,1234.04 1367.89,1234.08 1370.09,1234.13 1372.29,1234.17 1374.49,1234.22 1376.69,1234.26 1378.88,1234.31 1381.08,1234.35 1383.28,1234.4 1385.48,1234.44 1387.68,1234.48 1389.88,1234.52 1392.07,1234.57 1394.27,1234.61 1396.47,1234.65 1398.67,1234.69 1400.87,1234.73 1403.07,1234.77 1405.26,1234.81 1407.46,1234.85 1409.66,1234.89 1411.86,1234.92 1414.06,1234.96 1416.26,1235 1418.45,1235.04 1420.65,1235.07 1422.85,1235.11 1425.05,1235.15 1427.25,1235.18 1429.45,1235.22 1431.64,1235.25 1433.84,1235.29 1436.04,1235.32 1438.24,1235.35 1440.44,1235.39 1442.64,1235.42 1444.83,1235.45 1447.03,1235.49 1449.23,1235.52 1451.43,1235.55 1453.63,1235.58 1455.83,1235.61 1458.03,1235.64 1460.22,1235.68 1462.42,1235.71 1464.62,1235.74 1466.82,1235.77 1469.02,1235.79 1471.22,1235.82 1473.41,1235.85 1475.61,1235.88 1477.81,1235.91 1480.01,1235.94 1482.21,1235.96 1484.41,1235.99 1486.6,1236.02 1488.8,1236.05 1491,1236.07 1493.2,1236.1 1495.4,1236.13 1497.6,1236.15 1499.79,1236.18 1501.99,1236.2 1504.19,1236.23 1506.39,1236.25 1508.59,1236.28 1510.79,1236.3 1512.98,1236.32 1515.18,1236.35 1517.38,1236.37 1519.58,1236.4 1521.78,1236.42 1523.98,1236.44 1526.17,1236.46 1528.37,1236.49 1530.57,1236.51 1532.77,1236.53 1534.97,1236.55 1537.17,1236.57 1539.36,1236.6 1541.56,1236.62 1543.76,1236.64 1545.96,1236.66 1548.16,1236.68 1550.36,1236.7 1552.55,1236.72 1554.75,1236.74 1556.95,1236.76 1559.15,1236.78 1561.35,1236.8 1563.55,1236.82 1565.74,1236.84 1567.94,1236.86 1570.14,1236.87 1572.34,1236.89 1574.54,1236.91 1576.74,1236.93 1578.93,1236.95 1581.13,1236.96 1583.33,1236.98 1585.53,1237 1587.73,1237.02 1589.93,1237.03 1592.12,1237.05 1594.32,1237.07 1596.52,1237.08 1598.72,1237.1 1600.92,1237.12 1603.12,1237.13 1605.31,1237.15 1607.51,1237.16 1609.71,1237.18 1611.91,1237.19 1614.11,1237.21 1616.31,1237.22 1618.5,1237.24 1620.7,1237.25 1622.9,1237.27 1625.1,1237.28 1627.3,1237.3 1629.5,1237.31 1631.7,1237.33 1633.89,1237.34 1636.09,1237.35 1638.29,1237.37 1640.49,1237.38 1642.69,1237.39 1644.89,1237.41 1647.08,1237.42 1649.28,1237.43 1651.48,1237.45 1653.68,1237.46 1655.88,1237.47 1658.08,1237.48 1660.27,1237.5 1662.47,1237.51 1664.67,1237.52 1666.87,1237.53 1669.07,1237.54 1671.27,1237.56 1673.46,1237.57 1675.66,1237.58 1677.86,1237.59 1680.06,1237.6 1682.26,1237.61 1684.46,1237.62 1686.65,1237.63 1688.85,1237.65 1691.05,1237.66 1693.25,1237.67 1695.45,1237.68 1697.65,1237.69 1699.84,1237.7 1702.04,1237.71 1704.24,1237.72 1706.44,1237.73 1708.64,1237.74 1710.84,1237.75 1713.03,1237.76 1715.23,1237.77 1717.43,1237.78 1719.63,1237.79 1721.83,1237.79 1724.03,1237.8 1726.22,1237.81 1728.42,1237.82 1730.62,1237.83 1732.82,1237.84 1735.02,1237.85 1737.22,1237.86 1739.41,1237.87 1741.61,1237.87 1743.81,1237.88 1746.01,1237.89 1748.21,1237.9 1750.41,1237.91 1752.6,1237.92 1754.8,1237.92 1757,1237.93 1759.2,1237.94 1761.4,1237.95 1763.6,1237.95 1765.79,1237.96 1767.99,1237.97 1770.19,1237.98 1772.39,1237.98 1774.59,1237.99 1776.79,1238 1778.98,1238.01 1781.18,1238.01 1783.38,1238.02 1785.58,1238.03 1787.78,1238.03 1789.98,1238.04 1792.18,1238.05 1794.37,1238.05 1796.57,1238.06 1798.77,1238.07 1800.97,1238.07 1803.17,1238.08 1805.37,1238.09 1807.56,1238.09 1809.76,1238.1 1811.96,1238.11 1814.16,1238.11 1816.36,1238.12 1818.56,1238.12 1820.75,1238.13 1822.95,1238.14 1825.15,1238.14 1827.35,1238.15 1829.55,1238.15 1831.75,1238.16 1833.94,1238.17 1836.14,1238.17 1838.34,1238.18 1840.54,1238.18 1842.74,1238.19 1844.94,1238.19 1847.13,1238.2 1849.33,1238.2 1851.53,1238.21 1853.73,1238.21 1855.93,1238.22 1858.13,1238.22 1860.32,1238.23 1862.52,1238.23 1864.72,1238.24 1866.92,1238.24 1869.12,1238.25 1871.32,1238.25 1873.51,1238.26 1875.71,1238.26 1877.91,1238.27 1880.11,1238.27 1882.31,1238.28 1884.51,1238.28 1886.7,1238.28 1888.9,1238.29 1891.1,1238.29 1893.3,1238.3 1895.5,1238.3 1897.7,1238.31 1899.89,1238.31 1902.09,1238.31 1904.29,1238.32 1906.49,1238.32 1908.69,1238.33 1910.89,1238.33 1913.08,1238.33 1915.28,1238.34 1917.48,1238.34 1919.68,1238.34 1921.88,1238.35 1924.08,1238.35 1926.27,1238.36 1928.47,1238.36 1930.67,1238.36 1932.87,1238.37 1935.07,1238.37 1937.27,1238.37 1939.46,1238.38 1941.66,1238.38 1943.86,1238.38 1946.06,1238.39 1948.26,1238.39 1950.46,1238.39 1952.66,1238.4 1954.85,1238.4 1957.05,1238.4 1959.25,1238.41 1961.45,1238.41 1963.65,1238.41 1965.85,1238.42 1968.04,1238.42 1970.24,1238.42 1972.44,1238.42 1974.64,1238.43 1976.84,1238.43 1979.04,1238.43 1981.23,1238.44 1983.43,1238.44 1985.63,1238.44 1987.83,1238.44 1990.03,1238.45 1992.23,1238.45 1994.42,1238.45 1996.62,1238.46 1998.82,1238.46 2001.02,1238.46 2003.22,1238.46 2005.42,1238.47 2007.61,1238.47 2009.81,1238.47 2012.01,1238.47 2014.21,1238.48 2016.41,1238.48 2018.61,1238.48 2020.8,1238.48 2023,1238.49 2025.2,1238.49 2027.4,1238.49 2029.6,1238.49 2031.8,1238.49 2033.99,1238.5 2036.19,1238.5 2038.39,1238.5 2040.59,1238.5 2042.79,1238.51 2044.99,1238.51 2047.18,1238.51 2049.38,1238.51 2051.58,1238.51 2053.78,1238.52 2055.98,1238.52 2058.18,1238.52 2060.37,1238.52 2062.57,1238.52 2064.77,1238.53 2066.97,1238.53 2069.17,1238.53 2071.37,1238.53 2073.56,1238.53 2075.76,1238.54 2077.96,1238.54 2080.16,1238.54 2082.36,1238.54 2084.56,1238.54 2086.75,1238.54 2088.95,1238.55 2091.15,1238.55 2093.35,1238.55 2095.55,1238.55 2097.75,1238.55 2099.94,1238.56 2102.14,1238.56 2104.34,1238.56 2106.54,1238.56 2108.74,1238.56 2110.94,1238.56 2113.14,1238.56 2115.33,1238.57 2117.53,1238.57 2119.73,1238.57 2121.93,1238.57 2124.13,1238.57 2126.33,1238.57 2128.52,1238.58 2130.72,1238.58 2132.92,1238.58 2135.12,1238.58 2137.32,1238.58 2139.52,1238.58 2141.71,1238.58 2143.91,1238.59 2146.11,1238.59 2148.31,1238.59 2150.51,1238.59 2152.71,1238.59 2154.9,1238.59 2157.1,1238.59 2159.3,1238.59 2161.5,1238.6 2163.7,1238.6 2165.9,1238.6 2168.09,1238.6 2170.29,1238.6 2172.49,1238.6 2174.69,1238.6 2176.89,1238.6 2179.09,1238.61 2181.28,1238.61 2183.48,1238.61 2185.68,1238.61 2187.88,1238.61 2190.08,1238.61 2192.28,1238.61 2194.47,1238.61 2196.67,1238.61 2198.87,1238.61 2201.07,1238.62 2203.27,1238.62 2205.47,1238.62 2207.66,1238.62 2209.86,1238.62 2212.06,1238.62 2214.26,1238.62 2216.46,1238.62 2218.66,1238.62 2220.85,1238.62 2223.05,1238.63 2225.25,1238.63 2227.45,1238.63 2229.65,1238.63 2231.85,1238.63 2234.04,1238.63 2236.24,1238.63 2238.44,1238.63 2240.64,1238.63 2242.84,1238.63 2245.04,1238.63 2247.23,1238.64 2249.43,1238.64 2251.63,1238.64 2253.83,1238.64 2256.03,1238.64 2258.23,1238.64 2260.42,1238.64 2262.62,1238.64 2264.82,1238.64 2267.02,1238.64 2269.22,1238.64 2271.42,1238.64 2273.62,1238.65 2275.81,1238.65 2278.01,1238.65 2280.21,1238.65 2282.41,1238.65 2284.61,1238.65 2286.81,1238.65 2289,1238.65 2291.2,1238.65 2293.4,1238.65 2295.6,1238.65 2297.8,1238.65 2300,1238.65 2302.19,1238.65 2304.39,1238.66 2306.59,1238.66 2308.79,1238.66 2310.99,1238.66 2313.19,1238.66 2315.38,1238.66 2317.58,1238.66 2319.78,1238.66 2321.98,1238.66 2324.18,1238.66 2326.38,1238.66 2328.57,1238.66 2330.77,1238.66 2332.97,1238.66 2335.17,1238.66 2337.37,1238.66 2339.57,1238.66 2341.76,1238.67 2343.96,1238.67 2346.16,1238.67 2348.36,1238.67 2350.56,1238.67 2352.76,1238.67 "/>
<polyline clip-path="url(#clip812)" style="stroke:#e26f46; stroke-linecap:round; stroke-linejoin:round; stroke-width:4; stroke-opacity:1; fill:none" points="156.598,1382.05 158.797,1382.26 160.995,1382.46 163.193,1382.65 165.392,1382.83 167.59,1382.99 169.788,1383.15 171.987,1383.29 174.185,1383.43 176.383,1383.55 178.582,1383.66 180.78,1383.76 182.979,1383.85 185.177,1383.94 187.375,1384.01 189.574,1384.07 191.772,1384.12 193.97,1384.16 196.169,1384.19 198.367,1384.22 200.565,1384.23 202.764,1384.24 204.962,1384.24 207.16,1384.22 209.359,1384.2 211.557,1384.17 213.755,1384.14 215.954,1384.09 218.152,1384.04 220.351,1383.98 222.549,1383.91 224.747,1383.84 226.946,1383.75 229.144,1383.66 231.342,1383.56 233.541,1383.46 235.739,1383.35 237.937,1383.23 240.136,1383.1 242.334,1382.97 244.532,1382.83 246.731,1382.69 248.929,1382.54 251.128,1382.38 253.326,1382.21 255.524,1382.04 257.723,1381.87 259.921,1381.69 262.119,1381.5 264.318,1381.31 266.516,1381.11 268.714,1380.91 270.913,1380.7 273.111,1380.49 275.309,1380.27 277.508,1380.04 279.706,1379.82 281.905,1379.58 284.103,1379.34 286.301,1379.1 288.5,1378.85 290.698,1378.6 292.896,1378.35 295.095,1378.09 297.293,1377.82 299.491,1377.55 301.69,1377.28 303.888,1377.01 306.086,1376.73 308.285,1376.44 310.483,1376.15 312.682,1375.86 314.88,1375.57 317.078,1375.27 319.277,1374.97 321.475,1374.66 323.673,1374.36 325.872,1374.04 328.07,1373.73 330.268,1373.41 332.467,1373.09 334.665,1372.77 336.863,1372.44 339.062,1372.11 341.26,1371.78 343.458,1371.45 345.657,1371.11 347.855,1370.77 350.054,1370.43 352.252,1370.08 354.45,1369.73 356.649,1369.38 358.847,1369.03 361.045,1368.68 363.244,1368.32 365.442,1367.97 367.64,1367.61 369.839,1367.24 372.037,1366.88 374.235,1366.51 376.434,1366.15 378.632,1365.78 380.831,1365.41 383.029,1365.03 385.227,1364.66 387.426,1364.28 389.624,1363.91 391.822,1363.53 394.021,1363.15 396.219,1362.77 398.417,1362.38 400.616,1362 402.814,1361.61 405.012,1361.23 407.211,1360.84 409.409,1360.45 411.608,1360.06 413.806,1359.67 416.004,1359.28 418.203,1358.88 420.401,1358.49 422.599,1358.09 424.798,1357.7 426.996,1357.3 429.194,1356.91 431.393,1356.51 433.591,1356.11 435.789,1355.71 437.988,1355.31 440.186,1354.91 442.385,1354.51 444.583,1354.11 446.781,1353.7 448.98,1353.3 451.178,1352.9 453.376,1352.49 455.575,1352.09 457.773,1351.69 459.971,1351.28 462.17,1350.88 464.368,1350.47 466.566,1350.07 468.765,1349.66 470.963,1349.25 473.162,1348.85 475.36,1348.44 477.558,1348.04 479.757,1347.63 481.955,1347.22 484.153,1346.82 486.352,1346.41 488.55,1346.01 490.748,1345.6 492.947,1345.19 495.145,1344.79 497.343,1344.38 499.542,1343.98 501.74,1343.57 503.938,1343.17 506.137,1342.76 508.335,1342.36 510.534,1341.95 512.732,1341.55 514.93,1341.14 517.129,1340.74 519.327,1340.34 521.525,1339.93 523.724,1339.53 525.922,1339.13 528.12,1338.73 530.319,1338.32 532.517,1337.92 534.715,1337.52 536.914,1337.12 539.112,1336.72 541.311,1336.32 543.509,1335.93 545.707,1335.53 547.906,1335.13 550.104,1334.73 552.302,1334.34 554.501,1333.94 556.699,1333.55 558.897,1333.15 561.096,1332.76 563.294,1332.36 565.492,1331.97 567.691,1331.58 569.889,1331.19 572.088,1330.8 574.286,1330.41 576.484,1330.02 578.683,1329.63 580.881,1329.24 583.079,1328.86 585.278,1328.47 587.476,1328.08 589.674,1327.7 591.873,1327.32 594.071,1326.93 596.269,1326.55 598.468,1326.17 600.666,1325.79 602.865,1325.41 605.063,1325.03 607.261,1324.65 609.46,1324.28 611.658,1323.9 613.856,1323.53 616.055,1323.15 618.253,1322.78 620.451,1322.41 622.65,1322.03 624.848,1321.66 627.046,1321.29 629.245,1320.93 631.443,1320.56 633.641,1320.19 635.84,1319.83 638.038,1319.46 640.237,1319.1 642.435,1318.73 644.633,1318.37 646.832,1318.01 649.03,1317.65 651.228,1317.29 653.427,1316.93 655.625,1316.58 657.823,1316.22 660.022,1315.87 662.22,1315.51 664.418,1315.16 666.617,1314.81 668.815,1314.46 671.014,1314.11 673.212,1313.76 675.41,1313.41 677.609,1313.07 679.807,1312.72 682.005,1312.38 684.204,1312.03 686.402,1311.69 688.6,1311.35 690.799,1311.01 692.997,1310.67 695.195,1310.34 697.394,1310 699.592,1309.66 701.791,1309.33 703.989,1309 706.187,1308.66 708.386,1308.33 710.584,1308 712.782,1307.67 714.981,1307.35 717.179,1307.02 719.377,1306.69 721.576,1306.37 723.774,1306.05 725.972,1305.72 728.171,1305.4 730.369,1305.08 732.568,1304.76 734.766,1304.45 736.964,1304.13 739.163,1303.81 741.361,1303.5 743.559,1303.19 745.758,1302.87 747.956,1302.56 750.154,1302.25 752.353,1301.94 754.551,1301.64 756.749,1301.33 758.948,1301.03 761.146,1300.72 763.344,1300.42 765.543,1300.12 767.741,1299.82 769.94,1299.52 772.138,1299.22 774.336,1298.92 776.535,1298.63 778.733,1298.33 780.931,1298.04 783.13,1297.74 785.328,1297.45 787.526,1297.16 789.725,1296.87 791.923,1296.58 794.121,1296.3 796.32,1296.01 798.518,1295.73 800.717,1295.44 802.915,1295.16 805.113,1294.88 807.312,1294.6 809.51,1294.32 811.708,1294.04 813.907,1293.76 816.105,1293.49 818.303,1293.21 820.502,1292.94 822.7,1292.67 824.898,1292.4 827.097,1292.12 829.295,1291.86 831.494,1291.59 833.692,1291.32 835.89,1291.05 838.089,1290.79 840.287,1290.53 842.485,1290.26 844.684,1290 846.882,1289.74 849.08,1289.48 851.279,1289.22 853.477,1288.97 855.675,1288.71 857.874,1288.46 860.072,1288.2 862.271,1287.95 864.469,1287.7 866.667,1287.45 868.866,1287.2 871.064,1286.95 873.262,1286.7 875.461,1286.46 877.659,1286.21 879.857,1285.97 882.056,1285.72 884.254,1285.48 886.452,1285.24 888.651,1285 890.849,1284.76 893.048,1284.52 895.246,1284.29 897.444,1284.05 899.643,1283.82 901.841,1283.58 904.039,1283.35 906.238,1283.12 908.436,1282.89 910.634,1282.66 912.833,1282.43 915.031,1282.2 917.229,1281.98 919.428,1281.75 921.626,1281.53 923.824,1281.3 926.023,1281.08 928.221,1280.86 930.42,1280.64 932.618,1280.42 934.816,1280.2 937.015,1279.98 939.213,1279.77 941.411,1279.55 943.61,1279.34 945.808,1279.12 948.006,1278.91 950.205,1278.7 952.403,1278.49 954.601,1278.28 956.8,1278.07 958.998,1277.86 961.197,1277.66 963.395,1277.45 965.593,1277.25 967.792,1277.04 969.99,1276.84 972.188,1276.64 974.387,1276.44 976.585,1276.24 978.783,1276.04 980.982,1275.84 983.18,1275.64 985.378,1275.45 987.577,1275.25 989.775,1275.06 991.974,1274.86 994.172,1274.67 996.37,1274.48 998.569,1274.29 1000.77,1274.1 1002.97,1273.91 1005.16,1273.72 1007.36,1273.53 1009.56,1273.35 1011.76,1273.16 1013.96,1272.98 1016.16,1272.79 1018.35,1272.61 1020.55,1272.43 1022.75,1272.25 1024.95,1272.07 1027.15,1271.89 1029.35,1271.71 1031.54,1271.53 1033.74,1271.36 1035.94,1271.18 1038.14,1271.01 1040.34,1270.83 1042.54,1270.66 1044.73,1270.49 1046.93,1270.32 1049.13,1270.15 1051.33,1269.98 1053.53,1269.81 1055.73,1269.64 1057.92,1269.47 1060.12,1269.31 1062.32,1269.14 1064.52,1268.97 1066.72,1268.81 1068.92,1268.65 1071.11,1268.49 1073.31,1268.32 1075.51,1268.16 1077.71,1268 1079.91,1267.84 1082.11,1267.69 1084.3,1267.53 1086.5,1267.37 1088.7,1267.21 1090.9,1267.06 1093.1,1266.91 1095.3,1266.75 1097.49,1266.6 1099.69,1266.45 1101.89,1266.29 1104.09,1266.14 1106.29,1265.99 1108.49,1265.85 1110.68,1265.7 1112.88,1265.55 1115.08,1265.4 1117.28,1265.26 1119.48,1265.11 1121.68,1264.97 1123.87,1264.82 1126.07,1264.68 1128.27,1264.54 1130.47,1264.39 1132.67,1264.25 1134.87,1264.11 1137.07,1263.97 1139.26,1263.84 1141.46,1263.7 1143.66,1263.56 1145.86,1263.42 1148.06,1263.29 1150.26,1263.15 1152.45,1263.02 1154.65,1262.88 1156.85,1262.75 1159.05,1262.62 1161.25,1262.48 1163.45,1262.35 1165.64,1262.22 1167.84,1262.09 1170.04,1261.96 1172.24,1261.84 1174.44,1261.71 1176.64,1261.58 1178.83,1261.45 1181.03,1261.33 1183.23,1261.2 1185.43,1261.08 1187.63,1260.95 1189.83,1260.83 1192.02,1260.71 1194.22,1260.59 1196.42,1260.46 1198.62,1260.34 1200.82,1260.22 1203.02,1260.1 1205.21,1259.98 1207.41,1259.87 1209.61,1259.75 1211.81,1259.63 1214.01,1259.52 1216.21,1259.4 1218.4,1259.28 1220.6,1259.17 1222.8,1259.06 1225,1258.94 1227.2,1258.83 1229.4,1258.72 1231.59,1258.61 1233.79,1258.49 1235.99,1258.38 1238.19,1258.27 1240.39,1258.16 1242.59,1258.06 1244.78,1257.95 1246.98,1257.84 1249.18,1257.73 1251.38,1257.63 1253.58,1257.52 1255.78,1257.42 1257.97,1257.31 1260.17,1257.21 1262.37,1257.1 1264.57,1257 1266.77,1256.9 1268.97,1256.8 1271.16,1256.69 1273.36,1256.59 1275.56,1256.49 1277.76,1256.39 1279.96,1256.29 1282.16,1256.19 1284.35,1256.1 1286.55,1256 1288.75,1255.9 1290.95,1255.8 1293.15,1255.71 1295.35,1255.61 1297.55,1255.52 1299.74,1255.42 1301.94,1255.33 1304.14,1255.24 1306.34,1255.14 1308.54,1255.05 1310.74,1254.96 1312.93,1254.87 1315.13,1254.77 1317.33,1254.68 1319.53,1254.59 1321.73,1254.5 1323.93,1254.41 1326.12,1254.33 1328.32,1254.24 1330.52,1254.15 1332.72,1254.06 1334.92,1253.98 1337.12,1253.89 1339.31,1253.8 1341.51,1253.72 1343.71,1253.63 1345.91,1253.55 1348.11,1253.46 1350.31,1253.38 1352.5,1253.3 1354.7,1253.22 1356.9,1253.13 1359.1,1253.05 1361.3,1252.97 1363.5,1252.89 1365.69,1252.81 1367.89,1252.73 1370.09,1252.65 1372.29,1252.57 1374.49,1252.49 1376.69,1252.41 1378.88,1252.34 1381.08,1252.26 1383.28,1252.18 1385.48,1252.1 1387.68,1252.03 1389.88,1251.95 1392.07,1251.88 1394.27,1251.8 1396.47,1251.73 1398.67,1251.65 1400.87,1251.58 1403.07,1251.51 1405.26,1251.43 1407.46,1251.36 1409.66,1251.29 1411.86,1251.22 1414.06,1251.15 1416.26,1251.08 1418.45,1251 1420.65,1250.93 1422.85,1250.86 1425.05,1250.8 1427.25,1250.73 1429.45,1250.66 1431.64,1250.59 1433.84,1250.52 1436.04,1250.45 1438.24,1250.39 1440.44,1250.32 1442.64,1250.25 1444.83,1250.19 1447.03,1250.12 1449.23,1250.06 1451.43,1249.99 1453.63,1249.93 1455.83,1249.86 1458.03,1249.8 1460.22,1249.74 1462.42,1249.67 1464.62,1249.61 1466.82,1249.55 1469.02,1249.49 1471.22,1249.42 1473.41,1249.36 1475.61,1249.3 1477.81,1249.24 1480.01,1249.18 1482.21,1249.12 1484.41,1249.06 1486.6,1249 1488.8,1248.94 1491,1248.88 1493.2,1248.83 1495.4,1248.77 1497.6,1248.71 1499.79,1248.65 1501.99,1248.59 1504.19,1248.54 1506.39,1248.48 1508.59,1248.43 1510.79,1248.37 1512.98,1248.31 1515.18,1248.26 1517.38,1248.2 1519.58,1248.15 1521.78,1248.1 1523.98,1248.04 1526.17,1247.99 1528.37,1247.93 1530.57,1247.88 1532.77,1247.83 1534.97,1247.78 1537.17,1247.72 1539.36,1247.67 1541.56,1247.62 1543.76,1247.57 1545.96,1247.52 1548.16,1247.47 1550.36,1247.42 1552.55,1247.37 1554.75,1247.32 1556.95,1247.27 1559.15,1247.22 1561.35,1247.17 1563.55,1247.12 1565.74,1247.07 1567.94,1247.02 1570.14,1246.97 1572.34,1246.93 1574.54,1246.88 1576.74,1246.83 1578.93,1246.79 1581.13,1246.74 1583.33,1246.69 1585.53,1246.65 1587.73,1246.6 1589.93,1246.55 1592.12,1246.51 1594.32,1246.46 1596.52,1246.42 1598.72,1246.37 1600.92,1246.33 1603.12,1246.29 1605.31,1246.24 1607.51,1246.2 1609.71,1246.16 1611.91,1246.11 1614.11,1246.07 1616.31,1246.03 1618.5,1245.98 1620.7,1245.94 1622.9,1245.9 1625.1,1245.86 1627.3,1245.82 1629.5,1245.78 1631.7,1245.74 1633.89,1245.7 1636.09,1245.65 1638.29,1245.61 1640.49,1245.57 1642.69,1245.53 1644.89,1245.49 1647.08,1245.46 1649.28,1245.42 1651.48,1245.38 1653.68,1245.34 1655.88,1245.3 1658.08,1245.26 1660.27,1245.22 1662.47,1245.19 1664.67,1245.15 1666.87,1245.11 1669.07,1245.07 1671.27,1245.04 1673.46,1245 1675.66,1244.96 1677.86,1244.93 1680.06,1244.89 1682.26,1244.86 1684.46,1244.82 1686.65,1244.78 1688.85,1244.75 1691.05,1244.71 1693.25,1244.68 1695.45,1244.64 1697.65,1244.61 1699.84,1244.58 1702.04,1244.54 1704.24,1244.51 1706.44,1244.47 1708.64,1244.44 1710.84,1244.41 1713.03,1244.37 1715.23,1244.34 1717.43,1244.31 1719.63,1244.28 1721.83,1244.24 1724.03,1244.21 1726.22,1244.18 1728.42,1244.15 1730.62,1244.12 1732.82,1244.08 1735.02,1244.05 1737.22,1244.02 1739.41,1243.99 1741.61,1243.96 1743.81,1243.93 1746.01,1243.9 1748.21,1243.87 1750.41,1243.84 1752.6,1243.81 1754.8,1243.78 1757,1243.75 1759.2,1243.72 1761.4,1243.69 1763.6,1243.66 1765.79,1243.63 1767.99,1243.6 1770.19,1243.58 1772.39,1243.55 1774.59,1243.52 1776.79,1243.49 1778.98,1243.46 1781.18,1243.44 1783.38,1243.41 1785.58,1243.38 1787.78,1243.35 1789.98,1243.33 1792.18,1243.3 1794.37,1243.27 1796.57,1243.25 1798.77,1243.22 1800.97,1243.19 1803.17,1243.17 1805.37,1243.14 1807.56,1243.11 1809.76,1243.09 1811.96,1243.06 1814.16,1243.04 1816.36,1243.01 1818.56,1242.99 1820.75,1242.96 1822.95,1242.94 1825.15,1242.91 1827.35,1242.89 1829.55,1242.86 1831.75,1242.84 1833.94,1242.82 1836.14,1242.79 1838.34,1242.77 1840.54,1242.74 1842.74,1242.72 1844.94,1242.7 1847.13,1242.67 1849.33,1242.65 1851.53,1242.63 1853.73,1242.6 1855.93,1242.58 1858.13,1242.56 1860.32,1242.54 1862.52,1242.51 1864.72,1242.49 1866.92,1242.47 1869.12,1242.45 1871.32,1242.43 1873.51,1242.4 1875.71,1242.38 1877.91,1242.36 1880.11,1242.34 1882.31,1242.32 1884.51,1242.3 1886.7,1242.28 1888.9,1242.26 1891.1,1242.23 1893.3,1242.21 1895.5,1242.19 1897.7,1242.17 1899.89,1242.15 1902.09,1242.13 1904.29,1242.11 1906.49,1242.09 1908.69,1242.07 1910.89,1242.05 1913.08,1242.03 1915.28,1242.01 1917.48,1241.99 1919.68,1241.98 1921.88,1241.96 1924.08,1241.94 1926.27,1241.92 1928.47,1241.9 1930.67,1241.88 1932.87,1241.86 1935.07,1241.84 1937.27,1241.83 1939.46,1241.81 1941.66,1241.79 1943.86,1241.77 1946.06,1241.75 1948.26,1241.73 1950.46,1241.72 1952.66,1241.7 1954.85,1241.68 1957.05,1241.66 1959.25,1241.65 1961.45,1241.63 1963.65,1241.61 1965.85,1241.6 1968.04,1241.58 1970.24,1241.56 1972.44,1241.55 1974.64,1241.53 1976.84,1241.51 1979.04,1241.5 1981.23,1241.48 1983.43,1241.46 1985.63,1241.45 1987.83,1241.43 1990.03,1241.41 1992.23,1241.4 1994.42,1241.38 1996.62,1241.37 1998.82,1241.35 2001.02,1241.34 2003.22,1241.32 2005.42,1241.31 2007.61,1241.29 2009.81,1241.28 2012.01,1241.26 2014.21,1241.25 2016.41,1241.23 2018.61,1241.22 2020.8,1241.2 2023,1241.19 2025.2,1241.17 2027.4,1241.16 2029.6,1241.14 2031.8,1241.13 2033.99,1241.11 2036.19,1241.1 2038.39,1241.09 2040.59,1241.07 2042.79,1241.06 2044.99,1241.04 2047.18,1241.03 2049.38,1241.02 2051.58,1241 2053.78,1240.99 2055.98,1240.98 2058.18,1240.96 2060.37,1240.95 2062.57,1240.94 2064.77,1240.92 2066.97,1240.91 2069.17,1240.9 2071.37,1240.89 2073.56,1240.87 2075.76,1240.86 2077.96,1240.85 2080.16,1240.83 2082.36,1240.82 2084.56,1240.81 2086.75,1240.8 2088.95,1240.78 2091.15,1240.77 2093.35,1240.76 2095.55,1240.75 2097.75,1240.74 2099.94,1240.72 2102.14,1240.71 2104.34,1240.7 2106.54,1240.69 2108.74,1240.68 2110.94,1240.67 2113.14,1240.65 2115.33,1240.64 2117.53,1240.63 2119.73,1240.62 2121.93,1240.61 2124.13,1240.6 2126.33,1240.59 2128.52,1240.58 2130.72,1240.56 2132.92,1240.55 2135.12,1240.54 2137.32,1240.53 2139.52,1240.52 2141.71,1240.51 2143.91,1240.5 2146.11,1240.49 2148.31,1240.48 2150.51,1240.47 2152.71,1240.46 2154.9,1240.45 2157.1,1240.44 2159.3,1240.43 2161.5,1240.42 2163.7,1240.41 2165.9,1240.4 2168.09,1240.39 2170.29,1240.38 2172.49,1240.37 2174.69,1240.36 2176.89,1240.35 2179.09,1240.34 2181.28,1240.33 2183.48,1240.32 2185.68,1240.31 2187.88,1240.3 2190.08,1240.29 2192.28,1240.28 2194.47,1240.27 2196.67,1240.26 2198.87,1240.25 2201.07,1240.25 2203.27,1240.24 2205.47,1240.23 2207.66,1240.22 2209.86,1240.21 2212.06,1240.2 2214.26,1240.19 2216.46,1240.18 2218.66,1240.18 2220.85,1240.17 2223.05,1240.16 2225.25,1240.15 2227.45,1240.14 2229.65,1240.13 2231.85,1240.12 2234.04,1240.12 2236.24,1240.11 2238.44,1240.1 2240.64,1240.09 2242.84,1240.08 2245.04,1240.07 2247.23,1240.07 2249.43,1240.06 2251.63,1240.05 2253.83,1240.04 2256.03,1240.04 2258.23,1240.03 2260.42,1240.02 2262.62,1240.01 2264.82,1240 2267.02,1240 2269.22,1239.99 2271.42,1239.98 2273.62,1239.97 2275.81,1239.97 2278.01,1239.96 2280.21,1239.95 2282.41,1239.94 2284.61,1239.94 2286.81,1239.93 2289,1239.92 2291.2,1239.92 2293.4,1239.91 2295.6,1239.9 2297.8,1239.89 2300,1239.89 2302.19,1239.88 2304.39,1239.87 2306.59,1239.87 2308.79,1239.86 2310.99,1239.85 2313.19,1239.85 2315.38,1239.84 2317.58,1239.83 2319.78,1239.83 2321.98,1239.82 2324.18,1239.81 2326.38,1239.81 2328.57,1239.8 2330.77,1239.79 2332.97,1239.79 2335.17,1239.78 2337.37,1239.78 2339.57,1239.77 2341.76,1239.76 2343.96,1239.76 2346.16,1239.75 2348.36,1239.74 2350.56,1239.74 2352.76,1239.73 "/>
<path clip-path="url(#clip810)" d="M1800.54 248.629 L2279.55 248.629 L2279.55 93.1086 L1800.54 93.1086  Z" fill="#ffffff" fill-rule="evenodd" fill-opacity="1"/>
<polyline clip-path="url(#clip810)" style="stroke:#000000; stroke-linecap:round; stroke-linejoin:round; stroke-width:4; stroke-opacity:1; fill:none" points="1800.54,248.629 2279.55,248.629 2279.55,93.1086 1800.54,93.1086 1800.54,248.629 "/>
<polyline clip-path="url(#clip810)" style="stroke:#009af9; stroke-linecap:round; stroke-linejoin:round; stroke-width:4; stroke-opacity:1; fill:none" points="1824.94,144.949 1971.35,144.949 "/>
<path clip-path="url(#clip810)" d="M1995.75 136.303 L2000.27 136.303 L2008.37 158.062 L2016.47 136.303 L2020.98 136.303 L2011.26 162.229 L2005.47 162.229 L1995.75 136.303 Z" fill="#000000" fill-rule="nonzero" fill-opacity="1" /><path clip-path="url(#clip810)" d="M2028.28 158.293 L2035.91 158.293 L2035.91 131.928 L2027.6 133.595 L2027.6 129.335 L2035.87 127.669 L2040.54 127.669 L2040.54 158.293 L2048.18 158.293 L2048.18 162.229 L2028.28 162.229 L2028.28 158.293 Z" fill="#000000" fill-rule="nonzero" fill-opacity="1" /><path clip-path="url(#clip810)" d="M2066.28 145.585 L2066.28 152.807 L2074.41 152.807 L2074.41 155.006 L2066.28 155.006 L2066.28 162.229 L2063.85 162.229 L2063.85 155.006 L2055.73 155.006 L2055.73 152.807 L2063.85 152.807 L2063.85 145.585 L2066.28 145.585 Z" fill="#000000" fill-rule="nonzero" fill-opacity="1" /><path clip-path="url(#clip810)" d="M2098.58 137.067 L2098.58 141.094 Q2096.77 140.169 2094.83 139.706 Q2092.88 139.243 2090.8 139.243 Q2087.63 139.243 2086.03 140.215 Q2084.46 141.187 2084.46 143.131 Q2084.46 144.613 2085.59 145.469 Q2086.72 146.303 2090.15 147.067 L2091.61 147.391 Q2096.15 148.363 2098.04 150.145 Q2099.96 151.905 2099.96 155.076 Q2099.96 158.687 2097.09 160.793 Q2094.25 162.9 2089.25 162.9 Q2087.16 162.9 2084.9 162.483 Q2082.65 162.09 2080.15 161.28 L2080.15 156.881 Q2082.51 158.108 2084.8 158.733 Q2087.09 159.335 2089.34 159.335 Q2092.35 159.335 2093.97 158.317 Q2095.59 157.275 2095.59 155.4 Q2095.59 153.664 2094.41 152.738 Q2093.25 151.812 2089.29 150.956 L2087.81 150.608 Q2083.85 149.775 2082.09 148.062 Q2080.34 146.326 2080.34 143.317 Q2080.34 139.659 2082.93 137.669 Q2085.52 135.678 2090.29 135.678 Q2092.65 135.678 2094.73 136.025 Q2096.82 136.372 2098.58 137.067 Z" fill="#000000" fill-rule="nonzero" fill-opacity="1" /><path clip-path="url(#clip810)" d="M2110.96 128.942 L2110.96 136.303 L2119.73 136.303 L2119.73 139.613 L2110.96 139.613 L2110.96 153.687 Q2110.96 156.858 2111.82 157.761 Q2112.7 158.664 2115.36 158.664 L2119.73 158.664 L2119.73 162.229 L2115.36 162.229 Q2110.43 162.229 2108.55 160.4 Q2106.68 158.548 2106.68 153.687 L2106.68 139.613 L2103.55 139.613 L2103.55 136.303 L2106.68 136.303 L2106.68 128.942 L2110.96 128.942 Z" fill="#000000" fill-rule="nonzero" fill-opacity="1" /><path clip-path="url(#clip810)" d="M2135.38 139.289 Q2131.96 139.289 2129.96 141.974 Q2127.97 144.636 2127.97 149.289 Q2127.97 153.942 2129.94 156.627 Q2131.93 159.289 2135.38 159.289 Q2138.78 159.289 2140.77 156.604 Q2142.77 153.918 2142.77 149.289 Q2142.77 144.682 2140.77 141.997 Q2138.78 139.289 2135.38 139.289 M2135.38 135.678 Q2140.94 135.678 2144.11 139.289 Q2147.28 142.9 2147.28 149.289 Q2147.28 155.655 2144.11 159.289 Q2140.94 162.9 2135.38 162.9 Q2129.8 162.9 2126.63 159.289 Q2123.48 155.655 2123.48 149.289 Q2123.48 142.9 2126.63 139.289 Q2129.8 135.678 2135.38 135.678 Z" fill="#000000" fill-rule="nonzero" fill-opacity="1" /><path clip-path="url(#clip810)" d="M2169.36 140.284 Q2168.64 139.868 2167.79 139.682 Q2166.95 139.474 2165.94 139.474 Q2162.33 139.474 2160.38 141.835 Q2158.46 144.173 2158.46 148.571 L2158.46 162.229 L2154.18 162.229 L2154.18 136.303 L2158.46 136.303 L2158.46 140.331 Q2159.8 137.969 2161.95 136.835 Q2164.11 135.678 2167.19 135.678 Q2167.63 135.678 2168.16 135.747 Q2168.69 135.794 2169.34 135.909 L2169.36 140.284 Z" fill="#000000" fill-rule="nonzero" fill-opacity="1" /><path clip-path="url(#clip810)" d="M2185.61 149.196 Q2180.45 149.196 2178.46 150.377 Q2176.47 151.557 2176.47 154.405 Q2176.47 156.673 2177.95 158.016 Q2179.45 159.335 2182.02 159.335 Q2185.57 159.335 2187.7 156.835 Q2189.85 154.312 2189.85 150.145 L2189.85 149.196 L2185.61 149.196 M2194.11 147.437 L2194.11 162.229 L2189.85 162.229 L2189.85 158.293 Q2188.39 160.655 2186.21 161.789 Q2184.04 162.9 2180.89 162.9 Q2176.91 162.9 2174.55 160.678 Q2172.21 158.432 2172.21 154.682 Q2172.21 150.307 2175.13 148.085 Q2178.07 145.863 2183.88 145.863 L2189.85 145.863 L2189.85 145.446 Q2189.85 142.507 2187.9 140.909 Q2185.98 139.289 2182.49 139.289 Q2180.27 139.289 2178.16 139.821 Q2176.05 140.354 2174.11 141.419 L2174.11 137.483 Q2176.45 136.581 2178.64 136.141 Q2180.84 135.678 2182.93 135.678 Q2188.55 135.678 2191.33 138.594 Q2194.11 141.511 2194.11 147.437 Z" fill="#000000" fill-rule="nonzero" fill-opacity="1" /><path clip-path="url(#clip810)" d="M2219.94 148.965 Q2219.94 144.335 2218.02 141.789 Q2216.12 139.243 2212.67 139.243 Q2209.25 139.243 2207.33 141.789 Q2205.43 144.335 2205.43 148.965 Q2205.43 153.571 2207.33 156.118 Q2209.25 158.664 2212.67 158.664 Q2216.12 158.664 2218.02 156.118 Q2219.94 153.571 2219.94 148.965 M2224.2 159.011 Q2224.2 165.631 2221.26 168.849 Q2218.32 172.09 2212.26 172.09 Q2210.01 172.09 2208.02 171.742 Q2206.03 171.418 2204.15 170.724 L2204.15 166.58 Q2206.03 167.599 2207.86 168.085 Q2209.69 168.571 2211.58 168.571 Q2215.77 168.571 2217.86 166.372 Q2219.94 164.196 2219.94 159.775 L2219.94 157.668 Q2218.62 159.96 2216.56 161.094 Q2214.5 162.229 2211.63 162.229 Q2206.86 162.229 2203.95 158.594 Q2201.03 154.96 2201.03 148.965 Q2201.03 142.946 2203.95 139.312 Q2206.86 135.678 2211.63 135.678 Q2214.5 135.678 2216.56 136.812 Q2218.62 137.946 2219.94 140.238 L2219.94 136.303 L2224.2 136.303 L2224.2 159.011 Z" fill="#000000" fill-rule="nonzero" fill-opacity="1" /><path clip-path="url(#clip810)" d="M2255.15 148.201 L2255.15 150.284 L2235.57 150.284 Q2235.84 154.682 2238.2 156.997 Q2240.59 159.289 2244.82 159.289 Q2247.28 159.289 2249.57 158.687 Q2251.89 158.085 2254.15 156.881 L2254.15 160.909 Q2251.86 161.881 2249.45 162.391 Q2247.05 162.9 2244.57 162.9 Q2238.37 162.9 2234.73 159.289 Q2231.12 155.678 2231.12 149.52 Q2231.12 143.155 2234.55 139.428 Q2238 135.678 2243.83 135.678 Q2249.06 135.678 2252.09 139.057 Q2255.15 142.414 2255.15 148.201 M2250.89 146.951 Q2250.84 143.456 2248.92 141.372 Q2247.02 139.289 2243.88 139.289 Q2240.31 139.289 2238.16 141.303 Q2236.03 143.317 2235.7 146.974 L2250.89 146.951 Z" fill="#000000" fill-rule="nonzero" fill-opacity="1" /><polyline clip-path="url(#clip810)" style="stroke:#e26f46; stroke-linecap:round; stroke-linejoin:round; stroke-width:4; stroke-opacity:1; fill:none" points="1824.94,196.789 1971.35,196.789 "/>
<path clip-path="url(#clip810)" d="M1995.75 188.143 L2000.27 188.143 L2008.37 209.902 L2016.47 188.143 L2020.98 188.143 L2011.26 214.069 L2005.47 214.069 L1995.75 188.143 Z" fill="#000000" fill-rule="nonzero" fill-opacity="1" /><path clip-path="url(#clip810)" d="M2027.51 179.509 L2045.87 179.509 L2045.87 183.444 L2031.79 183.444 L2031.79 191.916 Q2032.81 191.569 2033.83 191.407 Q2034.85 191.222 2035.87 191.222 Q2041.65 191.222 2045.03 194.393 Q2048.41 197.564 2048.41 202.981 Q2048.41 208.559 2044.94 211.661 Q2041.47 214.74 2035.15 214.74 Q2032.97 214.74 2030.71 214.37 Q2028.46 213.999 2026.05 213.258 L2026.05 208.559 Q2028.14 209.694 2030.36 210.249 Q2032.58 210.805 2035.06 210.805 Q2039.06 210.805 2041.4 208.698 Q2043.74 206.592 2043.74 202.981 Q2043.74 199.37 2041.4 197.263 Q2039.06 195.157 2035.06 195.157 Q2033.18 195.157 2031.31 195.573 Q2029.46 195.99 2027.51 196.87 L2027.51 179.509 Z" fill="#000000" fill-rule="nonzero" fill-opacity="1" /><path clip-path="url(#clip810)" d="M2066.28 197.425 L2066.28 204.647 L2074.41 204.647 L2074.41 206.846 L2066.28 206.846 L2066.28 214.069 L2063.85 214.069 L2063.85 206.846 L2055.73 206.846 L2055.73 204.647 L2063.85 204.647 L2063.85 197.425 L2066.28 197.425 Z" fill="#000000" fill-rule="nonzero" fill-opacity="1" /><path clip-path="url(#clip810)" d="M2098.58 188.907 L2098.58 192.934 Q2096.77 192.009 2094.83 191.546 Q2092.88 191.083 2090.8 191.083 Q2087.63 191.083 2086.03 192.055 Q2084.46 193.027 2084.46 194.971 Q2084.46 196.453 2085.59 197.309 Q2086.72 198.143 2090.15 198.907 L2091.61 199.231 Q2096.15 200.203 2098.04 201.985 Q2099.96 203.745 2099.96 206.916 Q2099.96 210.527 2097.09 212.633 Q2094.25 214.74 2089.25 214.74 Q2087.16 214.74 2084.9 214.323 Q2082.65 213.93 2080.15 213.12 L2080.15 208.721 Q2082.51 209.948 2084.8 210.573 Q2087.09 211.175 2089.34 211.175 Q2092.35 211.175 2093.97 210.157 Q2095.59 209.115 2095.59 207.24 Q2095.59 205.504 2094.41 204.578 Q2093.25 203.652 2089.29 202.796 L2087.81 202.448 Q2083.85 201.615 2082.09 199.902 Q2080.34 198.166 2080.34 195.157 Q2080.34 191.499 2082.93 189.509 Q2085.52 187.518 2090.29 187.518 Q2092.65 187.518 2094.73 187.865 Q2096.82 188.212 2098.58 188.907 Z" fill="#000000" fill-rule="nonzero" fill-opacity="1" /><path clip-path="url(#clip810)" d="M2110.96 180.782 L2110.96 188.143 L2119.73 188.143 L2119.73 191.453 L2110.96 191.453 L2110.96 205.527 Q2110.96 208.698 2111.82 209.601 Q2112.7 210.504 2115.36 210.504 L2119.73 210.504 L2119.73 214.069 L2115.36 214.069 Q2110.43 214.069 2108.55 212.24 Q2106.68 210.388 2106.68 205.527 L2106.68 191.453 L2103.55 191.453 L2103.55 188.143 L2106.68 188.143 L2106.68 180.782 L2110.96 180.782 Z" fill="#000000" fill-rule="nonzero" fill-opacity="1" /><path clip-path="url(#clip810)" d="M2135.38 191.129 Q2131.96 191.129 2129.96 193.814 Q2127.97 196.476 2127.97 201.129 Q2127.97 205.782 2129.94 208.467 Q2131.93 211.129 2135.38 211.129 Q2138.78 211.129 2140.77 208.444 Q2142.77 205.758 2142.77 201.129 Q2142.77 196.522 2140.77 193.837 Q2138.78 191.129 2135.38 191.129 M2135.38 187.518 Q2140.94 187.518 2144.11 191.129 Q2147.28 194.74 2147.28 201.129 Q2147.28 207.495 2144.11 211.129 Q2140.94 214.74 2135.38 214.74 Q2129.8 214.74 2126.63 211.129 Q2123.48 207.495 2123.48 201.129 Q2123.48 194.74 2126.63 191.129 Q2129.8 187.518 2135.38 187.518 Z" fill="#000000" fill-rule="nonzero" fill-opacity="1" /><path clip-path="url(#clip810)" d="M2169.36 192.124 Q2168.64 191.708 2167.79 191.522 Q2166.95 191.314 2165.94 191.314 Q2162.33 191.314 2160.38 193.675 Q2158.46 196.013 2158.46 200.411 L2158.46 214.069 L2154.18 214.069 L2154.18 188.143 L2158.46 188.143 L2158.46 192.171 Q2159.8 189.809 2161.95 188.675 Q2164.11 187.518 2167.19 187.518 Q2167.63 187.518 2168.16 187.587 Q2168.69 187.634 2169.34 187.749 L2169.36 192.124 Z" fill="#000000" fill-rule="nonzero" fill-opacity="1" /><path clip-path="url(#clip810)" d="M2185.61 201.036 Q2180.45 201.036 2178.46 202.217 Q2176.47 203.397 2176.47 206.245 Q2176.47 208.513 2177.95 209.856 Q2179.45 211.175 2182.02 211.175 Q2185.57 211.175 2187.7 208.675 Q2189.85 206.152 2189.85 201.985 L2189.85 201.036 L2185.61 201.036 M2194.11 199.277 L2194.11 214.069 L2189.85 214.069 L2189.85 210.133 Q2188.39 212.495 2186.21 213.629 Q2184.04 214.74 2180.89 214.74 Q2176.91 214.74 2174.55 212.518 Q2172.21 210.272 2172.21 206.522 Q2172.21 202.147 2175.13 199.925 Q2178.07 197.703 2183.88 197.703 L2189.85 197.703 L2189.85 197.286 Q2189.85 194.347 2187.9 192.749 Q2185.98 191.129 2182.49 191.129 Q2180.27 191.129 2178.16 191.661 Q2176.05 192.194 2174.11 193.259 L2174.11 189.323 Q2176.45 188.421 2178.64 187.981 Q2180.84 187.518 2182.93 187.518 Q2188.55 187.518 2191.33 190.434 Q2194.11 193.351 2194.11 199.277 Z" fill="#000000" fill-rule="nonzero" fill-opacity="1" /><path clip-path="url(#clip810)" d="M2219.94 200.805 Q2219.94 196.175 2218.02 193.629 Q2216.12 191.083 2212.67 191.083 Q2209.25 191.083 2207.33 193.629 Q2205.43 196.175 2205.43 200.805 Q2205.43 205.411 2207.33 207.958 Q2209.25 210.504 2212.67 210.504 Q2216.12 210.504 2218.02 207.958 Q2219.94 205.411 2219.94 200.805 M2224.2 210.851 Q2224.2 217.471 2221.26 220.689 Q2218.32 223.93 2212.26 223.93 Q2210.01 223.93 2208.02 223.582 Q2206.03 223.258 2204.15 222.564 L2204.15 218.42 Q2206.03 219.439 2207.86 219.925 Q2209.69 220.411 2211.58 220.411 Q2215.77 220.411 2217.86 218.212 Q2219.94 216.036 2219.94 211.615 L2219.94 209.508 Q2218.62 211.8 2216.56 212.934 Q2214.5 214.069 2211.63 214.069 Q2206.86 214.069 2203.95 210.434 Q2201.03 206.8 2201.03 200.805 Q2201.03 194.786 2203.95 191.152 Q2206.86 187.518 2211.63 187.518 Q2214.5 187.518 2216.56 188.652 Q2218.62 189.786 2219.94 192.078 L2219.94 188.143 L2224.2 188.143 L2224.2 210.851 Z" fill="#000000" fill-rule="nonzero" fill-opacity="1" /><path clip-path="url(#clip810)" d="M2255.15 200.041 L2255.15 202.124 L2235.57 202.124 Q2235.84 206.522 2238.2 208.837 Q2240.59 211.129 2244.82 211.129 Q2247.28 211.129 2249.57 210.527 Q2251.89 209.925 2254.15 208.721 L2254.15 212.749 Q2251.86 213.721 2249.45 214.231 Q2247.05 214.74 2244.57 214.74 Q2238.37 214.74 2234.73 211.129 Q2231.12 207.518 2231.12 201.36 Q2231.12 194.995 2234.55 191.268 Q2238 187.518 2243.83 187.518 Q2249.06 187.518 2252.09 190.897 Q2255.15 194.254 2255.15 200.041 M2250.89 198.791 Q2250.84 195.296 2248.92 193.212 Q2247.02 191.129 2243.88 191.129 Q2240.31 191.129 2238.16 193.143 Q2236.03 195.157 2235.7 198.814 L2250.89 198.791 Z" fill="#000000" fill-rule="nonzero" fill-opacity="1" /></svg>
