<?xml version="1.0" encoding="utf-8"?>
<svg xmlns="http://www.w3.org/2000/svg" xmlns:xlink="http://www.w3.org/1999/xlink" width="600" height="400" viewBox="0 0 2400 1600">
<defs>
  <clipPath id="clip390">
    <rect x="0" y="0" width="2400" height="1600"/>
  </clipPath>
</defs>
<path clip-path="url(#clip390)" d="M0 1600 L2400 1600 L2400 0 L0 0  Z" fill="#ffffff" fill-rule="evenodd" fill-opacity="1"/>
<defs>
  <clipPath id="clip391">
    <rect x="480" y="0" width="1681" height="1600"/>
  </clipPath>
</defs>
<path clip-path="url(#clip390)" d="M192.709 1423.18 L2352.76 1423.18 L2352.76 47.2441 L192.709 47.2441  Z" fill="#ffffff" fill-rule="evenodd" fill-opacity="1"/>
<defs>
  <clipPath id="clip392">
    <rect x="192" y="47" width="2161" height="1377"/>
  </clipPath>
</defs>
<polyline clip-path="url(#clip392)" style="stroke:#000000; stroke-linecap:round; stroke-linejoin:round; stroke-width:2; stroke-opacity:0.1; fill:none" points="192.709,1423.18 192.709,47.2441 "/>
<polyline clip-path="url(#clip392)" style="stroke:#000000; stroke-linecap:round; stroke-linejoin:round; stroke-width:2; stroke-opacity:0.1; fill:none" points="732.721,1423.18 732.721,47.2441 "/>
<polyline clip-path="url(#clip392)" style="stroke:#000000; stroke-linecap:round; stroke-linejoin:round; stroke-width:2; stroke-opacity:0.1; fill:none" points="1272.73,1423.18 1272.73,47.2441 "/>
<polyline clip-path="url(#clip392)" style="stroke:#000000; stroke-linecap:round; stroke-linejoin:round; stroke-width:2; stroke-opacity:0.1; fill:none" points="1812.74,1423.18 1812.74,47.2441 "/>
<polyline clip-path="url(#clip392)" style="stroke:#000000; stroke-linecap:round; stroke-linejoin:round; stroke-width:2; stroke-opacity:0.1; fill:none" points="2352.76,1423.18 2352.76,47.2441 "/>
<polyline clip-path="url(#clip392)" style="stroke:#000000; stroke-linecap:round; stroke-linejoin:round; stroke-width:2; stroke-opacity:0.1; fill:none" points="192.709,1288.33 2352.76,1288.33 "/>
<polyline clip-path="url(#clip392)" style="stroke:#000000; stroke-linecap:round; stroke-linejoin:round; stroke-width:2; stroke-opacity:0.1; fill:none" points="192.709,1072.95 2352.76,1072.95 "/>
<polyline clip-path="url(#clip392)" style="stroke:#000000; stroke-linecap:round; stroke-linejoin:round; stroke-width:2; stroke-opacity:0.1; fill:none" points="192.709,857.566 2352.76,857.566 "/>
<polyline clip-path="url(#clip392)" style="stroke:#000000; stroke-linecap:round; stroke-linejoin:round; stroke-width:2; stroke-opacity:0.1; fill:none" points="192.709,642.183 2352.76,642.183 "/>
<polyline clip-path="url(#clip392)" style="stroke:#000000; stroke-linecap:round; stroke-linejoin:round; stroke-width:2; stroke-opacity:0.1; fill:none" points="192.709,426.8 2352.76,426.8 "/>
<polyline clip-path="url(#clip392)" style="stroke:#000000; stroke-linecap:round; stroke-linejoin:round; stroke-width:2; stroke-opacity:0.1; fill:none" points="192.709,211.416 2352.76,211.416 "/>
<polyline clip-path="url(#clip390)" style="stroke:#000000; stroke-linecap:round; stroke-linejoin:round; stroke-width:4; stroke-opacity:1; fill:none" points="192.709,1423.18 2352.76,1423.18 "/>
<polyline clip-path="url(#clip390)" style="stroke:#000000; stroke-linecap:round; stroke-linejoin:round; stroke-width:4; stroke-opacity:1; fill:none" points="192.709,1423.18 192.709,1404.28 "/>
<polyline clip-path="url(#clip390)" style="stroke:#000000; stroke-linecap:round; stroke-linejoin:round; stroke-width:4; stroke-opacity:1; fill:none" points="732.721,1423.18 732.721,1404.28 "/>
<polyline clip-path="url(#clip390)" style="stroke:#000000; stroke-linecap:round; stroke-linejoin:round; stroke-width:4; stroke-opacity:1; fill:none" points="1272.73,1423.18 1272.73,1404.28 "/>
<polyline clip-path="url(#clip390)" style="stroke:#000000; stroke-linecap:round; stroke-linejoin:round; stroke-width:4; stroke-opacity:1; fill:none" points="1812.74,1423.18 1812.74,1404.28 "/>
<polyline clip-path="url(#clip390)" style="stroke:#000000; stroke-linecap:round; stroke-linejoin:round; stroke-width:4; stroke-opacity:1; fill:none" points="2352.76,1423.18 2352.76,1404.28 "/>
<path clip-path="url(#clip390)" d="M170.094 1454.1 Q166.482 1454.1 164.654 1457.66 Q162.848 1461.2 162.848 1468.33 Q162.848 1475.44 164.654 1479.01 Q166.482 1482.55 170.094 1482.55 Q173.728 1482.55 175.533 1479.01 Q177.362 1475.44 177.362 1468.33 Q177.362 1461.2 175.533 1457.66 Q173.728 1454.1 170.094 1454.1 M170.094 1450.39 Q175.904 1450.39 178.959 1455 Q182.038 1459.58 182.038 1468.33 Q182.038 1477.06 178.959 1481.67 Q175.904 1486.25 170.094 1486.25 Q164.283 1486.25 161.205 1481.67 Q158.149 1477.06 158.149 1468.33 Q158.149 1459.58 161.205 1455 Q164.283 1450.39 170.094 1450.39 Z" fill="#000000" fill-rule="nonzero" fill-opacity="1" /><path clip-path="url(#clip390)" d="M190.255 1479.7 L195.14 1479.7 L195.14 1485.58 L190.255 1485.58 L190.255 1479.7 Z" fill="#000000" fill-rule="nonzero" fill-opacity="1" /><path clip-path="url(#clip390)" d="M215.325 1454.1 Q211.714 1454.1 209.885 1457.66 Q208.079 1461.2 208.079 1468.33 Q208.079 1475.44 209.885 1479.01 Q211.714 1482.55 215.325 1482.55 Q218.959 1482.55 220.765 1479.01 Q222.593 1475.44 222.593 1468.33 Q222.593 1461.2 220.765 1457.66 Q218.959 1454.1 215.325 1454.1 M215.325 1450.39 Q221.135 1450.39 224.19 1455 Q227.269 1459.58 227.269 1468.33 Q227.269 1477.06 224.19 1481.67 Q221.135 1486.25 215.325 1486.25 Q209.515 1486.25 206.436 1481.67 Q203.38 1477.06 203.38 1468.33 Q203.38 1459.58 206.436 1455 Q209.515 1450.39 215.325 1450.39 Z" fill="#000000" fill-rule="nonzero" fill-opacity="1" /><path clip-path="url(#clip390)" d="M710.603 1454.1 Q706.992 1454.1 705.163 1457.66 Q703.358 1461.2 703.358 1468.33 Q703.358 1475.44 705.163 1479.01 Q706.992 1482.55 710.603 1482.55 Q714.237 1482.55 716.043 1479.01 Q717.871 1475.44 717.871 1468.33 Q717.871 1461.2 716.043 1457.66 Q714.237 1454.1 710.603 1454.1 M710.603 1450.39 Q716.413 1450.39 719.469 1455 Q722.547 1459.58 722.547 1468.33 Q722.547 1477.06 719.469 1481.67 Q716.413 1486.25 710.603 1486.25 Q704.793 1486.25 701.714 1481.67 Q698.659 1477.06 698.659 1468.33 Q698.659 1459.58 701.714 1455 Q704.793 1450.39 710.603 1450.39 Z" fill="#000000" fill-rule="nonzero" fill-opacity="1" /><path clip-path="url(#clip390)" d="M730.765 1479.7 L735.649 1479.7 L735.649 1485.58 L730.765 1485.58 L730.765 1479.7 Z" fill="#000000" fill-rule="nonzero" fill-opacity="1" /><path clip-path="url(#clip390)" d="M745.88 1451.02 L764.237 1451.02 L764.237 1454.96 L750.163 1454.96 L750.163 1463.43 Q751.181 1463.08 752.2 1462.92 Q753.218 1462.73 754.237 1462.73 Q760.024 1462.73 763.404 1465.9 Q766.783 1469.08 766.783 1474.49 Q766.783 1480.07 763.311 1483.17 Q759.839 1486.25 753.519 1486.25 Q751.343 1486.25 749.075 1485.88 Q746.83 1485.51 744.422 1484.77 L744.422 1480.07 Q746.505 1481.2 748.728 1481.76 Q750.95 1482.32 753.427 1482.32 Q757.431 1482.32 759.769 1480.21 Q762.107 1478.1 762.107 1474.49 Q762.107 1470.88 759.769 1468.77 Q757.431 1466.67 753.427 1466.67 Q751.552 1466.67 749.677 1467.08 Q747.825 1467.5 745.88 1468.38 L745.88 1451.02 Z" fill="#000000" fill-rule="nonzero" fill-opacity="1" /><path clip-path="url(#clip390)" d="M1239.89 1481.64 L1247.52 1481.64 L1247.52 1455.28 L1239.21 1456.95 L1239.21 1452.69 L1247.48 1451.02 L1252.15 1451.02 L1252.15 1481.64 L1259.79 1481.64 L1259.79 1485.58 L1239.89 1485.58 L1239.89 1481.64 Z" fill="#000000" fill-rule="nonzero" fill-opacity="1" /><path clip-path="url(#clip390)" d="M1269.24 1479.7 L1274.12 1479.7 L1274.12 1485.58 L1269.24 1485.58 L1269.24 1479.7 Z" fill="#000000" fill-rule="nonzero" fill-opacity="1" /><path clip-path="url(#clip390)" d="M1294.31 1454.1 Q1290.7 1454.1 1288.87 1457.66 Q1287.06 1461.2 1287.06 1468.33 Q1287.06 1475.44 1288.87 1479.01 Q1290.7 1482.55 1294.31 1482.55 Q1297.94 1482.55 1299.75 1479.01 Q1301.57 1475.44 1301.57 1468.33 Q1301.57 1461.2 1299.75 1457.66 Q1297.94 1454.1 1294.31 1454.1 M1294.31 1450.39 Q1300.12 1450.39 1303.17 1455 Q1306.25 1459.58 1306.25 1468.33 Q1306.25 1477.06 1303.17 1481.67 Q1300.12 1486.25 1294.31 1486.25 Q1288.5 1486.25 1285.42 1481.67 Q1282.36 1477.06 1282.36 1468.33 Q1282.36 1459.58 1285.42 1455 Q1288.5 1450.39 1294.31 1450.39 Z" fill="#000000" fill-rule="nonzero" fill-opacity="1" /><path clip-path="url(#clip390)" d="M1780.39 1481.64 L1788.03 1481.64 L1788.03 1455.28 L1779.72 1456.95 L1779.72 1452.69 L1787.99 1451.02 L1792.66 1451.02 L1792.66 1481.64 L1800.3 1481.64 L1800.3 1485.58 L1780.39 1485.58 L1780.39 1481.64 Z" fill="#000000" fill-rule="nonzero" fill-opacity="1" /><path clip-path="url(#clip390)" d="M1809.75 1479.7 L1814.63 1479.7 L1814.63 1485.58 L1809.75 1485.58 L1809.75 1479.7 Z" fill="#000000" fill-rule="nonzero" fill-opacity="1" /><path clip-path="url(#clip390)" d="M1824.86 1451.02 L1843.22 1451.02 L1843.22 1454.96 L1829.14 1454.96 L1829.14 1463.43 Q1830.16 1463.08 1831.18 1462.92 Q1832.2 1462.73 1833.22 1462.73 Q1839.01 1462.73 1842.39 1465.9 Q1845.76 1469.08 1845.76 1474.49 Q1845.76 1480.07 1842.29 1483.17 Q1838.82 1486.25 1832.5 1486.25 Q1830.33 1486.25 1828.06 1485.88 Q1825.81 1485.51 1823.4 1484.77 L1823.4 1480.07 Q1825.49 1481.2 1827.71 1481.76 Q1829.93 1482.32 1832.41 1482.32 Q1836.41 1482.32 1838.75 1480.21 Q1841.09 1478.1 1841.09 1474.49 Q1841.09 1470.88 1838.75 1468.77 Q1836.41 1466.67 1832.41 1466.67 Q1830.53 1466.67 1828.66 1467.08 Q1826.81 1467.5 1824.86 1468.38 L1824.86 1451.02 Z" fill="#000000" fill-rule="nonzero" fill-opacity="1" /><path clip-path="url(#clip390)" d="M2323.99 1481.64 L2340.31 1481.64 L2340.31 1485.58 L2318.37 1485.58 L2318.37 1481.64 Q2321.03 1478.89 2325.61 1474.26 Q2330.22 1469.61 2331.4 1468.27 Q2333.65 1465.74 2334.53 1464.01 Q2335.43 1462.25 2335.43 1460.56 Q2335.43 1457.8 2333.49 1456.07 Q2331.56 1454.33 2328.46 1454.33 Q2326.26 1454.33 2323.81 1455.09 Q2321.38 1455.86 2318.6 1457.41 L2318.6 1452.69 Q2321.43 1451.55 2323.88 1450.97 Q2326.33 1450.39 2328.37 1450.39 Q2333.74 1450.39 2336.93 1453.08 Q2340.13 1455.77 2340.13 1460.26 Q2340.13 1462.39 2339.32 1464.31 Q2338.53 1466.2 2336.42 1468.8 Q2335.85 1469.47 2332.74 1472.69 Q2329.64 1475.88 2323.99 1481.64 Z" fill="#000000" fill-rule="nonzero" fill-opacity="1" /><path clip-path="url(#clip390)" d="M2350.13 1479.7 L2355.01 1479.7 L2355.01 1485.58 L2350.13 1485.58 L2350.13 1479.7 Z" fill="#000000" fill-rule="nonzero" fill-opacity="1" /><path clip-path="url(#clip390)" d="M2375.2 1454.1 Q2371.59 1454.1 2369.76 1457.66 Q2367.95 1461.2 2367.95 1468.33 Q2367.95 1475.44 2369.76 1479.01 Q2371.59 1482.55 2375.2 1482.55 Q2378.83 1482.55 2380.64 1479.01 Q2382.47 1475.44 2382.47 1468.33 Q2382.47 1461.2 2380.64 1457.66 Q2378.83 1454.1 2375.2 1454.1 M2375.2 1450.39 Q2381.01 1450.39 2384.06 1455 Q2387.14 1459.58 2387.14 1468.33 Q2387.14 1477.06 2384.06 1481.67 Q2381.01 1486.25 2375.2 1486.25 Q2369.39 1486.25 2366.31 1481.67 Q2363.25 1477.06 2363.25 1468.33 Q2363.25 1459.58 2366.31 1455 Q2369.39 1450.39 2375.2 1450.39 Z" fill="#000000" fill-rule="nonzero" fill-opacity="1" /><path clip-path="url(#clip390)" d="M1271.79 1522.27 L1271.79 1532.4 L1283.86 1532.4 L1283.86 1536.95 L1271.79 1536.95 L1271.79 1556.3 Q1271.79 1560.66 1272.97 1561.9 Q1274.18 1563.14 1277.84 1563.14 L1283.86 1563.14 L1283.86 1568.04 L1277.84 1568.04 Q1271.06 1568.04 1268.48 1565.53 Q1265.91 1562.98 1265.91 1556.3 L1265.91 1536.95 L1261.61 1536.95 L1261.61 1532.4 L1265.91 1532.4 L1265.91 1522.27 L1271.79 1522.27 Z" fill="#000000" fill-rule="nonzero" fill-opacity="1" /><polyline clip-path="url(#clip390)" style="stroke:#000000; stroke-linecap:round; stroke-linejoin:round; stroke-width:4; stroke-opacity:1; fill:none" points="192.709,1423.18 192.709,47.2441 "/>
<polyline clip-path="url(#clip390)" style="stroke:#000000; stroke-linecap:round; stroke-linejoin:round; stroke-width:4; stroke-opacity:1; fill:none" points="192.709,1288.33 211.607,1288.33 "/>
<polyline clip-path="url(#clip390)" style="stroke:#000000; stroke-linecap:round; stroke-linejoin:round; stroke-width:4; stroke-opacity:1; fill:none" points="192.709,1072.95 211.607,1072.95 "/>
<polyline clip-path="url(#clip390)" style="stroke:#000000; stroke-linecap:round; stroke-linejoin:round; stroke-width:4; stroke-opacity:1; fill:none" points="192.709,857.566 211.607,857.566 "/>
<polyline clip-path="url(#clip390)" style="stroke:#000000; stroke-linecap:round; stroke-linejoin:round; stroke-width:4; stroke-opacity:1; fill:none" points="192.709,642.183 211.607,642.183 "/>
<polyline clip-path="url(#clip390)" style="stroke:#000000; stroke-linecap:round; stroke-linejoin:round; stroke-width:4; stroke-opacity:1; fill:none" points="192.709,426.8 211.607,426.8 "/>
<polyline clip-path="url(#clip390)" style="stroke:#000000; stroke-linecap:round; stroke-linejoin:round; stroke-width:4; stroke-opacity:1; fill:none" points="192.709,211.416 211.607,211.416 "/>
<path clip-path="url(#clip390)" d="M50.9921 1288.78 L80.6679 1288.78 L80.6679 1292.72 L50.9921 1292.72 L50.9921 1288.78 Z" fill="#000000" fill-rule="nonzero" fill-opacity="1" /><path clip-path="url(#clip390)" d="M100.76 1274.13 Q97.1493 1274.13 95.3206 1277.7 Q93.515 1281.24 93.515 1288.37 Q93.515 1295.47 95.3206 1299.04 Q97.1493 1302.58 100.76 1302.58 Q104.395 1302.58 106.2 1299.04 Q108.029 1295.47 108.029 1288.37 Q108.029 1281.24 106.2 1277.7 Q104.395 1274.13 100.76 1274.13 M100.76 1270.43 Q106.571 1270.43 109.626 1275.03 Q112.705 1279.62 112.705 1288.37 Q112.705 1297.09 109.626 1301.7 Q106.571 1306.28 100.76 1306.28 Q94.9502 1306.28 91.8715 1301.7 Q88.816 1297.09 88.816 1288.37 Q88.816 1279.62 91.8715 1275.03 Q94.9502 1270.43 100.76 1270.43 Z" fill="#000000" fill-rule="nonzero" fill-opacity="1" /><path clip-path="url(#clip390)" d="M120.922 1299.73 L125.807 1299.73 L125.807 1305.61 L120.922 1305.61 L120.922 1299.73 Z" fill="#000000" fill-rule="nonzero" fill-opacity="1" /><path clip-path="url(#clip390)" d="M136.802 1301.68 L144.441 1301.68 L144.441 1275.31 L136.131 1276.98 L136.131 1272.72 L144.394 1271.05 L149.07 1271.05 L149.07 1301.68 L156.709 1301.68 L156.709 1305.61 L136.802 1305.61 L136.802 1301.68 Z" fill="#000000" fill-rule="nonzero" fill-opacity="1" /><path clip-path="url(#clip390)" d="M99.5335 1058.75 Q95.9224 1058.75 94.0937 1062.31 Q92.2882 1065.85 92.2882 1072.98 Q92.2882 1080.09 94.0937 1083.66 Q95.9224 1087.2 99.5335 1087.2 Q103.168 1087.2 104.973 1083.66 Q106.802 1080.09 106.802 1072.98 Q106.802 1065.85 104.973 1062.31 Q103.168 1058.75 99.5335 1058.75 M99.5335 1055.04 Q105.344 1055.04 108.399 1059.65 Q111.478 1064.23 111.478 1072.98 Q111.478 1081.71 108.399 1086.32 Q105.344 1090.9 99.5335 1090.9 Q93.7234 1090.9 90.6447 1086.32 Q87.5892 1081.71 87.5892 1072.98 Q87.5892 1064.23 90.6447 1059.65 Q93.7234 1055.04 99.5335 1055.04 Z" fill="#000000" fill-rule="nonzero" fill-opacity="1" /><path clip-path="url(#clip390)" d="M119.695 1084.35 L124.58 1084.35 L124.58 1090.23 L119.695 1090.23 L119.695 1084.35 Z" fill="#000000" fill-rule="nonzero" fill-opacity="1" /><path clip-path="url(#clip390)" d="M144.765 1058.75 Q141.154 1058.75 139.325 1062.31 Q137.519 1065.85 137.519 1072.98 Q137.519 1080.09 139.325 1083.66 Q141.154 1087.2 144.765 1087.2 Q148.399 1087.2 150.205 1083.66 Q152.033 1080.09 152.033 1072.98 Q152.033 1065.85 150.205 1062.31 Q148.399 1058.75 144.765 1058.75 M144.765 1055.04 Q150.575 1055.04 153.63 1059.65 Q156.709 1064.23 156.709 1072.98 Q156.709 1081.71 153.63 1086.32 Q150.575 1090.9 144.765 1090.9 Q138.955 1090.9 135.876 1086.32 Q132.82 1081.71 132.82 1072.98 Q132.82 1064.23 135.876 1059.65 Q138.955 1055.04 144.765 1055.04 Z" fill="#000000" fill-rule="nonzero" fill-opacity="1" /><path clip-path="url(#clip390)" d="M100.76 843.365 Q97.1493 843.365 95.3206 846.93 Q93.515 850.471 93.515 857.601 Q93.515 864.707 95.3206 868.272 Q97.1493 871.814 100.76 871.814 Q104.395 871.814 106.2 868.272 Q108.029 864.707 108.029 857.601 Q108.029 850.471 106.2 846.93 Q104.395 843.365 100.76 843.365 M100.76 839.661 Q106.571 839.661 109.626 844.268 Q112.705 848.851 112.705 857.601 Q112.705 866.328 109.626 870.934 Q106.571 875.518 100.76 875.518 Q94.9502 875.518 91.8715 870.934 Q88.816 866.328 88.816 857.601 Q88.816 848.851 91.8715 844.268 Q94.9502 839.661 100.76 839.661 Z" fill="#000000" fill-rule="nonzero" fill-opacity="1" /><path clip-path="url(#clip390)" d="M120.922 868.967 L125.807 868.967 L125.807 874.846 L120.922 874.846 L120.922 868.967 Z" fill="#000000" fill-rule="nonzero" fill-opacity="1" /><path clip-path="url(#clip390)" d="M136.802 870.911 L144.441 870.911 L144.441 844.546 L136.131 846.212 L136.131 841.953 L144.394 840.286 L149.07 840.286 L149.07 870.911 L156.709 870.911 L156.709 874.846 L136.802 874.846 L136.802 870.911 Z" fill="#000000" fill-rule="nonzero" fill-opacity="1" /><path clip-path="url(#clip390)" d="M101.131 627.982 Q97.5197 627.982 95.691 631.546 Q93.8854 635.088 93.8854 642.218 Q93.8854 649.324 95.691 652.889 Q97.5197 656.431 101.131 656.431 Q104.765 656.431 106.571 652.889 Q108.399 649.324 108.399 642.218 Q108.399 635.088 106.571 631.546 Q104.765 627.982 101.131 627.982 M101.131 624.278 Q106.941 624.278 109.996 628.884 Q113.075 633.468 113.075 642.218 Q113.075 650.944 109.996 655.551 Q106.941 660.134 101.131 660.134 Q95.3206 660.134 92.2419 655.551 Q89.1864 650.944 89.1864 642.218 Q89.1864 633.468 92.2419 628.884 Q95.3206 624.278 101.131 624.278 Z" fill="#000000" fill-rule="nonzero" fill-opacity="1" /><path clip-path="url(#clip390)" d="M121.293 653.583 L126.177 653.583 L126.177 659.463 L121.293 659.463 L121.293 653.583 Z" fill="#000000" fill-rule="nonzero" fill-opacity="1" /><path clip-path="url(#clip390)" d="M140.39 655.528 L156.709 655.528 L156.709 659.463 L134.765 659.463 L134.765 655.528 Q137.427 652.773 142.01 648.144 Q146.617 643.491 147.797 642.148 Q150.043 639.625 150.922 637.889 Q151.825 636.13 151.825 634.44 Q151.825 631.685 149.88 629.949 Q147.959 628.213 144.857 628.213 Q142.658 628.213 140.205 628.977 Q137.774 629.741 134.996 631.292 L134.996 626.57 Q137.82 625.435 140.274 624.857 Q142.728 624.278 144.765 624.278 Q150.135 624.278 153.33 626.963 Q156.524 629.648 156.524 634.139 Q156.524 636.269 155.714 638.19 Q154.927 640.088 152.82 642.681 Q152.242 643.352 149.14 646.57 Q146.038 649.764 140.39 655.528 Z" fill="#000000" fill-rule="nonzero" fill-opacity="1" /><path clip-path="url(#clip390)" d="M100.182 412.598 Q96.5706 412.598 94.7419 416.163 Q92.9363 419.705 92.9363 426.834 Q92.9363 433.941 94.7419 437.506 Q96.5706 441.047 100.182 441.047 Q103.816 441.047 105.621 437.506 Q107.45 433.941 107.45 426.834 Q107.45 419.705 105.621 416.163 Q103.816 412.598 100.182 412.598 M100.182 408.895 Q105.992 408.895 109.047 413.501 Q112.126 418.084 112.126 426.834 Q112.126 435.561 109.047 440.168 Q105.992 444.751 100.182 444.751 Q94.3715 444.751 91.2928 440.168 Q88.2373 435.561 88.2373 426.834 Q88.2373 418.084 91.2928 413.501 Q94.3715 408.895 100.182 408.895 Z" fill="#000000" fill-rule="nonzero" fill-opacity="1" /><path clip-path="url(#clip390)" d="M120.344 438.2 L125.228 438.2 L125.228 444.08 L120.344 444.08 L120.344 438.2 Z" fill="#000000" fill-rule="nonzero" fill-opacity="1" /><path clip-path="url(#clip390)" d="M149.58 425.445 Q152.936 426.163 154.811 428.432 Q156.709 430.7 156.709 434.033 Q156.709 439.149 153.191 441.95 Q149.672 444.751 143.191 444.751 Q141.015 444.751 138.7 444.311 Q136.408 443.894 133.955 443.038 L133.955 438.524 Q135.899 439.658 138.214 440.237 Q140.529 440.816 143.052 440.816 Q147.45 440.816 149.742 439.08 Q152.056 437.344 152.056 434.033 Q152.056 430.978 149.904 429.265 Q147.774 427.529 143.955 427.529 L139.927 427.529 L139.927 423.686 L144.14 423.686 Q147.589 423.686 149.418 422.32 Q151.246 420.932 151.246 418.339 Q151.246 415.677 149.348 414.265 Q147.473 412.83 143.955 412.83 Q142.033 412.83 139.834 413.246 Q137.635 413.663 134.996 414.543 L134.996 410.376 Q137.658 409.635 139.973 409.265 Q142.311 408.895 144.371 408.895 Q149.695 408.895 152.797 411.325 Q155.899 413.733 155.899 417.853 Q155.899 420.723 154.255 422.714 Q152.612 424.682 149.58 425.445 Z" fill="#000000" fill-rule="nonzero" fill-opacity="1" /><path clip-path="url(#clip390)" d="M99.0474 197.215 Q95.4363 197.215 93.6076 200.78 Q91.8021 204.321 91.8021 211.451 Q91.8021 218.557 93.6076 222.122 Q95.4363 225.664 99.0474 225.664 Q102.682 225.664 104.487 222.122 Q106.316 218.557 106.316 211.451 Q106.316 204.321 104.487 200.78 Q102.682 197.215 99.0474 197.215 M99.0474 193.511 Q104.858 193.511 107.913 198.118 Q110.992 202.701 110.992 211.451 Q110.992 220.178 107.913 224.784 Q104.858 229.367 99.0474 229.367 Q93.2373 229.367 90.1586 224.784 Q87.103 220.178 87.103 211.451 Q87.103 202.701 90.1586 198.118 Q93.2373 193.511 99.0474 193.511 Z" fill="#000000" fill-rule="nonzero" fill-opacity="1" /><path clip-path="url(#clip390)" d="M119.209 222.817 L124.094 222.817 L124.094 228.696 L119.209 228.696 L119.209 222.817 Z" fill="#000000" fill-rule="nonzero" fill-opacity="1" /><path clip-path="url(#clip390)" d="M147.126 198.21 L135.32 216.659 L147.126 216.659 L147.126 198.21 M145.899 194.136 L151.779 194.136 L151.779 216.659 L156.709 216.659 L156.709 220.548 L151.779 220.548 L151.779 228.696 L147.126 228.696 L147.126 220.548 L131.524 220.548 L131.524 216.034 L145.899 194.136 Z" fill="#000000" fill-rule="nonzero" fill-opacity="1" /><polyline clip-path="url(#clip392)" style="stroke:#009af9; stroke-linecap:round; stroke-linejoin:round; stroke-width:4; stroke-opacity:1; fill:none" points="192.709,484.799 194.871,493.757 197.034,502.627 199.196,511.408 201.358,520.102 203.52,528.71 205.682,537.231 207.845,545.668 210.007,554.021 212.169,562.29 214.331,570.477 216.493,578.583 218.656,586.607 220.818,594.552 222.98,602.418 225.142,610.205 227.304,617.915 229.467,625.548 231.629,633.105 233.791,640.587 235.953,647.994 238.116,655.328 240.278,662.588 242.44,669.776 244.602,676.893 246.764,683.939 248.927,690.914 251.089,697.82 253.251,704.657 255.413,711.426 257.575,718.128 259.738,724.763 261.9,731.332 264.062,737.835 266.224,744.274 268.386,750.648 270.549,756.959 272.711,763.207 274.873,769.393 277.035,775.518 279.198,781.581 281.36,787.584 283.522,793.527 285.684,799.411 287.846,805.236 290.009,811.004 292.171,816.714 294.333,822.367 296.495,827.963 298.657,833.504 300.82,838.99 302.982,844.421 305.144,849.798 307.306,855.122 309.468,860.392 311.631,865.61 313.793,870.776 315.955,875.891 318.117,880.954 320.279,885.967 322.442,890.931 324.604,895.844 326.766,900.709 328.928,905.526 331.091,910.294 333.253,915.015 335.415,919.689 337.577,924.316 339.739,928.897 341.902,933.433 344.064,937.924 346.226,942.369 348.388,946.771 350.55,951.128 352.713,955.443 354.875,959.714 357.037,963.943 359.199,968.129 361.361,972.274 363.524,976.378 365.686,980.441 367.848,984.463 370.01,988.445 372.172,992.388 374.335,996.291 376.497,1000.16 378.659,1003.98 380.821,1007.77 382.984,1011.52 385.146,1015.23 387.308,1018.91 389.47,1022.55 391.632,1026.15 393.795,1029.72 395.957,1033.25 398.119,1036.74 400.281,1040.21 402.443,1043.63 404.606,1047.03 406.768,1050.38 408.93,1053.71 411.092,1057 413.254,1060.26 415.417,1063.49 417.579,1066.68 419.741,1069.85 421.903,1072.98 424.066,1076.08 426.228,1079.15 428.39,1082.19 430.552,1085.2 432.714,1088.18 434.877,1091.13 437.039,1094.05 439.201,1096.94 441.363,1099.8 443.525,1102.63 445.688,1105.44 447.85,1108.21 450.012,1110.96 452.174,1113.69 454.336,1116.38 456.499,1119.05 458.661,1121.69 460.823,1124.31 462.985,1126.9 465.147,1129.46 467.31,1132 469.472,1134.51 471.634,1137 473.796,1139.46 475.959,1141.9 478.121,1144.31 480.283,1146.7 482.445,1149.07 484.607,1151.41 486.77,1153.73 488.932,1156.03 491.094,1158.3 493.256,1160.55 495.418,1162.78 497.581,1164.99 499.743,1167.17 501.905,1169.33 504.067,1171.48 506.229,1173.59 508.392,1175.69 510.554,1177.77 512.716,1179.83 514.878,1181.86 517.04,1183.88 519.203,1185.88 521.365,1187.85 523.527,1189.81 525.689,1191.75 527.852,1193.66 530.014,1195.56 532.176,1197.44 534.338,1199.3 536.5,1201.14 538.663,1202.97 540.825,1204.77 542.987,1206.56 545.149,1208.33 547.311,1210.08 549.474,1211.82 551.636,1213.54 553.798,1215.24 555.96,1216.92 558.122,1218.59 560.285,1220.24 562.447,1221.87 564.609,1223.49 566.771,1225.09 568.934,1226.68 571.096,1228.25 573.258,1229.8 575.42,1231.34 577.582,1232.86 579.745,1234.37 581.907,1235.87 584.069,1237.34 586.231,1238.81 588.393,1240.26 590.556,1241.69 592.718,1243.11 594.88,1244.52 597.042,1245.91 599.204,1247.29 601.367,1248.65 603.529,1250 605.691,1251.34 607.853,1252.66 610.015,1253.97 612.178,1255.27 614.34,1256.56 616.502,1257.83 618.664,1259.09 620.827,1260.34 622.989,1261.57 625.151,1262.79 627.313,1264 629.475,1265.2 631.638,1266.39 633.8,1267.56 635.962,1268.72 638.124,1269.87 640.286,1271.01 642.449,1272.14 644.611,1273.26 646.773,1274.36 648.935,1275.46 651.097,1276.54 653.26,1277.62 655.422,1278.68 657.584,1279.73 659.746,1280.77 661.908,1281.8 664.071,1282.82 666.233,1283.83 668.395,1284.83 670.557,1285.82 672.72,1286.81 674.882,1287.78 677.044,1288.74 679.206,1289.69 681.368,1290.63 683.531,1291.56 685.693,1292.49 687.855,1293.4 690.017,1294.31 692.179,1295.2 694.342,1296.09 696.504,1296.97 698.666,1297.84 700.828,1298.7 702.99,1299.55 705.153,1300.4 707.315,1301.23 709.477,1302.06 711.639,1302.88 713.802,1303.69 715.964,1304.49 718.126,1305.29 720.288,1306.07 722.45,1306.85 724.613,1307.62 726.775,1308.39 728.937,1309.14 731.099,1309.89 733.261,1310.63 735.424,1311.36 737.586,1312.09 739.748,1312.81 741.91,1313.52 744.072,1314.23 746.235,1314.92 748.397,1315.61 750.559,1316.3 752.721,1316.98 754.883,1317.65 757.046,1318.31 759.208,1318.97 761.37,1319.62 763.532,1320.26 765.695,1320.9 767.857,1321.53 770.019,1322.16 772.181,1322.77 774.343,1323.39 776.506,1323.99 778.668,1324.59 780.83,1325.19 782.992,1325.78 785.154,1326.36 787.317,1326.94 789.479,1327.51 791.641,1328.07 793.803,1328.63 795.965,1329.19 798.128,1329.74 800.29,1330.28 802.452,1330.82 804.614,1331.35 806.776,1331.88 808.939,1332.4 811.101,1332.92 813.263,1333.43 815.425,1333.93 817.588,1334.44 819.75,1334.93 821.912,1335.42 824.074,1335.91 826.236,1336.39 828.399,1336.87 830.561,1337.34 832.723,1337.81 834.885,1338.27 837.047,1338.73 839.21,1339.18 841.372,1339.63 843.534,1340.08 845.696,1340.52 847.858,1340.95 850.021,1341.38 852.183,1341.81 854.345,1342.23 856.507,1342.65 858.67,1343.07 860.832,1343.48 862.994,1343.88 865.156,1344.29 867.318,1344.68 869.481,1345.08 871.643,1345.47 873.805,1345.86 875.967,1346.24 878.129,1346.62 880.292,1346.99 882.454,1347.36 884.616,1347.73 886.778,1348.1 888.94,1348.46 891.103,1348.81 893.265,1349.17 895.427,1349.52 897.589,1349.86 899.751,1350.21 901.914,1350.55 904.076,1350.88 906.238,1351.21 908.4,1351.54 910.563,1351.87 912.725,1352.19 914.887,1352.51 917.049,1352.83 919.211,1353.14 921.374,1353.45 923.536,1353.76 925.698,1354.06 927.86,1354.36 930.022,1354.66 932.185,1354.96 934.347,1355.25 936.509,1355.54 938.671,1355.83 940.833,1356.11 942.996,1356.39 945.158,1356.67 947.32,1356.94 949.482,1357.21 951.644,1357.48 953.807,1357.75 955.969,1358.02 958.131,1358.28 960.293,1358.54 962.456,1358.79 964.618,1359.05 966.78,1359.3 968.942,1359.55 971.104,1359.79 973.267,1360.04 975.429,1360.28 977.591,1360.52 979.753,1360.75 981.915,1360.99 984.078,1361.22 986.24,1361.45 988.402,1361.68 990.564,1361.9 992.726,1362.12 994.889,1362.34 997.051,1362.56 999.213,1362.78 1001.38,1362.99 1003.54,1363.2 1005.7,1363.41 1007.86,1363.62 1010.02,1363.83 1012.19,1364.03 1014.35,1364.23 1016.51,1364.43 1018.67,1364.63 1020.84,1364.83 1023,1365.02 1025.16,1365.21 1027.32,1365.4 1029.48,1365.59 1031.65,1365.78 1033.81,1365.96 1035.97,1366.14 1038.13,1366.32 1040.3,1366.5 1042.46,1366.68 1044.62,1366.86 1046.78,1367.03 1048.94,1367.2 1051.11,1367.37 1053.27,1367.54 1055.43,1367.71 1057.59,1367.87 1059.75,1368.04 1061.92,1368.2 1064.08,1368.36 1066.24,1368.52 1068.4,1368.67 1070.57,1368.83 1072.73,1368.98 1074.89,1369.14 1077.05,1369.29 1079.21,1369.44 1081.38,1369.58 1083.54,1369.73 1085.7,1369.88 1087.86,1370.02 1090.03,1370.16 1092.19,1370.3 1094.35,1370.44 1096.51,1370.58 1098.67,1370.72 1100.84,1370.85 1103,1370.98 1105.16,1371.12 1107.32,1371.25 1109.49,1371.38 1111.65,1371.51 1113.81,1371.63 1115.97,1371.76 1118.13,1371.88 1120.3,1372.01 1122.46,1372.13 1124.62,1372.25 1126.78,1372.37 1128.95,1372.49 1131.11,1372.61 1133.27,1372.72 1135.43,1372.84 1137.59,1372.95 1139.76,1373.06 1141.92,1373.18 1144.08,1373.29 1146.24,1373.4 1148.41,1373.5 1150.57,1373.61 1152.73,1373.72 1154.89,1373.82 1157.05,1373.93 1159.22,1374.03 1161.38,1374.13 1163.54,1374.23 1165.7,1374.33 1167.87,1374.43 1170.03,1374.53 1172.19,1374.63 1174.35,1374.72 1176.51,1374.82 1178.68,1374.91 1180.84,1375 1183,1375.1 1185.16,1375.19 1187.33,1375.28 1189.49,1375.37 1191.65,1375.46 1193.81,1375.54 1195.97,1375.63 1198.14,1375.72 1200.3,1375.8 1202.46,1375.89 1204.62,1375.97 1206.79,1376.05 1208.95,1376.14 1211.11,1376.22 1213.27,1376.3 1215.43,1376.38 1217.6,1376.46 1219.76,1376.53 1221.92,1376.61 1224.08,1376.69 1226.25,1376.76 1228.41,1376.84 1230.57,1376.91 1232.73,1376.99 1234.89,1377.06 1237.06,1377.13 1239.22,1377.2 1241.38,1377.27 1243.54,1377.34 1245.7,1377.41 1247.87,1377.48 1250.03,1377.55 1252.19,1377.62 1254.35,1377.68 1256.52,1377.75 1258.68,1377.81 1260.84,1377.88 1263,1377.94 1265.16,1378 1267.33,1378.07 1269.49,1378.13 1271.65,1378.19 1273.81,1378.25 1275.98,1378.31 1278.14,1378.37 1280.3,1378.43 1282.46,1378.49 1284.62,1378.55 1286.79,1378.6 1288.95,1378.66 1291.11,1378.72 1293.27,1378.77 1295.44,1378.83 1297.6,1378.88 1299.76,1378.93 1301.92,1378.99 1304.08,1379.04 1306.25,1379.09 1308.41,1379.14 1310.57,1379.2 1312.73,1379.25 1314.9,1379.3 1317.06,1379.35 1319.22,1379.39 1321.38,1379.44 1323.54,1379.49 1325.71,1379.54 1327.87,1379.59 1330.03,1379.63 1332.19,1379.68 1334.36,1379.72 1336.52,1379.77 1338.68,1379.81 1340.84,1379.86 1343,1379.9 1345.17,1379.95 1347.33,1379.99 1349.49,1380.03 1351.65,1380.07 1353.82,1380.12 1355.98,1380.16 1358.14,1380.2 1360.3,1380.24 1362.46,1380.28 1364.63,1380.32 1366.79,1380.36 1368.95,1380.4 1371.11,1380.44 1373.28,1380.47 1375.44,1380.51 1377.6,1380.55 1379.76,1380.59 1381.92,1380.62 1384.09,1380.66 1386.25,1380.7 1388.41,1380.73 1390.57,1380.77 1392.74,1380.8 1394.9,1380.84 1397.06,1380.87 1399.22,1380.9 1401.38,1380.94 1403.55,1380.97 1405.71,1381 1407.87,1381.04 1410.03,1381.07 1412.2,1381.1 1414.36,1381.13 1416.52,1381.16 1418.68,1381.19 1420.84,1381.23 1423.01,1381.26 1425.17,1381.29 1427.33,1381.32 1429.49,1381.35 1431.65,1381.38 1433.82,1381.4 1435.98,1381.43 1438.14,1381.46 1440.3,1381.49 1442.47,1381.52 1444.63,1381.55 1446.79,1381.57 1448.95,1381.6 1451.11,1381.63 1453.28,1381.65 1455.44,1381.68 1457.6,1381.71 1459.76,1381.73 1461.93,1381.76 1464.09,1381.78 1466.25,1381.81 1468.41,1381.83 1470.57,1381.86 1472.74,1381.88 1474.9,1381.9 1477.06,1381.93 1479.22,1381.95 1481.39,1381.97 1483.55,1382 1485.71,1382.02 1487.87,1382.04 1490.03,1382.07 1492.2,1382.09 1494.36,1382.11 1496.52,1382.13 1498.68,1382.15 1500.85,1382.17 1503.01,1382.19 1505.17,1382.22 1507.33,1382.24 1509.49,1382.26 1511.66,1382.28 1513.82,1382.3 1515.98,1382.32 1518.14,1382.34 1520.31,1382.36 1522.47,1382.37 1524.63,1382.39 1526.79,1382.41 1528.95,1382.43 1531.12,1382.45 1533.28,1382.47 1535.44,1382.49 1537.6,1382.5 1539.77,1382.52 1541.93,1382.54 1544.09,1382.56 1546.25,1382.57 1548.41,1382.59 1550.58,1382.61 1552.74,1382.62 1554.9,1382.64 1557.06,1382.66 1559.23,1382.67 1561.39,1382.69 1563.55,1382.7 1565.71,1382.72 1567.87,1382.73 1570.04,1382.75 1572.2,1382.77 1574.36,1382.78 1576.52,1382.79 1578.69,1382.81 1580.85,1382.82 1583.01,1382.84 1585.17,1382.85 1587.33,1382.87 1589.5,1382.88 1591.66,1382.89 1593.82,1382.91 1595.98,1382.92 1598.14,1382.94 1600.31,1382.95 1602.47,1382.96 1604.63,1382.97 1606.79,1382.99 1608.96,1383 1611.12,1383.01 1613.28,1383.03 1615.44,1383.04 1617.6,1383.05 1619.77,1383.06 1621.93,1383.07 1624.09,1383.09 1626.25,1383.1 1628.42,1383.11 1630.58,1383.12 1632.74,1383.13 1634.9,1383.14 1637.06,1383.16 1639.23,1383.17 1641.39,1383.18 1643.55,1383.19 1645.71,1383.2 1647.88,1383.21 1650.04,1383.22 1652.2,1383.23 1654.36,1383.24 1656.52,1383.25 1658.69,1383.26 1660.85,1383.27 1663.01,1383.28 1665.17,1383.29 1667.34,1383.3 1669.5,1383.31 1671.66,1383.32 1673.82,1383.33 1675.98,1383.34 1678.15,1383.35 1680.31,1383.36 1682.47,1383.37 1684.63,1383.38 1686.8,1383.39 1688.96,1383.4 1691.12,1383.41 1693.28,1383.41 1695.44,1383.42 1697.61,1383.43 1699.77,1383.44 1701.93,1383.45 1704.09,1383.46 1706.26,1383.47 1708.42,1383.47 1710.58,1383.48 1712.74,1383.49 1714.9,1383.5 1717.07,1383.51 1719.23,1383.51 1721.39,1383.52 1723.55,1383.53 1725.72,1383.54 1727.88,1383.54 1730.04,1383.55 1732.2,1383.56 1734.36,1383.57 1736.53,1383.57 1738.69,1383.58 1740.85,1383.59 1743.01,1383.59 1745.18,1383.6 1747.34,1383.61 1749.5,1383.61 1751.66,1383.62 1753.82,1383.63 1755.99,1383.63 1758.15,1383.64 1760.31,1383.65 1762.47,1383.65 1764.64,1383.66 1766.8,1383.67 1768.96,1383.67 1771.12,1383.68 1773.28,1383.68 1775.45,1383.69 1777.61,1383.7 1779.77,1383.7 1781.93,1383.71 1784.09,1383.71 1786.26,1383.72 1788.42,1383.72 1790.58,1383.73 1792.74,1383.74 1794.91,1383.74 1797.07,1383.75 1799.23,1383.75 1801.39,1383.76 1803.55,1383.76 1805.72,1383.77 1807.88,1383.77 1810.04,1383.78 1812.2,1383.78 1814.37,1383.79 1816.53,1383.79 1818.69,1383.8 1820.85,1383.8 1823.01,1383.81 1825.18,1383.81 1827.34,1383.82 1829.5,1383.82 1831.66,1383.82 1833.83,1383.83 1835.99,1383.83 1838.15,1383.84 1840.31,1383.84 1842.47,1383.85 1844.64,1383.85 1846.8,1383.85 1848.96,1383.86 1851.12,1383.86 1853.29,1383.87 1855.45,1383.87 1857.61,1383.88 1859.77,1383.88 1861.93,1383.88 1864.1,1383.89 1866.26,1383.89 1868.42,1383.89 1870.58,1383.9 1872.75,1383.9 1874.91,1383.91 1877.07,1383.91 1879.23,1383.91 1881.39,1383.92 1883.56,1383.92 1885.72,1383.92 1887.88,1383.93 1890.04,1383.93 1892.21,1383.93 1894.37,1383.94 1896.53,1383.94 1898.69,1383.94 1900.85,1383.95 1903.02,1383.95 1905.18,1383.95 1907.34,1383.96 1909.5,1383.96 1911.67,1383.96 1913.83,1383.97 1915.99,1383.97 1918.15,1383.97 1920.31,1383.98 1922.48,1383.98 1924.64,1383.98 1926.8,1383.98 1928.96,1383.99 1931.13,1383.99 1933.29,1383.99 1935.45,1384 1937.61,1384 1939.77,1384 1941.94,1384.01 1944.1,1384.01 1946.26,1384.01 1948.42,1384.01 1950.59,1384.02 1952.75,1384.02 1954.91,1384.02 1957.07,1384.02 1959.23,1384.03 1961.4,1384.03 1963.56,1384.03 1965.72,1384.03 1967.88,1384.04 1970.04,1384.04 1972.21,1384.04 1974.37,1384.04 1976.53,1384.05 1978.69,1384.05 1980.86,1384.05 1983.02,1384.05 1985.18,1384.06 1987.34,1384.06 1989.5,1384.06 1991.67,1384.06 1993.83,1384.06 1995.99,1384.07 1998.15,1384.07 2000.32,1384.07 2002.48,1384.07 2004.64,1384.08 2006.8,1384.08 2008.96,1384.08 2011.13,1384.08 2013.29,1384.08 2015.45,1384.09 2017.61,1384.09 2019.78,1384.09 2021.94,1384.09 2024.1,1384.09 2026.26,1384.1 2028.42,1384.1 2030.59,1384.1 2032.75,1384.1 2034.91,1384.1 2037.07,1384.1 2039.24,1384.11 2041.4,1384.11 2043.56,1384.11 2045.72,1384.11 2047.88,1384.11 2050.05,1384.12 2052.21,1384.12 2054.37,1384.12 2056.53,1384.12 2058.7,1384.12 2060.86,1384.12 2063.02,1384.12 2065.18,1384.13 2067.34,1384.13 2069.51,1384.13 2071.67,1384.13 2073.83,1384.13 2075.99,1384.13 2078.16,1384.14 2080.32,1384.14 2082.48,1384.14 2084.64,1384.14 2086.8,1384.14 2088.97,1384.14 2091.13,1384.14 2093.29,1384.15 2095.45,1384.15 2097.62,1384.15 2099.78,1384.15 2101.94,1384.15 2104.1,1384.15 2106.26,1384.15 2108.43,1384.15 2110.59,1384.16 2112.75,1384.16 2114.91,1384.16 2117.08,1384.16 2119.24,1384.16 2121.4,1384.16 2123.56,1384.16 2125.72,1384.16 2127.89,1384.16 2130.05,1384.17 2132.21,1384.17 2134.37,1384.17 2136.54,1384.17 2138.7,1384.17 2140.86,1384.17 2143.02,1384.17 2145.18,1384.17 2147.35,1384.17 2149.51,1384.18 2151.67,1384.18 2153.83,1384.18 2155.99,1384.18 2158.16,1384.18 2160.32,1384.18 2162.48,1384.18 2164.64,1384.18 2166.81,1384.18 2168.97,1384.18 2171.13,1384.18 2173.29,1384.19 2175.45,1384.19 2177.62,1384.19 2179.78,1384.19 2181.94,1384.19 2184.1,1384.19 2186.27,1384.19 2188.43,1384.19 2190.59,1384.19 2192.75,1384.19 2194.91,1384.19 2197.08,1384.19 2199.24,1384.2 2201.4,1384.2 2203.56,1384.2 2205.73,1384.2 2207.89,1384.2 2210.05,1384.2 2212.21,1384.2 2214.37,1384.2 2216.54,1384.2 2218.7,1384.2 2220.86,1384.2 2223.02,1384.2 2225.19,1384.2 2227.35,1384.21 2229.51,1384.21 2231.67,1384.21 2233.83,1384.21 2236,1384.21 2238.16,1384.21 2240.32,1384.21 2242.48,1384.21 2244.65,1384.21 2246.81,1384.21 2248.97,1384.21 2251.13,1384.21 2253.29,1384.21 2255.46,1384.21 2257.62,1384.22 2259.78,1384.22 2261.94,1384.22 2264.11,1384.22 2266.27,1384.22 2268.43,1384.22 2270.59,1384.22 2272.75,1384.22 2274.92,1384.22 2277.08,1384.22 2279.24,1384.22 2281.4,1384.22 2283.57,1384.22 2285.73,1384.22 2287.89,1384.22 2290.05,1384.22 2292.21,1384.22 2294.38,1384.23 2296.54,1384.23 2298.7,1384.23 2300.86,1384.23 2303.03,1384.23 2305.19,1384.23 2307.35,1384.23 2309.51,1384.23 2311.67,1384.23 2313.84,1384.23 2316,1384.23 2318.16,1384.23 2320.32,1384.23 2322.48,1384.23 2324.65,1384.23 2326.81,1384.23 2328.97,1384.23 2331.13,1384.23 2333.3,1384.23 2335.46,1384.23 2337.62,1384.24 2339.78,1384.24 2341.94,1384.24 2344.11,1384.24 2346.27,1384.24 2348.43,1384.24 2350.59,1384.24 2352.76,1384.24 "/>
<polyline clip-path="url(#clip392)" style="stroke:#e26f46; stroke-linecap:round; stroke-linejoin:round; stroke-width:4; stroke-opacity:1; fill:none" points="192.709,86.1857 194.871,97.2918 197.034,108.298 199.196,119.206 201.358,130.016 203.52,140.728 205.682,151.345 207.845,161.867 210.007,172.294 212.169,182.628 214.331,192.87 216.493,203.019 218.656,213.078 220.818,223.047 222.98,232.927 225.142,242.719 227.304,252.423 229.467,262.04 231.629,271.572 233.791,281.018 235.953,290.38 238.116,299.659 240.278,308.855 242.44,317.969 244.602,327.002 246.764,335.954 248.927,344.826 251.089,353.62 253.251,362.335 255.413,370.973 257.575,379.534 259.738,388.019 261.9,396.428 264.062,404.763 266.224,413.024 268.386,421.212 270.549,429.326 272.711,437.369 274.873,445.341 277.035,453.242 279.198,461.072 281.36,468.834 283.522,476.527 285.684,484.152 287.846,491.709 290.009,499.199 292.171,506.623 294.333,513.982 296.495,521.276 298.657,528.505 300.82,535.67 302.982,542.772 305.144,549.812 307.306,556.789 309.468,563.705 311.631,570.56 313.793,577.354 315.955,584.089 318.117,590.764 320.279,597.381 322.442,603.94 324.604,610.44 326.766,616.884 328.928,623.271 331.091,629.602 333.253,635.877 335.415,642.098 337.577,648.264 339.739,654.375 341.902,660.433 344.064,666.438 346.226,672.391 348.388,678.291 350.55,684.14 352.713,689.937 354.875,695.684 357.037,701.381 359.199,707.028 361.361,712.625 363.524,718.174 365.686,723.674 367.848,729.126 370.01,734.531 372.172,739.888 374.335,745.199 376.497,750.464 378.659,755.682 380.821,760.856 382.984,765.984 385.146,771.068 387.308,776.107 389.47,781.103 391.632,786.055 393.795,790.964 395.957,795.831 398.119,800.655 400.281,805.438 402.443,810.179 404.606,814.879 406.768,819.538 408.93,824.157 411.092,828.736 413.254,833.275 415.417,837.775 417.579,842.237 419.741,846.659 421.903,851.044 424.066,855.39 426.228,859.699 428.39,863.971 430.552,868.206 432.714,872.405 434.877,876.567 437.039,880.694 439.201,884.785 441.363,888.84 443.525,892.861 445.688,896.848 447.85,900.8 450.012,904.718 452.174,908.602 454.336,912.453 456.499,916.271 458.661,920.056 460.823,923.809 462.985,927.53 465.147,931.218 467.31,934.876 469.472,938.502 471.634,942.096 473.796,945.661 475.959,949.194 478.121,952.698 480.283,956.171 482.445,959.615 484.607,963.03 486.77,966.415 488.932,969.771 491.094,973.099 493.256,976.399 495.418,979.67 497.581,982.914 499.743,986.13 501.905,989.319 504.067,992.48 506.229,995.615 508.392,998.723 510.554,1001.8 512.716,1004.86 514.878,1007.89 517.04,1010.89 519.203,1013.87 521.365,1016.83 523.527,1019.75 525.689,1022.66 527.852,1025.54 530.014,1028.39 532.176,1031.22 534.338,1034.03 536.5,1036.81 538.663,1039.57 540.825,1042.3 542.987,1045.02 545.149,1047.71 547.311,1050.38 549.474,1053.02 551.636,1055.64 553.798,1058.24 555.96,1060.82 558.122,1063.38 560.285,1065.91 562.447,1068.43 564.609,1070.92 566.771,1073.39 568.934,1075.85 571.096,1078.28 573.258,1080.69 575.42,1083.08 577.582,1085.45 579.745,1087.8 581.907,1090.13 584.069,1092.44 586.231,1094.73 588.393,1097.01 590.556,1099.26 592.718,1101.5 594.88,1103.71 597.042,1105.91 599.204,1108.09 601.367,1110.25 603.529,1112.39 605.691,1114.52 607.853,1116.63 610.015,1118.72 612.178,1120.79 614.34,1122.85 616.502,1124.89 618.664,1126.91 620.827,1128.91 622.989,1130.9 625.151,1132.87 627.313,1134.83 629.475,1136.77 631.638,1138.69 633.8,1140.6 635.962,1142.49 638.124,1144.37 640.286,1146.23 642.449,1148.07 644.611,1149.9 646.773,1151.72 648.935,1153.52 651.097,1155.3 653.26,1157.07 655.422,1158.83 657.584,1160.57 659.746,1162.3 661.908,1164.01 664.071,1165.71 666.233,1167.39 668.395,1169.06 670.557,1170.72 672.72,1172.36 674.882,1173.99 677.044,1175.61 679.206,1177.22 681.368,1178.81 683.531,1180.38 685.693,1181.95 687.855,1183.5 690.017,1185.04 692.179,1186.56 694.342,1188.08 696.504,1189.58 698.666,1191.07 700.828,1192.55 702.99,1194.01 705.153,1195.47 707.315,1196.91 709.477,1198.34 711.639,1199.75 713.802,1201.16 715.964,1202.56 718.126,1203.94 720.288,1205.31 722.45,1206.67 724.613,1208.02 726.775,1209.36 728.937,1210.69 731.099,1212.01 733.261,1213.32 735.424,1214.61 737.586,1215.9 739.748,1217.18 741.91,1218.44 744.072,1219.7 746.235,1220.94 748.397,1222.18 750.559,1223.4 752.721,1224.62 754.883,1225.82 757.046,1227.02 759.208,1228.2 761.37,1229.38 763.532,1230.55 765.695,1231.71 767.857,1232.86 770.019,1233.99 772.181,1235.12 774.343,1236.25 776.506,1237.36 778.668,1238.46 780.83,1239.56 782.992,1240.64 785.154,1241.72 787.317,1242.79 789.479,1243.85 791.641,1244.9 793.803,1245.94 795.965,1246.98 798.128,1248 800.29,1249.02 802.452,1250.03 804.614,1251.03 806.776,1252.03 808.939,1253.01 811.101,1253.99 813.263,1254.96 815.425,1255.92 817.588,1256.88 819.75,1257.83 821.912,1258.77 824.074,1259.7 826.236,1260.62 828.399,1261.54 830.561,1262.45 832.723,1263.36 834.885,1264.25 837.047,1265.14 839.21,1266.02 841.372,1266.9 843.534,1267.77 845.696,1268.63 847.858,1269.48 850.021,1270.33 852.183,1271.17 854.345,1272.01 856.507,1272.83 858.67,1273.66 860.832,1274.47 862.994,1275.28 865.156,1276.08 867.318,1276.88 869.481,1277.67 871.643,1278.45 873.805,1279.23 875.967,1280 878.129,1280.77 880.292,1281.53 882.454,1282.28 884.616,1283.03 886.778,1283.77 888.94,1284.5 891.103,1285.23 893.265,1285.96 895.427,1286.68 897.589,1287.39 899.751,1288.1 901.914,1288.8 904.076,1289.5 906.238,1290.19 908.4,1290.88 910.563,1291.56 912.725,1292.23 914.887,1292.9 917.049,1293.57 919.211,1294.23 921.374,1294.88 923.536,1295.53 925.698,1296.18 927.86,1296.82 930.022,1297.45 932.185,1298.08 934.347,1298.71 936.509,1299.33 938.671,1299.94 940.833,1300.55 942.996,1301.16 945.158,1301.76 947.32,1302.35 949.482,1302.95 951.644,1303.53 953.807,1304.12 955.969,1304.69 958.131,1305.27 960.293,1305.84 962.456,1306.4 964.618,1306.96 966.78,1307.52 968.942,1308.07 971.104,1308.62 973.267,1309.16 975.429,1309.7 977.591,1310.24 979.753,1310.77 981.915,1311.3 984.078,1311.82 986.24,1312.34 988.402,1312.85 990.564,1313.37 992.726,1313.87 994.889,1314.38 997.051,1314.88 999.213,1315.37 1001.38,1315.87 1003.54,1316.35 1005.7,1316.84 1007.86,1317.32 1010.02,1317.8 1012.19,1318.27 1014.35,1318.74 1016.51,1319.21 1018.67,1319.67 1020.84,1320.13 1023,1320.59 1025.16,1321.04 1027.32,1321.49 1029.48,1321.93 1031.65,1322.38 1033.81,1322.82 1035.97,1323.25 1038.13,1323.69 1040.3,1324.11 1042.46,1324.54 1044.62,1324.96 1046.78,1325.38 1048.94,1325.8 1051.11,1326.21 1053.27,1326.62 1055.43,1327.03 1057.59,1327.44 1059.75,1327.84 1061.92,1328.24 1064.08,1328.63 1066.24,1329.02 1068.4,1329.41 1070.57,1329.8 1072.73,1330.18 1074.89,1330.56 1077.05,1330.94 1079.21,1331.32 1081.38,1331.69 1083.54,1332.06 1085.7,1332.43 1087.86,1332.79 1090.03,1333.15 1092.19,1333.51 1094.35,1333.87 1096.51,1334.22 1098.67,1334.57 1100.84,1334.92 1103,1335.26 1105.16,1335.61 1107.32,1335.95 1109.49,1336.28 1111.65,1336.62 1113.81,1336.95 1115.97,1337.28 1118.13,1337.61 1120.3,1337.93 1122.46,1338.26 1124.62,1338.58 1126.78,1338.9 1128.95,1339.21 1131.11,1339.53 1133.27,1339.84 1135.43,1340.15 1137.59,1340.45 1139.76,1340.76 1141.92,1341.06 1144.08,1341.36 1146.24,1341.66 1148.41,1341.95 1150.57,1342.24 1152.73,1342.54 1154.89,1342.82 1157.05,1343.11 1159.22,1343.4 1161.38,1343.68 1163.54,1343.96 1165.7,1344.24 1167.87,1344.51 1170.03,1344.79 1172.19,1345.06 1174.35,1345.33 1176.51,1345.6 1178.68,1345.87 1180.84,1346.13 1183,1346.39 1185.16,1346.66 1187.33,1346.91 1189.49,1347.17 1191.65,1347.43 1193.81,1347.68 1195.97,1347.93 1198.14,1348.18 1200.3,1348.43 1202.46,1348.67 1204.62,1348.92 1206.79,1349.16 1208.95,1349.4 1211.11,1349.64 1213.27,1349.88 1215.43,1350.11 1217.6,1350.35 1219.76,1350.58 1221.92,1350.81 1224.08,1351.04 1226.25,1351.27 1228.41,1351.49 1230.57,1351.72 1232.73,1351.94 1234.89,1352.16 1237.06,1352.38 1239.22,1352.6 1241.38,1352.81 1243.54,1353.03 1245.7,1353.24 1247.87,1353.45 1250.03,1353.66 1252.19,1353.87 1254.35,1354.08 1256.52,1354.28 1258.68,1354.49 1260.84,1354.69 1263,1354.89 1265.16,1355.09 1267.33,1355.29 1269.49,1355.49 1271.65,1355.68 1273.81,1355.87 1275.98,1356.07 1278.14,1356.26 1280.3,1356.45 1282.46,1356.64 1284.62,1356.82 1286.79,1357.01 1288.95,1357.19 1291.11,1357.38 1293.27,1357.56 1295.44,1357.74 1297.6,1357.92 1299.76,1358.1 1301.92,1358.27 1304.08,1358.45 1306.25,1358.62 1308.41,1358.79 1310.57,1358.97 1312.73,1359.14 1314.9,1359.31 1317.06,1359.47 1319.22,1359.64 1321.38,1359.81 1323.54,1359.97 1325.71,1360.13 1327.87,1360.3 1330.03,1360.46 1332.19,1360.62 1334.36,1360.77 1336.52,1360.93 1338.68,1361.09 1340.84,1361.24 1343,1361.4 1345.17,1361.55 1347.33,1361.7 1349.49,1361.85 1351.65,1362 1353.82,1362.15 1355.98,1362.3 1358.14,1362.45 1360.3,1362.59 1362.46,1362.74 1364.63,1362.88 1366.79,1363.02 1368.95,1363.17 1371.11,1363.31 1373.28,1363.45 1375.44,1363.59 1377.6,1363.72 1379.76,1363.86 1381.92,1364 1384.09,1364.13 1386.25,1364.26 1388.41,1364.4 1390.57,1364.53 1392.74,1364.66 1394.9,1364.79 1397.06,1364.92 1399.22,1365.05 1401.38,1365.18 1403.55,1365.3 1405.71,1365.43 1407.87,1365.55 1410.03,1365.68 1412.2,1365.8 1414.36,1365.92 1416.52,1366.05 1418.68,1366.17 1420.84,1366.29 1423.01,1366.41 1425.17,1366.52 1427.33,1366.64 1429.49,1366.76 1431.65,1366.87 1433.82,1366.99 1435.98,1367.1 1438.14,1367.22 1440.3,1367.33 1442.47,1367.44 1444.63,1367.55 1446.79,1367.66 1448.95,1367.77 1451.11,1367.88 1453.28,1367.99 1455.44,1368.1 1457.6,1368.2 1459.76,1368.31 1461.93,1368.42 1464.09,1368.52 1466.25,1368.62 1468.41,1368.73 1470.57,1368.83 1472.74,1368.93 1474.9,1369.03 1477.06,1369.13 1479.22,1369.23 1481.39,1369.33 1483.55,1369.43 1485.71,1369.53 1487.87,1369.62 1490.03,1369.72 1492.2,1369.81 1494.36,1369.91 1496.52,1370 1498.68,1370.1 1500.85,1370.19 1503.01,1370.28 1505.17,1370.37 1507.33,1370.46 1509.49,1370.56 1511.66,1370.64 1513.82,1370.73 1515.98,1370.82 1518.14,1370.91 1520.31,1371 1522.47,1371.08 1524.63,1371.17 1526.79,1371.26 1528.95,1371.34 1531.12,1371.42 1533.28,1371.51 1535.44,1371.59 1537.6,1371.67 1539.77,1371.76 1541.93,1371.84 1544.09,1371.92 1546.25,1372 1548.41,1372.08 1550.58,1372.16 1552.74,1372.24 1554.9,1372.31 1557.06,1372.39 1559.23,1372.47 1561.39,1372.55 1563.55,1372.62 1565.71,1372.7 1567.87,1372.77 1570.04,1372.85 1572.2,1372.92 1574.36,1372.99 1576.52,1373.07 1578.69,1373.14 1580.85,1373.21 1583.01,1373.28 1585.17,1373.35 1587.33,1373.43 1589.5,1373.5 1591.66,1373.57 1593.82,1373.63 1595.98,1373.7 1598.14,1373.77 1600.31,1373.84 1602.47,1373.91 1604.63,1373.97 1606.79,1374.04 1608.96,1374.11 1611.12,1374.17 1613.28,1374.24 1615.44,1374.3 1617.6,1374.37 1619.77,1374.43 1621.93,1374.49 1624.09,1374.56 1626.25,1374.62 1628.42,1374.68 1630.58,1374.74 1632.74,1374.8 1634.9,1374.86 1637.06,1374.93 1639.23,1374.99 1641.39,1375.05 1643.55,1375.1 1645.71,1375.16 1647.88,1375.22 1650.04,1375.28 1652.2,1375.34 1654.36,1375.4 1656.52,1375.45 1658.69,1375.51 1660.85,1375.57 1663.01,1375.62 1665.17,1375.68 1667.34,1375.73 1669.5,1375.79 1671.66,1375.84 1673.82,1375.9 1675.98,1375.95 1678.15,1376 1680.31,1376.06 1682.47,1376.11 1684.63,1376.16 1686.8,1376.21 1688.96,1376.27 1691.12,1376.32 1693.28,1376.37 1695.44,1376.42 1697.61,1376.47 1699.77,1376.52 1701.93,1376.57 1704.09,1376.62 1706.26,1376.67 1708.42,1376.72 1710.58,1376.76 1712.74,1376.81 1714.9,1376.86 1717.07,1376.91 1719.23,1376.95 1721.39,1377 1723.55,1377.05 1725.72,1377.09 1727.88,1377.14 1730.04,1377.19 1732.2,1377.23 1734.36,1377.28 1736.53,1377.32 1738.69,1377.36 1740.85,1377.41 1743.01,1377.45 1745.18,1377.5 1747.34,1377.54 1749.5,1377.58 1751.66,1377.62 1753.82,1377.67 1755.99,1377.71 1758.15,1377.75 1760.31,1377.79 1762.47,1377.83 1764.64,1377.87 1766.8,1377.92 1768.96,1377.96 1771.12,1378 1773.28,1378.04 1775.45,1378.08 1777.61,1378.11 1779.77,1378.15 1781.93,1378.19 1784.09,1378.23 1786.26,1378.27 1788.42,1378.31 1790.58,1378.35 1792.74,1378.38 1794.91,1378.42 1797.07,1378.46 1799.23,1378.49 1801.39,1378.53 1803.55,1378.57 1805.72,1378.6 1807.88,1378.64 1810.04,1378.67 1812.2,1378.71 1814.37,1378.74 1816.53,1378.78 1818.69,1378.81 1820.85,1378.85 1823.01,1378.88 1825.18,1378.92 1827.34,1378.95 1829.5,1378.98 1831.66,1379.02 1833.83,1379.05 1835.99,1379.08 1838.15,1379.12 1840.31,1379.15 1842.47,1379.18 1844.64,1379.21 1846.8,1379.24 1848.96,1379.28 1851.12,1379.31 1853.29,1379.34 1855.45,1379.37 1857.61,1379.4 1859.77,1379.43 1861.93,1379.46 1864.1,1379.49 1866.26,1379.52 1868.42,1379.55 1870.58,1379.58 1872.75,1379.61 1874.91,1379.64 1877.07,1379.67 1879.23,1379.7 1881.39,1379.73 1883.56,1379.76 1885.72,1379.78 1887.88,1379.81 1890.04,1379.84 1892.21,1379.87 1894.37,1379.9 1896.53,1379.92 1898.69,1379.95 1900.85,1379.98 1903.02,1380 1905.18,1380.03 1907.34,1380.06 1909.5,1380.08 1911.67,1380.11 1913.83,1380.14 1915.99,1380.16 1918.15,1380.19 1920.31,1380.21 1922.48,1380.24 1924.64,1380.26 1926.8,1380.29 1928.96,1380.32 1931.13,1380.34 1933.29,1380.36 1935.45,1380.39 1937.61,1380.41 1939.77,1380.44 1941.94,1380.46 1944.1,1380.49 1946.26,1380.51 1948.42,1380.53 1950.59,1380.56 1952.75,1380.58 1954.91,1380.6 1957.07,1380.63 1959.23,1380.65 1961.4,1380.67 1963.56,1380.69 1965.72,1380.72 1967.88,1380.74 1970.04,1380.76 1972.21,1380.78 1974.37,1380.81 1976.53,1380.83 1978.69,1380.85 1980.86,1380.87 1983.02,1380.89 1985.18,1380.91 1987.34,1380.93 1989.5,1380.96 1991.67,1380.98 1993.83,1381 1995.99,1381.02 1998.15,1381.04 2000.32,1381.06 2002.48,1381.08 2004.64,1381.1 2006.8,1381.12 2008.96,1381.14 2011.13,1381.16 2013.29,1381.18 2015.45,1381.2 2017.61,1381.22 2019.78,1381.23 2021.94,1381.25 2024.1,1381.27 2026.26,1381.29 2028.42,1381.31 2030.59,1381.33 2032.75,1381.35 2034.91,1381.36 2037.07,1381.38 2039.24,1381.4 2041.4,1381.42 2043.56,1381.44 2045.72,1381.45 2047.88,1381.47 2050.05,1381.49 2052.21,1381.51 2054.37,1381.52 2056.53,1381.54 2058.7,1381.56 2060.86,1381.58 2063.02,1381.59 2065.18,1381.61 2067.34,1381.63 2069.51,1381.64 2071.67,1381.66 2073.83,1381.67 2075.99,1381.69 2078.16,1381.71 2080.32,1381.72 2082.48,1381.74 2084.64,1381.75 2086.8,1381.77 2088.97,1381.79 2091.13,1381.8 2093.29,1381.82 2095.45,1381.83 2097.62,1381.85 2099.78,1381.86 2101.94,1381.88 2104.1,1381.89 2106.26,1381.91 2108.43,1381.92 2110.59,1381.94 2112.75,1381.95 2114.91,1381.96 2117.08,1381.98 2119.24,1381.99 2121.4,1382.01 2123.56,1382.02 2125.72,1382.03 2127.89,1382.05 2130.05,1382.06 2132.21,1382.08 2134.37,1382.09 2136.54,1382.1 2138.7,1382.12 2140.86,1382.13 2143.02,1382.14 2145.18,1382.16 2147.35,1382.17 2149.51,1382.18 2151.67,1382.19 2153.83,1382.21 2155.99,1382.22 2158.16,1382.23 2160.32,1382.25 2162.48,1382.26 2164.64,1382.27 2166.81,1382.28 2168.97,1382.29 2171.13,1382.31 2173.29,1382.32 2175.45,1382.33 2177.62,1382.34 2179.78,1382.35 2181.94,1382.37 2184.1,1382.38 2186.27,1382.39 2188.43,1382.4 2190.59,1382.41 2192.75,1382.42 2194.91,1382.44 2197.08,1382.45 2199.24,1382.46 2201.4,1382.47 2203.56,1382.48 2205.73,1382.49 2207.89,1382.5 2210.05,1382.51 2212.21,1382.52 2214.37,1382.53 2216.54,1382.55 2218.7,1382.56 2220.86,1382.57 2223.02,1382.58 2225.19,1382.59 2227.35,1382.6 2229.51,1382.61 2231.67,1382.62 2233.83,1382.63 2236,1382.64 2238.16,1382.65 2240.32,1382.66 2242.48,1382.67 2244.65,1382.68 2246.81,1382.69 2248.97,1382.7 2251.13,1382.71 2253.29,1382.72 2255.46,1382.73 2257.62,1382.74 2259.78,1382.75 2261.94,1382.76 2264.11,1382.77 2266.27,1382.77 2268.43,1382.78 2270.59,1382.79 2272.75,1382.8 2274.92,1382.81 2277.08,1382.82 2279.24,1382.83 2281.4,1382.84 2283.57,1382.85 2285.73,1382.86 2287.89,1382.86 2290.05,1382.87 2292.21,1382.88 2294.38,1382.89 2296.54,1382.9 2298.7,1382.91 2300.86,1382.92 2303.03,1382.92 2305.19,1382.93 2307.35,1382.94 2309.51,1382.95 2311.67,1382.96 2313.84,1382.97 2316,1382.97 2318.16,1382.98 2320.32,1382.99 2322.48,1383 2324.65,1383.01 2326.81,1383.01 2328.97,1383.02 2331.13,1383.03 2333.3,1383.04 2335.46,1383.04 2337.62,1383.05 2339.78,1383.06 2341.94,1383.07 2344.11,1383.07 2346.27,1383.08 2348.43,1383.09 2350.59,1383.1 2352.76,1383.1 "/>
<path clip-path="url(#clip390)" d="M1805.35 248.629 L2280.75 248.629 L2280.75 93.1086 L1805.35 93.1086  Z" fill="#ffffff" fill-rule="evenodd" fill-opacity="1"/>
<polyline clip-path="url(#clip390)" style="stroke:#000000; stroke-linecap:round; stroke-linejoin:round; stroke-width:4; stroke-opacity:1; fill:none" points="1805.35,248.629 2280.75,248.629 2280.75,93.1086 1805.35,93.1086 1805.35,248.629 "/>
<polyline clip-path="url(#clip390)" style="stroke:#009af9; stroke-linecap:round; stroke-linejoin:round; stroke-width:4; stroke-opacity:1; fill:none" points="1829.35,144.949 1973.36,144.949 "/>
<path clip-path="url(#clip390)" d="M1997.36 136.303 L2001.87 136.303 L2009.97 158.062 L2018.07 136.303 L2022.59 136.303 L2012.87 162.229 L2007.08 162.229 L1997.36 136.303 Z" fill="#000000" fill-rule="nonzero" fill-opacity="1" /><path clip-path="url(#clip390)" d="M2029.88 158.293 L2037.52 158.293 L2037.52 131.928 L2029.21 133.595 L2029.21 129.335 L2037.47 127.669 L2042.15 127.669 L2042.15 158.293 L2049.79 158.293 L2049.79 162.229 L2029.88 162.229 L2029.88 158.293 Z" fill="#000000" fill-rule="nonzero" fill-opacity="1" /><path clip-path="url(#clip390)" d="M2067.89 145.585 L2067.89 152.807 L2076.01 152.807 L2076.01 155.006 L2067.89 155.006 L2067.89 162.229 L2065.46 162.229 L2065.46 155.006 L2057.33 155.006 L2057.33 152.807 L2065.46 152.807 L2065.46 145.585 L2067.89 145.585 Z" fill="#000000" fill-rule="nonzero" fill-opacity="1" /><path clip-path="url(#clip390)" d="M2100.18 137.067 L2100.18 141.094 Q2098.38 140.169 2096.43 139.706 Q2094.49 139.243 2092.4 139.243 Q2089.23 139.243 2087.63 140.215 Q2086.06 141.187 2086.06 143.131 Q2086.06 144.613 2087.19 145.469 Q2088.33 146.303 2091.75 147.067 L2093.21 147.391 Q2097.75 148.363 2099.65 150.145 Q2101.57 151.905 2101.57 155.076 Q2101.57 158.687 2098.7 160.793 Q2095.85 162.9 2090.85 162.9 Q2088.77 162.9 2086.5 162.483 Q2084.25 162.09 2081.75 161.28 L2081.75 156.881 Q2084.12 158.108 2086.41 158.733 Q2088.7 159.335 2090.94 159.335 Q2093.95 159.335 2095.57 158.317 Q2097.19 157.275 2097.19 155.4 Q2097.19 153.664 2096.01 152.738 Q2094.86 151.812 2090.9 150.956 L2089.42 150.608 Q2085.46 149.775 2083.7 148.062 Q2081.94 146.326 2081.94 143.317 Q2081.94 139.659 2084.53 137.669 Q2087.13 135.678 2091.89 135.678 Q2094.25 135.678 2096.34 136.025 Q2098.42 136.372 2100.18 137.067 Z" fill="#000000" fill-rule="nonzero" fill-opacity="1" /><path clip-path="url(#clip390)" d="M2112.56 128.942 L2112.56 136.303 L2121.34 136.303 L2121.34 139.613 L2112.56 139.613 L2112.56 153.687 Q2112.56 156.858 2113.42 157.761 Q2114.3 158.664 2116.96 158.664 L2121.34 158.664 L2121.34 162.229 L2116.96 162.229 Q2112.03 162.229 2110.16 160.4 Q2108.28 158.548 2108.28 153.687 L2108.28 139.613 L2105.16 139.613 L2105.16 136.303 L2108.28 136.303 L2108.28 128.942 L2112.56 128.942 Z" fill="#000000" fill-rule="nonzero" fill-opacity="1" /><path clip-path="url(#clip390)" d="M2136.99 139.289 Q2133.56 139.289 2131.57 141.974 Q2129.58 144.636 2129.58 149.289 Q2129.58 153.942 2131.55 156.627 Q2133.54 159.289 2136.99 159.289 Q2140.39 159.289 2142.38 156.604 Q2144.37 153.918 2144.37 149.289 Q2144.37 144.682 2142.38 141.997 Q2140.39 139.289 2136.99 139.289 M2136.99 135.678 Q2142.54 135.678 2145.71 139.289 Q2148.88 142.9 2148.88 149.289 Q2148.88 155.655 2145.71 159.289 Q2142.54 162.9 2136.99 162.9 Q2131.41 162.9 2128.24 159.289 Q2125.09 155.655 2125.09 149.289 Q2125.09 142.9 2128.24 139.289 Q2131.41 135.678 2136.99 135.678 Z" fill="#000000" fill-rule="nonzero" fill-opacity="1" /><path clip-path="url(#clip390)" d="M2170.97 140.284 Q2170.25 139.868 2169.39 139.682 Q2168.56 139.474 2167.54 139.474 Q2163.93 139.474 2161.99 141.835 Q2160.06 144.173 2160.06 148.571 L2160.06 162.229 L2155.78 162.229 L2155.78 136.303 L2160.06 136.303 L2160.06 140.331 Q2161.41 137.969 2163.56 136.835 Q2165.71 135.678 2168.79 135.678 Q2169.23 135.678 2169.76 135.747 Q2170.3 135.794 2170.94 135.909 L2170.97 140.284 Z" fill="#000000" fill-rule="nonzero" fill-opacity="1" /><path clip-path="url(#clip390)" d="M2187.22 149.196 Q2182.06 149.196 2180.06 150.377 Q2178.07 151.557 2178.07 154.405 Q2178.07 156.673 2179.56 158.016 Q2181.06 159.335 2183.63 159.335 Q2187.17 159.335 2189.3 156.835 Q2191.45 154.312 2191.45 150.145 L2191.45 149.196 L2187.22 149.196 M2195.71 147.437 L2195.71 162.229 L2191.45 162.229 L2191.45 158.293 Q2189.99 160.655 2187.82 161.789 Q2185.64 162.9 2182.49 162.9 Q2178.51 162.9 2176.15 160.678 Q2173.81 158.432 2173.81 154.682 Q2173.81 150.307 2176.73 148.085 Q2179.67 145.863 2185.48 145.863 L2191.45 145.863 L2191.45 145.446 Q2191.45 142.507 2189.51 140.909 Q2187.59 139.289 2184.09 139.289 Q2181.87 139.289 2179.76 139.821 Q2177.66 140.354 2175.71 141.419 L2175.71 137.483 Q2178.05 136.581 2180.25 136.141 Q2182.45 135.678 2184.53 135.678 Q2190.16 135.678 2192.93 138.594 Q2195.71 141.511 2195.71 147.437 Z" fill="#000000" fill-rule="nonzero" fill-opacity="1" /><path clip-path="url(#clip390)" d="M2221.55 148.965 Q2221.55 144.335 2219.62 141.789 Q2217.73 139.243 2214.28 139.243 Q2210.85 139.243 2208.93 141.789 Q2207.03 144.335 2207.03 148.965 Q2207.03 153.571 2208.93 156.118 Q2210.85 158.664 2214.28 158.664 Q2217.73 158.664 2219.62 156.118 Q2221.55 153.571 2221.55 148.965 M2225.8 159.011 Q2225.8 165.631 2222.87 168.849 Q2219.93 172.09 2213.86 172.09 Q2211.62 172.09 2209.62 171.742 Q2207.63 171.418 2205.76 170.724 L2205.76 166.58 Q2207.63 167.599 2209.46 168.085 Q2211.29 168.571 2213.19 168.571 Q2217.38 168.571 2219.46 166.372 Q2221.55 164.196 2221.55 159.775 L2221.55 157.668 Q2220.23 159.96 2218.17 161.094 Q2216.11 162.229 2213.24 162.229 Q2208.47 162.229 2205.55 158.594 Q2202.63 154.96 2202.63 148.965 Q2202.63 142.946 2205.55 139.312 Q2208.47 135.678 2213.24 135.678 Q2216.11 135.678 2218.17 136.812 Q2220.23 137.946 2221.55 140.238 L2221.55 136.303 L2225.8 136.303 L2225.8 159.011 Z" fill="#000000" fill-rule="nonzero" fill-opacity="1" /><path clip-path="url(#clip390)" d="M2256.75 148.201 L2256.75 150.284 L2237.17 150.284 Q2237.45 154.682 2239.81 156.997 Q2242.19 159.289 2246.43 159.289 Q2248.88 159.289 2251.18 158.687 Q2253.49 158.085 2255.76 156.881 L2255.76 160.909 Q2253.47 161.881 2251.06 162.391 Q2248.65 162.9 2246.18 162.9 Q2239.97 162.9 2236.34 159.289 Q2232.73 155.678 2232.73 149.52 Q2232.73 143.155 2236.15 139.428 Q2239.6 135.678 2245.43 135.678 Q2250.67 135.678 2253.7 139.057 Q2256.75 142.414 2256.75 148.201 M2252.49 146.951 Q2252.45 143.456 2250.53 141.372 Q2248.63 139.289 2245.48 139.289 Q2241.92 139.289 2239.76 141.303 Q2237.63 143.317 2237.31 146.974 L2252.49 146.951 Z" fill="#000000" fill-rule="nonzero" fill-opacity="1" /><polyline clip-path="url(#clip390)" style="stroke:#e26f46; stroke-linecap:round; stroke-linejoin:round; stroke-width:4; stroke-opacity:1; fill:none" points="1829.35,196.789 1973.36,196.789 "/>
<path clip-path="url(#clip390)" d="M1997.36 188.143 L2001.87 188.143 L2009.97 209.902 L2018.07 188.143 L2022.59 188.143 L2012.87 214.069 L2007.08 214.069 L1997.36 188.143 Z" fill="#000000" fill-rule="nonzero" fill-opacity="1" /><path clip-path="url(#clip390)" d="M2029.12 179.509 L2047.47 179.509 L2047.47 183.444 L2033.4 183.444 L2033.4 191.916 Q2034.42 191.569 2035.44 191.407 Q2036.45 191.222 2037.47 191.222 Q2043.26 191.222 2046.64 194.393 Q2050.02 197.564 2050.02 202.981 Q2050.02 208.559 2046.55 211.661 Q2043.07 214.74 2036.76 214.74 Q2034.58 214.74 2032.31 214.37 Q2030.07 213.999 2027.66 213.258 L2027.66 208.559 Q2029.74 209.694 2031.96 210.249 Q2034.19 210.805 2036.66 210.805 Q2040.67 210.805 2043 208.698 Q2045.34 206.592 2045.34 202.981 Q2045.34 199.37 2043 197.263 Q2040.67 195.157 2036.66 195.157 Q2034.79 195.157 2032.91 195.573 Q2031.06 195.99 2029.12 196.87 L2029.12 179.509 Z" fill="#000000" fill-rule="nonzero" fill-opacity="1" /><path clip-path="url(#clip390)" d="M2067.89 197.425 L2067.89 204.647 L2076.01 204.647 L2076.01 206.846 L2067.89 206.846 L2067.89 214.069 L2065.46 214.069 L2065.46 206.846 L2057.33 206.846 L2057.33 204.647 L2065.46 204.647 L2065.46 197.425 L2067.89 197.425 Z" fill="#000000" fill-rule="nonzero" fill-opacity="1" /><path clip-path="url(#clip390)" d="M2100.18 188.907 L2100.18 192.934 Q2098.38 192.009 2096.43 191.546 Q2094.49 191.083 2092.4 191.083 Q2089.23 191.083 2087.63 192.055 Q2086.06 193.027 2086.06 194.971 Q2086.06 196.453 2087.19 197.309 Q2088.33 198.143 2091.75 198.907 L2093.21 199.231 Q2097.75 200.203 2099.65 201.985 Q2101.57 203.745 2101.57 206.916 Q2101.57 210.527 2098.7 212.633 Q2095.85 214.74 2090.85 214.74 Q2088.77 214.74 2086.5 214.323 Q2084.25 213.93 2081.75 213.12 L2081.75 208.721 Q2084.12 209.948 2086.41 210.573 Q2088.7 211.175 2090.94 211.175 Q2093.95 211.175 2095.57 210.157 Q2097.19 209.115 2097.19 207.24 Q2097.19 205.504 2096.01 204.578 Q2094.86 203.652 2090.9 202.796 L2089.42 202.448 Q2085.46 201.615 2083.7 199.902 Q2081.94 198.166 2081.94 195.157 Q2081.94 191.499 2084.53 189.509 Q2087.13 187.518 2091.89 187.518 Q2094.25 187.518 2096.34 187.865 Q2098.42 188.212 2100.18 188.907 Z" fill="#000000" fill-rule="nonzero" fill-opacity="1" /><path clip-path="url(#clip390)" d="M2112.56 180.782 L2112.56 188.143 L2121.34 188.143 L2121.34 191.453 L2112.56 191.453 L2112.56 205.527 Q2112.56 208.698 2113.42 209.601 Q2114.3 210.504 2116.96 210.504 L2121.34 210.504 L2121.34 214.069 L2116.96 214.069 Q2112.03 214.069 2110.16 212.24 Q2108.28 210.388 2108.28 205.527 L2108.28 191.453 L2105.16 191.453 L2105.16 188.143 L2108.28 188.143 L2108.28 180.782 L2112.56 180.782 Z" fill="#000000" fill-rule="nonzero" fill-opacity="1" /><path clip-path="url(#clip390)" d="M2136.99 191.129 Q2133.56 191.129 2131.57 193.814 Q2129.58 196.476 2129.58 201.129 Q2129.58 205.782 2131.55 208.467 Q2133.54 211.129 2136.99 211.129 Q2140.39 211.129 2142.38 208.444 Q2144.37 205.758 2144.37 201.129 Q2144.37 196.522 2142.38 193.837 Q2140.39 191.129 2136.99 191.129 M2136.99 187.518 Q2142.54 187.518 2145.71 191.129 Q2148.88 194.74 2148.88 201.129 Q2148.88 207.495 2145.71 211.129 Q2142.54 214.74 2136.99 214.74 Q2131.41 214.74 2128.24 211.129 Q2125.09 207.495 2125.09 201.129 Q2125.09 194.74 2128.24 191.129 Q2131.41 187.518 2136.99 187.518 Z" fill="#000000" fill-rule="nonzero" fill-opacity="1" /><path clip-path="url(#clip390)" d="M2170.97 192.124 Q2170.25 191.708 2169.39 191.522 Q2168.56 191.314 2167.54 191.314 Q2163.93 191.314 2161.99 193.675 Q2160.06 196.013 2160.06 200.411 L2160.06 214.069 L2155.78 214.069 L2155.78 188.143 L2160.06 188.143 L2160.06 192.171 Q2161.41 189.809 2163.56 188.675 Q2165.71 187.518 2168.79 187.518 Q2169.23 187.518 2169.76 187.587 Q2170.3 187.634 2170.94 187.749 L2170.97 192.124 Z" fill="#000000" fill-rule="nonzero" fill-opacity="1" /><path clip-path="url(#clip390)" d="M2187.22 201.036 Q2182.06 201.036 2180.06 202.217 Q2178.07 203.397 2178.07 206.245 Q2178.07 208.513 2179.56 209.856 Q2181.06 211.175 2183.63 211.175 Q2187.17 211.175 2189.3 208.675 Q2191.45 206.152 2191.45 201.985 L2191.45 201.036 L2187.22 201.036 M2195.71 199.277 L2195.71 214.069 L2191.45 214.069 L2191.45 210.133 Q2189.99 212.495 2187.82 213.629 Q2185.64 214.74 2182.49 214.74 Q2178.51 214.74 2176.15 212.518 Q2173.81 210.272 2173.81 206.522 Q2173.81 202.147 2176.73 199.925 Q2179.67 197.703 2185.48 197.703 L2191.45 197.703 L2191.45 197.286 Q2191.45 194.347 2189.51 192.749 Q2187.59 191.129 2184.09 191.129 Q2181.87 191.129 2179.76 191.661 Q2177.66 192.194 2175.71 193.259 L2175.71 189.323 Q2178.05 188.421 2180.25 187.981 Q2182.45 187.518 2184.53 187.518 Q2190.16 187.518 2192.93 190.434 Q2195.71 193.351 2195.71 199.277 Z" fill="#000000" fill-rule="nonzero" fill-opacity="1" /><path clip-path="url(#clip390)" d="M2221.55 200.805 Q2221.55 196.175 2219.62 193.629 Q2217.73 191.083 2214.28 191.083 Q2210.85 191.083 2208.93 193.629 Q2207.03 196.175 2207.03 200.805 Q2207.03 205.411 2208.93 207.958 Q2210.85 210.504 2214.28 210.504 Q2217.73 210.504 2219.62 207.958 Q2221.55 205.411 2221.55 200.805 M2225.8 210.851 Q2225.8 217.471 2222.87 220.689 Q2219.93 223.93 2213.86 223.93 Q2211.62 223.93 2209.62 223.582 Q2207.63 223.258 2205.76 222.564 L2205.76 218.42 Q2207.63 219.439 2209.46 219.925 Q2211.29 220.411 2213.19 220.411 Q2217.38 220.411 2219.46 218.212 Q2221.55 216.036 2221.55 211.615 L2221.55 209.508 Q2220.23 211.8 2218.17 212.934 Q2216.11 214.069 2213.24 214.069 Q2208.47 214.069 2205.55 210.434 Q2202.63 206.8 2202.63 200.805 Q2202.63 194.786 2205.55 191.152 Q2208.47 187.518 2213.24 187.518 Q2216.11 187.518 2218.17 188.652 Q2220.23 189.786 2221.55 192.078 L2221.55 188.143 L2225.8 188.143 L2225.8 210.851 Z" fill="#000000" fill-rule="nonzero" fill-opacity="1" /><path clip-path="url(#clip390)" d="M2256.75 200.041 L2256.75 202.124 L2237.17 202.124 Q2237.45 206.522 2239.81 208.837 Q2242.19 211.129 2246.43 211.129 Q2248.88 211.129 2251.18 210.527 Q2253.49 209.925 2255.76 208.721 L2255.76 212.749 Q2253.47 213.721 2251.06 214.231 Q2248.65 214.74 2246.18 214.74 Q2239.97 214.74 2236.34 211.129 Q2232.73 207.518 2232.73 201.36 Q2232.73 194.995 2236.15 191.268 Q2239.6 187.518 2245.43 187.518 Q2250.67 187.518 2253.7 190.897 Q2256.75 194.254 2256.75 200.041 M2252.49 198.791 Q2252.45 195.296 2250.53 193.212 Q2248.63 191.129 2245.48 191.129 Q2241.92 191.129 2239.76 193.143 Q2237.63 195.157 2237.31 198.814 L2252.49 198.791 Z" fill="#000000" fill-rule="nonzero" fill-opacity="1" /></svg>
