<?xml version="1.0" encoding="utf-8"?>
<svg xmlns="http://www.w3.org/2000/svg" xmlns:xlink="http://www.w3.org/1999/xlink" width="600" height="400" viewBox="0 0 2400 1600">
<defs>
  <clipPath id="clip490">
    <rect x="0" y="0" width="2400" height="1600"/>
  </clipPath>
</defs>
<path clip-path="url(#clip490)" d="M0 1600 L2400 1600 L2400 0 L0 0  Z" fill="#ffffff" fill-rule="evenodd" fill-opacity="1"/>
<defs>
  <clipPath id="clip491">
    <rect x="480" y="0" width="1681" height="1600"/>
  </clipPath>
</defs>
<path clip-path="url(#clip490)" d="M156.274 1423.18 L2352.76 1423.18 L2352.76 47.2441 L156.274 47.2441  Z" fill="#ffffff" fill-rule="evenodd" fill-opacity="1"/>
<defs>
  <clipPath id="clip492">
    <rect x="156" y="47" width="2197" height="1377"/>
  </clipPath>
</defs>
<polyline clip-path="url(#clip492)" style="stroke:#000000; stroke-linecap:round; stroke-linejoin:round; stroke-width:2; stroke-opacity:0.1; fill:none" points="156.274,1423.18 156.274,47.2441 "/>
<polyline clip-path="url(#clip492)" style="stroke:#000000; stroke-linecap:round; stroke-linejoin:round; stroke-width:2; stroke-opacity:0.1; fill:none" points="705.395,1423.18 705.395,47.2441 "/>
<polyline clip-path="url(#clip492)" style="stroke:#000000; stroke-linecap:round; stroke-linejoin:round; stroke-width:2; stroke-opacity:0.1; fill:none" points="1254.52,1423.18 1254.52,47.2441 "/>
<polyline clip-path="url(#clip492)" style="stroke:#000000; stroke-linecap:round; stroke-linejoin:round; stroke-width:2; stroke-opacity:0.1; fill:none" points="1803.64,1423.18 1803.64,47.2441 "/>
<polyline clip-path="url(#clip492)" style="stroke:#000000; stroke-linecap:round; stroke-linejoin:round; stroke-width:2; stroke-opacity:0.1; fill:none" points="2352.76,1423.18 2352.76,47.2441 "/>
<polyline clip-path="url(#clip492)" style="stroke:#000000; stroke-linecap:round; stroke-linejoin:round; stroke-width:2; stroke-opacity:0.1; fill:none" points="156.274,1315.38 2352.76,1315.38 "/>
<polyline clip-path="url(#clip492)" style="stroke:#000000; stroke-linecap:round; stroke-linejoin:round; stroke-width:2; stroke-opacity:0.1; fill:none" points="156.274,1046.42 2352.76,1046.42 "/>
<polyline clip-path="url(#clip492)" style="stroke:#000000; stroke-linecap:round; stroke-linejoin:round; stroke-width:2; stroke-opacity:0.1; fill:none" points="156.274,777.459 2352.76,777.459 "/>
<polyline clip-path="url(#clip492)" style="stroke:#000000; stroke-linecap:round; stroke-linejoin:round; stroke-width:2; stroke-opacity:0.1; fill:none" points="156.274,508.499 2352.76,508.499 "/>
<polyline clip-path="url(#clip492)" style="stroke:#000000; stroke-linecap:round; stroke-linejoin:round; stroke-width:2; stroke-opacity:0.1; fill:none" points="156.274,239.538 2352.76,239.538 "/>
<polyline clip-path="url(#clip490)" style="stroke:#000000; stroke-linecap:round; stroke-linejoin:round; stroke-width:4; stroke-opacity:1; fill:none" points="156.274,1423.18 2352.76,1423.18 "/>
<polyline clip-path="url(#clip490)" style="stroke:#000000; stroke-linecap:round; stroke-linejoin:round; stroke-width:4; stroke-opacity:1; fill:none" points="156.274,1423.18 156.274,1404.28 "/>
<polyline clip-path="url(#clip490)" style="stroke:#000000; stroke-linecap:round; stroke-linejoin:round; stroke-width:4; stroke-opacity:1; fill:none" points="705.395,1423.18 705.395,1404.28 "/>
<polyline clip-path="url(#clip490)" style="stroke:#000000; stroke-linecap:round; stroke-linejoin:round; stroke-width:4; stroke-opacity:1; fill:none" points="1254.52,1423.18 1254.52,1404.28 "/>
<polyline clip-path="url(#clip490)" style="stroke:#000000; stroke-linecap:round; stroke-linejoin:round; stroke-width:4; stroke-opacity:1; fill:none" points="1803.64,1423.18 1803.64,1404.28 "/>
<polyline clip-path="url(#clip490)" style="stroke:#000000; stroke-linecap:round; stroke-linejoin:round; stroke-width:4; stroke-opacity:1; fill:none" points="2352.76,1423.18 2352.76,1404.28 "/>
<path clip-path="url(#clip490)" d="M133.659 1454.1 Q130.047 1454.1 128.219 1457.66 Q126.413 1461.2 126.413 1468.33 Q126.413 1475.44 128.219 1479.01 Q130.047 1482.55 133.659 1482.55 Q137.293 1482.55 139.098 1479.01 Q140.927 1475.44 140.927 1468.33 Q140.927 1461.2 139.098 1457.66 Q137.293 1454.1 133.659 1454.1 M133.659 1450.39 Q139.469 1450.39 142.524 1455 Q145.603 1459.58 145.603 1468.33 Q145.603 1477.06 142.524 1481.67 Q139.469 1486.25 133.659 1486.25 Q127.848 1486.25 124.77 1481.67 Q121.714 1477.06 121.714 1468.33 Q121.714 1459.58 124.77 1455 Q127.848 1450.39 133.659 1450.39 Z" fill="#000000" fill-rule="nonzero" fill-opacity="1" /><path clip-path="url(#clip490)" d="M153.82 1479.7 L158.705 1479.7 L158.705 1485.58 L153.82 1485.58 L153.82 1479.7 Z" fill="#000000" fill-rule="nonzero" fill-opacity="1" /><path clip-path="url(#clip490)" d="M178.89 1454.1 Q175.279 1454.1 173.45 1457.66 Q171.644 1461.2 171.644 1468.33 Q171.644 1475.44 173.45 1479.01 Q175.279 1482.55 178.89 1482.55 Q182.524 1482.55 184.33 1479.01 Q186.158 1475.44 186.158 1468.33 Q186.158 1461.2 184.33 1457.66 Q182.524 1454.1 178.89 1454.1 M178.89 1450.39 Q184.7 1450.39 187.755 1455 Q190.834 1459.58 190.834 1468.33 Q190.834 1477.06 187.755 1481.67 Q184.7 1486.25 178.89 1486.25 Q173.08 1486.25 170.001 1481.67 Q166.945 1477.06 166.945 1468.33 Q166.945 1459.58 170.001 1455 Q173.08 1450.39 178.89 1450.39 Z" fill="#000000" fill-rule="nonzero" fill-opacity="1" /><path clip-path="url(#clip490)" d="M683.277 1454.1 Q679.666 1454.1 677.837 1457.66 Q676.031 1461.2 676.031 1468.33 Q676.031 1475.44 677.837 1479.01 Q679.666 1482.55 683.277 1482.55 Q686.911 1482.55 688.716 1479.01 Q690.545 1475.44 690.545 1468.33 Q690.545 1461.2 688.716 1457.66 Q686.911 1454.1 683.277 1454.1 M683.277 1450.39 Q689.087 1450.39 692.142 1455 Q695.221 1459.58 695.221 1468.33 Q695.221 1477.06 692.142 1481.67 Q689.087 1486.25 683.277 1486.25 Q677.467 1486.25 674.388 1481.67 Q671.332 1477.06 671.332 1468.33 Q671.332 1459.58 674.388 1455 Q677.467 1450.39 683.277 1450.39 Z" fill="#000000" fill-rule="nonzero" fill-opacity="1" /><path clip-path="url(#clip490)" d="M703.439 1479.7 L708.323 1479.7 L708.323 1485.58 L703.439 1485.58 L703.439 1479.7 Z" fill="#000000" fill-rule="nonzero" fill-opacity="1" /><path clip-path="url(#clip490)" d="M718.554 1451.02 L736.911 1451.02 L736.911 1454.96 L722.837 1454.96 L722.837 1463.43 Q723.855 1463.08 724.874 1462.92 Q725.892 1462.73 726.911 1462.73 Q732.698 1462.73 736.077 1465.9 Q739.457 1469.08 739.457 1474.49 Q739.457 1480.07 735.985 1483.17 Q732.513 1486.25 726.193 1486.25 Q724.017 1486.25 721.749 1485.88 Q719.503 1485.51 717.096 1484.77 L717.096 1480.07 Q719.179 1481.2 721.401 1481.76 Q723.624 1482.32 726.101 1482.32 Q730.105 1482.32 732.443 1480.21 Q734.781 1478.1 734.781 1474.49 Q734.781 1470.88 732.443 1468.77 Q730.105 1466.67 726.101 1466.67 Q724.226 1466.67 722.351 1467.08 Q720.499 1467.5 718.554 1468.38 L718.554 1451.02 Z" fill="#000000" fill-rule="nonzero" fill-opacity="1" /><path clip-path="url(#clip490)" d="M1221.67 1481.64 L1229.31 1481.64 L1229.31 1455.28 L1221 1456.95 L1221 1452.69 L1229.26 1451.02 L1233.94 1451.02 L1233.94 1481.64 L1241.58 1481.64 L1241.58 1485.58 L1221.67 1485.58 L1221.67 1481.64 Z" fill="#000000" fill-rule="nonzero" fill-opacity="1" /><path clip-path="url(#clip490)" d="M1251.02 1479.7 L1255.9 1479.7 L1255.9 1485.58 L1251.02 1485.58 L1251.02 1479.7 Z" fill="#000000" fill-rule="nonzero" fill-opacity="1" /><path clip-path="url(#clip490)" d="M1276.09 1454.1 Q1272.48 1454.1 1270.65 1457.66 Q1268.84 1461.2 1268.84 1468.33 Q1268.84 1475.44 1270.65 1479.01 Q1272.48 1482.55 1276.09 1482.55 Q1279.72 1482.55 1281.53 1479.01 Q1283.36 1475.44 1283.36 1468.33 Q1283.36 1461.2 1281.53 1457.66 Q1279.72 1454.1 1276.09 1454.1 M1276.09 1450.39 Q1281.9 1450.39 1284.95 1455 Q1288.03 1459.58 1288.03 1468.33 Q1288.03 1477.06 1284.95 1481.67 Q1281.9 1486.25 1276.09 1486.25 Q1270.28 1486.25 1267.2 1481.67 Q1264.14 1477.06 1264.14 1468.33 Q1264.14 1459.58 1267.2 1455 Q1270.28 1450.39 1276.09 1450.39 Z" fill="#000000" fill-rule="nonzero" fill-opacity="1" /><path clip-path="url(#clip490)" d="M1771.29 1481.64 L1778.92 1481.64 L1778.92 1455.28 L1770.61 1456.95 L1770.61 1452.69 L1778.88 1451.02 L1783.55 1451.02 L1783.55 1481.64 L1791.19 1481.64 L1791.19 1485.58 L1771.29 1485.58 L1771.29 1481.64 Z" fill="#000000" fill-rule="nonzero" fill-opacity="1" /><path clip-path="url(#clip490)" d="M1800.64 1479.7 L1805.52 1479.7 L1805.52 1485.58 L1800.64 1485.58 L1800.64 1479.7 Z" fill="#000000" fill-rule="nonzero" fill-opacity="1" /><path clip-path="url(#clip490)" d="M1815.75 1451.02 L1834.11 1451.02 L1834.11 1454.96 L1820.04 1454.96 L1820.04 1463.43 Q1821.05 1463.08 1822.07 1462.92 Q1823.09 1462.73 1824.11 1462.73 Q1829.9 1462.73 1833.28 1465.9 Q1836.66 1469.08 1836.66 1474.49 Q1836.66 1480.07 1833.18 1483.17 Q1829.71 1486.25 1823.39 1486.25 Q1821.22 1486.25 1818.95 1485.88 Q1816.7 1485.51 1814.3 1484.77 L1814.3 1480.07 Q1816.38 1481.2 1818.6 1481.76 Q1820.82 1482.32 1823.3 1482.32 Q1827.3 1482.32 1829.64 1480.21 Q1831.98 1478.1 1831.98 1474.49 Q1831.98 1470.88 1829.64 1468.77 Q1827.3 1466.67 1823.3 1466.67 Q1821.42 1466.67 1819.55 1467.08 Q1817.7 1467.5 1815.75 1468.38 L1815.75 1451.02 Z" fill="#000000" fill-rule="nonzero" fill-opacity="1" /><path clip-path="url(#clip490)" d="M2323.99 1481.64 L2340.31 1481.64 L2340.31 1485.58 L2318.37 1485.58 L2318.37 1481.64 Q2321.03 1478.89 2325.61 1474.26 Q2330.22 1469.61 2331.4 1468.27 Q2333.65 1465.74 2334.53 1464.01 Q2335.43 1462.25 2335.43 1460.56 Q2335.43 1457.8 2333.49 1456.07 Q2331.56 1454.33 2328.46 1454.33 Q2326.26 1454.33 2323.81 1455.09 Q2321.38 1455.86 2318.6 1457.41 L2318.6 1452.69 Q2321.43 1451.55 2323.88 1450.97 Q2326.33 1450.39 2328.37 1450.39 Q2333.74 1450.39 2336.93 1453.08 Q2340.13 1455.77 2340.13 1460.26 Q2340.13 1462.39 2339.32 1464.31 Q2338.53 1466.2 2336.42 1468.8 Q2335.85 1469.47 2332.74 1472.69 Q2329.64 1475.88 2323.99 1481.64 Z" fill="#000000" fill-rule="nonzero" fill-opacity="1" /><path clip-path="url(#clip490)" d="M2350.13 1479.7 L2355.01 1479.7 L2355.01 1485.58 L2350.13 1485.58 L2350.13 1479.7 Z" fill="#000000" fill-rule="nonzero" fill-opacity="1" /><path clip-path="url(#clip490)" d="M2375.2 1454.1 Q2371.59 1454.1 2369.76 1457.66 Q2367.95 1461.2 2367.95 1468.33 Q2367.95 1475.44 2369.76 1479.01 Q2371.59 1482.55 2375.2 1482.55 Q2378.83 1482.55 2380.64 1479.01 Q2382.47 1475.44 2382.47 1468.33 Q2382.47 1461.2 2380.64 1457.66 Q2378.83 1454.1 2375.2 1454.1 M2375.2 1450.39 Q2381.01 1450.39 2384.06 1455 Q2387.14 1459.58 2387.14 1468.33 Q2387.14 1477.06 2384.06 1481.67 Q2381.01 1486.25 2375.2 1486.25 Q2369.39 1486.25 2366.31 1481.67 Q2363.25 1477.06 2363.25 1468.33 Q2363.25 1459.58 2366.31 1455 Q2369.39 1450.39 2375.2 1450.39 Z" fill="#000000" fill-rule="nonzero" fill-opacity="1" /><path clip-path="url(#clip490)" d="M1253.58 1522.27 L1253.58 1532.4 L1265.64 1532.4 L1265.64 1536.95 L1253.58 1536.95 L1253.58 1556.3 Q1253.58 1560.66 1254.75 1561.9 Q1255.96 1563.14 1259.62 1563.14 L1265.64 1563.14 L1265.64 1568.04 L1259.62 1568.04 Q1252.84 1568.04 1250.27 1565.53 Q1247.69 1562.98 1247.69 1556.3 L1247.69 1536.95 L1243.39 1536.95 L1243.39 1532.4 L1247.69 1532.4 L1247.69 1522.27 L1253.58 1522.27 Z" fill="#000000" fill-rule="nonzero" fill-opacity="1" /><polyline clip-path="url(#clip490)" style="stroke:#000000; stroke-linecap:round; stroke-linejoin:round; stroke-width:4; stroke-opacity:1; fill:none" points="156.274,1423.18 156.274,47.2441 "/>
<polyline clip-path="url(#clip490)" style="stroke:#000000; stroke-linecap:round; stroke-linejoin:round; stroke-width:4; stroke-opacity:1; fill:none" points="156.274,1315.38 175.172,1315.38 "/>
<polyline clip-path="url(#clip490)" style="stroke:#000000; stroke-linecap:round; stroke-linejoin:round; stroke-width:4; stroke-opacity:1; fill:none" points="156.274,1046.42 175.172,1046.42 "/>
<polyline clip-path="url(#clip490)" style="stroke:#000000; stroke-linecap:round; stroke-linejoin:round; stroke-width:4; stroke-opacity:1; fill:none" points="156.274,777.459 175.172,777.459 "/>
<polyline clip-path="url(#clip490)" style="stroke:#000000; stroke-linecap:round; stroke-linejoin:round; stroke-width:4; stroke-opacity:1; fill:none" points="156.274,508.499 175.172,508.499 "/>
<polyline clip-path="url(#clip490)" style="stroke:#000000; stroke-linecap:round; stroke-linejoin:round; stroke-width:4; stroke-opacity:1; fill:none" points="156.274,239.538 175.172,239.538 "/>
<path clip-path="url(#clip490)" d="M62.9365 1301.18 Q59.3254 1301.18 57.4967 1304.74 Q55.6912 1308.29 55.6912 1315.41 Q55.6912 1322.52 57.4967 1326.09 Q59.3254 1329.63 62.9365 1329.63 Q66.5707 1329.63 68.3763 1326.09 Q70.205 1322.52 70.205 1315.41 Q70.205 1308.29 68.3763 1304.74 Q66.5707 1301.18 62.9365 1301.18 M62.9365 1297.48 Q68.7467 1297.48 71.8022 1302.08 Q74.8809 1306.66 74.8809 1315.41 Q74.8809 1324.14 71.8022 1328.75 Q68.7467 1333.33 62.9365 1333.33 Q57.1264 1333.33 54.0477 1328.75 Q50.9921 1324.14 50.9921 1315.41 Q50.9921 1306.66 54.0477 1302.08 Q57.1264 1297.48 62.9365 1297.48 Z" fill="#000000" fill-rule="nonzero" fill-opacity="1" /><path clip-path="url(#clip490)" d="M83.0984 1326.78 L87.9827 1326.78 L87.9827 1332.66 L83.0984 1332.66 L83.0984 1326.78 Z" fill="#000000" fill-rule="nonzero" fill-opacity="1" /><path clip-path="url(#clip490)" d="M108.746 1313.52 Q105.598 1313.52 103.746 1315.67 Q101.918 1317.82 101.918 1321.57 Q101.918 1325.3 103.746 1327.47 Q105.598 1329.63 108.746 1329.63 Q111.895 1329.63 113.723 1327.47 Q115.575 1325.3 115.575 1321.57 Q115.575 1317.82 113.723 1315.67 Q111.895 1313.52 108.746 1313.52 M118.029 1298.86 L118.029 1303.12 Q116.27 1302.29 114.464 1301.85 Q112.682 1301.41 110.922 1301.41 Q106.293 1301.41 103.839 1304.54 Q101.409 1307.66 101.061 1313.98 Q102.427 1311.97 104.487 1310.9 Q106.547 1309.81 109.024 1309.81 Q114.233 1309.81 117.242 1312.98 Q120.274 1316.13 120.274 1321.57 Q120.274 1326.9 117.126 1330.11 Q113.978 1333.33 108.746 1333.33 Q102.751 1333.33 99.5798 1328.75 Q96.4085 1324.14 96.4085 1315.41 Q96.4085 1307.22 100.297 1302.36 Q104.186 1297.48 110.737 1297.48 Q112.496 1297.48 114.279 1297.82 Q116.084 1298.17 118.029 1298.86 Z" fill="#000000" fill-rule="nonzero" fill-opacity="1" /><path clip-path="url(#clip490)" d="M63.2837 1032.22 Q59.6726 1032.22 57.8439 1035.78 Q56.0384 1039.32 56.0384 1046.45 Q56.0384 1053.56 57.8439 1057.13 Q59.6726 1060.67 63.2837 1060.67 Q66.918 1060.67 68.7235 1057.13 Q70.5522 1053.56 70.5522 1046.45 Q70.5522 1039.32 68.7235 1035.78 Q66.918 1032.22 63.2837 1032.22 M63.2837 1028.51 Q69.0939 1028.51 72.1494 1033.12 Q75.2281 1037.7 75.2281 1046.45 Q75.2281 1055.18 72.1494 1059.79 Q69.0939 1064.37 63.2837 1064.37 Q57.4736 1064.37 54.3949 1059.79 Q51.3393 1055.18 51.3393 1046.45 Q51.3393 1037.7 54.3949 1033.12 Q57.4736 1028.51 63.2837 1028.51 Z" fill="#000000" fill-rule="nonzero" fill-opacity="1" /><path clip-path="url(#clip490)" d="M83.4457 1057.82 L88.3299 1057.82 L88.3299 1063.7 L83.4457 1063.7 L83.4457 1057.82 Z" fill="#000000" fill-rule="nonzero" fill-opacity="1" /><path clip-path="url(#clip490)" d="M98.6539 1062.98 L98.6539 1058.72 Q100.413 1059.56 102.219 1060 Q104.024 1060.44 105.76 1060.44 Q110.39 1060.44 112.82 1057.33 Q115.274 1054.21 115.621 1047.87 Q114.279 1049.86 112.219 1050.92 Q110.158 1051.99 107.658 1051.99 Q102.473 1051.99 99.4409 1048.86 Q96.4317 1045.71 96.4317 1040.27 Q96.4317 1034.95 99.5798 1031.73 Q102.728 1028.51 107.959 1028.51 Q113.955 1028.51 117.103 1033.12 Q120.274 1037.7 120.274 1046.45 Q120.274 1054.63 116.385 1059.51 Q112.52 1064.37 105.969 1064.37 Q104.209 1064.37 102.404 1064.02 Q100.598 1063.68 98.6539 1062.98 M107.959 1048.33 Q111.108 1048.33 112.936 1046.18 Q114.788 1044.02 114.788 1040.27 Q114.788 1036.55 112.936 1034.39 Q111.108 1032.22 107.959 1032.22 Q104.811 1032.22 102.959 1034.39 Q101.131 1036.55 101.131 1040.27 Q101.131 1044.02 102.959 1046.18 Q104.811 1048.33 107.959 1048.33 Z" fill="#000000" fill-rule="nonzero" fill-opacity="1" /><path clip-path="url(#clip490)" d="M55.506 790.804 L63.1448 790.804 L63.1448 764.439 L54.8347 766.105 L54.8347 761.846 L63.0985 760.179 L67.7744 760.179 L67.7744 790.804 L75.4133 790.804 L75.4133 794.739 L55.506 794.739 L55.506 790.804 Z" fill="#000000" fill-rule="nonzero" fill-opacity="1" /><path clip-path="url(#clip490)" d="M84.8577 788.86 L89.7419 788.86 L89.7419 794.739 L84.8577 794.739 L84.8577 788.86 Z" fill="#000000" fill-rule="nonzero" fill-opacity="1" /><path clip-path="url(#clip490)" d="M103.955 790.804 L120.274 790.804 L120.274 794.739 L98.3298 794.739 L98.3298 790.804 Q100.992 788.05 105.575 783.42 Q110.182 778.767 111.362 777.425 Q113.608 774.901 114.487 773.165 Q115.39 771.406 115.39 769.716 Q115.39 766.962 113.445 765.226 Q111.524 763.489 108.422 763.489 Q106.223 763.489 103.77 764.253 Q101.339 765.017 98.5613 766.568 L98.5613 761.846 Q101.385 760.712 103.839 760.133 Q106.293 759.554 108.33 759.554 Q113.7 759.554 116.895 762.239 Q120.089 764.925 120.089 769.415 Q120.089 771.545 119.279 773.466 Q118.492 775.364 116.385 777.957 Q115.807 778.628 112.705 781.846 Q109.603 785.04 103.955 790.804 Z" fill="#000000" fill-rule="nonzero" fill-opacity="1" /><path clip-path="url(#clip490)" d="M54.9041 521.844 L62.543 521.844 L62.543 495.478 L54.2328 497.145 L54.2328 492.886 L62.4967 491.219 L67.1726 491.219 L67.1726 521.844 L74.8114 521.844 L74.8114 525.779 L54.9041 525.779 L54.9041 521.844 Z" fill="#000000" fill-rule="nonzero" fill-opacity="1" /><path clip-path="url(#clip490)" d="M84.2558 519.899 L89.1401 519.899 L89.1401 525.779 L84.2558 525.779 L84.2558 519.899 Z" fill="#000000" fill-rule="nonzero" fill-opacity="1" /><path clip-path="url(#clip490)" d="M99.3715 491.219 L117.728 491.219 L117.728 495.154 L103.654 495.154 L103.654 503.626 Q104.672 503.279 105.691 503.117 Q106.709 502.932 107.728 502.932 Q113.515 502.932 116.895 506.103 Q120.274 509.274 120.274 514.691 Q120.274 520.27 116.802 523.371 Q113.33 526.45 107.01 526.45 Q104.834 526.45 102.566 526.08 Q100.321 525.709 97.9132 524.969 L97.9132 520.27 Q99.9965 521.404 102.219 521.959 Q104.441 522.515 106.918 522.515 Q110.922 522.515 113.26 520.409 Q115.598 518.302 115.598 514.691 Q115.598 511.08 113.26 508.973 Q110.922 506.867 106.918 506.867 Q105.043 506.867 103.168 507.284 Q101.316 507.7 99.3715 508.58 L99.3715 491.219 Z" fill="#000000" fill-rule="nonzero" fill-opacity="1" /><path clip-path="url(#clip490)" d="M54.0014 252.883 L61.6402 252.883 L61.6402 226.518 L53.3301 228.184 L53.3301 223.925 L61.5939 222.258 L66.2698 222.258 L66.2698 252.883 L73.9087 252.883 L73.9087 256.818 L54.0014 256.818 L54.0014 252.883 Z" fill="#000000" fill-rule="nonzero" fill-opacity="1" /><path clip-path="url(#clip490)" d="M83.3531 250.939 L88.2373 250.939 L88.2373 256.818 L83.3531 256.818 L83.3531 250.939 Z" fill="#000000" fill-rule="nonzero" fill-opacity="1" /><path clip-path="url(#clip490)" d="M108.422 240.407 Q105.089 240.407 103.168 242.189 Q101.27 243.971 101.27 247.096 Q101.27 250.221 103.168 252.004 Q105.089 253.786 108.422 253.786 Q111.756 253.786 113.677 252.004 Q115.598 250.198 115.598 247.096 Q115.598 243.971 113.677 242.189 Q111.779 240.407 108.422 240.407 M103.746 238.416 Q100.737 237.675 99.0474 235.615 Q97.3808 233.555 97.3808 230.592 Q97.3808 226.448 100.321 224.041 Q103.284 221.633 108.422 221.633 Q113.584 221.633 116.524 224.041 Q119.464 226.448 119.464 230.592 Q119.464 233.555 117.774 235.615 Q116.108 237.675 113.121 238.416 Q116.501 239.203 118.376 241.494 Q120.274 243.786 120.274 247.096 Q120.274 252.119 117.195 254.805 Q114.14 257.49 108.422 257.49 Q102.705 257.49 99.6261 254.805 Q96.5706 252.119 96.5706 247.096 Q96.5706 243.786 98.4687 241.494 Q100.367 239.203 103.746 238.416 M102.034 231.032 Q102.034 233.717 103.7 235.221 Q105.39 236.726 108.422 236.726 Q111.432 236.726 113.121 235.221 Q114.834 233.717 114.834 231.032 Q114.834 228.346 113.121 226.842 Q111.432 225.337 108.422 225.337 Q105.39 225.337 103.7 226.842 Q102.034 228.346 102.034 231.032 Z" fill="#000000" fill-rule="nonzero" fill-opacity="1" /><polyline clip-path="url(#clip492)" style="stroke:#009af9; stroke-linecap:round; stroke-linejoin:round; stroke-width:4; stroke-opacity:1; fill:none" points="156.274,375.334 158.473,385.383 160.672,395.332 162.87,405.182 165.069,414.934 167.268,424.589 169.466,434.148 171.665,443.611 173.864,452.981 176.062,462.257 178.261,471.44 180.46,480.532 182.658,489.534 184.857,498.445 187.056,507.268 189.254,516.003 191.453,524.652 193.652,533.214 195.85,541.69 198.049,550.083 200.248,558.391 202.446,566.617 204.645,574.761 206.844,582.824 209.042,590.807 211.241,598.71 213.44,606.534 215.639,614.281 217.837,621.95 220.036,629.543 222.235,637.06 224.433,644.503 226.632,651.871 228.831,659.166 231.029,666.389 233.228,673.539 235.427,680.618 237.625,687.627 239.824,694.566 242.023,701.436 244.221,708.237 246.42,714.97 248.619,721.637 250.817,728.237 253.016,734.771 255.215,741.24 257.413,747.645 259.612,753.986 261.811,760.264 264.01,766.479 266.208,772.632 268.407,778.724 270.606,784.756 272.804,790.727 275.003,796.639 277.202,802.492 279.4,808.286 281.599,814.023 283.798,819.703 285.996,825.326 288.195,830.894 290.394,836.406 292.592,841.862 294.791,847.265 296.99,852.614 299.188,857.909 301.387,863.152 303.586,868.343 305.784,873.482 307.983,878.57 310.182,883.607 312.38,888.594 314.579,893.531 316.778,898.42 318.977,903.259 321.175,908.05 323.374,912.794 325.573,917.49 327.771,922.139 329.97,926.743 332.169,931.3 334.367,935.812 336.566,940.278 338.765,944.701 340.963,949.079 343.162,953.414 345.361,957.705 347.559,961.954 349.758,966.16 351.957,970.325 354.155,974.448 356.354,978.529 358.553,982.571 360.751,986.572 362.95,990.533 365.149,994.454 367.347,998.337 369.546,1002.18 371.745,1005.99 373.944,1009.75 376.142,1013.48 378.341,1017.18 380.54,1020.83 382.738,1024.45 384.937,1028.04 387.136,1031.59 389.334,1035.1 391.533,1038.58 393.732,1042.02 395.93,1045.43 398.129,1048.8 400.328,1052.15 402.526,1055.45 404.725,1058.73 406.924,1061.97 409.122,1065.18 411.321,1068.36 413.52,1071.51 415.718,1074.62 417.917,1077.71 420.116,1080.76 422.314,1083.79 424.513,1086.78 426.712,1089.74 428.911,1092.68 431.109,1095.58 433.308,1098.46 435.507,1101.3 437.705,1104.12 439.904,1106.91 442.103,1109.68 444.301,1112.41 446.5,1115.12 448.699,1117.8 450.897,1120.45 453.096,1123.08 455.295,1125.68 457.493,1128.26 459.692,1130.81 461.891,1133.33 464.089,1135.83 466.288,1138.31 468.487,1140.76 470.685,1143.18 472.884,1145.58 475.083,1147.96 477.282,1150.31 479.48,1152.64 481.679,1154.95 483.878,1157.23 486.076,1159.5 488.275,1161.73 490.474,1163.95 492.672,1166.15 494.871,1168.32 497.07,1170.47 499.268,1172.6 501.467,1174.71 503.666,1176.79 505.864,1178.86 508.063,1180.91 510.262,1182.93 512.46,1184.94 514.659,1186.92 516.858,1188.89 519.056,1190.84 521.255,1192.76 523.454,1194.67 525.652,1196.56 527.851,1198.43 530.05,1200.28 532.249,1202.11 534.447,1203.93 536.646,1205.73 538.845,1207.5 541.043,1209.27 543.242,1211.01 545.441,1212.73 547.639,1214.44 549.838,1216.14 552.037,1217.81 554.235,1219.47 556.434,1221.11 558.633,1222.74 560.831,1224.34 563.03,1225.94 565.229,1227.51 567.427,1229.08 569.626,1230.62 571.825,1232.15 574.023,1233.67 576.222,1235.17 578.421,1236.65 580.619,1238.12 582.818,1239.58 585.017,1241.02 587.216,1242.45 589.414,1243.86 591.613,1245.26 593.812,1246.64 596.01,1248.01 598.209,1249.37 600.408,1250.71 602.606,1252.04 604.805,1253.36 607.004,1254.66 609.202,1255.96 611.401,1257.23 613.6,1258.5 615.798,1259.75 617.997,1260.99 620.196,1262.22 622.394,1263.44 624.593,1264.64 626.792,1265.83 628.99,1267.01 631.189,1268.18 633.388,1269.34 635.586,1270.48 637.785,1271.62 639.984,1272.74 642.183,1273.85 644.381,1274.95 646.58,1276.04 648.779,1277.12 650.977,1278.18 653.176,1279.24 655.375,1280.29 657.573,1281.32 659.772,1282.35 661.971,1283.37 664.169,1284.37 666.368,1285.37 668.567,1286.35 670.765,1287.33 672.964,1288.29 675.163,1289.25 677.361,1290.2 679.56,1291.13 681.759,1292.06 683.957,1292.98 686.156,1293.89 688.355,1294.79 690.554,1295.68 692.752,1296.56 694.951,1297.44 697.15,1298.3 699.348,1299.16 701.547,1300.01 703.746,1300.85 705.944,1301.68 708.143,1302.5 710.342,1303.31 712.54,1304.12 714.739,1304.92 716.938,1305.71 719.136,1306.49 721.335,1307.26 723.534,1308.03 725.732,1308.79 727.931,1309.54 730.13,1310.29 732.328,1311.02 734.527,1311.75 736.726,1312.48 738.924,1313.19 741.123,1313.9 743.322,1314.6 745.521,1315.29 747.719,1315.98 749.918,1316.66 752.117,1317.33 754.315,1318 756.514,1318.66 758.713,1319.31 760.911,1319.96 763.11,1320.6 765.309,1321.24 767.507,1321.86 769.706,1322.49 771.905,1323.1 774.103,1323.71 776.302,1324.32 778.501,1324.91 780.699,1325.5 782.898,1326.09 785.097,1326.67 787.295,1327.24 789.494,1327.81 791.693,1328.38 793.891,1328.93 796.09,1329.48 798.289,1330.03 800.488,1330.57 802.686,1331.11 804.885,1331.64 807.084,1332.16 809.282,1332.68 811.481,1333.2 813.68,1333.7 815.878,1334.21 818.077,1334.71 820.276,1335.2 822.474,1335.69 824.673,1336.17 826.872,1336.65 829.07,1337.13 831.269,1337.6 833.468,1338.06 835.666,1338.52 837.865,1338.98 840.064,1339.43 842.262,1339.88 844.461,1340.32 846.66,1340.76 848.858,1341.19 851.057,1341.62 853.256,1342.05 855.455,1342.47 857.653,1342.88 859.852,1343.29 862.051,1343.7 864.249,1344.11 866.448,1344.51 868.647,1344.9 870.845,1345.29 873.044,1345.68 875.243,1346.07 877.441,1346.45 879.64,1346.82 881.839,1347.2 884.037,1347.57 886.236,1347.93 888.435,1348.29 890.633,1348.65 892.832,1349.01 895.031,1349.36 897.229,1349.7 899.428,1350.05 901.627,1350.39 903.826,1350.73 906.024,1351.06 908.223,1351.39 910.422,1351.72 912.62,1352.04 914.819,1352.36 917.018,1352.68 919.216,1353 921.415,1353.31 923.614,1353.62 925.812,1353.92 928.011,1354.22 930.21,1354.52 932.408,1354.82 934.607,1355.11 936.806,1355.4 939.004,1355.69 941.203,1355.98 943.402,1356.26 945.6,1356.54 947.799,1356.82 949.998,1357.09 952.196,1357.36 954.395,1357.63 956.594,1357.9 958.793,1358.16 960.991,1358.42 963.19,1358.68 965.389,1358.93 967.587,1359.19 969.786,1359.44 971.985,1359.68 974.183,1359.93 976.382,1360.17 978.581,1360.41 980.779,1360.65 982.978,1360.89 985.177,1361.12 987.375,1361.35 989.574,1361.58 991.773,1361.81 993.971,1362.03 996.17,1362.25 998.369,1362.47 1000.57,1362.69 1002.77,1362.9 1004.96,1363.12 1007.16,1363.33 1009.36,1363.54 1011.56,1363.74 1013.76,1363.95 1015.96,1364.15 1018.16,1364.35 1020.36,1364.55 1022.55,1364.75 1024.75,1364.94 1026.95,1365.13 1029.15,1365.32 1031.35,1365.51 1033.55,1365.7 1035.75,1365.89 1037.95,1366.07 1040.14,1366.25 1042.34,1366.43 1044.54,1366.61 1046.74,1366.78 1048.94,1366.96 1051.14,1367.13 1053.34,1367.3 1055.53,1367.47 1057.73,1367.64 1059.93,1367.8 1062.13,1367.97 1064.33,1368.13 1066.53,1368.29 1068.73,1368.45 1070.93,1368.6 1073.12,1368.76 1075.32,1368.92 1077.52,1369.07 1079.72,1369.22 1081.92,1369.37 1084.12,1369.52 1086.32,1369.66 1088.51,1369.81 1090.71,1369.95 1092.91,1370.1 1095.11,1370.24 1097.31,1370.38 1099.51,1370.51 1101.71,1370.65 1103.91,1370.79 1106.1,1370.92 1108.3,1371.05 1110.5,1371.19 1112.7,1371.32 1114.9,1371.45 1117.1,1371.57 1119.3,1371.7 1121.49,1371.83 1123.69,1371.95 1125.89,1372.07 1128.09,1372.19 1130.29,1372.31 1132.49,1372.43 1134.69,1372.55 1136.89,1372.67 1139.08,1372.79 1141.28,1372.9 1143.48,1373.01 1145.68,1373.13 1147.88,1373.24 1150.08,1373.35 1152.28,1373.46 1154.48,1373.57 1156.67,1373.67 1158.87,1373.78 1161.07,1373.88 1163.27,1373.99 1165.47,1374.09 1167.67,1374.19 1169.87,1374.29 1172.06,1374.39 1174.26,1374.49 1176.46,1374.59 1178.66,1374.69 1180.86,1374.78 1183.06,1374.88 1185.26,1374.97 1187.46,1375.06 1189.65,1375.16 1191.85,1375.25 1194.05,1375.34 1196.25,1375.43 1198.45,1375.52 1200.65,1375.6 1202.85,1375.69 1205.04,1375.78 1207.24,1375.86 1209.44,1375.94 1211.64,1376.03 1213.84,1376.11 1216.04,1376.19 1218.24,1376.27 1220.44,1376.35 1222.63,1376.43 1224.83,1376.51 1227.03,1376.59 1229.23,1376.66 1231.43,1376.74 1233.63,1376.81 1235.83,1376.89 1238.02,1376.96 1240.22,1377.04 1242.42,1377.11 1244.62,1377.18 1246.82,1377.25 1249.02,1377.32 1251.22,1377.39 1253.42,1377.46 1255.61,1377.53 1257.81,1377.59 1260.01,1377.66 1262.21,1377.73 1264.41,1377.79 1266.61,1377.85 1268.81,1377.92 1271.01,1377.98 1273.2,1378.04 1275.4,1378.11 1277.6,1378.17 1279.8,1378.23 1282,1378.29 1284.2,1378.35 1286.4,1378.41 1288.59,1378.46 1290.79,1378.52 1292.99,1378.58 1295.19,1378.64 1297.39,1378.69 1299.59,1378.75 1301.79,1378.8 1303.99,1378.86 1306.18,1378.91 1308.38,1378.96 1310.58,1379.02 1312.78,1379.07 1314.98,1379.12 1317.18,1379.17 1319.38,1379.22 1321.57,1379.27 1323.77,1379.32 1325.97,1379.37 1328.17,1379.42 1330.37,1379.47 1332.57,1379.52 1334.77,1379.56 1336.97,1379.61 1339.16,1379.66 1341.36,1379.7 1343.56,1379.75 1345.76,1379.79 1347.96,1379.84 1350.16,1379.88 1352.36,1379.93 1354.55,1379.97 1356.75,1380.01 1358.95,1380.06 1361.15,1380.1 1363.35,1380.14 1365.55,1380.18 1367.75,1380.22 1369.95,1380.26 1372.14,1380.3 1374.34,1380.34 1376.54,1380.38 1378.74,1380.42 1380.94,1380.46 1383.14,1380.5 1385.34,1380.54 1387.54,1380.57 1389.73,1380.61 1391.93,1380.65 1394.13,1380.69 1396.33,1380.72 1398.53,1380.76 1400.73,1380.79 1402.93,1380.83 1405.12,1380.86 1407.32,1380.9 1409.52,1380.93 1411.72,1380.96 1413.92,1381 1416.12,1381.03 1418.32,1381.06 1420.52,1381.1 1422.71,1381.13 1424.91,1381.16 1427.11,1381.19 1429.31,1381.22 1431.51,1381.25 1433.71,1381.28 1435.91,1381.31 1438.1,1381.34 1440.3,1381.37 1442.5,1381.4 1444.7,1381.43 1446.9,1381.46 1449.1,1381.49 1451.3,1381.52 1453.5,1381.54 1455.69,1381.57 1457.89,1381.6 1460.09,1381.62 1462.29,1381.65 1464.49,1381.68 1466.69,1381.7 1468.89,1381.73 1471.09,1381.75 1473.28,1381.78 1475.48,1381.8 1477.68,1381.83 1479.88,1381.85 1482.08,1381.88 1484.28,1381.9 1486.48,1381.93 1488.67,1381.95 1490.87,1381.97 1493.07,1382 1495.27,1382.02 1497.47,1382.04 1499.67,1382.06 1501.87,1382.08 1504.07,1382.11 1506.26,1382.13 1508.46,1382.15 1510.66,1382.17 1512.86,1382.19 1515.06,1382.21 1517.26,1382.23 1519.46,1382.25 1521.65,1382.27 1523.85,1382.29 1526.05,1382.31 1528.25,1382.33 1530.45,1382.35 1532.65,1382.37 1534.85,1382.39 1537.05,1382.41 1539.24,1382.43 1541.44,1382.44 1543.64,1382.46 1545.84,1382.48 1548.04,1382.5 1550.24,1382.52 1552.44,1382.53 1554.63,1382.55 1556.83,1382.57 1559.03,1382.58 1561.23,1382.6 1563.43,1382.62 1565.63,1382.63 1567.83,1382.65 1570.03,1382.67 1572.22,1382.68 1574.42,1382.7 1576.62,1382.71 1578.82,1382.73 1581.02,1382.74 1583.22,1382.76 1585.42,1382.78 1587.62,1382.79 1589.81,1382.8 1592.01,1382.82 1594.21,1382.83 1596.41,1382.85 1598.61,1382.86 1600.81,1382.88 1603.01,1382.89 1605.2,1382.9 1607.4,1382.92 1609.6,1382.93 1611.8,1382.95 1614,1382.96 1616.2,1382.97 1618.4,1382.98 1620.6,1383 1622.79,1383.01 1624.99,1383.02 1627.19,1383.04 1629.39,1383.05 1631.59,1383.06 1633.79,1383.07 1635.99,1383.09 1638.18,1383.1 1640.38,1383.11 1642.58,1383.12 1644.78,1383.13 1646.98,1383.15 1649.18,1383.16 1651.38,1383.17 1653.58,1383.18 1655.77,1383.19 1657.97,1383.2 1660.17,1383.21 1662.37,1383.22 1664.57,1383.23 1666.77,1383.24 1668.97,1383.26 1671.16,1383.27 1673.36,1383.28 1675.56,1383.29 1677.76,1383.3 1679.96,1383.31 1682.16,1383.32 1684.36,1383.33 1686.56,1383.34 1688.75,1383.35 1690.95,1383.36 1693.15,1383.36 1695.35,1383.37 1697.55,1383.38 1699.75,1383.39 1701.95,1383.4 1704.15,1383.41 1706.34,1383.42 1708.54,1383.43 1710.74,1383.44 1712.94,1383.45 1715.14,1383.45 1717.34,1383.46 1719.54,1383.47 1721.73,1383.48 1723.93,1383.49 1726.13,1383.49 1728.33,1383.5 1730.53,1383.51 1732.73,1383.52 1734.93,1383.53 1737.13,1383.53 1739.32,1383.54 1741.52,1383.55 1743.72,1383.56 1745.92,1383.56 1748.12,1383.57 1750.32,1383.58 1752.52,1383.59 1754.71,1383.59 1756.91,1383.6 1759.11,1383.61 1761.31,1383.61 1763.51,1383.62 1765.71,1383.63 1767.91,1383.63 1770.11,1383.64 1772.3,1383.65 1774.5,1383.65 1776.7,1383.66 1778.9,1383.66 1781.1,1383.67 1783.3,1383.68 1785.5,1383.68 1787.7,1383.69 1789.89,1383.69 1792.09,1383.7 1794.29,1383.71 1796.49,1383.71 1798.69,1383.72 1800.89,1383.72 1803.09,1383.73 1805.28,1383.73 1807.48,1383.74 1809.68,1383.74 1811.88,1383.75 1814.08,1383.76 1816.28,1383.76 1818.48,1383.77 1820.68,1383.77 1822.87,1383.78 1825.07,1383.78 1827.27,1383.79 1829.47,1383.79 1831.67,1383.8 1833.87,1383.8 1836.07,1383.8 1838.26,1383.81 1840.46,1383.81 1842.66,1383.82 1844.86,1383.82 1847.06,1383.83 1849.26,1383.83 1851.46,1383.84 1853.66,1383.84 1855.85,1383.84 1858.05,1383.85 1860.25,1383.85 1862.45,1383.86 1864.65,1383.86 1866.85,1383.87 1869.05,1383.87 1871.24,1383.87 1873.44,1383.88 1875.64,1383.88 1877.84,1383.89 1880.04,1383.89 1882.24,1383.89 1884.44,1383.9 1886.64,1383.9 1888.83,1383.9 1891.03,1383.91 1893.23,1383.91 1895.43,1383.92 1897.63,1383.92 1899.83,1383.92 1902.03,1383.93 1904.23,1383.93 1906.42,1383.93 1908.62,1383.94 1910.82,1383.94 1913.02,1383.94 1915.22,1383.95 1917.42,1383.95 1919.62,1383.95 1921.81,1383.96 1924.01,1383.96 1926.21,1383.96 1928.41,1383.97 1930.61,1383.97 1932.81,1383.97 1935.01,1383.98 1937.21,1383.98 1939.4,1383.98 1941.6,1383.99 1943.8,1383.99 1946,1383.99 1948.2,1383.99 1950.4,1384 1952.6,1384 1954.79,1384 1956.99,1384.01 1959.19,1384.01 1961.39,1384.01 1963.59,1384.01 1965.79,1384.02 1967.99,1384.02 1970.19,1384.02 1972.38,1384.03 1974.58,1384.03 1976.78,1384.03 1978.98,1384.03 1981.18,1384.04 1983.38,1384.04 1985.58,1384.04 1987.77,1384.04 1989.97,1384.05 1992.17,1384.05 1994.37,1384.05 1996.57,1384.05 1998.77,1384.06 2000.97,1384.06 2003.17,1384.06 2005.36,1384.06 2007.56,1384.07 2009.76,1384.07 2011.96,1384.07 2014.16,1384.07 2016.36,1384.07 2018.56,1384.08 2020.76,1384.08 2022.95,1384.08 2025.15,1384.08 2027.35,1384.09 2029.55,1384.09 2031.75,1384.09 2033.95,1384.09 2036.15,1384.09 2038.34,1384.1 2040.54,1384.1 2042.74,1384.1 2044.94,1384.1 2047.14,1384.1 2049.34,1384.11 2051.54,1384.11 2053.74,1384.11 2055.93,1384.11 2058.13,1384.11 2060.33,1384.11 2062.53,1384.12 2064.73,1384.12 2066.93,1384.12 2069.13,1384.12 2071.32,1384.12 2073.52,1384.12 2075.72,1384.13 2077.92,1384.13 2080.12,1384.13 2082.32,1384.13 2084.52,1384.13 2086.72,1384.13 2088.91,1384.14 2091.11,1384.14 2093.31,1384.14 2095.51,1384.14 2097.71,1384.14 2099.91,1384.14 2102.11,1384.14 2104.31,1384.15 2106.5,1384.15 2108.7,1384.15 2110.9,1384.15 2113.1,1384.15 2115.3,1384.15 2117.5,1384.15 2119.7,1384.16 2121.89,1384.16 2124.09,1384.16 2126.29,1384.16 2128.49,1384.16 2130.69,1384.16 2132.89,1384.16 2135.09,1384.16 2137.29,1384.17 2139.48,1384.17 2141.68,1384.17 2143.88,1384.17 2146.08,1384.17 2148.28,1384.17 2150.48,1384.17 2152.68,1384.17 2154.87,1384.17 2157.07,1384.18 2159.27,1384.18 2161.47,1384.18 2163.67,1384.18 2165.87,1384.18 2168.07,1384.18 2170.27,1384.18 2172.46,1384.18 2174.66,1384.18 2176.86,1384.18 2179.06,1384.19 2181.26,1384.19 2183.46,1384.19 2185.66,1384.19 2187.85,1384.19 2190.05,1384.19 2192.25,1384.19 2194.45,1384.19 2196.65,1384.19 2198.85,1384.19 2201.05,1384.19 2203.25,1384.19 2205.44,1384.2 2207.64,1384.2 2209.84,1384.2 2212.04,1384.2 2214.24,1384.2 2216.44,1384.2 2218.64,1384.2 2220.84,1384.2 2223.03,1384.2 2225.23,1384.2 2227.43,1384.2 2229.63,1384.2 2231.83,1384.2 2234.03,1384.21 2236.23,1384.21 2238.42,1384.21 2240.62,1384.21 2242.82,1384.21 2245.02,1384.21 2247.22,1384.21 2249.42,1384.21 2251.62,1384.21 2253.82,1384.21 2256.01,1384.21 2258.21,1384.21 2260.41,1384.21 2262.61,1384.21 2264.81,1384.21 2267.01,1384.22 2269.21,1384.22 2271.4,1384.22 2273.6,1384.22 2275.8,1384.22 2278,1384.22 2280.2,1384.22 2282.4,1384.22 2284.6,1384.22 2286.8,1384.22 2288.99,1384.22 2291.19,1384.22 2293.39,1384.22 2295.59,1384.22 2297.79,1384.22 2299.99,1384.23 2302.19,1384.23 2304.38,1384.23 2306.58,1384.23 2308.78,1384.23 2310.98,1384.23 2313.18,1384.23 2315.38,1384.23 2317.58,1384.23 2319.78,1384.23 2321.97,1384.23 2324.17,1384.23 2326.37,1384.23 2328.57,1384.23 2330.77,1384.23 2332.97,1384.23 2335.17,1384.23 2337.37,1384.23 2339.56,1384.24 2341.76,1384.24 2343.96,1384.24 2346.16,1384.24 2348.36,1384.24 2350.56,1384.24 2352.76,1384.24 "/>
<polyline clip-path="url(#clip492)" style="stroke:#e26f46; stroke-linecap:round; stroke-linejoin:round; stroke-width:4; stroke-opacity:1; fill:none" points="156.274,86.1857 158.473,94.5285 160.672,102.816 162.87,111.048 165.069,119.225 167.268,127.348 169.466,135.416 171.665,143.431 173.864,151.393 176.062,159.301 178.261,167.157 180.46,174.961 182.658,182.713 184.857,190.413 187.056,198.062 189.254,205.661 191.453,213.209 193.652,220.707 195.85,228.155 198.049,235.554 200.248,242.903 202.446,250.204 204.645,257.457 206.844,264.662 209.042,271.819 211.241,278.928 213.44,285.991 215.639,293.007 217.837,299.976 220.036,306.9 222.235,313.777 224.433,320.609 226.632,327.397 228.831,334.139 231.029,340.837 233.228,347.49 235.427,354.1 237.625,360.666 239.824,367.189 242.023,373.669 244.221,380.107 246.42,386.501 248.619,392.854 250.817,399.165 253.016,405.435 255.215,411.663 257.413,417.85 259.612,423.997 261.811,430.103 264.01,436.169 266.208,442.195 268.407,448.182 270.606,454.129 272.804,460.037 275.003,465.907 277.202,471.738 279.4,477.531 281.599,483.286 283.798,489.003 285.996,494.683 288.195,500.326 290.394,505.932 292.592,511.501 294.791,517.033 296.99,522.53 299.188,527.99 301.387,533.415 303.586,538.804 305.784,544.158 307.983,549.478 310.182,554.762 312.38,560.012 314.579,565.228 316.778,570.41 318.977,575.558 321.175,580.672 323.374,585.753 325.573,590.801 327.771,595.816 329.97,600.798 332.169,605.748 334.367,610.666 336.566,615.552 338.765,620.406 340.963,625.228 343.162,630.019 345.361,634.779 347.559,639.508 349.758,644.206 351.957,648.874 354.155,653.511 356.354,658.119 358.553,662.696 360.751,667.244 362.95,671.762 365.149,676.251 367.347,680.711 369.546,685.142 371.745,689.544 373.944,693.918 376.142,698.263 378.341,702.581 380.54,706.87 382.738,711.132 384.937,715.366 387.136,719.572 389.334,723.752 391.533,727.904 393.732,732.03 395.93,736.129 398.129,740.202 400.328,744.248 402.526,748.268 404.725,752.262 406.924,756.231 409.122,760.174 411.321,764.091 413.52,767.984 415.718,771.851 417.917,775.693 420.116,779.51 422.314,783.303 424.513,787.072 426.712,790.816 428.911,794.536 431.109,798.232 433.308,801.904 435.507,805.553 437.705,809.179 439.904,812.78 442.103,816.359 444.301,819.915 446.5,823.448 448.699,826.958 450.897,830.446 453.096,833.912 455.295,837.355 457.493,840.776 459.692,844.175 461.891,847.552 464.089,850.908 466.288,854.242 468.487,857.555 470.685,860.846 472.884,864.117 475.083,867.366 477.282,870.595 479.48,873.803 481.679,876.991 483.878,880.158 486.076,883.305 488.275,886.432 490.474,889.538 492.672,892.625 494.871,895.693 497.07,898.74 499.268,901.769 501.467,904.777 503.666,907.767 505.864,910.738 508.063,913.689 510.262,916.622 512.46,919.536 514.659,922.432 516.858,925.309 519.056,928.168 521.255,931.008 523.454,933.831 525.652,936.635 527.851,939.422 530.05,942.191 532.249,944.942 534.447,947.676 536.646,950.392 538.845,953.091 541.043,955.773 543.242,958.438 545.441,961.086 547.639,963.717 549.838,966.331 552.037,968.929 554.235,971.51 556.434,974.075 558.633,976.623 560.831,979.156 563.03,981.672 565.229,984.172 567.427,986.656 569.626,989.125 571.825,991.578 574.023,994.015 576.222,996.437 578.421,998.844 580.619,1001.24 582.818,1003.61 585.017,1005.97 587.216,1008.32 589.414,1010.65 591.613,1012.97 593.812,1015.27 596.01,1017.56 598.209,1019.83 600.408,1022.09 602.606,1024.33 604.805,1026.56 607.004,1028.78 609.202,1030.98 611.401,1033.17 613.6,1035.34 615.798,1037.5 617.997,1039.65 620.196,1041.78 622.394,1043.9 624.593,1046.01 626.792,1048.1 628.99,1050.18 631.189,1052.25 633.388,1054.3 635.586,1056.34 637.785,1058.37 639.984,1060.39 642.183,1062.39 644.381,1064.38 646.58,1066.36 648.779,1068.32 650.977,1070.28 653.176,1072.22 655.375,1074.14 657.573,1076.06 659.772,1077.96 661.971,1079.86 664.169,1081.74 666.368,1083.6 668.567,1085.46 670.765,1087.3 672.964,1089.14 675.163,1090.96 677.361,1092.77 679.56,1094.57 681.759,1096.36 683.957,1098.13 686.156,1099.9 688.355,1101.65 690.554,1103.39 692.752,1105.13 694.951,1106.85 697.15,1108.56 699.348,1110.26 701.547,1111.95 703.746,1113.62 705.944,1115.29 708.143,1116.95 710.342,1118.6 712.54,1120.23 714.739,1121.86 716.938,1123.48 719.136,1125.08 721.335,1126.68 723.534,1128.26 725.732,1129.84 727.931,1131.41 730.13,1132.96 732.328,1134.51 734.527,1136.05 736.726,1137.57 738.924,1139.09 741.123,1140.6 743.322,1142.1 745.521,1143.59 747.719,1145.07 749.918,1146.54 752.117,1148 754.315,1149.45 756.514,1150.9 758.713,1152.33 760.911,1153.76 763.11,1155.17 765.309,1156.58 767.507,1157.98 769.706,1159.37 771.905,1160.75 774.103,1162.13 776.302,1163.49 778.501,1164.85 780.699,1166.19 782.898,1167.53 785.097,1168.86 787.295,1170.19 789.494,1171.5 791.693,1172.81 793.891,1174.11 796.09,1175.4 798.289,1176.68 800.488,1177.95 802.686,1179.22 804.885,1180.48 807.084,1181.73 809.282,1182.97 811.481,1184.2 813.68,1185.43 815.878,1186.65 818.077,1187.86 820.276,1189.07 822.474,1190.26 824.673,1191.45 826.872,1192.63 829.07,1193.81 831.269,1194.98 833.468,1196.14 835.666,1197.29 837.865,1198.43 840.064,1199.57 842.262,1200.7 844.461,1201.83 846.66,1202.95 848.858,1204.06 851.057,1205.16 853.256,1206.26 855.455,1207.35 857.653,1208.43 859.852,1209.51 862.051,1210.57 864.249,1211.64 866.448,1212.69 868.647,1213.74 870.845,1214.79 873.044,1215.82 875.243,1216.85 877.441,1217.88 879.64,1218.9 881.839,1219.91 884.037,1220.91 886.236,1221.91 888.435,1222.91 890.633,1223.89 892.832,1224.87 895.031,1225.85 897.229,1226.81 899.428,1227.78 901.627,1228.73 903.826,1229.68 906.024,1230.63 908.223,1231.57 910.422,1232.5 912.62,1233.43 914.819,1234.35 917.018,1235.27 919.216,1236.18 921.415,1237.08 923.614,1237.98 925.812,1238.87 928.011,1239.76 930.21,1240.64 932.408,1241.52 934.607,1242.39 936.806,1243.26 939.004,1244.12 941.203,1244.97 943.402,1245.82 945.6,1246.67 947.799,1247.51 949.998,1248.34 952.196,1249.17 954.395,1250 956.594,1250.82 958.793,1251.63 960.991,1252.44 963.19,1253.24 965.389,1254.04 967.587,1254.84 969.786,1255.63 971.985,1256.41 974.183,1257.19 976.382,1257.97 978.581,1258.74 980.779,1259.5 982.978,1260.26 985.177,1261.02 987.375,1261.77 989.574,1262.52 991.773,1263.26 993.971,1264 996.17,1264.73 998.369,1265.46 1000.57,1266.18 1002.77,1266.9 1004.96,1267.62 1007.16,1268.33 1009.36,1269.03 1011.56,1269.73 1013.76,1270.43 1015.96,1271.13 1018.16,1271.81 1020.36,1272.5 1022.55,1273.18 1024.75,1273.86 1026.95,1274.53 1029.15,1275.2 1031.35,1275.86 1033.55,1276.52 1035.75,1277.18 1037.95,1277.83 1040.14,1278.48 1042.34,1279.12 1044.54,1279.76 1046.74,1280.39 1048.94,1281.03 1051.14,1281.65 1053.34,1282.28 1055.53,1282.9 1057.73,1283.52 1059.93,1284.13 1062.13,1284.74 1064.33,1285.34 1066.53,1285.94 1068.73,1286.54 1070.93,1287.14 1073.12,1287.73 1075.32,1288.31 1077.52,1288.9 1079.72,1289.48 1081.92,1290.05 1084.12,1290.62 1086.32,1291.19 1088.51,1291.76 1090.71,1292.32 1092.91,1292.88 1095.11,1293.44 1097.31,1293.99 1099.51,1294.54 1101.71,1295.08 1103.91,1295.62 1106.1,1296.16 1108.3,1296.7 1110.5,1297.23 1112.7,1297.76 1114.9,1298.28 1117.1,1298.8 1119.3,1299.32 1121.49,1299.84 1123.69,1300.35 1125.89,1300.86 1128.09,1301.37 1130.29,1301.87 1132.49,1302.37 1134.69,1302.87 1136.89,1303.36 1139.08,1303.85 1141.28,1304.34 1143.48,1304.83 1145.68,1305.31 1147.88,1305.79 1150.08,1306.27 1152.28,1306.74 1154.48,1307.21 1156.67,1307.68 1158.87,1308.14 1161.07,1308.61 1163.27,1309.06 1165.47,1309.52 1167.67,1309.97 1169.87,1310.43 1172.06,1310.87 1174.26,1311.32 1176.46,1311.76 1178.66,1312.2 1180.86,1312.64 1183.06,1313.07 1185.26,1313.5 1187.46,1313.93 1189.65,1314.36 1191.85,1314.78 1194.05,1315.21 1196.25,1315.62 1198.45,1316.04 1200.65,1316.45 1202.85,1316.87 1205.04,1317.27 1207.24,1317.68 1209.44,1318.08 1211.64,1318.49 1213.84,1318.88 1216.04,1319.28 1218.24,1319.67 1220.44,1320.07 1222.63,1320.45 1224.83,1320.84 1227.03,1321.23 1229.23,1321.61 1231.43,1321.99 1233.63,1322.36 1235.83,1322.74 1238.02,1323.11 1240.22,1323.48 1242.42,1323.85 1244.62,1324.22 1246.82,1324.58 1249.02,1324.94 1251.22,1325.3 1253.42,1325.66 1255.61,1326.01 1257.81,1326.37 1260.01,1326.72 1262.21,1327.06 1264.41,1327.41 1266.61,1327.75 1268.81,1328.1 1271.01,1328.44 1273.2,1328.77 1275.4,1329.11 1277.6,1329.44 1279.8,1329.78 1282,1330.11 1284.2,1330.43 1286.4,1330.76 1288.59,1331.08 1290.79,1331.4 1292.99,1331.72 1295.19,1332.04 1297.39,1332.36 1299.59,1332.67 1301.79,1332.98 1303.99,1333.29 1306.18,1333.6 1308.38,1333.91 1310.58,1334.21 1312.78,1334.52 1314.98,1334.82 1317.18,1335.12 1319.38,1335.41 1321.57,1335.71 1323.77,1336 1325.97,1336.29 1328.17,1336.58 1330.37,1336.87 1332.57,1337.16 1334.77,1337.44 1336.97,1337.73 1339.16,1338.01 1341.36,1338.29 1343.56,1338.57 1345.76,1338.84 1347.96,1339.12 1350.16,1339.39 1352.36,1339.66 1354.55,1339.93 1356.75,1340.2 1358.95,1340.47 1361.15,1340.73 1363.35,1340.99 1365.55,1341.26 1367.75,1341.52 1369.95,1341.77 1372.14,1342.03 1374.34,1342.29 1376.54,1342.54 1378.74,1342.79 1380.94,1343.04 1383.14,1343.29 1385.34,1343.54 1387.54,1343.79 1389.73,1344.03 1391.93,1344.27 1394.13,1344.52 1396.33,1344.76 1398.53,1345 1400.73,1345.23 1402.93,1345.47 1405.12,1345.7 1407.32,1345.94 1409.52,1346.17 1411.72,1346.4 1413.92,1346.63 1416.12,1346.86 1418.32,1347.08 1420.52,1347.31 1422.71,1347.53 1424.91,1347.75 1427.11,1347.97 1429.31,1348.19 1431.51,1348.41 1433.71,1348.63 1435.91,1348.84 1438.1,1349.06 1440.3,1349.27 1442.5,1349.48 1444.7,1349.69 1446.9,1349.9 1449.1,1350.11 1451.3,1350.31 1453.5,1350.52 1455.69,1350.72 1457.89,1350.92 1460.09,1351.13 1462.29,1351.33 1464.49,1351.52 1466.69,1351.72 1468.89,1351.92 1471.09,1352.11 1473.28,1352.31 1475.48,1352.5 1477.68,1352.69 1479.88,1352.88 1482.08,1353.07 1484.28,1353.26 1486.48,1353.45 1488.67,1353.63 1490.87,1353.82 1493.07,1354 1495.27,1354.18 1497.47,1354.37 1499.67,1354.55 1501.87,1354.73 1504.07,1354.9 1506.26,1355.08 1508.46,1355.26 1510.66,1355.43 1512.86,1355.61 1515.06,1355.78 1517.26,1355.95 1519.46,1356.12 1521.65,1356.29 1523.85,1356.46 1526.05,1356.63 1528.25,1356.79 1530.45,1356.96 1532.65,1357.12 1534.85,1357.29 1537.05,1357.45 1539.24,1357.61 1541.44,1357.77 1543.64,1357.93 1545.84,1358.09 1548.04,1358.25 1550.24,1358.41 1552.44,1358.56 1554.63,1358.72 1556.83,1358.87 1559.03,1359.02 1561.23,1359.18 1563.43,1359.33 1565.63,1359.48 1567.83,1359.63 1570.03,1359.77 1572.22,1359.92 1574.42,1360.07 1576.62,1360.21 1578.82,1360.36 1581.02,1360.5 1583.22,1360.65 1585.42,1360.79 1587.62,1360.93 1589.81,1361.07 1592.01,1361.21 1594.21,1361.35 1596.41,1361.49 1598.61,1361.63 1600.81,1361.76 1603.01,1361.9 1605.2,1362.03 1607.4,1362.17 1609.6,1362.3 1611.8,1362.43 1614,1362.56 1616.2,1362.69 1618.4,1362.82 1620.6,1362.95 1622.79,1363.08 1624.99,1363.21 1627.19,1363.34 1629.39,1363.46 1631.59,1363.59 1633.79,1363.71 1635.99,1363.84 1638.18,1363.96 1640.38,1364.08 1642.58,1364.2 1644.78,1364.33 1646.98,1364.45 1649.18,1364.57 1651.38,1364.68 1653.58,1364.8 1655.77,1364.92 1657.97,1365.04 1660.17,1365.15 1662.37,1365.27 1664.57,1365.38 1666.77,1365.5 1668.97,1365.61 1671.16,1365.72 1673.36,1365.83 1675.56,1365.95 1677.76,1366.06 1679.96,1366.17 1682.16,1366.28 1684.36,1366.38 1686.56,1366.49 1688.75,1366.6 1690.95,1366.71 1693.15,1366.81 1695.35,1366.92 1697.55,1367.02 1699.75,1367.13 1701.95,1367.23 1704.15,1367.33 1706.34,1367.43 1708.54,1367.54 1710.74,1367.64 1712.94,1367.74 1715.14,1367.84 1717.34,1367.94 1719.54,1368.03 1721.73,1368.13 1723.93,1368.23 1726.13,1368.33 1728.33,1368.42 1730.53,1368.52 1732.73,1368.61 1734.93,1368.71 1737.13,1368.8 1739.32,1368.89 1741.52,1368.99 1743.72,1369.08 1745.92,1369.17 1748.12,1369.26 1750.32,1369.35 1752.52,1369.44 1754.71,1369.53 1756.91,1369.62 1759.11,1369.71 1761.31,1369.79 1763.51,1369.88 1765.71,1369.97 1767.91,1370.05 1770.11,1370.14 1772.3,1370.23 1774.5,1370.31 1776.7,1370.39 1778.9,1370.48 1781.1,1370.56 1783.3,1370.64 1785.5,1370.72 1787.7,1370.81 1789.89,1370.89 1792.09,1370.97 1794.29,1371.05 1796.49,1371.13 1798.69,1371.21 1800.89,1371.28 1803.09,1371.36 1805.28,1371.44 1807.48,1371.52 1809.68,1371.59 1811.88,1371.67 1814.08,1371.75 1816.28,1371.82 1818.48,1371.9 1820.68,1371.97 1822.87,1372.04 1825.07,1372.12 1827.27,1372.19 1829.47,1372.26 1831.67,1372.34 1833.87,1372.41 1836.07,1372.48 1838.26,1372.55 1840.46,1372.62 1842.66,1372.69 1844.86,1372.76 1847.06,1372.83 1849.26,1372.9 1851.46,1372.97 1853.66,1373.03 1855.85,1373.1 1858.05,1373.17 1860.25,1373.24 1862.45,1373.3 1864.65,1373.37 1866.85,1373.43 1869.05,1373.5 1871.24,1373.56 1873.44,1373.63 1875.64,1373.69 1877.84,1373.75 1880.04,1373.82 1882.24,1373.88 1884.44,1373.94 1886.64,1374 1888.83,1374.07 1891.03,1374.13 1893.23,1374.19 1895.43,1374.25 1897.63,1374.31 1899.83,1374.37 1902.03,1374.43 1904.23,1374.49 1906.42,1374.55 1908.62,1374.61 1910.82,1374.66 1913.02,1374.72 1915.22,1374.78 1917.42,1374.84 1919.62,1374.89 1921.81,1374.95 1924.01,1375.01 1926.21,1375.06 1928.41,1375.12 1930.61,1375.17 1932.81,1375.23 1935.01,1375.28 1937.21,1375.34 1939.4,1375.39 1941.6,1375.44 1943.8,1375.5 1946,1375.55 1948.2,1375.6 1950.4,1375.65 1952.6,1375.71 1954.79,1375.76 1956.99,1375.81 1959.19,1375.86 1961.39,1375.91 1963.59,1375.96 1965.79,1376.01 1967.99,1376.06 1970.19,1376.11 1972.38,1376.16 1974.58,1376.21 1976.78,1376.26 1978.98,1376.31 1981.18,1376.35 1983.38,1376.4 1985.58,1376.45 1987.77,1376.5 1989.97,1376.54 1992.17,1376.59 1994.37,1376.64 1996.57,1376.68 1998.77,1376.73 2000.97,1376.77 2003.17,1376.82 2005.36,1376.86 2007.56,1376.91 2009.76,1376.95 2011.96,1377 2014.16,1377.04 2016.36,1377.08 2018.56,1377.13 2020.76,1377.17 2022.95,1377.21 2025.15,1377.26 2027.35,1377.3 2029.55,1377.34 2031.75,1377.38 2033.95,1377.42 2036.15,1377.47 2038.34,1377.51 2040.54,1377.55 2042.74,1377.59 2044.94,1377.63 2047.14,1377.67 2049.34,1377.71 2051.54,1377.75 2053.74,1377.79 2055.93,1377.83 2058.13,1377.86 2060.33,1377.9 2062.53,1377.94 2064.73,1377.98 2066.93,1378.02 2069.13,1378.06 2071.32,1378.09 2073.52,1378.13 2075.72,1378.17 2077.92,1378.2 2080.12,1378.24 2082.32,1378.28 2084.52,1378.31 2086.72,1378.35 2088.91,1378.38 2091.11,1378.42 2093.31,1378.46 2095.51,1378.49 2097.71,1378.53 2099.91,1378.56 2102.11,1378.59 2104.31,1378.63 2106.5,1378.66 2108.7,1378.7 2110.9,1378.73 2113.1,1378.76 2115.3,1378.8 2117.5,1378.83 2119.7,1378.86 2121.89,1378.89 2124.09,1378.93 2126.29,1378.96 2128.49,1378.99 2130.69,1379.02 2132.89,1379.05 2135.09,1379.08 2137.29,1379.12 2139.48,1379.15 2141.68,1379.18 2143.88,1379.21 2146.08,1379.24 2148.28,1379.27 2150.48,1379.3 2152.68,1379.33 2154.87,1379.36 2157.07,1379.39 2159.27,1379.42 2161.47,1379.45 2163.67,1379.48 2165.87,1379.5 2168.07,1379.53 2170.27,1379.56 2172.46,1379.59 2174.66,1379.62 2176.86,1379.65 2179.06,1379.67 2181.26,1379.7 2183.46,1379.73 2185.66,1379.76 2187.85,1379.78 2190.05,1379.81 2192.25,1379.84 2194.45,1379.86 2196.65,1379.89 2198.85,1379.92 2201.05,1379.94 2203.25,1379.97 2205.44,1379.99 2207.64,1380.02 2209.84,1380.04 2212.04,1380.07 2214.24,1380.09 2216.44,1380.12 2218.64,1380.14 2220.84,1380.17 2223.03,1380.19 2225.23,1380.22 2227.43,1380.24 2229.63,1380.27 2231.83,1380.29 2234.03,1380.31 2236.23,1380.34 2238.42,1380.36 2240.62,1380.39 2242.82,1380.41 2245.02,1380.43 2247.22,1380.45 2249.42,1380.48 2251.62,1380.5 2253.82,1380.52 2256.01,1380.55 2258.21,1380.57 2260.41,1380.59 2262.61,1380.61 2264.81,1380.63 2267.01,1380.66 2269.21,1380.68 2271.4,1380.7 2273.6,1380.72 2275.8,1380.74 2278,1380.76 2280.2,1380.78 2282.4,1380.81 2284.6,1380.83 2286.8,1380.85 2288.99,1380.87 2291.19,1380.89 2293.39,1380.91 2295.59,1380.93 2297.79,1380.95 2299.99,1380.97 2302.19,1380.99 2304.38,1381.01 2306.58,1381.03 2308.78,1381.05 2310.98,1381.07 2313.18,1381.09 2315.38,1381.11 2317.58,1381.12 2319.78,1381.14 2321.97,1381.16 2324.17,1381.18 2326.37,1381.2 2328.57,1381.22 2330.77,1381.24 2332.97,1381.26 2335.17,1381.27 2337.37,1381.29 2339.56,1381.31 2341.76,1381.33 2343.96,1381.35 2346.16,1381.36 2348.36,1381.38 2350.56,1381.4 2352.76,1381.42 "/>
<path clip-path="url(#clip490)" d="M1800.49 248.629 L2279.54 248.629 L2279.54 93.1086 L1800.49 93.1086  Z" fill="#ffffff" fill-rule="evenodd" fill-opacity="1"/>
<polyline clip-path="url(#clip490)" style="stroke:#000000; stroke-linecap:round; stroke-linejoin:round; stroke-width:4; stroke-opacity:1; fill:none" points="1800.49,248.629 2279.54,248.629 2279.54,93.1086 1800.49,93.1086 1800.49,248.629 "/>
<polyline clip-path="url(#clip490)" style="stroke:#009af9; stroke-linecap:round; stroke-linejoin:round; stroke-width:4; stroke-opacity:1; fill:none" points="1824.9,144.949 1971.33,144.949 "/>
<path clip-path="url(#clip490)" d="M1995.74 136.303 L2000.25 136.303 L2008.35 158.062 L2016.46 136.303 L2020.97 136.303 L2011.25 162.229 L2005.46 162.229 L1995.74 136.303 Z" fill="#000000" fill-rule="nonzero" fill-opacity="1" /><path clip-path="url(#clip490)" d="M2028.26 158.293 L2035.9 158.293 L2035.9 131.928 L2027.59 133.595 L2027.59 129.335 L2035.85 127.669 L2040.53 127.669 L2040.53 158.293 L2048.17 158.293 L2048.17 162.229 L2028.26 162.229 L2028.26 158.293 Z" fill="#000000" fill-rule="nonzero" fill-opacity="1" /><path clip-path="url(#clip490)" d="M2066.27 145.585 L2066.27 152.807 L2074.39 152.807 L2074.39 155.006 L2066.27 155.006 L2066.27 162.229 L2063.84 162.229 L2063.84 155.006 L2055.71 155.006 L2055.71 152.807 L2063.84 152.807 L2063.84 145.585 L2066.27 145.585 Z" fill="#000000" fill-rule="nonzero" fill-opacity="1" /><path clip-path="url(#clip490)" d="M2098.56 137.067 L2098.56 141.094 Q2096.76 140.169 2094.81 139.706 Q2092.87 139.243 2090.78 139.243 Q2087.61 139.243 2086.02 140.215 Q2084.44 141.187 2084.44 143.131 Q2084.44 144.613 2085.58 145.469 Q2086.71 146.303 2090.14 147.067 L2091.59 147.391 Q2096.13 148.363 2098.03 150.145 Q2099.95 151.905 2099.95 155.076 Q2099.95 158.687 2097.08 160.793 Q2094.23 162.9 2089.23 162.9 Q2087.15 162.9 2084.88 162.483 Q2082.64 162.09 2080.14 161.28 L2080.14 156.881 Q2082.5 158.108 2084.79 158.733 Q2087.08 159.335 2089.33 159.335 Q2092.33 159.335 2093.95 158.317 Q2095.58 157.275 2095.58 155.4 Q2095.58 153.664 2094.39 152.738 Q2093.24 151.812 2089.28 150.956 L2087.8 150.608 Q2083.84 149.775 2082.08 148.062 Q2080.32 146.326 2080.32 143.317 Q2080.32 139.659 2082.91 137.669 Q2085.51 135.678 2090.27 135.678 Q2092.64 135.678 2094.72 136.025 Q2096.8 136.372 2098.56 137.067 Z" fill="#000000" fill-rule="nonzero" fill-opacity="1" /><path clip-path="url(#clip490)" d="M2110.95 128.942 L2110.95 136.303 L2119.72 136.303 L2119.72 139.613 L2110.95 139.613 L2110.95 153.687 Q2110.95 156.858 2111.8 157.761 Q2112.68 158.664 2115.34 158.664 L2119.72 158.664 L2119.72 162.229 L2115.34 162.229 Q2110.41 162.229 2108.54 160.4 Q2106.66 158.548 2106.66 153.687 L2106.66 139.613 L2103.54 139.613 L2103.54 136.303 L2106.66 136.303 L2106.66 128.942 L2110.95 128.942 Z" fill="#000000" fill-rule="nonzero" fill-opacity="1" /><path clip-path="url(#clip490)" d="M2135.37 139.289 Q2131.94 139.289 2129.95 141.974 Q2127.96 144.636 2127.96 149.289 Q2127.96 153.942 2129.93 156.627 Q2131.92 159.289 2135.37 159.289 Q2138.77 159.289 2140.76 156.604 Q2142.75 153.918 2142.75 149.289 Q2142.75 144.682 2140.76 141.997 Q2138.77 139.289 2135.37 139.289 M2135.37 135.678 Q2140.92 135.678 2144.09 139.289 Q2147.26 142.9 2147.26 149.289 Q2147.26 155.655 2144.09 159.289 Q2140.92 162.9 2135.37 162.9 Q2129.79 162.9 2126.62 159.289 Q2123.47 155.655 2123.47 149.289 Q2123.47 142.9 2126.62 139.289 Q2129.79 135.678 2135.37 135.678 Z" fill="#000000" fill-rule="nonzero" fill-opacity="1" /><path clip-path="url(#clip490)" d="M2169.35 140.284 Q2168.63 139.868 2167.77 139.682 Q2166.94 139.474 2165.92 139.474 Q2162.31 139.474 2160.37 141.835 Q2158.45 144.173 2158.45 148.571 L2158.45 162.229 L2154.16 162.229 L2154.16 136.303 L2158.45 136.303 L2158.45 140.331 Q2159.79 137.969 2161.94 136.835 Q2164.09 135.678 2167.17 135.678 Q2167.61 135.678 2168.14 135.747 Q2168.68 135.794 2169.32 135.909 L2169.35 140.284 Z" fill="#000000" fill-rule="nonzero" fill-opacity="1" /><path clip-path="url(#clip490)" d="M2185.6 149.196 Q2180.44 149.196 2178.45 150.377 Q2176.45 151.557 2176.45 154.405 Q2176.45 156.673 2177.94 158.016 Q2179.44 159.335 2182.01 159.335 Q2185.55 159.335 2187.68 156.835 Q2189.83 154.312 2189.83 150.145 L2189.83 149.196 L2185.6 149.196 M2194.09 147.437 L2194.09 162.229 L2189.83 162.229 L2189.83 158.293 Q2188.38 160.655 2186.2 161.789 Q2184.02 162.9 2180.88 162.9 Q2176.89 162.9 2174.53 160.678 Q2172.2 158.432 2172.2 154.682 Q2172.2 150.307 2175.11 148.085 Q2178.05 145.863 2183.86 145.863 L2189.83 145.863 L2189.83 145.446 Q2189.83 142.507 2187.89 140.909 Q2185.97 139.289 2182.47 139.289 Q2180.25 139.289 2178.14 139.821 Q2176.04 140.354 2174.09 141.419 L2174.09 137.483 Q2176.43 136.581 2178.63 136.141 Q2180.83 135.678 2182.91 135.678 Q2188.54 135.678 2191.32 138.594 Q2194.09 141.511 2194.09 147.437 Z" fill="#000000" fill-rule="nonzero" fill-opacity="1" /><path clip-path="url(#clip490)" d="M2219.93 148.965 Q2219.93 144.335 2218.01 141.789 Q2216.11 139.243 2212.66 139.243 Q2209.23 139.243 2207.31 141.789 Q2205.41 144.335 2205.41 148.965 Q2205.41 153.571 2207.31 156.118 Q2209.23 158.664 2212.66 158.664 Q2216.11 158.664 2218.01 156.118 Q2219.93 153.571 2219.93 148.965 M2224.19 159.011 Q2224.19 165.631 2221.25 168.849 Q2218.31 172.09 2212.24 172.09 Q2210 172.09 2208.01 171.742 Q2206.01 171.418 2204.14 170.724 L2204.14 166.58 Q2206.01 167.599 2207.84 168.085 Q2209.67 168.571 2211.57 168.571 Q2215.76 168.571 2217.84 166.372 Q2219.93 164.196 2219.93 159.775 L2219.93 157.668 Q2218.61 159.96 2216.55 161.094 Q2214.49 162.229 2211.62 162.229 Q2206.85 162.229 2203.93 158.594 Q2201.01 154.96 2201.01 148.965 Q2201.01 142.946 2203.93 139.312 Q2206.85 135.678 2211.62 135.678 Q2214.49 135.678 2216.55 136.812 Q2218.61 137.946 2219.93 140.238 L2219.93 136.303 L2224.19 136.303 L2224.19 159.011 Z" fill="#000000" fill-rule="nonzero" fill-opacity="1" /><path clip-path="url(#clip490)" d="M2255.13 148.201 L2255.13 150.284 L2235.55 150.284 Q2235.83 154.682 2238.19 156.997 Q2240.57 159.289 2244.81 159.289 Q2247.26 159.289 2249.56 158.687 Q2251.87 158.085 2254.14 156.881 L2254.14 160.909 Q2251.85 161.881 2249.44 162.391 Q2247.03 162.9 2244.56 162.9 Q2238.35 162.9 2234.72 159.289 Q2231.11 155.678 2231.11 149.52 Q2231.11 143.155 2234.53 139.428 Q2237.98 135.678 2243.82 135.678 Q2249.05 135.678 2252.08 139.057 Q2255.13 142.414 2255.13 148.201 M2250.88 146.951 Q2250.83 143.456 2248.91 141.372 Q2247.01 139.289 2243.86 139.289 Q2240.3 139.289 2238.14 141.303 Q2236.01 143.317 2235.69 146.974 L2250.88 146.951 Z" fill="#000000" fill-rule="nonzero" fill-opacity="1" /><polyline clip-path="url(#clip490)" style="stroke:#e26f46; stroke-linecap:round; stroke-linejoin:round; stroke-width:4; stroke-opacity:1; fill:none" points="1824.9,196.789 1971.33,196.789 "/>
<path clip-path="url(#clip490)" d="M1995.74 188.143 L2000.25 188.143 L2008.35 209.902 L2016.46 188.143 L2020.97 188.143 L2011.25 214.069 L2005.46 214.069 L1995.74 188.143 Z" fill="#000000" fill-rule="nonzero" fill-opacity="1" /><path clip-path="url(#clip490)" d="M2027.5 179.509 L2045.85 179.509 L2045.85 183.444 L2031.78 183.444 L2031.78 191.916 Q2032.8 191.569 2033.82 191.407 Q2034.83 191.222 2035.85 191.222 Q2041.64 191.222 2045.02 194.393 Q2048.4 197.564 2048.4 202.981 Q2048.4 208.559 2044.93 211.661 Q2041.46 214.74 2035.14 214.74 Q2032.96 214.74 2030.69 214.37 Q2028.45 213.999 2026.04 213.258 L2026.04 208.559 Q2028.12 209.694 2030.34 210.249 Q2032.57 210.805 2035.04 210.805 Q2039.05 210.805 2041.39 208.698 Q2043.72 206.592 2043.72 202.981 Q2043.72 199.37 2041.39 197.263 Q2039.05 195.157 2035.04 195.157 Q2033.17 195.157 2031.29 195.573 Q2029.44 195.99 2027.5 196.87 L2027.5 179.509 Z" fill="#000000" fill-rule="nonzero" fill-opacity="1" /><path clip-path="url(#clip490)" d="M2066.27 197.425 L2066.27 204.647 L2074.39 204.647 L2074.39 206.846 L2066.27 206.846 L2066.27 214.069 L2063.84 214.069 L2063.84 206.846 L2055.71 206.846 L2055.71 204.647 L2063.84 204.647 L2063.84 197.425 L2066.27 197.425 Z" fill="#000000" fill-rule="nonzero" fill-opacity="1" /><path clip-path="url(#clip490)" d="M2098.56 188.907 L2098.56 192.934 Q2096.76 192.009 2094.81 191.546 Q2092.87 191.083 2090.78 191.083 Q2087.61 191.083 2086.02 192.055 Q2084.44 193.027 2084.44 194.971 Q2084.44 196.453 2085.58 197.309 Q2086.71 198.143 2090.14 198.907 L2091.59 199.231 Q2096.13 200.203 2098.03 201.985 Q2099.95 203.745 2099.95 206.916 Q2099.95 210.527 2097.08 212.633 Q2094.23 214.74 2089.23 214.74 Q2087.15 214.74 2084.88 214.323 Q2082.64 213.93 2080.14 213.12 L2080.14 208.721 Q2082.5 209.948 2084.79 210.573 Q2087.08 211.175 2089.33 211.175 Q2092.33 211.175 2093.95 210.157 Q2095.58 209.115 2095.58 207.24 Q2095.58 205.504 2094.39 204.578 Q2093.24 203.652 2089.28 202.796 L2087.8 202.448 Q2083.84 201.615 2082.08 199.902 Q2080.32 198.166 2080.32 195.157 Q2080.32 191.499 2082.91 189.509 Q2085.51 187.518 2090.27 187.518 Q2092.64 187.518 2094.72 187.865 Q2096.8 188.212 2098.56 188.907 Z" fill="#000000" fill-rule="nonzero" fill-opacity="1" /><path clip-path="url(#clip490)" d="M2110.95 180.782 L2110.95 188.143 L2119.72 188.143 L2119.72 191.453 L2110.95 191.453 L2110.95 205.527 Q2110.95 208.698 2111.8 209.601 Q2112.68 210.504 2115.34 210.504 L2119.72 210.504 L2119.72 214.069 L2115.34 214.069 Q2110.41 214.069 2108.54 212.24 Q2106.66 210.388 2106.66 205.527 L2106.66 191.453 L2103.54 191.453 L2103.54 188.143 L2106.66 188.143 L2106.66 180.782 L2110.95 180.782 Z" fill="#000000" fill-rule="nonzero" fill-opacity="1" /><path clip-path="url(#clip490)" d="M2135.37 191.129 Q2131.94 191.129 2129.95 193.814 Q2127.96 196.476 2127.96 201.129 Q2127.96 205.782 2129.93 208.467 Q2131.92 211.129 2135.37 211.129 Q2138.77 211.129 2140.76 208.444 Q2142.75 205.758 2142.75 201.129 Q2142.75 196.522 2140.76 193.837 Q2138.77 191.129 2135.37 191.129 M2135.37 187.518 Q2140.92 187.518 2144.09 191.129 Q2147.26 194.74 2147.26 201.129 Q2147.26 207.495 2144.09 211.129 Q2140.92 214.74 2135.37 214.74 Q2129.79 214.74 2126.62 211.129 Q2123.47 207.495 2123.47 201.129 Q2123.47 194.74 2126.62 191.129 Q2129.79 187.518 2135.37 187.518 Z" fill="#000000" fill-rule="nonzero" fill-opacity="1" /><path clip-path="url(#clip490)" d="M2169.35 192.124 Q2168.63 191.708 2167.77 191.522 Q2166.94 191.314 2165.92 191.314 Q2162.31 191.314 2160.37 193.675 Q2158.45 196.013 2158.45 200.411 L2158.45 214.069 L2154.16 214.069 L2154.16 188.143 L2158.45 188.143 L2158.45 192.171 Q2159.79 189.809 2161.94 188.675 Q2164.09 187.518 2167.17 187.518 Q2167.61 187.518 2168.14 187.587 Q2168.68 187.634 2169.32 187.749 L2169.35 192.124 Z" fill="#000000" fill-rule="nonzero" fill-opacity="1" /><path clip-path="url(#clip490)" d="M2185.6 201.036 Q2180.44 201.036 2178.45 202.217 Q2176.45 203.397 2176.45 206.245 Q2176.45 208.513 2177.94 209.856 Q2179.44 211.175 2182.01 211.175 Q2185.55 211.175 2187.68 208.675 Q2189.83 206.152 2189.83 201.985 L2189.83 201.036 L2185.6 201.036 M2194.09 199.277 L2194.09 214.069 L2189.83 214.069 L2189.83 210.133 Q2188.38 212.495 2186.2 213.629 Q2184.02 214.74 2180.88 214.74 Q2176.89 214.74 2174.53 212.518 Q2172.2 210.272 2172.2 206.522 Q2172.2 202.147 2175.11 199.925 Q2178.05 197.703 2183.86 197.703 L2189.83 197.703 L2189.83 197.286 Q2189.83 194.347 2187.89 192.749 Q2185.97 191.129 2182.47 191.129 Q2180.25 191.129 2178.14 191.661 Q2176.04 192.194 2174.09 193.259 L2174.09 189.323 Q2176.43 188.421 2178.63 187.981 Q2180.83 187.518 2182.91 187.518 Q2188.54 187.518 2191.32 190.434 Q2194.09 193.351 2194.09 199.277 Z" fill="#000000" fill-rule="nonzero" fill-opacity="1" /><path clip-path="url(#clip490)" d="M2219.93 200.805 Q2219.93 196.175 2218.01 193.629 Q2216.11 191.083 2212.66 191.083 Q2209.23 191.083 2207.31 193.629 Q2205.41 196.175 2205.41 200.805 Q2205.41 205.411 2207.31 207.958 Q2209.23 210.504 2212.66 210.504 Q2216.11 210.504 2218.01 207.958 Q2219.93 205.411 2219.93 200.805 M2224.19 210.851 Q2224.19 217.471 2221.25 220.689 Q2218.31 223.93 2212.24 223.93 Q2210 223.93 2208.01 223.582 Q2206.01 223.258 2204.14 222.564 L2204.14 218.42 Q2206.01 219.439 2207.84 219.925 Q2209.67 220.411 2211.57 220.411 Q2215.76 220.411 2217.84 218.212 Q2219.93 216.036 2219.93 211.615 L2219.93 209.508 Q2218.61 211.8 2216.55 212.934 Q2214.49 214.069 2211.62 214.069 Q2206.85 214.069 2203.93 210.434 Q2201.01 206.8 2201.01 200.805 Q2201.01 194.786 2203.93 191.152 Q2206.85 187.518 2211.62 187.518 Q2214.49 187.518 2216.55 188.652 Q2218.61 189.786 2219.93 192.078 L2219.93 188.143 L2224.19 188.143 L2224.19 210.851 Z" fill="#000000" fill-rule="nonzero" fill-opacity="1" /><path clip-path="url(#clip490)" d="M2255.13 200.041 L2255.13 202.124 L2235.55 202.124 Q2235.83 206.522 2238.19 208.837 Q2240.57 211.129 2244.81 211.129 Q2247.26 211.129 2249.56 210.527 Q2251.87 209.925 2254.14 208.721 L2254.14 212.749 Q2251.85 213.721 2249.44 214.231 Q2247.03 214.74 2244.56 214.74 Q2238.35 214.74 2234.72 211.129 Q2231.11 207.518 2231.11 201.36 Q2231.11 194.995 2234.53 191.268 Q2237.98 187.518 2243.82 187.518 Q2249.05 187.518 2252.08 190.897 Q2255.13 194.254 2255.13 200.041 M2250.88 198.791 Q2250.83 195.296 2248.91 193.212 Q2247.01 191.129 2243.86 191.129 Q2240.3 191.129 2238.14 193.143 Q2236.01 195.157 2235.69 198.814 L2250.88 198.791 Z" fill="#000000" fill-rule="nonzero" fill-opacity="1" /></svg>
