<?xml version="1.0" encoding="utf-8"?>
<svg xmlns="http://www.w3.org/2000/svg" xmlns:xlink="http://www.w3.org/1999/xlink" width="600" height="400" viewBox="0 0 2400 1600">
<defs>
  <clipPath id="clip660">
    <rect x="0" y="0" width="2400" height="1600"/>
  </clipPath>
</defs>
<path clip-path="url(#clip660)" d="M0 1600 L2400 1600 L2400 0 L0 0  Z" fill="#ffffff" fill-rule="evenodd" fill-opacity="1"/>
<defs>
  <clipPath id="clip661">
    <rect x="480" y="0" width="1681" height="1600"/>
  </clipPath>
</defs>
<path clip-path="url(#clip660)" d="M194.422 1423.18 L2352.76 1423.18 L2352.76 47.2441 L194.422 47.2441  Z" fill="#ffffff" fill-rule="evenodd" fill-opacity="1"/>
<defs>
  <clipPath id="clip662">
    <rect x="194" y="47" width="2159" height="1377"/>
  </clipPath>
</defs>
<polyline clip-path="url(#clip662)" style="stroke:#000000; stroke-linecap:round; stroke-linejoin:round; stroke-width:2; stroke-opacity:0.1; fill:none" points="194.422,1423.18 194.422,47.2441 "/>
<polyline clip-path="url(#clip662)" style="stroke:#000000; stroke-linecap:round; stroke-linejoin:round; stroke-width:2; stroke-opacity:0.1; fill:none" points="734.006,1423.18 734.006,47.2441 "/>
<polyline clip-path="url(#clip662)" style="stroke:#000000; stroke-linecap:round; stroke-linejoin:round; stroke-width:2; stroke-opacity:0.1; fill:none" points="1273.59,1423.18 1273.59,47.2441 "/>
<polyline clip-path="url(#clip662)" style="stroke:#000000; stroke-linecap:round; stroke-linejoin:round; stroke-width:2; stroke-opacity:0.1; fill:none" points="1813.17,1423.18 1813.17,47.2441 "/>
<polyline clip-path="url(#clip662)" style="stroke:#000000; stroke-linecap:round; stroke-linejoin:round; stroke-width:2; stroke-opacity:0.1; fill:none" points="2352.76,1423.18 2352.76,47.2441 "/>
<polyline clip-path="url(#clip662)" style="stroke:#000000; stroke-linecap:round; stroke-linejoin:round; stroke-width:2; stroke-opacity:0.1; fill:none" points="194.422,1287.07 2352.76,1287.07 "/>
<polyline clip-path="url(#clip662)" style="stroke:#000000; stroke-linecap:round; stroke-linejoin:round; stroke-width:2; stroke-opacity:0.1; fill:none" points="194.422,1005 2352.76,1005 "/>
<polyline clip-path="url(#clip662)" style="stroke:#000000; stroke-linecap:round; stroke-linejoin:round; stroke-width:2; stroke-opacity:0.1; fill:none" points="194.422,722.93 2352.76,722.93 "/>
<polyline clip-path="url(#clip662)" style="stroke:#000000; stroke-linecap:round; stroke-linejoin:round; stroke-width:2; stroke-opacity:0.1; fill:none" points="194.422,440.858 2352.76,440.858 "/>
<polyline clip-path="url(#clip662)" style="stroke:#000000; stroke-linecap:round; stroke-linejoin:round; stroke-width:2; stroke-opacity:0.1; fill:none" points="194.422,158.786 2352.76,158.786 "/>
<polyline clip-path="url(#clip660)" style="stroke:#000000; stroke-linecap:round; stroke-linejoin:round; stroke-width:4; stroke-opacity:1; fill:none" points="194.422,1423.18 2352.76,1423.18 "/>
<polyline clip-path="url(#clip660)" style="stroke:#000000; stroke-linecap:round; stroke-linejoin:round; stroke-width:4; stroke-opacity:1; fill:none" points="194.422,1423.18 194.422,1404.28 "/>
<polyline clip-path="url(#clip660)" style="stroke:#000000; stroke-linecap:round; stroke-linejoin:round; stroke-width:4; stroke-opacity:1; fill:none" points="734.006,1423.18 734.006,1404.28 "/>
<polyline clip-path="url(#clip660)" style="stroke:#000000; stroke-linecap:round; stroke-linejoin:round; stroke-width:4; stroke-opacity:1; fill:none" points="1273.59,1423.18 1273.59,1404.28 "/>
<polyline clip-path="url(#clip660)" style="stroke:#000000; stroke-linecap:round; stroke-linejoin:round; stroke-width:4; stroke-opacity:1; fill:none" points="1813.17,1423.18 1813.17,1404.28 "/>
<polyline clip-path="url(#clip660)" style="stroke:#000000; stroke-linecap:round; stroke-linejoin:round; stroke-width:4; stroke-opacity:1; fill:none" points="2352.76,1423.18 2352.76,1404.28 "/>
<path clip-path="url(#clip660)" d="M171.806 1454.1 Q168.195 1454.1 166.367 1457.66 Q164.561 1461.2 164.561 1468.33 Q164.561 1475.44 166.367 1479.01 Q168.195 1482.55 171.806 1482.55 Q175.441 1482.55 177.246 1479.01 Q179.075 1475.44 179.075 1468.33 Q179.075 1461.2 177.246 1457.66 Q175.441 1454.1 171.806 1454.1 M171.806 1450.39 Q177.617 1450.39 180.672 1455 Q183.751 1459.58 183.751 1468.33 Q183.751 1477.06 180.672 1481.67 Q177.617 1486.25 171.806 1486.25 Q165.996 1486.25 162.918 1481.67 Q159.862 1477.06 159.862 1468.33 Q159.862 1459.58 162.918 1455 Q165.996 1450.39 171.806 1450.39 Z" fill="#000000" fill-rule="nonzero" fill-opacity="1" /><path clip-path="url(#clip660)" d="M191.968 1479.7 L196.853 1479.7 L196.853 1485.58 L191.968 1485.58 L191.968 1479.7 Z" fill="#000000" fill-rule="nonzero" fill-opacity="1" /><path clip-path="url(#clip660)" d="M217.038 1454.1 Q213.427 1454.1 211.598 1457.66 Q209.792 1461.2 209.792 1468.33 Q209.792 1475.44 211.598 1479.01 Q213.427 1482.55 217.038 1482.55 Q220.672 1482.55 222.478 1479.01 Q224.306 1475.44 224.306 1468.33 Q224.306 1461.2 222.478 1457.66 Q220.672 1454.1 217.038 1454.1 M217.038 1450.39 Q222.848 1450.39 225.903 1455 Q228.982 1459.58 228.982 1468.33 Q228.982 1477.06 225.903 1481.67 Q222.848 1486.25 217.038 1486.25 Q211.228 1486.25 208.149 1481.67 Q205.093 1477.06 205.093 1468.33 Q205.093 1459.58 208.149 1455 Q211.228 1450.39 217.038 1450.39 Z" fill="#000000" fill-rule="nonzero" fill-opacity="1" /><path clip-path="url(#clip660)" d="M711.888 1454.1 Q708.277 1454.1 706.448 1457.66 Q704.642 1461.2 704.642 1468.33 Q704.642 1475.44 706.448 1479.01 Q708.277 1482.55 711.888 1482.55 Q715.522 1482.55 717.327 1479.01 Q719.156 1475.44 719.156 1468.33 Q719.156 1461.2 717.327 1457.66 Q715.522 1454.1 711.888 1454.1 M711.888 1450.39 Q717.698 1450.39 720.753 1455 Q723.832 1459.58 723.832 1468.33 Q723.832 1477.06 720.753 1481.67 Q717.698 1486.25 711.888 1486.25 Q706.077 1486.25 702.999 1481.67 Q699.943 1477.06 699.943 1468.33 Q699.943 1459.58 702.999 1455 Q706.077 1450.39 711.888 1450.39 Z" fill="#000000" fill-rule="nonzero" fill-opacity="1" /><path clip-path="url(#clip660)" d="M732.05 1479.7 L736.934 1479.7 L736.934 1485.58 L732.05 1485.58 L732.05 1479.7 Z" fill="#000000" fill-rule="nonzero" fill-opacity="1" /><path clip-path="url(#clip660)" d="M747.165 1451.02 L765.522 1451.02 L765.522 1454.96 L751.448 1454.96 L751.448 1463.43 Q752.466 1463.08 753.485 1462.92 Q754.503 1462.73 755.522 1462.73 Q761.309 1462.73 764.688 1465.9 Q768.068 1469.08 768.068 1474.49 Q768.068 1480.07 764.596 1483.17 Q761.123 1486.25 754.804 1486.25 Q752.628 1486.25 750.36 1485.88 Q748.114 1485.51 745.707 1484.77 L745.707 1480.07 Q747.79 1481.2 750.012 1481.76 Q752.235 1482.32 754.711 1482.32 Q758.716 1482.32 761.054 1480.21 Q763.392 1478.1 763.392 1474.49 Q763.392 1470.88 761.054 1468.77 Q758.716 1466.67 754.711 1466.67 Q752.836 1466.67 750.961 1467.08 Q749.11 1467.5 747.165 1468.38 L747.165 1451.02 Z" fill="#000000" fill-rule="nonzero" fill-opacity="1" /><path clip-path="url(#clip660)" d="M1240.74 1481.64 L1248.38 1481.64 L1248.38 1455.28 L1240.07 1456.95 L1240.07 1452.69 L1248.33 1451.02 L1253.01 1451.02 L1253.01 1481.64 L1260.65 1481.64 L1260.65 1485.58 L1240.74 1485.58 L1240.74 1481.64 Z" fill="#000000" fill-rule="nonzero" fill-opacity="1" /><path clip-path="url(#clip660)" d="M1270.09 1479.7 L1274.98 1479.7 L1274.98 1485.58 L1270.09 1485.58 L1270.09 1479.7 Z" fill="#000000" fill-rule="nonzero" fill-opacity="1" /><path clip-path="url(#clip660)" d="M1295.16 1454.1 Q1291.55 1454.1 1289.72 1457.66 Q1287.92 1461.2 1287.92 1468.33 Q1287.92 1475.44 1289.72 1479.01 Q1291.55 1482.55 1295.16 1482.55 Q1298.8 1482.55 1300.6 1479.01 Q1302.43 1475.44 1302.43 1468.33 Q1302.43 1461.2 1300.6 1457.66 Q1298.8 1454.1 1295.16 1454.1 M1295.16 1450.39 Q1300.97 1450.39 1304.03 1455 Q1307.11 1459.58 1307.11 1468.33 Q1307.11 1477.06 1304.03 1481.67 Q1300.97 1486.25 1295.16 1486.25 Q1289.35 1486.25 1286.27 1481.67 Q1283.22 1477.06 1283.22 1468.33 Q1283.22 1459.58 1286.27 1455 Q1289.35 1450.39 1295.16 1450.39 Z" fill="#000000" fill-rule="nonzero" fill-opacity="1" /><path clip-path="url(#clip660)" d="M1780.82 1481.64 L1788.46 1481.64 L1788.46 1455.28 L1780.15 1456.95 L1780.15 1452.69 L1788.42 1451.02 L1793.09 1451.02 L1793.09 1481.64 L1800.73 1481.64 L1800.73 1485.58 L1780.82 1485.58 L1780.82 1481.64 Z" fill="#000000" fill-rule="nonzero" fill-opacity="1" /><path clip-path="url(#clip660)" d="M1810.17 1479.7 L1815.06 1479.7 L1815.06 1485.58 L1810.17 1485.58 L1810.17 1479.7 Z" fill="#000000" fill-rule="nonzero" fill-opacity="1" /><path clip-path="url(#clip660)" d="M1825.29 1451.02 L1843.65 1451.02 L1843.65 1454.96 L1829.57 1454.96 L1829.57 1463.43 Q1830.59 1463.08 1831.61 1462.92 Q1832.63 1462.73 1833.65 1462.73 Q1839.43 1462.73 1842.81 1465.9 Q1846.19 1469.08 1846.19 1474.49 Q1846.19 1480.07 1842.72 1483.17 Q1839.25 1486.25 1832.93 1486.25 Q1830.75 1486.25 1828.48 1485.88 Q1826.24 1485.51 1823.83 1484.77 L1823.83 1480.07 Q1825.92 1481.2 1828.14 1481.76 Q1830.36 1482.32 1832.84 1482.32 Q1836.84 1482.32 1839.18 1480.21 Q1841.52 1478.1 1841.52 1474.49 Q1841.52 1470.88 1839.18 1468.77 Q1836.84 1466.67 1832.84 1466.67 Q1830.96 1466.67 1829.09 1467.08 Q1827.23 1467.5 1825.29 1468.38 L1825.29 1451.02 Z" fill="#000000" fill-rule="nonzero" fill-opacity="1" /><path clip-path="url(#clip660)" d="M2323.99 1481.64 L2340.31 1481.64 L2340.31 1485.58 L2318.37 1485.58 L2318.37 1481.64 Q2321.03 1478.89 2325.61 1474.26 Q2330.22 1469.61 2331.4 1468.27 Q2333.65 1465.74 2334.53 1464.01 Q2335.43 1462.25 2335.43 1460.56 Q2335.43 1457.8 2333.49 1456.07 Q2331.56 1454.33 2328.46 1454.33 Q2326.26 1454.33 2323.81 1455.09 Q2321.38 1455.86 2318.6 1457.41 L2318.6 1452.69 Q2321.43 1451.55 2323.88 1450.97 Q2326.33 1450.39 2328.37 1450.39 Q2333.74 1450.39 2336.93 1453.08 Q2340.13 1455.77 2340.13 1460.26 Q2340.13 1462.39 2339.32 1464.31 Q2338.53 1466.2 2336.42 1468.8 Q2335.85 1469.47 2332.74 1472.69 Q2329.64 1475.88 2323.99 1481.64 Z" fill="#000000" fill-rule="nonzero" fill-opacity="1" /><path clip-path="url(#clip660)" d="M2350.13 1479.7 L2355.01 1479.7 L2355.01 1485.58 L2350.13 1485.58 L2350.13 1479.7 Z" fill="#000000" fill-rule="nonzero" fill-opacity="1" /><path clip-path="url(#clip660)" d="M2375.2 1454.1 Q2371.59 1454.1 2369.76 1457.66 Q2367.95 1461.2 2367.95 1468.33 Q2367.95 1475.44 2369.76 1479.01 Q2371.59 1482.55 2375.2 1482.55 Q2378.83 1482.55 2380.64 1479.01 Q2382.47 1475.44 2382.47 1468.33 Q2382.47 1461.2 2380.64 1457.66 Q2378.83 1454.1 2375.2 1454.1 M2375.2 1450.39 Q2381.01 1450.39 2384.06 1455 Q2387.14 1459.58 2387.14 1468.33 Q2387.14 1477.06 2384.06 1481.67 Q2381.01 1486.25 2375.2 1486.25 Q2369.39 1486.25 2366.31 1481.67 Q2363.25 1477.06 2363.25 1468.33 Q2363.25 1459.58 2366.31 1455 Q2369.39 1450.39 2375.2 1450.39 Z" fill="#000000" fill-rule="nonzero" fill-opacity="1" /><path clip-path="url(#clip660)" d="M1272.65 1522.27 L1272.65 1532.4 L1284.71 1532.4 L1284.71 1536.95 L1272.65 1536.95 L1272.65 1556.3 Q1272.65 1560.66 1273.83 1561.9 Q1275.04 1563.14 1278.7 1563.14 L1284.71 1563.14 L1284.71 1568.04 L1278.7 1568.04 Q1271.92 1568.04 1269.34 1565.53 Q1266.76 1562.98 1266.76 1556.3 L1266.76 1536.95 L1262.46 1536.95 L1262.46 1532.4 L1266.76 1532.4 L1266.76 1522.27 L1272.65 1522.27 Z" fill="#000000" fill-rule="nonzero" fill-opacity="1" /><polyline clip-path="url(#clip660)" style="stroke:#000000; stroke-linecap:round; stroke-linejoin:round; stroke-width:4; stroke-opacity:1; fill:none" points="194.422,1423.18 194.422,47.2441 "/>
<polyline clip-path="url(#clip660)" style="stroke:#000000; stroke-linecap:round; stroke-linejoin:round; stroke-width:4; stroke-opacity:1; fill:none" points="194.422,1287.07 213.32,1287.07 "/>
<polyline clip-path="url(#clip660)" style="stroke:#000000; stroke-linecap:round; stroke-linejoin:round; stroke-width:4; stroke-opacity:1; fill:none" points="194.422,1005 213.32,1005 "/>
<polyline clip-path="url(#clip660)" style="stroke:#000000; stroke-linecap:round; stroke-linejoin:round; stroke-width:4; stroke-opacity:1; fill:none" points="194.422,722.93 213.32,722.93 "/>
<polyline clip-path="url(#clip660)" style="stroke:#000000; stroke-linecap:round; stroke-linejoin:round; stroke-width:4; stroke-opacity:1; fill:none" points="194.422,440.858 213.32,440.858 "/>
<polyline clip-path="url(#clip660)" style="stroke:#000000; stroke-linecap:round; stroke-linejoin:round; stroke-width:4; stroke-opacity:1; fill:none" points="194.422,158.786 213.32,158.786 "/>
<path clip-path="url(#clip660)" d="M51.3162 1287.53 L80.992 1287.53 L80.992 1291.46 L51.3162 1291.46 L51.3162 1287.53 Z" fill="#000000" fill-rule="nonzero" fill-opacity="1" /><path clip-path="url(#clip660)" d="M91.8947 1300.42 L99.5335 1300.42 L99.5335 1274.05 L91.2234 1275.72 L91.2234 1271.46 L99.4872 1269.79 L104.163 1269.79 L104.163 1300.42 L111.802 1300.42 L111.802 1304.35 L91.8947 1304.35 L91.8947 1300.42 Z" fill="#000000" fill-rule="nonzero" fill-opacity="1" /><path clip-path="url(#clip660)" d="M121.246 1298.47 L126.131 1298.47 L126.131 1304.35 L121.246 1304.35 L121.246 1298.47 Z" fill="#000000" fill-rule="nonzero" fill-opacity="1" /><path clip-path="url(#clip660)" d="M146.894 1285.21 Q143.746 1285.21 141.894 1287.36 Q140.066 1289.52 140.066 1293.27 Q140.066 1296.99 141.894 1299.17 Q143.746 1301.32 146.894 1301.32 Q150.043 1301.32 151.871 1299.17 Q153.723 1296.99 153.723 1293.27 Q153.723 1289.52 151.871 1287.36 Q150.043 1285.21 146.894 1285.21 M156.177 1270.56 L156.177 1274.82 Q154.417 1273.98 152.612 1273.54 Q150.83 1273.1 149.07 1273.1 Q144.441 1273.1 141.987 1276.23 Q139.556 1279.35 139.209 1285.67 Q140.575 1283.66 142.635 1282.59 Q144.695 1281.51 147.172 1281.51 Q152.38 1281.51 155.39 1284.68 Q158.422 1287.83 158.422 1293.27 Q158.422 1298.59 155.274 1301.81 Q152.126 1305.03 146.894 1305.03 Q140.899 1305.03 137.728 1300.44 Q134.556 1295.84 134.556 1287.11 Q134.556 1278.91 138.445 1274.05 Q142.334 1269.17 148.885 1269.17 Q150.644 1269.17 152.427 1269.52 Q154.232 1269.86 156.177 1270.56 Z" fill="#000000" fill-rule="nonzero" fill-opacity="1" /><path clip-path="url(#clip660)" d="M52.4736 1005.45 L82.1494 1005.45 L82.1494 1009.39 L52.4736 1009.39 L52.4736 1005.45 Z" fill="#000000" fill-rule="nonzero" fill-opacity="1" /><path clip-path="url(#clip660)" d="M93.0521 1018.35 L100.691 1018.35 L100.691 991.981 L92.3808 993.648 L92.3808 989.389 L100.645 987.722 L105.321 987.722 L105.321 1018.35 L112.959 1018.35 L112.959 1022.28 L93.0521 1022.28 L93.0521 1018.35 Z" fill="#000000" fill-rule="nonzero" fill-opacity="1" /><path clip-path="url(#clip660)" d="M122.404 1016.4 L127.288 1016.4 L127.288 1022.28 L122.404 1022.28 L122.404 1016.4 Z" fill="#000000" fill-rule="nonzero" fill-opacity="1" /><path clip-path="url(#clip660)" d="M137.519 987.722 L155.876 987.722 L155.876 991.657 L141.802 991.657 L141.802 1000.13 Q142.82 999.782 143.839 999.62 Q144.857 999.435 145.876 999.435 Q151.663 999.435 155.042 1002.61 Q158.422 1005.78 158.422 1011.19 Q158.422 1016.77 154.95 1019.87 Q151.478 1022.95 145.158 1022.95 Q142.982 1022.95 140.714 1022.58 Q138.469 1022.21 136.061 1021.47 L136.061 1016.77 Q138.144 1017.91 140.367 1018.46 Q142.589 1019.02 145.066 1019.02 Q149.07 1019.02 151.408 1016.91 Q153.746 1014.81 153.746 1011.19 Q153.746 1007.58 151.408 1005.48 Q149.07 1003.37 145.066 1003.37 Q143.191 1003.37 141.316 1003.79 Q139.464 1004.2 137.519 1005.08 L137.519 987.722 Z" fill="#000000" fill-rule="nonzero" fill-opacity="1" /><path clip-path="url(#clip660)" d="M50.9921 723.381 L80.6679 723.381 L80.6679 727.317 L50.9921 727.317 L50.9921 723.381 Z" fill="#000000" fill-rule="nonzero" fill-opacity="1" /><path clip-path="url(#clip660)" d="M91.5706 736.275 L99.2095 736.275 L99.2095 709.909 L90.8993 711.576 L90.8993 707.317 L99.1632 705.65 L103.839 705.65 L103.839 736.275 L111.478 736.275 L111.478 740.21 L91.5706 740.21 L91.5706 736.275 Z" fill="#000000" fill-rule="nonzero" fill-opacity="1" /><path clip-path="url(#clip660)" d="M120.922 734.33 L125.807 734.33 L125.807 740.21 L120.922 740.21 L120.922 734.33 Z" fill="#000000" fill-rule="nonzero" fill-opacity="1" /><path clip-path="url(#clip660)" d="M148.839 709.724 L137.033 728.173 L148.839 728.173 L148.839 709.724 M147.612 705.65 L153.492 705.65 L153.492 728.173 L158.422 728.173 L158.422 732.062 L153.492 732.062 L153.492 740.21 L148.839 740.21 L148.839 732.062 L133.237 732.062 L133.237 727.548 L147.612 705.65 Z" fill="#000000" fill-rule="nonzero" fill-opacity="1" /><path clip-path="url(#clip660)" d="M52.1264 441.309 L81.8021 441.309 L81.8021 445.244 L52.1264 445.244 L52.1264 441.309 Z" fill="#000000" fill-rule="nonzero" fill-opacity="1" /><path clip-path="url(#clip660)" d="M92.7049 454.203 L100.344 454.203 L100.344 427.837 L92.0336 429.504 L92.0336 425.245 L100.297 423.578 L104.973 423.578 L104.973 454.203 L112.612 454.203 L112.612 458.138 L92.7049 458.138 L92.7049 454.203 Z" fill="#000000" fill-rule="nonzero" fill-opacity="1" /><path clip-path="url(#clip660)" d="M122.057 452.258 L126.941 452.258 L126.941 458.138 L122.057 458.138 L122.057 452.258 Z" fill="#000000" fill-rule="nonzero" fill-opacity="1" /><path clip-path="url(#clip660)" d="M151.293 439.504 Q154.649 440.221 156.524 442.49 Q158.422 444.758 158.422 448.092 Q158.422 453.207 154.904 456.008 Q151.385 458.809 144.904 458.809 Q142.728 458.809 140.413 458.369 Q138.121 457.953 135.668 457.096 L135.668 452.582 Q137.612 453.717 139.927 454.295 Q142.242 454.874 144.765 454.874 Q149.163 454.874 151.455 453.138 Q153.769 451.402 153.769 448.092 Q153.769 445.036 151.617 443.323 Q149.487 441.587 145.668 441.587 L141.64 441.587 L141.64 437.745 L145.853 437.745 Q149.302 437.745 151.13 436.379 Q152.959 434.99 152.959 432.397 Q152.959 429.735 151.061 428.323 Q149.186 426.888 145.668 426.888 Q143.746 426.888 141.547 427.305 Q139.348 427.721 136.709 428.601 L136.709 424.434 Q139.371 423.694 141.686 423.323 Q144.024 422.953 146.084 422.953 Q151.408 422.953 154.51 425.383 Q157.612 427.791 157.612 431.911 Q157.612 434.782 155.968 436.772 Q154.325 438.74 151.293 439.504 Z" fill="#000000" fill-rule="nonzero" fill-opacity="1" /><path clip-path="url(#clip660)" d="M53.0754 159.237 L82.7512 159.237 L82.7512 163.172 L53.0754 163.172 L53.0754 159.237 Z" fill="#000000" fill-rule="nonzero" fill-opacity="1" /><path clip-path="url(#clip660)" d="M93.6539 172.131 L101.293 172.131 L101.293 145.765 L92.9826 147.432 L92.9826 143.173 L101.246 141.506 L105.922 141.506 L105.922 172.131 L113.561 172.131 L113.561 176.066 L93.6539 176.066 L93.6539 172.131 Z" fill="#000000" fill-rule="nonzero" fill-opacity="1" /><path clip-path="url(#clip660)" d="M123.006 170.186 L127.89 170.186 L127.89 176.066 L123.006 176.066 L123.006 170.186 Z" fill="#000000" fill-rule="nonzero" fill-opacity="1" /><path clip-path="url(#clip660)" d="M142.103 172.131 L158.422 172.131 L158.422 176.066 L136.478 176.066 L136.478 172.131 Q139.14 169.376 143.723 164.747 Q148.33 160.094 149.51 158.751 Q151.755 156.228 152.635 154.492 Q153.538 152.733 153.538 151.043 Q153.538 148.288 151.593 146.552 Q149.672 144.816 146.57 144.816 Q144.371 144.816 141.918 145.58 Q139.487 146.344 136.709 147.895 L136.709 143.173 Q139.533 142.038 141.987 141.46 Q144.441 140.881 146.478 140.881 Q151.848 140.881 155.042 143.566 Q158.237 146.251 158.237 150.742 Q158.237 152.872 157.427 154.793 Q156.64 156.691 154.533 159.284 Q153.955 159.955 150.853 163.172 Q147.751 166.367 142.103 172.131 Z" fill="#000000" fill-rule="nonzero" fill-opacity="1" /><polyline clip-path="url(#clip662)" style="stroke:#009af9; stroke-linecap:round; stroke-linejoin:round; stroke-width:4; stroke-opacity:1; fill:none" points="194.422,745.516 196.583,738.948 198.743,732.446 200.904,726.009 203.064,719.636 205.225,713.327 207.385,707.08 209.546,700.895 211.706,694.772 213.867,688.711 216.027,682.709 218.188,676.767 220.348,670.885 222.509,665.061 224.669,659.295 226.83,653.586 228.99,647.935 231.151,642.339 233.311,636.8 235.471,631.315 237.632,625.885 239.792,620.51 241.953,615.187 244.113,609.918 246.274,604.701 248.434,599.537 250.595,594.423 252.755,589.361 254.916,584.349 257.076,579.387 259.237,574.474 261.397,569.61 263.558,564.795 265.718,560.028 267.879,555.308 270.039,550.635 272.2,546.008 274.36,541.428 276.521,536.893 278.681,532.404 280.842,527.959 283.002,523.559 285.163,519.202 287.323,514.889 289.484,510.619 291.644,506.391 293.805,502.205 295.965,498.062 298.126,493.959 300.286,489.897 302.447,485.876 304.607,481.895 306.768,477.953 308.928,474.051 311.089,470.188 313.249,466.363 315.41,462.576 317.57,458.827 319.731,455.115 321.891,451.44 324.052,447.802 326.212,444.2 328.373,440.634 330.533,437.103 332.694,433.608 334.854,430.147 337.015,426.721 339.175,423.329 341.336,419.97 343.496,416.645 345.657,413.353 347.817,410.094 349.978,406.868 352.138,403.673 354.299,400.511 356.459,397.379 358.62,394.28 360.78,391.21 362.941,388.172 365.101,385.164 367.262,382.186 369.422,379.237 371.583,376.318 373.743,373.428 375.904,370.567 378.064,367.734 380.225,364.929 382.385,362.153 384.546,359.404 386.706,356.682 388.867,353.988 391.027,351.32 393.188,348.679 395.348,346.065 397.509,343.476 399.669,340.913 401.83,338.376 403.99,335.864 406.151,333.377 408.311,330.914 410.472,328.477 412.632,326.063 414.793,323.674 416.953,321.308 419.114,318.966 421.274,316.647 423.435,314.351 425.595,312.079 427.755,309.828 429.916,307.6 432.076,305.395 434.237,303.211 436.397,301.048 438.558,298.908 440.718,296.788 442.879,294.69 445.039,292.613 447.2,290.556 449.36,288.52 451.521,286.504 453.681,284.508 455.842,282.532 458.002,280.575 460.163,278.639 462.323,276.721 464.484,274.823 466.644,272.943 468.805,271.082 470.965,269.24 473.126,267.417 475.286,265.611 477.447,263.824 479.607,262.054 481.768,260.302 483.928,258.567 486.089,256.85 488.249,255.15 490.41,253.467 492.57,251.8 494.731,250.151 496.891,248.517 499.052,246.901 501.212,245.3 503.373,243.715 505.533,242.146 507.694,240.592 509.854,239.054 512.015,237.532 514.175,236.024 516.336,234.532 518.496,233.054 520.657,231.592 522.817,230.143 524.978,228.71 527.138,227.29 529.299,225.885 531.459,224.493 533.62,223.116 535.78,221.752 537.941,220.401 540.101,219.064 542.262,217.741 544.422,216.43 546.583,215.133 548.743,213.848 550.904,212.577 553.064,211.318 555.225,210.071 557.385,208.837 559.546,207.615 561.706,206.405 563.867,205.207 566.027,204.021 568.188,202.846 570.348,201.684 572.509,200.533 574.669,199.393 576.83,198.265 578.99,197.147 581.151,196.041 583.311,194.947 585.472,193.862 587.632,192.789 589.793,191.727 591.953,190.675 594.114,189.633 596.274,188.602 598.435,187.581 600.595,186.571 602.756,185.57 604.916,184.58 607.077,183.599 609.237,182.628 611.398,181.667 613.558,180.715 615.718,179.773 617.879,178.841 620.039,177.918 622.2,177.003 624.36,176.099 626.521,175.203 628.681,174.316 630.842,173.438 633.002,172.568 635.163,171.708 637.323,170.856 639.484,170.013 641.644,169.177 643.805,168.351 645.965,167.532 648.126,166.722 650.286,165.92 652.447,165.126 654.607,164.34 656.768,163.561 658.928,162.791 661.089,162.028 663.249,161.272 665.41,160.525 667.57,159.784 669.731,159.051 671.891,158.326 674.052,157.607 676.212,156.896 678.373,156.192 680.533,155.495 682.694,154.804 684.854,154.121 687.015,153.444 689.175,152.774 691.336,152.111 693.496,151.454 695.657,150.804 697.817,150.16 699.978,149.523 702.138,148.892 704.299,148.267 706.459,147.649 708.62,147.036 710.78,146.43 712.941,145.829 715.101,145.235 717.262,144.646 719.422,144.063 721.583,143.486 723.743,142.914 725.904,142.348 728.064,141.788 730.225,141.233 732.385,140.684 734.546,140.14 736.706,139.602 738.867,139.069 741.027,138.541 743.188,138.019 745.348,137.501 747.509,136.989 749.669,136.482 751.83,135.98 753.99,135.483 756.151,134.991 758.311,134.504 760.472,134.022 762.632,133.545 764.793,133.072 766.953,132.604 769.114,132.141 771.274,131.682 773.435,131.228 775.595,130.779 777.756,130.334 779.916,129.894 782.077,129.458 784.237,129.026 786.398,128.599 788.558,128.176 790.719,127.757 792.879,127.343 795.04,126.932 797.2,126.526 799.361,126.124 801.521,125.726 803.681,125.332 805.842,124.942 808.002,124.556 810.163,124.173 812.323,123.795 814.484,123.42 816.644,123.049 818.805,122.682 820.965,122.319 823.126,121.959 825.286,121.603 827.447,121.25 829.607,120.901 831.768,120.556 833.928,120.213 836.089,119.875 838.249,119.539 840.41,119.208 842.57,118.879 844.731,118.554 846.891,118.231 849.052,117.913 851.212,117.597 853.373,117.284 855.533,116.975 857.694,116.669 859.854,116.365 862.015,116.065 864.175,115.768 866.336,115.473 868.496,115.182 870.657,114.893 872.817,114.607 874.978,114.325 877.138,114.044 879.299,113.767 881.459,113.492 883.62,113.221 885.78,112.951 887.941,112.685 890.101,112.421 892.262,112.159 894.422,111.9 896.583,111.644 898.743,111.39 900.904,111.139 903.064,110.89 905.225,110.643 907.385,110.399 909.546,110.157 911.706,109.918 913.867,109.681 916.027,109.446 918.188,109.213 920.348,108.983 922.509,108.755 924.669,108.53 926.83,108.306 928.99,108.085 931.151,107.866 933.311,107.649 935.472,107.434 937.632,107.222 939.793,107.011 941.953,106.803 944.114,106.596 946.274,106.392 948.435,106.19 950.595,105.99 952.756,105.791 954.916,105.595 957.077,105.401 959.237,105.209 961.398,105.018 963.558,104.83 965.719,104.643 967.879,104.459 970.04,104.276 972.2,104.095 974.361,103.916 976.521,103.738 978.682,103.563 980.842,103.389 983.003,103.217 985.163,103.046 987.324,102.878 989.484,102.711 991.645,102.546 993.805,102.382 995.965,102.221 998.126,102.06 1000.29,101.902 1002.45,101.745 1004.61,101.59 1006.77,101.436 1008.93,101.284 1011.09,101.133 1013.25,100.984 1015.41,100.836 1017.57,100.69 1019.73,100.545 1021.89,100.402 1024.05,100.261 1026.21,100.12 1028.37,99.9816 1030.53,99.8442 1032.69,99.7081 1034.85,99.5735 1037.01,99.4402 1039.18,99.3083 1041.34,99.1777 1043.5,99.0485 1045.66,98.9205 1047.82,98.7939 1049.98,98.6685 1052.14,98.5444 1054.3,98.4215 1056.46,98.2999 1058.62,98.1795 1060.78,98.0603 1062.94,97.9423 1065.1,97.8255 1067.26,97.7099 1069.42,97.5954 1071.58,97.4821 1073.74,97.3698 1075.9,97.2587 1078.06,97.1488 1080.22,97.0399 1082.39,96.932 1084.55,96.8253 1086.71,96.7196 1088.87,96.6149 1091.03,96.5112 1093.19,96.4086 1095.35,96.307 1097.51,96.2064 1099.67,96.1067 1101.83,96.008 1103.99,95.9102 1106.15,95.8134 1108.31,95.7176 1110.47,95.6226 1112.63,95.5286 1114.79,95.4354 1116.95,95.3431 1119.11,95.2517 1121.27,95.1612 1123.43,95.0715 1125.6,94.9826 1127.76,94.8946 1129.92,94.8074 1132.08,94.721 1134.24,94.6355 1136.4,94.5507 1138.56,94.4668 1140.72,94.3837 1142.88,94.3014 1145.04,94.2198 1147.2,94.1391 1149.36,94.0591 1151.52,93.9799 1153.68,93.9015 1155.84,93.8238 1158,93.7469 1160.16,93.6707 1162.32,93.5953 1164.48,93.5206 1166.64,93.4467 1168.81,93.3735 1170.97,93.301 1173.13,93.2292 1175.29,93.1581 1177.45,93.0878 1179.61,93.0181 1181.77,92.9492 1183.93,92.8809 1186.09,92.8133 1188.25,92.7464 1190.41,92.6801 1192.57,92.6145 1194.73,92.5496 1196.89,92.4854 1199.05,92.4218 1201.21,92.3588 1203.37,92.2965 1205.53,92.2348 1207.69,92.1737 1209.85,92.1133 1212.01,92.0535 1214.18,91.9942 1216.34,91.9356 1218.5,91.8776 1220.66,91.8202 1222.82,91.7634 1224.98,91.7072 1227.14,91.6516 1229.3,91.5965 1231.46,91.542 1233.62,91.4881 1235.78,91.4347 1237.94,91.3819 1240.1,91.3296 1242.26,91.2779 1244.42,91.2267 1246.58,91.176 1248.74,91.1259 1250.9,91.0763 1253.06,91.0272 1255.22,90.9787 1257.39,90.9306 1259.55,90.883 1261.71,90.836 1263.87,90.7894 1266.03,90.7433 1268.19,90.6978 1270.35,90.6526 1272.51,90.608 1274.67,90.5638 1276.83,90.5201 1278.99,90.4768 1281.15,90.434 1283.31,90.3917 1285.47,90.3498 1287.63,90.3083 1289.79,90.2673 1291.95,90.2267 1294.11,90.1865 1296.27,90.1467 1298.43,90.1073 1300.6,90.0684 1302.76,90.0299 1304.92,89.9917 1307.08,89.954 1309.24,89.9166 1311.4,89.8796 1313.56,89.843 1315.72,89.8068 1317.88,89.771 1320.04,89.7355 1322.2,89.7004 1324.36,89.6656 1326.52,89.6312 1328.68,89.5971 1330.84,89.5634 1333,89.53 1335.16,89.497 1337.32,89.4643 1339.48,89.4319 1341.64,89.3998 1343.81,89.368 1345.97,89.3366 1348.13,89.3054 1350.29,89.2746 1352.45,89.244 1354.61,89.2138 1356.77,89.1838 1358.93,89.1541 1361.09,89.1247 1363.25,89.0956 1365.41,89.0667 1367.57,89.0381 1369.73,89.0098 1371.89,88.9817 1374.05,88.9539 1376.21,88.9263 1378.37,88.8989 1380.53,88.8718 1382.69,88.845 1384.85,88.8183 1387.01,88.7919 1389.18,88.7658 1391.34,88.7398 1393.5,88.714 1395.66,88.6885 1397.82,88.6632 1399.98,88.6381 1402.14,88.6133 1404.3,88.5887 1406.46,88.5643 1408.62,88.5401 1410.78,88.5161 1412.94,88.4924 1415.1,88.4689 1417.26,88.4456 1419.42,88.4225 1421.58,88.3996 1423.74,88.377 1425.9,88.3545 1428.06,88.3323 1430.22,88.3102 1432.39,88.2884 1434.55,88.2668 1436.71,88.2454 1438.87,88.2242 1441.03,88.2032 1443.19,88.1824 1445.35,88.1619 1447.51,88.1415 1449.67,88.1213 1451.83,88.1013 1453.99,88.0815 1456.15,88.0619 1458.31,88.0425 1460.47,88.0233 1462.63,88.0042 1464.79,87.9854 1466.95,87.9668 1469.11,87.9483 1471.27,87.93 1473.43,87.912 1475.6,87.8941 1477.76,87.8763 1479.92,87.8588 1482.08,87.8414 1484.24,87.8243 1486.4,87.8073 1488.56,87.7904 1490.72,87.7738 1492.88,87.7573 1495.04,87.741 1497.2,87.7249 1499.36,87.7089 1501.52,87.6931 1503.68,87.6775 1505.84,87.662 1508,87.6467 1510.16,87.6316 1512.32,87.6166 1514.48,87.6018 1516.64,87.5871 1518.81,87.5726 1520.97,87.5583 1523.13,87.5441 1525.29,87.5301 1527.45,87.5162 1529.61,87.5025 1531.77,87.4889 1533.93,87.4755 1536.09,87.4622 1538.25,87.4491 1540.41,87.4361 1542.57,87.4232 1544.73,87.4105 1546.89,87.398 1549.05,87.3855 1551.21,87.3733 1553.37,87.3611 1555.53,87.3491 1557.69,87.3372 1559.85,87.3255 1562.01,87.3138 1564.18,87.3024 1566.34,87.291 1568.5,87.2798 1570.66,87.2687 1572.82,87.2577 1574.98,87.2468 1577.14,87.2361 1579.3,87.2255 1581.46,87.215 1583.62,87.2046 1585.78,87.1943 1587.94,87.1842 1590.1,87.1741 1592.26,87.1642 1594.42,87.1544 1596.58,87.1447 1598.74,87.1351 1600.9,87.1256 1603.06,87.1162 1605.22,87.1069 1607.39,87.0978 1609.55,87.0887 1611.71,87.0797 1613.87,87.0708 1616.03,87.062 1618.19,87.0533 1620.35,87.0447 1622.51,87.0362 1624.67,87.0278 1626.83,87.0195 1628.99,87.0113 1631.15,87.0031 1633.31,86.995 1635.47,86.9871 1637.63,86.9791 1639.79,86.9713 1641.95,86.9636 1644.11,86.9559 1646.27,86.9483 1648.43,86.9408 1650.6,86.9334 1652.76,86.926 1654.92,86.9187 1657.08,86.9115 1659.24,86.9043 1661.4,86.8972 1663.56,86.8902 1665.72,86.8832 1667.88,86.8763 1670.04,86.8695 1672.2,86.8627 1674.36,86.856 1676.52,86.8493 1678.68,86.8427 1680.84,86.8361 1683,86.8296 1685.16,86.8231 1687.32,86.8167 1689.48,86.8103 1691.64,86.804 1693.81,86.7977 1695.97,86.7915 1698.13,86.7853 1700.29,86.7791 1702.45,86.773 1704.61,86.7669 1706.77,86.7609 1708.93,86.7549 1711.09,86.7489 1713.25,86.7429 1715.41,86.7371 1717.57,86.7312 1719.73,86.7254 1721.89,86.7196 1724.05,86.7139 1726.21,86.7083 1728.37,86.7027 1730.53,86.6971 1732.69,86.6916 1734.85,86.6861 1737.02,86.6807 1739.18,86.6753 1741.34,86.6699 1743.5,86.6646 1745.66,86.6594 1747.82,86.6542 1749.98,86.649 1752.14,86.6439 1754.3,86.6389 1756.46,86.6338 1758.62,86.6289 1760.78,86.6239 1762.94,86.619 1765.1,86.6142 1767.26,86.6094 1769.42,86.6046 1771.58,86.5999 1773.74,86.5953 1775.9,86.5907 1778.06,86.5861 1780.22,86.5815 1782.39,86.577 1784.55,86.5726 1786.71,86.5682 1788.87,86.5638 1791.03,86.5595 1793.19,86.5552 1795.35,86.551 1797.51,86.5468 1799.67,86.5427 1801.83,86.5386 1803.99,86.5345 1806.15,86.5305 1808.31,86.5265 1810.47,86.5225 1812.63,86.5186 1814.79,86.5148 1816.95,86.511 1819.11,86.5072 1821.27,86.5035 1823.43,86.4998 1825.6,86.4961 1827.76,86.4925 1829.92,86.4889 1832.08,86.4854 1834.24,86.4819 1836.4,86.4784 1838.56,86.475 1840.72,86.4716 1842.88,86.4683 1845.04,86.465 1847.2,86.4617 1849.36,86.4585 1851.52,86.4553 1853.68,86.4521 1855.84,86.449 1858,86.4459 1860.16,86.4429 1862.32,86.4398 1864.48,86.4369 1866.64,86.4339 1868.81,86.431 1870.97,86.4282 1873.13,86.4253 1875.29,86.4225 1877.45,86.4198 1879.61,86.417 1881.77,86.4143 1883.93,86.4117 1886.09,86.409 1888.25,86.4064 1890.41,86.4039 1892.57,86.4013 1894.73,86.3988 1896.89,86.3964 1899.05,86.3939 1901.21,86.3915 1903.37,86.3892 1905.53,86.3868 1907.69,86.3845 1909.85,86.3822 1912.02,86.38 1914.18,86.3777 1916.34,86.3755 1918.5,86.3734 1920.66,86.3712 1922.82,86.3691 1924.98,86.3671 1927.14,86.365 1929.3,86.363 1931.46,86.361 1933.62,86.359 1935.78,86.3571 1937.94,86.3551 1940.1,86.3533 1942.26,86.3514 1944.42,86.3495 1946.58,86.3477 1948.74,86.3459 1950.9,86.3442 1953.06,86.3424 1955.22,86.3407 1957.39,86.339 1959.55,86.3373 1961.71,86.3356 1963.87,86.334 1966.03,86.3324 1968.19,86.3308 1970.35,86.3292 1972.51,86.3277 1974.67,86.3261 1976.83,86.3246 1978.99,86.3231 1981.15,86.3217 1983.31,86.3202 1985.47,86.3188 1987.63,86.3173 1989.79,86.3159 1991.95,86.3146 1994.11,86.3132 1996.27,86.3118 1998.43,86.3105 2000.6,86.3092 2002.76,86.3078 2004.92,86.3066 2007.08,86.3053 2009.24,86.304 2011.4,86.3027 2013.56,86.3015 2015.72,86.3003 2017.88,86.2991 2020.04,86.2978 2022.2,86.2966 2024.36,86.2955 2026.52,86.2943 2028.68,86.2931 2030.84,86.292 2033,86.2908 2035.16,86.2897 2037.32,86.2885 2039.48,86.2874 2041.64,86.2863 2043.81,86.2852 2045.97,86.2841 2048.13,86.2829 2050.29,86.2819 2052.45,86.2808 2054.61,86.2797 2056.77,86.2786 2058.93,86.2775 2061.09,86.2764 2063.25,86.2753 2065.41,86.2743 2067.57,86.2732 2069.73,86.2721 2071.89,86.271 2074.05,86.2699 2076.21,86.2689 2078.37,86.2678 2080.53,86.2667 2082.69,86.2656 2084.85,86.2645 2087.02,86.2634 2089.18,86.2624 2091.34,86.2613 2093.5,86.2602 2095.66,86.2591 2097.82,86.2581 2099.98,86.257 2102.14,86.256 2104.3,86.255 2106.46,86.254 2108.62,86.2529 2110.78,86.252 2112.94,86.251 2115.1,86.25 2117.26,86.249 2119.42,86.2481 2121.58,86.2471 2123.74,86.2462 2125.9,86.2453 2128.06,86.2443 2130.22,86.2434 2132.39,86.2425 2134.55,86.2416 2136.71,86.2407 2138.87,86.2399 2141.03,86.239 2143.19,86.2381 2145.35,86.2373 2147.51,86.2364 2149.67,86.2356 2151.83,86.2348 2153.99,86.234 2156.15,86.2332 2158.31,86.2324 2160.47,86.2316 2162.63,86.2308 2164.79,86.23 2166.95,86.2292 2169.11,86.2285 2171.27,86.2277 2173.43,86.227 2175.6,86.2263 2177.76,86.2255 2179.92,86.2248 2182.08,86.2241 2184.24,86.2234 2186.4,86.2227 2188.56,86.222 2190.72,86.2213 2192.88,86.2206 2195.04,86.2199 2197.2,86.2193 2199.36,86.2186 2201.52,86.218 2203.68,86.2173 2205.84,86.2167 2208,86.2161 2210.16,86.2154 2212.32,86.2148 2214.48,86.2142 2216.64,86.2136 2218.81,86.213 2220.97,86.2124 2223.13,86.2118 2225.29,86.2112 2227.45,86.2107 2229.61,86.2101 2231.77,86.2095 2233.93,86.209 2236.09,86.2084 2238.25,86.2079 2240.41,86.2073 2242.57,86.2068 2244.73,86.2063 2246.89,86.2058 2249.05,86.2052 2251.21,86.2047 2253.37,86.2042 2255.53,86.2037 2257.69,86.2032 2259.85,86.2027 2262.02,86.2022 2264.18,86.2018 2266.34,86.2013 2268.5,86.2008 2270.66,86.2004 2272.82,86.1999 2274.98,86.1994 2277.14,86.199 2279.3,86.1985 2281.46,86.1981 2283.62,86.1977 2285.78,86.1972 2287.94,86.1968 2290.1,86.1964 2292.26,86.1959 2294.42,86.1955 2296.58,86.1951 2298.74,86.1947 2300.9,86.1943 2303.06,86.1939 2305.23,86.1935 2307.39,86.1931 2309.55,86.1927 2311.71,86.1923 2313.87,86.192 2316.03,86.1916 2318.19,86.1912 2320.35,86.1908 2322.51,86.1905 2324.67,86.1901 2326.83,86.1897 2328.99,86.1894 2331.15,86.189 2333.31,86.1887 2335.47,86.1883 2337.63,86.188 2339.79,86.1877 2341.95,86.1873 2344.11,86.187 2346.27,86.1867 2348.43,86.1863 2350.6,86.186 2352.76,86.1857 "/>
<polyline clip-path="url(#clip662)" style="stroke:#e26f46; stroke-linecap:round; stroke-linejoin:round; stroke-width:4; stroke-opacity:1; fill:none" points="194.422,1384.24 196.583,1376.45 198.743,1368.72 200.904,1361.03 203.064,1353.38 205.225,1345.78 207.385,1338.23 209.546,1330.72 211.706,1323.26 213.867,1315.84 216.027,1308.47 218.188,1301.14 220.348,1293.86 222.509,1286.61 224.669,1279.42 226.83,1272.26 228.99,1265.15 231.151,1258.08 233.311,1251.05 235.471,1244.07 237.632,1237.13 239.792,1230.23 241.953,1223.37 244.113,1216.55 246.274,1209.77 248.434,1203.03 250.595,1196.34 252.755,1189.68 254.916,1183.07 257.076,1176.49 259.237,1169.95 261.397,1163.45 263.558,1157 265.718,1150.58 267.879,1144.19 270.039,1137.85 272.2,1131.55 274.36,1125.28 276.521,1119.05 278.681,1112.86 280.842,1106.7 283.002,1100.58 285.163,1094.5 287.323,1088.46 289.484,1082.45 291.644,1076.47 293.805,1070.54 295.965,1064.64 298.126,1058.77 300.286,1052.94 302.447,1047.14 304.607,1041.38 306.768,1035.66 308.928,1029.96 311.089,1024.31 313.249,1018.68 315.41,1013.09 317.57,1007.54 319.731,1002.01 321.891,996.522 324.052,991.065 326.212,985.64 328.373,980.248 330.533,974.889 332.694,969.561 334.854,964.266 337.015,959.002 339.175,953.77 341.336,948.569 343.496,943.399 345.657,938.261 347.817,933.153 349.978,928.076 352.138,923.029 354.299,918.012 356.459,913.026 358.62,908.07 360.78,903.143 362.941,898.246 365.101,893.378 367.262,888.539 369.422,883.73 371.583,878.949 373.743,874.197 375.904,869.474 378.064,864.778 380.225,860.111 382.385,855.472 384.546,850.861 386.706,846.278 388.867,841.722 391.027,837.193 393.188,832.691 395.348,828.217 397.509,823.769 399.669,819.348 401.83,814.954 403.99,810.585 406.151,806.243 408.311,801.927 410.472,797.637 412.632,793.373 414.793,789.134 416.953,784.921 419.114,780.733 421.274,776.57 423.435,772.432 425.595,768.319 427.755,764.23 429.916,760.166 432.076,756.126 434.237,752.111 436.397,748.12 438.558,744.152 440.718,740.209 442.879,736.289 445.039,732.392 447.2,728.519 449.36,724.669 451.521,720.842 453.681,717.038 455.842,713.257 458.002,709.499 460.163,705.763 462.323,702.05 464.484,698.358 466.644,694.689 468.805,691.042 470.965,687.417 473.126,683.814 475.286,680.232 477.447,676.672 479.607,673.133 481.768,669.615 483.928,666.119 486.089,662.643 488.249,659.188 490.41,655.754 492.57,652.341 494.731,648.948 496.891,645.575 499.052,642.222 501.212,638.89 503.373,635.578 505.533,632.285 507.694,629.012 509.854,625.759 512.015,622.526 514.175,619.312 516.336,616.117 518.496,612.941 520.657,609.784 522.817,606.646 524.978,603.527 527.138,600.427 529.299,597.345 531.459,594.282 533.62,591.237 535.78,588.21 537.941,585.202 540.101,582.211 542.262,579.239 544.422,576.284 546.583,573.347 548.743,570.428 550.904,567.526 553.064,564.641 555.225,561.774 557.385,558.924 559.546,556.091 561.706,553.275 563.867,550.476 566.027,547.693 568.188,544.927 570.348,542.178 572.509,539.446 574.669,536.729 576.83,534.029 578.99,531.346 581.151,528.678 583.311,526.026 585.472,523.39 587.632,520.77 589.793,518.166 591.953,515.577 594.114,513.004 596.274,510.446 598.435,507.904 600.595,505.377 602.756,502.865 604.916,500.368 607.077,497.886 609.237,495.419 611.398,492.966 613.558,490.529 615.718,488.106 617.879,485.697 620.039,483.303 622.2,480.924 624.36,478.558 626.521,476.207 628.681,473.87 630.842,471.547 633.002,469.238 635.163,466.942 637.323,464.661 639.484,462.393 641.644,460.139 643.805,457.898 645.965,455.671 648.126,453.457 650.286,451.256 652.447,449.069 654.607,446.894 656.768,444.733 658.928,442.585 661.089,440.449 663.249,438.327 665.41,436.217 667.57,434.119 669.731,432.035 671.891,429.962 674.052,427.902 676.212,425.855 678.373,423.82 680.533,421.797 682.694,419.786 684.854,417.787 687.015,415.8 689.175,413.825 691.336,411.862 693.496,409.91 695.657,407.971 697.817,406.043 699.978,404.126 702.138,402.221 704.299,400.327 706.459,398.445 708.62,396.574 710.78,394.714 712.941,392.866 715.101,391.028 717.262,389.201 719.422,387.386 721.583,385.581 723.743,383.787 725.904,382.003 728.064,380.231 730.225,378.469 732.385,376.717 734.546,374.976 736.706,373.246 738.867,371.526 741.027,369.816 743.188,368.116 745.348,366.427 747.509,364.747 749.669,363.078 751.83,361.419 753.99,359.77 756.151,358.13 758.311,356.501 760.472,354.881 762.632,353.271 764.793,351.67 766.953,350.08 769.114,348.498 771.274,346.927 773.435,345.364 775.595,343.811 777.756,342.268 779.916,340.733 782.077,339.208 784.237,337.692 786.398,336.185 788.558,334.687 790.719,333.198 792.879,331.718 795.04,330.247 797.2,328.785 799.361,327.331 801.521,325.886 803.681,324.45 805.842,323.023 808.002,321.604 810.163,320.193 812.323,318.791 814.484,317.398 816.644,316.013 818.805,314.636 820.965,313.267 823.126,311.907 825.286,310.554 827.447,309.21 829.607,307.874 831.768,306.546 833.928,305.226 836.089,303.914 838.249,302.609 840.41,301.313 842.57,300.024 844.731,298.743 846.891,297.47 849.052,296.204 851.212,294.946 853.373,293.695 855.533,292.452 857.694,291.216 859.854,289.988 862.015,288.767 864.175,287.554 866.336,286.347 868.496,285.148 870.657,283.956 872.817,282.771 874.978,281.594 877.138,280.423 879.299,279.259 881.459,278.103 883.62,276.953 885.78,275.81 887.941,274.674 890.101,273.545 892.262,272.422 894.422,271.306 896.583,270.197 898.743,269.095 900.904,267.999 903.064,266.909 905.225,265.827 907.385,264.75 909.546,263.68 911.706,262.617 913.867,261.56 916.027,260.509 918.188,259.464 920.348,258.426 922.509,257.394 924.669,256.368 926.83,255.348 928.99,254.334 931.151,253.326 933.311,252.325 935.472,251.329 937.632,250.339 939.793,249.356 941.953,248.378 944.114,247.406 946.274,246.44 948.435,245.479 950.595,244.525 952.756,243.576 954.916,242.633 957.077,241.695 959.237,240.763 961.398,239.837 963.558,238.916 965.719,238.001 967.879,237.091 970.04,236.187 972.2,235.288 974.361,234.395 976.521,233.507 978.682,232.624 980.842,231.746 983.003,230.874 985.163,230.007 987.324,229.145 989.484,228.289 991.645,227.437 993.805,226.591 995.965,225.75 998.126,224.914 1000.29,224.082 1002.45,223.256 1004.61,222.435 1006.77,221.619 1008.93,220.807 1011.09,220.001 1013.25,219.199 1015.41,218.402 1017.57,217.61 1019.73,216.823 1021.89,216.04 1024.05,215.263 1026.21,214.489 1028.37,213.721 1030.53,212.957 1032.69,212.197 1034.85,211.443 1037.01,210.692 1039.18,209.947 1041.34,209.205 1043.5,208.468 1045.66,207.736 1047.82,207.008 1049.98,206.284 1052.14,205.565 1054.3,204.85 1056.46,204.139 1058.62,203.433 1060.78,202.73 1062.94,202.032 1065.1,201.338 1067.26,200.649 1069.42,199.963 1071.58,199.282 1073.74,198.604 1075.9,197.931 1078.06,197.261 1080.22,196.596 1082.39,195.935 1084.55,195.277 1086.71,194.624 1088.87,193.974 1091.03,193.329 1093.19,192.687 1095.35,192.049 1097.51,191.415 1099.67,190.785 1101.83,190.158 1103.99,189.535 1106.15,188.916 1108.31,188.301 1110.47,187.689 1112.63,187.081 1114.79,186.476 1116.95,185.875 1119.11,185.278 1121.27,184.685 1123.43,184.094 1125.6,183.508 1127.76,182.925 1129.92,182.345 1132.08,181.769 1134.24,181.196 1136.4,180.626 1138.56,180.06 1140.72,179.498 1142.88,178.939 1145.04,178.383 1147.2,177.83 1149.36,177.281 1151.52,176.735 1153.68,176.192 1155.84,175.652 1158,175.116 1160.16,174.583 1162.32,174.053 1164.48,173.526 1166.64,173.002 1168.81,172.482 1170.97,171.965 1173.13,171.45 1175.29,170.939 1177.45,170.431 1179.61,169.926 1181.77,169.424 1183.93,168.925 1186.09,168.429 1188.25,167.936 1190.41,167.446 1192.57,166.958 1194.73,166.474 1196.89,165.993 1199.05,165.514 1201.21,165.039 1203.37,164.566 1205.53,164.096 1207.69,163.629 1209.85,163.165 1212.01,162.704 1214.18,162.245 1216.34,161.789 1218.5,161.336 1220.66,160.885 1222.82,160.438 1224.98,159.993 1227.14,159.55 1229.3,159.11 1231.46,158.673 1233.62,158.239 1235.78,157.807 1237.94,157.378 1240.1,156.951 1242.26,156.527 1244.42,156.106 1246.58,155.687 1248.74,155.27 1250.9,154.856 1253.06,154.445 1255.22,154.036 1257.39,153.629 1259.55,153.225 1261.71,152.824 1263.87,152.425 1266.03,152.028 1268.19,151.633 1270.35,151.241 1272.51,150.852 1274.67,150.464 1276.83,150.079 1278.99,149.696 1281.15,149.316 1283.31,148.938 1285.47,148.562 1287.63,148.189 1289.79,147.817 1291.95,147.448 1294.11,147.081 1296.27,146.717 1298.43,146.354 1300.6,145.994 1302.76,145.636 1304.92,145.28 1307.08,144.926 1309.24,144.574 1311.4,144.224 1313.56,143.877 1315.72,143.531 1317.88,143.188 1320.04,142.847 1322.2,142.507 1324.36,142.17 1326.52,141.835 1328.68,141.502 1330.84,141.17 1333,140.841 1335.16,140.514 1337.32,140.189 1339.48,139.865 1341.64,139.544 1343.81,139.224 1345.97,138.907 1348.13,138.591 1350.29,138.277 1352.45,137.965 1354.61,137.655 1356.77,137.347 1358.93,137.041 1361.09,136.736 1363.25,136.433 1365.41,136.132 1367.57,135.833 1369.73,135.536 1371.89,135.24 1374.05,134.946 1376.21,134.654 1378.37,134.364 1380.53,134.075 1382.69,133.788 1384.85,133.503 1387.01,133.22 1389.18,132.938 1391.34,132.658 1393.5,132.379 1395.66,132.102 1397.82,131.827 1399.98,131.553 1402.14,131.281 1404.3,131.011 1406.46,130.742 1408.62,130.475 1410.78,130.209 1412.94,129.945 1415.1,129.683 1417.26,129.422 1419.42,129.163 1421.58,128.905 1423.74,128.649 1425.9,128.394 1428.06,128.141 1430.22,127.889 1432.39,127.639 1434.55,127.39 1436.71,127.143 1438.87,126.897 1441.03,126.652 1443.19,126.41 1445.35,126.168 1447.51,125.928 1449.67,125.69 1451.83,125.453 1453.99,125.217 1456.15,124.983 1458.31,124.75 1460.47,124.518 1462.63,124.288 1464.79,124.06 1466.95,123.832 1469.11,123.606 1471.27,123.382 1473.43,123.158 1475.6,122.936 1477.76,122.716 1479.92,122.497 1482.08,122.279 1484.24,122.062 1486.4,121.847 1488.56,121.633 1490.72,121.42 1492.88,121.209 1495.04,120.998 1497.2,120.789 1499.36,120.582 1501.52,120.375 1503.68,120.17 1505.84,119.966 1508,119.764 1510.16,119.562 1512.32,119.362 1514.48,119.163 1516.64,118.965 1518.81,118.769 1520.97,118.573 1523.13,118.379 1525.29,118.186 1527.45,117.994 1529.61,117.803 1531.77,117.613 1533.93,117.425 1536.09,117.238 1538.25,117.051 1540.41,116.866 1542.57,116.682 1544.73,116.5 1546.89,116.318 1549.05,116.137 1551.21,115.958 1553.37,115.779 1555.53,115.602 1557.69,115.426 1559.85,115.25 1562.01,115.076 1564.18,114.903 1566.34,114.731 1568.5,114.56 1570.66,114.39 1572.82,114.221 1574.98,114.053 1577.14,113.886 1579.3,113.72 1581.46,113.555 1583.62,113.392 1585.78,113.229 1587.94,113.067 1590.1,112.906 1592.26,112.746 1594.42,112.587 1596.58,112.429 1598.74,112.271 1600.9,112.115 1603.06,111.96 1605.22,111.806 1607.39,111.652 1609.55,111.5 1611.71,111.348 1613.87,111.198 1616.03,111.048 1618.19,110.899 1620.35,110.751 1622.51,110.604 1624.67,110.458 1626.83,110.313 1628.99,110.169 1631.15,110.025 1633.31,109.882 1635.47,109.741 1637.63,109.6 1639.79,109.459 1641.95,109.32 1644.11,109.182 1646.27,109.044 1648.43,108.907 1650.6,108.771 1652.76,108.636 1654.92,108.502 1657.08,108.368 1659.24,108.235 1661.4,108.103 1663.56,107.972 1665.72,107.842 1667.88,107.712 1670.04,107.583 1672.2,107.455 1674.36,107.328 1676.52,107.201 1678.68,107.075 1680.84,106.95 1683,106.826 1685.16,106.702 1687.32,106.579 1689.48,106.457 1691.64,106.336 1693.81,106.215 1695.97,106.095 1698.13,105.976 1700.29,105.857 1702.45,105.739 1704.61,105.622 1706.77,105.505 1708.93,105.39 1711.09,105.274 1713.25,105.16 1715.41,105.046 1717.57,104.933 1719.73,104.82 1721.89,104.708 1724.05,104.597 1726.21,104.487 1728.37,104.377 1730.53,104.267 1732.69,104.159 1734.85,104.051 1737.02,103.943 1739.18,103.837 1741.34,103.731 1743.5,103.625 1745.66,103.52 1747.82,103.416 1749.98,103.312 1752.14,103.209 1754.3,103.107 1756.46,103.005 1758.62,102.904 1760.78,102.803 1762.94,102.703 1765.1,102.604 1767.26,102.505 1769.42,102.407 1771.58,102.309 1773.74,102.212 1775.9,102.116 1778.06,102.02 1780.22,101.924 1782.39,101.83 1784.55,101.735 1786.71,101.642 1788.87,101.549 1791.03,101.456 1793.19,101.364 1795.35,101.273 1797.51,101.182 1799.67,101.092 1801.83,101.002 1803.99,100.913 1806.15,100.824 1808.31,100.736 1810.47,100.648 1812.63,100.561 1814.79,100.475 1816.95,100.389 1819.11,100.303 1821.27,100.218 1823.43,100.134 1825.6,100.05 1827.76,99.9661 1829.92,99.8831 1832.08,99.8007 1834.24,99.7187 1836.4,99.6373 1838.56,99.5563 1840.72,99.4758 1842.88,99.3958 1845.04,99.3163 1847.2,99.2373 1849.36,99.1588 1851.52,99.0807 1853.68,99.0031 1855.84,98.926 1858,98.8494 1860.16,98.7732 1862.32,98.6975 1864.48,98.6222 1866.64,98.5475 1868.81,98.4731 1870.97,98.3993 1873.13,98.3258 1875.29,98.2529 1877.45,98.1803 1879.61,98.1082 1881.77,98.0366 1883.93,97.9654 1886.09,97.8946 1888.25,97.8243 1890.41,97.7544 1892.57,97.6849 1894.73,97.6158 1896.89,97.5472 1899.05,97.479 1901.21,97.4112 1903.37,97.3438 1905.53,97.2769 1907.69,97.2103 1909.85,97.1442 1912.02,97.0784 1914.18,97.0131 1916.34,96.9481 1918.5,96.8836 1920.66,96.8194 1922.82,96.7557 1924.98,96.6923 1927.14,96.6293 1929.3,96.5667 1931.46,96.5045 1933.62,96.4427 1935.78,96.3813 1937.94,96.3202 1940.1,96.2595 1942.26,96.1991 1944.42,96.1392 1946.58,96.0796 1948.74,96.0203 1950.9,95.9615 1953.06,95.903 1955.22,95.8448 1957.39,95.787 1959.55,95.7295 1961.71,95.6724 1963.87,95.6157 1966.03,95.5593 1968.19,95.5032 1970.35,95.4475 1972.51,95.3921 1974.67,95.337 1976.83,95.2823 1978.99,95.2279 1981.15,95.1739 1983.31,95.1201 1985.47,95.0667 1987.63,95.0136 1989.79,94.9609 1991.95,94.9084 1994.11,94.8563 1996.27,94.8045 1998.43,94.753 2000.6,94.7018 2002.76,94.6509 2004.92,94.6003 2007.08,94.55 2009.24,94.5 2011.4,94.4503 2013.56,94.4009 2015.72,94.3518 2017.88,94.303 2020.04,94.2545 2022.2,94.2063 2024.36,94.1584 2026.52,94.1107 2028.68,94.0633 2030.84,94.0162 2033,93.9694 2035.16,93.9229 2037.32,93.8766 2039.48,93.8306 2041.64,93.7849 2043.81,93.7394 2045.97,93.6942 2048.13,93.6493 2050.29,93.6046 2052.45,93.5602 2054.61,93.516 2056.77,93.4721 2058.93,93.4285 2061.09,93.3851 2063.25,93.342 2065.41,93.2991 2067.57,93.2564 2069.73,93.214 2071.89,93.1718 2074.05,93.1299 2076.21,93.0882 2078.37,93.0468 2080.53,93.0055 2082.69,92.9646 2084.85,92.9238 2087.02,92.8833 2089.18,92.843 2091.34,92.8029 2093.5,92.7631 2095.66,92.7235 2097.82,92.6842 2099.98,92.645 2102.14,92.6062 2104.3,92.5675 2106.46,92.5291 2108.62,92.4909 2110.78,92.4529 2112.94,92.4152 2115.1,92.3777 2117.26,92.3404 2119.42,92.3033 2121.58,92.2665 2123.74,92.2299 2125.9,92.1935 2128.06,92.1573 2130.22,92.1213 2132.39,92.0855 2134.55,92.05 2136.71,92.0147 2138.87,91.9795 2141.03,91.9446 2143.19,91.9099 2145.35,91.8755 2147.51,91.8412 2149.67,91.8071 2151.83,91.7732 2153.99,91.7395 2156.15,91.7061 2158.31,91.6728 2160.47,91.6397 2162.63,91.6069 2164.79,91.5742 2166.95,91.5417 2169.11,91.5094 2171.27,91.4774 2173.43,91.4455 2175.6,91.4138 2177.76,91.3823 2179.92,91.3509 2182.08,91.3198 2184.24,91.2888 2186.4,91.2581 2188.56,91.2275 2190.72,91.1971 2192.88,91.1669 2195.04,91.1369 2197.2,91.107 2199.36,91.0774 2201.52,91.0479 2203.68,91.0186 2205.84,90.9894 2208,90.9605 2210.16,90.9317 2212.32,90.9031 2214.48,90.8746 2216.64,90.8464 2218.81,90.8183 2220.97,90.7903 2223.13,90.7626 2225.29,90.735 2227.45,90.7075 2229.61,90.6803 2231.77,90.6532 2233.93,90.6262 2236.09,90.5995 2238.25,90.5729 2240.41,90.5464 2242.57,90.5201 2244.73,90.494 2246.89,90.468 2249.05,90.4422 2251.21,90.4165 2253.37,90.391 2255.53,90.3656 2257.69,90.3404 2259.85,90.3153 2262.02,90.2904 2264.18,90.2657 2266.34,90.2411 2268.5,90.2166 2270.66,90.1923 2272.82,90.1681 2274.98,90.1441 2277.14,90.1202 2279.3,90.0965 2281.46,90.0729 2283.62,90.0494 2285.78,90.0261 2287.94,90.0029 2290.1,89.9799 2292.26,89.957 2294.42,89.9343 2296.58,89.9116 2298.74,89.8891 2300.9,89.8668 2303.06,89.8446 2305.23,89.8225 2307.39,89.8005 2309.55,89.7787 2311.71,89.757 2313.87,89.7354 2316.03,89.714 2318.19,89.6927 2320.35,89.6715 2322.51,89.6505 2324.67,89.6295 2326.83,89.6087 2328.99,89.588 2331.15,89.5675 2333.31,89.547 2335.47,89.5267 2337.63,89.5065 2339.79,89.4865 2341.95,89.4665 2344.11,89.4467 2346.27,89.427 2348.43,89.4074 2350.6,89.3879 2352.76,89.3685 "/>
<path clip-path="url(#clip660)" d="M1805.58 1377.32 L2280.81 1377.32 L2280.81 1221.8 L1805.58 1221.8  Z" fill="#ffffff" fill-rule="evenodd" fill-opacity="1"/>
<polyline clip-path="url(#clip660)" style="stroke:#000000; stroke-linecap:round; stroke-linejoin:round; stroke-width:4; stroke-opacity:1; fill:none" points="1805.58,1377.32 2280.81,1377.32 2280.81,1221.8 1805.58,1221.8 1805.58,1377.32 "/>
<polyline clip-path="url(#clip660)" style="stroke:#009af9; stroke-linecap:round; stroke-linejoin:round; stroke-width:4; stroke-opacity:1; fill:none" points="1829.56,1273.64 1973.45,1273.64 "/>
<path clip-path="url(#clip660)" d="M1997.43 1264.99 L2001.95 1264.99 L2010.05 1286.75 L2018.15 1264.99 L2022.66 1264.99 L2012.94 1290.92 L2007.16 1290.92 L1997.43 1264.99 Z" fill="#000000" fill-rule="nonzero" fill-opacity="1" /><path clip-path="url(#clip660)" d="M2029.96 1286.98 L2037.6 1286.98 L2037.6 1260.61 L2029.28 1262.28 L2029.28 1258.02 L2037.55 1256.36 L2042.22 1256.36 L2042.22 1286.98 L2049.86 1286.98 L2049.86 1290.92 L2029.96 1290.92 L2029.96 1286.98 Z" fill="#000000" fill-rule="nonzero" fill-opacity="1" /><path clip-path="url(#clip660)" d="M2067.97 1274.27 L2067.97 1281.49 L2076.09 1281.49 L2076.09 1283.69 L2067.97 1283.69 L2067.97 1290.92 L2065.53 1290.92 L2065.53 1283.69 L2057.41 1283.69 L2057.41 1281.49 L2065.53 1281.49 L2065.53 1274.27 L2067.97 1274.27 Z" fill="#000000" fill-rule="nonzero" fill-opacity="1" /><path clip-path="url(#clip660)" d="M2100.26 1265.75 L2100.26 1269.78 Q2098.45 1268.86 2096.51 1268.39 Q2094.56 1267.93 2092.48 1267.93 Q2089.31 1267.93 2087.71 1268.9 Q2086.14 1269.87 2086.14 1271.82 Q2086.14 1273.3 2087.27 1274.16 Q2088.4 1274.99 2091.83 1275.75 L2093.29 1276.08 Q2097.83 1277.05 2099.72 1278.83 Q2101.65 1280.59 2101.65 1283.76 Q2101.65 1287.37 2098.78 1289.48 Q2095.93 1291.59 2090.93 1291.59 Q2088.84 1291.59 2086.58 1291.17 Q2084.33 1290.78 2081.83 1289.97 L2081.83 1285.57 Q2084.19 1286.79 2086.48 1287.42 Q2088.78 1288.02 2091.02 1288.02 Q2094.03 1288.02 2095.65 1287 Q2097.27 1285.96 2097.27 1284.09 Q2097.27 1282.35 2096.09 1281.42 Q2094.93 1280.5 2090.97 1279.64 L2089.49 1279.3 Q2085.53 1278.46 2083.78 1276.75 Q2082.02 1275.01 2082.02 1272 Q2082.02 1268.35 2084.61 1266.36 Q2087.2 1264.36 2091.97 1264.36 Q2094.33 1264.36 2096.41 1264.71 Q2098.5 1265.06 2100.26 1265.75 Z" fill="#000000" fill-rule="nonzero" fill-opacity="1" /><path clip-path="url(#clip660)" d="M2112.64 1257.63 L2112.64 1264.99 L2121.41 1264.99 L2121.41 1268.3 L2112.64 1268.3 L2112.64 1282.37 Q2112.64 1285.54 2113.5 1286.45 Q2114.38 1287.35 2117.04 1287.35 L2121.41 1287.35 L2121.41 1290.92 L2117.04 1290.92 Q2112.11 1290.92 2110.23 1289.09 Q2108.36 1287.23 2108.36 1282.37 L2108.36 1268.3 L2105.23 1268.3 L2105.23 1264.99 L2108.36 1264.99 L2108.36 1257.63 L2112.64 1257.63 Z" fill="#000000" fill-rule="nonzero" fill-opacity="1" /><path clip-path="url(#clip660)" d="M2137.06 1267.98 Q2133.64 1267.98 2131.65 1270.66 Q2129.65 1273.32 2129.65 1277.98 Q2129.65 1282.63 2131.62 1285.31 Q2133.61 1287.98 2137.06 1287.98 Q2140.46 1287.98 2142.46 1285.29 Q2144.45 1282.61 2144.45 1277.98 Q2144.45 1273.37 2142.46 1270.68 Q2140.46 1267.98 2137.06 1267.98 M2137.06 1264.36 Q2142.62 1264.36 2145.79 1267.98 Q2148.96 1271.59 2148.96 1277.98 Q2148.96 1284.34 2145.79 1287.98 Q2142.62 1291.59 2137.06 1291.59 Q2131.48 1291.59 2128.31 1287.98 Q2125.16 1284.34 2125.16 1277.98 Q2125.16 1271.59 2128.31 1267.98 Q2131.48 1264.36 2137.06 1264.36 Z" fill="#000000" fill-rule="nonzero" fill-opacity="1" /><path clip-path="url(#clip660)" d="M2171.04 1268.97 Q2170.33 1268.55 2169.47 1268.37 Q2168.64 1268.16 2167.62 1268.16 Q2164.01 1268.16 2162.06 1270.52 Q2160.14 1272.86 2160.14 1277.26 L2160.14 1290.92 L2155.86 1290.92 L2155.86 1264.99 L2160.14 1264.99 L2160.14 1269.02 Q2161.48 1266.66 2163.64 1265.52 Q2165.79 1264.36 2168.87 1264.36 Q2169.31 1264.36 2169.84 1264.43 Q2170.37 1264.48 2171.02 1264.6 L2171.04 1268.97 Z" fill="#000000" fill-rule="nonzero" fill-opacity="1" /><path clip-path="url(#clip660)" d="M2187.29 1277.88 Q2182.13 1277.88 2180.14 1279.06 Q2178.15 1280.24 2178.15 1283.09 Q2178.15 1285.36 2179.63 1286.7 Q2181.14 1288.02 2183.71 1288.02 Q2187.25 1288.02 2189.38 1285.52 Q2191.53 1283 2191.53 1278.83 L2191.53 1277.88 L2187.29 1277.88 M2195.79 1276.12 L2195.79 1290.92 L2191.53 1290.92 L2191.53 1286.98 Q2190.07 1289.34 2187.9 1290.48 Q2185.72 1291.59 2182.57 1291.59 Q2178.59 1291.59 2176.23 1289.36 Q2173.89 1287.12 2173.89 1283.37 Q2173.89 1278.99 2176.81 1276.77 Q2179.75 1274.55 2185.56 1274.55 L2191.53 1274.55 L2191.53 1274.13 Q2191.53 1271.19 2189.58 1269.6 Q2187.66 1267.98 2184.17 1267.98 Q2181.95 1267.98 2179.84 1268.51 Q2177.73 1269.04 2175.79 1270.11 L2175.79 1266.17 Q2178.13 1265.27 2180.33 1264.83 Q2182.52 1264.36 2184.61 1264.36 Q2190.23 1264.36 2193.01 1267.28 Q2195.79 1270.2 2195.79 1276.12 Z" fill="#000000" fill-rule="nonzero" fill-opacity="1" /><path clip-path="url(#clip660)" d="M2221.62 1277.65 Q2221.62 1273.02 2219.7 1270.48 Q2217.8 1267.93 2214.35 1267.93 Q2210.93 1267.93 2209.01 1270.48 Q2207.11 1273.02 2207.11 1277.65 Q2207.11 1282.26 2209.01 1284.8 Q2210.93 1287.35 2214.35 1287.35 Q2217.8 1287.35 2219.7 1284.8 Q2221.62 1282.26 2221.62 1277.65 M2225.88 1287.7 Q2225.88 1294.32 2222.94 1297.54 Q2220 1300.78 2213.94 1300.78 Q2211.69 1300.78 2209.7 1300.43 Q2207.71 1300.11 2205.83 1299.41 L2205.83 1295.27 Q2207.71 1296.29 2209.54 1296.77 Q2211.37 1297.26 2213.27 1297.26 Q2217.46 1297.26 2219.54 1295.06 Q2221.62 1292.88 2221.62 1288.46 L2221.62 1286.36 Q2220.3 1288.65 2218.24 1289.78 Q2216.18 1290.92 2213.31 1290.92 Q2208.54 1290.92 2205.63 1287.28 Q2202.71 1283.65 2202.71 1277.65 Q2202.71 1271.63 2205.63 1268 Q2208.54 1264.36 2213.31 1264.36 Q2216.18 1264.36 2218.24 1265.5 Q2220.3 1266.63 2221.62 1268.92 L2221.62 1264.99 L2225.88 1264.99 L2225.88 1287.7 Z" fill="#000000" fill-rule="nonzero" fill-opacity="1" /><path clip-path="url(#clip660)" d="M2256.83 1276.89 L2256.83 1278.97 L2237.25 1278.97 Q2237.52 1283.37 2239.89 1285.68 Q2242.27 1287.98 2246.51 1287.98 Q2248.96 1287.98 2251.25 1287.37 Q2253.57 1286.77 2255.83 1285.57 L2255.83 1289.6 Q2253.54 1290.57 2251.14 1291.08 Q2248.73 1291.59 2246.25 1291.59 Q2240.05 1291.59 2236.41 1287.98 Q2232.8 1284.36 2232.8 1278.21 Q2232.8 1271.84 2236.23 1268.11 Q2239.68 1264.36 2245.51 1264.36 Q2250.74 1264.36 2253.77 1267.74 Q2256.83 1271.1 2256.83 1276.89 M2252.57 1275.64 Q2252.52 1272.14 2250.6 1270.06 Q2248.71 1267.98 2245.56 1267.98 Q2241.99 1267.98 2239.84 1269.99 Q2237.71 1272 2237.39 1275.66 L2252.57 1275.64 Z" fill="#000000" fill-rule="nonzero" fill-opacity="1" /><polyline clip-path="url(#clip660)" style="stroke:#e26f46; stroke-linecap:round; stroke-linejoin:round; stroke-width:4; stroke-opacity:1; fill:none" points="1829.56,1325.48 1973.45,1325.48 "/>
<path clip-path="url(#clip660)" d="M1997.43 1316.83 L2001.95 1316.83 L2010.05 1338.59 L2018.15 1316.83 L2022.66 1316.83 L2012.94 1342.76 L2007.16 1342.76 L1997.43 1316.83 Z" fill="#000000" fill-rule="nonzero" fill-opacity="1" /><path clip-path="url(#clip660)" d="M2029.19 1308.2 L2047.55 1308.2 L2047.55 1312.13 L2033.47 1312.13 L2033.47 1320.6 Q2034.49 1320.26 2035.51 1320.09 Q2036.53 1319.91 2037.55 1319.91 Q2043.34 1319.91 2046.72 1323.08 Q2050.09 1326.25 2050.09 1331.67 Q2050.09 1337.25 2046.62 1340.35 Q2043.15 1343.43 2036.83 1343.43 Q2034.66 1343.43 2032.39 1343.06 Q2030.14 1342.69 2027.73 1341.95 L2027.73 1337.25 Q2029.82 1338.38 2032.04 1338.94 Q2034.26 1339.49 2036.74 1339.49 Q2040.74 1339.49 2043.08 1337.38 Q2045.42 1335.28 2045.42 1331.67 Q2045.42 1328.06 2043.08 1325.95 Q2040.74 1323.84 2036.74 1323.84 Q2034.86 1323.84 2032.99 1324.26 Q2031.14 1324.68 2029.19 1325.56 L2029.19 1308.2 Z" fill="#000000" fill-rule="nonzero" fill-opacity="1" /><path clip-path="url(#clip660)" d="M2067.97 1326.11 L2067.97 1333.33 L2076.09 1333.33 L2076.09 1335.53 L2067.97 1335.53 L2067.97 1342.76 L2065.53 1342.76 L2065.53 1335.53 L2057.41 1335.53 L2057.41 1333.33 L2065.53 1333.33 L2065.53 1326.11 L2067.97 1326.11 Z" fill="#000000" fill-rule="nonzero" fill-opacity="1" /><path clip-path="url(#clip660)" d="M2100.26 1317.59 L2100.26 1321.62 Q2098.45 1320.7 2096.51 1320.23 Q2094.56 1319.77 2092.48 1319.77 Q2089.31 1319.77 2087.71 1320.74 Q2086.14 1321.71 2086.14 1323.66 Q2086.14 1325.14 2087.27 1326 Q2088.4 1326.83 2091.83 1327.59 L2093.29 1327.92 Q2097.83 1328.89 2099.72 1330.67 Q2101.65 1332.43 2101.65 1335.6 Q2101.65 1339.21 2098.78 1341.32 Q2095.93 1343.43 2090.93 1343.43 Q2088.84 1343.43 2086.58 1343.01 Q2084.33 1342.62 2081.83 1341.81 L2081.83 1337.41 Q2084.19 1338.63 2086.48 1339.26 Q2088.78 1339.86 2091.02 1339.86 Q2094.03 1339.86 2095.65 1338.84 Q2097.27 1337.8 2097.27 1335.93 Q2097.27 1334.19 2096.09 1333.26 Q2094.93 1332.34 2090.97 1331.48 L2089.49 1331.14 Q2085.53 1330.3 2083.78 1328.59 Q2082.02 1326.85 2082.02 1323.84 Q2082.02 1320.19 2084.61 1318.2 Q2087.2 1316.2 2091.97 1316.2 Q2094.33 1316.2 2096.41 1316.55 Q2098.5 1316.9 2100.26 1317.59 Z" fill="#000000" fill-rule="nonzero" fill-opacity="1" /><path clip-path="url(#clip660)" d="M2112.64 1309.47 L2112.64 1316.83 L2121.41 1316.83 L2121.41 1320.14 L2112.64 1320.14 L2112.64 1334.21 Q2112.64 1337.38 2113.5 1338.29 Q2114.38 1339.19 2117.04 1339.19 L2121.41 1339.19 L2121.41 1342.76 L2117.04 1342.76 Q2112.11 1342.76 2110.23 1340.93 Q2108.36 1339.07 2108.36 1334.21 L2108.36 1320.14 L2105.23 1320.14 L2105.23 1316.83 L2108.36 1316.83 L2108.36 1309.47 L2112.64 1309.47 Z" fill="#000000" fill-rule="nonzero" fill-opacity="1" /><path clip-path="url(#clip660)" d="M2137.06 1319.82 Q2133.64 1319.82 2131.65 1322.5 Q2129.65 1325.16 2129.65 1329.82 Q2129.65 1334.47 2131.62 1337.15 Q2133.61 1339.82 2137.06 1339.82 Q2140.46 1339.82 2142.46 1337.13 Q2144.45 1334.45 2144.45 1329.82 Q2144.45 1325.21 2142.46 1322.52 Q2140.46 1319.82 2137.06 1319.82 M2137.06 1316.2 Q2142.62 1316.2 2145.79 1319.82 Q2148.96 1323.43 2148.96 1329.82 Q2148.96 1336.18 2145.79 1339.82 Q2142.62 1343.43 2137.06 1343.43 Q2131.48 1343.43 2128.31 1339.82 Q2125.16 1336.18 2125.16 1329.82 Q2125.16 1323.43 2128.31 1319.82 Q2131.48 1316.2 2137.06 1316.2 Z" fill="#000000" fill-rule="nonzero" fill-opacity="1" /><path clip-path="url(#clip660)" d="M2171.04 1320.81 Q2170.33 1320.39 2169.47 1320.21 Q2168.64 1320 2167.62 1320 Q2164.01 1320 2162.06 1322.36 Q2160.14 1324.7 2160.14 1329.1 L2160.14 1342.76 L2155.86 1342.76 L2155.86 1316.83 L2160.14 1316.83 L2160.14 1320.86 Q2161.48 1318.5 2163.64 1317.36 Q2165.79 1316.2 2168.87 1316.2 Q2169.31 1316.2 2169.84 1316.27 Q2170.37 1316.32 2171.02 1316.44 L2171.04 1320.81 Z" fill="#000000" fill-rule="nonzero" fill-opacity="1" /><path clip-path="url(#clip660)" d="M2187.29 1329.72 Q2182.13 1329.72 2180.14 1330.9 Q2178.15 1332.08 2178.15 1334.93 Q2178.15 1337.2 2179.63 1338.54 Q2181.14 1339.86 2183.71 1339.86 Q2187.25 1339.86 2189.38 1337.36 Q2191.53 1334.84 2191.53 1330.67 L2191.53 1329.72 L2187.29 1329.72 M2195.79 1327.96 L2195.79 1342.76 L2191.53 1342.76 L2191.53 1338.82 Q2190.07 1341.18 2187.9 1342.32 Q2185.72 1343.43 2182.57 1343.43 Q2178.59 1343.43 2176.23 1341.2 Q2173.89 1338.96 2173.89 1335.21 Q2173.89 1330.83 2176.81 1328.61 Q2179.75 1326.39 2185.56 1326.39 L2191.53 1326.39 L2191.53 1325.97 Q2191.53 1323.03 2189.58 1321.44 Q2187.66 1319.82 2184.17 1319.82 Q2181.95 1319.82 2179.84 1320.35 Q2177.73 1320.88 2175.79 1321.95 L2175.79 1318.01 Q2178.13 1317.11 2180.33 1316.67 Q2182.52 1316.2 2184.61 1316.2 Q2190.23 1316.2 2193.01 1319.12 Q2195.79 1322.04 2195.79 1327.96 Z" fill="#000000" fill-rule="nonzero" fill-opacity="1" /><path clip-path="url(#clip660)" d="M2221.62 1329.49 Q2221.62 1324.86 2219.7 1322.32 Q2217.8 1319.77 2214.35 1319.77 Q2210.93 1319.77 2209.01 1322.32 Q2207.11 1324.86 2207.11 1329.49 Q2207.11 1334.1 2209.01 1336.64 Q2210.93 1339.19 2214.35 1339.19 Q2217.8 1339.19 2219.7 1336.64 Q2221.62 1334.1 2221.62 1329.49 M2225.88 1339.54 Q2225.88 1346.16 2222.94 1349.38 Q2220 1352.62 2213.94 1352.62 Q2211.69 1352.62 2209.7 1352.27 Q2207.71 1351.95 2205.83 1351.25 L2205.83 1347.11 Q2207.71 1348.13 2209.54 1348.61 Q2211.37 1349.1 2213.27 1349.1 Q2217.46 1349.1 2219.54 1346.9 Q2221.62 1344.72 2221.62 1340.3 L2221.62 1338.2 Q2220.3 1340.49 2218.24 1341.62 Q2216.18 1342.76 2213.31 1342.76 Q2208.54 1342.76 2205.63 1339.12 Q2202.71 1335.49 2202.71 1329.49 Q2202.71 1323.47 2205.63 1319.84 Q2208.54 1316.2 2213.31 1316.2 Q2216.18 1316.2 2218.24 1317.34 Q2220.3 1318.47 2221.62 1320.76 L2221.62 1316.83 L2225.88 1316.83 L2225.88 1339.54 Z" fill="#000000" fill-rule="nonzero" fill-opacity="1" /><path clip-path="url(#clip660)" d="M2256.83 1328.73 L2256.83 1330.81 L2237.25 1330.81 Q2237.52 1335.21 2239.89 1337.52 Q2242.27 1339.82 2246.51 1339.82 Q2248.96 1339.82 2251.25 1339.21 Q2253.57 1338.61 2255.83 1337.41 L2255.83 1341.44 Q2253.54 1342.41 2251.14 1342.92 Q2248.73 1343.43 2246.25 1343.43 Q2240.05 1343.43 2236.41 1339.82 Q2232.8 1336.2 2232.8 1330.05 Q2232.8 1323.68 2236.23 1319.95 Q2239.68 1316.2 2245.51 1316.2 Q2250.74 1316.2 2253.77 1319.58 Q2256.83 1322.94 2256.83 1328.73 M2252.57 1327.48 Q2252.52 1323.98 2250.6 1321.9 Q2248.71 1319.82 2245.56 1319.82 Q2241.99 1319.82 2239.84 1321.83 Q2237.71 1323.84 2237.39 1327.5 L2252.57 1327.48 Z" fill="#000000" fill-rule="nonzero" fill-opacity="1" /></svg>
