<?xml version="1.0" encoding="utf-8"?>
<svg xmlns="http://www.w3.org/2000/svg" xmlns:xlink="http://www.w3.org/1999/xlink" width="600" height="400" viewBox="0 0 2400 1600">
<defs>
  <clipPath id="clip500">
    <rect x="0" y="0" width="2400" height="1600"/>
  </clipPath>
</defs>
<path clip-path="url(#clip500)" d="M0 1600 L2400 1600 L2400 0 L0 0  Z" fill="#ffffff" fill-rule="evenodd" fill-opacity="1"/>
<defs>
  <clipPath id="clip501">
    <rect x="480" y="0" width="1681" height="1600"/>
  </clipPath>
</defs>
<path clip-path="url(#clip500)" d="M194.422 1423.18 L2352.76 1423.18 L2352.76 47.2441 L194.422 47.2441  Z" fill="#ffffff" fill-rule="evenodd" fill-opacity="1"/>
<defs>
  <clipPath id="clip502">
    <rect x="194" y="47" width="2159" height="1377"/>
  </clipPath>
</defs>
<polyline clip-path="url(#clip502)" style="stroke:#000000; stroke-linecap:round; stroke-linejoin:round; stroke-width:2; stroke-opacity:0.1; fill:none" points="194.422,1423.18 194.422,47.2441 "/>
<polyline clip-path="url(#clip502)" style="stroke:#000000; stroke-linecap:round; stroke-linejoin:round; stroke-width:2; stroke-opacity:0.1; fill:none" points="734.006,1423.18 734.006,47.2441 "/>
<polyline clip-path="url(#clip502)" style="stroke:#000000; stroke-linecap:round; stroke-linejoin:round; stroke-width:2; stroke-opacity:0.1; fill:none" points="1273.59,1423.18 1273.59,47.2441 "/>
<polyline clip-path="url(#clip502)" style="stroke:#000000; stroke-linecap:round; stroke-linejoin:round; stroke-width:2; stroke-opacity:0.1; fill:none" points="1813.17,1423.18 1813.17,47.2441 "/>
<polyline clip-path="url(#clip502)" style="stroke:#000000; stroke-linecap:round; stroke-linejoin:round; stroke-width:2; stroke-opacity:0.1; fill:none" points="2352.76,1423.18 2352.76,47.2441 "/>
<polyline clip-path="url(#clip502)" style="stroke:#000000; stroke-linecap:round; stroke-linejoin:round; stroke-width:2; stroke-opacity:0.1; fill:none" points="194.422,1217.72 2352.76,1217.72 "/>
<polyline clip-path="url(#clip502)" style="stroke:#000000; stroke-linecap:round; stroke-linejoin:round; stroke-width:2; stroke-opacity:0.1; fill:none" points="194.422,873.952 2352.76,873.952 "/>
<polyline clip-path="url(#clip502)" style="stroke:#000000; stroke-linecap:round; stroke-linejoin:round; stroke-width:2; stroke-opacity:0.1; fill:none" points="194.422,530.182 2352.76,530.182 "/>
<polyline clip-path="url(#clip502)" style="stroke:#000000; stroke-linecap:round; stroke-linejoin:round; stroke-width:2; stroke-opacity:0.1; fill:none" points="194.422,186.413 2352.76,186.413 "/>
<polyline clip-path="url(#clip500)" style="stroke:#000000; stroke-linecap:round; stroke-linejoin:round; stroke-width:4; stroke-opacity:1; fill:none" points="194.422,1423.18 2352.76,1423.18 "/>
<polyline clip-path="url(#clip500)" style="stroke:#000000; stroke-linecap:round; stroke-linejoin:round; stroke-width:4; stroke-opacity:1; fill:none" points="194.422,1423.18 194.422,1404.28 "/>
<polyline clip-path="url(#clip500)" style="stroke:#000000; stroke-linecap:round; stroke-linejoin:round; stroke-width:4; stroke-opacity:1; fill:none" points="734.006,1423.18 734.006,1404.28 "/>
<polyline clip-path="url(#clip500)" style="stroke:#000000; stroke-linecap:round; stroke-linejoin:round; stroke-width:4; stroke-opacity:1; fill:none" points="1273.59,1423.18 1273.59,1404.28 "/>
<polyline clip-path="url(#clip500)" style="stroke:#000000; stroke-linecap:round; stroke-linejoin:round; stroke-width:4; stroke-opacity:1; fill:none" points="1813.17,1423.18 1813.17,1404.28 "/>
<polyline clip-path="url(#clip500)" style="stroke:#000000; stroke-linecap:round; stroke-linejoin:round; stroke-width:4; stroke-opacity:1; fill:none" points="2352.76,1423.18 2352.76,1404.28 "/>
<path clip-path="url(#clip500)" d="M171.806 1454.1 Q168.195 1454.1 166.367 1457.66 Q164.561 1461.2 164.561 1468.33 Q164.561 1475.44 166.367 1479.01 Q168.195 1482.55 171.806 1482.55 Q175.441 1482.55 177.246 1479.01 Q179.075 1475.44 179.075 1468.33 Q179.075 1461.2 177.246 1457.66 Q175.441 1454.1 171.806 1454.1 M171.806 1450.39 Q177.617 1450.39 180.672 1455 Q183.751 1459.58 183.751 1468.33 Q183.751 1477.06 180.672 1481.67 Q177.617 1486.25 171.806 1486.25 Q165.996 1486.25 162.918 1481.67 Q159.862 1477.06 159.862 1468.33 Q159.862 1459.58 162.918 1455 Q165.996 1450.39 171.806 1450.39 Z" fill="#000000" fill-rule="nonzero" fill-opacity="1" /><path clip-path="url(#clip500)" d="M191.968 1479.7 L196.853 1479.7 L196.853 1485.58 L191.968 1485.58 L191.968 1479.7 Z" fill="#000000" fill-rule="nonzero" fill-opacity="1" /><path clip-path="url(#clip500)" d="M217.038 1454.1 Q213.427 1454.1 211.598 1457.66 Q209.792 1461.2 209.792 1468.33 Q209.792 1475.44 211.598 1479.01 Q213.427 1482.55 217.038 1482.55 Q220.672 1482.55 222.478 1479.01 Q224.306 1475.44 224.306 1468.33 Q224.306 1461.2 222.478 1457.66 Q220.672 1454.1 217.038 1454.1 M217.038 1450.39 Q222.848 1450.39 225.903 1455 Q228.982 1459.58 228.982 1468.33 Q228.982 1477.06 225.903 1481.67 Q222.848 1486.25 217.038 1486.25 Q211.228 1486.25 208.149 1481.67 Q205.093 1477.06 205.093 1468.33 Q205.093 1459.58 208.149 1455 Q211.228 1450.39 217.038 1450.39 Z" fill="#000000" fill-rule="nonzero" fill-opacity="1" /><path clip-path="url(#clip500)" d="M711.888 1454.1 Q708.277 1454.1 706.448 1457.66 Q704.642 1461.2 704.642 1468.33 Q704.642 1475.44 706.448 1479.01 Q708.277 1482.55 711.888 1482.55 Q715.522 1482.55 717.327 1479.01 Q719.156 1475.44 719.156 1468.33 Q719.156 1461.2 717.327 1457.66 Q715.522 1454.1 711.888 1454.1 M711.888 1450.39 Q717.698 1450.39 720.753 1455 Q723.832 1459.58 723.832 1468.33 Q723.832 1477.06 720.753 1481.67 Q717.698 1486.25 711.888 1486.25 Q706.077 1486.25 702.999 1481.67 Q699.943 1477.06 699.943 1468.33 Q699.943 1459.58 702.999 1455 Q706.077 1450.39 711.888 1450.39 Z" fill="#000000" fill-rule="nonzero" fill-opacity="1" /><path clip-path="url(#clip500)" d="M732.05 1479.7 L736.934 1479.7 L736.934 1485.58 L732.05 1485.58 L732.05 1479.7 Z" fill="#000000" fill-rule="nonzero" fill-opacity="1" /><path clip-path="url(#clip500)" d="M747.165 1451.02 L765.522 1451.02 L765.522 1454.96 L751.448 1454.96 L751.448 1463.43 Q752.466 1463.08 753.485 1462.92 Q754.503 1462.73 755.522 1462.73 Q761.309 1462.73 764.688 1465.9 Q768.068 1469.08 768.068 1474.49 Q768.068 1480.07 764.596 1483.17 Q761.123 1486.25 754.804 1486.25 Q752.628 1486.25 750.36 1485.88 Q748.114 1485.51 745.707 1484.77 L745.707 1480.07 Q747.79 1481.2 750.012 1481.76 Q752.235 1482.32 754.711 1482.32 Q758.716 1482.32 761.054 1480.21 Q763.392 1478.1 763.392 1474.49 Q763.392 1470.88 761.054 1468.77 Q758.716 1466.67 754.711 1466.67 Q752.836 1466.67 750.961 1467.08 Q749.11 1467.5 747.165 1468.38 L747.165 1451.02 Z" fill="#000000" fill-rule="nonzero" fill-opacity="1" /><path clip-path="url(#clip500)" d="M1240.74 1481.64 L1248.38 1481.64 L1248.38 1455.28 L1240.07 1456.95 L1240.07 1452.69 L1248.33 1451.02 L1253.01 1451.02 L1253.01 1481.64 L1260.65 1481.64 L1260.65 1485.58 L1240.74 1485.58 L1240.74 1481.64 Z" fill="#000000" fill-rule="nonzero" fill-opacity="1" /><path clip-path="url(#clip500)" d="M1270.09 1479.7 L1274.98 1479.7 L1274.98 1485.58 L1270.09 1485.58 L1270.09 1479.7 Z" fill="#000000" fill-rule="nonzero" fill-opacity="1" /><path clip-path="url(#clip500)" d="M1295.16 1454.1 Q1291.55 1454.1 1289.72 1457.66 Q1287.92 1461.2 1287.92 1468.33 Q1287.92 1475.44 1289.72 1479.01 Q1291.55 1482.55 1295.16 1482.55 Q1298.8 1482.55 1300.6 1479.01 Q1302.43 1475.44 1302.43 1468.33 Q1302.43 1461.2 1300.6 1457.66 Q1298.8 1454.1 1295.16 1454.1 M1295.16 1450.39 Q1300.97 1450.39 1304.03 1455 Q1307.11 1459.58 1307.11 1468.33 Q1307.11 1477.06 1304.03 1481.67 Q1300.97 1486.25 1295.16 1486.25 Q1289.35 1486.25 1286.27 1481.67 Q1283.22 1477.06 1283.22 1468.33 Q1283.22 1459.58 1286.27 1455 Q1289.35 1450.39 1295.16 1450.39 Z" fill="#000000" fill-rule="nonzero" fill-opacity="1" /><path clip-path="url(#clip500)" d="M1780.82 1481.64 L1788.46 1481.64 L1788.46 1455.28 L1780.15 1456.95 L1780.15 1452.69 L1788.42 1451.02 L1793.09 1451.02 L1793.09 1481.64 L1800.73 1481.64 L1800.73 1485.58 L1780.82 1485.58 L1780.82 1481.64 Z" fill="#000000" fill-rule="nonzero" fill-opacity="1" /><path clip-path="url(#clip500)" d="M1810.17 1479.7 L1815.06 1479.7 L1815.06 1485.58 L1810.17 1485.58 L1810.17 1479.7 Z" fill="#000000" fill-rule="nonzero" fill-opacity="1" /><path clip-path="url(#clip500)" d="M1825.29 1451.02 L1843.65 1451.02 L1843.65 1454.96 L1829.57 1454.96 L1829.57 1463.43 Q1830.59 1463.08 1831.61 1462.92 Q1832.63 1462.73 1833.65 1462.73 Q1839.43 1462.73 1842.81 1465.9 Q1846.19 1469.08 1846.19 1474.49 Q1846.19 1480.07 1842.72 1483.17 Q1839.25 1486.25 1832.93 1486.25 Q1830.75 1486.25 1828.48 1485.88 Q1826.24 1485.51 1823.83 1484.77 L1823.83 1480.07 Q1825.92 1481.2 1828.14 1481.76 Q1830.36 1482.32 1832.84 1482.32 Q1836.84 1482.32 1839.18 1480.21 Q1841.52 1478.1 1841.52 1474.49 Q1841.52 1470.88 1839.18 1468.77 Q1836.84 1466.67 1832.84 1466.67 Q1830.96 1466.67 1829.09 1467.08 Q1827.23 1467.5 1825.29 1468.38 L1825.29 1451.02 Z" fill="#000000" fill-rule="nonzero" fill-opacity="1" /><path clip-path="url(#clip500)" d="M2323.99 1481.64 L2340.31 1481.64 L2340.31 1485.58 L2318.37 1485.58 L2318.37 1481.64 Q2321.03 1478.89 2325.61 1474.26 Q2330.22 1469.61 2331.4 1468.27 Q2333.65 1465.74 2334.53 1464.01 Q2335.43 1462.25 2335.43 1460.56 Q2335.43 1457.8 2333.49 1456.07 Q2331.56 1454.33 2328.46 1454.33 Q2326.26 1454.33 2323.81 1455.09 Q2321.38 1455.86 2318.6 1457.41 L2318.6 1452.69 Q2321.43 1451.55 2323.88 1450.97 Q2326.33 1450.39 2328.37 1450.39 Q2333.74 1450.39 2336.93 1453.08 Q2340.13 1455.77 2340.13 1460.26 Q2340.13 1462.39 2339.32 1464.31 Q2338.53 1466.2 2336.42 1468.8 Q2335.85 1469.47 2332.74 1472.69 Q2329.64 1475.88 2323.99 1481.64 Z" fill="#000000" fill-rule="nonzero" fill-opacity="1" /><path clip-path="url(#clip500)" d="M2350.13 1479.7 L2355.01 1479.7 L2355.01 1485.58 L2350.13 1485.58 L2350.13 1479.7 Z" fill="#000000" fill-rule="nonzero" fill-opacity="1" /><path clip-path="url(#clip500)" d="M2375.2 1454.1 Q2371.59 1454.1 2369.76 1457.66 Q2367.95 1461.2 2367.95 1468.33 Q2367.95 1475.44 2369.76 1479.01 Q2371.59 1482.55 2375.2 1482.55 Q2378.83 1482.55 2380.64 1479.01 Q2382.47 1475.44 2382.47 1468.33 Q2382.47 1461.2 2380.64 1457.66 Q2378.83 1454.1 2375.2 1454.1 M2375.2 1450.39 Q2381.01 1450.39 2384.06 1455 Q2387.14 1459.58 2387.14 1468.33 Q2387.14 1477.06 2384.06 1481.67 Q2381.01 1486.25 2375.2 1486.25 Q2369.39 1486.25 2366.31 1481.67 Q2363.25 1477.06 2363.25 1468.33 Q2363.25 1459.58 2366.31 1455 Q2369.39 1450.39 2375.2 1450.39 Z" fill="#000000" fill-rule="nonzero" fill-opacity="1" /><path clip-path="url(#clip500)" d="M1272.65 1522.27 L1272.65 1532.4 L1284.71 1532.4 L1284.71 1536.95 L1272.65 1536.95 L1272.65 1556.3 Q1272.65 1560.66 1273.83 1561.9 Q1275.04 1563.14 1278.7 1563.14 L1284.71 1563.14 L1284.71 1568.04 L1278.7 1568.04 Q1271.92 1568.04 1269.34 1565.53 Q1266.76 1562.98 1266.76 1556.3 L1266.76 1536.95 L1262.46 1536.95 L1262.46 1532.4 L1266.76 1532.4 L1266.76 1522.27 L1272.65 1522.27 Z" fill="#000000" fill-rule="nonzero" fill-opacity="1" /><polyline clip-path="url(#clip500)" style="stroke:#000000; stroke-linecap:round; stroke-linejoin:round; stroke-width:4; stroke-opacity:1; fill:none" points="194.422,1423.18 194.422,47.2441 "/>
<polyline clip-path="url(#clip500)" style="stroke:#000000; stroke-linecap:round; stroke-linejoin:round; stroke-width:4; stroke-opacity:1; fill:none" points="194.422,1217.72 213.32,1217.72 "/>
<polyline clip-path="url(#clip500)" style="stroke:#000000; stroke-linecap:round; stroke-linejoin:round; stroke-width:4; stroke-opacity:1; fill:none" points="194.422,873.952 213.32,873.952 "/>
<polyline clip-path="url(#clip500)" style="stroke:#000000; stroke-linecap:round; stroke-linejoin:round; stroke-width:4; stroke-opacity:1; fill:none" points="194.422,530.182 213.32,530.182 "/>
<polyline clip-path="url(#clip500)" style="stroke:#000000; stroke-linecap:round; stroke-linejoin:round; stroke-width:4; stroke-opacity:1; fill:none" points="194.422,186.413 213.32,186.413 "/>
<path clip-path="url(#clip500)" d="M51.3162 1218.17 L80.992 1218.17 L80.992 1222.11 L51.3162 1222.11 L51.3162 1218.17 Z" fill="#000000" fill-rule="nonzero" fill-opacity="1" /><path clip-path="url(#clip500)" d="M101.084 1203.52 Q97.4734 1203.52 95.6447 1207.08 Q93.8391 1210.63 93.8391 1217.76 Q93.8391 1224.86 95.6447 1228.43 Q97.4734 1231.97 101.084 1231.97 Q104.719 1231.97 106.524 1228.43 Q108.353 1224.86 108.353 1217.76 Q108.353 1210.63 106.524 1207.08 Q104.719 1203.52 101.084 1203.52 M101.084 1199.82 Q106.895 1199.82 109.95 1204.42 Q113.029 1209.01 113.029 1217.76 Q113.029 1226.48 109.95 1231.09 Q106.895 1235.67 101.084 1235.67 Q95.2743 1235.67 92.1956 1231.09 Q89.1401 1226.48 89.1401 1217.76 Q89.1401 1209.01 92.1956 1204.42 Q95.2743 1199.82 101.084 1199.82 Z" fill="#000000" fill-rule="nonzero" fill-opacity="1" /><path clip-path="url(#clip500)" d="M121.246 1229.12 L126.131 1229.12 L126.131 1235 L121.246 1235 L121.246 1229.12 Z" fill="#000000" fill-rule="nonzero" fill-opacity="1" /><path clip-path="url(#clip500)" d="M146.894 1215.86 Q143.746 1215.86 141.894 1218.01 Q140.066 1220.16 140.066 1223.91 Q140.066 1227.64 141.894 1229.82 Q143.746 1231.97 146.894 1231.97 Q150.043 1231.97 151.871 1229.82 Q153.723 1227.64 153.723 1223.91 Q153.723 1220.16 151.871 1218.01 Q150.043 1215.86 146.894 1215.86 M156.177 1201.21 L156.177 1205.46 Q154.417 1204.63 152.612 1204.19 Q150.83 1203.75 149.07 1203.75 Q144.441 1203.75 141.987 1206.88 Q139.556 1210 139.209 1216.32 Q140.575 1214.31 142.635 1213.24 Q144.695 1212.15 147.172 1212.15 Q152.38 1212.15 155.39 1215.33 Q158.422 1218.47 158.422 1223.91 Q158.422 1229.24 155.274 1232.46 Q152.126 1235.67 146.894 1235.67 Q140.899 1235.67 137.728 1231.09 Q134.556 1226.48 134.556 1217.76 Q134.556 1209.56 138.445 1204.7 Q142.334 1199.82 148.885 1199.82 Q150.644 1199.82 152.427 1200.16 Q154.232 1200.51 156.177 1201.21 Z" fill="#000000" fill-rule="nonzero" fill-opacity="1" /><path clip-path="url(#clip500)" d="M50.9921 874.403 L80.6679 874.403 L80.6679 878.338 L50.9921 878.338 L50.9921 874.403 Z" fill="#000000" fill-rule="nonzero" fill-opacity="1" /><path clip-path="url(#clip500)" d="M100.76 859.75 Q97.1493 859.75 95.3206 863.315 Q93.515 866.857 93.515 873.986 Q93.515 881.093 95.3206 884.658 Q97.1493 888.199 100.76 888.199 Q104.395 888.199 106.2 884.658 Q108.029 881.093 108.029 873.986 Q108.029 866.857 106.2 863.315 Q104.395 859.75 100.76 859.75 M100.76 856.047 Q106.571 856.047 109.626 860.653 Q112.705 865.237 112.705 873.986 Q112.705 882.713 109.626 887.32 Q106.571 891.903 100.76 891.903 Q94.9502 891.903 91.8715 887.32 Q88.816 882.713 88.816 873.986 Q88.816 865.237 91.8715 860.653 Q94.9502 856.047 100.76 856.047 Z" fill="#000000" fill-rule="nonzero" fill-opacity="1" /><path clip-path="url(#clip500)" d="M120.922 885.352 L125.807 885.352 L125.807 891.232 L120.922 891.232 L120.922 885.352 Z" fill="#000000" fill-rule="nonzero" fill-opacity="1" /><path clip-path="url(#clip500)" d="M148.839 860.746 L137.033 879.195 L148.839 879.195 L148.839 860.746 M147.612 856.672 L153.492 856.672 L153.492 879.195 L158.422 879.195 L158.422 883.084 L153.492 883.084 L153.492 891.232 L148.839 891.232 L148.839 883.084 L133.237 883.084 L133.237 878.57 L147.612 856.672 Z" fill="#000000" fill-rule="nonzero" fill-opacity="1" /><path clip-path="url(#clip500)" d="M53.0754 530.634 L82.7512 530.634 L82.7512 534.569 L53.0754 534.569 L53.0754 530.634 Z" fill="#000000" fill-rule="nonzero" fill-opacity="1" /><path clip-path="url(#clip500)" d="M102.844 515.981 Q99.2326 515.981 97.4039 519.546 Q95.5984 523.087 95.5984 530.217 Q95.5984 537.323 97.4039 540.888 Q99.2326 544.43 102.844 544.43 Q106.478 544.43 108.283 540.888 Q110.112 537.323 110.112 530.217 Q110.112 523.087 108.283 519.546 Q106.478 515.981 102.844 515.981 M102.844 512.277 Q108.654 512.277 111.709 516.884 Q114.788 521.467 114.788 530.217 Q114.788 538.944 111.709 543.55 Q108.654 548.133 102.844 548.133 Q97.0335 548.133 93.9549 543.55 Q90.8993 538.944 90.8993 530.217 Q90.8993 521.467 93.9549 516.884 Q97.0335 512.277 102.844 512.277 Z" fill="#000000" fill-rule="nonzero" fill-opacity="1" /><path clip-path="url(#clip500)" d="M123.006 541.583 L127.89 541.583 L127.89 547.462 L123.006 547.462 L123.006 541.583 Z" fill="#000000" fill-rule="nonzero" fill-opacity="1" /><path clip-path="url(#clip500)" d="M142.103 543.527 L158.422 543.527 L158.422 547.462 L136.478 547.462 L136.478 543.527 Q139.14 540.772 143.723 536.143 Q148.33 531.49 149.51 530.147 Q151.755 527.624 152.635 525.888 Q153.538 524.129 153.538 522.439 Q153.538 519.685 151.593 517.948 Q149.672 516.212 146.57 516.212 Q144.371 516.212 141.918 516.976 Q139.487 517.74 136.709 519.291 L136.709 514.569 Q139.533 513.435 141.987 512.856 Q144.441 512.277 146.478 512.277 Q151.848 512.277 155.042 514.962 Q158.237 517.648 158.237 522.138 Q158.237 524.268 157.427 526.189 Q156.64 528.087 154.533 530.68 Q153.955 531.351 150.853 534.569 Q147.751 537.763 142.103 543.527 Z" fill="#000000" fill-rule="nonzero" fill-opacity="1" /><path clip-path="url(#clip500)" d="M101.246 172.211 Q97.6354 172.211 95.8067 175.776 Q94.0012 179.318 94.0012 186.447 Q94.0012 193.554 95.8067 197.119 Q97.6354 200.66 101.246 200.66 Q104.881 200.66 106.686 197.119 Q108.515 193.554 108.515 186.447 Q108.515 179.318 106.686 175.776 Q104.881 172.211 101.246 172.211 M101.246 168.508 Q107.057 168.508 110.112 173.114 Q113.191 177.697 113.191 186.447 Q113.191 195.174 110.112 199.781 Q107.057 204.364 101.246 204.364 Q95.4363 204.364 92.3576 199.781 Q89.3021 195.174 89.3021 186.447 Q89.3021 177.697 92.3576 173.114 Q95.4363 168.508 101.246 168.508 Z" fill="#000000" fill-rule="nonzero" fill-opacity="1" /><path clip-path="url(#clip500)" d="M121.408 197.813 L126.293 197.813 L126.293 203.693 L121.408 203.693 L121.408 197.813 Z" fill="#000000" fill-rule="nonzero" fill-opacity="1" /><path clip-path="url(#clip500)" d="M146.478 172.211 Q142.867 172.211 141.038 175.776 Q139.232 179.318 139.232 186.447 Q139.232 193.554 141.038 197.119 Q142.867 200.66 146.478 200.66 Q150.112 200.66 151.918 197.119 Q153.746 193.554 153.746 186.447 Q153.746 179.318 151.918 175.776 Q150.112 172.211 146.478 172.211 M146.478 168.508 Q152.288 168.508 155.343 173.114 Q158.422 177.697 158.422 186.447 Q158.422 195.174 155.343 199.781 Q152.288 204.364 146.478 204.364 Q140.668 204.364 137.589 199.781 Q134.533 195.174 134.533 186.447 Q134.533 177.697 137.589 173.114 Q140.668 168.508 146.478 168.508 Z" fill="#000000" fill-rule="nonzero" fill-opacity="1" /><polyline clip-path="url(#clip502)" style="stroke:#009af9; stroke-linecap:round; stroke-linejoin:round; stroke-width:4; stroke-opacity:1; fill:none" points="194.422,1384.24 196.583,1371.32 198.743,1358.53 200.904,1345.87 203.064,1333.33 205.225,1320.92 207.385,1308.63 209.546,1296.47 211.706,1284.42 213.867,1272.5 216.027,1260.69 218.188,1249.01 220.348,1237.43 222.509,1225.98 224.669,1214.64 226.83,1203.41 228.99,1192.29 231.151,1181.28 233.311,1170.39 235.471,1159.6 237.632,1148.92 239.792,1138.34 241.953,1127.87 244.113,1117.51 246.274,1107.25 248.434,1097.09 250.595,1087.03 252.755,1077.07 254.916,1067.21 257.076,1057.45 259.237,1047.79 261.397,1038.22 263.558,1028.75 265.718,1019.37 267.879,1010.09 270.039,1000.89 272.2,991.794 274.36,982.784 276.521,973.864 278.681,965.033 280.842,956.29 283.002,947.634 285.163,939.064 287.323,930.58 289.484,922.18 291.644,913.864 293.805,905.631 295.965,897.479 298.126,889.409 300.286,881.42 302.447,873.509 304.607,865.678 306.768,857.924 308.928,850.248 311.089,842.649 313.249,835.124 315.41,827.675 317.57,820.3 319.731,812.999 321.891,805.77 324.052,798.613 326.212,791.527 328.373,784.512 330.533,777.567 332.694,770.691 334.854,763.884 337.015,757.144 339.175,750.471 341.336,743.865 343.496,737.325 345.657,730.85 347.817,724.439 349.978,718.092 352.138,711.809 354.299,705.588 356.459,699.429 358.62,693.332 360.78,687.295 362.941,681.318 365.101,675.401 367.262,669.543 369.422,663.743 371.583,658.001 373.743,652.316 375.904,646.688 378.064,641.116 380.225,635.599 382.385,630.137 384.546,624.73 386.706,619.376 388.867,614.076 391.027,608.829 393.188,603.633 395.348,598.49 397.509,593.398 399.669,588.356 401.83,583.365 403.99,578.423 406.151,573.531 408.311,568.687 410.472,563.891 412.632,559.143 414.793,554.443 416.953,549.789 419.114,545.182 421.274,540.62 423.435,536.104 425.595,531.633 427.755,527.207 429.916,522.825 432.076,518.486 434.237,514.19 436.397,509.938 438.558,505.727 440.718,501.559 442.879,497.432 445.039,493.347 447.2,489.302 449.36,485.297 451.521,481.332 453.681,477.407 455.842,473.521 458.002,469.674 460.163,465.865 462.323,462.093 464.484,458.36 466.644,454.663 468.805,451.004 470.965,447.381 473.126,443.794 475.286,440.242 477.447,436.726 479.607,433.245 481.768,429.799 483.928,426.387 486.089,423.009 488.249,419.665 490.41,416.353 492.57,413.075 494.731,409.83 496.891,406.616 499.052,403.435 501.212,400.285 503.373,397.167 505.533,394.08 507.694,391.023 509.854,387.997 512.015,385.002 514.175,382.036 516.336,379.099 518.496,376.192 520.657,373.314 522.817,370.464 524.978,367.643 527.138,364.85 529.299,362.085 531.459,359.347 533.62,356.637 535.78,353.953 537.941,351.297 540.101,348.666 542.262,346.063 544.422,343.485 546.583,340.932 548.743,338.405 550.904,335.904 553.064,333.427 555.225,330.975 557.385,328.547 559.546,326.144 561.706,323.764 563.867,321.408 566.027,319.076 568.188,316.767 570.348,314.481 572.509,312.217 574.669,309.977 576.83,307.758 578.99,305.561 581.151,303.387 583.311,301.234 585.472,299.102 587.632,296.992 589.793,294.903 591.953,292.834 594.114,290.786 596.274,288.759 598.435,286.751 600.595,284.764 602.756,282.796 604.916,280.848 607.077,278.919 609.237,277.01 611.398,275.119 613.558,273.248 615.718,271.395 617.879,269.56 620.039,267.744 622.2,265.946 624.36,264.166 626.521,262.403 628.681,260.658 630.842,258.931 633.002,257.22 635.163,255.527 637.323,253.851 639.484,252.191 641.644,250.548 643.805,248.922 645.965,247.311 648.126,245.717 650.286,244.138 652.447,242.575 654.607,241.028 656.768,239.496 658.928,237.98 661.089,236.479 663.249,234.992 665.41,233.52 667.57,232.063 669.731,230.621 671.891,229.193 674.052,227.779 676.212,226.379 678.373,224.993 680.533,223.621 682.694,222.263 684.854,220.918 687.015,219.587 689.175,218.268 691.336,216.963 693.496,215.671 695.657,214.392 697.817,213.125 699.978,211.871 702.138,210.63 704.299,209.401 706.459,208.184 708.62,206.979 710.78,205.786 712.941,204.605 715.101,203.436 717.262,202.278 719.422,201.132 721.583,199.997 723.743,198.874 725.904,197.762 728.064,196.661 730.225,195.57 732.385,194.491 734.546,193.423 736.706,192.365 738.867,191.317 741.027,190.281 743.188,189.254 745.348,188.238 747.509,187.232 749.669,186.235 751.83,185.249 753.99,184.273 756.151,183.306 758.311,182.349 760.472,181.402 762.632,180.464 764.793,179.535 766.953,178.616 769.114,177.706 771.274,176.805 773.435,175.913 775.595,175.029 777.756,174.155 779.916,173.289 782.077,172.432 784.237,171.584 786.398,170.743 788.558,169.912 790.719,169.088 792.879,168.273 795.04,167.466 797.2,166.667 799.361,165.876 801.521,165.092 803.681,164.317 805.842,163.549 808.002,162.789 810.163,162.036 812.323,161.291 814.484,160.554 816.644,159.823 818.805,159.1 820.965,158.384 823.126,157.675 825.286,156.974 827.447,156.279 829.607,155.591 831.768,154.91 833.928,154.236 836.089,153.568 838.249,152.907 840.41,152.253 842.57,151.605 844.731,150.964 846.891,150.329 849.052,149.7 851.212,149.078 853.373,148.462 855.533,147.852 857.694,147.248 859.854,146.65 862.015,146.058 864.175,145.472 866.336,144.892 868.496,144.318 870.657,143.749 872.817,143.186 874.978,142.628 877.138,142.077 879.299,141.53 881.459,140.989 883.62,140.454 885.78,139.924 887.941,139.399 890.101,138.879 892.262,138.365 894.422,137.856 896.583,137.351 898.743,136.852 900.904,136.358 903.064,135.869 905.225,135.384 907.385,134.905 909.546,134.43 911.706,133.96 913.867,133.494 916.027,133.034 918.188,132.577 920.348,132.126 922.509,131.679 924.669,131.236 926.83,130.798 928.99,130.364 931.151,129.934 933.311,129.509 935.472,129.087 937.632,128.671 939.793,128.258 941.953,127.849 944.114,127.444 946.274,127.044 948.435,126.647 950.595,126.254 952.756,125.866 954.916,125.481 957.077,125.099 959.237,124.722 961.398,124.348 963.558,123.979 965.719,123.612 967.879,123.25 970.04,122.891 972.2,122.535 974.361,122.183 976.521,121.835 978.682,121.49 980.842,121.149 983.003,120.811 985.163,120.476 987.324,120.145 989.484,119.817 991.645,119.492 993.805,119.171 995.965,118.852 998.126,118.537 1000.29,118.225 1002.45,117.916 1004.61,117.611 1006.77,117.308 1008.93,117.008 1011.09,116.712 1013.25,116.418 1015.41,116.127 1017.57,115.839 1019.73,115.554 1021.89,115.272 1024.05,114.993 1026.21,114.716 1028.37,114.443 1030.53,114.172 1032.69,113.903 1034.85,113.638 1037.01,113.375 1039.18,113.114 1041.34,112.857 1043.5,112.601 1045.66,112.349 1047.82,112.099 1049.98,111.851 1052.14,111.606 1054.3,111.363 1056.46,111.123 1058.62,110.885 1060.78,110.649 1062.94,110.416 1065.1,110.185 1067.26,109.957 1069.42,109.731 1071.58,109.506 1073.74,109.285 1075.9,109.065 1078.06,108.848 1080.22,108.632 1082.39,108.419 1084.55,108.208 1086.71,107.999 1088.87,107.792 1091.03,107.587 1093.19,107.385 1095.35,107.184 1097.51,106.985 1099.67,106.788 1101.83,106.593 1103.99,106.4 1106.15,106.209 1108.31,106.02 1110.47,105.833 1112.63,105.647 1114.79,105.464 1116.95,105.282 1119.11,105.102 1121.27,104.924 1123.43,104.747 1125.6,104.573 1127.76,104.4 1129.92,104.229 1132.08,104.059 1134.24,103.891 1136.4,103.725 1138.56,103.561 1140.72,103.398 1142.88,103.237 1145.04,103.077 1147.2,102.919 1149.36,102.763 1151.52,102.608 1153.68,102.455 1155.84,102.303 1158,102.153 1160.16,102.004 1162.32,101.857 1164.48,101.711 1166.64,101.567 1168.81,101.424 1170.97,101.282 1173.13,101.142 1175.29,101.004 1177.45,100.867 1179.61,100.731 1181.77,100.596 1183.93,100.463 1186.09,100.331 1188.25,100.201 1190.41,100.072 1192.57,99.9437 1194.73,99.8171 1196.89,99.6917 1199.05,99.5676 1201.21,99.4448 1203.37,99.3231 1205.53,99.2027 1207.69,99.0835 1209.85,98.9655 1212.01,98.8486 1214.18,98.7329 1216.34,98.6184 1218.5,98.505 1220.66,98.3927 1222.82,98.2816 1224.98,98.1716 1227.14,98.0626 1229.3,97.9547 1231.46,97.8479 1233.62,97.7422 1235.78,97.6375 1237.94,97.5339 1240.1,97.4313 1242.26,97.3297 1244.42,97.2291 1246.58,97.1295 1248.74,97.0308 1250.9,96.9332 1253.06,96.8365 1255.22,96.7408 1257.39,96.646 1259.55,96.5521 1261.71,96.4592 1263.87,96.3672 1266.03,96.2761 1268.19,96.1859 1270.35,96.0966 1272.51,96.0081 1274.67,95.9205 1276.83,95.8338 1278.99,95.748 1281.15,95.663 1283.31,95.5788 1285.47,95.4955 1287.63,95.413 1289.79,95.3314 1291.95,95.2505 1294.11,95.1705 1296.27,95.0912 1298.43,95.0127 1300.6,94.935 1302.76,94.8581 1304.92,94.782 1307.08,94.7066 1309.24,94.632 1311.4,94.5581 1313.56,94.485 1315.72,94.4126 1317.88,94.3409 1320.04,94.2699 1322.2,94.1997 1324.36,94.1301 1326.52,94.0613 1328.68,93.9931 1330.84,93.9257 1333,93.8589 1335.16,93.7928 1337.32,93.7273 1339.48,93.6625 1341.64,93.5983 1343.81,93.5348 1345.97,93.472 1348.13,93.4098 1350.29,93.3481 1352.45,93.2872 1354.61,93.2268 1356.77,93.167 1358.93,93.1079 1361.09,93.0493 1363.25,92.9913 1365.41,92.9339 1367.57,92.8771 1369.73,92.8209 1371.89,92.7652 1374.05,92.71 1376.21,92.6555 1378.37,92.6015 1380.53,92.548 1382.69,92.495 1384.85,92.4426 1387.01,92.3907 1389.18,92.3394 1391.34,92.2885 1393.5,92.2382 1395.66,92.1883 1397.82,92.139 1399.98,92.0901 1402.14,92.0417 1404.3,91.9939 1406.46,91.9464 1408.62,91.8995 1410.78,91.853 1412.94,91.807 1415.1,91.7615 1417.26,91.7164 1419.42,91.6717 1421.58,91.6275 1423.74,91.5837 1425.9,91.5404 1428.06,91.4975 1430.22,91.455 1432.39,91.4129 1434.55,91.3712 1436.71,91.33 1438.87,91.2891 1441.03,91.2486 1443.19,91.2086 1445.35,91.1689 1447.51,91.1296 1449.67,91.0907 1451.83,91.0522 1453.99,91.0141 1456.15,90.9763 1458.31,90.9389 1460.47,90.9018 1462.63,90.8652 1464.79,90.8288 1466.95,90.7929 1469.11,90.7573 1471.27,90.722 1473.43,90.6871 1475.6,90.6525 1477.76,90.6183 1479.92,90.5844 1482.08,90.5509 1484.24,90.5177 1486.4,90.4848 1488.56,90.4522 1490.72,90.42 1492.88,90.3881 1495.04,90.3565 1497.2,90.3252 1499.36,90.2942 1501.52,90.2636 1503.68,90.2332 1505.84,90.2032 1508,90.1734 1510.16,90.144 1512.32,90.1148 1514.48,90.086 1516.64,90.0574 1518.81,90.0291 1520.97,90.0011 1523.13,89.9734 1525.29,89.946 1527.45,89.9188 1529.61,89.8919 1531.77,89.8653 1533.93,89.839 1536.09,89.8129 1538.25,89.7871 1540.41,89.7615 1542.57,89.7362 1544.73,89.7112 1546.89,89.6864 1549.05,89.6619 1551.21,89.6376 1553.37,89.6136 1555.53,89.5898 1557.69,89.5662 1559.85,89.5429 1562.01,89.5198 1564.18,89.497 1566.34,89.4744 1568.5,89.452 1570.66,89.4298 1572.82,89.4079 1574.98,89.3862 1577.14,89.3647 1579.3,89.3434 1581.46,89.3224 1583.62,89.3015 1585.78,89.2809 1587.94,89.2605 1590.1,89.2403 1592.26,89.2202 1594.42,89.2004 1596.58,89.1808 1598.74,89.1614 1600.9,89.1422 1603.06,89.1231 1605.22,89.1043 1607.39,89.0856 1609.55,89.0672 1611.71,89.0489 1613.87,89.0308 1616.03,89.0129 1618.19,88.9951 1620.35,88.9776 1622.51,88.9602 1624.67,88.943 1626.83,88.9259 1628.99,88.909 1631.15,88.8923 1633.31,88.8758 1635.47,88.8594 1637.63,88.8432 1639.79,88.8271 1641.95,88.8112 1644.11,88.7954 1646.27,88.7798 1648.43,88.7644 1650.6,88.7491 1652.76,88.7339 1654.92,88.7189 1657.08,88.704 1659.24,88.6893 1661.4,88.6747 1663.56,88.6603 1665.72,88.646 1667.88,88.6318 1670.04,88.6178 1672.2,88.6039 1674.36,88.5901 1676.52,88.5765 1678.68,88.563 1680.84,88.5496 1683,88.5363 1685.16,88.5232 1687.32,88.5102 1689.48,88.4974 1691.64,88.4846 1693.81,88.472 1695.97,88.4595 1698.13,88.4472 1700.29,88.4349 1702.45,88.4228 1704.61,88.4108 1706.77,88.3989 1708.93,88.3872 1711.09,88.3755 1713.25,88.364 1715.41,88.3525 1717.57,88.3412 1719.73,88.33 1721.89,88.319 1724.05,88.308 1726.21,88.2971 1728.37,88.2864 1730.53,88.2757 1732.69,88.2652 1734.85,88.2548 1737.02,88.2444 1739.18,88.2342 1741.34,88.2241 1743.5,88.2141 1745.66,88.2042 1747.82,88.1944 1749.98,88.1847 1752.14,88.175 1754.3,88.1655 1756.46,88.1561 1758.62,88.1468 1760.78,88.1376 1762.94,88.1284 1765.1,88.1194 1767.26,88.1105 1769.42,88.1016 1771.58,88.0928 1773.74,88.0842 1775.9,88.0756 1778.06,88.0671 1780.22,88.0587 1782.39,88.0504 1784.55,88.0421 1786.71,88.034 1788.87,88.0259 1791.03,88.0179 1793.19,88.01 1795.35,88.0022 1797.51,87.9945 1799.67,87.9868 1801.83,87.9792 1803.99,87.9717 1806.15,87.9643 1808.31,87.957 1810.47,87.9497 1812.63,87.9425 1814.79,87.9354 1816.95,87.9283 1819.11,87.9214 1821.27,87.9145 1823.43,87.9076 1825.6,87.9009 1827.76,87.8942 1829.92,87.8876 1832.08,87.881 1834.24,87.8745 1836.4,87.8681 1838.56,87.8617 1840.72,87.8554 1842.88,87.8492 1845.04,87.8431 1847.2,87.837 1849.36,87.8309 1851.52,87.8249 1853.68,87.819 1855.84,87.8132 1858,87.8073 1860.16,87.8016 1862.32,87.7959 1864.48,87.7903 1866.64,87.7847 1868.81,87.7792 1870.97,87.7737 1873.13,87.7683 1875.29,87.763 1877.45,87.7577 1879.61,87.7524 1881.77,87.7472 1883.93,87.742 1886.09,87.7369 1888.25,87.7319 1890.41,87.7269 1892.57,87.7219 1894.73,87.717 1896.89,87.7121 1899.05,87.7073 1901.21,87.7025 1903.37,87.6978 1905.53,87.6931 1907.69,87.6884 1909.85,87.6838 1912.02,87.6793 1914.18,87.6747 1916.34,87.6702 1918.5,87.6658 1920.66,87.6614 1922.82,87.657 1924.98,87.6527 1927.14,87.6484 1929.3,87.6442 1931.46,87.64 1933.62,87.6358 1935.78,87.6317 1937.94,87.6276 1940.1,87.6235 1942.26,87.6195 1944.42,87.6155 1946.58,87.6116 1948.74,87.6077 1950.9,87.6039 1953.06,87.6 1955.22,87.5962 1957.39,87.5925 1959.55,87.5888 1961.71,87.5851 1963.87,87.5815 1966.03,87.5779 1968.19,87.5743 1970.35,87.5708 1972.51,87.5673 1974.67,87.5638 1976.83,87.5604 1978.99,87.557 1981.15,87.5536 1983.31,87.5503 1985.47,87.547 1987.63,87.5437 1989.79,87.5405 1991.95,87.5373 1994.11,87.5341 1996.27,87.531 1998.43,87.5279 2000.6,87.5248 2002.76,87.5218 2004.92,87.5188 2007.08,87.5158 2009.24,87.5129 2011.4,87.51 2013.56,87.5071 2015.72,87.5042 2017.88,87.5014 2020.04,87.4986 2022.2,87.4958 2024.36,87.4931 2026.52,87.4904 2028.68,87.4877 2030.84,87.4851 2033,87.4824 2035.16,87.4798 2037.32,87.4773 2039.48,87.4747 2041.64,87.4722 2043.81,87.4697 2045.97,87.4673 2048.13,87.4648 2050.29,87.4624 2052.45,87.46 2054.61,87.4577 2056.77,87.4553 2058.93,87.453 2061.09,87.4508 2063.25,87.4485 2065.41,87.4463 2067.57,87.4441 2069.73,87.4419 2071.89,87.4397 2074.05,87.4376 2076.21,87.4355 2078.37,87.4334 2080.53,87.4313 2082.69,87.4292 2084.85,87.4272 2087.02,87.4252 2089.18,87.4232 2091.34,87.4213 2093.5,87.4193 2095.66,87.4174 2097.82,87.4155 2099.98,87.4136 2102.14,87.4118 2104.3,87.4099 2106.46,87.4081 2108.62,87.4063 2110.78,87.4046 2112.94,87.4028 2115.1,87.4011 2117.26,87.3993 2119.42,87.3976 2121.58,87.3959 2123.74,87.3943 2125.9,87.3926 2128.06,87.391 2130.22,87.3894 2132.39,87.3878 2134.55,87.3862 2136.71,87.3846 2138.87,87.3831 2141.03,87.3815 2143.19,87.38 2145.35,87.3785 2147.51,87.377 2149.67,87.3755 2151.83,87.3741 2153.99,87.3726 2156.15,87.3712 2158.31,87.3698 2160.47,87.3684 2162.63,87.367 2164.79,87.3656 2166.95,87.3642 2169.11,87.3629 2171.27,87.3615 2173.43,87.3602 2175.6,87.3589 2177.76,87.3576 2179.92,87.3563 2182.08,87.355 2184.24,87.3538 2186.4,87.3525 2188.56,87.3512 2190.72,87.35 2192.88,87.3488 2195.04,87.3476 2197.2,87.3464 2199.36,87.3452 2201.52,87.344 2203.68,87.3428 2205.84,87.3416 2208,87.3404 2210.16,87.3393 2212.32,87.3381 2214.48,87.337 2216.64,87.3359 2218.81,87.3348 2220.97,87.3337 2223.13,87.3326 2225.29,87.3315 2227.45,87.3304 2229.61,87.3294 2231.77,87.3283 2233.93,87.3273 2236.09,87.3263 2238.25,87.3252 2240.41,87.3242 2242.57,87.3232 2244.73,87.3222 2246.89,87.3213 2249.05,87.3203 2251.21,87.3193 2253.37,87.3184 2255.53,87.3175 2257.69,87.3165 2259.85,87.3156 2262.02,87.3147 2264.18,87.3138 2266.34,87.3129 2268.5,87.312 2270.66,87.3111 2272.82,87.3103 2274.98,87.3094 2277.14,87.3086 2279.3,87.3077 2281.46,87.3069 2283.62,87.3061 2285.78,87.3053 2287.94,87.3044 2290.1,87.3036 2292.26,87.3029 2294.42,87.3021 2296.58,87.3013 2298.74,87.3005 2300.9,87.2998 2303.06,87.299 2305.23,87.2983 2307.39,87.2975 2309.55,87.2968 2311.71,87.2961 2313.87,87.2954 2316.03,87.2946 2318.19,87.2939 2320.35,87.2932 2322.51,87.2926 2324.67,87.2919 2326.83,87.2912 2328.99,87.2905 2331.15,87.2899 2333.31,87.2892 2335.47,87.2886 2337.63,87.2879 2339.79,87.2873 2341.95,87.2867 2344.11,87.286 2346.27,87.2854 2348.43,87.2848 2350.6,87.2842 2352.76,87.2836 "/>
<polyline clip-path="url(#clip502)" style="stroke:#e26f46; stroke-linecap:round; stroke-linejoin:round; stroke-width:4; stroke-opacity:1; fill:none" points="194.422,491.808 196.583,487.455 198.743,483.147 200.904,478.884 203.064,474.665 205.225,470.49 207.385,466.359 209.546,462.271 211.706,458.225 213.867,454.221 216.027,450.259 218.188,446.339 220.348,442.459 222.509,438.62 224.669,434.821 226.83,431.061 228.99,427.341 231.151,423.66 233.311,420.016 235.471,416.411 237.632,412.844 239.792,409.314 241.953,405.821 244.113,402.364 246.274,398.943 248.434,395.558 250.595,392.209 252.755,388.895 254.916,385.615 257.076,382.369 259.237,379.158 261.397,375.98 263.558,372.835 265.718,369.723 267.879,366.644 270.039,363.597 272.2,360.583 274.36,357.599 276.521,354.647 278.681,351.726 280.842,348.836 283.002,345.976 285.163,343.145 287.323,340.345 289.484,337.574 291.644,334.832 293.805,332.119 295.965,329.434 298.126,326.778 300.286,324.15 302.447,321.549 304.607,318.975 306.768,316.429 308.928,313.909 311.089,311.416 313.249,308.949 315.41,306.508 317.57,304.093 319.731,301.703 321.891,299.339 324.052,296.999 326.212,294.684 328.373,292.393 330.533,290.127 332.694,287.884 334.854,285.665 337.015,283.469 339.175,281.297 341.336,279.148 343.496,277.021 345.657,274.917 347.817,272.835 349.978,270.775 352.138,268.737 354.299,266.72 356.459,264.725 358.62,262.751 360.78,260.798 362.941,258.865 365.101,256.953 367.262,255.061 369.422,253.19 371.583,251.338 373.743,249.505 375.904,247.693 378.064,245.899 380.225,244.124 382.385,242.369 384.546,240.632 386.706,238.913 388.867,237.213 391.027,235.53 393.188,233.866 395.348,232.219 397.509,230.59 399.669,228.978 401.83,227.383 403.99,225.805 406.151,224.244 408.311,222.7 410.472,221.172 412.632,219.66 414.793,218.165 416.953,216.685 419.114,215.221 421.274,213.773 423.435,212.34 425.595,210.923 427.755,209.521 429.916,208.134 432.076,206.761 434.237,205.403 436.397,204.06 438.558,202.731 440.718,201.417 442.879,200.116 445.039,198.83 447.2,197.557 449.36,196.298 451.521,195.052 453.681,193.82 455.842,192.601 458.002,191.395 460.163,190.202 462.323,189.022 464.484,187.854 466.644,186.699 468.805,185.557 470.965,184.427 473.126,183.308 475.286,182.202 477.447,181.108 479.607,180.026 481.768,178.955 483.928,177.896 486.089,176.848 488.249,175.812 490.41,174.786 492.57,173.772 494.731,172.769 496.891,171.776 499.052,170.795 501.212,169.824 503.373,168.863 505.533,167.913 507.694,166.973 509.854,166.043 512.015,165.123 514.175,164.213 516.336,163.313 518.496,162.423 520.657,161.543 522.817,160.672 524.978,159.811 527.138,158.958 529.299,158.116 531.459,157.282 533.62,156.458 535.78,155.642 537.941,154.835 540.101,154.037 542.262,153.248 544.422,152.468 546.583,151.695 548.743,150.932 550.904,150.176 553.064,149.429 555.225,148.69 557.385,147.96 559.546,147.237 561.706,146.522 563.867,145.815 566.027,145.115 568.188,144.424 570.348,143.739 572.509,143.063 574.669,142.394 576.83,141.732 578.99,141.077 581.151,140.43 583.311,139.789 585.472,139.156 587.632,138.53 589.793,137.91 591.953,137.298 594.114,136.692 596.274,136.092 598.435,135.5 600.595,134.914 602.756,134.334 604.916,133.761 607.077,133.194 609.237,132.633 611.398,132.079 613.558,131.53 615.718,130.988 617.879,130.452 620.039,129.921 622.2,129.397 624.36,128.878 626.521,128.366 628.681,127.858 630.842,127.357 633.002,126.861 635.163,126.371 637.323,125.886 639.484,125.406 641.644,124.932 643.805,124.463 645.965,123.999 648.126,123.541 650.286,123.088 652.447,122.639 654.607,122.196 656.768,121.758 658.928,121.324 661.089,120.896 663.249,120.472 665.41,120.053 667.57,119.639 669.731,119.229 671.891,118.824 674.052,118.424 676.212,118.028 678.373,117.636 680.533,117.249 682.694,116.866 684.854,116.488 687.015,116.114 689.175,115.744 691.336,115.378 693.496,115.016 695.657,114.659 697.817,114.305 699.978,113.955 702.138,113.61 704.299,113.268 706.459,112.93 708.62,112.596 710.78,112.266 712.941,111.94 715.101,111.617 717.262,111.298 719.422,110.982 721.583,110.67 723.743,110.362 725.904,110.057 728.064,109.756 730.225,109.458 732.385,109.164 734.546,108.873 736.706,108.585 738.867,108.3 741.027,108.019 743.188,107.741 745.348,107.467 747.509,107.195 749.669,106.926 751.83,106.661 753.99,106.399 756.151,106.14 758.311,105.883 760.472,105.63 762.632,105.38 764.793,105.132 766.953,104.887 769.114,104.646 771.274,104.407 773.435,104.171 775.595,103.937 777.756,103.706 779.916,103.478 782.077,103.253 784.237,103.03 786.398,102.81 788.558,102.592 790.719,102.377 792.879,102.165 795.04,101.955 797.2,101.747 799.361,101.542 801.521,101.339 803.681,101.139 805.842,100.941 808.002,100.745 810.163,100.552 812.323,100.36 814.484,100.172 816.644,99.9849 818.805,99.8004 820.965,99.6181 823.126,99.438 825.286,99.2599 827.447,99.084 829.607,98.9102 831.768,98.7384 833.928,98.5687 836.089,98.401 838.249,98.2353 840.41,98.0715 842.57,97.9098 844.731,97.7499 846.891,97.592 849.052,97.4359 851.212,97.2817 853.373,97.1294 855.533,96.9789 857.694,96.8302 859.854,96.6834 862.015,96.5382 864.175,96.3949 866.336,96.2532 868.496,96.1133 870.657,95.9751 872.817,95.8386 874.978,95.7037 877.138,95.5704 879.299,95.4388 881.459,95.3088 883.62,95.1804 885.78,95.0535 887.941,94.9282 890.101,94.8044 892.262,94.6822 894.422,94.5614 896.583,94.4421 898.743,94.3243 900.904,94.208 903.064,94.093 905.225,93.9795 907.385,93.8674 909.546,93.7567 911.706,93.6473 913.867,93.5393 916.027,93.4327 918.188,93.3273 920.348,93.2233 922.509,93.1206 924.669,93.0191 926.83,92.9189 928.99,92.82 931.151,92.7223 933.311,92.6258 935.472,92.5305 937.632,92.4365 939.793,92.3436 941.953,92.2518 944.114,92.1612 946.274,92.0718 948.435,91.9835 950.595,91.8963 952.756,91.8102 954.916,91.7252 957.077,91.6412 959.237,91.5583 961.398,91.4765 963.558,91.3958 965.719,91.316 967.879,91.2373 970.04,91.1596 972.2,91.0829 974.361,91.0072 976.521,90.9324 978.682,90.8586 980.842,90.7858 983.003,90.7139 985.163,90.643 987.324,90.573 989.484,90.5039 991.645,90.4357 993.805,90.3684 995.965,90.302 998.126,90.2365 1000.29,90.1718 1002.45,90.108 1004.61,90.045 1006.77,89.9829 1008.93,89.9216 1011.09,89.8611 1013.25,89.8014 1015.41,89.7425 1017.57,89.6844 1019.73,89.6271 1021.89,89.5706 1024.05,89.5148 1026.21,89.4598 1028.37,89.4055 1030.53,89.3519 1032.69,89.2991 1034.85,89.247 1037.01,89.1956 1039.18,89.1449 1041.34,89.0949 1043.5,89.0456 1045.66,88.997 1047.82,88.949 1049.98,88.9017 1052.14,88.855 1054.3,88.809 1056.46,88.7636 1058.62,88.7189 1060.78,88.6748 1062.94,88.6313 1065.1,88.5884 1067.26,88.5461 1069.42,88.5043 1071.58,88.4632 1073.74,88.4227 1075.9,88.3827 1078.06,88.3433 1080.22,88.3044 1082.39,88.2661 1084.55,88.2283 1086.71,88.1911 1088.87,88.1544 1091.03,88.1182 1093.19,88.0826 1095.35,88.0474 1097.51,88.0128 1099.67,87.9786 1101.83,87.945 1103.99,87.9118 1106.15,87.8791 1108.31,87.8469 1110.47,87.8152 1112.63,87.7839 1114.79,87.7531 1116.95,87.7227 1119.11,87.6928 1121.27,87.6634 1123.43,87.6344 1125.6,87.6058 1127.76,87.5776 1129.92,87.5499 1132.08,87.5226 1134.24,87.4957 1136.4,87.4693 1138.56,87.4432 1140.72,87.4175 1142.88,87.3923 1145.04,87.3674 1147.2,87.3429 1149.36,87.3188 1151.52,87.2951 1153.68,87.2717 1155.84,87.2488 1158,87.2262 1160.16,87.2039 1162.32,87.182 1164.48,87.1605 1166.64,87.1393 1168.81,87.1185 1170.97,87.098 1173.13,87.0778 1175.29,87.058 1177.45,87.0384 1179.61,87.0193 1181.77,87.0004 1183.93,86.9818 1186.09,86.9636 1188.25,86.9457 1190.41,86.9281 1192.57,86.9107 1194.73,86.8937 1196.89,86.877 1199.05,86.8605 1201.21,86.8443 1203.37,86.8285 1205.53,86.8128 1207.69,86.7975 1209.85,86.7824 1212.01,86.7676 1214.18,86.7531 1216.34,86.7388 1218.5,86.7248 1220.66,86.711 1222.82,86.6975 1224.98,86.6843 1227.14,86.6712 1229.3,86.6584 1231.46,86.6459 1233.62,86.6336 1235.78,86.6215 1237.94,86.6096 1240.1,86.598 1242.26,86.5865 1244.42,86.5753 1246.58,86.5643 1248.74,86.5536 1250.9,86.543 1253.06,86.5326 1255.22,86.5225 1257.39,86.5125 1259.55,86.5027 1261.71,86.4932 1263.87,86.4838 1266.03,86.4746 1268.19,86.4656 1270.35,86.4568 1272.51,86.4481 1274.67,86.4397 1276.83,86.4314 1278.99,86.4233 1281.15,86.4154 1283.31,86.4076 1285.47,86.4 1287.63,86.3926 1289.79,86.3854 1291.95,86.3783 1294.11,86.3714 1296.27,86.3646 1298.43,86.358 1300.6,86.3516 1302.76,86.3453 1304.92,86.3391 1307.08,86.3331 1309.24,86.3273 1311.4,86.3216 1313.56,86.3161 1315.72,86.3107 1317.88,86.3054 1320.04,86.3003 1322.2,86.2953 1324.36,86.2905 1326.52,86.2858 1328.68,86.2812 1330.84,86.2767 1333,86.2724 1335.16,86.2682 1337.32,86.2642 1339.48,86.2602 1341.64,86.2564 1343.81,86.2527 1345.97,86.2491 1348.13,86.2457 1350.29,86.2423 1352.45,86.2391 1354.61,86.236 1356.77,86.2329 1358.93,86.23 1361.09,86.2272 1363.25,86.2246 1365.41,86.222 1367.57,86.2195 1369.73,86.2171 1371.89,86.2148 1374.05,86.2127 1376.21,86.2106 1378.37,86.2086 1380.53,86.2067 1382.69,86.2049 1384.85,86.2032 1387.01,86.2015 1389.18,86.2 1391.34,86.1986 1393.5,86.1972 1395.66,86.1959 1397.82,86.1947 1399.98,86.1936 1402.14,86.1926 1404.3,86.1916 1406.46,86.1907 1408.62,86.1899 1410.78,86.1892 1412.94,86.1885 1415.1,86.1879 1417.26,86.1874 1419.42,86.187 1421.58,86.1866 1423.74,86.1863 1425.9,86.186 1428.06,86.1859 1430.22,86.1857 1432.39,86.1857 1434.55,86.1857 1436.71,86.1857 1438.87,86.1859 1441.03,86.186 1443.19,86.1863 1445.35,86.1866 1447.51,86.1869 1449.67,86.1873 1451.83,86.1877 1453.99,86.1882 1456.15,86.1888 1458.31,86.1894 1460.47,86.1901 1462.63,86.1908 1464.79,86.1915 1466.95,86.1923 1469.11,86.1932 1471.27,86.194 1473.43,86.195 1475.6,86.196 1477.76,86.197 1479.92,86.1981 1482.08,86.1992 1484.24,86.2003 1486.4,86.2015 1488.56,86.2028 1490.72,86.2041 1492.88,86.2054 1495.04,86.2067 1497.2,86.2081 1499.36,86.2096 1501.52,86.2111 1503.68,86.2126 1505.84,86.2141 1508,86.2157 1510.16,86.2173 1512.32,86.219 1514.48,86.2207 1516.64,86.2224 1518.81,86.2242 1520.97,86.226 1523.13,86.2278 1525.29,86.2297 1527.45,86.2315 1529.61,86.2335 1531.77,86.2354 1533.93,86.2374 1536.09,86.2394 1538.25,86.2414 1540.41,86.2435 1542.57,86.2456 1544.73,86.2477 1546.89,86.2498 1549.05,86.252 1551.21,86.2542 1553.37,86.2564 1555.53,86.2586 1557.69,86.2609 1559.85,86.2632 1562.01,86.2655 1564.18,86.2678 1566.34,86.2702 1568.5,86.2726 1570.66,86.2749 1572.82,86.2774 1574.98,86.2798 1577.14,86.2822 1579.3,86.2847 1581.46,86.2872 1583.62,86.2897 1585.78,86.2922 1587.94,86.2948 1590.1,86.2973 1592.26,86.2999 1594.42,86.3025 1596.58,86.3051 1598.74,86.3077 1600.9,86.3103 1603.06,86.313 1605.22,86.3156 1607.39,86.3183 1609.55,86.321 1611.71,86.3237 1613.87,86.3264 1616.03,86.3291 1618.19,86.3318 1620.35,86.3345 1622.51,86.3373 1624.67,86.34 1626.83,86.3428 1628.99,86.3456 1631.15,86.3483 1633.31,86.3511 1635.47,86.3539 1637.63,86.3567 1639.79,86.3595 1641.95,86.3623 1644.11,86.3651 1646.27,86.368 1648.43,86.3708 1650.6,86.3736 1652.76,86.3765 1654.92,86.3793 1657.08,86.3821 1659.24,86.385 1661.4,86.3878 1663.56,86.3907 1665.72,86.3935 1667.88,86.3964 1670.04,86.3992 1672.2,86.4021 1674.36,86.405 1676.52,86.4078 1678.68,86.4107 1680.84,86.4135 1683,86.4164 1685.16,86.4193 1687.32,86.4222 1689.48,86.425 1691.64,86.4279 1693.81,86.4308 1695.97,86.4336 1698.13,86.4365 1700.29,86.4394 1702.45,86.4423 1704.61,86.4451 1706.77,86.448 1708.93,86.4509 1711.09,86.4538 1713.25,86.4567 1715.41,86.4595 1717.57,86.4624 1719.73,86.4653 1721.89,86.4682 1724.05,86.471 1726.21,86.4739 1728.37,86.4768 1730.53,86.4797 1732.69,86.4825 1734.85,86.4854 1737.02,86.4883 1739.18,86.4911 1741.34,86.494 1743.5,86.4969 1745.66,86.4997 1747.82,86.5026 1749.98,86.5055 1752.14,86.5083 1754.3,86.5112 1756.46,86.514 1758.62,86.5169 1760.78,86.5197 1762.94,86.5226 1765.1,86.5254 1767.26,86.5283 1769.42,86.5311 1771.58,86.5339 1773.74,86.5368 1775.9,86.5396 1778.06,86.5424 1780.22,86.5452 1782.39,86.5481 1784.55,86.5509 1786.71,86.5537 1788.87,86.5565 1791.03,86.5593 1793.19,86.5621 1795.35,86.5649 1797.51,86.5677 1799.67,86.5705 1801.83,86.5733 1803.99,86.5761 1806.15,86.5788 1808.31,86.5816 1810.47,86.5844 1812.63,86.5871 1814.79,86.5899 1816.95,86.5926 1819.11,86.5954 1821.27,86.5981 1823.43,86.6009 1825.6,86.6036 1827.76,86.6063 1829.92,86.609 1832.08,86.6117 1834.24,86.6144 1836.4,86.6172 1838.56,86.6198 1840.72,86.6225 1842.88,86.6252 1845.04,86.6279 1847.2,86.6306 1849.36,86.6332 1851.52,86.6359 1853.68,86.6385 1855.84,86.6412 1858,86.6438 1860.16,86.6464 1862.32,86.6491 1864.48,86.6517 1866.64,86.6543 1868.81,86.6569 1870.97,86.6595 1873.13,86.6621 1875.29,86.6646 1877.45,86.6672 1879.61,86.6698 1881.77,86.6723 1883.93,86.6749 1886.09,86.6774 1888.25,86.6799 1890.41,86.6824 1892.57,86.685 1894.73,86.6875 1896.89,86.69 1899.05,86.6924 1901.21,86.6949 1903.37,86.6974 1905.53,86.6998 1907.69,86.7023 1909.85,86.7047 1912.02,86.7072 1914.18,86.7096 1916.34,86.712 1918.5,86.7144 1920.66,86.7168 1922.82,86.7192 1924.98,86.7215 1927.14,86.7239 1929.3,86.7263 1931.46,86.7286 1933.62,86.731 1935.78,86.7333 1937.94,86.7356 1940.1,86.7379 1942.26,86.7402 1944.42,86.7425 1946.58,86.7448 1948.74,86.7471 1950.9,86.7494 1953.06,86.7516 1955.22,86.7539 1957.39,86.7561 1959.55,86.7584 1961.71,86.7606 1963.87,86.7628 1966.03,86.7651 1968.19,86.7673 1970.35,86.7695 1972.51,86.7717 1974.67,86.7738 1976.83,86.776 1978.99,86.7782 1981.15,86.7804 1983.31,86.7825 1985.47,86.7846 1987.63,86.7868 1989.79,86.7889 1991.95,86.791 1994.11,86.7931 1996.27,86.7953 1998.43,86.7974 2000.6,86.7994 2002.76,86.8015 2004.92,86.8036 2007.08,86.8057 2009.24,86.8077 2011.4,86.8098 2013.56,86.8118 2015.72,86.8139 2017.88,86.8159 2020.04,86.8179 2022.2,86.8199 2024.36,86.8219 2026.52,86.8239 2028.68,86.8259 2030.84,86.8279 2033,86.8299 2035.16,86.8318 2037.32,86.8338 2039.48,86.8358 2041.64,86.8377 2043.81,86.8396 2045.97,86.8416 2048.13,86.8435 2050.29,86.8454 2052.45,86.8473 2054.61,86.8492 2056.77,86.8511 2058.93,86.853 2061.09,86.8549 2063.25,86.8568 2065.41,86.8586 2067.57,86.8605 2069.73,86.8623 2071.89,86.8642 2074.05,86.866 2076.21,86.8679 2078.37,86.8697 2080.53,86.8715 2082.69,86.8733 2084.85,86.8751 2087.02,86.8769 2089.18,86.8787 2091.34,86.8805 2093.5,86.8822 2095.66,86.884 2097.82,86.8858 2099.98,86.8875 2102.14,86.8892 2104.3,86.891 2106.46,86.8927 2108.62,86.8944 2110.78,86.8961 2112.94,86.8979 2115.1,86.8996 2117.26,86.9012 2119.42,86.9029 2121.58,86.9046 2123.74,86.9063 2125.9,86.9079 2128.06,86.9096 2130.22,86.9112 2132.39,86.9129 2134.55,86.9145 2136.71,86.9161 2138.87,86.9178 2141.03,86.9194 2143.19,86.921 2145.35,86.9226 2147.51,86.9242 2149.67,86.9258 2151.83,86.9273 2153.99,86.9289 2156.15,86.9305 2158.31,86.932 2160.47,86.9336 2162.63,86.9351 2164.79,86.9366 2166.95,86.9382 2169.11,86.9397 2171.27,86.9412 2173.43,86.9427 2175.6,86.9442 2177.76,86.9457 2179.92,86.9472 2182.08,86.9486 2184.24,86.9501 2186.4,86.9516 2188.56,86.953 2190.72,86.9544 2192.88,86.9559 2195.04,86.9573 2197.2,86.9587 2199.36,86.9601 2201.52,86.9616 2203.68,86.963 2205.84,86.9643 2208,86.9657 2210.16,86.9671 2212.32,86.9685 2214.48,86.9698 2216.64,86.9712 2218.81,86.9725 2220.97,86.9739 2223.13,86.9752 2225.29,86.9765 2227.45,86.9779 2229.61,86.9792 2231.77,86.9805 2233.93,86.9818 2236.09,86.9831 2238.25,86.9844 2240.41,86.9857 2242.57,86.9869 2244.73,86.9882 2246.89,86.9895 2249.05,86.9907 2251.21,86.992 2253.37,86.9932 2255.53,86.9945 2257.69,86.9957 2259.85,86.997 2262.02,86.9982 2264.18,86.9994 2266.34,87.0006 2268.5,87.0018 2270.66,87.003 2272.82,87.0042 2274.98,87.0054 2277.14,87.0066 2279.3,87.0078 2281.46,87.0089 2283.62,87.0101 2285.78,87.0113 2287.94,87.0124 2290.1,87.0136 2292.26,87.0147 2294.42,87.0158 2296.58,87.017 2298.74,87.0181 2300.9,87.0192 2303.06,87.0203 2305.23,87.0214 2307.39,87.0225 2309.55,87.0236 2311.71,87.0247 2313.87,87.0258 2316.03,87.0269 2318.19,87.028 2320.35,87.029 2322.51,87.0301 2324.67,87.0312 2326.83,87.0322 2328.99,87.0333 2331.15,87.0343 2333.31,87.0354 2335.47,87.0364 2337.63,87.0374 2339.79,87.0384 2341.95,87.0395 2344.11,87.0405 2346.27,87.0415 2348.43,87.0425 2350.6,87.0435 2352.76,87.0445 "/>
<path clip-path="url(#clip500)" d="M1805.58 1377.32 L2280.81 1377.32 L2280.81 1221.8 L1805.58 1221.8  Z" fill="#ffffff" fill-rule="evenodd" fill-opacity="1"/>
<polyline clip-path="url(#clip500)" style="stroke:#000000; stroke-linecap:round; stroke-linejoin:round; stroke-width:4; stroke-opacity:1; fill:none" points="1805.58,1377.32 2280.81,1377.32 2280.81,1221.8 1805.58,1221.8 1805.58,1377.32 "/>
<polyline clip-path="url(#clip500)" style="stroke:#009af9; stroke-linecap:round; stroke-linejoin:round; stroke-width:4; stroke-opacity:1; fill:none" points="1829.56,1273.64 1973.45,1273.64 "/>
<path clip-path="url(#clip500)" d="M1997.43 1264.99 L2001.95 1264.99 L2010.05 1286.75 L2018.15 1264.99 L2022.66 1264.99 L2012.94 1290.92 L2007.16 1290.92 L1997.43 1264.99 Z" fill="#000000" fill-rule="nonzero" fill-opacity="1" /><path clip-path="url(#clip500)" d="M2029.96 1286.98 L2037.6 1286.98 L2037.6 1260.61 L2029.28 1262.28 L2029.28 1258.02 L2037.55 1256.36 L2042.22 1256.36 L2042.22 1286.98 L2049.86 1286.98 L2049.86 1290.92 L2029.96 1290.92 L2029.96 1286.98 Z" fill="#000000" fill-rule="nonzero" fill-opacity="1" /><path clip-path="url(#clip500)" d="M2067.97 1274.27 L2067.97 1281.49 L2076.09 1281.49 L2076.09 1283.69 L2067.97 1283.69 L2067.97 1290.92 L2065.53 1290.92 L2065.53 1283.69 L2057.41 1283.69 L2057.41 1281.49 L2065.53 1281.49 L2065.53 1274.27 L2067.97 1274.27 Z" fill="#000000" fill-rule="nonzero" fill-opacity="1" /><path clip-path="url(#clip500)" d="M2100.26 1265.75 L2100.26 1269.78 Q2098.45 1268.86 2096.51 1268.39 Q2094.56 1267.93 2092.48 1267.93 Q2089.31 1267.93 2087.71 1268.9 Q2086.14 1269.87 2086.14 1271.82 Q2086.14 1273.3 2087.27 1274.16 Q2088.4 1274.99 2091.83 1275.75 L2093.29 1276.08 Q2097.83 1277.05 2099.72 1278.83 Q2101.65 1280.59 2101.65 1283.76 Q2101.65 1287.37 2098.78 1289.48 Q2095.93 1291.59 2090.93 1291.59 Q2088.84 1291.59 2086.58 1291.17 Q2084.33 1290.78 2081.83 1289.97 L2081.83 1285.57 Q2084.19 1286.79 2086.48 1287.42 Q2088.78 1288.02 2091.02 1288.02 Q2094.03 1288.02 2095.65 1287 Q2097.27 1285.96 2097.27 1284.09 Q2097.27 1282.35 2096.09 1281.42 Q2094.93 1280.5 2090.97 1279.64 L2089.49 1279.3 Q2085.53 1278.46 2083.78 1276.75 Q2082.02 1275.01 2082.02 1272 Q2082.02 1268.35 2084.61 1266.36 Q2087.2 1264.36 2091.97 1264.36 Q2094.33 1264.36 2096.41 1264.71 Q2098.5 1265.06 2100.26 1265.75 Z" fill="#000000" fill-rule="nonzero" fill-opacity="1" /><path clip-path="url(#clip500)" d="M2112.64 1257.63 L2112.64 1264.99 L2121.41 1264.99 L2121.41 1268.3 L2112.64 1268.3 L2112.64 1282.37 Q2112.64 1285.54 2113.5 1286.45 Q2114.38 1287.35 2117.04 1287.35 L2121.41 1287.35 L2121.41 1290.92 L2117.04 1290.92 Q2112.11 1290.92 2110.23 1289.09 Q2108.36 1287.23 2108.36 1282.37 L2108.36 1268.3 L2105.23 1268.3 L2105.23 1264.99 L2108.36 1264.99 L2108.36 1257.63 L2112.64 1257.63 Z" fill="#000000" fill-rule="nonzero" fill-opacity="1" /><path clip-path="url(#clip500)" d="M2137.06 1267.98 Q2133.64 1267.98 2131.65 1270.66 Q2129.65 1273.32 2129.65 1277.98 Q2129.65 1282.63 2131.62 1285.31 Q2133.61 1287.98 2137.06 1287.98 Q2140.46 1287.98 2142.46 1285.29 Q2144.45 1282.61 2144.45 1277.98 Q2144.45 1273.37 2142.46 1270.68 Q2140.46 1267.98 2137.06 1267.98 M2137.06 1264.36 Q2142.62 1264.36 2145.79 1267.98 Q2148.96 1271.59 2148.96 1277.98 Q2148.96 1284.34 2145.79 1287.98 Q2142.62 1291.59 2137.06 1291.59 Q2131.48 1291.59 2128.31 1287.98 Q2125.16 1284.34 2125.16 1277.98 Q2125.16 1271.59 2128.31 1267.98 Q2131.48 1264.36 2137.06 1264.36 Z" fill="#000000" fill-rule="nonzero" fill-opacity="1" /><path clip-path="url(#clip500)" d="M2171.04 1268.97 Q2170.33 1268.55 2169.47 1268.37 Q2168.64 1268.16 2167.62 1268.16 Q2164.01 1268.16 2162.06 1270.52 Q2160.14 1272.86 2160.14 1277.26 L2160.14 1290.92 L2155.86 1290.92 L2155.86 1264.99 L2160.14 1264.99 L2160.14 1269.02 Q2161.48 1266.66 2163.64 1265.52 Q2165.79 1264.36 2168.87 1264.36 Q2169.31 1264.36 2169.84 1264.43 Q2170.37 1264.48 2171.02 1264.6 L2171.04 1268.97 Z" fill="#000000" fill-rule="nonzero" fill-opacity="1" /><path clip-path="url(#clip500)" d="M2187.29 1277.88 Q2182.13 1277.88 2180.14 1279.06 Q2178.15 1280.24 2178.15 1283.09 Q2178.15 1285.36 2179.63 1286.7 Q2181.14 1288.02 2183.71 1288.02 Q2187.25 1288.02 2189.38 1285.52 Q2191.53 1283 2191.53 1278.83 L2191.53 1277.88 L2187.29 1277.88 M2195.79 1276.12 L2195.79 1290.92 L2191.53 1290.92 L2191.53 1286.98 Q2190.07 1289.34 2187.9 1290.48 Q2185.72 1291.59 2182.57 1291.59 Q2178.59 1291.59 2176.23 1289.36 Q2173.89 1287.12 2173.89 1283.37 Q2173.89 1278.99 2176.81 1276.77 Q2179.75 1274.55 2185.56 1274.55 L2191.53 1274.55 L2191.53 1274.13 Q2191.53 1271.19 2189.58 1269.6 Q2187.66 1267.98 2184.17 1267.98 Q2181.95 1267.98 2179.84 1268.51 Q2177.73 1269.04 2175.79 1270.11 L2175.79 1266.17 Q2178.13 1265.27 2180.33 1264.83 Q2182.52 1264.36 2184.61 1264.36 Q2190.23 1264.36 2193.01 1267.28 Q2195.79 1270.2 2195.79 1276.12 Z" fill="#000000" fill-rule="nonzero" fill-opacity="1" /><path clip-path="url(#clip500)" d="M2221.62 1277.65 Q2221.62 1273.02 2219.7 1270.48 Q2217.8 1267.93 2214.35 1267.93 Q2210.93 1267.93 2209.01 1270.48 Q2207.11 1273.02 2207.11 1277.65 Q2207.11 1282.26 2209.01 1284.8 Q2210.93 1287.35 2214.35 1287.35 Q2217.8 1287.35 2219.7 1284.8 Q2221.62 1282.26 2221.62 1277.65 M2225.88 1287.7 Q2225.88 1294.32 2222.94 1297.54 Q2220 1300.78 2213.94 1300.78 Q2211.69 1300.78 2209.7 1300.43 Q2207.71 1300.11 2205.83 1299.41 L2205.83 1295.27 Q2207.71 1296.29 2209.54 1296.77 Q2211.37 1297.26 2213.27 1297.26 Q2217.46 1297.26 2219.54 1295.06 Q2221.62 1292.88 2221.62 1288.46 L2221.62 1286.36 Q2220.3 1288.65 2218.24 1289.78 Q2216.18 1290.92 2213.31 1290.92 Q2208.54 1290.92 2205.63 1287.28 Q2202.71 1283.65 2202.71 1277.65 Q2202.71 1271.63 2205.63 1268 Q2208.54 1264.36 2213.31 1264.36 Q2216.18 1264.36 2218.24 1265.5 Q2220.3 1266.63 2221.62 1268.92 L2221.62 1264.99 L2225.88 1264.99 L2225.88 1287.7 Z" fill="#000000" fill-rule="nonzero" fill-opacity="1" /><path clip-path="url(#clip500)" d="M2256.83 1276.89 L2256.83 1278.97 L2237.25 1278.97 Q2237.52 1283.37 2239.89 1285.68 Q2242.27 1287.98 2246.51 1287.98 Q2248.96 1287.98 2251.25 1287.37 Q2253.57 1286.77 2255.83 1285.57 L2255.83 1289.6 Q2253.54 1290.57 2251.14 1291.08 Q2248.73 1291.59 2246.25 1291.59 Q2240.05 1291.59 2236.41 1287.98 Q2232.8 1284.36 2232.8 1278.21 Q2232.8 1271.84 2236.23 1268.11 Q2239.68 1264.36 2245.51 1264.36 Q2250.74 1264.36 2253.77 1267.74 Q2256.83 1271.1 2256.83 1276.89 M2252.57 1275.64 Q2252.52 1272.14 2250.6 1270.06 Q2248.71 1267.98 2245.56 1267.98 Q2241.99 1267.98 2239.84 1269.99 Q2237.71 1272 2237.39 1275.66 L2252.57 1275.64 Z" fill="#000000" fill-rule="nonzero" fill-opacity="1" /><polyline clip-path="url(#clip500)" style="stroke:#e26f46; stroke-linecap:round; stroke-linejoin:round; stroke-width:4; stroke-opacity:1; fill:none" points="1829.56,1325.48 1973.45,1325.48 "/>
<path clip-path="url(#clip500)" d="M1997.43 1316.83 L2001.95 1316.83 L2010.05 1338.59 L2018.15 1316.83 L2022.66 1316.83 L2012.94 1342.76 L2007.16 1342.76 L1997.43 1316.83 Z" fill="#000000" fill-rule="nonzero" fill-opacity="1" /><path clip-path="url(#clip500)" d="M2029.19 1308.2 L2047.55 1308.2 L2047.55 1312.13 L2033.47 1312.13 L2033.47 1320.6 Q2034.49 1320.26 2035.51 1320.09 Q2036.53 1319.91 2037.55 1319.91 Q2043.34 1319.91 2046.72 1323.08 Q2050.09 1326.25 2050.09 1331.67 Q2050.09 1337.25 2046.62 1340.35 Q2043.15 1343.43 2036.83 1343.43 Q2034.66 1343.43 2032.39 1343.06 Q2030.14 1342.69 2027.73 1341.95 L2027.73 1337.25 Q2029.82 1338.38 2032.04 1338.94 Q2034.26 1339.49 2036.74 1339.49 Q2040.74 1339.49 2043.08 1337.38 Q2045.42 1335.28 2045.42 1331.67 Q2045.42 1328.06 2043.08 1325.95 Q2040.74 1323.84 2036.74 1323.84 Q2034.86 1323.84 2032.99 1324.26 Q2031.14 1324.68 2029.19 1325.56 L2029.19 1308.2 Z" fill="#000000" fill-rule="nonzero" fill-opacity="1" /><path clip-path="url(#clip500)" d="M2067.97 1326.11 L2067.97 1333.33 L2076.09 1333.33 L2076.09 1335.53 L2067.97 1335.53 L2067.97 1342.76 L2065.53 1342.76 L2065.53 1335.53 L2057.41 1335.53 L2057.41 1333.33 L2065.53 1333.33 L2065.53 1326.11 L2067.97 1326.11 Z" fill="#000000" fill-rule="nonzero" fill-opacity="1" /><path clip-path="url(#clip500)" d="M2100.26 1317.59 L2100.26 1321.62 Q2098.45 1320.7 2096.51 1320.23 Q2094.56 1319.77 2092.48 1319.77 Q2089.31 1319.77 2087.71 1320.74 Q2086.14 1321.71 2086.14 1323.66 Q2086.14 1325.14 2087.27 1326 Q2088.4 1326.83 2091.83 1327.59 L2093.29 1327.92 Q2097.83 1328.89 2099.72 1330.67 Q2101.65 1332.43 2101.65 1335.6 Q2101.65 1339.21 2098.78 1341.32 Q2095.93 1343.43 2090.93 1343.43 Q2088.84 1343.43 2086.58 1343.01 Q2084.33 1342.62 2081.83 1341.81 L2081.83 1337.41 Q2084.19 1338.63 2086.48 1339.26 Q2088.78 1339.86 2091.02 1339.86 Q2094.03 1339.86 2095.65 1338.84 Q2097.27 1337.8 2097.27 1335.93 Q2097.27 1334.19 2096.09 1333.26 Q2094.93 1332.34 2090.97 1331.48 L2089.49 1331.14 Q2085.53 1330.3 2083.78 1328.59 Q2082.02 1326.85 2082.02 1323.84 Q2082.02 1320.19 2084.61 1318.2 Q2087.2 1316.2 2091.97 1316.2 Q2094.33 1316.2 2096.41 1316.55 Q2098.5 1316.9 2100.26 1317.59 Z" fill="#000000" fill-rule="nonzero" fill-opacity="1" /><path clip-path="url(#clip500)" d="M2112.64 1309.47 L2112.64 1316.83 L2121.41 1316.83 L2121.41 1320.14 L2112.64 1320.14 L2112.64 1334.21 Q2112.64 1337.38 2113.5 1338.29 Q2114.38 1339.19 2117.04 1339.19 L2121.41 1339.19 L2121.41 1342.76 L2117.04 1342.76 Q2112.11 1342.76 2110.23 1340.93 Q2108.36 1339.07 2108.36 1334.21 L2108.36 1320.14 L2105.23 1320.14 L2105.23 1316.83 L2108.36 1316.83 L2108.36 1309.47 L2112.64 1309.47 Z" fill="#000000" fill-rule="nonzero" fill-opacity="1" /><path clip-path="url(#clip500)" d="M2137.06 1319.82 Q2133.64 1319.82 2131.65 1322.5 Q2129.65 1325.16 2129.65 1329.82 Q2129.65 1334.47 2131.62 1337.15 Q2133.61 1339.82 2137.06 1339.82 Q2140.46 1339.82 2142.46 1337.13 Q2144.45 1334.45 2144.45 1329.82 Q2144.45 1325.21 2142.46 1322.52 Q2140.46 1319.82 2137.06 1319.82 M2137.06 1316.2 Q2142.62 1316.2 2145.79 1319.82 Q2148.96 1323.43 2148.96 1329.82 Q2148.96 1336.18 2145.79 1339.82 Q2142.62 1343.43 2137.06 1343.43 Q2131.48 1343.43 2128.31 1339.82 Q2125.16 1336.18 2125.16 1329.82 Q2125.16 1323.43 2128.31 1319.82 Q2131.48 1316.2 2137.06 1316.2 Z" fill="#000000" fill-rule="nonzero" fill-opacity="1" /><path clip-path="url(#clip500)" d="M2171.04 1320.81 Q2170.33 1320.39 2169.47 1320.21 Q2168.64 1320 2167.62 1320 Q2164.01 1320 2162.06 1322.36 Q2160.14 1324.7 2160.14 1329.1 L2160.14 1342.76 L2155.86 1342.76 L2155.86 1316.83 L2160.14 1316.83 L2160.14 1320.86 Q2161.48 1318.5 2163.64 1317.36 Q2165.79 1316.2 2168.87 1316.2 Q2169.31 1316.2 2169.84 1316.27 Q2170.37 1316.32 2171.02 1316.44 L2171.04 1320.81 Z" fill="#000000" fill-rule="nonzero" fill-opacity="1" /><path clip-path="url(#clip500)" d="M2187.29 1329.72 Q2182.13 1329.72 2180.14 1330.9 Q2178.15 1332.08 2178.15 1334.93 Q2178.15 1337.2 2179.63 1338.54 Q2181.14 1339.86 2183.71 1339.86 Q2187.25 1339.86 2189.38 1337.36 Q2191.53 1334.84 2191.53 1330.67 L2191.53 1329.72 L2187.29 1329.72 M2195.79 1327.96 L2195.79 1342.76 L2191.53 1342.76 L2191.53 1338.82 Q2190.07 1341.18 2187.9 1342.32 Q2185.72 1343.43 2182.57 1343.43 Q2178.59 1343.43 2176.23 1341.2 Q2173.89 1338.96 2173.89 1335.21 Q2173.89 1330.83 2176.81 1328.61 Q2179.75 1326.39 2185.56 1326.39 L2191.53 1326.39 L2191.53 1325.97 Q2191.53 1323.03 2189.58 1321.44 Q2187.66 1319.82 2184.17 1319.82 Q2181.95 1319.82 2179.84 1320.35 Q2177.73 1320.88 2175.79 1321.95 L2175.79 1318.01 Q2178.13 1317.11 2180.33 1316.67 Q2182.52 1316.2 2184.61 1316.2 Q2190.23 1316.2 2193.01 1319.12 Q2195.79 1322.04 2195.79 1327.96 Z" fill="#000000" fill-rule="nonzero" fill-opacity="1" /><path clip-path="url(#clip500)" d="M2221.62 1329.49 Q2221.62 1324.86 2219.7 1322.32 Q2217.8 1319.77 2214.35 1319.77 Q2210.93 1319.77 2209.01 1322.32 Q2207.11 1324.86 2207.11 1329.49 Q2207.11 1334.1 2209.01 1336.64 Q2210.93 1339.19 2214.35 1339.19 Q2217.8 1339.19 2219.7 1336.64 Q2221.62 1334.1 2221.62 1329.49 M2225.88 1339.54 Q2225.88 1346.16 2222.94 1349.38 Q2220 1352.62 2213.94 1352.62 Q2211.69 1352.62 2209.7 1352.27 Q2207.71 1351.95 2205.83 1351.25 L2205.83 1347.11 Q2207.71 1348.13 2209.54 1348.61 Q2211.37 1349.1 2213.27 1349.1 Q2217.46 1349.1 2219.54 1346.9 Q2221.62 1344.72 2221.62 1340.3 L2221.62 1338.2 Q2220.3 1340.49 2218.24 1341.62 Q2216.18 1342.76 2213.31 1342.76 Q2208.54 1342.76 2205.63 1339.12 Q2202.71 1335.49 2202.71 1329.49 Q2202.71 1323.47 2205.63 1319.84 Q2208.54 1316.2 2213.31 1316.2 Q2216.18 1316.2 2218.24 1317.34 Q2220.3 1318.47 2221.62 1320.76 L2221.62 1316.83 L2225.88 1316.83 L2225.88 1339.54 Z" fill="#000000" fill-rule="nonzero" fill-opacity="1" /><path clip-path="url(#clip500)" d="M2256.83 1328.73 L2256.83 1330.81 L2237.25 1330.81 Q2237.52 1335.21 2239.89 1337.52 Q2242.27 1339.82 2246.51 1339.82 Q2248.96 1339.82 2251.25 1339.21 Q2253.57 1338.61 2255.83 1337.41 L2255.83 1341.44 Q2253.54 1342.41 2251.14 1342.92 Q2248.73 1343.43 2246.25 1343.43 Q2240.05 1343.43 2236.41 1339.82 Q2232.8 1336.2 2232.8 1330.05 Q2232.8 1323.68 2236.23 1319.95 Q2239.68 1316.2 2245.51 1316.2 Q2250.74 1316.2 2253.77 1319.58 Q2256.83 1322.94 2256.83 1328.73 M2252.57 1327.48 Q2252.52 1323.98 2250.6 1321.9 Q2248.71 1319.82 2245.56 1319.82 Q2241.99 1319.82 2239.84 1321.83 Q2237.71 1323.84 2237.39 1327.5 L2252.57 1327.48 Z" fill="#000000" fill-rule="nonzero" fill-opacity="1" /></svg>
