<?xml version="1.0" encoding="utf-8"?>
<svg xmlns="http://www.w3.org/2000/svg" xmlns:xlink="http://www.w3.org/1999/xlink" width="600" height="400" viewBox="0 0 2400 1600">
<defs>
  <clipPath id="clip620">
    <rect x="0" y="0" width="2400" height="1600"/>
  </clipPath>
</defs>
<path clip-path="url(#clip620)" d="M0 1600 L2400 1600 L2400 0 L0 0  Z" fill="#ffffff" fill-rule="evenodd" fill-opacity="1"/>
<defs>
  <clipPath id="clip621">
    <rect x="480" y="0" width="1681" height="1600"/>
  </clipPath>
</defs>
<path clip-path="url(#clip620)" d="M156.274 1423.18 L2352.76 1423.18 L2352.76 47.2441 L156.274 47.2441  Z" fill="#ffffff" fill-rule="evenodd" fill-opacity="1"/>
<defs>
  <clipPath id="clip622">
    <rect x="156" y="47" width="2197" height="1377"/>
  </clipPath>
</defs>
<polyline clip-path="url(#clip622)" style="stroke:#000000; stroke-linecap:round; stroke-linejoin:round; stroke-width:2; stroke-opacity:0.1; fill:none" points="156.274,1423.18 156.274,47.2441 "/>
<polyline clip-path="url(#clip622)" style="stroke:#000000; stroke-linecap:round; stroke-linejoin:round; stroke-width:2; stroke-opacity:0.1; fill:none" points="705.395,1423.18 705.395,47.2441 "/>
<polyline clip-path="url(#clip622)" style="stroke:#000000; stroke-linecap:round; stroke-linejoin:round; stroke-width:2; stroke-opacity:0.1; fill:none" points="1254.52,1423.18 1254.52,47.2441 "/>
<polyline clip-path="url(#clip622)" style="stroke:#000000; stroke-linecap:round; stroke-linejoin:round; stroke-width:2; stroke-opacity:0.1; fill:none" points="1803.64,1423.18 1803.64,47.2441 "/>
<polyline clip-path="url(#clip622)" style="stroke:#000000; stroke-linecap:round; stroke-linejoin:round; stroke-width:2; stroke-opacity:0.1; fill:none" points="2352.76,1423.18 2352.76,47.2441 "/>
<polyline clip-path="url(#clip622)" style="stroke:#000000; stroke-linecap:round; stroke-linejoin:round; stroke-width:2; stroke-opacity:0.1; fill:none" points="156.274,1390.77 2352.76,1390.77 "/>
<polyline clip-path="url(#clip622)" style="stroke:#000000; stroke-linecap:round; stroke-linejoin:round; stroke-width:2; stroke-opacity:0.1; fill:none" points="156.274,1101.46 2352.76,1101.46 "/>
<polyline clip-path="url(#clip622)" style="stroke:#000000; stroke-linecap:round; stroke-linejoin:round; stroke-width:2; stroke-opacity:0.1; fill:none" points="156.274,812.156 2352.76,812.156 "/>
<polyline clip-path="url(#clip622)" style="stroke:#000000; stroke-linecap:round; stroke-linejoin:round; stroke-width:2; stroke-opacity:0.1; fill:none" points="156.274,522.848 2352.76,522.848 "/>
<polyline clip-path="url(#clip622)" style="stroke:#000000; stroke-linecap:round; stroke-linejoin:round; stroke-width:2; stroke-opacity:0.1; fill:none" points="156.274,233.539 2352.76,233.539 "/>
<polyline clip-path="url(#clip620)" style="stroke:#000000; stroke-linecap:round; stroke-linejoin:round; stroke-width:4; stroke-opacity:1; fill:none" points="156.274,1423.18 2352.76,1423.18 "/>
<polyline clip-path="url(#clip620)" style="stroke:#000000; stroke-linecap:round; stroke-linejoin:round; stroke-width:4; stroke-opacity:1; fill:none" points="156.274,1423.18 156.274,1404.28 "/>
<polyline clip-path="url(#clip620)" style="stroke:#000000; stroke-linecap:round; stroke-linejoin:round; stroke-width:4; stroke-opacity:1; fill:none" points="705.395,1423.18 705.395,1404.28 "/>
<polyline clip-path="url(#clip620)" style="stroke:#000000; stroke-linecap:round; stroke-linejoin:round; stroke-width:4; stroke-opacity:1; fill:none" points="1254.52,1423.18 1254.52,1404.28 "/>
<polyline clip-path="url(#clip620)" style="stroke:#000000; stroke-linecap:round; stroke-linejoin:round; stroke-width:4; stroke-opacity:1; fill:none" points="1803.64,1423.18 1803.64,1404.28 "/>
<polyline clip-path="url(#clip620)" style="stroke:#000000; stroke-linecap:round; stroke-linejoin:round; stroke-width:4; stroke-opacity:1; fill:none" points="2352.76,1423.18 2352.76,1404.28 "/>
<path clip-path="url(#clip620)" d="M133.659 1454.1 Q130.047 1454.1 128.219 1457.66 Q126.413 1461.2 126.413 1468.33 Q126.413 1475.44 128.219 1479.01 Q130.047 1482.55 133.659 1482.55 Q137.293 1482.55 139.098 1479.01 Q140.927 1475.44 140.927 1468.33 Q140.927 1461.2 139.098 1457.66 Q137.293 1454.1 133.659 1454.1 M133.659 1450.39 Q139.469 1450.39 142.524 1455 Q145.603 1459.58 145.603 1468.33 Q145.603 1477.06 142.524 1481.67 Q139.469 1486.25 133.659 1486.25 Q127.848 1486.25 124.77 1481.67 Q121.714 1477.06 121.714 1468.33 Q121.714 1459.58 124.77 1455 Q127.848 1450.39 133.659 1450.39 Z" fill="#000000" fill-rule="nonzero" fill-opacity="1" /><path clip-path="url(#clip620)" d="M153.82 1479.7 L158.705 1479.7 L158.705 1485.58 L153.82 1485.58 L153.82 1479.7 Z" fill="#000000" fill-rule="nonzero" fill-opacity="1" /><path clip-path="url(#clip620)" d="M178.89 1454.1 Q175.279 1454.1 173.45 1457.66 Q171.644 1461.2 171.644 1468.33 Q171.644 1475.44 173.45 1479.01 Q175.279 1482.55 178.89 1482.55 Q182.524 1482.55 184.33 1479.01 Q186.158 1475.44 186.158 1468.33 Q186.158 1461.2 184.33 1457.66 Q182.524 1454.1 178.89 1454.1 M178.89 1450.39 Q184.7 1450.39 187.755 1455 Q190.834 1459.58 190.834 1468.33 Q190.834 1477.06 187.755 1481.67 Q184.7 1486.25 178.89 1486.25 Q173.08 1486.25 170.001 1481.67 Q166.945 1477.06 166.945 1468.33 Q166.945 1459.58 170.001 1455 Q173.08 1450.39 178.89 1450.39 Z" fill="#000000" fill-rule="nonzero" fill-opacity="1" /><path clip-path="url(#clip620)" d="M683.277 1454.1 Q679.666 1454.1 677.837 1457.66 Q676.031 1461.2 676.031 1468.33 Q676.031 1475.44 677.837 1479.01 Q679.666 1482.55 683.277 1482.55 Q686.911 1482.55 688.716 1479.01 Q690.545 1475.44 690.545 1468.33 Q690.545 1461.2 688.716 1457.66 Q686.911 1454.1 683.277 1454.1 M683.277 1450.39 Q689.087 1450.39 692.142 1455 Q695.221 1459.58 695.221 1468.33 Q695.221 1477.06 692.142 1481.67 Q689.087 1486.25 683.277 1486.25 Q677.467 1486.25 674.388 1481.67 Q671.332 1477.06 671.332 1468.33 Q671.332 1459.58 674.388 1455 Q677.467 1450.39 683.277 1450.39 Z" fill="#000000" fill-rule="nonzero" fill-opacity="1" /><path clip-path="url(#clip620)" d="M703.439 1479.7 L708.323 1479.7 L708.323 1485.58 L703.439 1485.58 L703.439 1479.7 Z" fill="#000000" fill-rule="nonzero" fill-opacity="1" /><path clip-path="url(#clip620)" d="M718.554 1451.02 L736.911 1451.02 L736.911 1454.96 L722.837 1454.96 L722.837 1463.43 Q723.855 1463.08 724.874 1462.92 Q725.892 1462.73 726.911 1462.73 Q732.698 1462.73 736.077 1465.9 Q739.457 1469.08 739.457 1474.49 Q739.457 1480.07 735.985 1483.17 Q732.513 1486.25 726.193 1486.25 Q724.017 1486.25 721.749 1485.88 Q719.503 1485.51 717.096 1484.77 L717.096 1480.07 Q719.179 1481.2 721.401 1481.76 Q723.624 1482.32 726.101 1482.32 Q730.105 1482.32 732.443 1480.21 Q734.781 1478.1 734.781 1474.49 Q734.781 1470.88 732.443 1468.77 Q730.105 1466.67 726.101 1466.67 Q724.226 1466.67 722.351 1467.08 Q720.499 1467.5 718.554 1468.38 L718.554 1451.02 Z" fill="#000000" fill-rule="nonzero" fill-opacity="1" /><path clip-path="url(#clip620)" d="M1221.67 1481.64 L1229.31 1481.64 L1229.31 1455.28 L1221 1456.95 L1221 1452.69 L1229.26 1451.02 L1233.94 1451.02 L1233.94 1481.64 L1241.58 1481.64 L1241.58 1485.58 L1221.67 1485.58 L1221.67 1481.64 Z" fill="#000000" fill-rule="nonzero" fill-opacity="1" /><path clip-path="url(#clip620)" d="M1251.02 1479.7 L1255.9 1479.7 L1255.9 1485.58 L1251.02 1485.58 L1251.02 1479.7 Z" fill="#000000" fill-rule="nonzero" fill-opacity="1" /><path clip-path="url(#clip620)" d="M1276.09 1454.1 Q1272.48 1454.1 1270.65 1457.66 Q1268.84 1461.2 1268.84 1468.33 Q1268.84 1475.44 1270.65 1479.01 Q1272.48 1482.55 1276.09 1482.55 Q1279.72 1482.55 1281.53 1479.01 Q1283.36 1475.44 1283.36 1468.33 Q1283.36 1461.2 1281.53 1457.66 Q1279.72 1454.1 1276.09 1454.1 M1276.09 1450.39 Q1281.9 1450.39 1284.95 1455 Q1288.03 1459.58 1288.03 1468.33 Q1288.03 1477.06 1284.95 1481.67 Q1281.9 1486.25 1276.09 1486.25 Q1270.28 1486.25 1267.2 1481.67 Q1264.14 1477.06 1264.14 1468.33 Q1264.14 1459.58 1267.2 1455 Q1270.28 1450.39 1276.09 1450.39 Z" fill="#000000" fill-rule="nonzero" fill-opacity="1" /><path clip-path="url(#clip620)" d="M1771.29 1481.64 L1778.92 1481.64 L1778.92 1455.28 L1770.61 1456.95 L1770.61 1452.69 L1778.88 1451.02 L1783.55 1451.02 L1783.55 1481.64 L1791.19 1481.64 L1791.19 1485.58 L1771.29 1485.58 L1771.29 1481.64 Z" fill="#000000" fill-rule="nonzero" fill-opacity="1" /><path clip-path="url(#clip620)" d="M1800.64 1479.7 L1805.52 1479.7 L1805.52 1485.58 L1800.64 1485.58 L1800.64 1479.7 Z" fill="#000000" fill-rule="nonzero" fill-opacity="1" /><path clip-path="url(#clip620)" d="M1815.75 1451.02 L1834.11 1451.02 L1834.11 1454.96 L1820.04 1454.96 L1820.04 1463.43 Q1821.05 1463.08 1822.07 1462.92 Q1823.09 1462.73 1824.11 1462.73 Q1829.9 1462.73 1833.28 1465.9 Q1836.66 1469.08 1836.66 1474.49 Q1836.66 1480.07 1833.18 1483.17 Q1829.71 1486.25 1823.39 1486.25 Q1821.22 1486.25 1818.95 1485.88 Q1816.7 1485.51 1814.3 1484.77 L1814.3 1480.07 Q1816.38 1481.2 1818.6 1481.76 Q1820.82 1482.32 1823.3 1482.32 Q1827.3 1482.32 1829.64 1480.21 Q1831.98 1478.1 1831.98 1474.49 Q1831.98 1470.88 1829.64 1468.77 Q1827.3 1466.67 1823.3 1466.67 Q1821.42 1466.67 1819.55 1467.08 Q1817.7 1467.5 1815.75 1468.38 L1815.75 1451.02 Z" fill="#000000" fill-rule="nonzero" fill-opacity="1" /><path clip-path="url(#clip620)" d="M2323.99 1481.64 L2340.31 1481.64 L2340.31 1485.58 L2318.37 1485.58 L2318.37 1481.64 Q2321.03 1478.89 2325.61 1474.26 Q2330.22 1469.61 2331.4 1468.27 Q2333.65 1465.74 2334.53 1464.01 Q2335.43 1462.25 2335.43 1460.56 Q2335.43 1457.8 2333.49 1456.07 Q2331.56 1454.33 2328.46 1454.33 Q2326.26 1454.33 2323.81 1455.09 Q2321.38 1455.86 2318.6 1457.41 L2318.6 1452.69 Q2321.43 1451.55 2323.88 1450.97 Q2326.33 1450.39 2328.37 1450.39 Q2333.74 1450.39 2336.93 1453.08 Q2340.13 1455.77 2340.13 1460.26 Q2340.13 1462.39 2339.32 1464.31 Q2338.53 1466.2 2336.42 1468.8 Q2335.85 1469.47 2332.74 1472.69 Q2329.64 1475.88 2323.99 1481.64 Z" fill="#000000" fill-rule="nonzero" fill-opacity="1" /><path clip-path="url(#clip620)" d="M2350.13 1479.7 L2355.01 1479.7 L2355.01 1485.58 L2350.13 1485.58 L2350.13 1479.7 Z" fill="#000000" fill-rule="nonzero" fill-opacity="1" /><path clip-path="url(#clip620)" d="M2375.2 1454.1 Q2371.59 1454.1 2369.76 1457.66 Q2367.95 1461.2 2367.95 1468.33 Q2367.95 1475.44 2369.76 1479.01 Q2371.59 1482.55 2375.2 1482.55 Q2378.83 1482.55 2380.64 1479.01 Q2382.47 1475.44 2382.47 1468.33 Q2382.47 1461.2 2380.64 1457.66 Q2378.83 1454.1 2375.2 1454.1 M2375.2 1450.39 Q2381.01 1450.39 2384.06 1455 Q2387.14 1459.58 2387.14 1468.33 Q2387.14 1477.06 2384.06 1481.67 Q2381.01 1486.25 2375.2 1486.25 Q2369.39 1486.25 2366.31 1481.67 Q2363.25 1477.06 2363.25 1468.33 Q2363.25 1459.58 2366.31 1455 Q2369.39 1450.39 2375.2 1450.39 Z" fill="#000000" fill-rule="nonzero" fill-opacity="1" /><path clip-path="url(#clip620)" d="M1253.58 1522.27 L1253.58 1532.4 L1265.64 1532.4 L1265.64 1536.95 L1253.58 1536.95 L1253.58 1556.3 Q1253.58 1560.66 1254.75 1561.9 Q1255.96 1563.14 1259.62 1563.14 L1265.64 1563.14 L1265.64 1568.04 L1259.62 1568.04 Q1252.84 1568.04 1250.27 1565.53 Q1247.69 1562.98 1247.69 1556.3 L1247.69 1536.95 L1243.39 1536.95 L1243.39 1532.4 L1247.69 1532.4 L1247.69 1522.27 L1253.58 1522.27 Z" fill="#000000" fill-rule="nonzero" fill-opacity="1" /><polyline clip-path="url(#clip620)" style="stroke:#000000; stroke-linecap:round; stroke-linejoin:round; stroke-width:4; stroke-opacity:1; fill:none" points="156.274,1423.18 156.274,47.2441 "/>
<polyline clip-path="url(#clip620)" style="stroke:#000000; stroke-linecap:round; stroke-linejoin:round; stroke-width:4; stroke-opacity:1; fill:none" points="156.274,1390.77 175.172,1390.77 "/>
<polyline clip-path="url(#clip620)" style="stroke:#000000; stroke-linecap:round; stroke-linejoin:round; stroke-width:4; stroke-opacity:1; fill:none" points="156.274,1101.46 175.172,1101.46 "/>
<polyline clip-path="url(#clip620)" style="stroke:#000000; stroke-linecap:round; stroke-linejoin:round; stroke-width:4; stroke-opacity:1; fill:none" points="156.274,812.156 175.172,812.156 "/>
<polyline clip-path="url(#clip620)" style="stroke:#000000; stroke-linecap:round; stroke-linejoin:round; stroke-width:4; stroke-opacity:1; fill:none" points="156.274,522.848 175.172,522.848 "/>
<polyline clip-path="url(#clip620)" style="stroke:#000000; stroke-linecap:round; stroke-linejoin:round; stroke-width:4; stroke-opacity:1; fill:none" points="156.274,233.539 175.172,233.539 "/>
<path clip-path="url(#clip620)" d="M62.9365 1376.57 Q59.3254 1376.57 57.4967 1380.14 Q55.6912 1383.68 55.6912 1390.81 Q55.6912 1397.91 57.4967 1401.48 Q59.3254 1405.02 62.9365 1405.02 Q66.5707 1405.02 68.3763 1401.48 Q70.205 1397.91 70.205 1390.81 Q70.205 1383.68 68.3763 1380.14 Q66.5707 1376.57 62.9365 1376.57 M62.9365 1372.87 Q68.7467 1372.87 71.8022 1377.47 Q74.8809 1382.06 74.8809 1390.81 Q74.8809 1399.53 71.8022 1404.14 Q68.7467 1408.72 62.9365 1408.72 Q57.1264 1408.72 54.0477 1404.14 Q50.9921 1399.53 50.9921 1390.81 Q50.9921 1382.06 54.0477 1377.47 Q57.1264 1372.87 62.9365 1372.87 Z" fill="#000000" fill-rule="nonzero" fill-opacity="1" /><path clip-path="url(#clip620)" d="M83.0984 1402.17 L87.9827 1402.17 L87.9827 1408.05 L83.0984 1408.05 L83.0984 1402.17 Z" fill="#000000" fill-rule="nonzero" fill-opacity="1" /><path clip-path="url(#clip620)" d="M108.746 1388.91 Q105.598 1388.91 103.746 1391.06 Q101.918 1393.22 101.918 1396.97 Q101.918 1400.69 103.746 1402.87 Q105.598 1405.02 108.746 1405.02 Q111.895 1405.02 113.723 1402.87 Q115.575 1400.69 115.575 1396.97 Q115.575 1393.22 113.723 1391.06 Q111.895 1388.91 108.746 1388.91 M118.029 1374.26 L118.029 1378.52 Q116.27 1377.68 114.464 1377.24 Q112.682 1376.8 110.922 1376.8 Q106.293 1376.8 103.839 1379.93 Q101.409 1383.05 101.061 1389.37 Q102.427 1387.36 104.487 1386.29 Q106.547 1385.21 109.024 1385.21 Q114.233 1385.21 117.242 1388.38 Q120.274 1391.53 120.274 1396.97 Q120.274 1402.29 117.126 1405.51 Q113.978 1408.72 108.746 1408.72 Q102.751 1408.72 99.5798 1404.14 Q96.4085 1399.53 96.4085 1390.81 Q96.4085 1382.61 100.297 1377.75 Q104.186 1372.87 110.737 1372.87 Q112.496 1372.87 114.279 1373.22 Q116.084 1373.56 118.029 1374.26 Z" fill="#000000" fill-rule="nonzero" fill-opacity="1" /><path clip-path="url(#clip620)" d="M63.1911 1087.26 Q59.58 1087.26 57.7513 1090.83 Q55.9458 1094.37 55.9458 1101.5 Q55.9458 1108.61 57.7513 1112.17 Q59.58 1115.71 63.1911 1115.71 Q66.8254 1115.71 68.6309 1112.17 Q70.4596 1108.61 70.4596 1101.5 Q70.4596 1094.37 68.6309 1090.83 Q66.8254 1087.26 63.1911 1087.26 M63.1911 1083.56 Q69.0013 1083.56 72.0568 1088.17 Q75.1355 1092.75 75.1355 1101.5 Q75.1355 1110.23 72.0568 1114.83 Q69.0013 1119.42 63.1911 1119.42 Q57.381 1119.42 54.3023 1114.83 Q51.2468 1110.23 51.2468 1101.5 Q51.2468 1092.75 54.3023 1088.17 Q57.381 1083.56 63.1911 1083.56 Z" fill="#000000" fill-rule="nonzero" fill-opacity="1" /><path clip-path="url(#clip620)" d="M83.3531 1112.87 L88.2373 1112.87 L88.2373 1118.74 L83.3531 1118.74 L83.3531 1112.87 Z" fill="#000000" fill-rule="nonzero" fill-opacity="1" /><path clip-path="url(#clip620)" d="M108.422 1102.33 Q105.089 1102.33 103.168 1104.12 Q101.27 1105.9 101.27 1109.02 Q101.27 1112.15 103.168 1113.93 Q105.089 1115.71 108.422 1115.71 Q111.756 1115.71 113.677 1113.93 Q115.598 1112.12 115.598 1109.02 Q115.598 1105.9 113.677 1104.12 Q111.779 1102.33 108.422 1102.33 M103.746 1100.34 Q100.737 1099.6 99.0474 1097.54 Q97.3808 1095.48 97.3808 1092.52 Q97.3808 1088.37 100.321 1085.97 Q103.284 1083.56 108.422 1083.56 Q113.584 1083.56 116.524 1085.97 Q119.464 1088.37 119.464 1092.52 Q119.464 1095.48 117.774 1097.54 Q116.108 1099.6 113.121 1100.34 Q116.501 1101.13 118.376 1103.42 Q120.274 1105.71 120.274 1109.02 Q120.274 1114.05 117.195 1116.73 Q114.14 1119.42 108.422 1119.42 Q102.705 1119.42 99.6261 1116.73 Q96.5706 1114.05 96.5706 1109.02 Q96.5706 1105.71 98.4687 1103.42 Q100.367 1101.13 103.746 1100.34 M102.034 1092.96 Q102.034 1095.64 103.7 1097.15 Q105.39 1098.65 108.422 1098.65 Q111.432 1098.65 113.121 1097.15 Q114.834 1095.64 114.834 1092.96 Q114.834 1090.27 113.121 1088.77 Q111.432 1087.26 108.422 1087.26 Q105.39 1087.26 103.7 1088.77 Q102.034 1090.27 102.034 1092.96 Z" fill="#000000" fill-rule="nonzero" fill-opacity="1" /><path clip-path="url(#clip620)" d="M53.9088 825.501 L61.5476 825.501 L61.5476 799.135 L53.2375 800.802 L53.2375 796.543 L61.5013 794.876 L66.1772 794.876 L66.1772 825.501 L73.8161 825.501 L73.8161 829.436 L53.9088 829.436 L53.9088 825.501 Z" fill="#000000" fill-rule="nonzero" fill-opacity="1" /><path clip-path="url(#clip620)" d="M83.2605 823.557 L88.1447 823.557 L88.1447 829.436 L83.2605 829.436 L83.2605 823.557 Z" fill="#000000" fill-rule="nonzero" fill-opacity="1" /><path clip-path="url(#clip620)" d="M108.33 797.955 Q104.719 797.955 102.89 801.52 Q101.084 805.061 101.084 812.191 Q101.084 819.297 102.89 822.862 Q104.719 826.404 108.33 826.404 Q111.964 826.404 113.77 822.862 Q115.598 819.297 115.598 812.191 Q115.598 805.061 113.77 801.52 Q111.964 797.955 108.33 797.955 M108.33 794.251 Q114.14 794.251 117.195 798.858 Q120.274 803.441 120.274 812.191 Q120.274 820.918 117.195 825.524 Q114.14 830.107 108.33 830.107 Q102.52 830.107 99.4409 825.524 Q96.3854 820.918 96.3854 812.191 Q96.3854 803.441 99.4409 798.858 Q102.52 794.251 108.33 794.251 Z" fill="#000000" fill-rule="nonzero" fill-opacity="1" /><path clip-path="url(#clip620)" d="M55.506 536.192 L63.1448 536.192 L63.1448 509.827 L54.8347 511.493 L54.8347 507.234 L63.0985 505.568 L67.7744 505.568 L67.7744 536.192 L75.4133 536.192 L75.4133 540.128 L55.506 540.128 L55.506 536.192 Z" fill="#000000" fill-rule="nonzero" fill-opacity="1" /><path clip-path="url(#clip620)" d="M84.8577 534.248 L89.7419 534.248 L89.7419 540.128 L84.8577 540.128 L84.8577 534.248 Z" fill="#000000" fill-rule="nonzero" fill-opacity="1" /><path clip-path="url(#clip620)" d="M103.955 536.192 L120.274 536.192 L120.274 540.128 L98.3298 540.128 L98.3298 536.192 Q100.992 533.438 105.575 528.808 Q110.182 524.155 111.362 522.813 Q113.608 520.29 114.487 518.554 Q115.39 516.794 115.39 515.105 Q115.39 512.35 113.445 510.614 Q111.524 508.878 108.422 508.878 Q106.223 508.878 103.77 509.642 Q101.339 510.405 98.5613 511.956 L98.5613 507.234 Q101.385 506.1 103.839 505.521 Q106.293 504.943 108.33 504.943 Q113.7 504.943 116.895 507.628 Q120.089 510.313 120.089 514.804 Q120.089 516.933 119.279 518.854 Q118.492 520.753 116.385 523.345 Q115.807 524.017 112.705 527.234 Q109.603 530.429 103.955 536.192 Z" fill="#000000" fill-rule="nonzero" fill-opacity="1" /><path clip-path="url(#clip620)" d="M53.4227 246.884 L61.0615 246.884 L61.0615 220.518 L52.7514 222.185 L52.7514 217.926 L61.0152 216.259 L65.6911 216.259 L65.6911 246.884 L73.33 246.884 L73.33 250.819 L53.4227 250.819 L53.4227 246.884 Z" fill="#000000" fill-rule="nonzero" fill-opacity="1" /><path clip-path="url(#clip620)" d="M82.7744 244.939 L87.6586 244.939 L87.6586 250.819 L82.7744 250.819 L82.7744 244.939 Z" fill="#000000" fill-rule="nonzero" fill-opacity="1" /><path clip-path="url(#clip620)" d="M110.691 220.333 L98.8854 238.782 L110.691 238.782 L110.691 220.333 M109.464 216.259 L115.344 216.259 L115.344 238.782 L120.274 238.782 L120.274 242.671 L115.344 242.671 L115.344 250.819 L110.691 250.819 L110.691 242.671 L95.0891 242.671 L95.0891 238.157 L109.464 216.259 Z" fill="#000000" fill-rule="nonzero" fill-opacity="1" /><polyline clip-path="url(#clip622)" style="stroke:#009af9; stroke-linecap:round; stroke-linejoin:round; stroke-width:4; stroke-opacity:1; fill:none" points="156.274,1157.92 158.473,1160.18 160.672,1162.41 162.87,1164.62 165.069,1166.8 167.268,1168.97 169.466,1171.11 171.665,1173.24 173.864,1175.34 176.062,1177.42 178.261,1179.48 180.46,1181.52 182.658,1183.54 184.857,1185.54 187.056,1187.52 189.254,1189.48 191.453,1191.42 193.652,1193.34 195.85,1195.24 198.049,1197.12 200.248,1198.98 202.446,1200.83 204.645,1202.66 206.844,1204.47 209.042,1206.26 211.241,1208.03 213.44,1209.78 215.639,1211.52 217.837,1213.24 220.036,1214.95 222.235,1216.63 224.433,1218.3 226.632,1219.95 228.831,1221.59 231.029,1223.21 233.228,1224.81 235.427,1226.4 237.625,1227.97 239.824,1229.53 242.023,1231.07 244.221,1232.6 246.42,1234.11 248.619,1235.6 250.817,1237.08 253.016,1238.55 255.215,1240 257.413,1241.44 259.612,1242.86 261.811,1244.27 264.01,1245.66 266.208,1247.04 268.407,1248.41 270.606,1249.76 272.804,1251.1 275.003,1252.43 277.202,1253.74 279.4,1255.04 281.599,1256.33 283.798,1257.6 285.996,1258.86 288.195,1260.11 290.394,1261.35 292.592,1262.57 294.791,1263.78 296.99,1264.98 299.188,1266.17 301.387,1267.35 303.586,1268.51 305.784,1269.67 307.983,1270.81 310.182,1271.94 312.38,1273.06 314.579,1274.16 316.778,1275.26 318.977,1276.35 321.175,1277.42 323.374,1278.48 325.573,1279.54 327.771,1280.58 329.97,1281.61 332.169,1282.64 334.367,1283.65 336.566,1284.65 338.765,1285.64 340.963,1286.62 343.162,1287.6 345.361,1288.56 347.559,1289.51 349.758,1290.46 351.957,1291.39 354.155,1292.31 356.354,1293.23 358.553,1294.14 360.751,1295.03 362.95,1295.92 365.149,1296.8 367.347,1297.67 369.546,1298.54 371.745,1299.39 373.944,1300.23 376.142,1301.07 378.341,1301.9 380.54,1302.72 382.738,1303.53 384.937,1304.34 387.136,1305.13 389.334,1305.92 391.533,1306.7 393.732,1307.47 395.93,1308.24 398.129,1308.99 400.328,1309.74 402.526,1310.49 404.725,1311.22 406.924,1311.95 409.122,1312.67 411.321,1313.38 413.52,1314.09 415.718,1314.79 417.917,1315.48 420.116,1316.16 422.314,1316.84 424.513,1317.51 426.712,1318.18 428.911,1318.83 431.109,1319.49 433.308,1320.13 435.507,1320.77 437.705,1321.4 439.904,1322.03 442.103,1322.65 444.301,1323.26 446.5,1323.87 448.699,1324.47 450.897,1325.07 453.096,1325.66 455.295,1326.24 457.493,1326.82 459.692,1327.39 461.891,1327.96 464.089,1328.52 466.288,1329.07 468.487,1329.62 470.685,1330.16 472.884,1330.7 475.083,1331.24 477.282,1331.76 479.48,1332.29 481.679,1332.81 483.878,1333.32 486.076,1333.82 488.275,1334.33 490.474,1334.82 492.672,1335.32 494.871,1335.8 497.07,1336.29 499.268,1336.76 501.467,1337.24 503.666,1337.7 505.864,1338.17 508.063,1338.63 510.262,1339.08 512.46,1339.53 514.659,1339.98 516.858,1340.42 519.056,1340.85 521.255,1341.29 523.454,1341.71 525.652,1342.14 527.851,1342.56 530.05,1342.97 532.249,1343.38 534.447,1343.79 536.646,1344.19 538.845,1344.59 541.043,1344.99 543.242,1345.38 545.441,1345.77 547.639,1346.15 549.838,1346.53 552.037,1346.91 554.235,1347.28 556.434,1347.65 558.633,1348.01 560.831,1348.37 563.03,1348.73 565.229,1349.08 567.427,1349.43 569.626,1349.78 571.825,1350.12 574.023,1350.46 576.222,1350.8 578.421,1351.13 580.619,1351.46 582.818,1351.79 585.017,1352.11 587.216,1352.43 589.414,1352.75 591.613,1353.06 593.812,1353.37 596.01,1353.68 598.209,1353.99 600.408,1354.29 602.606,1354.59 604.805,1354.88 607.004,1355.17 609.202,1355.46 611.401,1355.75 613.6,1356.03 615.798,1356.31 617.997,1356.59 620.196,1356.87 622.394,1357.14 624.593,1357.41 626.792,1357.68 628.99,1357.94 631.189,1358.2 633.388,1358.46 635.586,1358.72 637.785,1358.97 639.984,1359.23 642.183,1359.48 644.381,1359.72 646.58,1359.97 648.779,1360.21 650.977,1360.45 653.176,1360.68 655.375,1360.92 657.573,1361.15 659.772,1361.38 661.971,1361.61 664.169,1361.84 666.368,1362.06 668.567,1362.28 670.765,1362.5 672.964,1362.72 675.163,1362.93 677.361,1363.14 679.56,1363.35 681.759,1363.56 683.957,1363.77 686.156,1363.97 688.355,1364.17 690.554,1364.37 692.752,1364.57 694.951,1364.77 697.15,1364.96 699.348,1365.15 701.547,1365.34 703.746,1365.53 705.944,1365.72 708.143,1365.9 710.342,1366.09 712.54,1366.27 714.739,1366.45 716.938,1366.62 719.136,1366.8 721.335,1366.97 723.534,1367.15 725.732,1367.32 727.931,1367.48 730.13,1367.65 732.328,1367.82 734.527,1367.98 736.726,1368.14 738.924,1368.3 741.123,1368.46 743.322,1368.62 745.521,1368.77 747.719,1368.93 749.918,1369.08 752.117,1369.23 754.315,1369.38 756.514,1369.53 758.713,1369.68 760.911,1369.82 763.11,1369.96 765.309,1370.11 767.507,1370.25 769.706,1370.39 771.905,1370.53 774.103,1370.66 776.302,1370.8 778.501,1370.93 780.699,1371.06 782.898,1371.19 785.097,1371.32 787.295,1371.45 789.494,1371.58 791.693,1371.71 793.891,1371.83 796.09,1371.96 798.289,1372.08 800.488,1372.2 802.686,1372.32 804.885,1372.44 807.084,1372.55 809.282,1372.67 811.481,1372.79 813.68,1372.9 815.878,1373.01 818.077,1373.13 820.276,1373.24 822.474,1373.35 824.673,1373.45 826.872,1373.56 829.07,1373.67 831.269,1373.77 833.468,1373.88 835.666,1373.98 837.865,1374.08 840.064,1374.19 842.262,1374.29 844.461,1374.39 846.66,1374.48 848.858,1374.58 851.057,1374.68 853.256,1374.77 855.455,1374.87 857.653,1374.96 859.852,1375.05 862.051,1375.15 864.249,1375.24 866.448,1375.33 868.647,1375.41 870.845,1375.5 873.044,1375.59 875.243,1375.68 877.441,1375.76 879.64,1375.85 881.839,1375.93 884.037,1376.01 886.236,1376.1 888.435,1376.18 890.633,1376.26 892.832,1376.34 895.031,1376.42 897.229,1376.49 899.428,1376.57 901.627,1376.65 903.826,1376.72 906.024,1376.8 908.223,1376.87 910.422,1376.95 912.62,1377.02 914.819,1377.09 917.018,1377.16 919.216,1377.23 921.415,1377.3 923.614,1377.37 925.812,1377.44 928.011,1377.51 930.21,1377.57 932.408,1377.64 934.607,1377.71 936.806,1377.77 939.004,1377.84 941.203,1377.9 943.402,1377.96 945.6,1378.03 947.799,1378.09 949.998,1378.15 952.196,1378.21 954.395,1378.27 956.594,1378.33 958.793,1378.39 960.991,1378.45 963.19,1378.5 965.389,1378.56 967.587,1378.62 969.786,1378.67 971.985,1378.73 974.183,1378.78 976.382,1378.84 978.581,1378.89 980.779,1378.95 982.978,1379 985.177,1379.05 987.375,1379.1 989.574,1379.15 991.773,1379.2 993.971,1379.25 996.17,1379.3 998.369,1379.35 1000.57,1379.4 1002.77,1379.45 1004.96,1379.5 1007.16,1379.55 1009.36,1379.59 1011.56,1379.64 1013.76,1379.68 1015.96,1379.73 1018.16,1379.78 1020.36,1379.82 1022.55,1379.86 1024.75,1379.91 1026.95,1379.95 1029.15,1379.99 1031.35,1380.04 1033.55,1380.08 1035.75,1380.12 1037.95,1380.16 1040.14,1380.2 1042.34,1380.24 1044.54,1380.28 1046.74,1380.32 1048.94,1380.36 1051.14,1380.4 1053.34,1380.44 1055.53,1380.48 1057.73,1380.51 1059.93,1380.55 1062.13,1380.59 1064.33,1380.63 1066.53,1380.66 1068.73,1380.7 1070.93,1380.73 1073.12,1380.77 1075.32,1380.8 1077.52,1380.84 1079.72,1380.87 1081.92,1380.9 1084.12,1380.94 1086.32,1380.97 1088.51,1381 1090.71,1381.04 1092.91,1381.07 1095.11,1381.1 1097.31,1381.13 1099.51,1381.16 1101.71,1381.19 1103.91,1381.22 1106.1,1381.25 1108.3,1381.28 1110.5,1381.31 1112.7,1381.34 1114.9,1381.37 1117.1,1381.4 1119.3,1381.43 1121.49,1381.46 1123.69,1381.48 1125.89,1381.51 1128.09,1381.54 1130.29,1381.57 1132.49,1381.59 1134.69,1381.62 1136.89,1381.65 1139.08,1381.67 1141.28,1381.7 1143.48,1381.72 1145.68,1381.75 1147.88,1381.77 1150.08,1381.8 1152.28,1381.82 1154.48,1381.85 1156.67,1381.87 1158.87,1381.89 1161.07,1381.92 1163.27,1381.94 1165.47,1381.96 1167.67,1381.99 1169.87,1382.01 1172.06,1382.03 1174.26,1382.05 1176.46,1382.07 1178.66,1382.1 1180.86,1382.12 1183.06,1382.14 1185.26,1382.16 1187.46,1382.18 1189.65,1382.2 1191.85,1382.22 1194.05,1382.24 1196.25,1382.26 1198.45,1382.28 1200.65,1382.3 1202.85,1382.32 1205.04,1382.34 1207.24,1382.36 1209.44,1382.38 1211.64,1382.39 1213.84,1382.41 1216.04,1382.43 1218.24,1382.45 1220.44,1382.47 1222.63,1382.48 1224.83,1382.5 1227.03,1382.52 1229.23,1382.54 1231.43,1382.55 1233.63,1382.57 1235.83,1382.59 1238.02,1382.6 1240.22,1382.62 1242.42,1382.64 1244.62,1382.65 1246.82,1382.67 1249.02,1382.68 1251.22,1382.7 1253.42,1382.72 1255.61,1382.73 1257.81,1382.75 1260.01,1382.76 1262.21,1382.78 1264.41,1382.79 1266.61,1382.8 1268.81,1382.82 1271.01,1382.83 1273.2,1382.85 1275.4,1382.86 1277.6,1382.88 1279.8,1382.89 1282,1382.9 1284.2,1382.92 1286.4,1382.93 1288.59,1382.94 1290.79,1382.96 1292.99,1382.97 1295.19,1382.98 1297.39,1382.99 1299.59,1383.01 1301.79,1383.02 1303.99,1383.03 1306.18,1383.04 1308.38,1383.06 1310.58,1383.07 1312.78,1383.08 1314.98,1383.09 1317.18,1383.1 1319.38,1383.12 1321.57,1383.13 1323.77,1383.14 1325.97,1383.15 1328.17,1383.16 1330.37,1383.17 1332.57,1383.18 1334.77,1383.19 1336.97,1383.2 1339.16,1383.21 1341.36,1383.22 1343.56,1383.23 1345.76,1383.24 1347.96,1383.25 1350.16,1383.26 1352.36,1383.27 1354.55,1383.28 1356.75,1383.29 1358.95,1383.3 1361.15,1383.31 1363.35,1383.32 1365.55,1383.33 1367.75,1383.34 1369.95,1383.35 1372.14,1383.36 1374.34,1383.37 1376.54,1383.38 1378.74,1383.38 1380.94,1383.39 1383.14,1383.4 1385.34,1383.41 1387.54,1383.42 1389.73,1383.43 1391.93,1383.43 1394.13,1383.44 1396.33,1383.45 1398.53,1383.46 1400.73,1383.47 1402.93,1383.47 1405.12,1383.48 1407.32,1383.49 1409.52,1383.5 1411.72,1383.5 1413.92,1383.51 1416.12,1383.52 1418.32,1383.53 1420.52,1383.53 1422.71,1383.54 1424.91,1383.55 1427.11,1383.55 1429.31,1383.56 1431.51,1383.57 1433.71,1383.57 1435.91,1383.58 1438.1,1383.59 1440.3,1383.59 1442.5,1383.6 1444.7,1383.61 1446.9,1383.61 1449.1,1383.62 1451.3,1383.63 1453.5,1383.63 1455.69,1383.64 1457.89,1383.64 1460.09,1383.65 1462.29,1383.66 1464.49,1383.66 1466.69,1383.67 1468.89,1383.67 1471.09,1383.68 1473.28,1383.68 1475.48,1383.69 1477.68,1383.7 1479.88,1383.7 1482.08,1383.71 1484.28,1383.71 1486.48,1383.72 1488.67,1383.72 1490.87,1383.73 1493.07,1383.73 1495.27,1383.74 1497.47,1383.74 1499.67,1383.75 1501.87,1383.75 1504.07,1383.76 1506.26,1383.76 1508.46,1383.77 1510.66,1383.77 1512.86,1383.78 1515.06,1383.78 1517.26,1383.79 1519.46,1383.79 1521.65,1383.8 1523.85,1383.8 1526.05,1383.8 1528.25,1383.81 1530.45,1383.81 1532.65,1383.82 1534.85,1383.82 1537.05,1383.83 1539.24,1383.83 1541.44,1383.84 1543.64,1383.84 1545.84,1383.84 1548.04,1383.85 1550.24,1383.85 1552.44,1383.86 1554.63,1383.86 1556.83,1383.86 1559.03,1383.87 1561.23,1383.87 1563.43,1383.88 1565.63,1383.88 1567.83,1383.88 1570.03,1383.89 1572.22,1383.89 1574.42,1383.89 1576.62,1383.9 1578.82,1383.9 1581.02,1383.9 1583.22,1383.91 1585.42,1383.91 1587.62,1383.91 1589.81,1383.92 1592.01,1383.92 1594.21,1383.93 1596.41,1383.93 1598.61,1383.93 1600.81,1383.93 1603.01,1383.94 1605.2,1383.94 1607.4,1383.94 1609.6,1383.95 1611.8,1383.95 1614,1383.95 1616.2,1383.96 1618.4,1383.96 1620.6,1383.96 1622.79,1383.97 1624.99,1383.97 1627.19,1383.97 1629.39,1383.97 1631.59,1383.98 1633.79,1383.98 1635.99,1383.98 1638.18,1383.98 1640.38,1383.99 1642.58,1383.99 1644.78,1383.99 1646.98,1384 1649.18,1384 1651.38,1384 1653.58,1384 1655.77,1384.01 1657.97,1384.01 1660.17,1384.01 1662.37,1384.01 1664.57,1384.01 1666.77,1384.02 1668.97,1384.02 1671.16,1384.02 1673.36,1384.02 1675.56,1384.03 1677.76,1384.03 1679.96,1384.03 1682.16,1384.03 1684.36,1384.03 1686.56,1384.04 1688.75,1384.04 1690.95,1384.04 1693.15,1384.04 1695.35,1384.05 1697.55,1384.05 1699.75,1384.05 1701.95,1384.05 1704.15,1384.05 1706.34,1384.05 1708.54,1384.06 1710.74,1384.06 1712.94,1384.06 1715.14,1384.06 1717.34,1384.06 1719.54,1384.07 1721.73,1384.07 1723.93,1384.07 1726.13,1384.07 1728.33,1384.07 1730.53,1384.07 1732.73,1384.08 1734.93,1384.08 1737.13,1384.08 1739.32,1384.08 1741.52,1384.08 1743.72,1384.08 1745.92,1384.09 1748.12,1384.09 1750.32,1384.09 1752.52,1384.09 1754.71,1384.09 1756.91,1384.09 1759.11,1384.09 1761.31,1384.1 1763.51,1384.1 1765.71,1384.1 1767.91,1384.1 1770.11,1384.1 1772.3,1384.1 1774.5,1384.1 1776.7,1384.11 1778.9,1384.11 1781.1,1384.11 1783.3,1384.11 1785.5,1384.11 1787.7,1384.11 1789.89,1384.11 1792.09,1384.12 1794.29,1384.12 1796.49,1384.12 1798.69,1384.12 1800.89,1384.12 1803.09,1384.12 1805.28,1384.12 1807.48,1384.12 1809.68,1384.13 1811.88,1384.13 1814.08,1384.13 1816.28,1384.13 1818.48,1384.13 1820.68,1384.13 1822.87,1384.13 1825.07,1384.13 1827.27,1384.14 1829.47,1384.14 1831.67,1384.14 1833.87,1384.14 1836.07,1384.14 1838.26,1384.14 1840.46,1384.14 1842.66,1384.14 1844.86,1384.14 1847.06,1384.15 1849.26,1384.15 1851.46,1384.15 1853.66,1384.15 1855.85,1384.15 1858.05,1384.15 1860.25,1384.15 1862.45,1384.15 1864.65,1384.15 1866.85,1384.15 1869.05,1384.16 1871.24,1384.16 1873.44,1384.16 1875.64,1384.16 1877.84,1384.16 1880.04,1384.16 1882.24,1384.16 1884.44,1384.16 1886.64,1384.16 1888.83,1384.16 1891.03,1384.16 1893.23,1384.17 1895.43,1384.17 1897.63,1384.17 1899.83,1384.17 1902.03,1384.17 1904.23,1384.17 1906.42,1384.17 1908.62,1384.17 1910.82,1384.17 1913.02,1384.17 1915.22,1384.17 1917.42,1384.17 1919.62,1384.18 1921.81,1384.18 1924.01,1384.18 1926.21,1384.18 1928.41,1384.18 1930.61,1384.18 1932.81,1384.18 1935.01,1384.18 1937.21,1384.18 1939.4,1384.18 1941.6,1384.18 1943.8,1384.18 1946,1384.18 1948.2,1384.18 1950.4,1384.19 1952.6,1384.19 1954.79,1384.19 1956.99,1384.19 1959.19,1384.19 1961.39,1384.19 1963.59,1384.19 1965.79,1384.19 1967.99,1384.19 1970.19,1384.19 1972.38,1384.19 1974.58,1384.19 1976.78,1384.19 1978.98,1384.19 1981.18,1384.19 1983.38,1384.19 1985.58,1384.2 1987.77,1384.2 1989.97,1384.2 1992.17,1384.2 1994.37,1384.2 1996.57,1384.2 1998.77,1384.2 2000.97,1384.2 2003.17,1384.2 2005.36,1384.2 2007.56,1384.2 2009.76,1384.2 2011.96,1384.2 2014.16,1384.2 2016.36,1384.2 2018.56,1384.2 2020.76,1384.2 2022.95,1384.2 2025.15,1384.2 2027.35,1384.2 2029.55,1384.21 2031.75,1384.21 2033.95,1384.21 2036.15,1384.21 2038.34,1384.21 2040.54,1384.21 2042.74,1384.21 2044.94,1384.21 2047.14,1384.21 2049.34,1384.21 2051.54,1384.21 2053.74,1384.21 2055.93,1384.21 2058.13,1384.21 2060.33,1384.21 2062.53,1384.21 2064.73,1384.21 2066.93,1384.21 2069.13,1384.21 2071.32,1384.21 2073.52,1384.21 2075.72,1384.21 2077.92,1384.21 2080.12,1384.21 2082.32,1384.21 2084.52,1384.21 2086.72,1384.21 2088.91,1384.21 2091.11,1384.22 2093.31,1384.22 2095.51,1384.22 2097.71,1384.22 2099.91,1384.22 2102.11,1384.22 2104.31,1384.22 2106.5,1384.22 2108.7,1384.22 2110.9,1384.22 2113.1,1384.22 2115.3,1384.22 2117.5,1384.22 2119.7,1384.22 2121.89,1384.22 2124.09,1384.22 2126.29,1384.22 2128.49,1384.22 2130.69,1384.22 2132.89,1384.22 2135.09,1384.22 2137.29,1384.22 2139.48,1384.22 2141.68,1384.22 2143.88,1384.22 2146.08,1384.22 2148.28,1384.22 2150.48,1384.22 2152.68,1384.22 2154.87,1384.22 2157.07,1384.22 2159.27,1384.22 2161.47,1384.22 2163.67,1384.22 2165.87,1384.22 2168.07,1384.22 2170.27,1384.22 2172.46,1384.22 2174.66,1384.22 2176.86,1384.22 2179.06,1384.23 2181.26,1384.23 2183.46,1384.23 2185.66,1384.23 2187.85,1384.23 2190.05,1384.23 2192.25,1384.23 2194.45,1384.23 2196.65,1384.23 2198.85,1384.23 2201.05,1384.23 2203.25,1384.23 2205.44,1384.23 2207.64,1384.23 2209.84,1384.23 2212.04,1384.23 2214.24,1384.23 2216.44,1384.23 2218.64,1384.23 2220.84,1384.23 2223.03,1384.23 2225.23,1384.23 2227.43,1384.23 2229.63,1384.23 2231.83,1384.23 2234.03,1384.23 2236.23,1384.23 2238.42,1384.23 2240.62,1384.23 2242.82,1384.23 2245.02,1384.23 2247.22,1384.23 2249.42,1384.23 2251.62,1384.23 2253.82,1384.23 2256.01,1384.23 2258.21,1384.23 2260.41,1384.23 2262.61,1384.23 2264.81,1384.23 2267.01,1384.23 2269.21,1384.23 2271.4,1384.23 2273.6,1384.23 2275.8,1384.23 2278,1384.23 2280.2,1384.23 2282.4,1384.23 2284.6,1384.23 2286.8,1384.23 2288.99,1384.23 2291.19,1384.23 2293.39,1384.23 2295.59,1384.24 2297.79,1384.24 2299.99,1384.24 2302.19,1384.24 2304.38,1384.24 2306.58,1384.24 2308.78,1384.24 2310.98,1384.24 2313.18,1384.24 2315.38,1384.24 2317.58,1384.24 2319.78,1384.24 2321.97,1384.24 2324.17,1384.24 2326.37,1384.24 2328.57,1384.24 2330.77,1384.24 2332.97,1384.24 2335.17,1384.24 2337.37,1384.24 2339.56,1384.24 2341.76,1384.24 2343.96,1384.24 2346.16,1384.24 2348.36,1384.24 2350.56,1384.24 2352.76,1384.24 "/>
<polyline clip-path="url(#clip622)" style="stroke:#e26f46; stroke-linecap:round; stroke-linejoin:round; stroke-width:4; stroke-opacity:1; fill:none" points="156.274,86.1857 158.473,95.6471 160.672,105.035 162.87,114.35 165.069,123.593 167.268,132.764 169.466,141.864 171.665,150.894 173.864,159.853 176.062,168.744 178.261,177.565 180.46,186.319 182.658,195.005 184.857,203.623 187.056,212.175 189.254,220.661 191.453,229.082 193.652,237.438 195.85,245.729 198.049,253.957 200.248,262.121 202.446,270.223 204.645,278.262 206.844,286.239 209.042,294.156 211.241,302.011 213.44,309.806 215.639,317.542 217.837,325.218 220.036,332.835 222.235,340.394 224.433,347.895 226.632,355.339 228.831,362.726 231.029,370.057 233.228,377.331 235.427,384.55 237.625,391.714 239.824,398.823 242.023,405.878 244.221,412.88 246.42,419.828 248.619,426.723 250.817,433.566 253.016,440.356 255.215,447.095 257.413,453.783 259.612,460.42 261.811,467.007 264.01,473.544 266.208,480.031 268.407,486.469 270.606,492.859 272.804,499.2 275.003,505.493 277.202,511.738 279.4,517.936 281.599,524.088 283.798,530.193 285.996,536.252 288.195,542.265 290.394,548.233 292.592,554.156 294.791,560.034 296.99,565.868 299.188,571.659 301.387,577.405 303.586,583.109 305.784,588.77 307.983,594.388 310.182,599.964 312.38,605.498 314.579,610.991 316.778,616.443 318.977,621.854 321.175,627.224 323.374,632.554 325.573,637.845 327.771,643.096 329.97,648.307 332.169,653.48 334.367,658.614 336.566,663.71 338.765,668.768 340.963,673.788 343.162,678.77 345.361,683.716 347.559,688.625 349.758,693.497 351.957,698.333 354.155,703.133 356.354,707.897 358.553,712.626 360.751,717.32 362.95,721.979 365.149,726.604 367.347,731.194 369.546,735.751 371.745,740.273 373.944,744.762 376.142,749.218 378.341,753.641 380.54,758.032 382.738,762.39 384.937,766.715 387.136,771.009 389.334,775.272 391.533,779.502 393.732,783.702 395.93,787.871 398.129,792.009 400.328,796.117 402.526,800.195 404.725,804.242 406.924,808.26 409.122,812.249 411.321,816.208 413.52,820.138 415.718,824.039 417.917,827.912 420.116,831.757 422.314,835.573 424.513,839.362 426.712,843.123 428.911,846.856 431.109,850.562 433.308,854.241 435.507,857.894 437.705,861.519 439.904,865.118 442.103,868.691 444.301,872.238 446.5,875.759 448.699,879.254 450.897,882.724 453.096,886.169 455.295,889.589 457.493,892.984 459.692,896.354 461.891,899.7 464.089,903.021 466.288,906.318 468.487,909.592 470.685,912.842 472.884,916.068 475.083,919.271 477.282,922.45 479.48,925.607 481.679,928.741 483.878,931.852 486.076,934.941 488.275,938.008 490.474,941.052 492.672,944.075 494.871,947.075 497.07,950.054 499.268,953.012 501.467,955.949 503.666,958.864 505.864,961.758 508.063,964.632 510.262,967.485 512.46,970.317 514.659,973.13 516.858,975.922 519.056,978.694 521.255,981.446 523.454,984.178 525.652,986.891 527.851,989.585 530.05,992.259 532.249,994.915 534.447,997.551 536.646,1000.17 538.845,1002.77 541.043,1005.35 543.242,1007.91 545.441,1010.45 547.639,1012.98 549.838,1015.49 552.037,1017.98 554.235,1020.45 556.434,1022.9 558.633,1025.34 560.831,1027.76 563.03,1030.16 565.229,1032.55 567.427,1034.92 569.626,1037.27 571.825,1039.6 574.023,1041.92 576.222,1044.22 578.421,1046.51 580.619,1048.78 582.818,1051.03 585.017,1053.27 587.216,1055.49 589.414,1057.7 591.613,1059.89 593.812,1062.06 596.01,1064.22 598.209,1066.37 600.408,1068.49 602.606,1070.61 604.805,1072.71 607.004,1074.79 609.202,1076.86 611.401,1078.92 613.6,1080.96 615.798,1082.98 617.997,1085 620.196,1087 622.394,1088.98 624.593,1090.95 626.792,1092.91 628.99,1094.85 631.189,1096.78 633.388,1098.69 635.586,1100.6 637.785,1102.48 639.984,1104.36 642.183,1106.22 644.381,1108.07 646.58,1109.91 648.779,1111.73 650.977,1113.54 653.176,1115.34 655.375,1117.13 657.573,1118.9 659.772,1120.66 661.971,1122.41 664.169,1124.15 666.368,1125.87 668.567,1127.59 670.765,1129.29 672.964,1130.98 675.163,1132.66 677.361,1134.32 679.56,1135.98 681.759,1137.62 683.957,1139.25 686.156,1140.87 688.355,1142.48 690.554,1144.08 692.752,1145.66 694.951,1147.24 697.15,1148.8 699.348,1150.36 701.547,1151.9 703.746,1153.43 705.944,1154.96 708.143,1156.47 710.342,1157.97 712.54,1159.46 714.739,1160.94 716.938,1162.41 719.136,1163.87 721.335,1165.32 723.534,1166.76 725.732,1168.19 727.931,1169.61 730.13,1171.02 732.328,1172.42 734.527,1173.81 736.726,1175.19 738.924,1176.56 741.123,1177.93 743.322,1179.28 745.521,1180.62 747.719,1181.96 749.918,1183.28 752.117,1184.6 754.315,1185.91 756.514,1187.21 758.713,1188.5 760.911,1189.78 763.11,1191.05 765.309,1192.31 767.507,1193.57 769.706,1194.81 771.905,1196.05 774.103,1197.28 776.302,1198.5 778.501,1199.71 780.699,1200.92 782.898,1202.11 785.097,1203.3 787.295,1204.48 789.494,1205.65 791.693,1206.82 793.891,1207.97 796.09,1209.12 798.289,1210.26 800.488,1211.39 802.686,1212.52 804.885,1213.63 807.084,1214.74 809.282,1215.85 811.481,1216.94 813.68,1218.03 815.878,1219.11 818.077,1220.18 820.276,1221.25 822.474,1222.3 824.673,1223.35 826.872,1224.4 829.07,1225.44 831.269,1226.47 833.468,1227.49 835.666,1228.51 837.865,1229.51 840.064,1230.52 842.262,1231.51 844.461,1232.5 846.66,1233.49 848.858,1234.46 851.057,1235.43 853.256,1236.39 855.455,1237.35 857.653,1238.3 859.852,1239.24 862.051,1240.18 864.249,1241.11 866.448,1242.04 868.647,1242.95 870.845,1243.87 873.044,1244.77 875.243,1245.67 877.441,1246.57 879.64,1247.45 881.839,1248.34 884.037,1249.21 886.236,1250.08 888.435,1250.95 890.633,1251.81 892.832,1252.66 895.031,1253.51 897.229,1254.35 899.428,1255.18 901.627,1256.01 903.826,1256.84 906.024,1257.66 908.223,1258.47 910.422,1259.28 912.62,1260.08 914.819,1260.88 917.018,1261.67 919.216,1262.46 921.415,1263.24 923.614,1264.02 925.812,1264.79 928.011,1265.55 930.21,1266.31 932.408,1267.07 934.607,1267.82 936.806,1268.57 939.004,1269.31 941.203,1270.04 943.402,1270.77 945.6,1271.5 947.799,1272.22 949.998,1272.94 952.196,1273.65 954.395,1274.36 956.594,1275.06 958.793,1275.76 960.991,1276.45 963.19,1277.14 965.389,1277.82 967.587,1278.5 969.786,1279.18 971.985,1279.85 974.183,1280.51 976.382,1281.18 978.581,1281.83 980.779,1282.49 982.978,1283.13 985.177,1283.78 987.375,1284.42 989.574,1285.06 991.773,1285.69 993.971,1286.31 996.17,1286.94 998.369,1287.56 1000.57,1288.17 1002.77,1288.78 1004.96,1289.39 1007.16,1290 1009.36,1290.59 1011.56,1291.19 1013.76,1291.78 1015.96,1292.37 1018.16,1292.95 1020.36,1293.53 1022.55,1294.11 1024.75,1294.68 1026.95,1295.25 1029.15,1295.82 1031.35,1296.38 1033.55,1296.94 1035.75,1297.49 1037.95,1298.04 1040.14,1298.59 1042.34,1299.13 1044.54,1299.67 1046.74,1300.21 1048.94,1300.74 1051.14,1301.27 1053.34,1301.8 1055.53,1302.32 1057.73,1302.84 1059.93,1303.35 1062.13,1303.87 1064.33,1304.38 1066.53,1304.88 1068.73,1305.38 1070.93,1305.88 1073.12,1306.38 1075.32,1306.87 1077.52,1307.36 1079.72,1307.85 1081.92,1308.33 1084.12,1308.81 1086.32,1309.29 1088.51,1309.76 1090.71,1310.23 1092.91,1310.7 1095.11,1311.16 1097.31,1311.62 1099.51,1312.08 1101.71,1312.54 1103.91,1312.99 1106.1,1313.44 1108.3,1313.88 1110.5,1314.33 1112.7,1314.77 1114.9,1315.21 1117.1,1315.64 1119.3,1316.07 1121.49,1316.5 1123.69,1316.93 1125.89,1317.35 1128.09,1317.77 1130.29,1318.19 1132.49,1318.61 1134.69,1319.02 1136.89,1319.43 1139.08,1319.84 1141.28,1320.24 1143.48,1320.64 1145.68,1321.04 1147.88,1321.44 1150.08,1321.83 1152.28,1322.23 1154.48,1322.62 1156.67,1323 1158.87,1323.39 1161.07,1323.77 1163.27,1324.15 1165.47,1324.52 1167.67,1324.9 1169.87,1325.27 1172.06,1325.64 1174.26,1326.01 1176.46,1326.37 1178.66,1326.74 1180.86,1327.1 1183.06,1327.45 1185.26,1327.81 1187.46,1328.16 1189.65,1328.51 1191.85,1328.86 1194.05,1329.21 1196.25,1329.55 1198.45,1329.89 1200.65,1330.23 1202.85,1330.57 1205.04,1330.91 1207.24,1331.24 1209.44,1331.57 1211.64,1331.9 1213.84,1332.23 1216.04,1332.55 1218.24,1332.88 1220.44,1333.2 1222.63,1333.52 1224.83,1333.83 1227.03,1334.15 1229.23,1334.46 1231.43,1334.77 1233.63,1335.08 1235.83,1335.39 1238.02,1335.69 1240.22,1336 1242.42,1336.3 1244.62,1336.6 1246.82,1336.89 1249.02,1337.19 1251.22,1337.48 1253.42,1337.77 1255.61,1338.06 1257.81,1338.35 1260.01,1338.64 1262.21,1338.92 1264.41,1339.21 1266.61,1339.49 1268.81,1339.77 1271.01,1340.04 1273.2,1340.32 1275.4,1340.59 1277.6,1340.86 1279.8,1341.13 1282,1341.4 1284.2,1341.67 1286.4,1341.94 1288.59,1342.2 1290.79,1342.46 1292.99,1342.72 1295.19,1342.98 1297.39,1343.24 1299.59,1343.49 1301.79,1343.75 1303.99,1344 1306.18,1344.25 1308.38,1344.5 1310.58,1344.74 1312.78,1344.99 1314.98,1345.23 1317.18,1345.48 1319.38,1345.72 1321.57,1345.96 1323.77,1346.19 1325.97,1346.43 1328.17,1346.67 1330.37,1346.9 1332.57,1347.13 1334.77,1347.36 1336.97,1347.59 1339.16,1347.82 1341.36,1348.04 1343.56,1348.27 1345.76,1348.49 1347.96,1348.71 1350.16,1348.93 1352.36,1349.15 1354.55,1349.37 1356.75,1349.59 1358.95,1349.8 1361.15,1350.01 1363.35,1350.23 1365.55,1350.44 1367.75,1350.65 1369.95,1350.85 1372.14,1351.06 1374.34,1351.27 1376.54,1351.47 1378.74,1351.67 1380.94,1351.87 1383.14,1352.07 1385.34,1352.27 1387.54,1352.47 1389.73,1352.67 1391.93,1352.86 1394.13,1353.06 1396.33,1353.25 1398.53,1353.44 1400.73,1353.63 1402.93,1353.82 1405.12,1354.01 1407.32,1354.19 1409.52,1354.38 1411.72,1354.56 1413.92,1354.75 1416.12,1354.93 1418.32,1355.11 1420.52,1355.29 1422.71,1355.47 1424.91,1355.64 1427.11,1355.82 1429.31,1356 1431.51,1356.17 1433.71,1356.34 1435.91,1356.51 1438.1,1356.69 1440.3,1356.86 1442.5,1357.02 1444.7,1357.19 1446.9,1357.36 1449.1,1357.52 1451.3,1357.69 1453.5,1357.85 1455.69,1358.01 1457.89,1358.18 1460.09,1358.34 1462.29,1358.5 1464.49,1358.65 1466.69,1358.81 1468.89,1358.97 1471.09,1359.12 1473.28,1359.28 1475.48,1359.43 1477.68,1359.58 1479.88,1359.74 1482.08,1359.89 1484.28,1360.04 1486.48,1360.18 1488.67,1360.33 1490.87,1360.48 1493.07,1360.63 1495.27,1360.77 1497.47,1360.92 1499.67,1361.06 1501.87,1361.2 1504.07,1361.34 1506.26,1361.48 1508.46,1361.62 1510.66,1361.76 1512.86,1361.9 1515.06,1362.04 1517.26,1362.18 1519.46,1362.31 1521.65,1362.45 1523.85,1362.58 1526.05,1362.71 1528.25,1362.85 1530.45,1362.98 1532.65,1363.11 1534.85,1363.24 1537.05,1363.37 1539.24,1363.5 1541.44,1363.62 1543.64,1363.75 1545.84,1363.88 1548.04,1364 1550.24,1364.13 1552.44,1364.25 1554.63,1364.37 1556.83,1364.5 1559.03,1364.62 1561.23,1364.74 1563.43,1364.86 1565.63,1364.98 1567.83,1365.09 1570.03,1365.21 1572.22,1365.33 1574.42,1365.45 1576.62,1365.56 1578.82,1365.68 1581.02,1365.79 1583.22,1365.9 1585.42,1366.02 1587.62,1366.13 1589.81,1366.24 1592.01,1366.35 1594.21,1366.46 1596.41,1366.57 1598.61,1366.68 1600.81,1366.79 1603.01,1366.89 1605.2,1367 1607.4,1367.1 1609.6,1367.21 1611.8,1367.31 1614,1367.42 1616.2,1367.52 1618.4,1367.62 1620.6,1367.73 1622.79,1367.83 1624.99,1367.93 1627.19,1368.03 1629.39,1368.13 1631.59,1368.23 1633.79,1368.32 1635.99,1368.42 1638.18,1368.52 1640.38,1368.61 1642.58,1368.71 1644.78,1368.8 1646.98,1368.9 1649.18,1368.99 1651.38,1369.09 1653.58,1369.18 1655.77,1369.27 1657.97,1369.36 1660.17,1369.45 1662.37,1369.54 1664.57,1369.63 1666.77,1369.72 1668.97,1369.81 1671.16,1369.9 1673.36,1369.99 1675.56,1370.07 1677.76,1370.16 1679.96,1370.25 1682.16,1370.33 1684.36,1370.42 1686.56,1370.5 1688.75,1370.58 1690.95,1370.67 1693.15,1370.75 1695.35,1370.83 1697.55,1370.91 1699.75,1371 1701.95,1371.08 1704.15,1371.16 1706.34,1371.24 1708.54,1371.32 1710.74,1371.39 1712.94,1371.47 1715.14,1371.55 1717.34,1371.63 1719.54,1371.7 1721.73,1371.78 1723.93,1371.86 1726.13,1371.93 1728.33,1372.01 1730.53,1372.08 1732.73,1372.15 1734.93,1372.23 1737.13,1372.3 1739.32,1372.37 1741.52,1372.45 1743.72,1372.52 1745.92,1372.59 1748.12,1372.66 1750.32,1372.73 1752.52,1372.8 1754.71,1372.87 1756.91,1372.94 1759.11,1373.01 1761.31,1373.08 1763.51,1373.14 1765.71,1373.21 1767.91,1373.28 1770.11,1373.34 1772.3,1373.41 1774.5,1373.48 1776.7,1373.54 1778.9,1373.61 1781.1,1373.67 1783.3,1373.73 1785.5,1373.8 1787.7,1373.86 1789.89,1373.93 1792.09,1373.99 1794.29,1374.05 1796.49,1374.11 1798.69,1374.17 1800.89,1374.23 1803.09,1374.3 1805.28,1374.36 1807.48,1374.42 1809.68,1374.48 1811.88,1374.54 1814.08,1374.59 1816.28,1374.65 1818.48,1374.71 1820.68,1374.77 1822.87,1374.83 1825.07,1374.88 1827.27,1374.94 1829.47,1375 1831.67,1375.05 1833.87,1375.11 1836.07,1375.17 1838.26,1375.22 1840.46,1375.28 1842.66,1375.33 1844.86,1375.39 1847.06,1375.44 1849.26,1375.49 1851.46,1375.55 1853.66,1375.6 1855.85,1375.65 1858.05,1375.7 1860.25,1375.76 1862.45,1375.81 1864.65,1375.86 1866.85,1375.91 1869.05,1375.96 1871.24,1376.01 1873.44,1376.06 1875.64,1376.11 1877.84,1376.16 1880.04,1376.21 1882.24,1376.26 1884.44,1376.31 1886.64,1376.36 1888.83,1376.41 1891.03,1376.45 1893.23,1376.5 1895.43,1376.55 1897.63,1376.59 1899.83,1376.64 1902.03,1376.69 1904.23,1376.73 1906.42,1376.78 1908.62,1376.83 1910.82,1376.87 1913.02,1376.92 1915.22,1376.96 1917.42,1377 1919.62,1377.05 1921.81,1377.09 1924.01,1377.14 1926.21,1377.18 1928.41,1377.22 1930.61,1377.27 1932.81,1377.31 1935.01,1377.35 1937.21,1377.39 1939.4,1377.43 1941.6,1377.48 1943.8,1377.52 1946,1377.56 1948.2,1377.6 1950.4,1377.64 1952.6,1377.68 1954.79,1377.72 1956.99,1377.76 1959.19,1377.8 1961.39,1377.84 1963.59,1377.88 1965.79,1377.91 1967.99,1377.95 1970.19,1377.99 1972.38,1378.03 1974.58,1378.07 1976.78,1378.1 1978.98,1378.14 1981.18,1378.18 1983.38,1378.22 1985.58,1378.25 1987.77,1378.29 1989.97,1378.32 1992.17,1378.36 1994.37,1378.4 1996.57,1378.43 1998.77,1378.47 2000.97,1378.5 2003.17,1378.54 2005.36,1378.57 2007.56,1378.61 2009.76,1378.64 2011.96,1378.67 2014.16,1378.71 2016.36,1378.74 2018.56,1378.77 2020.76,1378.81 2022.95,1378.84 2025.15,1378.87 2027.35,1378.91 2029.55,1378.94 2031.75,1378.97 2033.95,1379 2036.15,1379.03 2038.34,1379.06 2040.54,1379.1 2042.74,1379.13 2044.94,1379.16 2047.14,1379.19 2049.34,1379.22 2051.54,1379.25 2053.74,1379.28 2055.93,1379.31 2058.13,1379.34 2060.33,1379.37 2062.53,1379.4 2064.73,1379.43 2066.93,1379.46 2069.13,1379.49 2071.32,1379.51 2073.52,1379.54 2075.72,1379.57 2077.92,1379.6 2080.12,1379.63 2082.32,1379.65 2084.52,1379.68 2086.72,1379.71 2088.91,1379.74 2091.11,1379.76 2093.31,1379.79 2095.51,1379.82 2097.71,1379.84 2099.91,1379.87 2102.11,1379.9 2104.31,1379.92 2106.5,1379.95 2108.7,1379.97 2110.9,1380 2113.1,1380.03 2115.3,1380.05 2117.5,1380.08 2119.7,1380.1 2121.89,1380.13 2124.09,1380.15 2126.29,1380.18 2128.49,1380.2 2130.69,1380.22 2132.89,1380.25 2135.09,1380.27 2137.29,1380.3 2139.48,1380.32 2141.68,1380.34 2143.88,1380.37 2146.08,1380.39 2148.28,1380.41 2150.48,1380.44 2152.68,1380.46 2154.87,1380.48 2157.07,1380.5 2159.27,1380.53 2161.47,1380.55 2163.67,1380.57 2165.87,1380.59 2168.07,1380.62 2170.27,1380.64 2172.46,1380.66 2174.66,1380.68 2176.86,1380.7 2179.06,1380.72 2181.26,1380.74 2183.46,1380.77 2185.66,1380.79 2187.85,1380.81 2190.05,1380.83 2192.25,1380.85 2194.45,1380.87 2196.65,1380.89 2198.85,1380.91 2201.05,1380.93 2203.25,1380.95 2205.44,1380.97 2207.64,1380.99 2209.84,1381.01 2212.04,1381.03 2214.24,1381.05 2216.44,1381.07 2218.64,1381.09 2220.84,1381.11 2223.03,1381.13 2225.23,1381.14 2227.43,1381.16 2229.63,1381.18 2231.83,1381.2 2234.03,1381.22 2236.23,1381.24 2238.42,1381.25 2240.62,1381.27 2242.82,1381.29 2245.02,1381.31 2247.22,1381.33 2249.42,1381.34 2251.62,1381.36 2253.82,1381.38 2256.01,1381.4 2258.21,1381.41 2260.41,1381.43 2262.61,1381.45 2264.81,1381.46 2267.01,1381.48 2269.21,1381.5 2271.4,1381.51 2273.6,1381.53 2275.8,1381.55 2278,1381.56 2280.2,1381.58 2282.4,1381.6 2284.6,1381.61 2286.8,1381.63 2288.99,1381.64 2291.19,1381.66 2293.39,1381.68 2295.59,1381.69 2297.79,1381.71 2299.99,1381.72 2302.19,1381.74 2304.38,1381.75 2306.58,1381.77 2308.78,1381.78 2310.98,1381.8 2313.18,1381.81 2315.38,1381.83 2317.58,1381.84 2319.78,1381.86 2321.97,1381.87 2324.17,1381.88 2326.37,1381.9 2328.57,1381.91 2330.77,1381.93 2332.97,1381.94 2335.17,1381.95 2337.37,1381.97 2339.56,1381.98 2341.76,1382 2343.96,1382.01 2346.16,1382.02 2348.36,1382.04 2350.56,1382.05 2352.76,1382.06 "/>
<path clip-path="url(#clip620)" d="M1800.49 248.629 L2279.54 248.629 L2279.54 93.1086 L1800.49 93.1086  Z" fill="#ffffff" fill-rule="evenodd" fill-opacity="1"/>
<polyline clip-path="url(#clip620)" style="stroke:#000000; stroke-linecap:round; stroke-linejoin:round; stroke-width:4; stroke-opacity:1; fill:none" points="1800.49,248.629 2279.54,248.629 2279.54,93.1086 1800.49,93.1086 1800.49,248.629 "/>
<polyline clip-path="url(#clip620)" style="stroke:#009af9; stroke-linecap:round; stroke-linejoin:round; stroke-width:4; stroke-opacity:1; fill:none" points="1824.9,144.949 1971.33,144.949 "/>
<path clip-path="url(#clip620)" d="M1995.74 136.303 L2000.25 136.303 L2008.35 158.062 L2016.46 136.303 L2020.97 136.303 L2011.25 162.229 L2005.46 162.229 L1995.74 136.303 Z" fill="#000000" fill-rule="nonzero" fill-opacity="1" /><path clip-path="url(#clip620)" d="M2028.26 158.293 L2035.9 158.293 L2035.9 131.928 L2027.59 133.595 L2027.59 129.335 L2035.85 127.669 L2040.53 127.669 L2040.53 158.293 L2048.17 158.293 L2048.17 162.229 L2028.26 162.229 L2028.26 158.293 Z" fill="#000000" fill-rule="nonzero" fill-opacity="1" /><path clip-path="url(#clip620)" d="M2066.27 145.585 L2066.27 152.807 L2074.39 152.807 L2074.39 155.006 L2066.27 155.006 L2066.27 162.229 L2063.84 162.229 L2063.84 155.006 L2055.71 155.006 L2055.71 152.807 L2063.84 152.807 L2063.84 145.585 L2066.27 145.585 Z" fill="#000000" fill-rule="nonzero" fill-opacity="1" /><path clip-path="url(#clip620)" d="M2098.56 137.067 L2098.56 141.094 Q2096.76 140.169 2094.81 139.706 Q2092.87 139.243 2090.78 139.243 Q2087.61 139.243 2086.02 140.215 Q2084.44 141.187 2084.44 143.131 Q2084.44 144.613 2085.58 145.469 Q2086.71 146.303 2090.14 147.067 L2091.59 147.391 Q2096.13 148.363 2098.03 150.145 Q2099.95 151.905 2099.95 155.076 Q2099.95 158.687 2097.08 160.793 Q2094.23 162.9 2089.23 162.9 Q2087.15 162.9 2084.88 162.483 Q2082.64 162.09 2080.14 161.28 L2080.14 156.881 Q2082.5 158.108 2084.79 158.733 Q2087.08 159.335 2089.33 159.335 Q2092.33 159.335 2093.95 158.317 Q2095.58 157.275 2095.58 155.4 Q2095.58 153.664 2094.39 152.738 Q2093.24 151.812 2089.28 150.956 L2087.8 150.608 Q2083.84 149.775 2082.08 148.062 Q2080.32 146.326 2080.32 143.317 Q2080.32 139.659 2082.91 137.669 Q2085.51 135.678 2090.27 135.678 Q2092.64 135.678 2094.72 136.025 Q2096.8 136.372 2098.56 137.067 Z" fill="#000000" fill-rule="nonzero" fill-opacity="1" /><path clip-path="url(#clip620)" d="M2110.95 128.942 L2110.95 136.303 L2119.72 136.303 L2119.72 139.613 L2110.95 139.613 L2110.95 153.687 Q2110.95 156.858 2111.8 157.761 Q2112.68 158.664 2115.34 158.664 L2119.72 158.664 L2119.72 162.229 L2115.34 162.229 Q2110.41 162.229 2108.54 160.4 Q2106.66 158.548 2106.66 153.687 L2106.66 139.613 L2103.54 139.613 L2103.54 136.303 L2106.66 136.303 L2106.66 128.942 L2110.95 128.942 Z" fill="#000000" fill-rule="nonzero" fill-opacity="1" /><path clip-path="url(#clip620)" d="M2135.37 139.289 Q2131.94 139.289 2129.95 141.974 Q2127.96 144.636 2127.96 149.289 Q2127.96 153.942 2129.93 156.627 Q2131.92 159.289 2135.37 159.289 Q2138.77 159.289 2140.76 156.604 Q2142.75 153.918 2142.75 149.289 Q2142.75 144.682 2140.76 141.997 Q2138.77 139.289 2135.37 139.289 M2135.37 135.678 Q2140.92 135.678 2144.09 139.289 Q2147.26 142.9 2147.26 149.289 Q2147.26 155.655 2144.09 159.289 Q2140.92 162.9 2135.37 162.9 Q2129.79 162.9 2126.62 159.289 Q2123.47 155.655 2123.47 149.289 Q2123.47 142.9 2126.62 139.289 Q2129.79 135.678 2135.37 135.678 Z" fill="#000000" fill-rule="nonzero" fill-opacity="1" /><path clip-path="url(#clip620)" d="M2169.35 140.284 Q2168.63 139.868 2167.77 139.682 Q2166.94 139.474 2165.92 139.474 Q2162.31 139.474 2160.37 141.835 Q2158.45 144.173 2158.45 148.571 L2158.45 162.229 L2154.16 162.229 L2154.16 136.303 L2158.45 136.303 L2158.45 140.331 Q2159.79 137.969 2161.94 136.835 Q2164.09 135.678 2167.17 135.678 Q2167.61 135.678 2168.14 135.747 Q2168.68 135.794 2169.32 135.909 L2169.35 140.284 Z" fill="#000000" fill-rule="nonzero" fill-opacity="1" /><path clip-path="url(#clip620)" d="M2185.6 149.196 Q2180.44 149.196 2178.45 150.377 Q2176.45 151.557 2176.45 154.405 Q2176.45 156.673 2177.94 158.016 Q2179.44 159.335 2182.01 159.335 Q2185.55 159.335 2187.68 156.835 Q2189.83 154.312 2189.83 150.145 L2189.83 149.196 L2185.6 149.196 M2194.09 147.437 L2194.09 162.229 L2189.83 162.229 L2189.83 158.293 Q2188.38 160.655 2186.2 161.789 Q2184.02 162.9 2180.88 162.9 Q2176.89 162.9 2174.53 160.678 Q2172.2 158.432 2172.2 154.682 Q2172.2 150.307 2175.11 148.085 Q2178.05 145.863 2183.86 145.863 L2189.83 145.863 L2189.83 145.446 Q2189.83 142.507 2187.89 140.909 Q2185.97 139.289 2182.47 139.289 Q2180.25 139.289 2178.14 139.821 Q2176.04 140.354 2174.09 141.419 L2174.09 137.483 Q2176.43 136.581 2178.63 136.141 Q2180.83 135.678 2182.91 135.678 Q2188.54 135.678 2191.32 138.594 Q2194.09 141.511 2194.09 147.437 Z" fill="#000000" fill-rule="nonzero" fill-opacity="1" /><path clip-path="url(#clip620)" d="M2219.93 148.965 Q2219.93 144.335 2218.01 141.789 Q2216.11 139.243 2212.66 139.243 Q2209.23 139.243 2207.31 141.789 Q2205.41 144.335 2205.41 148.965 Q2205.41 153.571 2207.31 156.118 Q2209.23 158.664 2212.66 158.664 Q2216.11 158.664 2218.01 156.118 Q2219.93 153.571 2219.93 148.965 M2224.19 159.011 Q2224.19 165.631 2221.25 168.849 Q2218.31 172.09 2212.24 172.09 Q2210 172.09 2208.01 171.742 Q2206.01 171.418 2204.14 170.724 L2204.14 166.58 Q2206.01 167.599 2207.84 168.085 Q2209.67 168.571 2211.57 168.571 Q2215.76 168.571 2217.84 166.372 Q2219.93 164.196 2219.93 159.775 L2219.93 157.668 Q2218.61 159.96 2216.55 161.094 Q2214.49 162.229 2211.62 162.229 Q2206.85 162.229 2203.93 158.594 Q2201.01 154.96 2201.01 148.965 Q2201.01 142.946 2203.93 139.312 Q2206.85 135.678 2211.62 135.678 Q2214.49 135.678 2216.55 136.812 Q2218.61 137.946 2219.93 140.238 L2219.93 136.303 L2224.19 136.303 L2224.19 159.011 Z" fill="#000000" fill-rule="nonzero" fill-opacity="1" /><path clip-path="url(#clip620)" d="M2255.13 148.201 L2255.13 150.284 L2235.55 150.284 Q2235.83 154.682 2238.19 156.997 Q2240.57 159.289 2244.81 159.289 Q2247.26 159.289 2249.56 158.687 Q2251.87 158.085 2254.14 156.881 L2254.14 160.909 Q2251.85 161.881 2249.44 162.391 Q2247.03 162.9 2244.56 162.9 Q2238.35 162.9 2234.72 159.289 Q2231.11 155.678 2231.11 149.52 Q2231.11 143.155 2234.53 139.428 Q2237.98 135.678 2243.82 135.678 Q2249.05 135.678 2252.08 139.057 Q2255.13 142.414 2255.13 148.201 M2250.88 146.951 Q2250.83 143.456 2248.91 141.372 Q2247.01 139.289 2243.86 139.289 Q2240.3 139.289 2238.14 141.303 Q2236.01 143.317 2235.69 146.974 L2250.88 146.951 Z" fill="#000000" fill-rule="nonzero" fill-opacity="1" /><polyline clip-path="url(#clip620)" style="stroke:#e26f46; stroke-linecap:round; stroke-linejoin:round; stroke-width:4; stroke-opacity:1; fill:none" points="1824.9,196.789 1971.33,196.789 "/>
<path clip-path="url(#clip620)" d="M1995.74 188.143 L2000.25 188.143 L2008.35 209.902 L2016.46 188.143 L2020.97 188.143 L2011.25 214.069 L2005.46 214.069 L1995.74 188.143 Z" fill="#000000" fill-rule="nonzero" fill-opacity="1" /><path clip-path="url(#clip620)" d="M2027.5 179.509 L2045.85 179.509 L2045.85 183.444 L2031.78 183.444 L2031.78 191.916 Q2032.8 191.569 2033.82 191.407 Q2034.83 191.222 2035.85 191.222 Q2041.64 191.222 2045.02 194.393 Q2048.4 197.564 2048.4 202.981 Q2048.4 208.559 2044.93 211.661 Q2041.46 214.74 2035.14 214.74 Q2032.96 214.74 2030.69 214.37 Q2028.45 213.999 2026.04 213.258 L2026.04 208.559 Q2028.12 209.694 2030.34 210.249 Q2032.57 210.805 2035.04 210.805 Q2039.05 210.805 2041.39 208.698 Q2043.72 206.592 2043.72 202.981 Q2043.72 199.37 2041.39 197.263 Q2039.05 195.157 2035.04 195.157 Q2033.17 195.157 2031.29 195.573 Q2029.44 195.99 2027.5 196.87 L2027.5 179.509 Z" fill="#000000" fill-rule="nonzero" fill-opacity="1" /><path clip-path="url(#clip620)" d="M2066.27 197.425 L2066.27 204.647 L2074.39 204.647 L2074.39 206.846 L2066.27 206.846 L2066.27 214.069 L2063.84 214.069 L2063.84 206.846 L2055.71 206.846 L2055.71 204.647 L2063.84 204.647 L2063.84 197.425 L2066.27 197.425 Z" fill="#000000" fill-rule="nonzero" fill-opacity="1" /><path clip-path="url(#clip620)" d="M2098.56 188.907 L2098.56 192.934 Q2096.76 192.009 2094.81 191.546 Q2092.87 191.083 2090.78 191.083 Q2087.61 191.083 2086.02 192.055 Q2084.44 193.027 2084.44 194.971 Q2084.44 196.453 2085.58 197.309 Q2086.71 198.143 2090.14 198.907 L2091.59 199.231 Q2096.13 200.203 2098.03 201.985 Q2099.95 203.745 2099.95 206.916 Q2099.95 210.527 2097.08 212.633 Q2094.23 214.74 2089.23 214.74 Q2087.15 214.74 2084.88 214.323 Q2082.64 213.93 2080.14 213.12 L2080.14 208.721 Q2082.5 209.948 2084.79 210.573 Q2087.08 211.175 2089.33 211.175 Q2092.33 211.175 2093.95 210.157 Q2095.58 209.115 2095.58 207.24 Q2095.58 205.504 2094.39 204.578 Q2093.24 203.652 2089.28 202.796 L2087.8 202.448 Q2083.84 201.615 2082.08 199.902 Q2080.32 198.166 2080.32 195.157 Q2080.32 191.499 2082.91 189.509 Q2085.51 187.518 2090.27 187.518 Q2092.64 187.518 2094.72 187.865 Q2096.8 188.212 2098.56 188.907 Z" fill="#000000" fill-rule="nonzero" fill-opacity="1" /><path clip-path="url(#clip620)" d="M2110.95 180.782 L2110.95 188.143 L2119.72 188.143 L2119.72 191.453 L2110.95 191.453 L2110.95 205.527 Q2110.95 208.698 2111.8 209.601 Q2112.68 210.504 2115.34 210.504 L2119.72 210.504 L2119.72 214.069 L2115.34 214.069 Q2110.41 214.069 2108.54 212.24 Q2106.66 210.388 2106.66 205.527 L2106.66 191.453 L2103.54 191.453 L2103.54 188.143 L2106.66 188.143 L2106.66 180.782 L2110.95 180.782 Z" fill="#000000" fill-rule="nonzero" fill-opacity="1" /><path clip-path="url(#clip620)" d="M2135.37 191.129 Q2131.94 191.129 2129.95 193.814 Q2127.96 196.476 2127.96 201.129 Q2127.96 205.782 2129.93 208.467 Q2131.92 211.129 2135.37 211.129 Q2138.77 211.129 2140.76 208.444 Q2142.75 205.758 2142.75 201.129 Q2142.75 196.522 2140.76 193.837 Q2138.77 191.129 2135.37 191.129 M2135.37 187.518 Q2140.92 187.518 2144.09 191.129 Q2147.26 194.74 2147.26 201.129 Q2147.26 207.495 2144.09 211.129 Q2140.92 214.74 2135.37 214.74 Q2129.79 214.74 2126.62 211.129 Q2123.47 207.495 2123.47 201.129 Q2123.47 194.74 2126.62 191.129 Q2129.79 187.518 2135.37 187.518 Z" fill="#000000" fill-rule="nonzero" fill-opacity="1" /><path clip-path="url(#clip620)" d="M2169.35 192.124 Q2168.63 191.708 2167.77 191.522 Q2166.94 191.314 2165.92 191.314 Q2162.31 191.314 2160.37 193.675 Q2158.45 196.013 2158.45 200.411 L2158.45 214.069 L2154.16 214.069 L2154.16 188.143 L2158.45 188.143 L2158.45 192.171 Q2159.79 189.809 2161.94 188.675 Q2164.09 187.518 2167.17 187.518 Q2167.61 187.518 2168.14 187.587 Q2168.68 187.634 2169.32 187.749 L2169.35 192.124 Z" fill="#000000" fill-rule="nonzero" fill-opacity="1" /><path clip-path="url(#clip620)" d="M2185.6 201.036 Q2180.44 201.036 2178.45 202.217 Q2176.45 203.397 2176.45 206.245 Q2176.45 208.513 2177.94 209.856 Q2179.44 211.175 2182.01 211.175 Q2185.55 211.175 2187.68 208.675 Q2189.83 206.152 2189.83 201.985 L2189.83 201.036 L2185.6 201.036 M2194.09 199.277 L2194.09 214.069 L2189.83 214.069 L2189.83 210.133 Q2188.38 212.495 2186.2 213.629 Q2184.02 214.74 2180.88 214.74 Q2176.89 214.74 2174.53 212.518 Q2172.2 210.272 2172.2 206.522 Q2172.2 202.147 2175.11 199.925 Q2178.05 197.703 2183.86 197.703 L2189.83 197.703 L2189.83 197.286 Q2189.83 194.347 2187.89 192.749 Q2185.97 191.129 2182.47 191.129 Q2180.25 191.129 2178.14 191.661 Q2176.04 192.194 2174.09 193.259 L2174.09 189.323 Q2176.43 188.421 2178.63 187.981 Q2180.83 187.518 2182.91 187.518 Q2188.54 187.518 2191.32 190.434 Q2194.09 193.351 2194.09 199.277 Z" fill="#000000" fill-rule="nonzero" fill-opacity="1" /><path clip-path="url(#clip620)" d="M2219.93 200.805 Q2219.93 196.175 2218.01 193.629 Q2216.11 191.083 2212.66 191.083 Q2209.23 191.083 2207.31 193.629 Q2205.41 196.175 2205.41 200.805 Q2205.41 205.411 2207.31 207.958 Q2209.23 210.504 2212.66 210.504 Q2216.11 210.504 2218.01 207.958 Q2219.93 205.411 2219.93 200.805 M2224.19 210.851 Q2224.19 217.471 2221.25 220.689 Q2218.31 223.93 2212.24 223.93 Q2210 223.93 2208.01 223.582 Q2206.01 223.258 2204.14 222.564 L2204.14 218.42 Q2206.01 219.439 2207.84 219.925 Q2209.67 220.411 2211.57 220.411 Q2215.76 220.411 2217.84 218.212 Q2219.93 216.036 2219.93 211.615 L2219.93 209.508 Q2218.61 211.8 2216.55 212.934 Q2214.49 214.069 2211.62 214.069 Q2206.85 214.069 2203.93 210.434 Q2201.01 206.8 2201.01 200.805 Q2201.01 194.786 2203.93 191.152 Q2206.85 187.518 2211.62 187.518 Q2214.49 187.518 2216.55 188.652 Q2218.61 189.786 2219.93 192.078 L2219.93 188.143 L2224.19 188.143 L2224.19 210.851 Z" fill="#000000" fill-rule="nonzero" fill-opacity="1" /><path clip-path="url(#clip620)" d="M2255.13 200.041 L2255.13 202.124 L2235.55 202.124 Q2235.83 206.522 2238.19 208.837 Q2240.57 211.129 2244.81 211.129 Q2247.26 211.129 2249.56 210.527 Q2251.87 209.925 2254.14 208.721 L2254.14 212.749 Q2251.85 213.721 2249.44 214.231 Q2247.03 214.74 2244.56 214.74 Q2238.35 214.74 2234.72 211.129 Q2231.11 207.518 2231.11 201.36 Q2231.11 194.995 2234.53 191.268 Q2237.98 187.518 2243.82 187.518 Q2249.05 187.518 2252.08 190.897 Q2255.13 194.254 2255.13 200.041 M2250.88 198.791 Q2250.83 195.296 2248.91 193.212 Q2247.01 191.129 2243.86 191.129 Q2240.3 191.129 2238.14 193.143 Q2236.01 195.157 2235.69 198.814 L2250.88 198.791 Z" fill="#000000" fill-rule="nonzero" fill-opacity="1" /></svg>
