<?xml version="1.0" encoding="utf-8"?>
<svg xmlns="http://www.w3.org/2000/svg" xmlns:xlink="http://www.w3.org/1999/xlink" width="600" height="400" viewBox="0 0 2400 1600">
<defs>
  <clipPath id="clip080">
    <rect x="0" y="0" width="2400" height="1600"/>
  </clipPath>
</defs>
<path clip-path="url(#clip080)" d="M0 1600 L2400 1600 L2400 0 L0 0  Z" fill="#ffffff" fill-rule="evenodd" fill-opacity="1"/>
<defs>
  <clipPath id="clip081">
    <rect x="480" y="0" width="1681" height="1600"/>
  </clipPath>
</defs>
<path clip-path="url(#clip080)" d="M194.098 1423.18 L2352.76 1423.18 L2352.76 47.2441 L194.098 47.2441  Z" fill="#ffffff" fill-rule="evenodd" fill-opacity="1"/>
<defs>
  <clipPath id="clip082">
    <rect x="194" y="47" width="2160" height="1377"/>
  </clipPath>
</defs>
<polyline clip-path="url(#clip082)" style="stroke:#000000; stroke-linecap:round; stroke-linejoin:round; stroke-width:2; stroke-opacity:0.1; fill:none" points="194.098,1423.18 194.098,47.2441 "/>
<polyline clip-path="url(#clip082)" style="stroke:#000000; stroke-linecap:round; stroke-linejoin:round; stroke-width:2; stroke-opacity:0.1; fill:none" points="733.763,1423.18 733.763,47.2441 "/>
<polyline clip-path="url(#clip082)" style="stroke:#000000; stroke-linecap:round; stroke-linejoin:round; stroke-width:2; stroke-opacity:0.1; fill:none" points="1273.43,1423.18 1273.43,47.2441 "/>
<polyline clip-path="url(#clip082)" style="stroke:#000000; stroke-linecap:round; stroke-linejoin:round; stroke-width:2; stroke-opacity:0.1; fill:none" points="1813.09,1423.18 1813.09,47.2441 "/>
<polyline clip-path="url(#clip082)" style="stroke:#000000; stroke-linecap:round; stroke-linejoin:round; stroke-width:2; stroke-opacity:0.1; fill:none" points="2352.76,1423.18 2352.76,47.2441 "/>
<polyline clip-path="url(#clip082)" style="stroke:#000000; stroke-linecap:round; stroke-linejoin:round; stroke-width:2; stroke-opacity:0.1; fill:none" points="194.098,1243.09 2352.76,1243.09 "/>
<polyline clip-path="url(#clip082)" style="stroke:#000000; stroke-linecap:round; stroke-linejoin:round; stroke-width:2; stroke-opacity:0.1; fill:none" points="194.098,1003.86 2352.76,1003.86 "/>
<polyline clip-path="url(#clip082)" style="stroke:#000000; stroke-linecap:round; stroke-linejoin:round; stroke-width:2; stroke-opacity:0.1; fill:none" points="194.098,764.634 2352.76,764.634 "/>
<polyline clip-path="url(#clip082)" style="stroke:#000000; stroke-linecap:round; stroke-linejoin:round; stroke-width:2; stroke-opacity:0.1; fill:none" points="194.098,525.408 2352.76,525.408 "/>
<polyline clip-path="url(#clip082)" style="stroke:#000000; stroke-linecap:round; stroke-linejoin:round; stroke-width:2; stroke-opacity:0.1; fill:none" points="194.098,286.181 2352.76,286.181 "/>
<polyline clip-path="url(#clip080)" style="stroke:#000000; stroke-linecap:round; stroke-linejoin:round; stroke-width:4; stroke-opacity:1; fill:none" points="194.098,1423.18 2352.76,1423.18 "/>
<polyline clip-path="url(#clip080)" style="stroke:#000000; stroke-linecap:round; stroke-linejoin:round; stroke-width:4; stroke-opacity:1; fill:none" points="194.098,1423.18 194.098,1404.28 "/>
<polyline clip-path="url(#clip080)" style="stroke:#000000; stroke-linecap:round; stroke-linejoin:round; stroke-width:4; stroke-opacity:1; fill:none" points="733.763,1423.18 733.763,1404.28 "/>
<polyline clip-path="url(#clip080)" style="stroke:#000000; stroke-linecap:round; stroke-linejoin:round; stroke-width:4; stroke-opacity:1; fill:none" points="1273.43,1423.18 1273.43,1404.28 "/>
<polyline clip-path="url(#clip080)" style="stroke:#000000; stroke-linecap:round; stroke-linejoin:round; stroke-width:4; stroke-opacity:1; fill:none" points="1813.09,1423.18 1813.09,1404.28 "/>
<polyline clip-path="url(#clip080)" style="stroke:#000000; stroke-linecap:round; stroke-linejoin:round; stroke-width:4; stroke-opacity:1; fill:none" points="2352.76,1423.18 2352.76,1404.28 "/>
<path clip-path="url(#clip080)" d="M171.482 1454.1 Q167.871 1454.1 166.043 1457.66 Q164.237 1461.2 164.237 1468.33 Q164.237 1475.44 166.043 1479.01 Q167.871 1482.55 171.482 1482.55 Q175.117 1482.55 176.922 1479.01 Q178.751 1475.44 178.751 1468.33 Q178.751 1461.2 176.922 1457.66 Q175.117 1454.1 171.482 1454.1 M171.482 1450.39 Q177.293 1450.39 180.348 1455 Q183.427 1459.58 183.427 1468.33 Q183.427 1477.06 180.348 1481.67 Q177.293 1486.25 171.482 1486.25 Q165.672 1486.25 162.594 1481.67 Q159.538 1477.06 159.538 1468.33 Q159.538 1459.58 162.594 1455 Q165.672 1450.39 171.482 1450.39 Z" fill="#000000" fill-rule="nonzero" fill-opacity="1" /><path clip-path="url(#clip080)" d="M191.644 1479.7 L196.529 1479.7 L196.529 1485.58 L191.644 1485.58 L191.644 1479.7 Z" fill="#000000" fill-rule="nonzero" fill-opacity="1" /><path clip-path="url(#clip080)" d="M216.714 1454.1 Q213.103 1454.1 211.274 1457.66 Q209.468 1461.2 209.468 1468.33 Q209.468 1475.44 211.274 1479.01 Q213.103 1482.55 216.714 1482.55 Q220.348 1482.55 222.153 1479.01 Q223.982 1475.44 223.982 1468.33 Q223.982 1461.2 222.153 1457.66 Q220.348 1454.1 216.714 1454.1 M216.714 1450.39 Q222.524 1450.39 225.579 1455 Q228.658 1459.58 228.658 1468.33 Q228.658 1477.06 225.579 1481.67 Q222.524 1486.25 216.714 1486.25 Q210.903 1486.25 207.825 1481.67 Q204.769 1477.06 204.769 1468.33 Q204.769 1459.58 207.825 1455 Q210.903 1450.39 216.714 1450.39 Z" fill="#000000" fill-rule="nonzero" fill-opacity="1" /><path clip-path="url(#clip080)" d="M711.645 1454.1 Q708.033 1454.1 706.205 1457.66 Q704.399 1461.2 704.399 1468.33 Q704.399 1475.44 706.205 1479.01 Q708.033 1482.55 711.645 1482.55 Q715.279 1482.55 717.084 1479.01 Q718.913 1475.44 718.913 1468.33 Q718.913 1461.2 717.084 1457.66 Q715.279 1454.1 711.645 1454.1 M711.645 1450.39 Q717.455 1450.39 720.51 1455 Q723.589 1459.58 723.589 1468.33 Q723.589 1477.06 720.51 1481.67 Q717.455 1486.25 711.645 1486.25 Q705.834 1486.25 702.756 1481.67 Q699.7 1477.06 699.7 1468.33 Q699.7 1459.58 702.756 1455 Q705.834 1450.39 711.645 1450.39 Z" fill="#000000" fill-rule="nonzero" fill-opacity="1" /><path clip-path="url(#clip080)" d="M731.806 1479.7 L736.691 1479.7 L736.691 1485.58 L731.806 1485.58 L731.806 1479.7 Z" fill="#000000" fill-rule="nonzero" fill-opacity="1" /><path clip-path="url(#clip080)" d="M746.922 1451.02 L765.279 1451.02 L765.279 1454.96 L751.205 1454.96 L751.205 1463.43 Q752.223 1463.08 753.242 1462.92 Q754.26 1462.73 755.279 1462.73 Q761.066 1462.73 764.445 1465.9 Q767.825 1469.08 767.825 1474.49 Q767.825 1480.07 764.353 1483.17 Q760.88 1486.25 754.561 1486.25 Q752.385 1486.25 750.117 1485.88 Q747.871 1485.51 745.464 1484.77 L745.464 1480.07 Q747.547 1481.2 749.769 1481.76 Q751.992 1482.32 754.468 1482.32 Q758.473 1482.32 760.811 1480.21 Q763.149 1478.1 763.149 1474.49 Q763.149 1470.88 760.811 1468.77 Q758.473 1466.67 754.468 1466.67 Q752.593 1466.67 750.718 1467.08 Q748.867 1467.5 746.922 1468.38 L746.922 1451.02 Z" fill="#000000" fill-rule="nonzero" fill-opacity="1" /><path clip-path="url(#clip080)" d="M1240.58 1481.64 L1248.22 1481.64 L1248.22 1455.28 L1239.91 1456.95 L1239.91 1452.69 L1248.17 1451.02 L1252.85 1451.02 L1252.85 1481.64 L1260.49 1481.64 L1260.49 1485.58 L1240.58 1485.58 L1240.58 1481.64 Z" fill="#000000" fill-rule="nonzero" fill-opacity="1" /><path clip-path="url(#clip080)" d="M1269.93 1479.7 L1274.82 1479.7 L1274.82 1485.58 L1269.93 1485.58 L1269.93 1479.7 Z" fill="#000000" fill-rule="nonzero" fill-opacity="1" /><path clip-path="url(#clip080)" d="M1295 1454.1 Q1291.39 1454.1 1289.56 1457.66 Q1287.76 1461.2 1287.76 1468.33 Q1287.76 1475.44 1289.56 1479.01 Q1291.39 1482.55 1295 1482.55 Q1298.64 1482.55 1300.44 1479.01 Q1302.27 1475.44 1302.27 1468.33 Q1302.27 1461.2 1300.44 1457.66 Q1298.64 1454.1 1295 1454.1 M1295 1450.39 Q1300.81 1450.39 1303.87 1455 Q1306.95 1459.58 1306.95 1468.33 Q1306.95 1477.06 1303.87 1481.67 Q1300.81 1486.25 1295 1486.25 Q1289.19 1486.25 1286.11 1481.67 Q1283.06 1477.06 1283.06 1468.33 Q1283.06 1459.58 1286.11 1455 Q1289.19 1450.39 1295 1450.39 Z" fill="#000000" fill-rule="nonzero" fill-opacity="1" /><path clip-path="url(#clip080)" d="M1780.74 1481.64 L1788.38 1481.64 L1788.38 1455.28 L1780.07 1456.95 L1780.07 1452.69 L1788.33 1451.02 L1793.01 1451.02 L1793.01 1481.64 L1800.65 1481.64 L1800.65 1485.58 L1780.74 1485.58 L1780.74 1481.64 Z" fill="#000000" fill-rule="nonzero" fill-opacity="1" /><path clip-path="url(#clip080)" d="M1810.09 1479.7 L1814.98 1479.7 L1814.98 1485.58 L1810.09 1485.58 L1810.09 1479.7 Z" fill="#000000" fill-rule="nonzero" fill-opacity="1" /><path clip-path="url(#clip080)" d="M1825.21 1451.02 L1843.57 1451.02 L1843.57 1454.96 L1829.49 1454.96 L1829.49 1463.43 Q1830.51 1463.08 1831.53 1462.92 Q1832.55 1462.73 1833.57 1462.73 Q1839.35 1462.73 1842.73 1465.9 Q1846.11 1469.08 1846.11 1474.49 Q1846.11 1480.07 1842.64 1483.17 Q1839.17 1486.25 1832.85 1486.25 Q1830.67 1486.25 1828.4 1485.88 Q1826.16 1485.51 1823.75 1484.77 L1823.75 1480.07 Q1825.83 1481.2 1828.06 1481.76 Q1830.28 1482.32 1832.76 1482.32 Q1836.76 1482.32 1839.1 1480.21 Q1841.44 1478.1 1841.44 1474.49 Q1841.44 1470.88 1839.1 1468.77 Q1836.76 1466.67 1832.76 1466.67 Q1830.88 1466.67 1829.01 1467.08 Q1827.15 1467.5 1825.21 1468.38 L1825.21 1451.02 Z" fill="#000000" fill-rule="nonzero" fill-opacity="1" /><path clip-path="url(#clip080)" d="M2323.99 1481.64 L2340.31 1481.64 L2340.31 1485.58 L2318.37 1485.58 L2318.37 1481.64 Q2321.03 1478.89 2325.61 1474.26 Q2330.22 1469.61 2331.4 1468.27 Q2333.65 1465.74 2334.53 1464.01 Q2335.43 1462.25 2335.43 1460.56 Q2335.43 1457.8 2333.49 1456.07 Q2331.56 1454.33 2328.46 1454.33 Q2326.26 1454.33 2323.81 1455.09 Q2321.38 1455.86 2318.6 1457.41 L2318.6 1452.69 Q2321.43 1451.55 2323.88 1450.97 Q2326.33 1450.39 2328.37 1450.39 Q2333.74 1450.39 2336.93 1453.08 Q2340.13 1455.77 2340.13 1460.26 Q2340.13 1462.39 2339.32 1464.31 Q2338.53 1466.2 2336.42 1468.8 Q2335.85 1469.47 2332.74 1472.69 Q2329.64 1475.88 2323.99 1481.64 Z" fill="#000000" fill-rule="nonzero" fill-opacity="1" /><path clip-path="url(#clip080)" d="M2350.13 1479.7 L2355.01 1479.7 L2355.01 1485.58 L2350.13 1485.58 L2350.13 1479.7 Z" fill="#000000" fill-rule="nonzero" fill-opacity="1" /><path clip-path="url(#clip080)" d="M2375.2 1454.1 Q2371.59 1454.1 2369.76 1457.66 Q2367.95 1461.2 2367.95 1468.33 Q2367.95 1475.44 2369.76 1479.01 Q2371.59 1482.55 2375.2 1482.55 Q2378.83 1482.55 2380.64 1479.01 Q2382.47 1475.44 2382.47 1468.33 Q2382.47 1461.2 2380.64 1457.66 Q2378.83 1454.1 2375.2 1454.1 M2375.2 1450.39 Q2381.01 1450.39 2384.06 1455 Q2387.14 1459.58 2387.14 1468.33 Q2387.14 1477.06 2384.06 1481.67 Q2381.01 1486.25 2375.2 1486.25 Q2369.39 1486.25 2366.31 1481.67 Q2363.25 1477.06 2363.25 1468.33 Q2363.25 1459.58 2366.31 1455 Q2369.39 1450.39 2375.2 1450.39 Z" fill="#000000" fill-rule="nonzero" fill-opacity="1" /><path clip-path="url(#clip080)" d="M1272.49 1522.27 L1272.49 1532.4 L1284.55 1532.4 L1284.55 1536.95 L1272.49 1536.95 L1272.49 1556.3 Q1272.49 1560.66 1273.67 1561.9 Q1274.88 1563.14 1278.54 1563.14 L1284.55 1563.14 L1284.55 1568.04 L1278.54 1568.04 Q1271.76 1568.04 1269.18 1565.53 Q1266.6 1562.98 1266.6 1556.3 L1266.6 1536.95 L1262.3 1536.95 L1262.3 1532.4 L1266.6 1532.4 L1266.6 1522.27 L1272.49 1522.27 Z" fill="#000000" fill-rule="nonzero" fill-opacity="1" /><polyline clip-path="url(#clip080)" style="stroke:#000000; stroke-linecap:round; stroke-linejoin:round; stroke-width:4; stroke-opacity:1; fill:none" points="194.098,1423.18 194.098,47.2441 "/>
<polyline clip-path="url(#clip080)" style="stroke:#000000; stroke-linecap:round; stroke-linejoin:round; stroke-width:4; stroke-opacity:1; fill:none" points="194.098,1243.09 212.996,1243.09 "/>
<polyline clip-path="url(#clip080)" style="stroke:#000000; stroke-linecap:round; stroke-linejoin:round; stroke-width:4; stroke-opacity:1; fill:none" points="194.098,1003.86 212.996,1003.86 "/>
<polyline clip-path="url(#clip080)" style="stroke:#000000; stroke-linecap:round; stroke-linejoin:round; stroke-width:4; stroke-opacity:1; fill:none" points="194.098,764.634 212.996,764.634 "/>
<polyline clip-path="url(#clip080)" style="stroke:#000000; stroke-linecap:round; stroke-linejoin:round; stroke-width:4; stroke-opacity:1; fill:none" points="194.098,525.408 212.996,525.408 "/>
<polyline clip-path="url(#clip080)" style="stroke:#000000; stroke-linecap:round; stroke-linejoin:round; stroke-width:4; stroke-opacity:1; fill:none" points="194.098,286.181 212.996,286.181 "/>
<path clip-path="url(#clip080)" d="M52.7514 1243.54 L82.4271 1243.54 L82.4271 1247.47 L52.7514 1247.47 L52.7514 1243.54 Z" fill="#000000" fill-rule="nonzero" fill-opacity="1" /><path clip-path="url(#clip080)" d="M93.3299 1256.43 L100.969 1256.43 L100.969 1230.07 L92.6586 1231.73 L92.6586 1227.48 L100.922 1225.81 L105.598 1225.81 L105.598 1256.43 L113.237 1256.43 L113.237 1260.37 L93.3299 1260.37 L93.3299 1256.43 Z" fill="#000000" fill-rule="nonzero" fill-opacity="1" /><path clip-path="url(#clip080)" d="M122.682 1254.49 L127.566 1254.49 L127.566 1260.37 L122.682 1260.37 L122.682 1254.49 Z" fill="#000000" fill-rule="nonzero" fill-opacity="1" /><path clip-path="url(#clip080)" d="M141.779 1256.43 L158.098 1256.43 L158.098 1260.37 L136.154 1260.37 L136.154 1256.43 Q138.816 1253.68 143.399 1249.05 Q148.005 1244.4 149.186 1243.05 Q151.431 1240.53 152.311 1238.79 Q153.214 1237.04 153.214 1235.35 Q153.214 1232.59 151.269 1230.85 Q149.348 1229.12 146.246 1229.12 Q144.047 1229.12 141.593 1229.88 Q139.163 1230.65 136.385 1232.2 L136.385 1227.48 Q139.209 1226.34 141.663 1225.76 Q144.117 1225.18 146.154 1225.18 Q151.524 1225.18 154.718 1227.87 Q157.913 1230.55 157.913 1235.04 Q157.913 1237.17 157.103 1239.1 Q156.316 1240.99 154.209 1243.59 Q153.63 1244.26 150.529 1247.47 Q147.427 1250.67 141.779 1256.43 Z" fill="#000000" fill-rule="nonzero" fill-opacity="1" /><path clip-path="url(#clip080)" d="M51.3393 1004.31 L81.0151 1004.31 L81.0151 1008.25 L51.3393 1008.25 L51.3393 1004.31 Z" fill="#000000" fill-rule="nonzero" fill-opacity="1" /><path clip-path="url(#clip080)" d="M101.108 989.66 Q97.4965 989.66 95.6678 993.225 Q93.8623 996.767 93.8623 1003.9 Q93.8623 1011 95.6678 1014.57 Q97.4965 1018.11 101.108 1018.11 Q104.742 1018.11 106.547 1014.57 Q108.376 1011 108.376 1003.9 Q108.376 996.767 106.547 993.225 Q104.742 989.66 101.108 989.66 M101.108 985.956 Q106.918 985.956 109.973 990.563 Q113.052 995.146 113.052 1003.9 Q113.052 1012.62 109.973 1017.23 Q106.918 1021.81 101.108 1021.81 Q95.2974 1021.81 92.2188 1017.23 Q89.1632 1012.62 89.1632 1003.9 Q89.1632 995.146 92.2188 990.563 Q95.2974 985.956 101.108 985.956 Z" fill="#000000" fill-rule="nonzero" fill-opacity="1" /><path clip-path="url(#clip080)" d="M121.27 1015.26 L126.154 1015.26 L126.154 1021.14 L121.27 1021.14 L121.27 1015.26 Z" fill="#000000" fill-rule="nonzero" fill-opacity="1" /><path clip-path="url(#clip080)" d="M136.478 1020.42 L136.478 1016.16 Q138.237 1017 140.043 1017.44 Q141.848 1017.88 143.584 1017.88 Q148.214 1017.88 150.644 1014.78 Q153.098 1011.65 153.445 1005.31 Q152.103 1007.3 150.043 1008.36 Q147.982 1009.43 145.482 1009.43 Q140.297 1009.43 137.265 1006.3 Q134.256 1003.16 134.256 997.716 Q134.256 992.392 137.404 989.174 Q140.552 985.956 145.783 985.956 Q151.779 985.956 154.927 990.563 Q158.098 995.146 158.098 1003.9 Q158.098 1012.07 154.209 1016.95 Q150.343 1021.81 143.793 1021.81 Q142.033 1021.81 140.228 1021.47 Q138.422 1021.12 136.478 1020.42 M145.783 1005.77 Q148.931 1005.77 150.76 1003.62 Q152.612 1001.47 152.612 997.716 Q152.612 993.989 150.76 991.836 Q148.931 989.66 145.783 989.66 Q142.635 989.66 140.783 991.836 Q138.955 993.989 138.955 997.716 Q138.955 1001.47 140.783 1003.62 Q142.635 1005.77 145.783 1005.77 Z" fill="#000000" fill-rule="nonzero" fill-opacity="1" /><path clip-path="url(#clip080)" d="M50.9921 765.086 L80.6679 765.086 L80.6679 769.021 L50.9921 769.021 L50.9921 765.086 Z" fill="#000000" fill-rule="nonzero" fill-opacity="1" /><path clip-path="url(#clip080)" d="M100.76 750.433 Q97.1493 750.433 95.3206 753.998 Q93.515 757.54 93.515 764.669 Q93.515 771.776 95.3206 775.34 Q97.1493 778.882 100.76 778.882 Q104.395 778.882 106.2 775.34 Q108.029 771.776 108.029 764.669 Q108.029 757.54 106.2 753.998 Q104.395 750.433 100.76 750.433 M100.76 746.729 Q106.571 746.729 109.626 751.336 Q112.705 755.919 112.705 764.669 Q112.705 773.396 109.626 778.002 Q106.571 782.586 100.76 782.586 Q94.9502 782.586 91.8715 778.002 Q88.816 773.396 88.816 764.669 Q88.816 755.919 91.8715 751.336 Q94.9502 746.729 100.76 746.729 Z" fill="#000000" fill-rule="nonzero" fill-opacity="1" /><path clip-path="url(#clip080)" d="M120.922 776.035 L125.807 776.035 L125.807 781.914 L120.922 781.914 L120.922 776.035 Z" fill="#000000" fill-rule="nonzero" fill-opacity="1" /><path clip-path="url(#clip080)" d="M146.57 762.771 Q143.422 762.771 141.57 764.924 Q139.742 767.077 139.742 770.827 Q139.742 774.553 141.57 776.729 Q143.422 778.882 146.57 778.882 Q149.718 778.882 151.547 776.729 Q153.399 774.553 153.399 770.827 Q153.399 767.077 151.547 764.924 Q149.718 762.771 146.57 762.771 M155.853 748.118 L155.853 752.378 Q154.093 751.544 152.288 751.104 Q150.505 750.665 148.746 750.665 Q144.117 750.665 141.663 753.79 Q139.232 756.915 138.885 763.234 Q140.251 761.22 142.311 760.155 Q144.371 759.067 146.848 759.067 Q152.056 759.067 155.066 762.239 Q158.098 765.387 158.098 770.827 Q158.098 776.151 154.95 779.368 Q151.802 782.586 146.57 782.586 Q140.575 782.586 137.404 778.002 Q134.232 773.396 134.232 764.669 Q134.232 756.475 138.121 751.614 Q142.01 746.729 148.561 746.729 Q150.32 746.729 152.103 747.077 Q153.908 747.424 155.853 748.118 Z" fill="#000000" fill-rule="nonzero" fill-opacity="1" /><path clip-path="url(#clip080)" d="M51.8023 525.859 L81.4781 525.859 L81.4781 529.794 L51.8023 529.794 L51.8023 525.859 Z" fill="#000000" fill-rule="nonzero" fill-opacity="1" /><path clip-path="url(#clip080)" d="M101.571 511.206 Q97.9595 511.206 96.1308 514.771 Q94.3252 518.313 94.3252 525.442 Q94.3252 532.549 96.1308 536.113 Q97.9595 539.655 101.571 539.655 Q105.205 539.655 107.01 536.113 Q108.839 532.549 108.839 525.442 Q108.839 518.313 107.01 514.771 Q105.205 511.206 101.571 511.206 M101.571 507.503 Q107.381 507.503 110.436 512.109 Q113.515 516.692 113.515 525.442 Q113.515 534.169 110.436 538.775 Q107.381 543.359 101.571 543.359 Q95.7604 543.359 92.6817 538.775 Q89.6262 534.169 89.6262 525.442 Q89.6262 516.692 92.6817 512.109 Q95.7604 507.503 101.571 507.503 Z" fill="#000000" fill-rule="nonzero" fill-opacity="1" /><path clip-path="url(#clip080)" d="M121.732 536.808 L126.617 536.808 L126.617 542.688 L121.732 542.688 L121.732 536.808 Z" fill="#000000" fill-rule="nonzero" fill-opacity="1" /><path clip-path="url(#clip080)" d="M150.968 524.053 Q154.325 524.771 156.2 527.039 Q158.098 529.308 158.098 532.641 Q158.098 537.757 154.58 540.558 Q151.061 543.359 144.58 543.359 Q142.404 543.359 140.089 542.919 Q137.797 542.502 135.344 541.646 L135.344 537.132 Q137.288 538.266 139.603 538.845 Q141.918 539.424 144.441 539.424 Q148.839 539.424 151.13 537.688 Q153.445 535.951 153.445 532.641 Q153.445 529.586 151.293 527.873 Q149.163 526.137 145.343 526.137 L141.316 526.137 L141.316 522.294 L145.529 522.294 Q148.978 522.294 150.806 520.928 Q152.635 519.539 152.635 516.947 Q152.635 514.285 150.737 512.873 Q148.862 511.438 145.343 511.438 Q143.422 511.438 141.223 511.854 Q139.024 512.271 136.385 513.151 L136.385 508.984 Q139.047 508.243 141.362 507.873 Q143.7 507.503 145.76 507.503 Q151.084 507.503 154.186 509.933 Q157.288 512.34 157.288 516.461 Q157.288 519.331 155.644 521.322 Q154.001 523.289 150.968 524.053 Z" fill="#000000" fill-rule="nonzero" fill-opacity="1" /><path clip-path="url(#clip080)" d="M100.922 271.979 Q97.3113 271.979 95.4826 275.544 Q93.6771 279.086 93.6771 286.215 Q93.6771 293.322 95.4826 296.887 Q97.3113 300.428 100.922 300.428 Q104.557 300.428 106.362 296.887 Q108.191 293.322 108.191 286.215 Q108.191 279.086 106.362 275.544 Q104.557 271.979 100.922 271.979 M100.922 268.276 Q106.733 268.276 109.788 272.882 Q112.867 277.465 112.867 286.215 Q112.867 294.942 109.788 299.549 Q106.733 304.132 100.922 304.132 Q95.1123 304.132 92.0336 299.549 Q88.978 294.942 88.978 286.215 Q88.978 277.465 92.0336 272.882 Q95.1123 268.276 100.922 268.276 Z" fill="#000000" fill-rule="nonzero" fill-opacity="1" /><path clip-path="url(#clip080)" d="M121.084 297.581 L125.969 297.581 L125.969 303.461 L121.084 303.461 L121.084 297.581 Z" fill="#000000" fill-rule="nonzero" fill-opacity="1" /><path clip-path="url(#clip080)" d="M146.154 271.979 Q142.543 271.979 140.714 275.544 Q138.908 279.086 138.908 286.215 Q138.908 293.322 140.714 296.887 Q142.543 300.428 146.154 300.428 Q149.788 300.428 151.593 296.887 Q153.422 293.322 153.422 286.215 Q153.422 279.086 151.593 275.544 Q149.788 271.979 146.154 271.979 M146.154 268.276 Q151.964 268.276 155.019 272.882 Q158.098 277.465 158.098 286.215 Q158.098 294.942 155.019 299.549 Q151.964 304.132 146.154 304.132 Q140.343 304.132 137.265 299.549 Q134.209 294.942 134.209 286.215 Q134.209 277.465 137.265 272.882 Q140.343 268.276 146.154 268.276 Z" fill="#000000" fill-rule="nonzero" fill-opacity="1" /><polyline clip-path="url(#clip082)" style="stroke:#009af9; stroke-linecap:round; stroke-linejoin:round; stroke-width:4; stroke-opacity:1; fill:none" points="194.098,1384.24 196.259,1377.24 198.42,1370.3 200.58,1363.44 202.741,1356.65 204.902,1349.92 207.063,1343.26 209.224,1336.66 211.385,1330.14 213.545,1323.67 215.706,1317.27 217.867,1310.94 220.028,1304.67 222.189,1298.46 224.349,1292.31 226.51,1286.22 228.671,1280.2 230.832,1274.23 232.993,1268.32 235.154,1262.48 237.314,1256.69 239.475,1250.96 241.636,1245.28 243.797,1239.66 245.958,1234.1 248.119,1228.59 250.279,1223.14 252.44,1217.75 254.601,1212.4 256.762,1207.11 258.923,1201.87 261.083,1196.69 263.244,1191.55 265.405,1186.47 267.566,1181.44 269.727,1176.46 271.888,1171.52 274.048,1166.64 276.209,1161.8 278.37,1157.02 280.531,1152.28 282.692,1147.59 284.852,1142.94 287.013,1138.34 289.174,1133.79 291.335,1129.28 293.496,1124.82 295.657,1120.4 297.817,1116.03 299.978,1111.7 302.139,1107.41 304.3,1103.17 306.461,1098.96 308.621,1094.8 310.782,1090.68 312.943,1086.6 315.104,1082.57 317.265,1078.57 319.426,1074.61 321.586,1070.69 323.747,1066.81 325.908,1062.97 328.069,1059.17 330.23,1055.41 332.39,1051.68 334.551,1047.99 336.712,1044.34 338.873,1040.72 341.034,1037.14 343.195,1033.59 345.355,1030.09 347.516,1026.61 349.677,1023.17 351.838,1019.76 353.999,1016.39 356.159,1013.05 358.32,1009.75 360.481,1006.48 362.642,1003.24 364.803,1000.03 366.964,996.855 369.124,993.712 371.285,990.599 373.446,987.518 375.607,984.467 377.768,981.447 379.928,978.457 382.089,975.496 384.25,972.565 386.411,969.663 388.572,966.79 390.733,963.946 392.893,961.13 395.054,958.342 397.215,955.582 399.376,952.849 401.537,950.144 403.697,947.465 405.858,944.813 408.019,942.188 410.18,939.588 412.341,937.015 414.502,934.467 416.662,931.945 418.823,929.447 420.984,926.975 423.145,924.527 425.306,922.104 427.466,919.705 429.627,917.329 431.788,914.978 433.949,912.649 436.11,910.344 438.271,908.062 440.431,905.803 442.592,903.566 444.753,901.352 446.914,899.159 449.075,896.989 451.235,894.84 453.396,892.712 455.557,890.606 457.718,888.521 459.879,886.456 462.04,884.412 464.2,882.388 466.361,880.385 468.522,878.401 470.683,876.437 472.844,874.493 475.004,872.568 477.165,870.662 479.326,868.776 481.487,866.908 483.648,865.058 485.809,863.227 487.969,861.414 490.13,859.62 492.291,857.843 494.452,856.084 496.613,854.342 498.773,852.617 500.934,850.91 503.095,849.22 505.256,847.546 507.417,845.89 509.578,844.249 511.738,842.625 513.899,841.017 516.06,839.426 518.221,837.85 520.382,836.29 522.542,834.745 524.703,833.216 526.864,831.702 529.025,830.203 531.186,828.719 533.347,827.25 535.507,825.795 537.668,824.356 539.829,822.93 541.99,821.519 544.151,820.121 546.311,818.738 548.472,817.368 550.633,816.012 552.794,814.67 554.955,813.341 557.116,812.025 559.276,810.722 561.437,809.433 563.598,808.156 565.759,806.892 567.92,805.64 570.08,804.401 572.241,803.175 574.402,801.96 576.563,800.758 578.724,799.567 580.885,798.389 583.045,797.222 585.206,796.067 587.367,794.923 589.528,793.79 591.689,792.669 593.849,791.559 596.01,790.461 598.171,789.373 600.332,788.295 602.493,787.229 604.654,786.173 606.814,785.128 608.975,784.093 611.136,783.068 613.297,782.054 615.458,781.049 617.618,780.055 619.779,779.07 621.94,778.095 624.101,777.13 626.262,776.175 628.423,775.229 630.583,774.292 632.744,773.365 634.905,772.447 637.066,771.538 639.227,770.638 641.388,769.748 643.548,768.866 645.709,767.992 647.87,767.128 650.031,766.272 652.192,765.425 654.352,764.586 656.513,763.756 658.674,762.934 660.835,762.12 662.996,761.314 665.157,760.516 667.317,759.727 669.478,758.945 671.639,758.171 673.8,757.404 675.961,756.646 678.121,755.894 680.282,755.151 682.443,754.415 684.604,753.686 686.765,752.964 688.926,752.25 691.086,751.543 693.247,750.842 695.408,750.149 697.569,749.463 699.73,748.783 701.89,748.111 704.051,747.445 706.212,746.785 708.373,746.132 710.534,745.486 712.695,744.846 714.855,744.213 717.016,743.586 719.177,742.965 721.338,742.35 723.499,741.741 725.659,741.139 727.82,740.542 729.981,739.951 732.142,739.366 734.303,738.787 736.464,738.214 738.624,737.647 740.785,737.085 742.946,736.528 745.107,735.977 747.268,735.432 749.428,734.892 751.589,734.357 753.75,733.828 755.911,733.304 758.072,732.785 760.233,732.271 762.393,731.762 764.554,731.259 766.715,730.76 768.876,730.266 771.037,729.778 773.197,729.294 775.358,728.815 777.519,728.34 779.68,727.871 781.841,727.406 784.002,726.946 786.162,726.49 788.323,726.039 790.484,725.592 792.645,725.15 794.806,724.713 796.966,724.279 799.127,723.85 801.288,723.426 803.449,723.005 805.61,722.589 807.771,722.177 809.931,721.769 812.092,721.365 814.253,720.965 816.414,720.569 818.575,720.178 820.735,719.79 822.896,719.405 825.057,719.025 827.218,718.649 829.379,718.276 831.54,717.907 833.7,717.542 835.861,717.18 838.022,716.822 840.183,716.468 842.344,716.117 844.504,715.77 846.665,715.426 848.826,715.085 850.987,714.748 853.148,714.415 855.309,714.084 857.469,713.757 859.63,713.433 861.791,713.113 863.952,712.795 866.113,712.481 868.273,712.17 870.434,711.862 872.595,711.557 874.756,711.255 876.917,710.956 879.078,710.66 881.238,710.367 883.399,710.077 885.56,709.79 887.721,709.505 889.882,709.224 892.042,708.945 894.203,708.669 896.364,708.396 898.525,708.125 900.686,707.857 902.847,707.592 905.007,707.329 907.168,707.069 909.329,706.812 911.49,706.557 913.651,706.304 915.811,706.054 917.972,705.807 920.133,705.561 922.294,705.319 924.455,705.079 926.616,704.841 928.776,704.605 930.937,704.372 933.098,704.141 935.259,703.913 937.42,703.686 939.58,703.462 941.741,703.241 943.902,703.021 946.063,702.804 948.224,702.588 950.385,702.375 952.545,702.164 954.706,701.956 956.867,701.749 959.028,701.544 961.189,701.342 963.349,701.141 965.51,700.942 967.671,700.746 969.832,700.551 971.993,700.359 974.154,700.168 976.314,699.979 978.475,699.792 980.636,699.607 982.797,699.424 984.958,699.243 987.118,699.063 989.279,698.886 991.44,698.71 993.601,698.535 995.762,698.363 997.923,698.192 1000.08,698.023 1002.24,697.856 1004.41,697.691 1006.57,697.527 1008.73,697.365 1010.89,697.204 1013.05,697.045 1015.21,696.887 1017.37,696.732 1019.53,696.577 1021.69,696.425 1023.85,696.273 1026.01,696.124 1028.17,695.976 1030.33,695.829 1032.5,695.684 1034.66,695.54 1036.82,695.397 1038.98,695.257 1041.14,695.117 1043.3,694.979 1045.46,694.842 1047.62,694.707 1049.78,694.573 1051.94,694.44 1054.1,694.309 1056.26,694.178 1058.43,694.05 1060.59,693.922 1062.75,693.796 1064.91,693.671 1067.07,693.547 1069.23,693.424 1071.39,693.303 1073.55,693.183 1075.71,693.064 1077.87,692.946 1080.03,692.829 1082.19,692.714 1084.36,692.6 1086.52,692.486 1088.68,692.374 1090.84,692.263 1093,692.153 1095.16,692.044 1097.32,691.936 1099.48,691.829 1101.64,691.724 1103.8,691.619 1105.96,691.515 1108.12,691.412 1110.29,691.311 1112.45,691.21 1114.61,691.11 1116.77,691.012 1118.93,690.914 1121.09,690.817 1123.25,690.721 1125.41,690.627 1127.57,690.533 1129.73,690.44 1131.89,690.348 1134.05,690.257 1136.21,690.166 1138.38,690.077 1140.54,689.989 1142.7,689.901 1144.86,689.814 1147.02,689.729 1149.18,689.644 1151.34,689.56 1153.5,689.476 1155.66,689.394 1157.82,689.312 1159.98,689.232 1162.14,689.152 1164.31,689.073 1166.47,688.994 1168.63,688.917 1170.79,688.84 1172.95,688.764 1175.11,688.689 1177.27,688.614 1179.43,688.541 1181.59,688.468 1183.75,688.395 1185.91,688.324 1188.07,688.253 1190.24,688.183 1192.4,688.114 1194.56,688.045 1196.72,687.977 1198.88,687.91 1201.04,687.843 1203.2,687.778 1205.36,687.712 1207.52,687.648 1209.68,687.584 1211.84,687.521 1214,687.458 1216.17,687.396 1218.33,687.335 1220.49,687.274 1222.65,687.214 1224.81,687.154 1226.97,687.095 1229.13,687.037 1231.29,686.979 1233.45,686.922 1235.61,686.866 1237.77,686.81 1239.93,686.754 1242.1,686.699 1244.26,686.645 1246.42,686.591 1248.58,686.538 1250.74,686.485 1252.9,686.433 1255.06,686.381 1257.22,686.33 1259.38,686.28 1261.54,686.23 1263.7,686.18 1265.86,686.131 1268.02,686.082 1270.19,686.034 1272.35,685.986 1274.51,685.939 1276.67,685.892 1278.83,685.846 1280.99,685.8 1283.15,685.755 1285.31,685.71 1287.47,685.665 1289.63,685.621 1291.79,685.577 1293.95,685.534 1296.12,685.491 1298.28,685.449 1300.44,685.407 1302.6,685.365 1304.76,685.324 1306.92,685.283 1309.08,685.242 1311.24,685.202 1313.4,685.163 1315.56,685.123 1317.72,685.084 1319.88,685.046 1322.05,685.008 1324.21,684.97 1326.37,684.932 1328.53,684.895 1330.69,684.859 1332.85,684.822 1335.01,684.786 1337.17,684.751 1339.33,684.715 1341.49,684.68 1343.65,684.646 1345.81,684.611 1347.98,684.577 1350.14,684.544 1352.3,684.51 1354.46,684.478 1356.62,684.445 1358.78,684.413 1360.94,684.381 1363.1,684.349 1365.26,684.318 1367.42,684.287 1369.58,684.256 1371.74,684.226 1373.91,684.195 1376.07,684.166 1378.23,684.136 1380.39,684.107 1382.55,684.078 1384.71,684.05 1386.87,684.021 1389.03,683.993 1391.19,683.965 1393.35,683.938 1395.51,683.911 1397.67,683.884 1399.83,683.857 1402,683.831 1404.16,683.805 1406.32,683.779 1408.48,683.754 1410.64,683.728 1412.8,683.703 1414.96,683.678 1417.12,683.654 1419.28,683.63 1421.44,683.606 1423.6,683.582 1425.76,683.558 1427.93,683.535 1430.09,683.512 1432.25,683.489 1434.41,683.467 1436.57,683.444 1438.73,683.422 1440.89,683.4 1443.05,683.379 1445.21,683.357 1447.37,683.336 1449.53,683.315 1451.69,683.295 1453.86,683.274 1456.02,683.254 1458.18,683.234 1460.34,683.214 1462.5,683.194 1464.66,683.174 1466.82,683.155 1468.98,683.136 1471.14,683.117 1473.3,683.098 1475.46,683.08 1477.62,683.062 1479.79,683.043 1481.95,683.025 1484.11,683.008 1486.27,682.99 1488.43,682.973 1490.59,682.955 1492.75,682.938 1494.91,682.921 1497.07,682.905 1499.23,682.888 1501.39,682.872 1503.55,682.856 1505.71,682.839 1507.88,682.824 1510.04,682.808 1512.2,682.792 1514.36,682.777 1516.52,682.762 1518.68,682.746 1520.84,682.731 1523,682.717 1525.16,682.702 1527.32,682.687 1529.48,682.673 1531.64,682.659 1533.81,682.644 1535.97,682.63 1538.13,682.616 1540.29,682.603 1542.45,682.589 1544.61,682.576 1546.77,682.562 1548.93,682.549 1551.09,682.536 1553.25,682.523 1555.41,682.51 1557.57,682.497 1559.74,682.484 1561.9,682.472 1564.06,682.459 1566.22,682.447 1568.38,682.435 1570.54,682.423 1572.7,682.411 1574.86,682.399 1577.02,682.387 1579.18,682.375 1581.34,682.364 1583.5,682.352 1585.67,682.341 1587.83,682.33 1589.99,682.319 1592.15,682.308 1594.31,682.297 1596.47,682.286 1598.63,682.275 1600.79,682.265 1602.95,682.254 1605.11,682.244 1607.27,682.233 1609.43,682.223 1611.6,682.213 1613.76,682.203 1615.92,682.193 1618.08,682.183 1620.24,682.174 1622.4,682.164 1624.56,682.155 1626.72,682.145 1628.88,682.136 1631.04,682.127 1633.2,682.117 1635.36,682.108 1637.52,682.099 1639.69,682.091 1641.85,682.082 1644.01,682.073 1646.17,682.065 1648.33,682.056 1650.49,682.048 1652.65,682.039 1654.81,682.031 1656.97,682.023 1659.13,682.015 1661.29,682.007 1663.45,681.999 1665.62,681.991 1667.78,681.983 1669.94,681.976 1672.1,681.968 1674.26,681.961 1676.42,681.953 1678.58,681.946 1680.74,681.939 1682.9,681.931 1685.06,681.924 1687.22,681.917 1689.38,681.91 1691.55,681.903 1693.71,681.897 1695.87,681.89 1698.03,681.883 1700.19,681.877 1702.35,681.87 1704.51,681.864 1706.67,681.857 1708.83,681.851 1710.99,681.845 1713.15,681.839 1715.31,681.832 1717.48,681.826 1719.64,681.82 1721.8,681.814 1723.96,681.809 1726.12,681.803 1728.28,681.797 1730.44,681.791 1732.6,681.786 1734.76,681.78 1736.92,681.775 1739.08,681.769 1741.24,681.764 1743.41,681.759 1745.57,681.753 1747.73,681.748 1749.89,681.743 1752.05,681.738 1754.21,681.733 1756.37,681.728 1758.53,681.723 1760.69,681.718 1762.85,681.713 1765.01,681.709 1767.17,681.704 1769.33,681.699 1771.5,681.695 1773.66,681.69 1775.82,681.686 1777.98,681.681 1780.14,681.677 1782.3,681.672 1784.46,681.668 1786.62,681.664 1788.78,681.659 1790.94,681.655 1793.1,681.651 1795.26,681.647 1797.43,681.643 1799.59,681.639 1801.75,681.635 1803.91,681.631 1806.07,681.627 1808.23,681.623 1810.39,681.619 1812.55,681.615 1814.71,681.612 1816.87,681.608 1819.03,681.604 1821.19,681.6 1823.36,681.597 1825.52,681.593 1827.68,681.59 1829.84,681.586 1832,681.583 1834.16,681.579 1836.32,681.576 1838.48,681.572 1840.64,681.569 1842.8,681.565 1844.96,681.562 1847.12,681.559 1849.29,681.555 1851.45,681.552 1853.61,681.549 1855.77,681.546 1857.93,681.542 1860.09,681.539 1862.25,681.536 1864.41,681.533 1866.57,681.53 1868.73,681.527 1870.89,681.524 1873.05,681.521 1875.21,681.518 1877.38,681.515 1879.54,681.512 1881.7,681.509 1883.86,681.506 1886.02,681.503 1888.18,681.5 1890.34,681.497 1892.5,681.495 1894.66,681.492 1896.82,681.489 1898.98,681.486 1901.14,681.484 1903.31,681.481 1905.47,681.478 1907.63,681.476 1909.79,681.473 1911.95,681.471 1914.11,681.468 1916.27,681.465 1918.43,681.463 1920.59,681.46 1922.75,681.458 1924.91,681.456 1927.07,681.453 1929.24,681.451 1931.4,681.449 1933.56,681.446 1935.72,681.444 1937.88,681.442 1940.04,681.439 1942.2,681.437 1944.36,681.435 1946.52,681.433 1948.68,681.431 1950.84,681.428 1953,681.426 1955.17,681.424 1957.33,681.422 1959.49,681.42 1961.65,681.418 1963.81,681.416 1965.97,681.414 1968.13,681.412 1970.29,681.41 1972.45,681.408 1974.61,681.406 1976.77,681.404 1978.93,681.402 1981.1,681.401 1983.26,681.399 1985.42,681.397 1987.58,681.395 1989.74,681.393 1991.9,681.392 1994.06,681.39 1996.22,681.388 1998.38,681.387 2000.54,681.385 2002.7,681.383 2004.86,681.382 2007.02,681.38 2009.19,681.378 2011.35,681.377 2013.51,681.375 2015.67,681.374 2017.83,681.372 2019.99,681.371 2022.15,681.369 2024.31,681.368 2026.47,681.366 2028.63,681.365 2030.79,681.363 2032.95,681.362 2035.12,681.361 2037.28,681.359 2039.44,681.358 2041.6,681.357 2043.76,681.355 2045.92,681.354 2048.08,681.353 2050.24,681.351 2052.4,681.35 2054.56,681.349 2056.72,681.348 2058.88,681.347 2061.05,681.345 2063.21,681.344 2065.37,681.343 2067.53,681.342 2069.69,681.341 2071.85,681.34 2074.01,681.338 2076.17,681.337 2078.33,681.336 2080.49,681.335 2082.65,681.334 2084.81,681.333 2086.98,681.332 2089.14,681.331 2091.3,681.33 2093.46,681.329 2095.62,681.328 2097.78,681.327 2099.94,681.326 2102.1,681.325 2104.26,681.324 2106.42,681.323 2108.58,681.322 2110.74,681.321 2112.91,681.321 2115.07,681.32 2117.23,681.319 2119.39,681.318 2121.55,681.317 2123.71,681.316 2125.87,681.315 2128.03,681.315 2130.19,681.314 2132.35,681.313 2134.51,681.312 2136.67,681.311 2138.83,681.31 2141,681.31 2143.16,681.309 2145.32,681.308 2147.48,681.307 2149.64,681.307 2151.8,681.306 2153.96,681.305 2156.12,681.304 2158.28,681.304 2160.44,681.303 2162.6,681.302 2164.76,681.302 2166.93,681.301 2169.09,681.3 2171.25,681.299 2173.41,681.299 2175.57,681.298 2177.73,681.297 2179.89,681.297 2182.05,681.296 2184.21,681.295 2186.37,681.295 2188.53,681.294 2190.69,681.293 2192.86,681.293 2195.02,681.292 2197.18,681.291 2199.34,681.291 2201.5,681.29 2203.66,681.289 2205.82,681.289 2207.98,681.288 2210.14,681.287 2212.3,681.287 2214.46,681.286 2216.62,681.285 2218.79,681.285 2220.95,681.284 2223.11,681.284 2225.27,681.283 2227.43,681.282 2229.59,681.282 2231.75,681.281 2233.91,681.281 2236.07,681.28 2238.23,681.28 2240.39,681.279 2242.55,681.278 2244.71,681.278 2246.88,681.277 2249.04,681.277 2251.2,681.276 2253.36,681.276 2255.52,681.275 2257.68,681.275 2259.84,681.274 2262,681.274 2264.16,681.273 2266.32,681.273 2268.48,681.272 2270.64,681.272 2272.81,681.271 2274.97,681.271 2277.13,681.27 2279.29,681.27 2281.45,681.269 2283.61,681.269 2285.77,681.268 2287.93,681.268 2290.09,681.267 2292.25,681.267 2294.41,681.267 2296.57,681.266 2298.74,681.266 2300.9,681.265 2303.06,681.265 2305.22,681.264 2307.38,681.264 2309.54,681.264 2311.7,681.263 2313.86,681.263 2316.02,681.262 2318.18,681.262 2320.34,681.262 2322.5,681.261 2324.67,681.261 2326.83,681.261 2328.99,681.26 2331.15,681.26 2333.31,681.259 2335.47,681.259 2337.63,681.259 2339.79,681.258 2341.95,681.258 2344.11,681.258 2346.27,681.257 2348.43,681.257 2350.6,681.257 2352.76,681.256 "/>
<polyline clip-path="url(#clip082)" style="stroke:#e26f46; stroke-linecap:round; stroke-linejoin:round; stroke-width:4; stroke-opacity:1; fill:none" points="194.098,86.1857 196.259,91.3413 198.42,96.4502 200.58,101.513 202.741,106.53 204.902,111.501 207.063,116.427 209.224,121.309 211.385,126.147 213.545,130.94 215.706,135.691 217.867,140.398 220.028,145.063 222.189,149.686 224.349,154.267 226.51,158.807 228.671,163.306 230.832,167.764 232.993,172.182 235.154,176.56 237.314,180.898 239.475,185.198 241.636,189.459 243.797,193.681 245.958,197.866 248.119,202.013 250.279,206.122 252.44,210.195 254.601,214.231 256.762,218.23 258.923,222.194 261.083,226.122 263.244,230.015 265.405,233.873 267.566,237.696 269.727,241.485 271.888,245.24 274.048,248.962 276.209,252.65 278.37,256.305 280.531,259.927 282.692,263.517 284.852,267.074 287.013,270.6 289.174,274.094 291.335,277.558 293.496,280.99 295.657,284.391 297.817,287.762 299.978,291.103 302.139,294.414 304.3,297.696 306.461,300.948 308.621,304.172 310.782,307.367 312.943,310.533 315.104,313.671 317.265,316.781 319.426,319.863 321.586,322.918 323.747,325.946 325.908,328.947 328.069,331.921 330.23,334.869 332.39,337.791 334.551,340.687 336.712,343.557 338.873,346.401 341.034,349.22 343.195,352.015 345.355,354.784 347.516,357.529 349.677,360.25 351.838,362.946 353.999,365.619 356.159,368.268 358.32,370.894 360.481,373.496 362.642,376.076 364.803,378.633 366.964,381.167 369.124,383.678 371.285,386.168 373.446,388.635 375.607,391.081 377.768,393.506 379.928,395.909 382.089,398.29 384.25,400.651 386.411,402.991 388.572,405.311 390.733,407.61 392.893,409.889 395.054,412.148 397.215,414.387 399.376,416.606 401.537,418.806 403.697,420.986 405.858,423.148 408.019,425.291 410.18,427.414 412.341,429.519 414.502,431.606 416.662,433.675 418.823,435.725 420.984,437.757 423.145,439.772 425.306,441.769 427.466,443.749 429.627,445.711 431.788,447.656 433.949,449.584 436.11,451.495 438.271,453.39 440.431,455.268 442.592,457.13 444.753,458.975 446.914,460.805 449.075,462.618 451.235,464.416 453.396,466.198 455.557,467.965 457.718,469.716 459.879,471.452 462.04,473.173 464.2,474.879 466.361,476.57 468.522,478.247 470.683,479.909 472.844,481.557 475.004,483.19 477.165,484.809 479.326,486.414 481.487,488.006 483.648,489.583 485.809,491.147 487.969,492.698 490.13,494.235 492.291,495.759 494.452,497.269 496.613,498.767 498.773,500.252 500.934,501.724 503.095,503.183 505.256,504.63 507.417,506.065 509.578,507.487 511.738,508.896 513.899,510.294 516.06,511.68 518.221,513.053 520.382,514.415 522.542,515.765 524.703,517.104 526.864,518.431 529.025,519.747 531.186,521.051 533.347,522.345 535.507,523.627 537.668,524.898 539.829,526.158 541.99,527.408 544.151,528.647 546.311,529.875 548.472,531.093 550.633,532.3 552.794,533.497 554.955,534.684 557.116,535.861 559.276,537.027 561.437,538.184 563.598,539.331 565.759,540.468 567.92,541.595 570.08,542.713 572.241,543.821 574.402,544.92 576.563,546.01 578.724,547.09 580.885,548.162 583.045,549.224 585.206,550.277 587.367,551.321 589.528,552.356 591.689,553.383 593.849,554.401 596.01,555.41 598.171,556.411 600.332,557.403 602.493,558.387 604.654,559.363 606.814,560.33 608.975,561.29 611.136,562.241 613.297,563.184 615.458,564.12 617.618,565.047 619.779,565.967 621.94,566.879 624.101,567.783 626.262,568.68 628.423,569.569 630.583,570.451 632.744,571.325 634.905,572.192 637.066,573.052 639.227,573.904 641.388,574.749 643.548,575.588 645.709,576.419 647.87,577.243 650.031,578.06 652.192,578.871 654.352,579.674 656.513,580.471 658.674,581.262 660.835,582.045 662.996,582.823 665.157,583.593 667.317,584.358 669.478,585.115 671.639,585.867 673.8,586.612 675.961,587.351 678.121,588.084 680.282,588.811 682.443,589.532 684.604,590.246 686.765,590.955 688.926,591.658 691.086,592.355 693.247,593.047 695.408,593.732 697.569,594.412 699.73,595.087 701.89,595.755 704.051,596.418 706.212,597.076 708.373,597.728 710.534,598.375 712.695,599.017 714.855,599.653 717.016,600.284 719.177,600.91 721.338,601.531 723.499,602.146 725.659,602.757 727.82,603.362 729.981,603.963 732.142,604.558 734.303,605.149 736.464,605.735 738.624,606.316 740.785,606.892 742.946,607.464 745.107,608.031 747.268,608.593 749.428,609.151 751.589,609.704 753.75,610.253 755.911,610.797 758.072,611.337 760.233,611.873 762.393,612.404 764.554,612.93 766.715,613.453 768.876,613.971 771.037,614.485 773.197,614.995 775.358,615.5 777.519,616.002 779.68,616.499 781.841,616.993 784.002,617.482 786.162,617.968 788.323,618.449 790.484,618.927 792.645,619.4 794.806,619.87 796.966,620.336 799.127,620.798 801.288,621.257 803.449,621.711 805.61,622.162 807.771,622.61 809.931,623.054 812.092,623.494 814.253,623.93 816.414,624.364 818.575,624.793 820.735,625.219 822.896,625.642 825.057,626.061 827.218,626.477 829.379,626.89 831.54,627.299 833.7,627.705 835.861,628.107 838.022,628.507 840.183,628.903 842.344,629.296 844.504,629.686 846.665,630.073 848.826,630.456 850.987,630.837 853.148,631.214 855.309,631.589 857.469,631.96 859.63,632.329 861.791,632.695 863.952,633.057 866.113,633.417 868.273,633.774 870.434,634.128 872.595,634.479 874.756,634.828 876.917,635.174 879.078,635.517 881.238,635.857 883.399,636.195 885.56,636.529 887.721,636.862 889.882,637.191 892.042,637.518 894.203,637.843 896.364,638.165 898.525,638.484 900.686,638.801 902.847,639.115 905.007,639.427 907.168,639.737 909.329,640.044 911.49,640.348 913.651,640.651 915.811,640.951 917.972,641.248 920.133,641.543 922.294,641.836 924.455,642.127 926.616,642.415 928.776,642.701 930.937,642.985 933.098,643.267 935.259,643.546 937.42,643.823 939.58,644.098 941.741,644.371 943.902,644.642 946.063,644.91 948.224,645.177 950.385,645.441 952.545,645.703 954.706,645.964 956.867,646.222 959.028,646.478 961.189,646.732 963.349,646.985 965.51,647.235 967.671,647.483 969.832,647.73 971.993,647.974 974.154,648.217 976.314,648.457 978.475,648.696 980.636,648.933 982.797,649.168 984.958,649.401 987.118,649.632 989.279,649.862 991.44,650.09 993.601,650.316 995.762,650.54 997.923,650.763 1000.08,650.983 1002.24,651.202 1004.41,651.42 1006.57,651.636 1008.73,651.85 1010.89,652.062 1013.05,652.273 1015.21,652.482 1017.37,652.689 1019.53,652.895 1021.69,653.099 1023.85,653.302 1026.01,653.503 1028.17,653.703 1030.33,653.901 1032.5,654.097 1034.66,654.292 1036.82,654.486 1038.98,654.678 1041.14,654.869 1043.3,655.058 1045.46,655.245 1047.62,655.432 1049.78,655.617 1051.94,655.8 1054.1,655.982 1056.26,656.163 1058.43,656.342 1060.59,656.52 1062.75,656.696 1064.91,656.872 1067.07,657.046 1069.23,657.218 1071.39,657.389 1073.55,657.559 1075.71,657.728 1077.87,657.896 1080.03,658.062 1082.19,658.227 1084.36,658.39 1086.52,658.553 1088.68,658.714 1090.84,658.874 1093,659.033 1095.16,659.191 1097.32,659.347 1099.48,659.503 1101.64,659.657 1103.8,659.81 1105.96,659.962 1108.12,660.112 1110.29,660.262 1112.45,660.41 1114.61,660.558 1116.77,660.704 1118.93,660.849 1121.09,660.993 1123.25,661.136 1125.41,661.278 1127.57,661.419 1129.73,661.559 1131.89,661.698 1134.05,661.836 1136.21,661.972 1138.38,662.108 1140.54,662.243 1142.7,662.376 1144.86,662.509 1147.02,662.641 1149.18,662.771 1151.34,662.901 1153.5,663.03 1155.66,663.158 1157.82,663.284 1159.98,663.41 1162.14,663.535 1164.31,663.659 1166.47,663.782 1168.63,663.904 1170.79,664.026 1172.95,664.146 1175.11,664.265 1177.27,664.384 1179.43,664.501 1181.59,664.618 1183.75,664.734 1185.91,664.849 1188.07,664.963 1190.24,665.076 1192.4,665.189 1194.56,665.301 1196.72,665.411 1198.88,665.521 1201.04,665.63 1203.2,665.739 1205.36,665.846 1207.52,665.953 1209.68,666.059 1211.84,666.164 1214,666.268 1216.17,666.372 1218.33,666.475 1220.49,666.577 1222.65,666.678 1224.81,666.779 1226.97,666.879 1229.13,666.978 1231.29,667.076 1233.45,667.174 1235.61,667.271 1237.77,667.367 1239.93,667.462 1242.1,667.557 1244.26,667.651 1246.42,667.745 1248.58,667.837 1250.74,667.929 1252.9,668.021 1255.06,668.111 1257.22,668.202 1259.38,668.291 1261.54,668.38 1263.7,668.468 1265.86,668.555 1268.02,668.642 1270.19,668.728 1272.35,668.814 1274.51,668.899 1276.67,668.983 1278.83,669.067 1280.99,669.15 1283.15,669.233 1285.31,669.315 1287.47,669.396 1289.63,669.477 1291.79,669.557 1293.95,669.637 1296.12,669.716 1298.28,669.794 1300.44,669.872 1302.6,669.95 1304.76,670.027 1306.92,670.103 1309.08,670.179 1311.24,670.254 1313.4,670.329 1315.56,670.403 1317.72,670.477 1319.88,670.55 1322.05,670.623 1324.21,670.695 1326.37,670.766 1328.53,670.837 1330.69,670.908 1332.85,670.978 1335.01,671.048 1337.17,671.117 1339.33,671.185 1341.49,671.254 1343.65,671.321 1345.81,671.388 1347.98,671.455 1350.14,671.521 1352.3,671.587 1354.46,671.652 1356.62,671.717 1358.78,671.782 1360.94,671.845 1363.1,671.909 1365.26,671.972 1367.42,672.034 1369.58,672.097 1371.74,672.158 1373.91,672.219 1376.07,672.28 1378.23,672.341 1380.39,672.4 1382.55,672.46 1384.71,672.519 1386.87,672.578 1389.03,672.636 1391.19,672.694 1393.35,672.751 1395.51,672.808 1397.67,672.864 1399.83,672.921 1402,672.976 1404.16,673.032 1406.32,673.087 1408.48,673.141 1410.64,673.195 1412.8,673.249 1414.96,673.303 1417.12,673.356 1419.28,673.408 1421.44,673.461 1423.6,673.512 1425.76,673.564 1427.93,673.615 1430.09,673.666 1432.25,673.716 1434.41,673.766 1436.57,673.816 1438.73,673.866 1440.89,673.915 1443.05,673.963 1445.21,674.011 1447.37,674.059 1449.53,674.107 1451.69,674.154 1453.86,674.201 1456.02,674.248 1458.18,674.294 1460.34,674.34 1462.5,674.386 1464.66,674.431 1466.82,674.476 1468.98,674.521 1471.14,674.565 1473.3,674.609 1475.46,674.653 1477.62,674.696 1479.79,674.74 1481.95,674.782 1484.11,674.825 1486.27,674.867 1488.43,674.909 1490.59,674.951 1492.75,674.992 1494.91,675.033 1497.07,675.074 1499.23,675.115 1501.39,675.155 1503.55,675.195 1505.71,675.234 1507.88,675.274 1510.04,675.313 1512.2,675.352 1514.36,675.39 1516.52,675.429 1518.68,675.467 1520.84,675.505 1523,675.542 1525.16,675.579 1527.32,675.616 1529.48,675.653 1531.64,675.69 1533.81,675.726 1535.97,675.762 1538.13,675.798 1540.29,675.833 1542.45,675.869 1544.61,675.904 1546.77,675.939 1548.93,675.973 1551.09,676.008 1553.25,676.042 1555.41,676.076 1557.57,676.11 1559.74,676.143 1561.9,676.176 1564.06,676.209 1566.22,676.242 1568.38,676.275 1570.54,676.307 1572.7,676.34 1574.86,676.372 1577.02,676.403 1579.18,676.435 1581.34,676.466 1583.5,676.497 1585.67,676.528 1587.83,676.559 1589.99,676.589 1592.15,676.62 1594.31,676.65 1596.47,676.68 1598.63,676.71 1600.79,676.739 1602.95,676.768 1605.11,676.797 1607.27,676.826 1609.43,676.855 1611.6,676.884 1613.76,676.912 1615.92,676.94 1618.08,676.968 1620.24,676.996 1622.4,677.023 1624.56,677.051 1626.72,677.078 1628.88,677.105 1631.04,677.132 1633.2,677.158 1635.36,677.185 1637.52,677.211 1639.69,677.237 1641.85,677.263 1644.01,677.289 1646.17,677.314 1648.33,677.34 1650.49,677.365 1652.65,677.39 1654.81,677.415 1656.97,677.44 1659.13,677.464 1661.29,677.489 1663.45,677.513 1665.62,677.537 1667.78,677.561 1669.94,677.584 1672.1,677.608 1674.26,677.631 1676.42,677.655 1678.58,677.678 1680.74,677.701 1682.9,677.723 1685.06,677.746 1687.22,677.768 1689.38,677.791 1691.55,677.813 1693.71,677.835 1695.87,677.857 1698.03,677.878 1700.19,677.9 1702.35,677.921 1704.51,677.942 1706.67,677.964 1708.83,677.985 1710.99,678.005 1713.15,678.026 1715.31,678.047 1717.48,678.067 1719.64,678.087 1721.8,678.107 1723.96,678.127 1726.12,678.147 1728.28,678.167 1730.44,678.186 1732.6,678.206 1734.76,678.225 1736.92,678.244 1739.08,678.263 1741.24,678.282 1743.41,678.301 1745.57,678.32 1747.73,678.338 1749.89,678.356 1752.05,678.375 1754.21,678.393 1756.37,678.411 1758.53,678.429 1760.69,678.447 1762.85,678.464 1765.01,678.482 1767.17,678.499 1769.33,678.517 1771.5,678.534 1773.66,678.551 1775.82,678.568 1777.98,678.585 1780.14,678.601 1782.3,678.618 1784.46,678.635 1786.62,678.651 1788.78,678.667 1790.94,678.683 1793.1,678.7 1795.26,678.716 1797.43,678.731 1799.59,678.747 1801.75,678.763 1803.91,678.778 1806.07,678.794 1808.23,678.809 1810.39,678.825 1812.55,678.84 1814.71,678.855 1816.87,678.87 1819.03,678.885 1821.19,678.899 1823.36,678.914 1825.52,678.929 1827.68,678.943 1829.84,678.958 1832,678.972 1834.16,678.986 1836.32,679 1838.48,679.014 1840.64,679.028 1842.8,679.042 1844.96,679.056 1847.12,679.07 1849.29,679.083 1851.45,679.097 1853.61,679.11 1855.77,679.124 1857.93,679.137 1860.09,679.15 1862.25,679.163 1864.41,679.177 1866.57,679.189 1868.73,679.202 1870.89,679.215 1873.05,679.228 1875.21,679.241 1877.38,679.253 1879.54,679.266 1881.7,679.278 1883.86,679.29 1886.02,679.303 1888.18,679.315 1890.34,679.327 1892.5,679.339 1894.66,679.351 1896.82,679.363 1898.98,679.375 1901.14,679.386 1903.31,679.398 1905.47,679.41 1907.63,679.421 1909.79,679.432 1911.95,679.444 1914.11,679.455 1916.27,679.466 1918.43,679.477 1920.59,679.489 1922.75,679.5 1924.91,679.51 1927.07,679.521 1929.24,679.532 1931.4,679.543 1933.56,679.553 1935.72,679.564 1937.88,679.574 1940.04,679.585 1942.2,679.595 1944.36,679.606 1946.52,679.616 1948.68,679.626 1950.84,679.636 1953,679.646 1955.17,679.656 1957.33,679.666 1959.49,679.676 1961.65,679.686 1963.81,679.695 1965.97,679.705 1968.13,679.715 1970.29,679.724 1972.45,679.734 1974.61,679.743 1976.77,679.752 1978.93,679.761 1981.1,679.771 1983.26,679.78 1985.42,679.789 1987.58,679.798 1989.74,679.807 1991.9,679.816 1994.06,679.825 1996.22,679.833 1998.38,679.842 2000.54,679.851 2002.7,679.859 2004.86,679.868 2007.02,679.877 2009.19,679.885 2011.35,679.893 2013.51,679.902 2015.67,679.91 2017.83,679.918 2019.99,679.926 2022.15,679.934 2024.31,679.942 2026.47,679.95 2028.63,679.958 2030.79,679.966 2032.95,679.974 2035.12,679.982 2037.28,679.99 2039.44,679.997 2041.6,680.005 2043.76,680.013 2045.92,680.02 2048.08,680.028 2050.24,680.035 2052.4,680.042 2054.56,680.05 2056.72,680.057 2058.88,680.064 2061.05,680.071 2063.21,680.079 2065.37,680.086 2067.53,680.093 2069.69,680.1 2071.85,680.107 2074.01,680.114 2076.17,680.121 2078.33,680.127 2080.49,680.134 2082.65,680.141 2084.81,680.147 2086.98,680.154 2089.14,680.161 2091.3,680.167 2093.46,680.174 2095.62,680.18 2097.78,680.187 2099.94,680.193 2102.1,680.199 2104.26,680.206 2106.42,680.212 2108.58,680.218 2110.74,680.224 2112.91,680.231 2115.07,680.237 2117.23,680.243 2119.39,680.249 2121.55,680.255 2123.71,680.261 2125.87,680.267 2128.03,680.272 2130.19,680.278 2132.35,680.284 2134.51,680.29 2136.67,680.295 2138.83,680.301 2141,680.307 2143.16,680.312 2145.32,680.318 2147.48,680.324 2149.64,680.329 2151.8,680.335 2153.96,680.34 2156.12,680.345 2158.28,680.351 2160.44,680.356 2162.6,680.361 2164.76,680.367 2166.93,680.372 2169.09,680.377 2171.25,680.382 2173.41,680.388 2175.57,680.393 2177.73,680.398 2179.89,680.403 2182.05,680.408 2184.21,680.413 2186.37,680.418 2188.53,680.423 2190.69,680.428 2192.86,680.433 2195.02,680.437 2197.18,680.442 2199.34,680.447 2201.5,680.452 2203.66,680.457 2205.82,680.461 2207.98,680.466 2210.14,680.471 2212.3,680.475 2214.46,680.48 2216.62,680.485 2218.79,680.489 2220.95,680.494 2223.11,680.498 2225.27,680.503 2227.43,680.507 2229.59,680.512 2231.75,680.516 2233.91,680.52 2236.07,680.525 2238.23,680.529 2240.39,680.533 2242.55,680.538 2244.71,680.542 2246.88,680.546 2249.04,680.55 2251.2,680.554 2253.36,680.558 2255.52,680.563 2257.68,680.567 2259.84,680.571 2262,680.575 2264.16,680.579 2266.32,680.583 2268.48,680.587 2270.64,680.591 2272.81,680.594 2274.97,680.598 2277.13,680.602 2279.29,680.606 2281.45,680.61 2283.61,680.614 2285.77,680.617 2287.93,680.621 2290.09,680.625 2292.25,680.628 2294.41,680.632 2296.57,680.636 2298.74,680.639 2300.9,680.643 2303.06,680.647 2305.22,680.65 2307.38,680.654 2309.54,680.657 2311.7,680.661 2313.86,680.664 2316.02,680.667 2318.18,680.671 2320.34,680.674 2322.5,680.678 2324.67,680.681 2326.83,680.684 2328.99,680.688 2331.15,680.691 2333.31,680.694 2335.47,680.697 2337.63,680.701 2339.79,680.704 2341.95,680.707 2344.11,680.71 2346.27,680.713 2348.43,680.717 2350.6,680.72 2352.76,680.723 "/>
<path clip-path="url(#clip080)" d="M1805.54 248.629 L2280.8 248.629 L2280.8 93.1086 L1805.54 93.1086  Z" fill="#ffffff" fill-rule="evenodd" fill-opacity="1"/>
<polyline clip-path="url(#clip080)" style="stroke:#000000; stroke-linecap:round; stroke-linejoin:round; stroke-width:4; stroke-opacity:1; fill:none" points="1805.54,248.629 2280.8,248.629 2280.8,93.1086 1805.54,93.1086 1805.54,248.629 "/>
<polyline clip-path="url(#clip080)" style="stroke:#009af9; stroke-linecap:round; stroke-linejoin:round; stroke-width:4; stroke-opacity:1; fill:none" points="1829.52,144.949 1973.43,144.949 "/>
<path clip-path="url(#clip080)" d="M1997.42 136.303 L2001.93 136.303 L2010.03 158.062 L2018.14 136.303 L2022.65 136.303 L2012.93 162.229 L2007.14 162.229 L1997.42 136.303 Z" fill="#000000" fill-rule="nonzero" fill-opacity="1" /><path clip-path="url(#clip080)" d="M2029.94 158.293 L2037.58 158.293 L2037.58 131.928 L2029.27 133.595 L2029.27 129.335 L2037.53 127.669 L2042.21 127.669 L2042.21 158.293 L2049.85 158.293 L2049.85 162.229 L2029.94 162.229 L2029.94 158.293 Z" fill="#000000" fill-rule="nonzero" fill-opacity="1" /><path clip-path="url(#clip080)" d="M2067.95 145.585 L2067.95 152.807 L2076.08 152.807 L2076.08 155.006 L2067.95 155.006 L2067.95 162.229 L2065.52 162.229 L2065.52 155.006 L2057.4 155.006 L2057.4 152.807 L2065.52 152.807 L2065.52 145.585 L2067.95 145.585 Z" fill="#000000" fill-rule="nonzero" fill-opacity="1" /><path clip-path="url(#clip080)" d="M2100.24 137.067 L2100.24 141.094 Q2098.44 140.169 2096.49 139.706 Q2094.55 139.243 2092.46 139.243 Q2089.29 139.243 2087.7 140.215 Q2086.12 141.187 2086.12 143.131 Q2086.12 144.613 2087.26 145.469 Q2088.39 146.303 2091.82 147.067 L2093.27 147.391 Q2097.81 148.363 2099.71 150.145 Q2101.63 151.905 2101.63 155.076 Q2101.63 158.687 2098.76 160.793 Q2095.91 162.9 2090.91 162.9 Q2088.83 162.9 2086.56 162.483 Q2084.32 162.09 2081.82 161.28 L2081.82 156.881 Q2084.18 158.108 2086.47 158.733 Q2088.76 159.335 2091.01 159.335 Q2094.02 159.335 2095.64 158.317 Q2097.26 157.275 2097.26 155.4 Q2097.26 153.664 2096.08 152.738 Q2094.92 151.812 2090.96 150.956 L2089.48 150.608 Q2085.52 149.775 2083.76 148.062 Q2082 146.326 2082 143.317 Q2082 139.659 2084.59 137.669 Q2087.19 135.678 2091.96 135.678 Q2094.32 135.678 2096.4 136.025 Q2098.48 136.372 2100.24 137.067 Z" fill="#000000" fill-rule="nonzero" fill-opacity="1" /><path clip-path="url(#clip080)" d="M2112.63 128.942 L2112.63 136.303 L2121.4 136.303 L2121.4 139.613 L2112.63 139.613 L2112.63 153.687 Q2112.63 156.858 2113.48 157.761 Q2114.36 158.664 2117.02 158.664 L2121.4 158.664 L2121.4 162.229 L2117.02 162.229 Q2112.09 162.229 2110.22 160.4 Q2108.34 158.548 2108.34 153.687 L2108.34 139.613 L2105.22 139.613 L2105.22 136.303 L2108.34 136.303 L2108.34 128.942 L2112.63 128.942 Z" fill="#000000" fill-rule="nonzero" fill-opacity="1" /><path clip-path="url(#clip080)" d="M2137.05 139.289 Q2133.62 139.289 2131.63 141.974 Q2129.64 144.636 2129.64 149.289 Q2129.64 153.942 2131.61 156.627 Q2133.6 159.289 2137.05 159.289 Q2140.45 159.289 2142.44 156.604 Q2144.43 153.918 2144.43 149.289 Q2144.43 144.682 2142.44 141.997 Q2140.45 139.289 2137.05 139.289 M2137.05 135.678 Q2142.6 135.678 2145.77 139.289 Q2148.95 142.9 2148.95 149.289 Q2148.95 155.655 2145.77 159.289 Q2142.6 162.9 2137.05 162.9 Q2131.47 162.9 2128.3 159.289 Q2125.15 155.655 2125.15 149.289 Q2125.15 142.9 2128.3 139.289 Q2131.47 135.678 2137.05 135.678 Z" fill="#000000" fill-rule="nonzero" fill-opacity="1" /><path clip-path="url(#clip080)" d="M2171.03 140.284 Q2170.31 139.868 2169.45 139.682 Q2168.62 139.474 2167.6 139.474 Q2163.99 139.474 2162.05 141.835 Q2160.13 144.173 2160.13 148.571 L2160.13 162.229 L2155.84 162.229 L2155.84 136.303 L2160.13 136.303 L2160.13 140.331 Q2161.47 137.969 2163.62 136.835 Q2165.77 135.678 2168.85 135.678 Q2169.29 135.678 2169.83 135.747 Q2170.36 135.794 2171.01 135.909 L2171.03 140.284 Z" fill="#000000" fill-rule="nonzero" fill-opacity="1" /><path clip-path="url(#clip080)" d="M2187.28 149.196 Q2182.12 149.196 2180.13 150.377 Q2178.14 151.557 2178.14 154.405 Q2178.14 156.673 2179.62 158.016 Q2181.12 159.335 2183.69 159.335 Q2187.23 159.335 2189.36 156.835 Q2191.51 154.312 2191.51 150.145 L2191.51 149.196 L2187.28 149.196 M2195.77 147.437 L2195.77 162.229 L2191.51 162.229 L2191.51 158.293 Q2190.06 160.655 2187.88 161.789 Q2185.7 162.9 2182.56 162.9 Q2178.58 162.9 2176.21 160.678 Q2173.88 158.432 2173.88 154.682 Q2173.88 150.307 2176.79 148.085 Q2179.73 145.863 2185.54 145.863 L2191.51 145.863 L2191.51 145.446 Q2191.51 142.507 2189.57 140.909 Q2187.65 139.289 2184.15 139.289 Q2181.93 139.289 2179.83 139.821 Q2177.72 140.354 2175.77 141.419 L2175.77 137.483 Q2178.11 136.581 2180.31 136.141 Q2182.51 135.678 2184.59 135.678 Q2190.22 135.678 2193 138.594 Q2195.77 141.511 2195.77 147.437 Z" fill="#000000" fill-rule="nonzero" fill-opacity="1" /><path clip-path="url(#clip080)" d="M2221.61 148.965 Q2221.61 144.335 2219.69 141.789 Q2217.79 139.243 2214.34 139.243 Q2210.91 139.243 2208.99 141.789 Q2207.09 144.335 2207.09 148.965 Q2207.09 153.571 2208.99 156.118 Q2210.91 158.664 2214.34 158.664 Q2217.79 158.664 2219.69 156.118 Q2221.61 153.571 2221.61 148.965 M2225.87 159.011 Q2225.87 165.631 2222.93 168.849 Q2219.99 172.09 2213.92 172.09 Q2211.68 172.09 2209.69 171.742 Q2207.7 171.418 2205.82 170.724 L2205.82 166.58 Q2207.7 167.599 2209.52 168.085 Q2211.35 168.571 2213.25 168.571 Q2217.44 168.571 2219.52 166.372 Q2221.61 164.196 2221.61 159.775 L2221.61 157.668 Q2220.29 159.96 2218.23 161.094 Q2216.17 162.229 2213.3 162.229 Q2208.53 162.229 2205.61 158.594 Q2202.7 154.96 2202.7 148.965 Q2202.7 142.946 2205.61 139.312 Q2208.53 135.678 2213.3 135.678 Q2216.17 135.678 2218.23 136.812 Q2220.29 137.946 2221.61 140.238 L2221.61 136.303 L2225.87 136.303 L2225.87 159.011 Z" fill="#000000" fill-rule="nonzero" fill-opacity="1" /><path clip-path="url(#clip080)" d="M2256.82 148.201 L2256.82 150.284 L2237.23 150.284 Q2237.51 154.682 2239.87 156.997 Q2242.26 159.289 2246.49 159.289 Q2248.95 159.289 2251.24 158.687 Q2253.55 158.085 2255.82 156.881 L2255.82 160.909 Q2253.53 161.881 2251.12 162.391 Q2248.71 162.9 2246.24 162.9 Q2240.03 162.9 2236.4 159.289 Q2232.79 155.678 2232.79 149.52 Q2232.79 143.155 2236.21 139.428 Q2239.66 135.678 2245.5 135.678 Q2250.73 135.678 2253.76 139.057 Q2256.82 142.414 2256.82 148.201 M2252.56 146.951 Q2252.51 143.456 2250.59 141.372 Q2248.69 139.289 2245.54 139.289 Q2241.98 139.289 2239.82 141.303 Q2237.7 143.317 2237.37 146.974 L2252.56 146.951 Z" fill="#000000" fill-rule="nonzero" fill-opacity="1" /><polyline clip-path="url(#clip080)" style="stroke:#e26f46; stroke-linecap:round; stroke-linejoin:round; stroke-width:4; stroke-opacity:1; fill:none" points="1829.52,196.789 1973.43,196.789 "/>
<path clip-path="url(#clip080)" d="M1997.42 188.143 L2001.93 188.143 L2010.03 209.902 L2018.14 188.143 L2022.65 188.143 L2012.93 214.069 L2007.14 214.069 L1997.42 188.143 Z" fill="#000000" fill-rule="nonzero" fill-opacity="1" /><path clip-path="url(#clip080)" d="M2029.18 179.509 L2047.53 179.509 L2047.53 183.444 L2033.46 183.444 L2033.46 191.916 Q2034.48 191.569 2035.5 191.407 Q2036.52 191.222 2037.53 191.222 Q2043.32 191.222 2046.7 194.393 Q2050.08 197.564 2050.08 202.981 Q2050.08 208.559 2046.61 211.661 Q2043.14 214.74 2036.82 214.74 Q2034.64 214.74 2032.37 214.37 Q2030.13 213.999 2027.72 213.258 L2027.72 208.559 Q2029.8 209.694 2032.03 210.249 Q2034.25 210.805 2036.72 210.805 Q2040.73 210.805 2043.07 208.698 Q2045.4 206.592 2045.4 202.981 Q2045.4 199.37 2043.07 197.263 Q2040.73 195.157 2036.72 195.157 Q2034.85 195.157 2032.97 195.573 Q2031.12 195.99 2029.18 196.87 L2029.18 179.509 Z" fill="#000000" fill-rule="nonzero" fill-opacity="1" /><path clip-path="url(#clip080)" d="M2067.95 197.425 L2067.95 204.647 L2076.08 204.647 L2076.08 206.846 L2067.95 206.846 L2067.95 214.069 L2065.52 214.069 L2065.52 206.846 L2057.4 206.846 L2057.4 204.647 L2065.52 204.647 L2065.52 197.425 L2067.95 197.425 Z" fill="#000000" fill-rule="nonzero" fill-opacity="1" /><path clip-path="url(#clip080)" d="M2100.24 188.907 L2100.24 192.934 Q2098.44 192.009 2096.49 191.546 Q2094.55 191.083 2092.46 191.083 Q2089.29 191.083 2087.7 192.055 Q2086.12 193.027 2086.12 194.971 Q2086.12 196.453 2087.26 197.309 Q2088.39 198.143 2091.82 198.907 L2093.27 199.231 Q2097.81 200.203 2099.71 201.985 Q2101.63 203.745 2101.63 206.916 Q2101.63 210.527 2098.76 212.633 Q2095.91 214.74 2090.91 214.74 Q2088.83 214.74 2086.56 214.323 Q2084.32 213.93 2081.82 213.12 L2081.82 208.721 Q2084.18 209.948 2086.47 210.573 Q2088.76 211.175 2091.01 211.175 Q2094.02 211.175 2095.64 210.157 Q2097.26 209.115 2097.26 207.24 Q2097.26 205.504 2096.08 204.578 Q2094.92 203.652 2090.96 202.796 L2089.48 202.448 Q2085.52 201.615 2083.76 199.902 Q2082 198.166 2082 195.157 Q2082 191.499 2084.59 189.509 Q2087.19 187.518 2091.96 187.518 Q2094.32 187.518 2096.4 187.865 Q2098.48 188.212 2100.24 188.907 Z" fill="#000000" fill-rule="nonzero" fill-opacity="1" /><path clip-path="url(#clip080)" d="M2112.63 180.782 L2112.63 188.143 L2121.4 188.143 L2121.4 191.453 L2112.63 191.453 L2112.63 205.527 Q2112.63 208.698 2113.48 209.601 Q2114.36 210.504 2117.02 210.504 L2121.4 210.504 L2121.4 214.069 L2117.02 214.069 Q2112.09 214.069 2110.22 212.24 Q2108.34 210.388 2108.34 205.527 L2108.34 191.453 L2105.22 191.453 L2105.22 188.143 L2108.34 188.143 L2108.34 180.782 L2112.63 180.782 Z" fill="#000000" fill-rule="nonzero" fill-opacity="1" /><path clip-path="url(#clip080)" d="M2137.05 191.129 Q2133.62 191.129 2131.63 193.814 Q2129.64 196.476 2129.64 201.129 Q2129.64 205.782 2131.61 208.467 Q2133.6 211.129 2137.05 211.129 Q2140.45 211.129 2142.44 208.444 Q2144.43 205.758 2144.43 201.129 Q2144.43 196.522 2142.44 193.837 Q2140.45 191.129 2137.05 191.129 M2137.05 187.518 Q2142.6 187.518 2145.77 191.129 Q2148.95 194.74 2148.95 201.129 Q2148.95 207.495 2145.77 211.129 Q2142.6 214.74 2137.05 214.74 Q2131.47 214.74 2128.3 211.129 Q2125.15 207.495 2125.15 201.129 Q2125.15 194.74 2128.3 191.129 Q2131.47 187.518 2137.05 187.518 Z" fill="#000000" fill-rule="nonzero" fill-opacity="1" /><path clip-path="url(#clip080)" d="M2171.03 192.124 Q2170.31 191.708 2169.45 191.522 Q2168.62 191.314 2167.6 191.314 Q2163.99 191.314 2162.05 193.675 Q2160.13 196.013 2160.13 200.411 L2160.13 214.069 L2155.84 214.069 L2155.84 188.143 L2160.13 188.143 L2160.13 192.171 Q2161.47 189.809 2163.62 188.675 Q2165.77 187.518 2168.85 187.518 Q2169.29 187.518 2169.83 187.587 Q2170.36 187.634 2171.01 187.749 L2171.03 192.124 Z" fill="#000000" fill-rule="nonzero" fill-opacity="1" /><path clip-path="url(#clip080)" d="M2187.28 201.036 Q2182.12 201.036 2180.13 202.217 Q2178.14 203.397 2178.14 206.245 Q2178.14 208.513 2179.62 209.856 Q2181.12 211.175 2183.69 211.175 Q2187.23 211.175 2189.36 208.675 Q2191.51 206.152 2191.51 201.985 L2191.51 201.036 L2187.28 201.036 M2195.77 199.277 L2195.77 214.069 L2191.51 214.069 L2191.51 210.133 Q2190.06 212.495 2187.88 213.629 Q2185.7 214.74 2182.56 214.74 Q2178.58 214.74 2176.21 212.518 Q2173.88 210.272 2173.88 206.522 Q2173.88 202.147 2176.79 199.925 Q2179.73 197.703 2185.54 197.703 L2191.51 197.703 L2191.51 197.286 Q2191.51 194.347 2189.57 192.749 Q2187.65 191.129 2184.15 191.129 Q2181.93 191.129 2179.83 191.661 Q2177.72 192.194 2175.77 193.259 L2175.77 189.323 Q2178.11 188.421 2180.31 187.981 Q2182.51 187.518 2184.59 187.518 Q2190.22 187.518 2193 190.434 Q2195.77 193.351 2195.77 199.277 Z" fill="#000000" fill-rule="nonzero" fill-opacity="1" /><path clip-path="url(#clip080)" d="M2221.61 200.805 Q2221.61 196.175 2219.69 193.629 Q2217.79 191.083 2214.34 191.083 Q2210.91 191.083 2208.99 193.629 Q2207.09 196.175 2207.09 200.805 Q2207.09 205.411 2208.99 207.958 Q2210.91 210.504 2214.34 210.504 Q2217.79 210.504 2219.69 207.958 Q2221.61 205.411 2221.61 200.805 M2225.87 210.851 Q2225.87 217.471 2222.93 220.689 Q2219.99 223.93 2213.92 223.93 Q2211.68 223.93 2209.69 223.582 Q2207.7 223.258 2205.82 222.564 L2205.82 218.42 Q2207.7 219.439 2209.52 219.925 Q2211.35 220.411 2213.25 220.411 Q2217.44 220.411 2219.52 218.212 Q2221.61 216.036 2221.61 211.615 L2221.61 209.508 Q2220.29 211.8 2218.23 212.934 Q2216.17 214.069 2213.3 214.069 Q2208.53 214.069 2205.61 210.434 Q2202.7 206.8 2202.7 200.805 Q2202.7 194.786 2205.61 191.152 Q2208.53 187.518 2213.3 187.518 Q2216.17 187.518 2218.23 188.652 Q2220.29 189.786 2221.61 192.078 L2221.61 188.143 L2225.87 188.143 L2225.87 210.851 Z" fill="#000000" fill-rule="nonzero" fill-opacity="1" /><path clip-path="url(#clip080)" d="M2256.82 200.041 L2256.82 202.124 L2237.23 202.124 Q2237.51 206.522 2239.87 208.837 Q2242.26 211.129 2246.49 211.129 Q2248.95 211.129 2251.24 210.527 Q2253.55 209.925 2255.82 208.721 L2255.82 212.749 Q2253.53 213.721 2251.12 214.231 Q2248.71 214.74 2246.24 214.74 Q2240.03 214.74 2236.4 211.129 Q2232.79 207.518 2232.79 201.36 Q2232.79 194.995 2236.21 191.268 Q2239.66 187.518 2245.5 187.518 Q2250.73 187.518 2253.76 190.897 Q2256.82 194.254 2256.82 200.041 M2252.56 198.791 Q2252.51 195.296 2250.59 193.212 Q2248.69 191.129 2245.54 191.129 Q2241.98 191.129 2239.82 193.143 Q2237.7 195.157 2237.37 198.814 L2252.56 198.791 Z" fill="#000000" fill-rule="nonzero" fill-opacity="1" /></svg>
