<?xml version="1.0" encoding="utf-8"?>
<svg xmlns="http://www.w3.org/2000/svg" xmlns:xlink="http://www.w3.org/1999/xlink" width="600" height="400" viewBox="0 0 2400 1600">
<defs>
  <clipPath id="clip480">
    <rect x="0" y="0" width="2400" height="1600"/>
  </clipPath>
</defs>
<path clip-path="url(#clip480)" d="M0 1600 L2400 1600 L2400 0 L0 0  Z" fill="#ffffff" fill-rule="evenodd" fill-opacity="1"/>
<defs>
  <clipPath id="clip481">
    <rect x="480" y="0" width="1681" height="1600"/>
  </clipPath>
</defs>
<path clip-path="url(#clip480)" d="M194.422 1423.18 L2352.76 1423.18 L2352.76 47.2441 L194.422 47.2441  Z" fill="#ffffff" fill-rule="evenodd" fill-opacity="1"/>
<defs>
  <clipPath id="clip482">
    <rect x="194" y="47" width="2159" height="1377"/>
  </clipPath>
</defs>
<polyline clip-path="url(#clip482)" style="stroke:#000000; stroke-linecap:round; stroke-linejoin:round; stroke-width:2; stroke-opacity:0.1; fill:none" points="194.422,1423.18 194.422,47.2441 "/>
<polyline clip-path="url(#clip482)" style="stroke:#000000; stroke-linecap:round; stroke-linejoin:round; stroke-width:2; stroke-opacity:0.1; fill:none" points="734.006,1423.18 734.006,47.2441 "/>
<polyline clip-path="url(#clip482)" style="stroke:#000000; stroke-linecap:round; stroke-linejoin:round; stroke-width:2; stroke-opacity:0.1; fill:none" points="1273.59,1423.18 1273.59,47.2441 "/>
<polyline clip-path="url(#clip482)" style="stroke:#000000; stroke-linecap:round; stroke-linejoin:round; stroke-width:2; stroke-opacity:0.1; fill:none" points="1813.17,1423.18 1813.17,47.2441 "/>
<polyline clip-path="url(#clip482)" style="stroke:#000000; stroke-linecap:round; stroke-linejoin:round; stroke-width:2; stroke-opacity:0.1; fill:none" points="2352.76,1423.18 2352.76,47.2441 "/>
<polyline clip-path="url(#clip482)" style="stroke:#000000; stroke-linecap:round; stroke-linejoin:round; stroke-width:2; stroke-opacity:0.1; fill:none" points="194.422,1235.17 2352.76,1235.17 "/>
<polyline clip-path="url(#clip482)" style="stroke:#000000; stroke-linecap:round; stroke-linejoin:round; stroke-width:2; stroke-opacity:0.1; fill:none" points="194.422,1031.81 2352.76,1031.81 "/>
<polyline clip-path="url(#clip482)" style="stroke:#000000; stroke-linecap:round; stroke-linejoin:round; stroke-width:2; stroke-opacity:0.1; fill:none" points="194.422,828.444 2352.76,828.444 "/>
<polyline clip-path="url(#clip482)" style="stroke:#000000; stroke-linecap:round; stroke-linejoin:round; stroke-width:2; stroke-opacity:0.1; fill:none" points="194.422,625.082 2352.76,625.082 "/>
<polyline clip-path="url(#clip482)" style="stroke:#000000; stroke-linecap:round; stroke-linejoin:round; stroke-width:2; stroke-opacity:0.1; fill:none" points="194.422,421.719 2352.76,421.719 "/>
<polyline clip-path="url(#clip482)" style="stroke:#000000; stroke-linecap:round; stroke-linejoin:round; stroke-width:2; stroke-opacity:0.1; fill:none" points="194.422,218.357 2352.76,218.357 "/>
<polyline clip-path="url(#clip480)" style="stroke:#000000; stroke-linecap:round; stroke-linejoin:round; stroke-width:4; stroke-opacity:1; fill:none" points="194.422,1423.18 2352.76,1423.18 "/>
<polyline clip-path="url(#clip480)" style="stroke:#000000; stroke-linecap:round; stroke-linejoin:round; stroke-width:4; stroke-opacity:1; fill:none" points="194.422,1423.18 194.422,1404.28 "/>
<polyline clip-path="url(#clip480)" style="stroke:#000000; stroke-linecap:round; stroke-linejoin:round; stroke-width:4; stroke-opacity:1; fill:none" points="734.006,1423.18 734.006,1404.28 "/>
<polyline clip-path="url(#clip480)" style="stroke:#000000; stroke-linecap:round; stroke-linejoin:round; stroke-width:4; stroke-opacity:1; fill:none" points="1273.59,1423.18 1273.59,1404.28 "/>
<polyline clip-path="url(#clip480)" style="stroke:#000000; stroke-linecap:round; stroke-linejoin:round; stroke-width:4; stroke-opacity:1; fill:none" points="1813.17,1423.18 1813.17,1404.28 "/>
<polyline clip-path="url(#clip480)" style="stroke:#000000; stroke-linecap:round; stroke-linejoin:round; stroke-width:4; stroke-opacity:1; fill:none" points="2352.76,1423.18 2352.76,1404.28 "/>
<path clip-path="url(#clip480)" d="M171.806 1454.1 Q168.195 1454.1 166.367 1457.66 Q164.561 1461.2 164.561 1468.33 Q164.561 1475.44 166.367 1479.01 Q168.195 1482.55 171.806 1482.55 Q175.441 1482.55 177.246 1479.01 Q179.075 1475.44 179.075 1468.33 Q179.075 1461.2 177.246 1457.66 Q175.441 1454.1 171.806 1454.1 M171.806 1450.39 Q177.617 1450.39 180.672 1455 Q183.751 1459.58 183.751 1468.33 Q183.751 1477.06 180.672 1481.67 Q177.617 1486.25 171.806 1486.25 Q165.996 1486.25 162.918 1481.67 Q159.862 1477.06 159.862 1468.33 Q159.862 1459.58 162.918 1455 Q165.996 1450.39 171.806 1450.39 Z" fill="#000000" fill-rule="nonzero" fill-opacity="1" /><path clip-path="url(#clip480)" d="M191.968 1479.7 L196.853 1479.7 L196.853 1485.58 L191.968 1485.58 L191.968 1479.7 Z" fill="#000000" fill-rule="nonzero" fill-opacity="1" /><path clip-path="url(#clip480)" d="M217.038 1454.1 Q213.427 1454.1 211.598 1457.66 Q209.792 1461.2 209.792 1468.33 Q209.792 1475.44 211.598 1479.01 Q213.427 1482.55 217.038 1482.55 Q220.672 1482.55 222.478 1479.01 Q224.306 1475.44 224.306 1468.33 Q224.306 1461.2 222.478 1457.66 Q220.672 1454.1 217.038 1454.1 M217.038 1450.39 Q222.848 1450.39 225.903 1455 Q228.982 1459.58 228.982 1468.33 Q228.982 1477.06 225.903 1481.67 Q222.848 1486.25 217.038 1486.25 Q211.228 1486.25 208.149 1481.67 Q205.093 1477.06 205.093 1468.33 Q205.093 1459.58 208.149 1455 Q211.228 1450.39 217.038 1450.39 Z" fill="#000000" fill-rule="nonzero" fill-opacity="1" /><path clip-path="url(#clip480)" d="M711.888 1454.1 Q708.277 1454.1 706.448 1457.66 Q704.642 1461.2 704.642 1468.33 Q704.642 1475.44 706.448 1479.01 Q708.277 1482.55 711.888 1482.55 Q715.522 1482.55 717.327 1479.01 Q719.156 1475.44 719.156 1468.33 Q719.156 1461.2 717.327 1457.66 Q715.522 1454.1 711.888 1454.1 M711.888 1450.39 Q717.698 1450.39 720.753 1455 Q723.832 1459.58 723.832 1468.33 Q723.832 1477.06 720.753 1481.67 Q717.698 1486.25 711.888 1486.25 Q706.077 1486.25 702.999 1481.67 Q699.943 1477.06 699.943 1468.33 Q699.943 1459.58 702.999 1455 Q706.077 1450.39 711.888 1450.39 Z" fill="#000000" fill-rule="nonzero" fill-opacity="1" /><path clip-path="url(#clip480)" d="M732.05 1479.7 L736.934 1479.7 L736.934 1485.58 L732.05 1485.58 L732.05 1479.7 Z" fill="#000000" fill-rule="nonzero" fill-opacity="1" /><path clip-path="url(#clip480)" d="M747.165 1451.02 L765.522 1451.02 L765.522 1454.96 L751.448 1454.96 L751.448 1463.43 Q752.466 1463.08 753.485 1462.92 Q754.503 1462.73 755.522 1462.73 Q761.309 1462.73 764.688 1465.9 Q768.068 1469.08 768.068 1474.49 Q768.068 1480.07 764.596 1483.17 Q761.123 1486.25 754.804 1486.25 Q752.628 1486.25 750.36 1485.88 Q748.114 1485.51 745.707 1484.77 L745.707 1480.07 Q747.79 1481.2 750.012 1481.76 Q752.235 1482.32 754.711 1482.32 Q758.716 1482.32 761.054 1480.21 Q763.392 1478.1 763.392 1474.49 Q763.392 1470.88 761.054 1468.77 Q758.716 1466.67 754.711 1466.67 Q752.836 1466.67 750.961 1467.08 Q749.11 1467.5 747.165 1468.38 L747.165 1451.02 Z" fill="#000000" fill-rule="nonzero" fill-opacity="1" /><path clip-path="url(#clip480)" d="M1240.74 1481.64 L1248.38 1481.64 L1248.38 1455.28 L1240.07 1456.95 L1240.07 1452.69 L1248.33 1451.02 L1253.01 1451.02 L1253.01 1481.64 L1260.65 1481.64 L1260.65 1485.58 L1240.74 1485.58 L1240.74 1481.64 Z" fill="#000000" fill-rule="nonzero" fill-opacity="1" /><path clip-path="url(#clip480)" d="M1270.09 1479.7 L1274.98 1479.7 L1274.98 1485.58 L1270.09 1485.58 L1270.09 1479.7 Z" fill="#000000" fill-rule="nonzero" fill-opacity="1" /><path clip-path="url(#clip480)" d="M1295.16 1454.1 Q1291.55 1454.1 1289.72 1457.66 Q1287.92 1461.2 1287.92 1468.33 Q1287.92 1475.44 1289.72 1479.01 Q1291.55 1482.55 1295.16 1482.55 Q1298.8 1482.55 1300.6 1479.01 Q1302.43 1475.44 1302.43 1468.33 Q1302.43 1461.2 1300.6 1457.66 Q1298.8 1454.1 1295.16 1454.1 M1295.16 1450.39 Q1300.97 1450.39 1304.03 1455 Q1307.11 1459.58 1307.11 1468.33 Q1307.11 1477.06 1304.03 1481.67 Q1300.97 1486.25 1295.16 1486.25 Q1289.35 1486.25 1286.27 1481.67 Q1283.22 1477.06 1283.22 1468.33 Q1283.22 1459.58 1286.27 1455 Q1289.35 1450.39 1295.16 1450.39 Z" fill="#000000" fill-rule="nonzero" fill-opacity="1" /><path clip-path="url(#clip480)" d="M1780.82 1481.64 L1788.46 1481.64 L1788.46 1455.28 L1780.15 1456.95 L1780.15 1452.69 L1788.42 1451.02 L1793.09 1451.02 L1793.09 1481.64 L1800.73 1481.64 L1800.73 1485.58 L1780.82 1485.58 L1780.82 1481.64 Z" fill="#000000" fill-rule="nonzero" fill-opacity="1" /><path clip-path="url(#clip480)" d="M1810.17 1479.7 L1815.06 1479.7 L1815.06 1485.58 L1810.17 1485.58 L1810.17 1479.7 Z" fill="#000000" fill-rule="nonzero" fill-opacity="1" /><path clip-path="url(#clip480)" d="M1825.29 1451.02 L1843.65 1451.02 L1843.65 1454.96 L1829.57 1454.96 L1829.57 1463.43 Q1830.59 1463.08 1831.61 1462.92 Q1832.63 1462.73 1833.65 1462.73 Q1839.43 1462.73 1842.81 1465.9 Q1846.19 1469.08 1846.19 1474.49 Q1846.19 1480.07 1842.72 1483.17 Q1839.25 1486.25 1832.93 1486.25 Q1830.75 1486.25 1828.48 1485.88 Q1826.24 1485.51 1823.83 1484.77 L1823.83 1480.07 Q1825.92 1481.2 1828.14 1481.76 Q1830.36 1482.32 1832.84 1482.32 Q1836.84 1482.32 1839.18 1480.21 Q1841.52 1478.1 1841.52 1474.49 Q1841.52 1470.88 1839.18 1468.77 Q1836.84 1466.67 1832.84 1466.67 Q1830.96 1466.67 1829.09 1467.08 Q1827.23 1467.5 1825.29 1468.38 L1825.29 1451.02 Z" fill="#000000" fill-rule="nonzero" fill-opacity="1" /><path clip-path="url(#clip480)" d="M2323.99 1481.64 L2340.31 1481.64 L2340.31 1485.58 L2318.37 1485.58 L2318.37 1481.64 Q2321.03 1478.89 2325.61 1474.26 Q2330.22 1469.61 2331.4 1468.27 Q2333.65 1465.74 2334.53 1464.01 Q2335.43 1462.25 2335.43 1460.56 Q2335.43 1457.8 2333.49 1456.07 Q2331.56 1454.33 2328.46 1454.33 Q2326.26 1454.33 2323.81 1455.09 Q2321.38 1455.86 2318.6 1457.41 L2318.6 1452.69 Q2321.43 1451.55 2323.88 1450.97 Q2326.33 1450.39 2328.37 1450.39 Q2333.74 1450.39 2336.93 1453.08 Q2340.13 1455.77 2340.13 1460.26 Q2340.13 1462.39 2339.32 1464.31 Q2338.53 1466.2 2336.42 1468.8 Q2335.85 1469.47 2332.74 1472.69 Q2329.64 1475.88 2323.99 1481.64 Z" fill="#000000" fill-rule="nonzero" fill-opacity="1" /><path clip-path="url(#clip480)" d="M2350.13 1479.7 L2355.01 1479.7 L2355.01 1485.58 L2350.13 1485.58 L2350.13 1479.7 Z" fill="#000000" fill-rule="nonzero" fill-opacity="1" /><path clip-path="url(#clip480)" d="M2375.2 1454.1 Q2371.59 1454.1 2369.76 1457.66 Q2367.95 1461.2 2367.95 1468.33 Q2367.95 1475.44 2369.76 1479.01 Q2371.59 1482.55 2375.2 1482.55 Q2378.83 1482.55 2380.64 1479.01 Q2382.47 1475.44 2382.47 1468.33 Q2382.47 1461.2 2380.64 1457.66 Q2378.83 1454.1 2375.2 1454.1 M2375.2 1450.39 Q2381.01 1450.39 2384.06 1455 Q2387.14 1459.58 2387.14 1468.33 Q2387.14 1477.06 2384.06 1481.67 Q2381.01 1486.25 2375.2 1486.25 Q2369.39 1486.25 2366.31 1481.67 Q2363.25 1477.06 2363.25 1468.33 Q2363.25 1459.58 2366.31 1455 Q2369.39 1450.39 2375.2 1450.39 Z" fill="#000000" fill-rule="nonzero" fill-opacity="1" /><path clip-path="url(#clip480)" d="M1272.65 1522.27 L1272.65 1532.4 L1284.71 1532.4 L1284.71 1536.95 L1272.65 1536.95 L1272.65 1556.3 Q1272.65 1560.66 1273.83 1561.9 Q1275.04 1563.14 1278.7 1563.14 L1284.71 1563.14 L1284.71 1568.04 L1278.7 1568.04 Q1271.92 1568.04 1269.34 1565.53 Q1266.76 1562.98 1266.76 1556.3 L1266.76 1536.95 L1262.46 1536.95 L1262.46 1532.4 L1266.76 1532.4 L1266.76 1522.27 L1272.65 1522.27 Z" fill="#000000" fill-rule="nonzero" fill-opacity="1" /><polyline clip-path="url(#clip480)" style="stroke:#000000; stroke-linecap:round; stroke-linejoin:round; stroke-width:4; stroke-opacity:1; fill:none" points="194.422,1423.18 194.422,47.2441 "/>
<polyline clip-path="url(#clip480)" style="stroke:#000000; stroke-linecap:round; stroke-linejoin:round; stroke-width:4; stroke-opacity:1; fill:none" points="194.422,1235.17 213.32,1235.17 "/>
<polyline clip-path="url(#clip480)" style="stroke:#000000; stroke-linecap:round; stroke-linejoin:round; stroke-width:4; stroke-opacity:1; fill:none" points="194.422,1031.81 213.32,1031.81 "/>
<polyline clip-path="url(#clip480)" style="stroke:#000000; stroke-linecap:round; stroke-linejoin:round; stroke-width:4; stroke-opacity:1; fill:none" points="194.422,828.444 213.32,828.444 "/>
<polyline clip-path="url(#clip480)" style="stroke:#000000; stroke-linecap:round; stroke-linejoin:round; stroke-width:4; stroke-opacity:1; fill:none" points="194.422,625.082 213.32,625.082 "/>
<polyline clip-path="url(#clip480)" style="stroke:#000000; stroke-linecap:round; stroke-linejoin:round; stroke-width:4; stroke-opacity:1; fill:none" points="194.422,421.719 213.32,421.719 "/>
<polyline clip-path="url(#clip480)" style="stroke:#000000; stroke-linecap:round; stroke-linejoin:round; stroke-width:4; stroke-opacity:1; fill:none" points="194.422,218.357 213.32,218.357 "/>
<path clip-path="url(#clip480)" d="M51.3162 1235.62 L80.992 1235.62 L80.992 1239.56 L51.3162 1239.56 L51.3162 1235.62 Z" fill="#000000" fill-rule="nonzero" fill-opacity="1" /><path clip-path="url(#clip480)" d="M101.084 1220.97 Q97.4734 1220.97 95.6447 1224.53 Q93.8391 1228.07 93.8391 1235.2 Q93.8391 1242.31 95.6447 1245.87 Q97.4734 1249.42 101.084 1249.42 Q104.719 1249.42 106.524 1245.87 Q108.353 1242.31 108.353 1235.2 Q108.353 1228.07 106.524 1224.53 Q104.719 1220.97 101.084 1220.97 M101.084 1217.26 Q106.895 1217.26 109.95 1221.87 Q113.029 1226.45 113.029 1235.2 Q113.029 1243.93 109.95 1248.54 Q106.895 1253.12 101.084 1253.12 Q95.2743 1253.12 92.1956 1248.54 Q89.1401 1243.93 89.1401 1235.2 Q89.1401 1226.45 92.1956 1221.87 Q95.2743 1217.26 101.084 1217.26 Z" fill="#000000" fill-rule="nonzero" fill-opacity="1" /><path clip-path="url(#clip480)" d="M121.246 1246.57 L126.131 1246.57 L126.131 1252.45 L121.246 1252.45 L121.246 1246.57 Z" fill="#000000" fill-rule="nonzero" fill-opacity="1" /><path clip-path="url(#clip480)" d="M146.894 1233.31 Q143.746 1233.31 141.894 1235.46 Q140.066 1237.61 140.066 1241.36 Q140.066 1245.09 141.894 1247.26 Q143.746 1249.42 146.894 1249.42 Q150.043 1249.42 151.871 1247.26 Q153.723 1245.09 153.723 1241.36 Q153.723 1237.61 151.871 1235.46 Q150.043 1233.31 146.894 1233.31 M156.177 1218.65 L156.177 1222.91 Q154.417 1222.08 152.612 1221.64 Q150.83 1221.2 149.07 1221.2 Q144.441 1221.2 141.987 1224.32 Q139.556 1227.45 139.209 1233.77 Q140.575 1231.75 142.635 1230.69 Q144.695 1229.6 147.172 1229.6 Q152.38 1229.6 155.39 1232.77 Q158.422 1235.92 158.422 1241.36 Q158.422 1246.69 155.274 1249.9 Q152.126 1253.12 146.894 1253.12 Q140.899 1253.12 137.728 1248.54 Q134.556 1243.93 134.556 1235.2 Q134.556 1227.01 138.445 1222.15 Q142.334 1217.26 148.885 1217.26 Q150.644 1217.26 152.427 1217.61 Q154.232 1217.96 156.177 1218.65 Z" fill="#000000" fill-rule="nonzero" fill-opacity="1" /><path clip-path="url(#clip480)" d="M52.4736 1032.26 L82.1494 1032.26 L82.1494 1036.19 L52.4736 1036.19 L52.4736 1032.26 Z" fill="#000000" fill-rule="nonzero" fill-opacity="1" /><path clip-path="url(#clip480)" d="M102.242 1017.61 Q98.6308 1017.61 96.8021 1021.17 Q94.9965 1024.71 94.9965 1031.84 Q94.9965 1038.95 96.8021 1042.51 Q98.6308 1046.05 102.242 1046.05 Q105.876 1046.05 107.682 1042.51 Q109.51 1038.95 109.51 1031.84 Q109.51 1024.71 107.682 1021.17 Q105.876 1017.61 102.242 1017.61 M102.242 1013.9 Q108.052 1013.9 111.108 1018.51 Q114.186 1023.09 114.186 1031.84 Q114.186 1040.57 111.108 1045.17 Q108.052 1049.76 102.242 1049.76 Q96.4317 1049.76 93.353 1045.17 Q90.2975 1040.57 90.2975 1031.84 Q90.2975 1023.09 93.353 1018.51 Q96.4317 1013.9 102.242 1013.9 Z" fill="#000000" fill-rule="nonzero" fill-opacity="1" /><path clip-path="url(#clip480)" d="M122.404 1043.21 L127.288 1043.21 L127.288 1049.09 L122.404 1049.09 L122.404 1043.21 Z" fill="#000000" fill-rule="nonzero" fill-opacity="1" /><path clip-path="url(#clip480)" d="M137.519 1014.53 L155.876 1014.53 L155.876 1018.46 L141.802 1018.46 L141.802 1026.93 Q142.82 1026.59 143.839 1026.42 Q144.857 1026.24 145.876 1026.24 Q151.663 1026.24 155.042 1029.41 Q158.422 1032.58 158.422 1038 Q158.422 1043.58 154.95 1046.68 Q151.478 1049.76 145.158 1049.76 Q142.982 1049.76 140.714 1049.39 Q138.469 1049.02 136.061 1048.28 L136.061 1043.58 Q138.144 1044.71 140.367 1045.27 Q142.589 1045.82 145.066 1045.82 Q149.07 1045.82 151.408 1043.72 Q153.746 1041.61 153.746 1038 Q153.746 1034.39 151.408 1032.28 Q149.07 1030.17 145.066 1030.17 Q143.191 1030.17 141.316 1030.59 Q139.464 1031.01 137.519 1031.89 L137.519 1014.53 Z" fill="#000000" fill-rule="nonzero" fill-opacity="1" /><path clip-path="url(#clip480)" d="M50.9921 828.895 L80.6679 828.895 L80.6679 832.831 L50.9921 832.831 L50.9921 828.895 Z" fill="#000000" fill-rule="nonzero" fill-opacity="1" /><path clip-path="url(#clip480)" d="M100.76 814.243 Q97.1493 814.243 95.3206 817.808 Q93.515 821.349 93.515 828.479 Q93.515 835.585 95.3206 839.15 Q97.1493 842.692 100.76 842.692 Q104.395 842.692 106.2 839.15 Q108.029 835.585 108.029 828.479 Q108.029 821.349 106.2 817.808 Q104.395 814.243 100.76 814.243 M100.76 810.539 Q106.571 810.539 109.626 815.146 Q112.705 819.729 112.705 828.479 Q112.705 837.206 109.626 841.812 Q106.571 846.395 100.76 846.395 Q94.9502 846.395 91.8715 841.812 Q88.816 837.206 88.816 828.479 Q88.816 819.729 91.8715 815.146 Q94.9502 810.539 100.76 810.539 Z" fill="#000000" fill-rule="nonzero" fill-opacity="1" /><path clip-path="url(#clip480)" d="M120.922 839.844 L125.807 839.844 L125.807 845.724 L120.922 845.724 L120.922 839.844 Z" fill="#000000" fill-rule="nonzero" fill-opacity="1" /><path clip-path="url(#clip480)" d="M148.839 815.238 L137.033 833.687 L148.839 833.687 L148.839 815.238 M147.612 811.164 L153.492 811.164 L153.492 833.687 L158.422 833.687 L158.422 837.576 L153.492 837.576 L153.492 845.724 L148.839 845.724 L148.839 837.576 L133.237 837.576 L133.237 833.062 L147.612 811.164 Z" fill="#000000" fill-rule="nonzero" fill-opacity="1" /><path clip-path="url(#clip480)" d="M52.1264 625.533 L81.8021 625.533 L81.8021 629.468 L52.1264 629.468 L52.1264 625.533 Z" fill="#000000" fill-rule="nonzero" fill-opacity="1" /><path clip-path="url(#clip480)" d="M101.895 610.88 Q98.2835 610.88 96.4548 614.445 Q94.6493 617.987 94.6493 625.116 Q94.6493 632.223 96.4548 635.788 Q98.2835 639.329 101.895 639.329 Q105.529 639.329 107.334 635.788 Q109.163 632.223 109.163 625.116 Q109.163 617.987 107.334 614.445 Q105.529 610.88 101.895 610.88 M101.895 607.177 Q107.705 607.177 110.76 611.783 Q113.839 616.366 113.839 625.116 Q113.839 633.843 110.76 638.45 Q107.705 643.033 101.895 643.033 Q96.0845 643.033 93.0058 638.45 Q89.9503 633.843 89.9503 625.116 Q89.9503 616.366 93.0058 611.783 Q96.0845 607.177 101.895 607.177 Z" fill="#000000" fill-rule="nonzero" fill-opacity="1" /><path clip-path="url(#clip480)" d="M122.057 636.482 L126.941 636.482 L126.941 642.362 L122.057 642.362 L122.057 636.482 Z" fill="#000000" fill-rule="nonzero" fill-opacity="1" /><path clip-path="url(#clip480)" d="M151.293 623.727 Q154.649 624.445 156.524 626.714 Q158.422 628.982 158.422 632.315 Q158.422 637.431 154.904 640.232 Q151.385 643.033 144.904 643.033 Q142.728 643.033 140.413 642.593 Q138.121 642.176 135.668 641.32 L135.668 636.806 Q137.612 637.94 139.927 638.519 Q142.242 639.098 144.765 639.098 Q149.163 639.098 151.455 637.362 Q153.769 635.626 153.769 632.315 Q153.769 629.26 151.617 627.547 Q149.487 625.811 145.668 625.811 L141.64 625.811 L141.64 621.968 L145.853 621.968 Q149.302 621.968 151.13 620.602 Q152.959 619.214 152.959 616.621 Q152.959 613.959 151.061 612.547 Q149.186 611.112 145.668 611.112 Q143.746 611.112 141.547 611.528 Q139.348 611.945 136.709 612.825 L136.709 608.658 Q139.371 607.917 141.686 607.547 Q144.024 607.177 146.084 607.177 Q151.408 607.177 154.51 609.607 Q157.612 612.015 157.612 616.135 Q157.612 619.005 155.968 620.996 Q154.325 622.964 151.293 623.727 Z" fill="#000000" fill-rule="nonzero" fill-opacity="1" /><path clip-path="url(#clip480)" d="M53.0754 422.171 L82.7512 422.171 L82.7512 426.106 L53.0754 426.106 L53.0754 422.171 Z" fill="#000000" fill-rule="nonzero" fill-opacity="1" /><path clip-path="url(#clip480)" d="M102.844 407.518 Q99.2326 407.518 97.4039 411.083 Q95.5984 414.624 95.5984 421.754 Q95.5984 428.86 97.4039 432.425 Q99.2326 435.967 102.844 435.967 Q106.478 435.967 108.283 432.425 Q110.112 428.86 110.112 421.754 Q110.112 414.624 108.283 411.083 Q106.478 407.518 102.844 407.518 M102.844 403.814 Q108.654 403.814 111.709 408.421 Q114.788 413.004 114.788 421.754 Q114.788 430.481 111.709 435.087 Q108.654 439.67 102.844 439.67 Q97.0335 439.67 93.9549 435.087 Q90.8993 430.481 90.8993 421.754 Q90.8993 413.004 93.9549 408.421 Q97.0335 403.814 102.844 403.814 Z" fill="#000000" fill-rule="nonzero" fill-opacity="1" /><path clip-path="url(#clip480)" d="M123.006 433.12 L127.89 433.12 L127.89 438.999 L123.006 438.999 L123.006 433.12 Z" fill="#000000" fill-rule="nonzero" fill-opacity="1" /><path clip-path="url(#clip480)" d="M142.103 435.064 L158.422 435.064 L158.422 438.999 L136.478 438.999 L136.478 435.064 Q139.14 432.309 143.723 427.68 Q148.33 423.027 149.51 421.684 Q151.755 419.161 152.635 417.425 Q153.538 415.666 153.538 413.976 Q153.538 411.222 151.593 409.485 Q149.672 407.749 146.57 407.749 Q144.371 407.749 141.918 408.513 Q139.487 409.277 136.709 410.828 L136.709 406.106 Q139.533 404.972 141.987 404.393 Q144.441 403.814 146.478 403.814 Q151.848 403.814 155.042 406.499 Q158.237 409.185 158.237 413.675 Q158.237 415.805 157.427 417.726 Q156.64 419.624 154.533 422.217 Q153.955 422.888 150.853 426.106 Q147.751 429.3 142.103 435.064 Z" fill="#000000" fill-rule="nonzero" fill-opacity="1" /><path clip-path="url(#clip480)" d="M52.7051 218.808 L82.3808 218.808 L82.3808 222.743 L52.7051 222.743 L52.7051 218.808 Z" fill="#000000" fill-rule="nonzero" fill-opacity="1" /><path clip-path="url(#clip480)" d="M102.473 204.155 Q98.8622 204.155 97.0335 207.72 Q95.228 211.262 95.228 218.391 Q95.228 225.498 97.0335 229.063 Q98.8622 232.604 102.473 232.604 Q106.108 232.604 107.913 229.063 Q109.742 225.498 109.742 218.391 Q109.742 211.262 107.913 207.72 Q106.108 204.155 102.473 204.155 M102.473 200.452 Q108.283 200.452 111.339 205.058 Q114.418 209.642 114.418 218.391 Q114.418 227.118 111.339 231.725 Q108.283 236.308 102.473 236.308 Q96.6632 236.308 93.5845 231.725 Q90.529 227.118 90.529 218.391 Q90.529 209.642 93.5845 205.058 Q96.6632 200.452 102.473 200.452 Z" fill="#000000" fill-rule="nonzero" fill-opacity="1" /><path clip-path="url(#clip480)" d="M122.635 229.757 L127.519 229.757 L127.519 235.637 L122.635 235.637 L122.635 229.757 Z" fill="#000000" fill-rule="nonzero" fill-opacity="1" /><path clip-path="url(#clip480)" d="M138.515 231.702 L146.154 231.702 L146.154 205.336 L137.844 207.003 L137.844 202.743 L146.107 201.077 L150.783 201.077 L150.783 231.702 L158.422 231.702 L158.422 235.637 L138.515 235.637 L138.515 231.702 Z" fill="#000000" fill-rule="nonzero" fill-opacity="1" /><polyline clip-path="url(#clip482)" style="stroke:#009af9; stroke-linecap:round; stroke-linejoin:round; stroke-width:4; stroke-opacity:1; fill:none" points="194.422,1384.24 196.583,1371.31 198.743,1358.51 200.904,1345.84 203.064,1333.29 205.225,1320.87 207.385,1308.57 209.546,1296.39 211.706,1284.34 213.867,1272.4 216.027,1260.59 218.188,1248.89 220.348,1237.31 222.509,1225.84 224.669,1214.49 226.83,1203.25 228.99,1192.13 231.151,1181.11 233.311,1170.2 235.471,1159.41 237.632,1148.72 239.792,1138.13 241.953,1127.66 244.113,1117.28 246.274,1107.01 248.434,1096.84 250.595,1086.78 252.755,1076.81 254.916,1066.94 257.076,1057.17 259.237,1047.5 261.397,1037.93 263.558,1028.45 265.718,1019.06 267.879,1009.77 270.039,1000.57 272.2,991.461 274.36,982.444 276.521,973.516 278.681,964.678 280.842,955.927 283.002,947.264 285.163,938.687 287.323,930.195 289.484,921.788 291.644,913.465 293.805,905.225 295.965,897.066 298.126,888.99 300.286,880.993 302.447,873.076 304.607,865.238 306.768,857.478 308.928,849.796 311.089,842.19 313.249,834.659 315.41,827.204 317.57,819.823 319.731,812.515 321.891,805.28 324.052,798.118 326.212,791.026 328.373,784.005 330.533,777.055 332.694,770.173 334.854,763.36 337.015,756.614 339.175,749.936 341.336,743.324 343.496,736.778 345.657,730.298 347.817,723.881 349.978,717.529 352.138,711.24 354.299,705.013 356.459,698.849 358.62,692.746 360.78,686.704 362.941,680.722 365.101,674.799 367.262,668.936 369.422,663.131 371.583,657.384 373.743,651.694 375.904,646.061 378.064,640.484 380.225,634.963 382.385,629.496 384.546,624.084 386.706,618.726 388.867,613.422 391.027,608.17 393.188,602.971 395.348,597.823 397.509,592.727 399.669,587.681 401.83,582.686 403.99,577.74 406.151,572.844 408.311,567.997 410.472,563.197 412.632,558.446 414.793,553.742 416.953,549.084 419.114,544.473 421.274,539.908 423.435,535.389 425.595,530.914 427.755,526.484 429.916,522.098 432.076,517.755 434.237,513.456 436.397,509.2 438.558,504.986 440.718,500.814 442.879,496.683 445.039,492.593 447.2,488.545 449.36,484.536 451.521,480.568 453.681,476.639 455.842,472.749 458.002,468.898 460.163,465.085 462.323,461.31 464.484,457.573 466.644,453.873 468.805,450.21 470.965,446.584 473.126,442.993 475.286,439.439 477.447,435.92 479.607,432.436 481.768,428.987 483.928,425.572 486.089,422.191 488.249,418.844 490.41,415.53 492.57,412.25 494.731,409.002 496.891,405.786 499.052,402.602 501.212,399.451 503.373,396.33 505.533,393.241 507.694,390.182 509.854,387.154 512.015,384.156 514.175,381.188 516.336,378.249 518.496,375.34 520.657,372.46 522.817,369.608 524.978,366.785 527.138,363.989 529.299,361.222 531.459,358.482 533.62,355.77 535.78,353.084 537.941,350.425 540.101,347.793 542.262,345.186 544.422,342.606 546.583,340.051 548.743,337.522 550.904,335.018 553.064,332.538 555.225,330.084 557.385,327.653 559.546,325.247 561.706,322.865 563.867,320.507 566.027,318.172 568.188,315.861 570.348,313.572 572.509,311.306 574.669,309.063 576.83,306.842 578.99,304.644 581.151,302.467 583.311,300.312 585.472,298.178 587.632,296.066 589.793,293.975 591.953,291.905 594.114,289.855 596.274,287.826 598.435,285.817 600.595,283.828 602.756,281.859 604.916,279.91 607.077,277.98 609.237,276.069 611.398,274.178 613.558,272.305 615.718,270.451 617.879,268.615 620.039,266.798 622.2,264.999 624.36,263.217 626.521,261.454 628.681,259.708 630.842,257.979 633.002,256.268 635.163,254.574 637.323,252.896 639.484,251.236 641.644,249.591 643.805,247.964 645.965,246.352 648.126,244.756 650.286,243.177 652.447,241.612 654.607,240.064 656.768,238.531 658.928,237.013 661.089,235.51 663.249,234.022 665.41,232.549 667.57,231.091 669.731,229.647 671.891,228.217 674.052,226.802 676.212,225.401 678.373,224.013 680.533,222.639 682.694,221.279 684.854,219.933 687.015,218.6 689.175,217.28 691.336,215.973 693.496,214.68 695.657,213.399 697.817,212.131 699.978,210.875 702.138,209.633 704.299,208.402 706.459,207.184 708.62,205.978 710.78,204.784 712.941,203.602 715.101,202.432 717.262,201.273 719.422,200.126 721.583,198.991 723.743,197.866 725.904,196.753 728.064,195.651 730.225,194.561 732.385,193.481 734.546,192.411 736.706,191.353 738.867,190.305 741.027,189.267 743.188,188.24 745.348,187.223 747.509,186.217 749.669,185.22 751.83,184.233 753.99,183.256 756.151,182.289 758.311,181.332 760.472,180.384 762.632,179.445 764.793,178.516 766.953,177.596 769.114,176.686 771.274,175.784 773.435,174.891 775.595,174.007 777.756,173.132 779.916,172.266 782.077,171.408 784.237,170.559 786.398,169.718 788.558,168.886 790.719,168.062 792.879,167.246 795.04,166.438 797.2,165.638 799.361,164.847 801.521,164.063 803.681,163.286 805.842,162.518 808.002,161.757 810.163,161.004 812.323,160.258 814.484,159.519 816.644,158.788 818.805,158.064 820.965,157.347 823.126,156.638 825.286,155.935 827.447,155.239 829.607,154.551 831.768,153.869 833.928,153.194 836.089,152.526 838.249,151.864 840.41,151.209 842.57,150.56 844.731,149.918 846.891,149.283 849.052,148.653 851.212,148.03 853.373,147.413 855.533,146.803 857.694,146.198 859.854,145.6 862.015,145.007 864.175,144.421 866.336,143.84 868.496,143.265 870.657,142.696 872.817,142.132 874.978,141.575 877.138,141.022 879.299,140.476 881.459,139.934 883.62,139.398 885.78,138.868 887.941,138.343 890.101,137.823 892.262,137.308 894.422,136.798 896.583,136.294 898.743,135.794 900.904,135.3 903.064,134.81 905.225,134.326 907.385,133.846 909.546,133.371 911.706,132.901 913.867,132.435 916.027,131.974 918.188,131.518 920.348,131.066 922.509,130.618 924.669,130.175 926.83,129.737 928.99,129.303 931.151,128.873 933.311,128.448 935.472,128.026 937.632,127.609 939.793,127.196 941.953,126.787 944.114,126.383 946.274,125.982 948.435,125.585 950.595,125.192 952.756,124.803 954.916,124.418 957.077,124.036 959.237,123.659 961.398,123.285 963.558,122.915 965.719,122.548 967.879,122.185 970.04,121.826 972.2,121.47 974.361,121.118 976.521,120.77 978.682,120.424 980.842,120.082 983.003,119.744 985.163,119.409 987.324,119.077 989.484,118.749 991.645,118.424 993.805,118.102 995.965,117.783 998.126,117.467 1000.29,117.155 1002.45,116.846 1004.61,116.54 1006.77,116.237 1008.93,115.936 1011.09,115.639 1013.25,115.345 1015.41,115.054 1017.57,114.766 1019.73,114.48 1021.89,114.198 1024.05,113.918 1026.21,113.641 1028.37,113.367 1030.53,113.096 1032.69,112.827 1034.85,112.561 1037.01,112.298 1039.18,112.037 1041.34,111.779 1043.5,111.524 1045.66,111.271 1047.82,111.02 1049.98,110.773 1052.14,110.527 1054.3,110.284 1056.46,110.044 1058.62,109.806 1060.78,109.57 1062.94,109.337 1065.1,109.106 1067.26,108.877 1069.42,108.65 1071.58,108.426 1073.74,108.204 1075.9,107.985 1078.06,107.767 1080.22,107.552 1082.39,107.339 1084.55,107.127 1086.71,106.919 1088.87,106.712 1091.03,106.507 1093.19,106.304 1095.35,106.103 1097.51,105.904 1099.67,105.708 1101.83,105.513 1103.99,105.32 1106.15,105.129 1108.31,104.94 1110.47,104.752 1112.63,104.567 1114.79,104.384 1116.95,104.202 1119.11,104.022 1121.27,103.844 1123.43,103.667 1125.6,103.493 1127.76,103.32 1129.92,103.148 1132.08,102.979 1134.24,102.811 1136.4,102.645 1138.56,102.48 1140.72,102.317 1142.88,102.156 1145.04,101.996 1147.2,101.838 1149.36,101.681 1151.52,101.526 1153.68,101.372 1155.84,101.22 1158,101.07 1160.16,100.921 1162.32,100.773 1164.48,100.627 1166.64,100.483 1168.81,100.34 1170.97,100.198 1173.13,100.058 1175.29,99.9186 1177.45,99.7811 1179.61,99.645 1181.77,99.5102 1183.93,99.3768 1186.09,99.2447 1188.25,99.1139 1190.41,98.9845 1192.57,98.8563 1194.73,98.7294 1196.89,98.6038 1199.05,98.4795 1201.21,98.3564 1203.37,98.2345 1205.53,98.1139 1207.69,97.9945 1209.85,97.8762 1212.01,97.7592 1214.18,97.6433 1216.34,97.5286 1218.5,97.4151 1220.66,97.3027 1222.82,97.1914 1224.98,97.0812 1227.14,96.9722 1229.3,96.8642 1231.46,96.7573 1233.62,96.6515 1235.78,96.5468 1237.94,96.4431 1240.1,96.3404 1242.26,96.2388 1244.42,96.1382 1246.58,96.0386 1248.74,95.94 1250.9,95.8424 1253.06,95.7457 1255.22,95.6501 1257.39,95.5553 1259.55,95.4616 1261.71,95.3687 1263.87,95.2768 1266.03,95.1858 1268.19,95.0957 1270.35,95.0065 1272.51,94.9182 1274.67,94.8308 1276.83,94.7442 1278.99,94.6585 1281.15,94.5737 1283.31,94.4897 1285.47,94.4065 1287.63,94.3241 1289.79,94.2426 1291.95,94.1618 1294.11,94.0819 1296.27,94.0027 1298.43,93.9243 1300.6,93.8467 1302.76,93.7699 1304.92,93.6938 1307.08,93.6184 1309.24,93.5438 1311.4,93.4699 1313.56,93.3968 1315.72,93.3243 1317.88,93.2526 1320.04,93.1816 1322.2,93.1113 1324.36,93.0417 1326.52,92.9727 1328.68,92.9045 1330.84,92.8369 1333,92.77 1335.16,92.7037 1337.32,92.6382 1339.48,92.5732 1341.64,92.5089 1343.81,92.4453 1345.97,92.3823 1348.13,92.3199 1350.29,92.2581 1352.45,92.1969 1354.61,92.1364 1356.77,92.0765 1358.93,92.0171 1361.09,91.9584 1363.25,91.9002 1365.41,91.8427 1367.57,91.7857 1369.73,91.7292 1371.89,91.6734 1374.05,91.6181 1376.21,91.5633 1378.37,91.5091 1380.53,91.4555 1382.69,91.4024 1384.85,91.3498 1387.01,91.2977 1389.18,91.2462 1391.34,91.1952 1393.5,91.1447 1395.66,91.0947 1397.82,91.0452 1399.98,90.9962 1402.14,90.9477 1404.3,90.8997 1406.46,90.8522 1408.62,90.8051 1410.78,90.7585 1412.94,90.7124 1415.1,90.6668 1417.26,90.6216 1419.42,90.5769 1421.58,90.5326 1423.74,90.4887 1425.9,90.4453 1428.06,90.4024 1430.22,90.3598 1432.39,90.3177 1434.55,90.276 1436.71,90.2348 1438.87,90.1939 1441.03,90.1535 1443.19,90.1134 1445.35,90.0738 1447.51,90.0345 1449.67,89.9957 1451.83,89.9572 1453.99,89.9191 1456.15,89.8814 1458.31,89.8441 1460.47,89.8071 1462.63,89.7705 1464.79,89.7343 1466.95,89.6984 1469.11,89.6629 1471.27,89.6278 1473.43,89.593 1475.6,89.5585 1477.76,89.5243 1479.92,89.4906 1482.08,89.4571 1484.24,89.424 1486.4,89.3911 1488.56,89.3587 1490.72,89.3265 1492.88,89.2946 1495.04,89.2631 1497.2,89.2318 1499.36,89.2009 1501.52,89.1703 1503.68,89.1399 1505.84,89.1099 1508,89.0802 1510.16,89.0507 1512.32,89.0215 1514.48,88.9927 1516.64,88.9641 1518.81,88.9358 1520.97,88.9077 1523.13,88.88 1525.29,88.8525 1527.45,88.8253 1529.61,88.7983 1531.77,88.7717 1533.93,88.7453 1536.09,88.7191 1538.25,88.6932 1540.41,88.6676 1542.57,88.6422 1544.73,88.6171 1546.89,88.5922 1549.05,88.5676 1551.21,88.5432 1553.37,88.5191 1555.53,88.4952 1557.69,88.4716 1559.85,88.4481 1562.01,88.425 1564.18,88.402 1566.34,88.3793 1568.5,88.3568 1570.66,88.3346 1572.82,88.3125 1574.98,88.2907 1577.14,88.2691 1579.3,88.2478 1581.46,88.2266 1583.62,88.2057 1585.78,88.1849 1587.94,88.1644 1590.1,88.1441 1592.26,88.124 1594.42,88.1041 1596.58,88.0844 1598.74,88.0649 1600.9,88.0455 1603.06,88.0264 1605.22,88.0075 1607.39,87.9888 1609.55,87.9702 1611.71,87.9519 1613.87,87.9337 1616.03,87.9158 1618.19,87.898 1620.35,87.8803 1622.51,87.8629 1624.67,87.8456 1626.83,87.8285 1628.99,87.8116 1631.15,87.7949 1633.31,87.7783 1635.47,87.7619 1637.63,87.7456 1639.79,87.7296 1641.95,87.7136 1644.11,87.6979 1646.27,87.6823 1648.43,87.6668 1650.6,87.6516 1652.76,87.6364 1654.92,87.6214 1657.08,87.6066 1659.24,87.5919 1661.4,87.5774 1663.56,87.563 1665.72,87.5487 1667.88,87.5346 1670.04,87.5207 1672.2,87.5068 1674.36,87.4931 1676.52,87.4796 1678.68,87.4661 1680.84,87.4528 1683,87.4397 1685.16,87.4266 1687.32,87.4137 1689.48,87.401 1691.64,87.3883 1693.81,87.3758 1695.97,87.3634 1698.13,87.3511 1700.29,87.3389 1702.45,87.3268 1704.61,87.3149 1706.77,87.3031 1708.93,87.2913 1711.09,87.2797 1713.25,87.2683 1715.41,87.2569 1717.57,87.2456 1719.73,87.2344 1721.89,87.2234 1724.05,87.2124 1726.21,87.2016 1728.37,87.1908 1730.53,87.1802 1732.69,87.1697 1734.85,87.1593 1737.02,87.1489 1739.18,87.1387 1741.34,87.1286 1743.5,87.1186 1745.66,87.1086 1747.82,87.0988 1749.98,87.0891 1752.14,87.0794 1754.3,87.0699 1756.46,87.0605 1758.62,87.0511 1760.78,87.0419 1762.94,87.0327 1765.1,87.0236 1767.26,87.0146 1769.42,87.0057 1771.58,86.9969 1773.74,86.9882 1775.9,86.9796 1778.06,86.971 1780.22,86.9626 1782.39,86.9542 1784.55,86.9459 1786.71,86.9377 1788.87,86.9296 1791.03,86.9216 1793.19,86.9136 1795.35,86.9057 1797.51,86.898 1799.67,86.8902 1801.83,86.8826 1803.99,86.875 1806.15,86.8676 1808.31,86.8602 1810.47,86.8528 1812.63,86.8456 1814.79,86.8384 1816.95,86.8313 1819.11,86.8243 1821.27,86.8173 1823.43,86.8104 1825.6,86.8036 1827.76,86.7968 1829.92,86.7902 1832.08,86.7836 1834.24,86.777 1836.4,86.7705 1838.56,86.7641 1840.72,86.7578 1842.88,86.7515 1845.04,86.7453 1847.2,86.7391 1849.36,86.7331 1851.52,86.727 1853.68,86.7211 1855.84,86.7152 1858,86.7093 1860.16,86.7035 1862.32,86.6978 1864.48,86.6922 1866.64,86.6866 1868.81,86.681 1870.97,86.6755 1873.13,86.6701 1875.29,86.6647 1877.45,86.6594 1879.61,86.6541 1881.77,86.6489 1883.93,86.6437 1886.09,86.6386 1888.25,86.6336 1890.41,86.6285 1892.57,86.6236 1894.73,86.6187 1896.89,86.6138 1899.05,86.609 1901.21,86.6042 1903.37,86.5995 1905.53,86.5949 1907.69,86.5902 1909.85,86.5857 1912.02,86.5811 1914.18,86.5766 1916.34,86.5722 1918.5,86.5678 1920.66,86.5634 1922.82,86.5591 1924.98,86.5549 1927.14,86.5506 1929.3,86.5464 1931.46,86.5423 1933.62,86.5382 1935.78,86.5341 1937.94,86.5301 1940.1,86.5261 1942.26,86.5221 1944.42,86.5182 1946.58,86.5143 1948.74,86.5104 1950.9,86.5066 1953.06,86.5028 1955.22,86.4991 1957.39,86.4954 1959.55,86.4917 1961.71,86.488 1963.87,86.4844 1966.03,86.4809 1968.19,86.4773 1970.35,86.4738 1972.51,86.4703 1974.67,86.4669 1976.83,86.4635 1978.99,86.4601 1981.15,86.4568 1983.31,86.4534 1985.47,86.4502 1987.63,86.4469 1989.79,86.4437 1991.95,86.4405 1994.11,86.4374 1996.27,86.4342 1998.43,86.4311 2000.6,86.4281 2002.76,86.425 2004.92,86.422 2007.08,86.4191 2009.24,86.4161 2011.4,86.4132 2013.56,86.4103 2015.72,86.4075 2017.88,86.4046 2020.04,86.4018 2022.2,86.3991 2024.36,86.3963 2026.52,86.3936 2028.68,86.3909 2030.84,86.3882 2033,86.3856 2035.16,86.383 2037.32,86.3804 2039.48,86.3779 2041.64,86.3753 2043.81,86.3728 2045.97,86.3704 2048.13,86.3679 2050.29,86.3655 2052.45,86.3631 2054.61,86.3607 2056.77,86.3583 2058.93,86.356 2061.09,86.3537 2063.25,86.3514 2065.41,86.3492 2067.57,86.3469 2069.73,86.3447 2071.89,86.3425 2074.05,86.3404 2076.21,86.3382 2078.37,86.3361 2080.53,86.334 2082.69,86.3319 2084.85,86.3299 2087.02,86.3279 2089.18,86.3259 2091.34,86.3239 2093.5,86.3219 2095.66,86.32 2097.82,86.318 2099.98,86.3161 2102.14,86.3142 2104.3,86.3124 2106.46,86.3105 2108.62,86.3087 2110.78,86.3069 2112.94,86.3051 2115.1,86.3033 2117.26,86.3016 2119.42,86.2998 2121.58,86.2981 2123.74,86.2964 2125.9,86.2948 2128.06,86.2931 2130.22,86.2915 2132.39,86.2898 2134.55,86.2882 2136.71,86.2866 2138.87,86.2851 2141.03,86.2835 2143.19,86.282 2145.35,86.2804 2147.51,86.2789 2149.67,86.2774 2151.83,86.2759 2153.99,86.2745 2156.15,86.273 2158.31,86.2716 2160.47,86.2702 2162.63,86.2688 2164.79,86.2674 2166.95,86.266 2169.11,86.2646 2171.27,86.2633 2173.43,86.262 2175.6,86.2606 2177.76,86.2593 2179.92,86.258 2182.08,86.2567 2184.24,86.2555 2186.4,86.2542 2188.56,86.253 2190.72,86.2517 2192.88,86.2505 2195.04,86.2493 2197.2,86.2481 2199.36,86.2469 2201.52,86.2457 2203.68,86.2446 2205.84,86.2434 2208,86.2423 2210.16,86.2411 2212.32,86.24 2214.48,86.2389 2216.64,86.2378 2218.81,86.2367 2220.97,86.2356 2223.13,86.2345 2225.29,86.2334 2227.45,86.2324 2229.61,86.2313 2231.77,86.2303 2233.93,86.2292 2236.09,86.2282 2238.25,86.2272 2240.41,86.2262 2242.57,86.2252 2244.73,86.2242 2246.89,86.2232 2249.05,86.2223 2251.21,86.2213 2253.37,86.2204 2255.53,86.2194 2257.69,86.2185 2259.85,86.2176 2262.02,86.2167 2264.18,86.2158 2266.34,86.2149 2268.5,86.214 2270.66,86.2131 2272.82,86.2123 2274.98,86.2114 2277.14,86.2106 2279.3,86.2097 2281.46,86.2089 2283.62,86.2081 2285.78,86.2073 2287.94,86.2065 2290.1,86.2057 2292.26,86.2049 2294.42,86.2041 2296.58,86.2033 2298.74,86.2025 2300.9,86.2018 2303.06,86.201 2305.23,86.2003 2307.39,86.1996 2309.55,86.1988 2311.71,86.1981 2313.87,86.1974 2316.03,86.1967 2318.19,86.196 2320.35,86.1953 2322.51,86.1946 2324.67,86.1939 2326.83,86.1932 2328.99,86.1926 2331.15,86.1919 2333.31,86.1913 2335.47,86.1906 2337.63,86.19 2339.79,86.1893 2341.95,86.1887 2344.11,86.1881 2346.27,86.1875 2348.43,86.1869 2350.6,86.1863 2352.76,86.1857 "/>
<polyline clip-path="url(#clip482)" style="stroke:#e26f46; stroke-linecap:round; stroke-linejoin:round; stroke-width:4; stroke-opacity:1; fill:none" points="194.422,693.314 196.583,692.445 198.743,691.554 200.904,690.641 203.064,689.706 205.225,688.751 207.385,687.774 209.546,686.777 211.706,685.76 213.867,684.724 216.027,683.668 218.188,682.593 220.348,681.5 222.509,680.389 224.669,679.26 226.83,678.113 228.99,676.95 231.151,675.769 233.311,674.572 235.471,673.359 237.632,672.131 239.792,670.887 241.953,669.628 244.113,668.354 246.274,667.065 248.434,665.763 250.595,664.446 252.755,663.116 254.916,661.773 257.076,660.416 259.237,659.047 261.397,657.666 263.558,656.272 265.718,654.867 267.879,653.45 270.039,652.022 272.2,650.583 274.36,649.132 276.521,647.672 278.681,646.201 280.842,644.72 283.002,643.229 285.163,641.729 287.323,640.219 289.484,638.7 291.644,637.173 293.805,635.636 295.965,634.092 298.126,632.539 300.286,630.979 302.447,629.41 304.607,627.834 306.768,626.251 308.928,624.661 311.089,623.064 313.249,621.461 315.41,619.85 317.57,618.234 319.731,616.612 321.891,614.983 324.052,613.35 326.212,611.71 328.373,610.065 330.533,608.416 332.694,606.761 334.854,605.101 337.015,603.437 339.175,601.769 341.336,600.096 343.496,598.42 345.657,596.739 347.817,595.055 349.978,593.367 352.138,591.675 354.299,589.981 356.459,588.283 358.62,586.582 360.78,584.879 362.941,583.172 365.101,581.464 367.262,579.752 369.422,578.039 371.583,576.323 373.743,574.606 375.904,572.886 378.064,571.165 380.225,569.442 382.385,567.718 384.546,565.992 386.706,564.265 388.867,562.538 391.027,560.809 393.188,559.079 395.348,557.348 397.509,555.617 399.669,553.886 401.83,552.154 403.99,550.422 406.151,548.689 408.311,546.957 410.472,545.224 412.632,543.492 414.793,541.76 416.953,540.028 419.114,538.297 421.274,536.567 423.435,534.836 425.595,533.107 427.755,531.379 429.916,529.651 432.076,527.925 434.237,526.199 436.397,524.475 438.558,522.752 440.718,521.031 442.879,519.31 445.039,517.592 447.2,515.875 449.36,514.159 451.521,512.446 453.681,510.734 455.842,509.024 458.002,507.316 460.163,505.61 462.323,503.906 464.484,502.204 466.644,500.504 468.805,498.807 470.965,497.112 473.126,495.419 475.286,493.729 477.447,492.042 479.607,490.357 481.768,488.674 483.928,486.995 486.089,485.318 488.249,483.644 490.41,481.972 492.57,480.304 494.731,478.639 496.891,476.977 499.052,475.317 501.212,473.661 503.373,472.009 505.533,470.359 507.694,468.713 509.854,467.07 512.015,465.43 514.175,463.794 516.336,462.161 518.496,460.532 520.657,458.907 522.817,457.285 524.978,455.666 527.138,454.052 529.299,452.441 531.459,450.834 533.62,449.23 535.78,447.631 537.941,446.035 540.101,444.443 542.262,442.855 544.422,441.272 546.583,439.692 548.743,438.116 550.904,436.544 553.064,434.977 555.225,433.413 557.385,431.854 559.546,430.298 561.706,428.747 563.867,427.201 566.027,425.658 568.188,424.12 570.348,422.586 572.509,421.056 574.669,419.53 576.83,418.009 578.99,416.493 581.151,414.98 583.311,413.472 585.472,411.969 587.632,410.47 589.793,408.975 591.953,407.485 594.114,405.999 596.274,404.518 598.435,403.042 600.595,401.57 602.756,400.102 604.916,398.639 607.077,397.181 609.237,395.727 611.398,394.278 613.558,392.834 615.718,391.394 617.879,389.959 620.039,388.528 622.2,387.102 624.36,385.681 626.521,384.265 628.681,382.853 630.842,381.446 633.002,380.044 635.163,378.646 637.323,377.254 639.484,375.866 641.644,374.483 643.805,373.104 645.965,371.731 648.126,370.362 650.286,368.998 652.447,367.639 654.607,366.284 656.768,364.935 658.928,363.59 661.089,362.25 663.249,360.915 665.41,359.585 667.57,358.26 669.731,356.939 671.891,355.624 674.052,354.313 676.212,353.007 678.373,351.706 680.533,350.41 682.694,349.118 684.854,347.832 687.015,346.55 689.175,345.273 691.336,344.001 693.496,342.734 695.657,341.471 697.817,340.214 699.978,338.961 702.138,337.713 704.299,336.47 706.459,335.232 708.62,333.998 710.78,332.769 712.941,331.546 715.101,330.326 717.262,329.112 719.422,327.903 721.583,326.698 723.743,325.498 725.904,324.303 728.064,323.112 730.225,321.927 732.385,320.746 734.546,319.57 736.706,318.399 738.867,317.232 741.027,316.07 743.188,314.913 745.348,313.761 747.509,312.613 749.669,311.47 751.83,310.332 753.99,309.198 756.151,308.069 758.311,306.945 760.472,305.826 762.632,304.711 764.793,303.601 766.953,302.496 769.114,301.395 771.274,300.299 773.435,299.207 775.595,298.12 777.756,297.038 779.916,295.96 782.077,294.888 784.237,293.819 786.398,292.755 788.558,291.696 790.719,290.641 792.879,289.591 795.04,288.546 797.2,287.505 799.361,286.469 801.521,285.437 803.681,284.409 805.842,283.386 808.002,282.368 810.163,281.354 812.323,280.345 814.484,279.34 816.644,278.339 818.805,277.343 820.965,276.352 823.126,275.365 825.286,274.382 827.447,273.404 829.607,272.43 831.768,271.46 833.928,270.495 836.089,269.534 838.249,268.577 840.41,267.625 842.57,266.677 844.731,265.733 846.891,264.794 849.052,263.859 851.212,262.928 853.373,262.001 855.533,261.079 857.694,260.161 859.854,259.247 862.015,258.337 864.175,257.431 866.336,256.53 868.496,255.632 870.657,254.739 872.817,253.85 874.978,252.965 877.138,252.084 879.299,251.208 881.459,250.335 883.62,249.466 885.78,248.602 887.941,247.741 890.101,246.885 892.262,246.032 894.422,245.184 896.583,244.339 898.743,243.499 900.904,242.662 903.064,241.83 905.225,241.001 907.385,240.176 909.546,239.355 911.706,238.539 913.867,237.725 916.027,236.916 918.188,236.111 920.348,235.31 922.509,234.512 924.669,233.718 926.83,232.928 928.99,232.142 931.151,231.36 933.311,230.581 935.472,229.806 937.632,229.035 939.793,228.267 941.953,227.504 944.114,226.744 946.274,225.988 948.435,225.235 950.595,224.486 952.756,223.741 954.916,222.999 957.077,222.261 959.237,221.527 961.398,220.796 963.558,220.069 965.719,219.345 967.879,218.625 970.04,217.909 972.2,217.196 974.361,216.486 976.521,215.78 978.682,215.078 980.842,214.379 983.003,213.683 985.163,212.991 987.324,212.303 989.484,211.617 991.645,210.936 993.805,210.257 995.965,209.582 998.126,208.91 1000.29,208.242 1002.45,207.577 1004.61,206.915 1006.77,206.257 1008.93,205.602 1011.09,204.95 1013.25,204.301 1015.41,203.656 1017.57,203.014 1019.73,202.375 1021.89,201.74 1024.05,201.107 1026.21,200.478 1028.37,199.852 1030.53,199.229 1032.69,198.609 1034.85,197.993 1037.01,197.379 1039.18,196.769 1041.34,196.161 1043.5,195.557 1045.66,194.956 1047.82,194.358 1049.98,193.763 1052.14,193.171 1054.3,192.582 1056.46,191.996 1058.62,191.413 1060.78,190.833 1062.94,190.256 1065.1,189.682 1067.26,189.111 1069.42,188.542 1071.58,187.977 1073.74,187.415 1075.9,186.855 1078.06,186.298 1080.22,185.745 1082.39,185.194 1084.55,184.646 1086.71,184.1 1088.87,183.558 1091.03,183.018 1093.19,182.482 1095.35,181.948 1097.51,181.416 1099.67,180.888 1101.83,180.362 1103.99,179.839 1106.15,179.319 1108.31,178.801 1110.47,178.286 1112.63,177.774 1114.79,177.265 1116.95,176.758 1119.11,176.253 1121.27,175.752 1123.43,175.253 1125.6,174.757 1127.76,174.263 1129.92,173.772 1132.08,173.283 1134.24,172.797 1136.4,172.314 1138.56,171.833 1140.72,171.355 1142.88,170.879 1145.04,170.406 1147.2,169.935 1149.36,169.467 1151.52,169.001 1153.68,168.537 1155.84,168.076 1158,167.618 1160.16,167.162 1162.32,166.708 1164.48,166.257 1166.64,165.808 1168.81,165.361 1170.97,164.917 1173.13,164.476 1175.29,164.036 1177.45,163.599 1179.61,163.164 1181.77,162.732 1183.93,162.302 1186.09,161.874 1188.25,161.448 1190.41,161.025 1192.57,160.604 1194.73,160.185 1196.89,159.768 1199.05,159.354 1201.21,158.942 1203.37,158.532 1205.53,158.124 1207.69,157.719 1209.85,157.315 1212.01,156.914 1214.18,156.515 1216.34,156.118 1218.5,155.723 1220.66,155.331 1222.82,154.94 1224.98,154.552 1227.14,154.165 1229.3,153.781 1231.46,153.399 1233.62,153.018 1235.78,152.64 1237.94,152.264 1240.1,151.89 1242.26,151.518 1244.42,151.148 1246.58,150.78 1248.74,150.414 1250.9,150.05 1253.06,149.688 1255.22,149.328 1257.39,148.97 1259.55,148.613 1261.71,148.259 1263.87,147.907 1266.03,147.556 1268.19,147.208 1270.35,146.861 1272.51,146.516 1274.67,146.173 1276.83,145.832 1278.99,145.493 1281.15,145.156 1283.31,144.82 1285.47,144.486 1287.63,144.155 1289.79,143.825 1291.95,143.496 1294.11,143.17 1296.27,142.845 1298.43,142.522 1300.6,142.201 1302.76,141.882 1304.92,141.564 1307.08,141.248 1309.24,140.934 1311.4,140.622 1313.56,140.311 1315.72,140.002 1317.88,139.695 1320.04,139.39 1322.2,139.086 1324.36,138.783 1326.52,138.483 1328.68,138.184 1330.84,137.887 1333,137.591 1335.16,137.297 1337.32,137.005 1339.48,136.714 1341.64,136.425 1343.81,136.137 1345.97,135.851 1348.13,135.567 1350.29,135.284 1352.45,135.003 1354.61,134.723 1356.77,134.445 1358.93,134.168 1361.09,133.893 1363.25,133.619 1365.41,133.347 1367.57,133.077 1369.73,132.808 1371.89,132.54 1374.05,132.274 1376.21,132.009 1378.37,131.746 1380.53,131.485 1382.69,131.224 1384.85,130.966 1387.01,130.708 1389.18,130.452 1391.34,130.198 1393.5,129.945 1395.66,129.693 1397.82,129.443 1399.98,129.194 1402.14,128.946 1404.3,128.7 1406.46,128.455 1408.62,128.212 1410.78,127.97 1412.94,127.729 1415.1,127.49 1417.26,127.252 1419.42,127.015 1421.58,126.78 1423.74,126.546 1425.9,126.313 1428.06,126.082 1430.22,125.852 1432.39,125.623 1434.55,125.395 1436.71,125.169 1438.87,124.944 1441.03,124.72 1443.19,124.498 1445.35,124.276 1447.51,124.056 1449.67,123.837 1451.83,123.62 1453.99,123.403 1456.15,123.188 1458.31,122.974 1460.47,122.762 1462.63,122.55 1464.79,122.34 1466.95,122.131 1469.11,121.923 1471.27,121.716 1473.43,121.51 1475.6,121.306 1477.76,121.102 1479.92,120.9 1482.08,120.699 1484.24,120.499 1486.4,120.3 1488.56,120.103 1490.72,119.906 1492.88,119.711 1495.04,119.516 1497.2,119.323 1499.36,119.131 1501.52,118.94 1503.68,118.75 1505.84,118.561 1508,118.373 1510.16,118.186 1512.32,118 1514.48,117.816 1516.64,117.632 1518.81,117.449 1520.97,117.268 1523.13,117.087 1525.29,116.908 1527.45,116.729 1529.61,116.552 1531.77,116.375 1533.93,116.2 1536.09,116.025 1538.25,115.852 1540.41,115.679 1542.57,115.508 1544.73,115.337 1546.89,115.167 1549.05,114.999 1551.21,114.831 1553.37,114.664 1555.53,114.499 1557.69,114.334 1559.85,114.17 1562.01,114.007 1564.18,113.845 1566.34,113.684 1568.5,113.524 1570.66,113.364 1572.82,113.206 1574.98,113.048 1577.14,112.892 1579.3,112.736 1581.46,112.581 1583.62,112.427 1585.78,112.274 1587.94,112.122 1590.1,111.971 1592.26,111.82 1594.42,111.671 1596.58,111.522 1598.74,111.374 1600.9,111.227 1603.06,111.081 1605.22,110.935 1607.39,110.791 1609.55,110.647 1611.71,110.504 1613.87,110.362 1616.03,110.221 1618.19,110.081 1620.35,109.941 1622.51,109.802 1624.67,109.664 1626.83,109.527 1628.99,109.39 1631.15,109.254 1633.31,109.12 1635.47,108.985 1637.63,108.852 1639.79,108.719 1641.95,108.587 1644.11,108.456 1646.27,108.326 1648.43,108.196 1650.6,108.068 1652.76,107.939 1654.92,107.812 1657.08,107.685 1659.24,107.559 1661.4,107.434 1663.56,107.31 1665.72,107.186 1667.88,107.063 1670.04,106.94 1672.2,106.819 1674.36,106.698 1676.52,106.578 1678.68,106.458 1680.84,106.339 1683,106.221 1685.16,106.103 1687.32,105.986 1689.48,105.87 1691.64,105.755 1693.81,105.64 1695.97,105.526 1698.13,105.412 1700.29,105.299 1702.45,105.187 1704.61,105.075 1706.77,104.965 1708.93,104.854 1711.09,104.745 1713.25,104.636 1715.41,104.527 1717.57,104.419 1719.73,104.312 1721.89,104.206 1724.05,104.1 1726.21,103.994 1728.37,103.89 1730.53,103.786 1732.69,103.682 1734.85,103.579 1737.02,103.477 1739.18,103.375 1741.34,103.274 1743.5,103.173 1745.66,103.073 1747.82,102.974 1749.98,102.875 1752.14,102.777 1754.3,102.679 1756.46,102.582 1758.62,102.486 1760.78,102.39 1762.94,102.294 1765.1,102.199 1767.26,102.105 1769.42,102.011 1771.58,101.918 1773.74,101.825 1775.9,101.733 1778.06,101.641 1780.22,101.55 1782.39,101.46 1784.55,101.37 1786.71,101.28 1788.87,101.191 1791.03,101.103 1793.19,101.015 1795.35,100.927 1797.51,100.84 1799.67,100.754 1801.83,100.668 1803.99,100.582 1806.15,100.497 1808.31,100.413 1810.47,100.329 1812.63,100.245 1814.79,100.162 1816.95,100.08 1819.11,99.9977 1821.27,99.9161 1823.43,99.835 1825.6,99.7544 1827.76,99.6743 1829.92,99.5946 1832.08,99.5153 1834.24,99.4366 1836.4,99.3583 1838.56,99.2804 1840.72,99.203 1842.88,99.1261 1845.04,99.0496 1847.2,98.9735 1849.36,98.8979 1851.52,98.8227 1853.68,98.748 1855.84,98.6737 1858,98.5998 1860.16,98.5264 1862.32,98.4534 1864.48,98.3808 1866.64,98.3086 1868.81,98.2369 1870.97,98.1655 1873.13,98.0946 1875.29,98.0241 1877.45,97.9541 1879.61,97.8844 1881.77,97.8151 1883.93,97.7462 1886.09,97.6778 1888.25,97.6097 1890.41,97.542 1892.57,97.4747 1894.73,97.4079 1896.89,97.3414 1899.05,97.2753 1901.21,97.2095 1903.37,97.1442 1905.53,97.0792 1907.69,97.0146 1909.85,96.9504 1912.02,96.8866 1914.18,96.8232 1916.34,96.7601 1918.5,96.6973 1920.66,96.635 1922.82,96.573 1924.98,96.5114 1927.14,96.4501 1929.3,96.3892 1931.46,96.3286 1933.62,96.2684 1935.78,96.2086 1937.94,96.1491 1940.1,96.0899 1942.26,96.0311 1944.42,95.9726 1946.58,95.9145 1948.74,95.8567 1950.9,95.7993 1953.06,95.7422 1955.22,95.6854 1957.39,95.629 1959.55,95.5728 1961.71,95.517 1963.87,95.4616 1966.03,95.4064 1968.19,95.3516 1970.35,95.2971 1972.51,95.2429 1974.67,95.189 1976.83,95.1355 1978.99,95.0822 1981.15,95.0293 1983.31,94.9767 1985.47,94.9244 1987.63,94.8724 1989.79,94.8207 1991.95,94.7693 1994.11,94.7181 1996.27,94.6673 1998.43,94.6168 2000.6,94.5666 2002.76,94.5167 2004.92,94.4671 2007.08,94.4177 2009.24,94.3687 2011.4,94.3199 2013.56,94.2715 2015.72,94.2233 2017.88,94.1754 2020.04,94.1278 2022.2,94.0804 2024.36,94.0333 2026.52,93.9866 2028.68,93.94 2030.84,93.8938 2033,93.8478 2035.16,93.8021 2037.32,93.7567 2039.48,93.7115 2041.64,93.6666 2043.81,93.622 2045.97,93.5776 2048.13,93.5335 2050.29,93.4897 2052.45,93.4461 2054.61,93.4028 2056.77,93.3597 2058.93,93.3169 2061.09,93.2743 2063.25,93.232 2065.41,93.1899 2067.57,93.1481 2069.73,93.1065 2071.89,93.0651 2074.05,93.0241 2076.21,92.9832 2078.37,92.9426 2080.53,92.9022 2082.69,92.8621 2084.85,92.8222 2087.02,92.7825 2089.18,92.7431 2091.34,92.7039 2093.5,92.665 2095.66,92.6262 2097.82,92.5877 2099.98,92.5495 2102.14,92.5114 2104.3,92.4736 2106.46,92.436 2108.62,92.3986 2110.78,92.3614 2112.94,92.3245 2115.1,92.2878 2117.26,92.2513 2119.42,92.215 2121.58,92.1789 2123.74,92.143 2125.9,92.1074 2128.06,92.072 2130.22,92.0367 2132.39,92.0017 2134.55,91.9669 2136.71,91.9323 2138.87,91.8979 2141.03,91.8636 2143.19,91.8296 2145.35,91.7958 2147.51,91.7622 2149.67,91.7288 2151.83,91.6956 2153.99,91.6626 2156.15,91.6298 2158.31,91.5972 2160.47,91.5647 2162.63,91.5325 2164.79,91.5004 2166.95,91.4686 2169.11,91.4369 2171.27,91.4054 2173.43,91.3741 2175.6,91.343 2177.76,91.312 2179.92,91.2813 2182.08,91.2507 2184.24,91.2203 2186.4,91.1901 2188.56,91.1601 2190.72,91.1302 2192.88,91.1005 2195.04,91.071 2197.2,91.0417 2199.36,91.0125 2201.52,90.9835 2203.68,90.9547 2205.84,90.926 2208,90.8976 2210.16,90.8692 2212.32,90.8411 2214.48,90.8131 2216.64,90.7853 2218.81,90.7576 2220.97,90.7301 2223.13,90.7028 2225.29,90.6756 2227.45,90.6486 2229.61,90.6218 2231.77,90.5951 2233.93,90.5685 2236.09,90.5422 2238.25,90.5159 2240.41,90.4899 2242.57,90.4639 2244.73,90.4382 2246.89,90.4126 2249.05,90.3871 2251.21,90.3618 2253.37,90.3366 2255.53,90.3116 2257.69,90.2868 2259.85,90.2621 2262.02,90.2375 2264.18,90.2131 2266.34,90.1888 2268.5,90.1646 2270.66,90.1406 2272.82,90.1168 2274.98,90.0931 2277.14,90.0695 2279.3,90.0461 2281.46,90.0228 2283.62,89.9996 2285.78,89.9766 2287.94,89.9537 2290.1,89.931 2292.26,89.9084 2294.42,89.8859 2296.58,89.8635 2298.74,89.8413 2300.9,89.8192 2303.06,89.7973 2305.23,89.7755 2307.39,89.7538 2309.55,89.7322 2311.71,89.7108 2313.87,89.6895 2316.03,89.6683 2318.19,89.6472 2320.35,89.6263 2322.51,89.6055 2324.67,89.5848 2326.83,89.5642 2328.99,89.5438 2331.15,89.5235 2333.31,89.5033 2335.47,89.4832 2337.63,89.4632 2339.79,89.4434 2341.95,89.4236 2344.11,89.404 2346.27,89.3845 2348.43,89.3651 2350.6,89.3459 2352.76,89.3267 "/>
<path clip-path="url(#clip480)" d="M1805.58 1377.32 L2280.81 1377.32 L2280.81 1221.8 L1805.58 1221.8  Z" fill="#ffffff" fill-rule="evenodd" fill-opacity="1"/>
<polyline clip-path="url(#clip480)" style="stroke:#000000; stroke-linecap:round; stroke-linejoin:round; stroke-width:4; stroke-opacity:1; fill:none" points="1805.58,1377.32 2280.81,1377.32 2280.81,1221.8 1805.58,1221.8 1805.58,1377.32 "/>
<polyline clip-path="url(#clip480)" style="stroke:#009af9; stroke-linecap:round; stroke-linejoin:round; stroke-width:4; stroke-opacity:1; fill:none" points="1829.56,1273.64 1973.45,1273.64 "/>
<path clip-path="url(#clip480)" d="M1997.43 1264.99 L2001.95 1264.99 L2010.05 1286.75 L2018.15 1264.99 L2022.66 1264.99 L2012.94 1290.92 L2007.16 1290.92 L1997.43 1264.99 Z" fill="#000000" fill-rule="nonzero" fill-opacity="1" /><path clip-path="url(#clip480)" d="M2029.96 1286.98 L2037.6 1286.98 L2037.6 1260.61 L2029.28 1262.28 L2029.28 1258.02 L2037.55 1256.36 L2042.22 1256.36 L2042.22 1286.98 L2049.86 1286.98 L2049.86 1290.92 L2029.96 1290.92 L2029.96 1286.98 Z" fill="#000000" fill-rule="nonzero" fill-opacity="1" /><path clip-path="url(#clip480)" d="M2067.97 1274.27 L2067.97 1281.49 L2076.09 1281.49 L2076.09 1283.69 L2067.97 1283.69 L2067.97 1290.92 L2065.53 1290.92 L2065.53 1283.69 L2057.41 1283.69 L2057.41 1281.49 L2065.53 1281.49 L2065.53 1274.27 L2067.97 1274.27 Z" fill="#000000" fill-rule="nonzero" fill-opacity="1" /><path clip-path="url(#clip480)" d="M2100.26 1265.75 L2100.26 1269.78 Q2098.45 1268.86 2096.51 1268.39 Q2094.56 1267.93 2092.48 1267.93 Q2089.31 1267.93 2087.71 1268.9 Q2086.14 1269.87 2086.14 1271.82 Q2086.14 1273.3 2087.27 1274.16 Q2088.4 1274.99 2091.83 1275.75 L2093.29 1276.08 Q2097.83 1277.05 2099.72 1278.83 Q2101.65 1280.59 2101.65 1283.76 Q2101.65 1287.37 2098.78 1289.48 Q2095.93 1291.59 2090.93 1291.59 Q2088.84 1291.59 2086.58 1291.17 Q2084.33 1290.78 2081.83 1289.97 L2081.83 1285.57 Q2084.19 1286.79 2086.48 1287.42 Q2088.78 1288.02 2091.02 1288.02 Q2094.03 1288.02 2095.65 1287 Q2097.27 1285.96 2097.27 1284.09 Q2097.27 1282.35 2096.09 1281.42 Q2094.93 1280.5 2090.97 1279.64 L2089.49 1279.3 Q2085.53 1278.46 2083.78 1276.75 Q2082.02 1275.01 2082.02 1272 Q2082.02 1268.35 2084.61 1266.36 Q2087.2 1264.36 2091.97 1264.36 Q2094.33 1264.36 2096.41 1264.71 Q2098.5 1265.06 2100.26 1265.75 Z" fill="#000000" fill-rule="nonzero" fill-opacity="1" /><path clip-path="url(#clip480)" d="M2112.64 1257.63 L2112.64 1264.99 L2121.41 1264.99 L2121.41 1268.3 L2112.64 1268.3 L2112.64 1282.37 Q2112.64 1285.54 2113.5 1286.45 Q2114.38 1287.35 2117.04 1287.35 L2121.41 1287.35 L2121.41 1290.92 L2117.04 1290.92 Q2112.11 1290.92 2110.23 1289.09 Q2108.36 1287.23 2108.36 1282.37 L2108.36 1268.3 L2105.23 1268.3 L2105.23 1264.99 L2108.36 1264.99 L2108.36 1257.63 L2112.64 1257.63 Z" fill="#000000" fill-rule="nonzero" fill-opacity="1" /><path clip-path="url(#clip480)" d="M2137.06 1267.98 Q2133.64 1267.98 2131.65 1270.66 Q2129.65 1273.32 2129.65 1277.98 Q2129.65 1282.63 2131.62 1285.31 Q2133.61 1287.98 2137.06 1287.98 Q2140.46 1287.98 2142.46 1285.29 Q2144.45 1282.61 2144.45 1277.98 Q2144.45 1273.37 2142.46 1270.68 Q2140.46 1267.98 2137.06 1267.98 M2137.06 1264.36 Q2142.62 1264.36 2145.79 1267.98 Q2148.96 1271.59 2148.96 1277.98 Q2148.96 1284.34 2145.79 1287.98 Q2142.62 1291.59 2137.06 1291.59 Q2131.48 1291.59 2128.31 1287.98 Q2125.16 1284.34 2125.16 1277.98 Q2125.16 1271.59 2128.31 1267.98 Q2131.48 1264.36 2137.06 1264.36 Z" fill="#000000" fill-rule="nonzero" fill-opacity="1" /><path clip-path="url(#clip480)" d="M2171.04 1268.97 Q2170.33 1268.55 2169.47 1268.37 Q2168.64 1268.16 2167.62 1268.16 Q2164.01 1268.16 2162.06 1270.52 Q2160.14 1272.86 2160.14 1277.26 L2160.14 1290.92 L2155.86 1290.92 L2155.86 1264.99 L2160.14 1264.99 L2160.14 1269.02 Q2161.48 1266.66 2163.64 1265.52 Q2165.79 1264.36 2168.87 1264.36 Q2169.31 1264.36 2169.84 1264.43 Q2170.37 1264.48 2171.02 1264.6 L2171.04 1268.97 Z" fill="#000000" fill-rule="nonzero" fill-opacity="1" /><path clip-path="url(#clip480)" d="M2187.29 1277.88 Q2182.13 1277.88 2180.14 1279.06 Q2178.15 1280.24 2178.15 1283.09 Q2178.15 1285.36 2179.63 1286.7 Q2181.14 1288.02 2183.71 1288.02 Q2187.25 1288.02 2189.38 1285.52 Q2191.53 1283 2191.53 1278.83 L2191.53 1277.88 L2187.29 1277.88 M2195.79 1276.12 L2195.79 1290.92 L2191.53 1290.92 L2191.53 1286.98 Q2190.07 1289.34 2187.9 1290.48 Q2185.72 1291.59 2182.57 1291.59 Q2178.59 1291.59 2176.23 1289.36 Q2173.89 1287.12 2173.89 1283.37 Q2173.89 1278.99 2176.81 1276.77 Q2179.75 1274.55 2185.56 1274.55 L2191.53 1274.55 L2191.53 1274.13 Q2191.53 1271.19 2189.58 1269.6 Q2187.66 1267.98 2184.17 1267.98 Q2181.95 1267.98 2179.84 1268.51 Q2177.73 1269.04 2175.79 1270.11 L2175.79 1266.17 Q2178.13 1265.27 2180.33 1264.83 Q2182.52 1264.36 2184.61 1264.36 Q2190.23 1264.36 2193.01 1267.28 Q2195.79 1270.2 2195.79 1276.12 Z" fill="#000000" fill-rule="nonzero" fill-opacity="1" /><path clip-path="url(#clip480)" d="M2221.62 1277.65 Q2221.62 1273.02 2219.7 1270.48 Q2217.8 1267.93 2214.35 1267.93 Q2210.93 1267.93 2209.01 1270.48 Q2207.11 1273.02 2207.11 1277.65 Q2207.11 1282.26 2209.01 1284.8 Q2210.93 1287.35 2214.35 1287.35 Q2217.8 1287.35 2219.7 1284.8 Q2221.62 1282.26 2221.62 1277.65 M2225.88 1287.7 Q2225.88 1294.32 2222.94 1297.54 Q2220 1300.78 2213.94 1300.78 Q2211.69 1300.78 2209.7 1300.43 Q2207.71 1300.11 2205.83 1299.41 L2205.83 1295.27 Q2207.71 1296.29 2209.54 1296.77 Q2211.37 1297.26 2213.27 1297.26 Q2217.46 1297.26 2219.54 1295.06 Q2221.62 1292.88 2221.62 1288.46 L2221.62 1286.36 Q2220.3 1288.65 2218.24 1289.78 Q2216.18 1290.92 2213.31 1290.92 Q2208.54 1290.92 2205.63 1287.28 Q2202.71 1283.65 2202.71 1277.65 Q2202.71 1271.63 2205.63 1268 Q2208.54 1264.36 2213.31 1264.36 Q2216.18 1264.36 2218.24 1265.5 Q2220.3 1266.63 2221.62 1268.92 L2221.62 1264.99 L2225.88 1264.99 L2225.88 1287.7 Z" fill="#000000" fill-rule="nonzero" fill-opacity="1" /><path clip-path="url(#clip480)" d="M2256.83 1276.89 L2256.83 1278.97 L2237.25 1278.97 Q2237.52 1283.37 2239.89 1285.68 Q2242.27 1287.98 2246.51 1287.98 Q2248.96 1287.98 2251.25 1287.37 Q2253.57 1286.77 2255.83 1285.57 L2255.83 1289.6 Q2253.54 1290.57 2251.14 1291.08 Q2248.73 1291.59 2246.25 1291.59 Q2240.05 1291.59 2236.41 1287.98 Q2232.8 1284.36 2232.8 1278.21 Q2232.8 1271.84 2236.23 1268.11 Q2239.68 1264.36 2245.51 1264.36 Q2250.74 1264.36 2253.77 1267.74 Q2256.83 1271.1 2256.83 1276.89 M2252.57 1275.64 Q2252.52 1272.14 2250.6 1270.06 Q2248.71 1267.98 2245.56 1267.98 Q2241.99 1267.98 2239.84 1269.99 Q2237.71 1272 2237.39 1275.66 L2252.57 1275.64 Z" fill="#000000" fill-rule="nonzero" fill-opacity="1" /><polyline clip-path="url(#clip480)" style="stroke:#e26f46; stroke-linecap:round; stroke-linejoin:round; stroke-width:4; stroke-opacity:1; fill:none" points="1829.56,1325.48 1973.45,1325.48 "/>
<path clip-path="url(#clip480)" d="M1997.43 1316.83 L2001.95 1316.83 L2010.05 1338.59 L2018.15 1316.83 L2022.66 1316.83 L2012.94 1342.76 L2007.16 1342.76 L1997.43 1316.83 Z" fill="#000000" fill-rule="nonzero" fill-opacity="1" /><path clip-path="url(#clip480)" d="M2029.19 1308.2 L2047.55 1308.2 L2047.55 1312.13 L2033.47 1312.13 L2033.47 1320.6 Q2034.49 1320.26 2035.51 1320.09 Q2036.53 1319.91 2037.55 1319.91 Q2043.34 1319.91 2046.72 1323.08 Q2050.09 1326.25 2050.09 1331.67 Q2050.09 1337.25 2046.62 1340.35 Q2043.15 1343.43 2036.83 1343.43 Q2034.66 1343.43 2032.39 1343.06 Q2030.14 1342.69 2027.73 1341.95 L2027.73 1337.25 Q2029.82 1338.38 2032.04 1338.94 Q2034.26 1339.49 2036.74 1339.49 Q2040.74 1339.49 2043.08 1337.38 Q2045.42 1335.28 2045.42 1331.67 Q2045.42 1328.06 2043.08 1325.95 Q2040.74 1323.84 2036.74 1323.84 Q2034.86 1323.84 2032.99 1324.26 Q2031.14 1324.68 2029.19 1325.56 L2029.19 1308.2 Z" fill="#000000" fill-rule="nonzero" fill-opacity="1" /><path clip-path="url(#clip480)" d="M2067.97 1326.11 L2067.97 1333.33 L2076.09 1333.33 L2076.09 1335.53 L2067.97 1335.53 L2067.97 1342.76 L2065.53 1342.76 L2065.53 1335.53 L2057.41 1335.53 L2057.41 1333.33 L2065.53 1333.33 L2065.53 1326.11 L2067.97 1326.11 Z" fill="#000000" fill-rule="nonzero" fill-opacity="1" /><path clip-path="url(#clip480)" d="M2100.26 1317.59 L2100.26 1321.62 Q2098.45 1320.7 2096.51 1320.23 Q2094.56 1319.77 2092.48 1319.77 Q2089.31 1319.77 2087.71 1320.74 Q2086.14 1321.71 2086.14 1323.66 Q2086.14 1325.14 2087.27 1326 Q2088.4 1326.83 2091.83 1327.59 L2093.29 1327.92 Q2097.83 1328.89 2099.72 1330.67 Q2101.65 1332.43 2101.65 1335.6 Q2101.65 1339.21 2098.78 1341.32 Q2095.93 1343.43 2090.93 1343.43 Q2088.84 1343.43 2086.58 1343.01 Q2084.33 1342.62 2081.83 1341.81 L2081.83 1337.41 Q2084.19 1338.63 2086.48 1339.26 Q2088.78 1339.86 2091.02 1339.86 Q2094.03 1339.86 2095.65 1338.84 Q2097.27 1337.8 2097.27 1335.93 Q2097.27 1334.19 2096.09 1333.26 Q2094.93 1332.34 2090.97 1331.48 L2089.49 1331.14 Q2085.53 1330.3 2083.78 1328.59 Q2082.02 1326.85 2082.02 1323.84 Q2082.02 1320.19 2084.61 1318.2 Q2087.2 1316.2 2091.97 1316.2 Q2094.33 1316.2 2096.41 1316.55 Q2098.5 1316.9 2100.26 1317.59 Z" fill="#000000" fill-rule="nonzero" fill-opacity="1" /><path clip-path="url(#clip480)" d="M2112.64 1309.47 L2112.64 1316.83 L2121.41 1316.83 L2121.41 1320.14 L2112.64 1320.14 L2112.64 1334.21 Q2112.64 1337.38 2113.5 1338.29 Q2114.38 1339.19 2117.04 1339.19 L2121.41 1339.19 L2121.41 1342.76 L2117.04 1342.76 Q2112.11 1342.76 2110.23 1340.93 Q2108.36 1339.07 2108.36 1334.21 L2108.36 1320.14 L2105.23 1320.14 L2105.23 1316.83 L2108.36 1316.83 L2108.36 1309.47 L2112.64 1309.47 Z" fill="#000000" fill-rule="nonzero" fill-opacity="1" /><path clip-path="url(#clip480)" d="M2137.06 1319.82 Q2133.64 1319.82 2131.65 1322.5 Q2129.65 1325.16 2129.65 1329.82 Q2129.65 1334.47 2131.62 1337.15 Q2133.61 1339.82 2137.06 1339.82 Q2140.46 1339.82 2142.46 1337.13 Q2144.45 1334.45 2144.45 1329.82 Q2144.45 1325.21 2142.46 1322.52 Q2140.46 1319.82 2137.06 1319.82 M2137.06 1316.2 Q2142.62 1316.2 2145.79 1319.82 Q2148.96 1323.43 2148.96 1329.82 Q2148.96 1336.18 2145.79 1339.82 Q2142.62 1343.43 2137.06 1343.43 Q2131.48 1343.43 2128.31 1339.82 Q2125.16 1336.18 2125.16 1329.82 Q2125.16 1323.43 2128.31 1319.82 Q2131.48 1316.2 2137.06 1316.2 Z" fill="#000000" fill-rule="nonzero" fill-opacity="1" /><path clip-path="url(#clip480)" d="M2171.04 1320.81 Q2170.33 1320.39 2169.47 1320.21 Q2168.64 1320 2167.62 1320 Q2164.01 1320 2162.06 1322.36 Q2160.14 1324.7 2160.14 1329.1 L2160.14 1342.76 L2155.86 1342.76 L2155.86 1316.83 L2160.14 1316.83 L2160.14 1320.86 Q2161.48 1318.5 2163.64 1317.36 Q2165.79 1316.2 2168.87 1316.2 Q2169.31 1316.2 2169.84 1316.27 Q2170.37 1316.32 2171.02 1316.44 L2171.04 1320.81 Z" fill="#000000" fill-rule="nonzero" fill-opacity="1" /><path clip-path="url(#clip480)" d="M2187.29 1329.72 Q2182.13 1329.72 2180.14 1330.9 Q2178.15 1332.08 2178.15 1334.93 Q2178.15 1337.2 2179.63 1338.54 Q2181.14 1339.86 2183.71 1339.86 Q2187.25 1339.86 2189.38 1337.36 Q2191.53 1334.84 2191.53 1330.67 L2191.53 1329.72 L2187.29 1329.72 M2195.79 1327.96 L2195.79 1342.76 L2191.53 1342.76 L2191.53 1338.82 Q2190.07 1341.18 2187.9 1342.32 Q2185.72 1343.43 2182.57 1343.43 Q2178.59 1343.43 2176.23 1341.2 Q2173.89 1338.96 2173.89 1335.21 Q2173.89 1330.83 2176.81 1328.61 Q2179.75 1326.39 2185.56 1326.39 L2191.53 1326.39 L2191.53 1325.97 Q2191.53 1323.03 2189.58 1321.44 Q2187.66 1319.82 2184.17 1319.82 Q2181.95 1319.82 2179.84 1320.35 Q2177.73 1320.88 2175.79 1321.95 L2175.79 1318.01 Q2178.13 1317.11 2180.33 1316.67 Q2182.52 1316.2 2184.61 1316.2 Q2190.23 1316.2 2193.01 1319.12 Q2195.79 1322.04 2195.79 1327.96 Z" fill="#000000" fill-rule="nonzero" fill-opacity="1" /><path clip-path="url(#clip480)" d="M2221.62 1329.49 Q2221.62 1324.86 2219.7 1322.32 Q2217.8 1319.77 2214.35 1319.77 Q2210.93 1319.77 2209.01 1322.32 Q2207.11 1324.86 2207.11 1329.49 Q2207.11 1334.1 2209.01 1336.64 Q2210.93 1339.19 2214.35 1339.19 Q2217.8 1339.19 2219.7 1336.64 Q2221.62 1334.1 2221.62 1329.49 M2225.88 1339.54 Q2225.88 1346.16 2222.94 1349.38 Q2220 1352.62 2213.94 1352.62 Q2211.69 1352.62 2209.7 1352.27 Q2207.71 1351.95 2205.83 1351.25 L2205.83 1347.11 Q2207.71 1348.13 2209.54 1348.61 Q2211.37 1349.1 2213.27 1349.1 Q2217.46 1349.1 2219.54 1346.9 Q2221.62 1344.72 2221.62 1340.3 L2221.62 1338.2 Q2220.3 1340.49 2218.24 1341.62 Q2216.18 1342.76 2213.31 1342.76 Q2208.54 1342.76 2205.63 1339.12 Q2202.71 1335.49 2202.71 1329.49 Q2202.71 1323.47 2205.63 1319.84 Q2208.54 1316.2 2213.31 1316.2 Q2216.18 1316.2 2218.24 1317.34 Q2220.3 1318.47 2221.62 1320.76 L2221.62 1316.83 L2225.88 1316.83 L2225.88 1339.54 Z" fill="#000000" fill-rule="nonzero" fill-opacity="1" /><path clip-path="url(#clip480)" d="M2256.83 1328.73 L2256.83 1330.81 L2237.25 1330.81 Q2237.52 1335.21 2239.89 1337.52 Q2242.27 1339.82 2246.51 1339.82 Q2248.96 1339.82 2251.25 1339.21 Q2253.57 1338.61 2255.83 1337.41 L2255.83 1341.44 Q2253.54 1342.41 2251.14 1342.92 Q2248.73 1343.43 2246.25 1343.43 Q2240.05 1343.43 2236.41 1339.82 Q2232.8 1336.2 2232.8 1330.05 Q2232.8 1323.68 2236.23 1319.95 Q2239.68 1316.2 2245.51 1316.2 Q2250.74 1316.2 2253.77 1319.58 Q2256.83 1322.94 2256.83 1328.73 M2252.57 1327.48 Q2252.52 1323.98 2250.6 1321.9 Q2248.71 1319.82 2245.56 1319.82 Q2241.99 1319.82 2239.84 1321.83 Q2237.71 1323.84 2237.39 1327.5 L2252.57 1327.48 Z" fill="#000000" fill-rule="nonzero" fill-opacity="1" /></svg>
