<?xml version="1.0" encoding="utf-8"?>
<svg xmlns="http://www.w3.org/2000/svg" xmlns:xlink="http://www.w3.org/1999/xlink" width="600" height="400" viewBox="0 0 2400 1600">
<defs>
  <clipPath id="clip430">
    <rect x="0" y="0" width="2400" height="1600"/>
  </clipPath>
</defs>
<path clip-path="url(#clip430)" d="M0 1600 L2400 1600 L2400 0 L0 0  Z" fill="#ffffff" fill-rule="evenodd" fill-opacity="1"/>
<defs>
  <clipPath id="clip431">
    <rect x="480" y="0" width="1681" height="1600"/>
  </clipPath>
</defs>
<path clip-path="url(#clip430)" d="M194.422 1423.18 L2352.76 1423.18 L2352.76 47.2441 L194.422 47.2441  Z" fill="#ffffff" fill-rule="evenodd" fill-opacity="1"/>
<defs>
  <clipPath id="clip432">
    <rect x="194" y="47" width="2159" height="1377"/>
  </clipPath>
</defs>
<polyline clip-path="url(#clip432)" style="stroke:#000000; stroke-linecap:round; stroke-linejoin:round; stroke-width:2; stroke-opacity:0.1; fill:none" points="194.422,1423.18 194.422,47.2441 "/>
<polyline clip-path="url(#clip432)" style="stroke:#000000; stroke-linecap:round; stroke-linejoin:round; stroke-width:2; stroke-opacity:0.1; fill:none" points="734.006,1423.18 734.006,47.2441 "/>
<polyline clip-path="url(#clip432)" style="stroke:#000000; stroke-linecap:round; stroke-linejoin:round; stroke-width:2; stroke-opacity:0.1; fill:none" points="1273.59,1423.18 1273.59,47.2441 "/>
<polyline clip-path="url(#clip432)" style="stroke:#000000; stroke-linecap:round; stroke-linejoin:round; stroke-width:2; stroke-opacity:0.1; fill:none" points="1813.17,1423.18 1813.17,47.2441 "/>
<polyline clip-path="url(#clip432)" style="stroke:#000000; stroke-linecap:round; stroke-linejoin:round; stroke-width:2; stroke-opacity:0.1; fill:none" points="2352.76,1423.18 2352.76,47.2441 "/>
<polyline clip-path="url(#clip432)" style="stroke:#000000; stroke-linecap:round; stroke-linejoin:round; stroke-width:2; stroke-opacity:0.1; fill:none" points="194.422,1293.42 2352.76,1293.42 "/>
<polyline clip-path="url(#clip432)" style="stroke:#000000; stroke-linecap:round; stroke-linejoin:round; stroke-width:2; stroke-opacity:0.1; fill:none" points="194.422,1066.77 2352.76,1066.77 "/>
<polyline clip-path="url(#clip432)" style="stroke:#000000; stroke-linecap:round; stroke-linejoin:round; stroke-width:2; stroke-opacity:0.1; fill:none" points="194.422,840.126 2352.76,840.126 "/>
<polyline clip-path="url(#clip432)" style="stroke:#000000; stroke-linecap:round; stroke-linejoin:round; stroke-width:2; stroke-opacity:0.1; fill:none" points="194.422,613.479 2352.76,613.479 "/>
<polyline clip-path="url(#clip432)" style="stroke:#000000; stroke-linecap:round; stroke-linejoin:round; stroke-width:2; stroke-opacity:0.1; fill:none" points="194.422,386.832 2352.76,386.832 "/>
<polyline clip-path="url(#clip432)" style="stroke:#000000; stroke-linecap:round; stroke-linejoin:round; stroke-width:2; stroke-opacity:0.1; fill:none" points="194.422,160.185 2352.76,160.185 "/>
<polyline clip-path="url(#clip430)" style="stroke:#000000; stroke-linecap:round; stroke-linejoin:round; stroke-width:4; stroke-opacity:1; fill:none" points="194.422,1423.18 2352.76,1423.18 "/>
<polyline clip-path="url(#clip430)" style="stroke:#000000; stroke-linecap:round; stroke-linejoin:round; stroke-width:4; stroke-opacity:1; fill:none" points="194.422,1423.18 194.422,1404.28 "/>
<polyline clip-path="url(#clip430)" style="stroke:#000000; stroke-linecap:round; stroke-linejoin:round; stroke-width:4; stroke-opacity:1; fill:none" points="734.006,1423.18 734.006,1404.28 "/>
<polyline clip-path="url(#clip430)" style="stroke:#000000; stroke-linecap:round; stroke-linejoin:round; stroke-width:4; stroke-opacity:1; fill:none" points="1273.59,1423.18 1273.59,1404.28 "/>
<polyline clip-path="url(#clip430)" style="stroke:#000000; stroke-linecap:round; stroke-linejoin:round; stroke-width:4; stroke-opacity:1; fill:none" points="1813.17,1423.18 1813.17,1404.28 "/>
<polyline clip-path="url(#clip430)" style="stroke:#000000; stroke-linecap:round; stroke-linejoin:round; stroke-width:4; stroke-opacity:1; fill:none" points="2352.76,1423.18 2352.76,1404.28 "/>
<path clip-path="url(#clip430)" d="M171.806 1454.1 Q168.195 1454.1 166.367 1457.66 Q164.561 1461.2 164.561 1468.33 Q164.561 1475.44 166.367 1479.01 Q168.195 1482.55 171.806 1482.55 Q175.441 1482.55 177.246 1479.01 Q179.075 1475.44 179.075 1468.33 Q179.075 1461.2 177.246 1457.66 Q175.441 1454.1 171.806 1454.1 M171.806 1450.39 Q177.617 1450.39 180.672 1455 Q183.751 1459.58 183.751 1468.33 Q183.751 1477.06 180.672 1481.67 Q177.617 1486.25 171.806 1486.25 Q165.996 1486.25 162.918 1481.67 Q159.862 1477.06 159.862 1468.33 Q159.862 1459.58 162.918 1455 Q165.996 1450.39 171.806 1450.39 Z" fill="#000000" fill-rule="nonzero" fill-opacity="1" /><path clip-path="url(#clip430)" d="M191.968 1479.7 L196.853 1479.7 L196.853 1485.58 L191.968 1485.58 L191.968 1479.7 Z" fill="#000000" fill-rule="nonzero" fill-opacity="1" /><path clip-path="url(#clip430)" d="M217.038 1454.1 Q213.427 1454.1 211.598 1457.66 Q209.792 1461.2 209.792 1468.33 Q209.792 1475.44 211.598 1479.01 Q213.427 1482.55 217.038 1482.55 Q220.672 1482.55 222.478 1479.01 Q224.306 1475.44 224.306 1468.33 Q224.306 1461.2 222.478 1457.66 Q220.672 1454.1 217.038 1454.1 M217.038 1450.39 Q222.848 1450.39 225.903 1455 Q228.982 1459.58 228.982 1468.33 Q228.982 1477.06 225.903 1481.67 Q222.848 1486.25 217.038 1486.25 Q211.228 1486.25 208.149 1481.67 Q205.093 1477.06 205.093 1468.33 Q205.093 1459.58 208.149 1455 Q211.228 1450.39 217.038 1450.39 Z" fill="#000000" fill-rule="nonzero" fill-opacity="1" /><path clip-path="url(#clip430)" d="M711.888 1454.1 Q708.277 1454.1 706.448 1457.66 Q704.642 1461.2 704.642 1468.33 Q704.642 1475.44 706.448 1479.01 Q708.277 1482.55 711.888 1482.55 Q715.522 1482.55 717.327 1479.01 Q719.156 1475.44 719.156 1468.33 Q719.156 1461.2 717.327 1457.66 Q715.522 1454.1 711.888 1454.1 M711.888 1450.39 Q717.698 1450.39 720.753 1455 Q723.832 1459.58 723.832 1468.33 Q723.832 1477.06 720.753 1481.67 Q717.698 1486.25 711.888 1486.25 Q706.077 1486.25 702.999 1481.67 Q699.943 1477.06 699.943 1468.33 Q699.943 1459.58 702.999 1455 Q706.077 1450.39 711.888 1450.39 Z" fill="#000000" fill-rule="nonzero" fill-opacity="1" /><path clip-path="url(#clip430)" d="M732.05 1479.7 L736.934 1479.7 L736.934 1485.58 L732.05 1485.58 L732.05 1479.7 Z" fill="#000000" fill-rule="nonzero" fill-opacity="1" /><path clip-path="url(#clip430)" d="M747.165 1451.02 L765.522 1451.02 L765.522 1454.96 L751.448 1454.96 L751.448 1463.43 Q752.466 1463.08 753.485 1462.92 Q754.503 1462.73 755.522 1462.73 Q761.309 1462.73 764.688 1465.9 Q768.068 1469.08 768.068 1474.49 Q768.068 1480.07 764.596 1483.17 Q761.123 1486.25 754.804 1486.25 Q752.628 1486.25 750.36 1485.88 Q748.114 1485.51 745.707 1484.77 L745.707 1480.07 Q747.79 1481.2 750.012 1481.76 Q752.235 1482.32 754.711 1482.32 Q758.716 1482.32 761.054 1480.21 Q763.392 1478.1 763.392 1474.49 Q763.392 1470.88 761.054 1468.77 Q758.716 1466.67 754.711 1466.67 Q752.836 1466.67 750.961 1467.08 Q749.11 1467.5 747.165 1468.38 L747.165 1451.02 Z" fill="#000000" fill-rule="nonzero" fill-opacity="1" /><path clip-path="url(#clip430)" d="M1240.74 1481.64 L1248.38 1481.64 L1248.38 1455.28 L1240.07 1456.95 L1240.07 1452.69 L1248.33 1451.02 L1253.01 1451.02 L1253.01 1481.64 L1260.65 1481.64 L1260.65 1485.58 L1240.74 1485.58 L1240.74 1481.64 Z" fill="#000000" fill-rule="nonzero" fill-opacity="1" /><path clip-path="url(#clip430)" d="M1270.09 1479.7 L1274.98 1479.7 L1274.98 1485.58 L1270.09 1485.58 L1270.09 1479.7 Z" fill="#000000" fill-rule="nonzero" fill-opacity="1" /><path clip-path="url(#clip430)" d="M1295.16 1454.1 Q1291.55 1454.1 1289.72 1457.66 Q1287.92 1461.2 1287.92 1468.33 Q1287.92 1475.44 1289.72 1479.01 Q1291.55 1482.55 1295.16 1482.55 Q1298.8 1482.55 1300.6 1479.01 Q1302.43 1475.44 1302.43 1468.33 Q1302.43 1461.2 1300.6 1457.66 Q1298.8 1454.1 1295.16 1454.1 M1295.16 1450.39 Q1300.97 1450.39 1304.03 1455 Q1307.11 1459.58 1307.11 1468.33 Q1307.11 1477.06 1304.03 1481.67 Q1300.97 1486.25 1295.16 1486.25 Q1289.35 1486.25 1286.27 1481.67 Q1283.22 1477.06 1283.22 1468.33 Q1283.22 1459.58 1286.27 1455 Q1289.35 1450.39 1295.16 1450.39 Z" fill="#000000" fill-rule="nonzero" fill-opacity="1" /><path clip-path="url(#clip430)" d="M1780.82 1481.64 L1788.46 1481.64 L1788.46 1455.28 L1780.15 1456.95 L1780.15 1452.69 L1788.42 1451.02 L1793.09 1451.02 L1793.09 1481.64 L1800.73 1481.64 L1800.73 1485.58 L1780.82 1485.58 L1780.82 1481.64 Z" fill="#000000" fill-rule="nonzero" fill-opacity="1" /><path clip-path="url(#clip430)" d="M1810.17 1479.7 L1815.06 1479.7 L1815.06 1485.58 L1810.17 1485.58 L1810.17 1479.7 Z" fill="#000000" fill-rule="nonzero" fill-opacity="1" /><path clip-path="url(#clip430)" d="M1825.29 1451.02 L1843.65 1451.02 L1843.65 1454.96 L1829.57 1454.96 L1829.57 1463.43 Q1830.59 1463.08 1831.61 1462.92 Q1832.63 1462.73 1833.65 1462.73 Q1839.43 1462.73 1842.81 1465.9 Q1846.19 1469.08 1846.19 1474.49 Q1846.19 1480.07 1842.72 1483.17 Q1839.25 1486.25 1832.93 1486.25 Q1830.75 1486.25 1828.48 1485.88 Q1826.24 1485.51 1823.83 1484.77 L1823.83 1480.07 Q1825.92 1481.2 1828.14 1481.76 Q1830.36 1482.32 1832.84 1482.32 Q1836.84 1482.32 1839.18 1480.21 Q1841.52 1478.1 1841.52 1474.49 Q1841.52 1470.88 1839.18 1468.77 Q1836.84 1466.67 1832.84 1466.67 Q1830.96 1466.67 1829.09 1467.08 Q1827.23 1467.5 1825.29 1468.38 L1825.29 1451.02 Z" fill="#000000" fill-rule="nonzero" fill-opacity="1" /><path clip-path="url(#clip430)" d="M2323.99 1481.64 L2340.31 1481.64 L2340.31 1485.58 L2318.37 1485.58 L2318.37 1481.64 Q2321.03 1478.89 2325.61 1474.26 Q2330.22 1469.61 2331.4 1468.27 Q2333.65 1465.74 2334.53 1464.01 Q2335.43 1462.25 2335.43 1460.56 Q2335.43 1457.8 2333.49 1456.07 Q2331.56 1454.33 2328.46 1454.33 Q2326.26 1454.33 2323.81 1455.09 Q2321.38 1455.86 2318.6 1457.41 L2318.6 1452.69 Q2321.43 1451.55 2323.88 1450.97 Q2326.33 1450.39 2328.37 1450.39 Q2333.74 1450.39 2336.93 1453.08 Q2340.13 1455.77 2340.13 1460.26 Q2340.13 1462.39 2339.32 1464.31 Q2338.53 1466.2 2336.42 1468.8 Q2335.85 1469.47 2332.74 1472.69 Q2329.64 1475.88 2323.99 1481.64 Z" fill="#000000" fill-rule="nonzero" fill-opacity="1" /><path clip-path="url(#clip430)" d="M2350.13 1479.7 L2355.01 1479.7 L2355.01 1485.58 L2350.13 1485.58 L2350.13 1479.7 Z" fill="#000000" fill-rule="nonzero" fill-opacity="1" /><path clip-path="url(#clip430)" d="M2375.2 1454.1 Q2371.59 1454.1 2369.76 1457.66 Q2367.95 1461.2 2367.95 1468.33 Q2367.95 1475.44 2369.76 1479.01 Q2371.59 1482.55 2375.2 1482.55 Q2378.83 1482.55 2380.64 1479.01 Q2382.47 1475.44 2382.47 1468.33 Q2382.47 1461.2 2380.64 1457.66 Q2378.83 1454.1 2375.2 1454.1 M2375.2 1450.39 Q2381.01 1450.39 2384.06 1455 Q2387.14 1459.58 2387.14 1468.33 Q2387.14 1477.06 2384.06 1481.67 Q2381.01 1486.25 2375.2 1486.25 Q2369.39 1486.25 2366.31 1481.67 Q2363.25 1477.06 2363.25 1468.33 Q2363.25 1459.58 2366.31 1455 Q2369.39 1450.39 2375.2 1450.39 Z" fill="#000000" fill-rule="nonzero" fill-opacity="1" /><path clip-path="url(#clip430)" d="M1272.65 1522.27 L1272.65 1532.4 L1284.71 1532.4 L1284.71 1536.95 L1272.65 1536.95 L1272.65 1556.3 Q1272.65 1560.66 1273.83 1561.9 Q1275.04 1563.14 1278.7 1563.14 L1284.71 1563.14 L1284.71 1568.04 L1278.7 1568.04 Q1271.92 1568.04 1269.34 1565.53 Q1266.76 1562.98 1266.76 1556.3 L1266.76 1536.95 L1262.46 1536.95 L1262.46 1532.4 L1266.76 1532.4 L1266.76 1522.27 L1272.65 1522.27 Z" fill="#000000" fill-rule="nonzero" fill-opacity="1" /><polyline clip-path="url(#clip430)" style="stroke:#000000; stroke-linecap:round; stroke-linejoin:round; stroke-width:4; stroke-opacity:1; fill:none" points="194.422,1423.18 194.422,47.2441 "/>
<polyline clip-path="url(#clip430)" style="stroke:#000000; stroke-linecap:round; stroke-linejoin:round; stroke-width:4; stroke-opacity:1; fill:none" points="194.422,1293.42 213.32,1293.42 "/>
<polyline clip-path="url(#clip430)" style="stroke:#000000; stroke-linecap:round; stroke-linejoin:round; stroke-width:4; stroke-opacity:1; fill:none" points="194.422,1066.77 213.32,1066.77 "/>
<polyline clip-path="url(#clip430)" style="stroke:#000000; stroke-linecap:round; stroke-linejoin:round; stroke-width:4; stroke-opacity:1; fill:none" points="194.422,840.126 213.32,840.126 "/>
<polyline clip-path="url(#clip430)" style="stroke:#000000; stroke-linecap:round; stroke-linejoin:round; stroke-width:4; stroke-opacity:1; fill:none" points="194.422,613.479 213.32,613.479 "/>
<polyline clip-path="url(#clip430)" style="stroke:#000000; stroke-linecap:round; stroke-linejoin:round; stroke-width:4; stroke-opacity:1; fill:none" points="194.422,386.832 213.32,386.832 "/>
<polyline clip-path="url(#clip430)" style="stroke:#000000; stroke-linecap:round; stroke-linejoin:round; stroke-width:4; stroke-opacity:1; fill:none" points="194.422,160.185 213.32,160.185 "/>
<path clip-path="url(#clip430)" d="M51.6634 1293.87 L81.3392 1293.87 L81.3392 1297.81 L51.6634 1297.81 L51.6634 1293.87 Z" fill="#000000" fill-rule="nonzero" fill-opacity="1" /><path clip-path="url(#clip430)" d="M101.432 1279.22 Q97.8206 1279.22 95.9919 1282.78 Q94.1863 1286.32 94.1863 1293.45 Q94.1863 1300.56 95.9919 1304.13 Q97.8206 1307.67 101.432 1307.67 Q105.066 1307.67 106.871 1304.13 Q108.7 1300.56 108.7 1293.45 Q108.7 1286.32 106.871 1282.78 Q105.066 1279.22 101.432 1279.22 M101.432 1275.51 Q107.242 1275.51 110.297 1280.12 Q113.376 1284.7 113.376 1293.45 Q113.376 1302.18 110.297 1306.79 Q107.242 1311.37 101.432 1311.37 Q95.6215 1311.37 92.5428 1306.79 Q89.4873 1302.18 89.4873 1293.45 Q89.4873 1284.7 92.5428 1280.12 Q95.6215 1275.51 101.432 1275.51 Z" fill="#000000" fill-rule="nonzero" fill-opacity="1" /><path clip-path="url(#clip430)" d="M121.594 1304.82 L126.478 1304.82 L126.478 1310.7 L121.594 1310.7 L121.594 1304.82 Z" fill="#000000" fill-rule="nonzero" fill-opacity="1" /><path clip-path="url(#clip430)" d="M136.802 1309.98 L136.802 1305.72 Q138.561 1306.56 140.367 1307 Q142.172 1307.44 143.908 1307.44 Q148.538 1307.44 150.968 1304.33 Q153.422 1301.21 153.769 1294.87 Q152.427 1296.86 150.367 1297.92 Q148.306 1298.99 145.806 1298.99 Q140.621 1298.99 137.589 1295.86 Q134.58 1292.71 134.58 1287.27 Q134.58 1281.95 137.728 1278.73 Q140.876 1275.51 146.107 1275.51 Q152.103 1275.51 155.251 1280.12 Q158.422 1284.7 158.422 1293.45 Q158.422 1301.63 154.533 1306.51 Q150.668 1311.37 144.117 1311.37 Q142.357 1311.37 140.552 1311.02 Q138.746 1310.68 136.802 1309.98 M146.107 1295.33 Q149.255 1295.33 151.084 1293.18 Q152.936 1291.02 152.936 1287.27 Q152.936 1283.55 151.084 1281.39 Q149.255 1279.22 146.107 1279.22 Q142.959 1279.22 141.107 1281.39 Q139.279 1283.55 139.279 1287.27 Q139.279 1291.02 141.107 1293.18 Q142.959 1295.33 146.107 1295.33 Z" fill="#000000" fill-rule="nonzero" fill-opacity="1" /><path clip-path="url(#clip430)" d="M51.5708 1067.22 L81.2466 1067.22 L81.2466 1071.16 L51.5708 1071.16 L51.5708 1067.22 Z" fill="#000000" fill-rule="nonzero" fill-opacity="1" /><path clip-path="url(#clip430)" d="M101.339 1052.57 Q97.728 1052.57 95.8993 1056.14 Q94.0937 1059.68 94.0937 1066.81 Q94.0937 1073.91 95.8993 1077.48 Q97.728 1081.02 101.339 1081.02 Q104.973 1081.02 106.779 1077.48 Q108.608 1073.91 108.608 1066.81 Q108.608 1059.68 106.779 1056.14 Q104.973 1052.57 101.339 1052.57 M101.339 1048.87 Q107.149 1048.87 110.205 1053.47 Q113.283 1058.06 113.283 1066.81 Q113.283 1075.53 110.205 1080.14 Q107.149 1084.72 101.339 1084.72 Q95.5289 1084.72 92.4502 1080.14 Q89.3947 1075.53 89.3947 1066.81 Q89.3947 1058.06 92.4502 1053.47 Q95.5289 1048.87 101.339 1048.87 Z" fill="#000000" fill-rule="nonzero" fill-opacity="1" /><path clip-path="url(#clip430)" d="M121.501 1078.17 L126.385 1078.17 L126.385 1084.05 L121.501 1084.05 L121.501 1078.17 Z" fill="#000000" fill-rule="nonzero" fill-opacity="1" /><path clip-path="url(#clip430)" d="M146.57 1067.64 Q143.237 1067.64 141.316 1069.42 Q139.418 1071.21 139.418 1074.33 Q139.418 1077.46 141.316 1079.24 Q143.237 1081.02 146.57 1081.02 Q149.904 1081.02 151.825 1079.24 Q153.746 1077.43 153.746 1074.33 Q153.746 1071.21 151.825 1069.42 Q149.927 1067.64 146.57 1067.64 M141.894 1065.65 Q138.885 1064.91 137.195 1062.85 Q135.529 1060.79 135.529 1057.83 Q135.529 1053.68 138.469 1051.27 Q141.431 1048.87 146.57 1048.87 Q151.732 1048.87 154.672 1051.27 Q157.612 1053.68 157.612 1057.83 Q157.612 1060.79 155.922 1062.85 Q154.255 1064.91 151.269 1065.65 Q154.649 1066.44 156.524 1068.73 Q158.422 1071.02 158.422 1074.33 Q158.422 1079.35 155.343 1082.04 Q152.288 1084.72 146.57 1084.72 Q140.853 1084.72 137.774 1082.04 Q134.719 1079.35 134.719 1074.33 Q134.719 1071.02 136.617 1068.73 Q138.515 1066.44 141.894 1065.65 M140.181 1058.27 Q140.181 1060.95 141.848 1062.46 Q143.538 1063.96 146.57 1063.96 Q149.58 1063.96 151.269 1062.46 Q152.982 1060.95 152.982 1058.27 Q152.982 1055.58 151.269 1054.08 Q149.58 1052.57 146.57 1052.57 Q143.538 1052.57 141.848 1054.08 Q140.181 1055.58 140.181 1058.27 Z" fill="#000000" fill-rule="nonzero" fill-opacity="1" /><path clip-path="url(#clip430)" d="M52.381 840.577 L82.0568 840.577 L82.0568 844.512 L52.381 844.512 L52.381 840.577 Z" fill="#000000" fill-rule="nonzero" fill-opacity="1" /><path clip-path="url(#clip430)" d="M102.149 825.924 Q98.5382 825.924 96.7095 829.489 Q94.9039 833.031 94.9039 840.16 Q94.9039 847.267 96.7095 850.832 Q98.5382 854.373 102.149 854.373 Q105.783 854.373 107.589 850.832 Q109.418 847.267 109.418 840.16 Q109.418 833.031 107.589 829.489 Q105.783 825.924 102.149 825.924 M102.149 822.221 Q107.959 822.221 111.015 826.827 Q114.094 831.41 114.094 840.16 Q114.094 848.887 111.015 853.494 Q107.959 858.077 102.149 858.077 Q96.3391 858.077 93.2604 853.494 Q90.2049 848.887 90.2049 840.16 Q90.2049 831.41 93.2604 826.827 Q96.3391 822.221 102.149 822.221 Z" fill="#000000" fill-rule="nonzero" fill-opacity="1" /><path clip-path="url(#clip430)" d="M122.311 851.526 L127.195 851.526 L127.195 857.406 L122.311 857.406 L122.311 851.526 Z" fill="#000000" fill-rule="nonzero" fill-opacity="1" /><path clip-path="url(#clip430)" d="M136.2 822.846 L158.422 822.846 L158.422 824.836 L145.876 857.406 L140.992 857.406 L152.797 826.781 L136.2 826.781 L136.2 822.846 Z" fill="#000000" fill-rule="nonzero" fill-opacity="1" /><path clip-path="url(#clip430)" d="M51.3162 613.93 L80.992 613.93 L80.992 617.865 L51.3162 617.865 L51.3162 613.93 Z" fill="#000000" fill-rule="nonzero" fill-opacity="1" /><path clip-path="url(#clip430)" d="M101.084 599.278 Q97.4734 599.278 95.6447 602.842 Q93.8391 606.384 93.8391 613.514 Q93.8391 620.62 95.6447 624.185 Q97.4734 627.726 101.084 627.726 Q104.719 627.726 106.524 624.185 Q108.353 620.62 108.353 613.514 Q108.353 606.384 106.524 602.842 Q104.719 599.278 101.084 599.278 M101.084 595.574 Q106.895 595.574 109.95 600.18 Q113.029 604.764 113.029 613.514 Q113.029 622.24 109.95 626.847 Q106.895 631.43 101.084 631.43 Q95.2743 631.43 92.1956 626.847 Q89.1401 622.24 89.1401 613.514 Q89.1401 604.764 92.1956 600.18 Q95.2743 595.574 101.084 595.574 Z" fill="#000000" fill-rule="nonzero" fill-opacity="1" /><path clip-path="url(#clip430)" d="M121.246 624.879 L126.131 624.879 L126.131 630.759 L121.246 630.759 L121.246 624.879 Z" fill="#000000" fill-rule="nonzero" fill-opacity="1" /><path clip-path="url(#clip430)" d="M146.894 611.615 Q143.746 611.615 141.894 613.768 Q140.066 615.921 140.066 619.671 Q140.066 623.398 141.894 625.574 Q143.746 627.726 146.894 627.726 Q150.043 627.726 151.871 625.574 Q153.723 623.398 153.723 619.671 Q153.723 615.921 151.871 613.768 Q150.043 611.615 146.894 611.615 M156.177 596.963 L156.177 601.222 Q154.417 600.389 152.612 599.949 Q150.83 599.509 149.07 599.509 Q144.441 599.509 141.987 602.634 Q139.556 605.759 139.209 612.078 Q140.575 610.064 142.635 609 Q144.695 607.912 147.172 607.912 Q152.38 607.912 155.39 611.083 Q158.422 614.231 158.422 619.671 Q158.422 624.995 155.274 628.213 Q152.126 631.43 146.894 631.43 Q140.899 631.43 137.728 626.847 Q134.556 622.24 134.556 613.514 Q134.556 605.319 138.445 600.458 Q142.334 595.574 148.885 595.574 Q150.644 595.574 152.427 595.921 Q154.232 596.268 156.177 596.963 Z" fill="#000000" fill-rule="nonzero" fill-opacity="1" /><path clip-path="url(#clip430)" d="M52.4736 387.283 L82.1494 387.283 L82.1494 391.219 L52.4736 391.219 L52.4736 387.283 Z" fill="#000000" fill-rule="nonzero" fill-opacity="1" /><path clip-path="url(#clip430)" d="M102.242 372.631 Q98.6308 372.631 96.8021 376.195 Q94.9965 379.737 94.9965 386.867 Q94.9965 393.973 96.8021 397.538 Q98.6308 401.08 102.242 401.08 Q105.876 401.08 107.682 397.538 Q109.51 393.973 109.51 386.867 Q109.51 379.737 107.682 376.195 Q105.876 372.631 102.242 372.631 M102.242 368.927 Q108.052 368.927 111.108 373.533 Q114.186 378.117 114.186 386.867 Q114.186 395.593 111.108 400.2 Q108.052 404.783 102.242 404.783 Q96.4317 404.783 93.353 400.2 Q90.2975 395.593 90.2975 386.867 Q90.2975 378.117 93.353 373.533 Q96.4317 368.927 102.242 368.927 Z" fill="#000000" fill-rule="nonzero" fill-opacity="1" /><path clip-path="url(#clip430)" d="M122.404 398.232 L127.288 398.232 L127.288 404.112 L122.404 404.112 L122.404 398.232 Z" fill="#000000" fill-rule="nonzero" fill-opacity="1" /><path clip-path="url(#clip430)" d="M137.519 369.552 L155.876 369.552 L155.876 373.487 L141.802 373.487 L141.802 381.959 Q142.82 381.612 143.839 381.45 Q144.857 381.265 145.876 381.265 Q151.663 381.265 155.042 384.436 Q158.422 387.607 158.422 393.024 Q158.422 398.603 154.95 401.705 Q151.478 404.783 145.158 404.783 Q142.982 404.783 140.714 404.413 Q138.469 404.043 136.061 403.302 L136.061 398.603 Q138.144 399.737 140.367 400.293 Q142.589 400.848 145.066 400.848 Q149.07 400.848 151.408 398.742 Q153.746 396.635 153.746 393.024 Q153.746 389.413 151.408 387.307 Q149.07 385.2 145.066 385.2 Q143.191 385.2 141.316 385.617 Q139.464 386.033 137.519 386.913 L137.519 369.552 Z" fill="#000000" fill-rule="nonzero" fill-opacity="1" /><path clip-path="url(#clip430)" d="M50.9921 160.637 L80.6679 160.637 L80.6679 164.572 L50.9921 164.572 L50.9921 160.637 Z" fill="#000000" fill-rule="nonzero" fill-opacity="1" /><path clip-path="url(#clip430)" d="M100.76 145.984 Q97.1493 145.984 95.3206 149.549 Q93.515 153.09 93.515 160.22 Q93.515 167.326 95.3206 170.891 Q97.1493 174.433 100.76 174.433 Q104.395 174.433 106.2 170.891 Q108.029 167.326 108.029 160.22 Q108.029 153.09 106.2 149.549 Q104.395 145.984 100.76 145.984 M100.76 142.28 Q106.571 142.28 109.626 146.887 Q112.705 151.47 112.705 160.22 Q112.705 168.947 109.626 173.553 Q106.571 178.136 100.76 178.136 Q94.9502 178.136 91.8715 173.553 Q88.816 168.947 88.816 160.22 Q88.816 151.47 91.8715 146.887 Q94.9502 142.28 100.76 142.28 Z" fill="#000000" fill-rule="nonzero" fill-opacity="1" /><path clip-path="url(#clip430)" d="M120.922 171.586 L125.807 171.586 L125.807 177.465 L120.922 177.465 L120.922 171.586 Z" fill="#000000" fill-rule="nonzero" fill-opacity="1" /><path clip-path="url(#clip430)" d="M148.839 146.979 L137.033 165.428 L148.839 165.428 L148.839 146.979 M147.612 142.905 L153.492 142.905 L153.492 165.428 L158.422 165.428 L158.422 169.317 L153.492 169.317 L153.492 177.465 L148.839 177.465 L148.839 169.317 L133.237 169.317 L133.237 164.803 L147.612 142.905 Z" fill="#000000" fill-rule="nonzero" fill-opacity="1" /><polyline clip-path="url(#clip432)" style="stroke:#009af9; stroke-linecap:round; stroke-linejoin:round; stroke-width:4; stroke-opacity:1; fill:none" points="194.422,86.1857 196.583,93.2716 198.743,100.287 200.904,107.232 203.064,114.109 205.225,120.917 207.385,127.657 209.546,134.33 211.706,140.936 213.867,147.477 216.027,153.952 218.188,160.363 220.348,166.71 222.509,172.994 224.669,179.215 226.83,185.375 228.99,191.473 231.151,197.51 233.311,203.487 235.471,209.404 237.632,215.263 239.792,221.063 241.953,226.806 244.113,232.491 246.274,238.12 248.434,243.692 250.595,249.21 252.755,254.672 254.916,260.08 257.076,265.434 259.237,270.734 261.397,275.982 263.558,281.178 265.718,286.322 267.879,291.414 270.039,296.456 272.2,301.448 274.36,306.39 276.521,311.283 278.681,316.127 280.842,320.922 283.002,325.67 285.163,330.371 287.323,335.025 289.484,339.632 291.644,344.194 293.805,348.71 295.965,353.181 298.126,357.608 300.286,361.99 302.447,366.329 304.607,370.625 306.768,374.877 308.928,379.088 311.089,383.256 313.249,387.383 315.41,391.469 317.57,395.514 319.731,399.519 321.891,403.484 324.052,407.41 326.212,411.296 328.373,415.144 330.533,418.953 332.694,422.725 334.854,426.459 337.015,430.156 339.175,433.816 341.336,437.439 343.496,441.027 345.657,444.579 347.817,448.095 349.978,451.577 352.138,455.023 354.299,458.436 356.459,461.814 358.62,465.159 360.78,468.471 362.941,471.749 365.101,474.995 367.262,478.209 369.422,481.39 371.583,484.54 373.743,487.658 375.904,490.746 378.064,493.802 380.225,496.828 382.385,499.824 384.546,502.79 386.706,505.726 388.867,508.634 391.027,511.512 393.188,514.361 395.348,517.183 397.509,519.976 399.669,522.741 401.83,525.478 403.99,528.189 406.151,530.872 408.311,533.529 410.472,536.159 412.632,538.763 414.793,541.341 416.953,543.893 419.114,546.42 421.274,548.922 423.435,551.399 425.595,553.851 427.755,556.279 429.916,558.683 432.076,561.062 434.237,563.419 436.397,565.751 438.558,568.061 440.718,570.347 442.879,572.611 445.039,574.852 447.2,577.071 449.36,579.268 451.521,581.443 453.681,583.596 455.842,585.729 458.002,587.839 460.163,589.929 462.323,591.998 464.484,594.047 466.644,596.074 468.805,598.082 470.965,600.07 473.126,602.038 475.286,603.986 477.447,605.915 479.607,607.825 481.768,609.715 483.928,611.587 486.089,613.44 488.249,615.275 490.41,617.091 492.57,618.889 494.731,620.669 496.891,622.432 499.052,624.177 501.212,625.904 503.373,627.614 505.533,629.307 507.694,630.984 509.854,632.643 512.015,634.286 514.175,635.913 516.336,637.523 518.496,639.117 520.657,640.696 522.817,642.258 524.978,643.805 527.138,645.337 529.299,646.853 531.459,648.355 533.62,649.841 535.78,651.313 537.941,652.77 540.101,654.212 542.262,655.64 544.422,657.054 546.583,658.454 548.743,659.839 550.904,661.211 553.064,662.57 555.225,663.915 557.385,665.246 559.546,666.565 561.706,667.87 563.867,669.162 566.027,670.441 568.188,671.708 570.348,672.962 572.509,674.204 574.669,675.434 576.83,676.651 578.99,677.856 581.151,679.049 583.311,680.231 585.472,681.4 587.632,682.558 589.793,683.705 591.953,684.84 594.114,685.964 596.274,687.076 598.435,688.178 600.595,689.268 602.756,690.348 604.916,691.417 607.077,692.475 609.237,693.523 611.398,694.56 613.558,695.587 615.718,696.604 617.879,697.61 620.039,698.607 622.2,699.593 624.36,700.57 626.521,701.536 628.681,702.494 630.842,703.441 633.002,704.379 635.163,705.308 637.323,706.228 639.484,707.138 641.644,708.039 643.805,708.931 645.965,709.814 648.126,710.689 650.286,711.554 652.447,712.411 654.607,713.26 656.768,714.1 658.928,714.931 661.089,715.754 663.249,716.57 665.41,717.376 667.57,718.175 669.731,718.966 671.891,719.749 674.052,720.524 676.212,721.292 678.373,722.051 680.533,722.804 682.694,723.548 684.854,724.286 687.015,725.015 689.175,725.738 691.336,726.454 693.496,727.162 695.657,727.863 697.817,728.558 699.978,729.245 702.138,729.926 704.299,730.6 706.459,731.267 708.62,731.928 710.78,732.582 712.941,733.229 715.101,733.87 717.262,734.505 719.422,735.134 721.583,735.756 723.743,736.372 725.904,736.982 728.064,737.586 730.225,738.185 732.385,738.777 734.546,739.363 736.706,739.944 738.867,740.519 741.027,741.088 743.188,741.652 745.348,742.21 747.509,742.762 749.669,743.309 751.83,743.851 753.99,744.387 756.151,744.918 758.311,745.443 760.472,745.963 762.632,746.479 764.793,746.989 766.953,747.493 769.114,747.993 771.274,748.488 773.435,748.978 775.595,749.463 777.756,749.943 779.916,750.419 782.077,750.889 784.237,751.355 786.398,751.816 788.558,752.273 790.719,752.725 792.879,753.172 795.04,753.615 797.2,754.054 799.361,754.488 801.521,754.918 803.681,755.343 805.842,755.764 808.002,756.181 810.163,756.594 812.323,757.002 814.484,757.407 816.644,757.807 818.805,758.204 820.965,758.596 823.126,758.985 825.286,759.369 827.447,759.75 829.607,760.127 831.768,760.5 833.928,760.869 836.089,761.235 838.249,761.597 840.41,761.955 842.57,762.31 844.731,762.661 846.891,763.009 849.052,763.353 851.212,763.694 853.373,764.031 855.533,764.365 857.694,764.696 859.854,765.023 862.015,765.347 864.175,765.668 866.336,765.985 868.496,766.3 870.657,766.611 872.817,766.92 874.978,767.225 877.138,767.527 879.299,767.826 881.459,768.122 883.62,768.416 885.78,768.706 887.941,768.994 890.101,769.278 892.262,769.56 894.422,769.839 896.583,770.116 898.743,770.389 900.904,770.66 903.064,770.929 905.225,771.194 907.385,771.457 909.546,771.718 911.706,771.976 913.867,772.232 916.027,772.485 918.188,772.735 920.348,772.983 922.509,773.229 924.669,773.472 926.83,773.713 928.99,773.952 931.151,774.188 933.311,774.422 935.472,774.653 937.632,774.883 939.793,775.11 941.953,775.335 944.114,775.557 946.274,775.778 948.435,775.996 950.595,776.212 952.756,776.426 954.916,776.637 957.077,776.847 959.237,777.054 961.398,777.26 963.558,777.463 965.719,777.665 967.879,777.864 970.04,778.061 972.2,778.257 974.361,778.45 976.521,778.642 978.682,778.831 980.842,779.019 983.003,779.204 985.163,779.388 987.324,779.57 989.484,779.75 991.645,779.929 993.805,780.105 995.965,780.28 998.126,780.453 1000.29,780.624 1002.45,780.794 1004.61,780.962 1006.77,781.128 1008.93,781.292 1011.09,781.455 1013.25,781.616 1015.41,781.775 1017.57,781.933 1019.73,782.089 1021.89,782.244 1024.05,782.397 1026.21,782.548 1028.37,782.698 1030.53,782.847 1032.69,782.994 1034.85,783.139 1037.01,783.283 1039.18,783.425 1041.34,783.566 1043.5,783.706 1045.66,783.844 1047.82,783.981 1049.98,784.116 1052.14,784.25 1054.3,784.383 1056.46,784.514 1058.62,784.644 1060.78,784.773 1062.94,784.9 1065.1,785.027 1067.26,785.151 1069.42,785.275 1071.58,785.397 1073.74,785.518 1075.9,785.638 1078.06,785.757 1080.22,785.875 1082.39,785.991 1084.55,786.106 1086.71,786.22 1088.87,786.333 1091.03,786.445 1093.19,786.556 1095.35,786.665 1097.51,786.774 1099.67,786.881 1101.83,786.988 1103.99,787.093 1106.15,787.197 1108.31,787.301 1110.47,787.403 1112.63,787.504 1114.79,787.605 1116.95,787.704 1119.11,787.802 1121.27,787.9 1123.43,787.997 1125.6,788.092 1127.76,788.187 1129.92,788.281 1132.08,788.374 1134.24,788.466 1136.4,788.557 1138.56,788.647 1140.72,788.737 1142.88,788.826 1145.04,788.913 1147.2,789 1149.36,789.087 1151.52,789.172 1153.68,789.256 1155.84,789.34 1158,789.423 1160.16,789.505 1162.32,789.586 1164.48,789.667 1166.64,789.746 1168.81,789.825 1170.97,789.904 1173.13,789.981 1175.29,790.058 1177.45,790.133 1179.61,790.209 1181.77,790.283 1183.93,790.357 1186.09,790.429 1188.25,790.502 1190.41,790.573 1192.57,790.644 1194.73,790.714 1196.89,790.783 1199.05,790.852 1201.21,790.92 1203.37,790.987 1205.53,791.054 1207.69,791.12 1209.85,791.185 1212.01,791.249 1214.18,791.313 1216.34,791.377 1218.5,791.439 1220.66,791.501 1222.82,791.562 1224.98,791.623 1227.14,791.683 1229.3,791.743 1231.46,791.802 1233.62,791.86 1235.78,791.918 1237.94,791.975 1240.1,792.031 1242.26,792.087 1244.42,792.142 1246.58,792.197 1248.74,792.251 1250.9,792.305 1253.06,792.358 1255.22,792.41 1257.39,792.462 1259.55,792.514 1261.71,792.565 1263.87,792.615 1266.03,792.665 1268.19,792.714 1270.35,792.763 1272.51,792.811 1274.67,792.859 1276.83,792.906 1278.99,792.953 1281.15,792.999 1283.31,793.045 1285.47,793.09 1287.63,793.135 1289.79,793.179 1291.95,793.223 1294.11,793.267 1296.27,793.31 1298.43,793.352 1300.6,793.394 1302.76,793.436 1304.92,793.477 1307.08,793.518 1309.24,793.559 1311.4,793.599 1313.56,793.638 1315.72,793.677 1317.88,793.716 1320.04,793.754 1322.2,793.792 1324.36,793.83 1326.52,793.867 1328.68,793.904 1330.84,793.94 1333,793.976 1335.16,794.012 1337.32,794.047 1339.48,794.082 1341.64,794.117 1343.81,794.151 1345.97,794.185 1348.13,794.219 1350.29,794.252 1352.45,794.285 1354.61,794.318 1356.77,794.35 1358.93,794.382 1361.09,794.414 1363.25,794.445 1365.41,794.476 1367.57,794.507 1369.73,794.538 1371.89,794.568 1374.05,794.598 1376.21,794.628 1378.37,794.657 1380.53,794.686 1382.69,794.715 1384.85,794.744 1387.01,794.772 1389.18,794.8 1391.34,794.828 1393.5,794.856 1395.66,794.883 1397.82,794.911 1399.98,794.938 1402.14,794.964 1404.3,794.991 1406.46,795.017 1408.62,795.043 1410.78,795.069 1412.94,795.094 1415.1,795.12 1417.26,795.145 1419.42,795.17 1421.58,795.194 1423.74,795.219 1425.9,795.243 1428.06,795.267 1430.22,795.29 1432.39,795.314 1434.55,795.337 1436.71,795.36 1438.87,795.383 1441.03,795.406 1443.19,795.428 1445.35,795.45 1447.51,795.472 1449.67,795.494 1451.83,795.516 1453.99,795.537 1456.15,795.558 1458.31,795.579 1460.47,795.6 1462.63,795.62 1464.79,795.641 1466.95,795.661 1469.11,795.681 1471.27,795.701 1473.43,795.72 1475.6,795.739 1477.76,795.759 1479.92,795.777 1482.08,795.796 1484.24,795.815 1486.4,795.833 1488.56,795.851 1490.72,795.869 1492.88,795.887 1495.04,795.905 1497.2,795.922 1499.36,795.939 1501.52,795.956 1503.68,795.973 1505.84,795.99 1508,796.007 1510.16,796.023 1512.32,796.039 1514.48,796.055 1516.64,796.071 1518.81,796.087 1520.97,796.102 1523.13,796.118 1525.29,796.133 1527.45,796.148 1529.61,796.163 1531.77,796.177 1533.93,796.192 1536.09,796.206 1538.25,796.22 1540.41,796.234 1542.57,796.248 1544.73,796.262 1546.89,796.276 1549.05,796.289 1551.21,796.302 1553.37,796.316 1555.53,796.329 1557.69,796.341 1559.85,796.354 1562.01,796.367 1564.18,796.379 1566.34,796.391 1568.5,796.404 1570.66,796.416 1572.82,796.428 1574.98,796.439 1577.14,796.451 1579.3,796.462 1581.46,796.474 1583.62,796.485 1585.78,796.496 1587.94,796.507 1590.1,796.518 1592.26,796.529 1594.42,796.539 1596.58,796.55 1598.74,796.56 1600.9,796.57 1603.06,796.581 1605.22,796.591 1607.39,796.601 1609.55,796.61 1611.71,796.62 1613.87,796.63 1616.03,796.639 1618.19,796.649 1620.35,796.658 1622.51,796.667 1624.67,796.676 1626.83,796.685 1628.99,796.694 1631.15,796.703 1633.31,796.711 1635.47,796.72 1637.63,796.729 1639.79,796.737 1641.95,796.745 1644.11,796.754 1646.27,796.762 1648.43,796.77 1650.6,796.778 1652.76,796.786 1654.92,796.794 1657.08,796.801 1659.24,796.809 1661.4,796.817 1663.56,796.824 1665.72,796.832 1667.88,796.839 1670.04,796.846 1672.2,796.854 1674.36,796.861 1676.52,796.868 1678.68,796.875 1680.84,796.882 1683,796.889 1685.16,796.896 1687.32,796.903 1689.48,796.91 1691.64,796.917 1693.81,796.923 1695.97,796.93 1698.13,796.936 1700.29,796.943 1702.45,796.95 1704.61,796.956 1706.77,796.962 1708.93,796.969 1711.09,796.975 1713.25,796.982 1715.41,796.988 1717.57,796.994 1719.73,797 1721.89,797.006 1724.05,797.013 1726.21,797.019 1728.37,797.025 1730.53,797.031 1732.69,797.037 1734.85,797.042 1737.02,797.048 1739.18,797.054 1741.34,797.06 1743.5,797.065 1745.66,797.071 1747.82,797.077 1749.98,797.082 1752.14,797.088 1754.3,797.093 1756.46,797.099 1758.62,797.104 1760.78,797.109 1762.94,797.115 1765.1,797.12 1767.26,797.125 1769.42,797.13 1771.58,797.135 1773.74,797.14 1775.9,797.145 1778.06,797.15 1780.22,797.155 1782.39,797.16 1784.55,797.165 1786.71,797.17 1788.87,797.174 1791.03,797.179 1793.19,797.184 1795.35,797.188 1797.51,797.193 1799.67,797.197 1801.83,797.202 1803.99,797.206 1806.15,797.21 1808.31,797.215 1810.47,797.219 1812.63,797.223 1814.79,797.227 1816.95,797.232 1819.11,797.236 1821.27,797.24 1823.43,797.244 1825.6,797.248 1827.76,797.252 1829.92,797.256 1832.08,797.259 1834.24,797.263 1836.4,797.267 1838.56,797.271 1840.72,797.274 1842.88,797.278 1845.04,797.282 1847.2,797.285 1849.36,797.289 1851.52,797.292 1853.68,797.296 1855.84,797.299 1858,797.302 1860.16,797.306 1862.32,797.309 1864.48,797.312 1866.64,797.315 1868.81,797.319 1870.97,797.322 1873.13,797.325 1875.29,797.328 1877.45,797.331 1879.61,797.334 1881.77,797.337 1883.93,797.34 1886.09,797.343 1888.25,797.345 1890.41,797.348 1892.57,797.351 1894.73,797.354 1896.89,797.356 1899.05,797.359 1901.21,797.362 1903.37,797.364 1905.53,797.367 1907.69,797.369 1909.85,797.372 1912.02,797.374 1914.18,797.377 1916.34,797.379 1918.5,797.382 1920.66,797.384 1922.82,797.386 1924.98,797.388 1927.14,797.391 1929.3,797.393 1931.46,797.395 1933.62,797.397 1935.78,797.399 1937.94,797.401 1940.1,797.404 1942.26,797.406 1944.42,797.408 1946.58,797.41 1948.74,797.411 1950.9,797.413 1953.06,797.415 1955.22,797.417 1957.39,797.419 1959.55,797.421 1961.71,797.423 1963.87,797.424 1966.03,797.426 1968.19,797.428 1970.35,797.43 1972.51,797.431 1974.67,797.433 1976.83,797.435 1978.99,797.436 1981.15,797.438 1983.31,797.439 1985.47,797.441 1987.63,797.442 1989.79,797.444 1991.95,797.445 1994.11,797.447 1996.27,797.448 1998.43,797.45 2000.6,797.451 2002.76,797.453 2004.92,797.454 2007.08,797.455 2009.24,797.457 2011.4,797.458 2013.56,797.459 2015.72,797.461 2017.88,797.462 2020.04,797.463 2022.2,797.464 2024.36,797.466 2026.52,797.467 2028.68,797.468 2030.84,797.469 2033,797.471 2035.16,797.472 2037.32,797.473 2039.48,797.474 2041.64,797.475 2043.81,797.476 2045.97,797.478 2048.13,797.479 2050.29,797.48 2052.45,797.481 2054.61,797.482 2056.77,797.483 2058.93,797.484 2061.09,797.485 2063.25,797.486 2065.41,797.488 2067.57,797.489 2069.73,797.49 2071.89,797.491 2074.05,797.492 2076.21,797.493 2078.37,797.494 2080.53,797.495 2082.69,797.496 2084.85,797.497 2087.02,797.498 2089.18,797.499 2091.34,797.501 2093.5,797.502 2095.66,797.503 2097.82,797.504 2099.98,797.505 2102.14,797.506 2104.3,797.507 2106.46,797.508 2108.62,797.509 2110.78,797.51 2112.94,797.512 2115.1,797.513 2117.26,797.514 2119.42,797.515 2121.58,797.516 2123.74,797.517 2125.9,797.518 2128.06,797.519 2130.22,797.52 2132.39,797.521 2134.55,797.522 2136.71,797.523 2138.87,797.524 2141.03,797.525 2143.19,797.525 2145.35,797.526 2147.51,797.527 2149.67,797.528 2151.83,797.529 2153.99,797.53 2156.15,797.531 2158.31,797.532 2160.47,797.533 2162.63,797.533 2164.79,797.534 2166.95,797.535 2169.11,797.536 2171.27,797.537 2173.43,797.538 2175.6,797.538 2177.76,797.539 2179.92,797.54 2182.08,797.541 2184.24,797.542 2186.4,797.542 2188.56,797.543 2190.72,797.544 2192.88,797.545 2195.04,797.545 2197.2,797.546 2199.36,797.547 2201.52,797.547 2203.68,797.548 2205.84,797.549 2208,797.549 2210.16,797.55 2212.32,797.551 2214.48,797.551 2216.64,797.552 2218.81,797.553 2220.97,797.553 2223.13,797.554 2225.29,797.555 2227.45,797.555 2229.61,797.556 2231.77,797.557 2233.93,797.557 2236.09,797.558 2238.25,797.558 2240.41,797.559 2242.57,797.56 2244.73,797.56 2246.89,797.561 2249.05,797.561 2251.21,797.562 2253.37,797.562 2255.53,797.563 2257.69,797.563 2259.85,797.564 2262.02,797.565 2264.18,797.565 2266.34,797.566 2268.5,797.566 2270.66,797.567 2272.82,797.567 2274.98,797.568 2277.14,797.568 2279.3,797.569 2281.46,797.569 2283.62,797.57 2285.78,797.57 2287.94,797.571 2290.1,797.571 2292.26,797.571 2294.42,797.572 2296.58,797.572 2298.74,797.573 2300.9,797.573 2303.06,797.574 2305.23,797.574 2307.39,797.575 2309.55,797.575 2311.71,797.575 2313.87,797.576 2316.03,797.576 2318.19,797.577 2320.35,797.577 2322.51,797.577 2324.67,797.578 2326.83,797.578 2328.99,797.579 2331.15,797.579 2333.31,797.579 2335.47,797.58 2337.63,797.58 2339.79,797.58 2341.95,797.581 2344.11,797.581 2346.27,797.582 2348.43,797.582 2350.6,797.582 2352.76,797.583 "/>
<polyline clip-path="url(#clip432)" style="stroke:#e26f46; stroke-linecap:round; stroke-linejoin:round; stroke-width:4; stroke-opacity:1; fill:none" points="194.422,1384.24 196.583,1379.69 198.743,1375.17 200.904,1370.7 203.064,1366.26 205.225,1361.86 207.385,1357.49 209.546,1353.16 211.706,1348.87 213.867,1344.61 216.027,1340.38 218.188,1336.2 220.348,1332.04 222.509,1327.92 224.669,1323.83 226.83,1319.78 228.99,1315.76 231.151,1311.77 233.311,1307.82 235.471,1303.9 237.632,1300.01 239.792,1296.15 241.953,1292.32 244.113,1288.53 246.274,1284.76 248.434,1281.03 250.595,1277.33 252.755,1273.66 254.916,1270.01 257.076,1266.4 259.237,1262.82 261.397,1259.26 263.558,1255.74 265.718,1252.24 267.879,1248.77 270.039,1245.33 272.2,1241.92 274.36,1238.53 276.521,1235.18 278.681,1231.85 280.842,1228.55 283.002,1225.27 285.163,1222.02 287.323,1218.8 289.484,1215.6 291.644,1212.43 293.805,1209.28 295.965,1206.16 298.126,1203.07 300.286,1200 302.447,1196.95 304.607,1193.93 306.768,1190.94 308.928,1187.97 311.089,1185.02 313.249,1182.09 315.41,1179.19 317.57,1176.32 319.731,1173.46 321.891,1170.63 324.052,1167.82 326.212,1165.04 328.373,1162.27 330.533,1159.53 332.694,1156.81 334.854,1154.11 337.015,1151.44 339.175,1148.78 341.336,1146.15 343.496,1143.54 345.657,1140.94 347.817,1138.37 349.978,1135.82 352.138,1133.29 354.299,1130.78 356.459,1128.29 358.62,1125.82 360.78,1123.37 362.941,1120.94 365.101,1118.53 367.262,1116.14 369.422,1113.76 371.583,1111.41 373.743,1109.07 375.904,1106.76 378.064,1104.46 380.225,1102.18 382.385,1099.91 384.546,1097.67 386.706,1095.44 388.867,1093.23 391.027,1091.04 393.188,1088.87 395.348,1086.71 397.509,1084.57 399.669,1082.45 401.83,1080.34 403.99,1078.25 406.151,1076.18 408.311,1074.12 410.472,1072.08 412.632,1070.05 414.793,1068.05 416.953,1066.05 419.114,1064.07 421.274,1062.11 423.435,1060.17 425.595,1058.23 427.755,1056.32 429.916,1054.42 432.076,1052.53 434.237,1050.66 436.397,1048.8 438.558,1046.96 440.718,1045.13 442.879,1043.32 445.039,1041.52 447.2,1039.73 449.36,1037.96 451.521,1036.2 453.681,1034.46 455.842,1032.73 458.002,1031.01 460.163,1029.31 462.323,1027.62 464.484,1025.94 466.644,1024.28 468.805,1022.62 470.965,1020.99 473.126,1019.36 475.286,1017.75 477.447,1016.15 479.607,1014.56 481.768,1012.98 483.928,1011.42 486.089,1009.87 488.249,1008.33 490.41,1006.8 492.57,1005.28 494.731,1003.78 496.891,1002.29 499.052,1000.8 501.212,999.335 503.373,997.876 505.533,996.429 507.694,994.993 509.854,993.568 512.015,992.154 514.175,990.751 516.336,989.359 518.496,987.977 520.657,986.606 522.817,985.246 524.978,983.896 527.138,982.556 529.299,981.227 531.459,979.907 533.62,978.598 535.78,977.299 537.941,976.01 540.101,974.73 542.262,973.461 544.422,972.201 546.583,970.95 548.743,969.709 550.904,968.478 553.064,967.256 555.225,966.043 557.385,964.84 559.546,963.645 561.706,962.46 563.867,961.284 566.027,960.116 568.188,958.958 570.348,957.808 572.509,956.667 574.669,955.534 576.83,954.41 578.99,953.295 581.151,952.188 583.311,951.089 585.472,949.998 587.632,948.916 589.793,947.842 591.953,946.776 594.114,945.718 596.274,944.668 598.435,943.626 600.595,942.592 602.756,941.566 604.916,940.547 607.077,939.536 609.237,938.533 611.398,937.537 613.558,936.548 615.718,935.567 617.879,934.594 620.039,933.628 622.2,932.669 624.36,931.717 626.521,930.772 628.681,929.835 630.842,928.904 633.002,927.98 635.163,927.064 637.323,926.154 639.484,925.251 641.644,924.355 643.805,923.465 645.965,922.582 648.126,921.706 650.286,920.836 652.447,919.973 654.607,919.116 656.768,918.265 658.928,917.421 661.089,916.583 663.249,915.752 665.41,914.926 667.57,914.107 669.731,913.294 671.891,912.486 674.052,911.685 676.212,910.89 678.373,910.1 680.533,909.317 682.694,908.539 684.854,907.767 687.015,907 689.175,906.24 691.336,905.485 693.496,904.735 695.657,903.991 697.817,903.252 699.978,902.519 702.138,901.791 704.299,901.069 706.459,900.352 708.62,899.64 710.78,898.933 712.941,898.232 715.101,897.536 717.262,896.844 719.422,896.158 721.583,895.477 723.743,894.801 725.904,894.129 728.064,893.463 730.225,892.801 732.385,892.144 734.546,891.492 736.706,890.845 738.867,890.202 741.027,889.565 743.188,888.931 745.348,888.303 747.509,887.678 749.669,887.059 751.83,886.444 753.99,885.833 756.151,885.227 758.311,884.625 760.472,884.028 762.632,883.435 764.793,882.846 766.953,882.262 769.114,881.681 771.274,881.105 773.435,880.533 775.595,879.966 777.756,879.402 779.916,878.843 782.077,878.287 784.237,877.736 786.398,877.188 788.558,876.645 790.719,876.105 792.879,875.57 795.04,875.038 797.2,874.51 799.361,873.986 801.521,873.466 803.681,872.949 805.842,872.436 808.002,871.927 810.163,871.422 812.323,870.92 814.484,870.422 816.644,869.927 818.805,869.436 820.965,868.949 823.126,868.465 825.286,867.984 827.447,867.507 829.607,867.034 831.768,866.564 833.928,866.097 836.089,865.633 838.249,865.173 840.41,864.716 842.57,864.263 844.731,863.812 846.891,863.365 849.052,862.921 851.212,862.48 853.373,862.043 855.533,861.608 857.694,861.177 859.854,860.748 862.015,860.323 864.175,859.901 866.336,859.481 868.496,859.065 870.657,858.652 872.817,858.241 874.978,857.833 877.138,857.429 879.299,857.027 881.459,856.628 883.62,856.232 885.78,855.838 887.941,855.448 890.101,855.06 892.262,854.675 894.422,854.292 896.583,853.912 898.743,853.535 900.904,853.161 903.064,852.789 905.225,852.42 907.385,852.053 909.546,851.689 911.706,851.327 913.867,850.968 916.027,850.612 918.188,850.258 920.348,849.906 922.509,849.557 924.669,849.21 926.83,848.866 928.99,848.524 931.151,848.184 933.311,847.847 935.472,847.512 937.632,847.179 939.793,846.849 941.953,846.521 944.114,846.196 946.274,845.872 948.435,845.551 950.595,845.232 952.756,844.916 954.916,844.601 957.077,844.289 959.237,843.979 961.398,843.671 963.558,843.365 965.719,843.062 967.879,842.76 970.04,842.461 972.2,842.163 974.361,841.868 976.521,841.575 978.682,841.284 980.842,840.995 983.003,840.708 985.163,840.423 987.324,840.14 989.484,839.858 991.645,839.579 993.805,839.302 995.965,839.027 998.126,838.753 1000.29,838.482 1002.45,838.212 1004.61,837.945 1006.77,837.679 1008.93,837.415 1011.09,837.153 1013.25,836.892 1015.41,836.634 1017.57,836.377 1019.73,836.122 1021.89,835.869 1024.05,835.617 1026.21,835.368 1028.37,835.12 1030.53,834.874 1032.69,834.629 1034.85,834.386 1037.01,834.145 1039.18,833.905 1041.34,833.668 1043.5,833.431 1045.66,833.197 1047.82,832.964 1049.98,832.733 1052.14,832.503 1054.3,832.275 1056.46,832.048 1058.62,831.823 1060.78,831.599 1062.94,831.377 1065.1,831.157 1067.26,830.938 1069.42,830.721 1071.58,830.505 1073.74,830.29 1075.9,830.077 1078.06,829.866 1080.22,829.655 1082.39,829.447 1084.55,829.239 1086.71,829.034 1088.87,828.829 1091.03,828.626 1093.19,828.424 1095.35,828.224 1097.51,828.025 1099.67,827.827 1101.83,827.631 1103.99,827.436 1106.15,827.242 1108.31,827.05 1110.47,826.859 1112.63,826.669 1114.79,826.48 1116.95,826.293 1119.11,826.107 1121.27,825.922 1123.43,825.739 1125.6,825.556 1127.76,825.375 1129.92,825.195 1132.08,825.016 1134.24,824.839 1136.4,824.662 1138.56,824.487 1140.72,824.313 1142.88,824.14 1145.04,823.968 1147.2,823.798 1149.36,823.628 1151.52,823.46 1153.68,823.293 1155.84,823.127 1158,822.962 1160.16,822.798 1162.32,822.635 1164.48,822.473 1166.64,822.312 1168.81,822.153 1170.97,821.994 1173.13,821.837 1175.29,821.68 1177.45,821.525 1179.61,821.37 1181.77,821.217 1183.93,821.065 1186.09,820.914 1188.25,820.763 1190.41,820.614 1192.57,820.466 1194.73,820.318 1196.89,820.172 1199.05,820.027 1201.21,819.883 1203.37,819.739 1205.53,819.597 1207.69,819.455 1209.85,819.315 1212.01,819.175 1214.18,819.037 1216.34,818.899 1218.5,818.762 1220.66,818.626 1222.82,818.491 1224.98,818.357 1227.14,818.224 1229.3,818.092 1231.46,817.961 1233.62,817.83 1235.78,817.701 1237.94,817.572 1240.1,817.444 1242.26,817.317 1244.42,817.191 1246.58,817.066 1248.74,816.941 1250.9,816.818 1253.06,816.695 1255.22,816.573 1257.39,816.452 1259.55,816.332 1261.71,816.212 1263.87,816.093 1266.03,815.975 1268.19,815.858 1270.35,815.742 1272.51,815.626 1274.67,815.512 1276.83,815.398 1278.99,815.284 1281.15,815.172 1283.31,815.06 1285.47,814.949 1287.63,814.839 1289.79,814.729 1291.95,814.621 1294.11,814.513 1296.27,814.405 1298.43,814.299 1300.6,814.193 1302.76,814.087 1304.92,813.983 1307.08,813.879 1309.24,813.776 1311.4,813.673 1313.56,813.572 1315.72,813.471 1317.88,813.37 1320.04,813.27 1322.2,813.171 1324.36,813.073 1326.52,812.975 1328.68,812.878 1330.84,812.781 1333,812.685 1335.16,812.59 1337.32,812.495 1339.48,812.401 1341.64,812.308 1343.81,812.215 1345.97,812.123 1348.13,812.031 1350.29,811.94 1352.45,811.85 1354.61,811.76 1356.77,811.671 1358.93,811.582 1361.09,811.494 1363.25,811.407 1365.41,811.32 1367.57,811.233 1369.73,811.147 1371.89,811.062 1374.05,810.977 1376.21,810.893 1378.37,810.809 1380.53,810.726 1382.69,810.644 1384.85,810.561 1387.01,810.48 1389.18,810.399 1391.34,810.318 1393.5,810.238 1395.66,810.159 1397.82,810.079 1399.98,810.001 1402.14,809.923 1404.3,809.845 1406.46,809.768 1408.62,809.692 1410.78,809.615 1412.94,809.54 1415.1,809.465 1417.26,809.39 1419.42,809.316 1421.58,809.242 1423.74,809.169 1425.9,809.096 1428.06,809.023 1430.22,808.951 1432.39,808.88 1434.55,808.809 1436.71,808.738 1438.87,808.668 1441.03,808.599 1443.19,808.53 1445.35,808.461 1447.51,808.392 1449.67,808.325 1451.83,808.257 1453.99,808.19 1456.15,808.124 1458.31,808.057 1460.47,807.992 1462.63,807.926 1464.79,807.861 1466.95,807.797 1469.11,807.733 1471.27,807.669 1473.43,807.606 1475.6,807.543 1477.76,807.481 1479.92,807.419 1482.08,807.357 1484.24,807.296 1486.4,807.235 1488.56,807.175 1490.72,807.115 1492.88,807.055 1495.04,806.996 1497.2,806.937 1499.36,806.879 1501.52,806.821 1503.68,806.763 1505.84,806.705 1508,806.649 1510.16,806.592 1512.32,806.536 1514.48,806.48 1516.64,806.424 1518.81,806.369 1520.97,806.314 1523.13,806.26 1525.29,806.206 1527.45,806.152 1529.61,806.099 1531.77,806.046 1533.93,805.993 1536.09,805.941 1538.25,805.889 1540.41,805.837 1542.57,805.786 1544.73,805.735 1546.89,805.684 1549.05,805.634 1551.21,805.584 1553.37,805.535 1555.53,805.485 1557.69,805.436 1559.85,805.388 1562.01,805.339 1564.18,805.291 1566.34,805.243 1568.5,805.196 1570.66,805.149 1572.82,805.102 1574.98,805.056 1577.14,805.009 1579.3,804.964 1581.46,804.918 1583.62,804.873 1585.78,804.828 1587.94,804.783 1590.1,804.739 1592.26,804.695 1594.42,804.651 1596.58,804.607 1598.74,804.564 1600.9,804.521 1603.06,804.478 1605.22,804.436 1607.39,804.394 1609.55,804.352 1611.71,804.31 1613.87,804.269 1616.03,804.228 1618.19,804.187 1620.35,804.146 1622.51,804.106 1624.67,804.066 1626.83,804.026 1628.99,803.987 1631.15,803.947 1633.31,803.908 1635.47,803.87 1637.63,803.831 1639.79,803.793 1641.95,803.755 1644.11,803.717 1646.27,803.68 1648.43,803.642 1650.6,803.605 1652.76,803.568 1654.92,803.532 1657.08,803.495 1659.24,803.459 1661.4,803.423 1663.56,803.388 1665.72,803.352 1667.88,803.317 1670.04,803.282 1672.2,803.247 1674.36,803.212 1676.52,803.178 1678.68,803.144 1680.84,803.11 1683,803.076 1685.16,803.042 1687.32,803.009 1689.48,802.976 1691.64,802.943 1693.81,802.91 1695.97,802.878 1698.13,802.845 1700.29,802.813 1702.45,802.781 1704.61,802.749 1706.77,802.718 1708.93,802.686 1711.09,802.655 1713.25,802.624 1715.41,802.593 1717.57,802.562 1719.73,802.532 1721.89,802.501 1724.05,802.471 1726.21,802.441 1728.37,802.411 1730.53,802.382 1732.69,802.352 1734.85,802.323 1737.02,802.294 1739.18,802.265 1741.34,802.236 1743.5,802.208 1745.66,802.179 1747.82,802.151 1749.98,802.123 1752.14,802.095 1754.3,802.068 1756.46,802.04 1758.62,802.013 1760.78,801.985 1762.94,801.958 1765.1,801.931 1767.26,801.905 1769.42,801.878 1771.58,801.852 1773.74,801.826 1775.9,801.8 1778.06,801.774 1780.22,801.748 1782.39,801.722 1784.55,801.697 1786.71,801.672 1788.87,801.647 1791.03,801.622 1793.19,801.597 1795.35,801.572 1797.51,801.548 1799.67,801.523 1801.83,801.499 1803.99,801.475 1806.15,801.451 1808.31,801.428 1810.47,801.404 1812.63,801.38 1814.79,801.357 1816.95,801.334 1819.11,801.311 1821.27,801.288 1823.43,801.266 1825.6,801.243 1827.76,801.221 1829.92,801.198 1832.08,801.176 1834.24,801.154 1836.4,801.132 1838.56,801.111 1840.72,801.089 1842.88,801.068 1845.04,801.046 1847.2,801.025 1849.36,801.004 1851.52,800.983 1853.68,800.962 1855.84,800.942 1858,800.921 1860.16,800.901 1862.32,800.881 1864.48,800.861 1866.64,800.841 1868.81,800.821 1870.97,800.801 1873.13,800.782 1875.29,800.762 1877.45,800.743 1879.61,800.724 1881.77,800.704 1883.93,800.686 1886.09,800.667 1888.25,800.648 1890.41,800.629 1892.57,800.611 1894.73,800.593 1896.89,800.574 1899.05,800.556 1901.21,800.538 1903.37,800.52 1905.53,800.503 1907.69,800.485 1909.85,800.467 1912.02,800.45 1914.18,800.433 1916.34,800.415 1918.5,800.398 1920.66,800.381 1922.82,800.365 1924.98,800.348 1927.14,800.331 1929.3,800.315 1931.46,800.298 1933.62,800.282 1935.78,800.266 1937.94,800.25 1940.1,800.234 1942.26,800.218 1944.42,800.202 1946.58,800.186 1948.74,800.171 1950.9,800.155 1953.06,800.14 1955.22,800.124 1957.39,800.109 1959.55,800.094 1961.71,800.079 1963.87,800.064 1966.03,800.049 1968.19,800.035 1970.35,800.02 1972.51,800.005 1974.67,799.991 1976.83,799.977 1978.99,799.962 1981.15,799.948 1983.31,799.934 1985.47,799.92 1987.63,799.906 1989.79,799.893 1991.95,799.879 1994.11,799.865 1996.27,799.852 1998.43,799.838 2000.6,799.825 2002.76,799.812 2004.92,799.798 2007.08,799.785 2009.24,799.772 2011.4,799.759 2013.56,799.746 2015.72,799.734 2017.88,799.721 2020.04,799.708 2022.2,799.696 2024.36,799.683 2026.52,799.671 2028.68,799.658 2030.84,799.646 2033,799.634 2035.16,799.622 2037.32,799.61 2039.48,799.598 2041.64,799.586 2043.81,799.574 2045.97,799.562 2048.13,799.551 2050.29,799.539 2052.45,799.528 2054.61,799.516 2056.77,799.505 2058.93,799.493 2061.09,799.482 2063.25,799.471 2065.41,799.46 2067.57,799.449 2069.73,799.438 2071.89,799.427 2074.05,799.416 2076.21,799.405 2078.37,799.394 2080.53,799.383 2082.69,799.373 2084.85,799.362 2087.02,799.352 2089.18,799.341 2091.34,799.331 2093.5,799.32 2095.66,799.31 2097.82,799.3 2099.98,799.289 2102.14,799.279 2104.3,799.269 2106.46,799.259 2108.62,799.249 2110.78,799.239 2112.94,799.229 2115.1,799.219 2117.26,799.21 2119.42,799.2 2121.58,799.19 2123.74,799.181 2125.9,799.171 2128.06,799.162 2130.22,799.152 2132.39,799.143 2134.55,799.134 2136.71,799.125 2138.87,799.115 2141.03,799.106 2143.19,799.097 2145.35,799.088 2147.51,799.079 2149.67,799.07 2151.83,799.062 2153.99,799.053 2156.15,799.044 2158.31,799.035 2160.47,799.027 2162.63,799.018 2164.79,799.01 2166.95,799.001 2169.11,798.993 2171.27,798.984 2173.43,798.976 2175.6,798.968 2177.76,798.96 2179.92,798.952 2182.08,798.943 2184.24,798.935 2186.4,798.927 2188.56,798.919 2190.72,798.912 2192.88,798.904 2195.04,798.896 2197.2,798.888 2199.36,798.88 2201.52,798.873 2203.68,798.865 2205.84,798.858 2208,798.85 2210.16,798.843 2212.32,798.835 2214.48,798.828 2216.64,798.82 2218.81,798.813 2220.97,798.806 2223.13,798.799 2225.29,798.791 2227.45,798.784 2229.61,798.777 2231.77,798.77 2233.93,798.763 2236.09,798.756 2238.25,798.749 2240.41,798.743 2242.57,798.736 2244.73,798.729 2246.89,798.722 2249.05,798.715 2251.21,798.709 2253.37,798.702 2255.53,798.696 2257.69,798.689 2259.85,798.683 2262.02,798.676 2264.18,798.67 2266.34,798.663 2268.5,798.657 2270.66,798.651 2272.82,798.644 2274.98,798.638 2277.14,798.632 2279.3,798.626 2281.46,798.62 2283.62,798.614 2285.78,798.608 2287.94,798.602 2290.1,798.596 2292.26,798.59 2294.42,798.584 2296.58,798.578 2298.74,798.572 2300.9,798.567 2303.06,798.561 2305.23,798.555 2307.39,798.549 2309.55,798.544 2311.71,798.538 2313.87,798.533 2316.03,798.527 2318.19,798.522 2320.35,798.516 2322.51,798.511 2324.67,798.505 2326.83,798.5 2328.99,798.495 2331.15,798.489 2333.31,798.484 2335.47,798.479 2337.63,798.474 2339.79,798.468 2341.95,798.463 2344.11,798.458 2346.27,798.453 2348.43,798.448 2350.6,798.443 2352.76,798.438 "/>
<path clip-path="url(#clip430)" d="M1805.58 248.629 L2280.81 248.629 L2280.81 93.1086 L1805.58 93.1086  Z" fill="#ffffff" fill-rule="evenodd" fill-opacity="1"/>
<polyline clip-path="url(#clip430)" style="stroke:#000000; stroke-linecap:round; stroke-linejoin:round; stroke-width:4; stroke-opacity:1; fill:none" points="1805.58,248.629 2280.81,248.629 2280.81,93.1086 1805.58,93.1086 1805.58,248.629 "/>
<polyline clip-path="url(#clip430)" style="stroke:#009af9; stroke-linecap:round; stroke-linejoin:round; stroke-width:4; stroke-opacity:1; fill:none" points="1829.56,144.949 1973.45,144.949 "/>
<path clip-path="url(#clip430)" d="M1997.43 136.303 L2001.95 136.303 L2010.05 158.062 L2018.15 136.303 L2022.66 136.303 L2012.94 162.229 L2007.16 162.229 L1997.43 136.303 Z" fill="#000000" fill-rule="nonzero" fill-opacity="1" /><path clip-path="url(#clip430)" d="M2029.96 158.293 L2037.6 158.293 L2037.6 131.928 L2029.28 133.595 L2029.28 129.335 L2037.55 127.669 L2042.22 127.669 L2042.22 158.293 L2049.86 158.293 L2049.86 162.229 L2029.96 162.229 L2029.96 158.293 Z" fill="#000000" fill-rule="nonzero" fill-opacity="1" /><path clip-path="url(#clip430)" d="M2067.97 145.585 L2067.97 152.807 L2076.09 152.807 L2076.09 155.006 L2067.97 155.006 L2067.97 162.229 L2065.53 162.229 L2065.53 155.006 L2057.41 155.006 L2057.41 152.807 L2065.53 152.807 L2065.53 145.585 L2067.97 145.585 Z" fill="#000000" fill-rule="nonzero" fill-opacity="1" /><path clip-path="url(#clip430)" d="M2100.26 137.067 L2100.26 141.094 Q2098.45 140.169 2096.51 139.706 Q2094.56 139.243 2092.48 139.243 Q2089.31 139.243 2087.71 140.215 Q2086.14 141.187 2086.14 143.131 Q2086.14 144.613 2087.27 145.469 Q2088.4 146.303 2091.83 147.067 L2093.29 147.391 Q2097.83 148.363 2099.72 150.145 Q2101.65 151.905 2101.65 155.076 Q2101.65 158.687 2098.78 160.793 Q2095.93 162.9 2090.93 162.9 Q2088.84 162.9 2086.58 162.483 Q2084.33 162.09 2081.83 161.28 L2081.83 156.881 Q2084.19 158.108 2086.48 158.733 Q2088.78 159.335 2091.02 159.335 Q2094.03 159.335 2095.65 158.317 Q2097.27 157.275 2097.27 155.4 Q2097.27 153.664 2096.09 152.738 Q2094.93 151.812 2090.97 150.956 L2089.49 150.608 Q2085.53 149.775 2083.78 148.062 Q2082.02 146.326 2082.02 143.317 Q2082.02 139.659 2084.61 137.669 Q2087.2 135.678 2091.97 135.678 Q2094.33 135.678 2096.41 136.025 Q2098.5 136.372 2100.26 137.067 Z" fill="#000000" fill-rule="nonzero" fill-opacity="1" /><path clip-path="url(#clip430)" d="M2112.64 128.942 L2112.64 136.303 L2121.41 136.303 L2121.41 139.613 L2112.64 139.613 L2112.64 153.687 Q2112.64 156.858 2113.5 157.761 Q2114.38 158.664 2117.04 158.664 L2121.41 158.664 L2121.41 162.229 L2117.04 162.229 Q2112.11 162.229 2110.23 160.4 Q2108.36 158.548 2108.36 153.687 L2108.36 139.613 L2105.23 139.613 L2105.23 136.303 L2108.36 136.303 L2108.36 128.942 L2112.64 128.942 Z" fill="#000000" fill-rule="nonzero" fill-opacity="1" /><path clip-path="url(#clip430)" d="M2137.06 139.289 Q2133.64 139.289 2131.65 141.974 Q2129.65 144.636 2129.65 149.289 Q2129.65 153.942 2131.62 156.627 Q2133.61 159.289 2137.06 159.289 Q2140.46 159.289 2142.46 156.604 Q2144.45 153.918 2144.45 149.289 Q2144.45 144.682 2142.46 141.997 Q2140.46 139.289 2137.06 139.289 M2137.06 135.678 Q2142.62 135.678 2145.79 139.289 Q2148.96 142.9 2148.96 149.289 Q2148.96 155.655 2145.79 159.289 Q2142.62 162.9 2137.06 162.9 Q2131.48 162.9 2128.31 159.289 Q2125.16 155.655 2125.16 149.289 Q2125.16 142.9 2128.31 139.289 Q2131.48 135.678 2137.06 135.678 Z" fill="#000000" fill-rule="nonzero" fill-opacity="1" /><path clip-path="url(#clip430)" d="M2171.04 140.284 Q2170.33 139.868 2169.47 139.682 Q2168.64 139.474 2167.62 139.474 Q2164.01 139.474 2162.06 141.835 Q2160.14 144.173 2160.14 148.571 L2160.14 162.229 L2155.86 162.229 L2155.86 136.303 L2160.14 136.303 L2160.14 140.331 Q2161.48 137.969 2163.64 136.835 Q2165.79 135.678 2168.87 135.678 Q2169.31 135.678 2169.84 135.747 Q2170.37 135.794 2171.02 135.909 L2171.04 140.284 Z" fill="#000000" fill-rule="nonzero" fill-opacity="1" /><path clip-path="url(#clip430)" d="M2187.29 149.196 Q2182.13 149.196 2180.14 150.377 Q2178.15 151.557 2178.15 154.405 Q2178.15 156.673 2179.63 158.016 Q2181.14 159.335 2183.71 159.335 Q2187.25 159.335 2189.38 156.835 Q2191.53 154.312 2191.53 150.145 L2191.53 149.196 L2187.29 149.196 M2195.79 147.437 L2195.79 162.229 L2191.53 162.229 L2191.53 158.293 Q2190.07 160.655 2187.9 161.789 Q2185.72 162.9 2182.57 162.9 Q2178.59 162.9 2176.23 160.678 Q2173.89 158.432 2173.89 154.682 Q2173.89 150.307 2176.81 148.085 Q2179.75 145.863 2185.56 145.863 L2191.53 145.863 L2191.53 145.446 Q2191.53 142.507 2189.58 140.909 Q2187.66 139.289 2184.17 139.289 Q2181.95 139.289 2179.84 139.821 Q2177.73 140.354 2175.79 141.419 L2175.79 137.483 Q2178.13 136.581 2180.33 136.141 Q2182.52 135.678 2184.61 135.678 Q2190.23 135.678 2193.01 138.594 Q2195.79 141.511 2195.79 147.437 Z" fill="#000000" fill-rule="nonzero" fill-opacity="1" /><path clip-path="url(#clip430)" d="M2221.62 148.965 Q2221.62 144.335 2219.7 141.789 Q2217.8 139.243 2214.35 139.243 Q2210.93 139.243 2209.01 141.789 Q2207.11 144.335 2207.11 148.965 Q2207.11 153.571 2209.01 156.118 Q2210.93 158.664 2214.35 158.664 Q2217.8 158.664 2219.7 156.118 Q2221.62 153.571 2221.62 148.965 M2225.88 159.011 Q2225.88 165.631 2222.94 168.849 Q2220 172.09 2213.94 172.09 Q2211.69 172.09 2209.7 171.742 Q2207.71 171.418 2205.83 170.724 L2205.83 166.58 Q2207.71 167.599 2209.54 168.085 Q2211.37 168.571 2213.27 168.571 Q2217.46 168.571 2219.54 166.372 Q2221.62 164.196 2221.62 159.775 L2221.62 157.668 Q2220.3 159.96 2218.24 161.094 Q2216.18 162.229 2213.31 162.229 Q2208.54 162.229 2205.63 158.594 Q2202.71 154.96 2202.71 148.965 Q2202.71 142.946 2205.63 139.312 Q2208.54 135.678 2213.31 135.678 Q2216.18 135.678 2218.24 136.812 Q2220.3 137.946 2221.62 140.238 L2221.62 136.303 L2225.88 136.303 L2225.88 159.011 Z" fill="#000000" fill-rule="nonzero" fill-opacity="1" /><path clip-path="url(#clip430)" d="M2256.83 148.201 L2256.83 150.284 L2237.25 150.284 Q2237.52 154.682 2239.89 156.997 Q2242.27 159.289 2246.51 159.289 Q2248.96 159.289 2251.25 158.687 Q2253.57 158.085 2255.83 156.881 L2255.83 160.909 Q2253.54 161.881 2251.14 162.391 Q2248.73 162.9 2246.25 162.9 Q2240.05 162.9 2236.41 159.289 Q2232.8 155.678 2232.8 149.52 Q2232.8 143.155 2236.23 139.428 Q2239.68 135.678 2245.51 135.678 Q2250.74 135.678 2253.77 139.057 Q2256.83 142.414 2256.83 148.201 M2252.57 146.951 Q2252.52 143.456 2250.6 141.372 Q2248.71 139.289 2245.56 139.289 Q2241.99 139.289 2239.84 141.303 Q2237.71 143.317 2237.39 146.974 L2252.57 146.951 Z" fill="#000000" fill-rule="nonzero" fill-opacity="1" /><polyline clip-path="url(#clip430)" style="stroke:#e26f46; stroke-linecap:round; stroke-linejoin:round; stroke-width:4; stroke-opacity:1; fill:none" points="1829.56,196.789 1973.45,196.789 "/>
<path clip-path="url(#clip430)" d="M1997.43 188.143 L2001.95 188.143 L2010.05 209.902 L2018.15 188.143 L2022.66 188.143 L2012.94 214.069 L2007.16 214.069 L1997.43 188.143 Z" fill="#000000" fill-rule="nonzero" fill-opacity="1" /><path clip-path="url(#clip430)" d="M2029.19 179.509 L2047.55 179.509 L2047.55 183.444 L2033.47 183.444 L2033.47 191.916 Q2034.49 191.569 2035.51 191.407 Q2036.53 191.222 2037.55 191.222 Q2043.34 191.222 2046.72 194.393 Q2050.09 197.564 2050.09 202.981 Q2050.09 208.559 2046.62 211.661 Q2043.15 214.74 2036.83 214.74 Q2034.66 214.74 2032.39 214.37 Q2030.14 213.999 2027.73 213.258 L2027.73 208.559 Q2029.82 209.694 2032.04 210.249 Q2034.26 210.805 2036.74 210.805 Q2040.74 210.805 2043.08 208.698 Q2045.42 206.592 2045.42 202.981 Q2045.42 199.37 2043.08 197.263 Q2040.74 195.157 2036.74 195.157 Q2034.86 195.157 2032.99 195.573 Q2031.14 195.99 2029.19 196.87 L2029.19 179.509 Z" fill="#000000" fill-rule="nonzero" fill-opacity="1" /><path clip-path="url(#clip430)" d="M2067.97 197.425 L2067.97 204.647 L2076.09 204.647 L2076.09 206.846 L2067.97 206.846 L2067.97 214.069 L2065.53 214.069 L2065.53 206.846 L2057.41 206.846 L2057.41 204.647 L2065.53 204.647 L2065.53 197.425 L2067.97 197.425 Z" fill="#000000" fill-rule="nonzero" fill-opacity="1" /><path clip-path="url(#clip430)" d="M2100.26 188.907 L2100.26 192.934 Q2098.45 192.009 2096.51 191.546 Q2094.56 191.083 2092.48 191.083 Q2089.31 191.083 2087.71 192.055 Q2086.14 193.027 2086.14 194.971 Q2086.14 196.453 2087.27 197.309 Q2088.4 198.143 2091.83 198.907 L2093.29 199.231 Q2097.83 200.203 2099.72 201.985 Q2101.65 203.745 2101.65 206.916 Q2101.65 210.527 2098.78 212.633 Q2095.93 214.74 2090.93 214.74 Q2088.84 214.74 2086.58 214.323 Q2084.33 213.93 2081.83 213.12 L2081.83 208.721 Q2084.19 209.948 2086.48 210.573 Q2088.78 211.175 2091.02 211.175 Q2094.03 211.175 2095.65 210.157 Q2097.27 209.115 2097.27 207.24 Q2097.27 205.504 2096.09 204.578 Q2094.93 203.652 2090.97 202.796 L2089.49 202.448 Q2085.53 201.615 2083.78 199.902 Q2082.02 198.166 2082.02 195.157 Q2082.02 191.499 2084.61 189.509 Q2087.2 187.518 2091.97 187.518 Q2094.33 187.518 2096.41 187.865 Q2098.5 188.212 2100.26 188.907 Z" fill="#000000" fill-rule="nonzero" fill-opacity="1" /><path clip-path="url(#clip430)" d="M2112.64 180.782 L2112.64 188.143 L2121.41 188.143 L2121.41 191.453 L2112.64 191.453 L2112.64 205.527 Q2112.64 208.698 2113.5 209.601 Q2114.38 210.504 2117.04 210.504 L2121.41 210.504 L2121.41 214.069 L2117.04 214.069 Q2112.11 214.069 2110.23 212.24 Q2108.36 210.388 2108.36 205.527 L2108.36 191.453 L2105.23 191.453 L2105.23 188.143 L2108.36 188.143 L2108.36 180.782 L2112.64 180.782 Z" fill="#000000" fill-rule="nonzero" fill-opacity="1" /><path clip-path="url(#clip430)" d="M2137.06 191.129 Q2133.64 191.129 2131.65 193.814 Q2129.65 196.476 2129.65 201.129 Q2129.65 205.782 2131.62 208.467 Q2133.61 211.129 2137.06 211.129 Q2140.46 211.129 2142.46 208.444 Q2144.45 205.758 2144.45 201.129 Q2144.45 196.522 2142.46 193.837 Q2140.46 191.129 2137.06 191.129 M2137.06 187.518 Q2142.62 187.518 2145.79 191.129 Q2148.96 194.74 2148.96 201.129 Q2148.96 207.495 2145.79 211.129 Q2142.62 214.74 2137.06 214.74 Q2131.48 214.74 2128.31 211.129 Q2125.16 207.495 2125.16 201.129 Q2125.16 194.74 2128.31 191.129 Q2131.48 187.518 2137.06 187.518 Z" fill="#000000" fill-rule="nonzero" fill-opacity="1" /><path clip-path="url(#clip430)" d="M2171.04 192.124 Q2170.33 191.708 2169.47 191.522 Q2168.64 191.314 2167.62 191.314 Q2164.01 191.314 2162.06 193.675 Q2160.14 196.013 2160.14 200.411 L2160.14 214.069 L2155.86 214.069 L2155.86 188.143 L2160.14 188.143 L2160.14 192.171 Q2161.48 189.809 2163.64 188.675 Q2165.79 187.518 2168.87 187.518 Q2169.31 187.518 2169.84 187.587 Q2170.37 187.634 2171.02 187.749 L2171.04 192.124 Z" fill="#000000" fill-rule="nonzero" fill-opacity="1" /><path clip-path="url(#clip430)" d="M2187.29 201.036 Q2182.13 201.036 2180.14 202.217 Q2178.15 203.397 2178.15 206.245 Q2178.15 208.513 2179.63 209.856 Q2181.14 211.175 2183.71 211.175 Q2187.25 211.175 2189.38 208.675 Q2191.53 206.152 2191.53 201.985 L2191.53 201.036 L2187.29 201.036 M2195.79 199.277 L2195.79 214.069 L2191.53 214.069 L2191.53 210.133 Q2190.07 212.495 2187.9 213.629 Q2185.72 214.74 2182.57 214.74 Q2178.59 214.74 2176.23 212.518 Q2173.89 210.272 2173.89 206.522 Q2173.89 202.147 2176.81 199.925 Q2179.75 197.703 2185.56 197.703 L2191.53 197.703 L2191.53 197.286 Q2191.53 194.347 2189.58 192.749 Q2187.66 191.129 2184.17 191.129 Q2181.95 191.129 2179.84 191.661 Q2177.73 192.194 2175.79 193.259 L2175.79 189.323 Q2178.13 188.421 2180.33 187.981 Q2182.52 187.518 2184.61 187.518 Q2190.23 187.518 2193.01 190.434 Q2195.79 193.351 2195.79 199.277 Z" fill="#000000" fill-rule="nonzero" fill-opacity="1" /><path clip-path="url(#clip430)" d="M2221.62 200.805 Q2221.62 196.175 2219.7 193.629 Q2217.8 191.083 2214.35 191.083 Q2210.93 191.083 2209.01 193.629 Q2207.11 196.175 2207.11 200.805 Q2207.11 205.411 2209.01 207.958 Q2210.93 210.504 2214.35 210.504 Q2217.8 210.504 2219.7 207.958 Q2221.62 205.411 2221.62 200.805 M2225.88 210.851 Q2225.88 217.471 2222.94 220.689 Q2220 223.93 2213.94 223.93 Q2211.69 223.93 2209.7 223.582 Q2207.71 223.258 2205.83 222.564 L2205.83 218.42 Q2207.71 219.439 2209.54 219.925 Q2211.37 220.411 2213.27 220.411 Q2217.46 220.411 2219.54 218.212 Q2221.62 216.036 2221.62 211.615 L2221.62 209.508 Q2220.3 211.8 2218.24 212.934 Q2216.18 214.069 2213.31 214.069 Q2208.54 214.069 2205.63 210.434 Q2202.71 206.8 2202.71 200.805 Q2202.71 194.786 2205.63 191.152 Q2208.54 187.518 2213.31 187.518 Q2216.18 187.518 2218.24 188.652 Q2220.3 189.786 2221.62 192.078 L2221.62 188.143 L2225.88 188.143 L2225.88 210.851 Z" fill="#000000" fill-rule="nonzero" fill-opacity="1" /><path clip-path="url(#clip430)" d="M2256.83 200.041 L2256.83 202.124 L2237.25 202.124 Q2237.52 206.522 2239.89 208.837 Q2242.27 211.129 2246.51 211.129 Q2248.96 211.129 2251.25 210.527 Q2253.57 209.925 2255.83 208.721 L2255.83 212.749 Q2253.54 213.721 2251.14 214.231 Q2248.73 214.74 2246.25 214.74 Q2240.05 214.74 2236.41 211.129 Q2232.8 207.518 2232.8 201.36 Q2232.8 194.995 2236.23 191.268 Q2239.68 187.518 2245.51 187.518 Q2250.74 187.518 2253.77 190.897 Q2256.83 194.254 2256.83 200.041 M2252.57 198.791 Q2252.52 195.296 2250.6 193.212 Q2248.71 191.129 2245.56 191.129 Q2241.99 191.129 2239.84 193.143 Q2237.71 195.157 2237.39 198.814 L2252.57 198.791 Z" fill="#000000" fill-rule="nonzero" fill-opacity="1" /></svg>
