<?xml version="1.0" encoding="utf-8"?>
<svg xmlns="http://www.w3.org/2000/svg" xmlns:xlink="http://www.w3.org/1999/xlink" width="600" height="400" viewBox="0 0 2400 1600">
<defs>
  <clipPath id="clip930">
    <rect x="0" y="0" width="2400" height="1600"/>
  </clipPath>
</defs>
<path clip-path="url(#clip930)" d="M0 1600 L2400 1600 L2400 0 L0 0  Z" fill="#ffffff" fill-rule="evenodd" fill-opacity="1"/>
<defs>
  <clipPath id="clip931">
    <rect x="480" y="0" width="1681" height="1600"/>
  </clipPath>
</defs>
<path clip-path="url(#clip930)" d="M192.941 1423.18 L2352.76 1423.18 L2352.76 47.2441 L192.941 47.2441  Z" fill="#ffffff" fill-rule="evenodd" fill-opacity="1"/>
<defs>
  <clipPath id="clip932">
    <rect x="192" y="47" width="2161" height="1377"/>
  </clipPath>
</defs>
<polyline clip-path="url(#clip932)" style="stroke:#000000; stroke-linecap:round; stroke-linejoin:round; stroke-width:2; stroke-opacity:0.1; fill:none" points="192.941,1423.18 192.941,47.2441 "/>
<polyline clip-path="url(#clip932)" style="stroke:#000000; stroke-linecap:round; stroke-linejoin:round; stroke-width:2; stroke-opacity:0.1; fill:none" points="732.894,1423.18 732.894,47.2441 "/>
<polyline clip-path="url(#clip932)" style="stroke:#000000; stroke-linecap:round; stroke-linejoin:round; stroke-width:2; stroke-opacity:0.1; fill:none" points="1272.85,1423.18 1272.85,47.2441 "/>
<polyline clip-path="url(#clip932)" style="stroke:#000000; stroke-linecap:round; stroke-linejoin:round; stroke-width:2; stroke-opacity:0.1; fill:none" points="1812.8,1423.18 1812.8,47.2441 "/>
<polyline clip-path="url(#clip932)" style="stroke:#000000; stroke-linecap:round; stroke-linejoin:round; stroke-width:2; stroke-opacity:0.1; fill:none" points="2352.76,1423.18 2352.76,47.2441 "/>
<polyline clip-path="url(#clip932)" style="stroke:#000000; stroke-linecap:round; stroke-linejoin:round; stroke-width:2; stroke-opacity:0.1; fill:none" points="192.941,1206.28 2352.76,1206.28 "/>
<polyline clip-path="url(#clip932)" style="stroke:#000000; stroke-linecap:round; stroke-linejoin:round; stroke-width:2; stroke-opacity:0.1; fill:none" points="192.941,929.447 2352.76,929.447 "/>
<polyline clip-path="url(#clip932)" style="stroke:#000000; stroke-linecap:round; stroke-linejoin:round; stroke-width:2; stroke-opacity:0.1; fill:none" points="192.941,652.614 2352.76,652.614 "/>
<polyline clip-path="url(#clip932)" style="stroke:#000000; stroke-linecap:round; stroke-linejoin:round; stroke-width:2; stroke-opacity:0.1; fill:none" points="192.941,375.782 2352.76,375.782 "/>
<polyline clip-path="url(#clip932)" style="stroke:#000000; stroke-linecap:round; stroke-linejoin:round; stroke-width:2; stroke-opacity:0.1; fill:none" points="192.941,98.9487 2352.76,98.9487 "/>
<polyline clip-path="url(#clip930)" style="stroke:#000000; stroke-linecap:round; stroke-linejoin:round; stroke-width:4; stroke-opacity:1; fill:none" points="192.941,1423.18 2352.76,1423.18 "/>
<polyline clip-path="url(#clip930)" style="stroke:#000000; stroke-linecap:round; stroke-linejoin:round; stroke-width:4; stroke-opacity:1; fill:none" points="192.941,1423.18 192.941,1404.28 "/>
<polyline clip-path="url(#clip930)" style="stroke:#000000; stroke-linecap:round; stroke-linejoin:round; stroke-width:4; stroke-opacity:1; fill:none" points="732.894,1423.18 732.894,1404.28 "/>
<polyline clip-path="url(#clip930)" style="stroke:#000000; stroke-linecap:round; stroke-linejoin:round; stroke-width:4; stroke-opacity:1; fill:none" points="1272.85,1423.18 1272.85,1404.28 "/>
<polyline clip-path="url(#clip930)" style="stroke:#000000; stroke-linecap:round; stroke-linejoin:round; stroke-width:4; stroke-opacity:1; fill:none" points="1812.8,1423.18 1812.8,1404.28 "/>
<polyline clip-path="url(#clip930)" style="stroke:#000000; stroke-linecap:round; stroke-linejoin:round; stroke-width:4; stroke-opacity:1; fill:none" points="2352.76,1423.18 2352.76,1404.28 "/>
<path clip-path="url(#clip930)" d="M170.325 1454.1 Q166.714 1454.1 164.885 1457.66 Q163.08 1461.2 163.08 1468.33 Q163.08 1475.44 164.885 1479.01 Q166.714 1482.55 170.325 1482.55 Q173.959 1482.55 175.765 1479.01 Q177.593 1475.44 177.593 1468.33 Q177.593 1461.2 175.765 1457.66 Q173.959 1454.1 170.325 1454.1 M170.325 1450.39 Q176.135 1450.39 179.191 1455 Q182.269 1459.58 182.269 1468.33 Q182.269 1477.06 179.191 1481.67 Q176.135 1486.25 170.325 1486.25 Q164.515 1486.25 161.436 1481.67 Q158.381 1477.06 158.381 1468.33 Q158.381 1459.58 161.436 1455 Q164.515 1450.39 170.325 1450.39 Z" fill="#000000" fill-rule="nonzero" fill-opacity="1" /><path clip-path="url(#clip930)" d="M190.487 1479.7 L195.371 1479.7 L195.371 1485.58 L190.487 1485.58 L190.487 1479.7 Z" fill="#000000" fill-rule="nonzero" fill-opacity="1" /><path clip-path="url(#clip930)" d="M215.556 1454.1 Q211.945 1454.1 210.116 1457.66 Q208.311 1461.2 208.311 1468.33 Q208.311 1475.44 210.116 1479.01 Q211.945 1482.55 215.556 1482.55 Q219.19 1482.55 220.996 1479.01 Q222.825 1475.44 222.825 1468.33 Q222.825 1461.2 220.996 1457.66 Q219.19 1454.1 215.556 1454.1 M215.556 1450.39 Q221.366 1450.39 224.422 1455 Q227.501 1459.58 227.501 1468.33 Q227.501 1477.06 224.422 1481.67 Q221.366 1486.25 215.556 1486.25 Q209.746 1486.25 206.667 1481.67 Q203.612 1477.06 203.612 1468.33 Q203.612 1459.58 206.667 1455 Q209.746 1450.39 215.556 1450.39 Z" fill="#000000" fill-rule="nonzero" fill-opacity="1" /><path clip-path="url(#clip930)" d="M710.777 1454.1 Q707.165 1454.1 705.337 1457.66 Q703.531 1461.2 703.531 1468.33 Q703.531 1475.44 705.337 1479.01 Q707.165 1482.55 710.777 1482.55 Q714.411 1482.55 716.216 1479.01 Q718.045 1475.44 718.045 1468.33 Q718.045 1461.2 716.216 1457.66 Q714.411 1454.1 710.777 1454.1 M710.777 1450.39 Q716.587 1450.39 719.642 1455 Q722.721 1459.58 722.721 1468.33 Q722.721 1477.06 719.642 1481.67 Q716.587 1486.25 710.777 1486.25 Q704.966 1486.25 701.888 1481.67 Q698.832 1477.06 698.832 1468.33 Q698.832 1459.58 701.888 1455 Q704.966 1450.39 710.777 1450.39 Z" fill="#000000" fill-rule="nonzero" fill-opacity="1" /><path clip-path="url(#clip930)" d="M730.938 1479.7 L735.823 1479.7 L735.823 1485.58 L730.938 1485.58 L730.938 1479.7 Z" fill="#000000" fill-rule="nonzero" fill-opacity="1" /><path clip-path="url(#clip930)" d="M746.054 1451.02 L764.41 1451.02 L764.41 1454.96 L750.336 1454.96 L750.336 1463.43 Q751.355 1463.08 752.374 1462.92 Q753.392 1462.73 754.411 1462.73 Q760.198 1462.73 763.577 1465.9 Q766.957 1469.08 766.957 1474.49 Q766.957 1480.07 763.485 1483.17 Q760.012 1486.25 753.693 1486.25 Q751.517 1486.25 749.249 1485.88 Q747.003 1485.51 744.596 1484.77 L744.596 1480.07 Q746.679 1481.2 748.901 1481.76 Q751.124 1482.32 753.6 1482.32 Q757.605 1482.32 759.943 1480.21 Q762.281 1478.1 762.281 1474.49 Q762.281 1470.88 759.943 1468.77 Q757.605 1466.67 753.6 1466.67 Q751.725 1466.67 749.85 1467.08 Q747.999 1467.5 746.054 1468.38 L746.054 1451.02 Z" fill="#000000" fill-rule="nonzero" fill-opacity="1" /><path clip-path="url(#clip930)" d="M1240 1481.64 L1247.64 1481.64 L1247.64 1455.28 L1239.33 1456.95 L1239.33 1452.69 L1247.59 1451.02 L1252.27 1451.02 L1252.27 1481.64 L1259.91 1481.64 L1259.91 1485.58 L1240 1485.58 L1240 1481.64 Z" fill="#000000" fill-rule="nonzero" fill-opacity="1" /><path clip-path="url(#clip930)" d="M1269.35 1479.7 L1274.24 1479.7 L1274.24 1485.58 L1269.35 1485.58 L1269.35 1479.7 Z" fill="#000000" fill-rule="nonzero" fill-opacity="1" /><path clip-path="url(#clip930)" d="M1294.42 1454.1 Q1290.81 1454.1 1288.98 1457.66 Q1287.18 1461.2 1287.18 1468.33 Q1287.18 1475.44 1288.98 1479.01 Q1290.81 1482.55 1294.42 1482.55 Q1298.06 1482.55 1299.86 1479.01 Q1301.69 1475.44 1301.69 1468.33 Q1301.69 1461.2 1299.86 1457.66 Q1298.06 1454.1 1294.42 1454.1 M1294.42 1450.39 Q1300.23 1450.39 1303.29 1455 Q1306.37 1459.58 1306.37 1468.33 Q1306.37 1477.06 1303.29 1481.67 Q1300.23 1486.25 1294.42 1486.25 Q1288.61 1486.25 1285.53 1481.67 Q1282.48 1477.06 1282.48 1468.33 Q1282.48 1459.58 1285.53 1455 Q1288.61 1450.39 1294.42 1450.39 Z" fill="#000000" fill-rule="nonzero" fill-opacity="1" /><path clip-path="url(#clip930)" d="M1780.45 1481.64 L1788.09 1481.64 L1788.09 1455.28 L1779.78 1456.95 L1779.78 1452.69 L1788.05 1451.02 L1792.72 1451.02 L1792.72 1481.64 L1800.36 1481.64 L1800.36 1485.58 L1780.45 1485.58 L1780.45 1481.64 Z" fill="#000000" fill-rule="nonzero" fill-opacity="1" /><path clip-path="url(#clip930)" d="M1809.8 1479.7 L1814.69 1479.7 L1814.69 1485.58 L1809.8 1485.58 L1809.8 1479.7 Z" fill="#000000" fill-rule="nonzero" fill-opacity="1" /><path clip-path="url(#clip930)" d="M1824.92 1451.02 L1843.28 1451.02 L1843.28 1454.96 L1829.2 1454.96 L1829.2 1463.43 Q1830.22 1463.08 1831.24 1462.92 Q1832.26 1462.73 1833.28 1462.73 Q1839.06 1462.73 1842.44 1465.9 Q1845.82 1469.08 1845.82 1474.49 Q1845.82 1480.07 1842.35 1483.17 Q1838.88 1486.25 1832.56 1486.25 Q1830.38 1486.25 1828.11 1485.88 Q1825.87 1485.51 1823.46 1484.77 L1823.46 1480.07 Q1825.55 1481.2 1827.77 1481.76 Q1829.99 1482.32 1832.47 1482.32 Q1836.47 1482.32 1838.81 1480.21 Q1841.15 1478.1 1841.15 1474.49 Q1841.15 1470.88 1838.81 1468.77 Q1836.47 1466.67 1832.47 1466.67 Q1830.59 1466.67 1828.72 1467.08 Q1826.86 1467.5 1824.92 1468.38 L1824.92 1451.02 Z" fill="#000000" fill-rule="nonzero" fill-opacity="1" /><path clip-path="url(#clip930)" d="M2323.99 1481.64 L2340.31 1481.64 L2340.31 1485.58 L2318.37 1485.58 L2318.37 1481.64 Q2321.03 1478.89 2325.61 1474.26 Q2330.22 1469.61 2331.4 1468.27 Q2333.65 1465.74 2334.53 1464.01 Q2335.43 1462.25 2335.43 1460.56 Q2335.43 1457.8 2333.49 1456.07 Q2331.56 1454.33 2328.46 1454.33 Q2326.26 1454.33 2323.81 1455.09 Q2321.38 1455.86 2318.6 1457.41 L2318.6 1452.69 Q2321.43 1451.55 2323.88 1450.97 Q2326.33 1450.39 2328.37 1450.39 Q2333.74 1450.39 2336.93 1453.08 Q2340.13 1455.77 2340.13 1460.26 Q2340.13 1462.39 2339.32 1464.31 Q2338.53 1466.2 2336.42 1468.8 Q2335.85 1469.47 2332.74 1472.69 Q2329.64 1475.88 2323.99 1481.64 Z" fill="#000000" fill-rule="nonzero" fill-opacity="1" /><path clip-path="url(#clip930)" d="M2350.13 1479.7 L2355.01 1479.7 L2355.01 1485.58 L2350.13 1485.58 L2350.13 1479.7 Z" fill="#000000" fill-rule="nonzero" fill-opacity="1" /><path clip-path="url(#clip930)" d="M2375.2 1454.1 Q2371.59 1454.1 2369.76 1457.66 Q2367.95 1461.2 2367.95 1468.33 Q2367.95 1475.44 2369.76 1479.01 Q2371.59 1482.55 2375.2 1482.55 Q2378.83 1482.55 2380.64 1479.01 Q2382.47 1475.44 2382.47 1468.33 Q2382.47 1461.2 2380.64 1457.66 Q2378.83 1454.1 2375.2 1454.1 M2375.2 1450.39 Q2381.01 1450.39 2384.06 1455 Q2387.14 1459.58 2387.14 1468.33 Q2387.14 1477.06 2384.06 1481.67 Q2381.01 1486.25 2375.2 1486.25 Q2369.39 1486.25 2366.31 1481.67 Q2363.25 1477.06 2363.25 1468.33 Q2363.25 1459.58 2366.31 1455 Q2369.39 1450.39 2375.2 1450.39 Z" fill="#000000" fill-rule="nonzero" fill-opacity="1" /><path clip-path="url(#clip930)" d="M1271.91 1522.27 L1271.91 1532.4 L1283.97 1532.4 L1283.97 1536.95 L1271.91 1536.95 L1271.91 1556.3 Q1271.91 1560.66 1273.09 1561.9 Q1274.3 1563.14 1277.96 1563.14 L1283.97 1563.14 L1283.97 1568.04 L1277.96 1568.04 Q1271.18 1568.04 1268.6 1565.53 Q1266.02 1562.98 1266.02 1556.3 L1266.02 1536.95 L1261.72 1536.95 L1261.72 1532.4 L1266.02 1532.4 L1266.02 1522.27 L1271.91 1522.27 Z" fill="#000000" fill-rule="nonzero" fill-opacity="1" /><polyline clip-path="url(#clip930)" style="stroke:#000000; stroke-linecap:round; stroke-linejoin:round; stroke-width:4; stroke-opacity:1; fill:none" points="192.941,1423.18 192.941,47.2441 "/>
<polyline clip-path="url(#clip930)" style="stroke:#000000; stroke-linecap:round; stroke-linejoin:round; stroke-width:4; stroke-opacity:1; fill:none" points="192.941,1206.28 211.838,1206.28 "/>
<polyline clip-path="url(#clip930)" style="stroke:#000000; stroke-linecap:round; stroke-linejoin:round; stroke-width:4; stroke-opacity:1; fill:none" points="192.941,929.447 211.838,929.447 "/>
<polyline clip-path="url(#clip930)" style="stroke:#000000; stroke-linecap:round; stroke-linejoin:round; stroke-width:4; stroke-opacity:1; fill:none" points="192.941,652.614 211.838,652.614 "/>
<polyline clip-path="url(#clip930)" style="stroke:#000000; stroke-linecap:round; stroke-linejoin:round; stroke-width:4; stroke-opacity:1; fill:none" points="192.941,375.782 211.838,375.782 "/>
<polyline clip-path="url(#clip930)" style="stroke:#000000; stroke-linecap:round; stroke-linejoin:round; stroke-width:4; stroke-opacity:1; fill:none" points="192.941,98.9487 211.838,98.9487 "/>
<path clip-path="url(#clip930)" d="M50.9921 1206.73 L80.6679 1206.73 L80.6679 1210.67 L50.9921 1210.67 L50.9921 1206.73 Z" fill="#000000" fill-rule="nonzero" fill-opacity="1" /><path clip-path="url(#clip930)" d="M100.76 1192.08 Q97.1493 1192.08 95.3206 1195.64 Q93.515 1199.19 93.515 1206.31 Q93.515 1213.42 95.3206 1216.99 Q97.1493 1220.53 100.76 1220.53 Q104.395 1220.53 106.2 1216.99 Q108.029 1213.42 108.029 1206.31 Q108.029 1199.19 106.2 1195.64 Q104.395 1192.08 100.76 1192.08 M100.76 1188.38 Q106.571 1188.38 109.626 1192.98 Q112.705 1197.56 112.705 1206.31 Q112.705 1215.04 109.626 1219.65 Q106.571 1224.23 100.76 1224.23 Q94.9502 1224.23 91.8715 1219.65 Q88.816 1215.04 88.816 1206.31 Q88.816 1197.56 91.8715 1192.98 Q94.9502 1188.38 100.76 1188.38 Z" fill="#000000" fill-rule="nonzero" fill-opacity="1" /><path clip-path="url(#clip930)" d="M120.922 1217.68 L125.807 1217.68 L125.807 1223.56 L120.922 1223.56 L120.922 1217.68 Z" fill="#000000" fill-rule="nonzero" fill-opacity="1" /><path clip-path="url(#clip930)" d="M136.038 1189 L154.394 1189 L154.394 1192.94 L140.32 1192.94 L140.32 1201.41 Q141.339 1201.06 142.357 1200.9 Q143.376 1200.71 144.394 1200.71 Q150.181 1200.71 153.561 1203.88 Q156.941 1207.06 156.941 1212.47 Q156.941 1218.05 153.468 1221.15 Q149.996 1224.23 143.677 1224.23 Q141.501 1224.23 139.232 1223.86 Q136.987 1223.49 134.58 1222.75 L134.58 1218.05 Q136.663 1219.19 138.885 1219.74 Q141.107 1220.3 143.584 1220.3 Q147.589 1220.3 149.927 1218.19 Q152.265 1216.08 152.265 1212.47 Q152.265 1208.86 149.927 1206.75 Q147.589 1204.65 143.584 1204.65 Q141.709 1204.65 139.834 1205.06 Q137.982 1205.48 136.038 1206.36 L136.038 1189 Z" fill="#000000" fill-rule="nonzero" fill-opacity="1" /><path clip-path="url(#clip930)" d="M99.765 915.246 Q96.1539 915.246 94.3252 918.811 Q92.5197 922.352 92.5197 929.482 Q92.5197 936.588 94.3252 940.153 Q96.1539 943.695 99.765 943.695 Q103.399 943.695 105.205 940.153 Q107.033 936.588 107.033 929.482 Q107.033 922.352 105.205 918.811 Q103.399 915.246 99.765 915.246 M99.765 911.542 Q105.575 911.542 108.631 916.149 Q111.709 920.732 111.709 929.482 Q111.709 938.209 108.631 942.815 Q105.575 947.399 99.765 947.399 Q93.9549 947.399 90.8762 942.815 Q87.8206 938.209 87.8206 929.482 Q87.8206 920.732 90.8762 916.149 Q93.9549 911.542 99.765 911.542 Z" fill="#000000" fill-rule="nonzero" fill-opacity="1" /><path clip-path="url(#clip930)" d="M119.927 940.848 L124.811 940.848 L124.811 946.727 L119.927 946.727 L119.927 940.848 Z" fill="#000000" fill-rule="nonzero" fill-opacity="1" /><path clip-path="url(#clip930)" d="M144.996 915.246 Q141.385 915.246 139.556 918.811 Q137.751 922.352 137.751 929.482 Q137.751 936.588 139.556 940.153 Q141.385 943.695 144.996 943.695 Q148.63 943.695 150.436 940.153 Q152.265 936.588 152.265 929.482 Q152.265 922.352 150.436 918.811 Q148.63 915.246 144.996 915.246 M144.996 911.542 Q150.806 911.542 153.862 916.149 Q156.941 920.732 156.941 929.482 Q156.941 938.209 153.862 942.815 Q150.806 947.399 144.996 947.399 Q139.186 947.399 136.107 942.815 Q133.052 938.209 133.052 929.482 Q133.052 920.732 136.107 916.149 Q139.186 911.542 144.996 911.542 Z" fill="#000000" fill-rule="nonzero" fill-opacity="1" /><path clip-path="url(#clip930)" d="M100.76 638.413 Q97.1493 638.413 95.3206 641.978 Q93.515 645.52 93.515 652.649 Q93.515 659.756 95.3206 663.32 Q97.1493 666.862 100.76 666.862 Q104.395 666.862 106.2 663.32 Q108.029 659.756 108.029 652.649 Q108.029 645.52 106.2 641.978 Q104.395 638.413 100.76 638.413 M100.76 634.709 Q106.571 634.709 109.626 639.316 Q112.705 643.899 112.705 652.649 Q112.705 661.376 109.626 665.982 Q106.571 670.566 100.76 670.566 Q94.9502 670.566 91.8715 665.982 Q88.816 661.376 88.816 652.649 Q88.816 643.899 91.8715 639.316 Q94.9502 634.709 100.76 634.709 Z" fill="#000000" fill-rule="nonzero" fill-opacity="1" /><path clip-path="url(#clip930)" d="M120.922 664.015 L125.807 664.015 L125.807 669.894 L120.922 669.894 L120.922 664.015 Z" fill="#000000" fill-rule="nonzero" fill-opacity="1" /><path clip-path="url(#clip930)" d="M136.038 635.334 L154.394 635.334 L154.394 639.27 L140.32 639.27 L140.32 647.742 Q141.339 647.395 142.357 647.232 Q143.376 647.047 144.394 647.047 Q150.181 647.047 153.561 650.219 Q156.941 653.39 156.941 658.806 Q156.941 664.385 153.468 667.487 Q149.996 670.566 143.677 670.566 Q141.501 670.566 139.232 670.195 Q136.987 669.825 134.58 669.084 L134.58 664.385 Q136.663 665.519 138.885 666.075 Q141.107 666.631 143.584 666.631 Q147.589 666.631 149.927 664.524 Q152.265 662.418 152.265 658.806 Q152.265 655.195 149.927 653.089 Q147.589 650.982 143.584 650.982 Q141.709 650.982 139.834 651.399 Q137.982 651.816 136.038 652.695 L136.038 635.334 Z" fill="#000000" fill-rule="nonzero" fill-opacity="1" /><path clip-path="url(#clip930)" d="M90.5752 389.126 L98.2141 389.126 L98.2141 362.761 L89.904 364.427 L89.904 360.168 L98.1678 358.502 L102.844 358.502 L102.844 389.126 L110.483 389.126 L110.483 393.062 L90.5752 393.062 L90.5752 389.126 Z" fill="#000000" fill-rule="nonzero" fill-opacity="1" /><path clip-path="url(#clip930)" d="M119.927 387.182 L124.811 387.182 L124.811 393.062 L119.927 393.062 L119.927 387.182 Z" fill="#000000" fill-rule="nonzero" fill-opacity="1" /><path clip-path="url(#clip930)" d="M144.996 361.58 Q141.385 361.58 139.556 365.145 Q137.751 368.687 137.751 375.816 Q137.751 382.923 139.556 386.487 Q141.385 390.029 144.996 390.029 Q148.63 390.029 150.436 386.487 Q152.265 382.923 152.265 375.816 Q152.265 368.687 150.436 365.145 Q148.63 361.58 144.996 361.58 M144.996 357.877 Q150.806 357.877 153.862 362.483 Q156.941 367.066 156.941 375.816 Q156.941 384.543 153.862 389.15 Q150.806 393.733 144.996 393.733 Q139.186 393.733 136.107 389.15 Q133.052 384.543 133.052 375.816 Q133.052 367.066 136.107 362.483 Q139.186 357.877 144.996 357.877 Z" fill="#000000" fill-rule="nonzero" fill-opacity="1" /><path clip-path="url(#clip930)" d="M91.5706 112.294 L99.2095 112.294 L99.2095 85.9279 L90.8993 87.5946 L90.8993 83.3353 L99.1632 81.6687 L103.839 81.6687 L103.839 112.294 L111.478 112.294 L111.478 116.229 L91.5706 116.229 L91.5706 112.294 Z" fill="#000000" fill-rule="nonzero" fill-opacity="1" /><path clip-path="url(#clip930)" d="M120.922 110.349 L125.807 110.349 L125.807 116.229 L120.922 116.229 L120.922 110.349 Z" fill="#000000" fill-rule="nonzero" fill-opacity="1" /><path clip-path="url(#clip930)" d="M136.038 81.6687 L154.394 81.6687 L154.394 85.6038 L140.32 85.6038 L140.32 94.076 Q141.339 93.7288 142.357 93.5667 Q143.376 93.3816 144.394 93.3816 Q150.181 93.3816 153.561 96.5528 Q156.941 99.7241 156.941 105.141 Q156.941 110.719 153.468 113.821 Q149.996 116.9 143.677 116.9 Q141.501 116.9 139.232 116.53 Q136.987 116.159 134.58 115.418 L134.58 110.719 Q136.663 111.854 138.885 112.409 Q141.107 112.965 143.584 112.965 Q147.589 112.965 149.927 110.858 Q152.265 108.752 152.265 105.141 Q152.265 101.53 149.927 99.4232 Q147.589 97.3167 143.584 97.3167 Q141.709 97.3167 139.834 97.7334 Q137.982 98.1501 136.038 99.0297 L136.038 81.6687 Z" fill="#000000" fill-rule="nonzero" fill-opacity="1" /><polyline clip-path="url(#clip932)" style="stroke:#009af9; stroke-linecap:round; stroke-linejoin:round; stroke-width:4; stroke-opacity:1; fill:none" points="192.941,86.1857 195.103,94.4641 197.265,102.66 199.427,110.774 201.589,118.808 203.751,126.761 205.912,134.636 208.074,142.432 210.236,150.15 212.398,157.791 214.56,165.356 216.722,172.846 218.884,180.261 221.046,187.603 223.208,194.871 225.37,202.067 227.532,209.191 229.694,216.244 231.856,223.227 234.018,230.141 236.18,236.985 238.342,243.762 240.504,250.471 242.666,257.113 244.828,263.689 246.99,270.199 249.152,276.645 251.314,283.026 253.476,289.344 255.638,295.599 257.8,301.792 259.962,307.923 262.124,313.992 264.286,320.002 266.448,325.952 268.61,331.842 270.772,337.674 272.934,343.447 275.096,349.163 277.258,354.823 279.42,360.425 281.582,365.972 283.744,371.464 285.906,376.901 288.068,382.284 290.23,387.613 292.392,392.889 294.554,398.113 296.716,403.284 298.878,408.404 301.039,413.473 303.201,418.492 305.363,423.46 307.525,428.379 309.687,433.249 311.849,438.071 314.011,442.844 316.173,447.57 318.335,452.249 320.497,456.882 322.659,461.468 324.821,466.009 326.983,470.504 329.145,474.955 331.307,479.361 333.469,483.723 335.631,488.042 337.793,492.318 339.955,496.552 342.117,500.743 344.279,504.893 346.441,509.001 348.603,513.068 350.765,517.095 352.927,521.081 355.089,525.028 357.251,528.936 359.413,532.804 361.575,536.634 363.737,540.426 365.899,544.18 368.061,547.897 370.223,551.576 372.385,555.219 374.547,558.826 376.709,562.397 378.871,565.932 381.033,569.432 383.195,572.897 385.357,576.328 387.519,579.724 389.681,583.087 391.843,586.416 394.005,589.712 396.166,592.975 398.328,596.206 400.49,599.404 402.652,602.571 404.814,605.706 406.976,608.81 409.138,611.883 411.3,614.925 413.462,617.938 415.624,620.92 417.786,623.872 419.948,626.795 422.11,629.689 424.272,632.555 426.434,635.391 428.596,638.2 430.758,640.98 432.92,643.733 435.082,646.458 437.244,649.156 439.406,651.828 441.568,654.472 443.73,657.091 445.892,659.683 448.054,662.249 450.216,664.79 452.378,667.306 454.54,669.796 456.702,672.261 458.864,674.702 461.026,677.119 463.188,679.512 465.35,681.88 467.512,684.226 469.674,686.547 471.836,688.846 473.998,691.122 476.16,693.375 478.322,695.605 480.484,697.814 482.646,700 484.808,702.165 486.97,704.308 489.132,706.43 491.293,708.53 493.455,710.61 495.617,712.669 497.779,714.707 499.941,716.726 502.103,718.724 504.265,720.702 506.427,722.661 508.589,724.6 510.751,726.519 512.913,728.42 515.075,730.302 517.237,732.165 519.399,734.009 521.561,735.835 523.723,737.643 525.885,739.433 528.047,741.206 530.209,742.96 532.371,744.697 534.533,746.417 536.695,748.119 538.857,749.805 541.019,751.474 543.181,753.126 545.343,754.762 547.505,756.381 549.667,757.985 551.829,759.572 553.991,761.143 556.153,762.699 558.315,764.239 560.477,765.764 562.639,767.274 564.801,768.769 566.963,770.248 569.125,771.714 571.287,773.164 573.449,774.6 575.611,776.022 577.773,777.429 579.935,778.822 582.097,780.202 584.259,781.568 586.42,782.92 588.582,784.259 590.744,785.584 592.906,786.896 595.068,788.195 597.23,789.482 599.392,790.755 601.554,792.016 603.716,793.264 605.878,794.5 608.04,795.723 610.202,796.934 612.364,798.134 614.526,799.321 616.688,800.496 618.85,801.66 621.012,802.812 623.174,803.953 625.336,805.082 627.498,806.201 629.66,807.308 631.822,808.404 633.984,809.489 636.146,810.563 638.308,811.627 640.47,812.68 642.632,813.723 644.794,814.755 646.956,815.777 649.118,816.788 651.28,817.79 653.442,818.782 655.604,819.764 657.766,820.736 659.928,821.698 662.09,822.651 664.252,823.594 666.414,824.528 668.576,825.452 670.738,826.368 672.9,827.274 675.062,828.171 677.224,829.059 679.386,829.938 681.547,830.809 683.709,831.671 685.871,832.524 688.033,833.369 690.195,834.205 692.357,835.033 694.519,835.853 696.681,836.664 698.843,837.468 701.005,838.263 703.167,839.051 705.329,839.83 707.491,840.602 709.653,841.367 711.815,842.123 713.977,842.872 716.139,843.614 718.301,844.348 720.463,845.075 722.625,845.795 724.787,846.507 726.949,847.213 729.111,847.911 731.273,848.603 733.435,849.287 735.597,849.965 737.759,850.636 739.921,851.3 742.083,851.958 744.245,852.609 746.407,853.254 748.569,853.893 750.731,854.525 752.893,855.15 755.055,855.77 757.217,856.383 759.379,856.991 761.541,857.592 763.703,858.187 765.865,858.776 768.027,859.36 770.189,859.937 772.351,860.509 774.513,861.075 776.674,861.636 778.836,862.191 780.998,862.74 783.16,863.284 785.322,863.823 787.484,864.356 789.646,864.883 791.808,865.406 793.97,865.923 796.132,866.435 798.294,866.943 800.456,867.445 802.618,867.942 804.78,868.434 806.942,868.921 809.104,869.403 811.266,869.88 813.428,870.353 815.59,870.821 817.752,871.284 819.914,871.743 822.076,872.197 824.238,872.647 826.4,873.092 828.562,873.532 830.724,873.969 832.886,874.401 835.048,874.828 837.21,875.252 839.372,875.671 841.534,876.086 843.696,876.497 845.858,876.903 848.02,877.306 850.182,877.705 852.344,878.1 854.506,878.49 856.668,878.877 858.83,879.261 860.992,879.64 863.154,880.015 865.316,880.387 867.478,880.755 869.64,881.12 871.801,881.48 873.963,881.838 876.125,882.191 878.287,882.541 880.449,882.888 882.611,883.231 884.773,883.571 886.935,883.908 889.097,884.241 891.259,884.57 893.421,884.897 895.583,885.22 897.745,885.54 899.907,885.857 902.069,886.171 904.231,886.481 906.393,886.789 908.555,887.093 910.717,887.394 912.879,887.693 915.041,887.988 917.203,888.28 919.365,888.57 921.527,888.856 923.689,889.14 925.851,889.421 928.013,889.699 930.175,889.975 932.337,890.247 934.499,890.517 936.661,890.784 938.823,891.049 940.985,891.311 943.147,891.57 945.309,891.826 947.471,892.081 949.633,892.332 951.795,892.581 953.957,892.828 956.119,893.072 958.281,893.314 960.443,893.553 962.605,893.79 964.767,894.024 966.928,894.257 969.09,894.486 971.252,894.714 973.414,894.939 975.576,895.162 977.738,895.383 979.9,895.602 982.062,895.819 984.224,896.033 986.386,896.245 988.548,896.455 990.71,896.663 992.872,896.869 995.034,897.073 997.196,897.275 999.358,897.475 1001.52,897.673 1003.68,897.869 1005.84,898.063 1008.01,898.255 1010.17,898.445 1012.33,898.633 1014.49,898.82 1016.65,899.004 1018.82,899.187 1020.98,899.368 1023.14,899.547 1025.3,899.724 1027.46,899.9 1029.63,900.074 1031.79,900.246 1033.95,900.416 1036.11,900.585 1038.27,900.752 1040.44,900.917 1042.6,901.081 1044.76,901.243 1046.92,901.403 1049.08,901.562 1051.25,901.719 1053.41,901.875 1055.57,902.029 1057.73,902.181 1059.89,902.333 1062.06,902.482 1064.22,902.63 1066.38,902.777 1068.54,902.922 1070.7,903.065 1072.87,903.207 1075.03,903.348 1077.19,903.488 1079.35,903.626 1081.51,903.762 1083.68,903.897 1085.84,904.031 1088,904.164 1090.16,904.295 1092.32,904.425 1094.49,904.554 1096.65,904.681 1098.81,904.807 1100.97,904.932 1103.13,905.055 1105.3,905.178 1107.46,905.299 1109.62,905.419 1111.78,905.537 1113.94,905.655 1116.1,905.771 1118.27,905.886 1120.43,906.001 1122.59,906.113 1124.75,906.225 1126.91,906.336 1129.08,906.446 1131.24,906.554 1133.4,906.662 1135.56,906.768 1137.72,906.873 1139.89,906.977 1142.05,907.081 1144.21,907.183 1146.37,907.284 1148.53,907.384 1150.7,907.483 1152.86,907.582 1155.02,907.679 1157.18,907.775 1159.34,907.871 1161.51,907.965 1163.67,908.058 1165.83,908.151 1167.99,908.242 1170.15,908.333 1172.32,908.423 1174.48,908.512 1176.64,908.6 1178.8,908.687 1180.96,908.773 1183.13,908.859 1185.29,908.943 1187.45,909.027 1189.61,909.11 1191.77,909.192 1193.94,909.273 1196.1,909.353 1198.26,909.433 1200.42,909.512 1202.58,909.59 1204.75,909.667 1206.91,909.743 1209.07,909.819 1211.23,909.894 1213.39,909.968 1215.56,910.042 1217.72,910.114 1219.88,910.186 1222.04,910.258 1224.2,910.328 1226.37,910.398 1228.53,910.467 1230.69,910.536 1232.85,910.604 1235.01,910.671 1237.18,910.737 1239.34,910.803 1241.5,910.868 1243.66,910.932 1245.82,910.996 1247.99,911.059 1250.15,911.122 1252.31,911.184 1254.47,911.245 1256.63,911.306 1258.8,911.366 1260.96,911.426 1263.12,911.484 1265.28,911.543 1267.44,911.601 1269.61,911.658 1271.77,911.714 1273.93,911.77 1276.09,911.826 1278.25,911.881 1280.42,911.935 1282.58,911.989 1284.74,912.042 1286.9,912.095 1289.06,912.147 1291.23,912.199 1293.39,912.25 1295.55,912.301 1297.71,912.351 1299.87,912.401 1302.03,912.45 1304.2,912.499 1306.36,912.547 1308.52,912.595 1310.68,912.642 1312.84,912.689 1315.01,912.736 1317.17,912.782 1319.33,912.827 1321.49,912.872 1323.65,912.917 1325.82,912.961 1327.98,913.004 1330.14,913.048 1332.3,913.091 1334.46,913.133 1336.63,913.175 1338.79,913.216 1340.95,913.258 1343.11,913.298 1345.27,913.339 1347.44,913.379 1349.6,913.418 1351.76,913.457 1353.92,913.496 1356.08,913.534 1358.25,913.572 1360.41,913.61 1362.57,913.647 1364.73,913.684 1366.89,913.72 1369.06,913.756 1371.22,913.792 1373.38,913.827 1375.54,913.862 1377.7,913.897 1379.87,913.931 1382.03,913.965 1384.19,913.999 1386.35,914.032 1388.51,914.065 1390.68,914.098 1392.84,914.13 1395,914.162 1397.16,914.194 1399.32,914.225 1401.49,914.256 1403.65,914.287 1405.81,914.317 1407.97,914.347 1410.13,914.377 1412.3,914.407 1414.46,914.436 1416.62,914.465 1418.78,914.494 1420.94,914.522 1423.11,914.55 1425.27,914.578 1427.43,914.605 1429.59,914.633 1431.75,914.66 1433.92,914.686 1436.08,914.713 1438.24,914.739 1440.4,914.765 1442.56,914.79 1444.73,914.816 1446.89,914.841 1449.05,914.866 1451.21,914.891 1453.37,914.915 1455.54,914.939 1457.7,914.963 1459.86,914.987 1462.02,915.01 1464.18,915.033 1466.35,915.056 1468.51,915.079 1470.67,915.102 1472.83,915.124 1474.99,915.146 1477.16,915.168 1479.32,915.19 1481.48,915.211 1483.64,915.233 1485.8,915.254 1487.97,915.274 1490.13,915.295 1492.29,915.315 1494.45,915.336 1496.61,915.356 1498.77,915.376 1500.94,915.395 1503.1,915.415 1505.26,915.434 1507.42,915.453 1509.58,915.472 1511.75,915.49 1513.91,915.509 1516.07,915.527 1518.23,915.545 1520.39,915.563 1522.56,915.581 1524.72,915.598 1526.88,915.616 1529.04,915.633 1531.2,915.65 1533.37,915.667 1535.53,915.684 1537.69,915.7 1539.85,915.717 1542.01,915.733 1544.18,915.749 1546.34,915.765 1548.5,915.781 1550.66,915.796 1552.82,915.811 1554.99,915.827 1557.15,915.842 1559.31,915.857 1561.47,915.872 1563.63,915.886 1565.8,915.901 1567.96,915.915 1570.12,915.929 1572.28,915.943 1574.44,915.957 1576.61,915.971 1578.77,915.985 1580.93,915.998 1583.09,916.012 1585.25,916.025 1587.42,916.038 1589.58,916.051 1591.74,916.064 1593.9,916.077 1596.06,916.089 1598.23,916.102 1600.39,916.114 1602.55,916.126 1604.71,916.138 1606.87,916.15 1609.04,916.162 1611.2,916.174 1613.36,916.186 1615.52,916.197 1617.68,916.208 1619.85,916.22 1622.01,916.231 1624.17,916.242 1626.33,916.253 1628.49,916.264 1630.66,916.274 1632.82,916.285 1634.98,916.296 1637.14,916.306 1639.3,916.316 1641.47,916.327 1643.63,916.337 1645.79,916.347 1647.95,916.357 1650.11,916.366 1652.28,916.376 1654.44,916.386 1656.6,916.395 1658.76,916.405 1660.92,916.414 1663.09,916.423 1665.25,916.433 1667.41,916.442 1669.57,916.451 1671.73,916.46 1673.9,916.468 1676.06,916.477 1678.22,916.486 1680.38,916.494 1682.54,916.503 1684.7,916.511 1686.87,916.519 1689.03,916.528 1691.19,916.536 1693.35,916.544 1695.51,916.552 1697.68,916.56 1699.84,916.568 1702,916.575 1704.16,916.583 1706.32,916.591 1708.49,916.598 1710.65,916.606 1712.81,916.613 1714.97,916.62 1717.13,916.627 1719.3,916.635 1721.46,916.642 1723.62,916.649 1725.78,916.656 1727.94,916.662 1730.11,916.669 1732.27,916.676 1734.43,916.683 1736.59,916.689 1738.75,916.696 1740.92,916.702 1743.08,916.709 1745.24,916.715 1747.4,916.721 1749.56,916.727 1751.73,916.733 1753.89,916.74 1756.05,916.746 1758.21,916.752 1760.37,916.757 1762.54,916.763 1764.7,916.769 1766.86,916.775 1769.02,916.78 1771.18,916.786 1773.35,916.792 1775.51,916.797 1777.67,916.802 1779.83,916.808 1781.99,916.813 1784.16,916.818 1786.32,916.824 1788.48,916.829 1790.64,916.834 1792.8,916.839 1794.97,916.844 1797.13,916.849 1799.29,916.854 1801.45,916.859 1803.61,916.863 1805.78,916.868 1807.94,916.873 1810.1,916.878 1812.26,916.882 1814.42,916.887 1816.59,916.891 1818.75,916.896 1820.91,916.9 1823.07,916.905 1825.23,916.909 1827.4,916.913 1829.56,916.918 1831.72,916.922 1833.88,916.926 1836.04,916.93 1838.21,916.934 1840.37,916.938 1842.53,916.942 1844.69,916.946 1846.85,916.95 1849.02,916.954 1851.18,916.958 1853.34,916.962 1855.5,916.966 1857.66,916.969 1859.83,916.973 1861.99,916.977 1864.15,916.98 1866.31,916.984 1868.47,916.988 1870.63,916.991 1872.8,916.995 1874.96,916.998 1877.12,917.002 1879.28,917.005 1881.44,917.008 1883.61,917.012 1885.77,917.015 1887.93,917.018 1890.09,917.022 1892.25,917.025 1894.42,917.028 1896.58,917.031 1898.74,917.034 1900.9,917.037 1903.06,917.04 1905.23,917.043 1907.39,917.046 1909.55,917.049 1911.71,917.052 1913.87,917.055 1916.04,917.058 1918.2,917.061 1920.36,917.064 1922.52,917.067 1924.68,917.069 1926.85,917.072 1929.01,917.075 1931.17,917.077 1933.33,917.08 1935.49,917.083 1937.66,917.085 1939.82,917.088 1941.98,917.09 1944.14,917.093 1946.3,917.096 1948.47,917.098 1950.63,917.1 1952.79,917.103 1954.95,917.105 1957.11,917.108 1959.28,917.11 1961.44,917.112 1963.6,917.115 1965.76,917.117 1967.92,917.119 1970.09,917.121 1972.25,917.124 1974.41,917.126 1976.57,917.128 1978.73,917.13 1980.9,917.132 1983.06,917.134 1985.22,917.136 1987.38,917.139 1989.54,917.141 1991.71,917.143 1993.87,917.145 1996.03,917.147 1998.19,917.149 2000.35,917.15 2002.52,917.152 2004.68,917.154 2006.84,917.156 2009,917.158 2011.16,917.16 2013.33,917.162 2015.49,917.163 2017.65,917.165 2019.81,917.167 2021.97,917.169 2024.14,917.17 2026.3,917.172 2028.46,917.174 2030.62,917.176 2032.78,917.177 2034.95,917.179 2037.11,917.18 2039.27,917.182 2041.43,917.184 2043.59,917.185 2045.76,917.187 2047.92,917.188 2050.08,917.19 2052.24,917.191 2054.4,917.193 2056.57,917.194 2058.73,917.196 2060.89,917.197 2063.05,917.199 2065.21,917.2 2067.37,917.202 2069.54,917.203 2071.7,917.204 2073.86,917.206 2076.02,917.207 2078.18,917.208 2080.35,917.21 2082.51,917.211 2084.67,917.212 2086.83,917.214 2088.99,917.215 2091.16,917.216 2093.32,917.217 2095.48,917.219 2097.64,917.22 2099.8,917.221 2101.97,917.222 2104.13,917.224 2106.29,917.225 2108.45,917.226 2110.61,917.227 2112.78,917.228 2114.94,917.229 2117.1,917.231 2119.26,917.232 2121.42,917.233 2123.59,917.234 2125.75,917.235 2127.91,917.236 2130.07,917.237 2132.23,917.238 2134.4,917.239 2136.56,917.24 2138.72,917.241 2140.88,917.242 2143.04,917.243 2145.21,917.244 2147.37,917.245 2149.53,917.246 2151.69,917.247 2153.85,917.248 2156.02,917.249 2158.18,917.25 2160.34,917.251 2162.5,917.252 2164.66,917.253 2166.83,917.254 2168.99,917.255 2171.15,917.256 2173.31,917.256 2175.47,917.257 2177.64,917.258 2179.8,917.259 2181.96,917.26 2184.12,917.261 2186.28,917.262 2188.45,917.262 2190.61,917.263 2192.77,917.264 2194.93,917.265 2197.09,917.266 2199.26,917.266 2201.42,917.267 2203.58,917.268 2205.74,917.269 2207.9,917.269 2210.07,917.27 2212.23,917.271 2214.39,917.272 2216.55,917.272 2218.71,917.273 2220.88,917.274 2223.04,917.274 2225.2,917.275 2227.36,917.276 2229.52,917.276 2231.69,917.277 2233.85,917.278 2236.01,917.278 2238.17,917.279 2240.33,917.28 2242.5,917.28 2244.66,917.281 2246.82,917.282 2248.98,917.282 2251.14,917.283 2253.3,917.283 2255.47,917.284 2257.63,917.285 2259.79,917.285 2261.95,917.286 2264.11,917.286 2266.28,917.287 2268.44,917.287 2270.6,917.288 2272.76,917.288 2274.92,917.289 2277.09,917.29 2279.25,917.29 2281.41,917.291 2283.57,917.291 2285.73,917.292 2287.9,917.292 2290.06,917.293 2292.22,917.293 2294.38,917.294 2296.54,917.294 2298.71,917.295 2300.87,917.295 2303.03,917.296 2305.19,917.296 2307.35,917.296 2309.52,917.297 2311.68,917.297 2313.84,917.298 2316,917.298 2318.16,917.299 2320.33,917.299 2322.49,917.3 2324.65,917.3 2326.81,917.3 2328.97,917.301 2331.14,917.301 2333.3,917.302 2335.46,917.302 2337.62,917.303 2339.78,917.303 2341.95,917.303 2344.11,917.304 2346.27,917.304 2348.43,917.305 2350.59,917.305 2352.76,917.305 "/>
<polyline clip-path="url(#clip932)" style="stroke:#e26f46; stroke-linecap:round; stroke-linejoin:round; stroke-width:4; stroke-opacity:1; fill:none" points="192.941,1384.24 195.103,1379.9 197.265,1375.6 199.427,1371.35 201.589,1367.13 203.751,1362.95 205.912,1358.82 208.074,1354.72 210.236,1350.66 212.398,1346.64 214.56,1342.66 216.722,1338.72 218.884,1334.81 221.046,1330.95 223.208,1327.11 225.37,1323.32 227.532,1319.56 229.694,1315.84 231.856,1312.15 234.018,1308.5 236.18,1304.88 238.342,1301.29 240.504,1297.74 242.666,1294.23 244.828,1290.75 246.99,1287.3 249.152,1283.88 251.314,1280.5 253.476,1277.14 255.638,1273.82 257.8,1270.53 259.962,1267.28 262.124,1264.05 264.286,1260.85 266.448,1257.69 268.61,1254.55 270.772,1251.44 272.934,1248.37 275.096,1245.32 277.258,1242.3 279.42,1239.31 281.582,1236.35 283.744,1233.42 285.906,1230.51 288.068,1227.63 290.23,1224.78 292.392,1221.95 294.554,1219.16 296.716,1216.39 298.878,1213.64 301.039,1210.92 303.201,1208.23 305.363,1205.56 307.525,1202.92 309.687,1200.3 311.849,1197.71 314.011,1195.14 316.173,1192.59 318.335,1190.07 320.497,1187.58 322.659,1185.1 324.821,1182.65 326.983,1180.23 329.145,1177.82 331.307,1175.44 333.469,1173.08 335.631,1170.75 337.793,1168.43 339.955,1166.14 342.117,1163.87 344.279,1161.62 346.441,1159.39 348.603,1157.18 350.765,1155 352.927,1152.83 355.089,1150.68 357.251,1148.56 359.413,1146.45 361.575,1144.37 363.737,1142.3 365.899,1140.25 368.061,1138.23 370.223,1136.22 372.385,1134.23 374.547,1132.26 376.709,1130.3 378.871,1128.37 381.033,1126.45 383.195,1124.56 385.357,1122.68 387.519,1120.81 389.681,1118.97 391.843,1117.14 394.005,1115.33 396.166,1113.54 398.328,1111.76 400.49,1110 402.652,1108.25 404.814,1106.53 406.976,1104.82 409.138,1103.12 411.3,1101.44 413.462,1099.78 415.624,1098.13 417.786,1096.5 419.948,1094.88 422.11,1093.27 424.272,1091.69 426.434,1090.11 428.596,1088.56 430.758,1087.01 432.92,1085.48 435.082,1083.97 437.244,1082.47 439.406,1080.98 441.568,1079.51 443.73,1078.05 445.892,1076.6 448.054,1075.17 450.216,1073.75 452.378,1072.35 454.54,1070.95 456.702,1069.58 458.864,1068.21 461.026,1066.86 463.188,1065.51 465.35,1064.19 467.512,1062.87 469.674,1061.56 471.836,1060.27 473.998,1058.99 476.16,1057.72 478.322,1056.47 480.484,1055.22 482.646,1053.99 484.808,1052.77 486.97,1051.56 489.132,1050.36 491.293,1049.17 493.455,1047.99 495.617,1046.83 497.779,1045.67 499.941,1044.53 502.103,1043.39 504.265,1042.27 506.427,1041.16 508.589,1040.05 510.751,1038.96 512.913,1037.88 515.075,1036.81 517.237,1035.74 519.399,1034.69 521.561,1033.65 523.723,1032.61 525.885,1031.59 528.047,1030.58 530.209,1029.57 532.371,1028.57 534.533,1027.59 536.695,1026.61 538.857,1025.64 541.019,1024.68 543.181,1023.73 545.343,1022.79 547.505,1021.86 549.667,1020.93 551.829,1020.02 553.991,1019.11 556.153,1018.21 558.315,1017.32 560.477,1016.43 562.639,1015.56 564.801,1014.69 566.963,1013.83 569.125,1012.98 571.287,1012.14 573.449,1011.3 575.611,1010.48 577.773,1009.66 579.935,1008.84 582.097,1008.04 584.259,1007.24 586.42,1006.45 588.582,1005.67 590.744,1004.89 592.906,1004.12 595.068,1003.36 597.23,1002.61 599.392,1001.86 601.554,1001.12 603.716,1000.38 605.878,999.656 608.04,998.936 610.202,998.221 612.364,997.513 614.526,996.812 616.688,996.117 618.85,995.428 621.012,994.746 623.174,994.07 625.336,993.4 627.498,992.736 629.66,992.078 631.822,991.426 633.984,990.78 636.146,990.14 638.308,989.506 640.47,988.878 642.632,988.255 644.794,987.638 646.956,987.026 649.118,986.421 651.28,985.82 653.442,985.225 655.604,984.636 657.766,984.052 659.928,983.473 662.09,982.899 664.252,982.331 666.414,981.767 668.576,981.209 670.738,980.656 672.9,980.108 675.062,979.565 677.224,979.027 679.386,978.494 681.547,977.965 683.709,977.442 685.871,976.923 688.033,976.409 690.195,975.899 692.357,975.394 694.519,974.894 696.681,974.398 698.843,973.906 701.005,973.419 703.167,972.937 705.329,972.459 707.491,971.985 709.653,971.515 711.815,971.05 713.977,970.589 716.139,970.132 718.301,969.679 720.463,969.23 722.625,968.785 724.787,968.344 726.949,967.907 729.111,967.474 731.273,967.045 733.435,966.62 735.597,966.199 737.759,965.781 739.921,965.367 742.083,964.957 744.245,964.55 746.407,964.148 748.569,963.748 750.731,963.353 752.893,962.96 755.055,962.572 757.217,962.187 759.379,961.805 761.541,961.426 763.703,961.052 765.865,960.68 768.027,960.312 770.189,959.947 772.351,959.585 774.513,959.226 776.674,958.871 778.836,958.519 780.998,958.17 783.16,957.824 785.322,957.481 787.484,957.142 789.646,956.805 791.808,956.471 793.97,956.14 796.132,955.813 798.294,955.488 800.456,955.166 802.618,954.847 804.78,954.53 806.942,954.217 809.104,953.906 811.266,953.598 813.428,953.293 815.59,952.991 817.752,952.691 819.914,952.394 822.076,952.099 824.238,951.807 826.4,951.518 828.562,951.231 830.724,950.947 832.886,950.665 835.048,950.386 837.21,950.109 839.372,949.835 841.534,949.563 843.696,949.294 845.858,949.026 848.02,948.762 850.182,948.499 852.344,948.239 854.506,947.981 856.668,947.726 858.83,947.472 860.992,947.221 863.154,946.972 865.316,946.726 867.478,946.481 869.64,946.239 871.801,945.998 873.963,945.76 876.125,945.524 878.287,945.29 880.449,945.058 882.611,944.828 884.773,944.6 886.935,944.374 889.097,944.15 891.259,943.928 893.421,943.708 895.583,943.49 897.745,943.274 899.907,943.059 902.069,942.847 904.231,942.636 906.393,942.428 908.555,942.221 910.717,942.015 912.879,941.812 915.041,941.61 917.203,941.411 919.365,941.213 921.527,941.016 923.689,940.822 925.851,940.629 928.013,940.437 930.175,940.248 932.337,940.06 934.499,939.873 936.661,939.689 938.823,939.506 940.985,939.324 943.147,939.144 945.309,938.966 947.471,938.789 949.633,938.614 951.795,938.44 953.957,938.268 956.119,938.097 958.281,937.928 960.443,937.76 962.605,937.593 964.767,937.428 966.928,937.265 969.09,937.103 971.252,936.942 973.414,936.783 975.576,936.625 977.738,936.468 979.9,936.313 982.062,936.159 984.224,936.006 986.386,935.855 988.548,935.705 990.71,935.556 992.872,935.409 995.034,935.262 997.196,935.118 999.358,934.974 1001.52,934.831 1003.68,934.69 1005.84,934.55 1008.01,934.411 1010.17,934.274 1012.33,934.137 1014.49,934.002 1016.65,933.868 1018.82,933.734 1020.98,933.603 1023.14,933.472 1025.3,933.342 1027.46,933.214 1029.63,933.086 1031.79,932.96 1033.95,932.835 1036.11,932.71 1038.27,932.587 1040.44,932.465 1042.6,932.344 1044.76,932.224 1046.92,932.105 1049.08,931.987 1051.25,931.87 1053.41,931.754 1055.57,931.639 1057.73,931.525 1059.89,931.412 1062.06,931.3 1064.22,931.188 1066.38,931.078 1068.54,930.969 1070.7,930.861 1072.87,930.753 1075.03,930.647 1077.19,930.541 1079.35,930.436 1081.51,930.332 1083.68,930.229 1085.84,930.127 1088,930.026 1090.16,929.926 1092.32,929.826 1094.49,929.727 1096.65,929.63 1098.81,929.533 1100.97,929.436 1103.13,929.341 1105.3,929.246 1107.46,929.152 1109.62,929.059 1111.78,928.967 1113.94,928.876 1116.1,928.785 1118.27,928.695 1120.43,928.606 1122.59,928.517 1124.75,928.429 1126.91,928.342 1129.08,928.256 1131.24,928.171 1133.4,928.086 1135.56,928.002 1137.72,927.918 1139.89,927.835 1142.05,927.753 1144.21,927.672 1146.37,927.591 1148.53,927.511 1150.7,927.432 1152.86,927.353 1155.02,927.275 1157.18,927.198 1159.34,927.121 1161.51,927.045 1163.67,926.969 1165.83,926.894 1167.99,926.82 1170.15,926.746 1172.32,926.673 1174.48,926.601 1176.64,926.529 1178.8,926.458 1180.96,926.387 1183.13,926.317 1185.29,926.247 1187.45,926.179 1189.61,926.11 1191.77,926.042 1193.94,925.975 1196.1,925.908 1198.26,925.842 1200.42,925.777 1202.58,925.712 1204.75,925.647 1206.91,925.583 1209.07,925.52 1211.23,925.457 1213.39,925.394 1215.56,925.332 1217.72,925.271 1219.88,925.21 1222.04,925.15 1224.2,925.09 1226.37,925.031 1228.53,924.972 1230.69,924.913 1232.85,924.855 1235.01,924.798 1237.18,924.741 1239.34,924.684 1241.5,924.628 1243.66,924.572 1245.82,924.517 1247.99,924.463 1250.15,924.408 1252.31,924.354 1254.47,924.301 1256.63,924.248 1258.8,924.195 1260.96,924.143 1263.12,924.092 1265.28,924.04 1267.44,923.99 1269.61,923.939 1271.77,923.889 1273.93,923.839 1276.09,923.79 1278.25,923.741 1280.42,923.693 1282.58,923.645 1284.74,923.597 1286.9,923.55 1289.06,923.503 1291.23,923.456 1293.39,923.41 1295.55,923.364 1297.71,923.319 1299.87,923.274 1302.03,923.229 1304.2,923.185 1306.36,923.141 1308.52,923.097 1310.68,923.054 1312.84,923.011 1315.01,922.969 1317.17,922.926 1319.33,922.884 1321.49,922.843 1323.65,922.802 1325.82,922.761 1327.98,922.72 1330.14,922.68 1332.3,922.64 1334.46,922.6 1336.63,922.561 1338.79,922.522 1340.95,922.483 1343.11,922.445 1345.27,922.407 1347.44,922.369 1349.6,922.331 1351.76,922.294 1353.92,922.257 1356.08,922.221 1358.25,922.185 1360.41,922.149 1362.57,922.113 1364.73,922.077 1366.89,922.042 1369.06,922.007 1371.22,921.973 1373.38,921.939 1375.54,921.904 1377.7,921.871 1379.87,921.837 1382.03,921.804 1384.19,921.771 1386.35,921.738 1388.51,921.706 1390.68,921.674 1392.84,921.642 1395,921.61 1397.16,921.579 1399.32,921.547 1401.49,921.516 1403.65,921.486 1405.81,921.455 1407.97,921.425 1410.13,921.395 1412.3,921.365 1414.46,921.336 1416.62,921.306 1418.78,921.277 1420.94,921.249 1423.11,921.22 1425.27,921.192 1427.43,921.163 1429.59,921.135 1431.75,921.108 1433.92,921.08 1436.08,921.053 1438.24,921.026 1440.4,920.999 1442.56,920.972 1444.73,920.946 1446.89,920.92 1449.05,920.893 1451.21,920.868 1453.37,920.842 1455.54,920.817 1457.7,920.791 1459.86,920.766 1462.02,920.741 1464.18,920.717 1466.35,920.692 1468.51,920.668 1470.67,920.644 1472.83,920.62 1474.99,920.596 1477.16,920.573 1479.32,920.549 1481.48,920.526 1483.64,920.503 1485.8,920.48 1487.97,920.457 1490.13,920.435 1492.29,920.413 1494.45,920.39 1496.61,920.368 1498.77,920.347 1500.94,920.325 1503.1,920.303 1505.26,920.282 1507.42,920.261 1509.58,920.24 1511.75,920.219 1513.91,920.198 1516.07,920.178 1518.23,920.158 1520.39,920.137 1522.56,920.117 1524.72,920.097 1526.88,920.078 1529.04,920.058 1531.2,920.039 1533.37,920.019 1535.53,920 1537.69,919.981 1539.85,919.962 1542.01,919.944 1544.18,919.925 1546.34,919.907 1548.5,919.888 1550.66,919.87 1552.82,919.852 1554.99,919.834 1557.15,919.817 1559.31,919.799 1561.47,919.782 1563.63,919.764 1565.8,919.747 1567.96,919.73 1570.12,919.713 1572.28,919.696 1574.44,919.68 1576.61,919.663 1578.77,919.647 1580.93,919.63 1583.09,919.614 1585.25,919.598 1587.42,919.582 1589.58,919.566 1591.74,919.551 1593.9,919.535 1596.06,919.52 1598.23,919.504 1600.39,919.489 1602.55,919.474 1604.71,919.459 1606.87,919.444 1609.04,919.429 1611.2,919.414 1613.36,919.4 1615.52,919.385 1617.68,919.371 1619.85,919.357 1622.01,919.343 1624.17,919.329 1626.33,919.315 1628.49,919.301 1630.66,919.287 1632.82,919.274 1634.98,919.26 1637.14,919.247 1639.3,919.233 1641.47,919.22 1643.63,919.207 1645.79,919.194 1647.95,919.181 1650.11,919.168 1652.28,919.156 1654.44,919.143 1656.6,919.13 1658.76,919.118 1660.92,919.105 1663.09,919.093 1665.25,919.081 1667.41,919.069 1669.57,919.057 1671.73,919.045 1673.9,919.033 1676.06,919.021 1678.22,919.01 1680.38,918.998 1682.54,918.987 1684.7,918.975 1686.87,918.964 1689.03,918.953 1691.19,918.941 1693.35,918.93 1695.51,918.919 1697.68,918.908 1699.84,918.898 1702,918.887 1704.16,918.876 1706.32,918.866 1708.49,918.855 1710.65,918.845 1712.81,918.834 1714.97,918.824 1717.13,918.814 1719.3,918.804 1721.46,918.794 1723.62,918.784 1725.78,918.774 1727.94,918.764 1730.11,918.754 1732.27,918.744 1734.43,918.735 1736.59,918.725 1738.75,918.716 1740.92,918.706 1743.08,918.697 1745.24,918.688 1747.4,918.678 1749.56,918.669 1751.73,918.66 1753.89,918.651 1756.05,918.642 1758.21,918.633 1760.37,918.624 1762.54,918.616 1764.7,918.607 1766.86,918.598 1769.02,918.59 1771.18,918.581 1773.35,918.573 1775.51,918.564 1777.67,918.556 1779.83,918.548 1781.99,918.54 1784.16,918.531 1786.32,918.523 1788.48,918.515 1790.64,918.507 1792.8,918.5 1794.97,918.492 1797.13,918.484 1799.29,918.476 1801.45,918.468 1803.61,918.461 1805.78,918.453 1807.94,918.446 1810.1,918.438 1812.26,918.431 1814.42,918.423 1816.59,918.416 1818.75,918.409 1820.91,918.402 1823.07,918.395 1825.23,918.387 1827.4,918.38 1829.56,918.373 1831.72,918.366 1833.88,918.36 1836.04,918.353 1838.21,918.346 1840.37,918.339 1842.53,918.332 1844.69,918.326 1846.85,918.319 1849.02,918.313 1851.18,918.306 1853.34,918.3 1855.5,918.293 1857.66,918.287 1859.83,918.28 1861.99,918.274 1864.15,918.268 1866.31,918.262 1868.47,918.256 1870.63,918.249 1872.8,918.243 1874.96,918.237 1877.12,918.231 1879.28,918.225 1881.44,918.219 1883.61,918.214 1885.77,918.208 1887.93,918.202 1890.09,918.196 1892.25,918.19 1894.42,918.185 1896.58,918.179 1898.74,918.174 1900.9,918.168 1903.06,918.162 1905.23,918.157 1907.39,918.152 1909.55,918.146 1911.71,918.141 1913.87,918.135 1916.04,918.13 1918.2,918.125 1920.36,918.12 1922.52,918.115 1924.68,918.109 1926.85,918.104 1929.01,918.099 1931.17,918.094 1933.33,918.089 1935.49,918.084 1937.66,918.079 1939.82,918.074 1941.98,918.07 1944.14,918.065 1946.3,918.06 1948.47,918.055 1950.63,918.05 1952.79,918.046 1954.95,918.041 1957.11,918.036 1959.28,918.032 1961.44,918.027 1963.6,918.023 1965.76,918.018 1967.92,918.014 1970.09,918.009 1972.25,918.005 1974.41,918.001 1976.57,917.996 1978.73,917.992 1980.9,917.988 1983.06,917.983 1985.22,917.979 1987.38,917.975 1989.54,917.971 1991.71,917.967 1993.87,917.963 1996.03,917.959 1998.19,917.955 2000.35,917.95 2002.52,917.946 2004.68,917.943 2006.84,917.939 2009,917.935 2011.16,917.931 2013.33,917.927 2015.49,917.923 2017.65,917.919 2019.81,917.916 2021.97,917.912 2024.14,917.908 2026.3,917.904 2028.46,917.901 2030.62,917.897 2032.78,917.893 2034.95,917.89 2037.11,917.886 2039.27,917.883 2041.43,917.879 2043.59,917.876 2045.76,917.872 2047.92,917.869 2050.08,917.865 2052.24,917.862 2054.4,917.859 2056.57,917.855 2058.73,917.852 2060.89,917.849 2063.05,917.845 2065.21,917.842 2067.37,917.839 2069.54,917.836 2071.7,917.832 2073.86,917.829 2076.02,917.826 2078.18,917.823 2080.35,917.82 2082.51,917.817 2084.67,917.814 2086.83,917.811 2088.99,917.807 2091.16,917.804 2093.32,917.801 2095.48,917.799 2097.64,917.796 2099.8,917.793 2101.97,917.79 2104.13,917.787 2106.29,917.784 2108.45,917.781 2110.61,917.778 2112.78,917.775 2114.94,917.773 2117.1,917.77 2119.26,917.767 2121.42,917.764 2123.59,917.762 2125.75,917.759 2127.91,917.756 2130.07,917.754 2132.23,917.751 2134.4,917.748 2136.56,917.746 2138.72,917.743 2140.88,917.74 2143.04,917.738 2145.21,917.735 2147.37,917.733 2149.53,917.73 2151.69,917.728 2153.85,917.725 2156.02,917.723 2158.18,917.72 2160.34,917.718 2162.5,917.715 2164.66,917.713 2166.83,917.711 2168.99,917.708 2171.15,917.706 2173.31,917.704 2175.47,917.701 2177.64,917.699 2179.8,917.697 2181.96,917.694 2184.12,917.692 2186.28,917.69 2188.45,917.688 2190.61,917.685 2192.77,917.683 2194.93,917.681 2197.09,917.679 2199.26,917.677 2201.42,917.675 2203.58,917.673 2205.74,917.67 2207.9,917.668 2210.07,917.666 2212.23,917.664 2214.39,917.662 2216.55,917.66 2218.71,917.658 2220.88,917.656 2223.04,917.654 2225.2,917.652 2227.36,917.65 2229.52,917.648 2231.69,917.646 2233.85,917.644 2236.01,917.642 2238.17,917.64 2240.33,917.638 2242.5,917.637 2244.66,917.635 2246.82,917.633 2248.98,917.631 2251.14,917.629 2253.3,917.627 2255.47,917.626 2257.63,917.624 2259.79,917.622 2261.95,917.62 2264.11,917.618 2266.28,917.617 2268.44,917.615 2270.6,917.613 2272.76,917.611 2274.92,917.61 2277.09,917.608 2279.25,917.606 2281.41,917.605 2283.57,917.603 2285.73,917.601 2287.9,917.6 2290.06,917.598 2292.22,917.596 2294.38,917.595 2296.54,917.593 2298.71,917.592 2300.87,917.59 2303.03,917.589 2305.19,917.587 2307.35,917.585 2309.52,917.584 2311.68,917.582 2313.84,917.581 2316,917.579 2318.16,917.578 2320.33,917.576 2322.49,917.575 2324.65,917.573 2326.81,917.572 2328.97,917.571 2331.14,917.569 2333.3,917.568 2335.46,917.566 2337.62,917.565 2339.78,917.563 2341.95,917.562 2344.11,917.561 2346.27,917.559 2348.43,917.558 2350.59,917.557 2352.76,917.555 "/>
<path clip-path="url(#clip930)" d="M1805.38 248.629 L2280.76 248.629 L2280.76 93.1086 L1805.38 93.1086  Z" fill="#ffffff" fill-rule="evenodd" fill-opacity="1"/>
<polyline clip-path="url(#clip930)" style="stroke:#000000; stroke-linecap:round; stroke-linejoin:round; stroke-width:4; stroke-opacity:1; fill:none" points="1805.38,248.629 2280.76,248.629 2280.76,93.1086 1805.38,93.1086 1805.38,248.629 "/>
<polyline clip-path="url(#clip930)" style="stroke:#009af9; stroke-linecap:round; stroke-linejoin:round; stroke-width:4; stroke-opacity:1; fill:none" points="1829.38,144.949 1973.37,144.949 "/>
<path clip-path="url(#clip930)" d="M1997.37 136.303 L2001.88 136.303 L2009.98 158.062 L2018.08 136.303 L2022.6 136.303 L2012.88 162.229 L2007.09 162.229 L1997.37 136.303 Z" fill="#000000" fill-rule="nonzero" fill-opacity="1" /><path clip-path="url(#clip930)" d="M2029.89 158.293 L2037.53 158.293 L2037.53 131.928 L2029.22 133.595 L2029.22 129.335 L2037.48 127.669 L2042.16 127.669 L2042.16 158.293 L2049.8 158.293 L2049.8 162.229 L2029.89 162.229 L2029.89 158.293 Z" fill="#000000" fill-rule="nonzero" fill-opacity="1" /><path clip-path="url(#clip930)" d="M2067.9 145.585 L2067.9 152.807 L2076.02 152.807 L2076.02 155.006 L2067.9 155.006 L2067.9 162.229 L2065.47 162.229 L2065.47 155.006 L2057.34 155.006 L2057.34 152.807 L2065.47 152.807 L2065.47 145.585 L2067.9 145.585 Z" fill="#000000" fill-rule="nonzero" fill-opacity="1" /><path clip-path="url(#clip930)" d="M2100.19 137.067 L2100.19 141.094 Q2098.39 140.169 2096.44 139.706 Q2094.5 139.243 2092.41 139.243 Q2089.24 139.243 2087.64 140.215 Q2086.07 141.187 2086.07 143.131 Q2086.07 144.613 2087.2 145.469 Q2088.34 146.303 2091.76 147.067 L2093.22 147.391 Q2097.76 148.363 2099.66 150.145 Q2101.58 151.905 2101.58 155.076 Q2101.58 158.687 2098.71 160.793 Q2095.86 162.9 2090.86 162.9 Q2088.78 162.9 2086.51 162.483 Q2084.27 162.09 2081.77 161.28 L2081.77 156.881 Q2084.13 158.108 2086.42 158.733 Q2088.71 159.335 2090.95 159.335 Q2093.96 159.335 2095.58 158.317 Q2097.2 157.275 2097.2 155.4 Q2097.2 153.664 2096.02 152.738 Q2094.87 151.812 2090.91 150.956 L2089.43 150.608 Q2085.47 149.775 2083.71 148.062 Q2081.95 146.326 2081.95 143.317 Q2081.95 139.659 2084.54 137.669 Q2087.14 135.678 2091.9 135.678 Q2094.26 135.678 2096.35 136.025 Q2098.43 136.372 2100.19 137.067 Z" fill="#000000" fill-rule="nonzero" fill-opacity="1" /><path clip-path="url(#clip930)" d="M2112.58 128.942 L2112.58 136.303 L2121.35 136.303 L2121.35 139.613 L2112.58 139.613 L2112.58 153.687 Q2112.58 156.858 2113.43 157.761 Q2114.31 158.664 2116.97 158.664 L2121.35 158.664 L2121.35 162.229 L2116.97 162.229 Q2112.04 162.229 2110.17 160.4 Q2108.29 158.548 2108.29 153.687 L2108.29 139.613 L2105.17 139.613 L2105.17 136.303 L2108.29 136.303 L2108.29 128.942 L2112.58 128.942 Z" fill="#000000" fill-rule="nonzero" fill-opacity="1" /><path clip-path="url(#clip930)" d="M2137 139.289 Q2133.57 139.289 2131.58 141.974 Q2129.59 144.636 2129.59 149.289 Q2129.59 153.942 2131.56 156.627 Q2133.55 159.289 2137 159.289 Q2140.4 159.289 2142.39 156.604 Q2144.38 153.918 2144.38 149.289 Q2144.38 144.682 2142.39 141.997 Q2140.4 139.289 2137 139.289 M2137 135.678 Q2142.55 135.678 2145.72 139.289 Q2148.89 142.9 2148.89 149.289 Q2148.89 155.655 2145.72 159.289 Q2142.55 162.9 2137 162.9 Q2131.42 162.9 2128.25 159.289 Q2125.1 155.655 2125.1 149.289 Q2125.1 142.9 2128.25 139.289 Q2131.42 135.678 2137 135.678 Z" fill="#000000" fill-rule="nonzero" fill-opacity="1" /><path clip-path="url(#clip930)" d="M2170.98 140.284 Q2170.26 139.868 2169.4 139.682 Q2168.57 139.474 2167.55 139.474 Q2163.94 139.474 2162 141.835 Q2160.07 144.173 2160.07 148.571 L2160.07 162.229 L2155.79 162.229 L2155.79 136.303 L2160.07 136.303 L2160.07 140.331 Q2161.42 137.969 2163.57 136.835 Q2165.72 135.678 2168.8 135.678 Q2169.24 135.678 2169.77 135.747 Q2170.31 135.794 2170.95 135.909 L2170.98 140.284 Z" fill="#000000" fill-rule="nonzero" fill-opacity="1" /><path clip-path="url(#clip930)" d="M2187.23 149.196 Q2182.07 149.196 2180.07 150.377 Q2178.08 151.557 2178.08 154.405 Q2178.08 156.673 2179.57 158.016 Q2181.07 159.335 2183.64 159.335 Q2187.18 159.335 2189.31 156.835 Q2191.46 154.312 2191.46 150.145 L2191.46 149.196 L2187.23 149.196 M2195.72 147.437 L2195.72 162.229 L2191.46 162.229 L2191.46 158.293 Q2190.01 160.655 2187.83 161.789 Q2185.65 162.9 2182.51 162.9 Q2178.52 162.9 2176.16 160.678 Q2173.82 158.432 2173.82 154.682 Q2173.82 150.307 2176.74 148.085 Q2179.68 145.863 2185.49 145.863 L2191.46 145.863 L2191.46 145.446 Q2191.46 142.507 2189.52 140.909 Q2187.6 139.289 2184.1 139.289 Q2181.88 139.289 2179.77 139.821 Q2177.67 140.354 2175.72 141.419 L2175.72 137.483 Q2178.06 136.581 2180.26 136.141 Q2182.46 135.678 2184.54 135.678 Q2190.17 135.678 2192.95 138.594 Q2195.72 141.511 2195.72 147.437 Z" fill="#000000" fill-rule="nonzero" fill-opacity="1" /><path clip-path="url(#clip930)" d="M2221.56 148.965 Q2221.56 144.335 2219.63 141.789 Q2217.74 139.243 2214.29 139.243 Q2210.86 139.243 2208.94 141.789 Q2207.04 144.335 2207.04 148.965 Q2207.04 153.571 2208.94 156.118 Q2210.86 158.664 2214.29 158.664 Q2217.74 158.664 2219.63 156.118 Q2221.56 153.571 2221.56 148.965 M2225.82 159.011 Q2225.82 165.631 2222.88 168.849 Q2219.94 172.09 2213.87 172.09 Q2211.63 172.09 2209.63 171.742 Q2207.64 171.418 2205.77 170.724 L2205.77 166.58 Q2207.64 167.599 2209.47 168.085 Q2211.3 168.571 2213.2 168.571 Q2217.39 168.571 2219.47 166.372 Q2221.56 164.196 2221.56 159.775 L2221.56 157.668 Q2220.24 159.96 2218.18 161.094 Q2216.12 162.229 2213.25 162.229 Q2208.48 162.229 2205.56 158.594 Q2202.64 154.96 2202.64 148.965 Q2202.64 142.946 2205.56 139.312 Q2208.48 135.678 2213.25 135.678 Q2216.12 135.678 2218.18 136.812 Q2220.24 137.946 2221.56 140.238 L2221.56 136.303 L2225.82 136.303 L2225.82 159.011 Z" fill="#000000" fill-rule="nonzero" fill-opacity="1" /><path clip-path="url(#clip930)" d="M2256.76 148.201 L2256.76 150.284 L2237.18 150.284 Q2237.46 154.682 2239.82 156.997 Q2242.2 159.289 2246.44 159.289 Q2248.89 159.289 2251.19 158.687 Q2253.5 158.085 2255.77 156.881 L2255.77 160.909 Q2253.48 161.881 2251.07 162.391 Q2248.66 162.9 2246.19 162.9 Q2239.98 162.9 2236.35 159.289 Q2232.74 155.678 2232.74 149.52 Q2232.74 143.155 2236.16 139.428 Q2239.61 135.678 2245.44 135.678 Q2250.68 135.678 2253.71 139.057 Q2256.76 142.414 2256.76 148.201 M2252.5 146.951 Q2252.46 143.456 2250.54 141.372 Q2248.64 139.289 2245.49 139.289 Q2241.93 139.289 2239.77 141.303 Q2237.64 143.317 2237.32 146.974 L2252.5 146.951 Z" fill="#000000" fill-rule="nonzero" fill-opacity="1" /><polyline clip-path="url(#clip930)" style="stroke:#e26f46; stroke-linecap:round; stroke-linejoin:round; stroke-width:4; stroke-opacity:1; fill:none" points="1829.38,196.789 1973.37,196.789 "/>
<path clip-path="url(#clip930)" d="M1997.37 188.143 L2001.88 188.143 L2009.98 209.902 L2018.08 188.143 L2022.6 188.143 L2012.88 214.069 L2007.09 214.069 L1997.37 188.143 Z" fill="#000000" fill-rule="nonzero" fill-opacity="1" /><path clip-path="url(#clip930)" d="M2029.13 179.509 L2047.48 179.509 L2047.48 183.444 L2033.41 183.444 L2033.41 191.916 Q2034.43 191.569 2035.45 191.407 Q2036.46 191.222 2037.48 191.222 Q2043.27 191.222 2046.65 194.393 Q2050.03 197.564 2050.03 202.981 Q2050.03 208.559 2046.56 211.661 Q2043.08 214.74 2036.77 214.74 Q2034.59 214.74 2032.32 214.37 Q2030.08 213.999 2027.67 213.258 L2027.67 208.559 Q2029.75 209.694 2031.97 210.249 Q2034.2 210.805 2036.67 210.805 Q2040.68 210.805 2043.02 208.698 Q2045.35 206.592 2045.35 202.981 Q2045.35 199.37 2043.02 197.263 Q2040.68 195.157 2036.67 195.157 Q2034.8 195.157 2032.92 195.573 Q2031.07 195.99 2029.13 196.87 L2029.13 179.509 Z" fill="#000000" fill-rule="nonzero" fill-opacity="1" /><path clip-path="url(#clip930)" d="M2067.9 197.425 L2067.9 204.647 L2076.02 204.647 L2076.02 206.846 L2067.9 206.846 L2067.9 214.069 L2065.47 214.069 L2065.47 206.846 L2057.34 206.846 L2057.34 204.647 L2065.47 204.647 L2065.47 197.425 L2067.9 197.425 Z" fill="#000000" fill-rule="nonzero" fill-opacity="1" /><path clip-path="url(#clip930)" d="M2100.19 188.907 L2100.19 192.934 Q2098.39 192.009 2096.44 191.546 Q2094.5 191.083 2092.41 191.083 Q2089.24 191.083 2087.64 192.055 Q2086.07 193.027 2086.07 194.971 Q2086.07 196.453 2087.2 197.309 Q2088.34 198.143 2091.76 198.907 L2093.22 199.231 Q2097.76 200.203 2099.66 201.985 Q2101.58 203.745 2101.58 206.916 Q2101.58 210.527 2098.71 212.633 Q2095.86 214.74 2090.86 214.74 Q2088.78 214.74 2086.51 214.323 Q2084.27 213.93 2081.77 213.12 L2081.77 208.721 Q2084.13 209.948 2086.42 210.573 Q2088.71 211.175 2090.95 211.175 Q2093.96 211.175 2095.58 210.157 Q2097.2 209.115 2097.2 207.24 Q2097.2 205.504 2096.02 204.578 Q2094.87 203.652 2090.91 202.796 L2089.43 202.448 Q2085.47 201.615 2083.71 199.902 Q2081.95 198.166 2081.95 195.157 Q2081.95 191.499 2084.54 189.509 Q2087.14 187.518 2091.9 187.518 Q2094.26 187.518 2096.35 187.865 Q2098.43 188.212 2100.19 188.907 Z" fill="#000000" fill-rule="nonzero" fill-opacity="1" /><path clip-path="url(#clip930)" d="M2112.58 180.782 L2112.58 188.143 L2121.35 188.143 L2121.35 191.453 L2112.58 191.453 L2112.58 205.527 Q2112.58 208.698 2113.43 209.601 Q2114.31 210.504 2116.97 210.504 L2121.35 210.504 L2121.35 214.069 L2116.97 214.069 Q2112.04 214.069 2110.17 212.24 Q2108.29 210.388 2108.29 205.527 L2108.29 191.453 L2105.17 191.453 L2105.17 188.143 L2108.29 188.143 L2108.29 180.782 L2112.58 180.782 Z" fill="#000000" fill-rule="nonzero" fill-opacity="1" /><path clip-path="url(#clip930)" d="M2137 191.129 Q2133.57 191.129 2131.58 193.814 Q2129.59 196.476 2129.59 201.129 Q2129.59 205.782 2131.56 208.467 Q2133.55 211.129 2137 211.129 Q2140.4 211.129 2142.39 208.444 Q2144.38 205.758 2144.38 201.129 Q2144.38 196.522 2142.39 193.837 Q2140.4 191.129 2137 191.129 M2137 187.518 Q2142.55 187.518 2145.72 191.129 Q2148.89 194.74 2148.89 201.129 Q2148.89 207.495 2145.72 211.129 Q2142.55 214.74 2137 214.74 Q2131.42 214.74 2128.25 211.129 Q2125.1 207.495 2125.1 201.129 Q2125.1 194.74 2128.25 191.129 Q2131.42 187.518 2137 187.518 Z" fill="#000000" fill-rule="nonzero" fill-opacity="1" /><path clip-path="url(#clip930)" d="M2170.98 192.124 Q2170.26 191.708 2169.4 191.522 Q2168.57 191.314 2167.55 191.314 Q2163.94 191.314 2162 193.675 Q2160.07 196.013 2160.07 200.411 L2160.07 214.069 L2155.79 214.069 L2155.79 188.143 L2160.07 188.143 L2160.07 192.171 Q2161.42 189.809 2163.57 188.675 Q2165.72 187.518 2168.8 187.518 Q2169.24 187.518 2169.77 187.587 Q2170.31 187.634 2170.95 187.749 L2170.98 192.124 Z" fill="#000000" fill-rule="nonzero" fill-opacity="1" /><path clip-path="url(#clip930)" d="M2187.23 201.036 Q2182.07 201.036 2180.07 202.217 Q2178.08 203.397 2178.08 206.245 Q2178.08 208.513 2179.57 209.856 Q2181.07 211.175 2183.64 211.175 Q2187.18 211.175 2189.31 208.675 Q2191.46 206.152 2191.46 201.985 L2191.46 201.036 L2187.23 201.036 M2195.72 199.277 L2195.72 214.069 L2191.46 214.069 L2191.46 210.133 Q2190.01 212.495 2187.83 213.629 Q2185.65 214.74 2182.51 214.74 Q2178.52 214.74 2176.16 212.518 Q2173.82 210.272 2173.82 206.522 Q2173.82 202.147 2176.74 199.925 Q2179.68 197.703 2185.49 197.703 L2191.46 197.703 L2191.46 197.286 Q2191.46 194.347 2189.52 192.749 Q2187.6 191.129 2184.1 191.129 Q2181.88 191.129 2179.77 191.661 Q2177.67 192.194 2175.72 193.259 L2175.72 189.323 Q2178.06 188.421 2180.26 187.981 Q2182.46 187.518 2184.54 187.518 Q2190.17 187.518 2192.95 190.434 Q2195.72 193.351 2195.72 199.277 Z" fill="#000000" fill-rule="nonzero" fill-opacity="1" /><path clip-path="url(#clip930)" d="M2221.56 200.805 Q2221.56 196.175 2219.63 193.629 Q2217.74 191.083 2214.29 191.083 Q2210.86 191.083 2208.94 193.629 Q2207.04 196.175 2207.04 200.805 Q2207.04 205.411 2208.94 207.958 Q2210.86 210.504 2214.29 210.504 Q2217.74 210.504 2219.63 207.958 Q2221.56 205.411 2221.56 200.805 M2225.82 210.851 Q2225.82 217.471 2222.88 220.689 Q2219.94 223.93 2213.87 223.93 Q2211.63 223.93 2209.63 223.582 Q2207.64 223.258 2205.77 222.564 L2205.77 218.42 Q2207.64 219.439 2209.47 219.925 Q2211.3 220.411 2213.2 220.411 Q2217.39 220.411 2219.47 218.212 Q2221.56 216.036 2221.56 211.615 L2221.56 209.508 Q2220.24 211.8 2218.18 212.934 Q2216.12 214.069 2213.25 214.069 Q2208.48 214.069 2205.56 210.434 Q2202.64 206.8 2202.64 200.805 Q2202.64 194.786 2205.56 191.152 Q2208.48 187.518 2213.25 187.518 Q2216.12 187.518 2218.18 188.652 Q2220.24 189.786 2221.56 192.078 L2221.56 188.143 L2225.82 188.143 L2225.82 210.851 Z" fill="#000000" fill-rule="nonzero" fill-opacity="1" /><path clip-path="url(#clip930)" d="M2256.76 200.041 L2256.76 202.124 L2237.18 202.124 Q2237.46 206.522 2239.82 208.837 Q2242.2 211.129 2246.44 211.129 Q2248.89 211.129 2251.19 210.527 Q2253.5 209.925 2255.77 208.721 L2255.77 212.749 Q2253.48 213.721 2251.07 214.231 Q2248.66 214.74 2246.19 214.74 Q2239.98 214.74 2236.35 211.129 Q2232.74 207.518 2232.74 201.36 Q2232.74 194.995 2236.16 191.268 Q2239.61 187.518 2245.44 187.518 Q2250.68 187.518 2253.71 190.897 Q2256.76 194.254 2256.76 200.041 M2252.5 198.791 Q2252.46 195.296 2250.54 193.212 Q2248.64 191.129 2245.49 191.129 Q2241.93 191.129 2239.77 193.143 Q2237.64 195.157 2237.32 198.814 L2252.5 198.791 Z" fill="#000000" fill-rule="nonzero" fill-opacity="1" /></svg>
