<?xml version="1.0" encoding="utf-8"?>
<svg xmlns="http://www.w3.org/2000/svg" xmlns:xlink="http://www.w3.org/1999/xlink" width="600" height="400" viewBox="0 0 2400 1600">
<defs>
  <clipPath id="clip650">
    <rect x="0" y="0" width="2400" height="1600"/>
  </clipPath>
</defs>
<path clip-path="url(#clip650)" d="M0 1600 L2400 1600 L2400 0 L0 0  Z" fill="#ffffff" fill-rule="evenodd" fill-opacity="1"/>
<defs>
  <clipPath id="clip651">
    <rect x="480" y="0" width="1681" height="1600"/>
  </clipPath>
</defs>
<path clip-path="url(#clip650)" d="M192.941 1423.18 L2352.76 1423.18 L2352.76 47.2441 L192.941 47.2441  Z" fill="#ffffff" fill-rule="evenodd" fill-opacity="1"/>
<defs>
  <clipPath id="clip652">
    <rect x="192" y="47" width="2161" height="1377"/>
  </clipPath>
</defs>
<polyline clip-path="url(#clip652)" style="stroke:#000000; stroke-linecap:round; stroke-linejoin:round; stroke-width:2; stroke-opacity:0.1; fill:none" points="192.941,1423.18 192.941,47.2441 "/>
<polyline clip-path="url(#clip652)" style="stroke:#000000; stroke-linecap:round; stroke-linejoin:round; stroke-width:2; stroke-opacity:0.1; fill:none" points="732.894,1423.18 732.894,47.2441 "/>
<polyline clip-path="url(#clip652)" style="stroke:#000000; stroke-linecap:round; stroke-linejoin:round; stroke-width:2; stroke-opacity:0.1; fill:none" points="1272.85,1423.18 1272.85,47.2441 "/>
<polyline clip-path="url(#clip652)" style="stroke:#000000; stroke-linecap:round; stroke-linejoin:round; stroke-width:2; stroke-opacity:0.1; fill:none" points="1812.8,1423.18 1812.8,47.2441 "/>
<polyline clip-path="url(#clip652)" style="stroke:#000000; stroke-linecap:round; stroke-linejoin:round; stroke-width:2; stroke-opacity:0.1; fill:none" points="2352.76,1423.18 2352.76,47.2441 "/>
<polyline clip-path="url(#clip652)" style="stroke:#000000; stroke-linecap:round; stroke-linejoin:round; stroke-width:2; stroke-opacity:0.1; fill:none" points="192.941,1219.36 2352.76,1219.36 "/>
<polyline clip-path="url(#clip652)" style="stroke:#000000; stroke-linecap:round; stroke-linejoin:round; stroke-width:2; stroke-opacity:0.1; fill:none" points="192.941,934.855 2352.76,934.855 "/>
<polyline clip-path="url(#clip652)" style="stroke:#000000; stroke-linecap:round; stroke-linejoin:round; stroke-width:2; stroke-opacity:0.1; fill:none" points="192.941,650.355 2352.76,650.355 "/>
<polyline clip-path="url(#clip652)" style="stroke:#000000; stroke-linecap:round; stroke-linejoin:round; stroke-width:2; stroke-opacity:0.1; fill:none" points="192.941,365.854 2352.76,365.854 "/>
<polyline clip-path="url(#clip652)" style="stroke:#000000; stroke-linecap:round; stroke-linejoin:round; stroke-width:2; stroke-opacity:0.1; fill:none" points="192.941,81.3541 2352.76,81.3541 "/>
<polyline clip-path="url(#clip650)" style="stroke:#000000; stroke-linecap:round; stroke-linejoin:round; stroke-width:4; stroke-opacity:1; fill:none" points="192.941,1423.18 2352.76,1423.18 "/>
<polyline clip-path="url(#clip650)" style="stroke:#000000; stroke-linecap:round; stroke-linejoin:round; stroke-width:4; stroke-opacity:1; fill:none" points="192.941,1423.18 192.941,1404.28 "/>
<polyline clip-path="url(#clip650)" style="stroke:#000000; stroke-linecap:round; stroke-linejoin:round; stroke-width:4; stroke-opacity:1; fill:none" points="732.894,1423.18 732.894,1404.28 "/>
<polyline clip-path="url(#clip650)" style="stroke:#000000; stroke-linecap:round; stroke-linejoin:round; stroke-width:4; stroke-opacity:1; fill:none" points="1272.85,1423.18 1272.85,1404.28 "/>
<polyline clip-path="url(#clip650)" style="stroke:#000000; stroke-linecap:round; stroke-linejoin:round; stroke-width:4; stroke-opacity:1; fill:none" points="1812.8,1423.18 1812.8,1404.28 "/>
<polyline clip-path="url(#clip650)" style="stroke:#000000; stroke-linecap:round; stroke-linejoin:round; stroke-width:4; stroke-opacity:1; fill:none" points="2352.76,1423.18 2352.76,1404.28 "/>
<path clip-path="url(#clip650)" d="M170.325 1454.1 Q166.714 1454.1 164.885 1457.66 Q163.08 1461.2 163.08 1468.33 Q163.08 1475.44 164.885 1479.01 Q166.714 1482.55 170.325 1482.55 Q173.959 1482.55 175.765 1479.01 Q177.593 1475.44 177.593 1468.33 Q177.593 1461.2 175.765 1457.66 Q173.959 1454.1 170.325 1454.1 M170.325 1450.39 Q176.135 1450.39 179.191 1455 Q182.269 1459.58 182.269 1468.33 Q182.269 1477.06 179.191 1481.67 Q176.135 1486.25 170.325 1486.25 Q164.515 1486.25 161.436 1481.67 Q158.381 1477.06 158.381 1468.33 Q158.381 1459.58 161.436 1455 Q164.515 1450.39 170.325 1450.39 Z" fill="#000000" fill-rule="nonzero" fill-opacity="1" /><path clip-path="url(#clip650)" d="M190.487 1479.7 L195.371 1479.7 L195.371 1485.58 L190.487 1485.58 L190.487 1479.7 Z" fill="#000000" fill-rule="nonzero" fill-opacity="1" /><path clip-path="url(#clip650)" d="M215.556 1454.1 Q211.945 1454.1 210.116 1457.66 Q208.311 1461.2 208.311 1468.33 Q208.311 1475.44 210.116 1479.01 Q211.945 1482.55 215.556 1482.55 Q219.19 1482.55 220.996 1479.01 Q222.825 1475.44 222.825 1468.33 Q222.825 1461.2 220.996 1457.66 Q219.19 1454.1 215.556 1454.1 M215.556 1450.39 Q221.366 1450.39 224.422 1455 Q227.501 1459.58 227.501 1468.33 Q227.501 1477.06 224.422 1481.67 Q221.366 1486.25 215.556 1486.25 Q209.746 1486.25 206.667 1481.67 Q203.612 1477.06 203.612 1468.33 Q203.612 1459.58 206.667 1455 Q209.746 1450.39 215.556 1450.39 Z" fill="#000000" fill-rule="nonzero" fill-opacity="1" /><path clip-path="url(#clip650)" d="M710.777 1454.1 Q707.165 1454.1 705.337 1457.66 Q703.531 1461.2 703.531 1468.33 Q703.531 1475.44 705.337 1479.01 Q707.165 1482.55 710.777 1482.55 Q714.411 1482.55 716.216 1479.01 Q718.045 1475.44 718.045 1468.33 Q718.045 1461.2 716.216 1457.66 Q714.411 1454.1 710.777 1454.1 M710.777 1450.39 Q716.587 1450.39 719.642 1455 Q722.721 1459.58 722.721 1468.33 Q722.721 1477.06 719.642 1481.67 Q716.587 1486.25 710.777 1486.25 Q704.966 1486.25 701.888 1481.67 Q698.832 1477.06 698.832 1468.33 Q698.832 1459.58 701.888 1455 Q704.966 1450.39 710.777 1450.39 Z" fill="#000000" fill-rule="nonzero" fill-opacity="1" /><path clip-path="url(#clip650)" d="M730.938 1479.7 L735.823 1479.7 L735.823 1485.58 L730.938 1485.58 L730.938 1479.7 Z" fill="#000000" fill-rule="nonzero" fill-opacity="1" /><path clip-path="url(#clip650)" d="M746.054 1451.02 L764.41 1451.02 L764.41 1454.96 L750.336 1454.96 L750.336 1463.43 Q751.355 1463.08 752.374 1462.92 Q753.392 1462.73 754.411 1462.73 Q760.198 1462.73 763.577 1465.9 Q766.957 1469.08 766.957 1474.49 Q766.957 1480.07 763.485 1483.17 Q760.012 1486.25 753.693 1486.25 Q751.517 1486.25 749.249 1485.88 Q747.003 1485.51 744.596 1484.77 L744.596 1480.07 Q746.679 1481.2 748.901 1481.76 Q751.124 1482.32 753.6 1482.32 Q757.605 1482.32 759.943 1480.21 Q762.281 1478.1 762.281 1474.49 Q762.281 1470.88 759.943 1468.77 Q757.605 1466.67 753.6 1466.67 Q751.725 1466.67 749.85 1467.08 Q747.999 1467.5 746.054 1468.38 L746.054 1451.02 Z" fill="#000000" fill-rule="nonzero" fill-opacity="1" /><path clip-path="url(#clip650)" d="M1240 1481.64 L1247.64 1481.64 L1247.64 1455.28 L1239.33 1456.95 L1239.33 1452.69 L1247.59 1451.02 L1252.27 1451.02 L1252.27 1481.64 L1259.91 1481.64 L1259.91 1485.58 L1240 1485.58 L1240 1481.64 Z" fill="#000000" fill-rule="nonzero" fill-opacity="1" /><path clip-path="url(#clip650)" d="M1269.35 1479.7 L1274.24 1479.7 L1274.24 1485.58 L1269.35 1485.58 L1269.35 1479.7 Z" fill="#000000" fill-rule="nonzero" fill-opacity="1" /><path clip-path="url(#clip650)" d="M1294.42 1454.1 Q1290.81 1454.1 1288.98 1457.66 Q1287.18 1461.2 1287.18 1468.33 Q1287.18 1475.44 1288.98 1479.01 Q1290.81 1482.55 1294.42 1482.55 Q1298.06 1482.55 1299.86 1479.01 Q1301.69 1475.44 1301.69 1468.33 Q1301.69 1461.2 1299.86 1457.66 Q1298.06 1454.1 1294.42 1454.1 M1294.42 1450.39 Q1300.23 1450.39 1303.29 1455 Q1306.37 1459.58 1306.37 1468.33 Q1306.37 1477.06 1303.29 1481.67 Q1300.23 1486.25 1294.42 1486.25 Q1288.61 1486.25 1285.53 1481.67 Q1282.48 1477.06 1282.48 1468.33 Q1282.48 1459.58 1285.53 1455 Q1288.61 1450.39 1294.42 1450.39 Z" fill="#000000" fill-rule="nonzero" fill-opacity="1" /><path clip-path="url(#clip650)" d="M1780.45 1481.64 L1788.09 1481.64 L1788.09 1455.28 L1779.78 1456.95 L1779.78 1452.69 L1788.05 1451.02 L1792.72 1451.02 L1792.72 1481.64 L1800.36 1481.64 L1800.36 1485.58 L1780.45 1485.58 L1780.45 1481.64 Z" fill="#000000" fill-rule="nonzero" fill-opacity="1" /><path clip-path="url(#clip650)" d="M1809.8 1479.7 L1814.69 1479.7 L1814.69 1485.58 L1809.8 1485.58 L1809.8 1479.7 Z" fill="#000000" fill-rule="nonzero" fill-opacity="1" /><path clip-path="url(#clip650)" d="M1824.92 1451.02 L1843.28 1451.02 L1843.28 1454.96 L1829.2 1454.96 L1829.2 1463.43 Q1830.22 1463.08 1831.24 1462.92 Q1832.26 1462.73 1833.28 1462.73 Q1839.06 1462.73 1842.44 1465.9 Q1845.82 1469.08 1845.82 1474.49 Q1845.82 1480.07 1842.35 1483.17 Q1838.88 1486.25 1832.56 1486.25 Q1830.38 1486.25 1828.11 1485.88 Q1825.87 1485.51 1823.46 1484.77 L1823.46 1480.07 Q1825.55 1481.2 1827.77 1481.76 Q1829.99 1482.32 1832.47 1482.32 Q1836.47 1482.32 1838.81 1480.21 Q1841.15 1478.1 1841.15 1474.49 Q1841.15 1470.88 1838.81 1468.77 Q1836.47 1466.67 1832.47 1466.67 Q1830.59 1466.67 1828.72 1467.08 Q1826.86 1467.5 1824.92 1468.38 L1824.92 1451.02 Z" fill="#000000" fill-rule="nonzero" fill-opacity="1" /><path clip-path="url(#clip650)" d="M2323.99 1481.64 L2340.31 1481.64 L2340.31 1485.58 L2318.37 1485.58 L2318.37 1481.64 Q2321.03 1478.89 2325.61 1474.26 Q2330.22 1469.61 2331.4 1468.27 Q2333.65 1465.74 2334.53 1464.01 Q2335.43 1462.25 2335.43 1460.56 Q2335.43 1457.8 2333.49 1456.07 Q2331.56 1454.33 2328.46 1454.33 Q2326.26 1454.33 2323.81 1455.09 Q2321.38 1455.86 2318.6 1457.41 L2318.6 1452.69 Q2321.43 1451.55 2323.88 1450.97 Q2326.33 1450.39 2328.37 1450.39 Q2333.74 1450.39 2336.93 1453.08 Q2340.13 1455.77 2340.13 1460.26 Q2340.13 1462.39 2339.32 1464.31 Q2338.53 1466.2 2336.42 1468.8 Q2335.85 1469.47 2332.74 1472.69 Q2329.64 1475.88 2323.99 1481.64 Z" fill="#000000" fill-rule="nonzero" fill-opacity="1" /><path clip-path="url(#clip650)" d="M2350.13 1479.7 L2355.01 1479.7 L2355.01 1485.58 L2350.13 1485.58 L2350.13 1479.7 Z" fill="#000000" fill-rule="nonzero" fill-opacity="1" /><path clip-path="url(#clip650)" d="M2375.2 1454.1 Q2371.59 1454.1 2369.76 1457.66 Q2367.95 1461.2 2367.95 1468.33 Q2367.95 1475.44 2369.76 1479.01 Q2371.59 1482.55 2375.2 1482.55 Q2378.83 1482.55 2380.64 1479.01 Q2382.47 1475.44 2382.47 1468.33 Q2382.47 1461.2 2380.64 1457.66 Q2378.83 1454.1 2375.2 1454.1 M2375.2 1450.39 Q2381.01 1450.39 2384.06 1455 Q2387.14 1459.58 2387.14 1468.33 Q2387.14 1477.06 2384.06 1481.67 Q2381.01 1486.25 2375.2 1486.25 Q2369.39 1486.25 2366.31 1481.67 Q2363.25 1477.06 2363.25 1468.33 Q2363.25 1459.58 2366.31 1455 Q2369.39 1450.39 2375.2 1450.39 Z" fill="#000000" fill-rule="nonzero" fill-opacity="1" /><path clip-path="url(#clip650)" d="M1271.91 1522.27 L1271.91 1532.4 L1283.97 1532.4 L1283.97 1536.95 L1271.91 1536.95 L1271.91 1556.3 Q1271.91 1560.66 1273.09 1561.9 Q1274.3 1563.14 1277.96 1563.14 L1283.97 1563.14 L1283.97 1568.04 L1277.96 1568.04 Q1271.18 1568.04 1268.6 1565.53 Q1266.02 1562.98 1266.02 1556.3 L1266.02 1536.95 L1261.72 1536.95 L1261.72 1532.4 L1266.02 1532.4 L1266.02 1522.27 L1271.91 1522.27 Z" fill="#000000" fill-rule="nonzero" fill-opacity="1" /><polyline clip-path="url(#clip650)" style="stroke:#000000; stroke-linecap:round; stroke-linejoin:round; stroke-width:4; stroke-opacity:1; fill:none" points="192.941,1423.18 192.941,47.2441 "/>
<polyline clip-path="url(#clip650)" style="stroke:#000000; stroke-linecap:round; stroke-linejoin:round; stroke-width:4; stroke-opacity:1; fill:none" points="192.941,1219.36 211.838,1219.36 "/>
<polyline clip-path="url(#clip650)" style="stroke:#000000; stroke-linecap:round; stroke-linejoin:round; stroke-width:4; stroke-opacity:1; fill:none" points="192.941,934.855 211.838,934.855 "/>
<polyline clip-path="url(#clip650)" style="stroke:#000000; stroke-linecap:round; stroke-linejoin:round; stroke-width:4; stroke-opacity:1; fill:none" points="192.941,650.355 211.838,650.355 "/>
<polyline clip-path="url(#clip650)" style="stroke:#000000; stroke-linecap:round; stroke-linejoin:round; stroke-width:4; stroke-opacity:1; fill:none" points="192.941,365.854 211.838,365.854 "/>
<polyline clip-path="url(#clip650)" style="stroke:#000000; stroke-linecap:round; stroke-linejoin:round; stroke-width:4; stroke-opacity:1; fill:none" points="192.941,81.3541 211.838,81.3541 "/>
<path clip-path="url(#clip650)" d="M50.9921 1219.81 L80.6679 1219.81 L80.6679 1223.74 L50.9921 1223.74 L50.9921 1219.81 Z" fill="#000000" fill-rule="nonzero" fill-opacity="1" /><path clip-path="url(#clip650)" d="M100.76 1205.15 Q97.1493 1205.15 95.3206 1208.72 Q93.515 1212.26 93.515 1219.39 Q93.515 1226.5 95.3206 1230.06 Q97.1493 1233.6 100.76 1233.6 Q104.395 1233.6 106.2 1230.06 Q108.029 1226.5 108.029 1219.39 Q108.029 1212.26 106.2 1208.72 Q104.395 1205.15 100.76 1205.15 M100.76 1201.45 Q106.571 1201.45 109.626 1206.06 Q112.705 1210.64 112.705 1219.39 Q112.705 1228.12 109.626 1232.72 Q106.571 1237.31 100.76 1237.31 Q94.9502 1237.31 91.8715 1232.72 Q88.816 1228.12 88.816 1219.39 Q88.816 1210.64 91.8715 1206.06 Q94.9502 1201.45 100.76 1201.45 Z" fill="#000000" fill-rule="nonzero" fill-opacity="1" /><path clip-path="url(#clip650)" d="M120.922 1230.76 L125.807 1230.76 L125.807 1236.64 L120.922 1236.64 L120.922 1230.76 Z" fill="#000000" fill-rule="nonzero" fill-opacity="1" /><path clip-path="url(#clip650)" d="M136.038 1202.08 L154.394 1202.08 L154.394 1206.01 L140.32 1206.01 L140.32 1214.48 Q141.339 1214.14 142.357 1213.97 Q143.376 1213.79 144.394 1213.79 Q150.181 1213.79 153.561 1216.96 Q156.941 1220.13 156.941 1225.55 Q156.941 1231.13 153.468 1234.23 Q149.996 1237.31 143.677 1237.31 Q141.501 1237.31 139.232 1236.94 Q136.987 1236.57 134.58 1235.83 L134.58 1231.13 Q136.663 1232.26 138.885 1232.82 Q141.107 1233.37 143.584 1233.37 Q147.589 1233.37 149.927 1231.26 Q152.265 1229.16 152.265 1225.55 Q152.265 1221.94 149.927 1219.83 Q147.589 1217.72 143.584 1217.72 Q141.709 1217.72 139.834 1218.14 Q137.982 1218.56 136.038 1219.44 L136.038 1202.08 Z" fill="#000000" fill-rule="nonzero" fill-opacity="1" /><path clip-path="url(#clip650)" d="M99.765 920.654 Q96.1539 920.654 94.3252 924.218 Q92.5197 927.76 92.5197 934.89 Q92.5197 941.996 94.3252 945.561 Q96.1539 949.103 99.765 949.103 Q103.399 949.103 105.205 945.561 Q107.033 941.996 107.033 934.89 Q107.033 927.76 105.205 924.218 Q103.399 920.654 99.765 920.654 M99.765 916.95 Q105.575 916.95 108.631 921.556 Q111.709 926.14 111.709 934.89 Q111.709 943.616 108.631 948.223 Q105.575 952.806 99.765 952.806 Q93.9549 952.806 90.8762 948.223 Q87.8206 943.616 87.8206 934.89 Q87.8206 926.14 90.8762 921.556 Q93.9549 916.95 99.765 916.95 Z" fill="#000000" fill-rule="nonzero" fill-opacity="1" /><path clip-path="url(#clip650)" d="M119.927 946.255 L124.811 946.255 L124.811 952.135 L119.927 952.135 L119.927 946.255 Z" fill="#000000" fill-rule="nonzero" fill-opacity="1" /><path clip-path="url(#clip650)" d="M144.996 920.654 Q141.385 920.654 139.556 924.218 Q137.751 927.76 137.751 934.89 Q137.751 941.996 139.556 945.561 Q141.385 949.103 144.996 949.103 Q148.63 949.103 150.436 945.561 Q152.265 941.996 152.265 934.89 Q152.265 927.76 150.436 924.218 Q148.63 920.654 144.996 920.654 M144.996 916.95 Q150.806 916.95 153.862 921.556 Q156.941 926.14 156.941 934.89 Q156.941 943.616 153.862 948.223 Q150.806 952.806 144.996 952.806 Q139.186 952.806 136.107 948.223 Q133.052 943.616 133.052 934.89 Q133.052 926.14 136.107 921.556 Q139.186 916.95 144.996 916.95 Z" fill="#000000" fill-rule="nonzero" fill-opacity="1" /><path clip-path="url(#clip650)" d="M100.76 636.153 Q97.1493 636.153 95.3206 639.718 Q93.515 643.26 93.515 650.389 Q93.515 657.496 95.3206 661.061 Q97.1493 664.602 100.76 664.602 Q104.395 664.602 106.2 661.061 Q108.029 657.496 108.029 650.389 Q108.029 643.26 106.2 639.718 Q104.395 636.153 100.76 636.153 M100.76 632.45 Q106.571 632.45 109.626 637.056 Q112.705 641.639 112.705 650.389 Q112.705 659.116 109.626 663.723 Q106.571 668.306 100.76 668.306 Q94.9502 668.306 91.8715 663.723 Q88.816 659.116 88.816 650.389 Q88.816 641.639 91.8715 637.056 Q94.9502 632.45 100.76 632.45 Z" fill="#000000" fill-rule="nonzero" fill-opacity="1" /><path clip-path="url(#clip650)" d="M120.922 661.755 L125.807 661.755 L125.807 667.635 L120.922 667.635 L120.922 661.755 Z" fill="#000000" fill-rule="nonzero" fill-opacity="1" /><path clip-path="url(#clip650)" d="M136.038 633.075 L154.394 633.075 L154.394 637.01 L140.32 637.01 L140.32 645.482 Q141.339 645.135 142.357 644.973 Q143.376 644.788 144.394 644.788 Q150.181 644.788 153.561 647.959 Q156.941 651.13 156.941 656.547 Q156.941 662.125 153.468 665.227 Q149.996 668.306 143.677 668.306 Q141.501 668.306 139.232 667.936 Q136.987 667.565 134.58 666.825 L134.58 662.125 Q136.663 663.26 138.885 663.815 Q141.107 664.371 143.584 664.371 Q147.589 664.371 149.927 662.264 Q152.265 660.158 152.265 656.547 Q152.265 652.936 149.927 650.829 Q147.589 648.723 143.584 648.723 Q141.709 648.723 139.834 649.139 Q137.982 649.556 136.038 650.436 L136.038 633.075 Z" fill="#000000" fill-rule="nonzero" fill-opacity="1" /><path clip-path="url(#clip650)" d="M90.5752 379.199 L98.2141 379.199 L98.2141 352.834 L89.904 354.5 L89.904 350.241 L98.1678 348.574 L102.844 348.574 L102.844 379.199 L110.483 379.199 L110.483 383.134 L90.5752 383.134 L90.5752 379.199 Z" fill="#000000" fill-rule="nonzero" fill-opacity="1" /><path clip-path="url(#clip650)" d="M119.927 377.255 L124.811 377.255 L124.811 383.134 L119.927 383.134 L119.927 377.255 Z" fill="#000000" fill-rule="nonzero" fill-opacity="1" /><path clip-path="url(#clip650)" d="M144.996 351.653 Q141.385 351.653 139.556 355.218 Q137.751 358.76 137.751 365.889 Q137.751 372.996 139.556 376.56 Q141.385 380.102 144.996 380.102 Q148.63 380.102 150.436 376.56 Q152.265 372.996 152.265 365.889 Q152.265 358.76 150.436 355.218 Q148.63 351.653 144.996 351.653 M144.996 347.949 Q150.806 347.949 153.862 352.556 Q156.941 357.139 156.941 365.889 Q156.941 374.616 153.862 379.222 Q150.806 383.806 144.996 383.806 Q139.186 383.806 136.107 379.222 Q133.052 374.616 133.052 365.889 Q133.052 357.139 136.107 352.556 Q139.186 347.949 144.996 347.949 Z" fill="#000000" fill-rule="nonzero" fill-opacity="1" /><path clip-path="url(#clip650)" d="M91.5706 94.699 L99.2095 94.699 L99.2095 68.3334 L90.8993 70 L90.8993 65.7408 L99.1632 64.0741 L103.839 64.0741 L103.839 94.699 L111.478 94.699 L111.478 98.6341 L91.5706 98.6341 L91.5706 94.699 Z" fill="#000000" fill-rule="nonzero" fill-opacity="1" /><path clip-path="url(#clip650)" d="M120.922 92.7545 L125.807 92.7545 L125.807 98.6341 L120.922 98.6341 L120.922 92.7545 Z" fill="#000000" fill-rule="nonzero" fill-opacity="1" /><path clip-path="url(#clip650)" d="M136.038 64.0741 L154.394 64.0741 L154.394 68.0093 L140.32 68.0093 L140.32 76.4815 Q141.339 76.1343 142.357 75.9722 Q143.376 75.787 144.394 75.787 Q150.181 75.787 153.561 78.9583 Q156.941 82.1296 156.941 87.5462 Q156.941 93.1249 153.468 96.2267 Q149.996 99.3054 143.677 99.3054 Q141.501 99.3054 139.232 98.9351 Q136.987 98.5647 134.58 97.824 L134.58 93.1249 Q136.663 94.2592 138.885 94.8147 Q141.107 95.3703 143.584 95.3703 Q147.589 95.3703 149.927 93.2638 Q152.265 91.1573 152.265 87.5462 Q152.265 83.9351 149.927 81.8287 Q147.589 79.7222 143.584 79.7222 Q141.709 79.7222 139.834 80.1389 Q137.982 80.5555 136.038 81.4352 L136.038 64.0741 Z" fill="#000000" fill-rule="nonzero" fill-opacity="1" /><polyline clip-path="url(#clip652)" style="stroke:#009af9; stroke-linecap:round; stroke-linejoin:round; stroke-width:4; stroke-opacity:1; fill:none" points="192.941,1384.24 195.103,1381.92 197.265,1379.63 199.427,1377.36 201.589,1375.12 203.751,1372.9 205.912,1370.69 208.074,1368.51 210.236,1366.36 212.398,1364.22 214.56,1362.11 216.722,1360.01 218.884,1357.94 221.046,1355.89 223.208,1353.86 225.37,1351.84 227.532,1349.85 229.694,1347.88 231.856,1345.93 234.018,1344 236.18,1342.08 238.342,1340.19 240.504,1338.31 242.666,1336.46 244.828,1334.62 246.99,1332.8 249.152,1331 251.314,1329.21 253.476,1327.45 255.638,1325.7 257.8,1323.97 259.962,1322.25 262.124,1320.56 264.286,1318.88 266.448,1317.21 268.61,1315.57 270.772,1313.94 272.934,1312.32 275.096,1310.72 277.258,1309.14 279.42,1307.58 281.582,1306.02 283.744,1304.49 285.906,1302.97 288.068,1301.46 290.23,1299.98 292.392,1298.5 294.554,1297.04 296.716,1295.59 298.878,1294.16 301.039,1292.75 303.201,1291.34 305.363,1289.95 307.525,1288.58 309.687,1287.22 311.849,1285.87 314.011,1284.54 316.173,1283.21 318.335,1281.91 320.497,1280.61 322.659,1279.33 324.821,1278.06 326.983,1276.8 329.145,1275.56 331.307,1274.33 333.469,1273.11 335.631,1271.9 337.793,1270.71 339.955,1269.52 342.117,1268.35 344.279,1267.19 346.441,1266.04 348.603,1264.91 350.765,1263.78 352.927,1262.67 355.089,1261.56 357.251,1260.47 359.413,1259.39 361.575,1258.32 363.737,1257.26 365.899,1256.21 368.061,1255.17 370.223,1254.14 372.385,1253.12 374.547,1252.11 376.709,1251.11 378.871,1250.13 381.033,1249.15 383.195,1248.18 385.357,1247.22 387.519,1246.27 389.681,1245.33 391.843,1244.4 394.005,1243.48 396.166,1242.57 398.328,1241.66 400.49,1240.77 402.652,1239.88 404.814,1239.01 406.976,1238.14 409.138,1237.28 411.3,1236.43 413.462,1235.59 415.624,1234.75 417.786,1233.93 419.948,1233.11 422.11,1232.3 424.272,1231.5 426.434,1230.71 428.596,1229.92 430.758,1229.15 432.92,1228.38 435.082,1227.62 437.244,1226.86 439.406,1226.12 441.568,1225.38 443.73,1224.64 445.892,1223.92 448.054,1223.2 450.216,1222.49 452.378,1221.79 454.54,1221.09 456.702,1220.4 458.864,1219.72 461.026,1219.05 463.188,1218.38 465.35,1217.71 467.512,1217.06 469.674,1216.41 471.836,1215.77 473.998,1215.13 476.16,1214.5 478.322,1213.88 480.484,1213.26 482.646,1212.65 484.808,1212.04 486.97,1211.44 489.132,1210.85 491.293,1210.26 493.455,1209.68 495.617,1209.11 497.779,1208.54 499.941,1207.97 502.103,1207.41 504.265,1206.86 506.427,1206.31 508.589,1205.77 510.751,1205.23 512.913,1204.7 515.075,1204.18 517.237,1203.66 519.399,1203.14 521.561,1202.63 523.723,1202.12 525.885,1201.62 528.047,1201.13 530.209,1200.64 532.371,1200.15 534.533,1199.67 536.695,1199.2 538.857,1198.73 541.019,1198.26 543.181,1197.8 545.343,1197.34 547.505,1196.89 549.667,1196.44 551.829,1196 553.991,1195.56 556.153,1195.12 558.315,1194.69 560.477,1194.27 562.639,1193.84 564.801,1193.43 566.963,1193.01 569.125,1192.6 571.287,1192.2 573.449,1191.8 575.611,1191.4 577.773,1191 579.935,1190.62 582.097,1190.23 584.259,1189.85 586.42,1189.47 588.582,1189.09 590.744,1188.72 592.906,1188.36 595.068,1187.99 597.23,1187.63 599.392,1187.28 601.554,1186.93 603.716,1186.58 605.878,1186.23 608.04,1185.89 610.202,1185.55 612.364,1185.21 614.526,1184.88 616.688,1184.55 618.85,1184.23 621.012,1183.91 623.174,1183.59 625.336,1183.27 627.498,1182.96 629.66,1182.65 631.822,1182.34 633.984,1182.04 636.146,1181.74 638.308,1181.44 640.47,1181.15 642.632,1180.86 644.794,1180.57 646.956,1180.28 649.118,1180 651.28,1179.72 653.442,1179.44 655.604,1179.17 657.766,1178.9 659.928,1178.63 662.09,1178.36 664.252,1178.1 666.414,1177.84 668.576,1177.58 670.738,1177.32 672.9,1177.07 675.062,1176.82 677.224,1176.57 679.386,1176.32 681.547,1176.08 683.709,1175.84 685.871,1175.6 688.033,1175.37 690.195,1175.13 692.357,1174.9 694.519,1174.67 696.681,1174.45 698.843,1174.22 701.005,1174 703.167,1173.78 705.329,1173.56 707.491,1173.34 709.653,1173.13 711.815,1172.92 713.977,1172.71 716.139,1172.5 718.301,1172.3 720.463,1172.09 722.625,1171.89 724.787,1171.69 726.949,1171.5 729.111,1171.3 731.273,1171.11 733.435,1170.92 735.597,1170.73 737.759,1170.54 739.921,1170.35 742.083,1170.17 744.245,1169.99 746.407,1169.81 748.569,1169.63 750.731,1169.45 752.893,1169.28 755.055,1169.1 757.217,1168.93 759.379,1168.76 761.541,1168.59 763.703,1168.43 765.865,1168.26 768.027,1168.1 770.189,1167.94 772.351,1167.78 774.513,1167.62 776.674,1167.46 778.836,1167.31 780.998,1167.15 783.16,1167 785.322,1166.85 787.484,1166.7 789.646,1166.56 791.808,1166.41 793.97,1166.26 796.132,1166.12 798.294,1165.98 800.456,1165.84 802.618,1165.7 804.78,1165.56 806.942,1165.43 809.104,1165.29 811.266,1165.16 813.428,1165.03 815.59,1164.9 817.752,1164.77 819.914,1164.64 822.076,1164.51 824.238,1164.39 826.4,1164.26 828.562,1164.14 830.724,1164.02 832.886,1163.9 835.048,1163.78 837.21,1163.66 839.372,1163.54 841.534,1163.42 843.696,1163.31 845.858,1163.2 848.02,1163.08 850.182,1162.97 852.344,1162.86 854.506,1162.75 856.668,1162.64 858.83,1162.54 860.992,1162.43 863.154,1162.33 865.316,1162.22 867.478,1162.12 869.64,1162.02 871.801,1161.92 873.963,1161.82 876.125,1161.72 878.287,1161.62 880.449,1161.52 882.611,1161.43 884.773,1161.33 886.935,1161.24 889.097,1161.15 891.259,1161.05 893.421,1160.96 895.583,1160.87 897.745,1160.78 899.907,1160.69 902.069,1160.61 904.231,1160.52 906.393,1160.43 908.555,1160.35 910.717,1160.26 912.879,1160.18 915.041,1160.1 917.203,1160.02 919.365,1159.93 921.527,1159.85 923.689,1159.78 925.851,1159.7 928.013,1159.62 930.175,1159.54 932.337,1159.47 934.499,1159.39 936.661,1159.32 938.823,1159.24 940.985,1159.17 943.147,1159.1 945.309,1159.02 947.471,1158.95 949.633,1158.88 951.795,1158.81 953.957,1158.74 956.119,1158.68 958.281,1158.61 960.443,1158.54 962.605,1158.47 964.767,1158.41 966.928,1158.34 969.09,1158.28 971.252,1158.22 973.414,1158.15 975.576,1158.09 977.738,1158.03 979.9,1157.97 982.062,1157.91 984.224,1157.85 986.386,1157.79 988.548,1157.73 990.71,1157.67 992.872,1157.61 995.034,1157.56 997.196,1157.5 999.358,1157.44 1001.52,1157.39 1003.68,1157.34 1005.84,1157.28 1008.01,1157.23 1010.17,1157.17 1012.33,1157.12 1014.49,1157.07 1016.65,1157.02 1018.82,1156.97 1020.98,1156.92 1023.14,1156.87 1025.3,1156.82 1027.46,1156.77 1029.63,1156.72 1031.79,1156.67 1033.95,1156.62 1036.11,1156.58 1038.27,1156.53 1040.44,1156.48 1042.6,1156.44 1044.76,1156.39 1046.92,1156.35 1049.08,1156.3 1051.25,1156.26 1053.41,1156.22 1055.57,1156.17 1057.73,1156.13 1059.89,1156.09 1062.06,1156.05 1064.22,1156.01 1066.38,1155.96 1068.54,1155.92 1070.7,1155.88 1072.87,1155.84 1075.03,1155.8 1077.19,1155.77 1079.35,1155.73 1081.51,1155.69 1083.68,1155.65 1085.84,1155.61 1088,1155.58 1090.16,1155.54 1092.32,1155.5 1094.49,1155.47 1096.65,1155.43 1098.81,1155.4 1100.97,1155.36 1103.13,1155.33 1105.3,1155.29 1107.46,1155.26 1109.62,1155.22 1111.78,1155.19 1113.94,1155.16 1116.1,1155.12 1118.27,1155.09 1120.43,1155.06 1122.59,1155.03 1124.75,1155 1126.91,1154.97 1129.08,1154.94 1131.24,1154.91 1133.4,1154.88 1135.56,1154.85 1137.72,1154.82 1139.89,1154.79 1142.05,1154.76 1144.21,1154.73 1146.37,1154.7 1148.53,1154.67 1150.7,1154.65 1152.86,1154.62 1155.02,1154.59 1157.18,1154.56 1159.34,1154.54 1161.51,1154.51 1163.67,1154.49 1165.83,1154.46 1167.99,1154.43 1170.15,1154.41 1172.32,1154.38 1174.48,1154.36 1176.64,1154.33 1178.8,1154.31 1180.96,1154.29 1183.13,1154.26 1185.29,1154.24 1187.45,1154.21 1189.61,1154.19 1191.77,1154.17 1193.94,1154.15 1196.1,1154.12 1198.26,1154.1 1200.42,1154.08 1202.58,1154.06 1204.75,1154.04 1206.91,1154.02 1209.07,1153.99 1211.23,1153.97 1213.39,1153.95 1215.56,1153.93 1217.72,1153.91 1219.88,1153.89 1222.04,1153.87 1224.2,1153.85 1226.37,1153.83 1228.53,1153.81 1230.69,1153.79 1232.85,1153.78 1235.01,1153.76 1237.18,1153.74 1239.34,1153.72 1241.5,1153.7 1243.66,1153.68 1245.82,1153.67 1247.99,1153.65 1250.15,1153.63 1252.31,1153.61 1254.47,1153.6 1256.63,1153.58 1258.8,1153.56 1260.96,1153.55 1263.12,1153.53 1265.28,1153.51 1267.44,1153.5 1269.61,1153.48 1271.77,1153.47 1273.93,1153.45 1276.09,1153.43 1278.25,1153.42 1280.42,1153.4 1282.58,1153.39 1284.74,1153.37 1286.9,1153.36 1289.06,1153.34 1291.23,1153.33 1293.39,1153.32 1295.55,1153.3 1297.71,1153.29 1299.87,1153.27 1302.03,1153.26 1304.2,1153.25 1306.36,1153.23 1308.52,1153.22 1310.68,1153.21 1312.84,1153.19 1315.01,1153.18 1317.17,1153.17 1319.33,1153.15 1321.49,1153.14 1323.65,1153.13 1325.82,1153.12 1327.98,1153.1 1330.14,1153.09 1332.3,1153.08 1334.46,1153.07 1336.63,1153.06 1338.79,1153.04 1340.95,1153.03 1343.11,1153.02 1345.27,1153.01 1347.44,1153 1349.6,1152.99 1351.76,1152.98 1353.92,1152.97 1356.08,1152.96 1358.25,1152.94 1360.41,1152.93 1362.57,1152.92 1364.73,1152.91 1366.89,1152.9 1369.06,1152.89 1371.22,1152.88 1373.38,1152.87 1375.54,1152.86 1377.7,1152.85 1379.87,1152.84 1382.03,1152.83 1384.19,1152.83 1386.35,1152.82 1388.51,1152.81 1390.68,1152.8 1392.84,1152.79 1395,1152.78 1397.16,1152.77 1399.32,1152.76 1401.49,1152.75 1403.65,1152.74 1405.81,1152.74 1407.97,1152.73 1410.13,1152.72 1412.3,1152.71 1414.46,1152.7 1416.62,1152.7 1418.78,1152.69 1420.94,1152.68 1423.11,1152.67 1425.27,1152.66 1427.43,1152.66 1429.59,1152.65 1431.75,1152.64 1433.92,1152.63 1436.08,1152.63 1438.24,1152.62 1440.4,1152.61 1442.56,1152.6 1444.73,1152.6 1446.89,1152.59 1449.05,1152.58 1451.21,1152.58 1453.37,1152.57 1455.54,1152.56 1457.7,1152.56 1459.86,1152.55 1462.02,1152.54 1464.18,1152.54 1466.35,1152.53 1468.51,1152.52 1470.67,1152.52 1472.83,1152.51 1474.99,1152.51 1477.16,1152.5 1479.32,1152.49 1481.48,1152.49 1483.64,1152.48 1485.8,1152.48 1487.97,1152.47 1490.13,1152.46 1492.29,1152.46 1494.45,1152.45 1496.61,1152.45 1498.77,1152.44 1500.94,1152.44 1503.1,1152.43 1505.26,1152.43 1507.42,1152.42 1509.58,1152.42 1511.75,1152.41 1513.91,1152.41 1516.07,1152.4 1518.23,1152.4 1520.39,1152.39 1522.56,1152.39 1524.72,1152.38 1526.88,1152.38 1529.04,1152.37 1531.2,1152.37 1533.37,1152.36 1535.53,1152.36 1537.69,1152.35 1539.85,1152.35 1542.01,1152.34 1544.18,1152.34 1546.34,1152.33 1548.5,1152.33 1550.66,1152.32 1552.82,1152.32 1554.99,1152.32 1557.15,1152.31 1559.31,1152.31 1561.47,1152.3 1563.63,1152.3 1565.8,1152.29 1567.96,1152.29 1570.12,1152.29 1572.28,1152.28 1574.44,1152.28 1576.61,1152.27 1578.77,1152.27 1580.93,1152.27 1583.09,1152.26 1585.25,1152.26 1587.42,1152.26 1589.58,1152.25 1591.74,1152.25 1593.9,1152.25 1596.06,1152.24 1598.23,1152.24 1600.39,1152.23 1602.55,1152.23 1604.71,1152.23 1606.87,1152.22 1609.04,1152.22 1611.2,1152.22 1613.36,1152.21 1615.52,1152.21 1617.68,1152.21 1619.85,1152.2 1622.01,1152.2 1624.17,1152.2 1626.33,1152.2 1628.49,1152.19 1630.66,1152.19 1632.82,1152.19 1634.98,1152.18 1637.14,1152.18 1639.3,1152.18 1641.47,1152.17 1643.63,1152.17 1645.79,1152.17 1647.95,1152.17 1650.11,1152.16 1652.28,1152.16 1654.44,1152.16 1656.6,1152.16 1658.76,1152.15 1660.92,1152.15 1663.09,1152.15 1665.25,1152.14 1667.41,1152.14 1669.57,1152.14 1671.73,1152.14 1673.9,1152.13 1676.06,1152.13 1678.22,1152.13 1680.38,1152.13 1682.54,1152.13 1684.7,1152.12 1686.87,1152.12 1689.03,1152.12 1691.19,1152.12 1693.35,1152.11 1695.51,1152.11 1697.68,1152.11 1699.84,1152.11 1702,1152.11 1704.16,1152.1 1706.32,1152.1 1708.49,1152.1 1710.65,1152.1 1712.81,1152.1 1714.97,1152.09 1717.13,1152.09 1719.3,1152.09 1721.46,1152.09 1723.62,1152.09 1725.78,1152.08 1727.94,1152.08 1730.11,1152.08 1732.27,1152.08 1734.43,1152.08 1736.59,1152.07 1738.75,1152.07 1740.92,1152.07 1743.08,1152.07 1745.24,1152.07 1747.4,1152.07 1749.56,1152.06 1751.73,1152.06 1753.89,1152.06 1756.05,1152.06 1758.21,1152.06 1760.37,1152.06 1762.54,1152.05 1764.7,1152.05 1766.86,1152.05 1769.02,1152.05 1771.18,1152.05 1773.35,1152.05 1775.51,1152.04 1777.67,1152.04 1779.83,1152.04 1781.99,1152.04 1784.16,1152.04 1786.32,1152.04 1788.48,1152.04 1790.64,1152.03 1792.8,1152.03 1794.97,1152.03 1797.13,1152.03 1799.29,1152.03 1801.45,1152.03 1803.61,1152.03 1805.78,1152.03 1807.94,1152.02 1810.1,1152.02 1812.26,1152.02 1814.42,1152.02 1816.59,1152.02 1818.75,1152.02 1820.91,1152.02 1823.07,1152.01 1825.23,1152.01 1827.4,1152.01 1829.56,1152.01 1831.72,1152.01 1833.88,1152.01 1836.04,1152.01 1838.21,1152.01 1840.37,1152.01 1842.53,1152 1844.69,1152 1846.85,1152 1849.02,1152 1851.18,1152 1853.34,1152 1855.5,1152 1857.66,1152 1859.83,1152 1861.99,1151.99 1864.15,1151.99 1866.31,1151.99 1868.47,1151.99 1870.63,1151.99 1872.8,1151.99 1874.96,1151.99 1877.12,1151.99 1879.28,1151.99 1881.44,1151.98 1883.61,1151.98 1885.77,1151.98 1887.93,1151.98 1890.09,1151.98 1892.25,1151.98 1894.42,1151.98 1896.58,1151.98 1898.74,1151.98 1900.9,1151.98 1903.06,1151.98 1905.23,1151.97 1907.39,1151.97 1909.55,1151.97 1911.71,1151.97 1913.87,1151.97 1916.04,1151.97 1918.2,1151.97 1920.36,1151.97 1922.52,1151.97 1924.68,1151.97 1926.85,1151.97 1929.01,1151.97 1931.17,1151.97 1933.33,1151.96 1935.49,1151.96 1937.66,1151.96 1939.82,1151.96 1941.98,1151.96 1944.14,1151.96 1946.3,1151.96 1948.47,1151.96 1950.63,1151.96 1952.79,1151.96 1954.95,1151.96 1957.11,1151.96 1959.28,1151.96 1961.44,1151.96 1963.6,1151.95 1965.76,1151.95 1967.92,1151.95 1970.09,1151.95 1972.25,1151.95 1974.41,1151.95 1976.57,1151.95 1978.73,1151.95 1980.9,1151.95 1983.06,1151.95 1985.22,1151.95 1987.38,1151.95 1989.54,1151.95 1991.71,1151.95 1993.87,1151.95 1996.03,1151.95 1998.19,1151.95 2000.35,1151.94 2002.52,1151.94 2004.68,1151.94 2006.84,1151.94 2009,1151.94 2011.16,1151.94 2013.33,1151.94 2015.49,1151.94 2017.65,1151.94 2019.81,1151.94 2021.97,1151.94 2024.14,1151.94 2026.3,1151.94 2028.46,1151.94 2030.62,1151.94 2032.78,1151.94 2034.95,1151.94 2037.11,1151.94 2039.27,1151.94 2041.43,1151.94 2043.59,1151.94 2045.76,1151.94 2047.92,1151.93 2050.08,1151.93 2052.24,1151.93 2054.4,1151.93 2056.57,1151.93 2058.73,1151.93 2060.89,1151.93 2063.05,1151.93 2065.21,1151.93 2067.37,1151.93 2069.54,1151.93 2071.7,1151.93 2073.86,1151.93 2076.02,1151.93 2078.18,1151.93 2080.35,1151.93 2082.51,1151.93 2084.67,1151.93 2086.83,1151.93 2088.99,1151.93 2091.16,1151.93 2093.32,1151.93 2095.48,1151.93 2097.64,1151.93 2099.8,1151.93 2101.97,1151.93 2104.13,1151.93 2106.29,1151.92 2108.45,1151.92 2110.61,1151.92 2112.78,1151.92 2114.94,1151.92 2117.1,1151.92 2119.26,1151.92 2121.42,1151.92 2123.59,1151.92 2125.75,1151.92 2127.91,1151.92 2130.07,1151.92 2132.23,1151.92 2134.4,1151.92 2136.56,1151.92 2138.72,1151.92 2140.88,1151.92 2143.04,1151.92 2145.21,1151.92 2147.37,1151.92 2149.53,1151.92 2151.69,1151.92 2153.85,1151.92 2156.02,1151.92 2158.18,1151.92 2160.34,1151.92 2162.5,1151.92 2164.66,1151.92 2166.83,1151.92 2168.99,1151.92 2171.15,1151.92 2173.31,1151.92 2175.47,1151.92 2177.64,1151.92 2179.8,1151.92 2181.96,1151.92 2184.12,1151.91 2186.28,1151.91 2188.45,1151.91 2190.61,1151.91 2192.77,1151.91 2194.93,1151.91 2197.09,1151.91 2199.26,1151.91 2201.42,1151.91 2203.58,1151.91 2205.74,1151.91 2207.9,1151.91 2210.07,1151.91 2212.23,1151.91 2214.39,1151.91 2216.55,1151.91 2218.71,1151.91 2220.88,1151.91 2223.04,1151.91 2225.2,1151.91 2227.36,1151.91 2229.52,1151.91 2231.69,1151.91 2233.85,1151.91 2236.01,1151.91 2238.17,1151.91 2240.33,1151.91 2242.5,1151.91 2244.66,1151.91 2246.82,1151.91 2248.98,1151.91 2251.14,1151.91 2253.3,1151.91 2255.47,1151.91 2257.63,1151.91 2259.79,1151.91 2261.95,1151.91 2264.11,1151.91 2266.28,1151.91 2268.44,1151.91 2270.6,1151.91 2272.76,1151.91 2274.92,1151.91 2277.09,1151.91 2279.25,1151.91 2281.41,1151.91 2283.57,1151.91 2285.73,1151.91 2287.9,1151.91 2290.06,1151.91 2292.22,1151.91 2294.38,1151.91 2296.54,1151.91 2298.71,1151.91 2300.87,1151.91 2303.03,1151.9 2305.19,1151.9 2307.35,1151.9 2309.52,1151.9 2311.68,1151.9 2313.84,1151.9 2316,1151.9 2318.16,1151.9 2320.33,1151.9 2322.49,1151.9 2324.65,1151.9 2326.81,1151.9 2328.97,1151.9 2331.14,1151.9 2333.3,1151.9 2335.46,1151.9 2337.62,1151.9 2339.78,1151.9 2341.95,1151.9 2344.11,1151.9 2346.27,1151.9 2348.43,1151.9 2350.59,1151.9 2352.76,1151.9 "/>
<polyline clip-path="url(#clip652)" style="stroke:#e26f46; stroke-linecap:round; stroke-linejoin:round; stroke-width:4; stroke-opacity:1; fill:none" points="192.941,86.1857 195.103,93.0901 197.265,99.9479 199.427,106.76 201.589,113.525 203.751,120.246 205.912,126.92 208.074,133.55 210.236,140.136 212.398,146.677 214.56,153.174 216.722,159.628 218.884,166.038 221.046,172.405 223.208,178.729 225.37,185.011 227.532,191.251 229.694,197.448 231.856,203.605 234.018,209.72 236.18,215.794 238.342,221.827 240.504,227.82 242.666,233.773 244.828,239.686 246.99,245.56 249.152,251.394 251.314,257.19 253.476,262.946 255.638,268.664 257.8,274.344 259.962,279.986 262.124,285.591 264.286,291.158 266.448,296.688 268.61,302.181 270.772,307.637 272.934,313.057 275.096,318.441 277.258,323.79 279.42,329.102 281.582,334.38 283.744,339.622 285.906,344.829 288.068,350.002 290.23,355.14 292.392,360.245 294.554,365.315 296.716,370.352 298.878,375.355 301.039,380.325 303.201,385.262 305.363,390.167 307.525,395.039 309.687,399.878 311.849,404.686 314.011,409.462 316.173,414.206 318.335,418.919 320.497,423.6 322.659,428.251 324.821,432.871 326.983,437.46 329.145,442.019 331.307,446.549 333.469,451.048 335.631,455.517 337.793,459.957 339.955,464.368 342.117,468.749 344.279,473.102 346.441,477.426 348.603,481.722 350.765,485.989 352.927,490.229 355.089,494.44 357.251,498.624 359.413,502.78 361.575,506.909 363.737,511.011 365.899,515.085 368.061,519.134 370.223,523.155 372.385,527.15 374.547,531.119 376.709,535.062 378.871,538.979 381.033,542.87 383.195,546.736 385.357,550.576 387.519,554.391 389.681,558.182 391.843,561.947 394.005,565.688 396.166,569.404 398.328,573.096 400.49,576.764 402.652,580.408 404.814,584.028 406.976,587.624 409.138,591.197 411.3,594.747 413.462,598.273 415.624,601.777 417.786,605.257 419.948,608.715 422.11,612.15 424.272,615.563 426.434,618.954 428.596,622.322 430.758,625.669 432.92,628.994 435.082,632.297 437.244,635.579 439.406,638.839 441.568,642.079 443.73,645.297 445.892,648.494 448.054,651.67 450.216,654.826 452.378,657.962 454.54,661.077 456.702,664.171 458.864,667.246 461.026,670.301 463.188,673.336 465.35,676.351 467.512,679.347 469.674,682.323 471.836,685.28 473.998,688.218 476.16,691.137 478.322,694.037 480.484,696.918 482.646,699.781 484.808,702.625 486.97,705.451 489.132,708.258 491.293,711.047 493.455,713.819 495.617,716.572 497.779,719.308 499.941,722.025 502.103,724.726 504.265,727.408 506.427,730.074 508.589,732.722 510.751,735.354 512.913,737.968 515.075,740.565 517.237,743.146 519.399,745.71 521.561,748.257 523.723,750.789 525.885,753.303 528.047,755.802 530.209,758.285 532.371,760.751 534.533,763.202 536.695,765.637 538.857,768.056 541.019,770.46 543.181,772.848 545.343,775.221 547.505,777.579 549.667,779.921 551.829,782.249 553.991,784.561 556.153,786.859 558.315,789.142 560.477,791.411 562.639,793.665 564.801,795.904 566.963,798.129 569.125,800.34 571.287,802.537 573.449,804.719 575.611,806.888 577.773,809.043 579.935,811.184 582.097,813.311 584.259,815.425 586.42,817.525 588.582,819.612 590.744,821.686 592.906,823.746 595.068,825.793 597.23,827.827 599.392,829.848 601.554,831.856 603.716,833.852 605.878,835.834 608.04,837.804 610.202,839.762 612.364,841.706 614.526,843.639 616.688,845.559 618.85,847.467 621.012,849.363 623.174,851.247 625.336,853.118 627.498,854.978 629.66,856.826 631.822,858.662 633.984,860.486 636.146,862.299 638.308,864.1 640.47,865.89 642.632,867.669 644.794,869.436 646.956,871.192 649.118,872.936 651.28,874.67 653.442,876.393 655.604,878.104 657.766,879.805 659.928,881.495 662.09,883.174 664.252,884.843 666.414,886.501 668.576,888.148 670.738,889.785 672.9,891.412 675.062,893.028 677.224,894.634 679.386,896.23 681.547,897.816 683.709,899.392 685.871,900.958 688.033,902.513 690.195,904.059 692.357,905.596 694.519,907.122 696.681,908.639 698.843,910.146 701.005,911.644 703.167,913.132 705.329,914.611 707.491,916.081 709.653,917.541 711.815,918.992 713.977,920.434 716.139,921.867 718.301,923.291 720.463,924.705 722.625,926.111 724.787,927.508 726.949,928.897 729.111,930.276 731.273,931.647 733.435,933.009 735.597,934.363 737.759,935.708 739.921,937.044 742.083,938.372 744.245,939.692 746.407,941.004 748.569,942.307 750.731,943.602 752.893,944.889 755.055,946.167 757.217,947.438 759.379,948.701 761.541,949.956 763.703,951.203 765.865,952.442 768.027,953.673 770.189,954.896 772.351,956.112 774.513,957.32 776.674,958.521 778.836,959.714 780.998,960.899 783.16,962.077 785.322,963.248 787.484,964.411 789.646,965.567 791.808,966.716 793.97,967.858 796.132,968.992 798.294,970.119 800.456,971.239 802.618,972.352 804.78,973.459 806.942,974.558 809.104,975.65 811.266,976.735 813.428,977.814 815.59,978.886 817.752,979.951 819.914,981.01 822.076,982.061 824.238,983.107 826.4,984.145 828.562,985.178 830.724,986.203 832.886,987.223 835.048,988.236 837.21,989.242 839.372,990.243 841.534,991.237 843.696,992.225 845.858,993.206 848.02,994.182 850.182,995.151 852.344,996.115 854.506,997.072 856.668,998.024 858.83,998.969 860.992,999.909 863.154,1000.84 865.316,1001.77 867.478,1002.69 869.64,1003.61 871.801,1004.52 873.963,1005.42 876.125,1006.32 878.287,1007.22 880.449,1008.11 882.611,1008.99 884.773,1009.87 886.935,1010.74 889.097,1011.6 891.259,1012.46 893.421,1013.32 895.583,1014.17 897.745,1015.02 899.907,1015.86 902.069,1016.69 904.231,1017.52 906.393,1018.34 908.555,1019.16 910.717,1019.98 912.879,1020.78 915.041,1021.59 917.203,1022.39 919.365,1023.18 921.527,1023.97 923.689,1024.75 925.851,1025.53 928.013,1026.31 930.175,1027.08 932.337,1027.84 934.499,1028.6 936.661,1029.36 938.823,1030.11 940.985,1030.85 943.147,1031.59 945.309,1032.33 947.471,1033.06 949.633,1033.79 951.795,1034.51 953.957,1035.23 956.119,1035.95 958.281,1036.66 960.443,1037.36 962.605,1038.06 964.767,1038.76 966.928,1039.45 969.09,1040.14 971.252,1040.82 973.414,1041.5 975.576,1042.18 977.738,1042.85 979.9,1043.51 982.062,1044.18 984.224,1044.83 986.386,1045.49 988.548,1046.14 990.71,1046.79 992.872,1047.43 995.034,1048.07 997.196,1048.7 999.358,1049.33 1001.52,1049.96 1003.68,1050.58 1005.84,1051.2 1008.01,1051.81 1010.17,1052.43 1012.33,1053.03 1014.49,1053.64 1016.65,1054.24 1018.82,1054.83 1020.98,1055.42 1023.14,1056.01 1025.3,1056.6 1027.46,1057.18 1029.63,1057.76 1031.79,1058.33 1033.95,1058.9 1036.11,1059.47 1038.27,1060.04 1040.44,1060.6 1042.6,1061.15 1044.76,1061.71 1046.92,1062.26 1049.08,1062.8 1051.25,1063.35 1053.41,1063.89 1055.57,1064.42 1057.73,1064.96 1059.89,1065.49 1062.06,1066.01 1064.22,1066.54 1066.38,1067.06 1068.54,1067.58 1070.7,1068.09 1072.87,1068.6 1075.03,1069.11 1077.19,1069.61 1079.35,1070.11 1081.51,1070.61 1083.68,1071.11 1085.84,1071.6 1088,1072.09 1090.16,1072.58 1092.32,1073.06 1094.49,1073.54 1096.65,1074.02 1098.81,1074.49 1100.97,1074.96 1103.13,1075.43 1105.3,1075.9 1107.46,1076.36 1109.62,1076.82 1111.78,1077.28 1113.94,1077.73 1116.1,1078.18 1118.27,1078.63 1120.43,1079.08 1122.59,1079.52 1124.75,1079.96 1126.91,1080.4 1129.08,1080.83 1131.24,1081.27 1133.4,1081.7 1135.56,1082.12 1137.72,1082.55 1139.89,1082.97 1142.05,1083.39 1144.21,1083.81 1146.37,1084.22 1148.53,1084.63 1150.7,1085.04 1152.86,1085.45 1155.02,1085.85 1157.18,1086.25 1159.34,1086.65 1161.51,1087.05 1163.67,1087.44 1165.83,1087.83 1167.99,1088.22 1170.15,1088.61 1172.32,1088.99 1174.48,1089.38 1176.64,1089.76 1178.8,1090.13 1180.96,1090.51 1183.13,1090.88 1185.29,1091.25 1187.45,1091.62 1189.61,1091.99 1191.77,1092.35 1193.94,1092.71 1196.1,1093.07 1198.26,1093.43 1200.42,1093.78 1202.58,1094.14 1204.75,1094.49 1206.91,1094.84 1209.07,1095.18 1211.23,1095.53 1213.39,1095.87 1215.56,1096.21 1217.72,1096.55 1219.88,1096.88 1222.04,1097.22 1224.2,1097.55 1226.37,1097.88 1228.53,1098.21 1230.69,1098.53 1232.85,1098.85 1235.01,1099.18 1237.18,1099.5 1239.34,1099.81 1241.5,1100.13 1243.66,1100.44 1245.82,1100.76 1247.99,1101.07 1250.15,1101.37 1252.31,1101.68 1254.47,1101.98 1256.63,1102.29 1258.8,1102.59 1260.96,1102.89 1263.12,1103.18 1265.28,1103.48 1267.44,1103.77 1269.61,1104.06 1271.77,1104.35 1273.93,1104.64 1276.09,1104.93 1278.25,1105.21 1280.42,1105.5 1282.58,1105.78 1284.74,1106.06 1286.9,1106.34 1289.06,1106.61 1291.23,1106.89 1293.39,1107.16 1295.55,1107.43 1297.71,1107.7 1299.87,1107.97 1302.03,1108.23 1304.2,1108.5 1306.36,1108.76 1308.52,1109.02 1310.68,1109.28 1312.84,1109.54 1315.01,1109.8 1317.17,1110.05 1319.33,1110.31 1321.49,1110.56 1323.65,1110.81 1325.82,1111.06 1327.98,1111.3 1330.14,1111.55 1332.3,1111.8 1334.46,1112.04 1336.63,1112.28 1338.79,1112.52 1340.95,1112.76 1343.11,1112.99 1345.27,1113.23 1347.44,1113.46 1349.6,1113.7 1351.76,1113.93 1353.92,1114.16 1356.08,1114.39 1358.25,1114.61 1360.41,1114.84 1362.57,1115.06 1364.73,1115.29 1366.89,1115.51 1369.06,1115.73 1371.22,1115.95 1373.38,1116.16 1375.54,1116.38 1377.7,1116.6 1379.87,1116.81 1382.03,1117.02 1384.19,1117.23 1386.35,1117.44 1388.51,1117.65 1390.68,1117.86 1392.84,1118.06 1395,1118.27 1397.16,1118.47 1399.32,1118.67 1401.49,1118.87 1403.65,1119.07 1405.81,1119.27 1407.97,1119.47 1410.13,1119.67 1412.3,1119.86 1414.46,1120.05 1416.62,1120.25 1418.78,1120.44 1420.94,1120.63 1423.11,1120.82 1425.27,1121 1427.43,1121.19 1429.59,1121.38 1431.75,1121.56 1433.92,1121.74 1436.08,1121.93 1438.24,1122.11 1440.4,1122.29 1442.56,1122.47 1444.73,1122.64 1446.89,1122.82 1449.05,1123 1451.21,1123.17 1453.37,1123.34 1455.54,1123.52 1457.7,1123.69 1459.86,1123.86 1462.02,1124.03 1464.18,1124.19 1466.35,1124.36 1468.51,1124.53 1470.67,1124.69 1472.83,1124.86 1474.99,1125.02 1477.16,1125.18 1479.32,1125.34 1481.48,1125.5 1483.64,1125.66 1485.8,1125.82 1487.97,1125.98 1490.13,1126.14 1492.29,1126.29 1494.45,1126.45 1496.61,1126.6 1498.77,1126.75 1500.94,1126.9 1503.1,1127.05 1505.26,1127.2 1507.42,1127.35 1509.58,1127.5 1511.75,1127.65 1513.91,1127.79 1516.07,1127.94 1518.23,1128.08 1520.39,1128.23 1522.56,1128.37 1524.72,1128.51 1526.88,1128.65 1529.04,1128.79 1531.2,1128.93 1533.37,1129.07 1535.53,1129.21 1537.69,1129.35 1539.85,1129.48 1542.01,1129.62 1544.18,1129.75 1546.34,1129.89 1548.5,1130.02 1550.66,1130.15 1552.82,1130.28 1554.99,1130.41 1557.15,1130.54 1559.31,1130.67 1561.47,1130.8 1563.63,1130.93 1565.8,1131.05 1567.96,1131.18 1570.12,1131.31 1572.28,1131.43 1574.44,1131.55 1576.61,1131.68 1578.77,1131.8 1580.93,1131.92 1583.09,1132.04 1585.25,1132.16 1587.42,1132.28 1589.58,1132.4 1591.74,1132.51 1593.9,1132.63 1596.06,1132.75 1598.23,1132.86 1600.39,1132.98 1602.55,1133.09 1604.71,1133.21 1606.87,1133.32 1609.04,1133.43 1611.2,1133.54 1613.36,1133.65 1615.52,1133.76 1617.68,1133.87 1619.85,1133.98 1622.01,1134.09 1624.17,1134.2 1626.33,1134.3 1628.49,1134.41 1630.66,1134.51 1632.82,1134.62 1634.98,1134.72 1637.14,1134.83 1639.3,1134.93 1641.47,1135.03 1643.63,1135.13 1645.79,1135.23 1647.95,1135.33 1650.11,1135.43 1652.28,1135.53 1654.44,1135.63 1656.6,1135.73 1658.76,1135.83 1660.92,1135.92 1663.09,1136.02 1665.25,1136.12 1667.41,1136.21 1669.57,1136.31 1671.73,1136.4 1673.9,1136.49 1676.06,1136.59 1678.22,1136.68 1680.38,1136.77 1682.54,1136.86 1684.7,1136.95 1686.87,1137.04 1689.03,1137.13 1691.19,1137.22 1693.35,1137.31 1695.51,1137.39 1697.68,1137.48 1699.84,1137.57 1702,1137.65 1704.16,1137.74 1706.32,1137.83 1708.49,1137.91 1710.65,1137.99 1712.81,1138.08 1714.97,1138.16 1717.13,1138.24 1719.3,1138.33 1721.46,1138.41 1723.62,1138.49 1725.78,1138.57 1727.94,1138.65 1730.11,1138.73 1732.27,1138.81 1734.43,1138.89 1736.59,1138.96 1738.75,1139.04 1740.92,1139.12 1743.08,1139.2 1745.24,1139.27 1747.4,1139.35 1749.56,1139.42 1751.73,1139.5 1753.89,1139.57 1756.05,1139.65 1758.21,1139.72 1760.37,1139.79 1762.54,1139.87 1764.7,1139.94 1766.86,1140.01 1769.02,1140.08 1771.18,1140.15 1773.35,1140.22 1775.51,1140.29 1777.67,1140.36 1779.83,1140.43 1781.99,1140.5 1784.16,1140.57 1786.32,1140.64 1788.48,1140.71 1790.64,1140.77 1792.8,1140.84 1794.97,1140.91 1797.13,1140.97 1799.29,1141.04 1801.45,1141.1 1803.61,1141.17 1805.78,1141.23 1807.94,1141.3 1810.1,1141.36 1812.26,1141.42 1814.42,1141.49 1816.59,1141.55 1818.75,1141.61 1820.91,1141.67 1823.07,1141.74 1825.23,1141.8 1827.4,1141.86 1829.56,1141.92 1831.72,1141.98 1833.88,1142.04 1836.04,1142.1 1838.21,1142.16 1840.37,1142.21 1842.53,1142.27 1844.69,1142.33 1846.85,1142.39 1849.02,1142.45 1851.18,1142.5 1853.34,1142.56 1855.5,1142.62 1857.66,1142.67 1859.83,1142.73 1861.99,1142.78 1864.15,1142.84 1866.31,1142.89 1868.47,1142.95 1870.63,1143 1872.8,1143.05 1874.96,1143.11 1877.12,1143.16 1879.28,1143.21 1881.44,1143.26 1883.61,1143.32 1885.77,1143.37 1887.93,1143.42 1890.09,1143.47 1892.25,1143.52 1894.42,1143.57 1896.58,1143.62 1898.74,1143.67 1900.9,1143.72 1903.06,1143.77 1905.23,1143.82 1907.39,1143.87 1909.55,1143.92 1911.71,1143.96 1913.87,1144.01 1916.04,1144.06 1918.2,1144.11 1920.36,1144.15 1922.52,1144.2 1924.68,1144.25 1926.85,1144.29 1929.01,1144.34 1931.17,1144.38 1933.33,1144.43 1935.49,1144.47 1937.66,1144.52 1939.82,1144.56 1941.98,1144.61 1944.14,1144.65 1946.3,1144.69 1948.47,1144.74 1950.63,1144.78 1952.79,1144.82 1954.95,1144.87 1957.11,1144.91 1959.28,1144.95 1961.44,1144.99 1963.6,1145.03 1965.76,1145.07 1967.92,1145.11 1970.09,1145.16 1972.25,1145.2 1974.41,1145.24 1976.57,1145.28 1978.73,1145.32 1980.9,1145.36 1983.06,1145.39 1985.22,1145.43 1987.38,1145.47 1989.54,1145.51 1991.71,1145.55 1993.87,1145.59 1996.03,1145.62 1998.19,1145.66 2000.35,1145.7 2002.52,1145.74 2004.68,1145.77 2006.84,1145.81 2009,1145.85 2011.16,1145.88 2013.33,1145.92 2015.49,1145.96 2017.65,1145.99 2019.81,1146.03 2021.97,1146.06 2024.14,1146.1 2026.3,1146.13 2028.46,1146.17 2030.62,1146.2 2032.78,1146.23 2034.95,1146.27 2037.11,1146.3 2039.27,1146.33 2041.43,1146.37 2043.59,1146.4 2045.76,1146.43 2047.92,1146.47 2050.08,1146.5 2052.24,1146.53 2054.4,1146.56 2056.57,1146.6 2058.73,1146.63 2060.89,1146.66 2063.05,1146.69 2065.21,1146.72 2067.37,1146.75 2069.54,1146.78 2071.7,1146.81 2073.86,1146.84 2076.02,1146.87 2078.18,1146.9 2080.35,1146.93 2082.51,1146.96 2084.67,1146.99 2086.83,1147.02 2088.99,1147.05 2091.16,1147.08 2093.32,1147.11 2095.48,1147.14 2097.64,1147.17 2099.8,1147.19 2101.97,1147.22 2104.13,1147.25 2106.29,1147.28 2108.45,1147.31 2110.61,1147.33 2112.78,1147.36 2114.94,1147.39 2117.1,1147.42 2119.26,1147.44 2121.42,1147.47 2123.59,1147.5 2125.75,1147.52 2127.91,1147.55 2130.07,1147.57 2132.23,1147.6 2134.4,1147.63 2136.56,1147.65 2138.72,1147.68 2140.88,1147.7 2143.04,1147.73 2145.21,1147.75 2147.37,1147.78 2149.53,1147.8 2151.69,1147.83 2153.85,1147.85 2156.02,1147.87 2158.18,1147.9 2160.34,1147.92 2162.5,1147.95 2164.66,1147.97 2166.83,1147.99 2168.99,1148.02 2171.15,1148.04 2173.31,1148.06 2175.47,1148.09 2177.64,1148.11 2179.8,1148.13 2181.96,1148.15 2184.12,1148.18 2186.28,1148.2 2188.45,1148.22 2190.61,1148.24 2192.77,1148.27 2194.93,1148.29 2197.09,1148.31 2199.26,1148.33 2201.42,1148.35 2203.58,1148.37 2205.74,1148.39 2207.9,1148.42 2210.07,1148.44 2212.23,1148.46 2214.39,1148.48 2216.55,1148.5 2218.71,1148.52 2220.88,1148.54 2223.04,1148.56 2225.2,1148.58 2227.36,1148.6 2229.52,1148.62 2231.69,1148.64 2233.85,1148.66 2236.01,1148.68 2238.17,1148.7 2240.33,1148.72 2242.5,1148.73 2244.66,1148.75 2246.82,1148.77 2248.98,1148.79 2251.14,1148.81 2253.3,1148.83 2255.47,1148.85 2257.63,1148.86 2259.79,1148.88 2261.95,1148.9 2264.11,1148.92 2266.28,1148.94 2268.44,1148.95 2270.6,1148.97 2272.76,1148.99 2274.92,1149.01 2277.09,1149.02 2279.25,1149.04 2281.41,1149.06 2283.57,1149.08 2285.73,1149.09 2287.9,1149.11 2290.06,1149.13 2292.22,1149.14 2294.38,1149.16 2296.54,1149.18 2298.71,1149.19 2300.87,1149.21 2303.03,1149.22 2305.19,1149.24 2307.35,1149.26 2309.52,1149.27 2311.68,1149.29 2313.84,1149.3 2316,1149.32 2318.16,1149.33 2320.33,1149.35 2322.49,1149.36 2324.65,1149.38 2326.81,1149.39 2328.97,1149.41 2331.14,1149.42 2333.3,1149.44 2335.46,1149.45 2337.62,1149.47 2339.78,1149.48 2341.95,1149.5 2344.11,1149.51 2346.27,1149.53 2348.43,1149.54 2350.59,1149.55 2352.76,1149.57 "/>
<path clip-path="url(#clip650)" d="M1805.38 248.629 L2280.76 248.629 L2280.76 93.1086 L1805.38 93.1086  Z" fill="#ffffff" fill-rule="evenodd" fill-opacity="1"/>
<polyline clip-path="url(#clip650)" style="stroke:#000000; stroke-linecap:round; stroke-linejoin:round; stroke-width:4; stroke-opacity:1; fill:none" points="1805.38,248.629 2280.76,248.629 2280.76,93.1086 1805.38,93.1086 1805.38,248.629 "/>
<polyline clip-path="url(#clip650)" style="stroke:#009af9; stroke-linecap:round; stroke-linejoin:round; stroke-width:4; stroke-opacity:1; fill:none" points="1829.38,144.949 1973.37,144.949 "/>
<path clip-path="url(#clip650)" d="M1997.37 136.303 L2001.88 136.303 L2009.98 158.062 L2018.08 136.303 L2022.6 136.303 L2012.88 162.229 L2007.09 162.229 L1997.37 136.303 Z" fill="#000000" fill-rule="nonzero" fill-opacity="1" /><path clip-path="url(#clip650)" d="M2029.89 158.293 L2037.53 158.293 L2037.53 131.928 L2029.22 133.595 L2029.22 129.335 L2037.48 127.669 L2042.16 127.669 L2042.16 158.293 L2049.8 158.293 L2049.8 162.229 L2029.89 162.229 L2029.89 158.293 Z" fill="#000000" fill-rule="nonzero" fill-opacity="1" /><path clip-path="url(#clip650)" d="M2067.9 145.585 L2067.9 152.807 L2076.02 152.807 L2076.02 155.006 L2067.9 155.006 L2067.9 162.229 L2065.47 162.229 L2065.47 155.006 L2057.34 155.006 L2057.34 152.807 L2065.47 152.807 L2065.47 145.585 L2067.9 145.585 Z" fill="#000000" fill-rule="nonzero" fill-opacity="1" /><path clip-path="url(#clip650)" d="M2100.19 137.067 L2100.19 141.094 Q2098.39 140.169 2096.44 139.706 Q2094.5 139.243 2092.41 139.243 Q2089.24 139.243 2087.64 140.215 Q2086.07 141.187 2086.07 143.131 Q2086.07 144.613 2087.2 145.469 Q2088.34 146.303 2091.76 147.067 L2093.22 147.391 Q2097.76 148.363 2099.66 150.145 Q2101.58 151.905 2101.58 155.076 Q2101.58 158.687 2098.71 160.793 Q2095.86 162.9 2090.86 162.9 Q2088.78 162.9 2086.51 162.483 Q2084.27 162.09 2081.77 161.28 L2081.77 156.881 Q2084.13 158.108 2086.42 158.733 Q2088.71 159.335 2090.95 159.335 Q2093.96 159.335 2095.58 158.317 Q2097.2 157.275 2097.2 155.4 Q2097.2 153.664 2096.02 152.738 Q2094.87 151.812 2090.91 150.956 L2089.43 150.608 Q2085.47 149.775 2083.71 148.062 Q2081.95 146.326 2081.95 143.317 Q2081.95 139.659 2084.54 137.669 Q2087.14 135.678 2091.9 135.678 Q2094.26 135.678 2096.35 136.025 Q2098.43 136.372 2100.19 137.067 Z" fill="#000000" fill-rule="nonzero" fill-opacity="1" /><path clip-path="url(#clip650)" d="M2112.58 128.942 L2112.58 136.303 L2121.35 136.303 L2121.35 139.613 L2112.58 139.613 L2112.58 153.687 Q2112.58 156.858 2113.43 157.761 Q2114.31 158.664 2116.97 158.664 L2121.35 158.664 L2121.35 162.229 L2116.97 162.229 Q2112.04 162.229 2110.17 160.4 Q2108.29 158.548 2108.29 153.687 L2108.29 139.613 L2105.17 139.613 L2105.17 136.303 L2108.29 136.303 L2108.29 128.942 L2112.58 128.942 Z" fill="#000000" fill-rule="nonzero" fill-opacity="1" /><path clip-path="url(#clip650)" d="M2137 139.289 Q2133.57 139.289 2131.58 141.974 Q2129.59 144.636 2129.59 149.289 Q2129.59 153.942 2131.56 156.627 Q2133.55 159.289 2137 159.289 Q2140.4 159.289 2142.39 156.604 Q2144.38 153.918 2144.38 149.289 Q2144.38 144.682 2142.39 141.997 Q2140.4 139.289 2137 139.289 M2137 135.678 Q2142.55 135.678 2145.72 139.289 Q2148.89 142.9 2148.89 149.289 Q2148.89 155.655 2145.72 159.289 Q2142.55 162.9 2137 162.9 Q2131.42 162.9 2128.25 159.289 Q2125.1 155.655 2125.1 149.289 Q2125.1 142.9 2128.25 139.289 Q2131.42 135.678 2137 135.678 Z" fill="#000000" fill-rule="nonzero" fill-opacity="1" /><path clip-path="url(#clip650)" d="M2170.98 140.284 Q2170.26 139.868 2169.4 139.682 Q2168.57 139.474 2167.55 139.474 Q2163.94 139.474 2162 141.835 Q2160.07 144.173 2160.07 148.571 L2160.07 162.229 L2155.79 162.229 L2155.79 136.303 L2160.07 136.303 L2160.07 140.331 Q2161.42 137.969 2163.57 136.835 Q2165.72 135.678 2168.8 135.678 Q2169.24 135.678 2169.77 135.747 Q2170.31 135.794 2170.95 135.909 L2170.98 140.284 Z" fill="#000000" fill-rule="nonzero" fill-opacity="1" /><path clip-path="url(#clip650)" d="M2187.23 149.196 Q2182.07 149.196 2180.07 150.377 Q2178.08 151.557 2178.08 154.405 Q2178.08 156.673 2179.57 158.016 Q2181.07 159.335 2183.64 159.335 Q2187.18 159.335 2189.31 156.835 Q2191.46 154.312 2191.46 150.145 L2191.46 149.196 L2187.23 149.196 M2195.72 147.437 L2195.72 162.229 L2191.46 162.229 L2191.46 158.293 Q2190.01 160.655 2187.83 161.789 Q2185.65 162.9 2182.51 162.9 Q2178.52 162.9 2176.16 160.678 Q2173.82 158.432 2173.82 154.682 Q2173.82 150.307 2176.74 148.085 Q2179.68 145.863 2185.49 145.863 L2191.46 145.863 L2191.46 145.446 Q2191.46 142.507 2189.52 140.909 Q2187.6 139.289 2184.1 139.289 Q2181.88 139.289 2179.77 139.821 Q2177.67 140.354 2175.72 141.419 L2175.72 137.483 Q2178.06 136.581 2180.26 136.141 Q2182.46 135.678 2184.54 135.678 Q2190.17 135.678 2192.95 138.594 Q2195.72 141.511 2195.72 147.437 Z" fill="#000000" fill-rule="nonzero" fill-opacity="1" /><path clip-path="url(#clip650)" d="M2221.56 148.965 Q2221.56 144.335 2219.63 141.789 Q2217.74 139.243 2214.29 139.243 Q2210.86 139.243 2208.94 141.789 Q2207.04 144.335 2207.04 148.965 Q2207.04 153.571 2208.94 156.118 Q2210.86 158.664 2214.29 158.664 Q2217.74 158.664 2219.63 156.118 Q2221.56 153.571 2221.56 148.965 M2225.82 159.011 Q2225.82 165.631 2222.88 168.849 Q2219.94 172.09 2213.87 172.09 Q2211.63 172.09 2209.63 171.742 Q2207.64 171.418 2205.77 170.724 L2205.77 166.58 Q2207.64 167.599 2209.47 168.085 Q2211.3 168.571 2213.2 168.571 Q2217.39 168.571 2219.47 166.372 Q2221.56 164.196 2221.56 159.775 L2221.56 157.668 Q2220.24 159.96 2218.18 161.094 Q2216.12 162.229 2213.25 162.229 Q2208.48 162.229 2205.56 158.594 Q2202.64 154.96 2202.64 148.965 Q2202.64 142.946 2205.56 139.312 Q2208.48 135.678 2213.25 135.678 Q2216.12 135.678 2218.18 136.812 Q2220.24 137.946 2221.56 140.238 L2221.56 136.303 L2225.82 136.303 L2225.82 159.011 Z" fill="#000000" fill-rule="nonzero" fill-opacity="1" /><path clip-path="url(#clip650)" d="M2256.76 148.201 L2256.76 150.284 L2237.18 150.284 Q2237.46 154.682 2239.82 156.997 Q2242.2 159.289 2246.44 159.289 Q2248.89 159.289 2251.19 158.687 Q2253.5 158.085 2255.77 156.881 L2255.77 160.909 Q2253.48 161.881 2251.07 162.391 Q2248.66 162.9 2246.19 162.9 Q2239.98 162.9 2236.35 159.289 Q2232.74 155.678 2232.74 149.52 Q2232.74 143.155 2236.16 139.428 Q2239.61 135.678 2245.44 135.678 Q2250.68 135.678 2253.71 139.057 Q2256.76 142.414 2256.76 148.201 M2252.5 146.951 Q2252.46 143.456 2250.54 141.372 Q2248.64 139.289 2245.49 139.289 Q2241.93 139.289 2239.77 141.303 Q2237.64 143.317 2237.32 146.974 L2252.5 146.951 Z" fill="#000000" fill-rule="nonzero" fill-opacity="1" /><polyline clip-path="url(#clip650)" style="stroke:#e26f46; stroke-linecap:round; stroke-linejoin:round; stroke-width:4; stroke-opacity:1; fill:none" points="1829.38,196.789 1973.37,196.789 "/>
<path clip-path="url(#clip650)" d="M1997.37 188.143 L2001.88 188.143 L2009.98 209.902 L2018.08 188.143 L2022.6 188.143 L2012.88 214.069 L2007.09 214.069 L1997.37 188.143 Z" fill="#000000" fill-rule="nonzero" fill-opacity="1" /><path clip-path="url(#clip650)" d="M2029.13 179.509 L2047.48 179.509 L2047.48 183.444 L2033.41 183.444 L2033.41 191.916 Q2034.43 191.569 2035.45 191.407 Q2036.46 191.222 2037.48 191.222 Q2043.27 191.222 2046.65 194.393 Q2050.03 197.564 2050.03 202.981 Q2050.03 208.559 2046.56 211.661 Q2043.08 214.74 2036.77 214.74 Q2034.59 214.74 2032.32 214.37 Q2030.08 213.999 2027.67 213.258 L2027.67 208.559 Q2029.75 209.694 2031.97 210.249 Q2034.2 210.805 2036.67 210.805 Q2040.68 210.805 2043.02 208.698 Q2045.35 206.592 2045.35 202.981 Q2045.35 199.37 2043.02 197.263 Q2040.68 195.157 2036.67 195.157 Q2034.8 195.157 2032.92 195.573 Q2031.07 195.99 2029.13 196.87 L2029.13 179.509 Z" fill="#000000" fill-rule="nonzero" fill-opacity="1" /><path clip-path="url(#clip650)" d="M2067.9 197.425 L2067.9 204.647 L2076.02 204.647 L2076.02 206.846 L2067.9 206.846 L2067.9 214.069 L2065.47 214.069 L2065.47 206.846 L2057.34 206.846 L2057.34 204.647 L2065.47 204.647 L2065.47 197.425 L2067.9 197.425 Z" fill="#000000" fill-rule="nonzero" fill-opacity="1" /><path clip-path="url(#clip650)" d="M2100.19 188.907 L2100.19 192.934 Q2098.39 192.009 2096.44 191.546 Q2094.5 191.083 2092.41 191.083 Q2089.24 191.083 2087.64 192.055 Q2086.07 193.027 2086.07 194.971 Q2086.07 196.453 2087.2 197.309 Q2088.34 198.143 2091.76 198.907 L2093.22 199.231 Q2097.76 200.203 2099.66 201.985 Q2101.58 203.745 2101.58 206.916 Q2101.58 210.527 2098.71 212.633 Q2095.86 214.74 2090.86 214.74 Q2088.78 214.74 2086.51 214.323 Q2084.27 213.93 2081.77 213.12 L2081.77 208.721 Q2084.13 209.948 2086.42 210.573 Q2088.71 211.175 2090.95 211.175 Q2093.96 211.175 2095.58 210.157 Q2097.2 209.115 2097.2 207.24 Q2097.2 205.504 2096.02 204.578 Q2094.87 203.652 2090.91 202.796 L2089.43 202.448 Q2085.47 201.615 2083.71 199.902 Q2081.95 198.166 2081.95 195.157 Q2081.95 191.499 2084.54 189.509 Q2087.14 187.518 2091.9 187.518 Q2094.26 187.518 2096.35 187.865 Q2098.43 188.212 2100.19 188.907 Z" fill="#000000" fill-rule="nonzero" fill-opacity="1" /><path clip-path="url(#clip650)" d="M2112.58 180.782 L2112.58 188.143 L2121.35 188.143 L2121.35 191.453 L2112.58 191.453 L2112.58 205.527 Q2112.58 208.698 2113.43 209.601 Q2114.31 210.504 2116.97 210.504 L2121.35 210.504 L2121.35 214.069 L2116.97 214.069 Q2112.04 214.069 2110.17 212.24 Q2108.29 210.388 2108.29 205.527 L2108.29 191.453 L2105.17 191.453 L2105.17 188.143 L2108.29 188.143 L2108.29 180.782 L2112.58 180.782 Z" fill="#000000" fill-rule="nonzero" fill-opacity="1" /><path clip-path="url(#clip650)" d="M2137 191.129 Q2133.57 191.129 2131.58 193.814 Q2129.59 196.476 2129.59 201.129 Q2129.59 205.782 2131.56 208.467 Q2133.55 211.129 2137 211.129 Q2140.4 211.129 2142.39 208.444 Q2144.38 205.758 2144.38 201.129 Q2144.38 196.522 2142.39 193.837 Q2140.4 191.129 2137 191.129 M2137 187.518 Q2142.55 187.518 2145.72 191.129 Q2148.89 194.74 2148.89 201.129 Q2148.89 207.495 2145.72 211.129 Q2142.55 214.74 2137 214.74 Q2131.42 214.74 2128.25 211.129 Q2125.1 207.495 2125.1 201.129 Q2125.1 194.74 2128.25 191.129 Q2131.42 187.518 2137 187.518 Z" fill="#000000" fill-rule="nonzero" fill-opacity="1" /><path clip-path="url(#clip650)" d="M2170.98 192.124 Q2170.26 191.708 2169.4 191.522 Q2168.57 191.314 2167.55 191.314 Q2163.94 191.314 2162 193.675 Q2160.07 196.013 2160.07 200.411 L2160.07 214.069 L2155.79 214.069 L2155.79 188.143 L2160.07 188.143 L2160.07 192.171 Q2161.42 189.809 2163.57 188.675 Q2165.72 187.518 2168.8 187.518 Q2169.24 187.518 2169.77 187.587 Q2170.31 187.634 2170.95 187.749 L2170.98 192.124 Z" fill="#000000" fill-rule="nonzero" fill-opacity="1" /><path clip-path="url(#clip650)" d="M2187.23 201.036 Q2182.07 201.036 2180.07 202.217 Q2178.08 203.397 2178.08 206.245 Q2178.08 208.513 2179.57 209.856 Q2181.07 211.175 2183.64 211.175 Q2187.18 211.175 2189.31 208.675 Q2191.46 206.152 2191.46 201.985 L2191.46 201.036 L2187.23 201.036 M2195.72 199.277 L2195.72 214.069 L2191.46 214.069 L2191.46 210.133 Q2190.01 212.495 2187.83 213.629 Q2185.65 214.74 2182.51 214.74 Q2178.52 214.74 2176.16 212.518 Q2173.82 210.272 2173.82 206.522 Q2173.82 202.147 2176.74 199.925 Q2179.68 197.703 2185.49 197.703 L2191.46 197.703 L2191.46 197.286 Q2191.46 194.347 2189.52 192.749 Q2187.6 191.129 2184.1 191.129 Q2181.88 191.129 2179.77 191.661 Q2177.67 192.194 2175.72 193.259 L2175.72 189.323 Q2178.06 188.421 2180.26 187.981 Q2182.46 187.518 2184.54 187.518 Q2190.17 187.518 2192.95 190.434 Q2195.72 193.351 2195.72 199.277 Z" fill="#000000" fill-rule="nonzero" fill-opacity="1" /><path clip-path="url(#clip650)" d="M2221.56 200.805 Q2221.56 196.175 2219.63 193.629 Q2217.74 191.083 2214.29 191.083 Q2210.86 191.083 2208.94 193.629 Q2207.04 196.175 2207.04 200.805 Q2207.04 205.411 2208.94 207.958 Q2210.86 210.504 2214.29 210.504 Q2217.74 210.504 2219.63 207.958 Q2221.56 205.411 2221.56 200.805 M2225.82 210.851 Q2225.82 217.471 2222.88 220.689 Q2219.94 223.93 2213.87 223.93 Q2211.63 223.93 2209.63 223.582 Q2207.64 223.258 2205.77 222.564 L2205.77 218.42 Q2207.64 219.439 2209.47 219.925 Q2211.3 220.411 2213.2 220.411 Q2217.39 220.411 2219.47 218.212 Q2221.56 216.036 2221.56 211.615 L2221.56 209.508 Q2220.24 211.8 2218.18 212.934 Q2216.12 214.069 2213.25 214.069 Q2208.48 214.069 2205.56 210.434 Q2202.64 206.8 2202.64 200.805 Q2202.64 194.786 2205.56 191.152 Q2208.48 187.518 2213.25 187.518 Q2216.12 187.518 2218.18 188.652 Q2220.24 189.786 2221.56 192.078 L2221.56 188.143 L2225.82 188.143 L2225.82 210.851 Z" fill="#000000" fill-rule="nonzero" fill-opacity="1" /><path clip-path="url(#clip650)" d="M2256.76 200.041 L2256.76 202.124 L2237.18 202.124 Q2237.46 206.522 2239.82 208.837 Q2242.2 211.129 2246.44 211.129 Q2248.89 211.129 2251.19 210.527 Q2253.5 209.925 2255.77 208.721 L2255.77 212.749 Q2253.48 213.721 2251.07 214.231 Q2248.66 214.74 2246.19 214.74 Q2239.98 214.74 2236.35 211.129 Q2232.74 207.518 2232.74 201.36 Q2232.74 194.995 2236.16 191.268 Q2239.61 187.518 2245.44 187.518 Q2250.68 187.518 2253.71 190.897 Q2256.76 194.254 2256.76 200.041 M2252.5 198.791 Q2252.46 195.296 2250.54 193.212 Q2248.64 191.129 2245.49 191.129 Q2241.93 191.129 2239.77 193.143 Q2237.64 195.157 2237.32 198.814 L2252.5 198.791 Z" fill="#000000" fill-rule="nonzero" fill-opacity="1" /></svg>
