<?xml version="1.0" encoding="utf-8"?>
<svg xmlns="http://www.w3.org/2000/svg" xmlns:xlink="http://www.w3.org/1999/xlink" width="600" height="400" viewBox="0 0 2400 1600">
<defs>
  <clipPath id="clip300">
    <rect x="0" y="0" width="2400" height="1600"/>
  </clipPath>
</defs>
<path clip-path="url(#clip300)" d="M0 1600 L2400 1600 L2400 0 L0 0  Z" fill="#ffffff" fill-rule="evenodd" fill-opacity="1"/>
<defs>
  <clipPath id="clip301">
    <rect x="480" y="0" width="1681" height="1600"/>
  </clipPath>
</defs>
<path clip-path="url(#clip300)" d="M224.098 1423.18 L2352.76 1423.18 L2352.76 47.2441 L224.098 47.2441  Z" fill="#ffffff" fill-rule="evenodd" fill-opacity="1"/>
<defs>
  <clipPath id="clip302">
    <rect x="224" y="47" width="2130" height="1377"/>
  </clipPath>
</defs>
<polyline clip-path="url(#clip302)" style="stroke:#000000; stroke-linecap:round; stroke-linejoin:round; stroke-width:2; stroke-opacity:0.1; fill:none" points="224.098,1423.18 224.098,47.2441 "/>
<polyline clip-path="url(#clip302)" style="stroke:#000000; stroke-linecap:round; stroke-linejoin:round; stroke-width:2; stroke-opacity:0.1; fill:none" points="756.262,1423.18 756.262,47.2441 "/>
<polyline clip-path="url(#clip302)" style="stroke:#000000; stroke-linecap:round; stroke-linejoin:round; stroke-width:2; stroke-opacity:0.1; fill:none" points="1288.43,1423.18 1288.43,47.2441 "/>
<polyline clip-path="url(#clip302)" style="stroke:#000000; stroke-linecap:round; stroke-linejoin:round; stroke-width:2; stroke-opacity:0.1; fill:none" points="1820.59,1423.18 1820.59,47.2441 "/>
<polyline clip-path="url(#clip302)" style="stroke:#000000; stroke-linecap:round; stroke-linejoin:round; stroke-width:2; stroke-opacity:0.1; fill:none" points="2352.76,1423.18 2352.76,47.2441 "/>
<polyline clip-path="url(#clip302)" style="stroke:#000000; stroke-linecap:round; stroke-linejoin:round; stroke-width:2; stroke-opacity:0.1; fill:none" points="224.098,1383.05 2352.76,1383.05 "/>
<polyline clip-path="url(#clip302)" style="stroke:#000000; stroke-linecap:round; stroke-linejoin:round; stroke-width:2; stroke-opacity:0.1; fill:none" points="224.098,1038.22 2352.76,1038.22 "/>
<polyline clip-path="url(#clip302)" style="stroke:#000000; stroke-linecap:round; stroke-linejoin:round; stroke-width:2; stroke-opacity:0.1; fill:none" points="224.098,693.398 2352.76,693.398 "/>
<polyline clip-path="url(#clip302)" style="stroke:#000000; stroke-linecap:round; stroke-linejoin:round; stroke-width:2; stroke-opacity:0.1; fill:none" points="224.098,348.573 2352.76,348.573 "/>
<polyline clip-path="url(#clip300)" style="stroke:#000000; stroke-linecap:round; stroke-linejoin:round; stroke-width:4; stroke-opacity:1; fill:none" points="224.098,1423.18 2352.76,1423.18 "/>
<polyline clip-path="url(#clip300)" style="stroke:#000000; stroke-linecap:round; stroke-linejoin:round; stroke-width:4; stroke-opacity:1; fill:none" points="224.098,1423.18 224.098,1404.28 "/>
<polyline clip-path="url(#clip300)" style="stroke:#000000; stroke-linecap:round; stroke-linejoin:round; stroke-width:4; stroke-opacity:1; fill:none" points="756.262,1423.18 756.262,1404.28 "/>
<polyline clip-path="url(#clip300)" style="stroke:#000000; stroke-linecap:round; stroke-linejoin:round; stroke-width:4; stroke-opacity:1; fill:none" points="1288.43,1423.18 1288.43,1404.28 "/>
<polyline clip-path="url(#clip300)" style="stroke:#000000; stroke-linecap:round; stroke-linejoin:round; stroke-width:4; stroke-opacity:1; fill:none" points="1820.59,1423.18 1820.59,1404.28 "/>
<polyline clip-path="url(#clip300)" style="stroke:#000000; stroke-linecap:round; stroke-linejoin:round; stroke-width:4; stroke-opacity:1; fill:none" points="2352.76,1423.18 2352.76,1404.28 "/>
<path clip-path="url(#clip300)" d="M201.482 1454.1 Q197.871 1454.1 196.042 1457.66 Q194.237 1461.2 194.237 1468.33 Q194.237 1475.44 196.042 1479.01 Q197.871 1482.55 201.482 1482.55 Q205.116 1482.55 206.922 1479.01 Q208.751 1475.44 208.751 1468.33 Q208.751 1461.2 206.922 1457.66 Q205.116 1454.1 201.482 1454.1 M201.482 1450.39 Q207.292 1450.39 210.348 1455 Q213.427 1459.58 213.427 1468.33 Q213.427 1477.06 210.348 1481.67 Q207.292 1486.25 201.482 1486.25 Q195.672 1486.25 192.593 1481.67 Q189.538 1477.06 189.538 1468.33 Q189.538 1459.58 192.593 1455 Q195.672 1450.39 201.482 1450.39 Z" fill="#000000" fill-rule="nonzero" fill-opacity="1" /><path clip-path="url(#clip300)" d="M221.644 1479.7 L226.528 1479.7 L226.528 1485.58 L221.644 1485.58 L221.644 1479.7 Z" fill="#000000" fill-rule="nonzero" fill-opacity="1" /><path clip-path="url(#clip300)" d="M246.713 1454.1 Q243.102 1454.1 241.274 1457.66 Q239.468 1461.2 239.468 1468.33 Q239.468 1475.44 241.274 1479.01 Q243.102 1482.55 246.713 1482.55 Q250.348 1482.55 252.153 1479.01 Q253.982 1475.44 253.982 1468.33 Q253.982 1461.2 252.153 1457.66 Q250.348 1454.1 246.713 1454.1 M246.713 1450.39 Q252.524 1450.39 255.579 1455 Q258.658 1459.58 258.658 1468.33 Q258.658 1477.06 255.579 1481.67 Q252.524 1486.25 246.713 1486.25 Q240.903 1486.25 237.825 1481.67 Q234.769 1477.06 234.769 1468.33 Q234.769 1459.58 237.825 1455 Q240.903 1450.39 246.713 1450.39 Z" fill="#000000" fill-rule="nonzero" fill-opacity="1" /><path clip-path="url(#clip300)" d="M734.144 1454.1 Q730.533 1454.1 728.705 1457.66 Q726.899 1461.2 726.899 1468.33 Q726.899 1475.44 728.705 1479.01 Q730.533 1482.55 734.144 1482.55 Q737.779 1482.55 739.584 1479.01 Q741.413 1475.44 741.413 1468.33 Q741.413 1461.2 739.584 1457.66 Q737.779 1454.1 734.144 1454.1 M734.144 1450.39 Q739.955 1450.39 743.01 1455 Q746.089 1459.58 746.089 1468.33 Q746.089 1477.06 743.01 1481.67 Q739.955 1486.25 734.144 1486.25 Q728.334 1486.25 725.256 1481.67 Q722.2 1477.06 722.2 1468.33 Q722.2 1459.58 725.256 1455 Q728.334 1450.39 734.144 1450.39 Z" fill="#000000" fill-rule="nonzero" fill-opacity="1" /><path clip-path="url(#clip300)" d="M754.306 1479.7 L759.191 1479.7 L759.191 1485.58 L754.306 1485.58 L754.306 1479.7 Z" fill="#000000" fill-rule="nonzero" fill-opacity="1" /><path clip-path="url(#clip300)" d="M769.422 1451.02 L787.778 1451.02 L787.778 1454.96 L773.704 1454.96 L773.704 1463.43 Q774.723 1463.08 775.741 1462.92 Q776.76 1462.73 777.778 1462.73 Q783.565 1462.73 786.945 1465.9 Q790.325 1469.08 790.325 1474.49 Q790.325 1480.07 786.852 1483.17 Q783.38 1486.25 777.061 1486.25 Q774.885 1486.25 772.616 1485.88 Q770.371 1485.51 767.964 1484.77 L767.964 1480.07 Q770.047 1481.2 772.269 1481.76 Q774.491 1482.32 776.968 1482.32 Q780.973 1482.32 783.311 1480.21 Q785.649 1478.1 785.649 1474.49 Q785.649 1470.88 783.311 1468.77 Q780.973 1466.67 776.968 1466.67 Q775.093 1466.67 773.218 1467.08 Q771.366 1467.5 769.422 1468.38 L769.422 1451.02 Z" fill="#000000" fill-rule="nonzero" fill-opacity="1" /><path clip-path="url(#clip300)" d="M1255.58 1481.64 L1263.22 1481.64 L1263.22 1455.28 L1254.91 1456.95 L1254.91 1452.69 L1263.17 1451.02 L1267.85 1451.02 L1267.85 1481.64 L1275.49 1481.64 L1275.49 1485.58 L1255.58 1485.58 L1255.58 1481.64 Z" fill="#000000" fill-rule="nonzero" fill-opacity="1" /><path clip-path="url(#clip300)" d="M1284.93 1479.7 L1289.82 1479.7 L1289.82 1485.58 L1284.93 1485.58 L1284.93 1479.7 Z" fill="#000000" fill-rule="nonzero" fill-opacity="1" /><path clip-path="url(#clip300)" d="M1310 1454.1 Q1306.39 1454.1 1304.56 1457.66 Q1302.76 1461.2 1302.76 1468.33 Q1302.76 1475.44 1304.56 1479.01 Q1306.39 1482.55 1310 1482.55 Q1313.64 1482.55 1315.44 1479.01 Q1317.27 1475.44 1317.27 1468.33 Q1317.27 1461.2 1315.44 1457.66 Q1313.64 1454.1 1310 1454.1 M1310 1450.39 Q1315.81 1450.39 1318.87 1455 Q1321.95 1459.58 1321.95 1468.33 Q1321.95 1477.06 1318.87 1481.67 Q1315.81 1486.25 1310 1486.25 Q1304.19 1486.25 1301.11 1481.67 Q1298.06 1477.06 1298.06 1468.33 Q1298.06 1459.58 1301.11 1455 Q1304.19 1450.39 1310 1450.39 Z" fill="#000000" fill-rule="nonzero" fill-opacity="1" /><path clip-path="url(#clip300)" d="M1788.24 1481.64 L1795.88 1481.64 L1795.88 1455.28 L1787.57 1456.95 L1787.57 1452.69 L1795.83 1451.02 L1800.51 1451.02 L1800.51 1481.64 L1808.15 1481.64 L1808.15 1485.58 L1788.24 1485.58 L1788.24 1481.64 Z" fill="#000000" fill-rule="nonzero" fill-opacity="1" /><path clip-path="url(#clip300)" d="M1817.59 1479.7 L1822.48 1479.7 L1822.48 1485.58 L1817.59 1485.58 L1817.59 1479.7 Z" fill="#000000" fill-rule="nonzero" fill-opacity="1" /><path clip-path="url(#clip300)" d="M1832.71 1451.02 L1851.07 1451.02 L1851.07 1454.96 L1836.99 1454.96 L1836.99 1463.43 Q1838.01 1463.08 1839.03 1462.92 Q1840.05 1462.73 1841.07 1462.73 Q1846.85 1462.73 1850.23 1465.9 Q1853.61 1469.08 1853.61 1474.49 Q1853.61 1480.07 1850.14 1483.17 Q1846.67 1486.25 1840.35 1486.25 Q1838.17 1486.25 1835.9 1485.88 Q1833.66 1485.51 1831.25 1484.77 L1831.25 1480.07 Q1833.33 1481.2 1835.56 1481.76 Q1837.78 1482.32 1840.26 1482.32 Q1844.26 1482.32 1846.6 1480.21 Q1848.94 1478.1 1848.94 1474.49 Q1848.94 1470.88 1846.6 1468.77 Q1844.26 1466.67 1840.26 1466.67 Q1838.38 1466.67 1836.51 1467.08 Q1834.65 1467.5 1832.71 1468.38 L1832.71 1451.02 Z" fill="#000000" fill-rule="nonzero" fill-opacity="1" /><path clip-path="url(#clip300)" d="M2323.99 1481.64 L2340.31 1481.64 L2340.31 1485.58 L2318.37 1485.58 L2318.37 1481.64 Q2321.03 1478.89 2325.61 1474.26 Q2330.22 1469.61 2331.4 1468.27 Q2333.65 1465.74 2334.53 1464.01 Q2335.43 1462.25 2335.43 1460.56 Q2335.43 1457.8 2333.49 1456.07 Q2331.56 1454.33 2328.46 1454.33 Q2326.26 1454.33 2323.81 1455.09 Q2321.38 1455.86 2318.6 1457.41 L2318.6 1452.69 Q2321.43 1451.55 2323.88 1450.97 Q2326.33 1450.39 2328.37 1450.39 Q2333.74 1450.39 2336.93 1453.08 Q2340.13 1455.77 2340.13 1460.26 Q2340.13 1462.39 2339.32 1464.31 Q2338.53 1466.2 2336.42 1468.8 Q2335.85 1469.47 2332.74 1472.69 Q2329.64 1475.88 2323.99 1481.64 Z" fill="#000000" fill-rule="nonzero" fill-opacity="1" /><path clip-path="url(#clip300)" d="M2350.13 1479.7 L2355.01 1479.7 L2355.01 1485.58 L2350.13 1485.58 L2350.13 1479.7 Z" fill="#000000" fill-rule="nonzero" fill-opacity="1" /><path clip-path="url(#clip300)" d="M2375.2 1454.1 Q2371.59 1454.1 2369.76 1457.66 Q2367.95 1461.2 2367.95 1468.33 Q2367.95 1475.44 2369.76 1479.01 Q2371.59 1482.55 2375.2 1482.55 Q2378.83 1482.55 2380.64 1479.01 Q2382.47 1475.44 2382.47 1468.33 Q2382.47 1461.2 2380.64 1457.66 Q2378.83 1454.1 2375.2 1454.1 M2375.2 1450.39 Q2381.01 1450.39 2384.06 1455 Q2387.14 1459.58 2387.14 1468.33 Q2387.14 1477.06 2384.06 1481.67 Q2381.01 1486.25 2375.2 1486.25 Q2369.39 1486.25 2366.31 1481.67 Q2363.25 1477.06 2363.25 1468.33 Q2363.25 1459.58 2366.31 1455 Q2369.39 1450.39 2375.2 1450.39 Z" fill="#000000" fill-rule="nonzero" fill-opacity="1" /><path clip-path="url(#clip300)" d="M1287.49 1522.27 L1287.49 1532.4 L1299.55 1532.4 L1299.55 1536.95 L1287.49 1536.95 L1287.49 1556.3 Q1287.49 1560.66 1288.67 1561.9 Q1289.88 1563.14 1293.54 1563.14 L1299.55 1563.14 L1299.55 1568.04 L1293.54 1568.04 Q1286.76 1568.04 1284.18 1565.53 Q1281.6 1562.98 1281.6 1556.3 L1281.6 1536.95 L1277.3 1536.95 L1277.3 1532.4 L1281.6 1532.4 L1281.6 1522.27 L1287.49 1522.27 Z" fill="#000000" fill-rule="nonzero" fill-opacity="1" /><polyline clip-path="url(#clip300)" style="stroke:#000000; stroke-linecap:round; stroke-linejoin:round; stroke-width:4; stroke-opacity:1; fill:none" points="224.098,1423.18 224.098,47.2441 "/>
<polyline clip-path="url(#clip300)" style="stroke:#000000; stroke-linecap:round; stroke-linejoin:round; stroke-width:4; stroke-opacity:1; fill:none" points="224.098,1383.05 242.996,1383.05 "/>
<polyline clip-path="url(#clip300)" style="stroke:#000000; stroke-linecap:round; stroke-linejoin:round; stroke-width:4; stroke-opacity:1; fill:none" points="224.098,1038.22 242.996,1038.22 "/>
<polyline clip-path="url(#clip300)" style="stroke:#000000; stroke-linecap:round; stroke-linejoin:round; stroke-width:4; stroke-opacity:1; fill:none" points="224.098,693.398 242.996,693.398 "/>
<polyline clip-path="url(#clip300)" style="stroke:#000000; stroke-linecap:round; stroke-linejoin:round; stroke-width:4; stroke-opacity:1; fill:none" points="224.098,348.573 242.996,348.573 "/>
<path clip-path="url(#clip300)" d="M51.9875 1383.5 L81.6633 1383.5 L81.6633 1387.44 L51.9875 1387.44 L51.9875 1383.5 Z" fill="#000000" fill-rule="nonzero" fill-opacity="1" /><path clip-path="url(#clip300)" d="M101.756 1368.85 Q98.1447 1368.85 96.316 1372.41 Q94.5104 1375.95 94.5104 1383.08 Q94.5104 1390.19 96.316 1393.75 Q98.1447 1397.3 101.756 1397.3 Q105.39 1397.3 107.196 1393.75 Q109.024 1390.19 109.024 1383.08 Q109.024 1375.95 107.196 1372.41 Q105.39 1368.85 101.756 1368.85 M101.756 1365.14 Q107.566 1365.14 110.621 1369.75 Q113.7 1374.33 113.7 1383.08 Q113.7 1391.81 110.621 1396.42 Q107.566 1401 101.756 1401 Q95.9456 1401 92.8669 1396.42 Q89.8114 1391.81 89.8114 1383.08 Q89.8114 1374.33 92.8669 1369.75 Q95.9456 1365.14 101.756 1365.14 Z" fill="#000000" fill-rule="nonzero" fill-opacity="1" /><path clip-path="url(#clip300)" d="M121.918 1394.45 L126.802 1394.45 L126.802 1400.33 L121.918 1400.33 L121.918 1394.45 Z" fill="#000000" fill-rule="nonzero" fill-opacity="1" /><path clip-path="url(#clip300)" d="M141.015 1396.39 L157.334 1396.39 L157.334 1400.33 L135.39 1400.33 L135.39 1396.39 Q138.052 1393.64 142.635 1389.01 Q147.242 1384.36 148.422 1383.01 Q150.668 1380.49 151.547 1378.75 Q152.45 1377 152.45 1375.31 Q152.45 1372.55 150.505 1370.81 Q148.584 1369.08 145.482 1369.08 Q143.283 1369.08 140.83 1369.84 Q138.399 1370.61 135.621 1372.16 L135.621 1367.44 Q138.445 1366.3 140.899 1365.72 Q143.353 1365.14 145.39 1365.14 Q150.76 1365.14 153.955 1367.83 Q157.149 1370.51 157.149 1375 Q157.149 1377.13 156.339 1379.06 Q155.552 1380.95 153.445 1383.55 Q152.867 1384.22 149.765 1387.44 Q146.663 1390.63 141.015 1396.39 Z" fill="#000000" fill-rule="nonzero" fill-opacity="1" /><path clip-path="url(#clip300)" d="M167.195 1365.77 L185.552 1365.77 L185.552 1369.7 L171.478 1369.7 L171.478 1378.18 Q172.496 1377.83 173.515 1377.67 Q174.533 1377.48 175.552 1377.48 Q181.339 1377.48 184.718 1380.65 Q188.098 1383.82 188.098 1389.24 Q188.098 1394.82 184.626 1397.92 Q181.153 1401 174.834 1401 Q172.658 1401 170.39 1400.63 Q168.144 1400.26 165.737 1399.52 L165.737 1394.82 Q167.82 1395.95 170.042 1396.51 Q172.265 1397.06 174.741 1397.06 Q178.746 1397.06 181.084 1394.96 Q183.422 1392.85 183.422 1389.24 Q183.422 1385.63 181.084 1383.52 Q178.746 1381.42 174.741 1381.42 Q172.866 1381.42 170.991 1381.83 Q169.14 1382.25 167.195 1383.13 L167.195 1365.77 Z" fill="#000000" fill-rule="nonzero" fill-opacity="1" /><path clip-path="url(#clip300)" d="M50.9921 1038.67 L80.6679 1038.67 L80.6679 1042.61 L50.9921 1042.61 L50.9921 1038.67 Z" fill="#000000" fill-rule="nonzero" fill-opacity="1" /><path clip-path="url(#clip300)" d="M100.76 1024.02 Q97.1493 1024.02 95.3206 1027.59 Q93.515 1031.13 93.515 1038.26 Q93.515 1045.36 95.3206 1048.93 Q97.1493 1052.47 100.76 1052.47 Q104.395 1052.47 106.2 1048.93 Q108.029 1045.36 108.029 1038.26 Q108.029 1031.13 106.2 1027.59 Q104.395 1024.02 100.76 1024.02 M100.76 1020.32 Q106.571 1020.32 109.626 1024.92 Q112.705 1029.51 112.705 1038.26 Q112.705 1046.98 109.626 1051.59 Q106.571 1056.17 100.76 1056.17 Q94.9502 1056.17 91.8715 1051.59 Q88.816 1046.98 88.816 1038.26 Q88.816 1029.51 91.8715 1024.92 Q94.9502 1020.32 100.76 1020.32 Z" fill="#000000" fill-rule="nonzero" fill-opacity="1" /><path clip-path="url(#clip300)" d="M120.922 1049.62 L125.807 1049.62 L125.807 1055.5 L120.922 1055.5 L120.922 1049.62 Z" fill="#000000" fill-rule="nonzero" fill-opacity="1" /><path clip-path="url(#clip300)" d="M140.019 1051.57 L156.339 1051.57 L156.339 1055.5 L134.394 1055.5 L134.394 1051.57 Q137.056 1048.81 141.64 1044.18 Q146.246 1039.53 147.427 1038.19 Q149.672 1035.67 150.552 1033.93 Q151.455 1032.17 151.455 1030.48 Q151.455 1027.73 149.51 1025.99 Q147.589 1024.25 144.487 1024.25 Q142.288 1024.25 139.834 1025.02 Q137.404 1025.78 134.626 1027.33 L134.626 1022.61 Q137.45 1021.48 139.904 1020.9 Q142.357 1020.32 144.394 1020.32 Q149.765 1020.32 152.959 1023 Q156.154 1025.69 156.154 1030.18 Q156.154 1032.31 155.343 1034.23 Q154.556 1036.13 152.45 1038.72 Q151.871 1039.39 148.769 1042.61 Q145.668 1045.8 140.019 1051.57 Z" fill="#000000" fill-rule="nonzero" fill-opacity="1" /><path clip-path="url(#clip300)" d="M176.153 1024.02 Q172.542 1024.02 170.714 1027.59 Q168.908 1031.13 168.908 1038.26 Q168.908 1045.36 170.714 1048.93 Q172.542 1052.47 176.153 1052.47 Q179.788 1052.47 181.593 1048.93 Q183.422 1045.36 183.422 1038.26 Q183.422 1031.13 181.593 1027.59 Q179.788 1024.02 176.153 1024.02 M176.153 1020.32 Q181.964 1020.32 185.019 1024.92 Q188.098 1029.51 188.098 1038.26 Q188.098 1046.98 185.019 1051.59 Q181.964 1056.17 176.153 1056.17 Q170.343 1056.17 167.265 1051.59 Q164.209 1046.98 164.209 1038.26 Q164.209 1029.51 167.265 1024.92 Q170.343 1020.32 176.153 1020.32 Z" fill="#000000" fill-rule="nonzero" fill-opacity="1" /><path clip-path="url(#clip300)" d="M51.9875 693.849 L81.6633 693.849 L81.6633 697.785 L51.9875 697.785 L51.9875 693.849 Z" fill="#000000" fill-rule="nonzero" fill-opacity="1" /><path clip-path="url(#clip300)" d="M101.756 679.197 Q98.1447 679.197 96.316 682.761 Q94.5104 686.303 94.5104 693.433 Q94.5104 700.539 96.316 704.104 Q98.1447 707.646 101.756 707.646 Q105.39 707.646 107.196 704.104 Q109.024 700.539 109.024 693.433 Q109.024 686.303 107.196 682.761 Q105.39 679.197 101.756 679.197 M101.756 675.493 Q107.566 675.493 110.621 680.099 Q113.7 684.683 113.7 693.433 Q113.7 702.16 110.621 706.766 Q107.566 711.349 101.756 711.349 Q95.9456 711.349 92.8669 706.766 Q89.8114 702.16 89.8114 693.433 Q89.8114 684.683 92.8669 680.099 Q95.9456 675.493 101.756 675.493 Z" fill="#000000" fill-rule="nonzero" fill-opacity="1" /><path clip-path="url(#clip300)" d="M121.918 704.798 L126.802 704.798 L126.802 710.678 L121.918 710.678 L121.918 704.798 Z" fill="#000000" fill-rule="nonzero" fill-opacity="1" /><path clip-path="url(#clip300)" d="M137.797 706.743 L145.436 706.743 L145.436 680.377 L137.126 682.044 L137.126 677.785 L145.39 676.118 L150.066 676.118 L150.066 706.743 L157.705 706.743 L157.705 710.678 L137.797 710.678 L137.797 706.743 Z" fill="#000000" fill-rule="nonzero" fill-opacity="1" /><path clip-path="url(#clip300)" d="M167.195 676.118 L185.552 676.118 L185.552 680.053 L171.478 680.053 L171.478 688.525 Q172.496 688.178 173.515 688.016 Q174.533 687.831 175.552 687.831 Q181.339 687.831 184.718 691.002 Q188.098 694.173 188.098 699.59 Q188.098 705.169 184.626 708.271 Q181.153 711.349 174.834 711.349 Q172.658 711.349 170.39 710.979 Q168.144 710.609 165.737 709.868 L165.737 705.169 Q167.82 706.303 170.042 706.859 Q172.265 707.414 174.741 707.414 Q178.746 707.414 181.084 705.308 Q183.422 703.201 183.422 699.59 Q183.422 695.979 181.084 693.873 Q178.746 691.766 174.741 691.766 Q172.866 691.766 170.991 692.183 Q169.14 692.599 167.195 693.479 L167.195 676.118 Z" fill="#000000" fill-rule="nonzero" fill-opacity="1" /><path clip-path="url(#clip300)" d="M50.9921 349.024 L80.6679 349.024 L80.6679 352.959 L50.9921 352.959 L50.9921 349.024 Z" fill="#000000" fill-rule="nonzero" fill-opacity="1" /><path clip-path="url(#clip300)" d="M100.76 334.371 Q97.1493 334.371 95.3206 337.936 Q93.515 341.478 93.515 348.607 Q93.515 355.714 95.3206 359.279 Q97.1493 362.82 100.76 362.82 Q104.395 362.82 106.2 359.279 Q108.029 355.714 108.029 348.607 Q108.029 341.478 106.2 337.936 Q104.395 334.371 100.76 334.371 M100.76 330.668 Q106.571 330.668 109.626 335.274 Q112.705 339.857 112.705 348.607 Q112.705 357.334 109.626 361.941 Q106.571 366.524 100.76 366.524 Q94.9502 366.524 91.8715 361.941 Q88.816 357.334 88.816 348.607 Q88.816 339.857 91.8715 335.274 Q94.9502 330.668 100.76 330.668 Z" fill="#000000" fill-rule="nonzero" fill-opacity="1" /><path clip-path="url(#clip300)" d="M120.922 359.973 L125.807 359.973 L125.807 365.853 L120.922 365.853 L120.922 359.973 Z" fill="#000000" fill-rule="nonzero" fill-opacity="1" /><path clip-path="url(#clip300)" d="M136.802 361.918 L144.441 361.918 L144.441 335.552 L136.131 337.219 L136.131 332.959 L144.394 331.293 L149.07 331.293 L149.07 361.918 L156.709 361.918 L156.709 365.853 L136.802 365.853 L136.802 361.918 Z" fill="#000000" fill-rule="nonzero" fill-opacity="1" /><path clip-path="url(#clip300)" d="M176.153 334.371 Q172.542 334.371 170.714 337.936 Q168.908 341.478 168.908 348.607 Q168.908 355.714 170.714 359.279 Q172.542 362.82 176.153 362.82 Q179.788 362.82 181.593 359.279 Q183.422 355.714 183.422 348.607 Q183.422 341.478 181.593 337.936 Q179.788 334.371 176.153 334.371 M176.153 330.668 Q181.964 330.668 185.019 335.274 Q188.098 339.857 188.098 348.607 Q188.098 357.334 185.019 361.941 Q181.964 366.524 176.153 366.524 Q170.343 366.524 167.265 361.941 Q164.209 357.334 164.209 348.607 Q164.209 339.857 167.265 335.274 Q170.343 330.668 176.153 330.668 Z" fill="#000000" fill-rule="nonzero" fill-opacity="1" /><polyline clip-path="url(#clip302)" style="stroke:#009af9; stroke-linecap:round; stroke-linejoin:round; stroke-width:4; stroke-opacity:1; fill:none" points="224.098,1138.76 226.229,1141.21 228.359,1143.63 230.49,1146.03 232.621,1148.4 234.752,1150.75 236.883,1153.07 239.013,1155.38 241.144,1157.66 243.275,1159.91 245.406,1162.15 247.537,1164.36 249.667,1166.55 251.798,1168.72 253.929,1170.87 256.06,1172.99 258.19,1175.09 260.321,1177.18 262.452,1179.24 264.583,1181.28 266.714,1183.3 268.844,1185.31 270.975,1187.29 273.106,1189.25 275.237,1191.19 277.368,1193.11 279.498,1195.02 281.629,1196.9 283.76,1198.77 285.891,1200.62 288.022,1202.44 290.152,1204.26 292.283,1206.05 294.414,1207.82 296.545,1209.58 298.675,1211.32 300.806,1213.04 302.937,1214.75 305.068,1216.44 307.199,1218.11 309.329,1219.76 311.46,1221.4 313.591,1223.02 315.722,1224.63 317.853,1226.22 319.983,1227.79 322.114,1229.35 324.245,1230.89 326.376,1232.42 328.507,1233.93 330.637,1235.43 332.768,1236.91 334.899,1238.38 337.03,1239.83 339.16,1241.27 341.291,1242.7 343.422,1244.11 345.553,1245.5 347.684,1246.88 349.814,1248.25 351.945,1249.61 354.076,1250.95 356.207,1252.27 358.338,1253.59 360.468,1254.89 362.599,1256.18 364.73,1257.45 366.861,1258.72 368.992,1259.97 371.122,1261.21 373.253,1262.43 375.384,1263.64 377.515,1264.85 379.645,1266.03 381.776,1267.21 383.907,1268.38 386.038,1269.53 388.169,1270.67 390.299,1271.81 392.43,1272.93 394.561,1274.03 396.692,1275.13 398.823,1276.22 400.953,1277.3 403.084,1278.36 405.215,1279.42 407.346,1280.46 409.477,1281.49 411.607,1282.52 413.738,1283.53 415.869,1284.53 418,1285.53 420.13,1286.51 422.261,1287.48 424.392,1288.45 426.523,1289.4 428.654,1290.35 430.784,1291.28 432.915,1292.21 435.046,1293.12 437.177,1294.03 439.308,1294.93 441.438,1295.82 443.569,1296.7 445.7,1297.57 447.831,1298.44 449.961,1299.29 452.092,1300.14 454.223,1300.97 456.354,1301.8 458.485,1302.62 460.615,1303.44 462.746,1304.24 464.877,1305.04 467.008,1305.83 469.139,1306.61 471.269,1307.38 473.4,1308.15 475.531,1308.91 477.662,1309.66 479.793,1310.4 481.923,1311.14 484.054,1311.86 486.185,1312.58 488.316,1313.3 490.446,1314.01 492.577,1314.7 494.708,1315.4 496.839,1316.08 498.97,1316.76 501.1,1317.43 503.231,1318.1 505.362,1318.76 507.493,1319.41 509.624,1320.06 511.754,1320.7 513.885,1321.33 516.016,1321.96 518.147,1322.58 520.278,1323.19 522.408,1323.8 524.539,1324.4 526.67,1325 528.801,1325.59 530.931,1326.17 533.062,1326.75 535.193,1327.32 537.324,1327.89 539.455,1328.45 541.585,1329.01 543.716,1329.56 545.847,1330.1 547.978,1330.64 550.109,1331.17 552.239,1331.7 554.37,1332.23 556.501,1332.74 558.632,1333.26 560.763,1333.77 562.893,1334.27 565.024,1334.77 567.155,1335.26 569.286,1335.75 571.416,1336.23 573.547,1336.71 575.678,1337.18 577.809,1337.65 579.94,1338.12 582.07,1338.57 584.201,1339.03 586.332,1339.48 588.463,1339.93 590.594,1340.37 592.724,1340.8 594.855,1341.24 596.986,1341.67 599.117,1342.09 601.247,1342.51 603.378,1342.93 605.509,1343.34 607.64,1343.74 609.771,1344.15 611.901,1344.55 614.032,1344.94 616.163,1345.33 618.294,1345.72 620.425,1346.11 622.555,1346.49 624.686,1346.86 626.817,1347.23 628.948,1347.6 631.079,1347.97 633.209,1348.33 635.34,1348.69 637.471,1349.04 639.602,1349.39 641.732,1349.74 643.863,1350.08 645.994,1350.42 648.125,1350.76 650.256,1351.09 652.386,1351.42 654.517,1351.75 656.648,1352.07 658.779,1352.39 660.91,1352.71 663.04,1353.03 665.171,1353.34 667.302,1353.64 669.433,1353.95 671.564,1354.25 673.694,1354.55 675.825,1354.85 677.956,1355.14 680.087,1355.43 682.217,1355.72 684.348,1356 686.479,1356.28 688.61,1356.56 690.741,1356.84 692.871,1357.11 695.002,1357.38 697.133,1357.65 699.264,1357.91 701.395,1358.17 703.525,1358.43 705.656,1358.69 707.787,1358.95 709.918,1359.2 712.049,1359.45 714.179,1359.69 716.31,1359.94 718.441,1360.18 720.572,1360.42 722.702,1360.66 724.833,1360.89 726.964,1361.13 729.095,1361.36 731.226,1361.58 733.356,1361.81 735.487,1362.03 737.618,1362.25 739.749,1362.47 741.88,1362.69 744.01,1362.91 746.141,1363.12 748.272,1363.33 750.403,1363.54 752.534,1363.74 754.664,1363.95 756.795,1364.15 758.926,1364.35 761.057,1364.55 763.187,1364.74 765.318,1364.94 767.449,1365.13 769.58,1365.32 771.711,1365.51 773.841,1365.7 775.972,1365.88 778.103,1366.06 780.234,1366.24 782.365,1366.42 784.495,1366.6 786.626,1366.78 788.757,1366.95 790.888,1367.12 793.018,1367.29 795.149,1367.46 797.28,1367.63 799.411,1367.8 801.542,1367.96 803.672,1368.12 805.803,1368.28 807.934,1368.44 810.065,1368.6 812.196,1368.76 814.326,1368.91 816.457,1369.06 818.588,1369.21 820.719,1369.36 822.85,1369.51 824.98,1369.66 827.111,1369.8 829.242,1369.95 831.373,1370.09 833.503,1370.23 835.634,1370.37 837.765,1370.51 839.896,1370.65 842.027,1370.78 844.157,1370.92 846.288,1371.05 848.419,1371.18 850.55,1371.31 852.681,1371.44 854.811,1371.57 856.942,1371.69 859.073,1371.82 861.204,1371.94 863.335,1372.06 865.465,1372.19 867.596,1372.31 869.727,1372.43 871.858,1372.54 873.988,1372.66 876.119,1372.78 878.25,1372.89 880.381,1373 882.512,1373.11 884.642,1373.23 886.773,1373.33 888.904,1373.44 891.035,1373.55 893.166,1373.66 895.296,1373.76 897.427,1373.87 899.558,1373.97 901.689,1374.07 903.82,1374.17 905.95,1374.27 908.081,1374.37 910.212,1374.47 912.343,1374.57 914.473,1374.67 916.604,1374.76 918.735,1374.86 920.866,1374.95 922.997,1375.04 925.127,1375.13 927.258,1375.22 929.389,1375.31 931.52,1375.4 933.651,1375.49 935.781,1375.58 937.912,1375.67 940.043,1375.75 942.174,1375.84 944.304,1375.92 946.435,1376 948.566,1376.08 950.697,1376.17 952.828,1376.25 954.958,1376.33 957.089,1376.41 959.22,1376.48 961.351,1376.56 963.482,1376.64 965.612,1376.71 967.743,1376.79 969.874,1376.86 972.005,1376.94 974.136,1377.01 976.266,1377.08 978.397,1377.15 980.528,1377.22 982.659,1377.29 984.789,1377.36 986.92,1377.43 989.051,1377.5 991.182,1377.57 993.313,1377.63 995.443,1377.7 997.574,1377.76 999.705,1377.83 1001.84,1377.89 1003.97,1377.96 1006.1,1378.02 1008.23,1378.08 1010.36,1378.14 1012.49,1378.2 1014.62,1378.26 1016.75,1378.32 1018.88,1378.38 1021.01,1378.44 1023.14,1378.5 1025.27,1378.56 1027.41,1378.61 1029.54,1378.67 1031.67,1378.72 1033.8,1378.78 1035.93,1378.83 1038.06,1378.89 1040.19,1378.94 1042.32,1378.99 1044.45,1379.05 1046.58,1379.1 1048.71,1379.15 1050.84,1379.2 1052.97,1379.25 1055.11,1379.3 1057.24,1379.35 1059.37,1379.4 1061.5,1379.45 1063.63,1379.49 1065.76,1379.54 1067.89,1379.59 1070.02,1379.63 1072.15,1379.68 1074.28,1379.73 1076.41,1379.77 1078.54,1379.82 1080.67,1379.86 1082.81,1379.9 1084.94,1379.95 1087.07,1379.99 1089.2,1380.03 1091.33,1380.07 1093.46,1380.12 1095.59,1380.16 1097.72,1380.2 1099.85,1380.24 1101.98,1380.28 1104.11,1380.32 1106.24,1380.36 1108.38,1380.4 1110.51,1380.43 1112.64,1380.47 1114.77,1380.51 1116.9,1380.55 1119.03,1380.58 1121.16,1380.62 1123.29,1380.66 1125.42,1380.69 1127.55,1380.73 1129.68,1380.76 1131.81,1380.8 1133.94,1380.83 1136.08,1380.87 1138.21,1380.9 1140.34,1380.93 1142.47,1380.97 1144.6,1381 1146.73,1381.03 1148.86,1381.06 1150.99,1381.1 1153.12,1381.13 1155.25,1381.16 1157.38,1381.19 1159.51,1381.22 1161.64,1381.25 1163.78,1381.28 1165.91,1381.31 1168.04,1381.34 1170.17,1381.37 1172.3,1381.4 1174.43,1381.42 1176.56,1381.45 1178.69,1381.48 1180.82,1381.51 1182.95,1381.54 1185.08,1381.56 1187.21,1381.59 1189.35,1381.62 1191.48,1381.64 1193.61,1381.67 1195.74,1381.69 1197.87,1381.72 1200,1381.74 1202.13,1381.77 1204.26,1381.79 1206.39,1381.82 1208.52,1381.84 1210.65,1381.87 1212.78,1381.89 1214.91,1381.91 1217.05,1381.94 1219.18,1381.96 1221.31,1381.98 1223.44,1382.01 1225.57,1382.03 1227.7,1382.05 1229.83,1382.07 1231.96,1382.09 1234.09,1382.11 1236.22,1382.14 1238.35,1382.16 1240.48,1382.18 1242.61,1382.2 1244.75,1382.22 1246.88,1382.24 1249.01,1382.26 1251.14,1382.28 1253.27,1382.3 1255.4,1382.32 1257.53,1382.34 1259.66,1382.36 1261.79,1382.37 1263.92,1382.39 1266.05,1382.41 1268.18,1382.43 1270.32,1382.45 1272.45,1382.47 1274.58,1382.48 1276.71,1382.5 1278.84,1382.52 1280.97,1382.54 1283.1,1382.55 1285.23,1382.57 1287.36,1382.59 1289.49,1382.6 1291.62,1382.62 1293.75,1382.64 1295.88,1382.65 1298.02,1382.67 1300.15,1382.68 1302.28,1382.7 1304.41,1382.71 1306.54,1382.73 1308.67,1382.75 1310.8,1382.76 1312.93,1382.78 1315.06,1382.79 1317.19,1382.8 1319.32,1382.82 1321.45,1382.83 1323.58,1382.85 1325.72,1382.86 1327.85,1382.88 1329.98,1382.89 1332.11,1382.9 1334.24,1382.92 1336.37,1382.93 1338.5,1382.94 1340.63,1382.96 1342.76,1382.97 1344.89,1382.98 1347.02,1382.99 1349.15,1383.01 1351.29,1383.02 1353.42,1383.03 1355.55,1383.04 1357.68,1383.06 1359.81,1383.07 1361.94,1383.08 1364.07,1383.09 1366.2,1383.1 1368.33,1383.11 1370.46,1383.13 1372.59,1383.14 1374.72,1383.15 1376.85,1383.16 1378.99,1383.17 1381.12,1383.18 1383.25,1383.19 1385.38,1383.2 1387.51,1383.21 1389.64,1383.22 1391.77,1383.23 1393.9,1383.24 1396.03,1383.25 1398.16,1383.26 1400.29,1383.27 1402.42,1383.28 1404.55,1383.29 1406.69,1383.3 1408.82,1383.31 1410.95,1383.32 1413.08,1383.33 1415.21,1383.34 1417.34,1383.35 1419.47,1383.36 1421.6,1383.37 1423.73,1383.37 1425.86,1383.38 1427.99,1383.39 1430.12,1383.4 1432.26,1383.41 1434.39,1383.42 1436.52,1383.43 1438.65,1383.43 1440.78,1383.44 1442.91,1383.45 1445.04,1383.46 1447.17,1383.47 1449.3,1383.47 1451.43,1383.48 1453.56,1383.49 1455.69,1383.5 1457.82,1383.5 1459.96,1383.51 1462.09,1383.52 1464.22,1383.53 1466.35,1383.53 1468.48,1383.54 1470.61,1383.55 1472.74,1383.55 1474.87,1383.56 1477,1383.57 1479.13,1383.57 1481.26,1383.58 1483.39,1383.59 1485.52,1383.59 1487.66,1383.6 1489.79,1383.61 1491.92,1383.61 1494.05,1383.62 1496.18,1383.63 1498.31,1383.63 1500.44,1383.64 1502.57,1383.64 1504.7,1383.65 1506.83,1383.66 1508.96,1383.66 1511.09,1383.67 1513.23,1383.67 1515.36,1383.68 1517.49,1383.68 1519.62,1383.69 1521.75,1383.7 1523.88,1383.7 1526.01,1383.71 1528.14,1383.71 1530.27,1383.72 1532.4,1383.72 1534.53,1383.73 1536.66,1383.73 1538.79,1383.74 1540.93,1383.74 1543.06,1383.75 1545.19,1383.75 1547.32,1383.76 1549.45,1383.76 1551.58,1383.77 1553.71,1383.77 1555.84,1383.78 1557.97,1383.78 1560.1,1383.79 1562.23,1383.79 1564.36,1383.8 1566.49,1383.8 1568.63,1383.81 1570.76,1383.81 1572.89,1383.81 1575.02,1383.82 1577.15,1383.82 1579.28,1383.83 1581.41,1383.83 1583.54,1383.84 1585.67,1383.84 1587.8,1383.84 1589.93,1383.85 1592.06,1383.85 1594.2,1383.86 1596.33,1383.86 1598.46,1383.86 1600.59,1383.87 1602.72,1383.87 1604.85,1383.88 1606.98,1383.88 1609.11,1383.88 1611.24,1383.89 1613.37,1383.89 1615.5,1383.89 1617.63,1383.9 1619.76,1383.9 1621.9,1383.9 1624.03,1383.91 1626.16,1383.91 1628.29,1383.92 1630.42,1383.92 1632.55,1383.92 1634.68,1383.93 1636.81,1383.93 1638.94,1383.93 1641.07,1383.93 1643.2,1383.94 1645.33,1383.94 1647.46,1383.94 1649.6,1383.95 1651.73,1383.95 1653.86,1383.95 1655.99,1383.96 1658.12,1383.96 1660.25,1383.96 1662.38,1383.96 1664.51,1383.97 1666.64,1383.97 1668.77,1383.97 1670.9,1383.98 1673.03,1383.98 1675.17,1383.98 1677.3,1383.98 1679.43,1383.99 1681.56,1383.99 1683.69,1383.99 1685.82,1383.99 1687.95,1384 1690.08,1384 1692.21,1384 1694.34,1384 1696.47,1384.01 1698.6,1384.01 1700.73,1384.01 1702.87,1384.01 1705,1384.02 1707.13,1384.02 1709.26,1384.02 1711.39,1384.02 1713.52,1384.03 1715.65,1384.03 1717.78,1384.03 1719.91,1384.03 1722.04,1384.03 1724.17,1384.04 1726.3,1384.04 1728.43,1384.04 1730.57,1384.04 1732.7,1384.04 1734.83,1384.05 1736.96,1384.05 1739.09,1384.05 1741.22,1384.05 1743.35,1384.05 1745.48,1384.06 1747.61,1384.06 1749.74,1384.06 1751.87,1384.06 1754,1384.06 1756.14,1384.07 1758.27,1384.07 1760.4,1384.07 1762.53,1384.07 1764.66,1384.07 1766.79,1384.07 1768.92,1384.08 1771.05,1384.08 1773.18,1384.08 1775.31,1384.08 1777.44,1384.08 1779.57,1384.08 1781.7,1384.09 1783.84,1384.09 1785.97,1384.09 1788.1,1384.09 1790.23,1384.09 1792.36,1384.09 1794.49,1384.1 1796.62,1384.1 1798.75,1384.1 1800.88,1384.1 1803.01,1384.1 1805.14,1384.1 1807.27,1384.1 1809.4,1384.11 1811.54,1384.11 1813.67,1384.11 1815.8,1384.11 1817.93,1384.11 1820.06,1384.11 1822.19,1384.11 1824.32,1384.12 1826.45,1384.12 1828.58,1384.12 1830.71,1384.12 1832.84,1384.12 1834.97,1384.12 1837.11,1384.12 1839.24,1384.13 1841.37,1384.13 1843.5,1384.13 1845.63,1384.13 1847.76,1384.13 1849.89,1384.13 1852.02,1384.13 1854.15,1384.13 1856.28,1384.13 1858.41,1384.14 1860.54,1384.14 1862.67,1384.14 1864.81,1384.14 1866.94,1384.14 1869.07,1384.14 1871.2,1384.14 1873.33,1384.14 1875.46,1384.14 1877.59,1384.15 1879.72,1384.15 1881.85,1384.15 1883.98,1384.15 1886.11,1384.15 1888.24,1384.15 1890.37,1384.15 1892.51,1384.15 1894.64,1384.15 1896.77,1384.16 1898.9,1384.16 1901.03,1384.16 1903.16,1384.16 1905.29,1384.16 1907.42,1384.16 1909.55,1384.16 1911.68,1384.16 1913.81,1384.16 1915.94,1384.16 1918.07,1384.16 1920.21,1384.17 1922.34,1384.17 1924.47,1384.17 1926.6,1384.17 1928.73,1384.17 1930.86,1384.17 1932.99,1384.17 1935.12,1384.17 1937.25,1384.17 1939.38,1384.17 1941.51,1384.17 1943.64,1384.17 1945.78,1384.17 1947.91,1384.18 1950.04,1384.18 1952.17,1384.18 1954.3,1384.18 1956.43,1384.18 1958.56,1384.18 1960.69,1384.18 1962.82,1384.18 1964.95,1384.18 1967.08,1384.18 1969.21,1384.18 1971.34,1384.18 1973.48,1384.18 1975.61,1384.18 1977.74,1384.19 1979.87,1384.19 1982,1384.19 1984.13,1384.19 1986.26,1384.19 1988.39,1384.19 1990.52,1384.19 1992.65,1384.19 1994.78,1384.19 1996.91,1384.19 1999.04,1384.19 2001.18,1384.19 2003.31,1384.19 2005.44,1384.19 2007.57,1384.19 2009.7,1384.19 2011.83,1384.19 2013.96,1384.19 2016.09,1384.2 2018.22,1384.2 2020.35,1384.2 2022.48,1384.2 2024.61,1384.2 2026.75,1384.2 2028.88,1384.2 2031.01,1384.2 2033.14,1384.2 2035.27,1384.2 2037.4,1384.2 2039.53,1384.2 2041.66,1384.2 2043.79,1384.2 2045.92,1384.2 2048.05,1384.2 2050.18,1384.2 2052.31,1384.2 2054.45,1384.2 2056.58,1384.2 2058.71,1384.2 2060.84,1384.21 2062.97,1384.21 2065.1,1384.21 2067.23,1384.21 2069.36,1384.21 2071.49,1384.21 2073.62,1384.21 2075.75,1384.21 2077.88,1384.21 2080.01,1384.21 2082.15,1384.21 2084.28,1384.21 2086.41,1384.21 2088.54,1384.21 2090.67,1384.21 2092.8,1384.21 2094.93,1384.21 2097.06,1384.21 2099.19,1384.21 2101.32,1384.21 2103.45,1384.21 2105.58,1384.21 2107.72,1384.21 2109.85,1384.21 2111.98,1384.21 2114.11,1384.21 2116.24,1384.22 2118.37,1384.22 2120.5,1384.22 2122.63,1384.22 2124.76,1384.22 2126.89,1384.22 2129.02,1384.22 2131.15,1384.22 2133.28,1384.22 2135.42,1384.22 2137.55,1384.22 2139.68,1384.22 2141.81,1384.22 2143.94,1384.22 2146.07,1384.22 2148.2,1384.22 2150.33,1384.22 2152.46,1384.22 2154.59,1384.22 2156.72,1384.22 2158.85,1384.22 2160.98,1384.22 2163.12,1384.22 2165.25,1384.22 2167.38,1384.22 2169.51,1384.22 2171.64,1384.22 2173.77,1384.22 2175.9,1384.22 2178.03,1384.22 2180.16,1384.22 2182.29,1384.22 2184.42,1384.22 2186.55,1384.22 2188.69,1384.23 2190.82,1384.23 2192.95,1384.23 2195.08,1384.23 2197.21,1384.23 2199.34,1384.23 2201.47,1384.23 2203.6,1384.23 2205.73,1384.23 2207.86,1384.23 2209.99,1384.23 2212.12,1384.23 2214.25,1384.23 2216.39,1384.23 2218.52,1384.23 2220.65,1384.23 2222.78,1384.23 2224.91,1384.23 2227.04,1384.23 2229.17,1384.23 2231.3,1384.23 2233.43,1384.23 2235.56,1384.23 2237.69,1384.23 2239.82,1384.23 2241.95,1384.23 2244.09,1384.23 2246.22,1384.23 2248.35,1384.23 2250.48,1384.23 2252.61,1384.23 2254.74,1384.23 2256.87,1384.23 2259,1384.23 2261.13,1384.23 2263.26,1384.23 2265.39,1384.23 2267.52,1384.23 2269.66,1384.23 2271.79,1384.23 2273.92,1384.23 2276.05,1384.23 2278.18,1384.23 2280.31,1384.23 2282.44,1384.23 2284.57,1384.23 2286.7,1384.23 2288.83,1384.23 2290.96,1384.23 2293.09,1384.23 2295.22,1384.23 2297.36,1384.23 2299.49,1384.24 2301.62,1384.24 2303.75,1384.24 2305.88,1384.24 2308.01,1384.24 2310.14,1384.24 2312.27,1384.24 2314.4,1384.24 2316.53,1384.24 2318.66,1384.24 2320.79,1384.24 2322.92,1384.24 2325.06,1384.24 2327.19,1384.24 2329.32,1384.24 2331.45,1384.24 2333.58,1384.24 2335.71,1384.24 2337.84,1384.24 2339.97,1384.24 2342.1,1384.24 2344.23,1384.24 2346.36,1384.24 2348.49,1384.24 2350.63,1384.24 2352.76,1384.24 "/>
<polyline clip-path="url(#clip302)" style="stroke:#e26f46; stroke-linecap:round; stroke-linejoin:round; stroke-width:4; stroke-opacity:1; fill:none" points="224.098,420.696 226.229,410.033 228.359,399.599 230.49,389.388 232.621,379.399 234.752,369.629 236.883,360.075 239.013,350.733 241.144,341.602 243.275,332.678 245.406,323.958 247.537,315.44 249.667,307.121 251.798,298.999 253.929,291.07 256.06,283.333 258.19,275.784 260.321,268.422 262.452,261.242 264.583,254.244 266.714,247.424 268.844,240.781 270.975,234.311 273.106,228.013 275.237,221.883 277.368,215.921 279.498,210.122 281.629,204.486 283.76,199.01 285.891,193.692 288.022,188.529 290.152,183.519 292.283,178.661 294.414,173.951 296.545,169.389 298.675,164.972 300.806,160.698 302.937,156.564 305.068,152.57 307.199,148.712 309.329,144.989 311.46,141.4 313.591,137.941 315.722,134.612 317.853,131.41 319.983,128.334 322.114,125.382 324.245,122.551 326.376,119.841 328.507,117.249 330.637,114.774 332.768,112.414 334.899,110.167 337.03,108.032 339.16,106.007 341.291,104.09 343.422,102.28 345.553,100.576 347.684,98.9747 349.814,97.4759 351.945,96.0778 354.076,94.7787 356.207,93.5772 358.338,92.4718 360.468,91.461 362.599,90.5434 364.73,89.7175 366.861,88.982 368.992,88.3354 371.122,87.7763 373.253,87.3035 375.384,86.9155 377.515,86.611 379.645,86.3887 381.776,86.2474 383.907,86.1857 386.038,86.2023 388.169,86.2962 390.299,86.4658 392.43,86.7101 394.561,87.0278 396.692,87.4178 398.823,87.8789 400.953,88.4099 403.084,89.0098 405.215,89.6774 407.346,90.4117 409.477,91.2115 411.607,92.0757 413.738,93.0033 415.869,93.9932 418,95.0444 420.13,96.1559 422.261,97.3265 424.392,98.5554 426.523,99.8414 428.654,101.184 430.784,102.581 432.915,104.033 435.046,105.538 437.177,107.095 439.308,108.704 441.438,110.364 443.569,112.073 445.7,113.83 447.831,115.636 449.961,117.488 452.092,119.387 454.223,121.331 456.354,123.319 458.485,125.351 460.615,127.426 462.746,129.542 464.877,131.7 467.008,133.898 469.139,136.136 471.269,138.412 473.4,140.727 475.531,143.079 477.662,145.467 479.793,147.891 481.923,150.351 484.054,152.845 486.185,155.373 488.316,157.934 490.446,160.528 492.577,163.153 494.708,165.809 496.839,168.496 498.97,171.213 501.1,173.959 503.231,176.734 505.362,179.537 507.493,182.367 509.624,185.223 511.754,188.106 513.885,191.015 516.016,193.949 518.147,196.907 520.278,199.888 522.408,202.894 524.539,205.921 526.67,208.971 528.801,212.043 530.931,215.136 533.062,218.249 535.193,221.383 537.324,224.536 539.455,227.708 541.585,230.898 543.716,234.107 545.847,237.333 547.978,240.577 550.109,243.837 552.239,247.113 554.37,250.405 556.501,253.712 558.632,257.034 560.763,260.371 562.893,263.721 565.024,267.085 567.155,270.462 569.286,273.852 571.416,277.254 573.547,280.668 575.678,284.093 577.809,287.53 579.94,290.978 582.07,294.435 584.201,297.904 586.332,301.381 588.463,304.868 590.594,308.365 592.724,311.869 594.855,315.382 596.986,318.904 599.117,322.432 601.247,325.968 603.378,329.511 605.509,333.061 607.64,336.617 609.771,340.179 611.901,343.747 614.032,347.32 616.163,350.898 618.294,354.481 620.425,358.069 622.555,361.661 624.686,365.257 626.817,368.856 628.948,372.459 631.079,376.065 633.209,379.673 635.34,383.285 637.471,386.898 639.602,390.514 641.732,394.132 643.863,397.751 645.994,401.371 648.125,404.992 650.256,408.615 652.386,412.238 654.517,415.861 656.648,419.484 658.779,423.107 660.91,426.731 663.04,430.353 665.171,433.975 667.302,437.595 669.433,441.215 671.564,444.833 673.694,448.45 675.825,452.065 677.956,455.678 680.087,459.289 682.217,462.897 684.348,466.504 686.479,470.108 688.61,473.709 690.741,477.307 692.871,480.902 695.002,484.494 697.133,488.083 699.264,491.668 701.395,495.249 703.525,498.827 705.656,502.4 707.787,505.97 709.918,509.535 712.049,513.096 714.179,516.652 716.31,520.203 718.441,523.75 720.572,527.292 722.702,530.828 724.833,534.36 726.964,537.886 729.095,541.406 731.226,544.921 733.356,548.43 735.487,551.934 737.618,555.431 739.749,558.922 741.88,562.407 744.01,565.886 746.141,569.358 748.272,572.824 750.403,576.283 752.534,579.735 754.664,583.18 756.795,586.619 758.926,590.05 761.057,593.474 763.187,596.891 765.318,600.3 767.449,603.702 769.58,607.097 771.711,610.484 773.841,613.863 775.972,617.235 778.103,620.598 780.234,623.954 782.365,627.301 784.495,630.641 786.626,633.972 788.757,637.295 790.888,640.61 793.018,643.916 795.149,647.213 797.28,650.503 799.411,653.783 801.542,657.055 803.672,660.319 805.803,663.573 807.934,666.819 810.065,670.056 812.196,673.285 814.326,676.504 816.457,679.715 818.588,682.916 820.719,686.109 822.85,689.292 824.98,692.466 827.111,695.631 829.242,698.787 831.373,701.934 833.503,705.072 835.634,708.2 837.765,711.319 839.896,714.428 842.027,717.528 844.157,720.619 846.288,723.7 848.419,726.772 850.55,729.834 852.681,732.886 854.811,735.929 856.942,738.963 859.073,741.986 861.204,745 863.335,748.005 865.465,750.999 867.596,753.984 869.727,756.959 871.858,759.924 873.988,762.88 876.119,765.825 878.25,768.761 880.381,771.686 882.512,774.602 884.642,777.508 886.773,780.404 888.904,783.29 891.035,786.165 893.166,789.031 895.296,791.887 897.427,794.733 899.558,797.569 901.689,800.394 903.82,803.21 905.95,806.015 908.081,808.81 910.212,811.596 912.343,814.371 914.473,817.135 916.604,819.89 918.735,822.635 920.866,825.369 922.997,828.093 925.127,830.808 927.258,833.511 929.389,836.205 931.52,838.889 933.651,841.562 935.781,844.225 937.912,846.878 940.043,849.52 942.174,852.153 944.304,854.775 946.435,857.388 948.566,859.99 950.697,862.582 952.828,865.164 954.958,867.736 957.089,870.297 959.22,872.849 961.351,875.391 963.482,877.922 965.612,880.444 967.743,882.956 969.874,885.457 972.005,887.949 974.136,890.431 976.266,892.902 978.397,895.364 980.528,897.816 982.659,900.258 984.789,902.69 986.92,905.112 989.051,907.524 991.182,909.927 993.313,912.319 995.443,914.702 997.574,917.075 999.705,919.438 1001.84,921.791 1003.97,924.135 1006.1,926.469 1008.23,928.793 1010.36,931.107 1012.49,933.412 1014.62,935.707 1016.75,937.993 1018.88,940.268 1021.01,942.534 1023.14,944.791 1025.27,947.038 1027.41,949.275 1029.54,951.503 1031.67,953.721 1033.8,955.93 1035.93,958.129 1038.06,960.319 1040.19,962.499 1042.32,964.669 1044.45,966.831 1046.58,968.983 1048.71,971.125 1050.84,973.258 1052.97,975.382 1055.11,977.496 1057.24,979.601 1059.37,981.697 1061.5,983.783 1063.63,985.86 1065.76,987.928 1067.89,989.987 1070.02,992.036 1072.15,994.077 1074.28,996.108 1076.41,998.13 1078.54,1000.14 1080.67,1002.15 1082.81,1004.14 1084.94,1006.13 1087.07,1008.1 1089.2,1010.07 1091.33,1012.03 1093.46,1013.98 1095.59,1015.92 1097.72,1017.85 1099.85,1019.77 1101.98,1021.69 1104.11,1023.59 1106.24,1025.49 1108.38,1027.37 1110.51,1029.25 1112.64,1031.12 1114.77,1032.98 1116.9,1034.84 1119.03,1036.68 1121.16,1038.52 1123.29,1040.34 1125.42,1042.16 1127.55,1043.97 1129.68,1045.77 1131.81,1047.56 1133.94,1049.35 1136.08,1051.13 1138.21,1052.89 1140.34,1054.65 1142.47,1056.4 1144.6,1058.15 1146.73,1059.88 1148.86,1061.61 1150.99,1063.32 1153.12,1065.03 1155.25,1066.74 1157.38,1068.43 1159.51,1070.12 1161.64,1071.79 1163.78,1073.46 1165.91,1075.13 1168.04,1076.78 1170.17,1078.43 1172.3,1080.06 1174.43,1081.69 1176.56,1083.32 1178.69,1084.93 1180.82,1086.54 1182.95,1088.14 1185.08,1089.73 1187.21,1091.31 1189.35,1092.89 1191.48,1094.46 1193.61,1096.02 1195.74,1097.57 1197.87,1099.12 1200,1100.65 1202.13,1102.18 1204.26,1103.71 1206.39,1105.22 1208.52,1106.73 1210.65,1108.23 1212.78,1109.73 1214.91,1111.21 1217.05,1112.69 1219.18,1114.16 1221.31,1115.63 1223.44,1117.08 1225.57,1118.53 1227.7,1119.98 1229.83,1121.41 1231.96,1122.84 1234.09,1124.26 1236.22,1125.68 1238.35,1127.09 1240.48,1128.49 1242.61,1129.88 1244.75,1131.27 1246.88,1132.65 1249.01,1134.02 1251.14,1135.38 1253.27,1136.74 1255.4,1138.09 1257.53,1139.44 1259.66,1140.78 1261.79,1142.11 1263.92,1143.44 1266.05,1144.75 1268.18,1146.06 1270.32,1147.37 1272.45,1148.67 1274.58,1149.96 1276.71,1151.24 1278.84,1152.52 1280.97,1153.8 1283.1,1155.06 1285.23,1156.32 1287.36,1157.57 1289.49,1158.82 1291.62,1160.06 1293.75,1161.29 1295.88,1162.52 1298.02,1163.74 1300.15,1164.95 1302.28,1166.16 1304.41,1167.36 1306.54,1168.56 1308.67,1169.75 1310.8,1170.93 1312.93,1172.11 1315.06,1173.28 1317.19,1174.45 1319.32,1175.61 1321.45,1176.76 1323.58,1177.91 1325.72,1179.05 1327.85,1180.18 1329.98,1181.31 1332.11,1182.44 1334.24,1183.55 1336.37,1184.67 1338.5,1185.77 1340.63,1186.87 1342.76,1187.97 1344.89,1189.06 1347.02,1190.14 1349.15,1191.22 1351.29,1192.29 1353.42,1193.36 1355.55,1194.42 1357.68,1195.47 1359.81,1196.52 1361.94,1197.57 1364.07,1198.61 1366.2,1199.64 1368.33,1200.67 1370.46,1201.69 1372.59,1202.71 1374.72,1203.72 1376.85,1204.73 1378.99,1205.73 1381.12,1206.73 1383.25,1207.72 1385.38,1208.7 1387.51,1209.68 1389.64,1210.66 1391.77,1211.63 1393.9,1212.6 1396.03,1213.56 1398.16,1214.51 1400.29,1215.46 1402.42,1216.41 1404.55,1217.35 1406.69,1218.28 1408.82,1219.21 1410.95,1220.14 1413.08,1221.06 1415.21,1221.97 1417.34,1222.89 1419.47,1223.79 1421.6,1224.69 1423.73,1225.59 1425.86,1226.48 1427.99,1227.37 1430.12,1228.25 1432.26,1229.13 1434.39,1230 1436.52,1230.87 1438.65,1231.73 1440.78,1232.59 1442.91,1233.45 1445.04,1234.29 1447.17,1235.14 1449.3,1235.98 1451.43,1236.82 1453.56,1237.65 1455.69,1238.48 1457.82,1239.3 1459.96,1240.12 1462.09,1240.93 1464.22,1241.74 1466.35,1242.55 1468.48,1243.35 1470.61,1244.14 1472.74,1244.94 1474.87,1245.72 1477,1246.51 1479.13,1247.29 1481.26,1248.06 1483.39,1248.83 1485.52,1249.6 1487.66,1250.36 1489.79,1251.12 1491.92,1251.88 1494.05,1252.63 1496.18,1253.37 1498.31,1254.12 1500.44,1254.86 1502.57,1255.59 1504.7,1256.32 1506.83,1257.05 1508.96,1257.77 1511.09,1258.49 1513.23,1259.2 1515.36,1259.91 1517.49,1260.62 1519.62,1261.32 1521.75,1262.02 1523.88,1262.71 1526.01,1263.4 1528.14,1264.09 1530.27,1264.77 1532.4,1265.45 1534.53,1266.13 1536.66,1266.8 1538.79,1267.47 1540.93,1268.14 1543.06,1268.8 1545.19,1269.46 1547.32,1270.11 1549.45,1270.76 1551.58,1271.41 1553.71,1272.05 1555.84,1272.69 1557.97,1273.33 1560.1,1273.96 1562.23,1274.59 1564.36,1275.21 1566.49,1275.84 1568.63,1276.46 1570.76,1277.07 1572.89,1277.68 1575.02,1278.29 1577.15,1278.9 1579.28,1279.5 1581.41,1280.1 1583.54,1280.69 1585.67,1281.29 1587.8,1281.87 1589.93,1282.46 1592.06,1283.04 1594.2,1283.62 1596.33,1284.2 1598.46,1284.77 1600.59,1285.34 1602.72,1285.91 1604.85,1286.47 1606.98,1287.03 1609.11,1287.59 1611.24,1288.14 1613.37,1288.69 1615.5,1289.24 1617.63,1289.79 1619.76,1290.33 1621.9,1290.87 1624.03,1291.4 1626.16,1291.94 1628.29,1292.47 1630.42,1292.99 1632.55,1293.52 1634.68,1294.04 1636.81,1294.56 1638.94,1295.07 1641.07,1295.58 1643.2,1296.09 1645.33,1296.6 1647.46,1297.11 1649.6,1297.61 1651.73,1298.11 1653.86,1298.6 1655.99,1299.09 1658.12,1299.58 1660.25,1300.07 1662.38,1300.56 1664.51,1301.04 1666.64,1301.52 1668.77,1301.99 1670.9,1302.47 1673.03,1302.94 1675.17,1303.41 1677.3,1303.88 1679.43,1304.34 1681.56,1304.8 1683.69,1305.26 1685.82,1305.71 1687.95,1306.17 1690.08,1306.62 1692.21,1307.07 1694.34,1307.51 1696.47,1307.96 1698.6,1308.4 1700.73,1308.83 1702.87,1309.27 1705,1309.7 1707.13,1310.13 1709.26,1310.56 1711.39,1310.99 1713.52,1311.41 1715.65,1311.83 1717.78,1312.25 1719.91,1312.67 1722.04,1313.08 1724.17,1313.5 1726.3,1313.91 1728.43,1314.31 1730.57,1314.72 1732.7,1315.12 1734.83,1315.52 1736.96,1315.92 1739.09,1316.32 1741.22,1316.71 1743.35,1317.1 1745.48,1317.49 1747.61,1317.88 1749.74,1318.26 1751.87,1318.64 1754,1319.03 1756.14,1319.4 1758.27,1319.78 1760.4,1320.15 1762.53,1320.53 1764.66,1320.9 1766.79,1321.26 1768.92,1321.63 1771.05,1321.99 1773.18,1322.35 1775.31,1322.71 1777.44,1323.07 1779.57,1323.43 1781.7,1323.78 1783.84,1324.13 1785.97,1324.48 1788.1,1324.83 1790.23,1325.17 1792.36,1325.51 1794.49,1325.86 1796.62,1326.2 1798.75,1326.53 1800.88,1326.87 1803.01,1327.2 1805.14,1327.53 1807.27,1327.86 1809.4,1328.19 1811.54,1328.52 1813.67,1328.84 1815.8,1329.16 1817.93,1329.48 1820.06,1329.8 1822.19,1330.12 1824.32,1330.44 1826.45,1330.75 1828.58,1331.06 1830.71,1331.37 1832.84,1331.68 1834.97,1331.98 1837.11,1332.29 1839.24,1332.59 1841.37,1332.89 1843.5,1333.19 1845.63,1333.49 1847.76,1333.79 1849.89,1334.08 1852.02,1334.37 1854.15,1334.66 1856.28,1334.95 1858.41,1335.24 1860.54,1335.53 1862.67,1335.81 1864.81,1336.09 1866.94,1336.37 1869.07,1336.65 1871.2,1336.93 1873.33,1337.21 1875.46,1337.48 1877.59,1337.75 1879.72,1338.03 1881.85,1338.3 1883.98,1338.56 1886.11,1338.83 1888.24,1339.1 1890.37,1339.36 1892.51,1339.62 1894.64,1339.88 1896.77,1340.14 1898.9,1340.4 1901.03,1340.66 1903.16,1340.91 1905.29,1341.16 1907.42,1341.42 1909.55,1341.67 1911.68,1341.92 1913.81,1342.16 1915.94,1342.41 1918.07,1342.65 1920.21,1342.9 1922.34,1343.14 1924.47,1343.38 1926.6,1343.62 1928.73,1343.86 1930.86,1344.09 1932.99,1344.33 1935.12,1344.56 1937.25,1344.79 1939.38,1345.02 1941.51,1345.25 1943.64,1345.48 1945.78,1345.71 1947.91,1345.94 1950.04,1346.16 1952.17,1346.38 1954.3,1346.6 1956.43,1346.83 1958.56,1347.04 1960.69,1347.26 1962.82,1347.48 1964.95,1347.69 1967.08,1347.91 1969.21,1348.12 1971.34,1348.33 1973.48,1348.54 1975.61,1348.75 1977.74,1348.96 1979.87,1349.17 1982,1349.37 1984.13,1349.58 1986.26,1349.78 1988.39,1349.98 1990.52,1350.19 1992.65,1350.39 1994.78,1350.58 1996.91,1350.78 1999.04,1350.98 2001.18,1351.17 2003.31,1351.37 2005.44,1351.56 2007.57,1351.75 2009.7,1351.94 2011.83,1352.13 2013.96,1352.32 2016.09,1352.51 2018.22,1352.7 2020.35,1352.88 2022.48,1353.07 2024.61,1353.25 2026.75,1353.43 2028.88,1353.61 2031.01,1353.79 2033.14,1353.97 2035.27,1354.15 2037.4,1354.33 2039.53,1354.5 2041.66,1354.68 2043.79,1354.85 2045.92,1355.02 2048.05,1355.2 2050.18,1355.37 2052.31,1355.54 2054.45,1355.71 2056.58,1355.87 2058.71,1356.04 2060.84,1356.21 2062.97,1356.37 2065.1,1356.54 2067.23,1356.7 2069.36,1356.86 2071.49,1357.02 2073.62,1357.18 2075.75,1357.34 2077.88,1357.5 2080.01,1357.66 2082.15,1357.81 2084.28,1357.97 2086.41,1358.12 2088.54,1358.28 2090.67,1358.43 2092.8,1358.58 2094.93,1358.73 2097.06,1358.88 2099.19,1359.03 2101.32,1359.18 2103.45,1359.33 2105.58,1359.48 2107.72,1359.62 2109.85,1359.77 2111.98,1359.91 2114.11,1360.06 2116.24,1360.2 2118.37,1360.34 2120.5,1360.48 2122.63,1360.62 2124.76,1360.76 2126.89,1360.9 2129.02,1361.04 2131.15,1361.17 2133.28,1361.31 2135.42,1361.44 2137.55,1361.58 2139.68,1361.71 2141.81,1361.85 2143.94,1361.98 2146.07,1362.11 2148.2,1362.24 2150.33,1362.37 2152.46,1362.5 2154.59,1362.63 2156.72,1362.75 2158.85,1362.88 2160.98,1363.01 2163.12,1363.13 2165.25,1363.26 2167.38,1363.38 2169.51,1363.5 2171.64,1363.63 2173.77,1363.75 2175.9,1363.87 2178.03,1363.99 2180.16,1364.11 2182.29,1364.23 2184.42,1364.35 2186.55,1364.46 2188.69,1364.58 2190.82,1364.7 2192.95,1364.81 2195.08,1364.93 2197.21,1365.04 2199.34,1365.15 2201.47,1365.27 2203.6,1365.38 2205.73,1365.49 2207.86,1365.6 2209.99,1365.71 2212.12,1365.82 2214.25,1365.93 2216.39,1366.04 2218.52,1366.15 2220.65,1366.25 2222.78,1366.36 2224.91,1366.47 2227.04,1366.57 2229.17,1366.67 2231.3,1366.78 2233.43,1366.88 2235.56,1366.98 2237.69,1367.09 2239.82,1367.19 2241.95,1367.29 2244.09,1367.39 2246.22,1367.49 2248.35,1367.59 2250.48,1367.69 2252.61,1367.78 2254.74,1367.88 2256.87,1367.98 2259,1368.07 2261.13,1368.17 2263.26,1368.27 2265.39,1368.36 2267.52,1368.45 2269.66,1368.55 2271.79,1368.64 2273.92,1368.73 2276.05,1368.82 2278.18,1368.92 2280.31,1369.01 2282.44,1369.1 2284.57,1369.19 2286.7,1369.28 2288.83,1369.36 2290.96,1369.45 2293.09,1369.54 2295.22,1369.63 2297.36,1369.71 2299.49,1369.8 2301.62,1369.88 2303.75,1369.97 2305.88,1370.05 2308.01,1370.14 2310.14,1370.22 2312.27,1370.31 2314.4,1370.39 2316.53,1370.47 2318.66,1370.55 2320.79,1370.63 2322.92,1370.71 2325.06,1370.79 2327.19,1370.87 2329.32,1370.95 2331.45,1371.03 2333.58,1371.11 2335.71,1371.19 2337.84,1371.26 2339.97,1371.34 2342.1,1371.42 2344.23,1371.49 2346.36,1371.57 2348.49,1371.64 2350.63,1371.72 2352.76,1371.79 "/>
<path clip-path="url(#clip300)" d="M1809.54 248.629 L2281.8 248.629 L2281.8 93.1086 L1809.54 93.1086  Z" fill="#ffffff" fill-rule="evenodd" fill-opacity="1"/>
<polyline clip-path="url(#clip300)" style="stroke:#000000; stroke-linecap:round; stroke-linejoin:round; stroke-width:4; stroke-opacity:1; fill:none" points="1809.54,248.629 2281.8,248.629 2281.8,93.1086 1809.54,93.1086 1809.54,248.629 "/>
<polyline clip-path="url(#clip300)" style="stroke:#009af9; stroke-linecap:round; stroke-linejoin:round; stroke-width:4; stroke-opacity:1; fill:none" points="1833.19,144.949 1975.1,144.949 "/>
<path clip-path="url(#clip300)" d="M1998.75 136.303 L2003.27 136.303 L2011.37 158.062 L2019.47 136.303 L2023.98 136.303 L2014.26 162.229 L2008.47 162.229 L1998.75 136.303 Z" fill="#000000" fill-rule="nonzero" fill-opacity="1" /><path clip-path="url(#clip300)" d="M2031.28 158.293 L2038.91 158.293 L2038.91 131.928 L2030.6 133.595 L2030.6 129.335 L2038.87 127.669 L2043.54 127.669 L2043.54 158.293 L2051.18 158.293 L2051.18 162.229 L2031.28 162.229 L2031.28 158.293 Z" fill="#000000" fill-rule="nonzero" fill-opacity="1" /><path clip-path="url(#clip300)" d="M2069.28 145.585 L2069.28 152.807 L2077.41 152.807 L2077.41 155.006 L2069.28 155.006 L2069.28 162.229 L2066.85 162.229 L2066.85 155.006 L2058.73 155.006 L2058.73 152.807 L2066.85 152.807 L2066.85 145.585 L2069.28 145.585 Z" fill="#000000" fill-rule="nonzero" fill-opacity="1" /><path clip-path="url(#clip300)" d="M2101.58 137.067 L2101.58 141.094 Q2099.77 140.169 2097.83 139.706 Q2095.88 139.243 2093.8 139.243 Q2090.63 139.243 2089.03 140.215 Q2087.46 141.187 2087.46 143.131 Q2087.46 144.613 2088.59 145.469 Q2089.72 146.303 2093.15 147.067 L2094.61 147.391 Q2099.15 148.363 2101.04 150.145 Q2102.96 151.905 2102.96 155.076 Q2102.96 158.687 2100.09 160.793 Q2097.25 162.9 2092.25 162.9 Q2090.16 162.9 2087.9 162.483 Q2085.65 162.09 2083.15 161.28 L2083.15 156.881 Q2085.51 158.108 2087.8 158.733 Q2090.09 159.335 2092.34 159.335 Q2095.35 159.335 2096.97 158.317 Q2098.59 157.275 2098.59 155.4 Q2098.59 153.664 2097.41 152.738 Q2096.25 151.812 2092.29 150.956 L2090.81 150.608 Q2086.85 149.775 2085.09 148.062 Q2083.34 146.326 2083.34 143.317 Q2083.34 139.659 2085.93 137.669 Q2088.52 135.678 2093.29 135.678 Q2095.65 135.678 2097.73 136.025 Q2099.82 136.372 2101.58 137.067 Z" fill="#000000" fill-rule="nonzero" fill-opacity="1" /><path clip-path="url(#clip300)" d="M2113.96 128.942 L2113.96 136.303 L2122.73 136.303 L2122.73 139.613 L2113.96 139.613 L2113.96 153.687 Q2113.96 156.858 2114.82 157.761 Q2115.7 158.664 2118.36 158.664 L2122.73 158.664 L2122.73 162.229 L2118.36 162.229 Q2113.43 162.229 2111.55 160.4 Q2109.68 158.548 2109.68 153.687 L2109.68 139.613 L2106.55 139.613 L2106.55 136.303 L2109.68 136.303 L2109.68 128.942 L2113.96 128.942 Z" fill="#000000" fill-rule="nonzero" fill-opacity="1" /><path clip-path="url(#clip300)" d="M2138.38 139.289 Q2134.96 139.289 2132.96 141.974 Q2130.97 144.636 2130.97 149.289 Q2130.97 153.942 2132.94 156.627 Q2134.93 159.289 2138.38 159.289 Q2141.78 159.289 2143.77 156.604 Q2145.77 153.918 2145.77 149.289 Q2145.77 144.682 2143.77 141.997 Q2141.78 139.289 2138.38 139.289 M2138.38 135.678 Q2143.94 135.678 2147.11 139.289 Q2150.28 142.9 2150.28 149.289 Q2150.28 155.655 2147.11 159.289 Q2143.94 162.9 2138.38 162.9 Q2132.8 162.9 2129.63 159.289 Q2126.48 155.655 2126.48 149.289 Q2126.48 142.9 2129.63 139.289 Q2132.8 135.678 2138.38 135.678 Z" fill="#000000" fill-rule="nonzero" fill-opacity="1" /><path clip-path="url(#clip300)" d="M2172.36 140.284 Q2171.64 139.868 2170.79 139.682 Q2169.95 139.474 2168.94 139.474 Q2165.33 139.474 2163.38 141.835 Q2161.46 144.173 2161.46 148.571 L2161.46 162.229 L2157.18 162.229 L2157.18 136.303 L2161.46 136.303 L2161.46 140.331 Q2162.8 137.969 2164.95 136.835 Q2167.11 135.678 2170.19 135.678 Q2170.63 135.678 2171.16 135.747 Q2171.69 135.794 2172.34 135.909 L2172.36 140.284 Z" fill="#000000" fill-rule="nonzero" fill-opacity="1" /><path clip-path="url(#clip300)" d="M2188.61 149.196 Q2183.45 149.196 2181.46 150.377 Q2179.47 151.557 2179.47 154.405 Q2179.47 156.673 2180.95 158.016 Q2182.45 159.335 2185.02 159.335 Q2188.57 159.335 2190.7 156.835 Q2192.85 154.312 2192.85 150.145 L2192.85 149.196 L2188.61 149.196 M2197.11 147.437 L2197.11 162.229 L2192.85 162.229 L2192.85 158.293 Q2191.39 160.655 2189.21 161.789 Q2187.04 162.9 2183.89 162.9 Q2179.91 162.9 2177.55 160.678 Q2175.21 158.432 2175.21 154.682 Q2175.21 150.307 2178.13 148.085 Q2181.07 145.863 2186.88 145.863 L2192.85 145.863 L2192.85 145.446 Q2192.85 142.507 2190.9 140.909 Q2188.98 139.289 2185.49 139.289 Q2183.27 139.289 2181.16 139.821 Q2179.05 140.354 2177.11 141.419 L2177.11 137.483 Q2179.45 136.581 2181.64 136.141 Q2183.84 135.678 2185.93 135.678 Q2191.55 135.678 2194.33 138.594 Q2197.11 141.511 2197.11 147.437 Z" fill="#000000" fill-rule="nonzero" fill-opacity="1" /><path clip-path="url(#clip300)" d="M2222.94 148.965 Q2222.94 144.335 2221.02 141.789 Q2219.12 139.243 2215.67 139.243 Q2212.25 139.243 2210.33 141.789 Q2208.43 144.335 2208.43 148.965 Q2208.43 153.571 2210.33 156.118 Q2212.25 158.664 2215.67 158.664 Q2219.12 158.664 2221.02 156.118 Q2222.94 153.571 2222.94 148.965 M2227.2 159.011 Q2227.2 165.631 2224.26 168.849 Q2221.32 172.09 2215.26 172.09 Q2213.01 172.09 2211.02 171.742 Q2209.03 171.418 2207.15 170.724 L2207.15 166.58 Q2209.03 167.599 2210.86 168.085 Q2212.69 168.571 2214.58 168.571 Q2218.77 168.571 2220.86 166.372 Q2222.94 164.196 2222.94 159.775 L2222.94 157.668 Q2221.62 159.96 2219.56 161.094 Q2217.5 162.229 2214.63 162.229 Q2209.86 162.229 2206.95 158.594 Q2204.03 154.96 2204.03 148.965 Q2204.03 142.946 2206.95 139.312 Q2209.86 135.678 2214.63 135.678 Q2217.5 135.678 2219.56 136.812 Q2221.62 137.946 2222.94 140.238 L2222.94 136.303 L2227.2 136.303 L2227.2 159.011 Z" fill="#000000" fill-rule="nonzero" fill-opacity="1" /><path clip-path="url(#clip300)" d="M2258.15 148.201 L2258.15 150.284 L2238.57 150.284 Q2238.84 154.682 2241.2 156.997 Q2243.59 159.289 2247.82 159.289 Q2250.28 159.289 2252.57 158.687 Q2254.89 158.085 2257.15 156.881 L2257.15 160.909 Q2254.86 161.881 2252.45 162.391 Q2250.05 162.9 2247.57 162.9 Q2241.37 162.9 2237.73 159.289 Q2234.12 155.678 2234.12 149.52 Q2234.12 143.155 2237.55 139.428 Q2241 135.678 2246.83 135.678 Q2252.06 135.678 2255.09 139.057 Q2258.15 142.414 2258.15 148.201 M2253.89 146.951 Q2253.84 143.456 2251.92 141.372 Q2250.02 139.289 2246.88 139.289 Q2243.31 139.289 2241.16 141.303 Q2239.03 143.317 2238.7 146.974 L2253.89 146.951 Z" fill="#000000" fill-rule="nonzero" fill-opacity="1" /><polyline clip-path="url(#clip300)" style="stroke:#e26f46; stroke-linecap:round; stroke-linejoin:round; stroke-width:4; stroke-opacity:1; fill:none" points="1833.19,196.789 1975.1,196.789 "/>
<path clip-path="url(#clip300)" d="M1998.75 188.143 L2003.27 188.143 L2011.37 209.902 L2019.47 188.143 L2023.98 188.143 L2014.26 214.069 L2008.47 214.069 L1998.75 188.143 Z" fill="#000000" fill-rule="nonzero" fill-opacity="1" /><path clip-path="url(#clip300)" d="M2030.51 179.509 L2048.87 179.509 L2048.87 183.444 L2034.79 183.444 L2034.79 191.916 Q2035.81 191.569 2036.83 191.407 Q2037.85 191.222 2038.87 191.222 Q2044.65 191.222 2048.03 194.393 Q2051.41 197.564 2051.41 202.981 Q2051.41 208.559 2047.94 211.661 Q2044.47 214.74 2038.15 214.74 Q2035.97 214.74 2033.71 214.37 Q2031.46 213.999 2029.05 213.258 L2029.05 208.559 Q2031.14 209.694 2033.36 210.249 Q2035.58 210.805 2038.06 210.805 Q2042.06 210.805 2044.4 208.698 Q2046.74 206.592 2046.74 202.981 Q2046.74 199.37 2044.4 197.263 Q2042.06 195.157 2038.06 195.157 Q2036.18 195.157 2034.31 195.573 Q2032.46 195.99 2030.51 196.87 L2030.51 179.509 Z" fill="#000000" fill-rule="nonzero" fill-opacity="1" /><path clip-path="url(#clip300)" d="M2069.28 197.425 L2069.28 204.647 L2077.41 204.647 L2077.41 206.846 L2069.28 206.846 L2069.28 214.069 L2066.85 214.069 L2066.85 206.846 L2058.73 206.846 L2058.73 204.647 L2066.85 204.647 L2066.85 197.425 L2069.28 197.425 Z" fill="#000000" fill-rule="nonzero" fill-opacity="1" /><path clip-path="url(#clip300)" d="M2101.58 188.907 L2101.58 192.934 Q2099.77 192.009 2097.83 191.546 Q2095.88 191.083 2093.8 191.083 Q2090.63 191.083 2089.03 192.055 Q2087.46 193.027 2087.46 194.971 Q2087.46 196.453 2088.59 197.309 Q2089.72 198.143 2093.15 198.907 L2094.61 199.231 Q2099.15 200.203 2101.04 201.985 Q2102.96 203.745 2102.96 206.916 Q2102.96 210.527 2100.09 212.633 Q2097.25 214.74 2092.25 214.74 Q2090.16 214.74 2087.9 214.323 Q2085.65 213.93 2083.15 213.12 L2083.15 208.721 Q2085.51 209.948 2087.8 210.573 Q2090.09 211.175 2092.34 211.175 Q2095.35 211.175 2096.97 210.157 Q2098.59 209.115 2098.59 207.24 Q2098.59 205.504 2097.41 204.578 Q2096.25 203.652 2092.29 202.796 L2090.81 202.448 Q2086.85 201.615 2085.09 199.902 Q2083.34 198.166 2083.34 195.157 Q2083.34 191.499 2085.93 189.509 Q2088.52 187.518 2093.29 187.518 Q2095.65 187.518 2097.73 187.865 Q2099.82 188.212 2101.58 188.907 Z" fill="#000000" fill-rule="nonzero" fill-opacity="1" /><path clip-path="url(#clip300)" d="M2113.96 180.782 L2113.96 188.143 L2122.73 188.143 L2122.73 191.453 L2113.96 191.453 L2113.96 205.527 Q2113.96 208.698 2114.82 209.601 Q2115.7 210.504 2118.36 210.504 L2122.73 210.504 L2122.73 214.069 L2118.36 214.069 Q2113.43 214.069 2111.55 212.24 Q2109.68 210.388 2109.68 205.527 L2109.68 191.453 L2106.55 191.453 L2106.55 188.143 L2109.68 188.143 L2109.68 180.782 L2113.96 180.782 Z" fill="#000000" fill-rule="nonzero" fill-opacity="1" /><path clip-path="url(#clip300)" d="M2138.38 191.129 Q2134.96 191.129 2132.96 193.814 Q2130.97 196.476 2130.97 201.129 Q2130.97 205.782 2132.94 208.467 Q2134.93 211.129 2138.38 211.129 Q2141.78 211.129 2143.77 208.444 Q2145.77 205.758 2145.77 201.129 Q2145.77 196.522 2143.77 193.837 Q2141.78 191.129 2138.38 191.129 M2138.38 187.518 Q2143.94 187.518 2147.11 191.129 Q2150.28 194.74 2150.28 201.129 Q2150.28 207.495 2147.11 211.129 Q2143.94 214.74 2138.38 214.74 Q2132.8 214.74 2129.63 211.129 Q2126.48 207.495 2126.48 201.129 Q2126.48 194.74 2129.63 191.129 Q2132.8 187.518 2138.38 187.518 Z" fill="#000000" fill-rule="nonzero" fill-opacity="1" /><path clip-path="url(#clip300)" d="M2172.36 192.124 Q2171.64 191.708 2170.79 191.522 Q2169.95 191.314 2168.94 191.314 Q2165.33 191.314 2163.38 193.675 Q2161.46 196.013 2161.46 200.411 L2161.46 214.069 L2157.18 214.069 L2157.18 188.143 L2161.46 188.143 L2161.46 192.171 Q2162.8 189.809 2164.95 188.675 Q2167.11 187.518 2170.19 187.518 Q2170.63 187.518 2171.16 187.587 Q2171.69 187.634 2172.34 187.749 L2172.36 192.124 Z" fill="#000000" fill-rule="nonzero" fill-opacity="1" /><path clip-path="url(#clip300)" d="M2188.61 201.036 Q2183.45 201.036 2181.46 202.217 Q2179.47 203.397 2179.47 206.245 Q2179.47 208.513 2180.95 209.856 Q2182.45 211.175 2185.02 211.175 Q2188.57 211.175 2190.7 208.675 Q2192.85 206.152 2192.85 201.985 L2192.85 201.036 L2188.61 201.036 M2197.11 199.277 L2197.11 214.069 L2192.85 214.069 L2192.85 210.133 Q2191.39 212.495 2189.21 213.629 Q2187.04 214.74 2183.89 214.74 Q2179.91 214.74 2177.55 212.518 Q2175.21 210.272 2175.21 206.522 Q2175.21 202.147 2178.13 199.925 Q2181.07 197.703 2186.88 197.703 L2192.85 197.703 L2192.85 197.286 Q2192.85 194.347 2190.9 192.749 Q2188.98 191.129 2185.49 191.129 Q2183.27 191.129 2181.16 191.661 Q2179.05 192.194 2177.11 193.259 L2177.11 189.323 Q2179.45 188.421 2181.64 187.981 Q2183.84 187.518 2185.93 187.518 Q2191.55 187.518 2194.33 190.434 Q2197.11 193.351 2197.11 199.277 Z" fill="#000000" fill-rule="nonzero" fill-opacity="1" /><path clip-path="url(#clip300)" d="M2222.94 200.805 Q2222.94 196.175 2221.02 193.629 Q2219.12 191.083 2215.67 191.083 Q2212.25 191.083 2210.33 193.629 Q2208.43 196.175 2208.43 200.805 Q2208.43 205.411 2210.33 207.958 Q2212.25 210.504 2215.67 210.504 Q2219.12 210.504 2221.02 207.958 Q2222.94 205.411 2222.94 200.805 M2227.2 210.851 Q2227.2 217.471 2224.26 220.689 Q2221.32 223.93 2215.26 223.93 Q2213.01 223.93 2211.02 223.582 Q2209.03 223.258 2207.15 222.564 L2207.15 218.42 Q2209.03 219.439 2210.86 219.925 Q2212.69 220.411 2214.58 220.411 Q2218.77 220.411 2220.86 218.212 Q2222.94 216.036 2222.94 211.615 L2222.94 209.508 Q2221.62 211.8 2219.56 212.934 Q2217.5 214.069 2214.63 214.069 Q2209.86 214.069 2206.95 210.434 Q2204.03 206.8 2204.03 200.805 Q2204.03 194.786 2206.95 191.152 Q2209.86 187.518 2214.63 187.518 Q2217.5 187.518 2219.56 188.652 Q2221.62 189.786 2222.94 192.078 L2222.94 188.143 L2227.2 188.143 L2227.2 210.851 Z" fill="#000000" fill-rule="nonzero" fill-opacity="1" /><path clip-path="url(#clip300)" d="M2258.15 200.041 L2258.15 202.124 L2238.57 202.124 Q2238.84 206.522 2241.2 208.837 Q2243.59 211.129 2247.82 211.129 Q2250.28 211.129 2252.57 210.527 Q2254.89 209.925 2257.15 208.721 L2257.15 212.749 Q2254.86 213.721 2252.45 214.231 Q2250.05 214.74 2247.57 214.74 Q2241.37 214.74 2237.73 211.129 Q2234.12 207.518 2234.12 201.36 Q2234.12 194.995 2237.55 191.268 Q2241 187.518 2246.83 187.518 Q2252.06 187.518 2255.09 190.897 Q2258.15 194.254 2258.15 200.041 M2253.89 198.791 Q2253.84 195.296 2251.92 193.212 Q2250.02 191.129 2246.88 191.129 Q2243.31 191.129 2241.16 193.143 Q2239.03 195.157 2238.7 198.814 L2253.89 198.791 Z" fill="#000000" fill-rule="nonzero" fill-opacity="1" /></svg>
