<?xml version="1.0" encoding="utf-8"?>
<svg xmlns="http://www.w3.org/2000/svg" xmlns:xlink="http://www.w3.org/1999/xlink" width="600" height="400" viewBox="0 0 2400 1600">
<defs>
  <clipPath id="clip300">
    <rect x="0" y="0" width="2400" height="1600"/>
  </clipPath>
</defs>
<path clip-path="url(#clip300)" d="M0 1600 L2400 1600 L2400 0 L0 0  Z" fill="#ffffff" fill-rule="evenodd" fill-opacity="1"/>
<defs>
  <clipPath id="clip301">
    <rect x="480" y="0" width="1681" height="1600"/>
  </clipPath>
</defs>
<path clip-path="url(#clip300)" d="M192.339 1423.18 L2352.76 1423.18 L2352.76 47.2441 L192.339 47.2441  Z" fill="#ffffff" fill-rule="evenodd" fill-opacity="1"/>
<defs>
  <clipPath id="clip302">
    <rect x="192" y="47" width="2161" height="1377"/>
  </clipPath>
</defs>
<polyline clip-path="url(#clip302)" style="stroke:#000000; stroke-linecap:round; stroke-linejoin:round; stroke-width:2; stroke-opacity:0.1; fill:none" points="192.339,1423.18 192.339,47.2441 "/>
<polyline clip-path="url(#clip302)" style="stroke:#000000; stroke-linecap:round; stroke-linejoin:round; stroke-width:2; stroke-opacity:0.1; fill:none" points="732.443,1423.18 732.443,47.2441 "/>
<polyline clip-path="url(#clip302)" style="stroke:#000000; stroke-linecap:round; stroke-linejoin:round; stroke-width:2; stroke-opacity:0.1; fill:none" points="1272.55,1423.18 1272.55,47.2441 "/>
<polyline clip-path="url(#clip302)" style="stroke:#000000; stroke-linecap:round; stroke-linejoin:round; stroke-width:2; stroke-opacity:0.1; fill:none" points="1812.65,1423.18 1812.65,47.2441 "/>
<polyline clip-path="url(#clip302)" style="stroke:#000000; stroke-linecap:round; stroke-linejoin:round; stroke-width:2; stroke-opacity:0.1; fill:none" points="2352.76,1423.18 2352.76,47.2441 "/>
<polyline clip-path="url(#clip302)" style="stroke:#000000; stroke-linecap:round; stroke-linejoin:round; stroke-width:2; stroke-opacity:0.1; fill:none" points="192.339,1256.96 2352.76,1256.96 "/>
<polyline clip-path="url(#clip302)" style="stroke:#000000; stroke-linecap:round; stroke-linejoin:round; stroke-width:2; stroke-opacity:0.1; fill:none" points="192.339,941.093 2352.76,941.093 "/>
<polyline clip-path="url(#clip302)" style="stroke:#000000; stroke-linecap:round; stroke-linejoin:round; stroke-width:2; stroke-opacity:0.1; fill:none" points="192.339,625.226 2352.76,625.226 "/>
<polyline clip-path="url(#clip302)" style="stroke:#000000; stroke-linecap:round; stroke-linejoin:round; stroke-width:2; stroke-opacity:0.1; fill:none" points="192.339,309.359 2352.76,309.359 "/>
<polyline clip-path="url(#clip300)" style="stroke:#000000; stroke-linecap:round; stroke-linejoin:round; stroke-width:4; stroke-opacity:1; fill:none" points="192.339,1423.18 2352.76,1423.18 "/>
<polyline clip-path="url(#clip300)" style="stroke:#000000; stroke-linecap:round; stroke-linejoin:round; stroke-width:4; stroke-opacity:1; fill:none" points="192.339,1423.18 192.339,1404.28 "/>
<polyline clip-path="url(#clip300)" style="stroke:#000000; stroke-linecap:round; stroke-linejoin:round; stroke-width:4; stroke-opacity:1; fill:none" points="732.443,1423.18 732.443,1404.28 "/>
<polyline clip-path="url(#clip300)" style="stroke:#000000; stroke-linecap:round; stroke-linejoin:round; stroke-width:4; stroke-opacity:1; fill:none" points="1272.55,1423.18 1272.55,1404.28 "/>
<polyline clip-path="url(#clip300)" style="stroke:#000000; stroke-linecap:round; stroke-linejoin:round; stroke-width:4; stroke-opacity:1; fill:none" points="1812.65,1423.18 1812.65,1404.28 "/>
<polyline clip-path="url(#clip300)" style="stroke:#000000; stroke-linecap:round; stroke-linejoin:round; stroke-width:4; stroke-opacity:1; fill:none" points="2352.76,1423.18 2352.76,1404.28 "/>
<path clip-path="url(#clip300)" d="M169.723 1454.1 Q166.112 1454.1 164.283 1457.66 Q162.478 1461.2 162.478 1468.33 Q162.478 1475.44 164.283 1479.01 Q166.112 1482.55 169.723 1482.55 Q173.357 1482.55 175.163 1479.01 Q176.992 1475.44 176.992 1468.33 Q176.992 1461.2 175.163 1457.66 Q173.357 1454.1 169.723 1454.1 M169.723 1450.39 Q175.533 1450.39 178.589 1455 Q181.668 1459.58 181.668 1468.33 Q181.668 1477.06 178.589 1481.67 Q175.533 1486.25 169.723 1486.25 Q163.913 1486.25 160.834 1481.67 Q157.779 1477.06 157.779 1468.33 Q157.779 1459.58 160.834 1455 Q163.913 1450.39 169.723 1450.39 Z" fill="#000000" fill-rule="nonzero" fill-opacity="1" /><path clip-path="url(#clip300)" d="M189.885 1479.7 L194.769 1479.7 L194.769 1485.58 L189.885 1485.58 L189.885 1479.7 Z" fill="#000000" fill-rule="nonzero" fill-opacity="1" /><path clip-path="url(#clip300)" d="M214.954 1454.1 Q211.343 1454.1 209.515 1457.66 Q207.709 1461.2 207.709 1468.33 Q207.709 1475.44 209.515 1479.01 Q211.343 1482.55 214.954 1482.55 Q218.589 1482.55 220.394 1479.01 Q222.223 1475.44 222.223 1468.33 Q222.223 1461.2 220.394 1457.66 Q218.589 1454.1 214.954 1454.1 M214.954 1450.39 Q220.765 1450.39 223.82 1455 Q226.899 1459.58 226.899 1468.33 Q226.899 1477.06 223.82 1481.67 Q220.765 1486.25 214.954 1486.25 Q209.144 1486.25 206.066 1481.67 Q203.01 1477.06 203.01 1468.33 Q203.01 1459.58 206.066 1455 Q209.144 1450.39 214.954 1450.39 Z" fill="#000000" fill-rule="nonzero" fill-opacity="1" /><path clip-path="url(#clip300)" d="M710.325 1454.1 Q706.714 1454.1 704.885 1457.66 Q703.08 1461.2 703.08 1468.33 Q703.08 1475.44 704.885 1479.01 Q706.714 1482.55 710.325 1482.55 Q713.959 1482.55 715.765 1479.01 Q717.594 1475.44 717.594 1468.33 Q717.594 1461.2 715.765 1457.66 Q713.959 1454.1 710.325 1454.1 M710.325 1450.39 Q716.135 1450.39 719.191 1455 Q722.27 1459.58 722.27 1468.33 Q722.27 1477.06 719.191 1481.67 Q716.135 1486.25 710.325 1486.25 Q704.515 1486.25 701.436 1481.67 Q698.381 1477.06 698.381 1468.33 Q698.381 1459.58 701.436 1455 Q704.515 1450.39 710.325 1450.39 Z" fill="#000000" fill-rule="nonzero" fill-opacity="1" /><path clip-path="url(#clip300)" d="M730.487 1479.7 L735.371 1479.7 L735.371 1485.58 L730.487 1485.58 L730.487 1479.7 Z" fill="#000000" fill-rule="nonzero" fill-opacity="1" /><path clip-path="url(#clip300)" d="M745.603 1451.02 L763.959 1451.02 L763.959 1454.96 L749.885 1454.96 L749.885 1463.43 Q750.904 1463.08 751.922 1462.92 Q752.941 1462.73 753.959 1462.73 Q759.746 1462.73 763.126 1465.9 Q766.505 1469.08 766.505 1474.49 Q766.505 1480.07 763.033 1483.17 Q759.561 1486.25 753.242 1486.25 Q751.066 1486.25 748.797 1485.88 Q746.552 1485.51 744.144 1484.77 L744.144 1480.07 Q746.228 1481.2 748.45 1481.76 Q750.672 1482.32 753.149 1482.32 Q757.154 1482.32 759.492 1480.21 Q761.829 1478.1 761.829 1474.49 Q761.829 1470.88 759.492 1468.77 Q757.154 1466.67 753.149 1466.67 Q751.274 1466.67 749.399 1467.08 Q747.547 1467.5 745.603 1468.38 L745.603 1451.02 Z" fill="#000000" fill-rule="nonzero" fill-opacity="1" /><path clip-path="url(#clip300)" d="M1239.7 1481.64 L1247.34 1481.64 L1247.34 1455.28 L1239.03 1456.95 L1239.03 1452.69 L1247.29 1451.02 L1251.97 1451.02 L1251.97 1481.64 L1259.61 1481.64 L1259.61 1485.58 L1239.7 1485.58 L1239.7 1481.64 Z" fill="#000000" fill-rule="nonzero" fill-opacity="1" /><path clip-path="url(#clip300)" d="M1269.05 1479.7 L1273.94 1479.7 L1273.94 1485.58 L1269.05 1485.58 L1269.05 1479.7 Z" fill="#000000" fill-rule="nonzero" fill-opacity="1" /><path clip-path="url(#clip300)" d="M1294.12 1454.1 Q1290.51 1454.1 1288.68 1457.66 Q1286.88 1461.2 1286.88 1468.33 Q1286.88 1475.44 1288.68 1479.01 Q1290.51 1482.55 1294.12 1482.55 Q1297.76 1482.55 1299.56 1479.01 Q1301.39 1475.44 1301.39 1468.33 Q1301.39 1461.2 1299.56 1457.66 Q1297.76 1454.1 1294.12 1454.1 M1294.12 1450.39 Q1299.93 1450.39 1302.99 1455 Q1306.07 1459.58 1306.07 1468.33 Q1306.07 1477.06 1302.99 1481.67 Q1299.93 1486.25 1294.12 1486.25 Q1288.31 1486.25 1285.23 1481.67 Q1282.18 1477.06 1282.18 1468.33 Q1282.18 1459.58 1285.23 1455 Q1288.31 1450.39 1294.12 1450.39 Z" fill="#000000" fill-rule="nonzero" fill-opacity="1" /><path clip-path="url(#clip300)" d="M1780.3 1481.64 L1787.94 1481.64 L1787.94 1455.28 L1779.63 1456.95 L1779.63 1452.69 L1787.89 1451.02 L1792.57 1451.02 L1792.57 1481.64 L1800.21 1481.64 L1800.21 1485.58 L1780.3 1485.58 L1780.3 1481.64 Z" fill="#000000" fill-rule="nonzero" fill-opacity="1" /><path clip-path="url(#clip300)" d="M1809.65 1479.7 L1814.54 1479.7 L1814.54 1485.58 L1809.65 1485.58 L1809.65 1479.7 Z" fill="#000000" fill-rule="nonzero" fill-opacity="1" /><path clip-path="url(#clip300)" d="M1824.77 1451.02 L1843.13 1451.02 L1843.13 1454.96 L1829.05 1454.96 L1829.05 1463.43 Q1830.07 1463.08 1831.09 1462.92 Q1832.11 1462.73 1833.13 1462.73 Q1838.91 1462.73 1842.29 1465.9 Q1845.67 1469.08 1845.67 1474.49 Q1845.67 1480.07 1842.2 1483.17 Q1838.73 1486.25 1832.41 1486.25 Q1830.23 1486.25 1827.96 1485.88 Q1825.72 1485.51 1823.31 1484.77 L1823.31 1480.07 Q1825.39 1481.2 1827.62 1481.76 Q1829.84 1482.32 1832.32 1482.32 Q1836.32 1482.32 1838.66 1480.21 Q1841 1478.1 1841 1474.49 Q1841 1470.88 1838.66 1468.77 Q1836.32 1466.67 1832.32 1466.67 Q1830.44 1466.67 1828.57 1467.08 Q1826.71 1467.5 1824.77 1468.38 L1824.77 1451.02 Z" fill="#000000" fill-rule="nonzero" fill-opacity="1" /><path clip-path="url(#clip300)" d="M2323.99 1481.64 L2340.31 1481.64 L2340.31 1485.58 L2318.37 1485.58 L2318.37 1481.64 Q2321.03 1478.89 2325.61 1474.26 Q2330.22 1469.61 2331.4 1468.27 Q2333.65 1465.74 2334.53 1464.01 Q2335.43 1462.25 2335.43 1460.56 Q2335.43 1457.8 2333.49 1456.07 Q2331.56 1454.33 2328.46 1454.33 Q2326.26 1454.33 2323.81 1455.09 Q2321.38 1455.86 2318.6 1457.41 L2318.6 1452.69 Q2321.43 1451.55 2323.88 1450.97 Q2326.33 1450.39 2328.37 1450.39 Q2333.74 1450.39 2336.93 1453.08 Q2340.13 1455.77 2340.13 1460.26 Q2340.13 1462.39 2339.32 1464.31 Q2338.53 1466.2 2336.42 1468.8 Q2335.85 1469.47 2332.74 1472.69 Q2329.64 1475.88 2323.99 1481.64 Z" fill="#000000" fill-rule="nonzero" fill-opacity="1" /><path clip-path="url(#clip300)" d="M2350.13 1479.7 L2355.01 1479.7 L2355.01 1485.58 L2350.13 1485.58 L2350.13 1479.7 Z" fill="#000000" fill-rule="nonzero" fill-opacity="1" /><path clip-path="url(#clip300)" d="M2375.2 1454.1 Q2371.59 1454.1 2369.76 1457.66 Q2367.95 1461.2 2367.95 1468.33 Q2367.95 1475.44 2369.76 1479.01 Q2371.59 1482.55 2375.2 1482.55 Q2378.83 1482.55 2380.64 1479.01 Q2382.47 1475.44 2382.47 1468.33 Q2382.47 1461.2 2380.64 1457.66 Q2378.83 1454.1 2375.2 1454.1 M2375.2 1450.39 Q2381.01 1450.39 2384.06 1455 Q2387.14 1459.58 2387.14 1468.33 Q2387.14 1477.06 2384.06 1481.67 Q2381.01 1486.25 2375.2 1486.25 Q2369.39 1486.25 2366.31 1481.67 Q2363.25 1477.06 2363.25 1468.33 Q2363.25 1459.58 2366.31 1455 Q2369.39 1450.39 2375.2 1450.39 Z" fill="#000000" fill-rule="nonzero" fill-opacity="1" /><path clip-path="url(#clip300)" d="M1271.61 1522.27 L1271.61 1532.4 L1283.67 1532.4 L1283.67 1536.95 L1271.61 1536.95 L1271.61 1556.3 Q1271.61 1560.66 1272.79 1561.9 Q1274 1563.14 1277.66 1563.14 L1283.67 1563.14 L1283.67 1568.04 L1277.66 1568.04 Q1270.88 1568.04 1268.3 1565.53 Q1265.72 1562.98 1265.72 1556.3 L1265.72 1536.95 L1261.42 1536.95 L1261.42 1532.4 L1265.72 1532.4 L1265.72 1522.27 L1271.61 1522.27 Z" fill="#000000" fill-rule="nonzero" fill-opacity="1" /><polyline clip-path="url(#clip300)" style="stroke:#000000; stroke-linecap:round; stroke-linejoin:round; stroke-width:4; stroke-opacity:1; fill:none" points="192.339,1423.18 192.339,47.2441 "/>
<polyline clip-path="url(#clip300)" style="stroke:#000000; stroke-linecap:round; stroke-linejoin:round; stroke-width:4; stroke-opacity:1; fill:none" points="192.339,1256.96 211.236,1256.96 "/>
<polyline clip-path="url(#clip300)" style="stroke:#000000; stroke-linecap:round; stroke-linejoin:round; stroke-width:4; stroke-opacity:1; fill:none" points="192.339,941.093 211.236,941.093 "/>
<polyline clip-path="url(#clip300)" style="stroke:#000000; stroke-linecap:round; stroke-linejoin:round; stroke-width:4; stroke-opacity:1; fill:none" points="192.339,625.226 211.236,625.226 "/>
<polyline clip-path="url(#clip300)" style="stroke:#000000; stroke-linecap:round; stroke-linejoin:round; stroke-width:4; stroke-opacity:1; fill:none" points="192.339,309.359 211.236,309.359 "/>
<path clip-path="url(#clip300)" d="M50.9921 1257.41 L80.6679 1257.41 L80.6679 1261.35 L50.9921 1261.35 L50.9921 1257.41 Z" fill="#000000" fill-rule="nonzero" fill-opacity="1" /><path clip-path="url(#clip300)" d="M100.76 1242.76 Q97.1493 1242.76 95.3206 1246.32 Q93.515 1249.86 93.515 1256.99 Q93.515 1264.1 95.3206 1267.67 Q97.1493 1271.21 100.76 1271.21 Q104.395 1271.21 106.2 1267.67 Q108.029 1264.1 108.029 1256.99 Q108.029 1249.86 106.2 1246.32 Q104.395 1242.76 100.76 1242.76 M100.76 1239.05 Q106.571 1239.05 109.626 1243.66 Q112.705 1248.24 112.705 1256.99 Q112.705 1265.72 109.626 1270.33 Q106.571 1274.91 100.76 1274.91 Q94.9502 1274.91 91.8715 1270.33 Q88.816 1265.72 88.816 1256.99 Q88.816 1248.24 91.8715 1243.66 Q94.9502 1239.05 100.76 1239.05 Z" fill="#000000" fill-rule="nonzero" fill-opacity="1" /><path clip-path="url(#clip300)" d="M120.922 1268.36 L125.807 1268.36 L125.807 1274.24 L120.922 1274.24 L120.922 1268.36 Z" fill="#000000" fill-rule="nonzero" fill-opacity="1" /><path clip-path="url(#clip300)" d="M140.019 1270.3 L156.339 1270.3 L156.339 1274.24 L134.394 1274.24 L134.394 1270.3 Q137.056 1267.55 141.64 1262.92 Q146.246 1258.27 147.427 1256.93 Q149.672 1254.4 150.552 1252.67 Q151.455 1250.91 151.455 1249.22 Q151.455 1246.46 149.51 1244.73 Q147.589 1242.99 144.487 1242.99 Q142.288 1242.99 139.834 1243.75 Q137.404 1244.52 134.626 1246.07 L134.626 1241.35 Q137.45 1240.21 139.904 1239.63 Q142.357 1239.05 144.394 1239.05 Q149.765 1239.05 152.959 1241.74 Q156.154 1244.43 156.154 1248.92 Q156.154 1251.05 155.343 1252.97 Q154.556 1254.86 152.45 1257.46 Q151.871 1258.13 148.769 1261.35 Q145.668 1264.54 140.019 1270.3 Z" fill="#000000" fill-rule="nonzero" fill-opacity="1" /><path clip-path="url(#clip300)" d="M99.1632 926.891 Q95.5521 926.891 93.7234 930.456 Q91.9178 933.998 91.9178 941.127 Q91.9178 948.234 93.7234 951.799 Q95.5521 955.34 99.1632 955.34 Q102.797 955.34 104.603 951.799 Q106.432 948.234 106.432 941.127 Q106.432 933.998 104.603 930.456 Q102.797 926.891 99.1632 926.891 M99.1632 923.188 Q104.973 923.188 108.029 927.794 Q111.108 932.378 111.108 941.127 Q111.108 949.854 108.029 954.461 Q104.973 959.044 99.1632 959.044 Q93.353 959.044 90.2743 954.461 Q87.2188 949.854 87.2188 941.127 Q87.2188 932.378 90.2743 927.794 Q93.353 923.188 99.1632 923.188 Z" fill="#000000" fill-rule="nonzero" fill-opacity="1" /><path clip-path="url(#clip300)" d="M119.325 952.493 L124.209 952.493 L124.209 958.373 L119.325 958.373 L119.325 952.493 Z" fill="#000000" fill-rule="nonzero" fill-opacity="1" /><path clip-path="url(#clip300)" d="M144.394 926.891 Q140.783 926.891 138.955 930.456 Q137.149 933.998 137.149 941.127 Q137.149 948.234 138.955 951.799 Q140.783 955.34 144.394 955.34 Q148.029 955.34 149.834 951.799 Q151.663 948.234 151.663 941.127 Q151.663 933.998 149.834 930.456 Q148.029 926.891 144.394 926.891 M144.394 923.188 Q150.205 923.188 153.26 927.794 Q156.339 932.378 156.339 941.127 Q156.339 949.854 153.26 954.461 Q150.205 959.044 144.394 959.044 Q138.584 959.044 135.506 954.461 Q132.45 949.854 132.45 941.127 Q132.45 932.378 135.506 927.794 Q138.584 923.188 144.394 923.188 Z" fill="#000000" fill-rule="nonzero" fill-opacity="1" /><path clip-path="url(#clip300)" d="M100.76 611.024 Q97.1493 611.024 95.3206 614.589 Q93.515 618.131 93.515 625.26 Q93.515 632.367 95.3206 635.932 Q97.1493 639.473 100.76 639.473 Q104.395 639.473 106.2 635.932 Q108.029 632.367 108.029 625.26 Q108.029 618.131 106.2 614.589 Q104.395 611.024 100.76 611.024 M100.76 607.321 Q106.571 607.321 109.626 611.927 Q112.705 616.511 112.705 625.26 Q112.705 633.987 109.626 638.594 Q106.571 643.177 100.76 643.177 Q94.9502 643.177 91.8715 638.594 Q88.816 633.987 88.816 625.26 Q88.816 616.511 91.8715 611.927 Q94.9502 607.321 100.76 607.321 Z" fill="#000000" fill-rule="nonzero" fill-opacity="1" /><path clip-path="url(#clip300)" d="M120.922 636.626 L125.807 636.626 L125.807 642.506 L120.922 642.506 L120.922 636.626 Z" fill="#000000" fill-rule="nonzero" fill-opacity="1" /><path clip-path="url(#clip300)" d="M140.019 638.571 L156.339 638.571 L156.339 642.506 L134.394 642.506 L134.394 638.571 Q137.056 635.816 141.64 631.186 Q146.246 626.534 147.427 625.191 Q149.672 622.668 150.552 620.932 Q151.455 619.173 151.455 617.483 Q151.455 614.728 149.51 612.992 Q147.589 611.256 144.487 611.256 Q142.288 611.256 139.834 612.02 Q137.404 612.784 134.626 614.335 L134.626 609.612 Q137.45 608.478 139.904 607.899 Q142.357 607.321 144.394 607.321 Q149.765 607.321 152.959 610.006 Q156.154 612.691 156.154 617.182 Q156.154 619.311 155.343 621.233 Q154.556 623.131 152.45 625.723 Q151.871 626.395 148.769 629.612 Q145.668 632.807 140.019 638.571 Z" fill="#000000" fill-rule="nonzero" fill-opacity="1" /><path clip-path="url(#clip300)" d="M98.6771 295.157 Q95.066 295.157 93.2373 298.722 Q91.4317 302.264 91.4317 309.393 Q91.4317 316.5 93.2373 320.065 Q95.066 323.606 98.6771 323.606 Q102.311 323.606 104.117 320.065 Q105.946 316.5 105.946 309.393 Q105.946 302.264 104.117 298.722 Q102.311 295.157 98.6771 295.157 M98.6771 291.454 Q104.487 291.454 107.543 296.06 Q110.621 300.643 110.621 309.393 Q110.621 318.12 107.543 322.727 Q104.487 327.31 98.6771 327.31 Q92.8669 327.31 89.7882 322.727 Q86.7327 318.12 86.7327 309.393 Q86.7327 300.643 89.7882 296.06 Q92.8669 291.454 98.6771 291.454 Z" fill="#000000" fill-rule="nonzero" fill-opacity="1" /><path clip-path="url(#clip300)" d="M118.839 320.759 L123.723 320.759 L123.723 326.639 L118.839 326.639 L118.839 320.759 Z" fill="#000000" fill-rule="nonzero" fill-opacity="1" /><path clip-path="url(#clip300)" d="M146.756 296.153 L134.95 314.602 L146.756 314.602 L146.756 296.153 M145.529 292.079 L151.408 292.079 L151.408 314.602 L156.339 314.602 L156.339 318.491 L151.408 318.491 L151.408 326.639 L146.756 326.639 L146.756 318.491 L131.154 318.491 L131.154 313.977 L145.529 292.079 Z" fill="#000000" fill-rule="nonzero" fill-opacity="1" /><polyline clip-path="url(#clip302)" style="stroke:#009af9; stroke-linecap:round; stroke-linejoin:round; stroke-width:4; stroke-opacity:1; fill:none" points="192.339,667.634 194.501,661.842 196.664,656.109 198.827,650.432 200.989,644.812 203.152,639.247 205.314,633.739 207.477,628.285 209.639,622.885 211.802,617.539 213.965,612.247 216.127,607.007 218.29,601.819 220.452,596.683 222.615,591.598 224.777,586.564 226.94,581.58 229.103,576.645 231.265,571.76 233.428,566.923 235.59,562.135 237.753,557.394 239.916,552.701 242.078,548.054 244.241,543.453 246.403,538.899 248.566,534.389 250.728,529.925 252.891,525.505 255.054,521.129 257.216,516.797 259.379,512.508 261.541,508.261 263.704,504.057 265.866,499.895 268.029,495.774 270.192,491.694 272.354,487.655 274.517,483.656 276.679,479.697 278.842,475.777 281.005,471.896 283.167,468.054 285.33,464.251 287.492,460.485 289.655,456.757 291.817,453.065 293.98,449.411 296.143,445.793 298.305,442.211 300.468,438.665 302.63,435.154 304.793,431.678 306.956,428.236 309.118,424.829 311.281,421.456 313.443,418.116 315.606,414.81 317.768,411.537 319.931,408.296 322.094,405.087 324.256,401.911 326.419,398.766 328.581,395.652 330.744,392.57 332.906,389.518 335.069,386.496 337.232,383.505 339.394,380.543 341.557,377.611 343.719,374.708 345.882,371.834 348.045,368.989 350.207,366.172 352.37,363.383 354.532,360.622 356.695,357.888 358.857,355.182 361.02,352.502 363.183,349.849 365.345,347.223 367.508,344.623 369.67,342.049 371.833,339.5 373.995,336.977 376.158,334.478 378.321,332.005 380.483,329.556 382.646,327.132 384.808,324.732 386.971,322.356 389.134,320.003 391.296,317.674 393.459,315.368 395.621,313.085 397.784,310.825 399.946,308.587 402.109,306.371 404.272,304.178 406.434,302.006 408.597,299.857 410.759,297.728 412.922,295.621 415.084,293.535 417.247,291.469 419.41,289.424 421.572,287.4 423.735,285.395 425.897,283.411 428.06,281.446 430.223,279.501 432.385,277.576 434.548,275.669 436.71,273.782 438.873,271.913 441.035,270.063 443.198,268.231 445.361,266.418 447.523,264.622 449.686,262.845 451.848,261.085 454.011,259.343 456.174,257.618 458.336,255.91 460.499,254.22 462.661,252.546 464.824,250.889 466.986,249.248 469.149,247.623 471.312,246.015 473.474,244.423 475.637,242.846 477.799,241.286 479.962,239.741 482.124,238.211 484.287,236.696 486.45,235.197 488.612,233.712 490.775,232.243 492.937,230.787 495.1,229.347 497.263,227.921 499.425,226.509 501.588,225.111 503.75,223.727 505.913,222.356 508.075,221 510.238,219.657 512.401,218.327 514.563,217.011 516.726,215.707 518.888,214.417 521.051,213.14 523.213,211.875 525.376,210.623 527.539,209.383 529.701,208.156 531.864,206.941 534.026,205.738 536.189,204.547 538.352,203.368 540.514,202.201 542.677,201.045 544.839,199.901 547.002,198.768 549.164,197.646 551.327,196.536 553.49,195.437 555.652,194.348 557.815,193.271 559.977,192.204 562.14,191.148 564.302,190.102 566.465,189.067 568.628,188.042 570.79,187.027 572.953,186.022 575.115,185.028 577.278,184.043 579.441,183.068 581.603,182.102 583.766,181.147 585.928,180.2 588.091,179.264 590.253,178.336 592.416,177.418 594.579,176.509 596.741,175.609 598.904,174.718 601.066,173.835 603.229,172.962 605.392,172.097 607.554,171.241 609.717,170.394 611.879,169.555 614.042,168.724 616.204,167.902 618.367,167.087 620.53,166.281 622.692,165.483 624.855,164.693 627.017,163.911 629.18,163.137 631.342,162.37 633.505,161.611 635.668,160.859 637.83,160.115 639.993,159.379 642.155,158.65 644.318,157.928 646.481,157.213 648.643,156.506 650.806,155.805 652.968,155.111 655.131,154.425 657.293,153.745 659.456,153.072 661.619,152.406 663.781,151.746 665.944,151.093 668.106,150.446 670.269,149.806 672.431,149.172 674.594,148.544 676.757,147.923 678.919,147.308 681.082,146.699 683.244,146.096 685.407,145.499 687.57,144.908 689.732,144.323 691.895,143.744 694.057,143.17 696.22,142.602 698.382,142.04 700.545,141.483 702.708,140.932 704.87,140.387 707.033,139.846 709.195,139.312 711.358,138.782 713.52,138.258 715.683,137.739 717.846,137.225 720.008,136.716 722.171,136.212 724.333,135.713 726.496,135.22 728.659,134.731 730.821,134.247 732.984,133.768 735.146,133.293 737.309,132.824 739.471,132.359 741.634,131.899 743.797,131.443 745.959,130.992 748.122,130.545 750.284,130.103 752.447,129.665 754.61,129.232 756.772,128.803 758.935,128.378 761.097,127.958 763.26,127.541 765.422,127.129 767.585,126.721 769.748,126.317 771.91,125.917 774.073,125.521 776.235,125.129 778.398,124.741 780.56,124.357 782.723,123.977 784.886,123.6 787.048,123.228 789.211,122.858 791.373,122.493 793.536,122.131 795.699,121.773 797.861,121.419 800.024,121.067 802.186,120.72 804.349,120.376 806.511,120.035 808.674,119.698 810.837,119.364 812.999,119.033 815.162,118.706 817.324,118.382 819.487,118.061 821.649,117.743 823.812,117.429 825.975,117.118 828.137,116.809 830.3,116.504 832.462,116.202 834.625,115.903 836.788,115.606 838.95,115.313 841.113,115.023 843.275,114.735 845.438,114.45 847.6,114.169 849.763,113.889 851.926,113.613 854.088,113.34 856.251,113.069 858.413,112.8 860.576,112.535 862.738,112.272 864.901,112.012 867.064,111.754 869.226,111.499 871.389,111.246 873.551,110.996 875.714,110.749 877.877,110.504 880.039,110.261 882.202,110.021 884.364,109.783 886.527,109.547 888.689,109.314 890.852,109.083 893.015,108.855 895.177,108.629 897.34,108.405 899.502,108.183 901.665,107.964 903.828,107.746 905.99,107.531 908.153,107.318 910.315,107.108 912.478,106.899 914.64,106.692 916.803,106.488 918.966,106.285 921.128,106.085 923.291,105.886 925.453,105.69 927.616,105.496 929.778,105.303 931.941,105.112 934.104,104.924 936.266,104.737 938.429,104.552 940.591,104.369 942.754,104.188 944.917,104.008 947.079,103.83 949.242,103.655 951.404,103.481 953.567,103.308 955.729,103.137 957.892,102.969 960.055,102.801 962.217,102.636 964.38,102.472 966.542,102.309 968.705,102.149 970.867,101.99 973.03,101.832 975.193,101.676 977.355,101.522 979.518,101.369 981.68,101.218 983.843,101.068 986.006,100.919 988.168,100.772 990.331,100.627 992.493,100.483 994.656,100.34 996.818,100.199 998.981,100.059 1001.14,99.921 1003.31,99.784 1005.47,99.6483 1007.63,99.514 1009.79,99.3809 1011.96,99.2492 1014.12,99.1188 1016.28,98.9896 1018.44,98.8617 1020.61,98.7351 1022.77,98.6097 1024.93,98.4855 1027.09,98.3626 1029.26,98.2409 1031.42,98.1204 1033.58,98.0011 1035.74,97.883 1037.91,97.766 1040.07,97.6502 1042.23,97.5356 1044.4,97.4221 1046.56,97.3097 1048.72,97.1985 1050.88,97.0883 1053.05,96.9793 1055.21,96.8713 1057.37,96.7645 1059.53,96.6586 1061.7,96.5539 1063.86,96.4502 1066.02,96.3475 1068.18,96.2459 1070.35,96.1453 1072.51,96.0457 1074.67,95.9471 1076.83,95.8495 1079,95.7528 1081.16,95.6572 1083.32,95.5625 1085.48,95.4687 1087.65,95.3759 1089.81,95.2841 1091.97,95.1931 1094.13,95.1031 1096.3,95.014 1098.46,94.9257 1100.62,94.8384 1102.78,94.752 1104.95,94.6664 1107.11,94.5817 1109.27,94.4978 1111.44,94.4148 1113.6,94.3326 1115.76,94.2512 1117.92,94.1707 1120.09,94.091 1122.25,94.012 1124.41,93.9339 1126.57,93.8566 1128.74,93.78 1130.9,93.7042 1133.06,93.6292 1135.22,93.5549 1137.39,93.4813 1139.55,93.4085 1141.71,93.3365 1143.87,93.2651 1146.04,93.1945 1148.2,93.1246 1150.36,93.0554 1152.52,92.9868 1154.69,92.919 1156.85,92.8518 1159.01,92.7853 1161.17,92.7195 1163.34,92.6543 1165.5,92.5897 1167.66,92.5258 1169.82,92.4626 1171.99,92.3999 1174.15,92.3379 1176.31,92.2765 1178.48,92.2157 1180.64,92.1555 1182.8,92.0959 1184.96,92.0369 1187.13,91.9785 1189.29,91.9206 1191.45,91.8633 1193.61,91.8066 1195.78,91.7504 1197.94,91.6947 1200.1,91.6396 1202.26,91.5851 1204.43,91.531 1206.59,91.4775 1208.75,91.4245 1210.91,91.372 1213.08,91.3201 1215.24,91.2686 1217.4,91.2176 1219.56,91.1671 1221.73,91.1171 1223.89,91.0676 1226.05,91.0186 1228.21,90.9701 1230.38,90.922 1232.54,90.8745 1234.7,90.8273 1236.86,90.7807 1239.03,90.7345 1241.19,90.6888 1243.35,90.6435 1245.52,90.5986 1247.68,90.5543 1249.84,90.5103 1252,90.4668 1254.17,90.4237 1256.33,90.3811 1258.49,90.3388 1260.65,90.297 1262.82,90.2557 1264.98,90.2147 1267.14,90.1741 1269.3,90.134 1271.47,90.0942 1273.63,90.0549 1275.79,90.016 1277.95,89.9774 1280.12,89.9392 1282.28,89.9014 1284.44,89.8641 1286.6,89.827 1288.77,89.7904 1290.93,89.7541 1293.09,89.7182 1295.25,89.6827 1297.42,89.6475 1299.58,89.6127 1301.74,89.5782 1303.9,89.5441 1306.07,89.5103 1308.23,89.4769 1310.39,89.4438 1312.56,89.4111 1314.72,89.3786 1316.88,89.3466 1319.04,89.3148 1321.21,89.2834 1323.37,89.2523 1325.53,89.2215 1327.69,89.191 1329.86,89.1608 1332.02,89.131 1334.18,89.1014 1336.34,89.0722 1338.51,89.0432 1340.67,89.0145 1342.83,88.9862 1344.99,88.9581 1347.16,88.9303 1349.32,88.9028 1351.48,88.8756 1353.64,88.8486 1355.81,88.8219 1357.97,88.7955 1360.13,88.7694 1362.29,88.7435 1364.46,88.7179 1366.62,88.6925 1368.78,88.6674 1370.94,88.6426 1373.11,88.618 1375.27,88.5937 1377.43,88.5696 1379.6,88.5457 1381.76,88.5221 1383.92,88.4987 1386.08,88.4755 1388.25,88.4526 1390.41,88.4299 1392.57,88.4074 1394.73,88.3852 1396.9,88.3632 1399.06,88.3414 1401.22,88.3198 1403.38,88.2984 1405.55,88.2772 1407.71,88.2562 1409.87,88.2355 1412.03,88.2149 1414.2,88.1945 1416.36,88.1743 1418.52,88.1544 1420.68,88.1346 1422.85,88.115 1425.01,88.0956 1427.17,88.0763 1429.33,88.0573 1431.5,88.0384 1433.66,88.0197 1435.82,88.0012 1437.98,87.9828 1440.15,87.9647 1442.31,87.9466 1444.47,87.9288 1446.64,87.9111 1448.8,87.8936 1450.96,87.8763 1453.12,87.8591 1455.29,87.8421 1457.45,87.8253 1459.61,87.8086 1461.77,87.792 1463.94,87.7757 1466.1,87.7595 1468.26,87.7434 1470.42,87.7275 1472.59,87.7118 1474.75,87.6962 1476.91,87.6807 1479.07,87.6654 1481.24,87.6503 1483.4,87.6353 1485.56,87.6205 1487.72,87.6058 1489.89,87.5912 1492.05,87.5768 1494.21,87.5626 1496.37,87.5484 1498.54,87.5345 1500.7,87.5206 1502.86,87.5069 1505.02,87.4934 1507.19,87.4799 1509.35,87.4666 1511.51,87.4535 1513.67,87.4405 1515.84,87.4276 1518,87.4148 1520.16,87.4022 1522.33,87.3897 1524.49,87.3773 1526.65,87.3651 1528.81,87.3529 1530.98,87.3409 1533.14,87.3291 1535.3,87.3173 1537.46,87.3057 1539.63,87.2942 1541.79,87.2828 1543.95,87.2715 1546.11,87.2603 1548.28,87.2493 1550.44,87.2384 1552.6,87.2276 1554.76,87.2169 1556.93,87.2063 1559.09,87.1958 1561.25,87.1854 1563.41,87.1752 1565.58,87.165 1567.74,87.155 1569.9,87.145 1572.06,87.1352 1574.23,87.1255 1576.39,87.1159 1578.55,87.1063 1580.71,87.0969 1582.88,87.0876 1585.04,87.0783 1587.2,87.0692 1589.37,87.0602 1591.53,87.0512 1593.69,87.0424 1595.85,87.0336 1598.02,87.025 1600.18,87.0164 1602.34,87.0079 1604.5,86.9995 1606.67,86.9912 1608.83,86.983 1610.99,86.9749 1613.15,86.9668 1615.32,86.9589 1617.48,86.951 1619.64,86.9432 1621.8,86.9355 1623.97,86.9279 1626.13,86.9203 1628.29,86.9128 1630.45,86.9054 1632.62,86.8981 1634.78,86.8909 1636.94,86.8837 1639.1,86.8766 1641.27,86.8696 1643.43,86.8626 1645.59,86.8557 1647.75,86.8489 1649.92,86.8422 1652.08,86.8355 1654.24,86.8289 1656.41,86.8223 1658.57,86.8158 1660.73,86.8094 1662.89,86.8031 1665.06,86.7968 1667.22,86.7905 1669.38,86.7844 1671.54,86.7783 1673.71,86.7722 1675.87,86.7662 1678.03,86.7603 1680.19,86.7544 1682.36,86.7486 1684.52,86.7428 1686.68,86.737 1688.84,86.7314 1691.01,86.7258 1693.17,86.7202 1695.33,86.7147 1697.49,86.7092 1699.66,86.7038 1701.82,86.6984 1703.98,86.693 1706.14,86.6877 1708.31,86.6825 1710.47,86.6773 1712.63,86.6721 1714.79,86.667 1716.96,86.6619 1719.12,86.6569 1721.28,86.6519 1723.45,86.647 1725.61,86.6421 1727.77,86.6372 1729.93,86.6324 1732.1,86.6276 1734.26,86.6229 1736.42,86.6182 1738.58,86.6136 1740.75,86.609 1742.91,86.6044 1745.07,86.5999 1747.23,86.5954 1749.4,86.591 1751.56,86.5866 1753.72,86.5823 1755.88,86.578 1758.05,86.5737 1760.21,86.5695 1762.37,86.5653 1764.53,86.5611 1766.7,86.557 1768.86,86.553 1771.02,86.5489 1773.18,86.545 1775.35,86.541 1777.51,86.5371 1779.67,86.5332 1781.83,86.5294 1784,86.5256 1786.16,86.5218 1788.32,86.5181 1790.49,86.5144 1792.65,86.5108 1794.81,86.5072 1796.97,86.5036 1799.14,86.5001 1801.3,86.4966 1803.46,86.4931 1805.62,86.4897 1807.79,86.4863 1809.95,86.4829 1812.11,86.4796 1814.27,86.4763 1816.44,86.4731 1818.6,86.4698 1820.76,86.4667 1822.92,86.4635 1825.09,86.4604 1827.25,86.4573 1829.41,86.4543 1831.57,86.4512 1833.74,86.4483 1835.9,86.4453 1838.06,86.4424 1840.22,86.4395 1842.39,86.4366 1844.55,86.4338 1846.71,86.431 1848.87,86.4282 1851.04,86.4255 1853.2,86.4228 1855.36,86.4201 1857.53,86.4175 1859.69,86.4149 1861.85,86.4123 1864.01,86.4097 1866.18,86.4072 1868.34,86.4047 1870.5,86.4022 1872.66,86.3998 1874.83,86.3974 1876.99,86.395 1879.15,86.3926 1881.31,86.3903 1883.48,86.388 1885.64,86.3857 1887.8,86.3835 1889.96,86.3812 1892.13,86.379 1894.29,86.3768 1896.45,86.3747 1898.61,86.3726 1900.78,86.3705 1902.94,86.3684 1905.1,86.3663 1907.26,86.3643 1909.43,86.3623 1911.59,86.3603 1913.75,86.3584 1915.91,86.3564 1918.08,86.3545 1920.24,86.3526 1922.4,86.3507 1924.57,86.3489 1926.73,86.347 1928.89,86.3452 1931.05,86.3434 1933.22,86.3417 1935.38,86.3399 1937.54,86.3382 1939.7,86.3365 1941.87,86.3348 1944.03,86.3331 1946.19,86.3315 1948.35,86.3298 1950.52,86.3282 1952.68,86.3266 1954.84,86.3251 1957,86.3235 1959.17,86.3219 1961.33,86.3204 1963.49,86.3189 1965.65,86.3174 1967.82,86.3159 1969.98,86.3144 1972.14,86.313 1974.3,86.3116 1976.47,86.3101 1978.63,86.3087 1980.79,86.3073 1982.95,86.3059 1985.12,86.3046 1987.28,86.3032 1989.44,86.3019 1991.61,86.3006 1993.77,86.2992 1995.93,86.2979 1998.09,86.2966 2000.26,86.2953 2002.42,86.2941 2004.58,86.2928 2006.74,86.2916 2008.91,86.2903 2011.07,86.2891 2013.23,86.2879 2015.39,86.2866 2017.56,86.2854 2019.72,86.2842 2021.88,86.283 2024.04,86.2819 2026.21,86.2807 2028.37,86.2795 2030.53,86.2783 2032.69,86.2772 2034.86,86.276 2037.02,86.2749 2039.18,86.2738 2041.34,86.2726 2043.51,86.2715 2045.67,86.2704 2047.83,86.2692 2049.99,86.2681 2052.16,86.267 2054.32,86.266 2056.48,86.2649 2058.65,86.2638 2060.81,86.2628 2062.97,86.2617 2065.13,86.2607 2067.3,86.2596 2069.46,86.2586 2071.62,86.2576 2073.78,86.2566 2075.95,86.2556 2078.11,86.2546 2080.27,86.2537 2082.43,86.2527 2084.6,86.2518 2086.76,86.2508 2088.92,86.2499 2091.08,86.249 2093.25,86.248 2095.41,86.2471 2097.57,86.2462 2099.73,86.2454 2101.9,86.2445 2104.06,86.2436 2106.22,86.2427 2108.38,86.2419 2110.55,86.241 2112.71,86.2402 2114.87,86.2394 2117.03,86.2385 2119.2,86.2377 2121.36,86.2369 2123.52,86.2361 2125.69,86.2353 2127.85,86.2346 2130.01,86.2338 2132.17,86.233 2134.34,86.2323 2136.5,86.2315 2138.66,86.2308 2140.82,86.23 2142.99,86.2293 2145.15,86.2286 2147.31,86.2279 2149.47,86.2272 2151.64,86.2265 2153.8,86.2258 2155.96,86.2251 2158.12,86.2244 2160.29,86.2238 2162.45,86.2231 2164.61,86.2225 2166.77,86.2218 2168.94,86.2212 2171.1,86.2205 2173.26,86.2199 2175.42,86.2193 2177.59,86.2187 2179.75,86.2181 2181.91,86.2175 2184.07,86.2169 2186.24,86.2163 2188.4,86.2157 2190.56,86.2151 2192.73,86.2146 2194.89,86.214 2197.05,86.2135 2199.21,86.2129 2201.38,86.2124 2203.54,86.2118 2205.7,86.2113 2207.86,86.2108 2210.03,86.2103 2212.19,86.2097 2214.35,86.2092 2216.51,86.2087 2218.68,86.2082 2220.84,86.2077 2223,86.2073 2225.16,86.2068 2227.33,86.2063 2229.49,86.2058 2231.65,86.2054 2233.81,86.2049 2235.98,86.2045 2238.14,86.204 2240.3,86.2036 2242.46,86.2031 2244.63,86.2027 2246.79,86.2023 2248.95,86.2018 2251.11,86.2014 2253.28,86.201 2255.44,86.2006 2257.6,86.2002 2259.76,86.1998 2261.93,86.1994 2264.09,86.199 2266.25,86.1986 2268.42,86.1982 2270.58,86.1978 2272.74,86.1974 2274.9,86.1971 2277.07,86.1967 2279.23,86.1963 2281.39,86.196 2283.55,86.1956 2285.72,86.1952 2287.88,86.1949 2290.04,86.1945 2292.2,86.1942 2294.37,86.1939 2296.53,86.1935 2298.69,86.1932 2300.85,86.1928 2303.02,86.1925 2305.18,86.1922 2307.34,86.1919 2309.5,86.1915 2311.67,86.1912 2313.83,86.1909 2315.99,86.1906 2318.15,86.1903 2320.32,86.19 2322.48,86.1897 2324.64,86.1894 2326.8,86.1891 2328.97,86.1888 2331.13,86.1885 2333.29,86.1882 2335.46,86.1879 2337.62,86.1876 2339.78,86.1873 2341.94,86.1871 2344.11,86.1868 2346.27,86.1865 2348.43,86.1862 2350.59,86.1859 2352.76,86.1857 "/>
<polyline clip-path="url(#clip302)" style="stroke:#e26f46; stroke-linecap:round; stroke-linejoin:round; stroke-width:4; stroke-opacity:1; fill:none" points="192.339,1384.24 194.501,1372.17 196.664,1360.22 198.827,1348.39 200.989,1336.66 203.152,1325.05 205.314,1313.55 207.477,1302.16 209.639,1290.88 211.802,1279.7 213.965,1268.63 216.127,1257.67 218.29,1246.81 220.452,1236.05 222.615,1225.4 224.777,1214.84 226.94,1204.39 229.103,1194.04 231.265,1183.78 233.428,1173.63 235.59,1163.57 237.753,1153.6 239.916,1143.73 242.078,1133.96 244.241,1124.27 246.403,1114.68 248.566,1105.18 250.728,1095.77 252.891,1086.45 255.054,1077.21 257.216,1068.07 259.379,1059.01 261.541,1050.04 263.704,1041.15 265.866,1032.35 268.029,1023.63 270.192,1014.99 272.354,1006.44 274.517,997.961 276.679,989.567 278.842,981.252 281.005,973.016 283.167,964.859 285.33,956.778 287.492,948.774 289.655,940.845 291.817,932.992 293.98,925.213 296.143,917.507 298.305,909.875 300.468,902.314 302.63,894.825 304.793,887.406 306.956,880.058 309.118,872.779 311.281,865.569 313.443,858.427 315.606,851.352 317.768,844.344 319.931,837.402 322.094,830.526 324.256,823.715 326.419,816.967 328.581,810.284 330.744,803.663 332.906,797.105 335.069,790.608 337.232,784.173 339.394,777.799 341.557,771.484 343.719,765.229 345.882,759.033 348.045,752.895 350.207,746.815 352.37,740.792 354.532,734.826 356.695,728.915 358.857,723.061 361.02,717.261 363.183,711.516 365.345,705.825 367.508,700.188 369.67,694.603 371.833,689.071 373.995,683.59 376.158,678.162 378.321,672.784 380.483,667.456 382.646,662.179 384.808,656.951 386.971,651.772 389.134,646.641 391.296,641.559 393.459,636.524 395.621,631.536 397.784,626.595 399.946,621.701 402.109,616.852 404.272,612.048 406.434,607.29 408.597,602.576 410.759,597.906 412.922,593.28 415.084,588.698 417.247,584.158 419.41,579.66 421.572,575.205 423.735,570.791 425.897,566.418 428.06,562.086 430.223,557.795 432.385,553.544 434.548,549.332 436.71,545.16 438.873,541.027 441.035,536.932 443.198,532.875 445.361,528.857 447.523,524.875 449.686,520.931 451.848,517.023 454.011,513.152 456.174,509.317 458.336,505.517 460.499,501.753 462.661,498.024 464.824,494.33 466.986,490.67 469.149,487.044 471.312,483.451 473.474,479.892 475.637,476.366 477.799,472.873 479.962,469.412 482.124,465.983 484.287,462.586 486.45,459.221 488.612,455.886 490.775,452.583 492.937,449.31 495.1,446.068 497.263,442.856 499.425,439.674 501.588,436.521 503.75,433.397 505.913,430.302 508.075,427.236 510.238,424.198 512.401,421.189 514.563,418.207 516.726,415.253 518.888,412.326 521.051,409.426 523.213,406.553 525.376,403.707 527.539,400.887 529.701,398.093 531.864,395.324 534.026,392.582 536.189,389.864 538.352,387.172 540.514,384.505 542.677,381.862 544.839,379.243 547.002,376.649 549.164,374.078 551.327,371.531 553.49,369.008 555.652,366.507 557.815,364.03 559.977,361.576 562.14,359.144 564.302,356.734 566.465,354.347 568.628,351.981 570.79,349.637 572.953,347.315 575.115,345.014 577.278,342.734 579.441,340.475 581.603,338.236 583.766,336.018 585.928,333.821 588.091,331.643 590.253,329.486 592.416,327.348 594.579,325.23 596.741,323.131 598.904,321.052 601.066,318.991 603.229,316.949 605.392,314.926 607.554,312.922 609.717,310.936 611.879,308.968 614.042,307.018 616.204,305.086 618.367,303.172 620.53,301.275 622.692,299.395 624.855,297.533 627.017,295.687 629.18,293.859 631.342,292.047 633.505,290.252 635.668,288.473 637.83,286.71 639.993,284.963 642.155,283.233 644.318,281.518 646.481,279.818 648.643,278.134 650.806,276.466 652.968,274.812 655.131,273.174 657.293,271.55 659.456,269.942 661.619,268.347 663.781,266.768 665.944,265.202 668.106,263.651 670.269,262.114 672.431,260.591 674.594,259.081 676.757,257.585 678.919,256.103 681.082,254.634 683.244,253.179 685.407,251.736 687.57,250.307 689.732,248.89 691.895,247.486 694.057,246.095 696.22,244.717 698.382,243.351 700.545,241.997 702.708,240.655 704.87,239.325 707.033,238.007 709.195,236.702 711.358,235.408 713.52,234.125 715.683,232.854 717.846,231.595 720.008,230.346 722.171,229.11 724.333,227.884 726.496,226.669 728.659,225.465 730.821,224.272 732.984,223.09 735.146,221.918 737.309,220.757 739.471,219.606 741.634,218.466 743.797,217.336 745.959,216.216 748.122,215.106 750.284,214.006 752.447,212.916 754.61,211.836 756.772,210.766 758.935,209.705 761.097,208.653 763.26,207.611 765.422,206.579 767.585,205.555 769.748,204.541 771.91,203.536 774.073,202.539 776.235,201.552 778.398,200.574 780.56,199.604 782.723,198.643 784.886,197.69 787.048,196.746 789.211,195.811 791.373,194.884 793.536,193.965 795.699,193.054 797.861,192.151 800.024,191.256 802.186,190.37 804.349,189.491 806.511,188.62 808.674,187.756 810.837,186.901 812.999,186.053 815.162,185.212 817.324,184.379 819.487,183.553 821.649,182.735 823.812,181.923 825.975,181.119 828.137,180.322 830.3,179.532 832.462,178.749 834.625,177.973 836.788,177.204 838.95,176.441 841.113,175.685 843.275,174.936 845.438,174.193 847.6,173.457 849.763,172.727 851.926,172.004 854.088,171.287 856.251,170.576 858.413,169.872 860.576,169.174 862.738,168.481 864.901,167.795 867.064,167.115 869.226,166.441 871.389,165.773 873.551,165.111 875.714,164.454 877.877,163.804 880.039,163.159 882.202,162.519 884.364,161.886 886.527,161.257 888.689,160.635 890.852,160.018 893.015,159.406 895.177,158.8 897.34,158.198 899.502,157.603 901.665,157.012 903.828,156.427 905.99,155.846 908.153,155.271 910.315,154.701 912.478,154.136 914.64,153.576 916.803,153.021 918.966,152.47 921.128,151.925 923.291,151.384 925.453,150.848 927.616,150.316 929.778,149.789 931.941,149.267 934.104,148.75 936.266,148.236 938.429,147.728 940.591,147.223 942.754,146.724 944.917,146.228 947.079,145.737 949.242,145.25 951.404,144.767 953.567,144.289 955.729,143.814 957.892,143.344 960.055,142.878 962.217,142.416 964.38,141.958 966.542,141.503 968.705,141.053 970.867,140.607 973.03,140.164 975.193,139.725 977.355,139.29 979.518,138.859 981.68,138.431 983.843,138.008 986.006,137.587 988.168,137.171 990.331,136.757 992.493,136.348 994.656,135.942 996.818,135.539 998.981,135.14 1001.14,134.744 1003.31,134.352 1005.47,133.963 1007.63,133.577 1009.79,133.194 1011.96,132.815 1014.12,132.439 1016.28,132.066 1018.44,131.696 1020.61,131.329 1022.77,130.966 1024.93,130.605 1027.09,130.248 1029.26,129.894 1031.42,129.542 1033.58,129.194 1035.74,128.848 1037.91,128.506 1040.07,128.166 1042.23,127.83 1044.4,127.496 1046.56,127.165 1048.72,126.836 1050.88,126.511 1053.05,126.188 1055.21,125.868 1057.37,125.551 1059.53,125.237 1061.7,124.925 1063.86,124.616 1066.02,124.309 1068.18,124.005 1070.35,123.704 1072.51,123.405 1074.67,123.109 1076.83,122.815 1079,122.524 1081.16,122.235 1083.32,121.949 1085.48,121.665 1087.65,121.383 1089.81,121.104 1091.97,120.828 1094.13,120.553 1096.3,120.281 1098.46,120.011 1100.62,119.744 1102.78,119.479 1104.95,119.216 1107.11,118.955 1109.27,118.697 1111.44,118.44 1113.6,118.186 1115.76,117.934 1117.92,117.684 1120.09,117.437 1122.25,117.191 1124.41,116.947 1126.57,116.706 1128.74,116.466 1130.9,116.229 1133.06,115.993 1135.22,115.76 1137.39,115.528 1139.55,115.298 1141.71,115.071 1143.87,114.845 1146.04,114.621 1148.2,114.399 1150.36,114.179 1152.52,113.96 1154.69,113.744 1156.85,113.529 1159.01,113.316 1161.17,113.105 1163.34,112.895 1165.5,112.687 1167.66,112.481 1169.82,112.277 1171.99,112.074 1174.15,111.874 1176.31,111.674 1178.48,111.477 1180.64,111.28 1182.8,111.086 1184.96,110.893 1187.13,110.702 1189.29,110.512 1191.45,110.324 1193.61,110.137 1195.78,109.952 1197.94,109.768 1200.1,109.586 1202.26,109.406 1204.43,109.226 1206.59,109.049 1208.75,108.872 1210.91,108.697 1213.08,108.524 1215.24,108.352 1217.4,108.181 1219.56,108.011 1221.73,107.843 1223.89,107.677 1226.05,107.511 1228.21,107.347 1230.38,107.185 1232.54,107.023 1234.7,106.863 1236.86,106.705 1239.03,106.547 1241.19,106.391 1243.35,106.236 1245.52,106.082 1247.68,105.93 1249.84,105.779 1252,105.629 1254.17,105.48 1256.33,105.333 1258.49,105.186 1260.65,105.041 1262.82,104.897 1264.98,104.755 1267.14,104.613 1269.3,104.473 1271.47,104.333 1273.63,104.195 1275.79,104.058 1277.95,103.922 1280.12,103.787 1282.28,103.654 1284.44,103.521 1286.6,103.389 1288.77,103.259 1290.93,103.13 1293.09,103.001 1295.25,102.874 1297.42,102.748 1299.58,102.622 1301.74,102.498 1303.9,102.375 1306.07,102.253 1308.23,102.132 1310.39,102.011 1312.56,101.892 1314.72,101.774 1316.88,101.657 1319.04,101.54 1321.21,101.425 1323.37,101.31 1325.53,101.197 1327.69,101.084 1329.86,100.973 1332.02,100.862 1334.18,100.752 1336.34,100.643 1338.51,100.535 1340.67,100.428 1342.83,100.321 1344.99,100.216 1347.16,100.111 1349.32,100.007 1351.48,99.9044 1353.64,99.8022 1355.81,99.7009 1357.97,99.6004 1360.13,99.5007 1362.29,99.4018 1364.46,99.3037 1366.62,99.2063 1368.78,99.1098 1370.94,99.014 1373.11,98.919 1375.27,98.8247 1377.43,98.7312 1379.6,98.6384 1381.76,98.5463 1383.92,98.455 1386.08,98.3644 1388.25,98.2745 1390.41,98.1853 1392.57,98.0969 1394.73,98.0091 1396.9,97.922 1399.06,97.8355 1401.22,97.7498 1403.38,97.6647 1405.55,97.5803 1407.71,97.4965 1409.87,97.4134 1412.03,97.3309 1414.2,97.249 1416.36,97.1678 1418.52,97.0872 1420.68,97.0072 1422.85,96.9278 1425.01,96.849 1427.17,96.7708 1429.33,96.6932 1431.5,96.6162 1433.66,96.5397 1435.82,96.4639 1437.98,96.3886 1440.15,96.3138 1442.31,96.2396 1444.47,96.166 1446.64,96.0929 1448.8,96.0204 1450.96,95.9484 1453.12,95.877 1455.29,95.8061 1457.45,95.7357 1459.61,95.6659 1461.77,95.5966 1463.94,95.5278 1466.1,95.4596 1468.26,95.3918 1470.42,95.3246 1472.59,95.2579 1474.75,95.1917 1476.91,95.126 1479.07,95.0608 1481.24,94.9961 1483.4,94.932 1485.56,94.8682 1487.72,94.805 1489.89,94.7423 1492.05,94.68 1494.21,94.6183 1496.37,94.557 1498.54,94.4962 1500.7,94.4358 1502.86,94.3759 1505.02,94.3165 1507.19,94.2575 1509.35,94.199 1511.51,94.1409 1513.67,94.0833 1515.84,94.0262 1518,93.9694 1520.16,93.9132 1522.33,93.8573 1524.49,93.8019 1526.65,93.7469 1528.81,93.6924 1530.98,93.6382 1533.14,93.5845 1535.3,93.5312 1537.46,93.4783 1539.63,93.4259 1541.79,93.3738 1543.95,93.3222 1546.11,93.2709 1548.28,93.2201 1550.44,93.1696 1552.6,93.1195 1554.76,93.0699 1556.93,93.0206 1559.09,92.9717 1561.25,92.9232 1563.41,92.875 1565.58,92.8273 1567.74,92.7799 1569.9,92.7328 1572.06,92.6862 1574.23,92.6399 1576.39,92.5939 1578.55,92.5483 1580.71,92.5031 1582.88,92.4582 1585.04,92.4137 1587.2,92.3695 1589.37,92.3257 1591.53,92.2822 1593.69,92.239 1595.85,92.1962 1598.02,92.1537 1600.18,92.1115 1602.34,92.0697 1604.5,92.0282 1606.67,91.987 1608.83,91.9461 1610.99,91.9055 1613.15,91.8652 1615.32,91.8253 1617.48,91.7856 1619.64,91.7463 1621.8,91.7073 1623.97,91.6685 1626.13,91.6301 1628.29,91.5919 1630.45,91.554 1632.62,91.5164 1634.78,91.4791 1636.94,91.4421 1639.1,91.4054 1641.27,91.3689 1643.43,91.3327 1645.59,91.2968 1647.75,91.2612 1649.92,91.2258 1652.08,91.1906 1654.24,91.1558 1656.41,91.1212 1658.57,91.0868 1660.73,91.0527 1662.89,91.0189 1665.06,90.9852 1667.22,90.9519 1669.38,90.9188 1671.54,90.8859 1673.71,90.8532 1675.87,90.8208 1678.03,90.7886 1680.19,90.7567 1682.36,90.725 1684.52,90.6935 1686.68,90.6622 1688.84,90.6311 1691.01,90.6003 1693.17,90.5697 1695.33,90.5392 1697.49,90.509 1699.66,90.479 1701.82,90.4492 1703.98,90.4196 1706.14,90.3902 1708.31,90.361 1710.47,90.332 1712.63,90.3032 1714.79,90.2746 1716.96,90.2462 1719.12,90.2179 1721.28,90.1899 1723.45,90.1621 1725.61,90.1344 1727.77,90.107 1729.93,90.0797 1732.1,90.0526 1734.26,90.0257 1736.42,89.999 1738.58,89.9725 1740.75,89.9461 1742.91,89.92 1745.07,89.894 1747.23,89.8682 1749.4,89.8426 1751.56,89.8172 1753.72,89.7919 1755.88,89.7669 1758.05,89.742 1760.21,89.7173 1762.37,89.6927 1764.53,89.6683 1766.7,89.6442 1768.86,89.6201 1771.02,89.5963 1773.18,89.5726 1775.35,89.5491 1777.51,89.5258 1779.67,89.5026 1781.83,89.4796 1784,89.4567 1786.16,89.4341 1788.32,89.4115 1790.49,89.3892 1792.65,89.367 1794.81,89.345 1796.97,89.3231 1799.14,89.3014 1801.3,89.2799 1803.46,89.2585 1805.62,89.2372 1807.79,89.2162 1809.95,89.1952 1812.11,89.1745 1814.27,89.1539 1816.44,89.1334 1818.6,89.1131 1820.76,89.0929 1822.92,89.0729 1825.09,89.053 1827.25,89.0333 1829.41,89.0137 1831.57,88.9943 1833.74,88.975 1835.9,88.9559 1838.06,88.9369 1840.22,88.918 1842.39,88.8993 1844.55,88.8807 1846.71,88.8623 1848.87,88.844 1851.04,88.8258 1853.2,88.8078 1855.36,88.7899 1857.53,88.7721 1859.69,88.7545 1861.85,88.737 1864.01,88.7196 1866.18,88.7024 1868.34,88.6853 1870.5,88.6683 1872.66,88.6514 1874.83,88.6347 1876.99,88.6181 1879.15,88.6016 1881.31,88.5852 1883.48,88.569 1885.64,88.5529 1887.8,88.5369 1889.96,88.521 1892.13,88.5053 1894.29,88.4897 1896.45,88.4741 1898.61,88.4587 1900.78,88.4434 1902.94,88.4283 1905.1,88.4132 1907.26,88.3983 1909.43,88.3834 1911.59,88.3687 1913.75,88.3541 1915.91,88.3396 1918.08,88.3252 1920.24,88.3109 1922.4,88.2967 1924.57,88.2826 1926.73,88.2686 1928.89,88.2547 1931.05,88.241 1933.22,88.2273 1935.38,88.2137 1937.54,88.2002 1939.7,88.1869 1941.87,88.1736 1944.03,88.1604 1946.19,88.1473 1948.35,88.1343 1950.52,88.1214 1952.68,88.1086 1954.84,88.0959 1957,88.0832 1959.17,88.0707 1961.33,88.0583 1963.49,88.0459 1965.65,88.0336 1967.82,88.0214 1969.98,88.0093 1972.14,87.9973 1974.3,87.9854 1976.47,87.9735 1978.63,87.9617 1980.79,87.95 1982.95,87.9384 1985.12,87.9269 1987.28,87.9154 1989.44,87.904 1991.61,87.8927 1993.77,87.8815 1995.93,87.8704 1998.09,87.8593 2000.26,87.8483 2002.42,87.8373 2004.58,87.8264 2006.74,87.8156 2008.91,87.8049 2011.07,87.7942 2013.23,87.7836 2015.39,87.7731 2017.56,87.7626 2019.72,87.7522 2021.88,87.7419 2024.04,87.7316 2026.21,87.7214 2028.37,87.7112 2030.53,87.7011 2032.69,87.6911 2034.86,87.6811 2037.02,87.6711 2039.18,87.6613 2041.34,87.6514 2043.51,87.6417 2045.67,87.632 2047.83,87.6223 2049.99,87.6127 2052.16,87.6032 2054.32,87.5937 2056.48,87.5843 2058.65,87.575 2060.81,87.5657 2062.97,87.5565 2065.13,87.5473 2067.3,87.5383 2069.46,87.5292 2071.62,87.5202 2073.78,87.5113 2075.95,87.5025 2078.11,87.4937 2080.27,87.485 2082.43,87.4763 2084.6,87.4677 2086.76,87.4591 2088.92,87.4506 2091.08,87.4422 2093.25,87.4338 2095.41,87.4254 2097.57,87.4172 2099.73,87.4089 2101.9,87.4008 2104.06,87.3927 2106.22,87.3846 2108.38,87.3766 2110.55,87.3687 2112.71,87.3608 2114.87,87.3529 2117.03,87.3451 2119.2,87.3374 2121.36,87.3297 2123.52,87.3221 2125.69,87.3145 2127.85,87.307 2130.01,87.2995 2132.17,87.2921 2134.34,87.2847 2136.5,87.2774 2138.66,87.2701 2140.82,87.2629 2142.99,87.2557 2145.15,87.2486 2147.31,87.2416 2149.47,87.2345 2151.64,87.2276 2153.8,87.2206 2155.96,87.2137 2158.12,87.2069 2160.29,87.2001 2162.45,87.1934 2164.61,87.1867 2166.77,87.18 2168.94,87.1734 2171.1,87.1669 2173.26,87.1604 2175.42,87.1539 2177.59,87.1475 2179.75,87.1411 2181.91,87.1348 2184.07,87.1285 2186.24,87.1222 2188.4,87.116 2190.56,87.1099 2192.73,87.1037 2194.89,87.0977 2197.05,87.0916 2199.21,87.0856 2201.38,87.0797 2203.54,87.0738 2205.7,87.0679 2207.86,87.0621 2210.03,87.0563 2212.19,87.0505 2214.35,87.0448 2216.51,87.0391 2218.68,87.0335 2220.84,87.0279 2223,87.0223 2225.16,87.0168 2227.33,87.0113 2229.49,87.0059 2231.65,87.0005 2233.81,86.9951 2235.98,86.9898 2238.14,86.9845 2240.3,86.9792 2242.46,86.974 2244.63,86.9688 2246.79,86.9637 2248.95,86.9585 2251.11,86.9535 2253.28,86.9484 2255.44,86.9434 2257.6,86.9384 2259.76,86.9335 2261.93,86.9285 2264.09,86.9237 2266.25,86.9188 2268.42,86.914 2270.58,86.9092 2272.74,86.9044 2274.9,86.8997 2277.07,86.895 2279.23,86.8904 2281.39,86.8857 2283.55,86.8811 2285.72,86.8766 2287.88,86.872 2290.04,86.8675 2292.2,86.8631 2294.37,86.8586 2296.53,86.8542 2298.69,86.8498 2300.85,86.8454 2303.02,86.8411 2305.18,86.8368 2307.34,86.8325 2309.5,86.8282 2311.67,86.824 2313.83,86.8198 2315.99,86.8157 2318.15,86.8115 2320.32,86.8074 2322.48,86.8033 2324.64,86.7992 2326.8,86.7952 2328.97,86.7912 2331.13,86.7872 2333.29,86.7832 2335.46,86.7793 2337.62,86.7753 2339.78,86.7714 2341.94,86.7676 2344.11,86.7637 2346.27,86.7599 2348.43,86.7561 2350.59,86.7523 2352.76,86.7485 "/>
<path clip-path="url(#clip300)" d="M1805.3 1377.32 L2280.74 1377.32 L2280.74 1221.8 L1805.3 1221.8  Z" fill="#ffffff" fill-rule="evenodd" fill-opacity="1"/>
<polyline clip-path="url(#clip300)" style="stroke:#000000; stroke-linecap:round; stroke-linejoin:round; stroke-width:4; stroke-opacity:1; fill:none" points="1805.3,1377.32 2280.74,1377.32 2280.74,1221.8 1805.3,1221.8 1805.3,1377.32 "/>
<polyline clip-path="url(#clip300)" style="stroke:#009af9; stroke-linecap:round; stroke-linejoin:round; stroke-width:4; stroke-opacity:1; fill:none" points="1829.31,1273.64 1973.34,1273.64 "/>
<path clip-path="url(#clip300)" d="M1997.34 1264.99 L2001.85 1264.99 L2009.96 1286.75 L2018.06 1264.99 L2022.57 1264.99 L2012.85 1290.92 L2007.06 1290.92 L1997.34 1264.99 Z" fill="#000000" fill-rule="nonzero" fill-opacity="1" /><path clip-path="url(#clip300)" d="M2029.86 1286.98 L2037.5 1286.98 L2037.5 1260.61 L2029.19 1262.28 L2029.19 1258.02 L2037.46 1256.36 L2042.13 1256.36 L2042.13 1286.98 L2049.77 1286.98 L2049.77 1290.92 L2029.86 1290.92 L2029.86 1286.98 Z" fill="#000000" fill-rule="nonzero" fill-opacity="1" /><path clip-path="url(#clip300)" d="M2067.87 1274.27 L2067.87 1281.49 L2076 1281.49 L2076 1283.69 L2067.87 1283.69 L2067.87 1290.92 L2065.44 1290.92 L2065.44 1283.69 L2057.32 1283.69 L2057.32 1281.49 L2065.44 1281.49 L2065.44 1274.27 L2067.87 1274.27 Z" fill="#000000" fill-rule="nonzero" fill-opacity="1" /><path clip-path="url(#clip300)" d="M2100.16 1265.75 L2100.16 1269.78 Q2098.36 1268.86 2096.41 1268.39 Q2094.47 1267.93 2092.39 1267.93 Q2089.22 1267.93 2087.62 1268.9 Q2086.04 1269.87 2086.04 1271.82 Q2086.04 1273.3 2087.18 1274.16 Q2088.31 1274.99 2091.74 1275.75 L2093.2 1276.08 Q2097.73 1277.05 2099.63 1278.83 Q2101.55 1280.59 2101.55 1283.76 Q2101.55 1287.37 2098.68 1289.48 Q2095.84 1291.59 2090.84 1291.59 Q2088.75 1291.59 2086.48 1291.17 Q2084.24 1290.78 2081.74 1289.97 L2081.74 1285.57 Q2084.1 1286.79 2086.39 1287.42 Q2088.68 1288.02 2090.93 1288.02 Q2093.94 1288.02 2095.56 1287 Q2097.18 1285.96 2097.18 1284.09 Q2097.18 1282.35 2096 1281.42 Q2094.84 1280.5 2090.88 1279.64 L2089.4 1279.3 Q2085.44 1278.46 2083.68 1276.75 Q2081.92 1275.01 2081.92 1272 Q2081.92 1268.35 2084.52 1266.36 Q2087.11 1264.36 2091.88 1264.36 Q2094.24 1264.36 2096.32 1264.71 Q2098.4 1265.06 2100.16 1265.75 Z" fill="#000000" fill-rule="nonzero" fill-opacity="1" /><path clip-path="url(#clip300)" d="M2112.55 1257.63 L2112.55 1264.99 L2121.32 1264.99 L2121.32 1268.3 L2112.55 1268.3 L2112.55 1282.37 Q2112.55 1285.54 2113.4 1286.45 Q2114.28 1287.35 2116.95 1287.35 L2121.32 1287.35 L2121.32 1290.92 L2116.95 1290.92 Q2112.02 1290.92 2110.14 1289.09 Q2108.27 1287.23 2108.27 1282.37 L2108.27 1268.3 L2105.14 1268.3 L2105.14 1264.99 L2108.27 1264.99 L2108.27 1257.63 L2112.55 1257.63 Z" fill="#000000" fill-rule="nonzero" fill-opacity="1" /><path clip-path="url(#clip300)" d="M2136.97 1267.98 Q2133.54 1267.98 2131.55 1270.66 Q2129.56 1273.32 2129.56 1277.98 Q2129.56 1282.63 2131.53 1285.31 Q2133.52 1287.98 2136.97 1287.98 Q2140.37 1287.98 2142.36 1285.29 Q2144.35 1282.61 2144.35 1277.98 Q2144.35 1273.37 2142.36 1270.68 Q2140.37 1267.98 2136.97 1267.98 M2136.97 1264.36 Q2142.53 1264.36 2145.7 1267.98 Q2148.87 1271.59 2148.87 1277.98 Q2148.87 1284.34 2145.7 1287.98 Q2142.53 1291.59 2136.97 1291.59 Q2131.39 1291.59 2128.22 1287.98 Q2125.07 1284.34 2125.07 1277.98 Q2125.07 1271.59 2128.22 1267.98 Q2131.39 1264.36 2136.97 1264.36 Z" fill="#000000" fill-rule="nonzero" fill-opacity="1" /><path clip-path="url(#clip300)" d="M2170.95 1268.97 Q2170.23 1268.55 2169.38 1268.37 Q2168.54 1268.16 2167.52 1268.16 Q2163.91 1268.16 2161.97 1270.52 Q2160.05 1272.86 2160.05 1277.26 L2160.05 1290.92 L2155.77 1290.92 L2155.77 1264.99 L2160.05 1264.99 L2160.05 1269.02 Q2161.39 1266.66 2163.54 1265.52 Q2165.7 1264.36 2168.77 1264.36 Q2169.21 1264.36 2169.75 1264.43 Q2170.28 1264.48 2170.93 1264.6 L2170.95 1268.97 Z" fill="#000000" fill-rule="nonzero" fill-opacity="1" /><path clip-path="url(#clip300)" d="M2187.2 1277.88 Q2182.04 1277.88 2180.05 1279.06 Q2178.06 1280.24 2178.06 1283.09 Q2178.06 1285.36 2179.54 1286.7 Q2181.04 1288.02 2183.61 1288.02 Q2187.15 1288.02 2189.28 1285.52 Q2191.44 1283 2191.44 1278.83 L2191.44 1277.88 L2187.2 1277.88 M2195.7 1276.12 L2195.7 1290.92 L2191.44 1290.92 L2191.44 1286.98 Q2189.98 1289.34 2187.8 1290.48 Q2185.63 1291.59 2182.48 1291.59 Q2178.5 1291.59 2176.14 1289.36 Q2173.8 1287.12 2173.8 1283.37 Q2173.8 1278.99 2176.71 1276.77 Q2179.65 1274.55 2185.46 1274.55 L2191.44 1274.55 L2191.44 1274.13 Q2191.44 1271.19 2189.49 1269.6 Q2187.57 1267.98 2184.08 1267.98 Q2181.85 1267.98 2179.75 1268.51 Q2177.64 1269.04 2175.7 1270.11 L2175.7 1266.17 Q2178.03 1265.27 2180.23 1264.83 Q2182.43 1264.36 2184.52 1264.36 Q2190.14 1264.36 2192.92 1267.28 Q2195.7 1270.2 2195.7 1276.12 Z" fill="#000000" fill-rule="nonzero" fill-opacity="1" /><path clip-path="url(#clip300)" d="M2221.53 1277.65 Q2221.53 1273.02 2219.61 1270.48 Q2217.71 1267.93 2214.26 1267.93 Q2210.83 1267.93 2208.91 1270.48 Q2207.02 1273.02 2207.02 1277.65 Q2207.02 1282.26 2208.91 1284.8 Q2210.83 1287.35 2214.26 1287.35 Q2217.71 1287.35 2219.61 1284.8 Q2221.53 1282.26 2221.53 1277.65 M2225.79 1287.7 Q2225.79 1294.32 2222.85 1297.54 Q2219.91 1300.78 2213.84 1300.78 Q2211.6 1300.78 2209.61 1300.43 Q2207.62 1300.11 2205.74 1299.41 L2205.74 1295.27 Q2207.62 1296.29 2209.45 1296.77 Q2211.27 1297.26 2213.17 1297.26 Q2217.36 1297.26 2219.45 1295.06 Q2221.53 1292.88 2221.53 1288.46 L2221.53 1286.36 Q2220.21 1288.65 2218.15 1289.78 Q2216.09 1290.92 2213.22 1290.92 Q2208.45 1290.92 2205.53 1287.28 Q2202.62 1283.65 2202.62 1277.65 Q2202.62 1271.63 2205.53 1268 Q2208.45 1264.36 2213.22 1264.36 Q2216.09 1264.36 2218.15 1265.5 Q2220.21 1266.63 2221.53 1268.92 L2221.53 1264.99 L2225.79 1264.99 L2225.79 1287.7 Z" fill="#000000" fill-rule="nonzero" fill-opacity="1" /><path clip-path="url(#clip300)" d="M2256.74 1276.89 L2256.74 1278.97 L2237.15 1278.97 Q2237.43 1283.37 2239.79 1285.68 Q2242.18 1287.98 2246.41 1287.98 Q2248.87 1287.98 2251.16 1287.37 Q2253.47 1286.77 2255.74 1285.57 L2255.74 1289.6 Q2253.45 1290.57 2251.04 1291.08 Q2248.64 1291.59 2246.16 1291.59 Q2239.96 1291.59 2236.32 1287.98 Q2232.71 1284.36 2232.71 1278.21 Q2232.71 1271.84 2236.14 1268.11 Q2239.58 1264.36 2245.42 1264.36 Q2250.65 1264.36 2253.68 1267.74 Q2256.74 1271.1 2256.74 1276.89 M2252.48 1275.64 Q2252.43 1272.14 2250.51 1270.06 Q2248.61 1267.98 2245.46 1267.98 Q2241.9 1267.98 2239.75 1269.99 Q2237.62 1272 2237.29 1275.66 L2252.48 1275.64 Z" fill="#000000" fill-rule="nonzero" fill-opacity="1" /><polyline clip-path="url(#clip300)" style="stroke:#e26f46; stroke-linecap:round; stroke-linejoin:round; stroke-width:4; stroke-opacity:1; fill:none" points="1829.31,1325.48 1973.34,1325.48 "/>
<path clip-path="url(#clip300)" d="M1997.34 1316.83 L2001.85 1316.83 L2009.96 1338.59 L2018.06 1316.83 L2022.57 1316.83 L2012.85 1342.76 L2007.06 1342.76 L1997.34 1316.83 Z" fill="#000000" fill-rule="nonzero" fill-opacity="1" /><path clip-path="url(#clip300)" d="M2029.1 1308.2 L2047.46 1308.2 L2047.46 1312.13 L2033.38 1312.13 L2033.38 1320.6 Q2034.4 1320.26 2035.42 1320.09 Q2036.44 1319.91 2037.46 1319.91 Q2043.24 1319.91 2046.62 1323.08 Q2050 1326.25 2050 1331.67 Q2050 1337.25 2046.53 1340.35 Q2043.06 1343.43 2036.74 1343.43 Q2034.56 1343.43 2032.29 1343.06 Q2030.05 1342.69 2027.64 1341.95 L2027.64 1337.25 Q2029.72 1338.38 2031.95 1338.94 Q2034.17 1339.49 2036.65 1339.49 Q2040.65 1339.49 2042.99 1337.38 Q2045.33 1335.28 2045.33 1331.67 Q2045.33 1328.06 2042.99 1325.95 Q2040.65 1323.84 2036.65 1323.84 Q2034.77 1323.84 2032.9 1324.26 Q2031.04 1324.68 2029.1 1325.56 L2029.1 1308.2 Z" fill="#000000" fill-rule="nonzero" fill-opacity="1" /><path clip-path="url(#clip300)" d="M2067.87 1326.11 L2067.87 1333.33 L2076 1333.33 L2076 1335.53 L2067.87 1335.53 L2067.87 1342.76 L2065.44 1342.76 L2065.44 1335.53 L2057.32 1335.53 L2057.32 1333.33 L2065.44 1333.33 L2065.44 1326.11 L2067.87 1326.11 Z" fill="#000000" fill-rule="nonzero" fill-opacity="1" /><path clip-path="url(#clip300)" d="M2100.16 1317.59 L2100.16 1321.62 Q2098.36 1320.7 2096.41 1320.23 Q2094.47 1319.77 2092.39 1319.77 Q2089.22 1319.77 2087.62 1320.74 Q2086.04 1321.71 2086.04 1323.66 Q2086.04 1325.14 2087.18 1326 Q2088.31 1326.83 2091.74 1327.59 L2093.2 1327.92 Q2097.73 1328.89 2099.63 1330.67 Q2101.55 1332.43 2101.55 1335.6 Q2101.55 1339.21 2098.68 1341.32 Q2095.84 1343.43 2090.84 1343.43 Q2088.75 1343.43 2086.48 1343.01 Q2084.24 1342.62 2081.74 1341.81 L2081.74 1337.41 Q2084.1 1338.63 2086.39 1339.26 Q2088.68 1339.86 2090.93 1339.86 Q2093.94 1339.86 2095.56 1338.84 Q2097.18 1337.8 2097.18 1335.93 Q2097.18 1334.19 2096 1333.26 Q2094.84 1332.34 2090.88 1331.48 L2089.4 1331.14 Q2085.44 1330.3 2083.68 1328.59 Q2081.92 1326.85 2081.92 1323.84 Q2081.92 1320.19 2084.52 1318.2 Q2087.11 1316.2 2091.88 1316.2 Q2094.24 1316.2 2096.32 1316.55 Q2098.4 1316.9 2100.16 1317.59 Z" fill="#000000" fill-rule="nonzero" fill-opacity="1" /><path clip-path="url(#clip300)" d="M2112.55 1309.47 L2112.55 1316.83 L2121.32 1316.83 L2121.32 1320.14 L2112.55 1320.14 L2112.55 1334.21 Q2112.55 1337.38 2113.4 1338.29 Q2114.28 1339.19 2116.95 1339.19 L2121.32 1339.19 L2121.32 1342.76 L2116.95 1342.76 Q2112.02 1342.76 2110.14 1340.93 Q2108.27 1339.07 2108.27 1334.21 L2108.27 1320.14 L2105.14 1320.14 L2105.14 1316.83 L2108.27 1316.83 L2108.27 1309.47 L2112.55 1309.47 Z" fill="#000000" fill-rule="nonzero" fill-opacity="1" /><path clip-path="url(#clip300)" d="M2136.97 1319.82 Q2133.54 1319.82 2131.55 1322.5 Q2129.56 1325.16 2129.56 1329.82 Q2129.56 1334.47 2131.53 1337.15 Q2133.52 1339.82 2136.97 1339.82 Q2140.37 1339.82 2142.36 1337.13 Q2144.35 1334.45 2144.35 1329.82 Q2144.35 1325.21 2142.36 1322.52 Q2140.37 1319.82 2136.97 1319.82 M2136.97 1316.2 Q2142.53 1316.2 2145.7 1319.82 Q2148.87 1323.43 2148.87 1329.82 Q2148.87 1336.18 2145.7 1339.82 Q2142.53 1343.43 2136.97 1343.43 Q2131.39 1343.43 2128.22 1339.82 Q2125.07 1336.18 2125.07 1329.82 Q2125.07 1323.43 2128.22 1319.82 Q2131.39 1316.2 2136.97 1316.2 Z" fill="#000000" fill-rule="nonzero" fill-opacity="1" /><path clip-path="url(#clip300)" d="M2170.95 1320.81 Q2170.23 1320.39 2169.38 1320.21 Q2168.54 1320 2167.52 1320 Q2163.91 1320 2161.97 1322.36 Q2160.05 1324.7 2160.05 1329.1 L2160.05 1342.76 L2155.77 1342.76 L2155.77 1316.83 L2160.05 1316.83 L2160.05 1320.86 Q2161.39 1318.5 2163.54 1317.36 Q2165.7 1316.2 2168.77 1316.2 Q2169.21 1316.2 2169.75 1316.27 Q2170.28 1316.32 2170.93 1316.44 L2170.95 1320.81 Z" fill="#000000" fill-rule="nonzero" fill-opacity="1" /><path clip-path="url(#clip300)" d="M2187.2 1329.72 Q2182.04 1329.72 2180.05 1330.9 Q2178.06 1332.08 2178.06 1334.93 Q2178.06 1337.2 2179.54 1338.54 Q2181.04 1339.86 2183.61 1339.86 Q2187.15 1339.86 2189.28 1337.36 Q2191.44 1334.84 2191.44 1330.67 L2191.44 1329.72 L2187.2 1329.72 M2195.7 1327.96 L2195.7 1342.76 L2191.44 1342.76 L2191.44 1338.82 Q2189.98 1341.18 2187.8 1342.32 Q2185.63 1343.43 2182.48 1343.43 Q2178.5 1343.43 2176.14 1341.2 Q2173.8 1338.96 2173.8 1335.21 Q2173.8 1330.83 2176.71 1328.61 Q2179.65 1326.39 2185.46 1326.39 L2191.44 1326.39 L2191.44 1325.97 Q2191.44 1323.03 2189.49 1321.44 Q2187.57 1319.82 2184.08 1319.82 Q2181.85 1319.82 2179.75 1320.35 Q2177.64 1320.88 2175.7 1321.95 L2175.7 1318.01 Q2178.03 1317.11 2180.23 1316.67 Q2182.43 1316.2 2184.52 1316.2 Q2190.14 1316.2 2192.92 1319.12 Q2195.7 1322.04 2195.7 1327.96 Z" fill="#000000" fill-rule="nonzero" fill-opacity="1" /><path clip-path="url(#clip300)" d="M2221.53 1329.49 Q2221.53 1324.86 2219.61 1322.32 Q2217.71 1319.77 2214.26 1319.77 Q2210.83 1319.77 2208.91 1322.32 Q2207.02 1324.86 2207.02 1329.49 Q2207.02 1334.1 2208.91 1336.64 Q2210.83 1339.19 2214.26 1339.19 Q2217.71 1339.19 2219.61 1336.64 Q2221.53 1334.1 2221.53 1329.49 M2225.79 1339.54 Q2225.79 1346.16 2222.85 1349.38 Q2219.91 1352.62 2213.84 1352.62 Q2211.6 1352.62 2209.61 1352.27 Q2207.62 1351.95 2205.74 1351.25 L2205.74 1347.11 Q2207.62 1348.13 2209.45 1348.61 Q2211.27 1349.1 2213.17 1349.1 Q2217.36 1349.1 2219.45 1346.9 Q2221.53 1344.72 2221.53 1340.3 L2221.53 1338.2 Q2220.21 1340.49 2218.15 1341.62 Q2216.09 1342.76 2213.22 1342.76 Q2208.45 1342.76 2205.53 1339.12 Q2202.62 1335.49 2202.62 1329.49 Q2202.62 1323.47 2205.53 1319.84 Q2208.45 1316.2 2213.22 1316.2 Q2216.09 1316.2 2218.15 1317.34 Q2220.21 1318.47 2221.53 1320.76 L2221.53 1316.83 L2225.79 1316.83 L2225.79 1339.54 Z" fill="#000000" fill-rule="nonzero" fill-opacity="1" /><path clip-path="url(#clip300)" d="M2256.74 1328.73 L2256.74 1330.81 L2237.15 1330.81 Q2237.43 1335.21 2239.79 1337.52 Q2242.18 1339.82 2246.41 1339.82 Q2248.87 1339.82 2251.16 1339.21 Q2253.47 1338.61 2255.74 1337.41 L2255.74 1341.44 Q2253.45 1342.41 2251.04 1342.92 Q2248.64 1343.43 2246.16 1343.43 Q2239.96 1343.43 2236.32 1339.82 Q2232.71 1336.2 2232.71 1330.05 Q2232.71 1323.68 2236.14 1319.95 Q2239.58 1316.2 2245.42 1316.2 Q2250.65 1316.2 2253.68 1319.58 Q2256.74 1322.94 2256.74 1328.73 M2252.48 1327.48 Q2252.43 1323.98 2250.51 1321.9 Q2248.61 1319.82 2245.46 1319.82 Q2241.9 1319.82 2239.75 1321.83 Q2237.62 1323.84 2237.29 1327.5 L2252.48 1327.48 Z" fill="#000000" fill-rule="nonzero" fill-opacity="1" /></svg>
