<?xml version="1.0" encoding="utf-8"?>
<svg xmlns="http://www.w3.org/2000/svg" xmlns:xlink="http://www.w3.org/1999/xlink" width="600" height="400" viewBox="0 0 2400 1600">
<defs>
  <clipPath id="clip780">
    <rect x="0" y="0" width="2400" height="1600"/>
  </clipPath>
</defs>
<path clip-path="url(#clip780)" d="M0 1600 L2400 1600 L2400 0 L0 0  Z" fill="#ffffff" fill-rule="evenodd" fill-opacity="1"/>
<defs>
  <clipPath id="clip781">
    <rect x="480" y="0" width="1681" height="1600"/>
  </clipPath>
</defs>
<path clip-path="url(#clip780)" d="M156.112 1423.18 L2352.76 1423.18 L2352.76 47.2441 L156.112 47.2441  Z" fill="#ffffff" fill-rule="evenodd" fill-opacity="1"/>
<defs>
  <clipPath id="clip782">
    <rect x="156" y="47" width="2198" height="1377"/>
  </clipPath>
</defs>
<polyline clip-path="url(#clip782)" style="stroke:#000000; stroke-linecap:round; stroke-linejoin:round; stroke-width:2; stroke-opacity:0.1; fill:none" points="156.112,1423.18 156.112,47.2441 "/>
<polyline clip-path="url(#clip782)" style="stroke:#000000; stroke-linecap:round; stroke-linejoin:round; stroke-width:2; stroke-opacity:0.1; fill:none" points="705.273,1423.18 705.273,47.2441 "/>
<polyline clip-path="url(#clip782)" style="stroke:#000000; stroke-linecap:round; stroke-linejoin:round; stroke-width:2; stroke-opacity:0.1; fill:none" points="1254.43,1423.18 1254.43,47.2441 "/>
<polyline clip-path="url(#clip782)" style="stroke:#000000; stroke-linecap:round; stroke-linejoin:round; stroke-width:2; stroke-opacity:0.1; fill:none" points="1803.59,1423.18 1803.59,47.2441 "/>
<polyline clip-path="url(#clip782)" style="stroke:#000000; stroke-linecap:round; stroke-linejoin:round; stroke-width:2; stroke-opacity:0.1; fill:none" points="2352.76,1423.18 2352.76,47.2441 "/>
<polyline clip-path="url(#clip782)" style="stroke:#000000; stroke-linecap:round; stroke-linejoin:round; stroke-width:2; stroke-opacity:0.1; fill:none" points="156.112,1217.86 2352.76,1217.86 "/>
<polyline clip-path="url(#clip782)" style="stroke:#000000; stroke-linecap:round; stroke-linejoin:round; stroke-width:2; stroke-opacity:0.1; fill:none" points="156.112,951.277 2352.76,951.277 "/>
<polyline clip-path="url(#clip782)" style="stroke:#000000; stroke-linecap:round; stroke-linejoin:round; stroke-width:2; stroke-opacity:0.1; fill:none" points="156.112,684.697 2352.76,684.697 "/>
<polyline clip-path="url(#clip782)" style="stroke:#000000; stroke-linecap:round; stroke-linejoin:round; stroke-width:2; stroke-opacity:0.1; fill:none" points="156.112,418.118 2352.76,418.118 "/>
<polyline clip-path="url(#clip782)" style="stroke:#000000; stroke-linecap:round; stroke-linejoin:round; stroke-width:2; stroke-opacity:0.1; fill:none" points="156.112,151.538 2352.76,151.538 "/>
<polyline clip-path="url(#clip780)" style="stroke:#000000; stroke-linecap:round; stroke-linejoin:round; stroke-width:4; stroke-opacity:1; fill:none" points="156.112,1423.18 2352.76,1423.18 "/>
<polyline clip-path="url(#clip780)" style="stroke:#000000; stroke-linecap:round; stroke-linejoin:round; stroke-width:4; stroke-opacity:1; fill:none" points="156.112,1423.18 156.112,1404.28 "/>
<polyline clip-path="url(#clip780)" style="stroke:#000000; stroke-linecap:round; stroke-linejoin:round; stroke-width:4; stroke-opacity:1; fill:none" points="705.273,1423.18 705.273,1404.28 "/>
<polyline clip-path="url(#clip780)" style="stroke:#000000; stroke-linecap:round; stroke-linejoin:round; stroke-width:4; stroke-opacity:1; fill:none" points="1254.43,1423.18 1254.43,1404.28 "/>
<polyline clip-path="url(#clip780)" style="stroke:#000000; stroke-linecap:round; stroke-linejoin:round; stroke-width:4; stroke-opacity:1; fill:none" points="1803.59,1423.18 1803.59,1404.28 "/>
<polyline clip-path="url(#clip780)" style="stroke:#000000; stroke-linecap:round; stroke-linejoin:round; stroke-width:4; stroke-opacity:1; fill:none" points="2352.76,1423.18 2352.76,1404.28 "/>
<path clip-path="url(#clip780)" d="M133.497 1454.1 Q129.885 1454.1 128.057 1457.66 Q126.251 1461.2 126.251 1468.33 Q126.251 1475.44 128.057 1479.01 Q129.885 1482.55 133.497 1482.55 Q137.131 1482.55 138.936 1479.01 Q140.765 1475.44 140.765 1468.33 Q140.765 1461.2 138.936 1457.66 Q137.131 1454.1 133.497 1454.1 M133.497 1450.39 Q139.307 1450.39 142.362 1455 Q145.441 1459.58 145.441 1468.33 Q145.441 1477.06 142.362 1481.67 Q139.307 1486.25 133.497 1486.25 Q127.686 1486.25 124.608 1481.67 Q121.552 1477.06 121.552 1468.33 Q121.552 1459.58 124.608 1455 Q127.686 1450.39 133.497 1450.39 Z" fill="#000000" fill-rule="nonzero" fill-opacity="1" /><path clip-path="url(#clip780)" d="M153.658 1479.7 L158.543 1479.7 L158.543 1485.58 L153.658 1485.58 L153.658 1479.7 Z" fill="#000000" fill-rule="nonzero" fill-opacity="1" /><path clip-path="url(#clip780)" d="M178.728 1454.1 Q175.117 1454.1 173.288 1457.66 Q171.482 1461.2 171.482 1468.33 Q171.482 1475.44 173.288 1479.01 Q175.117 1482.55 178.728 1482.55 Q182.362 1482.55 184.168 1479.01 Q185.996 1475.44 185.996 1468.33 Q185.996 1461.2 184.168 1457.66 Q182.362 1454.1 178.728 1454.1 M178.728 1450.39 Q184.538 1450.39 187.593 1455 Q190.672 1459.58 190.672 1468.33 Q190.672 1477.06 187.593 1481.67 Q184.538 1486.25 178.728 1486.25 Q172.918 1486.25 169.839 1481.67 Q166.783 1477.06 166.783 1468.33 Q166.783 1459.58 169.839 1455 Q172.918 1450.39 178.728 1450.39 Z" fill="#000000" fill-rule="nonzero" fill-opacity="1" /><path clip-path="url(#clip780)" d="M683.155 1454.1 Q679.544 1454.1 677.715 1457.66 Q675.91 1461.2 675.91 1468.33 Q675.91 1475.44 677.715 1479.01 Q679.544 1482.55 683.155 1482.55 Q686.789 1482.55 688.595 1479.01 Q690.424 1475.44 690.424 1468.33 Q690.424 1461.2 688.595 1457.66 Q686.789 1454.1 683.155 1454.1 M683.155 1450.39 Q688.965 1450.39 692.021 1455 Q695.1 1459.58 695.1 1468.33 Q695.1 1477.06 692.021 1481.67 Q688.965 1486.25 683.155 1486.25 Q677.345 1486.25 674.266 1481.67 Q671.211 1477.06 671.211 1468.33 Q671.211 1459.58 674.266 1455 Q677.345 1450.39 683.155 1450.39 Z" fill="#000000" fill-rule="nonzero" fill-opacity="1" /><path clip-path="url(#clip780)" d="M703.317 1479.7 L708.201 1479.7 L708.201 1485.58 L703.317 1485.58 L703.317 1479.7 Z" fill="#000000" fill-rule="nonzero" fill-opacity="1" /><path clip-path="url(#clip780)" d="M718.433 1451.02 L736.789 1451.02 L736.789 1454.96 L722.715 1454.96 L722.715 1463.43 Q723.734 1463.08 724.752 1462.92 Q725.771 1462.73 726.789 1462.73 Q732.576 1462.73 735.956 1465.9 Q739.335 1469.08 739.335 1474.49 Q739.335 1480.07 735.863 1483.17 Q732.391 1486.25 726.072 1486.25 Q723.896 1486.25 721.627 1485.88 Q719.382 1485.51 716.974 1484.77 L716.974 1480.07 Q719.058 1481.2 721.28 1481.76 Q723.502 1482.32 725.979 1482.32 Q729.984 1482.32 732.322 1480.21 Q734.659 1478.1 734.659 1474.49 Q734.659 1470.88 732.322 1468.77 Q729.984 1466.67 725.979 1466.67 Q724.104 1466.67 722.229 1467.08 Q720.377 1467.5 718.433 1468.38 L718.433 1451.02 Z" fill="#000000" fill-rule="nonzero" fill-opacity="1" /><path clip-path="url(#clip780)" d="M1221.59 1481.64 L1229.23 1481.64 L1229.23 1455.28 L1220.92 1456.95 L1220.92 1452.69 L1229.18 1451.02 L1233.86 1451.02 L1233.86 1481.64 L1241.49 1481.64 L1241.49 1485.58 L1221.59 1485.58 L1221.59 1481.64 Z" fill="#000000" fill-rule="nonzero" fill-opacity="1" /><path clip-path="url(#clip780)" d="M1250.94 1479.7 L1255.82 1479.7 L1255.82 1485.58 L1250.94 1485.58 L1250.94 1479.7 Z" fill="#000000" fill-rule="nonzero" fill-opacity="1" /><path clip-path="url(#clip780)" d="M1276.01 1454.1 Q1272.4 1454.1 1270.57 1457.66 Q1268.76 1461.2 1268.76 1468.33 Q1268.76 1475.44 1270.57 1479.01 Q1272.4 1482.55 1276.01 1482.55 Q1279.64 1482.55 1281.45 1479.01 Q1283.28 1475.44 1283.28 1468.33 Q1283.28 1461.2 1281.45 1457.66 Q1279.64 1454.1 1276.01 1454.1 M1276.01 1450.39 Q1281.82 1450.39 1284.87 1455 Q1287.95 1459.58 1287.95 1468.33 Q1287.95 1477.06 1284.87 1481.67 Q1281.82 1486.25 1276.01 1486.25 Q1270.2 1486.25 1267.12 1481.67 Q1264.06 1477.06 1264.06 1468.33 Q1264.06 1459.58 1267.12 1455 Q1270.2 1450.39 1276.01 1450.39 Z" fill="#000000" fill-rule="nonzero" fill-opacity="1" /><path clip-path="url(#clip780)" d="M1771.25 1481.64 L1778.88 1481.64 L1778.88 1455.28 L1770.57 1456.95 L1770.57 1452.69 L1778.84 1451.02 L1783.51 1451.02 L1783.51 1481.64 L1791.15 1481.64 L1791.15 1485.58 L1771.25 1485.58 L1771.25 1481.64 Z" fill="#000000" fill-rule="nonzero" fill-opacity="1" /><path clip-path="url(#clip780)" d="M1800.6 1479.7 L1805.48 1479.7 L1805.48 1485.58 L1800.6 1485.58 L1800.6 1479.7 Z" fill="#000000" fill-rule="nonzero" fill-opacity="1" /><path clip-path="url(#clip780)" d="M1815.71 1451.02 L1834.07 1451.02 L1834.07 1454.96 L1820 1454.96 L1820 1463.43 Q1821.01 1463.08 1822.03 1462.92 Q1823.05 1462.73 1824.07 1462.73 Q1829.86 1462.73 1833.24 1465.9 Q1836.62 1469.08 1836.62 1474.49 Q1836.62 1480.07 1833.14 1483.17 Q1829.67 1486.25 1823.35 1486.25 Q1821.18 1486.25 1818.91 1485.88 Q1816.66 1485.51 1814.25 1484.77 L1814.25 1480.07 Q1816.34 1481.2 1818.56 1481.76 Q1820.78 1482.32 1823.26 1482.32 Q1827.26 1482.32 1829.6 1480.21 Q1831.94 1478.1 1831.94 1474.49 Q1831.94 1470.88 1829.6 1468.77 Q1827.26 1466.67 1823.26 1466.67 Q1821.38 1466.67 1819.51 1467.08 Q1817.66 1467.5 1815.71 1468.38 L1815.71 1451.02 Z" fill="#000000" fill-rule="nonzero" fill-opacity="1" /><path clip-path="url(#clip780)" d="M2323.99 1481.64 L2340.31 1481.64 L2340.31 1485.58 L2318.37 1485.58 L2318.37 1481.64 Q2321.03 1478.89 2325.61 1474.26 Q2330.22 1469.61 2331.4 1468.27 Q2333.65 1465.74 2334.53 1464.01 Q2335.43 1462.25 2335.43 1460.56 Q2335.43 1457.8 2333.49 1456.07 Q2331.56 1454.33 2328.46 1454.33 Q2326.26 1454.33 2323.81 1455.09 Q2321.38 1455.86 2318.6 1457.41 L2318.6 1452.69 Q2321.43 1451.55 2323.88 1450.97 Q2326.33 1450.39 2328.37 1450.39 Q2333.74 1450.39 2336.93 1453.08 Q2340.13 1455.77 2340.13 1460.26 Q2340.13 1462.39 2339.32 1464.31 Q2338.53 1466.2 2336.42 1468.8 Q2335.85 1469.47 2332.74 1472.69 Q2329.64 1475.88 2323.99 1481.64 Z" fill="#000000" fill-rule="nonzero" fill-opacity="1" /><path clip-path="url(#clip780)" d="M2350.13 1479.7 L2355.01 1479.7 L2355.01 1485.58 L2350.13 1485.58 L2350.13 1479.7 Z" fill="#000000" fill-rule="nonzero" fill-opacity="1" /><path clip-path="url(#clip780)" d="M2375.2 1454.1 Q2371.59 1454.1 2369.76 1457.66 Q2367.95 1461.2 2367.95 1468.33 Q2367.95 1475.44 2369.76 1479.01 Q2371.59 1482.55 2375.2 1482.55 Q2378.83 1482.55 2380.64 1479.01 Q2382.47 1475.44 2382.47 1468.33 Q2382.47 1461.2 2380.64 1457.66 Q2378.83 1454.1 2375.2 1454.1 M2375.2 1450.39 Q2381.01 1450.39 2384.06 1455 Q2387.14 1459.58 2387.14 1468.33 Q2387.14 1477.06 2384.06 1481.67 Q2381.01 1486.25 2375.2 1486.25 Q2369.39 1486.25 2366.31 1481.67 Q2363.25 1477.06 2363.25 1468.33 Q2363.25 1459.58 2366.31 1455 Q2369.39 1450.39 2375.2 1450.39 Z" fill="#000000" fill-rule="nonzero" fill-opacity="1" /><path clip-path="url(#clip780)" d="M1253.5 1522.27 L1253.5 1532.4 L1265.56 1532.4 L1265.56 1536.95 L1253.5 1536.95 L1253.5 1556.3 Q1253.5 1560.66 1254.67 1561.9 Q1255.88 1563.14 1259.54 1563.14 L1265.56 1563.14 L1265.56 1568.04 L1259.54 1568.04 Q1252.76 1568.04 1250.18 1565.53 Q1247.61 1562.98 1247.61 1556.3 L1247.61 1536.95 L1243.31 1536.95 L1243.31 1532.4 L1247.61 1532.4 L1247.61 1522.27 L1253.5 1522.27 Z" fill="#000000" fill-rule="nonzero" fill-opacity="1" /><polyline clip-path="url(#clip780)" style="stroke:#000000; stroke-linecap:round; stroke-linejoin:round; stroke-width:4; stroke-opacity:1; fill:none" points="156.112,1423.18 156.112,47.2441 "/>
<polyline clip-path="url(#clip780)" style="stroke:#000000; stroke-linecap:round; stroke-linejoin:round; stroke-width:4; stroke-opacity:1; fill:none" points="156.112,1217.86 175.01,1217.86 "/>
<polyline clip-path="url(#clip780)" style="stroke:#000000; stroke-linecap:round; stroke-linejoin:round; stroke-width:4; stroke-opacity:1; fill:none" points="156.112,951.277 175.01,951.277 "/>
<polyline clip-path="url(#clip780)" style="stroke:#000000; stroke-linecap:round; stroke-linejoin:round; stroke-width:4; stroke-opacity:1; fill:none" points="156.112,684.697 175.01,684.697 "/>
<polyline clip-path="url(#clip780)" style="stroke:#000000; stroke-linecap:round; stroke-linejoin:round; stroke-width:4; stroke-opacity:1; fill:none" points="156.112,418.118 175.01,418.118 "/>
<polyline clip-path="url(#clip780)" style="stroke:#000000; stroke-linecap:round; stroke-linejoin:round; stroke-width:4; stroke-opacity:1; fill:none" points="156.112,151.538 175.01,151.538 "/>
<path clip-path="url(#clip780)" d="M62.9365 1203.66 Q59.3254 1203.66 57.4967 1207.22 Q55.6912 1210.76 55.6912 1217.89 Q55.6912 1225 57.4967 1228.56 Q59.3254 1232.1 62.9365 1232.1 Q66.5707 1232.1 68.3763 1228.56 Q70.205 1225 70.205 1217.89 Q70.205 1210.76 68.3763 1207.22 Q66.5707 1203.66 62.9365 1203.66 M62.9365 1199.95 Q68.7467 1199.95 71.8022 1204.56 Q74.8809 1209.14 74.8809 1217.89 Q74.8809 1226.62 71.8022 1231.22 Q68.7467 1235.81 62.9365 1235.81 Q57.1264 1235.81 54.0477 1231.22 Q50.9921 1226.62 50.9921 1217.89 Q50.9921 1209.14 54.0477 1204.56 Q57.1264 1199.95 62.9365 1199.95 Z" fill="#000000" fill-rule="nonzero" fill-opacity="1" /><path clip-path="url(#clip780)" d="M83.0984 1229.26 L87.9827 1229.26 L87.9827 1235.14 L83.0984 1235.14 L83.0984 1229.26 Z" fill="#000000" fill-rule="nonzero" fill-opacity="1" /><path clip-path="url(#clip780)" d="M108.168 1203.66 Q104.557 1203.66 102.728 1207.22 Q100.922 1210.76 100.922 1217.89 Q100.922 1225 102.728 1228.56 Q104.557 1232.1 108.168 1232.1 Q111.802 1232.1 113.608 1228.56 Q115.436 1225 115.436 1217.89 Q115.436 1210.76 113.608 1207.22 Q111.802 1203.66 108.168 1203.66 M108.168 1199.95 Q113.978 1199.95 117.033 1204.56 Q120.112 1209.14 120.112 1217.89 Q120.112 1226.62 117.033 1231.22 Q113.978 1235.81 108.168 1235.81 Q102.358 1235.81 99.2789 1231.22 Q96.2234 1226.62 96.2234 1217.89 Q96.2234 1209.14 99.2789 1204.56 Q102.358 1199.95 108.168 1199.95 Z" fill="#000000" fill-rule="nonzero" fill-opacity="1" /><path clip-path="url(#clip780)" d="M63.9319 937.076 Q60.3208 937.076 58.4921 940.641 Q56.6865 944.182 56.6865 951.312 Q56.6865 958.418 58.4921 961.983 Q60.3208 965.525 63.9319 965.525 Q67.5661 965.525 69.3717 961.983 Q71.2004 958.418 71.2004 951.312 Q71.2004 944.182 69.3717 940.641 Q67.5661 937.076 63.9319 937.076 M63.9319 933.372 Q69.742 933.372 72.7976 937.978 Q75.8763 942.562 75.8763 951.312 Q75.8763 960.039 72.7976 964.645 Q69.742 969.228 63.9319 969.228 Q58.1217 969.228 55.043 964.645 Q51.9875 960.039 51.9875 951.312 Q51.9875 942.562 55.043 937.978 Q58.1217 933.372 63.9319 933.372 Z" fill="#000000" fill-rule="nonzero" fill-opacity="1" /><path clip-path="url(#clip780)" d="M84.0938 962.677 L88.978 962.677 L88.978 968.557 L84.0938 968.557 L84.0938 962.677 Z" fill="#000000" fill-rule="nonzero" fill-opacity="1" /><path clip-path="url(#clip780)" d="M99.2095 933.997 L117.566 933.997 L117.566 937.932 L103.492 937.932 L103.492 946.404 Q104.51 946.057 105.529 945.895 Q106.547 945.71 107.566 945.71 Q113.353 945.71 116.733 948.881 Q120.112 952.052 120.112 957.469 Q120.112 963.048 116.64 966.15 Q113.168 969.228 106.848 969.228 Q104.672 969.228 102.404 968.858 Q100.159 968.488 97.7511 967.747 L97.7511 963.048 Q99.8345 964.182 102.057 964.738 Q104.279 965.293 106.756 965.293 Q110.76 965.293 113.098 963.187 Q115.436 961.08 115.436 957.469 Q115.436 953.858 113.098 951.752 Q110.76 949.645 106.756 949.645 Q104.881 949.645 103.006 950.062 Q101.154 950.478 99.2095 951.358 L99.2095 933.997 Z" fill="#000000" fill-rule="nonzero" fill-opacity="1" /><path clip-path="url(#clip780)" d="M53.7467 698.042 L61.3856 698.042 L61.3856 671.677 L53.0754 673.343 L53.0754 669.084 L61.3393 667.417 L66.0152 667.417 L66.0152 698.042 L73.654 698.042 L73.654 701.977 L53.7467 701.977 L53.7467 698.042 Z" fill="#000000" fill-rule="nonzero" fill-opacity="1" /><path clip-path="url(#clip780)" d="M83.0984 696.098 L87.9827 696.098 L87.9827 701.977 L83.0984 701.977 L83.0984 696.098 Z" fill="#000000" fill-rule="nonzero" fill-opacity="1" /><path clip-path="url(#clip780)" d="M108.168 670.496 Q104.557 670.496 102.728 674.061 Q100.922 677.602 100.922 684.732 Q100.922 691.839 102.728 695.403 Q104.557 698.945 108.168 698.945 Q111.802 698.945 113.608 695.403 Q115.436 691.839 115.436 684.732 Q115.436 677.602 113.608 674.061 Q111.802 670.496 108.168 670.496 M108.168 666.792 Q113.978 666.792 117.033 671.399 Q120.112 675.982 120.112 684.732 Q120.112 693.459 117.033 698.065 Q113.978 702.649 108.168 702.649 Q102.358 702.649 99.2789 698.065 Q96.2234 693.459 96.2234 684.732 Q96.2234 675.982 99.2789 671.399 Q102.358 666.792 108.168 666.792 Z" fill="#000000" fill-rule="nonzero" fill-opacity="1" /><path clip-path="url(#clip780)" d="M54.7421 431.463 L62.381 431.463 L62.381 405.097 L54.0708 406.764 L54.0708 402.504 L62.3347 400.838 L67.0106 400.838 L67.0106 431.463 L74.6494 431.463 L74.6494 435.398 L54.7421 435.398 L54.7421 431.463 Z" fill="#000000" fill-rule="nonzero" fill-opacity="1" /><path clip-path="url(#clip780)" d="M84.0938 429.518 L88.978 429.518 L88.978 435.398 L84.0938 435.398 L84.0938 429.518 Z" fill="#000000" fill-rule="nonzero" fill-opacity="1" /><path clip-path="url(#clip780)" d="M99.2095 400.838 L117.566 400.838 L117.566 404.773 L103.492 404.773 L103.492 413.245 Q104.51 412.898 105.529 412.736 Q106.547 412.551 107.566 412.551 Q113.353 412.551 116.733 415.722 Q120.112 418.893 120.112 424.31 Q120.112 429.888 116.64 432.99 Q113.168 436.069 106.848 436.069 Q104.672 436.069 102.404 435.699 Q100.159 435.328 97.7511 434.587 L97.7511 429.888 Q99.8345 431.023 102.057 431.578 Q104.279 432.134 106.756 432.134 Q110.76 432.134 113.098 430.027 Q115.436 427.921 115.436 424.31 Q115.436 420.699 113.098 418.592 Q110.76 416.486 106.756 416.486 Q104.881 416.486 103.006 416.902 Q101.154 417.319 99.2095 418.199 L99.2095 400.838 Z" fill="#000000" fill-rule="nonzero" fill-opacity="1" /><path clip-path="url(#clip780)" d="M56.9643 164.883 L73.2837 164.883 L73.2837 168.818 L51.3393 168.818 L51.3393 164.883 Q54.0014 162.128 58.5847 157.499 Q63.1911 152.846 64.3717 151.503 Q66.617 148.98 67.4967 147.244 Q68.3994 145.485 68.3994 143.795 Q68.3994 141.04 66.455 139.304 Q64.5337 137.568 61.4319 137.568 Q59.2328 137.568 56.7791 138.332 Q54.3486 139.096 51.5708 140.647 L51.5708 135.925 Q54.3949 134.79 56.8486 134.212 Q59.3023 133.633 61.3393 133.633 Q66.7096 133.633 69.9041 136.318 Q73.0985 139.003 73.0985 143.494 Q73.0985 145.624 72.2883 147.545 Q71.5013 149.443 69.3948 152.036 Q68.8161 152.707 65.7143 155.925 Q62.6124 159.119 56.9643 164.883 Z" fill="#000000" fill-rule="nonzero" fill-opacity="1" /><path clip-path="url(#clip780)" d="M83.0984 162.938 L87.9827 162.938 L87.9827 168.818 L83.0984 168.818 L83.0984 162.938 Z" fill="#000000" fill-rule="nonzero" fill-opacity="1" /><path clip-path="url(#clip780)" d="M108.168 137.337 Q104.557 137.337 102.728 140.901 Q100.922 144.443 100.922 151.573 Q100.922 158.679 102.728 162.244 Q104.557 165.786 108.168 165.786 Q111.802 165.786 113.608 162.244 Q115.436 158.679 115.436 151.573 Q115.436 144.443 113.608 140.901 Q111.802 137.337 108.168 137.337 M108.168 133.633 Q113.978 133.633 117.033 138.239 Q120.112 142.823 120.112 151.573 Q120.112 160.3 117.033 164.906 Q113.978 169.489 108.168 169.489 Q102.358 169.489 99.2789 164.906 Q96.2234 160.3 96.2234 151.573 Q96.2234 142.823 99.2789 138.239 Q102.358 133.633 108.168 133.633 Z" fill="#000000" fill-rule="nonzero" fill-opacity="1" /><polyline clip-path="url(#clip782)" style="stroke:#009af9; stroke-linecap:round; stroke-linejoin:round; stroke-width:4; stroke-opacity:1; fill:none" points="156.112,86.1857 158.311,93.6732 160.51,101.086 162.709,108.425 164.907,115.691 167.106,122.885 169.305,130.007 171.504,137.058 173.703,144.039 175.902,150.95 178.101,157.792 180.299,164.567 182.498,171.273 184.697,177.913 186.896,184.487 189.095,190.996 191.294,197.439 193.492,203.818 195.691,210.134 197.89,216.387 200.089,222.578 202.288,228.707 204.487,234.775 206.686,240.782 208.884,246.73 211.083,252.618 213.282,258.448 215.481,264.22 217.68,269.934 219.879,275.592 222.077,281.193 224.276,286.738 226.475,292.228 228.674,297.663 230.873,303.044 233.072,308.372 235.27,313.647 237.469,318.869 239.668,324.038 241.867,329.157 244.066,334.224 246.265,339.241 248.464,344.208 250.662,349.126 252.861,353.994 255.06,358.814 257.259,363.586 259.458,368.311 261.657,372.988 263.855,377.619 266.054,382.204 268.253,386.743 270.452,391.237 272.651,395.686 274.85,400.091 277.048,404.452 279.247,408.769 281.446,413.044 283.645,417.276 285.844,421.466 288.043,425.614 290.242,429.721 292.44,433.787 294.639,437.812 296.838,441.797 299.037,445.743 301.236,449.649 303.435,453.517 305.633,457.346 307.832,461.136 310.031,464.889 312.23,468.605 314.429,472.283 316.628,475.925 318.826,479.531 321.025,483.1 323.224,486.635 325.423,490.134 327.622,493.598 329.821,497.027 332.02,500.423 334.218,503.784 336.417,507.112 338.616,510.407 340.815,513.669 343.014,516.899 345.213,520.097 347.411,523.262 349.61,526.397 351.809,529.499 354.008,532.571 356.207,535.613 358.406,538.624 360.604,541.605 362.803,544.557 365.002,547.479 367.201,550.372 369.4,553.237 371.599,556.072 373.798,558.88 375.996,561.659 378.195,564.411 380.394,567.136 382.593,569.833 384.792,572.504 386.991,575.147 389.189,577.765 391.388,580.356 393.587,582.922 395.786,585.462 397.985,587.976 400.184,590.466 402.382,592.931 404.581,595.371 406.78,597.787 408.979,600.179 411.178,602.547 413.377,604.891 415.576,607.212 417.774,609.51 419.973,611.785 422.172,614.037 424.371,616.267 426.57,618.475 428.769,620.661 430.967,622.825 433.166,624.967 435.365,627.088 437.564,629.188 439.763,631.267 441.962,633.325 444.161,635.363 446.359,637.381 448.558,639.378 450.757,641.356 452.956,643.314 455.155,645.252 457.354,647.171 459.552,649.071 461.751,650.953 463.95,652.815 466.149,654.659 468.348,656.485 470.547,658.292 472.745,660.082 474.944,661.853 477.143,663.607 479.342,665.344 481.541,667.063 483.74,668.765 485.939,670.45 488.137,672.119 490.336,673.77 492.535,675.406 494.734,677.025 496.933,678.627 499.132,680.214 501.33,681.785 503.529,683.34 505.728,684.88 507.927,686.405 510.126,687.914 512.325,689.408 514.523,690.887 516.722,692.352 518.921,693.802 521.12,695.237 523.319,696.659 525.518,698.066 527.717,699.458 529.915,700.838 532.114,702.203 534.313,703.555 536.512,704.893 538.711,706.218 540.91,707.53 543.108,708.828 545.307,710.114 547.506,711.387 549.705,712.647 551.904,713.895 554.103,715.13 556.301,716.353 558.5,717.564 560.699,718.763 562.898,719.95 565.097,721.125 567.296,722.288 569.495,723.44 571.693,724.58 573.892,725.709 576.091,726.827 578.29,727.934 580.489,729.03 582.688,730.114 584.886,731.188 587.085,732.252 589.284,733.305 591.483,734.347 593.682,735.379 595.881,736.401 598.079,737.412 600.278,738.414 602.477,739.406 604.676,740.387 606.875,741.359 609.074,742.321 611.273,743.274 613.471,744.217 615.67,745.151 617.869,746.075 620.068,746.99 622.267,747.896 624.466,748.793 626.664,749.681 628.863,750.56 631.062,751.43 633.261,752.292 635.46,753.145 637.659,753.99 639.858,754.826 642.056,755.654 644.255,756.473 646.454,757.284 648.653,758.088 650.852,758.883 653.051,759.67 655.249,760.449 657.448,761.221 659.647,761.985 661.846,762.741 664.045,763.49 666.244,764.231 668.442,764.965 670.641,765.692 672.84,766.411 675.039,767.123 677.238,767.828 679.437,768.526 681.636,769.217 683.834,769.901 686.033,770.579 688.232,771.249 690.431,771.913 692.63,772.571 694.829,773.222 697.027,773.866 699.226,774.504 701.425,775.136 703.624,775.761 705.823,776.38 708.022,776.993 710.22,777.6 712.419,778.201 714.618,778.796 716.817,779.385 719.016,779.968 721.215,780.545 723.414,781.117 725.612,781.683 727.811,782.243 730.01,782.798 732.209,783.348 734.408,783.892 736.607,784.43 738.805,784.963 741.004,785.491 743.203,786.014 745.402,786.531 747.601,787.044 749.8,787.551 751.998,788.053 754.197,788.55 756.396,789.042 758.595,789.53 760.794,790.012 762.993,790.49 765.192,790.962 767.39,791.43 769.589,791.894 771.788,792.353 773.987,792.807 776.186,793.256 778.385,793.702 780.583,794.142 782.782,794.579 784.981,795.011 787.18,795.438 789.379,795.861 791.578,796.281 793.776,796.695 795.975,797.106 798.174,797.513 800.373,797.915 802.572,798.314 804.771,798.708 806.97,799.099 809.168,799.486 811.367,799.869 813.566,800.248 815.765,800.623 817.964,800.994 820.163,801.362 822.361,801.726 824.56,802.086 826.759,802.443 828.958,802.796 831.157,803.146 833.356,803.492 835.554,803.835 837.753,804.175 839.952,804.511 842.151,804.843 844.35,805.173 846.549,805.499 848.748,805.821 850.946,806.141 853.145,806.457 855.344,806.771 857.543,807.081 859.742,807.388 861.941,807.692 864.139,807.993 866.338,808.291 868.537,808.586 870.736,808.878 872.935,809.168 875.134,809.454 877.333,809.738 879.531,810.018 881.73,810.297 883.929,810.572 886.128,810.844 888.327,811.114 890.526,811.382 892.724,811.646 894.923,811.908 897.122,812.168 899.321,812.424 901.52,812.679 903.719,812.931 905.917,813.18 908.116,813.427 910.315,813.671 912.514,813.913 914.713,814.153 916.912,814.39 919.111,814.625 921.309,814.857 923.508,815.087 925.707,815.315 927.906,815.541 930.105,815.764 932.304,815.985 934.502,816.204 936.701,816.421 938.9,816.635 941.099,816.848 943.298,817.058 945.497,817.266 947.695,817.472 949.894,817.676 952.093,817.878 954.292,818.078 956.491,818.276 958.69,818.472 960.889,818.666 963.087,818.858 965.286,819.048 967.485,819.236 969.684,819.423 971.883,819.607 974.082,819.79 976.28,819.97 978.479,820.149 980.678,820.326 982.877,820.502 985.076,820.675 987.275,820.847 989.473,821.017 991.672,821.185 993.871,821.352 996.07,821.517 998.269,821.68 1000.47,821.842 1002.67,822.002 1004.87,822.161 1007.06,822.318 1009.26,822.473 1011.46,822.627 1013.66,822.779 1015.86,822.93 1018.06,823.079 1020.26,823.227 1022.46,823.373 1024.65,823.518 1026.85,823.661 1029.05,823.803 1031.25,823.943 1033.45,824.082 1035.65,824.22 1037.85,824.356 1040.05,824.491 1042.25,824.625 1044.44,824.757 1046.64,824.888 1048.84,825.018 1051.04,825.146 1053.24,825.274 1055.44,825.399 1057.64,825.524 1059.84,825.648 1062.04,825.77 1064.23,825.891 1066.43,826.011 1068.63,826.129 1070.83,826.247 1073.03,826.363 1075.23,826.478 1077.43,826.593 1079.63,826.706 1081.82,826.817 1084.02,826.928 1086.22,827.038 1088.42,827.147 1090.62,827.254 1092.82,827.361 1095.02,827.466 1097.22,827.571 1099.42,827.674 1101.61,827.777 1103.81,827.878 1106.01,827.979 1108.21,828.078 1110.41,828.176 1112.61,828.274 1114.81,828.37 1117.01,828.466 1119.21,828.56 1121.4,828.654 1123.6,828.747 1125.8,828.839 1128,828.929 1130.2,829.019 1132.4,829.109 1134.6,829.197 1136.8,829.284 1138.99,829.37 1141.19,829.456 1143.39,829.541 1145.59,829.624 1147.79,829.707 1149.99,829.79 1152.19,829.871 1154.39,829.951 1156.59,830.031 1158.78,830.11 1160.98,830.188 1163.18,830.265 1165.38,830.342 1167.58,830.418 1169.78,830.493 1171.98,830.567 1174.18,830.64 1176.38,830.713 1178.57,830.785 1180.77,830.856 1182.97,830.927 1185.17,830.996 1187.37,831.066 1189.57,831.134 1191.77,831.202 1193.97,831.269 1196.16,831.335 1198.36,831.401 1200.56,831.466 1202.76,831.53 1204.96,831.594 1207.16,831.657 1209.36,831.719 1211.56,831.781 1213.76,831.842 1215.95,831.902 1218.15,831.962 1220.35,832.022 1222.55,832.08 1224.75,832.138 1226.95,832.196 1229.15,832.253 1231.35,832.309 1233.55,832.365 1235.74,832.42 1237.94,832.475 1240.14,832.529 1242.34,832.583 1244.54,832.636 1246.74,832.688 1248.94,832.74 1251.14,832.792 1253.33,832.843 1255.53,832.893 1257.73,832.943 1259.93,832.993 1262.13,833.042 1264.33,833.09 1266.53,833.138 1268.73,833.186 1270.93,833.233 1273.12,833.279 1275.32,833.326 1277.52,833.371 1279.72,833.417 1281.92,833.461 1284.12,833.506 1286.32,833.55 1288.52,833.593 1290.71,833.636 1292.91,833.679 1295.11,833.721 1297.31,833.763 1299.51,833.805 1301.71,833.846 1303.91,833.887 1306.11,833.927 1308.31,833.967 1310.5,834.007 1312.7,834.046 1314.9,834.085 1317.1,834.123 1319.3,834.161 1321.5,834.199 1323.7,834.236 1325.9,834.273 1328.1,834.31 1330.29,834.346 1332.49,834.382 1334.69,834.418 1336.89,834.453 1339.09,834.488 1341.29,834.523 1343.49,834.557 1345.69,834.591 1347.88,834.624 1350.08,834.657 1352.28,834.69 1354.48,834.723 1356.68,834.755 1358.88,834.787 1361.08,834.818 1363.28,834.85 1365.48,834.881 1367.67,834.911 1369.87,834.942 1372.07,834.972 1374.27,835.001 1376.47,835.031 1378.67,835.06 1380.87,835.089 1383.07,835.117 1385.27,835.146 1387.46,835.174 1389.66,835.201 1391.86,835.229 1394.06,835.256 1396.26,835.283 1398.46,835.309 1400.66,835.335 1402.86,835.361 1405.05,835.387 1407.25,835.413 1409.45,835.438 1411.65,835.463 1413.85,835.488 1416.05,835.512 1418.25,835.536 1420.45,835.56 1422.65,835.584 1424.84,835.607 1427.04,835.63 1429.24,835.653 1431.44,835.676 1433.64,835.699 1435.84,835.721 1438.04,835.743 1440.24,835.765 1442.44,835.786 1444.63,835.808 1446.83,835.829 1449.03,835.85 1451.23,835.87 1453.43,835.891 1455.63,835.911 1457.83,835.931 1460.03,835.951 1462.22,835.971 1464.42,835.99 1466.62,836.009 1468.82,836.028 1471.02,836.047 1473.22,836.066 1475.42,836.084 1477.62,836.102 1479.82,836.121 1482.01,836.138 1484.21,836.156 1486.41,836.174 1488.61,836.191 1490.81,836.208 1493.01,836.225 1495.21,836.242 1497.41,836.259 1499.6,836.275 1501.8,836.291 1504,836.308 1506.2,836.324 1508.4,836.339 1510.6,836.355 1512.8,836.371 1515,836.386 1517.2,836.401 1519.39,836.416 1521.59,836.431 1523.79,836.446 1525.99,836.46 1528.19,836.475 1530.39,836.489 1532.59,836.503 1534.79,836.518 1536.99,836.531 1539.18,836.545 1541.38,836.559 1543.58,836.573 1545.78,836.586 1547.98,836.599 1550.18,836.612 1552.38,836.625 1554.58,836.638 1556.77,836.651 1558.97,836.664 1561.17,836.677 1563.37,836.689 1565.57,836.701 1567.77,836.714 1569.97,836.726 1572.17,836.738 1574.37,836.75 1576.56,836.762 1578.76,836.774 1580.96,836.785 1583.16,836.797 1585.36,836.808 1587.56,836.819 1589.76,836.831 1591.96,836.842 1594.16,836.853 1596.35,836.864 1598.55,836.874 1600.75,836.885 1602.95,836.896 1605.15,836.906 1607.35,836.917 1609.55,836.927 1611.75,836.937 1613.94,836.947 1616.14,836.957 1618.34,836.967 1620.54,836.977 1622.74,836.987 1624.94,836.996 1627.14,837.006 1629.34,837.015 1631.54,837.024 1633.73,837.034 1635.93,837.043 1638.13,837.052 1640.33,837.061 1642.53,837.07 1644.73,837.079 1646.93,837.087 1649.13,837.096 1651.33,837.104 1653.52,837.113 1655.72,837.121 1657.92,837.129 1660.12,837.138 1662.32,837.146 1664.52,837.154 1666.72,837.162 1668.92,837.169 1671.11,837.177 1673.31,837.185 1675.51,837.192 1677.71,837.2 1679.91,837.207 1682.11,837.215 1684.31,837.222 1686.51,837.229 1688.71,837.236 1690.9,837.243 1693.1,837.25 1695.3,837.257 1697.5,837.264 1699.7,837.271 1701.9,837.278 1704.1,837.284 1706.3,837.291 1708.5,837.297 1710.69,837.304 1712.89,837.31 1715.09,837.316 1717.29,837.322 1719.49,837.328 1721.69,837.334 1723.89,837.34 1726.09,837.346 1728.28,837.352 1730.48,837.358 1732.68,837.364 1734.88,837.369 1737.08,837.375 1739.28,837.381 1741.48,837.386 1743.68,837.391 1745.88,837.397 1748.07,837.402 1750.27,837.407 1752.47,837.413 1754.67,837.418 1756.87,837.423 1759.07,837.428 1761.27,837.433 1763.47,837.438 1765.66,837.442 1767.86,837.447 1770.06,837.452 1772.26,837.457 1774.46,837.461 1776.66,837.466 1778.86,837.47 1781.06,837.475 1783.26,837.479 1785.45,837.484 1787.65,837.488 1789.85,837.492 1792.05,837.497 1794.25,837.501 1796.45,837.505 1798.65,837.509 1800.85,837.513 1803.05,837.517 1805.24,837.521 1807.44,837.525 1809.64,837.529 1811.84,837.533 1814.04,837.537 1816.24,837.541 1818.44,837.544 1820.64,837.548 1822.83,837.552 1825.03,837.555 1827.23,837.559 1829.43,837.563 1831.63,837.566 1833.83,837.57 1836.03,837.573 1838.23,837.577 1840.43,837.58 1842.62,837.583 1844.82,837.587 1847.02,837.59 1849.22,837.593 1851.42,837.597 1853.62,837.6 1855.82,837.603 1858.02,837.606 1860.22,837.609 1862.41,837.613 1864.61,837.616 1866.81,837.619 1869.01,837.622 1871.21,837.625 1873.41,837.628 1875.61,837.631 1877.81,837.634 1880,837.637 1882.2,837.64 1884.4,837.643 1886.6,837.646 1888.8,837.649 1891,837.651 1893.2,837.654 1895.4,837.657 1897.6,837.66 1899.79,837.663 1901.99,837.665 1904.19,837.668 1906.39,837.671 1908.59,837.674 1910.79,837.676 1912.99,837.679 1915.19,837.682 1917.39,837.684 1919.58,837.687 1921.78,837.689 1923.98,837.692 1926.18,837.694 1928.38,837.697 1930.58,837.699 1932.78,837.702 1934.98,837.704 1937.17,837.706 1939.37,837.709 1941.57,837.711 1943.77,837.714 1945.97,837.716 1948.17,837.718 1950.37,837.72 1952.57,837.723 1954.77,837.725 1956.96,837.727 1959.16,837.729 1961.36,837.731 1963.56,837.734 1965.76,837.736 1967.96,837.738 1970.16,837.74 1972.36,837.742 1974.55,837.744 1976.75,837.746 1978.95,837.748 1981.15,837.75 1983.35,837.752 1985.55,837.754 1987.75,837.756 1989.95,837.758 1992.15,837.759 1994.34,837.761 1996.54,837.763 1998.74,837.765 2000.94,837.767 2003.14,837.768 2005.34,837.77 2007.54,837.772 2009.74,837.774 2011.94,837.775 2014.13,837.777 2016.33,837.779 2018.53,837.78 2020.73,837.782 2022.93,837.784 2025.13,837.785 2027.33,837.787 2029.53,837.788 2031.72,837.79 2033.92,837.791 2036.12,837.793 2038.32,837.794 2040.52,837.796 2042.72,837.797 2044.92,837.799 2047.12,837.8 2049.32,837.801 2051.51,837.803 2053.71,837.804 2055.91,837.805 2058.11,837.807 2060.31,837.808 2062.51,837.809 2064.71,837.811 2066.91,837.812 2069.11,837.813 2071.3,837.814 2073.5,837.815 2075.7,837.817 2077.9,837.818 2080.1,837.819 2082.3,837.82 2084.5,837.821 2086.7,837.822 2088.89,837.823 2091.09,837.825 2093.29,837.826 2095.49,837.827 2097.69,837.828 2099.89,837.829 2102.09,837.83 2104.29,837.831 2106.49,837.832 2108.68,837.833 2110.88,837.834 2113.08,837.835 2115.28,837.836 2117.48,837.837 2119.68,837.838 2121.88,837.838 2124.08,837.839 2126.28,837.84 2128.47,837.841 2130.67,837.842 2132.87,837.843 2135.07,837.844 2137.27,837.844 2139.47,837.845 2141.67,837.846 2143.87,837.847 2146.06,837.848 2148.26,837.848 2150.46,837.849 2152.66,837.85 2154.86,837.851 2157.06,837.851 2159.26,837.852 2161.46,837.853 2163.66,837.854 2165.85,837.854 2168.05,837.855 2170.25,837.856 2172.45,837.856 2174.65,837.857 2176.85,837.858 2179.05,837.858 2181.25,837.859 2183.45,837.86 2185.64,837.86 2187.84,837.861 2190.04,837.861 2192.24,837.862 2194.44,837.863 2196.64,837.863 2198.84,837.864 2201.04,837.864 2203.23,837.865 2205.43,837.866 2207.63,837.866 2209.83,837.867 2212.03,837.867 2214.23,837.868 2216.43,837.868 2218.63,837.869 2220.83,837.87 2223.02,837.87 2225.22,837.871 2227.42,837.871 2229.62,837.872 2231.82,837.872 2234.02,837.873 2236.22,837.873 2238.42,837.874 2240.61,837.874 2242.81,837.875 2245.01,837.876 2247.21,837.876 2249.41,837.877 2251.61,837.877 2253.81,837.878 2256.01,837.878 2258.21,837.879 2260.4,837.879 2262.6,837.88 2264.8,837.88 2267,837.881 2269.2,837.881 2271.4,837.882 2273.6,837.883 2275.8,837.883 2278,837.884 2280.19,837.884 2282.39,837.885 2284.59,837.885 2286.79,837.886 2288.99,837.886 2291.19,837.887 2293.39,837.887 2295.59,837.888 2297.78,837.888 2299.98,837.888 2302.18,837.889 2304.38,837.889 2306.58,837.89 2308.78,837.89 2310.98,837.891 2313.18,837.891 2315.38,837.892 2317.57,837.892 2319.77,837.892 2321.97,837.893 2324.17,837.893 2326.37,837.894 2328.57,837.894 2330.77,837.895 2332.97,837.895 2335.17,837.895 2337.36,837.896 2339.56,837.896 2341.76,837.896 2343.96,837.897 2346.16,837.897 2348.36,837.898 2350.56,837.898 2352.76,837.898 "/>
<polyline clip-path="url(#clip782)" style="stroke:#e26f46; stroke-linecap:round; stroke-linejoin:round; stroke-width:4; stroke-opacity:1; fill:none" points="156.112,1384.24 158.311,1379.65 160.51,1375.11 162.709,1370.6 164.907,1366.13 167.106,1361.71 169.305,1357.32 171.504,1352.97 173.703,1348.66 175.902,1344.39 178.101,1340.15 180.299,1335.95 182.498,1331.79 184.697,1327.67 186.896,1323.58 189.095,1319.53 191.294,1315.51 193.492,1311.53 195.691,1307.59 197.89,1303.68 200.089,1299.8 202.288,1295.96 204.487,1292.15 206.686,1288.37 208.884,1284.63 211.083,1280.92 213.282,1277.25 215.481,1273.6 217.68,1269.99 219.879,1266.41 222.077,1262.86 224.276,1259.34 226.475,1255.85 228.674,1252.39 230.873,1248.97 233.072,1245.57 235.27,1242.2 237.469,1238.86 239.668,1235.55 241.867,1232.27 244.066,1229.02 246.265,1225.8 248.464,1222.6 250.662,1219.44 252.861,1216.3 255.06,1213.18 257.259,1210.1 259.458,1207.04 261.657,1204.01 263.855,1201 266.054,1198.02 268.253,1195.07 270.452,1192.14 272.651,1189.24 274.85,1186.36 277.048,1183.51 279.247,1180.68 281.446,1177.88 283.645,1175.1 285.844,1172.34 288.043,1169.61 290.242,1166.9 292.44,1164.22 294.639,1161.56 296.838,1158.92 299.037,1156.3 301.236,1153.71 303.435,1151.14 305.633,1148.59 307.832,1146.07 310.031,1143.56 312.23,1141.08 314.429,1138.62 316.628,1136.18 318.826,1133.76 321.025,1131.36 323.224,1128.98 325.423,1126.62 327.622,1124.29 329.821,1121.97 332.02,1119.67 334.218,1117.39 336.417,1115.14 338.616,1112.9 340.815,1110.68 343.014,1108.48 345.213,1106.29 347.411,1104.13 349.61,1101.99 351.809,1099.86 354.008,1097.75 356.207,1095.66 358.406,1093.59 360.604,1091.54 362.803,1089.5 365.002,1087.48 367.201,1085.48 369.4,1083.49 371.599,1081.52 373.798,1079.57 375.996,1077.63 378.195,1075.72 380.394,1073.81 382.593,1071.93 384.792,1070.06 386.991,1068.2 389.189,1066.36 391.388,1064.54 393.587,1062.73 395.786,1060.94 397.985,1059.16 400.184,1057.4 402.382,1055.65 404.581,1053.92 406.78,1052.2 408.979,1050.5 411.178,1048.81 413.377,1047.14 415.576,1045.48 417.774,1043.83 419.973,1042.2 422.172,1040.58 424.371,1038.97 426.57,1037.38 428.769,1035.8 430.967,1034.24 433.166,1032.69 435.365,1031.15 437.564,1029.62 439.763,1028.11 441.962,1026.61 444.161,1025.12 446.359,1023.64 448.558,1022.18 450.757,1020.73 452.956,1019.29 455.155,1017.87 457.354,1016.45 459.552,1015.05 461.751,1013.66 463.95,1012.28 466.149,1010.91 468.348,1009.55 470.547,1008.21 472.745,1006.87 474.944,1005.55 477.143,1004.24 479.342,1002.94 481.541,1001.65 483.74,1000.37 485.939,999.099 488.137,997.841 490.336,996.593 492.535,995.356 494.734,994.129 496.933,992.912 499.132,991.705 501.33,990.508 503.529,989.321 505.728,988.144 507.927,986.977 510.126,985.819 512.325,984.671 514.523,983.533 516.722,982.403 518.921,981.284 521.12,980.173 523.319,979.072 525.518,977.979 527.717,976.896 529.915,975.822 532.114,974.756 534.313,973.699 536.512,972.651 538.711,971.612 540.91,970.581 543.108,969.559 545.307,968.545 547.506,967.539 549.705,966.542 551.904,965.552 554.103,964.571 556.301,963.598 558.5,962.633 560.699,961.675 562.898,960.726 565.097,959.784 567.296,958.85 569.495,957.924 571.693,957.005 573.892,956.094 576.091,955.19 578.29,954.293 580.489,953.404 582.688,952.522 584.886,951.647 587.085,950.779 589.284,949.918 591.483,949.064 593.682,948.218 595.881,947.378 598.079,946.544 600.278,945.718 602.477,944.898 604.676,944.085 606.875,943.279 609.074,942.479 611.273,941.685 613.471,940.898 615.67,940.118 617.869,939.343 620.068,938.575 622.267,937.813 624.466,937.058 626.664,936.308 628.863,935.564 631.062,934.827 633.261,934.095 635.46,933.37 637.659,932.65 639.858,931.936 642.056,931.227 644.255,930.525 646.454,929.828 648.653,929.136 650.852,928.451 653.051,927.77 655.249,927.096 657.448,926.426 659.647,925.762 661.846,925.103 664.045,924.45 666.244,923.802 668.442,923.159 670.641,922.521 672.84,921.888 675.039,921.26 677.238,920.637 679.437,920.02 681.636,919.407 683.834,918.799 686.033,918.196 688.232,917.597 690.431,917.004 692.63,916.415 694.829,915.83 697.027,915.251 699.226,914.676 701.425,914.105 703.624,913.539 705.823,912.978 708.022,912.421 710.22,911.868 712.419,911.32 714.618,910.776 716.817,910.236 719.016,909.701 721.215,909.17 723.414,908.643 725.612,908.12 727.811,907.601 730.01,907.086 732.209,906.576 734.408,906.069 736.607,905.566 738.805,905.068 741.004,904.573 743.203,904.082 745.402,903.595 747.601,903.111 749.8,902.632 751.998,902.156 754.197,901.684 756.396,901.216 758.595,900.751 760.794,900.29 762.993,899.833 765.192,899.379 767.39,898.929 769.589,898.482 771.788,898.039 773.987,897.599 776.186,897.163 778.385,896.73 780.583,896.3 782.782,895.874 784.981,895.451 787.18,895.032 789.379,894.615 791.578,894.202 793.776,893.793 795.975,893.386 798.174,892.982 800.373,892.582 802.572,892.185 804.771,891.791 806.97,891.4 809.168,891.012 811.367,890.627 813.566,890.245 815.765,889.865 817.964,889.489 820.163,889.116 822.361,888.746 824.56,888.378 826.759,888.013 828.958,887.652 831.157,887.292 833.356,886.936 835.554,886.583 837.753,886.232 839.952,885.884 842.151,885.538 844.35,885.195 846.549,884.855 848.748,884.517 850.946,884.182 853.145,883.85 855.344,883.52 857.543,883.193 859.742,882.868 861.941,882.545 864.139,882.225 866.338,881.908 868.537,881.593 870.736,881.28 872.935,880.97 875.134,880.662 877.333,880.356 879.531,880.053 881.73,879.752 883.929,879.453 886.128,879.156 888.327,878.862 890.526,878.57 892.724,878.28 894.923,877.992 897.122,877.707 899.321,877.424 901.52,877.142 903.719,876.863 905.917,876.586 908.116,876.311 910.315,876.039 912.514,875.768 914.713,875.499 916.912,875.232 919.111,874.968 921.309,874.705 923.508,874.444 925.707,874.185 927.906,873.929 930.105,873.674 932.304,873.421 934.502,873.17 936.701,872.921 938.9,872.673 941.099,872.428 943.298,872.184 945.497,871.943 947.695,871.703 949.894,871.465 952.093,871.228 954.292,870.994 956.491,870.761 958.69,870.53 960.889,870.301 963.087,870.073 965.286,869.847 967.485,869.623 969.684,869.401 971.883,869.18 974.082,868.961 976.28,868.743 978.479,868.527 980.678,868.313 982.877,868.1 985.076,867.889 987.275,867.68 989.473,867.472 991.672,867.265 993.871,867.06 996.07,866.857 998.269,866.655 1000.47,866.455 1002.67,866.256 1004.87,866.059 1007.06,865.863 1009.26,865.668 1011.46,865.475 1013.66,865.284 1015.86,865.093 1018.06,864.905 1020.26,864.717 1022.46,864.531 1024.65,864.347 1026.85,864.164 1029.05,863.982 1031.25,863.801 1033.45,863.622 1035.65,863.444 1037.85,863.267 1040.05,863.092 1042.25,862.918 1044.44,862.745 1046.64,862.574 1048.84,862.403 1051.04,862.234 1053.24,862.067 1055.44,861.9 1057.64,861.735 1059.84,861.571 1062.04,861.408 1064.23,861.246 1066.43,861.085 1068.63,860.926 1070.83,860.767 1073.03,860.61 1075.23,860.454 1077.43,860.299 1079.63,860.146 1081.82,859.993 1084.02,859.841 1086.22,859.691 1088.42,859.541 1090.62,859.393 1092.82,859.246 1095.02,859.1 1097.22,858.954 1099.42,858.81 1101.61,858.667 1103.81,858.525 1106.01,858.384 1108.21,858.244 1110.41,858.105 1112.61,857.967 1114.81,857.83 1117.01,857.694 1119.21,857.559 1121.4,857.425 1123.6,857.292 1125.8,857.16 1128,857.029 1130.2,856.898 1132.4,856.769 1134.6,856.641 1136.8,856.513 1138.99,856.387 1141.19,856.261 1143.39,856.136 1145.59,856.013 1147.79,855.89 1149.99,855.768 1152.19,855.647 1154.39,855.526 1156.59,855.407 1158.78,855.288 1160.98,855.171 1163.18,855.054 1165.38,854.938 1167.58,854.823 1169.78,854.708 1171.98,854.595 1174.18,854.482 1176.38,854.37 1178.57,854.259 1180.77,854.149 1182.97,854.04 1185.17,853.931 1187.37,853.823 1189.57,853.716 1191.77,853.609 1193.97,853.504 1196.16,853.399 1198.36,853.295 1200.56,853.191 1202.76,853.089 1204.96,852.987 1207.16,852.886 1209.36,852.785 1211.56,852.686 1213.76,852.587 1215.95,852.488 1218.15,852.391 1220.35,852.294 1222.55,852.198 1224.75,852.102 1226.95,852.007 1229.15,851.913 1231.35,851.819 1233.55,851.727 1235.74,851.634 1237.94,851.543 1240.14,851.452 1242.34,851.362 1244.54,851.272 1246.74,851.183 1248.94,851.095 1251.14,851.007 1253.33,850.92 1255.53,850.833 1257.73,850.747 1259.93,850.662 1262.13,850.577 1264.33,850.493 1266.53,850.409 1268.73,850.326 1270.93,850.244 1273.12,850.162 1275.32,850.081 1277.52,850 1279.72,849.92 1281.92,849.841 1284.12,849.761 1286.32,849.683 1288.52,849.605 1290.71,849.528 1292.91,849.451 1295.11,849.374 1297.31,849.298 1299.51,849.223 1301.71,849.148 1303.91,849.074 1306.11,849 1308.31,848.927 1310.5,848.854 1312.7,848.782 1314.9,848.71 1317.1,848.639 1319.3,848.568 1321.5,848.497 1323.7,848.428 1325.9,848.358 1328.1,848.289 1330.29,848.221 1332.49,848.153 1334.69,848.085 1336.89,848.018 1339.09,847.952 1341.29,847.886 1343.49,847.82 1345.69,847.755 1347.88,847.69 1350.08,847.626 1352.28,847.562 1354.48,847.498 1356.68,847.435 1358.88,847.373 1361.08,847.31 1363.28,847.249 1365.48,847.187 1367.67,847.127 1369.87,847.066 1372.07,847.006 1374.27,846.946 1376.47,846.887 1378.67,846.828 1380.87,846.77 1383.07,846.712 1385.27,846.654 1387.46,846.597 1389.66,846.54 1391.86,846.484 1394.06,846.428 1396.26,846.372 1398.46,846.317 1400.66,846.262 1402.86,846.208 1405.05,846.154 1407.25,846.1 1409.45,846.047 1411.65,845.994 1413.85,845.941 1416.05,845.889 1418.25,845.837 1420.45,845.785 1422.65,845.734 1424.84,845.683 1427.04,845.633 1429.24,845.583 1431.44,845.533 1433.64,845.483 1435.84,845.434 1438.04,845.386 1440.24,845.337 1442.44,845.289 1444.63,845.241 1446.83,845.194 1449.03,845.147 1451.23,845.1 1453.43,845.054 1455.63,845.007 1457.83,844.962 1460.03,844.916 1462.22,844.871 1464.42,844.826 1466.62,844.781 1468.82,844.737 1471.02,844.693 1473.22,844.649 1475.42,844.606 1477.62,844.563 1479.82,844.52 1482.01,844.478 1484.21,844.435 1486.41,844.393 1488.61,844.352 1490.81,844.31 1493.01,844.269 1495.21,844.229 1497.41,844.188 1499.6,844.148 1501.8,844.108 1504,844.068 1506.2,844.029 1508.4,843.989 1510.6,843.95 1512.8,843.912 1515,843.873 1517.2,843.835 1519.39,843.797 1521.59,843.76 1523.79,843.722 1525.99,843.685 1528.19,843.648 1530.39,843.612 1532.59,843.575 1534.79,843.539 1536.99,843.503 1539.18,843.467 1541.38,843.432 1543.58,843.397 1545.78,843.362 1547.98,843.327 1550.18,843.292 1552.38,843.258 1554.58,843.224 1556.77,843.19 1558.97,843.156 1561.17,843.123 1563.37,843.089 1565.57,843.056 1567.77,843.024 1569.97,842.991 1572.17,842.959 1574.37,842.926 1576.56,842.894 1578.76,842.863 1580.96,842.831 1583.16,842.8 1585.36,842.768 1587.56,842.737 1589.76,842.707 1591.96,842.676 1594.16,842.646 1596.35,842.616 1598.55,842.586 1600.75,842.556 1602.95,842.526 1605.15,842.497 1607.35,842.468 1609.55,842.439 1611.75,842.41 1613.94,842.381 1616.14,842.353 1618.34,842.324 1620.54,842.296 1622.74,842.268 1624.94,842.241 1627.14,842.213 1629.34,842.186 1631.54,842.159 1633.73,842.132 1635.93,842.105 1638.13,842.078 1640.33,842.052 1642.53,842.026 1644.73,841.999 1646.93,841.973 1649.13,841.948 1651.33,841.922 1653.52,841.897 1655.72,841.871 1657.92,841.846 1660.12,841.821 1662.32,841.797 1664.52,841.772 1666.72,841.748 1668.92,841.723 1671.11,841.699 1673.31,841.675 1675.51,841.652 1677.71,841.628 1679.91,841.604 1682.11,841.581 1684.31,841.558 1686.51,841.535 1688.71,841.512 1690.9,841.489 1693.1,841.467 1695.3,841.444 1697.5,841.422 1699.7,841.4 1701.9,841.378 1704.1,841.356 1706.3,841.335 1708.5,841.313 1710.69,841.292 1712.89,841.271 1715.09,841.25 1717.29,841.229 1719.49,841.208 1721.69,841.187 1723.89,841.167 1726.09,841.146 1728.28,841.126 1730.48,841.106 1732.68,841.086 1734.88,841.066 1737.08,841.046 1739.28,841.027 1741.48,841.007 1743.68,840.988 1745.88,840.969 1748.07,840.95 1750.27,840.931 1752.47,840.912 1754.67,840.893 1756.87,840.875 1759.07,840.856 1761.27,840.838 1763.47,840.82 1765.66,840.802 1767.86,840.784 1770.06,840.766 1772.26,840.748 1774.46,840.73 1776.66,840.713 1778.86,840.696 1781.06,840.678 1783.26,840.661 1785.45,840.644 1787.65,840.627 1789.85,840.61 1792.05,840.594 1794.25,840.577 1796.45,840.561 1798.65,840.544 1800.85,840.528 1803.05,840.512 1805.24,840.496 1807.44,840.48 1809.64,840.464 1811.84,840.448 1814.04,840.433 1816.24,840.417 1818.44,840.402 1820.64,840.386 1822.83,840.371 1825.03,840.356 1827.23,840.341 1829.43,840.326 1831.63,840.311 1833.83,840.296 1836.03,840.281 1838.23,840.267 1840.43,840.252 1842.62,840.238 1844.82,840.224 1847.02,840.209 1849.22,840.195 1851.42,840.181 1853.62,840.167 1855.82,840.153 1858.02,840.139 1860.22,840.126 1862.41,840.112 1864.61,840.099 1866.81,840.085 1869.01,840.072 1871.21,840.058 1873.41,840.045 1875.61,840.032 1877.81,840.019 1880,840.006 1882.2,839.993 1884.4,839.98 1886.6,839.967 1888.8,839.955 1891,839.942 1893.2,839.93 1895.4,839.917 1897.6,839.905 1899.79,839.892 1901.99,839.88 1904.19,839.868 1906.39,839.856 1908.59,839.844 1910.79,839.832 1912.99,839.82 1915.19,839.808 1917.39,839.797 1919.58,839.785 1921.78,839.773 1923.98,839.762 1926.18,839.75 1928.38,839.739 1930.58,839.728 1932.78,839.717 1934.98,839.705 1937.17,839.694 1939.37,839.683 1941.57,839.672 1943.77,839.662 1945.97,839.651 1948.17,839.64 1950.37,839.629 1952.57,839.619 1954.77,839.608 1956.96,839.598 1959.16,839.587 1961.36,839.577 1963.56,839.567 1965.76,839.557 1967.96,839.546 1970.16,839.536 1972.36,839.526 1974.55,839.516 1976.75,839.507 1978.95,839.497 1981.15,839.487 1983.35,839.477 1985.55,839.468 1987.75,839.458 1989.95,839.449 1992.15,839.439 1994.34,839.43 1996.54,839.42 1998.74,839.411 2000.94,839.402 2003.14,839.393 2005.34,839.384 2007.54,839.375 2009.74,839.366 2011.94,839.357 2014.13,839.348 2016.33,839.339 2018.53,839.33 2020.73,839.322 2022.93,839.313 2025.13,839.304 2027.33,839.296 2029.53,839.288 2031.72,839.279 2033.92,839.271 2036.12,839.262 2038.32,839.254 2040.52,839.246 2042.72,839.238 2044.92,839.23 2047.12,839.222 2049.32,839.214 2051.51,839.206 2053.71,839.198 2055.91,839.19 2058.11,839.183 2060.31,839.175 2062.51,839.167 2064.71,839.16 2066.91,839.152 2069.11,839.144 2071.3,839.137 2073.5,839.13 2075.7,839.122 2077.9,839.115 2080.1,839.108 2082.3,839.1 2084.5,839.093 2086.7,839.086 2088.89,839.079 2091.09,839.072 2093.29,839.065 2095.49,839.058 2097.69,839.051 2099.89,839.044 2102.09,839.038 2104.29,839.031 2106.49,839.024 2108.68,839.017 2110.88,839.011 2113.08,839.004 2115.28,838.998 2117.48,838.991 2119.68,838.985 2121.88,838.978 2124.08,838.972 2126.28,838.966 2128.47,838.959 2130.67,838.953 2132.87,838.947 2135.07,838.941 2137.27,838.935 2139.47,838.929 2141.67,838.922 2143.87,838.916 2146.06,838.911 2148.26,838.905 2150.46,838.899 2152.66,838.893 2154.86,838.887 2157.06,838.881 2159.26,838.876 2161.46,838.87 2163.66,838.864 2165.85,838.859 2168.05,838.853 2170.25,838.847 2172.45,838.842 2174.65,838.836 2176.85,838.831 2179.05,838.825 2181.25,838.82 2183.45,838.815 2185.64,838.809 2187.84,838.804 2190.04,838.799 2192.24,838.794 2194.44,838.788 2196.64,838.783 2198.84,838.778 2201.04,838.773 2203.23,838.768 2205.43,838.763 2207.63,838.758 2209.83,838.753 2212.03,838.748 2214.23,838.743 2216.43,838.738 2218.63,838.733 2220.83,838.729 2223.02,838.724 2225.22,838.719 2227.42,838.714 2229.62,838.709 2231.82,838.705 2234.02,838.7 2236.22,838.695 2238.42,838.691 2240.61,838.686 2242.81,838.682 2245.01,838.677 2247.21,838.673 2249.41,838.668 2251.61,838.664 2253.81,838.659 2256.01,838.655 2258.21,838.65 2260.4,838.646 2262.6,838.642 2264.8,838.637 2267,838.633 2269.2,838.629 2271.4,838.625 2273.6,838.62 2275.8,838.616 2278,838.612 2280.19,838.608 2282.39,838.604 2284.59,838.6 2286.79,838.596 2288.99,838.592 2291.19,838.587 2293.39,838.584 2295.59,838.58 2297.78,838.576 2299.98,838.572 2302.18,838.568 2304.38,838.564 2306.58,838.56 2308.78,838.556 2310.98,838.552 2313.18,838.549 2315.38,838.545 2317.57,838.541 2319.77,838.537 2321.97,838.534 2324.17,838.53 2326.37,838.526 2328.57,838.523 2330.77,838.519 2332.97,838.516 2335.17,838.512 2337.36,838.509 2339.56,838.505 2341.76,838.502 2343.96,838.498 2346.16,838.495 2348.36,838.491 2350.56,838.488 2352.76,838.485 "/>
<path clip-path="url(#clip780)" d="M1800.47 248.629 L2279.53 248.629 L2279.53 93.1086 L1800.47 93.1086  Z" fill="#ffffff" fill-rule="evenodd" fill-opacity="1"/>
<polyline clip-path="url(#clip780)" style="stroke:#000000; stroke-linecap:round; stroke-linejoin:round; stroke-width:4; stroke-opacity:1; fill:none" points="1800.47,248.629 2279.53,248.629 2279.53,93.1086 1800.47,93.1086 1800.47,248.629 "/>
<polyline clip-path="url(#clip780)" style="stroke:#009af9; stroke-linecap:round; stroke-linejoin:round; stroke-width:4; stroke-opacity:1; fill:none" points="1824.88,144.949 1971.32,144.949 "/>
<path clip-path="url(#clip780)" d="M1995.73 136.303 L2000.24 136.303 L2008.35 158.062 L2016.45 136.303 L2020.96 136.303 L2011.24 162.229 L2005.45 162.229 L1995.73 136.303 Z" fill="#000000" fill-rule="nonzero" fill-opacity="1" /><path clip-path="url(#clip780)" d="M2028.25 158.293 L2035.89 158.293 L2035.89 131.928 L2027.58 133.595 L2027.58 129.335 L2035.85 127.669 L2040.52 127.669 L2040.52 158.293 L2048.16 158.293 L2048.16 162.229 L2028.25 162.229 L2028.25 158.293 Z" fill="#000000" fill-rule="nonzero" fill-opacity="1" /><path clip-path="url(#clip780)" d="M2066.26 145.585 L2066.26 152.807 L2074.39 152.807 L2074.39 155.006 L2066.26 155.006 L2066.26 162.229 L2063.83 162.229 L2063.83 155.006 L2055.71 155.006 L2055.71 152.807 L2063.83 152.807 L2063.83 145.585 L2066.26 145.585 Z" fill="#000000" fill-rule="nonzero" fill-opacity="1" /><path clip-path="url(#clip780)" d="M2098.55 137.067 L2098.55 141.094 Q2096.75 140.169 2094.8 139.706 Q2092.86 139.243 2090.78 139.243 Q2087.61 139.243 2086.01 140.215 Q2084.43 141.187 2084.43 143.131 Q2084.43 144.613 2085.57 145.469 Q2086.7 146.303 2090.13 147.067 L2091.59 147.391 Q2096.12 148.363 2098.02 150.145 Q2099.94 151.905 2099.94 155.076 Q2099.94 158.687 2097.07 160.793 Q2094.23 162.9 2089.23 162.9 Q2087.14 162.9 2084.87 162.483 Q2082.63 162.09 2080.13 161.28 L2080.13 156.881 Q2082.49 158.108 2084.78 158.733 Q2087.07 159.335 2089.32 159.335 Q2092.33 159.335 2093.95 158.317 Q2095.57 157.275 2095.57 155.4 Q2095.57 153.664 2094.39 152.738 Q2093.23 151.812 2089.27 150.956 L2087.79 150.608 Q2083.83 149.775 2082.07 148.062 Q2080.31 146.326 2080.31 143.317 Q2080.31 139.659 2082.91 137.669 Q2085.5 135.678 2090.27 135.678 Q2092.63 135.678 2094.71 136.025 Q2096.79 136.372 2098.55 137.067 Z" fill="#000000" fill-rule="nonzero" fill-opacity="1" /><path clip-path="url(#clip780)" d="M2110.94 128.942 L2110.94 136.303 L2119.71 136.303 L2119.71 139.613 L2110.94 139.613 L2110.94 153.687 Q2110.94 156.858 2111.79 157.761 Q2112.67 158.664 2115.34 158.664 L2119.71 158.664 L2119.71 162.229 L2115.34 162.229 Q2110.41 162.229 2108.53 160.4 Q2106.66 158.548 2106.66 153.687 L2106.66 139.613 L2103.53 139.613 L2103.53 136.303 L2106.66 136.303 L2106.66 128.942 L2110.94 128.942 Z" fill="#000000" fill-rule="nonzero" fill-opacity="1" /><path clip-path="url(#clip780)" d="M2135.36 139.289 Q2131.93 139.289 2129.94 141.974 Q2127.95 144.636 2127.95 149.289 Q2127.95 153.942 2129.92 156.627 Q2131.91 159.289 2135.36 159.289 Q2138.76 159.289 2140.75 156.604 Q2142.74 153.918 2142.74 149.289 Q2142.74 144.682 2140.75 141.997 Q2138.76 139.289 2135.36 139.289 M2135.36 135.678 Q2140.91 135.678 2144.09 139.289 Q2147.26 142.9 2147.26 149.289 Q2147.26 155.655 2144.09 159.289 Q2140.91 162.9 2135.36 162.9 Q2129.78 162.9 2126.61 159.289 Q2123.46 155.655 2123.46 149.289 Q2123.46 142.9 2126.61 139.289 Q2129.78 135.678 2135.36 135.678 Z" fill="#000000" fill-rule="nonzero" fill-opacity="1" /><path clip-path="url(#clip780)" d="M2169.34 140.284 Q2168.62 139.868 2167.77 139.682 Q2166.93 139.474 2165.91 139.474 Q2162.3 139.474 2160.36 141.835 Q2158.44 144.173 2158.44 148.571 L2158.44 162.229 L2154.16 162.229 L2154.16 136.303 L2158.44 136.303 L2158.44 140.331 Q2159.78 137.969 2161.93 136.835 Q2164.09 135.678 2167.16 135.678 Q2167.6 135.678 2168.14 135.747 Q2168.67 135.794 2169.32 135.909 L2169.34 140.284 Z" fill="#000000" fill-rule="nonzero" fill-opacity="1" /><path clip-path="url(#clip780)" d="M2185.59 149.196 Q2180.43 149.196 2178.44 150.377 Q2176.45 151.557 2176.45 154.405 Q2176.45 156.673 2177.93 158.016 Q2179.43 159.335 2182 159.335 Q2185.54 159.335 2187.67 156.835 Q2189.83 154.312 2189.83 150.145 L2189.83 149.196 L2185.59 149.196 M2194.09 147.437 L2194.09 162.229 L2189.83 162.229 L2189.83 158.293 Q2188.37 160.655 2186.19 161.789 Q2184.02 162.9 2180.87 162.9 Q2176.89 162.9 2174.53 160.678 Q2172.19 158.432 2172.19 154.682 Q2172.19 150.307 2175.1 148.085 Q2178.04 145.863 2183.85 145.863 L2189.83 145.863 L2189.83 145.446 Q2189.83 142.507 2187.88 140.909 Q2185.96 139.289 2182.47 139.289 Q2180.24 139.289 2178.14 139.821 Q2176.03 140.354 2174.09 141.419 L2174.09 137.483 Q2176.42 136.581 2178.62 136.141 Q2180.82 135.678 2182.91 135.678 Q2188.53 135.678 2191.31 138.594 Q2194.09 141.511 2194.09 147.437 Z" fill="#000000" fill-rule="nonzero" fill-opacity="1" /><path clip-path="url(#clip780)" d="M2219.92 148.965 Q2219.92 144.335 2218 141.789 Q2216.1 139.243 2212.65 139.243 Q2209.22 139.243 2207.3 141.789 Q2205.41 144.335 2205.41 148.965 Q2205.41 153.571 2207.3 156.118 Q2209.22 158.664 2212.65 158.664 Q2216.1 158.664 2218 156.118 Q2219.92 153.571 2219.92 148.965 M2224.18 159.011 Q2224.18 165.631 2221.24 168.849 Q2218.3 172.09 2212.23 172.09 Q2209.99 172.09 2208 171.742 Q2206.01 171.418 2204.13 170.724 L2204.13 166.58 Q2206.01 167.599 2207.84 168.085 Q2209.66 168.571 2211.56 168.571 Q2215.75 168.571 2217.84 166.372 Q2219.92 164.196 2219.92 159.775 L2219.92 157.668 Q2218.6 159.96 2216.54 161.094 Q2214.48 162.229 2211.61 162.229 Q2206.84 162.229 2203.92 158.594 Q2201.01 154.96 2201.01 148.965 Q2201.01 142.946 2203.92 139.312 Q2206.84 135.678 2211.61 135.678 Q2214.48 135.678 2216.54 136.812 Q2218.6 137.946 2219.92 140.238 L2219.92 136.303 L2224.18 136.303 L2224.18 159.011 Z" fill="#000000" fill-rule="nonzero" fill-opacity="1" /><path clip-path="url(#clip780)" d="M2255.13 148.201 L2255.13 150.284 L2235.54 150.284 Q2235.82 154.682 2238.18 156.997 Q2240.57 159.289 2244.8 159.289 Q2247.26 159.289 2249.55 158.687 Q2251.86 158.085 2254.13 156.881 L2254.13 160.909 Q2251.84 161.881 2249.43 162.391 Q2247.03 162.9 2244.55 162.9 Q2238.34 162.9 2234.71 159.289 Q2231.1 155.678 2231.1 149.52 Q2231.1 143.155 2234.53 139.428 Q2237.97 135.678 2243.81 135.678 Q2249.04 135.678 2252.07 139.057 Q2255.13 142.414 2255.13 148.201 M2250.87 146.951 Q2250.82 143.456 2248.9 141.372 Q2247 139.289 2243.85 139.289 Q2240.29 139.289 2238.14 141.303 Q2236.01 143.317 2235.68 146.974 L2250.87 146.951 Z" fill="#000000" fill-rule="nonzero" fill-opacity="1" /><polyline clip-path="url(#clip780)" style="stroke:#e26f46; stroke-linecap:round; stroke-linejoin:round; stroke-width:4; stroke-opacity:1; fill:none" points="1824.88,196.789 1971.32,196.789 "/>
<path clip-path="url(#clip780)" d="M1995.73 188.143 L2000.24 188.143 L2008.35 209.902 L2016.45 188.143 L2020.96 188.143 L2011.24 214.069 L2005.45 214.069 L1995.73 188.143 Z" fill="#000000" fill-rule="nonzero" fill-opacity="1" /><path clip-path="url(#clip780)" d="M2027.49 179.509 L2045.85 179.509 L2045.85 183.444 L2031.77 183.444 L2031.77 191.916 Q2032.79 191.569 2033.81 191.407 Q2034.83 191.222 2035.85 191.222 Q2041.63 191.222 2045.01 194.393 Q2048.39 197.564 2048.39 202.981 Q2048.39 208.559 2044.92 211.661 Q2041.45 214.74 2035.13 214.74 Q2032.95 214.74 2030.68 214.37 Q2028.44 213.999 2026.03 213.258 L2026.03 208.559 Q2028.11 209.694 2030.34 210.249 Q2032.56 210.805 2035.04 210.805 Q2039.04 210.805 2041.38 208.698 Q2043.72 206.592 2043.72 202.981 Q2043.72 199.37 2041.38 197.263 Q2039.04 195.157 2035.04 195.157 Q2033.16 195.157 2031.29 195.573 Q2029.43 195.99 2027.49 196.87 L2027.49 179.509 Z" fill="#000000" fill-rule="nonzero" fill-opacity="1" /><path clip-path="url(#clip780)" d="M2066.26 197.425 L2066.26 204.647 L2074.39 204.647 L2074.39 206.846 L2066.26 206.846 L2066.26 214.069 L2063.83 214.069 L2063.83 206.846 L2055.71 206.846 L2055.71 204.647 L2063.83 204.647 L2063.83 197.425 L2066.26 197.425 Z" fill="#000000" fill-rule="nonzero" fill-opacity="1" /><path clip-path="url(#clip780)" d="M2098.55 188.907 L2098.55 192.934 Q2096.75 192.009 2094.8 191.546 Q2092.86 191.083 2090.78 191.083 Q2087.61 191.083 2086.01 192.055 Q2084.43 193.027 2084.43 194.971 Q2084.43 196.453 2085.57 197.309 Q2086.7 198.143 2090.13 198.907 L2091.59 199.231 Q2096.12 200.203 2098.02 201.985 Q2099.94 203.745 2099.94 206.916 Q2099.94 210.527 2097.07 212.633 Q2094.23 214.74 2089.23 214.74 Q2087.14 214.74 2084.87 214.323 Q2082.63 213.93 2080.13 213.12 L2080.13 208.721 Q2082.49 209.948 2084.78 210.573 Q2087.07 211.175 2089.32 211.175 Q2092.33 211.175 2093.95 210.157 Q2095.57 209.115 2095.57 207.24 Q2095.57 205.504 2094.39 204.578 Q2093.23 203.652 2089.27 202.796 L2087.79 202.448 Q2083.83 201.615 2082.07 199.902 Q2080.31 198.166 2080.31 195.157 Q2080.31 191.499 2082.91 189.509 Q2085.5 187.518 2090.27 187.518 Q2092.63 187.518 2094.71 187.865 Q2096.79 188.212 2098.55 188.907 Z" fill="#000000" fill-rule="nonzero" fill-opacity="1" /><path clip-path="url(#clip780)" d="M2110.94 180.782 L2110.94 188.143 L2119.71 188.143 L2119.71 191.453 L2110.94 191.453 L2110.94 205.527 Q2110.94 208.698 2111.79 209.601 Q2112.67 210.504 2115.34 210.504 L2119.71 210.504 L2119.71 214.069 L2115.34 214.069 Q2110.41 214.069 2108.53 212.24 Q2106.66 210.388 2106.66 205.527 L2106.66 191.453 L2103.53 191.453 L2103.53 188.143 L2106.66 188.143 L2106.66 180.782 L2110.94 180.782 Z" fill="#000000" fill-rule="nonzero" fill-opacity="1" /><path clip-path="url(#clip780)" d="M2135.36 191.129 Q2131.93 191.129 2129.94 193.814 Q2127.95 196.476 2127.95 201.129 Q2127.95 205.782 2129.92 208.467 Q2131.91 211.129 2135.36 211.129 Q2138.76 211.129 2140.75 208.444 Q2142.74 205.758 2142.74 201.129 Q2142.74 196.522 2140.75 193.837 Q2138.76 191.129 2135.36 191.129 M2135.36 187.518 Q2140.91 187.518 2144.09 191.129 Q2147.26 194.74 2147.26 201.129 Q2147.26 207.495 2144.09 211.129 Q2140.91 214.74 2135.36 214.74 Q2129.78 214.74 2126.61 211.129 Q2123.46 207.495 2123.46 201.129 Q2123.46 194.74 2126.61 191.129 Q2129.78 187.518 2135.36 187.518 Z" fill="#000000" fill-rule="nonzero" fill-opacity="1" /><path clip-path="url(#clip780)" d="M2169.34 192.124 Q2168.62 191.708 2167.77 191.522 Q2166.93 191.314 2165.91 191.314 Q2162.3 191.314 2160.36 193.675 Q2158.44 196.013 2158.44 200.411 L2158.44 214.069 L2154.16 214.069 L2154.16 188.143 L2158.44 188.143 L2158.44 192.171 Q2159.78 189.809 2161.93 188.675 Q2164.09 187.518 2167.16 187.518 Q2167.6 187.518 2168.14 187.587 Q2168.67 187.634 2169.32 187.749 L2169.34 192.124 Z" fill="#000000" fill-rule="nonzero" fill-opacity="1" /><path clip-path="url(#clip780)" d="M2185.59 201.036 Q2180.43 201.036 2178.44 202.217 Q2176.45 203.397 2176.45 206.245 Q2176.45 208.513 2177.93 209.856 Q2179.43 211.175 2182 211.175 Q2185.54 211.175 2187.67 208.675 Q2189.83 206.152 2189.83 201.985 L2189.83 201.036 L2185.59 201.036 M2194.09 199.277 L2194.09 214.069 L2189.83 214.069 L2189.83 210.133 Q2188.37 212.495 2186.19 213.629 Q2184.02 214.74 2180.87 214.74 Q2176.89 214.74 2174.53 212.518 Q2172.19 210.272 2172.19 206.522 Q2172.19 202.147 2175.1 199.925 Q2178.04 197.703 2183.85 197.703 L2189.83 197.703 L2189.83 197.286 Q2189.83 194.347 2187.88 192.749 Q2185.96 191.129 2182.47 191.129 Q2180.24 191.129 2178.14 191.661 Q2176.03 192.194 2174.09 193.259 L2174.09 189.323 Q2176.42 188.421 2178.62 187.981 Q2180.82 187.518 2182.91 187.518 Q2188.53 187.518 2191.31 190.434 Q2194.09 193.351 2194.09 199.277 Z" fill="#000000" fill-rule="nonzero" fill-opacity="1" /><path clip-path="url(#clip780)" d="M2219.92 200.805 Q2219.92 196.175 2218 193.629 Q2216.1 191.083 2212.65 191.083 Q2209.22 191.083 2207.3 193.629 Q2205.41 196.175 2205.41 200.805 Q2205.41 205.411 2207.3 207.958 Q2209.22 210.504 2212.65 210.504 Q2216.1 210.504 2218 207.958 Q2219.92 205.411 2219.92 200.805 M2224.18 210.851 Q2224.18 217.471 2221.24 220.689 Q2218.3 223.93 2212.23 223.93 Q2209.99 223.93 2208 223.582 Q2206.01 223.258 2204.13 222.564 L2204.13 218.42 Q2206.01 219.439 2207.84 219.925 Q2209.66 220.411 2211.56 220.411 Q2215.75 220.411 2217.84 218.212 Q2219.92 216.036 2219.92 211.615 L2219.92 209.508 Q2218.6 211.8 2216.54 212.934 Q2214.48 214.069 2211.61 214.069 Q2206.84 214.069 2203.92 210.434 Q2201.01 206.8 2201.01 200.805 Q2201.01 194.786 2203.92 191.152 Q2206.84 187.518 2211.61 187.518 Q2214.48 187.518 2216.54 188.652 Q2218.6 189.786 2219.92 192.078 L2219.92 188.143 L2224.18 188.143 L2224.18 210.851 Z" fill="#000000" fill-rule="nonzero" fill-opacity="1" /><path clip-path="url(#clip780)" d="M2255.13 200.041 L2255.13 202.124 L2235.54 202.124 Q2235.82 206.522 2238.18 208.837 Q2240.57 211.129 2244.8 211.129 Q2247.26 211.129 2249.55 210.527 Q2251.86 209.925 2254.13 208.721 L2254.13 212.749 Q2251.84 213.721 2249.43 214.231 Q2247.03 214.74 2244.55 214.74 Q2238.34 214.74 2234.71 211.129 Q2231.1 207.518 2231.1 201.36 Q2231.1 194.995 2234.53 191.268 Q2237.97 187.518 2243.81 187.518 Q2249.04 187.518 2252.07 190.897 Q2255.13 194.254 2255.13 200.041 M2250.87 198.791 Q2250.82 195.296 2248.9 193.212 Q2247 191.129 2243.85 191.129 Q2240.29 191.129 2238.14 193.143 Q2236.01 195.157 2235.68 198.814 L2250.87 198.791 Z" fill="#000000" fill-rule="nonzero" fill-opacity="1" /></svg>
