<?xml version="1.0" encoding="utf-8"?>
<svg xmlns="http://www.w3.org/2000/svg" xmlns:xlink="http://www.w3.org/1999/xlink" width="600" height="400" viewBox="0 0 2400 1600">
<defs>
  <clipPath id="clip150">
    <rect x="0" y="0" width="2400" height="1600"/>
  </clipPath>
</defs>
<path clip-path="url(#clip150)" d="M0 1600 L2400 1600 L2400 0 L0 0  Z" fill="#ffffff" fill-rule="evenodd" fill-opacity="1"/>
<defs>
  <clipPath id="clip151">
    <rect x="480" y="0" width="1681" height="1600"/>
  </clipPath>
</defs>
<path clip-path="url(#clip150)" d="M193.936 1423.18 L2352.76 1423.18 L2352.76 47.2441 L193.936 47.2441  Z" fill="#ffffff" fill-rule="evenodd" fill-opacity="1"/>
<defs>
  <clipPath id="clip152">
    <rect x="193" y="47" width="2160" height="1377"/>
  </clipPath>
</defs>
<polyline clip-path="url(#clip152)" style="stroke:#000000; stroke-linecap:round; stroke-linejoin:round; stroke-width:2; stroke-opacity:0.1; fill:none" points="193.936,1423.18 193.936,47.2441 "/>
<polyline clip-path="url(#clip152)" style="stroke:#000000; stroke-linecap:round; stroke-linejoin:round; stroke-width:2; stroke-opacity:0.1; fill:none" points="733.641,1423.18 733.641,47.2441 "/>
<polyline clip-path="url(#clip152)" style="stroke:#000000; stroke-linecap:round; stroke-linejoin:round; stroke-width:2; stroke-opacity:0.1; fill:none" points="1273.35,1423.18 1273.35,47.2441 "/>
<polyline clip-path="url(#clip152)" style="stroke:#000000; stroke-linecap:round; stroke-linejoin:round; stroke-width:2; stroke-opacity:0.1; fill:none" points="1813.05,1423.18 1813.05,47.2441 "/>
<polyline clip-path="url(#clip152)" style="stroke:#000000; stroke-linecap:round; stroke-linejoin:round; stroke-width:2; stroke-opacity:0.1; fill:none" points="2352.76,1423.18 2352.76,47.2441 "/>
<polyline clip-path="url(#clip152)" style="stroke:#000000; stroke-linecap:round; stroke-linejoin:round; stroke-width:2; stroke-opacity:0.1; fill:none" points="193.936,1309.26 2352.76,1309.26 "/>
<polyline clip-path="url(#clip152)" style="stroke:#000000; stroke-linecap:round; stroke-linejoin:round; stroke-width:2; stroke-opacity:0.1; fill:none" points="193.936,959.093 2352.76,959.093 "/>
<polyline clip-path="url(#clip152)" style="stroke:#000000; stroke-linecap:round; stroke-linejoin:round; stroke-width:2; stroke-opacity:0.1; fill:none" points="193.936,608.93 2352.76,608.93 "/>
<polyline clip-path="url(#clip152)" style="stroke:#000000; stroke-linecap:round; stroke-linejoin:round; stroke-width:2; stroke-opacity:0.1; fill:none" points="193.936,258.768 2352.76,258.768 "/>
<polyline clip-path="url(#clip150)" style="stroke:#000000; stroke-linecap:round; stroke-linejoin:round; stroke-width:4; stroke-opacity:1; fill:none" points="193.936,1423.18 2352.76,1423.18 "/>
<polyline clip-path="url(#clip150)" style="stroke:#000000; stroke-linecap:round; stroke-linejoin:round; stroke-width:4; stroke-opacity:1; fill:none" points="193.936,1423.18 193.936,1404.28 "/>
<polyline clip-path="url(#clip150)" style="stroke:#000000; stroke-linecap:round; stroke-linejoin:round; stroke-width:4; stroke-opacity:1; fill:none" points="733.641,1423.18 733.641,1404.28 "/>
<polyline clip-path="url(#clip150)" style="stroke:#000000; stroke-linecap:round; stroke-linejoin:round; stroke-width:4; stroke-opacity:1; fill:none" points="1273.35,1423.18 1273.35,1404.28 "/>
<polyline clip-path="url(#clip150)" style="stroke:#000000; stroke-linecap:round; stroke-linejoin:round; stroke-width:4; stroke-opacity:1; fill:none" points="1813.05,1423.18 1813.05,1404.28 "/>
<polyline clip-path="url(#clip150)" style="stroke:#000000; stroke-linecap:round; stroke-linejoin:round; stroke-width:4; stroke-opacity:1; fill:none" points="2352.76,1423.18 2352.76,1404.28 "/>
<path clip-path="url(#clip150)" d="M171.32 1454.1 Q167.709 1454.1 165.881 1457.66 Q164.075 1461.2 164.075 1468.33 Q164.075 1475.44 165.881 1479.01 Q167.709 1482.55 171.32 1482.55 Q174.955 1482.55 176.76 1479.01 Q178.589 1475.44 178.589 1468.33 Q178.589 1461.2 176.76 1457.66 Q174.955 1454.1 171.32 1454.1 M171.32 1450.39 Q177.131 1450.39 180.186 1455 Q183.265 1459.58 183.265 1468.33 Q183.265 1477.06 180.186 1481.67 Q177.131 1486.25 171.32 1486.25 Q165.51 1486.25 162.432 1481.67 Q159.376 1477.06 159.376 1468.33 Q159.376 1459.58 162.432 1455 Q165.51 1450.39 171.32 1450.39 Z" fill="#000000" fill-rule="nonzero" fill-opacity="1" /><path clip-path="url(#clip150)" d="M191.482 1479.7 L196.367 1479.7 L196.367 1485.58 L191.482 1485.58 L191.482 1479.7 Z" fill="#000000" fill-rule="nonzero" fill-opacity="1" /><path clip-path="url(#clip150)" d="M216.552 1454.1 Q212.941 1454.1 211.112 1457.66 Q209.306 1461.2 209.306 1468.33 Q209.306 1475.44 211.112 1479.01 Q212.941 1482.55 216.552 1482.55 Q220.186 1482.55 221.991 1479.01 Q223.82 1475.44 223.82 1468.33 Q223.82 1461.2 221.991 1457.66 Q220.186 1454.1 216.552 1454.1 M216.552 1450.39 Q222.362 1450.39 225.417 1455 Q228.496 1459.58 228.496 1468.33 Q228.496 1477.06 225.417 1481.67 Q222.362 1486.25 216.552 1486.25 Q210.741 1486.25 207.663 1481.67 Q204.607 1477.06 204.607 1468.33 Q204.607 1459.58 207.663 1455 Q210.741 1450.39 216.552 1450.39 Z" fill="#000000" fill-rule="nonzero" fill-opacity="1" /><path clip-path="url(#clip150)" d="M711.523 1454.1 Q707.912 1454.1 706.083 1457.66 Q704.278 1461.2 704.278 1468.33 Q704.278 1475.44 706.083 1479.01 Q707.912 1482.55 711.523 1482.55 Q715.157 1482.55 716.963 1479.01 Q718.792 1475.44 718.792 1468.33 Q718.792 1461.2 716.963 1457.66 Q715.157 1454.1 711.523 1454.1 M711.523 1450.39 Q717.333 1450.39 720.389 1455 Q723.467 1459.58 723.467 1468.33 Q723.467 1477.06 720.389 1481.67 Q717.333 1486.25 711.523 1486.25 Q705.713 1486.25 702.634 1481.67 Q699.579 1477.06 699.579 1468.33 Q699.579 1459.58 702.634 1455 Q705.713 1450.39 711.523 1450.39 Z" fill="#000000" fill-rule="nonzero" fill-opacity="1" /><path clip-path="url(#clip150)" d="M731.685 1479.7 L736.569 1479.7 L736.569 1485.58 L731.685 1485.58 L731.685 1479.7 Z" fill="#000000" fill-rule="nonzero" fill-opacity="1" /><path clip-path="url(#clip150)" d="M746.801 1451.02 L765.157 1451.02 L765.157 1454.96 L751.083 1454.96 L751.083 1463.43 Q752.102 1463.08 753.12 1462.92 Q754.139 1462.73 755.157 1462.73 Q760.944 1462.73 764.324 1465.9 Q767.703 1469.08 767.703 1474.49 Q767.703 1480.07 764.231 1483.17 Q760.759 1486.25 754.439 1486.25 Q752.264 1486.25 749.995 1485.88 Q747.75 1485.51 745.342 1484.77 L745.342 1480.07 Q747.426 1481.2 749.648 1481.76 Q751.87 1482.32 754.347 1482.32 Q758.351 1482.32 760.689 1480.21 Q763.027 1478.1 763.027 1474.49 Q763.027 1470.88 760.689 1468.77 Q758.351 1466.67 754.347 1466.67 Q752.472 1466.67 750.597 1467.08 Q748.745 1467.5 746.801 1468.38 L746.801 1451.02 Z" fill="#000000" fill-rule="nonzero" fill-opacity="1" /><path clip-path="url(#clip150)" d="M1240.5 1481.64 L1248.14 1481.64 L1248.14 1455.28 L1239.83 1456.95 L1239.83 1452.69 L1248.09 1451.02 L1252.77 1451.02 L1252.77 1481.64 L1260.41 1481.64 L1260.41 1485.58 L1240.5 1485.58 L1240.5 1481.64 Z" fill="#000000" fill-rule="nonzero" fill-opacity="1" /><path clip-path="url(#clip150)" d="M1269.85 1479.7 L1274.73 1479.7 L1274.73 1485.58 L1269.85 1485.58 L1269.85 1479.7 Z" fill="#000000" fill-rule="nonzero" fill-opacity="1" /><path clip-path="url(#clip150)" d="M1294.92 1454.1 Q1291.31 1454.1 1289.48 1457.66 Q1287.67 1461.2 1287.67 1468.33 Q1287.67 1475.44 1289.48 1479.01 Q1291.31 1482.55 1294.92 1482.55 Q1298.55 1482.55 1300.36 1479.01 Q1302.19 1475.44 1302.19 1468.33 Q1302.19 1461.2 1300.36 1457.66 Q1298.55 1454.1 1294.92 1454.1 M1294.92 1450.39 Q1300.73 1450.39 1303.79 1455 Q1306.86 1459.58 1306.86 1468.33 Q1306.86 1477.06 1303.79 1481.67 Q1300.73 1486.25 1294.92 1486.25 Q1289.11 1486.25 1286.03 1481.67 Q1282.98 1477.06 1282.98 1468.33 Q1282.98 1459.58 1286.03 1455 Q1289.11 1450.39 1294.92 1450.39 Z" fill="#000000" fill-rule="nonzero" fill-opacity="1" /><path clip-path="url(#clip150)" d="M1780.7 1481.64 L1788.34 1481.64 L1788.34 1455.28 L1780.03 1456.95 L1780.03 1452.69 L1788.29 1451.02 L1792.97 1451.02 L1792.97 1481.64 L1800.61 1481.64 L1800.61 1485.58 L1780.7 1485.58 L1780.7 1481.64 Z" fill="#000000" fill-rule="nonzero" fill-opacity="1" /><path clip-path="url(#clip150)" d="M1810.05 1479.7 L1814.94 1479.7 L1814.94 1485.58 L1810.05 1485.58 L1810.05 1479.7 Z" fill="#000000" fill-rule="nonzero" fill-opacity="1" /><path clip-path="url(#clip150)" d="M1825.17 1451.02 L1843.53 1451.02 L1843.53 1454.96 L1829.45 1454.96 L1829.45 1463.43 Q1830.47 1463.08 1831.49 1462.92 Q1832.51 1462.73 1833.53 1462.73 Q1839.31 1462.73 1842.69 1465.9 Q1846.07 1469.08 1846.07 1474.49 Q1846.07 1480.07 1842.6 1483.17 Q1839.13 1486.25 1832.81 1486.25 Q1830.63 1486.25 1828.36 1485.88 Q1826.12 1485.51 1823.71 1484.77 L1823.71 1480.07 Q1825.79 1481.2 1828.02 1481.76 Q1830.24 1482.32 1832.72 1482.32 Q1836.72 1482.32 1839.06 1480.21 Q1841.4 1478.1 1841.4 1474.49 Q1841.4 1470.88 1839.06 1468.77 Q1836.72 1466.67 1832.72 1466.67 Q1830.84 1466.67 1828.97 1467.08 Q1827.11 1467.5 1825.17 1468.38 L1825.17 1451.02 Z" fill="#000000" fill-rule="nonzero" fill-opacity="1" /><path clip-path="url(#clip150)" d="M2323.99 1481.64 L2340.31 1481.64 L2340.31 1485.58 L2318.37 1485.58 L2318.37 1481.64 Q2321.03 1478.89 2325.61 1474.26 Q2330.22 1469.61 2331.4 1468.27 Q2333.65 1465.74 2334.53 1464.01 Q2335.43 1462.25 2335.43 1460.56 Q2335.43 1457.8 2333.49 1456.07 Q2331.56 1454.33 2328.46 1454.33 Q2326.26 1454.33 2323.81 1455.09 Q2321.38 1455.86 2318.6 1457.41 L2318.6 1452.69 Q2321.43 1451.55 2323.88 1450.97 Q2326.33 1450.39 2328.37 1450.39 Q2333.74 1450.39 2336.93 1453.08 Q2340.13 1455.77 2340.13 1460.26 Q2340.13 1462.39 2339.32 1464.31 Q2338.53 1466.2 2336.42 1468.8 Q2335.85 1469.47 2332.74 1472.69 Q2329.64 1475.88 2323.99 1481.64 Z" fill="#000000" fill-rule="nonzero" fill-opacity="1" /><path clip-path="url(#clip150)" d="M2350.13 1479.7 L2355.01 1479.7 L2355.01 1485.58 L2350.13 1485.58 L2350.13 1479.7 Z" fill="#000000" fill-rule="nonzero" fill-opacity="1" /><path clip-path="url(#clip150)" d="M2375.2 1454.1 Q2371.59 1454.1 2369.76 1457.66 Q2367.95 1461.2 2367.95 1468.33 Q2367.95 1475.44 2369.76 1479.01 Q2371.59 1482.55 2375.2 1482.55 Q2378.83 1482.55 2380.64 1479.01 Q2382.47 1475.44 2382.47 1468.33 Q2382.47 1461.2 2380.64 1457.66 Q2378.83 1454.1 2375.2 1454.1 M2375.2 1450.39 Q2381.01 1450.39 2384.06 1455 Q2387.14 1459.58 2387.14 1468.33 Q2387.14 1477.06 2384.06 1481.67 Q2381.01 1486.25 2375.2 1486.25 Q2369.39 1486.25 2366.31 1481.67 Q2363.25 1477.06 2363.25 1468.33 Q2363.25 1459.58 2366.31 1455 Q2369.39 1450.39 2375.2 1450.39 Z" fill="#000000" fill-rule="nonzero" fill-opacity="1" /><path clip-path="url(#clip150)" d="M1272.41 1522.27 L1272.41 1532.4 L1284.47 1532.4 L1284.47 1536.95 L1272.41 1536.95 L1272.41 1556.3 Q1272.41 1560.66 1273.58 1561.9 Q1274.79 1563.14 1278.45 1563.14 L1284.47 1563.14 L1284.47 1568.04 L1278.45 1568.04 Q1271.67 1568.04 1269.1 1565.53 Q1266.52 1562.98 1266.52 1556.3 L1266.52 1536.95 L1262.22 1536.95 L1262.22 1532.4 L1266.52 1532.4 L1266.52 1522.27 L1272.41 1522.27 Z" fill="#000000" fill-rule="nonzero" fill-opacity="1" /><polyline clip-path="url(#clip150)" style="stroke:#000000; stroke-linecap:round; stroke-linejoin:round; stroke-width:4; stroke-opacity:1; fill:none" points="193.936,1423.18 193.936,47.2441 "/>
<polyline clip-path="url(#clip150)" style="stroke:#000000; stroke-linecap:round; stroke-linejoin:round; stroke-width:4; stroke-opacity:1; fill:none" points="193.936,1309.26 212.834,1309.26 "/>
<polyline clip-path="url(#clip150)" style="stroke:#000000; stroke-linecap:round; stroke-linejoin:round; stroke-width:4; stroke-opacity:1; fill:none" points="193.936,959.093 212.834,959.093 "/>
<polyline clip-path="url(#clip150)" style="stroke:#000000; stroke-linecap:round; stroke-linejoin:round; stroke-width:4; stroke-opacity:1; fill:none" points="193.936,608.93 212.834,608.93 "/>
<polyline clip-path="url(#clip150)" style="stroke:#000000; stroke-linecap:round; stroke-linejoin:round; stroke-width:4; stroke-opacity:1; fill:none" points="193.936,258.768 212.834,258.768 "/>
<path clip-path="url(#clip150)" d="M50.9921 1309.71 L80.6679 1309.71 L80.6679 1313.64 L50.9921 1313.64 L50.9921 1309.71 Z" fill="#000000" fill-rule="nonzero" fill-opacity="1" /><path clip-path="url(#clip150)" d="M94.7882 1322.6 L111.108 1322.6 L111.108 1326.54 L89.1632 1326.54 L89.1632 1322.6 Q91.8252 1319.85 96.4085 1315.22 Q101.015 1310.56 102.196 1309.22 Q104.441 1306.7 105.321 1304.96 Q106.223 1303.2 106.223 1301.51 Q106.223 1298.76 104.279 1297.02 Q102.358 1295.29 99.2558 1295.29 Q97.0567 1295.29 94.603 1296.05 Q92.1725 1296.81 89.3947 1298.37 L89.3947 1293.64 Q92.2188 1292.51 94.6724 1291.93 Q97.1261 1291.35 99.1632 1291.35 Q104.534 1291.35 107.728 1294.04 Q110.922 1296.72 110.922 1301.21 Q110.922 1303.34 110.112 1305.26 Q109.325 1307.16 107.219 1309.75 Q106.64 1310.43 103.538 1313.64 Q100.436 1316.84 94.7882 1322.6 Z" fill="#000000" fill-rule="nonzero" fill-opacity="1" /><path clip-path="url(#clip150)" d="M120.922 1320.66 L125.807 1320.66 L125.807 1326.54 L120.922 1326.54 L120.922 1320.66 Z" fill="#000000" fill-rule="nonzero" fill-opacity="1" /><path clip-path="url(#clip150)" d="M145.992 1295.05 Q142.381 1295.05 140.552 1298.62 Q138.746 1302.16 138.746 1309.29 Q138.746 1316.4 140.552 1319.96 Q142.381 1323.5 145.992 1323.5 Q149.626 1323.5 151.431 1319.96 Q153.26 1316.4 153.26 1309.29 Q153.26 1302.16 151.431 1298.62 Q149.626 1295.05 145.992 1295.05 M145.992 1291.35 Q151.802 1291.35 154.857 1295.96 Q157.936 1300.54 157.936 1309.29 Q157.936 1318.02 154.857 1322.62 Q151.802 1327.21 145.992 1327.21 Q140.181 1327.21 137.103 1322.62 Q134.047 1318.02 134.047 1309.29 Q134.047 1300.54 137.103 1295.96 Q140.181 1291.35 145.992 1291.35 Z" fill="#000000" fill-rule="nonzero" fill-opacity="1" /><path clip-path="url(#clip150)" d="M51.9875 959.545 L81.6633 959.545 L81.6633 963.48 L51.9875 963.48 L51.9875 959.545 Z" fill="#000000" fill-rule="nonzero" fill-opacity="1" /><path clip-path="url(#clip150)" d="M92.566 972.438 L100.205 972.438 L100.205 946.073 L91.8947 947.739 L91.8947 943.48 L100.159 941.813 L104.834 941.813 L104.834 972.438 L112.473 972.438 L112.473 976.373 L92.566 976.373 L92.566 972.438 Z" fill="#000000" fill-rule="nonzero" fill-opacity="1" /><path clip-path="url(#clip150)" d="M121.918 970.494 L126.802 970.494 L126.802 976.373 L121.918 976.373 L121.918 970.494 Z" fill="#000000" fill-rule="nonzero" fill-opacity="1" /><path clip-path="url(#clip150)" d="M137.033 941.813 L155.39 941.813 L155.39 945.748 L141.316 945.748 L141.316 954.221 Q142.334 953.873 143.353 953.711 Q144.371 953.526 145.39 953.526 Q151.177 953.526 154.556 956.697 Q157.936 959.869 157.936 965.285 Q157.936 970.864 154.464 973.966 Q150.992 977.045 144.672 977.045 Q142.496 977.045 140.228 976.674 Q137.982 976.304 135.575 975.563 L135.575 970.864 Q137.658 971.998 139.881 972.554 Q142.103 973.109 144.58 973.109 Q148.584 973.109 150.922 971.003 Q153.26 968.896 153.26 965.285 Q153.26 961.674 150.922 959.568 Q148.584 957.461 144.58 957.461 Q142.705 957.461 140.83 957.878 Q138.978 958.295 137.033 959.174 L137.033 941.813 Z" fill="#000000" fill-rule="nonzero" fill-opacity="1" /><path clip-path="url(#clip150)" d="M50.9921 609.382 L80.6679 609.382 L80.6679 613.317 L50.9921 613.317 L50.9921 609.382 Z" fill="#000000" fill-rule="nonzero" fill-opacity="1" /><path clip-path="url(#clip150)" d="M91.5706 622.275 L99.2095 622.275 L99.2095 595.91 L90.8993 597.576 L90.8993 593.317 L99.1632 591.65 L103.839 591.65 L103.839 622.275 L111.478 622.275 L111.478 626.21 L91.5706 626.21 L91.5706 622.275 Z" fill="#000000" fill-rule="nonzero" fill-opacity="1" /><path clip-path="url(#clip150)" d="M120.922 620.331 L125.807 620.331 L125.807 626.21 L120.922 626.21 L120.922 620.331 Z" fill="#000000" fill-rule="nonzero" fill-opacity="1" /><path clip-path="url(#clip150)" d="M145.992 594.729 Q142.381 594.729 140.552 598.294 Q138.746 601.836 138.746 608.965 Q138.746 616.072 140.552 619.636 Q142.381 623.178 145.992 623.178 Q149.626 623.178 151.431 619.636 Q153.26 616.072 153.26 608.965 Q153.26 601.836 151.431 598.294 Q149.626 594.729 145.992 594.729 M145.992 591.025 Q151.802 591.025 154.857 595.632 Q157.936 600.215 157.936 608.965 Q157.936 617.692 154.857 622.298 Q151.802 626.882 145.992 626.882 Q140.181 626.882 137.103 622.298 Q134.047 617.692 134.047 608.965 Q134.047 600.215 137.103 595.632 Q140.181 591.025 145.992 591.025 Z" fill="#000000" fill-rule="nonzero" fill-opacity="1" /><path clip-path="url(#clip150)" d="M51.9875 259.219 L81.6633 259.219 L81.6633 263.154 L51.9875 263.154 L51.9875 259.219 Z" fill="#000000" fill-rule="nonzero" fill-opacity="1" /><path clip-path="url(#clip150)" d="M101.756 244.566 Q98.1447 244.566 96.316 248.131 Q94.5104 251.673 94.5104 258.802 Q94.5104 265.909 96.316 269.474 Q98.1447 273.015 101.756 273.015 Q105.39 273.015 107.196 269.474 Q109.024 265.909 109.024 258.802 Q109.024 251.673 107.196 248.131 Q105.39 244.566 101.756 244.566 M101.756 240.863 Q107.566 240.863 110.621 245.469 Q113.7 250.052 113.7 258.802 Q113.7 267.529 110.621 272.136 Q107.566 276.719 101.756 276.719 Q95.9456 276.719 92.8669 272.136 Q89.8114 267.529 89.8114 258.802 Q89.8114 250.052 92.8669 245.469 Q95.9456 240.863 101.756 240.863 Z" fill="#000000" fill-rule="nonzero" fill-opacity="1" /><path clip-path="url(#clip150)" d="M121.918 270.168 L126.802 270.168 L126.802 276.048 L121.918 276.048 L121.918 270.168 Z" fill="#000000" fill-rule="nonzero" fill-opacity="1" /><path clip-path="url(#clip150)" d="M137.033 241.488 L155.39 241.488 L155.39 245.423 L141.316 245.423 L141.316 253.895 Q142.334 253.548 143.353 253.386 Q144.371 253.2 145.39 253.2 Q151.177 253.2 154.556 256.372 Q157.936 259.543 157.936 264.96 Q157.936 270.538 154.464 273.64 Q150.992 276.719 144.672 276.719 Q142.496 276.719 140.228 276.348 Q137.982 275.978 135.575 275.237 L135.575 270.538 Q137.658 271.673 139.881 272.228 Q142.103 272.784 144.58 272.784 Q148.584 272.784 150.922 270.677 Q153.26 268.571 153.26 264.96 Q153.26 261.349 150.922 259.242 Q148.584 257.136 144.58 257.136 Q142.705 257.136 140.83 257.552 Q138.978 257.969 137.033 258.849 L137.033 241.488 Z" fill="#000000" fill-rule="nonzero" fill-opacity="1" /><polyline clip-path="url(#clip152)" style="stroke:#009af9; stroke-linecap:round; stroke-linejoin:round; stroke-width:4; stroke-opacity:1; fill:none" points="193.936,86.1857 196.097,91.5763 198.258,96.9132 200.419,102.197 202.58,107.428 204.741,112.607 206.902,117.735 209.063,122.811 211.224,127.837 213.385,132.813 215.546,137.739 217.707,142.616 219.868,147.445 222.029,152.225 224.19,156.958 226.351,161.644 228.512,166.283 230.673,170.876 232.834,175.423 234.995,179.924 237.156,184.381 239.317,188.794 241.478,193.163 243.639,197.488 245.8,201.77 247.961,206.009 250.122,210.206 252.282,214.362 254.443,218.476 256.604,222.549 258.765,226.581 260.926,230.574 263.087,234.526 265.248,238.439 267.409,242.313 269.57,246.149 271.731,249.946 273.892,253.706 276.053,257.428 278.214,261.113 280.375,264.761 282.536,268.373 284.697,271.949 286.858,275.49 289.019,278.995 291.18,282.465 293.341,285.901 295.502,289.302 297.663,292.67 299.824,296.004 301.985,299.304 304.146,302.572 306.307,305.808 308.468,309.011 310.629,312.182 312.79,315.322 314.951,318.43 317.112,321.508 319.273,324.555 321.434,327.571 323.595,330.558 325.756,333.515 327.917,336.442 330.078,339.34 332.239,342.209 334.4,345.05 336.561,347.862 338.722,350.646 340.883,353.403 343.044,356.132 345.205,358.834 347.366,361.509 349.527,364.157 351.688,366.779 353.849,369.375 356.01,371.945 358.171,374.49 360.332,377.009 362.493,379.502 364.653,381.972 366.814,384.416 368.975,386.836 371.136,389.232 373.297,391.605 375.458,393.953 377.619,396.278 379.78,398.58 381.941,400.86 384.102,403.116 386.263,405.35 388.424,407.562 390.585,409.751 392.746,411.919 394.907,414.066 397.068,416.191 399.229,418.295 401.39,420.377 403.551,422.44 405.712,424.481 407.873,426.503 410.034,428.504 412.195,430.485 414.356,432.446 416.517,434.388 418.678,436.311 420.839,438.214 423,440.099 425.161,441.964 427.322,443.812 429.483,445.64 431.644,447.451 433.805,449.243 435.966,451.018 438.127,452.774 440.288,454.514 442.449,456.236 444.61,457.941 446.771,459.628 448.932,461.299 451.093,462.954 453.254,464.592 455.415,466.213 457.576,467.819 459.737,469.408 461.898,470.982 464.059,472.54 466.22,474.082 468.381,475.609 470.542,477.121 472.703,478.618 474.864,480.1 477.024,481.567 479.185,483.019 481.346,484.457 483.507,485.881 485.668,487.291 487.829,488.686 489.99,490.068 492.151,491.436 494.312,492.79 496.473,494.131 498.634,495.459 500.795,496.773 502.956,498.074 505.117,499.363 507.278,500.638 509.439,501.901 511.6,503.151 513.761,504.389 515.922,505.615 518.083,506.828 520.244,508.029 522.405,509.218 524.566,510.396 526.727,511.561 528.888,512.715 531.049,513.858 533.21,514.989 535.371,516.108 537.532,517.217 539.693,518.315 541.854,519.401 544.015,520.477 546.176,521.542 548.337,522.596 550.498,523.64 552.659,524.674 554.82,525.697 556.981,526.71 559.142,527.713 561.303,528.706 563.464,529.689 565.625,530.662 567.786,531.625 569.947,532.579 572.108,533.524 574.269,534.458 576.43,535.384 578.591,536.301 580.752,537.208 582.913,538.106 585.074,538.995 587.235,539.876 589.396,540.748 591.556,541.611 593.717,542.465 595.878,543.311 598.039,544.149 600.2,544.978 602.361,545.799 604.522,546.611 606.683,547.416 608.844,548.213 611.005,549.002 613.166,549.783 615.327,550.556 617.488,551.321 619.649,552.079 621.81,552.83 623.971,553.573 626.132,554.308 628.293,555.037 630.454,555.758 632.615,556.472 634.776,557.178 636.937,557.878 639.098,558.571 641.259,559.257 643.42,559.936 645.581,560.608 647.742,561.274 649.903,561.932 652.064,562.585 654.225,563.231 656.386,563.87 658.547,564.503 660.708,565.13 662.869,565.75 665.03,566.364 667.191,566.972 669.352,567.574 671.513,568.17 673.674,568.761 675.835,569.345 677.996,569.923 680.157,570.496 682.318,571.062 684.479,571.624 686.64,572.179 688.801,572.729 690.962,573.274 693.123,573.813 695.284,574.346 697.445,574.875 699.606,575.398 701.767,575.916 703.927,576.428 706.088,576.936 708.249,577.439 710.41,577.936 712.571,578.429 714.732,578.916 716.893,579.399 719.054,579.877 721.215,580.35 723.376,580.819 725.537,581.283 727.698,581.742 729.859,582.196 732.02,582.647 734.181,583.092 736.342,583.534 738.503,583.97 740.664,584.403 742.825,584.831 744.986,585.255 747.147,585.675 749.308,586.09 751.469,586.502 753.63,586.909 755.791,587.313 757.952,587.712 760.113,588.108 762.274,588.499 764.435,588.887 766.596,589.271 768.757,589.651 770.918,590.027 773.079,590.399 775.24,590.768 777.401,591.133 779.562,591.495 781.723,591.853 783.884,592.207 786.045,592.558 788.206,592.906 790.367,593.249 792.528,593.59 794.689,593.927 796.85,594.261 799.011,594.591 801.172,594.918 803.333,595.242 805.494,595.563 807.655,595.88 809.816,596.194 811.977,596.505 814.138,596.813 816.298,597.118 818.459,597.42 820.62,597.719 822.781,598.015 824.942,598.308 827.103,598.597 829.264,598.884 831.425,599.169 833.586,599.45 835.747,599.728 837.908,600.004 840.069,600.277 842.23,600.547 844.391,600.815 846.552,601.079 848.713,601.342 850.874,601.601 853.035,601.858 855.196,602.112 857.357,602.364 859.518,602.613 861.679,602.86 863.84,603.105 866.001,603.346 868.162,603.586 870.323,603.823 872.484,604.058 874.645,604.29 876.806,604.52 878.967,604.748 881.128,604.973 883.289,605.196 885.45,605.417 887.611,605.636 889.772,605.853 891.933,606.067 894.094,606.28 896.255,606.49 898.416,606.698 900.577,606.904 902.738,607.108 904.899,607.31 907.06,607.51 909.221,607.708 911.382,607.904 913.543,608.099 915.704,608.291 917.865,608.481 920.026,608.67 922.187,608.856 924.348,609.041 926.509,609.224 928.669,609.405 930.83,609.584 932.991,609.762 935.152,609.938 937.313,610.112 939.474,610.284 941.635,610.455 943.796,610.624 945.957,610.792 948.118,610.957 950.279,611.121 952.44,611.284 954.601,611.445 956.762,611.604 958.923,611.762 961.084,611.918 963.245,612.072 965.406,612.225 967.567,612.377 969.728,612.527 971.889,612.675 974.05,612.822 976.211,612.968 978.372,613.112 980.533,613.254 982.694,613.396 984.855,613.535 987.016,613.674 989.177,613.811 991.338,613.946 993.499,614.081 995.66,614.214 997.821,614.345 999.982,614.475 1002.14,614.604 1004.3,614.732 1006.46,614.858 1008.63,614.984 1010.79,615.107 1012.95,615.23 1015.11,615.351 1017.27,615.471 1019.43,615.59 1021.59,615.708 1023.75,615.825 1025.91,615.94 1028.07,616.054 1030.24,616.167 1032.4,616.279 1034.56,616.39 1036.72,616.499 1038.88,616.608 1041.04,616.715 1043.2,616.822 1045.36,616.927 1047.52,617.031 1049.68,617.135 1051.85,617.237 1054.01,617.338 1056.17,617.438 1058.33,617.537 1060.49,617.635 1062.65,617.732 1064.81,617.828 1066.97,617.924 1069.13,618.018 1071.29,618.111 1073.46,618.203 1075.62,618.295 1077.78,618.385 1079.94,618.475 1082.1,618.564 1084.26,618.652 1086.42,618.739 1088.58,618.825 1090.74,618.91 1092.9,618.994 1095.07,619.078 1097.23,619.161 1099.39,619.243 1101.55,619.324 1103.71,619.404 1105.87,619.484 1108.03,619.563 1110.19,619.641 1112.35,619.718 1114.51,619.794 1116.67,619.87 1118.84,619.945 1121,620.019 1123.16,620.093 1125.32,620.166 1127.48,620.238 1129.64,620.309 1131.8,620.38 1133.96,620.45 1136.12,620.52 1138.28,620.588 1140.45,620.656 1142.61,620.724 1144.77,620.791 1146.93,620.857 1149.09,620.922 1151.25,620.987 1153.41,621.051 1155.57,621.115 1157.73,621.178 1159.89,621.24 1162.06,621.301 1164.22,621.363 1166.38,621.423 1168.54,621.483 1170.7,621.542 1172.86,621.601 1175.02,621.659 1177.18,621.716 1179.34,621.773 1181.5,621.83 1183.67,621.885 1185.83,621.941 1187.99,621.995 1190.15,622.05 1192.31,622.103 1194.47,622.156 1196.63,622.209 1198.79,622.261 1200.95,622.312 1203.11,622.363 1205.28,622.413 1207.44,622.463 1209.6,622.513 1211.76,622.562 1213.92,622.61 1216.08,622.658 1218.24,622.705 1220.4,622.752 1222.56,622.799 1224.72,622.845 1226.88,622.89 1229.05,622.935 1231.21,622.98 1233.37,623.024 1235.53,623.068 1237.69,623.111 1239.85,623.154 1242.01,623.196 1244.17,623.238 1246.33,623.28 1248.49,623.321 1250.66,623.361 1252.82,623.402 1254.98,623.442 1257.14,623.481 1259.3,623.52 1261.46,623.559 1263.62,623.597 1265.78,623.635 1267.94,623.672 1270.1,623.709 1272.27,623.746 1274.43,623.782 1276.59,623.818 1278.75,623.854 1280.91,623.889 1283.07,623.924 1285.23,623.958 1287.39,623.993 1289.55,624.026 1291.71,624.06 1293.88,624.093 1296.04,624.126 1298.2,624.158 1300.36,624.19 1302.52,624.222 1304.68,624.254 1306.84,624.285 1309,624.316 1311.16,624.346 1313.32,624.377 1315.49,624.407 1317.65,624.436 1319.81,624.466 1321.97,624.495 1324.13,624.524 1326.29,624.552 1328.45,624.58 1330.61,624.608 1332.77,624.636 1334.93,624.663 1337.09,624.691 1339.26,624.718 1341.42,624.744 1343.58,624.771 1345.74,624.797 1347.9,624.823 1350.06,624.848 1352.22,624.874 1354.38,624.899 1356.54,624.924 1358.7,624.949 1360.87,624.973 1363.03,624.997 1365.19,625.021 1367.35,625.045 1369.51,625.069 1371.67,625.092 1373.83,625.115 1375.99,625.138 1378.15,625.161 1380.31,625.184 1382.48,625.206 1384.64,625.228 1386.8,625.25 1388.96,625.271 1391.12,625.293 1393.28,625.314 1395.44,625.335 1397.6,625.356 1399.76,625.377 1401.92,625.397 1404.09,625.417 1406.25,625.437 1408.41,625.457 1410.57,625.477 1412.73,625.496 1414.89,625.515 1417.05,625.534 1419.21,625.553 1421.37,625.572 1423.53,625.59 1425.7,625.609 1427.86,625.627 1430.02,625.645 1432.18,625.663 1434.34,625.68 1436.5,625.698 1438.66,625.715 1440.82,625.732 1442.98,625.749 1445.14,625.765 1447.3,625.782 1449.47,625.798 1451.63,625.814 1453.79,625.831 1455.95,625.846 1458.11,625.862 1460.27,625.878 1462.43,625.893 1464.59,625.908 1466.75,625.923 1468.91,625.938 1471.08,625.953 1473.24,625.968 1475.4,625.982 1477.56,625.996 1479.72,626.01 1481.88,626.024 1484.04,626.038 1486.2,626.052 1488.36,626.065 1490.52,626.079 1492.69,626.092 1494.85,626.105 1497.01,626.118 1499.17,626.131 1501.33,626.144 1503.49,626.156 1505.65,626.169 1507.81,626.181 1509.97,626.193 1512.13,626.205 1514.3,626.217 1516.46,626.229 1518.62,626.241 1520.78,626.252 1522.94,626.264 1525.1,626.275 1527.26,626.286 1529.42,626.297 1531.58,626.308 1533.74,626.319 1535.91,626.33 1538.07,626.341 1540.23,626.351 1542.39,626.361 1544.55,626.372 1546.71,626.382 1548.87,626.392 1551.03,626.402 1553.19,626.412 1555.35,626.422 1557.51,626.431 1559.68,626.441 1561.84,626.45 1564,626.46 1566.16,626.469 1568.32,626.478 1570.48,626.487 1572.64,626.496 1574.8,626.505 1576.96,626.514 1579.12,626.523 1581.29,626.531 1583.45,626.54 1585.61,626.548 1587.77,626.557 1589.93,626.565 1592.09,626.573 1594.25,626.581 1596.41,626.589 1598.57,626.597 1600.73,626.605 1602.9,626.613 1605.06,626.621 1607.22,626.628 1609.38,626.636 1611.54,626.643 1613.7,626.651 1615.86,626.658 1618.02,626.666 1620.18,626.673 1622.34,626.68 1624.51,626.687 1626.67,626.694 1628.83,626.701 1630.99,626.708 1633.15,626.715 1635.31,626.722 1637.47,626.729 1639.63,626.736 1641.79,626.742 1643.95,626.749 1646.12,626.756 1648.28,626.762 1650.44,626.769 1652.6,626.775 1654.76,626.781 1656.92,626.788 1659.08,626.794 1661.24,626.8 1663.4,626.806 1665.56,626.812 1667.72,626.818 1669.89,626.824 1672.05,626.83 1674.21,626.836 1676.37,626.842 1678.53,626.848 1680.69,626.853 1682.85,626.859 1685.01,626.865 1687.17,626.87 1689.33,626.876 1691.5,626.881 1693.66,626.887 1695.82,626.892 1697.98,626.897 1700.14,626.902 1702.3,626.908 1704.46,626.913 1706.62,626.918 1708.78,626.923 1710.94,626.928 1713.11,626.933 1715.27,626.938 1717.43,626.943 1719.59,626.947 1721.75,626.952 1723.91,626.957 1726.07,626.961 1728.23,626.966 1730.39,626.971 1732.55,626.975 1734.72,626.979 1736.88,626.984 1739.04,626.988 1741.2,626.993 1743.36,626.997 1745.52,627.001 1747.68,627.005 1749.84,627.009 1752,627.013 1754.16,627.018 1756.33,627.022 1758.49,627.026 1760.65,627.029 1762.81,627.033 1764.97,627.037 1767.13,627.041 1769.29,627.045 1771.45,627.048 1773.61,627.052 1775.77,627.056 1777.93,627.059 1780.1,627.063 1782.26,627.066 1784.42,627.07 1786.58,627.073 1788.74,627.077 1790.9,627.08 1793.06,627.083 1795.22,627.087 1797.38,627.09 1799.54,627.093 1801.71,627.096 1803.87,627.099 1806.03,627.102 1808.19,627.106 1810.35,627.109 1812.51,627.112 1814.67,627.114 1816.83,627.117 1818.99,627.12 1821.15,627.123 1823.32,627.126 1825.48,627.129 1827.64,627.132 1829.8,627.134 1831.96,627.137 1834.12,627.14 1836.28,627.142 1838.44,627.145 1840.6,627.147 1842.76,627.15 1844.93,627.152 1847.09,627.155 1849.25,627.157 1851.41,627.16 1853.57,627.162 1855.73,627.164 1857.89,627.167 1860.05,627.169 1862.21,627.171 1864.37,627.174 1866.54,627.176 1868.7,627.178 1870.86,627.18 1873.02,627.182 1875.18,627.185 1877.34,627.187 1879.5,627.189 1881.66,627.191 1883.82,627.193 1885.98,627.195 1888.15,627.197 1890.31,627.199 1892.47,627.201 1894.63,627.203 1896.79,627.205 1898.95,627.206 1901.11,627.208 1903.27,627.21 1905.43,627.212 1907.59,627.214 1909.75,627.216 1911.92,627.217 1914.08,627.219 1916.24,627.221 1918.4,627.223 1920.56,627.224 1922.72,627.226 1924.88,627.228 1927.04,627.229 1929.2,627.231 1931.36,627.232 1933.53,627.234 1935.69,627.236 1937.85,627.237 1940.01,627.239 1942.17,627.24 1944.33,627.242 1946.49,627.244 1948.65,627.245 1950.81,627.247 1952.97,627.248 1955.14,627.25 1957.3,627.251 1959.46,627.253 1961.62,627.254 1963.78,627.255 1965.94,627.257 1968.1,627.258 1970.26,627.26 1972.42,627.261 1974.58,627.263 1976.75,627.264 1978.91,627.266 1981.07,627.267 1983.23,627.268 1985.39,627.27 1987.55,627.271 1989.71,627.273 1991.87,627.274 1994.03,627.275 1996.19,627.277 1998.36,627.278 2000.52,627.279 2002.68,627.281 2004.84,627.282 2007,627.283 2009.16,627.284 2011.32,627.286 2013.48,627.287 2015.64,627.288 2017.8,627.289 2019.96,627.291 2022.13,627.292 2024.29,627.293 2026.45,627.294 2028.61,627.295 2030.77,627.297 2032.93,627.298 2035.09,627.299 2037.25,627.3 2039.41,627.301 2041.57,627.302 2043.74,627.303 2045.9,627.304 2048.06,627.306 2050.22,627.307 2052.38,627.308 2054.54,627.309 2056.7,627.31 2058.86,627.311 2061.02,627.312 2063.18,627.313 2065.35,627.314 2067.51,627.315 2069.67,627.316 2071.83,627.317 2073.99,627.318 2076.15,627.319 2078.31,627.32 2080.47,627.321 2082.63,627.322 2084.79,627.322 2086.96,627.323 2089.12,627.324 2091.28,627.325 2093.44,627.326 2095.6,627.327 2097.76,627.328 2099.92,627.329 2102.08,627.329 2104.24,627.33 2106.4,627.331 2108.57,627.332 2110.73,627.333 2112.89,627.333 2115.05,627.334 2117.21,627.335 2119.37,627.336 2121.53,627.337 2123.69,627.337 2125.85,627.338 2128.01,627.339 2130.17,627.339 2132.34,627.34 2134.5,627.341 2136.66,627.342 2138.82,627.342 2140.98,627.343 2143.14,627.344 2145.3,627.344 2147.46,627.345 2149.62,627.346 2151.78,627.346 2153.95,627.347 2156.11,627.347 2158.27,627.348 2160.43,627.349 2162.59,627.349 2164.75,627.35 2166.91,627.35 2169.07,627.351 2171.23,627.352 2173.39,627.352 2175.56,627.353 2177.72,627.353 2179.88,627.354 2182.04,627.354 2184.2,627.355 2186.36,627.355 2188.52,627.356 2190.68,627.356 2192.84,627.357 2195,627.357 2197.17,627.358 2199.33,627.358 2201.49,627.359 2203.65,627.359 2205.81,627.36 2207.97,627.36 2210.13,627.361 2212.29,627.361 2214.45,627.362 2216.61,627.362 2218.78,627.363 2220.94,627.363 2223.1,627.363 2225.26,627.364 2227.42,627.364 2229.58,627.365 2231.74,627.365 2233.9,627.365 2236.06,627.366 2238.22,627.366 2240.38,627.366 2242.55,627.367 2244.71,627.367 2246.87,627.368 2249.03,627.368 2251.19,627.368 2253.35,627.369 2255.51,627.369 2257.67,627.369 2259.83,627.37 2261.99,627.37 2264.16,627.37 2266.32,627.371 2268.48,627.371 2270.64,627.371 2272.8,627.372 2274.96,627.372 2277.12,627.372 2279.28,627.373 2281.44,627.373 2283.6,627.373 2285.77,627.373 2287.93,627.374 2290.09,627.374 2292.25,627.374 2294.41,627.375 2296.57,627.375 2298.73,627.375 2300.89,627.375 2303.05,627.376 2305.21,627.376 2307.38,627.376 2309.54,627.377 2311.7,627.377 2313.86,627.377 2316.02,627.377 2318.18,627.378 2320.34,627.378 2322.5,627.378 2324.66,627.378 2326.82,627.379 2328.99,627.379 2331.15,627.379 2333.31,627.38 2335.47,627.38 2337.63,627.38 2339.79,627.38 2341.95,627.381 2344.11,627.381 2346.27,627.381 2348.43,627.381 2350.59,627.382 2352.76,627.382 "/>
<polyline clip-path="url(#clip152)" style="stroke:#e26f46; stroke-linecap:round; stroke-linejoin:round; stroke-width:4; stroke-opacity:1; fill:none" points="193.936,1384.24 196.097,1377.11 198.258,1370.05 200.419,1363.06 202.58,1356.13 204.741,1349.27 206.902,1342.48 209.063,1335.75 211.224,1329.09 213.385,1322.49 215.546,1315.96 217.707,1309.48 219.868,1303.07 222.029,1296.72 224.19,1290.44 226.351,1284.21 228.512,1278.04 230.673,1271.93 232.834,1265.88 234.995,1259.89 237.156,1253.96 239.317,1248.08 241.478,1242.26 243.639,1236.49 245.8,1230.78 247.961,1225.13 250.122,1219.53 252.282,1213.98 254.443,1208.48 256.604,1203.04 258.765,1197.65 260.926,1192.32 263.087,1187.03 265.248,1181.79 267.409,1176.61 269.57,1171.47 271.731,1166.38 273.892,1161.34 276.053,1156.35 278.214,1151.41 280.375,1146.52 282.536,1141.67 284.697,1136.87 286.858,1132.11 289.019,1127.4 291.18,1122.73 293.341,1118.11 295.502,1113.54 297.663,1109 299.824,1104.51 301.985,1100.07 304.146,1095.66 306.307,1091.3 308.468,1086.98 310.629,1082.7 312.79,1078.46 314.951,1074.26 317.112,1070.1 319.273,1065.98 321.434,1061.9 323.595,1057.86 325.756,1053.86 327.917,1049.9 330.078,1045.97 332.239,1042.08 334.4,1038.23 336.561,1034.42 338.722,1030.64 340.883,1026.9 343.044,1023.19 345.205,1019.52 347.366,1015.88 349.527,1012.28 351.688,1008.71 353.849,1005.18 356.01,1001.68 358.171,998.211 360.332,994.777 362.493,991.376 364.653,988.007 366.814,984.67 368.975,981.365 371.136,978.091 373.297,974.848 375.458,971.637 377.619,968.455 379.78,965.304 381.941,962.183 384.102,959.091 386.263,956.029 388.424,952.996 390.585,949.991 392.746,947.015 394.907,944.067 397.068,941.147 399.229,938.255 401.39,935.39 403.551,932.552 405.712,929.742 407.873,926.957 410.034,924.2 412.195,921.468 414.356,918.762 416.517,916.082 418.678,913.427 420.839,910.797 423,908.193 425.161,905.612 427.322,903.057 429.483,900.525 431.644,898.018 433.805,895.534 435.966,893.073 438.127,890.636 440.288,888.222 442.449,885.831 444.61,883.462 446.771,881.116 448.932,878.792 451.093,876.49 453.254,874.209 455.415,871.95 457.576,869.712 459.737,867.496 461.898,865.3 464.059,863.125 466.22,860.971 468.381,858.837 470.542,856.723 472.703,854.629 474.864,852.554 477.024,850.499 479.185,848.464 481.346,846.447 483.507,844.45 485.668,842.471 487.829,840.511 489.99,838.569 492.151,836.646 494.312,834.74 496.473,832.853 498.634,830.983 500.795,829.131 502.956,827.296 505.117,825.478 507.278,823.677 509.439,821.894 511.6,820.127 513.761,818.376 515.922,816.642 518.083,814.925 520.244,813.223 522.405,811.537 524.566,809.867 526.727,808.213 528.888,806.575 531.049,804.951 533.21,803.343 535.371,801.75 537.532,800.172 539.693,798.609 541.854,797.06 544.015,795.526 546.176,794.006 548.337,792.501 550.498,791.009 552.659,789.532 554.82,788.068 556.981,786.618 559.142,785.182 561.303,783.759 563.464,782.349 565.625,780.953 567.786,779.569 569.947,778.199 572.108,776.841 574.269,775.496 576.43,774.163 578.591,772.843 580.752,771.535 582.913,770.24 585.074,768.956 587.235,767.685 589.396,766.425 591.556,765.177 593.717,763.94 595.878,762.715 598.039,761.502 600.2,760.299 602.361,759.108 604.522,757.928 606.683,756.759 608.844,755.6 611.005,754.453 613.166,753.316 615.327,752.189 617.488,751.073 619.649,749.968 621.81,748.872 623.971,747.787 626.132,746.711 628.293,745.646 630.454,744.59 632.615,743.545 634.776,742.509 636.937,741.482 639.098,740.465 641.259,739.458 643.42,738.459 645.581,737.47 647.742,736.49 649.903,735.52 652.064,734.558 654.225,733.605 656.386,732.661 658.547,731.726 660.708,730.799 662.869,729.881 665.03,728.971 667.191,728.07 669.352,727.177 671.513,726.293 673.674,725.416 675.835,724.548 677.996,723.688 680.157,722.835 682.318,721.991 684.479,721.154 686.64,720.325 688.801,719.504 690.962,718.69 693.123,717.884 695.284,717.085 697.445,716.294 699.606,715.51 701.767,714.733 703.927,713.963 706.088,713.201 708.249,712.445 710.41,711.696 712.571,710.954 714.732,710.219 716.893,709.491 719.054,708.769 721.215,708.054 723.376,707.346 725.537,706.644 727.698,705.948 729.859,705.259 732.02,704.576 734.181,703.9 736.342,703.229 738.503,702.565 740.664,701.906 742.825,701.254 744.986,700.608 747.147,699.967 749.308,699.333 751.469,698.704 753.63,698.081 755.791,697.463 757.952,696.851 760.113,696.245 762.274,695.644 764.435,695.049 766.596,694.458 768.757,693.874 770.918,693.294 773.079,692.72 775.24,692.151 777.401,691.588 779.562,691.029 781.723,690.475 783.884,689.927 786.045,689.383 788.206,688.844 790.367,688.311 792.528,687.782 794.689,687.258 796.85,686.738 799.011,686.224 801.172,685.714 803.333,685.208 805.494,684.708 807.655,684.212 809.816,683.72 811.977,683.233 814.138,682.75 816.298,682.272 818.459,681.798 820.62,681.328 822.781,680.862 824.942,680.401 827.103,679.944 829.264,679.491 831.425,679.043 833.586,678.598 835.747,678.157 837.908,677.72 840.069,677.288 842.23,676.859 844.391,676.434 846.552,676.013 848.713,675.596 850.874,675.182 853.035,674.772 855.196,674.366 857.357,673.964 859.518,673.565 861.679,673.17 863.84,672.779 866.001,672.39 868.162,672.006 870.323,671.625 872.484,671.247 874.645,670.873 876.806,670.502 878.967,670.134 881.128,669.77 883.289,669.409 885.45,669.051 887.611,668.697 889.772,668.345 891.933,667.997 894.094,667.652 896.255,667.31 898.416,666.971 900.577,666.635 902.738,666.302 904.899,665.972 907.06,665.644 909.221,665.32 911.382,664.999 913.543,664.68 915.704,664.364 917.865,664.052 920.026,663.741 922.187,663.434 924.348,663.129 926.509,662.827 928.669,662.528 930.83,662.231 932.991,661.937 935.152,661.645 937.313,661.356 939.474,661.07 941.635,660.786 943.796,660.505 945.957,660.226 948.118,659.949 950.279,659.675 952.44,659.403 954.601,659.134 956.762,658.867 958.923,658.603 961.084,658.34 963.245,658.081 965.406,657.823 967.567,657.568 969.728,657.315 971.889,657.064 974.05,656.815 976.211,656.569 978.372,656.325 980.533,656.083 982.694,655.843 984.855,655.605 987.016,655.369 989.177,655.136 991.338,654.904 993.499,654.675 995.66,654.447 997.821,654.222 999.982,653.998 1002.14,653.777 1004.3,653.558 1006.46,653.34 1008.63,653.124 1010.79,652.911 1012.95,652.699 1015.11,652.489 1017.27,652.281 1019.43,652.075 1021.59,651.87 1023.75,651.668 1025.91,651.467 1028.07,651.268 1030.24,651.071 1032.4,650.875 1034.56,650.681 1036.72,650.489 1038.88,650.299 1041.04,650.11 1043.2,649.923 1045.36,649.737 1047.52,649.554 1049.68,649.371 1051.85,649.191 1054.01,649.012 1056.17,648.834 1058.33,648.659 1060.49,648.484 1062.65,648.311 1064.81,648.14 1066.97,647.97 1069.13,647.802 1071.29,647.635 1073.46,647.47 1075.62,647.306 1077.78,647.143 1079.94,646.982 1082.1,646.822 1084.26,646.664 1086.42,646.507 1088.58,646.351 1090.74,646.197 1092.9,646.044 1095.07,645.892 1097.23,645.741 1099.39,645.592 1101.55,645.445 1103.71,645.298 1105.87,645.153 1108.03,645.009 1110.19,644.866 1112.35,644.724 1114.51,644.584 1116.67,644.444 1118.84,644.306 1121,644.169 1123.16,644.034 1125.32,643.899 1127.48,643.765 1129.64,643.633 1131.8,643.502 1133.96,643.371 1136.12,643.242 1138.28,643.114 1140.45,642.987 1142.61,642.862 1144.77,642.737 1146.93,642.613 1149.09,642.49 1151.25,642.369 1153.41,642.248 1155.57,642.128 1157.73,642.01 1159.89,641.892 1162.06,641.775 1164.22,641.66 1166.38,641.545 1168.54,641.431 1170.7,641.319 1172.86,641.207 1175.02,641.096 1177.18,640.986 1179.34,640.877 1181.5,640.769 1183.67,640.662 1185.83,640.556 1187.99,640.451 1190.15,640.347 1192.31,640.243 1194.47,640.141 1196.63,640.039 1198.79,639.938 1200.95,639.838 1203.11,639.739 1205.28,639.641 1207.44,639.543 1209.6,639.447 1211.76,639.351 1213.92,639.256 1216.08,639.162 1218.24,639.069 1220.4,638.976 1222.56,638.884 1224.72,638.794 1226.88,638.703 1229.05,638.614 1231.21,638.525 1233.37,638.437 1235.53,638.35 1237.69,638.264 1239.85,638.178 1242.01,638.093 1244.17,638.009 1246.33,637.926 1248.49,637.843 1250.66,637.761 1252.82,637.68 1254.98,637.599 1257.14,637.519 1259.3,637.44 1261.46,637.361 1263.62,637.283 1265.78,637.206 1267.94,637.13 1270.1,637.054 1272.27,636.978 1274.43,636.904 1276.59,636.83 1278.75,636.756 1280.91,636.683 1283.07,636.611 1285.23,636.54 1287.39,636.469 1289.55,636.398 1291.71,636.328 1293.88,636.259 1296.04,636.191 1298.2,636.122 1300.36,636.055 1302.52,635.988 1304.68,635.922 1306.84,635.856 1309,635.791 1311.16,635.726 1313.32,635.662 1315.49,635.598 1317.65,635.535 1319.81,635.472 1321.97,635.41 1324.13,635.348 1326.29,635.287 1328.45,635.227 1330.61,635.166 1332.77,635.107 1334.93,635.048 1337.09,634.989 1339.26,634.931 1341.42,634.873 1343.58,634.816 1345.74,634.759 1347.9,634.702 1350.06,634.646 1352.22,634.591 1354.38,634.536 1356.54,634.481 1358.7,634.427 1360.87,634.373 1363.03,634.32 1365.19,634.267 1367.35,634.214 1369.51,634.162 1371.67,634.11 1373.83,634.059 1375.99,634.008 1378.15,633.957 1380.31,633.907 1382.48,633.857 1384.64,633.808 1386.8,633.759 1388.96,633.71 1391.12,633.662 1393.28,633.614 1395.44,633.567 1397.6,633.52 1399.76,633.473 1401.92,633.427 1404.09,633.381 1406.25,633.335 1408.41,633.29 1410.57,633.245 1412.73,633.201 1414.89,633.157 1417.05,633.113 1419.21,633.07 1421.37,633.027 1423.53,632.984 1425.7,632.942 1427.86,632.9 1430.02,632.858 1432.18,632.816 1434.34,632.775 1436.5,632.735 1438.66,632.694 1440.82,632.654 1442.98,632.615 1445.14,632.575 1447.3,632.536 1449.47,632.498 1451.63,632.459 1453.79,632.421 1455.95,632.383 1458.11,632.346 1460.27,632.309 1462.43,632.272 1464.59,632.235 1466.75,632.199 1468.91,632.163 1471.08,632.128 1473.24,632.092 1475.4,632.057 1477.56,632.022 1479.72,631.988 1481.88,631.954 1484.04,631.92 1486.2,631.886 1488.36,631.853 1490.52,631.82 1492.69,631.787 1494.85,631.754 1497.01,631.722 1499.17,631.69 1501.33,631.658 1503.49,631.627 1505.65,631.595 1507.81,631.564 1509.97,631.534 1512.13,631.503 1514.3,631.473 1516.46,631.443 1518.62,631.413 1520.78,631.384 1522.94,631.354 1525.1,631.325 1527.26,631.297 1529.42,631.268 1531.58,631.24 1533.74,631.212 1535.91,631.184 1538.07,631.156 1540.23,631.129 1542.39,631.102 1544.55,631.075 1546.71,631.048 1548.87,631.022 1551.03,630.995 1553.19,630.969 1555.35,630.943 1557.51,630.918 1559.68,630.892 1561.84,630.867 1564,630.842 1566.16,630.817 1568.32,630.792 1570.48,630.768 1572.64,630.743 1574.8,630.719 1576.96,630.695 1579.12,630.672 1581.29,630.648 1583.45,630.625 1585.61,630.602 1587.77,630.579 1589.93,630.556 1592.09,630.533 1594.25,630.511 1596.41,630.488 1598.57,630.466 1600.73,630.444 1602.9,630.422 1605.06,630.401 1607.22,630.379 1609.38,630.358 1611.54,630.337 1613.7,630.316 1615.86,630.295 1618.02,630.274 1620.18,630.254 1622.34,630.233 1624.51,630.213 1626.67,630.193 1628.83,630.173 1630.99,630.153 1633.15,630.133 1635.31,630.114 1637.47,630.094 1639.63,630.075 1641.79,630.056 1643.95,630.037 1646.12,630.018 1648.28,629.999 1650.44,629.98 1652.6,629.962 1654.76,629.943 1656.92,629.925 1659.08,629.907 1661.24,629.889 1663.4,629.871 1665.56,629.853 1667.72,629.836 1669.89,629.818 1672.05,629.801 1674.21,629.784 1676.37,629.766 1678.53,629.749 1680.69,629.733 1682.85,629.716 1685.01,629.699 1687.17,629.683 1689.33,629.666 1691.5,629.65 1693.66,629.634 1695.82,629.618 1697.98,629.602 1700.14,629.586 1702.3,629.571 1704.46,629.555 1706.62,629.54 1708.78,629.524 1710.94,629.509 1713.11,629.494 1715.27,629.479 1717.43,629.464 1719.59,629.449 1721.75,629.435 1723.91,629.42 1726.07,629.406 1728.23,629.392 1730.39,629.377 1732.55,629.363 1734.72,629.349 1736.88,629.335 1739.04,629.322 1741.2,629.308 1743.36,629.295 1745.52,629.281 1747.68,629.268 1749.84,629.255 1752,629.241 1754.16,629.228 1756.33,629.215 1758.49,629.203 1760.65,629.19 1762.81,629.177 1764.97,629.165 1767.13,629.152 1769.29,629.14 1771.45,629.128 1773.61,629.116 1775.77,629.104 1777.93,629.092 1780.1,629.08 1782.26,629.068 1784.42,629.056 1786.58,629.045 1788.74,629.033 1790.9,629.022 1793.06,629.011 1795.22,628.999 1797.38,628.988 1799.54,628.977 1801.71,628.966 1803.87,628.955 1806.03,628.945 1808.19,628.934 1810.35,628.923 1812.51,628.913 1814.67,628.902 1816.83,628.892 1818.99,628.882 1821.15,628.872 1823.32,628.862 1825.48,628.852 1827.64,628.842 1829.8,628.832 1831.96,628.822 1834.12,628.812 1836.28,628.803 1838.44,628.793 1840.6,628.784 1842.76,628.774 1844.93,628.765 1847.09,628.756 1849.25,628.747 1851.41,628.737 1853.57,628.728 1855.73,628.719 1857.89,628.711 1860.05,628.702 1862.21,628.693 1864.37,628.684 1866.54,628.676 1868.7,628.667 1870.86,628.659 1873.02,628.65 1875.18,628.642 1877.34,628.634 1879.5,628.625 1881.66,628.617 1883.82,628.609 1885.98,628.601 1888.15,628.593 1890.31,628.585 1892.47,628.577 1894.63,628.569 1896.79,628.562 1898.95,628.554 1901.11,628.546 1903.27,628.539 1905.43,628.531 1907.59,628.524 1909.75,628.516 1911.92,628.509 1914.08,628.502 1916.24,628.494 1918.4,628.487 1920.56,628.48 1922.72,628.473 1924.88,628.466 1927.04,628.459 1929.2,628.452 1931.36,628.445 1933.53,628.438 1935.69,628.431 1937.85,628.425 1940.01,628.418 1942.17,628.411 1944.33,628.404 1946.49,628.398 1948.65,628.391 1950.81,628.385 1952.97,628.378 1955.14,628.372 1957.3,628.365 1959.46,628.359 1961.62,628.353 1963.78,628.346 1965.94,628.34 1968.1,628.334 1970.26,628.328 1972.42,628.322 1974.58,628.315 1976.75,628.309 1978.91,628.303 1981.07,628.297 1983.23,628.291 1985.39,628.285 1987.55,628.279 1989.71,628.273 1991.87,628.268 1994.03,628.262 1996.19,628.256 1998.36,628.25 2000.52,628.245 2002.68,628.239 2004.84,628.233 2007,628.228 2009.16,628.222 2011.32,628.217 2013.48,628.211 2015.64,628.206 2017.8,628.2 2019.96,628.195 2022.13,628.19 2024.29,628.184 2026.45,628.179 2028.61,628.174 2030.77,628.169 2032.93,628.164 2035.09,628.158 2037.25,628.153 2039.41,628.148 2041.57,628.143 2043.74,628.138 2045.9,628.133 2048.06,628.128 2050.22,628.124 2052.38,628.119 2054.54,628.114 2056.7,628.109 2058.86,628.104 2061.02,628.1 2063.18,628.095 2065.35,628.09 2067.51,628.086 2069.67,628.081 2071.83,628.077 2073.99,628.072 2076.15,628.068 2078.31,628.063 2080.47,628.059 2082.63,628.054 2084.79,628.05 2086.96,628.046 2089.12,628.041 2091.28,628.037 2093.44,628.033 2095.6,628.029 2097.76,628.025 2099.92,628.02 2102.08,628.016 2104.24,628.012 2106.4,628.008 2108.57,628.004 2110.73,628 2112.89,627.996 2115.05,627.992 2117.21,627.988 2119.37,627.985 2121.53,627.981 2123.69,627.977 2125.85,627.973 2128.01,627.969 2130.17,627.966 2132.34,627.962 2134.5,627.958 2136.66,627.955 2138.82,627.951 2140.98,627.947 2143.14,627.944 2145.3,627.94 2147.46,627.937 2149.62,627.933 2151.78,627.93 2153.95,627.926 2156.11,627.923 2158.27,627.92 2160.43,627.916 2162.59,627.913 2164.75,627.91 2166.91,627.906 2169.07,627.903 2171.23,627.9 2173.39,627.897 2175.56,627.893 2177.72,627.89 2179.88,627.887 2182.04,627.884 2184.2,627.881 2186.36,627.878 2188.52,627.875 2190.68,627.872 2192.84,627.869 2195,627.866 2197.17,627.863 2199.33,627.86 2201.49,627.857 2203.65,627.854 2205.81,627.851 2207.97,627.848 2210.13,627.845 2212.29,627.843 2214.45,627.84 2216.61,627.837 2218.78,627.834 2220.94,627.832 2223.1,627.829 2225.26,627.826 2227.42,627.824 2229.58,627.821 2231.74,627.818 2233.9,627.816 2236.06,627.813 2238.22,627.811 2240.38,627.808 2242.55,627.806 2244.71,627.803 2246.87,627.801 2249.03,627.798 2251.19,627.796 2253.35,627.793 2255.51,627.791 2257.67,627.788 2259.83,627.786 2261.99,627.784 2264.16,627.781 2266.32,627.779 2268.48,627.777 2270.64,627.774 2272.8,627.772 2274.96,627.77 2277.12,627.767 2279.28,627.765 2281.44,627.763 2283.6,627.761 2285.77,627.758 2287.93,627.756 2290.09,627.754 2292.25,627.752 2294.41,627.75 2296.57,627.748 2298.73,627.746 2300.89,627.743 2303.05,627.741 2305.21,627.739 2307.38,627.737 2309.54,627.735 2311.7,627.733 2313.86,627.731 2316.02,627.729 2318.18,627.727 2320.34,627.725 2322.5,627.723 2324.66,627.721 2326.82,627.719 2328.99,627.717 2331.15,627.715 2333.31,627.713 2335.47,627.711 2337.63,627.709 2339.79,627.707 2341.95,627.706 2344.11,627.704 2346.27,627.702 2348.43,627.7 2350.59,627.698 2352.76,627.696 "/>
<path clip-path="url(#clip150)" d="M1805.52 248.629 L2280.8 248.629 L2280.8 93.1086 L1805.52 93.1086  Z" fill="#ffffff" fill-rule="evenodd" fill-opacity="1"/>
<polyline clip-path="url(#clip150)" style="stroke:#000000; stroke-linecap:round; stroke-linejoin:round; stroke-width:4; stroke-opacity:1; fill:none" points="1805.52,248.629 2280.8,248.629 2280.8,93.1086 1805.52,93.1086 1805.52,248.629 "/>
<polyline clip-path="url(#clip150)" style="stroke:#009af9; stroke-linecap:round; stroke-linejoin:round; stroke-width:4; stroke-opacity:1; fill:none" points="1829.5,144.949 1973.42,144.949 "/>
<path clip-path="url(#clip150)" d="M1997.41 136.303 L2001.93 136.303 L2010.03 158.062 L2018.13 136.303 L2022.64 136.303 L2012.92 162.229 L2007.13 162.229 L1997.41 136.303 Z" fill="#000000" fill-rule="nonzero" fill-opacity="1" /><path clip-path="url(#clip150)" d="M2029.93 158.293 L2037.57 158.293 L2037.57 131.928 L2029.26 133.595 L2029.26 129.335 L2037.53 127.669 L2042.2 127.669 L2042.2 158.293 L2049.84 158.293 L2049.84 162.229 L2029.93 162.229 L2029.93 158.293 Z" fill="#000000" fill-rule="nonzero" fill-opacity="1" /><path clip-path="url(#clip150)" d="M2067.94 145.585 L2067.94 152.807 L2076.07 152.807 L2076.07 155.006 L2067.94 155.006 L2067.94 162.229 L2065.51 162.229 L2065.51 155.006 L2057.39 155.006 L2057.39 152.807 L2065.51 152.807 L2065.51 145.585 L2067.94 145.585 Z" fill="#000000" fill-rule="nonzero" fill-opacity="1" /><path clip-path="url(#clip150)" d="M2100.24 137.067 L2100.24 141.094 Q2098.43 140.169 2096.49 139.706 Q2094.54 139.243 2092.46 139.243 Q2089.29 139.243 2087.69 140.215 Q2086.11 141.187 2086.11 143.131 Q2086.11 144.613 2087.25 145.469 Q2088.38 146.303 2091.81 147.067 L2093.27 147.391 Q2097.8 148.363 2099.7 150.145 Q2101.62 151.905 2101.62 155.076 Q2101.62 158.687 2098.75 160.793 Q2095.91 162.9 2090.91 162.9 Q2088.82 162.9 2086.55 162.483 Q2084.31 162.09 2081.81 161.28 L2081.81 156.881 Q2084.17 158.108 2086.46 158.733 Q2088.75 159.335 2091 159.335 Q2094.01 159.335 2095.63 158.317 Q2097.25 157.275 2097.25 155.4 Q2097.25 153.664 2096.07 152.738 Q2094.91 151.812 2090.95 150.956 L2089.47 150.608 Q2085.51 149.775 2083.75 148.062 Q2081.99 146.326 2081.99 143.317 Q2081.99 139.659 2084.59 137.669 Q2087.18 135.678 2091.95 135.678 Q2094.31 135.678 2096.39 136.025 Q2098.48 136.372 2100.24 137.067 Z" fill="#000000" fill-rule="nonzero" fill-opacity="1" /><path clip-path="url(#clip150)" d="M2112.62 128.942 L2112.62 136.303 L2121.39 136.303 L2121.39 139.613 L2112.62 139.613 L2112.62 153.687 Q2112.62 156.858 2113.48 157.761 Q2114.36 158.664 2117.02 158.664 L2121.39 158.664 L2121.39 162.229 L2117.02 162.229 Q2112.09 162.229 2110.21 160.4 Q2108.34 158.548 2108.34 153.687 L2108.34 139.613 L2105.21 139.613 L2105.21 136.303 L2108.34 136.303 L2108.34 128.942 L2112.62 128.942 Z" fill="#000000" fill-rule="nonzero" fill-opacity="1" /><path clip-path="url(#clip150)" d="M2137.04 139.289 Q2133.61 139.289 2131.62 141.974 Q2129.63 144.636 2129.63 149.289 Q2129.63 153.942 2131.6 156.627 Q2133.59 159.289 2137.04 159.289 Q2140.44 159.289 2142.43 156.604 Q2144.42 153.918 2144.42 149.289 Q2144.42 144.682 2142.43 141.997 Q2140.44 139.289 2137.04 139.289 M2137.04 135.678 Q2142.6 135.678 2145.77 139.289 Q2148.94 142.9 2148.94 149.289 Q2148.94 155.655 2145.77 159.289 Q2142.6 162.9 2137.04 162.9 Q2131.46 162.9 2128.29 159.289 Q2125.14 155.655 2125.14 149.289 Q2125.14 142.9 2128.29 139.289 Q2131.46 135.678 2137.04 135.678 Z" fill="#000000" fill-rule="nonzero" fill-opacity="1" /><path clip-path="url(#clip150)" d="M2171.02 140.284 Q2170.3 139.868 2169.45 139.682 Q2168.61 139.474 2167.6 139.474 Q2163.98 139.474 2162.04 141.835 Q2160.12 144.173 2160.12 148.571 L2160.12 162.229 L2155.84 162.229 L2155.84 136.303 L2160.12 136.303 L2160.12 140.331 Q2161.46 137.969 2163.61 136.835 Q2165.77 135.678 2168.85 135.678 Q2169.29 135.678 2169.82 135.747 Q2170.35 135.794 2171 135.909 L2171.02 140.284 Z" fill="#000000" fill-rule="nonzero" fill-opacity="1" /><path clip-path="url(#clip150)" d="M2187.27 149.196 Q2182.11 149.196 2180.12 150.377 Q2178.13 151.557 2178.13 154.405 Q2178.13 156.673 2179.61 158.016 Q2181.11 159.335 2183.68 159.335 Q2187.23 159.335 2189.36 156.835 Q2191.51 154.312 2191.51 150.145 L2191.51 149.196 L2187.27 149.196 M2195.77 147.437 L2195.77 162.229 L2191.51 162.229 L2191.51 158.293 Q2190.05 160.655 2187.87 161.789 Q2185.7 162.9 2182.55 162.9 Q2178.57 162.9 2176.21 160.678 Q2173.87 158.432 2173.87 154.682 Q2173.87 150.307 2176.79 148.085 Q2179.73 145.863 2185.54 145.863 L2191.51 145.863 L2191.51 145.446 Q2191.51 142.507 2189.56 140.909 Q2187.64 139.289 2184.15 139.289 Q2181.92 139.289 2179.82 139.821 Q2177.71 140.354 2175.77 141.419 L2175.77 137.483 Q2178.11 136.581 2180.3 136.141 Q2182.5 135.678 2184.59 135.678 Q2190.21 135.678 2192.99 138.594 Q2195.77 141.511 2195.77 147.437 Z" fill="#000000" fill-rule="nonzero" fill-opacity="1" /><path clip-path="url(#clip150)" d="M2221.6 148.965 Q2221.6 144.335 2219.68 141.789 Q2217.78 139.243 2214.33 139.243 Q2210.91 139.243 2208.98 141.789 Q2207.09 144.335 2207.09 148.965 Q2207.09 153.571 2208.98 156.118 Q2210.91 158.664 2214.33 158.664 Q2217.78 158.664 2219.68 156.118 Q2221.6 153.571 2221.6 148.965 M2225.86 159.011 Q2225.86 165.631 2222.92 168.849 Q2219.98 172.09 2213.92 172.09 Q2211.67 172.09 2209.68 171.742 Q2207.69 171.418 2205.81 170.724 L2205.81 166.58 Q2207.69 167.599 2209.52 168.085 Q2211.35 168.571 2213.24 168.571 Q2217.43 168.571 2219.52 166.372 Q2221.6 164.196 2221.6 159.775 L2221.6 157.668 Q2220.28 159.96 2218.22 161.094 Q2216.16 162.229 2213.29 162.229 Q2208.52 162.229 2205.6 158.594 Q2202.69 154.96 2202.69 148.965 Q2202.69 142.946 2205.6 139.312 Q2208.52 135.678 2213.29 135.678 Q2216.16 135.678 2218.22 136.812 Q2220.28 137.946 2221.6 140.238 L2221.6 136.303 L2225.86 136.303 L2225.86 159.011 Z" fill="#000000" fill-rule="nonzero" fill-opacity="1" /><path clip-path="url(#clip150)" d="M2256.81 148.201 L2256.81 150.284 L2237.23 150.284 Q2237.5 154.682 2239.86 156.997 Q2242.25 159.289 2246.48 159.289 Q2248.94 159.289 2251.23 158.687 Q2253.54 158.085 2255.81 156.881 L2255.81 160.909 Q2253.52 161.881 2251.11 162.391 Q2248.71 162.9 2246.23 162.9 Q2240.03 162.9 2236.39 159.289 Q2232.78 155.678 2232.78 149.52 Q2232.78 143.155 2236.21 139.428 Q2239.66 135.678 2245.49 135.678 Q2250.72 135.678 2253.75 139.057 Q2256.81 142.414 2256.81 148.201 M2252.55 146.951 Q2252.5 143.456 2250.58 141.372 Q2248.68 139.289 2245.54 139.289 Q2241.97 139.289 2239.82 141.303 Q2237.69 143.317 2237.36 146.974 L2252.55 146.951 Z" fill="#000000" fill-rule="nonzero" fill-opacity="1" /><polyline clip-path="url(#clip150)" style="stroke:#e26f46; stroke-linecap:round; stroke-linejoin:round; stroke-width:4; stroke-opacity:1; fill:none" points="1829.5,196.789 1973.42,196.789 "/>
<path clip-path="url(#clip150)" d="M1997.41 188.143 L2001.93 188.143 L2010.03 209.902 L2018.13 188.143 L2022.64 188.143 L2012.92 214.069 L2007.13 214.069 L1997.41 188.143 Z" fill="#000000" fill-rule="nonzero" fill-opacity="1" /><path clip-path="url(#clip150)" d="M2029.17 179.509 L2047.53 179.509 L2047.53 183.444 L2033.45 183.444 L2033.45 191.916 Q2034.47 191.569 2035.49 191.407 Q2036.51 191.222 2037.53 191.222 Q2043.31 191.222 2046.69 194.393 Q2050.07 197.564 2050.07 202.981 Q2050.07 208.559 2046.6 211.661 Q2043.13 214.74 2036.81 214.74 Q2034.63 214.74 2032.37 214.37 Q2030.12 213.999 2027.71 213.258 L2027.71 208.559 Q2029.8 209.694 2032.02 210.249 Q2034.24 210.805 2036.72 210.805 Q2040.72 210.805 2043.06 208.698 Q2045.4 206.592 2045.4 202.981 Q2045.4 199.37 2043.06 197.263 Q2040.72 195.157 2036.72 195.157 Q2034.84 195.157 2032.97 195.573 Q2031.12 195.99 2029.17 196.87 L2029.17 179.509 Z" fill="#000000" fill-rule="nonzero" fill-opacity="1" /><path clip-path="url(#clip150)" d="M2067.94 197.425 L2067.94 204.647 L2076.07 204.647 L2076.07 206.846 L2067.94 206.846 L2067.94 214.069 L2065.51 214.069 L2065.51 206.846 L2057.39 206.846 L2057.39 204.647 L2065.51 204.647 L2065.51 197.425 L2067.94 197.425 Z" fill="#000000" fill-rule="nonzero" fill-opacity="1" /><path clip-path="url(#clip150)" d="M2100.24 188.907 L2100.24 192.934 Q2098.43 192.009 2096.49 191.546 Q2094.54 191.083 2092.46 191.083 Q2089.29 191.083 2087.69 192.055 Q2086.11 193.027 2086.11 194.971 Q2086.11 196.453 2087.25 197.309 Q2088.38 198.143 2091.81 198.907 L2093.27 199.231 Q2097.8 200.203 2099.7 201.985 Q2101.62 203.745 2101.62 206.916 Q2101.62 210.527 2098.75 212.633 Q2095.91 214.74 2090.91 214.74 Q2088.82 214.74 2086.55 214.323 Q2084.31 213.93 2081.81 213.12 L2081.81 208.721 Q2084.17 209.948 2086.46 210.573 Q2088.75 211.175 2091 211.175 Q2094.01 211.175 2095.63 210.157 Q2097.25 209.115 2097.25 207.24 Q2097.25 205.504 2096.07 204.578 Q2094.91 203.652 2090.95 202.796 L2089.47 202.448 Q2085.51 201.615 2083.75 199.902 Q2081.99 198.166 2081.99 195.157 Q2081.99 191.499 2084.59 189.509 Q2087.18 187.518 2091.95 187.518 Q2094.31 187.518 2096.39 187.865 Q2098.48 188.212 2100.24 188.907 Z" fill="#000000" fill-rule="nonzero" fill-opacity="1" /><path clip-path="url(#clip150)" d="M2112.62 180.782 L2112.62 188.143 L2121.39 188.143 L2121.39 191.453 L2112.62 191.453 L2112.62 205.527 Q2112.62 208.698 2113.48 209.601 Q2114.36 210.504 2117.02 210.504 L2121.39 210.504 L2121.39 214.069 L2117.02 214.069 Q2112.09 214.069 2110.21 212.24 Q2108.34 210.388 2108.34 205.527 L2108.34 191.453 L2105.21 191.453 L2105.21 188.143 L2108.34 188.143 L2108.34 180.782 L2112.62 180.782 Z" fill="#000000" fill-rule="nonzero" fill-opacity="1" /><path clip-path="url(#clip150)" d="M2137.04 191.129 Q2133.61 191.129 2131.62 193.814 Q2129.63 196.476 2129.63 201.129 Q2129.63 205.782 2131.6 208.467 Q2133.59 211.129 2137.04 211.129 Q2140.44 211.129 2142.43 208.444 Q2144.42 205.758 2144.42 201.129 Q2144.42 196.522 2142.43 193.837 Q2140.44 191.129 2137.04 191.129 M2137.04 187.518 Q2142.6 187.518 2145.77 191.129 Q2148.94 194.74 2148.94 201.129 Q2148.94 207.495 2145.77 211.129 Q2142.6 214.74 2137.04 214.74 Q2131.46 214.74 2128.29 211.129 Q2125.14 207.495 2125.14 201.129 Q2125.14 194.74 2128.29 191.129 Q2131.46 187.518 2137.04 187.518 Z" fill="#000000" fill-rule="nonzero" fill-opacity="1" /><path clip-path="url(#clip150)" d="M2171.02 192.124 Q2170.3 191.708 2169.45 191.522 Q2168.61 191.314 2167.6 191.314 Q2163.98 191.314 2162.04 193.675 Q2160.12 196.013 2160.12 200.411 L2160.12 214.069 L2155.84 214.069 L2155.84 188.143 L2160.12 188.143 L2160.12 192.171 Q2161.46 189.809 2163.61 188.675 Q2165.77 187.518 2168.85 187.518 Q2169.29 187.518 2169.82 187.587 Q2170.35 187.634 2171 187.749 L2171.02 192.124 Z" fill="#000000" fill-rule="nonzero" fill-opacity="1" /><path clip-path="url(#clip150)" d="M2187.27 201.036 Q2182.11 201.036 2180.12 202.217 Q2178.13 203.397 2178.13 206.245 Q2178.13 208.513 2179.61 209.856 Q2181.11 211.175 2183.68 211.175 Q2187.23 211.175 2189.36 208.675 Q2191.51 206.152 2191.51 201.985 L2191.51 201.036 L2187.27 201.036 M2195.77 199.277 L2195.77 214.069 L2191.51 214.069 L2191.51 210.133 Q2190.05 212.495 2187.87 213.629 Q2185.7 214.74 2182.55 214.74 Q2178.57 214.74 2176.21 212.518 Q2173.87 210.272 2173.87 206.522 Q2173.87 202.147 2176.79 199.925 Q2179.73 197.703 2185.54 197.703 L2191.51 197.703 L2191.51 197.286 Q2191.51 194.347 2189.56 192.749 Q2187.64 191.129 2184.15 191.129 Q2181.92 191.129 2179.82 191.661 Q2177.71 192.194 2175.77 193.259 L2175.77 189.323 Q2178.11 188.421 2180.3 187.981 Q2182.5 187.518 2184.59 187.518 Q2190.21 187.518 2192.99 190.434 Q2195.77 193.351 2195.77 199.277 Z" fill="#000000" fill-rule="nonzero" fill-opacity="1" /><path clip-path="url(#clip150)" d="M2221.6 200.805 Q2221.6 196.175 2219.68 193.629 Q2217.78 191.083 2214.33 191.083 Q2210.91 191.083 2208.98 193.629 Q2207.09 196.175 2207.09 200.805 Q2207.09 205.411 2208.98 207.958 Q2210.91 210.504 2214.33 210.504 Q2217.78 210.504 2219.68 207.958 Q2221.6 205.411 2221.6 200.805 M2225.86 210.851 Q2225.86 217.471 2222.92 220.689 Q2219.98 223.93 2213.92 223.93 Q2211.67 223.93 2209.68 223.582 Q2207.69 223.258 2205.81 222.564 L2205.81 218.42 Q2207.69 219.439 2209.52 219.925 Q2211.35 220.411 2213.24 220.411 Q2217.43 220.411 2219.52 218.212 Q2221.6 216.036 2221.6 211.615 L2221.6 209.508 Q2220.28 211.8 2218.22 212.934 Q2216.16 214.069 2213.29 214.069 Q2208.52 214.069 2205.6 210.434 Q2202.69 206.8 2202.69 200.805 Q2202.69 194.786 2205.6 191.152 Q2208.52 187.518 2213.29 187.518 Q2216.16 187.518 2218.22 188.652 Q2220.28 189.786 2221.6 192.078 L2221.6 188.143 L2225.86 188.143 L2225.86 210.851 Z" fill="#000000" fill-rule="nonzero" fill-opacity="1" /><path clip-path="url(#clip150)" d="M2256.81 200.041 L2256.81 202.124 L2237.23 202.124 Q2237.5 206.522 2239.86 208.837 Q2242.25 211.129 2246.48 211.129 Q2248.94 211.129 2251.23 210.527 Q2253.54 209.925 2255.81 208.721 L2255.81 212.749 Q2253.52 213.721 2251.11 214.231 Q2248.71 214.74 2246.23 214.74 Q2240.03 214.74 2236.39 211.129 Q2232.78 207.518 2232.78 201.36 Q2232.78 194.995 2236.21 191.268 Q2239.66 187.518 2245.49 187.518 Q2250.72 187.518 2253.75 190.897 Q2256.81 194.254 2256.81 200.041 M2252.55 198.791 Q2252.5 195.296 2250.58 193.212 Q2248.68 191.129 2245.54 191.129 Q2241.97 191.129 2239.82 193.143 Q2237.69 195.157 2237.36 198.814 L2252.55 198.791 Z" fill="#000000" fill-rule="nonzero" fill-opacity="1" /></svg>
