<?xml version="1.0" encoding="utf-8"?>
<svg xmlns="http://www.w3.org/2000/svg" xmlns:xlink="http://www.w3.org/1999/xlink" width="600" height="400" viewBox="0 0 2400 1600">
<defs>
  <clipPath id="clip030">
    <rect x="0" y="0" width="2400" height="1600"/>
  </clipPath>
</defs>
<path clip-path="url(#clip030)" d="M0 1600 L2400 1600 L2400 0 L0 0  Z" fill="#ffffff" fill-rule="evenodd" fill-opacity="1"/>
<defs>
  <clipPath id="clip031">
    <rect x="480" y="0" width="1681" height="1600"/>
  </clipPath>
</defs>
<path clip-path="url(#clip030)" d="M156.598 1423.18 L2352.76 1423.18 L2352.76 47.2441 L156.598 47.2441  Z" fill="#ffffff" fill-rule="evenodd" fill-opacity="1"/>
<defs>
  <clipPath id="clip032">
    <rect x="156" y="47" width="2197" height="1377"/>
  </clipPath>
</defs>
<polyline clip-path="url(#clip032)" style="stroke:#000000; stroke-linecap:round; stroke-linejoin:round; stroke-width:2; stroke-opacity:0.1; fill:none" points="156.598,1423.18 156.598,47.2441 "/>
<polyline clip-path="url(#clip032)" style="stroke:#000000; stroke-linecap:round; stroke-linejoin:round; stroke-width:2; stroke-opacity:0.1; fill:none" points="705.638,1423.18 705.638,47.2441 "/>
<polyline clip-path="url(#clip032)" style="stroke:#000000; stroke-linecap:round; stroke-linejoin:round; stroke-width:2; stroke-opacity:0.1; fill:none" points="1254.68,1423.18 1254.68,47.2441 "/>
<polyline clip-path="url(#clip032)" style="stroke:#000000; stroke-linecap:round; stroke-linejoin:round; stroke-width:2; stroke-opacity:0.1; fill:none" points="1803.72,1423.18 1803.72,47.2441 "/>
<polyline clip-path="url(#clip032)" style="stroke:#000000; stroke-linecap:round; stroke-linejoin:round; stroke-width:2; stroke-opacity:0.1; fill:none" points="2352.76,1423.18 2352.76,47.2441 "/>
<polyline clip-path="url(#clip032)" style="stroke:#000000; stroke-linecap:round; stroke-linejoin:round; stroke-width:2; stroke-opacity:0.1; fill:none" points="156.598,1143.43 2352.76,1143.43 "/>
<polyline clip-path="url(#clip032)" style="stroke:#000000; stroke-linecap:round; stroke-linejoin:round; stroke-width:2; stroke-opacity:0.1; fill:none" points="156.598,861.585 2352.76,861.585 "/>
<polyline clip-path="url(#clip032)" style="stroke:#000000; stroke-linecap:round; stroke-linejoin:round; stroke-width:2; stroke-opacity:0.1; fill:none" points="156.598,579.738 2352.76,579.738 "/>
<polyline clip-path="url(#clip032)" style="stroke:#000000; stroke-linecap:round; stroke-linejoin:round; stroke-width:2; stroke-opacity:0.1; fill:none" points="156.598,297.891 2352.76,297.891 "/>
<polyline clip-path="url(#clip030)" style="stroke:#000000; stroke-linecap:round; stroke-linejoin:round; stroke-width:4; stroke-opacity:1; fill:none" points="156.598,1423.18 2352.76,1423.18 "/>
<polyline clip-path="url(#clip030)" style="stroke:#000000; stroke-linecap:round; stroke-linejoin:round; stroke-width:4; stroke-opacity:1; fill:none" points="156.598,1423.18 156.598,1404.28 "/>
<polyline clip-path="url(#clip030)" style="stroke:#000000; stroke-linecap:round; stroke-linejoin:round; stroke-width:4; stroke-opacity:1; fill:none" points="705.638,1423.18 705.638,1404.28 "/>
<polyline clip-path="url(#clip030)" style="stroke:#000000; stroke-linecap:round; stroke-linejoin:round; stroke-width:4; stroke-opacity:1; fill:none" points="1254.68,1423.18 1254.68,1404.28 "/>
<polyline clip-path="url(#clip030)" style="stroke:#000000; stroke-linecap:round; stroke-linejoin:round; stroke-width:4; stroke-opacity:1; fill:none" points="1803.72,1423.18 1803.72,1404.28 "/>
<polyline clip-path="url(#clip030)" style="stroke:#000000; stroke-linecap:round; stroke-linejoin:round; stroke-width:4; stroke-opacity:1; fill:none" points="2352.76,1423.18 2352.76,1404.28 "/>
<path clip-path="url(#clip030)" d="M133.983 1454.1 Q130.372 1454.1 128.543 1457.66 Q126.737 1461.2 126.737 1468.33 Q126.737 1475.44 128.543 1479.01 Q130.372 1482.55 133.983 1482.55 Q137.617 1482.55 139.422 1479.01 Q141.251 1475.44 141.251 1468.33 Q141.251 1461.2 139.422 1457.66 Q137.617 1454.1 133.983 1454.1 M133.983 1450.39 Q139.793 1450.39 142.848 1455 Q145.927 1459.58 145.927 1468.33 Q145.927 1477.06 142.848 1481.67 Q139.793 1486.25 133.983 1486.25 Q128.172 1486.25 125.094 1481.67 Q122.038 1477.06 122.038 1468.33 Q122.038 1459.58 125.094 1455 Q128.172 1450.39 133.983 1450.39 Z" fill="#000000" fill-rule="nonzero" fill-opacity="1" /><path clip-path="url(#clip030)" d="M154.145 1479.7 L159.029 1479.7 L159.029 1485.58 L154.145 1485.58 L154.145 1479.7 Z" fill="#000000" fill-rule="nonzero" fill-opacity="1" /><path clip-path="url(#clip030)" d="M179.214 1454.1 Q175.603 1454.1 173.774 1457.66 Q171.969 1461.2 171.969 1468.33 Q171.969 1475.44 173.774 1479.01 Q175.603 1482.55 179.214 1482.55 Q182.848 1482.55 184.654 1479.01 Q186.482 1475.44 186.482 1468.33 Q186.482 1461.2 184.654 1457.66 Q182.848 1454.1 179.214 1454.1 M179.214 1450.39 Q185.024 1450.39 188.08 1455 Q191.158 1459.58 191.158 1468.33 Q191.158 1477.06 188.08 1481.67 Q185.024 1486.25 179.214 1486.25 Q173.404 1486.25 170.325 1481.67 Q167.269 1477.06 167.269 1468.33 Q167.269 1459.58 170.325 1455 Q173.404 1450.39 179.214 1450.39 Z" fill="#000000" fill-rule="nonzero" fill-opacity="1" /><path clip-path="url(#clip030)" d="M683.52 1454.1 Q679.909 1454.1 678.08 1457.66 Q676.274 1461.2 676.274 1468.33 Q676.274 1475.44 678.08 1479.01 Q679.909 1482.55 683.52 1482.55 Q687.154 1482.55 688.96 1479.01 Q690.788 1475.44 690.788 1468.33 Q690.788 1461.2 688.96 1457.66 Q687.154 1454.1 683.52 1454.1 M683.52 1450.39 Q689.33 1450.39 692.385 1455 Q695.464 1459.58 695.464 1468.33 Q695.464 1477.06 692.385 1481.67 Q689.33 1486.25 683.52 1486.25 Q677.71 1486.25 674.631 1481.67 Q671.575 1477.06 671.575 1468.33 Q671.575 1459.58 674.631 1455 Q677.71 1450.39 683.52 1450.39 Z" fill="#000000" fill-rule="nonzero" fill-opacity="1" /><path clip-path="url(#clip030)" d="M703.682 1479.7 L708.566 1479.7 L708.566 1485.58 L703.682 1485.58 L703.682 1479.7 Z" fill="#000000" fill-rule="nonzero" fill-opacity="1" /><path clip-path="url(#clip030)" d="M718.797 1451.02 L737.154 1451.02 L737.154 1454.96 L723.08 1454.96 L723.08 1463.43 Q724.098 1463.08 725.117 1462.92 Q726.135 1462.73 727.154 1462.73 Q732.941 1462.73 736.32 1465.9 Q739.7 1469.08 739.7 1474.49 Q739.7 1480.07 736.228 1483.17 Q732.756 1486.25 726.436 1486.25 Q724.26 1486.25 721.992 1485.88 Q719.746 1485.51 717.339 1484.77 L717.339 1480.07 Q719.422 1481.2 721.645 1481.76 Q723.867 1482.32 726.344 1482.32 Q730.348 1482.32 732.686 1480.21 Q735.024 1478.1 735.024 1474.49 Q735.024 1470.88 732.686 1468.77 Q730.348 1466.67 726.344 1466.67 Q724.469 1466.67 722.594 1467.08 Q720.742 1467.5 718.797 1468.38 L718.797 1451.02 Z" fill="#000000" fill-rule="nonzero" fill-opacity="1" /><path clip-path="url(#clip030)" d="M1221.83 1481.64 L1229.47 1481.64 L1229.47 1455.28 L1221.16 1456.95 L1221.16 1452.69 L1229.42 1451.02 L1234.1 1451.02 L1234.1 1481.64 L1241.74 1481.64 L1241.74 1485.58 L1221.83 1485.58 L1221.83 1481.64 Z" fill="#000000" fill-rule="nonzero" fill-opacity="1" /><path clip-path="url(#clip030)" d="M1251.18 1479.7 L1256.07 1479.7 L1256.07 1485.58 L1251.18 1485.58 L1251.18 1479.7 Z" fill="#000000" fill-rule="nonzero" fill-opacity="1" /><path clip-path="url(#clip030)" d="M1276.25 1454.1 Q1272.64 1454.1 1270.81 1457.66 Q1269.01 1461.2 1269.01 1468.33 Q1269.01 1475.44 1270.81 1479.01 Q1272.64 1482.55 1276.25 1482.55 Q1279.89 1482.55 1281.69 1479.01 Q1283.52 1475.44 1283.52 1468.33 Q1283.52 1461.2 1281.69 1457.66 Q1279.89 1454.1 1276.25 1454.1 M1276.25 1450.39 Q1282.06 1450.39 1285.12 1455 Q1288.2 1459.58 1288.2 1468.33 Q1288.2 1477.06 1285.12 1481.67 Q1282.06 1486.25 1276.25 1486.25 Q1270.44 1486.25 1267.36 1481.67 Q1264.31 1477.06 1264.31 1468.33 Q1264.31 1459.58 1267.36 1455 Q1270.44 1450.39 1276.25 1450.39 Z" fill="#000000" fill-rule="nonzero" fill-opacity="1" /><path clip-path="url(#clip030)" d="M1771.37 1481.64 L1779.01 1481.64 L1779.01 1455.28 L1770.7 1456.95 L1770.7 1452.69 L1778.96 1451.02 L1783.64 1451.02 L1783.64 1481.64 L1791.27 1481.64 L1791.27 1485.58 L1771.37 1485.58 L1771.37 1481.64 Z" fill="#000000" fill-rule="nonzero" fill-opacity="1" /><path clip-path="url(#clip030)" d="M1800.72 1479.7 L1805.6 1479.7 L1805.6 1485.58 L1800.72 1485.58 L1800.72 1479.7 Z" fill="#000000" fill-rule="nonzero" fill-opacity="1" /><path clip-path="url(#clip030)" d="M1815.83 1451.02 L1834.19 1451.02 L1834.19 1454.96 L1820.12 1454.96 L1820.12 1463.43 Q1821.14 1463.08 1822.15 1462.92 Q1823.17 1462.73 1824.19 1462.73 Q1829.98 1462.73 1833.36 1465.9 Q1836.74 1469.08 1836.74 1474.49 Q1836.74 1480.07 1833.26 1483.17 Q1829.79 1486.25 1823.47 1486.25 Q1821.3 1486.25 1819.03 1485.88 Q1816.78 1485.51 1814.38 1484.77 L1814.38 1480.07 Q1816.46 1481.2 1818.68 1481.76 Q1820.9 1482.32 1823.38 1482.32 Q1827.39 1482.32 1829.72 1480.21 Q1832.06 1478.1 1832.06 1474.49 Q1832.06 1470.88 1829.72 1468.77 Q1827.39 1466.67 1823.38 1466.67 Q1821.51 1466.67 1819.63 1467.08 Q1817.78 1467.5 1815.83 1468.38 L1815.83 1451.02 Z" fill="#000000" fill-rule="nonzero" fill-opacity="1" /><path clip-path="url(#clip030)" d="M2323.99 1481.64 L2340.31 1481.64 L2340.31 1485.58 L2318.37 1485.58 L2318.37 1481.64 Q2321.03 1478.89 2325.61 1474.26 Q2330.22 1469.61 2331.4 1468.27 Q2333.65 1465.74 2334.53 1464.01 Q2335.43 1462.25 2335.43 1460.56 Q2335.43 1457.8 2333.49 1456.07 Q2331.56 1454.33 2328.46 1454.33 Q2326.26 1454.33 2323.81 1455.09 Q2321.38 1455.86 2318.6 1457.41 L2318.6 1452.69 Q2321.43 1451.55 2323.88 1450.97 Q2326.33 1450.39 2328.37 1450.39 Q2333.74 1450.39 2336.93 1453.08 Q2340.13 1455.77 2340.13 1460.26 Q2340.13 1462.39 2339.32 1464.31 Q2338.53 1466.2 2336.42 1468.8 Q2335.85 1469.47 2332.74 1472.69 Q2329.64 1475.88 2323.99 1481.64 Z" fill="#000000" fill-rule="nonzero" fill-opacity="1" /><path clip-path="url(#clip030)" d="M2350.13 1479.7 L2355.01 1479.7 L2355.01 1485.58 L2350.13 1485.58 L2350.13 1479.7 Z" fill="#000000" fill-rule="nonzero" fill-opacity="1" /><path clip-path="url(#clip030)" d="M2375.2 1454.1 Q2371.59 1454.1 2369.76 1457.66 Q2367.95 1461.2 2367.95 1468.33 Q2367.95 1475.44 2369.76 1479.01 Q2371.59 1482.55 2375.2 1482.55 Q2378.83 1482.55 2380.64 1479.01 Q2382.47 1475.44 2382.47 1468.33 Q2382.47 1461.2 2380.64 1457.66 Q2378.83 1454.1 2375.2 1454.1 M2375.2 1450.39 Q2381.01 1450.39 2384.06 1455 Q2387.14 1459.58 2387.14 1468.33 Q2387.14 1477.06 2384.06 1481.67 Q2381.01 1486.25 2375.2 1486.25 Q2369.39 1486.25 2366.31 1481.67 Q2363.25 1477.06 2363.25 1468.33 Q2363.25 1459.58 2366.31 1455 Q2369.39 1450.39 2375.2 1450.39 Z" fill="#000000" fill-rule="nonzero" fill-opacity="1" /><path clip-path="url(#clip030)" d="M1253.74 1522.27 L1253.74 1532.4 L1265.8 1532.4 L1265.8 1536.95 L1253.74 1536.95 L1253.74 1556.3 Q1253.74 1560.66 1254.92 1561.9 Q1256.13 1563.14 1259.79 1563.14 L1265.8 1563.14 L1265.8 1568.04 L1259.79 1568.04 Q1253.01 1568.04 1250.43 1565.53 Q1247.85 1562.98 1247.85 1556.3 L1247.85 1536.95 L1243.55 1536.95 L1243.55 1532.4 L1247.85 1532.4 L1247.85 1522.27 L1253.74 1522.27 Z" fill="#000000" fill-rule="nonzero" fill-opacity="1" /><polyline clip-path="url(#clip030)" style="stroke:#000000; stroke-linecap:round; stroke-linejoin:round; stroke-width:4; stroke-opacity:1; fill:none" points="156.598,1423.18 156.598,47.2441 "/>
<polyline clip-path="url(#clip030)" style="stroke:#000000; stroke-linecap:round; stroke-linejoin:round; stroke-width:4; stroke-opacity:1; fill:none" points="156.598,1143.43 175.496,1143.43 "/>
<polyline clip-path="url(#clip030)" style="stroke:#000000; stroke-linecap:round; stroke-linejoin:round; stroke-width:4; stroke-opacity:1; fill:none" points="156.598,861.585 175.496,861.585 "/>
<polyline clip-path="url(#clip030)" style="stroke:#000000; stroke-linecap:round; stroke-linejoin:round; stroke-width:4; stroke-opacity:1; fill:none" points="156.598,579.738 175.496,579.738 "/>
<polyline clip-path="url(#clip030)" style="stroke:#000000; stroke-linecap:round; stroke-linejoin:round; stroke-width:4; stroke-opacity:1; fill:none" points="156.598,297.891 175.496,297.891 "/>
<path clip-path="url(#clip030)" d="M65.0198 1129.23 Q61.4087 1129.23 59.58 1132.8 Q57.7745 1136.34 57.7745 1143.47 Q57.7745 1150.57 59.58 1154.14 Q61.4087 1157.68 65.0198 1157.68 Q68.6541 1157.68 70.4596 1154.14 Q72.2883 1150.57 72.2883 1143.47 Q72.2883 1136.34 70.4596 1132.8 Q68.6541 1129.23 65.0198 1129.23 M65.0198 1125.53 Q70.83 1125.53 73.8855 1130.13 Q76.9642 1134.72 76.9642 1143.47 Q76.9642 1152.19 73.8855 1156.8 Q70.83 1161.38 65.0198 1161.38 Q59.2097 1161.38 56.131 1156.8 Q53.0754 1152.19 53.0754 1143.47 Q53.0754 1134.72 56.131 1130.13 Q59.2097 1125.53 65.0198 1125.53 Z" fill="#000000" fill-rule="nonzero" fill-opacity="1" /><path clip-path="url(#clip030)" d="M85.1818 1154.83 L90.066 1154.83 L90.066 1160.71 L85.1818 1160.71 L85.1818 1154.83 Z" fill="#000000" fill-rule="nonzero" fill-opacity="1" /><path clip-path="url(#clip030)" d="M104.279 1156.78 L120.598 1156.78 L120.598 1160.71 L98.6539 1160.71 L98.6539 1156.78 Q101.316 1154.02 105.899 1149.39 Q110.506 1144.74 111.686 1143.4 Q113.932 1140.87 114.811 1139.14 Q115.714 1137.38 115.714 1135.69 Q115.714 1132.93 113.77 1131.2 Q111.848 1129.46 108.746 1129.46 Q106.547 1129.46 104.094 1130.23 Q101.663 1130.99 98.8854 1132.54 L98.8854 1127.82 Q101.709 1126.69 104.163 1126.11 Q106.617 1125.53 108.654 1125.53 Q114.024 1125.53 117.219 1128.21 Q120.413 1130.9 120.413 1135.39 Q120.413 1137.52 119.603 1139.44 Q118.816 1141.34 116.709 1143.93 Q116.131 1144.6 113.029 1147.82 Q109.927 1151.01 104.279 1156.78 Z" fill="#000000" fill-rule="nonzero" fill-opacity="1" /><path clip-path="url(#clip030)" d="M62.9365 847.384 Q59.3254 847.384 57.4967 850.949 Q55.6912 854.49 55.6912 861.62 Q55.6912 868.726 57.4967 872.291 Q59.3254 875.833 62.9365 875.833 Q66.5707 875.833 68.3763 872.291 Q70.205 868.726 70.205 861.62 Q70.205 854.49 68.3763 850.949 Q66.5707 847.384 62.9365 847.384 M62.9365 843.68 Q68.7467 843.68 71.8022 848.287 Q74.8809 852.87 74.8809 861.62 Q74.8809 870.347 71.8022 874.953 Q68.7467 879.537 62.9365 879.537 Q57.1264 879.537 54.0477 874.953 Q50.9921 870.347 50.9921 861.62 Q50.9921 852.87 54.0477 848.287 Q57.1264 843.68 62.9365 843.68 Z" fill="#000000" fill-rule="nonzero" fill-opacity="1" /><path clip-path="url(#clip030)" d="M83.0984 872.986 L87.9827 872.986 L87.9827 878.865 L83.0984 878.865 L83.0984 872.986 Z" fill="#000000" fill-rule="nonzero" fill-opacity="1" /><path clip-path="url(#clip030)" d="M111.015 848.379 L99.2095 866.828 L111.015 866.828 L111.015 848.379 M109.788 844.305 L115.668 844.305 L115.668 866.828 L120.598 866.828 L120.598 870.717 L115.668 870.717 L115.668 878.865 L111.015 878.865 L111.015 870.717 L95.4132 870.717 L95.4132 866.203 L109.788 844.305 Z" fill="#000000" fill-rule="nonzero" fill-opacity="1" /><path clip-path="url(#clip030)" d="M63.2606 565.537 Q59.6495 565.537 57.8208 569.101 Q56.0152 572.643 56.0152 579.773 Q56.0152 586.879 57.8208 590.444 Q59.6495 593.986 63.2606 593.986 Q66.8948 593.986 68.7004 590.444 Q70.5291 586.879 70.5291 579.773 Q70.5291 572.643 68.7004 569.101 Q66.8948 565.537 63.2606 565.537 M63.2606 561.833 Q69.0707 561.833 72.1263 566.439 Q75.205 571.023 75.205 579.773 Q75.205 588.499 72.1263 593.106 Q69.0707 597.689 63.2606 597.689 Q57.4504 597.689 54.3717 593.106 Q51.3162 588.499 51.3162 579.773 Q51.3162 571.023 54.3717 566.439 Q57.4504 561.833 63.2606 561.833 Z" fill="#000000" fill-rule="nonzero" fill-opacity="1" /><path clip-path="url(#clip030)" d="M83.4225 591.138 L88.3067 591.138 L88.3067 597.018 L83.4225 597.018 L83.4225 591.138 Z" fill="#000000" fill-rule="nonzero" fill-opacity="1" /><path clip-path="url(#clip030)" d="M109.071 577.874 Q105.922 577.874 104.071 580.027 Q102.242 582.18 102.242 585.93 Q102.242 589.657 104.071 591.833 Q105.922 593.986 109.071 593.986 Q112.219 593.986 114.047 591.833 Q115.899 589.657 115.899 585.93 Q115.899 582.18 114.047 580.027 Q112.219 577.874 109.071 577.874 M118.353 563.222 L118.353 567.481 Q116.594 566.648 114.788 566.208 Q113.006 565.768 111.246 565.768 Q106.617 565.768 104.163 568.893 Q101.733 572.018 101.385 578.337 Q102.751 576.324 104.811 575.259 Q106.871 574.171 109.348 574.171 Q114.557 574.171 117.566 577.342 Q120.598 580.49 120.598 585.93 Q120.598 591.254 117.45 594.472 Q114.302 597.689 109.071 597.689 Q103.075 597.689 99.9039 593.106 Q96.7326 588.499 96.7326 579.773 Q96.7326 571.578 100.621 566.717 Q104.51 561.833 111.061 561.833 Q112.82 561.833 114.603 562.18 Q116.408 562.527 118.353 563.222 Z" fill="#000000" fill-rule="nonzero" fill-opacity="1" /><path clip-path="url(#clip030)" d="M63.5152 283.689 Q59.9041 283.689 58.0754 287.254 Q56.2699 290.796 56.2699 297.925 Q56.2699 305.032 58.0754 308.597 Q59.9041 312.138 63.5152 312.138 Q67.1494 312.138 68.955 308.597 Q70.7837 305.032 70.7837 297.925 Q70.7837 290.796 68.955 287.254 Q67.1494 283.689 63.5152 283.689 M63.5152 279.986 Q69.3254 279.986 72.3809 284.592 Q75.4596 289.175 75.4596 297.925 Q75.4596 306.652 72.3809 311.259 Q69.3254 315.842 63.5152 315.842 Q57.7051 315.842 54.6264 311.259 Q51.5708 306.652 51.5708 297.925 Q51.5708 289.175 54.6264 284.592 Q57.7051 279.986 63.5152 279.986 Z" fill="#000000" fill-rule="nonzero" fill-opacity="1" /><path clip-path="url(#clip030)" d="M83.6771 309.291 L88.5614 309.291 L88.5614 315.171 L83.6771 315.171 L83.6771 309.291 Z" fill="#000000" fill-rule="nonzero" fill-opacity="1" /><path clip-path="url(#clip030)" d="M108.746 298.759 Q105.413 298.759 103.492 300.541 Q101.594 302.323 101.594 305.448 Q101.594 308.573 103.492 310.356 Q105.413 312.138 108.746 312.138 Q112.08 312.138 114.001 310.356 Q115.922 308.55 115.922 305.448 Q115.922 302.323 114.001 300.541 Q112.103 298.759 108.746 298.759 M104.071 296.768 Q101.061 296.027 99.3715 293.967 Q97.7048 291.907 97.7048 288.944 Q97.7048 284.8 100.645 282.393 Q103.608 279.986 108.746 279.986 Q113.908 279.986 116.848 282.393 Q119.788 284.8 119.788 288.944 Q119.788 291.907 118.098 293.967 Q116.432 296.027 113.445 296.768 Q116.825 297.555 118.7 299.847 Q120.598 302.138 120.598 305.448 Q120.598 310.472 117.52 313.157 Q114.464 315.842 108.746 315.842 Q103.029 315.842 99.9502 313.157 Q96.8947 310.472 96.8947 305.448 Q96.8947 302.138 98.7928 299.847 Q100.691 297.555 104.071 296.768 M102.358 289.384 Q102.358 292.069 104.024 293.573 Q105.714 295.078 108.746 295.078 Q111.756 295.078 113.445 293.573 Q115.158 292.069 115.158 289.384 Q115.158 286.698 113.445 285.194 Q111.756 283.689 108.746 283.689 Q105.714 283.689 104.024 285.194 Q102.358 286.698 102.358 289.384 Z" fill="#000000" fill-rule="nonzero" fill-opacity="1" /><polyline clip-path="url(#clip032)" style="stroke:#009af9; stroke-linecap:round; stroke-linejoin:round; stroke-width:4; stroke-opacity:1; fill:none" points="156.598,987.829 158.797,991.774 160.995,995.68 163.193,999.547 165.392,1003.37 167.59,1007.17 169.788,1010.92 171.987,1014.63 174.185,1018.31 176.383,1021.95 178.582,1025.56 180.78,1029.13 182.979,1032.66 185.177,1036.16 187.375,1039.62 189.574,1043.05 191.772,1046.45 193.97,1049.81 196.169,1053.14 198.367,1056.43 200.565,1059.69 202.764,1062.92 204.962,1066.12 207.16,1069.28 209.359,1072.42 211.557,1075.52 213.755,1078.59 215.954,1081.63 218.152,1084.64 220.351,1087.62 222.549,1090.58 224.747,1093.5 226.946,1096.39 229.144,1099.25 231.342,1102.09 233.541,1104.9 235.739,1107.68 237.937,1110.43 240.136,1113.15 242.334,1115.85 244.532,1118.52 246.731,1121.16 248.929,1123.78 251.128,1126.37 253.326,1128.93 255.524,1131.47 257.723,1133.99 259.921,1136.48 262.119,1138.94 264.318,1141.38 266.516,1143.8 268.714,1146.19 270.913,1148.56 273.111,1150.9 275.309,1153.22 277.508,1155.52 279.706,1157.79 281.905,1160.05 284.103,1162.28 286.301,1164.48 288.5,1166.67 290.698,1168.83 292.896,1170.98 295.095,1173.1 297.293,1175.2 299.491,1177.28 301.69,1179.33 303.888,1181.37 306.086,1183.39 308.285,1185.39 310.483,1187.36 312.682,1189.32 314.88,1191.26 317.078,1193.18 319.277,1195.08 321.475,1196.96 323.673,1198.82 325.872,1200.66 328.07,1202.49 330.268,1204.3 332.467,1206.09 334.665,1207.86 336.863,1209.61 339.062,1211.35 341.26,1213.07 343.458,1214.77 345.657,1216.45 347.855,1218.12 350.054,1219.77 352.252,1221.41 354.45,1223.02 356.649,1224.63 358.847,1226.21 361.045,1227.78 363.244,1229.34 365.442,1230.88 367.64,1232.4 369.839,1233.91 372.037,1235.41 374.235,1236.89 376.434,1238.35 378.632,1239.8 380.831,1241.24 383.029,1242.66 385.227,1244.06 387.426,1245.46 389.624,1246.84 391.822,1248.2 394.021,1249.55 396.219,1250.89 398.417,1252.22 400.616,1253.53 402.814,1254.83 405.012,1256.11 407.211,1257.38 409.409,1258.64 411.608,1259.89 413.806,1261.13 416.004,1262.35 418.203,1263.56 420.401,1264.76 422.599,1265.95 424.798,1267.12 426.996,1268.29 429.194,1269.44 431.393,1270.58 433.591,1271.71 435.789,1272.82 437.988,1273.93 440.186,1275.03 442.385,1276.11 444.583,1277.18 446.781,1278.25 448.98,1279.3 451.178,1280.34 453.376,1281.37 455.575,1282.4 457.773,1283.41 459.971,1284.41 462.17,1285.4 464.368,1286.38 466.566,1287.35 468.765,1288.31 470.963,1289.27 473.162,1290.21 475.36,1291.14 477.558,1292.07 479.757,1292.98 481.955,1293.89 484.153,1294.78 486.352,1295.67 488.55,1296.55 490.748,1297.42 492.947,1298.28 495.145,1299.13 497.343,1299.98 499.542,1300.81 501.74,1301.64 503.938,1302.46 506.137,1303.27 508.335,1304.08 510.534,1304.87 512.732,1305.66 514.93,1306.44 517.129,1307.21 519.327,1307.97 521.525,1308.73 523.724,1309.48 525.922,1310.22 528.12,1310.95 530.319,1311.68 532.517,1312.4 534.715,1313.11 536.914,1313.82 539.112,1314.52 541.311,1315.21 543.509,1315.89 545.707,1316.57 547.906,1317.24 550.104,1317.9 552.302,1318.56 554.501,1319.21 556.699,1319.86 558.897,1320.5 561.096,1321.13 563.294,1321.75 565.492,1322.37 567.691,1322.98 569.889,1323.59 572.088,1324.19 574.286,1324.79 576.484,1325.38 578.683,1325.96 580.881,1326.54 583.079,1327.11 585.278,1327.67 587.476,1328.23 589.674,1328.79 591.873,1329.34 594.071,1329.88 596.269,1330.42 598.468,1330.95 600.666,1331.48 602.865,1332 605.063,1332.52 607.261,1333.03 609.46,1333.54 611.658,1334.04 613.856,1334.54 616.055,1335.03 618.253,1335.51 620.451,1336 622.65,1336.47 624.848,1336.95 627.046,1337.41 629.245,1337.88 631.443,1338.34 633.641,1338.79 635.84,1339.24 638.038,1339.68 640.237,1340.13 642.435,1340.56 644.633,1340.99 646.832,1341.42 649.03,1341.84 651.228,1342.26 653.427,1342.68 655.625,1343.09 657.823,1343.5 660.022,1343.9 662.22,1344.3 664.418,1344.69 666.617,1345.08 668.815,1345.47 671.014,1345.85 673.212,1346.23 675.41,1346.61 677.609,1346.98 679.807,1347.35 682.005,1347.71 684.204,1348.07 686.402,1348.43 688.6,1348.78 690.799,1349.13 692.997,1349.48 695.195,1349.82 697.394,1350.16 699.592,1350.5 701.791,1350.83 703.989,1351.16 706.187,1351.49 708.386,1351.81 710.584,1352.13 712.782,1352.44 714.981,1352.76 717.179,1353.07 719.377,1353.38 721.576,1353.68 723.774,1353.98 725.972,1354.28 728.171,1354.57 730.369,1354.87 732.568,1355.16 734.766,1355.44 736.964,1355.73 739.163,1356.01 741.361,1356.28 743.559,1356.56 745.758,1356.83 747.956,1357.1 750.154,1357.37 752.353,1357.63 754.551,1357.9 756.749,1358.15 758.948,1358.41 761.146,1358.67 763.344,1358.92 765.543,1359.17 767.741,1359.41 769.94,1359.66 772.138,1359.9 774.336,1360.14 776.535,1360.37 778.733,1360.61 780.931,1360.84 783.13,1361.07 785.328,1361.3 787.526,1361.52 789.725,1361.75 791.923,1361.97 794.121,1362.19 796.32,1362.4 798.518,1362.62 800.717,1362.83 802.915,1363.04 805.113,1363.25 807.312,1363.45 809.51,1363.66 811.708,1363.86 813.907,1364.06 816.105,1364.26 818.303,1364.45 820.502,1364.65 822.7,1364.84 824.898,1365.03 827.097,1365.22 829.295,1365.4 831.494,1365.59 833.692,1365.77 835.89,1365.95 838.089,1366.13 840.287,1366.31 842.485,1366.48 844.684,1366.65 846.882,1366.83 849.08,1367 851.279,1367.17 853.477,1367.33 855.675,1367.5 857.874,1367.66 860.072,1367.82 862.271,1367.98 864.469,1368.14 866.667,1368.3 868.866,1368.45 871.064,1368.61 873.262,1368.76 875.461,1368.91 877.659,1369.06 879.857,1369.21 882.056,1369.36 884.254,1369.5 886.452,1369.64 888.651,1369.79 890.849,1369.93 893.048,1370.07 895.246,1370.2 897.444,1370.34 899.643,1370.48 901.841,1370.61 904.039,1370.74 906.238,1370.87 908.436,1371 910.634,1371.13 912.833,1371.26 915.031,1371.39 917.229,1371.51 919.428,1371.63 921.626,1371.76 923.824,1371.88 926.023,1372 928.221,1372.12 930.42,1372.23 932.618,1372.35 934.816,1372.47 937.015,1372.58 939.213,1372.69 941.411,1372.8 943.61,1372.92 945.808,1373.03 948.006,1373.13 950.205,1373.24 952.403,1373.35 954.601,1373.45 956.8,1373.56 958.998,1373.66 961.197,1373.76 963.395,1373.86 965.593,1373.96 967.792,1374.06 969.99,1374.16 972.188,1374.26 974.387,1374.35 976.585,1374.45 978.783,1374.54 980.982,1374.64 983.18,1374.73 985.378,1374.82 987.577,1374.91 989.775,1375 991.974,1375.09 994.172,1375.18 996.37,1375.26 998.569,1375.35 1000.77,1375.44 1002.97,1375.52 1005.16,1375.6 1007.36,1375.69 1009.56,1375.77 1011.76,1375.85 1013.96,1375.93 1016.16,1376.01 1018.35,1376.09 1020.55,1376.17 1022.75,1376.24 1024.95,1376.32 1027.15,1376.4 1029.35,1376.47 1031.54,1376.54 1033.74,1376.62 1035.94,1376.69 1038.14,1376.76 1040.34,1376.83 1042.54,1376.9 1044.73,1376.97 1046.93,1377.04 1049.13,1377.11 1051.33,1377.18 1053.53,1377.25 1055.73,1377.31 1057.92,1377.38 1060.12,1377.44 1062.32,1377.51 1064.52,1377.57 1066.72,1377.64 1068.92,1377.7 1071.11,1377.76 1073.31,1377.82 1075.51,1377.88 1077.71,1377.94 1079.91,1378 1082.11,1378.06 1084.3,1378.12 1086.5,1378.18 1088.7,1378.23 1090.9,1378.29 1093.1,1378.35 1095.3,1378.4 1097.49,1378.46 1099.69,1378.51 1101.89,1378.57 1104.09,1378.62 1106.29,1378.67 1108.49,1378.72 1110.68,1378.78 1112.88,1378.83 1115.08,1378.88 1117.28,1378.93 1119.48,1378.98 1121.68,1379.03 1123.87,1379.08 1126.07,1379.12 1128.27,1379.17 1130.47,1379.22 1132.67,1379.27 1134.87,1379.31 1137.07,1379.36 1139.26,1379.4 1141.46,1379.45 1143.66,1379.49 1145.86,1379.54 1148.06,1379.58 1150.26,1379.62 1152.45,1379.67 1154.65,1379.71 1156.85,1379.75 1159.05,1379.79 1161.25,1379.83 1163.45,1379.87 1165.64,1379.91 1167.84,1379.95 1170.04,1379.99 1172.24,1380.03 1174.44,1380.07 1176.64,1380.11 1178.83,1380.15 1181.03,1380.18 1183.23,1380.22 1185.43,1380.26 1187.63,1380.29 1189.83,1380.33 1192.02,1380.37 1194.22,1380.4 1196.42,1380.44 1198.62,1380.47 1200.82,1380.51 1203.02,1380.54 1205.21,1380.57 1207.41,1380.61 1209.61,1380.64 1211.81,1380.67 1214.01,1380.7 1216.21,1380.74 1218.4,1380.77 1220.6,1380.8 1222.8,1380.83 1225,1380.86 1227.2,1380.89 1229.4,1380.92 1231.59,1380.95 1233.79,1380.98 1235.99,1381.01 1238.19,1381.04 1240.39,1381.07 1242.59,1381.1 1244.78,1381.12 1246.98,1381.15 1249.18,1381.18 1251.38,1381.21 1253.58,1381.23 1255.78,1381.26 1257.97,1381.29 1260.17,1381.31 1262.37,1381.34 1264.57,1381.37 1266.77,1381.39 1268.97,1381.42 1271.16,1381.44 1273.36,1381.47 1275.56,1381.49 1277.76,1381.51 1279.96,1381.54 1282.16,1381.56 1284.35,1381.59 1286.55,1381.61 1288.75,1381.63 1290.95,1381.65 1293.15,1381.68 1295.35,1381.7 1297.55,1381.72 1299.74,1381.74 1301.94,1381.76 1304.14,1381.79 1306.34,1381.81 1308.54,1381.83 1310.74,1381.85 1312.93,1381.87 1315.13,1381.89 1317.33,1381.91 1319.53,1381.93 1321.73,1381.95 1323.93,1381.97 1326.12,1381.99 1328.32,1382.01 1330.52,1382.03 1332.72,1382.05 1334.92,1382.06 1337.12,1382.08 1339.31,1382.1 1341.51,1382.12 1343.71,1382.14 1345.91,1382.15 1348.11,1382.17 1350.31,1382.19 1352.5,1382.21 1354.7,1382.22 1356.9,1382.24 1359.1,1382.26 1361.3,1382.27 1363.5,1382.29 1365.69,1382.31 1367.89,1382.32 1370.09,1382.34 1372.29,1382.35 1374.49,1382.37 1376.69,1382.39 1378.88,1382.4 1381.08,1382.42 1383.28,1382.43 1385.48,1382.45 1387.68,1382.46 1389.88,1382.47 1392.07,1382.49 1394.27,1382.5 1396.47,1382.52 1398.67,1382.53 1400.87,1382.54 1403.07,1382.56 1405.26,1382.57 1407.46,1382.59 1409.66,1382.6 1411.86,1382.61 1414.06,1382.62 1416.26,1382.64 1418.45,1382.65 1420.65,1382.66 1422.85,1382.68 1425.05,1382.69 1427.25,1382.7 1429.45,1382.71 1431.64,1382.72 1433.84,1382.74 1436.04,1382.75 1438.24,1382.76 1440.44,1382.77 1442.64,1382.78 1444.83,1382.79 1447.03,1382.81 1449.23,1382.82 1451.43,1382.83 1453.63,1382.84 1455.83,1382.85 1458.03,1382.86 1460.22,1382.87 1462.42,1382.88 1464.62,1382.89 1466.82,1382.9 1469.02,1382.91 1471.22,1382.92 1473.41,1382.93 1475.61,1382.94 1477.81,1382.95 1480.01,1382.96 1482.21,1382.97 1484.41,1382.98 1486.6,1382.99 1488.8,1383 1491,1383.01 1493.2,1383.02 1495.4,1383.02 1497.6,1383.03 1499.79,1383.04 1501.99,1383.05 1504.19,1383.06 1506.39,1383.07 1508.59,1383.08 1510.79,1383.09 1512.98,1383.09 1515.18,1383.1 1517.38,1383.11 1519.58,1383.12 1521.78,1383.13 1523.98,1383.13 1526.17,1383.14 1528.37,1383.15 1530.57,1383.16 1532.77,1383.16 1534.97,1383.17 1537.17,1383.18 1539.36,1383.19 1541.56,1383.19 1543.76,1383.2 1545.96,1383.21 1548.16,1383.22 1550.36,1383.22 1552.55,1383.23 1554.75,1383.24 1556.95,1383.24 1559.15,1383.25 1561.35,1383.26 1563.55,1383.26 1565.74,1383.27 1567.94,1383.28 1570.14,1383.28 1572.34,1383.29 1574.54,1383.29 1576.74,1383.3 1578.93,1383.31 1581.13,1383.31 1583.33,1383.32 1585.53,1383.32 1587.73,1383.33 1589.93,1383.34 1592.12,1383.34 1594.32,1383.35 1596.52,1383.35 1598.72,1383.36 1600.92,1383.36 1603.12,1383.37 1605.31,1383.38 1607.51,1383.38 1609.71,1383.39 1611.91,1383.39 1614.11,1383.4 1616.31,1383.4 1618.5,1383.41 1620.7,1383.41 1622.9,1383.42 1625.1,1383.42 1627.3,1383.43 1629.5,1383.43 1631.7,1383.44 1633.89,1383.44 1636.09,1383.45 1638.29,1383.45 1640.49,1383.46 1642.69,1383.46 1644.89,1383.47 1647.08,1383.47 1649.28,1383.47 1651.48,1383.48 1653.68,1383.48 1655.88,1383.49 1658.08,1383.49 1660.27,1383.5 1662.47,1383.5 1664.67,1383.5 1666.87,1383.51 1669.07,1383.51 1671.27,1383.52 1673.46,1383.52 1675.66,1383.52 1677.86,1383.53 1680.06,1383.53 1682.26,1383.54 1684.46,1383.54 1686.65,1383.54 1688.85,1383.55 1691.05,1383.55 1693.25,1383.55 1695.45,1383.56 1697.65,1383.56 1699.84,1383.57 1702.04,1383.57 1704.24,1383.57 1706.44,1383.58 1708.64,1383.58 1710.84,1383.58 1713.03,1383.59 1715.23,1383.59 1717.43,1383.59 1719.63,1383.6 1721.83,1383.6 1724.03,1383.6 1726.22,1383.6 1728.42,1383.61 1730.62,1383.61 1732.82,1383.61 1735.02,1383.62 1737.22,1383.62 1739.41,1383.62 1741.61,1383.63 1743.81,1383.63 1746.01,1383.63 1748.21,1383.63 1750.41,1383.64 1752.6,1383.64 1754.8,1383.64 1757,1383.65 1759.2,1383.65 1761.4,1383.65 1763.6,1383.65 1765.79,1383.66 1767.99,1383.66 1770.19,1383.66 1772.39,1383.66 1774.59,1383.67 1776.79,1383.67 1778.98,1383.67 1781.18,1383.67 1783.38,1383.68 1785.58,1383.68 1787.78,1383.68 1789.98,1383.68 1792.18,1383.69 1794.37,1383.69 1796.57,1383.69 1798.77,1383.69 1800.97,1383.69 1803.17,1383.7 1805.37,1383.7 1807.56,1383.7 1809.76,1383.7 1811.96,1383.71 1814.16,1383.71 1816.36,1383.71 1818.56,1383.71 1820.75,1383.71 1822.95,1383.72 1825.15,1383.72 1827.35,1383.72 1829.55,1383.72 1831.75,1383.72 1833.94,1383.73 1836.14,1383.73 1838.34,1383.73 1840.54,1383.73 1842.74,1383.73 1844.94,1383.74 1847.13,1383.74 1849.33,1383.74 1851.53,1383.74 1853.73,1383.74 1855.93,1383.74 1858.13,1383.75 1860.32,1383.75 1862.52,1383.75 1864.72,1383.75 1866.92,1383.75 1869.12,1383.75 1871.32,1383.76 1873.51,1383.76 1875.71,1383.76 1877.91,1383.76 1880.11,1383.76 1882.31,1383.76 1884.51,1383.77 1886.7,1383.77 1888.9,1383.77 1891.1,1383.77 1893.3,1383.77 1895.5,1383.77 1897.7,1383.77 1899.89,1383.78 1902.09,1383.78 1904.29,1383.78 1906.49,1383.78 1908.69,1383.78 1910.89,1383.78 1913.08,1383.78 1915.28,1383.78 1917.48,1383.79 1919.68,1383.79 1921.88,1383.79 1924.08,1383.79 1926.27,1383.79 1928.47,1383.79 1930.67,1383.79 1932.87,1383.8 1935.07,1383.8 1937.27,1383.8 1939.46,1383.8 1941.66,1383.8 1943.86,1383.8 1946.06,1383.8 1948.26,1383.8 1950.46,1383.8 1952.66,1383.81 1954.85,1383.81 1957.05,1383.81 1959.25,1383.81 1961.45,1383.81 1963.65,1383.81 1965.85,1383.81 1968.04,1383.81 1970.24,1383.81 1972.44,1383.81 1974.64,1383.82 1976.84,1383.82 1979.04,1383.82 1981.23,1383.82 1983.43,1383.82 1985.63,1383.82 1987.83,1383.82 1990.03,1383.82 1992.23,1383.82 1994.42,1383.82 1996.62,1383.83 1998.82,1383.83 2001.02,1383.83 2003.22,1383.83 2005.42,1383.83 2007.61,1383.83 2009.81,1383.83 2012.01,1383.83 2014.21,1383.83 2016.41,1383.83 2018.61,1383.83 2020.8,1383.84 2023,1383.84 2025.2,1383.84 2027.4,1383.84 2029.6,1383.84 2031.8,1383.84 2033.99,1383.84 2036.19,1383.84 2038.39,1383.84 2040.59,1383.84 2042.79,1383.84 2044.99,1383.84 2047.18,1383.84 2049.38,1383.85 2051.58,1383.85 2053.78,1383.85 2055.98,1383.85 2058.18,1383.85 2060.37,1383.85 2062.57,1383.85 2064.77,1383.85 2066.97,1383.85 2069.17,1383.85 2071.37,1383.85 2073.56,1383.85 2075.76,1383.85 2077.96,1383.85 2080.16,1383.85 2082.36,1383.86 2084.56,1383.86 2086.75,1383.86 2088.95,1383.86 2091.15,1383.86 2093.35,1383.86 2095.55,1383.86 2097.75,1383.86 2099.94,1383.86 2102.14,1383.86 2104.34,1383.86 2106.54,1383.86 2108.74,1383.86 2110.94,1383.86 2113.14,1383.86 2115.33,1383.86 2117.53,1383.86 2119.73,1383.86 2121.93,1383.87 2124.13,1383.87 2126.33,1383.87 2128.52,1383.87 2130.72,1383.87 2132.92,1383.87 2135.12,1383.87 2137.32,1383.87 2139.52,1383.87 2141.71,1383.87 2143.91,1383.87 2146.11,1383.87 2148.31,1383.87 2150.51,1383.87 2152.71,1383.87 2154.9,1383.87 2157.1,1383.87 2159.3,1383.87 2161.5,1383.87 2163.7,1383.87 2165.9,1383.87 2168.09,1383.88 2170.29,1383.88 2172.49,1383.88 2174.69,1383.88 2176.89,1383.88 2179.09,1383.88 2181.28,1383.88 2183.48,1383.88 2185.68,1383.88 2187.88,1383.88 2190.08,1383.88 2192.28,1383.88 2194.47,1383.88 2196.67,1383.88 2198.87,1383.88 2201.07,1383.88 2203.27,1383.88 2205.47,1383.88 2207.66,1383.88 2209.86,1383.88 2212.06,1383.88 2214.26,1383.88 2216.46,1383.88 2218.66,1383.88 2220.85,1383.88 2223.05,1383.88 2225.25,1383.88 2227.45,1383.88 2229.65,1383.89 2231.85,1383.89 2234.04,1383.89 2236.24,1383.89 2238.44,1383.89 2240.64,1383.89 2242.84,1383.89 2245.04,1383.89 2247.23,1383.89 2249.43,1383.89 2251.63,1383.89 2253.83,1383.89 2256.03,1383.89 2258.23,1383.89 2260.42,1383.89 2262.62,1383.89 2264.82,1383.89 2267.02,1383.89 2269.22,1383.89 2271.42,1383.89 2273.62,1383.89 2275.81,1383.89 2278.01,1383.89 2280.21,1383.89 2282.41,1383.89 2284.61,1383.89 2286.81,1383.89 2289,1383.89 2291.2,1383.89 2293.4,1383.89 2295.6,1383.89 2297.8,1383.89 2300,1383.89 2302.19,1383.89 2304.39,1383.89 2306.59,1383.89 2308.79,1383.89 2310.99,1383.89 2313.19,1383.9 2315.38,1383.9 2317.58,1383.9 2319.78,1383.9 2321.98,1383.9 2324.18,1383.9 2326.38,1383.9 2328.57,1383.9 2330.77,1383.9 2332.97,1383.9 2335.17,1383.9 2337.37,1383.9 2339.57,1383.9 2341.76,1383.9 2343.96,1383.9 2346.16,1383.9 2348.36,1383.9 2350.56,1383.9 2352.76,1383.9 "/>
<polyline clip-path="url(#clip032)" style="stroke:#e26f46; stroke-linecap:round; stroke-linejoin:round; stroke-width:4; stroke-opacity:1; fill:none" points="156.598,86.1857 158.797,99.4919 160.995,112.663 163.193,125.701 165.392,138.607 167.59,151.382 169.788,164.028 171.987,176.545 174.185,188.936 176.383,201.201 178.582,213.341 180.78,225.359 182.979,237.254 185.177,249.029 187.375,260.685 189.574,272.223 191.772,283.643 193.97,294.948 196.169,306.137 198.367,317.214 200.565,328.178 202.764,339.031 204.962,349.774 207.16,360.407 209.359,370.933 211.557,381.352 213.755,391.665 215.954,401.874 218.152,411.979 220.351,421.981 222.549,431.882 224.747,441.683 226.946,451.383 229.144,460.986 231.342,470.49 233.541,479.898 235.739,489.211 237.937,498.429 240.136,507.553 242.334,516.585 244.532,525.525 246.731,534.374 248.929,543.133 251.128,551.803 253.326,560.385 255.524,568.88 257.723,577.288 259.921,585.611 262.119,593.849 264.318,602.003 266.516,610.075 268.714,618.064 270.913,625.973 273.111,633.8 275.309,641.549 277.508,649.218 279.706,656.809 281.905,664.323 284.103,671.761 286.301,679.123 288.5,686.41 290.698,693.623 292.896,700.762 295.095,707.829 297.293,714.823 299.491,721.747 301.69,728.6 303.888,735.383 306.086,742.097 308.285,748.742 310.483,755.32 312.682,761.831 314.88,768.275 317.078,774.654 319.277,780.968 321.475,787.217 323.673,793.403 325.872,799.526 328.07,805.586 330.268,811.585 332.467,817.522 334.665,823.399 336.863,829.216 339.062,834.973 341.26,840.672 343.458,846.313 345.657,851.896 347.855,857.422 350.054,862.892 352.252,868.306 354.45,873.664 356.649,878.968 358.847,884.218 361.045,889.414 363.244,894.558 365.442,899.648 367.64,904.687 369.839,909.674 372.037,914.61 374.235,919.495 376.434,924.331 378.632,929.117 380.831,933.855 383.029,938.544 385.227,943.185 387.426,947.778 389.624,952.325 391.822,956.825 394.021,961.279 396.219,965.687 398.417,970.05 400.616,974.369 402.814,978.644 405.012,982.874 407.211,987.062 409.409,991.207 411.608,995.309 413.806,999.369 416.004,1003.39 418.203,1007.37 420.401,1011.3 422.599,1015.2 424.798,1019.06 426.996,1022.87 429.194,1026.65 431.393,1030.39 433.591,1034.09 435.789,1037.75 437.988,1041.38 440.186,1044.97 442.385,1048.52 444.583,1052.03 446.781,1055.51 448.98,1058.96 451.178,1062.36 453.376,1065.74 455.575,1069.08 457.773,1072.38 459.971,1075.65 462.17,1078.89 464.368,1082.09 466.566,1085.26 468.765,1088.4 470.963,1091.5 473.162,1094.58 475.36,1097.62 477.558,1100.63 479.757,1103.61 481.955,1106.56 484.153,1109.48 486.352,1112.37 488.55,1115.23 490.748,1118.06 492.947,1120.86 495.145,1123.63 497.343,1126.37 499.542,1129.09 501.74,1131.77 503.938,1134.43 506.137,1137.07 508.335,1139.67 510.534,1142.25 512.732,1144.8 514.93,1147.33 517.129,1149.83 519.327,1152.3 521.525,1154.75 523.724,1157.17 525.922,1159.57 528.12,1161.94 530.319,1164.29 532.517,1166.62 534.715,1168.92 536.914,1171.19 539.112,1173.45 541.311,1175.68 543.509,1177.89 545.707,1180.07 547.906,1182.23 550.104,1184.37 552.302,1186.49 554.501,1188.59 556.699,1190.66 558.897,1192.71 561.096,1194.74 563.294,1196.75 565.492,1198.74 567.691,1200.71 569.889,1202.66 572.088,1204.59 574.286,1206.5 576.484,1208.39 578.683,1210.25 580.881,1212.1 583.079,1213.93 585.278,1215.75 587.476,1217.54 589.674,1219.31 591.873,1221.07 594.071,1222.81 596.269,1224.53 598.468,1226.23 600.666,1227.91 602.865,1229.58 605.063,1231.23 607.261,1232.86 609.46,1234.48 611.658,1236.08 613.856,1237.66 616.055,1239.22 618.253,1240.77 620.451,1242.31 622.65,1243.83 624.848,1245.33 627.046,1246.81 629.245,1248.28 631.443,1249.74 633.641,1251.18 635.84,1252.61 638.038,1254.02 640.237,1255.41 642.435,1256.79 644.633,1258.16 646.832,1259.52 649.03,1260.85 651.228,1262.18 653.427,1263.49 655.625,1264.79 657.823,1266.07 660.022,1267.34 662.22,1268.6 664.418,1269.84 666.617,1271.08 668.815,1272.29 671.014,1273.5 673.212,1274.69 675.41,1275.87 677.609,1277.04 679.807,1278.2 682.005,1279.34 684.204,1280.48 686.402,1281.6 688.6,1282.7 690.799,1283.8 692.997,1284.89 695.195,1285.96 697.394,1287.02 699.592,1288.08 701.791,1289.12 703.989,1290.15 706.187,1291.17 708.386,1292.17 710.584,1293.17 712.782,1294.16 714.981,1295.14 717.179,1296.1 719.377,1297.06 721.576,1298.01 723.774,1298.94 725.972,1299.87 728.171,1300.79 730.369,1301.7 732.568,1302.59 734.766,1303.48 736.964,1304.36 739.163,1305.23 741.361,1306.09 743.559,1306.95 745.758,1307.79 747.956,1308.62 750.154,1309.45 752.353,1310.27 754.551,1311.07 756.749,1311.87 758.948,1312.67 761.146,1313.45 763.344,1314.22 765.543,1314.99 767.741,1315.75 769.94,1316.5 772.138,1317.24 774.336,1317.98 776.535,1318.71 778.733,1319.43 780.931,1320.14 783.13,1320.84 785.328,1321.54 787.526,1322.23 789.725,1322.91 791.923,1323.59 794.121,1324.25 796.32,1324.92 798.518,1325.57 800.717,1326.22 802.915,1326.86 805.113,1327.49 807.312,1328.12 809.51,1328.74 811.708,1329.35 813.907,1329.96 816.105,1330.56 818.303,1331.15 820.502,1331.74 822.7,1332.32 824.898,1332.9 827.097,1333.47 829.295,1334.03 831.494,1334.59 833.692,1335.14 835.89,1335.69 838.089,1336.23 840.287,1336.76 842.485,1337.29 844.684,1337.81 846.882,1338.33 849.08,1338.84 851.279,1339.35 853.477,1339.85 855.675,1340.34 857.874,1340.83 860.072,1341.32 862.271,1341.8 864.469,1342.27 866.667,1342.74 868.866,1343.21 871.064,1343.67 873.262,1344.12 875.461,1344.57 877.659,1345.02 879.857,1345.46 882.056,1345.89 884.254,1346.32 886.452,1346.75 888.651,1347.17 890.849,1347.59 893.048,1348 895.246,1348.41 897.444,1348.82 899.643,1349.22 901.841,1349.61 904.039,1350 906.238,1350.39 908.436,1350.77 910.634,1351.15 912.833,1351.53 915.031,1351.9 917.229,1352.27 919.428,1352.63 921.626,1352.99 923.824,1353.34 926.023,1353.69 928.221,1354.04 930.42,1354.39 932.618,1354.73 934.816,1355.06 937.015,1355.4 939.213,1355.72 941.411,1356.05 943.61,1356.37 945.808,1356.69 948.006,1357.01 950.205,1357.32 952.403,1357.63 954.601,1357.93 956.8,1358.23 958.998,1358.53 961.197,1358.83 963.395,1359.12 965.593,1359.41 967.792,1359.69 969.99,1359.98 972.188,1360.26 974.387,1360.53 976.585,1360.81 978.783,1361.08 980.982,1361.35 983.18,1361.61 985.378,1361.87 987.577,1362.13 989.775,1362.39 991.974,1362.64 994.172,1362.89 996.37,1363.14 998.569,1363.38 1000.77,1363.63 1002.97,1363.87 1005.16,1364.1 1007.36,1364.34 1009.56,1364.57 1011.76,1364.8 1013.96,1365.03 1016.16,1365.25 1018.35,1365.47 1020.55,1365.69 1022.75,1365.91 1024.95,1366.13 1027.15,1366.34 1029.35,1366.55 1031.54,1366.76 1033.74,1366.96 1035.94,1367.17 1038.14,1367.37 1040.34,1367.57 1042.54,1367.76 1044.73,1367.96 1046.93,1368.15 1049.13,1368.34 1051.33,1368.53 1053.53,1368.72 1055.73,1368.9 1057.92,1369.08 1060.12,1369.26 1062.32,1369.44 1064.52,1369.62 1066.72,1369.79 1068.92,1369.97 1071.11,1370.14 1073.31,1370.3 1075.51,1370.47 1077.71,1370.64 1079.91,1370.8 1082.11,1370.96 1084.3,1371.12 1086.5,1371.28 1088.7,1371.43 1090.9,1371.59 1093.1,1371.74 1095.3,1371.89 1097.49,1372.04 1099.69,1372.19 1101.89,1372.33 1104.09,1372.48 1106.29,1372.62 1108.49,1372.76 1110.68,1372.9 1112.88,1373.04 1115.08,1373.17 1117.28,1373.31 1119.48,1373.44 1121.68,1373.57 1123.87,1373.7 1126.07,1373.83 1128.27,1373.96 1130.47,1374.09 1132.67,1374.21 1134.87,1374.33 1137.07,1374.46 1139.26,1374.58 1141.46,1374.7 1143.66,1374.81 1145.86,1374.93 1148.06,1375.04 1150.26,1375.16 1152.45,1375.27 1154.65,1375.38 1156.85,1375.49 1159.05,1375.6 1161.25,1375.71 1163.45,1375.81 1165.64,1375.92 1167.84,1376.02 1170.04,1376.12 1172.24,1376.23 1174.44,1376.33 1176.64,1376.42 1178.83,1376.52 1181.03,1376.62 1183.23,1376.72 1185.43,1376.81 1187.63,1376.9 1189.83,1377 1192.02,1377.09 1194.22,1377.18 1196.42,1377.27 1198.62,1377.36 1200.82,1377.44 1203.02,1377.53 1205.21,1377.62 1207.41,1377.7 1209.61,1377.78 1211.81,1377.87 1214.01,1377.95 1216.21,1378.03 1218.4,1378.11 1220.6,1378.19 1222.8,1378.27 1225,1378.34 1227.2,1378.42 1229.4,1378.49 1231.59,1378.57 1233.79,1378.64 1235.99,1378.71 1238.19,1378.79 1240.39,1378.86 1242.59,1378.93 1244.78,1379 1246.98,1379.07 1249.18,1379.13 1251.38,1379.2 1253.58,1379.27 1255.78,1379.33 1257.97,1379.4 1260.17,1379.46 1262.37,1379.52 1264.57,1379.59 1266.77,1379.65 1268.97,1379.71 1271.16,1379.77 1273.36,1379.83 1275.56,1379.89 1277.76,1379.94 1279.96,1380 1282.16,1380.06 1284.35,1380.11 1286.55,1380.17 1288.75,1380.22 1290.95,1380.28 1293.15,1380.33 1295.35,1380.38 1297.55,1380.44 1299.74,1380.49 1301.94,1380.54 1304.14,1380.59 1306.34,1380.64 1308.54,1380.69 1310.74,1380.74 1312.93,1380.78 1315.13,1380.83 1317.33,1380.88 1319.53,1380.92 1321.73,1380.97 1323.93,1381.02 1326.12,1381.06 1328.32,1381.1 1330.52,1381.15 1332.72,1381.19 1334.92,1381.23 1337.12,1381.27 1339.31,1381.32 1341.51,1381.36 1343.71,1381.4 1345.91,1381.44 1348.11,1381.48 1350.31,1381.52 1352.5,1381.55 1354.7,1381.59 1356.9,1381.63 1359.1,1381.67 1361.3,1381.7 1363.5,1381.74 1365.69,1381.77 1367.89,1381.81 1370.09,1381.85 1372.29,1381.88 1374.49,1381.91 1376.69,1381.95 1378.88,1381.98 1381.08,1382.01 1383.28,1382.05 1385.48,1382.08 1387.68,1382.11 1389.88,1382.14 1392.07,1382.17 1394.27,1382.2 1396.47,1382.23 1398.67,1382.26 1400.87,1382.29 1403.07,1382.32 1405.26,1382.35 1407.46,1382.38 1409.66,1382.4 1411.86,1382.43 1414.06,1382.46 1416.26,1382.49 1418.45,1382.51 1420.65,1382.54 1422.85,1382.56 1425.05,1382.59 1427.25,1382.61 1429.45,1382.64 1431.64,1382.66 1433.84,1382.69 1436.04,1382.71 1438.24,1382.74 1440.44,1382.76 1442.64,1382.78 1444.83,1382.8 1447.03,1382.83 1449.23,1382.85 1451.43,1382.87 1453.63,1382.89 1455.83,1382.91 1458.03,1382.93 1460.22,1382.96 1462.42,1382.98 1464.62,1383 1466.82,1383.02 1469.02,1383.04 1471.22,1383.05 1473.41,1383.07 1475.61,1383.09 1477.81,1383.11 1480.01,1383.13 1482.21,1383.15 1484.41,1383.17 1486.6,1383.18 1488.8,1383.2 1491,1383.22 1493.2,1383.23 1495.4,1383.25 1497.6,1383.27 1499.79,1383.28 1501.99,1383.3 1504.19,1383.32 1506.39,1383.33 1508.59,1383.35 1510.79,1383.36 1512.98,1383.38 1515.18,1383.39 1517.38,1383.41 1519.58,1383.42 1521.78,1383.43 1523.98,1383.45 1526.17,1383.46 1528.37,1383.47 1530.57,1383.49 1532.77,1383.5 1534.97,1383.51 1537.17,1383.53 1539.36,1383.54 1541.56,1383.55 1543.76,1383.56 1545.96,1383.58 1548.16,1383.59 1550.36,1383.6 1552.55,1383.61 1554.75,1383.62 1556.95,1383.63 1559.15,1383.65 1561.35,1383.66 1563.55,1383.67 1565.74,1383.68 1567.94,1383.69 1570.14,1383.7 1572.34,1383.71 1574.54,1383.72 1576.74,1383.73 1578.93,1383.74 1581.13,1383.75 1583.33,1383.76 1585.53,1383.77 1587.73,1383.78 1589.93,1383.79 1592.12,1383.79 1594.32,1383.8 1596.52,1383.81 1598.72,1383.82 1600.92,1383.83 1603.12,1383.84 1605.31,1383.84 1607.51,1383.85 1609.71,1383.86 1611.91,1383.87 1614.11,1383.88 1616.31,1383.88 1618.5,1383.89 1620.7,1383.9 1622.9,1383.91 1625.1,1383.91 1627.3,1383.92 1629.5,1383.93 1631.7,1383.93 1633.89,1383.94 1636.09,1383.95 1638.29,1383.95 1640.49,1383.96 1642.69,1383.97 1644.89,1383.97 1647.08,1383.98 1649.28,1383.98 1651.48,1383.99 1653.68,1383.99 1655.88,1384 1658.08,1384.01 1660.27,1384.01 1662.47,1384.02 1664.67,1384.02 1666.87,1384.03 1669.07,1384.03 1671.27,1384.04 1673.46,1384.04 1675.66,1384.05 1677.86,1384.05 1680.06,1384.06 1682.26,1384.06 1684.46,1384.06 1686.65,1384.07 1688.85,1384.07 1691.05,1384.08 1693.25,1384.08 1695.45,1384.09 1697.65,1384.09 1699.84,1384.09 1702.04,1384.1 1704.24,1384.1 1706.44,1384.1 1708.64,1384.11 1710.84,1384.11 1713.03,1384.12 1715.23,1384.12 1717.43,1384.12 1719.63,1384.13 1721.83,1384.13 1724.03,1384.13 1726.22,1384.14 1728.42,1384.14 1730.62,1384.14 1732.82,1384.14 1735.02,1384.15 1737.22,1384.15 1739.41,1384.15 1741.61,1384.16 1743.81,1384.16 1746.01,1384.16 1748.21,1384.16 1750.41,1384.17 1752.6,1384.17 1754.8,1384.17 1757,1384.17 1759.2,1384.17 1761.4,1384.18 1763.6,1384.18 1765.79,1384.18 1767.99,1384.18 1770.19,1384.19 1772.39,1384.19 1774.59,1384.19 1776.79,1384.19 1778.98,1384.19 1781.18,1384.19 1783.38,1384.2 1785.58,1384.2 1787.78,1384.2 1789.98,1384.2 1792.18,1384.2 1794.37,1384.2 1796.57,1384.21 1798.77,1384.21 1800.97,1384.21 1803.17,1384.21 1805.37,1384.21 1807.56,1384.21 1809.76,1384.21 1811.96,1384.22 1814.16,1384.22 1816.36,1384.22 1818.56,1384.22 1820.75,1384.22 1822.95,1384.22 1825.15,1384.22 1827.35,1384.22 1829.55,1384.22 1831.75,1384.22 1833.94,1384.23 1836.14,1384.23 1838.34,1384.23 1840.54,1384.23 1842.74,1384.23 1844.94,1384.23 1847.13,1384.23 1849.33,1384.23 1851.53,1384.23 1853.73,1384.23 1855.93,1384.23 1858.13,1384.23 1860.32,1384.23 1862.52,1384.23 1864.72,1384.23 1866.92,1384.23 1869.12,1384.24 1871.32,1384.24 1873.51,1384.24 1875.71,1384.24 1877.91,1384.24 1880.11,1384.24 1882.31,1384.24 1884.51,1384.24 1886.7,1384.24 1888.9,1384.24 1891.1,1384.24 1893.3,1384.24 1895.5,1384.24 1897.7,1384.24 1899.89,1384.24 1902.09,1384.24 1904.29,1384.24 1906.49,1384.24 1908.69,1384.24 1910.89,1384.24 1913.08,1384.24 1915.28,1384.24 1917.48,1384.24 1919.68,1384.24 1921.88,1384.24 1924.08,1384.24 1926.27,1384.24 1928.47,1384.24 1930.67,1384.24 1932.87,1384.24 1935.07,1384.24 1937.27,1384.24 1939.46,1384.24 1941.66,1384.24 1943.86,1384.24 1946.06,1384.24 1948.26,1384.23 1950.46,1384.23 1952.66,1384.23 1954.85,1384.23 1957.05,1384.23 1959.25,1384.23 1961.45,1384.23 1963.65,1384.23 1965.85,1384.23 1968.04,1384.23 1970.24,1384.23 1972.44,1384.23 1974.64,1384.23 1976.84,1384.23 1979.04,1384.23 1981.23,1384.23 1983.43,1384.23 1985.63,1384.23 1987.83,1384.23 1990.03,1384.23 1992.23,1384.23 1994.42,1384.23 1996.62,1384.22 1998.82,1384.22 2001.02,1384.22 2003.22,1384.22 2005.42,1384.22 2007.61,1384.22 2009.81,1384.22 2012.01,1384.22 2014.21,1384.22 2016.41,1384.22 2018.61,1384.22 2020.8,1384.22 2023,1384.22 2025.2,1384.22 2027.4,1384.22 2029.6,1384.22 2031.8,1384.21 2033.99,1384.21 2036.19,1384.21 2038.39,1384.21 2040.59,1384.21 2042.79,1384.21 2044.99,1384.21 2047.18,1384.21 2049.38,1384.21 2051.58,1384.21 2053.78,1384.21 2055.98,1384.21 2058.18,1384.21 2060.37,1384.21 2062.57,1384.2 2064.77,1384.2 2066.97,1384.2 2069.17,1384.2 2071.37,1384.2 2073.56,1384.2 2075.76,1384.2 2077.96,1384.2 2080.16,1384.2 2082.36,1384.2 2084.56,1384.2 2086.75,1384.2 2088.95,1384.19 2091.15,1384.19 2093.35,1384.19 2095.55,1384.19 2097.75,1384.19 2099.94,1384.19 2102.14,1384.19 2104.34,1384.19 2106.54,1384.19 2108.74,1384.19 2110.94,1384.19 2113.14,1384.19 2115.33,1384.18 2117.53,1384.18 2119.73,1384.18 2121.93,1384.18 2124.13,1384.18 2126.33,1384.18 2128.52,1384.18 2130.72,1384.18 2132.92,1384.18 2135.12,1384.18 2137.32,1384.18 2139.52,1384.18 2141.71,1384.17 2143.91,1384.17 2146.11,1384.17 2148.31,1384.17 2150.51,1384.17 2152.71,1384.17 2154.9,1384.17 2157.1,1384.17 2159.3,1384.17 2161.5,1384.17 2163.7,1384.17 2165.9,1384.16 2168.09,1384.16 2170.29,1384.16 2172.49,1384.16 2174.69,1384.16 2176.89,1384.16 2179.09,1384.16 2181.28,1384.16 2183.48,1384.16 2185.68,1384.16 2187.88,1384.16 2190.08,1384.15 2192.28,1384.15 2194.47,1384.15 2196.67,1384.15 2198.87,1384.15 2201.07,1384.15 2203.27,1384.15 2205.47,1384.15 2207.66,1384.15 2209.86,1384.15 2212.06,1384.15 2214.26,1384.14 2216.46,1384.14 2218.66,1384.14 2220.85,1384.14 2223.05,1384.14 2225.25,1384.14 2227.45,1384.14 2229.65,1384.14 2231.85,1384.14 2234.04,1384.14 2236.24,1384.14 2238.44,1384.13 2240.64,1384.13 2242.84,1384.13 2245.04,1384.13 2247.23,1384.13 2249.43,1384.13 2251.63,1384.13 2253.83,1384.13 2256.03,1384.13 2258.23,1384.13 2260.42,1384.13 2262.62,1384.12 2264.82,1384.12 2267.02,1384.12 2269.22,1384.12 2271.42,1384.12 2273.62,1384.12 2275.81,1384.12 2278.01,1384.12 2280.21,1384.12 2282.41,1384.12 2284.61,1384.12 2286.81,1384.12 2289,1384.11 2291.2,1384.11 2293.4,1384.11 2295.6,1384.11 2297.8,1384.11 2300,1384.11 2302.19,1384.11 2304.39,1384.11 2306.59,1384.11 2308.79,1384.11 2310.99,1384.11 2313.19,1384.11 2315.38,1384.1 2317.58,1384.1 2319.78,1384.1 2321.98,1384.1 2324.18,1384.1 2326.38,1384.1 2328.57,1384.1 2330.77,1384.1 2332.97,1384.1 2335.17,1384.1 2337.37,1384.1 2339.57,1384.1 2341.76,1384.09 2343.96,1384.09 2346.16,1384.09 2348.36,1384.09 2350.56,1384.09 2352.76,1384.09 "/>
<path clip-path="url(#clip030)" d="M1800.54 248.629 L2279.55 248.629 L2279.55 93.1086 L1800.54 93.1086  Z" fill="#ffffff" fill-rule="evenodd" fill-opacity="1"/>
<polyline clip-path="url(#clip030)" style="stroke:#000000; stroke-linecap:round; stroke-linejoin:round; stroke-width:4; stroke-opacity:1; fill:none" points="1800.54,248.629 2279.55,248.629 2279.55,93.1086 1800.54,93.1086 1800.54,248.629 "/>
<polyline clip-path="url(#clip030)" style="stroke:#009af9; stroke-linecap:round; stroke-linejoin:round; stroke-width:4; stroke-opacity:1; fill:none" points="1824.94,144.949 1971.35,144.949 "/>
<path clip-path="url(#clip030)" d="M1995.75 136.303 L2000.27 136.303 L2008.37 158.062 L2016.47 136.303 L2020.98 136.303 L2011.26 162.229 L2005.47 162.229 L1995.75 136.303 Z" fill="#000000" fill-rule="nonzero" fill-opacity="1" /><path clip-path="url(#clip030)" d="M2028.28 158.293 L2035.91 158.293 L2035.91 131.928 L2027.6 133.595 L2027.6 129.335 L2035.87 127.669 L2040.54 127.669 L2040.54 158.293 L2048.18 158.293 L2048.18 162.229 L2028.28 162.229 L2028.28 158.293 Z" fill="#000000" fill-rule="nonzero" fill-opacity="1" /><path clip-path="url(#clip030)" d="M2066.28 145.585 L2066.28 152.807 L2074.41 152.807 L2074.41 155.006 L2066.28 155.006 L2066.28 162.229 L2063.85 162.229 L2063.85 155.006 L2055.73 155.006 L2055.73 152.807 L2063.85 152.807 L2063.85 145.585 L2066.28 145.585 Z" fill="#000000" fill-rule="nonzero" fill-opacity="1" /><path clip-path="url(#clip030)" d="M2098.58 137.067 L2098.58 141.094 Q2096.77 140.169 2094.83 139.706 Q2092.88 139.243 2090.8 139.243 Q2087.63 139.243 2086.03 140.215 Q2084.46 141.187 2084.46 143.131 Q2084.46 144.613 2085.59 145.469 Q2086.72 146.303 2090.15 147.067 L2091.61 147.391 Q2096.15 148.363 2098.04 150.145 Q2099.96 151.905 2099.96 155.076 Q2099.96 158.687 2097.09 160.793 Q2094.25 162.9 2089.25 162.9 Q2087.16 162.9 2084.9 162.483 Q2082.65 162.09 2080.15 161.28 L2080.15 156.881 Q2082.51 158.108 2084.8 158.733 Q2087.09 159.335 2089.34 159.335 Q2092.35 159.335 2093.97 158.317 Q2095.59 157.275 2095.59 155.4 Q2095.59 153.664 2094.41 152.738 Q2093.25 151.812 2089.29 150.956 L2087.81 150.608 Q2083.85 149.775 2082.09 148.062 Q2080.34 146.326 2080.34 143.317 Q2080.34 139.659 2082.93 137.669 Q2085.52 135.678 2090.29 135.678 Q2092.65 135.678 2094.73 136.025 Q2096.82 136.372 2098.58 137.067 Z" fill="#000000" fill-rule="nonzero" fill-opacity="1" /><path clip-path="url(#clip030)" d="M2110.96 128.942 L2110.96 136.303 L2119.73 136.303 L2119.73 139.613 L2110.96 139.613 L2110.96 153.687 Q2110.96 156.858 2111.82 157.761 Q2112.7 158.664 2115.36 158.664 L2119.73 158.664 L2119.73 162.229 L2115.36 162.229 Q2110.43 162.229 2108.55 160.4 Q2106.68 158.548 2106.68 153.687 L2106.68 139.613 L2103.55 139.613 L2103.55 136.303 L2106.68 136.303 L2106.68 128.942 L2110.96 128.942 Z" fill="#000000" fill-rule="nonzero" fill-opacity="1" /><path clip-path="url(#clip030)" d="M2135.38 139.289 Q2131.96 139.289 2129.96 141.974 Q2127.97 144.636 2127.97 149.289 Q2127.97 153.942 2129.94 156.627 Q2131.93 159.289 2135.38 159.289 Q2138.78 159.289 2140.77 156.604 Q2142.77 153.918 2142.77 149.289 Q2142.77 144.682 2140.77 141.997 Q2138.78 139.289 2135.38 139.289 M2135.38 135.678 Q2140.94 135.678 2144.11 139.289 Q2147.28 142.9 2147.28 149.289 Q2147.28 155.655 2144.11 159.289 Q2140.94 162.9 2135.38 162.9 Q2129.8 162.9 2126.63 159.289 Q2123.48 155.655 2123.48 149.289 Q2123.48 142.9 2126.63 139.289 Q2129.8 135.678 2135.38 135.678 Z" fill="#000000" fill-rule="nonzero" fill-opacity="1" /><path clip-path="url(#clip030)" d="M2169.36 140.284 Q2168.64 139.868 2167.79 139.682 Q2166.95 139.474 2165.94 139.474 Q2162.33 139.474 2160.38 141.835 Q2158.46 144.173 2158.46 148.571 L2158.46 162.229 L2154.18 162.229 L2154.18 136.303 L2158.46 136.303 L2158.46 140.331 Q2159.8 137.969 2161.95 136.835 Q2164.11 135.678 2167.19 135.678 Q2167.63 135.678 2168.16 135.747 Q2168.69 135.794 2169.34 135.909 L2169.36 140.284 Z" fill="#000000" fill-rule="nonzero" fill-opacity="1" /><path clip-path="url(#clip030)" d="M2185.61 149.196 Q2180.45 149.196 2178.46 150.377 Q2176.47 151.557 2176.47 154.405 Q2176.47 156.673 2177.95 158.016 Q2179.45 159.335 2182.02 159.335 Q2185.57 159.335 2187.7 156.835 Q2189.85 154.312 2189.85 150.145 L2189.85 149.196 L2185.61 149.196 M2194.11 147.437 L2194.11 162.229 L2189.85 162.229 L2189.85 158.293 Q2188.39 160.655 2186.21 161.789 Q2184.04 162.9 2180.89 162.9 Q2176.91 162.9 2174.55 160.678 Q2172.21 158.432 2172.21 154.682 Q2172.21 150.307 2175.13 148.085 Q2178.07 145.863 2183.88 145.863 L2189.85 145.863 L2189.85 145.446 Q2189.85 142.507 2187.9 140.909 Q2185.98 139.289 2182.49 139.289 Q2180.27 139.289 2178.16 139.821 Q2176.05 140.354 2174.11 141.419 L2174.11 137.483 Q2176.45 136.581 2178.64 136.141 Q2180.84 135.678 2182.93 135.678 Q2188.55 135.678 2191.33 138.594 Q2194.11 141.511 2194.11 147.437 Z" fill="#000000" fill-rule="nonzero" fill-opacity="1" /><path clip-path="url(#clip030)" d="M2219.94 148.965 Q2219.94 144.335 2218.02 141.789 Q2216.12 139.243 2212.67 139.243 Q2209.25 139.243 2207.33 141.789 Q2205.43 144.335 2205.43 148.965 Q2205.43 153.571 2207.33 156.118 Q2209.25 158.664 2212.67 158.664 Q2216.12 158.664 2218.02 156.118 Q2219.94 153.571 2219.94 148.965 M2224.2 159.011 Q2224.2 165.631 2221.26 168.849 Q2218.32 172.09 2212.26 172.09 Q2210.01 172.09 2208.02 171.742 Q2206.03 171.418 2204.15 170.724 L2204.15 166.58 Q2206.03 167.599 2207.86 168.085 Q2209.69 168.571 2211.58 168.571 Q2215.77 168.571 2217.86 166.372 Q2219.94 164.196 2219.94 159.775 L2219.94 157.668 Q2218.62 159.96 2216.56 161.094 Q2214.5 162.229 2211.63 162.229 Q2206.86 162.229 2203.95 158.594 Q2201.03 154.96 2201.03 148.965 Q2201.03 142.946 2203.95 139.312 Q2206.86 135.678 2211.63 135.678 Q2214.5 135.678 2216.56 136.812 Q2218.62 137.946 2219.94 140.238 L2219.94 136.303 L2224.2 136.303 L2224.2 159.011 Z" fill="#000000" fill-rule="nonzero" fill-opacity="1" /><path clip-path="url(#clip030)" d="M2255.15 148.201 L2255.15 150.284 L2235.57 150.284 Q2235.84 154.682 2238.2 156.997 Q2240.59 159.289 2244.82 159.289 Q2247.28 159.289 2249.57 158.687 Q2251.89 158.085 2254.15 156.881 L2254.15 160.909 Q2251.86 161.881 2249.45 162.391 Q2247.05 162.9 2244.57 162.9 Q2238.37 162.9 2234.73 159.289 Q2231.12 155.678 2231.12 149.52 Q2231.12 143.155 2234.55 139.428 Q2238 135.678 2243.83 135.678 Q2249.06 135.678 2252.09 139.057 Q2255.15 142.414 2255.15 148.201 M2250.89 146.951 Q2250.84 143.456 2248.92 141.372 Q2247.02 139.289 2243.88 139.289 Q2240.31 139.289 2238.16 141.303 Q2236.03 143.317 2235.7 146.974 L2250.89 146.951 Z" fill="#000000" fill-rule="nonzero" fill-opacity="1" /><polyline clip-path="url(#clip030)" style="stroke:#e26f46; stroke-linecap:round; stroke-linejoin:round; stroke-width:4; stroke-opacity:1; fill:none" points="1824.94,196.789 1971.35,196.789 "/>
<path clip-path="url(#clip030)" d="M1995.75 188.143 L2000.27 188.143 L2008.37 209.902 L2016.47 188.143 L2020.98 188.143 L2011.26 214.069 L2005.47 214.069 L1995.75 188.143 Z" fill="#000000" fill-rule="nonzero" fill-opacity="1" /><path clip-path="url(#clip030)" d="M2027.51 179.509 L2045.87 179.509 L2045.87 183.444 L2031.79 183.444 L2031.79 191.916 Q2032.81 191.569 2033.83 191.407 Q2034.85 191.222 2035.87 191.222 Q2041.65 191.222 2045.03 194.393 Q2048.41 197.564 2048.41 202.981 Q2048.41 208.559 2044.94 211.661 Q2041.47 214.74 2035.15 214.74 Q2032.97 214.74 2030.71 214.37 Q2028.46 213.999 2026.05 213.258 L2026.05 208.559 Q2028.14 209.694 2030.36 210.249 Q2032.58 210.805 2035.06 210.805 Q2039.06 210.805 2041.4 208.698 Q2043.74 206.592 2043.74 202.981 Q2043.74 199.37 2041.4 197.263 Q2039.06 195.157 2035.06 195.157 Q2033.18 195.157 2031.31 195.573 Q2029.46 195.99 2027.51 196.87 L2027.51 179.509 Z" fill="#000000" fill-rule="nonzero" fill-opacity="1" /><path clip-path="url(#clip030)" d="M2066.28 197.425 L2066.28 204.647 L2074.41 204.647 L2074.41 206.846 L2066.28 206.846 L2066.28 214.069 L2063.85 214.069 L2063.85 206.846 L2055.73 206.846 L2055.73 204.647 L2063.85 204.647 L2063.85 197.425 L2066.28 197.425 Z" fill="#000000" fill-rule="nonzero" fill-opacity="1" /><path clip-path="url(#clip030)" d="M2098.58 188.907 L2098.58 192.934 Q2096.77 192.009 2094.83 191.546 Q2092.88 191.083 2090.8 191.083 Q2087.63 191.083 2086.03 192.055 Q2084.46 193.027 2084.46 194.971 Q2084.46 196.453 2085.59 197.309 Q2086.72 198.143 2090.15 198.907 L2091.61 199.231 Q2096.15 200.203 2098.04 201.985 Q2099.96 203.745 2099.96 206.916 Q2099.96 210.527 2097.09 212.633 Q2094.25 214.74 2089.25 214.74 Q2087.16 214.74 2084.9 214.323 Q2082.65 213.93 2080.15 213.12 L2080.15 208.721 Q2082.51 209.948 2084.8 210.573 Q2087.09 211.175 2089.34 211.175 Q2092.35 211.175 2093.97 210.157 Q2095.59 209.115 2095.59 207.24 Q2095.59 205.504 2094.41 204.578 Q2093.25 203.652 2089.29 202.796 L2087.81 202.448 Q2083.85 201.615 2082.09 199.902 Q2080.34 198.166 2080.34 195.157 Q2080.34 191.499 2082.93 189.509 Q2085.52 187.518 2090.29 187.518 Q2092.65 187.518 2094.73 187.865 Q2096.82 188.212 2098.58 188.907 Z" fill="#000000" fill-rule="nonzero" fill-opacity="1" /><path clip-path="url(#clip030)" d="M2110.96 180.782 L2110.96 188.143 L2119.73 188.143 L2119.73 191.453 L2110.96 191.453 L2110.96 205.527 Q2110.96 208.698 2111.82 209.601 Q2112.7 210.504 2115.36 210.504 L2119.73 210.504 L2119.73 214.069 L2115.36 214.069 Q2110.43 214.069 2108.55 212.24 Q2106.68 210.388 2106.68 205.527 L2106.68 191.453 L2103.55 191.453 L2103.55 188.143 L2106.68 188.143 L2106.68 180.782 L2110.96 180.782 Z" fill="#000000" fill-rule="nonzero" fill-opacity="1" /><path clip-path="url(#clip030)" d="M2135.38 191.129 Q2131.96 191.129 2129.96 193.814 Q2127.97 196.476 2127.97 201.129 Q2127.97 205.782 2129.94 208.467 Q2131.93 211.129 2135.38 211.129 Q2138.78 211.129 2140.77 208.444 Q2142.77 205.758 2142.77 201.129 Q2142.77 196.522 2140.77 193.837 Q2138.78 191.129 2135.38 191.129 M2135.38 187.518 Q2140.94 187.518 2144.11 191.129 Q2147.28 194.74 2147.28 201.129 Q2147.28 207.495 2144.11 211.129 Q2140.94 214.74 2135.38 214.74 Q2129.8 214.74 2126.63 211.129 Q2123.48 207.495 2123.48 201.129 Q2123.48 194.74 2126.63 191.129 Q2129.8 187.518 2135.38 187.518 Z" fill="#000000" fill-rule="nonzero" fill-opacity="1" /><path clip-path="url(#clip030)" d="M2169.36 192.124 Q2168.64 191.708 2167.79 191.522 Q2166.95 191.314 2165.94 191.314 Q2162.33 191.314 2160.38 193.675 Q2158.46 196.013 2158.46 200.411 L2158.46 214.069 L2154.18 214.069 L2154.18 188.143 L2158.46 188.143 L2158.46 192.171 Q2159.8 189.809 2161.95 188.675 Q2164.11 187.518 2167.19 187.518 Q2167.63 187.518 2168.16 187.587 Q2168.69 187.634 2169.34 187.749 L2169.36 192.124 Z" fill="#000000" fill-rule="nonzero" fill-opacity="1" /><path clip-path="url(#clip030)" d="M2185.61 201.036 Q2180.45 201.036 2178.46 202.217 Q2176.47 203.397 2176.47 206.245 Q2176.47 208.513 2177.95 209.856 Q2179.45 211.175 2182.02 211.175 Q2185.57 211.175 2187.7 208.675 Q2189.85 206.152 2189.85 201.985 L2189.85 201.036 L2185.61 201.036 M2194.11 199.277 L2194.11 214.069 L2189.85 214.069 L2189.85 210.133 Q2188.39 212.495 2186.21 213.629 Q2184.04 214.74 2180.89 214.74 Q2176.91 214.74 2174.55 212.518 Q2172.21 210.272 2172.21 206.522 Q2172.21 202.147 2175.13 199.925 Q2178.07 197.703 2183.88 197.703 L2189.85 197.703 L2189.85 197.286 Q2189.85 194.347 2187.9 192.749 Q2185.98 191.129 2182.49 191.129 Q2180.27 191.129 2178.16 191.661 Q2176.05 192.194 2174.11 193.259 L2174.11 189.323 Q2176.45 188.421 2178.64 187.981 Q2180.84 187.518 2182.93 187.518 Q2188.55 187.518 2191.33 190.434 Q2194.11 193.351 2194.11 199.277 Z" fill="#000000" fill-rule="nonzero" fill-opacity="1" /><path clip-path="url(#clip030)" d="M2219.94 200.805 Q2219.94 196.175 2218.02 193.629 Q2216.12 191.083 2212.67 191.083 Q2209.25 191.083 2207.33 193.629 Q2205.43 196.175 2205.43 200.805 Q2205.43 205.411 2207.33 207.958 Q2209.25 210.504 2212.67 210.504 Q2216.12 210.504 2218.02 207.958 Q2219.94 205.411 2219.94 200.805 M2224.2 210.851 Q2224.2 217.471 2221.26 220.689 Q2218.32 223.93 2212.26 223.93 Q2210.01 223.93 2208.02 223.582 Q2206.03 223.258 2204.15 222.564 L2204.15 218.42 Q2206.03 219.439 2207.86 219.925 Q2209.69 220.411 2211.58 220.411 Q2215.77 220.411 2217.86 218.212 Q2219.94 216.036 2219.94 211.615 L2219.94 209.508 Q2218.62 211.8 2216.56 212.934 Q2214.5 214.069 2211.63 214.069 Q2206.86 214.069 2203.95 210.434 Q2201.03 206.8 2201.03 200.805 Q2201.03 194.786 2203.95 191.152 Q2206.86 187.518 2211.63 187.518 Q2214.5 187.518 2216.56 188.652 Q2218.62 189.786 2219.94 192.078 L2219.94 188.143 L2224.2 188.143 L2224.2 210.851 Z" fill="#000000" fill-rule="nonzero" fill-opacity="1" /><path clip-path="url(#clip030)" d="M2255.15 200.041 L2255.15 202.124 L2235.57 202.124 Q2235.84 206.522 2238.2 208.837 Q2240.59 211.129 2244.82 211.129 Q2247.28 211.129 2249.57 210.527 Q2251.89 209.925 2254.15 208.721 L2254.15 212.749 Q2251.86 213.721 2249.45 214.231 Q2247.05 214.74 2244.57 214.74 Q2238.37 214.74 2234.73 211.129 Q2231.12 207.518 2231.12 201.36 Q2231.12 194.995 2234.55 191.268 Q2238 187.518 2243.83 187.518 Q2249.06 187.518 2252.09 190.897 Q2255.15 194.254 2255.15 200.041 M2250.89 198.791 Q2250.84 195.296 2248.92 193.212 Q2247.02 191.129 2243.88 191.129 Q2240.31 191.129 2238.16 193.143 Q2236.03 195.157 2235.7 198.814 L2250.89 198.791 Z" fill="#000000" fill-rule="nonzero" fill-opacity="1" /></svg>
