<?xml version="1.0" encoding="utf-8"?>
<svg xmlns="http://www.w3.org/2000/svg" xmlns:xlink="http://www.w3.org/1999/xlink" width="600" height="400" viewBox="0 0 2400 1600">
<defs>
  <clipPath id="clip360">
    <rect x="0" y="0" width="2400" height="1600"/>
  </clipPath>
</defs>
<path clip-path="url(#clip360)" d="M0 1600 L2400 1600 L2400 0 L0 0  Z" fill="#ffffff" fill-rule="evenodd" fill-opacity="1"/>
<defs>
  <clipPath id="clip361">
    <rect x="480" y="0" width="1681" height="1600"/>
  </clipPath>
</defs>
<path clip-path="url(#clip360)" d="M194.098 1423.18 L2352.76 1423.18 L2352.76 47.2441 L194.098 47.2441  Z" fill="#ffffff" fill-rule="evenodd" fill-opacity="1"/>
<defs>
  <clipPath id="clip362">
    <rect x="194" y="47" width="2160" height="1377"/>
  </clipPath>
</defs>
<polyline clip-path="url(#clip362)" style="stroke:#000000; stroke-linecap:round; stroke-linejoin:round; stroke-width:2; stroke-opacity:0.1; fill:none" points="194.098,1423.18 194.098,47.2441 "/>
<polyline clip-path="url(#clip362)" style="stroke:#000000; stroke-linecap:round; stroke-linejoin:round; stroke-width:2; stroke-opacity:0.1; fill:none" points="733.763,1423.18 733.763,47.2441 "/>
<polyline clip-path="url(#clip362)" style="stroke:#000000; stroke-linecap:round; stroke-linejoin:round; stroke-width:2; stroke-opacity:0.1; fill:none" points="1273.43,1423.18 1273.43,47.2441 "/>
<polyline clip-path="url(#clip362)" style="stroke:#000000; stroke-linecap:round; stroke-linejoin:round; stroke-width:2; stroke-opacity:0.1; fill:none" points="1813.09,1423.18 1813.09,47.2441 "/>
<polyline clip-path="url(#clip362)" style="stroke:#000000; stroke-linecap:round; stroke-linejoin:round; stroke-width:2; stroke-opacity:0.1; fill:none" points="2352.76,1423.18 2352.76,47.2441 "/>
<polyline clip-path="url(#clip362)" style="stroke:#000000; stroke-linecap:round; stroke-linejoin:round; stroke-width:2; stroke-opacity:0.1; fill:none" points="194.098,1251.2 2352.76,1251.2 "/>
<polyline clip-path="url(#clip362)" style="stroke:#000000; stroke-linecap:round; stroke-linejoin:round; stroke-width:2; stroke-opacity:0.1; fill:none" points="194.098,1006.4 2352.76,1006.4 "/>
<polyline clip-path="url(#clip362)" style="stroke:#000000; stroke-linecap:round; stroke-linejoin:round; stroke-width:2; stroke-opacity:0.1; fill:none" points="194.098,761.609 2352.76,761.609 "/>
<polyline clip-path="url(#clip362)" style="stroke:#000000; stroke-linecap:round; stroke-linejoin:round; stroke-width:2; stroke-opacity:0.1; fill:none" points="194.098,516.816 2352.76,516.816 "/>
<polyline clip-path="url(#clip362)" style="stroke:#000000; stroke-linecap:round; stroke-linejoin:round; stroke-width:2; stroke-opacity:0.1; fill:none" points="194.098,272.023 2352.76,272.023 "/>
<polyline clip-path="url(#clip360)" style="stroke:#000000; stroke-linecap:round; stroke-linejoin:round; stroke-width:4; stroke-opacity:1; fill:none" points="194.098,1423.18 2352.76,1423.18 "/>
<polyline clip-path="url(#clip360)" style="stroke:#000000; stroke-linecap:round; stroke-linejoin:round; stroke-width:4; stroke-opacity:1; fill:none" points="194.098,1423.18 194.098,1404.28 "/>
<polyline clip-path="url(#clip360)" style="stroke:#000000; stroke-linecap:round; stroke-linejoin:round; stroke-width:4; stroke-opacity:1; fill:none" points="733.763,1423.18 733.763,1404.28 "/>
<polyline clip-path="url(#clip360)" style="stroke:#000000; stroke-linecap:round; stroke-linejoin:round; stroke-width:4; stroke-opacity:1; fill:none" points="1273.43,1423.18 1273.43,1404.28 "/>
<polyline clip-path="url(#clip360)" style="stroke:#000000; stroke-linecap:round; stroke-linejoin:round; stroke-width:4; stroke-opacity:1; fill:none" points="1813.09,1423.18 1813.09,1404.28 "/>
<polyline clip-path="url(#clip360)" style="stroke:#000000; stroke-linecap:round; stroke-linejoin:round; stroke-width:4; stroke-opacity:1; fill:none" points="2352.76,1423.18 2352.76,1404.28 "/>
<path clip-path="url(#clip360)" d="M171.482 1454.1 Q167.871 1454.1 166.043 1457.66 Q164.237 1461.2 164.237 1468.33 Q164.237 1475.44 166.043 1479.01 Q167.871 1482.55 171.482 1482.55 Q175.117 1482.55 176.922 1479.01 Q178.751 1475.44 178.751 1468.33 Q178.751 1461.2 176.922 1457.66 Q175.117 1454.1 171.482 1454.1 M171.482 1450.39 Q177.293 1450.39 180.348 1455 Q183.427 1459.58 183.427 1468.33 Q183.427 1477.06 180.348 1481.67 Q177.293 1486.25 171.482 1486.25 Q165.672 1486.25 162.594 1481.67 Q159.538 1477.06 159.538 1468.33 Q159.538 1459.58 162.594 1455 Q165.672 1450.39 171.482 1450.39 Z" fill="#000000" fill-rule="nonzero" fill-opacity="1" /><path clip-path="url(#clip360)" d="M191.644 1479.7 L196.529 1479.7 L196.529 1485.58 L191.644 1485.58 L191.644 1479.7 Z" fill="#000000" fill-rule="nonzero" fill-opacity="1" /><path clip-path="url(#clip360)" d="M216.714 1454.1 Q213.103 1454.1 211.274 1457.66 Q209.468 1461.2 209.468 1468.33 Q209.468 1475.44 211.274 1479.01 Q213.103 1482.55 216.714 1482.55 Q220.348 1482.55 222.153 1479.01 Q223.982 1475.44 223.982 1468.33 Q223.982 1461.2 222.153 1457.66 Q220.348 1454.1 216.714 1454.1 M216.714 1450.39 Q222.524 1450.39 225.579 1455 Q228.658 1459.58 228.658 1468.33 Q228.658 1477.06 225.579 1481.67 Q222.524 1486.25 216.714 1486.25 Q210.903 1486.25 207.825 1481.67 Q204.769 1477.06 204.769 1468.33 Q204.769 1459.58 207.825 1455 Q210.903 1450.39 216.714 1450.39 Z" fill="#000000" fill-rule="nonzero" fill-opacity="1" /><path clip-path="url(#clip360)" d="M711.645 1454.1 Q708.033 1454.1 706.205 1457.66 Q704.399 1461.2 704.399 1468.33 Q704.399 1475.44 706.205 1479.01 Q708.033 1482.55 711.645 1482.55 Q715.279 1482.55 717.084 1479.01 Q718.913 1475.44 718.913 1468.33 Q718.913 1461.2 717.084 1457.66 Q715.279 1454.1 711.645 1454.1 M711.645 1450.39 Q717.455 1450.39 720.51 1455 Q723.589 1459.58 723.589 1468.33 Q723.589 1477.06 720.51 1481.67 Q717.455 1486.25 711.645 1486.25 Q705.834 1486.25 702.756 1481.67 Q699.7 1477.06 699.7 1468.33 Q699.7 1459.58 702.756 1455 Q705.834 1450.39 711.645 1450.39 Z" fill="#000000" fill-rule="nonzero" fill-opacity="1" /><path clip-path="url(#clip360)" d="M731.806 1479.7 L736.691 1479.7 L736.691 1485.58 L731.806 1485.58 L731.806 1479.7 Z" fill="#000000" fill-rule="nonzero" fill-opacity="1" /><path clip-path="url(#clip360)" d="M746.922 1451.02 L765.279 1451.02 L765.279 1454.96 L751.205 1454.96 L751.205 1463.43 Q752.223 1463.08 753.242 1462.92 Q754.26 1462.73 755.279 1462.73 Q761.066 1462.73 764.445 1465.9 Q767.825 1469.08 767.825 1474.49 Q767.825 1480.07 764.353 1483.17 Q760.88 1486.25 754.561 1486.25 Q752.385 1486.25 750.117 1485.88 Q747.871 1485.51 745.464 1484.77 L745.464 1480.07 Q747.547 1481.2 749.769 1481.76 Q751.992 1482.32 754.468 1482.32 Q758.473 1482.32 760.811 1480.21 Q763.149 1478.1 763.149 1474.49 Q763.149 1470.88 760.811 1468.77 Q758.473 1466.67 754.468 1466.67 Q752.593 1466.67 750.718 1467.08 Q748.867 1467.5 746.922 1468.38 L746.922 1451.02 Z" fill="#000000" fill-rule="nonzero" fill-opacity="1" /><path clip-path="url(#clip360)" d="M1240.58 1481.64 L1248.22 1481.64 L1248.22 1455.28 L1239.91 1456.95 L1239.91 1452.69 L1248.17 1451.02 L1252.85 1451.02 L1252.85 1481.64 L1260.49 1481.64 L1260.49 1485.58 L1240.58 1485.58 L1240.58 1481.64 Z" fill="#000000" fill-rule="nonzero" fill-opacity="1" /><path clip-path="url(#clip360)" d="M1269.93 1479.7 L1274.82 1479.7 L1274.82 1485.58 L1269.93 1485.58 L1269.93 1479.7 Z" fill="#000000" fill-rule="nonzero" fill-opacity="1" /><path clip-path="url(#clip360)" d="M1295 1454.1 Q1291.39 1454.1 1289.56 1457.66 Q1287.76 1461.2 1287.76 1468.33 Q1287.76 1475.44 1289.56 1479.01 Q1291.39 1482.55 1295 1482.55 Q1298.64 1482.55 1300.44 1479.01 Q1302.27 1475.44 1302.27 1468.33 Q1302.27 1461.2 1300.44 1457.66 Q1298.64 1454.1 1295 1454.1 M1295 1450.39 Q1300.81 1450.39 1303.87 1455 Q1306.95 1459.58 1306.95 1468.33 Q1306.95 1477.06 1303.87 1481.67 Q1300.81 1486.25 1295 1486.25 Q1289.19 1486.25 1286.11 1481.67 Q1283.06 1477.06 1283.06 1468.33 Q1283.06 1459.58 1286.11 1455 Q1289.19 1450.39 1295 1450.39 Z" fill="#000000" fill-rule="nonzero" fill-opacity="1" /><path clip-path="url(#clip360)" d="M1780.74 1481.64 L1788.38 1481.64 L1788.38 1455.28 L1780.07 1456.95 L1780.07 1452.69 L1788.33 1451.02 L1793.01 1451.02 L1793.01 1481.64 L1800.65 1481.64 L1800.65 1485.58 L1780.74 1485.58 L1780.74 1481.64 Z" fill="#000000" fill-rule="nonzero" fill-opacity="1" /><path clip-path="url(#clip360)" d="M1810.09 1479.7 L1814.98 1479.7 L1814.98 1485.58 L1810.09 1485.58 L1810.09 1479.7 Z" fill="#000000" fill-rule="nonzero" fill-opacity="1" /><path clip-path="url(#clip360)" d="M1825.21 1451.02 L1843.57 1451.02 L1843.57 1454.96 L1829.49 1454.96 L1829.49 1463.43 Q1830.51 1463.08 1831.53 1462.92 Q1832.55 1462.73 1833.57 1462.73 Q1839.35 1462.73 1842.73 1465.9 Q1846.11 1469.08 1846.11 1474.49 Q1846.11 1480.07 1842.64 1483.17 Q1839.17 1486.25 1832.85 1486.25 Q1830.67 1486.25 1828.4 1485.88 Q1826.16 1485.51 1823.75 1484.77 L1823.75 1480.07 Q1825.83 1481.2 1828.06 1481.76 Q1830.28 1482.32 1832.76 1482.32 Q1836.76 1482.32 1839.1 1480.21 Q1841.44 1478.1 1841.44 1474.49 Q1841.44 1470.88 1839.1 1468.77 Q1836.76 1466.67 1832.76 1466.67 Q1830.88 1466.67 1829.01 1467.08 Q1827.15 1467.5 1825.21 1468.38 L1825.21 1451.02 Z" fill="#000000" fill-rule="nonzero" fill-opacity="1" /><path clip-path="url(#clip360)" d="M2323.99 1481.64 L2340.31 1481.64 L2340.31 1485.58 L2318.37 1485.58 L2318.37 1481.64 Q2321.03 1478.89 2325.61 1474.26 Q2330.22 1469.61 2331.4 1468.27 Q2333.65 1465.74 2334.53 1464.01 Q2335.43 1462.25 2335.43 1460.56 Q2335.43 1457.8 2333.49 1456.07 Q2331.56 1454.33 2328.46 1454.33 Q2326.26 1454.33 2323.81 1455.09 Q2321.38 1455.86 2318.6 1457.41 L2318.6 1452.69 Q2321.43 1451.55 2323.88 1450.97 Q2326.33 1450.39 2328.37 1450.39 Q2333.74 1450.39 2336.93 1453.08 Q2340.13 1455.77 2340.13 1460.26 Q2340.13 1462.39 2339.32 1464.31 Q2338.53 1466.2 2336.42 1468.8 Q2335.85 1469.47 2332.74 1472.69 Q2329.64 1475.88 2323.99 1481.64 Z" fill="#000000" fill-rule="nonzero" fill-opacity="1" /><path clip-path="url(#clip360)" d="M2350.13 1479.7 L2355.01 1479.7 L2355.01 1485.58 L2350.13 1485.58 L2350.13 1479.7 Z" fill="#000000" fill-rule="nonzero" fill-opacity="1" /><path clip-path="url(#clip360)" d="M2375.2 1454.1 Q2371.59 1454.1 2369.76 1457.66 Q2367.95 1461.2 2367.95 1468.33 Q2367.95 1475.44 2369.76 1479.01 Q2371.59 1482.55 2375.2 1482.55 Q2378.83 1482.55 2380.64 1479.01 Q2382.47 1475.44 2382.47 1468.33 Q2382.47 1461.2 2380.64 1457.66 Q2378.83 1454.1 2375.2 1454.1 M2375.2 1450.39 Q2381.01 1450.39 2384.06 1455 Q2387.14 1459.58 2387.14 1468.33 Q2387.14 1477.06 2384.06 1481.67 Q2381.01 1486.25 2375.2 1486.25 Q2369.39 1486.25 2366.31 1481.67 Q2363.25 1477.06 2363.25 1468.33 Q2363.25 1459.58 2366.31 1455 Q2369.39 1450.39 2375.2 1450.39 Z" fill="#000000" fill-rule="nonzero" fill-opacity="1" /><path clip-path="url(#clip360)" d="M1272.49 1522.27 L1272.49 1532.4 L1284.55 1532.4 L1284.55 1536.95 L1272.49 1536.95 L1272.49 1556.3 Q1272.49 1560.66 1273.67 1561.9 Q1274.88 1563.14 1278.54 1563.14 L1284.55 1563.14 L1284.55 1568.04 L1278.54 1568.04 Q1271.76 1568.04 1269.18 1565.53 Q1266.6 1562.98 1266.6 1556.3 L1266.6 1536.95 L1262.3 1536.95 L1262.3 1532.4 L1266.6 1532.4 L1266.6 1522.27 L1272.49 1522.27 Z" fill="#000000" fill-rule="nonzero" fill-opacity="1" /><polyline clip-path="url(#clip360)" style="stroke:#000000; stroke-linecap:round; stroke-linejoin:round; stroke-width:4; stroke-opacity:1; fill:none" points="194.098,1423.18 194.098,47.2441 "/>
<polyline clip-path="url(#clip360)" style="stroke:#000000; stroke-linecap:round; stroke-linejoin:round; stroke-width:4; stroke-opacity:1; fill:none" points="194.098,1251.2 212.996,1251.2 "/>
<polyline clip-path="url(#clip360)" style="stroke:#000000; stroke-linecap:round; stroke-linejoin:round; stroke-width:4; stroke-opacity:1; fill:none" points="194.098,1006.4 212.996,1006.4 "/>
<polyline clip-path="url(#clip360)" style="stroke:#000000; stroke-linecap:round; stroke-linejoin:round; stroke-width:4; stroke-opacity:1; fill:none" points="194.098,761.609 212.996,761.609 "/>
<polyline clip-path="url(#clip360)" style="stroke:#000000; stroke-linecap:round; stroke-linejoin:round; stroke-width:4; stroke-opacity:1; fill:none" points="194.098,516.816 212.996,516.816 "/>
<polyline clip-path="url(#clip360)" style="stroke:#000000; stroke-linecap:round; stroke-linejoin:round; stroke-width:4; stroke-opacity:1; fill:none" points="194.098,272.023 212.996,272.023 "/>
<path clip-path="url(#clip360)" d="M51.3393 1251.65 L81.0151 1251.65 L81.0151 1255.58 L51.3393 1255.58 L51.3393 1251.65 Z" fill="#000000" fill-rule="nonzero" fill-opacity="1" /><path clip-path="url(#clip360)" d="M101.108 1236.99 Q97.4965 1236.99 95.6678 1240.56 Q93.8623 1244.1 93.8623 1251.23 Q93.8623 1258.34 95.6678 1261.9 Q97.4965 1265.44 101.108 1265.44 Q104.742 1265.44 106.547 1261.9 Q108.376 1258.34 108.376 1251.23 Q108.376 1244.1 106.547 1240.56 Q104.742 1236.99 101.108 1236.99 M101.108 1233.29 Q106.918 1233.29 109.973 1237.9 Q113.052 1242.48 113.052 1251.23 Q113.052 1259.96 109.973 1264.56 Q106.918 1269.15 101.108 1269.15 Q95.2974 1269.15 92.2188 1264.56 Q89.1632 1259.96 89.1632 1251.23 Q89.1632 1242.48 92.2188 1237.9 Q95.2974 1233.29 101.108 1233.29 Z" fill="#000000" fill-rule="nonzero" fill-opacity="1" /><path clip-path="url(#clip360)" d="M121.27 1262.6 L126.154 1262.6 L126.154 1268.48 L121.27 1268.48 L121.27 1262.6 Z" fill="#000000" fill-rule="nonzero" fill-opacity="1" /><path clip-path="url(#clip360)" d="M136.478 1267.76 L136.478 1263.5 Q138.237 1264.33 140.043 1264.77 Q141.848 1265.21 143.584 1265.21 Q148.214 1265.21 150.644 1262.11 Q153.098 1258.98 153.445 1252.64 Q152.103 1254.63 150.043 1255.7 Q147.982 1256.76 145.482 1256.76 Q140.297 1256.76 137.265 1253.64 Q134.256 1250.49 134.256 1245.05 Q134.256 1239.73 137.404 1236.51 Q140.552 1233.29 145.783 1233.29 Q151.779 1233.29 154.927 1237.9 Q158.098 1242.48 158.098 1251.23 Q158.098 1259.4 154.209 1264.29 Q150.343 1269.15 143.793 1269.15 Q142.033 1269.15 140.228 1268.8 Q138.422 1268.45 136.478 1267.76 M145.783 1253.1 Q148.931 1253.1 150.76 1250.95 Q152.612 1248.8 152.612 1245.05 Q152.612 1241.32 150.76 1239.17 Q148.931 1236.99 145.783 1236.99 Q142.635 1236.99 140.783 1239.17 Q138.955 1241.32 138.955 1245.05 Q138.955 1248.8 140.783 1250.95 Q142.635 1253.1 145.783 1253.1 Z" fill="#000000" fill-rule="nonzero" fill-opacity="1" /><path clip-path="url(#clip360)" d="M50.9921 1006.85 L80.6679 1006.85 L80.6679 1010.79 L50.9921 1010.79 L50.9921 1006.85 Z" fill="#000000" fill-rule="nonzero" fill-opacity="1" /><path clip-path="url(#clip360)" d="M100.76 992.201 Q97.1493 992.201 95.3206 995.766 Q93.515 999.307 93.515 1006.44 Q93.515 1013.54 95.3206 1017.11 Q97.1493 1020.65 100.76 1020.65 Q104.395 1020.65 106.2 1017.11 Q108.029 1013.54 108.029 1006.44 Q108.029 999.307 106.2 995.766 Q104.395 992.201 100.76 992.201 M100.76 988.497 Q106.571 988.497 109.626 993.104 Q112.705 997.687 112.705 1006.44 Q112.705 1015.16 109.626 1019.77 Q106.571 1024.35 100.76 1024.35 Q94.9502 1024.35 91.8715 1019.77 Q88.816 1015.16 88.816 1006.44 Q88.816 997.687 91.8715 993.104 Q94.9502 988.497 100.76 988.497 Z" fill="#000000" fill-rule="nonzero" fill-opacity="1" /><path clip-path="url(#clip360)" d="M120.922 1017.8 L125.807 1017.8 L125.807 1023.68 L120.922 1023.68 L120.922 1017.8 Z" fill="#000000" fill-rule="nonzero" fill-opacity="1" /><path clip-path="url(#clip360)" d="M146.57 1004.54 Q143.422 1004.54 141.57 1006.69 Q139.742 1008.84 139.742 1012.59 Q139.742 1016.32 141.57 1018.5 Q143.422 1020.65 146.57 1020.65 Q149.718 1020.65 151.547 1018.5 Q153.399 1016.32 153.399 1012.59 Q153.399 1008.84 151.547 1006.69 Q149.718 1004.54 146.57 1004.54 M155.853 989.886 L155.853 994.145 Q154.093 993.312 152.288 992.872 Q150.505 992.432 148.746 992.432 Q144.117 992.432 141.663 995.557 Q139.232 998.682 138.885 1005 Q140.251 1002.99 142.311 1001.92 Q144.371 1000.84 146.848 1000.84 Q152.056 1000.84 155.066 1004.01 Q158.098 1007.15 158.098 1012.59 Q158.098 1017.92 154.95 1021.14 Q151.802 1024.35 146.57 1024.35 Q140.575 1024.35 137.404 1019.77 Q134.232 1015.16 134.232 1006.44 Q134.232 998.242 138.121 993.381 Q142.01 988.497 148.561 988.497 Q150.32 988.497 152.103 988.844 Q153.908 989.192 155.853 989.886 Z" fill="#000000" fill-rule="nonzero" fill-opacity="1" /><path clip-path="url(#clip360)" d="M51.8023 762.061 L81.4781 762.061 L81.4781 765.996 L51.8023 765.996 L51.8023 762.061 Z" fill="#000000" fill-rule="nonzero" fill-opacity="1" /><path clip-path="url(#clip360)" d="M101.571 747.408 Q97.9595 747.408 96.1308 750.973 Q94.3252 754.514 94.3252 761.644 Q94.3252 768.75 96.1308 772.315 Q97.9595 775.857 101.571 775.857 Q105.205 775.857 107.01 772.315 Q108.839 768.75 108.839 761.644 Q108.839 754.514 107.01 750.973 Q105.205 747.408 101.571 747.408 M101.571 743.704 Q107.381 743.704 110.436 748.311 Q113.515 752.894 113.515 761.644 Q113.515 770.371 110.436 774.977 Q107.381 779.561 101.571 779.561 Q95.7604 779.561 92.6817 774.977 Q89.6262 770.371 89.6262 761.644 Q89.6262 752.894 92.6817 748.311 Q95.7604 743.704 101.571 743.704 Z" fill="#000000" fill-rule="nonzero" fill-opacity="1" /><path clip-path="url(#clip360)" d="M121.732 773.01 L126.617 773.01 L126.617 778.889 L121.732 778.889 L121.732 773.01 Z" fill="#000000" fill-rule="nonzero" fill-opacity="1" /><path clip-path="url(#clip360)" d="M150.968 760.255 Q154.325 760.973 156.2 763.241 Q158.098 765.51 158.098 768.843 Q158.098 773.959 154.58 776.76 Q151.061 779.561 144.58 779.561 Q142.404 779.561 140.089 779.121 Q137.797 778.704 135.344 777.848 L135.344 773.334 Q137.288 774.468 139.603 775.047 Q141.918 775.625 144.441 775.625 Q148.839 775.625 151.13 773.889 Q153.445 772.153 153.445 768.843 Q153.445 765.787 151.293 764.075 Q149.163 762.338 145.343 762.338 L141.316 762.338 L141.316 758.496 L145.529 758.496 Q148.978 758.496 150.806 757.13 Q152.635 755.741 152.635 753.149 Q152.635 750.487 150.737 749.075 Q148.862 747.639 145.343 747.639 Q143.422 747.639 141.223 748.056 Q139.024 748.473 136.385 749.352 L136.385 745.186 Q139.047 744.445 141.362 744.075 Q143.7 743.704 145.76 743.704 Q151.084 743.704 154.186 746.135 Q157.288 748.542 157.288 752.663 Q157.288 755.533 155.644 757.524 Q154.001 759.491 150.968 760.255 Z" fill="#000000" fill-rule="nonzero" fill-opacity="1" /><path clip-path="url(#clip360)" d="M100.922 502.615 Q97.3113 502.615 95.4826 506.18 Q93.6771 509.722 93.6771 516.851 Q93.6771 523.958 95.4826 527.522 Q97.3113 531.064 100.922 531.064 Q104.557 531.064 106.362 527.522 Q108.191 523.958 108.191 516.851 Q108.191 509.722 106.362 506.18 Q104.557 502.615 100.922 502.615 M100.922 498.911 Q106.733 498.911 109.788 503.518 Q112.867 508.101 112.867 516.851 Q112.867 525.578 109.788 530.184 Q106.733 534.768 100.922 534.768 Q95.1123 534.768 92.0336 530.184 Q88.978 525.578 88.978 516.851 Q88.978 508.101 92.0336 503.518 Q95.1123 498.911 100.922 498.911 Z" fill="#000000" fill-rule="nonzero" fill-opacity="1" /><path clip-path="url(#clip360)" d="M121.084 528.217 L125.969 528.217 L125.969 534.096 L121.084 534.096 L121.084 528.217 Z" fill="#000000" fill-rule="nonzero" fill-opacity="1" /><path clip-path="url(#clip360)" d="M146.154 502.615 Q142.543 502.615 140.714 506.18 Q138.908 509.722 138.908 516.851 Q138.908 523.958 140.714 527.522 Q142.543 531.064 146.154 531.064 Q149.788 531.064 151.593 527.522 Q153.422 523.958 153.422 516.851 Q153.422 509.722 151.593 506.18 Q149.788 502.615 146.154 502.615 M146.154 498.911 Q151.964 498.911 155.019 503.518 Q158.098 508.101 158.098 516.851 Q158.098 525.578 155.019 530.184 Q151.964 534.768 146.154 534.768 Q140.343 534.768 137.265 530.184 Q134.209 525.578 134.209 516.851 Q134.209 508.101 137.265 503.518 Q140.343 498.911 146.154 498.911 Z" fill="#000000" fill-rule="nonzero" fill-opacity="1" /><path clip-path="url(#clip360)" d="M101.571 257.822 Q97.9595 257.822 96.1308 261.387 Q94.3252 264.929 94.3252 272.058 Q94.3252 279.165 96.1308 282.729 Q97.9595 286.271 101.571 286.271 Q105.205 286.271 107.01 282.729 Q108.839 279.165 108.839 272.058 Q108.839 264.929 107.01 261.387 Q105.205 257.822 101.571 257.822 M101.571 254.119 Q107.381 254.119 110.436 258.725 Q113.515 263.308 113.515 272.058 Q113.515 280.785 110.436 285.391 Q107.381 289.975 101.571 289.975 Q95.7604 289.975 92.6817 285.391 Q89.6262 280.785 89.6262 272.058 Q89.6262 263.308 92.6817 258.725 Q95.7604 254.119 101.571 254.119 Z" fill="#000000" fill-rule="nonzero" fill-opacity="1" /><path clip-path="url(#clip360)" d="M121.732 283.424 L126.617 283.424 L126.617 289.303 L121.732 289.303 L121.732 283.424 Z" fill="#000000" fill-rule="nonzero" fill-opacity="1" /><path clip-path="url(#clip360)" d="M150.968 270.669 Q154.325 271.387 156.2 273.655 Q158.098 275.924 158.098 279.257 Q158.098 284.373 154.58 287.174 Q151.061 289.975 144.58 289.975 Q142.404 289.975 140.089 289.535 Q137.797 289.118 135.344 288.262 L135.344 283.748 Q137.288 284.882 139.603 285.461 Q141.918 286.04 144.441 286.04 Q148.839 286.04 151.13 284.304 Q153.445 282.567 153.445 279.257 Q153.445 276.202 151.293 274.489 Q149.163 272.753 145.343 272.753 L141.316 272.753 L141.316 268.91 L145.529 268.91 Q148.978 268.91 150.806 267.544 Q152.635 266.155 152.635 263.563 Q152.635 260.901 150.737 259.489 Q148.862 258.054 145.343 258.054 Q143.422 258.054 141.223 258.47 Q139.024 258.887 136.385 259.767 L136.385 255.6 Q139.047 254.859 141.362 254.489 Q143.7 254.119 145.76 254.119 Q151.084 254.119 154.186 256.549 Q157.288 258.956 157.288 263.077 Q157.288 265.947 155.644 267.938 Q154.001 269.905 150.968 270.669 Z" fill="#000000" fill-rule="nonzero" fill-opacity="1" /><polyline clip-path="url(#clip362)" style="stroke:#009af9; stroke-linecap:round; stroke-linejoin:round; stroke-width:4; stroke-opacity:1; fill:none" points="194.098,1384.24 196.259,1383.55 198.42,1382.86 200.58,1382.18 202.741,1381.51 204.902,1380.85 207.063,1380.19 209.224,1379.54 211.385,1378.9 213.545,1378.26 215.706,1377.63 217.867,1377 220.028,1376.38 222.189,1375.77 224.349,1375.16 226.51,1374.56 228.671,1373.97 230.832,1373.38 232.993,1372.79 235.154,1372.22 237.314,1371.64 239.475,1371.08 241.636,1370.52 243.797,1369.96 245.958,1369.41 248.119,1368.87 250.279,1368.33 252.44,1367.8 254.601,1367.27 256.762,1366.75 258.923,1366.23 261.083,1365.72 263.244,1365.21 265.405,1364.71 267.566,1364.21 269.727,1363.72 271.888,1363.23 274.048,1362.75 276.209,1362.28 278.37,1361.8 280.531,1361.33 282.692,1360.87 284.852,1360.41 287.013,1359.96 289.174,1359.51 291.335,1359.06 293.496,1358.62 295.657,1358.19 297.817,1357.76 299.978,1357.33 302.139,1356.9 304.3,1356.49 306.461,1356.07 308.621,1355.66 310.782,1355.25 312.943,1354.85 315.104,1354.45 317.265,1354.06 319.426,1353.67 321.586,1353.28 323.747,1352.9 325.908,1352.52 328.069,1352.14 330.23,1351.77 332.39,1351.4 334.551,1351.04 336.712,1350.68 338.873,1350.32 341.034,1349.97 343.195,1349.62 345.355,1349.27 347.516,1348.93 349.677,1348.59 351.838,1348.25 353.999,1347.92 356.159,1347.59 358.32,1347.26 360.481,1346.94 362.642,1346.62 364.803,1346.3 366.964,1345.99 369.124,1345.68 371.285,1345.37 373.446,1345.07 375.607,1344.76 377.768,1344.47 379.928,1344.17 382.089,1343.88 384.25,1343.59 386.411,1343.3 388.572,1343.02 390.733,1342.74 392.893,1342.46 395.054,1342.19 397.215,1341.91 399.376,1341.64 401.537,1341.38 403.697,1341.11 405.858,1340.85 408.019,1340.59 410.18,1340.33 412.341,1340.08 414.502,1339.83 416.662,1339.58 418.823,1339.33 420.984,1339.09 423.145,1338.85 425.306,1338.61 427.466,1338.37 429.627,1338.14 431.788,1337.9 433.949,1337.67 436.11,1337.45 438.271,1337.22 440.431,1337 442.592,1336.78 444.753,1336.56 446.914,1336.34 449.075,1336.13 451.235,1335.92 453.396,1335.71 455.557,1335.5 457.718,1335.29 459.879,1335.09 462.04,1334.89 464.2,1334.69 466.361,1334.49 468.522,1334.29 470.683,1334.1 472.844,1333.91 475.004,1333.72 477.165,1333.53 479.326,1333.34 481.487,1333.16 483.648,1332.97 485.809,1332.79 487.969,1332.61 490.13,1332.44 492.291,1332.26 494.452,1332.09 496.613,1331.92 498.773,1331.75 500.934,1331.58 503.095,1331.41 505.256,1331.25 507.417,1331.08 509.578,1330.92 511.738,1330.76 513.899,1330.6 516.06,1330.44 518.221,1330.29 520.382,1330.13 522.542,1329.98 524.703,1329.83 526.864,1329.68 529.025,1329.53 531.186,1329.39 533.347,1329.24 535.507,1329.1 537.668,1328.96 539.829,1328.82 541.99,1328.68 544.151,1328.54 546.311,1328.4 548.472,1328.27 550.633,1328.13 552.794,1328 554.955,1327.87 557.116,1327.74 559.276,1327.61 561.437,1327.48 563.598,1327.36 565.759,1327.23 567.92,1327.11 570.08,1326.99 572.241,1326.86 574.402,1326.74 576.563,1326.63 578.724,1326.51 580.885,1326.39 583.045,1326.28 585.206,1326.16 587.367,1326.05 589.528,1325.94 591.689,1325.83 593.849,1325.72 596.01,1325.61 598.171,1325.5 600.332,1325.39 602.493,1325.29 604.654,1325.18 606.814,1325.08 608.975,1324.98 611.136,1324.88 613.297,1324.78 615.458,1324.68 617.618,1324.58 619.779,1324.48 621.94,1324.39 624.101,1324.29 626.262,1324.2 628.423,1324.1 630.583,1324.01 632.744,1323.92 634.905,1323.83 637.066,1323.74 639.227,1323.65 641.388,1323.56 643.548,1323.48 645.709,1323.39 647.87,1323.31 650.031,1323.22 652.192,1323.14 654.352,1323.05 656.513,1322.97 658.674,1322.89 660.835,1322.81 662.996,1322.73 665.157,1322.65 667.317,1322.57 669.478,1322.5 671.639,1322.42 673.8,1322.35 675.961,1322.27 678.121,1322.2 680.282,1322.12 682.443,1322.05 684.604,1321.98 686.765,1321.91 688.926,1321.84 691.086,1321.77 693.247,1321.7 695.408,1321.63 697.569,1321.56 699.73,1321.49 701.89,1321.43 704.051,1321.36 706.212,1321.3 708.373,1321.23 710.534,1321.17 712.695,1321.1 714.855,1321.04 717.016,1320.98 719.177,1320.92 721.338,1320.86 723.499,1320.8 725.659,1320.74 727.82,1320.68 729.981,1320.62 732.142,1320.56 734.303,1320.51 736.464,1320.45 738.624,1320.39 740.785,1320.34 742.946,1320.28 745.107,1320.23 747.268,1320.17 749.428,1320.12 751.589,1320.07 753.75,1320.02 755.911,1319.96 758.072,1319.91 760.233,1319.86 762.393,1319.81 764.554,1319.76 766.715,1319.71 768.876,1319.66 771.037,1319.62 773.197,1319.57 775.358,1319.52 777.519,1319.47 779.68,1319.43 781.841,1319.38 784.002,1319.34 786.162,1319.29 788.323,1319.25 790.484,1319.2 792.645,1319.16 794.806,1319.12 796.966,1319.07 799.127,1319.03 801.288,1318.99 803.449,1318.95 805.61,1318.91 807.771,1318.87 809.931,1318.83 812.092,1318.79 814.253,1318.75 816.414,1318.71 818.575,1318.67 820.735,1318.63 822.896,1318.59 825.057,1318.56 827.218,1318.52 829.379,1318.48 831.54,1318.45 833.7,1318.41 835.861,1318.37 838.022,1318.34 840.183,1318.3 842.344,1318.27 844.504,1318.23 846.665,1318.2 848.826,1318.17 850.987,1318.13 853.148,1318.1 855.309,1318.07 857.469,1318.04 859.63,1318 861.791,1317.97 863.952,1317.94 866.113,1317.91 868.273,1317.88 870.434,1317.85 872.595,1317.82 874.756,1317.79 876.917,1317.76 879.078,1317.73 881.238,1317.7 883.399,1317.67 885.56,1317.64 887.721,1317.62 889.882,1317.59 892.042,1317.56 894.203,1317.53 896.364,1317.51 898.525,1317.48 900.686,1317.45 902.847,1317.43 905.007,1317.4 907.168,1317.37 909.329,1317.35 911.49,1317.32 913.651,1317.3 915.811,1317.27 917.972,1317.25 920.133,1317.23 922.294,1317.2 924.455,1317.18 926.616,1317.15 928.776,1317.13 930.937,1317.11 933.098,1317.08 935.259,1317.06 937.42,1317.04 939.58,1317.02 941.741,1317 943.902,1316.97 946.063,1316.95 948.224,1316.93 950.385,1316.91 952.545,1316.89 954.706,1316.87 956.867,1316.85 959.028,1316.83 961.189,1316.81 963.349,1316.79 965.51,1316.77 967.671,1316.75 969.832,1316.73 971.993,1316.71 974.154,1316.69 976.314,1316.67 978.475,1316.66 980.636,1316.64 982.797,1316.62 984.958,1316.6 987.118,1316.58 989.279,1316.57 991.44,1316.55 993.601,1316.53 995.762,1316.52 997.923,1316.5 1000.08,1316.48 1002.24,1316.47 1004.41,1316.45 1006.57,1316.43 1008.73,1316.42 1010.89,1316.4 1013.05,1316.39 1015.21,1316.37 1017.37,1316.35 1019.53,1316.34 1021.69,1316.32 1023.85,1316.31 1026.01,1316.29 1028.17,1316.28 1030.33,1316.27 1032.5,1316.25 1034.66,1316.24 1036.82,1316.22 1038.98,1316.21 1041.14,1316.2 1043.3,1316.18 1045.46,1316.17 1047.62,1316.15 1049.78,1316.14 1051.94,1316.13 1054.1,1316.12 1056.26,1316.1 1058.43,1316.09 1060.59,1316.08 1062.75,1316.06 1064.91,1316.05 1067.07,1316.04 1069.23,1316.03 1071.39,1316.02 1073.55,1316 1075.71,1315.99 1077.87,1315.98 1080.03,1315.97 1082.19,1315.96 1084.36,1315.95 1086.52,1315.93 1088.68,1315.92 1090.84,1315.91 1093,1315.9 1095.16,1315.89 1097.32,1315.88 1099.48,1315.87 1101.64,1315.86 1103.8,1315.85 1105.96,1315.84 1108.12,1315.83 1110.29,1315.82 1112.45,1315.81 1114.61,1315.8 1116.77,1315.79 1118.93,1315.78 1121.09,1315.77 1123.25,1315.76 1125.41,1315.75 1127.57,1315.74 1129.73,1315.73 1131.89,1315.72 1134.05,1315.71 1136.21,1315.71 1138.38,1315.7 1140.54,1315.69 1142.7,1315.68 1144.86,1315.67 1147.02,1315.66 1149.18,1315.65 1151.34,1315.65 1153.5,1315.64 1155.66,1315.63 1157.82,1315.62 1159.98,1315.61 1162.14,1315.6 1164.31,1315.6 1166.47,1315.59 1168.63,1315.58 1170.79,1315.57 1172.95,1315.57 1175.11,1315.56 1177.27,1315.55 1179.43,1315.54 1181.59,1315.54 1183.75,1315.53 1185.91,1315.52 1188.07,1315.52 1190.24,1315.51 1192.4,1315.5 1194.56,1315.5 1196.72,1315.49 1198.88,1315.48 1201.04,1315.48 1203.2,1315.47 1205.36,1315.46 1207.52,1315.46 1209.68,1315.45 1211.84,1315.44 1214,1315.44 1216.17,1315.43 1218.33,1315.43 1220.49,1315.42 1222.65,1315.41 1224.81,1315.41 1226.97,1315.4 1229.13,1315.4 1231.29,1315.39 1233.45,1315.39 1235.61,1315.38 1237.77,1315.37 1239.93,1315.37 1242.1,1315.36 1244.26,1315.36 1246.42,1315.35 1248.58,1315.35 1250.74,1315.34 1252.9,1315.34 1255.06,1315.33 1257.22,1315.33 1259.38,1315.32 1261.54,1315.32 1263.7,1315.31 1265.86,1315.31 1268.02,1315.3 1270.19,1315.3 1272.35,1315.29 1274.51,1315.29 1276.67,1315.28 1278.83,1315.28 1280.99,1315.28 1283.15,1315.27 1285.31,1315.27 1287.47,1315.26 1289.63,1315.26 1291.79,1315.25 1293.95,1315.25 1296.12,1315.24 1298.28,1315.24 1300.44,1315.24 1302.6,1315.23 1304.76,1315.23 1306.92,1315.22 1309.08,1315.22 1311.24,1315.22 1313.4,1315.21 1315.56,1315.21 1317.72,1315.2 1319.88,1315.2 1322.05,1315.2 1324.21,1315.19 1326.37,1315.19 1328.53,1315.19 1330.69,1315.18 1332.85,1315.18 1335.01,1315.17 1337.17,1315.17 1339.33,1315.17 1341.49,1315.16 1343.65,1315.16 1345.81,1315.16 1347.98,1315.15 1350.14,1315.15 1352.3,1315.15 1354.46,1315.14 1356.62,1315.14 1358.78,1315.14 1360.94,1315.13 1363.1,1315.13 1365.26,1315.13 1367.42,1315.13 1369.58,1315.12 1371.74,1315.12 1373.91,1315.12 1376.07,1315.11 1378.23,1315.11 1380.39,1315.11 1382.55,1315.1 1384.71,1315.1 1386.87,1315.1 1389.03,1315.1 1391.19,1315.09 1393.35,1315.09 1395.51,1315.09 1397.67,1315.09 1399.83,1315.08 1402,1315.08 1404.16,1315.08 1406.32,1315.07 1408.48,1315.07 1410.64,1315.07 1412.8,1315.07 1414.96,1315.06 1417.12,1315.06 1419.28,1315.06 1421.44,1315.06 1423.6,1315.06 1425.76,1315.05 1427.93,1315.05 1430.09,1315.05 1432.25,1315.05 1434.41,1315.04 1436.57,1315.04 1438.73,1315.04 1440.89,1315.04 1443.05,1315.04 1445.21,1315.03 1447.37,1315.03 1449.53,1315.03 1451.69,1315.03 1453.86,1315.02 1456.02,1315.02 1458.18,1315.02 1460.34,1315.02 1462.5,1315.02 1464.66,1315.01 1466.82,1315.01 1468.98,1315.01 1471.14,1315.01 1473.3,1315.01 1475.46,1315.01 1477.62,1315 1479.79,1315 1481.95,1315 1484.11,1315 1486.27,1315 1488.43,1315 1490.59,1314.99 1492.75,1314.99 1494.91,1314.99 1497.07,1314.99 1499.23,1314.99 1501.39,1314.99 1503.55,1314.98 1505.71,1314.98 1507.88,1314.98 1510.04,1314.98 1512.2,1314.98 1514.36,1314.98 1516.52,1314.97 1518.68,1314.97 1520.84,1314.97 1523,1314.97 1525.16,1314.97 1527.32,1314.97 1529.48,1314.97 1531.64,1314.96 1533.81,1314.96 1535.97,1314.96 1538.13,1314.96 1540.29,1314.96 1542.45,1314.96 1544.61,1314.96 1546.77,1314.96 1548.93,1314.95 1551.09,1314.95 1553.25,1314.95 1555.41,1314.95 1557.57,1314.95 1559.74,1314.95 1561.9,1314.95 1564.06,1314.95 1566.22,1314.94 1568.38,1314.94 1570.54,1314.94 1572.7,1314.94 1574.86,1314.94 1577.02,1314.94 1579.18,1314.94 1581.34,1314.94 1583.5,1314.93 1585.67,1314.93 1587.83,1314.93 1589.99,1314.93 1592.15,1314.93 1594.31,1314.93 1596.47,1314.93 1598.63,1314.93 1600.79,1314.93 1602.95,1314.93 1605.11,1314.92 1607.27,1314.92 1609.43,1314.92 1611.6,1314.92 1613.76,1314.92 1615.92,1314.92 1618.08,1314.92 1620.24,1314.92 1622.4,1314.92 1624.56,1314.92 1626.72,1314.91 1628.88,1314.91 1631.04,1314.91 1633.2,1314.91 1635.36,1314.91 1637.52,1314.91 1639.69,1314.91 1641.85,1314.91 1644.01,1314.91 1646.17,1314.91 1648.33,1314.91 1650.49,1314.9 1652.65,1314.9 1654.81,1314.9 1656.97,1314.9 1659.13,1314.9 1661.29,1314.9 1663.45,1314.9 1665.62,1314.9 1667.78,1314.9 1669.94,1314.9 1672.1,1314.9 1674.26,1314.9 1676.42,1314.89 1678.58,1314.89 1680.74,1314.89 1682.9,1314.89 1685.06,1314.89 1687.22,1314.89 1689.38,1314.89 1691.55,1314.89 1693.71,1314.89 1695.87,1314.89 1698.03,1314.89 1700.19,1314.89 1702.35,1314.89 1704.51,1314.89 1706.67,1314.89 1708.83,1314.88 1710.99,1314.88 1713.15,1314.88 1715.31,1314.88 1717.48,1314.88 1719.64,1314.88 1721.8,1314.88 1723.96,1314.88 1726.12,1314.88 1728.28,1314.88 1730.44,1314.88 1732.6,1314.88 1734.76,1314.88 1736.92,1314.88 1739.08,1314.88 1741.24,1314.88 1743.41,1314.88 1745.57,1314.87 1747.73,1314.87 1749.89,1314.87 1752.05,1314.87 1754.21,1314.87 1756.37,1314.87 1758.53,1314.87 1760.69,1314.87 1762.85,1314.87 1765.01,1314.87 1767.17,1314.87 1769.33,1314.87 1771.5,1314.87 1773.66,1314.87 1775.82,1314.87 1777.98,1314.87 1780.14,1314.87 1782.3,1314.87 1784.46,1314.87 1786.62,1314.87 1788.78,1314.87 1790.94,1314.86 1793.1,1314.86 1795.26,1314.86 1797.43,1314.86 1799.59,1314.86 1801.75,1314.86 1803.91,1314.86 1806.07,1314.86 1808.23,1314.86 1810.39,1314.86 1812.55,1314.86 1814.71,1314.86 1816.87,1314.86 1819.03,1314.86 1821.19,1314.86 1823.36,1314.86 1825.52,1314.86 1827.68,1314.86 1829.84,1314.86 1832,1314.86 1834.16,1314.86 1836.32,1314.86 1838.48,1314.86 1840.64,1314.86 1842.8,1314.86 1844.96,1314.86 1847.12,1314.86 1849.29,1314.86 1851.45,1314.86 1853.61,1314.85 1855.77,1314.85 1857.93,1314.85 1860.09,1314.85 1862.25,1314.85 1864.41,1314.85 1866.57,1314.85 1868.73,1314.85 1870.89,1314.85 1873.05,1314.85 1875.21,1314.85 1877.38,1314.85 1879.54,1314.85 1881.7,1314.85 1883.86,1314.85 1886.02,1314.85 1888.18,1314.85 1890.34,1314.85 1892.5,1314.85 1894.66,1314.85 1896.82,1314.85 1898.98,1314.85 1901.14,1314.85 1903.31,1314.85 1905.47,1314.85 1907.63,1314.85 1909.79,1314.85 1911.95,1314.85 1914.11,1314.85 1916.27,1314.85 1918.43,1314.85 1920.59,1314.85 1922.75,1314.85 1924.91,1314.85 1927.07,1314.85 1929.24,1314.85 1931.4,1314.85 1933.56,1314.85 1935.72,1314.85 1937.88,1314.85 1940.04,1314.84 1942.2,1314.84 1944.36,1314.84 1946.52,1314.84 1948.68,1314.84 1950.84,1314.84 1953,1314.84 1955.17,1314.84 1957.33,1314.84 1959.49,1314.84 1961.65,1314.84 1963.81,1314.84 1965.97,1314.84 1968.13,1314.84 1970.29,1314.84 1972.45,1314.84 1974.61,1314.84 1976.77,1314.84 1978.93,1314.84 1981.1,1314.84 1983.26,1314.84 1985.42,1314.84 1987.58,1314.84 1989.74,1314.84 1991.9,1314.84 1994.06,1314.84 1996.22,1314.84 1998.38,1314.84 2000.54,1314.84 2002.7,1314.84 2004.86,1314.84 2007.02,1314.84 2009.19,1314.84 2011.35,1314.84 2013.51,1314.84 2015.67,1314.84 2017.83,1314.84 2019.99,1314.84 2022.15,1314.84 2024.31,1314.84 2026.47,1314.84 2028.63,1314.84 2030.79,1314.84 2032.95,1314.84 2035.12,1314.84 2037.28,1314.84 2039.44,1314.84 2041.6,1314.84 2043.76,1314.84 2045.92,1314.84 2048.08,1314.84 2050.24,1314.84 2052.4,1314.84 2054.56,1314.84 2056.72,1314.84 2058.88,1314.83 2061.05,1314.83 2063.21,1314.83 2065.37,1314.83 2067.53,1314.83 2069.69,1314.83 2071.85,1314.83 2074.01,1314.83 2076.17,1314.83 2078.33,1314.83 2080.49,1314.83 2082.65,1314.83 2084.81,1314.83 2086.98,1314.83 2089.14,1314.83 2091.3,1314.83 2093.46,1314.83 2095.62,1314.83 2097.78,1314.83 2099.94,1314.83 2102.1,1314.83 2104.26,1314.83 2106.42,1314.83 2108.58,1314.83 2110.74,1314.83 2112.91,1314.83 2115.07,1314.83 2117.23,1314.83 2119.39,1314.83 2121.55,1314.83 2123.71,1314.83 2125.87,1314.83 2128.03,1314.83 2130.19,1314.83 2132.35,1314.83 2134.51,1314.83 2136.67,1314.83 2138.83,1314.83 2141,1314.83 2143.16,1314.83 2145.32,1314.83 2147.48,1314.83 2149.64,1314.83 2151.8,1314.83 2153.96,1314.83 2156.12,1314.83 2158.28,1314.83 2160.44,1314.83 2162.6,1314.83 2164.76,1314.83 2166.93,1314.83 2169.09,1314.83 2171.25,1314.83 2173.41,1314.83 2175.57,1314.83 2177.73,1314.83 2179.89,1314.83 2182.05,1314.83 2184.21,1314.83 2186.37,1314.83 2188.53,1314.83 2190.69,1314.83 2192.86,1314.83 2195.02,1314.83 2197.18,1314.83 2199.34,1314.83 2201.5,1314.83 2203.66,1314.83 2205.82,1314.83 2207.98,1314.83 2210.14,1314.83 2212.3,1314.83 2214.46,1314.83 2216.62,1314.83 2218.79,1314.83 2220.95,1314.83 2223.11,1314.83 2225.27,1314.83 2227.43,1314.83 2229.59,1314.83 2231.75,1314.83 2233.91,1314.83 2236.07,1314.83 2238.23,1314.83 2240.39,1314.83 2242.55,1314.83 2244.71,1314.83 2246.88,1314.83 2249.04,1314.83 2251.2,1314.83 2253.36,1314.83 2255.52,1314.83 2257.68,1314.83 2259.84,1314.83 2262,1314.83 2264.16,1314.83 2266.32,1314.83 2268.48,1314.83 2270.64,1314.83 2272.81,1314.83 2274.97,1314.83 2277.13,1314.83 2279.29,1314.83 2281.45,1314.83 2283.61,1314.83 2285.77,1314.83 2287.93,1314.83 2290.09,1314.83 2292.25,1314.83 2294.41,1314.83 2296.57,1314.83 2298.74,1314.83 2300.9,1314.83 2303.06,1314.83 2305.22,1314.83 2307.38,1314.83 2309.54,1314.83 2311.7,1314.83 2313.86,1314.83 2316.02,1314.83 2318.18,1314.83 2320.34,1314.83 2322.5,1314.83 2324.67,1314.83 2326.83,1314.83 2328.99,1314.83 2331.15,1314.83 2333.31,1314.83 2335.47,1314.83 2337.63,1314.83 2339.79,1314.83 2341.95,1314.83 2344.11,1314.83 2346.27,1314.83 2348.43,1314.83 2350.6,1314.83 2352.76,1314.83 "/>
<polyline clip-path="url(#clip362)" style="stroke:#e26f46; stroke-linecap:round; stroke-linejoin:round; stroke-width:4; stroke-opacity:1; fill:none" points="194.098,86.1857 196.259,94.6166 198.42,102.986 200.58,111.295 202.741,119.544 204.902,127.733 207.063,135.863 209.224,143.934 211.385,151.946 213.545,159.901 215.706,167.798 217.867,175.638 220.028,183.421 222.189,191.148 224.349,198.819 226.51,206.435 228.671,213.996 230.832,221.503 232.993,228.956 235.154,236.355 237.314,243.7 239.475,250.993 241.636,258.234 243.797,265.422 245.958,272.559 248.119,279.644 250.279,286.679 252.44,293.663 254.601,300.598 256.762,307.482 258.923,314.317 261.083,321.104 263.244,327.841 265.405,334.531 267.566,341.173 269.727,347.767 271.888,354.314 274.048,360.815 276.209,367.269 278.37,373.677 280.531,380.039 282.692,386.356 284.852,392.628 287.013,398.856 289.174,405.039 291.335,411.178 293.496,417.273 295.657,423.325 297.817,429.334 299.978,435.301 302.139,441.225 304.3,447.107 306.461,452.947 308.621,458.746 310.782,464.504 312.943,470.221 315.104,475.898 317.265,481.534 319.426,487.131 321.586,492.688 323.747,498.206 325.908,503.685 328.069,509.125 330.23,514.527 332.39,519.89 334.551,525.216 336.712,530.505 338.873,535.756 341.034,540.97 343.195,546.147 345.355,551.289 347.516,556.394 349.677,561.463 351.838,566.496 353.999,571.494 356.159,576.457 358.32,581.386 360.481,586.279 362.642,591.139 364.803,595.964 366.964,600.755 369.124,605.513 371.285,610.238 373.446,614.93 375.607,619.589 377.768,624.215 379.928,628.809 382.089,633.371 384.25,637.901 386.411,642.399 388.572,646.866 390.733,651.302 392.893,655.707 395.054,660.081 397.215,664.425 399.376,668.738 401.537,673.022 403.697,677.276 405.858,681.5 408.019,685.695 410.18,689.861 412.341,693.998 414.502,698.106 416.662,702.186 418.823,706.237 420.984,710.26 423.145,714.256 425.306,718.224 427.466,722.164 429.627,726.077 431.788,729.963 433.949,733.822 436.11,737.655 438.271,741.461 440.431,745.241 442.592,748.995 444.753,752.723 446.914,756.425 449.075,760.102 451.235,763.753 453.396,767.379 455.557,770.981 457.718,774.557 459.879,778.109 462.04,781.636 464.2,785.139 466.361,788.618 468.522,792.074 470.683,795.505 472.844,798.913 475.004,802.297 477.165,805.659 479.326,808.997 481.487,812.312 483.648,815.605 485.809,818.875 487.969,822.123 490.13,825.348 492.291,828.552 494.452,831.733 496.613,834.893 498.773,838.031 500.934,841.148 503.095,844.243 505.256,847.318 507.417,850.371 509.578,853.403 511.738,856.415 513.899,859.407 516.06,862.378 518.221,865.329 520.382,868.259 522.542,871.17 524.703,874.061 526.864,876.933 529.025,879.784 531.186,882.617 533.347,885.43 535.507,888.224 537.668,891 539.829,893.756 541.99,896.494 544.151,899.213 546.311,901.914 548.472,904.597 550.633,907.261 552.794,909.908 554.955,912.536 557.116,915.147 559.276,917.741 561.437,920.316 563.598,922.875 565.759,925.416 567.92,927.94 570.08,930.446 572.241,932.936 574.402,935.41 576.563,937.866 578.724,940.306 580.885,942.73 583.045,945.137 585.206,947.528 587.367,949.903 589.528,952.262 591.689,954.605 593.849,956.932 596.01,959.244 598.171,961.54 600.332,963.821 602.493,966.086 604.654,968.336 606.814,970.571 608.975,972.791 611.136,974.996 613.297,977.187 615.458,979.363 617.618,981.524 619.779,983.67 621.94,985.803 624.101,987.921 626.262,990.025 628.423,992.114 630.583,994.19 632.744,996.252 634.905,998.3 637.066,1000.33 639.227,1002.36 641.388,1004.36 643.548,1006.36 645.709,1008.34 647.87,1010.31 650.031,1012.26 652.192,1014.2 654.352,1016.13 656.513,1018.05 658.674,1019.95 660.835,1021.84 662.996,1023.72 665.157,1025.58 667.317,1027.44 669.478,1029.28 671.639,1031.1 673.8,1032.92 675.961,1034.73 678.121,1036.52 680.282,1038.3 682.443,1040.07 684.604,1041.82 686.765,1043.57 688.926,1045.3 691.086,1047.03 693.247,1048.74 695.408,1050.44 697.569,1052.13 699.73,1053.8 701.89,1055.47 704.051,1057.12 706.212,1058.77 708.373,1060.4 710.534,1062.03 712.695,1063.64 714.855,1065.24 717.016,1066.83 719.177,1068.41 721.338,1069.98 723.499,1071.54 725.659,1073.09 727.82,1074.63 729.981,1076.16 732.142,1077.68 734.303,1079.19 736.464,1080.69 738.624,1082.18 740.785,1083.65 742.946,1085.12 745.107,1086.58 747.268,1088.03 749.428,1089.48 751.589,1090.91 753.75,1092.33 755.911,1093.74 758.072,1095.15 760.233,1096.54 762.393,1097.92 764.554,1099.3 766.715,1100.67 768.876,1102.03 771.037,1103.37 773.197,1104.71 775.358,1106.05 777.519,1107.37 779.68,1108.68 781.841,1109.99 784.002,1111.29 786.162,1112.57 788.323,1113.85 790.484,1115.13 792.645,1116.39 794.806,1117.64 796.966,1118.89 799.127,1120.13 801.288,1121.36 803.449,1122.58 805.61,1123.8 807.771,1125 809.931,1126.2 812.092,1127.39 814.253,1128.58 816.414,1129.75 818.575,1130.92 820.735,1132.08 822.896,1133.24 825.057,1134.38 827.218,1135.52 829.379,1136.65 831.54,1137.77 833.7,1138.89 835.861,1140 838.022,1141.1 840.183,1142.19 842.344,1143.28 844.504,1144.36 846.665,1145.44 848.826,1146.5 850.987,1147.56 853.148,1148.61 855.309,1149.66 857.469,1150.7 859.63,1151.73 861.791,1152.76 863.952,1153.78 866.113,1154.79 868.273,1155.8 870.434,1156.8 872.595,1157.79 874.756,1158.78 876.917,1159.76 879.078,1160.73 881.238,1161.7 883.399,1162.66 885.56,1163.62 887.721,1164.57 889.882,1165.51 892.042,1166.45 894.203,1167.38 896.364,1168.3 898.525,1169.22 900.686,1170.13 902.847,1171.04 905.007,1171.94 907.168,1172.84 909.329,1173.73 911.49,1174.61 913.651,1175.49 915.811,1176.36 917.972,1177.23 920.133,1178.09 922.294,1178.95 924.455,1179.8 926.616,1180.65 928.776,1181.49 930.937,1182.32 933.098,1183.15 935.259,1183.97 937.42,1184.79 939.58,1185.6 941.741,1186.41 943.902,1187.21 946.063,1188.01 948.224,1188.8 950.385,1189.59 952.545,1190.37 954.706,1191.15 956.867,1191.92 959.028,1192.69 961.189,1193.45 963.349,1194.21 965.51,1194.96 967.671,1195.71 969.832,1196.45 971.993,1197.19 974.154,1197.92 976.314,1198.65 978.475,1199.38 980.636,1200.1 982.797,1200.81 984.958,1201.52 987.118,1202.23 989.279,1202.93 991.44,1203.63 993.601,1204.32 995.762,1205.01 997.923,1205.69 1000.08,1206.37 1002.24,1207.04 1004.41,1207.71 1006.57,1208.38 1008.73,1209.04 1010.89,1209.7 1013.05,1210.35 1015.21,1211 1017.37,1211.65 1019.53,1212.29 1021.69,1212.93 1023.85,1213.56 1026.01,1214.19 1028.17,1214.81 1030.33,1215.43 1032.5,1216.05 1034.66,1216.67 1036.82,1217.27 1038.98,1217.88 1041.14,1218.48 1043.3,1219.08 1045.46,1219.67 1047.62,1220.26 1049.78,1220.85 1051.94,1221.43 1054.1,1222.01 1056.26,1222.59 1058.43,1223.16 1060.59,1223.73 1062.75,1224.29 1064.91,1224.86 1067.07,1225.41 1069.23,1225.97 1071.39,1226.52 1073.55,1227.07 1075.71,1227.61 1077.87,1228.15 1080.03,1228.69 1082.19,1229.22 1084.36,1229.75 1086.52,1230.28 1088.68,1230.8 1090.84,1231.32 1093,1231.84 1095.16,1232.35 1097.32,1232.87 1099.48,1233.37 1101.64,1233.88 1103.8,1234.38 1105.96,1234.88 1108.12,1235.37 1110.29,1235.86 1112.45,1236.35 1114.61,1236.84 1116.77,1237.32 1118.93,1237.8 1121.09,1238.27 1123.25,1238.75 1125.41,1239.22 1127.57,1239.69 1129.73,1240.15 1131.89,1240.61 1134.05,1241.07 1136.21,1241.53 1138.38,1241.98 1140.54,1242.43 1142.7,1242.88 1144.86,1243.32 1147.02,1243.76 1149.18,1244.2 1151.34,1244.64 1153.5,1245.07 1155.66,1245.5 1157.82,1245.93 1159.98,1246.35 1162.14,1246.77 1164.31,1247.19 1166.47,1247.61 1168.63,1248.03 1170.79,1248.44 1172.95,1248.85 1175.11,1249.25 1177.27,1249.66 1179.43,1250.06 1181.59,1250.46 1183.75,1250.85 1185.91,1251.25 1188.07,1251.64 1190.24,1252.03 1192.4,1252.42 1194.56,1252.8 1196.72,1253.18 1198.88,1253.56 1201.04,1253.94 1203.2,1254.31 1205.36,1254.68 1207.52,1255.05 1209.68,1255.42 1211.84,1255.79 1214,1256.15 1216.17,1256.51 1218.33,1256.87 1220.49,1257.22 1222.65,1257.58 1224.81,1257.93 1226.97,1258.28 1229.13,1258.63 1231.29,1258.97 1233.45,1259.31 1235.61,1259.66 1237.77,1259.99 1239.93,1260.33 1242.1,1260.66 1244.26,1261 1246.42,1261.33 1248.58,1261.66 1250.74,1261.98 1252.9,1262.31 1255.06,1262.63 1257.22,1262.95 1259.38,1263.27 1261.54,1263.58 1263.7,1263.9 1265.86,1264.21 1268.02,1264.52 1270.19,1264.83 1272.35,1265.13 1274.51,1265.44 1276.67,1265.74 1278.83,1266.04 1280.99,1266.34 1283.15,1266.64 1285.31,1266.93 1287.47,1267.23 1289.63,1267.52 1291.79,1267.81 1293.95,1268.1 1296.12,1268.38 1298.28,1268.67 1300.44,1268.95 1302.6,1269.23 1304.76,1269.51 1306.92,1269.79 1309.08,1270.06 1311.24,1270.34 1313.4,1270.61 1315.56,1270.88 1317.72,1271.15 1319.88,1271.42 1322.05,1271.68 1324.21,1271.95 1326.37,1272.21 1328.53,1272.47 1330.69,1272.73 1332.85,1272.99 1335.01,1273.25 1337.17,1273.5 1339.33,1273.75 1341.49,1274.01 1343.65,1274.26 1345.81,1274.5 1347.98,1274.75 1350.14,1275 1352.3,1275.24 1354.46,1275.48 1356.62,1275.72 1358.78,1275.96 1360.94,1276.2 1363.1,1276.44 1365.26,1276.67 1367.42,1276.91 1369.58,1277.14 1371.74,1277.37 1373.91,1277.6 1376.07,1277.83 1378.23,1278.05 1380.39,1278.28 1382.55,1278.5 1384.71,1278.72 1386.87,1278.94 1389.03,1279.16 1391.19,1279.38 1393.35,1279.6 1395.51,1279.81 1397.67,1280.03 1399.83,1280.24 1402,1280.45 1404.16,1280.66 1406.32,1280.87 1408.48,1281.08 1410.64,1281.28 1412.8,1281.49 1414.96,1281.69 1417.12,1281.89 1419.28,1282.1 1421.44,1282.29 1423.6,1282.49 1425.76,1282.69 1427.93,1282.89 1430.09,1283.08 1432.25,1283.28 1434.41,1283.47 1436.57,1283.66 1438.73,1283.85 1440.89,1284.04 1443.05,1284.23 1445.21,1284.41 1447.37,1284.6 1449.53,1284.78 1451.69,1284.96 1453.86,1285.15 1456.02,1285.33 1458.18,1285.51 1460.34,1285.69 1462.5,1285.86 1464.66,1286.04 1466.82,1286.21 1468.98,1286.39 1471.14,1286.56 1473.3,1286.73 1475.46,1286.9 1477.62,1287.07 1479.79,1287.24 1481.95,1287.41 1484.11,1287.58 1486.27,1287.74 1488.43,1287.91 1490.59,1288.07 1492.75,1288.23 1494.91,1288.39 1497.07,1288.56 1499.23,1288.71 1501.39,1288.87 1503.55,1289.03 1505.71,1289.19 1507.88,1289.34 1510.04,1289.5 1512.2,1289.65 1514.36,1289.8 1516.52,1289.96 1518.68,1290.11 1520.84,1290.26 1523,1290.41 1525.16,1290.55 1527.32,1290.7 1529.48,1290.85 1531.64,1290.99 1533.81,1291.14 1535.97,1291.28 1538.13,1291.42 1540.29,1291.57 1542.45,1291.71 1544.61,1291.85 1546.77,1291.99 1548.93,1292.13 1551.09,1292.26 1553.25,1292.4 1555.41,1292.54 1557.57,1292.67 1559.74,1292.81 1561.9,1292.94 1564.06,1293.07 1566.22,1293.2 1568.38,1293.34 1570.54,1293.47 1572.7,1293.6 1574.86,1293.72 1577.02,1293.85 1579.18,1293.98 1581.34,1294.11 1583.5,1294.23 1585.67,1294.36 1587.83,1294.48 1589.99,1294.6 1592.15,1294.73 1594.31,1294.85 1596.47,1294.97 1598.63,1295.09 1600.79,1295.21 1602.95,1295.33 1605.11,1295.45 1607.27,1295.57 1609.43,1295.68 1611.6,1295.8 1613.76,1295.91 1615.92,1296.03 1618.08,1296.14 1620.24,1296.26 1622.4,1296.37 1624.56,1296.48 1626.72,1296.59 1628.88,1296.7 1631.04,1296.81 1633.2,1296.92 1635.36,1297.03 1637.52,1297.14 1639.69,1297.25 1641.85,1297.36 1644.01,1297.46 1646.17,1297.57 1648.33,1297.67 1650.49,1297.78 1652.65,1297.88 1654.81,1297.98 1656.97,1298.09 1659.13,1298.19 1661.29,1298.29 1663.45,1298.39 1665.62,1298.49 1667.78,1298.59 1669.94,1298.69 1672.1,1298.79 1674.26,1298.88 1676.42,1298.98 1678.58,1299.08 1680.74,1299.17 1682.9,1299.27 1685.06,1299.36 1687.22,1299.45 1689.38,1299.55 1691.55,1299.64 1693.71,1299.73 1695.87,1299.82 1698.03,1299.92 1700.19,1300.01 1702.35,1300.1 1704.51,1300.19 1706.67,1300.27 1708.83,1300.36 1710.99,1300.45 1713.15,1300.54 1715.31,1300.62 1717.48,1300.71 1719.64,1300.8 1721.8,1300.88 1723.96,1300.97 1726.12,1301.05 1728.28,1301.13 1730.44,1301.22 1732.6,1301.3 1734.76,1301.38 1736.92,1301.46 1739.08,1301.54 1741.24,1301.62 1743.41,1301.7 1745.57,1301.78 1747.73,1301.86 1749.89,1301.94 1752.05,1302.02 1754.21,1302.1 1756.37,1302.17 1758.53,1302.25 1760.69,1302.33 1762.85,1302.4 1765.01,1302.48 1767.17,1302.55 1769.33,1302.63 1771.5,1302.7 1773.66,1302.77 1775.82,1302.84 1777.98,1302.92 1780.14,1302.99 1782.3,1303.06 1784.46,1303.13 1786.62,1303.2 1788.78,1303.27 1790.94,1303.34 1793.1,1303.41 1795.26,1303.48 1797.43,1303.55 1799.59,1303.62 1801.75,1303.68 1803.91,1303.75 1806.07,1303.82 1808.23,1303.88 1810.39,1303.95 1812.55,1304.02 1814.71,1304.08 1816.87,1304.15 1819.03,1304.21 1821.19,1304.27 1823.36,1304.34 1825.52,1304.4 1827.68,1304.46 1829.84,1304.53 1832,1304.59 1834.16,1304.65 1836.32,1304.71 1838.48,1304.77 1840.64,1304.83 1842.8,1304.89 1844.96,1304.95 1847.12,1305.01 1849.29,1305.07 1851.45,1305.13 1853.61,1305.19 1855.77,1305.24 1857.93,1305.3 1860.09,1305.36 1862.25,1305.42 1864.41,1305.47 1866.57,1305.53 1868.73,1305.58 1870.89,1305.64 1873.05,1305.69 1875.21,1305.75 1877.38,1305.8 1879.54,1305.86 1881.7,1305.91 1883.86,1305.97 1886.02,1306.02 1888.18,1306.07 1890.34,1306.12 1892.5,1306.18 1894.66,1306.23 1896.82,1306.28 1898.98,1306.33 1901.14,1306.38 1903.31,1306.43 1905.47,1306.48 1907.63,1306.53 1909.79,1306.58 1911.95,1306.63 1914.11,1306.68 1916.27,1306.73 1918.43,1306.78 1920.59,1306.83 1922.75,1306.88 1924.91,1306.92 1927.07,1306.97 1929.24,1307.02 1931.4,1307.07 1933.56,1307.11 1935.72,1307.16 1937.88,1307.21 1940.04,1307.25 1942.2,1307.3 1944.36,1307.34 1946.52,1307.39 1948.68,1307.43 1950.84,1307.48 1953,1307.52 1955.17,1307.57 1957.33,1307.61 1959.49,1307.65 1961.65,1307.7 1963.81,1307.74 1965.97,1307.78 1968.13,1307.83 1970.29,1307.87 1972.45,1307.91 1974.61,1307.95 1976.77,1307.99 1978.93,1308.04 1981.1,1308.08 1983.26,1308.12 1985.42,1308.16 1987.58,1308.2 1989.74,1308.24 1991.9,1308.28 1994.06,1308.32 1996.22,1308.36 1998.38,1308.4 2000.54,1308.44 2002.7,1308.47 2004.86,1308.51 2007.02,1308.55 2009.19,1308.59 2011.35,1308.63 2013.51,1308.66 2015.67,1308.7 2017.83,1308.74 2019.99,1308.78 2022.15,1308.81 2024.31,1308.85 2026.47,1308.89 2028.63,1308.92 2030.79,1308.96 2032.95,1308.99 2035.12,1309.03 2037.28,1309.06 2039.44,1309.1 2041.6,1309.13 2043.76,1309.17 2045.92,1309.2 2048.08,1309.24 2050.24,1309.27 2052.4,1309.3 2054.56,1309.34 2056.72,1309.37 2058.88,1309.4 2061.05,1309.44 2063.21,1309.47 2065.37,1309.5 2067.53,1309.53 2069.69,1309.57 2071.85,1309.6 2074.01,1309.63 2076.17,1309.66 2078.33,1309.69 2080.49,1309.72 2082.65,1309.75 2084.81,1309.78 2086.98,1309.82 2089.14,1309.85 2091.3,1309.88 2093.46,1309.91 2095.62,1309.94 2097.78,1309.96 2099.94,1309.99 2102.1,1310.02 2104.26,1310.05 2106.42,1310.08 2108.58,1310.11 2110.74,1310.14 2112.91,1310.17 2115.07,1310.19 2117.23,1310.22 2119.39,1310.25 2121.55,1310.28 2123.71,1310.31 2125.87,1310.33 2128.03,1310.36 2130.19,1310.39 2132.35,1310.41 2134.51,1310.44 2136.67,1310.47 2138.83,1310.49 2141,1310.52 2143.16,1310.54 2145.32,1310.57 2147.48,1310.6 2149.64,1310.62 2151.8,1310.65 2153.96,1310.67 2156.12,1310.7 2158.28,1310.72 2160.44,1310.75 2162.6,1310.77 2164.76,1310.79 2166.93,1310.82 2169.09,1310.84 2171.25,1310.87 2173.41,1310.89 2175.57,1310.91 2177.73,1310.94 2179.89,1310.96 2182.05,1310.98 2184.21,1311.01 2186.37,1311.03 2188.53,1311.05 2190.69,1311.07 2192.86,1311.1 2195.02,1311.12 2197.18,1311.14 2199.34,1311.16 2201.5,1311.19 2203.66,1311.21 2205.82,1311.23 2207.98,1311.25 2210.14,1311.27 2212.3,1311.29 2214.46,1311.31 2216.62,1311.33 2218.79,1311.36 2220.95,1311.38 2223.11,1311.4 2225.27,1311.42 2227.43,1311.44 2229.59,1311.46 2231.75,1311.48 2233.91,1311.5 2236.07,1311.52 2238.23,1311.54 2240.39,1311.56 2242.55,1311.58 2244.71,1311.59 2246.88,1311.61 2249.04,1311.63 2251.2,1311.65 2253.36,1311.67 2255.52,1311.69 2257.68,1311.71 2259.84,1311.73 2262,1311.74 2264.16,1311.76 2266.32,1311.78 2268.48,1311.8 2270.64,1311.82 2272.81,1311.83 2274.97,1311.85 2277.13,1311.87 2279.29,1311.89 2281.45,1311.91 2283.61,1311.92 2285.77,1311.94 2287.93,1311.96 2290.09,1311.97 2292.25,1311.99 2294.41,1312.01 2296.57,1312.02 2298.74,1312.04 2300.9,1312.06 2303.06,1312.07 2305.22,1312.09 2307.38,1312.11 2309.54,1312.12 2311.7,1312.14 2313.86,1312.15 2316.02,1312.17 2318.18,1312.19 2320.34,1312.2 2322.5,1312.22 2324.67,1312.23 2326.83,1312.25 2328.99,1312.26 2331.15,1312.28 2333.31,1312.29 2335.47,1312.31 2337.63,1312.32 2339.79,1312.34 2341.95,1312.35 2344.11,1312.37 2346.27,1312.38 2348.43,1312.4 2350.6,1312.41 2352.76,1312.43 "/>
<path clip-path="url(#clip360)" d="M1805.54 248.629 L2280.8 248.629 L2280.8 93.1086 L1805.54 93.1086  Z" fill="#ffffff" fill-rule="evenodd" fill-opacity="1"/>
<polyline clip-path="url(#clip360)" style="stroke:#000000; stroke-linecap:round; stroke-linejoin:round; stroke-width:4; stroke-opacity:1; fill:none" points="1805.54,248.629 2280.8,248.629 2280.8,93.1086 1805.54,93.1086 1805.54,248.629 "/>
<polyline clip-path="url(#clip360)" style="stroke:#009af9; stroke-linecap:round; stroke-linejoin:round; stroke-width:4; stroke-opacity:1; fill:none" points="1829.52,144.949 1973.43,144.949 "/>
<path clip-path="url(#clip360)" d="M1997.42 136.303 L2001.93 136.303 L2010.03 158.062 L2018.14 136.303 L2022.65 136.303 L2012.93 162.229 L2007.14 162.229 L1997.42 136.303 Z" fill="#000000" fill-rule="nonzero" fill-opacity="1" /><path clip-path="url(#clip360)" d="M2029.94 158.293 L2037.58 158.293 L2037.58 131.928 L2029.27 133.595 L2029.27 129.335 L2037.53 127.669 L2042.21 127.669 L2042.21 158.293 L2049.85 158.293 L2049.85 162.229 L2029.94 162.229 L2029.94 158.293 Z" fill="#000000" fill-rule="nonzero" fill-opacity="1" /><path clip-path="url(#clip360)" d="M2067.95 145.585 L2067.95 152.807 L2076.08 152.807 L2076.08 155.006 L2067.95 155.006 L2067.95 162.229 L2065.52 162.229 L2065.52 155.006 L2057.4 155.006 L2057.4 152.807 L2065.52 152.807 L2065.52 145.585 L2067.95 145.585 Z" fill="#000000" fill-rule="nonzero" fill-opacity="1" /><path clip-path="url(#clip360)" d="M2100.24 137.067 L2100.24 141.094 Q2098.44 140.169 2096.49 139.706 Q2094.55 139.243 2092.46 139.243 Q2089.29 139.243 2087.7 140.215 Q2086.12 141.187 2086.12 143.131 Q2086.12 144.613 2087.26 145.469 Q2088.39 146.303 2091.82 147.067 L2093.27 147.391 Q2097.81 148.363 2099.71 150.145 Q2101.63 151.905 2101.63 155.076 Q2101.63 158.687 2098.76 160.793 Q2095.91 162.9 2090.91 162.9 Q2088.83 162.9 2086.56 162.483 Q2084.32 162.09 2081.82 161.28 L2081.82 156.881 Q2084.18 158.108 2086.47 158.733 Q2088.76 159.335 2091.01 159.335 Q2094.02 159.335 2095.64 158.317 Q2097.26 157.275 2097.26 155.4 Q2097.26 153.664 2096.08 152.738 Q2094.92 151.812 2090.96 150.956 L2089.48 150.608 Q2085.52 149.775 2083.76 148.062 Q2082 146.326 2082 143.317 Q2082 139.659 2084.59 137.669 Q2087.19 135.678 2091.96 135.678 Q2094.32 135.678 2096.4 136.025 Q2098.48 136.372 2100.24 137.067 Z" fill="#000000" fill-rule="nonzero" fill-opacity="1" /><path clip-path="url(#clip360)" d="M2112.63 128.942 L2112.63 136.303 L2121.4 136.303 L2121.4 139.613 L2112.63 139.613 L2112.63 153.687 Q2112.63 156.858 2113.48 157.761 Q2114.36 158.664 2117.02 158.664 L2121.4 158.664 L2121.4 162.229 L2117.02 162.229 Q2112.09 162.229 2110.22 160.4 Q2108.34 158.548 2108.34 153.687 L2108.34 139.613 L2105.22 139.613 L2105.22 136.303 L2108.34 136.303 L2108.34 128.942 L2112.63 128.942 Z" fill="#000000" fill-rule="nonzero" fill-opacity="1" /><path clip-path="url(#clip360)" d="M2137.05 139.289 Q2133.62 139.289 2131.63 141.974 Q2129.64 144.636 2129.64 149.289 Q2129.64 153.942 2131.61 156.627 Q2133.6 159.289 2137.05 159.289 Q2140.45 159.289 2142.44 156.604 Q2144.43 153.918 2144.43 149.289 Q2144.43 144.682 2142.44 141.997 Q2140.45 139.289 2137.05 139.289 M2137.05 135.678 Q2142.6 135.678 2145.77 139.289 Q2148.95 142.9 2148.95 149.289 Q2148.95 155.655 2145.77 159.289 Q2142.6 162.9 2137.05 162.9 Q2131.47 162.9 2128.3 159.289 Q2125.15 155.655 2125.15 149.289 Q2125.15 142.9 2128.3 139.289 Q2131.47 135.678 2137.05 135.678 Z" fill="#000000" fill-rule="nonzero" fill-opacity="1" /><path clip-path="url(#clip360)" d="M2171.03 140.284 Q2170.31 139.868 2169.45 139.682 Q2168.62 139.474 2167.6 139.474 Q2163.99 139.474 2162.05 141.835 Q2160.13 144.173 2160.13 148.571 L2160.13 162.229 L2155.84 162.229 L2155.84 136.303 L2160.13 136.303 L2160.13 140.331 Q2161.47 137.969 2163.62 136.835 Q2165.77 135.678 2168.85 135.678 Q2169.29 135.678 2169.83 135.747 Q2170.36 135.794 2171.01 135.909 L2171.03 140.284 Z" fill="#000000" fill-rule="nonzero" fill-opacity="1" /><path clip-path="url(#clip360)" d="M2187.28 149.196 Q2182.12 149.196 2180.13 150.377 Q2178.14 151.557 2178.14 154.405 Q2178.14 156.673 2179.62 158.016 Q2181.12 159.335 2183.69 159.335 Q2187.23 159.335 2189.36 156.835 Q2191.51 154.312 2191.51 150.145 L2191.51 149.196 L2187.28 149.196 M2195.77 147.437 L2195.77 162.229 L2191.51 162.229 L2191.51 158.293 Q2190.06 160.655 2187.88 161.789 Q2185.7 162.9 2182.56 162.9 Q2178.58 162.9 2176.21 160.678 Q2173.88 158.432 2173.88 154.682 Q2173.88 150.307 2176.79 148.085 Q2179.73 145.863 2185.54 145.863 L2191.51 145.863 L2191.51 145.446 Q2191.51 142.507 2189.57 140.909 Q2187.65 139.289 2184.15 139.289 Q2181.93 139.289 2179.83 139.821 Q2177.72 140.354 2175.77 141.419 L2175.77 137.483 Q2178.11 136.581 2180.31 136.141 Q2182.51 135.678 2184.59 135.678 Q2190.22 135.678 2193 138.594 Q2195.77 141.511 2195.77 147.437 Z" fill="#000000" fill-rule="nonzero" fill-opacity="1" /><path clip-path="url(#clip360)" d="M2221.61 148.965 Q2221.61 144.335 2219.69 141.789 Q2217.79 139.243 2214.34 139.243 Q2210.91 139.243 2208.99 141.789 Q2207.09 144.335 2207.09 148.965 Q2207.09 153.571 2208.99 156.118 Q2210.91 158.664 2214.34 158.664 Q2217.79 158.664 2219.69 156.118 Q2221.61 153.571 2221.61 148.965 M2225.87 159.011 Q2225.87 165.631 2222.93 168.849 Q2219.99 172.09 2213.92 172.09 Q2211.68 172.09 2209.69 171.742 Q2207.7 171.418 2205.82 170.724 L2205.82 166.58 Q2207.7 167.599 2209.52 168.085 Q2211.35 168.571 2213.25 168.571 Q2217.44 168.571 2219.52 166.372 Q2221.61 164.196 2221.61 159.775 L2221.61 157.668 Q2220.29 159.96 2218.23 161.094 Q2216.17 162.229 2213.3 162.229 Q2208.53 162.229 2205.61 158.594 Q2202.7 154.96 2202.7 148.965 Q2202.7 142.946 2205.61 139.312 Q2208.53 135.678 2213.3 135.678 Q2216.17 135.678 2218.23 136.812 Q2220.29 137.946 2221.61 140.238 L2221.61 136.303 L2225.87 136.303 L2225.87 159.011 Z" fill="#000000" fill-rule="nonzero" fill-opacity="1" /><path clip-path="url(#clip360)" d="M2256.82 148.201 L2256.82 150.284 L2237.23 150.284 Q2237.51 154.682 2239.87 156.997 Q2242.26 159.289 2246.49 159.289 Q2248.95 159.289 2251.24 158.687 Q2253.55 158.085 2255.82 156.881 L2255.82 160.909 Q2253.53 161.881 2251.12 162.391 Q2248.71 162.9 2246.24 162.9 Q2240.03 162.9 2236.4 159.289 Q2232.79 155.678 2232.79 149.52 Q2232.79 143.155 2236.21 139.428 Q2239.66 135.678 2245.5 135.678 Q2250.73 135.678 2253.76 139.057 Q2256.82 142.414 2256.82 148.201 M2252.56 146.951 Q2252.51 143.456 2250.59 141.372 Q2248.69 139.289 2245.54 139.289 Q2241.98 139.289 2239.82 141.303 Q2237.7 143.317 2237.37 146.974 L2252.56 146.951 Z" fill="#000000" fill-rule="nonzero" fill-opacity="1" /><polyline clip-path="url(#clip360)" style="stroke:#e26f46; stroke-linecap:round; stroke-linejoin:round; stroke-width:4; stroke-opacity:1; fill:none" points="1829.52,196.789 1973.43,196.789 "/>
<path clip-path="url(#clip360)" d="M1997.42 188.143 L2001.93 188.143 L2010.03 209.902 L2018.14 188.143 L2022.65 188.143 L2012.93 214.069 L2007.14 214.069 L1997.42 188.143 Z" fill="#000000" fill-rule="nonzero" fill-opacity="1" /><path clip-path="url(#clip360)" d="M2029.18 179.509 L2047.53 179.509 L2047.53 183.444 L2033.46 183.444 L2033.46 191.916 Q2034.48 191.569 2035.5 191.407 Q2036.52 191.222 2037.53 191.222 Q2043.32 191.222 2046.7 194.393 Q2050.08 197.564 2050.08 202.981 Q2050.08 208.559 2046.61 211.661 Q2043.14 214.74 2036.82 214.74 Q2034.64 214.74 2032.37 214.37 Q2030.13 213.999 2027.72 213.258 L2027.72 208.559 Q2029.8 209.694 2032.03 210.249 Q2034.25 210.805 2036.72 210.805 Q2040.73 210.805 2043.07 208.698 Q2045.4 206.592 2045.4 202.981 Q2045.4 199.37 2043.07 197.263 Q2040.73 195.157 2036.72 195.157 Q2034.85 195.157 2032.97 195.573 Q2031.12 195.99 2029.18 196.87 L2029.18 179.509 Z" fill="#000000" fill-rule="nonzero" fill-opacity="1" /><path clip-path="url(#clip360)" d="M2067.95 197.425 L2067.95 204.647 L2076.08 204.647 L2076.08 206.846 L2067.95 206.846 L2067.95 214.069 L2065.52 214.069 L2065.52 206.846 L2057.4 206.846 L2057.4 204.647 L2065.52 204.647 L2065.52 197.425 L2067.95 197.425 Z" fill="#000000" fill-rule="nonzero" fill-opacity="1" /><path clip-path="url(#clip360)" d="M2100.24 188.907 L2100.24 192.934 Q2098.44 192.009 2096.49 191.546 Q2094.55 191.083 2092.46 191.083 Q2089.29 191.083 2087.7 192.055 Q2086.12 193.027 2086.12 194.971 Q2086.12 196.453 2087.26 197.309 Q2088.39 198.143 2091.82 198.907 L2093.27 199.231 Q2097.81 200.203 2099.71 201.985 Q2101.63 203.745 2101.63 206.916 Q2101.63 210.527 2098.76 212.633 Q2095.91 214.74 2090.91 214.74 Q2088.83 214.74 2086.56 214.323 Q2084.32 213.93 2081.82 213.12 L2081.82 208.721 Q2084.18 209.948 2086.47 210.573 Q2088.76 211.175 2091.01 211.175 Q2094.02 211.175 2095.64 210.157 Q2097.26 209.115 2097.26 207.24 Q2097.26 205.504 2096.08 204.578 Q2094.92 203.652 2090.96 202.796 L2089.48 202.448 Q2085.52 201.615 2083.76 199.902 Q2082 198.166 2082 195.157 Q2082 191.499 2084.59 189.509 Q2087.19 187.518 2091.96 187.518 Q2094.32 187.518 2096.4 187.865 Q2098.48 188.212 2100.24 188.907 Z" fill="#000000" fill-rule="nonzero" fill-opacity="1" /><path clip-path="url(#clip360)" d="M2112.63 180.782 L2112.63 188.143 L2121.4 188.143 L2121.4 191.453 L2112.63 191.453 L2112.63 205.527 Q2112.63 208.698 2113.48 209.601 Q2114.36 210.504 2117.02 210.504 L2121.4 210.504 L2121.4 214.069 L2117.02 214.069 Q2112.09 214.069 2110.22 212.24 Q2108.34 210.388 2108.34 205.527 L2108.34 191.453 L2105.22 191.453 L2105.22 188.143 L2108.34 188.143 L2108.34 180.782 L2112.63 180.782 Z" fill="#000000" fill-rule="nonzero" fill-opacity="1" /><path clip-path="url(#clip360)" d="M2137.05 191.129 Q2133.62 191.129 2131.63 193.814 Q2129.64 196.476 2129.64 201.129 Q2129.64 205.782 2131.61 208.467 Q2133.6 211.129 2137.05 211.129 Q2140.45 211.129 2142.44 208.444 Q2144.43 205.758 2144.43 201.129 Q2144.43 196.522 2142.44 193.837 Q2140.45 191.129 2137.05 191.129 M2137.05 187.518 Q2142.6 187.518 2145.77 191.129 Q2148.95 194.74 2148.95 201.129 Q2148.95 207.495 2145.77 211.129 Q2142.6 214.74 2137.05 214.74 Q2131.47 214.74 2128.3 211.129 Q2125.15 207.495 2125.15 201.129 Q2125.15 194.74 2128.3 191.129 Q2131.47 187.518 2137.05 187.518 Z" fill="#000000" fill-rule="nonzero" fill-opacity="1" /><path clip-path="url(#clip360)" d="M2171.03 192.124 Q2170.31 191.708 2169.45 191.522 Q2168.62 191.314 2167.6 191.314 Q2163.99 191.314 2162.05 193.675 Q2160.13 196.013 2160.13 200.411 L2160.13 214.069 L2155.84 214.069 L2155.84 188.143 L2160.13 188.143 L2160.13 192.171 Q2161.47 189.809 2163.62 188.675 Q2165.77 187.518 2168.85 187.518 Q2169.29 187.518 2169.83 187.587 Q2170.36 187.634 2171.01 187.749 L2171.03 192.124 Z" fill="#000000" fill-rule="nonzero" fill-opacity="1" /><path clip-path="url(#clip360)" d="M2187.28 201.036 Q2182.12 201.036 2180.13 202.217 Q2178.14 203.397 2178.14 206.245 Q2178.14 208.513 2179.62 209.856 Q2181.12 211.175 2183.69 211.175 Q2187.23 211.175 2189.36 208.675 Q2191.51 206.152 2191.51 201.985 L2191.51 201.036 L2187.28 201.036 M2195.77 199.277 L2195.77 214.069 L2191.51 214.069 L2191.51 210.133 Q2190.06 212.495 2187.88 213.629 Q2185.7 214.74 2182.56 214.74 Q2178.58 214.74 2176.21 212.518 Q2173.88 210.272 2173.88 206.522 Q2173.88 202.147 2176.79 199.925 Q2179.73 197.703 2185.54 197.703 L2191.51 197.703 L2191.51 197.286 Q2191.51 194.347 2189.57 192.749 Q2187.65 191.129 2184.15 191.129 Q2181.93 191.129 2179.83 191.661 Q2177.72 192.194 2175.77 193.259 L2175.77 189.323 Q2178.11 188.421 2180.31 187.981 Q2182.51 187.518 2184.59 187.518 Q2190.22 187.518 2193 190.434 Q2195.77 193.351 2195.77 199.277 Z" fill="#000000" fill-rule="nonzero" fill-opacity="1" /><path clip-path="url(#clip360)" d="M2221.61 200.805 Q2221.61 196.175 2219.69 193.629 Q2217.79 191.083 2214.34 191.083 Q2210.91 191.083 2208.99 193.629 Q2207.09 196.175 2207.09 200.805 Q2207.09 205.411 2208.99 207.958 Q2210.91 210.504 2214.34 210.504 Q2217.79 210.504 2219.69 207.958 Q2221.61 205.411 2221.61 200.805 M2225.87 210.851 Q2225.87 217.471 2222.93 220.689 Q2219.99 223.93 2213.92 223.93 Q2211.68 223.93 2209.69 223.582 Q2207.7 223.258 2205.82 222.564 L2205.82 218.42 Q2207.7 219.439 2209.52 219.925 Q2211.35 220.411 2213.25 220.411 Q2217.44 220.411 2219.52 218.212 Q2221.61 216.036 2221.61 211.615 L2221.61 209.508 Q2220.29 211.8 2218.23 212.934 Q2216.17 214.069 2213.3 214.069 Q2208.53 214.069 2205.61 210.434 Q2202.7 206.8 2202.7 200.805 Q2202.7 194.786 2205.61 191.152 Q2208.53 187.518 2213.3 187.518 Q2216.17 187.518 2218.23 188.652 Q2220.29 189.786 2221.61 192.078 L2221.61 188.143 L2225.87 188.143 L2225.87 210.851 Z" fill="#000000" fill-rule="nonzero" fill-opacity="1" /><path clip-path="url(#clip360)" d="M2256.82 200.041 L2256.82 202.124 L2237.23 202.124 Q2237.51 206.522 2239.87 208.837 Q2242.26 211.129 2246.49 211.129 Q2248.95 211.129 2251.24 210.527 Q2253.55 209.925 2255.82 208.721 L2255.82 212.749 Q2253.53 213.721 2251.12 214.231 Q2248.71 214.74 2246.24 214.74 Q2240.03 214.74 2236.4 211.129 Q2232.79 207.518 2232.79 201.36 Q2232.79 194.995 2236.21 191.268 Q2239.66 187.518 2245.5 187.518 Q2250.73 187.518 2253.76 190.897 Q2256.82 194.254 2256.82 200.041 M2252.56 198.791 Q2252.51 195.296 2250.59 193.212 Q2248.69 191.129 2245.54 191.129 Q2241.98 191.129 2239.82 193.143 Q2237.7 195.157 2237.37 198.814 L2252.56 198.791 Z" fill="#000000" fill-rule="nonzero" fill-opacity="1" /></svg>
