<?xml version="1.0" encoding="utf-8"?>
<svg xmlns="http://www.w3.org/2000/svg" xmlns:xlink="http://www.w3.org/1999/xlink" width="600" height="400" viewBox="0 0 2400 1600">
<defs>
  <clipPath id="clip720">
    <rect x="0" y="0" width="2400" height="1600"/>
  </clipPath>
</defs>
<path clip-path="url(#clip720)" d="M0 1600 L2400 1600 L2400 0 L0 0  Z" fill="#ffffff" fill-rule="evenodd" fill-opacity="1"/>
<defs>
  <clipPath id="clip721">
    <rect x="480" y="0" width="1681" height="1600"/>
  </clipPath>
</defs>
<path clip-path="url(#clip720)" d="M186.274 1423.18 L2352.76 1423.18 L2352.76 47.2441 L186.274 47.2441  Z" fill="#ffffff" fill-rule="evenodd" fill-opacity="1"/>
<defs>
  <clipPath id="clip722">
    <rect x="186" y="47" width="2167" height="1377"/>
  </clipPath>
</defs>
<polyline clip-path="url(#clip722)" style="stroke:#000000; stroke-linecap:round; stroke-linejoin:round; stroke-width:2; stroke-opacity:0.1; fill:none" points="186.274,1423.18 186.274,47.2441 "/>
<polyline clip-path="url(#clip722)" style="stroke:#000000; stroke-linecap:round; stroke-linejoin:round; stroke-width:2; stroke-opacity:0.1; fill:none" points="727.894,1423.18 727.894,47.2441 "/>
<polyline clip-path="url(#clip722)" style="stroke:#000000; stroke-linecap:round; stroke-linejoin:round; stroke-width:2; stroke-opacity:0.1; fill:none" points="1269.51,1423.18 1269.51,47.2441 "/>
<polyline clip-path="url(#clip722)" style="stroke:#000000; stroke-linecap:round; stroke-linejoin:round; stroke-width:2; stroke-opacity:0.1; fill:none" points="1811.14,1423.18 1811.14,47.2441 "/>
<polyline clip-path="url(#clip722)" style="stroke:#000000; stroke-linecap:round; stroke-linejoin:round; stroke-width:2; stroke-opacity:0.1; fill:none" points="2352.76,1423.18 2352.76,47.2441 "/>
<polyline clip-path="url(#clip722)" style="stroke:#000000; stroke-linecap:round; stroke-linejoin:round; stroke-width:2; stroke-opacity:0.1; fill:none" points="186.274,1241.52 2352.76,1241.52 "/>
<polyline clip-path="url(#clip722)" style="stroke:#000000; stroke-linecap:round; stroke-linejoin:round; stroke-width:2; stroke-opacity:0.1; fill:none" points="186.274,937.709 2352.76,937.709 "/>
<polyline clip-path="url(#clip722)" style="stroke:#000000; stroke-linecap:round; stroke-linejoin:round; stroke-width:2; stroke-opacity:0.1; fill:none" points="186.274,633.896 2352.76,633.896 "/>
<polyline clip-path="url(#clip722)" style="stroke:#000000; stroke-linecap:round; stroke-linejoin:round; stroke-width:2; stroke-opacity:0.1; fill:none" points="186.274,330.082 2352.76,330.082 "/>
<polyline clip-path="url(#clip720)" style="stroke:#000000; stroke-linecap:round; stroke-linejoin:round; stroke-width:4; stroke-opacity:1; fill:none" points="186.274,1423.18 2352.76,1423.18 "/>
<polyline clip-path="url(#clip720)" style="stroke:#000000; stroke-linecap:round; stroke-linejoin:round; stroke-width:4; stroke-opacity:1; fill:none" points="186.274,1423.18 186.274,1404.28 "/>
<polyline clip-path="url(#clip720)" style="stroke:#000000; stroke-linecap:round; stroke-linejoin:round; stroke-width:4; stroke-opacity:1; fill:none" points="727.894,1423.18 727.894,1404.28 "/>
<polyline clip-path="url(#clip720)" style="stroke:#000000; stroke-linecap:round; stroke-linejoin:round; stroke-width:4; stroke-opacity:1; fill:none" points="1269.51,1423.18 1269.51,1404.28 "/>
<polyline clip-path="url(#clip720)" style="stroke:#000000; stroke-linecap:round; stroke-linejoin:round; stroke-width:4; stroke-opacity:1; fill:none" points="1811.14,1423.18 1811.14,1404.28 "/>
<polyline clip-path="url(#clip720)" style="stroke:#000000; stroke-linecap:round; stroke-linejoin:round; stroke-width:4; stroke-opacity:1; fill:none" points="2352.76,1423.18 2352.76,1404.28 "/>
<path clip-path="url(#clip720)" d="M163.658 1454.1 Q160.047 1454.1 158.219 1457.66 Q156.413 1461.2 156.413 1468.33 Q156.413 1475.44 158.219 1479.01 Q160.047 1482.55 163.658 1482.55 Q167.293 1482.55 169.098 1479.01 Q170.927 1475.44 170.927 1468.33 Q170.927 1461.2 169.098 1457.66 Q167.293 1454.1 163.658 1454.1 M163.658 1450.39 Q169.469 1450.39 172.524 1455 Q175.603 1459.58 175.603 1468.33 Q175.603 1477.06 172.524 1481.67 Q169.469 1486.25 163.658 1486.25 Q157.848 1486.25 154.77 1481.67 Q151.714 1477.06 151.714 1468.33 Q151.714 1459.58 154.77 1455 Q157.848 1450.39 163.658 1450.39 Z" fill="#000000" fill-rule="nonzero" fill-opacity="1" /><path clip-path="url(#clip720)" d="M183.82 1479.7 L188.705 1479.7 L188.705 1485.58 L183.82 1485.58 L183.82 1479.7 Z" fill="#000000" fill-rule="nonzero" fill-opacity="1" /><path clip-path="url(#clip720)" d="M208.89 1454.1 Q205.279 1454.1 203.45 1457.66 Q201.644 1461.2 201.644 1468.33 Q201.644 1475.44 203.45 1479.01 Q205.279 1482.55 208.89 1482.55 Q212.524 1482.55 214.329 1479.01 Q216.158 1475.44 216.158 1468.33 Q216.158 1461.2 214.329 1457.66 Q212.524 1454.1 208.89 1454.1 M208.89 1450.39 Q214.7 1450.39 217.755 1455 Q220.834 1459.58 220.834 1468.33 Q220.834 1477.06 217.755 1481.67 Q214.7 1486.25 208.89 1486.25 Q203.079 1486.25 200.001 1481.67 Q196.945 1477.06 196.945 1468.33 Q196.945 1459.58 200.001 1455 Q203.079 1450.39 208.89 1450.39 Z" fill="#000000" fill-rule="nonzero" fill-opacity="1" /><path clip-path="url(#clip720)" d="M705.777 1454.1 Q702.165 1454.1 700.337 1457.66 Q698.531 1461.2 698.531 1468.33 Q698.531 1475.44 700.337 1479.01 Q702.165 1482.55 705.777 1482.55 Q709.411 1482.55 711.216 1479.01 Q713.045 1475.44 713.045 1468.33 Q713.045 1461.2 711.216 1457.66 Q709.411 1454.1 705.777 1454.1 M705.777 1450.39 Q711.587 1450.39 714.642 1455 Q717.721 1459.58 717.721 1468.33 Q717.721 1477.06 714.642 1481.67 Q711.587 1486.25 705.777 1486.25 Q699.966 1486.25 696.888 1481.67 Q693.832 1477.06 693.832 1468.33 Q693.832 1459.58 696.888 1455 Q699.966 1450.39 705.777 1450.39 Z" fill="#000000" fill-rule="nonzero" fill-opacity="1" /><path clip-path="url(#clip720)" d="M725.938 1479.7 L730.823 1479.7 L730.823 1485.58 L725.938 1485.58 L725.938 1479.7 Z" fill="#000000" fill-rule="nonzero" fill-opacity="1" /><path clip-path="url(#clip720)" d="M741.054 1451.02 L759.411 1451.02 L759.411 1454.96 L745.337 1454.96 L745.337 1463.43 Q746.355 1463.08 747.374 1462.92 Q748.392 1462.73 749.411 1462.73 Q755.198 1462.73 758.577 1465.9 Q761.957 1469.08 761.957 1474.49 Q761.957 1480.07 758.485 1483.17 Q755.012 1486.25 748.693 1486.25 Q746.517 1486.25 744.249 1485.88 Q742.003 1485.51 739.596 1484.77 L739.596 1480.07 Q741.679 1481.2 743.901 1481.76 Q746.124 1482.32 748.6 1482.32 Q752.605 1482.32 754.943 1480.21 Q757.281 1478.1 757.281 1474.49 Q757.281 1470.88 754.943 1468.77 Q752.605 1466.67 748.6 1466.67 Q746.725 1466.67 744.85 1467.08 Q742.999 1467.5 741.054 1468.38 L741.054 1451.02 Z" fill="#000000" fill-rule="nonzero" fill-opacity="1" /><path clip-path="url(#clip720)" d="M1236.67 1481.64 L1244.31 1481.64 L1244.31 1455.28 L1236 1456.95 L1236 1452.69 L1244.26 1451.02 L1248.94 1451.02 L1248.94 1481.64 L1256.58 1481.64 L1256.58 1485.58 L1236.67 1485.58 L1236.67 1481.64 Z" fill="#000000" fill-rule="nonzero" fill-opacity="1" /><path clip-path="url(#clip720)" d="M1266.02 1479.7 L1270.9 1479.7 L1270.9 1485.58 L1266.02 1485.58 L1266.02 1479.7 Z" fill="#000000" fill-rule="nonzero" fill-opacity="1" /><path clip-path="url(#clip720)" d="M1291.09 1454.1 Q1287.48 1454.1 1285.65 1457.66 Q1283.84 1461.2 1283.84 1468.33 Q1283.84 1475.44 1285.65 1479.01 Q1287.48 1482.55 1291.09 1482.55 Q1294.72 1482.55 1296.53 1479.01 Q1298.36 1475.44 1298.36 1468.33 Q1298.36 1461.2 1296.53 1457.66 Q1294.72 1454.1 1291.09 1454.1 M1291.09 1450.39 Q1296.9 1450.39 1299.95 1455 Q1303.03 1459.58 1303.03 1468.33 Q1303.03 1477.06 1299.95 1481.67 Q1296.9 1486.25 1291.09 1486.25 Q1285.28 1486.25 1282.2 1481.67 Q1279.14 1477.06 1279.14 1468.33 Q1279.14 1459.58 1282.2 1455 Q1285.28 1450.39 1291.09 1450.39 Z" fill="#000000" fill-rule="nonzero" fill-opacity="1" /><path clip-path="url(#clip720)" d="M1778.79 1481.64 L1786.42 1481.64 L1786.42 1455.28 L1778.11 1456.95 L1778.11 1452.69 L1786.38 1451.02 L1791.05 1451.02 L1791.05 1481.64 L1798.69 1481.64 L1798.69 1485.58 L1778.79 1485.58 L1778.79 1481.64 Z" fill="#000000" fill-rule="nonzero" fill-opacity="1" /><path clip-path="url(#clip720)" d="M1808.14 1479.7 L1813.02 1479.7 L1813.02 1485.58 L1808.14 1485.58 L1808.14 1479.7 Z" fill="#000000" fill-rule="nonzero" fill-opacity="1" /><path clip-path="url(#clip720)" d="M1823.25 1451.02 L1841.61 1451.02 L1841.61 1454.96 L1827.54 1454.96 L1827.54 1463.43 Q1828.55 1463.08 1829.57 1462.92 Q1830.59 1462.73 1831.61 1462.73 Q1837.4 1462.73 1840.78 1465.9 Q1844.16 1469.08 1844.16 1474.49 Q1844.16 1480.07 1840.68 1483.17 Q1837.21 1486.25 1830.89 1486.25 Q1828.72 1486.25 1826.45 1485.88 Q1824.2 1485.51 1821.8 1484.77 L1821.8 1480.07 Q1823.88 1481.2 1826.1 1481.76 Q1828.32 1482.32 1830.8 1482.32 Q1834.8 1482.32 1837.14 1480.21 Q1839.48 1478.1 1839.48 1474.49 Q1839.48 1470.88 1837.14 1468.77 Q1834.8 1466.67 1830.8 1466.67 Q1828.92 1466.67 1827.05 1467.08 Q1825.2 1467.5 1823.25 1468.38 L1823.25 1451.02 Z" fill="#000000" fill-rule="nonzero" fill-opacity="1" /><path clip-path="url(#clip720)" d="M2323.99 1481.64 L2340.31 1481.64 L2340.31 1485.58 L2318.37 1485.58 L2318.37 1481.64 Q2321.03 1478.89 2325.61 1474.26 Q2330.22 1469.61 2331.4 1468.27 Q2333.65 1465.74 2334.53 1464.01 Q2335.43 1462.25 2335.43 1460.56 Q2335.43 1457.8 2333.49 1456.07 Q2331.56 1454.33 2328.46 1454.33 Q2326.26 1454.33 2323.81 1455.09 Q2321.38 1455.86 2318.6 1457.41 L2318.6 1452.69 Q2321.43 1451.55 2323.88 1450.97 Q2326.33 1450.39 2328.37 1450.39 Q2333.74 1450.39 2336.93 1453.08 Q2340.13 1455.77 2340.13 1460.26 Q2340.13 1462.39 2339.32 1464.31 Q2338.53 1466.2 2336.42 1468.8 Q2335.85 1469.47 2332.74 1472.69 Q2329.64 1475.88 2323.99 1481.64 Z" fill="#000000" fill-rule="nonzero" fill-opacity="1" /><path clip-path="url(#clip720)" d="M2350.13 1479.7 L2355.01 1479.7 L2355.01 1485.58 L2350.13 1485.58 L2350.13 1479.7 Z" fill="#000000" fill-rule="nonzero" fill-opacity="1" /><path clip-path="url(#clip720)" d="M2375.2 1454.1 Q2371.59 1454.1 2369.76 1457.66 Q2367.95 1461.2 2367.95 1468.33 Q2367.95 1475.44 2369.76 1479.01 Q2371.59 1482.55 2375.2 1482.55 Q2378.83 1482.55 2380.64 1479.01 Q2382.47 1475.44 2382.47 1468.33 Q2382.47 1461.2 2380.64 1457.66 Q2378.83 1454.1 2375.2 1454.1 M2375.2 1450.39 Q2381.01 1450.39 2384.06 1455 Q2387.14 1459.58 2387.14 1468.33 Q2387.14 1477.06 2384.06 1481.67 Q2381.01 1486.25 2375.2 1486.25 Q2369.39 1486.25 2366.31 1481.67 Q2363.25 1477.06 2363.25 1468.33 Q2363.25 1459.58 2366.31 1455 Q2369.39 1450.39 2375.2 1450.39 Z" fill="#000000" fill-rule="nonzero" fill-opacity="1" /><path clip-path="url(#clip720)" d="M1268.58 1522.27 L1268.58 1532.4 L1280.64 1532.4 L1280.64 1536.95 L1268.58 1536.95 L1268.58 1556.3 Q1268.58 1560.66 1269.75 1561.9 Q1270.96 1563.14 1274.62 1563.14 L1280.64 1563.14 L1280.64 1568.04 L1274.62 1568.04 Q1267.84 1568.04 1265.27 1565.53 Q1262.69 1562.98 1262.69 1556.3 L1262.69 1536.95 L1258.39 1536.95 L1258.39 1532.4 L1262.69 1532.4 L1262.69 1522.27 L1268.58 1522.27 Z" fill="#000000" fill-rule="nonzero" fill-opacity="1" /><polyline clip-path="url(#clip720)" style="stroke:#000000; stroke-linecap:round; stroke-linejoin:round; stroke-width:4; stroke-opacity:1; fill:none" points="186.274,1423.18 186.274,47.2441 "/>
<polyline clip-path="url(#clip720)" style="stroke:#000000; stroke-linecap:round; stroke-linejoin:round; stroke-width:4; stroke-opacity:1; fill:none" points="186.274,1241.52 205.172,1241.52 "/>
<polyline clip-path="url(#clip720)" style="stroke:#000000; stroke-linecap:round; stroke-linejoin:round; stroke-width:4; stroke-opacity:1; fill:none" points="186.274,937.709 205.172,937.709 "/>
<polyline clip-path="url(#clip720)" style="stroke:#000000; stroke-linecap:round; stroke-linejoin:round; stroke-width:4; stroke-opacity:1; fill:none" points="186.274,633.896 205.172,633.896 "/>
<polyline clip-path="url(#clip720)" style="stroke:#000000; stroke-linecap:round; stroke-linejoin:round; stroke-width:4; stroke-opacity:1; fill:none" points="186.274,330.082 205.172,330.082 "/>
<path clip-path="url(#clip720)" d="M63.9319 1227.32 Q60.3208 1227.32 58.4921 1230.89 Q56.6865 1234.43 56.6865 1241.56 Q56.6865 1248.66 58.4921 1252.23 Q60.3208 1255.77 63.9319 1255.77 Q67.5661 1255.77 69.3717 1252.23 Q71.2004 1248.66 71.2004 1241.56 Q71.2004 1234.43 69.3717 1230.89 Q67.5661 1227.32 63.9319 1227.32 M63.9319 1223.62 Q69.742 1223.62 72.7976 1228.22 Q75.8763 1232.81 75.8763 1241.56 Q75.8763 1250.28 72.7976 1254.89 Q69.742 1259.47 63.9319 1259.47 Q58.1217 1259.47 55.043 1254.89 Q51.9875 1250.28 51.9875 1241.56 Q51.9875 1232.81 55.043 1228.22 Q58.1217 1223.62 63.9319 1223.62 Z" fill="#000000" fill-rule="nonzero" fill-opacity="1" /><path clip-path="url(#clip720)" d="M84.0938 1252.92 L88.978 1252.92 L88.978 1258.8 L84.0938 1258.8 L84.0938 1252.92 Z" fill="#000000" fill-rule="nonzero" fill-opacity="1" /><path clip-path="url(#clip720)" d="M103.191 1254.87 L119.51 1254.87 L119.51 1258.8 L97.566 1258.8 L97.566 1254.87 Q100.228 1252.11 104.811 1247.48 Q109.418 1242.83 110.598 1241.49 Q112.844 1238.96 113.723 1237.23 Q114.626 1235.47 114.626 1233.78 Q114.626 1231.02 112.682 1229.29 Q110.76 1227.55 107.658 1227.55 Q105.459 1227.55 103.006 1228.32 Q100.575 1229.08 97.7974 1230.63 L97.7974 1225.91 Q100.621 1224.77 103.075 1224.2 Q105.529 1223.62 107.566 1223.62 Q112.936 1223.62 116.131 1226.3 Q119.325 1228.99 119.325 1233.48 Q119.325 1235.61 118.515 1237.53 Q117.728 1239.43 115.621 1242.02 Q115.043 1242.69 111.941 1245.91 Q108.839 1249.1 103.191 1254.87 Z" fill="#000000" fill-rule="nonzero" fill-opacity="1" /><path clip-path="url(#clip720)" d="M129.371 1224.24 L147.728 1224.24 L147.728 1228.18 L133.654 1228.18 L133.654 1236.65 Q134.672 1236.3 135.691 1236.14 Q136.709 1235.96 137.728 1235.96 Q143.515 1235.96 146.894 1239.13 Q150.274 1242.3 150.274 1247.71 Q150.274 1253.29 146.802 1256.4 Q143.33 1259.47 137.01 1259.47 Q134.834 1259.47 132.566 1259.1 Q130.32 1258.73 127.913 1257.99 L127.913 1253.29 Q129.996 1254.43 132.219 1254.98 Q134.441 1255.54 136.918 1255.54 Q140.922 1255.54 143.26 1253.43 Q145.598 1251.33 145.598 1247.71 Q145.598 1244.1 143.26 1242 Q140.922 1239.89 136.918 1239.89 Q135.043 1239.89 133.168 1240.31 Q131.316 1240.72 129.371 1241.6 L129.371 1224.24 Z" fill="#000000" fill-rule="nonzero" fill-opacity="1" /><path clip-path="url(#clip720)" d="M62.9365 923.508 Q59.3254 923.508 57.4967 927.073 Q55.6912 930.614 55.6912 937.744 Q55.6912 944.85 57.4967 948.415 Q59.3254 951.957 62.9365 951.957 Q66.5707 951.957 68.3763 948.415 Q70.205 944.85 70.205 937.744 Q70.205 930.614 68.3763 927.073 Q66.5707 923.508 62.9365 923.508 M62.9365 919.804 Q68.7467 919.804 71.8022 924.411 Q74.8809 928.994 74.8809 937.744 Q74.8809 946.471 71.8022 951.077 Q68.7467 955.66 62.9365 955.66 Q57.1264 955.66 54.0477 951.077 Q50.9921 946.471 50.9921 937.744 Q50.9921 928.994 54.0477 924.411 Q57.1264 919.804 62.9365 919.804 Z" fill="#000000" fill-rule="nonzero" fill-opacity="1" /><path clip-path="url(#clip720)" d="M83.0984 949.109 L87.9827 949.109 L87.9827 954.989 L83.0984 954.989 L83.0984 949.109 Z" fill="#000000" fill-rule="nonzero" fill-opacity="1" /><path clip-path="url(#clip720)" d="M98.2141 920.429 L116.57 920.429 L116.57 924.364 L102.496 924.364 L102.496 932.836 Q103.515 932.489 104.534 932.327 Q105.552 932.142 106.571 932.142 Q112.358 932.142 115.737 935.313 Q119.117 938.485 119.117 943.901 Q119.117 949.48 115.645 952.582 Q112.172 955.66 105.853 955.66 Q103.677 955.66 101.409 955.29 Q99.1632 954.92 96.7558 954.179 L96.7558 949.48 Q98.8391 950.614 101.061 951.17 Q103.284 951.725 105.76 951.725 Q109.765 951.725 112.103 949.619 Q114.441 947.512 114.441 943.901 Q114.441 940.29 112.103 938.184 Q109.765 936.077 105.76 936.077 Q103.885 936.077 102.01 936.494 Q100.159 936.91 98.2141 937.79 L98.2141 920.429 Z" fill="#000000" fill-rule="nonzero" fill-opacity="1" /><path clip-path="url(#clip720)" d="M138.33 923.508 Q134.719 923.508 132.89 927.073 Q131.084 930.614 131.084 937.744 Q131.084 944.85 132.89 948.415 Q134.719 951.957 138.33 951.957 Q141.964 951.957 143.769 948.415 Q145.598 944.85 145.598 937.744 Q145.598 930.614 143.769 927.073 Q141.964 923.508 138.33 923.508 M138.33 919.804 Q144.14 919.804 147.195 924.411 Q150.274 928.994 150.274 937.744 Q150.274 946.471 147.195 951.077 Q144.14 955.66 138.33 955.66 Q132.519 955.66 129.441 951.077 Q126.385 946.471 126.385 937.744 Q126.385 928.994 129.441 924.411 Q132.519 919.804 138.33 919.804 Z" fill="#000000" fill-rule="nonzero" fill-opacity="1" /><path clip-path="url(#clip720)" d="M63.9319 619.694 Q60.3208 619.694 58.4921 623.259 Q56.6865 626.801 56.6865 633.93 Q56.6865 641.037 58.4921 644.602 Q60.3208 648.143 63.9319 648.143 Q67.5661 648.143 69.3717 644.602 Q71.2004 641.037 71.2004 633.93 Q71.2004 626.801 69.3717 623.259 Q67.5661 619.694 63.9319 619.694 M63.9319 615.991 Q69.742 615.991 72.7976 620.597 Q75.8763 625.18 75.8763 633.93 Q75.8763 642.657 72.7976 647.264 Q69.742 651.847 63.9319 651.847 Q58.1217 651.847 55.043 647.264 Q51.9875 642.657 51.9875 633.93 Q51.9875 625.18 55.043 620.597 Q58.1217 615.991 63.9319 615.991 Z" fill="#000000" fill-rule="nonzero" fill-opacity="1" /><path clip-path="url(#clip720)" d="M84.0938 645.296 L88.978 645.296 L88.978 651.176 L84.0938 651.176 L84.0938 645.296 Z" fill="#000000" fill-rule="nonzero" fill-opacity="1" /><path clip-path="url(#clip720)" d="M97.9826 616.616 L120.205 616.616 L120.205 618.606 L107.658 651.176 L102.774 651.176 L114.58 620.551 L97.9826 620.551 L97.9826 616.616 Z" fill="#000000" fill-rule="nonzero" fill-opacity="1" /><path clip-path="url(#clip720)" d="M129.371 616.616 L147.728 616.616 L147.728 620.551 L133.654 620.551 L133.654 629.023 Q134.672 628.676 135.691 628.514 Q136.709 628.329 137.728 628.329 Q143.515 628.329 146.894 631.5 Q150.274 634.671 150.274 640.088 Q150.274 645.666 146.802 648.768 Q143.33 651.847 137.01 651.847 Q134.834 651.847 132.566 651.477 Q130.32 651.106 127.913 650.365 L127.913 645.666 Q129.996 646.801 132.219 647.356 Q134.441 647.912 136.918 647.912 Q140.922 647.912 143.26 645.805 Q145.598 643.699 145.598 640.088 Q145.598 636.477 143.26 634.37 Q140.922 632.264 136.918 632.264 Q135.043 632.264 133.168 632.68 Q131.316 633.097 129.371 633.977 L129.371 616.616 Z" fill="#000000" fill-rule="nonzero" fill-opacity="1" /><path clip-path="url(#clip720)" d="M53.7467 343.427 L61.3856 343.427 L61.3856 317.061 L53.0754 318.728 L53.0754 314.469 L61.3393 312.802 L66.0152 312.802 L66.0152 343.427 L73.654 343.427 L73.654 347.362 L53.7467 347.362 L53.7467 343.427 Z" fill="#000000" fill-rule="nonzero" fill-opacity="1" /><path clip-path="url(#clip720)" d="M83.0984 341.483 L87.9827 341.483 L87.9827 347.362 L83.0984 347.362 L83.0984 341.483 Z" fill="#000000" fill-rule="nonzero" fill-opacity="1" /><path clip-path="url(#clip720)" d="M108.168 315.881 Q104.557 315.881 102.728 319.446 Q100.922 322.987 100.922 330.117 Q100.922 337.223 102.728 340.788 Q104.557 344.33 108.168 344.33 Q111.802 344.33 113.608 340.788 Q115.436 337.223 115.436 330.117 Q115.436 322.987 113.608 319.446 Q111.802 315.881 108.168 315.881 M108.168 312.177 Q113.978 312.177 117.033 316.784 Q120.112 321.367 120.112 330.117 Q120.112 338.844 117.033 343.45 Q113.978 348.033 108.168 348.033 Q102.358 348.033 99.2789 343.45 Q96.2234 338.844 96.2234 330.117 Q96.2234 321.367 99.2789 316.784 Q102.358 312.177 108.168 312.177 Z" fill="#000000" fill-rule="nonzero" fill-opacity="1" /><path clip-path="url(#clip720)" d="M138.33 315.881 Q134.719 315.881 132.89 319.446 Q131.084 322.987 131.084 330.117 Q131.084 337.223 132.89 340.788 Q134.719 344.33 138.33 344.33 Q141.964 344.33 143.769 340.788 Q145.598 337.223 145.598 330.117 Q145.598 322.987 143.769 319.446 Q141.964 315.881 138.33 315.881 M138.33 312.177 Q144.14 312.177 147.195 316.784 Q150.274 321.367 150.274 330.117 Q150.274 338.844 147.195 343.45 Q144.14 348.033 138.33 348.033 Q132.519 348.033 129.441 343.45 Q126.385 338.844 126.385 330.117 Q126.385 321.367 129.441 316.784 Q132.519 312.177 138.33 312.177 Z" fill="#000000" fill-rule="nonzero" fill-opacity="1" /><polyline clip-path="url(#clip722)" style="stroke:#009af9; stroke-linecap:round; stroke-linejoin:round; stroke-width:4; stroke-opacity:1; fill:none" points="186.274,86.1857 188.443,93.4351 190.611,100.612 192.78,107.718 194.949,114.753 197.117,121.718 199.286,128.614 201.455,135.44 203.623,142.199 205.792,148.891 207.961,155.516 210.129,162.075 212.298,168.568 214.466,174.997 216.635,181.362 218.804,187.663 220.972,193.902 223.141,200.079 225.31,206.194 227.478,212.248 229.647,218.242 231.816,224.176 233.984,230.051 236.153,235.867 238.322,241.626 240.49,247.327 242.659,252.972 244.828,258.56 246.996,264.093 249.165,269.57 251.334,274.993 253.502,280.362 255.671,285.677 257.839,290.94 260.008,296.15 262.177,301.308 264.345,306.415 266.514,311.471 268.683,316.477 270.851,321.432 273.02,326.339 275.189,331.196 277.357,336.005 279.526,340.766 281.695,345.48 283.863,350.147 286.032,354.767 288.201,359.342 290.369,363.87 292.538,368.354 294.707,372.793 296.875,377.188 299.044,381.539 301.212,385.846 303.381,390.111 305.55,394.334 307.718,398.514 309.887,402.653 312.056,406.75 314.224,410.807 316.393,414.823 318.562,418.799 320.73,422.736 322.899,426.633 325.068,430.492 327.236,434.312 329.405,438.094 331.574,441.839 333.742,445.546 335.911,449.216 338.08,452.85 340.248,456.447 342.417,460.009 344.585,463.535 346.754,467.026 348.923,470.482 351.091,473.904 353.26,477.292 355.429,480.646 357.597,483.966 359.766,487.253 361.935,490.508 364.103,493.73 366.272,496.921 368.441,500.079 370.609,503.206 372.778,506.302 374.947,509.367 377.115,512.401 379.284,515.405 381.453,518.38 383.621,521.325 385.79,524.24 387.959,527.126 390.127,529.984 392.296,532.813 394.464,535.614 396.633,538.387 398.802,541.133 400.97,543.851 403.139,546.543 405.308,549.207 407.476,551.845 409.645,554.457 411.814,557.042 413.982,559.602 416.151,562.136 418.32,564.645 420.488,567.129 422.657,569.589 424.826,572.024 426.994,574.434 429.163,576.821 431.332,579.183 433.5,581.523 435.669,583.838 437.837,586.131 440.006,588.401 442.175,590.648 444.343,592.873 446.512,595.076 448.681,597.257 450.849,599.416 453.018,601.553 455.187,603.669 457.355,605.765 459.524,607.839 461.693,609.892 463.861,611.925 466.03,613.938 468.199,615.931 470.367,617.904 472.536,619.858 474.705,621.791 476.873,623.706 479.042,625.602 481.21,627.478 483.379,629.336 485.548,631.176 487.716,632.997 489.885,634.8 492.054,636.585 494.222,638.353 496.391,640.103 498.56,641.835 500.728,643.55 502.897,645.249 505.066,646.93 507.234,648.594 509.403,650.242 511.572,651.874 513.74,653.49 515.909,655.089 518.078,656.672 520.246,658.24 522.415,659.792 524.583,661.328 526.752,662.85 528.921,664.356 531.089,665.847 533.258,667.323 535.427,668.784 537.595,670.231 539.764,671.664 541.933,673.082 544.101,674.486 546.27,675.876 548.439,677.252 550.607,678.614 552.776,679.963 554.945,681.299 557.113,682.621 559.282,683.929 561.451,685.225 563.619,686.508 565.788,687.778 567.956,689.035 570.125,690.28 572.294,691.513 574.462,692.733 576.631,693.941 578.8,695.137 580.968,696.321 583.137,697.493 585.306,698.654 587.474,699.803 589.643,700.94 591.812,702.066 593.98,703.181 596.149,704.285 598.318,705.378 600.486,706.46 602.655,707.531 604.824,708.592 606.992,709.642 609.161,710.682 611.33,711.711 613.498,712.73 615.667,713.739 617.835,714.738 620.004,715.727 622.173,716.706 624.341,717.675 626.51,718.635 628.679,719.586 630.847,720.526 633.016,721.458 635.185,722.38 637.353,723.294 639.522,724.198 641.691,725.093 643.859,725.979 646.028,726.856 648.197,727.725 650.365,728.585 652.534,729.436 654.703,730.279 656.871,731.114 659.04,731.94 661.208,732.758 663.377,733.568 665.546,734.37 667.714,735.164 669.883,735.949 672.052,736.727 674.22,737.498 676.389,738.26 678.558,739.015 680.726,739.762 682.895,740.502 685.064,741.235 687.232,741.96 689.401,742.678 691.57,743.388 693.738,744.092 695.907,744.789 698.076,745.478 700.244,746.161 702.413,746.837 704.581,747.506 706.75,748.169 708.919,748.824 711.087,749.474 713.256,750.117 715.425,750.753 717.593,751.383 719.762,752.007 721.931,752.624 724.099,753.236 726.268,753.841 728.437,754.44 730.605,755.034 732.774,755.621 734.943,756.202 737.111,756.778 739.28,757.348 741.449,757.912 743.617,758.471 745.786,759.024 747.954,759.572 750.123,760.114 752.292,760.651 754.46,761.182 756.629,761.709 758.798,762.23 760.966,762.745 763.135,763.256 765.304,763.762 767.472,764.262 769.641,764.758 771.81,765.249 773.978,765.735 776.147,766.216 778.316,766.692 780.484,767.164 782.653,767.631 784.822,768.093 786.99,768.551 789.159,769.005 791.328,769.453 793.496,769.898 795.665,770.338 797.833,770.773 800.002,771.205 802.171,771.632 804.339,772.054 806.508,772.473 808.677,772.887 810.845,773.297 813.014,773.704 815.183,774.106 817.351,774.504 819.52,774.898 821.689,775.288 823.857,775.674 826.026,776.057 828.195,776.435 830.363,776.81 832.532,777.181 834.701,777.548 836.869,777.912 839.038,778.272 841.206,778.628 843.375,778.981 845.544,779.33 847.712,779.676 849.881,780.018 852.05,780.357 854.218,780.693 856.387,781.025 858.556,781.354 860.724,781.679 862.893,782.001 865.062,782.32 867.23,782.636 869.399,782.949 871.568,783.258 873.736,783.565 875.905,783.868 878.074,784.168 880.242,784.465 882.411,784.76 884.579,785.051 886.748,785.339 888.917,785.625 891.085,785.908 893.254,786.187 895.423,786.465 897.591,786.739 899.76,787.01 901.929,787.279 904.097,787.545 906.266,787.809 908.435,788.07 910.603,788.328 912.772,788.584 914.941,788.837 917.109,789.087 919.278,789.336 921.447,789.581 923.615,789.825 925.784,790.065 927.952,790.304 930.121,790.54 932.29,790.774 934.458,791.005 936.627,791.234 938.796,791.461 940.964,791.686 943.133,791.908 945.302,792.129 947.47,792.347 949.639,792.563 951.808,792.777 953.976,792.988 956.145,793.198 958.314,793.406 960.482,793.611 962.651,793.815 964.82,794.017 966.988,794.216 969.157,794.414 971.326,794.61 973.494,794.803 975.663,794.995 977.831,795.185 980,795.373 982.169,795.56 984.337,795.744 986.506,795.927 988.675,796.107 990.843,796.286 993.012,796.463 995.181,796.639 997.349,796.812 999.518,796.984 1001.69,797.155 1003.86,797.323 1006.02,797.49 1008.19,797.655 1010.36,797.819 1012.53,797.98 1014.7,798.141 1016.87,798.299 1019.04,798.456 1021.2,798.612 1023.37,798.766 1025.54,798.918 1027.71,799.069 1029.88,799.218 1032.05,799.366 1034.22,799.512 1036.39,799.657 1038.55,799.8 1040.72,799.942 1042.89,800.082 1045.06,800.221 1047.23,800.359 1049.4,800.495 1051.57,800.63 1053.73,800.764 1055.9,800.896 1058.07,801.027 1060.24,801.156 1062.41,801.284 1064.58,801.411 1066.75,801.537 1068.91,801.661 1071.08,801.784 1073.25,801.906 1075.42,802.027 1077.59,802.146 1079.76,802.264 1081.93,802.381 1084.1,802.497 1086.26,802.612 1088.43,802.725 1090.6,802.838 1092.77,802.949 1094.94,803.059 1097.11,803.168 1099.28,803.276 1101.44,803.383 1103.61,803.488 1105.78,803.593 1107.95,803.697 1110.12,803.799 1112.29,803.901 1114.46,804.002 1116.63,804.101 1118.79,804.2 1120.96,804.297 1123.13,804.394 1125.3,804.49 1127.47,804.584 1129.64,804.678 1131.81,804.771 1133.97,804.863 1136.14,804.954 1138.31,805.044 1140.48,805.134 1142.65,805.222 1144.82,805.31 1146.99,805.396 1149.15,805.482 1151.32,805.567 1153.49,805.652 1155.66,805.735 1157.83,805.818 1160,805.899 1162.17,805.98 1164.34,806.061 1166.5,806.14 1168.67,806.219 1170.84,806.297 1173.01,806.374 1175.18,806.451 1177.35,806.526 1179.52,806.601 1181.68,806.676 1183.85,806.749 1186.02,806.822 1188.19,806.894 1190.36,806.966 1192.53,807.036 1194.7,807.106 1196.87,807.176 1199.03,807.244 1201.2,807.312 1203.37,807.379 1205.54,807.446 1207.71,807.512 1209.88,807.577 1212.05,807.642 1214.21,807.706 1216.38,807.769 1218.55,807.832 1220.72,807.894 1222.89,807.956 1225.06,808.017 1227.23,808.077 1229.39,808.137 1231.56,808.196 1233.73,808.254 1235.9,808.312 1238.07,808.369 1240.24,808.426 1242.41,808.482 1244.58,808.538 1246.74,808.593 1248.91,808.647 1251.08,808.701 1253.25,808.754 1255.42,808.807 1257.59,808.859 1259.76,808.911 1261.92,808.962 1264.09,809.013 1266.26,809.063 1268.43,809.113 1270.6,809.162 1272.77,809.21 1274.94,809.258 1277.11,809.306 1279.27,809.353 1281.44,809.4 1283.61,809.446 1285.78,809.492 1287.95,809.537 1290.12,809.582 1292.29,809.626 1294.45,809.67 1296.62,809.713 1298.79,809.756 1300.96,809.799 1303.13,809.841 1305.3,809.882 1307.47,809.923 1309.63,809.964 1311.8,810.005 1313.97,810.044 1316.14,810.084 1318.31,810.123 1320.48,810.162 1322.65,810.2 1324.82,810.238 1326.98,810.276 1329.15,810.313 1331.32,810.35 1333.49,810.386 1335.66,810.422 1337.83,810.458 1340,810.493 1342.16,810.528 1344.33,810.563 1346.5,810.597 1348.67,810.631 1350.84,810.664 1353.01,810.698 1355.18,810.731 1357.35,810.763 1359.51,810.795 1361.68,810.827 1363.85,810.859 1366.02,810.89 1368.19,810.921 1370.36,810.952 1372.53,810.982 1374.69,811.013 1376.86,811.042 1379.03,811.072 1381.2,811.101 1383.37,811.13 1385.54,811.159 1387.71,811.187 1389.88,811.215 1392.04,811.243 1394.21,811.271 1396.38,811.298 1398.55,811.326 1400.72,811.352 1402.89,811.379 1405.06,811.405 1407.22,811.432 1409.39,811.458 1411.56,811.483 1413.73,811.509 1415.9,811.534 1418.07,811.559 1420.24,811.584 1422.4,811.608 1424.57,811.633 1426.74,811.657 1428.91,811.68 1431.08,811.704 1433.25,811.727 1435.42,811.751 1437.59,811.774 1439.75,811.796 1441.92,811.819 1444.09,811.841 1446.26,811.863 1448.43,811.885 1450.6,811.907 1452.77,811.928 1454.93,811.949 1457.1,811.97 1459.27,811.991 1461.44,812.012 1463.61,812.032 1465.78,812.052 1467.95,812.073 1470.12,812.092 1472.28,812.112 1474.45,812.131 1476.62,812.151 1478.79,812.17 1480.96,812.188 1483.13,812.207 1485.3,812.226 1487.46,812.244 1489.63,812.262 1491.8,812.28 1493.97,812.298 1496.14,812.315 1498.31,812.333 1500.48,812.35 1502.64,812.367 1504.81,812.384 1506.98,812.4 1509.15,812.417 1511.32,812.433 1513.49,812.449 1515.66,812.465 1517.83,812.481 1519.99,812.497 1522.16,812.512 1524.33,812.527 1526.5,812.542 1528.67,812.557 1530.84,812.572 1533.01,812.587 1535.17,812.602 1537.34,812.616 1539.51,812.63 1541.68,812.644 1543.85,812.658 1546.02,812.672 1548.19,812.685 1550.36,812.699 1552.52,812.712 1554.69,812.725 1556.86,812.738 1559.03,812.751 1561.2,812.764 1563.37,812.777 1565.54,812.789 1567.7,812.802 1569.87,812.814 1572.04,812.826 1574.21,812.838 1576.38,812.85 1578.55,812.861 1580.72,812.873 1582.88,812.884 1585.05,812.896 1587.22,812.907 1589.39,812.918 1591.56,812.929 1593.73,812.94 1595.9,812.951 1598.07,812.961 1600.23,812.972 1602.4,812.982 1604.57,812.992 1606.74,813.003 1608.91,813.013 1611.08,813.023 1613.25,813.032 1615.41,813.042 1617.58,813.052 1619.75,813.061 1621.92,813.071 1624.09,813.08 1626.26,813.089 1628.43,813.099 1630.6,813.108 1632.76,813.117 1634.93,813.126 1637.1,813.134 1639.27,813.143 1641.44,813.152 1643.61,813.16 1645.78,813.169 1647.94,813.177 1650.11,813.185 1652.28,813.193 1654.45,813.202 1656.62,813.21 1658.79,813.218 1660.96,813.225 1663.13,813.233 1665.29,813.241 1667.46,813.249 1669.63,813.256 1671.8,813.264 1673.97,813.271 1676.14,813.279 1678.31,813.286 1680.47,813.293 1682.64,813.301 1684.81,813.308 1686.98,813.315 1689.15,813.322 1691.32,813.329 1693.49,813.336 1695.65,813.343 1697.82,813.35 1699.99,813.356 1702.16,813.363 1704.33,813.37 1706.5,813.376 1708.67,813.383 1710.84,813.39 1713,813.396 1715.17,813.402 1717.34,813.409 1719.51,813.415 1721.68,813.421 1723.85,813.428 1726.02,813.434 1728.18,813.44 1730.35,813.446 1732.52,813.452 1734.69,813.458 1736.86,813.464 1739.03,813.469 1741.2,813.475 1743.37,813.481 1745.53,813.487 1747.7,813.492 1749.87,813.498 1752.04,813.503 1754.21,813.509 1756.38,813.514 1758.55,813.519 1760.71,813.525 1762.88,813.53 1765.05,813.535 1767.22,813.54 1769.39,813.546 1771.56,813.551 1773.73,813.556 1775.89,813.561 1778.06,813.565 1780.23,813.57 1782.4,813.575 1784.57,813.58 1786.74,813.585 1788.91,813.589 1791.08,813.594 1793.24,813.598 1795.41,813.603 1797.58,813.608 1799.75,813.612 1801.92,813.616 1804.09,813.621 1806.26,813.625 1808.42,813.629 1810.59,813.633 1812.76,813.638 1814.93,813.642 1817.1,813.646 1819.27,813.65 1821.44,813.654 1823.61,813.658 1825.77,813.662 1827.94,813.666 1830.11,813.669 1832.28,813.673 1834.45,813.677 1836.62,813.681 1838.79,813.684 1840.95,813.688 1843.12,813.691 1845.29,813.695 1847.46,813.698 1849.63,813.702 1851.8,813.705 1853.97,813.709 1856.13,813.712 1858.3,813.715 1860.47,813.718 1862.64,813.722 1864.81,813.725 1866.98,813.728 1869.15,813.731 1871.32,813.734 1873.48,813.737 1875.65,813.74 1877.82,813.743 1879.99,813.746 1882.16,813.749 1884.33,813.752 1886.5,813.755 1888.66,813.757 1890.83,813.76 1893,813.763 1895.17,813.766 1897.34,813.768 1899.51,813.771 1901.68,813.773 1903.85,813.776 1906.01,813.778 1908.18,813.781 1910.35,813.783 1912.52,813.786 1914.69,813.788 1916.86,813.791 1919.03,813.793 1921.19,813.795 1923.36,813.798 1925.53,813.8 1927.7,813.802 1929.87,813.804 1932.04,813.806 1934.21,813.809 1936.37,813.811 1938.54,813.813 1940.71,813.815 1942.88,813.817 1945.05,813.819 1947.22,813.821 1949.39,813.823 1951.56,813.825 1953.72,813.827 1955.89,813.829 1958.06,813.831 1960.23,813.832 1962.4,813.834 1964.57,813.836 1966.74,813.838 1968.9,813.84 1971.07,813.841 1973.24,813.843 1975.41,813.845 1977.58,813.847 1979.75,813.848 1981.92,813.85 1984.09,813.852 1986.25,813.853 1988.42,813.855 1990.59,813.856 1992.76,813.858 1994.93,813.86 1997.1,813.861 1999.27,813.863 2001.43,813.864 2003.6,813.866 2005.77,813.867 2007.94,813.869 2010.11,813.87 2012.28,813.872 2014.45,813.873 2016.62,813.875 2018.78,813.876 2020.95,813.877 2023.12,813.879 2025.29,813.88 2027.46,813.882 2029.63,813.883 2031.8,813.884 2033.96,813.886 2036.13,813.887 2038.3,813.889 2040.47,813.89 2042.64,813.891 2044.81,813.893 2046.98,813.894 2049.14,813.895 2051.31,813.897 2053.48,813.898 2055.65,813.899 2057.82,813.901 2059.99,813.902 2062.16,813.903 2064.33,813.905 2066.49,813.906 2068.66,813.907 2070.83,813.909 2073,813.91 2075.17,813.911 2077.34,813.912 2079.51,813.913 2081.67,813.915 2083.84,813.916 2086.01,813.917 2088.18,813.918 2090.35,813.919 2092.52,813.921 2094.69,813.922 2096.86,813.923 2099.02,813.924 2101.19,813.925 2103.36,813.926 2105.53,813.927 2107.7,813.928 2109.87,813.93 2112.04,813.931 2114.2,813.932 2116.37,813.933 2118.54,813.934 2120.71,813.935 2122.88,813.936 2125.05,813.937 2127.22,813.938 2129.38,813.939 2131.55,813.94 2133.72,813.941 2135.89,813.942 2138.06,813.943 2140.23,813.943 2142.4,813.944 2144.57,813.945 2146.73,813.946 2148.9,813.947 2151.07,813.948 2153.24,813.949 2155.41,813.95 2157.58,813.951 2159.75,813.951 2161.91,813.952 2164.08,813.953 2166.25,813.954 2168.42,813.955 2170.59,813.956 2172.76,813.956 2174.93,813.957 2177.1,813.958 2179.26,813.959 2181.43,813.959 2183.6,813.96 2185.77,813.961 2187.94,813.962 2190.11,813.962 2192.28,813.963 2194.44,813.964 2196.61,813.965 2198.78,813.965 2200.95,813.966 2203.12,813.967 2205.29,813.967 2207.46,813.968 2209.62,813.969 2211.79,813.969 2213.96,813.97 2216.13,813.971 2218.3,813.971 2220.47,813.972 2222.64,813.973 2224.81,813.973 2226.97,813.974 2229.14,813.974 2231.31,813.975 2233.48,813.976 2235.65,813.976 2237.82,813.977 2239.99,813.977 2242.15,813.978 2244.32,813.978 2246.49,813.979 2248.66,813.98 2250.83,813.98 2253,813.981 2255.17,813.981 2257.34,813.982 2259.5,813.982 2261.67,813.983 2263.84,813.983 2266.01,813.984 2268.18,813.984 2270.35,813.985 2272.52,813.985 2274.68,813.986 2276.85,813.986 2279.02,813.987 2281.19,813.987 2283.36,813.988 2285.53,813.988 2287.7,813.988 2289.87,813.989 2292.03,813.989 2294.2,813.99 2296.37,813.99 2298.54,813.991 2300.71,813.991 2302.88,813.992 2305.05,813.992 2307.21,813.992 2309.38,813.993 2311.55,813.993 2313.72,813.994 2315.89,813.994 2318.06,813.994 2320.23,813.995 2322.39,813.995 2324.56,813.996 2326.73,813.996 2328.9,813.996 2331.07,813.997 2333.24,813.997 2335.41,813.997 2337.58,813.998 2339.74,813.998 2341.91,813.999 2344.08,813.999 2346.25,813.999 2348.42,814 2350.59,814 2352.76,814 "/>
<polyline clip-path="url(#clip722)" style="stroke:#e26f46; stroke-linecap:round; stroke-linejoin:round; stroke-width:4; stroke-opacity:1; fill:none" points="186.274,1384.24 188.443,1378.8 190.611,1373.42 192.78,1368.1 194.949,1362.82 197.117,1357.59 199.286,1352.42 201.455,1347.29 203.623,1342.22 205.792,1337.19 207.961,1332.21 210.129,1327.28 212.298,1322.4 214.466,1317.57 216.635,1312.78 218.804,1308.04 220.972,1303.34 223.141,1298.69 225.31,1294.09 227.478,1289.53 229.647,1285.01 231.816,1280.54 233.984,1276.11 236.153,1271.72 238.322,1267.38 240.49,1263.07 242.659,1258.81 244.828,1254.59 246.996,1250.41 249.165,1246.28 251.334,1242.18 253.502,1238.12 255.671,1234.1 257.839,1230.12 260.008,1226.17 262.177,1222.27 264.345,1218.4 266.514,1214.57 268.683,1210.78 270.851,1207.03 273.02,1203.31 275.189,1199.62 277.357,1195.97 279.526,1192.36 281.695,1188.78 283.863,1185.24 286.032,1181.73 288.201,1178.25 290.369,1174.81 292.538,1171.4 294.707,1168.03 296.875,1164.68 299.044,1161.37 301.212,1158.09 303.381,1154.84 305.55,1151.63 307.718,1148.44 309.887,1145.29 312.056,1142.16 314.224,1139.07 316.393,1136 318.562,1132.97 320.73,1129.96 322.899,1126.98 325.068,1124.03 327.236,1121.11 329.405,1118.22 331.574,1115.36 333.742,1112.52 335.911,1109.71 338.08,1106.93 340.248,1104.17 342.417,1101.44 344.585,1098.74 346.754,1096.06 348.923,1093.41 351.091,1090.79 353.26,1088.19 355.429,1085.61 357.597,1083.06 359.766,1080.53 361.935,1078.03 364.103,1075.55 366.272,1073.1 368.441,1070.67 370.609,1068.26 372.778,1065.87 374.947,1063.51 377.115,1061.17 379.284,1058.86 381.453,1056.56 383.621,1054.29 385.79,1052.04 387.959,1049.81 390.127,1047.6 392.296,1045.42 394.464,1043.25 396.633,1041.11 398.802,1038.98 400.97,1036.88 403.139,1034.79 405.308,1032.73 407.476,1030.69 409.645,1028.66 411.814,1026.66 413.982,1024.67 416.151,1022.7 418.32,1020.75 420.488,1018.82 422.657,1016.91 424.826,1015.02 426.994,1013.14 429.163,1011.29 431.332,1009.45 433.5,1007.63 435.669,1005.82 437.837,1004.04 440.006,1002.27 442.175,1000.51 444.343,998.777 446.512,997.057 448.681,995.354 450.849,993.667 453.018,991.996 455.187,990.341 457.355,988.702 459.524,987.078 461.693,985.47 463.861,983.877 466.03,982.3 468.199,980.737 470.367,979.19 472.536,977.657 474.705,976.139 476.873,974.635 479.042,973.145 481.21,971.67 483.379,970.208 485.548,968.761 487.716,967.327 489.885,965.907 492.054,964.501 494.222,963.107 496.391,961.727 498.56,960.361 500.728,959.007 502.897,957.665 505.066,956.337 507.234,955.021 509.403,953.718 511.572,952.427 513.74,951.148 515.909,949.882 518.078,948.627 520.246,947.384 522.415,946.154 524.583,944.934 526.752,943.727 528.921,942.531 531.089,941.346 533.258,940.172 535.427,939.01 537.595,937.859 539.764,936.718 541.933,935.588 544.101,934.469 546.27,933.361 548.439,932.263 550.607,931.176 552.776,930.099 554.945,929.032 557.113,927.975 559.282,926.928 561.451,925.892 563.619,924.865 565.788,923.847 567.956,922.84 570.125,921.841 572.294,920.853 574.462,919.873 576.631,918.903 578.8,917.942 580.968,916.991 583.137,916.048 585.306,915.114 587.474,914.189 589.643,913.272 591.812,912.364 593.98,911.465 596.149,910.574 598.318,909.692 600.486,908.818 602.655,907.952 604.824,907.094 606.992,906.245 609.161,905.403 611.33,904.569 613.498,903.743 615.667,902.925 617.835,902.115 620.004,901.312 622.173,900.517 624.341,899.729 626.51,898.948 628.679,898.175 630.847,897.409 633.016,896.65 635.185,895.899 637.353,895.154 639.522,894.416 641.691,893.686 643.859,892.962 646.028,892.245 648.197,891.534 650.365,890.831 652.534,890.133 654.703,889.443 656.871,888.759 659.04,888.081 661.208,887.41 663.377,886.745 665.546,886.086 667.714,885.433 669.883,884.787 672.052,884.146 674.22,883.512 676.389,882.883 678.558,882.261 680.726,881.644 682.895,881.033 685.064,880.428 687.232,879.828 689.401,879.234 691.57,878.646 693.738,878.063 695.907,877.486 698.076,876.914 700.244,876.347 702.413,875.786 704.581,875.23 706.75,874.679 708.919,874.133 711.087,873.593 713.256,873.057 715.425,872.526 717.593,872.001 719.762,871.48 721.931,870.964 724.099,870.453 726.268,869.947 728.437,869.445 730.605,868.948 732.774,868.456 734.943,867.968 737.111,867.485 739.28,867.007 741.449,866.532 743.617,866.063 745.786,865.597 747.954,865.136 750.123,864.679 752.292,864.226 754.46,863.778 756.629,863.334 758.798,862.893 760.966,862.457 763.135,862.025 765.304,861.597 767.472,861.173 769.641,860.752 771.81,860.336 773.978,859.923 776.147,859.515 778.316,859.11 780.484,858.708 782.653,858.311 784.822,857.917 786.99,857.526 789.159,857.139 791.328,856.756 793.496,856.377 795.665,856 797.833,855.628 800.002,855.258 802.171,854.892 804.339,854.53 806.508,854.17 808.677,853.815 810.845,853.462 813.014,853.113 815.183,852.766 817.351,852.424 819.52,852.084 821.689,851.747 823.857,851.414 826.026,851.083 828.195,850.756 830.363,850.431 832.532,850.11 834.701,849.791 836.869,849.476 839.038,849.163 841.206,848.854 843.375,848.547 845.544,848.243 847.712,847.942 849.881,847.643 852.05,847.348 854.218,847.055 856.387,846.765 858.556,846.477 860.724,846.192 862.893,845.91 865.062,845.63 867.23,845.353 869.399,845.079 871.568,844.806 873.736,844.537 875.905,844.27 878.074,844.005 880.242,843.743 882.411,843.483 884.579,843.226 886.748,842.971 888.917,842.718 891.085,842.468 893.254,842.22 895.423,841.974 897.591,841.731 899.76,841.489 901.929,841.25 904.097,841.013 906.266,840.778 908.435,840.546 910.603,840.315 912.772,840.087 914.941,839.861 917.109,839.636 919.278,839.414 921.447,839.194 923.615,838.975 925.784,838.759 927.952,838.545 930.121,838.332 932.29,838.122 934.458,837.913 936.627,837.707 938.796,837.502 940.964,837.299 943.133,837.097 945.302,836.898 947.47,836.7 949.639,836.505 951.808,836.31 953.976,836.118 956.145,835.927 958.314,835.738 960.482,835.551 962.651,835.366 964.82,835.182 966.988,834.999 969.157,834.819 971.326,834.639 973.494,834.462 975.663,834.286 977.831,834.112 980,833.939 982.169,833.768 984.337,833.598 986.506,833.43 988.675,833.263 990.843,833.098 993.012,832.934 995.181,832.772 997.349,832.612 999.518,832.452 1001.69,832.294 1003.86,832.138 1006.02,831.983 1008.19,831.829 1010.36,831.677 1012.53,831.526 1014.7,831.377 1016.87,831.229 1019.04,831.082 1021.2,830.936 1023.37,830.792 1025.54,830.649 1027.71,830.508 1029.88,830.367 1032.05,830.228 1034.22,830.091 1036.39,829.954 1038.55,829.819 1040.72,829.685 1042.89,829.552 1045.06,829.42 1047.23,829.29 1049.4,829.16 1051.57,829.032 1053.73,828.905 1055.9,828.779 1058.07,828.655 1060.24,828.531 1062.41,828.409 1064.58,828.287 1066.75,828.167 1068.91,828.048 1071.08,827.93 1073.25,827.813 1075.42,827.697 1077.59,827.582 1079.76,827.468 1081.93,827.355 1084.1,827.243 1086.26,827.132 1088.43,827.022 1090.6,826.913 1092.77,826.805 1094.94,826.698 1097.11,826.592 1099.28,826.487 1101.44,826.383 1103.61,826.28 1105.78,826.177 1107.95,826.076 1110.12,825.975 1112.29,825.876 1114.46,825.777 1116.63,825.679 1118.79,825.582 1120.96,825.486 1123.13,825.391 1125.3,825.296 1127.47,825.202 1129.64,825.11 1131.81,825.017 1133.97,824.926 1136.14,824.836 1138.31,824.746 1140.48,824.657 1142.65,824.569 1144.82,824.482 1146.99,824.395 1149.15,824.309 1151.32,824.224 1153.49,824.14 1155.66,824.056 1157.83,823.973 1160,823.891 1162.17,823.809 1164.34,823.728 1166.5,823.648 1168.67,823.568 1170.84,823.49 1173.01,823.411 1175.18,823.334 1177.35,823.257 1179.52,823.181 1181.68,823.105 1183.85,823.03 1186.02,822.956 1188.19,822.882 1190.36,822.809 1192.53,822.737 1194.7,822.665 1196.87,822.594 1199.03,822.524 1201.2,822.454 1203.37,822.384 1205.54,822.316 1207.71,822.248 1209.88,822.18 1212.05,822.113 1214.21,822.047 1216.38,821.981 1218.55,821.916 1220.72,821.851 1222.89,821.787 1225.06,821.724 1227.23,821.661 1229.39,821.598 1231.56,821.536 1233.73,821.475 1235.9,821.414 1238.07,821.354 1240.24,821.294 1242.41,821.235 1244.58,821.176 1246.74,821.118 1248.91,821.06 1251.08,821.003 1253.25,820.947 1255.42,820.89 1257.59,820.835 1259.76,820.78 1261.92,820.725 1264.09,820.671 1266.26,820.617 1268.43,820.564 1270.6,820.511 1272.77,820.458 1274.94,820.407 1277.11,820.355 1279.27,820.304 1281.44,820.254 1283.61,820.204 1285.78,820.154 1287.95,820.105 1290.12,820.056 1292.29,820.008 1294.45,819.96 1296.62,819.912 1298.79,819.865 1300.96,819.818 1303.13,819.772 1305.3,819.726 1307.47,819.681 1309.63,819.636 1311.8,819.591 1313.97,819.547 1316.14,819.503 1318.31,819.459 1320.48,819.416 1322.65,819.373 1324.82,819.331 1326.98,819.289 1329.15,819.247 1331.32,819.206 1333.49,819.165 1335.66,819.124 1337.83,819.084 1340,819.044 1342.16,819.004 1344.33,818.965 1346.5,818.926 1348.67,818.888 1350.84,818.849 1353.01,818.811 1355.18,818.774 1357.35,818.736 1359.51,818.699 1361.68,818.663 1363.85,818.626 1366.02,818.59 1368.19,818.555 1370.36,818.519 1372.53,818.484 1374.69,818.449 1376.86,818.414 1379.03,818.38 1381.2,818.346 1383.37,818.312 1385.54,818.279 1387.71,818.245 1389.88,818.212 1392.04,818.18 1394.21,818.147 1396.38,818.115 1398.55,818.083 1400.72,818.051 1402.89,818.02 1405.06,817.989 1407.22,817.958 1409.39,817.927 1411.56,817.897 1413.73,817.866 1415.9,817.836 1418.07,817.807 1420.24,817.777 1422.4,817.748 1424.57,817.719 1426.74,817.69 1428.91,817.661 1431.08,817.633 1433.25,817.605 1435.42,817.577 1437.59,817.549 1439.75,817.522 1441.92,817.495 1444.09,817.468 1446.26,817.441 1448.43,817.414 1450.6,817.388 1452.77,817.362 1454.93,817.336 1457.1,817.31 1459.27,817.284 1461.44,817.259 1463.61,817.234 1465.78,817.209 1467.95,817.184 1470.12,817.16 1472.28,817.136 1474.45,817.111 1476.62,817.088 1478.79,817.064 1480.96,817.04 1483.13,817.017 1485.3,816.994 1487.46,816.971 1489.63,816.948 1491.8,816.926 1493.97,816.903 1496.14,816.881 1498.31,816.859 1500.48,816.837 1502.64,816.816 1504.81,816.794 1506.98,816.773 1509.15,816.752 1511.32,816.731 1513.49,816.71 1515.66,816.69 1517.83,816.669 1519.99,816.649 1522.16,816.629 1524.33,816.609 1526.5,816.59 1528.67,816.57 1530.84,816.551 1533.01,816.532 1535.17,816.512 1537.34,816.494 1539.51,816.475 1541.68,816.456 1543.85,816.438 1546.02,816.42 1548.19,816.402 1550.36,816.384 1552.52,816.366 1554.69,816.348 1556.86,816.331 1559.03,816.313 1561.2,816.296 1563.37,816.279 1565.54,816.262 1567.7,816.246 1569.87,816.229 1572.04,816.212 1574.21,816.196 1576.38,816.18 1578.55,816.164 1580.72,816.148 1582.88,816.132 1585.05,816.117 1587.22,816.101 1589.39,816.086 1591.56,816.07 1593.73,816.055 1595.9,816.04 1598.07,816.025 1600.23,816.011 1602.4,815.996 1604.57,815.981 1606.74,815.967 1608.91,815.953 1611.08,815.939 1613.25,815.925 1615.41,815.911 1617.58,815.897 1619.75,815.883 1621.92,815.87 1624.09,815.856 1626.26,815.843 1628.43,815.829 1630.6,815.816 1632.76,815.803 1634.93,815.79 1637.1,815.778 1639.27,815.765 1641.44,815.752 1643.61,815.74 1645.78,815.727 1647.94,815.715 1650.11,815.703 1652.28,815.69 1654.45,815.678 1656.62,815.666 1658.79,815.655 1660.96,815.643 1663.13,815.631 1665.29,815.619 1667.46,815.608 1669.63,815.596 1671.8,815.585 1673.97,815.574 1676.14,815.563 1678.31,815.552 1680.47,815.541 1682.64,815.53 1684.81,815.519 1686.98,815.508 1689.15,815.497 1691.32,815.486 1693.49,815.476 1695.65,815.465 1697.82,815.455 1699.99,815.445 1702.16,815.434 1704.33,815.424 1706.5,815.414 1708.67,815.404 1710.84,815.394 1713,815.384 1715.17,815.374 1717.34,815.364 1719.51,815.354 1721.68,815.345 1723.85,815.335 1726.02,815.325 1728.18,815.316 1730.35,815.307 1732.52,815.297 1734.69,815.288 1736.86,815.279 1739.03,815.27 1741.2,815.261 1743.37,815.252 1745.53,815.243 1747.7,815.234 1749.87,815.225 1752.04,815.216 1754.21,815.208 1756.38,815.199 1758.55,815.19 1760.71,815.182 1762.88,815.174 1765.05,815.165 1767.22,815.157 1769.39,815.149 1771.56,815.14 1773.73,815.132 1775.89,815.124 1778.06,815.116 1780.23,815.108 1782.4,815.101 1784.57,815.093 1786.74,815.085 1788.91,815.077 1791.08,815.07 1793.24,815.062 1795.41,815.055 1797.58,815.047 1799.75,815.04 1801.92,815.033 1804.09,815.025 1806.26,815.018 1808.42,815.011 1810.59,815.004 1812.76,814.997 1814.93,814.99 1817.1,814.983 1819.27,814.976 1821.44,814.969 1823.61,814.962 1825.77,814.956 1827.94,814.949 1830.11,814.942 1832.28,814.936 1834.45,814.929 1836.62,814.923 1838.79,814.917 1840.95,814.91 1843.12,814.904 1845.29,814.898 1847.46,814.892 1849.63,814.885 1851.8,814.879 1853.97,814.873 1856.13,814.867 1858.3,814.861 1860.47,814.855 1862.64,814.85 1864.81,814.844 1866.98,814.838 1869.15,814.832 1871.32,814.827 1873.48,814.821 1875.65,814.816 1877.82,814.81 1879.99,814.805 1882.16,814.799 1884.33,814.794 1886.5,814.789 1888.66,814.783 1890.83,814.778 1893,814.773 1895.17,814.768 1897.34,814.763 1899.51,814.758 1901.68,814.752 1903.85,814.748 1906.01,814.743 1908.18,814.738 1910.35,814.733 1912.52,814.728 1914.69,814.723 1916.86,814.718 1919.03,814.714 1921.19,814.709 1923.36,814.704 1925.53,814.7 1927.7,814.695 1929.87,814.691 1932.04,814.686 1934.21,814.682 1936.37,814.678 1938.54,814.673 1940.71,814.669 1942.88,814.665 1945.05,814.66 1947.22,814.656 1949.39,814.652 1951.56,814.648 1953.72,814.644 1955.89,814.639 1958.06,814.635 1960.23,814.631 1962.4,814.627 1964.57,814.623 1966.74,814.619 1968.9,814.616 1971.07,814.612 1973.24,814.608 1975.41,814.604 1977.58,814.6 1979.75,814.596 1981.92,814.593 1984.09,814.589 1986.25,814.585 1988.42,814.582 1990.59,814.578 1992.76,814.574 1994.93,814.571 1997.1,814.567 1999.27,814.564 2001.43,814.56 2003.6,814.557 2005.77,814.553 2007.94,814.55 2010.11,814.546 2012.28,814.543 2014.45,814.54 2016.62,814.536 2018.78,814.533 2020.95,814.53 2023.12,814.526 2025.29,814.523 2027.46,814.52 2029.63,814.517 2031.8,814.514 2033.96,814.51 2036.13,814.507 2038.3,814.504 2040.47,814.501 2042.64,814.498 2044.81,814.495 2046.98,814.492 2049.14,814.488 2051.31,814.485 2053.48,814.482 2055.65,814.479 2057.82,814.476 2059.99,814.473 2062.16,814.47 2064.33,814.467 2066.49,814.464 2068.66,814.461 2070.83,814.458 2073,814.456 2075.17,814.453 2077.34,814.45 2079.51,814.447 2081.67,814.444 2083.84,814.441 2086.01,814.439 2088.18,814.436 2090.35,814.433 2092.52,814.43 2094.69,814.428 2096.86,814.425 2099.02,814.422 2101.19,814.42 2103.36,814.417 2105.53,814.415 2107.7,814.412 2109.87,814.409 2112.04,814.407 2114.2,814.404 2116.37,814.402 2118.54,814.399 2120.71,814.397 2122.88,814.394 2125.05,814.392 2127.22,814.39 2129.38,814.387 2131.55,814.385 2133.72,814.382 2135.89,814.38 2138.06,814.378 2140.23,814.375 2142.4,814.373 2144.57,814.371 2146.73,814.369 2148.9,814.366 2151.07,814.364 2153.24,814.362 2155.41,814.36 2157.58,814.357 2159.75,814.355 2161.91,814.353 2164.08,814.351 2166.25,814.349 2168.42,814.347 2170.59,814.345 2172.76,814.343 2174.93,814.34 2177.1,814.338 2179.26,814.336 2181.43,814.334 2183.6,814.332 2185.77,814.33 2187.94,814.328 2190.11,814.326 2192.28,814.324 2194.44,814.323 2196.61,814.321 2198.78,814.319 2200.95,814.317 2203.12,814.315 2205.29,814.313 2207.46,814.311 2209.62,814.309 2211.79,814.308 2213.96,814.306 2216.13,814.304 2218.3,814.302 2220.47,814.3 2222.64,814.299 2224.81,814.297 2226.97,814.295 2229.14,814.293 2231.31,814.292 2233.48,814.29 2235.65,814.288 2237.82,814.287 2239.99,814.285 2242.15,814.283 2244.32,814.282 2246.49,814.28 2248.66,814.278 2250.83,814.277 2253,814.275 2255.17,814.274 2257.34,814.272 2259.5,814.271 2261.67,814.269 2263.84,814.267 2266.01,814.266 2268.18,814.264 2270.35,814.263 2272.52,814.261 2274.68,814.26 2276.85,814.258 2279.02,814.257 2281.19,814.256 2283.36,814.254 2285.53,814.253 2287.7,814.251 2289.87,814.25 2292.03,814.248 2294.2,814.247 2296.37,814.246 2298.54,814.244 2300.71,814.243 2302.88,814.242 2305.05,814.24 2307.21,814.239 2309.38,814.238 2311.55,814.236 2313.72,814.235 2315.89,814.234 2318.06,814.232 2320.23,814.231 2322.39,814.23 2324.56,814.228 2326.73,814.227 2328.9,814.226 2331.07,814.225 2333.24,814.223 2335.41,814.222 2337.58,814.221 2339.74,814.22 2341.91,814.219 2344.08,814.217 2346.25,814.216 2348.42,814.215 2350.59,814.214 2352.76,814.213 "/>
<path clip-path="url(#clip720)" d="M1804.49 248.629 L2280.54 248.629 L2280.54 93.1086 L1804.49 93.1086  Z" fill="#ffffff" fill-rule="evenodd" fill-opacity="1"/>
<polyline clip-path="url(#clip720)" style="stroke:#000000; stroke-linecap:round; stroke-linejoin:round; stroke-width:4; stroke-opacity:1; fill:none" points="1804.49,248.629 2280.54,248.629 2280.54,93.1086 1804.49,93.1086 1804.49,248.629 "/>
<polyline clip-path="url(#clip720)" style="stroke:#009af9; stroke-linecap:round; stroke-linejoin:round; stroke-width:4; stroke-opacity:1; fill:none" points="1828.57,144.949 1973,144.949 "/>
<path clip-path="url(#clip720)" d="M1997.07 136.303 L2001.58 136.303 L2009.69 158.062 L2017.79 136.303 L2022.3 136.303 L2012.58 162.229 L2006.79 162.229 L1997.07 136.303 Z" fill="#000000" fill-rule="nonzero" fill-opacity="1" /><path clip-path="url(#clip720)" d="M2029.59 158.293 L2037.23 158.293 L2037.23 131.928 L2028.92 133.595 L2028.92 129.335 L2037.19 127.669 L2041.86 127.669 L2041.86 158.293 L2049.5 158.293 L2049.5 162.229 L2029.59 162.229 L2029.59 158.293 Z" fill="#000000" fill-rule="nonzero" fill-opacity="1" /><path clip-path="url(#clip720)" d="M2067.6 145.585 L2067.6 152.807 L2075.73 152.807 L2075.73 155.006 L2067.6 155.006 L2067.6 162.229 L2065.17 162.229 L2065.17 155.006 L2057.05 155.006 L2057.05 152.807 L2065.17 152.807 L2065.17 145.585 L2067.6 145.585 Z" fill="#000000" fill-rule="nonzero" fill-opacity="1" /><path clip-path="url(#clip720)" d="M2099.89 137.067 L2099.89 141.094 Q2098.09 140.169 2096.14 139.706 Q2094.2 139.243 2092.12 139.243 Q2088.95 139.243 2087.35 140.215 Q2085.77 141.187 2085.77 143.131 Q2085.77 144.613 2086.91 145.469 Q2088.04 146.303 2091.47 147.067 L2092.93 147.391 Q2097.46 148.363 2099.36 150.145 Q2101.28 151.905 2101.28 155.076 Q2101.28 158.687 2098.41 160.793 Q2095.57 162.9 2090.57 162.9 Q2088.48 162.9 2086.21 162.483 Q2083.97 162.09 2081.47 161.28 L2081.47 156.881 Q2083.83 158.108 2086.12 158.733 Q2088.41 159.335 2090.66 159.335 Q2093.67 159.335 2095.29 158.317 Q2096.91 157.275 2096.91 155.4 Q2096.91 153.664 2095.73 152.738 Q2094.57 151.812 2090.61 150.956 L2089.13 150.608 Q2085.17 149.775 2083.41 148.062 Q2081.65 146.326 2081.65 143.317 Q2081.65 139.659 2084.25 137.669 Q2086.84 135.678 2091.61 135.678 Q2093.97 135.678 2096.05 136.025 Q2098.14 136.372 2099.89 137.067 Z" fill="#000000" fill-rule="nonzero" fill-opacity="1" /><path clip-path="url(#clip720)" d="M2112.28 128.942 L2112.28 136.303 L2121.05 136.303 L2121.05 139.613 L2112.28 139.613 L2112.28 153.687 Q2112.28 156.858 2113.14 157.761 Q2114.01 158.664 2116.68 158.664 L2121.05 158.664 L2121.05 162.229 L2116.68 162.229 Q2111.75 162.229 2109.87 160.4 Q2108 158.548 2108 153.687 L2108 139.613 L2104.87 139.613 L2104.87 136.303 L2108 136.303 L2108 128.942 L2112.28 128.942 Z" fill="#000000" fill-rule="nonzero" fill-opacity="1" /><path clip-path="url(#clip720)" d="M2136.7 139.289 Q2133.27 139.289 2131.28 141.974 Q2129.29 144.636 2129.29 149.289 Q2129.29 153.942 2131.26 156.627 Q2133.25 159.289 2136.7 159.289 Q2140.1 159.289 2142.09 156.604 Q2144.08 153.918 2144.08 149.289 Q2144.08 144.682 2142.09 141.997 Q2140.1 139.289 2136.7 139.289 M2136.7 135.678 Q2142.26 135.678 2145.43 139.289 Q2148.6 142.9 2148.6 149.289 Q2148.6 155.655 2145.43 159.289 Q2142.26 162.9 2136.7 162.9 Q2131.12 162.9 2127.95 159.289 Q2124.8 155.655 2124.8 149.289 Q2124.8 142.9 2127.95 139.289 Q2131.12 135.678 2136.7 135.678 Z" fill="#000000" fill-rule="nonzero" fill-opacity="1" /><path clip-path="url(#clip720)" d="M2170.68 140.284 Q2169.96 139.868 2169.11 139.682 Q2168.27 139.474 2167.26 139.474 Q2163.64 139.474 2161.7 141.835 Q2159.78 144.173 2159.78 148.571 L2159.78 162.229 L2155.5 162.229 L2155.5 136.303 L2159.78 136.303 L2159.78 140.331 Q2161.12 137.969 2163.27 136.835 Q2165.43 135.678 2168.51 135.678 Q2168.95 135.678 2169.48 135.747 Q2170.01 135.794 2170.66 135.909 L2170.68 140.284 Z" fill="#000000" fill-rule="nonzero" fill-opacity="1" /><path clip-path="url(#clip720)" d="M2186.93 149.196 Q2181.77 149.196 2179.78 150.377 Q2177.79 151.557 2177.79 154.405 Q2177.79 156.673 2179.27 158.016 Q2180.77 159.335 2183.34 159.335 Q2186.88 159.335 2189.01 156.835 Q2191.17 154.312 2191.17 150.145 L2191.17 149.196 L2186.93 149.196 M2195.43 147.437 L2195.43 162.229 L2191.17 162.229 L2191.17 158.293 Q2189.71 160.655 2187.53 161.789 Q2185.36 162.9 2182.21 162.9 Q2178.23 162.9 2175.87 160.678 Q2173.53 158.432 2173.53 154.682 Q2173.53 150.307 2176.45 148.085 Q2179.38 145.863 2185.2 145.863 L2191.17 145.863 L2191.17 145.446 Q2191.17 142.507 2189.22 140.909 Q2187.3 139.289 2183.81 139.289 Q2181.58 139.289 2179.48 139.821 Q2177.37 140.354 2175.43 141.419 L2175.43 137.483 Q2177.76 136.581 2179.96 136.141 Q2182.16 135.678 2184.25 135.678 Q2189.87 135.678 2192.65 138.594 Q2195.43 141.511 2195.43 147.437 Z" fill="#000000" fill-rule="nonzero" fill-opacity="1" /><path clip-path="url(#clip720)" d="M2221.26 148.965 Q2221.26 144.335 2219.34 141.789 Q2217.44 139.243 2213.99 139.243 Q2210.57 139.243 2208.64 141.789 Q2206.75 144.335 2206.75 148.965 Q2206.75 153.571 2208.64 156.118 Q2210.57 158.664 2213.99 158.664 Q2217.44 158.664 2219.34 156.118 Q2221.26 153.571 2221.26 148.965 M2225.52 159.011 Q2225.52 165.631 2222.58 168.849 Q2219.64 172.09 2213.57 172.09 Q2211.33 172.09 2209.34 171.742 Q2207.35 171.418 2205.47 170.724 L2205.47 166.58 Q2207.35 167.599 2209.18 168.085 Q2211.01 168.571 2212.9 168.571 Q2217.09 168.571 2219.18 166.372 Q2221.26 164.196 2221.26 159.775 L2221.26 157.668 Q2219.94 159.96 2217.88 161.094 Q2215.82 162.229 2212.95 162.229 Q2208.18 162.229 2205.26 158.594 Q2202.35 154.96 2202.35 148.965 Q2202.35 142.946 2205.26 139.312 Q2208.18 135.678 2212.95 135.678 Q2215.82 135.678 2217.88 136.812 Q2219.94 137.946 2221.26 140.238 L2221.26 136.303 L2225.52 136.303 L2225.52 159.011 Z" fill="#000000" fill-rule="nonzero" fill-opacity="1" /><path clip-path="url(#clip720)" d="M2256.47 148.201 L2256.47 150.284 L2236.88 150.284 Q2237.16 154.682 2239.52 156.997 Q2241.91 159.289 2246.14 159.289 Q2248.6 159.289 2250.89 158.687 Q2253.2 158.085 2255.47 156.881 L2255.47 160.909 Q2253.18 161.881 2250.77 162.391 Q2248.37 162.9 2245.89 162.9 Q2239.69 162.9 2236.05 159.289 Q2232.44 155.678 2232.44 149.52 Q2232.44 143.155 2235.87 139.428 Q2239.32 135.678 2245.15 135.678 Q2250.38 135.678 2253.41 139.057 Q2256.47 142.414 2256.47 148.201 M2252.21 146.951 Q2252.16 143.456 2250.24 141.372 Q2248.34 139.289 2245.19 139.289 Q2241.63 139.289 2239.48 141.303 Q2237.35 143.317 2237.02 146.974 L2252.21 146.951 Z" fill="#000000" fill-rule="nonzero" fill-opacity="1" /><polyline clip-path="url(#clip720)" style="stroke:#e26f46; stroke-linecap:round; stroke-linejoin:round; stroke-width:4; stroke-opacity:1; fill:none" points="1828.57,196.789 1973,196.789 "/>
<path clip-path="url(#clip720)" d="M1997.07 188.143 L2001.58 188.143 L2009.69 209.902 L2017.79 188.143 L2022.3 188.143 L2012.58 214.069 L2006.79 214.069 L1997.07 188.143 Z" fill="#000000" fill-rule="nonzero" fill-opacity="1" /><path clip-path="url(#clip720)" d="M2028.83 179.509 L2047.19 179.509 L2047.19 183.444 L2033.11 183.444 L2033.11 191.916 Q2034.13 191.569 2035.15 191.407 Q2036.17 191.222 2037.19 191.222 Q2042.97 191.222 2046.35 194.393 Q2049.73 197.564 2049.73 202.981 Q2049.73 208.559 2046.26 211.661 Q2042.79 214.74 2036.47 214.74 Q2034.29 214.74 2032.02 214.37 Q2029.78 213.999 2027.37 213.258 L2027.37 208.559 Q2029.46 209.694 2031.68 210.249 Q2033.9 210.805 2036.38 210.805 Q2040.38 210.805 2042.72 208.698 Q2045.06 206.592 2045.06 202.981 Q2045.06 199.37 2042.72 197.263 Q2040.38 195.157 2036.38 195.157 Q2034.5 195.157 2032.63 195.573 Q2030.77 195.99 2028.83 196.87 L2028.83 179.509 Z" fill="#000000" fill-rule="nonzero" fill-opacity="1" /><path clip-path="url(#clip720)" d="M2067.6 197.425 L2067.6 204.647 L2075.73 204.647 L2075.73 206.846 L2067.6 206.846 L2067.6 214.069 L2065.17 214.069 L2065.17 206.846 L2057.05 206.846 L2057.05 204.647 L2065.17 204.647 L2065.17 197.425 L2067.6 197.425 Z" fill="#000000" fill-rule="nonzero" fill-opacity="1" /><path clip-path="url(#clip720)" d="M2099.89 188.907 L2099.89 192.934 Q2098.09 192.009 2096.14 191.546 Q2094.2 191.083 2092.12 191.083 Q2088.95 191.083 2087.35 192.055 Q2085.77 193.027 2085.77 194.971 Q2085.77 196.453 2086.91 197.309 Q2088.04 198.143 2091.47 198.907 L2092.93 199.231 Q2097.46 200.203 2099.36 201.985 Q2101.28 203.745 2101.28 206.916 Q2101.28 210.527 2098.41 212.633 Q2095.57 214.74 2090.57 214.74 Q2088.48 214.74 2086.21 214.323 Q2083.97 213.93 2081.47 213.12 L2081.47 208.721 Q2083.83 209.948 2086.12 210.573 Q2088.41 211.175 2090.66 211.175 Q2093.67 211.175 2095.29 210.157 Q2096.91 209.115 2096.91 207.24 Q2096.91 205.504 2095.73 204.578 Q2094.57 203.652 2090.61 202.796 L2089.13 202.448 Q2085.17 201.615 2083.41 199.902 Q2081.65 198.166 2081.65 195.157 Q2081.65 191.499 2084.25 189.509 Q2086.84 187.518 2091.61 187.518 Q2093.97 187.518 2096.05 187.865 Q2098.14 188.212 2099.89 188.907 Z" fill="#000000" fill-rule="nonzero" fill-opacity="1" /><path clip-path="url(#clip720)" d="M2112.28 180.782 L2112.28 188.143 L2121.05 188.143 L2121.05 191.453 L2112.28 191.453 L2112.28 205.527 Q2112.28 208.698 2113.14 209.601 Q2114.01 210.504 2116.68 210.504 L2121.05 210.504 L2121.05 214.069 L2116.68 214.069 Q2111.75 214.069 2109.87 212.24 Q2108 210.388 2108 205.527 L2108 191.453 L2104.87 191.453 L2104.87 188.143 L2108 188.143 L2108 180.782 L2112.28 180.782 Z" fill="#000000" fill-rule="nonzero" fill-opacity="1" /><path clip-path="url(#clip720)" d="M2136.7 191.129 Q2133.27 191.129 2131.28 193.814 Q2129.29 196.476 2129.29 201.129 Q2129.29 205.782 2131.26 208.467 Q2133.25 211.129 2136.7 211.129 Q2140.1 211.129 2142.09 208.444 Q2144.08 205.758 2144.08 201.129 Q2144.08 196.522 2142.09 193.837 Q2140.1 191.129 2136.7 191.129 M2136.7 187.518 Q2142.26 187.518 2145.43 191.129 Q2148.6 194.74 2148.6 201.129 Q2148.6 207.495 2145.43 211.129 Q2142.26 214.74 2136.7 214.74 Q2131.12 214.74 2127.95 211.129 Q2124.8 207.495 2124.8 201.129 Q2124.8 194.74 2127.95 191.129 Q2131.12 187.518 2136.7 187.518 Z" fill="#000000" fill-rule="nonzero" fill-opacity="1" /><path clip-path="url(#clip720)" d="M2170.68 192.124 Q2169.96 191.708 2169.11 191.522 Q2168.27 191.314 2167.26 191.314 Q2163.64 191.314 2161.7 193.675 Q2159.78 196.013 2159.78 200.411 L2159.78 214.069 L2155.5 214.069 L2155.5 188.143 L2159.78 188.143 L2159.78 192.171 Q2161.12 189.809 2163.27 188.675 Q2165.43 187.518 2168.51 187.518 Q2168.95 187.518 2169.48 187.587 Q2170.01 187.634 2170.66 187.749 L2170.68 192.124 Z" fill="#000000" fill-rule="nonzero" fill-opacity="1" /><path clip-path="url(#clip720)" d="M2186.93 201.036 Q2181.77 201.036 2179.78 202.217 Q2177.79 203.397 2177.79 206.245 Q2177.79 208.513 2179.27 209.856 Q2180.77 211.175 2183.34 211.175 Q2186.88 211.175 2189.01 208.675 Q2191.17 206.152 2191.17 201.985 L2191.17 201.036 L2186.93 201.036 M2195.43 199.277 L2195.43 214.069 L2191.17 214.069 L2191.17 210.133 Q2189.71 212.495 2187.53 213.629 Q2185.36 214.74 2182.21 214.74 Q2178.23 214.74 2175.87 212.518 Q2173.53 210.272 2173.53 206.522 Q2173.53 202.147 2176.45 199.925 Q2179.38 197.703 2185.2 197.703 L2191.17 197.703 L2191.17 197.286 Q2191.17 194.347 2189.22 192.749 Q2187.3 191.129 2183.81 191.129 Q2181.58 191.129 2179.48 191.661 Q2177.37 192.194 2175.43 193.259 L2175.43 189.323 Q2177.76 188.421 2179.96 187.981 Q2182.16 187.518 2184.25 187.518 Q2189.87 187.518 2192.65 190.434 Q2195.43 193.351 2195.43 199.277 Z" fill="#000000" fill-rule="nonzero" fill-opacity="1" /><path clip-path="url(#clip720)" d="M2221.26 200.805 Q2221.26 196.175 2219.34 193.629 Q2217.44 191.083 2213.99 191.083 Q2210.57 191.083 2208.64 193.629 Q2206.75 196.175 2206.75 200.805 Q2206.75 205.411 2208.64 207.958 Q2210.57 210.504 2213.99 210.504 Q2217.44 210.504 2219.34 207.958 Q2221.26 205.411 2221.26 200.805 M2225.52 210.851 Q2225.52 217.471 2222.58 220.689 Q2219.64 223.93 2213.57 223.93 Q2211.33 223.93 2209.34 223.582 Q2207.35 223.258 2205.47 222.564 L2205.47 218.42 Q2207.35 219.439 2209.18 219.925 Q2211.01 220.411 2212.9 220.411 Q2217.09 220.411 2219.18 218.212 Q2221.26 216.036 2221.26 211.615 L2221.26 209.508 Q2219.94 211.8 2217.88 212.934 Q2215.82 214.069 2212.95 214.069 Q2208.18 214.069 2205.26 210.434 Q2202.35 206.8 2202.35 200.805 Q2202.35 194.786 2205.26 191.152 Q2208.18 187.518 2212.95 187.518 Q2215.82 187.518 2217.88 188.652 Q2219.94 189.786 2221.26 192.078 L2221.26 188.143 L2225.52 188.143 L2225.52 210.851 Z" fill="#000000" fill-rule="nonzero" fill-opacity="1" /><path clip-path="url(#clip720)" d="M2256.47 200.041 L2256.47 202.124 L2236.88 202.124 Q2237.16 206.522 2239.52 208.837 Q2241.91 211.129 2246.14 211.129 Q2248.6 211.129 2250.89 210.527 Q2253.2 209.925 2255.47 208.721 L2255.47 212.749 Q2253.18 213.721 2250.77 214.231 Q2248.37 214.74 2245.89 214.74 Q2239.69 214.74 2236.05 211.129 Q2232.44 207.518 2232.44 201.36 Q2232.44 194.995 2235.87 191.268 Q2239.32 187.518 2245.15 187.518 Q2250.38 187.518 2253.41 190.897 Q2256.47 194.254 2256.47 200.041 M2252.21 198.791 Q2252.16 195.296 2250.24 193.212 Q2248.34 191.129 2245.19 191.129 Q2241.63 191.129 2239.48 193.143 Q2237.35 195.157 2237.02 198.814 L2252.21 198.791 Z" fill="#000000" fill-rule="nonzero" fill-opacity="1" /></svg>
