<?xml version="1.0" encoding="utf-8"?>
<svg xmlns="http://www.w3.org/2000/svg" xmlns:xlink="http://www.w3.org/1999/xlink" width="600" height="400" viewBox="0 0 2400 1600">
<defs>
  <clipPath id="clip310">
    <rect x="0" y="0" width="2400" height="1600"/>
  </clipPath>
</defs>
<path clip-path="url(#clip310)" d="M0 1600 L2400 1600 L2400 0 L0 0  Z" fill="#ffffff" fill-rule="evenodd" fill-opacity="1"/>
<defs>
  <clipPath id="clip311">
    <rect x="480" y="0" width="1681" height="1600"/>
  </clipPath>
</defs>
<path clip-path="url(#clip310)" d="M223.103 1423.18 L2352.76 1423.18 L2352.76 47.2441 L223.103 47.2441  Z" fill="#ffffff" fill-rule="evenodd" fill-opacity="1"/>
<defs>
  <clipPath id="clip312">
    <rect x="223" y="47" width="2131" height="1377"/>
  </clipPath>
</defs>
<polyline clip-path="url(#clip312)" style="stroke:#000000; stroke-linecap:round; stroke-linejoin:round; stroke-width:2; stroke-opacity:0.1; fill:none" points="223.103,1423.18 223.103,47.2441 "/>
<polyline clip-path="url(#clip312)" style="stroke:#000000; stroke-linecap:round; stroke-linejoin:round; stroke-width:2; stroke-opacity:0.1; fill:none" points="755.516,1423.18 755.516,47.2441 "/>
<polyline clip-path="url(#clip312)" style="stroke:#000000; stroke-linecap:round; stroke-linejoin:round; stroke-width:2; stroke-opacity:0.1; fill:none" points="1287.93,1423.18 1287.93,47.2441 "/>
<polyline clip-path="url(#clip312)" style="stroke:#000000; stroke-linecap:round; stroke-linejoin:round; stroke-width:2; stroke-opacity:0.1; fill:none" points="1820.34,1423.18 1820.34,47.2441 "/>
<polyline clip-path="url(#clip312)" style="stroke:#000000; stroke-linecap:round; stroke-linejoin:round; stroke-width:2; stroke-opacity:0.1; fill:none" points="2352.76,1423.18 2352.76,47.2441 "/>
<polyline clip-path="url(#clip312)" style="stroke:#000000; stroke-linecap:round; stroke-linejoin:round; stroke-width:2; stroke-opacity:0.1; fill:none" points="223.103,1338.87 2352.76,1338.87 "/>
<polyline clip-path="url(#clip312)" style="stroke:#000000; stroke-linecap:round; stroke-linejoin:round; stroke-width:2; stroke-opacity:0.1; fill:none" points="223.103,1073.91 2352.76,1073.91 "/>
<polyline clip-path="url(#clip312)" style="stroke:#000000; stroke-linecap:round; stroke-linejoin:round; stroke-width:2; stroke-opacity:0.1; fill:none" points="223.103,808.958 2352.76,808.958 "/>
<polyline clip-path="url(#clip312)" style="stroke:#000000; stroke-linecap:round; stroke-linejoin:round; stroke-width:2; stroke-opacity:0.1; fill:none" points="223.103,544.004 2352.76,544.004 "/>
<polyline clip-path="url(#clip312)" style="stroke:#000000; stroke-linecap:round; stroke-linejoin:round; stroke-width:2; stroke-opacity:0.1; fill:none" points="223.103,279.05 2352.76,279.05 "/>
<polyline clip-path="url(#clip310)" style="stroke:#000000; stroke-linecap:round; stroke-linejoin:round; stroke-width:4; stroke-opacity:1; fill:none" points="223.103,1423.18 2352.76,1423.18 "/>
<polyline clip-path="url(#clip310)" style="stroke:#000000; stroke-linecap:round; stroke-linejoin:round; stroke-width:4; stroke-opacity:1; fill:none" points="223.103,1423.18 223.103,1404.28 "/>
<polyline clip-path="url(#clip310)" style="stroke:#000000; stroke-linecap:round; stroke-linejoin:round; stroke-width:4; stroke-opacity:1; fill:none" points="755.516,1423.18 755.516,1404.28 "/>
<polyline clip-path="url(#clip310)" style="stroke:#000000; stroke-linecap:round; stroke-linejoin:round; stroke-width:4; stroke-opacity:1; fill:none" points="1287.93,1423.18 1287.93,1404.28 "/>
<polyline clip-path="url(#clip310)" style="stroke:#000000; stroke-linecap:round; stroke-linejoin:round; stroke-width:4; stroke-opacity:1; fill:none" points="1820.34,1423.18 1820.34,1404.28 "/>
<polyline clip-path="url(#clip310)" style="stroke:#000000; stroke-linecap:round; stroke-linejoin:round; stroke-width:4; stroke-opacity:1; fill:none" points="2352.76,1423.18 2352.76,1404.28 "/>
<path clip-path="url(#clip310)" d="M200.487 1454.1 Q196.876 1454.1 195.047 1457.66 Q193.242 1461.2 193.242 1468.33 Q193.242 1475.44 195.047 1479.01 Q196.876 1482.55 200.487 1482.55 Q204.121 1482.55 205.927 1479.01 Q207.755 1475.44 207.755 1468.33 Q207.755 1461.2 205.927 1457.66 Q204.121 1454.1 200.487 1454.1 M200.487 1450.39 Q206.297 1450.39 209.353 1455 Q212.431 1459.58 212.431 1468.33 Q212.431 1477.06 209.353 1481.67 Q206.297 1486.25 200.487 1486.25 Q194.677 1486.25 191.598 1481.67 Q188.543 1477.06 188.543 1468.33 Q188.543 1459.58 191.598 1455 Q194.677 1450.39 200.487 1450.39 Z" fill="#000000" fill-rule="nonzero" fill-opacity="1" /><path clip-path="url(#clip310)" d="M220.649 1479.7 L225.533 1479.7 L225.533 1485.58 L220.649 1485.58 L220.649 1479.7 Z" fill="#000000" fill-rule="nonzero" fill-opacity="1" /><path clip-path="url(#clip310)" d="M245.718 1454.1 Q242.107 1454.1 240.278 1457.66 Q238.473 1461.2 238.473 1468.33 Q238.473 1475.44 240.278 1479.01 Q242.107 1482.55 245.718 1482.55 Q249.352 1482.55 251.158 1479.01 Q252.987 1475.44 252.987 1468.33 Q252.987 1461.2 251.158 1457.66 Q249.352 1454.1 245.718 1454.1 M245.718 1450.39 Q251.528 1450.39 254.584 1455 Q257.663 1459.58 257.663 1468.33 Q257.663 1477.06 254.584 1481.67 Q251.528 1486.25 245.718 1486.25 Q239.908 1486.25 236.829 1481.67 Q233.774 1477.06 233.774 1468.33 Q233.774 1459.58 236.829 1455 Q239.908 1450.39 245.718 1450.39 Z" fill="#000000" fill-rule="nonzero" fill-opacity="1" /><path clip-path="url(#clip310)" d="M733.398 1454.1 Q729.787 1454.1 727.958 1457.66 Q726.153 1461.2 726.153 1468.33 Q726.153 1475.44 727.958 1479.01 Q729.787 1482.55 733.398 1482.55 Q737.032 1482.55 738.838 1479.01 Q740.666 1475.44 740.666 1468.33 Q740.666 1461.2 738.838 1457.66 Q737.032 1454.1 733.398 1454.1 M733.398 1450.39 Q739.208 1450.39 742.264 1455 Q745.342 1459.58 745.342 1468.33 Q745.342 1477.06 742.264 1481.67 Q739.208 1486.25 733.398 1486.25 Q727.588 1486.25 724.509 1481.67 Q721.454 1477.06 721.454 1468.33 Q721.454 1459.58 724.509 1455 Q727.588 1450.39 733.398 1450.39 Z" fill="#000000" fill-rule="nonzero" fill-opacity="1" /><path clip-path="url(#clip310)" d="M753.56 1479.7 L758.444 1479.7 L758.444 1485.58 L753.56 1485.58 L753.56 1479.7 Z" fill="#000000" fill-rule="nonzero" fill-opacity="1" /><path clip-path="url(#clip310)" d="M768.676 1451.02 L787.032 1451.02 L787.032 1454.96 L772.958 1454.96 L772.958 1463.43 Q773.976 1463.08 774.995 1462.92 Q776.013 1462.73 777.032 1462.73 Q782.819 1462.73 786.199 1465.9 Q789.578 1469.08 789.578 1474.49 Q789.578 1480.07 786.106 1483.17 Q782.634 1486.25 776.314 1486.25 Q774.138 1486.25 771.87 1485.88 Q769.625 1485.51 767.217 1484.77 L767.217 1480.07 Q769.301 1481.2 771.523 1481.76 Q773.745 1482.32 776.222 1482.32 Q780.226 1482.32 782.564 1480.21 Q784.902 1478.1 784.902 1474.49 Q784.902 1470.88 782.564 1468.77 Q780.226 1466.67 776.222 1466.67 Q774.347 1466.67 772.472 1467.08 Q770.62 1467.5 768.676 1468.38 L768.676 1451.02 Z" fill="#000000" fill-rule="nonzero" fill-opacity="1" /><path clip-path="url(#clip310)" d="M1255.08 1481.64 L1262.72 1481.64 L1262.72 1455.28 L1254.41 1456.95 L1254.41 1452.69 L1262.67 1451.02 L1267.35 1451.02 L1267.35 1481.64 L1274.99 1481.64 L1274.99 1485.58 L1255.08 1485.58 L1255.08 1481.64 Z" fill="#000000" fill-rule="nonzero" fill-opacity="1" /><path clip-path="url(#clip310)" d="M1284.43 1479.7 L1289.32 1479.7 L1289.32 1485.58 L1284.43 1485.58 L1284.43 1479.7 Z" fill="#000000" fill-rule="nonzero" fill-opacity="1" /><path clip-path="url(#clip310)" d="M1309.5 1454.1 Q1305.89 1454.1 1304.06 1457.66 Q1302.26 1461.2 1302.26 1468.33 Q1302.26 1475.44 1304.06 1479.01 Q1305.89 1482.55 1309.5 1482.55 Q1313.14 1482.55 1314.94 1479.01 Q1316.77 1475.44 1316.77 1468.33 Q1316.77 1461.2 1314.94 1457.66 Q1313.14 1454.1 1309.5 1454.1 M1309.5 1450.39 Q1315.31 1450.39 1318.37 1455 Q1321.45 1459.58 1321.45 1468.33 Q1321.45 1477.06 1318.37 1481.67 Q1315.31 1486.25 1309.5 1486.25 Q1303.69 1486.25 1300.61 1481.67 Q1297.56 1477.06 1297.56 1468.33 Q1297.56 1459.58 1300.61 1455 Q1303.69 1450.39 1309.5 1450.39 Z" fill="#000000" fill-rule="nonzero" fill-opacity="1" /><path clip-path="url(#clip310)" d="M1787.99 1481.64 L1795.63 1481.64 L1795.63 1455.28 L1787.32 1456.95 L1787.32 1452.69 L1795.59 1451.02 L1800.26 1451.02 L1800.26 1481.64 L1807.9 1481.64 L1807.9 1485.58 L1787.99 1485.58 L1787.99 1481.64 Z" fill="#000000" fill-rule="nonzero" fill-opacity="1" /><path clip-path="url(#clip310)" d="M1817.34 1479.7 L1822.23 1479.7 L1822.23 1485.58 L1817.34 1485.58 L1817.34 1479.7 Z" fill="#000000" fill-rule="nonzero" fill-opacity="1" /><path clip-path="url(#clip310)" d="M1832.46 1451.02 L1850.82 1451.02 L1850.82 1454.96 L1836.74 1454.96 L1836.74 1463.43 Q1837.76 1463.08 1838.78 1462.92 Q1839.8 1462.73 1840.82 1462.73 Q1846.6 1462.73 1849.98 1465.9 Q1853.36 1469.08 1853.36 1474.49 Q1853.36 1480.07 1849.89 1483.17 Q1846.42 1486.25 1840.1 1486.25 Q1837.92 1486.25 1835.65 1485.88 Q1833.41 1485.51 1831 1484.77 L1831 1480.07 Q1833.09 1481.2 1835.31 1481.76 Q1837.53 1482.32 1840.01 1482.32 Q1844.01 1482.32 1846.35 1480.21 Q1848.69 1478.1 1848.69 1474.49 Q1848.69 1470.88 1846.35 1468.77 Q1844.01 1466.67 1840.01 1466.67 Q1838.13 1466.67 1836.26 1467.08 Q1834.4 1467.5 1832.46 1468.38 L1832.46 1451.02 Z" fill="#000000" fill-rule="nonzero" fill-opacity="1" /><path clip-path="url(#clip310)" d="M2323.99 1481.64 L2340.31 1481.64 L2340.31 1485.58 L2318.37 1485.58 L2318.37 1481.64 Q2321.03 1478.89 2325.61 1474.26 Q2330.22 1469.61 2331.4 1468.27 Q2333.65 1465.74 2334.53 1464.01 Q2335.43 1462.25 2335.43 1460.56 Q2335.43 1457.8 2333.49 1456.07 Q2331.56 1454.33 2328.46 1454.33 Q2326.26 1454.33 2323.81 1455.09 Q2321.38 1455.86 2318.6 1457.41 L2318.6 1452.69 Q2321.43 1451.55 2323.88 1450.97 Q2326.33 1450.39 2328.37 1450.39 Q2333.74 1450.39 2336.93 1453.08 Q2340.13 1455.77 2340.13 1460.26 Q2340.13 1462.39 2339.32 1464.31 Q2338.53 1466.2 2336.42 1468.8 Q2335.85 1469.47 2332.74 1472.69 Q2329.64 1475.88 2323.99 1481.64 Z" fill="#000000" fill-rule="nonzero" fill-opacity="1" /><path clip-path="url(#clip310)" d="M2350.13 1479.7 L2355.01 1479.7 L2355.01 1485.58 L2350.13 1485.58 L2350.13 1479.7 Z" fill="#000000" fill-rule="nonzero" fill-opacity="1" /><path clip-path="url(#clip310)" d="M2375.2 1454.1 Q2371.59 1454.1 2369.76 1457.66 Q2367.95 1461.2 2367.95 1468.33 Q2367.95 1475.44 2369.76 1479.01 Q2371.59 1482.55 2375.2 1482.55 Q2378.83 1482.55 2380.64 1479.01 Q2382.47 1475.44 2382.47 1468.33 Q2382.47 1461.2 2380.64 1457.66 Q2378.83 1454.1 2375.2 1454.1 M2375.2 1450.39 Q2381.01 1450.39 2384.06 1455 Q2387.14 1459.58 2387.14 1468.33 Q2387.14 1477.06 2384.06 1481.67 Q2381.01 1486.25 2375.2 1486.25 Q2369.39 1486.25 2366.31 1481.67 Q2363.25 1477.06 2363.25 1468.33 Q2363.25 1459.58 2366.31 1455 Q2369.39 1450.39 2375.2 1450.39 Z" fill="#000000" fill-rule="nonzero" fill-opacity="1" /><path clip-path="url(#clip310)" d="M1286.99 1522.27 L1286.99 1532.4 L1299.05 1532.4 L1299.05 1536.95 L1286.99 1536.95 L1286.99 1556.3 Q1286.99 1560.66 1288.17 1561.9 Q1289.38 1563.14 1293.04 1563.14 L1299.05 1563.14 L1299.05 1568.04 L1293.04 1568.04 Q1286.26 1568.04 1283.68 1565.53 Q1281.1 1562.98 1281.1 1556.3 L1281.1 1536.95 L1276.81 1536.95 L1276.81 1532.4 L1281.1 1532.4 L1281.1 1522.27 L1286.99 1522.27 Z" fill="#000000" fill-rule="nonzero" fill-opacity="1" /><polyline clip-path="url(#clip310)" style="stroke:#000000; stroke-linecap:round; stroke-linejoin:round; stroke-width:4; stroke-opacity:1; fill:none" points="223.103,1423.18 223.103,47.2441 "/>
<polyline clip-path="url(#clip310)" style="stroke:#000000; stroke-linecap:round; stroke-linejoin:round; stroke-width:4; stroke-opacity:1; fill:none" points="223.103,1338.87 242,1338.87 "/>
<polyline clip-path="url(#clip310)" style="stroke:#000000; stroke-linecap:round; stroke-linejoin:round; stroke-width:4; stroke-opacity:1; fill:none" points="223.103,1073.91 242,1073.91 "/>
<polyline clip-path="url(#clip310)" style="stroke:#000000; stroke-linecap:round; stroke-linejoin:round; stroke-width:4; stroke-opacity:1; fill:none" points="223.103,808.958 242,808.958 "/>
<polyline clip-path="url(#clip310)" style="stroke:#000000; stroke-linecap:round; stroke-linejoin:round; stroke-width:4; stroke-opacity:1; fill:none" points="223.103,544.004 242,544.004 "/>
<polyline clip-path="url(#clip310)" style="stroke:#000000; stroke-linecap:round; stroke-linejoin:round; stroke-width:4; stroke-opacity:1; fill:none" points="223.103,279.05 242,279.05 "/>
<path clip-path="url(#clip310)" d="M50.9921 1339.32 L80.6679 1339.32 L80.6679 1343.25 L50.9921 1343.25 L50.9921 1339.32 Z" fill="#000000" fill-rule="nonzero" fill-opacity="1" /><path clip-path="url(#clip310)" d="M100.76 1324.66 Q97.1493 1324.66 95.3206 1328.23 Q93.515 1331.77 93.515 1338.9 Q93.515 1346.01 95.3206 1349.57 Q97.1493 1353.11 100.76 1353.11 Q104.395 1353.11 106.2 1349.57 Q108.029 1346.01 108.029 1338.9 Q108.029 1331.77 106.2 1328.23 Q104.395 1324.66 100.76 1324.66 M100.76 1320.96 Q106.571 1320.96 109.626 1325.57 Q112.705 1330.15 112.705 1338.9 Q112.705 1347.63 109.626 1352.23 Q106.571 1356.82 100.76 1356.82 Q94.9502 1356.82 91.8715 1352.23 Q88.816 1347.63 88.816 1338.9 Q88.816 1330.15 91.8715 1325.57 Q94.9502 1320.96 100.76 1320.96 Z" fill="#000000" fill-rule="nonzero" fill-opacity="1" /><path clip-path="url(#clip310)" d="M120.922 1350.27 L125.807 1350.27 L125.807 1356.15 L120.922 1356.15 L120.922 1350.27 Z" fill="#000000" fill-rule="nonzero" fill-opacity="1" /><path clip-path="url(#clip310)" d="M140.019 1352.21 L156.339 1352.21 L156.339 1356.15 L134.394 1356.15 L134.394 1352.21 Q137.056 1349.46 141.64 1344.83 Q146.246 1340.17 147.427 1338.83 Q149.672 1336.31 150.552 1334.57 Q151.455 1332.81 151.455 1331.12 Q151.455 1328.37 149.51 1326.63 Q147.589 1324.9 144.487 1324.9 Q142.288 1324.9 139.834 1325.66 Q137.404 1326.42 134.626 1327.97 L134.626 1323.25 Q137.45 1322.12 139.904 1321.54 Q142.357 1320.96 144.394 1320.96 Q149.765 1320.96 152.959 1323.65 Q156.154 1326.33 156.154 1330.82 Q156.154 1332.95 155.343 1334.87 Q154.556 1336.77 152.45 1339.36 Q151.871 1340.03 148.769 1343.25 Q145.668 1346.45 140.019 1352.21 Z" fill="#000000" fill-rule="nonzero" fill-opacity="1" /><path clip-path="url(#clip310)" d="M166.2 1321.59 L184.556 1321.59 L184.556 1325.52 L170.482 1325.52 L170.482 1333.99 Q171.501 1333.65 172.519 1333.48 Q173.538 1333.3 174.556 1333.3 Q180.343 1333.3 183.723 1336.47 Q187.103 1339.64 187.103 1345.06 Q187.103 1350.64 183.63 1353.74 Q180.158 1356.82 173.839 1356.82 Q171.663 1356.82 169.394 1356.45 Q167.149 1356.08 164.742 1355.33 L164.742 1350.64 Q166.825 1351.77 169.047 1352.33 Q171.269 1352.88 173.746 1352.88 Q177.751 1352.88 180.089 1350.77 Q182.427 1348.67 182.427 1345.06 Q182.427 1341.45 180.089 1339.34 Q177.751 1337.23 173.746 1337.23 Q171.871 1337.23 169.996 1337.65 Q168.144 1338.07 166.2 1338.95 L166.2 1321.59 Z" fill="#000000" fill-rule="nonzero" fill-opacity="1" /><path clip-path="url(#clip310)" d="M99.765 1059.71 Q96.1539 1059.71 94.3252 1063.27 Q92.5197 1066.82 92.5197 1073.95 Q92.5197 1081.05 94.3252 1084.62 Q96.1539 1088.16 99.765 1088.16 Q103.399 1088.16 105.205 1084.62 Q107.033 1081.05 107.033 1073.95 Q107.033 1066.82 105.205 1063.27 Q103.399 1059.71 99.765 1059.71 M99.765 1056.01 Q105.575 1056.01 108.631 1060.61 Q111.709 1065.2 111.709 1073.95 Q111.709 1082.67 108.631 1087.28 Q105.575 1091.86 99.765 1091.86 Q93.9549 1091.86 90.8762 1087.28 Q87.8206 1082.67 87.8206 1073.95 Q87.8206 1065.2 90.8762 1060.61 Q93.9549 1056.01 99.765 1056.01 Z" fill="#000000" fill-rule="nonzero" fill-opacity="1" /><path clip-path="url(#clip310)" d="M119.927 1085.31 L124.811 1085.31 L124.811 1091.19 L119.927 1091.19 L119.927 1085.31 Z" fill="#000000" fill-rule="nonzero" fill-opacity="1" /><path clip-path="url(#clip310)" d="M144.996 1059.71 Q141.385 1059.71 139.556 1063.27 Q137.751 1066.82 137.751 1073.95 Q137.751 1081.05 139.556 1084.62 Q141.385 1088.16 144.996 1088.16 Q148.63 1088.16 150.436 1084.62 Q152.265 1081.05 152.265 1073.95 Q152.265 1066.82 150.436 1063.27 Q148.63 1059.71 144.996 1059.71 M144.996 1056.01 Q150.806 1056.01 153.862 1060.61 Q156.941 1065.2 156.941 1073.95 Q156.941 1082.67 153.862 1087.28 Q150.806 1091.86 144.996 1091.86 Q139.186 1091.86 136.107 1087.28 Q133.052 1082.67 133.052 1073.95 Q133.052 1065.2 136.107 1060.61 Q139.186 1056.01 144.996 1056.01 Z" fill="#000000" fill-rule="nonzero" fill-opacity="1" /><path clip-path="url(#clip310)" d="M175.158 1059.71 Q171.547 1059.71 169.718 1063.27 Q167.913 1066.82 167.913 1073.95 Q167.913 1081.05 169.718 1084.62 Q171.547 1088.16 175.158 1088.16 Q178.792 1088.16 180.598 1084.62 Q182.427 1081.05 182.427 1073.95 Q182.427 1066.82 180.598 1063.27 Q178.792 1059.71 175.158 1059.71 M175.158 1056.01 Q180.968 1056.01 184.024 1060.61 Q187.103 1065.2 187.103 1073.95 Q187.103 1082.67 184.024 1087.28 Q180.968 1091.86 175.158 1091.86 Q169.348 1091.86 166.269 1087.28 Q163.214 1082.67 163.214 1073.95 Q163.214 1065.2 166.269 1060.61 Q169.348 1056.01 175.158 1056.01 Z" fill="#000000" fill-rule="nonzero" fill-opacity="1" /><path clip-path="url(#clip310)" d="M100.76 794.756 Q97.1493 794.756 95.3206 798.321 Q93.515 801.863 93.515 808.992 Q93.515 816.099 95.3206 819.663 Q97.1493 823.205 100.76 823.205 Q104.395 823.205 106.2 819.663 Q108.029 816.099 108.029 808.992 Q108.029 801.863 106.2 798.321 Q104.395 794.756 100.76 794.756 M100.76 791.053 Q106.571 791.053 109.626 795.659 Q112.705 800.242 112.705 808.992 Q112.705 817.719 109.626 822.325 Q106.571 826.909 100.76 826.909 Q94.9502 826.909 91.8715 822.325 Q88.816 817.719 88.816 808.992 Q88.816 800.242 91.8715 795.659 Q94.9502 791.053 100.76 791.053 Z" fill="#000000" fill-rule="nonzero" fill-opacity="1" /><path clip-path="url(#clip310)" d="M120.922 820.358 L125.807 820.358 L125.807 826.238 L120.922 826.238 L120.922 820.358 Z" fill="#000000" fill-rule="nonzero" fill-opacity="1" /><path clip-path="url(#clip310)" d="M140.019 822.302 L156.339 822.302 L156.339 826.238 L134.394 826.238 L134.394 822.302 Q137.056 819.548 141.64 814.918 Q146.246 810.265 147.427 808.923 Q149.672 806.4 150.552 804.664 Q151.455 802.904 151.455 801.214 Q151.455 798.46 149.51 796.724 Q147.589 794.988 144.487 794.988 Q142.288 794.988 139.834 795.752 Q137.404 796.515 134.626 798.066 L134.626 793.344 Q137.45 792.21 139.904 791.631 Q142.357 791.053 144.394 791.053 Q149.765 791.053 152.959 793.738 Q156.154 796.423 156.154 800.914 Q156.154 803.043 155.343 804.964 Q154.556 806.863 152.45 809.455 Q151.871 810.126 148.769 813.344 Q145.668 816.538 140.019 822.302 Z" fill="#000000" fill-rule="nonzero" fill-opacity="1" /><path clip-path="url(#clip310)" d="M166.2 791.678 L184.556 791.678 L184.556 795.613 L170.482 795.613 L170.482 804.085 Q171.501 803.738 172.519 803.576 Q173.538 803.39 174.556 803.39 Q180.343 803.39 183.723 806.562 Q187.103 809.733 187.103 815.15 Q187.103 820.728 183.63 823.83 Q180.158 826.909 173.839 826.909 Q171.663 826.909 169.394 826.538 Q167.149 826.168 164.742 825.427 L164.742 820.728 Q166.825 821.863 169.047 822.418 Q171.269 822.974 173.746 822.974 Q177.751 822.974 180.089 820.867 Q182.427 818.761 182.427 815.15 Q182.427 811.539 180.089 809.432 Q177.751 807.326 173.746 807.326 Q171.871 807.326 169.996 807.742 Q168.144 808.159 166.2 809.039 L166.2 791.678 Z" fill="#000000" fill-rule="nonzero" fill-opacity="1" /><path clip-path="url(#clip310)" d="M99.765 529.802 Q96.1539 529.802 94.3252 533.367 Q92.5197 536.909 92.5197 544.038 Q92.5197 551.145 94.3252 554.71 Q96.1539 558.251 99.765 558.251 Q103.399 558.251 105.205 554.71 Q107.033 551.145 107.033 544.038 Q107.033 536.909 105.205 533.367 Q103.399 529.802 99.765 529.802 M99.765 526.099 Q105.575 526.099 108.631 530.705 Q111.709 535.288 111.709 544.038 Q111.709 552.765 108.631 557.372 Q105.575 561.955 99.765 561.955 Q93.9549 561.955 90.8762 557.372 Q87.8206 552.765 87.8206 544.038 Q87.8206 535.288 90.8762 530.705 Q93.9549 526.099 99.765 526.099 Z" fill="#000000" fill-rule="nonzero" fill-opacity="1" /><path clip-path="url(#clip310)" d="M119.927 555.404 L124.811 555.404 L124.811 561.284 L119.927 561.284 L119.927 555.404 Z" fill="#000000" fill-rule="nonzero" fill-opacity="1" /><path clip-path="url(#clip310)" d="M135.043 526.724 L153.399 526.724 L153.399 530.659 L139.325 530.659 L139.325 539.131 Q140.343 538.784 141.362 538.622 Q142.381 538.437 143.399 538.437 Q149.186 538.437 152.566 541.608 Q155.945 544.779 155.945 550.196 Q155.945 555.774 152.473 558.876 Q149.001 561.955 142.681 561.955 Q140.506 561.955 138.237 561.585 Q135.992 561.214 133.584 560.474 L133.584 555.774 Q135.668 556.909 137.89 557.464 Q140.112 558.02 142.589 558.02 Q146.593 558.02 148.931 555.913 Q151.269 553.807 151.269 550.196 Q151.269 546.585 148.931 544.478 Q146.593 542.372 142.589 542.372 Q140.714 542.372 138.839 542.788 Q136.987 543.205 135.043 544.085 L135.043 526.724 Z" fill="#000000" fill-rule="nonzero" fill-opacity="1" /><path clip-path="url(#clip310)" d="M175.158 529.802 Q171.547 529.802 169.718 533.367 Q167.913 536.909 167.913 544.038 Q167.913 551.145 169.718 554.71 Q171.547 558.251 175.158 558.251 Q178.792 558.251 180.598 554.71 Q182.427 551.145 182.427 544.038 Q182.427 536.909 180.598 533.367 Q178.792 529.802 175.158 529.802 M175.158 526.099 Q180.968 526.099 184.024 530.705 Q187.103 535.288 187.103 544.038 Q187.103 552.765 184.024 557.372 Q180.968 561.955 175.158 561.955 Q169.348 561.955 166.269 557.372 Q163.214 552.765 163.214 544.038 Q163.214 535.288 166.269 530.705 Q169.348 526.099 175.158 526.099 Z" fill="#000000" fill-rule="nonzero" fill-opacity="1" /><path clip-path="url(#clip310)" d="M100.76 264.849 Q97.1493 264.849 95.3206 268.413 Q93.515 271.955 93.515 279.085 Q93.515 286.191 95.3206 289.756 Q97.1493 293.298 100.76 293.298 Q104.395 293.298 106.2 289.756 Q108.029 286.191 108.029 279.085 Q108.029 271.955 106.2 268.413 Q104.395 264.849 100.76 264.849 M100.76 261.145 Q106.571 261.145 109.626 265.751 Q112.705 270.335 112.705 279.085 Q112.705 287.811 109.626 292.418 Q106.571 297.001 100.76 297.001 Q94.9502 297.001 91.8715 292.418 Q88.816 287.811 88.816 279.085 Q88.816 270.335 91.8715 265.751 Q94.9502 261.145 100.76 261.145 Z" fill="#000000" fill-rule="nonzero" fill-opacity="1" /><path clip-path="url(#clip310)" d="M120.922 290.45 L125.807 290.45 L125.807 296.33 L120.922 296.33 L120.922 290.45 Z" fill="#000000" fill-rule="nonzero" fill-opacity="1" /><path clip-path="url(#clip310)" d="M134.811 261.77 L157.033 261.77 L157.033 263.761 L144.487 296.33 L139.603 296.33 L151.408 265.705 L134.811 265.705 L134.811 261.77 Z" fill="#000000" fill-rule="nonzero" fill-opacity="1" /><path clip-path="url(#clip310)" d="M166.2 261.77 L184.556 261.77 L184.556 265.705 L170.482 265.705 L170.482 274.177 Q171.501 273.83 172.519 273.668 Q173.538 273.483 174.556 273.483 Q180.343 273.483 183.723 276.654 Q187.103 279.825 187.103 285.242 Q187.103 290.821 183.63 293.923 Q180.158 297.001 173.839 297.001 Q171.663 297.001 169.394 296.631 Q167.149 296.26 164.742 295.52 L164.742 290.821 Q166.825 291.955 169.047 292.51 Q171.269 293.066 173.746 293.066 Q177.751 293.066 180.089 290.96 Q182.427 288.853 182.427 285.242 Q182.427 281.631 180.089 279.524 Q177.751 277.418 173.746 277.418 Q171.871 277.418 169.996 277.835 Q168.144 278.251 166.2 279.131 L166.2 261.77 Z" fill="#000000" fill-rule="nonzero" fill-opacity="1" /><polyline clip-path="url(#clip312)" style="stroke:#009af9; stroke-linecap:round; stroke-linejoin:round; stroke-width:4; stroke-opacity:1; fill:none" points="223.103,86.1857 225.234,99.115 227.366,111.916 229.498,124.589 231.63,137.135 233.761,149.557 235.893,161.855 238.025,174.031 240.157,186.085 242.289,198.02 244.42,209.835 246.552,221.533 248.684,233.114 250.816,244.58 252.948,255.932 255.079,267.17 257.211,278.297 259.343,289.313 261.475,300.219 263.606,311.017 265.738,321.707 267.87,332.29 270.002,342.768 272.134,353.142 274.265,363.412 276.397,373.581 278.529,383.647 280.661,393.614 282.792,403.481 284.924,413.25 287.056,422.922 289.188,432.497 291.32,441.977 293.451,451.363 295.583,460.655 297.715,469.855 299.847,478.963 301.979,487.98 304.11,496.907 306.242,505.746 308.374,514.496 310.506,523.16 312.637,531.737 314.769,540.228 316.901,548.635 319.033,556.959 321.165,565.199 323.296,573.357 325.428,581.434 327.56,589.431 329.692,597.348 331.824,605.186 333.955,612.946 336.087,620.629 338.219,628.235 340.351,635.765 342.482,643.221 344.614,650.602 346.746,657.91 348.878,665.145 351.01,672.307 353.141,679.399 355.273,686.42 357.405,693.371 359.537,700.252 361.669,707.065 363.8,713.811 365.932,720.489 368.064,727.101 370.196,733.646 372.327,740.127 374.459,746.543 376.591,752.895 378.723,759.184 380.855,765.411 382.986,771.575 385.118,777.678 387.25,783.72 389.382,789.702 391.514,795.624 393.645,801.487 395.777,807.292 397.909,813.039 400.041,818.729 402.172,824.362 404.304,829.939 406.436,835.46 408.568,840.927 410.7,846.339 412.831,851.697 414.963,857.001 417.095,862.253 419.227,867.453 421.359,872.601 423.49,877.697 425.622,882.743 427.754,887.738 429.886,892.684 432.017,897.581 434.149,902.428 436.281,907.228 438.413,911.98 440.545,916.684 442.676,921.342 444.808,925.953 446.94,930.518 449.072,935.038 451.204,939.513 453.335,943.943 455.467,948.329 457.599,952.672 459.731,956.971 461.862,961.227 463.994,965.441 466.126,969.613 468.258,973.743 470.39,977.833 472.521,981.881 474.653,985.889 476.785,989.857 478.917,993.786 481.049,997.676 483.18,1001.53 485.312,1005.34 487.444,1009.11 489.576,1012.85 491.707,1016.55 493.839,1020.21 495.971,1023.84 498.103,1027.43 500.235,1030.98 502.366,1034.5 504.498,1037.99 506.63,1041.43 508.762,1044.85 510.894,1048.23 513.025,1051.58 515.157,1054.89 517.289,1058.17 519.421,1061.42 521.552,1064.64 523.684,1067.82 525.816,1070.97 527.948,1074.09 530.08,1077.18 532.211,1080.24 534.343,1083.27 536.475,1086.27 538.607,1089.24 540.739,1092.18 542.87,1095.09 545.002,1097.97 547.134,1100.82 549.266,1103.64 551.397,1106.44 553.529,1109.21 555.661,1111.95 557.793,1114.66 559.925,1117.34 562.056,1120 564.188,1122.64 566.32,1125.24 568.452,1127.82 570.583,1130.38 572.715,1132.91 574.847,1135.41 576.979,1137.89 579.111,1140.34 581.242,1142.77 583.374,1145.18 585.506,1147.56 587.638,1149.92 589.77,1152.25 591.901,1154.56 594.033,1156.85 596.165,1159.12 598.297,1161.36 600.428,1163.58 602.56,1165.78 604.692,1167.95 606.824,1170.11 608.956,1172.24 611.087,1174.35 613.219,1176.45 615.351,1178.52 617.483,1180.56 619.615,1182.59 621.746,1184.6 623.878,1186.59 626.01,1188.56 628.142,1190.51 630.273,1192.44 632.405,1194.35 634.537,1196.24 636.669,1198.12 638.801,1199.97 640.932,1201.81 643.064,1203.63 645.196,1205.43 647.328,1207.21 649.46,1208.97 651.591,1210.72 653.723,1212.45 655.855,1214.16 657.987,1215.85 660.118,1217.53 662.25,1219.19 664.382,1220.84 666.514,1222.47 668.646,1224.08 670.777,1225.67 672.909,1227.25 675.041,1228.82 677.173,1230.37 679.305,1231.9 681.436,1233.42 683.568,1234.92 685.7,1236.41 687.832,1237.88 689.963,1239.34 692.095,1240.78 694.227,1242.21 696.359,1243.63 698.491,1245.03 700.622,1246.41 702.754,1247.79 704.886,1249.15 707.018,1250.49 709.15,1251.83 711.281,1253.14 713.413,1254.45 715.545,1255.74 717.677,1257.02 719.808,1258.29 721.94,1259.55 724.072,1260.79 726.204,1262.02 728.336,1263.24 730.467,1264.44 732.599,1265.64 734.731,1266.82 736.863,1267.99 738.995,1269.15 741.126,1270.29 743.258,1271.43 745.39,1272.56 747.522,1273.67 749.653,1274.77 751.785,1275.86 753.917,1276.94 756.049,1278.01 758.181,1279.07 760.312,1280.12 762.444,1281.16 764.576,1282.18 766.708,1283.2 768.84,1284.21 770.971,1285.21 773.103,1286.19 775.235,1287.17 777.367,1288.14 779.498,1289.1 781.63,1290.04 783.762,1290.98 785.894,1291.91 788.026,1292.83 790.157,1293.74 792.289,1294.65 794.421,1295.54 796.553,1296.42 798.685,1297.3 800.816,1298.16 802.948,1299.02 805.08,1299.87 807.212,1300.71 809.343,1301.55 811.475,1302.37 813.607,1303.19 815.739,1303.99 817.871,1304.79 820.002,1305.58 822.134,1306.37 824.266,1307.14 826.398,1307.91 828.529,1308.67 830.661,1309.43 832.793,1310.17 834.925,1310.91 837.057,1311.64 839.188,1312.36 841.32,1313.08 843.452,1313.79 845.584,1314.49 847.716,1315.19 849.847,1315.87 851.979,1316.56 854.111,1317.23 856.243,1317.9 858.374,1318.56 860.506,1319.21 862.638,1319.86 864.77,1320.5 866.902,1321.14 869.033,1321.77 871.165,1322.39 873.297,1323.01 875.429,1323.62 877.561,1324.22 879.692,1324.82 881.824,1325.41 883.956,1326 886.088,1326.58 888.219,1327.16 890.351,1327.73 892.483,1328.29 894.615,1328.85 896.747,1329.4 898.878,1329.95 901.01,1330.49 903.142,1331.03 905.274,1331.56 907.406,1332.08 909.537,1332.6 911.669,1333.12 913.801,1333.63 915.933,1334.13 918.064,1334.63 920.196,1335.13 922.328,1335.62 924.46,1336.1 926.592,1336.58 928.723,1337.06 930.855,1337.53 932.987,1337.99 935.119,1338.46 937.251,1338.91 939.382,1339.36 941.514,1339.81 943.646,1340.26 945.778,1340.69 947.909,1341.13 950.041,1341.56 952.173,1341.98 954.305,1342.41 956.437,1342.82 958.568,1343.24 960.7,1343.64 962.832,1344.05 964.964,1344.45 967.096,1344.85 969.227,1345.24 971.359,1345.63 973.491,1346.01 975.623,1346.39 977.754,1346.77 979.886,1347.14 982.018,1347.51 984.15,1347.88 986.282,1348.24 988.413,1348.6 990.545,1348.96 992.677,1349.31 994.809,1349.66 996.941,1350 999.072,1350.34 1001.2,1350.68 1003.34,1351.02 1005.47,1351.35 1007.6,1351.68 1009.73,1352 1011.86,1352.32 1013.99,1352.64 1016.13,1352.96 1018.26,1353.27 1020.39,1353.58 1022.52,1353.88 1024.65,1354.19 1026.79,1354.49 1028.92,1354.78 1031.05,1355.08 1033.18,1355.37 1035.31,1355.66 1037.44,1355.94 1039.58,1356.22 1041.71,1356.5 1043.84,1356.78 1045.97,1357.06 1048.1,1357.33 1050.24,1357.6 1052.37,1357.86 1054.5,1358.13 1056.63,1358.39 1058.76,1358.65 1060.89,1358.9 1063.03,1359.15 1065.16,1359.41 1067.29,1359.65 1069.42,1359.9 1071.55,1360.14 1073.68,1360.38 1075.82,1360.62 1077.95,1360.86 1080.08,1361.09 1082.21,1361.32 1084.34,1361.55 1086.48,1361.78 1088.61,1362 1090.74,1362.23 1092.87,1362.45 1095,1362.66 1097.13,1362.88 1099.27,1363.09 1101.4,1363.3 1103.53,1363.51 1105.66,1363.72 1107.79,1363.93 1109.93,1364.13 1112.06,1364.33 1114.19,1364.53 1116.32,1364.72 1118.45,1364.92 1120.58,1365.11 1122.72,1365.3 1124.85,1365.49 1126.98,1365.68 1129.11,1365.87 1131.24,1366.05 1133.37,1366.23 1135.51,1366.41 1137.64,1366.59 1139.77,1366.76 1141.9,1366.94 1144.03,1367.11 1146.17,1367.28 1148.3,1367.45 1150.43,1367.62 1152.56,1367.79 1154.69,1367.95 1156.82,1368.11 1158.96,1368.27 1161.09,1368.43 1163.22,1368.59 1165.35,1368.75 1167.48,1368.9 1169.62,1369.05 1171.75,1369.21 1173.88,1369.36 1176.01,1369.5 1178.14,1369.65 1180.27,1369.8 1182.41,1369.94 1184.54,1370.08 1186.67,1370.23 1188.8,1370.37 1190.93,1370.5 1193.06,1370.64 1195.2,1370.78 1197.33,1370.91 1199.46,1371.05 1201.59,1371.18 1203.72,1371.31 1205.86,1371.44 1207.99,1371.57 1210.12,1371.69 1212.25,1371.82 1214.38,1371.94 1216.51,1372.07 1218.65,1372.19 1220.78,1372.31 1222.91,1372.43 1225.04,1372.55 1227.17,1372.66 1229.31,1372.78 1231.44,1372.89 1233.57,1373.01 1235.7,1373.12 1237.83,1373.23 1239.96,1373.34 1242.1,1373.45 1244.23,1373.56 1246.36,1373.67 1248.49,1373.77 1250.62,1373.88 1252.75,1373.98 1254.89,1374.09 1257.02,1374.19 1259.15,1374.29 1261.28,1374.39 1263.41,1374.49 1265.55,1374.59 1267.68,1374.68 1269.81,1374.78 1271.94,1374.87 1274.07,1374.97 1276.2,1375.06 1278.34,1375.15 1280.47,1375.24 1282.6,1375.34 1284.73,1375.42 1286.86,1375.51 1289,1375.6 1291.13,1375.69 1293.26,1375.77 1295.39,1375.86 1297.52,1375.94 1299.65,1376.03 1301.79,1376.11 1303.92,1376.19 1306.05,1376.27 1308.18,1376.35 1310.31,1376.43 1312.44,1376.51 1314.58,1376.59 1316.71,1376.66 1318.84,1376.74 1320.97,1376.81 1323.1,1376.89 1325.24,1376.96 1327.37,1377.03 1329.5,1377.11 1331.63,1377.18 1333.76,1377.25 1335.89,1377.32 1338.03,1377.39 1340.16,1377.46 1342.29,1377.53 1344.42,1377.59 1346.55,1377.66 1348.69,1377.73 1350.82,1377.79 1352.95,1377.86 1355.08,1377.92 1357.21,1377.98 1359.34,1378.05 1361.48,1378.11 1363.61,1378.17 1365.74,1378.23 1367.87,1378.29 1370,1378.35 1372.13,1378.41 1374.27,1378.47 1376.4,1378.52 1378.53,1378.58 1380.66,1378.64 1382.79,1378.69 1384.93,1378.75 1387.06,1378.81 1389.19,1378.86 1391.32,1378.91 1393.45,1378.97 1395.58,1379.02 1397.72,1379.07 1399.85,1379.12 1401.98,1379.18 1404.11,1379.23 1406.24,1379.28 1408.38,1379.33 1410.51,1379.38 1412.64,1379.43 1414.77,1379.47 1416.9,1379.52 1419.03,1379.57 1421.17,1379.62 1423.3,1379.66 1425.43,1379.71 1427.56,1379.76 1429.69,1379.8 1431.82,1379.85 1433.96,1379.89 1436.09,1379.93 1438.22,1379.98 1440.35,1380.02 1442.48,1380.06 1444.62,1380.11 1446.75,1380.15 1448.88,1380.19 1451.01,1380.23 1453.14,1380.27 1455.27,1380.31 1457.41,1380.35 1459.54,1380.39 1461.67,1380.43 1463.8,1380.47 1465.93,1380.51 1468.07,1380.55 1470.2,1380.58 1472.33,1380.62 1474.46,1380.66 1476.59,1380.69 1478.72,1380.73 1480.86,1380.77 1482.99,1380.8 1485.12,1380.84 1487.25,1380.87 1489.38,1380.91 1491.51,1380.94 1493.65,1380.97 1495.78,1381.01 1497.91,1381.04 1500.04,1381.07 1502.17,1381.1 1504.31,1381.14 1506.44,1381.17 1508.57,1381.2 1510.7,1381.23 1512.83,1381.26 1514.96,1381.29 1517.1,1381.32 1519.23,1381.35 1521.36,1381.38 1523.49,1381.41 1525.62,1381.44 1527.76,1381.47 1529.89,1381.5 1532.02,1381.52 1534.15,1381.55 1536.28,1381.58 1538.41,1381.61 1540.55,1381.63 1542.68,1381.66 1544.81,1381.69 1546.94,1381.71 1549.07,1381.74 1551.2,1381.76 1553.34,1381.79 1555.47,1381.81 1557.6,1381.84 1559.73,1381.86 1561.86,1381.89 1564,1381.91 1566.13,1381.93 1568.26,1381.96 1570.39,1381.98 1572.52,1382 1574.65,1382.03 1576.79,1382.05 1578.92,1382.07 1581.05,1382.09 1583.18,1382.11 1585.31,1382.14 1587.45,1382.16 1589.58,1382.18 1591.71,1382.2 1593.84,1382.22 1595.97,1382.24 1598.1,1382.26 1600.24,1382.28 1602.37,1382.3 1604.5,1382.32 1606.63,1382.34 1608.76,1382.36 1610.89,1382.38 1613.03,1382.4 1615.16,1382.42 1617.29,1382.43 1619.42,1382.45 1621.55,1382.47 1623.69,1382.49 1625.82,1382.51 1627.95,1382.52 1630.08,1382.54 1632.21,1382.56 1634.34,1382.58 1636.48,1382.59 1638.61,1382.61 1640.74,1382.63 1642.87,1382.64 1645,1382.66 1647.14,1382.68 1649.27,1382.69 1651.4,1382.71 1653.53,1382.72 1655.66,1382.74 1657.79,1382.76 1659.93,1382.77 1662.06,1382.79 1664.19,1382.8 1666.32,1382.82 1668.45,1382.83 1670.58,1382.85 1672.72,1382.86 1674.85,1382.87 1676.98,1382.89 1679.11,1382.9 1681.24,1382.92 1683.38,1382.93 1685.51,1382.94 1687.64,1382.96 1689.77,1382.97 1691.9,1382.98 1694.03,1383 1696.17,1383.01 1698.3,1383.02 1700.43,1383.04 1702.56,1383.05 1704.69,1383.06 1706.82,1383.07 1708.96,1383.09 1711.09,1383.1 1713.22,1383.11 1715.35,1383.12 1717.48,1383.14 1719.62,1383.15 1721.75,1383.16 1723.88,1383.17 1726.01,1383.18 1728.14,1383.19 1730.27,1383.2 1732.41,1383.21 1734.54,1383.23 1736.67,1383.24 1738.8,1383.25 1740.93,1383.26 1743.07,1383.27 1745.2,1383.28 1747.33,1383.29 1749.46,1383.3 1751.59,1383.31 1753.72,1383.32 1755.86,1383.33 1757.99,1383.34 1760.12,1383.35 1762.25,1383.36 1764.38,1383.37 1766.51,1383.38 1768.65,1383.39 1770.78,1383.4 1772.91,1383.41 1775.04,1383.41 1777.17,1383.42 1779.31,1383.43 1781.44,1383.44 1783.57,1383.45 1785.7,1383.46 1787.83,1383.47 1789.96,1383.47 1792.1,1383.48 1794.23,1383.49 1796.36,1383.5 1798.49,1383.51 1800.62,1383.52 1802.76,1383.52 1804.89,1383.53 1807.02,1383.54 1809.15,1383.55 1811.28,1383.55 1813.41,1383.56 1815.55,1383.57 1817.68,1383.58 1819.81,1383.58 1821.94,1383.59 1824.07,1383.6 1826.2,1383.6 1828.34,1383.61 1830.47,1383.62 1832.6,1383.62 1834.73,1383.63 1836.86,1383.64 1839,1383.64 1841.13,1383.65 1843.26,1383.66 1845.39,1383.66 1847.52,1383.67 1849.65,1383.68 1851.79,1383.68 1853.92,1383.69 1856.05,1383.69 1858.18,1383.7 1860.31,1383.71 1862.45,1383.71 1864.58,1383.72 1866.71,1383.72 1868.84,1383.73 1870.97,1383.73 1873.1,1383.74 1875.24,1383.74 1877.37,1383.75 1879.5,1383.76 1881.63,1383.76 1883.76,1383.77 1885.89,1383.77 1888.03,1383.78 1890.16,1383.78 1892.29,1383.79 1894.42,1383.79 1896.55,1383.8 1898.69,1383.8 1900.82,1383.81 1902.95,1383.81 1905.08,1383.82 1907.21,1383.82 1909.34,1383.82 1911.48,1383.83 1913.61,1383.83 1915.74,1383.84 1917.87,1383.84 1920,1383.85 1922.14,1383.85 1924.27,1383.86 1926.4,1383.86 1928.53,1383.86 1930.66,1383.87 1932.79,1383.87 1934.93,1383.88 1937.06,1383.88 1939.19,1383.89 1941.32,1383.89 1943.45,1383.89 1945.58,1383.9 1947.72,1383.9 1949.85,1383.9 1951.98,1383.91 1954.11,1383.91 1956.24,1383.92 1958.38,1383.92 1960.51,1383.92 1962.64,1383.93 1964.77,1383.93 1966.9,1383.94 1969.03,1383.94 1971.17,1383.94 1973.3,1383.95 1975.43,1383.95 1977.56,1383.95 1979.69,1383.96 1981.83,1383.96 1983.96,1383.96 1986.09,1383.97 1988.22,1383.97 1990.35,1383.97 1992.48,1383.98 1994.62,1383.98 1996.75,1383.98 1998.88,1383.99 2001.01,1383.99 2003.14,1383.99 2005.27,1384 2007.41,1384 2009.54,1384 2011.67,1384.01 2013.8,1384.01 2015.93,1384.01 2018.07,1384.01 2020.2,1384.02 2022.33,1384.02 2024.46,1384.02 2026.59,1384.03 2028.72,1384.03 2030.86,1384.03 2032.99,1384.03 2035.12,1384.04 2037.25,1384.04 2039.38,1384.04 2041.52,1384.05 2043.65,1384.05 2045.78,1384.05 2047.91,1384.05 2050.04,1384.06 2052.17,1384.06 2054.31,1384.06 2056.44,1384.06 2058.57,1384.07 2060.7,1384.07 2062.83,1384.07 2064.96,1384.07 2067.1,1384.08 2069.23,1384.08 2071.36,1384.08 2073.49,1384.08 2075.62,1384.08 2077.76,1384.09 2079.89,1384.09 2082.02,1384.09 2084.15,1384.09 2086.28,1384.1 2088.41,1384.1 2090.55,1384.1 2092.68,1384.1 2094.81,1384.1 2096.94,1384.11 2099.07,1384.11 2101.21,1384.11 2103.34,1384.11 2105.47,1384.11 2107.6,1384.12 2109.73,1384.12 2111.86,1384.12 2114,1384.12 2116.13,1384.12 2118.26,1384.12 2120.39,1384.13 2122.52,1384.13 2124.65,1384.13 2126.79,1384.13 2128.92,1384.13 2131.05,1384.13 2133.18,1384.14 2135.31,1384.14 2137.45,1384.14 2139.58,1384.14 2141.71,1384.14 2143.84,1384.14 2145.97,1384.15 2148.1,1384.15 2150.24,1384.15 2152.37,1384.15 2154.5,1384.15 2156.63,1384.15 2158.76,1384.15 2160.9,1384.16 2163.03,1384.16 2165.16,1384.16 2167.29,1384.16 2169.42,1384.16 2171.55,1384.16 2173.69,1384.16 2175.82,1384.17 2177.95,1384.17 2180.08,1384.17 2182.21,1384.17 2184.34,1384.17 2186.48,1384.17 2188.61,1384.17 2190.74,1384.17 2192.87,1384.18 2195,1384.18 2197.14,1384.18 2199.27,1384.18 2201.4,1384.18 2203.53,1384.18 2205.66,1384.18 2207.79,1384.18 2209.93,1384.18 2212.06,1384.19 2214.19,1384.19 2216.32,1384.19 2218.45,1384.19 2220.59,1384.19 2222.72,1384.19 2224.85,1384.19 2226.98,1384.19 2229.11,1384.19 2231.24,1384.19 2233.38,1384.2 2235.51,1384.2 2237.64,1384.2 2239.77,1384.2 2241.9,1384.2 2244.03,1384.2 2246.17,1384.2 2248.3,1384.2 2250.43,1384.2 2252.56,1384.2 2254.69,1384.2 2256.83,1384.2 2258.96,1384.21 2261.09,1384.21 2263.22,1384.21 2265.35,1384.21 2267.48,1384.21 2269.62,1384.21 2271.75,1384.21 2273.88,1384.21 2276.01,1384.21 2278.14,1384.21 2280.28,1384.21 2282.41,1384.21 2284.54,1384.22 2286.67,1384.22 2288.8,1384.22 2290.93,1384.22 2293.07,1384.22 2295.2,1384.22 2297.33,1384.22 2299.46,1384.22 2301.59,1384.22 2303.72,1384.22 2305.86,1384.22 2307.99,1384.22 2310.12,1384.22 2312.25,1384.23 2314.38,1384.23 2316.52,1384.23 2318.65,1384.23 2320.78,1384.23 2322.91,1384.23 2325.04,1384.23 2327.17,1384.23 2329.31,1384.23 2331.44,1384.23 2333.57,1384.23 2335.7,1384.23 2337.83,1384.23 2339.97,1384.23 2342.1,1384.24 2344.23,1384.24 2346.36,1384.24 2348.49,1384.24 2350.62,1384.24 2352.76,1384.24 "/>
<polyline clip-path="url(#clip312)" style="stroke:#e26f46; stroke-linecap:round; stroke-linejoin:round; stroke-width:4; stroke-opacity:1; fill:none" points="223.103,1082.33 225.234,1082.54 227.366,1082.77 229.498,1083.02 231.63,1083.28 233.761,1083.55 235.893,1083.83 238.025,1084.13 240.157,1084.45 242.289,1084.77 244.42,1085.11 246.552,1085.46 248.684,1085.82 250.816,1086.2 252.948,1086.59 255.079,1086.99 257.211,1087.4 259.343,1087.82 261.475,1088.25 263.606,1088.69 265.738,1089.15 267.87,1089.61 270.002,1090.08 272.134,1090.57 274.265,1091.06 276.397,1091.56 278.529,1092.08 280.661,1092.6 282.792,1093.13 284.924,1093.67 287.056,1094.22 289.188,1094.78 291.32,1095.34 293.451,1095.92 295.583,1096.5 297.715,1097.09 299.847,1097.69 301.979,1098.3 304.11,1098.91 306.242,1099.53 308.374,1100.16 310.506,1100.79 312.637,1101.43 314.769,1102.08 316.901,1102.73 319.033,1103.4 321.165,1104.06 323.296,1104.74 325.428,1105.42 327.56,1106.1 329.692,1106.79 331.824,1107.49 333.955,1108.19 336.087,1108.9 338.219,1109.61 340.351,1110.33 342.482,1111.05 344.614,1111.78 346.746,1112.51 348.878,1113.24 351.01,1113.99 353.141,1114.73 355.273,1115.48 357.405,1116.23 359.537,1116.99 361.669,1117.75 363.8,1118.52 365.932,1119.29 368.064,1120.06 370.196,1120.84 372.327,1121.62 374.459,1122.4 376.591,1123.18 378.723,1123.97 380.855,1124.76 382.986,1125.56 385.118,1126.36 387.25,1127.16 389.382,1127.96 391.514,1128.77 393.645,1129.57 395.777,1130.38 397.909,1131.2 400.041,1132.01 402.172,1132.83 404.304,1133.65 406.436,1134.47 408.568,1135.29 410.7,1136.12 412.831,1136.94 414.963,1137.77 417.095,1138.6 419.227,1139.43 421.359,1140.26 423.49,1141.1 425.622,1141.93 427.754,1142.77 429.886,1143.6 432.017,1144.44 434.149,1145.28 436.281,1146.12 438.413,1146.96 440.545,1147.8 442.676,1148.65 444.808,1149.49 446.94,1150.33 449.072,1151.18 451.204,1152.02 453.335,1152.87 455.467,1153.71 457.599,1154.56 459.731,1155.41 461.862,1156.25 463.994,1157.1 466.126,1157.95 468.258,1158.79 470.39,1159.64 472.521,1160.49 474.653,1161.33 476.785,1162.18 478.917,1163.03 481.049,1163.87 483.18,1164.72 485.312,1165.56 487.444,1166.41 489.576,1167.25 491.707,1168.1 493.839,1168.94 495.971,1169.78 498.103,1170.62 500.235,1171.47 502.366,1172.31 504.498,1173.15 506.63,1173.99 508.762,1174.83 510.894,1175.66 513.025,1176.5 515.157,1177.34 517.289,1178.17 519.421,1179.01 521.552,1179.84 523.684,1180.67 525.816,1181.5 527.948,1182.33 530.08,1183.16 532.211,1183.99 534.343,1184.82 536.475,1185.64 538.607,1186.47 540.739,1187.29 542.87,1188.11 545.002,1188.93 547.134,1189.75 549.266,1190.57 551.397,1191.38 553.529,1192.2 555.661,1193.01 557.793,1193.82 559.925,1194.63 562.056,1195.44 564.188,1196.24 566.32,1197.05 568.452,1197.85 570.583,1198.65 572.715,1199.45 574.847,1200.25 576.979,1201.05 579.111,1201.84 581.242,1202.64 583.374,1203.43 585.506,1204.22 587.638,1205.01 589.77,1205.79 591.901,1206.58 594.033,1207.36 596.165,1208.14 598.297,1208.92 600.428,1209.7 602.56,1210.47 604.692,1211.24 606.824,1212.01 608.956,1212.78 611.087,1213.55 613.219,1214.32 615.351,1215.08 617.483,1215.84 619.615,1216.6 621.746,1217.35 623.878,1218.11 626.01,1218.86 628.142,1219.61 630.273,1220.36 632.405,1221.11 634.537,1221.85 636.669,1222.59 638.801,1223.33 640.932,1224.07 643.064,1224.81 645.196,1225.54 647.328,1226.27 649.46,1227 651.591,1227.73 653.723,1228.45 655.855,1229.17 657.987,1229.89 660.118,1230.61 662.25,1231.33 664.382,1232.04 666.514,1232.75 668.646,1233.46 670.777,1234.17 672.909,1234.87 675.041,1235.57 677.173,1236.27 679.305,1236.97 681.436,1237.67 683.568,1238.36 685.7,1239.05 687.832,1239.74 689.963,1240.43 692.095,1241.11 694.227,1241.79 696.359,1242.47 698.491,1243.15 700.622,1243.82 702.754,1244.49 704.886,1245.16 707.018,1245.83 709.15,1246.49 711.281,1247.16 713.413,1247.82 715.545,1248.48 717.677,1249.13 719.808,1249.78 721.94,1250.44 724.072,1251.08 726.204,1251.73 728.336,1252.37 730.467,1253.02 732.599,1253.66 734.731,1254.29 736.863,1254.93 738.995,1255.56 741.126,1256.19 743.258,1256.81 745.39,1257.44 747.522,1258.06 749.653,1258.68 751.785,1259.3 753.917,1259.92 756.049,1260.53 758.181,1261.14 760.312,1261.75 762.444,1262.35 764.576,1262.96 766.708,1263.56 768.84,1264.16 770.971,1264.75 773.103,1265.35 775.235,1265.94 777.367,1266.53 779.498,1267.12 781.63,1267.7 783.762,1268.28 785.894,1268.86 788.026,1269.44 790.157,1270.02 792.289,1270.59 794.421,1271.16 796.553,1271.73 798.685,1272.3 800.816,1272.86 802.948,1273.42 805.08,1273.98 807.212,1274.54 809.343,1275.09 811.475,1275.65 813.607,1276.2 815.739,1276.74 817.871,1277.29 820.002,1277.83 822.134,1278.37 824.266,1278.91 826.398,1279.45 828.529,1279.98 830.661,1280.52 832.793,1281.05 834.925,1281.57 837.057,1282.1 839.188,1282.62 841.32,1283.14 843.452,1283.66 845.584,1284.18 847.716,1284.69 849.847,1285.2 851.979,1285.71 854.111,1286.22 856.243,1286.72 858.374,1287.23 860.506,1287.73 862.638,1288.23 864.77,1288.72 866.902,1289.22 869.033,1289.71 871.165,1290.2 873.297,1290.68 875.429,1291.17 877.561,1291.65 879.692,1292.13 881.824,1292.61 883.956,1293.09 886.088,1293.56 888.219,1294.04 890.351,1294.51 892.483,1294.98 894.615,1295.44 896.747,1295.91 898.878,1296.37 901.01,1296.83 903.142,1297.29 905.274,1297.74 907.406,1298.19 909.537,1298.65 911.669,1299.1 913.801,1299.54 915.933,1299.99 918.064,1300.43 920.196,1300.87 922.328,1301.31 924.46,1301.75 926.592,1302.18 928.723,1302.62 930.855,1303.05 932.987,1303.48 935.119,1303.9 937.251,1304.33 939.382,1304.75 941.514,1305.17 943.646,1305.59 945.778,1306.01 947.909,1306.43 950.041,1306.84 952.173,1307.25 954.305,1307.66 956.437,1308.07 958.568,1308.47 960.7,1308.88 962.832,1309.28 964.964,1309.68 967.096,1310.08 969.227,1310.47 971.359,1310.87 973.491,1311.26 975.623,1311.65 977.754,1312.04 979.886,1312.43 982.018,1312.81 984.15,1313.19 986.282,1313.57 988.413,1313.95 990.545,1314.33 992.677,1314.71 994.809,1315.08 996.941,1315.45 999.072,1315.82 1001.2,1316.19 1003.34,1316.56 1005.47,1316.92 1007.6,1317.29 1009.73,1317.65 1011.86,1318.01 1013.99,1318.36 1016.13,1318.72 1018.26,1319.07 1020.39,1319.43 1022.52,1319.78 1024.65,1320.13 1026.79,1320.47 1028.92,1320.82 1031.05,1321.16 1033.18,1321.51 1035.31,1321.85 1037.44,1322.19 1039.58,1322.52 1041.71,1322.86 1043.84,1323.19 1045.97,1323.52 1048.1,1323.85 1050.24,1324.18 1052.37,1324.51 1054.5,1324.84 1056.63,1325.16 1058.76,1325.48 1060.89,1325.8 1063.03,1326.12 1065.16,1326.44 1067.29,1326.76 1069.42,1327.07 1071.55,1327.38 1073.68,1327.69 1075.82,1328 1077.95,1328.31 1080.08,1328.62 1082.21,1328.92 1084.34,1329.23 1086.48,1329.53 1088.61,1329.83 1090.74,1330.13 1092.87,1330.42 1095,1330.72 1097.13,1331.01 1099.27,1331.31 1101.4,1331.6 1103.53,1331.89 1105.66,1332.18 1107.79,1332.46 1109.93,1332.75 1112.06,1333.03 1114.19,1333.31 1116.32,1333.6 1118.45,1333.88 1120.58,1334.15 1122.72,1334.43 1124.85,1334.71 1126.98,1334.98 1129.11,1335.25 1131.24,1335.52 1133.37,1335.79 1135.51,1336.06 1137.64,1336.33 1139.77,1336.59 1141.9,1336.86 1144.03,1337.12 1146.17,1337.38 1148.3,1337.64 1150.43,1337.9 1152.56,1338.16 1154.69,1338.41 1156.82,1338.67 1158.96,1338.92 1161.09,1339.17 1163.22,1339.43 1165.35,1339.68 1167.48,1339.92 1169.62,1340.17 1171.75,1340.42 1173.88,1340.66 1176.01,1340.9 1178.14,1341.14 1180.27,1341.39 1182.41,1341.62 1184.54,1341.86 1186.67,1342.1 1188.8,1342.33 1190.93,1342.57 1193.06,1342.8 1195.2,1343.03 1197.33,1343.26 1199.46,1343.49 1201.59,1343.72 1203.72,1343.95 1205.86,1344.17 1207.99,1344.4 1210.12,1344.62 1212.25,1344.84 1214.38,1345.07 1216.51,1345.28 1218.65,1345.5 1220.78,1345.72 1222.91,1345.94 1225.04,1346.15 1227.17,1346.37 1229.31,1346.58 1231.44,1346.79 1233.57,1347 1235.7,1347.21 1237.83,1347.42 1239.96,1347.63 1242.1,1347.83 1244.23,1348.04 1246.36,1348.24 1248.49,1348.44 1250.62,1348.65 1252.75,1348.85 1254.89,1349.05 1257.02,1349.24 1259.15,1349.44 1261.28,1349.64 1263.41,1349.83 1265.55,1350.03 1267.68,1350.22 1269.81,1350.41 1271.94,1350.61 1274.07,1350.8 1276.2,1350.98 1278.34,1351.17 1280.47,1351.36 1282.6,1351.55 1284.73,1351.73 1286.86,1351.92 1289,1352.1 1291.13,1352.28 1293.26,1352.46 1295.39,1352.64 1297.52,1352.82 1299.65,1353 1301.79,1353.18 1303.92,1353.35 1306.05,1353.53 1308.18,1353.7 1310.31,1353.88 1312.44,1354.05 1314.58,1354.22 1316.71,1354.39 1318.84,1354.56 1320.97,1354.73 1323.1,1354.9 1325.24,1355.06 1327.37,1355.23 1329.5,1355.4 1331.63,1355.56 1333.76,1355.72 1335.89,1355.89 1338.03,1356.05 1340.16,1356.21 1342.29,1356.37 1344.42,1356.53 1346.55,1356.68 1348.69,1356.84 1350.82,1357 1352.95,1357.15 1355.08,1357.31 1357.21,1357.46 1359.34,1357.62 1361.48,1357.77 1363.61,1357.92 1365.74,1358.07 1367.87,1358.22 1370,1358.37 1372.13,1358.52 1374.27,1358.66 1376.4,1358.81 1378.53,1358.95 1380.66,1359.1 1382.79,1359.24 1384.93,1359.39 1387.06,1359.53 1389.19,1359.67 1391.32,1359.81 1393.45,1359.95 1395.58,1360.09 1397.72,1360.23 1399.85,1360.37 1401.98,1360.5 1404.11,1360.64 1406.24,1360.78 1408.38,1360.91 1410.51,1361.04 1412.64,1361.18 1414.77,1361.31 1416.9,1361.44 1419.03,1361.57 1421.17,1361.7 1423.3,1361.83 1425.43,1361.96 1427.56,1362.09 1429.69,1362.22 1431.82,1362.34 1433.96,1362.47 1436.09,1362.6 1438.22,1362.72 1440.35,1362.84 1442.48,1362.97 1444.62,1363.09 1446.75,1363.21 1448.88,1363.33 1451.01,1363.45 1453.14,1363.57 1455.27,1363.69 1457.41,1363.81 1459.54,1363.93 1461.67,1364.05 1463.8,1364.16 1465.93,1364.28 1468.07,1364.39 1470.2,1364.51 1472.33,1364.62 1474.46,1364.74 1476.59,1364.85 1478.72,1364.96 1480.86,1365.07 1482.99,1365.18 1485.12,1365.29 1487.25,1365.4 1489.38,1365.51 1491.51,1365.62 1493.65,1365.73 1495.78,1365.83 1497.91,1365.94 1500.04,1366.05 1502.17,1366.15 1504.31,1366.26 1506.44,1366.36 1508.57,1366.46 1510.7,1366.57 1512.83,1366.67 1514.96,1366.77 1517.1,1366.87 1519.23,1366.97 1521.36,1367.07 1523.49,1367.17 1525.62,1367.27 1527.76,1367.37 1529.89,1367.47 1532.02,1367.57 1534.15,1367.66 1536.28,1367.76 1538.41,1367.85 1540.55,1367.95 1542.68,1368.04 1544.81,1368.14 1546.94,1368.23 1549.07,1368.32 1551.2,1368.42 1553.34,1368.51 1555.47,1368.6 1557.6,1368.69 1559.73,1368.78 1561.86,1368.87 1564,1368.96 1566.13,1369.05 1568.26,1369.14 1570.39,1369.23 1572.52,1369.31 1574.65,1369.4 1576.79,1369.49 1578.92,1369.57 1581.05,1369.66 1583.18,1369.74 1585.31,1369.83 1587.45,1369.91 1589.58,1370 1591.71,1370.08 1593.84,1370.16 1595.97,1370.24 1598.1,1370.33 1600.24,1370.41 1602.37,1370.49 1604.5,1370.57 1606.63,1370.65 1608.76,1370.73 1610.89,1370.81 1613.03,1370.88 1615.16,1370.96 1617.29,1371.04 1619.42,1371.12 1621.55,1371.19 1623.69,1371.27 1625.82,1371.35 1627.95,1371.42 1630.08,1371.5 1632.21,1371.57 1634.34,1371.64 1636.48,1371.72 1638.61,1371.79 1640.74,1371.86 1642.87,1371.94 1645,1372.01 1647.14,1372.08 1649.27,1372.15 1651.4,1372.22 1653.53,1372.29 1655.66,1372.36 1657.79,1372.43 1659.93,1372.5 1662.06,1372.57 1664.19,1372.64 1666.32,1372.71 1668.45,1372.77 1670.58,1372.84 1672.72,1372.91 1674.85,1372.97 1676.98,1373.04 1679.11,1373.11 1681.24,1373.17 1683.38,1373.24 1685.51,1373.3 1687.64,1373.37 1689.77,1373.43 1691.9,1373.49 1694.03,1373.56 1696.17,1373.62 1698.3,1373.68 1700.43,1373.74 1702.56,1373.8 1704.69,1373.87 1706.82,1373.93 1708.96,1373.99 1711.09,1374.05 1713.22,1374.11 1715.35,1374.17 1717.48,1374.23 1719.62,1374.29 1721.75,1374.34 1723.88,1374.4 1726.01,1374.46 1728.14,1374.52 1730.27,1374.58 1732.41,1374.63 1734.54,1374.69 1736.67,1374.74 1738.8,1374.8 1740.93,1374.86 1743.07,1374.91 1745.2,1374.97 1747.33,1375.02 1749.46,1375.08 1751.59,1375.13 1753.72,1375.18 1755.86,1375.24 1757.99,1375.29 1760.12,1375.34 1762.25,1375.4 1764.38,1375.45 1766.51,1375.5 1768.65,1375.55 1770.78,1375.6 1772.91,1375.65 1775.04,1375.7 1777.17,1375.75 1779.31,1375.8 1781.44,1375.85 1783.57,1375.9 1785.7,1375.95 1787.83,1376 1789.96,1376.05 1792.1,1376.1 1794.23,1376.15 1796.36,1376.19 1798.49,1376.24 1800.62,1376.29 1802.76,1376.34 1804.89,1376.38 1807.02,1376.43 1809.15,1376.48 1811.28,1376.52 1813.41,1376.57 1815.55,1376.61 1817.68,1376.66 1819.81,1376.7 1821.94,1376.75 1824.07,1376.79 1826.2,1376.84 1828.34,1376.88 1830.47,1376.92 1832.6,1376.97 1834.73,1377.01 1836.86,1377.05 1839,1377.09 1841.13,1377.14 1843.26,1377.18 1845.39,1377.22 1847.52,1377.26 1849.65,1377.3 1851.79,1377.35 1853.92,1377.39 1856.05,1377.43 1858.18,1377.47 1860.31,1377.51 1862.45,1377.55 1864.58,1377.59 1866.71,1377.63 1868.84,1377.67 1870.97,1377.7 1873.1,1377.74 1875.24,1377.78 1877.37,1377.82 1879.5,1377.86 1881.63,1377.9 1883.76,1377.93 1885.89,1377.97 1888.03,1378.01 1890.16,1378.05 1892.29,1378.08 1894.42,1378.12 1896.55,1378.16 1898.69,1378.19 1900.82,1378.23 1902.95,1378.26 1905.08,1378.3 1907.21,1378.33 1909.34,1378.37 1911.48,1378.4 1913.61,1378.44 1915.74,1378.47 1917.87,1378.51 1920,1378.54 1922.14,1378.58 1924.27,1378.61 1926.4,1378.64 1928.53,1378.68 1930.66,1378.71 1932.79,1378.74 1934.93,1378.78 1937.06,1378.81 1939.19,1378.84 1941.32,1378.87 1943.45,1378.9 1945.58,1378.94 1947.72,1378.97 1949.85,1379 1951.98,1379.03 1954.11,1379.06 1956.24,1379.09 1958.38,1379.12 1960.51,1379.15 1962.64,1379.18 1964.77,1379.21 1966.9,1379.24 1969.03,1379.27 1971.17,1379.3 1973.3,1379.33 1975.43,1379.36 1977.56,1379.39 1979.69,1379.42 1981.83,1379.45 1983.96,1379.48 1986.09,1379.51 1988.22,1379.54 1990.35,1379.56 1992.48,1379.59 1994.62,1379.62 1996.75,1379.65 1998.88,1379.67 2001.01,1379.7 2003.14,1379.73 2005.27,1379.76 2007.41,1379.78 2009.54,1379.81 2011.67,1379.84 2013.8,1379.86 2015.93,1379.89 2018.07,1379.91 2020.2,1379.94 2022.33,1379.97 2024.46,1379.99 2026.59,1380.02 2028.72,1380.04 2030.86,1380.07 2032.99,1380.09 2035.12,1380.12 2037.25,1380.14 2039.38,1380.17 2041.52,1380.19 2043.65,1380.22 2045.78,1380.24 2047.91,1380.26 2050.04,1380.29 2052.17,1380.31 2054.31,1380.34 2056.44,1380.36 2058.57,1380.38 2060.7,1380.41 2062.83,1380.43 2064.96,1380.45 2067.1,1380.47 2069.23,1380.5 2071.36,1380.52 2073.49,1380.54 2075.62,1380.56 2077.76,1380.59 2079.89,1380.61 2082.02,1380.63 2084.15,1380.65 2086.28,1380.67 2088.41,1380.69 2090.55,1380.72 2092.68,1380.74 2094.81,1380.76 2096.94,1380.78 2099.07,1380.8 2101.21,1380.82 2103.34,1380.84 2105.47,1380.86 2107.6,1380.88 2109.73,1380.9 2111.86,1380.92 2114,1380.94 2116.13,1380.96 2118.26,1380.98 2120.39,1381 2122.52,1381.02 2124.65,1381.04 2126.79,1381.06 2128.92,1381.08 2131.05,1381.1 2133.18,1381.12 2135.31,1381.14 2137.45,1381.16 2139.58,1381.17 2141.71,1381.19 2143.84,1381.21 2145.97,1381.23 2148.1,1381.25 2150.24,1381.27 2152.37,1381.28 2154.5,1381.3 2156.63,1381.32 2158.76,1381.34 2160.9,1381.35 2163.03,1381.37 2165.16,1381.39 2167.29,1381.41 2169.42,1381.42 2171.55,1381.44 2173.69,1381.46 2175.82,1381.47 2177.95,1381.49 2180.08,1381.51 2182.21,1381.52 2184.34,1381.54 2186.48,1381.56 2188.61,1381.57 2190.74,1381.59 2192.87,1381.61 2195,1381.62 2197.14,1381.64 2199.27,1381.65 2201.4,1381.67 2203.53,1381.68 2205.66,1381.7 2207.79,1381.71 2209.93,1381.73 2212.06,1381.75 2214.19,1381.76 2216.32,1381.78 2218.45,1381.79 2220.59,1381.81 2222.72,1381.82 2224.85,1381.83 2226.98,1381.85 2229.11,1381.86 2231.24,1381.88 2233.38,1381.89 2235.51,1381.91 2237.64,1381.92 2239.77,1381.94 2241.9,1381.95 2244.03,1381.96 2246.17,1381.98 2248.3,1381.99 2250.43,1382 2252.56,1382.02 2254.69,1382.03 2256.83,1382.05 2258.96,1382.06 2261.09,1382.07 2263.22,1382.09 2265.35,1382.1 2267.48,1382.11 2269.62,1382.12 2271.75,1382.14 2273.88,1382.15 2276.01,1382.16 2278.14,1382.18 2280.28,1382.19 2282.41,1382.2 2284.54,1382.21 2286.67,1382.23 2288.8,1382.24 2290.93,1382.25 2293.07,1382.26 2295.2,1382.27 2297.33,1382.29 2299.46,1382.3 2301.59,1382.31 2303.72,1382.32 2305.86,1382.33 2307.99,1382.35 2310.12,1382.36 2312.25,1382.37 2314.38,1382.38 2316.52,1382.39 2318.65,1382.4 2320.78,1382.41 2322.91,1382.43 2325.04,1382.44 2327.17,1382.45 2329.31,1382.46 2331.44,1382.47 2333.57,1382.48 2335.7,1382.49 2337.83,1382.5 2339.97,1382.51 2342.1,1382.52 2344.23,1382.53 2346.36,1382.54 2348.49,1382.55 2350.62,1382.56 2352.76,1382.58 "/>
<path clip-path="url(#clip310)" d="M1809.41 248.629 L2281.77 248.629 L2281.77 93.1086 L1809.41 93.1086  Z" fill="#ffffff" fill-rule="evenodd" fill-opacity="1"/>
<polyline clip-path="url(#clip310)" style="stroke:#000000; stroke-linecap:round; stroke-linejoin:round; stroke-width:4; stroke-opacity:1; fill:none" points="1809.41,248.629 2281.77,248.629 2281.77,93.1086 1809.41,93.1086 1809.41,248.629 "/>
<polyline clip-path="url(#clip310)" style="stroke:#009af9; stroke-linecap:round; stroke-linejoin:round; stroke-width:4; stroke-opacity:1; fill:none" points="1833.07,144.949 1975.05,144.949 "/>
<path clip-path="url(#clip310)" d="M1998.71 136.303 L2003.22 136.303 L2011.32 158.062 L2019.43 136.303 L2023.94 136.303 L2014.22 162.229 L2008.43 162.229 L1998.71 136.303 Z" fill="#000000" fill-rule="nonzero" fill-opacity="1" /><path clip-path="url(#clip310)" d="M2031.23 158.293 L2038.87 158.293 L2038.87 131.928 L2030.56 133.595 L2030.56 129.335 L2038.82 127.669 L2043.5 127.669 L2043.5 158.293 L2051.14 158.293 L2051.14 162.229 L2031.23 162.229 L2031.23 158.293 Z" fill="#000000" fill-rule="nonzero" fill-opacity="1" /><path clip-path="url(#clip310)" d="M2069.24 145.585 L2069.24 152.807 L2077.36 152.807 L2077.36 155.006 L2069.24 155.006 L2069.24 162.229 L2066.81 162.229 L2066.81 155.006 L2058.68 155.006 L2058.68 152.807 L2066.81 152.807 L2066.81 145.585 L2069.24 145.585 Z" fill="#000000" fill-rule="nonzero" fill-opacity="1" /><path clip-path="url(#clip310)" d="M2101.53 137.067 L2101.53 141.094 Q2099.73 140.169 2097.78 139.706 Q2095.84 139.243 2093.75 139.243 Q2090.58 139.243 2088.99 140.215 Q2087.41 141.187 2087.41 143.131 Q2087.41 144.613 2088.55 145.469 Q2089.68 146.303 2093.11 147.067 L2094.56 147.391 Q2099.1 148.363 2101 150.145 Q2102.92 151.905 2102.92 155.076 Q2102.92 158.687 2100.05 160.793 Q2097.2 162.9 2092.2 162.9 Q2090.12 162.9 2087.85 162.483 Q2085.61 162.09 2083.11 161.28 L2083.11 156.881 Q2085.47 158.108 2087.76 158.733 Q2090.05 159.335 2092.3 159.335 Q2095.3 159.335 2096.92 158.317 Q2098.55 157.275 2098.55 155.4 Q2098.55 153.664 2097.36 152.738 Q2096.21 151.812 2092.25 150.956 L2090.77 150.608 Q2086.81 149.775 2085.05 148.062 Q2083.29 146.326 2083.29 143.317 Q2083.29 139.659 2085.88 137.669 Q2088.48 135.678 2093.24 135.678 Q2095.61 135.678 2097.69 136.025 Q2099.77 136.372 2101.53 137.067 Z" fill="#000000" fill-rule="nonzero" fill-opacity="1" /><path clip-path="url(#clip310)" d="M2113.92 128.942 L2113.92 136.303 L2122.69 136.303 L2122.69 139.613 L2113.92 139.613 L2113.92 153.687 Q2113.92 156.858 2114.77 157.761 Q2115.65 158.664 2118.31 158.664 L2122.69 158.664 L2122.69 162.229 L2118.31 162.229 Q2113.38 162.229 2111.51 160.4 Q2109.63 158.548 2109.63 153.687 L2109.63 139.613 L2106.51 139.613 L2106.51 136.303 L2109.63 136.303 L2109.63 128.942 L2113.92 128.942 Z" fill="#000000" fill-rule="nonzero" fill-opacity="1" /><path clip-path="url(#clip310)" d="M2138.34 139.289 Q2134.91 139.289 2132.92 141.974 Q2130.93 144.636 2130.93 149.289 Q2130.93 153.942 2132.9 156.627 Q2134.89 159.289 2138.34 159.289 Q2141.74 159.289 2143.73 156.604 Q2145.72 153.918 2145.72 149.289 Q2145.72 144.682 2143.73 141.997 Q2141.74 139.289 2138.34 139.289 M2138.34 135.678 Q2143.89 135.678 2147.06 139.289 Q2150.23 142.9 2150.23 149.289 Q2150.23 155.655 2147.06 159.289 Q2143.89 162.9 2138.34 162.9 Q2132.76 162.9 2129.59 159.289 Q2126.44 155.655 2126.44 149.289 Q2126.44 142.9 2129.59 139.289 Q2132.76 135.678 2138.34 135.678 Z" fill="#000000" fill-rule="nonzero" fill-opacity="1" /><path clip-path="url(#clip310)" d="M2172.32 140.284 Q2171.6 139.868 2170.74 139.682 Q2169.91 139.474 2168.89 139.474 Q2165.28 139.474 2163.34 141.835 Q2161.42 144.173 2161.42 148.571 L2161.42 162.229 L2157.13 162.229 L2157.13 136.303 L2161.42 136.303 L2161.42 140.331 Q2162.76 137.969 2164.91 136.835 Q2167.06 135.678 2170.14 135.678 Q2170.58 135.678 2171.11 135.747 Q2171.65 135.794 2172.29 135.909 L2172.32 140.284 Z" fill="#000000" fill-rule="nonzero" fill-opacity="1" /><path clip-path="url(#clip310)" d="M2188.57 149.196 Q2183.41 149.196 2181.42 150.377 Q2179.42 151.557 2179.42 154.405 Q2179.42 156.673 2180.91 158.016 Q2182.41 159.335 2184.98 159.335 Q2188.52 159.335 2190.65 156.835 Q2192.8 154.312 2192.8 150.145 L2192.8 149.196 L2188.57 149.196 M2197.06 147.437 L2197.06 162.229 L2192.8 162.229 L2192.8 158.293 Q2191.35 160.655 2189.17 161.789 Q2186.99 162.9 2183.85 162.9 Q2179.86 162.9 2177.5 160.678 Q2175.17 158.432 2175.17 154.682 Q2175.17 150.307 2178.08 148.085 Q2181.02 145.863 2186.83 145.863 L2192.8 145.863 L2192.8 145.446 Q2192.8 142.507 2190.86 140.909 Q2188.94 139.289 2185.44 139.289 Q2183.22 139.289 2181.11 139.821 Q2179.01 140.354 2177.06 141.419 L2177.06 137.483 Q2179.4 136.581 2181.6 136.141 Q2183.8 135.678 2185.88 135.678 Q2191.51 135.678 2194.29 138.594 Q2197.06 141.511 2197.06 147.437 Z" fill="#000000" fill-rule="nonzero" fill-opacity="1" /><path clip-path="url(#clip310)" d="M2222.9 148.965 Q2222.9 144.335 2220.98 141.789 Q2219.08 139.243 2215.63 139.243 Q2212.2 139.243 2210.28 141.789 Q2208.38 144.335 2208.38 148.965 Q2208.38 153.571 2210.28 156.118 Q2212.2 158.664 2215.63 158.664 Q2219.08 158.664 2220.98 156.118 Q2222.9 153.571 2222.9 148.965 M2227.16 159.011 Q2227.16 165.631 2224.22 168.849 Q2221.28 172.09 2215.21 172.09 Q2212.97 172.09 2210.98 171.742 Q2208.98 171.418 2207.11 170.724 L2207.11 166.58 Q2208.98 167.599 2210.81 168.085 Q2212.64 168.571 2214.54 168.571 Q2218.73 168.571 2220.81 166.372 Q2222.9 164.196 2222.9 159.775 L2222.9 157.668 Q2221.58 159.96 2219.52 161.094 Q2217.46 162.229 2214.59 162.229 Q2209.82 162.229 2206.9 158.594 Q2203.98 154.96 2203.98 148.965 Q2203.98 142.946 2206.9 139.312 Q2209.82 135.678 2214.59 135.678 Q2217.46 135.678 2219.52 136.812 Q2221.58 137.946 2222.9 140.238 L2222.9 136.303 L2227.16 136.303 L2227.16 159.011 Z" fill="#000000" fill-rule="nonzero" fill-opacity="1" /><path clip-path="url(#clip310)" d="M2258.1 148.201 L2258.1 150.284 L2238.52 150.284 Q2238.8 154.682 2241.16 156.997 Q2243.54 159.289 2247.78 159.289 Q2250.23 159.289 2252.53 158.687 Q2254.84 158.085 2257.11 156.881 L2257.11 160.909 Q2254.82 161.881 2252.41 162.391 Q2250 162.9 2247.53 162.9 Q2241.32 162.9 2237.69 159.289 Q2234.08 155.678 2234.08 149.52 Q2234.08 143.155 2237.5 139.428 Q2240.95 135.678 2246.79 135.678 Q2252.02 135.678 2255.05 139.057 Q2258.1 142.414 2258.1 148.201 M2253.85 146.951 Q2253.8 143.456 2251.88 141.372 Q2249.98 139.289 2246.83 139.289 Q2243.27 139.289 2241.11 141.303 Q2238.98 143.317 2238.66 146.974 L2253.85 146.951 Z" fill="#000000" fill-rule="nonzero" fill-opacity="1" /><polyline clip-path="url(#clip310)" style="stroke:#e26f46; stroke-linecap:round; stroke-linejoin:round; stroke-width:4; stroke-opacity:1; fill:none" points="1833.07,196.789 1975.05,196.789 "/>
<path clip-path="url(#clip310)" d="M1998.71 188.143 L2003.22 188.143 L2011.32 209.902 L2019.43 188.143 L2023.94 188.143 L2014.22 214.069 L2008.43 214.069 L1998.71 188.143 Z" fill="#000000" fill-rule="nonzero" fill-opacity="1" /><path clip-path="url(#clip310)" d="M2030.47 179.509 L2048.82 179.509 L2048.82 183.444 L2034.75 183.444 L2034.75 191.916 Q2035.77 191.569 2036.79 191.407 Q2037.8 191.222 2038.82 191.222 Q2044.61 191.222 2047.99 194.393 Q2051.37 197.564 2051.37 202.981 Q2051.37 208.559 2047.9 211.661 Q2044.43 214.74 2038.11 214.74 Q2035.93 214.74 2033.66 214.37 Q2031.42 213.999 2029.01 213.258 L2029.01 208.559 Q2031.09 209.694 2033.31 210.249 Q2035.54 210.805 2038.01 210.805 Q2042.02 210.805 2044.36 208.698 Q2046.69 206.592 2046.69 202.981 Q2046.69 199.37 2044.36 197.263 Q2042.02 195.157 2038.01 195.157 Q2036.14 195.157 2034.26 195.573 Q2032.41 195.99 2030.47 196.87 L2030.47 179.509 Z" fill="#000000" fill-rule="nonzero" fill-opacity="1" /><path clip-path="url(#clip310)" d="M2069.24 197.425 L2069.24 204.647 L2077.36 204.647 L2077.36 206.846 L2069.24 206.846 L2069.24 214.069 L2066.81 214.069 L2066.81 206.846 L2058.68 206.846 L2058.68 204.647 L2066.81 204.647 L2066.81 197.425 L2069.24 197.425 Z" fill="#000000" fill-rule="nonzero" fill-opacity="1" /><path clip-path="url(#clip310)" d="M2101.53 188.907 L2101.53 192.934 Q2099.73 192.009 2097.78 191.546 Q2095.84 191.083 2093.75 191.083 Q2090.58 191.083 2088.99 192.055 Q2087.41 193.027 2087.41 194.971 Q2087.41 196.453 2088.55 197.309 Q2089.68 198.143 2093.11 198.907 L2094.56 199.231 Q2099.1 200.203 2101 201.985 Q2102.92 203.745 2102.92 206.916 Q2102.92 210.527 2100.05 212.633 Q2097.2 214.74 2092.2 214.74 Q2090.12 214.74 2087.85 214.323 Q2085.61 213.93 2083.11 213.12 L2083.11 208.721 Q2085.47 209.948 2087.76 210.573 Q2090.05 211.175 2092.3 211.175 Q2095.3 211.175 2096.92 210.157 Q2098.55 209.115 2098.55 207.24 Q2098.55 205.504 2097.36 204.578 Q2096.21 203.652 2092.25 202.796 L2090.77 202.448 Q2086.81 201.615 2085.05 199.902 Q2083.29 198.166 2083.29 195.157 Q2083.29 191.499 2085.88 189.509 Q2088.48 187.518 2093.24 187.518 Q2095.61 187.518 2097.69 187.865 Q2099.77 188.212 2101.53 188.907 Z" fill="#000000" fill-rule="nonzero" fill-opacity="1" /><path clip-path="url(#clip310)" d="M2113.92 180.782 L2113.92 188.143 L2122.69 188.143 L2122.69 191.453 L2113.92 191.453 L2113.92 205.527 Q2113.92 208.698 2114.77 209.601 Q2115.65 210.504 2118.31 210.504 L2122.69 210.504 L2122.69 214.069 L2118.31 214.069 Q2113.38 214.069 2111.51 212.24 Q2109.63 210.388 2109.63 205.527 L2109.63 191.453 L2106.51 191.453 L2106.51 188.143 L2109.63 188.143 L2109.63 180.782 L2113.92 180.782 Z" fill="#000000" fill-rule="nonzero" fill-opacity="1" /><path clip-path="url(#clip310)" d="M2138.34 191.129 Q2134.91 191.129 2132.92 193.814 Q2130.93 196.476 2130.93 201.129 Q2130.93 205.782 2132.9 208.467 Q2134.89 211.129 2138.34 211.129 Q2141.74 211.129 2143.73 208.444 Q2145.72 205.758 2145.72 201.129 Q2145.72 196.522 2143.73 193.837 Q2141.74 191.129 2138.34 191.129 M2138.34 187.518 Q2143.89 187.518 2147.06 191.129 Q2150.23 194.74 2150.23 201.129 Q2150.23 207.495 2147.06 211.129 Q2143.89 214.74 2138.34 214.74 Q2132.76 214.74 2129.59 211.129 Q2126.44 207.495 2126.44 201.129 Q2126.44 194.74 2129.59 191.129 Q2132.76 187.518 2138.34 187.518 Z" fill="#000000" fill-rule="nonzero" fill-opacity="1" /><path clip-path="url(#clip310)" d="M2172.32 192.124 Q2171.6 191.708 2170.74 191.522 Q2169.91 191.314 2168.89 191.314 Q2165.28 191.314 2163.34 193.675 Q2161.42 196.013 2161.42 200.411 L2161.42 214.069 L2157.13 214.069 L2157.13 188.143 L2161.42 188.143 L2161.42 192.171 Q2162.76 189.809 2164.91 188.675 Q2167.06 187.518 2170.14 187.518 Q2170.58 187.518 2171.11 187.587 Q2171.65 187.634 2172.29 187.749 L2172.32 192.124 Z" fill="#000000" fill-rule="nonzero" fill-opacity="1" /><path clip-path="url(#clip310)" d="M2188.57 201.036 Q2183.41 201.036 2181.42 202.217 Q2179.42 203.397 2179.42 206.245 Q2179.42 208.513 2180.91 209.856 Q2182.41 211.175 2184.98 211.175 Q2188.52 211.175 2190.65 208.675 Q2192.8 206.152 2192.8 201.985 L2192.8 201.036 L2188.57 201.036 M2197.06 199.277 L2197.06 214.069 L2192.8 214.069 L2192.8 210.133 Q2191.35 212.495 2189.17 213.629 Q2186.99 214.74 2183.85 214.74 Q2179.86 214.74 2177.5 212.518 Q2175.17 210.272 2175.17 206.522 Q2175.17 202.147 2178.08 199.925 Q2181.02 197.703 2186.83 197.703 L2192.8 197.703 L2192.8 197.286 Q2192.8 194.347 2190.86 192.749 Q2188.94 191.129 2185.44 191.129 Q2183.22 191.129 2181.11 191.661 Q2179.01 192.194 2177.06 193.259 L2177.06 189.323 Q2179.4 188.421 2181.6 187.981 Q2183.8 187.518 2185.88 187.518 Q2191.51 187.518 2194.29 190.434 Q2197.06 193.351 2197.06 199.277 Z" fill="#000000" fill-rule="nonzero" fill-opacity="1" /><path clip-path="url(#clip310)" d="M2222.9 200.805 Q2222.9 196.175 2220.98 193.629 Q2219.08 191.083 2215.63 191.083 Q2212.2 191.083 2210.28 193.629 Q2208.38 196.175 2208.38 200.805 Q2208.38 205.411 2210.28 207.958 Q2212.2 210.504 2215.63 210.504 Q2219.08 210.504 2220.98 207.958 Q2222.9 205.411 2222.9 200.805 M2227.16 210.851 Q2227.16 217.471 2224.22 220.689 Q2221.28 223.93 2215.21 223.93 Q2212.97 223.93 2210.98 223.582 Q2208.98 223.258 2207.11 222.564 L2207.11 218.42 Q2208.98 219.439 2210.81 219.925 Q2212.64 220.411 2214.54 220.411 Q2218.73 220.411 2220.81 218.212 Q2222.9 216.036 2222.9 211.615 L2222.9 209.508 Q2221.58 211.8 2219.52 212.934 Q2217.46 214.069 2214.59 214.069 Q2209.82 214.069 2206.9 210.434 Q2203.98 206.8 2203.98 200.805 Q2203.98 194.786 2206.9 191.152 Q2209.82 187.518 2214.59 187.518 Q2217.46 187.518 2219.52 188.652 Q2221.58 189.786 2222.9 192.078 L2222.9 188.143 L2227.16 188.143 L2227.16 210.851 Z" fill="#000000" fill-rule="nonzero" fill-opacity="1" /><path clip-path="url(#clip310)" d="M2258.1 200.041 L2258.1 202.124 L2238.52 202.124 Q2238.8 206.522 2241.16 208.837 Q2243.54 211.129 2247.78 211.129 Q2250.23 211.129 2252.53 210.527 Q2254.84 209.925 2257.11 208.721 L2257.11 212.749 Q2254.82 213.721 2252.41 214.231 Q2250 214.74 2247.53 214.74 Q2241.32 214.74 2237.69 211.129 Q2234.08 207.518 2234.08 201.36 Q2234.08 194.995 2237.5 191.268 Q2240.95 187.518 2246.79 187.518 Q2252.02 187.518 2255.05 190.897 Q2258.1 194.254 2258.1 200.041 M2253.85 198.791 Q2253.8 195.296 2251.88 193.212 Q2249.98 191.129 2246.83 191.129 Q2243.27 191.129 2241.11 193.143 Q2238.98 195.157 2238.66 198.814 L2253.85 198.791 Z" fill="#000000" fill-rule="nonzero" fill-opacity="1" /></svg>
