<?xml version="1.0" encoding="utf-8"?>
<svg xmlns="http://www.w3.org/2000/svg" xmlns:xlink="http://www.w3.org/1999/xlink" width="600" height="400" viewBox="0 0 2400 1600">
<defs>
  <clipPath id="clip980">
    <rect x="0" y="0" width="2400" height="1600"/>
  </clipPath>
</defs>
<path clip-path="url(#clip980)" d="M0 1600 L2400 1600 L2400 0 L0 0  Z" fill="#ffffff" fill-rule="evenodd" fill-opacity="1"/>
<defs>
  <clipPath id="clip981">
    <rect x="480" y="0" width="1681" height="1600"/>
  </clipPath>
</defs>
<path clip-path="url(#clip980)" d="M156.274 1423.18 L2352.76 1423.18 L2352.76 47.2441 L156.274 47.2441  Z" fill="#ffffff" fill-rule="evenodd" fill-opacity="1"/>
<defs>
  <clipPath id="clip982">
    <rect x="156" y="47" width="2197" height="1377"/>
  </clipPath>
</defs>
<polyline clip-path="url(#clip982)" style="stroke:#000000; stroke-linecap:round; stroke-linejoin:round; stroke-width:2; stroke-opacity:0.1; fill:none" points="156.274,1423.18 156.274,47.2441 "/>
<polyline clip-path="url(#clip982)" style="stroke:#000000; stroke-linecap:round; stroke-linejoin:round; stroke-width:2; stroke-opacity:0.1; fill:none" points="705.395,1423.18 705.395,47.2441 "/>
<polyline clip-path="url(#clip982)" style="stroke:#000000; stroke-linecap:round; stroke-linejoin:round; stroke-width:2; stroke-opacity:0.1; fill:none" points="1254.52,1423.18 1254.52,47.2441 "/>
<polyline clip-path="url(#clip982)" style="stroke:#000000; stroke-linecap:round; stroke-linejoin:round; stroke-width:2; stroke-opacity:0.1; fill:none" points="1803.64,1423.18 1803.64,47.2441 "/>
<polyline clip-path="url(#clip982)" style="stroke:#000000; stroke-linecap:round; stroke-linejoin:round; stroke-width:2; stroke-opacity:0.1; fill:none" points="2352.76,1423.18 2352.76,47.2441 "/>
<polyline clip-path="url(#clip982)" style="stroke:#000000; stroke-linecap:round; stroke-linejoin:round; stroke-width:2; stroke-opacity:0.1; fill:none" points="156.274,1293.45 2352.76,1293.45 "/>
<polyline clip-path="url(#clip982)" style="stroke:#000000; stroke-linecap:round; stroke-linejoin:round; stroke-width:2; stroke-opacity:0.1; fill:none" points="156.274,1029.29 2352.76,1029.29 "/>
<polyline clip-path="url(#clip982)" style="stroke:#000000; stroke-linecap:round; stroke-linejoin:round; stroke-width:2; stroke-opacity:0.1; fill:none" points="156.274,765.129 2352.76,765.129 "/>
<polyline clip-path="url(#clip982)" style="stroke:#000000; stroke-linecap:round; stroke-linejoin:round; stroke-width:2; stroke-opacity:0.1; fill:none" points="156.274,500.966 2352.76,500.966 "/>
<polyline clip-path="url(#clip982)" style="stroke:#000000; stroke-linecap:round; stroke-linejoin:round; stroke-width:2; stroke-opacity:0.1; fill:none" points="156.274,236.803 2352.76,236.803 "/>
<polyline clip-path="url(#clip980)" style="stroke:#000000; stroke-linecap:round; stroke-linejoin:round; stroke-width:4; stroke-opacity:1; fill:none" points="156.274,1423.18 2352.76,1423.18 "/>
<polyline clip-path="url(#clip980)" style="stroke:#000000; stroke-linecap:round; stroke-linejoin:round; stroke-width:4; stroke-opacity:1; fill:none" points="156.274,1423.18 156.274,1404.28 "/>
<polyline clip-path="url(#clip980)" style="stroke:#000000; stroke-linecap:round; stroke-linejoin:round; stroke-width:4; stroke-opacity:1; fill:none" points="705.395,1423.18 705.395,1404.28 "/>
<polyline clip-path="url(#clip980)" style="stroke:#000000; stroke-linecap:round; stroke-linejoin:round; stroke-width:4; stroke-opacity:1; fill:none" points="1254.52,1423.18 1254.52,1404.28 "/>
<polyline clip-path="url(#clip980)" style="stroke:#000000; stroke-linecap:round; stroke-linejoin:round; stroke-width:4; stroke-opacity:1; fill:none" points="1803.64,1423.18 1803.64,1404.28 "/>
<polyline clip-path="url(#clip980)" style="stroke:#000000; stroke-linecap:round; stroke-linejoin:round; stroke-width:4; stroke-opacity:1; fill:none" points="2352.76,1423.18 2352.76,1404.28 "/>
<path clip-path="url(#clip980)" d="M133.659 1454.1 Q130.047 1454.1 128.219 1457.66 Q126.413 1461.2 126.413 1468.33 Q126.413 1475.44 128.219 1479.01 Q130.047 1482.55 133.659 1482.55 Q137.293 1482.55 139.098 1479.01 Q140.927 1475.44 140.927 1468.33 Q140.927 1461.2 139.098 1457.66 Q137.293 1454.1 133.659 1454.1 M133.659 1450.39 Q139.469 1450.39 142.524 1455 Q145.603 1459.58 145.603 1468.33 Q145.603 1477.06 142.524 1481.67 Q139.469 1486.25 133.659 1486.25 Q127.848 1486.25 124.77 1481.67 Q121.714 1477.06 121.714 1468.33 Q121.714 1459.58 124.77 1455 Q127.848 1450.39 133.659 1450.39 Z" fill="#000000" fill-rule="nonzero" fill-opacity="1" /><path clip-path="url(#clip980)" d="M153.82 1479.7 L158.705 1479.7 L158.705 1485.58 L153.82 1485.58 L153.82 1479.7 Z" fill="#000000" fill-rule="nonzero" fill-opacity="1" /><path clip-path="url(#clip980)" d="M178.89 1454.1 Q175.279 1454.1 173.45 1457.66 Q171.644 1461.2 171.644 1468.33 Q171.644 1475.44 173.45 1479.01 Q175.279 1482.55 178.89 1482.55 Q182.524 1482.55 184.33 1479.01 Q186.158 1475.44 186.158 1468.33 Q186.158 1461.2 184.33 1457.66 Q182.524 1454.1 178.89 1454.1 M178.89 1450.39 Q184.7 1450.39 187.755 1455 Q190.834 1459.58 190.834 1468.33 Q190.834 1477.06 187.755 1481.67 Q184.7 1486.25 178.89 1486.25 Q173.08 1486.25 170.001 1481.67 Q166.945 1477.06 166.945 1468.33 Q166.945 1459.58 170.001 1455 Q173.08 1450.39 178.89 1450.39 Z" fill="#000000" fill-rule="nonzero" fill-opacity="1" /><path clip-path="url(#clip980)" d="M683.277 1454.1 Q679.666 1454.1 677.837 1457.66 Q676.031 1461.2 676.031 1468.33 Q676.031 1475.44 677.837 1479.01 Q679.666 1482.55 683.277 1482.55 Q686.911 1482.55 688.716 1479.01 Q690.545 1475.44 690.545 1468.33 Q690.545 1461.2 688.716 1457.66 Q686.911 1454.1 683.277 1454.1 M683.277 1450.39 Q689.087 1450.39 692.142 1455 Q695.221 1459.58 695.221 1468.33 Q695.221 1477.06 692.142 1481.67 Q689.087 1486.25 683.277 1486.25 Q677.467 1486.25 674.388 1481.67 Q671.332 1477.06 671.332 1468.33 Q671.332 1459.58 674.388 1455 Q677.467 1450.39 683.277 1450.39 Z" fill="#000000" fill-rule="nonzero" fill-opacity="1" /><path clip-path="url(#clip980)" d="M703.439 1479.7 L708.323 1479.7 L708.323 1485.58 L703.439 1485.58 L703.439 1479.7 Z" fill="#000000" fill-rule="nonzero" fill-opacity="1" /><path clip-path="url(#clip980)" d="M718.554 1451.02 L736.911 1451.02 L736.911 1454.96 L722.837 1454.96 L722.837 1463.43 Q723.855 1463.08 724.874 1462.92 Q725.892 1462.73 726.911 1462.73 Q732.698 1462.73 736.077 1465.9 Q739.457 1469.08 739.457 1474.49 Q739.457 1480.07 735.985 1483.17 Q732.513 1486.25 726.193 1486.25 Q724.017 1486.25 721.749 1485.88 Q719.503 1485.51 717.096 1484.77 L717.096 1480.07 Q719.179 1481.2 721.401 1481.76 Q723.624 1482.32 726.101 1482.32 Q730.105 1482.32 732.443 1480.21 Q734.781 1478.1 734.781 1474.49 Q734.781 1470.88 732.443 1468.77 Q730.105 1466.67 726.101 1466.67 Q724.226 1466.67 722.351 1467.08 Q720.499 1467.5 718.554 1468.38 L718.554 1451.02 Z" fill="#000000" fill-rule="nonzero" fill-opacity="1" /><path clip-path="url(#clip980)" d="M1221.67 1481.64 L1229.31 1481.64 L1229.31 1455.28 L1221 1456.95 L1221 1452.69 L1229.26 1451.02 L1233.94 1451.02 L1233.94 1481.64 L1241.58 1481.64 L1241.58 1485.58 L1221.67 1485.58 L1221.67 1481.64 Z" fill="#000000" fill-rule="nonzero" fill-opacity="1" /><path clip-path="url(#clip980)" d="M1251.02 1479.7 L1255.9 1479.7 L1255.9 1485.58 L1251.02 1485.58 L1251.02 1479.7 Z" fill="#000000" fill-rule="nonzero" fill-opacity="1" /><path clip-path="url(#clip980)" d="M1276.09 1454.1 Q1272.48 1454.1 1270.65 1457.66 Q1268.84 1461.2 1268.84 1468.33 Q1268.84 1475.44 1270.65 1479.01 Q1272.48 1482.55 1276.09 1482.55 Q1279.72 1482.55 1281.53 1479.01 Q1283.36 1475.44 1283.36 1468.33 Q1283.36 1461.2 1281.53 1457.66 Q1279.72 1454.1 1276.09 1454.1 M1276.09 1450.39 Q1281.9 1450.39 1284.95 1455 Q1288.03 1459.58 1288.03 1468.33 Q1288.03 1477.06 1284.95 1481.67 Q1281.9 1486.25 1276.09 1486.25 Q1270.28 1486.25 1267.2 1481.67 Q1264.14 1477.06 1264.14 1468.33 Q1264.14 1459.58 1267.2 1455 Q1270.28 1450.39 1276.09 1450.39 Z" fill="#000000" fill-rule="nonzero" fill-opacity="1" /><path clip-path="url(#clip980)" d="M1771.29 1481.64 L1778.92 1481.64 L1778.92 1455.28 L1770.61 1456.95 L1770.61 1452.69 L1778.88 1451.02 L1783.55 1451.02 L1783.55 1481.64 L1791.19 1481.64 L1791.19 1485.58 L1771.29 1485.58 L1771.29 1481.64 Z" fill="#000000" fill-rule="nonzero" fill-opacity="1" /><path clip-path="url(#clip980)" d="M1800.64 1479.7 L1805.52 1479.7 L1805.52 1485.58 L1800.64 1485.58 L1800.64 1479.7 Z" fill="#000000" fill-rule="nonzero" fill-opacity="1" /><path clip-path="url(#clip980)" d="M1815.75 1451.02 L1834.11 1451.02 L1834.11 1454.96 L1820.04 1454.96 L1820.04 1463.43 Q1821.05 1463.08 1822.07 1462.92 Q1823.09 1462.73 1824.11 1462.73 Q1829.9 1462.73 1833.28 1465.9 Q1836.66 1469.08 1836.66 1474.49 Q1836.66 1480.07 1833.18 1483.17 Q1829.71 1486.25 1823.39 1486.25 Q1821.22 1486.25 1818.95 1485.88 Q1816.7 1485.51 1814.3 1484.77 L1814.3 1480.07 Q1816.38 1481.2 1818.6 1481.76 Q1820.82 1482.32 1823.3 1482.32 Q1827.3 1482.32 1829.64 1480.21 Q1831.98 1478.1 1831.98 1474.49 Q1831.98 1470.88 1829.64 1468.77 Q1827.3 1466.67 1823.3 1466.67 Q1821.42 1466.67 1819.55 1467.08 Q1817.7 1467.5 1815.75 1468.38 L1815.75 1451.02 Z" fill="#000000" fill-rule="nonzero" fill-opacity="1" /><path clip-path="url(#clip980)" d="M2323.99 1481.64 L2340.31 1481.64 L2340.31 1485.58 L2318.37 1485.58 L2318.37 1481.64 Q2321.03 1478.89 2325.61 1474.26 Q2330.22 1469.61 2331.4 1468.27 Q2333.65 1465.74 2334.53 1464.01 Q2335.43 1462.25 2335.43 1460.56 Q2335.43 1457.8 2333.49 1456.07 Q2331.56 1454.33 2328.46 1454.33 Q2326.26 1454.33 2323.81 1455.09 Q2321.38 1455.86 2318.6 1457.41 L2318.6 1452.69 Q2321.43 1451.55 2323.88 1450.97 Q2326.33 1450.39 2328.37 1450.39 Q2333.74 1450.39 2336.93 1453.08 Q2340.13 1455.77 2340.13 1460.26 Q2340.13 1462.39 2339.32 1464.31 Q2338.53 1466.2 2336.42 1468.8 Q2335.85 1469.47 2332.74 1472.69 Q2329.64 1475.88 2323.99 1481.64 Z" fill="#000000" fill-rule="nonzero" fill-opacity="1" /><path clip-path="url(#clip980)" d="M2350.13 1479.7 L2355.01 1479.7 L2355.01 1485.58 L2350.13 1485.58 L2350.13 1479.7 Z" fill="#000000" fill-rule="nonzero" fill-opacity="1" /><path clip-path="url(#clip980)" d="M2375.2 1454.1 Q2371.59 1454.1 2369.76 1457.66 Q2367.95 1461.2 2367.95 1468.33 Q2367.95 1475.44 2369.76 1479.01 Q2371.59 1482.55 2375.2 1482.55 Q2378.83 1482.55 2380.64 1479.01 Q2382.47 1475.44 2382.47 1468.33 Q2382.47 1461.2 2380.64 1457.66 Q2378.83 1454.1 2375.2 1454.1 M2375.2 1450.39 Q2381.01 1450.39 2384.06 1455 Q2387.14 1459.58 2387.14 1468.33 Q2387.14 1477.06 2384.06 1481.67 Q2381.01 1486.25 2375.2 1486.25 Q2369.39 1486.25 2366.31 1481.67 Q2363.25 1477.06 2363.25 1468.33 Q2363.25 1459.58 2366.31 1455 Q2369.39 1450.39 2375.2 1450.39 Z" fill="#000000" fill-rule="nonzero" fill-opacity="1" /><path clip-path="url(#clip980)" d="M1253.58 1522.27 L1253.58 1532.4 L1265.64 1532.4 L1265.64 1536.95 L1253.58 1536.95 L1253.58 1556.3 Q1253.58 1560.66 1254.75 1561.9 Q1255.96 1563.14 1259.62 1563.14 L1265.64 1563.14 L1265.64 1568.04 L1259.62 1568.04 Q1252.84 1568.04 1250.27 1565.53 Q1247.69 1562.98 1247.69 1556.3 L1247.69 1536.95 L1243.39 1536.95 L1243.39 1532.4 L1247.69 1532.4 L1247.69 1522.27 L1253.58 1522.27 Z" fill="#000000" fill-rule="nonzero" fill-opacity="1" /><polyline clip-path="url(#clip980)" style="stroke:#000000; stroke-linecap:round; stroke-linejoin:round; stroke-width:4; stroke-opacity:1; fill:none" points="156.274,1423.18 156.274,47.2441 "/>
<polyline clip-path="url(#clip980)" style="stroke:#000000; stroke-linecap:round; stroke-linejoin:round; stroke-width:4; stroke-opacity:1; fill:none" points="156.274,1293.45 175.172,1293.45 "/>
<polyline clip-path="url(#clip980)" style="stroke:#000000; stroke-linecap:round; stroke-linejoin:round; stroke-width:4; stroke-opacity:1; fill:none" points="156.274,1029.29 175.172,1029.29 "/>
<polyline clip-path="url(#clip980)" style="stroke:#000000; stroke-linecap:round; stroke-linejoin:round; stroke-width:4; stroke-opacity:1; fill:none" points="156.274,765.129 175.172,765.129 "/>
<polyline clip-path="url(#clip980)" style="stroke:#000000; stroke-linecap:round; stroke-linejoin:round; stroke-width:4; stroke-opacity:1; fill:none" points="156.274,500.966 175.172,500.966 "/>
<polyline clip-path="url(#clip980)" style="stroke:#000000; stroke-linecap:round; stroke-linejoin:round; stroke-width:4; stroke-opacity:1; fill:none" points="156.274,236.803 175.172,236.803 "/>
<path clip-path="url(#clip980)" d="M62.9365 1279.25 Q59.3254 1279.25 57.4967 1282.82 Q55.6912 1286.36 55.6912 1293.49 Q55.6912 1300.6 57.4967 1304.16 Q59.3254 1307.7 62.9365 1307.7 Q66.5707 1307.7 68.3763 1304.16 Q70.205 1300.6 70.205 1293.49 Q70.205 1286.36 68.3763 1282.82 Q66.5707 1279.25 62.9365 1279.25 M62.9365 1275.55 Q68.7467 1275.55 71.8022 1280.16 Q74.8809 1284.74 74.8809 1293.49 Q74.8809 1302.22 71.8022 1306.82 Q68.7467 1311.41 62.9365 1311.41 Q57.1264 1311.41 54.0477 1306.82 Q50.9921 1302.22 50.9921 1293.49 Q50.9921 1284.74 54.0477 1280.16 Q57.1264 1275.55 62.9365 1275.55 Z" fill="#000000" fill-rule="nonzero" fill-opacity="1" /><path clip-path="url(#clip980)" d="M83.0984 1304.85 L87.9827 1304.85 L87.9827 1310.73 L83.0984 1310.73 L83.0984 1304.85 Z" fill="#000000" fill-rule="nonzero" fill-opacity="1" /><path clip-path="url(#clip980)" d="M108.746 1291.59 Q105.598 1291.59 103.746 1293.74 Q101.918 1295.9 101.918 1299.65 Q101.918 1303.37 103.746 1305.55 Q105.598 1307.7 108.746 1307.7 Q111.895 1307.7 113.723 1305.55 Q115.575 1303.37 115.575 1299.65 Q115.575 1295.9 113.723 1293.74 Q111.895 1291.59 108.746 1291.59 M118.029 1276.94 L118.029 1281.2 Q116.27 1280.36 114.464 1279.92 Q112.682 1279.48 110.922 1279.48 Q106.293 1279.48 103.839 1282.61 Q101.409 1285.73 101.061 1292.05 Q102.427 1290.04 104.487 1288.98 Q106.547 1287.89 109.024 1287.89 Q114.233 1287.89 117.242 1291.06 Q120.274 1294.21 120.274 1299.65 Q120.274 1304.97 117.126 1308.19 Q113.978 1311.41 108.746 1311.41 Q102.751 1311.41 99.5798 1306.82 Q96.4085 1302.22 96.4085 1293.49 Q96.4085 1285.29 100.297 1280.43 Q104.186 1275.55 110.737 1275.55 Q112.496 1275.55 114.279 1275.9 Q116.084 1276.24 118.029 1276.94 Z" fill="#000000" fill-rule="nonzero" fill-opacity="1" /><path clip-path="url(#clip980)" d="M63.2837 1015.09 Q59.6726 1015.09 57.8439 1018.65 Q56.0384 1022.2 56.0384 1029.33 Q56.0384 1036.43 57.8439 1040 Q59.6726 1043.54 63.2837 1043.54 Q66.918 1043.54 68.7235 1040 Q70.5522 1036.43 70.5522 1029.33 Q70.5522 1022.2 68.7235 1018.65 Q66.918 1015.09 63.2837 1015.09 M63.2837 1011.39 Q69.0939 1011.39 72.1494 1015.99 Q75.2281 1020.58 75.2281 1029.33 Q75.2281 1038.05 72.1494 1042.66 Q69.0939 1047.24 63.2837 1047.24 Q57.4736 1047.24 54.3949 1042.66 Q51.3393 1038.05 51.3393 1029.33 Q51.3393 1020.58 54.3949 1015.99 Q57.4736 1011.39 63.2837 1011.39 Z" fill="#000000" fill-rule="nonzero" fill-opacity="1" /><path clip-path="url(#clip980)" d="M83.4457 1040.69 L88.3299 1040.69 L88.3299 1046.57 L83.4457 1046.57 L83.4457 1040.69 Z" fill="#000000" fill-rule="nonzero" fill-opacity="1" /><path clip-path="url(#clip980)" d="M98.6539 1045.85 L98.6539 1041.59 Q100.413 1042.43 102.219 1042.87 Q104.024 1043.31 105.76 1043.31 Q110.39 1043.31 112.82 1040.21 Q115.274 1037.08 115.621 1030.74 Q114.279 1032.73 112.219 1033.79 Q110.158 1034.86 107.658 1034.86 Q102.473 1034.86 99.4409 1031.73 Q96.4317 1028.59 96.4317 1023.15 Q96.4317 1017.82 99.5798 1014.6 Q102.728 1011.39 107.959 1011.39 Q113.955 1011.39 117.103 1015.99 Q120.274 1020.58 120.274 1029.33 Q120.274 1037.5 116.385 1042.38 Q112.52 1047.24 105.969 1047.24 Q104.209 1047.24 102.404 1046.9 Q100.598 1046.55 98.6539 1045.85 M107.959 1031.2 Q111.108 1031.2 112.936 1029.05 Q114.788 1026.9 114.788 1023.15 Q114.788 1019.42 112.936 1017.27 Q111.108 1015.09 107.959 1015.09 Q104.811 1015.09 102.959 1017.27 Q101.131 1019.42 101.131 1023.15 Q101.131 1026.9 102.959 1029.05 Q104.811 1031.2 107.959 1031.2 Z" fill="#000000" fill-rule="nonzero" fill-opacity="1" /><path clip-path="url(#clip980)" d="M55.506 778.474 L63.1448 778.474 L63.1448 752.108 L54.8347 753.775 L54.8347 749.515 L63.0985 747.849 L67.7744 747.849 L67.7744 778.474 L75.4133 778.474 L75.4133 782.409 L55.506 782.409 L55.506 778.474 Z" fill="#000000" fill-rule="nonzero" fill-opacity="1" /><path clip-path="url(#clip980)" d="M84.8577 776.529 L89.7419 776.529 L89.7419 782.409 L84.8577 782.409 L84.8577 776.529 Z" fill="#000000" fill-rule="nonzero" fill-opacity="1" /><path clip-path="url(#clip980)" d="M103.955 778.474 L120.274 778.474 L120.274 782.409 L98.3298 782.409 L98.3298 778.474 Q100.992 775.719 105.575 771.089 Q110.182 766.437 111.362 765.094 Q113.608 762.571 114.487 760.835 Q115.39 759.075 115.39 757.386 Q115.39 754.631 113.445 752.895 Q111.524 751.159 108.422 751.159 Q106.223 751.159 103.77 751.923 Q101.339 752.687 98.5613 754.238 L98.5613 749.515 Q101.385 748.381 103.839 747.802 Q106.293 747.224 108.33 747.224 Q113.7 747.224 116.895 749.909 Q120.089 752.594 120.089 757.085 Q120.089 759.214 119.279 761.136 Q118.492 763.034 116.385 765.626 Q115.807 766.298 112.705 769.515 Q109.603 772.71 103.955 778.474 Z" fill="#000000" fill-rule="nonzero" fill-opacity="1" /><path clip-path="url(#clip980)" d="M54.9041 514.311 L62.543 514.311 L62.543 487.945 L54.2328 489.612 L54.2328 485.353 L62.4967 483.686 L67.1726 483.686 L67.1726 514.311 L74.8114 514.311 L74.8114 518.246 L54.9041 518.246 L54.9041 514.311 Z" fill="#000000" fill-rule="nonzero" fill-opacity="1" /><path clip-path="url(#clip980)" d="M84.2558 512.366 L89.1401 512.366 L89.1401 518.246 L84.2558 518.246 L84.2558 512.366 Z" fill="#000000" fill-rule="nonzero" fill-opacity="1" /><path clip-path="url(#clip980)" d="M99.3715 483.686 L117.728 483.686 L117.728 487.621 L103.654 487.621 L103.654 496.093 Q104.672 495.746 105.691 495.584 Q106.709 495.399 107.728 495.399 Q113.515 495.399 116.895 498.57 Q120.274 501.741 120.274 507.158 Q120.274 512.737 116.802 515.838 Q113.33 518.917 107.01 518.917 Q104.834 518.917 102.566 518.547 Q100.321 518.176 97.9132 517.436 L97.9132 512.737 Q99.9965 513.871 102.219 514.426 Q104.441 514.982 106.918 514.982 Q110.922 514.982 113.26 512.876 Q115.598 510.769 115.598 507.158 Q115.598 503.547 113.26 501.44 Q110.922 499.334 106.918 499.334 Q105.043 499.334 103.168 499.751 Q101.316 500.167 99.3715 501.047 L99.3715 483.686 Z" fill="#000000" fill-rule="nonzero" fill-opacity="1" /><path clip-path="url(#clip980)" d="M54.0014 250.148 L61.6402 250.148 L61.6402 223.782 L53.3301 225.449 L53.3301 221.19 L61.5939 219.523 L66.2698 219.523 L66.2698 250.148 L73.9087 250.148 L73.9087 254.083 L54.0014 254.083 L54.0014 250.148 Z" fill="#000000" fill-rule="nonzero" fill-opacity="1" /><path clip-path="url(#clip980)" d="M83.3531 248.203 L88.2373 248.203 L88.2373 254.083 L83.3531 254.083 L83.3531 248.203 Z" fill="#000000" fill-rule="nonzero" fill-opacity="1" /><path clip-path="url(#clip980)" d="M108.422 237.671 Q105.089 237.671 103.168 239.453 Q101.27 241.236 101.27 244.361 Q101.27 247.486 103.168 249.268 Q105.089 251.051 108.422 251.051 Q111.756 251.051 113.677 249.268 Q115.598 247.463 115.598 244.361 Q115.598 241.236 113.677 239.453 Q111.779 237.671 108.422 237.671 M103.746 235.68 Q100.737 234.94 99.0474 232.879 Q97.3808 230.819 97.3808 227.856 Q97.3808 223.713 100.321 221.305 Q103.284 218.898 108.422 218.898 Q113.584 218.898 116.524 221.305 Q119.464 223.713 119.464 227.856 Q119.464 230.819 117.774 232.879 Q116.108 234.94 113.121 235.68 Q116.501 236.467 118.376 238.759 Q120.274 241.051 120.274 244.361 Q120.274 249.384 117.195 252.069 Q114.14 254.754 108.422 254.754 Q102.705 254.754 99.6261 252.069 Q96.5706 249.384 96.5706 244.361 Q96.5706 241.051 98.4687 238.759 Q100.367 236.467 103.746 235.68 M102.034 228.296 Q102.034 230.981 103.7 232.486 Q105.39 233.991 108.422 233.991 Q111.432 233.991 113.121 232.486 Q114.834 230.981 114.834 228.296 Q114.834 225.611 113.121 224.106 Q111.432 222.602 108.422 222.602 Q105.39 222.602 103.7 224.106 Q102.034 225.611 102.034 228.296 Z" fill="#000000" fill-rule="nonzero" fill-opacity="1" /><polyline clip-path="url(#clip982)" style="stroke:#009af9; stroke-linecap:round; stroke-linejoin:round; stroke-width:4; stroke-opacity:1; fill:none" points="156.274,86.1857 158.473,92.2838 160.672,98.3213 162.87,104.299 165.069,110.216 167.268,116.075 169.466,121.876 171.665,127.619 173.864,133.304 176.062,138.933 178.261,144.506 180.46,150.023 182.658,155.485 184.857,160.893 187.056,166.247 189.254,171.548 191.453,176.796 193.652,181.992 195.85,187.136 198.049,192.228 200.248,197.27 202.446,202.262 204.645,207.204 206.844,212.097 209.042,216.941 211.241,221.737 213.44,226.485 215.639,231.185 217.837,235.839 220.036,240.447 222.235,245.009 224.433,249.525 226.632,253.996 228.831,258.423 231.029,262.806 233.228,267.145 235.427,271.441 237.625,275.694 239.824,279.905 242.023,284.074 244.221,288.201 246.42,292.287 248.619,296.333 250.817,300.338 253.016,304.303 255.215,308.229 257.413,312.115 259.612,315.963 261.811,319.773 264.01,323.544 266.208,327.278 268.407,330.975 270.606,334.635 272.804,338.259 275.003,341.846 277.202,345.398 279.4,348.914 281.599,352.395 283.798,355.842 285.996,359.254 288.195,362.633 290.394,365.977 292.592,369.289 294.791,372.567 296.99,375.813 299.188,379.026 301.387,382.208 303.586,385.357 305.784,388.476 307.983,391.563 310.182,394.619 312.38,397.646 314.579,400.642 316.778,403.608 318.977,406.545 321.175,409.452 323.374,412.331 325.573,415.181 327.771,418.002 329.97,420.796 332.169,423.562 334.367,426.3 336.566,429.011 338.765,431.694 340.963,434.351 343.162,436.982 345.361,439.586 347.559,442.165 349.758,444.717 351.957,447.245 354.155,449.747 356.354,452.224 358.553,454.676 360.751,457.104 362.95,459.508 365.149,461.888 367.347,464.244 369.546,466.576 371.745,468.886 373.944,471.172 376.142,473.436 378.341,475.677 380.54,477.895 382.738,480.092 384.937,482.266 387.136,484.419 389.334,486.551 391.533,488.661 393.732,490.751 395.93,492.819 398.129,494.867 400.328,496.894 402.526,498.902 404.725,500.889 406.924,502.857 409.122,504.805 411.321,506.733 413.52,508.643 415.718,510.533 417.917,512.405 420.116,514.258 422.314,516.092 424.513,517.909 426.712,519.707 428.911,521.487 431.109,523.25 433.308,524.995 435.507,526.723 437.705,528.434 439.904,530.128 442.103,531.804 444.301,533.465 446.5,535.108 448.699,536.735 450.897,538.346 453.096,539.941 455.295,541.52 457.493,543.084 459.692,544.631 461.891,546.164 464.089,547.681 466.288,549.183 468.487,550.67 470.685,552.142 472.884,553.599 475.083,555.042 477.282,556.47 479.48,557.884 481.679,559.284 483.878,560.67 486.076,562.043 488.275,563.401 490.474,564.746 492.672,566.078 494.871,567.396 497.07,568.701 499.268,569.993 501.467,571.272 503.666,572.539 505.864,573.793 508.063,575.034 510.262,576.263 512.46,577.479 514.659,578.684 516.858,579.877 519.056,581.057 521.255,582.226 523.454,583.383 525.652,584.529 527.851,585.663 530.05,586.786 532.249,587.898 534.447,588.999 536.646,590.089 538.845,591.168 541.043,592.236 543.242,593.294 545.441,594.341 547.639,595.378 549.838,596.404 552.037,597.421 554.235,598.427 556.434,599.423 558.633,600.409 560.831,601.386 563.03,602.353 565.229,603.31 567.427,604.258 569.626,605.197 571.825,606.126 574.023,607.046 576.222,607.956 578.421,608.858 580.619,609.751 582.818,610.635 585.017,611.51 587.216,612.376 589.414,613.234 591.613,614.083 593.812,614.924 596.01,615.756 598.209,616.58 600.408,617.396 602.606,618.204 604.805,619.003 607.004,619.795 609.202,620.579 611.401,621.355 613.6,622.123 615.798,622.883 617.997,623.636 620.196,624.381 622.394,625.119 624.593,625.85 626.792,626.573 628.99,627.289 631.189,627.998 633.388,628.699 635.586,629.394 637.785,630.082 639.984,630.762 642.183,631.436 644.381,632.104 646.58,632.764 648.779,633.418 650.977,634.066 653.176,634.707 655.375,635.341 657.573,635.969 659.772,636.591 661.971,637.207 664.169,637.817 666.368,638.42 668.567,639.018 670.765,639.609 672.964,640.195 675.163,640.775 677.361,641.349 679.56,641.917 681.759,642.479 683.957,643.037 686.156,643.588 688.355,644.134 690.554,644.675 692.752,645.21 694.951,645.74 697.15,646.264 699.348,646.784 701.547,647.298 703.746,647.807 705.944,648.311 708.143,648.81 710.342,649.305 712.54,649.794 714.739,650.278 716.938,650.758 719.136,651.233 721.335,651.703 723.534,652.169 725.732,652.63 727.931,653.087 730.13,653.539 732.328,653.986 734.527,654.43 736.726,654.868 738.924,655.303 741.123,655.733 743.322,656.159 745.521,656.581 747.719,656.998 749.918,657.412 752.117,657.821 754.315,658.226 756.514,658.627 758.713,659.024 760.911,659.417 763.11,659.807 765.309,660.192 767.507,660.574 769.706,660.951 771.905,661.325 774.103,661.696 776.302,662.062 778.501,662.425 780.699,662.784 782.898,663.14 785.097,663.492 787.295,663.84 789.494,664.185 791.693,664.527 793.891,664.865 796.09,665.199 798.289,665.531 800.488,665.859 802.686,666.184 804.885,666.505 807.084,666.823 809.282,667.138 811.481,667.45 813.68,667.759 815.878,668.064 818.077,668.367 820.276,668.666 822.474,668.963 824.673,669.256 826.872,669.547 829.07,669.834 831.269,670.119 833.468,670.401 835.666,670.68 837.865,670.956 840.064,671.23 842.262,671.5 844.461,671.768 846.66,672.034 848.858,672.296 851.057,672.556 853.256,672.814 855.455,673.069 857.653,673.321 859.852,673.571 862.051,673.818 864.249,674.063 866.448,674.305 868.647,674.545 870.845,674.783 873.044,675.018 875.243,675.251 877.441,675.481 879.64,675.71 881.839,675.936 884.037,676.16 886.236,676.381 888.435,676.6 890.633,676.818 892.832,677.033 895.031,677.246 897.229,677.457 899.428,677.665 901.627,677.872 903.826,678.077 906.024,678.28 908.223,678.48 910.422,678.679 912.62,678.876 914.819,679.071 917.018,679.264 919.216,679.455 921.415,679.645 923.614,679.832 925.812,680.018 928.011,680.202 930.21,680.384 932.408,680.564 934.607,680.742 936.806,680.919 939.004,681.094 941.203,681.267 943.402,681.439 945.6,681.609 947.799,681.777 949.998,681.944 952.196,682.109 954.395,682.272 956.594,682.434 958.793,682.594 960.991,682.752 963.19,682.909 965.389,683.064 967.587,683.218 969.786,683.37 971.985,683.521 974.183,683.67 976.382,683.818 978.581,683.964 980.779,684.109 982.978,684.252 985.177,684.394 987.375,684.534 989.574,684.673 991.773,684.811 993.971,684.947 996.17,685.081 998.369,685.215 1000.57,685.347 1002.77,685.478 1004.96,685.607 1007.16,685.735 1009.36,685.862 1011.56,685.988 1013.76,686.112 1015.96,686.235 1018.16,686.356 1020.36,686.477 1022.55,686.596 1024.75,686.714 1026.95,686.831 1029.15,686.947 1031.35,687.061 1033.55,687.175 1035.75,687.287 1037.95,687.398 1040.14,687.508 1042.34,687.616 1044.54,687.724 1046.74,687.831 1048.94,687.936 1051.14,688.04 1053.34,688.144 1055.53,688.246 1057.73,688.347 1059.93,688.448 1062.13,688.547 1064.33,688.645 1066.53,688.742 1068.73,688.838 1070.93,688.934 1073.12,689.028 1075.32,689.121 1077.52,689.214 1079.72,689.305 1081.92,689.396 1084.12,689.485 1086.32,689.574 1088.51,689.662 1090.71,689.749 1092.91,689.835 1095.11,689.92 1097.31,690.005 1099.51,690.088 1101.71,690.171 1103.91,690.253 1106.1,690.334 1108.3,690.415 1110.5,690.494 1112.7,690.573 1114.9,690.651 1117.1,690.728 1119.3,690.805 1121.49,690.88 1123.69,690.955 1125.89,691.03 1128.09,691.103 1130.29,691.176 1132.49,691.248 1134.69,691.32 1136.89,691.391 1139.08,691.461 1141.28,691.53 1143.48,691.599 1145.68,691.667 1147.88,691.735 1150.08,691.802 1152.28,691.868 1154.48,691.934 1156.67,691.999 1158.87,692.063 1161.07,692.127 1163.27,692.19 1165.47,692.253 1167.67,692.315 1169.87,692.376 1172.06,692.437 1174.26,692.498 1176.46,692.557 1178.66,692.616 1180.86,692.675 1183.06,692.733 1185.26,692.79 1187.46,692.847 1189.65,692.903 1191.85,692.959 1194.05,693.014 1196.25,693.068 1198.45,693.122 1200.65,693.176 1202.85,693.229 1205.04,693.281 1207.24,693.333 1209.44,693.385 1211.64,693.436 1213.84,693.486 1216.04,693.536 1218.24,693.585 1220.44,693.634 1222.63,693.682 1224.83,693.73 1227.03,693.778 1229.23,693.825 1231.43,693.871 1233.63,693.917 1235.83,693.962 1238.02,694.007 1240.22,694.052 1242.42,694.096 1244.62,694.14 1246.82,694.183 1249.02,694.226 1251.22,694.268 1253.42,694.31 1255.61,694.351 1257.81,694.392 1260.01,694.433 1262.21,694.473 1264.41,694.513 1266.61,694.552 1268.81,694.591 1271.01,694.629 1273.2,694.667 1275.4,694.705 1277.6,694.742 1279.8,694.779 1282,694.816 1284.2,694.852 1286.4,694.888 1288.59,694.923 1290.79,694.958 1292.99,694.993 1295.19,695.027 1297.39,695.061 1299.59,695.095 1301.79,695.128 1303.99,695.161 1306.18,695.193 1308.38,695.225 1310.58,695.257 1312.78,695.289 1314.98,695.32 1317.18,695.351 1319.38,695.381 1321.57,695.412 1323.77,695.441 1325.97,695.471 1328.17,695.5 1330.37,695.529 1332.57,695.558 1334.77,695.586 1336.97,695.614 1339.16,695.642 1341.36,695.67 1343.56,695.697 1345.76,695.724 1347.96,695.751 1350.16,695.777 1352.36,695.803 1354.55,695.829 1356.75,695.855 1358.95,695.88 1361.15,695.905 1363.35,695.93 1365.55,695.954 1367.75,695.979 1369.95,696.003 1372.14,696.027 1374.34,696.05 1376.54,696.074 1378.74,696.097 1380.94,696.12 1383.14,696.143 1385.34,696.165 1387.54,696.188 1389.73,696.21 1391.93,696.232 1394.13,696.253 1396.33,696.275 1398.53,696.296 1400.73,696.317 1402.93,696.338 1405.12,696.359 1407.32,696.38 1409.52,696.4 1411.72,696.42 1413.92,696.44 1416.12,696.46 1418.32,696.48 1420.52,696.5 1422.71,696.519 1424.91,696.538 1427.11,696.557 1429.31,696.576 1431.51,696.595 1433.71,696.613 1435.91,696.632 1438.1,696.65 1440.3,696.668 1442.5,696.686 1444.7,696.704 1446.9,696.721 1449.1,696.739 1451.3,696.756 1453.5,696.773 1455.69,696.79 1457.89,696.807 1460.09,696.823 1462.29,696.84 1464.49,696.856 1466.69,696.872 1468.89,696.888 1471.09,696.904 1473.28,696.92 1475.48,696.936 1477.68,696.951 1479.88,696.966 1482.08,696.981 1484.28,696.996 1486.48,697.011 1488.67,697.026 1490.87,697.04 1493.07,697.055 1495.27,697.069 1497.47,697.083 1499.67,697.097 1501.87,697.111 1504.07,697.124 1506.26,697.138 1508.46,697.151 1510.66,697.164 1512.86,697.178 1515.06,697.191 1517.26,697.203 1519.46,697.216 1521.65,697.229 1523.85,697.241 1526.05,697.253 1528.25,697.266 1530.45,697.278 1532.65,697.29 1534.85,697.301 1537.05,697.313 1539.24,697.325 1541.44,697.336 1543.64,697.347 1545.84,697.359 1548.04,697.37 1550.24,697.381 1552.44,697.391 1554.63,697.402 1556.83,697.413 1559.03,697.423 1561.23,697.434 1563.43,697.444 1565.63,697.454 1567.83,697.464 1570.03,697.474 1572.22,697.484 1574.42,697.493 1576.62,697.503 1578.82,697.512 1581.02,697.522 1583.22,697.531 1585.42,697.54 1587.62,697.549 1589.81,697.558 1592.01,697.567 1594.21,697.576 1596.41,697.584 1598.61,697.593 1600.81,697.601 1603.01,697.61 1605.2,697.618 1607.4,697.626 1609.6,697.634 1611.8,697.642 1614,697.65 1616.2,697.658 1618.4,697.665 1620.6,697.673 1622.79,697.681 1624.99,697.688 1627.19,697.695 1629.39,697.703 1631.59,697.71 1633.79,697.717 1635.99,697.724 1638.18,697.731 1640.38,697.738 1642.58,697.745 1644.78,697.751 1646.98,697.758 1649.18,697.765 1651.38,697.771 1653.58,697.777 1655.77,697.784 1657.97,697.79 1660.17,697.796 1662.37,697.802 1664.57,697.808 1666.77,697.814 1668.97,697.82 1671.16,697.826 1673.36,697.832 1675.56,697.838 1677.76,697.844 1679.96,697.849 1682.16,697.855 1684.36,697.86 1686.56,697.866 1688.75,697.871 1690.95,697.877 1693.15,697.882 1695.35,697.887 1697.55,697.892 1699.75,697.897 1701.95,697.903 1704.15,697.908 1706.34,697.913 1708.54,697.918 1710.74,697.923 1712.94,697.927 1715.14,697.932 1717.34,697.937 1719.54,697.942 1721.73,697.947 1723.93,697.951 1726.13,697.956 1728.33,697.961 1730.53,697.965 1732.73,697.97 1734.93,697.974 1737.13,697.979 1739.32,697.983 1741.52,697.988 1743.72,697.992 1745.92,697.997 1748.12,698.001 1750.32,698.005 1752.52,698.01 1754.71,698.014 1756.91,698.018 1759.11,698.023 1761.31,698.027 1763.51,698.031 1765.71,698.035 1767.91,698.039 1770.11,698.044 1772.3,698.048 1774.5,698.052 1776.7,698.056 1778.9,698.06 1781.1,698.064 1783.3,698.068 1785.5,698.072 1787.7,698.075 1789.89,698.079 1792.09,698.083 1794.29,698.087 1796.49,698.091 1798.69,698.094 1800.89,698.098 1803.09,698.102 1805.28,698.105 1807.48,698.109 1809.68,698.112 1811.88,698.116 1814.08,698.119 1816.28,698.123 1818.48,698.126 1820.68,698.13 1822.87,698.133 1825.07,698.136 1827.27,698.14 1829.47,698.143 1831.67,698.146 1833.87,698.15 1836.07,698.153 1838.26,698.156 1840.46,698.159 1842.66,698.162 1844.86,698.165 1847.06,698.168 1849.26,698.171 1851.46,698.174 1853.66,698.177 1855.85,698.18 1858.05,698.183 1860.25,698.186 1862.45,698.189 1864.65,698.191 1866.85,698.194 1869.05,698.197 1871.24,698.2 1873.44,698.202 1875.64,698.205 1877.84,698.208 1880.04,698.21 1882.24,698.213 1884.44,698.215 1886.64,698.218 1888.83,698.22 1891.03,698.223 1893.23,698.225 1895.43,698.228 1897.63,698.23 1899.83,698.232 1902.03,698.235 1904.23,698.237 1906.42,698.239 1908.62,698.241 1910.82,698.244 1913.02,698.246 1915.22,698.248 1917.42,698.25 1919.62,698.252 1921.81,698.254 1924.01,698.256 1926.21,698.258 1928.41,698.26 1930.61,698.262 1932.81,698.264 1935.01,698.266 1937.21,698.268 1939.4,698.27 1941.6,698.272 1943.8,698.273 1946,698.275 1948.2,698.277 1950.4,698.279 1952.6,698.28 1954.79,698.282 1956.99,698.284 1959.19,698.285 1961.39,698.287 1963.59,698.289 1965.79,698.29 1967.99,698.292 1970.19,698.293 1972.38,698.295 1974.58,698.296 1976.78,698.298 1978.98,698.299 1981.18,698.301 1983.38,698.302 1985.58,698.303 1987.77,698.305 1989.97,698.306 1992.17,698.307 1994.37,698.309 1996.57,698.31 1998.77,698.311 2000.97,698.313 2003.17,698.314 2005.36,698.315 2007.56,698.316 2009.76,698.317 2011.96,698.318 2014.16,698.32 2016.36,698.321 2018.56,698.322 2020.76,698.323 2022.95,698.324 2025.15,698.325 2027.35,698.326 2029.55,698.327 2031.75,698.328 2033.95,698.329 2036.15,698.33 2038.34,698.331 2040.54,698.332 2042.74,698.333 2044.94,698.334 2047.14,698.335 2049.34,698.336 2051.54,698.337 2053.74,698.337 2055.93,698.338 2058.13,698.339 2060.33,698.34 2062.53,698.341 2064.73,698.342 2066.93,698.342 2069.13,698.343 2071.32,698.344 2073.52,698.345 2075.72,698.345 2077.92,698.346 2080.12,698.347 2082.32,698.348 2084.52,698.348 2086.72,698.349 2088.91,698.35 2091.11,698.351 2093.31,698.351 2095.51,698.352 2097.71,698.353 2099.91,698.353 2102.11,698.354 2104.31,698.355 2106.5,698.355 2108.7,698.356 2110.9,698.357 2113.1,698.357 2115.3,698.358 2117.5,698.359 2119.7,698.359 2121.89,698.36 2124.09,698.361 2126.29,698.361 2128.49,698.362 2130.69,698.363 2132.89,698.363 2135.09,698.364 2137.29,698.365 2139.48,698.365 2141.68,698.366 2143.88,698.367 2146.08,698.367 2148.28,698.368 2150.48,698.369 2152.68,698.37 2154.87,698.37 2157.07,698.371 2159.27,698.372 2161.47,698.372 2163.67,698.373 2165.87,698.374 2168.07,698.374 2170.27,698.375 2172.46,698.376 2174.66,698.377 2176.86,698.377 2179.06,698.378 2181.26,698.379 2183.46,698.379 2185.66,698.38 2187.85,698.381 2190.05,698.381 2192.25,698.382 2194.45,698.383 2196.65,698.383 2198.85,698.384 2201.05,698.385 2203.25,698.385 2205.44,698.386 2207.64,698.386 2209.84,698.387 2212.04,698.388 2214.24,698.388 2216.44,698.389 2218.64,698.389 2220.84,698.39 2223.03,698.39 2225.23,698.391 2227.43,698.392 2229.63,698.392 2231.83,698.393 2234.03,698.393 2236.23,698.394 2238.42,698.394 2240.62,698.395 2242.82,698.395 2245.02,698.396 2247.22,698.396 2249.42,698.397 2251.62,698.397 2253.82,698.398 2256.01,698.398 2258.21,698.399 2260.41,698.399 2262.61,698.4 2264.81,698.4 2267.01,698.401 2269.21,698.401 2271.4,698.402 2273.6,698.402 2275.8,698.402 2278,698.403 2280.2,698.403 2282.4,698.404 2284.6,698.404 2286.8,698.405 2288.99,698.405 2291.19,698.405 2293.39,698.406 2295.59,698.406 2297.79,698.407 2299.99,698.407 2302.19,698.407 2304.38,698.408 2306.58,698.408 2308.78,698.409 2310.98,698.409 2313.18,698.409 2315.38,698.41 2317.58,698.41 2319.78,698.41 2321.97,698.411 2324.17,698.411 2326.37,698.411 2328.57,698.412 2330.77,698.412 2332.97,698.413 2335.17,698.413 2337.37,698.413 2339.56,698.414 2341.76,698.414 2343.96,698.414 2346.16,698.415 2348.36,698.415 2350.56,698.415 2352.76,698.415 "/>
<polyline clip-path="url(#clip982)" style="stroke:#e26f46; stroke-linecap:round; stroke-linejoin:round; stroke-width:4; stroke-opacity:1; fill:none" points="156.274,1384.24 158.473,1379.14 160.672,1374.08 162.87,1369.06 165.069,1364.07 167.268,1359.13 169.466,1354.23 171.665,1349.37 173.864,1344.54 176.062,1339.76 178.261,1335.01 180.46,1330.29 182.658,1325.62 184.857,1320.98 187.056,1316.38 189.254,1311.82 191.453,1307.29 193.652,1302.79 195.85,1298.34 198.049,1293.91 200.248,1289.53 202.446,1285.17 204.645,1280.85 206.844,1276.57 209.042,1272.31 211.241,1268.1 213.44,1263.91 215.639,1259.76 217.837,1255.64 220.036,1251.55 222.235,1247.49 224.433,1243.47 226.632,1239.48 228.831,1235.51 231.029,1231.58 233.228,1227.68 235.427,1223.81 237.625,1219.97 239.824,1216.16 242.023,1212.38 244.221,1208.63 246.42,1204.91 248.619,1201.22 250.817,1197.55 253.016,1193.92 255.215,1190.31 257.413,1186.73 259.612,1183.18 261.811,1179.66 264.01,1176.16 266.208,1172.69 268.407,1169.25 270.606,1165.83 272.804,1162.44 275.003,1159.08 277.202,1155.74 279.4,1152.43 281.599,1149.14 283.798,1145.88 285.996,1142.65 288.195,1139.44 290.394,1136.25 292.592,1133.09 294.791,1129.95 296.99,1126.84 299.188,1123.75 301.387,1120.68 303.586,1117.64 305.784,1114.62 307.983,1111.63 310.182,1108.65 312.38,1105.7 314.579,1102.78 316.778,1099.87 318.977,1096.99 321.175,1094.13 323.374,1091.29 325.573,1088.47 327.771,1085.67 329.97,1082.9 332.169,1080.15 334.367,1077.41 336.566,1074.7 338.765,1072.01 340.963,1069.34 343.162,1066.69 345.361,1064.06 347.559,1061.45 349.758,1058.86 351.957,1056.29 354.155,1053.74 356.354,1051.21 358.553,1048.7 360.751,1046.2 362.95,1043.73 365.149,1041.27 367.347,1038.84 369.546,1036.42 371.745,1034.02 373.944,1031.63 376.142,1029.27 378.341,1026.92 380.54,1024.59 382.738,1022.28 384.937,1019.99 387.136,1017.71 389.334,1015.45 391.533,1013.21 393.732,1010.99 395.93,1008.78 398.129,1006.58 400.328,1004.41 402.526,1002.25 404.725,1000.11 406.924,997.979 409.122,995.868 411.321,993.772 413.52,991.692 415.718,989.628 417.917,987.579 420.116,985.545 422.314,983.527 424.513,981.524 426.712,979.535 428.911,977.562 431.109,975.603 433.308,973.658 435.507,971.728 437.705,969.813 439.904,967.911 442.103,966.024 444.301,964.151 446.5,962.292 448.699,960.446 450.897,958.615 453.096,956.796 455.295,954.992 457.493,953.201 459.692,951.422 461.891,949.658 464.089,947.906 466.288,946.167 468.487,944.441 470.685,942.728 472.884,941.027 475.083,939.339 477.282,937.664 479.48,936.001 481.679,934.35 483.878,932.711 486.076,931.085 488.275,929.47 490.474,927.867 492.672,926.276 494.871,924.697 497.07,923.13 499.268,921.573 501.467,920.029 503.666,918.495 505.864,916.973 508.063,915.462 510.262,913.963 512.46,912.474 514.659,910.996 516.858,909.529 519.056,908.072 521.255,906.626 523.454,905.191 525.652,903.766 527.851,902.352 530.05,900.948 532.249,899.554 534.447,898.17 536.646,896.796 538.845,895.433 541.043,894.079 543.242,892.735 545.441,891.401 547.639,890.076 549.838,888.762 552.037,887.456 554.235,886.16 556.434,884.874 558.633,883.597 560.831,882.329 563.03,881.07 565.229,879.82 567.427,878.579 569.626,877.347 571.825,876.124 574.023,874.91 576.222,873.705 578.421,872.508 580.619,871.32 582.818,870.141 585.017,868.97 587.216,867.807 589.414,866.653 591.613,865.507 593.812,864.369 596.01,863.24 598.209,862.118 600.408,861.005 602.606,859.9 604.805,858.803 607.004,857.713 609.202,856.632 611.401,855.558 613.6,854.491 615.798,853.433 617.997,852.382 620.196,851.339 622.394,850.303 624.593,849.274 626.792,848.253 628.99,847.239 631.189,846.233 633.388,845.233 635.586,844.241 637.785,843.256 639.984,842.278 642.183,841.307 644.381,840.342 646.58,839.385 648.779,838.434 650.977,837.491 653.176,836.554 655.375,835.623 657.573,834.699 659.772,833.782 661.971,832.871 664.169,831.967 666.368,831.069 668.567,830.178 670.765,829.293 672.964,828.414 675.163,827.541 677.361,826.675 679.56,825.814 681.759,824.96 683.957,824.112 686.156,823.269 688.355,822.433 690.554,821.602 692.752,820.778 694.951,819.959 697.15,819.146 699.348,818.338 701.547,817.537 703.746,816.741 705.944,815.95 708.143,815.165 710.342,814.386 712.54,813.612 714.739,812.843 716.938,812.08 719.136,811.322 721.335,810.569 723.534,809.822 725.732,809.08 727.931,808.343 730.13,807.611 732.328,806.884 734.527,806.162 736.726,805.446 738.924,804.734 741.123,804.027 743.322,803.325 745.521,802.628 747.719,801.936 749.918,801.249 752.117,800.566 754.315,799.888 756.514,799.215 758.713,798.547 760.911,797.883 763.11,797.224 765.309,796.57 767.507,795.92 769.706,795.274 771.905,794.633 774.103,793.997 776.302,793.365 778.501,792.737 780.699,792.114 782.898,791.495 785.097,790.88 787.295,790.269 789.494,789.663 791.693,789.061 793.891,788.463 796.09,787.87 798.289,787.28 800.488,786.695 802.686,786.113 804.885,785.536 807.084,784.962 809.282,784.393 811.481,783.827 813.68,783.266 815.878,782.708 818.077,782.154 820.276,781.604 822.474,781.058 824.673,780.515 826.872,779.977 829.07,779.442 831.269,778.91 833.468,778.383 835.666,777.859 837.865,777.338 840.064,776.821 842.262,776.308 844.461,775.798 846.66,775.292 848.858,774.789 851.057,774.29 853.256,773.794 855.455,773.301 857.653,772.812 859.852,772.326 862.051,771.843 864.249,771.364 866.448,770.888 868.647,770.415 870.845,769.946 873.044,769.479 875.243,769.016 877.441,768.556 879.64,768.099 881.839,767.645 884.037,767.195 886.236,766.747 888.435,766.302 890.633,765.861 892.832,765.422 895.031,764.986 897.229,764.554 899.428,764.124 901.627,763.697 903.826,763.273 906.024,762.852 908.223,762.433 910.422,762.018 912.62,761.605 914.819,761.195 917.018,760.788 919.216,760.383 921.415,759.981 923.614,759.582 925.812,759.186 928.011,758.792 930.21,758.401 932.408,758.012 934.607,757.626 936.806,757.243 939.004,756.862 941.203,756.484 943.402,756.108 945.6,755.735 947.799,755.364 949.998,754.996 952.196,754.63 954.395,754.267 956.594,753.906 958.793,753.548 960.991,753.192 963.19,752.838 965.389,752.487 967.587,752.138 969.786,751.792 971.985,751.447 974.183,751.105 976.382,750.766 978.581,750.429 980.779,750.094 982.978,749.761 985.177,749.43 987.375,749.102 989.574,748.776 991.773,748.452 993.971,748.13 996.17,747.81 998.369,747.493 1000.57,747.178 1002.77,746.864 1004.96,746.553 1007.16,746.244 1009.36,745.937 1011.56,745.632 1013.76,745.329 1015.96,745.029 1018.16,744.73 1020.36,744.433 1022.55,744.138 1024.75,743.845 1026.95,743.554 1029.15,743.265 1031.35,742.978 1033.55,742.693 1035.75,742.41 1037.95,742.129 1040.14,741.849 1042.34,741.572 1044.54,741.296 1046.74,741.022 1048.94,740.75 1051.14,740.48 1053.34,740.212 1055.53,739.945 1057.73,739.68 1059.93,739.417 1062.13,739.156 1064.33,738.896 1066.53,738.638 1068.73,738.382 1070.93,738.127 1073.12,737.875 1075.32,737.623 1077.52,737.374 1079.72,737.126 1081.92,736.88 1084.12,736.635 1086.32,736.392 1088.51,736.151 1090.71,735.911 1092.91,735.673 1095.11,735.436 1097.31,735.201 1099.51,734.968 1101.71,734.736 1103.91,734.505 1106.1,734.276 1108.3,734.049 1110.5,733.823 1112.7,733.598 1114.9,733.375 1117.1,733.154 1119.3,732.933 1121.49,732.715 1123.69,732.497 1125.89,732.281 1128.09,732.067 1130.29,731.854 1132.49,731.642 1134.69,731.432 1136.89,731.223 1139.08,731.015 1141.28,730.809 1143.48,730.604 1145.68,730.4 1147.88,730.198 1150.08,729.996 1152.28,729.797 1154.48,729.598 1156.67,729.401 1158.87,729.205 1161.07,729.01 1163.27,728.817 1165.47,728.625 1167.67,728.434 1169.87,728.244 1172.06,728.055 1174.26,727.868 1176.46,727.682 1178.66,727.497 1180.86,727.313 1183.06,727.131 1185.26,726.95 1187.46,726.769 1189.65,726.59 1191.85,726.413 1194.05,726.236 1196.25,726.06 1198.45,725.886 1200.65,725.713 1202.85,725.541 1205.04,725.37 1207.24,725.2 1209.44,725.031 1211.64,724.863 1213.84,724.697 1216.04,724.531 1218.24,724.367 1220.44,724.203 1222.63,724.041 1224.83,723.88 1227.03,723.72 1229.23,723.56 1231.43,723.402 1233.63,723.245 1235.83,723.089 1238.02,722.934 1240.22,722.78 1242.42,722.627 1244.62,722.475 1246.82,722.324 1249.02,722.174 1251.22,722.025 1253.42,721.877 1255.61,721.73 1257.81,721.583 1260.01,721.438 1262.21,721.294 1264.41,721.151 1266.61,721.008 1268.81,720.867 1271.01,720.726 1273.2,720.586 1275.4,720.448 1277.6,720.31 1279.8,720.173 1282,720.037 1284.2,719.902 1286.4,719.767 1288.59,719.634 1290.79,719.502 1292.99,719.37 1295.19,719.239 1297.39,719.109 1299.59,718.98 1301.79,718.852 1303.99,718.724 1306.18,718.598 1308.38,718.472 1310.58,718.347 1312.78,718.223 1314.98,718.099 1317.18,717.977 1319.38,717.855 1321.57,717.734 1323.77,717.614 1325.97,717.494 1328.17,717.376 1330.37,717.258 1332.57,717.141 1334.77,717.024 1336.97,716.908 1339.16,716.794 1341.36,716.679 1343.56,716.566 1345.76,716.453 1347.96,716.341 1350.16,716.23 1352.36,716.119 1354.55,716.01 1356.75,715.9 1358.95,715.792 1361.15,715.684 1363.35,715.577 1365.55,715.471 1367.75,715.365 1369.95,715.26 1372.14,715.156 1374.34,715.052 1376.54,714.949 1378.74,714.846 1380.94,714.745 1383.14,714.643 1385.34,714.543 1387.54,714.443 1389.73,714.344 1391.93,714.245 1394.13,714.147 1396.33,714.05 1398.53,713.953 1400.73,713.857 1402.93,713.761 1405.12,713.666 1407.32,713.572 1409.52,713.478 1411.72,713.385 1413.92,713.292 1416.12,713.2 1418.32,713.108 1420.52,713.017 1422.71,712.927 1424.91,712.837 1427.11,712.748 1429.31,712.659 1431.51,712.571 1433.71,712.483 1435.91,712.396 1438.1,712.309 1440.3,712.223 1442.5,712.138 1444.7,712.053 1446.9,711.968 1449.1,711.884 1451.3,711.801 1453.5,711.718 1455.69,711.636 1457.89,711.554 1460.09,711.472 1462.29,711.392 1464.49,711.311 1466.69,711.231 1468.89,711.152 1471.09,711.073 1473.28,710.995 1475.48,710.917 1477.68,710.84 1479.88,710.763 1482.08,710.686 1484.28,710.61 1486.48,710.535 1488.67,710.46 1490.87,710.385 1493.07,710.311 1495.27,710.238 1497.47,710.165 1499.67,710.092 1501.87,710.02 1504.07,709.948 1506.26,709.877 1508.46,709.806 1510.66,709.736 1512.86,709.666 1515.06,709.596 1517.26,709.527 1519.46,709.459 1521.65,709.39 1523.85,709.323 1526.05,709.255 1528.25,709.189 1530.45,709.122 1532.65,709.056 1534.85,708.99 1537.05,708.925 1539.24,708.861 1541.44,708.796 1543.64,708.732 1545.84,708.669 1548.04,708.606 1550.24,708.543 1552.44,708.481 1554.63,708.419 1556.83,708.357 1559.03,708.296 1561.23,708.235 1563.43,708.175 1565.63,708.115 1567.83,708.055 1570.03,707.996 1572.22,707.937 1574.42,707.879 1576.62,707.821 1578.82,707.763 1581.02,707.706 1583.22,707.649 1585.42,707.592 1587.62,707.536 1589.81,707.48 1592.01,707.425 1594.21,707.369 1596.41,707.315 1598.61,707.26 1600.81,707.206 1603.01,707.152 1605.2,707.099 1607.4,707.046 1609.6,706.993 1611.8,706.941 1614,706.889 1616.2,706.837 1618.4,706.785 1620.6,706.734 1622.79,706.684 1624.99,706.633 1627.19,706.583 1629.39,706.533 1631.59,706.484 1633.79,706.435 1635.99,706.386 1638.18,706.337 1640.38,706.289 1642.58,706.241 1644.78,706.194 1646.98,706.146 1649.18,706.099 1651.38,706.053 1653.58,706.006 1655.77,705.96 1657.97,705.914 1660.17,705.869 1662.37,705.823 1664.57,705.778 1666.77,705.734 1668.97,705.689 1671.16,705.645 1673.36,705.601 1675.56,705.558 1677.76,705.514 1679.96,705.471 1682.16,705.429 1684.36,705.386 1686.56,705.344 1688.75,705.302 1690.95,705.26 1693.15,705.219 1695.35,705.177 1697.55,705.136 1699.75,705.096 1701.95,705.055 1704.15,705.015 1706.34,704.975 1708.54,704.935 1710.74,704.896 1712.94,704.857 1715.14,704.818 1717.34,704.779 1719.54,704.74 1721.73,704.702 1723.93,704.664 1726.13,704.626 1728.33,704.588 1730.53,704.551 1732.73,704.514 1734.93,704.477 1737.13,704.44 1739.32,704.403 1741.52,704.367 1743.72,704.331 1745.92,704.295 1748.12,704.259 1750.32,704.224 1752.52,704.189 1754.71,704.154 1756.91,704.119 1759.11,704.084 1761.31,704.05 1763.51,704.015 1765.71,703.981 1767.91,703.947 1770.11,703.914 1772.3,703.88 1774.5,703.847 1776.7,703.814 1778.9,703.781 1781.1,703.748 1783.3,703.716 1785.5,703.684 1787.7,703.651 1789.89,703.619 1792.09,703.588 1794.29,703.556 1796.49,703.525 1798.69,703.494 1800.89,703.463 1803.09,703.432 1805.28,703.401 1807.48,703.371 1809.68,703.341 1811.88,703.311 1814.08,703.281 1816.28,703.251 1818.48,703.222 1820.68,703.192 1822.87,703.163 1825.07,703.134 1827.27,703.105 1829.47,703.077 1831.67,703.048 1833.87,703.02 1836.07,702.992 1838.26,702.964 1840.46,702.936 1842.66,702.909 1844.86,702.881 1847.06,702.854 1849.26,702.827 1851.46,702.8 1853.66,702.773 1855.85,702.747 1858.05,702.72 1860.25,702.694 1862.45,702.668 1864.65,702.642 1866.85,702.617 1869.05,702.591 1871.24,702.565 1873.44,702.54 1875.64,702.515 1877.84,702.49 1880.04,702.465 1882.24,702.441 1884.44,702.416 1886.64,702.392 1888.83,702.368 1891.03,702.344 1893.23,702.32 1895.43,702.296 1897.63,702.273 1899.83,702.249 1902.03,702.226 1904.23,702.203 1906.42,702.18 1908.62,702.157 1910.82,702.134 1913.02,702.112 1915.22,702.089 1917.42,702.067 1919.62,702.045 1921.81,702.023 1924.01,702.001 1926.21,701.979 1928.41,701.958 1930.61,701.936 1932.81,701.915 1935.01,701.894 1937.21,701.873 1939.4,701.852 1941.6,701.831 1943.8,701.811 1946,701.79 1948.2,701.77 1950.4,701.75 1952.6,701.73 1954.79,701.71 1956.99,701.69 1959.19,701.67 1961.39,701.651 1963.59,701.631 1965.79,701.612 1967.99,701.593 1970.19,701.574 1972.38,701.555 1974.58,701.536 1976.78,701.517 1978.98,701.499 1981.18,701.48 1983.38,701.462 1985.58,701.444 1987.77,701.426 1989.97,701.408 1992.17,701.39 1994.37,701.372 1996.57,701.354 1998.77,701.337 2000.97,701.319 2003.17,701.302 2005.36,701.285 2007.56,701.268 2009.76,701.251 2011.96,701.234 2014.16,701.217 2016.36,701.2 2018.56,701.184 2020.76,701.167 2022.95,701.151 2025.15,701.135 2027.35,701.119 2029.55,701.103 2031.75,701.087 2033.95,701.071 2036.15,701.055 2038.34,701.04 2040.54,701.024 2042.74,701.009 2044.94,700.993 2047.14,700.978 2049.34,700.963 2051.54,700.948 2053.74,700.933 2055.93,700.918 2058.13,700.903 2060.33,700.889 2062.53,700.874 2064.73,700.86 2066.93,700.845 2069.13,700.831 2071.32,700.817 2073.52,700.803 2075.72,700.788 2077.92,700.775 2080.12,700.761 2082.32,700.747 2084.52,700.733 2086.72,700.72 2088.91,700.706 2091.11,700.692 2093.31,700.679 2095.51,700.666 2097.71,700.653 2099.91,700.639 2102.11,700.626 2104.31,700.613 2106.5,700.6 2108.7,700.588 2110.9,700.575 2113.1,700.562 2115.3,700.549 2117.5,700.537 2119.7,700.524 2121.89,700.512 2124.09,700.5 2126.29,700.487 2128.49,700.475 2130.69,700.463 2132.89,700.451 2135.09,700.439 2137.29,700.427 2139.48,700.415 2141.68,700.403 2143.88,700.392 2146.08,700.38 2148.28,700.368 2150.48,700.357 2152.68,700.345 2154.87,700.334 2157.07,700.323 2159.27,700.311 2161.47,700.3 2163.67,700.289 2165.87,700.278 2168.07,700.267 2170.27,700.256 2172.46,700.245 2174.66,700.234 2176.86,700.223 2179.06,700.212 2181.26,700.201 2183.46,700.191 2185.66,700.18 2187.85,700.17 2190.05,700.159 2192.25,700.149 2194.45,700.139 2196.65,700.128 2198.85,700.118 2201.05,700.108 2203.25,700.098 2205.44,700.088 2207.64,700.078 2209.84,700.068 2212.04,700.059 2214.24,700.049 2216.44,700.039 2218.64,700.029 2220.84,700.02 2223.03,700.01 2225.23,700.001 2227.43,699.991 2229.63,699.982 2231.83,699.973 2234.03,699.964 2236.23,699.954 2238.42,699.945 2240.62,699.936 2242.82,699.927 2245.02,699.918 2247.22,699.909 2249.42,699.901 2251.62,699.892 2253.82,699.883 2256.01,699.874 2258.21,699.866 2260.41,699.857 2262.61,699.849 2264.81,699.84 2267.01,699.832 2269.21,699.823 2271.4,699.815 2273.6,699.807 2275.8,699.799 2278,699.79 2280.2,699.782 2282.4,699.774 2284.6,699.766 2286.8,699.758 2288.99,699.75 2291.19,699.742 2293.39,699.735 2295.59,699.727 2297.79,699.719 2299.99,699.711 2302.19,699.704 2304.38,699.696 2306.58,699.689 2308.78,699.681 2310.98,699.674 2313.18,699.666 2315.38,699.659 2317.58,699.652 2319.78,699.644 2321.97,699.637 2324.17,699.63 2326.37,699.623 2328.57,699.616 2330.77,699.609 2332.97,699.602 2335.17,699.595 2337.37,699.588 2339.56,699.581 2341.76,699.574 2343.96,699.567 2346.16,699.56 2348.36,699.554 2350.56,699.547 2352.76,699.54 "/>
<path clip-path="url(#clip980)" d="M1800.49 248.629 L2279.54 248.629 L2279.54 93.1086 L1800.49 93.1086  Z" fill="#ffffff" fill-rule="evenodd" fill-opacity="1"/>
<polyline clip-path="url(#clip980)" style="stroke:#000000; stroke-linecap:round; stroke-linejoin:round; stroke-width:4; stroke-opacity:1; fill:none" points="1800.49,248.629 2279.54,248.629 2279.54,93.1086 1800.49,93.1086 1800.49,248.629 "/>
<polyline clip-path="url(#clip980)" style="stroke:#009af9; stroke-linecap:round; stroke-linejoin:round; stroke-width:4; stroke-opacity:1; fill:none" points="1824.9,144.949 1971.33,144.949 "/>
<path clip-path="url(#clip980)" d="M1995.74 136.303 L2000.25 136.303 L2008.35 158.062 L2016.46 136.303 L2020.97 136.303 L2011.25 162.229 L2005.46 162.229 L1995.74 136.303 Z" fill="#000000" fill-rule="nonzero" fill-opacity="1" /><path clip-path="url(#clip980)" d="M2028.26 158.293 L2035.9 158.293 L2035.9 131.928 L2027.59 133.595 L2027.59 129.335 L2035.85 127.669 L2040.53 127.669 L2040.53 158.293 L2048.17 158.293 L2048.17 162.229 L2028.26 162.229 L2028.26 158.293 Z" fill="#000000" fill-rule="nonzero" fill-opacity="1" /><path clip-path="url(#clip980)" d="M2066.27 145.585 L2066.27 152.807 L2074.39 152.807 L2074.39 155.006 L2066.27 155.006 L2066.27 162.229 L2063.84 162.229 L2063.84 155.006 L2055.71 155.006 L2055.71 152.807 L2063.84 152.807 L2063.84 145.585 L2066.27 145.585 Z" fill="#000000" fill-rule="nonzero" fill-opacity="1" /><path clip-path="url(#clip980)" d="M2098.56 137.067 L2098.56 141.094 Q2096.76 140.169 2094.81 139.706 Q2092.87 139.243 2090.78 139.243 Q2087.61 139.243 2086.02 140.215 Q2084.44 141.187 2084.44 143.131 Q2084.44 144.613 2085.58 145.469 Q2086.71 146.303 2090.14 147.067 L2091.59 147.391 Q2096.13 148.363 2098.03 150.145 Q2099.95 151.905 2099.95 155.076 Q2099.95 158.687 2097.08 160.793 Q2094.23 162.9 2089.23 162.9 Q2087.15 162.9 2084.88 162.483 Q2082.64 162.09 2080.14 161.28 L2080.14 156.881 Q2082.5 158.108 2084.79 158.733 Q2087.08 159.335 2089.33 159.335 Q2092.33 159.335 2093.95 158.317 Q2095.58 157.275 2095.58 155.4 Q2095.58 153.664 2094.39 152.738 Q2093.24 151.812 2089.28 150.956 L2087.8 150.608 Q2083.84 149.775 2082.08 148.062 Q2080.32 146.326 2080.32 143.317 Q2080.32 139.659 2082.91 137.669 Q2085.51 135.678 2090.27 135.678 Q2092.64 135.678 2094.72 136.025 Q2096.8 136.372 2098.56 137.067 Z" fill="#000000" fill-rule="nonzero" fill-opacity="1" /><path clip-path="url(#clip980)" d="M2110.95 128.942 L2110.95 136.303 L2119.72 136.303 L2119.72 139.613 L2110.95 139.613 L2110.95 153.687 Q2110.95 156.858 2111.8 157.761 Q2112.68 158.664 2115.34 158.664 L2119.72 158.664 L2119.72 162.229 L2115.34 162.229 Q2110.41 162.229 2108.54 160.4 Q2106.66 158.548 2106.66 153.687 L2106.66 139.613 L2103.54 139.613 L2103.54 136.303 L2106.66 136.303 L2106.66 128.942 L2110.95 128.942 Z" fill="#000000" fill-rule="nonzero" fill-opacity="1" /><path clip-path="url(#clip980)" d="M2135.37 139.289 Q2131.94 139.289 2129.95 141.974 Q2127.96 144.636 2127.96 149.289 Q2127.96 153.942 2129.93 156.627 Q2131.92 159.289 2135.37 159.289 Q2138.77 159.289 2140.76 156.604 Q2142.75 153.918 2142.75 149.289 Q2142.75 144.682 2140.76 141.997 Q2138.77 139.289 2135.37 139.289 M2135.37 135.678 Q2140.92 135.678 2144.09 139.289 Q2147.26 142.9 2147.26 149.289 Q2147.26 155.655 2144.09 159.289 Q2140.92 162.9 2135.37 162.9 Q2129.79 162.9 2126.62 159.289 Q2123.47 155.655 2123.47 149.289 Q2123.47 142.9 2126.62 139.289 Q2129.79 135.678 2135.37 135.678 Z" fill="#000000" fill-rule="nonzero" fill-opacity="1" /><path clip-path="url(#clip980)" d="M2169.35 140.284 Q2168.63 139.868 2167.77 139.682 Q2166.94 139.474 2165.92 139.474 Q2162.31 139.474 2160.37 141.835 Q2158.45 144.173 2158.45 148.571 L2158.45 162.229 L2154.16 162.229 L2154.16 136.303 L2158.45 136.303 L2158.45 140.331 Q2159.79 137.969 2161.94 136.835 Q2164.09 135.678 2167.17 135.678 Q2167.61 135.678 2168.14 135.747 Q2168.68 135.794 2169.32 135.909 L2169.35 140.284 Z" fill="#000000" fill-rule="nonzero" fill-opacity="1" /><path clip-path="url(#clip980)" d="M2185.6 149.196 Q2180.44 149.196 2178.45 150.377 Q2176.45 151.557 2176.45 154.405 Q2176.45 156.673 2177.94 158.016 Q2179.44 159.335 2182.01 159.335 Q2185.55 159.335 2187.68 156.835 Q2189.83 154.312 2189.83 150.145 L2189.83 149.196 L2185.6 149.196 M2194.09 147.437 L2194.09 162.229 L2189.83 162.229 L2189.83 158.293 Q2188.38 160.655 2186.2 161.789 Q2184.02 162.9 2180.88 162.9 Q2176.89 162.9 2174.53 160.678 Q2172.2 158.432 2172.2 154.682 Q2172.2 150.307 2175.11 148.085 Q2178.05 145.863 2183.86 145.863 L2189.83 145.863 L2189.83 145.446 Q2189.83 142.507 2187.89 140.909 Q2185.97 139.289 2182.47 139.289 Q2180.25 139.289 2178.14 139.821 Q2176.04 140.354 2174.09 141.419 L2174.09 137.483 Q2176.43 136.581 2178.63 136.141 Q2180.83 135.678 2182.91 135.678 Q2188.54 135.678 2191.32 138.594 Q2194.09 141.511 2194.09 147.437 Z" fill="#000000" fill-rule="nonzero" fill-opacity="1" /><path clip-path="url(#clip980)" d="M2219.93 148.965 Q2219.93 144.335 2218.01 141.789 Q2216.11 139.243 2212.66 139.243 Q2209.23 139.243 2207.31 141.789 Q2205.41 144.335 2205.41 148.965 Q2205.41 153.571 2207.31 156.118 Q2209.23 158.664 2212.66 158.664 Q2216.11 158.664 2218.01 156.118 Q2219.93 153.571 2219.93 148.965 M2224.19 159.011 Q2224.19 165.631 2221.25 168.849 Q2218.31 172.09 2212.24 172.09 Q2210 172.09 2208.01 171.742 Q2206.01 171.418 2204.14 170.724 L2204.14 166.58 Q2206.01 167.599 2207.84 168.085 Q2209.67 168.571 2211.57 168.571 Q2215.76 168.571 2217.84 166.372 Q2219.93 164.196 2219.93 159.775 L2219.93 157.668 Q2218.61 159.96 2216.55 161.094 Q2214.49 162.229 2211.62 162.229 Q2206.85 162.229 2203.93 158.594 Q2201.01 154.96 2201.01 148.965 Q2201.01 142.946 2203.93 139.312 Q2206.85 135.678 2211.62 135.678 Q2214.49 135.678 2216.55 136.812 Q2218.61 137.946 2219.93 140.238 L2219.93 136.303 L2224.19 136.303 L2224.19 159.011 Z" fill="#000000" fill-rule="nonzero" fill-opacity="1" /><path clip-path="url(#clip980)" d="M2255.13 148.201 L2255.13 150.284 L2235.55 150.284 Q2235.83 154.682 2238.19 156.997 Q2240.57 159.289 2244.81 159.289 Q2247.26 159.289 2249.56 158.687 Q2251.87 158.085 2254.14 156.881 L2254.14 160.909 Q2251.85 161.881 2249.44 162.391 Q2247.03 162.9 2244.56 162.9 Q2238.35 162.9 2234.72 159.289 Q2231.11 155.678 2231.11 149.52 Q2231.11 143.155 2234.53 139.428 Q2237.98 135.678 2243.82 135.678 Q2249.05 135.678 2252.08 139.057 Q2255.13 142.414 2255.13 148.201 M2250.88 146.951 Q2250.83 143.456 2248.91 141.372 Q2247.01 139.289 2243.86 139.289 Q2240.3 139.289 2238.14 141.303 Q2236.01 143.317 2235.69 146.974 L2250.88 146.951 Z" fill="#000000" fill-rule="nonzero" fill-opacity="1" /><polyline clip-path="url(#clip980)" style="stroke:#e26f46; stroke-linecap:round; stroke-linejoin:round; stroke-width:4; stroke-opacity:1; fill:none" points="1824.9,196.789 1971.33,196.789 "/>
<path clip-path="url(#clip980)" d="M1995.74 188.143 L2000.25 188.143 L2008.35 209.902 L2016.46 188.143 L2020.97 188.143 L2011.25 214.069 L2005.46 214.069 L1995.74 188.143 Z" fill="#000000" fill-rule="nonzero" fill-opacity="1" /><path clip-path="url(#clip980)" d="M2027.5 179.509 L2045.85 179.509 L2045.85 183.444 L2031.78 183.444 L2031.78 191.916 Q2032.8 191.569 2033.82 191.407 Q2034.83 191.222 2035.85 191.222 Q2041.64 191.222 2045.02 194.393 Q2048.4 197.564 2048.4 202.981 Q2048.4 208.559 2044.93 211.661 Q2041.46 214.74 2035.14 214.74 Q2032.96 214.74 2030.69 214.37 Q2028.45 213.999 2026.04 213.258 L2026.04 208.559 Q2028.12 209.694 2030.34 210.249 Q2032.57 210.805 2035.04 210.805 Q2039.05 210.805 2041.39 208.698 Q2043.72 206.592 2043.72 202.981 Q2043.72 199.37 2041.39 197.263 Q2039.05 195.157 2035.04 195.157 Q2033.17 195.157 2031.29 195.573 Q2029.44 195.99 2027.5 196.87 L2027.5 179.509 Z" fill="#000000" fill-rule="nonzero" fill-opacity="1" /><path clip-path="url(#clip980)" d="M2066.27 197.425 L2066.27 204.647 L2074.39 204.647 L2074.39 206.846 L2066.27 206.846 L2066.27 214.069 L2063.84 214.069 L2063.84 206.846 L2055.71 206.846 L2055.71 204.647 L2063.84 204.647 L2063.84 197.425 L2066.27 197.425 Z" fill="#000000" fill-rule="nonzero" fill-opacity="1" /><path clip-path="url(#clip980)" d="M2098.56 188.907 L2098.56 192.934 Q2096.76 192.009 2094.81 191.546 Q2092.87 191.083 2090.78 191.083 Q2087.61 191.083 2086.02 192.055 Q2084.44 193.027 2084.44 194.971 Q2084.44 196.453 2085.58 197.309 Q2086.71 198.143 2090.14 198.907 L2091.59 199.231 Q2096.13 200.203 2098.03 201.985 Q2099.95 203.745 2099.95 206.916 Q2099.95 210.527 2097.08 212.633 Q2094.23 214.74 2089.23 214.74 Q2087.15 214.74 2084.88 214.323 Q2082.64 213.93 2080.14 213.12 L2080.14 208.721 Q2082.5 209.948 2084.79 210.573 Q2087.08 211.175 2089.33 211.175 Q2092.33 211.175 2093.95 210.157 Q2095.58 209.115 2095.58 207.24 Q2095.58 205.504 2094.39 204.578 Q2093.24 203.652 2089.28 202.796 L2087.8 202.448 Q2083.84 201.615 2082.08 199.902 Q2080.32 198.166 2080.32 195.157 Q2080.32 191.499 2082.91 189.509 Q2085.51 187.518 2090.27 187.518 Q2092.64 187.518 2094.72 187.865 Q2096.8 188.212 2098.56 188.907 Z" fill="#000000" fill-rule="nonzero" fill-opacity="1" /><path clip-path="url(#clip980)" d="M2110.95 180.782 L2110.95 188.143 L2119.72 188.143 L2119.72 191.453 L2110.95 191.453 L2110.95 205.527 Q2110.95 208.698 2111.8 209.601 Q2112.68 210.504 2115.34 210.504 L2119.72 210.504 L2119.72 214.069 L2115.34 214.069 Q2110.41 214.069 2108.54 212.24 Q2106.66 210.388 2106.66 205.527 L2106.66 191.453 L2103.54 191.453 L2103.54 188.143 L2106.66 188.143 L2106.66 180.782 L2110.95 180.782 Z" fill="#000000" fill-rule="nonzero" fill-opacity="1" /><path clip-path="url(#clip980)" d="M2135.37 191.129 Q2131.94 191.129 2129.95 193.814 Q2127.96 196.476 2127.96 201.129 Q2127.96 205.782 2129.93 208.467 Q2131.92 211.129 2135.37 211.129 Q2138.77 211.129 2140.76 208.444 Q2142.75 205.758 2142.75 201.129 Q2142.75 196.522 2140.76 193.837 Q2138.77 191.129 2135.37 191.129 M2135.37 187.518 Q2140.92 187.518 2144.09 191.129 Q2147.26 194.74 2147.26 201.129 Q2147.26 207.495 2144.09 211.129 Q2140.92 214.74 2135.37 214.74 Q2129.79 214.74 2126.62 211.129 Q2123.47 207.495 2123.47 201.129 Q2123.47 194.74 2126.62 191.129 Q2129.79 187.518 2135.37 187.518 Z" fill="#000000" fill-rule="nonzero" fill-opacity="1" /><path clip-path="url(#clip980)" d="M2169.35 192.124 Q2168.63 191.708 2167.77 191.522 Q2166.94 191.314 2165.92 191.314 Q2162.31 191.314 2160.37 193.675 Q2158.45 196.013 2158.45 200.411 L2158.45 214.069 L2154.16 214.069 L2154.16 188.143 L2158.45 188.143 L2158.45 192.171 Q2159.79 189.809 2161.94 188.675 Q2164.09 187.518 2167.17 187.518 Q2167.61 187.518 2168.14 187.587 Q2168.68 187.634 2169.32 187.749 L2169.35 192.124 Z" fill="#000000" fill-rule="nonzero" fill-opacity="1" /><path clip-path="url(#clip980)" d="M2185.6 201.036 Q2180.44 201.036 2178.45 202.217 Q2176.45 203.397 2176.45 206.245 Q2176.45 208.513 2177.94 209.856 Q2179.44 211.175 2182.01 211.175 Q2185.55 211.175 2187.68 208.675 Q2189.83 206.152 2189.83 201.985 L2189.83 201.036 L2185.6 201.036 M2194.09 199.277 L2194.09 214.069 L2189.83 214.069 L2189.83 210.133 Q2188.38 212.495 2186.2 213.629 Q2184.02 214.74 2180.88 214.74 Q2176.89 214.74 2174.53 212.518 Q2172.2 210.272 2172.2 206.522 Q2172.2 202.147 2175.11 199.925 Q2178.05 197.703 2183.86 197.703 L2189.83 197.703 L2189.83 197.286 Q2189.83 194.347 2187.89 192.749 Q2185.97 191.129 2182.47 191.129 Q2180.25 191.129 2178.14 191.661 Q2176.04 192.194 2174.09 193.259 L2174.09 189.323 Q2176.43 188.421 2178.63 187.981 Q2180.83 187.518 2182.91 187.518 Q2188.54 187.518 2191.32 190.434 Q2194.09 193.351 2194.09 199.277 Z" fill="#000000" fill-rule="nonzero" fill-opacity="1" /><path clip-path="url(#clip980)" d="M2219.93 200.805 Q2219.93 196.175 2218.01 193.629 Q2216.11 191.083 2212.66 191.083 Q2209.23 191.083 2207.31 193.629 Q2205.41 196.175 2205.41 200.805 Q2205.41 205.411 2207.31 207.958 Q2209.23 210.504 2212.66 210.504 Q2216.11 210.504 2218.01 207.958 Q2219.93 205.411 2219.93 200.805 M2224.19 210.851 Q2224.19 217.471 2221.25 220.689 Q2218.31 223.93 2212.24 223.93 Q2210 223.93 2208.01 223.582 Q2206.01 223.258 2204.14 222.564 L2204.14 218.42 Q2206.01 219.439 2207.84 219.925 Q2209.67 220.411 2211.57 220.411 Q2215.76 220.411 2217.84 218.212 Q2219.93 216.036 2219.93 211.615 L2219.93 209.508 Q2218.61 211.8 2216.55 212.934 Q2214.49 214.069 2211.62 214.069 Q2206.85 214.069 2203.93 210.434 Q2201.01 206.8 2201.01 200.805 Q2201.01 194.786 2203.93 191.152 Q2206.85 187.518 2211.62 187.518 Q2214.49 187.518 2216.55 188.652 Q2218.61 189.786 2219.93 192.078 L2219.93 188.143 L2224.19 188.143 L2224.19 210.851 Z" fill="#000000" fill-rule="nonzero" fill-opacity="1" /><path clip-path="url(#clip980)" d="M2255.13 200.041 L2255.13 202.124 L2235.55 202.124 Q2235.83 206.522 2238.19 208.837 Q2240.57 211.129 2244.81 211.129 Q2247.26 211.129 2249.56 210.527 Q2251.87 209.925 2254.14 208.721 L2254.14 212.749 Q2251.85 213.721 2249.44 214.231 Q2247.03 214.74 2244.56 214.74 Q2238.35 214.74 2234.72 211.129 Q2231.11 207.518 2231.11 201.36 Q2231.11 194.995 2234.53 191.268 Q2237.98 187.518 2243.82 187.518 Q2249.05 187.518 2252.08 190.897 Q2255.13 194.254 2255.13 200.041 M2250.88 198.791 Q2250.83 195.296 2248.91 193.212 Q2247.01 191.129 2243.86 191.129 Q2240.3 191.129 2238.14 193.143 Q2236.01 195.157 2235.69 198.814 L2250.88 198.791 Z" fill="#000000" fill-rule="nonzero" fill-opacity="1" /></svg>
