<?xml version="1.0" encoding="utf-8"?>
<svg xmlns="http://www.w3.org/2000/svg" xmlns:xlink="http://www.w3.org/1999/xlink" width="600" height="400" viewBox="0 0 2400 1600">
<defs>
  <clipPath id="clip270">
    <rect x="0" y="0" width="2400" height="1600"/>
  </clipPath>
</defs>
<path clip-path="url(#clip270)" d="M0 1600 L2400 1600 L2400 0 L0 0  Z" fill="#ffffff" fill-rule="evenodd" fill-opacity="1"/>
<defs>
  <clipPath id="clip271">
    <rect x="480" y="0" width="1681" height="1600"/>
  </clipPath>
</defs>
<path clip-path="url(#clip270)" d="M193.936 1423.18 L2352.76 1423.18 L2352.76 47.2441 L193.936 47.2441  Z" fill="#ffffff" fill-rule="evenodd" fill-opacity="1"/>
<defs>
  <clipPath id="clip272">
    <rect x="193" y="47" width="2160" height="1377"/>
  </clipPath>
</defs>
<polyline clip-path="url(#clip272)" style="stroke:#000000; stroke-linecap:round; stroke-linejoin:round; stroke-width:2; stroke-opacity:0.1; fill:none" points="193.936,1423.18 193.936,47.2441 "/>
<polyline clip-path="url(#clip272)" style="stroke:#000000; stroke-linecap:round; stroke-linejoin:round; stroke-width:2; stroke-opacity:0.1; fill:none" points="733.641,1423.18 733.641,47.2441 "/>
<polyline clip-path="url(#clip272)" style="stroke:#000000; stroke-linecap:round; stroke-linejoin:round; stroke-width:2; stroke-opacity:0.1; fill:none" points="1273.35,1423.18 1273.35,47.2441 "/>
<polyline clip-path="url(#clip272)" style="stroke:#000000; stroke-linecap:round; stroke-linejoin:round; stroke-width:2; stroke-opacity:0.1; fill:none" points="1813.05,1423.18 1813.05,47.2441 "/>
<polyline clip-path="url(#clip272)" style="stroke:#000000; stroke-linecap:round; stroke-linejoin:round; stroke-width:2; stroke-opacity:0.1; fill:none" points="2352.76,1423.18 2352.76,47.2441 "/>
<polyline clip-path="url(#clip272)" style="stroke:#000000; stroke-linecap:round; stroke-linejoin:round; stroke-width:2; stroke-opacity:0.1; fill:none" points="193.936,1242.16 2352.76,1242.16 "/>
<polyline clip-path="url(#clip272)" style="stroke:#000000; stroke-linecap:round; stroke-linejoin:round; stroke-width:2; stroke-opacity:0.1; fill:none" points="193.936,988.309 2352.76,988.309 "/>
<polyline clip-path="url(#clip272)" style="stroke:#000000; stroke-linecap:round; stroke-linejoin:round; stroke-width:2; stroke-opacity:0.1; fill:none" points="193.936,734.462 2352.76,734.462 "/>
<polyline clip-path="url(#clip272)" style="stroke:#000000; stroke-linecap:round; stroke-linejoin:round; stroke-width:2; stroke-opacity:0.1; fill:none" points="193.936,480.615 2352.76,480.615 "/>
<polyline clip-path="url(#clip272)" style="stroke:#000000; stroke-linecap:round; stroke-linejoin:round; stroke-width:2; stroke-opacity:0.1; fill:none" points="193.936,226.768 2352.76,226.768 "/>
<polyline clip-path="url(#clip270)" style="stroke:#000000; stroke-linecap:round; stroke-linejoin:round; stroke-width:4; stroke-opacity:1; fill:none" points="193.936,1423.18 2352.76,1423.18 "/>
<polyline clip-path="url(#clip270)" style="stroke:#000000; stroke-linecap:round; stroke-linejoin:round; stroke-width:4; stroke-opacity:1; fill:none" points="193.936,1423.18 193.936,1404.28 "/>
<polyline clip-path="url(#clip270)" style="stroke:#000000; stroke-linecap:round; stroke-linejoin:round; stroke-width:4; stroke-opacity:1; fill:none" points="733.641,1423.18 733.641,1404.28 "/>
<polyline clip-path="url(#clip270)" style="stroke:#000000; stroke-linecap:round; stroke-linejoin:round; stroke-width:4; stroke-opacity:1; fill:none" points="1273.35,1423.18 1273.35,1404.28 "/>
<polyline clip-path="url(#clip270)" style="stroke:#000000; stroke-linecap:round; stroke-linejoin:round; stroke-width:4; stroke-opacity:1; fill:none" points="1813.05,1423.18 1813.05,1404.28 "/>
<polyline clip-path="url(#clip270)" style="stroke:#000000; stroke-linecap:round; stroke-linejoin:round; stroke-width:4; stroke-opacity:1; fill:none" points="2352.76,1423.18 2352.76,1404.28 "/>
<path clip-path="url(#clip270)" d="M171.32 1454.1 Q167.709 1454.1 165.881 1457.66 Q164.075 1461.2 164.075 1468.33 Q164.075 1475.44 165.881 1479.01 Q167.709 1482.55 171.32 1482.55 Q174.955 1482.55 176.76 1479.01 Q178.589 1475.44 178.589 1468.33 Q178.589 1461.2 176.76 1457.66 Q174.955 1454.1 171.32 1454.1 M171.32 1450.39 Q177.131 1450.39 180.186 1455 Q183.265 1459.58 183.265 1468.33 Q183.265 1477.06 180.186 1481.67 Q177.131 1486.25 171.32 1486.25 Q165.51 1486.25 162.432 1481.67 Q159.376 1477.06 159.376 1468.33 Q159.376 1459.58 162.432 1455 Q165.51 1450.39 171.32 1450.39 Z" fill="#000000" fill-rule="nonzero" fill-opacity="1" /><path clip-path="url(#clip270)" d="M191.482 1479.7 L196.367 1479.7 L196.367 1485.58 L191.482 1485.58 L191.482 1479.7 Z" fill="#000000" fill-rule="nonzero" fill-opacity="1" /><path clip-path="url(#clip270)" d="M216.552 1454.1 Q212.941 1454.1 211.112 1457.66 Q209.306 1461.2 209.306 1468.33 Q209.306 1475.44 211.112 1479.01 Q212.941 1482.55 216.552 1482.55 Q220.186 1482.55 221.991 1479.01 Q223.82 1475.44 223.82 1468.33 Q223.82 1461.2 221.991 1457.66 Q220.186 1454.1 216.552 1454.1 M216.552 1450.39 Q222.362 1450.39 225.417 1455 Q228.496 1459.58 228.496 1468.33 Q228.496 1477.06 225.417 1481.67 Q222.362 1486.25 216.552 1486.25 Q210.741 1486.25 207.663 1481.67 Q204.607 1477.06 204.607 1468.33 Q204.607 1459.58 207.663 1455 Q210.741 1450.39 216.552 1450.39 Z" fill="#000000" fill-rule="nonzero" fill-opacity="1" /><path clip-path="url(#clip270)" d="M711.523 1454.1 Q707.912 1454.1 706.083 1457.66 Q704.278 1461.2 704.278 1468.33 Q704.278 1475.44 706.083 1479.01 Q707.912 1482.55 711.523 1482.55 Q715.157 1482.55 716.963 1479.01 Q718.792 1475.44 718.792 1468.33 Q718.792 1461.2 716.963 1457.66 Q715.157 1454.1 711.523 1454.1 M711.523 1450.39 Q717.333 1450.39 720.389 1455 Q723.467 1459.58 723.467 1468.33 Q723.467 1477.06 720.389 1481.67 Q717.333 1486.25 711.523 1486.25 Q705.713 1486.25 702.634 1481.67 Q699.579 1477.06 699.579 1468.33 Q699.579 1459.58 702.634 1455 Q705.713 1450.39 711.523 1450.39 Z" fill="#000000" fill-rule="nonzero" fill-opacity="1" /><path clip-path="url(#clip270)" d="M731.685 1479.7 L736.569 1479.7 L736.569 1485.58 L731.685 1485.58 L731.685 1479.7 Z" fill="#000000" fill-rule="nonzero" fill-opacity="1" /><path clip-path="url(#clip270)" d="M746.801 1451.02 L765.157 1451.02 L765.157 1454.96 L751.083 1454.96 L751.083 1463.43 Q752.102 1463.08 753.12 1462.92 Q754.139 1462.73 755.157 1462.73 Q760.944 1462.73 764.324 1465.9 Q767.703 1469.08 767.703 1474.49 Q767.703 1480.07 764.231 1483.17 Q760.759 1486.25 754.439 1486.25 Q752.264 1486.25 749.995 1485.88 Q747.75 1485.51 745.342 1484.77 L745.342 1480.07 Q747.426 1481.2 749.648 1481.76 Q751.87 1482.32 754.347 1482.32 Q758.351 1482.32 760.689 1480.21 Q763.027 1478.1 763.027 1474.49 Q763.027 1470.88 760.689 1468.77 Q758.351 1466.67 754.347 1466.67 Q752.472 1466.67 750.597 1467.08 Q748.745 1467.5 746.801 1468.38 L746.801 1451.02 Z" fill="#000000" fill-rule="nonzero" fill-opacity="1" /><path clip-path="url(#clip270)" d="M1240.5 1481.64 L1248.14 1481.64 L1248.14 1455.28 L1239.83 1456.95 L1239.83 1452.69 L1248.09 1451.02 L1252.77 1451.02 L1252.77 1481.64 L1260.41 1481.64 L1260.41 1485.58 L1240.5 1485.58 L1240.5 1481.64 Z" fill="#000000" fill-rule="nonzero" fill-opacity="1" /><path clip-path="url(#clip270)" d="M1269.85 1479.7 L1274.73 1479.7 L1274.73 1485.58 L1269.85 1485.58 L1269.85 1479.7 Z" fill="#000000" fill-rule="nonzero" fill-opacity="1" /><path clip-path="url(#clip270)" d="M1294.92 1454.1 Q1291.31 1454.1 1289.48 1457.66 Q1287.67 1461.2 1287.67 1468.33 Q1287.67 1475.44 1289.48 1479.01 Q1291.31 1482.55 1294.92 1482.55 Q1298.55 1482.55 1300.36 1479.01 Q1302.19 1475.44 1302.19 1468.33 Q1302.19 1461.2 1300.36 1457.66 Q1298.55 1454.1 1294.92 1454.1 M1294.92 1450.39 Q1300.73 1450.39 1303.79 1455 Q1306.86 1459.58 1306.86 1468.33 Q1306.86 1477.06 1303.79 1481.67 Q1300.73 1486.25 1294.92 1486.25 Q1289.11 1486.25 1286.03 1481.67 Q1282.98 1477.06 1282.98 1468.33 Q1282.98 1459.58 1286.03 1455 Q1289.11 1450.39 1294.92 1450.39 Z" fill="#000000" fill-rule="nonzero" fill-opacity="1" /><path clip-path="url(#clip270)" d="M1780.7 1481.64 L1788.34 1481.64 L1788.34 1455.28 L1780.03 1456.95 L1780.03 1452.69 L1788.29 1451.02 L1792.97 1451.02 L1792.97 1481.64 L1800.61 1481.64 L1800.61 1485.58 L1780.7 1485.58 L1780.7 1481.64 Z" fill="#000000" fill-rule="nonzero" fill-opacity="1" /><path clip-path="url(#clip270)" d="M1810.05 1479.7 L1814.94 1479.7 L1814.94 1485.58 L1810.05 1485.58 L1810.05 1479.7 Z" fill="#000000" fill-rule="nonzero" fill-opacity="1" /><path clip-path="url(#clip270)" d="M1825.17 1451.02 L1843.53 1451.02 L1843.53 1454.96 L1829.45 1454.96 L1829.45 1463.43 Q1830.47 1463.08 1831.49 1462.92 Q1832.51 1462.73 1833.53 1462.73 Q1839.31 1462.73 1842.69 1465.9 Q1846.07 1469.08 1846.07 1474.49 Q1846.07 1480.07 1842.6 1483.17 Q1839.13 1486.25 1832.81 1486.25 Q1830.63 1486.25 1828.36 1485.88 Q1826.12 1485.51 1823.71 1484.77 L1823.71 1480.07 Q1825.79 1481.2 1828.02 1481.76 Q1830.24 1482.32 1832.72 1482.32 Q1836.72 1482.32 1839.06 1480.21 Q1841.4 1478.1 1841.4 1474.49 Q1841.4 1470.88 1839.06 1468.77 Q1836.72 1466.67 1832.72 1466.67 Q1830.84 1466.67 1828.97 1467.08 Q1827.11 1467.5 1825.17 1468.38 L1825.17 1451.02 Z" fill="#000000" fill-rule="nonzero" fill-opacity="1" /><path clip-path="url(#clip270)" d="M2323.99 1481.64 L2340.31 1481.64 L2340.31 1485.58 L2318.37 1485.58 L2318.37 1481.64 Q2321.03 1478.89 2325.61 1474.26 Q2330.22 1469.61 2331.4 1468.27 Q2333.65 1465.74 2334.53 1464.01 Q2335.43 1462.25 2335.43 1460.56 Q2335.43 1457.8 2333.49 1456.07 Q2331.56 1454.33 2328.46 1454.33 Q2326.26 1454.33 2323.81 1455.09 Q2321.38 1455.86 2318.6 1457.41 L2318.6 1452.69 Q2321.43 1451.55 2323.88 1450.97 Q2326.33 1450.39 2328.37 1450.39 Q2333.74 1450.39 2336.93 1453.08 Q2340.13 1455.77 2340.13 1460.26 Q2340.13 1462.39 2339.32 1464.31 Q2338.53 1466.2 2336.42 1468.8 Q2335.85 1469.47 2332.74 1472.69 Q2329.64 1475.88 2323.99 1481.64 Z" fill="#000000" fill-rule="nonzero" fill-opacity="1" /><path clip-path="url(#clip270)" d="M2350.13 1479.7 L2355.01 1479.7 L2355.01 1485.58 L2350.13 1485.58 L2350.13 1479.7 Z" fill="#000000" fill-rule="nonzero" fill-opacity="1" /><path clip-path="url(#clip270)" d="M2375.2 1454.1 Q2371.59 1454.1 2369.76 1457.66 Q2367.95 1461.2 2367.95 1468.33 Q2367.95 1475.44 2369.76 1479.01 Q2371.59 1482.55 2375.2 1482.55 Q2378.83 1482.55 2380.64 1479.01 Q2382.47 1475.44 2382.47 1468.33 Q2382.47 1461.2 2380.64 1457.66 Q2378.83 1454.1 2375.2 1454.1 M2375.2 1450.39 Q2381.01 1450.39 2384.06 1455 Q2387.14 1459.58 2387.14 1468.33 Q2387.14 1477.06 2384.06 1481.67 Q2381.01 1486.25 2375.2 1486.25 Q2369.39 1486.25 2366.31 1481.67 Q2363.25 1477.06 2363.25 1468.33 Q2363.25 1459.58 2366.31 1455 Q2369.39 1450.39 2375.2 1450.39 Z" fill="#000000" fill-rule="nonzero" fill-opacity="1" /><path clip-path="url(#clip270)" d="M1272.41 1522.27 L1272.41 1532.4 L1284.47 1532.4 L1284.47 1536.95 L1272.41 1536.95 L1272.41 1556.3 Q1272.41 1560.66 1273.58 1561.9 Q1274.79 1563.14 1278.45 1563.14 L1284.47 1563.14 L1284.47 1568.04 L1278.45 1568.04 Q1271.67 1568.04 1269.1 1565.53 Q1266.52 1562.98 1266.52 1556.3 L1266.52 1536.95 L1262.22 1536.95 L1262.22 1532.4 L1266.52 1532.4 L1266.52 1522.27 L1272.41 1522.27 Z" fill="#000000" fill-rule="nonzero" fill-opacity="1" /><polyline clip-path="url(#clip270)" style="stroke:#000000; stroke-linecap:round; stroke-linejoin:round; stroke-width:4; stroke-opacity:1; fill:none" points="193.936,1423.18 193.936,47.2441 "/>
<polyline clip-path="url(#clip270)" style="stroke:#000000; stroke-linecap:round; stroke-linejoin:round; stroke-width:4; stroke-opacity:1; fill:none" points="193.936,1242.16 212.834,1242.16 "/>
<polyline clip-path="url(#clip270)" style="stroke:#000000; stroke-linecap:round; stroke-linejoin:round; stroke-width:4; stroke-opacity:1; fill:none" points="193.936,988.309 212.834,988.309 "/>
<polyline clip-path="url(#clip270)" style="stroke:#000000; stroke-linecap:round; stroke-linejoin:round; stroke-width:4; stroke-opacity:1; fill:none" points="193.936,734.462 212.834,734.462 "/>
<polyline clip-path="url(#clip270)" style="stroke:#000000; stroke-linecap:round; stroke-linejoin:round; stroke-width:4; stroke-opacity:1; fill:none" points="193.936,480.615 212.834,480.615 "/>
<polyline clip-path="url(#clip270)" style="stroke:#000000; stroke-linecap:round; stroke-linejoin:round; stroke-width:4; stroke-opacity:1; fill:none" points="193.936,226.768 212.834,226.768 "/>
<path clip-path="url(#clip270)" d="M51.9875 1242.61 L81.6633 1242.61 L81.6633 1246.54 L51.9875 1246.54 L51.9875 1242.61 Z" fill="#000000" fill-rule="nonzero" fill-opacity="1" /><path clip-path="url(#clip270)" d="M92.566 1255.5 L100.205 1255.5 L100.205 1229.13 L91.8947 1230.8 L91.8947 1226.54 L100.159 1224.88 L104.834 1224.88 L104.834 1255.5 L112.473 1255.5 L112.473 1259.44 L92.566 1259.44 L92.566 1255.5 Z" fill="#000000" fill-rule="nonzero" fill-opacity="1" /><path clip-path="url(#clip270)" d="M121.918 1253.56 L126.802 1253.56 L126.802 1259.44 L121.918 1259.44 L121.918 1253.56 Z" fill="#000000" fill-rule="nonzero" fill-opacity="1" /><path clip-path="url(#clip270)" d="M137.033 1224.88 L155.39 1224.88 L155.39 1228.81 L141.316 1228.81 L141.316 1237.28 Q142.334 1236.94 143.353 1236.77 Q144.371 1236.59 145.39 1236.59 Q151.177 1236.59 154.556 1239.76 Q157.936 1242.93 157.936 1248.35 Q157.936 1253.93 154.464 1257.03 Q150.992 1260.11 144.672 1260.11 Q142.496 1260.11 140.228 1259.74 Q137.982 1259.37 135.575 1258.63 L135.575 1253.93 Q137.658 1255.06 139.881 1255.62 Q142.103 1256.17 144.58 1256.17 Q148.584 1256.17 150.922 1254.07 Q153.26 1251.96 153.26 1248.35 Q153.26 1244.74 150.922 1242.63 Q148.584 1240.52 144.58 1240.52 Q142.705 1240.52 140.83 1240.94 Q138.978 1241.36 137.033 1242.24 L137.033 1224.88 Z" fill="#000000" fill-rule="nonzero" fill-opacity="1" /><path clip-path="url(#clip270)" d="M50.9921 988.76 L80.6679 988.76 L80.6679 992.695 L50.9921 992.695 L50.9921 988.76 Z" fill="#000000" fill-rule="nonzero" fill-opacity="1" /><path clip-path="url(#clip270)" d="M91.5706 1001.65 L99.2095 1001.65 L99.2095 975.288 L90.8993 976.954 L90.8993 972.695 L99.1632 971.029 L103.839 971.029 L103.839 1001.65 L111.478 1001.65 L111.478 1005.59 L91.5706 1005.59 L91.5706 1001.65 Z" fill="#000000" fill-rule="nonzero" fill-opacity="1" /><path clip-path="url(#clip270)" d="M120.922 999.709 L125.807 999.709 L125.807 1005.59 L120.922 1005.59 L120.922 999.709 Z" fill="#000000" fill-rule="nonzero" fill-opacity="1" /><path clip-path="url(#clip270)" d="M145.992 974.107 Q142.381 974.107 140.552 977.672 Q138.746 981.214 138.746 988.343 Q138.746 995.45 140.552 999.015 Q142.381 1002.56 145.992 1002.56 Q149.626 1002.56 151.431 999.015 Q153.26 995.45 153.26 988.343 Q153.26 981.214 151.431 977.672 Q149.626 974.107 145.992 974.107 M145.992 970.404 Q151.802 970.404 154.857 975.01 Q157.936 979.593 157.936 988.343 Q157.936 997.07 154.857 1001.68 Q151.802 1006.26 145.992 1006.26 Q140.181 1006.26 137.103 1001.68 Q134.047 997.07 134.047 988.343 Q134.047 979.593 137.103 975.01 Q140.181 970.404 145.992 970.404 Z" fill="#000000" fill-rule="nonzero" fill-opacity="1" /><path clip-path="url(#clip270)" d="M51.9875 734.913 L81.6633 734.913 L81.6633 738.848 L51.9875 738.848 L51.9875 734.913 Z" fill="#000000" fill-rule="nonzero" fill-opacity="1" /><path clip-path="url(#clip270)" d="M101.756 720.26 Q98.1447 720.26 96.316 723.825 Q94.5104 727.367 94.5104 734.496 Q94.5104 741.603 96.316 745.168 Q98.1447 748.709 101.756 748.709 Q105.39 748.709 107.196 745.168 Q109.024 741.603 109.024 734.496 Q109.024 727.367 107.196 723.825 Q105.39 720.26 101.756 720.26 M101.756 716.557 Q107.566 716.557 110.621 721.163 Q113.7 725.746 113.7 734.496 Q113.7 743.223 110.621 747.83 Q107.566 752.413 101.756 752.413 Q95.9456 752.413 92.8669 747.83 Q89.8114 743.223 89.8114 734.496 Q89.8114 725.746 92.8669 721.163 Q95.9456 716.557 101.756 716.557 Z" fill="#000000" fill-rule="nonzero" fill-opacity="1" /><path clip-path="url(#clip270)" d="M121.918 745.862 L126.802 745.862 L126.802 751.742 L121.918 751.742 L121.918 745.862 Z" fill="#000000" fill-rule="nonzero" fill-opacity="1" /><path clip-path="url(#clip270)" d="M137.033 717.182 L155.39 717.182 L155.39 721.117 L141.316 721.117 L141.316 729.589 Q142.334 729.242 143.353 729.08 Q144.371 728.894 145.39 728.894 Q151.177 728.894 154.556 732.066 Q157.936 735.237 157.936 740.654 Q157.936 746.232 154.464 749.334 Q150.992 752.413 144.672 752.413 Q142.496 752.413 140.228 752.043 Q137.982 751.672 135.575 750.931 L135.575 746.232 Q137.658 747.367 139.881 747.922 Q142.103 748.478 144.58 748.478 Q148.584 748.478 150.922 746.371 Q153.26 744.265 153.26 740.654 Q153.26 737.043 150.922 734.936 Q148.584 732.83 144.58 732.83 Q142.705 732.83 140.83 733.246 Q138.978 733.663 137.033 734.543 L137.033 717.182 Z" fill="#000000" fill-rule="nonzero" fill-opacity="1" /><path clip-path="url(#clip270)" d="M100.76 466.413 Q97.1493 466.413 95.3206 469.978 Q93.515 473.52 93.515 480.649 Q93.515 487.756 95.3206 491.321 Q97.1493 494.862 100.76 494.862 Q104.395 494.862 106.2 491.321 Q108.029 487.756 108.029 480.649 Q108.029 473.52 106.2 469.978 Q104.395 466.413 100.76 466.413 M100.76 462.71 Q106.571 462.71 109.626 467.316 Q112.705 471.899 112.705 480.649 Q112.705 489.376 109.626 493.983 Q106.571 498.566 100.76 498.566 Q94.9502 498.566 91.8715 493.983 Q88.816 489.376 88.816 480.649 Q88.816 471.899 91.8715 467.316 Q94.9502 462.71 100.76 462.71 Z" fill="#000000" fill-rule="nonzero" fill-opacity="1" /><path clip-path="url(#clip270)" d="M120.922 492.015 L125.807 492.015 L125.807 497.895 L120.922 497.895 L120.922 492.015 Z" fill="#000000" fill-rule="nonzero" fill-opacity="1" /><path clip-path="url(#clip270)" d="M145.992 466.413 Q142.381 466.413 140.552 469.978 Q138.746 473.52 138.746 480.649 Q138.746 487.756 140.552 491.321 Q142.381 494.862 145.992 494.862 Q149.626 494.862 151.431 491.321 Q153.26 487.756 153.26 480.649 Q153.26 473.52 151.431 469.978 Q149.626 466.413 145.992 466.413 M145.992 462.71 Q151.802 462.71 154.857 467.316 Q157.936 471.899 157.936 480.649 Q157.936 489.376 154.857 493.983 Q151.802 498.566 145.992 498.566 Q140.181 498.566 137.103 493.983 Q134.047 489.376 134.047 480.649 Q134.047 471.899 137.103 467.316 Q140.181 462.71 145.992 462.71 Z" fill="#000000" fill-rule="nonzero" fill-opacity="1" /><path clip-path="url(#clip270)" d="M101.756 212.566 Q98.1447 212.566 96.316 216.131 Q94.5104 219.673 94.5104 226.802 Q94.5104 233.909 96.316 237.474 Q98.1447 241.015 101.756 241.015 Q105.39 241.015 107.196 237.474 Q109.024 233.909 109.024 226.802 Q109.024 219.673 107.196 216.131 Q105.39 212.566 101.756 212.566 M101.756 208.863 Q107.566 208.863 110.621 213.469 Q113.7 218.052 113.7 226.802 Q113.7 235.529 110.621 240.136 Q107.566 244.719 101.756 244.719 Q95.9456 244.719 92.8669 240.136 Q89.8114 235.529 89.8114 226.802 Q89.8114 218.052 92.8669 213.469 Q95.9456 208.863 101.756 208.863 Z" fill="#000000" fill-rule="nonzero" fill-opacity="1" /><path clip-path="url(#clip270)" d="M121.918 238.168 L126.802 238.168 L126.802 244.048 L121.918 244.048 L121.918 238.168 Z" fill="#000000" fill-rule="nonzero" fill-opacity="1" /><path clip-path="url(#clip270)" d="M137.033 209.488 L155.39 209.488 L155.39 213.423 L141.316 213.423 L141.316 221.895 Q142.334 221.548 143.353 221.386 Q144.371 221.201 145.39 221.201 Q151.177 221.201 154.556 224.372 Q157.936 227.543 157.936 232.96 Q157.936 238.538 154.464 241.64 Q150.992 244.719 144.672 244.719 Q142.496 244.719 140.228 244.349 Q137.982 243.978 135.575 243.238 L135.575 238.538 Q137.658 239.673 139.881 240.228 Q142.103 240.784 144.58 240.784 Q148.584 240.784 150.922 238.677 Q153.26 236.571 153.26 232.96 Q153.26 229.349 150.922 227.242 Q148.584 225.136 144.58 225.136 Q142.705 225.136 140.83 225.552 Q138.978 225.969 137.033 226.849 L137.033 209.488 Z" fill="#000000" fill-rule="nonzero" fill-opacity="1" /><polyline clip-path="url(#clip272)" style="stroke:#009af9; stroke-linecap:round; stroke-linejoin:round; stroke-width:4; stroke-opacity:1; fill:none" points="193.936,1384.24 196.097,1376.27 198.258,1368.37 200.419,1360.56 202.58,1352.82 204.741,1345.16 206.902,1337.58 209.063,1330.07 211.224,1322.63 213.385,1315.28 215.546,1307.99 217.707,1300.78 219.868,1293.63 222.029,1286.56 224.19,1279.56 226.351,1272.63 228.512,1265.77 230.673,1258.98 232.834,1252.25 234.995,1245.6 237.156,1239 239.317,1232.48 241.478,1226.02 243.639,1219.62 245.8,1213.29 247.961,1207.02 250.122,1200.81 252.282,1194.66 254.443,1188.58 256.604,1182.55 258.765,1176.59 260.926,1170.69 263.087,1164.84 265.248,1159.05 267.409,1153.32 269.57,1147.65 271.731,1142.03 273.892,1136.47 276.053,1130.97 278.214,1125.52 280.375,1120.12 282.536,1114.78 284.697,1109.49 286.858,1104.25 289.019,1099.07 291.18,1093.94 293.341,1088.85 295.502,1083.82 297.663,1078.84 299.824,1073.91 301.985,1069.03 304.146,1064.2 306.307,1059.41 308.468,1054.67 310.629,1049.98 312.79,1045.34 314.951,1040.74 317.112,1036.19 319.273,1031.68 321.434,1027.22 323.595,1022.81 325.756,1018.43 327.917,1014.1 330.078,1009.82 332.239,1005.57 334.4,1001.37 336.561,997.213 338.722,993.095 340.883,989.018 343.044,984.981 345.205,980.985 347.366,977.028 349.527,973.111 351.688,969.233 353.849,965.393 356.01,961.592 358.171,957.829 360.332,954.103 362.493,950.414 364.653,946.762 366.814,943.147 368.975,939.567 371.136,936.023 373.297,932.515 375.458,929.041 377.619,925.602 379.78,922.197 381.941,918.826 384.102,915.489 386.263,912.185 388.424,908.914 390.585,905.676 392.746,902.469 394.907,899.295 397.068,896.153 399.229,893.041 401.39,889.961 403.551,886.911 405.712,883.892 407.873,880.902 410.034,877.943 412.195,875.013 414.356,872.112 416.517,869.24 418.678,866.397 420.839,863.581 423,860.794 425.161,858.035 427.322,855.303 429.483,852.598 431.644,849.92 433.805,847.269 435.966,844.644 438.127,842.046 440.288,839.473 442.449,836.926 444.61,834.404 446.771,831.907 448.932,829.436 451.093,826.988 453.254,824.566 455.415,822.167 457.576,819.792 459.737,817.441 461.898,815.114 464.059,812.809 466.22,810.528 468.381,808.269 470.542,806.033 472.703,803.819 474.864,801.627 477.024,799.458 479.185,797.309 481.346,795.182 483.507,793.077 485.668,790.992 487.829,788.928 489.99,786.885 492.151,784.862 494.312,782.859 496.473,780.876 498.634,778.913 500.795,776.969 502.956,775.045 505.117,773.14 507.278,771.253 509.439,769.386 511.6,767.537 513.761,765.707 515.922,763.895 518.083,762.101 520.244,760.324 522.405,758.566 524.566,756.825 526.727,755.101 528.888,753.394 531.049,751.705 533.21,750.032 535.371,748.376 537.532,746.736 539.693,745.113 541.854,743.505 544.015,741.914 546.176,740.338 548.337,738.779 550.498,737.234 552.659,735.705 554.82,734.192 556.981,732.693 559.142,731.21 561.303,729.741 563.464,728.287 565.625,726.847 567.786,725.422 569.947,724.01 572.108,722.613 574.269,721.23 576.43,719.861 578.591,718.505 580.752,717.163 582.913,715.834 585.074,714.519 587.235,713.217 589.396,711.927 591.556,710.651 593.717,709.387 595.878,708.136 598.039,706.897 600.2,705.671 602.361,704.456 604.522,703.254 606.683,702.064 608.844,700.886 611.005,699.72 613.166,698.565 615.327,697.422 617.488,696.29 619.649,695.169 621.81,694.06 623.971,692.961 626.132,691.874 628.293,690.797 630.454,689.731 632.615,688.675 634.776,687.631 636.937,686.596 639.098,685.572 641.259,684.558 643.42,683.554 645.581,682.56 647.742,681.576 649.903,680.602 652.064,679.637 654.225,678.682 656.386,677.737 658.547,676.8 660.708,675.874 662.869,674.956 665.03,674.047 667.191,673.148 669.352,672.257 671.513,671.376 673.674,670.503 675.835,669.639 677.996,668.783 680.157,667.936 682.318,667.097 684.479,666.267 686.64,665.445 688.801,664.631 690.962,663.826 693.123,663.028 695.284,662.239 697.445,661.457 699.606,660.683 701.767,659.917 703.927,659.158 706.088,658.407 708.249,657.663 710.41,656.927 712.571,656.198 714.732,655.477 716.893,654.763 719.054,654.055 721.215,653.355 723.376,652.662 725.537,651.976 727.698,651.297 729.859,650.624 732.02,649.958 734.181,649.299 736.342,648.646 738.503,648 740.664,647.36 742.825,646.727 744.986,646.1 747.147,645.479 749.308,644.865 751.469,644.256 753.63,643.654 755.791,643.057 757.952,642.467 760.113,641.882 762.274,641.303 764.435,640.73 766.596,640.163 768.757,639.601 770.918,639.045 773.079,638.494 775.24,637.949 777.401,637.409 779.562,636.875 781.723,636.346 783.884,635.822 786.045,635.304 788.206,634.79 790.367,634.282 792.528,633.778 794.689,633.28 796.85,632.787 799.011,632.298 801.172,631.815 803.333,631.336 805.494,630.862 807.655,630.393 809.816,629.928 811.977,629.468 814.138,629.013 816.298,628.562 818.459,628.115 820.62,627.673 822.781,627.236 824.942,626.803 827.103,626.374 829.264,625.949 831.425,625.529 833.586,625.113 835.747,624.701 837.908,624.293 840.069,623.889 842.23,623.49 844.391,623.094 846.552,622.702 848.713,622.314 850.874,621.93 853.035,621.55 855.196,621.174 857.357,620.801 859.518,620.432 861.679,620.067 863.84,619.705 866.001,619.347 868.162,618.993 870.323,618.642 872.484,618.295 874.645,617.951 876.806,617.61 878.967,617.273 881.128,616.939 883.289,616.609 885.45,616.282 887.611,615.958 889.772,615.637 891.933,615.32 894.094,615.006 896.255,614.695 898.416,614.387 900.577,614.082 902.738,613.78 904.899,613.481 907.06,613.185 909.221,612.892 911.382,612.601 913.543,612.314 915.704,612.03 917.865,611.748 920.026,611.469 922.187,611.193 924.348,610.92 926.509,610.649 928.669,610.382 930.83,610.116 932.991,609.854 935.152,609.594 937.313,609.336 939.474,609.081 941.635,608.829 943.796,608.579 945.957,608.331 948.118,608.087 950.279,607.844 952.44,607.604 954.601,607.366 956.762,607.131 958.923,606.898 961.084,606.667 963.245,606.439 965.406,606.213 967.567,605.989 969.728,605.767 971.889,605.548 974.05,605.331 976.211,605.116 978.372,604.903 980.533,604.692 982.694,604.484 984.855,604.277 987.016,604.073 989.177,603.87 991.338,603.67 993.499,603.471 995.66,603.275 997.821,603.081 999.982,602.888 1002.14,602.698 1004.3,602.509 1006.46,602.322 1008.63,602.137 1010.79,601.954 1012.95,601.773 1015.11,601.594 1017.27,601.416 1019.43,601.24 1021.59,601.066 1023.75,600.894 1025.91,600.723 1028.07,600.555 1030.24,600.387 1032.4,600.222 1034.56,600.058 1036.72,599.896 1038.88,599.735 1041.04,599.576 1043.2,599.419 1045.36,599.263 1047.52,599.109 1049.68,598.956 1051.85,598.805 1054.01,598.655 1056.17,598.507 1058.33,598.36 1060.49,598.215 1062.65,598.071 1064.81,597.928 1066.97,597.787 1069.13,597.648 1071.29,597.509 1073.46,597.373 1075.62,597.237 1077.78,597.103 1079.94,596.97 1082.1,596.838 1084.26,596.708 1086.42,596.579 1088.58,596.451 1090.74,596.325 1092.9,596.2 1095.07,596.076 1097.23,595.953 1099.39,595.832 1101.55,595.711 1103.71,595.592 1105.87,595.474 1108.03,595.357 1110.19,595.242 1112.35,595.127 1114.51,595.014 1116.67,594.902 1118.84,594.79 1121,594.68 1123.16,594.571 1125.32,594.464 1127.48,594.357 1129.64,594.251 1131.8,594.146 1133.96,594.043 1136.12,593.94 1138.28,593.839 1140.45,593.738 1142.61,593.639 1144.77,593.54 1146.93,593.443 1149.09,593.346 1151.25,593.25 1153.41,593.156 1155.57,593.062 1157.73,592.969 1159.89,592.877 1162.06,592.786 1164.22,592.696 1166.38,592.607 1168.54,592.519 1170.7,592.432 1172.86,592.345 1175.02,592.26 1177.18,592.175 1179.34,592.091 1181.5,592.008 1183.67,591.926 1185.83,591.845 1187.99,591.764 1190.15,591.685 1192.31,591.606 1194.47,591.527 1196.63,591.45 1198.79,591.374 1200.95,591.298 1203.11,591.223 1205.28,591.148 1207.44,591.075 1209.6,591.002 1211.76,590.93 1213.92,590.859 1216.08,590.788 1218.24,590.718 1220.4,590.649 1222.56,590.58 1224.72,590.513 1226.88,590.445 1229.05,590.379 1231.21,590.313 1233.37,590.248 1235.53,590.183 1237.69,590.119 1239.85,590.056 1242.01,589.994 1244.17,589.931 1246.33,589.87 1248.49,589.809 1250.66,589.749 1252.82,589.69 1254.98,589.631 1257.14,589.572 1259.3,589.514 1261.46,589.457 1263.62,589.4 1265.78,589.344 1267.94,589.289 1270.1,589.233 1272.27,589.179 1274.43,589.125 1276.59,589.071 1278.75,589.019 1280.91,588.966 1283.07,588.914 1285.23,588.863 1287.39,588.812 1289.55,588.761 1291.71,588.712 1293.88,588.662 1296.04,588.613 1298.2,588.565 1300.36,588.517 1302.52,588.469 1304.68,588.422 1306.84,588.376 1309,588.329 1311.16,588.284 1313.32,588.239 1315.49,588.194 1317.65,588.15 1319.81,588.106 1321.97,588.062 1324.13,588.019 1326.29,587.977 1328.45,587.934 1330.61,587.893 1332.77,587.851 1334.93,587.811 1337.09,587.77 1339.26,587.73 1341.42,587.69 1343.58,587.651 1345.74,587.612 1347.9,587.574 1350.06,587.536 1352.22,587.498 1354.38,587.46 1356.54,587.423 1358.7,587.387 1360.87,587.351 1363.03,587.315 1365.19,587.279 1367.35,587.244 1369.51,587.209 1371.67,587.175 1373.83,587.141 1375.99,587.107 1378.15,587.074 1380.31,587.041 1382.48,587.008 1384.64,586.976 1386.8,586.944 1388.96,586.912 1391.12,586.88 1393.28,586.849 1395.44,586.819 1397.6,586.788 1399.76,586.758 1401.92,586.728 1404.09,586.699 1406.25,586.669 1408.41,586.64 1410.57,586.612 1412.73,586.583 1414.89,586.555 1417.05,586.527 1419.21,586.5 1421.37,586.473 1423.53,586.446 1425.7,586.419 1427.86,586.393 1430.02,586.367 1432.18,586.341 1434.34,586.315 1436.5,586.29 1438.66,586.264 1440.82,586.24 1442.98,586.215 1445.14,586.191 1447.3,586.166 1449.47,586.143 1451.63,586.119 1453.79,586.096 1455.95,586.072 1458.11,586.049 1460.27,586.027 1462.43,586.004 1464.59,585.982 1466.75,585.96 1468.91,585.938 1471.08,585.916 1473.24,585.895 1475.4,585.874 1477.56,585.853 1479.72,585.832 1481.88,585.811 1484.04,585.791 1486.2,585.771 1488.36,585.751 1490.52,585.731 1492.69,585.711 1494.85,585.692 1497.01,585.672 1499.17,585.653 1501.33,585.634 1503.49,585.616 1505.65,585.597 1507.81,585.579 1509.97,585.56 1512.13,585.542 1514.3,585.525 1516.46,585.507 1518.62,585.489 1520.78,585.472 1522.94,585.455 1525.1,585.438 1527.26,585.421 1529.42,585.404 1531.58,585.388 1533.74,585.372 1535.91,585.355 1538.07,585.339 1540.23,585.324 1542.39,585.308 1544.55,585.292 1546.71,585.277 1548.87,585.262 1551.03,585.247 1553.19,585.232 1555.35,585.217 1557.51,585.202 1559.68,585.188 1561.84,585.174 1564,585.159 1566.16,585.145 1568.32,585.131 1570.48,585.118 1572.64,585.104 1574.8,585.09 1576.96,585.077 1579.12,585.064 1581.29,585.051 1583.45,585.038 1585.61,585.025 1587.77,585.012 1589.93,585 1592.09,584.987 1594.25,584.975 1596.41,584.963 1598.57,584.951 1600.73,584.939 1602.9,584.927 1605.06,584.915 1607.22,584.904 1609.38,584.892 1611.54,584.881 1613.7,584.87 1615.86,584.859 1618.02,584.848 1620.18,584.837 1622.34,584.826 1624.51,584.816 1626.67,584.805 1628.83,584.795 1630.99,584.784 1633.15,584.774 1635.31,584.764 1637.47,584.754 1639.63,584.744 1641.79,584.734 1643.95,584.725 1646.12,584.715 1648.28,584.705 1650.44,584.696 1652.6,584.687 1654.76,584.678 1656.92,584.668 1659.08,584.659 1661.24,584.65 1663.4,584.642 1665.56,584.633 1667.72,584.624 1669.89,584.616 1672.05,584.607 1674.21,584.599 1676.37,584.59 1678.53,584.582 1680.69,584.574 1682.85,584.566 1685.01,584.558 1687.17,584.55 1689.33,584.542 1691.5,584.535 1693.66,584.527 1695.82,584.519 1697.98,584.512 1700.14,584.504 1702.3,584.497 1704.46,584.49 1706.62,584.482 1708.78,584.475 1710.94,584.468 1713.11,584.461 1715.27,584.454 1717.43,584.447 1719.59,584.441 1721.75,584.434 1723.91,584.427 1726.07,584.42 1728.23,584.414 1730.39,584.407 1732.55,584.401 1734.72,584.395 1736.88,584.388 1739.04,584.382 1741.2,584.376 1743.36,584.37 1745.52,584.364 1747.68,584.357 1749.84,584.351 1752,584.346 1754.16,584.34 1756.33,584.334 1758.49,584.328 1760.65,584.322 1762.81,584.317 1764.97,584.311 1767.13,584.306 1769.29,584.3 1771.45,584.295 1773.61,584.289 1775.77,584.284 1777.93,584.278 1780.1,584.273 1782.26,584.268 1784.42,584.263 1786.58,584.258 1788.74,584.253 1790.9,584.248 1793.06,584.243 1795.22,584.238 1797.38,584.233 1799.54,584.228 1801.71,584.223 1803.87,584.219 1806.03,584.214 1808.19,584.209 1810.35,584.205 1812.51,584.2 1814.67,584.196 1816.83,584.191 1818.99,584.187 1821.15,584.183 1823.32,584.178 1825.48,584.174 1827.64,584.17 1829.8,584.166 1831.96,584.162 1834.12,584.157 1836.28,584.153 1838.44,584.149 1840.6,584.145 1842.76,584.142 1844.93,584.138 1847.09,584.134 1849.25,584.13 1851.41,584.126 1853.57,584.122 1855.73,584.119 1857.89,584.115 1860.05,584.112 1862.21,584.108 1864.37,584.104 1866.54,584.101 1868.7,584.097 1870.86,584.094 1873.02,584.091 1875.18,584.087 1877.34,584.084 1879.5,584.081 1881.66,584.077 1883.82,584.074 1885.98,584.071 1888.15,584.068 1890.31,584.065 1892.47,584.062 1894.63,584.059 1896.79,584.056 1898.95,584.053 1901.11,584.05 1903.27,584.047 1905.43,584.044 1907.59,584.041 1909.75,584.038 1911.92,584.036 1914.08,584.033 1916.24,584.03 1918.4,584.027 1920.56,584.025 1922.72,584.022 1924.88,584.019 1927.04,584.017 1929.2,584.014 1931.36,584.012 1933.53,584.009 1935.69,584.007 1937.85,584.004 1940.01,584.002 1942.17,584 1944.33,583.997 1946.49,583.995 1948.65,583.992 1950.81,583.99 1952.97,583.988 1955.14,583.986 1957.3,583.983 1959.46,583.981 1961.62,583.979 1963.78,583.977 1965.94,583.975 1968.1,583.973 1970.26,583.971 1972.42,583.969 1974.58,583.966 1976.75,583.964 1978.91,583.962 1981.07,583.96 1983.23,583.958 1985.39,583.957 1987.55,583.955 1989.71,583.953 1991.87,583.951 1994.03,583.949 1996.19,583.947 1998.36,583.945 2000.52,583.943 2002.68,583.942 2004.84,583.94 2007,583.938 2009.16,583.936 2011.32,583.935 2013.48,583.933 2015.64,583.931 2017.8,583.929 2019.96,583.928 2022.13,583.926 2024.29,583.924 2026.45,583.923 2028.61,583.921 2030.77,583.919 2032.93,583.918 2035.09,583.916 2037.25,583.915 2039.41,583.913 2041.57,583.912 2043.74,583.91 2045.9,583.909 2048.06,583.907 2050.22,583.905 2052.38,583.904 2054.54,583.903 2056.7,583.901 2058.86,583.9 2061.02,583.898 2063.18,583.897 2065.35,583.895 2067.51,583.894 2069.67,583.893 2071.83,583.891 2073.99,583.89 2076.15,583.888 2078.31,583.887 2080.47,583.886 2082.63,583.885 2084.79,583.883 2086.96,583.882 2089.12,583.881 2091.28,583.879 2093.44,583.878 2095.6,583.877 2097.76,583.876 2099.92,583.875 2102.08,583.873 2104.24,583.872 2106.4,583.871 2108.57,583.87 2110.73,583.869 2112.89,583.867 2115.05,583.866 2117.21,583.865 2119.37,583.864 2121.53,583.863 2123.69,583.862 2125.85,583.861 2128.01,583.86 2130.17,583.859 2132.34,583.858 2134.5,583.857 2136.66,583.856 2138.82,583.855 2140.98,583.854 2143.14,583.853 2145.3,583.852 2147.46,583.851 2149.62,583.85 2151.78,583.849 2153.95,583.848 2156.11,583.847 2158.27,583.846 2160.43,583.845 2162.59,583.844 2164.75,583.843 2166.91,583.843 2169.07,583.842 2171.23,583.841 2173.39,583.84 2175.56,583.839 2177.72,583.838 2179.88,583.837 2182.04,583.837 2184.2,583.836 2186.36,583.835 2188.52,583.834 2190.68,583.833 2192.84,583.833 2195,583.832 2197.17,583.831 2199.33,583.83 2201.49,583.83 2203.65,583.829 2205.81,583.828 2207.97,583.828 2210.13,583.827 2212.29,583.826 2214.45,583.825 2216.61,583.825 2218.78,583.824 2220.94,583.823 2223.1,583.823 2225.26,583.822 2227.42,583.821 2229.58,583.821 2231.74,583.82 2233.9,583.82 2236.06,583.819 2238.22,583.818 2240.38,583.818 2242.55,583.817 2244.71,583.817 2246.87,583.816 2249.03,583.815 2251.19,583.815 2253.35,583.814 2255.51,583.814 2257.67,583.813 2259.83,583.813 2261.99,583.812 2264.16,583.812 2266.32,583.811 2268.48,583.811 2270.64,583.81 2272.8,583.809 2274.96,583.809 2277.12,583.808 2279.28,583.808 2281.44,583.807 2283.6,583.807 2285.77,583.807 2287.93,583.806 2290.09,583.806 2292.25,583.805 2294.41,583.805 2296.57,583.804 2298.73,583.804 2300.89,583.803 2303.05,583.803 2305.21,583.802 2307.38,583.802 2309.54,583.802 2311.7,583.801 2313.86,583.801 2316.02,583.8 2318.18,583.8 2320.34,583.799 2322.5,583.799 2324.66,583.799 2326.82,583.798 2328.99,583.798 2331.15,583.797 2333.31,583.797 2335.47,583.797 2337.63,583.796 2339.79,583.796 2341.95,583.795 2344.11,583.795 2346.27,583.795 2348.43,583.794 2350.59,583.794 2352.76,583.794 "/>
<polyline clip-path="url(#clip272)" style="stroke:#e26f46; stroke-linecap:round; stroke-linejoin:round; stroke-width:4; stroke-opacity:1; fill:none" points="193.936,86.1857 196.097,89.9892 198.258,93.7617 200.419,97.5035 202.58,101.215 204.741,104.896 206.902,108.547 209.063,112.169 211.224,115.761 213.385,119.324 215.546,122.858 217.707,126.364 219.868,129.841 222.029,133.289 224.19,136.71 226.351,140.104 228.512,143.469 230.673,146.808 232.834,150.119 234.995,153.404 237.156,156.662 239.317,159.894 241.478,163.1 243.639,166.28 245.8,169.435 247.961,172.564 250.122,175.668 252.282,178.746 254.443,181.801 256.604,184.83 258.765,187.835 260.926,190.816 263.087,193.774 265.248,196.707 267.409,199.617 269.57,202.504 271.731,205.367 273.892,208.208 276.053,211.025 278.214,213.821 280.375,216.593 282.536,219.344 284.697,222.073 286.858,224.78 289.019,227.465 291.18,230.129 293.341,232.772 295.502,235.394 297.663,237.994 299.824,240.574 301.985,243.134 304.146,245.673 306.307,248.192 308.468,250.691 310.629,253.17 312.79,255.63 314.951,258.07 317.112,260.491 319.273,262.892 321.434,265.274 323.595,267.638 325.756,269.983 327.917,272.309 330.078,274.617 332.239,276.907 334.4,279.179 336.561,281.432 338.722,283.668 340.883,285.887 343.044,288.088 345.205,290.271 347.366,292.438 349.527,294.587 351.688,296.719 353.849,298.835 356.01,300.934 358.171,303.016 360.332,305.083 362.493,307.133 364.653,309.167 366.814,311.184 368.975,313.187 371.136,315.173 373.297,317.144 375.458,319.099 377.619,321.04 379.78,322.965 381.941,324.875 384.102,326.77 386.263,328.65 388.424,330.516 390.585,332.367 392.746,334.204 394.907,336.026 397.068,337.834 399.229,339.628 401.39,341.408 403.551,343.175 405.712,344.927 407.873,346.667 410.034,348.392 412.195,350.104 414.356,351.803 416.517,353.489 418.678,355.162 420.839,356.822 423,358.468 425.161,360.103 427.322,361.724 429.483,363.333 431.644,364.93 433.805,366.515 435.966,368.087 438.127,369.647 440.288,371.195 442.449,372.731 444.61,374.255 446.771,375.768 448.932,377.269 451.093,378.758 453.254,380.236 455.415,381.703 457.576,383.158 459.737,384.602 461.898,386.035 464.059,387.458 466.22,388.869 468.381,390.269 470.542,391.659 472.703,393.038 474.864,394.407 477.024,395.765 479.185,397.112 481.346,398.45 483.507,399.777 485.668,401.094 487.829,402.401 489.99,403.698 492.151,404.986 494.312,406.263 496.473,407.531 498.634,408.789 500.795,410.038 502.956,411.277 505.117,412.506 507.278,413.727 509.439,414.938 511.6,416.14 513.761,417.333 515.922,418.516 518.083,419.691 520.244,420.857 522.405,422.015 524.566,423.163 526.727,424.303 528.888,425.434 531.049,426.557 533.21,427.671 535.371,428.777 537.532,429.874 539.693,430.964 541.854,432.045 544.015,433.118 546.176,434.183 548.337,435.239 550.498,436.288 552.659,437.329 554.82,438.363 556.981,439.388 559.142,440.406 561.303,441.416 563.464,442.419 565.625,443.414 567.786,444.402 569.947,445.382 572.108,446.355 574.269,447.321 576.43,448.28 578.591,449.231 580.752,450.175 582.913,451.112 585.074,452.043 587.235,452.966 589.396,453.882 591.556,454.792 593.717,455.695 595.878,456.591 598.039,457.48 600.2,458.363 602.361,459.24 604.522,460.109 606.683,460.973 608.844,461.83 611.005,462.68 613.166,463.525 615.327,464.363 617.488,465.195 619.649,466.02 621.81,466.84 623.971,467.654 626.132,468.461 628.293,469.263 630.454,470.059 632.615,470.849 634.776,471.633 636.937,472.411 639.098,473.183 641.259,473.95 643.42,474.712 645.581,475.467 647.742,476.217 649.903,476.962 652.064,477.701 654.225,478.435 656.386,479.163 658.547,479.887 660.708,480.604 662.869,481.317 665.03,482.024 667.191,482.726 669.352,483.423 671.513,484.115 673.674,484.802 675.835,485.484 677.996,486.161 680.157,486.833 682.318,487.5 684.479,488.162 686.64,488.82 688.801,489.472 690.962,490.12 693.123,490.764 695.284,491.402 697.445,492.036 699.606,492.665 701.767,493.29 703.927,493.91 706.088,494.525 708.249,495.137 710.41,495.743 712.571,496.346 714.732,496.944 716.893,497.537 719.054,498.127 721.215,498.712 723.376,499.293 725.537,499.869 727.698,500.442 729.859,501.01 732.02,501.575 734.181,502.135 736.342,502.691 738.503,503.243 740.664,503.791 742.825,504.336 744.986,504.876 747.147,505.412 749.308,505.945 751.469,506.474 753.63,506.999 755.791,507.52 757.952,508.038 760.113,508.551 762.274,509.062 764.435,509.568 766.596,510.071 768.757,510.57 770.918,511.066 773.079,511.558 775.24,512.047 777.401,512.532 779.562,513.014 781.723,513.492 783.884,513.967 786.045,514.438 788.206,514.906 790.367,515.371 792.528,515.833 794.689,516.291 796.85,516.746 799.011,517.198 801.172,517.646 803.333,518.092 805.494,518.534 807.655,518.973 809.816,519.409 811.977,519.842 814.138,520.272 816.298,520.699 818.459,521.122 820.62,521.543 822.781,521.961 824.942,522.376 827.103,522.788 829.264,523.196 831.425,523.603 833.586,524.006 835.747,524.406 837.908,524.804 840.069,525.198 842.23,525.59 844.391,525.98 846.552,526.366 848.713,526.75 850.874,527.131 853.035,527.509 855.196,527.885 857.357,528.258 859.518,528.628 861.679,528.996 863.84,529.362 866.001,529.724 868.162,530.084 870.323,530.442 872.484,530.797 874.645,531.15 876.806,531.5 878.967,531.848 881.128,532.193 883.289,532.536 885.45,532.876 887.611,533.215 889.772,533.55 891.933,533.884 894.094,534.215 896.255,534.544 898.416,534.87 900.577,535.194 902.738,535.516 904.899,535.836 907.06,536.154 909.221,536.469 911.382,536.782 913.543,537.093 915.704,537.402 917.865,537.709 920.026,538.013 922.187,538.315 924.348,538.616 926.509,538.914 928.669,539.21 930.83,539.505 932.991,539.797 935.152,540.087 937.313,540.375 939.474,540.661 941.635,540.945 943.796,541.228 945.957,541.508 948.118,541.786 950.279,542.063 952.44,542.337 954.601,542.61 956.762,542.88 958.923,543.149 961.084,543.416 963.245,543.682 965.406,543.945 967.567,544.207 969.728,544.466 971.889,544.724 974.05,544.98 976.211,545.235 978.372,545.488 980.533,545.739 982.694,545.988 984.855,546.235 987.016,546.481 989.177,546.725 991.338,546.968 993.499,547.209 995.66,547.448 997.821,547.685 999.982,547.921 1002.14,548.155 1004.3,548.388 1006.46,548.619 1008.63,548.849 1010.79,549.077 1012.95,549.303 1015.11,549.528 1017.27,549.751 1019.43,549.973 1021.59,550.193 1023.75,550.412 1025.91,550.629 1028.07,550.845 1030.24,551.059 1032.4,551.272 1034.56,551.484 1036.72,551.693 1038.88,551.902 1041.04,552.109 1043.2,552.315 1045.36,552.519 1047.52,552.722 1049.68,552.924 1051.85,553.124 1054.01,553.323 1056.17,553.52 1058.33,553.717 1060.49,553.912 1062.65,554.105 1064.81,554.297 1066.97,554.488 1069.13,554.678 1071.29,554.866 1073.46,555.053 1075.62,555.239 1077.78,555.424 1079.94,555.607 1082.1,555.789 1084.26,555.97 1086.42,556.15 1088.58,556.329 1090.74,556.506 1092.9,556.682 1095.07,556.857 1097.23,557.031 1099.39,557.203 1101.55,557.375 1103.71,557.545 1105.87,557.714 1108.03,557.882 1110.19,558.049 1112.35,558.215 1114.51,558.38 1116.67,558.543 1118.84,558.706 1121,558.867 1123.16,559.028 1125.32,559.187 1127.48,559.345 1129.64,559.502 1131.8,559.658 1133.96,559.813 1136.12,559.967 1138.28,560.12 1140.45,560.272 1142.61,560.423 1144.77,560.573 1146.93,560.722 1149.09,560.87 1151.25,561.017 1153.41,561.163 1155.57,561.308 1157.73,561.452 1159.89,561.595 1162.06,561.737 1164.22,561.878 1166.38,562.018 1168.54,562.158 1170.7,562.296 1172.86,562.434 1175.02,562.57 1177.18,562.706 1179.34,562.84 1181.5,562.974 1183.67,563.107 1185.83,563.239 1187.99,563.37 1190.15,563.501 1192.31,563.63 1194.47,563.759 1196.63,563.886 1198.79,564.013 1200.95,564.139 1203.11,564.265 1205.28,564.389 1207.44,564.512 1209.6,564.635 1211.76,564.757 1213.92,564.878 1216.08,564.999 1218.24,565.118 1220.4,565.237 1222.56,565.355 1224.72,565.472 1226.88,565.588 1229.05,565.704 1231.21,565.819 1233.37,565.933 1235.53,566.046 1237.69,566.159 1239.85,566.271 1242.01,566.382 1244.17,566.492 1246.33,566.602 1248.49,566.711 1250.66,566.819 1252.82,566.927 1254.98,567.034 1257.14,567.14 1259.3,567.245 1261.46,567.35 1263.62,567.454 1265.78,567.558 1267.94,567.66 1270.1,567.762 1272.27,567.864 1274.43,567.965 1276.59,568.065 1278.75,568.164 1280.91,568.263 1283.07,568.361 1285.23,568.459 1287.39,568.555 1289.55,568.652 1291.71,568.747 1293.88,568.842 1296.04,568.937 1298.2,569.03 1300.36,569.124 1302.52,569.216 1304.68,569.308 1306.84,569.4 1309,569.49 1311.16,569.58 1313.32,569.67 1315.49,569.759 1317.65,569.848 1319.81,569.935 1321.97,570.023 1324.13,570.109 1326.29,570.196 1328.45,570.281 1330.61,570.366 1332.77,570.451 1334.93,570.535 1337.09,570.618 1339.26,570.701 1341.42,570.783 1343.58,570.865 1345.74,570.946 1347.9,571.027 1350.06,571.107 1352.22,571.187 1354.38,571.266 1356.54,571.344 1358.7,571.423 1360.87,571.5 1363.03,571.577 1365.19,571.654 1367.35,571.73 1369.51,571.806 1371.67,571.881 1373.83,571.955 1375.99,572.03 1378.15,572.103 1380.31,572.176 1382.48,572.249 1384.64,572.321 1386.8,572.393 1388.96,572.465 1391.12,572.535 1393.28,572.606 1395.44,572.676 1397.6,572.745 1399.76,572.814 1401.92,572.883 1404.09,572.951 1406.25,573.019 1408.41,573.086 1410.57,573.153 1412.73,573.219 1414.89,573.285 1417.05,573.351 1419.21,573.416 1421.37,573.481 1423.53,573.545 1425.7,573.609 1427.86,573.672 1430.02,573.735 1432.18,573.798 1434.34,573.86 1436.5,573.922 1438.66,573.983 1440.82,574.045 1442.98,574.105 1445.14,574.165 1447.3,574.225 1449.47,574.285 1451.63,574.344 1453.79,574.403 1455.95,574.461 1458.11,574.519 1460.27,574.577 1462.43,574.634 1464.59,574.691 1466.75,574.747 1468.91,574.804 1471.08,574.859 1473.24,574.915 1475.4,574.97 1477.56,575.025 1479.72,575.079 1481.88,575.133 1484.04,575.187 1486.2,575.24 1488.36,575.294 1490.52,575.346 1492.69,575.399 1494.85,575.451 1497.01,575.502 1499.17,575.554 1501.33,575.605 1503.49,575.656 1505.65,575.706 1507.81,575.756 1509.97,575.806 1512.13,575.855 1514.3,575.905 1516.46,575.954 1518.62,576.002 1520.78,576.05 1522.94,576.098 1525.1,576.146 1527.26,576.193 1529.42,576.24 1531.58,576.287 1533.74,576.333 1535.91,576.38 1538.07,576.425 1540.23,576.471 1542.39,576.516 1544.55,576.561 1546.71,576.606 1548.87,576.65 1551.03,576.695 1553.19,576.738 1555.35,576.782 1557.51,576.825 1559.68,576.868 1561.84,576.911 1564,576.954 1566.16,576.996 1568.32,577.038 1570.48,577.079 1572.64,577.121 1574.8,577.162 1576.96,577.203 1579.12,577.244 1581.29,577.284 1583.45,577.324 1585.61,577.364 1587.77,577.403 1589.93,577.443 1592.09,577.482 1594.25,577.521 1596.41,577.559 1598.57,577.598 1600.73,577.636 1602.9,577.674 1605.06,577.711 1607.22,577.749 1609.38,577.786 1611.54,577.823 1613.7,577.86 1615.86,577.896 1618.02,577.932 1620.18,577.968 1622.34,578.004 1624.51,578.04 1626.67,578.075 1628.83,578.11 1630.99,578.145 1633.15,578.179 1635.31,578.214 1637.47,578.248 1639.63,578.282 1641.79,578.316 1643.95,578.349 1646.12,578.383 1648.28,578.416 1650.44,578.449 1652.6,578.482 1654.76,578.514 1656.92,578.546 1659.08,578.579 1661.24,578.61 1663.4,578.642 1665.56,578.674 1667.72,578.705 1669.89,578.736 1672.05,578.767 1674.21,578.798 1676.37,578.828 1678.53,578.859 1680.69,578.889 1682.85,578.919 1685.01,578.948 1687.17,578.978 1689.33,579.007 1691.5,579.037 1693.66,579.066 1695.82,579.094 1697.98,579.123 1700.14,579.152 1702.3,579.18 1704.46,579.208 1706.62,579.236 1708.78,579.264 1710.94,579.291 1713.11,579.319 1715.27,579.346 1717.43,579.373 1719.59,579.4 1721.75,579.427 1723.91,579.454 1726.07,579.48 1728.23,579.506 1730.39,579.532 1732.55,579.558 1734.72,579.584 1736.88,579.61 1739.04,579.635 1741.2,579.661 1743.36,579.686 1745.52,579.711 1747.68,579.736 1749.84,579.76 1752,579.785 1754.16,579.809 1756.33,579.833 1758.49,579.858 1760.65,579.881 1762.81,579.905 1764.97,579.929 1767.13,579.952 1769.29,579.976 1771.45,579.999 1773.61,580.022 1775.77,580.045 1777.93,580.068 1780.1,580.09 1782.26,580.113 1784.42,580.135 1786.58,580.158 1788.74,580.18 1790.9,580.202 1793.06,580.224 1795.22,580.245 1797.38,580.267 1799.54,580.288 1801.71,580.309 1803.87,580.331 1806.03,580.352 1808.19,580.373 1810.35,580.393 1812.51,580.414 1814.67,580.434 1816.83,580.455 1818.99,580.475 1821.15,580.495 1823.32,580.515 1825.48,580.535 1827.64,580.555 1829.8,580.574 1831.96,580.594 1834.12,580.613 1836.28,580.633 1838.44,580.652 1840.6,580.671 1842.76,580.69 1844.93,580.708 1847.09,580.727 1849.25,580.746 1851.41,580.764 1853.57,580.782 1855.73,580.801 1857.89,580.819 1860.05,580.837 1862.21,580.855 1864.37,580.872 1866.54,580.89 1868.7,580.908 1870.86,580.925 1873.02,580.942 1875.18,580.959 1877.34,580.977 1879.5,580.994 1881.66,581.01 1883.82,581.027 1885.98,581.044 1888.15,581.06 1890.31,581.077 1892.47,581.093 1894.63,581.11 1896.79,581.126 1898.95,581.142 1901.11,581.158 1903.27,581.174 1905.43,581.189 1907.59,581.205 1909.75,581.221 1911.92,581.236 1914.08,581.251 1916.24,581.267 1918.4,581.282 1920.56,581.297 1922.72,581.312 1924.88,581.327 1927.04,581.342 1929.2,581.356 1931.36,581.371 1933.53,581.385 1935.69,581.4 1937.85,581.414 1940.01,581.428 1942.17,581.443 1944.33,581.457 1946.49,581.471 1948.65,581.485 1950.81,581.498 1952.97,581.512 1955.14,581.526 1957.3,581.539 1959.46,581.553 1961.62,581.566 1963.78,581.58 1965.94,581.593 1968.1,581.606 1970.26,581.619 1972.42,581.632 1974.58,581.645 1976.75,581.658 1978.91,581.67 1981.07,581.683 1983.23,581.696 1985.39,581.708 1987.55,581.721 1989.71,581.733 1991.87,581.745 1994.03,581.758 1996.19,581.77 1998.36,581.782 2000.52,581.794 2002.68,581.806 2004.84,581.817 2007,581.829 2009.16,581.841 2011.32,581.853 2013.48,581.864 2015.64,581.876 2017.8,581.887 2019.96,581.898 2022.13,581.91 2024.29,581.921 2026.45,581.932 2028.61,581.943 2030.77,581.954 2032.93,581.965 2035.09,581.976 2037.25,581.987 2039.41,581.998 2041.57,582.008 2043.74,582.019 2045.9,582.029 2048.06,582.04 2050.22,582.05 2052.38,582.061 2054.54,582.071 2056.7,582.081 2058.86,582.092 2061.02,582.102 2063.18,582.112 2065.35,582.122 2067.51,582.132 2069.67,582.142 2071.83,582.151 2073.99,582.161 2076.15,582.171 2078.31,582.18 2080.47,582.19 2082.63,582.2 2084.79,582.209 2086.96,582.218 2089.12,582.228 2091.28,582.237 2093.44,582.246 2095.6,582.256 2097.76,582.265 2099.92,582.274 2102.08,582.283 2104.24,582.292 2106.4,582.301 2108.57,582.309 2110.73,582.318 2112.89,582.327 2115.05,582.336 2117.21,582.344 2119.37,582.353 2121.53,582.361 2123.69,582.37 2125.85,582.378 2128.01,582.387 2130.17,582.395 2132.34,582.403 2134.5,582.412 2136.66,582.42 2138.82,582.428 2140.98,582.436 2143.14,582.444 2145.3,582.452 2147.46,582.46 2149.62,582.468 2151.78,582.476 2153.95,582.483 2156.11,582.491 2158.27,582.499 2160.43,582.506 2162.59,582.514 2164.75,582.521 2166.91,582.529 2169.07,582.536 2171.23,582.544 2173.39,582.551 2175.56,582.558 2177.72,582.566 2179.88,582.573 2182.04,582.58 2184.2,582.587 2186.36,582.594 2188.52,582.601 2190.68,582.608 2192.84,582.615 2195,582.622 2197.17,582.629 2199.33,582.636 2201.49,582.643 2203.65,582.649 2205.81,582.656 2207.97,582.663 2210.13,582.669 2212.29,582.676 2214.45,582.683 2216.61,582.689 2218.78,582.695 2220.94,582.702 2223.1,582.708 2225.26,582.715 2227.42,582.721 2229.58,582.727 2231.74,582.733 2233.9,582.74 2236.06,582.746 2238.22,582.752 2240.38,582.758 2242.55,582.764 2244.71,582.77 2246.87,582.776 2249.03,582.782 2251.19,582.788 2253.35,582.794 2255.51,582.799 2257.67,582.805 2259.83,582.811 2261.99,582.817 2264.16,582.822 2266.32,582.828 2268.48,582.833 2270.64,582.839 2272.8,582.845 2274.96,582.85 2277.12,582.856 2279.28,582.861 2281.44,582.866 2283.6,582.872 2285.77,582.877 2287.93,582.882 2290.09,582.888 2292.25,582.893 2294.41,582.898 2296.57,582.903 2298.73,582.908 2300.89,582.914 2303.05,582.919 2305.21,582.924 2307.38,582.929 2309.54,582.934 2311.7,582.939 2313.86,582.944 2316.02,582.948 2318.18,582.953 2320.34,582.958 2322.5,582.963 2324.66,582.968 2326.82,582.973 2328.99,582.977 2331.15,582.982 2333.31,582.987 2335.47,582.991 2337.63,582.996 2339.79,583 2341.95,583.005 2344.11,583.01 2346.27,583.014 2348.43,583.019 2350.59,583.023 2352.76,583.027 "/>
<path clip-path="url(#clip270)" d="M1805.52 248.629 L2280.8 248.629 L2280.8 93.1086 L1805.52 93.1086  Z" fill="#ffffff" fill-rule="evenodd" fill-opacity="1"/>
<polyline clip-path="url(#clip270)" style="stroke:#000000; stroke-linecap:round; stroke-linejoin:round; stroke-width:4; stroke-opacity:1; fill:none" points="1805.52,248.629 2280.8,248.629 2280.8,93.1086 1805.52,93.1086 1805.52,248.629 "/>
<polyline clip-path="url(#clip270)" style="stroke:#009af9; stroke-linecap:round; stroke-linejoin:round; stroke-width:4; stroke-opacity:1; fill:none" points="1829.5,144.949 1973.42,144.949 "/>
<path clip-path="url(#clip270)" d="M1997.41 136.303 L2001.93 136.303 L2010.03 158.062 L2018.13 136.303 L2022.64 136.303 L2012.92 162.229 L2007.13 162.229 L1997.41 136.303 Z" fill="#000000" fill-rule="nonzero" fill-opacity="1" /><path clip-path="url(#clip270)" d="M2029.93 158.293 L2037.57 158.293 L2037.57 131.928 L2029.26 133.595 L2029.26 129.335 L2037.53 127.669 L2042.2 127.669 L2042.2 158.293 L2049.84 158.293 L2049.84 162.229 L2029.93 162.229 L2029.93 158.293 Z" fill="#000000" fill-rule="nonzero" fill-opacity="1" /><path clip-path="url(#clip270)" d="M2067.94 145.585 L2067.94 152.807 L2076.07 152.807 L2076.07 155.006 L2067.94 155.006 L2067.94 162.229 L2065.51 162.229 L2065.51 155.006 L2057.39 155.006 L2057.39 152.807 L2065.51 152.807 L2065.51 145.585 L2067.94 145.585 Z" fill="#000000" fill-rule="nonzero" fill-opacity="1" /><path clip-path="url(#clip270)" d="M2100.24 137.067 L2100.24 141.094 Q2098.43 140.169 2096.49 139.706 Q2094.54 139.243 2092.46 139.243 Q2089.29 139.243 2087.69 140.215 Q2086.11 141.187 2086.11 143.131 Q2086.11 144.613 2087.25 145.469 Q2088.38 146.303 2091.81 147.067 L2093.27 147.391 Q2097.8 148.363 2099.7 150.145 Q2101.62 151.905 2101.62 155.076 Q2101.62 158.687 2098.75 160.793 Q2095.91 162.9 2090.91 162.9 Q2088.82 162.9 2086.55 162.483 Q2084.31 162.09 2081.81 161.28 L2081.81 156.881 Q2084.17 158.108 2086.46 158.733 Q2088.75 159.335 2091 159.335 Q2094.01 159.335 2095.63 158.317 Q2097.25 157.275 2097.25 155.4 Q2097.25 153.664 2096.07 152.738 Q2094.91 151.812 2090.95 150.956 L2089.47 150.608 Q2085.51 149.775 2083.75 148.062 Q2081.99 146.326 2081.99 143.317 Q2081.99 139.659 2084.59 137.669 Q2087.18 135.678 2091.95 135.678 Q2094.31 135.678 2096.39 136.025 Q2098.48 136.372 2100.24 137.067 Z" fill="#000000" fill-rule="nonzero" fill-opacity="1" /><path clip-path="url(#clip270)" d="M2112.62 128.942 L2112.62 136.303 L2121.39 136.303 L2121.39 139.613 L2112.62 139.613 L2112.62 153.687 Q2112.62 156.858 2113.48 157.761 Q2114.36 158.664 2117.02 158.664 L2121.39 158.664 L2121.39 162.229 L2117.02 162.229 Q2112.09 162.229 2110.21 160.4 Q2108.34 158.548 2108.34 153.687 L2108.34 139.613 L2105.21 139.613 L2105.21 136.303 L2108.34 136.303 L2108.34 128.942 L2112.62 128.942 Z" fill="#000000" fill-rule="nonzero" fill-opacity="1" /><path clip-path="url(#clip270)" d="M2137.04 139.289 Q2133.61 139.289 2131.62 141.974 Q2129.63 144.636 2129.63 149.289 Q2129.63 153.942 2131.6 156.627 Q2133.59 159.289 2137.04 159.289 Q2140.44 159.289 2142.43 156.604 Q2144.42 153.918 2144.42 149.289 Q2144.42 144.682 2142.43 141.997 Q2140.44 139.289 2137.04 139.289 M2137.04 135.678 Q2142.6 135.678 2145.77 139.289 Q2148.94 142.9 2148.94 149.289 Q2148.94 155.655 2145.77 159.289 Q2142.6 162.9 2137.04 162.9 Q2131.46 162.9 2128.29 159.289 Q2125.14 155.655 2125.14 149.289 Q2125.14 142.9 2128.29 139.289 Q2131.46 135.678 2137.04 135.678 Z" fill="#000000" fill-rule="nonzero" fill-opacity="1" /><path clip-path="url(#clip270)" d="M2171.02 140.284 Q2170.3 139.868 2169.45 139.682 Q2168.61 139.474 2167.6 139.474 Q2163.98 139.474 2162.04 141.835 Q2160.12 144.173 2160.12 148.571 L2160.12 162.229 L2155.84 162.229 L2155.84 136.303 L2160.12 136.303 L2160.12 140.331 Q2161.46 137.969 2163.61 136.835 Q2165.77 135.678 2168.85 135.678 Q2169.29 135.678 2169.82 135.747 Q2170.35 135.794 2171 135.909 L2171.02 140.284 Z" fill="#000000" fill-rule="nonzero" fill-opacity="1" /><path clip-path="url(#clip270)" d="M2187.27 149.196 Q2182.11 149.196 2180.12 150.377 Q2178.13 151.557 2178.13 154.405 Q2178.13 156.673 2179.61 158.016 Q2181.11 159.335 2183.68 159.335 Q2187.23 159.335 2189.36 156.835 Q2191.51 154.312 2191.51 150.145 L2191.51 149.196 L2187.27 149.196 M2195.77 147.437 L2195.77 162.229 L2191.51 162.229 L2191.51 158.293 Q2190.05 160.655 2187.87 161.789 Q2185.7 162.9 2182.55 162.9 Q2178.57 162.9 2176.21 160.678 Q2173.87 158.432 2173.87 154.682 Q2173.87 150.307 2176.79 148.085 Q2179.73 145.863 2185.54 145.863 L2191.51 145.863 L2191.51 145.446 Q2191.51 142.507 2189.56 140.909 Q2187.64 139.289 2184.15 139.289 Q2181.92 139.289 2179.82 139.821 Q2177.71 140.354 2175.77 141.419 L2175.77 137.483 Q2178.11 136.581 2180.3 136.141 Q2182.5 135.678 2184.59 135.678 Q2190.21 135.678 2192.99 138.594 Q2195.77 141.511 2195.77 147.437 Z" fill="#000000" fill-rule="nonzero" fill-opacity="1" /><path clip-path="url(#clip270)" d="M2221.6 148.965 Q2221.6 144.335 2219.68 141.789 Q2217.78 139.243 2214.33 139.243 Q2210.91 139.243 2208.98 141.789 Q2207.09 144.335 2207.09 148.965 Q2207.09 153.571 2208.98 156.118 Q2210.91 158.664 2214.33 158.664 Q2217.78 158.664 2219.68 156.118 Q2221.6 153.571 2221.6 148.965 M2225.86 159.011 Q2225.86 165.631 2222.92 168.849 Q2219.98 172.09 2213.92 172.09 Q2211.67 172.09 2209.68 171.742 Q2207.69 171.418 2205.81 170.724 L2205.81 166.58 Q2207.69 167.599 2209.52 168.085 Q2211.35 168.571 2213.24 168.571 Q2217.43 168.571 2219.52 166.372 Q2221.6 164.196 2221.6 159.775 L2221.6 157.668 Q2220.28 159.96 2218.22 161.094 Q2216.16 162.229 2213.29 162.229 Q2208.52 162.229 2205.6 158.594 Q2202.69 154.96 2202.69 148.965 Q2202.69 142.946 2205.6 139.312 Q2208.52 135.678 2213.29 135.678 Q2216.16 135.678 2218.22 136.812 Q2220.28 137.946 2221.6 140.238 L2221.6 136.303 L2225.86 136.303 L2225.86 159.011 Z" fill="#000000" fill-rule="nonzero" fill-opacity="1" /><path clip-path="url(#clip270)" d="M2256.81 148.201 L2256.81 150.284 L2237.23 150.284 Q2237.5 154.682 2239.86 156.997 Q2242.25 159.289 2246.48 159.289 Q2248.94 159.289 2251.23 158.687 Q2253.54 158.085 2255.81 156.881 L2255.81 160.909 Q2253.52 161.881 2251.11 162.391 Q2248.71 162.9 2246.23 162.9 Q2240.03 162.9 2236.39 159.289 Q2232.78 155.678 2232.78 149.52 Q2232.78 143.155 2236.21 139.428 Q2239.66 135.678 2245.49 135.678 Q2250.72 135.678 2253.75 139.057 Q2256.81 142.414 2256.81 148.201 M2252.55 146.951 Q2252.5 143.456 2250.58 141.372 Q2248.68 139.289 2245.54 139.289 Q2241.97 139.289 2239.82 141.303 Q2237.69 143.317 2237.36 146.974 L2252.55 146.951 Z" fill="#000000" fill-rule="nonzero" fill-opacity="1" /><polyline clip-path="url(#clip270)" style="stroke:#e26f46; stroke-linecap:round; stroke-linejoin:round; stroke-width:4; stroke-opacity:1; fill:none" points="1829.5,196.789 1973.42,196.789 "/>
<path clip-path="url(#clip270)" d="M1997.41 188.143 L2001.93 188.143 L2010.03 209.902 L2018.13 188.143 L2022.64 188.143 L2012.92 214.069 L2007.13 214.069 L1997.41 188.143 Z" fill="#000000" fill-rule="nonzero" fill-opacity="1" /><path clip-path="url(#clip270)" d="M2029.17 179.509 L2047.53 179.509 L2047.53 183.444 L2033.45 183.444 L2033.45 191.916 Q2034.47 191.569 2035.49 191.407 Q2036.51 191.222 2037.53 191.222 Q2043.31 191.222 2046.69 194.393 Q2050.07 197.564 2050.07 202.981 Q2050.07 208.559 2046.6 211.661 Q2043.13 214.74 2036.81 214.74 Q2034.63 214.74 2032.37 214.37 Q2030.12 213.999 2027.71 213.258 L2027.71 208.559 Q2029.8 209.694 2032.02 210.249 Q2034.24 210.805 2036.72 210.805 Q2040.72 210.805 2043.06 208.698 Q2045.4 206.592 2045.4 202.981 Q2045.4 199.37 2043.06 197.263 Q2040.72 195.157 2036.72 195.157 Q2034.84 195.157 2032.97 195.573 Q2031.12 195.99 2029.17 196.87 L2029.17 179.509 Z" fill="#000000" fill-rule="nonzero" fill-opacity="1" /><path clip-path="url(#clip270)" d="M2067.94 197.425 L2067.94 204.647 L2076.07 204.647 L2076.07 206.846 L2067.94 206.846 L2067.94 214.069 L2065.51 214.069 L2065.51 206.846 L2057.39 206.846 L2057.39 204.647 L2065.51 204.647 L2065.51 197.425 L2067.94 197.425 Z" fill="#000000" fill-rule="nonzero" fill-opacity="1" /><path clip-path="url(#clip270)" d="M2100.24 188.907 L2100.24 192.934 Q2098.43 192.009 2096.49 191.546 Q2094.54 191.083 2092.46 191.083 Q2089.29 191.083 2087.69 192.055 Q2086.11 193.027 2086.11 194.971 Q2086.11 196.453 2087.25 197.309 Q2088.38 198.143 2091.81 198.907 L2093.27 199.231 Q2097.8 200.203 2099.7 201.985 Q2101.62 203.745 2101.62 206.916 Q2101.62 210.527 2098.75 212.633 Q2095.91 214.74 2090.91 214.74 Q2088.82 214.74 2086.55 214.323 Q2084.31 213.93 2081.81 213.12 L2081.81 208.721 Q2084.17 209.948 2086.46 210.573 Q2088.75 211.175 2091 211.175 Q2094.01 211.175 2095.63 210.157 Q2097.25 209.115 2097.25 207.24 Q2097.25 205.504 2096.07 204.578 Q2094.91 203.652 2090.95 202.796 L2089.47 202.448 Q2085.51 201.615 2083.75 199.902 Q2081.99 198.166 2081.99 195.157 Q2081.99 191.499 2084.59 189.509 Q2087.18 187.518 2091.95 187.518 Q2094.31 187.518 2096.39 187.865 Q2098.48 188.212 2100.24 188.907 Z" fill="#000000" fill-rule="nonzero" fill-opacity="1" /><path clip-path="url(#clip270)" d="M2112.62 180.782 L2112.62 188.143 L2121.39 188.143 L2121.39 191.453 L2112.62 191.453 L2112.62 205.527 Q2112.62 208.698 2113.48 209.601 Q2114.36 210.504 2117.02 210.504 L2121.39 210.504 L2121.39 214.069 L2117.02 214.069 Q2112.09 214.069 2110.21 212.24 Q2108.34 210.388 2108.34 205.527 L2108.34 191.453 L2105.21 191.453 L2105.21 188.143 L2108.34 188.143 L2108.34 180.782 L2112.62 180.782 Z" fill="#000000" fill-rule="nonzero" fill-opacity="1" /><path clip-path="url(#clip270)" d="M2137.04 191.129 Q2133.61 191.129 2131.62 193.814 Q2129.63 196.476 2129.63 201.129 Q2129.63 205.782 2131.6 208.467 Q2133.59 211.129 2137.04 211.129 Q2140.44 211.129 2142.43 208.444 Q2144.42 205.758 2144.42 201.129 Q2144.42 196.522 2142.43 193.837 Q2140.44 191.129 2137.04 191.129 M2137.04 187.518 Q2142.6 187.518 2145.77 191.129 Q2148.94 194.74 2148.94 201.129 Q2148.94 207.495 2145.77 211.129 Q2142.6 214.74 2137.04 214.74 Q2131.46 214.74 2128.29 211.129 Q2125.14 207.495 2125.14 201.129 Q2125.14 194.74 2128.29 191.129 Q2131.46 187.518 2137.04 187.518 Z" fill="#000000" fill-rule="nonzero" fill-opacity="1" /><path clip-path="url(#clip270)" d="M2171.02 192.124 Q2170.3 191.708 2169.45 191.522 Q2168.61 191.314 2167.6 191.314 Q2163.98 191.314 2162.04 193.675 Q2160.12 196.013 2160.12 200.411 L2160.12 214.069 L2155.84 214.069 L2155.84 188.143 L2160.12 188.143 L2160.12 192.171 Q2161.46 189.809 2163.61 188.675 Q2165.77 187.518 2168.85 187.518 Q2169.29 187.518 2169.82 187.587 Q2170.35 187.634 2171 187.749 L2171.02 192.124 Z" fill="#000000" fill-rule="nonzero" fill-opacity="1" /><path clip-path="url(#clip270)" d="M2187.27 201.036 Q2182.11 201.036 2180.12 202.217 Q2178.13 203.397 2178.13 206.245 Q2178.13 208.513 2179.61 209.856 Q2181.11 211.175 2183.68 211.175 Q2187.23 211.175 2189.36 208.675 Q2191.51 206.152 2191.51 201.985 L2191.51 201.036 L2187.27 201.036 M2195.77 199.277 L2195.77 214.069 L2191.51 214.069 L2191.51 210.133 Q2190.05 212.495 2187.87 213.629 Q2185.7 214.74 2182.55 214.74 Q2178.57 214.74 2176.21 212.518 Q2173.87 210.272 2173.87 206.522 Q2173.87 202.147 2176.79 199.925 Q2179.73 197.703 2185.54 197.703 L2191.51 197.703 L2191.51 197.286 Q2191.51 194.347 2189.56 192.749 Q2187.64 191.129 2184.15 191.129 Q2181.92 191.129 2179.82 191.661 Q2177.71 192.194 2175.77 193.259 L2175.77 189.323 Q2178.11 188.421 2180.3 187.981 Q2182.5 187.518 2184.59 187.518 Q2190.21 187.518 2192.99 190.434 Q2195.77 193.351 2195.77 199.277 Z" fill="#000000" fill-rule="nonzero" fill-opacity="1" /><path clip-path="url(#clip270)" d="M2221.6 200.805 Q2221.6 196.175 2219.68 193.629 Q2217.78 191.083 2214.33 191.083 Q2210.91 191.083 2208.98 193.629 Q2207.09 196.175 2207.09 200.805 Q2207.09 205.411 2208.98 207.958 Q2210.91 210.504 2214.33 210.504 Q2217.78 210.504 2219.68 207.958 Q2221.6 205.411 2221.6 200.805 M2225.86 210.851 Q2225.86 217.471 2222.92 220.689 Q2219.98 223.93 2213.92 223.93 Q2211.67 223.93 2209.68 223.582 Q2207.69 223.258 2205.81 222.564 L2205.81 218.42 Q2207.69 219.439 2209.52 219.925 Q2211.35 220.411 2213.24 220.411 Q2217.43 220.411 2219.52 218.212 Q2221.6 216.036 2221.6 211.615 L2221.6 209.508 Q2220.28 211.8 2218.22 212.934 Q2216.16 214.069 2213.29 214.069 Q2208.52 214.069 2205.6 210.434 Q2202.69 206.8 2202.69 200.805 Q2202.69 194.786 2205.6 191.152 Q2208.52 187.518 2213.29 187.518 Q2216.16 187.518 2218.22 188.652 Q2220.28 189.786 2221.6 192.078 L2221.6 188.143 L2225.86 188.143 L2225.86 210.851 Z" fill="#000000" fill-rule="nonzero" fill-opacity="1" /><path clip-path="url(#clip270)" d="M2256.81 200.041 L2256.81 202.124 L2237.23 202.124 Q2237.5 206.522 2239.86 208.837 Q2242.25 211.129 2246.48 211.129 Q2248.94 211.129 2251.23 210.527 Q2253.54 209.925 2255.81 208.721 L2255.81 212.749 Q2253.52 213.721 2251.11 214.231 Q2248.71 214.74 2246.23 214.74 Q2240.03 214.74 2236.39 211.129 Q2232.78 207.518 2232.78 201.36 Q2232.78 194.995 2236.21 191.268 Q2239.66 187.518 2245.49 187.518 Q2250.72 187.518 2253.75 190.897 Q2256.81 194.254 2256.81 200.041 M2252.55 198.791 Q2252.5 195.296 2250.58 193.212 Q2248.68 191.129 2245.54 191.129 Q2241.97 191.129 2239.82 193.143 Q2237.69 195.157 2237.36 198.814 L2252.55 198.791 Z" fill="#000000" fill-rule="nonzero" fill-opacity="1" /></svg>
