<?xml version="1.0" encoding="utf-8"?>
<svg xmlns="http://www.w3.org/2000/svg" xmlns:xlink="http://www.w3.org/1999/xlink" width="600" height="400" viewBox="0 0 2400 1600">
<defs>
  <clipPath id="clip490">
    <rect x="0" y="0" width="2400" height="1600"/>
  </clipPath>
</defs>
<path clip-path="url(#clip490)" d="M0 1600 L2400 1600 L2400 0 L0 0  Z" fill="#ffffff" fill-rule="evenodd" fill-opacity="1"/>
<defs>
  <clipPath id="clip491">
    <rect x="480" y="0" width="1681" height="1600"/>
  </clipPath>
</defs>
<path clip-path="url(#clip490)" d="M156.274 1423.18 L2352.76 1423.18 L2352.76 47.2441 L156.274 47.2441  Z" fill="#ffffff" fill-rule="evenodd" fill-opacity="1"/>
<defs>
  <clipPath id="clip492">
    <rect x="156" y="47" width="2197" height="1377"/>
  </clipPath>
</defs>
<polyline clip-path="url(#clip492)" style="stroke:#000000; stroke-linecap:round; stroke-linejoin:round; stroke-width:2; stroke-opacity:0.1; fill:none" points="156.274,1423.18 156.274,47.2441 "/>
<polyline clip-path="url(#clip492)" style="stroke:#000000; stroke-linecap:round; stroke-linejoin:round; stroke-width:2; stroke-opacity:0.1; fill:none" points="705.395,1423.18 705.395,47.2441 "/>
<polyline clip-path="url(#clip492)" style="stroke:#000000; stroke-linecap:round; stroke-linejoin:round; stroke-width:2; stroke-opacity:0.1; fill:none" points="1254.52,1423.18 1254.52,47.2441 "/>
<polyline clip-path="url(#clip492)" style="stroke:#000000; stroke-linecap:round; stroke-linejoin:round; stroke-width:2; stroke-opacity:0.1; fill:none" points="1803.64,1423.18 1803.64,47.2441 "/>
<polyline clip-path="url(#clip492)" style="stroke:#000000; stroke-linecap:round; stroke-linejoin:round; stroke-width:2; stroke-opacity:0.1; fill:none" points="2352.76,1423.18 2352.76,47.2441 "/>
<polyline clip-path="url(#clip492)" style="stroke:#000000; stroke-linecap:round; stroke-linejoin:round; stroke-width:2; stroke-opacity:0.1; fill:none" points="156.274,1158.34 2352.76,1158.34 "/>
<polyline clip-path="url(#clip492)" style="stroke:#000000; stroke-linecap:round; stroke-linejoin:round; stroke-width:2; stroke-opacity:0.1; fill:none" points="156.274,864.294 2352.76,864.294 "/>
<polyline clip-path="url(#clip492)" style="stroke:#000000; stroke-linecap:round; stroke-linejoin:round; stroke-width:2; stroke-opacity:0.1; fill:none" points="156.274,570.25 2352.76,570.25 "/>
<polyline clip-path="url(#clip492)" style="stroke:#000000; stroke-linecap:round; stroke-linejoin:round; stroke-width:2; stroke-opacity:0.1; fill:none" points="156.274,276.207 2352.76,276.207 "/>
<polyline clip-path="url(#clip490)" style="stroke:#000000; stroke-linecap:round; stroke-linejoin:round; stroke-width:4; stroke-opacity:1; fill:none" points="156.274,1423.18 2352.76,1423.18 "/>
<polyline clip-path="url(#clip490)" style="stroke:#000000; stroke-linecap:round; stroke-linejoin:round; stroke-width:4; stroke-opacity:1; fill:none" points="156.274,1423.18 156.274,1404.28 "/>
<polyline clip-path="url(#clip490)" style="stroke:#000000; stroke-linecap:round; stroke-linejoin:round; stroke-width:4; stroke-opacity:1; fill:none" points="705.395,1423.18 705.395,1404.28 "/>
<polyline clip-path="url(#clip490)" style="stroke:#000000; stroke-linecap:round; stroke-linejoin:round; stroke-width:4; stroke-opacity:1; fill:none" points="1254.52,1423.18 1254.52,1404.28 "/>
<polyline clip-path="url(#clip490)" style="stroke:#000000; stroke-linecap:round; stroke-linejoin:round; stroke-width:4; stroke-opacity:1; fill:none" points="1803.64,1423.18 1803.64,1404.28 "/>
<polyline clip-path="url(#clip490)" style="stroke:#000000; stroke-linecap:round; stroke-linejoin:round; stroke-width:4; stroke-opacity:1; fill:none" points="2352.76,1423.18 2352.76,1404.28 "/>
<path clip-path="url(#clip490)" d="M133.659 1454.1 Q130.047 1454.1 128.219 1457.66 Q126.413 1461.2 126.413 1468.33 Q126.413 1475.44 128.219 1479.01 Q130.047 1482.55 133.659 1482.55 Q137.293 1482.55 139.098 1479.01 Q140.927 1475.44 140.927 1468.33 Q140.927 1461.2 139.098 1457.66 Q137.293 1454.1 133.659 1454.1 M133.659 1450.39 Q139.469 1450.39 142.524 1455 Q145.603 1459.58 145.603 1468.33 Q145.603 1477.06 142.524 1481.67 Q139.469 1486.25 133.659 1486.25 Q127.848 1486.25 124.77 1481.67 Q121.714 1477.06 121.714 1468.33 Q121.714 1459.58 124.77 1455 Q127.848 1450.39 133.659 1450.39 Z" fill="#000000" fill-rule="nonzero" fill-opacity="1" /><path clip-path="url(#clip490)" d="M153.82 1479.7 L158.705 1479.7 L158.705 1485.58 L153.82 1485.58 L153.82 1479.7 Z" fill="#000000" fill-rule="nonzero" fill-opacity="1" /><path clip-path="url(#clip490)" d="M178.89 1454.1 Q175.279 1454.1 173.45 1457.66 Q171.644 1461.2 171.644 1468.33 Q171.644 1475.44 173.45 1479.01 Q175.279 1482.55 178.89 1482.55 Q182.524 1482.55 184.33 1479.01 Q186.158 1475.44 186.158 1468.33 Q186.158 1461.2 184.33 1457.66 Q182.524 1454.1 178.89 1454.1 M178.89 1450.39 Q184.7 1450.39 187.755 1455 Q190.834 1459.58 190.834 1468.33 Q190.834 1477.06 187.755 1481.67 Q184.7 1486.25 178.89 1486.25 Q173.08 1486.25 170.001 1481.67 Q166.945 1477.06 166.945 1468.33 Q166.945 1459.58 170.001 1455 Q173.08 1450.39 178.89 1450.39 Z" fill="#000000" fill-rule="nonzero" fill-opacity="1" /><path clip-path="url(#clip490)" d="M683.277 1454.1 Q679.666 1454.1 677.837 1457.66 Q676.031 1461.2 676.031 1468.33 Q676.031 1475.44 677.837 1479.01 Q679.666 1482.55 683.277 1482.55 Q686.911 1482.55 688.716 1479.01 Q690.545 1475.44 690.545 1468.33 Q690.545 1461.2 688.716 1457.66 Q686.911 1454.1 683.277 1454.1 M683.277 1450.39 Q689.087 1450.39 692.142 1455 Q695.221 1459.58 695.221 1468.33 Q695.221 1477.06 692.142 1481.67 Q689.087 1486.25 683.277 1486.25 Q677.467 1486.25 674.388 1481.67 Q671.332 1477.06 671.332 1468.33 Q671.332 1459.58 674.388 1455 Q677.467 1450.39 683.277 1450.39 Z" fill="#000000" fill-rule="nonzero" fill-opacity="1" /><path clip-path="url(#clip490)" d="M703.439 1479.7 L708.323 1479.7 L708.323 1485.58 L703.439 1485.58 L703.439 1479.7 Z" fill="#000000" fill-rule="nonzero" fill-opacity="1" /><path clip-path="url(#clip490)" d="M718.554 1451.02 L736.911 1451.02 L736.911 1454.96 L722.837 1454.96 L722.837 1463.43 Q723.855 1463.08 724.874 1462.92 Q725.892 1462.73 726.911 1462.73 Q732.698 1462.73 736.077 1465.9 Q739.457 1469.08 739.457 1474.49 Q739.457 1480.07 735.985 1483.17 Q732.513 1486.25 726.193 1486.25 Q724.017 1486.25 721.749 1485.88 Q719.503 1485.51 717.096 1484.77 L717.096 1480.07 Q719.179 1481.2 721.401 1481.76 Q723.624 1482.32 726.101 1482.32 Q730.105 1482.32 732.443 1480.21 Q734.781 1478.1 734.781 1474.49 Q734.781 1470.88 732.443 1468.77 Q730.105 1466.67 726.101 1466.67 Q724.226 1466.67 722.351 1467.08 Q720.499 1467.5 718.554 1468.38 L718.554 1451.02 Z" fill="#000000" fill-rule="nonzero" fill-opacity="1" /><path clip-path="url(#clip490)" d="M1221.67 1481.64 L1229.31 1481.64 L1229.31 1455.28 L1221 1456.95 L1221 1452.69 L1229.26 1451.02 L1233.94 1451.02 L1233.94 1481.64 L1241.58 1481.64 L1241.58 1485.58 L1221.67 1485.58 L1221.67 1481.64 Z" fill="#000000" fill-rule="nonzero" fill-opacity="1" /><path clip-path="url(#clip490)" d="M1251.02 1479.7 L1255.9 1479.7 L1255.9 1485.58 L1251.02 1485.58 L1251.02 1479.7 Z" fill="#000000" fill-rule="nonzero" fill-opacity="1" /><path clip-path="url(#clip490)" d="M1276.09 1454.1 Q1272.48 1454.1 1270.65 1457.66 Q1268.84 1461.2 1268.84 1468.33 Q1268.84 1475.44 1270.65 1479.01 Q1272.48 1482.55 1276.09 1482.55 Q1279.72 1482.55 1281.53 1479.01 Q1283.36 1475.44 1283.36 1468.33 Q1283.36 1461.2 1281.53 1457.66 Q1279.72 1454.1 1276.09 1454.1 M1276.09 1450.39 Q1281.9 1450.39 1284.95 1455 Q1288.03 1459.58 1288.03 1468.33 Q1288.03 1477.06 1284.95 1481.67 Q1281.9 1486.25 1276.09 1486.25 Q1270.28 1486.25 1267.2 1481.67 Q1264.14 1477.06 1264.14 1468.33 Q1264.14 1459.58 1267.2 1455 Q1270.28 1450.39 1276.09 1450.39 Z" fill="#000000" fill-rule="nonzero" fill-opacity="1" /><path clip-path="url(#clip490)" d="M1771.29 1481.64 L1778.92 1481.64 L1778.92 1455.28 L1770.61 1456.95 L1770.61 1452.69 L1778.88 1451.02 L1783.55 1451.02 L1783.55 1481.64 L1791.19 1481.64 L1791.19 1485.58 L1771.29 1485.58 L1771.29 1481.64 Z" fill="#000000" fill-rule="nonzero" fill-opacity="1" /><path clip-path="url(#clip490)" d="M1800.64 1479.7 L1805.52 1479.7 L1805.52 1485.58 L1800.64 1485.58 L1800.64 1479.7 Z" fill="#000000" fill-rule="nonzero" fill-opacity="1" /><path clip-path="url(#clip490)" d="M1815.75 1451.02 L1834.11 1451.02 L1834.11 1454.96 L1820.04 1454.96 L1820.04 1463.43 Q1821.05 1463.08 1822.07 1462.92 Q1823.09 1462.73 1824.11 1462.73 Q1829.9 1462.73 1833.28 1465.9 Q1836.66 1469.08 1836.66 1474.49 Q1836.66 1480.07 1833.18 1483.17 Q1829.71 1486.25 1823.39 1486.25 Q1821.22 1486.25 1818.95 1485.88 Q1816.7 1485.51 1814.3 1484.77 L1814.3 1480.07 Q1816.38 1481.2 1818.6 1481.76 Q1820.82 1482.32 1823.3 1482.32 Q1827.3 1482.32 1829.64 1480.21 Q1831.98 1478.1 1831.98 1474.49 Q1831.98 1470.88 1829.64 1468.77 Q1827.3 1466.67 1823.3 1466.67 Q1821.42 1466.67 1819.55 1467.08 Q1817.7 1467.5 1815.75 1468.38 L1815.75 1451.02 Z" fill="#000000" fill-rule="nonzero" fill-opacity="1" /><path clip-path="url(#clip490)" d="M2323.99 1481.64 L2340.31 1481.64 L2340.31 1485.58 L2318.37 1485.58 L2318.37 1481.64 Q2321.03 1478.89 2325.61 1474.26 Q2330.22 1469.61 2331.4 1468.27 Q2333.65 1465.74 2334.53 1464.01 Q2335.43 1462.25 2335.43 1460.56 Q2335.43 1457.8 2333.49 1456.07 Q2331.56 1454.33 2328.46 1454.33 Q2326.26 1454.33 2323.81 1455.09 Q2321.38 1455.86 2318.6 1457.41 L2318.6 1452.69 Q2321.43 1451.55 2323.88 1450.97 Q2326.33 1450.39 2328.37 1450.39 Q2333.74 1450.39 2336.93 1453.08 Q2340.13 1455.77 2340.13 1460.26 Q2340.13 1462.39 2339.32 1464.31 Q2338.53 1466.2 2336.42 1468.8 Q2335.85 1469.47 2332.74 1472.69 Q2329.64 1475.88 2323.99 1481.64 Z" fill="#000000" fill-rule="nonzero" fill-opacity="1" /><path clip-path="url(#clip490)" d="M2350.13 1479.7 L2355.01 1479.7 L2355.01 1485.58 L2350.13 1485.58 L2350.13 1479.7 Z" fill="#000000" fill-rule="nonzero" fill-opacity="1" /><path clip-path="url(#clip490)" d="M2375.2 1454.1 Q2371.59 1454.1 2369.76 1457.66 Q2367.95 1461.2 2367.95 1468.33 Q2367.95 1475.44 2369.76 1479.01 Q2371.59 1482.55 2375.2 1482.55 Q2378.83 1482.55 2380.64 1479.01 Q2382.47 1475.44 2382.47 1468.33 Q2382.47 1461.2 2380.64 1457.66 Q2378.83 1454.1 2375.2 1454.1 M2375.2 1450.39 Q2381.01 1450.39 2384.06 1455 Q2387.14 1459.58 2387.14 1468.33 Q2387.14 1477.06 2384.06 1481.67 Q2381.01 1486.25 2375.2 1486.25 Q2369.39 1486.25 2366.31 1481.67 Q2363.25 1477.06 2363.25 1468.33 Q2363.25 1459.58 2366.31 1455 Q2369.39 1450.39 2375.2 1450.39 Z" fill="#000000" fill-rule="nonzero" fill-opacity="1" /><path clip-path="url(#clip490)" d="M1253.58 1522.27 L1253.58 1532.4 L1265.64 1532.4 L1265.64 1536.95 L1253.58 1536.95 L1253.58 1556.3 Q1253.58 1560.66 1254.75 1561.9 Q1255.96 1563.14 1259.62 1563.14 L1265.64 1563.14 L1265.64 1568.04 L1259.62 1568.04 Q1252.84 1568.04 1250.27 1565.53 Q1247.69 1562.98 1247.69 1556.3 L1247.69 1536.95 L1243.39 1536.95 L1243.39 1532.4 L1247.69 1532.4 L1247.69 1522.27 L1253.58 1522.27 Z" fill="#000000" fill-rule="nonzero" fill-opacity="1" /><polyline clip-path="url(#clip490)" style="stroke:#000000; stroke-linecap:round; stroke-linejoin:round; stroke-width:4; stroke-opacity:1; fill:none" points="156.274,1423.18 156.274,47.2441 "/>
<polyline clip-path="url(#clip490)" style="stroke:#000000; stroke-linecap:round; stroke-linejoin:round; stroke-width:4; stroke-opacity:1; fill:none" points="156.274,1158.34 175.172,1158.34 "/>
<polyline clip-path="url(#clip490)" style="stroke:#000000; stroke-linecap:round; stroke-linejoin:round; stroke-width:4; stroke-opacity:1; fill:none" points="156.274,864.294 175.172,864.294 "/>
<polyline clip-path="url(#clip490)" style="stroke:#000000; stroke-linecap:round; stroke-linejoin:round; stroke-width:4; stroke-opacity:1; fill:none" points="156.274,570.25 175.172,570.25 "/>
<polyline clip-path="url(#clip490)" style="stroke:#000000; stroke-linecap:round; stroke-linejoin:round; stroke-width:4; stroke-opacity:1; fill:none" points="156.274,276.207 175.172,276.207 "/>
<path clip-path="url(#clip490)" d="M63.0985 1144.14 Q59.4875 1144.14 57.6588 1147.7 Q55.8532 1151.24 55.8532 1158.37 Q55.8532 1165.48 57.6588 1169.04 Q59.4875 1172.58 63.0985 1172.58 Q66.7328 1172.58 68.5383 1169.04 Q70.367 1165.48 70.367 1158.37 Q70.367 1151.24 68.5383 1147.7 Q66.7328 1144.14 63.0985 1144.14 M63.0985 1140.43 Q68.9087 1140.43 71.9642 1145.04 Q75.0429 1149.62 75.0429 1158.37 Q75.0429 1167.1 71.9642 1171.71 Q68.9087 1176.29 63.0985 1176.29 Q57.2884 1176.29 54.2097 1171.71 Q51.1542 1167.1 51.1542 1158.37 Q51.1542 1149.62 54.2097 1145.04 Q57.2884 1140.43 63.0985 1140.43 Z" fill="#000000" fill-rule="nonzero" fill-opacity="1" /><path clip-path="url(#clip490)" d="M83.2605 1169.74 L88.1447 1169.74 L88.1447 1175.62 L83.2605 1175.62 L83.2605 1169.74 Z" fill="#000000" fill-rule="nonzero" fill-opacity="1" /><path clip-path="url(#clip490)" d="M108.33 1144.14 Q104.719 1144.14 102.89 1147.7 Q101.084 1151.24 101.084 1158.37 Q101.084 1165.48 102.89 1169.04 Q104.719 1172.58 108.33 1172.58 Q111.964 1172.58 113.77 1169.04 Q115.598 1165.48 115.598 1158.37 Q115.598 1151.24 113.77 1147.7 Q111.964 1144.14 108.33 1144.14 M108.33 1140.43 Q114.14 1140.43 117.195 1145.04 Q120.274 1149.62 120.274 1158.37 Q120.274 1167.1 117.195 1171.71 Q114.14 1176.29 108.33 1176.29 Q102.52 1176.29 99.4409 1171.71 Q96.3854 1167.1 96.3854 1158.37 Q96.3854 1149.62 99.4409 1145.04 Q102.52 1140.43 108.33 1140.43 Z" fill="#000000" fill-rule="nonzero" fill-opacity="1" /><path clip-path="url(#clip490)" d="M63.7467 850.092 Q60.1356 850.092 58.3069 853.657 Q56.5014 857.199 56.5014 864.328 Q56.5014 871.435 58.3069 875 Q60.1356 878.541 63.7467 878.541 Q67.3809 878.541 69.1865 875 Q71.0152 871.435 71.0152 864.328 Q71.0152 857.199 69.1865 853.657 Q67.3809 850.092 63.7467 850.092 M63.7467 846.389 Q69.5568 846.389 72.6124 850.995 Q75.6911 855.579 75.6911 864.328 Q75.6911 873.055 72.6124 877.662 Q69.5568 882.245 63.7467 882.245 Q57.9365 882.245 54.8578 877.662 Q51.8023 873.055 51.8023 864.328 Q51.8023 855.579 54.8578 850.995 Q57.9365 846.389 63.7467 846.389 Z" fill="#000000" fill-rule="nonzero" fill-opacity="1" /><path clip-path="url(#clip490)" d="M83.9086 875.694 L88.7928 875.694 L88.7928 881.574 L83.9086 881.574 L83.9086 875.694 Z" fill="#000000" fill-rule="nonzero" fill-opacity="1" /><path clip-path="url(#clip490)" d="M113.145 862.94 Q116.501 863.657 118.376 865.926 Q120.274 868.194 120.274 871.528 Q120.274 876.643 116.756 879.444 Q113.237 882.245 106.756 882.245 Q104.58 882.245 102.265 881.805 Q99.9733 881.389 97.5197 880.532 L97.5197 876.018 Q99.4641 877.152 101.779 877.731 Q104.094 878.31 106.617 878.31 Q111.015 878.31 113.307 876.574 Q115.621 874.838 115.621 871.528 Q115.621 868.472 113.469 866.759 Q111.339 865.023 107.52 865.023 L103.492 865.023 L103.492 861.18 L107.705 861.18 Q111.154 861.18 112.983 859.815 Q114.811 858.426 114.811 855.833 Q114.811 853.171 112.913 851.759 Q111.038 850.324 107.52 850.324 Q105.598 850.324 103.399 850.741 Q101.2 851.157 98.5613 852.037 L98.5613 847.87 Q101.223 847.129 103.538 846.759 Q105.876 846.389 107.936 846.389 Q113.26 846.389 116.362 848.819 Q119.464 851.227 119.464 855.347 Q119.464 858.217 117.82 860.208 Q116.177 862.176 113.145 862.94 Z" fill="#000000" fill-rule="nonzero" fill-opacity="1" /><path clip-path="url(#clip490)" d="M62.9365 556.049 Q59.3254 556.049 57.4967 559.614 Q55.6912 563.155 55.6912 570.285 Q55.6912 577.391 57.4967 580.956 Q59.3254 584.498 62.9365 584.498 Q66.5707 584.498 68.3763 580.956 Q70.205 577.391 70.205 570.285 Q70.205 563.155 68.3763 559.614 Q66.5707 556.049 62.9365 556.049 M62.9365 552.345 Q68.7467 552.345 71.8022 556.952 Q74.8809 561.535 74.8809 570.285 Q74.8809 579.012 71.8022 583.618 Q68.7467 588.201 62.9365 588.201 Q57.1264 588.201 54.0477 583.618 Q50.9921 579.012 50.9921 570.285 Q50.9921 561.535 54.0477 556.952 Q57.1264 552.345 62.9365 552.345 Z" fill="#000000" fill-rule="nonzero" fill-opacity="1" /><path clip-path="url(#clip490)" d="M83.0984 581.651 L87.9827 581.651 L87.9827 587.53 L83.0984 587.53 L83.0984 581.651 Z" fill="#000000" fill-rule="nonzero" fill-opacity="1" /><path clip-path="url(#clip490)" d="M108.746 568.387 Q105.598 568.387 103.746 570.54 Q101.918 572.692 101.918 576.442 Q101.918 580.169 103.746 582.345 Q105.598 584.498 108.746 584.498 Q111.895 584.498 113.723 582.345 Q115.575 580.169 115.575 576.442 Q115.575 572.692 113.723 570.54 Q111.895 568.387 108.746 568.387 M118.029 553.734 L118.029 557.993 Q116.27 557.16 114.464 556.72 Q112.682 556.28 110.922 556.28 Q106.293 556.28 103.839 559.405 Q101.409 562.53 101.061 568.85 Q102.427 566.836 104.487 565.771 Q106.547 564.683 109.024 564.683 Q114.233 564.683 117.242 567.854 Q120.274 571.002 120.274 576.442 Q120.274 581.766 117.126 584.984 Q113.978 588.201 108.746 588.201 Q102.751 588.201 99.5798 583.618 Q96.4085 579.012 96.4085 570.285 Q96.4085 562.09 100.297 557.229 Q104.186 552.345 110.737 552.345 Q112.496 552.345 114.279 552.692 Q116.084 553.04 118.029 553.734 Z" fill="#000000" fill-rule="nonzero" fill-opacity="1" /><path clip-path="url(#clip490)" d="M63.2837 262.005 Q59.6726 262.005 57.8439 265.57 Q56.0384 269.112 56.0384 276.241 Q56.0384 283.348 57.8439 286.913 Q59.6726 290.454 63.2837 290.454 Q66.918 290.454 68.7235 286.913 Q70.5522 283.348 70.5522 276.241 Q70.5522 269.112 68.7235 265.57 Q66.918 262.005 63.2837 262.005 M63.2837 258.302 Q69.0939 258.302 72.1494 262.908 Q75.2281 267.491 75.2281 276.241 Q75.2281 284.968 72.1494 289.575 Q69.0939 294.158 63.2837 294.158 Q57.4736 294.158 54.3949 289.575 Q51.3393 284.968 51.3393 276.241 Q51.3393 267.491 54.3949 262.908 Q57.4736 258.302 63.2837 258.302 Z" fill="#000000" fill-rule="nonzero" fill-opacity="1" /><path clip-path="url(#clip490)" d="M83.4457 287.607 L88.3299 287.607 L88.3299 293.487 L83.4457 293.487 L83.4457 287.607 Z" fill="#000000" fill-rule="nonzero" fill-opacity="1" /><path clip-path="url(#clip490)" d="M98.6539 292.769 L98.6539 288.51 Q100.413 289.343 102.219 289.783 Q104.024 290.223 105.76 290.223 Q110.39 290.223 112.82 287.121 Q115.274 283.996 115.621 277.653 Q114.279 279.644 112.219 280.709 Q110.158 281.774 107.658 281.774 Q102.473 281.774 99.4409 278.649 Q96.4317 275.501 96.4317 270.061 Q96.4317 264.737 99.5798 261.519 Q102.728 258.302 107.959 258.302 Q113.955 258.302 117.103 262.908 Q120.274 267.491 120.274 276.241 Q120.274 284.413 116.385 289.297 Q112.52 294.158 105.969 294.158 Q104.209 294.158 102.404 293.811 Q100.598 293.463 98.6539 292.769 M107.959 278.116 Q111.108 278.116 112.936 275.964 Q114.788 273.811 114.788 270.061 Q114.788 266.334 112.936 264.181 Q111.108 262.005 107.959 262.005 Q104.811 262.005 102.959 264.181 Q101.131 266.334 101.131 270.061 Q101.131 273.811 102.959 275.964 Q104.811 278.116 107.959 278.116 Z" fill="#000000" fill-rule="nonzero" fill-opacity="1" /><polyline clip-path="url(#clip492)" style="stroke:#009af9; stroke-linecap:round; stroke-linejoin:round; stroke-width:4; stroke-opacity:1; fill:none" points="156.274,86.1857 158.473,99.0581 160.672,111.802 162.87,124.42 165.069,136.911 167.268,149.278 169.466,161.523 171.665,173.645 173.864,185.646 176.062,197.528 178.261,209.291 180.46,220.937 182.658,232.468 184.857,243.883 187.056,255.185 189.254,266.374 191.453,277.452 193.652,288.419 195.85,299.277 198.049,310.027 200.248,320.67 202.446,331.207 204.645,341.638 206.844,351.966 209.042,362.192 211.241,372.315 213.44,382.337 215.639,392.26 217.837,402.084 220.036,411.81 222.235,421.439 224.433,430.973 226.632,440.411 228.831,449.755 231.029,459.007 233.228,468.166 235.427,477.234 237.625,486.211 239.824,495.1 242.023,503.899 244.221,512.611 246.42,521.236 248.619,529.776 250.817,538.23 253.016,546.6 255.215,554.886 257.413,563.09 259.612,571.213 261.811,579.254 264.01,587.215 266.208,595.097 268.407,602.901 270.606,610.627 272.804,618.276 275.003,625.848 277.202,633.345 279.4,640.768 281.599,648.117 283.798,655.392 285.996,662.595 288.195,669.726 290.394,676.787 292.592,683.777 294.791,690.697 296.99,697.548 299.188,704.332 301.387,711.048 303.586,717.697 305.784,724.279 307.983,730.796 310.182,737.249 312.38,743.637 314.579,749.961 316.778,756.222 318.977,762.421 321.175,768.558 323.374,774.634 325.573,780.65 327.771,786.605 329.97,792.502 332.169,798.339 334.367,804.118 336.566,809.84 338.765,815.505 340.963,821.113 343.162,826.665 345.361,832.162 347.559,837.604 349.758,842.993 351.957,848.327 354.155,853.608 356.354,858.837 358.553,864.013 360.751,869.138 362.95,874.212 365.149,879.236 367.347,884.209 369.546,889.133 371.745,894.008 373.944,898.834 376.142,903.612 378.341,908.343 380.54,913.027 382.738,917.664 384.937,922.254 387.136,926.8 389.334,931.299 391.533,935.755 393.732,940.165 395.93,944.532 398.129,948.856 400.328,953.136 402.526,957.374 404.725,961.57 406.924,965.723 409.122,969.836 411.321,973.907 413.52,977.938 415.718,981.929 417.917,985.879 420.116,989.791 422.314,993.663 424.513,997.497 426.712,1001.29 428.911,1005.05 431.109,1008.77 433.308,1012.45 435.507,1016.1 437.705,1019.71 439.904,1023.29 442.103,1026.82 444.301,1030.33 446.5,1033.8 448.699,1037.23 450.897,1040.63 453.096,1044 455.295,1047.33 457.493,1050.63 459.692,1053.89 461.891,1057.13 464.089,1060.33 466.288,1063.5 468.487,1066.64 470.685,1069.74 472.884,1072.82 475.083,1075.86 477.282,1078.88 479.48,1081.86 481.679,1084.82 483.878,1087.75 486.076,1090.64 488.275,1093.51 490.474,1096.35 492.672,1099.16 494.871,1101.94 497.07,1104.7 499.268,1107.43 501.467,1110.13 503.666,1112.8 505.864,1115.45 508.063,1118.07 510.262,1120.67 512.46,1123.24 514.659,1125.78 516.858,1128.3 519.056,1130.79 521.255,1133.26 523.454,1135.7 525.652,1138.12 527.851,1140.52 530.05,1142.89 532.249,1145.24 534.447,1147.56 536.646,1149.86 538.845,1152.14 541.043,1154.39 543.242,1156.63 545.441,1158.84 547.639,1161.03 549.838,1163.19 552.037,1165.34 554.235,1167.46 556.434,1169.57 558.633,1171.65 560.831,1173.71 563.03,1175.75 565.229,1177.77 567.427,1179.77 569.626,1181.75 571.825,1183.71 574.023,1185.65 576.222,1187.57 578.421,1189.47 580.619,1191.36 582.818,1193.22 585.017,1195.07 587.216,1196.89 589.414,1198.7 591.613,1200.5 593.812,1202.27 596.01,1204.03 598.209,1205.76 600.408,1207.49 602.606,1209.19 604.805,1210.88 607.004,1212.55 609.202,1214.2 611.401,1215.84 613.6,1217.46 615.798,1219.06 617.997,1220.65 620.196,1222.23 622.394,1223.78 624.593,1225.33 626.792,1226.85 628.99,1228.36 631.189,1229.86 633.388,1231.34 635.586,1232.81 637.785,1234.26 639.984,1235.7 642.183,1237.12 644.381,1238.53 646.58,1239.93 648.779,1241.31 650.977,1242.67 653.176,1244.03 655.375,1245.37 657.573,1246.69 659.772,1248.01 661.971,1249.31 664.169,1250.6 666.368,1251.87 668.567,1253.13 670.765,1254.38 672.964,1255.62 675.163,1256.84 677.361,1258.06 679.56,1259.26 681.759,1260.44 683.957,1261.62 686.156,1262.79 688.355,1263.94 690.554,1265.08 692.752,1266.21 694.951,1267.33 697.15,1268.44 699.348,1269.54 701.547,1270.62 703.746,1271.7 705.944,1272.76 708.143,1273.82 710.342,1274.86 712.54,1275.89 714.739,1276.91 716.938,1277.93 719.136,1278.93 721.335,1279.92 723.534,1280.91 725.732,1281.88 727.931,1282.84 730.13,1283.8 732.328,1284.74 734.527,1285.67 736.726,1286.6 738.924,1287.52 741.123,1288.42 743.322,1289.32 745.521,1290.21 747.719,1291.09 749.918,1291.96 752.117,1292.83 754.315,1293.68 756.514,1294.53 758.713,1295.36 760.911,1296.19 763.11,1297.01 765.309,1297.83 767.507,1298.63 769.706,1299.43 771.905,1300.22 774.103,1301 776.302,1301.77 778.501,1302.53 780.699,1303.29 782.898,1304.04 785.097,1304.78 787.295,1305.52 789.494,1306.25 791.693,1306.97 793.891,1307.68 796.09,1308.39 798.289,1309.09 800.488,1309.78 802.686,1310.46 804.885,1311.14 807.084,1311.81 809.282,1312.48 811.481,1313.14 813.68,1313.79 815.878,1314.43 818.077,1315.07 820.276,1315.7 822.474,1316.33 824.673,1316.95 826.872,1317.56 829.07,1318.17 831.269,1318.77 833.468,1319.37 835.666,1319.96 837.865,1320.54 840.064,1321.12 842.262,1321.69 844.461,1322.26 846.66,1322.82 848.858,1323.37 851.057,1323.92 853.256,1324.47 855.455,1325.01 857.653,1325.54 859.852,1326.07 862.051,1326.59 864.249,1327.11 866.448,1327.62 868.647,1328.13 870.845,1328.63 873.044,1329.13 875.243,1329.62 877.441,1330.11 879.64,1330.6 881.839,1331.07 884.037,1331.55 886.236,1332.02 888.435,1332.48 890.633,1332.94 892.832,1333.39 895.031,1333.84 897.229,1334.29 899.428,1334.73 901.627,1335.17 903.826,1335.6 906.024,1336.03 908.223,1336.45 910.422,1336.87 912.62,1337.29 914.819,1337.7 917.018,1338.11 919.216,1338.51 921.415,1338.91 923.614,1339.31 925.812,1339.7 928.011,1340.08 930.21,1340.47 932.408,1340.85 934.607,1341.22 936.806,1341.6 939.004,1341.96 941.203,1342.33 943.402,1342.69 945.6,1343.05 947.799,1343.4 949.998,1343.75 952.196,1344.1 954.395,1344.44 956.594,1344.78 958.793,1345.12 960.991,1345.45 963.19,1345.78 965.389,1346.11 967.587,1346.43 969.786,1346.75 971.985,1347.07 974.183,1347.38 976.382,1347.69 978.581,1348 980.779,1348.3 982.978,1348.6 985.177,1348.9 987.375,1349.2 989.574,1349.49 991.773,1349.78 993.971,1350.07 996.17,1350.35 998.369,1350.63 1000.57,1350.91 1002.77,1351.19 1004.96,1351.46 1007.16,1351.73 1009.36,1352 1011.56,1352.26 1013.76,1352.52 1015.96,1352.78 1018.16,1353.04 1020.36,1353.29 1022.55,1353.55 1024.75,1353.8 1026.95,1354.04 1029.15,1354.29 1031.35,1354.53 1033.55,1354.77 1035.75,1355.01 1037.95,1355.24 1040.14,1355.47 1042.34,1355.7 1044.54,1355.93 1046.74,1356.16 1048.94,1356.38 1051.14,1356.6 1053.34,1356.82 1055.53,1357.04 1057.73,1357.25 1059.93,1357.47 1062.13,1357.68 1064.33,1357.89 1066.53,1358.09 1068.73,1358.3 1070.93,1358.5 1073.12,1358.7 1075.32,1358.9 1077.52,1359.09 1079.72,1359.29 1081.92,1359.48 1084.12,1359.67 1086.32,1359.86 1088.51,1360.05 1090.71,1360.23 1092.91,1360.41 1095.11,1360.59 1097.31,1360.77 1099.51,1360.95 1101.71,1361.13 1103.91,1361.3 1106.1,1361.47 1108.3,1361.64 1110.5,1361.81 1112.7,1361.98 1114.9,1362.14 1117.1,1362.31 1119.3,1362.47 1121.49,1362.63 1123.69,1362.79 1125.89,1362.95 1128.09,1363.1 1130.29,1363.26 1132.49,1363.41 1134.69,1363.56 1136.89,1363.71 1139.08,1363.86 1141.28,1364 1143.48,1364.15 1145.68,1364.29 1147.88,1364.43 1150.08,1364.57 1152.28,1364.71 1154.48,1364.85 1156.67,1364.99 1158.87,1365.12 1161.07,1365.26 1163.27,1365.39 1165.47,1365.52 1167.67,1365.65 1169.87,1365.78 1172.06,1365.91 1174.26,1366.03 1176.46,1366.16 1178.66,1366.28 1180.86,1366.4 1183.06,1366.53 1185.26,1366.65 1187.46,1366.76 1189.65,1366.88 1191.85,1367 1194.05,1367.11 1196.25,1367.23 1198.45,1367.34 1200.65,1367.45 1202.85,1367.56 1205.04,1367.67 1207.24,1367.78 1209.44,1367.89 1211.64,1368 1213.84,1368.1 1216.04,1368.21 1218.24,1368.31 1220.44,1368.41 1222.63,1368.51 1224.83,1368.61 1227.03,1368.71 1229.23,1368.81 1231.43,1368.91 1233.63,1369.01 1235.83,1369.1 1238.02,1369.2 1240.22,1369.29 1242.42,1369.38 1244.62,1369.48 1246.82,1369.57 1249.02,1369.66 1251.22,1369.75 1253.42,1369.83 1255.61,1369.92 1257.81,1370.01 1260.01,1370.09 1262.21,1370.18 1264.41,1370.26 1266.61,1370.34 1268.81,1370.43 1271.01,1370.51 1273.2,1370.59 1275.4,1370.67 1277.6,1370.75 1279.8,1370.83 1282,1370.9 1284.2,1370.98 1286.4,1371.06 1288.59,1371.13 1290.79,1371.21 1292.99,1371.28 1295.19,1371.35 1297.39,1371.42 1299.59,1371.49 1301.79,1371.57 1303.99,1371.64 1306.18,1371.7 1308.38,1371.77 1310.58,1371.84 1312.78,1371.91 1314.98,1371.97 1317.18,1372.04 1319.38,1372.11 1321.57,1372.17 1323.77,1372.23 1325.97,1372.3 1328.17,1372.36 1330.37,1372.42 1332.57,1372.48 1334.77,1372.54 1336.97,1372.6 1339.16,1372.66 1341.36,1372.72 1343.56,1372.78 1345.76,1372.84 1347.96,1372.89 1350.16,1372.95 1352.36,1373.01 1354.55,1373.06 1356.75,1373.12 1358.95,1373.17 1361.15,1373.22 1363.35,1373.28 1365.55,1373.33 1367.75,1373.38 1369.95,1373.43 1372.14,1373.49 1374.34,1373.54 1376.54,1373.59 1378.74,1373.64 1380.94,1373.68 1383.14,1373.73 1385.34,1373.78 1387.54,1373.83 1389.73,1373.88 1391.93,1373.92 1394.13,1373.97 1396.33,1374.02 1398.53,1374.06 1400.73,1374.11 1402.93,1374.15 1405.12,1374.19 1407.32,1374.24 1409.52,1374.28 1411.72,1374.32 1413.92,1374.37 1416.12,1374.41 1418.32,1374.45 1420.52,1374.49 1422.71,1374.53 1424.91,1374.57 1427.11,1374.61 1429.31,1374.65 1431.51,1374.69 1433.71,1374.73 1435.91,1374.77 1438.1,1374.81 1440.3,1374.84 1442.5,1374.88 1444.7,1374.92 1446.9,1374.96 1449.1,1374.99 1451.3,1375.03 1453.5,1375.06 1455.69,1375.1 1457.89,1375.13 1460.09,1375.17 1462.29,1375.2 1464.49,1375.24 1466.69,1375.27 1468.89,1375.3 1471.09,1375.34 1473.28,1375.37 1475.48,1375.4 1477.68,1375.43 1479.88,1375.46 1482.08,1375.49 1484.28,1375.53 1486.48,1375.56 1488.67,1375.59 1490.87,1375.62 1493.07,1375.65 1495.27,1375.68 1497.47,1375.7 1499.67,1375.73 1501.87,1375.76 1504.07,1375.79 1506.26,1375.82 1508.46,1375.85 1510.66,1375.87 1512.86,1375.9 1515.06,1375.93 1517.26,1375.95 1519.46,1375.98 1521.65,1376.01 1523.85,1376.03 1526.05,1376.06 1528.25,1376.08 1530.45,1376.11 1532.65,1376.13 1534.85,1376.16 1537.05,1376.18 1539.24,1376.2 1541.44,1376.23 1543.64,1376.25 1545.84,1376.28 1548.04,1376.3 1550.24,1376.32 1552.44,1376.34 1554.63,1376.37 1556.83,1376.39 1559.03,1376.41 1561.23,1376.43 1563.43,1376.45 1565.63,1376.47 1567.83,1376.49 1570.03,1376.52 1572.22,1376.54 1574.42,1376.56 1576.62,1376.58 1578.82,1376.6 1581.02,1376.62 1583.22,1376.64 1585.42,1376.65 1587.62,1376.67 1589.81,1376.69 1592.01,1376.71 1594.21,1376.73 1596.41,1376.75 1598.61,1376.77 1600.81,1376.78 1603.01,1376.8 1605.2,1376.82 1607.4,1376.84 1609.6,1376.85 1611.8,1376.87 1614,1376.89 1616.2,1376.9 1618.4,1376.92 1620.6,1376.94 1622.79,1376.95 1624.99,1376.97 1627.19,1376.99 1629.39,1377 1631.59,1377.02 1633.79,1377.03 1635.99,1377.05 1638.18,1377.06 1640.38,1377.08 1642.58,1377.09 1644.78,1377.11 1646.98,1377.12 1649.18,1377.14 1651.38,1377.15 1653.58,1377.17 1655.77,1377.18 1657.97,1377.19 1660.17,1377.21 1662.37,1377.22 1664.57,1377.23 1666.77,1377.25 1668.97,1377.26 1671.16,1377.27 1673.36,1377.29 1675.56,1377.3 1677.76,1377.31 1679.96,1377.33 1682.16,1377.34 1684.36,1377.35 1686.56,1377.36 1688.75,1377.38 1690.95,1377.39 1693.15,1377.4 1695.35,1377.41 1697.55,1377.42 1699.75,1377.43 1701.95,1377.45 1704.15,1377.46 1706.34,1377.47 1708.54,1377.48 1710.74,1377.49 1712.94,1377.5 1715.14,1377.51 1717.34,1377.52 1719.54,1377.53 1721.73,1377.55 1723.93,1377.56 1726.13,1377.57 1728.33,1377.58 1730.53,1377.59 1732.73,1377.6 1734.93,1377.61 1737.13,1377.62 1739.32,1377.63 1741.52,1377.64 1743.72,1377.65 1745.92,1377.65 1748.12,1377.66 1750.32,1377.67 1752.52,1377.68 1754.71,1377.69 1756.91,1377.7 1759.11,1377.71 1761.31,1377.72 1763.51,1377.73 1765.71,1377.74 1767.91,1377.74 1770.11,1377.75 1772.3,1377.76 1774.5,1377.77 1776.7,1377.78 1778.9,1377.79 1781.1,1377.79 1783.3,1377.8 1785.5,1377.81 1787.7,1377.82 1789.89,1377.83 1792.09,1377.83 1794.29,1377.84 1796.49,1377.85 1798.69,1377.86 1800.89,1377.86 1803.09,1377.87 1805.28,1377.88 1807.48,1377.88 1809.68,1377.89 1811.88,1377.9 1814.08,1377.9 1816.28,1377.91 1818.48,1377.92 1820.68,1377.92 1822.87,1377.93 1825.07,1377.94 1827.27,1377.94 1829.47,1377.95 1831.67,1377.96 1833.87,1377.96 1836.07,1377.97 1838.26,1377.98 1840.46,1377.98 1842.66,1377.99 1844.86,1377.99 1847.06,1378 1849.26,1378 1851.46,1378.01 1853.66,1378.02 1855.85,1378.02 1858.05,1378.03 1860.25,1378.03 1862.45,1378.04 1864.65,1378.04 1866.85,1378.05 1869.05,1378.05 1871.24,1378.06 1873.44,1378.06 1875.64,1378.07 1877.84,1378.07 1880.04,1378.08 1882.24,1378.08 1884.44,1378.09 1886.64,1378.09 1888.83,1378.1 1891.03,1378.1 1893.23,1378.11 1895.43,1378.11 1897.63,1378.12 1899.83,1378.12 1902.03,1378.13 1904.23,1378.13 1906.42,1378.13 1908.62,1378.14 1910.82,1378.14 1913.02,1378.15 1915.22,1378.15 1917.42,1378.16 1919.62,1378.16 1921.81,1378.16 1924.01,1378.17 1926.21,1378.17 1928.41,1378.18 1930.61,1378.18 1932.81,1378.18 1935.01,1378.19 1937.21,1378.19 1939.4,1378.2 1941.6,1378.2 1943.8,1378.2 1946,1378.21 1948.2,1378.21 1950.4,1378.21 1952.6,1378.22 1954.79,1378.22 1956.99,1378.23 1959.19,1378.23 1961.39,1378.23 1963.59,1378.24 1965.79,1378.24 1967.99,1378.24 1970.19,1378.25 1972.38,1378.25 1974.58,1378.25 1976.78,1378.26 1978.98,1378.26 1981.18,1378.26 1983.38,1378.27 1985.58,1378.27 1987.77,1378.27 1989.97,1378.28 1992.17,1378.28 1994.37,1378.28 1996.57,1378.28 1998.77,1378.29 2000.97,1378.29 2003.17,1378.29 2005.36,1378.3 2007.56,1378.3 2009.76,1378.3 2011.96,1378.31 2014.16,1378.31 2016.36,1378.31 2018.56,1378.31 2020.76,1378.32 2022.95,1378.32 2025.15,1378.32 2027.35,1378.32 2029.55,1378.33 2031.75,1378.33 2033.95,1378.33 2036.15,1378.34 2038.34,1378.34 2040.54,1378.34 2042.74,1378.34 2044.94,1378.35 2047.14,1378.35 2049.34,1378.35 2051.54,1378.35 2053.74,1378.36 2055.93,1378.36 2058.13,1378.36 2060.33,1378.36 2062.53,1378.36 2064.73,1378.37 2066.93,1378.37 2069.13,1378.37 2071.32,1378.37 2073.52,1378.38 2075.72,1378.38 2077.92,1378.38 2080.12,1378.38 2082.32,1378.38 2084.52,1378.39 2086.72,1378.39 2088.91,1378.39 2091.11,1378.39 2093.31,1378.39 2095.51,1378.4 2097.71,1378.4 2099.91,1378.4 2102.11,1378.4 2104.31,1378.4 2106.5,1378.41 2108.7,1378.41 2110.9,1378.41 2113.1,1378.41 2115.3,1378.41 2117.5,1378.41 2119.7,1378.42 2121.89,1378.42 2124.09,1378.42 2126.29,1378.42 2128.49,1378.42 2130.69,1378.42 2132.89,1378.43 2135.09,1378.43 2137.29,1378.43 2139.48,1378.43 2141.68,1378.43 2143.88,1378.43 2146.08,1378.43 2148.28,1378.44 2150.48,1378.44 2152.68,1378.44 2154.87,1378.44 2157.07,1378.44 2159.27,1378.44 2161.47,1378.44 2163.67,1378.45 2165.87,1378.45 2168.07,1378.45 2170.27,1378.45 2172.46,1378.45 2174.66,1378.45 2176.86,1378.45 2179.06,1378.46 2181.26,1378.46 2183.46,1378.46 2185.66,1378.46 2187.85,1378.46 2190.05,1378.46 2192.25,1378.46 2194.45,1378.46 2196.65,1378.46 2198.85,1378.47 2201.05,1378.47 2203.25,1378.47 2205.44,1378.47 2207.64,1378.47 2209.84,1378.47 2212.04,1378.47 2214.24,1378.47 2216.44,1378.47 2218.64,1378.48 2220.84,1378.48 2223.03,1378.48 2225.23,1378.48 2227.43,1378.48 2229.63,1378.48 2231.83,1378.48 2234.03,1378.48 2236.23,1378.48 2238.42,1378.48 2240.62,1378.48 2242.82,1378.49 2245.02,1378.49 2247.22,1378.49 2249.42,1378.49 2251.62,1378.49 2253.82,1378.49 2256.01,1378.49 2258.21,1378.49 2260.41,1378.49 2262.61,1378.49 2264.81,1378.49 2267.01,1378.5 2269.21,1378.5 2271.4,1378.5 2273.6,1378.5 2275.8,1378.5 2278,1378.5 2280.2,1378.5 2282.4,1378.5 2284.6,1378.5 2286.8,1378.5 2288.99,1378.5 2291.19,1378.5 2293.39,1378.5 2295.59,1378.51 2297.79,1378.51 2299.99,1378.51 2302.19,1378.51 2304.38,1378.51 2306.58,1378.51 2308.78,1378.51 2310.98,1378.51 2313.18,1378.51 2315.38,1378.51 2317.58,1378.51 2319.78,1378.51 2321.97,1378.51 2324.17,1378.52 2326.37,1378.52 2328.57,1378.52 2330.77,1378.52 2332.97,1378.52 2335.17,1378.52 2337.37,1378.52 2339.56,1378.52 2341.76,1378.52 2343.96,1378.52 2346.16,1378.52 2348.36,1378.52 2350.56,1378.52 2352.76,1378.52 "/>
<polyline clip-path="url(#clip492)" style="stroke:#e26f46; stroke-linecap:round; stroke-linejoin:round; stroke-width:4; stroke-opacity:1; fill:none" points="156.274,1384.24 158.473,1383.74 160.672,1383.25 162.87,1382.76 165.069,1382.28 167.268,1381.81 169.466,1381.35 171.665,1380.89 173.864,1380.44 176.062,1380 178.261,1379.57 180.46,1379.14 182.658,1378.72 184.857,1378.3 187.056,1377.9 189.254,1377.5 191.453,1377.1 193.652,1376.71 195.85,1376.33 198.049,1375.95 200.248,1375.58 202.446,1375.22 204.645,1374.86 206.844,1374.51 209.042,1374.16 211.241,1373.82 213.44,1373.49 215.639,1373.16 217.837,1372.84 220.036,1372.52 222.235,1372.21 224.433,1371.9 226.632,1371.6 228.831,1371.3 231.029,1371.01 233.228,1370.72 235.427,1370.44 237.625,1370.16 239.824,1369.89 242.023,1369.62 244.221,1369.36 246.42,1369.11 248.619,1368.85 250.817,1368.6 253.016,1368.36 255.215,1368.12 257.413,1367.89 259.612,1367.66 261.811,1367.43 264.01,1367.21 266.208,1366.99 268.407,1366.78 270.606,1366.57 272.804,1366.36 275.003,1366.16 277.202,1365.97 279.4,1365.77 281.599,1365.58 283.798,1365.4 285.996,1365.21 288.195,1365.04 290.394,1364.86 292.592,1364.69 294.791,1364.52 296.99,1364.36 299.188,1364.2 301.387,1364.04 303.586,1363.89 305.784,1363.74 307.983,1363.59 310.182,1363.45 312.38,1363.3 314.579,1363.17 316.778,1363.03 318.977,1362.9 321.175,1362.77 323.374,1362.65 325.573,1362.52 327.771,1362.4 329.97,1362.29 332.169,1362.17 334.367,1362.06 336.566,1361.95 338.765,1361.85 340.963,1361.75 343.162,1361.65 345.361,1361.55 347.559,1361.45 349.758,1361.36 351.957,1361.27 354.155,1361.18 356.354,1361.1 358.553,1361.01 360.751,1360.93 362.95,1360.85 365.149,1360.78 367.347,1360.71 369.546,1360.63 371.745,1360.56 373.944,1360.5 376.142,1360.43 378.341,1360.37 380.54,1360.31 382.738,1360.25 384.937,1360.19 387.136,1360.14 389.334,1360.09 391.533,1360.04 393.732,1359.99 395.93,1359.94 398.129,1359.9 400.328,1359.85 402.526,1359.81 404.725,1359.77 406.924,1359.73 409.122,1359.7 411.321,1359.66 413.52,1359.63 415.718,1359.6 417.917,1359.57 420.116,1359.54 422.314,1359.52 424.513,1359.49 426.712,1359.47 428.911,1359.45 431.109,1359.43 433.308,1359.41 435.507,1359.39 437.705,1359.37 439.904,1359.36 442.103,1359.35 444.301,1359.33 446.5,1359.32 448.699,1359.31 450.897,1359.31 453.096,1359.3 455.295,1359.3 457.493,1359.29 459.692,1359.29 461.891,1359.29 464.089,1359.29 466.288,1359.29 468.487,1359.29 470.685,1359.29 472.884,1359.3 475.083,1359.3 477.282,1359.31 479.48,1359.31 481.679,1359.32 483.878,1359.33 486.076,1359.34 488.275,1359.35 490.474,1359.37 492.672,1359.38 494.871,1359.39 497.07,1359.41 499.268,1359.42 501.467,1359.44 503.666,1359.46 505.864,1359.48 508.063,1359.5 510.262,1359.52 512.46,1359.54 514.659,1359.56 516.858,1359.58 519.056,1359.61 521.255,1359.63 523.454,1359.66 525.652,1359.68 527.851,1359.71 530.05,1359.73 532.249,1359.76 534.447,1359.79 536.646,1359.82 538.845,1359.85 541.043,1359.88 543.242,1359.91 545.441,1359.94 547.639,1359.98 549.838,1360.01 552.037,1360.04 554.235,1360.08 556.434,1360.11 558.633,1360.15 560.831,1360.18 563.03,1360.22 565.229,1360.25 567.427,1360.29 569.626,1360.33 571.825,1360.37 574.023,1360.41 576.222,1360.45 578.421,1360.49 580.619,1360.53 582.818,1360.57 585.017,1360.61 587.216,1360.65 589.414,1360.69 591.613,1360.73 593.812,1360.78 596.01,1360.82 598.209,1360.86 600.408,1360.91 602.606,1360.95 604.805,1360.99 607.004,1361.04 609.202,1361.08 611.401,1361.13 613.6,1361.17 615.798,1361.22 617.997,1361.27 620.196,1361.31 622.394,1361.36 624.593,1361.41 626.792,1361.46 628.99,1361.5 631.189,1361.55 633.388,1361.6 635.586,1361.65 637.785,1361.7 639.984,1361.75 642.183,1361.8 644.381,1361.85 646.58,1361.89 648.779,1361.94 650.977,1361.99 653.176,1362.04 655.375,1362.1 657.573,1362.15 659.772,1362.2 661.971,1362.25 664.169,1362.3 666.368,1362.35 668.567,1362.4 670.765,1362.45 672.964,1362.51 675.163,1362.56 677.361,1362.61 679.56,1362.66 681.759,1362.71 683.957,1362.77 686.156,1362.82 688.355,1362.87 690.554,1362.92 692.752,1362.98 694.951,1363.03 697.15,1363.08 699.348,1363.14 701.547,1363.19 703.746,1363.24 705.944,1363.3 708.143,1363.35 710.342,1363.4 712.54,1363.46 714.739,1363.51 716.938,1363.56 719.136,1363.62 721.335,1363.67 723.534,1363.72 725.732,1363.78 727.931,1363.83 730.13,1363.88 732.328,1363.94 734.527,1363.99 736.726,1364.05 738.924,1364.1 741.123,1364.15 743.322,1364.21 745.521,1364.26 747.719,1364.32 749.918,1364.37 752.117,1364.42 754.315,1364.48 756.514,1364.53 758.713,1364.58 760.911,1364.64 763.11,1364.69 765.309,1364.75 767.507,1364.8 769.706,1364.85 771.905,1364.91 774.103,1364.96 776.302,1365.01 778.501,1365.07 780.699,1365.12 782.898,1365.17 785.097,1365.23 787.295,1365.28 789.494,1365.33 791.693,1365.39 793.891,1365.44 796.09,1365.49 798.289,1365.55 800.488,1365.6 802.686,1365.65 804.885,1365.71 807.084,1365.76 809.282,1365.81 811.481,1365.86 813.68,1365.92 815.878,1365.97 818.077,1366.02 820.276,1366.07 822.474,1366.13 824.673,1366.18 826.872,1366.23 829.07,1366.28 831.269,1366.33 833.468,1366.39 835.666,1366.44 837.865,1366.49 840.064,1366.54 842.262,1366.59 844.461,1366.64 846.66,1366.69 848.858,1366.75 851.057,1366.8 853.256,1366.85 855.455,1366.9 857.653,1366.95 859.852,1367 862.051,1367.05 864.249,1367.1 866.448,1367.15 868.647,1367.2 870.845,1367.25 873.044,1367.3 875.243,1367.35 877.441,1367.4 879.64,1367.45 881.839,1367.5 884.037,1367.55 886.236,1367.6 888.435,1367.65 890.633,1367.69 892.832,1367.74 895.031,1367.79 897.229,1367.84 899.428,1367.89 901.627,1367.94 903.826,1367.98 906.024,1368.03 908.223,1368.08 910.422,1368.13 912.62,1368.18 914.819,1368.22 917.018,1368.27 919.216,1368.32 921.415,1368.36 923.614,1368.41 925.812,1368.46 928.011,1368.5 930.21,1368.55 932.408,1368.6 934.607,1368.64 936.806,1368.69 939.004,1368.74 941.203,1368.78 943.402,1368.83 945.6,1368.87 947.799,1368.92 949.998,1368.96 952.196,1369.01 954.395,1369.05 956.594,1369.1 958.793,1369.14 960.991,1369.19 963.19,1369.23 965.389,1369.28 967.587,1369.32 969.786,1369.36 971.985,1369.41 974.183,1369.45 976.382,1369.49 978.581,1369.54 980.779,1369.58 982.978,1369.62 985.177,1369.67 987.375,1369.71 989.574,1369.75 991.773,1369.79 993.971,1369.84 996.17,1369.88 998.369,1369.92 1000.57,1369.96 1002.77,1370 1004.96,1370.05 1007.16,1370.09 1009.36,1370.13 1011.56,1370.17 1013.76,1370.21 1015.96,1370.25 1018.16,1370.29 1020.36,1370.33 1022.55,1370.37 1024.75,1370.41 1026.95,1370.45 1029.15,1370.49 1031.35,1370.53 1033.55,1370.57 1035.75,1370.61 1037.95,1370.65 1040.14,1370.69 1042.34,1370.73 1044.54,1370.77 1046.74,1370.8 1048.94,1370.84 1051.14,1370.88 1053.34,1370.92 1055.53,1370.96 1057.73,1371 1059.93,1371.03 1062.13,1371.07 1064.33,1371.11 1066.53,1371.15 1068.73,1371.18 1070.93,1371.22 1073.12,1371.26 1075.32,1371.29 1077.52,1371.33 1079.72,1371.37 1081.92,1371.4 1084.12,1371.44 1086.32,1371.47 1088.51,1371.51 1090.71,1371.55 1092.91,1371.58 1095.11,1371.62 1097.31,1371.65 1099.51,1371.69 1101.71,1371.72 1103.91,1371.76 1106.1,1371.79 1108.3,1371.83 1110.5,1371.86 1112.7,1371.89 1114.9,1371.93 1117.1,1371.96 1119.3,1372 1121.49,1372.03 1123.69,1372.06 1125.89,1372.1 1128.09,1372.13 1130.29,1372.16 1132.49,1372.2 1134.69,1372.23 1136.89,1372.26 1139.08,1372.29 1141.28,1372.33 1143.48,1372.36 1145.68,1372.39 1147.88,1372.42 1150.08,1372.45 1152.28,1372.49 1154.48,1372.52 1156.67,1372.55 1158.87,1372.58 1161.07,1372.61 1163.27,1372.64 1165.47,1372.67 1167.67,1372.7 1169.87,1372.73 1172.06,1372.76 1174.26,1372.8 1176.46,1372.83 1178.66,1372.86 1180.86,1372.89 1183.06,1372.91 1185.26,1372.94 1187.46,1372.97 1189.65,1373 1191.85,1373.03 1194.05,1373.06 1196.25,1373.09 1198.45,1373.12 1200.65,1373.15 1202.85,1373.18 1205.04,1373.2 1207.24,1373.23 1209.44,1373.26 1211.64,1373.29 1213.84,1373.32 1216.04,1373.34 1218.24,1373.37 1220.44,1373.4 1222.63,1373.43 1224.83,1373.45 1227.03,1373.48 1229.23,1373.51 1231.43,1373.54 1233.63,1373.56 1235.83,1373.59 1238.02,1373.62 1240.22,1373.64 1242.42,1373.67 1244.62,1373.69 1246.82,1373.72 1249.02,1373.75 1251.22,1373.77 1253.42,1373.8 1255.61,1373.82 1257.81,1373.85 1260.01,1373.87 1262.21,1373.9 1264.41,1373.92 1266.61,1373.95 1268.81,1373.97 1271.01,1374 1273.2,1374.02 1275.4,1374.05 1277.6,1374.07 1279.8,1374.1 1282,1374.12 1284.2,1374.14 1286.4,1374.17 1288.59,1374.19 1290.79,1374.21 1292.99,1374.24 1295.19,1374.26 1297.39,1374.28 1299.59,1374.31 1301.79,1374.33 1303.99,1374.35 1306.18,1374.38 1308.38,1374.4 1310.58,1374.42 1312.78,1374.44 1314.98,1374.47 1317.18,1374.49 1319.38,1374.51 1321.57,1374.53 1323.77,1374.56 1325.97,1374.58 1328.17,1374.6 1330.37,1374.62 1332.57,1374.64 1334.77,1374.66 1336.97,1374.68 1339.16,1374.71 1341.36,1374.73 1343.56,1374.75 1345.76,1374.77 1347.96,1374.79 1350.16,1374.81 1352.36,1374.83 1354.55,1374.85 1356.75,1374.87 1358.95,1374.89 1361.15,1374.91 1363.35,1374.93 1365.55,1374.95 1367.75,1374.97 1369.95,1374.99 1372.14,1375.01 1374.34,1375.03 1376.54,1375.05 1378.74,1375.07 1380.94,1375.09 1383.14,1375.11 1385.34,1375.13 1387.54,1375.15 1389.73,1375.17 1391.93,1375.18 1394.13,1375.2 1396.33,1375.22 1398.53,1375.24 1400.73,1375.26 1402.93,1375.28 1405.12,1375.29 1407.32,1375.31 1409.52,1375.33 1411.72,1375.35 1413.92,1375.37 1416.12,1375.38 1418.32,1375.4 1420.52,1375.42 1422.71,1375.44 1424.91,1375.45 1427.11,1375.47 1429.31,1375.49 1431.51,1375.51 1433.71,1375.52 1435.91,1375.54 1438.1,1375.56 1440.3,1375.57 1442.5,1375.59 1444.7,1375.61 1446.9,1375.62 1449.1,1375.64 1451.3,1375.66 1453.5,1375.67 1455.69,1375.69 1457.89,1375.7 1460.09,1375.72 1462.29,1375.74 1464.49,1375.75 1466.69,1375.77 1468.89,1375.78 1471.09,1375.8 1473.28,1375.81 1475.48,1375.83 1477.68,1375.85 1479.88,1375.86 1482.08,1375.88 1484.28,1375.89 1486.48,1375.91 1488.67,1375.92 1490.87,1375.94 1493.07,1375.95 1495.27,1375.97 1497.47,1375.98 1499.67,1375.99 1501.87,1376.01 1504.07,1376.02 1506.26,1376.04 1508.46,1376.05 1510.66,1376.07 1512.86,1376.08 1515.06,1376.09 1517.26,1376.11 1519.46,1376.12 1521.65,1376.14 1523.85,1376.15 1526.05,1376.16 1528.25,1376.18 1530.45,1376.19 1532.65,1376.2 1534.85,1376.22 1537.05,1376.23 1539.24,1376.24 1541.44,1376.26 1543.64,1376.27 1545.84,1376.28 1548.04,1376.3 1550.24,1376.31 1552.44,1376.32 1554.63,1376.33 1556.83,1376.35 1559.03,1376.36 1561.23,1376.37 1563.43,1376.38 1565.63,1376.4 1567.83,1376.41 1570.03,1376.42 1572.22,1376.43 1574.42,1376.45 1576.62,1376.46 1578.82,1376.47 1581.02,1376.48 1583.22,1376.49 1585.42,1376.51 1587.62,1376.52 1589.81,1376.53 1592.01,1376.54 1594.21,1376.55 1596.41,1376.56 1598.61,1376.58 1600.81,1376.59 1603.01,1376.6 1605.2,1376.61 1607.4,1376.62 1609.6,1376.63 1611.8,1376.64 1614,1376.65 1616.2,1376.66 1618.4,1376.68 1620.6,1376.69 1622.79,1376.7 1624.99,1376.71 1627.19,1376.72 1629.39,1376.73 1631.59,1376.74 1633.79,1376.75 1635.99,1376.76 1638.18,1376.77 1640.38,1376.78 1642.58,1376.79 1644.78,1376.8 1646.98,1376.81 1649.18,1376.82 1651.38,1376.83 1653.58,1376.84 1655.77,1376.85 1657.97,1376.86 1660.17,1376.87 1662.37,1376.88 1664.57,1376.89 1666.77,1376.9 1668.97,1376.91 1671.16,1376.92 1673.36,1376.93 1675.56,1376.94 1677.76,1376.95 1679.96,1376.96 1682.16,1376.97 1684.36,1376.98 1686.56,1376.99 1688.75,1376.99 1690.95,1377 1693.15,1377.01 1695.35,1377.02 1697.55,1377.03 1699.75,1377.04 1701.95,1377.05 1704.15,1377.06 1706.34,1377.07 1708.54,1377.07 1710.74,1377.08 1712.94,1377.09 1715.14,1377.1 1717.34,1377.11 1719.54,1377.12 1721.73,1377.13 1723.93,1377.13 1726.13,1377.14 1728.33,1377.15 1730.53,1377.16 1732.73,1377.17 1734.93,1377.17 1737.13,1377.18 1739.32,1377.19 1741.52,1377.2 1743.72,1377.21 1745.92,1377.21 1748.12,1377.22 1750.32,1377.23 1752.52,1377.24 1754.71,1377.25 1756.91,1377.25 1759.11,1377.26 1761.31,1377.27 1763.51,1377.28 1765.71,1377.28 1767.91,1377.29 1770.11,1377.3 1772.3,1377.31 1774.5,1377.31 1776.7,1377.32 1778.9,1377.33 1781.1,1377.34 1783.3,1377.34 1785.5,1377.35 1787.7,1377.36 1789.89,1377.36 1792.09,1377.37 1794.29,1377.38 1796.49,1377.38 1798.69,1377.39 1800.89,1377.4 1803.09,1377.41 1805.28,1377.41 1807.48,1377.42 1809.68,1377.43 1811.88,1377.43 1814.08,1377.44 1816.28,1377.45 1818.48,1377.45 1820.68,1377.46 1822.87,1377.47 1825.07,1377.47 1827.27,1377.48 1829.47,1377.48 1831.67,1377.49 1833.87,1377.5 1836.07,1377.5 1838.26,1377.51 1840.46,1377.52 1842.66,1377.52 1844.86,1377.53 1847.06,1377.53 1849.26,1377.54 1851.46,1377.55 1853.66,1377.55 1855.85,1377.56 1858.05,1377.56 1860.25,1377.57 1862.45,1377.58 1864.65,1377.58 1866.85,1377.59 1869.05,1377.59 1871.24,1377.6 1873.44,1377.61 1875.64,1377.61 1877.84,1377.62 1880.04,1377.62 1882.24,1377.63 1884.44,1377.63 1886.64,1377.64 1888.83,1377.64 1891.03,1377.65 1893.23,1377.66 1895.43,1377.66 1897.63,1377.67 1899.83,1377.67 1902.03,1377.68 1904.23,1377.68 1906.42,1377.69 1908.62,1377.69 1910.82,1377.7 1913.02,1377.7 1915.22,1377.71 1917.42,1377.71 1919.62,1377.72 1921.81,1377.72 1924.01,1377.73 1926.21,1377.73 1928.41,1377.74 1930.61,1377.74 1932.81,1377.75 1935.01,1377.75 1937.21,1377.76 1939.4,1377.76 1941.6,1377.77 1943.8,1377.77 1946,1377.78 1948.2,1377.78 1950.4,1377.79 1952.6,1377.79 1954.79,1377.8 1956.99,1377.8 1959.19,1377.8 1961.39,1377.81 1963.59,1377.81 1965.79,1377.82 1967.99,1377.82 1970.19,1377.83 1972.38,1377.83 1974.58,1377.84 1976.78,1377.84 1978.98,1377.84 1981.18,1377.85 1983.38,1377.85 1985.58,1377.86 1987.77,1377.86 1989.97,1377.87 1992.17,1377.87 1994.37,1377.87 1996.57,1377.88 1998.77,1377.88 2000.97,1377.89 2003.17,1377.89 2005.36,1377.89 2007.56,1377.9 2009.76,1377.9 2011.96,1377.91 2014.16,1377.91 2016.36,1377.91 2018.56,1377.92 2020.76,1377.92 2022.95,1377.93 2025.15,1377.93 2027.35,1377.93 2029.55,1377.94 2031.75,1377.94 2033.95,1377.94 2036.15,1377.95 2038.34,1377.95 2040.54,1377.96 2042.74,1377.96 2044.94,1377.96 2047.14,1377.97 2049.34,1377.97 2051.54,1377.97 2053.74,1377.98 2055.93,1377.98 2058.13,1377.98 2060.33,1377.99 2062.53,1377.99 2064.73,1378 2066.93,1378 2069.13,1378 2071.32,1378.01 2073.52,1378.01 2075.72,1378.01 2077.92,1378.02 2080.12,1378.02 2082.32,1378.02 2084.52,1378.03 2086.72,1378.03 2088.91,1378.03 2091.11,1378.04 2093.31,1378.04 2095.51,1378.04 2097.71,1378.04 2099.91,1378.05 2102.11,1378.05 2104.31,1378.05 2106.5,1378.06 2108.7,1378.06 2110.9,1378.06 2113.1,1378.07 2115.3,1378.07 2117.5,1378.07 2119.7,1378.08 2121.89,1378.08 2124.09,1378.08 2126.29,1378.08 2128.49,1378.09 2130.69,1378.09 2132.89,1378.09 2135.09,1378.1 2137.29,1378.1 2139.48,1378.1 2141.68,1378.1 2143.88,1378.11 2146.08,1378.11 2148.28,1378.11 2150.48,1378.12 2152.68,1378.12 2154.87,1378.12 2157.07,1378.12 2159.27,1378.13 2161.47,1378.13 2163.67,1378.13 2165.87,1378.13 2168.07,1378.14 2170.27,1378.14 2172.46,1378.14 2174.66,1378.15 2176.86,1378.15 2179.06,1378.15 2181.26,1378.15 2183.46,1378.16 2185.66,1378.16 2187.85,1378.16 2190.05,1378.16 2192.25,1378.17 2194.45,1378.17 2196.65,1378.17 2198.85,1378.17 2201.05,1378.18 2203.25,1378.18 2205.44,1378.18 2207.64,1378.18 2209.84,1378.18 2212.04,1378.19 2214.24,1378.19 2216.44,1378.19 2218.64,1378.19 2220.84,1378.2 2223.03,1378.2 2225.23,1378.2 2227.43,1378.2 2229.63,1378.21 2231.83,1378.21 2234.03,1378.21 2236.23,1378.21 2238.42,1378.21 2240.62,1378.22 2242.82,1378.22 2245.02,1378.22 2247.22,1378.22 2249.42,1378.23 2251.62,1378.23 2253.82,1378.23 2256.01,1378.23 2258.21,1378.23 2260.41,1378.24 2262.61,1378.24 2264.81,1378.24 2267.01,1378.24 2269.21,1378.24 2271.4,1378.25 2273.6,1378.25 2275.8,1378.25 2278,1378.25 2280.2,1378.25 2282.4,1378.26 2284.6,1378.26 2286.8,1378.26 2288.99,1378.26 2291.19,1378.26 2293.39,1378.27 2295.59,1378.27 2297.79,1378.27 2299.99,1378.27 2302.19,1378.27 2304.38,1378.27 2306.58,1378.28 2308.78,1378.28 2310.98,1378.28 2313.18,1378.28 2315.38,1378.28 2317.58,1378.29 2319.78,1378.29 2321.97,1378.29 2324.17,1378.29 2326.37,1378.29 2328.57,1378.29 2330.77,1378.3 2332.97,1378.3 2335.17,1378.3 2337.37,1378.3 2339.56,1378.3 2341.76,1378.3 2343.96,1378.31 2346.16,1378.31 2348.36,1378.31 2350.56,1378.31 2352.76,1378.31 "/>
<path clip-path="url(#clip490)" d="M1800.49 248.629 L2279.54 248.629 L2279.54 93.1086 L1800.49 93.1086  Z" fill="#ffffff" fill-rule="evenodd" fill-opacity="1"/>
<polyline clip-path="url(#clip490)" style="stroke:#000000; stroke-linecap:round; stroke-linejoin:round; stroke-width:4; stroke-opacity:1; fill:none" points="1800.49,248.629 2279.54,248.629 2279.54,93.1086 1800.49,93.1086 1800.49,248.629 "/>
<polyline clip-path="url(#clip490)" style="stroke:#009af9; stroke-linecap:round; stroke-linejoin:round; stroke-width:4; stroke-opacity:1; fill:none" points="1824.9,144.949 1971.33,144.949 "/>
<path clip-path="url(#clip490)" d="M1995.74 136.303 L2000.25 136.303 L2008.35 158.062 L2016.46 136.303 L2020.97 136.303 L2011.25 162.229 L2005.46 162.229 L1995.74 136.303 Z" fill="#000000" fill-rule="nonzero" fill-opacity="1" /><path clip-path="url(#clip490)" d="M2028.26 158.293 L2035.9 158.293 L2035.9 131.928 L2027.59 133.595 L2027.59 129.335 L2035.85 127.669 L2040.53 127.669 L2040.53 158.293 L2048.17 158.293 L2048.17 162.229 L2028.26 162.229 L2028.26 158.293 Z" fill="#000000" fill-rule="nonzero" fill-opacity="1" /><path clip-path="url(#clip490)" d="M2066.27 145.585 L2066.27 152.807 L2074.39 152.807 L2074.39 155.006 L2066.27 155.006 L2066.27 162.229 L2063.84 162.229 L2063.84 155.006 L2055.71 155.006 L2055.71 152.807 L2063.84 152.807 L2063.84 145.585 L2066.27 145.585 Z" fill="#000000" fill-rule="nonzero" fill-opacity="1" /><path clip-path="url(#clip490)" d="M2098.56 137.067 L2098.56 141.094 Q2096.76 140.169 2094.81 139.706 Q2092.87 139.243 2090.78 139.243 Q2087.61 139.243 2086.02 140.215 Q2084.44 141.187 2084.44 143.131 Q2084.44 144.613 2085.58 145.469 Q2086.71 146.303 2090.14 147.067 L2091.59 147.391 Q2096.13 148.363 2098.03 150.145 Q2099.95 151.905 2099.95 155.076 Q2099.95 158.687 2097.08 160.793 Q2094.23 162.9 2089.23 162.9 Q2087.15 162.9 2084.88 162.483 Q2082.64 162.09 2080.14 161.28 L2080.14 156.881 Q2082.5 158.108 2084.79 158.733 Q2087.08 159.335 2089.33 159.335 Q2092.33 159.335 2093.95 158.317 Q2095.58 157.275 2095.58 155.4 Q2095.58 153.664 2094.39 152.738 Q2093.24 151.812 2089.28 150.956 L2087.8 150.608 Q2083.84 149.775 2082.08 148.062 Q2080.32 146.326 2080.32 143.317 Q2080.32 139.659 2082.91 137.669 Q2085.51 135.678 2090.27 135.678 Q2092.64 135.678 2094.72 136.025 Q2096.8 136.372 2098.56 137.067 Z" fill="#000000" fill-rule="nonzero" fill-opacity="1" /><path clip-path="url(#clip490)" d="M2110.95 128.942 L2110.95 136.303 L2119.72 136.303 L2119.72 139.613 L2110.95 139.613 L2110.95 153.687 Q2110.95 156.858 2111.8 157.761 Q2112.68 158.664 2115.34 158.664 L2119.72 158.664 L2119.72 162.229 L2115.34 162.229 Q2110.41 162.229 2108.54 160.4 Q2106.66 158.548 2106.66 153.687 L2106.66 139.613 L2103.54 139.613 L2103.54 136.303 L2106.66 136.303 L2106.66 128.942 L2110.95 128.942 Z" fill="#000000" fill-rule="nonzero" fill-opacity="1" /><path clip-path="url(#clip490)" d="M2135.37 139.289 Q2131.94 139.289 2129.95 141.974 Q2127.96 144.636 2127.96 149.289 Q2127.96 153.942 2129.93 156.627 Q2131.92 159.289 2135.37 159.289 Q2138.77 159.289 2140.76 156.604 Q2142.75 153.918 2142.75 149.289 Q2142.75 144.682 2140.76 141.997 Q2138.77 139.289 2135.37 139.289 M2135.37 135.678 Q2140.92 135.678 2144.09 139.289 Q2147.26 142.9 2147.26 149.289 Q2147.26 155.655 2144.09 159.289 Q2140.92 162.9 2135.37 162.9 Q2129.79 162.9 2126.62 159.289 Q2123.47 155.655 2123.47 149.289 Q2123.47 142.9 2126.62 139.289 Q2129.79 135.678 2135.37 135.678 Z" fill="#000000" fill-rule="nonzero" fill-opacity="1" /><path clip-path="url(#clip490)" d="M2169.35 140.284 Q2168.63 139.868 2167.77 139.682 Q2166.94 139.474 2165.92 139.474 Q2162.31 139.474 2160.37 141.835 Q2158.45 144.173 2158.45 148.571 L2158.45 162.229 L2154.16 162.229 L2154.16 136.303 L2158.45 136.303 L2158.45 140.331 Q2159.79 137.969 2161.94 136.835 Q2164.09 135.678 2167.17 135.678 Q2167.61 135.678 2168.14 135.747 Q2168.68 135.794 2169.32 135.909 L2169.35 140.284 Z" fill="#000000" fill-rule="nonzero" fill-opacity="1" /><path clip-path="url(#clip490)" d="M2185.6 149.196 Q2180.44 149.196 2178.45 150.377 Q2176.45 151.557 2176.45 154.405 Q2176.45 156.673 2177.94 158.016 Q2179.44 159.335 2182.01 159.335 Q2185.55 159.335 2187.68 156.835 Q2189.83 154.312 2189.83 150.145 L2189.83 149.196 L2185.6 149.196 M2194.09 147.437 L2194.09 162.229 L2189.83 162.229 L2189.83 158.293 Q2188.38 160.655 2186.2 161.789 Q2184.02 162.9 2180.88 162.9 Q2176.89 162.9 2174.53 160.678 Q2172.2 158.432 2172.2 154.682 Q2172.2 150.307 2175.11 148.085 Q2178.05 145.863 2183.86 145.863 L2189.83 145.863 L2189.83 145.446 Q2189.83 142.507 2187.89 140.909 Q2185.97 139.289 2182.47 139.289 Q2180.25 139.289 2178.14 139.821 Q2176.04 140.354 2174.09 141.419 L2174.09 137.483 Q2176.43 136.581 2178.63 136.141 Q2180.83 135.678 2182.91 135.678 Q2188.54 135.678 2191.32 138.594 Q2194.09 141.511 2194.09 147.437 Z" fill="#000000" fill-rule="nonzero" fill-opacity="1" /><path clip-path="url(#clip490)" d="M2219.93 148.965 Q2219.93 144.335 2218.01 141.789 Q2216.11 139.243 2212.66 139.243 Q2209.23 139.243 2207.31 141.789 Q2205.41 144.335 2205.41 148.965 Q2205.41 153.571 2207.31 156.118 Q2209.23 158.664 2212.66 158.664 Q2216.11 158.664 2218.01 156.118 Q2219.93 153.571 2219.93 148.965 M2224.19 159.011 Q2224.19 165.631 2221.25 168.849 Q2218.31 172.09 2212.24 172.09 Q2210 172.09 2208.01 171.742 Q2206.01 171.418 2204.14 170.724 L2204.14 166.58 Q2206.01 167.599 2207.84 168.085 Q2209.67 168.571 2211.57 168.571 Q2215.76 168.571 2217.84 166.372 Q2219.93 164.196 2219.93 159.775 L2219.93 157.668 Q2218.61 159.96 2216.55 161.094 Q2214.49 162.229 2211.62 162.229 Q2206.85 162.229 2203.93 158.594 Q2201.01 154.96 2201.01 148.965 Q2201.01 142.946 2203.93 139.312 Q2206.85 135.678 2211.62 135.678 Q2214.49 135.678 2216.55 136.812 Q2218.61 137.946 2219.93 140.238 L2219.93 136.303 L2224.19 136.303 L2224.19 159.011 Z" fill="#000000" fill-rule="nonzero" fill-opacity="1" /><path clip-path="url(#clip490)" d="M2255.13 148.201 L2255.13 150.284 L2235.55 150.284 Q2235.83 154.682 2238.19 156.997 Q2240.57 159.289 2244.81 159.289 Q2247.26 159.289 2249.56 158.687 Q2251.87 158.085 2254.14 156.881 L2254.14 160.909 Q2251.85 161.881 2249.44 162.391 Q2247.03 162.9 2244.56 162.9 Q2238.35 162.9 2234.72 159.289 Q2231.11 155.678 2231.11 149.52 Q2231.11 143.155 2234.53 139.428 Q2237.98 135.678 2243.82 135.678 Q2249.05 135.678 2252.08 139.057 Q2255.13 142.414 2255.13 148.201 M2250.88 146.951 Q2250.83 143.456 2248.91 141.372 Q2247.01 139.289 2243.86 139.289 Q2240.3 139.289 2238.14 141.303 Q2236.01 143.317 2235.69 146.974 L2250.88 146.951 Z" fill="#000000" fill-rule="nonzero" fill-opacity="1" /><polyline clip-path="url(#clip490)" style="stroke:#e26f46; stroke-linecap:round; stroke-linejoin:round; stroke-width:4; stroke-opacity:1; fill:none" points="1824.9,196.789 1971.33,196.789 "/>
<path clip-path="url(#clip490)" d="M1995.74 188.143 L2000.25 188.143 L2008.35 209.902 L2016.46 188.143 L2020.97 188.143 L2011.25 214.069 L2005.46 214.069 L1995.74 188.143 Z" fill="#000000" fill-rule="nonzero" fill-opacity="1" /><path clip-path="url(#clip490)" d="M2027.5 179.509 L2045.85 179.509 L2045.85 183.444 L2031.78 183.444 L2031.78 191.916 Q2032.8 191.569 2033.82 191.407 Q2034.83 191.222 2035.85 191.222 Q2041.64 191.222 2045.02 194.393 Q2048.4 197.564 2048.4 202.981 Q2048.4 208.559 2044.93 211.661 Q2041.46 214.74 2035.14 214.74 Q2032.96 214.74 2030.69 214.37 Q2028.45 213.999 2026.04 213.258 L2026.04 208.559 Q2028.12 209.694 2030.34 210.249 Q2032.57 210.805 2035.04 210.805 Q2039.05 210.805 2041.39 208.698 Q2043.72 206.592 2043.72 202.981 Q2043.72 199.37 2041.39 197.263 Q2039.05 195.157 2035.04 195.157 Q2033.17 195.157 2031.29 195.573 Q2029.44 195.99 2027.5 196.87 L2027.5 179.509 Z" fill="#000000" fill-rule="nonzero" fill-opacity="1" /><path clip-path="url(#clip490)" d="M2066.27 197.425 L2066.27 204.647 L2074.39 204.647 L2074.39 206.846 L2066.27 206.846 L2066.27 214.069 L2063.84 214.069 L2063.84 206.846 L2055.71 206.846 L2055.71 204.647 L2063.84 204.647 L2063.84 197.425 L2066.27 197.425 Z" fill="#000000" fill-rule="nonzero" fill-opacity="1" /><path clip-path="url(#clip490)" d="M2098.56 188.907 L2098.56 192.934 Q2096.76 192.009 2094.81 191.546 Q2092.87 191.083 2090.78 191.083 Q2087.61 191.083 2086.02 192.055 Q2084.44 193.027 2084.44 194.971 Q2084.44 196.453 2085.58 197.309 Q2086.71 198.143 2090.14 198.907 L2091.59 199.231 Q2096.13 200.203 2098.03 201.985 Q2099.95 203.745 2099.95 206.916 Q2099.95 210.527 2097.08 212.633 Q2094.23 214.74 2089.23 214.74 Q2087.15 214.74 2084.88 214.323 Q2082.64 213.93 2080.14 213.12 L2080.14 208.721 Q2082.5 209.948 2084.79 210.573 Q2087.08 211.175 2089.33 211.175 Q2092.33 211.175 2093.95 210.157 Q2095.58 209.115 2095.58 207.24 Q2095.58 205.504 2094.39 204.578 Q2093.24 203.652 2089.28 202.796 L2087.8 202.448 Q2083.84 201.615 2082.08 199.902 Q2080.32 198.166 2080.32 195.157 Q2080.32 191.499 2082.91 189.509 Q2085.51 187.518 2090.27 187.518 Q2092.64 187.518 2094.72 187.865 Q2096.8 188.212 2098.56 188.907 Z" fill="#000000" fill-rule="nonzero" fill-opacity="1" /><path clip-path="url(#clip490)" d="M2110.95 180.782 L2110.95 188.143 L2119.72 188.143 L2119.72 191.453 L2110.95 191.453 L2110.95 205.527 Q2110.95 208.698 2111.8 209.601 Q2112.68 210.504 2115.34 210.504 L2119.72 210.504 L2119.72 214.069 L2115.34 214.069 Q2110.41 214.069 2108.54 212.24 Q2106.66 210.388 2106.66 205.527 L2106.66 191.453 L2103.54 191.453 L2103.54 188.143 L2106.66 188.143 L2106.66 180.782 L2110.95 180.782 Z" fill="#000000" fill-rule="nonzero" fill-opacity="1" /><path clip-path="url(#clip490)" d="M2135.37 191.129 Q2131.94 191.129 2129.95 193.814 Q2127.96 196.476 2127.96 201.129 Q2127.96 205.782 2129.93 208.467 Q2131.92 211.129 2135.37 211.129 Q2138.77 211.129 2140.76 208.444 Q2142.75 205.758 2142.75 201.129 Q2142.75 196.522 2140.76 193.837 Q2138.77 191.129 2135.37 191.129 M2135.37 187.518 Q2140.92 187.518 2144.09 191.129 Q2147.26 194.74 2147.26 201.129 Q2147.26 207.495 2144.09 211.129 Q2140.92 214.74 2135.37 214.74 Q2129.79 214.74 2126.62 211.129 Q2123.47 207.495 2123.47 201.129 Q2123.47 194.74 2126.62 191.129 Q2129.79 187.518 2135.37 187.518 Z" fill="#000000" fill-rule="nonzero" fill-opacity="1" /><path clip-path="url(#clip490)" d="M2169.35 192.124 Q2168.63 191.708 2167.77 191.522 Q2166.94 191.314 2165.92 191.314 Q2162.31 191.314 2160.37 193.675 Q2158.45 196.013 2158.45 200.411 L2158.45 214.069 L2154.16 214.069 L2154.16 188.143 L2158.45 188.143 L2158.45 192.171 Q2159.79 189.809 2161.94 188.675 Q2164.09 187.518 2167.17 187.518 Q2167.61 187.518 2168.14 187.587 Q2168.68 187.634 2169.32 187.749 L2169.35 192.124 Z" fill="#000000" fill-rule="nonzero" fill-opacity="1" /><path clip-path="url(#clip490)" d="M2185.6 201.036 Q2180.44 201.036 2178.45 202.217 Q2176.45 203.397 2176.45 206.245 Q2176.45 208.513 2177.94 209.856 Q2179.44 211.175 2182.01 211.175 Q2185.55 211.175 2187.68 208.675 Q2189.83 206.152 2189.83 201.985 L2189.83 201.036 L2185.6 201.036 M2194.09 199.277 L2194.09 214.069 L2189.83 214.069 L2189.83 210.133 Q2188.38 212.495 2186.2 213.629 Q2184.02 214.74 2180.88 214.74 Q2176.89 214.74 2174.53 212.518 Q2172.2 210.272 2172.2 206.522 Q2172.2 202.147 2175.11 199.925 Q2178.05 197.703 2183.86 197.703 L2189.83 197.703 L2189.83 197.286 Q2189.83 194.347 2187.89 192.749 Q2185.97 191.129 2182.47 191.129 Q2180.25 191.129 2178.14 191.661 Q2176.04 192.194 2174.09 193.259 L2174.09 189.323 Q2176.43 188.421 2178.63 187.981 Q2180.83 187.518 2182.91 187.518 Q2188.54 187.518 2191.32 190.434 Q2194.09 193.351 2194.09 199.277 Z" fill="#000000" fill-rule="nonzero" fill-opacity="1" /><path clip-path="url(#clip490)" d="M2219.93 200.805 Q2219.93 196.175 2218.01 193.629 Q2216.11 191.083 2212.66 191.083 Q2209.23 191.083 2207.31 193.629 Q2205.41 196.175 2205.41 200.805 Q2205.41 205.411 2207.31 207.958 Q2209.23 210.504 2212.66 210.504 Q2216.11 210.504 2218.01 207.958 Q2219.93 205.411 2219.93 200.805 M2224.19 210.851 Q2224.19 217.471 2221.25 220.689 Q2218.31 223.93 2212.24 223.93 Q2210 223.93 2208.01 223.582 Q2206.01 223.258 2204.14 222.564 L2204.14 218.42 Q2206.01 219.439 2207.84 219.925 Q2209.67 220.411 2211.57 220.411 Q2215.76 220.411 2217.84 218.212 Q2219.93 216.036 2219.93 211.615 L2219.93 209.508 Q2218.61 211.8 2216.55 212.934 Q2214.49 214.069 2211.62 214.069 Q2206.85 214.069 2203.93 210.434 Q2201.01 206.8 2201.01 200.805 Q2201.01 194.786 2203.93 191.152 Q2206.85 187.518 2211.62 187.518 Q2214.49 187.518 2216.55 188.652 Q2218.61 189.786 2219.93 192.078 L2219.93 188.143 L2224.19 188.143 L2224.19 210.851 Z" fill="#000000" fill-rule="nonzero" fill-opacity="1" /><path clip-path="url(#clip490)" d="M2255.13 200.041 L2255.13 202.124 L2235.55 202.124 Q2235.83 206.522 2238.19 208.837 Q2240.57 211.129 2244.81 211.129 Q2247.26 211.129 2249.56 210.527 Q2251.87 209.925 2254.14 208.721 L2254.14 212.749 Q2251.85 213.721 2249.44 214.231 Q2247.03 214.74 2244.56 214.74 Q2238.35 214.74 2234.72 211.129 Q2231.11 207.518 2231.11 201.36 Q2231.11 194.995 2234.53 191.268 Q2237.98 187.518 2243.82 187.518 Q2249.05 187.518 2252.08 190.897 Q2255.13 194.254 2255.13 200.041 M2250.88 198.791 Q2250.83 195.296 2248.91 193.212 Q2247.01 191.129 2243.86 191.129 Q2240.3 191.129 2238.14 193.143 Q2236.01 195.157 2235.69 198.814 L2250.88 198.791 Z" fill="#000000" fill-rule="nonzero" fill-opacity="1" /></svg>
