<?xml version="1.0" encoding="utf-8"?>
<svg xmlns="http://www.w3.org/2000/svg" xmlns:xlink="http://www.w3.org/1999/xlink" width="600" height="400" viewBox="0 0 2400 1600">
<defs>
  <clipPath id="clip350">
    <rect x="0" y="0" width="2400" height="1600"/>
  </clipPath>
</defs>
<path clip-path="url(#clip350)" d="M0 1600 L2400 1600 L2400 0 L0 0  Z" fill="#ffffff" fill-rule="evenodd" fill-opacity="1"/>
<defs>
  <clipPath id="clip351">
    <rect x="480" y="0" width="1681" height="1600"/>
  </clipPath>
</defs>
<path clip-path="url(#clip350)" d="M192.709 1423.18 L2352.76 1423.18 L2352.76 47.2441 L192.709 47.2441  Z" fill="#ffffff" fill-rule="evenodd" fill-opacity="1"/>
<defs>
  <clipPath id="clip352">
    <rect x="192" y="47" width="2161" height="1377"/>
  </clipPath>
</defs>
<polyline clip-path="url(#clip352)" style="stroke:#000000; stroke-linecap:round; stroke-linejoin:round; stroke-width:2; stroke-opacity:0.1; fill:none" points="192.709,1423.18 192.709,47.2441 "/>
<polyline clip-path="url(#clip352)" style="stroke:#000000; stroke-linecap:round; stroke-linejoin:round; stroke-width:2; stroke-opacity:0.1; fill:none" points="732.721,1423.18 732.721,47.2441 "/>
<polyline clip-path="url(#clip352)" style="stroke:#000000; stroke-linecap:round; stroke-linejoin:round; stroke-width:2; stroke-opacity:0.1; fill:none" points="1272.73,1423.18 1272.73,47.2441 "/>
<polyline clip-path="url(#clip352)" style="stroke:#000000; stroke-linecap:round; stroke-linejoin:round; stroke-width:2; stroke-opacity:0.1; fill:none" points="1812.74,1423.18 1812.74,47.2441 "/>
<polyline clip-path="url(#clip352)" style="stroke:#000000; stroke-linecap:round; stroke-linejoin:round; stroke-width:2; stroke-opacity:0.1; fill:none" points="2352.76,1423.18 2352.76,47.2441 "/>
<polyline clip-path="url(#clip352)" style="stroke:#000000; stroke-linecap:round; stroke-linejoin:round; stroke-width:2; stroke-opacity:0.1; fill:none" points="192.709,1385.09 2352.76,1385.09 "/>
<polyline clip-path="url(#clip352)" style="stroke:#000000; stroke-linecap:round; stroke-linejoin:round; stroke-width:2; stroke-opacity:0.1; fill:none" points="192.709,947.574 2352.76,947.574 "/>
<polyline clip-path="url(#clip352)" style="stroke:#000000; stroke-linecap:round; stroke-linejoin:round; stroke-width:2; stroke-opacity:0.1; fill:none" points="192.709,510.053 2352.76,510.053 "/>
<polyline clip-path="url(#clip352)" style="stroke:#000000; stroke-linecap:round; stroke-linejoin:round; stroke-width:2; stroke-opacity:0.1; fill:none" points="192.709,72.5319 2352.76,72.5319 "/>
<polyline clip-path="url(#clip350)" style="stroke:#000000; stroke-linecap:round; stroke-linejoin:round; stroke-width:4; stroke-opacity:1; fill:none" points="192.709,1423.18 2352.76,1423.18 "/>
<polyline clip-path="url(#clip350)" style="stroke:#000000; stroke-linecap:round; stroke-linejoin:round; stroke-width:4; stroke-opacity:1; fill:none" points="192.709,1423.18 192.709,1404.28 "/>
<polyline clip-path="url(#clip350)" style="stroke:#000000; stroke-linecap:round; stroke-linejoin:round; stroke-width:4; stroke-opacity:1; fill:none" points="732.721,1423.18 732.721,1404.28 "/>
<polyline clip-path="url(#clip350)" style="stroke:#000000; stroke-linecap:round; stroke-linejoin:round; stroke-width:4; stroke-opacity:1; fill:none" points="1272.73,1423.18 1272.73,1404.28 "/>
<polyline clip-path="url(#clip350)" style="stroke:#000000; stroke-linecap:round; stroke-linejoin:round; stroke-width:4; stroke-opacity:1; fill:none" points="1812.74,1423.18 1812.74,1404.28 "/>
<polyline clip-path="url(#clip350)" style="stroke:#000000; stroke-linecap:round; stroke-linejoin:round; stroke-width:4; stroke-opacity:1; fill:none" points="2352.76,1423.18 2352.76,1404.28 "/>
<path clip-path="url(#clip350)" d="M170.094 1454.1 Q166.482 1454.1 164.654 1457.66 Q162.848 1461.2 162.848 1468.33 Q162.848 1475.44 164.654 1479.01 Q166.482 1482.55 170.094 1482.55 Q173.728 1482.55 175.533 1479.01 Q177.362 1475.44 177.362 1468.33 Q177.362 1461.2 175.533 1457.66 Q173.728 1454.1 170.094 1454.1 M170.094 1450.39 Q175.904 1450.39 178.959 1455 Q182.038 1459.58 182.038 1468.33 Q182.038 1477.06 178.959 1481.67 Q175.904 1486.25 170.094 1486.25 Q164.283 1486.25 161.205 1481.67 Q158.149 1477.06 158.149 1468.33 Q158.149 1459.58 161.205 1455 Q164.283 1450.39 170.094 1450.39 Z" fill="#000000" fill-rule="nonzero" fill-opacity="1" /><path clip-path="url(#clip350)" d="M190.255 1479.7 L195.14 1479.7 L195.14 1485.58 L190.255 1485.58 L190.255 1479.7 Z" fill="#000000" fill-rule="nonzero" fill-opacity="1" /><path clip-path="url(#clip350)" d="M215.325 1454.1 Q211.714 1454.1 209.885 1457.66 Q208.079 1461.2 208.079 1468.33 Q208.079 1475.44 209.885 1479.01 Q211.714 1482.55 215.325 1482.55 Q218.959 1482.55 220.765 1479.01 Q222.593 1475.44 222.593 1468.33 Q222.593 1461.2 220.765 1457.66 Q218.959 1454.1 215.325 1454.1 M215.325 1450.39 Q221.135 1450.39 224.19 1455 Q227.269 1459.58 227.269 1468.33 Q227.269 1477.06 224.19 1481.67 Q221.135 1486.25 215.325 1486.25 Q209.515 1486.25 206.436 1481.67 Q203.38 1477.06 203.38 1468.33 Q203.38 1459.58 206.436 1455 Q209.515 1450.39 215.325 1450.39 Z" fill="#000000" fill-rule="nonzero" fill-opacity="1" /><path clip-path="url(#clip350)" d="M710.603 1454.1 Q706.992 1454.1 705.163 1457.66 Q703.358 1461.2 703.358 1468.33 Q703.358 1475.44 705.163 1479.01 Q706.992 1482.55 710.603 1482.55 Q714.237 1482.55 716.043 1479.01 Q717.871 1475.44 717.871 1468.33 Q717.871 1461.2 716.043 1457.66 Q714.237 1454.1 710.603 1454.1 M710.603 1450.39 Q716.413 1450.39 719.469 1455 Q722.547 1459.58 722.547 1468.33 Q722.547 1477.06 719.469 1481.67 Q716.413 1486.25 710.603 1486.25 Q704.793 1486.25 701.714 1481.67 Q698.659 1477.06 698.659 1468.33 Q698.659 1459.58 701.714 1455 Q704.793 1450.39 710.603 1450.39 Z" fill="#000000" fill-rule="nonzero" fill-opacity="1" /><path clip-path="url(#clip350)" d="M730.765 1479.7 L735.649 1479.7 L735.649 1485.58 L730.765 1485.58 L730.765 1479.7 Z" fill="#000000" fill-rule="nonzero" fill-opacity="1" /><path clip-path="url(#clip350)" d="M745.88 1451.02 L764.237 1451.02 L764.237 1454.96 L750.163 1454.96 L750.163 1463.43 Q751.181 1463.08 752.2 1462.92 Q753.218 1462.73 754.237 1462.73 Q760.024 1462.73 763.404 1465.9 Q766.783 1469.08 766.783 1474.49 Q766.783 1480.07 763.311 1483.17 Q759.839 1486.25 753.519 1486.25 Q751.343 1486.25 749.075 1485.88 Q746.83 1485.51 744.422 1484.77 L744.422 1480.07 Q746.505 1481.2 748.728 1481.76 Q750.95 1482.32 753.427 1482.32 Q757.431 1482.32 759.769 1480.21 Q762.107 1478.1 762.107 1474.49 Q762.107 1470.88 759.769 1468.77 Q757.431 1466.67 753.427 1466.67 Q751.552 1466.67 749.677 1467.08 Q747.825 1467.5 745.88 1468.38 L745.88 1451.02 Z" fill="#000000" fill-rule="nonzero" fill-opacity="1" /><path clip-path="url(#clip350)" d="M1239.89 1481.64 L1247.52 1481.64 L1247.52 1455.28 L1239.21 1456.95 L1239.21 1452.69 L1247.48 1451.02 L1252.15 1451.02 L1252.15 1481.64 L1259.79 1481.64 L1259.79 1485.58 L1239.89 1485.58 L1239.89 1481.64 Z" fill="#000000" fill-rule="nonzero" fill-opacity="1" /><path clip-path="url(#clip350)" d="M1269.24 1479.7 L1274.12 1479.7 L1274.12 1485.58 L1269.24 1485.58 L1269.24 1479.7 Z" fill="#000000" fill-rule="nonzero" fill-opacity="1" /><path clip-path="url(#clip350)" d="M1294.31 1454.1 Q1290.7 1454.1 1288.87 1457.66 Q1287.06 1461.2 1287.06 1468.33 Q1287.06 1475.44 1288.87 1479.01 Q1290.7 1482.55 1294.31 1482.55 Q1297.94 1482.55 1299.75 1479.01 Q1301.57 1475.44 1301.57 1468.33 Q1301.57 1461.2 1299.75 1457.66 Q1297.94 1454.1 1294.31 1454.1 M1294.31 1450.39 Q1300.12 1450.39 1303.17 1455 Q1306.25 1459.58 1306.25 1468.33 Q1306.25 1477.06 1303.17 1481.67 Q1300.12 1486.25 1294.31 1486.25 Q1288.5 1486.25 1285.42 1481.67 Q1282.36 1477.06 1282.36 1468.33 Q1282.36 1459.58 1285.42 1455 Q1288.5 1450.39 1294.31 1450.39 Z" fill="#000000" fill-rule="nonzero" fill-opacity="1" /><path clip-path="url(#clip350)" d="M1780.39 1481.64 L1788.03 1481.64 L1788.03 1455.28 L1779.72 1456.95 L1779.72 1452.69 L1787.99 1451.02 L1792.66 1451.02 L1792.66 1481.64 L1800.3 1481.64 L1800.3 1485.58 L1780.39 1485.58 L1780.39 1481.64 Z" fill="#000000" fill-rule="nonzero" fill-opacity="1" /><path clip-path="url(#clip350)" d="M1809.75 1479.7 L1814.63 1479.7 L1814.63 1485.58 L1809.75 1485.58 L1809.75 1479.7 Z" fill="#000000" fill-rule="nonzero" fill-opacity="1" /><path clip-path="url(#clip350)" d="M1824.86 1451.02 L1843.22 1451.02 L1843.22 1454.96 L1829.14 1454.96 L1829.14 1463.43 Q1830.16 1463.08 1831.18 1462.92 Q1832.2 1462.73 1833.22 1462.73 Q1839.01 1462.73 1842.39 1465.9 Q1845.76 1469.08 1845.76 1474.49 Q1845.76 1480.07 1842.29 1483.17 Q1838.82 1486.25 1832.5 1486.25 Q1830.33 1486.25 1828.06 1485.88 Q1825.81 1485.51 1823.4 1484.77 L1823.4 1480.07 Q1825.49 1481.2 1827.71 1481.76 Q1829.93 1482.32 1832.41 1482.32 Q1836.41 1482.32 1838.75 1480.21 Q1841.09 1478.1 1841.09 1474.49 Q1841.09 1470.88 1838.75 1468.77 Q1836.41 1466.67 1832.41 1466.67 Q1830.53 1466.67 1828.66 1467.08 Q1826.81 1467.5 1824.86 1468.38 L1824.86 1451.02 Z" fill="#000000" fill-rule="nonzero" fill-opacity="1" /><path clip-path="url(#clip350)" d="M2323.99 1481.64 L2340.31 1481.64 L2340.31 1485.58 L2318.37 1485.58 L2318.37 1481.64 Q2321.03 1478.89 2325.61 1474.26 Q2330.22 1469.61 2331.4 1468.27 Q2333.65 1465.74 2334.53 1464.01 Q2335.43 1462.25 2335.43 1460.56 Q2335.43 1457.8 2333.49 1456.07 Q2331.56 1454.33 2328.46 1454.33 Q2326.26 1454.33 2323.81 1455.09 Q2321.38 1455.86 2318.6 1457.41 L2318.6 1452.69 Q2321.43 1451.55 2323.88 1450.97 Q2326.33 1450.39 2328.37 1450.39 Q2333.74 1450.39 2336.93 1453.08 Q2340.13 1455.77 2340.13 1460.26 Q2340.13 1462.39 2339.32 1464.31 Q2338.53 1466.2 2336.42 1468.8 Q2335.85 1469.47 2332.74 1472.69 Q2329.64 1475.88 2323.99 1481.64 Z" fill="#000000" fill-rule="nonzero" fill-opacity="1" /><path clip-path="url(#clip350)" d="M2350.13 1479.7 L2355.01 1479.7 L2355.01 1485.58 L2350.13 1485.58 L2350.13 1479.7 Z" fill="#000000" fill-rule="nonzero" fill-opacity="1" /><path clip-path="url(#clip350)" d="M2375.2 1454.1 Q2371.59 1454.1 2369.76 1457.66 Q2367.95 1461.2 2367.95 1468.33 Q2367.95 1475.44 2369.76 1479.01 Q2371.59 1482.55 2375.2 1482.55 Q2378.83 1482.55 2380.64 1479.01 Q2382.47 1475.44 2382.47 1468.33 Q2382.47 1461.2 2380.64 1457.66 Q2378.83 1454.1 2375.2 1454.1 M2375.2 1450.39 Q2381.01 1450.39 2384.06 1455 Q2387.14 1459.58 2387.14 1468.33 Q2387.14 1477.06 2384.06 1481.67 Q2381.01 1486.25 2375.2 1486.25 Q2369.39 1486.25 2366.31 1481.67 Q2363.25 1477.06 2363.25 1468.33 Q2363.25 1459.58 2366.31 1455 Q2369.39 1450.39 2375.2 1450.39 Z" fill="#000000" fill-rule="nonzero" fill-opacity="1" /><path clip-path="url(#clip350)" d="M1271.79 1522.27 L1271.79 1532.4 L1283.86 1532.4 L1283.86 1536.95 L1271.79 1536.95 L1271.79 1556.3 Q1271.79 1560.66 1272.97 1561.9 Q1274.18 1563.14 1277.84 1563.14 L1283.86 1563.14 L1283.86 1568.04 L1277.84 1568.04 Q1271.06 1568.04 1268.48 1565.53 Q1265.91 1562.98 1265.91 1556.3 L1265.91 1536.95 L1261.61 1536.95 L1261.61 1532.4 L1265.91 1532.4 L1265.91 1522.27 L1271.79 1522.27 Z" fill="#000000" fill-rule="nonzero" fill-opacity="1" /><polyline clip-path="url(#clip350)" style="stroke:#000000; stroke-linecap:round; stroke-linejoin:round; stroke-width:4; stroke-opacity:1; fill:none" points="192.709,1423.18 192.709,47.2441 "/>
<polyline clip-path="url(#clip350)" style="stroke:#000000; stroke-linecap:round; stroke-linejoin:round; stroke-width:4; stroke-opacity:1; fill:none" points="192.709,1385.09 211.607,1385.09 "/>
<polyline clip-path="url(#clip350)" style="stroke:#000000; stroke-linecap:round; stroke-linejoin:round; stroke-width:4; stroke-opacity:1; fill:none" points="192.709,947.574 211.607,947.574 "/>
<polyline clip-path="url(#clip350)" style="stroke:#000000; stroke-linecap:round; stroke-linejoin:round; stroke-width:4; stroke-opacity:1; fill:none" points="192.709,510.053 211.607,510.053 "/>
<polyline clip-path="url(#clip350)" style="stroke:#000000; stroke-linecap:round; stroke-linejoin:round; stroke-width:4; stroke-opacity:1; fill:none" points="192.709,72.5319 211.607,72.5319 "/>
<path clip-path="url(#clip350)" d="M50.9921 1385.55 L80.6679 1385.55 L80.6679 1389.48 L50.9921 1389.48 L50.9921 1385.55 Z" fill="#000000" fill-rule="nonzero" fill-opacity="1" /><path clip-path="url(#clip350)" d="M100.76 1370.89 Q97.1493 1370.89 95.3206 1374.46 Q93.515 1378 93.515 1385.13 Q93.515 1392.24 95.3206 1395.8 Q97.1493 1399.34 100.76 1399.34 Q104.395 1399.34 106.2 1395.8 Q108.029 1392.24 108.029 1385.13 Q108.029 1378 106.2 1374.46 Q104.395 1370.89 100.76 1370.89 M100.76 1367.19 Q106.571 1367.19 109.626 1371.8 Q112.705 1376.38 112.705 1385.13 Q112.705 1393.86 109.626 1398.46 Q106.571 1403.05 100.76 1403.05 Q94.9502 1403.05 91.8715 1398.46 Q88.816 1393.86 88.816 1385.13 Q88.816 1376.38 91.8715 1371.8 Q94.9502 1367.19 100.76 1367.19 Z" fill="#000000" fill-rule="nonzero" fill-opacity="1" /><path clip-path="url(#clip350)" d="M120.922 1396.49 L125.807 1396.49 L125.807 1402.37 L120.922 1402.37 L120.922 1396.49 Z" fill="#000000" fill-rule="nonzero" fill-opacity="1" /><path clip-path="url(#clip350)" d="M136.802 1398.44 L144.441 1398.44 L144.441 1372.07 L136.131 1373.74 L136.131 1369.48 L144.394 1367.81 L149.07 1367.81 L149.07 1398.44 L156.709 1398.44 L156.709 1402.37 L136.802 1402.37 L136.802 1398.44 Z" fill="#000000" fill-rule="nonzero" fill-opacity="1" /><path clip-path="url(#clip350)" d="M99.5335 933.372 Q95.9224 933.372 94.0937 936.937 Q92.2882 940.479 92.2882 947.608 Q92.2882 954.715 94.0937 958.28 Q95.9224 961.821 99.5335 961.821 Q103.168 961.821 104.973 958.28 Q106.802 954.715 106.802 947.608 Q106.802 940.479 104.973 936.937 Q103.168 933.372 99.5335 933.372 M99.5335 929.669 Q105.344 929.669 108.399 934.275 Q111.478 938.858 111.478 947.608 Q111.478 956.335 108.399 960.942 Q105.344 965.525 99.5335 965.525 Q93.7234 965.525 90.6447 960.942 Q87.5892 956.335 87.5892 947.608 Q87.5892 938.858 90.6447 934.275 Q93.7234 929.669 99.5335 929.669 Z" fill="#000000" fill-rule="nonzero" fill-opacity="1" /><path clip-path="url(#clip350)" d="M119.695 958.974 L124.58 958.974 L124.58 964.854 L119.695 964.854 L119.695 958.974 Z" fill="#000000" fill-rule="nonzero" fill-opacity="1" /><path clip-path="url(#clip350)" d="M144.765 933.372 Q141.154 933.372 139.325 936.937 Q137.519 940.479 137.519 947.608 Q137.519 954.715 139.325 958.28 Q141.154 961.821 144.765 961.821 Q148.399 961.821 150.205 958.28 Q152.033 954.715 152.033 947.608 Q152.033 940.479 150.205 936.937 Q148.399 933.372 144.765 933.372 M144.765 929.669 Q150.575 929.669 153.63 934.275 Q156.709 938.858 156.709 947.608 Q156.709 956.335 153.63 960.942 Q150.575 965.525 144.765 965.525 Q138.955 965.525 135.876 960.942 Q132.82 956.335 132.82 947.608 Q132.82 938.858 135.876 934.275 Q138.955 929.669 144.765 929.669 Z" fill="#000000" fill-rule="nonzero" fill-opacity="1" /><path clip-path="url(#clip350)" d="M100.76 495.851 Q97.1493 495.851 95.3206 499.416 Q93.515 502.958 93.515 510.087 Q93.515 517.194 95.3206 520.759 Q97.1493 524.3 100.76 524.3 Q104.395 524.3 106.2 520.759 Q108.029 517.194 108.029 510.087 Q108.029 502.958 106.2 499.416 Q104.395 495.851 100.76 495.851 M100.76 492.148 Q106.571 492.148 109.626 496.754 Q112.705 501.338 112.705 510.087 Q112.705 518.814 109.626 523.421 Q106.571 528.004 100.76 528.004 Q94.9502 528.004 91.8715 523.421 Q88.816 518.814 88.816 510.087 Q88.816 501.338 91.8715 496.754 Q94.9502 492.148 100.76 492.148 Z" fill="#000000" fill-rule="nonzero" fill-opacity="1" /><path clip-path="url(#clip350)" d="M120.922 521.453 L125.807 521.453 L125.807 527.333 L120.922 527.333 L120.922 521.453 Z" fill="#000000" fill-rule="nonzero" fill-opacity="1" /><path clip-path="url(#clip350)" d="M136.802 523.398 L144.441 523.398 L144.441 497.032 L136.131 498.699 L136.131 494.439 L144.394 492.773 L149.07 492.773 L149.07 523.398 L156.709 523.398 L156.709 527.333 L136.802 527.333 L136.802 523.398 Z" fill="#000000" fill-rule="nonzero" fill-opacity="1" /><path clip-path="url(#clip350)" d="M101.131 58.3306 Q97.5197 58.3306 95.691 61.8954 Q93.8854 65.4371 93.8854 72.5667 Q93.8854 79.6731 95.691 83.2379 Q97.5197 86.7796 101.131 86.7796 Q104.765 86.7796 106.571 83.2379 Q108.399 79.6731 108.399 72.5667 Q108.399 65.4371 106.571 61.8954 Q104.765 58.3306 101.131 58.3306 M101.131 54.6269 Q106.941 54.6269 109.996 59.2334 Q113.075 63.8167 113.075 72.5667 Q113.075 81.2935 109.996 85.8999 Q106.941 90.4832 101.131 90.4832 Q95.3206 90.4832 92.2419 85.8999 Q89.1864 81.2935 89.1864 72.5667 Q89.1864 63.8167 92.2419 59.2334 Q95.3206 54.6269 101.131 54.6269 Z" fill="#000000" fill-rule="nonzero" fill-opacity="1" /><path clip-path="url(#clip350)" d="M121.293 83.9323 L126.177 83.9323 L126.177 89.8119 L121.293 89.8119 L121.293 83.9323 Z" fill="#000000" fill-rule="nonzero" fill-opacity="1" /><path clip-path="url(#clip350)" d="M140.39 85.8768 L156.709 85.8768 L156.709 89.8119 L134.765 89.8119 L134.765 85.8768 Q137.427 83.1222 142.01 78.4926 Q146.617 73.8398 147.797 72.4972 Q150.043 69.9741 150.922 68.238 Q151.825 66.4787 151.825 64.7889 Q151.825 62.0343 149.88 60.2982 Q147.959 58.5621 144.857 58.5621 Q142.658 58.5621 140.205 59.326 Q137.774 60.0899 134.996 61.6408 L134.996 56.9186 Q137.82 55.7843 140.274 55.2056 Q142.728 54.6269 144.765 54.6269 Q150.135 54.6269 153.33 57.3121 Q156.524 59.9973 156.524 64.488 Q156.524 66.6176 155.714 68.5389 Q154.927 70.437 152.82 73.0296 Q152.242 73.7009 149.14 76.9185 Q146.038 80.1129 140.39 85.8768 Z" fill="#000000" fill-rule="nonzero" fill-opacity="1" /><polyline clip-path="url(#clip352)" style="stroke:#009af9; stroke-linecap:round; stroke-linejoin:round; stroke-width:4; stroke-opacity:1; fill:none" points="192.709,1384.24 194.871,1374.5 197.034,1364.87 199.196,1355.32 201.358,1345.88 203.52,1336.52 205.682,1327.27 207.845,1318.1 210.007,1309.02 212.169,1300.04 214.331,1291.14 216.493,1282.33 218.656,1273.61 220.818,1264.98 222.98,1256.43 225.142,1247.97 227.304,1239.59 229.467,1231.3 231.629,1223.09 233.791,1214.96 235.953,1206.91 238.116,1198.94 240.278,1191.05 242.44,1183.24 244.602,1175.51 246.764,1167.85 248.927,1160.27 251.089,1152.77 253.251,1145.34 255.413,1137.98 257.575,1130.7 259.738,1123.49 261.9,1116.36 264.062,1109.29 266.224,1102.29 268.386,1095.37 270.549,1088.51 272.711,1081.72 274.873,1075 277.035,1068.34 279.198,1061.75 281.36,1055.23 283.522,1048.77 285.684,1042.38 287.846,1036.05 290.009,1029.78 292.171,1023.58 294.333,1017.44 296.495,1011.36 298.657,1005.34 300.82,999.374 302.982,993.473 305.144,987.63 307.306,981.845 309.468,976.119 311.631,970.449 313.793,964.835 315.955,959.278 318.117,953.776 320.279,948.329 322.442,942.936 324.604,937.596 326.766,932.31 328.928,927.077 331.091,921.895 333.253,916.766 335.415,911.687 337.577,906.659 339.739,901.681 341.902,896.752 344.064,891.873 346.226,887.042 348.388,882.26 350.55,877.525 352.713,872.837 354.875,868.196 357.037,863.601 359.199,859.052 361.361,854.548 363.524,850.089 365.686,845.674 367.848,841.303 370.01,836.976 372.172,832.692 374.335,828.451 376.497,824.252 378.659,820.095 380.821,815.979 382.984,811.904 385.146,807.87 387.308,803.876 389.47,799.922 391.632,796.007 393.795,792.131 395.957,788.294 398.119,784.495 400.281,780.733 402.443,777.01 404.606,773.323 406.768,769.673 408.93,766.059 411.092,762.482 413.254,758.94 415.417,755.433 417.579,751.961 419.741,748.524 421.903,745.121 424.066,741.752 426.228,738.416 428.39,735.114 430.552,731.844 432.714,728.607 434.877,725.403 437.039,722.23 439.201,719.089 441.363,715.979 443.525,712.9 445.688,709.852 447.85,706.834 450.012,703.846 452.174,700.888 454.336,697.96 456.499,695.06 458.661,692.19 460.823,689.348 462.985,686.534 465.147,683.749 467.31,680.991 469.472,678.261 471.634,675.558 473.796,672.882 475.959,670.232 478.121,667.609 480.283,665.012 482.445,662.441 484.607,659.895 486.77,657.375 488.932,654.88 491.094,652.41 493.256,649.964 495.418,647.543 497.581,645.146 499.743,642.773 501.905,640.423 504.067,638.097 506.229,635.794 508.392,633.513 510.554,631.256 512.716,629.021 514.878,626.808 517.04,624.617 519.203,622.448 521.365,620.301 523.527,618.175 525.689,616.07 527.852,613.986 530.014,611.923 532.176,609.881 534.338,607.859 536.5,605.857 538.663,603.875 540.825,601.912 542.987,599.97 545.149,598.046 547.311,596.142 549.474,594.257 551.636,592.39 553.798,590.542 555.96,588.713 558.122,586.902 560.285,585.109 562.447,583.333 564.609,581.576 566.771,579.836 568.934,578.113 571.096,576.407 573.258,574.719 575.42,573.047 577.582,571.392 579.745,569.753 581.907,568.131 584.069,566.525 586.231,564.935 588.393,563.36 590.556,561.802 592.718,560.258 594.88,558.731 597.042,557.218 599.204,555.72 601.367,554.238 603.529,552.77 605.691,551.317 607.853,549.878 610.015,548.453 612.178,547.043 614.34,545.647 616.502,544.264 618.664,542.895 620.827,541.54 622.989,540.199 625.151,538.871 627.313,537.556 629.475,536.254 631.638,534.965 633.8,533.689 635.962,532.426 638.124,531.175 640.286,529.937 642.449,528.711 644.611,527.497 646.773,526.296 648.935,525.106 651.097,523.928 653.26,522.762 655.422,521.608 657.584,520.465 659.746,519.334 661.908,518.214 664.071,517.105 666.233,516.007 668.395,514.92 670.557,513.844 672.72,512.778 674.882,511.723 677.044,510.679 679.206,509.645 681.368,508.621 683.531,507.608 685.693,506.605 687.855,505.611 690.017,504.628 692.179,503.654 694.342,502.69 696.504,501.736 698.666,500.791 700.828,499.856 702.99,498.929 705.153,498.012 707.315,497.105 709.477,496.206 711.639,495.316 713.802,494.435 715.964,493.563 718.126,492.699 720.288,491.844 722.45,490.998 724.613,490.16 726.775,489.33 728.937,488.508 731.099,487.695 733.261,486.89 735.424,486.093 737.586,485.303 739.748,484.522 741.91,483.748 744.072,482.982 746.235,482.224 748.397,481.474 750.559,480.73 752.721,479.994 754.883,479.266 757.046,478.545 759.208,477.831 761.37,477.124 763.532,476.424 765.695,475.731 767.857,475.045 770.019,474.366 772.181,473.694 774.343,473.028 776.506,472.369 778.668,471.717 780.83,471.071 782.992,470.431 785.154,469.798 787.317,469.172 789.479,468.551 791.641,467.937 793.803,467.329 795.965,466.726 798.128,466.13 800.29,465.54 802.452,464.956 804.614,464.377 806.776,463.804 808.939,463.237 811.101,462.676 813.263,462.12 815.425,461.57 817.588,461.025 819.75,460.486 821.912,459.952 824.074,459.423 826.236,458.899 828.399,458.381 830.561,457.868 832.723,457.36 834.885,456.857 837.047,456.359 839.21,455.866 841.372,455.378 843.534,454.895 845.696,454.416 847.858,453.943 850.021,453.473 852.183,453.009 854.345,452.549 856.507,452.094 858.67,451.643 860.832,451.197 862.994,450.756 865.156,450.318 867.318,449.885 869.481,449.457 871.643,449.032 873.805,448.612 875.967,448.196 878.129,447.784 880.292,447.377 882.454,446.973 884.616,446.573 886.778,446.178 888.94,445.786 891.103,445.398 893.265,445.015 895.427,444.635 897.589,444.258 899.751,443.886 901.914,443.517 904.076,443.152 906.238,442.791 908.4,442.433 910.563,442.079 912.725,441.728 914.887,441.381 917.049,441.037 919.211,440.697 921.374,440.36 923.536,440.026 925.698,439.696 927.86,439.369 930.022,439.045 932.185,438.725 934.347,438.408 936.509,438.094 938.671,437.783 940.833,437.475 942.996,437.17 945.158,436.868 947.32,436.57 949.482,436.274 951.644,435.981 953.807,435.691 955.969,435.404 958.131,435.12 960.293,434.838 962.456,434.56 964.618,434.284 966.78,434.011 968.942,433.741 971.104,433.473 973.267,433.208 975.429,432.946 977.591,432.686 979.753,432.429 981.915,432.174 984.078,431.922 986.24,431.672 988.402,431.425 990.564,431.18 992.726,430.938 994.889,430.698 997.051,430.461 999.213,430.226 1001.38,429.993 1003.54,429.762 1005.7,429.534 1007.86,429.308 1010.02,429.084 1012.19,428.863 1014.35,428.644 1016.51,428.426 1018.67,428.212 1020.84,427.999 1023,427.788 1025.16,427.58 1027.32,427.373 1029.48,427.169 1031.65,426.966 1033.81,426.766 1035.97,426.568 1038.13,426.371 1040.3,426.177 1042.46,425.984 1044.62,425.794 1046.78,425.605 1048.94,425.419 1051.11,425.234 1053.27,425.051 1055.43,424.87 1057.59,424.69 1059.75,424.513 1061.92,424.337 1064.08,424.163 1066.24,423.991 1068.4,423.82 1070.57,423.651 1072.73,423.484 1074.89,423.318 1077.05,423.155 1079.21,422.992 1081.38,422.832 1083.54,422.673 1085.7,422.516 1087.86,422.36 1090.03,422.206 1092.19,422.053 1094.35,421.902 1096.51,421.752 1098.67,421.604 1100.84,421.457 1103,421.312 1105.16,421.168 1107.32,421.026 1109.49,420.885 1111.65,420.745 1113.81,420.607 1115.97,420.47 1118.13,420.335 1120.3,420.201 1122.46,420.068 1124.62,419.937 1126.78,419.807 1128.95,419.678 1131.11,419.55 1133.27,419.424 1135.43,419.299 1137.59,419.175 1139.76,419.052 1141.92,418.931 1144.08,418.811 1146.24,418.692 1148.41,418.574 1150.57,418.457 1152.73,418.342 1154.89,418.228 1157.05,418.114 1159.22,418.002 1161.38,417.891 1163.54,417.781 1165.7,417.672 1167.87,417.564 1170.03,417.458 1172.19,417.352 1174.35,417.247 1176.51,417.144 1178.68,417.041 1180.84,416.94 1183,416.839 1185.16,416.74 1187.33,416.641 1189.49,416.544 1191.65,416.447 1193.81,416.352 1195.97,416.257 1198.14,416.163 1200.3,416.07 1202.46,415.979 1204.62,415.888 1206.79,415.798 1208.95,415.709 1211.11,415.62 1213.27,415.533 1215.43,415.447 1217.6,415.361 1219.76,415.276 1221.92,415.192 1224.08,415.109 1226.25,415.027 1228.41,414.946 1230.57,414.865 1232.73,414.786 1234.89,414.707 1237.06,414.629 1239.22,414.551 1241.38,414.475 1243.54,414.399 1245.7,414.324 1247.87,414.249 1250.03,414.176 1252.19,414.103 1254.35,414.031 1256.52,413.96 1258.68,413.889 1260.84,413.819 1263,413.75 1265.16,413.681 1267.33,413.614 1269.49,413.546 1271.65,413.48 1273.81,413.414 1275.98,413.349 1278.14,413.285 1280.3,413.221 1282.46,413.158 1284.62,413.095 1286.79,413.033 1288.95,412.972 1291.11,412.911 1293.27,412.851 1295.44,412.791 1297.6,412.732 1299.76,412.674 1301.92,412.616 1304.08,412.559 1306.25,412.503 1308.41,412.446 1310.57,412.391 1312.73,412.336 1314.9,412.282 1317.06,412.228 1319.22,412.174 1321.38,412.122 1323.54,412.069 1325.71,412.018 1327.87,411.966 1330.03,411.915 1332.19,411.865 1334.36,411.815 1336.52,411.766 1338.68,411.717 1340.84,411.669 1343,411.621 1345.17,411.574 1347.33,411.527 1349.49,411.48 1351.65,411.434 1353.82,411.389 1355.98,411.343 1358.14,411.299 1360.3,411.254 1362.46,411.211 1364.63,411.167 1366.79,411.124 1368.95,411.082 1371.11,411.039 1373.28,410.998 1375.44,410.956 1377.6,410.916 1379.76,410.875 1381.92,410.835 1384.09,410.795 1386.25,410.756 1388.41,410.717 1390.57,410.679 1392.74,410.64 1394.9,410.603 1397.06,410.565 1399.22,410.528 1401.38,410.492 1403.55,410.455 1405.71,410.42 1407.87,410.384 1410.03,410.349 1412.2,410.314 1414.36,410.28 1416.52,410.245 1418.68,410.212 1420.84,410.178 1423.01,410.145 1425.17,410.112 1427.33,410.08 1429.49,410.048 1431.65,410.016 1433.82,409.985 1435.98,409.953 1438.14,409.923 1440.3,409.892 1442.47,409.862 1444.63,409.832 1446.79,409.802 1448.95,409.773 1451.11,409.744 1453.28,409.715 1455.44,409.687 1457.6,409.659 1459.76,409.631 1461.93,409.604 1464.09,409.576 1466.25,409.549 1468.41,409.523 1470.57,409.496 1472.74,409.47 1474.9,409.444 1477.06,409.419 1479.22,409.393 1481.39,409.368 1483.55,409.343 1485.71,409.319 1487.87,409.294 1490.03,409.27 1492.2,409.246 1494.36,409.222 1496.52,409.199 1498.68,409.176 1500.85,409.153 1503.01,409.13 1505.17,409.108 1507.33,409.086 1509.49,409.064 1511.66,409.042 1513.82,409.02 1515.98,408.999 1518.14,408.978 1520.31,408.957 1522.47,408.936 1524.63,408.915 1526.79,408.895 1528.95,408.875 1531.12,408.855 1533.28,408.835 1535.44,408.816 1537.6,408.796 1539.77,408.777 1541.93,408.758 1544.09,408.739 1546.25,408.721 1548.41,408.702 1550.58,408.684 1552.74,408.666 1554.9,408.648 1557.06,408.63 1559.23,408.613 1561.39,408.595 1563.55,408.578 1565.71,408.561 1567.87,408.544 1570.04,408.527 1572.2,408.511 1574.36,408.494 1576.52,408.478 1578.69,408.462 1580.85,408.446 1583.01,408.43 1585.17,408.414 1587.33,408.399 1589.5,408.383 1591.66,408.368 1593.82,408.353 1595.98,408.338 1598.14,408.323 1600.31,408.309 1602.47,408.294 1604.63,408.28 1606.79,408.266 1608.96,408.252 1611.12,408.238 1613.28,408.224 1615.44,408.21 1617.6,408.197 1619.77,408.183 1621.93,408.17 1624.09,408.157 1626.25,408.144 1628.42,408.131 1630.58,408.118 1632.74,408.106 1634.9,408.093 1637.06,408.081 1639.23,408.069 1641.39,408.057 1643.55,408.045 1645.71,408.033 1647.88,408.021 1650.04,408.009 1652.2,407.998 1654.36,407.987 1656.52,407.975 1658.69,407.964 1660.85,407.953 1663.01,407.942 1665.17,407.931 1667.34,407.921 1669.5,407.91 1671.66,407.9 1673.82,407.889 1675.98,407.879 1678.15,407.869 1680.31,407.859 1682.47,407.849 1684.63,407.839 1686.8,407.829 1688.96,407.82 1691.12,407.81 1693.28,407.801 1695.44,407.791 1697.61,407.782 1699.77,407.773 1701.93,407.764 1704.09,407.755 1706.26,407.746 1708.42,407.737 1710.58,407.729 1712.74,407.72 1714.9,407.712 1717.07,407.703 1719.23,407.695 1721.39,407.687 1723.55,407.678 1725.72,407.67 1727.88,407.662 1730.04,407.654 1732.2,407.647 1734.36,407.639 1736.53,407.631 1738.69,407.624 1740.85,407.616 1743.01,407.609 1745.18,407.601 1747.34,407.594 1749.5,407.587 1751.66,407.58 1753.82,407.573 1755.99,407.566 1758.15,407.559 1760.31,407.552 1762.47,407.545 1764.64,407.538 1766.8,407.532 1768.96,407.525 1771.12,407.519 1773.28,407.512 1775.45,407.506 1777.61,407.5 1779.77,407.493 1781.93,407.487 1784.09,407.481 1786.26,407.475 1788.42,407.469 1790.58,407.463 1792.74,407.457 1794.91,407.451 1797.07,407.445 1799.23,407.44 1801.39,407.434 1803.55,407.428 1805.72,407.423 1807.88,407.417 1810.04,407.412 1812.2,407.406 1814.37,407.401 1816.53,407.396 1818.69,407.39 1820.85,407.385 1823.01,407.38 1825.18,407.375 1827.34,407.37 1829.5,407.365 1831.66,407.36 1833.83,407.355 1835.99,407.35 1838.15,407.345 1840.31,407.34 1842.47,407.335 1844.64,407.331 1846.8,407.326 1848.96,407.321 1851.12,407.317 1853.29,407.312 1855.45,407.308 1857.61,407.303 1859.77,407.299 1861.93,407.294 1864.1,407.29 1866.26,407.286 1868.42,407.281 1870.58,407.277 1872.75,407.273 1874.91,407.269 1877.07,407.265 1879.23,407.261 1881.39,407.257 1883.56,407.253 1885.72,407.249 1887.88,407.245 1890.04,407.241 1892.21,407.237 1894.37,407.233 1896.53,407.229 1898.69,407.226 1900.85,407.222 1903.02,407.218 1905.18,407.215 1907.34,407.211 1909.5,407.208 1911.67,407.204 1913.83,407.201 1915.99,407.197 1918.15,407.194 1920.31,407.19 1922.48,407.187 1924.64,407.184 1926.8,407.181 1928.96,407.177 1931.13,407.174 1933.29,407.171 1935.45,407.168 1937.61,407.165 1939.77,407.162 1941.94,407.159 1944.1,407.156 1946.26,407.153 1948.42,407.15 1950.59,407.147 1952.75,407.144 1954.91,407.141 1957.07,407.138 1959.23,407.136 1961.4,407.133 1963.56,407.13 1965.72,407.128 1967.88,407.125 1970.04,407.122 1972.21,407.12 1974.37,407.117 1976.53,407.115 1978.69,407.112 1980.86,407.11 1983.02,407.107 1985.18,407.105 1987.34,407.102 1989.5,407.1 1991.67,407.098 1993.83,407.095 1995.99,407.093 1998.15,407.091 2000.32,407.088 2002.48,407.086 2004.64,407.084 2006.8,407.082 2008.96,407.08 2011.13,407.077 2013.29,407.075 2015.45,407.073 2017.61,407.071 2019.78,407.069 2021.94,407.067 2024.1,407.065 2026.26,407.063 2028.42,407.061 2030.59,407.059 2032.75,407.057 2034.91,407.056 2037.07,407.054 2039.24,407.052 2041.4,407.05 2043.56,407.048 2045.72,407.046 2047.88,407.045 2050.05,407.043 2052.21,407.041 2054.37,407.039 2056.53,407.038 2058.7,407.036 2060.86,407.034 2063.02,407.033 2065.18,407.031 2067.34,407.03 2069.51,407.028 2071.67,407.026 2073.83,407.025 2075.99,407.023 2078.16,407.022 2080.32,407.02 2082.48,407.019 2084.64,407.017 2086.8,407.016 2088.97,407.014 2091.13,407.013 2093.29,407.011 2095.45,407.01 2097.62,407.009 2099.78,407.007 2101.94,407.006 2104.1,407.004 2106.26,407.003 2108.43,407.002 2110.59,407 2112.75,406.999 2114.91,406.998 2117.08,406.996 2119.24,406.995 2121.4,406.994 2123.56,406.993 2125.72,406.991 2127.89,406.99 2130.05,406.989 2132.21,406.987 2134.37,406.986 2136.54,406.985 2138.7,406.984 2140.86,406.983 2143.02,406.981 2145.18,406.98 2147.35,406.979 2149.51,406.978 2151.67,406.977 2153.83,406.976 2155.99,406.974 2158.16,406.973 2160.32,406.972 2162.48,406.971 2164.64,406.97 2166.81,406.969 2168.97,406.968 2171.13,406.967 2173.29,406.966 2175.45,406.965 2177.62,406.964 2179.78,406.963 2181.94,406.962 2184.1,406.961 2186.27,406.96 2188.43,406.959 2190.59,406.958 2192.75,406.957 2194.91,406.956 2197.08,406.955 2199.24,406.954 2201.4,406.953 2203.56,406.952 2205.73,406.951 2207.89,406.951 2210.05,406.95 2212.21,406.949 2214.37,406.948 2216.54,406.947 2218.7,406.946 2220.86,406.945 2223.02,406.945 2225.19,406.944 2227.35,406.943 2229.51,406.942 2231.67,406.941 2233.83,406.941 2236,406.94 2238.16,406.939 2240.32,406.938 2242.48,406.937 2244.65,406.937 2246.81,406.936 2248.97,406.935 2251.13,406.935 2253.29,406.934 2255.46,406.933 2257.62,406.932 2259.78,406.932 2261.94,406.931 2264.11,406.93 2266.27,406.93 2268.43,406.929 2270.59,406.928 2272.75,406.928 2274.92,406.927 2277.08,406.926 2279.24,406.926 2281.4,406.925 2283.57,406.925 2285.73,406.924 2287.89,406.923 2290.05,406.923 2292.21,406.922 2294.38,406.922 2296.54,406.921 2298.7,406.92 2300.86,406.92 2303.03,406.919 2305.19,406.919 2307.35,406.918 2309.51,406.918 2311.67,406.917 2313.84,406.916 2316,406.916 2318.16,406.915 2320.32,406.915 2322.48,406.914 2324.65,406.914 2326.81,406.913 2328.97,406.913 2331.13,406.912 2333.3,406.912 2335.46,406.911 2337.62,406.911 2339.78,406.91 2341.94,406.91 2344.11,406.909 2346.27,406.909 2348.43,406.909 2350.59,406.908 2352.76,406.908 "/>
<polyline clip-path="url(#clip352)" style="stroke:#e26f46; stroke-linecap:round; stroke-linejoin:round; stroke-width:4; stroke-opacity:1; fill:none" points="192.709,86.1857 194.871,97.6835 197.034,109.017 199.196,120.188 201.358,131.199 203.52,142.052 205.682,152.747 207.845,163.288 210.007,173.676 212.169,183.913 214.331,194.001 216.493,203.941 218.656,213.735 220.818,223.385 222.98,232.892 225.142,242.259 227.304,251.487 229.467,260.578 231.629,269.533 233.791,278.354 235.953,287.042 238.116,295.599 240.278,304.027 242.44,312.328 244.602,320.502 246.764,328.551 248.927,336.477 251.089,344.282 253.251,351.966 255.413,359.531 257.575,366.979 259.738,374.311 261.9,381.528 264.062,388.633 266.224,395.625 268.386,402.507 270.549,409.28 272.711,415.945 274.873,422.504 277.035,428.958 279.198,435.307 281.36,441.554 283.522,447.7 285.684,453.746 287.846,459.693 290.009,465.542 292.171,471.295 294.333,476.953 296.495,482.516 298.657,487.987 300.82,493.366 302.982,498.654 305.144,503.853 307.306,508.963 309.468,513.986 311.631,518.923 313.793,523.775 315.955,528.543 318.117,533.227 320.279,537.83 322.442,542.352 324.604,546.794 326.766,551.156 328.928,555.441 331.091,559.649 333.253,563.781 335.415,567.838 337.577,571.821 339.739,575.731 341.902,579.569 344.064,583.335 346.226,587.031 348.388,590.658 350.55,594.216 352.713,597.706 354.875,601.13 357.037,604.487 359.199,607.78 361.361,611.008 363.524,614.173 365.686,617.275 367.848,620.315 370.01,623.294 372.172,626.213 374.335,629.072 376.497,631.873 378.659,634.616 380.821,637.301 382.984,639.931 385.146,642.504 387.308,645.023 389.47,647.487 391.632,649.898 393.795,652.256 395.957,654.561 398.119,656.816 400.281,659.02 402.443,661.173 404.606,663.278 406.768,665.333 408.93,667.341 411.092,669.301 413.254,671.214 415.417,673.081 417.579,674.903 419.741,676.68 421.903,678.412 424.066,680.101 426.228,681.747 428.39,683.35 430.552,684.911 432.714,686.431 434.877,687.91 437.039,689.349 439.201,690.748 441.363,692.108 443.525,693.429 445.688,694.712 447.85,695.958 450.012,697.166 452.174,698.338 454.336,699.474 456.499,700.575 458.661,701.64 460.823,702.671 462.985,703.667 465.147,704.631 467.31,705.561 469.472,706.458 471.634,707.324 473.796,708.157 475.959,708.96 478.121,709.732 480.283,710.473 482.445,711.185 484.607,711.867 486.77,712.52 488.932,713.144 491.094,713.74 493.256,714.309 495.418,714.85 497.581,715.364 499.743,715.852 501.905,716.313 504.067,716.749 506.229,717.159 508.392,717.545 510.554,717.906 512.716,718.242 514.878,718.555 517.04,718.844 519.203,719.11 521.365,719.353 523.527,719.574 525.689,719.772 527.852,719.949 530.014,720.104 532.176,720.238 534.338,720.351 536.5,720.443 538.663,720.516 540.825,720.568 542.987,720.601 545.149,720.615 547.311,720.61 549.474,720.586 551.636,720.543 553.798,720.483 555.96,720.405 558.122,720.309 560.285,720.197 562.447,720.067 564.609,719.921 566.771,719.758 568.934,719.579 571.096,719.384 573.258,719.174 575.42,718.949 577.582,718.708 579.745,718.453 581.907,718.183 584.069,717.899 586.231,717.601 588.393,717.29 590.556,716.964 592.718,716.625 594.88,716.274 597.042,715.909 599.204,715.532 601.367,715.142 603.529,714.74 605.691,714.327 607.853,713.901 610.015,713.464 612.178,713.016 614.34,712.557 616.502,712.087 618.664,711.606 620.827,711.114 622.989,710.612 625.151,710.101 627.313,709.579 629.475,709.047 631.638,708.506 633.8,707.955 635.962,707.395 638.124,706.826 640.286,706.248 642.449,705.662 644.611,705.067 646.773,704.463 648.935,703.852 651.097,703.232 653.26,702.604 655.422,701.969 657.584,701.326 659.746,700.676 661.908,700.019 664.071,699.355 666.233,698.683 668.395,698.005 670.557,697.321 672.72,696.629 674.882,695.932 677.044,695.228 679.206,694.519 681.368,693.803 683.531,693.082 685.693,692.355 687.855,691.623 690.017,690.885 692.179,690.142 694.342,689.394 696.504,688.641 698.666,687.883 700.828,687.121 702.99,686.354 705.153,685.582 707.315,684.807 709.477,684.026 711.639,683.242 713.802,682.454 715.964,681.662 718.126,680.866 720.288,680.067 722.45,679.264 724.613,678.457 726.775,677.647 728.937,676.834 731.099,676.018 733.261,675.199 735.424,674.376 737.586,673.551 739.748,672.723 741.91,671.892 744.072,671.059 746.235,670.223 748.397,669.385 750.559,668.544 752.721,667.701 754.883,666.856 757.046,666.009 759.208,665.16 761.37,664.309 763.532,663.456 765.695,662.601 767.857,661.744 770.019,660.886 772.181,660.027 774.343,659.166 776.506,658.303 778.668,657.439 780.83,656.574 782.992,655.708 785.154,654.841 787.317,653.972 789.479,653.103 791.641,652.233 793.803,651.362 795.965,650.49 798.128,649.618 800.29,648.745 802.452,647.871 804.614,646.997 806.776,646.123 808.939,645.248 811.101,644.372 813.263,643.497 815.425,642.621 817.588,641.745 819.75,640.87 821.912,639.994 824.074,639.118 826.236,638.242 828.399,637.366 830.561,636.491 832.723,635.616 834.885,634.741 837.047,633.866 839.21,632.992 841.372,632.118 843.534,631.245 845.696,630.372 847.858,629.5 850.021,628.628 852.183,627.757 854.345,626.887 856.507,626.018 858.67,625.149 860.832,624.281 862.994,623.414 865.156,622.548 867.318,621.682 869.481,620.818 871.643,619.954 873.805,619.092 875.967,618.23 878.129,617.37 880.292,616.511 882.454,615.652 884.616,614.795 886.778,613.94 888.94,613.085 891.103,612.232 893.265,611.38 895.427,610.529 897.589,609.68 899.751,608.832 901.914,607.985 904.076,607.14 906.238,606.296 908.4,605.454 910.563,604.614 912.725,603.774 914.887,602.937 917.049,602.101 919.211,601.267 921.374,600.434 923.536,599.603 925.698,598.773 927.86,597.946 930.022,597.12 932.185,596.296 934.347,595.473 936.509,594.653 938.671,593.834 940.833,593.017 942.996,592.202 945.158,591.389 947.32,590.578 949.482,589.769 951.644,588.962 953.807,588.156 955.969,587.353 958.131,586.552 960.293,585.752 962.456,584.955 964.618,584.16 966.78,583.367 968.942,582.576 971.104,581.787 973.267,581 975.429,580.215 977.591,579.433 979.753,578.653 981.915,577.875 984.078,577.099 986.24,576.325 988.402,575.553 990.564,574.784 992.726,574.017 994.889,573.252 997.051,572.49 999.213,571.729 1001.38,570.971 1003.54,570.216 1005.7,569.462 1007.86,568.711 1010.02,567.962 1012.19,567.216 1014.35,566.471 1016.51,565.729 1018.67,564.99 1020.84,564.252 1023,563.517 1025.16,562.784 1027.32,562.054 1029.48,561.326 1031.65,560.6 1033.81,559.877 1035.97,559.156 1038.13,558.437 1040.3,557.721 1042.46,557.007 1044.62,556.296 1046.78,555.586 1048.94,554.88 1051.11,554.175 1053.27,553.473 1055.43,552.774 1057.59,552.076 1059.75,551.381 1061.92,550.689 1064.08,549.999 1066.24,549.311 1068.4,548.626 1070.57,547.943 1072.73,547.263 1074.89,546.585 1077.05,545.909 1079.21,545.236 1081.38,544.566 1083.54,543.897 1085.7,543.232 1087.86,542.568 1090.03,541.907 1092.19,541.249 1094.35,540.593 1096.51,539.939 1098.67,539.288 1100.84,538.639 1103,537.993 1105.16,537.349 1107.32,536.707 1109.49,536.068 1111.65,535.432 1113.81,534.798 1115.97,534.166 1118.13,533.537 1120.3,532.91 1122.46,532.286 1124.62,531.664 1126.78,531.044 1128.95,530.428 1131.11,529.813 1133.27,529.201 1135.43,528.591 1137.59,527.984 1139.76,527.379 1141.92,526.777 1144.08,526.177 1146.24,525.58 1148.41,524.985 1150.57,524.392 1152.73,523.802 1154.89,523.215 1157.05,522.63 1159.22,522.047 1161.38,521.466 1163.54,520.888 1165.7,520.313 1167.87,519.74 1170.03,519.169 1172.19,518.6 1174.35,518.034 1176.51,517.471 1178.68,516.909 1180.84,516.35 1183,515.794 1185.16,515.239 1187.33,514.688 1189.49,514.138 1191.65,513.591 1193.81,513.046 1195.97,512.503 1198.14,511.963 1200.3,511.425 1202.46,510.889 1204.62,510.356 1206.79,509.825 1208.95,509.296 1211.11,508.77 1213.27,508.245 1215.43,507.724 1217.6,507.204 1219.76,506.686 1221.92,506.171 1224.08,505.658 1226.25,505.148 1228.41,504.639 1230.57,504.133 1232.73,503.629 1234.89,503.127 1237.06,502.628 1239.22,502.131 1241.38,501.635 1243.54,501.142 1245.7,500.652 1247.87,500.163 1250.03,499.677 1252.19,499.193 1254.35,498.711 1256.52,498.231 1258.68,497.753 1260.84,497.278 1263,496.804 1265.16,496.333 1267.33,495.864 1269.49,495.397 1271.65,494.932 1273.81,494.469 1275.98,494.009 1278.14,493.55 1280.3,493.094 1282.46,492.64 1284.62,492.188 1286.79,491.737 1288.95,491.289 1291.11,490.844 1293.27,490.4 1295.44,489.958 1297.6,489.518 1299.76,489.08 1301.92,488.645 1304.08,488.211 1306.25,487.78 1308.41,487.35 1310.57,486.923 1312.73,486.497 1314.9,486.074 1317.06,485.652 1319.22,485.233 1321.38,484.816 1323.54,484.4 1325.71,483.987 1327.87,483.575 1330.03,483.166 1332.19,482.758 1334.36,482.353 1336.52,481.949 1338.68,481.548 1340.84,481.148 1343,480.75 1345.17,480.355 1347.33,479.961 1349.49,479.569 1351.65,479.179 1353.82,478.791 1355.98,478.404 1358.14,478.02 1360.3,477.637 1362.46,477.257 1364.63,476.878 1366.79,476.501 1368.95,476.126 1371.11,475.753 1373.28,475.382 1375.44,475.012 1377.6,474.644 1379.76,474.278 1381.92,473.914 1384.09,473.552 1386.25,473.191 1388.41,472.832 1390.57,472.475 1392.74,472.12 1394.9,471.766 1397.06,471.415 1399.22,471.064 1401.38,470.716 1403.55,470.37 1405.71,470.025 1407.87,469.681 1410.03,469.34 1412.2,469 1414.36,468.662 1416.52,468.326 1418.68,467.991 1420.84,467.658 1423.01,467.326 1425.17,466.997 1427.33,466.669 1429.49,466.342 1431.65,466.017 1433.82,465.694 1435.98,465.372 1438.14,465.052 1440.3,464.734 1442.47,464.417 1444.63,464.102 1446.79,463.788 1448.95,463.476 1451.11,463.166 1453.28,462.857 1455.44,462.55 1457.6,462.244 1459.76,461.94 1461.93,461.637 1464.09,461.336 1466.25,461.036 1468.41,460.738 1470.57,460.441 1472.74,460.146 1474.9,459.853 1477.06,459.56 1479.22,459.27 1481.39,458.981 1483.55,458.693 1485.71,458.407 1487.87,458.122 1490.03,457.839 1492.2,457.557 1494.36,457.277 1496.52,456.998 1498.68,456.72 1500.85,456.444 1503.01,456.17 1505.17,455.896 1507.33,455.625 1509.49,455.354 1511.66,455.085 1513.82,454.818 1515.98,454.551 1518.14,454.287 1520.31,454.023 1522.47,453.761 1524.63,453.5 1526.79,453.241 1528.95,452.983 1531.12,452.726 1533.28,452.471 1535.44,452.217 1537.6,451.964 1539.77,451.713 1541.93,451.463 1544.09,451.215 1546.25,450.967 1548.41,450.721 1550.58,450.476 1552.74,450.233 1554.9,449.991 1557.06,449.75 1559.23,449.511 1561.39,449.272 1563.55,449.035 1565.71,448.8 1567.87,448.565 1570.04,448.332 1572.2,448.1 1574.36,447.869 1576.52,447.64 1578.69,447.411 1580.85,447.184 1583.01,446.958 1585.17,446.734 1587.33,446.51 1589.5,446.288 1591.66,446.067 1593.82,445.847 1595.98,445.628 1598.14,445.411 1600.31,445.194 1602.47,444.979 1604.63,444.765 1606.79,444.552 1608.96,444.34 1611.12,444.129 1613.28,443.92 1615.44,443.711 1617.6,443.504 1619.77,443.298 1621.93,443.093 1624.09,442.889 1626.25,442.686 1628.42,442.484 1630.58,442.283 1632.74,442.084 1634.9,441.885 1637.06,441.687 1639.23,441.491 1641.39,441.296 1643.55,441.101 1645.71,440.908 1647.88,440.716 1650.04,440.524 1652.2,440.334 1654.36,440.145 1656.52,439.957 1658.69,439.769 1660.85,439.583 1663.01,439.398 1665.17,439.214 1667.34,439.031 1669.5,438.849 1671.66,438.667 1673.82,438.487 1675.98,438.308 1678.15,438.13 1680.31,437.952 1682.47,437.776 1684.63,437.601 1686.8,437.426 1688.96,437.253 1691.12,437.08 1693.28,436.908 1695.44,436.738 1697.61,436.568 1699.77,436.399 1701.93,436.231 1704.09,436.064 1706.26,435.898 1708.42,435.733 1710.58,435.569 1712.74,435.405 1714.9,435.243 1717.07,435.081 1719.23,434.92 1721.39,434.76 1723.55,434.601 1725.72,434.443 1727.88,434.286 1730.04,434.129 1732.2,433.974 1734.36,433.819 1736.53,433.665 1738.69,433.512 1740.85,433.36 1743.01,433.208 1745.18,433.058 1747.34,432.908 1749.5,432.759 1751.66,432.611 1753.82,432.464 1755.99,432.317 1758.15,432.172 1760.31,432.027 1762.47,431.883 1764.64,431.74 1766.8,431.597 1768.96,431.455 1771.12,431.315 1773.28,431.174 1775.45,431.035 1777.61,430.897 1779.77,430.759 1781.93,430.622 1784.09,430.485 1786.26,430.35 1788.42,430.215 1790.58,430.081 1792.74,429.948 1794.91,429.815 1797.07,429.684 1799.23,429.553 1801.39,429.422 1803.55,429.293 1805.72,429.164 1807.88,429.036 1810.04,428.908 1812.2,428.781 1814.37,428.656 1816.53,428.53 1818.69,428.406 1820.85,428.282 1823.01,428.159 1825.18,428.036 1827.34,427.914 1829.5,427.793 1831.66,427.673 1833.83,427.553 1835.99,427.434 1838.15,427.316 1840.31,427.198 1842.47,427.081 1844.64,426.964 1846.8,426.849 1848.96,426.734 1851.12,426.619 1853.29,426.505 1855.45,426.392 1857.61,426.279 1859.77,426.168 1861.93,426.056 1864.1,425.946 1866.26,425.835 1868.42,425.726 1870.58,425.617 1872.75,425.509 1874.91,425.401 1877.07,425.294 1879.23,425.188 1881.39,425.082 1883.56,424.977 1885.72,424.872 1887.88,424.768 1890.04,424.665 1892.21,424.562 1894.37,424.46 1896.53,424.358 1898.69,424.257 1900.85,424.156 1903.02,424.056 1905.18,423.957 1907.34,423.858 1909.5,423.76 1911.67,423.662 1913.83,423.565 1915.99,423.468 1918.15,423.372 1920.31,423.276 1922.48,423.181 1924.64,423.087 1926.8,422.993 1928.96,422.899 1931.13,422.807 1933.29,422.714 1935.45,422.622 1937.61,422.531 1939.77,422.44 1941.94,422.35 1944.1,422.26 1946.26,422.171 1948.42,422.082 1950.59,421.994 1952.75,421.906 1954.91,421.819 1957.07,421.732 1959.23,421.646 1961.4,421.56 1963.56,421.474 1965.72,421.39 1967.88,421.305 1970.04,421.221 1972.21,421.138 1974.37,421.055 1976.53,420.972 1978.69,420.89 1980.86,420.809 1983.02,420.728 1985.18,420.647 1987.34,420.567 1989.5,420.487 1991.67,420.408 1993.83,420.329 1995.99,420.251 1998.15,420.173 2000.32,420.096 2002.48,420.019 2004.64,419.942 2006.8,419.866 2008.96,419.79 2011.13,419.715 2013.29,419.64 2015.45,419.566 2017.61,419.492 2019.78,419.418 2021.94,419.345 2024.1,419.272 2026.26,419.2 2028.42,419.128 2030.59,419.056 2032.75,418.985 2034.91,418.914 2037.07,418.844 2039.24,418.774 2041.4,418.705 2043.56,418.636 2045.72,418.567 2047.88,418.499 2050.05,418.431 2052.21,418.363 2054.37,418.296 2056.53,418.229 2058.7,418.163 2060.86,418.097 2063.02,418.031 2065.18,417.966 2067.34,417.901 2069.51,417.837 2071.67,417.772 2073.83,417.709 2075.99,417.645 2078.16,417.582 2080.32,417.519 2082.48,417.457 2084.64,417.395 2086.8,417.334 2088.97,417.272 2091.13,417.211 2093.29,417.151 2095.45,417.091 2097.62,417.031 2099.78,416.971 2101.94,416.912 2104.1,416.853 2106.26,416.795 2108.43,416.737 2110.59,416.679 2112.75,416.621 2114.91,416.564 2117.08,416.507 2119.24,416.451 2121.4,416.395 2123.56,416.339 2125.72,416.284 2127.89,416.228 2130.05,416.174 2132.21,416.119 2134.37,416.065 2136.54,416.011 2138.7,415.957 2140.86,415.904 2143.02,415.851 2145.18,415.798 2147.35,415.746 2149.51,415.694 2151.67,415.642 2153.83,415.591 2155.99,415.54 2158.16,415.489 2160.32,415.438 2162.48,415.388 2164.64,415.338 2166.81,415.288 2168.97,415.239 2171.13,415.19 2173.29,415.141 2175.45,415.092 2177.62,415.044 2179.78,414.996 2181.94,414.948 2184.1,414.901 2186.27,414.854 2188.43,414.807 2190.59,414.76 2192.75,414.714 2194.91,414.668 2197.08,414.622 2199.24,414.576 2201.4,414.531 2203.56,414.486 2205.73,414.441 2207.89,414.397 2210.05,414.352 2212.21,414.308 2214.37,414.265 2216.54,414.221 2218.7,414.178 2220.86,414.135 2223.02,414.092 2225.19,414.05 2227.35,414.007 2229.51,413.966 2231.67,413.924 2233.83,413.882 2236,413.841 2238.16,413.8 2240.32,413.759 2242.48,413.719 2244.65,413.678 2246.81,413.638 2248.97,413.598 2251.13,413.559 2253.29,413.519 2255.46,413.48 2257.62,413.441 2259.78,413.403 2261.94,413.364 2264.11,413.326 2266.27,413.288 2268.43,413.25 2270.59,413.212 2272.75,413.175 2274.92,413.138 2277.08,413.101 2279.24,413.064 2281.4,413.028 2283.57,412.991 2285.73,412.955 2287.89,412.919 2290.05,412.884 2292.21,412.848 2294.38,412.813 2296.54,412.778 2298.7,412.743 2300.86,412.708 2303.03,412.674 2305.19,412.64 2307.35,412.606 2309.51,412.572 2311.67,412.538 2313.84,412.505 2316,412.472 2318.16,412.438 2320.32,412.406 2322.48,412.373 2324.65,412.34 2326.81,412.308 2328.97,412.276 2331.13,412.244 2333.3,412.212 2335.46,412.181 2337.62,412.149 2339.78,412.118 2341.94,412.087 2344.11,412.056 2346.27,412.026 2348.43,411.995 2350.59,411.965 2352.76,411.935 "/>
<path clip-path="url(#clip350)" d="M1805.35 248.629 L2280.75 248.629 L2280.75 93.1086 L1805.35 93.1086  Z" fill="#ffffff" fill-rule="evenodd" fill-opacity="1"/>
<polyline clip-path="url(#clip350)" style="stroke:#000000; stroke-linecap:round; stroke-linejoin:round; stroke-width:4; stroke-opacity:1; fill:none" points="1805.35,248.629 2280.75,248.629 2280.75,93.1086 1805.35,93.1086 1805.35,248.629 "/>
<polyline clip-path="url(#clip350)" style="stroke:#009af9; stroke-linecap:round; stroke-linejoin:round; stroke-width:4; stroke-opacity:1; fill:none" points="1829.35,144.949 1973.36,144.949 "/>
<path clip-path="url(#clip350)" d="M1997.36 136.303 L2001.87 136.303 L2009.97 158.062 L2018.07 136.303 L2022.59 136.303 L2012.87 162.229 L2007.08 162.229 L1997.36 136.303 Z" fill="#000000" fill-rule="nonzero" fill-opacity="1" /><path clip-path="url(#clip350)" d="M2029.88 158.293 L2037.52 158.293 L2037.52 131.928 L2029.21 133.595 L2029.21 129.335 L2037.47 127.669 L2042.15 127.669 L2042.15 158.293 L2049.79 158.293 L2049.79 162.229 L2029.88 162.229 L2029.88 158.293 Z" fill="#000000" fill-rule="nonzero" fill-opacity="1" /><path clip-path="url(#clip350)" d="M2067.89 145.585 L2067.89 152.807 L2076.01 152.807 L2076.01 155.006 L2067.89 155.006 L2067.89 162.229 L2065.46 162.229 L2065.46 155.006 L2057.33 155.006 L2057.33 152.807 L2065.46 152.807 L2065.46 145.585 L2067.89 145.585 Z" fill="#000000" fill-rule="nonzero" fill-opacity="1" /><path clip-path="url(#clip350)" d="M2100.18 137.067 L2100.18 141.094 Q2098.38 140.169 2096.43 139.706 Q2094.49 139.243 2092.4 139.243 Q2089.23 139.243 2087.63 140.215 Q2086.06 141.187 2086.06 143.131 Q2086.06 144.613 2087.19 145.469 Q2088.33 146.303 2091.75 147.067 L2093.21 147.391 Q2097.75 148.363 2099.65 150.145 Q2101.57 151.905 2101.57 155.076 Q2101.57 158.687 2098.7 160.793 Q2095.85 162.9 2090.85 162.9 Q2088.77 162.9 2086.5 162.483 Q2084.25 162.09 2081.75 161.28 L2081.75 156.881 Q2084.12 158.108 2086.41 158.733 Q2088.7 159.335 2090.94 159.335 Q2093.95 159.335 2095.57 158.317 Q2097.19 157.275 2097.19 155.4 Q2097.19 153.664 2096.01 152.738 Q2094.86 151.812 2090.9 150.956 L2089.42 150.608 Q2085.46 149.775 2083.7 148.062 Q2081.94 146.326 2081.94 143.317 Q2081.94 139.659 2084.53 137.669 Q2087.13 135.678 2091.89 135.678 Q2094.25 135.678 2096.34 136.025 Q2098.42 136.372 2100.18 137.067 Z" fill="#000000" fill-rule="nonzero" fill-opacity="1" /><path clip-path="url(#clip350)" d="M2112.56 128.942 L2112.56 136.303 L2121.34 136.303 L2121.34 139.613 L2112.56 139.613 L2112.56 153.687 Q2112.56 156.858 2113.42 157.761 Q2114.3 158.664 2116.96 158.664 L2121.34 158.664 L2121.34 162.229 L2116.96 162.229 Q2112.03 162.229 2110.16 160.4 Q2108.28 158.548 2108.28 153.687 L2108.28 139.613 L2105.16 139.613 L2105.16 136.303 L2108.28 136.303 L2108.28 128.942 L2112.56 128.942 Z" fill="#000000" fill-rule="nonzero" fill-opacity="1" /><path clip-path="url(#clip350)" d="M2136.99 139.289 Q2133.56 139.289 2131.57 141.974 Q2129.58 144.636 2129.58 149.289 Q2129.58 153.942 2131.55 156.627 Q2133.54 159.289 2136.99 159.289 Q2140.39 159.289 2142.38 156.604 Q2144.37 153.918 2144.37 149.289 Q2144.37 144.682 2142.38 141.997 Q2140.39 139.289 2136.99 139.289 M2136.99 135.678 Q2142.54 135.678 2145.71 139.289 Q2148.88 142.9 2148.88 149.289 Q2148.88 155.655 2145.71 159.289 Q2142.54 162.9 2136.99 162.9 Q2131.41 162.9 2128.24 159.289 Q2125.09 155.655 2125.09 149.289 Q2125.09 142.9 2128.24 139.289 Q2131.41 135.678 2136.99 135.678 Z" fill="#000000" fill-rule="nonzero" fill-opacity="1" /><path clip-path="url(#clip350)" d="M2170.97 140.284 Q2170.25 139.868 2169.39 139.682 Q2168.56 139.474 2167.54 139.474 Q2163.93 139.474 2161.99 141.835 Q2160.06 144.173 2160.06 148.571 L2160.06 162.229 L2155.78 162.229 L2155.78 136.303 L2160.06 136.303 L2160.06 140.331 Q2161.41 137.969 2163.56 136.835 Q2165.71 135.678 2168.79 135.678 Q2169.23 135.678 2169.76 135.747 Q2170.3 135.794 2170.94 135.909 L2170.97 140.284 Z" fill="#000000" fill-rule="nonzero" fill-opacity="1" /><path clip-path="url(#clip350)" d="M2187.22 149.196 Q2182.06 149.196 2180.06 150.377 Q2178.07 151.557 2178.07 154.405 Q2178.07 156.673 2179.56 158.016 Q2181.06 159.335 2183.63 159.335 Q2187.17 159.335 2189.3 156.835 Q2191.45 154.312 2191.45 150.145 L2191.45 149.196 L2187.22 149.196 M2195.71 147.437 L2195.71 162.229 L2191.45 162.229 L2191.45 158.293 Q2189.99 160.655 2187.82 161.789 Q2185.64 162.9 2182.49 162.9 Q2178.51 162.9 2176.15 160.678 Q2173.81 158.432 2173.81 154.682 Q2173.81 150.307 2176.73 148.085 Q2179.67 145.863 2185.48 145.863 L2191.45 145.863 L2191.45 145.446 Q2191.45 142.507 2189.51 140.909 Q2187.59 139.289 2184.09 139.289 Q2181.87 139.289 2179.76 139.821 Q2177.66 140.354 2175.71 141.419 L2175.71 137.483 Q2178.05 136.581 2180.25 136.141 Q2182.45 135.678 2184.53 135.678 Q2190.16 135.678 2192.93 138.594 Q2195.71 141.511 2195.71 147.437 Z" fill="#000000" fill-rule="nonzero" fill-opacity="1" /><path clip-path="url(#clip350)" d="M2221.55 148.965 Q2221.55 144.335 2219.62 141.789 Q2217.73 139.243 2214.28 139.243 Q2210.85 139.243 2208.93 141.789 Q2207.03 144.335 2207.03 148.965 Q2207.03 153.571 2208.93 156.118 Q2210.85 158.664 2214.28 158.664 Q2217.73 158.664 2219.62 156.118 Q2221.55 153.571 2221.55 148.965 M2225.8 159.011 Q2225.8 165.631 2222.87 168.849 Q2219.93 172.09 2213.86 172.09 Q2211.62 172.09 2209.62 171.742 Q2207.63 171.418 2205.76 170.724 L2205.76 166.58 Q2207.63 167.599 2209.46 168.085 Q2211.29 168.571 2213.19 168.571 Q2217.38 168.571 2219.46 166.372 Q2221.55 164.196 2221.55 159.775 L2221.55 157.668 Q2220.23 159.96 2218.17 161.094 Q2216.11 162.229 2213.24 162.229 Q2208.47 162.229 2205.55 158.594 Q2202.63 154.96 2202.63 148.965 Q2202.63 142.946 2205.55 139.312 Q2208.47 135.678 2213.24 135.678 Q2216.11 135.678 2218.17 136.812 Q2220.23 137.946 2221.55 140.238 L2221.55 136.303 L2225.8 136.303 L2225.8 159.011 Z" fill="#000000" fill-rule="nonzero" fill-opacity="1" /><path clip-path="url(#clip350)" d="M2256.75 148.201 L2256.75 150.284 L2237.17 150.284 Q2237.45 154.682 2239.81 156.997 Q2242.19 159.289 2246.43 159.289 Q2248.88 159.289 2251.18 158.687 Q2253.49 158.085 2255.76 156.881 L2255.76 160.909 Q2253.47 161.881 2251.06 162.391 Q2248.65 162.9 2246.18 162.9 Q2239.97 162.9 2236.34 159.289 Q2232.73 155.678 2232.73 149.52 Q2232.73 143.155 2236.15 139.428 Q2239.6 135.678 2245.43 135.678 Q2250.67 135.678 2253.7 139.057 Q2256.75 142.414 2256.75 148.201 M2252.49 146.951 Q2252.45 143.456 2250.53 141.372 Q2248.63 139.289 2245.48 139.289 Q2241.92 139.289 2239.76 141.303 Q2237.63 143.317 2237.31 146.974 L2252.49 146.951 Z" fill="#000000" fill-rule="nonzero" fill-opacity="1" /><polyline clip-path="url(#clip350)" style="stroke:#e26f46; stroke-linecap:round; stroke-linejoin:round; stroke-width:4; stroke-opacity:1; fill:none" points="1829.35,196.789 1973.36,196.789 "/>
<path clip-path="url(#clip350)" d="M1997.36 188.143 L2001.87 188.143 L2009.97 209.902 L2018.07 188.143 L2022.59 188.143 L2012.87 214.069 L2007.08 214.069 L1997.36 188.143 Z" fill="#000000" fill-rule="nonzero" fill-opacity="1" /><path clip-path="url(#clip350)" d="M2029.12 179.509 L2047.47 179.509 L2047.47 183.444 L2033.4 183.444 L2033.4 191.916 Q2034.42 191.569 2035.44 191.407 Q2036.45 191.222 2037.47 191.222 Q2043.26 191.222 2046.64 194.393 Q2050.02 197.564 2050.02 202.981 Q2050.02 208.559 2046.55 211.661 Q2043.07 214.74 2036.76 214.74 Q2034.58 214.74 2032.31 214.37 Q2030.07 213.999 2027.66 213.258 L2027.66 208.559 Q2029.74 209.694 2031.96 210.249 Q2034.19 210.805 2036.66 210.805 Q2040.67 210.805 2043 208.698 Q2045.34 206.592 2045.34 202.981 Q2045.34 199.37 2043 197.263 Q2040.67 195.157 2036.66 195.157 Q2034.79 195.157 2032.91 195.573 Q2031.06 195.99 2029.12 196.87 L2029.12 179.509 Z" fill="#000000" fill-rule="nonzero" fill-opacity="1" /><path clip-path="url(#clip350)" d="M2067.89 197.425 L2067.89 204.647 L2076.01 204.647 L2076.01 206.846 L2067.89 206.846 L2067.89 214.069 L2065.46 214.069 L2065.46 206.846 L2057.33 206.846 L2057.33 204.647 L2065.46 204.647 L2065.46 197.425 L2067.89 197.425 Z" fill="#000000" fill-rule="nonzero" fill-opacity="1" /><path clip-path="url(#clip350)" d="M2100.18 188.907 L2100.18 192.934 Q2098.38 192.009 2096.43 191.546 Q2094.49 191.083 2092.4 191.083 Q2089.23 191.083 2087.63 192.055 Q2086.06 193.027 2086.06 194.971 Q2086.06 196.453 2087.19 197.309 Q2088.33 198.143 2091.75 198.907 L2093.21 199.231 Q2097.75 200.203 2099.65 201.985 Q2101.57 203.745 2101.57 206.916 Q2101.57 210.527 2098.7 212.633 Q2095.85 214.74 2090.85 214.74 Q2088.77 214.74 2086.5 214.323 Q2084.25 213.93 2081.75 213.12 L2081.75 208.721 Q2084.12 209.948 2086.41 210.573 Q2088.7 211.175 2090.94 211.175 Q2093.95 211.175 2095.57 210.157 Q2097.19 209.115 2097.19 207.24 Q2097.19 205.504 2096.01 204.578 Q2094.86 203.652 2090.9 202.796 L2089.42 202.448 Q2085.46 201.615 2083.7 199.902 Q2081.94 198.166 2081.94 195.157 Q2081.94 191.499 2084.53 189.509 Q2087.13 187.518 2091.89 187.518 Q2094.25 187.518 2096.34 187.865 Q2098.42 188.212 2100.18 188.907 Z" fill="#000000" fill-rule="nonzero" fill-opacity="1" /><path clip-path="url(#clip350)" d="M2112.56 180.782 L2112.56 188.143 L2121.34 188.143 L2121.34 191.453 L2112.56 191.453 L2112.56 205.527 Q2112.56 208.698 2113.42 209.601 Q2114.3 210.504 2116.96 210.504 L2121.34 210.504 L2121.34 214.069 L2116.96 214.069 Q2112.03 214.069 2110.16 212.24 Q2108.28 210.388 2108.28 205.527 L2108.28 191.453 L2105.16 191.453 L2105.16 188.143 L2108.28 188.143 L2108.28 180.782 L2112.56 180.782 Z" fill="#000000" fill-rule="nonzero" fill-opacity="1" /><path clip-path="url(#clip350)" d="M2136.99 191.129 Q2133.56 191.129 2131.57 193.814 Q2129.58 196.476 2129.58 201.129 Q2129.58 205.782 2131.55 208.467 Q2133.54 211.129 2136.99 211.129 Q2140.39 211.129 2142.38 208.444 Q2144.37 205.758 2144.37 201.129 Q2144.37 196.522 2142.38 193.837 Q2140.39 191.129 2136.99 191.129 M2136.99 187.518 Q2142.54 187.518 2145.71 191.129 Q2148.88 194.74 2148.88 201.129 Q2148.88 207.495 2145.71 211.129 Q2142.54 214.74 2136.99 214.74 Q2131.41 214.74 2128.24 211.129 Q2125.09 207.495 2125.09 201.129 Q2125.09 194.74 2128.24 191.129 Q2131.41 187.518 2136.99 187.518 Z" fill="#000000" fill-rule="nonzero" fill-opacity="1" /><path clip-path="url(#clip350)" d="M2170.97 192.124 Q2170.25 191.708 2169.39 191.522 Q2168.56 191.314 2167.54 191.314 Q2163.93 191.314 2161.99 193.675 Q2160.06 196.013 2160.06 200.411 L2160.06 214.069 L2155.78 214.069 L2155.78 188.143 L2160.06 188.143 L2160.06 192.171 Q2161.41 189.809 2163.56 188.675 Q2165.71 187.518 2168.79 187.518 Q2169.23 187.518 2169.76 187.587 Q2170.3 187.634 2170.94 187.749 L2170.97 192.124 Z" fill="#000000" fill-rule="nonzero" fill-opacity="1" /><path clip-path="url(#clip350)" d="M2187.22 201.036 Q2182.06 201.036 2180.06 202.217 Q2178.07 203.397 2178.07 206.245 Q2178.07 208.513 2179.56 209.856 Q2181.06 211.175 2183.63 211.175 Q2187.17 211.175 2189.3 208.675 Q2191.45 206.152 2191.45 201.985 L2191.45 201.036 L2187.22 201.036 M2195.71 199.277 L2195.71 214.069 L2191.45 214.069 L2191.45 210.133 Q2189.99 212.495 2187.82 213.629 Q2185.64 214.74 2182.49 214.74 Q2178.51 214.74 2176.15 212.518 Q2173.81 210.272 2173.81 206.522 Q2173.81 202.147 2176.73 199.925 Q2179.67 197.703 2185.48 197.703 L2191.45 197.703 L2191.45 197.286 Q2191.45 194.347 2189.51 192.749 Q2187.59 191.129 2184.09 191.129 Q2181.87 191.129 2179.76 191.661 Q2177.66 192.194 2175.71 193.259 L2175.71 189.323 Q2178.05 188.421 2180.25 187.981 Q2182.45 187.518 2184.53 187.518 Q2190.16 187.518 2192.93 190.434 Q2195.71 193.351 2195.71 199.277 Z" fill="#000000" fill-rule="nonzero" fill-opacity="1" /><path clip-path="url(#clip350)" d="M2221.55 200.805 Q2221.55 196.175 2219.62 193.629 Q2217.73 191.083 2214.28 191.083 Q2210.85 191.083 2208.93 193.629 Q2207.03 196.175 2207.03 200.805 Q2207.03 205.411 2208.93 207.958 Q2210.85 210.504 2214.28 210.504 Q2217.73 210.504 2219.62 207.958 Q2221.55 205.411 2221.55 200.805 M2225.8 210.851 Q2225.8 217.471 2222.87 220.689 Q2219.93 223.93 2213.86 223.93 Q2211.62 223.93 2209.62 223.582 Q2207.63 223.258 2205.76 222.564 L2205.76 218.42 Q2207.63 219.439 2209.46 219.925 Q2211.29 220.411 2213.19 220.411 Q2217.38 220.411 2219.46 218.212 Q2221.55 216.036 2221.55 211.615 L2221.55 209.508 Q2220.23 211.8 2218.17 212.934 Q2216.11 214.069 2213.24 214.069 Q2208.47 214.069 2205.55 210.434 Q2202.63 206.8 2202.63 200.805 Q2202.63 194.786 2205.55 191.152 Q2208.47 187.518 2213.24 187.518 Q2216.11 187.518 2218.17 188.652 Q2220.23 189.786 2221.55 192.078 L2221.55 188.143 L2225.8 188.143 L2225.8 210.851 Z" fill="#000000" fill-rule="nonzero" fill-opacity="1" /><path clip-path="url(#clip350)" d="M2256.75 200.041 L2256.75 202.124 L2237.17 202.124 Q2237.45 206.522 2239.81 208.837 Q2242.19 211.129 2246.43 211.129 Q2248.88 211.129 2251.18 210.527 Q2253.49 209.925 2255.76 208.721 L2255.76 212.749 Q2253.47 213.721 2251.06 214.231 Q2248.65 214.74 2246.18 214.74 Q2239.97 214.74 2236.34 211.129 Q2232.73 207.518 2232.73 201.36 Q2232.73 194.995 2236.15 191.268 Q2239.6 187.518 2245.43 187.518 Q2250.67 187.518 2253.7 190.897 Q2256.75 194.254 2256.75 200.041 M2252.49 198.791 Q2252.45 195.296 2250.53 193.212 Q2248.63 191.129 2245.48 191.129 Q2241.92 191.129 2239.76 193.143 Q2237.63 195.157 2237.31 198.814 L2252.49 198.791 Z" fill="#000000" fill-rule="nonzero" fill-opacity="1" /></svg>
