<?xml version="1.0" encoding="utf-8"?>
<svg xmlns="http://www.w3.org/2000/svg" xmlns:xlink="http://www.w3.org/1999/xlink" width="600" height="400" viewBox="0 0 2400 1600">
<defs>
  <clipPath id="clip800">
    <rect x="0" y="0" width="2400" height="1600"/>
  </clipPath>
</defs>
<path clip-path="url(#clip800)" d="M0 1600 L2400 1600 L2400 0 L0 0  Z" fill="#ffffff" fill-rule="evenodd" fill-opacity="1"/>
<defs>
  <clipPath id="clip801">
    <rect x="480" y="0" width="1681" height="1600"/>
  </clipPath>
</defs>
<path clip-path="url(#clip800)" d="M186.274 1423.18 L2352.76 1423.18 L2352.76 47.2441 L186.274 47.2441  Z" fill="#ffffff" fill-rule="evenodd" fill-opacity="1"/>
<defs>
  <clipPath id="clip802">
    <rect x="186" y="47" width="2167" height="1377"/>
  </clipPath>
</defs>
<polyline clip-path="url(#clip802)" style="stroke:#000000; stroke-linecap:round; stroke-linejoin:round; stroke-width:2; stroke-opacity:0.1; fill:none" points="186.274,1423.18 186.274,47.2441 "/>
<polyline clip-path="url(#clip802)" style="stroke:#000000; stroke-linecap:round; stroke-linejoin:round; stroke-width:2; stroke-opacity:0.1; fill:none" points="727.894,1423.18 727.894,47.2441 "/>
<polyline clip-path="url(#clip802)" style="stroke:#000000; stroke-linecap:round; stroke-linejoin:round; stroke-width:2; stroke-opacity:0.1; fill:none" points="1269.51,1423.18 1269.51,47.2441 "/>
<polyline clip-path="url(#clip802)" style="stroke:#000000; stroke-linecap:round; stroke-linejoin:round; stroke-width:2; stroke-opacity:0.1; fill:none" points="1811.14,1423.18 1811.14,47.2441 "/>
<polyline clip-path="url(#clip802)" style="stroke:#000000; stroke-linecap:round; stroke-linejoin:round; stroke-width:2; stroke-opacity:0.1; fill:none" points="2352.76,1423.18 2352.76,47.2441 "/>
<polyline clip-path="url(#clip802)" style="stroke:#000000; stroke-linecap:round; stroke-linejoin:round; stroke-width:2; stroke-opacity:0.1; fill:none" points="186.274,1415.29 2352.76,1415.29 "/>
<polyline clip-path="url(#clip802)" style="stroke:#000000; stroke-linecap:round; stroke-linejoin:round; stroke-width:2; stroke-opacity:0.1; fill:none" points="186.274,1044.62 2352.76,1044.62 "/>
<polyline clip-path="url(#clip802)" style="stroke:#000000; stroke-linecap:round; stroke-linejoin:round; stroke-width:2; stroke-opacity:0.1; fill:none" points="186.274,673.946 2352.76,673.946 "/>
<polyline clip-path="url(#clip802)" style="stroke:#000000; stroke-linecap:round; stroke-linejoin:round; stroke-width:2; stroke-opacity:0.1; fill:none" points="186.274,303.272 2352.76,303.272 "/>
<polyline clip-path="url(#clip800)" style="stroke:#000000; stroke-linecap:round; stroke-linejoin:round; stroke-width:4; stroke-opacity:1; fill:none" points="186.274,1423.18 2352.76,1423.18 "/>
<polyline clip-path="url(#clip800)" style="stroke:#000000; stroke-linecap:round; stroke-linejoin:round; stroke-width:4; stroke-opacity:1; fill:none" points="186.274,1423.18 186.274,1404.28 "/>
<polyline clip-path="url(#clip800)" style="stroke:#000000; stroke-linecap:round; stroke-linejoin:round; stroke-width:4; stroke-opacity:1; fill:none" points="727.894,1423.18 727.894,1404.28 "/>
<polyline clip-path="url(#clip800)" style="stroke:#000000; stroke-linecap:round; stroke-linejoin:round; stroke-width:4; stroke-opacity:1; fill:none" points="1269.51,1423.18 1269.51,1404.28 "/>
<polyline clip-path="url(#clip800)" style="stroke:#000000; stroke-linecap:round; stroke-linejoin:round; stroke-width:4; stroke-opacity:1; fill:none" points="1811.14,1423.18 1811.14,1404.28 "/>
<polyline clip-path="url(#clip800)" style="stroke:#000000; stroke-linecap:round; stroke-linejoin:round; stroke-width:4; stroke-opacity:1; fill:none" points="2352.76,1423.18 2352.76,1404.28 "/>
<path clip-path="url(#clip800)" d="M163.658 1454.1 Q160.047 1454.1 158.219 1457.66 Q156.413 1461.2 156.413 1468.33 Q156.413 1475.44 158.219 1479.01 Q160.047 1482.55 163.658 1482.55 Q167.293 1482.55 169.098 1479.01 Q170.927 1475.44 170.927 1468.33 Q170.927 1461.2 169.098 1457.66 Q167.293 1454.1 163.658 1454.1 M163.658 1450.39 Q169.469 1450.39 172.524 1455 Q175.603 1459.58 175.603 1468.33 Q175.603 1477.06 172.524 1481.67 Q169.469 1486.25 163.658 1486.25 Q157.848 1486.25 154.77 1481.67 Q151.714 1477.06 151.714 1468.33 Q151.714 1459.58 154.77 1455 Q157.848 1450.39 163.658 1450.39 Z" fill="#000000" fill-rule="nonzero" fill-opacity="1" /><path clip-path="url(#clip800)" d="M183.82 1479.7 L188.705 1479.7 L188.705 1485.58 L183.82 1485.58 L183.82 1479.7 Z" fill="#000000" fill-rule="nonzero" fill-opacity="1" /><path clip-path="url(#clip800)" d="M208.89 1454.1 Q205.279 1454.1 203.45 1457.66 Q201.644 1461.2 201.644 1468.33 Q201.644 1475.44 203.45 1479.01 Q205.279 1482.55 208.89 1482.55 Q212.524 1482.55 214.329 1479.01 Q216.158 1475.44 216.158 1468.33 Q216.158 1461.2 214.329 1457.66 Q212.524 1454.1 208.89 1454.1 M208.89 1450.39 Q214.7 1450.39 217.755 1455 Q220.834 1459.58 220.834 1468.33 Q220.834 1477.06 217.755 1481.67 Q214.7 1486.25 208.89 1486.25 Q203.079 1486.25 200.001 1481.67 Q196.945 1477.06 196.945 1468.33 Q196.945 1459.58 200.001 1455 Q203.079 1450.39 208.89 1450.39 Z" fill="#000000" fill-rule="nonzero" fill-opacity="1" /><path clip-path="url(#clip800)" d="M705.777 1454.1 Q702.165 1454.1 700.337 1457.66 Q698.531 1461.2 698.531 1468.33 Q698.531 1475.44 700.337 1479.01 Q702.165 1482.55 705.777 1482.55 Q709.411 1482.55 711.216 1479.01 Q713.045 1475.44 713.045 1468.33 Q713.045 1461.2 711.216 1457.66 Q709.411 1454.1 705.777 1454.1 M705.777 1450.39 Q711.587 1450.39 714.642 1455 Q717.721 1459.58 717.721 1468.33 Q717.721 1477.06 714.642 1481.67 Q711.587 1486.25 705.777 1486.25 Q699.966 1486.25 696.888 1481.67 Q693.832 1477.06 693.832 1468.33 Q693.832 1459.58 696.888 1455 Q699.966 1450.39 705.777 1450.39 Z" fill="#000000" fill-rule="nonzero" fill-opacity="1" /><path clip-path="url(#clip800)" d="M725.938 1479.7 L730.823 1479.7 L730.823 1485.58 L725.938 1485.58 L725.938 1479.7 Z" fill="#000000" fill-rule="nonzero" fill-opacity="1" /><path clip-path="url(#clip800)" d="M741.054 1451.02 L759.411 1451.02 L759.411 1454.96 L745.337 1454.96 L745.337 1463.43 Q746.355 1463.08 747.374 1462.92 Q748.392 1462.73 749.411 1462.73 Q755.198 1462.73 758.577 1465.9 Q761.957 1469.08 761.957 1474.49 Q761.957 1480.07 758.485 1483.17 Q755.012 1486.25 748.693 1486.25 Q746.517 1486.25 744.249 1485.88 Q742.003 1485.51 739.596 1484.77 L739.596 1480.07 Q741.679 1481.2 743.901 1481.76 Q746.124 1482.32 748.6 1482.32 Q752.605 1482.32 754.943 1480.21 Q757.281 1478.1 757.281 1474.49 Q757.281 1470.88 754.943 1468.77 Q752.605 1466.67 748.6 1466.67 Q746.725 1466.67 744.85 1467.08 Q742.999 1467.5 741.054 1468.38 L741.054 1451.02 Z" fill="#000000" fill-rule="nonzero" fill-opacity="1" /><path clip-path="url(#clip800)" d="M1236.67 1481.64 L1244.31 1481.64 L1244.31 1455.28 L1236 1456.95 L1236 1452.69 L1244.26 1451.02 L1248.94 1451.02 L1248.94 1481.64 L1256.58 1481.64 L1256.58 1485.58 L1236.67 1485.58 L1236.67 1481.64 Z" fill="#000000" fill-rule="nonzero" fill-opacity="1" /><path clip-path="url(#clip800)" d="M1266.02 1479.7 L1270.9 1479.7 L1270.9 1485.58 L1266.02 1485.58 L1266.02 1479.7 Z" fill="#000000" fill-rule="nonzero" fill-opacity="1" /><path clip-path="url(#clip800)" d="M1291.09 1454.1 Q1287.48 1454.1 1285.65 1457.66 Q1283.84 1461.2 1283.84 1468.33 Q1283.84 1475.44 1285.65 1479.01 Q1287.48 1482.55 1291.09 1482.55 Q1294.72 1482.55 1296.53 1479.01 Q1298.36 1475.44 1298.36 1468.33 Q1298.36 1461.2 1296.53 1457.66 Q1294.72 1454.1 1291.09 1454.1 M1291.09 1450.39 Q1296.9 1450.39 1299.95 1455 Q1303.03 1459.58 1303.03 1468.33 Q1303.03 1477.06 1299.95 1481.67 Q1296.9 1486.25 1291.09 1486.25 Q1285.28 1486.25 1282.2 1481.67 Q1279.14 1477.06 1279.14 1468.33 Q1279.14 1459.58 1282.2 1455 Q1285.28 1450.39 1291.09 1450.39 Z" fill="#000000" fill-rule="nonzero" fill-opacity="1" /><path clip-path="url(#clip800)" d="M1778.79 1481.64 L1786.42 1481.64 L1786.42 1455.28 L1778.11 1456.95 L1778.11 1452.69 L1786.38 1451.02 L1791.05 1451.02 L1791.05 1481.64 L1798.69 1481.64 L1798.69 1485.58 L1778.79 1485.58 L1778.79 1481.64 Z" fill="#000000" fill-rule="nonzero" fill-opacity="1" /><path clip-path="url(#clip800)" d="M1808.14 1479.7 L1813.02 1479.7 L1813.02 1485.58 L1808.14 1485.58 L1808.14 1479.7 Z" fill="#000000" fill-rule="nonzero" fill-opacity="1" /><path clip-path="url(#clip800)" d="M1823.25 1451.02 L1841.61 1451.02 L1841.61 1454.96 L1827.54 1454.96 L1827.54 1463.43 Q1828.55 1463.08 1829.57 1462.92 Q1830.59 1462.73 1831.61 1462.73 Q1837.4 1462.73 1840.78 1465.9 Q1844.16 1469.08 1844.16 1474.49 Q1844.16 1480.07 1840.68 1483.17 Q1837.21 1486.25 1830.89 1486.25 Q1828.72 1486.25 1826.45 1485.88 Q1824.2 1485.51 1821.8 1484.77 L1821.8 1480.07 Q1823.88 1481.2 1826.1 1481.76 Q1828.32 1482.32 1830.8 1482.32 Q1834.8 1482.32 1837.14 1480.21 Q1839.48 1478.1 1839.48 1474.49 Q1839.48 1470.88 1837.14 1468.77 Q1834.8 1466.67 1830.8 1466.67 Q1828.92 1466.67 1827.05 1467.08 Q1825.2 1467.5 1823.25 1468.38 L1823.25 1451.02 Z" fill="#000000" fill-rule="nonzero" fill-opacity="1" /><path clip-path="url(#clip800)" d="M2323.99 1481.64 L2340.31 1481.64 L2340.31 1485.58 L2318.37 1485.58 L2318.37 1481.64 Q2321.03 1478.89 2325.61 1474.26 Q2330.22 1469.61 2331.4 1468.27 Q2333.65 1465.74 2334.53 1464.01 Q2335.43 1462.25 2335.43 1460.56 Q2335.43 1457.8 2333.49 1456.07 Q2331.56 1454.33 2328.46 1454.33 Q2326.26 1454.33 2323.81 1455.09 Q2321.38 1455.86 2318.6 1457.41 L2318.6 1452.69 Q2321.43 1451.55 2323.88 1450.97 Q2326.33 1450.39 2328.37 1450.39 Q2333.74 1450.39 2336.93 1453.08 Q2340.13 1455.77 2340.13 1460.26 Q2340.13 1462.39 2339.32 1464.31 Q2338.53 1466.2 2336.42 1468.8 Q2335.85 1469.47 2332.74 1472.69 Q2329.64 1475.88 2323.99 1481.64 Z" fill="#000000" fill-rule="nonzero" fill-opacity="1" /><path clip-path="url(#clip800)" d="M2350.13 1479.7 L2355.01 1479.7 L2355.01 1485.58 L2350.13 1485.58 L2350.13 1479.7 Z" fill="#000000" fill-rule="nonzero" fill-opacity="1" /><path clip-path="url(#clip800)" d="M2375.2 1454.1 Q2371.59 1454.1 2369.76 1457.66 Q2367.95 1461.2 2367.95 1468.33 Q2367.95 1475.44 2369.76 1479.01 Q2371.59 1482.55 2375.2 1482.55 Q2378.83 1482.55 2380.64 1479.01 Q2382.47 1475.44 2382.47 1468.33 Q2382.47 1461.2 2380.64 1457.66 Q2378.83 1454.1 2375.2 1454.1 M2375.2 1450.39 Q2381.01 1450.39 2384.06 1455 Q2387.14 1459.58 2387.14 1468.33 Q2387.14 1477.06 2384.06 1481.67 Q2381.01 1486.25 2375.2 1486.25 Q2369.39 1486.25 2366.31 1481.67 Q2363.25 1477.06 2363.25 1468.33 Q2363.25 1459.58 2366.31 1455 Q2369.39 1450.39 2375.2 1450.39 Z" fill="#000000" fill-rule="nonzero" fill-opacity="1" /><path clip-path="url(#clip800)" d="M1268.58 1522.27 L1268.58 1532.4 L1280.64 1532.4 L1280.64 1536.95 L1268.58 1536.95 L1268.58 1556.3 Q1268.58 1560.66 1269.75 1561.9 Q1270.96 1563.14 1274.62 1563.14 L1280.64 1563.14 L1280.64 1568.04 L1274.62 1568.04 Q1267.84 1568.04 1265.27 1565.53 Q1262.69 1562.98 1262.69 1556.3 L1262.69 1536.95 L1258.39 1536.95 L1258.39 1532.4 L1262.69 1532.4 L1262.69 1522.27 L1268.58 1522.27 Z" fill="#000000" fill-rule="nonzero" fill-opacity="1" /><polyline clip-path="url(#clip800)" style="stroke:#000000; stroke-linecap:round; stroke-linejoin:round; stroke-width:4; stroke-opacity:1; fill:none" points="186.274,1423.18 186.274,47.2441 "/>
<polyline clip-path="url(#clip800)" style="stroke:#000000; stroke-linecap:round; stroke-linejoin:round; stroke-width:4; stroke-opacity:1; fill:none" points="186.274,1415.29 205.172,1415.29 "/>
<polyline clip-path="url(#clip800)" style="stroke:#000000; stroke-linecap:round; stroke-linejoin:round; stroke-width:4; stroke-opacity:1; fill:none" points="186.274,1044.62 205.172,1044.62 "/>
<polyline clip-path="url(#clip800)" style="stroke:#000000; stroke-linecap:round; stroke-linejoin:round; stroke-width:4; stroke-opacity:1; fill:none" points="186.274,673.946 205.172,673.946 "/>
<polyline clip-path="url(#clip800)" style="stroke:#000000; stroke-linecap:round; stroke-linejoin:round; stroke-width:4; stroke-opacity:1; fill:none" points="186.274,303.272 205.172,303.272 "/>
<path clip-path="url(#clip800)" d="M62.9365 1401.09 Q59.3254 1401.09 57.4967 1404.66 Q55.6912 1408.2 55.6912 1415.33 Q55.6912 1422.44 57.4967 1426 Q59.3254 1429.54 62.9365 1429.54 Q66.5707 1429.54 68.3763 1426 Q70.205 1422.44 70.205 1415.33 Q70.205 1408.2 68.3763 1404.66 Q66.5707 1401.09 62.9365 1401.09 M62.9365 1397.39 Q68.7467 1397.39 71.8022 1402 Q74.8809 1406.58 74.8809 1415.33 Q74.8809 1424.06 71.8022 1428.66 Q68.7467 1433.25 62.9365 1433.25 Q57.1264 1433.25 54.0477 1428.66 Q50.9921 1424.06 50.9921 1415.33 Q50.9921 1406.58 54.0477 1402 Q57.1264 1397.39 62.9365 1397.39 Z" fill="#000000" fill-rule="nonzero" fill-opacity="1" /><path clip-path="url(#clip800)" d="M83.0984 1426.69 L87.9827 1426.69 L87.9827 1432.57 L83.0984 1432.57 L83.0984 1426.69 Z" fill="#000000" fill-rule="nonzero" fill-opacity="1" /><path clip-path="url(#clip800)" d="M108.168 1401.09 Q104.557 1401.09 102.728 1404.66 Q100.922 1408.2 100.922 1415.33 Q100.922 1422.44 102.728 1426 Q104.557 1429.54 108.168 1429.54 Q111.802 1429.54 113.608 1426 Q115.436 1422.44 115.436 1415.33 Q115.436 1408.2 113.608 1404.66 Q111.802 1401.09 108.168 1401.09 M108.168 1397.39 Q113.978 1397.39 117.033 1402 Q120.112 1406.58 120.112 1415.33 Q120.112 1424.06 117.033 1428.66 Q113.978 1433.25 108.168 1433.25 Q102.358 1433.25 99.2789 1428.66 Q96.2234 1424.06 96.2234 1415.33 Q96.2234 1406.58 99.2789 1402 Q102.358 1397.39 108.168 1397.39 Z" fill="#000000" fill-rule="nonzero" fill-opacity="1" /><path clip-path="url(#clip800)" d="M138.33 1401.09 Q134.719 1401.09 132.89 1404.66 Q131.084 1408.2 131.084 1415.33 Q131.084 1422.44 132.89 1426 Q134.719 1429.54 138.33 1429.54 Q141.964 1429.54 143.769 1426 Q145.598 1422.44 145.598 1415.33 Q145.598 1408.2 143.769 1404.66 Q141.964 1401.09 138.33 1401.09 M138.33 1397.39 Q144.14 1397.39 147.195 1402 Q150.274 1406.58 150.274 1415.33 Q150.274 1424.06 147.195 1428.66 Q144.14 1433.25 138.33 1433.25 Q132.519 1433.25 129.441 1428.66 Q126.385 1424.06 126.385 1415.33 Q126.385 1406.58 129.441 1402 Q132.519 1397.39 138.33 1397.39 Z" fill="#000000" fill-rule="nonzero" fill-opacity="1" /><path clip-path="url(#clip800)" d="M63.9319 1030.42 Q60.3208 1030.42 58.4921 1033.98 Q56.6865 1037.53 56.6865 1044.65 Q56.6865 1051.76 58.4921 1055.33 Q60.3208 1058.87 63.9319 1058.87 Q67.5661 1058.87 69.3717 1055.33 Q71.2004 1051.76 71.2004 1044.65 Q71.2004 1037.53 69.3717 1033.98 Q67.5661 1030.42 63.9319 1030.42 M63.9319 1026.72 Q69.742 1026.72 72.7976 1031.32 Q75.8763 1035.9 75.8763 1044.65 Q75.8763 1053.38 72.7976 1057.99 Q69.742 1062.57 63.9319 1062.57 Q58.1217 1062.57 55.043 1057.99 Q51.9875 1053.38 51.9875 1044.65 Q51.9875 1035.9 55.043 1031.32 Q58.1217 1026.72 63.9319 1026.72 Z" fill="#000000" fill-rule="nonzero" fill-opacity="1" /><path clip-path="url(#clip800)" d="M84.0938 1056.02 L88.978 1056.02 L88.978 1061.9 L84.0938 1061.9 L84.0938 1056.02 Z" fill="#000000" fill-rule="nonzero" fill-opacity="1" /><path clip-path="url(#clip800)" d="M109.163 1030.42 Q105.552 1030.42 103.723 1033.98 Q101.918 1037.53 101.918 1044.65 Q101.918 1051.76 103.723 1055.33 Q105.552 1058.87 109.163 1058.87 Q112.797 1058.87 114.603 1055.33 Q116.432 1051.76 116.432 1044.65 Q116.432 1037.53 114.603 1033.98 Q112.797 1030.42 109.163 1030.42 M109.163 1026.72 Q114.973 1026.72 118.029 1031.32 Q121.107 1035.9 121.107 1044.65 Q121.107 1053.38 118.029 1057.99 Q114.973 1062.57 109.163 1062.57 Q103.353 1062.57 100.274 1057.99 Q97.2187 1053.38 97.2187 1044.65 Q97.2187 1035.9 100.274 1031.32 Q103.353 1026.72 109.163 1026.72 Z" fill="#000000" fill-rule="nonzero" fill-opacity="1" /><path clip-path="url(#clip800)" d="M129.371 1027.34 L147.728 1027.34 L147.728 1031.28 L133.654 1031.28 L133.654 1039.75 Q134.672 1039.4 135.691 1039.24 Q136.709 1039.05 137.728 1039.05 Q143.515 1039.05 146.894 1042.22 Q150.274 1045.4 150.274 1050.81 Q150.274 1056.39 146.802 1059.49 Q143.33 1062.57 137.01 1062.57 Q134.834 1062.57 132.566 1062.2 Q130.32 1061.83 127.913 1061.09 L127.913 1056.39 Q129.996 1057.53 132.219 1058.08 Q134.441 1058.64 136.918 1058.64 Q140.922 1058.64 143.26 1056.53 Q145.598 1054.42 145.598 1050.81 Q145.598 1047.2 143.26 1045.09 Q140.922 1042.99 136.918 1042.99 Q135.043 1042.99 133.168 1043.4 Q131.316 1043.82 129.371 1044.7 L129.371 1027.34 Z" fill="#000000" fill-rule="nonzero" fill-opacity="1" /><path clip-path="url(#clip800)" d="M62.9365 659.745 Q59.3254 659.745 57.4967 663.31 Q55.6912 666.851 55.6912 673.981 Q55.6912 681.087 57.4967 684.652 Q59.3254 688.194 62.9365 688.194 Q66.5707 688.194 68.3763 684.652 Q70.205 681.087 70.205 673.981 Q70.205 666.851 68.3763 663.31 Q66.5707 659.745 62.9365 659.745 M62.9365 656.041 Q68.7467 656.041 71.8022 660.648 Q74.8809 665.231 74.8809 673.981 Q74.8809 682.708 71.8022 687.314 Q68.7467 691.897 62.9365 691.897 Q57.1264 691.897 54.0477 687.314 Q50.9921 682.708 50.9921 673.981 Q50.9921 665.231 54.0477 660.648 Q57.1264 656.041 62.9365 656.041 Z" fill="#000000" fill-rule="nonzero" fill-opacity="1" /><path clip-path="url(#clip800)" d="M83.0984 685.347 L87.9827 685.347 L87.9827 691.226 L83.0984 691.226 L83.0984 685.347 Z" fill="#000000" fill-rule="nonzero" fill-opacity="1" /><path clip-path="url(#clip800)" d="M98.978 687.291 L106.617 687.291 L106.617 660.925 L98.3067 662.592 L98.3067 658.333 L106.571 656.666 L111.246 656.666 L111.246 687.291 L118.885 687.291 L118.885 691.226 L98.978 691.226 L98.978 687.291 Z" fill="#000000" fill-rule="nonzero" fill-opacity="1" /><path clip-path="url(#clip800)" d="M138.33 659.745 Q134.719 659.745 132.89 663.31 Q131.084 666.851 131.084 673.981 Q131.084 681.087 132.89 684.652 Q134.719 688.194 138.33 688.194 Q141.964 688.194 143.769 684.652 Q145.598 681.087 145.598 673.981 Q145.598 666.851 143.769 663.31 Q141.964 659.745 138.33 659.745 M138.33 656.041 Q144.14 656.041 147.195 660.648 Q150.274 665.231 150.274 673.981 Q150.274 682.708 147.195 687.314 Q144.14 691.897 138.33 691.897 Q132.519 691.897 129.441 687.314 Q126.385 682.708 126.385 673.981 Q126.385 665.231 129.441 660.648 Q132.519 656.041 138.33 656.041 Z" fill="#000000" fill-rule="nonzero" fill-opacity="1" /><path clip-path="url(#clip800)" d="M63.9319 289.071 Q60.3208 289.071 58.4921 292.636 Q56.6865 296.177 56.6865 303.307 Q56.6865 310.413 58.4921 313.978 Q60.3208 317.52 63.9319 317.52 Q67.5661 317.52 69.3717 313.978 Q71.2004 310.413 71.2004 303.307 Q71.2004 296.177 69.3717 292.636 Q67.5661 289.071 63.9319 289.071 M63.9319 285.367 Q69.742 285.367 72.7976 289.974 Q75.8763 294.557 75.8763 303.307 Q75.8763 312.034 72.7976 316.64 Q69.742 321.223 63.9319 321.223 Q58.1217 321.223 55.043 316.64 Q51.9875 312.034 51.9875 303.307 Q51.9875 294.557 55.043 289.974 Q58.1217 285.367 63.9319 285.367 Z" fill="#000000" fill-rule="nonzero" fill-opacity="1" /><path clip-path="url(#clip800)" d="M84.0938 314.673 L88.978 314.673 L88.978 320.552 L84.0938 320.552 L84.0938 314.673 Z" fill="#000000" fill-rule="nonzero" fill-opacity="1" /><path clip-path="url(#clip800)" d="M99.9733 316.617 L107.612 316.617 L107.612 290.251 L99.3021 291.918 L99.3021 287.659 L107.566 285.992 L112.242 285.992 L112.242 316.617 L119.881 316.617 L119.881 320.552 L99.9733 320.552 L99.9733 316.617 Z" fill="#000000" fill-rule="nonzero" fill-opacity="1" /><path clip-path="url(#clip800)" d="M129.371 285.992 L147.728 285.992 L147.728 289.927 L133.654 289.927 L133.654 298.399 Q134.672 298.052 135.691 297.89 Q136.709 297.705 137.728 297.705 Q143.515 297.705 146.894 300.876 Q150.274 304.048 150.274 309.464 Q150.274 315.043 146.802 318.145 Q143.33 321.223 137.01 321.223 Q134.834 321.223 132.566 320.853 Q130.32 320.483 127.913 319.742 L127.913 315.043 Q129.996 316.177 132.219 316.733 Q134.441 317.288 136.918 317.288 Q140.922 317.288 143.26 315.182 Q145.598 313.075 145.598 309.464 Q145.598 305.853 143.26 303.747 Q140.922 301.64 136.918 301.64 Q135.043 301.64 133.168 302.057 Q131.316 302.474 129.371 303.353 L129.371 285.992 Z" fill="#000000" fill-rule="nonzero" fill-opacity="1" /><polyline clip-path="url(#clip802)" style="stroke:#009af9; stroke-linecap:round; stroke-linejoin:round; stroke-width:4; stroke-opacity:1; fill:none" points="186.274,1310.34 188.443,1311.08 190.611,1311.81 192.78,1312.53 194.949,1313.24 197.117,1313.95 199.286,1314.65 201.455,1315.34 203.623,1316.03 205.792,1316.71 207.961,1317.38 210.129,1318.05 212.298,1318.71 214.466,1319.36 216.635,1320.01 218.804,1320.65 220.972,1321.28 223.141,1321.91 225.31,1322.53 227.478,1323.14 229.647,1323.75 231.816,1324.35 233.984,1324.95 236.153,1325.54 238.322,1326.13 240.49,1326.7 242.659,1327.28 244.828,1327.84 246.996,1328.41 249.165,1328.96 251.334,1329.51 253.502,1330.06 255.671,1330.6 257.839,1331.13 260.008,1331.66 262.177,1332.19 264.345,1332.7 266.514,1333.22 268.683,1333.73 270.851,1334.23 273.02,1334.73 275.189,1335.22 277.357,1335.71 279.526,1336.19 281.695,1336.67 283.863,1337.14 286.032,1337.61 288.201,1338.08 290.369,1338.54 292.538,1338.99 294.707,1339.44 296.875,1339.89 299.044,1340.33 301.212,1340.77 303.381,1341.2 305.55,1341.63 307.718,1342.05 309.887,1342.47 312.056,1342.89 314.224,1343.3 316.393,1343.71 318.562,1344.11 320.73,1344.51 322.899,1344.91 325.068,1345.3 327.236,1345.69 329.405,1346.07 331.574,1346.45 333.742,1346.83 335.911,1347.2 338.08,1347.57 340.248,1347.94 342.417,1348.3 344.585,1348.66 346.754,1349.01 348.923,1349.36 351.091,1349.71 353.26,1350.05 355.429,1350.39 357.597,1350.73 359.766,1351.06 361.935,1351.39 364.103,1351.72 366.272,1352.05 368.441,1352.37 370.609,1352.68 372.778,1353 374.947,1353.31 377.115,1353.62 379.284,1353.92 381.453,1354.22 383.621,1354.52 385.79,1354.82 387.959,1355.11 390.127,1355.4 392.296,1355.69 394.464,1355.97 396.633,1356.26 398.802,1356.53 400.97,1356.81 403.139,1357.08 405.308,1357.35 407.476,1357.62 409.645,1357.89 411.814,1358.15 413.982,1358.41 416.151,1358.67 418.32,1358.92 420.488,1359.17 422.657,1359.42 424.826,1359.67 426.994,1359.92 429.163,1360.16 431.332,1360.4 433.5,1360.63 435.669,1360.87 437.837,1361.1 440.006,1361.33 442.175,1361.56 444.343,1361.79 446.512,1362.01 448.681,1362.23 450.849,1362.45 453.018,1362.67 455.187,1362.88 457.355,1363.1 459.524,1363.31 461.693,1363.52 463.861,1363.72 466.03,1363.93 468.199,1364.13 470.367,1364.33 472.536,1364.53 474.705,1364.72 476.873,1364.92 479.042,1365.11 481.21,1365.3 483.379,1365.49 485.548,1365.68 487.716,1365.86 489.885,1366.04 492.054,1366.23 494.222,1366.4 496.391,1366.58 498.56,1366.76 500.728,1366.93 502.897,1367.1 505.066,1367.28 507.234,1367.44 509.403,1367.61 511.572,1367.78 513.74,1367.94 515.909,1368.1 518.078,1368.26 520.246,1368.42 522.415,1368.58 524.583,1368.74 526.752,1368.89 528.921,1369.04 531.089,1369.2 533.258,1369.35 535.427,1369.49 537.595,1369.64 539.764,1369.79 541.933,1369.93 544.101,1370.07 546.27,1370.21 548.439,1370.35 550.607,1370.49 552.776,1370.63 554.945,1370.76 557.113,1370.9 559.282,1371.03 561.451,1371.16 563.619,1371.29 565.788,1371.42 567.956,1371.55 570.125,1371.68 572.294,1371.8 574.462,1371.93 576.631,1372.05 578.8,1372.17 580.968,1372.29 583.137,1372.41 585.306,1372.53 587.474,1372.64 589.643,1372.76 591.812,1372.87 593.98,1372.99 596.149,1373.1 598.318,1373.21 600.486,1373.32 602.655,1373.43 604.824,1373.54 606.992,1373.64 609.161,1373.75 611.33,1373.85 613.498,1373.96 615.667,1374.06 617.835,1374.16 620.004,1374.26 622.173,1374.36 624.341,1374.46 626.51,1374.56 628.679,1374.65 630.847,1374.75 633.016,1374.84 635.185,1374.94 637.353,1375.03 639.522,1375.12 641.691,1375.21 643.859,1375.3 646.028,1375.39 648.197,1375.48 650.365,1375.57 652.534,1375.65 654.703,1375.74 656.871,1375.82 659.04,1375.91 661.208,1375.99 663.377,1376.07 665.546,1376.15 667.714,1376.23 669.883,1376.31 672.052,1376.39 674.22,1376.47 676.389,1376.55 678.558,1376.62 680.726,1376.7 682.895,1376.78 685.064,1376.85 687.232,1376.92 689.401,1377 691.57,1377.07 693.738,1377.14 695.907,1377.21 698.076,1377.28 700.244,1377.35 702.413,1377.42 704.581,1377.49 706.75,1377.55 708.919,1377.62 711.087,1377.69 713.256,1377.75 715.425,1377.82 717.593,1377.88 719.762,1377.94 721.931,1378.01 724.099,1378.07 726.268,1378.13 728.437,1378.19 730.605,1378.25 732.774,1378.31 734.943,1378.37 737.111,1378.43 739.28,1378.49 741.449,1378.54 743.617,1378.6 745.786,1378.66 747.954,1378.71 750.123,1378.77 752.292,1378.82 754.46,1378.88 756.629,1378.93 758.798,1378.98 760.966,1379.03 763.135,1379.09 765.304,1379.14 767.472,1379.19 769.641,1379.24 771.81,1379.29 773.978,1379.34 776.147,1379.39 778.316,1379.44 780.484,1379.48 782.653,1379.53 784.822,1379.58 786.99,1379.62 789.159,1379.67 791.328,1379.72 793.496,1379.76 795.665,1379.81 797.833,1379.85 800.002,1379.89 802.171,1379.94 804.339,1379.98 806.508,1380.02 808.677,1380.06 810.845,1380.11 813.014,1380.15 815.183,1380.19 817.351,1380.23 819.52,1380.27 821.689,1380.31 823.857,1380.35 826.026,1380.39 828.195,1380.42 830.363,1380.46 832.532,1380.5 834.701,1380.54 836.869,1380.57 839.038,1380.61 841.206,1380.65 843.375,1380.68 845.544,1380.72 847.712,1380.75 849.881,1380.79 852.05,1380.82 854.218,1380.86 856.387,1380.89 858.556,1380.92 860.724,1380.96 862.893,1380.99 865.062,1381.02 867.23,1381.05 869.399,1381.08 871.568,1381.12 873.736,1381.15 875.905,1381.18 878.074,1381.21 880.242,1381.24 882.411,1381.27 884.579,1381.3 886.748,1381.33 888.917,1381.36 891.085,1381.39 893.254,1381.41 895.423,1381.44 897.591,1381.47 899.76,1381.5 901.929,1381.52 904.097,1381.55 906.266,1381.58 908.435,1381.61 910.603,1381.63 912.772,1381.66 914.941,1381.68 917.109,1381.71 919.278,1381.73 921.447,1381.76 923.615,1381.78 925.784,1381.81 927.952,1381.83 930.121,1381.86 932.29,1381.88 934.458,1381.9 936.627,1381.93 938.796,1381.95 940.964,1381.97 943.133,1382 945.302,1382.02 947.47,1382.04 949.639,1382.06 951.808,1382.08 953.976,1382.11 956.145,1382.13 958.314,1382.15 960.482,1382.17 962.651,1382.19 964.82,1382.21 966.988,1382.23 969.157,1382.25 971.326,1382.27 973.494,1382.29 975.663,1382.31 977.831,1382.33 980,1382.35 982.169,1382.37 984.337,1382.38 986.506,1382.4 988.675,1382.42 990.843,1382.44 993.012,1382.46 995.181,1382.48 997.349,1382.49 999.518,1382.51 1001.69,1382.53 1003.86,1382.54 1006.02,1382.56 1008.19,1382.58 1010.36,1382.59 1012.53,1382.61 1014.7,1382.63 1016.87,1382.64 1019.04,1382.66 1021.2,1382.68 1023.37,1382.69 1025.54,1382.71 1027.71,1382.72 1029.88,1382.74 1032.05,1382.75 1034.22,1382.77 1036.39,1382.78 1038.55,1382.8 1040.72,1382.81 1042.89,1382.82 1045.06,1382.84 1047.23,1382.85 1049.4,1382.87 1051.57,1382.88 1053.73,1382.89 1055.9,1382.91 1058.07,1382.92 1060.24,1382.93 1062.41,1382.95 1064.58,1382.96 1066.75,1382.97 1068.91,1382.98 1071.08,1383 1073.25,1383.01 1075.42,1383.02 1077.59,1383.03 1079.76,1383.05 1081.93,1383.06 1084.1,1383.07 1086.26,1383.08 1088.43,1383.09 1090.6,1383.1 1092.77,1383.12 1094.94,1383.13 1097.11,1383.14 1099.28,1383.15 1101.44,1383.16 1103.61,1383.17 1105.78,1383.18 1107.95,1383.19 1110.12,1383.2 1112.29,1383.21 1114.46,1383.22 1116.63,1383.23 1118.79,1383.24 1120.96,1383.25 1123.13,1383.26 1125.3,1383.27 1127.47,1383.28 1129.64,1383.29 1131.81,1383.3 1133.97,1383.31 1136.14,1383.32 1138.31,1383.33 1140.48,1383.34 1142.65,1383.35 1144.82,1383.36 1146.99,1383.37 1149.15,1383.37 1151.32,1383.38 1153.49,1383.39 1155.66,1383.4 1157.83,1383.41 1160,1383.42 1162.17,1383.42 1164.34,1383.43 1166.5,1383.44 1168.67,1383.45 1170.84,1383.46 1173.01,1383.46 1175.18,1383.47 1177.35,1383.48 1179.52,1383.49 1181.68,1383.49 1183.85,1383.5 1186.02,1383.51 1188.19,1383.52 1190.36,1383.52 1192.53,1383.53 1194.7,1383.54 1196.87,1383.55 1199.03,1383.55 1201.2,1383.56 1203.37,1383.57 1205.54,1383.57 1207.71,1383.58 1209.88,1383.59 1212.05,1383.59 1214.21,1383.6 1216.38,1383.61 1218.55,1383.61 1220.72,1383.62 1222.89,1383.62 1225.06,1383.63 1227.23,1383.64 1229.39,1383.64 1231.56,1383.65 1233.73,1383.65 1235.9,1383.66 1238.07,1383.67 1240.24,1383.67 1242.41,1383.68 1244.58,1383.68 1246.74,1383.69 1248.91,1383.69 1251.08,1383.7 1253.25,1383.7 1255.42,1383.71 1257.59,1383.72 1259.76,1383.72 1261.92,1383.73 1264.09,1383.73 1266.26,1383.74 1268.43,1383.74 1270.6,1383.75 1272.77,1383.75 1274.94,1383.76 1277.11,1383.76 1279.27,1383.77 1281.44,1383.77 1283.61,1383.78 1285.78,1383.78 1287.95,1383.78 1290.12,1383.79 1292.29,1383.79 1294.45,1383.8 1296.62,1383.8 1298.79,1383.81 1300.96,1383.81 1303.13,1383.82 1305.3,1383.82 1307.47,1383.82 1309.63,1383.83 1311.8,1383.83 1313.97,1383.84 1316.14,1383.84 1318.31,1383.84 1320.48,1383.85 1322.65,1383.85 1324.82,1383.86 1326.98,1383.86 1329.15,1383.86 1331.32,1383.87 1333.49,1383.87 1335.66,1383.87 1337.83,1383.88 1340,1383.88 1342.16,1383.89 1344.33,1383.89 1346.5,1383.89 1348.67,1383.9 1350.84,1383.9 1353.01,1383.9 1355.18,1383.91 1357.35,1383.91 1359.51,1383.91 1361.68,1383.92 1363.85,1383.92 1366.02,1383.92 1368.19,1383.93 1370.36,1383.93 1372.53,1383.93 1374.69,1383.94 1376.86,1383.94 1379.03,1383.94 1381.2,1383.94 1383.37,1383.95 1385.54,1383.95 1387.71,1383.95 1389.88,1383.96 1392.04,1383.96 1394.21,1383.96 1396.38,1383.96 1398.55,1383.97 1400.72,1383.97 1402.89,1383.97 1405.06,1383.98 1407.22,1383.98 1409.39,1383.98 1411.56,1383.98 1413.73,1383.99 1415.9,1383.99 1418.07,1383.99 1420.24,1383.99 1422.4,1384 1424.57,1384 1426.74,1384 1428.91,1384 1431.08,1384.01 1433.25,1384.01 1435.42,1384.01 1437.59,1384.01 1439.75,1384.01 1441.92,1384.02 1444.09,1384.02 1446.26,1384.02 1448.43,1384.02 1450.6,1384.03 1452.77,1384.03 1454.93,1384.03 1457.1,1384.03 1459.27,1384.03 1461.44,1384.04 1463.61,1384.04 1465.78,1384.04 1467.95,1384.04 1470.12,1384.04 1472.28,1384.05 1474.45,1384.05 1476.62,1384.05 1478.79,1384.05 1480.96,1384.05 1483.13,1384.06 1485.3,1384.06 1487.46,1384.06 1489.63,1384.06 1491.8,1384.06 1493.97,1384.06 1496.14,1384.07 1498.31,1384.07 1500.48,1384.07 1502.64,1384.07 1504.81,1384.07 1506.98,1384.08 1509.15,1384.08 1511.32,1384.08 1513.49,1384.08 1515.66,1384.08 1517.83,1384.08 1519.99,1384.08 1522.16,1384.09 1524.33,1384.09 1526.5,1384.09 1528.67,1384.09 1530.84,1384.09 1533.01,1384.09 1535.17,1384.1 1537.34,1384.1 1539.51,1384.1 1541.68,1384.1 1543.85,1384.1 1546.02,1384.1 1548.19,1384.1 1550.36,1384.11 1552.52,1384.11 1554.69,1384.11 1556.86,1384.11 1559.03,1384.11 1561.2,1384.11 1563.37,1384.11 1565.54,1384.11 1567.7,1384.12 1569.87,1384.12 1572.04,1384.12 1574.21,1384.12 1576.38,1384.12 1578.55,1384.12 1580.72,1384.12 1582.88,1384.12 1585.05,1384.13 1587.22,1384.13 1589.39,1384.13 1591.56,1384.13 1593.73,1384.13 1595.9,1384.13 1598.07,1384.13 1600.23,1384.13 1602.4,1384.13 1604.57,1384.14 1606.74,1384.14 1608.91,1384.14 1611.08,1384.14 1613.25,1384.14 1615.41,1384.14 1617.58,1384.14 1619.75,1384.14 1621.92,1384.14 1624.09,1384.14 1626.26,1384.15 1628.43,1384.15 1630.6,1384.15 1632.76,1384.15 1634.93,1384.15 1637.1,1384.15 1639.27,1384.15 1641.44,1384.15 1643.61,1384.15 1645.78,1384.15 1647.94,1384.15 1650.11,1384.16 1652.28,1384.16 1654.45,1384.16 1656.62,1384.16 1658.79,1384.16 1660.96,1384.16 1663.13,1384.16 1665.29,1384.16 1667.46,1384.16 1669.63,1384.16 1671.8,1384.16 1673.97,1384.16 1676.14,1384.17 1678.31,1384.17 1680.47,1384.17 1682.64,1384.17 1684.81,1384.17 1686.98,1384.17 1689.15,1384.17 1691.32,1384.17 1693.49,1384.17 1695.65,1384.17 1697.82,1384.17 1699.99,1384.17 1702.16,1384.17 1704.33,1384.17 1706.5,1384.18 1708.67,1384.18 1710.84,1384.18 1713,1384.18 1715.17,1384.18 1717.34,1384.18 1719.51,1384.18 1721.68,1384.18 1723.85,1384.18 1726.02,1384.18 1728.18,1384.18 1730.35,1384.18 1732.52,1384.18 1734.69,1384.18 1736.86,1384.18 1739.03,1384.18 1741.2,1384.19 1743.37,1384.19 1745.53,1384.19 1747.7,1384.19 1749.87,1384.19 1752.04,1384.19 1754.21,1384.19 1756.38,1384.19 1758.55,1384.19 1760.71,1384.19 1762.88,1384.19 1765.05,1384.19 1767.22,1384.19 1769.39,1384.19 1771.56,1384.19 1773.73,1384.19 1775.89,1384.19 1778.06,1384.19 1780.23,1384.19 1782.4,1384.19 1784.57,1384.2 1786.74,1384.2 1788.91,1384.2 1791.08,1384.2 1793.24,1384.2 1795.41,1384.2 1797.58,1384.2 1799.75,1384.2 1801.92,1384.2 1804.09,1384.2 1806.26,1384.2 1808.42,1384.2 1810.59,1384.2 1812.76,1384.2 1814.93,1384.2 1817.1,1384.2 1819.27,1384.2 1821.44,1384.2 1823.61,1384.2 1825.77,1384.2 1827.94,1384.2 1830.11,1384.2 1832.28,1384.2 1834.45,1384.2 1836.62,1384.21 1838.79,1384.21 1840.95,1384.21 1843.12,1384.21 1845.29,1384.21 1847.46,1384.21 1849.63,1384.21 1851.8,1384.21 1853.97,1384.21 1856.13,1384.21 1858.3,1384.21 1860.47,1384.21 1862.64,1384.21 1864.81,1384.21 1866.98,1384.21 1869.15,1384.21 1871.32,1384.21 1873.48,1384.21 1875.65,1384.21 1877.82,1384.21 1879.99,1384.21 1882.16,1384.21 1884.33,1384.21 1886.5,1384.21 1888.66,1384.21 1890.83,1384.21 1893,1384.21 1895.17,1384.21 1897.34,1384.21 1899.51,1384.21 1901.68,1384.21 1903.85,1384.21 1906.01,1384.22 1908.18,1384.22 1910.35,1384.22 1912.52,1384.22 1914.69,1384.22 1916.86,1384.22 1919.03,1384.22 1921.19,1384.22 1923.36,1384.22 1925.53,1384.22 1927.7,1384.22 1929.87,1384.22 1932.04,1384.22 1934.21,1384.22 1936.37,1384.22 1938.54,1384.22 1940.71,1384.22 1942.88,1384.22 1945.05,1384.22 1947.22,1384.22 1949.39,1384.22 1951.56,1384.22 1953.72,1384.22 1955.89,1384.22 1958.06,1384.22 1960.23,1384.22 1962.4,1384.22 1964.57,1384.22 1966.74,1384.22 1968.9,1384.22 1971.07,1384.22 1973.24,1384.22 1975.41,1384.22 1977.58,1384.22 1979.75,1384.22 1981.92,1384.22 1984.09,1384.22 1986.25,1384.22 1988.42,1384.22 1990.59,1384.22 1992.76,1384.22 1994.93,1384.22 1997.1,1384.22 1999.27,1384.22 2001.43,1384.22 2003.6,1384.22 2005.77,1384.22 2007.94,1384.23 2010.11,1384.23 2012.28,1384.23 2014.45,1384.23 2016.62,1384.23 2018.78,1384.23 2020.95,1384.23 2023.12,1384.23 2025.29,1384.23 2027.46,1384.23 2029.63,1384.23 2031.8,1384.23 2033.96,1384.23 2036.13,1384.23 2038.3,1384.23 2040.47,1384.23 2042.64,1384.23 2044.81,1384.23 2046.98,1384.23 2049.14,1384.23 2051.31,1384.23 2053.48,1384.23 2055.65,1384.23 2057.82,1384.23 2059.99,1384.23 2062.16,1384.23 2064.33,1384.23 2066.49,1384.23 2068.66,1384.23 2070.83,1384.23 2073,1384.23 2075.17,1384.23 2077.34,1384.23 2079.51,1384.23 2081.67,1384.23 2083.84,1384.23 2086.01,1384.23 2088.18,1384.23 2090.35,1384.23 2092.52,1384.23 2094.69,1384.23 2096.86,1384.23 2099.02,1384.23 2101.19,1384.23 2103.36,1384.23 2105.53,1384.23 2107.7,1384.23 2109.87,1384.23 2112.04,1384.23 2114.2,1384.23 2116.37,1384.23 2118.54,1384.23 2120.71,1384.23 2122.88,1384.23 2125.05,1384.23 2127.22,1384.23 2129.38,1384.23 2131.55,1384.23 2133.72,1384.23 2135.89,1384.23 2138.06,1384.23 2140.23,1384.23 2142.4,1384.23 2144.57,1384.23 2146.73,1384.23 2148.9,1384.23 2151.07,1384.23 2153.24,1384.23 2155.41,1384.23 2157.58,1384.23 2159.75,1384.23 2161.91,1384.23 2164.08,1384.23 2166.25,1384.23 2168.42,1384.23 2170.59,1384.23 2172.76,1384.23 2174.93,1384.23 2177.1,1384.23 2179.26,1384.23 2181.43,1384.23 2183.6,1384.23 2185.77,1384.23 2187.94,1384.23 2190.11,1384.23 2192.28,1384.23 2194.44,1384.23 2196.61,1384.23 2198.78,1384.23 2200.95,1384.23 2203.12,1384.23 2205.29,1384.23 2207.46,1384.24 2209.62,1384.24 2211.79,1384.24 2213.96,1384.24 2216.13,1384.24 2218.3,1384.24 2220.47,1384.24 2222.64,1384.24 2224.81,1384.24 2226.97,1384.24 2229.14,1384.24 2231.31,1384.24 2233.48,1384.24 2235.65,1384.24 2237.82,1384.24 2239.99,1384.24 2242.15,1384.24 2244.32,1384.24 2246.49,1384.24 2248.66,1384.24 2250.83,1384.24 2253,1384.24 2255.17,1384.24 2257.34,1384.24 2259.5,1384.24 2261.67,1384.24 2263.84,1384.24 2266.01,1384.24 2268.18,1384.24 2270.35,1384.24 2272.52,1384.24 2274.68,1384.24 2276.85,1384.24 2279.02,1384.24 2281.19,1384.24 2283.36,1384.24 2285.53,1384.24 2287.7,1384.24 2289.87,1384.24 2292.03,1384.24 2294.2,1384.24 2296.37,1384.24 2298.54,1384.24 2300.71,1384.24 2302.88,1384.24 2305.05,1384.24 2307.21,1384.24 2309.38,1384.24 2311.55,1384.24 2313.72,1384.24 2315.89,1384.24 2318.06,1384.24 2320.23,1384.24 2322.39,1384.24 2324.56,1384.24 2326.73,1384.24 2328.9,1384.24 2331.07,1384.24 2333.24,1384.24 2335.41,1384.24 2337.58,1384.24 2339.74,1384.24 2341.91,1384.24 2344.08,1384.24 2346.25,1384.24 2348.42,1384.24 2350.59,1384.24 2352.76,1384.24 "/>
<polyline clip-path="url(#clip802)" style="stroke:#e26f46; stroke-linecap:round; stroke-linejoin:round; stroke-width:4; stroke-opacity:1; fill:none" points="186.274,86.1857 188.443,97.7977 190.611,109.302 192.78,120.7 194.949,131.991 197.117,143.178 199.286,154.262 201.455,165.243 203.623,176.121 205.792,186.899 207.961,197.578 210.129,208.157 212.298,218.638 214.466,229.023 216.635,239.311 218.804,249.504 220.972,259.603 223.141,269.608 225.31,279.521 227.478,289.342 229.647,299.073 231.816,308.713 233.984,318.265 236.153,327.728 238.322,337.105 240.49,346.394 242.659,355.598 244.828,364.717 246.996,373.752 249.165,382.704 251.334,391.573 253.502,400.36 255.671,409.067 257.839,417.694 260.008,426.241 262.177,434.709 264.345,443.099 266.514,451.413 268.683,459.649 270.851,467.81 273.02,475.896 275.189,483.908 277.357,491.846 279.526,499.711 281.695,507.504 283.863,515.226 286.032,522.876 288.201,530.457 290.369,537.967 292.538,545.409 294.707,552.783 296.875,560.089 299.044,567.328 301.212,574.501 303.381,581.609 305.55,588.651 307.718,595.629 309.887,602.543 312.056,609.393 314.224,616.182 316.393,622.908 318.562,629.572 320.73,636.176 322.899,642.72 325.068,649.203 327.236,655.628 329.405,661.994 331.574,668.302 333.742,674.553 335.911,680.746 338.08,686.883 340.248,692.964 342.417,698.99 344.585,704.961 346.754,710.877 348.923,716.74 351.091,722.549 353.26,728.305 355.429,734.01 357.597,739.662 359.766,745.262 361.935,750.812 364.103,756.312 366.272,761.761 368.441,767.161 370.609,772.512 372.778,777.815 374.947,783.069 377.115,788.276 379.284,793.436 381.453,798.548 383.621,803.615 385.79,808.636 387.959,813.611 390.127,818.541 392.296,823.427 394.464,828.268 396.633,833.066 398.802,837.82 400.97,842.532 403.139,847.201 405.308,851.827 407.476,856.412 409.645,860.956 411.814,865.459 413.982,869.921 416.151,874.343 418.32,878.725 420.488,883.068 422.657,887.371 424.826,891.636 426.994,895.863 429.163,900.051 431.332,904.202 433.5,908.315 435.669,912.392 437.837,916.432 440.006,920.435 442.175,924.403 444.343,928.335 446.512,932.231 448.681,936.093 450.849,939.92 453.018,943.713 455.187,947.472 457.355,951.196 459.524,954.888 461.693,958.547 463.861,962.172 466.03,965.766 468.199,969.327 470.367,972.856 472.536,976.354 474.705,979.821 476.873,983.256 479.042,986.661 481.21,990.035 483.379,993.38 485.548,996.694 487.716,999.979 489.885,1003.24 492.054,1006.46 494.222,1009.66 496.391,1012.83 498.56,1015.97 500.728,1019.08 502.897,1022.17 505.066,1025.23 507.234,1028.26 509.403,1031.26 511.572,1034.24 513.74,1037.19 515.909,1040.12 518.078,1043.02 520.246,1045.89 522.415,1048.74 524.583,1051.56 526.752,1054.36 528.921,1057.13 531.089,1059.88 533.258,1062.6 535.427,1065.31 537.595,1067.98 539.764,1070.63 541.933,1073.26 544.101,1075.87 546.27,1078.45 548.439,1081.01 550.607,1083.55 552.776,1086.06 554.945,1088.56 557.113,1091.03 559.282,1093.48 561.451,1095.9 563.619,1098.31 565.788,1100.69 567.956,1103.06 570.125,1105.4 572.294,1107.72 574.462,1110.03 576.631,1112.31 578.8,1114.57 580.968,1116.81 583.137,1119.03 585.306,1121.24 587.474,1123.42 589.643,1125.58 591.812,1127.73 593.98,1129.85 596.149,1131.96 598.318,1134.05 600.486,1136.12 602.655,1138.18 604.824,1140.21 606.992,1142.23 609.161,1144.23 611.33,1146.21 613.498,1148.18 615.667,1150.12 617.835,1152.05 620.004,1153.97 622.173,1155.87 624.341,1157.75 626.51,1159.61 628.679,1161.46 630.847,1163.29 633.016,1165.11 635.185,1166.91 637.353,1168.69 639.522,1170.46 641.691,1172.22 643.859,1173.96 646.028,1175.68 648.197,1177.39 650.365,1179.08 652.534,1180.76 654.703,1182.43 656.871,1184.08 659.04,1185.71 661.208,1187.34 663.377,1188.94 665.546,1190.54 667.714,1192.12 669.883,1193.69 672.052,1195.24 674.22,1196.78 676.389,1198.3 678.558,1199.82 680.726,1201.32 682.895,1202.8 685.064,1204.28 687.232,1205.74 689.401,1207.19 691.57,1208.63 693.738,1210.05 695.907,1211.46 698.076,1212.86 700.244,1214.25 702.413,1215.63 704.581,1216.99 706.75,1218.34 708.919,1219.68 711.087,1221.01 713.256,1222.33 715.425,1223.64 717.593,1224.93 719.762,1226.22 721.931,1227.49 724.099,1228.75 726.268,1230 728.437,1231.24 730.605,1232.47 732.774,1233.69 734.943,1234.9 737.111,1236.1 739.28,1237.29 741.449,1238.47 743.617,1239.64 745.786,1240.8 747.954,1241.95 750.123,1243.09 752.292,1244.22 754.46,1245.34 756.629,1246.45 758.798,1247.55 760.966,1248.64 763.135,1249.72 765.304,1250.8 767.472,1251.86 769.641,1252.92 771.81,1253.96 773.978,1255 776.147,1256.03 778.316,1257.05 780.484,1258.06 782.653,1259.06 784.822,1260.06 786.99,1261.04 789.159,1262.02 791.328,1262.99 793.496,1263.95 795.665,1264.91 797.833,1265.85 800.002,1266.79 802.171,1267.72 804.339,1268.64 806.508,1269.55 808.677,1270.46 810.845,1271.36 813.014,1272.25 815.183,1273.13 817.351,1274.01 819.52,1274.88 821.689,1275.74 823.857,1276.59 826.026,1277.44 828.195,1278.28 830.363,1279.11 832.532,1279.94 834.701,1280.76 836.869,1281.57 839.038,1282.37 841.206,1283.17 843.375,1283.96 845.544,1284.75 847.712,1285.53 849.881,1286.3 852.05,1287.07 854.218,1287.82 856.387,1288.58 858.556,1289.32 860.724,1290.07 862.893,1290.8 865.062,1291.53 867.23,1292.25 869.399,1292.97 871.568,1293.68 873.736,1294.38 875.905,1295.08 878.074,1295.77 880.242,1296.46 882.411,1297.14 884.579,1297.82 886.748,1298.49 888.917,1299.15 891.085,1299.81 893.254,1300.47 895.423,1301.12 897.591,1301.76 899.76,1302.4 901.929,1303.03 904.097,1303.66 906.266,1304.28 908.435,1304.9 910.603,1305.51 912.772,1306.12 914.941,1306.72 917.109,1307.32 919.278,1307.91 921.447,1308.5 923.615,1309.08 925.784,1309.66 927.952,1310.23 930.121,1310.8 932.29,1311.36 934.458,1311.92 936.627,1312.48 938.796,1313.03 940.964,1313.57 943.133,1314.11 945.302,1314.65 947.47,1315.18 949.639,1315.71 951.808,1316.23 953.976,1316.75 956.145,1317.27 958.314,1317.78 960.482,1318.28 962.651,1318.79 964.82,1319.29 966.988,1319.78 969.157,1320.27 971.326,1320.76 973.494,1321.24 975.663,1321.72 977.831,1322.19 980,1322.66 982.169,1323.13 984.337,1323.59 986.506,1324.05 988.675,1324.51 990.843,1324.96 993.012,1325.41 995.181,1325.86 997.349,1326.3 999.518,1326.73 1001.69,1327.17 1003.86,1327.6 1006.02,1328.03 1008.19,1328.45 1010.36,1328.87 1012.53,1329.29 1014.7,1329.7 1016.87,1330.11 1019.04,1330.52 1021.2,1330.92 1023.37,1331.32 1025.54,1331.72 1027.71,1332.12 1029.88,1332.51 1032.05,1332.89 1034.22,1333.28 1036.39,1333.66 1038.55,1334.04 1040.72,1334.42 1042.89,1334.79 1045.06,1335.16 1047.23,1335.53 1049.4,1335.89 1051.57,1336.25 1053.73,1336.61 1055.9,1336.96 1058.07,1337.32 1060.24,1337.67 1062.41,1338.01 1064.58,1338.36 1066.75,1338.7 1068.91,1339.04 1071.08,1339.37 1073.25,1339.71 1075.42,1340.04 1077.59,1340.37 1079.76,1340.69 1081.93,1341.01 1084.1,1341.33 1086.26,1341.65 1088.43,1341.97 1090.6,1342.28 1092.77,1342.59 1094.94,1342.9 1097.11,1343.2 1099.28,1343.51 1101.44,1343.81 1103.61,1344.11 1105.78,1344.4 1107.95,1344.7 1110.12,1344.99 1112.29,1345.28 1114.46,1345.56 1116.63,1345.85 1118.79,1346.13 1120.96,1346.41 1123.13,1346.69 1125.3,1346.96 1127.47,1347.24 1129.64,1347.51 1131.81,1347.78 1133.97,1348.04 1136.14,1348.31 1138.31,1348.57 1140.48,1348.83 1142.65,1349.09 1144.82,1349.35 1146.99,1349.6 1149.15,1349.86 1151.32,1350.11 1153.49,1350.36 1155.66,1350.6 1157.83,1350.85 1160,1351.09 1162.17,1351.33 1164.34,1351.57 1166.5,1351.81 1168.67,1352.05 1170.84,1352.28 1173.01,1352.51 1175.18,1352.74 1177.35,1352.97 1179.52,1353.2 1181.68,1353.42 1183.85,1353.65 1186.02,1353.87 1188.19,1354.09 1190.36,1354.31 1192.53,1354.52 1194.7,1354.74 1196.87,1354.95 1199.03,1355.16 1201.2,1355.37 1203.37,1355.58 1205.54,1355.79 1207.71,1355.99 1209.88,1356.2 1212.05,1356.4 1214.21,1356.6 1216.38,1356.8 1218.55,1357 1220.72,1357.19 1222.89,1357.39 1225.06,1357.58 1227.23,1357.77 1229.39,1357.96 1231.56,1358.15 1233.73,1358.34 1235.9,1358.52 1238.07,1358.71 1240.24,1358.89 1242.41,1359.07 1244.58,1359.25 1246.74,1359.43 1248.91,1359.61 1251.08,1359.78 1253.25,1359.96 1255.42,1360.13 1257.59,1360.3 1259.76,1360.47 1261.92,1360.64 1264.09,1360.81 1266.26,1360.98 1268.43,1361.14 1270.6,1361.31 1272.77,1361.47 1274.94,1361.63 1277.11,1361.79 1279.27,1361.95 1281.44,1362.11 1283.61,1362.27 1285.78,1362.42 1287.95,1362.58 1290.12,1362.73 1292.29,1362.88 1294.45,1363.03 1296.62,1363.18 1298.79,1363.33 1300.96,1363.48 1303.13,1363.63 1305.3,1363.77 1307.47,1363.92 1309.63,1364.06 1311.8,1364.2 1313.97,1364.34 1316.14,1364.49 1318.31,1364.62 1320.48,1364.76 1322.65,1364.9 1324.82,1365.04 1326.98,1365.17 1329.15,1365.3 1331.32,1365.44 1333.49,1365.57 1335.66,1365.7 1337.83,1365.83 1340,1365.96 1342.16,1366.09 1344.33,1366.21 1346.5,1366.34 1348.67,1366.47 1350.84,1366.59 1353.01,1366.71 1355.18,1366.84 1357.35,1366.96 1359.51,1367.08 1361.68,1367.2 1363.85,1367.32 1366.02,1367.44 1368.19,1367.55 1370.36,1367.67 1372.53,1367.78 1374.69,1367.9 1376.86,1368.01 1379.03,1368.13 1381.2,1368.24 1383.37,1368.35 1385.54,1368.46 1387.71,1368.57 1389.88,1368.68 1392.04,1368.79 1394.21,1368.89 1396.38,1369 1398.55,1369.11 1400.72,1369.21 1402.89,1369.32 1405.06,1369.42 1407.22,1369.52 1409.39,1369.62 1411.56,1369.72 1413.73,1369.83 1415.9,1369.92 1418.07,1370.02 1420.24,1370.12 1422.4,1370.22 1424.57,1370.32 1426.74,1370.41 1428.91,1370.51 1431.08,1370.6 1433.25,1370.7 1435.42,1370.79 1437.59,1370.88 1439.75,1370.97 1441.92,1371.07 1444.09,1371.16 1446.26,1371.25 1448.43,1371.34 1450.6,1371.42 1452.77,1371.51 1454.93,1371.6 1457.1,1371.69 1459.27,1371.77 1461.44,1371.86 1463.61,1371.94 1465.78,1372.03 1467.95,1372.11 1470.12,1372.19 1472.28,1372.28 1474.45,1372.36 1476.62,1372.44 1478.79,1372.52 1480.96,1372.6 1483.13,1372.68 1485.3,1372.76 1487.46,1372.84 1489.63,1372.91 1491.8,1372.99 1493.97,1373.07 1496.14,1373.14 1498.31,1373.22 1500.48,1373.29 1502.64,1373.37 1504.81,1373.44 1506.98,1373.51 1509.15,1373.59 1511.32,1373.66 1513.49,1373.73 1515.66,1373.8 1517.83,1373.87 1519.99,1373.94 1522.16,1374.01 1524.33,1374.08 1526.5,1374.15 1528.67,1374.22 1530.84,1374.29 1533.01,1374.36 1535.17,1374.42 1537.34,1374.49 1539.51,1374.55 1541.68,1374.62 1543.85,1374.68 1546.02,1374.75 1548.19,1374.81 1550.36,1374.88 1552.52,1374.94 1554.69,1375 1556.86,1375.06 1559.03,1375.13 1561.2,1375.19 1563.37,1375.25 1565.54,1375.31 1567.7,1375.37 1569.87,1375.43 1572.04,1375.49 1574.21,1375.55 1576.38,1375.61 1578.55,1375.66 1580.72,1375.72 1582.88,1375.78 1585.05,1375.84 1587.22,1375.89 1589.39,1375.95 1591.56,1376 1593.73,1376.06 1595.9,1376.11 1598.07,1376.17 1600.23,1376.22 1602.4,1376.28 1604.57,1376.33 1606.74,1376.38 1608.91,1376.43 1611.08,1376.49 1613.25,1376.54 1615.41,1376.59 1617.58,1376.64 1619.75,1376.69 1621.92,1376.74 1624.09,1376.79 1626.26,1376.84 1628.43,1376.89 1630.6,1376.94 1632.76,1376.99 1634.93,1377.04 1637.1,1377.09 1639.27,1377.13 1641.44,1377.18 1643.61,1377.23 1645.78,1377.27 1647.94,1377.32 1650.11,1377.37 1652.28,1377.41 1654.45,1377.46 1656.62,1377.5 1658.79,1377.55 1660.96,1377.59 1663.13,1377.64 1665.29,1377.68 1667.46,1377.72 1669.63,1377.77 1671.8,1377.81 1673.97,1377.85 1676.14,1377.89 1678.31,1377.94 1680.47,1377.98 1682.64,1378.02 1684.81,1378.06 1686.98,1378.1 1689.15,1378.14 1691.32,1378.18 1693.49,1378.22 1695.65,1378.26 1697.82,1378.3 1699.99,1378.34 1702.16,1378.38 1704.33,1378.42 1706.5,1378.45 1708.67,1378.49 1710.84,1378.53 1713,1378.57 1715.17,1378.61 1717.34,1378.64 1719.51,1378.68 1721.68,1378.72 1723.85,1378.75 1726.02,1378.79 1728.18,1378.82 1730.35,1378.86 1732.52,1378.89 1734.69,1378.93 1736.86,1378.96 1739.03,1379 1741.2,1379.03 1743.37,1379.07 1745.53,1379.1 1747.7,1379.13 1749.87,1379.17 1752.04,1379.2 1754.21,1379.23 1756.38,1379.27 1758.55,1379.3 1760.71,1379.33 1762.88,1379.36 1765.05,1379.4 1767.22,1379.43 1769.39,1379.46 1771.56,1379.49 1773.73,1379.52 1775.89,1379.55 1778.06,1379.58 1780.23,1379.61 1782.4,1379.64 1784.57,1379.67 1786.74,1379.7 1788.91,1379.73 1791.08,1379.76 1793.24,1379.79 1795.41,1379.82 1797.58,1379.85 1799.75,1379.88 1801.92,1379.91 1804.09,1379.93 1806.26,1379.96 1808.42,1379.99 1810.59,1380.02 1812.76,1380.04 1814.93,1380.07 1817.1,1380.1 1819.27,1380.13 1821.44,1380.15 1823.61,1380.18 1825.77,1380.21 1827.94,1380.23 1830.11,1380.26 1832.28,1380.28 1834.45,1380.31 1836.62,1380.33 1838.79,1380.36 1840.95,1380.39 1843.12,1380.41 1845.29,1380.43 1847.46,1380.46 1849.63,1380.48 1851.8,1380.51 1853.97,1380.53 1856.13,1380.56 1858.3,1380.58 1860.47,1380.6 1862.64,1380.63 1864.81,1380.65 1866.98,1380.67 1869.15,1380.7 1871.32,1380.72 1873.48,1380.74 1875.65,1380.76 1877.82,1380.79 1879.99,1380.81 1882.16,1380.83 1884.33,1380.85 1886.5,1380.88 1888.66,1380.9 1890.83,1380.92 1893,1380.94 1895.17,1380.96 1897.34,1380.98 1899.51,1381 1901.68,1381.02 1903.85,1381.04 1906.01,1381.07 1908.18,1381.09 1910.35,1381.11 1912.52,1381.13 1914.69,1381.15 1916.86,1381.17 1919.03,1381.19 1921.19,1381.21 1923.36,1381.22 1925.53,1381.24 1927.7,1381.26 1929.87,1381.28 1932.04,1381.3 1934.21,1381.32 1936.37,1381.34 1938.54,1381.36 1940.71,1381.38 1942.88,1381.39 1945.05,1381.41 1947.22,1381.43 1949.39,1381.45 1951.56,1381.47 1953.72,1381.48 1955.89,1381.5 1958.06,1381.52 1960.23,1381.54 1962.4,1381.55 1964.57,1381.57 1966.74,1381.59 1968.9,1381.6 1971.07,1381.62 1973.24,1381.64 1975.41,1381.65 1977.58,1381.67 1979.75,1381.69 1981.92,1381.7 1984.09,1381.72 1986.25,1381.74 1988.42,1381.75 1990.59,1381.77 1992.76,1381.78 1994.93,1381.8 1997.1,1381.81 1999.27,1381.83 2001.43,1381.84 2003.6,1381.86 2005.77,1381.88 2007.94,1381.89 2010.11,1381.91 2012.28,1381.92 2014.45,1381.93 2016.62,1381.95 2018.78,1381.96 2020.95,1381.98 2023.12,1381.99 2025.29,1382.01 2027.46,1382.02 2029.63,1382.04 2031.8,1382.05 2033.96,1382.06 2036.13,1382.08 2038.3,1382.09 2040.47,1382.1 2042.64,1382.12 2044.81,1382.13 2046.98,1382.14 2049.14,1382.16 2051.31,1382.17 2053.48,1382.18 2055.65,1382.2 2057.82,1382.21 2059.99,1382.22 2062.16,1382.24 2064.33,1382.25 2066.49,1382.26 2068.66,1382.27 2070.83,1382.29 2073,1382.3 2075.17,1382.31 2077.34,1382.32 2079.51,1382.34 2081.67,1382.35 2083.84,1382.36 2086.01,1382.37 2088.18,1382.38 2090.35,1382.39 2092.52,1382.41 2094.69,1382.42 2096.86,1382.43 2099.02,1382.44 2101.19,1382.45 2103.36,1382.46 2105.53,1382.47 2107.7,1382.49 2109.87,1382.5 2112.04,1382.51 2114.2,1382.52 2116.37,1382.53 2118.54,1382.54 2120.71,1382.55 2122.88,1382.56 2125.05,1382.57 2127.22,1382.58 2129.38,1382.59 2131.55,1382.6 2133.72,1382.61 2135.89,1382.62 2138.06,1382.63 2140.23,1382.64 2142.4,1382.65 2144.57,1382.66 2146.73,1382.67 2148.9,1382.68 2151.07,1382.69 2153.24,1382.7 2155.41,1382.71 2157.58,1382.72 2159.75,1382.73 2161.91,1382.74 2164.08,1382.75 2166.25,1382.76 2168.42,1382.77 2170.59,1382.78 2172.76,1382.79 2174.93,1382.8 2177.1,1382.81 2179.26,1382.82 2181.43,1382.82 2183.6,1382.83 2185.77,1382.84 2187.94,1382.85 2190.11,1382.86 2192.28,1382.87 2194.44,1382.88 2196.61,1382.88 2198.78,1382.89 2200.95,1382.9 2203.12,1382.91 2205.29,1382.92 2207.46,1382.93 2209.62,1382.93 2211.79,1382.94 2213.96,1382.95 2216.13,1382.96 2218.3,1382.97 2220.47,1382.98 2222.64,1382.98 2224.81,1382.99 2226.97,1383 2229.14,1383.01 2231.31,1383.01 2233.48,1383.02 2235.65,1383.03 2237.82,1383.04 2239.99,1383.04 2242.15,1383.05 2244.32,1383.06 2246.49,1383.07 2248.66,1383.07 2250.83,1383.08 2253,1383.09 2255.17,1383.1 2257.34,1383.1 2259.5,1383.11 2261.67,1383.12 2263.84,1383.12 2266.01,1383.13 2268.18,1383.14 2270.35,1383.14 2272.52,1383.15 2274.68,1383.16 2276.85,1383.17 2279.02,1383.17 2281.19,1383.18 2283.36,1383.19 2285.53,1383.19 2287.7,1383.2 2289.87,1383.2 2292.03,1383.21 2294.2,1383.22 2296.37,1383.22 2298.54,1383.23 2300.71,1383.24 2302.88,1383.24 2305.05,1383.25 2307.21,1383.26 2309.38,1383.26 2311.55,1383.27 2313.72,1383.27 2315.89,1383.28 2318.06,1383.29 2320.23,1383.29 2322.39,1383.3 2324.56,1383.3 2326.73,1383.31 2328.9,1383.31 2331.07,1383.32 2333.24,1383.33 2335.41,1383.33 2337.58,1383.34 2339.74,1383.34 2341.91,1383.35 2344.08,1383.35 2346.25,1383.36 2348.42,1383.37 2350.59,1383.37 2352.76,1383.38 "/>
<path clip-path="url(#clip800)" d="M1804.49 248.629 L2280.54 248.629 L2280.54 93.1086 L1804.49 93.1086  Z" fill="#ffffff" fill-rule="evenodd" fill-opacity="1"/>
<polyline clip-path="url(#clip800)" style="stroke:#000000; stroke-linecap:round; stroke-linejoin:round; stroke-width:4; stroke-opacity:1; fill:none" points="1804.49,248.629 2280.54,248.629 2280.54,93.1086 1804.49,93.1086 1804.49,248.629 "/>
<polyline clip-path="url(#clip800)" style="stroke:#009af9; stroke-linecap:round; stroke-linejoin:round; stroke-width:4; stroke-opacity:1; fill:none" points="1828.57,144.949 1973,144.949 "/>
<path clip-path="url(#clip800)" d="M1997.07 136.303 L2001.58 136.303 L2009.69 158.062 L2017.79 136.303 L2022.3 136.303 L2012.58 162.229 L2006.79 162.229 L1997.07 136.303 Z" fill="#000000" fill-rule="nonzero" fill-opacity="1" /><path clip-path="url(#clip800)" d="M2029.59 158.293 L2037.23 158.293 L2037.23 131.928 L2028.92 133.595 L2028.92 129.335 L2037.19 127.669 L2041.86 127.669 L2041.86 158.293 L2049.5 158.293 L2049.5 162.229 L2029.59 162.229 L2029.59 158.293 Z" fill="#000000" fill-rule="nonzero" fill-opacity="1" /><path clip-path="url(#clip800)" d="M2067.6 145.585 L2067.6 152.807 L2075.73 152.807 L2075.73 155.006 L2067.6 155.006 L2067.6 162.229 L2065.17 162.229 L2065.17 155.006 L2057.05 155.006 L2057.05 152.807 L2065.17 152.807 L2065.17 145.585 L2067.6 145.585 Z" fill="#000000" fill-rule="nonzero" fill-opacity="1" /><path clip-path="url(#clip800)" d="M2099.89 137.067 L2099.89 141.094 Q2098.09 140.169 2096.14 139.706 Q2094.2 139.243 2092.12 139.243 Q2088.95 139.243 2087.35 140.215 Q2085.77 141.187 2085.77 143.131 Q2085.77 144.613 2086.91 145.469 Q2088.04 146.303 2091.47 147.067 L2092.93 147.391 Q2097.46 148.363 2099.36 150.145 Q2101.28 151.905 2101.28 155.076 Q2101.28 158.687 2098.41 160.793 Q2095.57 162.9 2090.57 162.9 Q2088.48 162.9 2086.21 162.483 Q2083.97 162.09 2081.47 161.28 L2081.47 156.881 Q2083.83 158.108 2086.12 158.733 Q2088.41 159.335 2090.66 159.335 Q2093.67 159.335 2095.29 158.317 Q2096.91 157.275 2096.91 155.4 Q2096.91 153.664 2095.73 152.738 Q2094.57 151.812 2090.61 150.956 L2089.13 150.608 Q2085.17 149.775 2083.41 148.062 Q2081.65 146.326 2081.65 143.317 Q2081.65 139.659 2084.25 137.669 Q2086.84 135.678 2091.61 135.678 Q2093.97 135.678 2096.05 136.025 Q2098.14 136.372 2099.89 137.067 Z" fill="#000000" fill-rule="nonzero" fill-opacity="1" /><path clip-path="url(#clip800)" d="M2112.28 128.942 L2112.28 136.303 L2121.05 136.303 L2121.05 139.613 L2112.28 139.613 L2112.28 153.687 Q2112.28 156.858 2113.14 157.761 Q2114.01 158.664 2116.68 158.664 L2121.05 158.664 L2121.05 162.229 L2116.68 162.229 Q2111.75 162.229 2109.87 160.4 Q2108 158.548 2108 153.687 L2108 139.613 L2104.87 139.613 L2104.87 136.303 L2108 136.303 L2108 128.942 L2112.28 128.942 Z" fill="#000000" fill-rule="nonzero" fill-opacity="1" /><path clip-path="url(#clip800)" d="M2136.7 139.289 Q2133.27 139.289 2131.28 141.974 Q2129.29 144.636 2129.29 149.289 Q2129.29 153.942 2131.26 156.627 Q2133.25 159.289 2136.7 159.289 Q2140.1 159.289 2142.09 156.604 Q2144.08 153.918 2144.08 149.289 Q2144.08 144.682 2142.09 141.997 Q2140.1 139.289 2136.7 139.289 M2136.7 135.678 Q2142.26 135.678 2145.43 139.289 Q2148.6 142.9 2148.6 149.289 Q2148.6 155.655 2145.43 159.289 Q2142.26 162.9 2136.7 162.9 Q2131.12 162.9 2127.95 159.289 Q2124.8 155.655 2124.8 149.289 Q2124.8 142.9 2127.95 139.289 Q2131.12 135.678 2136.7 135.678 Z" fill="#000000" fill-rule="nonzero" fill-opacity="1" /><path clip-path="url(#clip800)" d="M2170.68 140.284 Q2169.96 139.868 2169.11 139.682 Q2168.27 139.474 2167.26 139.474 Q2163.64 139.474 2161.7 141.835 Q2159.78 144.173 2159.78 148.571 L2159.78 162.229 L2155.5 162.229 L2155.5 136.303 L2159.78 136.303 L2159.78 140.331 Q2161.12 137.969 2163.27 136.835 Q2165.43 135.678 2168.51 135.678 Q2168.95 135.678 2169.48 135.747 Q2170.01 135.794 2170.66 135.909 L2170.68 140.284 Z" fill="#000000" fill-rule="nonzero" fill-opacity="1" /><path clip-path="url(#clip800)" d="M2186.93 149.196 Q2181.77 149.196 2179.78 150.377 Q2177.79 151.557 2177.79 154.405 Q2177.79 156.673 2179.27 158.016 Q2180.77 159.335 2183.34 159.335 Q2186.88 159.335 2189.01 156.835 Q2191.17 154.312 2191.17 150.145 L2191.17 149.196 L2186.93 149.196 M2195.43 147.437 L2195.43 162.229 L2191.17 162.229 L2191.17 158.293 Q2189.71 160.655 2187.53 161.789 Q2185.36 162.9 2182.21 162.9 Q2178.23 162.9 2175.87 160.678 Q2173.53 158.432 2173.53 154.682 Q2173.53 150.307 2176.45 148.085 Q2179.38 145.863 2185.2 145.863 L2191.17 145.863 L2191.17 145.446 Q2191.17 142.507 2189.22 140.909 Q2187.3 139.289 2183.81 139.289 Q2181.58 139.289 2179.48 139.821 Q2177.37 140.354 2175.43 141.419 L2175.43 137.483 Q2177.76 136.581 2179.96 136.141 Q2182.16 135.678 2184.25 135.678 Q2189.87 135.678 2192.65 138.594 Q2195.43 141.511 2195.43 147.437 Z" fill="#000000" fill-rule="nonzero" fill-opacity="1" /><path clip-path="url(#clip800)" d="M2221.26 148.965 Q2221.26 144.335 2219.34 141.789 Q2217.44 139.243 2213.99 139.243 Q2210.57 139.243 2208.64 141.789 Q2206.75 144.335 2206.75 148.965 Q2206.75 153.571 2208.64 156.118 Q2210.57 158.664 2213.99 158.664 Q2217.44 158.664 2219.34 156.118 Q2221.26 153.571 2221.26 148.965 M2225.52 159.011 Q2225.52 165.631 2222.58 168.849 Q2219.64 172.09 2213.57 172.09 Q2211.33 172.09 2209.34 171.742 Q2207.35 171.418 2205.47 170.724 L2205.47 166.58 Q2207.35 167.599 2209.18 168.085 Q2211.01 168.571 2212.9 168.571 Q2217.09 168.571 2219.18 166.372 Q2221.26 164.196 2221.26 159.775 L2221.26 157.668 Q2219.94 159.96 2217.88 161.094 Q2215.82 162.229 2212.95 162.229 Q2208.18 162.229 2205.26 158.594 Q2202.35 154.96 2202.35 148.965 Q2202.35 142.946 2205.26 139.312 Q2208.18 135.678 2212.95 135.678 Q2215.82 135.678 2217.88 136.812 Q2219.94 137.946 2221.26 140.238 L2221.26 136.303 L2225.52 136.303 L2225.52 159.011 Z" fill="#000000" fill-rule="nonzero" fill-opacity="1" /><path clip-path="url(#clip800)" d="M2256.47 148.201 L2256.47 150.284 L2236.88 150.284 Q2237.16 154.682 2239.52 156.997 Q2241.91 159.289 2246.14 159.289 Q2248.6 159.289 2250.89 158.687 Q2253.2 158.085 2255.47 156.881 L2255.47 160.909 Q2253.18 161.881 2250.77 162.391 Q2248.37 162.9 2245.89 162.9 Q2239.69 162.9 2236.05 159.289 Q2232.44 155.678 2232.44 149.52 Q2232.44 143.155 2235.87 139.428 Q2239.32 135.678 2245.15 135.678 Q2250.38 135.678 2253.41 139.057 Q2256.47 142.414 2256.47 148.201 M2252.21 146.951 Q2252.16 143.456 2250.24 141.372 Q2248.34 139.289 2245.19 139.289 Q2241.63 139.289 2239.48 141.303 Q2237.35 143.317 2237.02 146.974 L2252.21 146.951 Z" fill="#000000" fill-rule="nonzero" fill-opacity="1" /><polyline clip-path="url(#clip800)" style="stroke:#e26f46; stroke-linecap:round; stroke-linejoin:round; stroke-width:4; stroke-opacity:1; fill:none" points="1828.57,196.789 1973,196.789 "/>
<path clip-path="url(#clip800)" d="M1997.07 188.143 L2001.58 188.143 L2009.69 209.902 L2017.79 188.143 L2022.3 188.143 L2012.58 214.069 L2006.79 214.069 L1997.07 188.143 Z" fill="#000000" fill-rule="nonzero" fill-opacity="1" /><path clip-path="url(#clip800)" d="M2028.83 179.509 L2047.19 179.509 L2047.19 183.444 L2033.11 183.444 L2033.11 191.916 Q2034.13 191.569 2035.15 191.407 Q2036.17 191.222 2037.19 191.222 Q2042.97 191.222 2046.35 194.393 Q2049.73 197.564 2049.73 202.981 Q2049.73 208.559 2046.26 211.661 Q2042.79 214.74 2036.47 214.74 Q2034.29 214.74 2032.02 214.37 Q2029.78 213.999 2027.37 213.258 L2027.37 208.559 Q2029.46 209.694 2031.68 210.249 Q2033.9 210.805 2036.38 210.805 Q2040.38 210.805 2042.72 208.698 Q2045.06 206.592 2045.06 202.981 Q2045.06 199.37 2042.72 197.263 Q2040.38 195.157 2036.38 195.157 Q2034.5 195.157 2032.63 195.573 Q2030.77 195.99 2028.83 196.87 L2028.83 179.509 Z" fill="#000000" fill-rule="nonzero" fill-opacity="1" /><path clip-path="url(#clip800)" d="M2067.6 197.425 L2067.6 204.647 L2075.73 204.647 L2075.73 206.846 L2067.6 206.846 L2067.6 214.069 L2065.17 214.069 L2065.17 206.846 L2057.05 206.846 L2057.05 204.647 L2065.17 204.647 L2065.17 197.425 L2067.6 197.425 Z" fill="#000000" fill-rule="nonzero" fill-opacity="1" /><path clip-path="url(#clip800)" d="M2099.89 188.907 L2099.89 192.934 Q2098.09 192.009 2096.14 191.546 Q2094.2 191.083 2092.12 191.083 Q2088.95 191.083 2087.35 192.055 Q2085.77 193.027 2085.77 194.971 Q2085.77 196.453 2086.91 197.309 Q2088.04 198.143 2091.47 198.907 L2092.93 199.231 Q2097.46 200.203 2099.36 201.985 Q2101.28 203.745 2101.28 206.916 Q2101.28 210.527 2098.41 212.633 Q2095.57 214.74 2090.57 214.74 Q2088.48 214.74 2086.21 214.323 Q2083.97 213.93 2081.47 213.12 L2081.47 208.721 Q2083.83 209.948 2086.12 210.573 Q2088.41 211.175 2090.66 211.175 Q2093.67 211.175 2095.29 210.157 Q2096.91 209.115 2096.91 207.24 Q2096.91 205.504 2095.73 204.578 Q2094.57 203.652 2090.61 202.796 L2089.13 202.448 Q2085.17 201.615 2083.41 199.902 Q2081.65 198.166 2081.65 195.157 Q2081.65 191.499 2084.25 189.509 Q2086.84 187.518 2091.61 187.518 Q2093.97 187.518 2096.05 187.865 Q2098.14 188.212 2099.89 188.907 Z" fill="#000000" fill-rule="nonzero" fill-opacity="1" /><path clip-path="url(#clip800)" d="M2112.28 180.782 L2112.28 188.143 L2121.05 188.143 L2121.05 191.453 L2112.28 191.453 L2112.28 205.527 Q2112.28 208.698 2113.14 209.601 Q2114.01 210.504 2116.68 210.504 L2121.05 210.504 L2121.05 214.069 L2116.68 214.069 Q2111.75 214.069 2109.87 212.24 Q2108 210.388 2108 205.527 L2108 191.453 L2104.87 191.453 L2104.87 188.143 L2108 188.143 L2108 180.782 L2112.28 180.782 Z" fill="#000000" fill-rule="nonzero" fill-opacity="1" /><path clip-path="url(#clip800)" d="M2136.7 191.129 Q2133.27 191.129 2131.28 193.814 Q2129.29 196.476 2129.29 201.129 Q2129.29 205.782 2131.26 208.467 Q2133.25 211.129 2136.7 211.129 Q2140.1 211.129 2142.09 208.444 Q2144.08 205.758 2144.08 201.129 Q2144.08 196.522 2142.09 193.837 Q2140.1 191.129 2136.7 191.129 M2136.7 187.518 Q2142.26 187.518 2145.43 191.129 Q2148.6 194.74 2148.6 201.129 Q2148.6 207.495 2145.43 211.129 Q2142.26 214.74 2136.7 214.74 Q2131.12 214.74 2127.95 211.129 Q2124.8 207.495 2124.8 201.129 Q2124.8 194.74 2127.95 191.129 Q2131.12 187.518 2136.7 187.518 Z" fill="#000000" fill-rule="nonzero" fill-opacity="1" /><path clip-path="url(#clip800)" d="M2170.68 192.124 Q2169.96 191.708 2169.11 191.522 Q2168.27 191.314 2167.26 191.314 Q2163.64 191.314 2161.7 193.675 Q2159.78 196.013 2159.78 200.411 L2159.78 214.069 L2155.5 214.069 L2155.5 188.143 L2159.78 188.143 L2159.78 192.171 Q2161.12 189.809 2163.27 188.675 Q2165.43 187.518 2168.51 187.518 Q2168.95 187.518 2169.48 187.587 Q2170.01 187.634 2170.66 187.749 L2170.68 192.124 Z" fill="#000000" fill-rule="nonzero" fill-opacity="1" /><path clip-path="url(#clip800)" d="M2186.93 201.036 Q2181.77 201.036 2179.78 202.217 Q2177.79 203.397 2177.79 206.245 Q2177.79 208.513 2179.27 209.856 Q2180.77 211.175 2183.34 211.175 Q2186.88 211.175 2189.01 208.675 Q2191.17 206.152 2191.17 201.985 L2191.17 201.036 L2186.93 201.036 M2195.43 199.277 L2195.43 214.069 L2191.17 214.069 L2191.17 210.133 Q2189.71 212.495 2187.53 213.629 Q2185.36 214.74 2182.21 214.74 Q2178.23 214.74 2175.87 212.518 Q2173.53 210.272 2173.53 206.522 Q2173.53 202.147 2176.45 199.925 Q2179.38 197.703 2185.2 197.703 L2191.17 197.703 L2191.17 197.286 Q2191.17 194.347 2189.22 192.749 Q2187.3 191.129 2183.81 191.129 Q2181.58 191.129 2179.48 191.661 Q2177.37 192.194 2175.43 193.259 L2175.43 189.323 Q2177.76 188.421 2179.96 187.981 Q2182.16 187.518 2184.25 187.518 Q2189.87 187.518 2192.65 190.434 Q2195.43 193.351 2195.43 199.277 Z" fill="#000000" fill-rule="nonzero" fill-opacity="1" /><path clip-path="url(#clip800)" d="M2221.26 200.805 Q2221.26 196.175 2219.34 193.629 Q2217.44 191.083 2213.99 191.083 Q2210.57 191.083 2208.64 193.629 Q2206.75 196.175 2206.75 200.805 Q2206.75 205.411 2208.64 207.958 Q2210.57 210.504 2213.99 210.504 Q2217.44 210.504 2219.34 207.958 Q2221.26 205.411 2221.26 200.805 M2225.52 210.851 Q2225.52 217.471 2222.58 220.689 Q2219.64 223.93 2213.57 223.93 Q2211.33 223.93 2209.34 223.582 Q2207.35 223.258 2205.47 222.564 L2205.47 218.42 Q2207.35 219.439 2209.18 219.925 Q2211.01 220.411 2212.9 220.411 Q2217.09 220.411 2219.18 218.212 Q2221.26 216.036 2221.26 211.615 L2221.26 209.508 Q2219.94 211.8 2217.88 212.934 Q2215.82 214.069 2212.95 214.069 Q2208.18 214.069 2205.26 210.434 Q2202.35 206.8 2202.35 200.805 Q2202.35 194.786 2205.26 191.152 Q2208.18 187.518 2212.95 187.518 Q2215.82 187.518 2217.88 188.652 Q2219.94 189.786 2221.26 192.078 L2221.26 188.143 L2225.52 188.143 L2225.52 210.851 Z" fill="#000000" fill-rule="nonzero" fill-opacity="1" /><path clip-path="url(#clip800)" d="M2256.47 200.041 L2256.47 202.124 L2236.88 202.124 Q2237.16 206.522 2239.52 208.837 Q2241.91 211.129 2246.14 211.129 Q2248.6 211.129 2250.89 210.527 Q2253.2 209.925 2255.47 208.721 L2255.47 212.749 Q2253.18 213.721 2250.77 214.231 Q2248.37 214.74 2245.89 214.74 Q2239.69 214.74 2236.05 211.129 Q2232.44 207.518 2232.44 201.36 Q2232.44 194.995 2235.87 191.268 Q2239.32 187.518 2245.15 187.518 Q2250.38 187.518 2253.41 190.897 Q2256.47 194.254 2256.47 200.041 M2252.21 198.791 Q2252.16 195.296 2250.24 193.212 Q2248.34 191.129 2245.19 191.129 Q2241.63 191.129 2239.48 193.143 Q2237.35 195.157 2237.02 198.814 L2252.21 198.791 Z" fill="#000000" fill-rule="nonzero" fill-opacity="1" /></svg>
