<?xml version="1.0" encoding="utf-8"?>
<svg xmlns="http://www.w3.org/2000/svg" xmlns:xlink="http://www.w3.org/1999/xlink" width="600" height="400" viewBox="0 0 2400 1600">
<defs>
  <clipPath id="clip190">
    <rect x="0" y="0" width="2400" height="1600"/>
  </clipPath>
</defs>
<path clip-path="url(#clip190)" d="M0 1600 L2400 1600 L2400 0 L0 0  Z" fill="#ffffff" fill-rule="evenodd" fill-opacity="1"/>
<defs>
  <clipPath id="clip191">
    <rect x="480" y="0" width="1681" height="1600"/>
  </clipPath>
</defs>
<path clip-path="url(#clip190)" d="M194.422 1423.18 L2352.76 1423.18 L2352.76 47.2441 L194.422 47.2441  Z" fill="#ffffff" fill-rule="evenodd" fill-opacity="1"/>
<defs>
  <clipPath id="clip192">
    <rect x="194" y="47" width="2159" height="1377"/>
  </clipPath>
</defs>
<polyline clip-path="url(#clip192)" style="stroke:#000000; stroke-linecap:round; stroke-linejoin:round; stroke-width:2; stroke-opacity:0.1; fill:none" points="194.422,1423.18 194.422,47.2441 "/>
<polyline clip-path="url(#clip192)" style="stroke:#000000; stroke-linecap:round; stroke-linejoin:round; stroke-width:2; stroke-opacity:0.1; fill:none" points="734.006,1423.18 734.006,47.2441 "/>
<polyline clip-path="url(#clip192)" style="stroke:#000000; stroke-linecap:round; stroke-linejoin:round; stroke-width:2; stroke-opacity:0.1; fill:none" points="1273.59,1423.18 1273.59,47.2441 "/>
<polyline clip-path="url(#clip192)" style="stroke:#000000; stroke-linecap:round; stroke-linejoin:round; stroke-width:2; stroke-opacity:0.1; fill:none" points="1813.17,1423.18 1813.17,47.2441 "/>
<polyline clip-path="url(#clip192)" style="stroke:#000000; stroke-linecap:round; stroke-linejoin:round; stroke-width:2; stroke-opacity:0.1; fill:none" points="2352.76,1423.18 2352.76,47.2441 "/>
<polyline clip-path="url(#clip192)" style="stroke:#000000; stroke-linecap:round; stroke-linejoin:round; stroke-width:2; stroke-opacity:0.1; fill:none" points="194.422,1373.9 2352.76,1373.9 "/>
<polyline clip-path="url(#clip192)" style="stroke:#000000; stroke-linecap:round; stroke-linejoin:round; stroke-width:2; stroke-opacity:0.1; fill:none" points="194.422,1026.26 2352.76,1026.26 "/>
<polyline clip-path="url(#clip192)" style="stroke:#000000; stroke-linecap:round; stroke-linejoin:round; stroke-width:2; stroke-opacity:0.1; fill:none" points="194.422,678.61 2352.76,678.61 "/>
<polyline clip-path="url(#clip192)" style="stroke:#000000; stroke-linecap:round; stroke-linejoin:round; stroke-width:2; stroke-opacity:0.1; fill:none" points="194.422,330.964 2352.76,330.964 "/>
<polyline clip-path="url(#clip190)" style="stroke:#000000; stroke-linecap:round; stroke-linejoin:round; stroke-width:4; stroke-opacity:1; fill:none" points="194.422,1423.18 2352.76,1423.18 "/>
<polyline clip-path="url(#clip190)" style="stroke:#000000; stroke-linecap:round; stroke-linejoin:round; stroke-width:4; stroke-opacity:1; fill:none" points="194.422,1423.18 194.422,1404.28 "/>
<polyline clip-path="url(#clip190)" style="stroke:#000000; stroke-linecap:round; stroke-linejoin:round; stroke-width:4; stroke-opacity:1; fill:none" points="734.006,1423.18 734.006,1404.28 "/>
<polyline clip-path="url(#clip190)" style="stroke:#000000; stroke-linecap:round; stroke-linejoin:round; stroke-width:4; stroke-opacity:1; fill:none" points="1273.59,1423.18 1273.59,1404.28 "/>
<polyline clip-path="url(#clip190)" style="stroke:#000000; stroke-linecap:round; stroke-linejoin:round; stroke-width:4; stroke-opacity:1; fill:none" points="1813.17,1423.18 1813.17,1404.28 "/>
<polyline clip-path="url(#clip190)" style="stroke:#000000; stroke-linecap:round; stroke-linejoin:round; stroke-width:4; stroke-opacity:1; fill:none" points="2352.76,1423.18 2352.76,1404.28 "/>
<path clip-path="url(#clip190)" d="M171.806 1454.1 Q168.195 1454.1 166.367 1457.66 Q164.561 1461.2 164.561 1468.33 Q164.561 1475.44 166.367 1479.01 Q168.195 1482.55 171.806 1482.55 Q175.441 1482.55 177.246 1479.01 Q179.075 1475.44 179.075 1468.33 Q179.075 1461.2 177.246 1457.66 Q175.441 1454.1 171.806 1454.1 M171.806 1450.39 Q177.617 1450.39 180.672 1455 Q183.751 1459.58 183.751 1468.33 Q183.751 1477.06 180.672 1481.67 Q177.617 1486.25 171.806 1486.25 Q165.996 1486.25 162.918 1481.67 Q159.862 1477.06 159.862 1468.33 Q159.862 1459.58 162.918 1455 Q165.996 1450.39 171.806 1450.39 Z" fill="#000000" fill-rule="nonzero" fill-opacity="1" /><path clip-path="url(#clip190)" d="M191.968 1479.7 L196.853 1479.7 L196.853 1485.58 L191.968 1485.58 L191.968 1479.7 Z" fill="#000000" fill-rule="nonzero" fill-opacity="1" /><path clip-path="url(#clip190)" d="M217.038 1454.1 Q213.427 1454.1 211.598 1457.66 Q209.792 1461.2 209.792 1468.33 Q209.792 1475.44 211.598 1479.01 Q213.427 1482.55 217.038 1482.55 Q220.672 1482.55 222.478 1479.01 Q224.306 1475.44 224.306 1468.33 Q224.306 1461.2 222.478 1457.66 Q220.672 1454.1 217.038 1454.1 M217.038 1450.39 Q222.848 1450.39 225.903 1455 Q228.982 1459.58 228.982 1468.33 Q228.982 1477.06 225.903 1481.67 Q222.848 1486.25 217.038 1486.25 Q211.228 1486.25 208.149 1481.67 Q205.093 1477.06 205.093 1468.33 Q205.093 1459.58 208.149 1455 Q211.228 1450.39 217.038 1450.39 Z" fill="#000000" fill-rule="nonzero" fill-opacity="1" /><path clip-path="url(#clip190)" d="M711.888 1454.1 Q708.277 1454.1 706.448 1457.66 Q704.642 1461.2 704.642 1468.33 Q704.642 1475.44 706.448 1479.01 Q708.277 1482.55 711.888 1482.55 Q715.522 1482.55 717.327 1479.01 Q719.156 1475.44 719.156 1468.33 Q719.156 1461.2 717.327 1457.66 Q715.522 1454.1 711.888 1454.1 M711.888 1450.39 Q717.698 1450.39 720.753 1455 Q723.832 1459.58 723.832 1468.33 Q723.832 1477.06 720.753 1481.67 Q717.698 1486.25 711.888 1486.25 Q706.077 1486.25 702.999 1481.67 Q699.943 1477.06 699.943 1468.33 Q699.943 1459.58 702.999 1455 Q706.077 1450.39 711.888 1450.39 Z" fill="#000000" fill-rule="nonzero" fill-opacity="1" /><path clip-path="url(#clip190)" d="M732.05 1479.7 L736.934 1479.7 L736.934 1485.58 L732.05 1485.58 L732.05 1479.7 Z" fill="#000000" fill-rule="nonzero" fill-opacity="1" /><path clip-path="url(#clip190)" d="M747.165 1451.02 L765.522 1451.02 L765.522 1454.96 L751.448 1454.96 L751.448 1463.43 Q752.466 1463.08 753.485 1462.92 Q754.503 1462.73 755.522 1462.73 Q761.309 1462.73 764.688 1465.9 Q768.068 1469.08 768.068 1474.49 Q768.068 1480.07 764.596 1483.17 Q761.123 1486.25 754.804 1486.25 Q752.628 1486.25 750.36 1485.88 Q748.114 1485.51 745.707 1484.77 L745.707 1480.07 Q747.79 1481.2 750.012 1481.76 Q752.235 1482.32 754.711 1482.32 Q758.716 1482.32 761.054 1480.21 Q763.392 1478.1 763.392 1474.49 Q763.392 1470.88 761.054 1468.77 Q758.716 1466.67 754.711 1466.67 Q752.836 1466.67 750.961 1467.08 Q749.11 1467.5 747.165 1468.38 L747.165 1451.02 Z" fill="#000000" fill-rule="nonzero" fill-opacity="1" /><path clip-path="url(#clip190)" d="M1240.74 1481.64 L1248.38 1481.64 L1248.38 1455.28 L1240.07 1456.95 L1240.07 1452.69 L1248.33 1451.02 L1253.01 1451.02 L1253.01 1481.64 L1260.65 1481.64 L1260.65 1485.58 L1240.74 1485.58 L1240.74 1481.64 Z" fill="#000000" fill-rule="nonzero" fill-opacity="1" /><path clip-path="url(#clip190)" d="M1270.09 1479.7 L1274.98 1479.7 L1274.98 1485.58 L1270.09 1485.58 L1270.09 1479.7 Z" fill="#000000" fill-rule="nonzero" fill-opacity="1" /><path clip-path="url(#clip190)" d="M1295.16 1454.1 Q1291.55 1454.1 1289.72 1457.66 Q1287.92 1461.2 1287.92 1468.33 Q1287.92 1475.44 1289.72 1479.01 Q1291.55 1482.55 1295.16 1482.55 Q1298.8 1482.55 1300.6 1479.01 Q1302.43 1475.44 1302.43 1468.33 Q1302.43 1461.2 1300.6 1457.66 Q1298.8 1454.1 1295.16 1454.1 M1295.16 1450.39 Q1300.97 1450.39 1304.03 1455 Q1307.11 1459.58 1307.11 1468.33 Q1307.11 1477.06 1304.03 1481.67 Q1300.97 1486.25 1295.16 1486.25 Q1289.35 1486.25 1286.27 1481.67 Q1283.22 1477.06 1283.22 1468.33 Q1283.22 1459.58 1286.27 1455 Q1289.35 1450.39 1295.16 1450.39 Z" fill="#000000" fill-rule="nonzero" fill-opacity="1" /><path clip-path="url(#clip190)" d="M1780.82 1481.64 L1788.46 1481.64 L1788.46 1455.28 L1780.15 1456.95 L1780.15 1452.69 L1788.42 1451.02 L1793.09 1451.02 L1793.09 1481.64 L1800.73 1481.64 L1800.73 1485.58 L1780.82 1485.58 L1780.82 1481.64 Z" fill="#000000" fill-rule="nonzero" fill-opacity="1" /><path clip-path="url(#clip190)" d="M1810.17 1479.7 L1815.06 1479.7 L1815.06 1485.58 L1810.17 1485.58 L1810.17 1479.7 Z" fill="#000000" fill-rule="nonzero" fill-opacity="1" /><path clip-path="url(#clip190)" d="M1825.29 1451.02 L1843.65 1451.02 L1843.65 1454.96 L1829.57 1454.96 L1829.57 1463.43 Q1830.59 1463.08 1831.61 1462.92 Q1832.63 1462.73 1833.65 1462.73 Q1839.43 1462.73 1842.81 1465.9 Q1846.19 1469.08 1846.19 1474.49 Q1846.19 1480.07 1842.72 1483.17 Q1839.25 1486.25 1832.93 1486.25 Q1830.75 1486.25 1828.48 1485.88 Q1826.24 1485.51 1823.83 1484.77 L1823.83 1480.07 Q1825.92 1481.2 1828.14 1481.76 Q1830.36 1482.32 1832.84 1482.32 Q1836.84 1482.32 1839.18 1480.21 Q1841.52 1478.1 1841.52 1474.49 Q1841.52 1470.88 1839.18 1468.77 Q1836.84 1466.67 1832.84 1466.67 Q1830.96 1466.67 1829.09 1467.08 Q1827.23 1467.5 1825.29 1468.38 L1825.29 1451.02 Z" fill="#000000" fill-rule="nonzero" fill-opacity="1" /><path clip-path="url(#clip190)" d="M2323.99 1481.64 L2340.31 1481.64 L2340.31 1485.58 L2318.37 1485.58 L2318.37 1481.64 Q2321.03 1478.89 2325.61 1474.26 Q2330.22 1469.61 2331.4 1468.27 Q2333.65 1465.74 2334.53 1464.01 Q2335.43 1462.25 2335.43 1460.56 Q2335.43 1457.8 2333.49 1456.07 Q2331.56 1454.33 2328.46 1454.33 Q2326.26 1454.33 2323.81 1455.09 Q2321.38 1455.86 2318.6 1457.41 L2318.6 1452.69 Q2321.43 1451.55 2323.88 1450.97 Q2326.33 1450.39 2328.37 1450.39 Q2333.74 1450.39 2336.93 1453.08 Q2340.13 1455.77 2340.13 1460.26 Q2340.13 1462.39 2339.32 1464.31 Q2338.53 1466.2 2336.42 1468.8 Q2335.85 1469.47 2332.74 1472.69 Q2329.64 1475.88 2323.99 1481.64 Z" fill="#000000" fill-rule="nonzero" fill-opacity="1" /><path clip-path="url(#clip190)" d="M2350.13 1479.7 L2355.01 1479.7 L2355.01 1485.58 L2350.13 1485.58 L2350.13 1479.7 Z" fill="#000000" fill-rule="nonzero" fill-opacity="1" /><path clip-path="url(#clip190)" d="M2375.2 1454.1 Q2371.59 1454.1 2369.76 1457.66 Q2367.95 1461.2 2367.95 1468.33 Q2367.95 1475.44 2369.76 1479.01 Q2371.59 1482.55 2375.2 1482.55 Q2378.83 1482.55 2380.64 1479.01 Q2382.47 1475.44 2382.47 1468.33 Q2382.47 1461.2 2380.64 1457.66 Q2378.83 1454.1 2375.2 1454.1 M2375.2 1450.39 Q2381.01 1450.39 2384.06 1455 Q2387.14 1459.58 2387.14 1468.33 Q2387.14 1477.06 2384.06 1481.67 Q2381.01 1486.25 2375.2 1486.25 Q2369.39 1486.25 2366.31 1481.67 Q2363.25 1477.06 2363.25 1468.33 Q2363.25 1459.58 2366.31 1455 Q2369.39 1450.39 2375.2 1450.39 Z" fill="#000000" fill-rule="nonzero" fill-opacity="1" /><path clip-path="url(#clip190)" d="M1272.65 1522.27 L1272.65 1532.4 L1284.71 1532.4 L1284.71 1536.95 L1272.65 1536.95 L1272.65 1556.3 Q1272.65 1560.66 1273.83 1561.9 Q1275.04 1563.14 1278.7 1563.14 L1284.71 1563.14 L1284.71 1568.04 L1278.7 1568.04 Q1271.92 1568.04 1269.34 1565.53 Q1266.76 1562.98 1266.76 1556.3 L1266.76 1536.95 L1262.46 1536.95 L1262.46 1532.4 L1266.76 1532.4 L1266.76 1522.27 L1272.65 1522.27 Z" fill="#000000" fill-rule="nonzero" fill-opacity="1" /><polyline clip-path="url(#clip190)" style="stroke:#000000; stroke-linecap:round; stroke-linejoin:round; stroke-width:4; stroke-opacity:1; fill:none" points="194.422,1423.18 194.422,47.2441 "/>
<polyline clip-path="url(#clip190)" style="stroke:#000000; stroke-linecap:round; stroke-linejoin:round; stroke-width:4; stroke-opacity:1; fill:none" points="194.422,1373.9 213.32,1373.9 "/>
<polyline clip-path="url(#clip190)" style="stroke:#000000; stroke-linecap:round; stroke-linejoin:round; stroke-width:4; stroke-opacity:1; fill:none" points="194.422,1026.26 213.32,1026.26 "/>
<polyline clip-path="url(#clip190)" style="stroke:#000000; stroke-linecap:round; stroke-linejoin:round; stroke-width:4; stroke-opacity:1; fill:none" points="194.422,678.61 213.32,678.61 "/>
<polyline clip-path="url(#clip190)" style="stroke:#000000; stroke-linecap:round; stroke-linejoin:round; stroke-width:4; stroke-opacity:1; fill:none" points="194.422,330.964 213.32,330.964 "/>
<path clip-path="url(#clip190)" d="M51.5708 1374.35 L81.2466 1374.35 L81.2466 1378.29 L51.5708 1378.29 L51.5708 1374.35 Z" fill="#000000" fill-rule="nonzero" fill-opacity="1" /><path clip-path="url(#clip190)" d="M101.339 1359.7 Q97.728 1359.7 95.8993 1363.27 Q94.0937 1366.81 94.0937 1373.94 Q94.0937 1381.04 95.8993 1384.61 Q97.728 1388.15 101.339 1388.15 Q104.973 1388.15 106.779 1384.61 Q108.608 1381.04 108.608 1373.94 Q108.608 1366.81 106.779 1363.27 Q104.973 1359.7 101.339 1359.7 M101.339 1356 Q107.149 1356 110.205 1360.6 Q113.283 1365.19 113.283 1373.94 Q113.283 1382.66 110.205 1387.27 Q107.149 1391.85 101.339 1391.85 Q95.5289 1391.85 92.4502 1387.27 Q89.3947 1382.66 89.3947 1373.94 Q89.3947 1365.19 92.4502 1360.6 Q95.5289 1356 101.339 1356 Z" fill="#000000" fill-rule="nonzero" fill-opacity="1" /><path clip-path="url(#clip190)" d="M121.501 1385.3 L126.385 1385.3 L126.385 1391.18 L121.501 1391.18 L121.501 1385.3 Z" fill="#000000" fill-rule="nonzero" fill-opacity="1" /><path clip-path="url(#clip190)" d="M146.57 1374.77 Q143.237 1374.77 141.316 1376.55 Q139.418 1378.34 139.418 1381.46 Q139.418 1384.59 141.316 1386.37 Q143.237 1388.15 146.57 1388.15 Q149.904 1388.15 151.825 1386.37 Q153.746 1384.56 153.746 1381.46 Q153.746 1378.34 151.825 1376.55 Q149.927 1374.77 146.57 1374.77 M141.894 1372.78 Q138.885 1372.04 137.195 1369.98 Q135.529 1367.92 135.529 1364.96 Q135.529 1360.81 138.469 1358.41 Q141.431 1356 146.57 1356 Q151.732 1356 154.672 1358.41 Q157.612 1360.81 157.612 1364.96 Q157.612 1367.92 155.922 1369.98 Q154.255 1372.04 151.269 1372.78 Q154.649 1373.57 156.524 1375.86 Q158.422 1378.15 158.422 1381.46 Q158.422 1386.48 155.343 1389.17 Q152.288 1391.85 146.57 1391.85 Q140.853 1391.85 137.774 1389.17 Q134.719 1386.48 134.719 1381.46 Q134.719 1378.15 136.617 1375.86 Q138.515 1373.57 141.894 1372.78 M140.181 1365.4 Q140.181 1368.08 141.848 1369.59 Q143.538 1371.09 146.57 1371.09 Q149.58 1371.09 151.269 1369.59 Q152.982 1368.08 152.982 1365.4 Q152.982 1362.71 151.269 1361.21 Q149.58 1359.7 146.57 1359.7 Q143.538 1359.7 141.848 1361.21 Q140.181 1362.71 140.181 1365.4 Z" fill="#000000" fill-rule="nonzero" fill-opacity="1" /><path clip-path="url(#clip190)" d="M51.3162 1026.71 L80.992 1026.71 L80.992 1030.64 L51.3162 1030.64 L51.3162 1026.71 Z" fill="#000000" fill-rule="nonzero" fill-opacity="1" /><path clip-path="url(#clip190)" d="M101.084 1012.06 Q97.4734 1012.06 95.6447 1015.62 Q93.8391 1019.16 93.8391 1026.29 Q93.8391 1033.4 95.6447 1036.96 Q97.4734 1040.5 101.084 1040.5 Q104.719 1040.5 106.524 1036.96 Q108.353 1033.4 108.353 1026.29 Q108.353 1019.16 106.524 1015.62 Q104.719 1012.06 101.084 1012.06 M101.084 1008.35 Q106.895 1008.35 109.95 1012.96 Q113.029 1017.54 113.029 1026.29 Q113.029 1035.02 109.95 1039.62 Q106.895 1044.21 101.084 1044.21 Q95.2743 1044.21 92.1956 1039.62 Q89.1401 1035.02 89.1401 1026.29 Q89.1401 1017.54 92.1956 1012.96 Q95.2743 1008.35 101.084 1008.35 Z" fill="#000000" fill-rule="nonzero" fill-opacity="1" /><path clip-path="url(#clip190)" d="M121.246 1037.66 L126.131 1037.66 L126.131 1043.54 L121.246 1043.54 L121.246 1037.66 Z" fill="#000000" fill-rule="nonzero" fill-opacity="1" /><path clip-path="url(#clip190)" d="M146.894 1024.39 Q143.746 1024.39 141.894 1026.55 Q140.066 1028.7 140.066 1032.45 Q140.066 1036.18 141.894 1038.35 Q143.746 1040.5 146.894 1040.5 Q150.043 1040.5 151.871 1038.35 Q153.723 1036.18 153.723 1032.45 Q153.723 1028.7 151.871 1026.55 Q150.043 1024.39 146.894 1024.39 M156.177 1009.74 L156.177 1014 Q154.417 1013.17 152.612 1012.73 Q150.83 1012.29 149.07 1012.29 Q144.441 1012.29 141.987 1015.41 Q139.556 1018.54 139.209 1024.86 Q140.575 1022.84 142.635 1021.78 Q144.695 1020.69 147.172 1020.69 Q152.38 1020.69 155.39 1023.86 Q158.422 1027.01 158.422 1032.45 Q158.422 1037.77 155.274 1040.99 Q152.126 1044.21 146.894 1044.21 Q140.899 1044.21 137.728 1039.62 Q134.556 1035.02 134.556 1026.29 Q134.556 1018.1 138.445 1013.24 Q142.334 1008.35 148.885 1008.35 Q150.644 1008.35 152.427 1008.7 Q154.232 1009.05 156.177 1009.74 Z" fill="#000000" fill-rule="nonzero" fill-opacity="1" /><path clip-path="url(#clip190)" d="M50.9921 679.061 L80.6679 679.061 L80.6679 682.997 L50.9921 682.997 L50.9921 679.061 Z" fill="#000000" fill-rule="nonzero" fill-opacity="1" /><path clip-path="url(#clip190)" d="M100.76 664.409 Q97.1493 664.409 95.3206 667.974 Q93.515 671.515 93.515 678.645 Q93.515 685.751 95.3206 689.316 Q97.1493 692.858 100.76 692.858 Q104.395 692.858 106.2 689.316 Q108.029 685.751 108.029 678.645 Q108.029 671.515 106.2 667.974 Q104.395 664.409 100.76 664.409 M100.76 660.705 Q106.571 660.705 109.626 665.312 Q112.705 669.895 112.705 678.645 Q112.705 687.372 109.626 691.978 Q106.571 696.561 100.76 696.561 Q94.9502 696.561 91.8715 691.978 Q88.816 687.372 88.816 678.645 Q88.816 669.895 91.8715 665.312 Q94.9502 660.705 100.76 660.705 Z" fill="#000000" fill-rule="nonzero" fill-opacity="1" /><path clip-path="url(#clip190)" d="M120.922 690.01 L125.807 690.01 L125.807 695.89 L120.922 695.89 L120.922 690.01 Z" fill="#000000" fill-rule="nonzero" fill-opacity="1" /><path clip-path="url(#clip190)" d="M148.839 665.404 L137.033 683.853 L148.839 683.853 L148.839 665.404 M147.612 661.33 L153.492 661.33 L153.492 683.853 L158.422 683.853 L158.422 687.742 L153.492 687.742 L153.492 695.89 L148.839 695.89 L148.839 687.742 L133.237 687.742 L133.237 683.228 L147.612 661.33 Z" fill="#000000" fill-rule="nonzero" fill-opacity="1" /><path clip-path="url(#clip190)" d="M53.0754 331.415 L82.7512 331.415 L82.7512 335.35 L53.0754 335.35 L53.0754 331.415 Z" fill="#000000" fill-rule="nonzero" fill-opacity="1" /><path clip-path="url(#clip190)" d="M102.844 316.762 Q99.2326 316.762 97.4039 320.327 Q95.5984 323.869 95.5984 330.998 Q95.5984 338.105 97.4039 341.67 Q99.2326 345.211 102.844 345.211 Q106.478 345.211 108.283 341.67 Q110.112 338.105 110.112 330.998 Q110.112 323.869 108.283 320.327 Q106.478 316.762 102.844 316.762 M102.844 313.059 Q108.654 313.059 111.709 317.665 Q114.788 322.248 114.788 330.998 Q114.788 339.725 111.709 344.332 Q108.654 348.915 102.844 348.915 Q97.0335 348.915 93.9549 344.332 Q90.8993 339.725 90.8993 330.998 Q90.8993 322.248 93.9549 317.665 Q97.0335 313.059 102.844 313.059 Z" fill="#000000" fill-rule="nonzero" fill-opacity="1" /><path clip-path="url(#clip190)" d="M123.006 342.364 L127.89 342.364 L127.89 348.244 L123.006 348.244 L123.006 342.364 Z" fill="#000000" fill-rule="nonzero" fill-opacity="1" /><path clip-path="url(#clip190)" d="M142.103 344.309 L158.422 344.309 L158.422 348.244 L136.478 348.244 L136.478 344.309 Q139.14 341.554 143.723 336.924 Q148.33 332.272 149.51 330.929 Q151.755 328.406 152.635 326.67 Q153.538 324.911 153.538 323.221 Q153.538 320.466 151.593 318.73 Q149.672 316.994 146.57 316.994 Q144.371 316.994 141.918 317.758 Q139.487 318.522 136.709 320.073 L136.709 315.35 Q139.533 314.216 141.987 313.637 Q144.441 313.059 146.478 313.059 Q151.848 313.059 155.042 315.744 Q158.237 318.429 158.237 322.92 Q158.237 325.049 157.427 326.971 Q156.64 328.869 154.533 331.461 Q153.955 332.133 150.853 335.35 Q147.751 338.545 142.103 344.309 Z" fill="#000000" fill-rule="nonzero" fill-opacity="1" /><polyline clip-path="url(#clip192)" style="stroke:#009af9; stroke-linecap:round; stroke-linejoin:round; stroke-width:4; stroke-opacity:1; fill:none" points="194.422,86.1857 196.583,90.5946 198.743,94.9596 200.904,99.2811 203.064,103.56 205.225,107.795 207.385,111.989 209.546,116.141 211.706,120.251 213.867,124.321 216.027,128.35 218.188,132.339 220.348,136.288 222.509,140.198 224.669,144.069 226.83,147.901 228.99,151.696 231.151,155.452 233.311,159.171 235.471,162.853 237.632,166.498 239.792,170.107 241.953,173.68 244.113,177.218 246.274,180.72 248.434,184.187 250.595,187.62 252.755,191.019 254.916,194.384 257.076,197.715 259.237,201.013 261.397,204.278 263.558,207.511 265.718,210.711 267.879,213.88 270.039,217.017 272.2,220.123 274.36,223.197 276.521,226.242 278.681,229.256 280.842,232.24 283.002,235.194 285.163,238.118 287.323,241.014 289.484,243.881 291.644,246.719 293.805,249.529 295.965,252.311 298.126,255.065 300.286,257.792 302.447,260.492 304.607,263.165 306.768,265.811 308.928,268.431 311.089,271.025 313.249,273.593 315.41,276.135 317.57,278.652 319.731,281.144 321.891,283.611 324.052,286.053 326.212,288.472 328.373,290.866 330.533,293.236 332.694,295.583 334.854,297.906 337.015,300.206 339.175,302.483 341.336,304.738 343.496,306.97 345.657,309.18 347.817,311.367 349.978,313.534 352.138,315.678 354.299,317.801 356.459,319.903 358.62,321.984 360.78,324.044 362.941,326.084 365.101,328.104 367.262,330.103 369.422,332.083 371.583,334.043 373.743,335.983 375.904,337.904 378.064,339.806 380.225,341.688 382.385,343.553 384.546,345.398 386.706,347.225 388.867,349.034 391.027,350.825 393.188,352.598 395.348,354.354 397.509,356.092 399.669,357.812 401.83,359.516 403.99,361.202 406.151,362.872 408.311,364.525 410.472,366.161 412.632,367.782 414.793,369.386 416.953,370.974 419.114,372.546 421.274,374.103 423.435,375.644 425.595,377.17 427.755,378.681 429.916,380.176 432.076,381.657 434.237,383.123 436.397,384.574 438.558,386.011 440.718,387.434 442.879,388.842 445.039,390.237 447.2,391.617 449.36,392.984 451.521,394.337 453.681,395.677 455.842,397.003 458.002,398.316 460.163,399.617 462.323,400.904 464.484,402.178 466.644,403.44 468.805,404.689 470.965,405.925 473.126,407.15 475.286,408.362 477.447,409.562 479.607,410.75 481.768,411.926 483.928,413.09 486.089,414.243 488.249,415.385 490.41,416.515 492.57,417.634 494.731,418.741 496.891,419.838 499.052,420.923 501.212,421.998 503.373,423.062 505.533,424.116 507.694,425.159 509.854,426.192 512.015,427.214 514.175,428.226 516.336,429.228 518.496,430.221 520.657,431.203 522.817,432.175 524.978,433.138 527.138,434.091 529.299,435.035 531.459,435.969 533.62,436.894 535.78,437.81 537.941,438.717 540.101,439.615 542.262,440.503 544.422,441.383 546.583,442.255 548.743,443.117 550.904,443.971 553.064,444.816 555.225,445.653 557.385,446.482 559.546,447.303 561.706,448.115 563.867,448.919 566.027,449.715 568.188,450.503 570.348,451.284 572.509,452.056 574.669,452.821 576.83,453.578 578.99,454.328 581.151,455.07 583.311,455.805 585.472,456.532 587.632,457.253 589.793,457.966 591.953,458.672 594.114,459.37 596.274,460.062 598.435,460.747 600.595,461.426 602.756,462.097 604.916,462.762 607.077,463.42 609.237,464.071 611.398,464.716 613.558,465.355 615.718,465.987 617.879,466.613 620.039,467.233 622.2,467.847 624.36,468.454 626.521,469.055 628.681,469.651 630.842,470.24 633.002,470.824 635.163,471.402 637.323,471.974 639.484,472.54 641.644,473.101 643.805,473.656 645.965,474.206 648.126,474.75 650.286,475.288 652.447,475.822 654.607,476.35 656.768,476.873 658.928,477.391 661.089,477.903 663.249,478.41 665.41,478.913 667.57,479.41 669.731,479.903 671.891,480.39 674.052,480.873 676.212,481.351 678.373,481.824 680.533,482.292 682.694,482.756 684.854,483.215 687.015,483.67 689.175,484.12 691.336,484.565 693.496,485.006 695.657,485.443 697.817,485.875 699.978,486.303 702.138,486.727 704.299,487.147 706.459,487.562 708.62,487.973 710.78,488.38 712.941,488.783 715.101,489.182 717.262,489.577 719.422,489.968 721.583,490.355 723.743,490.739 725.904,491.118 728.064,491.494 730.225,491.866 732.385,492.234 734.546,492.599 736.706,492.96 738.867,493.317 741.027,493.671 743.188,494.021 745.348,494.368 747.509,494.711 749.669,495.051 751.83,495.387 753.99,495.72 756.151,496.05 758.311,496.377 760.472,496.7 762.632,497.02 764.793,497.337 766.953,497.651 769.114,497.961 771.274,498.269 773.435,498.573 775.595,498.875 777.756,499.173 779.916,499.469 782.077,499.761 784.237,500.051 786.398,500.338 788.558,500.622 790.719,500.903 792.879,501.181 795.04,501.457 797.2,501.729 799.361,502 801.521,502.267 803.681,502.532 805.842,502.794 808.002,503.054 810.163,503.311 812.323,503.565 814.484,503.817 816.644,504.066 818.805,504.313 820.965,504.558 823.126,504.8 825.286,505.039 827.447,505.277 829.607,505.511 831.768,505.744 833.928,505.974 836.089,506.202 838.249,506.427 840.41,506.651 842.57,506.872 844.731,507.091 846.891,507.308 849.052,507.522 851.212,507.734 853.373,507.945 855.533,508.153 857.694,508.359 859.854,508.563 862.015,508.765 864.175,508.965 866.336,509.163 868.496,509.359 870.657,509.553 872.817,509.745 874.978,509.935 877.138,510.123 879.299,510.31 881.459,510.494 883.62,510.677 885.78,510.858 887.941,511.037 890.101,511.214 892.262,511.39 894.422,511.563 896.583,511.735 898.743,511.906 900.904,512.074 903.064,512.241 905.225,512.406 907.385,512.57 909.546,512.732 911.706,512.892 913.867,513.051 916.027,513.208 918.188,513.364 920.348,513.518 922.509,513.67 924.669,513.821 926.83,513.971 928.99,514.119 931.151,514.265 933.311,514.411 935.472,514.554 937.632,514.697 939.793,514.837 941.953,514.977 944.114,515.115 946.274,515.252 948.435,515.387 950.595,515.521 952.756,515.654 954.916,515.785 957.077,515.915 959.237,516.044 961.398,516.172 963.558,516.298 965.719,516.423 967.879,516.547 970.04,516.67 972.2,516.791 974.361,516.911 976.521,517.03 978.682,517.148 980.842,517.264 983.003,517.38 985.163,517.494 987.324,517.607 989.484,517.719 991.645,517.83 993.805,517.94 995.965,518.049 998.126,518.156 1000.29,518.263 1002.45,518.368 1004.61,518.473 1006.77,518.576 1008.93,518.678 1011.09,518.78 1013.25,518.88 1015.41,518.979 1017.57,519.078 1019.73,519.175 1021.89,519.271 1024.05,519.367 1026.21,519.461 1028.37,519.554 1030.53,519.647 1032.69,519.739 1034.85,519.829 1037.01,519.919 1039.18,520.008 1041.34,520.096 1043.5,520.183 1045.66,520.269 1047.82,520.354 1049.98,520.439 1052.14,520.523 1054.3,520.605 1056.46,520.687 1058.62,520.768 1060.78,520.849 1062.94,520.928 1065.1,521.007 1067.26,521.085 1069.42,521.162 1071.58,521.239 1073.74,521.314 1075.9,521.389 1078.06,521.463 1080.22,521.537 1082.39,521.609 1084.55,521.681 1086.71,521.752 1088.87,521.823 1091.03,521.893 1093.19,521.962 1095.35,522.03 1097.51,522.098 1099.67,522.165 1101.83,522.231 1103.99,522.297 1106.15,522.362 1108.31,522.427 1110.47,522.491 1112.63,522.554 1114.79,522.616 1116.95,522.678 1119.11,522.74 1121.27,522.801 1123.43,522.861 1125.6,522.92 1127.76,522.979 1129.92,523.038 1132.08,523.095 1134.24,523.153 1136.4,523.209 1138.56,523.266 1140.72,523.321 1142.88,523.376 1145.04,523.431 1147.2,523.485 1149.36,523.538 1151.52,523.591 1153.68,523.644 1155.84,523.696 1158,523.747 1160.16,523.798 1162.32,523.848 1164.48,523.898 1166.64,523.947 1168.81,523.996 1170.97,524.045 1173.13,524.093 1175.29,524.14 1177.45,524.187 1179.61,524.233 1181.77,524.279 1183.93,524.325 1186.09,524.37 1188.25,524.415 1190.41,524.459 1192.57,524.503 1194.73,524.546 1196.89,524.589 1199.05,524.631 1201.21,524.673 1203.37,524.715 1205.53,524.756 1207.69,524.797 1209.85,524.837 1212.01,524.877 1214.18,524.917 1216.34,524.956 1218.5,524.995 1220.66,525.033 1222.82,525.071 1224.98,525.109 1227.14,525.146 1229.3,525.183 1231.46,525.219 1233.62,525.255 1235.78,525.291 1237.94,525.326 1240.1,525.361 1242.26,525.396 1244.42,525.43 1246.58,525.464 1248.74,525.498 1250.9,525.531 1253.06,525.564 1255.22,525.596 1257.39,525.629 1259.55,525.661 1261.71,525.692 1263.87,525.724 1266.03,525.755 1268.19,525.785 1270.35,525.816 1272.51,525.846 1274.67,525.875 1276.83,525.905 1278.99,525.934 1281.15,525.963 1283.31,525.991 1285.47,526.02 1287.63,526.048 1289.79,526.075 1291.95,526.103 1294.11,526.13 1296.27,526.157 1298.43,526.184 1300.6,526.21 1302.76,526.236 1304.92,526.262 1307.08,526.288 1309.24,526.313 1311.4,526.338 1313.56,526.363 1315.72,526.387 1317.88,526.412 1320.04,526.436 1322.2,526.46 1324.36,526.484 1326.52,526.507 1328.68,526.53 1330.84,526.553 1333,526.576 1335.16,526.598 1337.32,526.621 1339.48,526.643 1341.64,526.665 1343.81,526.687 1345.97,526.708 1348.13,526.729 1350.29,526.75 1352.45,526.771 1354.61,526.792 1356.77,526.812 1358.93,526.833 1361.09,526.853 1363.25,526.873 1365.41,526.892 1367.57,526.912 1369.73,526.931 1371.89,526.95 1374.05,526.969 1376.21,526.988 1378.37,527.007 1380.53,527.025 1382.69,527.043 1384.85,527.061 1387.01,527.079 1389.18,527.097 1391.34,527.114 1393.5,527.131 1395.66,527.149 1397.82,527.166 1399.98,527.182 1402.14,527.199 1404.3,527.215 1406.46,527.232 1408.62,527.248 1410.78,527.264 1412.94,527.28 1415.1,527.295 1417.26,527.311 1419.42,527.326 1421.58,527.341 1423.74,527.356 1425.9,527.371 1428.06,527.386 1430.22,527.401 1432.39,527.415 1434.55,527.429 1436.71,527.443 1438.87,527.457 1441.03,527.471 1443.19,527.485 1445.35,527.498 1447.51,527.512 1449.67,527.525 1451.83,527.538 1453.99,527.551 1456.15,527.564 1458.31,527.577 1460.47,527.59 1462.63,527.602 1464.79,527.614 1466.95,527.627 1469.11,527.639 1471.27,527.651 1473.43,527.662 1475.6,527.674 1477.76,527.686 1479.92,527.697 1482.08,527.709 1484.24,527.72 1486.4,527.731 1488.56,527.742 1490.72,527.753 1492.88,527.764 1495.04,527.774 1497.2,527.785 1499.36,527.796 1501.52,527.806 1503.68,527.816 1505.84,527.826 1508,527.836 1510.16,527.846 1512.32,527.856 1514.48,527.866 1516.64,527.876 1518.81,527.885 1520.97,527.895 1523.13,527.904 1525.29,527.913 1527.45,527.922 1529.61,527.931 1531.77,527.94 1533.93,527.949 1536.09,527.958 1538.25,527.967 1540.41,527.975 1542.57,527.984 1544.73,527.992 1546.89,528.001 1549.05,528.009 1551.21,528.017 1553.37,528.025 1555.53,528.033 1557.69,528.041 1559.85,528.049 1562.01,528.057 1564.18,528.065 1566.34,528.073 1568.5,528.08 1570.66,528.088 1572.82,528.095 1574.98,528.103 1577.14,528.11 1579.3,528.117 1581.46,528.124 1583.62,528.132 1585.78,528.139 1587.94,528.146 1590.1,528.153 1592.26,528.159 1594.42,528.166 1596.58,528.173 1598.74,528.18 1600.9,528.186 1603.06,528.193 1605.22,528.199 1607.39,528.206 1609.55,528.212 1611.71,528.219 1613.87,528.225 1616.03,528.231 1618.19,528.237 1620.35,528.243 1622.51,528.249 1624.67,528.255 1626.83,528.261 1628.99,528.267 1631.15,528.273 1633.31,528.279 1635.47,528.284 1637.63,528.29 1639.79,528.295 1641.95,528.301 1644.11,528.306 1646.27,528.312 1648.43,528.317 1650.6,528.323 1652.76,528.328 1654.92,528.333 1657.08,528.338 1659.24,528.343 1661.4,528.348 1663.56,528.353 1665.72,528.358 1667.88,528.363 1670.04,528.368 1672.2,528.373 1674.36,528.378 1676.52,528.382 1678.68,528.387 1680.84,528.391 1683,528.396 1685.16,528.401 1687.32,528.405 1689.48,528.409 1691.64,528.414 1693.81,528.418 1695.97,528.422 1698.13,528.427 1700.29,528.431 1702.45,528.435 1704.61,528.439 1706.77,528.443 1708.93,528.447 1711.09,528.451 1713.25,528.455 1715.41,528.459 1717.57,528.463 1719.73,528.467 1721.89,528.47 1724.05,528.474 1726.21,528.478 1728.37,528.481 1730.53,528.485 1732.69,528.489 1734.85,528.492 1737.02,528.496 1739.18,528.499 1741.34,528.503 1743.5,528.506 1745.66,528.509 1747.82,528.513 1749.98,528.516 1752.14,528.519 1754.3,528.522 1756.46,528.525 1758.62,528.529 1760.78,528.532 1762.94,528.535 1765.1,528.538 1767.26,528.541 1769.42,528.544 1771.58,528.547 1773.74,528.55 1775.9,528.552 1778.06,528.555 1780.22,528.558 1782.39,528.561 1784.55,528.564 1786.71,528.566 1788.87,528.569 1791.03,528.572 1793.19,528.574 1795.35,528.577 1797.51,528.58 1799.67,528.582 1801.83,528.585 1803.99,528.587 1806.15,528.59 1808.31,528.592 1810.47,528.594 1812.63,528.597 1814.79,528.599 1816.95,528.602 1819.11,528.604 1821.27,528.606 1823.43,528.608 1825.6,528.611 1827.76,528.613 1829.92,528.615 1832.08,528.617 1834.24,528.619 1836.4,528.622 1838.56,528.624 1840.72,528.626 1842.88,528.628 1845.04,528.63 1847.2,528.632 1849.36,528.634 1851.52,528.636 1853.68,528.638 1855.84,528.64 1858,528.642 1860.16,528.644 1862.32,528.646 1864.48,528.648 1866.64,528.65 1868.81,528.652 1870.97,528.653 1873.13,528.655 1875.29,528.657 1877.45,528.659 1879.61,528.661 1881.77,528.663 1883.93,528.664 1886.09,528.666 1888.25,528.668 1890.41,528.67 1892.57,528.671 1894.73,528.673 1896.89,528.675 1899.05,528.676 1901.21,528.678 1903.37,528.68 1905.53,528.681 1907.69,528.683 1909.85,528.685 1912.02,528.686 1914.18,528.688 1916.34,528.689 1918.5,528.691 1920.66,528.693 1922.82,528.694 1924.98,528.696 1927.14,528.697 1929.3,528.699 1931.46,528.7 1933.62,528.701 1935.78,528.703 1937.94,528.704 1940.1,528.706 1942.26,528.707 1944.42,528.709 1946.58,528.71 1948.74,528.711 1950.9,528.713 1953.06,528.714 1955.22,528.715 1957.39,528.717 1959.55,528.718 1961.71,528.719 1963.87,528.721 1966.03,528.722 1968.19,528.723 1970.35,528.724 1972.51,528.726 1974.67,528.727 1976.83,528.728 1978.99,528.729 1981.15,528.73 1983.31,528.732 1985.47,528.733 1987.63,528.734 1989.79,528.735 1991.95,528.736 1994.11,528.737 1996.27,528.738 1998.43,528.739 2000.6,528.74 2002.76,528.742 2004.92,528.743 2007.08,528.744 2009.24,528.745 2011.4,528.746 2013.56,528.747 2015.72,528.748 2017.88,528.749 2020.04,528.75 2022.2,528.751 2024.36,528.752 2026.52,528.752 2028.68,528.753 2030.84,528.754 2033,528.755 2035.16,528.756 2037.32,528.757 2039.48,528.758 2041.64,528.759 2043.81,528.76 2045.97,528.76 2048.13,528.761 2050.29,528.762 2052.45,528.763 2054.61,528.764 2056.77,528.765 2058.93,528.765 2061.09,528.766 2063.25,528.767 2065.41,528.768 2067.57,528.768 2069.73,528.769 2071.89,528.77 2074.05,528.771 2076.21,528.771 2078.37,528.772 2080.53,528.773 2082.69,528.773 2084.85,528.774 2087.02,528.775 2089.18,528.775 2091.34,528.776 2093.5,528.777 2095.66,528.777 2097.82,528.778 2099.98,528.779 2102.14,528.779 2104.3,528.78 2106.46,528.78 2108.62,528.781 2110.78,528.782 2112.94,528.782 2115.1,528.783 2117.26,528.783 2119.42,528.784 2121.58,528.784 2123.74,528.785 2125.9,528.785 2128.06,528.786 2130.22,528.786 2132.39,528.787 2134.55,528.788 2136.71,528.788 2138.87,528.789 2141.03,528.789 2143.19,528.789 2145.35,528.79 2147.51,528.79 2149.67,528.791 2151.83,528.791 2153.99,528.792 2156.15,528.792 2158.31,528.793 2160.47,528.793 2162.63,528.794 2164.79,528.794 2166.95,528.794 2169.11,528.795 2171.27,528.795 2173.43,528.796 2175.6,528.796 2177.76,528.797 2179.92,528.797 2182.08,528.797 2184.24,528.798 2186.4,528.798 2188.56,528.799 2190.72,528.799 2192.88,528.799 2195.04,528.8 2197.2,528.8 2199.36,528.8 2201.52,528.801 2203.68,528.801 2205.84,528.802 2208,528.802 2210.16,528.802 2212.32,528.803 2214.48,528.803 2216.64,528.803 2218.81,528.804 2220.97,528.804 2223.13,528.804 2225.29,528.805 2227.45,528.805 2229.61,528.805 2231.77,528.806 2233.93,528.806 2236.09,528.806 2238.25,528.807 2240.41,528.807 2242.57,528.807 2244.73,528.808 2246.89,528.808 2249.05,528.809 2251.21,528.809 2253.37,528.809 2255.53,528.81 2257.69,528.81 2259.85,528.81 2262.02,528.81 2264.18,528.811 2266.34,528.811 2268.5,528.811 2270.66,528.812 2272.82,528.812 2274.98,528.812 2277.14,528.813 2279.3,528.813 2281.46,528.813 2283.62,528.814 2285.78,528.814 2287.94,528.814 2290.1,528.814 2292.26,528.815 2294.42,528.815 2296.58,528.815 2298.74,528.816 2300.9,528.816 2303.06,528.816 2305.23,528.816 2307.39,528.817 2309.55,528.817 2311.71,528.817 2313.87,528.817 2316.03,528.818 2318.19,528.818 2320.35,528.818 2322.51,528.818 2324.67,528.819 2326.83,528.819 2328.99,528.819 2331.15,528.819 2333.31,528.82 2335.47,528.82 2337.63,528.82 2339.79,528.82 2341.95,528.82 2344.11,528.821 2346.27,528.821 2348.43,528.821 2350.6,528.821 2352.76,528.821 "/>
<polyline clip-path="url(#clip192)" style="stroke:#e26f46; stroke-linecap:round; stroke-linejoin:round; stroke-width:4; stroke-opacity:1; fill:none" points="194.422,1384.24 196.583,1374.8 198.743,1365.47 200.904,1356.23 203.064,1347.09 205.225,1338.05 207.385,1329.1 209.546,1320.25 211.706,1311.49 213.867,1302.82 216.027,1294.25 218.188,1285.76 220.348,1277.37 222.509,1269.06 224.669,1260.84 226.83,1252.71 228.99,1244.66 231.151,1236.7 233.311,1228.83 235.471,1221.03 237.632,1213.32 239.792,1205.69 241.953,1198.15 244.113,1190.68 246.274,1183.29 248.434,1175.98 250.595,1168.75 252.755,1161.59 254.916,1154.51 257.076,1147.51 259.237,1140.58 261.397,1133.72 263.558,1126.93 265.718,1120.22 267.879,1113.58 270.039,1107.01 272.2,1100.51 274.36,1094.08 276.521,1087.72 278.681,1081.43 280.842,1075.2 283.002,1069.04 285.163,1062.94 287.323,1056.91 289.484,1050.94 291.644,1045.04 293.805,1039.2 295.965,1033.42 298.126,1027.71 300.286,1022.05 302.447,1016.46 304.607,1010.93 306.768,1005.45 308.928,1000.03 311.089,994.676 313.249,989.375 315.41,984.131 317.57,978.943 319.731,973.81 321.891,968.732 324.052,963.709 326.212,958.74 328.373,953.824 330.533,948.961 332.694,944.15 334.854,939.391 337.015,934.682 339.175,930.025 341.336,925.417 343.496,920.86 345.657,916.351 347.817,911.89 349.978,907.478 352.138,903.113 354.299,898.795 356.459,894.524 358.62,890.299 360.78,886.119 362.941,881.984 365.101,877.894 367.262,873.849 369.422,869.846 371.583,865.887 373.743,861.971 375.904,858.097 378.064,854.266 380.225,850.475 382.385,846.726 384.546,843.017 386.706,839.349 388.867,835.72 391.027,832.131 393.188,828.58 395.348,825.068 397.509,821.595 399.669,818.159 401.83,814.76 403.99,811.398 406.151,808.073 408.311,804.784 410.472,801.531 412.632,798.314 414.793,795.131 416.953,791.983 419.114,788.87 421.274,785.79 423.435,782.744 425.595,779.731 427.755,776.751 429.916,773.804 432.076,770.889 434.237,768.006 436.397,765.154 438.558,762.333 440.718,759.544 442.879,756.785 445.039,754.056 447.2,751.357 449.36,748.688 451.521,746.047 453.681,743.436 455.842,740.854 458.002,738.3 460.163,735.774 462.323,733.276 464.484,730.805 466.644,728.362 468.805,725.945 470.965,723.555 473.126,721.192 475.286,718.854 477.447,716.543 479.607,714.257 481.768,711.996 483.928,709.76 486.089,707.549 488.249,705.363 490.41,703.2 492.57,701.062 494.731,698.947 496.891,696.856 499.052,694.788 501.212,692.743 503.373,690.721 505.533,688.721 507.694,686.744 509.854,684.788 512.015,682.854 514.175,680.942 516.336,679.051 518.496,677.181 520.657,675.332 522.817,673.504 524.978,671.696 527.138,669.908 529.299,668.141 531.459,666.393 533.62,664.664 535.78,662.955 537.941,661.265 540.101,659.594 542.262,657.942 544.422,656.308 546.583,654.692 548.743,653.095 550.904,651.515 553.064,649.954 555.225,648.41 557.385,646.883 559.546,645.373 561.706,643.881 563.867,642.405 566.027,640.947 568.188,639.504 570.348,638.078 572.509,636.668 574.669,635.274 576.83,633.896 578.99,632.534 581.151,631.187 583.311,629.855 585.472,628.539 587.632,627.238 589.793,625.951 591.953,624.679 594.114,623.422 596.274,622.179 598.435,620.95 600.595,619.735 602.756,618.534 604.916,617.347 607.077,616.173 609.237,615.013 611.398,613.866 613.558,612.733 615.718,611.612 617.879,610.504 620.039,609.409 622.2,608.327 624.36,607.257 626.521,606.199 628.681,605.154 630.842,604.12 633.002,603.099 635.163,602.089 637.323,601.091 639.484,600.104 641.644,599.129 643.805,598.165 645.965,597.213 648.126,596.271 650.286,595.34 652.447,594.421 654.607,593.511 656.768,592.613 658.928,591.724 661.089,590.846 663.249,589.979 665.41,589.121 667.57,588.273 669.731,587.436 671.891,586.608 674.052,585.79 676.212,584.981 678.373,584.182 680.533,583.392 682.694,582.612 684.854,581.841 687.015,581.079 689.175,580.326 691.336,579.581 693.496,578.846 695.657,578.119 697.817,577.401 699.978,576.692 702.138,575.991 704.299,575.298 706.459,574.614 708.62,573.937 710.78,573.269 712.941,572.609 715.101,571.956 717.262,571.312 719.422,570.675 721.583,570.046 723.743,569.424 725.904,568.81 728.064,568.204 730.225,567.604 732.385,567.012 734.546,566.427 736.706,565.849 738.867,565.278 741.027,564.714 743.188,564.157 745.348,563.606 747.509,563.062 749.669,562.525 751.83,561.994 753.99,561.47 756.151,560.952 758.311,560.441 760.472,559.936 762.632,559.436 764.793,558.943 766.953,558.456 769.114,557.975 771.274,557.5 773.435,557.031 775.595,556.567 777.756,556.109 779.916,555.657 782.077,555.21 784.237,554.769 786.398,554.333 788.558,553.903 790.719,553.478 792.879,553.058 795.04,552.643 797.2,552.234 799.361,551.829 801.521,551.43 803.681,551.036 805.842,550.646 808.002,550.261 810.163,549.882 812.323,549.507 814.484,549.136 816.644,548.771 818.805,548.41 820.965,548.053 823.126,547.701 825.286,547.354 827.447,547.011 829.607,546.672 831.768,546.338 833.928,546.008 836.089,545.682 838.249,545.36 840.41,545.043 842.57,544.729 844.731,544.42 846.891,544.115 849.052,543.813 851.212,543.516 853.373,543.222 855.533,542.933 857.694,542.647 859.854,542.364 862.015,542.086 864.175,541.811 866.336,541.54 868.496,541.272 870.657,541.008 872.817,540.747 874.978,540.49 877.138,540.236 879.299,539.986 881.459,539.739 883.62,539.495 885.78,539.254 887.941,539.017 890.101,538.783 892.262,538.552 894.422,538.324 896.583,538.099 898.743,537.877 900.904,537.659 903.064,537.443 905.225,537.23 907.385,537.02 909.546,536.812 911.706,536.608 913.867,536.406 916.027,536.207 918.188,536.011 920.348,535.818 922.509,535.627 924.669,535.439 926.83,535.253 928.99,535.07 931.151,534.889 933.311,534.711 935.472,534.536 937.632,534.363 939.793,534.192 941.953,534.023 944.114,533.857 946.274,533.694 948.435,533.532 950.595,533.373 952.756,533.216 954.916,533.061 957.077,532.908 959.237,532.758 961.398,532.609 963.558,532.463 965.719,532.319 967.879,532.177 970.04,532.037 972.2,531.899 974.361,531.763 976.521,531.629 978.682,531.497 980.842,531.367 983.003,531.239 985.163,531.112 987.324,530.988 989.484,530.865 991.645,530.745 993.805,530.626 995.965,530.508 998.126,530.393 1000.29,530.279 1002.45,530.168 1004.61,530.057 1006.77,529.949 1008.93,529.842 1011.09,529.737 1013.25,529.633 1015.41,529.531 1017.57,529.431 1019.73,529.332 1021.89,529.235 1024.05,529.139 1026.21,529.045 1028.37,528.953 1030.53,528.862 1032.69,528.772 1034.85,528.684 1037.01,528.597 1039.18,528.511 1041.34,528.427 1043.5,528.345 1045.66,528.263 1047.82,528.184 1049.98,528.105 1052.14,528.028 1054.3,527.952 1056.46,527.877 1058.62,527.803 1060.78,527.731 1062.94,527.66 1065.1,527.59 1067.26,527.522 1069.42,527.454 1071.58,527.388 1073.74,527.323 1075.9,527.259 1078.06,527.196 1080.22,527.134 1082.39,527.074 1084.55,527.014 1086.71,526.955 1088.87,526.898 1091.03,526.841 1093.19,526.786 1095.35,526.731 1097.51,526.678 1099.67,526.625 1101.83,526.574 1103.99,526.523 1106.15,526.474 1108.31,526.425 1110.47,526.377 1112.63,526.33 1114.79,526.284 1116.95,526.239 1119.11,526.194 1121.27,526.151 1123.43,526.108 1125.6,526.066 1127.76,526.025 1129.92,525.985 1132.08,525.945 1134.24,525.907 1136.4,525.869 1138.56,525.831 1140.72,525.795 1142.88,525.759 1145.04,525.724 1147.2,525.69 1149.36,525.656 1151.52,525.624 1153.68,525.592 1155.84,525.56 1158,525.529 1160.16,525.499 1162.32,525.47 1164.48,525.441 1166.64,525.413 1168.81,525.386 1170.97,525.359 1173.13,525.333 1175.29,525.307 1177.45,525.282 1179.61,525.258 1181.77,525.234 1183.93,525.211 1186.09,525.189 1188.25,525.167 1190.41,525.145 1192.57,525.125 1194.73,525.104 1196.89,525.085 1199.05,525.065 1201.21,525.047 1203.37,525.029 1205.53,525.011 1207.69,524.994 1209.85,524.978 1212.01,524.962 1214.18,524.946 1216.34,524.931 1218.5,524.917 1220.66,524.903 1222.82,524.889 1224.98,524.876 1227.14,524.863 1229.3,524.851 1231.46,524.839 1233.62,524.828 1235.78,524.817 1237.94,524.807 1240.1,524.797 1242.26,524.787 1244.42,524.778 1246.58,524.769 1248.74,524.761 1250.9,524.753 1253.06,524.745 1255.22,524.738 1257.39,524.731 1259.55,524.724 1261.71,524.718 1263.87,524.712 1266.03,524.707 1268.19,524.702 1270.35,524.697 1272.51,524.693 1274.67,524.689 1276.83,524.685 1278.99,524.681 1281.15,524.678 1283.31,524.675 1285.47,524.673 1287.63,524.67 1289.79,524.668 1291.95,524.667 1294.11,524.665 1296.27,524.664 1298.43,524.663 1300.6,524.663 1302.76,524.662 1304.92,524.662 1307.08,524.662 1309.24,524.663 1311.4,524.663 1313.56,524.664 1315.72,524.665 1317.88,524.666 1320.04,524.668 1322.2,524.67 1324.36,524.672 1326.52,524.674 1328.68,524.676 1330.84,524.679 1333,524.681 1335.16,524.684 1337.32,524.687 1339.48,524.69 1341.64,524.694 1343.81,524.697 1345.97,524.701 1348.13,524.705 1350.29,524.709 1352.45,524.714 1354.61,524.718 1356.77,524.723 1358.93,524.727 1361.09,524.732 1363.25,524.737 1365.41,524.743 1367.57,524.748 1369.73,524.753 1371.89,524.759 1374.05,524.765 1376.21,524.771 1378.37,524.777 1380.53,524.783 1382.69,524.79 1384.85,524.796 1387.01,524.803 1389.18,524.81 1391.34,524.817 1393.5,524.824 1395.66,524.831 1397.82,524.838 1399.98,524.846 1402.14,524.853 1404.3,524.861 1406.46,524.869 1408.62,524.876 1410.78,524.884 1412.94,524.893 1415.1,524.901 1417.26,524.909 1419.42,524.918 1421.58,524.926 1423.74,524.935 1425.9,524.944 1428.06,524.952 1430.22,524.961 1432.39,524.97 1434.55,524.98 1436.71,524.989 1438.87,524.998 1441.03,525.008 1443.19,525.017 1445.35,525.027 1447.51,525.036 1449.67,525.046 1451.83,525.056 1453.99,525.066 1456.15,525.076 1458.31,525.086 1460.47,525.096 1462.63,525.106 1464.79,525.117 1466.95,525.127 1469.11,525.137 1471.27,525.148 1473.43,525.158 1475.6,525.169 1477.76,525.18 1479.92,525.191 1482.08,525.201 1484.24,525.212 1486.4,525.223 1488.56,525.234 1490.72,525.245 1492.88,525.256 1495.04,525.267 1497.2,525.278 1499.36,525.289 1501.52,525.301 1503.68,525.312 1505.84,525.323 1508,525.335 1510.16,525.346 1512.32,525.357 1514.48,525.369 1516.64,525.38 1518.81,525.392 1520.97,525.403 1523.13,525.415 1525.29,525.427 1527.45,525.438 1529.61,525.45 1531.77,525.461 1533.93,525.473 1536.09,525.485 1538.25,525.496 1540.41,525.508 1542.57,525.52 1544.73,525.532 1546.89,525.543 1549.05,525.555 1551.21,525.567 1553.37,525.579 1555.53,525.59 1557.69,525.602 1559.85,525.614 1562.01,525.626 1564.18,525.638 1566.34,525.649 1568.5,525.661 1570.66,525.673 1572.82,525.685 1574.98,525.696 1577.14,525.708 1579.3,525.72 1581.46,525.731 1583.62,525.743 1585.78,525.755 1587.94,525.767 1590.1,525.778 1592.26,525.79 1594.42,525.801 1596.58,525.813 1598.74,525.825 1600.9,525.836 1603.06,525.848 1605.22,525.859 1607.39,525.871 1609.55,525.882 1611.71,525.894 1613.87,525.905 1616.03,525.917 1618.19,525.928 1620.35,525.939 1622.51,525.951 1624.67,525.962 1626.83,525.974 1628.99,525.985 1631.15,525.996 1633.31,526.008 1635.47,526.019 1637.63,526.03 1639.79,526.042 1641.95,526.053 1644.11,526.064 1646.27,526.075 1648.43,526.087 1650.6,526.098 1652.76,526.109 1654.92,526.12 1657.08,526.132 1659.24,526.143 1661.4,526.154 1663.56,526.165 1665.72,526.176 1667.88,526.187 1670.04,526.198 1672.2,526.209 1674.36,526.22 1676.52,526.231 1678.68,526.242 1680.84,526.253 1683,526.264 1685.16,526.275 1687.32,526.286 1689.48,526.297 1691.64,526.308 1693.81,526.319 1695.97,526.33 1698.13,526.341 1700.29,526.351 1702.45,526.362 1704.61,526.373 1706.77,526.384 1708.93,526.394 1711.09,526.405 1713.25,526.416 1715.41,526.427 1717.57,526.437 1719.73,526.448 1721.89,526.459 1724.05,526.469 1726.21,526.48 1728.37,526.49 1730.53,526.501 1732.69,526.511 1734.85,526.522 1737.02,526.532 1739.18,526.543 1741.34,526.553 1743.5,526.564 1745.66,526.574 1747.82,526.584 1749.98,526.595 1752.14,526.605 1754.3,526.615 1756.46,526.626 1758.62,526.636 1760.78,526.646 1762.94,526.656 1765.1,526.666 1767.26,526.676 1769.42,526.687 1771.58,526.697 1773.74,526.707 1775.9,526.717 1778.06,526.727 1780.22,526.737 1782.39,526.747 1784.55,526.757 1786.71,526.766 1788.87,526.776 1791.03,526.786 1793.19,526.796 1795.35,526.806 1797.51,526.816 1799.67,526.825 1801.83,526.835 1803.99,526.845 1806.15,526.854 1808.31,526.864 1810.47,526.873 1812.63,526.883 1814.79,526.892 1816.95,526.902 1819.11,526.911 1821.27,526.921 1823.43,526.93 1825.6,526.939 1827.76,526.949 1829.92,526.958 1832.08,526.967 1834.24,526.976 1836.4,526.986 1838.56,526.995 1840.72,527.004 1842.88,527.013 1845.04,527.022 1847.2,527.031 1849.36,527.04 1851.52,527.049 1853.68,527.058 1855.84,527.066 1858,527.075 1860.16,527.084 1862.32,527.093 1864.48,527.101 1866.64,527.11 1868.81,527.119 1870.97,527.127 1873.13,527.136 1875.29,527.144 1877.45,527.153 1879.61,527.161 1881.77,527.169 1883.93,527.178 1886.09,527.186 1888.25,527.194 1890.41,527.202 1892.57,527.21 1894.73,527.218 1896.89,527.226 1899.05,527.234 1901.21,527.242 1903.37,527.25 1905.53,527.258 1907.69,527.266 1909.85,527.274 1912.02,527.282 1914.18,527.29 1916.34,527.297 1918.5,527.305 1920.66,527.313 1922.82,527.32 1924.98,527.328 1927.14,527.335 1929.3,527.343 1931.46,527.35 1933.62,527.358 1935.78,527.365 1937.94,527.373 1940.1,527.38 1942.26,527.387 1944.42,527.395 1946.58,527.402 1948.74,527.409 1950.9,527.416 1953.06,527.424 1955.22,527.431 1957.39,527.438 1959.55,527.445 1961.71,527.452 1963.87,527.459 1966.03,527.466 1968.19,527.473 1970.35,527.48 1972.51,527.487 1974.67,527.494 1976.83,527.501 1978.99,527.507 1981.15,527.514 1983.31,527.521 1985.47,527.528 1987.63,527.534 1989.79,527.541 1991.95,527.548 1994.11,527.554 1996.27,527.561 1998.43,527.567 2000.6,527.574 2002.76,527.581 2004.92,527.587 2007.08,527.593 2009.24,527.6 2011.4,527.606 2013.56,527.613 2015.72,527.619 2017.88,527.625 2020.04,527.632 2022.2,527.638 2024.36,527.644 2026.52,527.65 2028.68,527.657 2030.84,527.663 2033,527.669 2035.16,527.675 2037.32,527.681 2039.48,527.687 2041.64,527.693 2043.81,527.699 2045.97,527.705 2048.13,527.711 2050.29,527.717 2052.45,527.723 2054.61,527.729 2056.77,527.735 2058.93,527.741 2061.09,527.747 2063.25,527.752 2065.41,527.758 2067.57,527.764 2069.73,527.77 2071.89,527.775 2074.05,527.781 2076.21,527.787 2078.37,527.792 2080.53,527.798 2082.69,527.804 2084.85,527.809 2087.02,527.815 2089.18,527.82 2091.34,527.826 2093.5,527.831 2095.66,527.837 2097.82,527.842 2099.98,527.847 2102.14,527.853 2104.3,527.858 2106.46,527.863 2108.62,527.869 2110.78,527.874 2112.94,527.879 2115.1,527.885 2117.26,527.89 2119.42,527.895 2121.58,527.9 2123.74,527.905 2125.9,527.91 2128.06,527.916 2130.22,527.921 2132.39,527.926 2134.55,527.931 2136.71,527.936 2138.87,527.941 2141.03,527.946 2143.19,527.951 2145.35,527.956 2147.51,527.96 2149.67,527.965 2151.83,527.97 2153.99,527.975 2156.15,527.98 2158.31,527.985 2160.47,527.989 2162.63,527.994 2164.79,527.999 2166.95,528.003 2169.11,528.008 2171.27,528.013 2173.43,528.017 2175.6,528.022 2177.76,528.027 2179.92,528.031 2182.08,528.036 2184.24,528.04 2186.4,528.045 2188.56,528.049 2190.72,528.053 2192.88,528.058 2195.04,528.062 2197.2,528.067 2199.36,528.071 2201.52,528.075 2203.68,528.08 2205.84,528.084 2208,528.088 2210.16,528.092 2212.32,528.096 2214.48,528.101 2216.64,528.105 2218.81,528.109 2220.97,528.113 2223.13,528.117 2225.29,528.121 2227.45,528.125 2229.61,528.129 2231.77,528.133 2233.93,528.137 2236.09,528.141 2238.25,528.145 2240.41,528.149 2242.57,528.152 2244.73,528.156 2246.89,528.16 2249.05,528.164 2251.21,528.167 2253.37,528.171 2255.53,528.175 2257.69,528.179 2259.85,528.182 2262.02,528.186 2264.18,528.189 2266.34,528.193 2268.5,528.197 2270.66,528.2 2272.82,528.204 2274.98,528.207 2277.14,528.211 2279.3,528.214 2281.46,528.218 2283.62,528.221 2285.78,528.225 2287.94,528.228 2290.1,528.232 2292.26,528.235 2294.42,528.238 2296.58,528.242 2298.74,528.245 2300.9,528.248 2303.06,528.252 2305.23,528.255 2307.39,528.258 2309.55,528.261 2311.71,528.265 2313.87,528.268 2316.03,528.271 2318.19,528.274 2320.35,528.277 2322.51,528.28 2324.67,528.284 2326.83,528.287 2328.99,528.29 2331.15,528.293 2333.31,528.296 2335.47,528.299 2337.63,528.302 2339.79,528.305 2341.95,528.308 2344.11,528.311 2346.27,528.314 2348.43,528.317 2350.6,528.32 2352.76,528.323 "/>
<path clip-path="url(#clip190)" d="M1805.58 248.629 L2280.81 248.629 L2280.81 93.1086 L1805.58 93.1086  Z" fill="#ffffff" fill-rule="evenodd" fill-opacity="1"/>
<polyline clip-path="url(#clip190)" style="stroke:#000000; stroke-linecap:round; stroke-linejoin:round; stroke-width:4; stroke-opacity:1; fill:none" points="1805.58,248.629 2280.81,248.629 2280.81,93.1086 1805.58,93.1086 1805.58,248.629 "/>
<polyline clip-path="url(#clip190)" style="stroke:#009af9; stroke-linecap:round; stroke-linejoin:round; stroke-width:4; stroke-opacity:1; fill:none" points="1829.56,144.949 1973.45,144.949 "/>
<path clip-path="url(#clip190)" d="M1997.43 136.303 L2001.95 136.303 L2010.05 158.062 L2018.15 136.303 L2022.66 136.303 L2012.94 162.229 L2007.16 162.229 L1997.43 136.303 Z" fill="#000000" fill-rule="nonzero" fill-opacity="1" /><path clip-path="url(#clip190)" d="M2029.96 158.293 L2037.6 158.293 L2037.6 131.928 L2029.28 133.595 L2029.28 129.335 L2037.55 127.669 L2042.22 127.669 L2042.22 158.293 L2049.86 158.293 L2049.86 162.229 L2029.96 162.229 L2029.96 158.293 Z" fill="#000000" fill-rule="nonzero" fill-opacity="1" /><path clip-path="url(#clip190)" d="M2067.97 145.585 L2067.97 152.807 L2076.09 152.807 L2076.09 155.006 L2067.97 155.006 L2067.97 162.229 L2065.53 162.229 L2065.53 155.006 L2057.41 155.006 L2057.41 152.807 L2065.53 152.807 L2065.53 145.585 L2067.97 145.585 Z" fill="#000000" fill-rule="nonzero" fill-opacity="1" /><path clip-path="url(#clip190)" d="M2100.26 137.067 L2100.26 141.094 Q2098.45 140.169 2096.51 139.706 Q2094.56 139.243 2092.48 139.243 Q2089.31 139.243 2087.71 140.215 Q2086.14 141.187 2086.14 143.131 Q2086.14 144.613 2087.27 145.469 Q2088.4 146.303 2091.83 147.067 L2093.29 147.391 Q2097.83 148.363 2099.72 150.145 Q2101.65 151.905 2101.65 155.076 Q2101.65 158.687 2098.78 160.793 Q2095.93 162.9 2090.93 162.9 Q2088.84 162.9 2086.58 162.483 Q2084.33 162.09 2081.83 161.28 L2081.83 156.881 Q2084.19 158.108 2086.48 158.733 Q2088.78 159.335 2091.02 159.335 Q2094.03 159.335 2095.65 158.317 Q2097.27 157.275 2097.27 155.4 Q2097.27 153.664 2096.09 152.738 Q2094.93 151.812 2090.97 150.956 L2089.49 150.608 Q2085.53 149.775 2083.78 148.062 Q2082.02 146.326 2082.02 143.317 Q2082.02 139.659 2084.61 137.669 Q2087.2 135.678 2091.97 135.678 Q2094.33 135.678 2096.41 136.025 Q2098.5 136.372 2100.26 137.067 Z" fill="#000000" fill-rule="nonzero" fill-opacity="1" /><path clip-path="url(#clip190)" d="M2112.64 128.942 L2112.64 136.303 L2121.41 136.303 L2121.41 139.613 L2112.64 139.613 L2112.64 153.687 Q2112.64 156.858 2113.5 157.761 Q2114.38 158.664 2117.04 158.664 L2121.41 158.664 L2121.41 162.229 L2117.04 162.229 Q2112.11 162.229 2110.23 160.4 Q2108.36 158.548 2108.36 153.687 L2108.36 139.613 L2105.23 139.613 L2105.23 136.303 L2108.36 136.303 L2108.36 128.942 L2112.64 128.942 Z" fill="#000000" fill-rule="nonzero" fill-opacity="1" /><path clip-path="url(#clip190)" d="M2137.06 139.289 Q2133.64 139.289 2131.65 141.974 Q2129.65 144.636 2129.65 149.289 Q2129.65 153.942 2131.62 156.627 Q2133.61 159.289 2137.06 159.289 Q2140.46 159.289 2142.46 156.604 Q2144.45 153.918 2144.45 149.289 Q2144.45 144.682 2142.46 141.997 Q2140.46 139.289 2137.06 139.289 M2137.06 135.678 Q2142.62 135.678 2145.79 139.289 Q2148.96 142.9 2148.96 149.289 Q2148.96 155.655 2145.79 159.289 Q2142.62 162.9 2137.06 162.9 Q2131.48 162.9 2128.31 159.289 Q2125.16 155.655 2125.16 149.289 Q2125.16 142.9 2128.31 139.289 Q2131.48 135.678 2137.06 135.678 Z" fill="#000000" fill-rule="nonzero" fill-opacity="1" /><path clip-path="url(#clip190)" d="M2171.04 140.284 Q2170.33 139.868 2169.47 139.682 Q2168.64 139.474 2167.62 139.474 Q2164.01 139.474 2162.06 141.835 Q2160.14 144.173 2160.14 148.571 L2160.14 162.229 L2155.86 162.229 L2155.86 136.303 L2160.14 136.303 L2160.14 140.331 Q2161.48 137.969 2163.64 136.835 Q2165.79 135.678 2168.87 135.678 Q2169.31 135.678 2169.84 135.747 Q2170.37 135.794 2171.02 135.909 L2171.04 140.284 Z" fill="#000000" fill-rule="nonzero" fill-opacity="1" /><path clip-path="url(#clip190)" d="M2187.29 149.196 Q2182.13 149.196 2180.14 150.377 Q2178.15 151.557 2178.15 154.405 Q2178.15 156.673 2179.63 158.016 Q2181.14 159.335 2183.71 159.335 Q2187.25 159.335 2189.38 156.835 Q2191.53 154.312 2191.53 150.145 L2191.53 149.196 L2187.29 149.196 M2195.79 147.437 L2195.79 162.229 L2191.53 162.229 L2191.53 158.293 Q2190.07 160.655 2187.9 161.789 Q2185.72 162.9 2182.57 162.9 Q2178.59 162.9 2176.23 160.678 Q2173.89 158.432 2173.89 154.682 Q2173.89 150.307 2176.81 148.085 Q2179.75 145.863 2185.56 145.863 L2191.53 145.863 L2191.53 145.446 Q2191.53 142.507 2189.58 140.909 Q2187.66 139.289 2184.17 139.289 Q2181.95 139.289 2179.84 139.821 Q2177.73 140.354 2175.79 141.419 L2175.79 137.483 Q2178.13 136.581 2180.33 136.141 Q2182.52 135.678 2184.61 135.678 Q2190.23 135.678 2193.01 138.594 Q2195.79 141.511 2195.79 147.437 Z" fill="#000000" fill-rule="nonzero" fill-opacity="1" /><path clip-path="url(#clip190)" d="M2221.62 148.965 Q2221.62 144.335 2219.7 141.789 Q2217.8 139.243 2214.35 139.243 Q2210.93 139.243 2209.01 141.789 Q2207.11 144.335 2207.11 148.965 Q2207.11 153.571 2209.01 156.118 Q2210.93 158.664 2214.35 158.664 Q2217.8 158.664 2219.7 156.118 Q2221.62 153.571 2221.62 148.965 M2225.88 159.011 Q2225.88 165.631 2222.94 168.849 Q2220 172.09 2213.94 172.09 Q2211.69 172.09 2209.7 171.742 Q2207.71 171.418 2205.83 170.724 L2205.83 166.58 Q2207.71 167.599 2209.54 168.085 Q2211.37 168.571 2213.27 168.571 Q2217.46 168.571 2219.54 166.372 Q2221.62 164.196 2221.62 159.775 L2221.62 157.668 Q2220.3 159.96 2218.24 161.094 Q2216.18 162.229 2213.31 162.229 Q2208.54 162.229 2205.63 158.594 Q2202.71 154.96 2202.71 148.965 Q2202.71 142.946 2205.63 139.312 Q2208.54 135.678 2213.31 135.678 Q2216.18 135.678 2218.24 136.812 Q2220.3 137.946 2221.62 140.238 L2221.62 136.303 L2225.88 136.303 L2225.88 159.011 Z" fill="#000000" fill-rule="nonzero" fill-opacity="1" /><path clip-path="url(#clip190)" d="M2256.83 148.201 L2256.83 150.284 L2237.25 150.284 Q2237.52 154.682 2239.89 156.997 Q2242.27 159.289 2246.51 159.289 Q2248.96 159.289 2251.25 158.687 Q2253.57 158.085 2255.83 156.881 L2255.83 160.909 Q2253.54 161.881 2251.14 162.391 Q2248.73 162.9 2246.25 162.9 Q2240.05 162.9 2236.41 159.289 Q2232.8 155.678 2232.8 149.52 Q2232.8 143.155 2236.23 139.428 Q2239.68 135.678 2245.51 135.678 Q2250.74 135.678 2253.77 139.057 Q2256.83 142.414 2256.83 148.201 M2252.57 146.951 Q2252.52 143.456 2250.6 141.372 Q2248.71 139.289 2245.56 139.289 Q2241.99 139.289 2239.84 141.303 Q2237.71 143.317 2237.39 146.974 L2252.57 146.951 Z" fill="#000000" fill-rule="nonzero" fill-opacity="1" /><polyline clip-path="url(#clip190)" style="stroke:#e26f46; stroke-linecap:round; stroke-linejoin:round; stroke-width:4; stroke-opacity:1; fill:none" points="1829.56,196.789 1973.45,196.789 "/>
<path clip-path="url(#clip190)" d="M1997.43 188.143 L2001.95 188.143 L2010.05 209.902 L2018.15 188.143 L2022.66 188.143 L2012.94 214.069 L2007.16 214.069 L1997.43 188.143 Z" fill="#000000" fill-rule="nonzero" fill-opacity="1" /><path clip-path="url(#clip190)" d="M2029.19 179.509 L2047.55 179.509 L2047.55 183.444 L2033.47 183.444 L2033.47 191.916 Q2034.49 191.569 2035.51 191.407 Q2036.53 191.222 2037.55 191.222 Q2043.34 191.222 2046.72 194.393 Q2050.09 197.564 2050.09 202.981 Q2050.09 208.559 2046.62 211.661 Q2043.15 214.74 2036.83 214.74 Q2034.66 214.74 2032.39 214.37 Q2030.14 213.999 2027.73 213.258 L2027.73 208.559 Q2029.82 209.694 2032.04 210.249 Q2034.26 210.805 2036.74 210.805 Q2040.74 210.805 2043.08 208.698 Q2045.42 206.592 2045.42 202.981 Q2045.42 199.37 2043.08 197.263 Q2040.74 195.157 2036.74 195.157 Q2034.86 195.157 2032.99 195.573 Q2031.14 195.99 2029.19 196.87 L2029.19 179.509 Z" fill="#000000" fill-rule="nonzero" fill-opacity="1" /><path clip-path="url(#clip190)" d="M2067.97 197.425 L2067.97 204.647 L2076.09 204.647 L2076.09 206.846 L2067.97 206.846 L2067.97 214.069 L2065.53 214.069 L2065.53 206.846 L2057.41 206.846 L2057.41 204.647 L2065.53 204.647 L2065.53 197.425 L2067.97 197.425 Z" fill="#000000" fill-rule="nonzero" fill-opacity="1" /><path clip-path="url(#clip190)" d="M2100.26 188.907 L2100.26 192.934 Q2098.45 192.009 2096.51 191.546 Q2094.56 191.083 2092.48 191.083 Q2089.31 191.083 2087.71 192.055 Q2086.14 193.027 2086.14 194.971 Q2086.14 196.453 2087.27 197.309 Q2088.4 198.143 2091.83 198.907 L2093.29 199.231 Q2097.83 200.203 2099.72 201.985 Q2101.65 203.745 2101.65 206.916 Q2101.65 210.527 2098.78 212.633 Q2095.93 214.74 2090.93 214.74 Q2088.84 214.74 2086.58 214.323 Q2084.33 213.93 2081.83 213.12 L2081.83 208.721 Q2084.19 209.948 2086.48 210.573 Q2088.78 211.175 2091.02 211.175 Q2094.03 211.175 2095.65 210.157 Q2097.27 209.115 2097.27 207.24 Q2097.27 205.504 2096.09 204.578 Q2094.93 203.652 2090.97 202.796 L2089.49 202.448 Q2085.53 201.615 2083.78 199.902 Q2082.02 198.166 2082.02 195.157 Q2082.02 191.499 2084.61 189.509 Q2087.2 187.518 2091.97 187.518 Q2094.33 187.518 2096.41 187.865 Q2098.5 188.212 2100.26 188.907 Z" fill="#000000" fill-rule="nonzero" fill-opacity="1" /><path clip-path="url(#clip190)" d="M2112.64 180.782 L2112.64 188.143 L2121.41 188.143 L2121.41 191.453 L2112.64 191.453 L2112.64 205.527 Q2112.64 208.698 2113.5 209.601 Q2114.38 210.504 2117.04 210.504 L2121.41 210.504 L2121.41 214.069 L2117.04 214.069 Q2112.11 214.069 2110.23 212.24 Q2108.36 210.388 2108.36 205.527 L2108.36 191.453 L2105.23 191.453 L2105.23 188.143 L2108.36 188.143 L2108.36 180.782 L2112.64 180.782 Z" fill="#000000" fill-rule="nonzero" fill-opacity="1" /><path clip-path="url(#clip190)" d="M2137.06 191.129 Q2133.64 191.129 2131.65 193.814 Q2129.65 196.476 2129.65 201.129 Q2129.65 205.782 2131.62 208.467 Q2133.61 211.129 2137.06 211.129 Q2140.46 211.129 2142.46 208.444 Q2144.45 205.758 2144.45 201.129 Q2144.45 196.522 2142.46 193.837 Q2140.46 191.129 2137.06 191.129 M2137.06 187.518 Q2142.62 187.518 2145.79 191.129 Q2148.96 194.74 2148.96 201.129 Q2148.96 207.495 2145.79 211.129 Q2142.62 214.74 2137.06 214.74 Q2131.48 214.74 2128.31 211.129 Q2125.16 207.495 2125.16 201.129 Q2125.16 194.74 2128.31 191.129 Q2131.48 187.518 2137.06 187.518 Z" fill="#000000" fill-rule="nonzero" fill-opacity="1" /><path clip-path="url(#clip190)" d="M2171.04 192.124 Q2170.33 191.708 2169.47 191.522 Q2168.64 191.314 2167.62 191.314 Q2164.01 191.314 2162.06 193.675 Q2160.14 196.013 2160.14 200.411 L2160.14 214.069 L2155.86 214.069 L2155.86 188.143 L2160.14 188.143 L2160.14 192.171 Q2161.48 189.809 2163.64 188.675 Q2165.79 187.518 2168.87 187.518 Q2169.31 187.518 2169.84 187.587 Q2170.37 187.634 2171.02 187.749 L2171.04 192.124 Z" fill="#000000" fill-rule="nonzero" fill-opacity="1" /><path clip-path="url(#clip190)" d="M2187.29 201.036 Q2182.13 201.036 2180.14 202.217 Q2178.15 203.397 2178.15 206.245 Q2178.15 208.513 2179.63 209.856 Q2181.14 211.175 2183.71 211.175 Q2187.25 211.175 2189.38 208.675 Q2191.53 206.152 2191.53 201.985 L2191.53 201.036 L2187.29 201.036 M2195.79 199.277 L2195.79 214.069 L2191.53 214.069 L2191.53 210.133 Q2190.07 212.495 2187.9 213.629 Q2185.72 214.74 2182.57 214.74 Q2178.59 214.74 2176.23 212.518 Q2173.89 210.272 2173.89 206.522 Q2173.89 202.147 2176.81 199.925 Q2179.75 197.703 2185.56 197.703 L2191.53 197.703 L2191.53 197.286 Q2191.53 194.347 2189.58 192.749 Q2187.66 191.129 2184.17 191.129 Q2181.95 191.129 2179.84 191.661 Q2177.73 192.194 2175.79 193.259 L2175.79 189.323 Q2178.13 188.421 2180.33 187.981 Q2182.52 187.518 2184.61 187.518 Q2190.23 187.518 2193.01 190.434 Q2195.79 193.351 2195.79 199.277 Z" fill="#000000" fill-rule="nonzero" fill-opacity="1" /><path clip-path="url(#clip190)" d="M2221.62 200.805 Q2221.62 196.175 2219.7 193.629 Q2217.8 191.083 2214.35 191.083 Q2210.93 191.083 2209.01 193.629 Q2207.11 196.175 2207.11 200.805 Q2207.11 205.411 2209.01 207.958 Q2210.93 210.504 2214.35 210.504 Q2217.8 210.504 2219.7 207.958 Q2221.62 205.411 2221.62 200.805 M2225.88 210.851 Q2225.88 217.471 2222.94 220.689 Q2220 223.93 2213.94 223.93 Q2211.69 223.93 2209.7 223.582 Q2207.71 223.258 2205.83 222.564 L2205.83 218.42 Q2207.71 219.439 2209.54 219.925 Q2211.37 220.411 2213.27 220.411 Q2217.46 220.411 2219.54 218.212 Q2221.62 216.036 2221.62 211.615 L2221.62 209.508 Q2220.3 211.8 2218.24 212.934 Q2216.18 214.069 2213.31 214.069 Q2208.54 214.069 2205.63 210.434 Q2202.71 206.8 2202.71 200.805 Q2202.71 194.786 2205.63 191.152 Q2208.54 187.518 2213.31 187.518 Q2216.18 187.518 2218.24 188.652 Q2220.3 189.786 2221.62 192.078 L2221.62 188.143 L2225.88 188.143 L2225.88 210.851 Z" fill="#000000" fill-rule="nonzero" fill-opacity="1" /><path clip-path="url(#clip190)" d="M2256.83 200.041 L2256.83 202.124 L2237.25 202.124 Q2237.52 206.522 2239.89 208.837 Q2242.27 211.129 2246.51 211.129 Q2248.96 211.129 2251.25 210.527 Q2253.57 209.925 2255.83 208.721 L2255.83 212.749 Q2253.54 213.721 2251.14 214.231 Q2248.73 214.74 2246.25 214.74 Q2240.05 214.74 2236.41 211.129 Q2232.8 207.518 2232.8 201.36 Q2232.8 194.995 2236.23 191.268 Q2239.68 187.518 2245.51 187.518 Q2250.74 187.518 2253.77 190.897 Q2256.83 194.254 2256.83 200.041 M2252.57 198.791 Q2252.52 195.296 2250.6 193.212 Q2248.71 191.129 2245.56 191.129 Q2241.99 191.129 2239.84 193.143 Q2237.71 195.157 2237.39 198.814 L2252.57 198.791 Z" fill="#000000" fill-rule="nonzero" fill-opacity="1" /></svg>
