<?xml version="1.0" encoding="utf-8"?>
<svg xmlns="http://www.w3.org/2000/svg" xmlns:xlink="http://www.w3.org/1999/xlink" width="600" height="400" viewBox="0 0 2400 1600">
<defs>
  <clipPath id="clip450">
    <rect x="0" y="0" width="2400" height="1600"/>
  </clipPath>
</defs>
<path clip-path="url(#clip450)" d="M0 1600 L2400 1600 L2400 0 L0 0  Z" fill="#ffffff" fill-rule="evenodd" fill-opacity="1"/>
<defs>
  <clipPath id="clip451">
    <rect x="480" y="0" width="1681" height="1600"/>
  </clipPath>
</defs>
<path clip-path="url(#clip450)" d="M224.098 1423.18 L2352.76 1423.18 L2352.76 47.2441 L224.098 47.2441  Z" fill="#ffffff" fill-rule="evenodd" fill-opacity="1"/>
<defs>
  <clipPath id="clip452">
    <rect x="224" y="47" width="2130" height="1377"/>
  </clipPath>
</defs>
<polyline clip-path="url(#clip452)" style="stroke:#000000; stroke-linecap:round; stroke-linejoin:round; stroke-width:2; stroke-opacity:0.1; fill:none" points="224.098,1423.18 224.098,47.2441 "/>
<polyline clip-path="url(#clip452)" style="stroke:#000000; stroke-linecap:round; stroke-linejoin:round; stroke-width:2; stroke-opacity:0.1; fill:none" points="756.262,1423.18 756.262,47.2441 "/>
<polyline clip-path="url(#clip452)" style="stroke:#000000; stroke-linecap:round; stroke-linejoin:round; stroke-width:2; stroke-opacity:0.1; fill:none" points="1288.43,1423.18 1288.43,47.2441 "/>
<polyline clip-path="url(#clip452)" style="stroke:#000000; stroke-linecap:round; stroke-linejoin:round; stroke-width:2; stroke-opacity:0.1; fill:none" points="1820.59,1423.18 1820.59,47.2441 "/>
<polyline clip-path="url(#clip452)" style="stroke:#000000; stroke-linecap:round; stroke-linejoin:round; stroke-width:2; stroke-opacity:0.1; fill:none" points="2352.76,1423.18 2352.76,47.2441 "/>
<polyline clip-path="url(#clip452)" style="stroke:#000000; stroke-linecap:round; stroke-linejoin:round; stroke-width:2; stroke-opacity:0.1; fill:none" points="224.098,1393.7 2352.76,1393.7 "/>
<polyline clip-path="url(#clip452)" style="stroke:#000000; stroke-linecap:round; stroke-linejoin:round; stroke-width:2; stroke-opacity:0.1; fill:none" points="224.098,1100.43 2352.76,1100.43 "/>
<polyline clip-path="url(#clip452)" style="stroke:#000000; stroke-linecap:round; stroke-linejoin:round; stroke-width:2; stroke-opacity:0.1; fill:none" points="224.098,807.169 2352.76,807.169 "/>
<polyline clip-path="url(#clip452)" style="stroke:#000000; stroke-linecap:round; stroke-linejoin:round; stroke-width:2; stroke-opacity:0.1; fill:none" points="224.098,513.903 2352.76,513.903 "/>
<polyline clip-path="url(#clip452)" style="stroke:#000000; stroke-linecap:round; stroke-linejoin:round; stroke-width:2; stroke-opacity:0.1; fill:none" points="224.098,220.638 2352.76,220.638 "/>
<polyline clip-path="url(#clip450)" style="stroke:#000000; stroke-linecap:round; stroke-linejoin:round; stroke-width:4; stroke-opacity:1; fill:none" points="224.098,1423.18 2352.76,1423.18 "/>
<polyline clip-path="url(#clip450)" style="stroke:#000000; stroke-linecap:round; stroke-linejoin:round; stroke-width:4; stroke-opacity:1; fill:none" points="224.098,1423.18 224.098,1404.28 "/>
<polyline clip-path="url(#clip450)" style="stroke:#000000; stroke-linecap:round; stroke-linejoin:round; stroke-width:4; stroke-opacity:1; fill:none" points="756.262,1423.18 756.262,1404.28 "/>
<polyline clip-path="url(#clip450)" style="stroke:#000000; stroke-linecap:round; stroke-linejoin:round; stroke-width:4; stroke-opacity:1; fill:none" points="1288.43,1423.18 1288.43,1404.28 "/>
<polyline clip-path="url(#clip450)" style="stroke:#000000; stroke-linecap:round; stroke-linejoin:round; stroke-width:4; stroke-opacity:1; fill:none" points="1820.59,1423.18 1820.59,1404.28 "/>
<polyline clip-path="url(#clip450)" style="stroke:#000000; stroke-linecap:round; stroke-linejoin:round; stroke-width:4; stroke-opacity:1; fill:none" points="2352.76,1423.18 2352.76,1404.28 "/>
<path clip-path="url(#clip450)" d="M201.482 1454.1 Q197.871 1454.1 196.042 1457.66 Q194.237 1461.2 194.237 1468.33 Q194.237 1475.44 196.042 1479.01 Q197.871 1482.55 201.482 1482.55 Q205.116 1482.55 206.922 1479.01 Q208.751 1475.44 208.751 1468.33 Q208.751 1461.2 206.922 1457.66 Q205.116 1454.1 201.482 1454.1 M201.482 1450.39 Q207.292 1450.39 210.348 1455 Q213.427 1459.58 213.427 1468.33 Q213.427 1477.06 210.348 1481.67 Q207.292 1486.25 201.482 1486.25 Q195.672 1486.25 192.593 1481.67 Q189.538 1477.06 189.538 1468.33 Q189.538 1459.58 192.593 1455 Q195.672 1450.39 201.482 1450.39 Z" fill="#000000" fill-rule="nonzero" fill-opacity="1" /><path clip-path="url(#clip450)" d="M221.644 1479.7 L226.528 1479.7 L226.528 1485.58 L221.644 1485.58 L221.644 1479.7 Z" fill="#000000" fill-rule="nonzero" fill-opacity="1" /><path clip-path="url(#clip450)" d="M246.713 1454.1 Q243.102 1454.1 241.274 1457.66 Q239.468 1461.2 239.468 1468.33 Q239.468 1475.44 241.274 1479.01 Q243.102 1482.55 246.713 1482.55 Q250.348 1482.55 252.153 1479.01 Q253.982 1475.44 253.982 1468.33 Q253.982 1461.2 252.153 1457.66 Q250.348 1454.1 246.713 1454.1 M246.713 1450.39 Q252.524 1450.39 255.579 1455 Q258.658 1459.58 258.658 1468.33 Q258.658 1477.06 255.579 1481.67 Q252.524 1486.25 246.713 1486.25 Q240.903 1486.25 237.825 1481.67 Q234.769 1477.06 234.769 1468.33 Q234.769 1459.58 237.825 1455 Q240.903 1450.39 246.713 1450.39 Z" fill="#000000" fill-rule="nonzero" fill-opacity="1" /><path clip-path="url(#clip450)" d="M734.144 1454.1 Q730.533 1454.1 728.705 1457.66 Q726.899 1461.2 726.899 1468.33 Q726.899 1475.44 728.705 1479.01 Q730.533 1482.55 734.144 1482.55 Q737.779 1482.55 739.584 1479.01 Q741.413 1475.44 741.413 1468.33 Q741.413 1461.2 739.584 1457.66 Q737.779 1454.1 734.144 1454.1 M734.144 1450.39 Q739.955 1450.39 743.01 1455 Q746.089 1459.58 746.089 1468.33 Q746.089 1477.06 743.01 1481.67 Q739.955 1486.25 734.144 1486.25 Q728.334 1486.25 725.256 1481.67 Q722.2 1477.06 722.2 1468.33 Q722.2 1459.58 725.256 1455 Q728.334 1450.39 734.144 1450.39 Z" fill="#000000" fill-rule="nonzero" fill-opacity="1" /><path clip-path="url(#clip450)" d="M754.306 1479.7 L759.191 1479.7 L759.191 1485.58 L754.306 1485.58 L754.306 1479.7 Z" fill="#000000" fill-rule="nonzero" fill-opacity="1" /><path clip-path="url(#clip450)" d="M769.422 1451.02 L787.778 1451.02 L787.778 1454.96 L773.704 1454.96 L773.704 1463.43 Q774.723 1463.08 775.741 1462.92 Q776.76 1462.73 777.778 1462.73 Q783.565 1462.73 786.945 1465.9 Q790.325 1469.08 790.325 1474.49 Q790.325 1480.07 786.852 1483.17 Q783.38 1486.25 777.061 1486.25 Q774.885 1486.25 772.616 1485.88 Q770.371 1485.51 767.964 1484.77 L767.964 1480.07 Q770.047 1481.2 772.269 1481.76 Q774.491 1482.32 776.968 1482.32 Q780.973 1482.32 783.311 1480.21 Q785.649 1478.1 785.649 1474.49 Q785.649 1470.88 783.311 1468.77 Q780.973 1466.67 776.968 1466.67 Q775.093 1466.67 773.218 1467.08 Q771.366 1467.5 769.422 1468.38 L769.422 1451.02 Z" fill="#000000" fill-rule="nonzero" fill-opacity="1" /><path clip-path="url(#clip450)" d="M1255.58 1481.64 L1263.22 1481.64 L1263.22 1455.28 L1254.91 1456.95 L1254.91 1452.69 L1263.17 1451.02 L1267.85 1451.02 L1267.85 1481.64 L1275.49 1481.64 L1275.49 1485.58 L1255.58 1485.58 L1255.58 1481.64 Z" fill="#000000" fill-rule="nonzero" fill-opacity="1" /><path clip-path="url(#clip450)" d="M1284.93 1479.7 L1289.82 1479.7 L1289.82 1485.58 L1284.93 1485.58 L1284.93 1479.7 Z" fill="#000000" fill-rule="nonzero" fill-opacity="1" /><path clip-path="url(#clip450)" d="M1310 1454.1 Q1306.39 1454.1 1304.56 1457.66 Q1302.76 1461.2 1302.76 1468.33 Q1302.76 1475.44 1304.56 1479.01 Q1306.39 1482.55 1310 1482.55 Q1313.64 1482.55 1315.44 1479.01 Q1317.27 1475.44 1317.27 1468.33 Q1317.27 1461.2 1315.44 1457.66 Q1313.64 1454.1 1310 1454.1 M1310 1450.39 Q1315.81 1450.39 1318.87 1455 Q1321.95 1459.58 1321.95 1468.33 Q1321.95 1477.06 1318.87 1481.67 Q1315.81 1486.25 1310 1486.25 Q1304.19 1486.25 1301.11 1481.67 Q1298.06 1477.06 1298.06 1468.33 Q1298.06 1459.58 1301.11 1455 Q1304.19 1450.39 1310 1450.39 Z" fill="#000000" fill-rule="nonzero" fill-opacity="1" /><path clip-path="url(#clip450)" d="M1788.24 1481.64 L1795.88 1481.64 L1795.88 1455.28 L1787.57 1456.95 L1787.57 1452.69 L1795.83 1451.02 L1800.51 1451.02 L1800.51 1481.64 L1808.15 1481.64 L1808.15 1485.58 L1788.24 1485.58 L1788.24 1481.64 Z" fill="#000000" fill-rule="nonzero" fill-opacity="1" /><path clip-path="url(#clip450)" d="M1817.59 1479.7 L1822.48 1479.7 L1822.48 1485.58 L1817.59 1485.58 L1817.59 1479.7 Z" fill="#000000" fill-rule="nonzero" fill-opacity="1" /><path clip-path="url(#clip450)" d="M1832.71 1451.02 L1851.07 1451.02 L1851.07 1454.96 L1836.99 1454.96 L1836.99 1463.43 Q1838.01 1463.08 1839.03 1462.92 Q1840.05 1462.73 1841.07 1462.73 Q1846.85 1462.73 1850.23 1465.9 Q1853.61 1469.08 1853.61 1474.49 Q1853.61 1480.07 1850.14 1483.17 Q1846.67 1486.25 1840.35 1486.25 Q1838.17 1486.25 1835.9 1485.88 Q1833.66 1485.51 1831.25 1484.77 L1831.25 1480.07 Q1833.33 1481.2 1835.56 1481.76 Q1837.78 1482.32 1840.26 1482.32 Q1844.26 1482.32 1846.6 1480.21 Q1848.94 1478.1 1848.94 1474.49 Q1848.94 1470.88 1846.6 1468.77 Q1844.26 1466.67 1840.26 1466.67 Q1838.38 1466.67 1836.51 1467.08 Q1834.65 1467.5 1832.71 1468.38 L1832.71 1451.02 Z" fill="#000000" fill-rule="nonzero" fill-opacity="1" /><path clip-path="url(#clip450)" d="M2323.99 1481.64 L2340.31 1481.64 L2340.31 1485.58 L2318.37 1485.58 L2318.37 1481.64 Q2321.03 1478.89 2325.61 1474.26 Q2330.22 1469.61 2331.4 1468.27 Q2333.65 1465.74 2334.53 1464.01 Q2335.43 1462.25 2335.43 1460.56 Q2335.43 1457.8 2333.49 1456.07 Q2331.56 1454.33 2328.46 1454.33 Q2326.26 1454.33 2323.81 1455.09 Q2321.38 1455.86 2318.6 1457.41 L2318.6 1452.69 Q2321.43 1451.55 2323.88 1450.97 Q2326.33 1450.39 2328.37 1450.39 Q2333.74 1450.39 2336.93 1453.08 Q2340.13 1455.77 2340.13 1460.26 Q2340.13 1462.39 2339.32 1464.31 Q2338.53 1466.2 2336.42 1468.8 Q2335.85 1469.47 2332.74 1472.69 Q2329.64 1475.88 2323.99 1481.64 Z" fill="#000000" fill-rule="nonzero" fill-opacity="1" /><path clip-path="url(#clip450)" d="M2350.13 1479.7 L2355.01 1479.7 L2355.01 1485.58 L2350.13 1485.58 L2350.13 1479.7 Z" fill="#000000" fill-rule="nonzero" fill-opacity="1" /><path clip-path="url(#clip450)" d="M2375.2 1454.1 Q2371.59 1454.1 2369.76 1457.66 Q2367.95 1461.2 2367.95 1468.33 Q2367.95 1475.44 2369.76 1479.01 Q2371.59 1482.55 2375.2 1482.55 Q2378.83 1482.55 2380.64 1479.01 Q2382.47 1475.44 2382.47 1468.33 Q2382.47 1461.2 2380.64 1457.66 Q2378.83 1454.1 2375.2 1454.1 M2375.2 1450.39 Q2381.01 1450.39 2384.06 1455 Q2387.14 1459.58 2387.14 1468.33 Q2387.14 1477.06 2384.06 1481.67 Q2381.01 1486.25 2375.2 1486.25 Q2369.39 1486.25 2366.31 1481.67 Q2363.25 1477.06 2363.25 1468.33 Q2363.25 1459.58 2366.31 1455 Q2369.39 1450.39 2375.2 1450.39 Z" fill="#000000" fill-rule="nonzero" fill-opacity="1" /><path clip-path="url(#clip450)" d="M1287.49 1522.27 L1287.49 1532.4 L1299.55 1532.4 L1299.55 1536.95 L1287.49 1536.95 L1287.49 1556.3 Q1287.49 1560.66 1288.67 1561.9 Q1289.88 1563.14 1293.54 1563.14 L1299.55 1563.14 L1299.55 1568.04 L1293.54 1568.04 Q1286.76 1568.04 1284.18 1565.53 Q1281.6 1562.98 1281.6 1556.3 L1281.6 1536.95 L1277.3 1536.95 L1277.3 1532.4 L1281.6 1532.4 L1281.6 1522.27 L1287.49 1522.27 Z" fill="#000000" fill-rule="nonzero" fill-opacity="1" /><polyline clip-path="url(#clip450)" style="stroke:#000000; stroke-linecap:round; stroke-linejoin:round; stroke-width:4; stroke-opacity:1; fill:none" points="224.098,1423.18 224.098,47.2441 "/>
<polyline clip-path="url(#clip450)" style="stroke:#000000; stroke-linecap:round; stroke-linejoin:round; stroke-width:4; stroke-opacity:1; fill:none" points="224.098,1393.7 242.996,1393.7 "/>
<polyline clip-path="url(#clip450)" style="stroke:#000000; stroke-linecap:round; stroke-linejoin:round; stroke-width:4; stroke-opacity:1; fill:none" points="224.098,1100.43 242.996,1100.43 "/>
<polyline clip-path="url(#clip450)" style="stroke:#000000; stroke-linecap:round; stroke-linejoin:round; stroke-width:4; stroke-opacity:1; fill:none" points="224.098,807.169 242.996,807.169 "/>
<polyline clip-path="url(#clip450)" style="stroke:#000000; stroke-linecap:round; stroke-linejoin:round; stroke-width:4; stroke-opacity:1; fill:none" points="224.098,513.903 242.996,513.903 "/>
<polyline clip-path="url(#clip450)" style="stroke:#000000; stroke-linecap:round; stroke-linejoin:round; stroke-width:4; stroke-opacity:1; fill:none" points="224.098,220.638 242.996,220.638 "/>
<path clip-path="url(#clip450)" d="M51.9875 1394.15 L81.6633 1394.15 L81.6633 1398.09 L51.9875 1398.09 L51.9875 1394.15 Z" fill="#000000" fill-rule="nonzero" fill-opacity="1" /><path clip-path="url(#clip450)" d="M92.566 1407.04 L100.205 1407.04 L100.205 1380.68 L91.8947 1382.34 L91.8947 1378.09 L100.159 1376.42 L104.834 1376.42 L104.834 1407.04 L112.473 1407.04 L112.473 1410.98 L92.566 1410.98 L92.566 1407.04 Z" fill="#000000" fill-rule="nonzero" fill-opacity="1" /><path clip-path="url(#clip450)" d="M121.918 1405.1 L126.802 1405.1 L126.802 1410.98 L121.918 1410.98 L121.918 1405.1 Z" fill="#000000" fill-rule="nonzero" fill-opacity="1" /><path clip-path="url(#clip450)" d="M141.015 1407.04 L157.334 1407.04 L157.334 1410.98 L135.39 1410.98 L135.39 1407.04 Q138.052 1404.29 142.635 1399.66 Q147.242 1395.01 148.422 1393.66 Q150.668 1391.14 151.547 1389.4 Q152.45 1387.65 152.45 1385.96 Q152.45 1383.2 150.505 1381.46 Q148.584 1379.73 145.482 1379.73 Q143.283 1379.73 140.83 1380.49 Q138.399 1381.26 135.621 1382.81 L135.621 1378.09 Q138.445 1376.95 140.899 1376.37 Q143.353 1375.79 145.39 1375.79 Q150.76 1375.79 153.955 1378.48 Q157.149 1381.16 157.149 1385.65 Q157.149 1387.78 156.339 1389.71 Q155.552 1391.6 153.445 1394.2 Q152.867 1394.87 149.765 1398.09 Q146.663 1401.28 141.015 1407.04 Z" fill="#000000" fill-rule="nonzero" fill-opacity="1" /><path clip-path="url(#clip450)" d="M167.195 1376.42 L185.552 1376.42 L185.552 1380.35 L171.478 1380.35 L171.478 1388.83 Q172.496 1388.48 173.515 1388.32 Q174.533 1388.13 175.552 1388.13 Q181.339 1388.13 184.718 1391.3 Q188.098 1394.47 188.098 1399.89 Q188.098 1405.47 184.626 1408.57 Q181.153 1411.65 174.834 1411.65 Q172.658 1411.65 170.39 1411.28 Q168.144 1410.91 165.737 1410.17 L165.737 1405.47 Q167.82 1406.6 170.042 1407.16 Q172.265 1407.71 174.741 1407.71 Q178.746 1407.71 181.084 1405.61 Q183.422 1403.5 183.422 1399.89 Q183.422 1396.28 181.084 1394.17 Q178.746 1392.07 174.741 1392.07 Q172.866 1392.07 170.991 1392.48 Q169.14 1392.9 167.195 1393.78 L167.195 1376.42 Z" fill="#000000" fill-rule="nonzero" fill-opacity="1" /><path clip-path="url(#clip450)" d="M50.9921 1100.88 L80.6679 1100.88 L80.6679 1104.82 L50.9921 1104.82 L50.9921 1100.88 Z" fill="#000000" fill-rule="nonzero" fill-opacity="1" /><path clip-path="url(#clip450)" d="M91.5706 1113.78 L99.2095 1113.78 L99.2095 1087.41 L90.8993 1089.08 L90.8993 1084.82 L99.1632 1083.15 L103.839 1083.15 L103.839 1113.78 L111.478 1113.78 L111.478 1117.71 L91.5706 1117.71 L91.5706 1113.78 Z" fill="#000000" fill-rule="nonzero" fill-opacity="1" /><path clip-path="url(#clip450)" d="M120.922 1111.83 L125.807 1111.83 L125.807 1117.71 L120.922 1117.71 L120.922 1111.83 Z" fill="#000000" fill-rule="nonzero" fill-opacity="1" /><path clip-path="url(#clip450)" d="M145.992 1086.23 Q142.381 1086.23 140.552 1089.8 Q138.746 1093.34 138.746 1100.47 Q138.746 1107.57 140.552 1111.14 Q142.381 1114.68 145.992 1114.68 Q149.626 1114.68 151.431 1111.14 Q153.26 1107.57 153.26 1100.47 Q153.26 1093.34 151.431 1089.8 Q149.626 1086.23 145.992 1086.23 M145.992 1082.53 Q151.802 1082.53 154.857 1087.14 Q157.936 1091.72 157.936 1100.47 Q157.936 1109.2 154.857 1113.8 Q151.802 1118.38 145.992 1118.38 Q140.181 1118.38 137.103 1113.8 Q134.047 1109.2 134.047 1100.47 Q134.047 1091.72 137.103 1087.14 Q140.181 1082.53 145.992 1082.53 Z" fill="#000000" fill-rule="nonzero" fill-opacity="1" /><path clip-path="url(#clip450)" d="M176.153 1086.23 Q172.542 1086.23 170.714 1089.8 Q168.908 1093.34 168.908 1100.47 Q168.908 1107.57 170.714 1111.14 Q172.542 1114.68 176.153 1114.68 Q179.788 1114.68 181.593 1111.14 Q183.422 1107.57 183.422 1100.47 Q183.422 1093.34 181.593 1089.8 Q179.788 1086.23 176.153 1086.23 M176.153 1082.53 Q181.964 1082.53 185.019 1087.14 Q188.098 1091.72 188.098 1100.47 Q188.098 1109.2 185.019 1113.8 Q181.964 1118.38 176.153 1118.38 Q170.343 1118.38 167.265 1113.8 Q164.209 1109.2 164.209 1100.47 Q164.209 1091.72 167.265 1087.14 Q170.343 1082.53 176.153 1082.53 Z" fill="#000000" fill-rule="nonzero" fill-opacity="1" /><path clip-path="url(#clip450)" d="M51.9875 807.62 L81.6633 807.62 L81.6633 811.555 L51.9875 811.555 L51.9875 807.62 Z" fill="#000000" fill-rule="nonzero" fill-opacity="1" /><path clip-path="url(#clip450)" d="M101.756 792.967 Q98.1447 792.967 96.316 796.532 Q94.5104 800.074 94.5104 807.203 Q94.5104 814.31 96.316 817.874 Q98.1447 821.416 101.756 821.416 Q105.39 821.416 107.196 817.874 Q109.024 814.31 109.024 807.203 Q109.024 800.074 107.196 796.532 Q105.39 792.967 101.756 792.967 M101.756 789.264 Q107.566 789.264 110.621 793.87 Q113.7 798.453 113.7 807.203 Q113.7 815.93 110.621 820.536 Q107.566 825.12 101.756 825.12 Q95.9456 825.12 92.8669 820.536 Q89.8114 815.93 89.8114 807.203 Q89.8114 798.453 92.8669 793.87 Q95.9456 789.264 101.756 789.264 Z" fill="#000000" fill-rule="nonzero" fill-opacity="1" /><path clip-path="url(#clip450)" d="M121.918 818.569 L126.802 818.569 L126.802 824.449 L121.918 824.449 L121.918 818.569 Z" fill="#000000" fill-rule="nonzero" fill-opacity="1" /><path clip-path="url(#clip450)" d="M135.806 789.889 L158.029 789.889 L158.029 791.879 L145.482 824.449 L140.598 824.449 L152.404 793.824 L135.806 793.824 L135.806 789.889 Z" fill="#000000" fill-rule="nonzero" fill-opacity="1" /><path clip-path="url(#clip450)" d="M167.195 789.889 L185.552 789.889 L185.552 793.824 L171.478 793.824 L171.478 802.296 Q172.496 801.949 173.515 801.787 Q174.533 801.601 175.552 801.601 Q181.339 801.601 184.718 804.773 Q188.098 807.944 188.098 813.361 Q188.098 818.939 184.626 822.041 Q181.153 825.12 174.834 825.12 Q172.658 825.12 170.39 824.749 Q168.144 824.379 165.737 823.638 L165.737 818.939 Q167.82 820.074 170.042 820.629 Q172.265 821.185 174.741 821.185 Q178.746 821.185 181.084 819.078 Q183.422 816.972 183.422 813.361 Q183.422 809.75 181.084 807.643 Q178.746 805.537 174.741 805.537 Q172.866 805.537 170.991 805.953 Q169.14 806.37 167.195 807.25 L167.195 789.889 Z" fill="#000000" fill-rule="nonzero" fill-opacity="1" /><path clip-path="url(#clip450)" d="M50.9921 514.355 L80.6679 514.355 L80.6679 518.29 L50.9921 518.29 L50.9921 514.355 Z" fill="#000000" fill-rule="nonzero" fill-opacity="1" /><path clip-path="url(#clip450)" d="M100.76 499.702 Q97.1493 499.702 95.3206 503.267 Q93.515 506.809 93.515 513.938 Q93.515 521.045 95.3206 524.609 Q97.1493 528.151 100.76 528.151 Q104.395 528.151 106.2 524.609 Q108.029 521.045 108.029 513.938 Q108.029 506.809 106.2 503.267 Q104.395 499.702 100.76 499.702 M100.76 495.998 Q106.571 495.998 109.626 500.605 Q112.705 505.188 112.705 513.938 Q112.705 522.665 109.626 527.271 Q106.571 531.855 100.76 531.855 Q94.9502 531.855 91.8715 527.271 Q88.816 522.665 88.816 513.938 Q88.816 505.188 91.8715 500.605 Q94.9502 495.998 100.76 495.998 Z" fill="#000000" fill-rule="nonzero" fill-opacity="1" /><path clip-path="url(#clip450)" d="M120.922 525.304 L125.807 525.304 L125.807 531.183 L120.922 531.183 L120.922 525.304 Z" fill="#000000" fill-rule="nonzero" fill-opacity="1" /><path clip-path="url(#clip450)" d="M136.038 496.623 L154.394 496.623 L154.394 500.559 L140.32 500.559 L140.32 509.031 Q141.339 508.684 142.357 508.522 Q143.376 508.336 144.394 508.336 Q150.181 508.336 153.561 511.508 Q156.941 514.679 156.941 520.096 Q156.941 525.674 153.468 528.776 Q149.996 531.855 143.677 531.855 Q141.501 531.855 139.232 531.484 Q136.987 531.114 134.58 530.373 L134.58 525.674 Q136.663 526.808 138.885 527.364 Q141.107 527.92 143.584 527.92 Q147.589 527.92 149.927 525.813 Q152.265 523.707 152.265 520.096 Q152.265 516.484 149.927 514.378 Q147.589 512.271 143.584 512.271 Q141.709 512.271 139.834 512.688 Q137.982 513.105 136.038 513.984 L136.038 496.623 Z" fill="#000000" fill-rule="nonzero" fill-opacity="1" /><path clip-path="url(#clip450)" d="M176.153 499.702 Q172.542 499.702 170.714 503.267 Q168.908 506.809 168.908 513.938 Q168.908 521.045 170.714 524.609 Q172.542 528.151 176.153 528.151 Q179.788 528.151 181.593 524.609 Q183.422 521.045 183.422 513.938 Q183.422 506.809 181.593 503.267 Q179.788 499.702 176.153 499.702 M176.153 495.998 Q181.964 495.998 185.019 500.605 Q188.098 505.188 188.098 513.938 Q188.098 522.665 185.019 527.271 Q181.964 531.855 176.153 531.855 Q170.343 531.855 167.265 527.271 Q164.209 522.665 164.209 513.938 Q164.209 505.188 167.265 500.605 Q170.343 495.998 176.153 495.998 Z" fill="#000000" fill-rule="nonzero" fill-opacity="1" /><path clip-path="url(#clip450)" d="M51.9875 221.09 L81.6633 221.09 L81.6633 225.025 L51.9875 225.025 L51.9875 221.09 Z" fill="#000000" fill-rule="nonzero" fill-opacity="1" /><path clip-path="url(#clip450)" d="M101.756 206.437 Q98.1447 206.437 96.316 210.002 Q94.5104 213.543 94.5104 220.673 Q94.5104 227.78 96.316 231.344 Q98.1447 234.886 101.756 234.886 Q105.39 234.886 107.196 231.344 Q109.024 227.78 109.024 220.673 Q109.024 213.543 107.196 210.002 Q105.39 206.437 101.756 206.437 M101.756 202.733 Q107.566 202.733 110.621 207.34 Q113.7 211.923 113.7 220.673 Q113.7 229.4 110.621 234.006 Q107.566 238.59 101.756 238.59 Q95.9456 238.59 92.8669 234.006 Q89.8114 229.4 89.8114 220.673 Q89.8114 211.923 92.8669 207.34 Q95.9456 202.733 101.756 202.733 Z" fill="#000000" fill-rule="nonzero" fill-opacity="1" /><path clip-path="url(#clip450)" d="M121.918 232.039 L126.802 232.039 L126.802 237.918 L121.918 237.918 L121.918 232.039 Z" fill="#000000" fill-rule="nonzero" fill-opacity="1" /><path clip-path="url(#clip450)" d="M141.015 233.983 L157.334 233.983 L157.334 237.918 L135.39 237.918 L135.39 233.983 Q138.052 231.229 142.635 226.599 Q147.242 221.946 148.422 220.604 Q150.668 218.08 151.547 216.344 Q152.45 214.585 152.45 212.895 Q152.45 210.141 150.505 208.405 Q148.584 206.669 145.482 206.669 Q143.283 206.669 140.83 207.432 Q138.399 208.196 135.621 209.747 L135.621 205.025 Q138.445 203.891 140.899 203.312 Q143.353 202.733 145.39 202.733 Q150.76 202.733 153.955 205.419 Q157.149 208.104 157.149 212.594 Q157.149 214.724 156.339 216.645 Q155.552 218.543 153.445 221.136 Q152.867 221.807 149.765 225.025 Q146.663 228.219 141.015 233.983 Z" fill="#000000" fill-rule="nonzero" fill-opacity="1" /><path clip-path="url(#clip450)" d="M167.195 203.358 L185.552 203.358 L185.552 207.294 L171.478 207.294 L171.478 215.766 Q172.496 215.418 173.515 215.256 Q174.533 215.071 175.552 215.071 Q181.339 215.071 184.718 218.243 Q188.098 221.414 188.098 226.83 Q188.098 232.409 184.626 235.511 Q181.153 238.59 174.834 238.59 Q172.658 238.59 170.39 238.219 Q168.144 237.849 165.737 237.108 L165.737 232.409 Q167.82 233.543 170.042 234.099 Q172.265 234.654 174.741 234.654 Q178.746 234.654 181.084 232.548 Q183.422 230.442 183.422 226.83 Q183.422 223.219 181.084 221.113 Q178.746 219.006 174.741 219.006 Q172.866 219.006 170.991 219.423 Q169.14 219.84 167.195 220.719 L167.195 203.358 Z" fill="#000000" fill-rule="nonzero" fill-opacity="1" /><polyline clip-path="url(#clip452)" style="stroke:#009af9; stroke-linecap:round; stroke-linejoin:round; stroke-width:4; stroke-opacity:1; fill:none" points="224.098,1384.24 226.229,1371.31 228.359,1358.51 230.49,1345.84 232.621,1333.29 234.752,1320.87 236.883,1308.57 239.013,1296.39 241.144,1284.34 243.275,1272.4 245.406,1260.59 247.537,1248.89 249.667,1237.31 251.798,1225.84 253.929,1214.49 256.06,1203.25 258.19,1192.13 260.321,1181.11 262.452,1170.2 264.583,1159.41 266.714,1148.72 268.844,1138.13 270.975,1127.66 273.106,1117.28 275.237,1107.01 277.368,1096.84 279.498,1086.78 281.629,1076.81 283.76,1066.94 285.891,1057.17 288.022,1047.5 290.152,1037.93 292.283,1028.45 294.414,1019.06 296.545,1009.77 298.675,1000.57 300.806,991.461 302.937,982.444 305.068,973.516 307.199,964.678 309.329,955.927 311.46,947.264 313.591,938.687 315.722,930.195 317.853,921.788 319.983,913.465 322.114,905.224 324.245,897.066 326.376,888.989 328.507,880.993 330.637,873.076 332.768,865.238 334.899,857.478 337.03,849.795 339.16,842.189 341.291,834.659 343.422,827.204 345.553,819.823 347.684,812.515 349.814,805.28 351.945,798.117 354.076,791.026 356.207,784.005 358.338,777.054 360.468,770.173 362.599,763.36 364.73,756.614 366.861,749.936 368.992,743.324 371.122,736.779 373.253,730.298 375.384,723.882 377.515,717.529 379.645,711.24 381.776,705.014 383.907,698.849 386.038,692.746 388.169,686.704 390.299,680.722 392.43,674.799 394.561,668.936 396.692,663.131 398.823,657.383 400.953,651.694 403.084,646.06 405.215,640.483 407.346,634.962 409.477,629.495 411.607,624.084 413.738,618.726 415.869,613.421 418,608.169 420.13,602.97 422.261,597.822 424.392,592.726 426.523,587.68 428.654,582.685 430.784,577.739 432.915,572.843 435.046,567.996 437.177,563.196 439.308,558.445 441.438,553.741 443.569,549.084 445.7,544.473 447.831,539.908 449.961,535.388 452.092,530.914 454.223,526.484 456.354,522.098 458.485,517.755 460.615,513.456 462.746,509.2 464.877,504.986 467.008,500.814 469.139,496.684 471.269,492.594 473.4,488.545 475.531,484.537 477.662,480.568 479.793,476.639 481.923,472.749 484.054,468.898 486.185,465.085 488.316,461.31 490.446,457.573 492.577,453.873 494.708,450.21 496.839,446.583 498.97,442.993 501.1,439.438 503.231,435.919 505.362,432.435 507.493,428.986 509.624,425.571 511.754,422.19 513.885,418.843 516.016,415.529 518.147,412.248 520.278,409 522.408,405.784 524.539,402.601 526.67,399.449 528.801,396.328 530.931,393.239 533.062,390.18 535.193,387.152 537.324,384.154 539.455,381.186 541.585,378.248 543.716,375.339 545.847,372.458 547.978,369.607 550.109,366.784 552.239,363.989 554.37,361.221 556.501,358.482 558.632,355.769 560.763,353.084 562.893,350.425 565.024,347.793 567.155,345.186 569.286,342.606 571.416,340.052 573.547,337.523 575.678,335.019 577.809,332.54 579.94,330.085 582.07,327.655 584.201,325.249 586.332,322.867 588.463,320.509 590.594,318.174 592.724,315.862 594.855,313.573 596.986,311.308 599.117,309.064 601.247,306.843 603.378,304.645 605.509,302.468 607.64,300.313 609.771,298.179 611.901,296.066 614.032,293.975 616.163,291.905 618.294,289.855 620.425,287.825 622.555,285.816 624.686,283.827 626.817,281.858 628.948,279.909 631.079,277.978 633.209,276.068 635.34,274.176 637.471,272.303 639.602,270.449 641.732,268.613 643.863,266.796 645.994,264.996 648.125,263.215 650.256,261.451 652.386,259.706 654.517,257.977 656.648,256.266 658.779,254.571 660.91,252.894 663.04,251.233 665.171,249.589 667.302,247.961 669.433,246.35 671.564,244.754 673.694,243.175 675.825,241.611 677.956,240.063 680.087,238.53 682.217,237.012 684.348,235.51 686.479,234.022 688.61,232.549 690.741,231.091 692.871,229.647 695.002,228.218 697.133,226.803 699.264,225.402 701.395,224.014 703.525,222.641 705.656,221.281 707.787,219.935 709.918,218.602 712.049,217.282 714.179,215.975 716.31,214.682 718.441,213.401 720.572,212.133 722.702,210.878 724.833,209.635 726.964,208.404 729.095,207.186 731.226,205.98 733.356,204.785 735.487,203.603 737.618,202.433 739.749,201.274 741.88,200.127 744.01,198.991 746.141,197.866 748.272,196.753 750.403,195.651 752.534,194.56 754.664,193.48 756.795,192.41 758.926,191.352 761.057,190.304 763.187,189.266 765.318,188.239 767.449,187.221 769.58,186.215 771.711,185.218 773.841,184.231 775.972,183.254 778.103,182.287 780.234,181.329 782.365,180.381 784.495,179.442 786.626,178.513 788.757,177.593 790.888,176.683 793.018,175.781 795.149,174.888 797.28,174.005 799.411,173.13 801.542,172.263 803.672,171.406 805.803,170.557 807.934,169.716 810.065,168.884 812.196,168.06 814.326,167.244 816.457,166.437 818.588,165.637 820.719,164.845 822.85,164.062 824.98,163.286 827.111,162.517 829.242,161.757 831.373,161.004 833.503,160.258 835.634,159.52 837.765,158.789 839.896,158.065 842.027,157.349 844.157,156.639 846.288,155.937 848.419,155.242 850.55,154.553 852.681,153.871 854.811,153.197 856.942,152.528 859.073,151.867 861.204,151.212 863.335,150.563 865.465,149.921 867.596,149.285 869.727,148.656 871.858,148.033 873.988,147.416 876.119,146.805 878.25,146.2 880.381,145.602 882.512,145.009 884.642,144.422 886.773,143.841 888.904,143.266 891.035,142.697 893.166,142.133 895.296,141.575 897.427,141.022 899.558,140.475 901.689,139.934 903.82,139.398 905.95,138.867 908.081,138.342 910.212,137.822 912.343,137.307 914.473,136.797 916.604,136.292 918.735,135.792 920.866,135.298 922.997,134.808 925.127,134.323 927.258,133.843 929.389,133.368 931.52,132.898 933.651,132.432 935.781,131.971 937.912,131.515 940.043,131.063 942.174,130.615 944.304,130.173 946.435,129.734 948.566,129.3 950.697,128.87 952.828,128.445 954.958,128.024 957.089,127.607 959.22,127.194 961.351,126.785 963.482,126.38 965.612,125.98 967.743,125.583 969.874,125.19 972.005,124.801 974.136,124.417 976.266,124.035 978.397,123.658 980.528,123.284 982.659,122.915 984.789,122.548 986.92,122.186 989.051,121.827 991.182,121.471 993.313,121.119 995.443,120.771 997.574,120.426 999.705,120.084 1001.84,119.746 1003.97,119.411 1006.1,119.08 1008.23,118.751 1010.36,118.426 1012.49,118.104 1014.62,117.786 1016.75,117.47 1018.88,117.158 1021.01,116.849 1023.14,116.542 1025.27,116.239 1027.41,115.939 1029.54,115.642 1031.67,115.348 1033.8,115.057 1035.93,114.768 1038.06,114.483 1040.19,114.2 1042.32,113.92 1044.45,113.643 1046.58,113.369 1048.71,113.097 1050.84,112.829 1052.97,112.563 1055.11,112.299 1057.24,112.038 1059.37,111.78 1061.5,111.524 1063.63,111.271 1065.76,111.021 1067.89,110.773 1070.02,110.527 1072.15,110.284 1074.28,110.044 1076.41,109.805 1078.54,109.57 1080.67,109.336 1082.81,109.105 1084.94,108.876 1087.07,108.65 1089.2,108.425 1091.33,108.203 1093.46,107.983 1095.59,107.766 1097.72,107.55 1099.85,107.337 1101.98,107.126 1104.11,106.917 1106.24,106.71 1108.38,106.505 1110.51,106.302 1112.64,106.102 1114.77,105.903 1116.9,105.706 1119.03,105.511 1121.16,105.318 1123.29,105.127 1125.42,104.938 1127.55,104.751 1129.68,104.566 1131.81,104.382 1133.94,104.2 1136.08,104.021 1138.21,103.843 1140.34,103.666 1142.47,103.492 1144.6,103.319 1146.73,103.148 1148.86,102.978 1150.99,102.811 1153.12,102.645 1155.25,102.48 1157.38,102.317 1159.51,102.156 1161.64,101.996 1163.78,101.838 1165.91,101.682 1168.04,101.527 1170.17,101.374 1172.3,101.222 1174.43,101.071 1176.56,100.922 1178.69,100.775 1180.82,100.629 1182.95,100.484 1185.08,100.341 1187.21,100.199 1189.35,100.059 1191.48,99.9201 1193.61,99.7826 1195.74,99.6464 1197.87,99.5116 1200,99.3781 1202.13,99.246 1204.26,99.1151 1206.39,98.9856 1208.52,98.8574 1210.65,98.7304 1212.78,98.6047 1214.91,98.4803 1217.05,98.3571 1219.18,98.2352 1221.31,98.1145 1223.44,97.9949 1225.57,97.8766 1227.7,97.7595 1229.83,97.6435 1231.96,97.5287 1234.09,97.4151 1236.22,97.3026 1238.35,97.1912 1240.48,97.0809 1242.61,96.9718 1244.75,96.8637 1246.88,96.7568 1249.01,96.6509 1251.14,96.546 1253.27,96.4422 1255.4,96.3395 1257.53,96.2378 1259.66,96.1371 1261.79,96.0374 1263.92,95.9388 1266.05,95.8411 1268.18,95.7444 1270.32,95.6487 1272.45,95.5539 1274.58,95.4601 1276.71,95.3672 1278.84,95.2753 1280.97,95.1842 1283.1,95.0941 1285.23,95.0049 1287.36,94.9166 1289.49,94.8292 1291.62,94.7426 1293.75,94.6569 1295.88,94.5721 1298.02,94.4881 1300.15,94.4049 1302.28,94.3226 1304.41,94.2411 1306.54,94.1604 1308.67,94.0805 1310.8,94.0014 1312.93,93.9231 1315.06,93.8456 1317.19,93.7688 1319.32,93.6928 1321.45,93.6176 1323.58,93.5431 1325.72,93.4693 1327.85,93.3963 1329.98,93.3239 1332.11,93.2523 1334.24,93.1814 1336.37,93.1112 1338.5,93.0417 1340.63,92.9729 1342.76,92.9047 1344.89,92.8372 1347.02,92.7704 1349.15,92.7042 1351.29,92.6386 1353.42,92.5737 1355.55,92.5095 1357.68,92.4458 1359.81,92.3828 1361.94,92.3204 1364.07,92.2586 1366.2,92.1974 1368.33,92.1368 1370.46,92.0768 1372.59,92.0174 1374.72,91.9586 1376.85,91.9004 1378.99,91.8427 1381.12,91.7856 1383.25,91.7291 1385.38,91.6731 1387.51,91.6177 1389.64,91.5629 1391.77,91.5086 1393.9,91.4548 1396.03,91.4016 1398.16,91.3489 1400.29,91.2967 1402.42,91.2451 1404.55,91.1939 1406.69,91.1433 1408.82,91.0932 1410.95,91.0436 1413.08,90.9945 1415.21,90.9459 1417.34,90.8978 1419.47,90.8501 1421.6,90.803 1423.73,90.7563 1425.86,90.7101 1427.99,90.6643 1430.12,90.6191 1432.26,90.5742 1434.39,90.5299 1436.52,90.4859 1438.65,90.4425 1440.78,90.3994 1442.91,90.3568 1445.04,90.3147 1447.17,90.2729 1449.3,90.2316 1451.43,90.1907 1453.56,90.1502 1455.69,90.1102 1457.82,90.0705 1459.96,90.0312 1462.09,89.9924 1464.22,89.9539 1466.35,89.9158 1468.48,89.8781 1470.61,89.8408 1472.74,89.8039 1474.87,89.7674 1477,89.7312 1479.13,89.6953 1481.26,89.6599 1483.39,89.6248 1485.52,89.5901 1487.66,89.5557 1489.79,89.5216 1491.92,89.4879 1494.05,89.4546 1496.18,89.4215 1498.31,89.3888 1500.44,89.3565 1502.57,89.3244 1504.7,89.2927 1506.83,89.2613 1508.96,89.2302 1511.09,89.1995 1513.23,89.169 1515.36,89.1388 1517.49,89.109 1519.62,89.0794 1521.75,89.0501 1523.88,89.0211 1526.01,88.9924 1528.14,88.964 1530.27,88.9359 1532.4,88.908 1534.53,88.8804 1536.66,88.8531 1538.79,88.8261 1540.93,88.7993 1543.06,88.7728 1545.19,88.7465 1547.32,88.7205 1549.45,88.6947 1551.58,88.6692 1553.71,88.6439 1555.84,88.6189 1557.97,88.5941 1560.1,88.5695 1562.23,88.5452 1564.36,88.5211 1566.49,88.4973 1568.63,88.4736 1570.76,88.4502 1572.89,88.427 1575.02,88.4041 1577.15,88.3813 1579.28,88.3588 1581.41,88.3365 1583.54,88.3144 1585.67,88.2926 1587.8,88.2709 1589.93,88.2495 1592.06,88.2282 1594.2,88.2072 1596.33,88.1864 1598.46,88.1658 1600.59,88.1453 1602.72,88.1251 1604.85,88.1051 1606.98,88.0853 1609.11,88.0657 1611.24,88.0463 1613.37,88.027 1615.5,88.008 1617.63,87.9892 1619.76,87.9705 1621.9,87.952 1624.03,87.9337 1626.16,87.9156 1628.29,87.8977 1630.42,87.88 1632.55,87.8624 1634.68,87.845 1636.81,87.8278 1638.94,87.8108 1641.07,87.7939 1643.2,87.7772 1645.33,87.7607 1647.46,87.7444 1649.6,87.7282 1651.73,87.7121 1653.86,87.6963 1655.99,87.6806 1658.12,87.6651 1660.25,87.6497 1662.38,87.6345 1664.51,87.6194 1666.64,87.6045 1668.77,87.5897 1670.9,87.5751 1673.03,87.5607 1675.17,87.5463 1677.3,87.5322 1679.43,87.5182 1681.56,87.5043 1683.69,87.4906 1685.82,87.477 1687.95,87.4635 1690.08,87.4502 1692.21,87.4371 1694.34,87.424 1696.47,87.4111 1698.6,87.3984 1700.73,87.3857 1702.87,87.3732 1705,87.3608 1707.13,87.3486 1709.26,87.3365 1711.39,87.3245 1713.52,87.3126 1715.65,87.3008 1717.78,87.2892 1719.91,87.2777 1722.04,87.2663 1724.17,87.255 1726.3,87.2438 1728.43,87.2328 1730.57,87.2218 1732.7,87.211 1734.83,87.2003 1736.96,87.1897 1739.09,87.1792 1741.22,87.1688 1743.35,87.1585 1745.48,87.1483 1747.61,87.1382 1749.74,87.1282 1751.87,87.1184 1754,87.1086 1756.14,87.0989 1758.27,87.0893 1760.4,87.0798 1762.53,87.0704 1764.66,87.0611 1766.79,87.0519 1768.92,87.0427 1771.05,87.0337 1773.18,87.0247 1775.31,87.0159 1777.44,87.0071 1779.57,86.9984 1781.7,86.9898 1783.84,86.9813 1785.97,86.9728 1788.1,86.9644 1790.23,86.9561 1792.36,86.9479 1794.49,86.9398 1796.62,86.9317 1798.75,86.9237 1800.88,86.9158 1803.01,86.908 1805.14,86.9002 1807.27,86.8925 1809.4,86.8849 1811.54,86.8773 1813.67,86.8698 1815.8,86.8624 1817.93,86.855 1820.06,86.8477 1822.19,86.8405 1824.32,86.8333 1826.45,86.8263 1828.58,86.8192 1830.71,86.8123 1832.84,86.8054 1834.97,86.7986 1837.11,86.7918 1839.24,86.7851 1841.37,86.7785 1843.5,86.772 1845.63,86.7655 1847.76,86.759 1849.89,86.7527 1852.02,86.7463 1854.15,86.7401 1856.28,86.7339 1858.41,86.7278 1860.54,86.7217 1862.67,86.7157 1864.81,86.7098 1866.94,86.7039 1869.07,86.6981 1871.2,86.6923 1873.33,86.6866 1875.46,86.6809 1877.59,86.6753 1879.72,86.6698 1881.85,86.6643 1883.98,86.6589 1886.11,86.6535 1888.24,86.6482 1890.37,86.6429 1892.51,86.6377 1894.64,86.6325 1896.77,86.6274 1898.9,86.6224 1901.03,86.6174 1903.16,86.6124 1905.29,86.6075 1907.42,86.6027 1909.55,86.5979 1911.68,86.5931 1913.81,86.5884 1915.94,86.5838 1918.07,86.5792 1920.21,86.5746 1922.34,86.5701 1924.47,86.5657 1926.6,86.5613 1928.73,86.5569 1930.86,86.5526 1932.99,86.5483 1935.12,86.5441 1937.25,86.5399 1939.38,86.5358 1941.51,86.5317 1943.64,86.5276 1945.78,86.5236 1947.91,86.5197 1950.04,86.5157 1952.17,86.5119 1954.3,86.508 1956.43,86.5042 1958.56,86.5005 1960.69,86.4967 1962.82,86.4931 1964.95,86.4894 1967.08,86.4858 1969.21,86.4823 1971.34,86.4788 1973.48,86.4753 1975.61,86.4718 1977.74,86.4684 1979.87,86.465 1982,86.4617 1984.13,86.4584 1986.26,86.4551 1988.39,86.4519 1990.52,86.4487 1992.65,86.4455 1994.78,86.4424 1996.91,86.4393 1999.04,86.4363 2001.18,86.4332 2003.31,86.4302 2005.44,86.4273 2007.57,86.4243 2009.7,86.4214 2011.83,86.4185 2013.96,86.4157 2016.09,86.4129 2018.22,86.4101 2020.35,86.4073 2022.48,86.4046 2024.61,86.4019 2026.75,86.3992 2028.88,86.3966 2031.01,86.394 2033.14,86.3914 2035.27,86.3888 2037.4,86.3862 2039.53,86.3837 2041.66,86.3812 2043.79,86.3788 2045.92,86.3763 2048.05,86.3739 2050.18,86.3715 2052.31,86.3691 2054.45,86.3668 2056.58,86.3644 2058.71,86.3621 2060.84,86.3598 2062.97,86.3575 2065.1,86.3553 2067.23,86.3531 2069.36,86.3508 2071.49,86.3487 2073.62,86.3465 2075.75,86.3443 2077.88,86.3422 2080.01,86.3401 2082.15,86.338 2084.28,86.3359 2086.41,86.3338 2088.54,86.3317 2090.67,86.3297 2092.8,86.3277 2094.93,86.3257 2097.06,86.3237 2099.19,86.3217 2101.32,86.3197 2103.45,86.3178 2105.58,86.3159 2107.72,86.314 2109.85,86.3121 2111.98,86.3103 2114.11,86.3084 2116.24,86.3066 2118.37,86.3048 2120.5,86.303 2122.63,86.3012 2124.76,86.2995 2126.89,86.2977 2129.02,86.296 2131.15,86.2943 2133.28,86.2926 2135.42,86.291 2137.55,86.2893 2139.68,86.2877 2141.81,86.286 2143.94,86.2844 2146.07,86.2828 2148.2,86.2813 2150.33,86.2797 2152.46,86.2782 2154.59,86.2766 2156.72,86.2751 2158.85,86.2736 2160.98,86.2722 2163.12,86.2707 2165.25,86.2692 2167.38,86.2678 2169.51,86.2664 2171.64,86.265 2173.77,86.2636 2175.9,86.2622 2178.03,86.2608 2180.16,86.2595 2182.29,86.2581 2184.42,86.2568 2186.55,86.2555 2188.69,86.2542 2190.82,86.2529 2192.95,86.2517 2195.08,86.2504 2197.21,86.2492 2199.34,86.2479 2201.47,86.2467 2203.6,86.2455 2205.73,86.2443 2207.86,86.2431 2209.99,86.242 2212.12,86.2408 2214.25,86.2397 2216.39,86.2385 2218.52,86.2374 2220.65,86.2363 2222.78,86.2352 2224.91,86.2341 2227.04,86.233 2229.17,86.232 2231.3,86.2309 2233.43,86.2299 2235.56,86.2288 2237.69,86.2278 2239.82,86.2268 2241.95,86.2258 2244.09,86.2248 2246.22,86.2238 2248.35,86.2229 2250.48,86.2219 2252.61,86.221 2254.74,86.22 2256.87,86.2191 2259,86.2182 2261.13,86.2173 2263.26,86.2164 2265.39,86.2155 2267.52,86.2146 2269.66,86.2137 2271.79,86.2129 2273.92,86.212 2276.05,86.2112 2278.18,86.2103 2280.31,86.2095 2282.44,86.2087 2284.57,86.2079 2286.7,86.2071 2288.83,86.2063 2290.96,86.2055 2293.09,86.2047 2295.22,86.2039 2297.36,86.2032 2299.49,86.2024 2301.62,86.2017 2303.75,86.2009 2305.88,86.2002 2308.01,86.1995 2310.14,86.1987 2312.27,86.198 2314.4,86.1973 2316.53,86.1966 2318.66,86.1959 2320.79,86.1952 2322.92,86.1946 2325.06,86.1939 2327.19,86.1932 2329.32,86.1926 2331.45,86.1919 2333.58,86.1913 2335.71,86.1906 2337.84,86.19 2339.97,86.1893 2342.1,86.1887 2344.23,86.1881 2346.36,86.1875 2348.49,86.1869 2350.63,86.1863 2352.76,86.1857 "/>
<polyline clip-path="url(#clip452)" style="stroke:#e26f46; stroke-linecap:round; stroke-linejoin:round; stroke-width:4; stroke-opacity:1; fill:none" points="224.098,988.085 226.229,983.122 228.359,978.184 230.49,973.271 232.621,968.383 234.752,963.521 236.883,958.683 239.013,953.871 241.144,949.083 243.275,944.319 245.406,939.58 247.537,934.866 249.667,930.175 251.798,925.509 253.929,920.867 256.06,916.249 258.19,911.655 260.321,907.085 262.452,902.538 264.583,898.015 266.714,893.515 268.844,889.039 270.975,884.585 273.106,880.155 275.237,875.748 277.368,871.364 279.498,867.003 281.629,862.664 283.76,858.348 285.891,854.055 288.022,849.784 290.152,845.535 292.283,841.309 294.414,837.105 296.545,832.922 298.675,828.762 300.806,824.623 302.937,820.506 305.068,816.411 307.199,812.337 309.329,808.285 311.46,804.254 313.591,800.244 315.722,796.255 317.853,792.288 319.983,788.341 322.114,784.415 324.245,780.51 326.376,776.625 328.507,772.761 330.637,768.917 332.768,765.094 334.899,761.291 337.03,757.508 339.16,753.745 341.291,750.003 343.422,746.28 345.553,742.577 347.684,738.893 349.814,735.229 351.945,731.585 354.076,727.96 356.207,724.354 358.338,720.768 360.468,717.2 362.599,713.652 364.73,710.123 366.861,706.612 368.992,703.121 371.122,699.648 373.253,696.193 375.384,692.757 377.515,689.34 379.645,685.941 381.776,682.56 383.907,679.197 386.038,675.852 388.169,672.525 390.299,669.217 392.43,665.925 394.561,662.652 396.692,659.396 398.823,656.158 400.953,652.937 403.084,649.734 405.215,646.548 407.346,643.379 409.477,640.227 411.607,637.092 413.738,633.975 415.869,630.874 418,627.789 420.13,624.722 422.261,621.671 424.392,618.637 426.523,615.619 428.654,612.617 430.784,609.632 432.915,606.663 435.046,603.71 437.177,600.773 439.308,597.852 441.438,594.947 443.569,592.058 445.7,589.185 447.831,586.327 449.961,583.485 452.092,580.658 454.223,577.847 456.354,575.051 458.485,572.27 460.615,569.504 462.746,566.754 464.877,564.019 467.008,561.298 469.139,558.593 471.269,555.902 473.4,553.226 475.531,550.565 477.662,547.918 479.793,545.286 481.923,542.668 484.054,540.064 486.185,537.475 488.316,534.9 490.446,532.34 492.577,529.793 494.708,527.26 496.839,524.741 498.97,522.237 501.1,519.745 503.231,517.268 505.362,514.804 507.493,512.354 509.624,509.917 511.754,507.494 513.885,505.084 516.016,502.688 518.147,500.305 520.278,497.934 522.408,495.577 524.539,493.233 526.67,490.902 528.801,488.584 530.931,486.279 533.062,483.986 535.193,481.706 537.324,479.439 539.455,477.184 541.585,474.942 543.716,472.712 545.847,470.495 547.978,468.29 550.109,466.097 552.239,463.916 554.37,461.748 556.501,459.591 558.632,457.447 560.763,455.314 562.893,453.194 565.024,451.085 567.155,448.987 569.286,446.902 571.416,444.828 573.547,442.766 575.678,440.715 577.809,438.676 579.94,436.648 582.07,434.631 584.201,432.626 586.332,430.631 588.463,428.648 590.594,426.676 592.724,424.715 594.855,422.765 596.986,420.826 599.117,418.898 601.247,416.98 603.378,415.074 605.509,413.178 607.64,411.292 609.771,409.417 611.901,407.553 614.032,405.699 616.163,403.855 618.294,402.022 620.425,400.199 622.555,398.387 624.686,396.584 626.817,394.792 628.948,393.009 631.079,391.237 633.209,389.475 635.34,387.722 637.471,385.98 639.602,384.247 641.732,382.524 643.863,380.811 645.994,379.107 648.125,377.413 650.256,375.729 652.386,374.054 654.517,372.388 656.648,370.732 658.779,369.085 660.91,367.447 663.04,365.819 665.171,364.2 667.302,362.59 669.433,360.989 671.564,359.397 673.694,357.814 675.825,356.24 677.956,354.675 680.087,353.119 682.217,351.572 684.348,350.033 686.479,348.503 688.61,346.982 690.741,345.469 692.871,343.965 695.002,342.47 697.133,340.982 699.264,339.504 701.395,338.034 703.525,336.572 705.656,335.118 707.787,333.673 709.918,332.235 712.049,330.806 714.179,329.385 716.31,327.972 718.441,326.568 720.572,325.171 722.702,323.782 724.833,322.401 726.964,321.028 729.095,319.662 731.226,318.305 733.356,316.955 735.487,315.612 737.618,314.278 739.749,312.951 741.88,311.632 744.01,310.32 746.141,309.015 748.272,307.718 750.403,306.429 752.534,305.146 754.664,303.871 756.795,302.604 758.926,301.343 761.057,300.09 763.187,298.844 765.318,297.605 767.449,296.373 769.58,295.148 771.711,293.93 773.841,292.719 775.972,291.515 778.103,290.318 780.234,289.128 782.365,287.945 784.495,286.768 786.626,285.598 788.757,284.435 790.888,283.278 793.018,282.128 795.149,280.985 797.28,279.848 799.411,278.717 801.542,277.593 803.672,276.476 805.803,275.365 807.934,274.26 810.065,273.162 812.196,272.07 814.326,270.984 816.457,269.904 818.588,268.831 820.719,267.764 822.85,266.703 824.98,265.648 827.111,264.599 829.242,263.556 831.373,262.519 833.503,261.488 835.634,260.463 837.765,259.443 839.896,258.43 842.027,257.423 844.157,256.421 846.288,255.425 848.419,254.435 850.55,253.45 852.681,252.471 854.811,251.498 856.942,250.53 859.073,249.568 861.204,248.612 863.335,247.661 865.465,246.715 867.596,245.775 869.727,244.84 871.858,243.911 873.988,242.987 876.119,242.068 878.25,241.155 880.381,240.247 882.512,239.344 884.642,238.447 886.773,237.554 888.904,236.667 891.035,235.785 893.166,234.907 895.296,234.035 897.427,233.168 899.558,232.306 901.689,231.449 903.82,230.597 905.95,229.75 908.081,228.908 910.212,228.071 912.343,227.238 914.473,226.41 916.604,225.587 918.735,224.769 920.866,223.956 922.997,223.147 925.127,222.343 927.258,221.544 929.389,220.749 931.52,219.959 933.651,219.173 935.781,218.392 937.912,217.615 940.043,216.843 942.174,216.076 944.304,215.313 946.435,214.554 948.566,213.8 950.697,213.05 952.828,212.304 954.958,211.563 957.089,210.826 959.22,210.093 961.351,209.365 963.482,208.641 965.612,207.92 967.743,207.205 969.874,206.493 972.005,205.785 974.136,205.082 976.266,204.382 978.397,203.687 980.528,202.996 982.659,202.309 984.789,201.625 986.92,200.946 989.051,200.27 991.182,199.599 993.313,198.931 995.443,198.268 997.574,197.608 999.705,196.952 1001.84,196.3 1003.97,195.651 1006.1,195.007 1008.23,194.366 1010.36,193.729 1012.49,193.095 1014.62,192.466 1016.75,191.839 1018.88,191.217 1021.01,190.598 1023.14,189.983 1025.27,189.371 1027.41,188.763 1029.54,188.159 1031.67,187.558 1033.8,186.96 1035.93,186.366 1038.06,185.775 1040.19,185.188 1042.32,184.604 1044.45,184.024 1046.58,183.447 1048.71,182.874 1050.84,182.303 1052.97,181.736 1055.11,181.173 1057.24,180.612 1059.37,180.055 1061.5,179.502 1063.63,178.951 1065.76,178.404 1067.89,177.859 1070.02,177.319 1072.15,176.781 1074.28,176.246 1076.41,175.714 1078.54,175.186 1080.67,174.661 1082.81,174.138 1084.94,173.619 1087.07,173.103 1089.2,172.59 1091.33,172.079 1093.46,171.572 1095.59,171.068 1097.72,170.567 1099.85,170.068 1101.98,169.573 1104.11,169.08 1106.24,168.59 1108.38,168.104 1110.51,167.62 1112.64,167.138 1114.77,166.66 1116.9,166.184 1119.03,165.712 1121.16,165.242 1123.29,164.774 1125.42,164.31 1127.55,163.848 1129.68,163.389 1131.81,162.933 1133.94,162.479 1136.08,162.028 1138.21,161.579 1140.34,161.133 1142.47,160.69 1144.6,160.25 1146.73,159.811 1148.86,159.376 1150.99,158.943 1153.12,158.513 1155.25,158.085 1157.38,157.659 1159.51,157.236 1161.64,156.816 1163.78,156.398 1165.91,155.983 1168.04,155.57 1170.17,155.159 1172.3,154.751 1174.43,154.345 1176.56,153.941 1178.69,153.54 1180.82,153.142 1182.95,152.745 1185.08,152.351 1187.21,151.959 1189.35,151.57 1191.48,151.183 1193.61,150.798 1195.74,150.415 1197.87,150.035 1200,149.656 1202.13,149.28 1204.26,148.907 1206.39,148.535 1208.52,148.166 1210.65,147.798 1212.78,147.433 1214.91,147.07 1217.05,146.71 1219.18,146.351 1221.31,145.994 1223.44,145.64 1225.57,145.288 1227.7,144.937 1229.83,144.589 1231.96,144.243 1234.09,143.899 1236.22,143.556 1238.35,143.216 1240.48,142.878 1242.61,142.542 1244.75,142.208 1246.88,141.876 1249.01,141.545 1251.14,141.217 1253.27,140.891 1255.4,140.566 1257.53,140.244 1259.66,139.923 1261.79,139.604 1263.92,139.288 1266.05,138.973 1268.18,138.659 1270.32,138.348 1272.45,138.039 1274.58,137.731 1276.71,137.425 1278.84,137.121 1280.97,136.819 1283.1,136.518 1285.23,136.22 1287.36,135.923 1289.49,135.627 1291.62,135.334 1293.75,135.042 1295.88,134.752 1298.02,134.464 1300.15,134.177 1302.28,133.892 1304.41,133.609 1306.54,133.328 1308.67,133.048 1310.8,132.769 1312.93,132.493 1315.06,132.218 1317.19,131.944 1319.32,131.673 1321.45,131.402 1323.58,131.134 1325.72,130.867 1327.85,130.601 1329.98,130.338 1332.11,130.075 1334.24,129.815 1336.37,129.555 1338.5,129.298 1340.63,129.041 1342.76,128.787 1344.89,128.534 1347.02,128.282 1349.15,128.032 1351.29,127.783 1353.42,127.536 1355.55,127.29 1357.68,127.046 1359.81,126.803 1361.94,126.561 1364.07,126.321 1366.2,126.082 1368.33,125.845 1370.46,125.609 1372.59,125.375 1374.72,125.142 1376.85,124.91 1378.99,124.68 1381.12,124.451 1383.25,124.223 1385.38,123.997 1387.51,123.772 1389.64,123.548 1391.77,123.326 1393.9,123.105 1396.03,122.885 1398.16,122.667 1400.29,122.45 1402.42,122.234 1404.55,122.02 1406.69,121.806 1408.82,121.594 1410.95,121.384 1413.08,121.174 1415.21,120.966 1417.34,120.759 1419.47,120.553 1421.6,120.349 1423.73,120.145 1425.86,119.943 1427.99,119.742 1430.12,119.542 1432.26,119.344 1434.39,119.146 1436.52,118.95 1438.65,118.755 1440.78,118.561 1442.91,118.368 1445.04,118.177 1447.17,117.986 1449.3,117.797 1451.43,117.609 1453.56,117.421 1455.69,117.235 1457.82,117.05 1459.96,116.867 1462.09,116.684 1464.22,116.502 1466.35,116.322 1468.48,116.142 1470.61,115.964 1472.74,115.786 1474.87,115.61 1477,115.435 1479.13,115.26 1481.26,115.087 1483.39,114.915 1485.52,114.744 1487.66,114.574 1489.79,114.404 1491.92,114.236 1494.05,114.069 1496.18,113.903 1498.31,113.738 1500.44,113.574 1502.57,113.41 1504.7,113.248 1506.83,113.087 1508.96,112.926 1511.09,112.767 1513.23,112.608 1515.36,112.451 1517.49,112.294 1519.62,112.139 1521.75,111.984 1523.88,111.83 1526.01,111.677 1528.14,111.525 1530.27,111.374 1532.4,111.224 1534.53,111.075 1536.66,110.926 1538.79,110.779 1540.93,110.632 1543.06,110.486 1545.19,110.341 1547.32,110.197 1549.45,110.054 1551.58,109.911 1553.71,109.77 1555.84,109.629 1557.97,109.489 1560.1,109.35 1562.23,109.212 1564.36,109.074 1566.49,108.938 1568.63,108.802 1570.76,108.667 1572.89,108.533 1575.02,108.399 1577.15,108.267 1579.28,108.135 1581.41,108.004 1583.54,107.874 1585.67,107.744 1587.8,107.615 1589.93,107.487 1592.06,107.36 1594.2,107.234 1596.33,107.108 1598.46,106.983 1600.59,106.859 1602.72,106.735 1604.85,106.612 1606.98,106.49 1609.11,106.369 1611.24,106.248 1613.37,106.128 1615.5,106.009 1617.63,105.891 1619.76,105.773 1621.9,105.656 1624.03,105.54 1626.16,105.424 1628.29,105.309 1630.42,105.195 1632.55,105.081 1634.68,104.968 1636.81,104.856 1638.94,104.744 1641.07,104.633 1643.2,104.523 1645.33,104.413 1647.46,104.304 1649.6,104.196 1651.73,104.088 1653.86,103.981 1655.99,103.875 1658.12,103.769 1660.25,103.664 1662.38,103.56 1664.51,103.456 1666.64,103.352 1668.77,103.25 1670.9,103.148 1673.03,103.046 1675.17,102.945 1677.3,102.845 1679.43,102.746 1681.56,102.646 1683.69,102.548 1685.82,102.45 1687.95,102.353 1690.08,102.256 1692.21,102.16 1694.34,102.064 1696.47,101.969 1698.6,101.875 1700.73,101.781 1702.87,101.688 1705,101.595 1707.13,101.503 1709.26,101.411 1711.39,101.32 1713.52,101.23 1715.65,101.14 1717.78,101.05 1719.91,100.961 1722.04,100.873 1724.17,100.785 1726.3,100.698 1728.43,100.611 1730.57,100.524 1732.7,100.439 1734.83,100.353 1736.96,100.268 1739.09,100.184 1741.22,100.1 1743.35,100.017 1745.48,99.9343 1747.61,99.852 1749.74,99.7702 1751.87,99.6888 1754,99.608 1756.14,99.5276 1758.27,99.4477 1760.4,99.3683 1762.53,99.2894 1764.66,99.2109 1766.79,99.1329 1768.92,99.0553 1771.05,98.9783 1773.18,98.9016 1775.31,98.8255 1777.44,98.7497 1779.57,98.6745 1781.7,98.5996 1783.84,98.5253 1785.97,98.4513 1788.1,98.3778 1790.23,98.3047 1792.36,98.2321 1794.49,98.1599 1796.62,98.0881 1798.75,98.0168 1800.88,97.9459 1803.01,97.8754 1805.14,97.8053 1807.27,97.7356 1809.4,97.6663 1811.54,97.5975 1813.67,97.529 1815.8,97.461 1817.93,97.3933 1820.06,97.3261 1822.19,97.2593 1824.32,97.1928 1826.45,97.1268 1828.58,97.0611 1830.71,96.9958 1832.84,96.9309 1834.97,96.8664 1837.11,96.8023 1839.24,96.7385 1841.37,96.6752 1843.5,96.6122 1845.63,96.5496 1847.76,96.4873 1849.89,96.4255 1852.02,96.3639 1854.15,96.3028 1856.28,96.242 1858.41,96.1816 1860.54,96.1216 1862.67,96.0619 1864.81,96.0025 1866.94,95.9435 1869.07,95.8849 1871.2,95.8266 1873.33,95.7687 1875.46,95.7111 1877.59,95.6538 1879.72,95.5969 1881.85,95.5403 1883.98,95.4841 1886.11,95.4282 1888.24,95.3727 1890.37,95.3174 1892.51,95.2625 1894.64,95.208 1896.77,95.1537 1898.9,95.0998 1901.03,95.0462 1903.16,94.9929 1905.29,94.94 1907.42,94.8873 1909.55,94.835 1911.68,94.783 1913.81,94.7313 1915.94,94.6799 1918.07,94.6288 1920.21,94.578 1922.34,94.5275 1924.47,94.4774 1926.6,94.4275 1928.73,94.3779 1930.86,94.3287 1932.99,94.2797 1935.12,94.231 1937.25,94.1826 1939.38,94.1345 1941.51,94.0867 1943.64,94.0391 1945.78,93.9919 1947.91,93.9449 1950.04,93.8983 1952.17,93.8519 1954.3,93.8057 1956.43,93.7599 1958.56,93.7143 1960.69,93.669 1962.82,93.624 1964.95,93.5792 1967.08,93.5348 1969.21,93.4905 1971.34,93.4466 1973.48,93.4029 1975.61,93.3595 1977.74,93.3163 1979.87,93.2734 1982,93.2307 1984.13,93.1883 1986.26,93.1462 1988.39,93.1043 1990.52,93.0626 1992.65,93.0212 1994.78,92.9801 1996.91,92.9392 1999.04,92.8985 2001.18,92.8581 2003.31,92.8179 2005.44,92.778 2007.57,92.7383 2009.7,92.6989 2011.83,92.6596 2013.96,92.6207 2016.09,92.5819 2018.22,92.5434 2020.35,92.5051 2022.48,92.467 2024.61,92.4292 2026.75,92.3916 2028.88,92.3542 2031.01,92.317 2033.14,92.2801 2035.27,92.2434 2037.4,92.2069 2039.53,92.1706 2041.66,92.1345 2043.79,92.0986 2045.92,92.063 2048.05,92.0276 2050.18,91.9923 2052.31,91.9573 2054.45,91.9225 2056.58,91.8879 2058.71,91.8535 2060.84,91.8193 2062.97,91.7854 2065.1,91.7516 2067.23,91.718 2069.36,91.6846 2071.49,91.6514 2073.62,91.6184 2075.75,91.5856 2077.88,91.553 2080.01,91.5206 2082.15,91.4884 2084.28,91.4564 2086.41,91.4245 2088.54,91.3929 2090.67,91.3614 2092.8,91.3301 2094.93,91.299 2097.06,91.2681 2099.19,91.2374 2101.32,91.2068 2103.45,91.1765 2105.58,91.1463 2107.72,91.1163 2109.85,91.0865 2111.98,91.0568 2114.11,91.0273 2116.24,90.998 2118.37,90.9689 2120.5,90.94 2122.63,90.9112 2124.76,90.8826 2126.89,90.8541 2129.02,90.8259 2131.15,90.7978 2133.28,90.7699 2135.42,90.7421 2137.55,90.7145 2139.68,90.6871 2141.81,90.6598 2143.94,90.6327 2146.07,90.6057 2148.2,90.5789 2150.33,90.5523 2152.46,90.5259 2154.59,90.4995 2156.72,90.4734 2158.85,90.4474 2160.98,90.4216 2163.12,90.3959 2165.25,90.3703 2167.38,90.345 2169.51,90.3197 2171.64,90.2947 2173.77,90.2697 2175.9,90.245 2178.03,90.2203 2180.16,90.1959 2182.29,90.1715 2184.42,90.1473 2186.55,90.1233 2188.69,90.0994 2190.82,90.0756 2192.95,90.052 2195.08,90.0286 2197.21,90.0052 2199.34,89.982 2201.47,89.959 2203.6,89.9361 2205.73,89.9133 2207.86,89.8907 2209.99,89.8682 2212.12,89.8458 2214.25,89.8235 2216.39,89.8014 2218.52,89.7795 2220.65,89.7576 2222.78,89.7359 2224.91,89.7144 2227.04,89.6929 2229.17,89.6716 2231.3,89.6504 2233.43,89.6293 2235.56,89.6084 2237.69,89.5876 2239.82,89.5669 2241.95,89.5463 2244.09,89.5259 2246.22,89.5056 2248.35,89.4854 2250.48,89.4653 2252.61,89.4454 2254.74,89.4255 2256.87,89.4058 2259,89.3862 2261.13,89.3667 2263.26,89.3474 2265.39,89.3281 2267.52,89.309 2269.66,89.29 2271.79,89.2711 2273.92,89.2523 2276.05,89.2336 2278.18,89.215 2280.31,89.1966 2282.44,89.1782 2284.57,89.16 2286.7,89.1418 2288.83,89.1238 2290.96,89.1059 2293.09,89.0881 2295.22,89.0704 2297.36,89.0528 2299.49,89.0353 2301.62,89.0179 2303.75,89.0007 2305.88,88.9835 2308.01,88.9664 2310.14,88.9494 2312.27,88.9326 2314.4,88.9158 2316.53,88.8991 2318.66,88.8826 2320.79,88.8661 2322.92,88.8497 2325.06,88.8334 2327.19,88.8172 2329.32,88.8012 2331.45,88.7852 2333.58,88.7693 2335.71,88.7535 2337.84,88.7378 2339.97,88.7222 2342.1,88.7066 2344.23,88.6912 2346.36,88.6759 2348.49,88.6606 2350.63,88.6455 2352.76,88.6304 "/>
<path clip-path="url(#clip450)" d="M1809.54 1377.32 L2281.8 1377.32 L2281.8 1221.8 L1809.54 1221.8  Z" fill="#ffffff" fill-rule="evenodd" fill-opacity="1"/>
<polyline clip-path="url(#clip450)" style="stroke:#000000; stroke-linecap:round; stroke-linejoin:round; stroke-width:4; stroke-opacity:1; fill:none" points="1809.54,1377.32 2281.8,1377.32 2281.8,1221.8 1809.54,1221.8 1809.54,1377.32 "/>
<polyline clip-path="url(#clip450)" style="stroke:#009af9; stroke-linecap:round; stroke-linejoin:round; stroke-width:4; stroke-opacity:1; fill:none" points="1833.19,1273.64 1975.1,1273.64 "/>
<path clip-path="url(#clip450)" d="M1998.75 1264.99 L2003.27 1264.99 L2011.37 1286.75 L2019.47 1264.99 L2023.98 1264.99 L2014.26 1290.92 L2008.47 1290.92 L1998.75 1264.99 Z" fill="#000000" fill-rule="nonzero" fill-opacity="1" /><path clip-path="url(#clip450)" d="M2031.28 1286.98 L2038.91 1286.98 L2038.91 1260.61 L2030.6 1262.28 L2030.6 1258.02 L2038.87 1256.36 L2043.54 1256.36 L2043.54 1286.98 L2051.18 1286.98 L2051.18 1290.92 L2031.28 1290.92 L2031.28 1286.98 Z" fill="#000000" fill-rule="nonzero" fill-opacity="1" /><path clip-path="url(#clip450)" d="M2069.28 1274.27 L2069.28 1281.49 L2077.41 1281.49 L2077.41 1283.69 L2069.28 1283.69 L2069.28 1290.92 L2066.85 1290.92 L2066.85 1283.69 L2058.73 1283.69 L2058.73 1281.49 L2066.85 1281.49 L2066.85 1274.27 L2069.28 1274.27 Z" fill="#000000" fill-rule="nonzero" fill-opacity="1" /><path clip-path="url(#clip450)" d="M2101.58 1265.75 L2101.58 1269.78 Q2099.77 1268.86 2097.83 1268.39 Q2095.88 1267.93 2093.8 1267.93 Q2090.63 1267.93 2089.03 1268.9 Q2087.46 1269.87 2087.46 1271.82 Q2087.46 1273.3 2088.59 1274.16 Q2089.72 1274.99 2093.15 1275.75 L2094.61 1276.08 Q2099.15 1277.05 2101.04 1278.83 Q2102.96 1280.59 2102.96 1283.76 Q2102.96 1287.37 2100.09 1289.48 Q2097.25 1291.59 2092.25 1291.59 Q2090.16 1291.59 2087.9 1291.17 Q2085.65 1290.78 2083.15 1289.97 L2083.15 1285.57 Q2085.51 1286.79 2087.8 1287.42 Q2090.09 1288.02 2092.34 1288.02 Q2095.35 1288.02 2096.97 1287 Q2098.59 1285.96 2098.59 1284.09 Q2098.59 1282.35 2097.41 1281.42 Q2096.25 1280.5 2092.29 1279.64 L2090.81 1279.3 Q2086.85 1278.46 2085.09 1276.75 Q2083.34 1275.01 2083.34 1272 Q2083.34 1268.35 2085.93 1266.36 Q2088.52 1264.36 2093.29 1264.36 Q2095.65 1264.36 2097.73 1264.71 Q2099.82 1265.06 2101.58 1265.75 Z" fill="#000000" fill-rule="nonzero" fill-opacity="1" /><path clip-path="url(#clip450)" d="M2113.96 1257.63 L2113.96 1264.99 L2122.73 1264.99 L2122.73 1268.3 L2113.96 1268.3 L2113.96 1282.37 Q2113.96 1285.54 2114.82 1286.45 Q2115.7 1287.35 2118.36 1287.35 L2122.73 1287.35 L2122.73 1290.92 L2118.36 1290.92 Q2113.43 1290.92 2111.55 1289.09 Q2109.68 1287.23 2109.68 1282.37 L2109.68 1268.3 L2106.55 1268.3 L2106.55 1264.99 L2109.68 1264.99 L2109.68 1257.63 L2113.96 1257.63 Z" fill="#000000" fill-rule="nonzero" fill-opacity="1" /><path clip-path="url(#clip450)" d="M2138.38 1267.98 Q2134.96 1267.98 2132.96 1270.66 Q2130.97 1273.32 2130.97 1277.98 Q2130.97 1282.63 2132.94 1285.31 Q2134.93 1287.98 2138.38 1287.98 Q2141.78 1287.98 2143.77 1285.29 Q2145.77 1282.61 2145.77 1277.98 Q2145.77 1273.37 2143.77 1270.68 Q2141.78 1267.98 2138.38 1267.98 M2138.38 1264.36 Q2143.94 1264.36 2147.11 1267.98 Q2150.28 1271.59 2150.28 1277.98 Q2150.28 1284.34 2147.11 1287.98 Q2143.94 1291.59 2138.38 1291.59 Q2132.8 1291.59 2129.63 1287.98 Q2126.48 1284.34 2126.48 1277.98 Q2126.48 1271.59 2129.63 1267.98 Q2132.8 1264.36 2138.38 1264.36 Z" fill="#000000" fill-rule="nonzero" fill-opacity="1" /><path clip-path="url(#clip450)" d="M2172.36 1268.97 Q2171.64 1268.55 2170.79 1268.37 Q2169.95 1268.16 2168.94 1268.16 Q2165.33 1268.16 2163.38 1270.52 Q2161.46 1272.86 2161.46 1277.26 L2161.46 1290.92 L2157.18 1290.92 L2157.18 1264.99 L2161.46 1264.99 L2161.46 1269.02 Q2162.8 1266.66 2164.95 1265.52 Q2167.11 1264.36 2170.19 1264.36 Q2170.63 1264.36 2171.16 1264.43 Q2171.69 1264.48 2172.34 1264.6 L2172.36 1268.97 Z" fill="#000000" fill-rule="nonzero" fill-opacity="1" /><path clip-path="url(#clip450)" d="M2188.61 1277.88 Q2183.45 1277.88 2181.46 1279.06 Q2179.47 1280.24 2179.47 1283.09 Q2179.47 1285.36 2180.95 1286.7 Q2182.45 1288.02 2185.02 1288.02 Q2188.57 1288.02 2190.7 1285.52 Q2192.85 1283 2192.85 1278.83 L2192.85 1277.88 L2188.61 1277.88 M2197.11 1276.12 L2197.11 1290.92 L2192.85 1290.92 L2192.85 1286.98 Q2191.39 1289.34 2189.21 1290.48 Q2187.04 1291.59 2183.89 1291.59 Q2179.91 1291.59 2177.55 1289.36 Q2175.21 1287.12 2175.21 1283.37 Q2175.21 1278.99 2178.13 1276.77 Q2181.07 1274.55 2186.88 1274.55 L2192.85 1274.55 L2192.85 1274.13 Q2192.85 1271.19 2190.9 1269.6 Q2188.98 1267.98 2185.49 1267.98 Q2183.27 1267.98 2181.16 1268.51 Q2179.05 1269.04 2177.11 1270.11 L2177.11 1266.17 Q2179.45 1265.27 2181.64 1264.83 Q2183.84 1264.36 2185.93 1264.36 Q2191.55 1264.36 2194.33 1267.28 Q2197.11 1270.2 2197.11 1276.12 Z" fill="#000000" fill-rule="nonzero" fill-opacity="1" /><path clip-path="url(#clip450)" d="M2222.94 1277.65 Q2222.94 1273.02 2221.02 1270.48 Q2219.12 1267.93 2215.67 1267.93 Q2212.25 1267.93 2210.33 1270.48 Q2208.43 1273.02 2208.43 1277.65 Q2208.43 1282.26 2210.33 1284.8 Q2212.25 1287.35 2215.67 1287.35 Q2219.12 1287.35 2221.02 1284.8 Q2222.94 1282.26 2222.94 1277.65 M2227.2 1287.7 Q2227.2 1294.32 2224.26 1297.54 Q2221.32 1300.78 2215.26 1300.78 Q2213.01 1300.78 2211.02 1300.43 Q2209.03 1300.11 2207.15 1299.41 L2207.15 1295.27 Q2209.03 1296.29 2210.86 1296.77 Q2212.69 1297.26 2214.58 1297.26 Q2218.77 1297.26 2220.86 1295.06 Q2222.94 1292.88 2222.94 1288.46 L2222.94 1286.36 Q2221.62 1288.65 2219.56 1289.78 Q2217.5 1290.92 2214.63 1290.92 Q2209.86 1290.92 2206.95 1287.28 Q2204.03 1283.65 2204.03 1277.65 Q2204.03 1271.63 2206.95 1268 Q2209.86 1264.36 2214.63 1264.36 Q2217.5 1264.36 2219.56 1265.5 Q2221.62 1266.63 2222.94 1268.92 L2222.94 1264.99 L2227.2 1264.99 L2227.2 1287.7 Z" fill="#000000" fill-rule="nonzero" fill-opacity="1" /><path clip-path="url(#clip450)" d="M2258.15 1276.89 L2258.15 1278.97 L2238.57 1278.97 Q2238.84 1283.37 2241.2 1285.68 Q2243.59 1287.98 2247.82 1287.98 Q2250.28 1287.98 2252.57 1287.37 Q2254.89 1286.77 2257.15 1285.57 L2257.15 1289.6 Q2254.86 1290.57 2252.45 1291.08 Q2250.05 1291.59 2247.57 1291.59 Q2241.37 1291.59 2237.73 1287.98 Q2234.12 1284.36 2234.12 1278.21 Q2234.12 1271.84 2237.55 1268.11 Q2241 1264.36 2246.83 1264.36 Q2252.06 1264.36 2255.09 1267.74 Q2258.15 1271.1 2258.15 1276.89 M2253.89 1275.64 Q2253.84 1272.14 2251.92 1270.06 Q2250.02 1267.98 2246.88 1267.98 Q2243.31 1267.98 2241.16 1269.99 Q2239.03 1272 2238.7 1275.66 L2253.89 1275.64 Z" fill="#000000" fill-rule="nonzero" fill-opacity="1" /><polyline clip-path="url(#clip450)" style="stroke:#e26f46; stroke-linecap:round; stroke-linejoin:round; stroke-width:4; stroke-opacity:1; fill:none" points="1833.19,1325.48 1975.1,1325.48 "/>
<path clip-path="url(#clip450)" d="M1998.75 1316.83 L2003.27 1316.83 L2011.37 1338.59 L2019.47 1316.83 L2023.98 1316.83 L2014.26 1342.76 L2008.47 1342.76 L1998.75 1316.83 Z" fill="#000000" fill-rule="nonzero" fill-opacity="1" /><path clip-path="url(#clip450)" d="M2030.51 1308.2 L2048.87 1308.2 L2048.87 1312.13 L2034.79 1312.13 L2034.79 1320.6 Q2035.81 1320.26 2036.83 1320.09 Q2037.85 1319.91 2038.87 1319.91 Q2044.65 1319.91 2048.03 1323.08 Q2051.41 1326.25 2051.41 1331.67 Q2051.41 1337.25 2047.94 1340.35 Q2044.47 1343.43 2038.15 1343.43 Q2035.97 1343.43 2033.71 1343.06 Q2031.46 1342.69 2029.05 1341.95 L2029.05 1337.25 Q2031.14 1338.38 2033.36 1338.94 Q2035.58 1339.49 2038.06 1339.49 Q2042.06 1339.49 2044.4 1337.38 Q2046.74 1335.28 2046.74 1331.67 Q2046.74 1328.06 2044.4 1325.95 Q2042.06 1323.84 2038.06 1323.84 Q2036.18 1323.84 2034.31 1324.26 Q2032.46 1324.68 2030.51 1325.56 L2030.51 1308.2 Z" fill="#000000" fill-rule="nonzero" fill-opacity="1" /><path clip-path="url(#clip450)" d="M2069.28 1326.11 L2069.28 1333.33 L2077.41 1333.33 L2077.41 1335.53 L2069.28 1335.53 L2069.28 1342.76 L2066.85 1342.76 L2066.85 1335.53 L2058.73 1335.53 L2058.73 1333.33 L2066.85 1333.33 L2066.85 1326.11 L2069.28 1326.11 Z" fill="#000000" fill-rule="nonzero" fill-opacity="1" /><path clip-path="url(#clip450)" d="M2101.58 1317.59 L2101.58 1321.62 Q2099.77 1320.7 2097.83 1320.23 Q2095.88 1319.77 2093.8 1319.77 Q2090.63 1319.77 2089.03 1320.74 Q2087.46 1321.71 2087.46 1323.66 Q2087.46 1325.14 2088.59 1326 Q2089.72 1326.83 2093.15 1327.59 L2094.61 1327.92 Q2099.15 1328.89 2101.04 1330.67 Q2102.96 1332.43 2102.96 1335.6 Q2102.96 1339.21 2100.09 1341.32 Q2097.25 1343.43 2092.25 1343.43 Q2090.16 1343.43 2087.9 1343.01 Q2085.65 1342.62 2083.15 1341.81 L2083.15 1337.41 Q2085.51 1338.63 2087.8 1339.26 Q2090.09 1339.86 2092.34 1339.86 Q2095.35 1339.86 2096.97 1338.84 Q2098.59 1337.8 2098.59 1335.93 Q2098.59 1334.19 2097.41 1333.26 Q2096.25 1332.34 2092.29 1331.48 L2090.81 1331.14 Q2086.85 1330.3 2085.09 1328.59 Q2083.34 1326.85 2083.34 1323.84 Q2083.34 1320.19 2085.93 1318.2 Q2088.52 1316.2 2093.29 1316.2 Q2095.65 1316.2 2097.73 1316.55 Q2099.82 1316.9 2101.58 1317.59 Z" fill="#000000" fill-rule="nonzero" fill-opacity="1" /><path clip-path="url(#clip450)" d="M2113.96 1309.47 L2113.96 1316.83 L2122.73 1316.83 L2122.73 1320.14 L2113.96 1320.14 L2113.96 1334.21 Q2113.96 1337.38 2114.82 1338.29 Q2115.7 1339.19 2118.36 1339.19 L2122.73 1339.19 L2122.73 1342.76 L2118.36 1342.76 Q2113.43 1342.76 2111.55 1340.93 Q2109.68 1339.07 2109.68 1334.21 L2109.68 1320.14 L2106.55 1320.14 L2106.55 1316.83 L2109.68 1316.83 L2109.68 1309.47 L2113.96 1309.47 Z" fill="#000000" fill-rule="nonzero" fill-opacity="1" /><path clip-path="url(#clip450)" d="M2138.38 1319.82 Q2134.96 1319.82 2132.96 1322.5 Q2130.97 1325.16 2130.97 1329.82 Q2130.97 1334.47 2132.94 1337.15 Q2134.93 1339.82 2138.38 1339.82 Q2141.78 1339.82 2143.77 1337.13 Q2145.77 1334.45 2145.77 1329.82 Q2145.77 1325.21 2143.77 1322.52 Q2141.78 1319.82 2138.38 1319.82 M2138.38 1316.2 Q2143.94 1316.2 2147.11 1319.82 Q2150.28 1323.43 2150.28 1329.82 Q2150.28 1336.18 2147.11 1339.82 Q2143.94 1343.43 2138.38 1343.43 Q2132.8 1343.43 2129.63 1339.82 Q2126.48 1336.18 2126.48 1329.82 Q2126.48 1323.43 2129.63 1319.82 Q2132.8 1316.2 2138.38 1316.2 Z" fill="#000000" fill-rule="nonzero" fill-opacity="1" /><path clip-path="url(#clip450)" d="M2172.36 1320.81 Q2171.64 1320.39 2170.79 1320.21 Q2169.95 1320 2168.94 1320 Q2165.33 1320 2163.38 1322.36 Q2161.46 1324.7 2161.46 1329.1 L2161.46 1342.76 L2157.18 1342.76 L2157.18 1316.83 L2161.46 1316.83 L2161.46 1320.86 Q2162.8 1318.5 2164.95 1317.36 Q2167.11 1316.2 2170.19 1316.2 Q2170.63 1316.2 2171.16 1316.27 Q2171.69 1316.32 2172.34 1316.44 L2172.36 1320.81 Z" fill="#000000" fill-rule="nonzero" fill-opacity="1" /><path clip-path="url(#clip450)" d="M2188.61 1329.72 Q2183.45 1329.72 2181.46 1330.9 Q2179.47 1332.08 2179.47 1334.93 Q2179.47 1337.2 2180.95 1338.54 Q2182.45 1339.86 2185.02 1339.86 Q2188.57 1339.86 2190.7 1337.36 Q2192.85 1334.84 2192.85 1330.67 L2192.85 1329.72 L2188.61 1329.72 M2197.11 1327.96 L2197.11 1342.76 L2192.85 1342.76 L2192.85 1338.82 Q2191.39 1341.18 2189.21 1342.32 Q2187.04 1343.43 2183.89 1343.43 Q2179.91 1343.43 2177.55 1341.2 Q2175.21 1338.96 2175.21 1335.21 Q2175.21 1330.83 2178.13 1328.61 Q2181.07 1326.39 2186.88 1326.39 L2192.85 1326.39 L2192.85 1325.97 Q2192.85 1323.03 2190.9 1321.44 Q2188.98 1319.82 2185.49 1319.82 Q2183.27 1319.82 2181.16 1320.35 Q2179.05 1320.88 2177.11 1321.95 L2177.11 1318.01 Q2179.45 1317.11 2181.64 1316.67 Q2183.84 1316.2 2185.93 1316.2 Q2191.55 1316.2 2194.33 1319.12 Q2197.11 1322.04 2197.11 1327.96 Z" fill="#000000" fill-rule="nonzero" fill-opacity="1" /><path clip-path="url(#clip450)" d="M2222.94 1329.49 Q2222.94 1324.86 2221.02 1322.32 Q2219.12 1319.77 2215.67 1319.77 Q2212.25 1319.77 2210.33 1322.32 Q2208.43 1324.86 2208.43 1329.49 Q2208.43 1334.1 2210.33 1336.64 Q2212.25 1339.19 2215.67 1339.19 Q2219.12 1339.19 2221.02 1336.64 Q2222.94 1334.1 2222.94 1329.49 M2227.2 1339.54 Q2227.2 1346.16 2224.26 1349.38 Q2221.32 1352.62 2215.26 1352.62 Q2213.01 1352.62 2211.02 1352.27 Q2209.03 1351.95 2207.15 1351.25 L2207.15 1347.11 Q2209.03 1348.13 2210.86 1348.61 Q2212.69 1349.1 2214.58 1349.1 Q2218.77 1349.1 2220.86 1346.9 Q2222.94 1344.72 2222.94 1340.3 L2222.94 1338.2 Q2221.62 1340.49 2219.56 1341.62 Q2217.5 1342.76 2214.63 1342.76 Q2209.86 1342.76 2206.95 1339.12 Q2204.03 1335.49 2204.03 1329.49 Q2204.03 1323.47 2206.95 1319.84 Q2209.86 1316.2 2214.63 1316.2 Q2217.5 1316.2 2219.56 1317.34 Q2221.62 1318.47 2222.94 1320.76 L2222.94 1316.83 L2227.2 1316.83 L2227.2 1339.54 Z" fill="#000000" fill-rule="nonzero" fill-opacity="1" /><path clip-path="url(#clip450)" d="M2258.15 1328.73 L2258.15 1330.81 L2238.57 1330.81 Q2238.84 1335.21 2241.2 1337.52 Q2243.59 1339.82 2247.82 1339.82 Q2250.28 1339.82 2252.57 1339.21 Q2254.89 1338.61 2257.15 1337.41 L2257.15 1341.44 Q2254.86 1342.41 2252.45 1342.92 Q2250.05 1343.43 2247.57 1343.43 Q2241.37 1343.43 2237.73 1339.82 Q2234.12 1336.2 2234.12 1330.05 Q2234.12 1323.68 2237.55 1319.95 Q2241 1316.2 2246.83 1316.2 Q2252.06 1316.2 2255.09 1319.58 Q2258.15 1322.94 2258.15 1328.73 M2253.89 1327.48 Q2253.84 1323.98 2251.92 1321.9 Q2250.02 1319.82 2246.88 1319.82 Q2243.31 1319.82 2241.16 1321.83 Q2239.03 1323.84 2238.7 1327.5 L2253.89 1327.48 Z" fill="#000000" fill-rule="nonzero" fill-opacity="1" /></svg>
