<?xml version="1.0" encoding="utf-8"?>
<svg xmlns="http://www.w3.org/2000/svg" xmlns:xlink="http://www.w3.org/1999/xlink" width="600" height="400" viewBox="0 0 2400 1600">
<defs>
  <clipPath id="clip410">
    <rect x="0" y="0" width="2400" height="1600"/>
  </clipPath>
</defs>
<path clip-path="url(#clip410)" d="M0 1600 L2400 1600 L2400 0 L0 0  Z" fill="#ffffff" fill-rule="evenodd" fill-opacity="1"/>
<defs>
  <clipPath id="clip411">
    <rect x="480" y="0" width="1681" height="1600"/>
  </clipPath>
</defs>
<path clip-path="url(#clip410)" d="M193.936 1423.18 L2352.76 1423.18 L2352.76 47.2441 L193.936 47.2441  Z" fill="#ffffff" fill-rule="evenodd" fill-opacity="1"/>
<defs>
  <clipPath id="clip412">
    <rect x="193" y="47" width="2160" height="1377"/>
  </clipPath>
</defs>
<polyline clip-path="url(#clip412)" style="stroke:#000000; stroke-linecap:round; stroke-linejoin:round; stroke-width:2; stroke-opacity:0.1; fill:none" points="193.936,1423.18 193.936,47.2441 "/>
<polyline clip-path="url(#clip412)" style="stroke:#000000; stroke-linecap:round; stroke-linejoin:round; stroke-width:2; stroke-opacity:0.1; fill:none" points="733.641,1423.18 733.641,47.2441 "/>
<polyline clip-path="url(#clip412)" style="stroke:#000000; stroke-linecap:round; stroke-linejoin:round; stroke-width:2; stroke-opacity:0.1; fill:none" points="1273.35,1423.18 1273.35,47.2441 "/>
<polyline clip-path="url(#clip412)" style="stroke:#000000; stroke-linecap:round; stroke-linejoin:round; stroke-width:2; stroke-opacity:0.1; fill:none" points="1813.05,1423.18 1813.05,47.2441 "/>
<polyline clip-path="url(#clip412)" style="stroke:#000000; stroke-linecap:round; stroke-linejoin:round; stroke-width:2; stroke-opacity:0.1; fill:none" points="2352.76,1423.18 2352.76,47.2441 "/>
<polyline clip-path="url(#clip412)" style="stroke:#000000; stroke-linecap:round; stroke-linejoin:round; stroke-width:2; stroke-opacity:0.1; fill:none" points="193.936,1203 2352.76,1203 "/>
<polyline clip-path="url(#clip412)" style="stroke:#000000; stroke-linecap:round; stroke-linejoin:round; stroke-width:2; stroke-opacity:0.1; fill:none" points="193.936,898.576 2352.76,898.576 "/>
<polyline clip-path="url(#clip412)" style="stroke:#000000; stroke-linecap:round; stroke-linejoin:round; stroke-width:2; stroke-opacity:0.1; fill:none" points="193.936,594.155 2352.76,594.155 "/>
<polyline clip-path="url(#clip412)" style="stroke:#000000; stroke-linecap:round; stroke-linejoin:round; stroke-width:2; stroke-opacity:0.1; fill:none" points="193.936,289.734 2352.76,289.734 "/>
<polyline clip-path="url(#clip410)" style="stroke:#000000; stroke-linecap:round; stroke-linejoin:round; stroke-width:4; stroke-opacity:1; fill:none" points="193.936,1423.18 2352.76,1423.18 "/>
<polyline clip-path="url(#clip410)" style="stroke:#000000; stroke-linecap:round; stroke-linejoin:round; stroke-width:4; stroke-opacity:1; fill:none" points="193.936,1423.18 193.936,1404.28 "/>
<polyline clip-path="url(#clip410)" style="stroke:#000000; stroke-linecap:round; stroke-linejoin:round; stroke-width:4; stroke-opacity:1; fill:none" points="733.641,1423.18 733.641,1404.28 "/>
<polyline clip-path="url(#clip410)" style="stroke:#000000; stroke-linecap:round; stroke-linejoin:round; stroke-width:4; stroke-opacity:1; fill:none" points="1273.35,1423.18 1273.35,1404.28 "/>
<polyline clip-path="url(#clip410)" style="stroke:#000000; stroke-linecap:round; stroke-linejoin:round; stroke-width:4; stroke-opacity:1; fill:none" points="1813.05,1423.18 1813.05,1404.28 "/>
<polyline clip-path="url(#clip410)" style="stroke:#000000; stroke-linecap:round; stroke-linejoin:round; stroke-width:4; stroke-opacity:1; fill:none" points="2352.76,1423.18 2352.76,1404.28 "/>
<path clip-path="url(#clip410)" d="M171.32 1454.1 Q167.709 1454.1 165.881 1457.66 Q164.075 1461.2 164.075 1468.33 Q164.075 1475.44 165.881 1479.01 Q167.709 1482.55 171.32 1482.55 Q174.955 1482.55 176.76 1479.01 Q178.589 1475.44 178.589 1468.33 Q178.589 1461.2 176.76 1457.66 Q174.955 1454.1 171.32 1454.1 M171.32 1450.39 Q177.131 1450.39 180.186 1455 Q183.265 1459.58 183.265 1468.33 Q183.265 1477.06 180.186 1481.67 Q177.131 1486.25 171.32 1486.25 Q165.51 1486.25 162.432 1481.67 Q159.376 1477.06 159.376 1468.33 Q159.376 1459.58 162.432 1455 Q165.51 1450.39 171.32 1450.39 Z" fill="#000000" fill-rule="nonzero" fill-opacity="1" /><path clip-path="url(#clip410)" d="M191.482 1479.7 L196.367 1479.7 L196.367 1485.58 L191.482 1485.58 L191.482 1479.7 Z" fill="#000000" fill-rule="nonzero" fill-opacity="1" /><path clip-path="url(#clip410)" d="M216.552 1454.1 Q212.941 1454.1 211.112 1457.66 Q209.306 1461.2 209.306 1468.33 Q209.306 1475.44 211.112 1479.01 Q212.941 1482.55 216.552 1482.55 Q220.186 1482.55 221.991 1479.01 Q223.82 1475.44 223.82 1468.33 Q223.82 1461.2 221.991 1457.66 Q220.186 1454.1 216.552 1454.1 M216.552 1450.39 Q222.362 1450.39 225.417 1455 Q228.496 1459.58 228.496 1468.33 Q228.496 1477.06 225.417 1481.67 Q222.362 1486.25 216.552 1486.25 Q210.741 1486.25 207.663 1481.67 Q204.607 1477.06 204.607 1468.33 Q204.607 1459.58 207.663 1455 Q210.741 1450.39 216.552 1450.39 Z" fill="#000000" fill-rule="nonzero" fill-opacity="1" /><path clip-path="url(#clip410)" d="M711.523 1454.1 Q707.912 1454.1 706.083 1457.66 Q704.278 1461.2 704.278 1468.33 Q704.278 1475.44 706.083 1479.01 Q707.912 1482.55 711.523 1482.55 Q715.157 1482.55 716.963 1479.01 Q718.792 1475.44 718.792 1468.33 Q718.792 1461.2 716.963 1457.66 Q715.157 1454.1 711.523 1454.1 M711.523 1450.39 Q717.333 1450.39 720.389 1455 Q723.467 1459.58 723.467 1468.33 Q723.467 1477.06 720.389 1481.67 Q717.333 1486.25 711.523 1486.25 Q705.713 1486.25 702.634 1481.67 Q699.579 1477.06 699.579 1468.33 Q699.579 1459.58 702.634 1455 Q705.713 1450.39 711.523 1450.39 Z" fill="#000000" fill-rule="nonzero" fill-opacity="1" /><path clip-path="url(#clip410)" d="M731.685 1479.7 L736.569 1479.7 L736.569 1485.58 L731.685 1485.58 L731.685 1479.7 Z" fill="#000000" fill-rule="nonzero" fill-opacity="1" /><path clip-path="url(#clip410)" d="M746.801 1451.02 L765.157 1451.02 L765.157 1454.96 L751.083 1454.96 L751.083 1463.43 Q752.102 1463.08 753.12 1462.92 Q754.139 1462.73 755.157 1462.73 Q760.944 1462.73 764.324 1465.9 Q767.703 1469.08 767.703 1474.49 Q767.703 1480.07 764.231 1483.17 Q760.759 1486.25 754.439 1486.25 Q752.264 1486.25 749.995 1485.88 Q747.75 1485.51 745.342 1484.77 L745.342 1480.07 Q747.426 1481.2 749.648 1481.76 Q751.87 1482.32 754.347 1482.32 Q758.351 1482.32 760.689 1480.21 Q763.027 1478.1 763.027 1474.49 Q763.027 1470.88 760.689 1468.77 Q758.351 1466.67 754.347 1466.67 Q752.472 1466.67 750.597 1467.08 Q748.745 1467.5 746.801 1468.38 L746.801 1451.02 Z" fill="#000000" fill-rule="nonzero" fill-opacity="1" /><path clip-path="url(#clip410)" d="M1240.5 1481.64 L1248.14 1481.64 L1248.14 1455.28 L1239.83 1456.95 L1239.83 1452.69 L1248.09 1451.02 L1252.77 1451.02 L1252.77 1481.64 L1260.41 1481.64 L1260.41 1485.58 L1240.5 1485.58 L1240.5 1481.64 Z" fill="#000000" fill-rule="nonzero" fill-opacity="1" /><path clip-path="url(#clip410)" d="M1269.85 1479.7 L1274.73 1479.7 L1274.73 1485.58 L1269.85 1485.58 L1269.85 1479.7 Z" fill="#000000" fill-rule="nonzero" fill-opacity="1" /><path clip-path="url(#clip410)" d="M1294.92 1454.1 Q1291.31 1454.1 1289.48 1457.66 Q1287.67 1461.2 1287.67 1468.33 Q1287.67 1475.44 1289.48 1479.01 Q1291.31 1482.55 1294.92 1482.55 Q1298.55 1482.55 1300.36 1479.01 Q1302.19 1475.44 1302.19 1468.33 Q1302.19 1461.2 1300.36 1457.66 Q1298.55 1454.1 1294.92 1454.1 M1294.92 1450.39 Q1300.73 1450.39 1303.79 1455 Q1306.86 1459.58 1306.86 1468.33 Q1306.86 1477.06 1303.79 1481.67 Q1300.73 1486.25 1294.92 1486.25 Q1289.11 1486.25 1286.03 1481.67 Q1282.98 1477.06 1282.98 1468.33 Q1282.98 1459.58 1286.03 1455 Q1289.11 1450.39 1294.92 1450.39 Z" fill="#000000" fill-rule="nonzero" fill-opacity="1" /><path clip-path="url(#clip410)" d="M1780.7 1481.64 L1788.34 1481.64 L1788.34 1455.28 L1780.03 1456.95 L1780.03 1452.69 L1788.29 1451.02 L1792.97 1451.02 L1792.97 1481.64 L1800.61 1481.64 L1800.61 1485.58 L1780.7 1485.58 L1780.7 1481.64 Z" fill="#000000" fill-rule="nonzero" fill-opacity="1" /><path clip-path="url(#clip410)" d="M1810.05 1479.7 L1814.94 1479.7 L1814.94 1485.58 L1810.05 1485.58 L1810.05 1479.7 Z" fill="#000000" fill-rule="nonzero" fill-opacity="1" /><path clip-path="url(#clip410)" d="M1825.17 1451.02 L1843.53 1451.02 L1843.53 1454.96 L1829.45 1454.96 L1829.45 1463.43 Q1830.47 1463.08 1831.49 1462.92 Q1832.51 1462.73 1833.53 1462.73 Q1839.31 1462.73 1842.69 1465.9 Q1846.07 1469.08 1846.07 1474.49 Q1846.07 1480.07 1842.6 1483.17 Q1839.13 1486.25 1832.81 1486.25 Q1830.63 1486.25 1828.36 1485.88 Q1826.12 1485.51 1823.71 1484.77 L1823.71 1480.07 Q1825.79 1481.2 1828.02 1481.76 Q1830.24 1482.32 1832.72 1482.32 Q1836.72 1482.32 1839.06 1480.21 Q1841.4 1478.1 1841.4 1474.49 Q1841.4 1470.88 1839.06 1468.77 Q1836.72 1466.67 1832.72 1466.67 Q1830.84 1466.67 1828.97 1467.08 Q1827.11 1467.5 1825.17 1468.38 L1825.17 1451.02 Z" fill="#000000" fill-rule="nonzero" fill-opacity="1" /><path clip-path="url(#clip410)" d="M2323.99 1481.64 L2340.31 1481.64 L2340.31 1485.58 L2318.37 1485.58 L2318.37 1481.64 Q2321.03 1478.89 2325.61 1474.26 Q2330.22 1469.61 2331.4 1468.27 Q2333.65 1465.74 2334.53 1464.01 Q2335.43 1462.25 2335.43 1460.56 Q2335.43 1457.8 2333.49 1456.07 Q2331.56 1454.33 2328.46 1454.33 Q2326.26 1454.33 2323.81 1455.09 Q2321.38 1455.86 2318.6 1457.41 L2318.6 1452.69 Q2321.43 1451.55 2323.88 1450.97 Q2326.33 1450.39 2328.37 1450.39 Q2333.74 1450.39 2336.93 1453.08 Q2340.13 1455.77 2340.13 1460.26 Q2340.13 1462.39 2339.32 1464.31 Q2338.53 1466.2 2336.42 1468.8 Q2335.85 1469.47 2332.74 1472.69 Q2329.64 1475.88 2323.99 1481.64 Z" fill="#000000" fill-rule="nonzero" fill-opacity="1" /><path clip-path="url(#clip410)" d="M2350.13 1479.7 L2355.01 1479.7 L2355.01 1485.58 L2350.13 1485.58 L2350.13 1479.7 Z" fill="#000000" fill-rule="nonzero" fill-opacity="1" /><path clip-path="url(#clip410)" d="M2375.2 1454.1 Q2371.59 1454.1 2369.76 1457.66 Q2367.95 1461.2 2367.95 1468.33 Q2367.95 1475.44 2369.76 1479.01 Q2371.59 1482.55 2375.2 1482.55 Q2378.83 1482.55 2380.64 1479.01 Q2382.47 1475.44 2382.47 1468.33 Q2382.47 1461.2 2380.64 1457.66 Q2378.83 1454.1 2375.2 1454.1 M2375.2 1450.39 Q2381.01 1450.39 2384.06 1455 Q2387.14 1459.58 2387.14 1468.33 Q2387.14 1477.06 2384.06 1481.67 Q2381.01 1486.25 2375.2 1486.25 Q2369.39 1486.25 2366.31 1481.67 Q2363.25 1477.06 2363.25 1468.33 Q2363.25 1459.58 2366.31 1455 Q2369.39 1450.39 2375.2 1450.39 Z" fill="#000000" fill-rule="nonzero" fill-opacity="1" /><path clip-path="url(#clip410)" d="M1272.41 1522.27 L1272.41 1532.4 L1284.47 1532.4 L1284.47 1536.95 L1272.41 1536.95 L1272.41 1556.3 Q1272.41 1560.66 1273.58 1561.9 Q1274.79 1563.14 1278.45 1563.14 L1284.47 1563.14 L1284.47 1568.04 L1278.45 1568.04 Q1271.67 1568.04 1269.1 1565.53 Q1266.52 1562.98 1266.52 1556.3 L1266.52 1536.95 L1262.22 1536.95 L1262.22 1532.4 L1266.52 1532.4 L1266.52 1522.27 L1272.41 1522.27 Z" fill="#000000" fill-rule="nonzero" fill-opacity="1" /><polyline clip-path="url(#clip410)" style="stroke:#000000; stroke-linecap:round; stroke-linejoin:round; stroke-width:4; stroke-opacity:1; fill:none" points="193.936,1423.18 193.936,47.2441 "/>
<polyline clip-path="url(#clip410)" style="stroke:#000000; stroke-linecap:round; stroke-linejoin:round; stroke-width:4; stroke-opacity:1; fill:none" points="193.936,1203 212.834,1203 "/>
<polyline clip-path="url(#clip410)" style="stroke:#000000; stroke-linecap:round; stroke-linejoin:round; stroke-width:4; stroke-opacity:1; fill:none" points="193.936,898.576 212.834,898.576 "/>
<polyline clip-path="url(#clip410)" style="stroke:#000000; stroke-linecap:round; stroke-linejoin:round; stroke-width:4; stroke-opacity:1; fill:none" points="193.936,594.155 212.834,594.155 "/>
<polyline clip-path="url(#clip410)" style="stroke:#000000; stroke-linecap:round; stroke-linejoin:round; stroke-width:4; stroke-opacity:1; fill:none" points="193.936,289.734 212.834,289.734 "/>
<path clip-path="url(#clip410)" d="M51.9875 1203.45 L81.6633 1203.45 L81.6633 1207.38 L51.9875 1207.38 L51.9875 1203.45 Z" fill="#000000" fill-rule="nonzero" fill-opacity="1" /><path clip-path="url(#clip410)" d="M92.566 1216.34 L100.205 1216.34 L100.205 1189.98 L91.8947 1191.64 L91.8947 1187.38 L100.159 1185.72 L104.834 1185.72 L104.834 1216.34 L112.473 1216.34 L112.473 1220.28 L92.566 1220.28 L92.566 1216.34 Z" fill="#000000" fill-rule="nonzero" fill-opacity="1" /><path clip-path="url(#clip410)" d="M121.918 1214.4 L126.802 1214.4 L126.802 1220.28 L121.918 1220.28 L121.918 1214.4 Z" fill="#000000" fill-rule="nonzero" fill-opacity="1" /><path clip-path="url(#clip410)" d="M137.033 1185.72 L155.39 1185.72 L155.39 1189.65 L141.316 1189.65 L141.316 1198.12 Q142.334 1197.78 143.353 1197.62 Q144.371 1197.43 145.39 1197.43 Q151.177 1197.43 154.556 1200.6 Q157.936 1203.77 157.936 1209.19 Q157.936 1214.77 154.464 1217.87 Q150.992 1220.95 144.672 1220.95 Q142.496 1220.95 140.228 1220.58 Q137.982 1220.21 135.575 1219.47 L135.575 1214.77 Q137.658 1215.9 139.881 1216.46 Q142.103 1217.01 144.58 1217.01 Q148.584 1217.01 150.922 1214.91 Q153.26 1212.8 153.26 1209.19 Q153.26 1205.58 150.922 1203.47 Q148.584 1201.37 144.58 1201.37 Q142.705 1201.37 140.83 1201.78 Q138.978 1202.2 137.033 1203.08 L137.033 1185.72 Z" fill="#000000" fill-rule="nonzero" fill-opacity="1" /><path clip-path="url(#clip410)" d="M50.9921 899.028 L80.6679 899.028 L80.6679 902.963 L50.9921 902.963 L50.9921 899.028 Z" fill="#000000" fill-rule="nonzero" fill-opacity="1" /><path clip-path="url(#clip410)" d="M91.5706 911.921 L99.2095 911.921 L99.2095 885.556 L90.8993 887.222 L90.8993 882.963 L99.1632 881.296 L103.839 881.296 L103.839 911.921 L111.478 911.921 L111.478 915.856 L91.5706 915.856 L91.5706 911.921 Z" fill="#000000" fill-rule="nonzero" fill-opacity="1" /><path clip-path="url(#clip410)" d="M120.922 909.977 L125.807 909.977 L125.807 915.856 L120.922 915.856 L120.922 909.977 Z" fill="#000000" fill-rule="nonzero" fill-opacity="1" /><path clip-path="url(#clip410)" d="M145.992 884.375 Q142.381 884.375 140.552 887.94 Q138.746 891.481 138.746 898.611 Q138.746 905.718 140.552 909.282 Q142.381 912.824 145.992 912.824 Q149.626 912.824 151.431 909.282 Q153.26 905.718 153.26 898.611 Q153.26 891.481 151.431 887.94 Q149.626 884.375 145.992 884.375 M145.992 880.671 Q151.802 880.671 154.857 885.278 Q157.936 889.861 157.936 898.611 Q157.936 907.338 154.857 911.944 Q151.802 916.528 145.992 916.528 Q140.181 916.528 137.103 911.944 Q134.047 907.338 134.047 898.611 Q134.047 889.861 137.103 885.278 Q140.181 880.671 145.992 880.671 Z" fill="#000000" fill-rule="nonzero" fill-opacity="1" /><path clip-path="url(#clip410)" d="M51.9875 594.607 L81.6633 594.607 L81.6633 598.542 L51.9875 598.542 L51.9875 594.607 Z" fill="#000000" fill-rule="nonzero" fill-opacity="1" /><path clip-path="url(#clip410)" d="M101.756 579.954 Q98.1447 579.954 96.316 583.519 Q94.5104 587.06 94.5104 594.19 Q94.5104 601.297 96.316 604.861 Q98.1447 608.403 101.756 608.403 Q105.39 608.403 107.196 604.861 Q109.024 601.297 109.024 594.19 Q109.024 587.06 107.196 583.519 Q105.39 579.954 101.756 579.954 M101.756 576.25 Q107.566 576.25 110.621 580.857 Q113.7 585.44 113.7 594.19 Q113.7 602.917 110.621 607.523 Q107.566 612.107 101.756 612.107 Q95.9456 612.107 92.8669 607.523 Q89.8114 602.917 89.8114 594.19 Q89.8114 585.44 92.8669 580.857 Q95.9456 576.25 101.756 576.25 Z" fill="#000000" fill-rule="nonzero" fill-opacity="1" /><path clip-path="url(#clip410)" d="M121.918 605.556 L126.802 605.556 L126.802 611.435 L121.918 611.435 L121.918 605.556 Z" fill="#000000" fill-rule="nonzero" fill-opacity="1" /><path clip-path="url(#clip410)" d="M137.033 576.875 L155.39 576.875 L155.39 580.811 L141.316 580.811 L141.316 589.283 Q142.334 588.935 143.353 588.773 Q144.371 588.588 145.39 588.588 Q151.177 588.588 154.556 591.76 Q157.936 594.931 157.936 600.347 Q157.936 605.926 154.464 609.028 Q150.992 612.107 144.672 612.107 Q142.496 612.107 140.228 611.736 Q137.982 611.366 135.575 610.625 L135.575 605.926 Q137.658 607.06 139.881 607.616 Q142.103 608.171 144.58 608.171 Q148.584 608.171 150.922 606.065 Q153.26 603.959 153.26 600.347 Q153.26 596.736 150.922 594.63 Q148.584 592.523 144.58 592.523 Q142.705 592.523 140.83 592.94 Q138.978 593.357 137.033 594.236 L137.033 576.875 Z" fill="#000000" fill-rule="nonzero" fill-opacity="1" /><path clip-path="url(#clip410)" d="M100.76 275.533 Q97.1493 275.533 95.3206 279.098 Q93.515 282.64 93.515 289.769 Q93.515 296.876 95.3206 300.44 Q97.1493 303.982 100.76 303.982 Q104.395 303.982 106.2 300.44 Q108.029 296.876 108.029 289.769 Q108.029 282.64 106.2 279.098 Q104.395 275.533 100.76 275.533 M100.76 271.829 Q106.571 271.829 109.626 276.436 Q112.705 281.019 112.705 289.769 Q112.705 298.496 109.626 303.102 Q106.571 307.686 100.76 307.686 Q94.9502 307.686 91.8715 303.102 Q88.816 298.496 88.816 289.769 Q88.816 281.019 91.8715 276.436 Q94.9502 271.829 100.76 271.829 Z" fill="#000000" fill-rule="nonzero" fill-opacity="1" /><path clip-path="url(#clip410)" d="M120.922 301.135 L125.807 301.135 L125.807 307.014 L120.922 307.014 L120.922 301.135 Z" fill="#000000" fill-rule="nonzero" fill-opacity="1" /><path clip-path="url(#clip410)" d="M145.992 275.533 Q142.381 275.533 140.552 279.098 Q138.746 282.64 138.746 289.769 Q138.746 296.876 140.552 300.44 Q142.381 303.982 145.992 303.982 Q149.626 303.982 151.431 300.44 Q153.26 296.876 153.26 289.769 Q153.26 282.64 151.431 279.098 Q149.626 275.533 145.992 275.533 M145.992 271.829 Q151.802 271.829 154.857 276.436 Q157.936 281.019 157.936 289.769 Q157.936 298.496 154.857 303.102 Q151.802 307.686 145.992 307.686 Q140.181 307.686 137.103 303.102 Q134.047 298.496 134.047 289.769 Q134.047 281.019 137.103 276.436 Q140.181 271.829 145.992 271.829 Z" fill="#000000" fill-rule="nonzero" fill-opacity="1" /><polyline clip-path="url(#clip412)" style="stroke:#009af9; stroke-linecap:round; stroke-linejoin:round; stroke-width:4; stroke-opacity:1; fill:none" points="193.936,1384.24 196.097,1371.58 198.258,1359.04 200.419,1346.63 202.58,1334.34 204.741,1322.17 206.902,1310.13 209.063,1298.2 211.224,1286.39 213.385,1274.71 215.546,1263.13 217.707,1251.68 219.868,1240.33 222.029,1229.1 224.19,1217.99 226.351,1206.98 228.512,1196.08 230.673,1185.29 232.834,1174.61 234.995,1164.04 237.156,1153.57 239.317,1143.2 241.478,1132.94 243.639,1122.78 245.8,1112.72 247.961,1102.76 250.122,1092.9 252.282,1083.14 254.443,1073.47 256.604,1063.91 258.765,1054.43 260.926,1045.05 263.087,1035.77 265.248,1026.58 267.409,1017.48 269.57,1008.47 271.731,999.546 273.892,990.714 276.053,981.97 278.214,973.314 280.375,964.744 282.536,956.259 284.697,947.858 286.858,939.542 289.019,931.308 291.18,923.156 293.341,915.085 295.502,907.095 297.663,899.184 299.824,891.352 301.985,883.598 304.146,875.921 306.307,868.321 308.468,860.796 310.629,853.347 312.79,845.971 314.951,838.669 317.112,831.44 319.273,824.283 321.434,817.197 323.595,810.181 325.756,803.235 327.917,796.359 330.078,789.551 332.239,782.811 334.4,776.138 336.561,769.531 338.722,762.99 340.883,756.515 343.044,750.104 345.205,743.757 347.366,737.473 349.527,731.251 351.688,725.092 353.849,718.994 356.01,712.957 358.171,706.98 360.332,701.062 362.493,695.204 364.653,689.403 366.814,683.661 368.975,677.976 371.136,672.347 373.297,666.774 375.458,661.257 377.619,655.795 379.78,650.387 381.941,645.033 384.102,639.733 386.263,634.485 388.424,629.289 390.585,624.146 392.746,619.053 394.907,614.011 397.068,609.019 399.229,604.077 401.39,599.184 403.551,594.34 405.712,589.544 407.873,584.796 410.034,580.095 412.195,575.441 414.356,570.834 416.517,566.272 418.678,561.756 420.839,557.285 423,552.858 425.161,548.475 427.322,544.136 429.483,539.841 431.644,535.588 433.805,531.377 435.966,527.209 438.127,523.082 440.288,518.996 442.449,514.95 444.61,510.946 446.771,506.981 448.932,503.055 451.093,499.169 453.254,495.321 455.415,491.512 457.576,487.74 459.737,484.006 461.898,480.31 464.059,476.65 466.22,473.026 468.381,469.439 470.542,465.887 472.703,462.371 474.864,458.89 477.024,455.443 479.185,452.031 481.346,448.652 483.507,445.308 485.668,441.996 487.829,438.718 489.99,435.472 492.151,432.258 494.312,429.077 496.473,425.927 498.634,422.808 500.795,419.721 502.956,416.664 505.117,413.638 507.278,410.642 509.439,407.676 511.6,404.739 513.761,401.832 515.922,398.953 518.083,396.104 520.244,393.282 522.405,390.489 524.566,387.724 526.727,384.986 528.888,382.275 531.049,379.592 533.21,376.935 535.371,374.305 537.532,371.701 539.693,369.123 541.854,366.57 544.015,364.043 546.176,361.541 548.337,359.065 550.498,356.612 552.659,354.184 554.82,351.781 556.981,349.401 559.142,347.045 561.303,344.713 563.464,342.403 565.625,340.117 567.786,337.853 569.947,335.612 572.108,333.394 574.269,331.197 576.43,329.022 578.591,326.869 580.752,324.737 582.913,322.627 585.074,320.537 587.235,318.469 589.396,316.42 591.556,314.393 593.717,312.385 595.878,310.397 598.039,308.43 600.2,306.481 602.361,304.553 604.522,302.643 606.683,300.752 608.844,298.881 611.005,297.028 613.166,295.193 615.327,293.377 617.488,291.578 619.649,289.798 621.81,288.036 623.971,286.291 626.132,284.563 628.293,282.853 630.454,281.159 632.615,279.483 634.776,277.823 636.937,276.18 639.098,274.553 641.259,272.943 643.42,271.348 645.581,269.77 647.742,268.207 649.903,266.66 652.064,265.128 654.225,263.611 656.386,262.11 658.547,260.623 660.708,259.151 662.869,257.694 665.03,256.252 667.191,254.823 669.352,253.409 671.513,252.01 673.674,250.624 675.835,249.251 677.996,247.893 680.157,246.548 682.318,245.216 684.479,243.898 686.64,242.593 688.801,241.3 690.962,240.021 693.123,238.754 695.284,237.5 697.445,236.258 699.606,235.029 701.767,233.812 703.927,232.607 706.088,231.414 708.249,230.233 710.41,229.064 712.571,227.906 714.732,226.76 716.893,225.625 719.054,224.502 721.215,223.39 723.376,222.288 725.537,221.198 727.698,220.119 729.859,219.05 732.02,217.993 734.181,216.945 736.342,215.908 738.503,214.882 740.664,213.866 742.825,212.859 744.986,211.863 747.147,210.877 749.308,209.901 751.469,208.934 753.63,207.977 755.791,207.03 757.952,206.092 760.113,205.163 762.274,204.243 764.435,203.333 766.596,202.432 768.757,201.54 770.918,200.656 773.079,199.782 775.24,198.916 777.401,198.059 779.562,197.21 781.723,196.37 783.884,195.538 786.045,194.715 788.206,193.899 790.367,193.092 792.528,192.293 794.689,191.502 796.85,190.718 799.011,189.943 801.172,189.175 803.333,188.415 805.494,187.662 807.655,186.917 809.816,186.179 811.977,185.448 814.138,184.725 816.298,184.009 818.459,183.3 820.62,182.598 822.781,181.903 824.942,181.215 827.103,180.534 829.264,179.859 831.425,179.192 833.586,178.531 835.747,177.876 837.908,177.228 840.069,176.587 842.23,175.952 844.391,175.323 846.552,174.701 848.713,174.084 850.874,173.474 853.035,172.87 855.196,172.272 857.357,171.68 859.518,171.094 861.679,170.514 863.84,169.939 866.001,169.371 868.162,168.808 870.323,168.25 872.484,167.698 874.645,167.152 876.806,166.611 878.967,166.076 881.128,165.546 883.289,165.021 885.45,164.501 887.611,163.987 889.772,163.477 891.933,162.973 894.094,162.474 896.255,161.98 898.416,161.491 900.577,161.006 902.738,160.527 904.899,160.052 907.06,159.582 909.221,159.117 911.382,158.656 913.543,158.2 915.704,157.748 917.865,157.301 920.026,156.859 922.187,156.421 924.348,155.987 926.509,155.557 928.669,155.132 930.83,154.711 932.991,154.294 935.152,153.881 937.313,153.473 939.474,153.068 941.635,152.668 943.796,152.271 945.957,151.878 948.118,151.49 950.279,151.105 952.44,150.724 954.601,150.346 956.762,149.973 958.923,149.603 961.084,149.237 963.245,148.874 965.406,148.515 967.567,148.16 969.728,147.808 971.889,147.459 974.05,147.114 976.211,146.773 978.372,146.435 980.533,146.1 982.694,145.768 984.855,145.44 987.016,145.116 989.177,144.794 991.338,144.476 993.499,144.16 995.66,143.848 997.821,143.539 999.982,143.234 1002.14,142.931 1004.3,142.631 1006.46,142.334 1008.63,142.04 1010.79,141.75 1012.95,141.462 1015.11,141.176 1017.27,140.894 1019.43,140.615 1021.59,140.338 1023.75,140.064 1025.91,139.793 1028.07,139.525 1030.24,139.259 1032.4,138.996 1034.56,138.736 1036.72,138.478 1038.88,138.223 1041.04,137.97 1043.2,137.72 1045.36,137.472 1047.52,137.227 1049.68,136.984 1051.85,136.744 1054.01,136.506 1056.17,136.271 1058.33,136.037 1060.49,135.807 1062.65,135.578 1064.81,135.352 1066.97,135.128 1069.13,134.906 1071.29,134.686 1073.46,134.469 1075.62,134.254 1077.78,134.041 1079.94,133.83 1082.1,133.621 1084.26,133.414 1086.42,133.209 1088.58,133.007 1090.74,132.806 1092.9,132.607 1095.07,132.41 1097.23,132.216 1099.39,132.023 1101.55,131.832 1103.71,131.643 1105.87,131.455 1108.03,131.27 1110.19,131.087 1112.35,130.905 1114.51,130.725 1116.67,130.547 1118.84,130.37 1121,130.196 1123.16,130.023 1125.32,129.851 1127.48,129.682 1129.64,129.514 1131.8,129.348 1133.96,129.183 1136.12,129.02 1138.28,128.859 1140.45,128.699 1142.61,128.541 1144.77,128.385 1146.93,128.23 1149.09,128.076 1151.25,127.924 1153.41,127.774 1155.57,127.625 1157.73,127.478 1159.89,127.332 1162.06,127.187 1164.22,127.044 1166.38,126.903 1168.54,126.763 1170.7,126.624 1172.86,126.486 1175.02,126.35 1177.18,126.216 1179.34,126.082 1181.5,125.951 1183.67,125.82 1185.83,125.691 1187.99,125.563 1190.15,125.436 1192.31,125.31 1194.47,125.186 1196.63,125.063 1198.79,124.942 1200.95,124.821 1203.11,124.702 1205.28,124.584 1207.44,124.467 1209.6,124.351 1211.76,124.237 1213.92,124.123 1216.08,124.011 1218.24,123.9 1220.4,123.79 1222.56,123.681 1224.72,123.573 1226.88,123.467 1229.05,123.361 1231.21,123.256 1233.37,123.153 1235.53,123.05 1237.69,122.949 1239.85,122.848 1242.01,122.749 1244.17,122.65 1246.33,122.553 1248.49,122.456 1250.66,122.361 1252.82,122.266 1254.98,122.173 1257.14,122.08 1259.3,121.988 1261.46,121.897 1263.62,121.807 1265.78,121.718 1267.94,121.63 1270.1,121.542 1272.27,121.456 1274.43,121.37 1276.59,121.285 1278.75,121.202 1280.91,121.118 1283.07,121.036 1285.23,120.955 1287.39,120.874 1289.55,120.794 1291.71,120.715 1293.88,120.636 1296.04,120.559 1298.2,120.482 1300.36,120.406 1302.52,120.331 1304.68,120.256 1306.84,120.182 1309,120.109 1311.16,120.036 1313.32,119.965 1315.49,119.894 1317.65,119.823 1319.81,119.754 1321.97,119.685 1324.13,119.616 1326.29,119.549 1328.45,119.482 1330.61,119.416 1332.77,119.35 1334.93,119.285 1337.09,119.221 1339.26,119.157 1341.42,119.094 1343.58,119.032 1345.74,118.97 1347.9,118.909 1350.06,118.848 1352.22,118.788 1354.38,118.729 1356.54,118.67 1358.7,118.612 1360.87,118.554 1363.03,118.497 1365.19,118.441 1367.35,118.385 1369.51,118.33 1371.67,118.275 1373.83,118.221 1375.99,118.167 1378.15,118.114 1380.31,118.062 1382.48,118.01 1384.64,117.958 1386.8,117.907 1388.96,117.857 1391.12,117.807 1393.28,117.757 1395.44,117.708 1397.6,117.66 1399.76,117.612 1401.92,117.564 1404.09,117.517 1406.25,117.471 1408.41,117.425 1410.57,117.379 1412.73,117.334 1414.89,117.29 1417.05,117.245 1419.21,117.202 1421.37,117.158 1423.53,117.115 1425.7,117.073 1427.86,117.031 1430.02,116.989 1432.18,116.948 1434.34,116.907 1436.5,116.867 1438.66,116.827 1440.82,116.788 1442.98,116.748 1445.14,116.71 1447.3,116.671 1449.47,116.633 1451.63,116.596 1453.79,116.559 1455.95,116.522 1458.11,116.485 1460.27,116.449 1462.43,116.413 1464.59,116.378 1466.75,116.343 1468.91,116.308 1471.08,116.274 1473.24,116.24 1475.4,116.206 1477.56,116.173 1479.72,116.14 1481.88,116.107 1484.04,116.075 1486.2,116.043 1488.36,116.011 1490.52,115.979 1492.69,115.948 1494.85,115.917 1497.01,115.887 1499.17,115.857 1501.33,115.827 1503.49,115.797 1505.65,115.768 1507.81,115.739 1509.97,115.71 1512.13,115.681 1514.3,115.653 1516.46,115.625 1518.62,115.597 1520.78,115.57 1522.94,115.543 1525.1,115.516 1527.26,115.489 1529.42,115.462 1531.58,115.436 1533.74,115.41 1535.91,115.385 1538.07,115.359 1540.23,115.334 1542.39,115.309 1544.55,115.285 1546.71,115.26 1548.87,115.236 1551.03,115.212 1553.19,115.188 1555.35,115.165 1557.51,115.142 1559.68,115.119 1561.84,115.096 1564,115.073 1566.16,115.051 1568.32,115.029 1570.48,115.007 1572.64,114.985 1574.8,114.964 1576.96,114.943 1579.12,114.922 1581.29,114.901 1583.45,114.88 1585.61,114.86 1587.77,114.84 1589.93,114.82 1592.09,114.8 1594.25,114.78 1596.41,114.761 1598.57,114.742 1600.73,114.723 1602.9,114.704 1605.06,114.685 1607.22,114.667 1609.38,114.649 1611.54,114.631 1613.7,114.613 1615.86,114.595 1618.02,114.578 1620.18,114.56 1622.34,114.543 1624.51,114.526 1626.67,114.51 1628.83,114.493 1630.99,114.477 1633.15,114.46 1635.31,114.444 1637.47,114.428 1639.63,114.413 1641.79,114.397 1643.95,114.382 1646.12,114.366 1648.28,114.351 1650.44,114.336 1652.6,114.321 1654.76,114.307 1656.92,114.292 1659.08,114.278 1661.24,114.264 1663.4,114.25 1665.56,114.236 1667.72,114.222 1669.89,114.208 1672.05,114.195 1674.21,114.181 1676.37,114.168 1678.53,114.155 1680.69,114.142 1682.85,114.129 1685.01,114.117 1687.17,114.104 1689.33,114.092 1691.5,114.079 1693.66,114.067 1695.82,114.055 1697.98,114.043 1700.14,114.031 1702.3,114.02 1704.46,114.008 1706.62,113.997 1708.78,113.985 1710.94,113.974 1713.11,113.963 1715.27,113.952 1717.43,113.941 1719.59,113.93 1721.75,113.92 1723.91,113.909 1726.07,113.899 1728.23,113.888 1730.39,113.878 1732.55,113.868 1734.72,113.858 1736.88,113.848 1739.04,113.838 1741.2,113.828 1743.36,113.818 1745.52,113.808 1747.68,113.799 1749.84,113.789 1752,113.78 1754.16,113.771 1756.33,113.762 1758.49,113.753 1760.65,113.743 1762.81,113.735 1764.97,113.726 1767.13,113.717 1769.29,113.708 1771.45,113.7 1773.61,113.691 1775.77,113.682 1777.93,113.674 1780.1,113.666 1782.26,113.658 1784.42,113.649 1786.58,113.641 1788.74,113.633 1790.9,113.625 1793.06,113.618 1795.22,113.61 1797.38,113.602 1799.54,113.594 1801.71,113.587 1803.87,113.579 1806.03,113.572 1808.19,113.565 1810.35,113.557 1812.51,113.55 1814.67,113.543 1816.83,113.536 1818.99,113.529 1821.15,113.522 1823.32,113.515 1825.48,113.509 1827.64,113.502 1829.8,113.495 1831.96,113.489 1834.12,113.482 1836.28,113.476 1838.44,113.469 1840.6,113.463 1842.76,113.457 1844.93,113.451 1847.09,113.444 1849.25,113.438 1851.41,113.432 1853.57,113.427 1855.73,113.421 1857.89,113.415 1860.05,113.409 1862.21,113.403 1864.37,113.398 1866.54,113.392 1868.7,113.387 1870.86,113.381 1873.02,113.376 1875.18,113.37 1877.34,113.365 1879.5,113.36 1881.66,113.355 1883.82,113.35 1885.98,113.345 1888.15,113.34 1890.31,113.335 1892.47,113.33 1894.63,113.325 1896.79,113.32 1898.95,113.315 1901.11,113.311 1903.27,113.306 1905.43,113.301 1907.59,113.297 1909.75,113.292 1911.92,113.288 1914.08,113.283 1916.24,113.279 1918.4,113.275 1920.56,113.271 1922.72,113.266 1924.88,113.262 1927.04,113.258 1929.2,113.254 1931.36,113.25 1933.53,113.246 1935.69,113.242 1937.85,113.238 1940.01,113.234 1942.17,113.23 1944.33,113.227 1946.49,113.223 1948.65,113.219 1950.81,113.215 1952.97,113.212 1955.14,113.208 1957.3,113.205 1959.46,113.201 1961.62,113.198 1963.78,113.194 1965.94,113.191 1968.1,113.187 1970.26,113.184 1972.42,113.181 1974.58,113.178 1976.75,113.174 1978.91,113.171 1981.07,113.168 1983.23,113.165 1985.39,113.162 1987.55,113.159 1989.71,113.156 1991.87,113.153 1994.03,113.15 1996.19,113.147 1998.36,113.144 2000.52,113.141 2002.68,113.138 2004.84,113.135 2007,113.132 2009.16,113.13 2011.32,113.127 2013.48,113.124 2015.64,113.121 2017.8,113.119 2019.96,113.116 2022.13,113.113 2024.29,113.111 2026.45,113.108 2028.61,113.106 2030.77,113.103 2032.93,113.101 2035.09,113.098 2037.25,113.096 2039.41,113.093 2041.57,113.091 2043.74,113.088 2045.9,113.086 2048.06,113.084 2050.22,113.081 2052.38,113.079 2054.54,113.077 2056.7,113.074 2058.86,113.072 2061.02,113.07 2063.18,113.067 2065.35,113.065 2067.51,113.063 2069.67,113.061 2071.83,113.059 2073.99,113.056 2076.15,113.054 2078.31,113.052 2080.47,113.05 2082.63,113.048 2084.79,113.046 2086.96,113.044 2089.12,113.042 2091.28,113.04 2093.44,113.038 2095.6,113.036 2097.76,113.034 2099.92,113.032 2102.08,113.03 2104.24,113.028 2106.4,113.027 2108.57,113.025 2110.73,113.023 2112.89,113.021 2115.05,113.019 2117.21,113.018 2119.37,113.016 2121.53,113.014 2123.69,113.012 2125.85,113.011 2128.01,113.009 2130.17,113.007 2132.34,113.006 2134.5,113.004 2136.66,113.002 2138.82,113.001 2140.98,112.999 2143.14,112.998 2145.3,112.996 2147.46,112.995 2149.62,112.993 2151.78,112.992 2153.95,112.99 2156.11,112.989 2158.27,112.987 2160.43,112.986 2162.59,112.984 2164.75,112.983 2166.91,112.982 2169.07,112.98 2171.23,112.979 2173.39,112.977 2175.56,112.976 2177.72,112.975 2179.88,112.974 2182.04,112.972 2184.2,112.971 2186.36,112.97 2188.52,112.968 2190.68,112.967 2192.84,112.966 2195,112.965 2197.17,112.964 2199.33,112.962 2201.49,112.961 2203.65,112.96 2205.81,112.959 2207.97,112.958 2210.13,112.957 2212.29,112.955 2214.45,112.954 2216.61,112.953 2218.78,112.952 2220.94,112.951 2223.1,112.95 2225.26,112.949 2227.42,112.948 2229.58,112.947 2231.74,112.946 2233.9,112.945 2236.06,112.944 2238.22,112.943 2240.38,112.942 2242.55,112.941 2244.71,112.94 2246.87,112.939 2249.03,112.938 2251.19,112.937 2253.35,112.937 2255.51,112.936 2257.67,112.935 2259.83,112.934 2261.99,112.933 2264.16,112.932 2266.32,112.931 2268.48,112.93 2270.64,112.93 2272.8,112.929 2274.96,112.928 2277.12,112.927 2279.28,112.926 2281.44,112.926 2283.6,112.925 2285.77,112.924 2287.93,112.923 2290.09,112.923 2292.25,112.922 2294.41,112.921 2296.57,112.92 2298.73,112.92 2300.89,112.919 2303.05,112.918 2305.21,112.917 2307.38,112.917 2309.54,112.916 2311.7,112.915 2313.86,112.915 2316.02,112.914 2318.18,112.913 2320.34,112.913 2322.5,112.912 2324.66,112.911 2326.82,112.911 2328.99,112.91 2331.15,112.909 2333.31,112.909 2335.47,112.908 2337.63,112.908 2339.79,112.907 2341.95,112.906 2344.11,112.906 2346.27,112.905 2348.43,112.905 2350.59,112.904 2352.76,112.903 "/>
<polyline clip-path="url(#clip412)" style="stroke:#e26f46; stroke-linecap:round; stroke-linejoin:round; stroke-width:4; stroke-opacity:1; fill:none" points="193.936,86.1857 196.097,89.1297 198.258,92.0284 200.419,94.8823 202.58,97.6919 204.741,100.458 206.902,103.18 209.063,105.86 211.224,108.498 213.385,111.094 215.546,113.649 217.707,116.164 219.868,118.638 222.029,121.072 224.19,123.468 226.351,125.824 228.512,128.143 230.673,130.424 232.834,132.667 234.995,134.874 237.156,137.044 239.317,139.178 241.478,141.277 243.639,143.341 245.8,145.37 247.961,147.365 250.122,149.326 252.282,151.254 254.443,153.149 256.604,155.012 258.765,156.842 260.926,158.641 263.087,160.408 265.248,162.144 267.409,163.85 269.57,165.526 271.731,167.172 273.892,168.789 276.053,170.376 278.214,171.935 280.375,173.466 282.536,174.968 284.697,176.444 286.858,177.891 289.019,179.312 291.18,180.707 293.341,182.075 295.502,183.417 297.663,184.734 299.824,186.026 301.985,187.293 304.146,188.535 306.307,189.753 308.468,190.947 310.629,192.117 312.79,193.264 314.951,194.388 317.112,195.489 319.273,196.568 321.434,197.625 323.595,198.66 325.756,199.673 327.917,200.665 330.078,201.637 332.239,202.587 334.4,203.517 336.561,204.427 338.722,205.316 340.883,206.187 343.044,207.037 345.205,207.869 347.366,208.682 349.527,209.476 351.688,210.251 353.849,211.009 356.01,211.749 358.171,212.471 360.332,213.175 362.493,213.863 364.653,214.533 366.814,215.187 368.975,215.824 371.136,216.445 373.297,217.05 375.458,217.639 377.619,218.212 379.78,218.771 381.941,219.313 384.102,219.841 386.263,220.355 388.424,220.853 390.585,221.337 392.746,221.808 394.907,222.264 397.068,222.706 399.229,223.135 401.39,223.55 403.551,223.953 405.712,224.342 407.873,224.718 410.034,225.082 412.195,225.433 414.356,225.772 416.517,226.099 418.678,226.414 420.839,226.717 423,227.009 425.161,227.289 427.322,227.558 429.483,227.815 431.644,228.062 433.805,228.298 435.966,228.523 438.127,228.738 440.288,228.942 442.449,229.137 444.61,229.321 446.771,229.495 448.932,229.66 451.093,229.815 453.254,229.96 455.415,230.097 457.576,230.224 459.737,230.342 461.898,230.451 464.059,230.552 466.22,230.643 468.381,230.727 470.542,230.802 472.703,230.869 474.864,230.927 477.024,230.978 479.185,231.021 481.346,231.056 483.507,231.084 485.668,231.104 487.829,231.117 489.99,231.122 492.151,231.121 494.312,231.112 496.473,231.097 498.634,231.074 500.795,231.045 502.956,231.01 505.117,230.967 507.278,230.919 509.439,230.864 511.6,230.803 513.761,230.736 515.922,230.663 518.083,230.584 520.244,230.5 522.405,230.409 524.566,230.313 526.727,230.212 528.888,230.105 531.049,229.993 533.21,229.876 535.371,229.753 537.532,229.626 539.693,229.493 541.854,229.356 544.015,229.214 546.176,229.067 548.337,228.916 550.498,228.76 552.659,228.6 554.82,228.435 556.981,228.266 559.142,228.093 561.303,227.916 563.464,227.734 565.625,227.549 567.786,227.36 569.947,227.167 572.108,226.97 574.269,226.77 576.43,226.566 578.591,226.358 580.752,226.147 582.913,225.933 585.074,225.715 587.235,225.494 589.396,225.27 591.556,225.043 593.717,224.812 595.878,224.579 598.039,224.343 600.2,224.103 602.361,223.861 604.522,223.617 606.683,223.369 608.844,223.119 611.005,222.866 613.166,222.611 615.327,222.353 617.488,222.092 619.649,221.83 621.81,221.565 623.971,221.297 626.132,221.028 628.293,220.756 630.454,220.482 632.615,220.206 634.776,219.928 636.937,219.648 639.098,219.367 641.259,219.083 643.42,218.797 645.581,218.51 647.742,218.221 649.903,217.93 652.064,217.637 654.225,217.343 656.386,217.048 658.547,216.751 660.708,216.452 662.869,216.152 665.03,215.85 667.191,215.548 669.352,215.244 671.513,214.938 673.674,214.632 675.835,214.324 677.996,214.015 680.157,213.705 682.318,213.394 684.479,213.081 686.64,212.768 688.801,212.454 690.962,212.139 693.123,211.823 695.284,211.506 697.445,211.188 699.606,210.869 701.767,210.55 703.927,210.23 706.088,209.909 708.249,209.588 710.41,209.266 712.571,208.943 714.732,208.619 716.893,208.295 719.054,207.971 721.215,207.646 723.376,207.32 725.537,206.994 727.698,206.668 729.859,206.341 732.02,206.014 734.181,205.686 736.342,205.358 738.503,205.03 740.664,204.702 742.825,204.373 744.986,204.044 747.147,203.714 749.308,203.385 751.469,203.055 753.63,202.726 755.791,202.396 757.952,202.066 760.113,201.736 762.274,201.405 764.435,201.075 766.596,200.745 768.757,200.415 770.918,200.085 773.079,199.755 775.24,199.425 777.401,199.095 779.562,198.765 781.723,198.435 783.884,198.105 786.045,197.776 788.206,197.446 790.367,197.117 792.528,196.788 794.689,196.46 796.85,196.131 799.011,195.803 801.172,195.475 803.333,195.148 805.494,194.82 807.655,194.493 809.816,194.167 811.977,193.84 814.138,193.514 816.298,193.189 818.459,192.864 820.62,192.539 822.781,192.214 824.942,191.891 827.103,191.567 829.264,191.244 831.425,190.921 833.586,190.599 835.747,190.278 837.908,189.956 840.069,189.636 842.23,189.316 844.391,188.996 846.552,188.677 848.713,188.358 850.874,188.04 853.035,187.723 855.196,187.406 857.357,187.09 859.518,186.774 861.679,186.459 863.84,186.145 866.001,185.831 868.162,185.518 870.323,185.205 872.484,184.893 874.645,184.582 876.806,184.271 878.967,183.961 881.128,183.652 883.289,183.343 885.45,183.035 887.611,182.728 889.772,182.422 891.933,182.116 894.094,181.811 896.255,181.506 898.416,181.203 900.577,180.9 902.738,180.598 904.899,180.296 907.06,179.996 909.221,179.696 911.382,179.397 913.543,179.099 915.704,178.801 917.865,178.504 920.026,178.209 922.187,177.913 924.348,177.619 926.509,177.326 928.669,177.033 930.83,176.741 932.991,176.45 935.152,176.16 937.313,175.871 939.474,175.582 941.635,175.295 943.796,175.008 945.957,174.722 948.118,174.437 950.279,174.153 952.44,173.869 954.601,173.587 956.762,173.305 958.923,173.025 961.084,172.745 963.245,172.466 965.406,172.188 967.567,171.911 969.728,171.635 971.889,171.359 974.05,171.085 976.211,170.811 978.372,170.538 980.533,170.267 982.694,169.996 984.855,169.726 987.016,169.456 989.177,169.188 991.338,168.921 993.499,168.654 995.66,168.389 997.821,168.124 999.982,167.86 1002.14,167.598 1004.3,167.336 1006.46,167.075 1008.63,166.815 1010.79,166.555 1012.95,166.297 1015.11,166.04 1017.27,165.783 1019.43,165.528 1021.59,165.273 1023.75,165.019 1025.91,164.767 1028.07,164.515 1030.24,164.264 1032.4,164.014 1034.56,163.764 1036.72,163.516 1038.88,163.269 1041.04,163.022 1043.2,162.777 1045.36,162.532 1047.52,162.289 1049.68,162.046 1051.85,161.804 1054.01,161.563 1056.17,161.323 1058.33,161.084 1060.49,160.846 1062.65,160.609 1064.81,160.373 1066.97,160.137 1069.13,159.903 1071.29,159.669 1073.46,159.437 1075.62,159.205 1077.78,158.974 1079.94,158.744 1082.1,158.515 1084.26,158.287 1086.42,158.06 1088.58,157.834 1090.74,157.609 1092.9,157.384 1095.07,157.161 1097.23,156.938 1099.39,156.717 1101.55,156.496 1103.71,156.276 1105.87,156.057 1108.03,155.839 1110.19,155.622 1112.35,155.406 1114.51,155.191 1116.67,154.976 1118.84,154.763 1121,154.55 1123.16,154.339 1125.32,154.128 1127.48,153.918 1129.64,153.709 1131.8,153.501 1133.96,153.294 1136.12,153.087 1138.28,152.882 1140.45,152.677 1142.61,152.473 1144.77,152.271 1146.93,152.069 1149.09,151.867 1151.25,151.667 1153.41,151.468 1155.57,151.269 1157.73,151.072 1159.89,150.875 1162.06,150.679 1164.22,150.484 1166.38,150.29 1168.54,150.096 1170.7,149.904 1172.86,149.712 1175.02,149.521 1177.18,149.331 1179.34,149.142 1181.5,148.954 1183.67,148.766 1185.83,148.58 1187.99,148.394 1190.15,148.209 1192.31,148.025 1194.47,147.841 1196.63,147.659 1198.79,147.477 1200.95,147.296 1203.11,147.116 1205.28,146.937 1207.44,146.758 1209.6,146.581 1211.76,146.404 1213.92,146.228 1216.08,146.053 1218.24,145.878 1220.4,145.705 1222.56,145.532 1224.72,145.36 1226.88,145.189 1229.05,145.018 1231.21,144.848 1233.37,144.679 1235.53,144.511 1237.69,144.344 1239.85,144.177 1242.01,144.012 1244.17,143.847 1246.33,143.682 1248.49,143.519 1250.66,143.356 1252.82,143.194 1254.98,143.033 1257.14,142.873 1259.3,142.713 1261.46,142.554 1263.62,142.396 1265.78,142.239 1267.94,142.082 1270.1,141.926 1272.27,141.771 1274.43,141.617 1276.59,141.463 1278.75,141.31 1280.91,141.158 1283.07,141.006 1285.23,140.856 1287.39,140.706 1289.55,140.556 1291.71,140.408 1293.88,140.26 1296.04,140.113 1298.2,139.966 1300.36,139.821 1302.52,139.676 1304.68,139.532 1306.84,139.388 1309,139.245 1311.16,139.103 1313.32,138.962 1315.49,138.821 1317.65,138.681 1319.81,138.541 1321.97,138.403 1324.13,138.265 1326.29,138.127 1328.45,137.991 1330.61,137.855 1332.77,137.719 1334.93,137.585 1337.09,137.451 1339.26,137.317 1341.42,137.185 1343.58,137.053 1345.74,136.921 1347.9,136.791 1350.06,136.661 1352.22,136.531 1354.38,136.402 1356.54,136.274 1358.7,136.147 1360.87,136.02 1363.03,135.894 1365.19,135.768 1367.35,135.643 1369.51,135.519 1371.67,135.395 1373.83,135.272 1375.99,135.149 1378.15,135.028 1380.31,134.906 1382.48,134.786 1384.64,134.666 1386.8,134.546 1388.96,134.427 1391.12,134.309 1393.28,134.191 1395.44,134.074 1397.6,133.958 1399.76,133.842 1401.92,133.727 1404.09,133.612 1406.25,133.498 1408.41,133.384 1410.57,133.271 1412.73,133.159 1414.89,133.047 1417.05,132.936 1419.21,132.825 1421.37,132.715 1423.53,132.606 1425.7,132.497 1427.86,132.388 1430.02,132.28 1432.18,132.173 1434.34,132.066 1436.5,131.96 1438.66,131.854 1440.82,131.749 1442.98,131.644 1445.14,131.54 1447.3,131.437 1449.47,131.334 1451.63,131.231 1453.79,131.129 1455.95,131.028 1458.11,130.927 1460.27,130.827 1462.43,130.727 1464.59,130.628 1466.75,130.529 1468.91,130.431 1471.08,130.333 1473.24,130.235 1475.4,130.139 1477.56,130.042 1479.72,129.947 1481.88,129.851 1484.04,129.757 1486.2,129.663 1488.36,129.569 1490.52,129.476 1492.69,129.383 1494.85,129.29 1497.01,129.199 1499.17,129.107 1501.33,129.017 1503.49,128.926 1505.65,128.836 1507.81,128.747 1509.97,128.658 1512.13,128.57 1514.3,128.482 1516.46,128.394 1518.62,128.307 1520.78,128.221 1522.94,128.135 1525.1,128.049 1527.26,127.964 1529.42,127.879 1531.58,127.795 1533.74,127.711 1535.91,127.628 1538.07,127.545 1540.23,127.462 1542.39,127.38 1544.55,127.299 1546.71,127.217 1548.87,127.137 1551.03,127.056 1553.19,126.976 1555.35,126.897 1557.51,126.818 1559.68,126.739 1561.84,126.661 1564,126.583 1566.16,126.506 1568.32,126.429 1570.48,126.353 1572.64,126.277 1574.8,126.201 1576.96,126.126 1579.12,126.051 1581.29,125.976 1583.45,125.902 1585.61,125.828 1587.77,125.755 1589.93,125.682 1592.09,125.61 1594.25,125.537 1596.41,125.466 1598.57,125.394 1600.73,125.323 1602.9,125.253 1605.06,125.183 1607.22,125.113 1609.38,125.043 1611.54,124.974 1613.7,124.906 1615.86,124.837 1618.02,124.769 1620.18,124.702 1622.34,124.634 1624.51,124.568 1626.67,124.501 1628.83,124.435 1630.99,124.369 1633.15,124.304 1635.31,124.239 1637.47,124.174 1639.63,124.11 1641.79,124.046 1643.95,123.982 1646.12,123.919 1648.28,123.856 1650.44,123.793 1652.6,123.731 1654.76,123.669 1656.92,123.607 1659.08,123.546 1661.24,123.485 1663.4,123.424 1665.56,123.364 1667.72,123.304 1669.89,123.244 1672.05,123.185 1674.21,123.126 1676.37,123.067 1678.53,123.009 1680.69,122.951 1682.85,122.893 1685.01,122.836 1687.17,122.779 1689.33,122.722 1691.5,122.666 1693.66,122.609 1695.82,122.554 1697.98,122.498 1700.14,122.443 1702.3,122.388 1704.46,122.333 1706.62,122.279 1708.78,122.225 1710.94,122.171 1713.11,122.118 1715.27,122.065 1717.43,122.012 1719.59,121.959 1721.75,121.907 1723.91,121.855 1726.07,121.804 1728.23,121.752 1730.39,121.701 1732.55,121.65 1734.72,121.6 1736.88,121.55 1739.04,121.5 1741.2,121.45 1743.36,121.401 1745.52,121.351 1747.68,121.303 1749.84,121.254 1752,121.206 1754.16,121.158 1756.33,121.11 1758.49,121.062 1760.65,121.015 1762.81,120.968 1764.97,120.922 1767.13,120.875 1769.29,120.829 1771.45,120.783 1773.61,120.737 1775.77,120.692 1777.93,120.647 1780.1,120.602 1782.26,120.557 1784.42,120.513 1786.58,120.469 1788.74,120.425 1790.9,120.381 1793.06,120.338 1795.22,120.295 1797.38,120.252 1799.54,120.209 1801.71,120.166 1803.87,120.124 1806.03,120.082 1808.19,120.041 1810.35,119.999 1812.51,119.958 1814.67,119.917 1816.83,119.876 1818.99,119.835 1821.15,119.795 1823.32,119.755 1825.48,119.715 1827.64,119.675 1829.8,119.636 1831.96,119.597 1834.12,119.558 1836.28,119.519 1838.44,119.48 1840.6,119.442 1842.76,119.404 1844.93,119.366 1847.09,119.328 1849.25,119.291 1851.41,119.253 1853.57,119.216 1855.73,119.179 1857.89,119.143 1860.05,119.106 1862.21,119.07 1864.37,119.034 1866.54,118.998 1868.7,118.963 1870.86,118.927 1873.02,118.892 1875.18,118.857 1877.34,118.822 1879.5,118.787 1881.66,118.753 1883.82,118.719 1885.98,118.685 1888.15,118.651 1890.31,118.617 1892.47,118.584 1894.63,118.55 1896.79,118.517 1898.95,118.484 1901.11,118.452 1903.27,118.419 1905.43,118.387 1907.59,118.354 1909.75,118.322 1911.92,118.291 1914.08,118.259 1916.24,118.228 1918.4,118.196 1920.56,118.165 1922.72,118.134 1924.88,118.103 1927.04,118.073 1929.2,118.042 1931.36,118.012 1933.53,117.982 1935.69,117.952 1937.85,117.923 1940.01,117.893 1942.17,117.864 1944.33,117.834 1946.49,117.805 1948.65,117.777 1950.81,117.748 1952.97,117.719 1955.14,117.691 1957.3,117.663 1959.46,117.635 1961.62,117.607 1963.78,117.579 1965.94,117.551 1968.1,117.524 1970.26,117.497 1972.42,117.469 1974.58,117.442 1976.75,117.416 1978.91,117.389 1981.07,117.363 1983.23,117.336 1985.39,117.31 1987.55,117.284 1989.71,117.258 1991.87,117.232 1994.03,117.207 1996.19,117.181 1998.36,117.156 2000.52,117.131 2002.68,117.106 2004.84,117.081 2007,117.056 2009.16,117.031 2011.32,117.007 2013.48,116.983 2015.64,116.958 2017.8,116.934 2019.96,116.91 2022.13,116.887 2024.29,116.863 2026.45,116.84 2028.61,116.816 2030.77,116.793 2032.93,116.77 2035.09,116.747 2037.25,116.724 2039.41,116.701 2041.57,116.679 2043.74,116.656 2045.9,116.634 2048.06,116.612 2050.22,116.59 2052.38,116.568 2054.54,116.546 2056.7,116.525 2058.86,116.503 2061.02,116.482 2063.18,116.46 2065.35,116.439 2067.51,116.418 2069.67,116.397 2071.83,116.376 2073.99,116.356 2076.15,116.335 2078.31,116.315 2080.47,116.294 2082.63,116.274 2084.79,116.254 2086.96,116.234 2089.12,116.214 2091.28,116.194 2093.44,116.175 2095.6,116.155 2097.76,116.136 2099.92,116.117 2102.08,116.097 2104.24,116.078 2106.4,116.059 2108.57,116.041 2110.73,116.022 2112.89,116.003 2115.05,115.985 2117.21,115.966 2119.37,115.948 2121.53,115.93 2123.69,115.912 2125.85,115.894 2128.01,115.876 2130.17,115.858 2132.34,115.84 2134.5,115.823 2136.66,115.805 2138.82,115.788 2140.98,115.77 2143.14,115.753 2145.3,115.736 2147.46,115.719 2149.62,115.702 2151.78,115.685 2153.95,115.669 2156.11,115.652 2158.27,115.636 2160.43,115.619 2162.59,115.603 2164.75,115.587 2166.91,115.571 2169.07,115.555 2171.23,115.539 2173.39,115.523 2175.56,115.507 2177.72,115.491 2179.88,115.476 2182.04,115.46 2184.2,115.445 2186.36,115.43 2188.52,115.415 2190.68,115.399 2192.84,115.384 2195,115.369 2197.17,115.355 2199.33,115.34 2201.49,115.325 2203.65,115.311 2205.81,115.296 2207.97,115.282 2210.13,115.267 2212.29,115.253 2214.45,115.239 2216.61,115.225 2218.78,115.211 2220.94,115.197 2223.1,115.183 2225.26,115.169 2227.42,115.156 2229.58,115.142 2231.74,115.128 2233.9,115.115 2236.06,115.102 2238.22,115.088 2240.38,115.075 2242.55,115.062 2244.71,115.049 2246.87,115.036 2249.03,115.023 2251.19,115.01 2253.35,114.997 2255.51,114.985 2257.67,114.972 2259.83,114.96 2261.99,114.947 2264.16,114.935 2266.32,114.922 2268.48,114.91 2270.64,114.898 2272.8,114.886 2274.96,114.874 2277.12,114.862 2279.28,114.85 2281.44,114.838 2283.6,114.826 2285.77,114.815 2287.93,114.803 2290.09,114.791 2292.25,114.78 2294.41,114.769 2296.57,114.757 2298.73,114.746 2300.89,114.735 2303.05,114.724 2305.21,114.712 2307.38,114.701 2309.54,114.691 2311.7,114.68 2313.86,114.669 2316.02,114.658 2318.18,114.647 2320.34,114.637 2322.5,114.626 2324.66,114.616 2326.82,114.605 2328.99,114.595 2331.15,114.584 2333.31,114.574 2335.47,114.564 2337.63,114.554 2339.79,114.544 2341.95,114.534 2344.11,114.524 2346.27,114.514 2348.43,114.504 2350.59,114.494 2352.76,114.484 "/>
<path clip-path="url(#clip410)" d="M1805.52 1377.32 L2280.8 1377.32 L2280.8 1221.8 L1805.52 1221.8  Z" fill="#ffffff" fill-rule="evenodd" fill-opacity="1"/>
<polyline clip-path="url(#clip410)" style="stroke:#000000; stroke-linecap:round; stroke-linejoin:round; stroke-width:4; stroke-opacity:1; fill:none" points="1805.52,1377.32 2280.8,1377.32 2280.8,1221.8 1805.52,1221.8 1805.52,1377.32 "/>
<polyline clip-path="url(#clip410)" style="stroke:#009af9; stroke-linecap:round; stroke-linejoin:round; stroke-width:4; stroke-opacity:1; fill:none" points="1829.5,1273.64 1973.42,1273.64 "/>
<path clip-path="url(#clip410)" d="M1997.41 1264.99 L2001.93 1264.99 L2010.03 1286.75 L2018.13 1264.99 L2022.64 1264.99 L2012.92 1290.92 L2007.13 1290.92 L1997.41 1264.99 Z" fill="#000000" fill-rule="nonzero" fill-opacity="1" /><path clip-path="url(#clip410)" d="M2029.93 1286.98 L2037.57 1286.98 L2037.57 1260.61 L2029.26 1262.28 L2029.26 1258.02 L2037.53 1256.36 L2042.2 1256.36 L2042.2 1286.98 L2049.84 1286.98 L2049.84 1290.92 L2029.93 1290.92 L2029.93 1286.98 Z" fill="#000000" fill-rule="nonzero" fill-opacity="1" /><path clip-path="url(#clip410)" d="M2067.94 1274.27 L2067.94 1281.49 L2076.07 1281.49 L2076.07 1283.69 L2067.94 1283.69 L2067.94 1290.92 L2065.51 1290.92 L2065.51 1283.69 L2057.39 1283.69 L2057.39 1281.49 L2065.51 1281.49 L2065.51 1274.27 L2067.94 1274.27 Z" fill="#000000" fill-rule="nonzero" fill-opacity="1" /><path clip-path="url(#clip410)" d="M2100.24 1265.75 L2100.24 1269.78 Q2098.43 1268.86 2096.49 1268.39 Q2094.54 1267.93 2092.46 1267.93 Q2089.29 1267.93 2087.69 1268.9 Q2086.11 1269.87 2086.11 1271.82 Q2086.11 1273.3 2087.25 1274.16 Q2088.38 1274.99 2091.81 1275.75 L2093.27 1276.08 Q2097.8 1277.05 2099.7 1278.83 Q2101.62 1280.59 2101.62 1283.76 Q2101.62 1287.37 2098.75 1289.48 Q2095.91 1291.59 2090.91 1291.59 Q2088.82 1291.59 2086.55 1291.17 Q2084.31 1290.78 2081.81 1289.97 L2081.81 1285.57 Q2084.17 1286.79 2086.46 1287.42 Q2088.75 1288.02 2091 1288.02 Q2094.01 1288.02 2095.63 1287 Q2097.25 1285.96 2097.25 1284.09 Q2097.25 1282.35 2096.07 1281.42 Q2094.91 1280.5 2090.95 1279.64 L2089.47 1279.3 Q2085.51 1278.46 2083.75 1276.75 Q2081.99 1275.01 2081.99 1272 Q2081.99 1268.35 2084.59 1266.36 Q2087.18 1264.36 2091.95 1264.36 Q2094.31 1264.36 2096.39 1264.71 Q2098.48 1265.06 2100.24 1265.75 Z" fill="#000000" fill-rule="nonzero" fill-opacity="1" /><path clip-path="url(#clip410)" d="M2112.62 1257.63 L2112.62 1264.99 L2121.39 1264.99 L2121.39 1268.3 L2112.62 1268.3 L2112.62 1282.37 Q2112.62 1285.54 2113.48 1286.45 Q2114.36 1287.35 2117.02 1287.35 L2121.39 1287.35 L2121.39 1290.92 L2117.02 1290.92 Q2112.09 1290.92 2110.21 1289.09 Q2108.34 1287.23 2108.34 1282.37 L2108.34 1268.3 L2105.21 1268.3 L2105.21 1264.99 L2108.34 1264.99 L2108.34 1257.63 L2112.62 1257.63 Z" fill="#000000" fill-rule="nonzero" fill-opacity="1" /><path clip-path="url(#clip410)" d="M2137.04 1267.98 Q2133.61 1267.98 2131.62 1270.66 Q2129.63 1273.32 2129.63 1277.98 Q2129.63 1282.63 2131.6 1285.31 Q2133.59 1287.98 2137.04 1287.98 Q2140.44 1287.98 2142.43 1285.29 Q2144.42 1282.61 2144.42 1277.98 Q2144.42 1273.37 2142.43 1270.68 Q2140.44 1267.98 2137.04 1267.98 M2137.04 1264.36 Q2142.6 1264.36 2145.77 1267.98 Q2148.94 1271.59 2148.94 1277.98 Q2148.94 1284.34 2145.77 1287.98 Q2142.6 1291.59 2137.04 1291.59 Q2131.46 1291.59 2128.29 1287.98 Q2125.14 1284.34 2125.14 1277.98 Q2125.14 1271.59 2128.29 1267.98 Q2131.46 1264.36 2137.04 1264.36 Z" fill="#000000" fill-rule="nonzero" fill-opacity="1" /><path clip-path="url(#clip410)" d="M2171.02 1268.97 Q2170.3 1268.55 2169.45 1268.37 Q2168.61 1268.16 2167.6 1268.16 Q2163.98 1268.16 2162.04 1270.52 Q2160.12 1272.86 2160.12 1277.26 L2160.12 1290.92 L2155.84 1290.92 L2155.84 1264.99 L2160.12 1264.99 L2160.12 1269.02 Q2161.46 1266.66 2163.61 1265.52 Q2165.77 1264.36 2168.85 1264.36 Q2169.29 1264.36 2169.82 1264.43 Q2170.35 1264.48 2171 1264.6 L2171.02 1268.97 Z" fill="#000000" fill-rule="nonzero" fill-opacity="1" /><path clip-path="url(#clip410)" d="M2187.27 1277.88 Q2182.11 1277.88 2180.12 1279.06 Q2178.13 1280.24 2178.13 1283.09 Q2178.13 1285.36 2179.61 1286.7 Q2181.11 1288.02 2183.68 1288.02 Q2187.23 1288.02 2189.36 1285.52 Q2191.51 1283 2191.51 1278.83 L2191.51 1277.88 L2187.27 1277.88 M2195.77 1276.12 L2195.77 1290.92 L2191.51 1290.92 L2191.51 1286.98 Q2190.05 1289.34 2187.87 1290.48 Q2185.7 1291.59 2182.55 1291.59 Q2178.57 1291.59 2176.21 1289.36 Q2173.87 1287.12 2173.87 1283.37 Q2173.87 1278.99 2176.79 1276.77 Q2179.73 1274.55 2185.54 1274.55 L2191.51 1274.55 L2191.51 1274.13 Q2191.51 1271.19 2189.56 1269.6 Q2187.64 1267.98 2184.15 1267.98 Q2181.92 1267.98 2179.82 1268.51 Q2177.71 1269.04 2175.77 1270.11 L2175.77 1266.17 Q2178.11 1265.27 2180.3 1264.83 Q2182.5 1264.36 2184.59 1264.36 Q2190.21 1264.36 2192.99 1267.28 Q2195.77 1270.2 2195.77 1276.12 Z" fill="#000000" fill-rule="nonzero" fill-opacity="1" /><path clip-path="url(#clip410)" d="M2221.6 1277.65 Q2221.6 1273.02 2219.68 1270.48 Q2217.78 1267.93 2214.33 1267.93 Q2210.91 1267.93 2208.98 1270.48 Q2207.09 1273.02 2207.09 1277.65 Q2207.09 1282.26 2208.98 1284.8 Q2210.91 1287.35 2214.33 1287.35 Q2217.78 1287.35 2219.68 1284.8 Q2221.6 1282.26 2221.6 1277.65 M2225.86 1287.7 Q2225.86 1294.32 2222.92 1297.54 Q2219.98 1300.78 2213.92 1300.78 Q2211.67 1300.78 2209.68 1300.43 Q2207.69 1300.11 2205.81 1299.41 L2205.81 1295.27 Q2207.69 1296.29 2209.52 1296.77 Q2211.35 1297.26 2213.24 1297.26 Q2217.43 1297.26 2219.52 1295.06 Q2221.6 1292.88 2221.6 1288.46 L2221.6 1286.36 Q2220.28 1288.65 2218.22 1289.78 Q2216.16 1290.92 2213.29 1290.92 Q2208.52 1290.92 2205.6 1287.28 Q2202.69 1283.65 2202.69 1277.65 Q2202.69 1271.63 2205.6 1268 Q2208.52 1264.36 2213.29 1264.36 Q2216.16 1264.36 2218.22 1265.5 Q2220.28 1266.63 2221.6 1268.92 L2221.6 1264.99 L2225.86 1264.99 L2225.86 1287.7 Z" fill="#000000" fill-rule="nonzero" fill-opacity="1" /><path clip-path="url(#clip410)" d="M2256.81 1276.89 L2256.81 1278.97 L2237.23 1278.97 Q2237.5 1283.37 2239.86 1285.68 Q2242.25 1287.98 2246.48 1287.98 Q2248.94 1287.98 2251.23 1287.37 Q2253.54 1286.77 2255.81 1285.57 L2255.81 1289.6 Q2253.52 1290.57 2251.11 1291.08 Q2248.71 1291.59 2246.23 1291.59 Q2240.03 1291.59 2236.39 1287.98 Q2232.78 1284.36 2232.78 1278.21 Q2232.78 1271.84 2236.21 1268.11 Q2239.66 1264.36 2245.49 1264.36 Q2250.72 1264.36 2253.75 1267.74 Q2256.81 1271.1 2256.81 1276.89 M2252.55 1275.64 Q2252.5 1272.14 2250.58 1270.06 Q2248.68 1267.98 2245.54 1267.98 Q2241.97 1267.98 2239.82 1269.99 Q2237.69 1272 2237.36 1275.66 L2252.55 1275.64 Z" fill="#000000" fill-rule="nonzero" fill-opacity="1" /><polyline clip-path="url(#clip410)" style="stroke:#e26f46; stroke-linecap:round; stroke-linejoin:round; stroke-width:4; stroke-opacity:1; fill:none" points="1829.5,1325.48 1973.42,1325.48 "/>
<path clip-path="url(#clip410)" d="M1997.41 1316.83 L2001.93 1316.83 L2010.03 1338.59 L2018.13 1316.83 L2022.64 1316.83 L2012.92 1342.76 L2007.13 1342.76 L1997.41 1316.83 Z" fill="#000000" fill-rule="nonzero" fill-opacity="1" /><path clip-path="url(#clip410)" d="M2029.17 1308.2 L2047.53 1308.2 L2047.53 1312.13 L2033.45 1312.13 L2033.45 1320.6 Q2034.47 1320.26 2035.49 1320.09 Q2036.51 1319.91 2037.53 1319.91 Q2043.31 1319.91 2046.69 1323.08 Q2050.07 1326.25 2050.07 1331.67 Q2050.07 1337.25 2046.6 1340.35 Q2043.13 1343.43 2036.81 1343.43 Q2034.63 1343.43 2032.37 1343.06 Q2030.12 1342.69 2027.71 1341.95 L2027.71 1337.25 Q2029.8 1338.38 2032.02 1338.94 Q2034.24 1339.49 2036.72 1339.49 Q2040.72 1339.49 2043.06 1337.38 Q2045.4 1335.28 2045.4 1331.67 Q2045.4 1328.06 2043.06 1325.95 Q2040.72 1323.84 2036.72 1323.84 Q2034.84 1323.84 2032.97 1324.26 Q2031.12 1324.68 2029.17 1325.56 L2029.17 1308.2 Z" fill="#000000" fill-rule="nonzero" fill-opacity="1" /><path clip-path="url(#clip410)" d="M2067.94 1326.11 L2067.94 1333.33 L2076.07 1333.33 L2076.07 1335.53 L2067.94 1335.53 L2067.94 1342.76 L2065.51 1342.76 L2065.51 1335.53 L2057.39 1335.53 L2057.39 1333.33 L2065.51 1333.33 L2065.51 1326.11 L2067.94 1326.11 Z" fill="#000000" fill-rule="nonzero" fill-opacity="1" /><path clip-path="url(#clip410)" d="M2100.24 1317.59 L2100.24 1321.62 Q2098.43 1320.7 2096.49 1320.23 Q2094.54 1319.77 2092.46 1319.77 Q2089.29 1319.77 2087.69 1320.74 Q2086.11 1321.71 2086.11 1323.66 Q2086.11 1325.14 2087.25 1326 Q2088.38 1326.83 2091.81 1327.59 L2093.27 1327.92 Q2097.8 1328.89 2099.7 1330.67 Q2101.62 1332.43 2101.62 1335.6 Q2101.62 1339.21 2098.75 1341.32 Q2095.91 1343.43 2090.91 1343.43 Q2088.82 1343.43 2086.55 1343.01 Q2084.31 1342.62 2081.81 1341.81 L2081.81 1337.41 Q2084.17 1338.63 2086.46 1339.26 Q2088.75 1339.86 2091 1339.86 Q2094.01 1339.86 2095.63 1338.84 Q2097.25 1337.8 2097.25 1335.93 Q2097.25 1334.19 2096.07 1333.26 Q2094.91 1332.34 2090.95 1331.48 L2089.47 1331.14 Q2085.51 1330.3 2083.75 1328.59 Q2081.99 1326.85 2081.99 1323.84 Q2081.99 1320.19 2084.59 1318.2 Q2087.18 1316.2 2091.95 1316.2 Q2094.31 1316.2 2096.39 1316.55 Q2098.48 1316.9 2100.24 1317.59 Z" fill="#000000" fill-rule="nonzero" fill-opacity="1" /><path clip-path="url(#clip410)" d="M2112.62 1309.47 L2112.62 1316.83 L2121.39 1316.83 L2121.39 1320.14 L2112.62 1320.14 L2112.62 1334.21 Q2112.62 1337.38 2113.48 1338.29 Q2114.36 1339.19 2117.02 1339.19 L2121.39 1339.19 L2121.39 1342.76 L2117.02 1342.76 Q2112.09 1342.76 2110.21 1340.93 Q2108.34 1339.07 2108.34 1334.21 L2108.34 1320.14 L2105.21 1320.14 L2105.21 1316.83 L2108.34 1316.83 L2108.34 1309.47 L2112.62 1309.47 Z" fill="#000000" fill-rule="nonzero" fill-opacity="1" /><path clip-path="url(#clip410)" d="M2137.04 1319.82 Q2133.61 1319.82 2131.62 1322.5 Q2129.63 1325.16 2129.63 1329.82 Q2129.63 1334.47 2131.6 1337.15 Q2133.59 1339.82 2137.04 1339.82 Q2140.44 1339.82 2142.43 1337.13 Q2144.42 1334.45 2144.42 1329.82 Q2144.42 1325.21 2142.43 1322.52 Q2140.44 1319.82 2137.04 1319.82 M2137.04 1316.2 Q2142.6 1316.2 2145.77 1319.82 Q2148.94 1323.43 2148.94 1329.82 Q2148.94 1336.18 2145.77 1339.82 Q2142.6 1343.43 2137.04 1343.43 Q2131.46 1343.43 2128.29 1339.82 Q2125.14 1336.18 2125.14 1329.82 Q2125.14 1323.43 2128.29 1319.82 Q2131.46 1316.2 2137.04 1316.2 Z" fill="#000000" fill-rule="nonzero" fill-opacity="1" /><path clip-path="url(#clip410)" d="M2171.02 1320.81 Q2170.3 1320.39 2169.45 1320.21 Q2168.61 1320 2167.6 1320 Q2163.98 1320 2162.04 1322.36 Q2160.12 1324.7 2160.12 1329.1 L2160.12 1342.76 L2155.84 1342.76 L2155.84 1316.83 L2160.12 1316.83 L2160.12 1320.86 Q2161.46 1318.5 2163.61 1317.36 Q2165.77 1316.2 2168.85 1316.2 Q2169.29 1316.2 2169.82 1316.27 Q2170.35 1316.32 2171 1316.44 L2171.02 1320.81 Z" fill="#000000" fill-rule="nonzero" fill-opacity="1" /><path clip-path="url(#clip410)" d="M2187.27 1329.72 Q2182.11 1329.72 2180.12 1330.9 Q2178.13 1332.08 2178.13 1334.93 Q2178.13 1337.2 2179.61 1338.54 Q2181.11 1339.86 2183.68 1339.86 Q2187.23 1339.86 2189.36 1337.36 Q2191.51 1334.84 2191.51 1330.67 L2191.51 1329.72 L2187.27 1329.72 M2195.77 1327.96 L2195.77 1342.76 L2191.51 1342.76 L2191.51 1338.82 Q2190.05 1341.18 2187.87 1342.32 Q2185.7 1343.43 2182.55 1343.43 Q2178.57 1343.43 2176.21 1341.2 Q2173.87 1338.96 2173.87 1335.21 Q2173.87 1330.83 2176.79 1328.61 Q2179.73 1326.39 2185.54 1326.39 L2191.51 1326.39 L2191.51 1325.97 Q2191.51 1323.03 2189.56 1321.44 Q2187.64 1319.82 2184.15 1319.82 Q2181.92 1319.82 2179.82 1320.35 Q2177.71 1320.88 2175.77 1321.95 L2175.77 1318.01 Q2178.11 1317.11 2180.3 1316.67 Q2182.5 1316.2 2184.59 1316.2 Q2190.21 1316.2 2192.99 1319.12 Q2195.77 1322.04 2195.77 1327.96 Z" fill="#000000" fill-rule="nonzero" fill-opacity="1" /><path clip-path="url(#clip410)" d="M2221.6 1329.49 Q2221.6 1324.86 2219.68 1322.32 Q2217.78 1319.77 2214.33 1319.77 Q2210.91 1319.77 2208.98 1322.32 Q2207.09 1324.86 2207.09 1329.49 Q2207.09 1334.1 2208.98 1336.64 Q2210.91 1339.19 2214.33 1339.19 Q2217.78 1339.19 2219.68 1336.64 Q2221.6 1334.1 2221.6 1329.49 M2225.86 1339.54 Q2225.86 1346.16 2222.92 1349.38 Q2219.98 1352.62 2213.92 1352.62 Q2211.67 1352.62 2209.68 1352.27 Q2207.69 1351.95 2205.81 1351.25 L2205.81 1347.11 Q2207.69 1348.13 2209.52 1348.61 Q2211.35 1349.1 2213.24 1349.1 Q2217.43 1349.1 2219.52 1346.9 Q2221.6 1344.72 2221.6 1340.3 L2221.6 1338.2 Q2220.28 1340.49 2218.22 1341.62 Q2216.16 1342.76 2213.29 1342.76 Q2208.52 1342.76 2205.6 1339.12 Q2202.69 1335.49 2202.69 1329.49 Q2202.69 1323.47 2205.6 1319.84 Q2208.52 1316.2 2213.29 1316.2 Q2216.16 1316.2 2218.22 1317.34 Q2220.28 1318.47 2221.6 1320.76 L2221.6 1316.83 L2225.86 1316.83 L2225.86 1339.54 Z" fill="#000000" fill-rule="nonzero" fill-opacity="1" /><path clip-path="url(#clip410)" d="M2256.81 1328.73 L2256.81 1330.81 L2237.23 1330.81 Q2237.5 1335.21 2239.86 1337.52 Q2242.25 1339.82 2246.48 1339.82 Q2248.94 1339.82 2251.23 1339.21 Q2253.54 1338.61 2255.81 1337.41 L2255.81 1341.44 Q2253.52 1342.41 2251.11 1342.92 Q2248.71 1343.43 2246.23 1343.43 Q2240.03 1343.43 2236.39 1339.82 Q2232.78 1336.2 2232.78 1330.05 Q2232.78 1323.68 2236.21 1319.95 Q2239.66 1316.2 2245.49 1316.2 Q2250.72 1316.2 2253.75 1319.58 Q2256.81 1322.94 2256.81 1328.73 M2252.55 1327.48 Q2252.5 1323.98 2250.58 1321.9 Q2248.68 1319.82 2245.54 1319.82 Q2241.97 1319.82 2239.82 1321.83 Q2237.69 1323.84 2237.36 1327.5 L2252.55 1327.48 Z" fill="#000000" fill-rule="nonzero" fill-opacity="1" /></svg>
