<?xml version="1.0" encoding="utf-8"?>
<svg xmlns="http://www.w3.org/2000/svg" xmlns:xlink="http://www.w3.org/1999/xlink" width="600" height="400" viewBox="0 0 2400 1600">
<defs>
  <clipPath id="clip260">
    <rect x="0" y="0" width="2400" height="1600"/>
  </clipPath>
</defs>
<path clip-path="url(#clip260)" d="M0 1600 L2400 1600 L2400 0 L0 0  Z" fill="#ffffff" fill-rule="evenodd" fill-opacity="1"/>
<defs>
  <clipPath id="clip261">
    <rect x="480" y="0" width="1681" height="1600"/>
  </clipPath>
</defs>
<path clip-path="url(#clip260)" d="M156.112 1423.18 L2352.76 1423.18 L2352.76 47.2441 L156.112 47.2441  Z" fill="#ffffff" fill-rule="evenodd" fill-opacity="1"/>
<defs>
  <clipPath id="clip262">
    <rect x="156" y="47" width="2198" height="1377"/>
  </clipPath>
</defs>
<polyline clip-path="url(#clip262)" style="stroke:#000000; stroke-linecap:round; stroke-linejoin:round; stroke-width:2; stroke-opacity:0.1; fill:none" points="156.112,1423.18 156.112,47.2441 "/>
<polyline clip-path="url(#clip262)" style="stroke:#000000; stroke-linecap:round; stroke-linejoin:round; stroke-width:2; stroke-opacity:0.1; fill:none" points="705.273,1423.18 705.273,47.2441 "/>
<polyline clip-path="url(#clip262)" style="stroke:#000000; stroke-linecap:round; stroke-linejoin:round; stroke-width:2; stroke-opacity:0.1; fill:none" points="1254.43,1423.18 1254.43,47.2441 "/>
<polyline clip-path="url(#clip262)" style="stroke:#000000; stroke-linecap:round; stroke-linejoin:round; stroke-width:2; stroke-opacity:0.1; fill:none" points="1803.59,1423.18 1803.59,47.2441 "/>
<polyline clip-path="url(#clip262)" style="stroke:#000000; stroke-linecap:round; stroke-linejoin:round; stroke-width:2; stroke-opacity:0.1; fill:none" points="2352.76,1423.18 2352.76,47.2441 "/>
<polyline clip-path="url(#clip262)" style="stroke:#000000; stroke-linecap:round; stroke-linejoin:round; stroke-width:2; stroke-opacity:0.1; fill:none" points="156.112,1283.6 2352.76,1283.6 "/>
<polyline clip-path="url(#clip262)" style="stroke:#000000; stroke-linecap:round; stroke-linejoin:round; stroke-width:2; stroke-opacity:0.1; fill:none" points="156.112,1026.21 2352.76,1026.21 "/>
<polyline clip-path="url(#clip262)" style="stroke:#000000; stroke-linecap:round; stroke-linejoin:round; stroke-width:2; stroke-opacity:0.1; fill:none" points="156.112,768.827 2352.76,768.827 "/>
<polyline clip-path="url(#clip262)" style="stroke:#000000; stroke-linecap:round; stroke-linejoin:round; stroke-width:2; stroke-opacity:0.1; fill:none" points="156.112,511.44 2352.76,511.44 "/>
<polyline clip-path="url(#clip262)" style="stroke:#000000; stroke-linecap:round; stroke-linejoin:round; stroke-width:2; stroke-opacity:0.1; fill:none" points="156.112,254.053 2352.76,254.053 "/>
<polyline clip-path="url(#clip260)" style="stroke:#000000; stroke-linecap:round; stroke-linejoin:round; stroke-width:4; stroke-opacity:1; fill:none" points="156.112,1423.18 2352.76,1423.18 "/>
<polyline clip-path="url(#clip260)" style="stroke:#000000; stroke-linecap:round; stroke-linejoin:round; stroke-width:4; stroke-opacity:1; fill:none" points="156.112,1423.18 156.112,1404.28 "/>
<polyline clip-path="url(#clip260)" style="stroke:#000000; stroke-linecap:round; stroke-linejoin:round; stroke-width:4; stroke-opacity:1; fill:none" points="705.273,1423.18 705.273,1404.28 "/>
<polyline clip-path="url(#clip260)" style="stroke:#000000; stroke-linecap:round; stroke-linejoin:round; stroke-width:4; stroke-opacity:1; fill:none" points="1254.43,1423.18 1254.43,1404.28 "/>
<polyline clip-path="url(#clip260)" style="stroke:#000000; stroke-linecap:round; stroke-linejoin:round; stroke-width:4; stroke-opacity:1; fill:none" points="1803.59,1423.18 1803.59,1404.28 "/>
<polyline clip-path="url(#clip260)" style="stroke:#000000; stroke-linecap:round; stroke-linejoin:round; stroke-width:4; stroke-opacity:1; fill:none" points="2352.76,1423.18 2352.76,1404.28 "/>
<path clip-path="url(#clip260)" d="M133.497 1454.1 Q129.885 1454.1 128.057 1457.66 Q126.251 1461.2 126.251 1468.33 Q126.251 1475.44 128.057 1479.01 Q129.885 1482.55 133.497 1482.55 Q137.131 1482.55 138.936 1479.01 Q140.765 1475.44 140.765 1468.33 Q140.765 1461.2 138.936 1457.66 Q137.131 1454.1 133.497 1454.1 M133.497 1450.39 Q139.307 1450.39 142.362 1455 Q145.441 1459.58 145.441 1468.33 Q145.441 1477.06 142.362 1481.67 Q139.307 1486.25 133.497 1486.25 Q127.686 1486.25 124.608 1481.67 Q121.552 1477.06 121.552 1468.33 Q121.552 1459.58 124.608 1455 Q127.686 1450.39 133.497 1450.39 Z" fill="#000000" fill-rule="nonzero" fill-opacity="1" /><path clip-path="url(#clip260)" d="M153.658 1479.7 L158.543 1479.7 L158.543 1485.58 L153.658 1485.58 L153.658 1479.7 Z" fill="#000000" fill-rule="nonzero" fill-opacity="1" /><path clip-path="url(#clip260)" d="M178.728 1454.1 Q175.117 1454.1 173.288 1457.66 Q171.482 1461.2 171.482 1468.33 Q171.482 1475.44 173.288 1479.01 Q175.117 1482.55 178.728 1482.55 Q182.362 1482.55 184.168 1479.01 Q185.996 1475.44 185.996 1468.33 Q185.996 1461.2 184.168 1457.66 Q182.362 1454.1 178.728 1454.1 M178.728 1450.39 Q184.538 1450.39 187.593 1455 Q190.672 1459.58 190.672 1468.33 Q190.672 1477.06 187.593 1481.67 Q184.538 1486.25 178.728 1486.25 Q172.918 1486.25 169.839 1481.67 Q166.783 1477.06 166.783 1468.33 Q166.783 1459.58 169.839 1455 Q172.918 1450.39 178.728 1450.39 Z" fill="#000000" fill-rule="nonzero" fill-opacity="1" /><path clip-path="url(#clip260)" d="M683.155 1454.1 Q679.544 1454.1 677.715 1457.66 Q675.91 1461.2 675.91 1468.33 Q675.91 1475.44 677.715 1479.01 Q679.544 1482.55 683.155 1482.55 Q686.789 1482.55 688.595 1479.01 Q690.424 1475.44 690.424 1468.33 Q690.424 1461.2 688.595 1457.66 Q686.789 1454.1 683.155 1454.1 M683.155 1450.39 Q688.965 1450.39 692.021 1455 Q695.1 1459.58 695.1 1468.33 Q695.1 1477.06 692.021 1481.67 Q688.965 1486.25 683.155 1486.25 Q677.345 1486.25 674.266 1481.67 Q671.211 1477.06 671.211 1468.33 Q671.211 1459.58 674.266 1455 Q677.345 1450.39 683.155 1450.39 Z" fill="#000000" fill-rule="nonzero" fill-opacity="1" /><path clip-path="url(#clip260)" d="M703.317 1479.7 L708.201 1479.7 L708.201 1485.58 L703.317 1485.58 L703.317 1479.7 Z" fill="#000000" fill-rule="nonzero" fill-opacity="1" /><path clip-path="url(#clip260)" d="M718.433 1451.02 L736.789 1451.02 L736.789 1454.96 L722.715 1454.96 L722.715 1463.43 Q723.734 1463.08 724.752 1462.92 Q725.771 1462.73 726.789 1462.73 Q732.576 1462.73 735.956 1465.9 Q739.335 1469.08 739.335 1474.49 Q739.335 1480.07 735.863 1483.17 Q732.391 1486.25 726.072 1486.25 Q723.896 1486.25 721.627 1485.88 Q719.382 1485.51 716.974 1484.77 L716.974 1480.07 Q719.058 1481.2 721.28 1481.76 Q723.502 1482.32 725.979 1482.32 Q729.984 1482.32 732.322 1480.21 Q734.659 1478.1 734.659 1474.49 Q734.659 1470.88 732.322 1468.77 Q729.984 1466.67 725.979 1466.67 Q724.104 1466.67 722.229 1467.08 Q720.377 1467.5 718.433 1468.38 L718.433 1451.02 Z" fill="#000000" fill-rule="nonzero" fill-opacity="1" /><path clip-path="url(#clip260)" d="M1221.59 1481.64 L1229.23 1481.64 L1229.23 1455.28 L1220.92 1456.95 L1220.92 1452.69 L1229.18 1451.02 L1233.86 1451.02 L1233.86 1481.64 L1241.49 1481.64 L1241.49 1485.58 L1221.59 1485.58 L1221.59 1481.64 Z" fill="#000000" fill-rule="nonzero" fill-opacity="1" /><path clip-path="url(#clip260)" d="M1250.94 1479.7 L1255.82 1479.7 L1255.82 1485.58 L1250.94 1485.58 L1250.94 1479.7 Z" fill="#000000" fill-rule="nonzero" fill-opacity="1" /><path clip-path="url(#clip260)" d="M1276.01 1454.1 Q1272.4 1454.1 1270.57 1457.66 Q1268.76 1461.2 1268.76 1468.33 Q1268.76 1475.44 1270.57 1479.01 Q1272.4 1482.55 1276.01 1482.55 Q1279.64 1482.55 1281.45 1479.01 Q1283.28 1475.44 1283.28 1468.33 Q1283.28 1461.2 1281.45 1457.66 Q1279.64 1454.1 1276.01 1454.1 M1276.01 1450.39 Q1281.82 1450.39 1284.87 1455 Q1287.95 1459.58 1287.95 1468.33 Q1287.95 1477.06 1284.87 1481.67 Q1281.82 1486.25 1276.01 1486.25 Q1270.2 1486.25 1267.12 1481.67 Q1264.06 1477.06 1264.06 1468.33 Q1264.06 1459.58 1267.12 1455 Q1270.2 1450.39 1276.01 1450.39 Z" fill="#000000" fill-rule="nonzero" fill-opacity="1" /><path clip-path="url(#clip260)" d="M1771.25 1481.64 L1778.88 1481.64 L1778.88 1455.28 L1770.57 1456.95 L1770.57 1452.69 L1778.84 1451.02 L1783.51 1451.02 L1783.51 1481.64 L1791.15 1481.64 L1791.15 1485.58 L1771.25 1485.58 L1771.25 1481.64 Z" fill="#000000" fill-rule="nonzero" fill-opacity="1" /><path clip-path="url(#clip260)" d="M1800.6 1479.7 L1805.48 1479.7 L1805.48 1485.58 L1800.6 1485.58 L1800.6 1479.7 Z" fill="#000000" fill-rule="nonzero" fill-opacity="1" /><path clip-path="url(#clip260)" d="M1815.71 1451.02 L1834.07 1451.02 L1834.07 1454.96 L1820 1454.96 L1820 1463.43 Q1821.01 1463.08 1822.03 1462.92 Q1823.05 1462.73 1824.07 1462.73 Q1829.86 1462.73 1833.24 1465.9 Q1836.62 1469.08 1836.62 1474.49 Q1836.62 1480.07 1833.14 1483.17 Q1829.67 1486.25 1823.35 1486.25 Q1821.18 1486.25 1818.91 1485.88 Q1816.66 1485.51 1814.25 1484.77 L1814.25 1480.07 Q1816.34 1481.2 1818.56 1481.76 Q1820.78 1482.32 1823.26 1482.32 Q1827.26 1482.32 1829.6 1480.21 Q1831.94 1478.1 1831.94 1474.49 Q1831.94 1470.88 1829.6 1468.77 Q1827.26 1466.67 1823.26 1466.67 Q1821.38 1466.67 1819.51 1467.08 Q1817.66 1467.5 1815.71 1468.38 L1815.71 1451.02 Z" fill="#000000" fill-rule="nonzero" fill-opacity="1" /><path clip-path="url(#clip260)" d="M2323.99 1481.64 L2340.31 1481.64 L2340.31 1485.58 L2318.37 1485.58 L2318.37 1481.64 Q2321.03 1478.89 2325.61 1474.26 Q2330.22 1469.61 2331.4 1468.27 Q2333.65 1465.74 2334.53 1464.01 Q2335.43 1462.25 2335.43 1460.56 Q2335.43 1457.8 2333.49 1456.07 Q2331.56 1454.33 2328.46 1454.33 Q2326.26 1454.33 2323.81 1455.09 Q2321.38 1455.86 2318.6 1457.41 L2318.6 1452.69 Q2321.43 1451.55 2323.88 1450.97 Q2326.33 1450.39 2328.37 1450.39 Q2333.74 1450.39 2336.93 1453.08 Q2340.13 1455.77 2340.13 1460.26 Q2340.13 1462.39 2339.32 1464.31 Q2338.53 1466.2 2336.42 1468.8 Q2335.85 1469.47 2332.74 1472.69 Q2329.64 1475.88 2323.99 1481.64 Z" fill="#000000" fill-rule="nonzero" fill-opacity="1" /><path clip-path="url(#clip260)" d="M2350.13 1479.7 L2355.01 1479.7 L2355.01 1485.58 L2350.13 1485.58 L2350.13 1479.7 Z" fill="#000000" fill-rule="nonzero" fill-opacity="1" /><path clip-path="url(#clip260)" d="M2375.2 1454.1 Q2371.59 1454.1 2369.76 1457.66 Q2367.95 1461.2 2367.95 1468.33 Q2367.95 1475.44 2369.76 1479.01 Q2371.59 1482.55 2375.2 1482.55 Q2378.83 1482.55 2380.64 1479.01 Q2382.47 1475.44 2382.47 1468.33 Q2382.47 1461.2 2380.64 1457.66 Q2378.83 1454.1 2375.2 1454.1 M2375.2 1450.39 Q2381.01 1450.39 2384.06 1455 Q2387.14 1459.58 2387.14 1468.33 Q2387.14 1477.06 2384.06 1481.67 Q2381.01 1486.25 2375.2 1486.25 Q2369.39 1486.25 2366.31 1481.67 Q2363.25 1477.06 2363.25 1468.33 Q2363.25 1459.58 2366.31 1455 Q2369.39 1450.39 2375.2 1450.39 Z" fill="#000000" fill-rule="nonzero" fill-opacity="1" /><path clip-path="url(#clip260)" d="M1253.5 1522.27 L1253.5 1532.4 L1265.56 1532.4 L1265.56 1536.95 L1253.5 1536.95 L1253.5 1556.3 Q1253.5 1560.66 1254.67 1561.9 Q1255.88 1563.14 1259.54 1563.14 L1265.56 1563.14 L1265.56 1568.04 L1259.54 1568.04 Q1252.76 1568.04 1250.18 1565.53 Q1247.61 1562.98 1247.61 1556.3 L1247.61 1536.95 L1243.31 1536.95 L1243.31 1532.4 L1247.61 1532.4 L1247.61 1522.27 L1253.5 1522.27 Z" fill="#000000" fill-rule="nonzero" fill-opacity="1" /><polyline clip-path="url(#clip260)" style="stroke:#000000; stroke-linecap:round; stroke-linejoin:round; stroke-width:4; stroke-opacity:1; fill:none" points="156.112,1423.18 156.112,47.2441 "/>
<polyline clip-path="url(#clip260)" style="stroke:#000000; stroke-linecap:round; stroke-linejoin:round; stroke-width:4; stroke-opacity:1; fill:none" points="156.112,1283.6 175.01,1283.6 "/>
<polyline clip-path="url(#clip260)" style="stroke:#000000; stroke-linecap:round; stroke-linejoin:round; stroke-width:4; stroke-opacity:1; fill:none" points="156.112,1026.21 175.01,1026.21 "/>
<polyline clip-path="url(#clip260)" style="stroke:#000000; stroke-linecap:round; stroke-linejoin:round; stroke-width:4; stroke-opacity:1; fill:none" points="156.112,768.827 175.01,768.827 "/>
<polyline clip-path="url(#clip260)" style="stroke:#000000; stroke-linecap:round; stroke-linejoin:round; stroke-width:4; stroke-opacity:1; fill:none" points="156.112,511.44 175.01,511.44 "/>
<polyline clip-path="url(#clip260)" style="stroke:#000000; stroke-linecap:round; stroke-linejoin:round; stroke-width:4; stroke-opacity:1; fill:none" points="156.112,254.053 175.01,254.053 "/>
<path clip-path="url(#clip260)" d="M62.9365 1269.4 Q59.3254 1269.4 57.4967 1272.96 Q55.6912 1276.51 55.6912 1283.64 Q55.6912 1290.74 57.4967 1294.31 Q59.3254 1297.85 62.9365 1297.85 Q66.5707 1297.85 68.3763 1294.31 Q70.205 1290.74 70.205 1283.64 Q70.205 1276.51 68.3763 1272.96 Q66.5707 1269.4 62.9365 1269.4 M62.9365 1265.7 Q68.7467 1265.7 71.8022 1270.3 Q74.8809 1274.89 74.8809 1283.64 Q74.8809 1292.36 71.8022 1296.97 Q68.7467 1301.55 62.9365 1301.55 Q57.1264 1301.55 54.0477 1296.97 Q50.9921 1292.36 50.9921 1283.64 Q50.9921 1274.89 54.0477 1270.3 Q57.1264 1265.7 62.9365 1265.7 Z" fill="#000000" fill-rule="nonzero" fill-opacity="1" /><path clip-path="url(#clip260)" d="M83.0984 1295 L87.9827 1295 L87.9827 1300.88 L83.0984 1300.88 L83.0984 1295 Z" fill="#000000" fill-rule="nonzero" fill-opacity="1" /><path clip-path="url(#clip260)" d="M108.168 1269.4 Q104.557 1269.4 102.728 1272.96 Q100.922 1276.51 100.922 1283.64 Q100.922 1290.74 102.728 1294.31 Q104.557 1297.85 108.168 1297.85 Q111.802 1297.85 113.608 1294.31 Q115.436 1290.74 115.436 1283.64 Q115.436 1276.51 113.608 1272.96 Q111.802 1269.4 108.168 1269.4 M108.168 1265.7 Q113.978 1265.7 117.033 1270.3 Q120.112 1274.89 120.112 1283.64 Q120.112 1292.36 117.033 1296.97 Q113.978 1301.55 108.168 1301.55 Q102.358 1301.55 99.2789 1296.97 Q96.2234 1292.36 96.2234 1283.64 Q96.2234 1274.89 99.2789 1270.3 Q102.358 1265.7 108.168 1265.7 Z" fill="#000000" fill-rule="nonzero" fill-opacity="1" /><path clip-path="url(#clip260)" d="M63.9319 1012.01 Q60.3208 1012.01 58.4921 1015.58 Q56.6865 1019.12 56.6865 1026.25 Q56.6865 1033.35 58.4921 1036.92 Q60.3208 1040.46 63.9319 1040.46 Q67.5661 1040.46 69.3717 1036.92 Q71.2004 1033.35 71.2004 1026.25 Q71.2004 1019.12 69.3717 1015.58 Q67.5661 1012.01 63.9319 1012.01 M63.9319 1008.31 Q69.742 1008.31 72.7976 1012.92 Q75.8763 1017.5 75.8763 1026.25 Q75.8763 1034.98 72.7976 1039.58 Q69.742 1044.16 63.9319 1044.16 Q58.1217 1044.16 55.043 1039.58 Q51.9875 1034.98 51.9875 1026.25 Q51.9875 1017.5 55.043 1012.92 Q58.1217 1008.31 63.9319 1008.31 Z" fill="#000000" fill-rule="nonzero" fill-opacity="1" /><path clip-path="url(#clip260)" d="M84.0938 1037.61 L88.978 1037.61 L88.978 1043.49 L84.0938 1043.49 L84.0938 1037.61 Z" fill="#000000" fill-rule="nonzero" fill-opacity="1" /><path clip-path="url(#clip260)" d="M99.2095 1008.93 L117.566 1008.93 L117.566 1012.87 L103.492 1012.87 L103.492 1021.34 Q104.51 1020.99 105.529 1020.83 Q106.547 1020.65 107.566 1020.65 Q113.353 1020.65 116.733 1023.82 Q120.112 1026.99 120.112 1032.41 Q120.112 1037.98 116.64 1041.09 Q113.168 1044.16 106.848 1044.16 Q104.672 1044.16 102.404 1043.79 Q100.159 1043.42 97.7511 1042.68 L97.7511 1037.98 Q99.8345 1039.12 102.057 1039.67 Q104.279 1040.23 106.756 1040.23 Q110.76 1040.23 113.098 1038.12 Q115.436 1036.02 115.436 1032.41 Q115.436 1028.79 113.098 1026.69 Q110.76 1024.58 106.756 1024.58 Q104.881 1024.58 103.006 1025 Q101.154 1025.41 99.2095 1026.29 L99.2095 1008.93 Z" fill="#000000" fill-rule="nonzero" fill-opacity="1" /><path clip-path="url(#clip260)" d="M53.7467 782.172 L61.3856 782.172 L61.3856 755.806 L53.0754 757.473 L53.0754 753.213 L61.3393 751.547 L66.0152 751.547 L66.0152 782.172 L73.654 782.172 L73.654 786.107 L53.7467 786.107 L53.7467 782.172 Z" fill="#000000" fill-rule="nonzero" fill-opacity="1" /><path clip-path="url(#clip260)" d="M83.0984 780.227 L87.9827 780.227 L87.9827 786.107 L83.0984 786.107 L83.0984 780.227 Z" fill="#000000" fill-rule="nonzero" fill-opacity="1" /><path clip-path="url(#clip260)" d="M108.168 754.625 Q104.557 754.625 102.728 758.19 Q100.922 761.732 100.922 768.861 Q100.922 775.968 102.728 779.533 Q104.557 783.074 108.168 783.074 Q111.802 783.074 113.608 779.533 Q115.436 775.968 115.436 768.861 Q115.436 761.732 113.608 758.19 Q111.802 754.625 108.168 754.625 M108.168 750.922 Q113.978 750.922 117.033 755.528 Q120.112 760.112 120.112 768.861 Q120.112 777.588 117.033 782.195 Q113.978 786.778 108.168 786.778 Q102.358 786.778 99.2789 782.195 Q96.2234 777.588 96.2234 768.861 Q96.2234 760.112 99.2789 755.528 Q102.358 750.922 108.168 750.922 Z" fill="#000000" fill-rule="nonzero" fill-opacity="1" /><path clip-path="url(#clip260)" d="M54.7421 524.785 L62.381 524.785 L62.381 498.419 L54.0708 500.086 L54.0708 495.827 L62.3347 494.16 L67.0106 494.16 L67.0106 524.785 L74.6494 524.785 L74.6494 528.72 L54.7421 528.72 L54.7421 524.785 Z" fill="#000000" fill-rule="nonzero" fill-opacity="1" /><path clip-path="url(#clip260)" d="M84.0938 522.84 L88.978 522.84 L88.978 528.72 L84.0938 528.72 L84.0938 522.84 Z" fill="#000000" fill-rule="nonzero" fill-opacity="1" /><path clip-path="url(#clip260)" d="M99.2095 494.16 L117.566 494.16 L117.566 498.095 L103.492 498.095 L103.492 506.567 Q104.51 506.22 105.529 506.058 Q106.547 505.873 107.566 505.873 Q113.353 505.873 116.733 509.044 Q120.112 512.215 120.112 517.632 Q120.112 523.211 116.64 526.313 Q113.168 529.391 106.848 529.391 Q104.672 529.391 102.404 529.021 Q100.159 528.65 97.7511 527.91 L97.7511 523.211 Q99.8345 524.345 102.057 524.9 Q104.279 525.456 106.756 525.456 Q110.76 525.456 113.098 523.35 Q115.436 521.243 115.436 517.632 Q115.436 514.021 113.098 511.914 Q110.76 509.808 106.756 509.808 Q104.881 509.808 103.006 510.225 Q101.154 510.641 99.2095 511.521 L99.2095 494.16 Z" fill="#000000" fill-rule="nonzero" fill-opacity="1" /><path clip-path="url(#clip260)" d="M56.9643 267.398 L73.2837 267.398 L73.2837 271.333 L51.3393 271.333 L51.3393 267.398 Q54.0014 264.643 58.5847 260.014 Q63.1911 255.361 64.3717 254.018 Q66.617 251.495 67.4967 249.759 Q68.3994 248 68.3994 246.31 Q68.3994 243.555 66.455 241.819 Q64.5337 240.083 61.4319 240.083 Q59.2328 240.083 56.7791 240.847 Q54.3486 241.611 51.5708 243.162 L51.5708 238.44 Q54.3949 237.305 56.8486 236.727 Q59.3023 236.148 61.3393 236.148 Q66.7096 236.148 69.9041 238.833 Q73.0985 241.518 73.0985 246.009 Q73.0985 248.139 72.2883 250.06 Q71.5013 251.958 69.3948 254.551 Q68.8161 255.222 65.7143 258.44 Q62.6124 261.634 56.9643 267.398 Z" fill="#000000" fill-rule="nonzero" fill-opacity="1" /><path clip-path="url(#clip260)" d="M83.0984 265.453 L87.9827 265.453 L87.9827 271.333 L83.0984 271.333 L83.0984 265.453 Z" fill="#000000" fill-rule="nonzero" fill-opacity="1" /><path clip-path="url(#clip260)" d="M108.168 239.852 Q104.557 239.852 102.728 243.417 Q100.922 246.958 100.922 254.088 Q100.922 261.194 102.728 264.759 Q104.557 268.301 108.168 268.301 Q111.802 268.301 113.608 264.759 Q115.436 261.194 115.436 254.088 Q115.436 246.958 113.608 243.417 Q111.802 239.852 108.168 239.852 M108.168 236.148 Q113.978 236.148 117.033 240.755 Q120.112 245.338 120.112 254.088 Q120.112 262.815 117.033 267.421 Q113.978 272.004 108.168 272.004 Q102.358 272.004 99.2789 267.421 Q96.2234 262.815 96.2234 254.088 Q96.2234 245.338 99.2789 240.755 Q102.358 236.148 108.168 236.148 Z" fill="#000000" fill-rule="nonzero" fill-opacity="1" /><polyline clip-path="url(#clip262)" style="stroke:#009af9; stroke-linecap:round; stroke-linejoin:round; stroke-width:4; stroke-opacity:1; fill:none" points="156.112,86.1857 158.311,97.28 160.51,108.264 162.709,119.138 164.907,129.904 167.106,140.563 169.305,151.116 171.504,161.564 173.703,171.907 175.902,182.148 178.101,192.286 180.299,202.324 182.498,212.261 184.697,222.1 186.896,231.84 189.095,241.484 191.294,251.031 193.492,260.484 195.691,269.842 197.89,279.107 200.089,288.28 202.288,297.361 204.487,306.352 206.686,315.253 208.884,324.066 211.083,332.791 213.282,341.429 215.481,349.981 217.68,358.448 219.879,366.831 222.077,375.13 224.276,383.346 226.475,391.481 228.674,399.535 230.873,407.508 233.072,415.402 235.27,423.217 237.469,430.955 239.668,438.615 241.867,446.199 244.066,453.708 246.265,461.141 248.464,468.501 250.662,475.787 252.861,483.001 255.06,490.143 257.259,497.214 259.458,504.214 261.657,511.145 263.855,518.006 266.054,524.8 268.253,531.525 270.452,538.184 272.651,544.776 274.85,551.303 277.048,557.765 279.247,564.162 281.446,570.496 283.645,576.766 285.844,582.974 288.043,589.121 290.242,595.206 292.44,601.23 294.639,607.195 296.838,613.1 299.037,618.946 301.236,624.734 303.435,630.465 305.633,636.138 307.832,641.755 310.031,647.315 312.23,652.821 314.429,658.271 316.628,663.668 318.826,669.01 321.025,674.299 323.224,679.536 325.423,684.72 327.622,689.853 329.821,694.935 332.02,699.966 334.218,704.947 336.417,709.878 338.616,714.76 340.815,719.594 343.014,724.379 345.213,729.117 347.411,733.808 349.61,738.451 351.809,743.049 354.008,747.601 356.207,752.107 358.406,756.569 360.604,760.986 362.803,765.36 365.002,769.689 367.201,773.976 369.4,778.22 371.599,782.422 373.798,786.581 375.996,790.7 378.195,794.777 380.394,798.814 382.593,802.81 384.792,806.767 386.991,810.684 389.189,814.563 391.388,818.402 393.587,822.204 395.786,825.967 397.985,829.693 400.184,833.382 402.382,837.034 404.581,840.65 406.78,844.23 408.979,847.774 411.178,851.282 413.377,854.756 415.576,858.195 417.774,861.6 419.973,864.971 422.172,868.309 424.371,871.613 426.57,874.884 428.769,878.123 430.967,881.33 433.166,884.504 435.365,887.647 437.564,890.759 439.763,893.839 441.962,896.889 444.161,899.909 446.359,902.899 448.558,905.858 450.757,908.789 452.956,911.69 455.155,914.563 457.354,917.406 459.552,920.222 461.751,923.009 463.95,925.769 466.149,928.501 468.348,931.206 470.547,933.884 472.745,936.535 474.944,939.16 477.143,941.759 479.342,944.332 481.541,946.879 483.74,949.401 485.939,951.897 488.137,954.369 490.336,956.816 492.535,959.239 494.734,961.637 496.933,964.012 499.132,966.363 501.33,968.691 503.529,970.995 505.728,973.276 507.927,975.535 510.126,977.771 512.325,979.985 514.523,982.177 516.722,984.347 518.921,986.495 521.12,988.622 523.319,990.728 525.518,992.813 527.717,994.877 529.915,996.92 532.114,998.944 534.313,1000.95 536.512,1002.93 538.711,1004.89 540.91,1006.84 543.108,1008.76 545.307,1010.67 547.506,1012.55 549.705,1014.42 551.904,1016.27 554.103,1018.1 556.301,1019.91 558.5,1021.71 560.699,1023.48 562.898,1025.24 565.097,1026.98 567.296,1028.71 569.495,1030.42 571.693,1032.1 573.892,1033.78 576.091,1035.43 578.29,1037.07 580.489,1038.7 582.688,1040.31 584.886,1041.9 587.085,1043.47 589.284,1045.03 591.483,1046.58 593.682,1048.1 595.881,1049.62 598.079,1051.12 600.278,1052.6 602.477,1054.07 604.676,1055.52 606.875,1056.96 609.074,1058.39 611.273,1059.8 613.471,1061.2 615.67,1062.58 617.869,1063.95 620.068,1065.3 622.267,1066.65 624.466,1067.97 626.664,1069.29 628.863,1070.59 631.062,1071.88 633.261,1073.16 635.46,1074.42 637.659,1075.67 639.858,1076.91 642.056,1078.14 644.255,1079.35 646.454,1080.55 648.653,1081.74 650.852,1082.92 653.051,1084.09 655.249,1085.24 657.448,1086.39 659.647,1087.52 661.846,1088.64 664.045,1089.75 666.244,1090.85 668.442,1091.94 670.641,1093.01 672.84,1094.08 675.039,1095.14 677.238,1096.18 679.437,1097.22 681.636,1098.24 683.834,1099.26 686.033,1100.26 688.232,1101.25 690.431,1102.24 692.63,1103.21 694.829,1104.18 697.027,1105.13 699.226,1106.08 701.425,1107.02 703.624,1107.94 705.823,1108.86 708.022,1109.77 710.22,1110.67 712.419,1111.56 714.618,1112.44 716.817,1113.31 719.016,1114.18 721.215,1115.03 723.414,1115.88 725.612,1116.72 727.811,1117.55 730.01,1118.37 732.209,1119.18 734.408,1119.99 736.607,1120.79 738.805,1121.58 741.004,1122.36 743.203,1123.13 745.402,1123.9 747.601,1124.66 749.8,1125.41 751.998,1126.15 754.197,1126.89 756.396,1127.61 758.595,1128.34 760.794,1129.05 762.993,1129.76 765.192,1130.46 767.39,1131.15 769.589,1131.84 771.788,1132.52 773.987,1133.19 776.186,1133.85 778.385,1134.51 780.583,1135.17 782.782,1135.81 784.981,1136.45 787.18,1137.09 789.379,1137.71 791.578,1138.33 793.776,1138.95 795.975,1139.56 798.174,1140.16 800.373,1140.76 802.572,1141.35 804.771,1141.93 806.97,1142.51 809.168,1143.08 811.367,1143.65 813.566,1144.21 815.765,1144.77 817.964,1145.32 820.163,1145.87 822.361,1146.41 824.56,1146.94 826.759,1147.47 828.958,1147.99 831.157,1148.51 833.356,1149.03 835.554,1149.54 837.753,1150.04 839.952,1150.54 842.151,1151.03 844.35,1151.52 846.549,1152 848.748,1152.48 850.946,1152.96 853.145,1153.42 855.344,1153.89 857.543,1154.35 859.742,1154.8 861.941,1155.26 864.139,1155.7 866.338,1156.14 868.537,1156.58 870.736,1157.01 872.935,1157.44 875.134,1157.87 877.333,1158.29 879.531,1158.7 881.73,1159.12 883.929,1159.52 886.128,1159.93 888.327,1160.33 890.526,1160.72 892.724,1161.11 894.923,1161.5 897.122,1161.89 899.321,1162.27 901.52,1162.64 903.719,1163.01 905.917,1163.38 908.116,1163.75 910.315,1164.11 912.514,1164.47 914.713,1164.82 916.912,1165.17 919.111,1165.52 921.309,1165.86 923.508,1166.2 925.707,1166.54 927.906,1166.88 930.105,1167.21 932.304,1167.53 934.502,1167.86 936.701,1168.18 938.9,1168.5 941.099,1168.81 943.298,1169.12 945.497,1169.43 947.695,1169.73 949.894,1170.04 952.093,1170.33 954.292,1170.63 956.491,1170.92 958.69,1171.21 960.889,1171.5 963.087,1171.79 965.286,1172.07 967.485,1172.35 969.684,1172.62 971.883,1172.9 974.082,1173.17 976.28,1173.44 978.479,1173.7 980.678,1173.96 982.877,1174.22 985.076,1174.48 987.275,1174.74 989.473,1174.99 991.672,1175.24 993.871,1175.49 996.07,1175.73 998.269,1175.97 1000.47,1176.21 1002.67,1176.45 1004.87,1176.69 1007.06,1176.92 1009.26,1177.15 1011.46,1177.38 1013.66,1177.6 1015.86,1177.83 1018.06,1178.05 1020.26,1178.27 1022.46,1178.49 1024.65,1178.7 1026.85,1178.91 1029.05,1179.12 1031.25,1179.33 1033.45,1179.54 1035.65,1179.74 1037.85,1179.95 1040.05,1180.15 1042.25,1180.34 1044.44,1180.54 1046.64,1180.73 1048.84,1180.93 1051.04,1181.12 1053.24,1181.31 1055.44,1181.49 1057.64,1181.68 1059.84,1181.86 1062.04,1182.04 1064.23,1182.22 1066.43,1182.4 1068.63,1182.57 1070.83,1182.75 1073.03,1182.92 1075.23,1183.09 1077.43,1183.26 1079.63,1183.43 1081.82,1183.59 1084.02,1183.76 1086.22,1183.92 1088.42,1184.08 1090.62,1184.24 1092.82,1184.4 1095.02,1184.55 1097.22,1184.71 1099.42,1184.86 1101.61,1185.01 1103.81,1185.16 1106.01,1185.31 1108.21,1185.46 1110.41,1185.6 1112.61,1185.75 1114.81,1185.89 1117.01,1186.03 1119.21,1186.17 1121.4,1186.31 1123.6,1186.44 1125.8,1186.58 1128,1186.71 1130.2,1186.85 1132.4,1186.98 1134.6,1187.11 1136.8,1187.24 1138.99,1187.37 1141.19,1187.49 1143.39,1187.62 1145.59,1187.74 1147.79,1187.87 1149.99,1187.99 1152.19,1188.11 1154.39,1188.23 1156.59,1188.34 1158.78,1188.46 1160.98,1188.58 1163.18,1188.69 1165.38,1188.8 1167.58,1188.92 1169.78,1189.03 1171.98,1189.14 1174.18,1189.25 1176.38,1189.35 1178.57,1189.46 1180.77,1189.57 1182.97,1189.67 1185.17,1189.78 1187.37,1189.88 1189.57,1189.98 1191.77,1190.08 1193.97,1190.18 1196.16,1190.28 1198.36,1190.37 1200.56,1190.47 1202.76,1190.57 1204.96,1190.66 1207.16,1190.76 1209.36,1190.85 1211.56,1190.94 1213.76,1191.03 1215.95,1191.12 1218.15,1191.21 1220.35,1191.3 1222.55,1191.38 1224.75,1191.47 1226.95,1191.56 1229.15,1191.64 1231.35,1191.72 1233.55,1191.81 1235.74,1191.89 1237.94,1191.97 1240.14,1192.05 1242.34,1192.13 1244.54,1192.21 1246.74,1192.29 1248.94,1192.37 1251.14,1192.44 1253.33,1192.52 1255.53,1192.59 1257.73,1192.67 1259.93,1192.74 1262.13,1192.81 1264.33,1192.89 1266.53,1192.96 1268.73,1193.03 1270.93,1193.1 1273.12,1193.17 1275.32,1193.24 1277.52,1193.3 1279.72,1193.37 1281.92,1193.44 1284.12,1193.5 1286.32,1193.57 1288.52,1193.63 1290.71,1193.7 1292.91,1193.76 1295.11,1193.82 1297.31,1193.89 1299.51,1193.95 1301.71,1194.01 1303.91,1194.07 1306.11,1194.13 1308.31,1194.19 1310.5,1194.25 1312.7,1194.3 1314.9,1194.36 1317.1,1194.42 1319.3,1194.47 1321.5,1194.53 1323.7,1194.59 1325.9,1194.64 1328.1,1194.69 1330.29,1194.75 1332.49,1194.8 1334.69,1194.85 1336.89,1194.91 1339.09,1194.96 1341.29,1195.01 1343.49,1195.06 1345.69,1195.11 1347.88,1195.16 1350.08,1195.21 1352.28,1195.25 1354.48,1195.3 1356.68,1195.35 1358.88,1195.4 1361.08,1195.44 1363.28,1195.49 1365.48,1195.54 1367.67,1195.58 1369.87,1195.63 1372.07,1195.67 1374.27,1195.71 1376.47,1195.76 1378.67,1195.8 1380.87,1195.84 1383.07,1195.88 1385.27,1195.93 1387.46,1195.97 1389.66,1196.01 1391.86,1196.05 1394.06,1196.09 1396.26,1196.13 1398.46,1196.17 1400.66,1196.21 1402.86,1196.24 1405.05,1196.28 1407.25,1196.32 1409.45,1196.36 1411.65,1196.39 1413.85,1196.43 1416.05,1196.47 1418.25,1196.5 1420.45,1196.54 1422.65,1196.57 1424.84,1196.61 1427.04,1196.64 1429.24,1196.68 1431.44,1196.71 1433.64,1196.74 1435.84,1196.78 1438.04,1196.81 1440.24,1196.84 1442.44,1196.87 1444.63,1196.9 1446.83,1196.94 1449.03,1196.97 1451.23,1197 1453.43,1197.03 1455.63,1197.06 1457.83,1197.09 1460.03,1197.12 1462.22,1197.15 1464.42,1197.18 1466.62,1197.2 1468.82,1197.23 1471.02,1197.26 1473.22,1197.29 1475.42,1197.32 1477.62,1197.34 1479.82,1197.37 1482.01,1197.4 1484.21,1197.42 1486.41,1197.45 1488.61,1197.48 1490.81,1197.5 1493.01,1197.53 1495.21,1197.55 1497.41,1197.58 1499.6,1197.6 1501.8,1197.63 1504,1197.65 1506.2,1197.67 1508.4,1197.7 1510.6,1197.72 1512.8,1197.74 1515,1197.77 1517.2,1197.79 1519.39,1197.81 1521.59,1197.84 1523.79,1197.86 1525.99,1197.88 1528.19,1197.9 1530.39,1197.92 1532.59,1197.94 1534.79,1197.97 1536.99,1197.99 1539.18,1198.01 1541.38,1198.03 1543.58,1198.05 1545.78,1198.07 1547.98,1198.09 1550.18,1198.11 1552.38,1198.13 1554.58,1198.15 1556.77,1198.17 1558.97,1198.19 1561.17,1198.2 1563.37,1198.22 1565.57,1198.24 1567.77,1198.26 1569.97,1198.28 1572.17,1198.29 1574.37,1198.31 1576.56,1198.33 1578.76,1198.35 1580.96,1198.36 1583.16,1198.38 1585.36,1198.4 1587.56,1198.41 1589.76,1198.43 1591.96,1198.45 1594.16,1198.46 1596.35,1198.48 1598.55,1198.5 1600.75,1198.51 1602.95,1198.53 1605.15,1198.54 1607.35,1198.56 1609.55,1198.57 1611.75,1198.59 1613.94,1198.6 1616.14,1198.62 1618.34,1198.63 1620.54,1198.65 1622.74,1198.66 1624.94,1198.67 1627.14,1198.69 1629.34,1198.7 1631.54,1198.71 1633.73,1198.73 1635.93,1198.74 1638.13,1198.75 1640.33,1198.77 1642.53,1198.78 1644.73,1198.79 1646.93,1198.81 1649.13,1198.82 1651.33,1198.83 1653.52,1198.84 1655.72,1198.85 1657.92,1198.87 1660.12,1198.88 1662.32,1198.89 1664.52,1198.9 1666.72,1198.91 1668.92,1198.92 1671.11,1198.94 1673.31,1198.95 1675.51,1198.96 1677.71,1198.97 1679.91,1198.98 1682.11,1198.99 1684.31,1199 1686.51,1199.01 1688.71,1199.02 1690.9,1199.03 1693.1,1199.04 1695.3,1199.05 1697.5,1199.06 1699.7,1199.07 1701.9,1199.08 1704.1,1199.09 1706.3,1199.1 1708.5,1199.11 1710.69,1199.12 1712.89,1199.13 1715.09,1199.14 1717.29,1199.15 1719.49,1199.16 1721.69,1199.17 1723.89,1199.17 1726.09,1199.18 1728.28,1199.19 1730.48,1199.2 1732.68,1199.21 1734.88,1199.22 1737.08,1199.23 1739.28,1199.23 1741.48,1199.24 1743.68,1199.25 1745.88,1199.26 1748.07,1199.27 1750.27,1199.27 1752.47,1199.28 1754.67,1199.29 1756.87,1199.3 1759.07,1199.31 1761.27,1199.31 1763.47,1199.32 1765.66,1199.33 1767.86,1199.34 1770.06,1199.34 1772.26,1199.35 1774.46,1199.36 1776.66,1199.36 1778.86,1199.37 1781.06,1199.38 1783.26,1199.38 1785.45,1199.39 1787.65,1199.4 1789.85,1199.4 1792.05,1199.41 1794.25,1199.42 1796.45,1199.42 1798.65,1199.43 1800.85,1199.44 1803.05,1199.44 1805.24,1199.45 1807.44,1199.46 1809.64,1199.46 1811.84,1199.47 1814.04,1199.47 1816.24,1199.48 1818.44,1199.49 1820.64,1199.49 1822.83,1199.5 1825.03,1199.5 1827.23,1199.51 1829.43,1199.51 1831.63,1199.52 1833.83,1199.53 1836.03,1199.53 1838.23,1199.54 1840.43,1199.54 1842.62,1199.55 1844.82,1199.55 1847.02,1199.56 1849.22,1199.56 1851.42,1199.57 1853.62,1199.57 1855.82,1199.58 1858.02,1199.58 1860.22,1199.59 1862.41,1199.59 1864.61,1199.6 1866.81,1199.6 1869.01,1199.61 1871.21,1199.61 1873.41,1199.61 1875.61,1199.62 1877.81,1199.62 1880,1199.63 1882.2,1199.63 1884.4,1199.64 1886.6,1199.64 1888.8,1199.64 1891,1199.65 1893.2,1199.65 1895.4,1199.66 1897.6,1199.66 1899.79,1199.66 1901.99,1199.67 1904.19,1199.67 1906.39,1199.68 1908.59,1199.68 1910.79,1199.68 1912.99,1199.69 1915.19,1199.69 1917.39,1199.7 1919.58,1199.7 1921.78,1199.7 1923.98,1199.71 1926.18,1199.71 1928.38,1199.71 1930.58,1199.72 1932.78,1199.72 1934.98,1199.72 1937.17,1199.73 1939.37,1199.73 1941.57,1199.73 1943.77,1199.74 1945.97,1199.74 1948.17,1199.74 1950.37,1199.75 1952.57,1199.75 1954.77,1199.75 1956.96,1199.75 1959.16,1199.76 1961.36,1199.76 1963.56,1199.76 1965.76,1199.77 1967.96,1199.77 1970.16,1199.77 1972.36,1199.78 1974.55,1199.78 1976.75,1199.78 1978.95,1199.78 1981.15,1199.79 1983.35,1199.79 1985.55,1199.79 1987.75,1199.79 1989.95,1199.8 1992.15,1199.8 1994.34,1199.8 1996.54,1199.8 1998.74,1199.81 2000.94,1199.81 2003.14,1199.81 2005.34,1199.81 2007.54,1199.82 2009.74,1199.82 2011.94,1199.82 2014.13,1199.82 2016.33,1199.83 2018.53,1199.83 2020.73,1199.83 2022.93,1199.83 2025.13,1199.84 2027.33,1199.84 2029.53,1199.84 2031.72,1199.84 2033.92,1199.84 2036.12,1199.85 2038.32,1199.85 2040.52,1199.85 2042.72,1199.85 2044.92,1199.85 2047.12,1199.86 2049.32,1199.86 2051.51,1199.86 2053.71,1199.86 2055.91,1199.86 2058.11,1199.87 2060.31,1199.87 2062.51,1199.87 2064.71,1199.87 2066.91,1199.87 2069.11,1199.88 2071.3,1199.88 2073.5,1199.88 2075.7,1199.88 2077.9,1199.88 2080.1,1199.89 2082.3,1199.89 2084.5,1199.89 2086.7,1199.89 2088.89,1199.89 2091.09,1199.89 2093.29,1199.9 2095.49,1199.9 2097.69,1199.9 2099.89,1199.9 2102.09,1199.9 2104.29,1199.9 2106.49,1199.91 2108.68,1199.91 2110.88,1199.91 2113.08,1199.91 2115.28,1199.91 2117.48,1199.91 2119.68,1199.92 2121.88,1199.92 2124.08,1199.92 2126.28,1199.92 2128.47,1199.92 2130.67,1199.92 2132.87,1199.92 2135.07,1199.93 2137.27,1199.93 2139.47,1199.93 2141.67,1199.93 2143.87,1199.93 2146.06,1199.93 2148.26,1199.93 2150.46,1199.93 2152.66,1199.94 2154.86,1199.94 2157.06,1199.94 2159.26,1199.94 2161.46,1199.94 2163.66,1199.94 2165.85,1199.94 2168.05,1199.94 2170.25,1199.95 2172.45,1199.95 2174.65,1199.95 2176.85,1199.95 2179.05,1199.95 2181.25,1199.95 2183.45,1199.95 2185.64,1199.95 2187.84,1199.95 2190.04,1199.96 2192.24,1199.96 2194.44,1199.96 2196.64,1199.96 2198.84,1199.96 2201.04,1199.96 2203.23,1199.96 2205.43,1199.96 2207.63,1199.96 2209.83,1199.96 2212.03,1199.97 2214.23,1199.97 2216.43,1199.97 2218.63,1199.97 2220.83,1199.97 2223.02,1199.97 2225.22,1199.97 2227.42,1199.97 2229.62,1199.97 2231.82,1199.97 2234.02,1199.97 2236.22,1199.98 2238.42,1199.98 2240.61,1199.98 2242.81,1199.98 2245.01,1199.98 2247.21,1199.98 2249.41,1199.98 2251.61,1199.98 2253.81,1199.98 2256.01,1199.98 2258.21,1199.98 2260.4,1199.98 2262.6,1199.99 2264.8,1199.99 2267,1199.99 2269.2,1199.99 2271.4,1199.99 2273.6,1199.99 2275.8,1199.99 2278,1199.99 2280.19,1199.99 2282.39,1199.99 2284.59,1199.99 2286.79,1199.99 2288.99,1199.99 2291.19,1199.99 2293.39,1199.99 2295.59,1200 2297.78,1200 2299.98,1200 2302.18,1200 2304.38,1200 2306.58,1200 2308.78,1200 2310.98,1200 2313.18,1200 2315.38,1200 2317.57,1200 2319.77,1200 2321.97,1200 2324.17,1200 2326.37,1200 2328.57,1200 2330.77,1200 2332.97,1200.01 2335.17,1200.01 2337.36,1200.01 2339.56,1200.01 2341.76,1200.01 2343.96,1200.01 2346.16,1200.01 2348.36,1200.01 2350.56,1200.01 2352.76,1200.01 "/>
<polyline clip-path="url(#clip262)" style="stroke:#e26f46; stroke-linecap:round; stroke-linejoin:round; stroke-width:4; stroke-opacity:1; fill:none" points="156.112,1384.24 158.311,1382.22 160.51,1380.22 162.709,1378.25 164.907,1376.29 167.106,1374.36 169.305,1372.44 171.504,1370.55 173.703,1368.67 175.902,1366.82 178.101,1364.98 180.299,1363.17 182.498,1361.37 184.697,1359.59 186.896,1357.83 189.095,1356.09 191.294,1354.37 193.492,1352.67 195.691,1350.98 197.89,1349.31 200.089,1347.66 202.288,1346.03 204.487,1344.41 206.686,1342.81 208.884,1341.23 211.083,1339.67 213.282,1338.12 215.481,1336.58 217.68,1335.07 219.879,1333.57 222.077,1332.08 224.276,1330.61 226.475,1329.16 228.674,1327.72 230.873,1326.3 233.072,1324.89 235.27,1323.5 237.469,1322.12 239.668,1320.76 241.867,1319.41 244.066,1318.08 246.265,1316.76 248.464,1315.45 250.662,1314.16 252.861,1312.88 255.06,1311.62 257.259,1310.36 259.458,1309.13 261.657,1307.9 263.855,1306.69 266.054,1305.49 268.253,1304.3 270.452,1303.13 272.651,1301.97 274.85,1300.82 277.048,1299.68 279.247,1298.56 281.446,1297.45 283.645,1296.35 285.844,1295.26 288.043,1294.18 290.242,1293.11 292.44,1292.06 294.639,1291.02 296.838,1289.98 299.037,1288.96 301.236,1287.95 303.435,1286.95 305.633,1285.97 307.832,1284.99 310.031,1284.02 312.23,1283.06 314.429,1282.12 316.628,1281.18 318.826,1280.25 321.025,1279.34 323.224,1278.43 325.423,1277.53 327.622,1276.64 329.821,1275.77 332.02,1274.9 334.218,1274.04 336.417,1273.19 338.616,1272.35 340.815,1271.52 343.014,1270.69 345.213,1269.88 347.411,1269.07 349.61,1268.28 351.809,1267.49 354.008,1266.71 356.207,1265.94 358.406,1265.18 360.604,1264.42 362.803,1263.68 365.002,1262.94 367.201,1262.21 369.4,1261.49 371.599,1260.77 373.798,1260.06 375.996,1259.36 378.195,1258.67 380.394,1257.99 382.593,1257.31 384.792,1256.64 386.991,1255.98 389.189,1255.33 391.388,1254.68 393.587,1254.04 395.786,1253.4 397.985,1252.78 400.184,1252.16 402.382,1251.54 404.581,1250.94 406.78,1250.34 408.979,1249.74 411.178,1249.16 413.377,1248.58 415.576,1248 417.774,1247.43 419.973,1246.87 422.172,1246.32 424.371,1245.77 426.57,1245.22 428.769,1244.68 430.967,1244.15 433.166,1243.63 435.365,1243.11 437.564,1242.59 439.763,1242.08 441.962,1241.58 444.161,1241.08 446.359,1240.59 448.558,1240.1 450.757,1239.62 452.956,1239.14 455.155,1238.67 457.354,1238.21 459.552,1237.75 461.751,1237.29 463.95,1236.84 466.149,1236.39 468.348,1235.95 470.547,1235.52 472.745,1235.09 474.944,1234.66 477.143,1234.24 479.342,1233.82 481.541,1233.41 483.74,1233 485.939,1232.6 488.137,1232.2 490.336,1231.8 492.535,1231.41 494.734,1231.03 496.933,1230.65 499.132,1230.27 501.33,1229.9 503.529,1229.53 505.728,1229.16 507.927,1228.8 510.126,1228.45 512.325,1228.09 514.523,1227.75 516.722,1227.4 518.921,1227.06 521.12,1226.72 523.319,1226.39 525.518,1226.06 527.717,1225.73 529.915,1225.41 532.114,1225.09 534.313,1224.78 536.512,1224.47 538.711,1224.16 540.91,1223.85 543.108,1223.55 545.307,1223.25 547.506,1222.96 549.705,1222.67 551.904,1222.38 554.103,1222.09 556.301,1221.81 558.5,1221.54 560.699,1221.26 562.898,1220.99 565.097,1220.72 567.296,1220.45 569.495,1220.19 571.693,1219.93 573.892,1219.67 576.091,1219.42 578.29,1219.17 580.489,1218.92 582.688,1218.67 584.886,1218.43 587.085,1218.19 589.284,1217.95 591.483,1217.72 593.682,1217.49 595.881,1217.26 598.079,1217.03 600.278,1216.81 602.477,1216.59 604.676,1216.37 606.875,1216.15 609.074,1215.94 611.273,1215.72 613.471,1215.52 615.67,1215.31 617.869,1215.1 620.068,1214.9 622.267,1214.7 624.466,1214.51 626.664,1214.31 628.863,1214.12 631.062,1213.93 633.261,1213.74 635.46,1213.55 637.659,1213.37 639.858,1213.19 642.056,1213.01 644.255,1212.83 646.454,1212.65 648.653,1212.48 650.852,1212.31 653.051,1212.14 655.249,1211.97 657.448,1211.81 659.647,1211.64 661.846,1211.48 664.045,1211.32 666.244,1211.16 668.442,1211.01 670.641,1210.85 672.84,1210.7 675.039,1210.55 677.238,1210.4 679.437,1210.25 681.636,1210.11 683.834,1209.96 686.033,1209.82 688.232,1209.68 690.431,1209.54 692.63,1209.4 694.829,1209.27 697.027,1209.13 699.226,1209 701.425,1208.87 703.624,1208.74 705.823,1208.61 708.022,1208.49 710.22,1208.36 712.419,1208.24 714.618,1208.12 716.817,1208 719.016,1207.88 721.215,1207.76 723.414,1207.64 725.612,1207.53 727.811,1207.42 730.01,1207.31 732.209,1207.19 734.408,1207.09 736.607,1206.98 738.805,1206.87 741.004,1206.77 743.203,1206.66 745.402,1206.56 747.601,1206.46 749.8,1206.36 751.998,1206.26 754.197,1206.16 756.396,1206.06 758.595,1205.97 760.794,1205.87 762.993,1205.78 765.192,1205.69 767.39,1205.6 769.589,1205.51 771.788,1205.42 773.987,1205.33 776.186,1205.25 778.385,1205.16 780.583,1205.08 782.782,1204.99 784.981,1204.91 787.18,1204.83 789.379,1204.75 791.578,1204.67 793.776,1204.59 795.975,1204.51 798.174,1204.44 800.373,1204.36 802.572,1204.29 804.771,1204.21 806.97,1204.14 809.168,1204.07 811.367,1204 813.566,1203.93 815.765,1203.86 817.964,1203.79 820.163,1203.72 822.361,1203.66 824.56,1203.59 826.759,1203.53 828.958,1203.46 831.157,1203.4 833.356,1203.34 835.554,1203.28 837.753,1203.21 839.952,1203.15 842.151,1203.1 844.35,1203.04 846.549,1202.98 848.748,1202.92 850.946,1202.87 853.145,1202.81 855.344,1202.76 857.543,1202.7 859.742,1202.65 861.941,1202.6 864.139,1202.54 866.338,1202.49 868.537,1202.44 870.736,1202.39 872.935,1202.34 875.134,1202.29 877.333,1202.25 879.531,1202.2 881.73,1202.15 883.929,1202.1 886.128,1202.06 888.327,1202.01 890.526,1201.97 892.724,1201.93 894.923,1201.88 897.122,1201.84 899.321,1201.8 901.52,1201.76 903.719,1201.72 905.917,1201.68 908.116,1201.64 910.315,1201.6 912.514,1201.56 914.713,1201.52 916.912,1201.48 919.111,1201.45 921.309,1201.41 923.508,1201.37 925.707,1201.34 927.906,1201.3 930.105,1201.27 932.304,1201.23 934.502,1201.2 936.701,1201.17 938.9,1201.13 941.099,1201.1 943.298,1201.07 945.497,1201.04 947.695,1201.01 949.894,1200.98 952.093,1200.95 954.292,1200.92 956.491,1200.89 958.69,1200.86 960.889,1200.83 963.087,1200.8 965.286,1200.77 967.485,1200.75 969.684,1200.72 971.883,1200.69 974.082,1200.67 976.28,1200.64 978.479,1200.62 980.678,1200.59 982.877,1200.57 985.076,1200.54 987.275,1200.52 989.473,1200.49 991.672,1200.47 993.871,1200.45 996.07,1200.43 998.269,1200.4 1000.47,1200.38 1002.67,1200.36 1004.87,1200.34 1007.06,1200.32 1009.26,1200.3 1011.46,1200.28 1013.66,1200.26 1015.86,1200.24 1018.06,1200.22 1020.26,1200.2 1022.46,1200.18 1024.65,1200.16 1026.85,1200.14 1029.05,1200.13 1031.25,1200.11 1033.45,1200.09 1035.65,1200.07 1037.85,1200.06 1040.05,1200.04 1042.25,1200.02 1044.44,1200.01 1046.64,1199.99 1048.84,1199.98 1051.04,1199.96 1053.24,1199.95 1055.44,1199.93 1057.64,1199.92 1059.84,1199.9 1062.04,1199.89 1064.23,1199.88 1066.43,1199.86 1068.63,1199.85 1070.83,1199.84 1073.03,1199.82 1075.23,1199.81 1077.43,1199.8 1079.63,1199.79 1081.82,1199.77 1084.02,1199.76 1086.22,1199.75 1088.42,1199.74 1090.62,1199.73 1092.82,1199.72 1095.02,1199.71 1097.22,1199.7 1099.42,1199.68 1101.61,1199.67 1103.81,1199.66 1106.01,1199.65 1108.21,1199.65 1110.41,1199.64 1112.61,1199.63 1114.81,1199.62 1117.01,1199.61 1119.21,1199.6 1121.4,1199.59 1123.6,1199.58 1125.8,1199.57 1128,1199.57 1130.2,1199.56 1132.4,1199.55 1134.6,1199.54 1136.8,1199.53 1138.99,1199.53 1141.19,1199.52 1143.39,1199.51 1145.59,1199.51 1147.79,1199.5 1149.99,1199.49 1152.19,1199.49 1154.39,1199.48 1156.59,1199.47 1158.78,1199.47 1160.98,1199.46 1163.18,1199.46 1165.38,1199.45 1167.58,1199.44 1169.78,1199.44 1171.98,1199.43 1174.18,1199.43 1176.38,1199.42 1178.57,1199.42 1180.77,1199.41 1182.97,1199.41 1185.17,1199.4 1187.37,1199.4 1189.57,1199.39 1191.77,1199.39 1193.97,1199.39 1196.16,1199.38 1198.36,1199.38 1200.56,1199.37 1202.76,1199.37 1204.96,1199.37 1207.16,1199.36 1209.36,1199.36 1211.56,1199.36 1213.76,1199.35 1215.95,1199.35 1218.15,1199.35 1220.35,1199.34 1222.55,1199.34 1224.75,1199.34 1226.95,1199.34 1229.15,1199.33 1231.35,1199.33 1233.55,1199.33 1235.74,1199.33 1237.94,1199.32 1240.14,1199.32 1242.34,1199.32 1244.54,1199.32 1246.74,1199.31 1248.94,1199.31 1251.14,1199.31 1253.33,1199.31 1255.53,1199.31 1257.73,1199.31 1259.93,1199.3 1262.13,1199.3 1264.33,1199.3 1266.53,1199.3 1268.73,1199.3 1270.93,1199.3 1273.12,1199.3 1275.32,1199.3 1277.52,1199.29 1279.72,1199.29 1281.92,1199.29 1284.12,1199.29 1286.32,1199.29 1288.52,1199.29 1290.71,1199.29 1292.91,1199.29 1295.11,1199.29 1297.31,1199.29 1299.51,1199.29 1301.71,1199.29 1303.91,1199.29 1306.11,1199.29 1308.31,1199.29 1310.5,1199.29 1312.7,1199.29 1314.9,1199.29 1317.1,1199.29 1319.3,1199.29 1321.5,1199.29 1323.7,1199.29 1325.9,1199.29 1328.1,1199.29 1330.29,1199.29 1332.49,1199.29 1334.69,1199.29 1336.89,1199.29 1339.09,1199.29 1341.29,1199.29 1343.49,1199.29 1345.69,1199.29 1347.88,1199.29 1350.08,1199.29 1352.28,1199.29 1354.48,1199.29 1356.68,1199.29 1358.88,1199.29 1361.08,1199.29 1363.28,1199.29 1365.48,1199.3 1367.67,1199.3 1369.87,1199.3 1372.07,1199.3 1374.27,1199.3 1376.47,1199.3 1378.67,1199.3 1380.87,1199.3 1383.07,1199.3 1385.27,1199.3 1387.46,1199.3 1389.66,1199.31 1391.86,1199.31 1394.06,1199.31 1396.26,1199.31 1398.46,1199.31 1400.66,1199.31 1402.86,1199.31 1405.05,1199.31 1407.25,1199.32 1409.45,1199.32 1411.65,1199.32 1413.85,1199.32 1416.05,1199.32 1418.25,1199.32 1420.45,1199.33 1422.65,1199.33 1424.84,1199.33 1427.04,1199.33 1429.24,1199.33 1431.44,1199.33 1433.64,1199.33 1435.84,1199.34 1438.04,1199.34 1440.24,1199.34 1442.44,1199.34 1444.63,1199.34 1446.83,1199.34 1449.03,1199.35 1451.23,1199.35 1453.43,1199.35 1455.63,1199.35 1457.83,1199.35 1460.03,1199.36 1462.22,1199.36 1464.42,1199.36 1466.62,1199.36 1468.82,1199.36 1471.02,1199.36 1473.22,1199.37 1475.42,1199.37 1477.62,1199.37 1479.82,1199.37 1482.01,1199.37 1484.21,1199.38 1486.41,1199.38 1488.61,1199.38 1490.81,1199.38 1493.01,1199.38 1495.21,1199.39 1497.41,1199.39 1499.6,1199.39 1501.8,1199.39 1504,1199.39 1506.2,1199.4 1508.4,1199.4 1510.6,1199.4 1512.8,1199.4 1515,1199.4 1517.2,1199.41 1519.39,1199.41 1521.59,1199.41 1523.79,1199.41 1525.99,1199.41 1528.19,1199.42 1530.39,1199.42 1532.59,1199.42 1534.79,1199.42 1536.99,1199.42 1539.18,1199.43 1541.38,1199.43 1543.58,1199.43 1545.78,1199.43 1547.98,1199.44 1550.18,1199.44 1552.38,1199.44 1554.58,1199.44 1556.77,1199.44 1558.97,1199.45 1561.17,1199.45 1563.37,1199.45 1565.57,1199.45 1567.77,1199.45 1569.97,1199.46 1572.17,1199.46 1574.37,1199.46 1576.56,1199.46 1578.76,1199.47 1580.96,1199.47 1583.16,1199.47 1585.36,1199.47 1587.56,1199.47 1589.76,1199.48 1591.96,1199.48 1594.16,1199.48 1596.35,1199.48 1598.55,1199.48 1600.75,1199.49 1602.95,1199.49 1605.15,1199.49 1607.35,1199.49 1609.55,1199.5 1611.75,1199.5 1613.94,1199.5 1616.14,1199.5 1618.34,1199.5 1620.54,1199.51 1622.74,1199.51 1624.94,1199.51 1627.14,1199.51 1629.34,1199.51 1631.54,1199.52 1633.73,1199.52 1635.93,1199.52 1638.13,1199.52 1640.33,1199.53 1642.53,1199.53 1644.73,1199.53 1646.93,1199.53 1649.13,1199.53 1651.33,1199.54 1653.52,1199.54 1655.72,1199.54 1657.92,1199.54 1660.12,1199.54 1662.32,1199.55 1664.52,1199.55 1666.72,1199.55 1668.92,1199.55 1671.11,1199.56 1673.31,1199.56 1675.51,1199.56 1677.71,1199.56 1679.91,1199.56 1682.11,1199.57 1684.31,1199.57 1686.51,1199.57 1688.71,1199.57 1690.9,1199.57 1693.1,1199.58 1695.3,1199.58 1697.5,1199.58 1699.7,1199.58 1701.9,1199.58 1704.1,1199.59 1706.3,1199.59 1708.5,1199.59 1710.69,1199.59 1712.89,1199.59 1715.09,1199.6 1717.29,1199.6 1719.49,1199.6 1721.69,1199.6 1723.89,1199.61 1726.09,1199.61 1728.28,1199.61 1730.48,1199.61 1732.68,1199.61 1734.88,1199.62 1737.08,1199.62 1739.28,1199.62 1741.48,1199.62 1743.68,1199.62 1745.88,1199.63 1748.07,1199.63 1750.27,1199.63 1752.47,1199.63 1754.67,1199.63 1756.87,1199.63 1759.07,1199.64 1761.27,1199.64 1763.47,1199.64 1765.66,1199.64 1767.86,1199.64 1770.06,1199.65 1772.26,1199.65 1774.46,1199.65 1776.66,1199.65 1778.86,1199.65 1781.06,1199.66 1783.26,1199.66 1785.45,1199.66 1787.65,1199.66 1789.85,1199.66 1792.05,1199.66 1794.25,1199.67 1796.45,1199.67 1798.65,1199.67 1800.85,1199.67 1803.05,1199.67 1805.24,1199.68 1807.44,1199.68 1809.64,1199.68 1811.84,1199.68 1814.04,1199.68 1816.24,1199.68 1818.44,1199.69 1820.64,1199.69 1822.83,1199.69 1825.03,1199.69 1827.23,1199.69 1829.43,1199.7 1831.63,1199.7 1833.83,1199.7 1836.03,1199.7 1838.23,1199.7 1840.43,1199.7 1842.62,1199.71 1844.82,1199.71 1847.02,1199.71 1849.22,1199.71 1851.42,1199.71 1853.62,1199.71 1855.82,1199.72 1858.02,1199.72 1860.22,1199.72 1862.41,1199.72 1864.61,1199.72 1866.81,1199.72 1869.01,1199.73 1871.21,1199.73 1873.41,1199.73 1875.61,1199.73 1877.81,1199.73 1880,1199.73 1882.2,1199.74 1884.4,1199.74 1886.6,1199.74 1888.8,1199.74 1891,1199.74 1893.2,1199.74 1895.4,1199.74 1897.6,1199.75 1899.79,1199.75 1901.99,1199.75 1904.19,1199.75 1906.39,1199.75 1908.59,1199.75 1910.79,1199.76 1912.99,1199.76 1915.19,1199.76 1917.39,1199.76 1919.58,1199.76 1921.78,1199.76 1923.98,1199.76 1926.18,1199.77 1928.38,1199.77 1930.58,1199.77 1932.78,1199.77 1934.98,1199.77 1937.17,1199.77 1939.37,1199.77 1941.57,1199.78 1943.77,1199.78 1945.97,1199.78 1948.17,1199.78 1950.37,1199.78 1952.57,1199.78 1954.77,1199.78 1956.96,1199.79 1959.16,1199.79 1961.36,1199.79 1963.56,1199.79 1965.76,1199.79 1967.96,1199.79 1970.16,1199.79 1972.36,1199.8 1974.55,1199.8 1976.75,1199.8 1978.95,1199.8 1981.15,1199.8 1983.35,1199.8 1985.55,1199.8 1987.75,1199.81 1989.95,1199.81 1992.15,1199.81 1994.34,1199.81 1996.54,1199.81 1998.74,1199.81 2000.94,1199.81 2003.14,1199.81 2005.34,1199.82 2007.54,1199.82 2009.74,1199.82 2011.94,1199.82 2014.13,1199.82 2016.33,1199.82 2018.53,1199.82 2020.73,1199.82 2022.93,1199.83 2025.13,1199.83 2027.33,1199.83 2029.53,1199.83 2031.72,1199.83 2033.92,1199.83 2036.12,1199.83 2038.32,1199.83 2040.52,1199.84 2042.72,1199.84 2044.92,1199.84 2047.12,1199.84 2049.32,1199.84 2051.51,1199.84 2053.71,1199.84 2055.91,1199.84 2058.11,1199.84 2060.31,1199.85 2062.51,1199.85 2064.71,1199.85 2066.91,1199.85 2069.11,1199.85 2071.3,1199.85 2073.5,1199.85 2075.7,1199.85 2077.9,1199.85 2080.1,1199.86 2082.3,1199.86 2084.5,1199.86 2086.7,1199.86 2088.89,1199.86 2091.09,1199.86 2093.29,1199.86 2095.49,1199.86 2097.69,1199.86 2099.89,1199.87 2102.09,1199.87 2104.29,1199.87 2106.49,1199.87 2108.68,1199.87 2110.88,1199.87 2113.08,1199.87 2115.28,1199.87 2117.48,1199.87 2119.68,1199.87 2121.88,1199.88 2124.08,1199.88 2126.28,1199.88 2128.47,1199.88 2130.67,1199.88 2132.87,1199.88 2135.07,1199.88 2137.27,1199.88 2139.47,1199.88 2141.67,1199.88 2143.87,1199.89 2146.06,1199.89 2148.26,1199.89 2150.46,1199.89 2152.66,1199.89 2154.86,1199.89 2157.06,1199.89 2159.26,1199.89 2161.46,1199.89 2163.66,1199.89 2165.85,1199.89 2168.05,1199.9 2170.25,1199.9 2172.45,1199.9 2174.65,1199.9 2176.85,1199.9 2179.05,1199.9 2181.25,1199.9 2183.45,1199.9 2185.64,1199.9 2187.84,1199.9 2190.04,1199.9 2192.24,1199.91 2194.44,1199.91 2196.64,1199.91 2198.84,1199.91 2201.04,1199.91 2203.23,1199.91 2205.43,1199.91 2207.63,1199.91 2209.83,1199.91 2212.03,1199.91 2214.23,1199.91 2216.43,1199.91 2218.63,1199.92 2220.83,1199.92 2223.02,1199.92 2225.22,1199.92 2227.42,1199.92 2229.62,1199.92 2231.82,1199.92 2234.02,1199.92 2236.22,1199.92 2238.42,1199.92 2240.61,1199.92 2242.81,1199.92 2245.01,1199.92 2247.21,1199.93 2249.41,1199.93 2251.61,1199.93 2253.81,1199.93 2256.01,1199.93 2258.21,1199.93 2260.4,1199.93 2262.6,1199.93 2264.8,1199.93 2267,1199.93 2269.2,1199.93 2271.4,1199.93 2273.6,1199.93 2275.8,1199.93 2278,1199.94 2280.19,1199.94 2282.39,1199.94 2284.59,1199.94 2286.79,1199.94 2288.99,1199.94 2291.19,1199.94 2293.39,1199.94 2295.59,1199.94 2297.78,1199.94 2299.98,1199.94 2302.18,1199.94 2304.38,1199.94 2306.58,1199.94 2308.78,1199.94 2310.98,1199.95 2313.18,1199.95 2315.38,1199.95 2317.57,1199.95 2319.77,1199.95 2321.97,1199.95 2324.17,1199.95 2326.37,1199.95 2328.57,1199.95 2330.77,1199.95 2332.97,1199.95 2335.17,1199.95 2337.36,1199.95 2339.56,1199.95 2341.76,1199.95 2343.96,1199.95 2346.16,1199.96 2348.36,1199.96 2350.56,1199.96 2352.76,1199.96 "/>
<path clip-path="url(#clip260)" d="M1800.47 248.629 L2279.53 248.629 L2279.53 93.1086 L1800.47 93.1086  Z" fill="#ffffff" fill-rule="evenodd" fill-opacity="1"/>
<polyline clip-path="url(#clip260)" style="stroke:#000000; stroke-linecap:round; stroke-linejoin:round; stroke-width:4; stroke-opacity:1; fill:none" points="1800.47,248.629 2279.53,248.629 2279.53,93.1086 1800.47,93.1086 1800.47,248.629 "/>
<polyline clip-path="url(#clip260)" style="stroke:#009af9; stroke-linecap:round; stroke-linejoin:round; stroke-width:4; stroke-opacity:1; fill:none" points="1824.88,144.949 1971.32,144.949 "/>
<path clip-path="url(#clip260)" d="M1995.73 136.303 L2000.24 136.303 L2008.35 158.062 L2016.45 136.303 L2020.96 136.303 L2011.24 162.229 L2005.45 162.229 L1995.73 136.303 Z" fill="#000000" fill-rule="nonzero" fill-opacity="1" /><path clip-path="url(#clip260)" d="M2028.25 158.293 L2035.89 158.293 L2035.89 131.928 L2027.58 133.595 L2027.58 129.335 L2035.85 127.669 L2040.52 127.669 L2040.52 158.293 L2048.16 158.293 L2048.16 162.229 L2028.25 162.229 L2028.25 158.293 Z" fill="#000000" fill-rule="nonzero" fill-opacity="1" /><path clip-path="url(#clip260)" d="M2066.26 145.585 L2066.26 152.807 L2074.39 152.807 L2074.39 155.006 L2066.26 155.006 L2066.26 162.229 L2063.83 162.229 L2063.83 155.006 L2055.71 155.006 L2055.71 152.807 L2063.83 152.807 L2063.83 145.585 L2066.26 145.585 Z" fill="#000000" fill-rule="nonzero" fill-opacity="1" /><path clip-path="url(#clip260)" d="M2098.55 137.067 L2098.55 141.094 Q2096.75 140.169 2094.8 139.706 Q2092.86 139.243 2090.78 139.243 Q2087.61 139.243 2086.01 140.215 Q2084.43 141.187 2084.43 143.131 Q2084.43 144.613 2085.57 145.469 Q2086.7 146.303 2090.13 147.067 L2091.59 147.391 Q2096.12 148.363 2098.02 150.145 Q2099.94 151.905 2099.94 155.076 Q2099.94 158.687 2097.07 160.793 Q2094.23 162.9 2089.23 162.9 Q2087.14 162.9 2084.87 162.483 Q2082.63 162.09 2080.13 161.28 L2080.13 156.881 Q2082.49 158.108 2084.78 158.733 Q2087.07 159.335 2089.32 159.335 Q2092.33 159.335 2093.95 158.317 Q2095.57 157.275 2095.57 155.4 Q2095.57 153.664 2094.39 152.738 Q2093.23 151.812 2089.27 150.956 L2087.79 150.608 Q2083.83 149.775 2082.07 148.062 Q2080.31 146.326 2080.31 143.317 Q2080.31 139.659 2082.91 137.669 Q2085.5 135.678 2090.27 135.678 Q2092.63 135.678 2094.71 136.025 Q2096.79 136.372 2098.55 137.067 Z" fill="#000000" fill-rule="nonzero" fill-opacity="1" /><path clip-path="url(#clip260)" d="M2110.94 128.942 L2110.94 136.303 L2119.71 136.303 L2119.71 139.613 L2110.94 139.613 L2110.94 153.687 Q2110.94 156.858 2111.79 157.761 Q2112.67 158.664 2115.34 158.664 L2119.71 158.664 L2119.71 162.229 L2115.34 162.229 Q2110.41 162.229 2108.53 160.4 Q2106.66 158.548 2106.66 153.687 L2106.66 139.613 L2103.53 139.613 L2103.53 136.303 L2106.66 136.303 L2106.66 128.942 L2110.94 128.942 Z" fill="#000000" fill-rule="nonzero" fill-opacity="1" /><path clip-path="url(#clip260)" d="M2135.36 139.289 Q2131.93 139.289 2129.94 141.974 Q2127.95 144.636 2127.95 149.289 Q2127.95 153.942 2129.92 156.627 Q2131.91 159.289 2135.36 159.289 Q2138.76 159.289 2140.75 156.604 Q2142.74 153.918 2142.74 149.289 Q2142.74 144.682 2140.75 141.997 Q2138.76 139.289 2135.36 139.289 M2135.36 135.678 Q2140.91 135.678 2144.09 139.289 Q2147.26 142.9 2147.26 149.289 Q2147.26 155.655 2144.09 159.289 Q2140.91 162.9 2135.36 162.9 Q2129.78 162.9 2126.61 159.289 Q2123.46 155.655 2123.46 149.289 Q2123.46 142.9 2126.61 139.289 Q2129.78 135.678 2135.36 135.678 Z" fill="#000000" fill-rule="nonzero" fill-opacity="1" /><path clip-path="url(#clip260)" d="M2169.34 140.284 Q2168.62 139.868 2167.77 139.682 Q2166.93 139.474 2165.91 139.474 Q2162.3 139.474 2160.36 141.835 Q2158.44 144.173 2158.44 148.571 L2158.44 162.229 L2154.16 162.229 L2154.16 136.303 L2158.44 136.303 L2158.44 140.331 Q2159.78 137.969 2161.93 136.835 Q2164.09 135.678 2167.16 135.678 Q2167.6 135.678 2168.14 135.747 Q2168.67 135.794 2169.32 135.909 L2169.34 140.284 Z" fill="#000000" fill-rule="nonzero" fill-opacity="1" /><path clip-path="url(#clip260)" d="M2185.59 149.196 Q2180.43 149.196 2178.44 150.377 Q2176.45 151.557 2176.45 154.405 Q2176.45 156.673 2177.93 158.016 Q2179.43 159.335 2182 159.335 Q2185.54 159.335 2187.67 156.835 Q2189.83 154.312 2189.83 150.145 L2189.83 149.196 L2185.59 149.196 M2194.09 147.437 L2194.09 162.229 L2189.83 162.229 L2189.83 158.293 Q2188.37 160.655 2186.19 161.789 Q2184.02 162.9 2180.87 162.9 Q2176.89 162.9 2174.53 160.678 Q2172.19 158.432 2172.19 154.682 Q2172.19 150.307 2175.1 148.085 Q2178.04 145.863 2183.85 145.863 L2189.83 145.863 L2189.83 145.446 Q2189.83 142.507 2187.88 140.909 Q2185.96 139.289 2182.47 139.289 Q2180.24 139.289 2178.14 139.821 Q2176.03 140.354 2174.09 141.419 L2174.09 137.483 Q2176.42 136.581 2178.62 136.141 Q2180.82 135.678 2182.91 135.678 Q2188.53 135.678 2191.31 138.594 Q2194.09 141.511 2194.09 147.437 Z" fill="#000000" fill-rule="nonzero" fill-opacity="1" /><path clip-path="url(#clip260)" d="M2219.92 148.965 Q2219.92 144.335 2218 141.789 Q2216.1 139.243 2212.65 139.243 Q2209.22 139.243 2207.3 141.789 Q2205.41 144.335 2205.41 148.965 Q2205.41 153.571 2207.3 156.118 Q2209.22 158.664 2212.65 158.664 Q2216.1 158.664 2218 156.118 Q2219.92 153.571 2219.92 148.965 M2224.18 159.011 Q2224.18 165.631 2221.24 168.849 Q2218.3 172.09 2212.23 172.09 Q2209.99 172.09 2208 171.742 Q2206.01 171.418 2204.13 170.724 L2204.13 166.58 Q2206.01 167.599 2207.84 168.085 Q2209.66 168.571 2211.56 168.571 Q2215.75 168.571 2217.84 166.372 Q2219.92 164.196 2219.92 159.775 L2219.92 157.668 Q2218.6 159.96 2216.54 161.094 Q2214.48 162.229 2211.61 162.229 Q2206.84 162.229 2203.92 158.594 Q2201.01 154.96 2201.01 148.965 Q2201.01 142.946 2203.92 139.312 Q2206.84 135.678 2211.61 135.678 Q2214.48 135.678 2216.54 136.812 Q2218.6 137.946 2219.92 140.238 L2219.92 136.303 L2224.18 136.303 L2224.18 159.011 Z" fill="#000000" fill-rule="nonzero" fill-opacity="1" /><path clip-path="url(#clip260)" d="M2255.13 148.201 L2255.13 150.284 L2235.54 150.284 Q2235.82 154.682 2238.18 156.997 Q2240.57 159.289 2244.8 159.289 Q2247.26 159.289 2249.55 158.687 Q2251.86 158.085 2254.13 156.881 L2254.13 160.909 Q2251.84 161.881 2249.43 162.391 Q2247.03 162.9 2244.55 162.9 Q2238.34 162.9 2234.71 159.289 Q2231.1 155.678 2231.1 149.52 Q2231.1 143.155 2234.53 139.428 Q2237.97 135.678 2243.81 135.678 Q2249.04 135.678 2252.07 139.057 Q2255.13 142.414 2255.13 148.201 M2250.87 146.951 Q2250.82 143.456 2248.9 141.372 Q2247 139.289 2243.85 139.289 Q2240.29 139.289 2238.14 141.303 Q2236.01 143.317 2235.68 146.974 L2250.87 146.951 Z" fill="#000000" fill-rule="nonzero" fill-opacity="1" /><polyline clip-path="url(#clip260)" style="stroke:#e26f46; stroke-linecap:round; stroke-linejoin:round; stroke-width:4; stroke-opacity:1; fill:none" points="1824.88,196.789 1971.32,196.789 "/>
<path clip-path="url(#clip260)" d="M1995.73 188.143 L2000.24 188.143 L2008.35 209.902 L2016.45 188.143 L2020.96 188.143 L2011.24 214.069 L2005.45 214.069 L1995.73 188.143 Z" fill="#000000" fill-rule="nonzero" fill-opacity="1" /><path clip-path="url(#clip260)" d="M2027.49 179.509 L2045.85 179.509 L2045.85 183.444 L2031.77 183.444 L2031.77 191.916 Q2032.79 191.569 2033.81 191.407 Q2034.83 191.222 2035.85 191.222 Q2041.63 191.222 2045.01 194.393 Q2048.39 197.564 2048.39 202.981 Q2048.39 208.559 2044.92 211.661 Q2041.45 214.74 2035.13 214.74 Q2032.95 214.74 2030.68 214.37 Q2028.44 213.999 2026.03 213.258 L2026.03 208.559 Q2028.11 209.694 2030.34 210.249 Q2032.56 210.805 2035.04 210.805 Q2039.04 210.805 2041.38 208.698 Q2043.72 206.592 2043.72 202.981 Q2043.72 199.37 2041.38 197.263 Q2039.04 195.157 2035.04 195.157 Q2033.16 195.157 2031.29 195.573 Q2029.43 195.99 2027.49 196.87 L2027.49 179.509 Z" fill="#000000" fill-rule="nonzero" fill-opacity="1" /><path clip-path="url(#clip260)" d="M2066.26 197.425 L2066.26 204.647 L2074.39 204.647 L2074.39 206.846 L2066.26 206.846 L2066.26 214.069 L2063.83 214.069 L2063.83 206.846 L2055.71 206.846 L2055.71 204.647 L2063.83 204.647 L2063.83 197.425 L2066.26 197.425 Z" fill="#000000" fill-rule="nonzero" fill-opacity="1" /><path clip-path="url(#clip260)" d="M2098.55 188.907 L2098.55 192.934 Q2096.75 192.009 2094.8 191.546 Q2092.86 191.083 2090.78 191.083 Q2087.61 191.083 2086.01 192.055 Q2084.43 193.027 2084.43 194.971 Q2084.43 196.453 2085.57 197.309 Q2086.7 198.143 2090.13 198.907 L2091.59 199.231 Q2096.12 200.203 2098.02 201.985 Q2099.94 203.745 2099.94 206.916 Q2099.94 210.527 2097.07 212.633 Q2094.23 214.74 2089.23 214.74 Q2087.14 214.74 2084.87 214.323 Q2082.63 213.93 2080.13 213.12 L2080.13 208.721 Q2082.49 209.948 2084.78 210.573 Q2087.07 211.175 2089.32 211.175 Q2092.33 211.175 2093.95 210.157 Q2095.57 209.115 2095.57 207.24 Q2095.57 205.504 2094.39 204.578 Q2093.23 203.652 2089.27 202.796 L2087.79 202.448 Q2083.83 201.615 2082.07 199.902 Q2080.31 198.166 2080.31 195.157 Q2080.31 191.499 2082.91 189.509 Q2085.5 187.518 2090.27 187.518 Q2092.63 187.518 2094.71 187.865 Q2096.79 188.212 2098.55 188.907 Z" fill="#000000" fill-rule="nonzero" fill-opacity="1" /><path clip-path="url(#clip260)" d="M2110.94 180.782 L2110.94 188.143 L2119.71 188.143 L2119.71 191.453 L2110.94 191.453 L2110.94 205.527 Q2110.94 208.698 2111.79 209.601 Q2112.67 210.504 2115.34 210.504 L2119.71 210.504 L2119.71 214.069 L2115.34 214.069 Q2110.41 214.069 2108.53 212.24 Q2106.66 210.388 2106.66 205.527 L2106.66 191.453 L2103.53 191.453 L2103.53 188.143 L2106.66 188.143 L2106.66 180.782 L2110.94 180.782 Z" fill="#000000" fill-rule="nonzero" fill-opacity="1" /><path clip-path="url(#clip260)" d="M2135.36 191.129 Q2131.93 191.129 2129.94 193.814 Q2127.95 196.476 2127.95 201.129 Q2127.95 205.782 2129.92 208.467 Q2131.91 211.129 2135.36 211.129 Q2138.76 211.129 2140.75 208.444 Q2142.74 205.758 2142.74 201.129 Q2142.74 196.522 2140.75 193.837 Q2138.76 191.129 2135.36 191.129 M2135.36 187.518 Q2140.91 187.518 2144.09 191.129 Q2147.26 194.74 2147.26 201.129 Q2147.26 207.495 2144.09 211.129 Q2140.91 214.74 2135.36 214.74 Q2129.78 214.74 2126.61 211.129 Q2123.46 207.495 2123.46 201.129 Q2123.46 194.74 2126.61 191.129 Q2129.78 187.518 2135.36 187.518 Z" fill="#000000" fill-rule="nonzero" fill-opacity="1" /><path clip-path="url(#clip260)" d="M2169.34 192.124 Q2168.62 191.708 2167.77 191.522 Q2166.93 191.314 2165.91 191.314 Q2162.3 191.314 2160.36 193.675 Q2158.44 196.013 2158.44 200.411 L2158.44 214.069 L2154.16 214.069 L2154.16 188.143 L2158.44 188.143 L2158.44 192.171 Q2159.78 189.809 2161.93 188.675 Q2164.09 187.518 2167.16 187.518 Q2167.6 187.518 2168.14 187.587 Q2168.67 187.634 2169.32 187.749 L2169.34 192.124 Z" fill="#000000" fill-rule="nonzero" fill-opacity="1" /><path clip-path="url(#clip260)" d="M2185.59 201.036 Q2180.43 201.036 2178.44 202.217 Q2176.45 203.397 2176.45 206.245 Q2176.45 208.513 2177.93 209.856 Q2179.43 211.175 2182 211.175 Q2185.54 211.175 2187.67 208.675 Q2189.83 206.152 2189.83 201.985 L2189.83 201.036 L2185.59 201.036 M2194.09 199.277 L2194.09 214.069 L2189.83 214.069 L2189.83 210.133 Q2188.37 212.495 2186.19 213.629 Q2184.02 214.74 2180.87 214.74 Q2176.89 214.74 2174.53 212.518 Q2172.19 210.272 2172.19 206.522 Q2172.19 202.147 2175.1 199.925 Q2178.04 197.703 2183.85 197.703 L2189.83 197.703 L2189.83 197.286 Q2189.83 194.347 2187.88 192.749 Q2185.96 191.129 2182.47 191.129 Q2180.24 191.129 2178.14 191.661 Q2176.03 192.194 2174.09 193.259 L2174.09 189.323 Q2176.42 188.421 2178.62 187.981 Q2180.82 187.518 2182.91 187.518 Q2188.53 187.518 2191.31 190.434 Q2194.09 193.351 2194.09 199.277 Z" fill="#000000" fill-rule="nonzero" fill-opacity="1" /><path clip-path="url(#clip260)" d="M2219.92 200.805 Q2219.92 196.175 2218 193.629 Q2216.1 191.083 2212.65 191.083 Q2209.22 191.083 2207.3 193.629 Q2205.41 196.175 2205.41 200.805 Q2205.41 205.411 2207.3 207.958 Q2209.22 210.504 2212.65 210.504 Q2216.1 210.504 2218 207.958 Q2219.92 205.411 2219.92 200.805 M2224.18 210.851 Q2224.18 217.471 2221.24 220.689 Q2218.3 223.93 2212.23 223.93 Q2209.99 223.93 2208 223.582 Q2206.01 223.258 2204.13 222.564 L2204.13 218.42 Q2206.01 219.439 2207.84 219.925 Q2209.66 220.411 2211.56 220.411 Q2215.75 220.411 2217.84 218.212 Q2219.92 216.036 2219.92 211.615 L2219.92 209.508 Q2218.6 211.8 2216.54 212.934 Q2214.48 214.069 2211.61 214.069 Q2206.84 214.069 2203.92 210.434 Q2201.01 206.8 2201.01 200.805 Q2201.01 194.786 2203.92 191.152 Q2206.84 187.518 2211.61 187.518 Q2214.48 187.518 2216.54 188.652 Q2218.6 189.786 2219.92 192.078 L2219.92 188.143 L2224.18 188.143 L2224.18 210.851 Z" fill="#000000" fill-rule="nonzero" fill-opacity="1" /><path clip-path="url(#clip260)" d="M2255.13 200.041 L2255.13 202.124 L2235.54 202.124 Q2235.82 206.522 2238.18 208.837 Q2240.57 211.129 2244.8 211.129 Q2247.26 211.129 2249.55 210.527 Q2251.86 209.925 2254.13 208.721 L2254.13 212.749 Q2251.84 213.721 2249.43 214.231 Q2247.03 214.74 2244.55 214.74 Q2238.34 214.74 2234.71 211.129 Q2231.1 207.518 2231.1 201.36 Q2231.1 194.995 2234.53 191.268 Q2237.97 187.518 2243.81 187.518 Q2249.04 187.518 2252.07 190.897 Q2255.13 194.254 2255.13 200.041 M2250.87 198.791 Q2250.82 195.296 2248.9 193.212 Q2247 191.129 2243.85 191.129 Q2240.29 191.129 2238.14 193.143 Q2236.01 195.157 2235.68 198.814 L2250.87 198.791 Z" fill="#000000" fill-rule="nonzero" fill-opacity="1" /></svg>
