<?xml version="1.0" encoding="utf-8"?>
<svg xmlns="http://www.w3.org/2000/svg" xmlns:xlink="http://www.w3.org/1999/xlink" width="600" height="400" viewBox="0 0 2400 1600">
<defs>
  <clipPath id="clip140">
    <rect x="0" y="0" width="2400" height="1600"/>
  </clipPath>
</defs>
<path clip-path="url(#clip140)" d="M0 1600 L2400 1600 L2400 0 L0 0  Z" fill="#ffffff" fill-rule="evenodd" fill-opacity="1"/>
<defs>
  <clipPath id="clip141">
    <rect x="480" y="0" width="1681" height="1600"/>
  </clipPath>
</defs>
<path clip-path="url(#clip140)" d="M110.881 1423.18 L2352.76 1423.18 L2352.76 47.2441 L110.881 47.2441  Z" fill="#ffffff" fill-rule="evenodd" fill-opacity="1"/>
<defs>
  <clipPath id="clip142">
    <rect x="110" y="47" width="2243" height="1377"/>
  </clipPath>
</defs>
<polyline clip-path="url(#clip142)" style="stroke:#000000; stroke-linecap:round; stroke-linejoin:round; stroke-width:2; stroke-opacity:0.1; fill:none" points="110.881,1423.18 110.881,47.2441 "/>
<polyline clip-path="url(#clip142)" style="stroke:#000000; stroke-linecap:round; stroke-linejoin:round; stroke-width:2; stroke-opacity:0.1; fill:none" points="671.35,1423.18 671.35,47.2441 "/>
<polyline clip-path="url(#clip142)" style="stroke:#000000; stroke-linecap:round; stroke-linejoin:round; stroke-width:2; stroke-opacity:0.1; fill:none" points="1231.82,1423.18 1231.82,47.2441 "/>
<polyline clip-path="url(#clip142)" style="stroke:#000000; stroke-linecap:round; stroke-linejoin:round; stroke-width:2; stroke-opacity:0.1; fill:none" points="1792.29,1423.18 1792.29,47.2441 "/>
<polyline clip-path="url(#clip142)" style="stroke:#000000; stroke-linecap:round; stroke-linejoin:round; stroke-width:2; stroke-opacity:0.1; fill:none" points="2352.76,1423.18 2352.76,47.2441 "/>
<polyline clip-path="url(#clip142)" style="stroke:#000000; stroke-linecap:round; stroke-linejoin:round; stroke-width:2; stroke-opacity:0.1; fill:none" points="110.881,1366.13 2352.76,1366.13 "/>
<polyline clip-path="url(#clip142)" style="stroke:#000000; stroke-linecap:round; stroke-linejoin:round; stroke-width:2; stroke-opacity:0.1; fill:none" points="110.881,942.201 2352.76,942.201 "/>
<polyline clip-path="url(#clip142)" style="stroke:#000000; stroke-linecap:round; stroke-linejoin:round; stroke-width:2; stroke-opacity:0.1; fill:none" points="110.881,518.271 2352.76,518.271 "/>
<polyline clip-path="url(#clip142)" style="stroke:#000000; stroke-linecap:round; stroke-linejoin:round; stroke-width:2; stroke-opacity:0.1; fill:none" points="110.881,94.3423 2352.76,94.3423 "/>
<polyline clip-path="url(#clip140)" style="stroke:#000000; stroke-linecap:round; stroke-linejoin:round; stroke-width:4; stroke-opacity:1; fill:none" points="110.881,1423.18 2352.76,1423.18 "/>
<polyline clip-path="url(#clip140)" style="stroke:#000000; stroke-linecap:round; stroke-linejoin:round; stroke-width:4; stroke-opacity:1; fill:none" points="110.881,1423.18 110.881,1404.28 "/>
<polyline clip-path="url(#clip140)" style="stroke:#000000; stroke-linecap:round; stroke-linejoin:round; stroke-width:4; stroke-opacity:1; fill:none" points="671.35,1423.18 671.35,1404.28 "/>
<polyline clip-path="url(#clip140)" style="stroke:#000000; stroke-linecap:round; stroke-linejoin:round; stroke-width:4; stroke-opacity:1; fill:none" points="1231.82,1423.18 1231.82,1404.28 "/>
<polyline clip-path="url(#clip140)" style="stroke:#000000; stroke-linecap:round; stroke-linejoin:round; stroke-width:4; stroke-opacity:1; fill:none" points="1792.29,1423.18 1792.29,1404.28 "/>
<polyline clip-path="url(#clip140)" style="stroke:#000000; stroke-linecap:round; stroke-linejoin:round; stroke-width:4; stroke-opacity:1; fill:none" points="2352.76,1423.18 2352.76,1404.28 "/>
<path clip-path="url(#clip140)" d="M88.2653 1454.1 Q84.6542 1454.1 82.8255 1457.66 Q81.0199 1461.2 81.0199 1468.33 Q81.0199 1475.44 82.8255 1479.01 Q84.6542 1482.55 88.2653 1482.55 Q91.8995 1482.55 93.7051 1479.01 Q95.5337 1475.44 95.5337 1468.33 Q95.5337 1461.2 93.7051 1457.66 Q91.8995 1454.1 88.2653 1454.1 M88.2653 1450.39 Q94.0754 1450.39 97.131 1455 Q100.21 1459.58 100.21 1468.33 Q100.21 1477.06 97.131 1481.67 Q94.0754 1486.25 88.2653 1486.25 Q82.4551 1486.25 79.3764 1481.67 Q76.3209 1477.06 76.3209 1468.33 Q76.3209 1459.58 79.3764 1455 Q82.4551 1450.39 88.2653 1450.39 Z" fill="#000000" fill-rule="nonzero" fill-opacity="1" /><path clip-path="url(#clip140)" d="M108.427 1479.7 L113.311 1479.7 L113.311 1485.58 L108.427 1485.58 L108.427 1479.7 Z" fill="#000000" fill-rule="nonzero" fill-opacity="1" /><path clip-path="url(#clip140)" d="M133.497 1454.1 Q129.885 1454.1 128.057 1457.66 Q126.251 1461.2 126.251 1468.33 Q126.251 1475.44 128.057 1479.01 Q129.885 1482.55 133.497 1482.55 Q137.131 1482.55 138.936 1479.01 Q140.765 1475.44 140.765 1468.33 Q140.765 1461.2 138.936 1457.66 Q137.131 1454.1 133.497 1454.1 M133.497 1450.39 Q139.307 1450.39 142.362 1455 Q145.441 1459.58 145.441 1468.33 Q145.441 1477.06 142.362 1481.67 Q139.307 1486.25 133.497 1486.25 Q127.686 1486.25 124.608 1481.67 Q121.552 1477.06 121.552 1468.33 Q121.552 1459.58 124.608 1455 Q127.686 1450.39 133.497 1450.39 Z" fill="#000000" fill-rule="nonzero" fill-opacity="1" /><path clip-path="url(#clip140)" d="M649.232 1454.1 Q645.621 1454.1 643.792 1457.66 Q641.986 1461.2 641.986 1468.33 Q641.986 1475.44 643.792 1479.01 Q645.621 1482.55 649.232 1482.55 Q652.866 1482.55 654.671 1479.01 Q656.5 1475.44 656.5 1468.33 Q656.5 1461.2 654.671 1457.66 Q652.866 1454.1 649.232 1454.1 M649.232 1450.39 Q655.042 1450.39 658.097 1455 Q661.176 1459.58 661.176 1468.33 Q661.176 1477.06 658.097 1481.67 Q655.042 1486.25 649.232 1486.25 Q643.422 1486.25 640.343 1481.67 Q637.287 1477.06 637.287 1468.33 Q637.287 1459.58 640.343 1455 Q643.422 1450.39 649.232 1450.39 Z" fill="#000000" fill-rule="nonzero" fill-opacity="1" /><path clip-path="url(#clip140)" d="M669.394 1479.7 L674.278 1479.7 L674.278 1485.58 L669.394 1485.58 L669.394 1479.7 Z" fill="#000000" fill-rule="nonzero" fill-opacity="1" /><path clip-path="url(#clip140)" d="M684.509 1451.02 L702.866 1451.02 L702.866 1454.96 L688.792 1454.96 L688.792 1463.43 Q689.81 1463.08 690.829 1462.92 Q691.847 1462.73 692.866 1462.73 Q698.653 1462.73 702.032 1465.9 Q705.412 1469.08 705.412 1474.49 Q705.412 1480.07 701.94 1483.17 Q698.468 1486.25 692.148 1486.25 Q689.972 1486.25 687.704 1485.88 Q685.458 1485.51 683.051 1484.77 L683.051 1480.07 Q685.134 1481.2 687.357 1481.76 Q689.579 1482.32 692.056 1482.32 Q696.06 1482.32 698.398 1480.21 Q700.736 1478.1 700.736 1474.49 Q700.736 1470.88 698.398 1468.77 Q696.06 1466.67 692.056 1466.67 Q690.181 1466.67 688.306 1467.08 Q686.454 1467.5 684.509 1468.38 L684.509 1451.02 Z" fill="#000000" fill-rule="nonzero" fill-opacity="1" /><path clip-path="url(#clip140)" d="M1198.97 1481.64 L1206.61 1481.64 L1206.61 1455.28 L1198.3 1456.95 L1198.3 1452.69 L1206.56 1451.02 L1211.24 1451.02 L1211.24 1481.64 L1218.88 1481.64 L1218.88 1485.58 L1198.97 1485.58 L1198.97 1481.64 Z" fill="#000000" fill-rule="nonzero" fill-opacity="1" /><path clip-path="url(#clip140)" d="M1228.32 1479.7 L1233.21 1479.7 L1233.21 1485.58 L1228.32 1485.58 L1228.32 1479.7 Z" fill="#000000" fill-rule="nonzero" fill-opacity="1" /><path clip-path="url(#clip140)" d="M1253.39 1454.1 Q1249.78 1454.1 1247.95 1457.66 Q1246.15 1461.2 1246.15 1468.33 Q1246.15 1475.44 1247.95 1479.01 Q1249.78 1482.55 1253.39 1482.55 Q1257.03 1482.55 1258.83 1479.01 Q1260.66 1475.44 1260.66 1468.33 Q1260.66 1461.2 1258.83 1457.66 Q1257.03 1454.1 1253.39 1454.1 M1253.39 1450.39 Q1259.2 1450.39 1262.26 1455 Q1265.34 1459.58 1265.34 1468.33 Q1265.34 1477.06 1262.26 1481.67 Q1259.2 1486.25 1253.39 1486.25 Q1247.58 1486.25 1244.5 1481.67 Q1241.45 1477.06 1241.45 1468.33 Q1241.45 1459.58 1244.5 1455 Q1247.58 1450.39 1253.39 1450.39 Z" fill="#000000" fill-rule="nonzero" fill-opacity="1" /><path clip-path="url(#clip140)" d="M1759.94 1481.64 L1767.58 1481.64 L1767.58 1455.28 L1759.27 1456.95 L1759.27 1452.69 L1767.53 1451.02 L1772.21 1451.02 L1772.21 1481.64 L1779.85 1481.64 L1779.85 1485.58 L1759.94 1485.58 L1759.94 1481.64 Z" fill="#000000" fill-rule="nonzero" fill-opacity="1" /><path clip-path="url(#clip140)" d="M1789.29 1479.7 L1794.17 1479.7 L1794.17 1485.58 L1789.29 1485.58 L1789.29 1479.7 Z" fill="#000000" fill-rule="nonzero" fill-opacity="1" /><path clip-path="url(#clip140)" d="M1804.41 1451.02 L1822.76 1451.02 L1822.76 1454.96 L1808.69 1454.96 L1808.69 1463.43 Q1809.71 1463.08 1810.72 1462.92 Q1811.74 1462.73 1812.76 1462.73 Q1818.55 1462.73 1821.93 1465.9 Q1825.31 1469.08 1825.31 1474.49 Q1825.31 1480.07 1821.84 1483.17 Q1818.36 1486.25 1812.04 1486.25 Q1809.87 1486.25 1807.6 1485.88 Q1805.35 1485.51 1802.95 1484.77 L1802.95 1480.07 Q1805.03 1481.2 1807.25 1481.76 Q1809.47 1482.32 1811.95 1482.32 Q1815.96 1482.32 1818.29 1480.21 Q1820.63 1478.1 1820.63 1474.49 Q1820.63 1470.88 1818.29 1468.77 Q1815.96 1466.67 1811.95 1466.67 Q1810.08 1466.67 1808.2 1467.08 Q1806.35 1467.5 1804.41 1468.38 L1804.41 1451.02 Z" fill="#000000" fill-rule="nonzero" fill-opacity="1" /><path clip-path="url(#clip140)" d="M2323.99 1481.64 L2340.31 1481.64 L2340.31 1485.58 L2318.37 1485.58 L2318.37 1481.64 Q2321.03 1478.89 2325.61 1474.26 Q2330.22 1469.61 2331.4 1468.27 Q2333.65 1465.74 2334.53 1464.01 Q2335.43 1462.25 2335.43 1460.56 Q2335.43 1457.8 2333.49 1456.07 Q2331.56 1454.33 2328.46 1454.33 Q2326.26 1454.33 2323.81 1455.09 Q2321.38 1455.86 2318.6 1457.41 L2318.6 1452.69 Q2321.43 1451.55 2323.88 1450.97 Q2326.33 1450.39 2328.37 1450.39 Q2333.74 1450.39 2336.93 1453.08 Q2340.13 1455.77 2340.13 1460.26 Q2340.13 1462.39 2339.32 1464.31 Q2338.53 1466.2 2336.42 1468.8 Q2335.85 1469.47 2332.74 1472.69 Q2329.64 1475.88 2323.99 1481.64 Z" fill="#000000" fill-rule="nonzero" fill-opacity="1" /><path clip-path="url(#clip140)" d="M2350.13 1479.7 L2355.01 1479.7 L2355.01 1485.58 L2350.13 1485.58 L2350.13 1479.7 Z" fill="#000000" fill-rule="nonzero" fill-opacity="1" /><path clip-path="url(#clip140)" d="M2375.2 1454.1 Q2371.59 1454.1 2369.76 1457.66 Q2367.95 1461.2 2367.95 1468.33 Q2367.95 1475.44 2369.76 1479.01 Q2371.59 1482.55 2375.2 1482.55 Q2378.83 1482.55 2380.64 1479.01 Q2382.47 1475.44 2382.47 1468.33 Q2382.47 1461.2 2380.64 1457.66 Q2378.83 1454.1 2375.2 1454.1 M2375.2 1450.39 Q2381.01 1450.39 2384.06 1455 Q2387.14 1459.58 2387.14 1468.33 Q2387.14 1477.06 2384.06 1481.67 Q2381.01 1486.25 2375.2 1486.25 Q2369.39 1486.25 2366.31 1481.67 Q2363.25 1477.06 2363.25 1468.33 Q2363.25 1459.58 2366.31 1455 Q2369.39 1450.39 2375.2 1450.39 Z" fill="#000000" fill-rule="nonzero" fill-opacity="1" /><path clip-path="url(#clip140)" d="M1230.88 1522.27 L1230.88 1532.4 L1242.94 1532.4 L1242.94 1536.95 L1230.88 1536.95 L1230.88 1556.3 Q1230.88 1560.66 1232.06 1561.9 Q1233.27 1563.14 1236.93 1563.14 L1242.94 1563.14 L1242.94 1568.04 L1236.93 1568.04 Q1230.15 1568.04 1227.57 1565.53 Q1224.99 1562.98 1224.99 1556.3 L1224.99 1536.95 L1220.69 1536.95 L1220.69 1532.4 L1224.99 1532.4 L1224.99 1522.27 L1230.88 1522.27 Z" fill="#000000" fill-rule="nonzero" fill-opacity="1" /><polyline clip-path="url(#clip140)" style="stroke:#000000; stroke-linecap:round; stroke-linejoin:round; stroke-width:4; stroke-opacity:1; fill:none" points="110.881,1423.18 110.881,47.2441 "/>
<polyline clip-path="url(#clip140)" style="stroke:#000000; stroke-linecap:round; stroke-linejoin:round; stroke-width:4; stroke-opacity:1; fill:none" points="110.881,1366.13 129.779,1366.13 "/>
<polyline clip-path="url(#clip140)" style="stroke:#000000; stroke-linecap:round; stroke-linejoin:round; stroke-width:4; stroke-opacity:1; fill:none" points="110.881,942.201 129.779,942.201 "/>
<polyline clip-path="url(#clip140)" style="stroke:#000000; stroke-linecap:round; stroke-linejoin:round; stroke-width:4; stroke-opacity:1; fill:none" points="110.881,518.271 129.779,518.271 "/>
<polyline clip-path="url(#clip140)" style="stroke:#000000; stroke-linecap:round; stroke-linejoin:round; stroke-width:4; stroke-opacity:1; fill:none" points="110.881,94.3423 129.779,94.3423 "/>
<path clip-path="url(#clip140)" d="M62.9365 1351.93 Q59.3254 1351.93 57.4967 1355.49 Q55.6912 1359.03 55.6912 1366.16 Q55.6912 1373.27 57.4967 1376.84 Q59.3254 1380.38 62.9365 1380.38 Q66.5707 1380.38 68.3763 1376.84 Q70.205 1373.27 70.205 1366.16 Q70.205 1359.03 68.3763 1355.49 Q66.5707 1351.93 62.9365 1351.93 M62.9365 1348.22 Q68.7467 1348.22 71.8022 1352.83 Q74.8809 1357.41 74.8809 1366.16 Q74.8809 1374.89 71.8022 1379.5 Q68.7467 1384.08 62.9365 1384.08 Q57.1264 1384.08 54.0477 1379.5 Q50.9921 1374.89 50.9921 1366.16 Q50.9921 1357.41 54.0477 1352.83 Q57.1264 1348.22 62.9365 1348.22 Z" fill="#000000" fill-rule="nonzero" fill-opacity="1" /><path clip-path="url(#clip140)" d="M54.9736 955.545 L62.6124 955.545 L62.6124 929.18 L54.3023 930.846 L54.3023 926.587 L62.5661 924.921 L67.242 924.921 L67.242 955.545 L74.8809 955.545 L74.8809 959.481 L54.9736 959.481 L54.9736 955.545 Z" fill="#000000" fill-rule="nonzero" fill-opacity="1" /><path clip-path="url(#clip140)" d="M58.5615 531.616 L74.8809 531.616 L74.8809 535.551 L52.9366 535.551 L52.9366 531.616 Q55.5986 528.862 60.1819 524.232 Q64.7883 519.579 65.9689 518.237 Q68.2143 515.714 69.0939 513.977 Q69.9967 512.218 69.9967 510.528 Q69.9967 507.774 68.0522 506.038 Q66.1309 504.302 63.0291 504.302 Q60.83 504.302 58.3763 505.065 Q55.9458 505.829 53.168 507.38 L53.168 502.658 Q55.9921 501.524 58.4458 500.945 Q60.8995 500.366 62.9365 500.366 Q68.3068 500.366 71.5013 503.052 Q74.6957 505.737 74.6957 510.228 Q74.6957 512.357 73.8855 514.278 Q73.0985 516.177 70.992 518.769 Q70.4133 519.44 67.3115 522.658 Q64.2096 525.852 58.5615 531.616 Z" fill="#000000" fill-rule="nonzero" fill-opacity="1" /><path clip-path="url(#clip140)" d="M67.7513 92.9881 Q71.1078 93.7057 72.9827 95.9742 Q74.8809 98.2427 74.8809 101.576 Q74.8809 106.692 71.3624 109.493 Q67.8439 112.294 61.3624 112.294 Q59.1865 112.294 56.8717 111.854 Q54.5801 111.437 52.1264 110.581 L52.1264 106.067 Q54.0708 107.201 56.3856 107.78 Q58.7004 108.358 61.2236 108.358 Q65.6217 108.358 67.9133 106.622 Q70.2281 104.886 70.2281 101.576 Q70.2281 98.5205 68.0754 96.8076 Q65.9457 95.0715 62.1263 95.0715 L58.0986 95.0715 L58.0986 91.2289 L62.3115 91.2289 Q65.7606 91.2289 67.5893 89.8632 Q69.418 88.4743 69.418 85.8817 Q69.418 83.2197 67.5198 81.8076 Q65.6448 80.3725 62.1263 80.3725 Q60.205 80.3725 58.006 80.7891 Q55.8069 81.2058 53.168 82.0854 L53.168 77.9188 Q55.8301 77.178 58.1449 76.8077 Q60.4828 76.4373 62.543 76.4373 Q67.867 76.4373 70.9689 78.8678 Q74.0707 81.2752 74.0707 85.3956 Q74.0707 88.2659 72.4272 90.2567 Q70.7837 92.2243 67.7513 92.9881 Z" fill="#000000" fill-rule="nonzero" fill-opacity="1" /><polyline clip-path="url(#clip142)" style="stroke:#009af9; stroke-linecap:round; stroke-linejoin:round; stroke-width:4; stroke-opacity:1; fill:none" points="110.881,86.1857 113.125,96.7702 115.369,107.249 117.613,117.624 119.857,127.896 122.101,138.065 124.346,148.133 126.59,158.1 128.834,167.968 131.078,177.738 133.322,187.411 135.566,196.987 137.81,206.468 140.054,215.855 142.299,225.148 144.543,234.348 146.787,243.457 149.031,252.475 151.275,261.404 153.519,270.243 155.763,278.994 158.007,287.659 160.252,296.236 162.496,304.729 164.74,313.137 166.984,321.461 169.228,329.702 171.472,337.861 173.716,345.939 175.96,353.936 178.204,361.854 180.449,369.693 182.693,377.454 184.937,385.137 187.181,392.744 189.425,400.275 191.669,407.732 193.913,415.114 196.157,422.422 198.402,429.658 200.646,436.821 202.89,443.914 205.134,450.935 207.378,457.887 209.622,464.769 211.866,471.583 214.11,478.329 216.354,485.008 218.599,491.62 220.843,498.166 223.087,504.647 225.331,511.064 227.575,517.417 229.819,523.706 232.063,529.933 234.307,536.098 236.552,542.201 238.796,548.244 241.04,554.226 243.284,560.149 245.528,566.013 247.772,571.818 250.016,577.566 252.26,583.257 254.505,588.89 256.749,594.468 258.993,599.99 261.237,605.457 263.481,610.87 265.725,616.229 267.969,621.534 270.213,626.786 272.457,631.986 274.702,637.135 276.946,642.232 279.19,647.278 281.434,652.274 283.678,657.22 285.922,662.117 288.166,666.966 290.41,671.765 292.655,676.518 294.899,681.222 297.143,685.88 299.387,690.492 301.631,695.057 303.875,699.577 306.119,704.052 308.363,708.483 310.607,712.869 312.852,717.212 315.096,721.512 317.34,725.768 319.584,729.983 321.828,734.155 324.072,738.286 326.316,742.375 328.56,746.424 330.805,750.433 333.049,754.401 335.293,758.331 337.537,762.221 339.781,766.072 342.025,769.885 344.269,773.66 346.513,777.397 348.758,781.097 351.002,784.76 353.246,788.387 355.49,791.977 357.734,795.532 359.978,799.052 362.222,802.536 364.466,805.986 366.71,809.401 368.955,812.782 371.199,816.13 373.443,819.444 375.687,822.725 377.931,825.974 380.175,829.19 382.419,832.374 384.663,835.526 386.908,838.647 389.152,841.737 391.396,844.796 393.64,847.825 395.884,850.824 398.128,853.792 400.372,856.732 402.616,859.641 404.86,862.522 407.105,865.375 409.349,868.199 411.593,870.994 413.837,873.762 416.081,876.503 418.325,879.216 420.569,881.902 422.813,884.561 425.058,887.194 427.302,889.801 429.546,892.382 431.79,894.937 434.034,897.466 436.278,899.97 438.522,902.45 440.766,904.904 443.011,907.334 445.255,909.74 447.499,912.122 449.743,914.48 451.987,916.815 454.231,919.126 456.475,921.415 458.719,923.68 460.963,925.923 463.208,928.144 465.452,930.342 467.696,932.519 469.94,934.674 472.184,936.807 474.428,938.919 476.672,941.01 478.916,943.081 481.161,945.13 483.405,947.159 485.649,949.168 487.893,951.158 490.137,953.127 492.381,955.076 494.625,957.007 496.869,958.918 499.113,960.81 501.358,962.683 503.602,964.537 505.846,966.373 508.09,968.191 510.334,969.991 512.578,971.773 514.822,973.537 517.066,975.283 519.311,977.013 521.555,978.725 523.799,980.42 526.043,982.098 528.287,983.759 530.531,985.404 532.775,987.033 535.019,988.645 537.264,990.241 539.508,991.821 541.752,993.386 543.996,994.935 546.24,996.468 548.484,997.987 550.728,999.49 552.972,1000.98 555.216,1002.45 557.461,1003.91 559.705,1005.35 561.949,1006.78 564.193,1008.2 566.437,1009.6 568.681,1010.99 570.925,1012.36 573.169,1013.72 575.414,1015.07 577.658,1016.4 579.902,1017.72 582.146,1019.02 584.39,1020.32 586.634,1021.6 588.878,1022.87 591.122,1024.12 593.367,1025.36 595.611,1026.59 597.855,1027.81 600.099,1029.02 602.343,1030.21 604.587,1031.39 606.831,1032.56 609.075,1033.72 611.319,1034.87 613.564,1036 615.808,1037.13 618.052,1038.24 620.296,1039.34 622.54,1040.43 624.784,1041.51 627.028,1042.58 629.272,1043.64 631.517,1044.69 633.761,1045.73 636.005,1046.76 638.249,1047.77 640.493,1048.78 642.737,1049.78 644.981,1050.76 647.225,1051.74 649.469,1052.71 651.714,1053.67 653.958,1054.62 656.202,1055.56 658.446,1056.49 660.69,1057.41 662.934,1058.32 665.178,1059.22 667.422,1060.11 669.667,1061 671.911,1061.87 674.155,1062.74 676.399,1063.6 678.643,1064.45 680.887,1065.29 683.131,1066.12 685.375,1066.95 687.62,1067.76 689.864,1068.57 692.108,1069.37 694.352,1070.16 696.596,1070.95 698.84,1071.72 701.084,1072.49 703.328,1073.25 705.572,1074.01 707.817,1074.75 710.061,1075.49 712.305,1076.22 714.549,1076.94 716.793,1077.66 719.037,1078.37 721.281,1079.07 723.525,1079.77 725.77,1080.46 728.014,1081.14 730.258,1081.81 732.502,1082.48 734.746,1083.14 736.99,1083.79 739.234,1084.44 741.478,1085.08 743.722,1085.72 745.967,1086.35 748.211,1086.97 750.455,1087.59 752.699,1088.2 754.943,1088.8 757.187,1089.4 759.431,1089.99 761.675,1090.58 763.92,1091.16 766.164,1091.73 768.408,1092.3 770.652,1092.87 772.896,1093.42 775.14,1093.98 777.384,1094.52 779.628,1095.07 781.873,1095.6 784.117,1096.13 786.361,1096.66 788.605,1097.18 790.849,1097.69 793.093,1098.2 795.337,1098.71 797.581,1099.21 799.825,1099.7 802.07,1100.19 804.314,1100.68 806.558,1101.16 808.802,1101.63 811.046,1102.11 813.29,1102.57 815.534,1103.03 817.778,1103.49 820.023,1103.94 822.267,1104.39 824.511,1104.83 826.755,1105.27 828.999,1105.71 831.243,1106.14 833.487,1106.56 835.731,1106.99 837.975,1107.4 840.22,1107.82 842.464,1108.23 844.708,1108.63 846.952,1109.03 849.196,1109.43 851.44,1109.82 853.684,1110.21 855.928,1110.6 858.173,1110.98 860.417,1111.35 862.661,1111.73 864.905,1112.1 867.149,1112.46 869.393,1112.83 871.637,1113.19 873.881,1113.54 876.126,1113.89 878.37,1114.24 880.614,1114.59 882.858,1114.93 885.102,1115.27 887.346,1115.6 889.59,1115.93 891.834,1116.26 894.078,1116.58 896.323,1116.91 898.567,1117.22 900.811,1117.54 903.055,1117.85 905.299,1118.16 907.543,1118.47 909.787,1118.77 912.031,1119.07 914.276,1119.37 916.52,1119.66 918.764,1119.95 921.008,1120.24 923.252,1120.52 925.496,1120.81 927.74,1121.09 929.984,1121.36 932.228,1121.64 934.473,1121.91 936.717,1122.18 938.961,1122.44 941.205,1122.71 943.449,1122.97 945.693,1123.22 947.937,1123.48 950.181,1123.73 952.426,1123.98 954.67,1124.23 956.914,1124.48 959.158,1124.72 961.402,1124.96 963.646,1125.2 965.89,1125.44 968.134,1125.67 970.379,1125.9 972.623,1126.13 974.867,1126.36 977.111,1126.58 979.355,1126.8 981.599,1127.02 983.843,1127.24 986.087,1127.46 988.331,1127.67 990.576,1127.88 992.82,1128.09 995.064,1128.3 997.308,1128.51 999.552,1128.71 1001.8,1128.91 1004.04,1129.11 1006.28,1129.31 1008.53,1129.5 1010.77,1129.69 1013.02,1129.89 1015.26,1130.07 1017.51,1130.26 1019.75,1130.45 1021.99,1130.63 1024.24,1130.81 1026.48,1130.99 1028.73,1131.17 1030.97,1131.35 1033.21,1131.52 1035.46,1131.7 1037.7,1131.87 1039.95,1132.04 1042.19,1132.2 1044.43,1132.37 1046.68,1132.53 1048.92,1132.7 1051.17,1132.86 1053.41,1133.02 1055.66,1133.18 1057.9,1133.33 1060.14,1133.49 1062.39,1133.64 1064.63,1133.79 1066.88,1133.94 1069.12,1134.09 1071.36,1134.24 1073.61,1134.38 1075.85,1134.53 1078.1,1134.67 1080.34,1134.81 1082.58,1134.95 1084.83,1135.09 1087.07,1135.23 1089.32,1135.36 1091.56,1135.5 1093.81,1135.63 1096.05,1135.76 1098.29,1135.89 1100.54,1136.02 1102.78,1136.15 1105.03,1136.28 1107.27,1136.4 1109.51,1136.53 1111.76,1136.65 1114,1136.77 1116.25,1136.89 1118.49,1137.01 1120.73,1137.13 1122.98,1137.25 1125.22,1137.36 1127.47,1137.48 1129.71,1137.59 1131.96,1137.7 1134.2,1137.81 1136.44,1137.92 1138.69,1138.03 1140.93,1138.14 1143.18,1138.25 1145.42,1138.35 1147.66,1138.46 1149.91,1138.56 1152.15,1138.67 1154.4,1138.77 1156.64,1138.87 1158.88,1138.97 1161.13,1139.07 1163.37,1139.17 1165.62,1139.26 1167.86,1139.36 1170.11,1139.45 1172.35,1139.55 1174.59,1139.64 1176.84,1139.73 1179.08,1139.82 1181.33,1139.92 1183.57,1140 1185.81,1140.09 1188.06,1140.18 1190.3,1140.27 1192.55,1140.35 1194.79,1140.44 1197.03,1140.52 1199.28,1140.61 1201.52,1140.69 1203.77,1140.77 1206.01,1140.85 1208.26,1140.93 1210.5,1141.01 1212.74,1141.09 1214.99,1141.17 1217.23,1141.25 1219.48,1141.32 1221.72,1141.4 1223.96,1141.47 1226.21,1141.55 1228.45,1141.62 1230.7,1141.69 1232.94,1141.76 1235.18,1141.83 1237.43,1141.9 1239.67,1141.97 1241.92,1142.04 1244.16,1142.11 1246.41,1142.18 1248.65,1142.24 1250.89,1142.31 1253.14,1142.38 1255.38,1142.44 1257.63,1142.51 1259.87,1142.57 1262.11,1142.63 1264.36,1142.69 1266.6,1142.76 1268.85,1142.82 1271.09,1142.88 1273.33,1142.94 1275.58,1143 1277.82,1143.05 1280.07,1143.11 1282.31,1143.17 1284.56,1143.23 1286.8,1143.28 1289.04,1143.34 1291.29,1143.39 1293.53,1143.45 1295.78,1143.5 1298.02,1143.55 1300.26,1143.61 1302.51,1143.66 1304.75,1143.71 1307,1143.76 1309.24,1143.81 1311.48,1143.86 1313.73,1143.91 1315.97,1143.96 1318.22,1144.01 1320.46,1144.06 1322.71,1144.11 1324.95,1144.16 1327.19,1144.2 1329.44,1144.25 1331.68,1144.29 1333.93,1144.34 1336.17,1144.39 1338.41,1144.43 1340.66,1144.47 1342.9,1144.52 1345.15,1144.56 1347.39,1144.6 1349.63,1144.65 1351.88,1144.69 1354.12,1144.73 1356.37,1144.77 1358.61,1144.81 1360.86,1144.85 1363.1,1144.89 1365.34,1144.93 1367.59,1144.97 1369.83,1145.01 1372.08,1145.05 1374.32,1145.09 1376.56,1145.13 1378.81,1145.16 1381.05,1145.2 1383.3,1145.24 1385.54,1145.27 1387.78,1145.31 1390.03,1145.35 1392.27,1145.38 1394.52,1145.42 1396.76,1145.45 1399.01,1145.49 1401.25,1145.52 1403.49,1145.55 1405.74,1145.59 1407.98,1145.62 1410.23,1145.65 1412.47,1145.69 1414.71,1145.72 1416.96,1145.75 1419.2,1145.78 1421.45,1145.81 1423.69,1145.84 1425.93,1145.87 1428.18,1145.9 1430.42,1145.93 1432.67,1145.96 1434.91,1145.99 1437.16,1146.02 1439.4,1146.05 1441.64,1146.08 1443.89,1146.11 1446.13,1146.13 1448.38,1146.16 1450.62,1146.19 1452.86,1146.22 1455.11,1146.24 1457.35,1146.27 1459.6,1146.29 1461.84,1146.32 1464.08,1146.35 1466.33,1146.37 1468.57,1146.4 1470.82,1146.42 1473.06,1146.45 1475.31,1146.47 1477.55,1146.49 1479.79,1146.52 1482.04,1146.54 1484.28,1146.57 1486.53,1146.59 1488.77,1146.61 1491.01,1146.63 1493.26,1146.66 1495.5,1146.68 1497.75,1146.7 1499.99,1146.72 1502.23,1146.74 1504.48,1146.76 1506.72,1146.79 1508.97,1146.81 1511.21,1146.83 1513.46,1146.85 1515.7,1146.87 1517.94,1146.89 1520.19,1146.91 1522.43,1146.93 1524.68,1146.95 1526.92,1146.97 1529.16,1146.98 1531.41,1147 1533.65,1147.02 1535.9,1147.04 1538.14,1147.06 1540.38,1147.08 1542.63,1147.09 1544.87,1147.11 1547.12,1147.13 1549.36,1147.15 1551.61,1147.16 1553.85,1147.18 1556.09,1147.2 1558.34,1147.21 1560.58,1147.23 1562.83,1147.25 1565.07,1147.26 1567.31,1147.28 1569.56,1147.3 1571.8,1147.31 1574.05,1147.33 1576.29,1147.34 1578.53,1147.36 1580.78,1147.37 1583.02,1147.39 1585.27,1147.4 1587.51,1147.42 1589.76,1147.43 1592,1147.44 1594.24,1147.46 1596.49,1147.47 1598.73,1147.49 1600.98,1147.5 1603.22,1147.51 1605.46,1147.53 1607.71,1147.54 1609.95,1147.55 1612.2,1147.57 1614.44,1147.58 1616.68,1147.59 1618.93,1147.61 1621.17,1147.62 1623.42,1147.63 1625.66,1147.64 1627.91,1147.66 1630.15,1147.67 1632.39,1147.68 1634.64,1147.69 1636.88,1147.71 1639.13,1147.72 1641.37,1147.73 1643.61,1147.74 1645.86,1147.75 1648.1,1147.76 1650.35,1147.77 1652.59,1147.79 1654.83,1147.8 1657.08,1147.81 1659.32,1147.82 1661.57,1147.83 1663.81,1147.84 1666.06,1147.85 1668.3,1147.86 1670.54,1147.87 1672.79,1147.88 1675.03,1147.89 1677.28,1147.9 1679.52,1147.91 1681.76,1147.92 1684.01,1147.93 1686.25,1147.94 1688.5,1147.95 1690.74,1147.96 1692.98,1147.97 1695.23,1147.98 1697.47,1147.99 1699.72,1148 1701.96,1148.01 1704.21,1148.01 1706.45,1148.02 1708.69,1148.03 1710.94,1148.04 1713.18,1148.05 1715.43,1148.06 1717.67,1148.07 1719.91,1148.07 1722.16,1148.08 1724.4,1148.09 1726.65,1148.1 1728.89,1148.11 1731.13,1148.11 1733.38,1148.12 1735.62,1148.13 1737.87,1148.14 1740.11,1148.14 1742.36,1148.15 1744.6,1148.16 1746.84,1148.17 1749.09,1148.17 1751.33,1148.18 1753.58,1148.19 1755.82,1148.2 1758.06,1148.2 1760.31,1148.21 1762.55,1148.22 1764.8,1148.22 1767.04,1148.23 1769.28,1148.24 1771.53,1148.24 1773.77,1148.25 1776.02,1148.25 1778.26,1148.26 1780.51,1148.27 1782.75,1148.27 1784.99,1148.28 1787.24,1148.29 1789.48,1148.29 1791.73,1148.3 1793.97,1148.3 1796.21,1148.31 1798.46,1148.31 1800.7,1148.32 1802.95,1148.33 1805.19,1148.33 1807.43,1148.34 1809.68,1148.34 1811.92,1148.35 1814.17,1148.35 1816.41,1148.36 1818.66,1148.36 1820.9,1148.37 1823.14,1148.37 1825.39,1148.38 1827.63,1148.38 1829.88,1148.39 1832.12,1148.39 1834.36,1148.4 1836.61,1148.4 1838.85,1148.41 1841.1,1148.41 1843.34,1148.42 1845.58,1148.42 1847.83,1148.42 1850.07,1148.43 1852.32,1148.43 1854.56,1148.44 1856.81,1148.44 1859.05,1148.45 1861.29,1148.45 1863.54,1148.45 1865.78,1148.46 1868.03,1148.46 1870.27,1148.47 1872.51,1148.47 1874.76,1148.48 1877,1148.48 1879.25,1148.48 1881.49,1148.49 1883.74,1148.49 1885.98,1148.49 1888.22,1148.5 1890.47,1148.5 1892.71,1148.51 1894.96,1148.51 1897.2,1148.51 1899.44,1148.52 1901.69,1148.52 1903.93,1148.52 1906.18,1148.53 1908.42,1148.53 1910.66,1148.53 1912.91,1148.54 1915.15,1148.54 1917.4,1148.54 1919.64,1148.55 1921.89,1148.55 1924.13,1148.55 1926.37,1148.56 1928.62,1148.56 1930.86,1148.56 1933.11,1148.57 1935.35,1148.57 1937.59,1148.57 1939.84,1148.58 1942.08,1148.58 1944.33,1148.58 1946.57,1148.59 1948.81,1148.59 1951.06,1148.59 1953.3,1148.6 1955.55,1148.6 1957.79,1148.6 1960.04,1148.6 1962.28,1148.61 1964.52,1148.61 1966.77,1148.61 1969.01,1148.62 1971.26,1148.62 1973.5,1148.62 1975.74,1148.62 1977.99,1148.63 1980.23,1148.63 1982.48,1148.63 1984.72,1148.63 1986.96,1148.64 1989.21,1148.64 1991.45,1148.64 1993.7,1148.64 1995.94,1148.65 1998.19,1148.65 2000.43,1148.65 2002.67,1148.65 2004.92,1148.66 2007.16,1148.66 2009.41,1148.66 2011.65,1148.66 2013.89,1148.67 2016.14,1148.67 2018.38,1148.67 2020.63,1148.67 2022.87,1148.67 2025.11,1148.68 2027.36,1148.68 2029.6,1148.68 2031.85,1148.68 2034.09,1148.69 2036.34,1148.69 2038.58,1148.69 2040.82,1148.69 2043.07,1148.69 2045.31,1148.7 2047.56,1148.7 2049.8,1148.7 2052.04,1148.7 2054.29,1148.7 2056.53,1148.7 2058.78,1148.71 2061.02,1148.71 2063.26,1148.71 2065.51,1148.71 2067.75,1148.71 2070,1148.72 2072.24,1148.72 2074.49,1148.72 2076.73,1148.72 2078.97,1148.72 2081.22,1148.72 2083.46,1148.73 2085.71,1148.73 2087.95,1148.73 2090.19,1148.73 2092.44,1148.73 2094.68,1148.73 2096.93,1148.74 2099.17,1148.74 2101.41,1148.74 2103.66,1148.74 2105.9,1148.74 2108.15,1148.74 2110.39,1148.74 2112.64,1148.75 2114.88,1148.75 2117.12,1148.75 2119.37,1148.75 2121.61,1148.75 2123.86,1148.75 2126.1,1148.75 2128.34,1148.75 2130.59,1148.76 2132.83,1148.76 2135.08,1148.76 2137.32,1148.76 2139.56,1148.76 2141.81,1148.76 2144.05,1148.76 2146.3,1148.76 2148.54,1148.77 2150.79,1148.77 2153.03,1148.77 2155.27,1148.77 2157.52,1148.77 2159.76,1148.77 2162.01,1148.77 2164.25,1148.77 2166.49,1148.77 2168.74,1148.78 2170.98,1148.78 2173.23,1148.78 2175.47,1148.78 2177.71,1148.78 2179.96,1148.78 2182.2,1148.78 2184.45,1148.78 2186.69,1148.78 2188.94,1148.78 2191.18,1148.78 2193.42,1148.79 2195.67,1148.79 2197.91,1148.79 2200.16,1148.79 2202.4,1148.79 2204.64,1148.79 2206.89,1148.79 2209.13,1148.79 2211.38,1148.79 2213.62,1148.79 2215.86,1148.79 2218.11,1148.79 2220.35,1148.8 2222.6,1148.8 2224.84,1148.8 2227.09,1148.8 2229.33,1148.8 2231.57,1148.8 2233.82,1148.8 2236.06,1148.8 2238.31,1148.8 2240.55,1148.8 2242.79,1148.8 2245.04,1148.8 2247.28,1148.8 2249.53,1148.81 2251.77,1148.81 2254.01,1148.81 2256.26,1148.81 2258.5,1148.81 2260.75,1148.81 2262.99,1148.81 2265.24,1148.81 2267.48,1148.81 2269.72,1148.81 2271.97,1148.81 2274.21,1148.81 2276.46,1148.81 2278.7,1148.81 2280.94,1148.81 2283.19,1148.82 2285.43,1148.82 2287.68,1148.82 2289.92,1148.82 2292.16,1148.82 2294.41,1148.82 2296.65,1148.82 2298.9,1148.82 2301.14,1148.82 2303.39,1148.82 2305.63,1148.82 2307.87,1148.82 2310.12,1148.82 2312.36,1148.82 2314.61,1148.82 2316.85,1148.82 2319.09,1148.83 2321.34,1148.83 2323.58,1148.83 2325.83,1148.83 2328.07,1148.83 2330.31,1148.83 2332.56,1148.83 2334.8,1148.83 2337.05,1148.83 2339.29,1148.83 2341.54,1148.83 2343.78,1148.83 2346.02,1148.83 2348.27,1148.83 2350.51,1148.83 2352.76,1148.83 "/>
<polyline clip-path="url(#clip142)" style="stroke:#e26f46; stroke-linecap:round; stroke-linejoin:round; stroke-width:4; stroke-opacity:1; fill:none" points="110.881,1384.24 113.125,1381.51 115.369,1378.81 117.613,1376.15 119.857,1373.51 122.101,1370.9 124.346,1368.31 126.59,1365.76 128.834,1363.23 131.078,1360.73 133.322,1358.26 135.566,1355.82 137.81,1353.4 140.054,1351 142.299,1348.64 144.543,1346.3 146.787,1343.98 149.031,1341.69 151.275,1339.42 153.519,1337.18 155.763,1334.97 158.007,1332.77 160.252,1330.61 162.496,1328.46 164.74,1326.34 166.984,1324.24 169.228,1322.17 171.472,1320.11 173.716,1318.08 175.96,1316.07 178.204,1314.09 180.449,1312.12 182.693,1310.18 184.937,1308.26 187.181,1306.36 189.425,1304.48 191.669,1302.62 193.913,1300.78 196.157,1298.96 198.402,1297.16 200.646,1295.38 202.89,1293.62 205.134,1291.88 207.378,1290.16 209.622,1288.46 211.866,1286.77 214.11,1285.11 216.354,1283.46 218.599,1281.83 220.843,1280.22 223.087,1278.63 225.331,1277.05 227.575,1275.49 229.819,1273.95 232.063,1272.43 234.307,1270.92 236.552,1269.43 238.796,1267.96 241.04,1266.5 243.284,1265.06 245.528,1263.63 247.772,1262.22 250.016,1260.83 252.26,1259.45 254.505,1258.09 256.749,1256.74 258.993,1255.41 261.237,1254.09 263.481,1252.79 265.725,1251.5 267.969,1250.22 270.213,1248.96 272.457,1247.71 274.702,1246.48 276.946,1245.26 279.19,1244.06 281.434,1242.87 283.678,1241.69 285.922,1240.52 288.166,1239.37 290.41,1238.23 292.655,1237.11 294.899,1235.99 297.143,1234.89 299.387,1233.8 301.631,1232.73 303.875,1231.66 306.119,1230.61 308.363,1229.57 310.607,1228.54 312.852,1227.52 315.096,1226.51 317.34,1225.52 319.584,1224.54 321.828,1223.56 324.072,1222.6 326.316,1221.65 328.56,1220.71 330.805,1219.78 333.049,1218.87 335.293,1217.96 337.537,1217.06 339.781,1216.17 342.025,1215.3 344.269,1214.43 346.513,1213.57 348.758,1212.72 351.002,1211.88 353.246,1211.06 355.49,1210.24 357.734,1209.43 359.978,1208.63 362.222,1207.83 364.466,1207.05 366.71,1206.28 368.955,1205.51 371.199,1204.76 373.443,1204.01 375.687,1203.27 377.931,1202.54 380.175,1201.82 382.419,1201.11 384.663,1200.4 386.908,1199.71 389.152,1199.02 391.396,1198.34 393.64,1197.66 395.884,1197 398.128,1196.34 400.372,1195.69 402.616,1195.05 404.86,1194.41 407.105,1193.79 409.349,1193.17 411.593,1192.55 413.837,1191.95 416.081,1191.35 418.325,1190.76 420.569,1190.17 422.813,1189.59 425.058,1189.02 427.302,1188.46 429.546,1187.9 431.79,1187.35 434.034,1186.8 436.278,1186.26 438.522,1185.73 440.766,1185.2 443.011,1184.68 445.255,1184.17 447.499,1183.66 449.743,1183.16 451.987,1182.67 454.231,1182.18 456.475,1181.69 458.719,1181.21 460.963,1180.74 463.208,1180.27 465.452,1179.81 467.696,1179.36 469.94,1178.91 472.184,1178.46 474.428,1178.02 476.672,1177.59 478.916,1177.16 481.161,1176.73 483.405,1176.31 485.649,1175.9 487.893,1175.49 490.137,1175.08 492.381,1174.68 494.625,1174.29 496.869,1173.9 499.113,1173.52 501.358,1173.13 503.602,1172.76 505.846,1172.39 508.09,1172.02 510.334,1171.66 512.578,1171.3 514.822,1170.95 517.066,1170.6 519.311,1170.25 521.555,1169.91 523.799,1169.57 526.043,1169.24 528.287,1168.91 530.531,1168.59 532.775,1168.27 535.019,1167.95 537.264,1167.64 539.508,1167.33 541.752,1167.02 543.996,1166.72 546.24,1166.42 548.484,1166.13 550.728,1165.84 552.972,1165.55 555.216,1165.27 557.461,1164.99 559.705,1164.71 561.949,1164.44 564.193,1164.17 566.437,1163.91 568.681,1163.64 570.925,1163.38 573.169,1163.13 575.414,1162.87 577.658,1162.63 579.902,1162.38 582.146,1162.14 584.39,1161.9 586.634,1161.66 588.878,1161.42 591.122,1161.19 593.367,1160.96 595.611,1160.74 597.855,1160.52 600.099,1160.3 602.343,1160.08 604.587,1159.87 606.831,1159.65 609.075,1159.45 611.319,1159.24 613.564,1159.04 615.808,1158.84 618.052,1158.64 620.296,1158.44 622.54,1158.25 624.784,1158.06 627.028,1157.87 629.272,1157.69 631.517,1157.5 633.761,1157.32 636.005,1157.14 638.249,1156.97 640.493,1156.79 642.737,1156.62 644.981,1156.45 647.225,1156.29 649.469,1156.12 651.714,1155.96 653.958,1155.8 656.202,1155.64 658.446,1155.48 660.69,1155.33 662.934,1155.18 665.178,1155.03 667.422,1154.88 669.667,1154.73 671.911,1154.59 674.155,1154.45 676.399,1154.31 678.643,1154.17 680.887,1154.03 683.131,1153.9 685.375,1153.76 687.62,1153.63 689.864,1153.5 692.108,1153.38 694.352,1153.25 696.596,1153.13 698.84,1153.01 701.084,1152.89 703.328,1152.77 705.572,1152.65 707.817,1152.53 710.061,1152.42 712.305,1152.31 714.549,1152.2 716.793,1152.09 719.037,1151.98 721.281,1151.88 723.525,1151.77 725.77,1151.67 728.014,1151.57 730.258,1151.47 732.502,1151.37 734.746,1151.27 736.99,1151.18 739.234,1151.08 741.478,1150.99 743.722,1150.9 745.967,1150.81 748.211,1150.72 750.455,1150.63 752.699,1150.54 754.943,1150.46 757.187,1150.38 759.431,1150.29 761.675,1150.21 763.92,1150.13 766.164,1150.05 768.408,1149.97 770.652,1149.9 772.896,1149.82 775.14,1149.75 777.384,1149.67 779.628,1149.6 781.873,1149.53 784.117,1149.46 786.361,1149.39 788.605,1149.32 790.849,1149.26 793.093,1149.19 795.337,1149.13 797.581,1149.06 799.825,1149 802.07,1148.94 804.314,1148.88 806.558,1148.82 808.802,1148.76 811.046,1148.7 813.29,1148.65 815.534,1148.59 817.778,1148.53 820.023,1148.48 822.267,1148.43 824.511,1148.37 826.755,1148.32 828.999,1148.27 831.243,1148.22 833.487,1148.17 835.731,1148.12 837.975,1148.08 840.22,1148.03 842.464,1147.98 844.708,1147.94 846.952,1147.89 849.196,1147.85 851.44,1147.81 853.684,1147.77 855.928,1147.73 858.173,1147.69 860.417,1147.65 862.661,1147.61 864.905,1147.57 867.149,1147.53 869.393,1147.49 871.637,1147.46 873.881,1147.42 876.126,1147.39 878.37,1147.35 880.614,1147.32 882.858,1147.28 885.102,1147.25 887.346,1147.22 889.59,1147.19 891.834,1147.16 894.078,1147.13 896.323,1147.1 898.567,1147.07 900.811,1147.04 903.055,1147.01 905.299,1146.99 907.543,1146.96 909.787,1146.93 912.031,1146.91 914.276,1146.88 916.52,1146.86 918.764,1146.84 921.008,1146.81 923.252,1146.79 925.496,1146.77 927.74,1146.74 929.984,1146.72 932.228,1146.7 934.473,1146.68 936.717,1146.66 938.961,1146.64 941.205,1146.62 943.449,1146.6 945.693,1146.58 947.937,1146.57 950.181,1146.55 952.426,1146.53 954.67,1146.51 956.914,1146.5 959.158,1146.48 961.402,1146.47 963.646,1146.45 965.89,1146.44 968.134,1146.42 970.379,1146.41 972.623,1146.39 974.867,1146.38 977.111,1146.37 979.355,1146.35 981.599,1146.34 983.843,1146.33 986.087,1146.32 988.331,1146.31 990.576,1146.3 992.82,1146.29 995.064,1146.28 997.308,1146.27 999.552,1146.26 1001.8,1146.25 1004.04,1146.24 1006.28,1146.23 1008.53,1146.22 1010.77,1146.21 1013.02,1146.2 1015.26,1146.2 1017.51,1146.19 1019.75,1146.18 1021.99,1146.18 1024.24,1146.17 1026.48,1146.16 1028.73,1146.16 1030.97,1146.15 1033.21,1146.15 1035.46,1146.14 1037.7,1146.14 1039.95,1146.13 1042.19,1146.13 1044.43,1146.12 1046.68,1146.12 1048.92,1146.12 1051.17,1146.11 1053.41,1146.11 1055.66,1146.11 1057.9,1146.1 1060.14,1146.1 1062.39,1146.1 1064.63,1146.1 1066.88,1146.09 1069.12,1146.09 1071.36,1146.09 1073.61,1146.09 1075.85,1146.09 1078.1,1146.09 1080.34,1146.09 1082.58,1146.09 1084.83,1146.09 1087.07,1146.09 1089.32,1146.09 1091.56,1146.09 1093.81,1146.09 1096.05,1146.09 1098.29,1146.09 1100.54,1146.09 1102.78,1146.09 1105.03,1146.09 1107.27,1146.09 1109.51,1146.09 1111.76,1146.09 1114,1146.09 1116.25,1146.1 1118.49,1146.1 1120.73,1146.1 1122.98,1146.1 1125.22,1146.1 1127.47,1146.11 1129.71,1146.11 1131.96,1146.11 1134.2,1146.11 1136.44,1146.12 1138.69,1146.12 1140.93,1146.12 1143.18,1146.13 1145.42,1146.13 1147.66,1146.13 1149.91,1146.14 1152.15,1146.14 1154.4,1146.14 1156.64,1146.15 1158.88,1146.15 1161.13,1146.16 1163.37,1146.16 1165.62,1146.16 1167.86,1146.17 1170.11,1146.17 1172.35,1146.18 1174.59,1146.18 1176.84,1146.19 1179.08,1146.19 1181.33,1146.2 1183.57,1146.2 1185.81,1146.21 1188.06,1146.21 1190.3,1146.22 1192.55,1146.22 1194.79,1146.23 1197.03,1146.23 1199.28,1146.24 1201.52,1146.24 1203.77,1146.25 1206.01,1146.25 1208.26,1146.26 1210.5,1146.27 1212.74,1146.27 1214.99,1146.28 1217.23,1146.28 1219.48,1146.29 1221.72,1146.3 1223.96,1146.3 1226.21,1146.31 1228.45,1146.32 1230.7,1146.32 1232.94,1146.33 1235.18,1146.33 1237.43,1146.34 1239.67,1146.35 1241.92,1146.35 1244.16,1146.36 1246.41,1146.37 1248.65,1146.37 1250.89,1146.38 1253.14,1146.39 1255.38,1146.39 1257.63,1146.4 1259.87,1146.41 1262.11,1146.42 1264.36,1146.42 1266.6,1146.43 1268.85,1146.44 1271.09,1146.44 1273.33,1146.45 1275.58,1146.46 1277.82,1146.47 1280.07,1146.47 1282.31,1146.48 1284.56,1146.49 1286.8,1146.5 1289.04,1146.5 1291.29,1146.51 1293.53,1146.52 1295.78,1146.53 1298.02,1146.53 1300.26,1146.54 1302.51,1146.55 1304.75,1146.56 1307,1146.56 1309.24,1146.57 1311.48,1146.58 1313.73,1146.59 1315.97,1146.59 1318.22,1146.6 1320.46,1146.61 1322.71,1146.62 1324.95,1146.62 1327.19,1146.63 1329.44,1146.64 1331.68,1146.65 1333.93,1146.66 1336.17,1146.66 1338.41,1146.67 1340.66,1146.68 1342.9,1146.69 1345.15,1146.69 1347.39,1146.7 1349.63,1146.71 1351.88,1146.72 1354.12,1146.73 1356.37,1146.73 1358.61,1146.74 1360.86,1146.75 1363.1,1146.76 1365.34,1146.76 1367.59,1146.77 1369.83,1146.78 1372.08,1146.79 1374.32,1146.8 1376.56,1146.8 1378.81,1146.81 1381.05,1146.82 1383.3,1146.83 1385.54,1146.83 1387.78,1146.84 1390.03,1146.85 1392.27,1146.86 1394.52,1146.87 1396.76,1146.87 1399.01,1146.88 1401.25,1146.89 1403.49,1146.9 1405.74,1146.9 1407.98,1146.91 1410.23,1146.92 1412.47,1146.93 1414.71,1146.93 1416.96,1146.94 1419.2,1146.95 1421.45,1146.96 1423.69,1146.97 1425.93,1146.97 1428.18,1146.98 1430.42,1146.99 1432.67,1147 1434.91,1147 1437.16,1147.01 1439.4,1147.02 1441.64,1147.03 1443.89,1147.03 1446.13,1147.04 1448.38,1147.05 1450.62,1147.06 1452.86,1147.06 1455.11,1147.07 1457.35,1147.08 1459.6,1147.09 1461.84,1147.09 1464.08,1147.1 1466.33,1147.11 1468.57,1147.12 1470.82,1147.12 1473.06,1147.13 1475.31,1147.14 1477.55,1147.15 1479.79,1147.15 1482.04,1147.16 1484.28,1147.17 1486.53,1147.18 1488.77,1147.18 1491.01,1147.19 1493.26,1147.2 1495.5,1147.21 1497.75,1147.21 1499.99,1147.22 1502.23,1147.23 1504.48,1147.24 1506.72,1147.24 1508.97,1147.25 1511.21,1147.26 1513.46,1147.26 1515.7,1147.27 1517.94,1147.28 1520.19,1147.29 1522.43,1147.29 1524.68,1147.3 1526.92,1147.31 1529.16,1147.31 1531.41,1147.32 1533.65,1147.33 1535.9,1147.34 1538.14,1147.34 1540.38,1147.35 1542.63,1147.36 1544.87,1147.36 1547.12,1147.37 1549.36,1147.38 1551.61,1147.38 1553.85,1147.39 1556.09,1147.4 1558.34,1147.4 1560.58,1147.41 1562.83,1147.42 1565.07,1147.43 1567.31,1147.43 1569.56,1147.44 1571.8,1147.45 1574.05,1147.45 1576.29,1147.46 1578.53,1147.47 1580.78,1147.47 1583.02,1147.48 1585.27,1147.49 1587.51,1147.49 1589.76,1147.5 1592,1147.51 1594.24,1147.51 1596.49,1147.52 1598.73,1147.52 1600.98,1147.53 1603.22,1147.54 1605.46,1147.54 1607.71,1147.55 1609.95,1147.56 1612.2,1147.56 1614.44,1147.57 1616.68,1147.58 1618.93,1147.58 1621.17,1147.59 1623.42,1147.59 1625.66,1147.6 1627.91,1147.61 1630.15,1147.61 1632.39,1147.62 1634.64,1147.62 1636.88,1147.63 1639.13,1147.64 1641.37,1147.64 1643.61,1147.65 1645.86,1147.65 1648.1,1147.66 1650.35,1147.67 1652.59,1147.67 1654.83,1147.68 1657.08,1147.68 1659.32,1147.69 1661.57,1147.7 1663.81,1147.7 1666.06,1147.71 1668.3,1147.71 1670.54,1147.72 1672.79,1147.72 1675.03,1147.73 1677.28,1147.74 1679.52,1147.74 1681.76,1147.75 1684.01,1147.75 1686.25,1147.76 1688.5,1147.76 1690.74,1147.77 1692.98,1147.77 1695.23,1147.78 1697.47,1147.79 1699.72,1147.79 1701.96,1147.8 1704.21,1147.8 1706.45,1147.81 1708.69,1147.81 1710.94,1147.82 1713.18,1147.82 1715.43,1147.83 1717.67,1147.83 1719.91,1147.84 1722.16,1147.84 1724.4,1147.85 1726.65,1147.85 1728.89,1147.86 1731.13,1147.86 1733.38,1147.87 1735.62,1147.88 1737.87,1147.88 1740.11,1147.89 1742.36,1147.89 1744.6,1147.9 1746.84,1147.9 1749.09,1147.91 1751.33,1147.91 1753.58,1147.92 1755.82,1147.92 1758.06,1147.93 1760.31,1147.93 1762.55,1147.93 1764.8,1147.94 1767.04,1147.94 1769.28,1147.95 1771.53,1147.95 1773.77,1147.96 1776.02,1147.96 1778.26,1147.97 1780.51,1147.97 1782.75,1147.98 1784.99,1147.98 1787.24,1147.99 1789.48,1147.99 1791.73,1148 1793.97,1148 1796.21,1148.01 1798.46,1148.01 1800.7,1148.01 1802.95,1148.02 1805.19,1148.02 1807.43,1148.03 1809.68,1148.03 1811.92,1148.04 1814.17,1148.04 1816.41,1148.05 1818.66,1148.05 1820.9,1148.05 1823.14,1148.06 1825.39,1148.06 1827.63,1148.07 1829.88,1148.07 1832.12,1148.08 1834.36,1148.08 1836.61,1148.08 1838.85,1148.09 1841.1,1148.09 1843.34,1148.1 1845.58,1148.1 1847.83,1148.11 1850.07,1148.11 1852.32,1148.11 1854.56,1148.12 1856.81,1148.12 1859.05,1148.13 1861.29,1148.13 1863.54,1148.13 1865.78,1148.14 1868.03,1148.14 1870.27,1148.15 1872.51,1148.15 1874.76,1148.15 1877,1148.16 1879.25,1148.16 1881.49,1148.17 1883.74,1148.17 1885.98,1148.17 1888.22,1148.18 1890.47,1148.18 1892.71,1148.18 1894.96,1148.19 1897.2,1148.19 1899.44,1148.2 1901.69,1148.2 1903.93,1148.2 1906.18,1148.21 1908.42,1148.21 1910.66,1148.21 1912.91,1148.22 1915.15,1148.22 1917.4,1148.22 1919.64,1148.23 1921.89,1148.23 1924.13,1148.24 1926.37,1148.24 1928.62,1148.24 1930.86,1148.25 1933.11,1148.25 1935.35,1148.25 1937.59,1148.26 1939.84,1148.26 1942.08,1148.26 1944.33,1148.27 1946.57,1148.27 1948.81,1148.27 1951.06,1148.28 1953.3,1148.28 1955.55,1148.28 1957.79,1148.29 1960.04,1148.29 1962.28,1148.29 1964.52,1148.3 1966.77,1148.3 1969.01,1148.3 1971.26,1148.3 1973.5,1148.31 1975.74,1148.31 1977.99,1148.31 1980.23,1148.32 1982.48,1148.32 1984.72,1148.32 1986.96,1148.33 1989.21,1148.33 1991.45,1148.33 1993.7,1148.34 1995.94,1148.34 1998.19,1148.34 2000.43,1148.34 2002.67,1148.35 2004.92,1148.35 2007.16,1148.35 2009.41,1148.36 2011.65,1148.36 2013.89,1148.36 2016.14,1148.36 2018.38,1148.37 2020.63,1148.37 2022.87,1148.37 2025.11,1148.38 2027.36,1148.38 2029.6,1148.38 2031.85,1148.38 2034.09,1148.39 2036.34,1148.39 2038.58,1148.39 2040.82,1148.39 2043.07,1148.4 2045.31,1148.4 2047.56,1148.4 2049.8,1148.41 2052.04,1148.41 2054.29,1148.41 2056.53,1148.41 2058.78,1148.42 2061.02,1148.42 2063.26,1148.42 2065.51,1148.42 2067.75,1148.43 2070,1148.43 2072.24,1148.43 2074.49,1148.43 2076.73,1148.44 2078.97,1148.44 2081.22,1148.44 2083.46,1148.44 2085.71,1148.45 2087.95,1148.45 2090.19,1148.45 2092.44,1148.45 2094.68,1148.46 2096.93,1148.46 2099.17,1148.46 2101.41,1148.46 2103.66,1148.46 2105.9,1148.47 2108.15,1148.47 2110.39,1148.47 2112.64,1148.47 2114.88,1148.48 2117.12,1148.48 2119.37,1148.48 2121.61,1148.48 2123.86,1148.49 2126.1,1148.49 2128.34,1148.49 2130.59,1148.49 2132.83,1148.49 2135.08,1148.5 2137.32,1148.5 2139.56,1148.5 2141.81,1148.5 2144.05,1148.5 2146.3,1148.51 2148.54,1148.51 2150.79,1148.51 2153.03,1148.51 2155.27,1148.52 2157.52,1148.52 2159.76,1148.52 2162.01,1148.52 2164.25,1148.52 2166.49,1148.53 2168.74,1148.53 2170.98,1148.53 2173.23,1148.53 2175.47,1148.53 2177.71,1148.54 2179.96,1148.54 2182.2,1148.54 2184.45,1148.54 2186.69,1148.54 2188.94,1148.55 2191.18,1148.55 2193.42,1148.55 2195.67,1148.55 2197.91,1148.55 2200.16,1148.55 2202.4,1148.56 2204.64,1148.56 2206.89,1148.56 2209.13,1148.56 2211.38,1148.56 2213.62,1148.57 2215.86,1148.57 2218.11,1148.57 2220.35,1148.57 2222.6,1148.57 2224.84,1148.58 2227.09,1148.58 2229.33,1148.58 2231.57,1148.58 2233.82,1148.58 2236.06,1148.58 2238.31,1148.59 2240.55,1148.59 2242.79,1148.59 2245.04,1148.59 2247.28,1148.59 2249.53,1148.59 2251.77,1148.6 2254.01,1148.6 2256.26,1148.6 2258.5,1148.6 2260.75,1148.6 2262.99,1148.6 2265.24,1148.61 2267.48,1148.61 2269.72,1148.61 2271.97,1148.61 2274.21,1148.61 2276.46,1148.61 2278.7,1148.61 2280.94,1148.62 2283.19,1148.62 2285.43,1148.62 2287.68,1148.62 2289.92,1148.62 2292.16,1148.62 2294.41,1148.63 2296.65,1148.63 2298.9,1148.63 2301.14,1148.63 2303.39,1148.63 2305.63,1148.63 2307.87,1148.63 2310.12,1148.64 2312.36,1148.64 2314.61,1148.64 2316.85,1148.64 2319.09,1148.64 2321.34,1148.64 2323.58,1148.64 2325.83,1148.65 2328.07,1148.65 2330.31,1148.65 2332.56,1148.65 2334.8,1148.65 2337.05,1148.65 2339.29,1148.65 2341.54,1148.65 2343.78,1148.66 2346.02,1148.66 2348.27,1148.66 2350.51,1148.66 2352.76,1148.66 "/>
<path clip-path="url(#clip140)" d="M1794.44 248.629 L2278.03 248.629 L2278.03 93.1086 L1794.44 93.1086  Z" fill="#ffffff" fill-rule="evenodd" fill-opacity="1"/>
<polyline clip-path="url(#clip140)" style="stroke:#000000; stroke-linecap:round; stroke-linejoin:round; stroke-width:4; stroke-opacity:1; fill:none" points="1794.44,248.629 2278.03,248.629 2278.03,93.1086 1794.44,93.1086 1794.44,248.629 "/>
<polyline clip-path="url(#clip140)" style="stroke:#009af9; stroke-linecap:round; stroke-linejoin:round; stroke-width:4; stroke-opacity:1; fill:none" points="1819.35,144.949 1968.81,144.949 "/>
<path clip-path="url(#clip140)" d="M1993.72 136.303 L1998.23 136.303 L2006.34 158.062 L2014.44 136.303 L2018.95 136.303 L2009.23 162.229 L2003.44 162.229 L1993.72 136.303 Z" fill="#000000" fill-rule="nonzero" fill-opacity="1" /><path clip-path="url(#clip140)" d="M2026.24 158.293 L2033.88 158.293 L2033.88 131.928 L2025.57 133.595 L2025.57 129.335 L2033.84 127.669 L2038.51 127.669 L2038.51 158.293 L2046.15 158.293 L2046.15 162.229 L2026.24 162.229 L2026.24 158.293 Z" fill="#000000" fill-rule="nonzero" fill-opacity="1" /><path clip-path="url(#clip140)" d="M2064.25 145.585 L2064.25 152.807 L2072.38 152.807 L2072.38 155.006 L2064.25 155.006 L2064.25 162.229 L2061.82 162.229 L2061.82 155.006 L2053.7 155.006 L2053.7 152.807 L2061.82 152.807 L2061.82 145.585 L2064.25 145.585 Z" fill="#000000" fill-rule="nonzero" fill-opacity="1" /><path clip-path="url(#clip140)" d="M2096.54 137.067 L2096.54 141.094 Q2094.74 140.169 2092.79 139.706 Q2090.85 139.243 2088.77 139.243 Q2085.59 139.243 2084 140.215 Q2082.42 141.187 2082.42 143.131 Q2082.42 144.613 2083.56 145.469 Q2084.69 146.303 2088.12 147.067 L2089.58 147.391 Q2094.11 148.363 2096.01 150.145 Q2097.93 151.905 2097.93 155.076 Q2097.93 158.687 2095.06 160.793 Q2092.22 162.9 2087.22 162.9 Q2085.13 162.9 2082.86 162.483 Q2080.62 162.09 2078.12 161.28 L2078.12 156.881 Q2080.48 158.108 2082.77 158.733 Q2085.06 159.335 2087.31 159.335 Q2090.32 159.335 2091.94 158.317 Q2093.56 157.275 2093.56 155.4 Q2093.56 153.664 2092.38 152.738 Q2091.22 151.812 2087.26 150.956 L2085.78 150.608 Q2081.82 149.775 2080.06 148.062 Q2078.3 146.326 2078.3 143.317 Q2078.3 139.659 2080.9 137.669 Q2083.49 135.678 2088.26 135.678 Q2090.62 135.678 2092.7 136.025 Q2094.78 136.372 2096.54 137.067 Z" fill="#000000" fill-rule="nonzero" fill-opacity="1" /><path clip-path="url(#clip140)" d="M2108.93 128.942 L2108.93 136.303 L2117.7 136.303 L2117.7 139.613 L2108.93 139.613 L2108.93 153.687 Q2108.93 156.858 2109.78 157.761 Q2110.66 158.664 2113.33 158.664 L2117.7 158.664 L2117.7 162.229 L2113.33 162.229 Q2108.4 162.229 2106.52 160.4 Q2104.65 158.548 2104.65 153.687 L2104.65 139.613 L2101.52 139.613 L2101.52 136.303 L2104.65 136.303 L2104.65 128.942 L2108.93 128.942 Z" fill="#000000" fill-rule="nonzero" fill-opacity="1" /><path clip-path="url(#clip140)" d="M2133.35 139.289 Q2129.92 139.289 2127.93 141.974 Q2125.94 144.636 2125.94 149.289 Q2125.94 153.942 2127.91 156.627 Q2129.9 159.289 2133.35 159.289 Q2136.75 159.289 2138.74 156.604 Q2140.73 153.918 2140.73 149.289 Q2140.73 144.682 2138.74 141.997 Q2136.75 139.289 2133.35 139.289 M2133.35 135.678 Q2138.9 135.678 2142.08 139.289 Q2145.25 142.9 2145.25 149.289 Q2145.25 155.655 2142.08 159.289 Q2138.9 162.9 2133.35 162.9 Q2127.77 162.9 2124.6 159.289 Q2121.45 155.655 2121.45 149.289 Q2121.45 142.9 2124.6 139.289 Q2127.77 135.678 2133.35 135.678 Z" fill="#000000" fill-rule="nonzero" fill-opacity="1" /><path clip-path="url(#clip140)" d="M2167.33 140.284 Q2166.61 139.868 2165.76 139.682 Q2164.92 139.474 2163.9 139.474 Q2160.29 139.474 2158.35 141.835 Q2156.43 144.173 2156.43 148.571 L2156.43 162.229 L2152.15 162.229 L2152.15 136.303 L2156.43 136.303 L2156.43 140.331 Q2157.77 137.969 2159.92 136.835 Q2162.08 135.678 2165.15 135.678 Q2165.59 135.678 2166.13 135.747 Q2166.66 135.794 2167.31 135.909 L2167.33 140.284 Z" fill="#000000" fill-rule="nonzero" fill-opacity="1" /><path clip-path="url(#clip140)" d="M2183.58 149.196 Q2178.42 149.196 2176.43 150.377 Q2174.44 151.557 2174.44 154.405 Q2174.44 156.673 2175.92 158.016 Q2177.42 159.335 2179.99 159.335 Q2183.53 159.335 2185.66 156.835 Q2187.82 154.312 2187.82 150.145 L2187.82 149.196 L2183.58 149.196 M2192.08 147.437 L2192.08 162.229 L2187.82 162.229 L2187.82 158.293 Q2186.36 160.655 2184.18 161.789 Q2182.01 162.9 2178.86 162.9 Q2174.88 162.9 2172.52 160.678 Q2170.18 158.432 2170.18 154.682 Q2170.18 150.307 2173.09 148.085 Q2176.03 145.863 2181.84 145.863 L2187.82 145.863 L2187.82 145.446 Q2187.82 142.507 2185.87 140.909 Q2183.95 139.289 2180.46 139.289 Q2178.23 139.289 2176.13 139.821 Q2174.02 140.354 2172.08 141.419 L2172.08 137.483 Q2174.41 136.581 2176.61 136.141 Q2178.81 135.678 2180.9 135.678 Q2186.52 135.678 2189.3 138.594 Q2192.08 141.511 2192.08 147.437 Z" fill="#000000" fill-rule="nonzero" fill-opacity="1" /><path clip-path="url(#clip140)" d="M2217.91 148.965 Q2217.91 144.335 2215.99 141.789 Q2214.09 139.243 2210.64 139.243 Q2207.21 139.243 2205.29 141.789 Q2203.4 144.335 2203.4 148.965 Q2203.4 153.571 2205.29 156.118 Q2207.21 158.664 2210.64 158.664 Q2214.09 158.664 2215.99 156.118 Q2217.91 153.571 2217.91 148.965 M2222.17 159.011 Q2222.17 165.631 2219.23 168.849 Q2216.29 172.09 2210.22 172.09 Q2207.98 172.09 2205.99 171.742 Q2204 171.418 2202.12 170.724 L2202.12 166.58 Q2204 167.599 2205.83 168.085 Q2207.65 168.571 2209.55 168.571 Q2213.74 168.571 2215.83 166.372 Q2217.91 164.196 2217.91 159.775 L2217.91 157.668 Q2216.59 159.96 2214.53 161.094 Q2212.47 162.229 2209.6 162.229 Q2204.83 162.229 2201.91 158.594 Q2199 154.96 2199 148.965 Q2199 142.946 2201.91 139.312 Q2204.83 135.678 2209.6 135.678 Q2212.47 135.678 2214.53 136.812 Q2216.59 137.946 2217.91 140.238 L2217.91 136.303 L2222.17 136.303 L2222.17 159.011 Z" fill="#000000" fill-rule="nonzero" fill-opacity="1" /><path clip-path="url(#clip140)" d="M2253.12 148.201 L2253.12 150.284 L2233.53 150.284 Q2233.81 154.682 2236.17 156.997 Q2238.56 159.289 2242.79 159.289 Q2245.25 159.289 2247.54 158.687 Q2249.85 158.085 2252.12 156.881 L2252.12 160.909 Q2249.83 161.881 2247.42 162.391 Q2245.02 162.9 2242.54 162.9 Q2236.33 162.9 2232.7 159.289 Q2229.09 155.678 2229.09 149.52 Q2229.09 143.155 2232.52 139.428 Q2235.96 135.678 2241.8 135.678 Q2247.03 135.678 2250.06 139.057 Q2253.12 142.414 2253.12 148.201 M2248.86 146.951 Q2248.81 143.456 2246.89 141.372 Q2244.99 139.289 2241.84 139.289 Q2238.28 139.289 2236.13 141.303 Q2234 143.317 2233.67 146.974 L2248.86 146.951 Z" fill="#000000" fill-rule="nonzero" fill-opacity="1" /><polyline clip-path="url(#clip140)" style="stroke:#e26f46; stroke-linecap:round; stroke-linejoin:round; stroke-width:4; stroke-opacity:1; fill:none" points="1819.35,196.789 1968.81,196.789 "/>
<path clip-path="url(#clip140)" d="M1993.72 188.143 L1998.23 188.143 L2006.34 209.902 L2014.44 188.143 L2018.95 188.143 L2009.23 214.069 L2003.44 214.069 L1993.72 188.143 Z" fill="#000000" fill-rule="nonzero" fill-opacity="1" /><path clip-path="url(#clip140)" d="M2025.48 179.509 L2043.84 179.509 L2043.84 183.444 L2029.76 183.444 L2029.76 191.916 Q2030.78 191.569 2031.8 191.407 Q2032.82 191.222 2033.84 191.222 Q2039.62 191.222 2043 194.393 Q2046.38 197.564 2046.38 202.981 Q2046.38 208.559 2042.91 211.661 Q2039.44 214.74 2033.12 214.74 Q2030.94 214.74 2028.67 214.37 Q2026.43 213.999 2024.02 213.258 L2024.02 208.559 Q2026.1 209.694 2028.33 210.249 Q2030.55 210.805 2033.03 210.805 Q2037.03 210.805 2039.37 208.698 Q2041.71 206.592 2041.71 202.981 Q2041.71 199.37 2039.37 197.263 Q2037.03 195.157 2033.03 195.157 Q2031.15 195.157 2029.28 195.573 Q2027.42 195.99 2025.48 196.87 L2025.48 179.509 Z" fill="#000000" fill-rule="nonzero" fill-opacity="1" /><path clip-path="url(#clip140)" d="M2064.25 197.425 L2064.25 204.647 L2072.38 204.647 L2072.38 206.846 L2064.25 206.846 L2064.25 214.069 L2061.82 214.069 L2061.82 206.846 L2053.7 206.846 L2053.7 204.647 L2061.82 204.647 L2061.82 197.425 L2064.25 197.425 Z" fill="#000000" fill-rule="nonzero" fill-opacity="1" /><path clip-path="url(#clip140)" d="M2096.54 188.907 L2096.54 192.934 Q2094.74 192.009 2092.79 191.546 Q2090.85 191.083 2088.77 191.083 Q2085.59 191.083 2084 192.055 Q2082.42 193.027 2082.42 194.971 Q2082.42 196.453 2083.56 197.309 Q2084.69 198.143 2088.12 198.907 L2089.58 199.231 Q2094.11 200.203 2096.01 201.985 Q2097.93 203.745 2097.93 206.916 Q2097.93 210.527 2095.06 212.633 Q2092.22 214.74 2087.22 214.74 Q2085.13 214.74 2082.86 214.323 Q2080.62 213.93 2078.12 213.12 L2078.12 208.721 Q2080.48 209.948 2082.77 210.573 Q2085.06 211.175 2087.31 211.175 Q2090.32 211.175 2091.94 210.157 Q2093.56 209.115 2093.56 207.24 Q2093.56 205.504 2092.38 204.578 Q2091.22 203.652 2087.26 202.796 L2085.78 202.448 Q2081.82 201.615 2080.06 199.902 Q2078.3 198.166 2078.3 195.157 Q2078.3 191.499 2080.9 189.509 Q2083.49 187.518 2088.26 187.518 Q2090.62 187.518 2092.7 187.865 Q2094.78 188.212 2096.54 188.907 Z" fill="#000000" fill-rule="nonzero" fill-opacity="1" /><path clip-path="url(#clip140)" d="M2108.93 180.782 L2108.93 188.143 L2117.7 188.143 L2117.7 191.453 L2108.93 191.453 L2108.93 205.527 Q2108.93 208.698 2109.78 209.601 Q2110.66 210.504 2113.33 210.504 L2117.7 210.504 L2117.7 214.069 L2113.33 214.069 Q2108.4 214.069 2106.52 212.24 Q2104.65 210.388 2104.65 205.527 L2104.65 191.453 L2101.52 191.453 L2101.52 188.143 L2104.65 188.143 L2104.65 180.782 L2108.93 180.782 Z" fill="#000000" fill-rule="nonzero" fill-opacity="1" /><path clip-path="url(#clip140)" d="M2133.35 191.129 Q2129.92 191.129 2127.93 193.814 Q2125.94 196.476 2125.94 201.129 Q2125.94 205.782 2127.91 208.467 Q2129.9 211.129 2133.35 211.129 Q2136.75 211.129 2138.74 208.444 Q2140.73 205.758 2140.73 201.129 Q2140.73 196.522 2138.74 193.837 Q2136.75 191.129 2133.35 191.129 M2133.35 187.518 Q2138.9 187.518 2142.08 191.129 Q2145.25 194.74 2145.25 201.129 Q2145.25 207.495 2142.08 211.129 Q2138.9 214.74 2133.35 214.74 Q2127.77 214.74 2124.6 211.129 Q2121.45 207.495 2121.45 201.129 Q2121.45 194.74 2124.6 191.129 Q2127.77 187.518 2133.35 187.518 Z" fill="#000000" fill-rule="nonzero" fill-opacity="1" /><path clip-path="url(#clip140)" d="M2167.33 192.124 Q2166.61 191.708 2165.76 191.522 Q2164.92 191.314 2163.9 191.314 Q2160.29 191.314 2158.35 193.675 Q2156.43 196.013 2156.43 200.411 L2156.43 214.069 L2152.15 214.069 L2152.15 188.143 L2156.43 188.143 L2156.43 192.171 Q2157.77 189.809 2159.92 188.675 Q2162.08 187.518 2165.15 187.518 Q2165.59 187.518 2166.13 187.587 Q2166.66 187.634 2167.31 187.749 L2167.33 192.124 Z" fill="#000000" fill-rule="nonzero" fill-opacity="1" /><path clip-path="url(#clip140)" d="M2183.58 201.036 Q2178.42 201.036 2176.43 202.217 Q2174.44 203.397 2174.44 206.245 Q2174.44 208.513 2175.92 209.856 Q2177.42 211.175 2179.99 211.175 Q2183.53 211.175 2185.66 208.675 Q2187.82 206.152 2187.82 201.985 L2187.82 201.036 L2183.58 201.036 M2192.08 199.277 L2192.08 214.069 L2187.82 214.069 L2187.82 210.133 Q2186.36 212.495 2184.18 213.629 Q2182.01 214.74 2178.86 214.74 Q2174.88 214.74 2172.52 212.518 Q2170.18 210.272 2170.18 206.522 Q2170.18 202.147 2173.09 199.925 Q2176.03 197.703 2181.84 197.703 L2187.82 197.703 L2187.82 197.286 Q2187.82 194.347 2185.87 192.749 Q2183.95 191.129 2180.46 191.129 Q2178.23 191.129 2176.13 191.661 Q2174.02 192.194 2172.08 193.259 L2172.08 189.323 Q2174.41 188.421 2176.61 187.981 Q2178.81 187.518 2180.9 187.518 Q2186.52 187.518 2189.3 190.434 Q2192.08 193.351 2192.08 199.277 Z" fill="#000000" fill-rule="nonzero" fill-opacity="1" /><path clip-path="url(#clip140)" d="M2217.91 200.805 Q2217.91 196.175 2215.99 193.629 Q2214.09 191.083 2210.64 191.083 Q2207.21 191.083 2205.29 193.629 Q2203.4 196.175 2203.4 200.805 Q2203.4 205.411 2205.29 207.958 Q2207.21 210.504 2210.64 210.504 Q2214.09 210.504 2215.99 207.958 Q2217.91 205.411 2217.91 200.805 M2222.17 210.851 Q2222.17 217.471 2219.23 220.689 Q2216.29 223.93 2210.22 223.93 Q2207.98 223.93 2205.99 223.582 Q2204 223.258 2202.12 222.564 L2202.12 218.42 Q2204 219.439 2205.83 219.925 Q2207.65 220.411 2209.55 220.411 Q2213.74 220.411 2215.83 218.212 Q2217.91 216.036 2217.91 211.615 L2217.91 209.508 Q2216.59 211.8 2214.53 212.934 Q2212.47 214.069 2209.6 214.069 Q2204.83 214.069 2201.91 210.434 Q2199 206.8 2199 200.805 Q2199 194.786 2201.91 191.152 Q2204.83 187.518 2209.6 187.518 Q2212.47 187.518 2214.53 188.652 Q2216.59 189.786 2217.91 192.078 L2217.91 188.143 L2222.17 188.143 L2222.17 210.851 Z" fill="#000000" fill-rule="nonzero" fill-opacity="1" /><path clip-path="url(#clip140)" d="M2253.12 200.041 L2253.12 202.124 L2233.53 202.124 Q2233.81 206.522 2236.17 208.837 Q2238.56 211.129 2242.79 211.129 Q2245.25 211.129 2247.54 210.527 Q2249.85 209.925 2252.12 208.721 L2252.12 212.749 Q2249.83 213.721 2247.42 214.231 Q2245.02 214.74 2242.54 214.74 Q2236.33 214.74 2232.7 211.129 Q2229.09 207.518 2229.09 201.36 Q2229.09 194.995 2232.52 191.268 Q2235.96 187.518 2241.8 187.518 Q2247.03 187.518 2250.06 190.897 Q2253.12 194.254 2253.12 200.041 M2248.86 198.791 Q2248.81 195.296 2246.89 193.212 Q2244.99 191.129 2241.84 191.129 Q2238.28 191.129 2236.13 193.143 Q2234 195.157 2233.67 198.814 L2248.86 198.791 Z" fill="#000000" fill-rule="nonzero" fill-opacity="1" /></svg>
