<?xml version="1.0" encoding="utf-8"?>
<svg xmlns="http://www.w3.org/2000/svg" xmlns:xlink="http://www.w3.org/1999/xlink" width="600" height="400" viewBox="0 0 2400 1600">
<defs>
  <clipPath id="clip640">
    <rect x="0" y="0" width="2400" height="1600"/>
  </clipPath>
</defs>
<path clip-path="url(#clip640)" d="M0 1600 L2400 1600 L2400 0 L0 0  Z" fill="#ffffff" fill-rule="evenodd" fill-opacity="1"/>
<defs>
  <clipPath id="clip641">
    <rect x="480" y="0" width="1681" height="1600"/>
  </clipPath>
</defs>
<path clip-path="url(#clip640)" d="M194.422 1423.18 L2352.76 1423.18 L2352.76 47.2441 L194.422 47.2441  Z" fill="#ffffff" fill-rule="evenodd" fill-opacity="1"/>
<defs>
  <clipPath id="clip642">
    <rect x="194" y="47" width="2159" height="1377"/>
  </clipPath>
</defs>
<polyline clip-path="url(#clip642)" style="stroke:#000000; stroke-linecap:round; stroke-linejoin:round; stroke-width:2; stroke-opacity:0.1; fill:none" points="194.422,1423.18 194.422,47.2441 "/>
<polyline clip-path="url(#clip642)" style="stroke:#000000; stroke-linecap:round; stroke-linejoin:round; stroke-width:2; stroke-opacity:0.1; fill:none" points="734.006,1423.18 734.006,47.2441 "/>
<polyline clip-path="url(#clip642)" style="stroke:#000000; stroke-linecap:round; stroke-linejoin:round; stroke-width:2; stroke-opacity:0.1; fill:none" points="1273.59,1423.18 1273.59,47.2441 "/>
<polyline clip-path="url(#clip642)" style="stroke:#000000; stroke-linecap:round; stroke-linejoin:round; stroke-width:2; stroke-opacity:0.1; fill:none" points="1813.17,1423.18 1813.17,47.2441 "/>
<polyline clip-path="url(#clip642)" style="stroke:#000000; stroke-linecap:round; stroke-linejoin:round; stroke-width:2; stroke-opacity:0.1; fill:none" points="2352.76,1423.18 2352.76,47.2441 "/>
<polyline clip-path="url(#clip642)" style="stroke:#000000; stroke-linecap:round; stroke-linejoin:round; stroke-width:2; stroke-opacity:0.1; fill:none" points="194.422,1342.84 2352.76,1342.84 "/>
<polyline clip-path="url(#clip642)" style="stroke:#000000; stroke-linecap:round; stroke-linejoin:round; stroke-width:2; stroke-opacity:0.1; fill:none" points="194.422,1034.43 2352.76,1034.43 "/>
<polyline clip-path="url(#clip642)" style="stroke:#000000; stroke-linecap:round; stroke-linejoin:round; stroke-width:2; stroke-opacity:0.1; fill:none" points="194.422,726.018 2352.76,726.018 "/>
<polyline clip-path="url(#clip642)" style="stroke:#000000; stroke-linecap:round; stroke-linejoin:round; stroke-width:2; stroke-opacity:0.1; fill:none" points="194.422,417.608 2352.76,417.608 "/>
<polyline clip-path="url(#clip642)" style="stroke:#000000; stroke-linecap:round; stroke-linejoin:round; stroke-width:2; stroke-opacity:0.1; fill:none" points="194.422,109.198 2352.76,109.198 "/>
<polyline clip-path="url(#clip640)" style="stroke:#000000; stroke-linecap:round; stroke-linejoin:round; stroke-width:4; stroke-opacity:1; fill:none" points="194.422,1423.18 2352.76,1423.18 "/>
<polyline clip-path="url(#clip640)" style="stroke:#000000; stroke-linecap:round; stroke-linejoin:round; stroke-width:4; stroke-opacity:1; fill:none" points="194.422,1423.18 194.422,1404.28 "/>
<polyline clip-path="url(#clip640)" style="stroke:#000000; stroke-linecap:round; stroke-linejoin:round; stroke-width:4; stroke-opacity:1; fill:none" points="734.006,1423.18 734.006,1404.28 "/>
<polyline clip-path="url(#clip640)" style="stroke:#000000; stroke-linecap:round; stroke-linejoin:round; stroke-width:4; stroke-opacity:1; fill:none" points="1273.59,1423.18 1273.59,1404.28 "/>
<polyline clip-path="url(#clip640)" style="stroke:#000000; stroke-linecap:round; stroke-linejoin:round; stroke-width:4; stroke-opacity:1; fill:none" points="1813.17,1423.18 1813.17,1404.28 "/>
<polyline clip-path="url(#clip640)" style="stroke:#000000; stroke-linecap:round; stroke-linejoin:round; stroke-width:4; stroke-opacity:1; fill:none" points="2352.76,1423.18 2352.76,1404.28 "/>
<path clip-path="url(#clip640)" d="M171.806 1454.1 Q168.195 1454.1 166.367 1457.66 Q164.561 1461.2 164.561 1468.33 Q164.561 1475.44 166.367 1479.01 Q168.195 1482.55 171.806 1482.55 Q175.441 1482.55 177.246 1479.01 Q179.075 1475.44 179.075 1468.33 Q179.075 1461.2 177.246 1457.66 Q175.441 1454.1 171.806 1454.1 M171.806 1450.39 Q177.617 1450.39 180.672 1455 Q183.751 1459.58 183.751 1468.33 Q183.751 1477.06 180.672 1481.67 Q177.617 1486.25 171.806 1486.25 Q165.996 1486.25 162.918 1481.67 Q159.862 1477.06 159.862 1468.33 Q159.862 1459.58 162.918 1455 Q165.996 1450.39 171.806 1450.39 Z" fill="#000000" fill-rule="nonzero" fill-opacity="1" /><path clip-path="url(#clip640)" d="M191.968 1479.7 L196.853 1479.7 L196.853 1485.58 L191.968 1485.58 L191.968 1479.7 Z" fill="#000000" fill-rule="nonzero" fill-opacity="1" /><path clip-path="url(#clip640)" d="M217.038 1454.1 Q213.427 1454.1 211.598 1457.66 Q209.792 1461.2 209.792 1468.33 Q209.792 1475.44 211.598 1479.01 Q213.427 1482.55 217.038 1482.55 Q220.672 1482.55 222.478 1479.01 Q224.306 1475.44 224.306 1468.33 Q224.306 1461.2 222.478 1457.66 Q220.672 1454.1 217.038 1454.1 M217.038 1450.39 Q222.848 1450.39 225.903 1455 Q228.982 1459.58 228.982 1468.33 Q228.982 1477.06 225.903 1481.67 Q222.848 1486.25 217.038 1486.25 Q211.228 1486.25 208.149 1481.67 Q205.093 1477.06 205.093 1468.33 Q205.093 1459.58 208.149 1455 Q211.228 1450.39 217.038 1450.39 Z" fill="#000000" fill-rule="nonzero" fill-opacity="1" /><path clip-path="url(#clip640)" d="M711.888 1454.1 Q708.277 1454.1 706.448 1457.66 Q704.642 1461.2 704.642 1468.33 Q704.642 1475.44 706.448 1479.01 Q708.277 1482.55 711.888 1482.55 Q715.522 1482.55 717.327 1479.01 Q719.156 1475.44 719.156 1468.33 Q719.156 1461.2 717.327 1457.66 Q715.522 1454.1 711.888 1454.1 M711.888 1450.39 Q717.698 1450.39 720.753 1455 Q723.832 1459.58 723.832 1468.33 Q723.832 1477.06 720.753 1481.67 Q717.698 1486.25 711.888 1486.25 Q706.077 1486.25 702.999 1481.67 Q699.943 1477.06 699.943 1468.33 Q699.943 1459.58 702.999 1455 Q706.077 1450.39 711.888 1450.39 Z" fill="#000000" fill-rule="nonzero" fill-opacity="1" /><path clip-path="url(#clip640)" d="M732.05 1479.7 L736.934 1479.7 L736.934 1485.58 L732.05 1485.58 L732.05 1479.7 Z" fill="#000000" fill-rule="nonzero" fill-opacity="1" /><path clip-path="url(#clip640)" d="M747.165 1451.02 L765.522 1451.02 L765.522 1454.96 L751.448 1454.96 L751.448 1463.43 Q752.466 1463.08 753.485 1462.92 Q754.503 1462.73 755.522 1462.73 Q761.309 1462.73 764.688 1465.9 Q768.068 1469.08 768.068 1474.49 Q768.068 1480.07 764.596 1483.17 Q761.123 1486.25 754.804 1486.25 Q752.628 1486.25 750.36 1485.88 Q748.114 1485.51 745.707 1484.77 L745.707 1480.07 Q747.79 1481.2 750.012 1481.76 Q752.235 1482.32 754.711 1482.32 Q758.716 1482.32 761.054 1480.21 Q763.392 1478.1 763.392 1474.49 Q763.392 1470.88 761.054 1468.77 Q758.716 1466.67 754.711 1466.67 Q752.836 1466.67 750.961 1467.08 Q749.11 1467.5 747.165 1468.38 L747.165 1451.02 Z" fill="#000000" fill-rule="nonzero" fill-opacity="1" /><path clip-path="url(#clip640)" d="M1240.74 1481.64 L1248.38 1481.64 L1248.38 1455.28 L1240.07 1456.95 L1240.07 1452.69 L1248.33 1451.02 L1253.01 1451.02 L1253.01 1481.64 L1260.65 1481.64 L1260.65 1485.58 L1240.74 1485.58 L1240.74 1481.64 Z" fill="#000000" fill-rule="nonzero" fill-opacity="1" /><path clip-path="url(#clip640)" d="M1270.09 1479.7 L1274.98 1479.7 L1274.98 1485.58 L1270.09 1485.58 L1270.09 1479.7 Z" fill="#000000" fill-rule="nonzero" fill-opacity="1" /><path clip-path="url(#clip640)" d="M1295.16 1454.1 Q1291.55 1454.1 1289.72 1457.66 Q1287.92 1461.2 1287.92 1468.33 Q1287.92 1475.44 1289.72 1479.01 Q1291.55 1482.55 1295.16 1482.55 Q1298.8 1482.55 1300.6 1479.01 Q1302.43 1475.44 1302.43 1468.33 Q1302.43 1461.2 1300.6 1457.66 Q1298.8 1454.1 1295.16 1454.1 M1295.16 1450.39 Q1300.97 1450.39 1304.03 1455 Q1307.11 1459.58 1307.11 1468.33 Q1307.11 1477.06 1304.03 1481.67 Q1300.97 1486.25 1295.16 1486.25 Q1289.35 1486.25 1286.27 1481.67 Q1283.22 1477.06 1283.22 1468.33 Q1283.22 1459.58 1286.27 1455 Q1289.35 1450.39 1295.16 1450.39 Z" fill="#000000" fill-rule="nonzero" fill-opacity="1" /><path clip-path="url(#clip640)" d="M1780.82 1481.64 L1788.46 1481.64 L1788.46 1455.28 L1780.15 1456.95 L1780.15 1452.69 L1788.42 1451.02 L1793.09 1451.02 L1793.09 1481.64 L1800.73 1481.64 L1800.73 1485.58 L1780.82 1485.58 L1780.82 1481.64 Z" fill="#000000" fill-rule="nonzero" fill-opacity="1" /><path clip-path="url(#clip640)" d="M1810.17 1479.7 L1815.06 1479.7 L1815.06 1485.58 L1810.17 1485.58 L1810.17 1479.7 Z" fill="#000000" fill-rule="nonzero" fill-opacity="1" /><path clip-path="url(#clip640)" d="M1825.29 1451.02 L1843.65 1451.02 L1843.65 1454.96 L1829.57 1454.96 L1829.57 1463.43 Q1830.59 1463.08 1831.61 1462.92 Q1832.63 1462.73 1833.65 1462.73 Q1839.43 1462.73 1842.81 1465.9 Q1846.19 1469.08 1846.19 1474.49 Q1846.19 1480.07 1842.72 1483.17 Q1839.25 1486.25 1832.93 1486.25 Q1830.75 1486.25 1828.48 1485.88 Q1826.24 1485.51 1823.83 1484.77 L1823.83 1480.07 Q1825.92 1481.2 1828.14 1481.76 Q1830.36 1482.32 1832.84 1482.32 Q1836.84 1482.32 1839.18 1480.21 Q1841.52 1478.1 1841.52 1474.49 Q1841.52 1470.88 1839.18 1468.77 Q1836.84 1466.67 1832.84 1466.67 Q1830.96 1466.67 1829.09 1467.08 Q1827.23 1467.5 1825.29 1468.38 L1825.29 1451.02 Z" fill="#000000" fill-rule="nonzero" fill-opacity="1" /><path clip-path="url(#clip640)" d="M2323.99 1481.64 L2340.31 1481.64 L2340.31 1485.58 L2318.37 1485.58 L2318.37 1481.64 Q2321.03 1478.89 2325.61 1474.26 Q2330.22 1469.61 2331.4 1468.27 Q2333.65 1465.74 2334.53 1464.01 Q2335.43 1462.25 2335.43 1460.56 Q2335.43 1457.8 2333.49 1456.07 Q2331.56 1454.33 2328.46 1454.33 Q2326.26 1454.33 2323.81 1455.09 Q2321.38 1455.86 2318.6 1457.41 L2318.6 1452.69 Q2321.43 1451.55 2323.88 1450.97 Q2326.33 1450.39 2328.37 1450.39 Q2333.74 1450.39 2336.93 1453.08 Q2340.13 1455.77 2340.13 1460.26 Q2340.13 1462.39 2339.32 1464.31 Q2338.53 1466.2 2336.42 1468.8 Q2335.85 1469.47 2332.74 1472.69 Q2329.64 1475.88 2323.99 1481.64 Z" fill="#000000" fill-rule="nonzero" fill-opacity="1" /><path clip-path="url(#clip640)" d="M2350.13 1479.7 L2355.01 1479.7 L2355.01 1485.58 L2350.13 1485.58 L2350.13 1479.7 Z" fill="#000000" fill-rule="nonzero" fill-opacity="1" /><path clip-path="url(#clip640)" d="M2375.2 1454.1 Q2371.59 1454.1 2369.76 1457.66 Q2367.95 1461.2 2367.95 1468.33 Q2367.95 1475.44 2369.76 1479.01 Q2371.59 1482.55 2375.2 1482.55 Q2378.83 1482.55 2380.64 1479.01 Q2382.47 1475.44 2382.47 1468.33 Q2382.47 1461.2 2380.64 1457.66 Q2378.83 1454.1 2375.2 1454.1 M2375.2 1450.39 Q2381.01 1450.39 2384.06 1455 Q2387.14 1459.58 2387.14 1468.33 Q2387.14 1477.06 2384.06 1481.67 Q2381.01 1486.25 2375.2 1486.25 Q2369.39 1486.25 2366.31 1481.67 Q2363.25 1477.06 2363.25 1468.33 Q2363.25 1459.58 2366.31 1455 Q2369.39 1450.39 2375.2 1450.39 Z" fill="#000000" fill-rule="nonzero" fill-opacity="1" /><path clip-path="url(#clip640)" d="M1272.65 1522.27 L1272.65 1532.4 L1284.71 1532.4 L1284.71 1536.95 L1272.65 1536.95 L1272.65 1556.3 Q1272.65 1560.66 1273.83 1561.9 Q1275.04 1563.14 1278.7 1563.14 L1284.71 1563.14 L1284.71 1568.04 L1278.7 1568.04 Q1271.92 1568.04 1269.34 1565.53 Q1266.76 1562.98 1266.76 1556.3 L1266.76 1536.95 L1262.46 1536.95 L1262.46 1532.4 L1266.76 1532.4 L1266.76 1522.27 L1272.65 1522.27 Z" fill="#000000" fill-rule="nonzero" fill-opacity="1" /><polyline clip-path="url(#clip640)" style="stroke:#000000; stroke-linecap:round; stroke-linejoin:round; stroke-width:4; stroke-opacity:1; fill:none" points="194.422,1423.18 194.422,47.2441 "/>
<polyline clip-path="url(#clip640)" style="stroke:#000000; stroke-linecap:round; stroke-linejoin:round; stroke-width:4; stroke-opacity:1; fill:none" points="194.422,1342.84 213.32,1342.84 "/>
<polyline clip-path="url(#clip640)" style="stroke:#000000; stroke-linecap:round; stroke-linejoin:round; stroke-width:4; stroke-opacity:1; fill:none" points="194.422,1034.43 213.32,1034.43 "/>
<polyline clip-path="url(#clip640)" style="stroke:#000000; stroke-linecap:round; stroke-linejoin:round; stroke-width:4; stroke-opacity:1; fill:none" points="194.422,726.018 213.32,726.018 "/>
<polyline clip-path="url(#clip640)" style="stroke:#000000; stroke-linecap:round; stroke-linejoin:round; stroke-width:4; stroke-opacity:1; fill:none" points="194.422,417.608 213.32,417.608 "/>
<polyline clip-path="url(#clip640)" style="stroke:#000000; stroke-linecap:round; stroke-linejoin:round; stroke-width:4; stroke-opacity:1; fill:none" points="194.422,109.198 213.32,109.198 "/>
<path clip-path="url(#clip640)" d="M51.5708 1343.29 L81.2466 1343.29 L81.2466 1347.22 L51.5708 1347.22 L51.5708 1343.29 Z" fill="#000000" fill-rule="nonzero" fill-opacity="1" /><path clip-path="url(#clip640)" d="M101.339 1328.64 Q97.728 1328.64 95.8993 1332.2 Q94.0937 1335.74 94.0937 1342.87 Q94.0937 1349.98 95.8993 1353.54 Q97.728 1357.09 101.339 1357.09 Q104.973 1357.09 106.779 1353.54 Q108.608 1349.98 108.608 1342.87 Q108.608 1335.74 106.779 1332.2 Q104.973 1328.64 101.339 1328.64 M101.339 1324.93 Q107.149 1324.93 110.205 1329.54 Q113.283 1334.12 113.283 1342.87 Q113.283 1351.6 110.205 1356.21 Q107.149 1360.79 101.339 1360.79 Q95.5289 1360.79 92.4502 1356.21 Q89.3947 1351.6 89.3947 1342.87 Q89.3947 1334.12 92.4502 1329.54 Q95.5289 1324.93 101.339 1324.93 Z" fill="#000000" fill-rule="nonzero" fill-opacity="1" /><path clip-path="url(#clip640)" d="M121.501 1354.24 L126.385 1354.24 L126.385 1360.12 L121.501 1360.12 L121.501 1354.24 Z" fill="#000000" fill-rule="nonzero" fill-opacity="1" /><path clip-path="url(#clip640)" d="M146.57 1343.71 Q143.237 1343.71 141.316 1345.49 Q139.418 1347.27 139.418 1350.4 Q139.418 1353.52 141.316 1355.3 Q143.237 1357.09 146.57 1357.09 Q149.904 1357.09 151.825 1355.3 Q153.746 1353.5 153.746 1350.4 Q153.746 1347.27 151.825 1345.49 Q149.927 1343.71 146.57 1343.71 M141.894 1341.72 Q138.885 1340.98 137.195 1338.91 Q135.529 1336.85 135.529 1333.89 Q135.529 1329.75 138.469 1327.34 Q141.431 1324.93 146.57 1324.93 Q151.732 1324.93 154.672 1327.34 Q157.612 1329.75 157.612 1333.89 Q157.612 1336.85 155.922 1338.91 Q154.255 1340.98 151.269 1341.72 Q154.649 1342.5 156.524 1344.79 Q158.422 1347.09 158.422 1350.4 Q158.422 1355.42 155.343 1358.1 Q152.288 1360.79 146.57 1360.79 Q140.853 1360.79 137.774 1358.1 Q134.719 1355.42 134.719 1350.4 Q134.719 1347.09 136.617 1344.79 Q138.515 1342.5 141.894 1341.72 M140.181 1334.33 Q140.181 1337.02 141.848 1338.52 Q143.538 1340.03 146.57 1340.03 Q149.58 1340.03 151.269 1338.52 Q152.982 1337.02 152.982 1334.33 Q152.982 1331.65 151.269 1330.14 Q149.58 1328.64 146.57 1328.64 Q143.538 1328.64 141.848 1330.14 Q140.181 1331.65 140.181 1334.33 Z" fill="#000000" fill-rule="nonzero" fill-opacity="1" /><path clip-path="url(#clip640)" d="M52.381 1034.88 L82.0568 1034.88 L82.0568 1038.81 L52.381 1038.81 L52.381 1034.88 Z" fill="#000000" fill-rule="nonzero" fill-opacity="1" /><path clip-path="url(#clip640)" d="M102.149 1020.23 Q98.5382 1020.23 96.7095 1023.79 Q94.9039 1027.33 94.9039 1034.46 Q94.9039 1041.57 96.7095 1045.13 Q98.5382 1048.68 102.149 1048.68 Q105.783 1048.68 107.589 1045.13 Q109.418 1041.57 109.418 1034.46 Q109.418 1027.33 107.589 1023.79 Q105.783 1020.23 102.149 1020.23 M102.149 1016.52 Q107.959 1016.52 111.015 1021.13 Q114.094 1025.71 114.094 1034.46 Q114.094 1043.19 111.015 1047.8 Q107.959 1052.38 102.149 1052.38 Q96.3391 1052.38 93.2604 1047.8 Q90.2049 1043.19 90.2049 1034.46 Q90.2049 1025.71 93.2604 1021.13 Q96.3391 1016.52 102.149 1016.52 Z" fill="#000000" fill-rule="nonzero" fill-opacity="1" /><path clip-path="url(#clip640)" d="M122.311 1045.83 L127.195 1045.83 L127.195 1051.71 L122.311 1051.71 L122.311 1045.83 Z" fill="#000000" fill-rule="nonzero" fill-opacity="1" /><path clip-path="url(#clip640)" d="M136.2 1017.15 L158.422 1017.15 L158.422 1019.14 L145.876 1051.71 L140.992 1051.71 L152.797 1021.08 L136.2 1021.08 L136.2 1017.15 Z" fill="#000000" fill-rule="nonzero" fill-opacity="1" /><path clip-path="url(#clip640)" d="M51.3162 726.469 L80.992 726.469 L80.992 730.405 L51.3162 730.405 L51.3162 726.469 Z" fill="#000000" fill-rule="nonzero" fill-opacity="1" /><path clip-path="url(#clip640)" d="M101.084 711.817 Q97.4734 711.817 95.6447 715.382 Q93.8391 718.923 93.8391 726.053 Q93.8391 733.159 95.6447 736.724 Q97.4734 740.266 101.084 740.266 Q104.719 740.266 106.524 736.724 Q108.353 733.159 108.353 726.053 Q108.353 718.923 106.524 715.382 Q104.719 711.817 101.084 711.817 M101.084 708.113 Q106.895 708.113 109.95 712.72 Q113.029 717.303 113.029 726.053 Q113.029 734.78 109.95 739.386 Q106.895 743.969 101.084 743.969 Q95.2743 743.969 92.1956 739.386 Q89.1401 734.78 89.1401 726.053 Q89.1401 717.303 92.1956 712.72 Q95.2743 708.113 101.084 708.113 Z" fill="#000000" fill-rule="nonzero" fill-opacity="1" /><path clip-path="url(#clip640)" d="M121.246 737.418 L126.131 737.418 L126.131 743.298 L121.246 743.298 L121.246 737.418 Z" fill="#000000" fill-rule="nonzero" fill-opacity="1" /><path clip-path="url(#clip640)" d="M146.894 724.155 Q143.746 724.155 141.894 726.307 Q140.066 728.46 140.066 732.21 Q140.066 735.937 141.894 738.113 Q143.746 740.266 146.894 740.266 Q150.043 740.266 151.871 738.113 Q153.723 735.937 153.723 732.21 Q153.723 728.46 151.871 726.307 Q150.043 724.155 146.894 724.155 M156.177 709.502 L156.177 713.761 Q154.417 712.928 152.612 712.488 Q150.83 712.048 149.07 712.048 Q144.441 712.048 141.987 715.173 Q139.556 718.298 139.209 724.618 Q140.575 722.604 142.635 721.539 Q144.695 720.451 147.172 720.451 Q152.38 720.451 155.39 723.622 Q158.422 726.77 158.422 732.21 Q158.422 737.534 155.274 740.752 Q152.126 743.969 146.894 743.969 Q140.899 743.969 137.728 739.386 Q134.556 734.78 134.556 726.053 Q134.556 717.858 138.445 712.997 Q142.334 708.113 148.885 708.113 Q150.644 708.113 152.427 708.46 Q154.232 708.808 156.177 709.502 Z" fill="#000000" fill-rule="nonzero" fill-opacity="1" /><path clip-path="url(#clip640)" d="M52.4736 418.059 L82.1494 418.059 L82.1494 421.994 L52.4736 421.994 L52.4736 418.059 Z" fill="#000000" fill-rule="nonzero" fill-opacity="1" /><path clip-path="url(#clip640)" d="M102.242 403.407 Q98.6308 403.407 96.8021 406.971 Q94.9965 410.513 94.9965 417.643 Q94.9965 424.749 96.8021 428.314 Q98.6308 431.856 102.242 431.856 Q105.876 431.856 107.682 428.314 Q109.51 424.749 109.51 417.643 Q109.51 410.513 107.682 406.971 Q105.876 403.407 102.242 403.407 M102.242 399.703 Q108.052 399.703 111.108 404.309 Q114.186 408.893 114.186 417.643 Q114.186 426.369 111.108 430.976 Q108.052 435.559 102.242 435.559 Q96.4317 435.559 93.353 430.976 Q90.2975 426.369 90.2975 417.643 Q90.2975 408.893 93.353 404.309 Q96.4317 399.703 102.242 399.703 Z" fill="#000000" fill-rule="nonzero" fill-opacity="1" /><path clip-path="url(#clip640)" d="M122.404 429.008 L127.288 429.008 L127.288 434.888 L122.404 434.888 L122.404 429.008 Z" fill="#000000" fill-rule="nonzero" fill-opacity="1" /><path clip-path="url(#clip640)" d="M137.519 400.328 L155.876 400.328 L155.876 404.263 L141.802 404.263 L141.802 412.735 Q142.82 412.388 143.839 412.226 Q144.857 412.041 145.876 412.041 Q151.663 412.041 155.042 415.212 Q158.422 418.383 158.422 423.8 Q158.422 429.379 154.95 432.481 Q151.478 435.559 145.158 435.559 Q142.982 435.559 140.714 435.189 Q138.469 434.818 136.061 434.078 L136.061 429.379 Q138.144 430.513 140.367 431.068 Q142.589 431.624 145.066 431.624 Q149.07 431.624 151.408 429.518 Q153.746 427.411 153.746 423.8 Q153.746 420.189 151.408 418.082 Q149.07 415.976 145.066 415.976 Q143.191 415.976 141.316 416.393 Q139.464 416.809 137.519 417.689 L137.519 400.328 Z" fill="#000000" fill-rule="nonzero" fill-opacity="1" /><path clip-path="url(#clip640)" d="M50.9921 109.649 L80.6679 109.649 L80.6679 113.584 L50.9921 113.584 L50.9921 109.649 Z" fill="#000000" fill-rule="nonzero" fill-opacity="1" /><path clip-path="url(#clip640)" d="M100.76 94.9964 Q97.1493 94.9964 95.3206 98.5612 Q93.515 102.103 93.515 109.232 Q93.515 116.339 95.3206 119.904 Q97.1493 123.445 100.76 123.445 Q104.395 123.445 106.2 119.904 Q108.029 116.339 108.029 109.232 Q108.029 102.103 106.2 98.5612 Q104.395 94.9964 100.76 94.9964 M100.76 91.2927 Q106.571 91.2927 109.626 95.8992 Q112.705 100.482 112.705 109.232 Q112.705 117.959 109.626 122.566 Q106.571 127.149 100.76 127.149 Q94.9502 127.149 91.8715 122.566 Q88.816 117.959 88.816 109.232 Q88.816 100.482 91.8715 95.8992 Q94.9502 91.2927 100.76 91.2927 Z" fill="#000000" fill-rule="nonzero" fill-opacity="1" /><path clip-path="url(#clip640)" d="M120.922 120.598 L125.807 120.598 L125.807 126.478 L120.922 126.478 L120.922 120.598 Z" fill="#000000" fill-rule="nonzero" fill-opacity="1" /><path clip-path="url(#clip640)" d="M148.839 95.9918 L137.033 114.441 L148.839 114.441 L148.839 95.9918 M147.612 91.9177 L153.492 91.9177 L153.492 114.441 L158.422 114.441 L158.422 118.33 L153.492 118.33 L153.492 126.478 L148.839 126.478 L148.839 118.33 L133.237 118.33 L133.237 113.816 L147.612 91.9177 Z" fill="#000000" fill-rule="nonzero" fill-opacity="1" /><polyline clip-path="url(#clip642)" style="stroke:#009af9; stroke-linecap:round; stroke-linejoin:round; stroke-width:4; stroke-opacity:1; fill:none" points="194.422,1006.84 196.583,997.668 198.743,988.589 200.904,979.601 203.064,970.702 205.225,961.891 207.385,953.169 209.546,944.533 211.706,935.983 213.867,927.519 216.027,919.139 218.188,910.842 220.348,902.628 222.509,894.496 224.669,886.444 226.83,878.473 228.99,870.582 231.151,862.769 233.311,855.033 235.471,847.375 237.632,839.793 239.792,832.287 241.953,824.855 244.113,817.498 246.274,810.213 248.434,803.002 250.595,795.862 252.755,788.793 254.916,781.794 257.076,774.866 259.237,768.006 261.397,761.215 263.558,754.491 265.718,747.834 267.879,741.243 270.039,734.718 272.2,728.258 274.36,721.863 276.521,715.531 278.681,709.262 280.842,703.055 283.002,696.911 285.163,690.827 287.323,684.804 289.484,678.842 291.644,672.938 293.805,667.094 295.965,661.307 298.126,655.579 300.286,649.907 302.447,644.292 304.607,638.733 306.768,633.229 308.928,627.78 311.089,622.386 313.249,617.045 315.41,611.757 317.57,606.522 319.731,601.339 321.891,596.208 324.052,591.128 326.212,586.098 328.373,581.119 330.533,576.189 332.694,571.308 334.854,566.476 337.015,561.691 339.175,556.955 341.336,552.266 343.496,547.623 345.657,543.027 347.817,538.476 349.978,533.97 352.138,529.51 354.299,525.094 356.459,520.721 358.62,516.393 360.78,512.107 362.941,507.864 365.101,503.663 367.262,499.505 369.422,495.387 371.583,491.311 373.743,487.275 375.904,483.28 378.064,479.324 380.225,475.408 382.385,471.531 384.546,467.692 386.706,463.892 388.867,460.13 391.027,456.405 393.188,452.717 395.348,449.066 397.509,445.451 399.669,441.873 401.83,438.33 403.99,434.822 406.151,431.35 408.311,427.911 410.472,424.508 412.632,421.138 414.793,417.801 416.953,414.498 419.114,411.228 421.274,407.99 423.435,404.785 425.595,401.611 427.755,398.469 429.916,395.359 432.076,392.279 434.237,389.23 436.397,386.211 438.558,383.223 440.718,380.264 442.879,377.334 445.039,374.434 447.2,371.562 449.36,368.719 451.521,365.905 453.681,363.118 455.842,360.359 458.002,357.628 460.163,354.923 462.323,352.246 464.484,349.595 466.644,346.971 468.805,344.373 470.965,341.8 473.126,339.254 475.286,336.732 477.447,334.236 479.607,331.765 481.768,329.318 483.928,326.896 486.089,324.498 488.249,322.124 490.41,319.773 492.57,317.446 494.731,315.143 496.891,312.862 499.052,310.604 501.212,308.368 503.373,306.155 505.533,303.964 507.694,301.794 509.854,299.647 512.015,297.52 514.175,295.415 516.336,293.331 518.496,291.268 520.657,289.225 522.817,287.202 524.978,285.2 527.138,283.218 529.299,281.255 531.459,279.312 533.62,277.388 535.78,275.484 537.941,273.598 540.101,271.731 542.262,269.883 544.422,268.053 546.583,266.241 548.743,264.448 550.904,262.672 553.064,260.914 555.225,259.173 557.385,257.45 559.546,255.743 561.706,254.054 563.867,252.382 566.027,250.726 568.188,249.086 570.348,247.463 572.509,245.856 574.669,244.265 576.83,242.69 578.99,241.131 581.151,239.587 583.311,238.058 585.472,236.545 587.632,235.046 589.793,233.563 591.953,232.094 594.114,230.64 596.274,229.201 598.435,227.776 600.595,226.365 602.756,224.968 604.916,223.585 607.077,222.216 609.237,220.861 611.398,219.519 613.558,218.191 615.718,216.875 617.879,215.573 620.039,214.284 622.2,213.008 624.36,211.744 626.521,210.493 628.681,209.255 630.842,208.029 633.002,206.815 635.163,205.613 637.323,204.424 639.484,203.246 641.644,202.079 643.805,200.925 645.965,199.782 648.126,198.65 650.286,197.53 652.447,196.421 654.607,195.323 656.768,194.235 658.928,193.159 661.089,192.093 663.249,191.038 665.41,189.994 667.57,188.959 669.731,187.936 671.891,186.922 674.052,185.918 676.212,184.925 678.373,183.941 680.533,182.967 682.694,182.003 684.854,181.048 687.015,180.103 689.175,179.167 691.336,178.24 693.496,177.323 695.657,176.414 697.817,175.515 699.978,174.625 702.138,173.743 704.299,172.87 706.459,172.006 708.62,171.151 710.78,170.304 712.941,169.465 715.101,168.635 717.262,167.813 719.422,166.999 721.583,166.194 723.743,165.396 725.904,164.607 728.064,163.825 730.225,163.051 732.385,162.285 734.546,161.526 736.706,160.775 738.867,160.032 741.027,159.296 743.188,158.567 745.348,157.845 747.509,157.131 749.669,156.424 751.83,155.724 753.99,155.031 756.151,154.345 758.311,153.666 760.472,152.993 762.632,152.327 764.793,151.668 766.953,151.016 769.114,150.37 771.274,149.73 773.435,149.097 775.595,148.47 777.756,147.85 779.916,147.235 782.077,146.627 784.237,146.025 786.398,145.428 788.558,144.838 790.719,144.254 792.879,143.675 795.04,143.102 797.2,142.535 799.361,141.974 801.521,141.418 803.681,140.868 805.842,140.323 808.002,139.784 810.163,139.249 812.323,138.721 814.484,138.197 816.644,137.679 818.805,137.166 820.965,136.658 823.126,136.155 825.286,135.657 827.447,135.164 829.607,134.675 831.768,134.192 833.928,133.713 836.089,133.239 838.249,132.77 840.41,132.306 842.57,131.846 844.731,131.39 846.891,130.939 849.052,130.493 851.212,130.051 853.373,129.613 855.533,129.18 857.694,128.751 859.854,128.326 862.015,127.906 864.175,127.489 866.336,127.077 868.496,126.669 870.657,126.265 872.817,125.865 874.978,125.469 877.138,125.077 879.299,124.689 881.459,124.304 883.62,123.924 885.78,123.547 887.941,123.174 890.101,122.805 892.262,122.44 894.422,122.078 896.583,121.72 898.743,121.365 900.904,121.014 903.064,120.667 905.225,120.323 907.385,119.982 909.546,119.645 911.706,119.312 913.867,118.981 916.027,118.654 918.188,118.33 920.348,118.01 922.509,117.692 924.669,117.378 926.83,117.067 928.99,116.759 931.151,116.455 933.311,116.153 935.472,115.854 937.632,115.558 939.793,115.266 941.953,114.976 944.114,114.689 946.274,114.405 948.435,114.124 950.595,113.845 952.756,113.57 954.916,113.297 957.077,113.027 959.237,112.759 961.398,112.494 963.558,112.232 965.719,111.973 967.879,111.716 970.04,111.461 972.2,111.21 974.361,110.96 976.521,110.713 978.682,110.469 980.842,110.227 983.003,109.987 985.163,109.75 987.324,109.515 989.484,109.283 991.645,109.053 993.805,108.825 995.965,108.599 998.126,108.375 1000.29,108.154 1002.45,107.935 1004.61,107.718 1006.77,107.503 1008.93,107.291 1011.09,107.08 1013.25,106.871 1015.41,106.665 1017.57,106.46 1019.73,106.258 1021.89,106.057 1024.05,105.859 1026.21,105.662 1028.37,105.467 1030.53,105.275 1032.69,105.084 1034.85,104.895 1037.01,104.708 1039.18,104.523 1041.34,104.339 1043.5,104.158 1045.66,103.978 1047.82,103.8 1049.98,103.624 1052.14,103.449 1054.3,103.277 1056.46,103.106 1058.62,102.936 1060.78,102.769 1062.94,102.603 1065.1,102.439 1067.26,102.276 1069.42,102.115 1071.58,101.956 1073.74,101.798 1075.9,101.642 1078.06,101.487 1080.22,101.334 1082.39,101.182 1084.55,101.032 1086.71,100.884 1088.87,100.737 1091.03,100.592 1093.19,100.447 1095.35,100.305 1097.51,100.164 1099.67,100.024 1101.83,99.8857 1103.99,99.7488 1106.15,99.6133 1108.31,99.4791 1110.47,99.3463 1112.63,99.2148 1114.79,99.0847 1116.95,98.9558 1119.11,98.8283 1121.27,98.7021 1123.43,98.5771 1125.6,98.4534 1127.76,98.3309 1129.92,98.2097 1132.08,98.0897 1134.24,97.9709 1136.4,97.8533 1138.56,97.7369 1140.72,97.6216 1142.88,97.5075 1145.04,97.3946 1147.2,97.2828 1149.36,97.1721 1151.52,97.0625 1153.68,96.954 1155.84,96.8467 1158,96.7403 1160.16,96.6351 1162.32,96.5309 1164.48,96.4277 1166.64,96.3256 1168.81,96.2245 1170.97,96.1244 1173.13,96.0252 1175.29,95.9271 1177.45,95.83 1179.61,95.7338 1181.77,95.6385 1183.93,95.5442 1186.09,95.4508 1188.25,95.3583 1190.41,95.2668 1192.57,95.1761 1194.73,95.0864 1196.89,94.9975 1199.05,94.9095 1201.21,94.8223 1203.37,94.736 1205.53,94.6505 1207.69,94.5658 1209.85,94.482 1212.01,94.399 1214.18,94.3167 1216.34,94.2353 1218.5,94.1546 1220.66,94.0747 1222.82,93.9956 1224.98,93.9173 1227.14,93.8397 1229.3,93.7629 1231.46,93.6868 1233.62,93.6115 1235.78,93.5369 1237.94,93.463 1240.1,93.3898 1242.26,93.3174 1244.42,93.2457 1246.58,93.1747 1248.74,93.1043 1250.9,93.0347 1253.06,92.9658 1255.22,92.8975 1257.39,92.83 1259.55,92.7631 1261.71,92.6968 1263.87,92.6313 1266.03,92.5663 1268.19,92.5021 1270.35,92.4384 1272.51,92.3754 1274.67,92.3131 1276.83,92.2513 1278.99,92.1902 1281.15,92.1297 1283.31,92.0698 1285.47,92.0105 1287.63,91.9519 1289.79,91.8938 1291.95,91.8363 1294.11,91.7793 1296.27,91.723 1298.43,91.6672 1300.6,91.612 1302.76,91.5574 1304.92,91.5033 1307.08,91.4497 1309.24,91.3967 1311.4,91.3443 1313.56,91.2924 1315.72,91.241 1317.88,91.1901 1320.04,91.1398 1322.2,91.09 1324.36,91.0406 1326.52,90.9918 1328.68,90.9435 1330.84,90.8957 1333,90.8484 1335.16,90.8015 1337.32,90.7552 1339.48,90.7093 1341.64,90.6639 1343.81,90.6189 1345.97,90.5744 1348.13,90.5304 1350.29,90.4868 1352.45,90.4437 1354.61,90.401 1356.77,90.3587 1358.93,90.3169 1361.09,90.2755 1363.25,90.2345 1365.41,90.1939 1367.57,90.1538 1369.73,90.114 1371.89,90.0747 1374.05,90.0358 1376.21,89.9972 1378.37,89.9591 1380.53,89.9213 1382.69,89.884 1384.85,89.847 1387.01,89.8103 1389.18,89.7741 1391.34,89.7382 1393.5,89.7026 1395.66,89.6675 1397.82,89.6326 1399.98,89.5982 1402.14,89.564 1404.3,89.5302 1406.46,89.4968 1408.62,89.4636 1410.78,89.4308 1412.94,89.3983 1415.1,89.3662 1417.26,89.3343 1419.42,89.3028 1421.58,89.2715 1423.74,89.2406 1425.9,89.21 1428.06,89.1796 1430.22,89.1496 1432.39,89.1198 1434.55,89.0903 1436.71,89.0611 1438.87,89.0322 1441.03,89.0035 1443.19,88.9751 1445.35,88.947 1447.51,88.9191 1449.67,88.8915 1451.83,88.8642 1453.99,88.837 1456.15,88.8102 1458.31,88.7836 1460.47,88.7572 1462.63,88.7311 1464.79,88.7053 1466.95,88.6796 1469.11,88.6543 1471.27,88.6291 1473.43,88.6043 1475.6,88.5796 1477.76,88.5552 1479.92,88.531 1482.08,88.5071 1484.24,88.4834 1486.4,88.4599 1488.56,88.4366 1490.72,88.4136 1492.88,88.3908 1495.04,88.3682 1497.2,88.3458 1499.36,88.3237 1501.52,88.3018 1503.68,88.2801 1505.84,88.2586 1508,88.2373 1510.16,88.2162 1512.32,88.1954 1514.48,88.1747 1516.64,88.1543 1518.81,88.1341 1520.97,88.114 1523.13,88.0942 1525.29,88.0746 1527.45,88.0551 1529.61,88.0359 1531.77,88.0169 1533.93,87.998 1536.09,87.9794 1538.25,87.9609 1540.41,87.9426 1542.57,87.9245 1544.73,87.9066 1546.89,87.8889 1549.05,87.8714 1551.21,87.854 1553.37,87.8369 1555.53,87.8199 1557.69,87.803 1559.85,87.7864 1562.01,87.7699 1564.18,87.7536 1566.34,87.7375 1568.5,87.7215 1570.66,87.7057 1572.82,87.6901 1574.98,87.6746 1577.14,87.6593 1579.3,87.6442 1581.46,87.6292 1583.62,87.6144 1585.78,87.5997 1587.94,87.5852 1590.1,87.5708 1592.26,87.5566 1594.42,87.5425 1596.58,87.5286 1598.74,87.5148 1600.9,87.5012 1603.06,87.4877 1605.22,87.4744 1607.39,87.4612 1609.55,87.4481 1611.71,87.4352 1613.87,87.4224 1616.03,87.4098 1618.19,87.3972 1620.35,87.3848 1622.51,87.3726 1624.67,87.3605 1626.83,87.3485 1628.99,87.3366 1631.15,87.3248 1633.31,87.3132 1635.47,87.3017 1637.63,87.2903 1639.79,87.279 1641.95,87.2679 1644.11,87.2569 1646.27,87.2459 1648.43,87.2351 1650.6,87.2244 1652.76,87.2138 1654.92,87.2034 1657.08,87.193 1659.24,87.1827 1661.4,87.1726 1663.56,87.1625 1665.72,87.1525 1667.88,87.1427 1670.04,87.1329 1672.2,87.1232 1674.36,87.1137 1676.52,87.1042 1678.68,87.0948 1680.84,87.0855 1683,87.0763 1685.16,87.0672 1687.32,87.0582 1689.48,87.0492 1691.64,87.0404 1693.81,87.0316 1695.97,87.0229 1698.13,87.0143 1700.29,87.0058 1702.45,86.9973 1704.61,86.989 1706.77,86.9807 1708.93,86.9724 1711.09,86.9643 1713.25,86.9562 1715.41,86.9482 1717.57,86.9402 1719.73,86.9323 1721.89,86.9245 1724.05,86.9168 1726.21,86.9091 1728.37,86.9014 1730.53,86.8939 1732.69,86.8864 1734.85,86.8789 1737.02,86.8716 1739.18,86.8643 1741.34,86.8571 1743.5,86.8499 1745.66,86.8428 1747.82,86.8358 1749.98,86.8288 1752.14,86.8219 1754.3,86.815 1756.46,86.8082 1758.62,86.8015 1760.78,86.7949 1762.94,86.7883 1765.1,86.7818 1767.26,86.7753 1769.42,86.7689 1771.58,86.7625 1773.74,86.7562 1775.9,86.75 1778.06,86.7439 1780.22,86.7377 1782.39,86.7317 1784.55,86.7257 1786.71,86.7198 1788.87,86.7139 1791.03,86.7081 1793.19,86.7023 1795.35,86.6966 1797.51,86.691 1799.67,86.6854 1801.83,86.6799 1803.99,86.6744 1806.15,86.669 1808.31,86.6636 1810.47,86.6583 1812.63,86.653 1814.79,86.6478 1816.95,86.6427 1819.11,86.6376 1821.27,86.6325 1823.43,86.6276 1825.6,86.6226 1827.76,86.6177 1829.92,86.6129 1832.08,86.6081 1834.24,86.6034 1836.4,86.5987 1838.56,86.594 1840.72,86.5895 1842.88,86.5849 1845.04,86.5804 1847.2,86.576 1849.36,86.5716 1851.52,86.5672 1853.68,86.5629 1855.84,86.5587 1858,86.5545 1860.16,86.5503 1862.32,86.5462 1864.48,86.5421 1866.64,86.5381 1868.81,86.5341 1870.97,86.5302 1873.13,86.5263 1875.29,86.5224 1877.45,86.5186 1879.61,86.5149 1881.77,86.5111 1883.93,86.5075 1886.09,86.5038 1888.25,86.5002 1890.41,86.4966 1892.57,86.4931 1894.73,86.4896 1896.89,86.4862 1899.05,86.4828 1901.21,86.4794 1903.37,86.4761 1905.53,86.4728 1907.69,86.4696 1909.85,86.4663 1912.02,86.4632 1914.18,86.46 1916.34,86.4569 1918.5,86.4538 1920.66,86.4508 1922.82,86.4478 1924.98,86.4448 1927.14,86.4419 1929.3,86.439 1931.46,86.4361 1933.62,86.4333 1935.78,86.4304 1937.94,86.4277 1940.1,86.4249 1942.26,86.4222 1944.42,86.4195 1946.58,86.4169 1948.74,86.4142 1950.9,86.4116 1953.06,86.4091 1955.22,86.4065 1957.39,86.404 1959.55,86.4015 1961.71,86.3991 1963.87,86.3966 1966.03,86.3942 1968.19,86.3918 1970.35,86.3895 1972.51,86.3871 1974.67,86.3848 1976.83,86.3825 1978.99,86.3803 1981.15,86.378 1983.31,86.3758 1985.47,86.3736 1987.63,86.3715 1989.79,86.3693 1991.95,86.3672 1994.11,86.3651 1996.27,86.363 1998.43,86.3609 2000.6,86.3588 2002.76,86.3568 2004.92,86.3548 2007.08,86.3528 2009.24,86.3508 2011.4,86.3488 2013.56,86.3469 2015.72,86.345 2017.88,86.343 2020.04,86.3411 2022.2,86.3393 2024.36,86.3374 2026.52,86.3355 2028.68,86.3337 2030.84,86.3318 2033,86.33 2035.16,86.3282 2037.32,86.3264 2039.48,86.3246 2041.64,86.3228 2043.81,86.3211 2045.97,86.3193 2048.13,86.3176 2050.29,86.3158 2052.45,86.3141 2054.61,86.3124 2056.77,86.3107 2058.93,86.309 2061.09,86.3073 2063.25,86.3057 2065.41,86.3041 2067.57,86.3024 2069.73,86.3008 2071.89,86.2992 2074.05,86.2977 2076.21,86.2961 2078.37,86.2946 2080.53,86.293 2082.69,86.2915 2084.85,86.29 2087.02,86.2885 2089.18,86.2871 2091.34,86.2856 2093.5,86.2842 2095.66,86.2827 2097.82,86.2813 2099.98,86.2799 2102.14,86.2785 2104.3,86.2772 2106.46,86.2758 2108.62,86.2745 2110.78,86.2731 2112.94,86.2718 2115.1,86.2705 2117.26,86.2692 2119.42,86.2679 2121.58,86.2666 2123.74,86.2654 2125.9,86.2641 2128.06,86.2629 2130.22,86.2617 2132.39,86.2605 2134.55,86.2593 2136.71,86.2581 2138.87,86.2569 2141.03,86.2558 2143.19,86.2546 2145.35,86.2535 2147.51,86.2524 2149.67,86.2513 2151.83,86.2502 2153.99,86.2491 2156.15,86.248 2158.31,86.247 2160.47,86.2459 2162.63,86.2449 2164.79,86.2438 2166.95,86.2428 2169.11,86.2418 2171.27,86.2408 2173.43,86.2398 2175.6,86.2388 2177.76,86.2379 2179.92,86.2369 2182.08,86.236 2184.24,86.235 2186.4,86.2341 2188.56,86.2332 2190.72,86.2323 2192.88,86.2314 2195.04,86.2305 2197.2,86.2296 2199.36,86.2288 2201.52,86.2279 2203.68,86.2271 2205.84,86.2262 2208,86.2254 2210.16,86.2246 2212.32,86.2238 2214.48,86.2229 2216.64,86.2222 2218.81,86.2214 2220.97,86.2206 2223.13,86.2198 2225.29,86.2191 2227.45,86.2183 2229.61,86.2176 2231.77,86.2168 2233.93,86.2161 2236.09,86.2154 2238.25,86.2147 2240.41,86.214 2242.57,86.2133 2244.73,86.2126 2246.89,86.2119 2249.05,86.2112 2251.21,86.2106 2253.37,86.2099 2255.53,86.2092 2257.69,86.2086 2259.85,86.208 2262.02,86.2073 2264.18,86.2067 2266.34,86.2061 2268.5,86.2055 2270.66,86.2049 2272.82,86.2043 2274.98,86.2037 2277.14,86.2031 2279.3,86.2025 2281.46,86.2019 2283.62,86.2014 2285.78,86.2008 2287.94,86.2002 2290.1,86.1997 2292.26,86.1991 2294.42,86.1986 2296.58,86.1981 2298.74,86.1975 2300.9,86.197 2303.06,86.1965 2305.23,86.196 2307.39,86.1955 2309.55,86.195 2311.71,86.1945 2313.87,86.194 2316.03,86.1935 2318.19,86.193 2320.35,86.1925 2322.51,86.192 2324.67,86.1915 2326.83,86.1911 2328.99,86.1906 2331.15,86.1901 2333.31,86.1897 2335.47,86.1892 2337.63,86.1888 2339.79,86.1883 2341.95,86.1879 2344.11,86.1874 2346.27,86.187 2348.43,86.1865 2350.6,86.1861 2352.76,86.1857 "/>
<polyline clip-path="url(#clip642)" style="stroke:#e26f46; stroke-linecap:round; stroke-linejoin:round; stroke-width:4; stroke-opacity:1; fill:none" points="194.422,1384.24 196.583,1381.86 198.743,1379.44 200.904,1376.98 203.064,1374.48 205.225,1371.95 207.385,1369.38 209.546,1366.77 211.706,1364.13 213.867,1361.46 216.027,1358.75 218.188,1356.01 220.348,1353.23 222.509,1350.43 224.669,1347.59 226.83,1344.73 228.99,1341.83 231.151,1338.91 233.311,1335.95 235.471,1332.97 237.632,1329.96 239.792,1326.93 241.953,1323.87 244.113,1320.79 246.274,1317.68 248.434,1314.54 250.595,1311.39 252.755,1308.21 254.916,1305 257.076,1301.78 259.237,1298.53 261.397,1295.27 263.558,1291.98 265.718,1288.68 267.879,1285.35 270.039,1282.01 272.2,1278.64 274.36,1275.26 276.521,1271.87 278.681,1268.45 280.842,1265.02 283.002,1261.58 285.163,1258.12 287.323,1254.64 289.484,1251.15 291.644,1247.65 293.805,1244.13 295.965,1240.6 298.126,1237.05 300.286,1233.5 302.447,1229.93 304.607,1226.35 306.768,1222.76 308.928,1219.15 311.089,1215.54 313.249,1211.92 315.41,1208.29 317.57,1204.65 319.731,1201 321.891,1197.34 324.052,1193.67 326.212,1190 328.373,1186.32 330.533,1182.63 332.694,1178.93 334.854,1175.23 337.015,1171.52 339.175,1167.81 341.336,1164.09 343.496,1160.36 345.657,1156.63 347.817,1152.9 349.978,1149.16 352.138,1145.42 354.299,1141.67 356.459,1137.92 358.62,1134.17 360.78,1130.42 362.941,1126.66 365.101,1122.9 367.262,1119.14 369.422,1115.37 371.583,1111.61 373.743,1107.84 375.904,1104.07 378.064,1100.3 380.225,1096.53 382.385,1092.76 384.546,1088.99 386.706,1085.22 388.867,1081.45 391.027,1077.68 393.188,1073.91 395.348,1070.14 397.509,1066.38 399.669,1062.61 401.83,1058.85 403.99,1055.09 406.151,1051.33 408.311,1047.57 410.472,1043.81 412.632,1040.06 414.793,1036.31 416.953,1032.56 419.114,1028.82 421.274,1025.08 423.435,1021.34 425.595,1017.61 427.755,1013.88 429.916,1010.15 432.076,1006.43 434.237,1002.71 436.397,998.996 438.558,995.287 440.718,991.583 442.879,987.884 445.039,984.19 447.2,980.501 449.36,976.818 451.521,973.139 453.681,969.467 455.842,965.8 458.002,962.139 460.163,958.484 462.323,954.835 464.484,951.192 466.644,947.556 468.805,943.926 470.965,940.302 473.126,936.685 475.286,933.075 477.447,929.472 479.607,925.875 481.768,922.286 483.928,918.703 486.089,915.128 488.249,911.56 490.41,908 492.57,904.447 494.731,900.902 496.891,897.364 499.052,893.835 501.212,890.313 503.373,886.799 505.533,883.293 507.694,879.795 509.854,876.306 512.015,872.824 514.175,869.352 516.336,865.887 518.496,862.431 520.657,858.984 522.817,855.545 524.978,852.115 527.138,848.694 529.299,845.282 531.459,841.879 533.62,838.485 535.78,835.099 537.941,831.723 540.101,828.356 542.262,824.999 544.422,821.65 546.583,818.311 548.743,814.982 550.904,811.662 553.064,808.351 555.225,805.05 557.385,801.759 559.546,798.477 561.706,795.205 563.867,791.942 566.027,788.69 568.188,785.447 570.348,782.214 572.509,778.991 574.669,775.778 576.83,772.575 578.99,769.382 581.151,766.199 583.311,763.026 585.472,759.863 587.632,756.71 589.793,753.567 591.953,750.434 594.114,747.311 596.274,744.199 598.435,741.096 600.595,738.004 602.756,734.922 604.916,731.851 607.077,728.789 609.237,725.738 611.398,722.698 613.558,719.667 615.718,716.647 617.879,713.637 620.039,710.638 622.2,707.649 624.36,704.67 626.521,701.702 628.681,698.744 630.842,695.797 633.002,692.86 635.163,689.934 637.323,687.018 639.484,684.112 641.644,681.217 643.805,678.333 645.965,675.459 648.126,672.595 650.286,669.742 652.447,666.9 654.607,664.068 656.768,661.246 658.928,658.436 661.089,655.635 663.249,652.845 665.41,650.066 667.57,647.297 669.731,644.539 671.891,641.791 674.052,639.054 676.212,636.328 678.373,633.612 680.533,630.906 682.694,628.211 684.854,625.526 687.015,622.852 689.175,620.189 691.336,617.536 693.496,614.894 695.657,612.262 697.817,609.64 699.978,607.029 702.138,604.428 704.299,601.838 706.459,599.259 708.62,596.689 710.78,594.13 712.941,591.582 715.101,589.043 717.262,586.516 719.422,583.998 721.583,581.491 723.743,578.994 725.904,576.507 728.064,574.03 730.225,571.564 732.385,569.108 734.546,566.662 736.706,564.227 738.867,561.801 741.027,559.386 743.188,556.981 745.348,554.586 747.509,552.201 749.669,549.826 751.83,547.461 753.99,545.106 756.151,542.761 758.311,540.427 760.472,538.102 762.632,535.787 764.793,533.482 766.953,531.187 769.114,528.902 771.274,526.627 773.435,524.361 775.595,522.106 777.756,519.86 779.916,517.624 782.077,515.398 784.237,513.182 786.398,510.975 788.558,508.778 790.719,506.591 792.879,504.413 795.04,502.245 797.2,500.087 799.361,497.939 801.521,495.799 803.681,493.67 805.842,491.55 808.002,489.439 810.163,487.338 812.323,485.247 814.484,483.165 816.644,481.092 818.805,479.029 820.965,476.975 823.126,474.93 825.286,472.895 827.447,470.869 829.607,468.852 831.768,466.845 833.928,464.847 836.089,462.858 838.249,460.878 840.41,458.907 842.57,456.946 844.731,454.993 846.891,453.05 849.052,451.115 851.212,449.19 853.373,447.273 855.533,445.366 857.694,443.467 859.854,441.578 862.015,439.697 864.175,437.825 866.336,435.961 868.496,434.107 870.657,432.261 872.817,430.424 874.978,428.595 877.138,426.775 879.299,424.964 881.459,423.161 883.62,421.367 885.78,419.581 887.941,417.804 890.101,416.035 892.262,414.275 894.422,412.523 896.583,410.779 898.743,409.044 900.904,407.317 903.064,405.598 905.225,403.887 907.385,402.185 909.546,400.491 911.706,398.805 913.867,397.127 916.027,395.457 918.188,393.796 920.348,392.142 922.509,390.496 924.669,388.858 926.83,387.229 928.99,385.607 931.151,383.993 933.311,382.387 935.472,380.788 937.632,379.198 939.793,377.615 941.953,376.04 944.114,374.473 946.274,372.913 948.435,371.361 950.595,369.817 952.756,368.28 954.916,366.751 957.077,365.23 959.237,363.716 961.398,362.209 963.558,360.71 965.719,359.218 967.879,357.734 970.04,356.257 972.2,354.788 974.361,353.325 976.521,351.871 978.682,350.423 980.842,348.983 983.003,347.549 985.163,346.123 987.324,344.705 989.484,343.293 991.645,341.888 993.805,340.491 995.965,339.1 998.126,337.717 1000.29,336.341 1002.45,334.971 1004.61,333.609 1006.77,332.253 1008.93,330.905 1011.09,329.563 1013.25,328.228 1015.41,326.9 1017.57,325.578 1019.73,324.264 1021.89,322.956 1024.05,321.655 1026.21,320.36 1028.37,319.072 1030.53,317.791 1032.69,316.516 1034.85,315.247 1037.01,313.986 1039.18,312.73 1041.34,311.481 1043.5,310.239 1045.66,309.003 1047.82,307.773 1049.98,306.55 1052.14,305.332 1054.3,304.122 1056.46,302.917 1058.62,301.719 1060.78,300.526 1062.94,299.34 1065.1,298.16 1067.26,296.986 1069.42,295.819 1071.58,294.657 1073.74,293.501 1075.9,292.351 1078.06,291.208 1080.22,290.07 1082.39,288.938 1084.55,287.812 1086.71,286.692 1088.87,285.577 1091.03,284.469 1093.19,283.366 1095.35,282.269 1097.51,281.177 1099.67,280.092 1101.83,279.012 1103.99,277.937 1106.15,276.869 1108.31,275.806 1110.47,274.748 1112.63,273.696 1114.79,272.649 1116.95,271.608 1119.11,270.573 1121.27,269.543 1123.43,268.518 1125.6,267.499 1127.76,266.485 1129.92,265.476 1132.08,264.473 1134.24,263.475 1136.4,262.482 1138.56,261.495 1140.72,260.512 1142.88,259.535 1145.04,258.563 1147.2,257.596 1149.36,256.635 1151.52,255.678 1153.68,254.727 1155.84,253.78 1158,252.839 1160.16,251.903 1162.32,250.971 1164.48,250.045 1166.64,249.123 1168.81,248.207 1170.97,247.295 1173.13,246.388 1175.29,245.486 1177.45,244.589 1179.61,243.697 1181.77,242.809 1183.93,241.927 1186.09,241.049 1188.25,240.175 1190.41,239.307 1192.57,238.443 1194.73,237.583 1196.89,236.729 1199.05,235.879 1201.21,235.033 1203.37,234.193 1205.53,233.356 1207.69,232.524 1209.85,231.697 1212.01,230.874 1214.18,230.056 1216.34,229.242 1218.5,228.433 1220.66,227.628 1222.82,226.827 1224.98,226.031 1227.14,225.239 1229.3,224.451 1231.46,223.667 1233.62,222.888 1235.78,222.113 1237.94,221.342 1240.1,220.576 1242.26,219.813 1244.42,219.055 1246.58,218.301 1248.74,217.551 1250.9,216.805 1253.06,216.063 1255.22,215.325 1257.39,214.591 1259.55,213.862 1261.71,213.136 1263.87,212.414 1266.03,211.696 1268.19,210.982 1270.35,210.272 1272.51,209.566 1274.67,208.863 1276.83,208.165 1278.99,207.47 1281.15,206.779 1283.31,206.092 1285.47,205.408 1287.63,204.729 1289.79,204.053 1291.95,203.381 1294.11,202.712 1296.27,202.047 1298.43,201.386 1300.6,200.728 1302.76,200.075 1304.92,199.424 1307.08,198.777 1309.24,198.134 1311.4,197.494 1313.56,196.858 1315.72,196.225 1317.88,195.596 1320.04,194.97 1322.2,194.348 1324.36,193.729 1326.52,193.114 1328.68,192.502 1330.84,191.893 1333,191.288 1335.16,190.686 1337.32,190.087 1339.48,189.491 1341.64,188.899 1343.81,188.311 1345.97,187.725 1348.13,187.143 1350.29,186.563 1352.45,185.988 1354.61,185.415 1356.77,184.845 1358.93,184.279 1361.09,183.716 1363.25,183.155 1365.41,182.598 1367.57,182.044 1369.73,181.494 1371.89,180.946 1374.05,180.401 1376.21,179.859 1378.37,179.32 1380.53,178.785 1382.69,178.252 1384.85,177.722 1387.01,177.195 1389.18,176.671 1391.34,176.15 1393.5,175.632 1395.66,175.117 1397.82,174.605 1399.98,174.095 1402.14,173.589 1404.3,173.085 1406.46,172.584 1408.62,172.086 1410.78,171.59 1412.94,171.098 1415.1,170.608 1417.26,170.121 1419.42,169.637 1421.58,169.155 1423.74,168.676 1425.9,168.2 1428.06,167.726 1430.22,167.255 1432.39,166.787 1434.55,166.321 1436.71,165.858 1438.87,165.398 1441.03,164.94 1443.19,164.485 1445.35,164.033 1447.51,163.583 1449.67,163.135 1451.83,162.69 1453.99,162.248 1456.15,161.808 1458.31,161.37 1460.47,160.935 1462.63,160.503 1464.79,160.073 1466.95,159.645 1469.11,159.22 1471.27,158.797 1473.43,158.376 1475.6,157.958 1477.76,157.542 1479.92,157.129 1482.08,156.718 1484.24,156.309 1486.4,155.903 1488.56,155.499 1490.72,155.097 1492.88,154.697 1495.04,154.3 1497.2,153.905 1499.36,153.512 1501.52,153.121 1503.68,152.733 1505.84,152.347 1508,151.963 1510.16,151.581 1512.32,151.201 1514.48,150.824 1516.64,150.448 1518.81,150.075 1520.97,149.704 1523.13,149.335 1525.29,148.968 1527.45,148.603 1529.61,148.24 1531.77,147.879 1533.93,147.521 1536.09,147.164 1538.25,146.81 1540.41,146.457 1542.57,146.106 1544.73,145.758 1546.89,145.411 1549.05,145.067 1551.21,144.724 1553.37,144.383 1555.53,144.044 1557.69,143.708 1559.85,143.373 1562.01,143.04 1564.18,142.709 1566.34,142.379 1568.5,142.052 1570.66,141.726 1572.82,141.403 1574.98,141.081 1577.14,140.761 1579.3,140.443 1581.46,140.127 1583.62,139.812 1585.78,139.499 1587.94,139.189 1590.1,138.879 1592.26,138.572 1594.42,138.266 1596.58,137.962 1598.74,137.66 1600.9,137.36 1603.06,137.061 1605.22,136.764 1607.39,136.469 1609.55,136.175 1611.71,135.883 1613.87,135.593 1616.03,135.305 1618.19,135.018 1620.35,134.732 1622.51,134.449 1624.67,134.167 1626.83,133.886 1628.99,133.607 1631.15,133.33 1633.31,133.054 1635.47,132.78 1637.63,132.508 1639.79,132.237 1641.95,131.968 1644.11,131.7 1646.27,131.433 1648.43,131.169 1650.6,130.905 1652.76,130.644 1654.92,130.383 1657.08,130.125 1659.24,129.867 1661.4,129.612 1663.56,129.357 1665.72,129.105 1667.88,128.853 1670.04,128.603 1672.2,128.355 1674.36,128.108 1676.52,127.862 1678.68,127.618 1680.84,127.375 1683,127.133 1685.16,126.893 1687.32,126.655 1689.48,126.417 1691.64,126.181 1693.81,125.947 1695.97,125.714 1698.13,125.482 1700.29,125.251 1702.45,125.022 1704.61,124.794 1706.77,124.568 1708.93,124.342 1711.09,124.119 1713.25,123.896 1715.41,123.675 1717.57,123.455 1719.73,123.236 1721.89,123.018 1724.05,122.802 1726.21,122.587 1728.37,122.373 1730.53,122.161 1732.69,121.949 1734.85,121.739 1737.02,121.531 1739.18,121.323 1741.34,121.116 1743.5,120.911 1745.66,120.707 1747.82,120.504 1749.98,120.302 1752.14,120.102 1754.3,119.902 1756.46,119.704 1758.62,119.507 1760.78,119.311 1762.94,119.116 1765.1,118.922 1767.26,118.73 1769.42,118.538 1771.58,118.348 1773.74,118.158 1775.9,117.97 1778.06,117.783 1780.22,117.597 1782.39,117.412 1784.55,117.228 1786.71,117.045 1788.87,116.863 1791.03,116.683 1793.19,116.503 1795.35,116.325 1797.51,116.147 1799.67,115.97 1801.83,115.795 1803.99,115.62 1806.15,115.447 1808.31,115.274 1810.47,115.103 1812.63,114.932 1814.79,114.763 1816.95,114.595 1819.11,114.427 1821.27,114.26 1823.43,114.095 1825.6,113.93 1827.76,113.767 1829.92,113.604 1832.08,113.442 1834.24,113.281 1836.4,113.122 1838.56,112.963 1840.72,112.805 1842.88,112.648 1845.04,112.492 1847.2,112.336 1849.36,112.182 1851.52,112.029 1853.68,111.876 1855.84,111.724 1858,111.574 1860.16,111.424 1862.32,111.275 1864.48,111.127 1866.64,110.979 1868.81,110.833 1870.97,110.687 1873.13,110.543 1875.29,110.399 1877.45,110.256 1879.61,110.114 1881.77,109.972 1883.93,109.832 1886.09,109.692 1888.25,109.553 1890.41,109.415 1892.57,109.278 1894.73,109.142 1896.89,109.006 1899.05,108.871 1901.21,108.737 1903.37,108.604 1905.53,108.471 1907.69,108.34 1909.85,108.209 1912.02,108.078 1914.18,107.949 1916.34,107.82 1918.5,107.692 1920.66,107.565 1922.82,107.439 1924.98,107.313 1927.14,107.188 1929.3,107.064 1931.46,106.941 1933.62,106.818 1935.78,106.696 1937.94,106.575 1940.1,106.454 1942.26,106.334 1944.42,106.215 1946.58,106.096 1948.74,105.979 1950.9,105.861 1953.06,105.745 1955.22,105.629 1957.39,105.514 1959.55,105.4 1961.71,105.286 1963.87,105.173 1966.03,105.061 1968.19,104.949 1970.35,104.838 1972.51,104.727 1974.67,104.618 1976.83,104.508 1978.99,104.4 1981.15,104.292 1983.31,104.185 1985.47,104.078 1987.63,103.972 1989.79,103.867 1991.95,103.762 1994.11,103.658 1996.27,103.554 1998.43,103.451 2000.6,103.349 2002.76,103.247 2004.92,103.146 2007.08,103.046 2009.24,102.946 2011.4,102.846 2013.56,102.748 2015.72,102.649 2017.88,102.552 2020.04,102.455 2022.2,102.358 2024.36,102.262 2026.52,102.167 2028.68,102.072 2030.84,101.978 2033,101.884 2035.16,101.791 2037.32,101.698 2039.48,101.606 2041.64,101.515 2043.81,101.424 2045.97,101.333 2048.13,101.243 2050.29,101.154 2052.45,101.065 2054.61,100.977 2056.77,100.889 2058.93,100.802 2061.09,100.715 2063.25,100.628 2065.41,100.543 2067.57,100.457 2069.73,100.373 2071.89,100.288 2074.05,100.204 2076.21,100.121 2078.37,100.038 2080.53,99.9558 2082.69,99.874 2084.85,99.7926 2087.02,99.7116 2089.18,99.6312 2091.34,99.5512 2093.5,99.4717 2095.66,99.3927 2097.82,99.3141 2099.98,99.236 2102.14,99.1583 2104.3,99.0811 2106.46,99.0044 2108.62,98.9281 2110.78,98.8523 2112.94,98.7769 2115.1,98.7019 2117.26,98.6274 2119.42,98.5533 2121.58,98.4797 2123.74,98.4065 2125.9,98.3337 2128.06,98.2614 2130.22,98.1895 2132.39,98.118 2134.55,98.0469 2136.71,97.9763 2138.87,97.9061 2141.03,97.8363 2143.19,97.7669 2145.35,97.6979 2147.51,97.6293 2149.67,97.5611 2151.83,97.4934 2153.99,97.426 2156.15,97.359 2158.31,97.2924 2160.47,97.2263 2162.63,97.1605 2164.79,97.0951 2166.95,97.0301 2169.11,96.9654 2171.27,96.9012 2173.43,96.8373 2175.6,96.7739 2177.76,96.7108 2179.92,96.648 2182.08,96.5857 2184.24,96.5237 2186.4,96.4621 2188.56,96.4008 2190.72,96.3399 2192.88,96.2794 2195.04,96.2192 2197.2,96.1594 2199.36,96.0999 2201.52,96.0408 2203.68,95.9821 2205.84,95.9236 2208,95.8656 2210.16,95.8079 2212.32,95.7505 2214.48,95.6935 2216.64,95.6368 2218.81,95.5804 2220.97,95.5244 2223.13,95.4687 2225.29,95.4133 2227.45,95.3583 2229.61,95.3036 2231.77,95.2492 2233.93,95.1951 2236.09,95.1414 2238.25,95.088 2240.41,95.0349 2242.57,94.9821 2244.73,94.9296 2246.89,94.8774 2249.05,94.8256 2251.21,94.774 2253.37,94.7228 2255.53,94.6718 2257.69,94.6212 2259.85,94.5708 2262.02,94.5208 2264.18,94.4711 2266.34,94.4216 2268.5,94.3725 2270.66,94.3236 2272.82,94.275 2274.98,94.2267 2277.14,94.1787 2279.3,94.131 2281.46,94.0836 2283.62,94.0364 2285.78,93.9895 2287.94,93.9429 2290.1,93.8966 2292.26,93.8505 2294.42,93.8047 2296.58,93.7592 2298.74,93.714 2300.9,93.669 2303.06,93.6243 2305.23,93.5799 2307.39,93.5357 2309.55,93.4917 2311.71,93.4481 2313.87,93.4047 2316.03,93.3615 2318.19,93.3186 2320.35,93.276 2322.51,93.2336 2324.67,93.1914 2326.83,93.1495 2328.99,93.1079 2331.15,93.0665 2333.31,93.0253 2335.47,92.9844 2337.63,92.9437 2339.79,92.9033 2341.95,92.8631 2344.11,92.8231 2346.27,92.7834 2348.43,92.7439 2350.6,92.7046 2352.76,92.6656 "/>
<path clip-path="url(#clip640)" d="M1805.58 1377.32 L2280.81 1377.32 L2280.81 1221.8 L1805.58 1221.8  Z" fill="#ffffff" fill-rule="evenodd" fill-opacity="1"/>
<polyline clip-path="url(#clip640)" style="stroke:#000000; stroke-linecap:round; stroke-linejoin:round; stroke-width:4; stroke-opacity:1; fill:none" points="1805.58,1377.32 2280.81,1377.32 2280.81,1221.8 1805.58,1221.8 1805.58,1377.32 "/>
<polyline clip-path="url(#clip640)" style="stroke:#009af9; stroke-linecap:round; stroke-linejoin:round; stroke-width:4; stroke-opacity:1; fill:none" points="1829.56,1273.64 1973.45,1273.64 "/>
<path clip-path="url(#clip640)" d="M1997.43 1264.99 L2001.95 1264.99 L2010.05 1286.75 L2018.15 1264.99 L2022.66 1264.99 L2012.94 1290.92 L2007.16 1290.92 L1997.43 1264.99 Z" fill="#000000" fill-rule="nonzero" fill-opacity="1" /><path clip-path="url(#clip640)" d="M2029.96 1286.98 L2037.6 1286.98 L2037.6 1260.61 L2029.28 1262.28 L2029.28 1258.02 L2037.55 1256.36 L2042.22 1256.36 L2042.22 1286.98 L2049.86 1286.98 L2049.86 1290.92 L2029.96 1290.92 L2029.96 1286.98 Z" fill="#000000" fill-rule="nonzero" fill-opacity="1" /><path clip-path="url(#clip640)" d="M2067.97 1274.27 L2067.97 1281.49 L2076.09 1281.49 L2076.09 1283.69 L2067.97 1283.69 L2067.97 1290.92 L2065.53 1290.92 L2065.53 1283.69 L2057.41 1283.69 L2057.41 1281.49 L2065.53 1281.49 L2065.53 1274.27 L2067.97 1274.27 Z" fill="#000000" fill-rule="nonzero" fill-opacity="1" /><path clip-path="url(#clip640)" d="M2100.26 1265.75 L2100.26 1269.78 Q2098.45 1268.86 2096.51 1268.39 Q2094.56 1267.93 2092.48 1267.93 Q2089.31 1267.93 2087.71 1268.9 Q2086.14 1269.87 2086.14 1271.82 Q2086.14 1273.3 2087.27 1274.16 Q2088.4 1274.99 2091.83 1275.75 L2093.29 1276.08 Q2097.83 1277.05 2099.72 1278.83 Q2101.65 1280.59 2101.65 1283.76 Q2101.65 1287.37 2098.78 1289.48 Q2095.93 1291.59 2090.93 1291.59 Q2088.84 1291.59 2086.58 1291.17 Q2084.33 1290.78 2081.83 1289.97 L2081.83 1285.57 Q2084.19 1286.79 2086.48 1287.42 Q2088.78 1288.02 2091.02 1288.02 Q2094.03 1288.02 2095.65 1287 Q2097.27 1285.96 2097.27 1284.09 Q2097.27 1282.35 2096.09 1281.42 Q2094.93 1280.5 2090.97 1279.64 L2089.49 1279.3 Q2085.53 1278.46 2083.78 1276.75 Q2082.02 1275.01 2082.02 1272 Q2082.02 1268.35 2084.61 1266.36 Q2087.2 1264.36 2091.97 1264.36 Q2094.33 1264.36 2096.41 1264.71 Q2098.5 1265.06 2100.26 1265.75 Z" fill="#000000" fill-rule="nonzero" fill-opacity="1" /><path clip-path="url(#clip640)" d="M2112.64 1257.63 L2112.64 1264.99 L2121.41 1264.99 L2121.41 1268.3 L2112.64 1268.3 L2112.64 1282.37 Q2112.64 1285.54 2113.5 1286.45 Q2114.38 1287.35 2117.04 1287.35 L2121.41 1287.35 L2121.41 1290.92 L2117.04 1290.92 Q2112.11 1290.92 2110.23 1289.09 Q2108.36 1287.23 2108.36 1282.37 L2108.36 1268.3 L2105.23 1268.3 L2105.23 1264.99 L2108.36 1264.99 L2108.36 1257.63 L2112.64 1257.63 Z" fill="#000000" fill-rule="nonzero" fill-opacity="1" /><path clip-path="url(#clip640)" d="M2137.06 1267.98 Q2133.64 1267.98 2131.65 1270.66 Q2129.65 1273.32 2129.65 1277.98 Q2129.65 1282.63 2131.62 1285.31 Q2133.61 1287.98 2137.06 1287.98 Q2140.46 1287.98 2142.46 1285.29 Q2144.45 1282.61 2144.45 1277.98 Q2144.45 1273.37 2142.46 1270.68 Q2140.46 1267.98 2137.06 1267.98 M2137.06 1264.36 Q2142.62 1264.36 2145.79 1267.98 Q2148.96 1271.59 2148.96 1277.98 Q2148.96 1284.34 2145.79 1287.98 Q2142.62 1291.59 2137.06 1291.59 Q2131.48 1291.59 2128.31 1287.98 Q2125.16 1284.34 2125.16 1277.98 Q2125.16 1271.59 2128.31 1267.98 Q2131.48 1264.36 2137.06 1264.36 Z" fill="#000000" fill-rule="nonzero" fill-opacity="1" /><path clip-path="url(#clip640)" d="M2171.04 1268.97 Q2170.33 1268.55 2169.47 1268.37 Q2168.64 1268.16 2167.62 1268.16 Q2164.01 1268.16 2162.06 1270.52 Q2160.14 1272.86 2160.14 1277.26 L2160.14 1290.92 L2155.86 1290.92 L2155.86 1264.99 L2160.14 1264.99 L2160.14 1269.02 Q2161.48 1266.66 2163.64 1265.52 Q2165.79 1264.36 2168.87 1264.36 Q2169.31 1264.36 2169.84 1264.43 Q2170.37 1264.48 2171.02 1264.6 L2171.04 1268.97 Z" fill="#000000" fill-rule="nonzero" fill-opacity="1" /><path clip-path="url(#clip640)" d="M2187.29 1277.88 Q2182.13 1277.88 2180.14 1279.06 Q2178.15 1280.24 2178.15 1283.09 Q2178.15 1285.36 2179.63 1286.7 Q2181.14 1288.02 2183.71 1288.02 Q2187.25 1288.02 2189.38 1285.52 Q2191.53 1283 2191.53 1278.83 L2191.53 1277.88 L2187.29 1277.88 M2195.79 1276.12 L2195.79 1290.92 L2191.53 1290.92 L2191.53 1286.98 Q2190.07 1289.34 2187.9 1290.48 Q2185.72 1291.59 2182.57 1291.59 Q2178.59 1291.59 2176.23 1289.36 Q2173.89 1287.12 2173.89 1283.37 Q2173.89 1278.99 2176.81 1276.77 Q2179.75 1274.55 2185.56 1274.55 L2191.53 1274.55 L2191.53 1274.13 Q2191.53 1271.19 2189.58 1269.6 Q2187.66 1267.98 2184.17 1267.98 Q2181.95 1267.98 2179.84 1268.51 Q2177.73 1269.04 2175.79 1270.11 L2175.79 1266.17 Q2178.13 1265.27 2180.33 1264.83 Q2182.52 1264.36 2184.61 1264.36 Q2190.23 1264.36 2193.01 1267.28 Q2195.79 1270.2 2195.79 1276.12 Z" fill="#000000" fill-rule="nonzero" fill-opacity="1" /><path clip-path="url(#clip640)" d="M2221.62 1277.65 Q2221.62 1273.02 2219.7 1270.48 Q2217.8 1267.93 2214.35 1267.93 Q2210.93 1267.93 2209.01 1270.48 Q2207.11 1273.02 2207.11 1277.65 Q2207.11 1282.26 2209.01 1284.8 Q2210.93 1287.35 2214.35 1287.35 Q2217.8 1287.35 2219.7 1284.8 Q2221.62 1282.26 2221.62 1277.65 M2225.88 1287.7 Q2225.88 1294.32 2222.94 1297.54 Q2220 1300.78 2213.94 1300.78 Q2211.69 1300.78 2209.7 1300.43 Q2207.71 1300.11 2205.83 1299.41 L2205.83 1295.27 Q2207.71 1296.29 2209.54 1296.77 Q2211.37 1297.26 2213.27 1297.26 Q2217.46 1297.26 2219.54 1295.06 Q2221.62 1292.88 2221.62 1288.46 L2221.62 1286.36 Q2220.3 1288.65 2218.24 1289.78 Q2216.18 1290.92 2213.31 1290.92 Q2208.54 1290.92 2205.63 1287.28 Q2202.71 1283.65 2202.71 1277.65 Q2202.71 1271.63 2205.63 1268 Q2208.54 1264.36 2213.31 1264.36 Q2216.18 1264.36 2218.24 1265.5 Q2220.3 1266.63 2221.62 1268.92 L2221.62 1264.99 L2225.88 1264.99 L2225.88 1287.7 Z" fill="#000000" fill-rule="nonzero" fill-opacity="1" /><path clip-path="url(#clip640)" d="M2256.83 1276.89 L2256.83 1278.97 L2237.25 1278.97 Q2237.52 1283.37 2239.89 1285.68 Q2242.27 1287.98 2246.51 1287.98 Q2248.96 1287.98 2251.25 1287.37 Q2253.57 1286.77 2255.83 1285.57 L2255.83 1289.6 Q2253.54 1290.57 2251.14 1291.08 Q2248.73 1291.59 2246.25 1291.59 Q2240.05 1291.59 2236.41 1287.98 Q2232.8 1284.36 2232.8 1278.21 Q2232.8 1271.84 2236.23 1268.11 Q2239.68 1264.36 2245.51 1264.36 Q2250.74 1264.36 2253.77 1267.74 Q2256.83 1271.1 2256.83 1276.89 M2252.57 1275.64 Q2252.52 1272.14 2250.6 1270.06 Q2248.71 1267.98 2245.56 1267.98 Q2241.99 1267.98 2239.84 1269.99 Q2237.71 1272 2237.39 1275.66 L2252.57 1275.64 Z" fill="#000000" fill-rule="nonzero" fill-opacity="1" /><polyline clip-path="url(#clip640)" style="stroke:#e26f46; stroke-linecap:round; stroke-linejoin:round; stroke-width:4; stroke-opacity:1; fill:none" points="1829.56,1325.48 1973.45,1325.48 "/>
<path clip-path="url(#clip640)" d="M1997.43 1316.83 L2001.95 1316.83 L2010.05 1338.59 L2018.15 1316.83 L2022.66 1316.83 L2012.94 1342.76 L2007.16 1342.76 L1997.43 1316.83 Z" fill="#000000" fill-rule="nonzero" fill-opacity="1" /><path clip-path="url(#clip640)" d="M2029.19 1308.2 L2047.55 1308.2 L2047.55 1312.13 L2033.47 1312.13 L2033.47 1320.6 Q2034.49 1320.26 2035.51 1320.09 Q2036.53 1319.91 2037.55 1319.91 Q2043.34 1319.91 2046.72 1323.08 Q2050.09 1326.25 2050.09 1331.67 Q2050.09 1337.25 2046.62 1340.35 Q2043.15 1343.43 2036.83 1343.43 Q2034.66 1343.43 2032.39 1343.06 Q2030.14 1342.69 2027.73 1341.95 L2027.73 1337.25 Q2029.82 1338.38 2032.04 1338.94 Q2034.26 1339.49 2036.74 1339.49 Q2040.74 1339.49 2043.08 1337.38 Q2045.42 1335.28 2045.42 1331.67 Q2045.42 1328.06 2043.08 1325.95 Q2040.74 1323.84 2036.74 1323.84 Q2034.86 1323.84 2032.99 1324.26 Q2031.14 1324.68 2029.19 1325.56 L2029.19 1308.2 Z" fill="#000000" fill-rule="nonzero" fill-opacity="1" /><path clip-path="url(#clip640)" d="M2067.97 1326.11 L2067.97 1333.33 L2076.09 1333.33 L2076.09 1335.53 L2067.97 1335.53 L2067.97 1342.76 L2065.53 1342.76 L2065.53 1335.53 L2057.41 1335.53 L2057.41 1333.33 L2065.53 1333.33 L2065.53 1326.11 L2067.97 1326.11 Z" fill="#000000" fill-rule="nonzero" fill-opacity="1" /><path clip-path="url(#clip640)" d="M2100.26 1317.59 L2100.26 1321.62 Q2098.45 1320.7 2096.51 1320.23 Q2094.56 1319.77 2092.48 1319.77 Q2089.31 1319.77 2087.71 1320.74 Q2086.14 1321.71 2086.14 1323.66 Q2086.14 1325.14 2087.27 1326 Q2088.4 1326.83 2091.83 1327.59 L2093.29 1327.92 Q2097.83 1328.89 2099.72 1330.67 Q2101.65 1332.43 2101.65 1335.6 Q2101.65 1339.21 2098.78 1341.32 Q2095.93 1343.43 2090.93 1343.43 Q2088.84 1343.43 2086.58 1343.01 Q2084.33 1342.62 2081.83 1341.81 L2081.83 1337.41 Q2084.19 1338.63 2086.48 1339.26 Q2088.78 1339.86 2091.02 1339.86 Q2094.03 1339.86 2095.65 1338.84 Q2097.27 1337.8 2097.27 1335.93 Q2097.27 1334.19 2096.09 1333.26 Q2094.93 1332.34 2090.97 1331.48 L2089.49 1331.14 Q2085.53 1330.3 2083.78 1328.59 Q2082.02 1326.85 2082.02 1323.84 Q2082.02 1320.19 2084.61 1318.2 Q2087.2 1316.2 2091.97 1316.2 Q2094.33 1316.2 2096.41 1316.55 Q2098.5 1316.9 2100.26 1317.59 Z" fill="#000000" fill-rule="nonzero" fill-opacity="1" /><path clip-path="url(#clip640)" d="M2112.64 1309.47 L2112.64 1316.83 L2121.41 1316.83 L2121.41 1320.14 L2112.64 1320.14 L2112.64 1334.21 Q2112.64 1337.38 2113.5 1338.29 Q2114.38 1339.19 2117.04 1339.19 L2121.41 1339.19 L2121.41 1342.76 L2117.04 1342.76 Q2112.11 1342.76 2110.23 1340.93 Q2108.36 1339.07 2108.36 1334.21 L2108.36 1320.14 L2105.23 1320.14 L2105.23 1316.83 L2108.36 1316.83 L2108.36 1309.47 L2112.64 1309.47 Z" fill="#000000" fill-rule="nonzero" fill-opacity="1" /><path clip-path="url(#clip640)" d="M2137.06 1319.82 Q2133.64 1319.82 2131.65 1322.5 Q2129.65 1325.16 2129.65 1329.82 Q2129.65 1334.47 2131.62 1337.15 Q2133.61 1339.82 2137.06 1339.82 Q2140.46 1339.82 2142.46 1337.13 Q2144.45 1334.45 2144.45 1329.82 Q2144.45 1325.21 2142.46 1322.52 Q2140.46 1319.82 2137.06 1319.82 M2137.06 1316.2 Q2142.62 1316.2 2145.79 1319.82 Q2148.96 1323.43 2148.96 1329.82 Q2148.96 1336.18 2145.79 1339.82 Q2142.62 1343.43 2137.06 1343.43 Q2131.48 1343.43 2128.31 1339.82 Q2125.16 1336.18 2125.16 1329.82 Q2125.16 1323.43 2128.31 1319.82 Q2131.48 1316.2 2137.06 1316.2 Z" fill="#000000" fill-rule="nonzero" fill-opacity="1" /><path clip-path="url(#clip640)" d="M2171.04 1320.81 Q2170.33 1320.39 2169.47 1320.21 Q2168.64 1320 2167.62 1320 Q2164.01 1320 2162.06 1322.36 Q2160.14 1324.7 2160.14 1329.1 L2160.14 1342.76 L2155.86 1342.76 L2155.86 1316.83 L2160.14 1316.83 L2160.14 1320.86 Q2161.48 1318.5 2163.64 1317.36 Q2165.79 1316.2 2168.87 1316.2 Q2169.31 1316.2 2169.84 1316.27 Q2170.37 1316.32 2171.02 1316.44 L2171.04 1320.81 Z" fill="#000000" fill-rule="nonzero" fill-opacity="1" /><path clip-path="url(#clip640)" d="M2187.29 1329.72 Q2182.13 1329.72 2180.14 1330.9 Q2178.15 1332.08 2178.15 1334.93 Q2178.15 1337.2 2179.63 1338.54 Q2181.14 1339.86 2183.71 1339.86 Q2187.25 1339.86 2189.38 1337.36 Q2191.53 1334.84 2191.53 1330.67 L2191.53 1329.72 L2187.29 1329.72 M2195.79 1327.96 L2195.79 1342.76 L2191.53 1342.76 L2191.53 1338.82 Q2190.07 1341.18 2187.9 1342.32 Q2185.72 1343.43 2182.57 1343.43 Q2178.59 1343.43 2176.23 1341.2 Q2173.89 1338.96 2173.89 1335.21 Q2173.89 1330.83 2176.81 1328.61 Q2179.75 1326.39 2185.56 1326.39 L2191.53 1326.39 L2191.53 1325.97 Q2191.53 1323.03 2189.58 1321.44 Q2187.66 1319.82 2184.17 1319.82 Q2181.95 1319.82 2179.84 1320.35 Q2177.73 1320.88 2175.79 1321.95 L2175.79 1318.01 Q2178.13 1317.11 2180.33 1316.67 Q2182.52 1316.2 2184.61 1316.2 Q2190.23 1316.2 2193.01 1319.12 Q2195.79 1322.04 2195.79 1327.96 Z" fill="#000000" fill-rule="nonzero" fill-opacity="1" /><path clip-path="url(#clip640)" d="M2221.62 1329.49 Q2221.62 1324.86 2219.7 1322.32 Q2217.8 1319.77 2214.35 1319.77 Q2210.93 1319.77 2209.01 1322.32 Q2207.11 1324.86 2207.11 1329.49 Q2207.11 1334.1 2209.01 1336.64 Q2210.93 1339.19 2214.35 1339.19 Q2217.8 1339.19 2219.7 1336.64 Q2221.62 1334.1 2221.62 1329.49 M2225.88 1339.54 Q2225.88 1346.16 2222.94 1349.38 Q2220 1352.62 2213.94 1352.62 Q2211.69 1352.62 2209.7 1352.27 Q2207.71 1351.95 2205.83 1351.25 L2205.83 1347.11 Q2207.71 1348.13 2209.54 1348.61 Q2211.37 1349.1 2213.27 1349.1 Q2217.46 1349.1 2219.54 1346.9 Q2221.62 1344.72 2221.62 1340.3 L2221.62 1338.2 Q2220.3 1340.49 2218.24 1341.62 Q2216.18 1342.76 2213.31 1342.76 Q2208.54 1342.76 2205.63 1339.12 Q2202.71 1335.49 2202.71 1329.49 Q2202.71 1323.47 2205.63 1319.84 Q2208.54 1316.2 2213.31 1316.2 Q2216.18 1316.2 2218.24 1317.34 Q2220.3 1318.47 2221.62 1320.76 L2221.62 1316.83 L2225.88 1316.83 L2225.88 1339.54 Z" fill="#000000" fill-rule="nonzero" fill-opacity="1" /><path clip-path="url(#clip640)" d="M2256.83 1328.73 L2256.83 1330.81 L2237.25 1330.81 Q2237.52 1335.21 2239.89 1337.52 Q2242.27 1339.82 2246.51 1339.82 Q2248.96 1339.82 2251.25 1339.21 Q2253.57 1338.61 2255.83 1337.41 L2255.83 1341.44 Q2253.54 1342.41 2251.14 1342.92 Q2248.73 1343.43 2246.25 1343.43 Q2240.05 1343.43 2236.41 1339.82 Q2232.8 1336.2 2232.8 1330.05 Q2232.8 1323.68 2236.23 1319.95 Q2239.68 1316.2 2245.51 1316.2 Q2250.74 1316.2 2253.77 1319.58 Q2256.83 1322.94 2256.83 1328.73 M2252.57 1327.48 Q2252.52 1323.98 2250.6 1321.9 Q2248.71 1319.82 2245.56 1319.82 Q2241.99 1319.82 2239.84 1321.83 Q2237.71 1323.84 2237.39 1327.5 L2252.57 1327.48 Z" fill="#000000" fill-rule="nonzero" fill-opacity="1" /></svg>
