<?xml version="1.0" encoding="utf-8"?>
<svg xmlns="http://www.w3.org/2000/svg" xmlns:xlink="http://www.w3.org/1999/xlink" width="600" height="400" viewBox="0 0 2400 1600">
<defs>
  <clipPath id="clip180">
    <rect x="0" y="0" width="2400" height="1600"/>
  </clipPath>
</defs>
<path clip-path="url(#clip180)" d="M0 1600 L2400 1600 L2400 0 L0 0  Z" fill="#ffffff" fill-rule="evenodd" fill-opacity="1"/>
<defs>
  <clipPath id="clip181">
    <rect x="480" y="0" width="1681" height="1600"/>
  </clipPath>
</defs>
<path clip-path="url(#clip180)" d="M192.709 1423.18 L2352.76 1423.18 L2352.76 47.2441 L192.709 47.2441  Z" fill="#ffffff" fill-rule="evenodd" fill-opacity="1"/>
<defs>
  <clipPath id="clip182">
    <rect x="192" y="47" width="2161" height="1377"/>
  </clipPath>
</defs>
<polyline clip-path="url(#clip182)" style="stroke:#000000; stroke-linecap:round; stroke-linejoin:round; stroke-width:2; stroke-opacity:0.1; fill:none" points="192.709,1423.18 192.709,47.2441 "/>
<polyline clip-path="url(#clip182)" style="stroke:#000000; stroke-linecap:round; stroke-linejoin:round; stroke-width:2; stroke-opacity:0.1; fill:none" points="732.721,1423.18 732.721,47.2441 "/>
<polyline clip-path="url(#clip182)" style="stroke:#000000; stroke-linecap:round; stroke-linejoin:round; stroke-width:2; stroke-opacity:0.1; fill:none" points="1272.73,1423.18 1272.73,47.2441 "/>
<polyline clip-path="url(#clip182)" style="stroke:#000000; stroke-linecap:round; stroke-linejoin:round; stroke-width:2; stroke-opacity:0.1; fill:none" points="1812.74,1423.18 1812.74,47.2441 "/>
<polyline clip-path="url(#clip182)" style="stroke:#000000; stroke-linecap:round; stroke-linejoin:round; stroke-width:2; stroke-opacity:0.1; fill:none" points="2352.76,1423.18 2352.76,47.2441 "/>
<polyline clip-path="url(#clip182)" style="stroke:#000000; stroke-linecap:round; stroke-linejoin:round; stroke-width:2; stroke-opacity:0.1; fill:none" points="192.709,1174.31 2352.76,1174.31 "/>
<polyline clip-path="url(#clip182)" style="stroke:#000000; stroke-linecap:round; stroke-linejoin:round; stroke-width:2; stroke-opacity:0.1; fill:none" points="192.709,900.128 2352.76,900.128 "/>
<polyline clip-path="url(#clip182)" style="stroke:#000000; stroke-linecap:round; stroke-linejoin:round; stroke-width:2; stroke-opacity:0.1; fill:none" points="192.709,625.946 2352.76,625.946 "/>
<polyline clip-path="url(#clip182)" style="stroke:#000000; stroke-linecap:round; stroke-linejoin:round; stroke-width:2; stroke-opacity:0.1; fill:none" points="192.709,351.764 2352.76,351.764 "/>
<polyline clip-path="url(#clip182)" style="stroke:#000000; stroke-linecap:round; stroke-linejoin:round; stroke-width:2; stroke-opacity:0.1; fill:none" points="192.709,77.5825 2352.76,77.5825 "/>
<polyline clip-path="url(#clip180)" style="stroke:#000000; stroke-linecap:round; stroke-linejoin:round; stroke-width:4; stroke-opacity:1; fill:none" points="192.709,1423.18 2352.76,1423.18 "/>
<polyline clip-path="url(#clip180)" style="stroke:#000000; stroke-linecap:round; stroke-linejoin:round; stroke-width:4; stroke-opacity:1; fill:none" points="192.709,1423.18 192.709,1404.28 "/>
<polyline clip-path="url(#clip180)" style="stroke:#000000; stroke-linecap:round; stroke-linejoin:round; stroke-width:4; stroke-opacity:1; fill:none" points="732.721,1423.18 732.721,1404.28 "/>
<polyline clip-path="url(#clip180)" style="stroke:#000000; stroke-linecap:round; stroke-linejoin:round; stroke-width:4; stroke-opacity:1; fill:none" points="1272.73,1423.18 1272.73,1404.28 "/>
<polyline clip-path="url(#clip180)" style="stroke:#000000; stroke-linecap:round; stroke-linejoin:round; stroke-width:4; stroke-opacity:1; fill:none" points="1812.74,1423.18 1812.74,1404.28 "/>
<polyline clip-path="url(#clip180)" style="stroke:#000000; stroke-linecap:round; stroke-linejoin:round; stroke-width:4; stroke-opacity:1; fill:none" points="2352.76,1423.18 2352.76,1404.28 "/>
<path clip-path="url(#clip180)" d="M170.094 1454.1 Q166.482 1454.1 164.654 1457.66 Q162.848 1461.2 162.848 1468.33 Q162.848 1475.44 164.654 1479.01 Q166.482 1482.55 170.094 1482.55 Q173.728 1482.55 175.533 1479.01 Q177.362 1475.44 177.362 1468.33 Q177.362 1461.2 175.533 1457.66 Q173.728 1454.1 170.094 1454.1 M170.094 1450.39 Q175.904 1450.39 178.959 1455 Q182.038 1459.58 182.038 1468.33 Q182.038 1477.06 178.959 1481.67 Q175.904 1486.25 170.094 1486.25 Q164.283 1486.25 161.205 1481.67 Q158.149 1477.06 158.149 1468.33 Q158.149 1459.58 161.205 1455 Q164.283 1450.39 170.094 1450.39 Z" fill="#000000" fill-rule="nonzero" fill-opacity="1" /><path clip-path="url(#clip180)" d="M190.255 1479.7 L195.14 1479.7 L195.14 1485.58 L190.255 1485.58 L190.255 1479.7 Z" fill="#000000" fill-rule="nonzero" fill-opacity="1" /><path clip-path="url(#clip180)" d="M215.325 1454.1 Q211.714 1454.1 209.885 1457.66 Q208.079 1461.2 208.079 1468.33 Q208.079 1475.44 209.885 1479.01 Q211.714 1482.55 215.325 1482.55 Q218.959 1482.55 220.765 1479.01 Q222.593 1475.44 222.593 1468.33 Q222.593 1461.2 220.765 1457.66 Q218.959 1454.1 215.325 1454.1 M215.325 1450.39 Q221.135 1450.39 224.19 1455 Q227.269 1459.58 227.269 1468.33 Q227.269 1477.06 224.19 1481.67 Q221.135 1486.25 215.325 1486.25 Q209.515 1486.25 206.436 1481.67 Q203.38 1477.06 203.38 1468.33 Q203.38 1459.58 206.436 1455 Q209.515 1450.39 215.325 1450.39 Z" fill="#000000" fill-rule="nonzero" fill-opacity="1" /><path clip-path="url(#clip180)" d="M710.603 1454.1 Q706.992 1454.1 705.163 1457.66 Q703.358 1461.2 703.358 1468.33 Q703.358 1475.44 705.163 1479.01 Q706.992 1482.55 710.603 1482.55 Q714.237 1482.55 716.043 1479.01 Q717.871 1475.44 717.871 1468.33 Q717.871 1461.2 716.043 1457.66 Q714.237 1454.1 710.603 1454.1 M710.603 1450.39 Q716.413 1450.39 719.469 1455 Q722.547 1459.58 722.547 1468.33 Q722.547 1477.06 719.469 1481.67 Q716.413 1486.25 710.603 1486.25 Q704.793 1486.25 701.714 1481.67 Q698.659 1477.06 698.659 1468.33 Q698.659 1459.58 701.714 1455 Q704.793 1450.39 710.603 1450.39 Z" fill="#000000" fill-rule="nonzero" fill-opacity="1" /><path clip-path="url(#clip180)" d="M730.765 1479.7 L735.649 1479.7 L735.649 1485.58 L730.765 1485.58 L730.765 1479.7 Z" fill="#000000" fill-rule="nonzero" fill-opacity="1" /><path clip-path="url(#clip180)" d="M745.88 1451.02 L764.237 1451.02 L764.237 1454.96 L750.163 1454.96 L750.163 1463.43 Q751.181 1463.08 752.2 1462.92 Q753.218 1462.73 754.237 1462.73 Q760.024 1462.73 763.404 1465.9 Q766.783 1469.08 766.783 1474.49 Q766.783 1480.07 763.311 1483.17 Q759.839 1486.25 753.519 1486.25 Q751.343 1486.25 749.075 1485.88 Q746.83 1485.51 744.422 1484.77 L744.422 1480.07 Q746.505 1481.2 748.728 1481.76 Q750.95 1482.32 753.427 1482.32 Q757.431 1482.32 759.769 1480.21 Q762.107 1478.1 762.107 1474.49 Q762.107 1470.88 759.769 1468.77 Q757.431 1466.67 753.427 1466.67 Q751.552 1466.67 749.677 1467.08 Q747.825 1467.5 745.88 1468.38 L745.88 1451.02 Z" fill="#000000" fill-rule="nonzero" fill-opacity="1" /><path clip-path="url(#clip180)" d="M1239.89 1481.64 L1247.52 1481.64 L1247.52 1455.28 L1239.21 1456.95 L1239.21 1452.69 L1247.48 1451.02 L1252.15 1451.02 L1252.15 1481.64 L1259.79 1481.64 L1259.79 1485.58 L1239.89 1485.58 L1239.89 1481.64 Z" fill="#000000" fill-rule="nonzero" fill-opacity="1" /><path clip-path="url(#clip180)" d="M1269.24 1479.7 L1274.12 1479.7 L1274.12 1485.58 L1269.24 1485.58 L1269.24 1479.7 Z" fill="#000000" fill-rule="nonzero" fill-opacity="1" /><path clip-path="url(#clip180)" d="M1294.31 1454.1 Q1290.7 1454.1 1288.87 1457.66 Q1287.06 1461.2 1287.06 1468.33 Q1287.06 1475.44 1288.87 1479.01 Q1290.7 1482.55 1294.31 1482.55 Q1297.94 1482.55 1299.75 1479.01 Q1301.57 1475.44 1301.57 1468.33 Q1301.57 1461.2 1299.75 1457.66 Q1297.94 1454.1 1294.31 1454.1 M1294.31 1450.39 Q1300.12 1450.39 1303.17 1455 Q1306.25 1459.58 1306.25 1468.33 Q1306.25 1477.06 1303.17 1481.67 Q1300.12 1486.25 1294.31 1486.25 Q1288.5 1486.25 1285.42 1481.67 Q1282.36 1477.06 1282.36 1468.33 Q1282.36 1459.58 1285.42 1455 Q1288.5 1450.39 1294.31 1450.39 Z" fill="#000000" fill-rule="nonzero" fill-opacity="1" /><path clip-path="url(#clip180)" d="M1780.39 1481.64 L1788.03 1481.64 L1788.03 1455.28 L1779.72 1456.95 L1779.72 1452.69 L1787.99 1451.02 L1792.66 1451.02 L1792.66 1481.64 L1800.3 1481.64 L1800.3 1485.58 L1780.39 1485.58 L1780.39 1481.64 Z" fill="#000000" fill-rule="nonzero" fill-opacity="1" /><path clip-path="url(#clip180)" d="M1809.75 1479.7 L1814.63 1479.7 L1814.63 1485.58 L1809.75 1485.58 L1809.75 1479.7 Z" fill="#000000" fill-rule="nonzero" fill-opacity="1" /><path clip-path="url(#clip180)" d="M1824.86 1451.02 L1843.22 1451.02 L1843.22 1454.96 L1829.14 1454.96 L1829.14 1463.43 Q1830.16 1463.08 1831.18 1462.92 Q1832.2 1462.73 1833.22 1462.73 Q1839.01 1462.73 1842.39 1465.9 Q1845.76 1469.08 1845.76 1474.49 Q1845.76 1480.07 1842.29 1483.17 Q1838.82 1486.25 1832.5 1486.25 Q1830.33 1486.25 1828.06 1485.88 Q1825.81 1485.51 1823.4 1484.77 L1823.4 1480.07 Q1825.49 1481.2 1827.71 1481.76 Q1829.93 1482.32 1832.41 1482.32 Q1836.41 1482.32 1838.75 1480.21 Q1841.09 1478.1 1841.09 1474.49 Q1841.09 1470.88 1838.75 1468.77 Q1836.41 1466.67 1832.41 1466.67 Q1830.53 1466.67 1828.66 1467.08 Q1826.81 1467.5 1824.86 1468.38 L1824.86 1451.02 Z" fill="#000000" fill-rule="nonzero" fill-opacity="1" /><path clip-path="url(#clip180)" d="M2323.99 1481.64 L2340.31 1481.64 L2340.31 1485.58 L2318.37 1485.58 L2318.37 1481.64 Q2321.03 1478.89 2325.61 1474.26 Q2330.22 1469.61 2331.4 1468.27 Q2333.65 1465.74 2334.53 1464.01 Q2335.43 1462.25 2335.43 1460.56 Q2335.43 1457.8 2333.49 1456.07 Q2331.56 1454.33 2328.46 1454.33 Q2326.26 1454.33 2323.81 1455.09 Q2321.38 1455.86 2318.6 1457.41 L2318.6 1452.69 Q2321.43 1451.55 2323.88 1450.97 Q2326.33 1450.39 2328.37 1450.39 Q2333.74 1450.39 2336.93 1453.08 Q2340.13 1455.77 2340.13 1460.26 Q2340.13 1462.39 2339.32 1464.31 Q2338.53 1466.2 2336.42 1468.8 Q2335.85 1469.47 2332.74 1472.69 Q2329.64 1475.88 2323.99 1481.64 Z" fill="#000000" fill-rule="nonzero" fill-opacity="1" /><path clip-path="url(#clip180)" d="M2350.13 1479.7 L2355.01 1479.7 L2355.01 1485.58 L2350.13 1485.58 L2350.13 1479.7 Z" fill="#000000" fill-rule="nonzero" fill-opacity="1" /><path clip-path="url(#clip180)" d="M2375.2 1454.1 Q2371.59 1454.1 2369.76 1457.66 Q2367.95 1461.2 2367.95 1468.33 Q2367.95 1475.44 2369.76 1479.01 Q2371.59 1482.55 2375.2 1482.55 Q2378.83 1482.55 2380.64 1479.01 Q2382.47 1475.44 2382.47 1468.33 Q2382.47 1461.2 2380.64 1457.66 Q2378.83 1454.1 2375.2 1454.1 M2375.2 1450.39 Q2381.01 1450.39 2384.06 1455 Q2387.14 1459.58 2387.14 1468.33 Q2387.14 1477.06 2384.06 1481.67 Q2381.01 1486.25 2375.2 1486.25 Q2369.39 1486.25 2366.31 1481.67 Q2363.25 1477.06 2363.25 1468.33 Q2363.25 1459.58 2366.31 1455 Q2369.39 1450.39 2375.2 1450.39 Z" fill="#000000" fill-rule="nonzero" fill-opacity="1" /><path clip-path="url(#clip180)" d="M1271.79 1522.27 L1271.79 1532.4 L1283.86 1532.4 L1283.86 1536.95 L1271.79 1536.95 L1271.79 1556.3 Q1271.79 1560.66 1272.97 1561.9 Q1274.18 1563.14 1277.84 1563.14 L1283.86 1563.14 L1283.86 1568.04 L1277.84 1568.04 Q1271.06 1568.04 1268.48 1565.53 Q1265.91 1562.98 1265.91 1556.3 L1265.91 1536.95 L1261.61 1536.95 L1261.61 1532.4 L1265.91 1532.4 L1265.91 1522.27 L1271.79 1522.27 Z" fill="#000000" fill-rule="nonzero" fill-opacity="1" /><polyline clip-path="url(#clip180)" style="stroke:#000000; stroke-linecap:round; stroke-linejoin:round; stroke-width:4; stroke-opacity:1; fill:none" points="192.709,1423.18 192.709,47.2441 "/>
<polyline clip-path="url(#clip180)" style="stroke:#000000; stroke-linecap:round; stroke-linejoin:round; stroke-width:4; stroke-opacity:1; fill:none" points="192.709,1174.31 211.607,1174.31 "/>
<polyline clip-path="url(#clip180)" style="stroke:#000000; stroke-linecap:round; stroke-linejoin:round; stroke-width:4; stroke-opacity:1; fill:none" points="192.709,900.128 211.607,900.128 "/>
<polyline clip-path="url(#clip180)" style="stroke:#000000; stroke-linecap:round; stroke-linejoin:round; stroke-width:4; stroke-opacity:1; fill:none" points="192.709,625.946 211.607,625.946 "/>
<polyline clip-path="url(#clip180)" style="stroke:#000000; stroke-linecap:round; stroke-linejoin:round; stroke-width:4; stroke-opacity:1; fill:none" points="192.709,351.764 211.607,351.764 "/>
<polyline clip-path="url(#clip180)" style="stroke:#000000; stroke-linecap:round; stroke-linejoin:round; stroke-width:4; stroke-opacity:1; fill:none" points="192.709,77.5825 211.607,77.5825 "/>
<path clip-path="url(#clip180)" d="M51.3625 1174.76 L81.0383 1174.76 L81.0383 1178.7 L51.3625 1178.7 L51.3625 1174.76 Z" fill="#000000" fill-rule="nonzero" fill-opacity="1" /><path clip-path="url(#clip180)" d="M101.131 1160.11 Q97.5197 1160.11 95.691 1163.67 Q93.8854 1167.22 93.8854 1174.34 Q93.8854 1181.45 95.691 1185.02 Q97.5197 1188.56 101.131 1188.56 Q104.765 1188.56 106.571 1185.02 Q108.399 1181.45 108.399 1174.34 Q108.399 1167.22 106.571 1163.67 Q104.765 1160.11 101.131 1160.11 M101.131 1156.4 Q106.941 1156.4 109.996 1161.01 Q113.075 1165.59 113.075 1174.34 Q113.075 1183.07 109.996 1187.68 Q106.941 1192.26 101.131 1192.26 Q95.3206 1192.26 92.2419 1187.68 Q89.1864 1183.07 89.1864 1174.34 Q89.1864 1165.59 92.2419 1161.01 Q95.3206 1156.4 101.131 1156.4 Z" fill="#000000" fill-rule="nonzero" fill-opacity="1" /><path clip-path="url(#clip180)" d="M121.293 1185.71 L126.177 1185.71 L126.177 1191.59 L121.293 1191.59 L121.293 1185.71 Z" fill="#000000" fill-rule="nonzero" fill-opacity="1" /><path clip-path="url(#clip180)" d="M140.39 1187.65 L156.709 1187.65 L156.709 1191.59 L134.765 1191.59 L134.765 1187.65 Q137.427 1184.9 142.01 1180.27 Q146.617 1175.62 147.797 1174.28 Q150.043 1171.75 150.922 1170.02 Q151.825 1168.26 151.825 1166.57 Q151.825 1163.81 149.88 1162.08 Q147.959 1160.34 144.857 1160.34 Q142.658 1160.34 140.205 1161.1 Q137.774 1161.87 134.996 1163.42 L134.996 1158.7 Q137.82 1157.56 140.274 1156.98 Q142.728 1156.4 144.765 1156.4 Q150.135 1156.4 153.33 1159.09 Q156.524 1161.78 156.524 1166.27 Q156.524 1168.4 155.714 1170.32 Q154.927 1172.22 152.82 1174.81 Q152.242 1175.48 149.14 1178.7 Q146.038 1181.89 140.39 1187.65 Z" fill="#000000" fill-rule="nonzero" fill-opacity="1" /><path clip-path="url(#clip180)" d="M50.9921 900.579 L80.6679 900.579 L80.6679 904.515 L50.9921 904.515 L50.9921 900.579 Z" fill="#000000" fill-rule="nonzero" fill-opacity="1" /><path clip-path="url(#clip180)" d="M100.76 885.927 Q97.1493 885.927 95.3206 889.492 Q93.515 893.033 93.515 900.163 Q93.515 907.269 95.3206 910.834 Q97.1493 914.376 100.76 914.376 Q104.395 914.376 106.2 910.834 Q108.029 907.269 108.029 900.163 Q108.029 893.033 106.2 889.492 Q104.395 885.927 100.76 885.927 M100.76 882.223 Q106.571 882.223 109.626 886.83 Q112.705 891.413 112.705 900.163 Q112.705 908.89 109.626 913.496 Q106.571 918.079 100.76 918.079 Q94.9502 918.079 91.8715 913.496 Q88.816 908.89 88.816 900.163 Q88.816 891.413 91.8715 886.83 Q94.9502 882.223 100.76 882.223 Z" fill="#000000" fill-rule="nonzero" fill-opacity="1" /><path clip-path="url(#clip180)" d="M120.922 911.529 L125.807 911.529 L125.807 917.408 L120.922 917.408 L120.922 911.529 Z" fill="#000000" fill-rule="nonzero" fill-opacity="1" /><path clip-path="url(#clip180)" d="M136.802 913.473 L144.441 913.473 L144.441 887.107 L136.131 888.774 L136.131 884.515 L144.394 882.848 L149.07 882.848 L149.07 913.473 L156.709 913.473 L156.709 917.408 L136.802 917.408 L136.802 913.473 Z" fill="#000000" fill-rule="nonzero" fill-opacity="1" /><path clip-path="url(#clip180)" d="M99.5335 611.745 Q95.9224 611.745 94.0937 615.31 Q92.2882 618.851 92.2882 625.981 Q92.2882 633.087 94.0937 636.652 Q95.9224 640.194 99.5335 640.194 Q103.168 640.194 104.973 636.652 Q106.802 633.087 106.802 625.981 Q106.802 618.851 104.973 615.31 Q103.168 611.745 99.5335 611.745 M99.5335 608.041 Q105.344 608.041 108.399 612.648 Q111.478 617.231 111.478 625.981 Q111.478 634.708 108.399 639.314 Q105.344 643.898 99.5335 643.898 Q93.7234 643.898 90.6447 639.314 Q87.5892 634.708 87.5892 625.981 Q87.5892 617.231 90.6447 612.648 Q93.7234 608.041 99.5335 608.041 Z" fill="#000000" fill-rule="nonzero" fill-opacity="1" /><path clip-path="url(#clip180)" d="M119.695 637.347 L124.58 637.347 L124.58 643.226 L119.695 643.226 L119.695 637.347 Z" fill="#000000" fill-rule="nonzero" fill-opacity="1" /><path clip-path="url(#clip180)" d="M144.765 611.745 Q141.154 611.745 139.325 615.31 Q137.519 618.851 137.519 625.981 Q137.519 633.087 139.325 636.652 Q141.154 640.194 144.765 640.194 Q148.399 640.194 150.205 636.652 Q152.033 633.087 152.033 625.981 Q152.033 618.851 150.205 615.31 Q148.399 611.745 144.765 611.745 M144.765 608.041 Q150.575 608.041 153.63 612.648 Q156.709 617.231 156.709 625.981 Q156.709 634.708 153.63 639.314 Q150.575 643.898 144.765 643.898 Q138.955 643.898 135.876 639.314 Q132.82 634.708 132.82 625.981 Q132.82 617.231 135.876 612.648 Q138.955 608.041 144.765 608.041 Z" fill="#000000" fill-rule="nonzero" fill-opacity="1" /><path clip-path="url(#clip180)" d="M100.76 337.563 Q97.1493 337.563 95.3206 341.128 Q93.515 344.669 93.515 351.799 Q93.515 358.906 95.3206 362.47 Q97.1493 366.012 100.76 366.012 Q104.395 366.012 106.2 362.47 Q108.029 358.906 108.029 351.799 Q108.029 344.669 106.2 341.128 Q104.395 337.563 100.76 337.563 M100.76 333.859 Q106.571 333.859 109.626 338.466 Q112.705 343.049 112.705 351.799 Q112.705 360.526 109.626 365.132 Q106.571 369.716 100.76 369.716 Q94.9502 369.716 91.8715 365.132 Q88.816 360.526 88.816 351.799 Q88.816 343.049 91.8715 338.466 Q94.9502 333.859 100.76 333.859 Z" fill="#000000" fill-rule="nonzero" fill-opacity="1" /><path clip-path="url(#clip180)" d="M120.922 363.165 L125.807 363.165 L125.807 369.044 L120.922 369.044 L120.922 363.165 Z" fill="#000000" fill-rule="nonzero" fill-opacity="1" /><path clip-path="url(#clip180)" d="M136.802 365.109 L144.441 365.109 L144.441 338.744 L136.131 340.41 L136.131 336.151 L144.394 334.484 L149.07 334.484 L149.07 365.109 L156.709 365.109 L156.709 369.044 L136.802 369.044 L136.802 365.109 Z" fill="#000000" fill-rule="nonzero" fill-opacity="1" /><path clip-path="url(#clip180)" d="M101.131 63.3812 Q97.5197 63.3812 95.691 66.946 Q93.8854 70.4876 93.8854 77.6172 Q93.8854 84.7236 95.691 88.2884 Q97.5197 91.8301 101.131 91.8301 Q104.765 91.8301 106.571 88.2884 Q108.399 84.7236 108.399 77.6172 Q108.399 70.4876 106.571 66.946 Q104.765 63.3812 101.131 63.3812 M101.131 59.6775 Q106.941 59.6775 109.996 64.2839 Q113.075 68.8673 113.075 77.6172 Q113.075 86.344 109.996 90.9505 Q106.941 95.5338 101.131 95.5338 Q95.3206 95.5338 92.2419 90.9505 Q89.1864 86.344 89.1864 77.6172 Q89.1864 68.8673 92.2419 64.2839 Q95.3206 59.6775 101.131 59.6775 Z" fill="#000000" fill-rule="nonzero" fill-opacity="1" /><path clip-path="url(#clip180)" d="M121.293 88.9829 L126.177 88.9829 L126.177 94.8625 L121.293 94.8625 L121.293 88.9829 Z" fill="#000000" fill-rule="nonzero" fill-opacity="1" /><path clip-path="url(#clip180)" d="M140.39 90.9273 L156.709 90.9273 L156.709 94.8625 L134.765 94.8625 L134.765 90.9273 Q137.427 88.1727 142.01 83.5431 Q146.617 78.8903 147.797 77.5478 Q150.043 75.0246 150.922 73.2885 Q151.825 71.5293 151.825 69.8395 Q151.825 67.0849 149.88 65.3488 Q147.959 63.6127 144.857 63.6127 Q142.658 63.6127 140.205 64.3765 Q137.774 65.1404 134.996 66.6913 L134.996 61.9691 Q137.82 60.8349 140.274 60.2562 Q142.728 59.6775 144.765 59.6775 Q150.135 59.6775 153.33 62.3627 Q156.524 65.0478 156.524 69.5385 Q156.524 71.6682 155.714 73.5894 Q154.927 75.4876 152.82 78.0802 Q152.242 78.7515 149.14 81.969 Q146.038 85.1635 140.39 90.9273 Z" fill="#000000" fill-rule="nonzero" fill-opacity="1" /><polyline clip-path="url(#clip182)" style="stroke:#009af9; stroke-linecap:round; stroke-linejoin:round; stroke-width:4; stroke-opacity:1; fill:none" points="192.709,1384.24 194.871,1375.93 197.034,1367.7 199.196,1359.55 201.358,1351.48 203.52,1343.49 205.682,1335.59 207.845,1327.76 210.007,1320.01 212.169,1312.34 214.331,1304.74 216.493,1297.22 218.656,1289.77 220.818,1282.4 222.98,1275.1 225.142,1267.88 227.304,1260.72 229.467,1253.64 231.629,1246.63 233.791,1239.69 235.953,1232.81 238.116,1226.01 240.278,1219.27 242.44,1212.6 244.602,1206 246.764,1199.46 248.927,1192.99 251.089,1186.58 253.251,1180.24 255.413,1173.96 257.575,1167.74 259.738,1161.58 261.9,1155.49 264.062,1149.45 266.224,1143.48 268.386,1137.56 270.549,1131.71 272.711,1125.91 274.873,1120.17 277.035,1114.49 279.198,1108.86 281.36,1103.29 283.522,1097.78 285.684,1092.32 287.846,1086.91 290.009,1081.56 292.171,1076.26 294.333,1071.02 296.495,1065.82 298.657,1060.68 300.82,1055.59 302.982,1050.55 305.144,1045.56 307.306,1040.62 309.468,1035.73 311.631,1030.89 313.793,1026.1 315.955,1021.35 318.117,1016.66 320.279,1012 322.442,1007.4 324.604,1002.84 326.766,998.325 328.928,993.856 331.091,989.432 333.253,985.051 335.415,980.714 337.577,976.421 339.739,972.17 341.902,967.961 344.064,963.795 346.226,959.67 348.388,955.586 350.55,951.542 352.713,947.539 354.875,943.576 357.037,939.652 359.199,935.767 361.361,931.921 363.524,928.114 365.686,924.344 367.848,920.612 370.01,916.917 372.172,913.259 374.335,909.637 376.497,906.051 378.659,902.501 380.821,898.987 382.984,895.507 385.146,892.062 387.308,888.652 389.47,885.275 391.632,881.932 393.795,878.622 395.957,875.346 398.119,872.102 400.281,868.89 402.443,865.71 404.606,862.562 406.768,859.445 408.93,856.359 411.092,853.304 413.254,850.28 415.417,847.285 417.579,844.321 419.741,841.385 421.903,838.479 424.066,835.602 426.228,832.754 428.39,829.934 430.552,827.142 432.714,824.378 434.877,821.641 437.039,818.932 439.201,816.25 441.363,813.594 443.525,810.965 445.688,808.362 447.85,805.785 450.012,803.234 452.174,800.708 454.336,798.207 456.499,795.731 458.661,793.28 460.823,790.853 462.985,788.451 465.147,786.072 467.31,783.717 469.472,781.386 471.634,779.077 473.796,776.792 475.959,774.53 478.121,772.29 480.283,770.072 482.445,767.877 484.607,765.703 486.77,763.551 488.932,761.42 491.094,759.311 493.256,757.223 495.418,755.155 497.581,753.108 499.743,751.082 501.905,749.075 504.067,747.089 506.229,745.122 508.392,743.175 510.554,741.247 512.716,739.339 514.878,737.449 517.04,735.578 519.203,733.726 521.365,731.892 523.527,730.077 525.689,728.28 527.852,726.5 530.014,724.738 532.176,722.994 534.338,721.267 536.5,719.558 538.663,717.865 540.825,716.19 542.987,714.531 545.149,712.888 547.311,711.262 549.474,709.652 551.636,708.058 553.798,706.48 555.96,704.918 558.122,703.372 560.285,701.84 562.447,700.324 564.609,698.823 566.771,697.338 568.934,695.866 571.096,694.41 573.258,692.968 575.42,691.541 577.582,690.127 579.745,688.728 581.907,687.343 584.069,685.971 586.231,684.613 588.393,683.269 590.556,681.938 592.718,680.62 594.88,679.316 597.042,678.024 599.204,676.745 601.367,675.479 603.529,674.226 605.691,672.985 607.853,671.756 610.015,670.54 612.178,669.336 614.34,668.144 616.502,666.963 618.664,665.794 620.827,664.637 622.989,663.492 625.151,662.358 627.313,661.235 629.475,660.123 631.638,659.022 633.8,657.933 635.962,656.854 638.124,655.786 640.286,654.728 642.449,653.682 644.611,652.645 646.773,651.619 648.935,650.603 651.097,649.597 653.26,648.602 655.422,647.616 657.584,646.64 659.746,645.674 661.908,644.717 664.071,643.77 666.233,642.832 668.395,641.904 670.557,640.985 672.72,640.075 674.882,639.175 677.044,638.283 679.206,637.4 681.368,636.526 683.531,635.66 685.693,634.804 687.855,633.955 690.017,633.116 692.179,632.284 694.342,631.461 696.504,630.646 698.666,629.839 700.828,629.041 702.99,628.25 705.153,627.467 707.315,626.692 709.477,625.924 711.639,625.164 713.802,624.412 715.964,623.667 718.126,622.93 720.288,622.2 722.45,621.477 724.613,620.762 726.775,620.053 728.937,619.352 731.099,618.657 733.261,617.97 735.424,617.289 737.586,616.615 739.748,615.948 741.91,615.287 744.072,614.633 746.235,613.986 748.397,613.345 750.559,612.71 752.721,612.082 754.883,611.46 757.046,610.844 759.208,610.234 761.37,609.63 763.532,609.033 765.695,608.441 767.857,607.855 770.019,607.275 772.181,606.701 774.343,606.133 776.506,605.57 778.668,605.013 780.83,604.461 782.992,603.915 785.154,603.374 787.317,602.839 789.479,602.309 791.641,601.785 793.803,601.265 795.965,600.751 798.128,600.242 800.29,599.738 802.452,599.239 804.614,598.745 806.776,598.256 808.939,597.771 811.101,597.292 813.263,596.817 815.425,596.348 817.588,595.882 819.75,595.422 821.912,594.966 824.074,594.514 826.236,594.067 828.399,593.625 830.561,593.187 832.723,592.753 834.885,592.323 837.047,591.898 839.21,591.477 841.372,591.061 843.534,590.648 845.696,590.239 847.858,589.835 850.021,589.434 852.183,589.038 854.345,588.645 856.507,588.257 858.67,587.872 860.832,587.491 862.994,587.114 865.156,586.741 867.318,586.371 869.481,586.005 871.643,585.643 873.805,585.284 875.967,584.929 878.129,584.577 880.292,584.229 882.454,583.884 884.616,583.543 886.778,583.205 888.94,582.871 891.103,582.539 893.265,582.212 895.427,581.887 897.589,581.566 899.751,581.248 901.914,580.933 904.076,580.621 906.238,580.312 908.4,580.007 910.563,579.704 912.725,579.405 914.887,579.108 917.049,578.815 919.211,578.524 921.374,578.236 923.536,577.951 925.698,577.669 927.86,577.39 930.022,577.114 932.185,576.84 934.347,576.569 936.509,576.301 938.671,576.035 940.833,575.772 942.996,575.512 945.158,575.254 947.32,574.999 949.482,574.747 951.644,574.497 953.807,574.249 955.969,574.004 958.131,573.761 960.293,573.521 962.456,573.283 964.618,573.048 966.78,572.814 968.942,572.584 971.104,572.355 973.267,572.129 975.429,571.905 977.591,571.683 979.753,571.463 981.915,571.246 984.078,571.031 986.24,570.817 988.402,570.606 990.564,570.397 992.726,570.191 994.889,569.986 997.051,569.783 999.213,569.582 1001.38,569.383 1003.54,569.187 1005.7,568.992 1007.86,568.799 1010.02,568.608 1012.19,568.419 1014.35,568.232 1016.51,568.046 1018.67,567.863 1020.84,567.681 1023,567.501 1025.16,567.323 1027.32,567.147 1029.48,566.972 1031.65,566.8 1033.81,566.629 1035.97,566.459 1038.13,566.292 1040.3,566.126 1042.46,565.961 1044.62,565.799 1046.78,565.638 1048.94,565.478 1051.11,565.32 1053.27,565.164 1055.43,565.009 1057.59,564.856 1059.75,564.705 1061.92,564.555 1064.08,564.406 1066.24,564.259 1068.4,564.113 1070.57,563.969 1072.73,563.826 1074.89,563.685 1077.05,563.545 1079.21,563.407 1081.38,563.269 1083.54,563.134 1085.7,562.999 1087.86,562.866 1090.03,562.734 1092.19,562.604 1094.35,562.475 1096.51,562.347 1098.67,562.22 1100.84,562.095 1103,561.971 1105.16,561.848 1107.32,561.727 1109.49,561.606 1111.65,561.487 1113.81,561.369 1115.97,561.252 1118.13,561.136 1120.3,561.022 1122.46,560.908 1124.62,560.796 1126.78,560.685 1128.95,560.575 1131.11,560.466 1133.27,560.358 1135.43,560.251 1137.59,560.145 1139.76,560.041 1141.92,559.937 1144.08,559.834 1146.24,559.732 1148.41,559.632 1150.57,559.532 1152.73,559.434 1154.89,559.336 1157.05,559.239 1159.22,559.143 1161.38,559.049 1163.54,558.955 1165.7,558.862 1167.87,558.77 1170.03,558.679 1172.19,558.589 1174.35,558.499 1176.51,558.411 1178.68,558.324 1180.84,558.237 1183,558.151 1185.16,558.066 1187.33,557.982 1189.49,557.899 1191.65,557.817 1193.81,557.735 1195.97,557.654 1198.14,557.574 1200.3,557.495 1202.46,557.417 1204.62,557.339 1206.79,557.263 1208.95,557.187 1211.11,557.111 1213.27,557.037 1215.43,556.963 1217.6,556.89 1219.76,556.818 1221.92,556.746 1224.08,556.675 1226.25,556.605 1228.41,556.536 1230.57,556.467 1232.73,556.399 1234.89,556.332 1237.06,556.265 1239.22,556.199 1241.38,556.134 1243.54,556.069 1245.7,556.005 1247.87,555.942 1250.03,555.879 1252.19,555.817 1254.35,555.755 1256.52,555.694 1258.68,555.634 1260.84,555.574 1263,555.515 1265.16,555.456 1267.33,555.398 1269.49,555.341 1271.65,555.284 1273.81,555.228 1275.98,555.172 1278.14,555.117 1280.3,555.062 1282.46,555.008 1284.62,554.955 1286.79,554.902 1288.95,554.849 1291.11,554.797 1293.27,554.746 1295.44,554.695 1297.6,554.645 1299.76,554.595 1301.92,554.545 1304.08,554.496 1306.25,554.448 1308.41,554.4 1310.57,554.352 1312.73,554.305 1314.9,554.259 1317.06,554.212 1319.22,554.167 1321.38,554.122 1323.54,554.077 1325.71,554.033 1327.87,553.989 1330.03,553.945 1332.19,553.902 1334.36,553.86 1336.52,553.818 1338.68,553.776 1340.84,553.734 1343,553.694 1345.17,553.653 1347.33,553.613 1349.49,553.573 1351.65,553.534 1353.82,553.495 1355.98,553.457 1358.14,553.419 1360.3,553.381 1362.46,553.343 1364.63,553.306 1366.79,553.27 1368.95,553.234 1371.11,553.198 1373.28,553.162 1375.44,553.127 1377.6,553.092 1379.76,553.058 1381.92,553.024 1384.09,552.99 1386.25,552.956 1388.41,552.923 1390.57,552.891 1392.74,552.858 1394.9,552.826 1397.06,552.794 1399.22,552.763 1401.38,552.732 1403.55,552.701 1405.71,552.67 1407.87,552.64 1410.03,552.61 1412.2,552.58 1414.36,552.551 1416.52,552.522 1418.68,552.493 1420.84,552.465 1423.01,552.437 1425.17,552.409 1427.33,552.381 1429.49,552.354 1431.65,552.327 1433.82,552.3 1435.98,552.273 1438.14,552.247 1440.3,552.221 1442.47,552.195 1444.63,552.17 1446.79,552.144 1448.95,552.119 1451.11,552.095 1453.28,552.07 1455.44,552.046 1457.6,552.022 1459.76,551.998 1461.93,551.975 1464.09,551.951 1466.25,551.928 1468.41,551.905 1470.57,551.883 1472.74,551.86 1474.9,551.838 1477.06,551.816 1479.22,551.794 1481.39,551.773 1483.55,551.751 1485.71,551.73 1487.87,551.709 1490.03,551.689 1492.2,551.668 1494.36,551.648 1496.52,551.628 1498.68,551.608 1500.85,551.588 1503.01,551.569 1505.17,551.549 1507.33,551.53 1509.49,551.511 1511.66,551.493 1513.82,551.474 1515.98,551.456 1518.14,551.437 1520.31,551.419 1522.47,551.402 1524.63,551.384 1526.79,551.366 1528.95,551.349 1531.12,551.332 1533.28,551.315 1535.44,551.298 1537.6,551.282 1539.77,551.265 1541.93,551.249 1544.09,551.233 1546.25,551.217 1548.41,551.201 1550.58,551.185 1552.74,551.17 1554.9,551.155 1557.06,551.139 1559.23,551.124 1561.39,551.11 1563.55,551.095 1565.71,551.08 1567.87,551.066 1570.04,551.052 1572.2,551.037 1574.36,551.023 1576.52,551.01 1578.69,550.996 1580.85,550.982 1583.01,550.969 1585.17,550.956 1587.33,550.942 1589.5,550.929 1591.66,550.916 1593.82,550.904 1595.98,550.891 1598.14,550.879 1600.31,550.866 1602.47,550.854 1604.63,550.842 1606.79,550.83 1608.96,550.818 1611.12,550.806 1613.28,550.794 1615.44,550.783 1617.6,550.771 1619.77,550.76 1621.93,550.749 1624.09,550.738 1626.25,550.727 1628.42,550.716 1630.58,550.705 1632.74,550.694 1634.9,550.684 1637.06,550.673 1639.23,550.663 1641.39,550.653 1643.55,550.643 1645.71,550.632 1647.88,550.623 1650.04,550.613 1652.2,550.603 1654.36,550.593 1656.52,550.584 1658.69,550.574 1660.85,550.565 1663.01,550.556 1665.17,550.546 1667.34,550.537 1669.5,550.528 1671.66,550.519 1673.82,550.51 1675.98,550.502 1678.15,550.493 1680.31,550.484 1682.47,550.476 1684.63,550.467 1686.8,550.459 1688.96,550.451 1691.12,550.443 1693.28,550.435 1695.44,550.427 1697.61,550.419 1699.77,550.411 1701.93,550.403 1704.09,550.395 1706.26,550.388 1708.42,550.38 1710.58,550.373 1712.74,550.365 1714.9,550.358 1717.07,550.351 1719.23,550.344 1721.39,550.337 1723.55,550.33 1725.72,550.323 1727.88,550.316 1730.04,550.309 1732.2,550.302 1734.36,550.295 1736.53,550.289 1738.69,550.282 1740.85,550.276 1743.01,550.269 1745.18,550.263 1747.34,550.257 1749.5,550.25 1751.66,550.244 1753.82,550.238 1755.99,550.232 1758.15,550.226 1760.31,550.22 1762.47,550.214 1764.64,550.209 1766.8,550.203 1768.96,550.197 1771.12,550.192 1773.28,550.186 1775.45,550.18 1777.61,550.175 1779.77,550.17 1781.93,550.164 1784.09,550.159 1786.26,550.154 1788.42,550.149 1790.58,550.143 1792.74,550.138 1794.91,550.133 1797.07,550.128 1799.23,550.123 1801.39,550.118 1803.55,550.114 1805.72,550.109 1807.88,550.104 1810.04,550.099 1812.2,550.095 1814.37,550.09 1816.53,550.086 1818.69,550.081 1820.85,550.077 1823.01,550.072 1825.18,550.068 1827.34,550.064 1829.5,550.059 1831.66,550.055 1833.83,550.051 1835.99,550.047 1838.15,550.042 1840.31,550.038 1842.47,550.034 1844.64,550.03 1846.8,550.026 1848.96,550.022 1851.12,550.019 1853.29,550.015 1855.45,550.011 1857.61,550.007 1859.77,550.003 1861.93,550 1864.1,549.996 1866.26,549.992 1868.42,549.989 1870.58,549.985 1872.75,549.982 1874.91,549.978 1877.07,549.975 1879.23,549.971 1881.39,549.968 1883.56,549.965 1885.72,549.961 1887.88,549.958 1890.04,549.955 1892.21,549.951 1894.37,549.948 1896.53,549.945 1898.69,549.942 1900.85,549.939 1903.02,549.936 1905.18,549.933 1907.34,549.93 1909.5,549.927 1911.67,549.924 1913.83,549.921 1915.99,549.918 1918.15,549.915 1920.31,549.912 1922.48,549.909 1924.64,549.907 1926.8,549.904 1928.96,549.901 1931.13,549.899 1933.29,549.896 1935.45,549.893 1937.61,549.891 1939.77,549.888 1941.94,549.885 1944.1,549.883 1946.26,549.88 1948.42,549.878 1950.59,549.875 1952.75,549.873 1954.91,549.871 1957.07,549.868 1959.23,549.866 1961.4,549.864 1963.56,549.861 1965.72,549.859 1967.88,549.857 1970.04,549.854 1972.21,549.852 1974.37,549.85 1976.53,549.848 1978.69,549.846 1980.86,549.844 1983.02,549.841 1985.18,549.839 1987.34,549.837 1989.5,549.835 1991.67,549.833 1993.83,549.831 1995.99,549.829 1998.15,549.827 2000.32,549.825 2002.48,549.823 2004.64,549.822 2006.8,549.82 2008.96,549.818 2011.13,549.816 2013.29,549.814 2015.45,549.812 2017.61,549.811 2019.78,549.809 2021.94,549.807 2024.1,549.805 2026.26,549.804 2028.42,549.802 2030.59,549.8 2032.75,549.799 2034.91,549.797 2037.07,549.795 2039.24,549.794 2041.4,549.792 2043.56,549.79 2045.72,549.789 2047.88,549.787 2050.05,549.786 2052.21,549.784 2054.37,549.783 2056.53,549.781 2058.7,549.78 2060.86,549.778 2063.02,549.777 2065.18,549.775 2067.34,549.774 2069.51,549.773 2071.67,549.771 2073.83,549.77 2075.99,549.769 2078.16,549.767 2080.32,549.766 2082.48,549.764 2084.64,549.763 2086.8,549.762 2088.97,549.761 2091.13,549.759 2093.29,549.758 2095.45,549.757 2097.62,549.756 2099.78,549.754 2101.94,549.753 2104.1,549.752 2106.26,549.751 2108.43,549.749 2110.59,549.748 2112.75,549.747 2114.91,549.746 2117.08,549.745 2119.24,549.744 2121.4,549.743 2123.56,549.741 2125.72,549.74 2127.89,549.739 2130.05,549.738 2132.21,549.737 2134.37,549.736 2136.54,549.735 2138.7,549.734 2140.86,549.733 2143.02,549.732 2145.18,549.731 2147.35,549.73 2149.51,549.729 2151.67,549.728 2153.83,549.727 2155.99,549.726 2158.16,549.725 2160.32,549.724 2162.48,549.723 2164.64,549.722 2166.81,549.721 2168.97,549.721 2171.13,549.72 2173.29,549.719 2175.45,549.718 2177.62,549.717 2179.78,549.716 2181.94,549.715 2184.1,549.715 2186.27,549.714 2188.43,549.713 2190.59,549.712 2192.75,549.711 2194.91,549.71 2197.08,549.71 2199.24,549.709 2201.4,549.708 2203.56,549.707 2205.73,549.707 2207.89,549.706 2210.05,549.705 2212.21,549.704 2214.37,549.704 2216.54,549.703 2218.7,549.702 2220.86,549.702 2223.02,549.701 2225.19,549.7 2227.35,549.699 2229.51,549.699 2231.67,549.698 2233.83,549.697 2236,549.697 2238.16,549.696 2240.32,549.696 2242.48,549.695 2244.65,549.694 2246.81,549.694 2248.97,549.693 2251.13,549.692 2253.29,549.692 2255.46,549.691 2257.62,549.691 2259.78,549.69 2261.94,549.69 2264.11,549.689 2266.27,549.688 2268.43,549.688 2270.59,549.687 2272.75,549.687 2274.92,549.686 2277.08,549.686 2279.24,549.685 2281.4,549.685 2283.57,549.684 2285.73,549.684 2287.89,549.683 2290.05,549.683 2292.21,549.682 2294.38,549.682 2296.54,549.681 2298.7,549.681 2300.86,549.68 2303.03,549.68 2305.19,549.679 2307.35,549.679 2309.51,549.678 2311.67,549.678 2313.84,549.677 2316,549.677 2318.16,549.676 2320.32,549.676 2322.48,549.676 2324.65,549.675 2326.81,549.675 2328.97,549.674 2331.13,549.674 2333.3,549.673 2335.46,549.673 2337.62,549.673 2339.78,549.672 2341.94,549.672 2344.11,549.671 2346.27,549.671 2348.43,549.671 2350.59,549.67 2352.76,549.67 "/>
<polyline clip-path="url(#clip182)" style="stroke:#e26f46; stroke-linecap:round; stroke-linejoin:round; stroke-width:4; stroke-opacity:1; fill:none" points="192.709,765.261 194.871,752.04 197.034,739.017 199.196,726.19 201.358,713.556 203.52,701.113 205.682,688.859 207.845,676.791 210.007,664.908 212.169,653.206 214.331,641.684 216.493,630.34 218.656,619.171 220.818,608.175 222.98,597.351 225.142,586.695 227.304,576.207 229.467,565.884 231.629,555.724 233.791,545.725 235.953,535.885 238.116,526.202 240.278,516.675 242.44,507.3 244.602,498.078 246.764,489.004 248.927,480.079 251.089,471.3 253.251,462.664 255.413,454.172 257.575,445.819 259.738,437.606 261.9,429.53 264.062,421.589 266.224,413.783 268.386,406.108 270.549,398.564 272.711,391.148 274.873,383.86 277.035,376.698 279.198,369.66 281.36,362.744 283.522,355.949 285.684,349.274 287.846,342.717 290.009,336.276 292.171,329.95 294.333,323.738 296.495,317.638 298.657,311.649 300.82,305.769 302.982,299.998 305.144,294.332 307.306,288.773 309.468,283.317 311.631,277.963 313.793,272.711 315.955,267.559 318.117,262.506 320.279,257.549 322.442,252.69 324.604,247.925 326.766,243.253 328.928,238.675 331.091,234.187 333.253,229.79 335.415,225.481 337.577,221.261 339.739,217.127 341.902,213.078 344.064,209.114 346.226,205.233 348.388,201.434 350.55,197.716 352.713,194.079 354.875,190.52 357.037,187.039 359.199,183.636 361.361,180.308 363.524,177.055 365.686,173.876 367.848,170.77 370.01,167.736 372.172,164.773 374.335,161.88 376.497,159.056 378.659,156.3 380.821,153.612 382.984,150.99 385.146,148.433 387.308,145.941 389.47,143.513 391.632,141.147 393.795,138.844 395.957,136.601 398.119,134.419 400.281,132.296 402.443,130.232 404.606,128.226 406.768,126.276 408.93,124.383 411.092,122.545 413.254,120.762 415.417,119.033 417.579,117.357 419.741,115.733 421.903,114.161 424.066,112.639 426.228,111.168 428.39,109.747 430.552,108.374 432.714,107.049 434.877,105.772 437.039,104.541 439.201,103.357 441.363,102.218 443.525,101.124 445.688,100.074 447.85,99.0677 450.012,98.1042 452.174,97.183 454.336,96.3034 456.499,95.4649 458.661,94.6669 460.823,93.9087 462.985,93.1898 465.147,92.5095 467.31,91.8674 469.472,91.2627 471.634,90.6951 473.796,90.1639 475.959,89.6685 478.121,89.2084 480.283,88.7831 482.445,88.392 484.607,88.0347 486.77,87.7106 488.932,87.4191 491.094,87.1599 493.256,86.9323 495.418,86.7359 497.581,86.5702 499.743,86.4347 501.905,86.329 504.067,86.2525 506.229,86.2049 508.392,86.1857 510.554,86.1943 512.716,86.2303 514.878,86.2933 517.04,86.3829 519.203,86.4987 521.365,86.6402 523.527,86.807 525.689,86.9988 527.852,87.2152 530.014,87.4556 532.176,87.7199 534.338,88.0075 536.5,88.3181 538.663,88.6513 540.825,89.0067 542.987,89.384 545.149,89.7828 547.311,90.2028 549.474,90.6435 551.636,91.1046 553.798,91.5858 555.96,92.0867 558.122,92.6069 560.285,93.1462 562.447,93.7042 564.609,94.2805 566.771,94.8749 568.934,95.487 571.096,96.1165 573.258,96.763 575.42,97.4263 577.582,98.106 579.745,98.8019 581.907,99.5136 584.069,100.241 586.231,100.983 588.393,101.741 590.556,102.513 592.718,103.299 594.88,104.1 597.042,104.914 599.204,105.742 601.367,106.584 603.529,107.438 605.691,108.305 607.853,109.185 610.015,110.076 612.178,110.98 614.34,111.896 616.502,112.823 618.664,113.761 620.827,114.711 622.989,115.671 625.151,116.641 627.313,117.623 629.475,118.614 631.638,119.615 633.8,120.626 635.962,121.647 638.124,122.676 640.286,123.715 642.449,124.763 644.611,125.82 646.773,126.885 648.935,127.958 651.097,129.04 653.26,130.129 655.422,131.226 657.584,132.331 659.746,133.443 661.908,134.563 664.071,135.689 666.233,136.822 668.395,137.962 670.557,139.108 672.72,140.261 674.882,141.419 677.044,142.584 679.206,143.755 681.368,144.931 683.531,146.112 685.693,147.299 687.855,148.491 690.017,149.688 692.179,150.89 694.342,152.097 696.504,153.308 698.666,154.523 700.828,155.743 702.99,156.967 705.153,158.195 707.315,159.427 709.477,160.662 711.639,161.901 713.802,163.143 715.964,164.389 718.126,165.637 720.288,166.889 722.45,168.144 724.613,169.401 726.775,170.662 728.937,171.924 731.099,173.189 733.261,174.457 735.424,175.726 737.586,176.998 739.748,178.272 741.91,179.547 744.072,180.825 746.235,182.104 748.397,183.384 750.559,184.666 752.721,185.95 754.883,187.235 757.046,188.521 759.208,189.808 761.37,191.096 763.532,192.385 765.695,193.675 767.857,194.966 770.019,196.257 772.181,197.549 774.343,198.842 776.506,200.135 778.668,201.428 780.83,202.721 782.992,204.015 785.154,205.309 787.317,206.602 789.479,207.896 791.641,209.189 793.803,210.483 795.965,211.776 798.128,213.068 800.29,214.36 802.452,215.652 804.614,216.943 806.776,218.233 808.939,219.523 811.101,220.812 813.263,222.1 815.425,223.387 817.588,224.673 819.75,225.958 821.912,227.242 824.074,228.524 826.236,229.806 828.399,231.086 830.561,232.365 832.723,233.642 834.885,234.918 837.047,236.192 839.21,237.465 841.372,238.736 843.534,240.006 845.696,241.274 847.858,242.54 850.021,243.804 852.183,245.066 854.345,246.327 856.507,247.585 858.67,248.841 860.832,250.096 862.994,251.348 865.156,252.598 867.318,253.846 869.481,255.092 871.643,256.335 873.805,257.577 875.967,258.816 878.129,260.052 880.292,261.287 882.454,262.518 884.616,263.748 886.778,264.975 888.94,266.199 891.103,267.421 893.265,268.641 895.427,269.857 897.589,271.071 899.751,272.283 901.914,273.492 904.076,274.698 906.238,275.901 908.4,277.102 910.563,278.299 912.725,279.494 914.887,280.686 917.049,281.876 919.211,283.062 921.374,284.245 923.536,285.426 925.698,286.603 927.86,287.777 930.022,288.949 932.185,290.117 934.347,291.282 936.509,292.445 938.671,293.604 940.833,294.759 942.996,295.912 945.158,297.062 947.32,298.208 949.482,299.351 951.644,300.491 953.807,301.628 955.969,302.761 958.131,303.891 960.293,305.018 962.456,306.142 964.618,307.262 966.78,308.379 968.942,309.492 971.104,310.602 973.267,311.709 975.429,312.812 977.591,313.912 979.753,315.008 981.915,316.101 984.078,317.19 986.24,318.276 988.402,319.359 990.564,320.438 992.726,321.513 994.889,322.585 997.051,323.654 999.213,324.719 1001.38,325.78 1003.54,326.838 1005.7,327.892 1007.86,328.943 1010.02,329.99 1012.19,331.034 1014.35,332.074 1016.51,333.111 1018.67,334.144 1020.84,335.174 1023,336.2 1025.16,337.222 1027.32,338.241 1029.48,339.256 1031.65,340.268 1033.81,341.276 1035.97,342.281 1038.13,343.282 1040.3,344.279 1042.46,345.273 1044.62,346.263 1046.78,347.25 1048.94,348.233 1051.11,349.212 1053.27,350.188 1055.43,351.16 1057.59,352.129 1059.75,353.094 1061.92,354.056 1064.08,355.014 1066.24,355.968 1068.4,356.918 1070.57,357.866 1072.73,358.809 1074.89,359.749 1077.05,360.685 1079.21,361.618 1081.38,362.547 1083.54,363.473 1085.7,364.394 1087.86,365.313 1090.03,366.227 1092.19,367.139 1094.35,368.046 1096.51,368.95 1098.67,369.85 1100.84,370.747 1103,371.64 1105.16,372.53 1107.32,373.416 1109.49,374.299 1111.65,375.178 1113.81,376.053 1115.97,376.925 1118.13,377.793 1120.3,378.657 1122.46,379.519 1124.62,380.376 1126.78,381.23 1128.95,382.081 1131.11,382.927 1133.27,383.771 1135.43,384.611 1137.59,385.447 1139.76,386.28 1141.92,387.109 1144.08,387.935 1146.24,388.757 1148.41,389.576 1150.57,390.391 1152.73,391.203 1154.89,392.012 1157.05,392.817 1159.22,393.618 1161.38,394.416 1163.54,395.211 1165.7,396.002 1167.87,396.79 1170.03,397.575 1172.19,398.356 1174.35,399.133 1176.51,399.908 1178.68,400.679 1180.84,401.446 1183,402.21 1185.16,402.971 1187.33,403.729 1189.49,404.483 1191.65,405.234 1193.81,405.981 1195.97,406.726 1198.14,407.467 1200.3,408.204 1202.46,408.939 1204.62,409.67 1206.79,410.398 1208.95,411.123 1211.11,411.844 1213.27,412.562 1215.43,413.277 1217.6,413.989 1219.76,414.697 1221.92,415.403 1224.08,416.105 1226.25,416.804 1228.41,417.5 1230.57,418.192 1232.73,418.882 1234.89,419.568 1237.06,420.251 1239.22,420.931 1241.38,421.608 1243.54,422.282 1245.7,422.953 1247.87,423.62 1250.03,424.285 1252.19,424.946 1254.35,425.604 1256.52,426.26 1258.68,426.912 1260.84,427.561 1263,428.207 1265.16,428.85 1267.33,429.49 1269.49,430.128 1271.65,430.762 1273.81,431.393 1275.98,432.021 1278.14,432.646 1280.3,433.268 1282.46,433.888 1284.62,434.504 1286.79,435.117 1288.95,435.728 1291.11,436.335 1293.27,436.94 1295.44,437.541 1297.6,438.14 1299.76,438.736 1301.92,439.329 1304.08,439.92 1306.25,440.507 1308.41,441.091 1310.57,441.673 1312.73,442.252 1314.9,442.828 1317.06,443.402 1319.22,443.972 1321.38,444.54 1323.54,445.105 1325.71,445.667 1327.87,446.227 1330.03,446.784 1332.19,447.338 1334.36,447.889 1336.52,448.438 1338.68,448.984 1340.84,449.527 1343,450.068 1345.17,450.606 1347.33,451.141 1349.49,451.674 1351.65,452.204 1353.82,452.732 1355.98,453.257 1358.14,453.779 1360.3,454.299 1362.46,454.816 1364.63,455.331 1366.79,455.843 1368.95,456.352 1371.11,456.859 1373.28,457.364 1375.44,457.866 1377.6,458.366 1379.76,458.863 1381.92,459.357 1384.09,459.849 1386.25,460.339 1388.41,460.826 1390.57,461.311 1392.74,461.793 1394.9,462.273 1397.06,462.75 1399.22,463.226 1401.38,463.698 1403.55,464.169 1405.71,464.637 1407.87,465.102 1410.03,465.565 1412.2,466.026 1414.36,466.485 1416.52,466.941 1418.68,467.395 1420.84,467.847 1423.01,468.296 1425.17,468.743 1427.33,469.188 1429.49,469.63 1431.65,470.07 1433.82,470.508 1435.98,470.944 1438.14,471.378 1440.3,471.809 1442.47,472.238 1444.63,472.665 1446.79,473.09 1448.95,473.512 1451.11,473.932 1453.28,474.351 1455.44,474.767 1457.6,475.18 1459.76,475.592 1461.93,476.002 1464.09,476.409 1466.25,476.814 1468.41,477.218 1470.57,477.619 1472.74,478.018 1474.9,478.415 1477.06,478.81 1479.22,479.203 1481.39,479.593 1483.55,479.982 1485.71,480.369 1487.87,480.754 1490.03,481.136 1492.2,481.517 1494.36,481.896 1496.52,482.273 1498.68,482.647 1500.85,483.02 1503.01,483.391 1505.17,483.76 1507.33,484.127 1509.49,484.492 1511.66,484.855 1513.82,485.216 1515.98,485.576 1518.14,485.933 1520.31,486.289 1522.47,486.642 1524.63,486.994 1526.79,487.344 1528.95,487.692 1531.12,488.039 1533.28,488.383 1535.44,488.726 1537.6,489.067 1539.77,489.406 1541.93,489.743 1544.09,490.079 1546.25,490.412 1548.41,490.744 1550.58,491.074 1552.74,491.403 1554.9,491.729 1557.06,492.054 1559.23,492.378 1561.39,492.699 1563.55,493.019 1565.71,493.337 1567.87,493.653 1570.04,493.968 1572.2,494.281 1574.36,494.592 1576.52,494.902 1578.69,495.21 1580.85,495.516 1583.01,495.821 1585.17,496.124 1587.33,496.426 1589.5,496.726 1591.66,497.024 1593.82,497.321 1595.98,497.616 1598.14,497.909 1600.31,498.201 1602.47,498.492 1604.63,498.78 1606.79,499.068 1608.96,499.353 1611.12,499.638 1613.28,499.92 1615.44,500.201 1617.6,500.481 1619.77,500.759 1621.93,501.035 1624.09,501.311 1626.25,501.584 1628.42,501.856 1630.58,502.127 1632.74,502.396 1634.9,502.664 1637.06,502.93 1639.23,503.195 1641.39,503.458 1643.55,503.72 1645.71,503.981 1647.88,504.24 1650.04,504.497 1652.2,504.754 1654.36,505.009 1656.52,505.262 1658.69,505.514 1660.85,505.765 1663.01,506.014 1665.17,506.262 1667.34,506.509 1669.5,506.754 1671.66,506.998 1673.82,507.241 1675.98,507.482 1678.15,507.722 1680.31,507.96 1682.47,508.198 1684.63,508.434 1686.8,508.669 1688.96,508.902 1691.12,509.134 1693.28,509.365 1695.44,509.595 1697.61,509.823 1699.77,510.05 1701.93,510.276 1704.09,510.501 1706.26,510.724 1708.42,510.946 1710.58,511.167 1712.74,511.387 1714.9,511.605 1717.07,511.823 1719.23,512.039 1721.39,512.254 1723.55,512.467 1725.72,512.68 1727.88,512.891 1730.04,513.102 1732.2,513.311 1734.36,513.519 1736.53,513.725 1738.69,513.931 1740.85,514.135 1743.01,514.339 1745.18,514.541 1747.34,514.742 1749.5,514.942 1751.66,515.141 1753.82,515.339 1755.99,515.535 1758.15,515.731 1760.31,515.925 1762.47,516.119 1764.64,516.311 1766.8,516.502 1768.96,516.693 1771.12,516.882 1773.28,517.07 1775.45,517.257 1777.61,517.443 1779.77,517.628 1781.93,517.812 1784.09,517.995 1786.26,518.177 1788.42,518.358 1790.58,518.538 1792.74,518.717 1794.91,518.894 1797.07,519.071 1799.23,519.247 1801.39,519.422 1803.55,519.596 1805.72,519.769 1807.88,519.941 1810.04,520.112 1812.2,520.282 1814.37,520.451 1816.53,520.62 1818.69,520.787 1820.85,520.953 1823.01,521.119 1825.18,521.283 1827.34,521.447 1829.5,521.609 1831.66,521.771 1833.83,521.932 1835.99,522.092 1838.15,522.251 1840.31,522.409 1842.47,522.566 1844.64,522.722 1846.8,522.878 1848.96,523.032 1851.12,523.186 1853.29,523.339 1855.45,523.491 1857.61,523.642 1859.77,523.792 1861.93,523.942 1864.1,524.09 1866.26,524.238 1868.42,524.385 1870.58,524.531 1872.75,524.676 1874.91,524.82 1877.07,524.964 1879.23,525.107 1881.39,525.249 1883.56,525.39 1885.72,525.531 1887.88,525.67 1890.04,525.809 1892.21,525.947 1894.37,526.084 1896.53,526.221 1898.69,526.356 1900.85,526.491 1903.02,526.626 1905.18,526.759 1907.34,526.892 1909.5,527.024 1911.67,527.155 1913.83,527.285 1915.99,527.415 1918.15,527.544 1920.31,527.672 1922.48,527.799 1924.64,527.926 1926.8,528.052 1928.96,528.178 1931.13,528.302 1933.29,528.426 1935.45,528.549 1937.61,528.672 1939.77,528.794 1941.94,528.915 1944.1,529.035 1946.26,529.155 1948.42,529.274 1950.59,529.392 1952.75,529.51 1954.91,529.627 1957.07,529.743 1959.23,529.859 1961.4,529.974 1963.56,530.089 1965.72,530.202 1967.88,530.315 1970.04,530.428 1972.21,530.54 1974.37,530.651 1976.53,530.761 1978.69,530.871 1980.86,530.98 1983.02,531.089 1985.18,531.197 1987.34,531.305 1989.5,531.411 1991.67,531.518 1993.83,531.623 1995.99,531.728 1998.15,531.833 2000.32,531.936 2002.48,532.039 2004.64,532.142 2006.8,532.244 2008.96,532.346 2011.13,532.446 2013.29,532.547 2015.45,532.646 2017.61,532.745 2019.78,532.844 2021.94,532.942 2024.1,533.039 2026.26,533.136 2028.42,533.233 2030.59,533.328 2032.75,533.424 2034.91,533.518 2037.07,533.612 2039.24,533.706 2041.4,533.799 2043.56,533.892 2045.72,533.984 2047.88,534.075 2050.05,534.166 2052.21,534.256 2054.37,534.346 2056.53,534.436 2058.7,534.525 2060.86,534.613 2063.02,534.701 2065.18,534.788 2067.34,534.875 2069.51,534.961 2071.67,535.047 2073.83,535.133 2075.99,535.217 2078.16,535.302 2080.32,535.386 2082.48,535.469 2084.64,535.552 2086.8,535.634 2088.97,535.716 2091.13,535.798 2093.29,535.879 2095.45,535.959 2097.62,536.039 2099.78,536.119 2101.94,536.198 2104.1,536.277 2106.26,536.355 2108.43,536.433 2110.59,536.51 2112.75,536.587 2114.91,536.664 2117.08,536.74 2119.24,536.815 2121.4,536.891 2123.56,536.965 2125.72,537.04 2127.89,537.113 2130.05,537.187 2132.21,537.26 2134.37,537.333 2136.54,537.405 2138.7,537.476 2140.86,537.548 2143.02,537.619 2145.18,537.689 2147.35,537.759 2149.51,537.829 2151.67,537.898 2153.83,537.967 2155.99,538.036 2158.16,538.104 2160.32,538.172 2162.48,538.239 2164.64,538.306 2166.81,538.372 2168.97,538.438 2171.13,538.504 2173.29,538.57 2175.45,538.635 2177.62,538.699 2179.78,538.763 2181.94,538.827 2184.1,538.891 2186.27,538.954 2188.43,539.017 2190.59,539.079 2192.75,539.141 2194.91,539.203 2197.08,539.264 2199.24,539.325 2201.4,539.386 2203.56,539.446 2205.73,539.506 2207.89,539.566 2210.05,539.625 2212.21,539.684 2214.37,539.742 2216.54,539.8 2218.7,539.858 2220.86,539.916 2223.02,539.973 2225.19,540.03 2227.35,540.086 2229.51,540.142 2231.67,540.198 2233.83,540.254 2236,540.309 2238.16,540.364 2240.32,540.418 2242.48,540.473 2244.65,540.527 2246.81,540.58 2248.97,540.634 2251.13,540.687 2253.29,540.739 2255.46,540.792 2257.62,540.844 2259.78,540.895 2261.94,540.947 2264.11,540.998 2266.27,541.049 2268.43,541.1 2270.59,541.15 2272.75,541.2 2274.92,541.25 2277.08,541.299 2279.24,541.348 2281.4,541.397 2283.57,541.445 2285.73,541.494 2287.89,541.542 2290.05,541.589 2292.21,541.637 2294.38,541.684 2296.54,541.731 2298.7,541.777 2300.86,541.824 2303.03,541.87 2305.19,541.916 2307.35,541.961 2309.51,542.006 2311.67,542.051 2313.84,542.096 2316,542.141 2318.16,542.185 2320.32,542.229 2322.48,542.272 2324.65,542.316 2326.81,542.359 2328.97,542.402 2331.13,542.445 2333.3,542.487 2335.46,542.529 2337.62,542.571 2339.78,542.613 2341.94,542.654 2344.11,542.696 2346.27,542.737 2348.43,542.777 2350.59,542.818 2352.76,542.858 "/>
<path clip-path="url(#clip180)" d="M1805.35 248.629 L2280.75 248.629 L2280.75 93.1086 L1805.35 93.1086  Z" fill="#ffffff" fill-rule="evenodd" fill-opacity="1"/>
<polyline clip-path="url(#clip180)" style="stroke:#000000; stroke-linecap:round; stroke-linejoin:round; stroke-width:4; stroke-opacity:1; fill:none" points="1805.35,248.629 2280.75,248.629 2280.75,93.1086 1805.35,93.1086 1805.35,248.629 "/>
<polyline clip-path="url(#clip180)" style="stroke:#009af9; stroke-linecap:round; stroke-linejoin:round; stroke-width:4; stroke-opacity:1; fill:none" points="1829.35,144.949 1973.36,144.949 "/>
<path clip-path="url(#clip180)" d="M1997.36 136.303 L2001.87 136.303 L2009.97 158.062 L2018.07 136.303 L2022.59 136.303 L2012.87 162.229 L2007.08 162.229 L1997.36 136.303 Z" fill="#000000" fill-rule="nonzero" fill-opacity="1" /><path clip-path="url(#clip180)" d="M2029.88 158.293 L2037.52 158.293 L2037.52 131.928 L2029.21 133.595 L2029.21 129.335 L2037.47 127.669 L2042.15 127.669 L2042.15 158.293 L2049.79 158.293 L2049.79 162.229 L2029.88 162.229 L2029.88 158.293 Z" fill="#000000" fill-rule="nonzero" fill-opacity="1" /><path clip-path="url(#clip180)" d="M2067.89 145.585 L2067.89 152.807 L2076.01 152.807 L2076.01 155.006 L2067.89 155.006 L2067.89 162.229 L2065.46 162.229 L2065.46 155.006 L2057.33 155.006 L2057.33 152.807 L2065.46 152.807 L2065.46 145.585 L2067.89 145.585 Z" fill="#000000" fill-rule="nonzero" fill-opacity="1" /><path clip-path="url(#clip180)" d="M2100.18 137.067 L2100.18 141.094 Q2098.38 140.169 2096.43 139.706 Q2094.49 139.243 2092.4 139.243 Q2089.23 139.243 2087.63 140.215 Q2086.06 141.187 2086.06 143.131 Q2086.06 144.613 2087.19 145.469 Q2088.33 146.303 2091.75 147.067 L2093.21 147.391 Q2097.75 148.363 2099.65 150.145 Q2101.57 151.905 2101.57 155.076 Q2101.57 158.687 2098.7 160.793 Q2095.85 162.9 2090.85 162.9 Q2088.77 162.9 2086.5 162.483 Q2084.25 162.09 2081.75 161.28 L2081.75 156.881 Q2084.12 158.108 2086.41 158.733 Q2088.7 159.335 2090.94 159.335 Q2093.95 159.335 2095.57 158.317 Q2097.19 157.275 2097.19 155.4 Q2097.19 153.664 2096.01 152.738 Q2094.86 151.812 2090.9 150.956 L2089.42 150.608 Q2085.46 149.775 2083.7 148.062 Q2081.94 146.326 2081.94 143.317 Q2081.94 139.659 2084.53 137.669 Q2087.13 135.678 2091.89 135.678 Q2094.25 135.678 2096.34 136.025 Q2098.42 136.372 2100.18 137.067 Z" fill="#000000" fill-rule="nonzero" fill-opacity="1" /><path clip-path="url(#clip180)" d="M2112.56 128.942 L2112.56 136.303 L2121.34 136.303 L2121.34 139.613 L2112.56 139.613 L2112.56 153.687 Q2112.56 156.858 2113.42 157.761 Q2114.3 158.664 2116.96 158.664 L2121.34 158.664 L2121.34 162.229 L2116.96 162.229 Q2112.03 162.229 2110.16 160.4 Q2108.28 158.548 2108.28 153.687 L2108.28 139.613 L2105.16 139.613 L2105.16 136.303 L2108.28 136.303 L2108.28 128.942 L2112.56 128.942 Z" fill="#000000" fill-rule="nonzero" fill-opacity="1" /><path clip-path="url(#clip180)" d="M2136.99 139.289 Q2133.56 139.289 2131.57 141.974 Q2129.58 144.636 2129.58 149.289 Q2129.58 153.942 2131.55 156.627 Q2133.54 159.289 2136.99 159.289 Q2140.39 159.289 2142.38 156.604 Q2144.37 153.918 2144.37 149.289 Q2144.37 144.682 2142.38 141.997 Q2140.39 139.289 2136.99 139.289 M2136.99 135.678 Q2142.54 135.678 2145.71 139.289 Q2148.88 142.9 2148.88 149.289 Q2148.88 155.655 2145.71 159.289 Q2142.54 162.9 2136.99 162.9 Q2131.41 162.9 2128.24 159.289 Q2125.09 155.655 2125.09 149.289 Q2125.09 142.9 2128.24 139.289 Q2131.41 135.678 2136.99 135.678 Z" fill="#000000" fill-rule="nonzero" fill-opacity="1" /><path clip-path="url(#clip180)" d="M2170.97 140.284 Q2170.25 139.868 2169.39 139.682 Q2168.56 139.474 2167.54 139.474 Q2163.93 139.474 2161.99 141.835 Q2160.06 144.173 2160.06 148.571 L2160.06 162.229 L2155.78 162.229 L2155.78 136.303 L2160.06 136.303 L2160.06 140.331 Q2161.41 137.969 2163.56 136.835 Q2165.71 135.678 2168.79 135.678 Q2169.23 135.678 2169.76 135.747 Q2170.3 135.794 2170.94 135.909 L2170.97 140.284 Z" fill="#000000" fill-rule="nonzero" fill-opacity="1" /><path clip-path="url(#clip180)" d="M2187.22 149.196 Q2182.06 149.196 2180.06 150.377 Q2178.07 151.557 2178.07 154.405 Q2178.07 156.673 2179.56 158.016 Q2181.06 159.335 2183.63 159.335 Q2187.17 159.335 2189.3 156.835 Q2191.45 154.312 2191.45 150.145 L2191.45 149.196 L2187.22 149.196 M2195.71 147.437 L2195.71 162.229 L2191.45 162.229 L2191.45 158.293 Q2189.99 160.655 2187.82 161.789 Q2185.64 162.9 2182.49 162.9 Q2178.51 162.9 2176.15 160.678 Q2173.81 158.432 2173.81 154.682 Q2173.81 150.307 2176.73 148.085 Q2179.67 145.863 2185.48 145.863 L2191.45 145.863 L2191.45 145.446 Q2191.45 142.507 2189.51 140.909 Q2187.59 139.289 2184.09 139.289 Q2181.87 139.289 2179.76 139.821 Q2177.66 140.354 2175.71 141.419 L2175.71 137.483 Q2178.05 136.581 2180.25 136.141 Q2182.45 135.678 2184.53 135.678 Q2190.16 135.678 2192.93 138.594 Q2195.71 141.511 2195.71 147.437 Z" fill="#000000" fill-rule="nonzero" fill-opacity="1" /><path clip-path="url(#clip180)" d="M2221.55 148.965 Q2221.55 144.335 2219.62 141.789 Q2217.73 139.243 2214.28 139.243 Q2210.85 139.243 2208.93 141.789 Q2207.03 144.335 2207.03 148.965 Q2207.03 153.571 2208.93 156.118 Q2210.85 158.664 2214.28 158.664 Q2217.73 158.664 2219.62 156.118 Q2221.55 153.571 2221.55 148.965 M2225.8 159.011 Q2225.8 165.631 2222.87 168.849 Q2219.93 172.09 2213.86 172.09 Q2211.62 172.09 2209.62 171.742 Q2207.63 171.418 2205.76 170.724 L2205.76 166.58 Q2207.63 167.599 2209.46 168.085 Q2211.29 168.571 2213.19 168.571 Q2217.38 168.571 2219.46 166.372 Q2221.55 164.196 2221.55 159.775 L2221.55 157.668 Q2220.23 159.96 2218.17 161.094 Q2216.11 162.229 2213.24 162.229 Q2208.47 162.229 2205.55 158.594 Q2202.63 154.96 2202.63 148.965 Q2202.63 142.946 2205.55 139.312 Q2208.47 135.678 2213.24 135.678 Q2216.11 135.678 2218.17 136.812 Q2220.23 137.946 2221.55 140.238 L2221.55 136.303 L2225.8 136.303 L2225.8 159.011 Z" fill="#000000" fill-rule="nonzero" fill-opacity="1" /><path clip-path="url(#clip180)" d="M2256.75 148.201 L2256.75 150.284 L2237.17 150.284 Q2237.45 154.682 2239.81 156.997 Q2242.19 159.289 2246.43 159.289 Q2248.88 159.289 2251.18 158.687 Q2253.49 158.085 2255.76 156.881 L2255.76 160.909 Q2253.47 161.881 2251.06 162.391 Q2248.65 162.9 2246.18 162.9 Q2239.97 162.9 2236.34 159.289 Q2232.73 155.678 2232.73 149.52 Q2232.73 143.155 2236.15 139.428 Q2239.6 135.678 2245.43 135.678 Q2250.67 135.678 2253.7 139.057 Q2256.75 142.414 2256.75 148.201 M2252.49 146.951 Q2252.45 143.456 2250.53 141.372 Q2248.63 139.289 2245.48 139.289 Q2241.92 139.289 2239.76 141.303 Q2237.63 143.317 2237.31 146.974 L2252.49 146.951 Z" fill="#000000" fill-rule="nonzero" fill-opacity="1" /><polyline clip-path="url(#clip180)" style="stroke:#e26f46; stroke-linecap:round; stroke-linejoin:round; stroke-width:4; stroke-opacity:1; fill:none" points="1829.35,196.789 1973.36,196.789 "/>
<path clip-path="url(#clip180)" d="M1997.36 188.143 L2001.87 188.143 L2009.97 209.902 L2018.07 188.143 L2022.59 188.143 L2012.87 214.069 L2007.08 214.069 L1997.36 188.143 Z" fill="#000000" fill-rule="nonzero" fill-opacity="1" /><path clip-path="url(#clip180)" d="M2029.12 179.509 L2047.47 179.509 L2047.47 183.444 L2033.4 183.444 L2033.4 191.916 Q2034.42 191.569 2035.44 191.407 Q2036.45 191.222 2037.47 191.222 Q2043.26 191.222 2046.64 194.393 Q2050.02 197.564 2050.02 202.981 Q2050.02 208.559 2046.55 211.661 Q2043.07 214.74 2036.76 214.74 Q2034.58 214.74 2032.31 214.37 Q2030.07 213.999 2027.66 213.258 L2027.66 208.559 Q2029.74 209.694 2031.96 210.249 Q2034.19 210.805 2036.66 210.805 Q2040.67 210.805 2043 208.698 Q2045.34 206.592 2045.34 202.981 Q2045.34 199.37 2043 197.263 Q2040.67 195.157 2036.66 195.157 Q2034.79 195.157 2032.91 195.573 Q2031.06 195.99 2029.12 196.87 L2029.12 179.509 Z" fill="#000000" fill-rule="nonzero" fill-opacity="1" /><path clip-path="url(#clip180)" d="M2067.89 197.425 L2067.89 204.647 L2076.01 204.647 L2076.01 206.846 L2067.89 206.846 L2067.89 214.069 L2065.46 214.069 L2065.46 206.846 L2057.33 206.846 L2057.33 204.647 L2065.46 204.647 L2065.46 197.425 L2067.89 197.425 Z" fill="#000000" fill-rule="nonzero" fill-opacity="1" /><path clip-path="url(#clip180)" d="M2100.18 188.907 L2100.18 192.934 Q2098.38 192.009 2096.43 191.546 Q2094.49 191.083 2092.4 191.083 Q2089.23 191.083 2087.63 192.055 Q2086.06 193.027 2086.06 194.971 Q2086.06 196.453 2087.19 197.309 Q2088.33 198.143 2091.75 198.907 L2093.21 199.231 Q2097.75 200.203 2099.65 201.985 Q2101.57 203.745 2101.57 206.916 Q2101.57 210.527 2098.7 212.633 Q2095.85 214.74 2090.85 214.74 Q2088.77 214.74 2086.5 214.323 Q2084.25 213.93 2081.75 213.12 L2081.75 208.721 Q2084.12 209.948 2086.41 210.573 Q2088.7 211.175 2090.94 211.175 Q2093.95 211.175 2095.57 210.157 Q2097.19 209.115 2097.19 207.24 Q2097.19 205.504 2096.01 204.578 Q2094.86 203.652 2090.9 202.796 L2089.42 202.448 Q2085.46 201.615 2083.7 199.902 Q2081.94 198.166 2081.94 195.157 Q2081.94 191.499 2084.53 189.509 Q2087.13 187.518 2091.89 187.518 Q2094.25 187.518 2096.34 187.865 Q2098.42 188.212 2100.18 188.907 Z" fill="#000000" fill-rule="nonzero" fill-opacity="1" /><path clip-path="url(#clip180)" d="M2112.56 180.782 L2112.56 188.143 L2121.34 188.143 L2121.34 191.453 L2112.56 191.453 L2112.56 205.527 Q2112.56 208.698 2113.42 209.601 Q2114.3 210.504 2116.96 210.504 L2121.34 210.504 L2121.34 214.069 L2116.96 214.069 Q2112.03 214.069 2110.16 212.24 Q2108.28 210.388 2108.28 205.527 L2108.28 191.453 L2105.16 191.453 L2105.16 188.143 L2108.28 188.143 L2108.28 180.782 L2112.56 180.782 Z" fill="#000000" fill-rule="nonzero" fill-opacity="1" /><path clip-path="url(#clip180)" d="M2136.99 191.129 Q2133.56 191.129 2131.57 193.814 Q2129.58 196.476 2129.58 201.129 Q2129.58 205.782 2131.55 208.467 Q2133.54 211.129 2136.99 211.129 Q2140.39 211.129 2142.38 208.444 Q2144.37 205.758 2144.37 201.129 Q2144.37 196.522 2142.38 193.837 Q2140.39 191.129 2136.99 191.129 M2136.99 187.518 Q2142.54 187.518 2145.71 191.129 Q2148.88 194.74 2148.88 201.129 Q2148.88 207.495 2145.71 211.129 Q2142.54 214.74 2136.99 214.74 Q2131.41 214.74 2128.24 211.129 Q2125.09 207.495 2125.09 201.129 Q2125.09 194.74 2128.24 191.129 Q2131.41 187.518 2136.99 187.518 Z" fill="#000000" fill-rule="nonzero" fill-opacity="1" /><path clip-path="url(#clip180)" d="M2170.97 192.124 Q2170.25 191.708 2169.39 191.522 Q2168.56 191.314 2167.54 191.314 Q2163.93 191.314 2161.99 193.675 Q2160.06 196.013 2160.06 200.411 L2160.06 214.069 L2155.78 214.069 L2155.78 188.143 L2160.06 188.143 L2160.06 192.171 Q2161.41 189.809 2163.56 188.675 Q2165.71 187.518 2168.79 187.518 Q2169.23 187.518 2169.76 187.587 Q2170.3 187.634 2170.94 187.749 L2170.97 192.124 Z" fill="#000000" fill-rule="nonzero" fill-opacity="1" /><path clip-path="url(#clip180)" d="M2187.22 201.036 Q2182.06 201.036 2180.06 202.217 Q2178.07 203.397 2178.07 206.245 Q2178.07 208.513 2179.56 209.856 Q2181.06 211.175 2183.63 211.175 Q2187.17 211.175 2189.3 208.675 Q2191.45 206.152 2191.45 201.985 L2191.45 201.036 L2187.22 201.036 M2195.71 199.277 L2195.71 214.069 L2191.45 214.069 L2191.45 210.133 Q2189.99 212.495 2187.82 213.629 Q2185.64 214.74 2182.49 214.74 Q2178.51 214.74 2176.15 212.518 Q2173.81 210.272 2173.81 206.522 Q2173.81 202.147 2176.73 199.925 Q2179.67 197.703 2185.48 197.703 L2191.45 197.703 L2191.45 197.286 Q2191.45 194.347 2189.51 192.749 Q2187.59 191.129 2184.09 191.129 Q2181.87 191.129 2179.76 191.661 Q2177.66 192.194 2175.71 193.259 L2175.71 189.323 Q2178.05 188.421 2180.25 187.981 Q2182.45 187.518 2184.53 187.518 Q2190.16 187.518 2192.93 190.434 Q2195.71 193.351 2195.71 199.277 Z" fill="#000000" fill-rule="nonzero" fill-opacity="1" /><path clip-path="url(#clip180)" d="M2221.55 200.805 Q2221.55 196.175 2219.62 193.629 Q2217.73 191.083 2214.28 191.083 Q2210.85 191.083 2208.93 193.629 Q2207.03 196.175 2207.03 200.805 Q2207.03 205.411 2208.93 207.958 Q2210.85 210.504 2214.28 210.504 Q2217.73 210.504 2219.62 207.958 Q2221.55 205.411 2221.55 200.805 M2225.8 210.851 Q2225.8 217.471 2222.87 220.689 Q2219.93 223.93 2213.86 223.93 Q2211.62 223.93 2209.62 223.582 Q2207.63 223.258 2205.76 222.564 L2205.76 218.42 Q2207.63 219.439 2209.46 219.925 Q2211.29 220.411 2213.19 220.411 Q2217.38 220.411 2219.46 218.212 Q2221.55 216.036 2221.55 211.615 L2221.55 209.508 Q2220.23 211.8 2218.17 212.934 Q2216.11 214.069 2213.24 214.069 Q2208.47 214.069 2205.55 210.434 Q2202.63 206.8 2202.63 200.805 Q2202.63 194.786 2205.55 191.152 Q2208.47 187.518 2213.24 187.518 Q2216.11 187.518 2218.17 188.652 Q2220.23 189.786 2221.55 192.078 L2221.55 188.143 L2225.8 188.143 L2225.8 210.851 Z" fill="#000000" fill-rule="nonzero" fill-opacity="1" /><path clip-path="url(#clip180)" d="M2256.75 200.041 L2256.75 202.124 L2237.17 202.124 Q2237.45 206.522 2239.81 208.837 Q2242.19 211.129 2246.43 211.129 Q2248.88 211.129 2251.18 210.527 Q2253.49 209.925 2255.76 208.721 L2255.76 212.749 Q2253.47 213.721 2251.06 214.231 Q2248.65 214.74 2246.18 214.74 Q2239.97 214.74 2236.34 211.129 Q2232.73 207.518 2232.73 201.36 Q2232.73 194.995 2236.15 191.268 Q2239.6 187.518 2245.43 187.518 Q2250.67 187.518 2253.7 190.897 Q2256.75 194.254 2256.75 200.041 M2252.49 198.791 Q2252.45 195.296 2250.53 193.212 Q2248.63 191.129 2245.48 191.129 Q2241.92 191.129 2239.76 193.143 Q2237.63 195.157 2237.31 198.814 L2252.49 198.791 Z" fill="#000000" fill-rule="nonzero" fill-opacity="1" /></svg>
