<?xml version="1.0" encoding="utf-8"?>
<svg xmlns="http://www.w3.org/2000/svg" xmlns:xlink="http://www.w3.org/1999/xlink" width="600" height="400" viewBox="0 0 2400 1600">
<defs>
  <clipPath id="clip350">
    <rect x="0" y="0" width="2400" height="1600"/>
  </clipPath>
</defs>
<path clip-path="url(#clip350)" d="M0 1600 L2400 1600 L2400 0 L0 0  Z" fill="#ffffff" fill-rule="evenodd" fill-opacity="1"/>
<defs>
  <clipPath id="clip351">
    <rect x="480" y="0" width="1681" height="1600"/>
  </clipPath>
</defs>
<path clip-path="url(#clip350)" d="M194.422 1423.18 L2352.76 1423.18 L2352.76 47.2441 L194.422 47.2441  Z" fill="#ffffff" fill-rule="evenodd" fill-opacity="1"/>
<defs>
  <clipPath id="clip352">
    <rect x="194" y="47" width="2159" height="1377"/>
  </clipPath>
</defs>
<polyline clip-path="url(#clip352)" style="stroke:#000000; stroke-linecap:round; stroke-linejoin:round; stroke-width:2; stroke-opacity:0.1; fill:none" points="194.422,1423.18 194.422,47.2441 "/>
<polyline clip-path="url(#clip352)" style="stroke:#000000; stroke-linecap:round; stroke-linejoin:round; stroke-width:2; stroke-opacity:0.1; fill:none" points="734.006,1423.18 734.006,47.2441 "/>
<polyline clip-path="url(#clip352)" style="stroke:#000000; stroke-linecap:round; stroke-linejoin:round; stroke-width:2; stroke-opacity:0.1; fill:none" points="1273.59,1423.18 1273.59,47.2441 "/>
<polyline clip-path="url(#clip352)" style="stroke:#000000; stroke-linecap:round; stroke-linejoin:round; stroke-width:2; stroke-opacity:0.1; fill:none" points="1813.17,1423.18 1813.17,47.2441 "/>
<polyline clip-path="url(#clip352)" style="stroke:#000000; stroke-linecap:round; stroke-linejoin:round; stroke-width:2; stroke-opacity:0.1; fill:none" points="2352.76,1423.18 2352.76,47.2441 "/>
<polyline clip-path="url(#clip352)" style="stroke:#000000; stroke-linecap:round; stroke-linejoin:round; stroke-width:2; stroke-opacity:0.1; fill:none" points="194.422,1256.59 2352.76,1256.59 "/>
<polyline clip-path="url(#clip352)" style="stroke:#000000; stroke-linecap:round; stroke-linejoin:round; stroke-width:2; stroke-opacity:0.1; fill:none" points="194.422,1064.76 2352.76,1064.76 "/>
<polyline clip-path="url(#clip352)" style="stroke:#000000; stroke-linecap:round; stroke-linejoin:round; stroke-width:2; stroke-opacity:0.1; fill:none" points="194.422,872.937 2352.76,872.937 "/>
<polyline clip-path="url(#clip352)" style="stroke:#000000; stroke-linecap:round; stroke-linejoin:round; stroke-width:2; stroke-opacity:0.1; fill:none" points="194.422,681.111 2352.76,681.111 "/>
<polyline clip-path="url(#clip352)" style="stroke:#000000; stroke-linecap:round; stroke-linejoin:round; stroke-width:2; stroke-opacity:0.1; fill:none" points="194.422,489.286 2352.76,489.286 "/>
<polyline clip-path="url(#clip352)" style="stroke:#000000; stroke-linecap:round; stroke-linejoin:round; stroke-width:2; stroke-opacity:0.1; fill:none" points="194.422,297.46 2352.76,297.46 "/>
<polyline clip-path="url(#clip352)" style="stroke:#000000; stroke-linecap:round; stroke-linejoin:round; stroke-width:2; stroke-opacity:0.1; fill:none" points="194.422,105.635 2352.76,105.635 "/>
<polyline clip-path="url(#clip350)" style="stroke:#000000; stroke-linecap:round; stroke-linejoin:round; stroke-width:4; stroke-opacity:1; fill:none" points="194.422,1423.18 2352.76,1423.18 "/>
<polyline clip-path="url(#clip350)" style="stroke:#000000; stroke-linecap:round; stroke-linejoin:round; stroke-width:4; stroke-opacity:1; fill:none" points="194.422,1423.18 194.422,1404.28 "/>
<polyline clip-path="url(#clip350)" style="stroke:#000000; stroke-linecap:round; stroke-linejoin:round; stroke-width:4; stroke-opacity:1; fill:none" points="734.006,1423.18 734.006,1404.28 "/>
<polyline clip-path="url(#clip350)" style="stroke:#000000; stroke-linecap:round; stroke-linejoin:round; stroke-width:4; stroke-opacity:1; fill:none" points="1273.59,1423.18 1273.59,1404.28 "/>
<polyline clip-path="url(#clip350)" style="stroke:#000000; stroke-linecap:round; stroke-linejoin:round; stroke-width:4; stroke-opacity:1; fill:none" points="1813.17,1423.18 1813.17,1404.28 "/>
<polyline clip-path="url(#clip350)" style="stroke:#000000; stroke-linecap:round; stroke-linejoin:round; stroke-width:4; stroke-opacity:1; fill:none" points="2352.76,1423.18 2352.76,1404.28 "/>
<path clip-path="url(#clip350)" d="M171.806 1454.1 Q168.195 1454.1 166.367 1457.66 Q164.561 1461.2 164.561 1468.33 Q164.561 1475.44 166.367 1479.01 Q168.195 1482.55 171.806 1482.55 Q175.441 1482.55 177.246 1479.01 Q179.075 1475.44 179.075 1468.33 Q179.075 1461.2 177.246 1457.66 Q175.441 1454.1 171.806 1454.1 M171.806 1450.39 Q177.617 1450.39 180.672 1455 Q183.751 1459.58 183.751 1468.33 Q183.751 1477.06 180.672 1481.67 Q177.617 1486.25 171.806 1486.25 Q165.996 1486.25 162.918 1481.67 Q159.862 1477.06 159.862 1468.33 Q159.862 1459.58 162.918 1455 Q165.996 1450.39 171.806 1450.39 Z" fill="#000000" fill-rule="nonzero" fill-opacity="1" /><path clip-path="url(#clip350)" d="M191.968 1479.7 L196.853 1479.7 L196.853 1485.58 L191.968 1485.58 L191.968 1479.7 Z" fill="#000000" fill-rule="nonzero" fill-opacity="1" /><path clip-path="url(#clip350)" d="M217.038 1454.1 Q213.427 1454.1 211.598 1457.66 Q209.792 1461.2 209.792 1468.33 Q209.792 1475.44 211.598 1479.01 Q213.427 1482.55 217.038 1482.55 Q220.672 1482.55 222.478 1479.01 Q224.306 1475.44 224.306 1468.33 Q224.306 1461.2 222.478 1457.66 Q220.672 1454.1 217.038 1454.1 M217.038 1450.39 Q222.848 1450.39 225.903 1455 Q228.982 1459.58 228.982 1468.33 Q228.982 1477.06 225.903 1481.67 Q222.848 1486.25 217.038 1486.25 Q211.228 1486.25 208.149 1481.67 Q205.093 1477.06 205.093 1468.33 Q205.093 1459.58 208.149 1455 Q211.228 1450.39 217.038 1450.39 Z" fill="#000000" fill-rule="nonzero" fill-opacity="1" /><path clip-path="url(#clip350)" d="M711.888 1454.1 Q708.277 1454.1 706.448 1457.66 Q704.642 1461.2 704.642 1468.33 Q704.642 1475.44 706.448 1479.01 Q708.277 1482.55 711.888 1482.55 Q715.522 1482.55 717.327 1479.01 Q719.156 1475.44 719.156 1468.33 Q719.156 1461.2 717.327 1457.66 Q715.522 1454.1 711.888 1454.1 M711.888 1450.39 Q717.698 1450.39 720.753 1455 Q723.832 1459.58 723.832 1468.33 Q723.832 1477.06 720.753 1481.67 Q717.698 1486.25 711.888 1486.25 Q706.077 1486.25 702.999 1481.67 Q699.943 1477.06 699.943 1468.33 Q699.943 1459.58 702.999 1455 Q706.077 1450.39 711.888 1450.39 Z" fill="#000000" fill-rule="nonzero" fill-opacity="1" /><path clip-path="url(#clip350)" d="M732.05 1479.7 L736.934 1479.7 L736.934 1485.58 L732.05 1485.58 L732.05 1479.7 Z" fill="#000000" fill-rule="nonzero" fill-opacity="1" /><path clip-path="url(#clip350)" d="M747.165 1451.02 L765.522 1451.02 L765.522 1454.96 L751.448 1454.96 L751.448 1463.43 Q752.466 1463.08 753.485 1462.92 Q754.503 1462.73 755.522 1462.73 Q761.309 1462.73 764.688 1465.9 Q768.068 1469.08 768.068 1474.49 Q768.068 1480.07 764.596 1483.17 Q761.123 1486.25 754.804 1486.25 Q752.628 1486.25 750.36 1485.88 Q748.114 1485.51 745.707 1484.77 L745.707 1480.07 Q747.79 1481.2 750.012 1481.76 Q752.235 1482.32 754.711 1482.32 Q758.716 1482.32 761.054 1480.21 Q763.392 1478.1 763.392 1474.49 Q763.392 1470.88 761.054 1468.77 Q758.716 1466.67 754.711 1466.67 Q752.836 1466.67 750.961 1467.08 Q749.11 1467.5 747.165 1468.38 L747.165 1451.02 Z" fill="#000000" fill-rule="nonzero" fill-opacity="1" /><path clip-path="url(#clip350)" d="M1240.74 1481.64 L1248.38 1481.64 L1248.38 1455.28 L1240.07 1456.95 L1240.07 1452.69 L1248.33 1451.02 L1253.01 1451.02 L1253.01 1481.64 L1260.65 1481.64 L1260.65 1485.58 L1240.74 1485.58 L1240.74 1481.64 Z" fill="#000000" fill-rule="nonzero" fill-opacity="1" /><path clip-path="url(#clip350)" d="M1270.09 1479.7 L1274.98 1479.7 L1274.98 1485.58 L1270.09 1485.58 L1270.09 1479.7 Z" fill="#000000" fill-rule="nonzero" fill-opacity="1" /><path clip-path="url(#clip350)" d="M1295.16 1454.1 Q1291.55 1454.1 1289.72 1457.66 Q1287.92 1461.2 1287.92 1468.33 Q1287.92 1475.44 1289.72 1479.01 Q1291.55 1482.55 1295.16 1482.55 Q1298.8 1482.55 1300.6 1479.01 Q1302.43 1475.44 1302.43 1468.33 Q1302.43 1461.2 1300.6 1457.66 Q1298.8 1454.1 1295.16 1454.1 M1295.16 1450.39 Q1300.97 1450.39 1304.03 1455 Q1307.11 1459.58 1307.11 1468.33 Q1307.11 1477.06 1304.03 1481.67 Q1300.97 1486.25 1295.16 1486.25 Q1289.35 1486.25 1286.27 1481.67 Q1283.22 1477.06 1283.22 1468.33 Q1283.22 1459.58 1286.27 1455 Q1289.35 1450.39 1295.16 1450.39 Z" fill="#000000" fill-rule="nonzero" fill-opacity="1" /><path clip-path="url(#clip350)" d="M1780.82 1481.64 L1788.46 1481.64 L1788.46 1455.28 L1780.15 1456.95 L1780.15 1452.69 L1788.42 1451.02 L1793.09 1451.02 L1793.09 1481.64 L1800.73 1481.64 L1800.73 1485.58 L1780.82 1485.58 L1780.82 1481.64 Z" fill="#000000" fill-rule="nonzero" fill-opacity="1" /><path clip-path="url(#clip350)" d="M1810.17 1479.7 L1815.06 1479.7 L1815.06 1485.58 L1810.17 1485.58 L1810.17 1479.7 Z" fill="#000000" fill-rule="nonzero" fill-opacity="1" /><path clip-path="url(#clip350)" d="M1825.29 1451.02 L1843.65 1451.02 L1843.65 1454.96 L1829.57 1454.96 L1829.57 1463.43 Q1830.59 1463.08 1831.61 1462.92 Q1832.63 1462.73 1833.65 1462.73 Q1839.43 1462.73 1842.81 1465.9 Q1846.19 1469.08 1846.19 1474.49 Q1846.19 1480.07 1842.72 1483.17 Q1839.25 1486.25 1832.93 1486.25 Q1830.75 1486.25 1828.48 1485.88 Q1826.24 1485.51 1823.83 1484.77 L1823.83 1480.07 Q1825.92 1481.2 1828.14 1481.76 Q1830.36 1482.32 1832.84 1482.32 Q1836.84 1482.32 1839.18 1480.21 Q1841.52 1478.1 1841.52 1474.49 Q1841.52 1470.88 1839.18 1468.77 Q1836.84 1466.67 1832.84 1466.67 Q1830.96 1466.67 1829.09 1467.08 Q1827.23 1467.5 1825.29 1468.38 L1825.29 1451.02 Z" fill="#000000" fill-rule="nonzero" fill-opacity="1" /><path clip-path="url(#clip350)" d="M2323.99 1481.64 L2340.31 1481.64 L2340.31 1485.58 L2318.37 1485.58 L2318.37 1481.64 Q2321.03 1478.89 2325.61 1474.26 Q2330.22 1469.61 2331.4 1468.27 Q2333.65 1465.74 2334.53 1464.01 Q2335.43 1462.25 2335.43 1460.56 Q2335.43 1457.8 2333.49 1456.07 Q2331.56 1454.33 2328.46 1454.33 Q2326.26 1454.33 2323.81 1455.09 Q2321.38 1455.86 2318.6 1457.41 L2318.6 1452.69 Q2321.43 1451.55 2323.88 1450.97 Q2326.33 1450.39 2328.37 1450.39 Q2333.74 1450.39 2336.93 1453.08 Q2340.13 1455.77 2340.13 1460.26 Q2340.13 1462.39 2339.32 1464.31 Q2338.53 1466.2 2336.42 1468.8 Q2335.85 1469.47 2332.74 1472.69 Q2329.64 1475.88 2323.99 1481.64 Z" fill="#000000" fill-rule="nonzero" fill-opacity="1" /><path clip-path="url(#clip350)" d="M2350.13 1479.7 L2355.01 1479.7 L2355.01 1485.58 L2350.13 1485.58 L2350.13 1479.7 Z" fill="#000000" fill-rule="nonzero" fill-opacity="1" /><path clip-path="url(#clip350)" d="M2375.2 1454.1 Q2371.59 1454.1 2369.76 1457.66 Q2367.95 1461.2 2367.95 1468.33 Q2367.95 1475.44 2369.76 1479.01 Q2371.59 1482.55 2375.2 1482.55 Q2378.83 1482.55 2380.64 1479.01 Q2382.47 1475.44 2382.47 1468.33 Q2382.47 1461.2 2380.64 1457.66 Q2378.83 1454.1 2375.2 1454.1 M2375.2 1450.39 Q2381.01 1450.39 2384.06 1455 Q2387.14 1459.58 2387.14 1468.33 Q2387.14 1477.06 2384.06 1481.67 Q2381.01 1486.25 2375.2 1486.25 Q2369.39 1486.25 2366.31 1481.67 Q2363.25 1477.06 2363.25 1468.33 Q2363.25 1459.58 2366.31 1455 Q2369.39 1450.39 2375.2 1450.39 Z" fill="#000000" fill-rule="nonzero" fill-opacity="1" /><path clip-path="url(#clip350)" d="M1272.65 1522.27 L1272.65 1532.4 L1284.71 1532.4 L1284.71 1536.95 L1272.65 1536.95 L1272.65 1556.3 Q1272.65 1560.66 1273.83 1561.9 Q1275.04 1563.14 1278.7 1563.14 L1284.71 1563.14 L1284.71 1568.04 L1278.7 1568.04 Q1271.92 1568.04 1269.34 1565.53 Q1266.76 1562.98 1266.76 1556.3 L1266.76 1536.95 L1262.46 1536.95 L1262.46 1532.4 L1266.76 1532.4 L1266.76 1522.27 L1272.65 1522.27 Z" fill="#000000" fill-rule="nonzero" fill-opacity="1" /><polyline clip-path="url(#clip350)" style="stroke:#000000; stroke-linecap:round; stroke-linejoin:round; stroke-width:4; stroke-opacity:1; fill:none" points="194.422,1423.18 194.422,47.2441 "/>
<polyline clip-path="url(#clip350)" style="stroke:#000000; stroke-linecap:round; stroke-linejoin:round; stroke-width:4; stroke-opacity:1; fill:none" points="194.422,1256.59 213.32,1256.59 "/>
<polyline clip-path="url(#clip350)" style="stroke:#000000; stroke-linecap:round; stroke-linejoin:round; stroke-width:4; stroke-opacity:1; fill:none" points="194.422,1064.76 213.32,1064.76 "/>
<polyline clip-path="url(#clip350)" style="stroke:#000000; stroke-linecap:round; stroke-linejoin:round; stroke-width:4; stroke-opacity:1; fill:none" points="194.422,872.937 213.32,872.937 "/>
<polyline clip-path="url(#clip350)" style="stroke:#000000; stroke-linecap:round; stroke-linejoin:round; stroke-width:4; stroke-opacity:1; fill:none" points="194.422,681.111 213.32,681.111 "/>
<polyline clip-path="url(#clip350)" style="stroke:#000000; stroke-linecap:round; stroke-linejoin:round; stroke-width:4; stroke-opacity:1; fill:none" points="194.422,489.286 213.32,489.286 "/>
<polyline clip-path="url(#clip350)" style="stroke:#000000; stroke-linecap:round; stroke-linejoin:round; stroke-width:4; stroke-opacity:1; fill:none" points="194.422,297.46 213.32,297.46 "/>
<polyline clip-path="url(#clip350)" style="stroke:#000000; stroke-linecap:round; stroke-linejoin:round; stroke-width:4; stroke-opacity:1; fill:none" points="194.422,105.635 213.32,105.635 "/>
<path clip-path="url(#clip350)" d="M50.9921 1257.04 L80.6679 1257.04 L80.6679 1260.97 L50.9921 1260.97 L50.9921 1257.04 Z" fill="#000000" fill-rule="nonzero" fill-opacity="1" /><path clip-path="url(#clip350)" d="M100.76 1242.39 Q97.1493 1242.39 95.3206 1245.95 Q93.515 1249.49 93.515 1256.62 Q93.515 1263.73 95.3206 1267.29 Q97.1493 1270.84 100.76 1270.84 Q104.395 1270.84 106.2 1267.29 Q108.029 1263.73 108.029 1256.62 Q108.029 1249.49 106.2 1245.95 Q104.395 1242.39 100.76 1242.39 M100.76 1238.68 Q106.571 1238.68 109.626 1243.29 Q112.705 1247.87 112.705 1256.62 Q112.705 1265.35 109.626 1269.96 Q106.571 1274.54 100.76 1274.54 Q94.9502 1274.54 91.8715 1269.96 Q88.816 1265.35 88.816 1256.62 Q88.816 1247.87 91.8715 1243.29 Q94.9502 1238.68 100.76 1238.68 Z" fill="#000000" fill-rule="nonzero" fill-opacity="1" /><path clip-path="url(#clip350)" d="M120.922 1267.99 L125.807 1267.99 L125.807 1273.87 L120.922 1273.87 L120.922 1267.99 Z" fill="#000000" fill-rule="nonzero" fill-opacity="1" /><path clip-path="url(#clip350)" d="M148.839 1243.38 L137.033 1261.83 L148.839 1261.83 L148.839 1243.38 M147.612 1239.31 L153.492 1239.31 L153.492 1261.83 L158.422 1261.83 L158.422 1265.72 L153.492 1265.72 L153.492 1273.87 L148.839 1273.87 L148.839 1265.72 L133.237 1265.72 L133.237 1261.21 L147.612 1239.31 Z" fill="#000000" fill-rule="nonzero" fill-opacity="1" /><path clip-path="url(#clip350)" d="M52.1264 1065.21 L81.8021 1065.21 L81.8021 1069.15 L52.1264 1069.15 L52.1264 1065.21 Z" fill="#000000" fill-rule="nonzero" fill-opacity="1" /><path clip-path="url(#clip350)" d="M101.895 1050.56 Q98.2835 1050.56 96.4548 1054.13 Q94.6493 1057.67 94.6493 1064.8 Q94.6493 1071.9 96.4548 1075.47 Q98.2835 1079.01 101.895 1079.01 Q105.529 1079.01 107.334 1075.47 Q109.163 1071.9 109.163 1064.8 Q109.163 1057.67 107.334 1054.13 Q105.529 1050.56 101.895 1050.56 M101.895 1046.86 Q107.705 1046.86 110.76 1051.46 Q113.839 1056.05 113.839 1064.8 Q113.839 1073.52 110.76 1078.13 Q107.705 1082.71 101.895 1082.71 Q96.0845 1082.71 93.0058 1078.13 Q89.9503 1073.52 89.9503 1064.8 Q89.9503 1056.05 93.0058 1051.46 Q96.0845 1046.86 101.895 1046.86 Z" fill="#000000" fill-rule="nonzero" fill-opacity="1" /><path clip-path="url(#clip350)" d="M122.057 1076.16 L126.941 1076.16 L126.941 1082.04 L122.057 1082.04 L122.057 1076.16 Z" fill="#000000" fill-rule="nonzero" fill-opacity="1" /><path clip-path="url(#clip350)" d="M151.293 1063.41 Q154.649 1064.13 156.524 1066.39 Q158.422 1068.66 158.422 1072 Q158.422 1077.11 154.904 1079.91 Q151.385 1082.71 144.904 1082.71 Q142.728 1082.71 140.413 1082.27 Q138.121 1081.86 135.668 1081 L135.668 1076.49 Q137.612 1077.62 139.927 1078.2 Q142.242 1078.78 144.765 1078.78 Q149.163 1078.78 151.455 1077.04 Q153.769 1075.31 153.769 1072 Q153.769 1068.94 151.617 1067.23 Q149.487 1065.49 145.668 1065.49 L141.64 1065.49 L141.64 1061.65 L145.853 1061.65 Q149.302 1061.65 151.13 1060.28 Q152.959 1058.89 152.959 1056.3 Q152.959 1053.64 151.061 1052.23 Q149.186 1050.79 145.668 1050.79 Q143.746 1050.79 141.547 1051.21 Q139.348 1051.63 136.709 1052.51 L136.709 1048.34 Q139.371 1047.6 141.686 1047.23 Q144.024 1046.86 146.084 1046.86 Q151.408 1046.86 154.51 1049.29 Q157.612 1051.7 157.612 1055.82 Q157.612 1058.69 155.968 1060.68 Q154.325 1062.64 151.293 1063.41 Z" fill="#000000" fill-rule="nonzero" fill-opacity="1" /><path clip-path="url(#clip350)" d="M53.0754 873.388 L82.7512 873.388 L82.7512 877.323 L53.0754 877.323 L53.0754 873.388 Z" fill="#000000" fill-rule="nonzero" fill-opacity="1" /><path clip-path="url(#clip350)" d="M102.844 858.735 Q99.2326 858.735 97.4039 862.3 Q95.5984 865.842 95.5984 872.971 Q95.5984 880.078 97.4039 883.643 Q99.2326 887.184 102.844 887.184 Q106.478 887.184 108.283 883.643 Q110.112 880.078 110.112 872.971 Q110.112 865.842 108.283 862.3 Q106.478 858.735 102.844 858.735 M102.844 855.032 Q108.654 855.032 111.709 859.638 Q114.788 864.221 114.788 872.971 Q114.788 881.698 111.709 886.305 Q108.654 890.888 102.844 890.888 Q97.0335 890.888 93.9549 886.305 Q90.8993 881.698 90.8993 872.971 Q90.8993 864.221 93.9549 859.638 Q97.0335 855.032 102.844 855.032 Z" fill="#000000" fill-rule="nonzero" fill-opacity="1" /><path clip-path="url(#clip350)" d="M123.006 884.337 L127.89 884.337 L127.89 890.217 L123.006 890.217 L123.006 884.337 Z" fill="#000000" fill-rule="nonzero" fill-opacity="1" /><path clip-path="url(#clip350)" d="M142.103 886.281 L158.422 886.281 L158.422 890.217 L136.478 890.217 L136.478 886.281 Q139.14 883.527 143.723 878.897 Q148.33 874.244 149.51 872.902 Q151.755 870.379 152.635 868.643 Q153.538 866.883 153.538 865.194 Q153.538 862.439 151.593 860.703 Q149.672 858.967 146.57 858.967 Q144.371 858.967 141.918 859.731 Q139.487 860.495 136.709 862.045 L136.709 857.323 Q139.533 856.189 141.987 855.61 Q144.441 855.032 146.478 855.032 Q151.848 855.032 155.042 857.717 Q158.237 860.402 158.237 864.893 Q158.237 867.022 157.427 868.944 Q156.64 870.842 154.533 873.434 Q153.955 874.106 150.853 877.323 Q147.751 880.518 142.103 886.281 Z" fill="#000000" fill-rule="nonzero" fill-opacity="1" /><path clip-path="url(#clip350)" d="M52.7051 681.563 L82.3808 681.563 L82.3808 685.498 L52.7051 685.498 L52.7051 681.563 Z" fill="#000000" fill-rule="nonzero" fill-opacity="1" /><path clip-path="url(#clip350)" d="M102.473 666.91 Q98.8622 666.91 97.0335 670.475 Q95.228 674.016 95.228 681.146 Q95.228 688.252 97.0335 691.817 Q98.8622 695.359 102.473 695.359 Q106.108 695.359 107.913 691.817 Q109.742 688.252 109.742 681.146 Q109.742 674.016 107.913 670.475 Q106.108 666.91 102.473 666.91 M102.473 663.206 Q108.283 663.206 111.339 667.813 Q114.418 672.396 114.418 681.146 Q114.418 689.873 111.339 694.479 Q108.283 699.062 102.473 699.062 Q96.6632 699.062 93.5845 694.479 Q90.529 689.873 90.529 681.146 Q90.529 672.396 93.5845 667.813 Q96.6632 663.206 102.473 663.206 Z" fill="#000000" fill-rule="nonzero" fill-opacity="1" /><path clip-path="url(#clip350)" d="M122.635 692.512 L127.519 692.512 L127.519 698.391 L122.635 698.391 L122.635 692.512 Z" fill="#000000" fill-rule="nonzero" fill-opacity="1" /><path clip-path="url(#clip350)" d="M138.515 694.456 L146.154 694.456 L146.154 668.09 L137.844 669.757 L137.844 665.498 L146.107 663.831 L150.783 663.831 L150.783 694.456 L158.422 694.456 L158.422 698.391 L138.515 698.391 L138.515 694.456 Z" fill="#000000" fill-rule="nonzero" fill-opacity="1" /><path clip-path="url(#clip350)" d="M101.246 475.084 Q97.6354 475.084 95.8067 478.649 Q94.0012 482.191 94.0012 489.32 Q94.0012 496.427 95.8067 499.992 Q97.6354 503.533 101.246 503.533 Q104.881 503.533 106.686 499.992 Q108.515 496.427 108.515 489.32 Q108.515 482.191 106.686 478.649 Q104.881 475.084 101.246 475.084 M101.246 471.381 Q107.057 471.381 110.112 475.987 Q113.191 480.57 113.191 489.32 Q113.191 498.047 110.112 502.654 Q107.057 507.237 101.246 507.237 Q95.4363 507.237 92.3576 502.654 Q89.3021 498.047 89.3021 489.32 Q89.3021 480.57 92.3576 475.987 Q95.4363 471.381 101.246 471.381 Z" fill="#000000" fill-rule="nonzero" fill-opacity="1" /><path clip-path="url(#clip350)" d="M121.408 500.686 L126.293 500.686 L126.293 506.566 L121.408 506.566 L121.408 500.686 Z" fill="#000000" fill-rule="nonzero" fill-opacity="1" /><path clip-path="url(#clip350)" d="M146.478 475.084 Q142.867 475.084 141.038 478.649 Q139.232 482.191 139.232 489.32 Q139.232 496.427 141.038 499.992 Q142.867 503.533 146.478 503.533 Q150.112 503.533 151.918 499.992 Q153.746 496.427 153.746 489.32 Q153.746 482.191 151.918 478.649 Q150.112 475.084 146.478 475.084 M146.478 471.381 Q152.288 471.381 155.343 475.987 Q158.422 480.57 158.422 489.32 Q158.422 498.047 155.343 502.654 Q152.288 507.237 146.478 507.237 Q140.668 507.237 137.589 502.654 Q134.533 498.047 134.533 489.32 Q134.533 480.57 137.589 475.987 Q140.668 471.381 146.478 471.381 Z" fill="#000000" fill-rule="nonzero" fill-opacity="1" /><path clip-path="url(#clip350)" d="M102.473 283.259 Q98.8622 283.259 97.0335 286.824 Q95.228 290.365 95.228 297.495 Q95.228 304.601 97.0335 308.166 Q98.8622 311.708 102.473 311.708 Q106.108 311.708 107.913 308.166 Q109.742 304.601 109.742 297.495 Q109.742 290.365 107.913 286.824 Q106.108 283.259 102.473 283.259 M102.473 279.555 Q108.283 279.555 111.339 284.162 Q114.418 288.745 114.418 297.495 Q114.418 306.222 111.339 310.828 Q108.283 315.411 102.473 315.411 Q96.6632 315.411 93.5845 310.828 Q90.529 306.222 90.529 297.495 Q90.529 288.745 93.5845 284.162 Q96.6632 279.555 102.473 279.555 Z" fill="#000000" fill-rule="nonzero" fill-opacity="1" /><path clip-path="url(#clip350)" d="M122.635 308.861 L127.519 308.861 L127.519 314.74 L122.635 314.74 L122.635 308.861 Z" fill="#000000" fill-rule="nonzero" fill-opacity="1" /><path clip-path="url(#clip350)" d="M138.515 310.805 L146.154 310.805 L146.154 284.439 L137.844 286.106 L137.844 281.847 L146.107 280.18 L150.783 280.18 L150.783 310.805 L158.422 310.805 L158.422 314.74 L138.515 314.74 L138.515 310.805 Z" fill="#000000" fill-rule="nonzero" fill-opacity="1" /><path clip-path="url(#clip350)" d="M102.844 91.4334 Q99.2326 91.4334 97.4039 94.9982 Q95.5984 98.5398 95.5984 105.669 Q95.5984 112.776 97.4039 116.341 Q99.2326 119.882 102.844 119.882 Q106.478 119.882 108.283 116.341 Q110.112 112.776 110.112 105.669 Q110.112 98.5398 108.283 94.9982 Q106.478 91.4334 102.844 91.4334 M102.844 87.7297 Q108.654 87.7297 111.709 92.3362 Q114.788 96.9195 114.788 105.669 Q114.788 114.396 111.709 119.003 Q108.654 123.586 102.844 123.586 Q97.0335 123.586 93.9549 119.003 Q90.8993 114.396 90.8993 105.669 Q90.8993 96.9195 93.9549 92.3362 Q97.0335 87.7297 102.844 87.7297 Z" fill="#000000" fill-rule="nonzero" fill-opacity="1" /><path clip-path="url(#clip350)" d="M123.006 117.035 L127.89 117.035 L127.89 122.915 L123.006 122.915 L123.006 117.035 Z" fill="#000000" fill-rule="nonzero" fill-opacity="1" /><path clip-path="url(#clip350)" d="M142.103 118.98 L158.422 118.98 L158.422 122.915 L136.478 122.915 L136.478 118.98 Q139.14 116.225 143.723 111.595 Q148.33 106.943 149.51 105.6 Q151.755 103.077 152.635 101.341 Q153.538 99.5815 153.538 97.8917 Q153.538 95.1371 151.593 93.401 Q149.672 91.6649 146.57 91.6649 Q144.371 91.6649 141.918 92.4287 Q139.487 93.1926 136.709 94.7435 L136.709 90.0214 Q139.533 88.8871 141.987 88.3084 Q144.441 87.7297 146.478 87.7297 Q151.848 87.7297 155.042 90.4149 Q158.237 93.1 158.237 97.5908 Q158.237 99.7204 157.427 101.642 Q156.64 103.54 154.533 106.132 Q153.955 106.804 150.853 110.021 Q147.751 113.216 142.103 118.98 Z" fill="#000000" fill-rule="nonzero" fill-opacity="1" /><polyline clip-path="url(#clip352)" style="stroke:#009af9; stroke-linecap:round; stroke-linejoin:round; stroke-width:4; stroke-opacity:1; fill:none" points="194.422,640.548 196.583,635.027 198.743,629.56 200.904,624.147 203.064,618.789 205.225,613.484 207.385,608.232 209.546,603.032 211.706,597.884 213.867,592.787 216.027,587.741 218.188,582.745 220.348,577.799 222.509,572.902 224.669,568.054 226.83,563.255 228.99,558.503 231.151,553.798 233.311,549.141 235.471,544.529 237.632,539.964 239.792,535.444 241.953,530.969 244.113,526.539 246.274,522.153 248.434,517.81 250.595,513.511 252.755,509.254 254.916,505.04 257.076,500.868 259.237,496.737 261.397,492.648 263.558,488.599 265.718,484.591 267.879,480.623 270.039,476.694 272.2,472.804 274.36,468.953 276.521,465.14 278.681,461.366 280.842,457.629 283.002,453.929 285.163,450.266 287.323,446.639 289.484,443.049 291.644,439.494 293.805,435.975 295.965,432.491 298.126,429.041 300.286,425.626 302.447,422.245 304.607,418.898 306.768,415.584 308.928,412.303 311.089,409.054 313.249,405.838 315.41,402.654 317.57,399.502 319.731,396.381 321.891,393.291 324.052,390.232 326.212,387.203 328.373,384.205 330.533,381.236 332.694,378.297 334.854,375.387 337.015,372.507 339.175,369.655 341.336,366.831 343.496,364.036 345.657,361.268 347.817,358.528 349.978,355.815 352.138,353.129 354.299,350.47 356.459,347.838 358.62,345.231 360.78,342.651 362.941,340.096 365.101,337.567 367.262,335.063 369.422,332.584 371.583,330.13 373.743,327.7 375.904,325.294 378.064,322.912 380.225,320.554 382.385,318.22 384.546,315.908 386.706,313.62 388.867,311.354 391.027,309.111 393.188,306.89 395.348,304.692 397.509,302.515 399.669,300.36 401.83,298.227 403.99,296.114 406.151,294.023 408.311,291.953 410.472,289.903 412.632,287.874 414.793,285.864 416.953,283.875 419.114,281.906 421.274,279.956 423.435,278.026 425.595,276.115 427.755,274.223 429.916,272.35 432.076,270.496 434.237,268.66 436.397,266.842 438.558,265.043 440.718,263.261 442.879,261.497 445.039,259.751 447.2,258.022 449.36,256.31 451.521,254.616 453.681,252.938 455.842,251.277 458.002,249.632 460.163,248.004 462.323,246.392 464.484,244.796 466.644,243.216 468.805,241.652 470.965,240.103 473.126,238.57 475.286,237.052 477.447,235.549 479.607,234.061 481.768,232.588 483.928,231.13 486.089,229.686 488.249,228.256 490.41,226.841 492.57,225.439 494.731,224.052 496.891,222.678 499.052,221.318 501.212,219.972 503.373,218.639 505.533,217.32 507.694,216.013 509.854,214.72 512.015,213.439 514.175,212.171 516.336,210.916 518.496,209.674 520.657,208.443 522.817,207.225 524.978,206.02 527.138,204.826 529.299,203.644 531.459,202.474 533.62,201.315 535.78,200.168 537.941,199.033 540.101,197.909 542.262,196.796 544.422,195.694 546.583,194.603 548.743,193.523 550.904,192.454 553.064,191.395 555.225,190.347 557.385,189.31 559.546,188.282 561.706,187.265 563.867,186.258 566.027,185.261 568.188,184.274 570.348,183.297 572.509,182.33 574.669,181.372 576.83,180.424 578.99,179.485 581.151,178.555 583.311,177.635 585.472,176.724 587.632,175.822 589.793,174.929 591.953,174.045 594.114,173.169 596.274,172.303 598.435,171.445 600.595,170.595 602.756,169.754 604.916,168.921 607.077,168.097 609.237,167.281 611.398,166.472 613.558,165.672 615.718,164.88 617.879,164.096 620.039,163.32 622.2,162.551 624.36,161.79 626.521,161.037 628.681,160.291 630.842,159.553 633.002,158.822 635.163,158.098 637.323,157.381 639.484,156.672 641.644,155.969 643.805,155.274 645.965,154.586 648.126,153.904 650.286,153.23 652.447,152.562 654.607,151.9 656.768,151.246 658.928,150.597 661.089,149.956 663.249,149.32 665.41,148.691 667.57,148.069 669.731,147.452 671.891,146.842 674.052,146.237 676.212,145.639 678.373,145.047 680.533,144.46 682.694,143.88 684.854,143.305 687.015,142.736 689.175,142.173 691.336,141.615 693.496,141.063 695.657,140.516 697.817,139.974 699.978,139.439 702.138,138.908 704.299,138.383 706.459,137.862 708.62,137.348 710.78,136.838 712.941,136.333 715.101,135.833 717.262,135.338 719.422,134.849 721.583,134.363 723.743,133.883 725.904,133.408 728.064,132.937 730.225,132.471 732.385,132.01 734.546,131.553 736.706,131.101 738.867,130.653 741.027,130.209 743.188,129.771 745.348,129.336 747.509,128.906 749.669,128.48 751.83,128.058 753.99,127.641 756.151,127.228 758.311,126.819 760.472,126.414 762.632,126.012 764.793,125.615 766.953,125.222 769.114,124.833 771.274,124.448 773.435,124.067 775.595,123.689 777.756,123.315 779.916,122.945 782.077,122.579 784.237,122.216 786.398,121.857 788.558,121.502 790.719,121.15 792.879,120.801 795.04,120.456 797.2,120.115 799.361,119.777 801.521,119.442 803.681,119.111 805.842,118.782 808.002,118.458 810.163,118.136 812.323,117.818 814.484,117.503 816.644,117.19 818.805,116.882 820.965,116.576 823.126,116.273 825.286,115.973 827.447,115.676 829.607,115.382 831.768,115.091 833.928,114.803 836.089,114.518 838.249,114.236 840.41,113.956 842.57,113.679 844.731,113.405 846.891,113.134 849.052,112.865 851.212,112.6 853.373,112.336 855.533,112.075 857.694,111.817 859.854,111.562 862.015,111.309 864.175,111.058 866.336,110.81 868.496,110.564 870.657,110.321 872.817,110.08 874.978,109.842 877.138,109.606 879.299,109.372 881.459,109.141 883.62,108.912 885.78,108.685 887.941,108.46 890.101,108.238 892.262,108.018 894.422,107.8 896.583,107.584 898.743,107.371 900.904,107.159 903.064,106.95 905.225,106.743 907.385,106.538 909.546,106.335 911.706,106.134 913.867,105.935 916.027,105.737 918.188,105.542 920.348,105.349 922.509,105.158 924.669,104.969 926.83,104.781 928.99,104.596 931.151,104.412 933.311,104.23 935.472,104.05 937.632,103.872 939.793,103.696 941.953,103.521 944.114,103.348 946.274,103.177 948.435,103.008 950.595,102.84 952.756,102.674 954.916,102.509 957.077,102.347 959.237,102.186 961.398,102.026 963.558,101.868 965.719,101.712 967.879,101.557 970.04,101.404 972.2,101.252 974.361,101.102 976.521,100.953 978.682,100.806 980.842,100.66 983.003,100.516 985.163,100.373 987.324,100.232 989.484,100.092 991.645,99.9533 993.805,99.8161 995.965,99.6802 998.126,99.5457 1000.29,99.4125 1002.45,99.2807 1004.61,99.1501 1006.77,99.0209 1008.93,98.8929 1011.09,98.7662 1013.25,98.6407 1015.41,98.5165 1017.57,98.3935 1019.73,98.2717 1021.89,98.1511 1024.05,98.0317 1026.21,97.9135 1028.37,97.7964 1030.53,97.6805 1032.69,97.5657 1034.85,97.4521 1037.01,97.3395 1039.18,97.2281 1041.34,97.1178 1043.5,97.0085 1045.66,96.9003 1047.82,96.7932 1049.98,96.6872 1052.14,96.5822 1054.3,96.4782 1056.46,96.3753 1058.62,96.2733 1060.78,96.1724 1062.94,96.0725 1065.1,95.9736 1067.26,95.8757 1069.42,95.7787 1071.58,95.6828 1073.74,95.5877 1075.9,95.4937 1078.06,95.4005 1080.22,95.3083 1082.39,95.217 1084.55,95.1267 1086.71,95.0372 1088.87,94.9486 1091.03,94.861 1093.19,94.7742 1095.35,94.6882 1097.51,94.6032 1099.67,94.519 1101.83,94.4356 1103.99,94.3531 1106.15,94.2714 1108.31,94.1905 1110.47,94.1105 1112.63,94.0312 1114.79,93.9528 1116.95,93.8751 1119.11,93.7982 1121.27,93.7221 1123.43,93.6468 1125.6,93.5722 1127.76,93.4984 1129.92,93.4254 1132.08,93.353 1134.24,93.2814 1136.4,93.2105 1138.56,93.1404 1140.72,93.0709 1142.88,93.0021 1145.04,92.9341 1147.2,92.8667 1149.36,92.8 1151.52,92.7339 1153.68,92.6686 1155.84,92.6039 1158,92.5398 1160.16,92.4764 1162.32,92.4136 1164.48,92.3515 1166.64,92.2899 1168.81,92.229 1170.97,92.1687 1173.13,92.1091 1175.29,92.05 1177.45,91.9914 1179.61,91.9335 1181.77,91.8762 1183.93,91.8194 1186.09,91.7632 1188.25,91.7076 1190.41,91.6525 1192.57,91.5979 1194.73,91.5439 1196.89,91.4904 1199.05,91.4375 1201.21,91.3851 1203.37,91.3331 1205.53,91.2817 1207.69,91.2309 1209.85,91.1805 1212.01,91.1306 1214.18,91.0812 1216.34,91.0322 1218.5,90.9838 1220.66,90.9358 1222.82,90.8883 1224.98,90.8412 1227.14,90.7946 1229.3,90.7485 1231.46,90.7028 1233.62,90.6575 1235.78,90.6127 1237.94,90.5683 1240.1,90.5243 1242.26,90.4808 1244.42,90.4376 1246.58,90.3949 1248.74,90.3527 1250.9,90.3108 1253.06,90.2693 1255.22,90.2283 1257.39,90.1876 1259.55,90.1474 1261.71,90.1075 1263.87,90.0681 1266.03,90.029 1268.19,89.9903 1270.35,89.952 1272.51,89.9141 1274.67,89.8766 1276.83,89.8394 1278.99,89.8026 1281.15,89.7662 1283.31,89.7301 1285.47,89.6944 1287.63,89.6591 1289.79,89.6241 1291.95,89.5894 1294.11,89.5551 1296.27,89.5212 1298.43,89.4876 1300.6,89.4543 1302.76,89.4214 1304.92,89.3887 1307.08,89.3565 1309.24,89.3245 1311.4,89.2929 1313.56,89.2616 1315.72,89.2306 1317.88,89.2 1320.04,89.1696 1322.2,89.1395 1324.36,89.1098 1326.52,89.0804 1328.68,89.0512 1330.84,89.0224 1333,88.9938 1335.16,88.9656 1337.32,88.9376 1339.48,88.9099 1341.64,88.8825 1343.81,88.8554 1345.97,88.8285 1348.13,88.802 1350.29,88.7757 1352.45,88.7496 1354.61,88.7239 1356.77,88.6984 1358.93,88.6731 1361.09,88.6482 1363.25,88.6234 1365.41,88.599 1367.57,88.5747 1369.73,88.5508 1371.89,88.527 1374.05,88.5035 1376.21,88.4803 1378.37,88.4573 1380.53,88.4345 1382.69,88.4119 1384.85,88.3896 1387.01,88.3675 1389.18,88.3457 1391.34,88.324 1393.5,88.3026 1395.66,88.2814 1397.82,88.2604 1399.98,88.2396 1402.14,88.219 1404.3,88.1986 1406.46,88.1785 1408.62,88.1585 1410.78,88.1387 1412.94,88.1192 1415.1,88.0998 1417.26,88.0806 1419.42,88.0616 1421.58,88.0428 1423.74,88.0242 1425.9,88.0058 1428.06,87.9875 1430.22,87.9694 1432.39,87.9515 1434.55,87.9338 1436.71,87.9163 1438.87,87.8989 1441.03,87.8816 1443.19,87.8646 1445.35,87.8477 1447.51,87.831 1449.67,87.8144 1451.83,87.798 1453.99,87.7817 1456.15,87.7656 1458.31,87.7497 1460.47,87.7339 1462.63,87.7182 1464.79,87.7027 1466.95,87.6873 1469.11,87.6721 1471.27,87.657 1473.43,87.6421 1475.6,87.6273 1477.76,87.6126 1479.92,87.5981 1482.08,87.5837 1484.24,87.5694 1486.4,87.5553 1488.56,87.5414 1490.72,87.5275 1492.88,87.5138 1495.04,87.5003 1497.2,87.4868 1499.36,87.4735 1501.52,87.4603 1503.68,87.4473 1505.84,87.4344 1508,87.4216 1510.16,87.4089 1512.32,87.3963 1514.48,87.3839 1516.64,87.3716 1518.81,87.3595 1520.97,87.3474 1523.13,87.3355 1525.29,87.3236 1527.45,87.3119 1529.61,87.3004 1531.77,87.2889 1533.93,87.2776 1536.09,87.2663 1538.25,87.2552 1540.41,87.2442 1542.57,87.2333 1544.73,87.2225 1546.89,87.2118 1549.05,87.2013 1551.21,87.1908 1553.37,87.1805 1555.53,87.1702 1557.69,87.1601 1559.85,87.15 1562.01,87.1401 1564.18,87.1303 1566.34,87.1205 1568.5,87.1109 1570.66,87.1014 1572.82,87.092 1574.98,87.0826 1577.14,87.0734 1579.3,87.0642 1581.46,87.0552 1583.62,87.0463 1585.78,87.0374 1587.94,87.0286 1590.1,87.02 1592.26,87.0114 1594.42,87.0029 1596.58,86.9945 1598.74,86.9862 1600.9,86.9779 1603.06,86.9698 1605.22,86.9617 1607.39,86.9538 1609.55,86.9459 1611.71,86.9381 1613.87,86.9304 1616.03,86.9227 1618.19,86.9152 1620.35,86.9077 1622.51,86.9003 1624.67,86.8929 1626.83,86.8857 1628.99,86.8785 1631.15,86.8714 1633.31,86.8644 1635.47,86.8574 1637.63,86.8506 1639.79,86.8438 1641.95,86.837 1644.11,86.8304 1646.27,86.8238 1648.43,86.8172 1650.6,86.8108 1652.76,86.8044 1654.92,86.7981 1657.08,86.7918 1659.24,86.7856 1661.4,86.7795 1663.56,86.7734 1665.72,86.7674 1667.88,86.7614 1670.04,86.7555 1672.2,86.7497 1674.36,86.7439 1676.52,86.7382 1678.68,86.7326 1680.84,86.727 1683,86.7214 1685.16,86.7159 1687.32,86.7105 1689.48,86.7051 1691.64,86.6998 1693.81,86.6945 1695.97,86.6893 1698.13,86.6841 1700.29,86.679 1702.45,86.6739 1704.61,86.6688 1706.77,86.6639 1708.93,86.6589 1711.09,86.654 1713.25,86.6492 1715.41,86.6444 1717.57,86.6396 1719.73,86.6349 1721.89,86.6302 1724.05,86.6255 1726.21,86.6209 1728.37,86.6164 1730.53,86.6119 1732.69,86.6074 1734.85,86.6029 1737.02,86.5985 1739.18,86.5941 1741.34,86.5898 1743.5,86.5855 1745.66,86.5812 1747.82,86.577 1749.98,86.5728 1752.14,86.5687 1754.3,86.5646 1756.46,86.5605 1758.62,86.5565 1760.78,86.5525 1762.94,86.5486 1765.1,86.5446 1767.26,86.5408 1769.42,86.5369 1771.58,86.5331 1773.74,86.5293 1775.9,86.5256 1778.06,86.5219 1780.22,86.5182 1782.39,86.5146 1784.55,86.511 1786.71,86.5075 1788.87,86.5039 1791.03,86.5004 1793.19,86.497 1795.35,86.4936 1797.51,86.4902 1799.67,86.4868 1801.83,86.4835 1803.99,86.4802 1806.15,86.477 1808.31,86.4737 1810.47,86.4705 1812.63,86.4674 1814.79,86.4643 1816.95,86.4612 1819.11,86.4581 1821.27,86.4551 1823.43,86.4521 1825.6,86.4491 1827.76,86.4461 1829.92,86.4432 1832.08,86.4404 1834.24,86.4375 1836.4,86.4347 1838.56,86.4319 1840.72,86.4291 1842.88,86.4264 1845.04,86.4237 1847.2,86.421 1849.36,86.4184 1851.52,86.4158 1853.68,86.4132 1855.84,86.4106 1858,86.4081 1860.16,86.4056 1862.32,86.4031 1864.48,86.4006 1866.64,86.3982 1868.81,86.3958 1870.97,86.3934 1873.13,86.3911 1875.29,86.3887 1877.45,86.3864 1879.61,86.3842 1881.77,86.3819 1883.93,86.3797 1886.09,86.3775 1888.25,86.3753 1890.41,86.3732 1892.57,86.371 1894.73,86.3689 1896.89,86.3669 1899.05,86.3648 1901.21,86.3628 1903.37,86.3608 1905.53,86.3588 1907.69,86.3568 1909.85,86.3549 1912.02,86.3529 1914.18,86.351 1916.34,86.3491 1918.5,86.3473 1920.66,86.3454 1922.82,86.3436 1924.98,86.3418 1927.14,86.34 1929.3,86.3383 1931.46,86.3365 1933.62,86.3348 1935.78,86.3331 1937.94,86.3314 1940.1,86.3298 1942.26,86.3281 1944.42,86.3265 1946.58,86.3249 1948.74,86.3233 1950.9,86.3217 1953.06,86.3202 1955.22,86.3186 1957.39,86.3171 1959.55,86.3156 1961.71,86.3141 1963.87,86.3126 1966.03,86.3112 1968.19,86.3097 1970.35,86.3083 1972.51,86.3069 1974.67,86.3055 1976.83,86.3041 1978.99,86.3027 1981.15,86.3014 1983.31,86.3 1985.47,86.2987 1987.63,86.2974 1989.79,86.2961 1991.95,86.2948 1994.11,86.2935 1996.27,86.2922 1998.43,86.291 2000.6,86.2897 2002.76,86.2885 2004.92,86.2873 2007.08,86.2861 2009.24,86.2849 2011.4,86.2837 2013.56,86.2825 2015.72,86.2814 2017.88,86.2802 2020.04,86.2791 2022.2,86.2779 2024.36,86.2768 2026.52,86.2757 2028.68,86.2745 2030.84,86.2734 2033,86.2723 2035.16,86.2713 2037.32,86.2702 2039.48,86.2691 2041.64,86.268 2043.81,86.267 2045.97,86.2659 2048.13,86.2649 2050.29,86.2638 2052.45,86.2628 2054.61,86.2618 2056.77,86.2607 2058.93,86.2597 2061.09,86.2587 2063.25,86.2578 2065.41,86.2568 2067.57,86.2558 2069.73,86.2548 2071.89,86.2539 2074.05,86.2529 2076.21,86.252 2078.37,86.2511 2080.53,86.2502 2082.69,86.2493 2084.85,86.2484 2087.02,86.2475 2089.18,86.2466 2091.34,86.2457 2093.5,86.2448 2095.66,86.244 2097.82,86.2431 2099.98,86.2423 2102.14,86.2415 2104.3,86.2406 2106.46,86.2398 2108.62,86.239 2110.78,86.2382 2112.94,86.2374 2115.1,86.2366 2117.26,86.2359 2119.42,86.2351 2121.58,86.2343 2123.74,86.2336 2125.9,86.2328 2128.06,86.2321 2130.22,86.2314 2132.39,86.2306 2134.55,86.2299 2136.71,86.2292 2138.87,86.2285 2141.03,86.2278 2143.19,86.2271 2145.35,86.2264 2147.51,86.2258 2149.67,86.2251 2151.83,86.2244 2153.99,86.2238 2156.15,86.2231 2158.31,86.2225 2160.47,86.2219 2162.63,86.2212 2164.79,86.2206 2166.95,86.22 2169.11,86.2194 2171.27,86.2188 2173.43,86.2182 2175.6,86.2176 2177.76,86.217 2179.92,86.2165 2182.08,86.2159 2184.24,86.2153 2186.4,86.2148 2188.56,86.2142 2190.72,86.2137 2192.88,86.2131 2195.04,86.2126 2197.2,86.2121 2199.36,86.2116 2201.52,86.2111 2203.68,86.2105 2205.84,86.21 2208,86.2095 2210.16,86.209 2212.32,86.2086 2214.48,86.2081 2216.64,86.2076 2218.81,86.2071 2220.97,86.2067 2223.13,86.2062 2225.29,86.2057 2227.45,86.2053 2229.61,86.2048 2231.77,86.2044 2233.93,86.204 2236.09,86.2035 2238.25,86.2031 2240.41,86.2027 2242.57,86.2023 2244.73,86.2018 2246.89,86.2014 2249.05,86.201 2251.21,86.2006 2253.37,86.2002 2255.53,86.1998 2257.69,86.1995 2259.85,86.1991 2262.02,86.1987 2264.18,86.1983 2266.34,86.1979 2268.5,86.1976 2270.66,86.1972 2272.82,86.1968 2274.98,86.1965 2277.14,86.1961 2279.3,86.1958 2281.46,86.1954 2283.62,86.1951 2285.78,86.1948 2287.94,86.1944 2290.1,86.1941 2292.26,86.1938 2294.42,86.1934 2296.58,86.1931 2298.74,86.1928 2300.9,86.1925 2303.06,86.1922 2305.23,86.1919 2307.39,86.1916 2309.55,86.1912 2311.71,86.1909 2313.87,86.1906 2316.03,86.1904 2318.19,86.1901 2320.35,86.1898 2322.51,86.1895 2324.67,86.1892 2326.83,86.1889 2328.99,86.1886 2331.15,86.1883 2333.31,86.1881 2335.47,86.1878 2337.63,86.1875 2339.79,86.1873 2341.95,86.187 2344.11,86.1867 2346.27,86.1865 2348.43,86.1862 2350.6,86.1859 2352.76,86.1857 "/>
<polyline clip-path="url(#clip352)" style="stroke:#e26f46; stroke-linecap:round; stroke-linejoin:round; stroke-width:4; stroke-opacity:1; fill:none" points="194.422,1384.24 196.583,1375.05 198.743,1365.93 200.904,1356.88 203.064,1347.9 205.225,1338.99 207.385,1330.14 209.546,1321.36 211.706,1312.64 213.867,1303.99 216.027,1295.41 218.188,1286.88 220.348,1278.43 222.509,1270.03 224.669,1261.7 226.83,1253.43 228.99,1245.23 231.151,1237.08 233.311,1228.99 235.471,1220.97 237.632,1213 239.792,1205.1 241.953,1197.25 244.113,1189.46 246.274,1181.73 248.434,1174.06 250.595,1166.44 252.755,1158.88 254.916,1151.38 257.076,1143.93 259.237,1136.54 261.397,1129.2 263.558,1121.92 265.718,1114.69 267.879,1107.52 270.039,1100.39 272.2,1093.32 274.36,1086.31 276.521,1079.34 278.681,1072.43 280.842,1065.56 283.002,1058.75 285.163,1051.99 287.323,1045.27 289.484,1038.61 291.644,1032 293.805,1025.43 295.965,1018.91 298.126,1012.45 300.286,1006.02 302.447,999.65 304.607,993.322 306.768,987.041 308.928,980.805 311.089,974.616 313.249,968.472 315.41,962.373 317.57,956.318 319.731,950.308 321.891,944.342 324.052,938.419 326.212,932.54 328.373,926.703 330.533,920.909 332.694,915.158 334.854,909.448 337.015,903.78 339.175,898.154 341.336,892.568 343.496,887.023 345.657,881.518 347.817,876.053 349.978,870.628 352.138,865.243 354.299,859.896 356.459,854.589 358.62,849.32 360.78,844.089 362.941,838.896 365.101,833.74 367.262,828.622 369.422,823.541 371.583,818.497 373.743,813.489 375.904,808.517 378.064,803.581 380.225,798.681 382.385,793.816 384.546,788.987 386.706,784.192 388.867,779.431 391.027,774.705 393.188,770.013 395.348,765.355 397.509,760.73 399.669,756.138 401.83,751.58 403.99,747.054 406.151,742.561 408.311,738.1 410.472,733.671 412.632,729.273 414.793,724.907 416.953,720.573 419.114,716.27 421.274,711.997 423.435,707.755 425.595,703.543 427.755,699.361 429.916,695.21 432.076,691.087 434.237,686.995 436.397,682.931 438.558,678.897 440.718,674.891 442.879,670.914 445.039,666.965 447.2,663.044 449.36,659.151 451.521,655.286 453.681,651.448 455.842,647.638 458.002,643.854 460.163,640.097 462.323,636.367 464.484,632.664 466.644,628.987 468.805,625.335 470.965,621.71 473.126,618.11 475.286,614.536 477.447,610.987 479.607,607.463 481.768,603.964 483.928,600.49 486.089,597.04 488.249,593.614 490.41,590.213 492.57,586.835 494.731,583.482 496.891,580.152 499.052,576.845 501.212,573.562 503.373,570.302 505.533,567.065 507.694,563.85 509.854,560.658 512.015,557.489 514.175,554.342 516.336,551.217 518.496,548.113 520.657,545.032 522.817,541.972 524.978,538.934 527.138,535.917 529.299,532.921 531.459,529.946 533.62,526.991 535.78,524.058 537.941,521.145 540.101,518.252 542.262,515.38 544.422,512.527 546.583,509.695 548.743,506.882 550.904,504.089 553.064,501.315 555.225,498.56 557.385,495.825 559.546,493.109 561.706,490.412 563.867,487.733 566.027,485.073 568.188,482.431 570.348,479.808 572.509,477.203 574.669,474.616 576.83,472.047 578.99,469.496 581.151,466.962 583.311,464.446 585.472,461.948 587.632,459.466 589.793,457.002 591.953,454.555 594.114,452.125 596.274,449.711 598.435,447.314 600.595,444.934 602.756,442.57 604.916,440.222 607.077,437.891 609.237,435.576 611.398,433.276 613.558,430.992 615.718,428.725 617.879,426.472 620.039,424.236 622.2,422.014 624.36,419.808 626.521,417.617 628.681,415.441 630.842,413.28 633.002,411.134 635.163,409.003 637.323,406.886 639.484,404.783 641.644,402.696 643.805,400.622 645.965,398.563 648.126,396.517 650.286,394.486 652.447,392.469 654.607,390.465 656.768,388.475 658.928,386.499 661.089,384.536 663.249,382.587 665.41,380.651 667.57,378.728 669.731,376.818 671.891,374.921 674.052,373.037 676.212,371.166 678.373,369.308 680.533,367.462 682.694,365.629 684.854,363.808 687.015,362 689.175,360.204 691.336,358.42 693.496,356.648 695.657,354.889 697.817,353.141 699.978,351.405 702.138,349.681 704.299,347.968 706.459,346.267 708.62,344.578 710.78,342.9 712.941,341.233 715.101,339.577 717.262,337.933 719.422,336.3 721.583,334.678 723.743,333.066 725.904,331.466 728.064,329.876 730.225,328.298 732.385,326.729 734.546,325.172 736.706,323.625 738.867,322.088 741.027,320.561 743.188,319.045 745.348,317.539 747.509,316.043 749.669,314.558 751.83,313.082 753.99,311.616 756.151,310.16 758.311,308.714 760.472,307.277 762.632,305.851 764.793,304.433 766.953,303.026 769.114,301.627 771.274,300.238 773.435,298.859 775.595,297.488 777.756,296.127 779.916,294.775 782.077,293.432 784.237,292.098 786.398,290.773 788.558,289.456 790.719,288.149 792.879,286.85 795.04,285.56 797.2,284.279 799.361,283.006 801.521,281.741 803.681,280.485 805.842,279.238 808.002,277.998 810.163,276.767 812.323,275.544 814.484,274.33 816.644,273.123 818.805,271.925 820.965,270.734 823.126,269.551 825.286,268.376 827.447,267.209 829.607,266.05 831.768,264.898 833.928,263.754 836.089,262.618 838.249,261.489 840.41,260.367 842.57,259.253 844.731,258.146 846.891,257.047 849.052,255.955 851.212,254.87 853.373,253.792 855.533,252.722 857.694,251.658 859.854,250.602 862.015,249.552 864.175,248.51 866.336,247.474 868.496,246.445 870.657,245.423 872.817,244.407 874.978,243.398 877.138,242.396 879.299,241.401 881.459,240.412 883.62,239.429 885.78,238.453 887.941,237.484 890.101,236.52 892.262,235.564 894.422,234.613 896.583,233.669 898.743,232.731 900.904,231.799 903.064,230.873 905.225,229.953 907.385,229.039 909.546,228.132 911.706,227.23 913.867,226.334 916.027,225.444 918.188,224.56 920.348,223.682 922.509,222.809 924.669,221.942 926.83,221.081 928.99,220.226 931.151,219.376 933.311,218.532 935.472,217.693 937.632,216.86 939.793,216.032 941.953,215.209 944.114,214.392 946.274,213.581 948.435,212.774 950.595,211.973 952.756,211.177 954.916,210.387 957.077,209.601 959.237,208.821 961.398,208.046 963.558,207.275 965.719,206.51 967.879,205.75 970.04,204.995 972.2,204.244 974.361,203.499 976.521,202.758 978.682,202.022 980.842,201.291 983.003,200.565 985.163,199.844 987.324,199.127 989.484,198.415 991.645,197.707 993.805,197.004 995.965,196.305 998.126,195.612 1000.29,194.922 1002.45,194.237 1004.61,193.557 1006.77,192.88 1008.93,192.209 1011.09,191.541 1013.25,190.878 1015.41,190.219 1017.57,189.565 1019.73,188.914 1021.89,188.268 1024.05,187.626 1026.21,186.988 1028.37,186.355 1030.53,185.725 1032.69,185.099 1034.85,184.478 1037.01,183.86 1039.18,183.246 1041.34,182.637 1043.5,182.031 1045.66,181.429 1047.82,180.831 1049.98,180.237 1052.14,179.646 1054.3,179.06 1056.46,178.477 1058.62,177.898 1060.78,177.323 1062.94,176.751 1065.1,176.183 1067.26,175.619 1069.42,175.058 1071.58,174.501 1073.74,173.948 1075.9,173.398 1078.06,172.851 1080.22,172.308 1082.39,171.769 1084.55,171.233 1086.71,170.701 1088.87,170.172 1091.03,169.646 1093.19,169.124 1095.35,168.605 1097.51,168.089 1099.67,167.577 1101.83,167.068 1103.99,166.562 1106.15,166.06 1108.31,165.561 1110.47,165.065 1112.63,164.572 1114.79,164.082 1116.95,163.596 1119.11,163.112 1121.27,162.632 1123.43,162.155 1125.6,161.681 1127.76,161.21 1129.92,160.742 1132.08,160.276 1134.24,159.814 1136.4,159.355 1138.56,158.899 1140.72,158.446 1142.88,157.995 1145.04,157.548 1147.2,157.103 1149.36,156.661 1151.52,156.222 1153.68,155.786 1155.84,155.353 1158,154.922 1160.16,154.494 1162.32,154.069 1164.48,153.647 1166.64,153.227 1168.81,152.81 1170.97,152.395 1173.13,151.983 1175.29,151.574 1177.45,151.168 1179.61,150.764 1181.77,150.362 1183.93,149.963 1186.09,149.567 1188.25,149.173 1190.41,148.782 1192.57,148.393 1194.73,148.007 1196.89,147.623 1199.05,147.241 1201.21,146.862 1203.37,146.485 1205.53,146.111 1207.69,145.739 1209.85,145.37 1212.01,145.002 1214.18,144.637 1216.34,144.275 1218.5,143.914 1220.66,143.556 1222.82,143.2 1224.98,142.847 1227.14,142.496 1229.3,142.146 1231.46,141.799 1233.62,141.455 1235.78,141.112 1237.94,140.771 1240.1,140.433 1242.26,140.097 1244.42,139.763 1246.58,139.431 1248.74,139.101 1250.9,138.773 1253.06,138.447 1255.22,138.124 1257.39,137.802 1259.55,137.482 1261.71,137.165 1263.87,136.849 1266.03,136.535 1268.19,136.223 1270.35,135.914 1272.51,135.606 1274.67,135.3 1276.83,134.996 1278.99,134.694 1281.15,134.394 1283.31,134.096 1285.47,133.8 1287.63,133.505 1289.79,133.212 1291.95,132.922 1294.11,132.633 1296.27,132.346 1298.43,132.06 1300.6,131.777 1302.76,131.495 1304.92,131.215 1307.08,130.937 1309.24,130.661 1311.4,130.386 1313.56,130.113 1315.72,129.842 1317.88,129.572 1320.04,129.305 1322.2,129.039 1324.36,128.774 1326.52,128.511 1328.68,128.25 1330.84,127.991 1333,127.733 1335.16,127.477 1337.32,127.222 1339.48,126.969 1341.64,126.718 1343.81,126.468 1345.97,126.22 1348.13,125.973 1350.29,125.728 1352.45,125.484 1354.61,125.242 1356.77,125.002 1358.93,124.763 1361.09,124.525 1363.25,124.289 1365.41,124.055 1367.57,123.822 1369.73,123.59 1371.89,123.36 1374.05,123.131 1376.21,122.904 1378.37,122.678 1380.53,122.454 1382.69,122.231 1384.85,122.009 1387.01,121.789 1389.18,121.57 1391.34,121.353 1393.5,121.137 1395.66,120.922 1397.82,120.709 1399.98,120.496 1402.14,120.286 1404.3,120.076 1406.46,119.868 1408.62,119.661 1410.78,119.456 1412.94,119.251 1415.1,119.048 1417.26,118.847 1419.42,118.646 1421.58,118.447 1423.74,118.249 1425.9,118.052 1428.06,117.857 1430.22,117.662 1432.39,117.469 1434.55,117.277 1436.71,117.087 1438.87,116.897 1441.03,116.709 1443.19,116.521 1445.35,116.335 1447.51,116.15 1449.67,115.967 1451.83,115.784 1453.99,115.603 1456.15,115.422 1458.31,115.243 1460.47,115.065 1462.63,114.888 1464.79,114.712 1466.95,114.537 1469.11,114.363 1471.27,114.19 1473.43,114.018 1475.6,113.848 1477.76,113.678 1479.92,113.51 1482.08,113.342 1484.24,113.176 1486.4,113.01 1488.56,112.846 1490.72,112.682 1492.88,112.52 1495.04,112.358 1497.2,112.198 1499.36,112.038 1501.52,111.88 1503.68,111.722 1505.84,111.566 1508,111.41 1510.16,111.256 1512.32,111.102 1514.48,110.95 1516.64,110.798 1518.81,110.647 1520.97,110.497 1523.13,110.348 1525.29,110.2 1527.45,110.053 1529.61,109.907 1531.77,109.762 1533.93,109.617 1536.09,109.474 1538.25,109.331 1540.41,109.19 1542.57,109.049 1544.73,108.909 1546.89,108.77 1549.05,108.632 1551.21,108.494 1553.37,108.358 1555.53,108.222 1557.69,108.087 1559.85,107.954 1562.01,107.82 1564.18,107.688 1566.34,107.557 1568.5,107.426 1570.66,107.296 1572.82,107.167 1574.98,107.039 1577.14,106.911 1579.3,106.785 1581.46,106.659 1583.62,106.534 1585.78,106.41 1587.94,106.286 1590.1,106.163 1592.26,106.041 1594.42,105.92 1596.58,105.8 1598.74,105.68 1600.9,105.561 1603.06,105.443 1605.22,105.325 1607.39,105.208 1609.55,105.092 1611.71,104.977 1613.87,104.862 1616.03,104.749 1618.19,104.635 1620.35,104.523 1622.51,104.411 1624.67,104.3 1626.83,104.19 1628.99,104.08 1631.15,103.971 1633.31,103.862 1635.47,103.755 1637.63,103.648 1639.79,103.541 1641.95,103.436 1644.11,103.331 1646.27,103.226 1648.43,103.122 1650.6,103.019 1652.76,102.917 1654.92,102.815 1657.08,102.714 1659.24,102.613 1661.4,102.513 1663.56,102.414 1665.72,102.315 1667.88,102.217 1670.04,102.119 1672.2,102.022 1674.36,101.926 1676.52,101.83 1678.68,101.735 1680.84,101.641 1683,101.547 1685.16,101.453 1687.32,101.36 1689.48,101.268 1691.64,101.176 1693.81,101.085 1695.97,100.994 1698.13,100.904 1700.29,100.815 1702.45,100.726 1704.61,100.637 1706.77,100.55 1708.93,100.462 1711.09,100.375 1713.25,100.289 1715.41,100.203 1717.57,100.118 1719.73,100.033 1721.89,99.9491 1724.05,99.8654 1726.21,99.7822 1728.37,99.6995 1730.53,99.6173 1732.69,99.5356 1734.85,99.4543 1737.02,99.3736 1739.18,99.2933 1741.34,99.2136 1743.5,99.1343 1745.66,99.0555 1747.82,98.9771 1749.98,98.8993 1752.14,98.8219 1754.3,98.7449 1756.46,98.6685 1758.62,98.5925 1760.78,98.5169 1762.94,98.4418 1765.1,98.3672 1767.26,98.293 1769.42,98.2193 1771.58,98.146 1773.74,98.0732 1775.9,98.0008 1778.06,97.9288 1780.22,97.8573 1782.39,97.7862 1784.55,97.7156 1786.71,97.6454 1788.87,97.5756 1791.03,97.5062 1793.19,97.4373 1795.35,97.3688 1797.51,97.3007 1799.67,97.233 1801.83,97.1657 1803.99,97.0988 1806.15,97.0324 1808.31,96.9664 1810.47,96.9007 1812.63,96.8355 1814.79,96.7707 1816.95,96.7062 1819.11,96.6422 1821.27,96.5785 1823.43,96.5153 1825.6,96.4524 1827.76,96.3899 1829.92,96.3278 1832.08,96.2661 1834.24,96.2048 1836.4,96.1438 1838.56,96.0832 1840.72,96.023 1842.88,95.9632 1845.04,95.9037 1847.2,95.8446 1849.36,95.7859 1851.52,95.7275 1853.68,95.6695 1855.84,95.6118 1858,95.5545 1860.16,95.4976 1862.32,95.441 1864.48,95.3847 1866.64,95.3288 1868.81,95.2733 1870.97,95.2181 1873.13,95.1632 1875.29,95.1087 1877.45,95.0545 1879.61,95.0006 1881.77,94.9471 1883.93,94.8939 1886.09,94.841 1888.25,94.7885 1890.41,94.7363 1892.57,94.6844 1894.73,94.6328 1896.89,94.5816 1899.05,94.5306 1901.21,94.48 1903.37,94.4297 1905.53,94.3797 1907.69,94.33 1909.85,94.2806 1912.02,94.2315 1914.18,94.1828 1916.34,94.1343 1918.5,94.0861 1920.66,94.0382 1922.82,93.9906 1924.98,93.9433 1927.14,93.8963 1929.3,93.8496 1931.46,93.8032 1933.62,93.7571 1935.78,93.7112 1937.94,93.6657 1940.1,93.6204 1942.26,93.5753 1944.42,93.5306 1946.58,93.4861 1948.74,93.442 1950.9,93.398 1953.06,93.3544 1955.22,93.311 1957.39,93.2679 1959.55,93.225 1961.71,93.1825 1963.87,93.1401 1966.03,93.098 1968.19,93.0562 1970.35,93.0147 1972.51,92.9734 1974.67,92.9323 1976.83,92.8915 1978.99,92.8509 1981.15,92.8106 1983.31,92.7706 1985.47,92.7307 1987.63,92.6912 1989.79,92.6518 1991.95,92.6127 1994.11,92.5739 1996.27,92.5352 1998.43,92.4968 2000.6,92.4586 2002.76,92.4207 2004.92,92.383 2007.08,92.3455 2009.24,92.3083 2011.4,92.2712 2013.56,92.2344 2015.72,92.1978 2017.88,92.1614 2020.04,92.1253 2022.2,92.0893 2024.36,92.0536 2026.52,92.0181 2028.68,91.9828 2030.84,91.9477 2033,91.9128 2035.16,91.8781 2037.32,91.8436 2039.48,91.8093 2041.64,91.7753 2043.81,91.7414 2045.97,91.7077 2048.13,91.6742 2050.29,91.641 2052.45,91.6079 2054.61,91.575 2056.77,91.5423 2058.93,91.5098 2061.09,91.4775 2063.25,91.4454 2065.41,91.4135 2067.57,91.3817 2069.73,91.3502 2071.89,91.3189 2074.05,91.2877 2076.21,91.2567 2078.37,91.226 2080.53,91.1954 2082.69,91.1649 2084.85,91.1347 2087.02,91.1047 2089.18,91.0748 2091.34,91.0451 2093.5,91.0156 2095.66,90.9863 2097.82,90.9571 2099.98,90.9281 2102.14,90.8993 2104.3,90.8707 2106.46,90.8423 2108.62,90.814 2110.78,90.7859 2112.94,90.7579 2115.1,90.7302 2117.26,90.7026 2119.42,90.6751 2121.58,90.6479 2123.74,90.6208 2125.9,90.5938 2128.06,90.5671 2130.22,90.5405 2132.39,90.514 2134.55,90.4877 2136.71,90.4616 2138.87,90.4356 2141.03,90.4098 2143.19,90.3842 2145.35,90.3587 2147.51,90.3333 2149.67,90.3081 2151.83,90.2831 2153.99,90.2582 2156.15,90.2335 2158.31,90.2089 2160.47,90.1845 2162.63,90.1602 2164.79,90.1361 2166.95,90.1121 2169.11,90.0883 2171.27,90.0646 2173.43,90.041 2175.6,90.0176 2177.76,89.9944 2179.92,89.9713 2182.08,89.9483 2184.24,89.9254 2186.4,89.9028 2188.56,89.8802 2190.72,89.8578 2192.88,89.8355 2195.04,89.8133 2197.2,89.7913 2199.36,89.7695 2201.52,89.7477 2203.68,89.7261 2205.84,89.7046 2208,89.6833 2210.16,89.6621 2212.32,89.641 2214.48,89.62 2216.64,89.5992 2218.81,89.5785 2220.97,89.5579 2223.13,89.5375 2225.29,89.5171 2227.45,89.4969 2229.61,89.4768 2231.77,89.4569 2233.93,89.4371 2236.09,89.4173 2238.25,89.3977 2240.41,89.3783 2242.57,89.3589 2244.73,89.3397 2246.89,89.3206 2249.05,89.3016 2251.21,89.2827 2253.37,89.2639 2255.53,89.2452 2257.69,89.2267 2259.85,89.2082 2262.02,89.1899 2264.18,89.1717 2266.34,89.1536 2268.5,89.1356 2270.66,89.1177 2272.82,89.1 2274.98,89.0823 2277.14,89.0647 2279.3,89.0473 2281.46,89.0299 2283.62,89.0127 2285.78,88.9956 2287.94,88.9785 2290.1,88.9616 2292.26,88.9448 2294.42,88.928 2296.58,88.9114 2298.74,88.8949 2300.9,88.8784 2303.06,88.8621 2305.23,88.8459 2307.39,88.8297 2309.55,88.8137 2311.71,88.7978 2313.87,88.7819 2316.03,88.7662 2318.19,88.7505 2320.35,88.7349 2322.51,88.7195 2324.67,88.7041 2326.83,88.6888 2328.99,88.6736 2331.15,88.6585 2333.31,88.6435 2335.47,88.6285 2337.63,88.6137 2339.79,88.599 2341.95,88.5843 2344.11,88.5697 2346.27,88.5552 2348.43,88.5408 2350.6,88.5265 2352.76,88.5123 "/>
<path clip-path="url(#clip350)" d="M1805.58 1377.32 L2280.81 1377.32 L2280.81 1221.8 L1805.58 1221.8  Z" fill="#ffffff" fill-rule="evenodd" fill-opacity="1"/>
<polyline clip-path="url(#clip350)" style="stroke:#000000; stroke-linecap:round; stroke-linejoin:round; stroke-width:4; stroke-opacity:1; fill:none" points="1805.58,1377.32 2280.81,1377.32 2280.81,1221.8 1805.58,1221.8 1805.58,1377.32 "/>
<polyline clip-path="url(#clip350)" style="stroke:#009af9; stroke-linecap:round; stroke-linejoin:round; stroke-width:4; stroke-opacity:1; fill:none" points="1829.56,1273.64 1973.45,1273.64 "/>
<path clip-path="url(#clip350)" d="M1997.43 1264.99 L2001.95 1264.99 L2010.05 1286.75 L2018.15 1264.99 L2022.66 1264.99 L2012.94 1290.92 L2007.16 1290.92 L1997.43 1264.99 Z" fill="#000000" fill-rule="nonzero" fill-opacity="1" /><path clip-path="url(#clip350)" d="M2029.96 1286.98 L2037.6 1286.98 L2037.6 1260.61 L2029.28 1262.28 L2029.28 1258.02 L2037.55 1256.36 L2042.22 1256.36 L2042.22 1286.98 L2049.86 1286.98 L2049.86 1290.92 L2029.96 1290.92 L2029.96 1286.98 Z" fill="#000000" fill-rule="nonzero" fill-opacity="1" /><path clip-path="url(#clip350)" d="M2067.97 1274.27 L2067.97 1281.49 L2076.09 1281.49 L2076.09 1283.69 L2067.97 1283.69 L2067.97 1290.92 L2065.53 1290.92 L2065.53 1283.69 L2057.41 1283.69 L2057.41 1281.49 L2065.53 1281.49 L2065.53 1274.27 L2067.97 1274.27 Z" fill="#000000" fill-rule="nonzero" fill-opacity="1" /><path clip-path="url(#clip350)" d="M2100.26 1265.75 L2100.26 1269.78 Q2098.45 1268.86 2096.51 1268.39 Q2094.56 1267.93 2092.48 1267.93 Q2089.31 1267.93 2087.71 1268.9 Q2086.14 1269.87 2086.14 1271.82 Q2086.14 1273.3 2087.27 1274.16 Q2088.4 1274.99 2091.83 1275.75 L2093.29 1276.08 Q2097.83 1277.05 2099.72 1278.83 Q2101.65 1280.59 2101.65 1283.76 Q2101.65 1287.37 2098.78 1289.48 Q2095.93 1291.59 2090.93 1291.59 Q2088.84 1291.59 2086.58 1291.17 Q2084.33 1290.78 2081.83 1289.97 L2081.83 1285.57 Q2084.19 1286.79 2086.48 1287.42 Q2088.78 1288.02 2091.02 1288.02 Q2094.03 1288.02 2095.65 1287 Q2097.27 1285.96 2097.27 1284.09 Q2097.27 1282.35 2096.09 1281.42 Q2094.93 1280.5 2090.97 1279.64 L2089.49 1279.3 Q2085.53 1278.46 2083.78 1276.75 Q2082.02 1275.01 2082.02 1272 Q2082.02 1268.35 2084.61 1266.36 Q2087.2 1264.36 2091.97 1264.36 Q2094.33 1264.36 2096.41 1264.71 Q2098.5 1265.06 2100.26 1265.75 Z" fill="#000000" fill-rule="nonzero" fill-opacity="1" /><path clip-path="url(#clip350)" d="M2112.64 1257.63 L2112.64 1264.99 L2121.41 1264.99 L2121.41 1268.3 L2112.64 1268.3 L2112.64 1282.37 Q2112.64 1285.54 2113.5 1286.45 Q2114.38 1287.35 2117.04 1287.35 L2121.41 1287.35 L2121.41 1290.92 L2117.04 1290.92 Q2112.11 1290.92 2110.23 1289.09 Q2108.36 1287.23 2108.36 1282.37 L2108.36 1268.3 L2105.23 1268.3 L2105.23 1264.99 L2108.36 1264.99 L2108.36 1257.63 L2112.64 1257.63 Z" fill="#000000" fill-rule="nonzero" fill-opacity="1" /><path clip-path="url(#clip350)" d="M2137.06 1267.98 Q2133.64 1267.98 2131.65 1270.66 Q2129.65 1273.32 2129.65 1277.98 Q2129.65 1282.63 2131.62 1285.31 Q2133.61 1287.98 2137.06 1287.98 Q2140.46 1287.98 2142.46 1285.29 Q2144.45 1282.61 2144.45 1277.98 Q2144.45 1273.37 2142.46 1270.68 Q2140.46 1267.98 2137.06 1267.98 M2137.06 1264.36 Q2142.62 1264.36 2145.79 1267.98 Q2148.96 1271.59 2148.96 1277.98 Q2148.96 1284.34 2145.79 1287.98 Q2142.62 1291.59 2137.06 1291.59 Q2131.48 1291.59 2128.31 1287.98 Q2125.16 1284.34 2125.16 1277.98 Q2125.16 1271.59 2128.31 1267.98 Q2131.48 1264.36 2137.06 1264.36 Z" fill="#000000" fill-rule="nonzero" fill-opacity="1" /><path clip-path="url(#clip350)" d="M2171.04 1268.97 Q2170.33 1268.55 2169.47 1268.37 Q2168.64 1268.16 2167.62 1268.16 Q2164.01 1268.16 2162.06 1270.52 Q2160.14 1272.86 2160.14 1277.26 L2160.14 1290.92 L2155.86 1290.92 L2155.86 1264.99 L2160.14 1264.99 L2160.14 1269.02 Q2161.48 1266.66 2163.64 1265.52 Q2165.79 1264.36 2168.87 1264.36 Q2169.31 1264.36 2169.84 1264.43 Q2170.37 1264.48 2171.02 1264.6 L2171.04 1268.97 Z" fill="#000000" fill-rule="nonzero" fill-opacity="1" /><path clip-path="url(#clip350)" d="M2187.29 1277.88 Q2182.13 1277.88 2180.14 1279.06 Q2178.15 1280.24 2178.15 1283.09 Q2178.15 1285.36 2179.63 1286.7 Q2181.14 1288.02 2183.71 1288.02 Q2187.25 1288.02 2189.38 1285.52 Q2191.53 1283 2191.53 1278.83 L2191.53 1277.88 L2187.29 1277.88 M2195.79 1276.12 L2195.79 1290.92 L2191.53 1290.92 L2191.53 1286.98 Q2190.07 1289.34 2187.9 1290.48 Q2185.72 1291.59 2182.57 1291.59 Q2178.59 1291.59 2176.23 1289.36 Q2173.89 1287.12 2173.89 1283.37 Q2173.89 1278.99 2176.81 1276.77 Q2179.75 1274.55 2185.56 1274.55 L2191.53 1274.55 L2191.53 1274.13 Q2191.53 1271.19 2189.58 1269.6 Q2187.66 1267.98 2184.17 1267.98 Q2181.95 1267.98 2179.84 1268.51 Q2177.73 1269.04 2175.79 1270.11 L2175.79 1266.17 Q2178.13 1265.27 2180.33 1264.83 Q2182.52 1264.36 2184.61 1264.36 Q2190.23 1264.36 2193.01 1267.28 Q2195.79 1270.2 2195.79 1276.12 Z" fill="#000000" fill-rule="nonzero" fill-opacity="1" /><path clip-path="url(#clip350)" d="M2221.62 1277.65 Q2221.62 1273.02 2219.7 1270.48 Q2217.8 1267.93 2214.35 1267.93 Q2210.93 1267.93 2209.01 1270.48 Q2207.11 1273.02 2207.11 1277.65 Q2207.11 1282.26 2209.01 1284.8 Q2210.93 1287.35 2214.35 1287.35 Q2217.8 1287.35 2219.7 1284.8 Q2221.62 1282.26 2221.62 1277.65 M2225.88 1287.7 Q2225.88 1294.32 2222.94 1297.54 Q2220 1300.78 2213.94 1300.78 Q2211.69 1300.78 2209.7 1300.43 Q2207.71 1300.11 2205.83 1299.41 L2205.83 1295.27 Q2207.71 1296.29 2209.54 1296.77 Q2211.37 1297.26 2213.27 1297.26 Q2217.46 1297.26 2219.54 1295.06 Q2221.62 1292.88 2221.62 1288.46 L2221.62 1286.36 Q2220.3 1288.65 2218.24 1289.78 Q2216.18 1290.92 2213.31 1290.92 Q2208.54 1290.92 2205.63 1287.28 Q2202.71 1283.65 2202.71 1277.65 Q2202.71 1271.63 2205.63 1268 Q2208.54 1264.36 2213.31 1264.36 Q2216.18 1264.36 2218.24 1265.5 Q2220.3 1266.63 2221.62 1268.92 L2221.62 1264.99 L2225.88 1264.99 L2225.88 1287.7 Z" fill="#000000" fill-rule="nonzero" fill-opacity="1" /><path clip-path="url(#clip350)" d="M2256.83 1276.89 L2256.83 1278.97 L2237.25 1278.97 Q2237.52 1283.37 2239.89 1285.68 Q2242.27 1287.98 2246.51 1287.98 Q2248.96 1287.98 2251.25 1287.37 Q2253.57 1286.77 2255.83 1285.57 L2255.83 1289.6 Q2253.54 1290.57 2251.14 1291.08 Q2248.73 1291.59 2246.25 1291.59 Q2240.05 1291.59 2236.41 1287.98 Q2232.8 1284.36 2232.8 1278.21 Q2232.8 1271.84 2236.23 1268.11 Q2239.68 1264.36 2245.51 1264.36 Q2250.74 1264.36 2253.77 1267.74 Q2256.83 1271.1 2256.83 1276.89 M2252.57 1275.64 Q2252.52 1272.14 2250.6 1270.06 Q2248.71 1267.98 2245.56 1267.98 Q2241.99 1267.98 2239.84 1269.99 Q2237.71 1272 2237.39 1275.66 L2252.57 1275.64 Z" fill="#000000" fill-rule="nonzero" fill-opacity="1" /><polyline clip-path="url(#clip350)" style="stroke:#e26f46; stroke-linecap:round; stroke-linejoin:round; stroke-width:4; stroke-opacity:1; fill:none" points="1829.56,1325.48 1973.45,1325.48 "/>
<path clip-path="url(#clip350)" d="M1997.43 1316.83 L2001.95 1316.83 L2010.05 1338.59 L2018.15 1316.83 L2022.66 1316.83 L2012.94 1342.76 L2007.16 1342.76 L1997.43 1316.83 Z" fill="#000000" fill-rule="nonzero" fill-opacity="1" /><path clip-path="url(#clip350)" d="M2029.19 1308.2 L2047.55 1308.2 L2047.55 1312.13 L2033.47 1312.13 L2033.47 1320.6 Q2034.49 1320.26 2035.51 1320.09 Q2036.53 1319.91 2037.55 1319.91 Q2043.34 1319.91 2046.72 1323.08 Q2050.09 1326.25 2050.09 1331.67 Q2050.09 1337.25 2046.62 1340.35 Q2043.15 1343.43 2036.83 1343.43 Q2034.66 1343.43 2032.39 1343.06 Q2030.14 1342.69 2027.73 1341.95 L2027.73 1337.25 Q2029.82 1338.38 2032.04 1338.94 Q2034.26 1339.49 2036.74 1339.49 Q2040.74 1339.49 2043.08 1337.38 Q2045.42 1335.28 2045.42 1331.67 Q2045.42 1328.06 2043.08 1325.95 Q2040.74 1323.84 2036.74 1323.84 Q2034.86 1323.84 2032.99 1324.26 Q2031.14 1324.68 2029.19 1325.56 L2029.19 1308.2 Z" fill="#000000" fill-rule="nonzero" fill-opacity="1" /><path clip-path="url(#clip350)" d="M2067.97 1326.11 L2067.97 1333.33 L2076.09 1333.33 L2076.09 1335.53 L2067.97 1335.53 L2067.97 1342.76 L2065.53 1342.76 L2065.53 1335.53 L2057.41 1335.53 L2057.41 1333.33 L2065.53 1333.33 L2065.53 1326.11 L2067.97 1326.11 Z" fill="#000000" fill-rule="nonzero" fill-opacity="1" /><path clip-path="url(#clip350)" d="M2100.26 1317.59 L2100.26 1321.62 Q2098.45 1320.7 2096.51 1320.23 Q2094.56 1319.77 2092.48 1319.77 Q2089.31 1319.77 2087.71 1320.74 Q2086.14 1321.71 2086.14 1323.66 Q2086.14 1325.14 2087.27 1326 Q2088.4 1326.83 2091.83 1327.59 L2093.29 1327.92 Q2097.83 1328.89 2099.72 1330.67 Q2101.65 1332.43 2101.65 1335.6 Q2101.65 1339.21 2098.78 1341.32 Q2095.93 1343.43 2090.93 1343.43 Q2088.84 1343.43 2086.58 1343.01 Q2084.33 1342.62 2081.83 1341.81 L2081.83 1337.41 Q2084.19 1338.63 2086.48 1339.26 Q2088.78 1339.86 2091.02 1339.86 Q2094.03 1339.86 2095.65 1338.84 Q2097.27 1337.8 2097.27 1335.93 Q2097.27 1334.19 2096.09 1333.26 Q2094.93 1332.34 2090.97 1331.48 L2089.49 1331.14 Q2085.53 1330.3 2083.78 1328.59 Q2082.02 1326.85 2082.02 1323.84 Q2082.02 1320.19 2084.61 1318.2 Q2087.2 1316.2 2091.97 1316.2 Q2094.33 1316.2 2096.41 1316.55 Q2098.5 1316.9 2100.26 1317.59 Z" fill="#000000" fill-rule="nonzero" fill-opacity="1" /><path clip-path="url(#clip350)" d="M2112.64 1309.47 L2112.64 1316.83 L2121.41 1316.83 L2121.41 1320.14 L2112.64 1320.14 L2112.64 1334.21 Q2112.64 1337.38 2113.5 1338.29 Q2114.38 1339.19 2117.04 1339.19 L2121.41 1339.19 L2121.41 1342.76 L2117.04 1342.76 Q2112.11 1342.76 2110.23 1340.93 Q2108.36 1339.07 2108.36 1334.21 L2108.36 1320.14 L2105.23 1320.14 L2105.23 1316.83 L2108.36 1316.83 L2108.36 1309.47 L2112.64 1309.47 Z" fill="#000000" fill-rule="nonzero" fill-opacity="1" /><path clip-path="url(#clip350)" d="M2137.06 1319.82 Q2133.64 1319.82 2131.65 1322.5 Q2129.65 1325.16 2129.65 1329.82 Q2129.65 1334.47 2131.62 1337.15 Q2133.61 1339.82 2137.06 1339.82 Q2140.46 1339.82 2142.46 1337.13 Q2144.45 1334.45 2144.45 1329.82 Q2144.45 1325.21 2142.46 1322.52 Q2140.46 1319.82 2137.06 1319.82 M2137.06 1316.2 Q2142.62 1316.2 2145.79 1319.82 Q2148.96 1323.43 2148.96 1329.82 Q2148.96 1336.18 2145.79 1339.82 Q2142.62 1343.43 2137.06 1343.43 Q2131.48 1343.43 2128.31 1339.82 Q2125.16 1336.18 2125.16 1329.82 Q2125.16 1323.43 2128.31 1319.82 Q2131.48 1316.2 2137.06 1316.2 Z" fill="#000000" fill-rule="nonzero" fill-opacity="1" /><path clip-path="url(#clip350)" d="M2171.04 1320.81 Q2170.33 1320.39 2169.47 1320.21 Q2168.64 1320 2167.62 1320 Q2164.01 1320 2162.06 1322.36 Q2160.14 1324.7 2160.14 1329.1 L2160.14 1342.76 L2155.86 1342.76 L2155.86 1316.83 L2160.14 1316.83 L2160.14 1320.86 Q2161.48 1318.5 2163.64 1317.36 Q2165.79 1316.2 2168.87 1316.2 Q2169.31 1316.2 2169.84 1316.27 Q2170.37 1316.32 2171.02 1316.44 L2171.04 1320.81 Z" fill="#000000" fill-rule="nonzero" fill-opacity="1" /><path clip-path="url(#clip350)" d="M2187.29 1329.72 Q2182.13 1329.72 2180.14 1330.9 Q2178.15 1332.08 2178.15 1334.93 Q2178.15 1337.2 2179.63 1338.54 Q2181.14 1339.86 2183.71 1339.86 Q2187.25 1339.86 2189.38 1337.36 Q2191.53 1334.84 2191.53 1330.67 L2191.53 1329.72 L2187.29 1329.72 M2195.79 1327.96 L2195.79 1342.76 L2191.53 1342.76 L2191.53 1338.82 Q2190.07 1341.18 2187.9 1342.32 Q2185.72 1343.43 2182.57 1343.43 Q2178.59 1343.43 2176.23 1341.2 Q2173.89 1338.96 2173.89 1335.21 Q2173.89 1330.83 2176.81 1328.61 Q2179.75 1326.39 2185.56 1326.39 L2191.53 1326.39 L2191.53 1325.97 Q2191.53 1323.03 2189.58 1321.44 Q2187.66 1319.82 2184.17 1319.82 Q2181.95 1319.82 2179.84 1320.35 Q2177.73 1320.88 2175.79 1321.95 L2175.79 1318.01 Q2178.13 1317.11 2180.33 1316.67 Q2182.52 1316.2 2184.61 1316.2 Q2190.23 1316.2 2193.01 1319.12 Q2195.79 1322.04 2195.79 1327.96 Z" fill="#000000" fill-rule="nonzero" fill-opacity="1" /><path clip-path="url(#clip350)" d="M2221.62 1329.49 Q2221.62 1324.86 2219.7 1322.32 Q2217.8 1319.77 2214.35 1319.77 Q2210.93 1319.77 2209.01 1322.32 Q2207.11 1324.86 2207.11 1329.49 Q2207.11 1334.1 2209.01 1336.64 Q2210.93 1339.19 2214.35 1339.19 Q2217.8 1339.19 2219.7 1336.64 Q2221.62 1334.1 2221.62 1329.49 M2225.88 1339.54 Q2225.88 1346.16 2222.94 1349.38 Q2220 1352.62 2213.94 1352.62 Q2211.69 1352.62 2209.7 1352.27 Q2207.71 1351.95 2205.83 1351.25 L2205.83 1347.11 Q2207.71 1348.13 2209.54 1348.61 Q2211.37 1349.1 2213.27 1349.1 Q2217.46 1349.1 2219.54 1346.9 Q2221.62 1344.72 2221.62 1340.3 L2221.62 1338.2 Q2220.3 1340.49 2218.24 1341.62 Q2216.18 1342.76 2213.31 1342.76 Q2208.54 1342.76 2205.63 1339.12 Q2202.71 1335.49 2202.71 1329.49 Q2202.71 1323.47 2205.63 1319.84 Q2208.54 1316.2 2213.31 1316.2 Q2216.18 1316.2 2218.24 1317.34 Q2220.3 1318.47 2221.62 1320.76 L2221.62 1316.83 L2225.88 1316.83 L2225.88 1339.54 Z" fill="#000000" fill-rule="nonzero" fill-opacity="1" /><path clip-path="url(#clip350)" d="M2256.83 1328.73 L2256.83 1330.81 L2237.25 1330.81 Q2237.52 1335.21 2239.89 1337.52 Q2242.27 1339.82 2246.51 1339.82 Q2248.96 1339.82 2251.25 1339.21 Q2253.57 1338.61 2255.83 1337.41 L2255.83 1341.44 Q2253.54 1342.41 2251.14 1342.92 Q2248.73 1343.43 2246.25 1343.43 Q2240.05 1343.43 2236.41 1339.82 Q2232.8 1336.2 2232.8 1330.05 Q2232.8 1323.68 2236.23 1319.95 Q2239.68 1316.2 2245.51 1316.2 Q2250.74 1316.2 2253.77 1319.58 Q2256.83 1322.94 2256.83 1328.73 M2252.57 1327.48 Q2252.52 1323.98 2250.6 1321.9 Q2248.71 1319.82 2245.56 1319.82 Q2241.99 1319.82 2239.84 1321.83 Q2237.71 1323.84 2237.39 1327.5 L2252.57 1327.48 Z" fill="#000000" fill-rule="nonzero" fill-opacity="1" /></svg>
