<?xml version="1.0" encoding="utf-8"?>
<svg xmlns="http://www.w3.org/2000/svg" xmlns:xlink="http://www.w3.org/1999/xlink" width="600" height="400" viewBox="0 0 2400 1600">
<defs>
  <clipPath id="clip510">
    <rect x="0" y="0" width="2400" height="1600"/>
  </clipPath>
</defs>
<path clip-path="url(#clip510)" d="M0 1600 L2400 1600 L2400 0 L0 0  Z" fill="#ffffff" fill-rule="evenodd" fill-opacity="1"/>
<defs>
  <clipPath id="clip511">
    <rect x="480" y="0" width="1681" height="1600"/>
  </clipPath>
</defs>
<path clip-path="url(#clip510)" d="M224.098 1423.18 L2352.76 1423.18 L2352.76 47.2441 L224.098 47.2441  Z" fill="#ffffff" fill-rule="evenodd" fill-opacity="1"/>
<defs>
  <clipPath id="clip512">
    <rect x="224" y="47" width="2130" height="1377"/>
  </clipPath>
</defs>
<polyline clip-path="url(#clip512)" style="stroke:#000000; stroke-linecap:round; stroke-linejoin:round; stroke-width:2; stroke-opacity:0.1; fill:none" points="224.098,1423.18 224.098,47.2441 "/>
<polyline clip-path="url(#clip512)" style="stroke:#000000; stroke-linecap:round; stroke-linejoin:round; stroke-width:2; stroke-opacity:0.1; fill:none" points="756.262,1423.18 756.262,47.2441 "/>
<polyline clip-path="url(#clip512)" style="stroke:#000000; stroke-linecap:round; stroke-linejoin:round; stroke-width:2; stroke-opacity:0.1; fill:none" points="1288.43,1423.18 1288.43,47.2441 "/>
<polyline clip-path="url(#clip512)" style="stroke:#000000; stroke-linecap:round; stroke-linejoin:round; stroke-width:2; stroke-opacity:0.1; fill:none" points="1820.59,1423.18 1820.59,47.2441 "/>
<polyline clip-path="url(#clip512)" style="stroke:#000000; stroke-linecap:round; stroke-linejoin:round; stroke-width:2; stroke-opacity:0.1; fill:none" points="2352.76,1423.18 2352.76,47.2441 "/>
<polyline clip-path="url(#clip512)" style="stroke:#000000; stroke-linecap:round; stroke-linejoin:round; stroke-width:2; stroke-opacity:0.1; fill:none" points="224.098,1411.3 2352.76,1411.3 "/>
<polyline clip-path="url(#clip512)" style="stroke:#000000; stroke-linecap:round; stroke-linejoin:round; stroke-width:2; stroke-opacity:0.1; fill:none" points="224.098,1111.51 2352.76,1111.51 "/>
<polyline clip-path="url(#clip512)" style="stroke:#000000; stroke-linecap:round; stroke-linejoin:round; stroke-width:2; stroke-opacity:0.1; fill:none" points="224.098,811.713 2352.76,811.713 "/>
<polyline clip-path="url(#clip512)" style="stroke:#000000; stroke-linecap:round; stroke-linejoin:round; stroke-width:2; stroke-opacity:0.1; fill:none" points="224.098,511.92 2352.76,511.92 "/>
<polyline clip-path="url(#clip512)" style="stroke:#000000; stroke-linecap:round; stroke-linejoin:round; stroke-width:2; stroke-opacity:0.1; fill:none" points="224.098,212.127 2352.76,212.127 "/>
<polyline clip-path="url(#clip510)" style="stroke:#000000; stroke-linecap:round; stroke-linejoin:round; stroke-width:4; stroke-opacity:1; fill:none" points="224.098,1423.18 2352.76,1423.18 "/>
<polyline clip-path="url(#clip510)" style="stroke:#000000; stroke-linecap:round; stroke-linejoin:round; stroke-width:4; stroke-opacity:1; fill:none" points="224.098,1423.18 224.098,1404.28 "/>
<polyline clip-path="url(#clip510)" style="stroke:#000000; stroke-linecap:round; stroke-linejoin:round; stroke-width:4; stroke-opacity:1; fill:none" points="756.262,1423.18 756.262,1404.28 "/>
<polyline clip-path="url(#clip510)" style="stroke:#000000; stroke-linecap:round; stroke-linejoin:round; stroke-width:4; stroke-opacity:1; fill:none" points="1288.43,1423.18 1288.43,1404.28 "/>
<polyline clip-path="url(#clip510)" style="stroke:#000000; stroke-linecap:round; stroke-linejoin:round; stroke-width:4; stroke-opacity:1; fill:none" points="1820.59,1423.18 1820.59,1404.28 "/>
<polyline clip-path="url(#clip510)" style="stroke:#000000; stroke-linecap:round; stroke-linejoin:round; stroke-width:4; stroke-opacity:1; fill:none" points="2352.76,1423.18 2352.76,1404.28 "/>
<path clip-path="url(#clip510)" d="M201.482 1454.1 Q197.871 1454.1 196.042 1457.66 Q194.237 1461.2 194.237 1468.33 Q194.237 1475.44 196.042 1479.01 Q197.871 1482.55 201.482 1482.55 Q205.116 1482.55 206.922 1479.01 Q208.751 1475.44 208.751 1468.33 Q208.751 1461.2 206.922 1457.66 Q205.116 1454.1 201.482 1454.1 M201.482 1450.39 Q207.292 1450.39 210.348 1455 Q213.427 1459.58 213.427 1468.33 Q213.427 1477.06 210.348 1481.67 Q207.292 1486.25 201.482 1486.25 Q195.672 1486.25 192.593 1481.67 Q189.538 1477.06 189.538 1468.33 Q189.538 1459.58 192.593 1455 Q195.672 1450.39 201.482 1450.39 Z" fill="#000000" fill-rule="nonzero" fill-opacity="1" /><path clip-path="url(#clip510)" d="M221.644 1479.7 L226.528 1479.7 L226.528 1485.58 L221.644 1485.58 L221.644 1479.7 Z" fill="#000000" fill-rule="nonzero" fill-opacity="1" /><path clip-path="url(#clip510)" d="M246.713 1454.1 Q243.102 1454.1 241.274 1457.66 Q239.468 1461.2 239.468 1468.33 Q239.468 1475.44 241.274 1479.01 Q243.102 1482.55 246.713 1482.55 Q250.348 1482.55 252.153 1479.01 Q253.982 1475.44 253.982 1468.33 Q253.982 1461.2 252.153 1457.66 Q250.348 1454.1 246.713 1454.1 M246.713 1450.39 Q252.524 1450.39 255.579 1455 Q258.658 1459.58 258.658 1468.33 Q258.658 1477.06 255.579 1481.67 Q252.524 1486.25 246.713 1486.25 Q240.903 1486.25 237.825 1481.67 Q234.769 1477.06 234.769 1468.33 Q234.769 1459.58 237.825 1455 Q240.903 1450.39 246.713 1450.39 Z" fill="#000000" fill-rule="nonzero" fill-opacity="1" /><path clip-path="url(#clip510)" d="M734.144 1454.1 Q730.533 1454.1 728.705 1457.66 Q726.899 1461.2 726.899 1468.33 Q726.899 1475.44 728.705 1479.01 Q730.533 1482.55 734.144 1482.55 Q737.779 1482.55 739.584 1479.01 Q741.413 1475.44 741.413 1468.33 Q741.413 1461.2 739.584 1457.66 Q737.779 1454.1 734.144 1454.1 M734.144 1450.39 Q739.955 1450.39 743.01 1455 Q746.089 1459.58 746.089 1468.33 Q746.089 1477.06 743.01 1481.67 Q739.955 1486.25 734.144 1486.25 Q728.334 1486.25 725.256 1481.67 Q722.2 1477.06 722.2 1468.33 Q722.2 1459.58 725.256 1455 Q728.334 1450.39 734.144 1450.39 Z" fill="#000000" fill-rule="nonzero" fill-opacity="1" /><path clip-path="url(#clip510)" d="M754.306 1479.7 L759.191 1479.7 L759.191 1485.58 L754.306 1485.58 L754.306 1479.7 Z" fill="#000000" fill-rule="nonzero" fill-opacity="1" /><path clip-path="url(#clip510)" d="M769.422 1451.02 L787.778 1451.02 L787.778 1454.96 L773.704 1454.96 L773.704 1463.43 Q774.723 1463.08 775.741 1462.92 Q776.76 1462.73 777.778 1462.73 Q783.565 1462.73 786.945 1465.9 Q790.325 1469.08 790.325 1474.49 Q790.325 1480.07 786.852 1483.17 Q783.38 1486.25 777.061 1486.25 Q774.885 1486.25 772.616 1485.88 Q770.371 1485.51 767.964 1484.77 L767.964 1480.07 Q770.047 1481.2 772.269 1481.76 Q774.491 1482.32 776.968 1482.32 Q780.973 1482.32 783.311 1480.21 Q785.649 1478.1 785.649 1474.49 Q785.649 1470.88 783.311 1468.77 Q780.973 1466.67 776.968 1466.67 Q775.093 1466.67 773.218 1467.08 Q771.366 1467.5 769.422 1468.38 L769.422 1451.02 Z" fill="#000000" fill-rule="nonzero" fill-opacity="1" /><path clip-path="url(#clip510)" d="M1255.58 1481.64 L1263.22 1481.64 L1263.22 1455.28 L1254.91 1456.95 L1254.91 1452.69 L1263.17 1451.02 L1267.85 1451.02 L1267.85 1481.64 L1275.49 1481.64 L1275.49 1485.58 L1255.58 1485.58 L1255.58 1481.64 Z" fill="#000000" fill-rule="nonzero" fill-opacity="1" /><path clip-path="url(#clip510)" d="M1284.93 1479.7 L1289.82 1479.7 L1289.82 1485.58 L1284.93 1485.58 L1284.93 1479.7 Z" fill="#000000" fill-rule="nonzero" fill-opacity="1" /><path clip-path="url(#clip510)" d="M1310 1454.1 Q1306.39 1454.1 1304.56 1457.66 Q1302.76 1461.2 1302.76 1468.33 Q1302.76 1475.44 1304.56 1479.01 Q1306.39 1482.55 1310 1482.55 Q1313.64 1482.55 1315.44 1479.01 Q1317.27 1475.44 1317.27 1468.33 Q1317.27 1461.2 1315.44 1457.66 Q1313.64 1454.1 1310 1454.1 M1310 1450.39 Q1315.81 1450.39 1318.87 1455 Q1321.95 1459.58 1321.95 1468.33 Q1321.95 1477.06 1318.87 1481.67 Q1315.81 1486.25 1310 1486.25 Q1304.19 1486.25 1301.11 1481.67 Q1298.06 1477.06 1298.06 1468.33 Q1298.06 1459.58 1301.11 1455 Q1304.19 1450.39 1310 1450.39 Z" fill="#000000" fill-rule="nonzero" fill-opacity="1" /><path clip-path="url(#clip510)" d="M1788.24 1481.64 L1795.88 1481.64 L1795.88 1455.28 L1787.57 1456.95 L1787.57 1452.69 L1795.83 1451.02 L1800.51 1451.02 L1800.51 1481.64 L1808.15 1481.64 L1808.15 1485.58 L1788.24 1485.58 L1788.24 1481.64 Z" fill="#000000" fill-rule="nonzero" fill-opacity="1" /><path clip-path="url(#clip510)" d="M1817.59 1479.7 L1822.48 1479.7 L1822.48 1485.58 L1817.59 1485.58 L1817.59 1479.7 Z" fill="#000000" fill-rule="nonzero" fill-opacity="1" /><path clip-path="url(#clip510)" d="M1832.71 1451.02 L1851.07 1451.02 L1851.07 1454.96 L1836.99 1454.96 L1836.99 1463.43 Q1838.01 1463.08 1839.03 1462.92 Q1840.05 1462.73 1841.07 1462.73 Q1846.85 1462.73 1850.23 1465.9 Q1853.61 1469.08 1853.61 1474.49 Q1853.61 1480.07 1850.14 1483.17 Q1846.67 1486.25 1840.35 1486.25 Q1838.17 1486.25 1835.9 1485.88 Q1833.66 1485.51 1831.25 1484.77 L1831.25 1480.07 Q1833.33 1481.2 1835.56 1481.76 Q1837.78 1482.32 1840.26 1482.32 Q1844.26 1482.32 1846.6 1480.21 Q1848.94 1478.1 1848.94 1474.49 Q1848.94 1470.88 1846.6 1468.77 Q1844.26 1466.67 1840.26 1466.67 Q1838.38 1466.67 1836.51 1467.08 Q1834.65 1467.5 1832.71 1468.38 L1832.71 1451.02 Z" fill="#000000" fill-rule="nonzero" fill-opacity="1" /><path clip-path="url(#clip510)" d="M2323.99 1481.64 L2340.31 1481.64 L2340.31 1485.58 L2318.37 1485.58 L2318.37 1481.64 Q2321.03 1478.89 2325.61 1474.26 Q2330.22 1469.61 2331.4 1468.27 Q2333.65 1465.74 2334.53 1464.01 Q2335.43 1462.25 2335.43 1460.56 Q2335.43 1457.8 2333.49 1456.07 Q2331.56 1454.33 2328.46 1454.33 Q2326.26 1454.33 2323.81 1455.09 Q2321.38 1455.86 2318.6 1457.41 L2318.6 1452.69 Q2321.43 1451.55 2323.88 1450.97 Q2326.33 1450.39 2328.37 1450.39 Q2333.74 1450.39 2336.93 1453.08 Q2340.13 1455.77 2340.13 1460.26 Q2340.13 1462.39 2339.32 1464.31 Q2338.53 1466.2 2336.42 1468.8 Q2335.85 1469.47 2332.74 1472.69 Q2329.64 1475.88 2323.99 1481.64 Z" fill="#000000" fill-rule="nonzero" fill-opacity="1" /><path clip-path="url(#clip510)" d="M2350.13 1479.7 L2355.01 1479.7 L2355.01 1485.58 L2350.13 1485.58 L2350.13 1479.7 Z" fill="#000000" fill-rule="nonzero" fill-opacity="1" /><path clip-path="url(#clip510)" d="M2375.2 1454.1 Q2371.59 1454.1 2369.76 1457.66 Q2367.95 1461.2 2367.95 1468.33 Q2367.95 1475.44 2369.76 1479.01 Q2371.59 1482.55 2375.2 1482.55 Q2378.83 1482.55 2380.64 1479.01 Q2382.47 1475.44 2382.47 1468.33 Q2382.47 1461.2 2380.64 1457.66 Q2378.83 1454.1 2375.2 1454.1 M2375.2 1450.39 Q2381.01 1450.39 2384.06 1455 Q2387.14 1459.58 2387.14 1468.33 Q2387.14 1477.06 2384.06 1481.67 Q2381.01 1486.25 2375.2 1486.25 Q2369.39 1486.25 2366.31 1481.67 Q2363.25 1477.06 2363.25 1468.33 Q2363.25 1459.58 2366.31 1455 Q2369.39 1450.39 2375.2 1450.39 Z" fill="#000000" fill-rule="nonzero" fill-opacity="1" /><path clip-path="url(#clip510)" d="M1287.49 1522.27 L1287.49 1532.4 L1299.55 1532.4 L1299.55 1536.95 L1287.49 1536.95 L1287.49 1556.3 Q1287.49 1560.66 1288.67 1561.9 Q1289.88 1563.14 1293.54 1563.14 L1299.55 1563.14 L1299.55 1568.04 L1293.54 1568.04 Q1286.76 1568.04 1284.18 1565.53 Q1281.6 1562.98 1281.6 1556.3 L1281.6 1536.95 L1277.3 1536.95 L1277.3 1532.4 L1281.6 1532.4 L1281.6 1522.27 L1287.49 1522.27 Z" fill="#000000" fill-rule="nonzero" fill-opacity="1" /><polyline clip-path="url(#clip510)" style="stroke:#000000; stroke-linecap:round; stroke-linejoin:round; stroke-width:4; stroke-opacity:1; fill:none" points="224.098,1423.18 224.098,47.2441 "/>
<polyline clip-path="url(#clip510)" style="stroke:#000000; stroke-linecap:round; stroke-linejoin:round; stroke-width:4; stroke-opacity:1; fill:none" points="224.098,1411.3 242.996,1411.3 "/>
<polyline clip-path="url(#clip510)" style="stroke:#000000; stroke-linecap:round; stroke-linejoin:round; stroke-width:4; stroke-opacity:1; fill:none" points="224.098,1111.51 242.996,1111.51 "/>
<polyline clip-path="url(#clip510)" style="stroke:#000000; stroke-linecap:round; stroke-linejoin:round; stroke-width:4; stroke-opacity:1; fill:none" points="224.098,811.713 242.996,811.713 "/>
<polyline clip-path="url(#clip510)" style="stroke:#000000; stroke-linecap:round; stroke-linejoin:round; stroke-width:4; stroke-opacity:1; fill:none" points="224.098,511.92 242.996,511.92 "/>
<polyline clip-path="url(#clip510)" style="stroke:#000000; stroke-linecap:round; stroke-linejoin:round; stroke-width:4; stroke-opacity:1; fill:none" points="224.098,212.127 242.996,212.127 "/>
<path clip-path="url(#clip510)" d="M51.9875 1411.75 L81.6633 1411.75 L81.6633 1415.68 L51.9875 1415.68 L51.9875 1411.75 Z" fill="#000000" fill-rule="nonzero" fill-opacity="1" /><path clip-path="url(#clip510)" d="M92.566 1424.64 L100.205 1424.64 L100.205 1398.28 L91.8947 1399.94 L91.8947 1395.68 L100.159 1394.02 L104.834 1394.02 L104.834 1424.64 L112.473 1424.64 L112.473 1428.58 L92.566 1428.58 L92.566 1424.64 Z" fill="#000000" fill-rule="nonzero" fill-opacity="1" /><path clip-path="url(#clip510)" d="M121.918 1422.7 L126.802 1422.7 L126.802 1428.58 L121.918 1428.58 L121.918 1422.7 Z" fill="#000000" fill-rule="nonzero" fill-opacity="1" /><path clip-path="url(#clip510)" d="M141.015 1424.64 L157.334 1424.64 L157.334 1428.58 L135.39 1428.58 L135.39 1424.64 Q138.052 1421.89 142.635 1417.26 Q147.242 1412.61 148.422 1411.26 Q150.668 1408.74 151.547 1407 Q152.45 1405.24 152.45 1403.55 Q152.45 1400.8 150.505 1399.06 Q148.584 1397.33 145.482 1397.33 Q143.283 1397.33 140.83 1398.09 Q138.399 1398.86 135.621 1400.41 L135.621 1395.68 Q138.445 1394.55 140.899 1393.97 Q143.353 1393.39 145.39 1393.39 Q150.76 1393.39 153.955 1396.08 Q157.149 1398.76 157.149 1403.25 Q157.149 1405.38 156.339 1407.3 Q155.552 1409.2 153.445 1411.8 Q152.867 1412.47 149.765 1415.68 Q146.663 1418.88 141.015 1424.64 Z" fill="#000000" fill-rule="nonzero" fill-opacity="1" /><path clip-path="url(#clip510)" d="M167.195 1394.02 L185.552 1394.02 L185.552 1397.95 L171.478 1397.95 L171.478 1406.43 Q172.496 1406.08 173.515 1405.92 Q174.533 1405.73 175.552 1405.73 Q181.339 1405.73 184.718 1408.9 Q188.098 1412.07 188.098 1417.49 Q188.098 1423.07 184.626 1426.17 Q181.153 1429.25 174.834 1429.25 Q172.658 1429.25 170.39 1428.88 Q168.144 1428.51 165.737 1427.77 L165.737 1423.07 Q167.82 1424.2 170.042 1424.76 Q172.265 1425.31 174.741 1425.31 Q178.746 1425.31 181.084 1423.21 Q183.422 1421.1 183.422 1417.49 Q183.422 1413.88 181.084 1411.77 Q178.746 1409.67 174.741 1409.67 Q172.866 1409.67 170.991 1410.08 Q169.14 1410.5 167.195 1411.38 L167.195 1394.02 Z" fill="#000000" fill-rule="nonzero" fill-opacity="1" /><path clip-path="url(#clip510)" d="M50.9921 1111.96 L80.6679 1111.96 L80.6679 1115.89 L50.9921 1115.89 L50.9921 1111.96 Z" fill="#000000" fill-rule="nonzero" fill-opacity="1" /><path clip-path="url(#clip510)" d="M91.5706 1124.85 L99.2095 1124.85 L99.2095 1098.48 L90.8993 1100.15 L90.8993 1095.89 L99.1632 1094.23 L103.839 1094.23 L103.839 1124.85 L111.478 1124.85 L111.478 1128.79 L91.5706 1128.79 L91.5706 1124.85 Z" fill="#000000" fill-rule="nonzero" fill-opacity="1" /><path clip-path="url(#clip510)" d="M120.922 1122.91 L125.807 1122.91 L125.807 1128.79 L120.922 1128.79 L120.922 1122.91 Z" fill="#000000" fill-rule="nonzero" fill-opacity="1" /><path clip-path="url(#clip510)" d="M145.992 1097.3 Q142.381 1097.3 140.552 1100.87 Q138.746 1104.41 138.746 1111.54 Q138.746 1118.65 140.552 1122.21 Q142.381 1125.75 145.992 1125.75 Q149.626 1125.75 151.431 1122.21 Q153.26 1118.65 153.26 1111.54 Q153.26 1104.41 151.431 1100.87 Q149.626 1097.3 145.992 1097.3 M145.992 1093.6 Q151.802 1093.6 154.857 1098.21 Q157.936 1102.79 157.936 1111.54 Q157.936 1120.27 154.857 1124.87 Q151.802 1129.46 145.992 1129.46 Q140.181 1129.46 137.103 1124.87 Q134.047 1120.27 134.047 1111.54 Q134.047 1102.79 137.103 1098.21 Q140.181 1093.6 145.992 1093.6 Z" fill="#000000" fill-rule="nonzero" fill-opacity="1" /><path clip-path="url(#clip510)" d="M176.153 1097.3 Q172.542 1097.3 170.714 1100.87 Q168.908 1104.41 168.908 1111.54 Q168.908 1118.65 170.714 1122.21 Q172.542 1125.75 176.153 1125.75 Q179.788 1125.75 181.593 1122.21 Q183.422 1118.65 183.422 1111.54 Q183.422 1104.41 181.593 1100.87 Q179.788 1097.3 176.153 1097.3 M176.153 1093.6 Q181.964 1093.6 185.019 1098.21 Q188.098 1102.79 188.098 1111.54 Q188.098 1120.27 185.019 1124.87 Q181.964 1129.46 176.153 1129.46 Q170.343 1129.46 167.265 1124.87 Q164.209 1120.27 164.209 1111.54 Q164.209 1102.79 167.265 1098.21 Q170.343 1093.6 176.153 1093.6 Z" fill="#000000" fill-rule="nonzero" fill-opacity="1" /><path clip-path="url(#clip510)" d="M51.9875 812.164 L81.6633 812.164 L81.6633 816.099 L51.9875 816.099 L51.9875 812.164 Z" fill="#000000" fill-rule="nonzero" fill-opacity="1" /><path clip-path="url(#clip510)" d="M101.756 797.511 Q98.1447 797.511 96.316 801.076 Q94.5104 804.618 94.5104 811.747 Q94.5104 818.854 96.316 822.419 Q98.1447 825.96 101.756 825.96 Q105.39 825.96 107.196 822.419 Q109.024 818.854 109.024 811.747 Q109.024 804.618 107.196 801.076 Q105.39 797.511 101.756 797.511 M101.756 793.808 Q107.566 793.808 110.621 798.414 Q113.7 802.997 113.7 811.747 Q113.7 820.474 110.621 825.081 Q107.566 829.664 101.756 829.664 Q95.9456 829.664 92.8669 825.081 Q89.8114 820.474 89.8114 811.747 Q89.8114 802.997 92.8669 798.414 Q95.9456 793.808 101.756 793.808 Z" fill="#000000" fill-rule="nonzero" fill-opacity="1" /><path clip-path="url(#clip510)" d="M121.918 823.113 L126.802 823.113 L126.802 828.993 L121.918 828.993 L121.918 823.113 Z" fill="#000000" fill-rule="nonzero" fill-opacity="1" /><path clip-path="url(#clip510)" d="M135.806 794.433 L158.029 794.433 L158.029 796.423 L145.482 828.993 L140.598 828.993 L152.404 798.368 L135.806 798.368 L135.806 794.433 Z" fill="#000000" fill-rule="nonzero" fill-opacity="1" /><path clip-path="url(#clip510)" d="M167.195 794.433 L185.552 794.433 L185.552 798.368 L171.478 798.368 L171.478 806.84 Q172.496 806.493 173.515 806.331 Q174.533 806.146 175.552 806.146 Q181.339 806.146 184.718 809.317 Q188.098 812.488 188.098 817.905 Q188.098 823.483 184.626 826.585 Q181.153 829.664 174.834 829.664 Q172.658 829.664 170.39 829.294 Q168.144 828.923 165.737 828.182 L165.737 823.483 Q167.82 824.618 170.042 825.173 Q172.265 825.729 174.741 825.729 Q178.746 825.729 181.084 823.622 Q183.422 821.516 183.422 817.905 Q183.422 814.294 181.084 812.187 Q178.746 810.081 174.741 810.081 Q172.866 810.081 170.991 810.497 Q169.14 810.914 167.195 811.794 L167.195 794.433 Z" fill="#000000" fill-rule="nonzero" fill-opacity="1" /><path clip-path="url(#clip510)" d="M50.9921 512.371 L80.6679 512.371 L80.6679 516.307 L50.9921 516.307 L50.9921 512.371 Z" fill="#000000" fill-rule="nonzero" fill-opacity="1" /><path clip-path="url(#clip510)" d="M100.76 497.719 Q97.1493 497.719 95.3206 501.283 Q93.515 504.825 93.515 511.955 Q93.515 519.061 95.3206 522.626 Q97.1493 526.168 100.76 526.168 Q104.395 526.168 106.2 522.626 Q108.029 519.061 108.029 511.955 Q108.029 504.825 106.2 501.283 Q104.395 497.719 100.76 497.719 M100.76 494.015 Q106.571 494.015 109.626 498.621 Q112.705 503.205 112.705 511.955 Q112.705 520.681 109.626 525.288 Q106.571 529.871 100.76 529.871 Q94.9502 529.871 91.8715 525.288 Q88.816 520.681 88.816 511.955 Q88.816 503.205 91.8715 498.621 Q94.9502 494.015 100.76 494.015 Z" fill="#000000" fill-rule="nonzero" fill-opacity="1" /><path clip-path="url(#clip510)" d="M120.922 523.32 L125.807 523.32 L125.807 529.2 L120.922 529.2 L120.922 523.32 Z" fill="#000000" fill-rule="nonzero" fill-opacity="1" /><path clip-path="url(#clip510)" d="M136.038 494.64 L154.394 494.64 L154.394 498.575 L140.32 498.575 L140.32 507.047 Q141.339 506.7 142.357 506.538 Q143.376 506.353 144.394 506.353 Q150.181 506.353 153.561 509.524 Q156.941 512.695 156.941 518.112 Q156.941 523.691 153.468 526.793 Q149.996 529.871 143.677 529.871 Q141.501 529.871 139.232 529.501 Q136.987 529.131 134.58 528.39 L134.58 523.691 Q136.663 524.825 138.885 525.381 Q141.107 525.936 143.584 525.936 Q147.589 525.936 149.927 523.83 Q152.265 521.723 152.265 518.112 Q152.265 514.501 149.927 512.394 Q147.589 510.288 143.584 510.288 Q141.709 510.288 139.834 510.705 Q137.982 511.121 136.038 512.001 L136.038 494.64 Z" fill="#000000" fill-rule="nonzero" fill-opacity="1" /><path clip-path="url(#clip510)" d="M176.153 497.719 Q172.542 497.719 170.714 501.283 Q168.908 504.825 168.908 511.955 Q168.908 519.061 170.714 522.626 Q172.542 526.168 176.153 526.168 Q179.788 526.168 181.593 522.626 Q183.422 519.061 183.422 511.955 Q183.422 504.825 181.593 501.283 Q179.788 497.719 176.153 497.719 M176.153 494.015 Q181.964 494.015 185.019 498.621 Q188.098 503.205 188.098 511.955 Q188.098 520.681 185.019 525.288 Q181.964 529.871 176.153 529.871 Q170.343 529.871 167.265 525.288 Q164.209 520.681 164.209 511.955 Q164.209 503.205 167.265 498.621 Q170.343 494.015 176.153 494.015 Z" fill="#000000" fill-rule="nonzero" fill-opacity="1" /><path clip-path="url(#clip510)" d="M51.9875 212.579 L81.6633 212.579 L81.6633 216.514 L51.9875 216.514 L51.9875 212.579 Z" fill="#000000" fill-rule="nonzero" fill-opacity="1" /><path clip-path="url(#clip510)" d="M101.756 197.926 Q98.1447 197.926 96.316 201.491 Q94.5104 205.032 94.5104 212.162 Q94.5104 219.268 96.316 222.833 Q98.1447 226.375 101.756 226.375 Q105.39 226.375 107.196 222.833 Q109.024 219.268 109.024 212.162 Q109.024 205.032 107.196 201.491 Q105.39 197.926 101.756 197.926 M101.756 194.222 Q107.566 194.222 110.621 198.829 Q113.7 203.412 113.7 212.162 Q113.7 220.889 110.621 225.495 Q107.566 230.079 101.756 230.079 Q95.9456 230.079 92.8669 225.495 Q89.8114 220.889 89.8114 212.162 Q89.8114 203.412 92.8669 198.829 Q95.9456 194.222 101.756 194.222 Z" fill="#000000" fill-rule="nonzero" fill-opacity="1" /><path clip-path="url(#clip510)" d="M121.918 223.528 L126.802 223.528 L126.802 229.407 L121.918 229.407 L121.918 223.528 Z" fill="#000000" fill-rule="nonzero" fill-opacity="1" /><path clip-path="url(#clip510)" d="M141.015 225.472 L157.334 225.472 L157.334 229.407 L135.39 229.407 L135.39 225.472 Q138.052 222.718 142.635 218.088 Q147.242 213.435 148.422 212.093 Q150.668 209.569 151.547 207.833 Q152.45 206.074 152.45 204.384 Q152.45 201.63 150.505 199.894 Q148.584 198.157 145.482 198.157 Q143.283 198.157 140.83 198.921 Q138.399 199.685 135.621 201.236 L135.621 196.514 Q138.445 195.38 140.899 194.801 Q143.353 194.222 145.39 194.222 Q150.76 194.222 153.955 196.907 Q157.149 199.593 157.149 204.083 Q157.149 206.213 156.339 208.134 Q155.552 210.032 153.445 212.625 Q152.867 213.296 149.765 216.514 Q146.663 219.708 141.015 225.472 Z" fill="#000000" fill-rule="nonzero" fill-opacity="1" /><path clip-path="url(#clip510)" d="M167.195 194.847 L185.552 194.847 L185.552 198.782 L171.478 198.782 L171.478 207.255 Q172.496 206.907 173.515 206.745 Q174.533 206.56 175.552 206.56 Q181.339 206.56 184.718 209.731 Q188.098 212.903 188.098 218.319 Q188.098 223.898 184.626 227 Q181.153 230.079 174.834 230.079 Q172.658 230.079 170.39 229.708 Q168.144 229.338 165.737 228.597 L165.737 223.898 Q167.82 225.032 170.042 225.588 Q172.265 226.143 174.741 226.143 Q178.746 226.143 181.084 224.037 Q183.422 221.931 183.422 218.319 Q183.422 214.708 181.084 212.602 Q178.746 210.495 174.741 210.495 Q172.866 210.495 170.991 210.912 Q169.14 211.329 167.195 212.208 L167.195 194.847 Z" fill="#000000" fill-rule="nonzero" fill-opacity="1" /><polyline clip-path="url(#clip512)" style="stroke:#009af9; stroke-linecap:round; stroke-linejoin:round; stroke-width:4; stroke-opacity:1; fill:none" points="224.098,1384.24 226.229,1371.31 228.359,1358.51 230.49,1345.84 232.621,1333.29 234.752,1320.87 236.883,1308.57 239.013,1296.39 241.144,1284.34 243.275,1272.4 245.406,1260.59 247.537,1248.89 249.667,1237.31 251.798,1225.84 253.929,1214.49 256.06,1203.25 258.19,1192.13 260.321,1181.11 262.452,1170.21 264.583,1159.41 266.714,1148.72 268.844,1138.13 270.975,1127.66 273.106,1117.28 275.237,1107.01 277.368,1096.84 279.498,1086.78 281.629,1076.81 283.76,1066.94 285.891,1057.17 288.022,1047.5 290.152,1037.93 292.283,1028.45 294.414,1019.06 296.545,1009.77 298.675,1000.57 300.806,991.461 302.937,982.444 305.068,973.517 307.199,964.678 309.329,955.928 311.46,947.265 313.591,938.688 315.722,930.196 317.853,921.789 319.983,913.466 322.114,905.226 324.245,897.067 326.376,888.99 328.507,880.994 330.637,873.077 332.768,865.239 334.899,857.478 337.03,849.796 339.16,842.189 341.291,834.659 343.422,827.203 345.553,819.822 347.684,812.514 349.814,805.279 351.945,798.117 354.076,791.025 356.207,784.004 358.338,777.053 360.468,770.172 362.599,763.358 364.73,756.613 366.861,749.935 368.992,743.324 371.122,736.778 373.253,730.297 375.384,723.881 377.515,717.529 379.645,711.241 381.776,705.014 383.907,698.85 386.038,692.747 388.169,686.705 390.299,680.724 392.43,674.801 394.561,668.938 396.692,663.133 398.823,657.386 400.953,651.696 403.084,646.063 405.215,640.486 407.346,634.964 409.477,629.498 411.607,624.086 413.738,618.727 415.869,613.422 418,608.17 420.13,602.971 422.261,597.823 424.392,592.726 426.523,587.68 428.654,582.685 430.784,577.739 432.915,572.842 435.046,567.995 437.177,563.195 439.308,558.443 441.438,553.739 443.569,549.082 445.7,544.471 447.831,539.906 449.961,535.386 452.092,530.912 454.223,526.482 456.354,522.096 458.485,517.754 460.615,513.455 462.746,509.199 464.877,504.985 467.008,500.813 469.139,496.683 471.269,492.594 473.4,488.545 475.531,484.537 477.662,480.569 479.793,476.64 481.923,472.751 484.054,468.9 486.185,465.087 488.316,461.313 490.446,457.576 492.577,453.876 494.708,450.213 496.839,446.586 498.97,442.996 501.1,439.441 503.231,435.922 505.362,432.438 507.493,428.988 509.624,425.573 511.754,422.192 513.885,418.845 516.016,415.531 518.147,412.25 520.278,409.001 522.408,405.786 524.539,402.602 526.67,399.45 528.801,396.329 530.931,393.239 533.062,390.18 535.193,387.152 537.324,384.154 539.455,381.186 541.585,378.247 543.716,375.338 545.847,372.457 547.978,369.606 550.109,366.782 552.239,363.987 554.37,361.22 556.501,358.48 558.632,355.767 560.763,353.082 562.893,350.423 565.024,347.791 567.155,345.185 569.286,342.604 571.416,340.05 573.547,337.521 575.678,335.017 577.809,332.538 579.94,330.084 582.07,327.654 584.201,325.248 586.332,322.866 588.463,320.508 590.594,318.173 592.724,315.862 594.855,313.574 596.986,311.308 599.117,309.065 601.247,306.844 603.378,304.645 605.509,302.469 607.64,300.314 609.771,298.18 611.901,296.068 614.032,293.976 616.163,291.906 618.294,289.856 620.425,287.827 622.555,285.818 624.686,283.829 626.817,281.86 628.948,279.91 631.079,277.98 633.209,276.069 635.34,274.177 637.471,272.304 639.602,270.45 641.732,268.614 643.863,266.797 645.994,264.997 648.125,263.216 650.256,261.452 652.386,259.706 654.517,257.978 656.648,256.266 658.779,254.572 660.91,252.894 663.04,251.233 665.171,249.589 667.302,247.961 669.433,246.35 671.564,244.754 673.694,243.174 675.825,241.61 677.956,240.062 680.087,238.528 682.217,237.011 684.348,235.508 686.479,234.02 688.61,232.547 690.741,231.089 692.871,229.645 695.002,228.216 697.133,226.8 699.264,225.399 701.395,224.012 703.525,222.638 705.656,221.278 707.787,219.932 709.918,218.599 712.049,217.279 714.179,215.973 716.31,214.679 718.441,213.399 720.572,212.131 722.702,210.875 724.833,209.633 726.964,208.402 729.095,207.184 731.226,205.978 733.356,204.784 735.487,203.602 737.618,202.432 739.749,201.273 741.88,200.126 744.01,198.991 746.141,197.867 748.272,196.754 750.403,195.652 752.534,194.561 754.664,193.481 756.795,192.412 758.926,191.353 761.057,190.305 763.187,189.268 765.318,188.24 767.449,187.223 769.58,186.217 771.711,185.22 773.841,184.233 775.972,183.256 778.103,182.289 780.234,181.331 782.365,180.383 784.495,179.445 786.626,178.515 788.757,177.595 790.888,176.684 793.018,175.783 795.149,174.89 797.28,174.006 799.411,173.131 801.542,172.264 803.672,171.407 805.803,170.557 807.934,169.717 810.065,168.884 812.196,168.06 814.326,167.244 816.457,166.436 818.588,165.636 820.719,164.844 822.85,164.06 824.98,163.284 827.111,162.515 829.242,161.754 831.373,161.001 833.503,160.255 835.634,159.517 837.765,158.786 839.896,158.062 842.027,157.345 844.157,156.635 846.288,155.933 848.419,155.237 850.55,154.549 852.681,153.867 854.811,153.192 856.942,152.524 859.073,151.863 861.204,151.208 863.335,150.559 865.465,149.917 867.596,149.282 869.727,148.653 871.858,148.03 873.988,147.413 876.119,146.803 878.25,146.198 880.381,145.6 882.512,145.008 884.642,144.421 886.773,143.84 888.904,143.266 891.035,142.697 893.166,142.133 895.296,141.575 897.427,141.023 899.558,140.476 901.689,139.935 903.82,139.399 905.95,138.869 908.081,138.344 910.212,137.824 912.343,137.309 914.473,136.799 916.604,136.295 918.735,135.795 920.866,135.301 922.997,134.811 925.127,134.326 927.258,133.846 929.389,133.371 931.52,132.901 933.651,132.435 935.781,131.974 937.912,131.517 940.043,131.065 942.174,130.618 944.304,130.175 946.435,129.736 948.566,129.302 950.697,128.872 952.828,128.446 954.958,128.025 957.089,127.607 959.22,127.194 961.351,126.785 963.482,126.38 965.612,125.979 967.743,125.582 969.874,125.189 972.005,124.8 974.136,124.415 976.266,124.033 978.397,123.655 980.528,123.281 982.659,122.911 984.789,122.545 986.92,122.182 989.051,121.822 991.182,121.467 993.313,121.115 995.443,120.766 997.574,120.421 999.705,120.079 1001.84,119.741 1003.97,119.406 1006.1,119.074 1008.23,118.746 1010.36,118.421 1012.49,118.099 1014.62,117.78 1016.75,117.465 1018.88,117.153 1021.01,116.844 1023.14,116.538 1025.27,116.235 1027.41,115.935 1029.54,115.638 1031.67,115.344 1033.8,115.053 1035.93,114.765 1038.06,114.48 1040.19,114.197 1042.32,113.918 1044.45,113.641 1046.58,113.367 1048.71,113.096 1050.84,112.827 1052.97,112.562 1055.11,112.298 1057.24,112.038 1059.37,111.78 1061.5,111.524 1063.63,111.272 1065.76,111.021 1067.89,110.773 1070.02,110.528 1072.15,110.285 1074.28,110.045 1076.41,109.807 1078.54,109.571 1080.67,109.337 1082.81,109.106 1084.94,108.878 1087.07,108.651 1089.2,108.427 1091.33,108.205 1093.46,107.985 1095.59,107.767 1097.72,107.552 1099.85,107.339 1101.98,107.127 1104.11,106.918 1106.24,106.711 1108.38,106.506 1110.51,106.303 1112.64,106.102 1114.77,105.903 1116.9,105.706 1119.03,105.511 1121.16,105.318 1123.29,105.126 1125.42,104.937 1127.55,104.75 1129.68,104.564 1131.81,104.38 1133.94,104.198 1136.08,104.018 1138.21,103.84 1140.34,103.663 1142.47,103.488 1144.6,103.315 1146.73,103.144 1148.86,102.974 1150.99,102.806 1153.12,102.64 1155.25,102.475 1157.38,102.312 1159.51,102.15 1161.64,101.991 1163.78,101.833 1165.91,101.676 1168.04,101.521 1170.17,101.367 1172.3,101.216 1174.43,101.065 1176.56,100.916 1178.69,100.769 1180.82,100.623 1182.95,100.478 1185.08,100.335 1187.21,100.194 1189.35,100.054 1191.48,99.9149 1193.61,99.7775 1195.74,99.6416 1197.87,99.5069 1200,99.3737 1202.13,99.2418 1204.26,99.1112 1206.39,98.9819 1208.52,98.8539 1210.65,98.7272 1212.78,98.6017 1214.91,98.4776 1217.05,98.3546 1219.18,98.2329 1221.31,98.1125 1223.44,97.9932 1225.57,97.8751 1227.7,97.7582 1229.83,97.6425 1231.96,97.5279 1234.09,97.4145 1236.22,97.3022 1238.35,97.191 1240.48,97.081 1242.61,96.972 1244.75,96.8642 1246.88,96.7574 1249.01,96.6516 1251.14,96.5469 1253.27,96.4433 1255.4,96.3407 1257.53,96.2391 1259.66,96.1385 1261.79,96.0389 1263.92,95.9403 1266.05,95.8427 1268.18,95.746 1270.32,95.6503 1272.45,95.5556 1274.58,95.4618 1276.71,95.3689 1278.84,95.2769 1280.97,95.1858 1283.1,95.0956 1285.23,95.0063 1287.36,94.9178 1289.49,94.8303 1291.62,94.7436 1293.75,94.6577 1295.88,94.5727 1298.02,94.4885 1300.15,94.4051 1302.28,94.3226 1304.41,94.2408 1306.54,94.1599 1308.67,94.0798 1310.8,94.0004 1312.93,93.9219 1315.06,93.8441 1317.19,93.7671 1319.32,93.6908 1321.45,93.6153 1323.58,93.5406 1325.72,93.4666 1327.85,93.3933 1329.98,93.3208 1332.11,93.249 1334.24,93.1779 1336.37,93.1075 1338.5,93.0378 1340.63,92.9688 1342.76,92.9005 1344.89,92.8329 1347.02,92.7659 1349.15,92.6997 1351.29,92.6341 1353.42,92.5691 1355.55,92.5048 1357.68,92.4412 1359.81,92.3782 1361.94,92.3158 1364.07,92.2541 1366.2,92.193 1368.33,92.1325 1370.46,92.0726 1372.59,92.0133 1374.72,91.9546 1376.85,91.8965 1378.99,91.839 1381.12,91.782 1383.25,91.7257 1385.38,91.6699 1387.51,91.6147 1389.64,91.56 1391.77,91.5059 1393.9,91.4523 1396.03,91.3993 1398.16,91.3468 1400.29,91.2948 1402.42,91.2434 1404.55,91.1925 1406.69,91.142 1408.82,91.0922 1410.95,91.0428 1413.08,90.9939 1415.21,90.9455 1417.34,90.8975 1419.47,90.8501 1421.6,90.8032 1423.73,90.7567 1425.86,90.7107 1427.99,90.6651 1430.12,90.62 1432.26,90.5754 1434.39,90.5312 1436.52,90.4874 1438.65,90.4441 1440.78,90.4012 1442.91,90.3587 1445.04,90.3167 1447.17,90.2751 1449.3,90.2339 1451.43,90.1931 1453.56,90.1527 1455.69,90.1127 1457.82,90.0731 1459.96,90.0339 1462.09,89.9951 1464.22,89.9567 1466.35,89.9186 1468.48,89.881 1470.61,89.8436 1472.74,89.8067 1474.87,89.7701 1477,89.7339 1479.13,89.698 1481.26,89.6625 1483.39,89.6273 1485.52,89.5925 1487.66,89.558 1489.79,89.5238 1491.92,89.4899 1494.05,89.4564 1496.18,89.4232 1498.31,89.3903 1500.44,89.3578 1502.57,89.3255 1504.7,89.2936 1506.83,89.262 1508.96,89.2307 1511.09,89.1997 1513.23,89.1689 1515.36,89.1385 1517.49,89.1084 1519.62,89.0786 1521.75,89.0491 1523.88,89.0198 1526.01,88.9909 1528.14,88.9622 1530.27,88.9339 1532.4,88.9058 1534.53,88.8779 1536.66,88.8504 1538.79,88.8231 1540.93,88.7961 1543.06,88.7694 1545.19,88.7429 1547.32,88.7168 1549.45,88.6908 1551.58,88.6651 1553.71,88.6397 1555.84,88.6146 1557.97,88.5897 1560.1,88.565 1562.23,88.5406 1564.36,88.5164 1566.49,88.4925 1568.63,88.4688 1570.76,88.4454 1572.89,88.4222 1575.02,88.3992 1577.15,88.3765 1579.28,88.354 1581.41,88.3317 1583.54,88.3097 1585.67,88.2879 1587.8,88.2663 1589.93,88.2449 1592.06,88.2237 1594.2,88.2028 1596.33,88.1821 1598.46,88.1616 1600.59,88.1413 1602.72,88.1212 1604.85,88.1013 1606.98,88.0816 1609.11,88.0621 1611.24,88.0428 1613.37,88.0237 1615.5,88.0048 1617.63,87.9861 1619.76,87.9676 1621.9,87.9493 1624.03,87.9312 1626.16,87.9132 1628.29,87.8955 1630.42,87.8779 1632.55,87.8605 1634.68,87.8433 1636.81,87.8262 1638.94,87.8094 1641.07,87.7927 1643.2,87.7761 1645.33,87.7598 1647.46,87.7436 1649.6,87.7276 1651.73,87.7117 1653.86,87.696 1655.99,87.6805 1658.12,87.6651 1660.25,87.6498 1662.38,87.6348 1664.51,87.6198 1666.64,87.6051 1668.77,87.5905 1670.9,87.576 1673.03,87.5616 1675.17,87.5475 1677.3,87.5334 1679.43,87.5195 1681.56,87.5057 1683.69,87.4921 1685.82,87.4786 1687.95,87.4652 1690.08,87.452 1692.21,87.4389 1694.34,87.4259 1696.47,87.4131 1698.6,87.4003 1700.73,87.3877 1702.87,87.3753 1705,87.3629 1707.13,87.3506 1709.26,87.3385 1711.39,87.3265 1713.52,87.3146 1715.65,87.3028 1717.78,87.2911 1719.91,87.2796 1722.04,87.2681 1724.17,87.2568 1726.3,87.2455 1728.43,87.2344 1730.57,87.2233 1732.7,87.2124 1734.83,87.2015 1736.96,87.1908 1739.09,87.1801 1741.22,87.1696 1743.35,87.1591 1745.48,87.1488 1747.61,87.1386 1749.74,87.1284 1751.87,87.1184 1754,87.1084 1756.14,87.0986 1758.27,87.0888 1760.4,87.0791 1762.53,87.0695 1764.66,87.0601 1766.79,87.0507 1768.92,87.0414 1771.05,87.0322 1773.18,87.023 1775.31,87.014 1777.44,87.0051 1779.57,86.9962 1781.7,86.9875 1783.84,86.9788 1785.97,86.9702 1788.1,86.9617 1790.23,86.9533 1792.36,86.9449 1794.49,86.9367 1796.62,86.9285 1798.75,86.9204 1800.88,86.9124 1803.01,86.9045 1805.14,86.8966 1807.27,86.8889 1809.4,86.8812 1811.54,86.8736 1813.67,86.866 1815.8,86.8586 1817.93,86.8512 1820.06,86.8439 1822.19,86.8367 1824.32,86.8295 1826.45,86.8224 1828.58,86.8154 1830.71,86.8085 1832.84,86.8016 1834.97,86.7948 1837.11,86.7881 1839.24,86.7815 1841.37,86.7749 1843.5,86.7684 1845.63,86.7619 1847.76,86.7556 1849.89,86.7493 1852.02,86.743 1854.15,86.7368 1856.28,86.7307 1858.41,86.7247 1860.54,86.7187 1862.67,86.7128 1864.81,86.7069 1866.94,86.7011 1869.07,86.6954 1871.2,86.6897 1873.33,86.6841 1875.46,86.6785 1877.59,86.6731 1879.72,86.6676 1881.85,86.6622 1883.98,86.6569 1886.11,86.6516 1888.24,86.6464 1890.37,86.6413 1892.51,86.6362 1894.64,86.6311 1896.77,86.6261 1898.9,86.6212 1901.03,86.6163 1903.16,86.6115 1905.29,86.6067 1907.42,86.602 1909.55,86.5973 1911.68,86.5926 1913.81,86.588 1915.94,86.5835 1918.07,86.579 1920.21,86.5746 1922.34,86.5702 1924.47,86.5658 1926.6,86.5615 1928.73,86.5572 1930.86,86.553 1932.99,86.5488 1935.12,86.5447 1937.25,86.5406 1939.38,86.5366 1941.51,86.5326 1943.64,86.5286 1945.78,86.5247 1947.91,86.5208 1950.04,86.5169 1952.17,86.5131 1954.3,86.5093 1956.43,86.5056 1958.56,86.5019 1960.69,86.4982 1962.82,86.4946 1964.95,86.491 1967.08,86.4874 1969.21,86.4839 1971.34,86.4804 1973.48,86.4769 1975.61,86.4735 1977.74,86.4701 1979.87,86.4667 1982,86.4634 1984.13,86.4601 1986.26,86.4568 1988.39,86.4535 1990.52,86.4503 1992.65,86.4471 1994.78,86.4439 1996.91,86.4408 1999.04,86.4377 2001.18,86.4346 2003.31,86.4315 2005.44,86.4285 2007.57,86.4254 2009.7,86.4224 2011.83,86.4195 2013.96,86.4165 2016.09,86.4136 2018.22,86.4107 2020.35,86.4079 2022.48,86.405 2024.61,86.4022 2026.75,86.3994 2028.88,86.3966 2031.01,86.3939 2033.14,86.3912 2035.27,86.3885 2037.4,86.3858 2039.53,86.3832 2041.66,86.3806 2043.79,86.378 2045.92,86.3754 2048.05,86.3729 2050.18,86.3703 2052.31,86.3678 2054.45,86.3654 2056.58,86.3629 2058.71,86.3605 2060.84,86.3581 2062.97,86.3557 2065.1,86.3533 2067.23,86.351 2069.36,86.3487 2071.49,86.3464 2073.62,86.3441 2075.75,86.3419 2077.88,86.3397 2080.01,86.3375 2082.15,86.3353 2084.28,86.3331 2086.41,86.331 2088.54,86.3289 2090.67,86.3268 2092.8,86.3247 2094.93,86.3227 2097.06,86.3207 2099.19,86.3187 2101.32,86.3167 2103.45,86.3147 2105.58,86.3128 2107.72,86.3108 2109.85,86.3089 2111.98,86.3071 2114.11,86.3052 2116.24,86.3034 2118.37,86.3015 2120.5,86.2997 2122.63,86.2979 2124.76,86.2962 2126.89,86.2944 2129.02,86.2927 2131.15,86.291 2133.28,86.2893 2135.42,86.2876 2137.55,86.286 2139.68,86.2843 2141.81,86.2827 2143.94,86.2811 2146.07,86.2796 2148.2,86.278 2150.33,86.2764 2152.46,86.2749 2154.59,86.2734 2156.72,86.2719 2158.85,86.2704 2160.98,86.269 2163.12,86.2675 2165.25,86.2661 2167.38,86.2647 2169.51,86.2633 2171.64,86.2619 2173.77,86.2606 2175.9,86.2592 2178.03,86.2579 2180.16,86.2566 2182.29,86.2553 2184.42,86.254 2186.55,86.2527 2188.69,86.2515 2190.82,86.2502 2192.95,86.249 2195.08,86.2478 2197.21,86.2466 2199.34,86.2454 2201.47,86.2442 2203.6,86.2431 2205.73,86.2419 2207.86,86.2408 2209.99,86.2397 2212.12,86.2386 2214.25,86.2375 2216.39,86.2364 2218.52,86.2353 2220.65,86.2343 2222.78,86.2332 2224.91,86.2322 2227.04,86.2312 2229.17,86.2302 2231.3,86.2292 2233.43,86.2282 2235.56,86.2272 2237.69,86.2263 2239.82,86.2253 2241.95,86.2244 2244.09,86.2234 2246.22,86.2225 2248.35,86.2216 2250.48,86.2207 2252.61,86.2198 2254.74,86.2189 2256.87,86.2181 2259,86.2172 2261.13,86.2164 2263.26,86.2155 2265.39,86.2147 2267.52,86.2138 2269.66,86.213 2271.79,86.2122 2273.92,86.2114 2276.05,86.2106 2278.18,86.2098 2280.31,86.209 2282.44,86.2083 2284.57,86.2075 2286.7,86.2067 2288.83,86.206 2290.96,86.2052 2293.09,86.2045 2295.22,86.2038 2297.36,86.203 2299.49,86.2023 2301.62,86.2016 2303.75,86.2009 2305.88,86.2002 2308.01,86.1995 2310.14,86.1988 2312.27,86.1981 2314.4,86.1974 2316.53,86.1967 2318.66,86.196 2320.79,86.1954 2322.92,86.1947 2325.06,86.194 2327.19,86.1934 2329.32,86.1927 2331.45,86.192 2333.58,86.1914 2335.71,86.1907 2337.84,86.1901 2339.97,86.1894 2342.1,86.1888 2344.23,86.1881 2346.36,86.1875 2348.49,86.1869 2350.63,86.1863 2352.76,86.1857 "/>
<polyline clip-path="url(#clip512)" style="stroke:#e26f46; stroke-linecap:round; stroke-linejoin:round; stroke-width:4; stroke-opacity:1; fill:none" points="224.098,558.799 226.229,554.664 228.359,550.566 230.49,546.506 232.621,542.484 234.752,538.497 236.883,534.547 239.013,530.634 241.144,526.755 243.275,522.913 245.406,519.105 247.537,515.332 249.667,511.593 251.798,507.888 253.929,504.217 256.06,500.579 258.19,496.975 260.321,493.403 262.452,489.864 264.583,486.356 266.714,482.881 268.844,479.437 270.975,476.025 273.106,472.643 275.237,469.292 277.368,465.972 279.498,462.681 281.629,459.421 283.76,456.19 285.891,452.988 288.022,449.815 290.152,446.671 292.283,443.555 294.414,440.468 296.545,437.408 298.675,434.376 300.806,431.372 302.937,428.395 305.068,425.444 307.199,422.521 309.329,419.623 311.46,416.752 313.591,413.907 315.722,411.087 317.853,408.293 319.983,405.524 322.114,402.779 324.245,400.06 326.376,397.365 328.507,394.694 330.637,392.048 332.768,389.425 334.899,386.826 337.03,384.25 339.16,381.697 341.291,379.167 343.422,376.66 345.553,374.175 347.684,371.713 349.814,369.273 351.945,366.855 354.076,364.458 356.207,362.083 358.338,359.729 360.468,357.396 362.599,355.084 364.73,352.793 366.861,350.522 368.992,348.272 371.122,346.042 373.253,343.831 375.384,341.641 377.515,339.47 379.645,337.318 381.776,335.186 383.907,333.072 386.038,330.978 388.169,328.902 390.299,326.844 392.43,324.805 394.561,322.784 396.692,320.781 398.823,318.796 400.953,316.829 403.084,314.879 405.215,312.946 407.346,311.031 409.477,309.132 411.607,307.251 413.738,305.386 415.869,303.538 418,301.706 420.13,299.89 422.261,298.091 424.392,296.307 426.523,294.539 428.654,292.787 430.784,291.051 432.915,289.329 435.046,287.623 437.177,285.932 439.308,284.256 441.438,282.595 443.569,280.949 445.7,279.317 447.831,277.7 449.961,276.096 452.092,274.507 454.223,272.932 456.354,271.371 458.485,269.824 460.615,268.29 462.746,266.769 464.877,265.263 467.008,263.769 469.139,262.288 471.269,260.821 473.4,259.366 475.531,257.924 477.662,256.495 479.793,255.079 481.923,253.674 484.054,252.283 486.185,250.903 488.316,249.535 490.446,248.18 492.577,246.836 494.708,245.504 496.839,244.183 498.97,242.875 501.1,241.577 503.231,240.291 505.362,239.016 507.493,237.753 509.624,236.5 511.754,235.258 513.885,234.028 516.016,232.808 518.147,231.598 520.278,230.399 522.408,229.211 524.539,228.033 526.67,226.865 528.801,225.707 530.931,224.56 533.062,223.422 535.193,222.294 537.324,221.176 539.455,220.068 541.585,218.97 543.716,217.881 545.847,216.801 547.978,215.731 550.109,214.67 552.239,213.618 554.37,212.575 556.501,211.542 558.632,210.517 560.763,209.501 562.893,208.494 565.024,207.496 567.155,206.506 569.286,205.525 571.416,204.552 573.547,203.588 575.678,202.632 577.809,201.684 579.94,200.744 582.07,199.813 584.201,198.889 586.332,197.973 588.463,197.066 590.594,196.166 592.724,195.273 594.855,194.389 596.986,193.512 599.117,192.643 601.247,191.781 603.378,190.926 605.509,190.079 607.64,189.239 609.771,188.406 611.901,187.58 614.032,186.762 616.163,185.95 618.294,185.145 620.425,184.348 622.555,183.557 624.686,182.773 626.817,181.995 628.948,181.224 631.079,180.46 633.209,179.702 635.34,178.951 637.471,178.206 639.602,177.468 641.732,176.736 643.863,176.01 645.994,175.29 648.125,174.576 650.256,173.869 652.386,173.167 654.517,172.471 656.648,171.782 658.779,171.098 660.91,170.42 663.04,169.748 665.171,169.081 667.302,168.42 669.433,167.765 671.564,167.115 673.694,166.47 675.825,165.831 677.956,165.198 680.087,164.57 682.217,163.947 684.348,163.329 686.479,162.717 688.61,162.11 690.741,161.507 692.871,160.91 695.002,160.318 697.133,159.731 699.264,159.149 701.395,158.572 703.525,157.999 705.656,157.432 707.787,156.869 709.918,156.311 712.049,155.757 714.179,155.208 716.31,154.664 718.441,154.124 720.572,153.589 722.702,153.058 724.833,152.532 726.964,152.01 729.095,151.493 731.226,150.98 733.356,150.471 735.487,149.966 737.618,149.466 739.749,148.97 741.88,148.477 744.01,147.989 746.141,147.506 748.272,147.026 750.403,146.55 752.534,146.078 754.664,145.61 756.795,145.146 758.926,144.686 761.057,144.229 763.187,143.777 765.318,143.328 767.449,142.883 769.58,142.441 771.711,142.003 773.841,141.569 775.972,141.139 778.103,140.712 780.234,140.288 782.365,139.868 784.495,139.452 786.626,139.039 788.757,138.629 790.888,138.223 793.018,137.82 795.149,137.42 797.28,137.024 799.411,136.631 801.542,136.241 803.672,135.854 805.803,135.471 807.934,135.091 810.065,134.713 812.196,134.339 814.326,133.968 816.457,133.6 818.588,133.235 820.719,132.873 822.85,132.514 824.98,132.158 827.111,131.805 829.242,131.455 831.373,131.107 833.503,130.762 835.634,130.421 837.765,130.082 839.896,129.745 842.027,129.412 844.157,129.081 846.288,128.753 848.419,128.427 850.55,128.104 852.681,127.784 854.811,127.467 856.942,127.152 859.073,126.839 861.204,126.529 863.335,126.222 865.465,125.917 867.596,125.615 869.727,125.315 871.858,125.017 873.988,124.722 876.119,124.429 878.25,124.139 880.381,123.851 882.512,123.565 884.642,123.282 886.773,123.001 888.904,122.722 891.035,122.445 893.166,122.171 895.296,121.899 897.427,121.629 899.558,121.361 901.689,121.096 903.82,120.832 905.95,120.571 908.081,120.311 910.212,120.054 912.343,119.799 914.473,119.546 916.604,119.295 918.735,119.046 920.866,118.799 922.997,118.554 925.127,118.311 927.258,118.07 929.389,117.831 931.52,117.593 933.651,117.358 935.781,117.124 937.912,116.893 940.043,116.663 942.174,116.435 944.304,116.209 946.435,115.984 948.566,115.762 950.697,115.541 952.828,115.322 954.958,115.104 957.089,114.889 959.22,114.675 961.351,114.463 963.482,114.252 965.612,114.043 967.743,113.836 969.874,113.63 972.005,113.426 974.136,113.224 976.266,113.023 978.397,112.824 980.528,112.626 982.659,112.43 984.789,112.236 986.92,112.043 989.051,111.851 991.182,111.661 993.313,111.473 995.443,111.286 997.574,111.1 999.705,110.916 1001.84,110.734 1003.97,110.552 1006.1,110.373 1008.23,110.194 1010.36,110.017 1012.49,109.842 1014.62,109.668 1016.75,109.495 1018.88,109.323 1021.01,109.153 1023.14,108.984 1025.27,108.817 1027.41,108.651 1029.54,108.486 1031.67,108.322 1033.8,108.16 1035.93,107.999 1038.06,107.839 1040.19,107.681 1042.32,107.524 1044.45,107.368 1046.58,107.213 1048.71,107.059 1050.84,106.907 1052.97,106.755 1055.11,106.605 1057.24,106.456 1059.37,106.309 1061.5,106.162 1063.63,106.017 1065.76,105.872 1067.89,105.729 1070.02,105.587 1072.15,105.446 1074.28,105.306 1076.41,105.167 1078.54,105.029 1080.67,104.893 1082.81,104.757 1084.94,104.622 1087.07,104.489 1089.2,104.356 1091.33,104.225 1093.46,104.094 1095.59,103.964 1097.72,103.836 1099.85,103.708 1101.98,103.582 1104.11,103.456 1106.24,103.331 1108.38,103.208 1110.51,103.085 1112.64,102.963 1114.77,102.842 1116.9,102.722 1119.03,102.603 1121.16,102.485 1123.29,102.368 1125.42,102.251 1127.55,102.136 1129.68,102.021 1131.81,101.907 1133.94,101.794 1136.08,101.682 1138.21,101.571 1140.34,101.461 1142.47,101.351 1144.6,101.243 1146.73,101.135 1148.86,101.028 1150.99,100.922 1153.12,100.816 1155.25,100.712 1157.38,100.608 1159.51,100.505 1161.64,100.402 1163.78,100.301 1165.91,100.2 1168.04,100.1 1170.17,100.001 1172.3,99.9026 1174.43,99.8049 1176.56,99.708 1178.69,99.6117 1180.82,99.5162 1182.95,99.4215 1185.08,99.3274 1187.21,99.2341 1189.35,99.1414 1191.48,99.0495 1193.61,98.9582 1195.74,98.8676 1197.87,98.7778 1200,98.6886 1202.13,98.6 1204.26,98.5121 1206.39,98.4249 1208.52,98.3384 1210.65,98.2525 1212.78,98.1672 1214.91,98.0826 1217.05,97.9986 1219.18,97.9152 1221.31,97.8325 1223.44,97.7504 1225.57,97.6689 1227.7,97.588 1229.83,97.5077 1231.96,97.428 1234.09,97.3489 1236.22,97.2704 1238.35,97.1925 1240.48,97.1151 1242.61,97.0383 1244.75,96.9621 1246.88,96.8865 1249.01,96.8114 1251.14,96.7369 1253.27,96.6629 1255.4,96.5895 1257.53,96.5166 1259.66,96.4443 1261.79,96.3724 1263.92,96.3012 1266.05,96.2304 1268.18,96.1602 1270.32,96.0904 1272.45,96.0212 1274.58,95.9525 1276.71,95.8843 1278.84,95.8166 1280.97,95.7494 1283.1,95.6827 1285.23,95.6164 1287.36,95.5507 1289.49,95.4854 1291.62,95.4206 1293.75,95.3563 1295.88,95.2924 1298.02,95.229 1300.15,95.1661 1302.28,95.1036 1304.41,95.0415 1306.54,94.98 1308.67,94.9188 1310.8,94.8581 1312.93,94.7979 1315.06,94.7381 1317.19,94.6787 1319.32,94.6198 1321.45,94.5613 1323.58,94.5032 1325.72,94.4455 1327.85,94.3883 1329.98,94.3314 1332.11,94.275 1334.24,94.219 1336.37,94.1634 1338.5,94.1082 1340.63,94.0534 1342.76,93.9991 1344.89,93.9451 1347.02,93.8915 1349.15,93.8382 1351.29,93.7854 1353.42,93.733 1355.55,93.6809 1357.68,93.6292 1359.81,93.5779 1361.94,93.527 1364.07,93.4764 1366.2,93.4262 1368.33,93.3764 1370.46,93.3269 1372.59,93.2778 1374.72,93.229 1376.85,93.1806 1378.99,93.1325 1381.12,93.0848 1383.25,93.0375 1385.38,92.9905 1387.51,92.9438 1389.64,92.8974 1391.77,92.8514 1393.9,92.8057 1396.03,92.7604 1398.16,92.7154 1400.29,92.6707 1402.42,92.6263 1404.55,92.5822 1406.69,92.5385 1408.82,92.4951 1410.95,92.452 1413.08,92.4092 1415.21,92.3667 1417.34,92.3245 1419.47,92.2826 1421.6,92.241 1423.73,92.1997 1425.86,92.1587 1427.99,92.118 1430.12,92.0776 1432.26,92.0375 1434.39,91.9976 1436.52,91.9581 1438.65,91.9188 1440.78,91.8798 1442.91,91.8411 1445.04,91.8026 1447.17,91.7645 1449.3,91.7266 1451.43,91.6889 1453.56,91.6516 1455.69,91.6145 1457.82,91.5776 1459.96,91.541 1462.09,91.5047 1464.22,91.4686 1466.35,91.4328 1468.48,91.3973 1470.61,91.3619 1472.74,91.3269 1474.87,91.2921 1477,91.2575 1479.13,91.2231 1481.26,91.189 1483.39,91.1552 1485.52,91.1215 1487.66,91.0881 1489.79,91.055 1491.92,91.022 1494.05,90.9893 1496.18,90.9569 1498.31,90.9246 1500.44,90.8926 1502.57,90.8608 1504.7,90.8292 1506.83,90.7978 1508.96,90.7666 1511.09,90.7357 1513.23,90.705 1515.36,90.6745 1517.49,90.6442 1519.62,90.6141 1521.75,90.5842 1523.88,90.5545 1526.01,90.525 1528.14,90.4958 1530.27,90.4667 1532.4,90.4379 1534.53,90.4092 1536.66,90.3807 1538.79,90.3525 1540.93,90.3244 1543.06,90.2965 1545.19,90.2689 1547.32,90.2414 1549.45,90.2141 1551.58,90.187 1553.71,90.1601 1555.84,90.1334 1557.97,90.1068 1560.1,90.0805 1562.23,90.0543 1564.36,90.0283 1566.49,90.0025 1568.63,89.9769 1570.76,89.9514 1572.89,89.9262 1575.02,89.9011 1577.15,89.8761 1579.28,89.8514 1581.41,89.8268 1583.54,89.8024 1585.67,89.7782 1587.8,89.7541 1589.93,89.7302 1592.06,89.7065 1594.2,89.6829 1596.33,89.6595 1598.46,89.6363 1600.59,89.6132 1602.72,89.5903 1604.85,89.5675 1606.98,89.5449 1609.11,89.5225 1611.24,89.5002 1613.37,89.4781 1615.5,89.4561 1617.63,89.4343 1619.76,89.4126 1621.9,89.3911 1624.03,89.3697 1626.16,89.3485 1628.29,89.3274 1630.42,89.3064 1632.55,89.2857 1634.68,89.265 1636.81,89.2445 1638.94,89.2241 1641.07,89.2039 1643.2,89.1838 1645.33,89.1639 1647.46,89.1441 1649.6,89.1244 1651.73,89.1049 1653.86,89.0854 1655.99,89.0662 1658.12,89.047 1660.25,89.028 1662.38,89.0091 1664.51,88.9904 1666.64,88.9718 1668.77,88.9533 1670.9,88.9349 1673.03,88.9166 1675.17,88.8985 1677.3,88.8805 1679.43,88.8626 1681.56,88.8449 1683.69,88.8272 1685.82,88.8097 1687.95,88.7923 1690.08,88.775 1692.21,88.7579 1694.34,88.7408 1696.47,88.7239 1698.6,88.7071 1700.73,88.6903 1702.87,88.6737 1705,88.6573 1707.13,88.6409 1709.26,88.6246 1711.39,88.6084 1713.52,88.5924 1715.65,88.5764 1717.78,88.5606 1719.91,88.5448 1722.04,88.5292 1724.17,88.5137 1726.3,88.4982 1728.43,88.4829 1730.57,88.4677 1732.7,88.4525 1734.83,88.4375 1736.96,88.4226 1739.09,88.4077 1741.22,88.393 1743.35,88.3783 1745.48,88.3638 1747.61,88.3493 1749.74,88.335 1751.87,88.3207 1754,88.3066 1756.14,88.2925 1758.27,88.2785 1760.4,88.2646 1762.53,88.2508 1764.66,88.2371 1766.79,88.2235 1768.92,88.21 1771.05,88.1965 1773.18,88.1832 1775.31,88.1699 1777.44,88.1568 1779.57,88.1437 1781.7,88.1307 1783.84,88.1178 1785.97,88.105 1788.1,88.0922 1790.23,88.0796 1792.36,88.067 1794.49,88.0545 1796.62,88.0421 1798.75,88.0298 1800.88,88.0176 1803.01,88.0054 1805.14,87.9934 1807.27,87.9814 1809.4,87.9695 1811.54,87.9576 1813.67,87.9459 1815.8,87.9342 1817.93,87.9226 1820.06,87.9111 1822.19,87.8997 1824.32,87.8883 1826.45,87.877 1828.58,87.8658 1830.71,87.8547 1832.84,87.8436 1834.97,87.8326 1837.11,87.8217 1839.24,87.8109 1841.37,87.8001 1843.5,87.7894 1845.63,87.7788 1847.76,87.7682 1849.89,87.7578 1852.02,87.7473 1854.15,87.737 1856.28,87.7267 1858.41,87.7165 1860.54,87.7064 1862.67,87.6963 1864.81,87.6863 1866.94,87.6764 1869.07,87.6665 1871.2,87.6567 1873.33,87.647 1875.46,87.6373 1877.59,87.6277 1879.72,87.6182 1881.85,87.6087 1883.98,87.5993 1886.11,87.5899 1888.24,87.5807 1890.37,87.5714 1892.51,87.5623 1894.64,87.5532 1896.77,87.5441 1898.9,87.5351 1901.03,87.5262 1903.16,87.5173 1905.29,87.5085 1907.42,87.4998 1909.55,87.4911 1911.68,87.4825 1913.81,87.4739 1915.94,87.4654 1918.07,87.4569 1920.21,87.4485 1922.34,87.4402 1924.47,87.4319 1926.6,87.4236 1928.73,87.4154 1930.86,87.4073 1932.99,87.3992 1935.12,87.3912 1937.25,87.3832 1939.38,87.3753 1941.51,87.3674 1943.64,87.3596 1945.78,87.3518 1947.91,87.3441 1950.04,87.3365 1952.17,87.3288 1954.3,87.3213 1956.43,87.3138 1958.56,87.3063 1960.69,87.2989 1962.82,87.2915 1964.95,87.2842 1967.08,87.2769 1969.21,87.2696 1971.34,87.2624 1973.48,87.2553 1975.61,87.2482 1977.74,87.2412 1979.87,87.2341 1982,87.2272 1984.13,87.2203 1986.26,87.2134 1988.39,87.2065 1990.52,87.1998 1992.65,87.193 1994.78,87.1863 1996.91,87.1796 1999.04,87.173 2001.18,87.1664 2003.31,87.1599 2005.44,87.1534 2007.57,87.1469 2009.7,87.1405 2011.83,87.1341 2013.96,87.1278 2016.09,87.1215 2018.22,87.1152 2020.35,87.109 2022.48,87.1028 2024.61,87.0966 2026.75,87.0905 2028.88,87.0845 2031.01,87.0784 2033.14,87.0724 2035.27,87.0665 2037.4,87.0606 2039.53,87.0547 2041.66,87.0488 2043.79,87.043 2045.92,87.0373 2048.05,87.0315 2050.18,87.0258 2052.31,87.0202 2054.45,87.0145 2056.58,87.009 2058.71,87.0034 2060.84,86.9979 2062.97,86.9924 2065.1,86.9869 2067.23,86.9815 2069.36,86.9762 2071.49,86.9708 2073.62,86.9655 2075.75,86.9602 2077.88,86.955 2080.01,86.9498 2082.15,86.9446 2084.28,86.9395 2086.41,86.9343 2088.54,86.9293 2090.67,86.9242 2092.8,86.9192 2094.93,86.9142 2097.06,86.9093 2099.19,86.9044 2101.32,86.8995 2103.45,86.8946 2105.58,86.8898 2107.72,86.885 2109.85,86.8803 2111.98,86.8755 2114.11,86.8709 2116.24,86.8662 2118.37,86.8616 2120.5,86.857 2122.63,86.8524 2124.76,86.8478 2126.89,86.8433 2129.02,86.8388 2131.15,86.8344 2133.28,86.8299 2135.42,86.8255 2137.55,86.8212 2139.68,86.8168 2141.81,86.8125 2143.94,86.8082 2146.07,86.804 2148.2,86.7998 2150.33,86.7956 2152.46,86.7914 2154.59,86.7872 2156.72,86.7831 2158.85,86.779 2160.98,86.775 2163.12,86.7709 2165.25,86.7669 2167.38,86.7629 2169.51,86.759 2171.64,86.755 2173.77,86.7511 2175.9,86.7472 2178.03,86.7434 2180.16,86.7395 2182.29,86.7357 2184.42,86.732 2186.55,86.7282 2188.69,86.7245 2190.82,86.7208 2192.95,86.7171 2195.08,86.7134 2197.21,86.7098 2199.34,86.7062 2201.47,86.7026 2203.6,86.699 2205.73,86.6955 2207.86,86.692 2209.99,86.6885 2212.12,86.685 2214.25,86.6815 2216.39,86.6781 2218.52,86.6747 2220.65,86.6713 2222.78,86.668 2224.91,86.6646 2227.04,86.6613 2229.17,86.658 2231.3,86.6547 2233.43,86.6515 2235.56,86.6482 2237.69,86.645 2239.82,86.6418 2241.95,86.6386 2244.09,86.6355 2246.22,86.6324 2248.35,86.6293 2250.48,86.6262 2252.61,86.6231 2254.74,86.62 2256.87,86.617 2259,86.614 2261.13,86.611 2263.26,86.608 2265.39,86.6051 2267.52,86.6021 2269.66,86.5992 2271.79,86.5963 2273.92,86.5934 2276.05,86.5905 2278.18,86.5877 2280.31,86.5849 2282.44,86.582 2284.57,86.5792 2286.7,86.5765 2288.83,86.5737 2290.96,86.571 2293.09,86.5682 2295.22,86.5655 2297.36,86.5628 2299.49,86.5601 2301.62,86.5575 2303.75,86.5548 2305.88,86.5522 2308.01,86.5496 2310.14,86.547 2312.27,86.5444 2314.4,86.5418 2316.53,86.5393 2318.66,86.5367 2320.79,86.5342 2322.92,86.5317 2325.06,86.5292 2327.19,86.5267 2329.32,86.5243 2331.45,86.5218 2333.58,86.5194 2335.71,86.5169 2337.84,86.5145 2339.97,86.5121 2342.1,86.5097 2344.23,86.5074 2346.36,86.505 2348.49,86.5027 2350.63,86.5004 2352.76,86.4981 "/>
<path clip-path="url(#clip510)" d="M1809.54 1377.32 L2281.8 1377.32 L2281.8 1221.8 L1809.54 1221.8  Z" fill="#ffffff" fill-rule="evenodd" fill-opacity="1"/>
<polyline clip-path="url(#clip510)" style="stroke:#000000; stroke-linecap:round; stroke-linejoin:round; stroke-width:4; stroke-opacity:1; fill:none" points="1809.54,1377.32 2281.8,1377.32 2281.8,1221.8 1809.54,1221.8 1809.54,1377.32 "/>
<polyline clip-path="url(#clip510)" style="stroke:#009af9; stroke-linecap:round; stroke-linejoin:round; stroke-width:4; stroke-opacity:1; fill:none" points="1833.19,1273.64 1975.1,1273.64 "/>
<path clip-path="url(#clip510)" d="M1998.75 1264.99 L2003.27 1264.99 L2011.37 1286.75 L2019.47 1264.99 L2023.98 1264.99 L2014.26 1290.92 L2008.47 1290.92 L1998.75 1264.99 Z" fill="#000000" fill-rule="nonzero" fill-opacity="1" /><path clip-path="url(#clip510)" d="M2031.28 1286.98 L2038.91 1286.98 L2038.91 1260.61 L2030.6 1262.28 L2030.6 1258.02 L2038.87 1256.36 L2043.54 1256.36 L2043.54 1286.98 L2051.18 1286.98 L2051.18 1290.92 L2031.28 1290.92 L2031.28 1286.98 Z" fill="#000000" fill-rule="nonzero" fill-opacity="1" /><path clip-path="url(#clip510)" d="M2069.28 1274.27 L2069.28 1281.49 L2077.41 1281.49 L2077.41 1283.69 L2069.28 1283.69 L2069.28 1290.92 L2066.85 1290.92 L2066.85 1283.69 L2058.73 1283.69 L2058.73 1281.49 L2066.85 1281.49 L2066.85 1274.27 L2069.28 1274.27 Z" fill="#000000" fill-rule="nonzero" fill-opacity="1" /><path clip-path="url(#clip510)" d="M2101.58 1265.75 L2101.58 1269.78 Q2099.77 1268.86 2097.83 1268.39 Q2095.88 1267.93 2093.8 1267.93 Q2090.63 1267.93 2089.03 1268.9 Q2087.46 1269.87 2087.46 1271.82 Q2087.46 1273.3 2088.59 1274.16 Q2089.72 1274.99 2093.15 1275.75 L2094.61 1276.08 Q2099.15 1277.05 2101.04 1278.83 Q2102.96 1280.59 2102.96 1283.76 Q2102.96 1287.37 2100.09 1289.48 Q2097.25 1291.59 2092.25 1291.59 Q2090.16 1291.59 2087.9 1291.17 Q2085.65 1290.78 2083.15 1289.97 L2083.15 1285.57 Q2085.51 1286.79 2087.8 1287.42 Q2090.09 1288.02 2092.34 1288.02 Q2095.35 1288.02 2096.97 1287 Q2098.59 1285.96 2098.59 1284.09 Q2098.59 1282.35 2097.41 1281.42 Q2096.25 1280.5 2092.29 1279.64 L2090.81 1279.3 Q2086.85 1278.46 2085.09 1276.75 Q2083.34 1275.01 2083.34 1272 Q2083.34 1268.35 2085.93 1266.36 Q2088.52 1264.36 2093.29 1264.36 Q2095.65 1264.36 2097.73 1264.71 Q2099.82 1265.06 2101.58 1265.75 Z" fill="#000000" fill-rule="nonzero" fill-opacity="1" /><path clip-path="url(#clip510)" d="M2113.96 1257.63 L2113.96 1264.99 L2122.73 1264.99 L2122.73 1268.3 L2113.96 1268.3 L2113.96 1282.37 Q2113.96 1285.54 2114.82 1286.45 Q2115.7 1287.35 2118.36 1287.35 L2122.73 1287.35 L2122.73 1290.92 L2118.36 1290.92 Q2113.43 1290.92 2111.55 1289.09 Q2109.68 1287.23 2109.68 1282.37 L2109.68 1268.3 L2106.55 1268.3 L2106.55 1264.99 L2109.68 1264.99 L2109.68 1257.63 L2113.96 1257.63 Z" fill="#000000" fill-rule="nonzero" fill-opacity="1" /><path clip-path="url(#clip510)" d="M2138.38 1267.98 Q2134.96 1267.98 2132.96 1270.66 Q2130.97 1273.32 2130.97 1277.98 Q2130.97 1282.63 2132.94 1285.31 Q2134.93 1287.98 2138.38 1287.98 Q2141.78 1287.98 2143.77 1285.29 Q2145.77 1282.61 2145.77 1277.98 Q2145.77 1273.37 2143.77 1270.68 Q2141.78 1267.98 2138.38 1267.98 M2138.38 1264.36 Q2143.94 1264.36 2147.11 1267.98 Q2150.28 1271.59 2150.28 1277.98 Q2150.28 1284.34 2147.11 1287.98 Q2143.94 1291.59 2138.38 1291.59 Q2132.8 1291.59 2129.63 1287.98 Q2126.48 1284.34 2126.48 1277.98 Q2126.48 1271.59 2129.63 1267.98 Q2132.8 1264.36 2138.38 1264.36 Z" fill="#000000" fill-rule="nonzero" fill-opacity="1" /><path clip-path="url(#clip510)" d="M2172.36 1268.97 Q2171.64 1268.55 2170.79 1268.37 Q2169.95 1268.16 2168.94 1268.16 Q2165.33 1268.16 2163.38 1270.52 Q2161.46 1272.86 2161.46 1277.26 L2161.46 1290.92 L2157.18 1290.92 L2157.18 1264.99 L2161.46 1264.99 L2161.46 1269.02 Q2162.8 1266.66 2164.95 1265.52 Q2167.11 1264.36 2170.19 1264.36 Q2170.63 1264.36 2171.16 1264.43 Q2171.69 1264.48 2172.34 1264.6 L2172.36 1268.97 Z" fill="#000000" fill-rule="nonzero" fill-opacity="1" /><path clip-path="url(#clip510)" d="M2188.61 1277.88 Q2183.45 1277.88 2181.46 1279.06 Q2179.47 1280.24 2179.47 1283.09 Q2179.47 1285.36 2180.95 1286.7 Q2182.45 1288.02 2185.02 1288.02 Q2188.57 1288.02 2190.7 1285.52 Q2192.85 1283 2192.85 1278.83 L2192.85 1277.88 L2188.61 1277.88 M2197.11 1276.12 L2197.11 1290.92 L2192.85 1290.92 L2192.85 1286.98 Q2191.39 1289.34 2189.21 1290.48 Q2187.04 1291.59 2183.89 1291.59 Q2179.91 1291.59 2177.55 1289.36 Q2175.21 1287.12 2175.21 1283.37 Q2175.21 1278.99 2178.13 1276.77 Q2181.07 1274.55 2186.88 1274.55 L2192.85 1274.55 L2192.85 1274.13 Q2192.85 1271.19 2190.9 1269.6 Q2188.98 1267.98 2185.49 1267.98 Q2183.27 1267.98 2181.16 1268.51 Q2179.05 1269.04 2177.11 1270.11 L2177.11 1266.17 Q2179.45 1265.27 2181.64 1264.83 Q2183.84 1264.36 2185.93 1264.36 Q2191.55 1264.36 2194.33 1267.28 Q2197.11 1270.2 2197.11 1276.12 Z" fill="#000000" fill-rule="nonzero" fill-opacity="1" /><path clip-path="url(#clip510)" d="M2222.94 1277.65 Q2222.94 1273.02 2221.02 1270.48 Q2219.12 1267.93 2215.67 1267.93 Q2212.25 1267.93 2210.33 1270.48 Q2208.43 1273.02 2208.43 1277.65 Q2208.43 1282.26 2210.33 1284.8 Q2212.25 1287.35 2215.67 1287.35 Q2219.12 1287.35 2221.02 1284.8 Q2222.94 1282.26 2222.94 1277.65 M2227.2 1287.7 Q2227.2 1294.32 2224.26 1297.54 Q2221.32 1300.78 2215.26 1300.78 Q2213.01 1300.78 2211.02 1300.43 Q2209.03 1300.11 2207.15 1299.41 L2207.15 1295.27 Q2209.03 1296.29 2210.86 1296.77 Q2212.69 1297.26 2214.58 1297.26 Q2218.77 1297.26 2220.86 1295.06 Q2222.94 1292.88 2222.94 1288.46 L2222.94 1286.36 Q2221.62 1288.65 2219.56 1289.78 Q2217.5 1290.92 2214.63 1290.92 Q2209.86 1290.92 2206.95 1287.28 Q2204.03 1283.65 2204.03 1277.65 Q2204.03 1271.63 2206.95 1268 Q2209.86 1264.36 2214.63 1264.36 Q2217.5 1264.36 2219.56 1265.5 Q2221.62 1266.63 2222.94 1268.92 L2222.94 1264.99 L2227.2 1264.99 L2227.2 1287.7 Z" fill="#000000" fill-rule="nonzero" fill-opacity="1" /><path clip-path="url(#clip510)" d="M2258.15 1276.89 L2258.15 1278.97 L2238.57 1278.97 Q2238.84 1283.37 2241.2 1285.68 Q2243.59 1287.98 2247.82 1287.98 Q2250.28 1287.98 2252.57 1287.37 Q2254.89 1286.77 2257.15 1285.57 L2257.15 1289.6 Q2254.86 1290.57 2252.45 1291.08 Q2250.05 1291.59 2247.57 1291.59 Q2241.37 1291.59 2237.73 1287.98 Q2234.12 1284.36 2234.12 1278.21 Q2234.12 1271.84 2237.55 1268.11 Q2241 1264.36 2246.83 1264.36 Q2252.06 1264.36 2255.09 1267.74 Q2258.15 1271.1 2258.15 1276.89 M2253.89 1275.64 Q2253.84 1272.14 2251.92 1270.06 Q2250.02 1267.98 2246.88 1267.98 Q2243.31 1267.98 2241.16 1269.99 Q2239.03 1272 2238.7 1275.66 L2253.89 1275.64 Z" fill="#000000" fill-rule="nonzero" fill-opacity="1" /><polyline clip-path="url(#clip510)" style="stroke:#e26f46; stroke-linecap:round; stroke-linejoin:round; stroke-width:4; stroke-opacity:1; fill:none" points="1833.19,1325.48 1975.1,1325.48 "/>
<path clip-path="url(#clip510)" d="M1998.75 1316.83 L2003.27 1316.83 L2011.37 1338.59 L2019.47 1316.83 L2023.98 1316.83 L2014.26 1342.76 L2008.47 1342.76 L1998.75 1316.83 Z" fill="#000000" fill-rule="nonzero" fill-opacity="1" /><path clip-path="url(#clip510)" d="M2030.51 1308.2 L2048.87 1308.2 L2048.87 1312.13 L2034.79 1312.13 L2034.79 1320.6 Q2035.81 1320.26 2036.83 1320.09 Q2037.85 1319.91 2038.87 1319.91 Q2044.65 1319.91 2048.03 1323.08 Q2051.41 1326.25 2051.41 1331.67 Q2051.41 1337.25 2047.94 1340.35 Q2044.47 1343.43 2038.15 1343.43 Q2035.97 1343.43 2033.71 1343.06 Q2031.46 1342.69 2029.05 1341.95 L2029.05 1337.25 Q2031.14 1338.38 2033.36 1338.94 Q2035.58 1339.49 2038.06 1339.49 Q2042.06 1339.49 2044.4 1337.38 Q2046.74 1335.28 2046.74 1331.67 Q2046.74 1328.06 2044.4 1325.95 Q2042.06 1323.84 2038.06 1323.84 Q2036.18 1323.84 2034.31 1324.26 Q2032.46 1324.68 2030.51 1325.56 L2030.51 1308.2 Z" fill="#000000" fill-rule="nonzero" fill-opacity="1" /><path clip-path="url(#clip510)" d="M2069.28 1326.11 L2069.28 1333.33 L2077.41 1333.33 L2077.41 1335.53 L2069.28 1335.53 L2069.28 1342.76 L2066.85 1342.76 L2066.85 1335.53 L2058.73 1335.53 L2058.73 1333.33 L2066.85 1333.33 L2066.85 1326.11 L2069.28 1326.11 Z" fill="#000000" fill-rule="nonzero" fill-opacity="1" /><path clip-path="url(#clip510)" d="M2101.58 1317.59 L2101.58 1321.62 Q2099.77 1320.7 2097.83 1320.23 Q2095.88 1319.77 2093.8 1319.77 Q2090.63 1319.77 2089.03 1320.74 Q2087.46 1321.71 2087.46 1323.66 Q2087.46 1325.14 2088.59 1326 Q2089.72 1326.83 2093.15 1327.59 L2094.61 1327.92 Q2099.15 1328.89 2101.04 1330.67 Q2102.96 1332.43 2102.96 1335.6 Q2102.96 1339.21 2100.09 1341.32 Q2097.25 1343.43 2092.25 1343.43 Q2090.16 1343.43 2087.9 1343.01 Q2085.65 1342.62 2083.15 1341.81 L2083.15 1337.41 Q2085.51 1338.63 2087.8 1339.26 Q2090.09 1339.86 2092.34 1339.86 Q2095.35 1339.86 2096.97 1338.84 Q2098.59 1337.8 2098.59 1335.93 Q2098.59 1334.19 2097.41 1333.26 Q2096.25 1332.34 2092.29 1331.48 L2090.81 1331.14 Q2086.85 1330.3 2085.09 1328.59 Q2083.34 1326.85 2083.34 1323.84 Q2083.34 1320.19 2085.93 1318.2 Q2088.52 1316.2 2093.29 1316.2 Q2095.65 1316.2 2097.73 1316.55 Q2099.82 1316.9 2101.58 1317.59 Z" fill="#000000" fill-rule="nonzero" fill-opacity="1" /><path clip-path="url(#clip510)" d="M2113.96 1309.47 L2113.96 1316.83 L2122.73 1316.83 L2122.73 1320.14 L2113.96 1320.14 L2113.96 1334.21 Q2113.96 1337.38 2114.82 1338.29 Q2115.7 1339.19 2118.36 1339.19 L2122.73 1339.19 L2122.73 1342.76 L2118.36 1342.76 Q2113.43 1342.76 2111.55 1340.93 Q2109.68 1339.07 2109.68 1334.21 L2109.68 1320.14 L2106.55 1320.14 L2106.55 1316.83 L2109.68 1316.83 L2109.68 1309.47 L2113.96 1309.47 Z" fill="#000000" fill-rule="nonzero" fill-opacity="1" /><path clip-path="url(#clip510)" d="M2138.38 1319.82 Q2134.96 1319.82 2132.96 1322.5 Q2130.97 1325.16 2130.97 1329.82 Q2130.97 1334.47 2132.94 1337.15 Q2134.93 1339.82 2138.38 1339.82 Q2141.78 1339.82 2143.77 1337.13 Q2145.77 1334.45 2145.77 1329.82 Q2145.77 1325.21 2143.77 1322.52 Q2141.78 1319.82 2138.38 1319.82 M2138.38 1316.2 Q2143.94 1316.2 2147.11 1319.82 Q2150.28 1323.43 2150.28 1329.82 Q2150.28 1336.18 2147.11 1339.82 Q2143.94 1343.43 2138.38 1343.43 Q2132.8 1343.43 2129.63 1339.82 Q2126.48 1336.18 2126.48 1329.82 Q2126.48 1323.43 2129.63 1319.82 Q2132.8 1316.2 2138.38 1316.2 Z" fill="#000000" fill-rule="nonzero" fill-opacity="1" /><path clip-path="url(#clip510)" d="M2172.36 1320.81 Q2171.64 1320.39 2170.79 1320.21 Q2169.95 1320 2168.94 1320 Q2165.33 1320 2163.38 1322.36 Q2161.46 1324.7 2161.46 1329.1 L2161.46 1342.76 L2157.18 1342.76 L2157.18 1316.83 L2161.46 1316.83 L2161.46 1320.86 Q2162.8 1318.5 2164.95 1317.36 Q2167.11 1316.2 2170.19 1316.2 Q2170.63 1316.2 2171.16 1316.27 Q2171.69 1316.32 2172.34 1316.44 L2172.36 1320.81 Z" fill="#000000" fill-rule="nonzero" fill-opacity="1" /><path clip-path="url(#clip510)" d="M2188.61 1329.72 Q2183.45 1329.72 2181.46 1330.9 Q2179.47 1332.08 2179.47 1334.93 Q2179.47 1337.2 2180.95 1338.54 Q2182.45 1339.86 2185.02 1339.86 Q2188.57 1339.86 2190.7 1337.36 Q2192.85 1334.84 2192.85 1330.67 L2192.85 1329.72 L2188.61 1329.72 M2197.11 1327.96 L2197.11 1342.76 L2192.85 1342.76 L2192.85 1338.82 Q2191.39 1341.18 2189.21 1342.32 Q2187.04 1343.43 2183.89 1343.43 Q2179.91 1343.43 2177.55 1341.2 Q2175.21 1338.96 2175.21 1335.21 Q2175.21 1330.83 2178.13 1328.61 Q2181.07 1326.39 2186.88 1326.39 L2192.85 1326.39 L2192.85 1325.97 Q2192.85 1323.03 2190.9 1321.44 Q2188.98 1319.82 2185.49 1319.82 Q2183.27 1319.82 2181.16 1320.35 Q2179.05 1320.88 2177.11 1321.95 L2177.11 1318.01 Q2179.45 1317.11 2181.64 1316.67 Q2183.84 1316.2 2185.93 1316.2 Q2191.55 1316.2 2194.33 1319.12 Q2197.11 1322.04 2197.11 1327.96 Z" fill="#000000" fill-rule="nonzero" fill-opacity="1" /><path clip-path="url(#clip510)" d="M2222.94 1329.49 Q2222.94 1324.86 2221.02 1322.32 Q2219.12 1319.77 2215.67 1319.77 Q2212.25 1319.77 2210.33 1322.32 Q2208.43 1324.86 2208.43 1329.49 Q2208.43 1334.1 2210.33 1336.64 Q2212.25 1339.19 2215.67 1339.19 Q2219.12 1339.19 2221.02 1336.64 Q2222.94 1334.1 2222.94 1329.49 M2227.2 1339.54 Q2227.2 1346.16 2224.26 1349.38 Q2221.32 1352.62 2215.26 1352.62 Q2213.01 1352.62 2211.02 1352.27 Q2209.03 1351.95 2207.15 1351.25 L2207.15 1347.11 Q2209.03 1348.13 2210.86 1348.61 Q2212.69 1349.1 2214.58 1349.1 Q2218.77 1349.1 2220.86 1346.9 Q2222.94 1344.72 2222.94 1340.3 L2222.94 1338.2 Q2221.62 1340.49 2219.56 1341.62 Q2217.5 1342.76 2214.63 1342.76 Q2209.86 1342.76 2206.95 1339.12 Q2204.03 1335.49 2204.03 1329.49 Q2204.03 1323.47 2206.95 1319.84 Q2209.86 1316.2 2214.63 1316.2 Q2217.5 1316.2 2219.56 1317.34 Q2221.62 1318.47 2222.94 1320.76 L2222.94 1316.83 L2227.2 1316.83 L2227.2 1339.54 Z" fill="#000000" fill-rule="nonzero" fill-opacity="1" /><path clip-path="url(#clip510)" d="M2258.15 1328.73 L2258.15 1330.81 L2238.57 1330.81 Q2238.84 1335.21 2241.2 1337.52 Q2243.59 1339.82 2247.82 1339.82 Q2250.28 1339.82 2252.57 1339.21 Q2254.89 1338.61 2257.15 1337.41 L2257.15 1341.44 Q2254.86 1342.41 2252.45 1342.92 Q2250.05 1343.43 2247.57 1343.43 Q2241.37 1343.43 2237.73 1339.82 Q2234.12 1336.2 2234.12 1330.05 Q2234.12 1323.68 2237.55 1319.95 Q2241 1316.2 2246.83 1316.2 Q2252.06 1316.2 2255.09 1319.58 Q2258.15 1322.94 2258.15 1328.73 M2253.89 1327.48 Q2253.84 1323.98 2251.92 1321.9 Q2250.02 1319.82 2246.88 1319.82 Q2243.31 1319.82 2241.16 1321.83 Q2239.03 1323.84 2238.7 1327.5 L2253.89 1327.48 Z" fill="#000000" fill-rule="nonzero" fill-opacity="1" /></svg>
