<?xml version="1.0" encoding="utf-8"?>
<svg xmlns="http://www.w3.org/2000/svg" xmlns:xlink="http://www.w3.org/1999/xlink" width="600" height="400" viewBox="0 0 2400 1600">
<defs>
  <clipPath id="clip670">
    <rect x="0" y="0" width="2400" height="1600"/>
  </clipPath>
</defs>
<path clip-path="url(#clip670)" d="M0 1600 L2400 1600 L2400 0 L0 0  Z" fill="#ffffff" fill-rule="evenodd" fill-opacity="1"/>
<defs>
  <clipPath id="clip671">
    <rect x="480" y="0" width="1681" height="1600"/>
  </clipPath>
</defs>
<path clip-path="url(#clip670)" d="M194.422 1423.18 L2352.76 1423.18 L2352.76 47.2441 L194.422 47.2441  Z" fill="#ffffff" fill-rule="evenodd" fill-opacity="1"/>
<defs>
  <clipPath id="clip672">
    <rect x="194" y="47" width="2159" height="1377"/>
  </clipPath>
</defs>
<polyline clip-path="url(#clip672)" style="stroke:#000000; stroke-linecap:round; stroke-linejoin:round; stroke-width:2; stroke-opacity:0.1; fill:none" points="194.422,1423.18 194.422,47.2441 "/>
<polyline clip-path="url(#clip672)" style="stroke:#000000; stroke-linecap:round; stroke-linejoin:round; stroke-width:2; stroke-opacity:0.1; fill:none" points="734.006,1423.18 734.006,47.2441 "/>
<polyline clip-path="url(#clip672)" style="stroke:#000000; stroke-linecap:round; stroke-linejoin:round; stroke-width:2; stroke-opacity:0.1; fill:none" points="1273.59,1423.18 1273.59,47.2441 "/>
<polyline clip-path="url(#clip672)" style="stroke:#000000; stroke-linecap:round; stroke-linejoin:round; stroke-width:2; stroke-opacity:0.1; fill:none" points="1813.17,1423.18 1813.17,47.2441 "/>
<polyline clip-path="url(#clip672)" style="stroke:#000000; stroke-linecap:round; stroke-linejoin:round; stroke-width:2; stroke-opacity:0.1; fill:none" points="2352.76,1423.18 2352.76,47.2441 "/>
<polyline clip-path="url(#clip672)" style="stroke:#000000; stroke-linecap:round; stroke-linejoin:round; stroke-width:2; stroke-opacity:0.1; fill:none" points="194.422,1199.2 2352.76,1199.2 "/>
<polyline clip-path="url(#clip672)" style="stroke:#000000; stroke-linecap:round; stroke-linejoin:round; stroke-width:2; stroke-opacity:0.1; fill:none" points="194.422,956.527 2352.76,956.527 "/>
<polyline clip-path="url(#clip672)" style="stroke:#000000; stroke-linecap:round; stroke-linejoin:round; stroke-width:2; stroke-opacity:0.1; fill:none" points="194.422,713.85 2352.76,713.85 "/>
<polyline clip-path="url(#clip672)" style="stroke:#000000; stroke-linecap:round; stroke-linejoin:round; stroke-width:2; stroke-opacity:0.1; fill:none" points="194.422,471.173 2352.76,471.173 "/>
<polyline clip-path="url(#clip672)" style="stroke:#000000; stroke-linecap:round; stroke-linejoin:round; stroke-width:2; stroke-opacity:0.1; fill:none" points="194.422,228.497 2352.76,228.497 "/>
<polyline clip-path="url(#clip670)" style="stroke:#000000; stroke-linecap:round; stroke-linejoin:round; stroke-width:4; stroke-opacity:1; fill:none" points="194.422,1423.18 2352.76,1423.18 "/>
<polyline clip-path="url(#clip670)" style="stroke:#000000; stroke-linecap:round; stroke-linejoin:round; stroke-width:4; stroke-opacity:1; fill:none" points="194.422,1423.18 194.422,1404.28 "/>
<polyline clip-path="url(#clip670)" style="stroke:#000000; stroke-linecap:round; stroke-linejoin:round; stroke-width:4; stroke-opacity:1; fill:none" points="734.006,1423.18 734.006,1404.28 "/>
<polyline clip-path="url(#clip670)" style="stroke:#000000; stroke-linecap:round; stroke-linejoin:round; stroke-width:4; stroke-opacity:1; fill:none" points="1273.59,1423.18 1273.59,1404.28 "/>
<polyline clip-path="url(#clip670)" style="stroke:#000000; stroke-linecap:round; stroke-linejoin:round; stroke-width:4; stroke-opacity:1; fill:none" points="1813.17,1423.18 1813.17,1404.28 "/>
<polyline clip-path="url(#clip670)" style="stroke:#000000; stroke-linecap:round; stroke-linejoin:round; stroke-width:4; stroke-opacity:1; fill:none" points="2352.76,1423.18 2352.76,1404.28 "/>
<path clip-path="url(#clip670)" d="M171.806 1454.1 Q168.195 1454.1 166.367 1457.66 Q164.561 1461.2 164.561 1468.33 Q164.561 1475.44 166.367 1479.01 Q168.195 1482.55 171.806 1482.55 Q175.441 1482.55 177.246 1479.01 Q179.075 1475.44 179.075 1468.33 Q179.075 1461.2 177.246 1457.66 Q175.441 1454.1 171.806 1454.1 M171.806 1450.39 Q177.617 1450.39 180.672 1455 Q183.751 1459.58 183.751 1468.33 Q183.751 1477.06 180.672 1481.67 Q177.617 1486.25 171.806 1486.25 Q165.996 1486.25 162.918 1481.67 Q159.862 1477.06 159.862 1468.33 Q159.862 1459.58 162.918 1455 Q165.996 1450.39 171.806 1450.39 Z" fill="#000000" fill-rule="nonzero" fill-opacity="1" /><path clip-path="url(#clip670)" d="M191.968 1479.7 L196.853 1479.7 L196.853 1485.58 L191.968 1485.58 L191.968 1479.7 Z" fill="#000000" fill-rule="nonzero" fill-opacity="1" /><path clip-path="url(#clip670)" d="M217.038 1454.1 Q213.427 1454.1 211.598 1457.66 Q209.792 1461.2 209.792 1468.33 Q209.792 1475.44 211.598 1479.01 Q213.427 1482.55 217.038 1482.55 Q220.672 1482.55 222.478 1479.01 Q224.306 1475.44 224.306 1468.33 Q224.306 1461.2 222.478 1457.66 Q220.672 1454.1 217.038 1454.1 M217.038 1450.39 Q222.848 1450.39 225.903 1455 Q228.982 1459.58 228.982 1468.33 Q228.982 1477.06 225.903 1481.67 Q222.848 1486.25 217.038 1486.25 Q211.228 1486.25 208.149 1481.67 Q205.093 1477.06 205.093 1468.33 Q205.093 1459.58 208.149 1455 Q211.228 1450.39 217.038 1450.39 Z" fill="#000000" fill-rule="nonzero" fill-opacity="1" /><path clip-path="url(#clip670)" d="M711.888 1454.1 Q708.277 1454.1 706.448 1457.66 Q704.642 1461.2 704.642 1468.33 Q704.642 1475.44 706.448 1479.01 Q708.277 1482.55 711.888 1482.55 Q715.522 1482.55 717.327 1479.01 Q719.156 1475.44 719.156 1468.33 Q719.156 1461.2 717.327 1457.66 Q715.522 1454.1 711.888 1454.1 M711.888 1450.39 Q717.698 1450.39 720.753 1455 Q723.832 1459.58 723.832 1468.33 Q723.832 1477.06 720.753 1481.67 Q717.698 1486.25 711.888 1486.25 Q706.077 1486.25 702.999 1481.67 Q699.943 1477.06 699.943 1468.33 Q699.943 1459.58 702.999 1455 Q706.077 1450.39 711.888 1450.39 Z" fill="#000000" fill-rule="nonzero" fill-opacity="1" /><path clip-path="url(#clip670)" d="M732.05 1479.7 L736.934 1479.7 L736.934 1485.58 L732.05 1485.58 L732.05 1479.7 Z" fill="#000000" fill-rule="nonzero" fill-opacity="1" /><path clip-path="url(#clip670)" d="M747.165 1451.02 L765.522 1451.02 L765.522 1454.96 L751.448 1454.96 L751.448 1463.43 Q752.466 1463.08 753.485 1462.92 Q754.503 1462.73 755.522 1462.73 Q761.309 1462.73 764.688 1465.9 Q768.068 1469.08 768.068 1474.49 Q768.068 1480.07 764.596 1483.17 Q761.123 1486.25 754.804 1486.25 Q752.628 1486.25 750.36 1485.88 Q748.114 1485.51 745.707 1484.77 L745.707 1480.07 Q747.79 1481.2 750.012 1481.76 Q752.235 1482.32 754.711 1482.32 Q758.716 1482.32 761.054 1480.21 Q763.392 1478.1 763.392 1474.49 Q763.392 1470.88 761.054 1468.77 Q758.716 1466.67 754.711 1466.67 Q752.836 1466.67 750.961 1467.08 Q749.11 1467.5 747.165 1468.38 L747.165 1451.02 Z" fill="#000000" fill-rule="nonzero" fill-opacity="1" /><path clip-path="url(#clip670)" d="M1240.74 1481.64 L1248.38 1481.64 L1248.38 1455.28 L1240.07 1456.95 L1240.07 1452.69 L1248.33 1451.02 L1253.01 1451.02 L1253.01 1481.64 L1260.65 1481.64 L1260.65 1485.58 L1240.74 1485.58 L1240.74 1481.64 Z" fill="#000000" fill-rule="nonzero" fill-opacity="1" /><path clip-path="url(#clip670)" d="M1270.09 1479.7 L1274.98 1479.7 L1274.98 1485.58 L1270.09 1485.58 L1270.09 1479.7 Z" fill="#000000" fill-rule="nonzero" fill-opacity="1" /><path clip-path="url(#clip670)" d="M1295.16 1454.1 Q1291.55 1454.1 1289.72 1457.66 Q1287.92 1461.2 1287.92 1468.33 Q1287.92 1475.44 1289.72 1479.01 Q1291.55 1482.55 1295.16 1482.55 Q1298.8 1482.55 1300.6 1479.01 Q1302.43 1475.44 1302.43 1468.33 Q1302.43 1461.2 1300.6 1457.66 Q1298.8 1454.1 1295.16 1454.1 M1295.16 1450.39 Q1300.97 1450.39 1304.03 1455 Q1307.11 1459.58 1307.11 1468.33 Q1307.11 1477.06 1304.03 1481.67 Q1300.97 1486.25 1295.16 1486.25 Q1289.35 1486.25 1286.27 1481.67 Q1283.22 1477.06 1283.22 1468.33 Q1283.22 1459.58 1286.27 1455 Q1289.35 1450.39 1295.16 1450.39 Z" fill="#000000" fill-rule="nonzero" fill-opacity="1" /><path clip-path="url(#clip670)" d="M1780.82 1481.64 L1788.46 1481.64 L1788.46 1455.28 L1780.15 1456.95 L1780.15 1452.69 L1788.42 1451.02 L1793.09 1451.02 L1793.09 1481.64 L1800.73 1481.64 L1800.73 1485.58 L1780.82 1485.58 L1780.82 1481.64 Z" fill="#000000" fill-rule="nonzero" fill-opacity="1" /><path clip-path="url(#clip670)" d="M1810.17 1479.7 L1815.06 1479.7 L1815.06 1485.58 L1810.17 1485.58 L1810.17 1479.7 Z" fill="#000000" fill-rule="nonzero" fill-opacity="1" /><path clip-path="url(#clip670)" d="M1825.29 1451.02 L1843.65 1451.02 L1843.65 1454.96 L1829.57 1454.96 L1829.57 1463.43 Q1830.59 1463.08 1831.61 1462.92 Q1832.63 1462.73 1833.65 1462.73 Q1839.43 1462.73 1842.81 1465.9 Q1846.19 1469.08 1846.19 1474.49 Q1846.19 1480.07 1842.72 1483.17 Q1839.25 1486.25 1832.93 1486.25 Q1830.75 1486.25 1828.48 1485.88 Q1826.24 1485.51 1823.83 1484.77 L1823.83 1480.07 Q1825.92 1481.2 1828.14 1481.76 Q1830.36 1482.32 1832.84 1482.32 Q1836.84 1482.32 1839.18 1480.21 Q1841.52 1478.1 1841.52 1474.49 Q1841.52 1470.88 1839.18 1468.77 Q1836.84 1466.67 1832.84 1466.67 Q1830.96 1466.67 1829.09 1467.08 Q1827.23 1467.5 1825.29 1468.38 L1825.29 1451.02 Z" fill="#000000" fill-rule="nonzero" fill-opacity="1" /><path clip-path="url(#clip670)" d="M2323.99 1481.64 L2340.31 1481.64 L2340.31 1485.58 L2318.37 1485.58 L2318.37 1481.64 Q2321.03 1478.89 2325.61 1474.26 Q2330.22 1469.61 2331.4 1468.27 Q2333.65 1465.74 2334.53 1464.01 Q2335.43 1462.25 2335.43 1460.56 Q2335.43 1457.8 2333.49 1456.07 Q2331.56 1454.33 2328.46 1454.33 Q2326.26 1454.33 2323.81 1455.09 Q2321.38 1455.86 2318.6 1457.41 L2318.6 1452.69 Q2321.43 1451.55 2323.88 1450.97 Q2326.33 1450.39 2328.37 1450.39 Q2333.74 1450.39 2336.93 1453.08 Q2340.13 1455.77 2340.13 1460.26 Q2340.13 1462.39 2339.32 1464.31 Q2338.53 1466.2 2336.42 1468.8 Q2335.85 1469.47 2332.74 1472.69 Q2329.64 1475.88 2323.99 1481.64 Z" fill="#000000" fill-rule="nonzero" fill-opacity="1" /><path clip-path="url(#clip670)" d="M2350.13 1479.7 L2355.01 1479.7 L2355.01 1485.58 L2350.13 1485.58 L2350.13 1479.7 Z" fill="#000000" fill-rule="nonzero" fill-opacity="1" /><path clip-path="url(#clip670)" d="M2375.2 1454.1 Q2371.59 1454.1 2369.76 1457.66 Q2367.95 1461.2 2367.95 1468.33 Q2367.95 1475.44 2369.76 1479.01 Q2371.59 1482.55 2375.2 1482.55 Q2378.83 1482.55 2380.64 1479.01 Q2382.47 1475.44 2382.47 1468.33 Q2382.47 1461.2 2380.64 1457.66 Q2378.83 1454.1 2375.2 1454.1 M2375.2 1450.39 Q2381.01 1450.39 2384.06 1455 Q2387.14 1459.58 2387.14 1468.33 Q2387.14 1477.06 2384.06 1481.67 Q2381.01 1486.25 2375.2 1486.25 Q2369.39 1486.25 2366.31 1481.67 Q2363.25 1477.06 2363.25 1468.33 Q2363.25 1459.58 2366.31 1455 Q2369.39 1450.39 2375.2 1450.39 Z" fill="#000000" fill-rule="nonzero" fill-opacity="1" /><path clip-path="url(#clip670)" d="M1272.65 1522.27 L1272.65 1532.4 L1284.71 1532.4 L1284.71 1536.95 L1272.65 1536.95 L1272.65 1556.3 Q1272.65 1560.66 1273.83 1561.9 Q1275.04 1563.14 1278.7 1563.14 L1284.71 1563.14 L1284.71 1568.04 L1278.7 1568.04 Q1271.92 1568.04 1269.34 1565.53 Q1266.76 1562.98 1266.76 1556.3 L1266.76 1536.95 L1262.46 1536.95 L1262.46 1532.4 L1266.76 1532.4 L1266.76 1522.27 L1272.65 1522.27 Z" fill="#000000" fill-rule="nonzero" fill-opacity="1" /><polyline clip-path="url(#clip670)" style="stroke:#000000; stroke-linecap:round; stroke-linejoin:round; stroke-width:4; stroke-opacity:1; fill:none" points="194.422,1423.18 194.422,47.2441 "/>
<polyline clip-path="url(#clip670)" style="stroke:#000000; stroke-linecap:round; stroke-linejoin:round; stroke-width:4; stroke-opacity:1; fill:none" points="194.422,1199.2 213.32,1199.2 "/>
<polyline clip-path="url(#clip670)" style="stroke:#000000; stroke-linecap:round; stroke-linejoin:round; stroke-width:4; stroke-opacity:1; fill:none" points="194.422,956.527 213.32,956.527 "/>
<polyline clip-path="url(#clip670)" style="stroke:#000000; stroke-linecap:round; stroke-linejoin:round; stroke-width:4; stroke-opacity:1; fill:none" points="194.422,713.85 213.32,713.85 "/>
<polyline clip-path="url(#clip670)" style="stroke:#000000; stroke-linecap:round; stroke-linejoin:round; stroke-width:4; stroke-opacity:1; fill:none" points="194.422,471.173 213.32,471.173 "/>
<polyline clip-path="url(#clip670)" style="stroke:#000000; stroke-linecap:round; stroke-linejoin:round; stroke-width:4; stroke-opacity:1; fill:none" points="194.422,228.497 213.32,228.497 "/>
<path clip-path="url(#clip670)" d="M50.9921 1199.66 L80.6679 1199.66 L80.6679 1203.59 L50.9921 1203.59 L50.9921 1199.66 Z" fill="#000000" fill-rule="nonzero" fill-opacity="1" /><path clip-path="url(#clip670)" d="M94.7882 1212.55 L111.108 1212.55 L111.108 1216.48 L89.1632 1216.48 L89.1632 1212.55 Q91.8252 1209.79 96.4085 1205.16 Q101.015 1200.51 102.196 1199.17 Q104.441 1196.65 105.321 1194.91 Q106.223 1193.15 106.223 1191.46 Q106.223 1188.71 104.279 1186.97 Q102.358 1185.23 99.2558 1185.23 Q97.0567 1185.23 94.603 1186 Q92.1725 1186.76 89.3947 1188.31 L89.3947 1183.59 Q92.2188 1182.46 94.6724 1181.88 Q97.1261 1181.3 99.1632 1181.3 Q104.534 1181.3 107.728 1183.98 Q110.922 1186.67 110.922 1191.16 Q110.922 1193.29 110.112 1195.21 Q109.325 1197.11 107.219 1199.7 Q106.64 1200.37 103.538 1203.59 Q100.436 1206.79 94.7882 1212.55 Z" fill="#000000" fill-rule="nonzero" fill-opacity="1" /><path clip-path="url(#clip670)" d="M120.922 1210.6 L125.807 1210.6 L125.807 1216.48 L120.922 1216.48 L120.922 1210.6 Z" fill="#000000" fill-rule="nonzero" fill-opacity="1" /><path clip-path="url(#clip670)" d="M148.839 1186 L137.033 1204.45 L148.839 1204.45 L148.839 1186 M147.612 1181.92 L153.492 1181.92 L153.492 1204.45 L158.422 1204.45 L158.422 1208.34 L153.492 1208.34 L153.492 1216.48 L148.839 1216.48 L148.839 1208.34 L133.237 1208.34 L133.237 1203.82 L147.612 1181.92 Z" fill="#000000" fill-rule="nonzero" fill-opacity="1" /><path clip-path="url(#clip670)" d="M53.0754 956.979 L82.7512 956.979 L82.7512 960.914 L53.0754 960.914 L53.0754 956.979 Z" fill="#000000" fill-rule="nonzero" fill-opacity="1" /><path clip-path="url(#clip670)" d="M96.8715 969.872 L113.191 969.872 L113.191 973.807 L91.2465 973.807 L91.2465 969.872 Q93.9086 967.117 98.4919 962.488 Q103.098 957.835 104.279 956.492 Q106.524 953.969 107.404 952.233 Q108.307 950.474 108.307 948.784 Q108.307 946.03 106.362 944.293 Q104.441 942.557 101.339 942.557 Q99.14 942.557 96.6863 943.321 Q94.2558 944.085 91.478 945.636 L91.478 940.914 Q94.3021 939.78 96.7558 939.201 Q99.2095 938.622 101.246 938.622 Q106.617 938.622 109.811 941.307 Q113.006 943.993 113.006 948.483 Q113.006 950.613 112.196 952.534 Q111.408 954.432 109.302 957.025 Q108.723 957.696 105.621 960.914 Q102.52 964.108 96.8715 969.872 Z" fill="#000000" fill-rule="nonzero" fill-opacity="1" /><path clip-path="url(#clip670)" d="M123.006 967.928 L127.89 967.928 L127.89 973.807 L123.006 973.807 L123.006 967.928 Z" fill="#000000" fill-rule="nonzero" fill-opacity="1" /><path clip-path="url(#clip670)" d="M142.103 969.872 L158.422 969.872 L158.422 973.807 L136.478 973.807 L136.478 969.872 Q139.14 967.117 143.723 962.488 Q148.33 957.835 149.51 956.492 Q151.755 953.969 152.635 952.233 Q153.538 950.474 153.538 948.784 Q153.538 946.03 151.593 944.293 Q149.672 942.557 146.57 942.557 Q144.371 942.557 141.918 943.321 Q139.487 944.085 136.709 945.636 L136.709 940.914 Q139.533 939.78 141.987 939.201 Q144.441 938.622 146.478 938.622 Q151.848 938.622 155.042 941.307 Q158.237 943.993 158.237 948.483 Q158.237 950.613 157.427 952.534 Q156.64 954.432 154.533 957.025 Q153.955 957.696 150.853 960.914 Q147.751 964.108 142.103 969.872 Z" fill="#000000" fill-rule="nonzero" fill-opacity="1" /><path clip-path="url(#clip670)" d="M51.4782 714.302 L81.154 714.302 L81.154 718.237 L51.4782 718.237 L51.4782 714.302 Z" fill="#000000" fill-rule="nonzero" fill-opacity="1" /><path clip-path="url(#clip670)" d="M95.2743 727.195 L111.594 727.195 L111.594 731.13 L89.6493 731.13 L89.6493 727.195 Q92.3113 724.441 96.8947 719.811 Q101.501 715.158 102.682 713.816 Q104.927 711.292 105.807 709.556 Q106.709 707.797 106.709 706.107 Q106.709 703.353 104.765 701.617 Q102.844 699.881 99.7419 699.881 Q97.5428 699.881 95.0891 700.644 Q92.6586 701.408 89.8808 702.959 L89.8808 698.237 Q92.7049 697.103 95.1586 696.524 Q97.6122 695.945 99.6493 695.945 Q105.02 695.945 108.214 698.631 Q111.408 701.316 111.408 705.806 Q111.408 707.936 110.598 709.857 Q109.811 711.755 107.705 714.348 Q107.126 715.019 104.024 718.237 Q100.922 721.431 95.2743 727.195 Z" fill="#000000" fill-rule="nonzero" fill-opacity="1" /><path clip-path="url(#clip670)" d="M121.408 725.251 L126.293 725.251 L126.293 731.13 L121.408 731.13 L121.408 725.251 Z" fill="#000000" fill-rule="nonzero" fill-opacity="1" /><path clip-path="url(#clip670)" d="M146.478 699.649 Q142.867 699.649 141.038 703.214 Q139.232 706.755 139.232 713.885 Q139.232 720.992 141.038 724.556 Q142.867 728.098 146.478 728.098 Q150.112 728.098 151.918 724.556 Q153.746 720.992 153.746 713.885 Q153.746 706.755 151.918 703.214 Q150.112 699.649 146.478 699.649 M146.478 695.945 Q152.288 695.945 155.343 700.552 Q158.422 705.135 158.422 713.885 Q158.422 722.612 155.343 727.218 Q152.288 731.802 146.478 731.802 Q140.668 731.802 137.589 727.218 Q134.533 722.612 134.533 713.885 Q134.533 705.135 137.589 700.552 Q140.668 695.945 146.478 695.945 Z" fill="#000000" fill-rule="nonzero" fill-opacity="1" /><path clip-path="url(#clip670)" d="M51.5708 471.625 L81.2466 471.625 L81.2466 475.56 L51.5708 475.56 L51.5708 471.625 Z" fill="#000000" fill-rule="nonzero" fill-opacity="1" /><path clip-path="url(#clip670)" d="M92.1493 484.518 L99.7882 484.518 L99.7882 458.153 L91.478 459.819 L91.478 455.56 L99.7419 453.893 L104.418 453.893 L104.418 484.518 L112.057 484.518 L112.057 488.453 L92.1493 488.453 L92.1493 484.518 Z" fill="#000000" fill-rule="nonzero" fill-opacity="1" /><path clip-path="url(#clip670)" d="M121.501 482.574 L126.385 482.574 L126.385 488.453 L121.501 488.453 L121.501 482.574 Z" fill="#000000" fill-rule="nonzero" fill-opacity="1" /><path clip-path="url(#clip670)" d="M146.57 472.042 Q143.237 472.042 141.316 473.824 Q139.418 475.606 139.418 478.731 Q139.418 481.856 141.316 483.639 Q143.237 485.421 146.57 485.421 Q149.904 485.421 151.825 483.639 Q153.746 481.833 153.746 478.731 Q153.746 475.606 151.825 473.824 Q149.927 472.042 146.57 472.042 M141.894 470.051 Q138.885 469.31 137.195 467.25 Q135.529 465.19 135.529 462.227 Q135.529 458.083 138.469 455.676 Q141.431 453.268 146.57 453.268 Q151.732 453.268 154.672 455.676 Q157.612 458.083 157.612 462.227 Q157.612 465.19 155.922 467.25 Q154.255 469.31 151.269 470.051 Q154.649 470.838 156.524 473.129 Q158.422 475.421 158.422 478.731 Q158.422 483.754 155.343 486.44 Q152.288 489.125 146.57 489.125 Q140.853 489.125 137.774 486.44 Q134.719 483.754 134.719 478.731 Q134.719 475.421 136.617 473.129 Q138.515 470.838 141.894 470.051 M140.181 462.667 Q140.181 465.352 141.848 466.856 Q143.538 468.361 146.57 468.361 Q149.58 468.361 151.269 466.856 Q152.982 465.352 152.982 462.667 Q152.982 459.981 151.269 458.477 Q149.58 456.972 146.57 456.972 Q143.538 456.972 141.848 458.477 Q140.181 459.981 140.181 462.667 Z" fill="#000000" fill-rule="nonzero" fill-opacity="1" /><path clip-path="url(#clip670)" d="M51.3162 228.948 L80.992 228.948 L80.992 232.883 L51.3162 232.883 L51.3162 228.948 Z" fill="#000000" fill-rule="nonzero" fill-opacity="1" /><path clip-path="url(#clip670)" d="M91.8947 241.841 L99.5335 241.841 L99.5335 215.476 L91.2234 217.143 L91.2234 212.883 L99.4872 211.217 L104.163 211.217 L104.163 241.841 L111.802 241.841 L111.802 245.777 L91.8947 245.777 L91.8947 241.841 Z" fill="#000000" fill-rule="nonzero" fill-opacity="1" /><path clip-path="url(#clip670)" d="M121.246 239.897 L126.131 239.897 L126.131 245.777 L121.246 245.777 L121.246 239.897 Z" fill="#000000" fill-rule="nonzero" fill-opacity="1" /><path clip-path="url(#clip670)" d="M146.894 226.633 Q143.746 226.633 141.894 228.786 Q140.066 230.939 140.066 234.689 Q140.066 238.416 141.894 240.591 Q143.746 242.744 146.894 242.744 Q150.043 242.744 151.871 240.591 Q153.723 238.416 153.723 234.689 Q153.723 230.939 151.871 228.786 Q150.043 226.633 146.894 226.633 M156.177 211.981 L156.177 216.24 Q154.417 215.406 152.612 214.967 Q150.83 214.527 149.07 214.527 Q144.441 214.527 141.987 217.652 Q139.556 220.777 139.209 227.096 Q140.575 225.082 142.635 224.017 Q144.695 222.93 147.172 222.93 Q152.38 222.93 155.39 226.101 Q158.422 229.249 158.422 234.689 Q158.422 240.013 155.274 243.23 Q152.126 246.448 146.894 246.448 Q140.899 246.448 137.728 241.865 Q134.556 237.258 134.556 228.531 Q134.556 220.337 138.445 215.476 Q142.334 210.592 148.885 210.592 Q150.644 210.592 152.427 210.939 Q154.232 211.286 156.177 211.981 Z" fill="#000000" fill-rule="nonzero" fill-opacity="1" /><polyline clip-path="url(#clip672)" style="stroke:#009af9; stroke-linecap:round; stroke-linejoin:round; stroke-width:4; stroke-opacity:1; fill:none" points="194.422,409.389 196.583,406.169 198.743,402.982 200.904,399.827 203.064,396.703 205.225,393.61 207.385,390.547 209.546,387.516 211.706,384.514 213.867,381.543 216.027,378.601 218.188,375.688 220.348,372.805 222.509,369.95 224.669,367.123 226.83,364.325 228.99,361.554 231.151,358.811 233.311,356.096 235.471,353.407 237.632,350.746 239.792,348.11 241.953,345.502 244.113,342.919 246.274,340.361 248.434,337.829 250.595,335.323 252.755,332.841 254.916,330.384 257.076,327.952 259.237,325.544 261.397,323.159 263.558,320.799 265.718,318.462 267.879,316.148 270.039,313.857 272.2,311.59 274.36,309.344 276.521,307.121 278.681,304.921 280.842,302.742 283.002,300.585 285.163,298.449 287.323,296.335 289.484,294.241 291.644,292.169 293.805,290.117 295.965,288.086 298.126,286.075 300.286,284.083 302.447,282.112 304.607,280.161 306.768,278.229 308.928,276.316 311.089,274.422 313.249,272.547 315.41,270.691 317.57,268.853 319.731,267.033 321.891,265.232 324.052,263.448 326.212,261.683 328.373,259.935 330.533,258.204 332.694,256.491 334.854,254.794 337.015,253.115 339.175,251.452 341.336,249.806 343.496,248.176 345.657,246.562 347.817,244.965 349.978,243.383 352.138,241.817 354.299,240.266 356.459,238.732 358.62,237.212 360.78,235.707 362.941,234.218 365.101,232.743 367.262,231.283 369.422,229.837 371.583,228.406 373.743,226.99 375.904,225.587 378.064,224.198 380.225,222.823 382.385,221.462 384.546,220.114 386.706,218.78 388.867,217.459 391.027,216.152 393.188,214.857 395.348,213.575 397.509,212.306 399.669,211.05 401.83,209.806 403.99,208.575 406.151,207.356 408.311,206.149 410.472,204.954 412.632,203.771 414.793,202.599 416.953,201.44 419.114,200.292 421.274,199.155 423.435,198.03 425.595,196.916 427.755,195.813 429.916,194.721 432.076,193.64 434.237,192.57 436.397,191.51 438.558,190.461 440.718,189.422 442.879,188.394 445.039,187.376 447.2,186.368 449.36,185.37 451.521,184.382 453.681,183.403 455.842,182.435 458.002,181.476 460.163,180.527 462.323,179.587 464.484,178.656 466.644,177.735 468.805,176.823 470.965,175.919 473.126,175.025 475.286,174.14 477.447,173.263 479.607,172.396 481.768,171.537 483.928,170.686 486.089,169.844 488.249,169.01 490.41,168.185 492.57,167.368 494.731,166.559 496.891,165.758 499.052,164.965 501.212,164.18 503.373,163.402 505.533,162.633 507.694,161.871 509.854,161.117 512.015,160.371 514.175,159.631 516.336,158.9 518.496,158.175 520.657,157.458 522.817,156.748 524.978,156.045 527.138,155.349 529.299,154.66 531.459,153.978 533.62,153.303 535.78,152.634 537.941,151.972 540.101,151.317 542.262,150.668 544.422,150.026 546.583,149.39 548.743,148.76 550.904,148.137 553.064,147.52 555.225,146.909 557.385,146.305 559.546,145.706 561.706,145.113 563.867,144.526 566.027,143.945 568.188,143.37 570.348,142.801 572.509,142.237 574.669,141.678 576.83,141.126 578.99,140.579 581.151,140.037 583.311,139.5 585.472,138.969 587.632,138.444 589.793,137.923 591.953,137.408 594.114,136.897 596.274,136.392 598.435,135.892 600.595,135.397 602.756,134.906 604.916,134.421 607.077,133.94 609.237,133.464 611.398,132.993 613.558,132.526 615.718,132.064 617.879,131.607 620.039,131.154 622.2,130.705 624.36,130.262 626.521,129.822 628.681,129.387 630.842,128.956 633.002,128.529 635.163,128.107 637.323,127.689 639.484,127.275 641.644,126.865 643.805,126.46 645.965,126.058 648.126,125.66 650.286,125.267 652.447,124.877 654.607,124.491 656.768,124.109 658.928,123.731 661.089,123.357 663.249,122.986 665.41,122.619 667.57,122.256 669.731,121.896 671.891,121.54 674.052,121.188 676.212,120.839 678.373,120.494 680.533,120.152 682.694,119.813 684.854,119.478 687.015,119.146 689.175,118.818 691.336,118.493 693.496,118.171 695.657,117.852 697.817,117.537 699.978,117.225 702.138,116.915 704.299,116.609 706.459,116.306 708.62,116.006 710.78,115.709 712.941,115.416 715.101,115.124 717.262,114.836 719.422,114.551 721.583,114.269 723.743,113.989 725.904,113.712 728.064,113.438 730.225,113.167 732.385,112.898 734.546,112.632 736.706,112.369 738.867,112.109 741.027,111.85 743.188,111.595 745.348,111.342 747.509,111.092 749.669,110.844 751.83,110.598 753.99,110.355 756.151,110.114 758.311,109.876 760.472,109.64 762.632,109.406 764.793,109.175 766.953,108.946 769.114,108.719 771.274,108.495 773.435,108.272 775.595,108.052 777.756,107.834 779.916,107.618 782.077,107.405 784.237,107.193 786.398,106.983 788.558,106.776 790.719,106.57 792.879,106.367 795.04,106.165 797.2,105.966 799.361,105.768 801.521,105.572 803.681,105.379 805.842,105.187 808.002,104.997 810.163,104.809 812.323,104.623 814.484,104.439 816.644,104.256 818.805,104.076 820.965,103.897 823.126,103.72 825.286,103.545 827.447,103.371 829.607,103.199 831.768,103.029 833.928,102.861 836.089,102.694 838.249,102.529 840.41,102.366 842.57,102.204 844.731,102.044 846.891,101.886 849.052,101.729 851.212,101.574 853.373,101.42 855.533,101.268 857.694,101.117 859.854,100.968 862.015,100.82 864.175,100.674 866.336,100.53 868.496,100.387 870.657,100.245 872.817,100.105 874.978,99.9657 877.138,99.8282 879.299,99.6922 881.459,99.5575 883.62,99.4242 885.78,99.2922 887.941,99.1616 890.101,99.0323 892.262,98.9043 894.422,98.7776 896.583,98.6521 898.743,98.528 900.904,98.4051 903.064,98.2834 905.225,98.163 907.385,98.0438 909.546,97.9258 911.706,97.809 913.867,97.6934 916.027,97.5789 918.188,97.4656 920.348,97.3534 922.509,97.2424 924.669,97.1324 926.83,97.0236 928.99,96.9159 931.151,96.8092 933.311,96.7036 935.472,96.5991 937.632,96.4956 939.793,96.3932 941.953,96.2917 944.114,96.1913 946.274,96.0919 948.435,95.9934 950.595,95.8959 952.756,95.7994 954.916,95.7039 957.077,95.6093 959.237,95.5156 961.398,95.4228 963.558,95.331 965.719,95.24 967.879,95.1499 970.04,95.0607 972.2,94.9724 974.361,94.8849 976.521,94.7983 978.682,94.7125 980.842,94.6275 983.003,94.5434 985.163,94.46 987.324,94.3775 989.484,94.2957 991.645,94.2147 993.805,94.1345 995.965,94.055 998.126,93.9763 1000.29,93.8984 1002.45,93.8212 1004.61,93.7448 1006.77,93.669 1008.93,93.5941 1011.09,93.5198 1013.25,93.4463 1015.41,93.3735 1017.57,93.3014 1019.73,93.23 1021.89,93.1592 1024.05,93.0892 1026.21,93.0199 1028.37,92.9513 1030.53,92.8833 1032.69,92.816 1034.85,92.7494 1037.01,92.6834 1039.18,92.6181 1041.34,92.5534 1043.5,92.4894 1045.66,92.426 1047.82,92.3633 1049.98,92.3012 1052.14,92.2397 1054.3,92.1788 1056.46,92.1185 1058.62,92.0589 1060.78,91.9998 1062.94,91.9414 1065.1,91.8835 1067.26,91.8262 1069.42,91.7695 1071.58,91.7134 1073.74,91.6579 1075.9,91.6029 1078.06,91.5484 1080.22,91.4946 1082.39,91.4413 1084.55,91.3885 1086.71,91.3363 1088.87,91.2846 1091.03,91.2334 1093.19,91.1828 1095.35,91.1327 1097.51,91.0831 1099.67,91.034 1101.83,90.9854 1103.99,90.9373 1106.15,90.8897 1108.31,90.8426 1110.47,90.796 1112.63,90.7499 1114.79,90.7042 1116.95,90.6591 1119.11,90.6144 1121.27,90.5701 1123.43,90.5263 1125.6,90.483 1127.76,90.4401 1129.92,90.3977 1132.08,90.3557 1134.24,90.3141 1136.4,90.273 1138.56,90.2323 1140.72,90.192 1142.88,90.1521 1145.04,90.1127 1147.2,90.0736 1149.36,90.035 1151.52,89.9967 1153.68,89.9588 1155.84,89.9214 1158,89.8843 1160.16,89.8476 1162.32,89.8113 1164.48,89.7753 1166.64,89.7397 1168.81,89.7045 1170.97,89.6696 1173.13,89.6351 1175.29,89.601 1177.45,89.5672 1179.61,89.5337 1181.77,89.5005 1183.93,89.4677 1186.09,89.4353 1188.25,89.4031 1190.41,89.3713 1192.57,89.3398 1194.73,89.3086 1196.89,89.2777 1199.05,89.2471 1201.21,89.2168 1203.37,89.1868 1205.53,89.1571 1207.69,89.1277 1209.85,89.0985 1212.01,89.0697 1214.18,89.0411 1216.34,89.0128 1218.5,88.9848 1220.66,88.957 1222.82,88.9295 1224.98,88.9022 1227.14,88.8752 1229.3,88.8484 1231.46,88.8219 1233.62,88.7956 1235.78,88.7696 1237.94,88.7437 1240.1,88.7182 1242.26,88.6928 1244.42,88.6677 1246.58,88.6427 1248.74,88.618 1250.9,88.5936 1253.06,88.5693 1255.22,88.5453 1257.39,88.5215 1259.55,88.4979 1261.71,88.4746 1263.87,88.4514 1266.03,88.4285 1268.19,88.4058 1270.35,88.3833 1272.51,88.361 1274.67,88.3389 1276.83,88.317 1278.99,88.2953 1281.15,88.2739 1283.31,88.2526 1285.47,88.2316 1287.63,88.2107 1289.79,88.1901 1291.95,88.1696 1294.11,88.1494 1296.27,88.1293 1298.43,88.1095 1300.6,88.0898 1302.76,88.0703 1304.92,88.051 1307.08,88.032 1309.24,88.0131 1311.4,87.9944 1313.56,87.9758 1315.72,87.9575 1317.88,87.9393 1320.04,87.9214 1322.2,87.9036 1324.36,87.886 1326.52,87.8685 1328.68,87.8513 1330.84,87.8342 1333,87.8173 1335.16,87.8006 1337.32,87.784 1339.48,87.7677 1341.64,87.7515 1343.81,87.7354 1345.97,87.7195 1348.13,87.7038 1350.29,87.6883 1352.45,87.6729 1354.61,87.6577 1356.77,87.6426 1358.93,87.6277 1361.09,87.613 1363.25,87.5984 1365.41,87.584 1367.57,87.5697 1369.73,87.5556 1371.89,87.5416 1374.05,87.5278 1376.21,87.5141 1378.37,87.5006 1380.53,87.4872 1382.69,87.474 1384.85,87.4609 1387.01,87.4479 1389.18,87.4351 1391.34,87.4224 1393.5,87.4099 1395.66,87.3975 1397.82,87.3853 1399.98,87.3731 1402.14,87.3611 1404.3,87.3493 1406.46,87.3375 1408.62,87.3259 1410.78,87.3145 1412.94,87.3031 1415.1,87.2919 1417.26,87.2808 1419.42,87.2698 1421.58,87.259 1423.74,87.2482 1425.9,87.2376 1428.06,87.2271 1430.22,87.2167 1432.39,87.2064 1434.55,87.1963 1436.71,87.1862 1438.87,87.1763 1441.03,87.1664 1443.19,87.1567 1445.35,87.1471 1447.51,87.1376 1449.67,87.1282 1451.83,87.1188 1453.99,87.1096 1456.15,87.1005 1458.31,87.0915 1460.47,87.0826 1462.63,87.0738 1464.79,87.065 1466.95,87.0564 1469.11,87.0478 1471.27,87.0394 1473.43,87.031 1475.6,87.0227 1477.76,87.0145 1479.92,87.0064 1482.08,86.9984 1484.24,86.9904 1486.4,86.9826 1488.56,86.9748 1490.72,86.9671 1492.88,86.9594 1495.04,86.9519 1497.2,86.9444 1499.36,86.9369 1501.52,86.9296 1503.68,86.9223 1505.84,86.9151 1508,86.9079 1510.16,86.9009 1512.32,86.8938 1514.48,86.8869 1516.64,86.88 1518.81,86.8731 1520.97,86.8664 1523.13,86.8596 1525.29,86.853 1527.45,86.8464 1529.61,86.8398 1531.77,86.8333 1533.93,86.8268 1536.09,86.8204 1538.25,86.814 1540.41,86.8077 1542.57,86.8014 1544.73,86.7952 1546.89,86.789 1549.05,86.7828 1551.21,86.7767 1553.37,86.7706 1555.53,86.7646 1557.69,86.7586 1559.85,86.7527 1562.01,86.7468 1564.18,86.741 1566.34,86.7352 1568.5,86.7295 1570.66,86.7238 1572.82,86.7182 1574.98,86.7126 1577.14,86.707 1579.3,86.7015 1581.46,86.6961 1583.62,86.6907 1585.78,86.6854 1587.94,86.6801 1590.1,86.6748 1592.26,86.6696 1594.42,86.6644 1596.58,86.6593 1598.74,86.6542 1600.9,86.6492 1603.06,86.6442 1605.22,86.6393 1607.39,86.6344 1609.55,86.6296 1611.71,86.6248 1613.87,86.6201 1616.03,86.6154 1618.19,86.6107 1620.35,86.6061 1622.51,86.6015 1624.67,86.597 1626.83,86.5925 1628.99,86.5881 1631.15,86.5837 1633.31,86.5793 1635.47,86.575 1637.63,86.5708 1639.79,86.5666 1641.95,86.5624 1644.11,86.5582 1646.27,86.5542 1648.43,86.5501 1650.6,86.5461 1652.76,86.5421 1654.92,86.5382 1657.08,86.5343 1659.24,86.5305 1661.4,86.5267 1663.56,86.5229 1665.72,86.5192 1667.88,86.5155 1670.04,86.5119 1672.2,86.5083 1674.36,86.5048 1676.52,86.5012 1678.68,86.4978 1680.84,86.4943 1683,86.4909 1685.16,86.4875 1687.32,86.4842 1689.48,86.4809 1691.64,86.4777 1693.81,86.4745 1695.97,86.4713 1698.13,86.4682 1700.29,86.4651 1702.45,86.462 1704.61,86.459 1706.77,86.456 1708.93,86.453 1711.09,86.4501 1713.25,86.4472 1715.41,86.4443 1717.57,86.4415 1719.73,86.4387 1721.89,86.436 1724.05,86.4333 1726.21,86.4306 1728.37,86.4279 1730.53,86.4253 1732.69,86.4227 1734.85,86.4202 1737.02,86.4176 1739.18,86.4152 1741.34,86.4127 1743.5,86.4103 1745.66,86.4079 1747.82,86.4055 1749.98,86.4032 1752.14,86.4008 1754.3,86.3986 1756.46,86.3963 1758.62,86.3941 1760.78,86.3919 1762.94,86.3897 1765.1,86.3876 1767.26,86.3855 1769.42,86.3834 1771.58,86.3813 1773.74,86.3793 1775.9,86.3773 1778.06,86.3753 1780.22,86.3734 1782.39,86.3714 1784.55,86.3695 1786.71,86.3676 1788.87,86.3658 1791.03,86.364 1793.19,86.3621 1795.35,86.3604 1797.51,86.3586 1799.67,86.3568 1801.83,86.3551 1803.99,86.3534 1806.15,86.3517 1808.31,86.3501 1810.47,86.3484 1812.63,86.3468 1814.79,86.3452 1816.95,86.3436 1819.11,86.3421 1821.27,86.3405 1823.43,86.339 1825.6,86.3375 1827.76,86.336 1829.92,86.3345 1832.08,86.3331 1834.24,86.3316 1836.4,86.3302 1838.56,86.3288 1840.72,86.3274 1842.88,86.326 1845.04,86.3246 1847.2,86.3233 1849.36,86.3219 1851.52,86.3206 1853.68,86.3193 1855.84,86.318 1858,86.3167 1860.16,86.3154 1862.32,86.3141 1864.48,86.3129 1866.64,86.3116 1868.81,86.3104 1870.97,86.3091 1873.13,86.3079 1875.29,86.3067 1877.45,86.3054 1879.61,86.3042 1881.77,86.303 1883.93,86.3018 1886.09,86.3007 1888.25,86.2995 1890.41,86.2983 1892.57,86.2971 1894.73,86.2959 1896.89,86.2948 1899.05,86.2936 1901.21,86.2924 1903.37,86.2913 1905.53,86.2901 1907.69,86.289 1909.85,86.2878 1912.02,86.2866 1914.18,86.2855 1916.34,86.2843 1918.5,86.2832 1920.66,86.282 1922.82,86.2808 1924.98,86.2797 1927.14,86.2786 1929.3,86.2774 1931.46,86.2763 1933.62,86.2752 1935.78,86.2741 1937.94,86.273 1940.1,86.2719 1942.26,86.2708 1944.42,86.2697 1946.58,86.2687 1948.74,86.2676 1950.9,86.2666 1953.06,86.2655 1955.22,86.2645 1957.39,86.2635 1959.55,86.2624 1961.71,86.2614 1963.87,86.2604 1966.03,86.2594 1968.19,86.2584 1970.35,86.2574 1972.51,86.2565 1974.67,86.2555 1976.83,86.2545 1978.99,86.2536 1981.15,86.2526 1983.31,86.2517 1985.47,86.2508 1987.63,86.2499 1989.79,86.2489 1991.95,86.248 1994.11,86.2471 1996.27,86.2463 1998.43,86.2454 2000.6,86.2445 2002.76,86.2436 2004.92,86.2428 2007.08,86.2419 2009.24,86.2411 2011.4,86.2403 2013.56,86.2395 2015.72,86.2386 2017.88,86.2378 2020.04,86.237 2022.2,86.2362 2024.36,86.2355 2026.52,86.2347 2028.68,86.2339 2030.84,86.2332 2033,86.2324 2035.16,86.2317 2037.32,86.2309 2039.48,86.2302 2041.64,86.2295 2043.81,86.2288 2045.97,86.2281 2048.13,86.2274 2050.29,86.2267 2052.45,86.226 2054.61,86.2254 2056.77,86.2247 2058.93,86.224 2061.09,86.2234 2063.25,86.2228 2065.41,86.2221 2067.57,86.2215 2069.73,86.2209 2071.89,86.2203 2074.05,86.2197 2076.21,86.2191 2078.37,86.2185 2080.53,86.2179 2082.69,86.2174 2084.85,86.2168 2087.02,86.2162 2089.18,86.2157 2091.34,86.2152 2093.5,86.2146 2095.66,86.2141 2097.82,86.2136 2099.98,86.2131 2102.14,86.2126 2104.3,86.2121 2106.46,86.2116 2108.62,86.2111 2110.78,86.2106 2112.94,86.2102 2115.1,86.2097 2117.26,86.2093 2119.42,86.2088 2121.58,86.2084 2123.74,86.2079 2125.9,86.2075 2128.06,86.2071 2130.22,86.2067 2132.39,86.2063 2134.55,86.2059 2136.71,86.2055 2138.87,86.2051 2141.03,86.2047 2143.19,86.2044 2145.35,86.204 2147.51,86.2036 2149.67,86.2033 2151.83,86.2029 2153.99,86.2026 2156.15,86.2023 2158.31,86.2019 2160.47,86.2016 2162.63,86.2013 2164.79,86.201 2166.95,86.2007 2169.11,86.2004 2171.27,86.2001 2173.43,86.1998 2175.6,86.1995 2177.76,86.1992 2179.92,86.1989 2182.08,86.1987 2184.24,86.1984 2186.4,86.1982 2188.56,86.1979 2190.72,86.1977 2192.88,86.1974 2195.04,86.1972 2197.2,86.1969 2199.36,86.1967 2201.52,86.1965 2203.68,86.1963 2205.84,86.196 2208,86.1958 2210.16,86.1956 2212.32,86.1954 2214.48,86.1952 2216.64,86.195 2218.81,86.1948 2220.97,86.1946 2223.13,86.1945 2225.29,86.1943 2227.45,86.1941 2229.61,86.1939 2231.77,86.1937 2233.93,86.1936 2236.09,86.1934 2238.25,86.1932 2240.41,86.1931 2242.57,86.1929 2244.73,86.1928 2246.89,86.1926 2249.05,86.1925 2251.21,86.1923 2253.37,86.1922 2255.53,86.192 2257.69,86.1919 2259.85,86.1917 2262.02,86.1916 2264.18,86.1915 2266.34,86.1913 2268.5,86.1912 2270.66,86.1911 2272.82,86.1909 2274.98,86.1908 2277.14,86.1907 2279.3,86.1905 2281.46,86.1904 2283.62,86.1903 2285.78,86.1901 2287.94,86.19 2290.1,86.1899 2292.26,86.1898 2294.42,86.1896 2296.58,86.1895 2298.74,86.1894 2300.9,86.1893 2303.06,86.1891 2305.23,86.189 2307.39,86.1889 2309.55,86.1887 2311.71,86.1886 2313.87,86.1885 2316.03,86.1883 2318.19,86.1882 2320.35,86.1881 2322.51,86.1879 2324.67,86.1878 2326.83,86.1876 2328.99,86.1875 2331.15,86.1873 2333.31,86.1872 2335.47,86.187 2337.63,86.1869 2339.79,86.1867 2341.95,86.1865 2344.11,86.1864 2346.27,86.1862 2348.43,86.186 2350.6,86.1859 2352.76,86.1857 "/>
<polyline clip-path="url(#clip672)" style="stroke:#e26f46; stroke-linecap:round; stroke-linejoin:round; stroke-width:4; stroke-opacity:1; fill:none" points="194.422,1384.24 196.583,1376.79 198.743,1369.39 200.904,1362.02 203.064,1354.7 205.225,1347.41 207.385,1340.17 209.546,1332.97 211.706,1325.81 213.867,1318.68 216.027,1311.6 218.188,1304.56 220.348,1297.55 222.509,1290.59 224.669,1283.66 226.83,1276.78 228.99,1269.93 231.151,1263.12 233.311,1256.34 235.471,1249.61 237.632,1242.91 239.792,1236.25 241.953,1229.63 244.113,1223.04 246.274,1216.49 248.434,1209.98 250.595,1203.51 252.755,1197.07 254.916,1190.66 257.076,1184.3 259.237,1177.96 261.397,1171.67 263.558,1165.41 265.718,1159.18 267.879,1152.99 270.039,1146.83 272.2,1140.71 274.36,1134.62 276.521,1128.57 278.681,1122.55 280.842,1116.56 283.002,1110.61 285.163,1104.69 287.323,1098.81 289.484,1092.96 291.644,1087.14 293.805,1081.35 295.965,1075.6 298.126,1069.88 300.286,1064.19 302.447,1058.53 304.607,1052.91 306.768,1047.31 308.928,1041.75 311.089,1036.22 313.249,1030.72 315.41,1025.25 317.57,1019.82 319.731,1014.41 321.891,1009.03 324.052,1003.69 326.212,998.373 328.373,993.087 330.533,987.832 332.694,982.606 334.854,977.41 337.015,972.243 339.175,967.105 341.336,961.997 343.496,956.917 345.657,951.867 347.817,946.844 349.978,941.851 352.138,936.885 354.299,931.948 356.459,927.039 358.62,922.157 360.78,917.304 362.941,912.477 365.101,907.679 367.262,902.907 369.422,898.163 371.583,893.445 373.743,888.755 375.904,884.091 378.064,879.453 380.225,874.842 382.385,870.257 384.546,865.698 386.706,861.166 388.867,856.658 391.027,852.177 393.188,847.721 395.348,843.291 397.509,838.885 399.669,834.505 401.83,830.15 403.99,825.82 406.151,821.514 408.311,817.233 410.472,812.976 412.632,808.744 414.793,804.536 416.953,800.351 419.114,796.191 421.274,792.054 423.435,787.941 425.595,783.852 427.755,779.786 429.916,775.743 432.076,771.723 434.237,767.726 436.397,763.752 438.558,759.801 440.718,755.872 442.879,751.966 445.039,748.082 447.2,744.221 449.36,740.381 451.521,736.564 453.681,732.768 455.842,728.995 458.002,725.242 460.163,721.512 462.323,717.802 464.484,714.114 466.644,710.447 468.805,706.801 470.965,703.176 473.126,699.572 475.286,695.988 477.447,692.425 479.607,688.883 481.768,685.361 483.928,681.859 486.089,678.377 488.249,674.915 490.41,671.473 492.57,668.051 494.731,664.648 496.891,661.265 499.052,657.902 501.212,654.558 503.373,651.233 505.533,647.927 507.694,644.64 509.854,641.372 512.015,638.123 514.175,634.893 516.336,631.681 518.496,628.488 520.657,625.313 522.817,622.157 524.978,619.018 527.138,615.898 529.299,612.796 531.459,609.711 533.62,606.645 535.78,603.596 537.941,600.564 540.101,597.55 542.262,594.554 544.422,591.575 546.583,588.613 548.743,585.668 550.904,582.74 553.064,579.829 555.225,576.935 557.385,574.057 559.546,571.196 561.706,568.352 563.867,565.524 566.027,562.713 568.188,559.917 570.348,557.138 572.509,554.375 574.669,551.628 576.83,548.897 578.99,546.181 581.151,543.482 583.311,540.797 585.472,538.129 587.632,535.476 589.793,532.838 591.953,530.215 594.114,527.608 596.274,525.016 598.435,522.439 600.595,519.876 602.756,517.329 604.916,514.796 607.077,512.278 609.237,509.775 611.398,507.286 613.558,504.811 615.718,502.351 617.879,499.905 620.039,497.473 622.2,495.056 624.36,492.652 626.521,490.262 628.681,487.886 630.842,485.524 633.002,483.176 635.163,480.841 637.323,478.52 639.484,476.213 641.644,473.918 643.805,471.638 645.965,469.37 648.126,467.115 650.286,464.874 652.447,462.646 654.607,460.43 656.768,458.228 658.928,456.038 661.089,453.861 663.249,451.697 665.41,449.545 667.57,447.406 669.731,445.279 671.891,443.165 674.052,441.063 676.212,438.973 678.373,436.895 680.533,434.83 682.694,432.776 684.854,430.735 687.015,428.705 689.175,426.687 691.336,424.681 693.496,422.687 695.657,420.704 697.817,418.733 699.978,416.773 702.138,414.825 704.299,412.888 706.459,410.962 708.62,409.048 710.78,407.144 712.941,405.252 715.101,403.371 717.262,401.501 719.422,399.642 721.583,397.793 723.743,395.956 725.904,394.129 728.064,392.312 730.225,390.507 732.385,388.712 734.546,386.927 736.706,385.153 738.867,383.389 741.027,381.635 743.188,379.892 745.348,378.159 747.509,376.436 749.669,374.723 751.83,373.02 753.99,371.327 756.151,369.644 758.311,367.97 760.472,366.307 762.632,364.653 764.793,363.009 766.953,361.374 769.114,359.749 771.274,358.134 773.435,356.528 775.595,354.931 777.756,353.344 779.916,351.766 782.077,350.197 784.237,348.637 786.398,347.087 788.558,345.545 790.719,344.013 792.879,342.489 795.04,340.974 797.2,339.469 799.361,337.972 801.521,336.483 803.681,335.004 805.842,333.533 808.002,332.071 810.163,330.617 812.323,329.172 814.484,327.735 816.644,326.307 818.805,324.887 820.965,323.476 823.126,322.072 825.286,320.677 827.447,319.29 829.607,317.912 831.768,316.541 833.928,315.178 836.089,313.824 838.249,312.477 840.41,311.138 842.57,309.807 844.731,308.484 846.891,307.169 849.052,305.861 851.212,304.561 853.373,303.269 855.533,301.984 857.694,300.707 859.854,299.438 862.015,298.176 864.175,296.921 866.336,295.673 868.496,294.433 870.657,293.201 872.817,291.975 874.978,290.757 877.138,289.546 879.299,288.342 881.459,287.145 883.62,285.955 885.78,284.772 887.941,283.596 890.101,282.427 892.262,281.265 894.422,280.109 896.583,278.961 898.743,277.819 900.904,276.684 903.064,275.556 905.225,274.434 907.385,273.319 909.546,272.21 911.706,271.108 913.867,270.013 916.027,268.924 918.188,267.841 920.348,266.765 922.509,265.695 924.669,264.631 926.83,263.573 928.99,262.522 931.151,261.477 933.311,260.438 935.472,259.405 937.632,258.379 939.793,257.358 941.953,256.343 944.114,255.335 946.274,254.332 948.435,253.335 950.595,252.344 952.756,251.359 954.916,250.379 957.077,249.406 959.237,248.438 961.398,247.476 963.558,246.519 965.719,245.568 967.879,244.623 970.04,243.683 972.2,242.749 974.361,241.82 976.521,240.897 978.682,239.979 980.842,239.067 983.003,238.16 985.163,237.258 987.324,236.362 989.484,235.471 991.645,234.585 993.805,233.704 995.965,232.829 998.126,231.958 1000.29,231.093 1002.45,230.233 1004.61,229.378 1006.77,228.528 1008.93,227.683 1011.09,226.843 1013.25,226.007 1015.41,225.177 1017.57,224.352 1019.73,223.531 1021.89,222.716 1024.05,221.905 1026.21,221.099 1028.37,220.297 1030.53,219.501 1032.69,218.709 1034.85,217.922 1037.01,217.139 1039.18,216.361 1041.34,215.588 1043.5,214.819 1045.66,214.055 1047.82,213.295 1049.98,212.54 1052.14,211.789 1054.3,211.043 1056.46,210.301 1058.62,209.563 1060.78,208.83 1062.94,208.101 1065.1,207.377 1067.26,206.656 1069.42,205.94 1071.58,205.229 1073.74,204.521 1075.9,203.818 1078.06,203.119 1080.22,202.424 1082.39,201.733 1084.55,201.046 1086.71,200.363 1088.87,199.685 1091.03,199.01 1093.19,198.339 1095.35,197.673 1097.51,197.01 1099.67,196.351 1101.83,195.696 1103.99,195.045 1106.15,194.398 1108.31,193.755 1110.47,193.115 1112.63,192.48 1114.79,191.848 1116.95,191.22 1119.11,190.595 1121.27,189.974 1123.43,189.357 1125.6,188.744 1127.76,188.134 1129.92,187.528 1132.08,186.925 1134.24,186.326 1136.4,185.731 1138.56,185.139 1140.72,184.551 1142.88,183.966 1145.04,183.384 1147.2,182.806 1149.36,182.232 1151.52,181.661 1153.68,181.093 1155.84,180.529 1158,179.967 1160.16,179.41 1162.32,178.855 1164.48,178.304 1166.64,177.756 1168.81,177.212 1170.97,176.67 1173.13,176.132 1175.29,175.597 1177.45,175.065 1179.61,174.537 1181.77,174.011 1183.93,173.489 1186.09,172.969 1188.25,172.453 1190.41,171.94 1192.57,171.43 1194.73,170.922 1196.89,170.418 1199.05,169.917 1201.21,169.419 1203.37,168.924 1205.53,168.431 1207.69,167.942 1209.85,167.455 1212.01,166.972 1214.18,166.491 1216.34,166.013 1218.5,165.538 1220.66,165.065 1222.82,164.596 1224.98,164.129 1227.14,163.665 1229.3,163.204 1231.46,162.745 1233.62,162.29 1235.78,161.836 1237.94,161.386 1240.1,160.938 1242.26,160.493 1244.42,160.051 1246.58,159.611 1248.74,159.173 1250.9,158.739 1253.06,158.306 1255.22,157.877 1257.39,157.45 1259.55,157.025 1261.71,156.603 1263.87,156.183 1266.03,155.766 1268.19,155.351 1270.35,154.939 1272.51,154.529 1274.67,154.122 1276.83,153.717 1278.99,153.314 1281.15,152.914 1283.31,152.516 1285.47,152.12 1287.63,151.727 1289.79,151.336 1291.95,150.948 1294.11,150.562 1296.27,150.178 1298.43,149.796 1300.6,149.417 1302.76,149.039 1304.92,148.664 1307.08,148.292 1309.24,147.921 1311.4,147.553 1313.56,147.187 1315.72,146.823 1317.88,146.461 1320.04,146.102 1322.2,145.744 1324.36,145.389 1326.52,145.036 1328.68,144.685 1330.84,144.336 1333,143.989 1335.16,143.644 1337.32,143.301 1339.48,142.96 1341.64,142.622 1343.81,142.285 1345.97,141.95 1348.13,141.617 1350.29,141.287 1352.45,140.958 1354.61,140.631 1356.77,140.306 1358.93,139.984 1361.09,139.663 1363.25,139.344 1365.41,139.026 1367.57,138.711 1369.73,138.398 1371.89,138.086 1374.05,137.777 1376.21,137.469 1378.37,137.163 1380.53,136.859 1382.69,136.557 1384.85,136.257 1387.01,135.958 1389.18,135.661 1391.34,135.366 1393.5,135.073 1395.66,134.781 1397.82,134.491 1399.98,134.203 1402.14,133.917 1404.3,133.632 1406.46,133.349 1408.62,133.068 1410.78,132.789 1412.94,132.511 1415.1,132.234 1417.26,131.96 1419.42,131.687 1421.58,131.416 1423.74,131.146 1425.9,130.878 1428.06,130.612 1430.22,130.347 1432.39,130.083 1434.55,129.822 1436.71,129.562 1438.87,129.303 1441.03,129.046 1443.19,128.791 1445.35,128.537 1447.51,128.284 1449.67,128.033 1451.83,127.784 1453.99,127.536 1456.15,127.289 1458.31,127.044 1460.47,126.801 1462.63,126.559 1464.79,126.318 1466.95,126.079 1469.11,125.841 1471.27,125.605 1473.43,125.37 1475.6,125.136 1477.76,124.904 1479.92,124.673 1482.08,124.444 1484.24,124.216 1486.4,123.989 1488.56,123.764 1490.72,123.54 1492.88,123.317 1495.04,123.096 1497.2,122.875 1499.36,122.657 1501.52,122.439 1503.68,122.223 1505.84,122.008 1508,121.795 1510.16,121.582 1512.32,121.371 1514.48,121.161 1516.64,120.953 1518.81,120.745 1520.97,120.539 1523.13,120.334 1525.29,120.131 1527.45,119.928 1529.61,119.727 1531.77,119.527 1533.93,119.328 1536.09,119.13 1538.25,118.933 1540.41,118.738 1542.57,118.544 1544.73,118.35 1546.89,118.158 1549.05,117.967 1551.21,117.778 1553.37,117.589 1555.53,117.401 1557.69,117.215 1559.85,117.029 1562.01,116.845 1564.18,116.662 1566.34,116.48 1568.5,116.299 1570.66,116.119 1572.82,115.94 1574.98,115.762 1577.14,115.585 1579.3,115.409 1581.46,115.234 1583.62,115.06 1585.78,114.887 1587.94,114.716 1590.1,114.545 1592.26,114.375 1594.42,114.206 1596.58,114.039 1598.74,113.872 1600.9,113.706 1603.06,113.541 1605.22,113.378 1607.39,113.215 1609.55,113.053 1611.71,112.892 1613.87,112.732 1616.03,112.573 1618.19,112.415 1620.35,112.258 1622.51,112.102 1624.67,111.946 1626.83,111.792 1628.99,111.639 1631.15,111.486 1633.31,111.334 1635.47,111.184 1637.63,111.034 1639.79,110.885 1641.95,110.737 1644.11,110.59 1646.27,110.444 1648.43,110.298 1650.6,110.154 1652.76,110.01 1654.92,109.868 1657.08,109.726 1659.24,109.585 1661.4,109.444 1663.56,109.305 1665.72,109.167 1667.88,109.029 1670.04,108.892 1672.2,108.756 1674.36,108.621 1676.52,108.487 1678.68,108.353 1680.84,108.22 1683,108.088 1685.16,107.957 1687.32,107.827 1689.48,107.697 1691.64,107.568 1693.81,107.44 1695.97,107.313 1698.13,107.187 1700.29,107.061 1702.45,106.936 1704.61,106.812 1706.77,106.688 1708.93,106.566 1711.09,106.444 1713.25,106.322 1715.41,106.202 1717.57,106.082 1719.73,105.963 1721.89,105.845 1724.05,105.727 1726.21,105.61 1728.37,105.494 1730.53,105.379 1732.69,105.264 1734.85,105.15 1737.02,105.037 1739.18,104.924 1741.34,104.812 1743.5,104.701 1745.66,104.59 1747.82,104.48 1749.98,104.371 1752.14,104.262 1754.3,104.154 1756.46,104.047 1758.62,103.94 1760.78,103.834 1762.94,103.729 1765.1,103.624 1767.26,103.52 1769.42,103.416 1771.58,103.314 1773.74,103.211 1775.9,103.11 1778.06,103.009 1780.22,102.908 1782.39,102.809 1784.55,102.709 1786.71,102.611 1788.87,102.513 1791.03,102.415 1793.19,102.319 1795.35,102.222 1797.51,102.127 1799.67,102.032 1801.83,101.937 1803.99,101.843 1806.15,101.75 1808.31,101.657 1810.47,101.565 1812.63,101.473 1814.79,101.382 1816.95,101.292 1819.11,101.202 1821.27,101.112 1823.43,101.023 1825.6,100.935 1827.76,100.847 1829.92,100.76 1832.08,100.673 1834.24,100.586 1836.4,100.501 1838.56,100.415 1840.72,100.33 1842.88,100.246 1845.04,100.162 1847.2,100.079 1849.36,99.9963 1851.52,99.914 1853.68,99.8322 1855.84,99.7509 1858,99.67 1860.16,99.5896 1862.32,99.5097 1864.48,99.4303 1866.64,99.3514 1868.81,99.2729 1870.97,99.1948 1873.13,99.1173 1875.29,99.0402 1877.45,98.9635 1879.61,98.8873 1881.77,98.8115 1883.93,98.7362 1886.09,98.6613 1888.25,98.5868 1890.41,98.5128 1892.57,98.4392 1894.73,98.366 1896.89,98.2933 1899.05,98.2209 1901.21,98.149 1903.37,98.0775 1905.53,98.0065 1907.69,97.9358 1909.85,97.8655 1912.02,97.7956 1914.18,97.7262 1916.34,97.6571 1918.5,97.5884 1920.66,97.5201 1922.82,97.4522 1924.98,97.3847 1927.14,97.3176 1929.3,97.2508 1931.46,97.1845 1933.62,97.1185 1935.78,97.0529 1937.94,96.9877 1940.1,96.9228 1942.26,96.8583 1944.42,96.7942 1946.58,96.7305 1948.74,96.6671 1950.9,96.6041 1953.06,96.5415 1955.22,96.4792 1957.39,96.4173 1959.55,96.3558 1961.71,96.2946 1963.87,96.2337 1966.03,96.1733 1968.19,96.1131 1970.35,96.0534 1972.51,95.9939 1974.67,95.9349 1976.83,95.8761 1978.99,95.8178 1981.15,95.7597 1983.31,95.702 1985.47,95.6447 1987.63,95.5877 1989.79,95.531 1991.95,95.4746 1994.11,95.4186 1996.27,95.3629 1998.43,95.3076 2000.6,95.2526 2002.76,95.1979 2004.92,95.1435 2007.08,95.0895 2009.24,95.0358 2011.4,94.9824 2013.56,94.9293 2015.72,94.8766 2017.88,94.8241 2020.04,94.772 2022.2,94.7202 2024.36,94.6687 2026.52,94.6175 2028.68,94.5666 2030.84,94.516 2033,94.4658 2035.16,94.4158 2037.32,94.3661 2039.48,94.3168 2041.64,94.2677 2043.81,94.2189 2045.97,94.1705 2048.13,94.1223 2050.29,94.0744 2052.45,94.0268 2054.61,93.9795 2056.77,93.9325 2058.93,93.8858 2061.09,93.8394 2063.25,93.7932 2065.41,93.7473 2067.57,93.7018 2069.73,93.6564 2071.89,93.6114 2074.05,93.5667 2076.21,93.5222 2078.37,93.478 2080.53,93.434 2082.69,93.3904 2084.85,93.347 2087.02,93.3038 2089.18,93.261 2091.34,93.2184 2093.5,93.176 2095.66,93.134 2097.82,93.0921 2099.98,93.0506 2102.14,93.0093 2104.3,92.9682 2106.46,92.9275 2108.62,92.8869 2110.78,92.8466 2112.94,92.8066 2115.1,92.7668 2117.26,92.7273 2119.42,92.688 2121.58,92.6489 2123.74,92.6101 2125.9,92.5716 2128.06,92.5332 2130.22,92.4951 2132.39,92.4573 2134.55,92.4197 2136.71,92.3823 2138.87,92.3451 2141.03,92.3082 2143.19,92.2715 2145.35,92.2351 2147.51,92.1988 2149.67,92.1628 2151.83,92.127 2153.99,92.0915 2156.15,92.0561 2158.31,92.021 2160.47,91.9861 2162.63,91.9514 2164.79,91.917 2166.95,91.8827 2169.11,91.8487 2171.27,91.8149 2173.43,91.7812 2175.6,91.7478 2177.76,91.7146 2179.92,91.6816 2182.08,91.6489 2184.24,91.6163 2186.4,91.5839 2188.56,91.5517 2190.72,91.5197 2192.88,91.4879 2195.04,91.4564 2197.2,91.425 2199.36,91.3938 2201.52,91.3628 2203.68,91.3319 2205.84,91.3013 2208,91.2709 2210.16,91.2406 2212.32,91.2106 2214.48,91.1807 2216.64,91.151 2218.81,91.1215 2220.97,91.0922 2223.13,91.063 2225.29,91.0341 2227.45,91.0053 2229.61,90.9767 2231.77,90.9482 2233.93,90.9199 2236.09,90.8918 2238.25,90.8639 2240.41,90.8362 2242.57,90.8086 2244.73,90.7812 2246.89,90.7539 2249.05,90.7268 2251.21,90.6999 2253.37,90.6731 2255.53,90.6465 2257.69,90.6201 2259.85,90.5938 2262.02,90.5677 2264.18,90.5417 2266.34,90.5159 2268.5,90.4902 2270.66,90.4647 2272.82,90.4393 2274.98,90.4141 2277.14,90.389 2279.3,90.3641 2281.46,90.3393 2283.62,90.3147 2285.78,90.2902 2287.94,90.2659 2290.1,90.2417 2292.26,90.2176 2294.42,90.1937 2296.58,90.1699 2298.74,90.1462 2300.9,90.1227 2303.06,90.0993 2305.23,90.0761 2307.39,90.053 2309.55,90.03 2311.71,90.0071 2313.87,89.9844 2316.03,89.9618 2318.19,89.9393 2320.35,89.917 2322.51,89.8947 2324.67,89.8726 2326.83,89.8506 2328.99,89.8288 2331.15,89.807 2333.31,89.7854 2335.47,89.7639 2337.63,89.7425 2339.79,89.7212 2341.95,89.7 2344.11,89.679 2346.27,89.658 2348.43,89.6372 2350.6,89.6164 2352.76,89.5958 "/>
<path clip-path="url(#clip670)" d="M1805.58 1377.32 L2280.81 1377.32 L2280.81 1221.8 L1805.58 1221.8  Z" fill="#ffffff" fill-rule="evenodd" fill-opacity="1"/>
<polyline clip-path="url(#clip670)" style="stroke:#000000; stroke-linecap:round; stroke-linejoin:round; stroke-width:4; stroke-opacity:1; fill:none" points="1805.58,1377.32 2280.81,1377.32 2280.81,1221.8 1805.58,1221.8 1805.58,1377.32 "/>
<polyline clip-path="url(#clip670)" style="stroke:#009af9; stroke-linecap:round; stroke-linejoin:round; stroke-width:4; stroke-opacity:1; fill:none" points="1829.56,1273.64 1973.45,1273.64 "/>
<path clip-path="url(#clip670)" d="M1997.43 1264.99 L2001.95 1264.99 L2010.05 1286.75 L2018.15 1264.99 L2022.66 1264.99 L2012.94 1290.92 L2007.16 1290.92 L1997.43 1264.99 Z" fill="#000000" fill-rule="nonzero" fill-opacity="1" /><path clip-path="url(#clip670)" d="M2029.96 1286.98 L2037.6 1286.98 L2037.6 1260.61 L2029.28 1262.28 L2029.28 1258.02 L2037.55 1256.36 L2042.22 1256.36 L2042.22 1286.98 L2049.86 1286.98 L2049.86 1290.92 L2029.96 1290.92 L2029.96 1286.98 Z" fill="#000000" fill-rule="nonzero" fill-opacity="1" /><path clip-path="url(#clip670)" d="M2067.97 1274.27 L2067.97 1281.49 L2076.09 1281.49 L2076.09 1283.69 L2067.97 1283.69 L2067.97 1290.92 L2065.53 1290.92 L2065.53 1283.69 L2057.41 1283.69 L2057.41 1281.49 L2065.53 1281.49 L2065.53 1274.27 L2067.97 1274.27 Z" fill="#000000" fill-rule="nonzero" fill-opacity="1" /><path clip-path="url(#clip670)" d="M2100.26 1265.75 L2100.26 1269.78 Q2098.45 1268.86 2096.51 1268.39 Q2094.56 1267.93 2092.48 1267.93 Q2089.31 1267.93 2087.71 1268.9 Q2086.14 1269.87 2086.14 1271.82 Q2086.14 1273.3 2087.27 1274.16 Q2088.4 1274.99 2091.83 1275.75 L2093.29 1276.08 Q2097.83 1277.05 2099.72 1278.83 Q2101.65 1280.59 2101.65 1283.76 Q2101.65 1287.37 2098.78 1289.48 Q2095.93 1291.59 2090.93 1291.59 Q2088.84 1291.59 2086.58 1291.17 Q2084.33 1290.78 2081.83 1289.97 L2081.83 1285.57 Q2084.19 1286.79 2086.48 1287.42 Q2088.78 1288.02 2091.02 1288.02 Q2094.03 1288.02 2095.65 1287 Q2097.27 1285.96 2097.27 1284.09 Q2097.27 1282.35 2096.09 1281.42 Q2094.93 1280.5 2090.97 1279.64 L2089.49 1279.3 Q2085.53 1278.46 2083.78 1276.75 Q2082.02 1275.01 2082.02 1272 Q2082.02 1268.35 2084.61 1266.36 Q2087.2 1264.36 2091.97 1264.36 Q2094.33 1264.36 2096.41 1264.71 Q2098.5 1265.06 2100.26 1265.75 Z" fill="#000000" fill-rule="nonzero" fill-opacity="1" /><path clip-path="url(#clip670)" d="M2112.64 1257.63 L2112.64 1264.99 L2121.41 1264.99 L2121.41 1268.3 L2112.64 1268.3 L2112.64 1282.37 Q2112.64 1285.54 2113.5 1286.45 Q2114.38 1287.35 2117.04 1287.35 L2121.41 1287.35 L2121.41 1290.92 L2117.04 1290.92 Q2112.11 1290.92 2110.23 1289.09 Q2108.36 1287.23 2108.36 1282.37 L2108.36 1268.3 L2105.23 1268.3 L2105.23 1264.99 L2108.36 1264.99 L2108.36 1257.63 L2112.64 1257.63 Z" fill="#000000" fill-rule="nonzero" fill-opacity="1" /><path clip-path="url(#clip670)" d="M2137.06 1267.98 Q2133.64 1267.98 2131.65 1270.66 Q2129.65 1273.32 2129.65 1277.98 Q2129.65 1282.63 2131.62 1285.31 Q2133.61 1287.98 2137.06 1287.98 Q2140.46 1287.98 2142.46 1285.29 Q2144.45 1282.61 2144.45 1277.98 Q2144.45 1273.37 2142.46 1270.68 Q2140.46 1267.98 2137.06 1267.98 M2137.06 1264.36 Q2142.62 1264.36 2145.79 1267.98 Q2148.96 1271.59 2148.96 1277.98 Q2148.96 1284.34 2145.79 1287.98 Q2142.62 1291.59 2137.06 1291.59 Q2131.48 1291.59 2128.31 1287.98 Q2125.16 1284.34 2125.16 1277.98 Q2125.16 1271.59 2128.31 1267.98 Q2131.48 1264.36 2137.06 1264.36 Z" fill="#000000" fill-rule="nonzero" fill-opacity="1" /><path clip-path="url(#clip670)" d="M2171.04 1268.97 Q2170.33 1268.55 2169.47 1268.37 Q2168.64 1268.16 2167.62 1268.16 Q2164.01 1268.16 2162.06 1270.52 Q2160.14 1272.86 2160.14 1277.26 L2160.14 1290.92 L2155.86 1290.92 L2155.86 1264.99 L2160.14 1264.99 L2160.14 1269.02 Q2161.48 1266.66 2163.64 1265.52 Q2165.79 1264.36 2168.87 1264.36 Q2169.31 1264.36 2169.84 1264.43 Q2170.37 1264.48 2171.02 1264.6 L2171.04 1268.97 Z" fill="#000000" fill-rule="nonzero" fill-opacity="1" /><path clip-path="url(#clip670)" d="M2187.29 1277.88 Q2182.13 1277.88 2180.14 1279.06 Q2178.15 1280.24 2178.15 1283.09 Q2178.15 1285.36 2179.63 1286.7 Q2181.14 1288.02 2183.71 1288.02 Q2187.25 1288.02 2189.38 1285.52 Q2191.53 1283 2191.53 1278.83 L2191.53 1277.88 L2187.29 1277.88 M2195.79 1276.12 L2195.79 1290.92 L2191.53 1290.92 L2191.53 1286.98 Q2190.07 1289.34 2187.9 1290.48 Q2185.72 1291.59 2182.57 1291.59 Q2178.59 1291.59 2176.23 1289.36 Q2173.89 1287.12 2173.89 1283.37 Q2173.89 1278.99 2176.81 1276.77 Q2179.75 1274.55 2185.56 1274.55 L2191.53 1274.55 L2191.53 1274.13 Q2191.53 1271.19 2189.58 1269.6 Q2187.66 1267.98 2184.17 1267.98 Q2181.95 1267.98 2179.84 1268.51 Q2177.73 1269.04 2175.79 1270.11 L2175.79 1266.17 Q2178.13 1265.27 2180.33 1264.83 Q2182.52 1264.36 2184.61 1264.36 Q2190.23 1264.36 2193.01 1267.28 Q2195.79 1270.2 2195.79 1276.12 Z" fill="#000000" fill-rule="nonzero" fill-opacity="1" /><path clip-path="url(#clip670)" d="M2221.62 1277.65 Q2221.62 1273.02 2219.7 1270.48 Q2217.8 1267.93 2214.35 1267.93 Q2210.93 1267.93 2209.01 1270.48 Q2207.11 1273.02 2207.11 1277.65 Q2207.11 1282.26 2209.01 1284.8 Q2210.93 1287.35 2214.35 1287.35 Q2217.8 1287.35 2219.7 1284.8 Q2221.62 1282.26 2221.62 1277.65 M2225.88 1287.7 Q2225.88 1294.32 2222.94 1297.54 Q2220 1300.78 2213.94 1300.78 Q2211.69 1300.78 2209.7 1300.43 Q2207.71 1300.11 2205.83 1299.41 L2205.83 1295.27 Q2207.71 1296.29 2209.54 1296.77 Q2211.37 1297.26 2213.27 1297.26 Q2217.46 1297.26 2219.54 1295.06 Q2221.62 1292.88 2221.62 1288.46 L2221.62 1286.36 Q2220.3 1288.65 2218.24 1289.78 Q2216.18 1290.92 2213.31 1290.92 Q2208.54 1290.92 2205.63 1287.28 Q2202.71 1283.65 2202.71 1277.65 Q2202.71 1271.63 2205.63 1268 Q2208.54 1264.36 2213.31 1264.36 Q2216.18 1264.36 2218.24 1265.5 Q2220.3 1266.63 2221.62 1268.92 L2221.62 1264.99 L2225.88 1264.99 L2225.88 1287.7 Z" fill="#000000" fill-rule="nonzero" fill-opacity="1" /><path clip-path="url(#clip670)" d="M2256.83 1276.89 L2256.83 1278.97 L2237.25 1278.97 Q2237.52 1283.37 2239.89 1285.68 Q2242.27 1287.98 2246.51 1287.98 Q2248.96 1287.98 2251.25 1287.37 Q2253.57 1286.77 2255.83 1285.57 L2255.83 1289.6 Q2253.54 1290.57 2251.14 1291.08 Q2248.73 1291.59 2246.25 1291.59 Q2240.05 1291.59 2236.41 1287.98 Q2232.8 1284.36 2232.8 1278.21 Q2232.8 1271.84 2236.23 1268.11 Q2239.68 1264.36 2245.51 1264.36 Q2250.74 1264.36 2253.77 1267.74 Q2256.83 1271.1 2256.83 1276.89 M2252.57 1275.64 Q2252.52 1272.14 2250.6 1270.06 Q2248.71 1267.98 2245.56 1267.98 Q2241.99 1267.98 2239.84 1269.99 Q2237.71 1272 2237.39 1275.66 L2252.57 1275.64 Z" fill="#000000" fill-rule="nonzero" fill-opacity="1" /><polyline clip-path="url(#clip670)" style="stroke:#e26f46; stroke-linecap:round; stroke-linejoin:round; stroke-width:4; stroke-opacity:1; fill:none" points="1829.56,1325.48 1973.45,1325.48 "/>
<path clip-path="url(#clip670)" d="M1997.43 1316.83 L2001.95 1316.83 L2010.05 1338.59 L2018.15 1316.83 L2022.66 1316.83 L2012.94 1342.76 L2007.16 1342.76 L1997.43 1316.83 Z" fill="#000000" fill-rule="nonzero" fill-opacity="1" /><path clip-path="url(#clip670)" d="M2029.19 1308.2 L2047.55 1308.2 L2047.55 1312.13 L2033.47 1312.13 L2033.47 1320.6 Q2034.49 1320.26 2035.51 1320.09 Q2036.53 1319.91 2037.55 1319.91 Q2043.34 1319.91 2046.72 1323.08 Q2050.09 1326.25 2050.09 1331.67 Q2050.09 1337.25 2046.62 1340.35 Q2043.15 1343.43 2036.83 1343.43 Q2034.66 1343.43 2032.39 1343.06 Q2030.14 1342.69 2027.73 1341.95 L2027.73 1337.25 Q2029.82 1338.38 2032.04 1338.94 Q2034.26 1339.49 2036.74 1339.49 Q2040.74 1339.49 2043.08 1337.38 Q2045.42 1335.28 2045.42 1331.67 Q2045.42 1328.06 2043.08 1325.95 Q2040.74 1323.84 2036.74 1323.84 Q2034.86 1323.84 2032.99 1324.26 Q2031.14 1324.68 2029.19 1325.56 L2029.19 1308.2 Z" fill="#000000" fill-rule="nonzero" fill-opacity="1" /><path clip-path="url(#clip670)" d="M2067.97 1326.11 L2067.97 1333.33 L2076.09 1333.33 L2076.09 1335.53 L2067.97 1335.53 L2067.97 1342.76 L2065.53 1342.76 L2065.53 1335.53 L2057.41 1335.53 L2057.41 1333.33 L2065.53 1333.33 L2065.53 1326.11 L2067.97 1326.11 Z" fill="#000000" fill-rule="nonzero" fill-opacity="1" /><path clip-path="url(#clip670)" d="M2100.26 1317.59 L2100.26 1321.62 Q2098.45 1320.7 2096.51 1320.23 Q2094.56 1319.77 2092.48 1319.77 Q2089.31 1319.77 2087.71 1320.74 Q2086.14 1321.71 2086.14 1323.66 Q2086.14 1325.14 2087.27 1326 Q2088.4 1326.83 2091.83 1327.59 L2093.29 1327.92 Q2097.83 1328.89 2099.72 1330.67 Q2101.65 1332.43 2101.65 1335.6 Q2101.65 1339.21 2098.78 1341.32 Q2095.93 1343.43 2090.93 1343.43 Q2088.84 1343.43 2086.58 1343.01 Q2084.33 1342.62 2081.83 1341.81 L2081.83 1337.41 Q2084.19 1338.63 2086.48 1339.26 Q2088.78 1339.86 2091.02 1339.86 Q2094.03 1339.86 2095.65 1338.84 Q2097.27 1337.8 2097.27 1335.93 Q2097.27 1334.19 2096.09 1333.26 Q2094.93 1332.34 2090.97 1331.48 L2089.49 1331.14 Q2085.53 1330.3 2083.78 1328.59 Q2082.02 1326.85 2082.02 1323.84 Q2082.02 1320.19 2084.61 1318.2 Q2087.2 1316.2 2091.97 1316.2 Q2094.33 1316.2 2096.41 1316.55 Q2098.5 1316.9 2100.26 1317.59 Z" fill="#000000" fill-rule="nonzero" fill-opacity="1" /><path clip-path="url(#clip670)" d="M2112.64 1309.47 L2112.64 1316.83 L2121.41 1316.83 L2121.41 1320.14 L2112.64 1320.14 L2112.64 1334.21 Q2112.64 1337.38 2113.5 1338.29 Q2114.38 1339.19 2117.04 1339.19 L2121.41 1339.19 L2121.41 1342.76 L2117.04 1342.76 Q2112.11 1342.76 2110.23 1340.93 Q2108.36 1339.07 2108.36 1334.21 L2108.36 1320.14 L2105.23 1320.14 L2105.23 1316.83 L2108.36 1316.83 L2108.36 1309.47 L2112.64 1309.47 Z" fill="#000000" fill-rule="nonzero" fill-opacity="1" /><path clip-path="url(#clip670)" d="M2137.06 1319.82 Q2133.64 1319.82 2131.65 1322.5 Q2129.65 1325.16 2129.65 1329.82 Q2129.65 1334.47 2131.62 1337.15 Q2133.61 1339.82 2137.06 1339.82 Q2140.46 1339.82 2142.46 1337.13 Q2144.45 1334.45 2144.45 1329.82 Q2144.45 1325.21 2142.46 1322.52 Q2140.46 1319.82 2137.06 1319.82 M2137.06 1316.2 Q2142.62 1316.2 2145.79 1319.82 Q2148.96 1323.43 2148.96 1329.82 Q2148.96 1336.18 2145.79 1339.82 Q2142.62 1343.43 2137.06 1343.43 Q2131.48 1343.43 2128.31 1339.82 Q2125.16 1336.18 2125.16 1329.82 Q2125.16 1323.43 2128.31 1319.82 Q2131.48 1316.2 2137.06 1316.2 Z" fill="#000000" fill-rule="nonzero" fill-opacity="1" /><path clip-path="url(#clip670)" d="M2171.04 1320.81 Q2170.33 1320.39 2169.47 1320.21 Q2168.64 1320 2167.62 1320 Q2164.01 1320 2162.06 1322.36 Q2160.14 1324.7 2160.14 1329.1 L2160.14 1342.76 L2155.86 1342.76 L2155.86 1316.83 L2160.14 1316.83 L2160.14 1320.86 Q2161.48 1318.5 2163.64 1317.36 Q2165.79 1316.2 2168.87 1316.2 Q2169.31 1316.2 2169.84 1316.27 Q2170.37 1316.32 2171.02 1316.44 L2171.04 1320.81 Z" fill="#000000" fill-rule="nonzero" fill-opacity="1" /><path clip-path="url(#clip670)" d="M2187.29 1329.72 Q2182.13 1329.72 2180.14 1330.9 Q2178.15 1332.08 2178.15 1334.93 Q2178.15 1337.2 2179.63 1338.54 Q2181.14 1339.86 2183.71 1339.86 Q2187.25 1339.86 2189.38 1337.36 Q2191.53 1334.84 2191.53 1330.67 L2191.53 1329.72 L2187.29 1329.72 M2195.79 1327.96 L2195.79 1342.76 L2191.53 1342.76 L2191.53 1338.82 Q2190.07 1341.18 2187.9 1342.32 Q2185.72 1343.43 2182.57 1343.43 Q2178.59 1343.43 2176.23 1341.2 Q2173.89 1338.96 2173.89 1335.21 Q2173.89 1330.83 2176.81 1328.61 Q2179.75 1326.39 2185.56 1326.39 L2191.53 1326.39 L2191.53 1325.97 Q2191.53 1323.03 2189.58 1321.44 Q2187.66 1319.82 2184.17 1319.82 Q2181.95 1319.82 2179.84 1320.35 Q2177.73 1320.88 2175.79 1321.95 L2175.79 1318.01 Q2178.13 1317.11 2180.33 1316.67 Q2182.52 1316.2 2184.61 1316.2 Q2190.23 1316.2 2193.01 1319.12 Q2195.79 1322.04 2195.79 1327.96 Z" fill="#000000" fill-rule="nonzero" fill-opacity="1" /><path clip-path="url(#clip670)" d="M2221.62 1329.49 Q2221.62 1324.86 2219.7 1322.32 Q2217.8 1319.77 2214.35 1319.77 Q2210.93 1319.77 2209.01 1322.32 Q2207.11 1324.86 2207.11 1329.49 Q2207.11 1334.1 2209.01 1336.64 Q2210.93 1339.19 2214.35 1339.19 Q2217.8 1339.19 2219.7 1336.64 Q2221.62 1334.1 2221.62 1329.49 M2225.88 1339.54 Q2225.88 1346.16 2222.94 1349.38 Q2220 1352.62 2213.94 1352.62 Q2211.69 1352.62 2209.7 1352.27 Q2207.71 1351.95 2205.83 1351.25 L2205.83 1347.11 Q2207.71 1348.13 2209.54 1348.61 Q2211.37 1349.1 2213.27 1349.1 Q2217.46 1349.1 2219.54 1346.9 Q2221.62 1344.72 2221.62 1340.3 L2221.62 1338.2 Q2220.3 1340.49 2218.24 1341.62 Q2216.18 1342.76 2213.31 1342.76 Q2208.54 1342.76 2205.63 1339.12 Q2202.71 1335.49 2202.71 1329.49 Q2202.71 1323.47 2205.63 1319.84 Q2208.54 1316.2 2213.31 1316.2 Q2216.18 1316.2 2218.24 1317.34 Q2220.3 1318.47 2221.62 1320.76 L2221.62 1316.83 L2225.88 1316.83 L2225.88 1339.54 Z" fill="#000000" fill-rule="nonzero" fill-opacity="1" /><path clip-path="url(#clip670)" d="M2256.83 1328.73 L2256.83 1330.81 L2237.25 1330.81 Q2237.52 1335.21 2239.89 1337.52 Q2242.27 1339.82 2246.51 1339.82 Q2248.96 1339.82 2251.25 1339.21 Q2253.57 1338.61 2255.83 1337.41 L2255.83 1341.44 Q2253.54 1342.41 2251.14 1342.92 Q2248.73 1343.43 2246.25 1343.43 Q2240.05 1343.43 2236.41 1339.82 Q2232.8 1336.2 2232.8 1330.05 Q2232.8 1323.68 2236.23 1319.95 Q2239.68 1316.2 2245.51 1316.2 Q2250.74 1316.2 2253.77 1319.58 Q2256.83 1322.94 2256.83 1328.73 M2252.57 1327.48 Q2252.52 1323.98 2250.6 1321.9 Q2248.71 1319.82 2245.56 1319.82 Q2241.99 1319.82 2239.84 1321.83 Q2237.71 1323.84 2237.39 1327.5 L2252.57 1327.48 Z" fill="#000000" fill-rule="nonzero" fill-opacity="1" /></svg>
