<?xml version="1.0" encoding="utf-8"?>
<svg xmlns="http://www.w3.org/2000/svg" xmlns:xlink="http://www.w3.org/1999/xlink" width="600" height="400" viewBox="0 0 2400 1600">
<defs>
  <clipPath id="clip200">
    <rect x="0" y="0" width="2400" height="1600"/>
  </clipPath>
</defs>
<path clip-path="url(#clip200)" d="M0 1600 L2400 1600 L2400 0 L0 0  Z" fill="#ffffff" fill-rule="evenodd" fill-opacity="1"/>
<defs>
  <clipPath id="clip201">
    <rect x="480" y="0" width="1681" height="1600"/>
  </clipPath>
</defs>
<path clip-path="url(#clip200)" d="M193.936 1423.18 L2352.76 1423.18 L2352.76 47.2441 L193.936 47.2441  Z" fill="#ffffff" fill-rule="evenodd" fill-opacity="1"/>
<defs>
  <clipPath id="clip202">
    <rect x="193" y="47" width="2160" height="1377"/>
  </clipPath>
</defs>
<polyline clip-path="url(#clip202)" style="stroke:#000000; stroke-linecap:round; stroke-linejoin:round; stroke-width:2; stroke-opacity:0.1; fill:none" points="193.936,1423.18 193.936,47.2441 "/>
<polyline clip-path="url(#clip202)" style="stroke:#000000; stroke-linecap:round; stroke-linejoin:round; stroke-width:2; stroke-opacity:0.1; fill:none" points="733.641,1423.18 733.641,47.2441 "/>
<polyline clip-path="url(#clip202)" style="stroke:#000000; stroke-linecap:round; stroke-linejoin:round; stroke-width:2; stroke-opacity:0.1; fill:none" points="1273.35,1423.18 1273.35,47.2441 "/>
<polyline clip-path="url(#clip202)" style="stroke:#000000; stroke-linecap:round; stroke-linejoin:round; stroke-width:2; stroke-opacity:0.1; fill:none" points="1813.05,1423.18 1813.05,47.2441 "/>
<polyline clip-path="url(#clip202)" style="stroke:#000000; stroke-linecap:round; stroke-linejoin:round; stroke-width:2; stroke-opacity:0.1; fill:none" points="2352.76,1423.18 2352.76,47.2441 "/>
<polyline clip-path="url(#clip202)" style="stroke:#000000; stroke-linecap:round; stroke-linejoin:round; stroke-width:2; stroke-opacity:0.1; fill:none" points="193.936,1201.24 2352.76,1201.24 "/>
<polyline clip-path="url(#clip202)" style="stroke:#000000; stroke-linecap:round; stroke-linejoin:round; stroke-width:2; stroke-opacity:0.1; fill:none" points="193.936,892.217 2352.76,892.217 "/>
<polyline clip-path="url(#clip202)" style="stroke:#000000; stroke-linecap:round; stroke-linejoin:round; stroke-width:2; stroke-opacity:0.1; fill:none" points="193.936,583.191 2352.76,583.191 "/>
<polyline clip-path="url(#clip202)" style="stroke:#000000; stroke-linecap:round; stroke-linejoin:round; stroke-width:2; stroke-opacity:0.1; fill:none" points="193.936,274.166 2352.76,274.166 "/>
<polyline clip-path="url(#clip200)" style="stroke:#000000; stroke-linecap:round; stroke-linejoin:round; stroke-width:4; stroke-opacity:1; fill:none" points="193.936,1423.18 2352.76,1423.18 "/>
<polyline clip-path="url(#clip200)" style="stroke:#000000; stroke-linecap:round; stroke-linejoin:round; stroke-width:4; stroke-opacity:1; fill:none" points="193.936,1423.18 193.936,1404.28 "/>
<polyline clip-path="url(#clip200)" style="stroke:#000000; stroke-linecap:round; stroke-linejoin:round; stroke-width:4; stroke-opacity:1; fill:none" points="733.641,1423.18 733.641,1404.28 "/>
<polyline clip-path="url(#clip200)" style="stroke:#000000; stroke-linecap:round; stroke-linejoin:round; stroke-width:4; stroke-opacity:1; fill:none" points="1273.35,1423.18 1273.35,1404.28 "/>
<polyline clip-path="url(#clip200)" style="stroke:#000000; stroke-linecap:round; stroke-linejoin:round; stroke-width:4; stroke-opacity:1; fill:none" points="1813.05,1423.18 1813.05,1404.28 "/>
<polyline clip-path="url(#clip200)" style="stroke:#000000; stroke-linecap:round; stroke-linejoin:round; stroke-width:4; stroke-opacity:1; fill:none" points="2352.76,1423.18 2352.76,1404.28 "/>
<path clip-path="url(#clip200)" d="M171.32 1454.1 Q167.709 1454.1 165.881 1457.66 Q164.075 1461.2 164.075 1468.33 Q164.075 1475.44 165.881 1479.01 Q167.709 1482.55 171.32 1482.55 Q174.955 1482.55 176.76 1479.01 Q178.589 1475.44 178.589 1468.33 Q178.589 1461.2 176.76 1457.66 Q174.955 1454.1 171.32 1454.1 M171.32 1450.39 Q177.131 1450.39 180.186 1455 Q183.265 1459.58 183.265 1468.33 Q183.265 1477.06 180.186 1481.67 Q177.131 1486.25 171.32 1486.25 Q165.51 1486.25 162.432 1481.67 Q159.376 1477.06 159.376 1468.33 Q159.376 1459.58 162.432 1455 Q165.51 1450.39 171.32 1450.39 Z" fill="#000000" fill-rule="nonzero" fill-opacity="1" /><path clip-path="url(#clip200)" d="M191.482 1479.7 L196.367 1479.7 L196.367 1485.58 L191.482 1485.58 L191.482 1479.7 Z" fill="#000000" fill-rule="nonzero" fill-opacity="1" /><path clip-path="url(#clip200)" d="M216.552 1454.1 Q212.941 1454.1 211.112 1457.66 Q209.306 1461.2 209.306 1468.33 Q209.306 1475.44 211.112 1479.01 Q212.941 1482.55 216.552 1482.55 Q220.186 1482.55 221.991 1479.01 Q223.82 1475.44 223.82 1468.33 Q223.82 1461.2 221.991 1457.66 Q220.186 1454.1 216.552 1454.1 M216.552 1450.39 Q222.362 1450.39 225.417 1455 Q228.496 1459.58 228.496 1468.33 Q228.496 1477.06 225.417 1481.67 Q222.362 1486.25 216.552 1486.25 Q210.741 1486.25 207.663 1481.67 Q204.607 1477.06 204.607 1468.33 Q204.607 1459.58 207.663 1455 Q210.741 1450.39 216.552 1450.39 Z" fill="#000000" fill-rule="nonzero" fill-opacity="1" /><path clip-path="url(#clip200)" d="M711.523 1454.1 Q707.912 1454.1 706.083 1457.66 Q704.278 1461.2 704.278 1468.33 Q704.278 1475.44 706.083 1479.01 Q707.912 1482.55 711.523 1482.55 Q715.157 1482.55 716.963 1479.01 Q718.792 1475.44 718.792 1468.33 Q718.792 1461.2 716.963 1457.66 Q715.157 1454.1 711.523 1454.1 M711.523 1450.39 Q717.333 1450.39 720.389 1455 Q723.467 1459.58 723.467 1468.33 Q723.467 1477.06 720.389 1481.67 Q717.333 1486.25 711.523 1486.25 Q705.713 1486.25 702.634 1481.67 Q699.579 1477.06 699.579 1468.33 Q699.579 1459.58 702.634 1455 Q705.713 1450.39 711.523 1450.39 Z" fill="#000000" fill-rule="nonzero" fill-opacity="1" /><path clip-path="url(#clip200)" d="M731.685 1479.7 L736.569 1479.7 L736.569 1485.58 L731.685 1485.58 L731.685 1479.7 Z" fill="#000000" fill-rule="nonzero" fill-opacity="1" /><path clip-path="url(#clip200)" d="M746.801 1451.02 L765.157 1451.02 L765.157 1454.96 L751.083 1454.96 L751.083 1463.43 Q752.102 1463.08 753.12 1462.92 Q754.139 1462.73 755.157 1462.73 Q760.944 1462.73 764.324 1465.9 Q767.703 1469.08 767.703 1474.49 Q767.703 1480.07 764.231 1483.17 Q760.759 1486.25 754.439 1486.25 Q752.264 1486.25 749.995 1485.88 Q747.75 1485.51 745.342 1484.77 L745.342 1480.07 Q747.426 1481.2 749.648 1481.76 Q751.87 1482.32 754.347 1482.32 Q758.351 1482.32 760.689 1480.21 Q763.027 1478.1 763.027 1474.49 Q763.027 1470.88 760.689 1468.77 Q758.351 1466.67 754.347 1466.67 Q752.472 1466.67 750.597 1467.08 Q748.745 1467.5 746.801 1468.38 L746.801 1451.02 Z" fill="#000000" fill-rule="nonzero" fill-opacity="1" /><path clip-path="url(#clip200)" d="M1240.5 1481.64 L1248.14 1481.64 L1248.14 1455.28 L1239.83 1456.95 L1239.83 1452.69 L1248.09 1451.02 L1252.77 1451.02 L1252.77 1481.64 L1260.41 1481.64 L1260.41 1485.58 L1240.5 1485.58 L1240.5 1481.64 Z" fill="#000000" fill-rule="nonzero" fill-opacity="1" /><path clip-path="url(#clip200)" d="M1269.85 1479.7 L1274.73 1479.7 L1274.73 1485.58 L1269.85 1485.58 L1269.85 1479.7 Z" fill="#000000" fill-rule="nonzero" fill-opacity="1" /><path clip-path="url(#clip200)" d="M1294.92 1454.1 Q1291.31 1454.1 1289.48 1457.66 Q1287.67 1461.2 1287.67 1468.33 Q1287.67 1475.44 1289.48 1479.01 Q1291.31 1482.55 1294.92 1482.55 Q1298.55 1482.55 1300.36 1479.01 Q1302.19 1475.44 1302.19 1468.33 Q1302.19 1461.2 1300.36 1457.66 Q1298.55 1454.1 1294.92 1454.1 M1294.92 1450.39 Q1300.73 1450.39 1303.79 1455 Q1306.86 1459.58 1306.86 1468.33 Q1306.86 1477.06 1303.79 1481.67 Q1300.73 1486.25 1294.92 1486.25 Q1289.11 1486.25 1286.03 1481.67 Q1282.98 1477.06 1282.98 1468.33 Q1282.98 1459.58 1286.03 1455 Q1289.11 1450.39 1294.92 1450.39 Z" fill="#000000" fill-rule="nonzero" fill-opacity="1" /><path clip-path="url(#clip200)" d="M1780.7 1481.64 L1788.34 1481.64 L1788.34 1455.28 L1780.03 1456.95 L1780.03 1452.69 L1788.29 1451.02 L1792.97 1451.02 L1792.97 1481.64 L1800.61 1481.64 L1800.61 1485.58 L1780.7 1485.58 L1780.7 1481.64 Z" fill="#000000" fill-rule="nonzero" fill-opacity="1" /><path clip-path="url(#clip200)" d="M1810.05 1479.7 L1814.94 1479.7 L1814.94 1485.58 L1810.05 1485.58 L1810.05 1479.7 Z" fill="#000000" fill-rule="nonzero" fill-opacity="1" /><path clip-path="url(#clip200)" d="M1825.17 1451.02 L1843.53 1451.02 L1843.53 1454.96 L1829.45 1454.96 L1829.45 1463.43 Q1830.47 1463.08 1831.49 1462.92 Q1832.51 1462.73 1833.53 1462.73 Q1839.31 1462.73 1842.69 1465.9 Q1846.07 1469.08 1846.07 1474.49 Q1846.07 1480.07 1842.6 1483.17 Q1839.13 1486.25 1832.81 1486.25 Q1830.63 1486.25 1828.36 1485.88 Q1826.12 1485.51 1823.71 1484.77 L1823.71 1480.07 Q1825.79 1481.2 1828.02 1481.76 Q1830.24 1482.32 1832.72 1482.32 Q1836.72 1482.32 1839.06 1480.21 Q1841.4 1478.1 1841.4 1474.49 Q1841.4 1470.88 1839.06 1468.77 Q1836.72 1466.67 1832.72 1466.67 Q1830.84 1466.67 1828.97 1467.08 Q1827.11 1467.5 1825.17 1468.38 L1825.17 1451.02 Z" fill="#000000" fill-rule="nonzero" fill-opacity="1" /><path clip-path="url(#clip200)" d="M2323.99 1481.64 L2340.31 1481.64 L2340.31 1485.58 L2318.37 1485.58 L2318.37 1481.64 Q2321.03 1478.89 2325.61 1474.26 Q2330.22 1469.61 2331.4 1468.27 Q2333.65 1465.74 2334.53 1464.01 Q2335.43 1462.25 2335.43 1460.56 Q2335.43 1457.8 2333.49 1456.07 Q2331.56 1454.33 2328.46 1454.33 Q2326.26 1454.33 2323.81 1455.09 Q2321.38 1455.86 2318.6 1457.41 L2318.6 1452.69 Q2321.43 1451.55 2323.88 1450.97 Q2326.33 1450.39 2328.37 1450.39 Q2333.74 1450.39 2336.93 1453.08 Q2340.13 1455.77 2340.13 1460.26 Q2340.13 1462.39 2339.32 1464.31 Q2338.53 1466.2 2336.42 1468.8 Q2335.85 1469.47 2332.74 1472.69 Q2329.64 1475.88 2323.99 1481.64 Z" fill="#000000" fill-rule="nonzero" fill-opacity="1" /><path clip-path="url(#clip200)" d="M2350.13 1479.7 L2355.01 1479.7 L2355.01 1485.58 L2350.13 1485.58 L2350.13 1479.7 Z" fill="#000000" fill-rule="nonzero" fill-opacity="1" /><path clip-path="url(#clip200)" d="M2375.2 1454.1 Q2371.59 1454.1 2369.76 1457.66 Q2367.95 1461.2 2367.95 1468.33 Q2367.95 1475.44 2369.76 1479.01 Q2371.59 1482.55 2375.2 1482.55 Q2378.83 1482.55 2380.64 1479.01 Q2382.47 1475.44 2382.47 1468.33 Q2382.47 1461.2 2380.64 1457.66 Q2378.83 1454.1 2375.2 1454.1 M2375.2 1450.39 Q2381.01 1450.39 2384.06 1455 Q2387.14 1459.58 2387.14 1468.33 Q2387.14 1477.06 2384.06 1481.67 Q2381.01 1486.25 2375.2 1486.25 Q2369.39 1486.25 2366.31 1481.67 Q2363.25 1477.06 2363.25 1468.33 Q2363.25 1459.58 2366.31 1455 Q2369.39 1450.39 2375.2 1450.39 Z" fill="#000000" fill-rule="nonzero" fill-opacity="1" /><path clip-path="url(#clip200)" d="M1272.41 1522.27 L1272.41 1532.4 L1284.47 1532.4 L1284.47 1536.95 L1272.41 1536.95 L1272.41 1556.3 Q1272.41 1560.66 1273.58 1561.9 Q1274.79 1563.14 1278.45 1563.14 L1284.47 1563.14 L1284.47 1568.04 L1278.45 1568.04 Q1271.67 1568.04 1269.1 1565.53 Q1266.52 1562.98 1266.52 1556.3 L1266.52 1536.95 L1262.22 1536.95 L1262.22 1532.4 L1266.52 1532.4 L1266.52 1522.27 L1272.41 1522.27 Z" fill="#000000" fill-rule="nonzero" fill-opacity="1" /><polyline clip-path="url(#clip200)" style="stroke:#000000; stroke-linecap:round; stroke-linejoin:round; stroke-width:4; stroke-opacity:1; fill:none" points="193.936,1423.18 193.936,47.2441 "/>
<polyline clip-path="url(#clip200)" style="stroke:#000000; stroke-linecap:round; stroke-linejoin:round; stroke-width:4; stroke-opacity:1; fill:none" points="193.936,1201.24 212.834,1201.24 "/>
<polyline clip-path="url(#clip200)" style="stroke:#000000; stroke-linecap:round; stroke-linejoin:round; stroke-width:4; stroke-opacity:1; fill:none" points="193.936,892.217 212.834,892.217 "/>
<polyline clip-path="url(#clip200)" style="stroke:#000000; stroke-linecap:round; stroke-linejoin:round; stroke-width:4; stroke-opacity:1; fill:none" points="193.936,583.191 212.834,583.191 "/>
<polyline clip-path="url(#clip200)" style="stroke:#000000; stroke-linecap:round; stroke-linejoin:round; stroke-width:4; stroke-opacity:1; fill:none" points="193.936,274.166 212.834,274.166 "/>
<path clip-path="url(#clip200)" d="M50.9921 1201.69 L80.6679 1201.69 L80.6679 1205.63 L50.9921 1205.63 L50.9921 1201.69 Z" fill="#000000" fill-rule="nonzero" fill-opacity="1" /><path clip-path="url(#clip200)" d="M91.5706 1214.59 L99.2095 1214.59 L99.2095 1188.22 L90.8993 1189.89 L90.8993 1185.63 L99.1632 1183.96 L103.839 1183.96 L103.839 1214.59 L111.478 1214.59 L111.478 1218.52 L91.5706 1218.52 L91.5706 1214.59 Z" fill="#000000" fill-rule="nonzero" fill-opacity="1" /><path clip-path="url(#clip200)" d="M120.922 1212.64 L125.807 1212.64 L125.807 1218.52 L120.922 1218.52 L120.922 1212.64 Z" fill="#000000" fill-rule="nonzero" fill-opacity="1" /><path clip-path="url(#clip200)" d="M145.992 1187.04 Q142.381 1187.04 140.552 1190.61 Q138.746 1194.15 138.746 1201.28 Q138.746 1208.38 140.552 1211.95 Q142.381 1215.49 145.992 1215.49 Q149.626 1215.49 151.431 1211.95 Q153.26 1208.38 153.26 1201.28 Q153.26 1194.15 151.431 1190.61 Q149.626 1187.04 145.992 1187.04 M145.992 1183.34 Q151.802 1183.34 154.857 1187.94 Q157.936 1192.53 157.936 1201.28 Q157.936 1210 154.857 1214.61 Q151.802 1219.19 145.992 1219.19 Q140.181 1219.19 137.103 1214.61 Q134.047 1210 134.047 1201.28 Q134.047 1192.53 137.103 1187.94 Q140.181 1183.34 145.992 1183.34 Z" fill="#000000" fill-rule="nonzero" fill-opacity="1" /><path clip-path="url(#clip200)" d="M51.9875 892.668 L81.6633 892.668 L81.6633 896.603 L51.9875 896.603 L51.9875 892.668 Z" fill="#000000" fill-rule="nonzero" fill-opacity="1" /><path clip-path="url(#clip200)" d="M101.756 878.015 Q98.1447 878.015 96.316 881.58 Q94.5104 885.122 94.5104 892.252 Q94.5104 899.358 96.316 902.923 Q98.1447 906.464 101.756 906.464 Q105.39 906.464 107.196 902.923 Q109.024 899.358 109.024 892.252 Q109.024 885.122 107.196 881.58 Q105.39 878.015 101.756 878.015 M101.756 874.312 Q107.566 874.312 110.621 878.918 Q113.7 883.502 113.7 892.252 Q113.7 900.978 110.621 905.585 Q107.566 910.168 101.756 910.168 Q95.9456 910.168 92.8669 905.585 Q89.8114 900.978 89.8114 892.252 Q89.8114 883.502 92.8669 878.918 Q95.9456 874.312 101.756 874.312 Z" fill="#000000" fill-rule="nonzero" fill-opacity="1" /><path clip-path="url(#clip200)" d="M121.918 903.617 L126.802 903.617 L126.802 909.497 L121.918 909.497 L121.918 903.617 Z" fill="#000000" fill-rule="nonzero" fill-opacity="1" /><path clip-path="url(#clip200)" d="M137.033 874.937 L155.39 874.937 L155.39 878.872 L141.316 878.872 L141.316 887.344 Q142.334 886.997 143.353 886.835 Q144.371 886.65 145.39 886.65 Q151.177 886.65 154.556 889.821 Q157.936 892.992 157.936 898.409 Q157.936 903.988 154.464 907.089 Q150.992 910.168 144.672 910.168 Q142.496 910.168 140.228 909.798 Q137.982 909.427 135.575 908.687 L135.575 903.988 Q137.658 905.122 139.881 905.677 Q142.103 906.233 144.58 906.233 Q148.584 906.233 150.922 904.126 Q153.26 902.02 153.26 898.409 Q153.26 894.798 150.922 892.691 Q148.584 890.585 144.58 890.585 Q142.705 890.585 140.83 891.002 Q138.978 891.418 137.033 892.298 L137.033 874.937 Z" fill="#000000" fill-rule="nonzero" fill-opacity="1" /><path clip-path="url(#clip200)" d="M100.76 568.99 Q97.1493 568.99 95.3206 572.555 Q93.515 576.096 93.515 583.226 Q93.515 590.332 95.3206 593.897 Q97.1493 597.439 100.76 597.439 Q104.395 597.439 106.2 593.897 Q108.029 590.332 108.029 583.226 Q108.029 576.096 106.2 572.555 Q104.395 568.99 100.76 568.99 M100.76 565.286 Q106.571 565.286 109.626 569.893 Q112.705 574.476 112.705 583.226 Q112.705 591.953 109.626 596.559 Q106.571 601.143 100.76 601.143 Q94.9502 601.143 91.8715 596.559 Q88.816 591.953 88.816 583.226 Q88.816 574.476 91.8715 569.893 Q94.9502 565.286 100.76 565.286 Z" fill="#000000" fill-rule="nonzero" fill-opacity="1" /><path clip-path="url(#clip200)" d="M120.922 594.592 L125.807 594.592 L125.807 600.471 L120.922 600.471 L120.922 594.592 Z" fill="#000000" fill-rule="nonzero" fill-opacity="1" /><path clip-path="url(#clip200)" d="M145.992 568.99 Q142.381 568.99 140.552 572.555 Q138.746 576.096 138.746 583.226 Q138.746 590.332 140.552 593.897 Q142.381 597.439 145.992 597.439 Q149.626 597.439 151.431 593.897 Q153.26 590.332 153.26 583.226 Q153.26 576.096 151.431 572.555 Q149.626 568.99 145.992 568.99 M145.992 565.286 Q151.802 565.286 154.857 569.893 Q157.936 574.476 157.936 583.226 Q157.936 591.953 154.857 596.559 Q151.802 601.143 145.992 601.143 Q140.181 601.143 137.103 596.559 Q134.047 591.953 134.047 583.226 Q134.047 574.476 137.103 569.893 Q140.181 565.286 145.992 565.286 Z" fill="#000000" fill-rule="nonzero" fill-opacity="1" /><path clip-path="url(#clip200)" d="M101.756 259.965 Q98.1447 259.965 96.316 263.529 Q94.5104 267.071 94.5104 274.201 Q94.5104 281.307 96.316 284.872 Q98.1447 288.413 101.756 288.413 Q105.39 288.413 107.196 284.872 Q109.024 281.307 109.024 274.201 Q109.024 267.071 107.196 263.529 Q105.39 259.965 101.756 259.965 M101.756 256.261 Q107.566 256.261 110.621 260.867 Q113.7 265.451 113.7 274.201 Q113.7 282.927 110.621 287.534 Q107.566 292.117 101.756 292.117 Q95.9456 292.117 92.8669 287.534 Q89.8114 282.927 89.8114 274.201 Q89.8114 265.451 92.8669 260.867 Q95.9456 256.261 101.756 256.261 Z" fill="#000000" fill-rule="nonzero" fill-opacity="1" /><path clip-path="url(#clip200)" d="M121.918 285.566 L126.802 285.566 L126.802 291.446 L121.918 291.446 L121.918 285.566 Z" fill="#000000" fill-rule="nonzero" fill-opacity="1" /><path clip-path="url(#clip200)" d="M137.033 256.886 L155.39 256.886 L155.39 260.821 L141.316 260.821 L141.316 269.293 Q142.334 268.946 143.353 268.784 Q144.371 268.599 145.39 268.599 Q151.177 268.599 154.556 271.77 Q157.936 274.941 157.936 280.358 Q157.936 285.937 154.464 289.038 Q150.992 292.117 144.672 292.117 Q142.496 292.117 140.228 291.747 Q137.982 291.376 135.575 290.636 L135.575 285.937 Q137.658 287.071 139.881 287.626 Q142.103 288.182 144.58 288.182 Q148.584 288.182 150.922 286.076 Q153.26 283.969 153.26 280.358 Q153.26 276.747 150.922 274.64 Q148.584 272.534 144.58 272.534 Q142.705 272.534 140.83 272.951 Q138.978 273.367 137.033 274.247 L137.033 256.886 Z" fill="#000000" fill-rule="nonzero" fill-opacity="1" /><polyline clip-path="url(#clip202)" style="stroke:#009af9; stroke-linecap:round; stroke-linejoin:round; stroke-width:4; stroke-opacity:1; fill:none" points="193.936,86.1857 196.097,92.9844 198.258,99.7155 200.419,106.379 202.58,112.977 204.741,119.509 206.902,125.976 209.063,132.378 211.224,138.717 213.385,144.993 215.546,151.206 217.707,157.357 219.868,163.447 222.029,169.476 224.19,175.445 226.351,181.355 228.512,187.205 230.673,192.998 232.834,198.733 234.995,204.411 237.156,210.032 239.317,215.597 241.478,221.107 243.639,226.562 245.8,231.962 247.961,237.309 250.122,242.603 252.282,247.843 254.443,253.032 256.604,258.169 258.765,263.255 260.926,268.29 263.087,273.275 265.248,278.21 267.409,283.097 269.57,287.934 271.731,292.724 273.892,297.465 276.053,302.16 278.214,306.807 280.375,311.409 282.536,315.964 284.697,320.474 286.858,324.939 289.019,329.36 291.18,333.737 293.341,338.07 295.502,342.36 297.663,346.607 299.824,350.812 301.985,354.975 304.146,359.096 306.307,363.177 308.468,367.217 310.629,371.216 312.79,375.176 314.951,379.097 317.112,382.978 319.273,386.821 321.434,390.625 323.595,394.391 325.756,398.12 327.917,401.812 330.078,405.468 332.239,409.086 334.4,412.669 336.561,416.216 338.722,419.728 340.883,423.205 343.044,426.647 345.205,430.054 347.366,433.428 349.527,436.768 351.688,440.075 353.849,443.349 356.01,446.591 358.171,449.8 360.332,452.977 362.493,456.122 364.653,459.236 366.814,462.32 368.975,465.372 371.136,468.394 373.297,471.386 375.458,474.348 377.619,477.28 379.78,480.184 381.941,483.058 384.102,485.904 386.263,488.721 388.424,491.511 390.585,494.272 392.746,497.006 394.907,499.713 397.068,502.393 399.229,505.047 401.39,507.673 403.551,510.274 405.712,512.849 407.873,515.398 410.034,517.922 412.195,520.421 414.356,522.894 416.517,525.344 418.678,527.768 420.839,530.169 423,532.546 425.161,534.899 427.322,537.228 429.483,539.535 431.644,541.818 433.805,544.079 435.966,546.317 438.127,548.533 440.288,550.727 442.449,552.899 444.61,555.049 446.771,557.178 448.932,559.285 451.093,561.372 453.254,563.438 455.415,565.483 457.576,567.508 459.737,569.513 461.898,571.497 464.059,573.462 466.22,575.408 468.381,577.334 470.542,579.24 472.703,581.128 474.864,582.997 477.024,584.847 479.185,586.679 481.346,588.493 483.507,590.289 485.668,592.067 487.829,593.827 489.99,595.569 492.151,597.294 494.312,599.002 496.473,600.693 498.634,602.368 500.795,604.025 502.956,605.666 505.117,607.291 507.278,608.899 509.439,610.492 511.6,612.069 513.761,613.63 515.922,615.175 518.083,616.705 520.244,618.22 522.405,619.72 524.566,621.205 526.727,622.675 528.888,624.13 531.049,625.571 533.21,626.997 535.371,628.409 537.532,629.808 539.693,631.192 541.854,632.562 544.015,633.919 546.176,635.262 548.337,636.592 550.498,637.909 552.659,639.213 554.82,640.503 556.981,641.781 559.142,643.046 561.303,644.298 563.464,645.538 565.625,646.765 567.786,647.981 569.947,649.184 572.108,650.375 574.269,651.554 576.43,652.722 578.591,653.878 580.752,655.022 582.913,656.155 585.074,657.277 587.235,658.387 589.396,659.487 591.556,660.575 593.717,661.653 595.878,662.72 598.039,663.777 600.2,664.822 602.361,665.858 604.522,666.883 606.683,667.898 608.844,668.903 611.005,669.898 613.166,670.883 615.327,671.858 617.488,672.824 619.649,673.78 621.81,674.726 623.971,675.663 626.132,676.591 628.293,677.509 630.454,678.418 632.615,679.318 634.776,680.21 636.937,681.092 639.098,681.966 641.259,682.83 643.42,683.687 645.581,684.534 647.742,685.374 649.903,686.204 652.064,687.027 654.225,687.841 656.386,688.647 658.547,689.446 660.708,690.236 662.869,691.018 665.03,691.793 667.191,692.56 669.352,693.319 671.513,694.07 673.674,694.814 675.835,695.551 677.996,696.28 680.157,697.002 682.318,697.717 684.479,698.425 686.64,699.126 688.801,699.819 690.962,700.506 693.123,701.186 695.284,701.859 697.445,702.526 699.606,703.186 701.767,703.839 703.927,704.486 706.088,705.126 708.249,705.76 710.41,706.388 712.571,707.009 714.732,707.624 716.893,708.233 719.054,708.836 721.215,709.433 723.376,710.025 725.537,710.61 727.698,711.189 729.859,711.763 732.02,712.331 734.181,712.893 736.342,713.45 738.503,714.001 740.664,714.547 742.825,715.087 744.986,715.622 747.147,716.152 749.308,716.676 751.469,717.196 753.63,717.71 755.791,718.218 757.952,718.722 760.113,719.221 762.274,719.715 764.435,720.204 766.596,720.688 768.757,721.167 770.918,721.641 773.079,722.111 775.24,722.576 777.401,723.036 779.562,723.492 781.723,723.943 783.884,724.39 786.045,724.832 788.206,725.27 790.367,725.704 792.528,726.133 794.689,726.557 796.85,726.978 799.011,727.394 801.172,727.807 803.333,728.215 805.494,728.619 807.655,729.019 809.816,729.415 811.977,729.807 814.138,730.195 816.298,730.579 818.459,730.96 820.62,731.336 822.781,731.709 824.942,732.078 827.103,732.444 829.264,732.805 831.425,733.164 833.586,733.518 835.747,733.869 837.908,734.217 840.069,734.561 842.23,734.902 844.391,735.239 846.552,735.573 848.713,735.904 850.874,736.231 853.035,736.555 855.196,736.876 857.357,737.194 859.518,737.509 861.679,737.82 863.84,738.129 866.001,738.434 868.162,738.736 870.323,739.035 872.484,739.332 874.645,739.625 876.806,739.916 878.967,740.203 881.128,740.488 883.289,740.77 885.45,741.049 887.611,741.325 889.772,741.599 891.933,741.87 894.094,742.138 896.255,742.404 898.416,742.667 900.577,742.927 902.738,743.185 904.899,743.44 907.06,743.693 909.221,743.943 911.382,744.19 913.543,744.435 915.704,744.678 917.865,744.918 920.026,745.156 922.187,745.392 924.348,745.625 926.509,745.856 928.669,746.084 930.83,746.31 932.991,746.534 935.152,746.756 937.313,746.976 939.474,747.193 941.635,747.408 943.796,747.621 945.957,747.832 948.118,748.04 950.279,748.247 952.44,748.452 954.601,748.654 956.762,748.855 958.923,749.053 961.084,749.249 963.245,749.444 965.406,749.637 967.567,749.827 969.728,750.016 971.889,750.203 974.05,750.388 976.211,750.571 978.372,750.752 980.533,750.932 982.694,751.109 984.855,751.285 987.016,751.459 989.177,751.632 991.338,751.802 993.499,751.971 995.66,752.139 997.821,752.304 999.982,752.468 1002.14,752.631 1004.3,752.791 1006.46,752.951 1008.63,753.108 1010.79,753.264 1012.95,753.419 1015.11,753.572 1017.27,753.723 1019.43,753.873 1021.59,754.021 1023.75,754.168 1025.91,754.314 1028.07,754.458 1030.24,754.6 1032.4,754.742 1034.56,754.881 1036.72,755.02 1038.88,755.157 1041.04,755.293 1043.2,755.427 1045.36,755.56 1047.52,755.692 1049.68,755.823 1051.85,755.952 1054.01,756.08 1056.17,756.206 1058.33,756.332 1060.49,756.456 1062.65,756.579 1064.81,756.701 1066.97,756.821 1069.13,756.941 1071.29,757.059 1073.46,757.176 1075.62,757.291 1077.78,757.406 1079.94,757.52 1082.1,757.632 1084.26,757.743 1086.42,757.853 1088.58,757.962 1090.74,758.07 1092.9,758.177 1095.07,758.283 1097.23,758.388 1099.39,758.491 1101.55,758.594 1103.71,758.696 1105.87,758.796 1108.03,758.896 1110.19,758.995 1112.35,759.092 1114.51,759.189 1116.67,759.284 1118.84,759.379 1121,759.473 1123.16,759.566 1125.32,759.657 1127.48,759.748 1129.64,759.838 1131.8,759.928 1133.96,760.016 1136.12,760.103 1138.28,760.189 1140.45,760.275 1142.61,760.36 1144.77,760.444 1146.93,760.527 1149.09,760.609 1151.25,760.69 1153.41,760.771 1155.57,760.85 1157.73,760.929 1159.89,761.008 1162.06,761.085 1164.22,761.161 1166.38,761.237 1168.54,761.312 1170.7,761.387 1172.86,761.46 1175.02,761.533 1177.18,761.605 1179.34,761.676 1181.5,761.747 1183.67,761.817 1185.83,761.886 1187.99,761.955 1190.15,762.023 1192.31,762.09 1194.47,762.156 1196.63,762.222 1198.79,762.287 1200.95,762.352 1203.11,762.416 1205.28,762.479 1207.44,762.542 1209.6,762.604 1211.76,762.665 1213.92,762.726 1216.08,762.787 1218.24,762.846 1220.4,762.905 1222.56,762.964 1224.72,763.022 1226.88,763.079 1229.05,763.136 1231.21,763.192 1233.37,763.248 1235.53,763.303 1237.69,763.358 1239.85,763.412 1242.01,763.465 1244.17,763.518 1246.33,763.571 1248.49,763.623 1250.66,763.674 1252.82,763.725 1254.98,763.776 1257.14,763.826 1259.3,763.875 1261.46,763.924 1263.62,763.973 1265.78,764.021 1267.94,764.069 1270.1,764.116 1272.27,764.162 1274.43,764.209 1276.59,764.254 1278.75,764.3 1280.91,764.344 1283.07,764.389 1285.23,764.433 1287.39,764.476 1289.55,764.519 1291.71,764.562 1293.88,764.604 1296.04,764.646 1298.2,764.687 1300.36,764.728 1302.52,764.769 1304.68,764.809 1306.84,764.849 1309,764.888 1311.16,764.927 1313.32,764.965 1315.49,765.004 1317.65,765.041 1319.81,765.079 1321.97,765.116 1324.13,765.152 1326.29,765.188 1328.45,765.224 1330.61,765.26 1332.77,765.295 1334.93,765.33 1337.09,765.364 1339.26,765.398 1341.42,765.432 1343.58,765.465 1345.74,765.498 1347.9,765.531 1350.06,765.564 1352.22,765.596 1354.38,765.627 1356.54,765.659 1358.7,765.69 1360.87,765.721 1363.03,765.751 1365.19,765.781 1367.35,765.811 1369.51,765.841 1371.67,765.87 1373.83,765.899 1375.99,765.927 1378.15,765.956 1380.31,765.984 1382.48,766.012 1384.64,766.039 1386.8,766.066 1388.96,766.093 1391.12,766.12 1393.28,766.146 1395.44,766.173 1397.6,766.198 1399.76,766.224 1401.92,766.249 1404.09,766.275 1406.25,766.299 1408.41,766.324 1410.57,766.348 1412.73,766.373 1414.89,766.396 1417.05,766.42 1419.21,766.444 1421.37,766.467 1423.53,766.49 1425.7,766.512 1427.86,766.535 1430.02,766.557 1432.18,766.579 1434.34,766.601 1436.5,766.623 1438.66,766.644 1440.82,766.665 1442.98,766.687 1445.14,766.707 1447.3,766.728 1449.47,766.748 1451.63,766.769 1453.79,766.789 1455.95,766.809 1458.11,766.828 1460.27,766.848 1462.43,766.867 1464.59,766.886 1466.75,766.905 1468.91,766.924 1471.08,766.942 1473.24,766.961 1475.4,766.979 1477.56,766.997 1479.72,767.015 1481.88,767.033 1484.04,767.05 1486.2,767.068 1488.36,767.085 1490.52,767.102 1492.69,767.119 1494.85,767.135 1497.01,767.152 1499.17,767.168 1501.33,767.185 1503.49,767.201 1505.65,767.217 1507.81,767.232 1509.97,767.248 1512.13,767.263 1514.3,767.279 1516.46,767.294 1518.62,767.309 1520.78,767.323 1522.94,767.338 1525.1,767.353 1527.26,767.367 1529.42,767.381 1531.58,767.395 1533.74,767.409 1535.91,767.423 1538.07,767.437 1540.23,767.45 1542.39,767.464 1544.55,767.477 1546.71,767.49 1548.87,767.503 1551.03,767.516 1553.19,767.529 1555.35,767.541 1557.51,767.554 1559.68,767.566 1561.84,767.578 1564,767.59 1566.16,767.602 1568.32,767.614 1570.48,767.626 1572.64,767.637 1574.8,767.649 1576.96,767.66 1579.12,767.671 1581.29,767.683 1583.45,767.694 1585.61,767.704 1587.77,767.715 1589.93,767.726 1592.09,767.736 1594.25,767.747 1596.41,767.757 1598.57,767.767 1600.73,767.777 1602.9,767.787 1605.06,767.797 1607.22,767.807 1609.38,767.817 1611.54,767.826 1613.7,767.836 1615.86,767.845 1618.02,767.855 1620.18,767.864 1622.34,767.873 1624.51,767.882 1626.67,767.891 1628.83,767.9 1630.99,767.908 1633.15,767.917 1635.31,767.926 1637.47,767.934 1639.63,767.942 1641.79,767.951 1643.95,767.959 1646.12,767.967 1648.28,767.975 1650.44,767.983 1652.6,767.991 1654.76,767.999 1656.92,768.007 1659.08,768.014 1661.24,768.022 1663.4,768.029 1665.56,768.037 1667.72,768.044 1669.89,768.051 1672.05,768.058 1674.21,768.066 1676.37,768.073 1678.53,768.08 1680.69,768.086 1682.85,768.093 1685.01,768.1 1687.17,768.107 1689.33,768.114 1691.5,768.12 1693.66,768.127 1695.82,768.133 1697.98,768.14 1700.14,768.146 1702.3,768.152 1704.46,768.158 1706.62,768.165 1708.78,768.171 1710.94,768.177 1713.11,768.183 1715.27,768.189 1717.43,768.195 1719.59,768.201 1721.75,768.206 1723.91,768.212 1726.07,768.218 1728.23,768.223 1730.39,768.229 1732.55,768.235 1734.72,768.24 1736.88,768.246 1739.04,768.251 1741.2,768.256 1743.36,768.262 1745.52,768.267 1747.68,768.272 1749.84,768.277 1752,768.282 1754.16,768.287 1756.33,768.292 1758.49,768.297 1760.65,768.302 1762.81,768.307 1764.97,768.312 1767.13,768.317 1769.29,768.322 1771.45,768.326 1773.61,768.331 1775.77,768.336 1777.93,768.34 1780.1,768.345 1782.26,768.349 1784.42,768.353 1786.58,768.358 1788.74,768.362 1790.9,768.366 1793.06,768.371 1795.22,768.375 1797.38,768.379 1799.54,768.383 1801.71,768.387 1803.87,768.391 1806.03,768.395 1808.19,768.399 1810.35,768.403 1812.51,768.407 1814.67,768.411 1816.83,768.415 1818.99,768.419 1821.15,768.422 1823.32,768.426 1825.48,768.43 1827.64,768.433 1829.8,768.437 1831.96,768.44 1834.12,768.444 1836.28,768.447 1838.44,768.451 1840.6,768.454 1842.76,768.457 1844.93,768.461 1847.09,768.464 1849.25,768.467 1851.41,768.47 1853.57,768.474 1855.73,768.477 1857.89,768.48 1860.05,768.483 1862.21,768.486 1864.37,768.489 1866.54,768.492 1868.7,768.495 1870.86,768.498 1873.02,768.501 1875.18,768.503 1877.34,768.506 1879.5,768.509 1881.66,768.512 1883.82,768.514 1885.98,768.517 1888.15,768.52 1890.31,768.522 1892.47,768.525 1894.63,768.528 1896.79,768.53 1898.95,768.533 1901.11,768.535 1903.27,768.538 1905.43,768.54 1907.59,768.542 1909.75,768.545 1911.92,768.547 1914.08,768.55 1916.24,768.552 1918.4,768.554 1920.56,768.556 1922.72,768.559 1924.88,768.561 1927.04,768.563 1929.2,768.565 1931.36,768.567 1933.53,768.569 1935.69,768.571 1937.85,768.573 1940.01,768.575 1942.17,768.578 1944.33,768.58 1946.49,768.581 1948.65,768.583 1950.81,768.585 1952.97,768.587 1955.14,768.589 1957.3,768.591 1959.46,768.593 1961.62,768.595 1963.78,768.597 1965.94,768.598 1968.1,768.6 1970.26,768.602 1972.42,768.604 1974.58,768.605 1976.75,768.607 1978.91,768.609 1981.07,768.61 1983.23,768.612 1985.39,768.614 1987.55,768.615 1989.71,768.617 1991.87,768.619 1994.03,768.62 1996.19,768.622 1998.36,768.623 2000.52,768.625 2002.68,768.626 2004.84,768.628 2007,768.629 2009.16,768.631 2011.32,768.632 2013.48,768.634 2015.64,768.635 2017.8,768.637 2019.96,768.638 2022.13,768.64 2024.29,768.641 2026.45,768.642 2028.61,768.644 2030.77,768.645 2032.93,768.647 2035.09,768.648 2037.25,768.649 2039.41,768.651 2041.57,768.652 2043.74,768.653 2045.9,768.655 2048.06,768.656 2050.22,768.657 2052.38,768.659 2054.54,768.66 2056.7,768.661 2058.86,768.662 2061.02,768.664 2063.18,768.665 2065.35,768.666 2067.51,768.667 2069.67,768.668 2071.83,768.67 2073.99,768.671 2076.15,768.672 2078.31,768.673 2080.47,768.674 2082.63,768.675 2084.79,768.676 2086.96,768.677 2089.12,768.679 2091.28,768.68 2093.44,768.681 2095.6,768.682 2097.76,768.683 2099.92,768.684 2102.08,768.685 2104.24,768.686 2106.4,768.687 2108.57,768.688 2110.73,768.689 2112.89,768.69 2115.05,768.691 2117.21,768.692 2119.37,768.693 2121.53,768.694 2123.69,768.695 2125.85,768.696 2128.01,768.696 2130.17,768.697 2132.34,768.698 2134.5,768.699 2136.66,768.7 2138.82,768.701 2140.98,768.702 2143.14,768.703 2145.3,768.703 2147.46,768.704 2149.62,768.705 2151.78,768.706 2153.95,768.707 2156.11,768.707 2158.27,768.708 2160.43,768.709 2162.59,768.71 2164.75,768.711 2166.91,768.711 2169.07,768.712 2171.23,768.713 2173.39,768.713 2175.56,768.714 2177.72,768.715 2179.88,768.716 2182.04,768.716 2184.2,768.717 2186.36,768.718 2188.52,768.718 2190.68,768.719 2192.84,768.72 2195,768.72 2197.17,768.721 2199.33,768.722 2201.49,768.722 2203.65,768.723 2205.81,768.723 2207.97,768.724 2210.13,768.725 2212.29,768.725 2214.45,768.726 2216.61,768.726 2218.78,768.727 2220.94,768.728 2223.1,768.728 2225.26,768.729 2227.42,768.729 2229.58,768.73 2231.74,768.73 2233.9,768.731 2236.06,768.731 2238.22,768.732 2240.38,768.732 2242.55,768.733 2244.71,768.733 2246.87,768.734 2249.03,768.734 2251.19,768.735 2253.35,768.735 2255.51,768.736 2257.67,768.736 2259.83,768.737 2261.99,768.737 2264.16,768.738 2266.32,768.738 2268.48,768.739 2270.64,768.739 2272.8,768.74 2274.96,768.74 2277.12,768.74 2279.28,768.741 2281.44,768.741 2283.6,768.742 2285.77,768.742 2287.93,768.742 2290.09,768.743 2292.25,768.743 2294.41,768.744 2296.57,768.744 2298.73,768.744 2300.89,768.745 2303.05,768.745 2305.21,768.746 2307.38,768.746 2309.54,768.746 2311.7,768.747 2313.86,768.747 2316.02,768.747 2318.18,768.748 2320.34,768.748 2322.5,768.748 2324.66,768.749 2326.82,768.749 2328.99,768.75 2331.15,768.75 2333.31,768.75 2335.47,768.751 2337.63,768.751 2339.79,768.751 2341.95,768.752 2344.11,768.752 2346.27,768.752 2348.43,768.752 2350.59,768.753 2352.76,768.753 "/>
<polyline clip-path="url(#clip202)" style="stroke:#e26f46; stroke-linecap:round; stroke-linejoin:round; stroke-width:4; stroke-opacity:1; fill:none" points="193.936,1384.24 196.097,1379.46 198.258,1374.73 200.419,1370.03 202.58,1365.37 204.741,1360.75 206.902,1356.17 209.063,1351.63 211.224,1347.12 213.385,1342.65 215.546,1338.22 217.707,1333.83 219.868,1329.47 222.029,1325.14 224.19,1320.85 226.351,1316.6 228.512,1312.38 230.673,1308.2 232.834,1304.05 234.995,1299.93 237.156,1295.85 239.317,1291.8 241.478,1287.79 243.639,1283.81 245.8,1279.86 247.961,1275.94 250.122,1272.05 252.282,1268.2 254.443,1264.38 256.604,1260.59 258.765,1256.83 260.926,1253.1 263.087,1249.4 265.248,1245.73 267.409,1242.09 269.57,1238.48 271.731,1234.9 273.892,1231.35 276.053,1227.83 278.214,1224.33 280.375,1220.87 282.536,1217.43 284.697,1214.02 286.858,1210.64 289.019,1207.28 291.18,1203.96 293.341,1200.66 295.502,1197.38 297.663,1194.14 299.824,1190.91 301.985,1187.72 304.146,1184.55 306.307,1181.41 308.468,1178.29 310.629,1175.2 312.79,1172.13 314.951,1169.08 317.112,1166.06 319.273,1163.07 321.434,1160.1 323.595,1157.15 325.756,1154.23 327.917,1151.33 330.078,1148.45 332.239,1145.6 334.4,1142.77 336.561,1139.96 338.722,1137.17 340.883,1134.41 343.044,1131.67 345.205,1128.95 347.366,1126.25 349.527,1123.58 351.688,1120.92 353.849,1118.29 356.01,1115.68 358.171,1113.08 360.332,1110.51 362.493,1107.96 364.653,1105.43 366.814,1102.92 368.975,1100.43 371.136,1097.96 373.297,1095.51 375.458,1093.08 377.619,1090.67 379.78,1088.28 381.941,1085.9 384.102,1083.55 386.263,1081.21 388.424,1078.89 390.585,1076.59 392.746,1074.31 394.907,1072.05 397.068,1069.8 399.229,1067.57 401.39,1065.36 403.551,1063.17 405.712,1061 407.873,1058.84 410.034,1056.7 412.195,1054.57 414.356,1052.46 416.517,1050.37 418.678,1048.3 420.839,1046.24 423,1044.2 425.161,1042.17 427.322,1040.16 429.483,1038.16 431.644,1036.19 433.805,1034.22 435.966,1032.27 438.127,1030.34 440.288,1028.42 442.449,1026.52 444.61,1024.63 446.771,1022.76 448.932,1020.9 451.093,1019.06 453.254,1017.23 455.415,1015.41 457.576,1013.61 459.737,1011.82 461.898,1010.05 464.059,1008.29 466.22,1006.54 468.381,1004.81 470.542,1003.09 472.703,1001.39 474.864,999.694 477.024,998.015 479.185,996.348 481.346,994.695 483.507,993.054 485.668,991.426 487.829,989.811 489.99,988.208 492.151,986.618 494.312,985.04 496.473,983.474 498.634,981.92 500.795,980.378 502.956,978.848 505.117,977.329 507.278,975.823 509.439,974.328 511.6,972.844 513.761,971.372 515.922,969.911 518.083,968.462 520.244,967.023 522.405,965.596 524.566,964.179 526.727,962.773 528.888,961.378 531.049,959.994 533.21,958.62 535.371,957.257 537.532,955.905 539.693,954.562 541.854,953.23 544.015,951.908 546.176,950.596 548.337,949.294 550.498,948.002 552.659,946.72 554.82,945.448 556.981,944.185 559.142,942.932 561.303,941.689 563.464,940.455 565.625,939.23 567.786,938.015 569.947,936.808 572.108,935.611 574.269,934.423 576.43,933.244 578.591,932.074 580.752,930.913 582.913,929.761 585.074,928.617 587.235,927.482 589.396,926.355 591.556,925.237 593.717,924.128 595.878,923.027 598.039,921.934 600.2,920.849 602.361,919.772 604.522,918.704 606.683,917.644 608.844,916.591 611.005,915.546 613.166,914.51 615.327,913.481 617.488,912.46 619.649,911.446 621.81,910.44 623.971,909.441 626.132,908.45 628.293,907.467 630.454,906.491 632.615,905.522 634.776,904.56 636.937,903.606 639.098,902.658 641.259,901.718 643.42,900.785 645.581,899.858 647.742,898.939 649.903,898.026 652.064,897.121 654.225,896.221 656.386,895.329 658.547,894.443 660.708,893.564 662.869,892.692 665.03,891.826 667.191,890.966 669.352,890.113 671.513,889.266 673.674,888.425 675.835,887.591 677.996,886.762 680.157,885.94 682.318,885.124 684.479,884.314 686.64,883.51 688.801,882.712 690.962,881.92 693.123,881.133 695.284,880.352 697.445,879.578 699.606,878.808 701.767,878.045 703.927,877.287 706.088,876.535 708.249,875.788 710.41,875.047 712.571,874.311 714.732,873.58 716.893,872.855 719.054,872.135 721.215,871.421 723.376,870.711 725.537,870.007 727.698,869.308 729.859,868.614 732.02,867.925 734.181,867.242 736.342,866.563 738.503,865.889 740.664,865.22 742.825,864.556 744.986,863.897 747.147,863.242 749.308,862.592 751.469,861.947 753.63,861.307 755.791,860.671 757.952,860.04 760.113,859.414 762.274,858.792 764.435,858.175 766.596,857.562 768.757,856.953 770.918,856.349 773.079,855.75 775.24,855.154 777.401,854.563 779.562,853.977 781.723,853.394 783.884,852.816 786.045,852.242 788.206,851.672 790.367,851.106 792.528,850.544 794.689,849.987 796.85,849.433 799.011,848.883 801.172,848.338 803.333,847.796 805.494,847.258 807.655,846.724 809.816,846.194 811.977,845.667 814.138,845.145 816.298,844.626 818.459,844.111 820.62,843.6 822.781,843.092 824.942,842.588 827.103,842.087 829.264,841.59 831.425,841.097 833.586,840.607 835.747,840.121 837.908,839.638 840.069,839.159 842.23,838.683 844.391,838.21 846.552,837.741 848.713,837.275 850.874,836.813 853.035,836.353 855.196,835.897 857.357,835.444 859.518,834.995 861.679,834.549 863.84,834.105 866.001,833.665 868.162,833.228 870.323,832.794 872.484,832.364 874.645,831.936 876.806,831.511 878.967,831.089 881.128,830.671 883.289,830.255 885.45,829.842 887.611,829.432 889.772,829.025 891.933,828.621 894.094,828.219 896.255,827.821 898.416,827.425 900.577,827.032 902.738,826.642 904.899,826.255 907.06,825.87 909.221,825.488 911.382,825.109 913.543,824.732 915.704,824.358 917.865,823.987 920.026,823.618 922.187,823.252 924.348,822.888 926.509,822.527 928.669,822.169 930.83,821.813 932.991,821.459 935.152,821.109 937.313,820.76 939.474,820.414 941.635,820.07 943.796,819.729 945.957,819.39 948.118,819.054 950.279,818.72 952.44,818.388 954.601,818.058 956.762,817.731 958.923,817.406 961.084,817.084 963.245,816.763 965.406,816.445 967.567,816.129 969.728,815.815 971.889,815.504 974.05,815.195 976.211,814.887 978.372,814.582 980.533,814.279 982.694,813.978 984.855,813.68 987.016,813.383 989.177,813.088 991.338,812.796 993.499,812.505 995.66,812.217 997.821,811.93 999.982,811.645 1002.14,811.363 1004.3,811.082 1006.46,810.803 1008.63,810.527 1010.79,810.252 1012.95,809.979 1015.11,809.708 1017.27,809.438 1019.43,809.171 1021.59,808.905 1023.75,808.641 1025.91,808.38 1028.07,808.119 1030.24,807.861 1032.4,807.604 1034.56,807.35 1036.72,807.096 1038.88,806.845 1041.04,806.595 1043.2,806.347 1045.36,806.101 1047.52,805.857 1049.68,805.614 1051.85,805.372 1054.01,805.133 1056.17,804.895 1058.33,804.658 1060.49,804.424 1062.65,804.19 1064.81,803.959 1066.97,803.729 1069.13,803.5 1071.29,803.273 1073.46,803.048 1075.62,802.824 1077.78,802.602 1079.94,802.381 1082.1,802.162 1084.26,801.944 1086.42,801.728 1088.58,801.513 1090.74,801.3 1092.9,801.088 1095.07,800.878 1097.23,800.669 1099.39,800.461 1101.55,800.255 1103.71,800.05 1105.87,799.847 1108.03,799.645 1110.19,799.444 1112.35,799.245 1114.51,799.047 1116.67,798.85 1118.84,798.655 1121,798.461 1123.16,798.269 1125.32,798.077 1127.48,797.887 1129.64,797.699 1131.8,797.511 1133.96,797.325 1136.12,797.14 1138.28,796.957 1140.45,796.774 1142.61,796.593 1144.77,796.413 1146.93,796.234 1149.09,796.057 1151.25,795.881 1153.41,795.705 1155.57,795.531 1157.73,795.359 1159.89,795.187 1162.06,795.017 1164.22,794.847 1166.38,794.679 1168.54,794.512 1170.7,794.346 1172.86,794.181 1175.02,794.018 1177.18,793.855 1179.34,793.694 1181.5,793.533 1183.67,793.374 1185.83,793.216 1187.99,793.058 1190.15,792.902 1192.31,792.747 1194.47,792.593 1196.63,792.44 1198.79,792.288 1200.95,792.137 1203.11,791.987 1205.28,791.838 1207.44,791.69 1209.6,791.543 1211.76,791.396 1213.92,791.251 1216.08,791.107 1218.24,790.964 1220.4,790.822 1222.56,790.68 1224.72,790.54 1226.88,790.401 1229.05,790.262 1231.21,790.124 1233.37,789.988 1235.53,789.852 1237.69,789.717 1239.85,789.583 1242.01,789.45 1244.17,789.318 1246.33,789.186 1248.49,789.056 1250.66,788.926 1252.82,788.797 1254.98,788.669 1257.14,788.542 1259.3,788.416 1261.46,788.29 1263.62,788.166 1265.78,788.042 1267.94,787.919 1270.1,787.797 1272.27,787.675 1274.43,787.555 1276.59,787.435 1278.75,787.316 1280.91,787.198 1283.07,787.08 1285.23,786.964 1287.39,786.848 1289.55,786.733 1291.71,786.618 1293.88,786.505 1296.04,786.392 1298.2,786.28 1300.36,786.168 1302.52,786.058 1304.68,785.948 1306.84,785.839 1309,785.73 1311.16,785.622 1313.32,785.515 1315.49,785.409 1317.65,785.303 1319.81,785.198 1321.97,785.094 1324.13,784.991 1326.29,784.888 1328.45,784.786 1330.61,784.684 1332.77,784.583 1334.93,784.483 1337.09,784.384 1339.26,784.285 1341.42,784.186 1343.58,784.089 1345.74,783.992 1347.9,783.896 1350.06,783.8 1352.22,783.705 1354.38,783.611 1356.54,783.517 1358.7,783.424 1360.87,783.331 1363.03,783.239 1365.19,783.148 1367.35,783.057 1369.51,782.967 1371.67,782.877 1373.83,782.788 1375.99,782.7 1378.15,782.612 1380.31,782.525 1382.48,782.438 1384.64,782.352 1386.8,782.266 1388.96,782.181 1391.12,782.097 1393.28,782.013 1395.44,781.93 1397.6,781.847 1399.76,781.765 1401.92,781.683 1404.09,781.602 1406.25,781.521 1408.41,781.441 1410.57,781.361 1412.73,781.282 1414.89,781.204 1417.05,781.125 1419.21,781.048 1421.37,780.971 1423.53,780.894 1425.7,780.818 1427.86,780.742 1430.02,780.667 1432.18,780.593 1434.34,780.518 1436.5,780.445 1438.66,780.372 1440.82,780.299 1442.98,780.226 1445.14,780.155 1447.3,780.083 1449.47,780.012 1451.63,779.942 1453.79,779.872 1455.95,779.802 1458.11,779.733 1460.27,779.665 1462.43,779.596 1464.59,779.528 1466.75,779.461 1468.91,779.394 1471.08,779.328 1473.24,779.261 1475.4,779.196 1477.56,779.131 1479.72,779.066 1481.88,779.001 1484.04,778.937 1486.2,778.874 1488.36,778.81 1490.52,778.748 1492.69,778.685 1494.85,778.623 1497.01,778.562 1499.17,778.5 1501.33,778.439 1503.49,778.379 1505.65,778.319 1507.81,778.259 1509.97,778.2 1512.13,778.141 1514.3,778.083 1516.46,778.024 1518.62,777.967 1520.78,777.909 1522.94,777.852 1525.1,777.796 1527.26,777.739 1529.42,777.683 1531.58,777.628 1533.74,777.572 1535.91,777.518 1538.07,777.463 1540.23,777.409 1542.39,777.355 1544.55,777.302 1546.71,777.248 1548.87,777.196 1551.03,777.143 1553.19,777.091 1555.35,777.039 1557.51,776.988 1559.68,776.937 1561.84,776.886 1564,776.835 1566.16,776.785 1568.32,776.735 1570.48,776.686 1572.64,776.637 1574.8,776.588 1576.96,776.539 1579.12,776.491 1581.29,776.443 1583.45,776.396 1585.61,776.348 1587.77,776.301 1589.93,776.254 1592.09,776.208 1594.25,776.162 1596.41,776.116 1598.57,776.071 1600.73,776.025 1602.9,775.98 1605.06,775.936 1607.22,775.891 1609.38,775.847 1611.54,775.804 1613.7,775.76 1615.86,775.717 1618.02,775.674 1620.18,775.631 1622.34,775.589 1624.51,775.547 1626.67,775.505 1628.83,775.463 1630.99,775.422 1633.15,775.381 1635.31,775.34 1637.47,775.299 1639.63,775.259 1641.79,775.219 1643.95,775.179 1646.12,775.14 1648.28,775.1 1650.44,775.061 1652.6,775.022 1654.76,774.984 1656.92,774.946 1659.08,774.907 1661.24,774.87 1663.4,774.832 1665.56,774.795 1667.72,774.758 1669.89,774.721 1672.05,774.684 1674.21,774.648 1676.37,774.612 1678.53,774.576 1680.69,774.54 1682.85,774.504 1685.01,774.469 1687.17,774.434 1689.33,774.399 1691.5,774.364 1693.66,774.33 1695.82,774.296 1697.98,774.262 1700.14,774.228 1702.3,774.195 1704.46,774.161 1706.62,774.128 1708.78,774.095 1710.94,774.062 1713.11,774.03 1715.27,773.997 1717.43,773.965 1719.59,773.933 1721.75,773.902 1723.91,773.87 1726.07,773.839 1728.23,773.807 1730.39,773.776 1732.55,773.746 1734.72,773.715 1736.88,773.685 1739.04,773.654 1741.2,773.624 1743.36,773.595 1745.52,773.565 1747.68,773.535 1749.84,773.506 1752,773.477 1754.16,773.448 1756.33,773.419 1758.49,773.391 1760.65,773.362 1762.81,773.334 1764.97,773.306 1767.13,773.278 1769.29,773.25 1771.45,773.223 1773.61,773.195 1775.77,773.168 1777.93,773.141 1780.1,773.114 1782.26,773.088 1784.42,773.061 1786.58,773.035 1788.74,773.009 1790.9,772.983 1793.06,772.957 1795.22,772.931 1797.38,772.905 1799.54,772.88 1801.71,772.855 1803.87,772.83 1806.03,772.805 1808.19,772.78 1810.35,772.755 1812.51,772.731 1814.67,772.707 1816.83,772.683 1818.99,772.659 1821.15,772.635 1823.32,772.611 1825.48,772.588 1827.64,772.564 1829.8,772.541 1831.96,772.518 1834.12,772.495 1836.28,772.472 1838.44,772.449 1840.6,772.427 1842.76,772.405 1844.93,772.382 1847.09,772.36 1849.25,772.338 1851.41,772.317 1853.57,772.295 1855.73,772.273 1857.89,772.252 1860.05,772.231 1862.21,772.209 1864.37,772.189 1866.54,772.168 1868.7,772.147 1870.86,772.126 1873.02,772.106 1875.18,772.085 1877.34,772.065 1879.5,772.045 1881.66,772.025 1883.82,772.005 1885.98,771.986 1888.15,771.966 1890.31,771.947 1892.47,771.927 1894.63,771.908 1896.79,771.889 1898.95,771.87 1901.11,771.851 1903.27,771.832 1905.43,771.814 1907.59,771.795 1909.75,771.777 1911.92,771.759 1914.08,771.741 1916.24,771.723 1918.4,771.705 1920.56,771.687 1922.72,771.669 1924.88,771.651 1927.04,771.634 1929.2,771.617 1931.36,771.599 1933.53,771.582 1935.69,771.565 1937.85,771.548 1940.01,771.531 1942.17,771.515 1944.33,771.498 1946.49,771.482 1948.65,771.465 1950.81,771.449 1952.97,771.433 1955.14,771.417 1957.3,771.401 1959.46,771.385 1961.62,771.369 1963.78,771.353 1965.94,771.337 1968.1,771.322 1970.26,771.307 1972.42,771.291 1974.58,771.276 1976.75,771.261 1978.91,771.246 1981.07,771.231 1983.23,771.216 1985.39,771.201 1987.55,771.186 1989.71,771.172 1991.87,771.157 1994.03,771.143 1996.19,771.129 1998.36,771.114 2000.52,771.1 2002.68,771.086 2004.84,771.072 2007,771.058 2009.16,771.044 2011.32,771.031 2013.48,771.017 2015.64,771.003 2017.8,770.99 2019.96,770.977 2022.13,770.963 2024.29,770.95 2026.45,770.937 2028.61,770.924 2030.77,770.911 2032.93,770.898 2035.09,770.885 2037.25,770.872 2039.41,770.859 2041.57,770.847 2043.74,770.834 2045.9,770.822 2048.06,770.809 2050.22,770.797 2052.38,770.785 2054.54,770.772 2056.7,770.76 2058.86,770.748 2061.02,770.736 2063.18,770.724 2065.35,770.713 2067.51,770.701 2069.67,770.689 2071.83,770.678 2073.99,770.666 2076.15,770.655 2078.31,770.643 2080.47,770.632 2082.63,770.621 2084.79,770.609 2086.96,770.598 2089.12,770.587 2091.28,770.576 2093.44,770.565 2095.6,770.554 2097.76,770.544 2099.92,770.533 2102.08,770.522 2104.24,770.512 2106.4,770.501 2108.57,770.491 2110.73,770.48 2112.89,770.47 2115.05,770.46 2117.21,770.45 2119.37,770.439 2121.53,770.429 2123.69,770.419 2125.85,770.409 2128.01,770.4 2130.17,770.39 2132.34,770.38 2134.5,770.37 2136.66,770.361 2138.82,770.351 2140.98,770.341 2143.14,770.332 2145.3,770.323 2147.46,770.313 2149.62,770.304 2151.78,770.295 2153.95,770.286 2156.11,770.276 2158.27,770.267 2160.43,770.258 2162.59,770.249 2164.75,770.24 2166.91,770.232 2169.07,770.223 2171.23,770.214 2173.39,770.205 2175.56,770.197 2177.72,770.188 2179.88,770.18 2182.04,770.171 2184.2,770.163 2186.36,770.154 2188.52,770.146 2190.68,770.138 2192.84,770.13 2195,770.122 2197.17,770.113 2199.33,770.105 2201.49,770.097 2203.65,770.089 2205.81,770.082 2207.97,770.074 2210.13,770.066 2212.29,770.058 2214.45,770.05 2216.61,770.043 2218.78,770.035 2220.94,770.028 2223.1,770.02 2225.26,770.013 2227.42,770.005 2229.58,769.998 2231.74,769.99 2233.9,769.983 2236.06,769.976 2238.22,769.969 2240.38,769.962 2242.55,769.954 2244.71,769.947 2246.87,769.94 2249.03,769.933 2251.19,769.926 2253.35,769.919 2255.51,769.913 2257.67,769.906 2259.83,769.899 2261.99,769.892 2264.16,769.886 2266.32,769.879 2268.48,769.872 2270.64,769.866 2272.8,769.859 2274.96,769.853 2277.12,769.846 2279.28,769.84 2281.44,769.834 2283.6,769.827 2285.77,769.821 2287.93,769.815 2290.09,769.809 2292.25,769.802 2294.41,769.796 2296.57,769.79 2298.73,769.784 2300.89,769.778 2303.05,769.772 2305.21,769.766 2307.38,769.76 2309.54,769.754 2311.7,769.748 2313.86,769.743 2316.02,769.737 2318.18,769.731 2320.34,769.725 2322.5,769.72 2324.66,769.714 2326.82,769.708 2328.99,769.703 2331.15,769.697 2333.31,769.692 2335.47,769.686 2337.63,769.681 2339.79,769.675 2341.95,769.67 2344.11,769.665 2346.27,769.659 2348.43,769.654 2350.59,769.649 2352.76,769.644 "/>
<path clip-path="url(#clip200)" d="M1805.52 248.629 L2280.8 248.629 L2280.8 93.1086 L1805.52 93.1086  Z" fill="#ffffff" fill-rule="evenodd" fill-opacity="1"/>
<polyline clip-path="url(#clip200)" style="stroke:#000000; stroke-linecap:round; stroke-linejoin:round; stroke-width:4; stroke-opacity:1; fill:none" points="1805.52,248.629 2280.8,248.629 2280.8,93.1086 1805.52,93.1086 1805.52,248.629 "/>
<polyline clip-path="url(#clip200)" style="stroke:#009af9; stroke-linecap:round; stroke-linejoin:round; stroke-width:4; stroke-opacity:1; fill:none" points="1829.5,144.949 1973.42,144.949 "/>
<path clip-path="url(#clip200)" d="M1997.41 136.303 L2001.93 136.303 L2010.03 158.062 L2018.13 136.303 L2022.64 136.303 L2012.92 162.229 L2007.13 162.229 L1997.41 136.303 Z" fill="#000000" fill-rule="nonzero" fill-opacity="1" /><path clip-path="url(#clip200)" d="M2029.93 158.293 L2037.57 158.293 L2037.57 131.928 L2029.26 133.595 L2029.26 129.335 L2037.53 127.669 L2042.2 127.669 L2042.2 158.293 L2049.84 158.293 L2049.84 162.229 L2029.93 162.229 L2029.93 158.293 Z" fill="#000000" fill-rule="nonzero" fill-opacity="1" /><path clip-path="url(#clip200)" d="M2067.94 145.585 L2067.94 152.807 L2076.07 152.807 L2076.07 155.006 L2067.94 155.006 L2067.94 162.229 L2065.51 162.229 L2065.51 155.006 L2057.39 155.006 L2057.39 152.807 L2065.51 152.807 L2065.51 145.585 L2067.94 145.585 Z" fill="#000000" fill-rule="nonzero" fill-opacity="1" /><path clip-path="url(#clip200)" d="M2100.24 137.067 L2100.24 141.094 Q2098.43 140.169 2096.49 139.706 Q2094.54 139.243 2092.46 139.243 Q2089.29 139.243 2087.69 140.215 Q2086.11 141.187 2086.11 143.131 Q2086.11 144.613 2087.25 145.469 Q2088.38 146.303 2091.81 147.067 L2093.27 147.391 Q2097.8 148.363 2099.7 150.145 Q2101.62 151.905 2101.62 155.076 Q2101.62 158.687 2098.75 160.793 Q2095.91 162.9 2090.91 162.9 Q2088.82 162.9 2086.55 162.483 Q2084.31 162.09 2081.81 161.28 L2081.81 156.881 Q2084.17 158.108 2086.46 158.733 Q2088.75 159.335 2091 159.335 Q2094.01 159.335 2095.63 158.317 Q2097.25 157.275 2097.25 155.4 Q2097.25 153.664 2096.07 152.738 Q2094.91 151.812 2090.95 150.956 L2089.47 150.608 Q2085.51 149.775 2083.75 148.062 Q2081.99 146.326 2081.99 143.317 Q2081.99 139.659 2084.59 137.669 Q2087.18 135.678 2091.95 135.678 Q2094.31 135.678 2096.39 136.025 Q2098.48 136.372 2100.24 137.067 Z" fill="#000000" fill-rule="nonzero" fill-opacity="1" /><path clip-path="url(#clip200)" d="M2112.62 128.942 L2112.62 136.303 L2121.39 136.303 L2121.39 139.613 L2112.62 139.613 L2112.62 153.687 Q2112.62 156.858 2113.48 157.761 Q2114.36 158.664 2117.02 158.664 L2121.39 158.664 L2121.39 162.229 L2117.02 162.229 Q2112.09 162.229 2110.21 160.4 Q2108.34 158.548 2108.34 153.687 L2108.34 139.613 L2105.21 139.613 L2105.21 136.303 L2108.34 136.303 L2108.34 128.942 L2112.62 128.942 Z" fill="#000000" fill-rule="nonzero" fill-opacity="1" /><path clip-path="url(#clip200)" d="M2137.04 139.289 Q2133.61 139.289 2131.62 141.974 Q2129.63 144.636 2129.63 149.289 Q2129.63 153.942 2131.6 156.627 Q2133.59 159.289 2137.04 159.289 Q2140.44 159.289 2142.43 156.604 Q2144.42 153.918 2144.42 149.289 Q2144.42 144.682 2142.43 141.997 Q2140.44 139.289 2137.04 139.289 M2137.04 135.678 Q2142.6 135.678 2145.77 139.289 Q2148.94 142.9 2148.94 149.289 Q2148.94 155.655 2145.77 159.289 Q2142.6 162.9 2137.04 162.9 Q2131.46 162.9 2128.29 159.289 Q2125.14 155.655 2125.14 149.289 Q2125.14 142.9 2128.29 139.289 Q2131.46 135.678 2137.04 135.678 Z" fill="#000000" fill-rule="nonzero" fill-opacity="1" /><path clip-path="url(#clip200)" d="M2171.02 140.284 Q2170.3 139.868 2169.45 139.682 Q2168.61 139.474 2167.6 139.474 Q2163.98 139.474 2162.04 141.835 Q2160.12 144.173 2160.12 148.571 L2160.12 162.229 L2155.84 162.229 L2155.84 136.303 L2160.12 136.303 L2160.12 140.331 Q2161.46 137.969 2163.61 136.835 Q2165.77 135.678 2168.85 135.678 Q2169.29 135.678 2169.82 135.747 Q2170.35 135.794 2171 135.909 L2171.02 140.284 Z" fill="#000000" fill-rule="nonzero" fill-opacity="1" /><path clip-path="url(#clip200)" d="M2187.27 149.196 Q2182.11 149.196 2180.12 150.377 Q2178.13 151.557 2178.13 154.405 Q2178.13 156.673 2179.61 158.016 Q2181.11 159.335 2183.68 159.335 Q2187.23 159.335 2189.36 156.835 Q2191.51 154.312 2191.51 150.145 L2191.51 149.196 L2187.27 149.196 M2195.77 147.437 L2195.77 162.229 L2191.51 162.229 L2191.51 158.293 Q2190.05 160.655 2187.87 161.789 Q2185.7 162.9 2182.55 162.9 Q2178.57 162.9 2176.21 160.678 Q2173.87 158.432 2173.87 154.682 Q2173.87 150.307 2176.79 148.085 Q2179.73 145.863 2185.54 145.863 L2191.51 145.863 L2191.51 145.446 Q2191.51 142.507 2189.56 140.909 Q2187.64 139.289 2184.15 139.289 Q2181.92 139.289 2179.82 139.821 Q2177.71 140.354 2175.77 141.419 L2175.77 137.483 Q2178.11 136.581 2180.3 136.141 Q2182.5 135.678 2184.59 135.678 Q2190.21 135.678 2192.99 138.594 Q2195.77 141.511 2195.77 147.437 Z" fill="#000000" fill-rule="nonzero" fill-opacity="1" /><path clip-path="url(#clip200)" d="M2221.6 148.965 Q2221.6 144.335 2219.68 141.789 Q2217.78 139.243 2214.33 139.243 Q2210.91 139.243 2208.98 141.789 Q2207.09 144.335 2207.09 148.965 Q2207.09 153.571 2208.98 156.118 Q2210.91 158.664 2214.33 158.664 Q2217.78 158.664 2219.68 156.118 Q2221.6 153.571 2221.6 148.965 M2225.86 159.011 Q2225.86 165.631 2222.92 168.849 Q2219.98 172.09 2213.92 172.09 Q2211.67 172.09 2209.68 171.742 Q2207.69 171.418 2205.81 170.724 L2205.81 166.58 Q2207.69 167.599 2209.52 168.085 Q2211.35 168.571 2213.24 168.571 Q2217.43 168.571 2219.52 166.372 Q2221.6 164.196 2221.6 159.775 L2221.6 157.668 Q2220.28 159.96 2218.22 161.094 Q2216.16 162.229 2213.29 162.229 Q2208.52 162.229 2205.6 158.594 Q2202.69 154.96 2202.69 148.965 Q2202.69 142.946 2205.6 139.312 Q2208.52 135.678 2213.29 135.678 Q2216.16 135.678 2218.22 136.812 Q2220.28 137.946 2221.6 140.238 L2221.6 136.303 L2225.86 136.303 L2225.86 159.011 Z" fill="#000000" fill-rule="nonzero" fill-opacity="1" /><path clip-path="url(#clip200)" d="M2256.81 148.201 L2256.81 150.284 L2237.23 150.284 Q2237.5 154.682 2239.86 156.997 Q2242.25 159.289 2246.48 159.289 Q2248.94 159.289 2251.23 158.687 Q2253.54 158.085 2255.81 156.881 L2255.81 160.909 Q2253.52 161.881 2251.11 162.391 Q2248.71 162.9 2246.23 162.9 Q2240.03 162.9 2236.39 159.289 Q2232.78 155.678 2232.78 149.52 Q2232.78 143.155 2236.21 139.428 Q2239.66 135.678 2245.49 135.678 Q2250.72 135.678 2253.75 139.057 Q2256.81 142.414 2256.81 148.201 M2252.55 146.951 Q2252.5 143.456 2250.58 141.372 Q2248.68 139.289 2245.54 139.289 Q2241.97 139.289 2239.82 141.303 Q2237.69 143.317 2237.36 146.974 L2252.55 146.951 Z" fill="#000000" fill-rule="nonzero" fill-opacity="1" /><polyline clip-path="url(#clip200)" style="stroke:#e26f46; stroke-linecap:round; stroke-linejoin:round; stroke-width:4; stroke-opacity:1; fill:none" points="1829.5,196.789 1973.42,196.789 "/>
<path clip-path="url(#clip200)" d="M1997.41 188.143 L2001.93 188.143 L2010.03 209.902 L2018.13 188.143 L2022.64 188.143 L2012.92 214.069 L2007.13 214.069 L1997.41 188.143 Z" fill="#000000" fill-rule="nonzero" fill-opacity="1" /><path clip-path="url(#clip200)" d="M2029.17 179.509 L2047.53 179.509 L2047.53 183.444 L2033.45 183.444 L2033.45 191.916 Q2034.47 191.569 2035.49 191.407 Q2036.51 191.222 2037.53 191.222 Q2043.31 191.222 2046.69 194.393 Q2050.07 197.564 2050.07 202.981 Q2050.07 208.559 2046.6 211.661 Q2043.13 214.74 2036.81 214.74 Q2034.63 214.74 2032.37 214.37 Q2030.12 213.999 2027.71 213.258 L2027.71 208.559 Q2029.8 209.694 2032.02 210.249 Q2034.24 210.805 2036.72 210.805 Q2040.72 210.805 2043.06 208.698 Q2045.4 206.592 2045.4 202.981 Q2045.4 199.37 2043.06 197.263 Q2040.72 195.157 2036.72 195.157 Q2034.84 195.157 2032.97 195.573 Q2031.12 195.99 2029.17 196.87 L2029.17 179.509 Z" fill="#000000" fill-rule="nonzero" fill-opacity="1" /><path clip-path="url(#clip200)" d="M2067.94 197.425 L2067.94 204.647 L2076.07 204.647 L2076.07 206.846 L2067.94 206.846 L2067.94 214.069 L2065.51 214.069 L2065.51 206.846 L2057.39 206.846 L2057.39 204.647 L2065.51 204.647 L2065.51 197.425 L2067.94 197.425 Z" fill="#000000" fill-rule="nonzero" fill-opacity="1" /><path clip-path="url(#clip200)" d="M2100.24 188.907 L2100.24 192.934 Q2098.43 192.009 2096.49 191.546 Q2094.54 191.083 2092.46 191.083 Q2089.29 191.083 2087.69 192.055 Q2086.11 193.027 2086.11 194.971 Q2086.11 196.453 2087.25 197.309 Q2088.38 198.143 2091.81 198.907 L2093.27 199.231 Q2097.8 200.203 2099.7 201.985 Q2101.62 203.745 2101.62 206.916 Q2101.62 210.527 2098.75 212.633 Q2095.91 214.74 2090.91 214.74 Q2088.82 214.74 2086.55 214.323 Q2084.31 213.93 2081.81 213.12 L2081.81 208.721 Q2084.17 209.948 2086.46 210.573 Q2088.75 211.175 2091 211.175 Q2094.01 211.175 2095.63 210.157 Q2097.25 209.115 2097.25 207.24 Q2097.25 205.504 2096.07 204.578 Q2094.91 203.652 2090.95 202.796 L2089.47 202.448 Q2085.51 201.615 2083.75 199.902 Q2081.99 198.166 2081.99 195.157 Q2081.99 191.499 2084.59 189.509 Q2087.18 187.518 2091.95 187.518 Q2094.31 187.518 2096.39 187.865 Q2098.48 188.212 2100.24 188.907 Z" fill="#000000" fill-rule="nonzero" fill-opacity="1" /><path clip-path="url(#clip200)" d="M2112.62 180.782 L2112.62 188.143 L2121.39 188.143 L2121.39 191.453 L2112.62 191.453 L2112.62 205.527 Q2112.62 208.698 2113.48 209.601 Q2114.36 210.504 2117.02 210.504 L2121.39 210.504 L2121.39 214.069 L2117.02 214.069 Q2112.09 214.069 2110.21 212.24 Q2108.34 210.388 2108.34 205.527 L2108.34 191.453 L2105.21 191.453 L2105.21 188.143 L2108.34 188.143 L2108.34 180.782 L2112.62 180.782 Z" fill="#000000" fill-rule="nonzero" fill-opacity="1" /><path clip-path="url(#clip200)" d="M2137.04 191.129 Q2133.61 191.129 2131.62 193.814 Q2129.63 196.476 2129.63 201.129 Q2129.63 205.782 2131.6 208.467 Q2133.59 211.129 2137.04 211.129 Q2140.44 211.129 2142.43 208.444 Q2144.42 205.758 2144.42 201.129 Q2144.42 196.522 2142.43 193.837 Q2140.44 191.129 2137.04 191.129 M2137.04 187.518 Q2142.6 187.518 2145.77 191.129 Q2148.94 194.74 2148.94 201.129 Q2148.94 207.495 2145.77 211.129 Q2142.6 214.74 2137.04 214.74 Q2131.46 214.74 2128.29 211.129 Q2125.14 207.495 2125.14 201.129 Q2125.14 194.74 2128.29 191.129 Q2131.46 187.518 2137.04 187.518 Z" fill="#000000" fill-rule="nonzero" fill-opacity="1" /><path clip-path="url(#clip200)" d="M2171.02 192.124 Q2170.3 191.708 2169.45 191.522 Q2168.61 191.314 2167.6 191.314 Q2163.98 191.314 2162.04 193.675 Q2160.12 196.013 2160.12 200.411 L2160.12 214.069 L2155.84 214.069 L2155.84 188.143 L2160.12 188.143 L2160.12 192.171 Q2161.46 189.809 2163.61 188.675 Q2165.77 187.518 2168.85 187.518 Q2169.29 187.518 2169.82 187.587 Q2170.35 187.634 2171 187.749 L2171.02 192.124 Z" fill="#000000" fill-rule="nonzero" fill-opacity="1" /><path clip-path="url(#clip200)" d="M2187.27 201.036 Q2182.11 201.036 2180.12 202.217 Q2178.13 203.397 2178.13 206.245 Q2178.13 208.513 2179.61 209.856 Q2181.11 211.175 2183.68 211.175 Q2187.23 211.175 2189.36 208.675 Q2191.51 206.152 2191.51 201.985 L2191.51 201.036 L2187.27 201.036 M2195.77 199.277 L2195.77 214.069 L2191.51 214.069 L2191.51 210.133 Q2190.05 212.495 2187.87 213.629 Q2185.7 214.74 2182.55 214.74 Q2178.57 214.74 2176.21 212.518 Q2173.87 210.272 2173.87 206.522 Q2173.87 202.147 2176.79 199.925 Q2179.73 197.703 2185.54 197.703 L2191.51 197.703 L2191.51 197.286 Q2191.51 194.347 2189.56 192.749 Q2187.64 191.129 2184.15 191.129 Q2181.92 191.129 2179.82 191.661 Q2177.71 192.194 2175.77 193.259 L2175.77 189.323 Q2178.11 188.421 2180.3 187.981 Q2182.5 187.518 2184.59 187.518 Q2190.21 187.518 2192.99 190.434 Q2195.77 193.351 2195.77 199.277 Z" fill="#000000" fill-rule="nonzero" fill-opacity="1" /><path clip-path="url(#clip200)" d="M2221.6 200.805 Q2221.6 196.175 2219.68 193.629 Q2217.78 191.083 2214.33 191.083 Q2210.91 191.083 2208.98 193.629 Q2207.09 196.175 2207.09 200.805 Q2207.09 205.411 2208.98 207.958 Q2210.91 210.504 2214.33 210.504 Q2217.78 210.504 2219.68 207.958 Q2221.6 205.411 2221.6 200.805 M2225.86 210.851 Q2225.86 217.471 2222.92 220.689 Q2219.98 223.93 2213.92 223.93 Q2211.67 223.93 2209.68 223.582 Q2207.69 223.258 2205.81 222.564 L2205.81 218.42 Q2207.69 219.439 2209.52 219.925 Q2211.35 220.411 2213.24 220.411 Q2217.43 220.411 2219.52 218.212 Q2221.6 216.036 2221.6 211.615 L2221.6 209.508 Q2220.28 211.8 2218.22 212.934 Q2216.16 214.069 2213.29 214.069 Q2208.52 214.069 2205.6 210.434 Q2202.69 206.8 2202.69 200.805 Q2202.69 194.786 2205.6 191.152 Q2208.52 187.518 2213.29 187.518 Q2216.16 187.518 2218.22 188.652 Q2220.28 189.786 2221.6 192.078 L2221.6 188.143 L2225.86 188.143 L2225.86 210.851 Z" fill="#000000" fill-rule="nonzero" fill-opacity="1" /><path clip-path="url(#clip200)" d="M2256.81 200.041 L2256.81 202.124 L2237.23 202.124 Q2237.5 206.522 2239.86 208.837 Q2242.25 211.129 2246.48 211.129 Q2248.94 211.129 2251.23 210.527 Q2253.54 209.925 2255.81 208.721 L2255.81 212.749 Q2253.52 213.721 2251.11 214.231 Q2248.71 214.74 2246.23 214.74 Q2240.03 214.74 2236.39 211.129 Q2232.78 207.518 2232.78 201.36 Q2232.78 194.995 2236.21 191.268 Q2239.66 187.518 2245.49 187.518 Q2250.72 187.518 2253.75 190.897 Q2256.81 194.254 2256.81 200.041 M2252.55 198.791 Q2252.5 195.296 2250.58 193.212 Q2248.68 191.129 2245.54 191.129 Q2241.97 191.129 2239.82 193.143 Q2237.69 195.157 2237.36 198.814 L2252.55 198.791 Z" fill="#000000" fill-rule="nonzero" fill-opacity="1" /></svg>
