<?xml version="1.0" encoding="utf-8"?>
<svg xmlns="http://www.w3.org/2000/svg" xmlns:xlink="http://www.w3.org/1999/xlink" width="600" height="400" viewBox="0 0 2400 1600">
<defs>
  <clipPath id="clip590">
    <rect x="0" y="0" width="2400" height="1600"/>
  </clipPath>
</defs>
<path clip-path="url(#clip590)" d="M0 1600 L2400 1600 L2400 0 L0 0  Z" fill="#ffffff" fill-rule="evenodd" fill-opacity="1"/>
<defs>
  <clipPath id="clip591">
    <rect x="480" y="0" width="1681" height="1600"/>
  </clipPath>
</defs>
<path clip-path="url(#clip590)" d="M156.112 1423.18 L2352.76 1423.18 L2352.76 47.2441 L156.112 47.2441  Z" fill="#ffffff" fill-rule="evenodd" fill-opacity="1"/>
<defs>
  <clipPath id="clip592">
    <rect x="156" y="47" width="2198" height="1377"/>
  </clipPath>
</defs>
<polyline clip-path="url(#clip592)" style="stroke:#000000; stroke-linecap:round; stroke-linejoin:round; stroke-width:2; stroke-opacity:0.1; fill:none" points="156.112,1423.18 156.112,47.2441 "/>
<polyline clip-path="url(#clip592)" style="stroke:#000000; stroke-linecap:round; stroke-linejoin:round; stroke-width:2; stroke-opacity:0.1; fill:none" points="705.273,1423.18 705.273,47.2441 "/>
<polyline clip-path="url(#clip592)" style="stroke:#000000; stroke-linecap:round; stroke-linejoin:round; stroke-width:2; stroke-opacity:0.1; fill:none" points="1254.43,1423.18 1254.43,47.2441 "/>
<polyline clip-path="url(#clip592)" style="stroke:#000000; stroke-linecap:round; stroke-linejoin:round; stroke-width:2; stroke-opacity:0.1; fill:none" points="1803.59,1423.18 1803.59,47.2441 "/>
<polyline clip-path="url(#clip592)" style="stroke:#000000; stroke-linecap:round; stroke-linejoin:round; stroke-width:2; stroke-opacity:0.1; fill:none" points="2352.76,1423.18 2352.76,47.2441 "/>
<polyline clip-path="url(#clip592)" style="stroke:#000000; stroke-linecap:round; stroke-linejoin:round; stroke-width:2; stroke-opacity:0.1; fill:none" points="156.112,1220.43 2352.76,1220.43 "/>
<polyline clip-path="url(#clip592)" style="stroke:#000000; stroke-linecap:round; stroke-linejoin:round; stroke-width:2; stroke-opacity:0.1; fill:none" points="156.112,838.721 2352.76,838.721 "/>
<polyline clip-path="url(#clip592)" style="stroke:#000000; stroke-linecap:round; stroke-linejoin:round; stroke-width:2; stroke-opacity:0.1; fill:none" points="156.112,457.015 2352.76,457.015 "/>
<polyline clip-path="url(#clip592)" style="stroke:#000000; stroke-linecap:round; stroke-linejoin:round; stroke-width:2; stroke-opacity:0.1; fill:none" points="156.112,75.3099 2352.76,75.3099 "/>
<polyline clip-path="url(#clip590)" style="stroke:#000000; stroke-linecap:round; stroke-linejoin:round; stroke-width:4; stroke-opacity:1; fill:none" points="156.112,1423.18 2352.76,1423.18 "/>
<polyline clip-path="url(#clip590)" style="stroke:#000000; stroke-linecap:round; stroke-linejoin:round; stroke-width:4; stroke-opacity:1; fill:none" points="156.112,1423.18 156.112,1404.28 "/>
<polyline clip-path="url(#clip590)" style="stroke:#000000; stroke-linecap:round; stroke-linejoin:round; stroke-width:4; stroke-opacity:1; fill:none" points="705.273,1423.18 705.273,1404.28 "/>
<polyline clip-path="url(#clip590)" style="stroke:#000000; stroke-linecap:round; stroke-linejoin:round; stroke-width:4; stroke-opacity:1; fill:none" points="1254.43,1423.18 1254.43,1404.28 "/>
<polyline clip-path="url(#clip590)" style="stroke:#000000; stroke-linecap:round; stroke-linejoin:round; stroke-width:4; stroke-opacity:1; fill:none" points="1803.59,1423.18 1803.59,1404.28 "/>
<polyline clip-path="url(#clip590)" style="stroke:#000000; stroke-linecap:round; stroke-linejoin:round; stroke-width:4; stroke-opacity:1; fill:none" points="2352.76,1423.18 2352.76,1404.28 "/>
<path clip-path="url(#clip590)" d="M133.497 1454.1 Q129.885 1454.1 128.057 1457.66 Q126.251 1461.2 126.251 1468.33 Q126.251 1475.44 128.057 1479.01 Q129.885 1482.55 133.497 1482.55 Q137.131 1482.55 138.936 1479.01 Q140.765 1475.44 140.765 1468.33 Q140.765 1461.2 138.936 1457.66 Q137.131 1454.1 133.497 1454.1 M133.497 1450.39 Q139.307 1450.39 142.362 1455 Q145.441 1459.58 145.441 1468.33 Q145.441 1477.06 142.362 1481.67 Q139.307 1486.25 133.497 1486.25 Q127.686 1486.25 124.608 1481.67 Q121.552 1477.06 121.552 1468.33 Q121.552 1459.58 124.608 1455 Q127.686 1450.39 133.497 1450.39 Z" fill="#000000" fill-rule="nonzero" fill-opacity="1" /><path clip-path="url(#clip590)" d="M153.658 1479.7 L158.543 1479.7 L158.543 1485.58 L153.658 1485.58 L153.658 1479.7 Z" fill="#000000" fill-rule="nonzero" fill-opacity="1" /><path clip-path="url(#clip590)" d="M178.728 1454.1 Q175.117 1454.1 173.288 1457.66 Q171.482 1461.2 171.482 1468.33 Q171.482 1475.44 173.288 1479.01 Q175.117 1482.55 178.728 1482.55 Q182.362 1482.55 184.168 1479.01 Q185.996 1475.44 185.996 1468.33 Q185.996 1461.2 184.168 1457.66 Q182.362 1454.1 178.728 1454.1 M178.728 1450.39 Q184.538 1450.39 187.593 1455 Q190.672 1459.58 190.672 1468.33 Q190.672 1477.06 187.593 1481.67 Q184.538 1486.25 178.728 1486.25 Q172.918 1486.25 169.839 1481.67 Q166.783 1477.06 166.783 1468.33 Q166.783 1459.58 169.839 1455 Q172.918 1450.39 178.728 1450.39 Z" fill="#000000" fill-rule="nonzero" fill-opacity="1" /><path clip-path="url(#clip590)" d="M683.155 1454.1 Q679.544 1454.1 677.715 1457.66 Q675.91 1461.2 675.91 1468.33 Q675.91 1475.44 677.715 1479.01 Q679.544 1482.55 683.155 1482.55 Q686.789 1482.55 688.595 1479.01 Q690.424 1475.44 690.424 1468.33 Q690.424 1461.2 688.595 1457.66 Q686.789 1454.1 683.155 1454.1 M683.155 1450.39 Q688.965 1450.39 692.021 1455 Q695.1 1459.58 695.1 1468.33 Q695.1 1477.06 692.021 1481.67 Q688.965 1486.25 683.155 1486.25 Q677.345 1486.25 674.266 1481.67 Q671.211 1477.06 671.211 1468.33 Q671.211 1459.58 674.266 1455 Q677.345 1450.39 683.155 1450.39 Z" fill="#000000" fill-rule="nonzero" fill-opacity="1" /><path clip-path="url(#clip590)" d="M703.317 1479.7 L708.201 1479.7 L708.201 1485.58 L703.317 1485.58 L703.317 1479.7 Z" fill="#000000" fill-rule="nonzero" fill-opacity="1" /><path clip-path="url(#clip590)" d="M718.433 1451.02 L736.789 1451.02 L736.789 1454.96 L722.715 1454.96 L722.715 1463.43 Q723.734 1463.08 724.752 1462.92 Q725.771 1462.73 726.789 1462.73 Q732.576 1462.73 735.956 1465.9 Q739.335 1469.08 739.335 1474.49 Q739.335 1480.07 735.863 1483.17 Q732.391 1486.25 726.072 1486.25 Q723.896 1486.25 721.627 1485.88 Q719.382 1485.51 716.974 1484.77 L716.974 1480.07 Q719.058 1481.2 721.28 1481.76 Q723.502 1482.32 725.979 1482.32 Q729.984 1482.32 732.322 1480.21 Q734.659 1478.1 734.659 1474.49 Q734.659 1470.88 732.322 1468.77 Q729.984 1466.67 725.979 1466.67 Q724.104 1466.67 722.229 1467.08 Q720.377 1467.5 718.433 1468.38 L718.433 1451.02 Z" fill="#000000" fill-rule="nonzero" fill-opacity="1" /><path clip-path="url(#clip590)" d="M1221.59 1481.64 L1229.23 1481.64 L1229.23 1455.28 L1220.92 1456.95 L1220.92 1452.69 L1229.18 1451.02 L1233.86 1451.02 L1233.86 1481.64 L1241.49 1481.64 L1241.49 1485.58 L1221.59 1485.58 L1221.59 1481.64 Z" fill="#000000" fill-rule="nonzero" fill-opacity="1" /><path clip-path="url(#clip590)" d="M1250.94 1479.7 L1255.82 1479.7 L1255.82 1485.58 L1250.94 1485.58 L1250.94 1479.7 Z" fill="#000000" fill-rule="nonzero" fill-opacity="1" /><path clip-path="url(#clip590)" d="M1276.01 1454.1 Q1272.4 1454.1 1270.57 1457.66 Q1268.76 1461.2 1268.76 1468.33 Q1268.76 1475.44 1270.57 1479.01 Q1272.4 1482.55 1276.01 1482.55 Q1279.64 1482.55 1281.45 1479.01 Q1283.28 1475.44 1283.28 1468.33 Q1283.28 1461.2 1281.45 1457.66 Q1279.64 1454.1 1276.01 1454.1 M1276.01 1450.39 Q1281.82 1450.39 1284.87 1455 Q1287.95 1459.58 1287.95 1468.33 Q1287.95 1477.06 1284.87 1481.67 Q1281.82 1486.25 1276.01 1486.25 Q1270.2 1486.25 1267.12 1481.67 Q1264.06 1477.06 1264.06 1468.33 Q1264.06 1459.58 1267.12 1455 Q1270.2 1450.39 1276.01 1450.39 Z" fill="#000000" fill-rule="nonzero" fill-opacity="1" /><path clip-path="url(#clip590)" d="M1771.25 1481.64 L1778.88 1481.64 L1778.88 1455.28 L1770.57 1456.95 L1770.57 1452.69 L1778.84 1451.02 L1783.51 1451.02 L1783.51 1481.64 L1791.15 1481.64 L1791.15 1485.58 L1771.25 1485.58 L1771.25 1481.64 Z" fill="#000000" fill-rule="nonzero" fill-opacity="1" /><path clip-path="url(#clip590)" d="M1800.6 1479.7 L1805.48 1479.7 L1805.48 1485.58 L1800.6 1485.58 L1800.6 1479.7 Z" fill="#000000" fill-rule="nonzero" fill-opacity="1" /><path clip-path="url(#clip590)" d="M1815.71 1451.02 L1834.07 1451.02 L1834.07 1454.96 L1820 1454.96 L1820 1463.43 Q1821.01 1463.08 1822.03 1462.92 Q1823.05 1462.73 1824.07 1462.73 Q1829.86 1462.73 1833.24 1465.9 Q1836.62 1469.08 1836.62 1474.49 Q1836.62 1480.07 1833.14 1483.17 Q1829.67 1486.25 1823.35 1486.25 Q1821.18 1486.25 1818.91 1485.88 Q1816.66 1485.51 1814.25 1484.77 L1814.25 1480.07 Q1816.34 1481.2 1818.56 1481.76 Q1820.78 1482.32 1823.26 1482.32 Q1827.26 1482.32 1829.6 1480.21 Q1831.94 1478.1 1831.94 1474.49 Q1831.94 1470.88 1829.6 1468.77 Q1827.26 1466.67 1823.26 1466.67 Q1821.38 1466.67 1819.51 1467.08 Q1817.66 1467.5 1815.71 1468.38 L1815.71 1451.02 Z" fill="#000000" fill-rule="nonzero" fill-opacity="1" /><path clip-path="url(#clip590)" d="M2323.99 1481.64 L2340.31 1481.64 L2340.31 1485.58 L2318.37 1485.58 L2318.37 1481.64 Q2321.03 1478.89 2325.61 1474.26 Q2330.22 1469.61 2331.4 1468.27 Q2333.65 1465.74 2334.53 1464.01 Q2335.43 1462.25 2335.43 1460.56 Q2335.43 1457.8 2333.49 1456.07 Q2331.56 1454.33 2328.46 1454.33 Q2326.26 1454.33 2323.81 1455.09 Q2321.38 1455.86 2318.6 1457.41 L2318.6 1452.69 Q2321.43 1451.55 2323.88 1450.97 Q2326.33 1450.39 2328.37 1450.39 Q2333.74 1450.39 2336.93 1453.08 Q2340.13 1455.77 2340.13 1460.26 Q2340.13 1462.39 2339.32 1464.31 Q2338.53 1466.2 2336.42 1468.8 Q2335.85 1469.47 2332.74 1472.69 Q2329.64 1475.88 2323.99 1481.64 Z" fill="#000000" fill-rule="nonzero" fill-opacity="1" /><path clip-path="url(#clip590)" d="M2350.13 1479.7 L2355.01 1479.7 L2355.01 1485.58 L2350.13 1485.58 L2350.13 1479.7 Z" fill="#000000" fill-rule="nonzero" fill-opacity="1" /><path clip-path="url(#clip590)" d="M2375.2 1454.1 Q2371.59 1454.1 2369.76 1457.66 Q2367.95 1461.2 2367.95 1468.33 Q2367.95 1475.44 2369.76 1479.01 Q2371.59 1482.55 2375.2 1482.55 Q2378.83 1482.55 2380.64 1479.01 Q2382.47 1475.44 2382.47 1468.33 Q2382.47 1461.2 2380.64 1457.66 Q2378.83 1454.1 2375.2 1454.1 M2375.2 1450.39 Q2381.01 1450.39 2384.06 1455 Q2387.14 1459.58 2387.14 1468.33 Q2387.14 1477.06 2384.06 1481.67 Q2381.01 1486.25 2375.2 1486.25 Q2369.39 1486.25 2366.31 1481.67 Q2363.25 1477.06 2363.25 1468.33 Q2363.25 1459.58 2366.31 1455 Q2369.39 1450.39 2375.2 1450.39 Z" fill="#000000" fill-rule="nonzero" fill-opacity="1" /><path clip-path="url(#clip590)" d="M1253.5 1522.27 L1253.5 1532.4 L1265.56 1532.4 L1265.56 1536.95 L1253.5 1536.95 L1253.5 1556.3 Q1253.5 1560.66 1254.67 1561.9 Q1255.88 1563.14 1259.54 1563.14 L1265.56 1563.14 L1265.56 1568.04 L1259.54 1568.04 Q1252.76 1568.04 1250.18 1565.53 Q1247.61 1562.98 1247.61 1556.3 L1247.61 1536.95 L1243.31 1536.95 L1243.31 1532.4 L1247.61 1532.4 L1247.61 1522.27 L1253.5 1522.27 Z" fill="#000000" fill-rule="nonzero" fill-opacity="1" /><polyline clip-path="url(#clip590)" style="stroke:#000000; stroke-linecap:round; stroke-linejoin:round; stroke-width:4; stroke-opacity:1; fill:none" points="156.112,1423.18 156.112,47.2441 "/>
<polyline clip-path="url(#clip590)" style="stroke:#000000; stroke-linecap:round; stroke-linejoin:round; stroke-width:4; stroke-opacity:1; fill:none" points="156.112,1220.43 175.01,1220.43 "/>
<polyline clip-path="url(#clip590)" style="stroke:#000000; stroke-linecap:round; stroke-linejoin:round; stroke-width:4; stroke-opacity:1; fill:none" points="156.112,838.721 175.01,838.721 "/>
<polyline clip-path="url(#clip590)" style="stroke:#000000; stroke-linecap:round; stroke-linejoin:round; stroke-width:4; stroke-opacity:1; fill:none" points="156.112,457.015 175.01,457.015 "/>
<polyline clip-path="url(#clip590)" style="stroke:#000000; stroke-linecap:round; stroke-linejoin:round; stroke-width:4; stroke-opacity:1; fill:none" points="156.112,75.3099 175.01,75.3099 "/>
<path clip-path="url(#clip590)" d="M62.9365 1206.23 Q59.3254 1206.23 57.4967 1209.79 Q55.6912 1213.33 55.6912 1220.46 Q55.6912 1227.57 57.4967 1231.13 Q59.3254 1234.67 62.9365 1234.67 Q66.5707 1234.67 68.3763 1231.13 Q70.205 1227.57 70.205 1220.46 Q70.205 1213.33 68.3763 1209.79 Q66.5707 1206.23 62.9365 1206.23 M62.9365 1202.52 Q68.7467 1202.52 71.8022 1207.13 Q74.8809 1211.71 74.8809 1220.46 Q74.8809 1229.19 71.8022 1233.79 Q68.7467 1238.38 62.9365 1238.38 Q57.1264 1238.38 54.0477 1233.79 Q50.9921 1229.19 50.9921 1220.46 Q50.9921 1211.71 54.0477 1207.13 Q57.1264 1202.52 62.9365 1202.52 Z" fill="#000000" fill-rule="nonzero" fill-opacity="1" /><path clip-path="url(#clip590)" d="M83.0984 1231.83 L87.9827 1231.83 L87.9827 1237.71 L83.0984 1237.71 L83.0984 1231.83 Z" fill="#000000" fill-rule="nonzero" fill-opacity="1" /><path clip-path="url(#clip590)" d="M108.168 1206.23 Q104.557 1206.23 102.728 1209.79 Q100.922 1213.33 100.922 1220.46 Q100.922 1227.57 102.728 1231.13 Q104.557 1234.67 108.168 1234.67 Q111.802 1234.67 113.608 1231.13 Q115.436 1227.57 115.436 1220.46 Q115.436 1213.33 113.608 1209.79 Q111.802 1206.23 108.168 1206.23 M108.168 1202.52 Q113.978 1202.52 117.033 1207.13 Q120.112 1211.71 120.112 1220.46 Q120.112 1229.19 117.033 1233.79 Q113.978 1238.38 108.168 1238.38 Q102.358 1238.38 99.2789 1233.79 Q96.2234 1229.19 96.2234 1220.46 Q96.2234 1211.71 99.2789 1207.13 Q102.358 1202.52 108.168 1202.52 Z" fill="#000000" fill-rule="nonzero" fill-opacity="1" /><path clip-path="url(#clip590)" d="M63.9319 824.52 Q60.3208 824.52 58.4921 828.084 Q56.6865 831.626 56.6865 838.756 Q56.6865 845.862 58.4921 849.427 Q60.3208 852.969 63.9319 852.969 Q67.5661 852.969 69.3717 849.427 Q71.2004 845.862 71.2004 838.756 Q71.2004 831.626 69.3717 828.084 Q67.5661 824.52 63.9319 824.52 M63.9319 820.816 Q69.742 820.816 72.7976 825.422 Q75.8763 830.006 75.8763 838.756 Q75.8763 847.483 72.7976 852.089 Q69.742 856.672 63.9319 856.672 Q58.1217 856.672 55.043 852.089 Q51.9875 847.483 51.9875 838.756 Q51.9875 830.006 55.043 825.422 Q58.1217 820.816 63.9319 820.816 Z" fill="#000000" fill-rule="nonzero" fill-opacity="1" /><path clip-path="url(#clip590)" d="M84.0938 850.121 L88.978 850.121 L88.978 856.001 L84.0938 856.001 L84.0938 850.121 Z" fill="#000000" fill-rule="nonzero" fill-opacity="1" /><path clip-path="url(#clip590)" d="M99.2095 821.441 L117.566 821.441 L117.566 825.376 L103.492 825.376 L103.492 833.848 Q104.51 833.501 105.529 833.339 Q106.547 833.154 107.566 833.154 Q113.353 833.154 116.733 836.325 Q120.112 839.496 120.112 844.913 Q120.112 850.492 116.64 853.594 Q113.168 856.672 106.848 856.672 Q104.672 856.672 102.404 856.302 Q100.159 855.932 97.7511 855.191 L97.7511 850.492 Q99.8345 851.626 102.057 852.182 Q104.279 852.737 106.756 852.737 Q110.76 852.737 113.098 850.631 Q115.436 848.524 115.436 844.913 Q115.436 841.302 113.098 839.196 Q110.76 837.089 106.756 837.089 Q104.881 837.089 103.006 837.506 Q101.154 837.922 99.2095 838.802 L99.2095 821.441 Z" fill="#000000" fill-rule="nonzero" fill-opacity="1" /><path clip-path="url(#clip590)" d="M53.7467 470.36 L61.3856 470.36 L61.3856 443.995 L53.0754 445.661 L53.0754 441.402 L61.3393 439.735 L66.0152 439.735 L66.0152 470.36 L73.654 470.36 L73.654 474.295 L53.7467 474.295 L53.7467 470.36 Z" fill="#000000" fill-rule="nonzero" fill-opacity="1" /><path clip-path="url(#clip590)" d="M83.0984 468.416 L87.9827 468.416 L87.9827 474.295 L83.0984 474.295 L83.0984 468.416 Z" fill="#000000" fill-rule="nonzero" fill-opacity="1" /><path clip-path="url(#clip590)" d="M108.168 442.814 Q104.557 442.814 102.728 446.379 Q100.922 449.921 100.922 457.05 Q100.922 464.157 102.728 467.721 Q104.557 471.263 108.168 471.263 Q111.802 471.263 113.608 467.721 Q115.436 464.157 115.436 457.05 Q115.436 449.921 113.608 446.379 Q111.802 442.814 108.168 442.814 M108.168 439.11 Q113.978 439.11 117.033 443.717 Q120.112 448.3 120.112 457.05 Q120.112 465.777 117.033 470.383 Q113.978 474.967 108.168 474.967 Q102.358 474.967 99.2789 470.383 Q96.2234 465.777 96.2234 457.05 Q96.2234 448.3 99.2789 443.717 Q102.358 439.11 108.168 439.11 Z" fill="#000000" fill-rule="nonzero" fill-opacity="1" /><path clip-path="url(#clip590)" d="M54.7421 88.6547 L62.381 88.6547 L62.381 62.2891 L54.0708 63.9558 L54.0708 59.6965 L62.3347 58.0299 L67.0106 58.0299 L67.0106 88.6547 L74.6494 88.6547 L74.6494 92.5899 L54.7421 92.5899 L54.7421 88.6547 Z" fill="#000000" fill-rule="nonzero" fill-opacity="1" /><path clip-path="url(#clip590)" d="M84.0938 86.7103 L88.978 86.7103 L88.978 92.5899 L84.0938 92.5899 L84.0938 86.7103 Z" fill="#000000" fill-rule="nonzero" fill-opacity="1" /><path clip-path="url(#clip590)" d="M99.2095 58.0299 L117.566 58.0299 L117.566 61.965 L103.492 61.965 L103.492 70.4372 Q104.51 70.09 105.529 69.928 Q106.547 69.7428 107.566 69.7428 Q113.353 69.7428 116.733 72.9141 Q120.112 76.0853 120.112 81.502 Q120.112 87.0807 116.64 90.1825 Q113.168 93.2612 106.848 93.2612 Q104.672 93.2612 102.404 92.8908 Q100.159 92.5204 97.7511 91.7797 L97.7511 87.0807 Q99.8345 88.2149 102.057 88.7705 Q104.279 89.326 106.756 89.326 Q110.76 89.326 113.098 87.2195 Q115.436 85.1131 115.436 81.502 Q115.436 77.8909 113.098 75.7844 Q110.76 73.6779 106.756 73.6779 Q104.881 73.6779 103.006 74.0946 Q101.154 74.5113 99.2095 75.3909 L99.2095 58.0299 Z" fill="#000000" fill-rule="nonzero" fill-opacity="1" /><polyline clip-path="url(#clip592)" style="stroke:#009af9; stroke-linecap:round; stroke-linejoin:round; stroke-width:4; stroke-opacity:1; fill:none" points="156.112,86.1857 158.311,93.5087 160.51,100.759 162.709,107.937 164.907,115.043 167.106,122.079 169.305,129.044 171.504,135.94 173.703,142.768 175.902,149.527 178.101,156.22 180.299,162.845 182.498,169.404 184.697,175.899 186.896,182.328 189.095,188.693 191.294,194.996 193.492,201.235 195.691,207.412 197.89,213.527 200.089,219.582 202.288,225.577 204.487,231.511 206.686,237.387 208.884,243.204 211.083,248.963 213.282,254.665 215.481,260.31 217.68,265.898 219.879,271.432 222.077,276.91 224.276,282.333 226.475,287.702 228.674,293.018 230.873,298.281 233.072,303.492 235.27,308.651 237.469,313.758 239.668,318.814 241.867,323.82 244.066,328.776 246.265,333.683 248.464,338.541 250.662,343.351 252.861,348.112 255.06,352.826 257.259,357.494 259.458,362.114 261.657,366.689 263.855,371.218 266.054,375.702 268.253,380.142 270.452,384.537 272.651,388.888 274.85,393.196 277.048,397.461 279.247,401.684 281.446,405.865 283.645,410.004 285.844,414.102 288.043,418.159 290.242,422.175 292.44,426.152 294.639,430.089 296.838,433.987 299.037,437.846 301.236,441.666 303.435,445.449 305.633,449.193 307.832,452.901 310.031,456.571 312.23,460.205 314.429,463.803 316.628,467.365 318.826,470.891 321.025,474.383 323.224,477.839 325.423,481.261 327.622,484.649 329.821,488.003 332.02,491.324 334.218,494.612 336.417,497.867 338.616,501.09 340.815,504.28 343.014,507.439 345.213,510.566 347.411,513.662 349.61,516.728 351.809,519.762 354.008,522.767 356.207,525.742 358.406,528.687 360.604,531.602 362.803,534.489 365.002,537.347 367.201,540.177 369.4,542.978 371.599,545.752 373.798,548.497 375.996,551.216 378.195,553.907 380.394,556.572 382.593,559.21 384.792,561.822 386.991,564.408 389.189,566.968 391.388,569.502 393.587,572.012 395.786,574.496 397.985,576.955 400.184,579.39 402.382,581.801 404.581,584.188 406.78,586.55 408.979,588.89 411.178,591.206 413.377,593.499 415.576,595.769 417.774,598.016 419.973,600.241 422.172,602.444 424.371,604.625 426.57,606.784 428.769,608.922 430.967,611.038 433.166,613.134 435.365,615.208 437.564,617.262 439.763,619.295 441.962,621.308 444.161,623.301 446.359,625.274 448.558,627.228 450.757,629.162 452.956,631.077 455.155,632.973 457.354,634.85 459.552,636.708 461.751,638.548 463.95,640.369 466.149,642.173 468.348,643.958 470.547,645.726 472.745,647.476 474.944,649.209 477.143,650.924 479.342,652.623 481.541,654.304 483.74,655.969 485.939,657.617 488.137,659.249 490.336,660.864 492.535,662.464 494.734,664.047 496.933,665.615 499.132,667.167 501.33,668.703 503.529,670.224 505.728,671.731 507.927,673.222 510.126,674.698 512.325,676.159 514.523,677.606 516.722,679.038 518.921,680.457 521.12,681.861 523.319,683.251 525.518,684.627 527.717,685.989 529.915,687.338 532.114,688.673 534.313,689.995 536.512,691.304 538.711,692.6 540.91,693.883 543.108,695.153 545.307,696.411 547.506,697.656 549.705,698.888 551.904,700.108 554.103,701.317 556.301,702.513 558.5,703.697 560.699,704.869 562.898,706.03 565.097,707.179 567.296,708.317 569.495,709.443 571.693,710.559 573.892,711.663 576.091,712.756 578.29,713.838 580.489,714.91 582.688,715.971 584.886,717.021 587.085,718.061 589.284,719.09 591.483,720.11 593.682,721.119 595.881,722.118 598.079,723.108 600.278,724.087 602.477,725.057 604.676,726.017 606.875,726.968 609.074,727.909 611.273,728.841 613.471,729.763 615.67,730.676 617.869,731.58 620.068,732.475 622.267,733.362 624.466,734.239 626.664,735.108 628.863,735.968 631.062,736.819 633.261,737.662 635.46,738.496 637.659,739.322 639.858,740.14 642.056,740.95 644.255,741.752 646.454,742.545 648.653,743.331 650.852,744.109 653.051,744.879 655.249,745.641 657.448,746.396 659.647,747.143 661.846,747.883 664.045,748.615 666.244,749.34 668.442,750.058 670.641,750.768 672.84,751.472 675.039,752.168 677.238,752.858 679.437,753.541 681.636,754.217 683.834,754.886 686.033,755.548 688.232,756.204 690.431,756.853 692.63,757.496 694.829,758.133 697.027,758.763 699.226,759.387 701.425,760.004 703.624,760.616 705.823,761.221 708.022,761.821 710.22,762.414 712.419,763.002 714.618,763.583 716.817,764.159 719.016,764.73 721.215,765.294 723.414,765.853 725.612,766.406 727.811,766.954 730.01,767.497 732.209,768.034 734.408,768.566 736.607,769.092 738.805,769.614 741.004,770.13 743.203,770.641 745.402,771.147 747.601,771.648 749.8,772.144 751.998,772.635 754.197,773.122 756.396,773.603 758.595,774.08 760.794,774.551 762.993,775.019 765.192,775.481 767.39,775.939 769.589,776.392 771.788,776.841 773.987,777.285 776.186,777.725 778.385,778.161 780.583,778.592 782.782,779.019 784.981,779.441 787.18,779.86 789.379,780.274 791.578,780.684 793.776,781.09 795.975,781.492 798.174,781.89 800.373,782.283 802.572,782.673 804.771,783.059 806.97,783.441 809.168,783.82 811.367,784.194 813.566,784.565 815.765,784.932 817.964,785.296 820.163,785.655 822.361,786.011 824.56,786.364 826.759,786.713 828.958,787.059 831.157,787.401 833.356,787.739 835.554,788.075 837.753,788.407 839.952,788.735 842.151,789.061 844.35,789.383 846.549,789.701 848.748,790.017 850.946,790.33 853.145,790.639 855.344,790.945 857.543,791.249 859.742,791.549 861.941,791.846 864.139,792.141 866.338,792.432 868.537,792.721 870.736,793.006 872.935,793.289 875.134,793.569 877.333,793.846 879.531,794.121 881.73,794.392 883.929,794.661 886.128,794.928 888.327,795.192 890.526,795.453 892.724,795.711 894.923,795.967 897.122,796.221 899.321,796.472 901.52,796.72 903.719,796.966 905.917,797.21 908.116,797.451 910.315,797.69 912.514,797.927 914.713,798.161 916.912,798.393 919.111,798.623 921.309,798.85 923.508,799.075 925.707,799.298 927.906,799.519 930.105,799.737 932.304,799.954 934.502,800.168 936.701,800.38 938.9,800.59 941.099,800.798 943.298,801.003 945.497,801.207 947.695,801.409 949.894,801.608 952.093,801.806 954.292,802.002 956.491,802.195 958.69,802.387 960.889,802.577 963.087,802.765 965.286,802.951 967.485,803.135 969.684,803.318 971.883,803.498 974.082,803.677 976.28,803.854 978.479,804.029 980.678,804.202 982.877,804.374 985.076,804.544 987.275,804.712 989.473,804.878 991.672,805.043 993.871,805.206 996.07,805.368 998.269,805.528 1000.47,805.686 1002.67,805.843 1004.87,805.998 1007.06,806.151 1009.26,806.303 1011.46,806.454 1013.66,806.603 1015.86,806.75 1018.06,806.896 1020.26,807.041 1022.46,807.184 1024.65,807.325 1026.85,807.466 1029.05,807.604 1031.25,807.742 1033.45,807.878 1035.65,808.012 1037.85,808.146 1040.05,808.278 1042.25,808.408 1044.44,808.538 1046.64,808.666 1048.84,808.792 1051.04,808.918 1053.24,809.042 1055.44,809.165 1057.64,809.287 1059.84,809.408 1062.04,809.527 1064.23,809.645 1066.43,809.762 1068.63,809.878 1070.83,809.993 1073.03,810.107 1075.23,810.219 1077.43,810.33 1079.63,810.441 1081.82,810.55 1084.02,810.658 1086.22,810.765 1088.42,810.871 1090.62,810.976 1092.82,811.08 1095.02,811.183 1097.22,811.285 1099.42,811.386 1101.61,811.486 1103.81,811.585 1106.01,811.683 1108.21,811.78 1110.41,811.877 1112.61,811.972 1114.81,812.066 1117.01,812.159 1119.21,812.252 1121.4,812.343 1123.6,812.434 1125.8,812.524 1128,812.613 1130.2,812.701 1132.4,812.788 1134.6,812.874 1136.8,812.96 1138.99,813.044 1141.19,813.128 1143.39,813.211 1145.59,813.293 1147.79,813.374 1149.99,813.455 1152.19,813.534 1154.39,813.613 1156.59,813.691 1158.78,813.769 1160.98,813.845 1163.18,813.921 1165.38,813.996 1167.58,814.07 1169.78,814.143 1171.98,814.216 1174.18,814.288 1176.38,814.359 1178.57,814.43 1180.77,814.5 1182.97,814.569 1185.17,814.637 1187.37,814.705 1189.57,814.772 1191.77,814.839 1193.97,814.904 1196.16,814.969 1198.36,815.034 1200.56,815.097 1202.76,815.16 1204.96,815.223 1207.16,815.285 1209.36,815.346 1211.56,815.406 1213.76,815.466 1215.95,815.526 1218.15,815.584 1220.35,815.642 1222.55,815.7 1224.75,815.757 1226.95,815.813 1229.15,815.869 1231.35,815.924 1233.55,815.979 1235.74,816.033 1237.94,816.086 1240.14,816.139 1242.34,816.192 1244.54,816.244 1246.74,816.295 1248.94,816.346 1251.14,816.396 1253.33,816.446 1255.53,816.496 1257.73,816.544 1259.93,816.593 1262.13,816.641 1264.33,816.688 1266.53,816.735 1268.73,816.781 1270.93,816.827 1273.12,816.873 1275.32,816.918 1277.52,816.962 1279.72,817.007 1281.92,817.05 1284.12,817.094 1286.32,817.136 1288.52,817.179 1290.71,817.221 1292.91,817.263 1295.11,817.304 1297.31,817.345 1299.51,817.385 1301.71,817.425 1303.91,817.465 1306.11,817.504 1308.31,817.543 1310.5,817.581 1312.7,817.619 1314.9,817.657 1317.1,817.694 1319.3,817.731 1321.5,817.768 1323.7,817.804 1325.9,817.84 1328.1,817.876 1330.29,817.911 1332.49,817.946 1334.69,817.981 1336.89,818.015 1339.09,818.049 1341.29,818.083 1343.49,818.116 1345.69,818.15 1347.88,818.182 1350.08,818.215 1352.28,818.247 1354.48,818.279 1356.68,818.31 1358.88,818.341 1361.08,818.372 1363.28,818.403 1365.48,818.433 1367.67,818.463 1369.87,818.493 1372.07,818.522 1374.27,818.551 1376.47,818.58 1378.67,818.609 1380.87,818.637 1383.07,818.665 1385.27,818.693 1387.46,818.72 1389.66,818.747 1391.86,818.774 1394.06,818.801 1396.26,818.827 1398.46,818.853 1400.66,818.879 1402.86,818.905 1405.05,818.93 1407.25,818.955 1409.45,818.98 1411.65,819.004 1413.85,819.029 1416.05,819.053 1418.25,819.076 1420.45,819.1 1422.65,819.123 1424.84,819.146 1427.04,819.169 1429.24,819.192 1431.44,819.214 1433.64,819.236 1435.84,819.258 1438.04,819.28 1440.24,819.301 1442.44,819.323 1444.63,819.344 1446.83,819.364 1449.03,819.385 1451.23,819.405 1453.43,819.426 1455.63,819.445 1457.83,819.465 1460.03,819.485 1462.22,819.504 1464.42,819.523 1466.62,819.542 1468.82,819.561 1471.02,819.579 1473.22,819.598 1475.42,819.616 1477.62,819.634 1479.82,819.652 1482.01,819.669 1484.21,819.687 1486.41,819.704 1488.61,819.721 1490.81,819.738 1493.01,819.754 1495.21,819.771 1497.41,819.787 1499.6,819.803 1501.8,819.819 1504,819.835 1506.2,819.851 1508.4,819.866 1510.6,819.882 1512.8,819.897 1515,819.912 1517.2,819.927 1519.39,819.941 1521.59,819.956 1523.79,819.97 1525.99,819.985 1528.19,819.999 1530.39,820.013 1532.59,820.027 1534.79,820.04 1536.99,820.054 1539.18,820.067 1541.38,820.08 1543.58,820.094 1545.78,820.107 1547.98,820.12 1550.18,820.132 1552.38,820.145 1554.58,820.157 1556.77,820.17 1558.97,820.182 1561.17,820.194 1563.37,820.206 1565.57,820.218 1567.77,820.23 1569.97,820.242 1572.17,820.253 1574.37,820.265 1576.56,820.276 1578.76,820.287 1580.96,820.298 1583.16,820.309 1585.36,820.32 1587.56,820.331 1589.76,820.342 1591.96,820.353 1594.16,820.363 1596.35,820.374 1598.55,820.384 1600.75,820.394 1602.95,820.405 1605.15,820.415 1607.35,820.425 1609.55,820.435 1611.75,820.445 1613.94,820.455 1616.14,820.464 1618.34,820.474 1620.54,820.483 1622.74,820.493 1624.94,820.502 1627.14,820.511 1629.34,820.521 1631.54,820.53 1633.73,820.539 1635.93,820.548 1638.13,820.556 1640.33,820.565 1642.53,820.574 1644.73,820.583 1646.93,820.591 1649.13,820.6 1651.33,820.608 1653.52,820.616 1655.72,820.624 1657.92,820.632 1660.12,820.641 1662.32,820.648 1664.52,820.656 1666.72,820.664 1668.92,820.672 1671.11,820.68 1673.31,820.687 1675.51,820.695 1677.71,820.702 1679.91,820.709 1682.11,820.717 1684.31,820.724 1686.51,820.731 1688.71,820.738 1690.9,820.745 1693.1,820.752 1695.3,820.759 1697.5,820.766 1699.7,820.772 1701.9,820.779 1704.1,820.786 1706.3,820.792 1708.5,820.799 1710.69,820.805 1712.89,820.811 1715.09,820.817 1717.29,820.824 1719.49,820.83 1721.69,820.836 1723.89,820.842 1726.09,820.848 1728.28,820.853 1730.48,820.859 1732.68,820.865 1734.88,820.871 1737.08,820.876 1739.28,820.882 1741.48,820.887 1743.68,820.893 1745.88,820.898 1748.07,820.903 1750.27,820.909 1752.47,820.914 1754.67,820.919 1756.87,820.924 1759.07,820.929 1761.27,820.934 1763.47,820.939 1765.66,820.944 1767.86,820.948 1770.06,820.953 1772.26,820.958 1774.46,820.962 1776.66,820.967 1778.86,820.972 1781.06,820.976 1783.26,820.98 1785.45,820.985 1787.65,820.989 1789.85,820.993 1792.05,820.998 1794.25,821.002 1796.45,821.006 1798.65,821.01 1800.85,821.014 1803.05,821.018 1805.24,821.022 1807.44,821.026 1809.64,821.03 1811.84,821.034 1814.04,821.037 1816.24,821.041 1818.44,821.045 1820.64,821.048 1822.83,821.052 1825.03,821.056 1827.23,821.059 1829.43,821.063 1831.63,821.066 1833.83,821.069 1836.03,821.073 1838.23,821.076 1840.43,821.079 1842.62,821.083 1844.82,821.086 1847.02,821.089 1849.22,821.092 1851.42,821.095 1853.62,821.099 1855.82,821.102 1858.02,821.105 1860.22,821.108 1862.41,821.111 1864.61,821.114 1866.81,821.116 1869.01,821.119 1871.21,821.122 1873.41,821.125 1875.61,821.128 1877.81,821.131 1880,821.133 1882.2,821.136 1884.4,821.139 1886.6,821.141 1888.8,821.144 1891,821.147 1893.2,821.149 1895.4,821.152 1897.6,821.154 1899.79,821.157 1901.99,821.159 1904.19,821.162 1906.39,821.164 1908.59,821.167 1910.79,821.169 1912.99,821.172 1915.19,821.174 1917.39,821.177 1919.58,821.179 1921.78,821.181 1923.98,821.184 1926.18,821.186 1928.38,821.188 1930.58,821.191 1932.78,821.193 1934.98,821.195 1937.17,821.197 1939.37,821.2 1941.57,821.202 1943.77,821.204 1945.97,821.206 1948.17,821.209 1950.37,821.211 1952.57,821.213 1954.77,821.215 1956.96,821.217 1959.16,821.219 1961.36,821.221 1963.56,821.223 1965.76,821.226 1967.96,821.228 1970.16,821.23 1972.36,821.232 1974.55,821.234 1976.75,821.236 1978.95,821.238 1981.15,821.239 1983.35,821.241 1985.55,821.243 1987.75,821.245 1989.95,821.247 1992.15,821.249 1994.34,821.251 1996.54,821.253 1998.74,821.254 2000.94,821.256 2003.14,821.258 2005.34,821.26 2007.54,821.261 2009.74,821.263 2011.94,821.265 2014.13,821.267 2016.33,821.268 2018.53,821.27 2020.73,821.272 2022.93,821.273 2025.13,821.275 2027.33,821.276 2029.53,821.278 2031.72,821.279 2033.92,821.281 2036.12,821.283 2038.32,821.284 2040.52,821.286 2042.72,821.287 2044.92,821.289 2047.12,821.29 2049.32,821.291 2051.51,821.293 2053.71,821.294 2055.91,821.296 2058.11,821.297 2060.31,821.298 2062.51,821.3 2064.71,821.301 2066.91,821.302 2069.11,821.304 2071.3,821.305 2073.5,821.306 2075.7,821.307 2077.9,821.309 2080.1,821.31 2082.3,821.311 2084.5,821.312 2086.7,821.313 2088.89,821.315 2091.09,821.316 2093.29,821.317 2095.49,821.318 2097.69,821.319 2099.89,821.32 2102.09,821.321 2104.29,821.322 2106.49,821.323 2108.68,821.325 2110.88,821.326 2113.08,821.327 2115.28,821.328 2117.48,821.329 2119.68,821.33 2121.88,821.33 2124.08,821.331 2126.28,821.332 2128.47,821.333 2130.67,821.334 2132.87,821.335 2135.07,821.336 2137.27,821.337 2139.47,821.338 2141.67,821.339 2143.87,821.339 2146.06,821.34 2148.26,821.341 2150.46,821.342 2152.66,821.343 2154.86,821.343 2157.06,821.344 2159.26,821.345 2161.46,821.346 2163.66,821.346 2165.85,821.347 2168.05,821.348 2170.25,821.349 2172.45,821.349 2174.65,821.35 2176.85,821.351 2179.05,821.351 2181.25,821.352 2183.45,821.353 2185.64,821.353 2187.84,821.354 2190.04,821.355 2192.24,821.355 2194.44,821.356 2196.64,821.356 2198.84,821.357 2201.04,821.358 2203.23,821.358 2205.43,821.359 2207.63,821.359 2209.83,821.36 2212.03,821.36 2214.23,821.361 2216.43,821.361 2218.63,821.362 2220.83,821.362 2223.02,821.363 2225.22,821.363 2227.42,821.364 2229.62,821.364 2231.82,821.365 2234.02,821.365 2236.22,821.366 2238.42,821.366 2240.61,821.367 2242.81,821.367 2245.01,821.368 2247.21,821.368 2249.41,821.368 2251.61,821.369 2253.81,821.369 2256.01,821.37 2258.21,821.37 2260.4,821.371 2262.6,821.371 2264.8,821.371 2267,821.372 2269.2,821.372 2271.4,821.372 2273.6,821.373 2275.8,821.373 2278,821.374 2280.19,821.374 2282.39,821.374 2284.59,821.375 2286.79,821.375 2288.99,821.376 2291.19,821.376 2293.39,821.376 2295.59,821.377 2297.78,821.377 2299.98,821.377 2302.18,821.378 2304.38,821.378 2306.58,821.379 2308.78,821.379 2310.98,821.379 2313.18,821.38 2315.38,821.38 2317.57,821.38 2319.77,821.381 2321.97,821.381 2324.17,821.381 2326.37,821.382 2328.57,821.382 2330.77,821.383 2332.97,821.383 2335.17,821.383 2337.36,821.384 2339.56,821.384 2341.76,821.385 2343.96,821.385 2346.16,821.385 2348.36,821.386 2350.56,821.386 2352.76,821.386 "/>
<polyline clip-path="url(#clip592)" style="stroke:#e26f46; stroke-linecap:round; stroke-linejoin:round; stroke-width:4; stroke-opacity:1; fill:none" points="156.112,1384.24 158.311,1379.71 160.51,1375.22 162.709,1370.77 164.907,1366.36 167.106,1361.99 169.305,1357.65 171.504,1353.35 173.703,1349.08 175.902,1344.86 178.101,1340.67 180.299,1336.51 182.498,1332.39 184.697,1328.3 186.896,1324.25 189.095,1320.24 191.294,1316.25 193.492,1312.31 195.691,1308.39 197.89,1304.51 200.089,1300.66 202.288,1296.84 204.487,1293.06 206.686,1289.31 208.884,1285.59 211.083,1281.9 213.282,1278.24 215.481,1274.61 217.68,1271.01 219.879,1267.45 222.077,1263.91 224.276,1260.41 226.475,1256.93 228.674,1253.48 230.873,1250.06 233.072,1246.67 235.27,1243.31 237.469,1239.98 239.668,1236.67 241.867,1233.4 244.066,1230.15 246.265,1226.92 248.464,1223.73 250.662,1220.56 252.861,1217.42 255.06,1214.3 257.259,1211.21 259.458,1208.15 261.657,1205.11 263.855,1202.1 266.054,1199.11 268.253,1196.15 270.452,1193.21 272.651,1190.29 274.85,1187.4 277.048,1184.54 279.247,1181.7 281.446,1178.88 283.645,1176.09 285.844,1173.31 288.043,1170.57 290.242,1167.84 292.44,1165.14 294.639,1162.46 296.838,1159.8 299.037,1157.16 301.236,1154.55 303.435,1151.96 305.633,1149.39 307.832,1146.84 310.031,1144.31 312.23,1141.8 314.429,1139.32 316.628,1136.85 318.826,1134.4 321.025,1131.98 323.224,1129.57 325.423,1127.19 327.622,1124.82 329.821,1122.47 332.02,1120.15 334.218,1117.84 336.417,1115.55 338.616,1113.28 340.815,1111.03 343.014,1108.79 345.213,1106.58 347.411,1104.38 349.61,1102.2 351.809,1100.04 354.008,1097.9 356.207,1095.77 358.406,1093.67 360.604,1091.58 362.803,1089.5 365.002,1087.45 367.201,1085.41 369.4,1083.38 371.599,1081.38 373.798,1079.39 375.996,1077.41 378.195,1075.45 380.394,1073.51 382.593,1071.58 384.792,1069.67 386.991,1067.78 389.189,1065.9 391.388,1064.03 393.587,1062.19 395.786,1060.35 397.985,1058.53 400.184,1056.73 402.382,1054.94 404.581,1053.16 406.78,1051.4 408.979,1049.66 411.178,1047.92 413.377,1046.2 415.576,1044.5 417.774,1042.81 419.973,1041.13 422.172,1039.47 424.371,1037.82 426.57,1036.18 428.769,1034.56 430.967,1032.95 433.166,1031.35 435.365,1029.76 437.564,1028.19 439.763,1026.63 441.962,1025.09 444.161,1023.55 446.359,1022.03 448.558,1020.52 450.757,1019.02 452.956,1017.54 455.155,1016.06 457.354,1014.6 459.552,1013.15 461.751,1011.71 463.95,1010.29 466.149,1008.87 468.348,1007.46 470.547,1006.07 472.745,1004.69 474.944,1003.32 477.143,1001.96 479.342,1000.61 481.541,999.27 483.74,997.942 485.939,996.624 488.137,995.317 490.336,994.021 492.535,992.735 494.734,991.459 496.933,990.193 499.132,988.937 501.33,987.691 503.529,986.455 505.728,985.229 507.927,984.013 510.126,982.806 512.325,981.609 514.523,980.421 516.722,979.243 518.921,978.073 521.12,976.914 523.319,975.763 525.518,974.621 527.717,973.489 529.915,972.365 532.114,971.251 534.313,970.145 536.512,969.047 538.711,967.959 540.91,966.879 543.108,965.807 545.307,964.744 547.506,963.689 549.705,962.642 551.904,961.604 554.103,960.574 556.301,959.552 558.5,958.538 560.699,957.531 562.898,956.533 565.097,955.543 567.296,954.56 569.495,953.585 571.693,952.617 573.892,951.657 576.091,950.705 578.29,949.76 580.489,948.822 582.688,947.891 584.886,946.968 587.085,946.052 589.284,945.143 591.483,944.241 593.682,943.346 595.881,942.458 598.079,941.577 600.278,940.703 602.477,939.835 604.676,938.975 606.875,938.12 609.074,937.273 611.273,936.432 613.471,935.597 615.67,934.769 617.869,933.948 620.068,933.132 622.267,932.323 624.466,931.521 626.664,930.724 628.863,929.934 631.062,929.149 633.261,928.371 635.46,927.599 637.659,926.833 639.858,926.072 642.056,925.318 644.255,924.569 646.454,923.826 648.653,923.089 650.852,922.357 653.051,921.631 655.249,920.91 657.448,920.195 659.647,919.486 661.846,918.782 664.045,918.083 666.244,917.39 668.442,916.702 670.641,916.019 672.84,915.342 675.039,914.669 677.238,914.002 679.437,913.34 681.636,912.683 683.834,912.031 686.033,911.384 688.232,910.741 690.431,910.104 692.63,909.472 694.829,908.844 697.027,908.221 699.226,907.603 701.425,906.989 703.624,906.38 705.823,905.776 708.022,905.176 710.22,904.581 712.419,903.99 714.618,903.404 716.817,902.822 719.016,902.245 721.215,901.672 723.414,901.103 725.612,900.538 727.811,899.978 730.01,899.422 732.209,898.87 734.408,898.322 736.607,897.779 738.805,897.239 741.004,896.703 743.203,896.172 745.402,895.644 747.601,895.121 749.8,894.601 751.998,894.085 754.197,893.573 756.396,893.065 758.595,892.56 760.794,892.06 762.993,891.563 765.192,891.07 767.39,890.58 769.589,890.094 771.788,889.612 773.987,889.134 776.186,888.659 778.385,888.187 780.583,887.719 782.782,887.255 784.981,886.794 787.18,886.336 789.379,885.882 791.578,885.431 793.776,884.984 795.975,884.54 798.174,884.099 800.373,883.661 802.572,883.227 804.771,882.796 806.97,882.368 809.168,881.943 811.367,881.522 813.566,881.103 815.765,880.688 817.964,880.276 820.163,879.867 822.361,879.46 824.56,879.057 826.759,878.657 828.958,878.26 831.157,877.865 833.356,877.474 835.554,877.085 837.753,876.7 839.952,876.317 842.151,875.937 844.35,875.56 846.549,875.185 848.748,874.813 850.946,874.444 853.145,874.078 855.344,873.715 857.543,873.354 859.742,872.995 861.941,872.64 864.139,872.287 866.338,871.936 868.537,871.588 870.736,871.243 872.935,870.9 875.134,870.559 877.333,870.221 879.531,869.886 881.73,869.553 883.929,869.222 886.128,868.894 888.327,868.568 890.526,868.244 892.724,867.923 894.923,867.604 897.122,867.288 899.321,866.973 901.52,866.661 903.719,866.352 905.917,866.044 908.116,865.739 910.315,865.436 912.514,865.135 914.713,864.836 916.912,864.539 919.111,864.245 921.309,863.952 923.508,863.662 925.707,863.374 927.906,863.087 930.105,862.803 932.304,862.521 934.502,862.241 936.701,861.963 938.9,861.687 941.099,861.413 943.298,861.141 945.497,860.871 947.695,860.603 949.894,860.337 952.093,860.072 954.292,859.81 956.491,859.549 958.69,859.291 960.889,859.034 963.087,858.779 965.286,858.526 967.485,858.274 969.684,858.025 971.883,857.777 974.082,857.531 976.28,857.287 978.479,857.044 980.678,856.804 982.877,856.565 985.076,856.327 987.275,856.092 989.473,855.858 991.672,855.626 993.871,855.395 996.07,855.166 998.269,854.939 1000.47,854.713 1002.67,854.489 1004.87,854.267 1007.06,854.046 1009.26,853.827 1011.46,853.609 1013.66,853.393 1015.86,853.178 1018.06,852.965 1020.26,852.753 1022.46,852.543 1024.65,852.334 1026.85,852.127 1029.05,851.921 1031.25,851.717 1033.45,851.514 1035.65,851.313 1037.85,851.113 1040.05,850.915 1042.25,850.717 1044.44,850.522 1046.64,850.327 1048.84,850.134 1051.04,849.943 1053.24,849.752 1055.44,849.563 1057.64,849.376 1059.84,849.189 1062.04,849.004 1064.23,848.82 1066.43,848.638 1068.63,848.457 1070.83,848.277 1073.03,848.098 1075.23,847.921 1077.43,847.745 1079.63,847.57 1081.82,847.396 1084.02,847.223 1086.22,847.052 1088.42,846.882 1090.62,846.713 1092.82,846.545 1095.02,846.378 1097.22,846.213 1099.42,846.048 1101.61,845.885 1103.81,845.723 1106.01,845.562 1108.21,845.402 1110.41,845.243 1112.61,845.085 1114.81,844.929 1117.01,844.773 1119.21,844.619 1121.4,844.465 1123.6,844.313 1125.8,844.161 1128,844.011 1130.2,843.862 1132.4,843.714 1134.6,843.567 1136.8,843.42 1138.99,843.275 1141.19,843.131 1143.39,842.988 1145.59,842.846 1147.79,842.704 1149.99,842.564 1152.19,842.425 1154.39,842.287 1156.59,842.149 1158.78,842.013 1160.98,841.877 1163.18,841.743 1165.38,841.609 1167.58,841.477 1169.78,841.345 1171.98,841.214 1174.18,841.084 1176.38,840.955 1178.57,840.827 1180.77,840.7 1182.97,840.573 1185.17,840.448 1187.37,840.323 1189.57,840.199 1191.77,840.076 1193.97,839.954 1196.16,839.833 1198.36,839.712 1200.56,839.593 1202.76,839.474 1204.96,839.356 1207.16,839.239 1209.36,839.123 1211.56,839.007 1213.76,838.892 1215.95,838.778 1218.15,838.665 1220.35,838.553 1222.55,838.441 1224.75,838.33 1226.95,838.22 1229.15,838.111 1231.35,838.002 1233.55,837.894 1235.74,837.787 1237.94,837.681 1240.14,837.575 1242.34,837.47 1244.54,837.366 1246.74,837.262 1248.94,837.16 1251.14,837.058 1253.33,836.956 1255.53,836.855 1257.73,836.755 1259.93,836.656 1262.13,836.557 1264.33,836.459 1266.53,836.362 1268.73,836.265 1270.93,836.169 1273.12,836.074 1275.32,835.979 1277.52,835.885 1279.72,835.791 1281.92,835.699 1284.12,835.606 1286.32,835.515 1288.52,835.424 1290.71,835.333 1292.91,835.244 1295.11,835.154 1297.31,835.066 1299.51,834.978 1301.71,834.89 1303.91,834.803 1306.11,834.717 1308.31,834.632 1310.5,834.546 1312.7,834.462 1314.9,834.378 1317.1,834.294 1319.3,834.212 1321.5,834.129 1323.7,834.047 1325.9,833.966 1328.1,833.885 1330.29,833.805 1332.49,833.726 1334.69,833.646 1336.89,833.568 1339.09,833.49 1341.29,833.412 1343.49,833.335 1345.69,833.258 1347.88,833.182 1350.08,833.107 1352.28,833.032 1354.48,832.957 1356.68,832.883 1358.88,832.809 1361.08,832.736 1363.28,832.663 1365.48,832.591 1367.67,832.52 1369.87,832.448 1372.07,832.378 1374.27,832.307 1376.47,832.237 1378.67,832.168 1380.87,832.099 1383.07,832.031 1385.27,831.963 1387.46,831.895 1389.66,831.828 1391.86,831.762 1394.06,831.695 1396.26,831.63 1398.46,831.564 1400.66,831.499 1402.86,831.435 1405.05,831.371 1407.25,831.307 1409.45,831.244 1411.65,831.181 1413.85,831.119 1416.05,831.057 1418.25,830.996 1420.45,830.934 1422.65,830.874 1424.84,830.813 1427.04,830.754 1429.24,830.694 1431.44,830.635 1433.64,830.576 1435.84,830.518 1438.04,830.46 1440.24,830.402 1442.44,830.345 1444.63,830.289 1446.83,830.232 1449.03,830.176 1451.23,830.12 1453.43,830.065 1455.63,830.01 1457.83,829.956 1460.03,829.902 1462.22,829.848 1464.42,829.794 1466.62,829.741 1468.82,829.688 1471.02,829.636 1473.22,829.584 1475.42,829.532 1477.62,829.481 1479.82,829.43 1482.01,829.379 1484.21,829.329 1486.41,829.279 1488.61,829.229 1490.81,829.18 1493.01,829.131 1495.21,829.082 1497.41,829.034 1499.6,828.985 1501.8,828.938 1504,828.89 1506.2,828.843 1508.4,828.796 1510.6,828.75 1512.8,828.704 1515,828.658 1517.2,828.612 1519.39,828.567 1521.59,828.522 1523.79,828.477 1525.99,828.433 1528.19,828.389 1530.39,828.345 1532.59,828.301 1534.79,828.258 1536.99,828.215 1539.18,828.172 1541.38,828.13 1543.58,828.088 1545.78,828.046 1547.98,828.004 1550.18,827.963 1552.38,827.922 1554.58,827.881 1556.77,827.84 1558.97,827.8 1561.17,827.76 1563.37,827.72 1565.57,827.681 1567.77,827.642 1569.97,827.603 1572.17,827.564 1574.37,827.525 1576.56,827.487 1578.76,827.449 1580.96,827.411 1583.16,827.374 1585.36,827.336 1587.56,827.299 1589.76,827.262 1591.96,827.226 1594.16,827.189 1596.35,827.153 1598.55,827.117 1600.75,827.082 1602.95,827.046 1605.15,827.011 1607.35,826.976 1609.55,826.941 1611.75,826.906 1613.94,826.872 1616.14,826.838 1618.34,826.804 1620.54,826.77 1622.74,826.737 1624.94,826.703 1627.14,826.67 1629.34,826.637 1631.54,826.604 1633.73,826.572 1635.93,826.54 1638.13,826.508 1640.33,826.476 1642.53,826.444 1644.73,826.412 1646.93,826.381 1649.13,826.35 1651.33,826.319 1653.52,826.288 1655.72,826.258 1657.92,826.228 1660.12,826.198 1662.32,826.168 1664.52,826.138 1666.72,826.108 1668.92,826.079 1671.11,826.05 1673.31,826.021 1675.51,825.992 1677.71,825.963 1679.91,825.935 1682.11,825.907 1684.31,825.879 1686.51,825.851 1688.71,825.823 1690.9,825.796 1693.1,825.768 1695.3,825.741 1697.5,825.714 1699.7,825.687 1701.9,825.661 1704.1,825.634 1706.3,825.608 1708.5,825.582 1710.69,825.556 1712.89,825.53 1715.09,825.504 1717.29,825.479 1719.49,825.453 1721.69,825.428 1723.89,825.403 1726.09,825.379 1728.28,825.354 1730.48,825.329 1732.68,825.305 1734.88,825.281 1737.08,825.257 1739.28,825.233 1741.48,825.209 1743.68,825.186 1745.88,825.162 1748.07,825.139 1750.27,825.116 1752.47,825.093 1754.67,825.07 1756.87,825.048 1759.07,825.025 1761.27,825.003 1763.47,824.98 1765.66,824.958 1767.86,824.936 1770.06,824.915 1772.26,824.893 1774.46,824.872 1776.66,824.85 1778.86,824.829 1781.06,824.808 1783.26,824.787 1785.45,824.766 1787.65,824.745 1789.85,824.725 1792.05,824.705 1794.25,824.684 1796.45,824.664 1798.65,824.644 1800.85,824.624 1803.05,824.604 1805.24,824.585 1807.44,824.565 1809.64,824.546 1811.84,824.527 1814.04,824.508 1816.24,824.489 1818.44,824.47 1820.64,824.451 1822.83,824.432 1825.03,824.414 1827.23,824.395 1829.43,824.377 1831.63,824.359 1833.83,824.341 1836.03,824.323 1838.23,824.305 1840.43,824.287 1842.62,824.27 1844.82,824.252 1847.02,824.235 1849.22,824.218 1851.42,824.201 1853.62,824.183 1855.82,824.167 1858.02,824.15 1860.22,824.133 1862.41,824.116 1864.61,824.1 1866.81,824.083 1869.01,824.067 1871.21,824.051 1873.41,824.035 1875.61,824.019 1877.81,824.003 1880,823.987 1882.2,823.971 1884.4,823.956 1886.6,823.94 1888.8,823.925 1891,823.91 1893.2,823.894 1895.4,823.879 1897.6,823.864 1899.79,823.849 1901.99,823.834 1904.19,823.82 1906.39,823.805 1908.59,823.79 1910.79,823.776 1912.99,823.761 1915.19,823.747 1917.39,823.733 1919.58,823.719 1921.78,823.704 1923.98,823.69 1926.18,823.677 1928.38,823.663 1930.58,823.649 1932.78,823.635 1934.98,823.622 1937.17,823.608 1939.37,823.595 1941.57,823.581 1943.77,823.568 1945.97,823.555 1948.17,823.542 1950.37,823.529 1952.57,823.516 1954.77,823.503 1956.96,823.49 1959.16,823.477 1961.36,823.464 1963.56,823.452 1965.76,823.439 1967.96,823.427 1970.16,823.415 1972.36,823.402 1974.55,823.39 1976.75,823.378 1978.95,823.366 1981.15,823.354 1983.35,823.342 1985.55,823.33 1987.75,823.318 1989.95,823.307 1992.15,823.295 1994.34,823.283 1996.54,823.272 1998.74,823.26 2000.94,823.249 2003.14,823.238 2005.34,823.227 2007.54,823.215 2009.74,823.204 2011.94,823.193 2014.13,823.182 2016.33,823.172 2018.53,823.161 2020.73,823.15 2022.93,823.139 2025.13,823.129 2027.33,823.118 2029.53,823.108 2031.72,823.097 2033.92,823.087 2036.12,823.077 2038.32,823.067 2040.52,823.056 2042.72,823.046 2044.92,823.036 2047.12,823.026 2049.32,823.016 2051.51,823.007 2053.71,822.997 2055.91,822.987 2058.11,822.978 2060.31,822.968 2062.51,822.958 2064.71,822.949 2066.91,822.94 2069.11,822.93 2071.3,822.921 2073.5,822.912 2075.7,822.903 2077.9,822.893 2080.1,822.884 2082.3,822.875 2084.5,822.867 2086.7,822.858 2088.89,822.849 2091.09,822.84 2093.29,822.831 2095.49,822.823 2097.69,822.814 2099.89,822.806 2102.09,822.797 2104.29,822.789 2106.49,822.78 2108.68,822.772 2110.88,822.764 2113.08,822.756 2115.28,822.747 2117.48,822.739 2119.68,822.731 2121.88,822.723 2124.08,822.715 2126.28,822.707 2128.47,822.7 2130.67,822.692 2132.87,822.684 2135.07,822.676 2137.27,822.669 2139.47,822.661 2141.67,822.654 2143.87,822.646 2146.06,822.639 2148.26,822.631 2150.46,822.624 2152.66,822.617 2154.86,822.609 2157.06,822.602 2159.26,822.595 2161.46,822.588 2163.66,822.581 2165.85,822.574 2168.05,822.567 2170.25,822.56 2172.45,822.553 2174.65,822.546 2176.85,822.539 2179.05,822.533 2181.25,822.526 2183.45,822.519 2185.64,822.513 2187.84,822.506 2190.04,822.499 2192.24,822.493 2194.44,822.487 2196.64,822.48 2198.84,822.474 2201.04,822.467 2203.23,822.461 2205.43,822.455 2207.63,822.449 2209.83,822.443 2212.03,822.436 2214.23,822.43 2216.43,822.424 2218.63,822.418 2220.83,822.412 2223.02,822.406 2225.22,822.4 2227.42,822.395 2229.62,822.389 2231.82,822.383 2234.02,822.377 2236.22,822.371 2238.42,822.366 2240.61,822.36 2242.81,822.355 2245.01,822.349 2247.21,822.343 2249.41,822.338 2251.61,822.332 2253.81,822.327 2256.01,822.322 2258.21,822.316 2260.4,822.311 2262.6,822.306 2264.8,822.3 2267,822.295 2269.2,822.29 2271.4,822.285 2273.6,822.279 2275.8,822.274 2278,822.269 2280.19,822.264 2282.39,822.259 2284.59,822.254 2286.79,822.249 2288.99,822.244 2291.19,822.239 2293.39,822.234 2295.59,822.23 2297.78,822.225 2299.98,822.22 2302.18,822.215 2304.38,822.21 2306.58,822.206 2308.78,822.201 2310.98,822.196 2313.18,822.192 2315.38,822.187 2317.57,822.182 2319.77,822.178 2321.97,822.173 2324.17,822.169 2326.37,822.164 2328.57,822.16 2330.77,822.155 2332.97,822.151 2335.17,822.146 2337.36,822.142 2339.56,822.138 2341.76,822.133 2343.96,822.129 2346.16,822.125 2348.36,822.121 2350.56,822.116 2352.76,822.112 "/>
<path clip-path="url(#clip590)" d="M1800.47 248.629 L2279.53 248.629 L2279.53 93.1086 L1800.47 93.1086  Z" fill="#ffffff" fill-rule="evenodd" fill-opacity="1"/>
<polyline clip-path="url(#clip590)" style="stroke:#000000; stroke-linecap:round; stroke-linejoin:round; stroke-width:4; stroke-opacity:1; fill:none" points="1800.47,248.629 2279.53,248.629 2279.53,93.1086 1800.47,93.1086 1800.47,248.629 "/>
<polyline clip-path="url(#clip590)" style="stroke:#009af9; stroke-linecap:round; stroke-linejoin:round; stroke-width:4; stroke-opacity:1; fill:none" points="1824.88,144.949 1971.32,144.949 "/>
<path clip-path="url(#clip590)" d="M1995.73 136.303 L2000.24 136.303 L2008.35 158.062 L2016.45 136.303 L2020.96 136.303 L2011.24 162.229 L2005.45 162.229 L1995.73 136.303 Z" fill="#000000" fill-rule="nonzero" fill-opacity="1" /><path clip-path="url(#clip590)" d="M2028.25 158.293 L2035.89 158.293 L2035.89 131.928 L2027.58 133.595 L2027.58 129.335 L2035.85 127.669 L2040.52 127.669 L2040.52 158.293 L2048.16 158.293 L2048.16 162.229 L2028.25 162.229 L2028.25 158.293 Z" fill="#000000" fill-rule="nonzero" fill-opacity="1" /><path clip-path="url(#clip590)" d="M2066.26 145.585 L2066.26 152.807 L2074.39 152.807 L2074.39 155.006 L2066.26 155.006 L2066.26 162.229 L2063.83 162.229 L2063.83 155.006 L2055.71 155.006 L2055.71 152.807 L2063.83 152.807 L2063.83 145.585 L2066.26 145.585 Z" fill="#000000" fill-rule="nonzero" fill-opacity="1" /><path clip-path="url(#clip590)" d="M2098.55 137.067 L2098.55 141.094 Q2096.75 140.169 2094.8 139.706 Q2092.86 139.243 2090.78 139.243 Q2087.61 139.243 2086.01 140.215 Q2084.43 141.187 2084.43 143.131 Q2084.43 144.613 2085.57 145.469 Q2086.7 146.303 2090.13 147.067 L2091.59 147.391 Q2096.12 148.363 2098.02 150.145 Q2099.94 151.905 2099.94 155.076 Q2099.94 158.687 2097.07 160.793 Q2094.23 162.9 2089.23 162.9 Q2087.14 162.9 2084.87 162.483 Q2082.63 162.09 2080.13 161.28 L2080.13 156.881 Q2082.49 158.108 2084.78 158.733 Q2087.07 159.335 2089.32 159.335 Q2092.33 159.335 2093.95 158.317 Q2095.57 157.275 2095.57 155.4 Q2095.57 153.664 2094.39 152.738 Q2093.23 151.812 2089.27 150.956 L2087.79 150.608 Q2083.83 149.775 2082.07 148.062 Q2080.31 146.326 2080.31 143.317 Q2080.31 139.659 2082.91 137.669 Q2085.5 135.678 2090.27 135.678 Q2092.63 135.678 2094.71 136.025 Q2096.79 136.372 2098.55 137.067 Z" fill="#000000" fill-rule="nonzero" fill-opacity="1" /><path clip-path="url(#clip590)" d="M2110.94 128.942 L2110.94 136.303 L2119.71 136.303 L2119.71 139.613 L2110.94 139.613 L2110.94 153.687 Q2110.94 156.858 2111.79 157.761 Q2112.67 158.664 2115.34 158.664 L2119.71 158.664 L2119.71 162.229 L2115.34 162.229 Q2110.41 162.229 2108.53 160.4 Q2106.66 158.548 2106.66 153.687 L2106.66 139.613 L2103.53 139.613 L2103.53 136.303 L2106.66 136.303 L2106.66 128.942 L2110.94 128.942 Z" fill="#000000" fill-rule="nonzero" fill-opacity="1" /><path clip-path="url(#clip590)" d="M2135.36 139.289 Q2131.93 139.289 2129.94 141.974 Q2127.95 144.636 2127.95 149.289 Q2127.95 153.942 2129.92 156.627 Q2131.91 159.289 2135.36 159.289 Q2138.76 159.289 2140.75 156.604 Q2142.74 153.918 2142.74 149.289 Q2142.74 144.682 2140.75 141.997 Q2138.76 139.289 2135.36 139.289 M2135.36 135.678 Q2140.91 135.678 2144.09 139.289 Q2147.26 142.9 2147.26 149.289 Q2147.26 155.655 2144.09 159.289 Q2140.91 162.9 2135.36 162.9 Q2129.78 162.9 2126.61 159.289 Q2123.46 155.655 2123.46 149.289 Q2123.46 142.9 2126.61 139.289 Q2129.78 135.678 2135.36 135.678 Z" fill="#000000" fill-rule="nonzero" fill-opacity="1" /><path clip-path="url(#clip590)" d="M2169.34 140.284 Q2168.62 139.868 2167.77 139.682 Q2166.93 139.474 2165.91 139.474 Q2162.3 139.474 2160.36 141.835 Q2158.44 144.173 2158.44 148.571 L2158.44 162.229 L2154.16 162.229 L2154.16 136.303 L2158.44 136.303 L2158.44 140.331 Q2159.78 137.969 2161.93 136.835 Q2164.09 135.678 2167.16 135.678 Q2167.6 135.678 2168.14 135.747 Q2168.67 135.794 2169.32 135.909 L2169.34 140.284 Z" fill="#000000" fill-rule="nonzero" fill-opacity="1" /><path clip-path="url(#clip590)" d="M2185.59 149.196 Q2180.43 149.196 2178.44 150.377 Q2176.45 151.557 2176.45 154.405 Q2176.45 156.673 2177.93 158.016 Q2179.43 159.335 2182 159.335 Q2185.54 159.335 2187.67 156.835 Q2189.83 154.312 2189.83 150.145 L2189.83 149.196 L2185.59 149.196 M2194.09 147.437 L2194.09 162.229 L2189.83 162.229 L2189.83 158.293 Q2188.37 160.655 2186.19 161.789 Q2184.02 162.9 2180.87 162.9 Q2176.89 162.9 2174.53 160.678 Q2172.19 158.432 2172.19 154.682 Q2172.19 150.307 2175.1 148.085 Q2178.04 145.863 2183.85 145.863 L2189.83 145.863 L2189.83 145.446 Q2189.83 142.507 2187.88 140.909 Q2185.96 139.289 2182.47 139.289 Q2180.24 139.289 2178.14 139.821 Q2176.03 140.354 2174.09 141.419 L2174.09 137.483 Q2176.42 136.581 2178.62 136.141 Q2180.82 135.678 2182.91 135.678 Q2188.53 135.678 2191.31 138.594 Q2194.09 141.511 2194.09 147.437 Z" fill="#000000" fill-rule="nonzero" fill-opacity="1" /><path clip-path="url(#clip590)" d="M2219.92 148.965 Q2219.92 144.335 2218 141.789 Q2216.1 139.243 2212.65 139.243 Q2209.22 139.243 2207.3 141.789 Q2205.41 144.335 2205.41 148.965 Q2205.41 153.571 2207.3 156.118 Q2209.22 158.664 2212.65 158.664 Q2216.1 158.664 2218 156.118 Q2219.92 153.571 2219.92 148.965 M2224.18 159.011 Q2224.18 165.631 2221.24 168.849 Q2218.3 172.09 2212.23 172.09 Q2209.99 172.09 2208 171.742 Q2206.01 171.418 2204.13 170.724 L2204.13 166.58 Q2206.01 167.599 2207.84 168.085 Q2209.66 168.571 2211.56 168.571 Q2215.75 168.571 2217.84 166.372 Q2219.92 164.196 2219.92 159.775 L2219.92 157.668 Q2218.6 159.96 2216.54 161.094 Q2214.48 162.229 2211.61 162.229 Q2206.84 162.229 2203.92 158.594 Q2201.01 154.96 2201.01 148.965 Q2201.01 142.946 2203.92 139.312 Q2206.84 135.678 2211.61 135.678 Q2214.48 135.678 2216.54 136.812 Q2218.6 137.946 2219.92 140.238 L2219.92 136.303 L2224.18 136.303 L2224.18 159.011 Z" fill="#000000" fill-rule="nonzero" fill-opacity="1" /><path clip-path="url(#clip590)" d="M2255.13 148.201 L2255.13 150.284 L2235.54 150.284 Q2235.82 154.682 2238.18 156.997 Q2240.57 159.289 2244.8 159.289 Q2247.26 159.289 2249.55 158.687 Q2251.86 158.085 2254.13 156.881 L2254.13 160.909 Q2251.84 161.881 2249.43 162.391 Q2247.03 162.9 2244.55 162.9 Q2238.34 162.9 2234.71 159.289 Q2231.1 155.678 2231.1 149.52 Q2231.1 143.155 2234.53 139.428 Q2237.97 135.678 2243.81 135.678 Q2249.04 135.678 2252.07 139.057 Q2255.13 142.414 2255.13 148.201 M2250.87 146.951 Q2250.82 143.456 2248.9 141.372 Q2247 139.289 2243.85 139.289 Q2240.29 139.289 2238.14 141.303 Q2236.01 143.317 2235.68 146.974 L2250.87 146.951 Z" fill="#000000" fill-rule="nonzero" fill-opacity="1" /><polyline clip-path="url(#clip590)" style="stroke:#e26f46; stroke-linecap:round; stroke-linejoin:round; stroke-width:4; stroke-opacity:1; fill:none" points="1824.88,196.789 1971.32,196.789 "/>
<path clip-path="url(#clip590)" d="M1995.73 188.143 L2000.24 188.143 L2008.35 209.902 L2016.45 188.143 L2020.96 188.143 L2011.24 214.069 L2005.45 214.069 L1995.73 188.143 Z" fill="#000000" fill-rule="nonzero" fill-opacity="1" /><path clip-path="url(#clip590)" d="M2027.49 179.509 L2045.85 179.509 L2045.85 183.444 L2031.77 183.444 L2031.77 191.916 Q2032.79 191.569 2033.81 191.407 Q2034.83 191.222 2035.85 191.222 Q2041.63 191.222 2045.01 194.393 Q2048.39 197.564 2048.39 202.981 Q2048.39 208.559 2044.92 211.661 Q2041.45 214.74 2035.13 214.74 Q2032.95 214.74 2030.68 214.37 Q2028.44 213.999 2026.03 213.258 L2026.03 208.559 Q2028.11 209.694 2030.34 210.249 Q2032.56 210.805 2035.04 210.805 Q2039.04 210.805 2041.38 208.698 Q2043.72 206.592 2043.72 202.981 Q2043.72 199.37 2041.38 197.263 Q2039.04 195.157 2035.04 195.157 Q2033.16 195.157 2031.29 195.573 Q2029.43 195.99 2027.49 196.87 L2027.49 179.509 Z" fill="#000000" fill-rule="nonzero" fill-opacity="1" /><path clip-path="url(#clip590)" d="M2066.26 197.425 L2066.26 204.647 L2074.39 204.647 L2074.39 206.846 L2066.26 206.846 L2066.26 214.069 L2063.83 214.069 L2063.83 206.846 L2055.71 206.846 L2055.71 204.647 L2063.83 204.647 L2063.83 197.425 L2066.26 197.425 Z" fill="#000000" fill-rule="nonzero" fill-opacity="1" /><path clip-path="url(#clip590)" d="M2098.55 188.907 L2098.55 192.934 Q2096.75 192.009 2094.8 191.546 Q2092.86 191.083 2090.78 191.083 Q2087.61 191.083 2086.01 192.055 Q2084.43 193.027 2084.43 194.971 Q2084.43 196.453 2085.57 197.309 Q2086.7 198.143 2090.13 198.907 L2091.59 199.231 Q2096.12 200.203 2098.02 201.985 Q2099.94 203.745 2099.94 206.916 Q2099.94 210.527 2097.07 212.633 Q2094.23 214.74 2089.23 214.74 Q2087.14 214.74 2084.87 214.323 Q2082.63 213.93 2080.13 213.12 L2080.13 208.721 Q2082.49 209.948 2084.78 210.573 Q2087.07 211.175 2089.32 211.175 Q2092.33 211.175 2093.95 210.157 Q2095.57 209.115 2095.57 207.24 Q2095.57 205.504 2094.39 204.578 Q2093.23 203.652 2089.27 202.796 L2087.79 202.448 Q2083.83 201.615 2082.07 199.902 Q2080.31 198.166 2080.31 195.157 Q2080.31 191.499 2082.91 189.509 Q2085.5 187.518 2090.27 187.518 Q2092.63 187.518 2094.71 187.865 Q2096.79 188.212 2098.55 188.907 Z" fill="#000000" fill-rule="nonzero" fill-opacity="1" /><path clip-path="url(#clip590)" d="M2110.94 180.782 L2110.94 188.143 L2119.71 188.143 L2119.71 191.453 L2110.94 191.453 L2110.94 205.527 Q2110.94 208.698 2111.79 209.601 Q2112.67 210.504 2115.34 210.504 L2119.71 210.504 L2119.71 214.069 L2115.34 214.069 Q2110.41 214.069 2108.53 212.24 Q2106.66 210.388 2106.66 205.527 L2106.66 191.453 L2103.53 191.453 L2103.53 188.143 L2106.66 188.143 L2106.66 180.782 L2110.94 180.782 Z" fill="#000000" fill-rule="nonzero" fill-opacity="1" /><path clip-path="url(#clip590)" d="M2135.36 191.129 Q2131.93 191.129 2129.94 193.814 Q2127.95 196.476 2127.95 201.129 Q2127.95 205.782 2129.92 208.467 Q2131.91 211.129 2135.36 211.129 Q2138.76 211.129 2140.75 208.444 Q2142.74 205.758 2142.74 201.129 Q2142.74 196.522 2140.75 193.837 Q2138.76 191.129 2135.36 191.129 M2135.36 187.518 Q2140.91 187.518 2144.09 191.129 Q2147.26 194.74 2147.26 201.129 Q2147.26 207.495 2144.09 211.129 Q2140.91 214.74 2135.36 214.74 Q2129.78 214.74 2126.61 211.129 Q2123.46 207.495 2123.46 201.129 Q2123.46 194.74 2126.61 191.129 Q2129.78 187.518 2135.36 187.518 Z" fill="#000000" fill-rule="nonzero" fill-opacity="1" /><path clip-path="url(#clip590)" d="M2169.34 192.124 Q2168.62 191.708 2167.77 191.522 Q2166.93 191.314 2165.91 191.314 Q2162.3 191.314 2160.36 193.675 Q2158.44 196.013 2158.44 200.411 L2158.44 214.069 L2154.16 214.069 L2154.16 188.143 L2158.44 188.143 L2158.44 192.171 Q2159.78 189.809 2161.93 188.675 Q2164.09 187.518 2167.16 187.518 Q2167.6 187.518 2168.14 187.587 Q2168.67 187.634 2169.32 187.749 L2169.34 192.124 Z" fill="#000000" fill-rule="nonzero" fill-opacity="1" /><path clip-path="url(#clip590)" d="M2185.59 201.036 Q2180.43 201.036 2178.44 202.217 Q2176.45 203.397 2176.45 206.245 Q2176.45 208.513 2177.93 209.856 Q2179.43 211.175 2182 211.175 Q2185.54 211.175 2187.67 208.675 Q2189.83 206.152 2189.83 201.985 L2189.83 201.036 L2185.59 201.036 M2194.09 199.277 L2194.09 214.069 L2189.83 214.069 L2189.83 210.133 Q2188.37 212.495 2186.19 213.629 Q2184.02 214.74 2180.87 214.74 Q2176.89 214.74 2174.53 212.518 Q2172.19 210.272 2172.19 206.522 Q2172.19 202.147 2175.1 199.925 Q2178.04 197.703 2183.85 197.703 L2189.83 197.703 L2189.83 197.286 Q2189.83 194.347 2187.88 192.749 Q2185.96 191.129 2182.47 191.129 Q2180.24 191.129 2178.14 191.661 Q2176.03 192.194 2174.09 193.259 L2174.09 189.323 Q2176.42 188.421 2178.62 187.981 Q2180.82 187.518 2182.91 187.518 Q2188.53 187.518 2191.31 190.434 Q2194.09 193.351 2194.09 199.277 Z" fill="#000000" fill-rule="nonzero" fill-opacity="1" /><path clip-path="url(#clip590)" d="M2219.92 200.805 Q2219.92 196.175 2218 193.629 Q2216.1 191.083 2212.65 191.083 Q2209.22 191.083 2207.3 193.629 Q2205.41 196.175 2205.41 200.805 Q2205.41 205.411 2207.3 207.958 Q2209.22 210.504 2212.65 210.504 Q2216.1 210.504 2218 207.958 Q2219.92 205.411 2219.92 200.805 M2224.18 210.851 Q2224.18 217.471 2221.24 220.689 Q2218.3 223.93 2212.23 223.93 Q2209.99 223.93 2208 223.582 Q2206.01 223.258 2204.13 222.564 L2204.13 218.42 Q2206.01 219.439 2207.84 219.925 Q2209.66 220.411 2211.56 220.411 Q2215.75 220.411 2217.84 218.212 Q2219.92 216.036 2219.92 211.615 L2219.92 209.508 Q2218.6 211.8 2216.54 212.934 Q2214.48 214.069 2211.61 214.069 Q2206.84 214.069 2203.92 210.434 Q2201.01 206.8 2201.01 200.805 Q2201.01 194.786 2203.92 191.152 Q2206.84 187.518 2211.61 187.518 Q2214.48 187.518 2216.54 188.652 Q2218.6 189.786 2219.92 192.078 L2219.92 188.143 L2224.18 188.143 L2224.18 210.851 Z" fill="#000000" fill-rule="nonzero" fill-opacity="1" /><path clip-path="url(#clip590)" d="M2255.13 200.041 L2255.13 202.124 L2235.54 202.124 Q2235.82 206.522 2238.18 208.837 Q2240.57 211.129 2244.8 211.129 Q2247.26 211.129 2249.55 210.527 Q2251.86 209.925 2254.13 208.721 L2254.13 212.749 Q2251.84 213.721 2249.43 214.231 Q2247.03 214.74 2244.55 214.74 Q2238.34 214.74 2234.71 211.129 Q2231.1 207.518 2231.1 201.36 Q2231.1 194.995 2234.53 191.268 Q2237.97 187.518 2243.81 187.518 Q2249.04 187.518 2252.07 190.897 Q2255.13 194.254 2255.13 200.041 M2250.87 198.791 Q2250.82 195.296 2248.9 193.212 Q2247 191.129 2243.85 191.129 Q2240.29 191.129 2238.14 193.143 Q2236.01 195.157 2235.68 198.814 L2250.87 198.791 Z" fill="#000000" fill-rule="nonzero" fill-opacity="1" /></svg>
