<?xml version="1.0" encoding="utf-8"?>
<svg xmlns="http://www.w3.org/2000/svg" xmlns:xlink="http://www.w3.org/1999/xlink" width="600" height="400" viewBox="0 0 2400 1600">
<defs>
  <clipPath id="clip240">
    <rect x="0" y="0" width="2400" height="1600"/>
  </clipPath>
</defs>
<path clip-path="url(#clip240)" d="M0 1600 L2400 1600 L2400 0 L0 0  Z" fill="#ffffff" fill-rule="evenodd" fill-opacity="1"/>
<defs>
  <clipPath id="clip241">
    <rect x="480" y="0" width="1681" height="1600"/>
  </clipPath>
</defs>
<path clip-path="url(#clip240)" d="M193.288 1423.18 L2352.76 1423.18 L2352.76 47.2441 L193.288 47.2441  Z" fill="#ffffff" fill-rule="evenodd" fill-opacity="1"/>
<defs>
  <clipPath id="clip242">
    <rect x="193" y="47" width="2160" height="1377"/>
  </clipPath>
</defs>
<polyline clip-path="url(#clip242)" style="stroke:#000000; stroke-linecap:round; stroke-linejoin:round; stroke-width:2; stroke-opacity:0.1; fill:none" points="193.288,1423.18 193.288,47.2441 "/>
<polyline clip-path="url(#clip242)" style="stroke:#000000; stroke-linecap:round; stroke-linejoin:round; stroke-width:2; stroke-opacity:0.1; fill:none" points="733.155,1423.18 733.155,47.2441 "/>
<polyline clip-path="url(#clip242)" style="stroke:#000000; stroke-linecap:round; stroke-linejoin:round; stroke-width:2; stroke-opacity:0.1; fill:none" points="1273.02,1423.18 1273.02,47.2441 "/>
<polyline clip-path="url(#clip242)" style="stroke:#000000; stroke-linecap:round; stroke-linejoin:round; stroke-width:2; stroke-opacity:0.1; fill:none" points="1812.89,1423.18 1812.89,47.2441 "/>
<polyline clip-path="url(#clip242)" style="stroke:#000000; stroke-linecap:round; stroke-linejoin:round; stroke-width:2; stroke-opacity:0.1; fill:none" points="2352.76,1423.18 2352.76,47.2441 "/>
<polyline clip-path="url(#clip242)" style="stroke:#000000; stroke-linecap:round; stroke-linejoin:round; stroke-width:2; stroke-opacity:0.1; fill:none" points="193.288,1166.89 2352.76,1166.89 "/>
<polyline clip-path="url(#clip242)" style="stroke:#000000; stroke-linecap:round; stroke-linejoin:round; stroke-width:2; stroke-opacity:0.1; fill:none" points="193.288,797.783 2352.76,797.783 "/>
<polyline clip-path="url(#clip242)" style="stroke:#000000; stroke-linecap:round; stroke-linejoin:round; stroke-width:2; stroke-opacity:0.1; fill:none" points="193.288,428.678 2352.76,428.678 "/>
<polyline clip-path="url(#clip242)" style="stroke:#000000; stroke-linecap:round; stroke-linejoin:round; stroke-width:2; stroke-opacity:0.1; fill:none" points="193.288,59.5738 2352.76,59.5738 "/>
<polyline clip-path="url(#clip240)" style="stroke:#000000; stroke-linecap:round; stroke-linejoin:round; stroke-width:4; stroke-opacity:1; fill:none" points="193.288,1423.18 2352.76,1423.18 "/>
<polyline clip-path="url(#clip240)" style="stroke:#000000; stroke-linecap:round; stroke-linejoin:round; stroke-width:4; stroke-opacity:1; fill:none" points="193.288,1423.18 193.288,1404.28 "/>
<polyline clip-path="url(#clip240)" style="stroke:#000000; stroke-linecap:round; stroke-linejoin:round; stroke-width:4; stroke-opacity:1; fill:none" points="733.155,1423.18 733.155,1404.28 "/>
<polyline clip-path="url(#clip240)" style="stroke:#000000; stroke-linecap:round; stroke-linejoin:round; stroke-width:4; stroke-opacity:1; fill:none" points="1273.02,1423.18 1273.02,1404.28 "/>
<polyline clip-path="url(#clip240)" style="stroke:#000000; stroke-linecap:round; stroke-linejoin:round; stroke-width:4; stroke-opacity:1; fill:none" points="1812.89,1423.18 1812.89,1404.28 "/>
<polyline clip-path="url(#clip240)" style="stroke:#000000; stroke-linecap:round; stroke-linejoin:round; stroke-width:4; stroke-opacity:1; fill:none" points="2352.76,1423.18 2352.76,1404.28 "/>
<path clip-path="url(#clip240)" d="M170.672 1454.1 Q167.061 1454.1 165.232 1457.66 Q163.427 1461.2 163.427 1468.33 Q163.427 1475.44 165.232 1479.01 Q167.061 1482.55 170.672 1482.55 Q174.306 1482.55 176.112 1479.01 Q177.941 1475.44 177.941 1468.33 Q177.941 1461.2 176.112 1457.66 Q174.306 1454.1 170.672 1454.1 M170.672 1450.39 Q176.482 1450.39 179.538 1455 Q182.617 1459.58 182.617 1468.33 Q182.617 1477.06 179.538 1481.67 Q176.482 1486.25 170.672 1486.25 Q164.862 1486.25 161.783 1481.67 Q158.728 1477.06 158.728 1468.33 Q158.728 1459.58 161.783 1455 Q164.862 1450.39 170.672 1450.39 Z" fill="#000000" fill-rule="nonzero" fill-opacity="1" /><path clip-path="url(#clip240)" d="M190.834 1479.7 L195.718 1479.7 L195.718 1485.58 L190.834 1485.58 L190.834 1479.7 Z" fill="#000000" fill-rule="nonzero" fill-opacity="1" /><path clip-path="url(#clip240)" d="M215.903 1454.1 Q212.292 1454.1 210.464 1457.66 Q208.658 1461.2 208.658 1468.33 Q208.658 1475.44 210.464 1479.01 Q212.292 1482.55 215.903 1482.55 Q219.538 1482.55 221.343 1479.01 Q223.172 1475.44 223.172 1468.33 Q223.172 1461.2 221.343 1457.66 Q219.538 1454.1 215.903 1454.1 M215.903 1450.39 Q221.714 1450.39 224.769 1455 Q227.848 1459.58 227.848 1468.33 Q227.848 1477.06 224.769 1481.67 Q221.714 1486.25 215.903 1486.25 Q210.093 1486.25 207.015 1481.67 Q203.959 1477.06 203.959 1468.33 Q203.959 1459.58 207.015 1455 Q210.093 1450.39 215.903 1450.39 Z" fill="#000000" fill-rule="nonzero" fill-opacity="1" /><path clip-path="url(#clip240)" d="M711.037 1454.1 Q707.426 1454.1 705.597 1457.66 Q703.792 1461.2 703.792 1468.33 Q703.792 1475.44 705.597 1479.01 Q707.426 1482.55 711.037 1482.55 Q714.671 1482.55 716.477 1479.01 Q718.305 1475.44 718.305 1468.33 Q718.305 1461.2 716.477 1457.66 Q714.671 1454.1 711.037 1454.1 M711.037 1450.39 Q716.847 1450.39 719.903 1455 Q722.981 1459.58 722.981 1468.33 Q722.981 1477.06 719.903 1481.67 Q716.847 1486.25 711.037 1486.25 Q705.227 1486.25 702.148 1481.67 Q699.093 1477.06 699.093 1468.33 Q699.093 1459.58 702.148 1455 Q705.227 1450.39 711.037 1450.39 Z" fill="#000000" fill-rule="nonzero" fill-opacity="1" /><path clip-path="url(#clip240)" d="M731.199 1479.7 L736.083 1479.7 L736.083 1485.58 L731.199 1485.58 L731.199 1479.7 Z" fill="#000000" fill-rule="nonzero" fill-opacity="1" /><path clip-path="url(#clip240)" d="M746.315 1451.02 L764.671 1451.02 L764.671 1454.96 L750.597 1454.96 L750.597 1463.43 Q751.615 1463.08 752.634 1462.92 Q753.652 1462.73 754.671 1462.73 Q760.458 1462.73 763.838 1465.9 Q767.217 1469.08 767.217 1474.49 Q767.217 1480.07 763.745 1483.17 Q760.273 1486.25 753.953 1486.25 Q751.777 1486.25 749.509 1485.88 Q747.264 1485.51 744.856 1484.77 L744.856 1480.07 Q746.94 1481.2 749.162 1481.76 Q751.384 1482.32 753.861 1482.32 Q757.865 1482.32 760.203 1480.21 Q762.541 1478.1 762.541 1474.49 Q762.541 1470.88 760.203 1468.77 Q757.865 1466.67 753.861 1466.67 Q751.986 1466.67 750.111 1467.08 Q748.259 1467.5 746.315 1468.38 L746.315 1451.02 Z" fill="#000000" fill-rule="nonzero" fill-opacity="1" /><path clip-path="url(#clip240)" d="M1240.17 1481.64 L1247.81 1481.64 L1247.81 1455.28 L1239.5 1456.95 L1239.5 1452.69 L1247.77 1451.02 L1252.44 1451.02 L1252.44 1481.64 L1260.08 1481.64 L1260.08 1485.58 L1240.17 1485.58 L1240.17 1481.64 Z" fill="#000000" fill-rule="nonzero" fill-opacity="1" /><path clip-path="url(#clip240)" d="M1269.53 1479.7 L1274.41 1479.7 L1274.41 1485.58 L1269.53 1485.58 L1269.53 1479.7 Z" fill="#000000" fill-rule="nonzero" fill-opacity="1" /><path clip-path="url(#clip240)" d="M1294.6 1454.1 Q1290.98 1454.1 1289.16 1457.66 Q1287.35 1461.2 1287.35 1468.33 Q1287.35 1475.44 1289.16 1479.01 Q1290.98 1482.55 1294.6 1482.55 Q1298.23 1482.55 1300.04 1479.01 Q1301.86 1475.44 1301.86 1468.33 Q1301.86 1461.2 1300.04 1457.66 Q1298.23 1454.1 1294.6 1454.1 M1294.6 1450.39 Q1300.41 1450.39 1303.46 1455 Q1306.54 1459.58 1306.54 1468.33 Q1306.54 1477.06 1303.46 1481.67 Q1300.41 1486.25 1294.6 1486.25 Q1288.79 1486.25 1285.71 1481.67 Q1282.65 1477.06 1282.65 1468.33 Q1282.65 1459.58 1285.71 1455 Q1288.79 1450.39 1294.6 1450.39 Z" fill="#000000" fill-rule="nonzero" fill-opacity="1" /><path clip-path="url(#clip240)" d="M1780.54 1481.64 L1788.18 1481.64 L1788.18 1455.28 L1779.87 1456.95 L1779.87 1452.69 L1788.13 1451.02 L1792.81 1451.02 L1792.81 1481.64 L1800.45 1481.64 L1800.45 1485.58 L1780.54 1485.58 L1780.54 1481.64 Z" fill="#000000" fill-rule="nonzero" fill-opacity="1" /><path clip-path="url(#clip240)" d="M1809.89 1479.7 L1814.78 1479.7 L1814.78 1485.58 L1809.89 1485.58 L1809.89 1479.7 Z" fill="#000000" fill-rule="nonzero" fill-opacity="1" /><path clip-path="url(#clip240)" d="M1825.01 1451.02 L1843.36 1451.02 L1843.36 1454.96 L1829.29 1454.96 L1829.29 1463.43 Q1830.31 1463.08 1831.33 1462.92 Q1832.34 1462.73 1833.36 1462.73 Q1839.15 1462.73 1842.53 1465.9 Q1845.91 1469.08 1845.91 1474.49 Q1845.91 1480.07 1842.44 1483.17 Q1838.97 1486.25 1832.65 1486.25 Q1830.47 1486.25 1828.2 1485.88 Q1825.96 1485.51 1823.55 1484.77 L1823.55 1480.07 Q1825.63 1481.2 1827.85 1481.76 Q1830.08 1482.32 1832.55 1482.32 Q1836.56 1482.32 1838.9 1480.21 Q1841.23 1478.1 1841.23 1474.49 Q1841.23 1470.88 1838.9 1468.77 Q1836.56 1466.67 1832.55 1466.67 Q1830.68 1466.67 1828.8 1467.08 Q1826.95 1467.5 1825.01 1468.38 L1825.01 1451.02 Z" fill="#000000" fill-rule="nonzero" fill-opacity="1" /><path clip-path="url(#clip240)" d="M2323.99 1481.64 L2340.31 1481.64 L2340.31 1485.58 L2318.37 1485.58 L2318.37 1481.64 Q2321.03 1478.89 2325.61 1474.26 Q2330.22 1469.61 2331.4 1468.27 Q2333.65 1465.74 2334.53 1464.01 Q2335.43 1462.25 2335.43 1460.56 Q2335.43 1457.8 2333.49 1456.07 Q2331.56 1454.33 2328.46 1454.33 Q2326.26 1454.33 2323.81 1455.09 Q2321.38 1455.86 2318.6 1457.41 L2318.6 1452.69 Q2321.43 1451.55 2323.88 1450.97 Q2326.33 1450.39 2328.37 1450.39 Q2333.74 1450.39 2336.93 1453.08 Q2340.13 1455.77 2340.13 1460.26 Q2340.13 1462.39 2339.32 1464.31 Q2338.53 1466.2 2336.42 1468.8 Q2335.85 1469.47 2332.74 1472.69 Q2329.64 1475.88 2323.99 1481.64 Z" fill="#000000" fill-rule="nonzero" fill-opacity="1" /><path clip-path="url(#clip240)" d="M2350.13 1479.7 L2355.01 1479.7 L2355.01 1485.58 L2350.13 1485.58 L2350.13 1479.7 Z" fill="#000000" fill-rule="nonzero" fill-opacity="1" /><path clip-path="url(#clip240)" d="M2375.2 1454.1 Q2371.59 1454.1 2369.76 1457.66 Q2367.95 1461.2 2367.95 1468.33 Q2367.95 1475.44 2369.76 1479.01 Q2371.59 1482.55 2375.2 1482.55 Q2378.83 1482.55 2380.64 1479.01 Q2382.47 1475.44 2382.47 1468.33 Q2382.47 1461.2 2380.64 1457.66 Q2378.83 1454.1 2375.2 1454.1 M2375.2 1450.39 Q2381.01 1450.39 2384.06 1455 Q2387.14 1459.58 2387.14 1468.33 Q2387.14 1477.06 2384.06 1481.67 Q2381.01 1486.25 2375.2 1486.25 Q2369.39 1486.25 2366.31 1481.67 Q2363.25 1477.06 2363.25 1468.33 Q2363.25 1459.58 2366.31 1455 Q2369.39 1450.39 2375.2 1450.39 Z" fill="#000000" fill-rule="nonzero" fill-opacity="1" /><path clip-path="url(#clip240)" d="M1272.08 1522.27 L1272.08 1532.4 L1284.15 1532.4 L1284.15 1536.95 L1272.08 1536.95 L1272.08 1556.3 Q1272.08 1560.66 1273.26 1561.9 Q1274.47 1563.14 1278.13 1563.14 L1284.15 1563.14 L1284.15 1568.04 L1278.13 1568.04 Q1271.35 1568.04 1268.77 1565.53 Q1266.19 1562.98 1266.19 1556.3 L1266.19 1536.95 L1261.9 1536.95 L1261.9 1532.4 L1266.19 1532.4 L1266.19 1522.27 L1272.08 1522.27 Z" fill="#000000" fill-rule="nonzero" fill-opacity="1" /><polyline clip-path="url(#clip240)" style="stroke:#000000; stroke-linecap:round; stroke-linejoin:round; stroke-width:4; stroke-opacity:1; fill:none" points="193.288,1423.18 193.288,47.2441 "/>
<polyline clip-path="url(#clip240)" style="stroke:#000000; stroke-linecap:round; stroke-linejoin:round; stroke-width:4; stroke-opacity:1; fill:none" points="193.288,1166.89 212.185,1166.89 "/>
<polyline clip-path="url(#clip240)" style="stroke:#000000; stroke-linecap:round; stroke-linejoin:round; stroke-width:4; stroke-opacity:1; fill:none" points="193.288,797.783 212.185,797.783 "/>
<polyline clip-path="url(#clip240)" style="stroke:#000000; stroke-linecap:round; stroke-linejoin:round; stroke-width:4; stroke-opacity:1; fill:none" points="193.288,428.678 212.185,428.678 "/>
<polyline clip-path="url(#clip240)" style="stroke:#000000; stroke-linecap:round; stroke-linejoin:round; stroke-width:4; stroke-opacity:1; fill:none" points="193.288,59.5738 212.185,59.5738 "/>
<path clip-path="url(#clip240)" d="M50.9921 1167.34 L80.6679 1167.34 L80.6679 1171.27 L50.9921 1171.27 L50.9921 1167.34 Z" fill="#000000" fill-rule="nonzero" fill-opacity="1" /><path clip-path="url(#clip240)" d="M100.76 1152.69 Q97.1493 1152.69 95.3206 1156.25 Q93.515 1159.79 93.515 1166.92 Q93.515 1174.03 95.3206 1177.59 Q97.1493 1181.14 100.76 1181.14 Q104.395 1181.14 106.2 1177.59 Q108.029 1174.03 108.029 1166.92 Q108.029 1159.79 106.2 1156.25 Q104.395 1152.69 100.76 1152.69 M100.76 1148.98 Q106.571 1148.98 109.626 1153.59 Q112.705 1158.17 112.705 1166.92 Q112.705 1175.65 109.626 1180.26 Q106.571 1184.84 100.76 1184.84 Q94.9502 1184.84 91.8715 1180.26 Q88.816 1175.65 88.816 1166.92 Q88.816 1158.17 91.8715 1153.59 Q94.9502 1148.98 100.76 1148.98 Z" fill="#000000" fill-rule="nonzero" fill-opacity="1" /><path clip-path="url(#clip240)" d="M120.922 1178.29 L125.807 1178.29 L125.807 1184.17 L120.922 1184.17 L120.922 1178.29 Z" fill="#000000" fill-rule="nonzero" fill-opacity="1" /><path clip-path="url(#clip240)" d="M150.158 1165.53 Q153.515 1166.25 155.39 1168.52 Q157.288 1170.79 157.288 1174.12 Q157.288 1179.24 153.769 1182.04 Q150.251 1184.84 143.769 1184.84 Q141.593 1184.84 139.279 1184.4 Q136.987 1183.98 134.533 1183.13 L134.533 1178.61 Q136.478 1179.75 138.793 1180.33 Q141.107 1180.9 143.631 1180.9 Q148.029 1180.9 150.32 1179.17 Q152.635 1177.43 152.635 1174.12 Q152.635 1171.07 150.482 1169.35 Q148.353 1167.62 144.533 1167.62 L140.506 1167.62 L140.506 1163.77 L144.718 1163.77 Q148.168 1163.77 149.996 1162.41 Q151.825 1161.02 151.825 1158.43 Q151.825 1155.77 149.927 1154.35 Q148.052 1152.92 144.533 1152.92 Q142.612 1152.92 140.413 1153.33 Q138.214 1153.75 135.575 1154.63 L135.575 1150.46 Q138.237 1149.72 140.552 1149.35 Q142.89 1148.98 144.95 1148.98 Q150.274 1148.98 153.376 1151.41 Q156.478 1153.82 156.478 1157.94 Q156.478 1160.81 154.834 1162.8 Q153.191 1164.77 150.158 1165.53 Z" fill="#000000" fill-rule="nonzero" fill-opacity="1" /><path clip-path="url(#clip240)" d="M51.9412 798.234 L81.617 798.234 L81.617 802.17 L51.9412 802.17 L51.9412 798.234 Z" fill="#000000" fill-rule="nonzero" fill-opacity="1" /><path clip-path="url(#clip240)" d="M101.709 783.582 Q98.0984 783.582 96.2697 787.147 Q94.4641 790.688 94.4641 797.818 Q94.4641 804.924 96.2697 808.489 Q98.0984 812.031 101.709 812.031 Q105.344 812.031 107.149 808.489 Q108.978 804.924 108.978 797.818 Q108.978 790.688 107.149 787.147 Q105.344 783.582 101.709 783.582 M101.709 779.878 Q107.52 779.878 110.575 784.484 Q113.654 789.068 113.654 797.818 Q113.654 806.545 110.575 811.151 Q107.52 815.734 101.709 815.734 Q95.8993 815.734 92.8206 811.151 Q89.7651 806.545 89.7651 797.818 Q89.7651 789.068 92.8206 784.484 Q95.8993 779.878 101.709 779.878 Z" fill="#000000" fill-rule="nonzero" fill-opacity="1" /><path clip-path="url(#clip240)" d="M121.871 809.183 L126.756 809.183 L126.756 815.063 L121.871 815.063 L121.871 809.183 Z" fill="#000000" fill-rule="nonzero" fill-opacity="1" /><path clip-path="url(#clip240)" d="M140.968 811.128 L157.288 811.128 L157.288 815.063 L135.344 815.063 L135.344 811.128 Q138.006 808.373 142.589 803.744 Q147.195 799.091 148.376 797.748 Q150.621 795.225 151.501 793.489 Q152.404 791.73 152.404 790.04 Q152.404 787.285 150.459 785.549 Q148.538 783.813 145.436 783.813 Q143.237 783.813 140.783 784.577 Q138.353 785.341 135.575 786.892 L135.575 782.17 Q138.399 781.035 140.853 780.457 Q143.306 779.878 145.343 779.878 Q150.714 779.878 153.908 782.563 Q157.103 785.248 157.103 789.739 Q157.103 791.869 156.292 793.79 Q155.505 795.688 153.399 798.281 Q152.82 798.952 149.718 802.17 Q146.617 805.364 140.968 811.128 Z" fill="#000000" fill-rule="nonzero" fill-opacity="1" /><path clip-path="url(#clip240)" d="M51.5708 429.13 L81.2466 429.13 L81.2466 433.065 L51.5708 433.065 L51.5708 429.13 Z" fill="#000000" fill-rule="nonzero" fill-opacity="1" /><path clip-path="url(#clip240)" d="M101.339 414.477 Q97.728 414.477 95.8993 418.042 Q94.0937 421.584 94.0937 428.713 Q94.0937 435.82 95.8993 439.384 Q97.728 442.926 101.339 442.926 Q104.973 442.926 106.779 439.384 Q108.608 435.82 108.608 428.713 Q108.608 421.584 106.779 418.042 Q104.973 414.477 101.339 414.477 M101.339 410.773 Q107.149 410.773 110.205 415.38 Q113.283 419.963 113.283 428.713 Q113.283 437.44 110.205 442.046 Q107.149 446.63 101.339 446.63 Q95.5289 446.63 92.4502 442.046 Q89.3947 437.44 89.3947 428.713 Q89.3947 419.963 92.4502 415.38 Q95.5289 410.773 101.339 410.773 Z" fill="#000000" fill-rule="nonzero" fill-opacity="1" /><path clip-path="url(#clip240)" d="M121.501 440.079 L126.385 440.079 L126.385 445.958 L121.501 445.958 L121.501 440.079 Z" fill="#000000" fill-rule="nonzero" fill-opacity="1" /><path clip-path="url(#clip240)" d="M137.381 442.023 L145.019 442.023 L145.019 415.658 L136.709 417.324 L136.709 413.065 L144.973 411.398 L149.649 411.398 L149.649 442.023 L157.288 442.023 L157.288 445.958 L137.381 445.958 L137.381 442.023 Z" fill="#000000" fill-rule="nonzero" fill-opacity="1" /><path clip-path="url(#clip240)" d="M100.112 45.3725 Q96.5011 45.3725 94.6724 48.9372 Q92.8669 52.4789 92.8669 59.6085 Q92.8669 66.7149 94.6724 70.2797 Q96.5011 73.8214 100.112 73.8214 Q103.746 73.8214 105.552 70.2797 Q107.381 66.7149 107.381 59.6085 Q107.381 52.4789 105.552 48.9372 Q103.746 45.3725 100.112 45.3725 M100.112 41.6688 Q105.922 41.6688 108.978 46.2752 Q112.057 50.8585 112.057 59.6085 Q112.057 68.3353 108.978 72.9417 Q105.922 77.5251 100.112 77.5251 Q94.3021 77.5251 91.2234 72.9417 Q88.1679 68.3353 88.1679 59.6085 Q88.1679 50.8585 91.2234 46.2752 Q94.3021 41.6688 100.112 41.6688 Z" fill="#000000" fill-rule="nonzero" fill-opacity="1" /><path clip-path="url(#clip240)" d="M120.274 70.9742 L125.158 70.9742 L125.158 76.8538 L120.274 76.8538 L120.274 70.9742 Z" fill="#000000" fill-rule="nonzero" fill-opacity="1" /><path clip-path="url(#clip240)" d="M145.343 45.3725 Q141.732 45.3725 139.904 48.9372 Q138.098 52.4789 138.098 59.6085 Q138.098 66.7149 139.904 70.2797 Q141.732 73.8214 145.343 73.8214 Q148.978 73.8214 150.783 70.2797 Q152.612 66.7149 152.612 59.6085 Q152.612 52.4789 150.783 48.9372 Q148.978 45.3725 145.343 45.3725 M145.343 41.6688 Q151.154 41.6688 154.209 46.2752 Q157.288 50.8585 157.288 59.6085 Q157.288 68.3353 154.209 72.9417 Q151.154 77.5251 145.343 77.5251 Q139.533 77.5251 136.455 72.9417 Q133.399 68.3353 133.399 59.6085 Q133.399 50.8585 136.455 46.2752 Q139.533 41.6688 145.343 41.6688 Z" fill="#000000" fill-rule="nonzero" fill-opacity="1" /><polyline clip-path="url(#clip242)" style="stroke:#009af9; stroke-linecap:round; stroke-linejoin:round; stroke-width:4; stroke-opacity:1; fill:none" points="193.288,1384.24 195.449,1381.17 197.611,1378.14 199.773,1375.14 201.934,1372.16 204.096,1369.22 206.258,1366.3 208.419,1363.42 210.581,1360.56 212.743,1357.73 214.904,1354.93 217.066,1352.16 219.227,1349.41 221.389,1346.69 223.551,1344 225.712,1341.34 227.874,1338.7 230.036,1336.09 232.197,1333.51 234.359,1330.95 236.52,1328.41 238.682,1325.9 240.844,1323.42 243.005,1320.96 245.167,1318.53 247.329,1316.12 249.49,1313.73 251.652,1311.37 253.813,1309.03 255.975,1306.71 258.137,1304.42 260.298,1302.15 262.46,1299.9 264.622,1297.68 266.783,1295.48 268.945,1293.3 271.107,1291.14 273.268,1289 275.43,1286.88 277.591,1284.79 279.753,1282.72 281.915,1280.66 284.076,1278.63 286.238,1276.62 288.4,1274.62 290.561,1272.65 292.723,1270.7 294.884,1268.76 297.046,1266.85 299.208,1264.95 301.369,1263.08 303.531,1261.22 305.693,1259.38 307.854,1257.56 310.016,1255.76 312.177,1253.97 314.339,1252.2 316.501,1250.45 318.662,1248.72 320.824,1247.01 322.986,1245.31 325.147,1243.63 327.309,1241.96 329.471,1240.32 331.632,1238.69 333.794,1237.07 335.955,1235.47 338.117,1233.89 340.279,1232.32 342.44,1230.77 344.602,1229.23 346.764,1227.71 348.925,1226.21 351.087,1224.72 353.248,1223.24 355.41,1221.78 357.572,1220.33 359.733,1218.9 361.895,1217.48 364.057,1216.08 366.218,1214.69 368.38,1213.31 370.541,1211.95 372.703,1210.6 374.865,1209.27 377.026,1207.94 379.188,1206.64 381.35,1205.34 383.511,1204.06 385.673,1202.79 387.835,1201.53 389.996,1200.29 392.158,1199.05 394.319,1197.83 396.481,1196.62 398.643,1195.43 400.804,1194.24 402.966,1193.07 405.128,1191.91 407.289,1190.76 409.451,1189.63 411.612,1188.5 413.774,1187.38 415.936,1186.28 418.097,1185.19 420.259,1184.1 422.421,1183.03 424.582,1181.97 426.744,1180.92 428.905,1179.88 431.067,1178.85 433.229,1177.84 435.39,1176.83 437.552,1175.83 439.714,1174.84 441.875,1173.86 444.037,1172.89 446.199,1171.93 448.36,1170.98 450.522,1170.04 452.683,1169.11 454.845,1168.19 457.007,1167.27 459.168,1166.37 461.33,1165.48 463.492,1164.59 465.653,1163.71 467.815,1162.84 469.976,1161.98 472.138,1161.13 474.3,1160.29 476.461,1159.46 478.623,1158.63 480.785,1157.81 482.946,1157 485.108,1156.2 487.269,1155.41 489.431,1154.62 491.593,1153.85 493.754,1153.08 495.916,1152.31 498.078,1151.56 500.239,1150.81 502.401,1150.07 504.563,1149.34 506.724,1148.62 508.886,1147.9 511.047,1147.19 513.209,1146.48 515.371,1145.79 517.532,1145.1 519.694,1144.41 521.856,1143.74 524.017,1143.07 526.179,1142.41 528.34,1141.75 530.502,1141.1 532.664,1140.46 534.825,1139.82 536.987,1139.19 539.149,1138.57 541.31,1137.95 543.472,1137.34 545.633,1136.73 547.795,1136.13 549.957,1135.54 552.118,1134.95 554.28,1134.37 556.442,1133.79 558.603,1133.22 560.765,1132.66 562.927,1132.1 565.088,1131.55 567.25,1131 569.411,1130.46 571.573,1129.92 573.735,1129.39 575.896,1128.86 578.058,1128.34 580.22,1127.82 582.381,1127.31 584.543,1126.81 586.704,1126.31 588.866,1125.81 591.028,1125.32 593.189,1124.83 595.351,1124.35 597.513,1123.88 599.674,1123.41 601.836,1122.94 603.997,1122.48 606.159,1122.02 608.321,1121.57 610.482,1121.12 612.644,1120.67 614.806,1120.23 616.967,1119.8 619.129,1119.37 621.291,1118.94 623.452,1118.52 625.614,1118.1 627.775,1117.69 629.937,1117.28 632.099,1116.87 634.26,1116.47 636.422,1116.07 638.584,1115.68 640.745,1115.29 642.907,1114.9 645.068,1114.52 647.23,1114.14 649.392,1113.77 651.553,1113.4 653.715,1113.03 655.877,1112.67 658.038,1112.31 660.2,1111.95 662.361,1111.6 664.523,1111.25 666.685,1110.91 668.846,1110.56 671.008,1110.22 673.17,1109.89 675.331,1109.56 677.493,1109.23 679.655,1108.9 681.816,1108.58 683.978,1108.26 686.139,1107.94 688.301,1107.63 690.463,1107.32 692.624,1107.02 694.786,1106.71 696.948,1106.41 699.109,1106.11 701.271,1105.82 703.432,1105.53 705.594,1105.24 707.756,1104.95 709.917,1104.67 712.079,1104.39 714.241,1104.11 716.402,1103.84 718.564,1103.57 720.725,1103.3 722.887,1103.03 725.049,1102.77 727.21,1102.5 729.372,1102.25 731.534,1101.99 733.695,1101.74 735.857,1101.49 738.019,1101.24 740.18,1100.99 742.342,1100.75 744.503,1100.51 746.665,1100.27 748.827,1100.03 750.988,1099.8 753.15,1099.57 755.312,1099.34 757.473,1099.11 759.635,1098.89 761.796,1098.66 763.958,1098.44 766.12,1098.22 768.281,1098.01 770.443,1097.79 772.605,1097.58 774.766,1097.37 776.928,1097.17 779.089,1096.96 781.251,1096.76 783.413,1096.56 785.574,1096.36 787.736,1096.16 789.898,1095.97 792.059,1095.77 794.221,1095.58 796.383,1095.39 798.544,1095.2 800.706,1095.02 802.867,1094.83 805.029,1094.65 807.191,1094.47 809.352,1094.29 811.514,1094.12 813.676,1093.94 815.837,1093.77 817.999,1093.6 820.16,1093.43 822.322,1093.26 824.484,1093.09 826.645,1092.93 828.807,1092.76 830.969,1092.6 833.13,1092.44 835.292,1092.28 837.453,1092.13 839.615,1091.97 841.777,1091.82 843.938,1091.67 846.1,1091.51 848.262,1091.37 850.423,1091.22 852.585,1091.07 854.747,1090.93 856.908,1090.78 859.07,1090.64 861.231,1090.5 863.393,1090.36 865.555,1090.22 867.716,1090.09 869.878,1089.95 872.04,1089.82 874.201,1089.69 876.363,1089.56 878.524,1089.43 880.686,1089.3 882.848,1089.17 885.009,1089.04 887.171,1088.92 889.333,1088.8 891.494,1088.67 893.656,1088.55 895.817,1088.43 897.979,1088.31 900.141,1088.2 902.302,1088.08 904.464,1087.97 906.626,1087.85 908.787,1087.74 910.949,1087.63 913.111,1087.52 915.272,1087.41 917.434,1087.3 919.595,1087.19 921.757,1087.09 923.919,1086.98 926.08,1086.88 928.242,1086.78 930.404,1086.67 932.565,1086.57 934.727,1086.47 936.888,1086.37 939.05,1086.28 941.212,1086.18 943.373,1086.08 945.535,1085.99 947.697,1085.9 949.858,1085.8 952.02,1085.71 954.182,1085.62 956.343,1085.53 958.505,1085.44 960.666,1085.35 962.828,1085.26 964.99,1085.18 967.151,1085.09 969.313,1085.01 971.475,1084.92 973.636,1084.84 975.798,1084.76 977.959,1084.67 980.121,1084.59 982.283,1084.51 984.444,1084.43 986.606,1084.36 988.768,1084.28 990.929,1084.2 993.091,1084.12 995.252,1084.05 997.414,1083.97 999.576,1083.9 1001.74,1083.83 1003.9,1083.76 1006.06,1083.68 1008.22,1083.61 1010.38,1083.54 1012.55,1083.47 1014.71,1083.4 1016.87,1083.33 1019.03,1083.27 1021.19,1083.2 1023.35,1083.13 1025.52,1083.07 1027.68,1083 1029.84,1082.94 1032,1082.87 1034.16,1082.81 1036.32,1082.75 1038.49,1082.69 1040.65,1082.63 1042.81,1082.56 1044.97,1082.5 1047.13,1082.44 1049.29,1082.39 1051.45,1082.33 1053.62,1082.27 1055.78,1082.21 1057.94,1082.16 1060.1,1082.1 1062.26,1082.04 1064.42,1081.99 1066.59,1081.94 1068.75,1081.88 1070.91,1081.83 1073.07,1081.78 1075.23,1081.72 1077.39,1081.67 1079.56,1081.62 1081.72,1081.57 1083.88,1081.52 1086.04,1081.47 1088.2,1081.42 1090.36,1081.37 1092.53,1081.32 1094.69,1081.28 1096.85,1081.23 1099.01,1081.18 1101.17,1081.14 1103.33,1081.09 1105.5,1081.05 1107.66,1081 1109.82,1080.96 1111.98,1080.91 1114.14,1080.87 1116.3,1080.83 1118.47,1080.78 1120.63,1080.74 1122.79,1080.7 1124.95,1080.66 1127.11,1080.62 1129.27,1080.58 1131.44,1080.54 1133.6,1080.5 1135.76,1080.46 1137.92,1080.42 1140.08,1080.38 1142.24,1080.34 1144.4,1080.3 1146.57,1080.27 1148.73,1080.23 1150.89,1080.19 1153.05,1080.16 1155.21,1080.12 1157.37,1080.09 1159.54,1080.05 1161.7,1080.02 1163.86,1079.98 1166.02,1079.95 1168.18,1079.91 1170.34,1079.88 1172.51,1079.85 1174.67,1079.81 1176.83,1079.78 1178.99,1079.75 1181.15,1079.72 1183.31,1079.69 1185.48,1079.66 1187.64,1079.62 1189.8,1079.59 1191.96,1079.56 1194.12,1079.53 1196.28,1079.5 1198.45,1079.47 1200.61,1079.45 1202.77,1079.42 1204.93,1079.39 1207.09,1079.36 1209.25,1079.33 1211.42,1079.3 1213.58,1079.28 1215.74,1079.25 1217.9,1079.22 1220.06,1079.2 1222.22,1079.17 1224.39,1079.14 1226.55,1079.12 1228.71,1079.09 1230.87,1079.07 1233.03,1079.04 1235.19,1079.02 1237.35,1078.99 1239.52,1078.97 1241.68,1078.94 1243.84,1078.92 1246,1078.9 1248.16,1078.87 1250.32,1078.85 1252.49,1078.83 1254.65,1078.8 1256.81,1078.78 1258.97,1078.76 1261.13,1078.74 1263.29,1078.71 1265.46,1078.69 1267.62,1078.67 1269.78,1078.65 1271.94,1078.63 1274.1,1078.61 1276.26,1078.59 1278.43,1078.57 1280.59,1078.55 1282.75,1078.53 1284.91,1078.51 1287.07,1078.49 1289.23,1078.47 1291.4,1078.45 1293.56,1078.43 1295.72,1078.41 1297.88,1078.39 1300.04,1078.37 1302.2,1078.35 1304.37,1078.34 1306.53,1078.32 1308.69,1078.3 1310.85,1078.28 1313.01,1078.26 1315.17,1078.25 1317.34,1078.23 1319.5,1078.21 1321.66,1078.2 1323.82,1078.18 1325.98,1078.16 1328.14,1078.15 1330.31,1078.13 1332.47,1078.12 1334.63,1078.1 1336.79,1078.08 1338.95,1078.07 1341.11,1078.05 1343.27,1078.04 1345.44,1078.02 1347.6,1078.01 1349.76,1077.99 1351.92,1077.98 1354.08,1077.97 1356.24,1077.95 1358.41,1077.94 1360.57,1077.92 1362.73,1077.91 1364.89,1077.9 1367.05,1077.88 1369.21,1077.87 1371.38,1077.86 1373.54,1077.84 1375.7,1077.83 1377.86,1077.82 1380.02,1077.81 1382.18,1077.79 1384.35,1077.78 1386.51,1077.77 1388.67,1077.76 1390.83,1077.74 1392.99,1077.73 1395.15,1077.72 1397.32,1077.71 1399.48,1077.7 1401.64,1077.69 1403.8,1077.68 1405.96,1077.66 1408.12,1077.65 1410.29,1077.64 1412.45,1077.63 1414.61,1077.62 1416.77,1077.61 1418.93,1077.6 1421.09,1077.59 1423.26,1077.58 1425.42,1077.57 1427.58,1077.56 1429.74,1077.55 1431.9,1077.54 1434.06,1077.53 1436.22,1077.52 1438.39,1077.51 1440.55,1077.5 1442.71,1077.49 1444.87,1077.48 1447.03,1077.47 1449.19,1077.46 1451.36,1077.45 1453.52,1077.45 1455.68,1077.44 1457.84,1077.43 1460,1077.42 1462.16,1077.41 1464.33,1077.4 1466.49,1077.39 1468.65,1077.38 1470.81,1077.38 1472.97,1077.37 1475.13,1077.36 1477.3,1077.35 1479.46,1077.34 1481.62,1077.34 1483.78,1077.33 1485.94,1077.32 1488.1,1077.31 1490.27,1077.3 1492.43,1077.3 1494.59,1077.29 1496.75,1077.28 1498.91,1077.27 1501.07,1077.27 1503.24,1077.26 1505.4,1077.25 1507.56,1077.25 1509.72,1077.24 1511.88,1077.23 1514.04,1077.22 1516.21,1077.22 1518.37,1077.21 1520.53,1077.2 1522.69,1077.2 1524.85,1077.19 1527.01,1077.18 1529.17,1077.18 1531.34,1077.17 1533.5,1077.17 1535.66,1077.16 1537.82,1077.15 1539.98,1077.15 1542.14,1077.14 1544.31,1077.13 1546.47,1077.13 1548.63,1077.12 1550.79,1077.12 1552.95,1077.11 1555.11,1077.11 1557.28,1077.1 1559.44,1077.09 1561.6,1077.09 1563.76,1077.08 1565.92,1077.08 1568.08,1077.07 1570.25,1077.07 1572.41,1077.06 1574.57,1077.06 1576.73,1077.05 1578.89,1077.05 1581.05,1077.04 1583.22,1077.04 1585.38,1077.03 1587.54,1077.03 1589.7,1077.02 1591.86,1077.02 1594.02,1077.01 1596.19,1077.01 1598.35,1077 1600.51,1077 1602.67,1076.99 1604.83,1076.99 1606.99,1076.98 1609.16,1076.98 1611.32,1076.98 1613.48,1076.97 1615.64,1076.97 1617.8,1076.96 1619.96,1076.96 1622.13,1076.95 1624.29,1076.95 1626.45,1076.95 1628.61,1076.94 1630.77,1076.94 1632.93,1076.93 1635.09,1076.93 1637.26,1076.93 1639.42,1076.92 1641.58,1076.92 1643.74,1076.91 1645.9,1076.91 1648.06,1076.91 1650.23,1076.9 1652.39,1076.9 1654.55,1076.9 1656.71,1076.89 1658.87,1076.89 1661.03,1076.89 1663.2,1076.88 1665.36,1076.88 1667.52,1076.88 1669.68,1076.87 1671.84,1076.87 1674,1076.87 1676.17,1076.86 1678.33,1076.86 1680.49,1076.86 1682.65,1076.85 1684.81,1076.85 1686.97,1076.85 1689.14,1076.85 1691.3,1076.84 1693.46,1076.84 1695.62,1076.84 1697.78,1076.83 1699.94,1076.83 1702.11,1076.83 1704.27,1076.83 1706.43,1076.82 1708.59,1076.82 1710.75,1076.82 1712.91,1076.82 1715.08,1076.81 1717.24,1076.81 1719.4,1076.81 1721.56,1076.81 1723.72,1076.8 1725.88,1076.8 1728.04,1076.8 1730.21,1076.8 1732.37,1076.79 1734.53,1076.79 1736.69,1076.79 1738.85,1076.79 1741.01,1076.78 1743.18,1076.78 1745.34,1076.78 1747.5,1076.78 1749.66,1076.77 1751.82,1076.77 1753.98,1076.77 1756.15,1076.77 1758.31,1076.77 1760.47,1076.76 1762.63,1076.76 1764.79,1076.76 1766.95,1076.76 1769.12,1076.76 1771.28,1076.75 1773.44,1076.75 1775.6,1076.75 1777.76,1076.75 1779.92,1076.74 1782.09,1076.74 1784.25,1076.74 1786.41,1076.74 1788.57,1076.74 1790.73,1076.74 1792.89,1076.73 1795.06,1076.73 1797.22,1076.73 1799.38,1076.73 1801.54,1076.73 1803.7,1076.72 1805.86,1076.72 1808.03,1076.72 1810.19,1076.72 1812.35,1076.72 1814.51,1076.71 1816.67,1076.71 1818.83,1076.71 1821,1076.71 1823.16,1076.71 1825.32,1076.71 1827.48,1076.7 1829.64,1076.7 1831.8,1076.7 1833.96,1076.7 1836.13,1076.7 1838.29,1076.7 1840.45,1076.7 1842.61,1076.69 1844.77,1076.69 1846.93,1076.69 1849.1,1076.69 1851.26,1076.69 1853.42,1076.69 1855.58,1076.68 1857.74,1076.68 1859.9,1076.68 1862.07,1076.68 1864.23,1076.68 1866.39,1076.68 1868.55,1076.68 1870.71,1076.67 1872.87,1076.67 1875.04,1076.67 1877.2,1076.67 1879.36,1076.67 1881.52,1076.67 1883.68,1076.67 1885.84,1076.67 1888.01,1076.66 1890.17,1076.66 1892.33,1076.66 1894.49,1076.66 1896.65,1076.66 1898.81,1076.66 1900.98,1076.66 1903.14,1076.66 1905.3,1076.65 1907.46,1076.65 1909.62,1076.65 1911.78,1076.65 1913.95,1076.65 1916.11,1076.65 1918.27,1076.65 1920.43,1076.65 1922.59,1076.65 1924.75,1076.64 1926.91,1076.64 1929.08,1076.64 1931.24,1076.64 1933.4,1076.64 1935.56,1076.64 1937.72,1076.64 1939.88,1076.64 1942.05,1076.64 1944.21,1076.64 1946.37,1076.63 1948.53,1076.63 1950.69,1076.63 1952.85,1076.63 1955.02,1076.63 1957.18,1076.63 1959.34,1076.63 1961.5,1076.63 1963.66,1076.63 1965.82,1076.63 1967.99,1076.63 1970.15,1076.63 1972.31,1076.62 1974.47,1076.62 1976.63,1076.62 1978.79,1076.62 1980.96,1076.62 1983.12,1076.62 1985.28,1076.62 1987.44,1076.62 1989.6,1076.62 1991.76,1076.62 1993.93,1076.62 1996.09,1076.62 1998.25,1076.62 2000.41,1076.61 2002.57,1076.61 2004.73,1076.61 2006.9,1076.61 2009.06,1076.61 2011.22,1076.61 2013.38,1076.61 2015.54,1076.61 2017.7,1076.61 2019.86,1076.61 2022.03,1076.61 2024.19,1076.61 2026.35,1076.61 2028.51,1076.61 2030.67,1076.61 2032.83,1076.61 2035,1076.6 2037.16,1076.6 2039.32,1076.6 2041.48,1076.6 2043.64,1076.6 2045.8,1076.6 2047.97,1076.6 2050.13,1076.6 2052.29,1076.6 2054.45,1076.6 2056.61,1076.6 2058.77,1076.6 2060.94,1076.6 2063.1,1076.6 2065.26,1076.6 2067.42,1076.6 2069.58,1076.6 2071.74,1076.6 2073.91,1076.6 2076.07,1076.6 2078.23,1076.6 2080.39,1076.59 2082.55,1076.59 2084.71,1076.59 2086.88,1076.59 2089.04,1076.59 2091.2,1076.59 2093.36,1076.59 2095.52,1076.59 2097.68,1076.59 2099.85,1076.59 2102.01,1076.59 2104.17,1076.59 2106.33,1076.59 2108.49,1076.59 2110.65,1076.59 2112.82,1076.59 2114.98,1076.59 2117.14,1076.59 2119.3,1076.59 2121.46,1076.59 2123.62,1076.59 2125.78,1076.59 2127.95,1076.59 2130.11,1076.59 2132.27,1076.58 2134.43,1076.58 2136.59,1076.58 2138.75,1076.58 2140.92,1076.58 2143.08,1076.58 2145.24,1076.58 2147.4,1076.58 2149.56,1076.58 2151.72,1076.58 2153.89,1076.58 2156.05,1076.58 2158.21,1076.58 2160.37,1076.58 2162.53,1076.58 2164.69,1076.58 2166.86,1076.58 2169.02,1076.58 2171.18,1076.58 2173.34,1076.58 2175.5,1076.58 2177.66,1076.58 2179.83,1076.58 2181.99,1076.58 2184.15,1076.58 2186.31,1076.58 2188.47,1076.58 2190.63,1076.58 2192.8,1076.58 2194.96,1076.57 2197.12,1076.57 2199.28,1076.57 2201.44,1076.57 2203.6,1076.57 2205.77,1076.57 2207.93,1076.57 2210.09,1076.57 2212.25,1076.57 2214.41,1076.57 2216.57,1076.57 2218.73,1076.57 2220.9,1076.57 2223.06,1076.57 2225.22,1076.57 2227.38,1076.57 2229.54,1076.57 2231.7,1076.57 2233.87,1076.57 2236.03,1076.57 2238.19,1076.57 2240.35,1076.57 2242.51,1076.57 2244.67,1076.57 2246.84,1076.57 2249,1076.57 2251.16,1076.57 2253.32,1076.57 2255.48,1076.57 2257.64,1076.57 2259.81,1076.57 2261.97,1076.57 2264.13,1076.57 2266.29,1076.57 2268.45,1076.57 2270.61,1076.57 2272.78,1076.57 2274.94,1076.57 2277.1,1076.57 2279.26,1076.56 2281.42,1076.56 2283.58,1076.56 2285.75,1076.56 2287.91,1076.56 2290.07,1076.56 2292.23,1076.56 2294.39,1076.56 2296.55,1076.56 2298.72,1076.56 2300.88,1076.56 2303.04,1076.56 2305.2,1076.56 2307.36,1076.56 2309.52,1076.56 2311.68,1076.56 2313.85,1076.56 2316.01,1076.56 2318.17,1076.56 2320.33,1076.56 2322.49,1076.56 2324.65,1076.56 2326.82,1076.56 2328.98,1076.56 2331.14,1076.56 2333.3,1076.56 2335.46,1076.56 2337.62,1076.56 2339.79,1076.56 2341.95,1076.56 2344.11,1076.56 2346.27,1076.56 2348.43,1076.56 2350.59,1076.56 2352.76,1076.56 "/>
<polyline clip-path="url(#clip242)" style="stroke:#e26f46; stroke-linecap:round; stroke-linejoin:round; stroke-width:4; stroke-opacity:1; fill:none" points="193.288,86.1857 195.449,89.8745 197.611,93.5635 199.773,97.2526 201.934,100.941 204.096,104.63 206.258,108.318 208.419,112.005 210.581,115.691 212.743,119.375 214.904,123.058 217.066,126.74 219.227,130.42 221.389,134.097 223.551,137.773 225.712,141.446 227.874,145.116 230.036,148.784 232.197,152.449 234.359,156.11 236.52,159.768 238.682,163.423 240.844,167.075 243.005,170.722 245.167,174.366 247.329,178.005 249.49,181.64 251.652,185.271 253.813,188.898 255.975,192.519 258.137,196.136 260.298,199.748 262.46,203.355 264.622,206.956 266.783,210.552 268.945,214.143 271.107,217.728 273.268,221.308 275.43,224.881 277.591,228.449 279.753,232.01 281.915,235.565 284.076,239.114 286.238,242.656 288.4,246.192 290.561,249.722 292.723,253.244 294.884,256.76 297.046,260.268 299.208,263.77 301.369,267.264 303.531,270.751 305.693,274.231 307.854,277.703 310.016,281.168 312.177,284.625 314.339,288.075 316.501,291.517 318.662,294.951 320.824,298.377 322.986,301.794 325.147,305.204 327.309,308.606 329.471,311.999 331.632,315.384 333.794,318.761 335.955,322.129 338.117,325.489 340.279,328.84 342.44,332.183 344.602,335.516 346.764,338.841 348.925,342.158 351.087,345.465 353.248,348.763 355.41,352.052 357.572,355.333 359.733,358.604 361.895,361.866 364.057,365.118 366.218,368.362 368.38,371.596 370.541,374.821 372.703,378.036 374.865,381.242 377.026,384.439 379.188,387.626 381.35,390.804 383.511,393.972 385.673,397.13 387.835,400.279 389.996,403.418 392.158,406.547 394.319,409.667 396.481,412.776 398.643,415.876 400.804,418.966 402.966,422.047 405.128,425.117 407.289,428.177 409.451,431.228 411.612,434.268 413.774,437.299 415.936,440.319 418.097,443.329 420.259,446.33 422.421,449.32 424.582,452.3 426.744,455.27 428.905,458.23 431.067,461.179 433.229,464.119 435.39,467.048 437.552,469.967 439.714,472.876 441.875,475.775 444.037,478.663 446.199,481.542 448.36,484.41 450.522,487.267 452.683,490.115 454.845,492.952 457.007,495.779 459.168,498.595 461.33,501.402 463.492,504.198 465.653,506.983 467.815,509.759 469.976,512.524 472.138,515.279 474.3,518.024 476.461,520.758 478.623,523.482 480.785,526.196 482.946,528.899 485.108,531.592 487.269,534.275 489.431,536.948 491.593,539.61 493.754,542.263 495.916,544.904 498.078,547.536 500.239,550.157 502.401,552.768 504.563,555.369 506.724,557.96 508.886,560.54 511.047,563.11 513.209,565.67 515.371,568.22 517.532,570.759 519.694,573.289 521.856,575.808 524.017,578.317 526.179,580.815 528.34,583.304 530.502,585.783 532.664,588.251 534.825,590.709 536.987,593.158 539.149,595.596 541.31,598.024 543.472,600.442 545.633,602.85 547.795,605.248 549.957,607.636 552.118,610.014 554.28,612.382 556.442,614.74 558.603,617.088 560.765,619.426 562.927,621.754 565.088,624.073 567.25,626.381 569.411,628.68 571.573,630.969 573.735,633.248 575.896,635.518 578.058,637.777 580.22,640.027 582.381,642.267 584.543,644.498 586.704,646.719 588.866,648.93 591.028,651.132 593.189,653.324 595.351,655.506 597.513,657.679 599.674,659.842 601.836,661.996 603.997,664.141 606.159,666.276 608.321,668.401 610.482,670.517 612.644,672.624 614.806,674.721 616.967,676.809 619.129,678.888 621.291,680.957 623.452,683.017 625.614,685.068 627.775,687.109 629.937,689.142 632.099,691.165 634.26,693.179 636.422,695.184 638.584,697.179 640.745,699.166 642.907,701.144 645.068,703.112 647.23,705.072 649.392,707.022 651.553,708.964 653.715,710.897 655.877,712.82 658.038,714.735 660.2,716.641 662.361,718.539 664.523,720.427 666.685,722.307 668.846,724.177 671.008,726.04 673.17,727.893 675.331,729.738 677.493,731.574 679.655,733.401 681.816,735.22 683.978,737.031 686.139,738.832 688.301,740.626 690.463,742.411 692.624,744.187 694.786,745.955 696.948,747.715 699.109,749.466 701.271,751.209 703.432,752.944 705.594,754.67 707.756,756.388 709.917,758.098 712.079,759.8 714.241,761.494 716.402,763.179 718.564,764.857 720.725,766.526 722.887,768.188 725.049,769.841 727.21,771.487 729.372,773.124 731.534,774.754 733.695,776.375 735.857,777.989 738.019,779.595 740.18,781.194 742.342,782.784 744.503,784.367 746.665,785.942 748.827,787.509 750.988,789.069 753.15,790.621 755.312,792.165 757.473,793.702 759.635,795.232 761.796,796.754 763.958,798.268 766.12,799.775 768.281,801.274 770.443,802.766 772.605,804.251 774.766,805.728 776.928,807.198 779.089,808.661 781.251,810.117 783.413,811.565 785.574,813.006 787.736,814.44 789.898,815.867 792.059,817.286 794.221,818.699 796.383,820.104 798.544,821.503 800.706,822.894 802.867,824.278 805.029,825.656 807.191,827.026 809.352,828.39 811.514,829.747 813.676,831.097 815.837,832.44 817.999,833.776 820.16,835.105 822.322,836.428 824.484,837.744 826.645,839.054 828.807,840.356 830.969,841.652 833.13,842.942 835.292,844.225 837.453,845.501 839.615,846.771 841.777,848.034 843.938,849.291 846.1,850.542 848.262,851.786 850.423,853.024 852.585,854.255 854.747,855.48 856.908,856.699 859.07,857.911 861.231,859.118 863.393,860.318 865.555,861.512 867.716,862.7 869.878,863.881 872.04,865.057 874.201,866.226 876.363,867.39 878.524,868.548 880.686,869.699 882.848,870.845 885.009,871.984 887.171,873.118 889.333,874.246 891.494,875.368 893.656,876.484 895.817,877.594 897.979,878.699 900.141,879.798 902.302,880.891 904.464,881.979 906.626,883.06 908.787,884.137 910.949,885.207 913.111,886.272 915.272,887.332 917.434,888.385 919.595,889.434 921.757,890.477 923.919,891.514 926.08,892.546 928.242,893.573 930.404,894.594 932.565,895.61 934.727,896.62 936.888,897.625 939.05,898.625 941.212,899.62 943.373,900.609 945.535,901.593 947.697,902.572 949.858,903.546 952.02,904.514 954.182,905.478 956.343,906.436 958.505,907.39 960.666,908.338 962.828,909.281 964.99,910.219 967.151,911.153 969.313,912.081 971.475,913.004 973.636,913.923 975.798,914.836 977.959,915.745 980.121,916.649 982.283,917.547 984.444,918.442 986.606,919.331 988.768,920.216 990.929,921.095 993.091,921.971 995.252,922.841 997.414,923.707 999.576,924.568 1001.74,925.424 1003.9,926.276 1006.06,927.124 1008.22,927.966 1010.38,928.804 1012.55,929.638 1014.71,930.467 1016.87,931.292 1019.03,932.112 1021.19,932.928 1023.35,933.74 1025.52,934.547 1027.68,935.349 1029.84,936.148 1032,936.942 1034.16,937.731 1036.32,938.517 1038.49,939.298 1040.65,940.075 1042.81,940.848 1044.97,941.616 1047.13,942.381 1049.29,943.141 1051.45,943.897 1053.62,944.649 1055.78,945.397 1057.94,946.141 1060.1,946.881 1062.26,947.617 1064.42,948.349 1066.59,949.077 1068.75,949.801 1070.91,950.52 1073.07,951.236 1075.23,951.949 1077.39,952.657 1079.56,953.361 1081.72,954.062 1083.88,954.759 1086.04,955.451 1088.2,956.141 1090.36,956.826 1092.53,957.508 1094.69,958.186 1096.85,958.86 1099.01,959.53 1101.17,960.197 1103.33,960.86 1105.5,961.52 1107.66,962.176 1109.82,962.828 1111.98,963.477 1114.14,964.122 1116.3,964.764 1118.47,965.402 1120.63,966.037 1122.79,966.668 1124.95,967.295 1127.11,967.92 1129.27,968.54 1131.44,969.158 1133.6,969.772 1135.76,970.382 1137.92,970.99 1140.08,971.594 1142.24,972.194 1144.4,972.791 1146.57,973.385 1148.73,973.976 1150.89,974.563 1153.05,975.148 1155.21,975.729 1157.37,976.306 1159.54,976.881 1161.7,977.452 1163.86,978.02 1166.02,978.585 1168.18,979.147 1170.34,979.706 1172.51,980.262 1174.67,980.814 1176.83,981.364 1178.99,981.91 1181.15,982.454 1183.31,982.994 1185.48,983.532 1187.64,984.066 1189.8,984.598 1191.96,985.126 1194.12,985.652 1196.28,986.174 1198.45,986.694 1200.61,987.211 1202.77,987.725 1204.93,988.236 1207.09,988.744 1209.25,989.249 1211.42,989.752 1213.58,990.251 1215.74,990.748 1217.9,991.242 1220.06,991.733 1222.22,992.222 1224.39,992.708 1226.55,993.191 1228.71,993.671 1230.87,994.149 1233.03,994.624 1235.19,995.096 1237.35,995.566 1239.52,996.033 1241.68,996.498 1243.84,996.959 1246,997.419 1248.16,997.875 1250.32,998.329 1252.49,998.781 1254.65,999.23 1256.81,999.676 1258.97,1000.12 1261.13,1000.56 1263.29,1001 1265.46,1001.44 1267.62,1001.87 1269.78,1002.3 1271.94,1002.73 1274.1,1003.16 1276.26,1003.58 1278.43,1004.01 1280.59,1004.43 1282.75,1004.84 1284.91,1005.26 1287.07,1005.67 1289.23,1006.08 1291.4,1006.49 1293.56,1006.89 1295.72,1007.3 1297.88,1007.7 1300.04,1008.1 1302.2,1008.49 1304.37,1008.89 1306.53,1009.28 1308.69,1009.67 1310.85,1010.06 1313.01,1010.44 1315.17,1010.83 1317.34,1011.21 1319.5,1011.59 1321.66,1011.96 1323.82,1012.34 1325.98,1012.71 1328.14,1013.08 1330.31,1013.45 1332.47,1013.81 1334.63,1014.18 1336.79,1014.54 1338.95,1014.9 1341.11,1015.26 1343.27,1015.61 1345.44,1015.97 1347.6,1016.32 1349.76,1016.67 1351.92,1017.02 1354.08,1017.36 1356.24,1017.71 1358.41,1018.05 1360.57,1018.39 1362.73,1018.73 1364.89,1019.06 1367.05,1019.4 1369.21,1019.73 1371.38,1020.06 1373.54,1020.39 1375.7,1020.72 1377.86,1021.04 1380.02,1021.37 1382.18,1021.69 1384.35,1022.01 1386.51,1022.32 1388.67,1022.64 1390.83,1022.95 1392.99,1023.27 1395.15,1023.58 1397.32,1023.88 1399.48,1024.19 1401.64,1024.5 1403.8,1024.8 1405.96,1025.1 1408.12,1025.4 1410.29,1025.7 1412.45,1026 1414.61,1026.29 1416.77,1026.58 1418.93,1026.88 1421.09,1027.17 1423.26,1027.45 1425.42,1027.74 1427.58,1028.02 1429.74,1028.31 1431.9,1028.59 1434.06,1028.87 1436.22,1029.15 1438.39,1029.42 1440.55,1029.7 1442.71,1029.97 1444.87,1030.25 1447.03,1030.52 1449.19,1030.78 1451.36,1031.05 1453.52,1031.32 1455.68,1031.58 1457.84,1031.85 1460,1032.11 1462.16,1032.37 1464.33,1032.62 1466.49,1032.88 1468.65,1033.14 1470.81,1033.39 1472.97,1033.64 1475.13,1033.89 1477.3,1034.14 1479.46,1034.39 1481.62,1034.64 1483.78,1034.88 1485.94,1035.13 1488.1,1035.37 1490.27,1035.61 1492.43,1035.85 1494.59,1036.09 1496.75,1036.32 1498.91,1036.56 1501.07,1036.79 1503.24,1037.03 1505.4,1037.26 1507.56,1037.49 1509.72,1037.72 1511.88,1037.95 1514.04,1038.17 1516.21,1038.4 1518.37,1038.62 1520.53,1038.84 1522.69,1039.06 1524.85,1039.28 1527.01,1039.5 1529.17,1039.72 1531.34,1039.93 1533.5,1040.15 1535.66,1040.36 1537.82,1040.57 1539.98,1040.79 1542.14,1041 1544.31,1041.2 1546.47,1041.41 1548.63,1041.62 1550.79,1041.82 1552.95,1042.03 1555.11,1042.23 1557.28,1042.43 1559.44,1042.63 1561.6,1042.83 1563.76,1043.03 1565.92,1043.22 1568.08,1043.42 1570.25,1043.62 1572.41,1043.81 1574.57,1044 1576.73,1044.19 1578.89,1044.38 1581.05,1044.57 1583.22,1044.76 1585.38,1044.95 1587.54,1045.13 1589.7,1045.32 1591.86,1045.5 1594.02,1045.68 1596.19,1045.86 1598.35,1046.04 1600.51,1046.22 1602.67,1046.4 1604.83,1046.58 1606.99,1046.75 1609.16,1046.93 1611.32,1047.1 1613.48,1047.28 1615.64,1047.45 1617.8,1047.62 1619.96,1047.79 1622.13,1047.96 1624.29,1048.13 1626.45,1048.29 1628.61,1048.46 1630.77,1048.63 1632.93,1048.79 1635.09,1048.95 1637.26,1049.12 1639.42,1049.28 1641.58,1049.44 1643.74,1049.6 1645.9,1049.76 1648.06,1049.91 1650.23,1050.07 1652.39,1050.23 1654.55,1050.38 1656.71,1050.54 1658.87,1050.69 1661.03,1050.84 1663.2,1050.99 1665.36,1051.14 1667.52,1051.29 1669.68,1051.44 1671.84,1051.59 1674,1051.74 1676.17,1051.88 1678.33,1052.03 1680.49,1052.17 1682.65,1052.32 1684.81,1052.46 1686.97,1052.6 1689.14,1052.74 1691.3,1052.88 1693.46,1053.02 1695.62,1053.16 1697.78,1053.3 1699.94,1053.43 1702.11,1053.57 1704.27,1053.71 1706.43,1053.84 1708.59,1053.97 1710.75,1054.11 1712.91,1054.24 1715.08,1054.37 1717.24,1054.5 1719.4,1054.63 1721.56,1054.76 1723.72,1054.89 1725.88,1055.02 1728.04,1055.15 1730.21,1055.27 1732.37,1055.4 1734.53,1055.52 1736.69,1055.65 1738.85,1055.77 1741.01,1055.89 1743.18,1056.01 1745.34,1056.13 1747.5,1056.26 1749.66,1056.38 1751.82,1056.49 1753.98,1056.61 1756.15,1056.73 1758.31,1056.85 1760.47,1056.96 1762.63,1057.08 1764.79,1057.19 1766.95,1057.31 1769.12,1057.42 1771.28,1057.54 1773.44,1057.65 1775.6,1057.76 1777.76,1057.87 1779.92,1057.98 1782.09,1058.09 1784.25,1058.2 1786.41,1058.31 1788.57,1058.42 1790.73,1058.52 1792.89,1058.63 1795.06,1058.74 1797.22,1058.84 1799.38,1058.95 1801.54,1059.05 1803.7,1059.15 1805.86,1059.26 1808.03,1059.36 1810.19,1059.46 1812.35,1059.56 1814.51,1059.66 1816.67,1059.76 1818.83,1059.86 1821,1059.96 1823.16,1060.06 1825.32,1060.16 1827.48,1060.25 1829.64,1060.35 1831.8,1060.45 1833.96,1060.54 1836.13,1060.64 1838.29,1060.73 1840.45,1060.82 1842.61,1060.92 1844.77,1061.01 1846.93,1061.1 1849.1,1061.19 1851.26,1061.28 1853.42,1061.37 1855.58,1061.46 1857.74,1061.55 1859.9,1061.64 1862.07,1061.73 1864.23,1061.82 1866.39,1061.91 1868.55,1061.99 1870.71,1062.08 1872.87,1062.17 1875.04,1062.25 1877.2,1062.34 1879.36,1062.42 1881.52,1062.5 1883.68,1062.59 1885.84,1062.67 1888.01,1062.75 1890.17,1062.83 1892.33,1062.91 1894.49,1063 1896.65,1063.08 1898.81,1063.16 1900.98,1063.24 1903.14,1063.31 1905.3,1063.39 1907.46,1063.47 1909.62,1063.55 1911.78,1063.63 1913.95,1063.7 1916.11,1063.78 1918.27,1063.85 1920.43,1063.93 1922.59,1064 1924.75,1064.08 1926.91,1064.15 1929.08,1064.23 1931.24,1064.3 1933.4,1064.37 1935.56,1064.44 1937.72,1064.52 1939.88,1064.59 1942.05,1064.66 1944.21,1064.73 1946.37,1064.8 1948.53,1064.87 1950.69,1064.94 1952.85,1065.01 1955.02,1065.08 1957.18,1065.14 1959.34,1065.21 1961.5,1065.28 1963.66,1065.34 1965.82,1065.41 1967.99,1065.48 1970.15,1065.54 1972.31,1065.61 1974.47,1065.67 1976.63,1065.74 1978.79,1065.8 1980.96,1065.87 1983.12,1065.93 1985.28,1065.99 1987.44,1066.05 1989.6,1066.12 1991.76,1066.18 1993.93,1066.24 1996.09,1066.3 1998.25,1066.36 2000.41,1066.42 2002.57,1066.48 2004.73,1066.54 2006.9,1066.6 2009.06,1066.66 2011.22,1066.72 2013.38,1066.78 2015.54,1066.83 2017.7,1066.89 2019.86,1066.95 2022.03,1067.01 2024.19,1067.06 2026.35,1067.12 2028.51,1067.17 2030.67,1067.23 2032.83,1067.29 2035,1067.34 2037.16,1067.4 2039.32,1067.45 2041.48,1067.5 2043.64,1067.56 2045.8,1067.61 2047.97,1067.66 2050.13,1067.72 2052.29,1067.77 2054.45,1067.82 2056.61,1067.87 2058.77,1067.92 2060.94,1067.97 2063.1,1068.03 2065.26,1068.08 2067.42,1068.13 2069.58,1068.18 2071.74,1068.23 2073.91,1068.27 2076.07,1068.32 2078.23,1068.37 2080.39,1068.42 2082.55,1068.47 2084.71,1068.52 2086.88,1068.56 2089.04,1068.61 2091.2,1068.66 2093.36,1068.71 2095.52,1068.75 2097.68,1068.8 2099.85,1068.84 2102.01,1068.89 2104.17,1068.94 2106.33,1068.98 2108.49,1069.03 2110.65,1069.07 2112.82,1069.11 2114.98,1069.16 2117.14,1069.2 2119.3,1069.25 2121.46,1069.29 2123.62,1069.33 2125.78,1069.38 2127.95,1069.42 2130.11,1069.46 2132.27,1069.5 2134.43,1069.54 2136.59,1069.59 2138.75,1069.63 2140.92,1069.67 2143.08,1069.71 2145.24,1069.75 2147.4,1069.79 2149.56,1069.83 2151.72,1069.87 2153.89,1069.91 2156.05,1069.95 2158.21,1069.99 2160.37,1070.03 2162.53,1070.07 2164.69,1070.1 2166.86,1070.14 2169.02,1070.18 2171.18,1070.22 2173.34,1070.26 2175.5,1070.29 2177.66,1070.33 2179.83,1070.37 2181.99,1070.4 2184.15,1070.44 2186.31,1070.48 2188.47,1070.51 2190.63,1070.55 2192.8,1070.59 2194.96,1070.62 2197.12,1070.66 2199.28,1070.69 2201.44,1070.73 2203.6,1070.76 2205.77,1070.79 2207.93,1070.83 2210.09,1070.86 2212.25,1070.9 2214.41,1070.93 2216.57,1070.96 2218.73,1071 2220.9,1071.03 2223.06,1071.06 2225.22,1071.1 2227.38,1071.13 2229.54,1071.16 2231.7,1071.19 2233.87,1071.22 2236.03,1071.26 2238.19,1071.29 2240.35,1071.32 2242.51,1071.35 2244.67,1071.38 2246.84,1071.41 2249,1071.44 2251.16,1071.47 2253.32,1071.5 2255.48,1071.53 2257.64,1071.56 2259.81,1071.59 2261.97,1071.62 2264.13,1071.65 2266.29,1071.68 2268.45,1071.71 2270.61,1071.74 2272.78,1071.77 2274.94,1071.79 2277.1,1071.82 2279.26,1071.85 2281.42,1071.88 2283.58,1071.91 2285.75,1071.93 2287.91,1071.96 2290.07,1071.99 2292.23,1072.02 2294.39,1072.04 2296.55,1072.07 2298.72,1072.1 2300.88,1072.12 2303.04,1072.15 2305.2,1072.18 2307.36,1072.2 2309.52,1072.23 2311.68,1072.25 2313.85,1072.28 2316.01,1072.3 2318.17,1072.33 2320.33,1072.35 2322.49,1072.38 2324.65,1072.4 2326.82,1072.43 2328.98,1072.45 2331.14,1072.48 2333.3,1072.5 2335.46,1072.53 2337.62,1072.55 2339.79,1072.57 2341.95,1072.6 2344.11,1072.62 2346.27,1072.64 2348.43,1072.67 2350.59,1072.69 2352.76,1072.71 "/>
<path clip-path="url(#clip240)" d="M1805.43 248.629 L2280.77 248.629 L2280.77 93.1086 L1805.43 93.1086  Z" fill="#ffffff" fill-rule="evenodd" fill-opacity="1"/>
<polyline clip-path="url(#clip240)" style="stroke:#000000; stroke-linecap:round; stroke-linejoin:round; stroke-width:4; stroke-opacity:1; fill:none" points="1805.43,248.629 2280.77,248.629 2280.77,93.1086 1805.43,93.1086 1805.43,248.629 "/>
<polyline clip-path="url(#clip240)" style="stroke:#009af9; stroke-linecap:round; stroke-linejoin:round; stroke-width:4; stroke-opacity:1; fill:none" points="1829.42,144.949 1973.39,144.949 "/>
<path clip-path="url(#clip240)" d="M1997.38 136.303 L2001.9 136.303 L2010 158.062 L2018.1 136.303 L2022.61 136.303 L2012.89 162.229 L2007.1 162.229 L1997.38 136.303 Z" fill="#000000" fill-rule="nonzero" fill-opacity="1" /><path clip-path="url(#clip240)" d="M2029.91 158.293 L2037.54 158.293 L2037.54 131.928 L2029.23 133.595 L2029.23 129.335 L2037.5 127.669 L2042.17 127.669 L2042.17 158.293 L2049.81 158.293 L2049.81 162.229 L2029.91 162.229 L2029.91 158.293 Z" fill="#000000" fill-rule="nonzero" fill-opacity="1" /><path clip-path="url(#clip240)" d="M2067.91 145.585 L2067.91 152.807 L2076.04 152.807 L2076.04 155.006 L2067.91 155.006 L2067.91 162.229 L2065.48 162.229 L2065.48 155.006 L2057.36 155.006 L2057.36 152.807 L2065.48 152.807 L2065.48 145.585 L2067.91 145.585 Z" fill="#000000" fill-rule="nonzero" fill-opacity="1" /><path clip-path="url(#clip240)" d="M2100.21 137.067 L2100.21 141.094 Q2098.4 140.169 2096.46 139.706 Q2094.51 139.243 2092.43 139.243 Q2089.26 139.243 2087.66 140.215 Q2086.09 141.187 2086.09 143.131 Q2086.09 144.613 2087.22 145.469 Q2088.35 146.303 2091.78 147.067 L2093.24 147.391 Q2097.78 148.363 2099.67 150.145 Q2101.6 151.905 2101.6 155.076 Q2101.6 158.687 2098.72 160.793 Q2095.88 162.9 2090.88 162.9 Q2088.79 162.9 2086.53 162.483 Q2084.28 162.09 2081.78 161.28 L2081.78 156.881 Q2084.14 158.108 2086.43 158.733 Q2088.72 159.335 2090.97 159.335 Q2093.98 159.335 2095.6 158.317 Q2097.22 157.275 2097.22 155.4 Q2097.22 153.664 2096.04 152.738 Q2094.88 151.812 2090.92 150.956 L2089.44 150.608 Q2085.48 149.775 2083.72 148.062 Q2081.97 146.326 2081.97 143.317 Q2081.97 139.659 2084.56 137.669 Q2087.15 135.678 2091.92 135.678 Q2094.28 135.678 2096.36 136.025 Q2098.45 136.372 2100.21 137.067 Z" fill="#000000" fill-rule="nonzero" fill-opacity="1" /><path clip-path="url(#clip240)" d="M2112.59 128.942 L2112.59 136.303 L2121.36 136.303 L2121.36 139.613 L2112.59 139.613 L2112.59 153.687 Q2112.59 156.858 2113.45 157.761 Q2114.33 158.664 2116.99 158.664 L2121.36 158.664 L2121.36 162.229 L2116.99 162.229 Q2112.06 162.229 2110.18 160.4 Q2108.31 158.548 2108.31 153.687 L2108.31 139.613 L2105.18 139.613 L2105.18 136.303 L2108.31 136.303 L2108.31 128.942 L2112.59 128.942 Z" fill="#000000" fill-rule="nonzero" fill-opacity="1" /><path clip-path="url(#clip240)" d="M2137.01 139.289 Q2133.59 139.289 2131.6 141.974 Q2129.6 144.636 2129.6 149.289 Q2129.6 153.942 2131.57 156.627 Q2133.56 159.289 2137.01 159.289 Q2140.41 159.289 2142.41 156.604 Q2144.4 153.918 2144.4 149.289 Q2144.4 144.682 2142.41 141.997 Q2140.41 139.289 2137.01 139.289 M2137.01 135.678 Q2142.57 135.678 2145.74 139.289 Q2148.91 142.9 2148.91 149.289 Q2148.91 155.655 2145.74 159.289 Q2142.57 162.9 2137.01 162.9 Q2131.43 162.9 2128.26 159.289 Q2125.11 155.655 2125.11 149.289 Q2125.11 142.9 2128.26 139.289 Q2131.43 135.678 2137.01 135.678 Z" fill="#000000" fill-rule="nonzero" fill-opacity="1" /><path clip-path="url(#clip240)" d="M2170.99 140.284 Q2170.28 139.868 2169.42 139.682 Q2168.59 139.474 2167.57 139.474 Q2163.96 139.474 2162.01 141.835 Q2160.09 144.173 2160.09 148.571 L2160.09 162.229 L2155.81 162.229 L2155.81 136.303 L2160.09 136.303 L2160.09 140.331 Q2161.43 137.969 2163.59 136.835 Q2165.74 135.678 2168.82 135.678 Q2169.26 135.678 2169.79 135.747 Q2170.32 135.794 2170.97 135.909 L2170.99 140.284 Z" fill="#000000" fill-rule="nonzero" fill-opacity="1" /><path clip-path="url(#clip240)" d="M2187.24 149.196 Q2182.08 149.196 2180.09 150.377 Q2178.1 151.557 2178.1 154.405 Q2178.1 156.673 2179.58 158.016 Q2181.09 159.335 2183.65 159.335 Q2187.2 159.335 2189.33 156.835 Q2191.48 154.312 2191.48 150.145 L2191.48 149.196 L2187.24 149.196 M2195.74 147.437 L2195.74 162.229 L2191.48 162.229 L2191.48 158.293 Q2190.02 160.655 2187.84 161.789 Q2185.67 162.9 2182.52 162.9 Q2178.54 162.9 2176.18 160.678 Q2173.84 158.432 2173.84 154.682 Q2173.84 150.307 2176.76 148.085 Q2179.7 145.863 2185.51 145.863 L2191.48 145.863 L2191.48 145.446 Q2191.48 142.507 2189.53 140.909 Q2187.61 139.289 2184.12 139.289 Q2181.9 139.289 2179.79 139.821 Q2177.68 140.354 2175.74 141.419 L2175.74 137.483 Q2178.08 136.581 2180.28 136.141 Q2182.47 135.678 2184.56 135.678 Q2190.18 135.678 2192.96 138.594 Q2195.74 141.511 2195.74 147.437 Z" fill="#000000" fill-rule="nonzero" fill-opacity="1" /><path clip-path="url(#clip240)" d="M2221.57 148.965 Q2221.57 144.335 2219.65 141.789 Q2217.75 139.243 2214.3 139.243 Q2210.88 139.243 2208.96 141.789 Q2207.06 144.335 2207.06 148.965 Q2207.06 153.571 2208.96 156.118 Q2210.88 158.664 2214.3 158.664 Q2217.75 158.664 2219.65 156.118 Q2221.57 153.571 2221.57 148.965 M2225.83 159.011 Q2225.83 165.631 2222.89 168.849 Q2219.95 172.09 2213.89 172.09 Q2211.64 172.09 2209.65 171.742 Q2207.66 171.418 2205.78 170.724 L2205.78 166.58 Q2207.66 167.599 2209.49 168.085 Q2211.32 168.571 2213.21 168.571 Q2217.4 168.571 2219.49 166.372 Q2221.57 164.196 2221.57 159.775 L2221.57 157.668 Q2220.25 159.96 2218.19 161.094 Q2216.13 162.229 2213.26 162.229 Q2208.49 162.229 2205.58 158.594 Q2202.66 154.96 2202.66 148.965 Q2202.66 142.946 2205.58 139.312 Q2208.49 135.678 2213.26 135.678 Q2216.13 135.678 2218.19 136.812 Q2220.25 137.946 2221.57 140.238 L2221.57 136.303 L2225.83 136.303 L2225.83 159.011 Z" fill="#000000" fill-rule="nonzero" fill-opacity="1" /><path clip-path="url(#clip240)" d="M2256.78 148.201 L2256.78 150.284 L2237.2 150.284 Q2237.47 154.682 2239.84 156.997 Q2242.22 159.289 2246.46 159.289 Q2248.91 159.289 2251.2 158.687 Q2253.52 158.085 2255.78 156.881 L2255.78 160.909 Q2253.49 161.881 2251.09 162.391 Q2248.68 162.9 2246.2 162.9 Q2240 162.9 2236.36 159.289 Q2232.75 155.678 2232.75 149.52 Q2232.75 143.155 2236.18 139.428 Q2239.63 135.678 2245.46 135.678 Q2250.69 135.678 2253.72 139.057 Q2256.78 142.414 2256.78 148.201 M2252.52 146.951 Q2252.47 143.456 2250.55 141.372 Q2248.65 139.289 2245.51 139.289 Q2241.94 139.289 2239.79 141.303 Q2237.66 143.317 2237.34 146.974 L2252.52 146.951 Z" fill="#000000" fill-rule="nonzero" fill-opacity="1" /><polyline clip-path="url(#clip240)" style="stroke:#e26f46; stroke-linecap:round; stroke-linejoin:round; stroke-width:4; stroke-opacity:1; fill:none" points="1829.42,196.789 1973.39,196.789 "/>
<path clip-path="url(#clip240)" d="M1997.38 188.143 L2001.9 188.143 L2010 209.902 L2018.1 188.143 L2022.61 188.143 L2012.89 214.069 L2007.1 214.069 L1997.38 188.143 Z" fill="#000000" fill-rule="nonzero" fill-opacity="1" /><path clip-path="url(#clip240)" d="M2029.14 179.509 L2047.5 179.509 L2047.5 183.444 L2033.42 183.444 L2033.42 191.916 Q2034.44 191.569 2035.46 191.407 Q2036.48 191.222 2037.5 191.222 Q2043.29 191.222 2046.66 194.393 Q2050.04 197.564 2050.04 202.981 Q2050.04 208.559 2046.57 211.661 Q2043.1 214.74 2036.78 214.74 Q2034.6 214.74 2032.34 214.37 Q2030.09 213.999 2027.68 213.258 L2027.68 208.559 Q2029.77 209.694 2031.99 210.249 Q2034.21 210.805 2036.69 210.805 Q2040.69 210.805 2043.03 208.698 Q2045.37 206.592 2045.37 202.981 Q2045.37 199.37 2043.03 197.263 Q2040.69 195.157 2036.69 195.157 Q2034.81 195.157 2032.94 195.573 Q2031.09 195.99 2029.14 196.87 L2029.14 179.509 Z" fill="#000000" fill-rule="nonzero" fill-opacity="1" /><path clip-path="url(#clip240)" d="M2067.91 197.425 L2067.91 204.647 L2076.04 204.647 L2076.04 206.846 L2067.91 206.846 L2067.91 214.069 L2065.48 214.069 L2065.48 206.846 L2057.36 206.846 L2057.36 204.647 L2065.48 204.647 L2065.48 197.425 L2067.91 197.425 Z" fill="#000000" fill-rule="nonzero" fill-opacity="1" /><path clip-path="url(#clip240)" d="M2100.21 188.907 L2100.21 192.934 Q2098.4 192.009 2096.46 191.546 Q2094.51 191.083 2092.43 191.083 Q2089.26 191.083 2087.66 192.055 Q2086.09 193.027 2086.09 194.971 Q2086.09 196.453 2087.22 197.309 Q2088.35 198.143 2091.78 198.907 L2093.24 199.231 Q2097.78 200.203 2099.67 201.985 Q2101.6 203.745 2101.6 206.916 Q2101.6 210.527 2098.72 212.633 Q2095.88 214.74 2090.88 214.74 Q2088.79 214.74 2086.53 214.323 Q2084.28 213.93 2081.78 213.12 L2081.78 208.721 Q2084.14 209.948 2086.43 210.573 Q2088.72 211.175 2090.97 211.175 Q2093.98 211.175 2095.6 210.157 Q2097.22 209.115 2097.22 207.24 Q2097.22 205.504 2096.04 204.578 Q2094.88 203.652 2090.92 202.796 L2089.44 202.448 Q2085.48 201.615 2083.72 199.902 Q2081.97 198.166 2081.97 195.157 Q2081.97 191.499 2084.56 189.509 Q2087.15 187.518 2091.92 187.518 Q2094.28 187.518 2096.36 187.865 Q2098.45 188.212 2100.21 188.907 Z" fill="#000000" fill-rule="nonzero" fill-opacity="1" /><path clip-path="url(#clip240)" d="M2112.59 180.782 L2112.59 188.143 L2121.36 188.143 L2121.36 191.453 L2112.59 191.453 L2112.59 205.527 Q2112.59 208.698 2113.45 209.601 Q2114.33 210.504 2116.99 210.504 L2121.36 210.504 L2121.36 214.069 L2116.99 214.069 Q2112.06 214.069 2110.18 212.24 Q2108.31 210.388 2108.31 205.527 L2108.31 191.453 L2105.18 191.453 L2105.18 188.143 L2108.31 188.143 L2108.31 180.782 L2112.59 180.782 Z" fill="#000000" fill-rule="nonzero" fill-opacity="1" /><path clip-path="url(#clip240)" d="M2137.01 191.129 Q2133.59 191.129 2131.6 193.814 Q2129.6 196.476 2129.6 201.129 Q2129.6 205.782 2131.57 208.467 Q2133.56 211.129 2137.01 211.129 Q2140.41 211.129 2142.41 208.444 Q2144.4 205.758 2144.4 201.129 Q2144.4 196.522 2142.41 193.837 Q2140.41 191.129 2137.01 191.129 M2137.01 187.518 Q2142.57 187.518 2145.74 191.129 Q2148.91 194.74 2148.91 201.129 Q2148.91 207.495 2145.74 211.129 Q2142.57 214.74 2137.01 214.74 Q2131.43 214.74 2128.26 211.129 Q2125.11 207.495 2125.11 201.129 Q2125.11 194.74 2128.26 191.129 Q2131.43 187.518 2137.01 187.518 Z" fill="#000000" fill-rule="nonzero" fill-opacity="1" /><path clip-path="url(#clip240)" d="M2170.99 192.124 Q2170.28 191.708 2169.42 191.522 Q2168.59 191.314 2167.57 191.314 Q2163.96 191.314 2162.01 193.675 Q2160.09 196.013 2160.09 200.411 L2160.09 214.069 L2155.81 214.069 L2155.81 188.143 L2160.09 188.143 L2160.09 192.171 Q2161.43 189.809 2163.59 188.675 Q2165.74 187.518 2168.82 187.518 Q2169.26 187.518 2169.79 187.587 Q2170.32 187.634 2170.97 187.749 L2170.99 192.124 Z" fill="#000000" fill-rule="nonzero" fill-opacity="1" /><path clip-path="url(#clip240)" d="M2187.24 201.036 Q2182.08 201.036 2180.09 202.217 Q2178.1 203.397 2178.1 206.245 Q2178.1 208.513 2179.58 209.856 Q2181.09 211.175 2183.65 211.175 Q2187.2 211.175 2189.33 208.675 Q2191.48 206.152 2191.48 201.985 L2191.48 201.036 L2187.24 201.036 M2195.74 199.277 L2195.74 214.069 L2191.48 214.069 L2191.48 210.133 Q2190.02 212.495 2187.84 213.629 Q2185.67 214.74 2182.52 214.74 Q2178.54 214.74 2176.18 212.518 Q2173.84 210.272 2173.84 206.522 Q2173.84 202.147 2176.76 199.925 Q2179.7 197.703 2185.51 197.703 L2191.48 197.703 L2191.48 197.286 Q2191.48 194.347 2189.53 192.749 Q2187.61 191.129 2184.12 191.129 Q2181.9 191.129 2179.79 191.661 Q2177.68 192.194 2175.74 193.259 L2175.74 189.323 Q2178.08 188.421 2180.28 187.981 Q2182.47 187.518 2184.56 187.518 Q2190.18 187.518 2192.96 190.434 Q2195.74 193.351 2195.74 199.277 Z" fill="#000000" fill-rule="nonzero" fill-opacity="1" /><path clip-path="url(#clip240)" d="M2221.57 200.805 Q2221.57 196.175 2219.65 193.629 Q2217.75 191.083 2214.3 191.083 Q2210.88 191.083 2208.96 193.629 Q2207.06 196.175 2207.06 200.805 Q2207.06 205.411 2208.96 207.958 Q2210.88 210.504 2214.3 210.504 Q2217.75 210.504 2219.65 207.958 Q2221.57 205.411 2221.57 200.805 M2225.83 210.851 Q2225.83 217.471 2222.89 220.689 Q2219.95 223.93 2213.89 223.93 Q2211.64 223.93 2209.65 223.582 Q2207.66 223.258 2205.78 222.564 L2205.78 218.42 Q2207.66 219.439 2209.49 219.925 Q2211.32 220.411 2213.21 220.411 Q2217.4 220.411 2219.49 218.212 Q2221.57 216.036 2221.57 211.615 L2221.57 209.508 Q2220.25 211.8 2218.19 212.934 Q2216.13 214.069 2213.26 214.069 Q2208.49 214.069 2205.58 210.434 Q2202.66 206.8 2202.66 200.805 Q2202.66 194.786 2205.58 191.152 Q2208.49 187.518 2213.26 187.518 Q2216.13 187.518 2218.19 188.652 Q2220.25 189.786 2221.57 192.078 L2221.57 188.143 L2225.83 188.143 L2225.83 210.851 Z" fill="#000000" fill-rule="nonzero" fill-opacity="1" /><path clip-path="url(#clip240)" d="M2256.78 200.041 L2256.78 202.124 L2237.2 202.124 Q2237.47 206.522 2239.84 208.837 Q2242.22 211.129 2246.46 211.129 Q2248.91 211.129 2251.2 210.527 Q2253.52 209.925 2255.78 208.721 L2255.78 212.749 Q2253.49 213.721 2251.09 214.231 Q2248.68 214.74 2246.2 214.74 Q2240 214.74 2236.36 211.129 Q2232.75 207.518 2232.75 201.36 Q2232.75 194.995 2236.18 191.268 Q2239.63 187.518 2245.46 187.518 Q2250.69 187.518 2253.72 190.897 Q2256.78 194.254 2256.78 200.041 M2252.52 198.791 Q2252.47 195.296 2250.55 193.212 Q2248.65 191.129 2245.51 191.129 Q2241.94 191.129 2239.79 193.143 Q2237.66 195.157 2237.34 198.814 L2252.52 198.791 Z" fill="#000000" fill-rule="nonzero" fill-opacity="1" /></svg>
