<?xml version="1.0" encoding="utf-8"?>
<svg xmlns="http://www.w3.org/2000/svg" xmlns:xlink="http://www.w3.org/1999/xlink" width="600" height="400" viewBox="0 0 2400 1600">
<defs>
  <clipPath id="clip800">
    <rect x="0" y="0" width="2400" height="1600"/>
  </clipPath>
</defs>
<path clip-path="url(#clip800)" d="M0 1600 L2400 1600 L2400 0 L0 0  Z" fill="#ffffff" fill-rule="evenodd" fill-opacity="1"/>
<defs>
  <clipPath id="clip801">
    <rect x="480" y="0" width="1681" height="1600"/>
  </clipPath>
</defs>
<path clip-path="url(#clip800)" d="M147.478 1423.18 L2352.76 1423.18 L2352.76 47.2441 L147.478 47.2441  Z" fill="#ffffff" fill-rule="evenodd" fill-opacity="1"/>
<defs>
  <clipPath id="clip802">
    <rect x="147" y="47" width="2206" height="1377"/>
  </clipPath>
</defs>
<polyline clip-path="url(#clip802)" style="stroke:#000000; stroke-linecap:round; stroke-linejoin:round; stroke-width:2; stroke-opacity:0.1; fill:none" points="147.478,1423.18 147.478,47.2441 "/>
<polyline clip-path="url(#clip802)" style="stroke:#000000; stroke-linecap:round; stroke-linejoin:round; stroke-width:2; stroke-opacity:0.1; fill:none" points="698.797,1423.18 698.797,47.2441 "/>
<polyline clip-path="url(#clip802)" style="stroke:#000000; stroke-linecap:round; stroke-linejoin:round; stroke-width:2; stroke-opacity:0.1; fill:none" points="1250.12,1423.18 1250.12,47.2441 "/>
<polyline clip-path="url(#clip802)" style="stroke:#000000; stroke-linecap:round; stroke-linejoin:round; stroke-width:2; stroke-opacity:0.1; fill:none" points="1801.44,1423.18 1801.44,47.2441 "/>
<polyline clip-path="url(#clip802)" style="stroke:#000000; stroke-linecap:round; stroke-linejoin:round; stroke-width:2; stroke-opacity:0.1; fill:none" points="2352.76,1423.18 2352.76,47.2441 "/>
<polyline clip-path="url(#clip802)" style="stroke:#000000; stroke-linecap:round; stroke-linejoin:round; stroke-width:2; stroke-opacity:0.1; fill:none" points="147.478,1416.43 2352.76,1416.43 "/>
<polyline clip-path="url(#clip802)" style="stroke:#000000; stroke-linecap:round; stroke-linejoin:round; stroke-width:2; stroke-opacity:0.1; fill:none" points="147.478,1014.17 2352.76,1014.17 "/>
<polyline clip-path="url(#clip802)" style="stroke:#000000; stroke-linecap:round; stroke-linejoin:round; stroke-width:2; stroke-opacity:0.1; fill:none" points="147.478,611.913 2352.76,611.913 "/>
<polyline clip-path="url(#clip802)" style="stroke:#000000; stroke-linecap:round; stroke-linejoin:round; stroke-width:2; stroke-opacity:0.1; fill:none" points="147.478,209.655 2352.76,209.655 "/>
<polyline clip-path="url(#clip800)" style="stroke:#000000; stroke-linecap:round; stroke-linejoin:round; stroke-width:4; stroke-opacity:1; fill:none" points="147.478,1423.18 2352.76,1423.18 "/>
<polyline clip-path="url(#clip800)" style="stroke:#000000; stroke-linecap:round; stroke-linejoin:round; stroke-width:4; stroke-opacity:1; fill:none" points="147.478,1423.18 147.478,1404.28 "/>
<polyline clip-path="url(#clip800)" style="stroke:#000000; stroke-linecap:round; stroke-linejoin:round; stroke-width:4; stroke-opacity:1; fill:none" points="698.797,1423.18 698.797,1404.28 "/>
<polyline clip-path="url(#clip800)" style="stroke:#000000; stroke-linecap:round; stroke-linejoin:round; stroke-width:4; stroke-opacity:1; fill:none" points="1250.12,1423.18 1250.12,1404.28 "/>
<polyline clip-path="url(#clip800)" style="stroke:#000000; stroke-linecap:round; stroke-linejoin:round; stroke-width:4; stroke-opacity:1; fill:none" points="1801.44,1423.18 1801.44,1404.28 "/>
<polyline clip-path="url(#clip800)" style="stroke:#000000; stroke-linecap:round; stroke-linejoin:round; stroke-width:4; stroke-opacity:1; fill:none" points="2352.76,1423.18 2352.76,1404.28 "/>
<path clip-path="url(#clip800)" d="M124.862 1454.1 Q121.251 1454.1 119.423 1457.66 Q117.617 1461.2 117.617 1468.33 Q117.617 1475.44 119.423 1479.01 Q121.251 1482.55 124.862 1482.55 Q128.497 1482.55 130.302 1479.01 Q132.131 1475.44 132.131 1468.33 Q132.131 1461.2 130.302 1457.66 Q128.497 1454.1 124.862 1454.1 M124.862 1450.39 Q130.672 1450.39 133.728 1455 Q136.807 1459.58 136.807 1468.33 Q136.807 1477.06 133.728 1481.67 Q130.672 1486.25 124.862 1486.25 Q119.052 1486.25 115.973 1481.67 Q112.918 1477.06 112.918 1468.33 Q112.918 1459.58 115.973 1455 Q119.052 1450.39 124.862 1450.39 Z" fill="#000000" fill-rule="nonzero" fill-opacity="1" /><path clip-path="url(#clip800)" d="M145.024 1479.7 L149.908 1479.7 L149.908 1485.58 L145.024 1485.58 L145.024 1479.7 Z" fill="#000000" fill-rule="nonzero" fill-opacity="1" /><path clip-path="url(#clip800)" d="M170.094 1454.1 Q166.482 1454.1 164.654 1457.66 Q162.848 1461.2 162.848 1468.33 Q162.848 1475.44 164.654 1479.01 Q166.482 1482.55 170.094 1482.55 Q173.728 1482.55 175.533 1479.01 Q177.362 1475.44 177.362 1468.33 Q177.362 1461.2 175.533 1457.66 Q173.728 1454.1 170.094 1454.1 M170.094 1450.39 Q175.904 1450.39 178.959 1455 Q182.038 1459.58 182.038 1468.33 Q182.038 1477.06 178.959 1481.67 Q175.904 1486.25 170.094 1486.25 Q164.283 1486.25 161.205 1481.67 Q158.149 1477.06 158.149 1468.33 Q158.149 1459.58 161.205 1455 Q164.283 1450.39 170.094 1450.39 Z" fill="#000000" fill-rule="nonzero" fill-opacity="1" /><path clip-path="url(#clip800)" d="M676.679 1454.1 Q673.068 1454.1 671.24 1457.66 Q669.434 1461.2 669.434 1468.33 Q669.434 1475.44 671.24 1479.01 Q673.068 1482.55 676.679 1482.55 Q680.314 1482.55 682.119 1479.01 Q683.948 1475.44 683.948 1468.33 Q683.948 1461.2 682.119 1457.66 Q680.314 1454.1 676.679 1454.1 M676.679 1450.39 Q682.49 1450.39 685.545 1455 Q688.624 1459.58 688.624 1468.33 Q688.624 1477.06 685.545 1481.67 Q682.49 1486.25 676.679 1486.25 Q670.869 1486.25 667.791 1481.67 Q664.735 1477.06 664.735 1468.33 Q664.735 1459.58 667.791 1455 Q670.869 1450.39 676.679 1450.39 Z" fill="#000000" fill-rule="nonzero" fill-opacity="1" /><path clip-path="url(#clip800)" d="M696.841 1479.7 L701.726 1479.7 L701.726 1485.58 L696.841 1485.58 L696.841 1479.7 Z" fill="#000000" fill-rule="nonzero" fill-opacity="1" /><path clip-path="url(#clip800)" d="M711.957 1451.02 L730.313 1451.02 L730.313 1454.96 L716.239 1454.96 L716.239 1463.43 Q717.258 1463.08 718.276 1462.92 Q719.295 1462.73 720.313 1462.73 Q726.101 1462.73 729.48 1465.9 Q732.86 1469.08 732.86 1474.49 Q732.86 1480.07 729.388 1483.17 Q725.915 1486.25 719.596 1486.25 Q717.42 1486.25 715.151 1485.88 Q712.906 1485.51 710.499 1484.77 L710.499 1480.07 Q712.582 1481.2 714.804 1481.76 Q717.026 1482.32 719.503 1482.32 Q723.508 1482.32 725.846 1480.21 Q728.184 1478.1 728.184 1474.49 Q728.184 1470.88 725.846 1468.77 Q723.508 1466.67 719.503 1466.67 Q717.628 1466.67 715.753 1467.08 Q713.901 1467.5 711.957 1468.38 L711.957 1451.02 Z" fill="#000000" fill-rule="nonzero" fill-opacity="1" /><path clip-path="url(#clip800)" d="M1217.27 1481.64 L1224.91 1481.64 L1224.91 1455.28 L1216.6 1456.95 L1216.6 1452.69 L1224.86 1451.02 L1229.54 1451.02 L1229.54 1481.64 L1237.18 1481.64 L1237.18 1485.58 L1217.27 1485.58 L1217.27 1481.64 Z" fill="#000000" fill-rule="nonzero" fill-opacity="1" /><path clip-path="url(#clip800)" d="M1246.62 1479.7 L1251.51 1479.7 L1251.51 1485.58 L1246.62 1485.58 L1246.62 1479.7 Z" fill="#000000" fill-rule="nonzero" fill-opacity="1" /><path clip-path="url(#clip800)" d="M1271.69 1454.1 Q1268.08 1454.1 1266.25 1457.66 Q1264.45 1461.2 1264.45 1468.33 Q1264.45 1475.44 1266.25 1479.01 Q1268.08 1482.55 1271.69 1482.55 Q1275.33 1482.55 1277.13 1479.01 Q1278.96 1475.44 1278.96 1468.33 Q1278.96 1461.2 1277.13 1457.66 Q1275.33 1454.1 1271.69 1454.1 M1271.69 1450.39 Q1277.5 1450.39 1280.56 1455 Q1283.64 1459.58 1283.64 1468.33 Q1283.64 1477.06 1280.56 1481.67 Q1277.5 1486.25 1271.69 1486.25 Q1265.88 1486.25 1262.8 1481.67 Q1259.75 1477.06 1259.75 1468.33 Q1259.75 1459.58 1262.8 1455 Q1265.88 1450.39 1271.69 1450.39 Z" fill="#000000" fill-rule="nonzero" fill-opacity="1" /><path clip-path="url(#clip800)" d="M1769.09 1481.64 L1776.73 1481.64 L1776.73 1455.28 L1768.42 1456.95 L1768.42 1452.69 L1776.68 1451.02 L1781.36 1451.02 L1781.36 1481.64 L1788.99 1481.64 L1788.99 1485.58 L1769.09 1485.58 L1769.09 1481.64 Z" fill="#000000" fill-rule="nonzero" fill-opacity="1" /><path clip-path="url(#clip800)" d="M1798.44 1479.7 L1803.32 1479.7 L1803.32 1485.58 L1798.44 1485.58 L1798.44 1479.7 Z" fill="#000000" fill-rule="nonzero" fill-opacity="1" /><path clip-path="url(#clip800)" d="M1813.55 1451.02 L1831.91 1451.02 L1831.91 1454.96 L1817.84 1454.96 L1817.84 1463.43 Q1818.86 1463.08 1819.87 1462.92 Q1820.89 1462.73 1821.91 1462.73 Q1827.7 1462.73 1831.08 1465.9 Q1834.46 1469.08 1834.46 1474.49 Q1834.46 1480.07 1830.98 1483.17 Q1827.51 1486.25 1821.19 1486.25 Q1819.02 1486.25 1816.75 1485.88 Q1814.5 1485.51 1812.1 1484.77 L1812.1 1480.07 Q1814.18 1481.2 1816.4 1481.76 Q1818.62 1482.32 1821.1 1482.32 Q1825.11 1482.32 1827.44 1480.21 Q1829.78 1478.1 1829.78 1474.49 Q1829.78 1470.88 1827.44 1468.77 Q1825.11 1466.67 1821.1 1466.67 Q1819.23 1466.67 1817.35 1467.08 Q1815.5 1467.5 1813.55 1468.38 L1813.55 1451.02 Z" fill="#000000" fill-rule="nonzero" fill-opacity="1" /><path clip-path="url(#clip800)" d="M2323.99 1481.64 L2340.31 1481.64 L2340.31 1485.58 L2318.37 1485.58 L2318.37 1481.64 Q2321.03 1478.89 2325.61 1474.26 Q2330.22 1469.61 2331.4 1468.27 Q2333.65 1465.74 2334.53 1464.01 Q2335.43 1462.25 2335.43 1460.56 Q2335.43 1457.8 2333.49 1456.07 Q2331.56 1454.33 2328.46 1454.33 Q2326.26 1454.33 2323.81 1455.09 Q2321.38 1455.86 2318.6 1457.41 L2318.6 1452.69 Q2321.43 1451.55 2323.88 1450.97 Q2326.33 1450.39 2328.37 1450.39 Q2333.74 1450.39 2336.93 1453.08 Q2340.13 1455.77 2340.13 1460.26 Q2340.13 1462.39 2339.32 1464.31 Q2338.53 1466.2 2336.42 1468.8 Q2335.85 1469.47 2332.74 1472.69 Q2329.64 1475.88 2323.99 1481.64 Z" fill="#000000" fill-rule="nonzero" fill-opacity="1" /><path clip-path="url(#clip800)" d="M2350.13 1479.7 L2355.01 1479.7 L2355.01 1485.58 L2350.13 1485.58 L2350.13 1479.7 Z" fill="#000000" fill-rule="nonzero" fill-opacity="1" /><path clip-path="url(#clip800)" d="M2375.2 1454.1 Q2371.59 1454.1 2369.76 1457.66 Q2367.95 1461.2 2367.95 1468.33 Q2367.95 1475.44 2369.76 1479.01 Q2371.59 1482.55 2375.2 1482.55 Q2378.83 1482.55 2380.64 1479.01 Q2382.47 1475.44 2382.47 1468.33 Q2382.47 1461.2 2380.64 1457.66 Q2378.83 1454.1 2375.2 1454.1 M2375.2 1450.39 Q2381.01 1450.39 2384.06 1455 Q2387.14 1459.58 2387.14 1468.33 Q2387.14 1477.06 2384.06 1481.67 Q2381.01 1486.25 2375.2 1486.25 Q2369.39 1486.25 2366.31 1481.67 Q2363.25 1477.06 2363.25 1468.33 Q2363.25 1459.58 2366.31 1455 Q2369.39 1450.39 2375.2 1450.39 Z" fill="#000000" fill-rule="nonzero" fill-opacity="1" /><path clip-path="url(#clip800)" d="M1249.18 1522.27 L1249.18 1532.4 L1261.24 1532.4 L1261.24 1536.95 L1249.18 1536.95 L1249.18 1556.3 Q1249.18 1560.66 1250.36 1561.9 Q1251.57 1563.14 1255.23 1563.14 L1261.24 1563.14 L1261.24 1568.04 L1255.23 1568.04 Q1248.45 1568.04 1245.87 1565.53 Q1243.29 1562.98 1243.29 1556.3 L1243.29 1536.95 L1238.99 1536.95 L1238.99 1532.4 L1243.29 1532.4 L1243.29 1522.27 L1249.18 1522.27 Z" fill="#000000" fill-rule="nonzero" fill-opacity="1" /><polyline clip-path="url(#clip800)" style="stroke:#000000; stroke-linecap:round; stroke-linejoin:round; stroke-width:4; stroke-opacity:1; fill:none" points="147.478,1423.18 147.478,47.2441 "/>
<polyline clip-path="url(#clip800)" style="stroke:#000000; stroke-linecap:round; stroke-linejoin:round; stroke-width:4; stroke-opacity:1; fill:none" points="147.478,1416.43 166.376,1416.43 "/>
<polyline clip-path="url(#clip800)" style="stroke:#000000; stroke-linecap:round; stroke-linejoin:round; stroke-width:4; stroke-opacity:1; fill:none" points="147.478,1014.17 166.376,1014.17 "/>
<polyline clip-path="url(#clip800)" style="stroke:#000000; stroke-linecap:round; stroke-linejoin:round; stroke-width:4; stroke-opacity:1; fill:none" points="147.478,611.913 166.376,611.913 "/>
<polyline clip-path="url(#clip800)" style="stroke:#000000; stroke-linecap:round; stroke-linejoin:round; stroke-width:4; stroke-opacity:1; fill:none" points="147.478,209.655 166.376,209.655 "/>
<path clip-path="url(#clip800)" d="M50.9921 1416.88 L80.6679 1416.88 L80.6679 1420.82 L50.9921 1420.82 L50.9921 1416.88 Z" fill="#000000" fill-rule="nonzero" fill-opacity="1" /><path clip-path="url(#clip800)" d="M91.5706 1429.77 L99.2095 1429.77 L99.2095 1403.41 L90.8993 1405.08 L90.8993 1400.82 L99.1632 1399.15 L103.839 1399.15 L103.839 1429.77 L111.478 1429.77 L111.478 1433.71 L91.5706 1433.71 L91.5706 1429.77 Z" fill="#000000" fill-rule="nonzero" fill-opacity="1" /><path clip-path="url(#clip800)" d="M99.5335 999.97 Q95.9224 999.97 94.0937 1003.53 Q92.2882 1007.08 92.2882 1014.21 Q92.2882 1021.31 94.0937 1024.88 Q95.9224 1028.42 99.5335 1028.42 Q103.168 1028.42 104.973 1024.88 Q106.802 1021.31 106.802 1014.21 Q106.802 1007.08 104.973 1003.53 Q103.168 999.97 99.5335 999.97 M99.5335 996.266 Q105.344 996.266 108.399 1000.87 Q111.478 1005.46 111.478 1014.21 Q111.478 1022.93 108.399 1027.54 Q105.344 1032.12 99.5335 1032.12 Q93.7234 1032.12 90.6447 1027.54 Q87.5892 1022.93 87.5892 1014.21 Q87.5892 1005.46 90.6447 1000.87 Q93.7234 996.266 99.5335 996.266 Z" fill="#000000" fill-rule="nonzero" fill-opacity="1" /><path clip-path="url(#clip800)" d="M91.5706 625.258 L99.2095 625.258 L99.2095 598.893 L90.8993 600.559 L90.8993 596.3 L99.1632 594.633 L103.839 594.633 L103.839 625.258 L111.478 625.258 L111.478 629.193 L91.5706 629.193 L91.5706 625.258 Z" fill="#000000" fill-rule="nonzero" fill-opacity="1" /><path clip-path="url(#clip800)" d="M95.1586 223 L111.478 223 L111.478 226.935 L89.5336 226.935 L89.5336 223 Q92.1956 220.246 96.7789 215.616 Q101.385 210.963 102.566 209.621 Q104.811 207.097 105.691 205.361 Q106.594 203.602 106.594 201.912 Q106.594 199.158 104.649 197.422 Q102.728 195.686 99.6261 195.686 Q97.4271 195.686 94.9734 196.449 Q92.5428 197.213 89.7651 198.764 L89.7651 194.042 Q92.5891 192.908 95.0428 192.329 Q97.4965 191.75 99.5335 191.75 Q104.904 191.75 108.098 194.436 Q111.293 197.121 111.293 201.611 Q111.293 203.741 110.483 205.662 Q109.696 207.56 107.589 210.153 Q107.01 210.824 103.909 214.042 Q100.807 217.236 95.1586 223 Z" fill="#000000" fill-rule="nonzero" fill-opacity="1" /><polyline clip-path="url(#clip802)" style="stroke:#009af9; stroke-linecap:round; stroke-linejoin:round; stroke-width:4; stroke-opacity:1; fill:none" points="147.478,1384.24 149.685,1381.29 151.893,1378.37 154.1,1375.48 156.308,1372.62 158.515,1369.78 160.723,1366.98 162.93,1364.2 165.138,1361.45 167.345,1358.73 169.553,1356.04 171.76,1353.37 173.968,1350.73 176.175,1348.11 178.383,1345.52 180.59,1342.96 182.798,1340.42 185.005,1337.91 187.213,1335.42 189.42,1332.96 191.628,1330.52 193.835,1328.11 196.043,1325.72 198.25,1323.35 200.458,1321.01 202.665,1318.69 204.873,1316.39 207.08,1314.12 209.288,1311.87 211.495,1309.64 213.702,1307.43 215.91,1305.25 218.117,1303.09 220.325,1300.95 222.532,1298.83 224.74,1296.73 226.947,1294.65 229.155,1292.6 231.362,1290.56 233.57,1288.54 235.777,1286.55 237.985,1284.57 240.192,1282.62 242.4,1280.68 244.607,1278.76 246.815,1276.86 249.022,1274.98 251.23,1273.12 253.437,1271.28 255.645,1269.46 257.852,1267.65 260.06,1265.86 262.267,1264.09 264.475,1262.34 266.682,1260.61 268.89,1258.89 271.097,1257.19 273.305,1255.5 275.512,1253.84 277.72,1252.19 279.927,1250.55 282.135,1248.94 284.342,1247.33 286.549,1245.75 288.757,1244.18 290.964,1242.63 293.172,1241.09 295.379,1239.56 297.587,1238.06 299.794,1236.56 302.002,1235.09 304.209,1233.62 306.417,1232.17 308.624,1230.74 310.832,1229.32 313.039,1227.91 315.247,1226.52 317.454,1225.14 319.662,1223.78 321.869,1222.43 324.077,1221.09 326.284,1219.77 328.492,1218.46 330.699,1217.16 332.907,1215.87 335.114,1214.6 337.322,1213.34 339.529,1212.09 341.737,1210.86 343.944,1209.64 346.152,1208.43 348.359,1207.23 350.567,1206.04 352.774,1204.87 354.982,1203.71 357.189,1202.56 359.397,1201.42 361.604,1200.29 363.811,1199.17 366.019,1198.07 368.226,1196.97 370.434,1195.89 372.641,1194.82 374.849,1193.75 377.056,1192.7 379.264,1191.66 381.471,1190.63 383.679,1189.61 385.886,1188.6 388.094,1187.6 390.301,1186.61 392.509,1185.63 394.716,1184.66 396.924,1183.7 399.131,1182.74 401.339,1181.8 403.546,1180.87 405.754,1179.95 407.961,1179.03 410.169,1178.13 412.376,1177.23 414.584,1176.34 416.791,1175.47 418.999,1174.6 421.206,1173.73 423.414,1172.88 425.621,1172.04 427.829,1171.2 430.036,1170.38 432.244,1169.56 434.451,1168.75 436.659,1167.94 438.866,1167.15 441.073,1166.36 443.281,1165.58 445.488,1164.81 447.696,1164.05 449.903,1163.29 452.111,1162.54 454.318,1161.8 456.526,1161.07 458.733,1160.34 460.941,1159.62 463.148,1158.91 465.356,1158.21 467.563,1157.51 469.771,1156.82 471.978,1156.14 474.186,1155.46 476.393,1154.79 478.601,1154.13 480.808,1153.47 483.016,1152.82 485.223,1152.17 487.431,1151.54 489.638,1150.91 491.846,1150.28 494.053,1149.66 496.261,1149.05 498.468,1148.44 500.676,1147.84 502.883,1147.25 505.091,1146.66 507.298,1146.08 509.506,1145.5 511.713,1144.93 513.921,1144.36 516.128,1143.8 518.335,1143.25 520.543,1142.7 522.75,1142.16 524.958,1141.62 527.165,1141.09 529.373,1140.56 531.58,1140.04 533.788,1139.52 535.995,1139.01 538.203,1138.5 540.41,1138 542.618,1137.5 544.825,1137.01 547.033,1136.53 549.24,1136.05 551.448,1135.57 553.655,1135.1 555.863,1134.63 558.07,1134.17 560.278,1133.71 562.485,1133.25 564.693,1132.8 566.9,1132.36 569.108,1131.92 571.315,1131.48 573.523,1131.05 575.73,1130.63 577.938,1130.2 580.145,1129.78 582.353,1129.37 584.56,1128.96 586.768,1128.55 588.975,1128.15 591.182,1127.75 593.39,1127.36 595.597,1126.97 597.805,1126.58 600.012,1126.2 602.22,1125.82 604.427,1125.44 606.635,1125.07 608.842,1124.71 611.05,1124.34 613.257,1123.98 615.465,1123.62 617.672,1123.27 619.88,1122.92 622.087,1122.57 624.295,1122.23 626.502,1121.89 628.71,1121.56 630.917,1121.22 633.125,1120.89 635.332,1120.57 637.54,1120.25 639.747,1119.93 641.955,1119.61 644.162,1119.3 646.37,1118.99 648.577,1118.68 650.785,1118.38 652.992,1118.07 655.2,1117.78 657.407,1117.48 659.615,1117.19 661.822,1116.9 664.03,1116.61 666.237,1116.33 668.444,1116.05 670.652,1115.77 672.859,1115.5 675.067,1115.22 677.274,1114.96 679.482,1114.69 681.689,1114.42 683.897,1114.16 686.104,1113.9 688.312,1113.65 690.519,1113.39 692.727,1113.14 694.934,1112.89 697.142,1112.65 699.349,1112.4 701.557,1112.16 703.764,1111.92 705.972,1111.69 708.179,1111.45 710.387,1111.22 712.594,1110.99 714.802,1110.76 717.009,1110.54 719.217,1110.32 721.424,1110.09 723.632,1109.88 725.839,1109.66 728.047,1109.45 730.254,1109.23 732.462,1109.02 734.669,1108.82 736.877,1108.61 739.084,1108.41 741.292,1108.2 743.499,1108.01 745.706,1107.81 747.914,1107.61 750.121,1107.42 752.329,1107.23 754.536,1107.04 756.744,1106.85 758.951,1106.66 761.159,1106.48 763.366,1106.29 765.574,1106.11 767.781,1105.94 769.989,1105.76 772.196,1105.58 774.404,1105.41 776.611,1105.24 778.819,1105.07 781.026,1104.9 783.234,1104.73 785.441,1104.57 787.649,1104.4 789.856,1104.24 792.064,1104.08 794.271,1103.92 796.479,1103.77 798.686,1103.61 800.894,1103.46 803.101,1103.3 805.309,1103.15 807.516,1103 809.724,1102.86 811.931,1102.71 814.139,1102.57 816.346,1102.42 818.553,1102.28 820.761,1102.14 822.968,1102 825.176,1101.86 827.383,1101.73 829.591,1101.59 831.798,1101.46 834.006,1101.32 836.213,1101.19 838.421,1101.06 840.628,1100.94 842.836,1100.81 845.043,1100.68 847.251,1100.56 849.458,1100.43 851.666,1100.31 853.873,1100.19 856.081,1100.07 858.288,1099.95 860.496,1099.84 862.703,1099.72 864.911,1099.6 867.118,1099.49 869.326,1099.38 871.533,1099.27 873.741,1099.15 875.948,1099.05 878.156,1098.94 880.363,1098.83 882.571,1098.72 884.778,1098.62 886.986,1098.51 889.193,1098.41 891.401,1098.31 893.608,1098.21 895.815,1098.11 898.023,1098.01 900.23,1097.91 902.438,1097.81 904.645,1097.72 906.853,1097.62 909.06,1097.53 911.268,1097.43 913.475,1097.34 915.683,1097.25 917.89,1097.16 920.098,1097.07 922.305,1096.98 924.513,1096.89 926.72,1096.81 928.928,1096.72 931.135,1096.63 933.343,1096.55 935.55,1096.47 937.758,1096.38 939.965,1096.3 942.173,1096.22 944.38,1096.14 946.588,1096.06 948.795,1095.98 951.003,1095.9 953.21,1095.83 955.418,1095.75 957.625,1095.68 959.833,1095.6 962.04,1095.53 964.248,1095.45 966.455,1095.38 968.663,1095.31 970.87,1095.24 973.077,1095.17 975.285,1095.1 977.492,1095.03 979.7,1094.96 981.907,1094.89 984.115,1094.83 986.322,1094.76 988.53,1094.69 990.737,1094.63 992.945,1094.56 995.152,1094.5 997.36,1094.44 999.567,1094.37 1001.77,1094.31 1003.98,1094.25 1006.19,1094.19 1008.4,1094.13 1010.6,1094.07 1012.81,1094.01 1015.02,1093.95 1017.23,1093.9 1019.43,1093.84 1021.64,1093.78 1023.85,1093.73 1026.06,1093.67 1028.26,1093.62 1030.47,1093.56 1032.68,1093.51 1034.89,1093.46 1037.09,1093.4 1039.3,1093.35 1041.51,1093.3 1043.72,1093.25 1045.92,1093.2 1048.13,1093.15 1050.34,1093.1 1052.55,1093.05 1054.75,1093 1056.96,1092.95 1059.17,1092.9 1061.38,1092.86 1063.58,1092.81 1065.79,1092.76 1068,1092.72 1070.21,1092.67 1072.41,1092.63 1074.62,1092.58 1076.83,1092.54 1079.04,1092.49 1081.24,1092.45 1083.45,1092.41 1085.66,1092.37 1087.87,1092.32 1090.07,1092.28 1092.28,1092.24 1094.49,1092.2 1096.7,1092.16 1098.9,1092.12 1101.11,1092.08 1103.32,1092.04 1105.53,1092 1107.73,1091.97 1109.94,1091.93 1112.15,1091.89 1114.36,1091.85 1116.56,1091.82 1118.77,1091.78 1120.98,1091.74 1123.19,1091.71 1125.39,1091.67 1127.6,1091.64 1129.81,1091.6 1132.02,1091.57 1134.22,1091.53 1136.43,1091.5 1138.64,1091.47 1140.85,1091.44 1143.05,1091.4 1145.26,1091.37 1147.47,1091.34 1149.68,1091.31 1151.88,1091.28 1154.09,1091.24 1156.3,1091.21 1158.51,1091.18 1160.71,1091.15 1162.92,1091.12 1165.13,1091.09 1167.34,1091.06 1169.54,1091.04 1171.75,1091.01 1173.96,1090.98 1176.17,1090.95 1178.37,1090.92 1180.58,1090.9 1182.79,1090.87 1185,1090.84 1187.2,1090.81 1189.41,1090.79 1191.62,1090.76 1193.83,1090.74 1196.03,1090.71 1198.24,1090.69 1200.45,1090.66 1202.66,1090.63 1204.86,1090.61 1207.07,1090.59 1209.28,1090.56 1211.49,1090.54 1213.69,1090.51 1215.9,1090.49 1218.11,1090.47 1220.32,1090.44 1222.52,1090.42 1224.73,1090.4 1226.94,1090.38 1229.15,1090.35 1231.35,1090.33 1233.56,1090.31 1235.77,1090.29 1237.98,1090.27 1240.18,1090.25 1242.39,1090.23 1244.6,1090.21 1246.81,1090.19 1249.01,1090.17 1251.22,1090.15 1253.43,1090.13 1255.64,1090.11 1257.84,1090.09 1260.05,1090.07 1262.26,1090.05 1264.47,1090.03 1266.67,1090.01 1268.88,1089.99 1271.09,1089.97 1273.3,1089.96 1275.5,1089.94 1277.71,1089.92 1279.92,1089.9 1282.13,1089.89 1284.33,1089.87 1286.54,1089.85 1288.75,1089.83 1290.96,1089.82 1293.16,1089.8 1295.37,1089.78 1297.58,1089.77 1299.79,1089.75 1301.99,1089.74 1304.2,1089.72 1306.41,1089.71 1308.62,1089.69 1310.82,1089.68 1313.03,1089.66 1315.24,1089.65 1317.45,1089.63 1319.65,1089.62 1321.86,1089.6 1324.07,1089.59 1326.28,1089.57 1328.48,1089.56 1330.69,1089.54 1332.9,1089.53 1335.11,1089.52 1337.31,1089.5 1339.52,1089.49 1341.73,1089.48 1343.94,1089.46 1346.14,1089.45 1348.35,1089.44 1350.56,1089.43 1352.76,1089.41 1354.97,1089.4 1357.18,1089.39 1359.39,1089.38 1361.59,1089.36 1363.8,1089.35 1366.01,1089.34 1368.22,1089.33 1370.42,1089.32 1372.63,1089.31 1374.84,1089.29 1377.05,1089.28 1379.25,1089.27 1381.46,1089.26 1383.67,1089.25 1385.88,1089.24 1388.08,1089.23 1390.29,1089.22 1392.5,1089.21 1394.71,1089.2 1396.91,1089.19 1399.12,1089.18 1401.33,1089.17 1403.54,1089.16 1405.74,1089.15 1407.95,1089.14 1410.16,1089.13 1412.37,1089.12 1414.57,1089.11 1416.78,1089.1 1418.99,1089.09 1421.2,1089.08 1423.4,1089.07 1425.61,1089.06 1427.82,1089.05 1430.03,1089.04 1432.23,1089.03 1434.44,1089.03 1436.65,1089.02 1438.86,1089.01 1441.06,1089 1443.27,1088.99 1445.48,1088.98 1447.69,1088.97 1449.89,1088.97 1452.1,1088.96 1454.31,1088.95 1456.52,1088.94 1458.72,1088.94 1460.93,1088.93 1463.14,1088.92 1465.35,1088.91 1467.55,1088.9 1469.76,1088.9 1471.97,1088.89 1474.18,1088.88 1476.38,1088.88 1478.59,1088.87 1480.8,1088.86 1483.01,1088.85 1485.21,1088.85 1487.42,1088.84 1489.63,1088.83 1491.84,1088.83 1494.04,1088.82 1496.25,1088.81 1498.46,1088.81 1500.67,1088.8 1502.87,1088.79 1505.08,1088.79 1507.29,1088.78 1509.5,1088.78 1511.7,1088.77 1513.91,1088.76 1516.12,1088.76 1518.33,1088.75 1520.53,1088.75 1522.74,1088.74 1524.95,1088.73 1527.16,1088.73 1529.36,1088.72 1531.57,1088.72 1533.78,1088.71 1535.99,1088.71 1538.19,1088.7 1540.4,1088.7 1542.61,1088.69 1544.82,1088.68 1547.02,1088.68 1549.23,1088.67 1551.44,1088.67 1553.65,1088.66 1555.85,1088.66 1558.06,1088.65 1560.27,1088.65 1562.48,1088.64 1564.68,1088.64 1566.89,1088.64 1569.1,1088.63 1571.31,1088.63 1573.51,1088.62 1575.72,1088.62 1577.93,1088.61 1580.14,1088.61 1582.34,1088.6 1584.55,1088.6 1586.76,1088.59 1588.97,1088.59 1591.17,1088.59 1593.38,1088.58 1595.59,1088.58 1597.8,1088.57 1600,1088.57 1602.21,1088.57 1604.42,1088.56 1606.63,1088.56 1608.83,1088.55 1611.04,1088.55 1613.25,1088.55 1615.46,1088.54 1617.66,1088.54 1619.87,1088.53 1622.08,1088.53 1624.29,1088.53 1626.49,1088.52 1628.7,1088.52 1630.91,1088.52 1633.12,1088.51 1635.32,1088.51 1637.53,1088.51 1639.74,1088.5 1641.95,1088.5 1644.15,1088.5 1646.36,1088.49 1648.57,1088.49 1650.78,1088.49 1652.98,1088.48 1655.19,1088.48 1657.4,1088.48 1659.61,1088.47 1661.81,1088.47 1664.02,1088.47 1666.23,1088.46 1668.44,1088.46 1670.64,1088.46 1672.85,1088.45 1675.06,1088.45 1677.27,1088.45 1679.47,1088.45 1681.68,1088.44 1683.89,1088.44 1686.1,1088.44 1688.3,1088.43 1690.51,1088.43 1692.72,1088.43 1694.93,1088.43 1697.13,1088.42 1699.34,1088.42 1701.55,1088.42 1703.76,1088.42 1705.96,1088.41 1708.17,1088.41 1710.38,1088.41 1712.59,1088.41 1714.79,1088.4 1717,1088.4 1719.21,1088.4 1721.42,1088.4 1723.62,1088.39 1725.83,1088.39 1728.04,1088.39 1730.25,1088.39 1732.45,1088.38 1734.66,1088.38 1736.87,1088.38 1739.07,1088.38 1741.28,1088.38 1743.49,1088.37 1745.7,1088.37 1747.9,1088.37 1750.11,1088.37 1752.32,1088.36 1754.53,1088.36 1756.73,1088.36 1758.94,1088.36 1761.15,1088.36 1763.36,1088.35 1765.56,1088.35 1767.77,1088.35 1769.98,1088.35 1772.19,1088.35 1774.39,1088.35 1776.6,1088.34 1778.81,1088.34 1781.02,1088.34 1783.22,1088.34 1785.43,1088.34 1787.64,1088.33 1789.85,1088.33 1792.05,1088.33 1794.26,1088.33 1796.47,1088.33 1798.68,1088.33 1800.88,1088.32 1803.09,1088.32 1805.3,1088.32 1807.51,1088.32 1809.71,1088.32 1811.92,1088.32 1814.13,1088.32 1816.34,1088.31 1818.54,1088.31 1820.75,1088.31 1822.96,1088.31 1825.17,1088.31 1827.37,1088.31 1829.58,1088.3 1831.79,1088.3 1834,1088.3 1836.2,1088.3 1838.41,1088.3 1840.62,1088.3 1842.83,1088.3 1845.03,1088.3 1847.24,1088.29 1849.45,1088.29 1851.66,1088.29 1853.86,1088.29 1856.07,1088.29 1858.28,1088.29 1860.49,1088.29 1862.69,1088.29 1864.9,1088.28 1867.11,1088.28 1869.32,1088.28 1871.52,1088.28 1873.73,1088.28 1875.94,1088.28 1878.15,1088.28 1880.35,1088.28 1882.56,1088.27 1884.77,1088.27 1886.98,1088.27 1889.18,1088.27 1891.39,1088.27 1893.6,1088.27 1895.81,1088.27 1898.01,1088.27 1900.22,1088.27 1902.43,1088.26 1904.64,1088.26 1906.84,1088.26 1909.05,1088.26 1911.26,1088.26 1913.47,1088.26 1915.67,1088.26 1917.88,1088.26 1920.09,1088.26 1922.3,1088.26 1924.5,1088.25 1926.71,1088.25 1928.92,1088.25 1931.13,1088.25 1933.33,1088.25 1935.54,1088.25 1937.75,1088.25 1939.96,1088.25 1942.16,1088.25 1944.37,1088.25 1946.58,1088.25 1948.79,1088.24 1950.99,1088.24 1953.2,1088.24 1955.41,1088.24 1957.62,1088.24 1959.82,1088.24 1962.03,1088.24 1964.24,1088.24 1966.45,1088.24 1968.65,1088.24 1970.86,1088.24 1973.07,1088.24 1975.28,1088.24 1977.48,1088.23 1979.69,1088.23 1981.9,1088.23 1984.11,1088.23 1986.31,1088.23 1988.52,1088.23 1990.73,1088.23 1992.94,1088.23 1995.14,1088.23 1997.35,1088.23 1999.56,1088.23 2001.77,1088.23 2003.97,1088.23 2006.18,1088.23 2008.39,1088.22 2010.6,1088.22 2012.8,1088.22 2015.01,1088.22 2017.22,1088.22 2019.43,1088.22 2021.63,1088.22 2023.84,1088.22 2026.05,1088.22 2028.26,1088.22 2030.46,1088.22 2032.67,1088.22 2034.88,1088.22 2037.09,1088.22 2039.29,1088.22 2041.5,1088.22 2043.71,1088.22 2045.92,1088.21 2048.12,1088.21 2050.33,1088.21 2052.54,1088.21 2054.75,1088.21 2056.95,1088.21 2059.16,1088.21 2061.37,1088.21 2063.58,1088.21 2065.78,1088.21 2067.99,1088.21 2070.2,1088.21 2072.41,1088.21 2074.61,1088.21 2076.82,1088.21 2079.03,1088.21 2081.24,1088.21 2083.44,1088.21 2085.65,1088.21 2087.86,1088.21 2090.07,1088.2 2092.27,1088.2 2094.48,1088.2 2096.69,1088.2 2098.9,1088.2 2101.1,1088.2 2103.31,1088.2 2105.52,1088.2 2107.73,1088.2 2109.93,1088.2 2112.14,1088.2 2114.35,1088.2 2116.55,1088.2 2118.76,1088.2 2120.97,1088.2 2123.18,1088.2 2125.38,1088.2 2127.59,1088.2 2129.8,1088.2 2132.01,1088.2 2134.21,1088.2 2136.42,1088.2 2138.63,1088.2 2140.84,1088.2 2143.04,1088.2 2145.25,1088.2 2147.46,1088.19 2149.67,1088.19 2151.87,1088.19 2154.08,1088.19 2156.29,1088.19 2158.5,1088.19 2160.7,1088.19 2162.91,1088.19 2165.12,1088.19 2167.33,1088.19 2169.53,1088.19 2171.74,1088.19 2173.95,1088.19 2176.16,1088.19 2178.36,1088.19 2180.57,1088.19 2182.78,1088.19 2184.99,1088.19 2187.19,1088.19 2189.4,1088.19 2191.61,1088.19 2193.82,1088.19 2196.02,1088.19 2198.23,1088.19 2200.44,1088.19 2202.65,1088.19 2204.85,1088.19 2207.06,1088.19 2209.27,1088.19 2211.48,1088.19 2213.68,1088.19 2215.89,1088.19 2218.1,1088.19 2220.31,1088.19 2222.51,1088.19 2224.72,1088.18 2226.93,1088.18 2229.14,1088.18 2231.34,1088.18 2233.55,1088.18 2235.76,1088.18 2237.97,1088.18 2240.17,1088.18 2242.38,1088.18 2244.59,1088.18 2246.8,1088.18 2249,1088.18 2251.21,1088.18 2253.42,1088.18 2255.63,1088.18 2257.83,1088.18 2260.04,1088.18 2262.25,1088.18 2264.46,1088.18 2266.66,1088.18 2268.87,1088.18 2271.08,1088.18 2273.29,1088.18 2275.49,1088.18 2277.7,1088.18 2279.91,1088.18 2282.12,1088.18 2284.32,1088.18 2286.53,1088.18 2288.74,1088.18 2290.95,1088.18 2293.15,1088.18 2295.36,1088.18 2297.57,1088.18 2299.78,1088.18 2301.98,1088.18 2304.19,1088.18 2306.4,1088.18 2308.61,1088.18 2310.81,1088.18 2313.02,1088.18 2315.23,1088.18 2317.44,1088.18 2319.64,1088.18 2321.85,1088.18 2324.06,1088.18 2326.27,1088.18 2328.47,1088.18 2330.68,1088.18 2332.89,1088.18 2335.1,1088.18 2337.3,1088.18 2339.51,1088.18 2341.72,1088.17 2343.93,1088.17 2346.13,1088.17 2348.34,1088.17 2350.55,1088.17 2352.76,1088.17 "/>
<polyline clip-path="url(#clip802)" style="stroke:#e26f46; stroke-linecap:round; stroke-linejoin:round; stroke-width:4; stroke-opacity:1; fill:none" points="147.478,86.1857 149.685,93.8403 151.893,101.433 154.1,108.963 156.308,116.432 158.515,123.841 160.723,131.189 162.93,138.478 165.138,145.707 167.345,152.878 169.553,159.991 171.76,167.046 173.968,174.044 176.175,180.985 178.383,187.87 180.59,194.699 182.798,201.473 185.005,208.193 187.213,214.858 189.42,221.469 191.628,228.027 193.835,234.532 196.043,240.984 198.25,247.385 200.458,253.734 202.665,260.032 204.873,266.279 207.08,272.476 209.288,278.623 211.495,284.721 213.702,290.77 215.91,296.77 218.117,302.723 220.325,308.627 222.532,314.484 224.74,320.294 226.947,326.058 229.155,331.775 231.362,337.447 233.57,343.074 235.777,348.655 237.985,354.192 240.192,359.685 242.4,365.134 244.607,370.539 246.815,375.902 249.022,381.221 251.23,386.499 253.437,391.734 255.645,396.927 257.852,402.08 260.06,407.191 262.267,412.262 264.475,417.293 266.682,422.283 268.89,427.234 271.097,432.146 273.305,437.019 275.512,441.854 277.72,446.65 279.927,451.408 282.135,456.128 284.342,460.811 286.549,465.458 288.757,470.067 290.964,474.64 293.172,479.177 295.379,483.679 297.587,488.144 299.794,492.575 302.002,496.971 304.209,501.332 306.417,505.659 308.624,509.952 310.832,514.211 313.039,518.437 315.247,522.629 317.454,526.789 319.662,530.916 321.869,535.011 324.077,539.073 326.284,543.104 328.492,547.103 330.699,551.072 332.907,555.009 335.114,558.915 337.322,562.791 339.529,566.636 341.737,570.452 343.944,574.238 346.152,577.994 348.359,581.721 350.567,585.419 352.774,589.089 354.982,592.729 357.189,596.342 359.397,599.926 361.604,603.483 363.811,607.012 366.019,610.513 368.226,613.988 370.434,617.435 372.641,620.856 374.849,624.25 377.056,627.618 379.264,630.96 381.471,634.276 383.679,637.567 385.886,640.832 388.094,644.072 390.301,647.287 392.509,650.477 394.716,653.642 396.924,656.784 399.131,659.901 401.339,662.994 403.546,666.063 405.754,669.109 407.961,672.131 410.169,675.13 412.376,678.106 414.584,681.059 416.791,683.99 418.999,686.898 421.206,689.784 423.414,692.648 425.621,695.489 427.829,698.31 430.036,701.108 432.244,703.885 434.451,706.641 436.659,709.376 438.866,712.09 441.073,714.784 443.281,717.457 445.488,720.109 447.696,722.741 449.903,725.354 452.111,727.946 454.318,730.519 456.526,733.072 458.733,735.606 460.941,738.12 463.148,740.616 465.356,743.092 467.563,745.55 469.771,747.989 471.978,750.41 474.186,752.812 476.393,755.196 478.601,757.562 480.808,759.911 483.016,762.241 485.223,764.554 487.431,766.85 489.638,769.128 491.846,771.389 494.053,773.633 496.261,775.86 498.468,778.07 500.676,780.264 502.883,782.441 505.091,784.602 507.298,786.747 509.506,788.875 511.713,790.988 513.921,793.085 516.128,795.166 518.335,797.231 520.543,799.281 522.75,801.316 524.958,803.336 527.165,805.34 529.373,807.329 531.58,809.304 533.788,811.264 535.995,813.209 538.203,815.139 540.41,817.056 542.618,818.958 544.825,820.845 547.033,822.719 549.24,824.579 551.448,826.425 553.655,828.257 555.863,830.076 558.07,831.881 560.278,833.672 562.485,835.451 564.693,837.216 566.9,838.968 569.108,840.707 571.315,842.434 573.523,844.147 575.73,845.848 577.938,847.536 580.145,849.212 582.353,850.875 584.56,852.527 586.768,854.165 588.975,855.792 591.182,857.407 593.39,859.01 595.597,860.601 597.805,862.181 600.012,863.749 602.22,865.305 604.427,866.85 606.635,868.384 608.842,869.906 611.05,871.417 613.257,872.917 615.465,874.406 617.672,875.885 619.88,877.352 622.087,878.809 624.295,880.255 626.502,881.69 628.71,883.115 630.917,884.53 633.125,885.934 635.332,887.328 637.54,888.712 639.747,890.085 641.955,891.449 644.162,892.803 646.37,894.147 648.577,895.481 650.785,896.805 652.992,898.12 655.2,899.425 657.407,900.721 659.615,902.007 661.822,903.284 664.03,904.551 666.237,905.81 668.444,907.059 670.652,908.3 672.859,909.531 675.067,910.753 677.274,911.967 679.482,913.172 681.689,914.368 683.897,915.555 686.104,916.734 688.312,917.904 690.519,919.066 692.727,920.22 694.934,921.365 697.142,922.502 699.349,923.63 701.557,924.751 703.764,925.864 705.972,926.968 708.179,928.065 710.387,929.154 712.594,930.235 714.802,931.308 717.009,932.373 719.217,933.431 721.424,934.482 723.632,935.524 725.839,936.56 728.047,937.588 730.254,938.608 732.462,939.622 734.669,940.628 736.877,941.627 739.084,942.618 741.292,943.603 743.499,944.581 745.706,945.551 747.914,946.515 750.121,947.472 752.329,948.422 754.536,949.366 756.744,950.303 758.951,951.233 761.159,952.156 763.366,953.073 765.574,953.983 767.781,954.887 769.989,955.785 772.196,956.676 774.404,957.56 776.611,958.439 778.819,959.311 781.026,960.177 783.234,961.037 785.441,961.891 787.649,962.739 789.856,963.581 792.064,964.417 794.271,965.247 796.479,966.071 798.686,966.889 800.894,967.701 803.101,968.508 805.309,969.309 807.516,970.105 809.724,970.895 811.931,971.679 814.139,972.458 816.346,973.231 818.553,973.999 820.761,974.761 822.968,975.518 825.176,976.27 827.383,977.017 829.591,977.758 831.798,978.494 834.006,979.225 836.213,979.951 838.421,980.671 840.628,981.387 842.836,982.098 845.043,982.804 847.251,983.504 849.458,984.2 851.666,984.891 853.873,985.577 856.081,986.259 858.288,986.936 860.496,987.608 862.703,988.275 864.911,988.938 867.118,989.596 869.326,990.249 871.533,990.898 873.741,991.543 875.948,992.183 878.156,992.818 880.363,993.449 882.571,994.076 884.778,994.699 886.986,995.317 889.193,995.931 891.401,996.54 893.608,997.146 895.815,997.747 898.023,998.344 900.23,998.937 902.438,999.526 904.645,1000.11 906.853,1000.69 909.06,1001.27 911.268,1001.84 913.475,1002.41 915.683,1002.97 917.89,1003.54 920.098,1004.09 922.305,1004.65 924.513,1005.2 926.72,1005.74 928.928,1006.28 931.135,1006.82 933.343,1007.36 935.55,1007.89 937.758,1008.41 939.965,1008.94 942.173,1009.46 944.38,1009.97 946.588,1010.49 948.795,1011 951.003,1011.5 953.21,1012 955.418,1012.5 957.625,1013 959.833,1013.49 962.04,1013.98 964.248,1014.46 966.455,1014.95 968.663,1015.42 970.87,1015.9 973.077,1016.37 975.285,1016.84 977.492,1017.31 979.7,1017.77 981.907,1018.23 984.115,1018.69 986.322,1019.14 988.53,1019.59 990.737,1020.04 992.945,1020.48 995.152,1020.92 997.36,1021.36 999.567,1021.79 1001.77,1022.23 1003.98,1022.65 1006.19,1023.08 1008.4,1023.5 1010.6,1023.92 1012.81,1024.34 1015.02,1024.76 1017.23,1025.17 1019.43,1025.58 1021.64,1025.98 1023.85,1026.39 1026.06,1026.79 1028.26,1027.19 1030.47,1027.58 1032.68,1027.98 1034.89,1028.37 1037.09,1028.75 1039.3,1029.14 1041.51,1029.52 1043.72,1029.9 1045.92,1030.28 1048.13,1030.65 1050.34,1031.03 1052.55,1031.4 1054.75,1031.76 1056.96,1032.13 1059.17,1032.49 1061.38,1032.85 1063.58,1033.21 1065.79,1033.56 1068,1033.92 1070.21,1034.27 1072.41,1034.61 1074.62,1034.96 1076.83,1035.3 1079.04,1035.64 1081.24,1035.98 1083.45,1036.32 1085.66,1036.65 1087.87,1036.98 1090.07,1037.31 1092.28,1037.64 1094.49,1037.97 1096.7,1038.29 1098.9,1038.61 1101.11,1038.93 1103.32,1039.25 1105.53,1039.56 1107.73,1039.87 1109.94,1040.18 1112.15,1040.49 1114.36,1040.8 1116.56,1041.1 1118.77,1041.41 1120.98,1041.71 1123.19,1042 1125.39,1042.3 1127.6,1042.59 1129.81,1042.89 1132.02,1043.18 1134.22,1043.47 1136.43,1043.75 1138.64,1044.04 1140.85,1044.32 1143.05,1044.6 1145.26,1044.88 1147.47,1045.16 1149.68,1045.43 1151.88,1045.7 1154.09,1045.98 1156.3,1046.25 1158.51,1046.51 1160.71,1046.78 1162.92,1047.04 1165.13,1047.31 1167.34,1047.57 1169.54,1047.83 1171.75,1048.09 1173.96,1048.34 1176.17,1048.6 1178.37,1048.85 1180.58,1049.1 1182.79,1049.35 1185,1049.6 1187.2,1049.84 1189.41,1050.09 1191.62,1050.33 1193.83,1050.57 1196.03,1050.81 1198.24,1051.05 1200.45,1051.28 1202.66,1051.52 1204.86,1051.75 1207.07,1051.98 1209.28,1052.21 1211.49,1052.44 1213.69,1052.67 1215.9,1052.89 1218.11,1053.12 1220.32,1053.34 1222.52,1053.56 1224.73,1053.78 1226.94,1054 1229.15,1054.22 1231.35,1054.43 1233.56,1054.65 1235.77,1054.86 1237.98,1055.07 1240.18,1055.28 1242.39,1055.49 1244.6,1055.7 1246.81,1055.9 1249.01,1056.11 1251.22,1056.31 1253.43,1056.51 1255.64,1056.71 1257.84,1056.91 1260.05,1057.11 1262.26,1057.31 1264.47,1057.5 1266.67,1057.7 1268.88,1057.89 1271.09,1058.08 1273.3,1058.27 1275.5,1058.46 1277.71,1058.65 1279.92,1058.84 1282.13,1059.02 1284.33,1059.2 1286.54,1059.39 1288.75,1059.57 1290.96,1059.75 1293.16,1059.93 1295.37,1060.11 1297.58,1060.28 1299.79,1060.46 1301.99,1060.64 1304.2,1060.81 1306.41,1060.98 1308.62,1061.15 1310.82,1061.32 1313.03,1061.49 1315.24,1061.66 1317.45,1061.83 1319.65,1061.99 1321.86,1062.16 1324.07,1062.32 1326.28,1062.48 1328.48,1062.65 1330.69,1062.81 1332.9,1062.97 1335.11,1063.12 1337.31,1063.28 1339.52,1063.44 1341.73,1063.59 1343.94,1063.75 1346.14,1063.9 1348.35,1064.05 1350.56,1064.2 1352.76,1064.36 1354.97,1064.5 1357.18,1064.65 1359.39,1064.8 1361.59,1064.95 1363.8,1065.09 1366.01,1065.24 1368.22,1065.38 1370.42,1065.52 1372.63,1065.67 1374.84,1065.81 1377.05,1065.95 1379.25,1066.09 1381.46,1066.23 1383.67,1066.36 1385.88,1066.5 1388.08,1066.64 1390.29,1066.77 1392.5,1066.9 1394.71,1067.04 1396.91,1067.17 1399.12,1067.3 1401.33,1067.43 1403.54,1067.56 1405.74,1067.69 1407.95,1067.82 1410.16,1067.95 1412.37,1068.07 1414.57,1068.2 1416.78,1068.32 1418.99,1068.45 1421.2,1068.57 1423.4,1068.69 1425.61,1068.81 1427.82,1068.94 1430.03,1069.06 1432.23,1069.17 1434.44,1069.29 1436.65,1069.41 1438.86,1069.53 1441.06,1069.64 1443.27,1069.76 1445.48,1069.88 1447.69,1069.99 1449.89,1070.1 1452.1,1070.22 1454.31,1070.33 1456.52,1070.44 1458.72,1070.55 1460.93,1070.66 1463.14,1070.77 1465.35,1070.88 1467.55,1070.98 1469.76,1071.09 1471.97,1071.2 1474.18,1071.3 1476.38,1071.41 1478.59,1071.51 1480.8,1071.62 1483.01,1071.72 1485.21,1071.82 1487.42,1071.92 1489.63,1072.02 1491.84,1072.12 1494.04,1072.22 1496.25,1072.32 1498.46,1072.42 1500.67,1072.52 1502.87,1072.62 1505.08,1072.71 1507.29,1072.81 1509.5,1072.91 1511.7,1073 1513.91,1073.09 1516.12,1073.19 1518.33,1073.28 1520.53,1073.37 1522.74,1073.47 1524.95,1073.56 1527.16,1073.65 1529.36,1073.74 1531.57,1073.83 1533.78,1073.92 1535.99,1074 1538.19,1074.09 1540.4,1074.18 1542.61,1074.27 1544.82,1074.35 1547.02,1074.44 1549.23,1074.52 1551.44,1074.61 1553.65,1074.69 1555.85,1074.77 1558.06,1074.86 1560.27,1074.94 1562.48,1075.02 1564.68,1075.1 1566.89,1075.18 1569.1,1075.26 1571.31,1075.34 1573.51,1075.42 1575.72,1075.5 1577.93,1075.58 1580.14,1075.66 1582.34,1075.73 1584.55,1075.81 1586.76,1075.89 1588.97,1075.96 1591.17,1076.04 1593.38,1076.11 1595.59,1076.19 1597.8,1076.26 1600,1076.34 1602.21,1076.41 1604.42,1076.48 1606.63,1076.55 1608.83,1076.63 1611.04,1076.7 1613.25,1076.77 1615.46,1076.84 1617.66,1076.91 1619.87,1076.98 1622.08,1077.05 1624.29,1077.12 1626.49,1077.18 1628.7,1077.25 1630.91,1077.32 1633.12,1077.39 1635.32,1077.45 1637.53,1077.52 1639.74,1077.58 1641.95,1077.65 1644.15,1077.71 1646.36,1077.78 1648.57,1077.84 1650.78,1077.91 1652.98,1077.97 1655.19,1078.03 1657.4,1078.09 1659.61,1078.16 1661.81,1078.22 1664.02,1078.28 1666.23,1078.34 1668.44,1078.4 1670.64,1078.46 1672.85,1078.52 1675.06,1078.58 1677.27,1078.64 1679.47,1078.7 1681.68,1078.76 1683.89,1078.81 1686.1,1078.87 1688.3,1078.93 1690.51,1078.99 1692.72,1079.04 1694.93,1079.1 1697.13,1079.15 1699.34,1079.21 1701.55,1079.27 1703.76,1079.32 1705.96,1079.37 1708.17,1079.43 1710.38,1079.48 1712.59,1079.54 1714.79,1079.59 1717,1079.64 1719.21,1079.69 1721.42,1079.75 1723.62,1079.8 1725.83,1079.85 1728.04,1079.9 1730.25,1079.95 1732.45,1080 1734.66,1080.05 1736.87,1080.1 1739.07,1080.15 1741.28,1080.2 1743.49,1080.25 1745.7,1080.3 1747.9,1080.35 1750.11,1080.39 1752.32,1080.44 1754.53,1080.49 1756.73,1080.54 1758.94,1080.58 1761.15,1080.63 1763.36,1080.67 1765.56,1080.72 1767.77,1080.77 1769.98,1080.81 1772.19,1080.86 1774.39,1080.9 1776.6,1080.95 1778.81,1080.99 1781.02,1081.03 1783.22,1081.08 1785.43,1081.12 1787.64,1081.16 1789.85,1081.21 1792.05,1081.25 1794.26,1081.29 1796.47,1081.33 1798.68,1081.38 1800.88,1081.42 1803.09,1081.46 1805.3,1081.5 1807.51,1081.54 1809.71,1081.58 1811.92,1081.62 1814.13,1081.66 1816.34,1081.7 1818.54,1081.74 1820.75,1081.78 1822.96,1081.82 1825.17,1081.86 1827.37,1081.9 1829.58,1081.93 1831.79,1081.97 1834,1082.01 1836.2,1082.05 1838.41,1082.08 1840.62,1082.12 1842.83,1082.16 1845.03,1082.2 1847.24,1082.23 1849.45,1082.27 1851.66,1082.3 1853.86,1082.34 1856.07,1082.38 1858.28,1082.41 1860.49,1082.45 1862.69,1082.48 1864.9,1082.52 1867.11,1082.55 1869.32,1082.58 1871.52,1082.62 1873.73,1082.65 1875.94,1082.69 1878.15,1082.72 1880.35,1082.75 1882.56,1082.79 1884.77,1082.82 1886.98,1082.85 1889.18,1082.88 1891.39,1082.92 1893.6,1082.95 1895.81,1082.98 1898.01,1083.01 1900.22,1083.04 1902.43,1083.07 1904.64,1083.1 1906.84,1083.14 1909.05,1083.17 1911.26,1083.2 1913.47,1083.23 1915.67,1083.26 1917.88,1083.29 1920.09,1083.32 1922.3,1083.35 1924.5,1083.38 1926.71,1083.41 1928.92,1083.43 1931.13,1083.46 1933.33,1083.49 1935.54,1083.52 1937.75,1083.55 1939.96,1083.58 1942.16,1083.6 1944.37,1083.63 1946.58,1083.66 1948.79,1083.69 1950.99,1083.71 1953.2,1083.74 1955.41,1083.77 1957.62,1083.8 1959.82,1083.82 1962.03,1083.85 1964.24,1083.88 1966.45,1083.9 1968.65,1083.93 1970.86,1083.95 1973.07,1083.98 1975.28,1084 1977.48,1084.03 1979.69,1084.05 1981.9,1084.08 1984.11,1084.1 1986.31,1084.13 1988.52,1084.15 1990.73,1084.18 1992.94,1084.2 1995.14,1084.23 1997.35,1084.25 1999.56,1084.27 2001.77,1084.3 2003.97,1084.32 2006.18,1084.35 2008.39,1084.37 2010.6,1084.39 2012.8,1084.41 2015.01,1084.44 2017.22,1084.46 2019.43,1084.48 2021.63,1084.5 2023.84,1084.53 2026.05,1084.55 2028.26,1084.57 2030.46,1084.59 2032.67,1084.61 2034.88,1084.64 2037.09,1084.66 2039.29,1084.68 2041.5,1084.7 2043.71,1084.72 2045.92,1084.74 2048.12,1084.76 2050.33,1084.78 2052.54,1084.8 2054.75,1084.82 2056.95,1084.84 2059.16,1084.86 2061.37,1084.88 2063.58,1084.9 2065.78,1084.92 2067.99,1084.94 2070.2,1084.96 2072.41,1084.98 2074.61,1085 2076.82,1085.02 2079.03,1085.04 2081.24,1085.06 2083.44,1085.08 2085.65,1085.1 2087.86,1085.11 2090.07,1085.13 2092.27,1085.15 2094.48,1085.17 2096.69,1085.19 2098.9,1085.21 2101.1,1085.22 2103.31,1085.24 2105.52,1085.26 2107.73,1085.28 2109.93,1085.29 2112.14,1085.31 2114.35,1085.33 2116.55,1085.35 2118.76,1085.36 2120.97,1085.38 2123.18,1085.4 2125.38,1085.41 2127.59,1085.43 2129.8,1085.45 2132.01,1085.46 2134.21,1085.48 2136.42,1085.5 2138.63,1085.51 2140.84,1085.53 2143.04,1085.54 2145.25,1085.56 2147.46,1085.58 2149.67,1085.59 2151.87,1085.61 2154.08,1085.62 2156.29,1085.64 2158.5,1085.65 2160.7,1085.67 2162.91,1085.68 2165.12,1085.7 2167.33,1085.71 2169.53,1085.73 2171.74,1085.74 2173.95,1085.76 2176.16,1085.77 2178.36,1085.79 2180.57,1085.8 2182.78,1085.81 2184.99,1085.83 2187.19,1085.84 2189.4,1085.86 2191.61,1085.87 2193.82,1085.88 2196.02,1085.9 2198.23,1085.91 2200.44,1085.93 2202.65,1085.94 2204.85,1085.95 2207.06,1085.97 2209.27,1085.98 2211.48,1085.99 2213.68,1086.01 2215.89,1086.02 2218.1,1086.03 2220.31,1086.04 2222.51,1086.06 2224.72,1086.07 2226.93,1086.08 2229.14,1086.1 2231.34,1086.11 2233.55,1086.12 2235.76,1086.13 2237.97,1086.15 2240.17,1086.16 2242.38,1086.17 2244.59,1086.18 2246.8,1086.19 2249,1086.21 2251.21,1086.22 2253.42,1086.23 2255.63,1086.24 2257.83,1086.25 2260.04,1086.26 2262.25,1086.28 2264.46,1086.29 2266.66,1086.3 2268.87,1086.31 2271.08,1086.32 2273.29,1086.33 2275.49,1086.34 2277.7,1086.35 2279.91,1086.36 2282.12,1086.38 2284.32,1086.39 2286.53,1086.4 2288.74,1086.41 2290.95,1086.42 2293.15,1086.43 2295.36,1086.44 2297.57,1086.45 2299.78,1086.46 2301.98,1086.47 2304.19,1086.48 2306.4,1086.49 2308.61,1086.5 2310.81,1086.51 2313.02,1086.52 2315.23,1086.53 2317.44,1086.54 2319.64,1086.55 2321.85,1086.56 2324.06,1086.57 2326.27,1086.58 2328.47,1086.59 2330.68,1086.6 2332.89,1086.61 2335.1,1086.62 2337.3,1086.63 2339.51,1086.64 2341.72,1086.64 2343.93,1086.65 2346.13,1086.66 2348.34,1086.67 2350.55,1086.68 2352.76,1086.69 "/>
<path clip-path="url(#clip800)" d="M1799.32 248.629 L2279.25 248.629 L2279.25 93.1086 L1799.32 93.1086  Z" fill="#ffffff" fill-rule="evenodd" fill-opacity="1"/>
<polyline clip-path="url(#clip800)" style="stroke:#000000; stroke-linecap:round; stroke-linejoin:round; stroke-width:4; stroke-opacity:1; fill:none" points="1799.32,248.629 2279.25,248.629 2279.25,93.1086 1799.32,93.1086 1799.32,248.629 "/>
<polyline clip-path="url(#clip800)" style="stroke:#009af9; stroke-linecap:round; stroke-linejoin:round; stroke-width:4; stroke-opacity:1; fill:none" points="1823.83,144.949 1970.84,144.949 "/>
<path clip-path="url(#clip800)" d="M1995.35 136.303 L1999.86 136.303 L2007.96 158.062 L2016.06 136.303 L2020.58 136.303 L2010.86 162.229 L2005.07 162.229 L1995.35 136.303 Z" fill="#000000" fill-rule="nonzero" fill-opacity="1" /><path clip-path="url(#clip800)" d="M2027.87 158.293 L2035.51 158.293 L2035.51 131.928 L2027.2 133.595 L2027.2 129.335 L2035.46 127.669 L2040.14 127.669 L2040.14 158.293 L2047.78 158.293 L2047.78 162.229 L2027.87 162.229 L2027.87 158.293 Z" fill="#000000" fill-rule="nonzero" fill-opacity="1" /><path clip-path="url(#clip800)" d="M2065.88 145.585 L2065.88 152.807 L2074 152.807 L2074 155.006 L2065.88 155.006 L2065.88 162.229 L2063.45 162.229 L2063.45 155.006 L2055.32 155.006 L2055.32 152.807 L2063.45 152.807 L2063.45 145.585 L2065.88 145.585 Z" fill="#000000" fill-rule="nonzero" fill-opacity="1" /><path clip-path="url(#clip800)" d="M2098.17 137.067 L2098.17 141.094 Q2096.36 140.169 2094.42 139.706 Q2092.48 139.243 2090.39 139.243 Q2087.22 139.243 2085.62 140.215 Q2084.05 141.187 2084.05 143.131 Q2084.05 144.613 2085.18 145.469 Q2086.32 146.303 2089.74 147.067 L2091.2 147.391 Q2095.74 148.363 2097.64 150.145 Q2099.56 151.905 2099.56 155.076 Q2099.56 158.687 2096.69 160.793 Q2093.84 162.9 2088.84 162.9 Q2086.76 162.9 2084.49 162.483 Q2082.24 162.09 2079.74 161.28 L2079.74 156.881 Q2082.11 158.108 2084.4 158.733 Q2086.69 159.335 2088.93 159.335 Q2091.94 159.335 2093.56 158.317 Q2095.18 157.275 2095.18 155.4 Q2095.18 153.664 2094 152.738 Q2092.85 151.812 2088.89 150.956 L2087.41 150.608 Q2083.45 149.775 2081.69 148.062 Q2079.93 146.326 2079.93 143.317 Q2079.93 139.659 2082.52 137.669 Q2085.11 135.678 2089.88 135.678 Q2092.24 135.678 2094.33 136.025 Q2096.41 136.372 2098.17 137.067 Z" fill="#000000" fill-rule="nonzero" fill-opacity="1" /><path clip-path="url(#clip800)" d="M2110.55 128.942 L2110.55 136.303 L2119.33 136.303 L2119.33 139.613 L2110.55 139.613 L2110.55 153.687 Q2110.55 156.858 2111.41 157.761 Q2112.29 158.664 2114.95 158.664 L2119.33 158.664 L2119.33 162.229 L2114.95 162.229 Q2110.02 162.229 2108.15 160.4 Q2106.27 158.548 2106.27 153.687 L2106.27 139.613 L2103.15 139.613 L2103.15 136.303 L2106.27 136.303 L2106.27 128.942 L2110.55 128.942 Z" fill="#000000" fill-rule="nonzero" fill-opacity="1" /><path clip-path="url(#clip800)" d="M2134.98 139.289 Q2131.55 139.289 2129.56 141.974 Q2127.57 144.636 2127.57 149.289 Q2127.57 153.942 2129.54 156.627 Q2131.53 159.289 2134.98 159.289 Q2138.38 159.289 2140.37 156.604 Q2142.36 153.918 2142.36 149.289 Q2142.36 144.682 2140.37 141.997 Q2138.38 139.289 2134.98 139.289 M2134.98 135.678 Q2140.53 135.678 2143.7 139.289 Q2146.87 142.9 2146.87 149.289 Q2146.87 155.655 2143.7 159.289 Q2140.53 162.9 2134.98 162.9 Q2129.4 162.9 2126.23 159.289 Q2123.08 155.655 2123.08 149.289 Q2123.08 142.9 2126.23 139.289 Q2129.4 135.678 2134.98 135.678 Z" fill="#000000" fill-rule="nonzero" fill-opacity="1" /><path clip-path="url(#clip800)" d="M2168.96 140.284 Q2168.24 139.868 2167.38 139.682 Q2166.55 139.474 2165.53 139.474 Q2161.92 139.474 2159.98 141.835 Q2158.05 144.173 2158.05 148.571 L2158.05 162.229 L2153.77 162.229 L2153.77 136.303 L2158.05 136.303 L2158.05 140.331 Q2159.4 137.969 2161.55 136.835 Q2163.7 135.678 2166.78 135.678 Q2167.22 135.678 2167.75 135.747 Q2168.29 135.794 2168.93 135.909 L2168.96 140.284 Z" fill="#000000" fill-rule="nonzero" fill-opacity="1" /><path clip-path="url(#clip800)" d="M2185.21 149.196 Q2180.04 149.196 2178.05 150.377 Q2176.06 151.557 2176.06 154.405 Q2176.06 156.673 2177.54 158.016 Q2179.05 159.335 2181.62 159.335 Q2185.16 159.335 2187.29 156.835 Q2189.44 154.312 2189.44 150.145 L2189.44 149.196 L2185.21 149.196 M2193.7 147.437 L2193.7 162.229 L2189.44 162.229 L2189.44 158.293 Q2187.98 160.655 2185.81 161.789 Q2183.63 162.9 2180.48 162.9 Q2176.5 162.9 2174.14 160.678 Q2171.8 158.432 2171.8 154.682 Q2171.8 150.307 2174.72 148.085 Q2177.66 145.863 2183.47 145.863 L2189.44 145.863 L2189.44 145.446 Q2189.44 142.507 2187.5 140.909 Q2185.58 139.289 2182.08 139.289 Q2179.86 139.289 2177.75 139.821 Q2175.65 140.354 2173.7 141.419 L2173.7 137.483 Q2176.04 136.581 2178.24 136.141 Q2180.44 135.678 2182.52 135.678 Q2188.15 135.678 2190.92 138.594 Q2193.7 141.511 2193.7 147.437 Z" fill="#000000" fill-rule="nonzero" fill-opacity="1" /><path clip-path="url(#clip800)" d="M2219.54 148.965 Q2219.54 144.335 2217.61 141.789 Q2215.72 139.243 2212.27 139.243 Q2208.84 139.243 2206.92 141.789 Q2205.02 144.335 2205.02 148.965 Q2205.02 153.571 2206.92 156.118 Q2208.84 158.664 2212.27 158.664 Q2215.72 158.664 2217.61 156.118 Q2219.54 153.571 2219.54 148.965 M2223.79 159.011 Q2223.79 165.631 2220.85 168.849 Q2217.92 172.09 2211.85 172.09 Q2209.6 172.09 2207.61 171.742 Q2205.62 171.418 2203.75 170.724 L2203.75 166.58 Q2205.62 167.599 2207.45 168.085 Q2209.28 168.571 2211.18 168.571 Q2215.37 168.571 2217.45 166.372 Q2219.54 164.196 2219.54 159.775 L2219.54 157.668 Q2218.22 159.96 2216.16 161.094 Q2214.1 162.229 2211.23 162.229 Q2206.46 162.229 2203.54 158.594 Q2200.62 154.96 2200.62 148.965 Q2200.62 142.946 2203.54 139.312 Q2206.46 135.678 2211.23 135.678 Q2214.1 135.678 2216.16 136.812 Q2218.22 137.946 2219.54 140.238 L2219.54 136.303 L2223.79 136.303 L2223.79 159.011 Z" fill="#000000" fill-rule="nonzero" fill-opacity="1" /><path clip-path="url(#clip800)" d="M2254.74 148.201 L2254.74 150.284 L2235.16 150.284 Q2235.44 154.682 2237.8 156.997 Q2240.18 159.289 2244.42 159.289 Q2246.87 159.289 2249.16 158.687 Q2251.48 158.085 2253.75 156.881 L2253.75 160.909 Q2251.46 161.881 2249.05 162.391 Q2246.64 162.9 2244.16 162.9 Q2237.96 162.9 2234.33 159.289 Q2230.72 155.678 2230.72 149.52 Q2230.72 143.155 2234.14 139.428 Q2237.59 135.678 2243.42 135.678 Q2248.66 135.678 2251.69 139.057 Q2254.74 142.414 2254.74 148.201 M2250.48 146.951 Q2250.44 143.456 2248.52 141.372 Q2246.62 139.289 2243.47 139.289 Q2239.91 139.289 2237.75 141.303 Q2235.62 143.317 2235.3 146.974 L2250.48 146.951 Z" fill="#000000" fill-rule="nonzero" fill-opacity="1" /><polyline clip-path="url(#clip800)" style="stroke:#e26f46; stroke-linecap:round; stroke-linejoin:round; stroke-width:4; stroke-opacity:1; fill:none" points="1823.83,196.789 1970.84,196.789 "/>
<path clip-path="url(#clip800)" d="M1995.35 188.143 L1999.86 188.143 L2007.96 209.902 L2016.06 188.143 L2020.58 188.143 L2010.86 214.069 L2005.07 214.069 L1995.35 188.143 Z" fill="#000000" fill-rule="nonzero" fill-opacity="1" /><path clip-path="url(#clip800)" d="M2027.11 179.509 L2045.46 179.509 L2045.46 183.444 L2031.39 183.444 L2031.39 191.916 Q2032.41 191.569 2033.43 191.407 Q2034.44 191.222 2035.46 191.222 Q2041.25 191.222 2044.63 194.393 Q2048.01 197.564 2048.01 202.981 Q2048.01 208.559 2044.54 211.661 Q2041.06 214.74 2034.74 214.74 Q2032.57 214.74 2030.3 214.37 Q2028.05 213.999 2025.65 213.258 L2025.65 208.559 Q2027.73 209.694 2029.95 210.249 Q2032.18 210.805 2034.65 210.805 Q2038.66 210.805 2040.99 208.698 Q2043.33 206.592 2043.33 202.981 Q2043.33 199.37 2040.99 197.263 Q2038.66 195.157 2034.65 195.157 Q2032.78 195.157 2030.9 195.573 Q2029.05 195.99 2027.11 196.87 L2027.11 179.509 Z" fill="#000000" fill-rule="nonzero" fill-opacity="1" /><path clip-path="url(#clip800)" d="M2065.88 197.425 L2065.88 204.647 L2074 204.647 L2074 206.846 L2065.88 206.846 L2065.88 214.069 L2063.45 214.069 L2063.45 206.846 L2055.32 206.846 L2055.32 204.647 L2063.45 204.647 L2063.45 197.425 L2065.88 197.425 Z" fill="#000000" fill-rule="nonzero" fill-opacity="1" /><path clip-path="url(#clip800)" d="M2098.17 188.907 L2098.17 192.934 Q2096.36 192.009 2094.42 191.546 Q2092.48 191.083 2090.39 191.083 Q2087.22 191.083 2085.62 192.055 Q2084.05 193.027 2084.05 194.971 Q2084.05 196.453 2085.18 197.309 Q2086.32 198.143 2089.74 198.907 L2091.2 199.231 Q2095.74 200.203 2097.64 201.985 Q2099.56 203.745 2099.56 206.916 Q2099.56 210.527 2096.69 212.633 Q2093.84 214.74 2088.84 214.74 Q2086.76 214.74 2084.49 214.323 Q2082.24 213.93 2079.74 213.12 L2079.74 208.721 Q2082.11 209.948 2084.4 210.573 Q2086.69 211.175 2088.93 211.175 Q2091.94 211.175 2093.56 210.157 Q2095.18 209.115 2095.18 207.24 Q2095.18 205.504 2094 204.578 Q2092.85 203.652 2088.89 202.796 L2087.41 202.448 Q2083.45 201.615 2081.69 199.902 Q2079.93 198.166 2079.93 195.157 Q2079.93 191.499 2082.52 189.509 Q2085.11 187.518 2089.88 187.518 Q2092.24 187.518 2094.33 187.865 Q2096.41 188.212 2098.17 188.907 Z" fill="#000000" fill-rule="nonzero" fill-opacity="1" /><path clip-path="url(#clip800)" d="M2110.55 180.782 L2110.55 188.143 L2119.33 188.143 L2119.33 191.453 L2110.55 191.453 L2110.55 205.527 Q2110.55 208.698 2111.41 209.601 Q2112.29 210.504 2114.95 210.504 L2119.33 210.504 L2119.33 214.069 L2114.95 214.069 Q2110.02 214.069 2108.15 212.24 Q2106.27 210.388 2106.27 205.527 L2106.27 191.453 L2103.15 191.453 L2103.15 188.143 L2106.27 188.143 L2106.27 180.782 L2110.55 180.782 Z" fill="#000000" fill-rule="nonzero" fill-opacity="1" /><path clip-path="url(#clip800)" d="M2134.98 191.129 Q2131.55 191.129 2129.56 193.814 Q2127.57 196.476 2127.57 201.129 Q2127.57 205.782 2129.54 208.467 Q2131.53 211.129 2134.98 211.129 Q2138.38 211.129 2140.37 208.444 Q2142.36 205.758 2142.36 201.129 Q2142.36 196.522 2140.37 193.837 Q2138.38 191.129 2134.98 191.129 M2134.98 187.518 Q2140.53 187.518 2143.7 191.129 Q2146.87 194.74 2146.87 201.129 Q2146.87 207.495 2143.7 211.129 Q2140.53 214.74 2134.98 214.74 Q2129.4 214.74 2126.23 211.129 Q2123.08 207.495 2123.08 201.129 Q2123.08 194.74 2126.23 191.129 Q2129.4 187.518 2134.98 187.518 Z" fill="#000000" fill-rule="nonzero" fill-opacity="1" /><path clip-path="url(#clip800)" d="M2168.96 192.124 Q2168.24 191.708 2167.38 191.522 Q2166.55 191.314 2165.53 191.314 Q2161.92 191.314 2159.98 193.675 Q2158.05 196.013 2158.05 200.411 L2158.05 214.069 L2153.77 214.069 L2153.77 188.143 L2158.05 188.143 L2158.05 192.171 Q2159.4 189.809 2161.55 188.675 Q2163.7 187.518 2166.78 187.518 Q2167.22 187.518 2167.75 187.587 Q2168.29 187.634 2168.93 187.749 L2168.96 192.124 Z" fill="#000000" fill-rule="nonzero" fill-opacity="1" /><path clip-path="url(#clip800)" d="M2185.21 201.036 Q2180.04 201.036 2178.05 202.217 Q2176.06 203.397 2176.06 206.245 Q2176.06 208.513 2177.54 209.856 Q2179.05 211.175 2181.62 211.175 Q2185.16 211.175 2187.29 208.675 Q2189.44 206.152 2189.44 201.985 L2189.44 201.036 L2185.21 201.036 M2193.7 199.277 L2193.7 214.069 L2189.44 214.069 L2189.44 210.133 Q2187.98 212.495 2185.81 213.629 Q2183.63 214.74 2180.48 214.74 Q2176.5 214.74 2174.14 212.518 Q2171.8 210.272 2171.8 206.522 Q2171.8 202.147 2174.72 199.925 Q2177.66 197.703 2183.47 197.703 L2189.44 197.703 L2189.44 197.286 Q2189.44 194.347 2187.5 192.749 Q2185.58 191.129 2182.08 191.129 Q2179.86 191.129 2177.75 191.661 Q2175.65 192.194 2173.7 193.259 L2173.7 189.323 Q2176.04 188.421 2178.24 187.981 Q2180.44 187.518 2182.52 187.518 Q2188.15 187.518 2190.92 190.434 Q2193.7 193.351 2193.7 199.277 Z" fill="#000000" fill-rule="nonzero" fill-opacity="1" /><path clip-path="url(#clip800)" d="M2219.54 200.805 Q2219.54 196.175 2217.61 193.629 Q2215.72 191.083 2212.27 191.083 Q2208.84 191.083 2206.92 193.629 Q2205.02 196.175 2205.02 200.805 Q2205.02 205.411 2206.92 207.958 Q2208.84 210.504 2212.27 210.504 Q2215.72 210.504 2217.61 207.958 Q2219.54 205.411 2219.54 200.805 M2223.79 210.851 Q2223.79 217.471 2220.85 220.689 Q2217.92 223.93 2211.85 223.93 Q2209.6 223.93 2207.61 223.582 Q2205.62 223.258 2203.75 222.564 L2203.75 218.42 Q2205.62 219.439 2207.45 219.925 Q2209.28 220.411 2211.18 220.411 Q2215.37 220.411 2217.45 218.212 Q2219.54 216.036 2219.54 211.615 L2219.54 209.508 Q2218.22 211.8 2216.16 212.934 Q2214.1 214.069 2211.23 214.069 Q2206.46 214.069 2203.54 210.434 Q2200.62 206.8 2200.62 200.805 Q2200.62 194.786 2203.54 191.152 Q2206.46 187.518 2211.23 187.518 Q2214.1 187.518 2216.16 188.652 Q2218.22 189.786 2219.54 192.078 L2219.54 188.143 L2223.79 188.143 L2223.79 210.851 Z" fill="#000000" fill-rule="nonzero" fill-opacity="1" /><path clip-path="url(#clip800)" d="M2254.74 200.041 L2254.74 202.124 L2235.16 202.124 Q2235.44 206.522 2237.8 208.837 Q2240.18 211.129 2244.42 211.129 Q2246.87 211.129 2249.16 210.527 Q2251.48 209.925 2253.75 208.721 L2253.75 212.749 Q2251.46 213.721 2249.05 214.231 Q2246.64 214.74 2244.16 214.74 Q2237.96 214.74 2234.33 211.129 Q2230.72 207.518 2230.72 201.36 Q2230.72 194.995 2234.14 191.268 Q2237.59 187.518 2243.42 187.518 Q2248.66 187.518 2251.69 190.897 Q2254.74 194.254 2254.74 200.041 M2250.48 198.791 Q2250.44 195.296 2248.52 193.212 Q2246.62 191.129 2243.47 191.129 Q2239.91 191.129 2237.75 193.143 Q2235.62 195.157 2235.3 198.814 L2250.48 198.791 Z" fill="#000000" fill-rule="nonzero" fill-opacity="1" /></svg>
