<?xml version="1.0" encoding="utf-8"?>
<svg xmlns="http://www.w3.org/2000/svg" xmlns:xlink="http://www.w3.org/1999/xlink" width="600" height="400" viewBox="0 0 2400 1600">
<defs>
  <clipPath id="clip010">
    <rect x="0" y="0" width="2400" height="1600"/>
  </clipPath>
</defs>
<path clip-path="url(#clip010)" d="M0 1600 L2400 1600 L2400 0 L0 0  Z" fill="#ffffff" fill-rule="evenodd" fill-opacity="1"/>
<defs>
  <clipPath id="clip011">
    <rect x="480" y="0" width="1681" height="1600"/>
  </clipPath>
</defs>
<path clip-path="url(#clip010)" d="M192.709 1423.18 L2352.76 1423.18 L2352.76 47.2441 L192.709 47.2441  Z" fill="#ffffff" fill-rule="evenodd" fill-opacity="1"/>
<defs>
  <clipPath id="clip012">
    <rect x="192" y="47" width="2161" height="1377"/>
  </clipPath>
</defs>
<polyline clip-path="url(#clip012)" style="stroke:#000000; stroke-linecap:round; stroke-linejoin:round; stroke-width:2; stroke-opacity:0.1; fill:none" points="192.709,1423.18 192.709,47.2441 "/>
<polyline clip-path="url(#clip012)" style="stroke:#000000; stroke-linecap:round; stroke-linejoin:round; stroke-width:2; stroke-opacity:0.1; fill:none" points="732.721,1423.18 732.721,47.2441 "/>
<polyline clip-path="url(#clip012)" style="stroke:#000000; stroke-linecap:round; stroke-linejoin:round; stroke-width:2; stroke-opacity:0.1; fill:none" points="1272.73,1423.18 1272.73,47.2441 "/>
<polyline clip-path="url(#clip012)" style="stroke:#000000; stroke-linecap:round; stroke-linejoin:round; stroke-width:2; stroke-opacity:0.1; fill:none" points="1812.74,1423.18 1812.74,47.2441 "/>
<polyline clip-path="url(#clip012)" style="stroke:#000000; stroke-linecap:round; stroke-linejoin:round; stroke-width:2; stroke-opacity:0.1; fill:none" points="2352.76,1423.18 2352.76,47.2441 "/>
<polyline clip-path="url(#clip012)" style="stroke:#000000; stroke-linecap:round; stroke-linejoin:round; stroke-width:2; stroke-opacity:0.1; fill:none" points="192.709,1285.12 2352.76,1285.12 "/>
<polyline clip-path="url(#clip012)" style="stroke:#000000; stroke-linecap:round; stroke-linejoin:round; stroke-width:2; stroke-opacity:0.1; fill:none" points="192.709,952.714 2352.76,952.714 "/>
<polyline clip-path="url(#clip012)" style="stroke:#000000; stroke-linecap:round; stroke-linejoin:round; stroke-width:2; stroke-opacity:0.1; fill:none" points="192.709,620.312 2352.76,620.312 "/>
<polyline clip-path="url(#clip012)" style="stroke:#000000; stroke-linecap:round; stroke-linejoin:round; stroke-width:2; stroke-opacity:0.1; fill:none" points="192.709,287.91 2352.76,287.91 "/>
<polyline clip-path="url(#clip010)" style="stroke:#000000; stroke-linecap:round; stroke-linejoin:round; stroke-width:4; stroke-opacity:1; fill:none" points="192.709,1423.18 2352.76,1423.18 "/>
<polyline clip-path="url(#clip010)" style="stroke:#000000; stroke-linecap:round; stroke-linejoin:round; stroke-width:4; stroke-opacity:1; fill:none" points="192.709,1423.18 192.709,1404.28 "/>
<polyline clip-path="url(#clip010)" style="stroke:#000000; stroke-linecap:round; stroke-linejoin:round; stroke-width:4; stroke-opacity:1; fill:none" points="732.721,1423.18 732.721,1404.28 "/>
<polyline clip-path="url(#clip010)" style="stroke:#000000; stroke-linecap:round; stroke-linejoin:round; stroke-width:4; stroke-opacity:1; fill:none" points="1272.73,1423.18 1272.73,1404.28 "/>
<polyline clip-path="url(#clip010)" style="stroke:#000000; stroke-linecap:round; stroke-linejoin:round; stroke-width:4; stroke-opacity:1; fill:none" points="1812.74,1423.18 1812.74,1404.28 "/>
<polyline clip-path="url(#clip010)" style="stroke:#000000; stroke-linecap:round; stroke-linejoin:round; stroke-width:4; stroke-opacity:1; fill:none" points="2352.76,1423.18 2352.76,1404.28 "/>
<path clip-path="url(#clip010)" d="M170.094 1454.1 Q166.482 1454.1 164.654 1457.66 Q162.848 1461.2 162.848 1468.33 Q162.848 1475.44 164.654 1479.01 Q166.482 1482.55 170.094 1482.55 Q173.728 1482.55 175.533 1479.01 Q177.362 1475.44 177.362 1468.33 Q177.362 1461.2 175.533 1457.66 Q173.728 1454.1 170.094 1454.1 M170.094 1450.39 Q175.904 1450.39 178.959 1455 Q182.038 1459.58 182.038 1468.33 Q182.038 1477.06 178.959 1481.67 Q175.904 1486.25 170.094 1486.25 Q164.283 1486.25 161.205 1481.67 Q158.149 1477.06 158.149 1468.33 Q158.149 1459.58 161.205 1455 Q164.283 1450.39 170.094 1450.39 Z" fill="#000000" fill-rule="nonzero" fill-opacity="1" /><path clip-path="url(#clip010)" d="M190.255 1479.7 L195.14 1479.7 L195.14 1485.58 L190.255 1485.58 L190.255 1479.7 Z" fill="#000000" fill-rule="nonzero" fill-opacity="1" /><path clip-path="url(#clip010)" d="M215.325 1454.1 Q211.714 1454.1 209.885 1457.66 Q208.079 1461.2 208.079 1468.33 Q208.079 1475.44 209.885 1479.01 Q211.714 1482.55 215.325 1482.55 Q218.959 1482.55 220.765 1479.01 Q222.593 1475.44 222.593 1468.33 Q222.593 1461.2 220.765 1457.66 Q218.959 1454.1 215.325 1454.1 M215.325 1450.39 Q221.135 1450.39 224.19 1455 Q227.269 1459.58 227.269 1468.33 Q227.269 1477.06 224.19 1481.67 Q221.135 1486.25 215.325 1486.25 Q209.515 1486.25 206.436 1481.67 Q203.38 1477.06 203.38 1468.33 Q203.38 1459.58 206.436 1455 Q209.515 1450.39 215.325 1450.39 Z" fill="#000000" fill-rule="nonzero" fill-opacity="1" /><path clip-path="url(#clip010)" d="M710.603 1454.1 Q706.992 1454.1 705.163 1457.66 Q703.358 1461.2 703.358 1468.33 Q703.358 1475.44 705.163 1479.01 Q706.992 1482.55 710.603 1482.55 Q714.237 1482.55 716.043 1479.01 Q717.871 1475.44 717.871 1468.33 Q717.871 1461.2 716.043 1457.66 Q714.237 1454.1 710.603 1454.1 M710.603 1450.39 Q716.413 1450.39 719.469 1455 Q722.547 1459.58 722.547 1468.33 Q722.547 1477.06 719.469 1481.67 Q716.413 1486.25 710.603 1486.25 Q704.793 1486.25 701.714 1481.67 Q698.659 1477.06 698.659 1468.33 Q698.659 1459.58 701.714 1455 Q704.793 1450.39 710.603 1450.39 Z" fill="#000000" fill-rule="nonzero" fill-opacity="1" /><path clip-path="url(#clip010)" d="M730.765 1479.7 L735.649 1479.7 L735.649 1485.58 L730.765 1485.58 L730.765 1479.7 Z" fill="#000000" fill-rule="nonzero" fill-opacity="1" /><path clip-path="url(#clip010)" d="M745.88 1451.02 L764.237 1451.02 L764.237 1454.96 L750.163 1454.96 L750.163 1463.43 Q751.181 1463.08 752.2 1462.92 Q753.218 1462.73 754.237 1462.73 Q760.024 1462.73 763.404 1465.9 Q766.783 1469.08 766.783 1474.49 Q766.783 1480.07 763.311 1483.17 Q759.839 1486.25 753.519 1486.25 Q751.343 1486.25 749.075 1485.88 Q746.83 1485.51 744.422 1484.77 L744.422 1480.07 Q746.505 1481.2 748.728 1481.76 Q750.95 1482.32 753.427 1482.32 Q757.431 1482.32 759.769 1480.21 Q762.107 1478.1 762.107 1474.49 Q762.107 1470.88 759.769 1468.77 Q757.431 1466.67 753.427 1466.67 Q751.552 1466.67 749.677 1467.08 Q747.825 1467.5 745.88 1468.38 L745.88 1451.02 Z" fill="#000000" fill-rule="nonzero" fill-opacity="1" /><path clip-path="url(#clip010)" d="M1239.89 1481.64 L1247.52 1481.64 L1247.52 1455.28 L1239.21 1456.95 L1239.21 1452.69 L1247.48 1451.02 L1252.15 1451.02 L1252.15 1481.64 L1259.79 1481.64 L1259.79 1485.58 L1239.89 1485.58 L1239.89 1481.64 Z" fill="#000000" fill-rule="nonzero" fill-opacity="1" /><path clip-path="url(#clip010)" d="M1269.24 1479.7 L1274.12 1479.7 L1274.12 1485.58 L1269.24 1485.58 L1269.24 1479.7 Z" fill="#000000" fill-rule="nonzero" fill-opacity="1" /><path clip-path="url(#clip010)" d="M1294.31 1454.1 Q1290.7 1454.1 1288.87 1457.66 Q1287.06 1461.2 1287.06 1468.33 Q1287.06 1475.44 1288.87 1479.01 Q1290.7 1482.55 1294.31 1482.55 Q1297.94 1482.55 1299.75 1479.01 Q1301.57 1475.44 1301.57 1468.33 Q1301.57 1461.2 1299.75 1457.66 Q1297.94 1454.1 1294.31 1454.1 M1294.31 1450.39 Q1300.12 1450.39 1303.17 1455 Q1306.25 1459.58 1306.25 1468.33 Q1306.25 1477.06 1303.17 1481.67 Q1300.12 1486.25 1294.31 1486.25 Q1288.5 1486.25 1285.42 1481.67 Q1282.36 1477.06 1282.36 1468.33 Q1282.36 1459.58 1285.42 1455 Q1288.5 1450.39 1294.31 1450.39 Z" fill="#000000" fill-rule="nonzero" fill-opacity="1" /><path clip-path="url(#clip010)" d="M1780.39 1481.64 L1788.03 1481.64 L1788.03 1455.28 L1779.72 1456.95 L1779.72 1452.69 L1787.99 1451.02 L1792.66 1451.02 L1792.66 1481.64 L1800.3 1481.64 L1800.3 1485.58 L1780.39 1485.58 L1780.39 1481.64 Z" fill="#000000" fill-rule="nonzero" fill-opacity="1" /><path clip-path="url(#clip010)" d="M1809.75 1479.7 L1814.63 1479.7 L1814.63 1485.58 L1809.75 1485.58 L1809.75 1479.7 Z" fill="#000000" fill-rule="nonzero" fill-opacity="1" /><path clip-path="url(#clip010)" d="M1824.86 1451.02 L1843.22 1451.02 L1843.22 1454.96 L1829.14 1454.96 L1829.14 1463.43 Q1830.16 1463.08 1831.18 1462.92 Q1832.2 1462.73 1833.22 1462.73 Q1839.01 1462.73 1842.39 1465.9 Q1845.76 1469.08 1845.76 1474.49 Q1845.76 1480.07 1842.29 1483.17 Q1838.82 1486.25 1832.5 1486.25 Q1830.33 1486.25 1828.06 1485.88 Q1825.81 1485.51 1823.4 1484.77 L1823.4 1480.07 Q1825.49 1481.2 1827.71 1481.76 Q1829.93 1482.32 1832.41 1482.32 Q1836.41 1482.32 1838.75 1480.21 Q1841.09 1478.1 1841.09 1474.49 Q1841.09 1470.88 1838.75 1468.77 Q1836.41 1466.67 1832.41 1466.67 Q1830.53 1466.67 1828.66 1467.08 Q1826.81 1467.5 1824.86 1468.38 L1824.86 1451.02 Z" fill="#000000" fill-rule="nonzero" fill-opacity="1" /><path clip-path="url(#clip010)" d="M2323.99 1481.64 L2340.31 1481.64 L2340.31 1485.58 L2318.37 1485.58 L2318.37 1481.64 Q2321.03 1478.89 2325.61 1474.26 Q2330.22 1469.61 2331.4 1468.27 Q2333.65 1465.74 2334.53 1464.01 Q2335.43 1462.25 2335.43 1460.56 Q2335.43 1457.8 2333.49 1456.07 Q2331.56 1454.33 2328.46 1454.33 Q2326.26 1454.33 2323.81 1455.09 Q2321.38 1455.86 2318.6 1457.41 L2318.6 1452.69 Q2321.43 1451.55 2323.88 1450.97 Q2326.33 1450.39 2328.37 1450.39 Q2333.74 1450.39 2336.93 1453.08 Q2340.13 1455.77 2340.13 1460.26 Q2340.13 1462.39 2339.32 1464.31 Q2338.53 1466.2 2336.42 1468.8 Q2335.85 1469.47 2332.74 1472.69 Q2329.64 1475.88 2323.99 1481.64 Z" fill="#000000" fill-rule="nonzero" fill-opacity="1" /><path clip-path="url(#clip010)" d="M2350.13 1479.7 L2355.01 1479.7 L2355.01 1485.58 L2350.13 1485.58 L2350.13 1479.7 Z" fill="#000000" fill-rule="nonzero" fill-opacity="1" /><path clip-path="url(#clip010)" d="M2375.2 1454.1 Q2371.59 1454.1 2369.76 1457.66 Q2367.95 1461.2 2367.95 1468.33 Q2367.95 1475.44 2369.76 1479.01 Q2371.59 1482.55 2375.2 1482.55 Q2378.83 1482.55 2380.64 1479.01 Q2382.47 1475.44 2382.47 1468.33 Q2382.47 1461.2 2380.64 1457.66 Q2378.83 1454.1 2375.2 1454.1 M2375.2 1450.39 Q2381.01 1450.39 2384.06 1455 Q2387.14 1459.58 2387.14 1468.33 Q2387.14 1477.06 2384.06 1481.67 Q2381.01 1486.25 2375.2 1486.25 Q2369.39 1486.25 2366.31 1481.67 Q2363.25 1477.06 2363.25 1468.33 Q2363.25 1459.58 2366.31 1455 Q2369.39 1450.39 2375.2 1450.39 Z" fill="#000000" fill-rule="nonzero" fill-opacity="1" /><path clip-path="url(#clip010)" d="M1271.79 1522.27 L1271.79 1532.4 L1283.86 1532.4 L1283.86 1536.95 L1271.79 1536.95 L1271.79 1556.3 Q1271.79 1560.66 1272.97 1561.9 Q1274.18 1563.14 1277.84 1563.14 L1283.86 1563.14 L1283.86 1568.04 L1277.84 1568.04 Q1271.06 1568.04 1268.48 1565.53 Q1265.91 1562.98 1265.91 1556.3 L1265.91 1536.95 L1261.61 1536.95 L1261.61 1532.4 L1265.91 1532.4 L1265.91 1522.27 L1271.79 1522.27 Z" fill="#000000" fill-rule="nonzero" fill-opacity="1" /><polyline clip-path="url(#clip010)" style="stroke:#000000; stroke-linecap:round; stroke-linejoin:round; stroke-width:4; stroke-opacity:1; fill:none" points="192.709,1423.18 192.709,47.2441 "/>
<polyline clip-path="url(#clip010)" style="stroke:#000000; stroke-linecap:round; stroke-linejoin:round; stroke-width:4; stroke-opacity:1; fill:none" points="192.709,1285.12 211.607,1285.12 "/>
<polyline clip-path="url(#clip010)" style="stroke:#000000; stroke-linecap:round; stroke-linejoin:round; stroke-width:4; stroke-opacity:1; fill:none" points="192.709,952.714 211.607,952.714 "/>
<polyline clip-path="url(#clip010)" style="stroke:#000000; stroke-linecap:round; stroke-linejoin:round; stroke-width:4; stroke-opacity:1; fill:none" points="192.709,620.312 211.607,620.312 "/>
<polyline clip-path="url(#clip010)" style="stroke:#000000; stroke-linecap:round; stroke-linejoin:round; stroke-width:4; stroke-opacity:1; fill:none" points="192.709,287.91 211.607,287.91 "/>
<path clip-path="url(#clip010)" d="M51.3625 1285.57 L81.0383 1285.57 L81.0383 1289.5 L51.3625 1289.5 L51.3625 1285.57 Z" fill="#000000" fill-rule="nonzero" fill-opacity="1" /><path clip-path="url(#clip010)" d="M101.131 1270.91 Q97.5197 1270.91 95.691 1274.48 Q93.8854 1278.02 93.8854 1285.15 Q93.8854 1292.26 95.691 1295.82 Q97.5197 1299.36 101.131 1299.36 Q104.765 1299.36 106.571 1295.82 Q108.399 1292.26 108.399 1285.15 Q108.399 1278.02 106.571 1274.48 Q104.765 1270.91 101.131 1270.91 M101.131 1267.21 Q106.941 1267.21 109.996 1271.82 Q113.075 1276.4 113.075 1285.15 Q113.075 1293.88 109.996 1298.48 Q106.941 1303.07 101.131 1303.07 Q95.3206 1303.07 92.2419 1298.48 Q89.1864 1293.88 89.1864 1285.15 Q89.1864 1276.4 92.2419 1271.82 Q95.3206 1267.21 101.131 1267.21 Z" fill="#000000" fill-rule="nonzero" fill-opacity="1" /><path clip-path="url(#clip010)" d="M121.293 1296.52 L126.177 1296.52 L126.177 1302.4 L121.293 1302.4 L121.293 1296.52 Z" fill="#000000" fill-rule="nonzero" fill-opacity="1" /><path clip-path="url(#clip010)" d="M140.39 1298.46 L156.709 1298.46 L156.709 1302.4 L134.765 1302.4 L134.765 1298.46 Q137.427 1295.71 142.01 1291.08 Q146.617 1286.42 147.797 1285.08 Q150.043 1282.56 150.922 1280.82 Q151.825 1279.06 151.825 1277.37 Q151.825 1274.62 149.88 1272.88 Q147.959 1271.15 144.857 1271.15 Q142.658 1271.15 140.205 1271.91 Q137.774 1272.67 134.996 1274.22 L134.996 1269.5 Q137.82 1268.37 140.274 1267.79 Q142.728 1267.21 144.765 1267.21 Q150.135 1267.21 153.33 1269.9 Q156.524 1272.58 156.524 1277.07 Q156.524 1279.2 155.714 1281.12 Q154.927 1283.02 152.82 1285.61 Q152.242 1286.28 149.14 1289.5 Q146.038 1292.7 140.39 1298.46 Z" fill="#000000" fill-rule="nonzero" fill-opacity="1" /><path clip-path="url(#clip010)" d="M50.9921 953.165 L80.6679 953.165 L80.6679 957.1 L50.9921 957.1 L50.9921 953.165 Z" fill="#000000" fill-rule="nonzero" fill-opacity="1" /><path clip-path="url(#clip010)" d="M100.76 938.512 Q97.1493 938.512 95.3206 942.077 Q93.515 945.619 93.515 952.748 Q93.515 959.855 95.3206 963.42 Q97.1493 966.961 100.76 966.961 Q104.395 966.961 106.2 963.42 Q108.029 959.855 108.029 952.748 Q108.029 945.619 106.2 942.077 Q104.395 938.512 100.76 938.512 M100.76 934.809 Q106.571 934.809 109.626 939.415 Q112.705 943.998 112.705 952.748 Q112.705 961.475 109.626 966.082 Q106.571 970.665 100.76 970.665 Q94.9502 970.665 91.8715 966.082 Q88.816 961.475 88.816 952.748 Q88.816 943.998 91.8715 939.415 Q94.9502 934.809 100.76 934.809 Z" fill="#000000" fill-rule="nonzero" fill-opacity="1" /><path clip-path="url(#clip010)" d="M120.922 964.114 L125.807 964.114 L125.807 969.994 L120.922 969.994 L120.922 964.114 Z" fill="#000000" fill-rule="nonzero" fill-opacity="1" /><path clip-path="url(#clip010)" d="M136.802 966.059 L144.441 966.059 L144.441 939.693 L136.131 941.36 L136.131 937.1 L144.394 935.434 L149.07 935.434 L149.07 966.059 L156.709 966.059 L156.709 969.994 L136.802 969.994 L136.802 966.059 Z" fill="#000000" fill-rule="nonzero" fill-opacity="1" /><path clip-path="url(#clip010)" d="M99.5335 606.111 Q95.9224 606.111 94.0937 609.675 Q92.2882 613.217 92.2882 620.347 Q92.2882 627.453 94.0937 631.018 Q95.9224 634.559 99.5335 634.559 Q103.168 634.559 104.973 631.018 Q106.802 627.453 106.802 620.347 Q106.802 613.217 104.973 609.675 Q103.168 606.111 99.5335 606.111 M99.5335 602.407 Q105.344 602.407 108.399 607.013 Q111.478 611.597 111.478 620.347 Q111.478 629.073 108.399 633.68 Q105.344 638.263 99.5335 638.263 Q93.7234 638.263 90.6447 633.68 Q87.5892 629.073 87.5892 620.347 Q87.5892 611.597 90.6447 607.013 Q93.7234 602.407 99.5335 602.407 Z" fill="#000000" fill-rule="nonzero" fill-opacity="1" /><path clip-path="url(#clip010)" d="M119.695 631.712 L124.58 631.712 L124.58 637.592 L119.695 637.592 L119.695 631.712 Z" fill="#000000" fill-rule="nonzero" fill-opacity="1" /><path clip-path="url(#clip010)" d="M144.765 606.111 Q141.154 606.111 139.325 609.675 Q137.519 613.217 137.519 620.347 Q137.519 627.453 139.325 631.018 Q141.154 634.559 144.765 634.559 Q148.399 634.559 150.205 631.018 Q152.033 627.453 152.033 620.347 Q152.033 613.217 150.205 609.675 Q148.399 606.111 144.765 606.111 M144.765 602.407 Q150.575 602.407 153.63 607.013 Q156.709 611.597 156.709 620.347 Q156.709 629.073 153.63 633.68 Q150.575 638.263 144.765 638.263 Q138.955 638.263 135.876 633.68 Q132.82 629.073 132.82 620.347 Q132.82 611.597 135.876 607.013 Q138.955 602.407 144.765 602.407 Z" fill="#000000" fill-rule="nonzero" fill-opacity="1" /><path clip-path="url(#clip010)" d="M100.76 273.709 Q97.1493 273.709 95.3206 277.274 Q93.515 280.815 93.515 287.945 Q93.515 295.051 95.3206 298.616 Q97.1493 302.158 100.76 302.158 Q104.395 302.158 106.2 298.616 Q108.029 295.051 108.029 287.945 Q108.029 280.815 106.2 277.274 Q104.395 273.709 100.76 273.709 M100.76 270.005 Q106.571 270.005 109.626 274.612 Q112.705 279.195 112.705 287.945 Q112.705 296.672 109.626 301.278 Q106.571 305.861 100.76 305.861 Q94.9502 305.861 91.8715 301.278 Q88.816 296.672 88.816 287.945 Q88.816 279.195 91.8715 274.612 Q94.9502 270.005 100.76 270.005 Z" fill="#000000" fill-rule="nonzero" fill-opacity="1" /><path clip-path="url(#clip010)" d="M120.922 299.31 L125.807 299.31 L125.807 305.19 L120.922 305.19 L120.922 299.31 Z" fill="#000000" fill-rule="nonzero" fill-opacity="1" /><path clip-path="url(#clip010)" d="M136.802 301.255 L144.441 301.255 L144.441 274.889 L136.131 276.556 L136.131 272.297 L144.394 270.63 L149.07 270.63 L149.07 301.255 L156.709 301.255 L156.709 305.19 L136.802 305.19 L136.802 301.255 Z" fill="#000000" fill-rule="nonzero" fill-opacity="1" /><polyline clip-path="url(#clip012)" style="stroke:#009af9; stroke-linecap:round; stroke-linejoin:round; stroke-width:4; stroke-opacity:1; fill:none" points="192.709,1384.24 194.871,1377.97 197.034,1371.75 199.196,1365.61 201.358,1359.52 203.52,1353.49 205.682,1347.52 207.845,1341.62 210.007,1335.77 212.169,1329.98 214.331,1324.24 216.493,1318.57 218.656,1312.95 220.818,1307.39 222.98,1301.88 225.142,1296.43 227.304,1291.03 229.467,1285.68 231.629,1280.39 233.791,1275.15 235.953,1269.97 238.116,1264.83 240.278,1259.75 242.44,1254.71 244.602,1249.73 246.764,1244.8 248.927,1239.91 251.089,1235.08 253.251,1230.29 255.413,1225.55 257.575,1220.86 259.738,1216.21 261.9,1211.61 264.062,1207.06 266.224,1202.55 268.386,1198.09 270.549,1193.67 272.711,1189.29 274.873,1184.96 277.035,1180.67 279.198,1176.43 281.36,1172.22 283.522,1168.06 285.684,1163.94 287.846,1159.86 290.009,1155.83 292.171,1151.83 294.333,1147.87 296.495,1143.95 298.657,1140.07 300.82,1136.23 302.982,1132.43 305.144,1128.66 307.306,1124.93 309.468,1121.24 311.631,1117.59 313.793,1113.97 315.955,1110.39 318.117,1106.85 320.279,1103.33 322.442,1099.86 324.604,1096.42 326.766,1093.01 328.928,1089.64 331.091,1086.3 333.253,1082.99 335.415,1079.72 337.577,1076.48 339.739,1073.27 341.902,1070.1 344.064,1066.95 346.226,1063.84 348.388,1060.76 350.55,1057.71 352.713,1054.69 354.875,1051.7 357.037,1048.73 359.199,1045.8 361.361,1042.9 363.524,1040.03 365.686,1037.18 367.848,1034.37 370.01,1031.58 372.172,1028.82 374.335,1026.08 376.497,1023.38 378.659,1020.7 380.821,1018.05 382.984,1015.42 385.146,1012.82 387.308,1010.25 389.47,1007.7 391.632,1005.18 393.795,1002.68 395.957,1000.21 398.119,997.759 400.281,995.335 402.443,992.936 404.606,990.56 406.768,988.208 408.93,985.879 411.092,983.574 413.254,981.291 415.417,979.031 417.579,976.794 419.741,974.579 421.903,972.386 424.066,970.215 426.228,968.065 428.39,965.937 430.552,963.83 432.714,961.744 434.877,959.679 437.039,957.634 439.201,955.61 441.363,953.606 443.525,951.622 445.688,949.658 447.85,947.713 450.012,945.788 452.174,943.882 454.336,941.995 456.499,940.126 458.661,938.277 460.823,936.445 462.985,934.632 465.147,932.837 467.31,931.06 469.472,929.301 471.634,927.559 473.796,925.835 475.959,924.127 478.121,922.437 480.283,920.764 482.445,919.107 484.607,917.466 486.77,915.842 488.932,914.235 491.094,912.643 493.256,911.067 495.418,909.507 497.581,907.962 499.743,906.433 501.905,904.918 504.067,903.419 506.229,901.935 508.392,900.466 510.554,899.011 512.716,897.571 514.878,896.145 517.04,894.733 519.203,893.335 521.365,891.951 523.527,890.581 525.689,889.225 527.852,887.882 530.014,886.552 532.176,885.236 534.338,883.933 536.5,882.643 538.663,881.365 540.825,880.101 542.987,878.849 545.149,877.609 547.311,876.382 549.474,875.167 551.636,873.964 553.798,872.773 555.96,871.594 558.122,870.427 560.285,869.272 562.447,868.128 564.609,866.995 566.771,865.874 568.934,864.764 571.096,863.665 573.258,862.577 575.42,861.499 577.582,860.433 579.745,859.377 581.907,858.332 584.069,857.297 586.231,856.272 588.393,855.258 590.556,854.253 592.718,853.259 594.88,852.275 597.042,851.3 599.204,850.335 601.367,849.38 603.529,848.434 605.691,847.498 607.853,846.571 610.015,845.653 612.178,844.744 614.34,843.844 616.502,842.954 618.664,842.072 620.827,841.199 622.989,840.334 625.151,839.478 627.313,838.631 629.475,837.792 631.638,836.962 633.8,836.139 635.962,835.325 638.124,834.519 640.286,833.721 642.449,832.931 644.611,832.149 646.773,831.374 648.935,830.608 651.097,829.848 653.26,829.097 655.422,828.353 657.584,827.616 659.746,826.887 661.908,826.165 664.071,825.45 666.233,824.742 668.395,824.042 670.557,823.348 672.72,822.661 674.882,821.982 677.044,821.308 679.206,820.642 681.368,819.982 683.531,819.329 685.693,818.683 687.855,818.043 690.017,817.409 692.179,816.781 694.342,816.16 696.504,815.545 698.666,814.936 700.828,814.334 702.99,813.737 705.153,813.146 707.315,812.561 709.477,811.982 711.639,811.409 713.802,810.841 715.964,810.279 718.126,809.723 720.288,809.172 722.45,808.627 724.613,808.087 726.775,807.553 728.937,807.023 731.099,806.5 733.261,805.981 735.424,805.467 737.586,804.959 739.748,804.456 741.91,803.957 744.072,803.464 746.235,802.975 748.397,802.492 750.559,802.013 752.721,801.539 754.883,801.069 757.046,800.605 759.208,800.144 761.37,799.689 763.532,799.238 765.695,798.791 767.857,798.349 770.019,797.911 772.181,797.478 774.343,797.049 776.506,796.624 778.668,796.203 780.83,795.787 782.992,795.375 785.154,794.967 787.317,794.562 789.479,794.162 791.641,793.766 793.803,793.374 795.965,792.986 798.128,792.602 800.29,792.221 802.452,791.844 804.614,791.471 806.776,791.102 808.939,790.737 811.101,790.375 813.263,790.016 815.425,789.662 817.588,789.311 819.75,788.963 821.912,788.619 824.074,788.278 826.236,787.941 828.399,787.607 830.561,787.276 832.723,786.949 834.885,786.625 837.047,786.304 839.21,785.986 841.372,785.672 843.534,785.361 845.696,785.052 847.858,784.747 850.021,784.445 852.183,784.146 854.345,783.85 856.507,783.557 858.67,783.267 860.832,782.98 862.994,782.695 865.156,782.414 867.318,782.135 869.481,781.859 871.643,781.586 873.805,781.315 875.967,781.047 878.129,780.782 880.292,780.519 882.454,780.26 884.616,780.002 886.778,779.747 888.94,779.495 891.103,779.245 893.265,778.998 895.427,778.753 897.589,778.511 899.751,778.271 901.914,778.033 904.076,777.798 906.238,777.565 908.4,777.334 910.563,777.106 912.725,776.88 914.887,776.656 917.049,776.434 919.211,776.215 921.374,775.998 923.536,775.783 925.698,775.57 927.86,775.359 930.022,775.15 932.185,774.943 934.347,774.739 936.509,774.536 938.671,774.335 940.833,774.137 942.996,773.94 945.158,773.746 947.32,773.553 949.482,773.362 951.644,773.173 953.807,772.986 955.969,772.801 958.131,772.618 960.293,772.436 962.456,772.257 964.618,772.079 966.78,771.903 968.942,771.729 971.104,771.556 973.267,771.385 975.429,771.216 977.591,771.049 979.753,770.883 981.915,770.719 984.078,770.556 986.24,770.396 988.402,770.236 990.564,770.079 992.726,769.923 994.889,769.768 997.051,769.615 999.213,769.464 1001.38,769.314 1003.54,769.166 1005.7,769.019 1007.86,768.873 1010.02,768.729 1012.19,768.587 1014.35,768.446 1016.51,768.306 1018.67,768.168 1020.84,768.031 1023,767.895 1025.16,767.761 1027.32,767.628 1029.48,767.497 1031.65,767.367 1033.81,767.238 1035.97,767.11 1038.13,766.984 1040.3,766.858 1042.46,766.735 1044.62,766.612 1046.78,766.49 1048.94,766.37 1051.11,766.251 1053.27,766.133 1055.43,766.017 1057.59,765.901 1059.75,765.787 1061.92,765.673 1064.08,765.561 1066.24,765.45 1068.4,765.34 1070.57,765.231 1072.73,765.124 1074.89,765.017 1077.05,764.911 1079.21,764.807 1081.38,764.703 1083.54,764.6 1085.7,764.499 1087.86,764.398 1090.03,764.299 1092.19,764.2 1094.35,764.103 1096.51,764.006 1098.67,763.91 1100.84,763.816 1103,763.722 1105.16,763.629 1107.32,763.537 1109.49,763.446 1111.65,763.356 1113.81,763.267 1115.97,763.179 1118.13,763.091 1120.3,763.005 1122.46,762.919 1124.62,762.834 1126.78,762.75 1128.95,762.667 1131.11,762.585 1133.27,762.503 1135.43,762.423 1137.59,762.343 1139.76,762.264 1141.92,762.185 1144.08,762.108 1146.24,762.031 1148.41,761.955 1150.57,761.88 1152.73,761.806 1154.89,761.732 1157.05,761.659 1159.22,761.587 1161.38,761.515 1163.54,761.445 1165.7,761.375 1167.87,761.305 1170.03,761.237 1172.19,761.169 1174.35,761.101 1176.51,761.035 1178.68,760.969 1180.84,760.904 1183,760.839 1185.16,760.775 1187.33,760.712 1189.49,760.649 1191.65,760.587 1193.81,760.526 1195.97,760.465 1198.14,760.404 1200.3,760.345 1202.46,760.286 1204.62,760.227 1206.79,760.17 1208.95,760.112 1211.11,760.056 1213.27,759.999 1215.43,759.944 1217.6,759.889 1219.76,759.834 1221.92,759.78 1224.08,759.727 1226.25,759.674 1228.41,759.622 1230.57,759.57 1232.73,759.518 1234.89,759.468 1237.06,759.417 1239.22,759.367 1241.38,759.318 1243.54,759.269 1245.7,759.221 1247.87,759.173 1250.03,759.126 1252.19,759.079 1254.35,759.032 1256.52,758.986 1258.68,758.94 1260.84,758.895 1263,758.851 1265.16,758.806 1267.33,758.762 1269.49,758.719 1271.65,758.676 1273.81,758.634 1275.98,758.591 1278.14,758.55 1280.3,758.508 1282.46,758.468 1284.62,758.427 1286.79,758.387 1288.95,758.347 1291.11,758.308 1293.27,758.269 1295.44,758.231 1297.6,758.193 1299.76,758.155 1301.92,758.118 1304.08,758.081 1306.25,758.044 1308.41,758.008 1310.57,757.972 1312.73,757.936 1314.9,757.901 1317.06,757.867 1319.22,757.832 1321.38,757.798 1323.54,757.764 1325.71,757.731 1327.87,757.698 1330.03,757.665 1332.19,757.632 1334.36,757.6 1336.52,757.569 1338.68,757.537 1340.84,757.506 1343,757.475 1345.17,757.445 1347.33,757.414 1349.49,757.385 1351.65,757.355 1353.82,757.326 1355.98,757.297 1358.14,757.268 1360.3,757.239 1362.46,757.211 1364.63,757.183 1366.79,757.156 1368.95,757.128 1371.11,757.101 1373.28,757.075 1375.44,757.048 1377.6,757.022 1379.76,756.996 1381.92,756.97 1384.09,756.945 1386.25,756.92 1388.41,756.895 1390.57,756.87 1392.74,756.845 1394.9,756.821 1397.06,756.797 1399.22,756.774 1401.38,756.75 1403.55,756.727 1405.71,756.704 1407.87,756.681 1410.03,756.658 1412.2,756.636 1414.36,756.614 1416.52,756.592 1418.68,756.57 1420.84,756.549 1423.01,756.528 1425.17,756.506 1427.33,756.486 1429.49,756.465 1431.65,756.444 1433.82,756.424 1435.98,756.404 1438.14,756.384 1440.3,756.365 1442.47,756.345 1444.63,756.326 1446.79,756.307 1448.95,756.288 1451.11,756.269 1453.28,756.251 1455.44,756.232 1457.6,756.214 1459.76,756.196 1461.93,756.178 1464.09,756.161 1466.25,756.143 1468.41,756.126 1470.57,756.109 1472.74,756.092 1474.9,756.075 1477.06,756.058 1479.22,756.042 1481.39,756.026 1483.55,756.01 1485.71,755.994 1487.87,755.978 1490.03,755.962 1492.2,755.947 1494.36,755.931 1496.52,755.916 1498.68,755.901 1500.85,755.886 1503.01,755.872 1505.17,755.857 1507.33,755.843 1509.49,755.828 1511.66,755.814 1513.82,755.8 1515.98,755.786 1518.14,755.773 1520.31,755.759 1522.47,755.746 1524.63,755.732 1526.79,755.719 1528.95,755.706 1531.12,755.693 1533.28,755.68 1535.44,755.668 1537.6,755.655 1539.77,755.643 1541.93,755.63 1544.09,755.618 1546.25,755.606 1548.41,755.594 1550.58,755.583 1552.74,755.571 1554.9,755.559 1557.06,755.548 1559.23,755.537 1561.39,755.525 1563.55,755.514 1565.71,755.503 1567.87,755.493 1570.04,755.482 1572.2,755.471 1574.36,755.461 1576.52,755.45 1578.69,755.44 1580.85,755.43 1583.01,755.419 1585.17,755.409 1587.33,755.399 1589.5,755.39 1591.66,755.38 1593.82,755.37 1595.98,755.361 1598.14,755.351 1600.31,755.342 1602.47,755.333 1604.63,755.324 1606.79,755.314 1608.96,755.306 1611.12,755.297 1613.28,755.288 1615.44,755.279 1617.6,755.27 1619.77,755.262 1621.93,755.253 1624.09,755.245 1626.25,755.237 1628.42,755.229 1630.58,755.22 1632.74,755.212 1634.9,755.204 1637.06,755.196 1639.23,755.189 1641.39,755.181 1643.55,755.173 1645.71,755.166 1647.88,755.158 1650.04,755.151 1652.2,755.143 1654.36,755.136 1656.52,755.129 1658.69,755.121 1660.85,755.114 1663.01,755.107 1665.17,755.1 1667.34,755.093 1669.5,755.087 1671.66,755.08 1673.82,755.073 1675.98,755.067 1678.15,755.06 1680.31,755.054 1682.47,755.047 1684.63,755.041 1686.8,755.034 1688.96,755.028 1691.12,755.022 1693.28,755.016 1695.44,755.01 1697.61,755.004 1699.77,754.998 1701.93,754.992 1704.09,754.986 1706.26,754.98 1708.42,754.975 1710.58,754.969 1712.74,754.964 1714.9,754.958 1717.07,754.953 1719.23,754.947 1721.39,754.942 1723.55,754.936 1725.72,754.931 1727.88,754.926 1730.04,754.921 1732.2,754.916 1734.36,754.911 1736.53,754.906 1738.69,754.901 1740.85,754.896 1743.01,754.891 1745.18,754.886 1747.34,754.882 1749.5,754.877 1751.66,754.872 1753.82,754.868 1755.99,754.863 1758.15,754.859 1760.31,754.854 1762.47,754.85 1764.64,754.845 1766.8,754.841 1768.96,754.837 1771.12,754.832 1773.28,754.828 1775.45,754.824 1777.61,754.82 1779.77,754.816 1781.93,754.812 1784.09,754.808 1786.26,754.804 1788.42,754.8 1790.58,754.796 1792.74,754.792 1794.91,754.789 1797.07,754.785 1799.23,754.781 1801.39,754.777 1803.55,754.774 1805.72,754.77 1807.88,754.767 1810.04,754.763 1812.2,754.76 1814.37,754.756 1816.53,754.753 1818.69,754.749 1820.85,754.746 1823.01,754.743 1825.18,754.739 1827.34,754.736 1829.5,754.733 1831.66,754.73 1833.83,754.726 1835.99,754.723 1838.15,754.72 1840.31,754.717 1842.47,754.714 1844.64,754.711 1846.8,754.708 1848.96,754.705 1851.12,754.702 1853.29,754.699 1855.45,754.696 1857.61,754.694 1859.77,754.691 1861.93,754.688 1864.1,754.685 1866.26,754.682 1868.42,754.68 1870.58,754.677 1872.75,754.674 1874.91,754.672 1877.07,754.669 1879.23,754.667 1881.39,754.664 1883.56,754.661 1885.72,754.659 1887.88,754.656 1890.04,754.654 1892.21,754.652 1894.37,754.649 1896.53,754.647 1898.69,754.644 1900.85,754.642 1903.02,754.64 1905.18,754.637 1907.34,754.635 1909.5,754.633 1911.67,754.631 1913.83,754.628 1915.99,754.626 1918.15,754.624 1920.31,754.622 1922.48,754.62 1924.64,754.618 1926.8,754.616 1928.96,754.614 1931.13,754.612 1933.29,754.609 1935.45,754.607 1937.61,754.606 1939.77,754.604 1941.94,754.602 1944.1,754.6 1946.26,754.598 1948.42,754.596 1950.59,754.594 1952.75,754.592 1954.91,754.59 1957.07,754.589 1959.23,754.587 1961.4,754.585 1963.56,754.583 1965.72,754.582 1967.88,754.58 1970.04,754.578 1972.21,754.576 1974.37,754.575 1976.53,754.573 1978.69,754.571 1980.86,754.57 1983.02,754.568 1985.18,754.567 1987.34,754.565 1989.5,754.564 1991.67,754.562 1993.83,754.561 1995.99,754.559 1998.15,754.558 2000.32,754.556 2002.48,754.555 2004.64,754.553 2006.8,754.552 2008.96,754.55 2011.13,754.549 2013.29,754.548 2015.45,754.546 2017.61,754.545 2019.78,754.544 2021.94,754.542 2024.1,754.541 2026.26,754.54 2028.42,754.538 2030.59,754.537 2032.75,754.536 2034.91,754.535 2037.07,754.533 2039.24,754.532 2041.4,754.531 2043.56,754.53 2045.72,754.529 2047.88,754.527 2050.05,754.526 2052.21,754.525 2054.37,754.524 2056.53,754.523 2058.7,754.522 2060.86,754.521 2063.02,754.52 2065.18,754.519 2067.34,754.517 2069.51,754.516 2071.67,754.515 2073.83,754.514 2075.99,754.513 2078.16,754.512 2080.32,754.511 2082.48,754.51 2084.64,754.509 2086.8,754.508 2088.97,754.507 2091.13,754.506 2093.29,754.505 2095.45,754.505 2097.62,754.504 2099.78,754.503 2101.94,754.502 2104.1,754.501 2106.26,754.5 2108.43,754.499 2110.59,754.498 2112.75,754.497 2114.91,754.496 2117.08,754.496 2119.24,754.495 2121.4,754.494 2123.56,754.493 2125.72,754.492 2127.89,754.491 2130.05,754.491 2132.21,754.49 2134.37,754.489 2136.54,754.488 2138.7,754.487 2140.86,754.487 2143.02,754.486 2145.18,754.485 2147.35,754.484 2149.51,754.484 2151.67,754.483 2153.83,754.482 2155.99,754.482 2158.16,754.481 2160.32,754.48 2162.48,754.479 2164.64,754.479 2166.81,754.478 2168.97,754.477 2171.13,754.477 2173.29,754.476 2175.45,754.475 2177.62,754.475 2179.78,754.474 2181.94,754.473 2184.1,754.473 2186.27,754.472 2188.43,754.472 2190.59,754.471 2192.75,754.47 2194.91,754.47 2197.08,754.469 2199.24,754.469 2201.4,754.468 2203.56,754.467 2205.73,754.467 2207.89,754.466 2210.05,754.466 2212.21,754.465 2214.37,754.465 2216.54,754.464 2218.7,754.463 2220.86,754.463 2223.02,754.462 2225.19,754.462 2227.35,754.461 2229.51,754.461 2231.67,754.46 2233.83,754.46 2236,754.459 2238.16,754.459 2240.32,754.458 2242.48,754.458 2244.65,754.457 2246.81,754.457 2248.97,754.457 2251.13,754.456 2253.29,754.456 2255.46,754.455 2257.62,754.455 2259.78,754.454 2261.94,754.454 2264.11,754.453 2266.27,754.453 2268.43,754.453 2270.59,754.452 2272.75,754.452 2274.92,754.451 2277.08,754.451 2279.24,754.45 2281.4,754.45 2283.57,754.45 2285.73,754.449 2287.89,754.449 2290.05,754.449 2292.21,754.448 2294.38,754.448 2296.54,754.447 2298.7,754.447 2300.86,754.447 2303.03,754.446 2305.19,754.446 2307.35,754.446 2309.51,754.445 2311.67,754.445 2313.84,754.445 2316,754.444 2318.16,754.444 2320.32,754.444 2322.48,754.443 2324.65,754.443 2326.81,754.443 2328.97,754.442 2331.13,754.442 2333.3,754.442 2335.46,754.441 2337.62,754.441 2339.78,754.441 2341.94,754.44 2344.11,754.44 2346.27,754.44 2348.43,754.439 2350.59,754.439 2352.76,754.439 "/>
<polyline clip-path="url(#clip012)" style="stroke:#e26f46; stroke-linecap:round; stroke-linejoin:round; stroke-width:4; stroke-opacity:1; fill:none" points="192.709,125.343 194.871,123.189 197.034,121.106 199.196,119.094 201.358,117.152 203.52,115.279 205.682,113.474 207.845,111.736 210.007,110.064 212.169,108.457 214.331,106.913 216.493,105.433 218.656,104.016 220.818,102.659 222.98,101.363 225.142,100.127 227.304,98.9488 229.467,97.8289 231.629,96.7658 233.791,95.7589 235.953,94.8072 238.116,93.91 240.278,93.0665 242.44,92.2758 244.602,91.5371 246.764,90.8497 248.927,90.2128 251.089,89.6256 253.251,89.0874 255.413,88.5974 257.575,88.1548 259.738,87.759 261.9,87.4092 264.062,87.1048 266.224,86.845 268.386,86.6292 270.549,86.4566 272.711,86.3267 274.873,86.2386 277.035,86.1918 279.198,86.1857 281.36,86.2195 283.522,86.2926 285.684,86.4044 287.846,86.5543 290.009,86.7417 292.171,86.9659 294.333,87.2264 296.495,87.5225 298.657,87.8537 300.82,88.2193 302.982,88.6189 305.144,89.0519 307.306,89.5176 309.468,90.0156 311.631,90.5453 313.793,91.1062 315.955,91.6977 318.117,92.3193 320.279,92.9705 322.442,93.6508 324.604,94.3596 326.766,95.0965 328.928,95.8609 331.091,96.6525 333.253,97.4707 335.415,98.3151 337.577,99.1852 339.739,100.081 341.902,101.001 344.064,101.945 346.226,102.914 348.388,103.906 350.55,104.921 352.713,105.959 354.875,107.018 357.037,108.1 359.199,109.203 361.361,110.327 363.524,111.472 365.686,112.637 367.848,113.821 370.01,115.025 372.172,116.248 374.335,117.49 376.497,118.75 378.659,120.028 380.821,121.323 382.984,122.636 385.146,123.965 387.308,125.311 389.47,126.673 391.632,128.05 393.795,129.444 395.957,130.852 398.119,132.275 400.281,133.713 402.443,135.164 404.606,136.63 406.768,138.109 408.93,139.601 411.092,141.107 413.254,142.625 415.417,144.155 417.579,145.697 419.741,147.251 421.903,148.816 424.066,150.393 426.228,151.981 428.39,153.579 430.552,155.188 432.714,156.807 434.877,158.436 437.039,160.075 439.201,161.723 441.363,163.381 443.525,165.047 445.688,166.722 447.85,168.405 450.012,170.097 452.174,171.797 454.336,173.504 456.499,175.219 458.661,176.941 460.823,178.671 462.985,180.407 465.147,182.15 467.31,183.899 469.472,185.655 471.634,187.417 473.796,189.184 475.959,190.957 478.121,192.736 480.283,194.52 482.445,196.309 484.607,198.102 486.77,199.901 488.932,201.704 491.094,203.511 493.256,205.322 495.418,207.138 497.581,208.957 499.743,210.779 501.905,212.605 504.067,214.435 506.229,216.267 508.392,218.103 510.554,219.941 512.716,221.782 514.878,223.625 517.04,225.471 519.203,227.318 521.365,229.168 523.527,231.02 525.689,232.873 527.852,234.729 530.014,236.585 532.176,238.443 534.338,240.303 536.5,242.163 538.663,244.025 540.825,245.887 542.987,247.75 545.149,249.614 547.311,251.478 549.474,253.343 551.636,255.208 553.798,257.073 555.96,258.938 558.122,260.803 560.285,262.668 562.447,264.533 564.609,266.397 566.771,268.261 568.934,270.125 571.096,271.987 573.258,273.849 575.42,275.71 577.582,277.57 579.745,279.428 581.907,281.286 584.069,283.142 586.231,284.997 588.393,286.851 590.556,288.703 592.718,290.553 594.88,292.402 597.042,294.248 599.204,296.093 601.367,297.936 603.529,299.777 605.691,301.615 607.853,303.452 610.015,305.286 612.178,307.118 614.34,308.947 616.502,310.774 618.664,312.598 620.827,314.419 622.989,316.238 625.151,318.054 627.313,319.867 629.475,321.677 631.638,323.484 633.8,325.288 635.962,327.089 638.124,328.887 640.286,330.682 642.449,332.473 644.611,334.261 646.773,336.046 648.935,337.827 651.097,339.605 653.26,341.379 655.422,343.15 657.584,344.917 659.746,346.681 661.908,348.44 664.071,350.197 666.233,351.949 668.395,353.697 670.557,355.442 672.72,357.183 674.882,358.92 677.044,360.652 679.206,362.381 681.368,364.106 683.531,365.827 685.693,367.543 687.855,369.255 690.017,370.964 692.179,372.667 694.342,374.367 696.504,376.062 698.666,377.753 700.828,379.44 702.99,381.122 705.153,382.8 707.315,384.473 709.477,386.142 711.639,387.806 713.802,389.465 715.964,391.12 718.126,392.771 720.288,394.417 722.45,396.058 724.613,397.694 726.775,399.326 728.937,400.953 731.099,402.575 733.261,404.192 735.424,405.805 737.586,407.412 739.748,409.015 741.91,410.613 744.072,412.206 746.235,413.794 748.397,415.377 750.559,416.956 752.721,418.529 754.883,420.097 757.046,421.66 759.208,423.218 761.37,424.772 763.532,426.32 765.695,427.863 767.857,429.401 770.019,430.933 772.181,432.461 774.343,433.984 776.506,435.502 778.668,437.014 780.83,438.521 782.992,440.024 785.154,441.521 787.317,443.013 789.479,444.5 791.641,445.981 793.803,447.458 795.965,448.929 798.128,450.396 800.29,451.857 802.452,453.313 804.614,454.764 806.776,456.209 808.939,457.65 811.101,459.085 813.263,460.515 815.425,461.94 817.588,463.36 819.75,464.775 821.912,466.184 824.074,467.588 826.236,468.987 828.399,470.381 830.561,471.77 832.723,473.153 834.885,474.532 837.047,475.905 839.21,477.273 841.372,478.636 843.534,479.993 845.696,481.346 847.858,482.693 850.021,484.035 852.183,485.372 854.345,486.703 856.507,488.03 858.67,489.351 860.832,490.667 862.994,491.978 865.156,493.284 867.318,494.585 869.481,495.88 871.643,497.17 873.805,498.455 875.967,499.735 878.129,501.01 880.292,502.28 882.454,503.544 884.616,504.804 886.778,506.058 888.94,507.307 891.103,508.551 893.265,509.79 895.427,511.024 897.589,512.252 899.751,513.476 901.914,514.694 904.076,515.908 906.238,517.116 908.4,518.319 910.563,519.518 912.725,520.711 914.887,521.899 917.049,523.082 919.211,524.26 921.374,525.433 923.536,526.601 925.698,527.764 927.86,528.922 930.022,530.075 932.185,531.223 934.347,532.366 936.509,533.504 938.671,534.638 940.833,535.766 942.996,536.89 945.158,538.008 947.32,539.122 949.482,540.231 951.644,541.335 953.807,542.435 955.969,543.529 958.131,544.619 960.293,545.704 962.456,546.784 964.618,547.859 966.78,548.93 968.942,549.996 971.104,551.057 973.267,552.113 975.429,553.165 977.591,554.212 979.753,555.254 981.915,556.292 984.078,557.325 986.24,558.353 988.402,559.377 990.564,560.396 992.726,561.41 994.889,562.42 997.051,563.426 999.213,564.426 1001.38,565.423 1003.54,566.414 1005.7,567.401 1007.86,568.384 1010.02,569.362 1012.19,570.336 1014.35,571.305 1016.51,572.269 1018.67,573.23 1020.84,574.185 1023,575.137 1025.16,576.084 1027.32,577.026 1029.48,577.964 1031.65,578.898 1033.81,579.827 1035.97,580.752 1038.13,581.673 1040.3,582.589 1042.46,583.501 1044.62,584.409 1046.78,585.312 1048.94,586.212 1051.11,587.107 1053.27,587.997 1055.43,588.884 1057.59,589.766 1059.75,590.644 1061.92,591.517 1064.08,592.387 1066.24,593.253 1068.4,594.114 1070.57,594.971 1072.73,595.824 1074.89,596.673 1077.05,597.517 1079.21,598.358 1081.38,599.195 1083.54,600.027 1085.7,600.856 1087.86,601.681 1090.03,602.501 1092.19,603.318 1094.35,604.13 1096.51,604.939 1098.67,605.744 1100.84,606.544 1103,607.341 1105.16,608.134 1107.32,608.923 1109.49,609.708 1111.65,610.49 1113.81,611.267 1115.97,612.041 1118.13,612.811 1120.3,613.577 1122.46,614.34 1124.62,615.098 1126.78,615.853 1128.95,616.604 1131.11,617.352 1133.27,618.096 1135.43,618.836 1137.59,619.572 1139.76,620.305 1141.92,621.034 1144.08,621.759 1146.24,622.481 1148.41,623.2 1150.57,623.914 1152.73,624.625 1154.89,625.333 1157.05,626.037 1159.22,626.738 1161.38,627.435 1163.54,628.128 1165.7,628.818 1167.87,629.505 1170.03,630.188 1172.19,630.868 1174.35,631.544 1176.51,632.217 1178.68,632.886 1180.84,633.553 1183,634.215 1185.16,634.875 1187.33,635.531 1189.49,636.183 1191.65,636.833 1193.81,637.479 1195.97,638.122 1198.14,638.761 1200.3,639.397 1202.46,640.03 1204.62,640.66 1206.79,641.287 1208.95,641.91 1211.11,642.53 1213.27,643.147 1215.43,643.761 1217.6,644.372 1219.76,644.979 1221.92,645.584 1224.08,646.185 1226.25,646.783 1228.41,647.378 1230.57,647.97 1232.73,648.559 1234.89,649.145 1237.06,649.728 1239.22,650.308 1241.38,650.885 1243.54,651.459 1245.7,652.029 1247.87,652.597 1250.03,653.162 1252.19,653.724 1254.35,654.283 1256.52,654.839 1258.68,655.392 1260.84,655.943 1263,656.49 1265.16,657.035 1267.33,657.576 1269.49,658.115 1271.65,658.651 1273.81,659.185 1275.98,659.715 1278.14,660.243 1280.3,660.768 1282.46,661.29 1284.62,661.809 1286.79,662.326 1288.95,662.84 1291.11,663.351 1293.27,663.86 1295.44,664.365 1297.6,664.869 1299.76,665.369 1301.92,665.867 1304.08,666.362 1306.25,666.855 1308.41,667.345 1310.57,667.833 1312.73,668.318 1314.9,668.8 1317.06,669.28 1319.22,669.757 1321.38,670.232 1323.54,670.704 1325.71,671.173 1327.87,671.641 1330.03,672.105 1332.19,672.567 1334.36,673.027 1336.52,673.485 1338.68,673.939 1340.84,674.392 1343,674.842 1345.17,675.29 1347.33,675.735 1349.49,676.178 1351.65,676.618 1353.82,677.056 1355.98,677.492 1358.14,677.926 1360.3,678.357 1362.46,678.786 1364.63,679.212 1366.79,679.636 1368.95,680.058 1371.11,680.478 1373.28,680.895 1375.44,681.311 1377.6,681.724 1379.76,682.134 1381.92,682.543 1384.09,682.949 1386.25,683.353 1388.41,683.755 1390.57,684.155 1392.74,684.553 1394.9,684.948 1397.06,685.342 1399.22,685.733 1401.38,686.122 1403.55,686.509 1405.71,686.894 1407.87,687.276 1410.03,687.657 1412.2,688.036 1414.36,688.412 1416.52,688.787 1418.68,689.159 1420.84,689.53 1423.01,689.898 1425.17,690.265 1427.33,690.629 1429.49,690.992 1431.65,691.352 1433.82,691.71 1435.98,692.067 1438.14,692.422 1440.3,692.774 1442.47,693.125 1444.63,693.474 1446.79,693.821 1448.95,694.165 1451.11,694.509 1453.28,694.85 1455.44,695.189 1457.6,695.527 1459.76,695.862 1461.93,696.196 1464.09,696.528 1466.25,696.858 1468.41,697.186 1470.57,697.513 1472.74,697.838 1474.9,698.161 1477.06,698.482 1479.22,698.801 1481.39,699.119 1483.55,699.435 1485.71,699.749 1487.87,700.061 1490.03,700.372 1492.2,700.681 1494.36,700.988 1496.52,701.294 1498.68,701.597 1500.85,701.9 1503.01,702.2 1505.17,702.499 1507.33,702.796 1509.49,703.092 1511.66,703.386 1513.82,703.678 1515.98,703.969 1518.14,704.258 1520.31,704.545 1522.47,704.831 1524.63,705.116 1526.79,705.398 1528.95,705.68 1531.12,705.959 1533.28,706.237 1535.44,706.514 1537.6,706.789 1539.77,707.062 1541.93,707.334 1544.09,707.604 1546.25,707.873 1548.41,708.141 1550.58,708.407 1552.74,708.671 1554.9,708.934 1557.06,709.196 1559.23,709.456 1561.39,709.714 1563.55,709.971 1565.71,710.227 1567.87,710.481 1570.04,710.734 1572.2,710.986 1574.36,711.236 1576.52,711.485 1578.69,711.732 1580.85,711.978 1583.01,712.222 1585.17,712.465 1587.33,712.707 1589.5,712.948 1591.66,713.187 1593.82,713.425 1595.98,713.661 1598.14,713.896 1600.31,714.13 1602.47,714.362 1604.63,714.593 1606.79,714.823 1608.96,715.052 1611.12,715.279 1613.28,715.505 1615.44,715.73 1617.6,715.953 1619.77,716.176 1621.93,716.397 1624.09,716.616 1626.25,716.835 1628.42,717.052 1630.58,717.268 1632.74,717.483 1634.9,717.696 1637.06,717.909 1639.23,718.12 1641.39,718.33 1643.55,718.539 1645.71,718.746 1647.88,718.953 1650.04,719.158 1652.2,719.362 1654.36,719.565 1656.52,719.767 1658.69,719.968 1660.85,720.167 1663.01,720.366 1665.17,720.563 1667.34,720.759 1669.5,720.954 1671.66,721.148 1673.82,721.341 1675.98,721.533 1678.15,721.724 1680.31,721.913 1682.47,722.102 1684.63,722.289 1686.8,722.476 1688.96,722.661 1691.12,722.845 1693.28,723.029 1695.44,723.211 1697.61,723.392 1699.77,723.572 1701.93,723.751 1704.09,723.929 1706.26,724.107 1708.42,724.283 1710.58,724.458 1712.74,724.632 1714.9,724.805 1717.07,724.977 1719.23,725.148 1721.39,725.318 1723.55,725.488 1725.72,725.656 1727.88,725.823 1730.04,725.989 1732.2,726.155 1734.36,726.319 1736.53,726.483 1738.69,726.645 1740.85,726.807 1743.01,726.968 1745.18,727.127 1747.34,727.286 1749.5,727.444 1751.66,727.601 1753.82,727.757 1755.99,727.913 1758.15,728.067 1760.31,728.221 1762.47,728.373 1764.64,728.525 1766.8,728.676 1768.96,728.826 1771.12,728.975 1773.28,729.124 1775.45,729.271 1777.61,729.418 1779.77,729.563 1781.93,729.708 1784.09,729.853 1786.26,729.996 1788.42,730.138 1790.58,730.28 1792.74,730.421 1794.91,730.561 1797.07,730.7 1799.23,730.839 1801.39,730.976 1803.55,731.113 1805.72,731.249 1807.88,731.385 1810.04,731.519 1812.2,731.653 1814.37,731.786 1816.53,731.918 1818.69,732.05 1820.85,732.18 1823.01,732.31 1825.18,732.439 1827.34,732.568 1829.5,732.696 1831.66,732.823 1833.83,732.949 1835.99,733.074 1838.15,733.199 1840.31,733.323 1842.47,733.447 1844.64,733.569 1846.8,733.691 1848.96,733.813 1851.12,733.933 1853.29,734.053 1855.45,734.172 1857.61,734.291 1859.77,734.409 1861.93,734.526 1864.1,734.642 1866.26,734.758 1868.42,734.873 1870.58,734.988 1872.75,735.101 1874.91,735.215 1877.07,735.327 1879.23,735.439 1881.39,735.55 1883.56,735.661 1885.72,735.771 1887.88,735.88 1890.04,735.989 1892.21,736.097 1894.37,736.204 1896.53,736.311 1898.69,736.417 1900.85,736.522 1903.02,736.627 1905.18,736.732 1907.34,736.836 1909.5,736.939 1911.67,737.041 1913.83,737.143 1915.99,737.245 1918.15,737.345 1920.31,737.445 1922.48,737.545 1924.64,737.644 1926.8,737.743 1928.96,737.84 1931.13,737.938 1933.29,738.035 1935.45,738.131 1937.61,738.226 1939.77,738.321 1941.94,738.416 1944.1,738.51 1946.26,738.603 1948.42,738.696 1950.59,738.789 1952.75,738.881 1954.91,738.972 1957.07,739.063 1959.23,739.153 1961.4,739.242 1963.56,739.332 1965.72,739.42 1967.88,739.508 1970.04,739.596 1972.21,739.683 1974.37,739.77 1976.53,739.856 1978.69,739.942 1980.86,740.027 1983.02,740.111 1985.18,740.195 1987.34,740.279 1989.5,740.362 1991.67,740.445 1993.83,740.527 1995.99,740.609 1998.15,740.69 2000.32,740.771 2002.48,740.851 2004.64,740.931 2006.8,741.01 2008.96,741.089 2011.13,741.168 2013.29,741.246 2015.45,741.323 2017.61,741.4 2019.78,741.477 2021.94,741.553 2024.1,741.629 2026.26,741.704 2028.42,741.779 2030.59,741.853 2032.75,741.927 2034.91,742.001 2037.07,742.074 2039.24,742.147 2041.4,742.219 2043.56,742.291 2045.72,742.362 2047.88,742.433 2050.05,742.504 2052.21,742.574 2054.37,742.644 2056.53,742.713 2058.7,742.782 2060.86,742.851 2063.02,742.919 2065.18,742.987 2067.34,743.054 2069.51,743.121 2071.67,743.188 2073.83,743.254 2075.99,743.32 2078.16,743.385 2080.32,743.45 2082.48,743.515 2084.64,743.579 2086.8,743.643 2088.97,743.706 2091.13,743.77 2093.29,743.832 2095.45,743.895 2097.62,743.957 2099.78,744.019 2101.94,744.08 2104.1,744.141 2106.26,744.202 2108.43,744.262 2110.59,744.322 2112.75,744.381 2114.91,744.441 2117.08,744.5 2119.24,744.558 2121.4,744.616 2123.56,744.674 2125.72,744.732 2127.89,744.789 2130.05,744.846 2132.21,744.902 2134.37,744.958 2136.54,745.014 2138.7,745.07 2140.86,745.125 2143.02,745.18 2145.18,745.234 2147.35,745.289 2149.51,745.343 2151.67,745.396 2153.83,745.45 2155.99,745.503 2158.16,745.555 2160.32,745.608 2162.48,745.66 2164.64,745.711 2166.81,745.763 2168.97,745.814 2171.13,745.865 2173.29,745.915 2175.45,745.966 2177.62,746.016 2179.78,746.065 2181.94,746.115 2184.1,746.164 2186.27,746.213 2188.43,746.261 2190.59,746.309 2192.75,746.357 2194.91,746.405 2197.08,746.452 2199.24,746.499 2201.4,746.546 2203.56,746.593 2205.73,746.639 2207.89,746.685 2210.05,746.731 2212.21,746.776 2214.37,746.821 2216.54,746.866 2218.7,746.911 2220.86,746.955 2223.02,747 2225.19,747.043 2227.35,747.087 2229.51,747.13 2231.67,747.174 2233.83,747.216 2236,747.259 2238.16,747.301 2240.32,747.343 2242.48,747.385 2244.65,747.427 2246.81,747.468 2248.97,747.509 2251.13,747.55 2253.29,747.591 2255.46,747.631 2257.62,747.671 2259.78,747.711 2261.94,747.751 2264.11,747.791 2266.27,747.83 2268.43,747.869 2270.59,747.908 2272.75,747.946 2274.92,747.984 2277.08,748.022 2279.24,748.06 2281.4,748.098 2283.57,748.135 2285.73,748.173 2287.89,748.21 2290.05,748.246 2292.21,748.283 2294.38,748.319 2296.54,748.355 2298.7,748.391 2300.86,748.427 2303.03,748.462 2305.19,748.498 2307.35,748.533 2309.51,748.568 2311.67,748.602 2313.84,748.637 2316,748.671 2318.16,748.705 2320.32,748.739 2322.48,748.772 2324.65,748.806 2326.81,748.839 2328.97,748.872 2331.13,748.905 2333.3,748.938 2335.46,748.97 2337.62,749.002 2339.78,749.035 2341.94,749.066 2344.11,749.098 2346.27,749.13 2348.43,749.161 2350.59,749.192 2352.76,749.223 "/>
<path clip-path="url(#clip010)" d="M1805.35 248.629 L2280.75 248.629 L2280.75 93.1086 L1805.35 93.1086  Z" fill="#ffffff" fill-rule="evenodd" fill-opacity="1"/>
<polyline clip-path="url(#clip010)" style="stroke:#000000; stroke-linecap:round; stroke-linejoin:round; stroke-width:4; stroke-opacity:1; fill:none" points="1805.35,248.629 2280.75,248.629 2280.75,93.1086 1805.35,93.1086 1805.35,248.629 "/>
<polyline clip-path="url(#clip010)" style="stroke:#009af9; stroke-linecap:round; stroke-linejoin:round; stroke-width:4; stroke-opacity:1; fill:none" points="1829.35,144.949 1973.36,144.949 "/>
<path clip-path="url(#clip010)" d="M1997.36 136.303 L2001.87 136.303 L2009.97 158.062 L2018.07 136.303 L2022.59 136.303 L2012.87 162.229 L2007.08 162.229 L1997.36 136.303 Z" fill="#000000" fill-rule="nonzero" fill-opacity="1" /><path clip-path="url(#clip010)" d="M2029.88 158.293 L2037.52 158.293 L2037.52 131.928 L2029.21 133.595 L2029.21 129.335 L2037.47 127.669 L2042.15 127.669 L2042.15 158.293 L2049.79 158.293 L2049.79 162.229 L2029.88 162.229 L2029.88 158.293 Z" fill="#000000" fill-rule="nonzero" fill-opacity="1" /><path clip-path="url(#clip010)" d="M2067.89 145.585 L2067.89 152.807 L2076.01 152.807 L2076.01 155.006 L2067.89 155.006 L2067.89 162.229 L2065.46 162.229 L2065.46 155.006 L2057.33 155.006 L2057.33 152.807 L2065.46 152.807 L2065.46 145.585 L2067.89 145.585 Z" fill="#000000" fill-rule="nonzero" fill-opacity="1" /><path clip-path="url(#clip010)" d="M2100.18 137.067 L2100.18 141.094 Q2098.38 140.169 2096.43 139.706 Q2094.49 139.243 2092.4 139.243 Q2089.23 139.243 2087.63 140.215 Q2086.06 141.187 2086.06 143.131 Q2086.06 144.613 2087.19 145.469 Q2088.33 146.303 2091.75 147.067 L2093.21 147.391 Q2097.75 148.363 2099.65 150.145 Q2101.57 151.905 2101.57 155.076 Q2101.57 158.687 2098.7 160.793 Q2095.85 162.9 2090.85 162.9 Q2088.77 162.9 2086.5 162.483 Q2084.25 162.09 2081.75 161.28 L2081.75 156.881 Q2084.12 158.108 2086.41 158.733 Q2088.7 159.335 2090.94 159.335 Q2093.95 159.335 2095.57 158.317 Q2097.19 157.275 2097.19 155.4 Q2097.19 153.664 2096.01 152.738 Q2094.86 151.812 2090.9 150.956 L2089.42 150.608 Q2085.46 149.775 2083.7 148.062 Q2081.94 146.326 2081.94 143.317 Q2081.94 139.659 2084.53 137.669 Q2087.13 135.678 2091.89 135.678 Q2094.25 135.678 2096.34 136.025 Q2098.42 136.372 2100.18 137.067 Z" fill="#000000" fill-rule="nonzero" fill-opacity="1" /><path clip-path="url(#clip010)" d="M2112.56 128.942 L2112.56 136.303 L2121.34 136.303 L2121.34 139.613 L2112.56 139.613 L2112.56 153.687 Q2112.56 156.858 2113.42 157.761 Q2114.3 158.664 2116.96 158.664 L2121.34 158.664 L2121.34 162.229 L2116.96 162.229 Q2112.03 162.229 2110.16 160.4 Q2108.28 158.548 2108.28 153.687 L2108.28 139.613 L2105.16 139.613 L2105.16 136.303 L2108.28 136.303 L2108.28 128.942 L2112.56 128.942 Z" fill="#000000" fill-rule="nonzero" fill-opacity="1" /><path clip-path="url(#clip010)" d="M2136.99 139.289 Q2133.56 139.289 2131.57 141.974 Q2129.58 144.636 2129.58 149.289 Q2129.58 153.942 2131.55 156.627 Q2133.54 159.289 2136.99 159.289 Q2140.39 159.289 2142.38 156.604 Q2144.37 153.918 2144.37 149.289 Q2144.37 144.682 2142.38 141.997 Q2140.39 139.289 2136.99 139.289 M2136.99 135.678 Q2142.54 135.678 2145.71 139.289 Q2148.88 142.9 2148.88 149.289 Q2148.88 155.655 2145.71 159.289 Q2142.54 162.9 2136.99 162.9 Q2131.41 162.9 2128.24 159.289 Q2125.09 155.655 2125.09 149.289 Q2125.09 142.9 2128.24 139.289 Q2131.41 135.678 2136.99 135.678 Z" fill="#000000" fill-rule="nonzero" fill-opacity="1" /><path clip-path="url(#clip010)" d="M2170.97 140.284 Q2170.25 139.868 2169.39 139.682 Q2168.56 139.474 2167.54 139.474 Q2163.93 139.474 2161.99 141.835 Q2160.06 144.173 2160.06 148.571 L2160.06 162.229 L2155.78 162.229 L2155.78 136.303 L2160.06 136.303 L2160.06 140.331 Q2161.41 137.969 2163.56 136.835 Q2165.71 135.678 2168.79 135.678 Q2169.23 135.678 2169.76 135.747 Q2170.3 135.794 2170.94 135.909 L2170.97 140.284 Z" fill="#000000" fill-rule="nonzero" fill-opacity="1" /><path clip-path="url(#clip010)" d="M2187.22 149.196 Q2182.06 149.196 2180.06 150.377 Q2178.07 151.557 2178.07 154.405 Q2178.07 156.673 2179.56 158.016 Q2181.06 159.335 2183.63 159.335 Q2187.17 159.335 2189.3 156.835 Q2191.45 154.312 2191.45 150.145 L2191.45 149.196 L2187.22 149.196 M2195.71 147.437 L2195.71 162.229 L2191.45 162.229 L2191.45 158.293 Q2189.99 160.655 2187.82 161.789 Q2185.64 162.9 2182.49 162.9 Q2178.51 162.9 2176.15 160.678 Q2173.81 158.432 2173.81 154.682 Q2173.81 150.307 2176.73 148.085 Q2179.67 145.863 2185.48 145.863 L2191.45 145.863 L2191.45 145.446 Q2191.45 142.507 2189.51 140.909 Q2187.59 139.289 2184.09 139.289 Q2181.87 139.289 2179.76 139.821 Q2177.66 140.354 2175.71 141.419 L2175.71 137.483 Q2178.05 136.581 2180.25 136.141 Q2182.45 135.678 2184.53 135.678 Q2190.16 135.678 2192.93 138.594 Q2195.71 141.511 2195.71 147.437 Z" fill="#000000" fill-rule="nonzero" fill-opacity="1" /><path clip-path="url(#clip010)" d="M2221.55 148.965 Q2221.55 144.335 2219.62 141.789 Q2217.73 139.243 2214.28 139.243 Q2210.85 139.243 2208.93 141.789 Q2207.03 144.335 2207.03 148.965 Q2207.03 153.571 2208.93 156.118 Q2210.85 158.664 2214.28 158.664 Q2217.73 158.664 2219.62 156.118 Q2221.55 153.571 2221.55 148.965 M2225.8 159.011 Q2225.8 165.631 2222.87 168.849 Q2219.93 172.09 2213.86 172.09 Q2211.62 172.09 2209.62 171.742 Q2207.63 171.418 2205.76 170.724 L2205.76 166.58 Q2207.63 167.599 2209.46 168.085 Q2211.29 168.571 2213.19 168.571 Q2217.38 168.571 2219.46 166.372 Q2221.55 164.196 2221.55 159.775 L2221.55 157.668 Q2220.23 159.96 2218.17 161.094 Q2216.11 162.229 2213.24 162.229 Q2208.47 162.229 2205.55 158.594 Q2202.63 154.96 2202.63 148.965 Q2202.63 142.946 2205.55 139.312 Q2208.47 135.678 2213.24 135.678 Q2216.11 135.678 2218.17 136.812 Q2220.23 137.946 2221.55 140.238 L2221.55 136.303 L2225.8 136.303 L2225.8 159.011 Z" fill="#000000" fill-rule="nonzero" fill-opacity="1" /><path clip-path="url(#clip010)" d="M2256.75 148.201 L2256.75 150.284 L2237.17 150.284 Q2237.45 154.682 2239.81 156.997 Q2242.19 159.289 2246.43 159.289 Q2248.88 159.289 2251.18 158.687 Q2253.49 158.085 2255.76 156.881 L2255.76 160.909 Q2253.47 161.881 2251.06 162.391 Q2248.65 162.9 2246.18 162.9 Q2239.97 162.9 2236.34 159.289 Q2232.73 155.678 2232.73 149.52 Q2232.73 143.155 2236.15 139.428 Q2239.6 135.678 2245.43 135.678 Q2250.67 135.678 2253.7 139.057 Q2256.75 142.414 2256.75 148.201 M2252.49 146.951 Q2252.45 143.456 2250.53 141.372 Q2248.63 139.289 2245.48 139.289 Q2241.92 139.289 2239.76 141.303 Q2237.63 143.317 2237.31 146.974 L2252.49 146.951 Z" fill="#000000" fill-rule="nonzero" fill-opacity="1" /><polyline clip-path="url(#clip010)" style="stroke:#e26f46; stroke-linecap:round; stroke-linejoin:round; stroke-width:4; stroke-opacity:1; fill:none" points="1829.35,196.789 1973.36,196.789 "/>
<path clip-path="url(#clip010)" d="M1997.36 188.143 L2001.87 188.143 L2009.97 209.902 L2018.07 188.143 L2022.59 188.143 L2012.87 214.069 L2007.08 214.069 L1997.36 188.143 Z" fill="#000000" fill-rule="nonzero" fill-opacity="1" /><path clip-path="url(#clip010)" d="M2029.12 179.509 L2047.47 179.509 L2047.47 183.444 L2033.4 183.444 L2033.4 191.916 Q2034.42 191.569 2035.44 191.407 Q2036.45 191.222 2037.47 191.222 Q2043.26 191.222 2046.64 194.393 Q2050.02 197.564 2050.02 202.981 Q2050.02 208.559 2046.55 211.661 Q2043.07 214.74 2036.76 214.74 Q2034.58 214.74 2032.31 214.37 Q2030.07 213.999 2027.66 213.258 L2027.66 208.559 Q2029.74 209.694 2031.96 210.249 Q2034.19 210.805 2036.66 210.805 Q2040.67 210.805 2043 208.698 Q2045.34 206.592 2045.34 202.981 Q2045.34 199.37 2043 197.263 Q2040.67 195.157 2036.66 195.157 Q2034.79 195.157 2032.91 195.573 Q2031.06 195.99 2029.12 196.87 L2029.12 179.509 Z" fill="#000000" fill-rule="nonzero" fill-opacity="1" /><path clip-path="url(#clip010)" d="M2067.89 197.425 L2067.89 204.647 L2076.01 204.647 L2076.01 206.846 L2067.89 206.846 L2067.89 214.069 L2065.46 214.069 L2065.46 206.846 L2057.33 206.846 L2057.33 204.647 L2065.46 204.647 L2065.46 197.425 L2067.89 197.425 Z" fill="#000000" fill-rule="nonzero" fill-opacity="1" /><path clip-path="url(#clip010)" d="M2100.18 188.907 L2100.18 192.934 Q2098.38 192.009 2096.43 191.546 Q2094.49 191.083 2092.4 191.083 Q2089.23 191.083 2087.63 192.055 Q2086.06 193.027 2086.06 194.971 Q2086.06 196.453 2087.19 197.309 Q2088.33 198.143 2091.75 198.907 L2093.21 199.231 Q2097.75 200.203 2099.65 201.985 Q2101.57 203.745 2101.57 206.916 Q2101.57 210.527 2098.7 212.633 Q2095.85 214.74 2090.85 214.74 Q2088.77 214.74 2086.5 214.323 Q2084.25 213.93 2081.75 213.12 L2081.75 208.721 Q2084.12 209.948 2086.41 210.573 Q2088.7 211.175 2090.94 211.175 Q2093.95 211.175 2095.57 210.157 Q2097.19 209.115 2097.19 207.24 Q2097.19 205.504 2096.01 204.578 Q2094.86 203.652 2090.9 202.796 L2089.42 202.448 Q2085.46 201.615 2083.7 199.902 Q2081.94 198.166 2081.94 195.157 Q2081.94 191.499 2084.53 189.509 Q2087.13 187.518 2091.89 187.518 Q2094.25 187.518 2096.34 187.865 Q2098.42 188.212 2100.18 188.907 Z" fill="#000000" fill-rule="nonzero" fill-opacity="1" /><path clip-path="url(#clip010)" d="M2112.56 180.782 L2112.56 188.143 L2121.34 188.143 L2121.34 191.453 L2112.56 191.453 L2112.56 205.527 Q2112.56 208.698 2113.42 209.601 Q2114.3 210.504 2116.96 210.504 L2121.34 210.504 L2121.34 214.069 L2116.96 214.069 Q2112.03 214.069 2110.16 212.24 Q2108.28 210.388 2108.28 205.527 L2108.28 191.453 L2105.16 191.453 L2105.16 188.143 L2108.28 188.143 L2108.28 180.782 L2112.56 180.782 Z" fill="#000000" fill-rule="nonzero" fill-opacity="1" /><path clip-path="url(#clip010)" d="M2136.99 191.129 Q2133.56 191.129 2131.57 193.814 Q2129.58 196.476 2129.58 201.129 Q2129.58 205.782 2131.55 208.467 Q2133.54 211.129 2136.99 211.129 Q2140.39 211.129 2142.38 208.444 Q2144.37 205.758 2144.37 201.129 Q2144.37 196.522 2142.38 193.837 Q2140.39 191.129 2136.99 191.129 M2136.99 187.518 Q2142.54 187.518 2145.71 191.129 Q2148.88 194.74 2148.88 201.129 Q2148.88 207.495 2145.71 211.129 Q2142.54 214.74 2136.99 214.74 Q2131.41 214.74 2128.24 211.129 Q2125.09 207.495 2125.09 201.129 Q2125.09 194.74 2128.24 191.129 Q2131.41 187.518 2136.99 187.518 Z" fill="#000000" fill-rule="nonzero" fill-opacity="1" /><path clip-path="url(#clip010)" d="M2170.97 192.124 Q2170.25 191.708 2169.39 191.522 Q2168.56 191.314 2167.54 191.314 Q2163.93 191.314 2161.99 193.675 Q2160.06 196.013 2160.06 200.411 L2160.06 214.069 L2155.78 214.069 L2155.78 188.143 L2160.06 188.143 L2160.06 192.171 Q2161.41 189.809 2163.56 188.675 Q2165.71 187.518 2168.79 187.518 Q2169.23 187.518 2169.76 187.587 Q2170.3 187.634 2170.94 187.749 L2170.97 192.124 Z" fill="#000000" fill-rule="nonzero" fill-opacity="1" /><path clip-path="url(#clip010)" d="M2187.22 201.036 Q2182.06 201.036 2180.06 202.217 Q2178.07 203.397 2178.07 206.245 Q2178.07 208.513 2179.56 209.856 Q2181.06 211.175 2183.63 211.175 Q2187.17 211.175 2189.3 208.675 Q2191.45 206.152 2191.45 201.985 L2191.45 201.036 L2187.22 201.036 M2195.71 199.277 L2195.71 214.069 L2191.45 214.069 L2191.45 210.133 Q2189.99 212.495 2187.82 213.629 Q2185.64 214.74 2182.49 214.74 Q2178.51 214.74 2176.15 212.518 Q2173.81 210.272 2173.81 206.522 Q2173.81 202.147 2176.73 199.925 Q2179.67 197.703 2185.48 197.703 L2191.45 197.703 L2191.45 197.286 Q2191.45 194.347 2189.51 192.749 Q2187.59 191.129 2184.09 191.129 Q2181.87 191.129 2179.76 191.661 Q2177.66 192.194 2175.71 193.259 L2175.71 189.323 Q2178.05 188.421 2180.25 187.981 Q2182.45 187.518 2184.53 187.518 Q2190.16 187.518 2192.93 190.434 Q2195.71 193.351 2195.71 199.277 Z" fill="#000000" fill-rule="nonzero" fill-opacity="1" /><path clip-path="url(#clip010)" d="M2221.55 200.805 Q2221.55 196.175 2219.62 193.629 Q2217.73 191.083 2214.28 191.083 Q2210.85 191.083 2208.93 193.629 Q2207.03 196.175 2207.03 200.805 Q2207.03 205.411 2208.93 207.958 Q2210.85 210.504 2214.28 210.504 Q2217.73 210.504 2219.62 207.958 Q2221.55 205.411 2221.55 200.805 M2225.8 210.851 Q2225.8 217.471 2222.87 220.689 Q2219.93 223.93 2213.86 223.93 Q2211.62 223.93 2209.62 223.582 Q2207.63 223.258 2205.76 222.564 L2205.76 218.42 Q2207.63 219.439 2209.46 219.925 Q2211.29 220.411 2213.19 220.411 Q2217.38 220.411 2219.46 218.212 Q2221.55 216.036 2221.55 211.615 L2221.55 209.508 Q2220.23 211.8 2218.17 212.934 Q2216.11 214.069 2213.24 214.069 Q2208.47 214.069 2205.55 210.434 Q2202.63 206.8 2202.63 200.805 Q2202.63 194.786 2205.55 191.152 Q2208.47 187.518 2213.24 187.518 Q2216.11 187.518 2218.17 188.652 Q2220.23 189.786 2221.55 192.078 L2221.55 188.143 L2225.8 188.143 L2225.8 210.851 Z" fill="#000000" fill-rule="nonzero" fill-opacity="1" /><path clip-path="url(#clip010)" d="M2256.75 200.041 L2256.75 202.124 L2237.17 202.124 Q2237.45 206.522 2239.81 208.837 Q2242.19 211.129 2246.43 211.129 Q2248.88 211.129 2251.18 210.527 Q2253.49 209.925 2255.76 208.721 L2255.76 212.749 Q2253.47 213.721 2251.06 214.231 Q2248.65 214.74 2246.18 214.74 Q2239.97 214.74 2236.34 211.129 Q2232.73 207.518 2232.73 201.36 Q2232.73 194.995 2236.15 191.268 Q2239.6 187.518 2245.43 187.518 Q2250.67 187.518 2253.7 190.897 Q2256.75 194.254 2256.75 200.041 M2252.49 198.791 Q2252.45 195.296 2250.53 193.212 Q2248.63 191.129 2245.48 191.129 Q2241.92 191.129 2239.76 193.143 Q2237.63 195.157 2237.31 198.814 L2252.49 198.791 Z" fill="#000000" fill-rule="nonzero" fill-opacity="1" /></svg>
