<?xml version="1.0" encoding="utf-8"?>
<svg xmlns="http://www.w3.org/2000/svg" xmlns:xlink="http://www.w3.org/1999/xlink" width="600" height="400" viewBox="0 0 2400 1600">
<defs>
  <clipPath id="clip560">
    <rect x="0" y="0" width="2400" height="1600"/>
  </clipPath>
</defs>
<path clip-path="url(#clip560)" d="M0 1600 L2400 1600 L2400 0 L0 0  Z" fill="#ffffff" fill-rule="evenodd" fill-opacity="1"/>
<defs>
  <clipPath id="clip561">
    <rect x="480" y="0" width="1681" height="1600"/>
  </clipPath>
</defs>
<path clip-path="url(#clip560)" d="M192.339 1423.18 L2352.76 1423.18 L2352.76 47.2441 L192.339 47.2441  Z" fill="#ffffff" fill-rule="evenodd" fill-opacity="1"/>
<defs>
  <clipPath id="clip562">
    <rect x="192" y="47" width="2161" height="1377"/>
  </clipPath>
</defs>
<polyline clip-path="url(#clip562)" style="stroke:#000000; stroke-linecap:round; stroke-linejoin:round; stroke-width:2; stroke-opacity:0.1; fill:none" points="192.339,1423.18 192.339,47.2441 "/>
<polyline clip-path="url(#clip562)" style="stroke:#000000; stroke-linecap:round; stroke-linejoin:round; stroke-width:2; stroke-opacity:0.1; fill:none" points="732.443,1423.18 732.443,47.2441 "/>
<polyline clip-path="url(#clip562)" style="stroke:#000000; stroke-linecap:round; stroke-linejoin:round; stroke-width:2; stroke-opacity:0.1; fill:none" points="1272.55,1423.18 1272.55,47.2441 "/>
<polyline clip-path="url(#clip562)" style="stroke:#000000; stroke-linecap:round; stroke-linejoin:round; stroke-width:2; stroke-opacity:0.1; fill:none" points="1812.65,1423.18 1812.65,47.2441 "/>
<polyline clip-path="url(#clip562)" style="stroke:#000000; stroke-linecap:round; stroke-linejoin:round; stroke-width:2; stroke-opacity:0.1; fill:none" points="2352.76,1423.18 2352.76,47.2441 "/>
<polyline clip-path="url(#clip562)" style="stroke:#000000; stroke-linecap:round; stroke-linejoin:round; stroke-width:2; stroke-opacity:0.1; fill:none" points="192.339,1193.38 2352.76,1193.38 "/>
<polyline clip-path="url(#clip562)" style="stroke:#000000; stroke-linecap:round; stroke-linejoin:round; stroke-width:2; stroke-opacity:0.1; fill:none" points="192.339,938.18 2352.76,938.18 "/>
<polyline clip-path="url(#clip562)" style="stroke:#000000; stroke-linecap:round; stroke-linejoin:round; stroke-width:2; stroke-opacity:0.1; fill:none" points="192.339,682.984 2352.76,682.984 "/>
<polyline clip-path="url(#clip562)" style="stroke:#000000; stroke-linecap:round; stroke-linejoin:round; stroke-width:2; stroke-opacity:0.1; fill:none" points="192.339,427.788 2352.76,427.788 "/>
<polyline clip-path="url(#clip562)" style="stroke:#000000; stroke-linecap:round; stroke-linejoin:round; stroke-width:2; stroke-opacity:0.1; fill:none" points="192.339,172.593 2352.76,172.593 "/>
<polyline clip-path="url(#clip560)" style="stroke:#000000; stroke-linecap:round; stroke-linejoin:round; stroke-width:4; stroke-opacity:1; fill:none" points="192.339,1423.18 2352.76,1423.18 "/>
<polyline clip-path="url(#clip560)" style="stroke:#000000; stroke-linecap:round; stroke-linejoin:round; stroke-width:4; stroke-opacity:1; fill:none" points="192.339,1423.18 192.339,1404.28 "/>
<polyline clip-path="url(#clip560)" style="stroke:#000000; stroke-linecap:round; stroke-linejoin:round; stroke-width:4; stroke-opacity:1; fill:none" points="732.443,1423.18 732.443,1404.28 "/>
<polyline clip-path="url(#clip560)" style="stroke:#000000; stroke-linecap:round; stroke-linejoin:round; stroke-width:4; stroke-opacity:1; fill:none" points="1272.55,1423.18 1272.55,1404.28 "/>
<polyline clip-path="url(#clip560)" style="stroke:#000000; stroke-linecap:round; stroke-linejoin:round; stroke-width:4; stroke-opacity:1; fill:none" points="1812.65,1423.18 1812.65,1404.28 "/>
<polyline clip-path="url(#clip560)" style="stroke:#000000; stroke-linecap:round; stroke-linejoin:round; stroke-width:4; stroke-opacity:1; fill:none" points="2352.76,1423.18 2352.76,1404.28 "/>
<path clip-path="url(#clip560)" d="M169.723 1454.1 Q166.112 1454.1 164.283 1457.66 Q162.478 1461.2 162.478 1468.33 Q162.478 1475.44 164.283 1479.01 Q166.112 1482.55 169.723 1482.55 Q173.357 1482.55 175.163 1479.01 Q176.992 1475.44 176.992 1468.33 Q176.992 1461.2 175.163 1457.66 Q173.357 1454.1 169.723 1454.1 M169.723 1450.39 Q175.533 1450.39 178.589 1455 Q181.668 1459.58 181.668 1468.33 Q181.668 1477.06 178.589 1481.67 Q175.533 1486.25 169.723 1486.25 Q163.913 1486.25 160.834 1481.67 Q157.779 1477.06 157.779 1468.33 Q157.779 1459.58 160.834 1455 Q163.913 1450.39 169.723 1450.39 Z" fill="#000000" fill-rule="nonzero" fill-opacity="1" /><path clip-path="url(#clip560)" d="M189.885 1479.7 L194.769 1479.7 L194.769 1485.58 L189.885 1485.58 L189.885 1479.7 Z" fill="#000000" fill-rule="nonzero" fill-opacity="1" /><path clip-path="url(#clip560)" d="M214.954 1454.1 Q211.343 1454.1 209.515 1457.66 Q207.709 1461.2 207.709 1468.33 Q207.709 1475.44 209.515 1479.01 Q211.343 1482.55 214.954 1482.55 Q218.589 1482.55 220.394 1479.01 Q222.223 1475.44 222.223 1468.33 Q222.223 1461.2 220.394 1457.66 Q218.589 1454.1 214.954 1454.1 M214.954 1450.39 Q220.765 1450.39 223.82 1455 Q226.899 1459.58 226.899 1468.33 Q226.899 1477.06 223.82 1481.67 Q220.765 1486.25 214.954 1486.25 Q209.144 1486.25 206.066 1481.67 Q203.01 1477.06 203.01 1468.33 Q203.01 1459.58 206.066 1455 Q209.144 1450.39 214.954 1450.39 Z" fill="#000000" fill-rule="nonzero" fill-opacity="1" /><path clip-path="url(#clip560)" d="M710.325 1454.1 Q706.714 1454.1 704.885 1457.66 Q703.08 1461.2 703.08 1468.33 Q703.08 1475.44 704.885 1479.01 Q706.714 1482.55 710.325 1482.55 Q713.959 1482.55 715.765 1479.01 Q717.594 1475.44 717.594 1468.33 Q717.594 1461.2 715.765 1457.66 Q713.959 1454.1 710.325 1454.1 M710.325 1450.39 Q716.135 1450.39 719.191 1455 Q722.27 1459.58 722.27 1468.33 Q722.27 1477.06 719.191 1481.67 Q716.135 1486.25 710.325 1486.25 Q704.515 1486.25 701.436 1481.67 Q698.381 1477.06 698.381 1468.33 Q698.381 1459.58 701.436 1455 Q704.515 1450.39 710.325 1450.39 Z" fill="#000000" fill-rule="nonzero" fill-opacity="1" /><path clip-path="url(#clip560)" d="M730.487 1479.7 L735.371 1479.7 L735.371 1485.58 L730.487 1485.58 L730.487 1479.7 Z" fill="#000000" fill-rule="nonzero" fill-opacity="1" /><path clip-path="url(#clip560)" d="M745.603 1451.02 L763.959 1451.02 L763.959 1454.96 L749.885 1454.96 L749.885 1463.43 Q750.904 1463.08 751.922 1462.92 Q752.941 1462.73 753.959 1462.73 Q759.746 1462.73 763.126 1465.9 Q766.505 1469.08 766.505 1474.49 Q766.505 1480.07 763.033 1483.17 Q759.561 1486.25 753.242 1486.25 Q751.066 1486.25 748.797 1485.88 Q746.552 1485.51 744.144 1484.77 L744.144 1480.07 Q746.228 1481.2 748.45 1481.76 Q750.672 1482.32 753.149 1482.32 Q757.154 1482.32 759.492 1480.21 Q761.829 1478.1 761.829 1474.49 Q761.829 1470.88 759.492 1468.77 Q757.154 1466.67 753.149 1466.67 Q751.274 1466.67 749.399 1467.08 Q747.547 1467.5 745.603 1468.38 L745.603 1451.02 Z" fill="#000000" fill-rule="nonzero" fill-opacity="1" /><path clip-path="url(#clip560)" d="M1239.7 1481.64 L1247.34 1481.64 L1247.34 1455.28 L1239.03 1456.95 L1239.03 1452.69 L1247.29 1451.02 L1251.97 1451.02 L1251.97 1481.64 L1259.61 1481.64 L1259.61 1485.58 L1239.7 1485.58 L1239.7 1481.64 Z" fill="#000000" fill-rule="nonzero" fill-opacity="1" /><path clip-path="url(#clip560)" d="M1269.05 1479.7 L1273.94 1479.7 L1273.94 1485.58 L1269.05 1485.58 L1269.05 1479.7 Z" fill="#000000" fill-rule="nonzero" fill-opacity="1" /><path clip-path="url(#clip560)" d="M1294.12 1454.1 Q1290.51 1454.1 1288.68 1457.66 Q1286.88 1461.2 1286.88 1468.33 Q1286.88 1475.44 1288.68 1479.01 Q1290.51 1482.55 1294.12 1482.55 Q1297.76 1482.55 1299.56 1479.01 Q1301.39 1475.44 1301.39 1468.33 Q1301.39 1461.2 1299.56 1457.66 Q1297.76 1454.1 1294.12 1454.1 M1294.12 1450.39 Q1299.93 1450.39 1302.99 1455 Q1306.07 1459.58 1306.07 1468.33 Q1306.07 1477.06 1302.99 1481.67 Q1299.93 1486.25 1294.12 1486.25 Q1288.31 1486.25 1285.23 1481.67 Q1282.18 1477.06 1282.18 1468.33 Q1282.18 1459.58 1285.23 1455 Q1288.31 1450.39 1294.12 1450.39 Z" fill="#000000" fill-rule="nonzero" fill-opacity="1" /><path clip-path="url(#clip560)" d="M1780.3 1481.64 L1787.94 1481.64 L1787.94 1455.28 L1779.63 1456.95 L1779.63 1452.69 L1787.89 1451.02 L1792.57 1451.02 L1792.57 1481.64 L1800.21 1481.64 L1800.21 1485.58 L1780.3 1485.58 L1780.3 1481.64 Z" fill="#000000" fill-rule="nonzero" fill-opacity="1" /><path clip-path="url(#clip560)" d="M1809.65 1479.7 L1814.54 1479.7 L1814.54 1485.58 L1809.65 1485.58 L1809.65 1479.7 Z" fill="#000000" fill-rule="nonzero" fill-opacity="1" /><path clip-path="url(#clip560)" d="M1824.77 1451.02 L1843.13 1451.02 L1843.13 1454.96 L1829.05 1454.96 L1829.05 1463.43 Q1830.07 1463.08 1831.09 1462.92 Q1832.11 1462.73 1833.13 1462.73 Q1838.91 1462.73 1842.29 1465.9 Q1845.67 1469.08 1845.67 1474.49 Q1845.67 1480.07 1842.2 1483.17 Q1838.73 1486.25 1832.41 1486.25 Q1830.23 1486.25 1827.96 1485.88 Q1825.72 1485.51 1823.31 1484.77 L1823.31 1480.07 Q1825.39 1481.2 1827.62 1481.76 Q1829.84 1482.32 1832.32 1482.32 Q1836.32 1482.32 1838.66 1480.21 Q1841 1478.1 1841 1474.49 Q1841 1470.88 1838.66 1468.77 Q1836.32 1466.67 1832.32 1466.67 Q1830.44 1466.67 1828.57 1467.08 Q1826.71 1467.5 1824.77 1468.38 L1824.77 1451.02 Z" fill="#000000" fill-rule="nonzero" fill-opacity="1" /><path clip-path="url(#clip560)" d="M2323.99 1481.64 L2340.31 1481.64 L2340.31 1485.58 L2318.37 1485.58 L2318.37 1481.64 Q2321.03 1478.89 2325.61 1474.26 Q2330.22 1469.61 2331.4 1468.27 Q2333.65 1465.74 2334.53 1464.01 Q2335.43 1462.25 2335.43 1460.56 Q2335.43 1457.8 2333.49 1456.07 Q2331.56 1454.33 2328.46 1454.33 Q2326.26 1454.33 2323.81 1455.09 Q2321.38 1455.86 2318.6 1457.41 L2318.6 1452.69 Q2321.43 1451.55 2323.88 1450.97 Q2326.33 1450.39 2328.37 1450.39 Q2333.74 1450.39 2336.93 1453.08 Q2340.13 1455.77 2340.13 1460.26 Q2340.13 1462.39 2339.32 1464.31 Q2338.53 1466.2 2336.42 1468.8 Q2335.85 1469.47 2332.74 1472.69 Q2329.64 1475.88 2323.99 1481.64 Z" fill="#000000" fill-rule="nonzero" fill-opacity="1" /><path clip-path="url(#clip560)" d="M2350.13 1479.7 L2355.01 1479.7 L2355.01 1485.58 L2350.13 1485.58 L2350.13 1479.7 Z" fill="#000000" fill-rule="nonzero" fill-opacity="1" /><path clip-path="url(#clip560)" d="M2375.2 1454.1 Q2371.59 1454.1 2369.76 1457.66 Q2367.95 1461.2 2367.95 1468.33 Q2367.95 1475.44 2369.76 1479.01 Q2371.59 1482.55 2375.2 1482.55 Q2378.83 1482.55 2380.64 1479.01 Q2382.47 1475.44 2382.47 1468.33 Q2382.47 1461.2 2380.64 1457.66 Q2378.83 1454.1 2375.2 1454.1 M2375.2 1450.39 Q2381.01 1450.39 2384.06 1455 Q2387.14 1459.58 2387.14 1468.33 Q2387.14 1477.06 2384.06 1481.67 Q2381.01 1486.25 2375.2 1486.25 Q2369.39 1486.25 2366.31 1481.67 Q2363.25 1477.06 2363.25 1468.33 Q2363.25 1459.58 2366.31 1455 Q2369.39 1450.39 2375.2 1450.39 Z" fill="#000000" fill-rule="nonzero" fill-opacity="1" /><path clip-path="url(#clip560)" d="M1271.61 1522.27 L1271.61 1532.4 L1283.67 1532.4 L1283.67 1536.95 L1271.61 1536.95 L1271.61 1556.3 Q1271.61 1560.66 1272.79 1561.9 Q1274 1563.14 1277.66 1563.14 L1283.67 1563.14 L1283.67 1568.04 L1277.66 1568.04 Q1270.88 1568.04 1268.3 1565.53 Q1265.72 1562.98 1265.72 1556.3 L1265.72 1536.95 L1261.42 1536.95 L1261.42 1532.4 L1265.72 1532.4 L1265.72 1522.27 L1271.61 1522.27 Z" fill="#000000" fill-rule="nonzero" fill-opacity="1" /><polyline clip-path="url(#clip560)" style="stroke:#000000; stroke-linecap:round; stroke-linejoin:round; stroke-width:4; stroke-opacity:1; fill:none" points="192.339,1423.18 192.339,47.2441 "/>
<polyline clip-path="url(#clip560)" style="stroke:#000000; stroke-linecap:round; stroke-linejoin:round; stroke-width:4; stroke-opacity:1; fill:none" points="192.339,1193.38 211.236,1193.38 "/>
<polyline clip-path="url(#clip560)" style="stroke:#000000; stroke-linecap:round; stroke-linejoin:round; stroke-width:4; stroke-opacity:1; fill:none" points="192.339,938.18 211.236,938.18 "/>
<polyline clip-path="url(#clip560)" style="stroke:#000000; stroke-linecap:round; stroke-linejoin:round; stroke-width:4; stroke-opacity:1; fill:none" points="192.339,682.984 211.236,682.984 "/>
<polyline clip-path="url(#clip560)" style="stroke:#000000; stroke-linecap:round; stroke-linejoin:round; stroke-width:4; stroke-opacity:1; fill:none" points="192.339,427.788 211.236,427.788 "/>
<polyline clip-path="url(#clip560)" style="stroke:#000000; stroke-linecap:round; stroke-linejoin:round; stroke-width:4; stroke-opacity:1; fill:none" points="192.339,172.593 211.236,172.593 "/>
<path clip-path="url(#clip560)" d="M50.9921 1193.83 L80.6679 1193.83 L80.6679 1197.76 L50.9921 1197.76 L50.9921 1193.83 Z" fill="#000000" fill-rule="nonzero" fill-opacity="1" /><path clip-path="url(#clip560)" d="M100.76 1179.17 Q97.1493 1179.17 95.3206 1182.74 Q93.515 1186.28 93.515 1193.41 Q93.515 1200.52 95.3206 1204.08 Q97.1493 1207.62 100.76 1207.62 Q104.395 1207.62 106.2 1204.08 Q108.029 1200.52 108.029 1193.41 Q108.029 1186.28 106.2 1182.74 Q104.395 1179.17 100.76 1179.17 M100.76 1175.47 Q106.571 1175.47 109.626 1180.08 Q112.705 1184.66 112.705 1193.41 Q112.705 1202.14 109.626 1206.74 Q106.571 1211.33 100.76 1211.33 Q94.9502 1211.33 91.8715 1206.74 Q88.816 1202.14 88.816 1193.41 Q88.816 1184.66 91.8715 1180.08 Q94.9502 1175.47 100.76 1175.47 Z" fill="#000000" fill-rule="nonzero" fill-opacity="1" /><path clip-path="url(#clip560)" d="M120.922 1204.78 L125.807 1204.78 L125.807 1210.66 L120.922 1210.66 L120.922 1204.78 Z" fill="#000000" fill-rule="nonzero" fill-opacity="1" /><path clip-path="url(#clip560)" d="M140.019 1206.72 L156.339 1206.72 L156.339 1210.66 L134.394 1210.66 L134.394 1206.72 Q137.056 1203.97 141.64 1199.34 Q146.246 1194.68 147.427 1193.34 Q149.672 1190.82 150.552 1189.08 Q151.455 1187.32 151.455 1185.63 Q151.455 1182.88 149.51 1181.14 Q147.589 1179.41 144.487 1179.41 Q142.288 1179.41 139.834 1180.17 Q137.404 1180.93 134.626 1182.48 L134.626 1177.76 Q137.45 1176.63 139.904 1176.05 Q142.357 1175.47 144.394 1175.47 Q149.765 1175.47 152.959 1178.16 Q156.154 1180.84 156.154 1185.33 Q156.154 1187.46 155.343 1189.38 Q154.556 1191.28 152.45 1193.87 Q151.871 1194.55 148.769 1197.76 Q145.668 1200.96 140.019 1206.72 Z" fill="#000000" fill-rule="nonzero" fill-opacity="1" /><path clip-path="url(#clip560)" d="M99.1632 923.979 Q95.5521 923.979 93.7234 927.544 Q91.9178 931.085 91.9178 938.215 Q91.9178 945.321 93.7234 948.886 Q95.5521 952.428 99.1632 952.428 Q102.797 952.428 104.603 948.886 Q106.432 945.321 106.432 938.215 Q106.432 931.085 104.603 927.544 Q102.797 923.979 99.1632 923.979 M99.1632 920.275 Q104.973 920.275 108.029 924.882 Q111.108 929.465 111.108 938.215 Q111.108 946.942 108.029 951.548 Q104.973 956.131 99.1632 956.131 Q93.353 956.131 90.2743 951.548 Q87.2188 946.942 87.2188 938.215 Q87.2188 929.465 90.2743 924.882 Q93.353 920.275 99.1632 920.275 Z" fill="#000000" fill-rule="nonzero" fill-opacity="1" /><path clip-path="url(#clip560)" d="M119.325 949.581 L124.209 949.581 L124.209 955.46 L119.325 955.46 L119.325 949.581 Z" fill="#000000" fill-rule="nonzero" fill-opacity="1" /><path clip-path="url(#clip560)" d="M144.394 923.979 Q140.783 923.979 138.955 927.544 Q137.149 931.085 137.149 938.215 Q137.149 945.321 138.955 948.886 Q140.783 952.428 144.394 952.428 Q148.029 952.428 149.834 948.886 Q151.663 945.321 151.663 938.215 Q151.663 931.085 149.834 927.544 Q148.029 923.979 144.394 923.979 M144.394 920.275 Q150.205 920.275 153.26 924.882 Q156.339 929.465 156.339 938.215 Q156.339 946.942 153.26 951.548 Q150.205 956.131 144.394 956.131 Q138.584 956.131 135.506 951.548 Q132.45 946.942 132.45 938.215 Q132.45 929.465 135.506 924.882 Q138.584 920.275 144.394 920.275 Z" fill="#000000" fill-rule="nonzero" fill-opacity="1" /><path clip-path="url(#clip560)" d="M100.76 668.783 Q97.1493 668.783 95.3206 672.348 Q93.515 675.889 93.515 683.019 Q93.515 690.125 95.3206 693.69 Q97.1493 697.232 100.76 697.232 Q104.395 697.232 106.2 693.69 Q108.029 690.125 108.029 683.019 Q108.029 675.889 106.2 672.348 Q104.395 668.783 100.76 668.783 M100.76 665.079 Q106.571 665.079 109.626 669.686 Q112.705 674.269 112.705 683.019 Q112.705 691.746 109.626 696.352 Q106.571 700.936 100.76 700.936 Q94.9502 700.936 91.8715 696.352 Q88.816 691.746 88.816 683.019 Q88.816 674.269 91.8715 669.686 Q94.9502 665.079 100.76 665.079 Z" fill="#000000" fill-rule="nonzero" fill-opacity="1" /><path clip-path="url(#clip560)" d="M120.922 694.385 L125.807 694.385 L125.807 700.264 L120.922 700.264 L120.922 694.385 Z" fill="#000000" fill-rule="nonzero" fill-opacity="1" /><path clip-path="url(#clip560)" d="M140.019 696.329 L156.339 696.329 L156.339 700.264 L134.394 700.264 L134.394 696.329 Q137.056 693.575 141.64 688.945 Q146.246 684.292 147.427 682.95 Q149.672 680.426 150.552 678.69 Q151.455 676.931 151.455 675.241 Q151.455 672.487 149.51 670.751 Q147.589 669.014 144.487 669.014 Q142.288 669.014 139.834 669.778 Q137.404 670.542 134.626 672.093 L134.626 667.371 Q137.45 666.237 139.904 665.658 Q142.357 665.079 144.394 665.079 Q149.765 665.079 152.959 667.764 Q156.154 670.45 156.154 674.94 Q156.154 677.07 155.343 678.991 Q154.556 680.889 152.45 683.482 Q151.871 684.153 148.769 687.371 Q145.668 690.565 140.019 696.329 Z" fill="#000000" fill-rule="nonzero" fill-opacity="1" /><path clip-path="url(#clip560)" d="M98.6771 413.587 Q95.066 413.587 93.2373 417.152 Q91.4317 420.694 91.4317 427.823 Q91.4317 434.93 93.2373 438.494 Q95.066 442.036 98.6771 442.036 Q102.311 442.036 104.117 438.494 Q105.946 434.93 105.946 427.823 Q105.946 420.694 104.117 417.152 Q102.311 413.587 98.6771 413.587 M98.6771 409.883 Q104.487 409.883 107.543 414.49 Q110.621 419.073 110.621 427.823 Q110.621 436.55 107.543 441.156 Q104.487 445.74 98.6771 445.74 Q92.8669 445.74 89.7882 441.156 Q86.7327 436.55 86.7327 427.823 Q86.7327 419.073 89.7882 414.49 Q92.8669 409.883 98.6771 409.883 Z" fill="#000000" fill-rule="nonzero" fill-opacity="1" /><path clip-path="url(#clip560)" d="M118.839 439.189 L123.723 439.189 L123.723 445.068 L118.839 445.068 L118.839 439.189 Z" fill="#000000" fill-rule="nonzero" fill-opacity="1" /><path clip-path="url(#clip560)" d="M146.756 414.582 L134.95 433.031 L146.756 433.031 L146.756 414.582 M145.529 410.508 L151.408 410.508 L151.408 433.031 L156.339 433.031 L156.339 436.92 L151.408 436.92 L151.408 445.068 L146.756 445.068 L146.756 436.92 L131.154 436.92 L131.154 432.406 L145.529 410.508 Z" fill="#000000" fill-rule="nonzero" fill-opacity="1" /><path clip-path="url(#clip560)" d="M99.0011 158.391 Q95.39 158.391 93.5613 161.956 Q91.7558 165.498 91.7558 172.627 Q91.7558 179.734 93.5613 183.298 Q95.39 186.84 99.0011 186.84 Q102.635 186.84 104.441 183.298 Q106.27 179.734 106.27 172.627 Q106.27 165.498 104.441 161.956 Q102.635 158.391 99.0011 158.391 M99.0011 154.688 Q104.811 154.688 107.867 159.294 Q110.946 163.877 110.946 172.627 Q110.946 181.354 107.867 185.961 Q104.811 190.544 99.0011 190.544 Q93.191 190.544 90.1123 185.961 Q87.0567 181.354 87.0567 172.627 Q87.0567 163.877 90.1123 159.294 Q93.191 154.688 99.0011 154.688 Z" fill="#000000" fill-rule="nonzero" fill-opacity="1" /><path clip-path="url(#clip560)" d="M119.163 183.993 L124.047 183.993 L124.047 189.873 L119.163 189.873 L119.163 183.993 Z" fill="#000000" fill-rule="nonzero" fill-opacity="1" /><path clip-path="url(#clip560)" d="M144.811 170.729 Q141.663 170.729 139.811 172.882 Q137.982 175.035 137.982 178.785 Q137.982 182.511 139.811 184.687 Q141.663 186.84 144.811 186.84 Q147.959 186.84 149.788 184.687 Q151.64 182.511 151.64 178.785 Q151.64 175.035 149.788 172.882 Q147.959 170.729 144.811 170.729 M154.093 156.076 L154.093 160.336 Q152.334 159.502 150.529 159.063 Q148.746 158.623 146.987 158.623 Q142.357 158.623 139.904 161.748 Q137.473 164.873 137.126 171.192 Q138.492 169.178 140.552 168.113 Q142.612 167.025 145.089 167.025 Q150.297 167.025 153.306 170.197 Q156.339 173.345 156.339 178.785 Q156.339 184.109 153.191 187.326 Q150.043 190.544 144.811 190.544 Q138.816 190.544 135.644 185.961 Q132.473 181.354 132.473 172.627 Q132.473 164.433 136.362 159.572 Q140.251 154.688 146.802 154.688 Q148.561 154.688 150.343 155.035 Q152.149 155.382 154.093 156.076 Z" fill="#000000" fill-rule="nonzero" fill-opacity="1" /><polyline clip-path="url(#clip562)" style="stroke:#009af9; stroke-linecap:round; stroke-linejoin:round; stroke-width:4; stroke-opacity:1; fill:none" points="192.339,1384.24 194.501,1376.57 196.664,1368.98 198.827,1361.47 200.989,1354.03 203.152,1346.67 205.314,1339.38 207.477,1332.16 209.639,1325.01 211.802,1317.94 213.965,1310.94 216.127,1304 218.29,1297.13 220.452,1290.34 222.615,1283.61 224.777,1276.95 226.94,1270.35 229.103,1263.82 231.265,1257.35 233.428,1250.95 235.59,1244.61 237.753,1238.34 239.916,1232.13 242.078,1225.98 244.241,1219.89 246.403,1213.86 248.566,1207.89 250.728,1201.99 252.891,1196.14 255.054,1190.35 257.216,1184.61 259.379,1178.93 261.541,1173.31 263.704,1167.75 265.866,1162.24 268.029,1156.79 270.192,1151.39 272.354,1146.04 274.517,1140.75 276.679,1135.51 278.842,1130.32 281.005,1125.19 283.167,1120.1 285.33,1115.07 287.492,1110.08 289.655,1105.15 291.817,1100.27 293.98,1095.43 296.143,1090.64 298.305,1085.9 300.468,1081.21 302.63,1076.56 304.793,1071.96 306.956,1067.41 309.118,1062.9 311.281,1058.43 313.443,1054.01 315.606,1049.64 317.768,1045.3 319.931,1041.02 322.094,1036.77 324.256,1032.57 326.419,1028.4 328.581,1024.28 330.744,1020.2 332.906,1016.16 335.069,1012.16 337.232,1008.21 339.394,1004.29 341.557,1000.41 343.719,996.563 345.882,992.759 348.045,988.994 350.207,985.265 352.37,981.574 354.532,977.92 356.695,974.302 358.857,970.72 361.02,967.174 363.183,963.663 365.345,960.187 367.508,956.746 369.67,953.339 371.833,949.966 373.995,946.627 376.158,943.321 378.321,940.047 380.483,936.807 382.646,933.598 384.808,930.422 386.971,927.277 389.134,924.164 391.296,921.082 393.459,918.03 395.621,915.008 397.784,912.017 399.946,909.056 402.109,906.124 404.272,903.221 406.434,900.347 408.597,897.502 410.759,894.685 412.922,891.896 415.084,889.135 417.247,886.401 419.41,883.695 421.572,881.015 423.735,878.362 425.897,875.736 428.06,873.136 430.223,870.561 432.385,868.013 434.548,865.49 436.71,862.991 438.873,860.518 441.035,858.07 443.198,855.645 445.361,853.245 447.523,850.869 449.686,848.517 451.848,846.188 454.011,843.882 456.174,841.599 458.336,839.339 460.499,837.101 462.661,834.886 464.824,832.693 466.986,830.522 469.149,828.372 471.312,826.244 473.474,824.137 475.637,822.05 477.799,819.985 479.962,817.94 482.124,815.916 484.287,813.912 486.45,811.927 488.612,809.963 490.775,808.018 492.937,806.092 495.1,804.186 497.263,802.298 499.425,800.429 501.588,798.579 503.75,796.747 505.913,794.934 508.075,793.138 510.238,791.361 512.401,789.601 514.563,787.859 516.726,786.133 518.888,784.426 521.051,782.735 523.213,781.061 525.376,779.403 527.539,777.763 529.701,776.138 531.864,774.53 534.026,772.938 536.189,771.361 538.352,769.801 540.514,768.256 542.677,766.726 544.839,765.211 547.002,763.712 549.164,762.228 551.327,760.758 553.49,759.303 555.652,757.863 557.815,756.437 559.977,755.025 562.14,753.627 564.302,752.243 566.465,750.873 568.628,749.517 570.79,748.174 572.953,746.845 575.115,745.529 577.278,744.225 579.441,742.935 581.603,741.658 583.766,740.393 585.928,739.141 588.091,737.902 590.253,736.675 592.416,735.46 594.579,734.257 596.741,733.066 598.904,731.887 601.066,730.72 603.229,729.564 605.392,728.42 607.554,727.287 609.717,726.165 611.879,725.055 614.042,723.956 616.204,722.867 618.367,721.79 620.53,720.723 622.692,719.666 624.855,718.62 627.017,717.585 629.18,716.56 631.342,715.545 633.505,714.54 635.668,713.545 637.83,712.56 639.993,711.585 642.155,710.62 644.318,709.664 646.481,708.718 648.643,707.781 650.806,706.854 652.968,705.935 655.131,705.026 657.293,704.126 659.456,703.235 661.619,702.353 663.781,701.48 665.944,700.615 668.106,699.759 670.269,698.912 672.431,698.073 674.594,697.242 676.757,696.42 678.919,695.606 681.082,694.8 683.244,694.002 685.407,693.212 687.57,692.43 689.732,691.656 691.895,690.889 694.057,690.13 696.22,689.379 698.382,688.635 700.545,687.899 702.708,687.17 704.87,686.448 707.033,685.733 709.195,685.026 711.358,684.325 713.52,683.632 715.683,682.945 717.846,682.265 720.008,681.592 722.171,680.926 724.333,680.266 726.496,679.613 728.659,678.967 730.821,678.327 732.984,677.693 735.146,677.065 737.309,676.444 739.471,675.829 741.634,675.22 743.797,674.617 745.959,674.02 748.122,673.429 750.284,672.844 752.447,672.264 754.61,671.69 756.772,671.122 758.935,670.56 761.097,670.003 763.26,669.452 765.422,668.906 767.585,668.366 769.748,667.831 771.91,667.301 774.073,666.777 776.235,666.258 778.398,665.744 780.56,665.235 782.723,664.731 784.886,664.232 787.048,663.738 789.211,663.25 791.373,662.766 793.536,662.286 795.699,661.812 797.861,661.343 800.024,660.878 802.186,660.417 804.349,659.962 806.511,659.511 808.674,659.064 810.837,658.622 812.999,658.184 815.162,657.751 817.324,657.322 819.487,656.897 821.649,656.477 823.812,656.06 825.975,655.648 828.137,655.24 830.3,654.837 832.462,654.437 834.625,654.041 836.788,653.649 838.95,653.261 841.113,652.877 843.275,652.497 845.438,652.12 847.6,651.747 849.763,651.378 851.926,651.013 854.088,650.652 856.251,650.293 858.413,649.939 860.576,649.588 862.738,649.241 864.901,648.897 867.064,648.556 869.226,648.219 871.389,647.885 873.551,647.555 875.714,647.227 877.877,646.903 880.039,646.583 882.202,646.265 884.364,645.951 886.527,645.639 888.689,645.331 890.852,645.026 893.015,644.724 895.177,644.425 897.34,644.128 899.502,643.835 901.665,643.545 903.828,643.257 905.99,642.973 908.153,642.691 910.315,642.412 912.478,642.135 914.64,641.862 916.803,641.591 918.966,641.322 921.128,641.057 923.291,640.794 925.453,640.534 927.616,640.276 929.778,640.021 931.941,639.768 934.104,639.518 936.266,639.27 938.429,639.025 940.591,638.782 942.754,638.542 944.917,638.304 947.079,638.068 949.242,637.835 951.404,637.604 953.567,637.376 955.729,637.15 957.892,636.926 960.055,636.704 962.217,636.484 964.38,636.267 966.542,636.052 968.705,635.839 970.867,635.628 973.03,635.419 975.193,635.212 977.355,635.008 979.518,634.805 981.68,634.605 983.843,634.406 986.006,634.21 988.168,634.015 990.331,633.823 992.493,633.632 994.656,633.443 996.818,633.257 998.981,633.072 1001.14,632.889 1003.31,632.707 1005.47,632.528 1007.63,632.35 1009.79,632.174 1011.96,632 1014.12,631.828 1016.28,631.657 1018.44,631.488 1020.61,631.321 1022.77,631.156 1024.93,630.992 1027.09,630.83 1029.26,630.669 1031.42,630.51 1033.58,630.352 1035.74,630.197 1037.91,630.042 1040.07,629.889 1042.23,629.738 1044.4,629.589 1046.56,629.44 1048.72,629.293 1050.88,629.148 1053.05,629.004 1055.21,628.862 1057.37,628.721 1059.53,628.581 1061.7,628.443 1063.86,628.306 1066.02,628.17 1068.18,628.036 1070.35,627.903 1072.51,627.772 1074.67,627.641 1076.83,627.512 1079,627.385 1081.16,627.258 1083.32,627.133 1085.48,627.009 1087.65,626.886 1089.81,626.764 1091.97,626.644 1094.13,626.525 1096.3,626.407 1098.46,626.29 1100.62,626.174 1102.78,626.059 1104.95,625.946 1107.11,625.833 1109.27,625.722 1111.44,625.612 1113.6,625.503 1115.76,625.395 1117.92,625.288 1120.09,625.182 1122.25,625.077 1124.41,624.973 1126.57,624.87 1128.74,624.769 1130.9,624.668 1133.06,624.568 1135.22,624.469 1137.39,624.372 1139.55,624.275 1141.71,624.179 1143.87,624.084 1146.04,623.99 1148.2,623.898 1150.36,623.806 1152.52,623.714 1154.69,623.624 1156.85,623.535 1159.01,623.447 1161.17,623.359 1163.34,623.273 1165.5,623.187 1167.66,623.102 1169.82,623.018 1171.99,622.935 1174.15,622.853 1176.31,622.771 1178.48,622.69 1180.64,622.611 1182.8,622.532 1184.96,622.453 1187.13,622.376 1189.29,622.299 1191.45,622.223 1193.61,622.148 1195.78,622.074 1197.94,622 1200.1,621.928 1202.26,621.856 1204.43,621.784 1206.59,621.713 1208.75,621.644 1210.91,621.574 1213.08,621.506 1215.24,621.438 1217.4,621.371 1219.56,621.304 1221.73,621.239 1223.89,621.173 1226.05,621.109 1228.21,621.045 1230.38,620.982 1232.54,620.919 1234.7,620.857 1236.86,620.796 1239.03,620.735 1241.19,620.675 1243.35,620.616 1245.52,620.557 1247.68,620.499 1249.84,620.441 1252,620.384 1254.17,620.327 1256.33,620.271 1258.49,620.216 1260.65,620.161 1262.82,620.106 1264.98,620.053 1267.14,619.999 1269.3,619.947 1271.47,619.894 1273.63,619.843 1275.79,619.791 1277.95,619.741 1280.12,619.69 1282.28,619.641 1284.44,619.591 1286.6,619.542 1288.77,619.494 1290.93,619.446 1293.09,619.399 1295.25,619.352 1297.42,619.305 1299.58,619.259 1301.74,619.214 1303.9,619.168 1306.07,619.124 1308.23,619.079 1310.39,619.035 1312.56,618.992 1314.72,618.949 1316.88,618.906 1319.04,618.864 1321.21,618.822 1323.37,618.781 1325.53,618.74 1327.69,618.699 1329.86,618.659 1332.02,618.619 1334.18,618.58 1336.34,618.541 1338.51,618.502 1340.67,618.464 1342.83,618.426 1344.99,618.388 1347.16,618.351 1349.32,618.315 1351.48,618.278 1353.64,618.242 1355.81,618.206 1357.97,618.171 1360.13,618.136 1362.29,618.102 1364.46,618.067 1366.62,618.033 1368.78,618 1370.94,617.967 1373.11,617.934 1375.27,617.901 1377.43,617.869 1379.6,617.837 1381.76,617.805 1383.92,617.774 1386.08,617.743 1388.25,617.712 1390.41,617.682 1392.57,617.652 1394.73,617.622 1396.9,617.593 1399.06,617.564 1401.22,617.535 1403.38,617.507 1405.55,617.478 1407.71,617.45 1409.87,617.423 1412.03,617.395 1414.2,617.368 1416.36,617.342 1418.52,617.315 1420.68,617.289 1422.85,617.263 1425.01,617.237 1427.17,617.212 1429.33,617.187 1431.5,617.162 1433.66,617.137 1435.82,617.113 1437.98,617.088 1440.15,617.065 1442.31,617.041 1444.47,617.017 1446.64,616.994 1448.8,616.971 1450.96,616.949 1453.12,616.926 1455.29,616.904 1457.45,616.882 1459.61,616.86 1461.77,616.839 1463.94,616.817 1466.1,616.796 1468.26,616.775 1470.42,616.754 1472.59,616.734 1474.75,616.714 1476.91,616.694 1479.07,616.674 1481.24,616.654 1483.4,616.635 1485.56,616.615 1487.72,616.596 1489.89,616.577 1492.05,616.559 1494.21,616.54 1496.37,616.522 1498.54,616.504 1500.7,616.486 1502.86,616.468 1505.02,616.45 1507.19,616.433 1509.35,616.416 1511.51,616.398 1513.67,616.382 1515.84,616.365 1518,616.348 1520.16,616.332 1522.33,616.315 1524.49,616.299 1526.65,616.283 1528.81,616.267 1530.98,616.252 1533.14,616.236 1535.3,616.221 1537.46,616.205 1539.63,616.19 1541.79,616.175 1543.95,616.16 1546.11,616.146 1548.28,616.131 1550.44,616.117 1552.6,616.102 1554.76,616.088 1556.93,616.074 1559.09,616.06 1561.25,616.046 1563.41,616.033 1565.58,616.019 1567.74,616.006 1569.9,615.992 1572.06,615.979 1574.23,615.966 1576.39,615.953 1578.55,615.94 1580.71,615.928 1582.88,615.915 1585.04,615.903 1587.2,615.891 1589.37,615.878 1591.53,615.866 1593.69,615.854 1595.85,615.842 1598.02,615.831 1600.18,615.819 1602.34,615.808 1604.5,615.796 1606.67,615.785 1608.83,615.774 1610.99,615.763 1613.15,615.752 1615.32,615.741 1617.48,615.73 1619.64,615.72 1621.8,615.709 1623.97,615.699 1626.13,615.689 1628.29,615.678 1630.45,615.668 1632.62,615.658 1634.78,615.649 1636.94,615.639 1639.1,615.629 1641.27,615.62 1643.43,615.61 1645.59,615.601 1647.75,615.591 1649.92,615.582 1652.08,615.573 1654.24,615.564 1656.41,615.555 1658.57,615.547 1660.73,615.538 1662.89,615.529 1665.06,615.521 1667.22,615.512 1669.38,615.504 1671.54,615.496 1673.71,615.487 1675.87,615.479 1678.03,615.471 1680.19,615.463 1682.36,615.456 1684.52,615.448 1686.68,615.44 1688.84,615.433 1691.01,615.425 1693.17,615.418 1695.33,615.41 1697.49,615.403 1699.66,615.396 1701.82,615.389 1703.98,615.382 1706.14,615.375 1708.31,615.368 1710.47,615.361 1712.63,615.354 1714.79,615.348 1716.96,615.341 1719.12,615.335 1721.28,615.328 1723.45,615.322 1725.61,615.316 1727.77,615.309 1729.93,615.303 1732.1,615.297 1734.26,615.291 1736.42,615.285 1738.58,615.279 1740.75,615.273 1742.91,615.267 1745.07,615.262 1747.23,615.256 1749.4,615.25 1751.56,615.245 1753.72,615.239 1755.88,615.234 1758.05,615.229 1760.21,615.223 1762.37,615.218 1764.53,615.213 1766.7,615.208 1768.86,615.202 1771.02,615.197 1773.18,615.192 1775.35,615.187 1777.51,615.183 1779.67,615.178 1781.83,615.173 1784,615.168 1786.16,615.163 1788.32,615.159 1790.49,615.154 1792.65,615.149 1794.81,615.145 1796.97,615.14 1799.14,615.136 1801.3,615.132 1803.46,615.127 1805.62,615.123 1807.79,615.119 1809.95,615.114 1812.11,615.11 1814.27,615.106 1816.44,615.102 1818.6,615.098 1820.76,615.094 1822.92,615.09 1825.09,615.086 1827.25,615.082 1829.41,615.078 1831.57,615.074 1833.74,615.07 1835.9,615.066 1838.06,615.062 1840.22,615.058 1842.39,615.055 1844.55,615.051 1846.71,615.047 1848.87,615.043 1851.04,615.04 1853.2,615.036 1855.36,615.033 1857.53,615.029 1859.69,615.025 1861.85,615.022 1864.01,615.019 1866.18,615.015 1868.34,615.012 1870.5,615.008 1872.66,615.005 1874.83,615.002 1876.99,614.998 1879.15,614.995 1881.31,614.992 1883.48,614.989 1885.64,614.986 1887.8,614.983 1889.96,614.979 1892.13,614.976 1894.29,614.973 1896.45,614.97 1898.61,614.967 1900.78,614.964 1902.94,614.962 1905.1,614.959 1907.26,614.956 1909.43,614.953 1911.59,614.95 1913.75,614.947 1915.91,614.945 1918.08,614.942 1920.24,614.939 1922.4,614.937 1924.57,614.934 1926.73,614.931 1928.89,614.929 1931.05,614.926 1933.22,614.924 1935.38,614.921 1937.54,614.919 1939.7,614.916 1941.87,614.914 1944.03,614.911 1946.19,614.909 1948.35,614.907 1950.52,614.904 1952.68,614.902 1954.84,614.9 1957,614.898 1959.17,614.895 1961.33,614.893 1963.49,614.891 1965.65,614.889 1967.82,614.887 1969.98,614.885 1972.14,614.882 1974.3,614.88 1976.47,614.878 1978.63,614.876 1980.79,614.874 1982.95,614.872 1985.12,614.87 1987.28,614.868 1989.44,614.867 1991.61,614.865 1993.77,614.863 1995.93,614.861 1998.09,614.859 2000.26,614.857 2002.42,614.856 2004.58,614.854 2006.74,614.852 2008.91,614.85 2011.07,614.849 2013.23,614.847 2015.39,614.845 2017.56,614.844 2019.72,614.842 2021.88,614.84 2024.04,614.839 2026.21,614.837 2028.37,614.836 2030.53,614.834 2032.69,614.833 2034.86,614.831 2037.02,614.83 2039.18,614.828 2041.34,614.827 2043.51,614.826 2045.67,614.824 2047.83,614.823 2049.99,614.821 2052.16,614.82 2054.32,614.819 2056.48,614.817 2058.65,614.816 2060.81,614.815 2062.97,614.813 2065.13,614.812 2067.3,614.811 2069.46,614.81 2071.62,614.808 2073.78,614.807 2075.95,614.806 2078.11,614.805 2080.27,614.804 2082.43,614.803 2084.6,614.801 2086.76,614.8 2088.92,614.799 2091.08,614.798 2093.25,614.797 2095.41,614.796 2097.57,614.795 2099.73,614.794 2101.9,614.793 2104.06,614.792 2106.22,614.791 2108.38,614.79 2110.55,614.789 2112.71,614.788 2114.87,614.787 2117.03,614.786 2119.2,614.785 2121.36,614.784 2123.52,614.783 2125.69,614.782 2127.85,614.781 2130.01,614.78 2132.17,614.779 2134.34,614.778 2136.5,614.777 2138.66,614.777 2140.82,614.776 2142.99,614.775 2145.15,614.774 2147.31,614.773 2149.47,614.772 2151.64,614.771 2153.8,614.77 2155.96,614.77 2158.12,614.769 2160.29,614.768 2162.45,614.767 2164.61,614.766 2166.77,614.765 2168.94,614.765 2171.1,614.764 2173.26,614.763 2175.42,614.762 2177.59,614.761 2179.75,614.761 2181.91,614.76 2184.07,614.759 2186.24,614.758 2188.4,614.757 2190.56,614.757 2192.73,614.756 2194.89,614.755 2197.05,614.754 2199.21,614.754 2201.38,614.753 2203.54,614.752 2205.7,614.752 2207.86,614.751 2210.03,614.75 2212.19,614.749 2214.35,614.749 2216.51,614.748 2218.68,614.747 2220.84,614.747 2223,614.746 2225.16,614.745 2227.33,614.745 2229.49,614.744 2231.65,614.743 2233.81,614.743 2235.98,614.742 2238.14,614.742 2240.3,614.741 2242.46,614.74 2244.63,614.74 2246.79,614.739 2248.95,614.739 2251.11,614.738 2253.28,614.737 2255.44,614.737 2257.6,614.736 2259.76,614.736 2261.93,614.735 2264.09,614.735 2266.25,614.734 2268.42,614.734 2270.58,614.733 2272.74,614.733 2274.9,614.732 2277.07,614.731 2279.23,614.731 2281.39,614.73 2283.55,614.73 2285.72,614.729 2287.88,614.729 2290.04,614.729 2292.2,614.728 2294.37,614.728 2296.53,614.727 2298.69,614.727 2300.85,614.726 2303.02,614.726 2305.18,614.725 2307.34,614.725 2309.5,614.724 2311.67,614.724 2313.83,614.723 2315.99,614.723 2318.15,614.723 2320.32,614.722 2322.48,614.722 2324.64,614.721 2326.8,614.721 2328.97,614.721 2331.13,614.72 2333.29,614.72 2335.46,614.719 2337.62,614.719 2339.78,614.719 2341.94,614.718 2344.11,614.718 2346.27,614.717 2348.43,614.717 2350.59,614.717 2352.76,614.716 "/>
<polyline clip-path="url(#clip562)" style="stroke:#e26f46; stroke-linecap:round; stroke-linejoin:round; stroke-width:4; stroke-opacity:1; fill:none" points="192.339,86.1857 194.501,90.1229 196.664,94.0288 198.827,97.9037 200.989,101.748 203.152,105.562 205.314,109.345 207.477,113.098 209.639,116.822 211.802,120.516 213.965,124.182 216.127,127.818 218.29,131.425 220.452,135.004 222.615,138.554 224.777,142.077 226.94,145.572 229.103,149.039 231.265,152.479 233.428,155.892 235.59,159.278 237.753,162.637 239.916,165.97 242.078,169.277 244.241,172.557 246.403,175.812 248.566,179.042 250.728,182.246 252.891,185.425 255.054,188.579 257.216,191.708 259.379,194.813 261.541,197.894 263.704,200.951 265.866,203.983 268.029,206.992 270.192,209.978 272.354,212.94 274.517,215.879 276.679,218.795 278.842,221.688 281.005,224.559 283.167,227.408 285.33,230.234 287.492,233.039 289.655,235.821 291.817,238.582 293.98,241.322 296.143,244.04 298.305,246.737 300.468,249.414 302.63,252.069 304.793,254.704 306.956,257.319 309.118,259.913 311.281,262.487 313.443,265.042 315.606,267.576 317.768,270.091 319.931,272.587 322.094,275.064 324.256,277.521 326.419,279.959 328.581,282.379 330.744,284.78 332.906,287.163 335.069,289.527 337.232,291.873 339.394,294.201 341.557,296.511 343.719,298.804 345.882,301.079 348.045,303.336 350.207,305.576 352.37,307.799 354.532,310.005 356.695,312.194 358.857,314.366 361.02,316.522 363.183,318.661 365.345,320.784 367.508,322.891 369.67,324.981 371.833,327.056 373.995,329.115 376.158,331.158 378.321,333.186 380.483,335.198 382.646,337.195 384.808,339.177 386.971,341.143 389.134,343.095 391.296,345.032 393.459,346.954 395.621,348.862 397.784,350.755 399.946,352.634 402.109,354.499 404.272,356.349 406.434,358.186 408.597,360.008 410.759,361.817 412.922,363.612 415.084,365.394 417.247,367.162 419.41,368.917 421.572,370.659 423.735,372.388 425.897,374.103 428.06,375.806 430.223,377.496 432.385,379.173 434.548,380.838 436.71,382.49 438.873,384.129 441.035,385.757 443.198,387.372 445.361,388.975 447.523,390.566 449.686,392.145 451.848,393.712 454.011,395.268 456.174,396.812 458.336,398.344 460.499,399.865 462.661,401.375 464.824,402.873 466.986,404.36 469.149,405.836 471.312,407.301 473.474,408.755 475.637,410.199 477.799,411.631 479.962,413.053 482.124,414.465 484.287,415.865 486.45,417.256 488.612,418.636 490.775,420.006 492.937,421.366 495.1,422.716 497.263,424.055 499.425,425.385 501.588,426.705 503.75,428.015 505.913,429.316 508.075,430.607 510.238,431.888 512.401,433.16 514.563,434.423 516.726,435.676 518.888,436.92 521.051,438.155 523.213,439.381 525.376,440.598 527.539,441.805 529.701,443.004 531.864,444.195 534.026,445.376 536.189,446.549 538.352,447.713 540.514,448.868 542.677,450.015 544.839,451.154 547.002,452.284 549.164,453.406 551.327,454.52 553.49,455.626 555.652,456.723 557.815,457.813 559.977,458.895 562.14,459.968 564.302,461.034 566.465,462.092 568.628,463.143 570.79,464.185 572.953,465.221 575.115,466.248 577.278,467.268 579.441,468.281 581.603,469.286 583.766,470.284 585.928,471.275 588.091,472.259 590.253,473.235 592.416,474.205 594.579,475.167 596.741,476.122 598.904,477.071 601.066,478.013 603.229,478.947 605.392,479.876 607.554,480.797 609.717,481.712 611.879,482.62 614.042,483.521 616.204,484.416 618.367,485.305 620.53,486.187 622.692,487.063 624.855,487.933 627.017,488.796 629.18,489.653 631.342,490.504 633.505,491.349 635.668,492.188 637.83,493.021 639.993,493.848 642.155,494.669 644.318,495.484 646.481,496.293 648.643,497.096 650.806,497.894 652.968,498.686 655.131,499.472 657.293,500.253 659.456,501.028 661.619,501.797 663.781,502.561 665.944,503.32 668.106,504.073 670.269,504.82 672.431,505.563 674.594,506.3 676.757,507.032 678.919,507.758 681.082,508.48 683.244,509.196 685.407,509.907 687.57,510.614 689.732,511.315 691.895,512.011 694.057,512.702 696.22,513.389 698.382,514.07 700.545,514.747 702.708,515.419 704.87,516.086 707.033,516.748 709.195,517.406 711.358,518.059 713.52,518.707 715.683,519.351 717.846,519.99 720.008,520.625 722.171,521.255 724.333,521.881 726.496,522.503 728.659,523.12 730.821,523.733 732.984,524.341 735.146,524.945 737.309,525.545 739.471,526.141 741.634,526.733 743.797,527.32 745.959,527.903 748.122,528.483 750.284,529.058 752.447,529.629 754.61,530.196 756.772,530.759 758.935,531.318 761.097,531.874 763.26,532.425 765.422,532.973 767.585,533.517 769.748,534.057 771.91,534.593 774.073,535.125 776.235,535.654 778.398,536.179 780.56,536.701 782.723,537.218 784.886,537.732 787.048,538.243 789.211,538.75 791.373,539.254 793.536,539.754 795.699,540.25 797.861,540.743 800.024,541.233 802.186,541.719 804.349,542.202 806.511,542.681 808.674,543.157 810.837,543.63 812.999,544.1 815.162,544.566 817.324,545.029 819.487,545.489 821.649,545.946 823.812,546.399 825.975,546.85 828.137,547.297 830.3,547.741 832.462,548.182 834.625,548.62 836.788,549.055 838.95,549.487 841.113,549.916 843.275,550.343 845.438,550.766 847.6,551.186 849.763,551.603 851.926,552.018 854.088,552.429 856.251,552.838 858.413,553.244 860.576,553.647 862.738,554.048 864.901,554.446 867.064,554.84 869.226,555.233 871.389,555.622 873.551,556.009 875.714,556.393 877.877,556.775 880.039,557.154 882.202,557.531 884.364,557.904 886.527,558.276 888.689,558.645 890.852,559.011 893.015,559.375 895.177,559.736 897.34,560.095 899.502,560.451 901.665,560.805 903.828,561.157 905.99,561.506 908.153,561.853 910.315,562.197 912.478,562.539 914.64,562.879 916.803,563.217 918.966,563.552 921.128,563.885 923.291,564.216 925.453,564.544 927.616,564.871 929.778,565.195 931.941,565.516 934.104,565.836 936.266,566.154 938.429,566.469 940.591,566.782 942.754,567.093 944.917,567.402 947.079,567.709 949.242,568.014 951.404,568.317 953.567,568.617 955.729,568.916 957.892,569.213 960.055,569.507 962.217,569.8 964.38,570.091 966.542,570.38 968.705,570.666 970.867,570.951 973.03,571.234 975.193,571.515 977.355,571.794 979.518,572.071 981.68,572.347 983.843,572.62 986.006,572.892 988.168,573.162 990.331,573.43 992.493,573.696 994.656,573.96 996.818,574.223 998.981,574.484 1001.14,574.743 1003.31,575 1005.47,575.256 1007.63,575.51 1009.79,575.762 1011.96,576.013 1014.12,576.262 1016.28,576.509 1018.44,576.754 1020.61,576.998 1022.77,577.241 1024.93,577.481 1027.09,577.72 1029.26,577.958 1031.42,578.194 1033.58,578.428 1035.74,578.661 1037.91,578.892 1040.07,579.122 1042.23,579.35 1044.4,579.576 1046.56,579.801 1048.72,580.025 1050.88,580.247 1053.05,580.468 1055.21,580.687 1057.37,580.905 1059.53,581.121 1061.7,581.336 1063.86,581.549 1066.02,581.761 1068.18,581.972 1070.35,582.181 1072.51,582.389 1074.67,582.595 1076.83,582.8 1079,583.004 1081.16,583.207 1083.32,583.408 1085.48,583.607 1087.65,583.806 1089.81,584.003 1091.97,584.199 1094.13,584.394 1096.3,584.587 1098.46,584.779 1100.62,584.97 1102.78,585.159 1104.95,585.347 1107.11,585.534 1109.27,585.72 1111.44,585.905 1113.6,586.088 1115.76,586.27 1117.92,586.451 1120.09,586.631 1122.25,586.81 1124.41,586.987 1126.57,587.163 1128.74,587.338 1130.9,587.512 1133.06,587.685 1135.22,587.857 1137.39,588.027 1139.55,588.197 1141.71,588.365 1143.87,588.532 1146.04,588.698 1148.2,588.863 1150.36,589.027 1152.52,589.19 1154.69,589.352 1156.85,589.513 1159.01,589.672 1161.17,589.831 1163.34,589.988 1165.5,590.145 1167.66,590.3 1169.82,590.455 1171.99,590.608 1174.15,590.761 1176.31,590.912 1178.48,591.063 1180.64,591.212 1182.8,591.361 1184.96,591.508 1187.13,591.655 1189.29,591.8 1191.45,591.945 1193.61,592.089 1195.78,592.231 1197.94,592.373 1200.1,592.514 1202.26,592.654 1204.43,592.793 1206.59,592.931 1208.75,593.069 1210.91,593.205 1213.08,593.34 1215.24,593.475 1217.4,593.609 1219.56,593.742 1221.73,593.874 1223.89,594.005 1226.05,594.135 1228.21,594.264 1230.38,594.393 1232.54,594.521 1234.7,594.647 1236.86,594.774 1239.03,594.899 1241.19,595.023 1243.35,595.147 1245.52,595.27 1247.68,595.392 1249.84,595.513 1252,595.634 1254.17,595.753 1256.33,595.872 1258.49,595.99 1260.65,596.108 1262.82,596.224 1264.98,596.34 1267.14,596.455 1269.3,596.57 1271.47,596.683 1273.63,596.796 1275.79,596.909 1277.95,597.02 1280.12,597.131 1282.28,597.241 1284.44,597.35 1286.6,597.459 1288.77,597.567 1290.93,597.674 1293.09,597.781 1295.25,597.887 1297.42,597.992 1299.58,598.097 1301.74,598.2 1303.9,598.304 1306.07,598.406 1308.23,598.508 1310.39,598.61 1312.56,598.71 1314.72,598.81 1316.88,598.91 1319.04,599.008 1321.21,599.106 1323.37,599.204 1325.53,599.301 1327.69,599.397 1329.86,599.493 1332.02,599.588 1334.18,599.682 1336.34,599.776 1338.51,599.869 1340.67,599.962 1342.83,600.054 1344.99,600.145 1347.16,600.236 1349.32,600.326 1351.48,600.416 1353.64,600.505 1355.81,600.594 1357.97,600.682 1360.13,600.769 1362.29,600.856 1364.46,600.942 1366.62,601.028 1368.78,601.113 1370.94,601.198 1373.11,601.282 1375.27,601.365 1377.43,601.448 1379.6,601.531 1381.76,601.613 1383.92,601.694 1386.08,601.775 1388.25,601.856 1390.41,601.935 1392.57,602.015 1394.73,602.094 1396.9,602.172 1399.06,602.25 1401.22,602.327 1403.38,602.404 1405.55,602.48 1407.71,602.556 1409.87,602.632 1412.03,602.707 1414.2,602.781 1416.36,602.855 1418.52,602.929 1420.68,603.002 1422.85,603.074 1425.01,603.146 1427.17,603.218 1429.33,603.289 1431.5,603.36 1433.66,603.43 1435.82,603.5 1437.98,603.569 1440.15,603.638 1442.31,603.706 1444.47,603.775 1446.64,603.842 1448.8,603.909 1450.96,603.976 1453.12,604.042 1455.29,604.108 1457.45,604.174 1459.61,604.239 1461.77,604.303 1463.94,604.368 1466.1,604.432 1468.26,604.495 1470.42,604.558 1472.59,604.621 1474.75,604.683 1476.91,604.745 1479.07,604.806 1481.24,604.867 1483.4,604.928 1485.56,604.988 1487.72,605.048 1489.89,605.108 1492.05,605.167 1494.21,605.225 1496.37,605.284 1498.54,605.342 1500.7,605.4 1502.86,605.457 1505.02,605.514 1507.19,605.57 1509.35,605.627 1511.51,605.683 1513.67,605.738 1515.84,605.793 1518,605.848 1520.16,605.903 1522.33,605.957 1524.49,606.011 1526.65,606.064 1528.81,606.117 1530.98,606.17 1533.14,606.223 1535.3,606.275 1537.46,606.327 1539.63,606.378 1541.79,606.429 1543.95,606.48 1546.11,606.531 1548.28,606.581 1550.44,606.631 1552.6,606.681 1554.76,606.73 1556.93,606.779 1559.09,606.828 1561.25,606.876 1563.41,606.924 1565.58,606.972 1567.74,607.02 1569.9,607.067 1572.06,607.114 1574.23,607.161 1576.39,607.207 1578.55,607.253 1580.71,607.299 1582.88,607.344 1585.04,607.39 1587.2,607.435 1589.37,607.479 1591.53,607.524 1593.69,607.568 1595.85,607.612 1598.02,607.655 1600.18,607.699 1602.34,607.742 1604.5,607.784 1606.67,607.827 1608.83,607.869 1610.99,607.911 1613.15,607.953 1615.32,607.994 1617.48,608.035 1619.64,608.076 1621.8,608.117 1623.97,608.157 1626.13,608.197 1628.29,608.237 1630.45,608.277 1632.62,608.316 1634.78,608.355 1636.94,608.394 1639.1,608.433 1641.27,608.471 1643.43,608.51 1645.59,608.548 1647.75,608.585 1649.92,608.623 1652.08,608.66 1654.24,608.697 1656.41,608.734 1658.57,608.77 1660.73,608.806 1662.89,608.843 1665.06,608.878 1667.22,608.914 1669.38,608.949 1671.54,608.985 1673.71,609.02 1675.87,609.054 1678.03,609.089 1680.19,609.123 1682.36,609.157 1684.52,609.191 1686.68,609.225 1688.84,609.258 1691.01,609.291 1693.17,609.324 1695.33,609.357 1697.49,609.39 1699.66,609.422 1701.82,609.454 1703.98,609.486 1706.14,609.518 1708.31,609.55 1710.47,609.581 1712.63,609.612 1714.79,609.643 1716.96,609.674 1719.12,609.705 1721.28,609.735 1723.45,609.765 1725.61,609.795 1727.77,609.825 1729.93,609.855 1732.1,609.884 1734.26,609.914 1736.42,609.943 1738.58,609.972 1740.75,610 1742.91,610.029 1745.07,610.057 1747.23,610.085 1749.4,610.113 1751.56,610.141 1753.72,610.169 1755.88,610.197 1758.05,610.224 1760.21,610.251 1762.37,610.278 1764.53,610.305 1766.7,610.332 1768.86,610.358 1771.02,610.384 1773.18,610.411 1775.35,610.437 1777.51,610.462 1779.67,610.488 1781.83,610.514 1784,610.539 1786.16,610.564 1788.32,610.589 1790.49,610.614 1792.65,610.639 1794.81,610.664 1796.97,610.688 1799.14,610.712 1801.3,610.737 1803.46,610.761 1805.62,610.784 1807.79,610.808 1809.95,610.832 1812.11,610.855 1814.27,610.878 1816.44,610.902 1818.6,610.925 1820.76,610.947 1822.92,610.97 1825.09,610.993 1827.25,611.015 1829.41,611.038 1831.57,611.06 1833.74,611.082 1835.9,611.104 1838.06,611.126 1840.22,611.147 1842.39,611.169 1844.55,611.19 1846.71,611.212 1848.87,611.233 1851.04,611.254 1853.2,611.275 1855.36,611.295 1857.53,611.316 1859.69,611.337 1861.85,611.357 1864.01,611.377 1866.18,611.397 1868.34,611.417 1870.5,611.437 1872.66,611.457 1874.83,611.477 1876.99,611.496 1879.15,611.516 1881.31,611.535 1883.48,611.554 1885.64,611.573 1887.8,611.592 1889.96,611.611 1892.13,611.63 1894.29,611.649 1896.45,611.667 1898.61,611.685 1900.78,611.704 1902.94,611.722 1905.1,611.74 1907.26,611.758 1909.43,611.776 1911.59,611.793 1913.75,611.811 1915.91,611.829 1918.08,611.846 1920.24,611.863 1922.4,611.88 1924.57,611.897 1926.73,611.914 1928.89,611.931 1931.05,611.948 1933.22,611.965 1935.38,611.981 1937.54,611.998 1939.7,612.014 1941.87,612.03 1944.03,612.046 1946.19,612.063 1948.35,612.078 1950.52,612.094 1952.68,612.11 1954.84,612.126 1957,612.141 1959.17,612.157 1961.33,612.172 1963.49,612.187 1965.65,612.203 1967.82,612.218 1969.98,612.233 1972.14,612.248 1974.3,612.262 1976.47,612.277 1978.63,612.292 1980.79,612.306 1982.95,612.321 1985.12,612.335 1987.28,612.349 1989.44,612.363 1991.61,612.377 1993.77,612.391 1995.93,612.405 1998.09,612.419 2000.26,612.433 2002.42,612.446 2004.58,612.46 2006.74,612.473 2008.91,612.487 2011.07,612.5 2013.23,612.513 2015.39,612.527 2017.56,612.54 2019.72,612.553 2021.88,612.565 2024.04,612.578 2026.21,612.591 2028.37,612.604 2030.53,612.616 2032.69,612.629 2034.86,612.641 2037.02,612.653 2039.18,612.666 2041.34,612.678 2043.51,612.69 2045.67,612.702 2047.83,612.714 2049.99,612.726 2052.16,612.738 2054.32,612.749 2056.48,612.761 2058.65,612.773 2060.81,612.784 2062.97,612.796 2065.13,612.807 2067.3,612.818 2069.46,612.83 2071.62,612.841 2073.78,612.852 2075.95,612.863 2078.11,612.874 2080.27,612.885 2082.43,612.896 2084.6,612.906 2086.76,612.917 2088.92,612.928 2091.08,612.938 2093.25,612.949 2095.41,612.959 2097.57,612.969 2099.73,612.98 2101.9,612.99 2104.06,613 2106.22,613.01 2108.38,613.02 2110.55,613.03 2112.71,613.04 2114.87,613.05 2117.03,613.06 2119.2,613.07 2121.36,613.079 2123.52,613.089 2125.69,613.099 2127.85,613.108 2130.01,613.118 2132.17,613.127 2134.34,613.136 2136.5,613.146 2138.66,613.155 2140.82,613.164 2142.99,613.173 2145.15,613.182 2147.31,613.191 2149.47,613.2 2151.64,613.209 2153.8,613.218 2155.96,613.227 2158.12,613.236 2160.29,613.244 2162.45,613.253 2164.61,613.262 2166.77,613.27 2168.94,613.279 2171.1,613.287 2173.26,613.296 2175.42,613.304 2177.59,613.312 2179.75,613.321 2181.91,613.329 2184.07,613.337 2186.24,613.345 2188.4,613.353 2190.56,613.361 2192.73,613.369 2194.89,613.377 2197.05,613.385 2199.21,613.393 2201.38,613.401 2203.54,613.408 2205.7,613.416 2207.86,613.424 2210.03,613.431 2212.19,613.439 2214.35,613.446 2216.51,613.454 2218.68,613.461 2220.84,613.469 2223,613.476 2225.16,613.483 2227.33,613.49 2229.49,613.498 2231.65,613.505 2233.81,613.512 2235.98,613.519 2238.14,613.526 2240.3,613.533 2242.46,613.54 2244.63,613.547 2246.79,613.554 2248.95,613.56 2251.11,613.567 2253.28,613.574 2255.44,613.581 2257.6,613.587 2259.76,613.594 2261.93,613.6 2264.09,613.607 2266.25,613.613 2268.42,613.62 2270.58,613.626 2272.74,613.633 2274.9,613.639 2277.07,613.645 2279.23,613.651 2281.39,613.658 2283.55,613.664 2285.72,613.67 2287.88,613.676 2290.04,613.682 2292.2,613.688 2294.37,613.694 2296.53,613.7 2298.69,613.706 2300.85,613.712 2303.02,613.718 2305.18,613.724 2307.34,613.729 2309.5,613.735 2311.67,613.741 2313.83,613.746 2315.99,613.752 2318.15,613.758 2320.32,613.763 2322.48,613.769 2324.64,613.774 2326.8,613.78 2328.97,613.785 2331.13,613.791 2333.29,613.796 2335.46,613.801 2337.62,613.807 2339.78,613.812 2341.94,613.817 2344.11,613.822 2346.27,613.827 2348.43,613.833 2350.59,613.838 2352.76,613.843 "/>
<path clip-path="url(#clip560)" d="M1805.3 248.629 L2280.74 248.629 L2280.74 93.1086 L1805.3 93.1086  Z" fill="#ffffff" fill-rule="evenodd" fill-opacity="1"/>
<polyline clip-path="url(#clip560)" style="stroke:#000000; stroke-linecap:round; stroke-linejoin:round; stroke-width:4; stroke-opacity:1; fill:none" points="1805.3,248.629 2280.74,248.629 2280.74,93.1086 1805.3,93.1086 1805.3,248.629 "/>
<polyline clip-path="url(#clip560)" style="stroke:#009af9; stroke-linecap:round; stroke-linejoin:round; stroke-width:4; stroke-opacity:1; fill:none" points="1829.31,144.949 1973.34,144.949 "/>
<path clip-path="url(#clip560)" d="M1997.34 136.303 L2001.85 136.303 L2009.96 158.062 L2018.06 136.303 L2022.57 136.303 L2012.85 162.229 L2007.06 162.229 L1997.34 136.303 Z" fill="#000000" fill-rule="nonzero" fill-opacity="1" /><path clip-path="url(#clip560)" d="M2029.86 158.293 L2037.5 158.293 L2037.5 131.928 L2029.19 133.595 L2029.19 129.335 L2037.46 127.669 L2042.13 127.669 L2042.13 158.293 L2049.77 158.293 L2049.77 162.229 L2029.86 162.229 L2029.86 158.293 Z" fill="#000000" fill-rule="nonzero" fill-opacity="1" /><path clip-path="url(#clip560)" d="M2067.87 145.585 L2067.87 152.807 L2076 152.807 L2076 155.006 L2067.87 155.006 L2067.87 162.229 L2065.44 162.229 L2065.44 155.006 L2057.32 155.006 L2057.32 152.807 L2065.44 152.807 L2065.44 145.585 L2067.87 145.585 Z" fill="#000000" fill-rule="nonzero" fill-opacity="1" /><path clip-path="url(#clip560)" d="M2100.16 137.067 L2100.16 141.094 Q2098.36 140.169 2096.41 139.706 Q2094.47 139.243 2092.39 139.243 Q2089.22 139.243 2087.62 140.215 Q2086.04 141.187 2086.04 143.131 Q2086.04 144.613 2087.18 145.469 Q2088.31 146.303 2091.74 147.067 L2093.2 147.391 Q2097.73 148.363 2099.63 150.145 Q2101.55 151.905 2101.55 155.076 Q2101.55 158.687 2098.68 160.793 Q2095.84 162.9 2090.84 162.9 Q2088.75 162.9 2086.48 162.483 Q2084.24 162.09 2081.74 161.28 L2081.74 156.881 Q2084.1 158.108 2086.39 158.733 Q2088.68 159.335 2090.93 159.335 Q2093.94 159.335 2095.56 158.317 Q2097.18 157.275 2097.18 155.4 Q2097.18 153.664 2096 152.738 Q2094.84 151.812 2090.88 150.956 L2089.4 150.608 Q2085.44 149.775 2083.68 148.062 Q2081.92 146.326 2081.92 143.317 Q2081.92 139.659 2084.52 137.669 Q2087.11 135.678 2091.88 135.678 Q2094.24 135.678 2096.32 136.025 Q2098.4 136.372 2100.16 137.067 Z" fill="#000000" fill-rule="nonzero" fill-opacity="1" /><path clip-path="url(#clip560)" d="M2112.55 128.942 L2112.55 136.303 L2121.32 136.303 L2121.32 139.613 L2112.55 139.613 L2112.55 153.687 Q2112.55 156.858 2113.4 157.761 Q2114.28 158.664 2116.95 158.664 L2121.32 158.664 L2121.32 162.229 L2116.95 162.229 Q2112.02 162.229 2110.14 160.4 Q2108.27 158.548 2108.27 153.687 L2108.27 139.613 L2105.14 139.613 L2105.14 136.303 L2108.27 136.303 L2108.27 128.942 L2112.55 128.942 Z" fill="#000000" fill-rule="nonzero" fill-opacity="1" /><path clip-path="url(#clip560)" d="M2136.97 139.289 Q2133.54 139.289 2131.55 141.974 Q2129.56 144.636 2129.56 149.289 Q2129.56 153.942 2131.53 156.627 Q2133.52 159.289 2136.97 159.289 Q2140.37 159.289 2142.36 156.604 Q2144.35 153.918 2144.35 149.289 Q2144.35 144.682 2142.36 141.997 Q2140.37 139.289 2136.97 139.289 M2136.97 135.678 Q2142.53 135.678 2145.7 139.289 Q2148.87 142.9 2148.87 149.289 Q2148.87 155.655 2145.7 159.289 Q2142.53 162.9 2136.97 162.9 Q2131.39 162.9 2128.22 159.289 Q2125.07 155.655 2125.07 149.289 Q2125.07 142.9 2128.22 139.289 Q2131.39 135.678 2136.97 135.678 Z" fill="#000000" fill-rule="nonzero" fill-opacity="1" /><path clip-path="url(#clip560)" d="M2170.95 140.284 Q2170.23 139.868 2169.38 139.682 Q2168.54 139.474 2167.52 139.474 Q2163.91 139.474 2161.97 141.835 Q2160.05 144.173 2160.05 148.571 L2160.05 162.229 L2155.77 162.229 L2155.77 136.303 L2160.05 136.303 L2160.05 140.331 Q2161.39 137.969 2163.54 136.835 Q2165.7 135.678 2168.77 135.678 Q2169.21 135.678 2169.75 135.747 Q2170.28 135.794 2170.93 135.909 L2170.95 140.284 Z" fill="#000000" fill-rule="nonzero" fill-opacity="1" /><path clip-path="url(#clip560)" d="M2187.2 149.196 Q2182.04 149.196 2180.05 150.377 Q2178.06 151.557 2178.06 154.405 Q2178.06 156.673 2179.54 158.016 Q2181.04 159.335 2183.61 159.335 Q2187.15 159.335 2189.28 156.835 Q2191.44 154.312 2191.44 150.145 L2191.44 149.196 L2187.2 149.196 M2195.7 147.437 L2195.7 162.229 L2191.44 162.229 L2191.44 158.293 Q2189.98 160.655 2187.8 161.789 Q2185.63 162.9 2182.48 162.9 Q2178.5 162.9 2176.14 160.678 Q2173.8 158.432 2173.8 154.682 Q2173.8 150.307 2176.71 148.085 Q2179.65 145.863 2185.46 145.863 L2191.44 145.863 L2191.44 145.446 Q2191.44 142.507 2189.49 140.909 Q2187.57 139.289 2184.08 139.289 Q2181.85 139.289 2179.75 139.821 Q2177.64 140.354 2175.7 141.419 L2175.7 137.483 Q2178.03 136.581 2180.23 136.141 Q2182.43 135.678 2184.52 135.678 Q2190.14 135.678 2192.92 138.594 Q2195.7 141.511 2195.7 147.437 Z" fill="#000000" fill-rule="nonzero" fill-opacity="1" /><path clip-path="url(#clip560)" d="M2221.53 148.965 Q2221.53 144.335 2219.61 141.789 Q2217.71 139.243 2214.26 139.243 Q2210.83 139.243 2208.91 141.789 Q2207.02 144.335 2207.02 148.965 Q2207.02 153.571 2208.91 156.118 Q2210.83 158.664 2214.26 158.664 Q2217.71 158.664 2219.61 156.118 Q2221.53 153.571 2221.53 148.965 M2225.79 159.011 Q2225.79 165.631 2222.85 168.849 Q2219.91 172.09 2213.84 172.09 Q2211.6 172.09 2209.61 171.742 Q2207.62 171.418 2205.74 170.724 L2205.74 166.58 Q2207.62 167.599 2209.45 168.085 Q2211.27 168.571 2213.17 168.571 Q2217.36 168.571 2219.45 166.372 Q2221.53 164.196 2221.53 159.775 L2221.53 157.668 Q2220.21 159.96 2218.15 161.094 Q2216.09 162.229 2213.22 162.229 Q2208.45 162.229 2205.53 158.594 Q2202.62 154.96 2202.62 148.965 Q2202.62 142.946 2205.53 139.312 Q2208.45 135.678 2213.22 135.678 Q2216.09 135.678 2218.15 136.812 Q2220.21 137.946 2221.53 140.238 L2221.53 136.303 L2225.79 136.303 L2225.79 159.011 Z" fill="#000000" fill-rule="nonzero" fill-opacity="1" /><path clip-path="url(#clip560)" d="M2256.74 148.201 L2256.74 150.284 L2237.15 150.284 Q2237.43 154.682 2239.79 156.997 Q2242.18 159.289 2246.41 159.289 Q2248.87 159.289 2251.16 158.687 Q2253.47 158.085 2255.74 156.881 L2255.74 160.909 Q2253.45 161.881 2251.04 162.391 Q2248.64 162.9 2246.16 162.9 Q2239.96 162.9 2236.32 159.289 Q2232.71 155.678 2232.71 149.52 Q2232.71 143.155 2236.14 139.428 Q2239.58 135.678 2245.42 135.678 Q2250.65 135.678 2253.68 139.057 Q2256.74 142.414 2256.74 148.201 M2252.48 146.951 Q2252.43 143.456 2250.51 141.372 Q2248.61 139.289 2245.46 139.289 Q2241.9 139.289 2239.75 141.303 Q2237.62 143.317 2237.29 146.974 L2252.48 146.951 Z" fill="#000000" fill-rule="nonzero" fill-opacity="1" /><polyline clip-path="url(#clip560)" style="stroke:#e26f46; stroke-linecap:round; stroke-linejoin:round; stroke-width:4; stroke-opacity:1; fill:none" points="1829.31,196.789 1973.34,196.789 "/>
<path clip-path="url(#clip560)" d="M1997.34 188.143 L2001.85 188.143 L2009.96 209.902 L2018.06 188.143 L2022.57 188.143 L2012.85 214.069 L2007.06 214.069 L1997.34 188.143 Z" fill="#000000" fill-rule="nonzero" fill-opacity="1" /><path clip-path="url(#clip560)" d="M2029.1 179.509 L2047.46 179.509 L2047.46 183.444 L2033.38 183.444 L2033.38 191.916 Q2034.4 191.569 2035.42 191.407 Q2036.44 191.222 2037.46 191.222 Q2043.24 191.222 2046.62 194.393 Q2050 197.564 2050 202.981 Q2050 208.559 2046.53 211.661 Q2043.06 214.74 2036.74 214.74 Q2034.56 214.74 2032.29 214.37 Q2030.05 213.999 2027.64 213.258 L2027.64 208.559 Q2029.72 209.694 2031.95 210.249 Q2034.17 210.805 2036.65 210.805 Q2040.65 210.805 2042.99 208.698 Q2045.33 206.592 2045.33 202.981 Q2045.33 199.37 2042.99 197.263 Q2040.65 195.157 2036.65 195.157 Q2034.77 195.157 2032.9 195.573 Q2031.04 195.99 2029.1 196.87 L2029.1 179.509 Z" fill="#000000" fill-rule="nonzero" fill-opacity="1" /><path clip-path="url(#clip560)" d="M2067.87 197.425 L2067.87 204.647 L2076 204.647 L2076 206.846 L2067.87 206.846 L2067.87 214.069 L2065.44 214.069 L2065.44 206.846 L2057.32 206.846 L2057.32 204.647 L2065.44 204.647 L2065.44 197.425 L2067.87 197.425 Z" fill="#000000" fill-rule="nonzero" fill-opacity="1" /><path clip-path="url(#clip560)" d="M2100.16 188.907 L2100.16 192.934 Q2098.36 192.009 2096.41 191.546 Q2094.47 191.083 2092.39 191.083 Q2089.22 191.083 2087.62 192.055 Q2086.04 193.027 2086.04 194.971 Q2086.04 196.453 2087.18 197.309 Q2088.31 198.143 2091.74 198.907 L2093.2 199.231 Q2097.73 200.203 2099.63 201.985 Q2101.55 203.745 2101.55 206.916 Q2101.55 210.527 2098.68 212.633 Q2095.84 214.74 2090.84 214.74 Q2088.75 214.74 2086.48 214.323 Q2084.24 213.93 2081.74 213.12 L2081.74 208.721 Q2084.1 209.948 2086.39 210.573 Q2088.68 211.175 2090.93 211.175 Q2093.94 211.175 2095.56 210.157 Q2097.18 209.115 2097.18 207.24 Q2097.18 205.504 2096 204.578 Q2094.84 203.652 2090.88 202.796 L2089.4 202.448 Q2085.44 201.615 2083.68 199.902 Q2081.92 198.166 2081.92 195.157 Q2081.92 191.499 2084.52 189.509 Q2087.11 187.518 2091.88 187.518 Q2094.24 187.518 2096.32 187.865 Q2098.4 188.212 2100.16 188.907 Z" fill="#000000" fill-rule="nonzero" fill-opacity="1" /><path clip-path="url(#clip560)" d="M2112.55 180.782 L2112.55 188.143 L2121.32 188.143 L2121.32 191.453 L2112.55 191.453 L2112.55 205.527 Q2112.55 208.698 2113.4 209.601 Q2114.28 210.504 2116.95 210.504 L2121.32 210.504 L2121.32 214.069 L2116.95 214.069 Q2112.02 214.069 2110.14 212.24 Q2108.27 210.388 2108.27 205.527 L2108.27 191.453 L2105.14 191.453 L2105.14 188.143 L2108.27 188.143 L2108.27 180.782 L2112.55 180.782 Z" fill="#000000" fill-rule="nonzero" fill-opacity="1" /><path clip-path="url(#clip560)" d="M2136.97 191.129 Q2133.54 191.129 2131.55 193.814 Q2129.56 196.476 2129.56 201.129 Q2129.56 205.782 2131.53 208.467 Q2133.52 211.129 2136.97 211.129 Q2140.37 211.129 2142.36 208.444 Q2144.35 205.758 2144.35 201.129 Q2144.35 196.522 2142.36 193.837 Q2140.37 191.129 2136.97 191.129 M2136.97 187.518 Q2142.53 187.518 2145.7 191.129 Q2148.87 194.74 2148.87 201.129 Q2148.87 207.495 2145.7 211.129 Q2142.53 214.74 2136.97 214.74 Q2131.39 214.74 2128.22 211.129 Q2125.07 207.495 2125.07 201.129 Q2125.07 194.74 2128.22 191.129 Q2131.39 187.518 2136.97 187.518 Z" fill="#000000" fill-rule="nonzero" fill-opacity="1" /><path clip-path="url(#clip560)" d="M2170.95 192.124 Q2170.23 191.708 2169.38 191.522 Q2168.54 191.314 2167.52 191.314 Q2163.91 191.314 2161.97 193.675 Q2160.05 196.013 2160.05 200.411 L2160.05 214.069 L2155.77 214.069 L2155.77 188.143 L2160.05 188.143 L2160.05 192.171 Q2161.39 189.809 2163.54 188.675 Q2165.7 187.518 2168.77 187.518 Q2169.21 187.518 2169.75 187.587 Q2170.28 187.634 2170.93 187.749 L2170.95 192.124 Z" fill="#000000" fill-rule="nonzero" fill-opacity="1" /><path clip-path="url(#clip560)" d="M2187.2 201.036 Q2182.04 201.036 2180.05 202.217 Q2178.06 203.397 2178.06 206.245 Q2178.06 208.513 2179.54 209.856 Q2181.04 211.175 2183.61 211.175 Q2187.15 211.175 2189.28 208.675 Q2191.44 206.152 2191.44 201.985 L2191.44 201.036 L2187.2 201.036 M2195.7 199.277 L2195.7 214.069 L2191.44 214.069 L2191.44 210.133 Q2189.98 212.495 2187.8 213.629 Q2185.63 214.74 2182.48 214.74 Q2178.5 214.74 2176.14 212.518 Q2173.8 210.272 2173.8 206.522 Q2173.8 202.147 2176.71 199.925 Q2179.65 197.703 2185.46 197.703 L2191.44 197.703 L2191.44 197.286 Q2191.44 194.347 2189.49 192.749 Q2187.57 191.129 2184.08 191.129 Q2181.85 191.129 2179.75 191.661 Q2177.64 192.194 2175.7 193.259 L2175.7 189.323 Q2178.03 188.421 2180.23 187.981 Q2182.43 187.518 2184.52 187.518 Q2190.14 187.518 2192.92 190.434 Q2195.7 193.351 2195.7 199.277 Z" fill="#000000" fill-rule="nonzero" fill-opacity="1" /><path clip-path="url(#clip560)" d="M2221.53 200.805 Q2221.53 196.175 2219.61 193.629 Q2217.71 191.083 2214.26 191.083 Q2210.83 191.083 2208.91 193.629 Q2207.02 196.175 2207.02 200.805 Q2207.02 205.411 2208.91 207.958 Q2210.83 210.504 2214.26 210.504 Q2217.71 210.504 2219.61 207.958 Q2221.53 205.411 2221.53 200.805 M2225.79 210.851 Q2225.79 217.471 2222.85 220.689 Q2219.91 223.93 2213.84 223.93 Q2211.6 223.93 2209.61 223.582 Q2207.62 223.258 2205.74 222.564 L2205.74 218.42 Q2207.62 219.439 2209.45 219.925 Q2211.27 220.411 2213.17 220.411 Q2217.36 220.411 2219.45 218.212 Q2221.53 216.036 2221.53 211.615 L2221.53 209.508 Q2220.21 211.8 2218.15 212.934 Q2216.09 214.069 2213.22 214.069 Q2208.45 214.069 2205.53 210.434 Q2202.62 206.8 2202.62 200.805 Q2202.62 194.786 2205.53 191.152 Q2208.45 187.518 2213.22 187.518 Q2216.09 187.518 2218.15 188.652 Q2220.21 189.786 2221.53 192.078 L2221.53 188.143 L2225.79 188.143 L2225.79 210.851 Z" fill="#000000" fill-rule="nonzero" fill-opacity="1" /><path clip-path="url(#clip560)" d="M2256.74 200.041 L2256.74 202.124 L2237.15 202.124 Q2237.43 206.522 2239.79 208.837 Q2242.18 211.129 2246.41 211.129 Q2248.87 211.129 2251.16 210.527 Q2253.47 209.925 2255.74 208.721 L2255.74 212.749 Q2253.45 213.721 2251.04 214.231 Q2248.64 214.74 2246.16 214.74 Q2239.96 214.74 2236.32 211.129 Q2232.71 207.518 2232.71 201.36 Q2232.71 194.995 2236.14 191.268 Q2239.58 187.518 2245.42 187.518 Q2250.65 187.518 2253.68 190.897 Q2256.74 194.254 2256.74 200.041 M2252.48 198.791 Q2252.43 195.296 2250.51 193.212 Q2248.61 191.129 2245.46 191.129 Q2241.9 191.129 2239.75 193.143 Q2237.62 195.157 2237.29 198.814 L2252.48 198.791 Z" fill="#000000" fill-rule="nonzero" fill-opacity="1" /></svg>
