<?xml version="1.0" encoding="utf-8"?>
<svg xmlns="http://www.w3.org/2000/svg" xmlns:xlink="http://www.w3.org/1999/xlink" width="600" height="400" viewBox="0 0 2400 1600">
<defs>
  <clipPath id="clip090">
    <rect x="0" y="0" width="2400" height="1600"/>
  </clipPath>
</defs>
<path clip-path="url(#clip090)" d="M0 1600 L2400 1600 L2400 0 L0 0  Z" fill="#ffffff" fill-rule="evenodd" fill-opacity="1"/>
<defs>
  <clipPath id="clip091">
    <rect x="480" y="0" width="1681" height="1600"/>
  </clipPath>
</defs>
<path clip-path="url(#clip090)" d="M224.098 1423.18 L2352.76 1423.18 L2352.76 47.2441 L224.098 47.2441  Z" fill="#ffffff" fill-rule="evenodd" fill-opacity="1"/>
<defs>
  <clipPath id="clip092">
    <rect x="224" y="47" width="2130" height="1377"/>
  </clipPath>
</defs>
<polyline clip-path="url(#clip092)" style="stroke:#000000; stroke-linecap:round; stroke-linejoin:round; stroke-width:2; stroke-opacity:0.1; fill:none" points="224.098,1423.18 224.098,47.2441 "/>
<polyline clip-path="url(#clip092)" style="stroke:#000000; stroke-linecap:round; stroke-linejoin:round; stroke-width:2; stroke-opacity:0.1; fill:none" points="756.262,1423.18 756.262,47.2441 "/>
<polyline clip-path="url(#clip092)" style="stroke:#000000; stroke-linecap:round; stroke-linejoin:round; stroke-width:2; stroke-opacity:0.1; fill:none" points="1288.43,1423.18 1288.43,47.2441 "/>
<polyline clip-path="url(#clip092)" style="stroke:#000000; stroke-linecap:round; stroke-linejoin:round; stroke-width:2; stroke-opacity:0.1; fill:none" points="1820.59,1423.18 1820.59,47.2441 "/>
<polyline clip-path="url(#clip092)" style="stroke:#000000; stroke-linecap:round; stroke-linejoin:round; stroke-width:2; stroke-opacity:0.1; fill:none" points="2352.76,1423.18 2352.76,47.2441 "/>
<polyline clip-path="url(#clip092)" style="stroke:#000000; stroke-linecap:round; stroke-linejoin:round; stroke-width:2; stroke-opacity:0.1; fill:none" points="224.098,1271.62 2352.76,1271.62 "/>
<polyline clip-path="url(#clip092)" style="stroke:#000000; stroke-linecap:round; stroke-linejoin:round; stroke-width:2; stroke-opacity:0.1; fill:none" points="224.098,998.857 2352.76,998.857 "/>
<polyline clip-path="url(#clip092)" style="stroke:#000000; stroke-linecap:round; stroke-linejoin:round; stroke-width:2; stroke-opacity:0.1; fill:none" points="224.098,726.089 2352.76,726.089 "/>
<polyline clip-path="url(#clip092)" style="stroke:#000000; stroke-linecap:round; stroke-linejoin:round; stroke-width:2; stroke-opacity:0.1; fill:none" points="224.098,453.322 2352.76,453.322 "/>
<polyline clip-path="url(#clip092)" style="stroke:#000000; stroke-linecap:round; stroke-linejoin:round; stroke-width:2; stroke-opacity:0.1; fill:none" points="224.098,180.554 2352.76,180.554 "/>
<polyline clip-path="url(#clip090)" style="stroke:#000000; stroke-linecap:round; stroke-linejoin:round; stroke-width:4; stroke-opacity:1; fill:none" points="224.098,1423.18 2352.76,1423.18 "/>
<polyline clip-path="url(#clip090)" style="stroke:#000000; stroke-linecap:round; stroke-linejoin:round; stroke-width:4; stroke-opacity:1; fill:none" points="224.098,1423.18 224.098,1404.28 "/>
<polyline clip-path="url(#clip090)" style="stroke:#000000; stroke-linecap:round; stroke-linejoin:round; stroke-width:4; stroke-opacity:1; fill:none" points="756.262,1423.18 756.262,1404.28 "/>
<polyline clip-path="url(#clip090)" style="stroke:#000000; stroke-linecap:round; stroke-linejoin:round; stroke-width:4; stroke-opacity:1; fill:none" points="1288.43,1423.18 1288.43,1404.28 "/>
<polyline clip-path="url(#clip090)" style="stroke:#000000; stroke-linecap:round; stroke-linejoin:round; stroke-width:4; stroke-opacity:1; fill:none" points="1820.59,1423.18 1820.59,1404.28 "/>
<polyline clip-path="url(#clip090)" style="stroke:#000000; stroke-linecap:round; stroke-linejoin:round; stroke-width:4; stroke-opacity:1; fill:none" points="2352.76,1423.18 2352.76,1404.28 "/>
<path clip-path="url(#clip090)" d="M201.482 1454.1 Q197.871 1454.1 196.042 1457.66 Q194.237 1461.2 194.237 1468.33 Q194.237 1475.44 196.042 1479.01 Q197.871 1482.55 201.482 1482.55 Q205.116 1482.55 206.922 1479.01 Q208.751 1475.44 208.751 1468.33 Q208.751 1461.2 206.922 1457.66 Q205.116 1454.1 201.482 1454.1 M201.482 1450.39 Q207.292 1450.39 210.348 1455 Q213.427 1459.58 213.427 1468.33 Q213.427 1477.06 210.348 1481.67 Q207.292 1486.25 201.482 1486.25 Q195.672 1486.25 192.593 1481.67 Q189.538 1477.06 189.538 1468.33 Q189.538 1459.58 192.593 1455 Q195.672 1450.39 201.482 1450.39 Z" fill="#000000" fill-rule="nonzero" fill-opacity="1" /><path clip-path="url(#clip090)" d="M221.644 1479.7 L226.528 1479.7 L226.528 1485.58 L221.644 1485.58 L221.644 1479.7 Z" fill="#000000" fill-rule="nonzero" fill-opacity="1" /><path clip-path="url(#clip090)" d="M246.713 1454.1 Q243.102 1454.1 241.274 1457.66 Q239.468 1461.2 239.468 1468.33 Q239.468 1475.44 241.274 1479.01 Q243.102 1482.55 246.713 1482.55 Q250.348 1482.55 252.153 1479.01 Q253.982 1475.44 253.982 1468.33 Q253.982 1461.2 252.153 1457.66 Q250.348 1454.1 246.713 1454.1 M246.713 1450.39 Q252.524 1450.39 255.579 1455 Q258.658 1459.58 258.658 1468.33 Q258.658 1477.06 255.579 1481.67 Q252.524 1486.25 246.713 1486.25 Q240.903 1486.25 237.825 1481.67 Q234.769 1477.06 234.769 1468.33 Q234.769 1459.58 237.825 1455 Q240.903 1450.39 246.713 1450.39 Z" fill="#000000" fill-rule="nonzero" fill-opacity="1" /><path clip-path="url(#clip090)" d="M734.144 1454.1 Q730.533 1454.1 728.705 1457.66 Q726.899 1461.2 726.899 1468.33 Q726.899 1475.44 728.705 1479.01 Q730.533 1482.55 734.144 1482.55 Q737.779 1482.55 739.584 1479.01 Q741.413 1475.44 741.413 1468.33 Q741.413 1461.2 739.584 1457.66 Q737.779 1454.1 734.144 1454.1 M734.144 1450.39 Q739.955 1450.39 743.01 1455 Q746.089 1459.58 746.089 1468.33 Q746.089 1477.06 743.01 1481.67 Q739.955 1486.25 734.144 1486.25 Q728.334 1486.25 725.256 1481.67 Q722.2 1477.06 722.2 1468.33 Q722.2 1459.58 725.256 1455 Q728.334 1450.39 734.144 1450.39 Z" fill="#000000" fill-rule="nonzero" fill-opacity="1" /><path clip-path="url(#clip090)" d="M754.306 1479.7 L759.191 1479.7 L759.191 1485.58 L754.306 1485.58 L754.306 1479.7 Z" fill="#000000" fill-rule="nonzero" fill-opacity="1" /><path clip-path="url(#clip090)" d="M769.422 1451.02 L787.778 1451.02 L787.778 1454.96 L773.704 1454.96 L773.704 1463.43 Q774.723 1463.08 775.741 1462.92 Q776.76 1462.73 777.778 1462.73 Q783.565 1462.73 786.945 1465.9 Q790.325 1469.08 790.325 1474.49 Q790.325 1480.07 786.852 1483.17 Q783.38 1486.25 777.061 1486.25 Q774.885 1486.25 772.616 1485.88 Q770.371 1485.51 767.964 1484.77 L767.964 1480.07 Q770.047 1481.2 772.269 1481.76 Q774.491 1482.32 776.968 1482.32 Q780.973 1482.32 783.311 1480.21 Q785.649 1478.1 785.649 1474.49 Q785.649 1470.88 783.311 1468.77 Q780.973 1466.67 776.968 1466.67 Q775.093 1466.67 773.218 1467.08 Q771.366 1467.5 769.422 1468.38 L769.422 1451.02 Z" fill="#000000" fill-rule="nonzero" fill-opacity="1" /><path clip-path="url(#clip090)" d="M1255.58 1481.64 L1263.22 1481.64 L1263.22 1455.28 L1254.91 1456.95 L1254.91 1452.69 L1263.17 1451.02 L1267.85 1451.02 L1267.85 1481.64 L1275.49 1481.64 L1275.49 1485.58 L1255.58 1485.58 L1255.58 1481.64 Z" fill="#000000" fill-rule="nonzero" fill-opacity="1" /><path clip-path="url(#clip090)" d="M1284.93 1479.7 L1289.82 1479.7 L1289.82 1485.58 L1284.93 1485.58 L1284.93 1479.7 Z" fill="#000000" fill-rule="nonzero" fill-opacity="1" /><path clip-path="url(#clip090)" d="M1310 1454.1 Q1306.39 1454.1 1304.56 1457.66 Q1302.76 1461.2 1302.76 1468.33 Q1302.76 1475.44 1304.56 1479.01 Q1306.39 1482.55 1310 1482.55 Q1313.64 1482.55 1315.44 1479.01 Q1317.27 1475.44 1317.27 1468.33 Q1317.27 1461.2 1315.44 1457.66 Q1313.64 1454.1 1310 1454.1 M1310 1450.39 Q1315.81 1450.39 1318.87 1455 Q1321.95 1459.58 1321.95 1468.33 Q1321.95 1477.06 1318.87 1481.67 Q1315.81 1486.25 1310 1486.25 Q1304.19 1486.25 1301.11 1481.67 Q1298.06 1477.06 1298.06 1468.33 Q1298.06 1459.58 1301.11 1455 Q1304.19 1450.39 1310 1450.39 Z" fill="#000000" fill-rule="nonzero" fill-opacity="1" /><path clip-path="url(#clip090)" d="M1788.24 1481.64 L1795.88 1481.64 L1795.88 1455.28 L1787.57 1456.95 L1787.57 1452.69 L1795.83 1451.02 L1800.51 1451.02 L1800.51 1481.64 L1808.15 1481.64 L1808.15 1485.58 L1788.24 1485.58 L1788.24 1481.64 Z" fill="#000000" fill-rule="nonzero" fill-opacity="1" /><path clip-path="url(#clip090)" d="M1817.59 1479.7 L1822.48 1479.7 L1822.48 1485.58 L1817.59 1485.58 L1817.59 1479.7 Z" fill="#000000" fill-rule="nonzero" fill-opacity="1" /><path clip-path="url(#clip090)" d="M1832.71 1451.02 L1851.07 1451.02 L1851.07 1454.96 L1836.99 1454.96 L1836.99 1463.43 Q1838.01 1463.08 1839.03 1462.92 Q1840.05 1462.73 1841.07 1462.73 Q1846.85 1462.73 1850.23 1465.9 Q1853.61 1469.08 1853.61 1474.49 Q1853.61 1480.07 1850.14 1483.17 Q1846.67 1486.25 1840.35 1486.25 Q1838.17 1486.25 1835.9 1485.88 Q1833.66 1485.51 1831.25 1484.77 L1831.25 1480.07 Q1833.33 1481.2 1835.56 1481.76 Q1837.78 1482.32 1840.26 1482.32 Q1844.26 1482.32 1846.6 1480.21 Q1848.94 1478.1 1848.94 1474.49 Q1848.94 1470.88 1846.6 1468.77 Q1844.26 1466.67 1840.26 1466.67 Q1838.38 1466.67 1836.51 1467.08 Q1834.65 1467.5 1832.71 1468.38 L1832.71 1451.02 Z" fill="#000000" fill-rule="nonzero" fill-opacity="1" /><path clip-path="url(#clip090)" d="M2323.99 1481.64 L2340.31 1481.64 L2340.31 1485.58 L2318.37 1485.58 L2318.37 1481.64 Q2321.03 1478.89 2325.61 1474.26 Q2330.22 1469.61 2331.4 1468.27 Q2333.65 1465.74 2334.53 1464.01 Q2335.43 1462.25 2335.43 1460.56 Q2335.43 1457.8 2333.49 1456.07 Q2331.56 1454.33 2328.46 1454.33 Q2326.26 1454.33 2323.81 1455.09 Q2321.38 1455.86 2318.6 1457.41 L2318.6 1452.69 Q2321.43 1451.55 2323.88 1450.97 Q2326.33 1450.39 2328.37 1450.39 Q2333.74 1450.39 2336.93 1453.08 Q2340.13 1455.77 2340.13 1460.26 Q2340.13 1462.39 2339.32 1464.31 Q2338.53 1466.2 2336.42 1468.8 Q2335.85 1469.47 2332.74 1472.69 Q2329.64 1475.88 2323.99 1481.64 Z" fill="#000000" fill-rule="nonzero" fill-opacity="1" /><path clip-path="url(#clip090)" d="M2350.13 1479.7 L2355.01 1479.7 L2355.01 1485.58 L2350.13 1485.58 L2350.13 1479.7 Z" fill="#000000" fill-rule="nonzero" fill-opacity="1" /><path clip-path="url(#clip090)" d="M2375.2 1454.1 Q2371.59 1454.1 2369.76 1457.66 Q2367.95 1461.2 2367.95 1468.33 Q2367.95 1475.44 2369.76 1479.01 Q2371.59 1482.55 2375.2 1482.55 Q2378.83 1482.55 2380.64 1479.01 Q2382.47 1475.44 2382.47 1468.33 Q2382.47 1461.2 2380.64 1457.66 Q2378.83 1454.1 2375.2 1454.1 M2375.2 1450.39 Q2381.01 1450.39 2384.06 1455 Q2387.14 1459.58 2387.14 1468.33 Q2387.14 1477.06 2384.06 1481.67 Q2381.01 1486.25 2375.2 1486.25 Q2369.39 1486.25 2366.31 1481.67 Q2363.25 1477.06 2363.25 1468.33 Q2363.25 1459.58 2366.31 1455 Q2369.39 1450.39 2375.2 1450.39 Z" fill="#000000" fill-rule="nonzero" fill-opacity="1" /><path clip-path="url(#clip090)" d="M1287.49 1522.27 L1287.49 1532.4 L1299.55 1532.4 L1299.55 1536.95 L1287.49 1536.95 L1287.49 1556.3 Q1287.49 1560.66 1288.67 1561.9 Q1289.88 1563.14 1293.54 1563.14 L1299.55 1563.14 L1299.55 1568.04 L1293.54 1568.04 Q1286.76 1568.04 1284.18 1565.53 Q1281.6 1562.98 1281.6 1556.3 L1281.6 1536.95 L1277.3 1536.95 L1277.3 1532.4 L1281.6 1532.4 L1281.6 1522.27 L1287.49 1522.27 Z" fill="#000000" fill-rule="nonzero" fill-opacity="1" /><polyline clip-path="url(#clip090)" style="stroke:#000000; stroke-linecap:round; stroke-linejoin:round; stroke-width:4; stroke-opacity:1; fill:none" points="224.098,1423.18 224.098,47.2441 "/>
<polyline clip-path="url(#clip090)" style="stroke:#000000; stroke-linecap:round; stroke-linejoin:round; stroke-width:4; stroke-opacity:1; fill:none" points="224.098,1271.62 242.996,1271.62 "/>
<polyline clip-path="url(#clip090)" style="stroke:#000000; stroke-linecap:round; stroke-linejoin:round; stroke-width:4; stroke-opacity:1; fill:none" points="224.098,998.857 242.996,998.857 "/>
<polyline clip-path="url(#clip090)" style="stroke:#000000; stroke-linecap:round; stroke-linejoin:round; stroke-width:4; stroke-opacity:1; fill:none" points="224.098,726.089 242.996,726.089 "/>
<polyline clip-path="url(#clip090)" style="stroke:#000000; stroke-linecap:round; stroke-linejoin:round; stroke-width:4; stroke-opacity:1; fill:none" points="224.098,453.322 242.996,453.322 "/>
<polyline clip-path="url(#clip090)" style="stroke:#000000; stroke-linecap:round; stroke-linejoin:round; stroke-width:4; stroke-opacity:1; fill:none" points="224.098,180.554 242.996,180.554 "/>
<path clip-path="url(#clip090)" d="M51.9875 1272.08 L81.6633 1272.08 L81.6633 1276.01 L51.9875 1276.01 L51.9875 1272.08 Z" fill="#000000" fill-rule="nonzero" fill-opacity="1" /><path clip-path="url(#clip090)" d="M101.756 1257.42 Q98.1447 1257.42 96.316 1260.99 Q94.5104 1264.53 94.5104 1271.66 Q94.5104 1278.77 96.316 1282.33 Q98.1447 1285.87 101.756 1285.87 Q105.39 1285.87 107.196 1282.33 Q109.024 1278.77 109.024 1271.66 Q109.024 1264.53 107.196 1260.99 Q105.39 1257.42 101.756 1257.42 M101.756 1253.72 Q107.566 1253.72 110.621 1258.33 Q113.7 1262.91 113.7 1271.66 Q113.7 1280.39 110.621 1284.99 Q107.566 1289.58 101.756 1289.58 Q95.9456 1289.58 92.8669 1284.99 Q89.8114 1280.39 89.8114 1271.66 Q89.8114 1262.91 92.8669 1258.33 Q95.9456 1253.72 101.756 1253.72 Z" fill="#000000" fill-rule="nonzero" fill-opacity="1" /><path clip-path="url(#clip090)" d="M121.918 1283.03 L126.802 1283.03 L126.802 1288.9 L121.918 1288.9 L121.918 1283.03 Z" fill="#000000" fill-rule="nonzero" fill-opacity="1" /><path clip-path="url(#clip090)" d="M135.806 1254.34 L158.029 1254.34 L158.029 1256.34 L145.482 1288.9 L140.598 1288.9 L152.404 1258.28 L135.806 1258.28 L135.806 1254.34 Z" fill="#000000" fill-rule="nonzero" fill-opacity="1" /><path clip-path="url(#clip090)" d="M167.195 1254.34 L185.552 1254.34 L185.552 1258.28 L171.478 1258.28 L171.478 1266.75 Q172.496 1266.4 173.515 1266.24 Q174.533 1266.06 175.552 1266.06 Q181.339 1266.06 184.718 1269.23 Q188.098 1272.4 188.098 1277.82 Q188.098 1283.4 184.626 1286.5 Q181.153 1289.58 174.834 1289.58 Q172.658 1289.58 170.39 1289.21 Q168.144 1288.84 165.737 1288.09 L165.737 1283.4 Q167.82 1284.53 170.042 1285.09 Q172.265 1285.64 174.741 1285.64 Q178.746 1285.64 181.084 1283.53 Q183.422 1281.43 183.422 1277.82 Q183.422 1274.21 181.084 1272.1 Q178.746 1269.99 174.741 1269.99 Q172.866 1269.99 170.991 1270.41 Q169.14 1270.83 167.195 1271.71 L167.195 1254.34 Z" fill="#000000" fill-rule="nonzero" fill-opacity="1" /><path clip-path="url(#clip090)" d="M50.9921 999.309 L80.6679 999.309 L80.6679 1003.24 L50.9921 1003.24 L50.9921 999.309 Z" fill="#000000" fill-rule="nonzero" fill-opacity="1" /><path clip-path="url(#clip090)" d="M100.76 984.656 Q97.1493 984.656 95.3206 988.221 Q93.515 991.762 93.515 998.892 Q93.515 1006 95.3206 1009.56 Q97.1493 1013.1 100.76 1013.1 Q104.395 1013.1 106.2 1009.56 Q108.029 1006 108.029 998.892 Q108.029 991.762 106.2 988.221 Q104.395 984.656 100.76 984.656 M100.76 980.952 Q106.571 980.952 109.626 985.559 Q112.705 990.142 112.705 998.892 Q112.705 1007.62 109.626 1012.23 Q106.571 1016.81 100.76 1016.81 Q94.9502 1016.81 91.8715 1012.23 Q88.816 1007.62 88.816 998.892 Q88.816 990.142 91.8715 985.559 Q94.9502 980.952 100.76 980.952 Z" fill="#000000" fill-rule="nonzero" fill-opacity="1" /><path clip-path="url(#clip090)" d="M120.922 1010.26 L125.807 1010.26 L125.807 1016.14 L120.922 1016.14 L120.922 1010.26 Z" fill="#000000" fill-rule="nonzero" fill-opacity="1" /><path clip-path="url(#clip090)" d="M136.038 981.577 L154.394 981.577 L154.394 985.512 L140.32 985.512 L140.32 993.984 Q141.339 993.637 142.357 993.475 Q143.376 993.29 144.394 993.29 Q150.181 993.29 153.561 996.461 Q156.941 999.633 156.941 1005.05 Q156.941 1010.63 153.468 1013.73 Q149.996 1016.81 143.677 1016.81 Q141.501 1016.81 139.232 1016.44 Q136.987 1016.07 134.58 1015.33 L134.58 1010.63 Q136.663 1011.76 138.885 1012.32 Q141.107 1012.87 143.584 1012.87 Q147.589 1012.87 149.927 1010.77 Q152.265 1008.66 152.265 1005.05 Q152.265 1001.44 149.927 999.332 Q147.589 997.225 143.584 997.225 Q141.709 997.225 139.834 997.642 Q137.982 998.059 136.038 998.938 L136.038 981.577 Z" fill="#000000" fill-rule="nonzero" fill-opacity="1" /><path clip-path="url(#clip090)" d="M176.153 984.656 Q172.542 984.656 170.714 988.221 Q168.908 991.762 168.908 998.892 Q168.908 1006 170.714 1009.56 Q172.542 1013.1 176.153 1013.1 Q179.788 1013.1 181.593 1009.56 Q183.422 1006 183.422 998.892 Q183.422 991.762 181.593 988.221 Q179.788 984.656 176.153 984.656 M176.153 980.952 Q181.964 980.952 185.019 985.559 Q188.098 990.142 188.098 998.892 Q188.098 1007.62 185.019 1012.23 Q181.964 1016.81 176.153 1016.81 Q170.343 1016.81 167.265 1012.23 Q164.209 1007.62 164.209 998.892 Q164.209 990.142 167.265 985.559 Q170.343 980.952 176.153 980.952 Z" fill="#000000" fill-rule="nonzero" fill-opacity="1" /><path clip-path="url(#clip090)" d="M51.9875 726.541 L81.6633 726.541 L81.6633 730.476 L51.9875 730.476 L51.9875 726.541 Z" fill="#000000" fill-rule="nonzero" fill-opacity="1" /><path clip-path="url(#clip090)" d="M101.756 711.888 Q98.1447 711.888 96.316 715.453 Q94.5104 718.995 94.5104 726.124 Q94.5104 733.231 96.316 736.795 Q98.1447 740.337 101.756 740.337 Q105.39 740.337 107.196 736.795 Q109.024 733.231 109.024 726.124 Q109.024 718.995 107.196 715.453 Q105.39 711.888 101.756 711.888 M101.756 708.184 Q107.566 708.184 110.621 712.791 Q113.7 717.374 113.7 726.124 Q113.7 734.851 110.621 739.457 Q107.566 744.041 101.756 744.041 Q95.9456 744.041 92.8669 739.457 Q89.8114 734.851 89.8114 726.124 Q89.8114 717.374 92.8669 712.791 Q95.9456 708.184 101.756 708.184 Z" fill="#000000" fill-rule="nonzero" fill-opacity="1" /><path clip-path="url(#clip090)" d="M121.918 737.49 L126.802 737.49 L126.802 743.369 L121.918 743.369 L121.918 737.49 Z" fill="#000000" fill-rule="nonzero" fill-opacity="1" /><path clip-path="url(#clip090)" d="M141.015 739.434 L157.334 739.434 L157.334 743.369 L135.39 743.369 L135.39 739.434 Q138.052 736.68 142.635 732.05 Q147.242 727.397 148.422 726.055 Q150.668 723.532 151.547 721.795 Q152.45 720.036 152.45 718.346 Q152.45 715.592 150.505 713.856 Q148.584 712.12 145.482 712.12 Q143.283 712.12 140.83 712.884 Q138.399 713.647 135.621 715.198 L135.621 710.476 Q138.445 709.342 140.899 708.763 Q143.353 708.184 145.39 708.184 Q150.76 708.184 153.955 710.87 Q157.149 713.555 157.149 718.046 Q157.149 720.175 156.339 722.096 Q155.552 723.995 153.445 726.587 Q152.867 727.258 149.765 730.476 Q146.663 733.67 141.015 739.434 Z" fill="#000000" fill-rule="nonzero" fill-opacity="1" /><path clip-path="url(#clip090)" d="M167.195 708.809 L185.552 708.809 L185.552 712.745 L171.478 712.745 L171.478 721.217 Q172.496 720.87 173.515 720.708 Q174.533 720.522 175.552 720.522 Q181.339 720.522 184.718 723.694 Q188.098 726.865 188.098 732.282 Q188.098 737.86 184.626 740.962 Q181.153 744.041 174.834 744.041 Q172.658 744.041 170.39 743.67 Q168.144 743.3 165.737 742.559 L165.737 737.86 Q167.82 738.994 170.042 739.55 Q172.265 740.106 174.741 740.106 Q178.746 740.106 181.084 737.999 Q183.422 735.893 183.422 732.282 Q183.422 728.67 181.084 726.564 Q178.746 724.458 174.741 724.458 Q172.866 724.458 170.991 724.874 Q169.14 725.291 167.195 726.17 L167.195 708.809 Z" fill="#000000" fill-rule="nonzero" fill-opacity="1" /><path clip-path="url(#clip090)" d="M100.76 439.12 Q97.1493 439.12 95.3206 442.685 Q93.515 446.227 93.515 453.356 Q93.515 460.463 95.3206 464.028 Q97.1493 467.569 100.76 467.569 Q104.395 467.569 106.2 464.028 Q108.029 460.463 108.029 453.356 Q108.029 446.227 106.2 442.685 Q104.395 439.12 100.76 439.12 M100.76 435.417 Q106.571 435.417 109.626 440.023 Q112.705 444.607 112.705 453.356 Q112.705 462.083 109.626 466.69 Q106.571 471.273 100.76 471.273 Q94.9502 471.273 91.8715 466.69 Q88.816 462.083 88.816 453.356 Q88.816 444.607 91.8715 440.023 Q94.9502 435.417 100.76 435.417 Z" fill="#000000" fill-rule="nonzero" fill-opacity="1" /><path clip-path="url(#clip090)" d="M120.922 464.722 L125.807 464.722 L125.807 470.602 L120.922 470.602 L120.922 464.722 Z" fill="#000000" fill-rule="nonzero" fill-opacity="1" /><path clip-path="url(#clip090)" d="M145.992 439.12 Q142.381 439.12 140.552 442.685 Q138.746 446.227 138.746 453.356 Q138.746 460.463 140.552 464.028 Q142.381 467.569 145.992 467.569 Q149.626 467.569 151.431 464.028 Q153.26 460.463 153.26 453.356 Q153.26 446.227 151.431 442.685 Q149.626 439.12 145.992 439.12 M145.992 435.417 Q151.802 435.417 154.857 440.023 Q157.936 444.607 157.936 453.356 Q157.936 462.083 154.857 466.69 Q151.802 471.273 145.992 471.273 Q140.181 471.273 137.103 466.69 Q134.047 462.083 134.047 453.356 Q134.047 444.607 137.103 440.023 Q140.181 435.417 145.992 435.417 Z" fill="#000000" fill-rule="nonzero" fill-opacity="1" /><path clip-path="url(#clip090)" d="M176.153 439.12 Q172.542 439.12 170.714 442.685 Q168.908 446.227 168.908 453.356 Q168.908 460.463 170.714 464.028 Q172.542 467.569 176.153 467.569 Q179.788 467.569 181.593 464.028 Q183.422 460.463 183.422 453.356 Q183.422 446.227 181.593 442.685 Q179.788 439.12 176.153 439.12 M176.153 435.417 Q181.964 435.417 185.019 440.023 Q188.098 444.607 188.098 453.356 Q188.098 462.083 185.019 466.69 Q181.964 471.273 176.153 471.273 Q170.343 471.273 167.265 466.69 Q164.209 462.083 164.209 453.356 Q164.209 444.607 167.265 440.023 Q170.343 435.417 176.153 435.417 Z" fill="#000000" fill-rule="nonzero" fill-opacity="1" /><path clip-path="url(#clip090)" d="M101.756 166.353 Q98.1447 166.353 96.316 169.918 Q94.5104 173.459 94.5104 180.589 Q94.5104 187.695 96.316 191.26 Q98.1447 194.802 101.756 194.802 Q105.39 194.802 107.196 191.26 Q109.024 187.695 109.024 180.589 Q109.024 173.459 107.196 169.918 Q105.39 166.353 101.756 166.353 M101.756 162.649 Q107.566 162.649 110.621 167.256 Q113.7 171.839 113.7 180.589 Q113.7 189.316 110.621 193.922 Q107.566 198.505 101.756 198.505 Q95.9456 198.505 92.8669 193.922 Q89.8114 189.316 89.8114 180.589 Q89.8114 171.839 92.8669 167.256 Q95.9456 162.649 101.756 162.649 Z" fill="#000000" fill-rule="nonzero" fill-opacity="1" /><path clip-path="url(#clip090)" d="M121.918 191.954 L126.802 191.954 L126.802 197.834 L121.918 197.834 L121.918 191.954 Z" fill="#000000" fill-rule="nonzero" fill-opacity="1" /><path clip-path="url(#clip090)" d="M141.015 193.899 L157.334 193.899 L157.334 197.834 L135.39 197.834 L135.39 193.899 Q138.052 191.144 142.635 186.515 Q147.242 181.862 148.422 180.519 Q150.668 177.996 151.547 176.26 Q152.45 174.501 152.45 172.811 Q152.45 170.056 150.505 168.32 Q148.584 166.584 145.482 166.584 Q143.283 166.584 140.83 167.348 Q138.399 168.112 135.621 169.663 L135.621 164.941 Q138.445 163.806 140.899 163.228 Q143.353 162.649 145.39 162.649 Q150.76 162.649 153.955 165.334 Q157.149 168.019 157.149 172.51 Q157.149 174.64 156.339 176.561 Q155.552 178.459 153.445 181.052 Q152.867 181.723 149.765 184.941 Q146.663 188.135 141.015 193.899 Z" fill="#000000" fill-rule="nonzero" fill-opacity="1" /><path clip-path="url(#clip090)" d="M167.195 163.274 L185.552 163.274 L185.552 167.209 L171.478 167.209 L171.478 175.681 Q172.496 175.334 173.515 175.172 Q174.533 174.987 175.552 174.987 Q181.339 174.987 184.718 178.158 Q188.098 181.33 188.098 186.746 Q188.098 192.325 184.626 195.427 Q181.153 198.505 174.834 198.505 Q172.658 198.505 170.39 198.135 Q168.144 197.765 165.737 197.024 L165.737 192.325 Q167.82 193.459 170.042 194.015 Q172.265 194.57 174.741 194.57 Q178.746 194.57 181.084 192.464 Q183.422 190.357 183.422 186.746 Q183.422 183.135 181.084 181.029 Q178.746 178.922 174.741 178.922 Q172.866 178.922 170.991 179.339 Q169.14 179.755 167.195 180.635 L167.195 163.274 Z" fill="#000000" fill-rule="nonzero" fill-opacity="1" /><polyline clip-path="url(#clip092)" style="stroke:#009af9; stroke-linecap:round; stroke-linejoin:round; stroke-width:4; stroke-opacity:1; fill:none" points="224.098,646.503 226.229,653.851 228.359,661.126 230.49,668.329 232.621,675.46 234.752,682.52 236.883,689.509 239.013,696.429 241.144,703.28 243.275,710.063 245.406,716.778 247.537,723.426 249.667,730.008 251.798,736.525 253.929,742.977 256.06,749.364 258.19,755.688 260.321,761.948 262.452,768.147 264.583,774.283 266.714,780.359 268.844,786.374 270.975,792.329 273.106,798.225 275.237,804.062 277.368,809.841 279.498,815.563 281.629,821.227 283.76,826.835 285.891,832.387 288.022,837.884 290.152,843.326 292.283,848.714 294.414,854.048 296.545,859.329 298.675,864.558 300.806,869.734 302.937,874.859 305.068,879.933 307.199,884.956 309.329,889.929 311.46,894.853 313.591,899.728 315.722,904.554 317.853,909.332 319.983,914.062 322.114,918.745 324.245,923.382 326.376,927.973 328.507,932.517 330.637,937.017 332.768,941.472 334.899,945.882 337.03,950.248 339.16,954.571 341.291,958.851 343.422,963.089 345.553,967.284 347.684,971.437 349.814,975.549 351.945,979.62 354.076,983.65 356.207,987.64 358.338,991.591 360.468,995.502 362.599,999.374 364.73,1003.21 366.861,1007 368.992,1010.76 371.122,1014.48 373.253,1018.16 375.384,1021.81 377.515,1025.42 379.645,1028.99 381.776,1032.53 383.907,1036.04 386.038,1039.51 388.169,1042.94 390.299,1046.34 392.43,1049.7 394.561,1053.04 396.692,1056.34 398.823,1059.6 400.953,1062.84 403.084,1066.04 405.215,1069.21 407.346,1072.35 409.477,1075.45 411.607,1078.53 413.738,1081.57 415.869,1084.59 418,1087.57 420.13,1090.53 422.261,1093.46 424.392,1096.35 426.523,1099.22 428.654,1102.06 430.784,1104.87 432.915,1107.65 435.046,1110.41 437.177,1113.14 439.308,1115.84 441.438,1118.51 443.569,1121.16 445.7,1123.78 447.831,1126.37 449.961,1128.94 452.092,1131.48 454.223,1134 456.354,1136.49 458.485,1138.96 460.615,1141.41 462.746,1143.82 464.877,1146.22 467.008,1148.59 469.139,1150.94 471.269,1153.26 473.4,1155.56 475.531,1157.84 477.662,1160.09 479.793,1162.33 481.923,1164.54 484.054,1166.73 486.185,1168.89 488.316,1171.04 490.446,1173.16 492.577,1175.27 494.708,1177.35 496.839,1179.41 498.97,1181.45 501.1,1183.47 503.231,1185.47 505.362,1187.45 507.493,1189.41 509.624,1191.35 511.754,1193.27 513.885,1195.18 516.016,1197.06 518.147,1198.92 520.278,1200.77 522.408,1202.6 524.539,1204.41 526.67,1206.2 528.801,1207.97 530.931,1209.73 533.062,1211.47 535.193,1213.19 537.324,1214.89 539.455,1216.58 541.585,1218.25 543.716,1219.9 545.847,1221.54 547.978,1223.16 550.109,1224.77 552.239,1226.35 554.37,1227.93 556.501,1229.48 558.632,1231.03 560.763,1232.55 562.893,1234.06 565.024,1235.56 567.155,1237.04 569.286,1238.51 571.416,1239.96 573.547,1241.4 575.678,1242.82 577.809,1244.23 579.94,1245.62 582.07,1247 584.201,1248.37 586.332,1249.72 588.463,1251.06 590.594,1252.39 592.724,1253.7 594.855,1255 596.986,1256.29 599.117,1257.57 601.247,1258.83 603.378,1260.08 605.509,1261.31 607.64,1262.54 609.771,1263.75 611.901,1264.95 614.032,1266.14 616.163,1267.32 618.294,1268.48 620.425,1269.64 622.555,1270.78 624.686,1271.91 626.817,1273.03 628.948,1274.14 631.079,1275.23 633.209,1276.32 635.34,1277.4 637.471,1278.46 639.602,1279.52 641.732,1280.56 643.863,1281.59 645.994,1282.61 648.125,1283.63 650.256,1284.63 652.386,1285.62 654.517,1286.6 656.648,1287.58 658.779,1288.54 660.91,1289.49 663.04,1290.44 665.171,1291.37 667.302,1292.3 669.433,1293.21 671.564,1294.12 673.694,1295.02 675.825,1295.91 677.956,1296.79 680.087,1297.66 682.217,1298.52 684.348,1299.38 686.479,1300.22 688.61,1301.06 690.741,1301.89 692.871,1302.71 695.002,1303.52 697.133,1304.32 699.264,1305.12 701.395,1305.91 703.525,1306.69 705.656,1307.46 707.787,1308.23 709.918,1308.98 712.049,1309.73 714.179,1310.47 716.31,1311.21 718.441,1311.94 720.572,1312.66 722.702,1313.37 724.833,1314.08 726.964,1314.78 729.095,1315.47 731.226,1316.15 733.356,1316.83 735.487,1317.5 737.618,1318.17 739.749,1318.83 741.88,1319.48 744.01,1320.12 746.141,1320.76 748.272,1321.4 750.403,1322.02 752.534,1322.64 754.664,1323.26 756.795,1323.87 758.926,1324.47 761.057,1325.06 763.187,1325.65 765.318,1326.24 767.449,1326.82 769.58,1327.39 771.711,1327.96 773.841,1328.52 775.972,1329.07 778.103,1329.62 780.234,1330.17 782.365,1330.71 784.495,1331.24 786.626,1331.77 788.757,1332.29 790.888,1332.81 793.018,1333.32 795.149,1333.83 797.28,1334.33 799.411,1334.83 801.542,1335.32 803.672,1335.81 805.803,1336.29 807.934,1336.77 810.065,1337.24 812.196,1337.71 814.326,1338.17 816.457,1338.63 818.588,1339.09 820.719,1339.54 822.85,1339.98 824.98,1340.42 827.111,1340.86 829.242,1341.29 831.373,1341.72 833.503,1342.14 835.634,1342.56 837.765,1342.98 839.896,1343.39 842.027,1343.8 844.157,1344.2 846.288,1344.6 848.419,1344.99 850.55,1345.38 852.681,1345.77 854.811,1346.15 856.942,1346.53 859.073,1346.91 861.204,1347.28 863.335,1347.65 865.465,1348.01 867.596,1348.38 869.727,1348.73 871.858,1349.09 873.988,1349.44 876.119,1349.78 878.25,1350.13 880.381,1350.47 882.512,1350.8 884.642,1351.14 886.773,1351.47 888.904,1351.8 891.035,1352.12 893.166,1352.44 895.296,1352.76 897.427,1353.07 899.558,1353.38 901.689,1353.69 903.82,1353.99 905.95,1354.3 908.081,1354.6 910.212,1354.89 912.343,1355.18 914.473,1355.47 916.604,1355.76 918.735,1356.05 920.866,1356.33 922.997,1356.61 925.127,1356.88 927.258,1357.15 929.389,1357.42 931.52,1357.69 933.651,1357.96 935.781,1358.22 937.912,1358.48 940.043,1358.74 942.174,1358.99 944.304,1359.24 946.435,1359.49 948.566,1359.74 950.697,1359.98 952.828,1360.23 954.958,1360.47 957.089,1360.7 959.22,1360.94 961.351,1361.17 963.482,1361.4 965.612,1361.63 967.743,1361.85 969.874,1362.08 972.005,1362.3 974.136,1362.52 976.266,1362.73 978.397,1362.95 980.528,1363.16 982.659,1363.37 984.789,1363.58 986.92,1363.78 989.051,1363.99 991.182,1364.19 993.313,1364.39 995.443,1364.59 997.574,1364.78 999.705,1364.98 1001.84,1365.17 1003.97,1365.36 1006.1,1365.55 1008.23,1365.73 1010.36,1365.92 1012.49,1366.1 1014.62,1366.28 1016.75,1366.46 1018.88,1366.64 1021.01,1366.81 1023.14,1366.99 1025.27,1367.16 1027.41,1367.33 1029.54,1367.5 1031.67,1367.66 1033.8,1367.83 1035.93,1367.99 1038.06,1368.15 1040.19,1368.32 1042.32,1368.47 1044.45,1368.63 1046.58,1368.79 1048.71,1368.94 1050.84,1369.09 1052.97,1369.24 1055.11,1369.39 1057.24,1369.54 1059.37,1369.69 1061.5,1369.83 1063.63,1369.98 1065.76,1370.12 1067.89,1370.26 1070.02,1370.4 1072.15,1370.54 1074.28,1370.68 1076.41,1370.81 1078.54,1370.95 1080.67,1371.08 1082.81,1371.21 1084.94,1371.34 1087.07,1371.47 1089.2,1371.6 1091.33,1371.73 1093.46,1371.85 1095.59,1371.97 1097.72,1372.1 1099.85,1372.22 1101.98,1372.34 1104.11,1372.46 1106.24,1372.58 1108.38,1372.69 1110.51,1372.81 1112.64,1372.92 1114.77,1373.04 1116.9,1373.15 1119.03,1373.26 1121.16,1373.37 1123.29,1373.48 1125.42,1373.59 1127.55,1373.69 1129.68,1373.8 1131.81,1373.9 1133.94,1374.01 1136.08,1374.11 1138.21,1374.21 1140.34,1374.31 1142.47,1374.41 1144.6,1374.51 1146.73,1374.6 1148.86,1374.7 1150.99,1374.8 1153.12,1374.89 1155.25,1374.98 1157.38,1375.08 1159.51,1375.17 1161.64,1375.26 1163.78,1375.35 1165.91,1375.44 1168.04,1375.53 1170.17,1375.61 1172.3,1375.7 1174.43,1375.78 1176.56,1375.87 1178.69,1375.95 1180.82,1376.04 1182.95,1376.12 1185.08,1376.2 1187.21,1376.28 1189.35,1376.36 1191.48,1376.44 1193.61,1376.51 1195.74,1376.59 1197.87,1376.67 1200,1376.74 1202.13,1376.82 1204.26,1376.89 1206.39,1376.97 1208.52,1377.04 1210.65,1377.11 1212.78,1377.18 1214.91,1377.25 1217.05,1377.32 1219.18,1377.39 1221.31,1377.46 1223.44,1377.53 1225.57,1377.59 1227.7,1377.66 1229.83,1377.72 1231.96,1377.79 1234.09,1377.85 1236.22,1377.92 1238.35,1377.98 1240.48,1378.04 1242.61,1378.11 1244.75,1378.17 1246.88,1378.23 1249.01,1378.29 1251.14,1378.35 1253.27,1378.41 1255.4,1378.46 1257.53,1378.52 1259.66,1378.58 1261.79,1378.64 1263.92,1378.69 1266.05,1378.75 1268.18,1378.8 1270.32,1378.86 1272.45,1378.91 1274.58,1378.96 1276.71,1379.02 1278.84,1379.07 1280.97,1379.12 1283.1,1379.17 1285.23,1379.22 1287.36,1379.27 1289.49,1379.32 1291.62,1379.37 1293.75,1379.42 1295.88,1379.47 1298.02,1379.52 1300.15,1379.57 1302.28,1379.61 1304.41,1379.66 1306.54,1379.71 1308.67,1379.75 1310.8,1379.8 1312.93,1379.84 1315.06,1379.89 1317.19,1379.93 1319.32,1379.97 1321.45,1380.02 1323.58,1380.06 1325.72,1380.1 1327.85,1380.14 1329.98,1380.19 1332.11,1380.23 1334.24,1380.27 1336.37,1380.31 1338.5,1380.35 1340.63,1380.39 1342.76,1380.43 1344.89,1380.46 1347.02,1380.5 1349.15,1380.54 1351.29,1380.58 1353.42,1380.61 1355.55,1380.65 1357.68,1380.69 1359.81,1380.72 1361.94,1380.76 1364.07,1380.79 1366.2,1380.83 1368.33,1380.86 1370.46,1380.9 1372.59,1380.93 1374.72,1380.96 1376.85,1381 1378.99,1381.03 1381.12,1381.06 1383.25,1381.09 1385.38,1381.12 1387.51,1381.16 1389.64,1381.19 1391.77,1381.22 1393.9,1381.25 1396.03,1381.28 1398.16,1381.31 1400.29,1381.34 1402.42,1381.37 1404.55,1381.4 1406.69,1381.42 1408.82,1381.45 1410.95,1381.48 1413.08,1381.51 1415.21,1381.54 1417.34,1381.56 1419.47,1381.59 1421.6,1381.62 1423.73,1381.64 1425.86,1381.67 1427.99,1381.69 1430.12,1381.72 1432.26,1381.74 1434.39,1381.77 1436.52,1381.79 1438.65,1381.82 1440.78,1381.84 1442.91,1381.87 1445.04,1381.89 1447.17,1381.91 1449.3,1381.94 1451.43,1381.96 1453.56,1381.98 1455.69,1382.01 1457.82,1382.03 1459.96,1382.05 1462.09,1382.07 1464.22,1382.09 1466.35,1382.12 1468.48,1382.14 1470.61,1382.16 1472.74,1382.18 1474.87,1382.2 1477,1382.22 1479.13,1382.24 1481.26,1382.26 1483.39,1382.28 1485.52,1382.3 1487.66,1382.32 1489.79,1382.34 1491.92,1382.36 1494.05,1382.38 1496.18,1382.4 1498.31,1382.41 1500.44,1382.43 1502.57,1382.45 1504.7,1382.47 1506.83,1382.49 1508.96,1382.51 1511.09,1382.52 1513.23,1382.54 1515.36,1382.56 1517.49,1382.57 1519.62,1382.59 1521.75,1382.61 1523.88,1382.63 1526.01,1382.64 1528.14,1382.66 1530.27,1382.67 1532.4,1382.69 1534.53,1382.71 1536.66,1382.72 1538.79,1382.74 1540.93,1382.75 1543.06,1382.77 1545.19,1382.78 1547.32,1382.8 1549.45,1382.81 1551.58,1382.83 1553.71,1382.84 1555.84,1382.86 1557.97,1382.87 1560.1,1382.89 1562.23,1382.9 1564.36,1382.91 1566.49,1382.93 1568.63,1382.94 1570.76,1382.95 1572.89,1382.97 1575.02,1382.98 1577.15,1382.99 1579.28,1383.01 1581.41,1383.02 1583.54,1383.03 1585.67,1383.04 1587.8,1383.06 1589.93,1383.07 1592.06,1383.08 1594.2,1383.09 1596.33,1383.11 1598.46,1383.12 1600.59,1383.13 1602.72,1383.14 1604.85,1383.15 1606.98,1383.16 1609.11,1383.17 1611.24,1383.19 1613.37,1383.2 1615.5,1383.21 1617.63,1383.22 1619.76,1383.23 1621.9,1383.24 1624.03,1383.25 1626.16,1383.26 1628.29,1383.27 1630.42,1383.28 1632.55,1383.29 1634.68,1383.3 1636.81,1383.31 1638.94,1383.32 1641.07,1383.33 1643.2,1383.34 1645.33,1383.35 1647.46,1383.36 1649.6,1383.37 1651.73,1383.37 1653.86,1383.38 1655.99,1383.39 1658.12,1383.4 1660.25,1383.41 1662.38,1383.42 1664.51,1383.43 1666.64,1383.44 1668.77,1383.44 1670.9,1383.45 1673.03,1383.46 1675.17,1383.47 1677.3,1383.48 1679.43,1383.48 1681.56,1383.49 1683.69,1383.5 1685.82,1383.51 1687.95,1383.51 1690.08,1383.52 1692.21,1383.53 1694.34,1383.54 1696.47,1383.54 1698.6,1383.55 1700.73,1383.56 1702.87,1383.56 1705,1383.57 1707.13,1383.58 1709.26,1383.59 1711.39,1383.59 1713.52,1383.6 1715.65,1383.61 1717.78,1383.61 1719.91,1383.62 1722.04,1383.62 1724.17,1383.63 1726.3,1383.64 1728.43,1383.64 1730.57,1383.65 1732.7,1383.66 1734.83,1383.66 1736.96,1383.67 1739.09,1383.67 1741.22,1383.68 1743.35,1383.68 1745.48,1383.69 1747.61,1383.7 1749.74,1383.7 1751.87,1383.71 1754,1383.71 1756.14,1383.72 1758.27,1383.72 1760.4,1383.73 1762.53,1383.73 1764.66,1383.74 1766.79,1383.74 1768.92,1383.75 1771.05,1383.75 1773.18,1383.76 1775.31,1383.76 1777.44,1383.77 1779.57,1383.77 1781.7,1383.78 1783.84,1383.78 1785.97,1383.79 1788.1,1383.79 1790.23,1383.8 1792.36,1383.8 1794.49,1383.81 1796.62,1383.81 1798.75,1383.82 1800.88,1383.82 1803.01,1383.83 1805.14,1383.83 1807.27,1383.84 1809.4,1383.84 1811.54,1383.84 1813.67,1383.85 1815.8,1383.85 1817.93,1383.86 1820.06,1383.86 1822.19,1383.87 1824.32,1383.87 1826.45,1383.87 1828.58,1383.88 1830.71,1383.88 1832.84,1383.89 1834.97,1383.89 1837.11,1383.89 1839.24,1383.9 1841.37,1383.9 1843.5,1383.9 1845.63,1383.91 1847.76,1383.91 1849.89,1383.92 1852.02,1383.92 1854.15,1383.92 1856.28,1383.93 1858.41,1383.93 1860.54,1383.93 1862.67,1383.94 1864.81,1383.94 1866.94,1383.94 1869.07,1383.95 1871.2,1383.95 1873.33,1383.95 1875.46,1383.96 1877.59,1383.96 1879.72,1383.96 1881.85,1383.97 1883.98,1383.97 1886.11,1383.97 1888.24,1383.98 1890.37,1383.98 1892.51,1383.98 1894.64,1383.99 1896.77,1383.99 1898.9,1383.99 1901.03,1384 1903.16,1384 1905.29,1384 1907.42,1384 1909.55,1384.01 1911.68,1384.01 1913.81,1384.01 1915.94,1384.01 1918.07,1384.02 1920.21,1384.02 1922.34,1384.02 1924.47,1384.03 1926.6,1384.03 1928.73,1384.03 1930.86,1384.03 1932.99,1384.04 1935.12,1384.04 1937.25,1384.04 1939.38,1384.04 1941.51,1384.04 1943.64,1384.05 1945.78,1384.05 1947.91,1384.05 1950.04,1384.05 1952.17,1384.06 1954.3,1384.06 1956.43,1384.06 1958.56,1384.06 1960.69,1384.06 1962.82,1384.07 1964.95,1384.07 1967.08,1384.07 1969.21,1384.07 1971.34,1384.08 1973.48,1384.08 1975.61,1384.08 1977.74,1384.08 1979.87,1384.08 1982,1384.08 1984.13,1384.09 1986.26,1384.09 1988.39,1384.09 1990.52,1384.09 1992.65,1384.09 1994.78,1384.1 1996.91,1384.1 1999.04,1384.1 2001.18,1384.1 2003.31,1384.1 2005.44,1384.1 2007.57,1384.11 2009.7,1384.11 2011.83,1384.11 2013.96,1384.11 2016.09,1384.11 2018.22,1384.11 2020.35,1384.11 2022.48,1384.12 2024.61,1384.12 2026.75,1384.12 2028.88,1384.12 2031.01,1384.12 2033.14,1384.12 2035.27,1384.12 2037.4,1384.13 2039.53,1384.13 2041.66,1384.13 2043.79,1384.13 2045.92,1384.13 2048.05,1384.13 2050.18,1384.13 2052.31,1384.14 2054.45,1384.14 2056.58,1384.14 2058.71,1384.14 2060.84,1384.14 2062.97,1384.14 2065.1,1384.14 2067.23,1384.14 2069.36,1384.15 2071.49,1384.15 2073.62,1384.15 2075.75,1384.15 2077.88,1384.15 2080.01,1384.15 2082.15,1384.15 2084.28,1384.15 2086.41,1384.15 2088.54,1384.15 2090.67,1384.16 2092.8,1384.16 2094.93,1384.16 2097.06,1384.16 2099.19,1384.16 2101.32,1384.16 2103.45,1384.16 2105.58,1384.16 2107.72,1384.16 2109.85,1384.17 2111.98,1384.17 2114.11,1384.17 2116.24,1384.17 2118.37,1384.17 2120.5,1384.17 2122.63,1384.17 2124.76,1384.17 2126.89,1384.17 2129.02,1384.17 2131.15,1384.17 2133.28,1384.18 2135.42,1384.18 2137.55,1384.18 2139.68,1384.18 2141.81,1384.18 2143.94,1384.18 2146.07,1384.18 2148.2,1384.18 2150.33,1384.18 2152.46,1384.18 2154.59,1384.18 2156.72,1384.19 2158.85,1384.19 2160.98,1384.19 2163.12,1384.19 2165.25,1384.19 2167.38,1384.19 2169.51,1384.19 2171.64,1384.19 2173.77,1384.19 2175.9,1384.19 2178.03,1384.19 2180.16,1384.19 2182.29,1384.2 2184.42,1384.2 2186.55,1384.2 2188.69,1384.2 2190.82,1384.2 2192.95,1384.2 2195.08,1384.2 2197.21,1384.2 2199.34,1384.2 2201.47,1384.2 2203.6,1384.2 2205.73,1384.2 2207.86,1384.2 2209.99,1384.2 2212.12,1384.21 2214.25,1384.21 2216.39,1384.21 2218.52,1384.21 2220.65,1384.21 2222.78,1384.21 2224.91,1384.21 2227.04,1384.21 2229.17,1384.21 2231.3,1384.21 2233.43,1384.21 2235.56,1384.21 2237.69,1384.21 2239.82,1384.21 2241.95,1384.21 2244.09,1384.22 2246.22,1384.22 2248.35,1384.22 2250.48,1384.22 2252.61,1384.22 2254.74,1384.22 2256.87,1384.22 2259,1384.22 2261.13,1384.22 2263.26,1384.22 2265.39,1384.22 2267.52,1384.22 2269.66,1384.22 2271.79,1384.22 2273.92,1384.22 2276.05,1384.22 2278.18,1384.22 2280.31,1384.22 2282.44,1384.22 2284.57,1384.23 2286.7,1384.23 2288.83,1384.23 2290.96,1384.23 2293.09,1384.23 2295.22,1384.23 2297.36,1384.23 2299.49,1384.23 2301.62,1384.23 2303.75,1384.23 2305.88,1384.23 2308.01,1384.23 2310.14,1384.23 2312.27,1384.23 2314.4,1384.23 2316.53,1384.23 2318.66,1384.23 2320.79,1384.23 2322.92,1384.23 2325.06,1384.23 2327.19,1384.23 2329.32,1384.23 2331.45,1384.23 2333.58,1384.23 2335.71,1384.24 2337.84,1384.24 2339.97,1384.24 2342.1,1384.24 2344.23,1384.24 2346.36,1384.24 2348.49,1384.24 2350.63,1384.24 2352.76,1384.24 "/>
<polyline clip-path="url(#clip092)" style="stroke:#e26f46; stroke-linecap:round; stroke-linejoin:round; stroke-width:4; stroke-opacity:1; fill:none" points="224.098,86.1857 226.229,97.6082 228.359,108.926 230.49,120.14 232.621,131.251 234.752,142.261 236.883,153.17 239.013,163.978 241.144,174.688 243.275,185.3 245.406,195.814 247.537,206.233 249.667,216.556 251.798,226.785 253.929,236.92 256.06,246.963 258.19,256.914 260.321,266.774 262.452,276.544 264.583,286.225 266.714,295.818 268.844,305.323 270.975,314.741 273.106,324.074 275.237,333.321 277.368,342.485 279.498,351.565 281.629,360.562 283.76,369.477 285.891,378.311 288.022,387.065 290.152,395.739 292.283,404.335 294.414,412.852 296.545,421.292 298.675,429.655 300.806,437.942 302.937,446.154 305.068,454.291 307.199,462.355 309.329,470.345 311.46,478.263 313.591,486.109 315.722,493.885 317.853,501.589 319.983,509.224 322.114,516.79 324.245,524.287 326.376,531.717 328.507,539.079 330.637,546.375 332.768,553.605 334.899,560.769 337.03,567.869 339.16,574.905 341.291,581.877 343.422,588.786 345.553,595.633 347.684,602.419 349.814,609.143 351.945,615.806 354.076,622.409 356.207,628.953 358.338,635.438 360.468,641.865 362.599,648.233 364.73,654.545 366.861,660.799 368.992,666.998 371.122,673.141 373.253,679.228 375.384,685.261 377.515,691.24 379.645,697.165 381.776,703.037 383.907,708.856 386.038,714.623 388.169,720.338 390.299,726.002 392.43,731.616 394.561,737.179 396.692,742.692 398.823,748.156 400.953,753.571 403.084,758.938 405.215,764.257 407.346,769.528 409.477,774.753 411.607,779.93 413.738,785.062 415.869,790.147 418,795.188 420.13,800.183 422.261,805.134 424.392,810.04 426.523,814.903 428.654,819.723 430.784,824.5 432.915,829.234 435.046,833.926 437.177,838.576 439.308,843.185 441.438,847.753 443.569,852.28 445.7,856.767 447.831,861.215 449.961,865.622 452.092,869.991 454.223,874.321 456.354,878.612 458.485,882.866 460.615,887.082 462.746,891.26 464.877,895.402 467.008,899.507 469.139,903.575 471.269,907.608 473.4,911.605 475.531,915.566 477.662,919.493 479.793,923.385 481.923,927.243 484.054,931.066 486.185,934.856 488.316,938.613 490.446,942.336 492.577,946.027 494.708,949.685 496.839,953.311 498.97,956.905 501.1,960.468 503.231,963.999 505.362,967.499 507.493,970.969 509.624,974.408 511.754,977.817 513.885,981.195 516.016,984.545 518.147,987.865 520.278,991.155 522.408,994.417 524.539,997.651 526.67,1000.86 528.801,1004.03 530.931,1007.18 533.062,1010.3 535.193,1013.4 537.324,1016.46 539.455,1019.5 541.585,1022.52 543.716,1025.51 545.847,1028.47 547.978,1031.4 550.109,1034.31 552.239,1037.2 554.37,1040.06 556.501,1042.89 558.632,1045.7 560.763,1048.49 562.893,1051.25 565.024,1053.98 567.155,1056.7 569.286,1059.39 571.416,1062.05 573.547,1064.7 575.678,1067.32 577.809,1069.91 579.94,1072.49 582.07,1075.04 584.201,1077.57 586.332,1080.08 588.463,1082.57 590.594,1085.03 592.724,1087.48 594.855,1089.9 596.986,1092.3 599.117,1094.68 601.247,1097.05 603.378,1099.39 605.509,1101.71 607.64,1104.01 609.771,1106.29 611.901,1108.55 614.032,1110.79 616.163,1113.01 618.294,1115.22 620.425,1117.4 622.555,1119.57 624.686,1121.71 626.817,1123.84 628.948,1125.95 631.079,1128.04 633.209,1130.12 635.34,1132.17 637.471,1134.21 639.602,1136.23 641.732,1138.24 643.863,1140.22 645.994,1142.19 648.125,1144.14 650.256,1146.08 652.386,1148 654.517,1149.9 656.648,1151.79 658.779,1153.66 660.91,1155.51 663.04,1157.35 665.171,1159.18 667.302,1160.98 669.433,1162.78 671.564,1164.55 673.694,1166.31 675.825,1168.06 677.956,1169.79 680.087,1171.51 682.217,1173.21 684.348,1174.9 686.479,1176.57 688.61,1178.23 690.741,1179.88 692.871,1181.51 695.002,1183.13 697.133,1184.73 699.264,1186.32 701.395,1187.9 703.525,1189.46 705.656,1191.01 707.787,1192.55 709.918,1194.07 712.049,1195.58 714.179,1197.08 716.31,1198.57 718.441,1200.04 720.572,1201.5 722.702,1202.95 724.833,1204.38 726.964,1205.81 729.095,1207.22 731.226,1208.62 733.356,1210.01 735.487,1211.39 737.618,1212.75 739.749,1214.11 741.88,1215.45 744.01,1216.78 746.141,1218.1 748.272,1219.41 750.403,1220.71 752.534,1222 754.664,1223.28 756.795,1224.54 758.926,1225.8 761.057,1227.04 763.187,1228.28 765.318,1229.5 767.449,1230.72 769.58,1231.92 771.711,1233.11 773.841,1234.3 775.972,1235.47 778.103,1236.64 780.234,1237.79 782.365,1238.94 784.495,1240.07 786.626,1241.2 788.757,1242.31 790.888,1243.42 793.018,1244.52 795.149,1245.61 797.28,1246.69 799.411,1247.76 801.542,1248.82 803.672,1249.87 805.803,1250.92 807.934,1251.96 810.065,1252.98 812.196,1254 814.326,1255.01 816.457,1256.01 818.588,1257.01 820.719,1257.99 822.85,1258.97 824.98,1259.94 827.111,1260.9 829.242,1261.85 831.373,1262.8 833.503,1263.74 835.634,1264.67 837.765,1265.59 839.896,1266.5 842.027,1267.41 844.157,1268.31 846.288,1269.2 848.419,1270.09 850.55,1270.96 852.681,1271.84 854.811,1272.7 856.942,1273.56 859.073,1274.4 861.204,1275.25 863.335,1276.08 865.465,1276.91 867.596,1277.73 869.727,1278.55 871.858,1279.36 873.988,1280.16 876.119,1280.96 878.25,1281.74 880.381,1282.53 882.512,1283.3 884.642,1284.07 886.773,1284.84 888.904,1285.6 891.035,1286.35 893.166,1287.09 895.296,1287.83 897.427,1288.57 899.558,1289.29 901.689,1290.02 903.82,1290.73 905.95,1291.44 908.081,1292.15 910.212,1292.85 912.343,1293.54 914.473,1294.23 916.604,1294.91 918.735,1295.59 920.866,1296.26 922.997,1296.92 925.127,1297.58 927.258,1298.24 929.389,1298.89 931.52,1299.53 933.651,1300.17 935.781,1300.81 937.912,1301.43 940.043,1302.06 942.174,1302.68 944.304,1303.29 946.435,1303.9 948.566,1304.5 950.697,1305.1 952.828,1305.7 954.958,1306.29 957.089,1306.87 959.22,1307.45 961.351,1308.03 963.482,1308.6 965.612,1309.16 967.743,1309.73 969.874,1310.28 972.005,1310.84 974.136,1311.38 976.266,1311.93 978.397,1312.47 980.528,1313 982.659,1313.53 984.789,1314.06 986.92,1314.58 989.051,1315.1 991.182,1315.62 993.313,1316.13 995.443,1316.63 997.574,1317.14 999.705,1317.63 1001.84,1318.13 1003.97,1318.62 1006.1,1319.1 1008.23,1319.59 1010.36,1320.07 1012.49,1320.54 1014.62,1321.01 1016.75,1321.48 1018.88,1321.94 1021.01,1322.4 1023.14,1322.86 1025.27,1323.31 1027.41,1323.76 1029.54,1324.21 1031.67,1324.65 1033.8,1325.09 1035.93,1325.52 1038.06,1325.96 1040.19,1326.39 1042.32,1326.81 1044.45,1327.23 1046.58,1327.65 1048.71,1328.07 1050.84,1328.48 1052.97,1328.89 1055.11,1329.29 1057.24,1329.7 1059.37,1330.1 1061.5,1330.49 1063.63,1330.89 1065.76,1331.28 1067.89,1331.66 1070.02,1332.05 1072.15,1332.43 1074.28,1332.81 1076.41,1333.19 1078.54,1333.56 1080.67,1333.93 1082.81,1334.29 1084.94,1334.66 1087.07,1335.02 1089.2,1335.38 1091.33,1335.73 1093.46,1336.09 1095.59,1336.44 1097.72,1336.79 1099.85,1337.13 1101.98,1337.47 1104.11,1337.81 1106.24,1338.15 1108.38,1338.48 1110.51,1338.82 1112.64,1339.15 1114.77,1339.47 1116.9,1339.8 1119.03,1340.12 1121.16,1340.44 1123.29,1340.75 1125.42,1341.07 1127.55,1341.38 1129.68,1341.69 1131.81,1342 1133.94,1342.3 1136.08,1342.6 1138.21,1342.9 1140.34,1343.2 1142.47,1343.5 1144.6,1343.79 1146.73,1344.08 1148.86,1344.37 1150.99,1344.66 1153.12,1344.94 1155.25,1345.22 1157.38,1345.5 1159.51,1345.78 1161.64,1346.05 1163.78,1346.33 1165.91,1346.6 1168.04,1346.87 1170.17,1347.14 1172.3,1347.4 1174.43,1347.66 1176.56,1347.92 1178.69,1348.18 1180.82,1348.44 1182.95,1348.7 1185.08,1348.95 1187.21,1349.2 1189.35,1349.45 1191.48,1349.7 1193.61,1349.94 1195.74,1350.19 1197.87,1350.43 1200,1350.67 1202.13,1350.91 1204.26,1351.14 1206.39,1351.38 1208.52,1351.61 1210.65,1351.84 1212.78,1352.07 1214.91,1352.3 1217.05,1352.52 1219.18,1352.75 1221.31,1352.97 1223.44,1353.19 1225.57,1353.41 1227.7,1353.63 1229.83,1353.84 1231.96,1354.06 1234.09,1354.27 1236.22,1354.48 1238.35,1354.69 1240.48,1354.9 1242.61,1355.11 1244.75,1355.31 1246.88,1355.51 1249.01,1355.72 1251.14,1355.92 1253.27,1356.12 1255.4,1356.31 1257.53,1356.51 1259.66,1356.7 1261.79,1356.9 1263.92,1357.09 1266.05,1357.28 1268.18,1357.47 1270.32,1357.66 1272.45,1357.84 1274.58,1358.03 1276.71,1358.21 1278.84,1358.39 1280.97,1358.57 1283.1,1358.75 1285.23,1358.93 1287.36,1359.11 1289.49,1359.28 1291.62,1359.46 1293.75,1359.63 1295.88,1359.8 1298.02,1359.97 1300.15,1360.14 1302.28,1360.31 1304.41,1360.48 1306.54,1360.64 1308.67,1360.81 1310.8,1360.97 1312.93,1361.13 1315.06,1361.29 1317.19,1361.45 1319.32,1361.61 1321.45,1361.77 1323.58,1361.93 1325.72,1362.08 1327.85,1362.23 1329.98,1362.39 1332.11,1362.54 1334.24,1362.69 1336.37,1362.84 1338.5,1362.99 1340.63,1363.13 1342.76,1363.28 1344.89,1363.43 1347.02,1363.57 1349.15,1363.71 1351.29,1363.85 1353.42,1363.99 1355.55,1364.13 1357.68,1364.27 1359.81,1364.41 1361.94,1364.55 1364.07,1364.68 1366.2,1364.82 1368.33,1364.95 1370.46,1365.08 1372.59,1365.22 1374.72,1365.35 1376.85,1365.48 1378.99,1365.6 1381.12,1365.73 1383.25,1365.86 1385.38,1365.99 1387.51,1366.11 1389.64,1366.23 1391.77,1366.36 1393.9,1366.48 1396.03,1366.6 1398.16,1366.72 1400.29,1366.84 1402.42,1366.96 1404.55,1367.08 1406.69,1367.2 1408.82,1367.31 1410.95,1367.43 1413.08,1367.54 1415.21,1367.66 1417.34,1367.77 1419.47,1367.88 1421.6,1367.99 1423.73,1368.1 1425.86,1368.21 1427.99,1368.32 1430.12,1368.43 1432.26,1368.54 1434.39,1368.64 1436.52,1368.75 1438.65,1368.85 1440.78,1368.96 1442.91,1369.06 1445.04,1369.16 1447.17,1369.26 1449.3,1369.37 1451.43,1369.47 1453.56,1369.57 1455.69,1369.67 1457.82,1369.76 1459.96,1369.86 1462.09,1369.96 1464.22,1370.05 1466.35,1370.15 1468.48,1370.25 1470.61,1370.34 1472.74,1370.43 1474.87,1370.53 1477,1370.62 1479.13,1370.71 1481.26,1370.8 1483.39,1370.89 1485.52,1370.98 1487.66,1371.07 1489.79,1371.16 1491.92,1371.25 1494.05,1371.33 1496.18,1371.42 1498.31,1371.51 1500.44,1371.59 1502.57,1371.68 1504.7,1371.76 1506.83,1371.85 1508.96,1371.93 1511.09,1372.01 1513.23,1372.09 1515.36,1372.18 1517.49,1372.26 1519.62,1372.34 1521.75,1372.42 1523.88,1372.5 1526.01,1372.58 1528.14,1372.65 1530.27,1372.73 1532.4,1372.81 1534.53,1372.89 1536.66,1372.96 1538.79,1373.04 1540.93,1373.11 1543.06,1373.19 1545.19,1373.26 1547.32,1373.33 1549.45,1373.41 1551.58,1373.48 1553.71,1373.55 1555.84,1373.62 1557.97,1373.69 1560.1,1373.77 1562.23,1373.84 1564.36,1373.9 1566.49,1373.97 1568.63,1374.04 1570.76,1374.11 1572.89,1374.18 1575.02,1374.25 1577.15,1374.31 1579.28,1374.38 1581.41,1374.44 1583.54,1374.51 1585.67,1374.57 1587.8,1374.64 1589.93,1374.7 1592.06,1374.77 1594.2,1374.83 1596.33,1374.89 1598.46,1374.95 1600.59,1375.02 1602.72,1375.08 1604.85,1375.14 1606.98,1375.2 1609.11,1375.26 1611.24,1375.32 1613.37,1375.38 1615.5,1375.44 1617.63,1375.49 1619.76,1375.55 1621.9,1375.61 1624.03,1375.67 1626.16,1375.72 1628.29,1375.78 1630.42,1375.84 1632.55,1375.89 1634.68,1375.95 1636.81,1376 1638.94,1376.06 1641.07,1376.11 1643.2,1376.16 1645.33,1376.22 1647.46,1376.27 1649.6,1376.32 1651.73,1376.37 1653.86,1376.43 1655.99,1376.48 1658.12,1376.53 1660.25,1376.58 1662.38,1376.63 1664.51,1376.68 1666.64,1376.73 1668.77,1376.78 1670.9,1376.83 1673.03,1376.87 1675.17,1376.92 1677.3,1376.97 1679.43,1377.02 1681.56,1377.07 1683.69,1377.11 1685.82,1377.16 1687.95,1377.21 1690.08,1377.25 1692.21,1377.3 1694.34,1377.34 1696.47,1377.39 1698.6,1377.43 1700.73,1377.48 1702.87,1377.52 1705,1377.56 1707.13,1377.61 1709.26,1377.65 1711.39,1377.69 1713.52,1377.74 1715.65,1377.78 1717.78,1377.82 1719.91,1377.86 1722.04,1377.9 1724.17,1377.94 1726.3,1377.98 1728.43,1378.03 1730.57,1378.07 1732.7,1378.11 1734.83,1378.15 1736.96,1378.18 1739.09,1378.22 1741.22,1378.26 1743.35,1378.3 1745.48,1378.34 1747.61,1378.38 1749.74,1378.42 1751.87,1378.45 1754,1378.49 1756.14,1378.53 1758.27,1378.57 1760.4,1378.6 1762.53,1378.64 1764.66,1378.67 1766.79,1378.71 1768.92,1378.75 1771.05,1378.78 1773.18,1378.82 1775.31,1378.85 1777.44,1378.89 1779.57,1378.92 1781.7,1378.96 1783.84,1378.99 1785.97,1379.02 1788.1,1379.06 1790.23,1379.09 1792.36,1379.12 1794.49,1379.16 1796.62,1379.19 1798.75,1379.22 1800.88,1379.26 1803.01,1379.29 1805.14,1379.32 1807.27,1379.35 1809.4,1379.38 1811.54,1379.42 1813.67,1379.45 1815.8,1379.48 1817.93,1379.51 1820.06,1379.54 1822.19,1379.57 1824.32,1379.6 1826.45,1379.63 1828.58,1379.66 1830.71,1379.69 1832.84,1379.72 1834.97,1379.75 1837.11,1379.78 1839.24,1379.81 1841.37,1379.84 1843.5,1379.86 1845.63,1379.89 1847.76,1379.92 1849.89,1379.95 1852.02,1379.98 1854.15,1380 1856.28,1380.03 1858.41,1380.06 1860.54,1380.09 1862.67,1380.11 1864.81,1380.14 1866.94,1380.17 1869.07,1380.19 1871.2,1380.22 1873.33,1380.25 1875.46,1380.27 1877.59,1380.3 1879.72,1380.32 1881.85,1380.35 1883.98,1380.37 1886.11,1380.4 1888.24,1380.42 1890.37,1380.45 1892.51,1380.47 1894.64,1380.5 1896.77,1380.52 1898.9,1380.55 1901.03,1380.57 1903.16,1380.59 1905.29,1380.62 1907.42,1380.64 1909.55,1380.66 1911.68,1380.69 1913.81,1380.71 1915.94,1380.73 1918.07,1380.76 1920.21,1380.78 1922.34,1380.8 1924.47,1380.82 1926.6,1380.84 1928.73,1380.87 1930.86,1380.89 1932.99,1380.91 1935.12,1380.93 1937.25,1380.95 1939.38,1380.97 1941.51,1380.99 1943.64,1381.01 1945.78,1381.04 1947.91,1381.06 1950.04,1381.08 1952.17,1381.1 1954.3,1381.12 1956.43,1381.14 1958.56,1381.16 1960.69,1381.18 1962.82,1381.2 1964.95,1381.22 1967.08,1381.24 1969.21,1381.25 1971.34,1381.27 1973.48,1381.29 1975.61,1381.31 1977.74,1381.33 1979.87,1381.35 1982,1381.37 1984.13,1381.39 1986.26,1381.4 1988.39,1381.42 1990.52,1381.44 1992.65,1381.46 1994.78,1381.47 1996.91,1381.49 1999.04,1381.51 2001.18,1381.53 2003.31,1381.54 2005.44,1381.56 2007.57,1381.58 2009.7,1381.6 2011.83,1381.61 2013.96,1381.63 2016.09,1381.64 2018.22,1381.66 2020.35,1381.68 2022.48,1381.69 2024.61,1381.71 2026.75,1381.73 2028.88,1381.74 2031.01,1381.76 2033.14,1381.77 2035.27,1381.79 2037.4,1381.8 2039.53,1381.82 2041.66,1381.83 2043.79,1381.85 2045.92,1381.86 2048.05,1381.88 2050.18,1381.89 2052.31,1381.91 2054.45,1381.92 2056.58,1381.94 2058.71,1381.95 2060.84,1381.97 2062.97,1381.98 2065.1,1382 2067.23,1382.01 2069.36,1382.02 2071.49,1382.04 2073.62,1382.05 2075.75,1382.06 2077.88,1382.08 2080.01,1382.09 2082.15,1382.11 2084.28,1382.12 2086.41,1382.13 2088.54,1382.15 2090.67,1382.16 2092.8,1382.17 2094.93,1382.18 2097.06,1382.2 2099.19,1382.21 2101.32,1382.22 2103.45,1382.24 2105.58,1382.25 2107.72,1382.26 2109.85,1382.27 2111.98,1382.29 2114.11,1382.3 2116.24,1382.31 2118.37,1382.32 2120.5,1382.33 2122.63,1382.35 2124.76,1382.36 2126.89,1382.37 2129.02,1382.38 2131.15,1382.39 2133.28,1382.41 2135.42,1382.42 2137.55,1382.43 2139.68,1382.44 2141.81,1382.45 2143.94,1382.46 2146.07,1382.47 2148.2,1382.49 2150.33,1382.5 2152.46,1382.51 2154.59,1382.52 2156.72,1382.53 2158.85,1382.54 2160.98,1382.55 2163.12,1382.56 2165.25,1382.57 2167.38,1382.58 2169.51,1382.59 2171.64,1382.6 2173.77,1382.61 2175.9,1382.62 2178.03,1382.63 2180.16,1382.65 2182.29,1382.66 2184.42,1382.67 2186.55,1382.68 2188.69,1382.69 2190.82,1382.7 2192.95,1382.71 2195.08,1382.71 2197.21,1382.72 2199.34,1382.73 2201.47,1382.74 2203.6,1382.75 2205.73,1382.76 2207.86,1382.77 2209.99,1382.78 2212.12,1382.79 2214.25,1382.8 2216.39,1382.81 2218.52,1382.82 2220.65,1382.83 2222.78,1382.84 2224.91,1382.85 2227.04,1382.85 2229.17,1382.86 2231.3,1382.87 2233.43,1382.88 2235.56,1382.89 2237.69,1382.9 2239.82,1382.91 2241.95,1382.91 2244.09,1382.92 2246.22,1382.93 2248.35,1382.94 2250.48,1382.95 2252.61,1382.96 2254.74,1382.96 2256.87,1382.97 2259,1382.98 2261.13,1382.99 2263.26,1383 2265.39,1383 2267.52,1383.01 2269.66,1383.02 2271.79,1383.03 2273.92,1383.04 2276.05,1383.04 2278.18,1383.05 2280.31,1383.06 2282.44,1383.07 2284.57,1383.07 2286.7,1383.08 2288.83,1383.09 2290.96,1383.1 2293.09,1383.1 2295.22,1383.11 2297.36,1383.12 2299.49,1383.12 2301.62,1383.13 2303.75,1383.14 2305.88,1383.15 2308.01,1383.15 2310.14,1383.16 2312.27,1383.17 2314.4,1383.17 2316.53,1383.18 2318.66,1383.19 2320.79,1383.19 2322.92,1383.2 2325.06,1383.21 2327.19,1383.21 2329.32,1383.22 2331.45,1383.23 2333.58,1383.23 2335.71,1383.24 2337.84,1383.25 2339.97,1383.25 2342.1,1383.26 2344.23,1383.26 2346.36,1383.27 2348.49,1383.28 2350.63,1383.28 2352.76,1383.29 "/>
<path clip-path="url(#clip090)" d="M1809.54 248.629 L2281.8 248.629 L2281.8 93.1086 L1809.54 93.1086  Z" fill="#ffffff" fill-rule="evenodd" fill-opacity="1"/>
<polyline clip-path="url(#clip090)" style="stroke:#000000; stroke-linecap:round; stroke-linejoin:round; stroke-width:4; stroke-opacity:1; fill:none" points="1809.54,248.629 2281.8,248.629 2281.8,93.1086 1809.54,93.1086 1809.54,248.629 "/>
<polyline clip-path="url(#clip090)" style="stroke:#009af9; stroke-linecap:round; stroke-linejoin:round; stroke-width:4; stroke-opacity:1; fill:none" points="1833.19,144.949 1975.1,144.949 "/>
<path clip-path="url(#clip090)" d="M1998.75 136.303 L2003.27 136.303 L2011.37 158.062 L2019.47 136.303 L2023.98 136.303 L2014.26 162.229 L2008.47 162.229 L1998.75 136.303 Z" fill="#000000" fill-rule="nonzero" fill-opacity="1" /><path clip-path="url(#clip090)" d="M2031.28 158.293 L2038.91 158.293 L2038.91 131.928 L2030.6 133.595 L2030.6 129.335 L2038.87 127.669 L2043.54 127.669 L2043.54 158.293 L2051.18 158.293 L2051.18 162.229 L2031.28 162.229 L2031.28 158.293 Z" fill="#000000" fill-rule="nonzero" fill-opacity="1" /><path clip-path="url(#clip090)" d="M2069.28 145.585 L2069.28 152.807 L2077.41 152.807 L2077.41 155.006 L2069.28 155.006 L2069.28 162.229 L2066.85 162.229 L2066.85 155.006 L2058.73 155.006 L2058.73 152.807 L2066.85 152.807 L2066.85 145.585 L2069.28 145.585 Z" fill="#000000" fill-rule="nonzero" fill-opacity="1" /><path clip-path="url(#clip090)" d="M2101.58 137.067 L2101.58 141.094 Q2099.77 140.169 2097.83 139.706 Q2095.88 139.243 2093.8 139.243 Q2090.63 139.243 2089.03 140.215 Q2087.46 141.187 2087.46 143.131 Q2087.46 144.613 2088.59 145.469 Q2089.72 146.303 2093.15 147.067 L2094.61 147.391 Q2099.15 148.363 2101.04 150.145 Q2102.96 151.905 2102.96 155.076 Q2102.96 158.687 2100.09 160.793 Q2097.25 162.9 2092.25 162.9 Q2090.16 162.9 2087.9 162.483 Q2085.65 162.09 2083.15 161.28 L2083.15 156.881 Q2085.51 158.108 2087.8 158.733 Q2090.09 159.335 2092.34 159.335 Q2095.35 159.335 2096.97 158.317 Q2098.59 157.275 2098.59 155.4 Q2098.59 153.664 2097.41 152.738 Q2096.25 151.812 2092.29 150.956 L2090.81 150.608 Q2086.85 149.775 2085.09 148.062 Q2083.34 146.326 2083.34 143.317 Q2083.34 139.659 2085.93 137.669 Q2088.52 135.678 2093.29 135.678 Q2095.65 135.678 2097.73 136.025 Q2099.82 136.372 2101.58 137.067 Z" fill="#000000" fill-rule="nonzero" fill-opacity="1" /><path clip-path="url(#clip090)" d="M2113.96 128.942 L2113.96 136.303 L2122.73 136.303 L2122.73 139.613 L2113.96 139.613 L2113.96 153.687 Q2113.96 156.858 2114.82 157.761 Q2115.7 158.664 2118.36 158.664 L2122.73 158.664 L2122.73 162.229 L2118.36 162.229 Q2113.43 162.229 2111.55 160.4 Q2109.68 158.548 2109.68 153.687 L2109.68 139.613 L2106.55 139.613 L2106.55 136.303 L2109.68 136.303 L2109.68 128.942 L2113.96 128.942 Z" fill="#000000" fill-rule="nonzero" fill-opacity="1" /><path clip-path="url(#clip090)" d="M2138.38 139.289 Q2134.96 139.289 2132.96 141.974 Q2130.97 144.636 2130.97 149.289 Q2130.97 153.942 2132.94 156.627 Q2134.93 159.289 2138.38 159.289 Q2141.78 159.289 2143.77 156.604 Q2145.77 153.918 2145.77 149.289 Q2145.77 144.682 2143.77 141.997 Q2141.78 139.289 2138.38 139.289 M2138.38 135.678 Q2143.94 135.678 2147.11 139.289 Q2150.28 142.9 2150.28 149.289 Q2150.28 155.655 2147.11 159.289 Q2143.94 162.9 2138.38 162.9 Q2132.8 162.9 2129.63 159.289 Q2126.48 155.655 2126.48 149.289 Q2126.48 142.9 2129.63 139.289 Q2132.8 135.678 2138.38 135.678 Z" fill="#000000" fill-rule="nonzero" fill-opacity="1" /><path clip-path="url(#clip090)" d="M2172.36 140.284 Q2171.64 139.868 2170.79 139.682 Q2169.95 139.474 2168.94 139.474 Q2165.33 139.474 2163.38 141.835 Q2161.46 144.173 2161.46 148.571 L2161.46 162.229 L2157.18 162.229 L2157.18 136.303 L2161.46 136.303 L2161.46 140.331 Q2162.8 137.969 2164.95 136.835 Q2167.11 135.678 2170.19 135.678 Q2170.63 135.678 2171.16 135.747 Q2171.69 135.794 2172.34 135.909 L2172.36 140.284 Z" fill="#000000" fill-rule="nonzero" fill-opacity="1" /><path clip-path="url(#clip090)" d="M2188.61 149.196 Q2183.45 149.196 2181.46 150.377 Q2179.47 151.557 2179.47 154.405 Q2179.47 156.673 2180.95 158.016 Q2182.45 159.335 2185.02 159.335 Q2188.57 159.335 2190.7 156.835 Q2192.85 154.312 2192.85 150.145 L2192.85 149.196 L2188.61 149.196 M2197.11 147.437 L2197.11 162.229 L2192.85 162.229 L2192.85 158.293 Q2191.39 160.655 2189.21 161.789 Q2187.04 162.9 2183.89 162.9 Q2179.91 162.9 2177.55 160.678 Q2175.21 158.432 2175.21 154.682 Q2175.21 150.307 2178.13 148.085 Q2181.07 145.863 2186.88 145.863 L2192.85 145.863 L2192.85 145.446 Q2192.85 142.507 2190.9 140.909 Q2188.98 139.289 2185.49 139.289 Q2183.27 139.289 2181.16 139.821 Q2179.05 140.354 2177.11 141.419 L2177.11 137.483 Q2179.45 136.581 2181.64 136.141 Q2183.84 135.678 2185.93 135.678 Q2191.55 135.678 2194.33 138.594 Q2197.11 141.511 2197.11 147.437 Z" fill="#000000" fill-rule="nonzero" fill-opacity="1" /><path clip-path="url(#clip090)" d="M2222.94 148.965 Q2222.94 144.335 2221.02 141.789 Q2219.12 139.243 2215.67 139.243 Q2212.25 139.243 2210.33 141.789 Q2208.43 144.335 2208.43 148.965 Q2208.43 153.571 2210.33 156.118 Q2212.25 158.664 2215.67 158.664 Q2219.12 158.664 2221.02 156.118 Q2222.94 153.571 2222.94 148.965 M2227.2 159.011 Q2227.2 165.631 2224.26 168.849 Q2221.32 172.09 2215.26 172.09 Q2213.01 172.09 2211.02 171.742 Q2209.03 171.418 2207.15 170.724 L2207.15 166.58 Q2209.03 167.599 2210.86 168.085 Q2212.69 168.571 2214.58 168.571 Q2218.77 168.571 2220.86 166.372 Q2222.94 164.196 2222.94 159.775 L2222.94 157.668 Q2221.62 159.96 2219.56 161.094 Q2217.5 162.229 2214.63 162.229 Q2209.86 162.229 2206.95 158.594 Q2204.03 154.96 2204.03 148.965 Q2204.03 142.946 2206.95 139.312 Q2209.86 135.678 2214.63 135.678 Q2217.5 135.678 2219.56 136.812 Q2221.62 137.946 2222.94 140.238 L2222.94 136.303 L2227.2 136.303 L2227.2 159.011 Z" fill="#000000" fill-rule="nonzero" fill-opacity="1" /><path clip-path="url(#clip090)" d="M2258.15 148.201 L2258.15 150.284 L2238.57 150.284 Q2238.84 154.682 2241.2 156.997 Q2243.59 159.289 2247.82 159.289 Q2250.28 159.289 2252.57 158.687 Q2254.89 158.085 2257.15 156.881 L2257.15 160.909 Q2254.86 161.881 2252.45 162.391 Q2250.05 162.9 2247.57 162.9 Q2241.37 162.9 2237.73 159.289 Q2234.12 155.678 2234.12 149.52 Q2234.12 143.155 2237.55 139.428 Q2241 135.678 2246.83 135.678 Q2252.06 135.678 2255.09 139.057 Q2258.15 142.414 2258.15 148.201 M2253.89 146.951 Q2253.84 143.456 2251.92 141.372 Q2250.02 139.289 2246.88 139.289 Q2243.31 139.289 2241.16 141.303 Q2239.03 143.317 2238.7 146.974 L2253.89 146.951 Z" fill="#000000" fill-rule="nonzero" fill-opacity="1" /><polyline clip-path="url(#clip090)" style="stroke:#e26f46; stroke-linecap:round; stroke-linejoin:round; stroke-width:4; stroke-opacity:1; fill:none" points="1833.19,196.789 1975.1,196.789 "/>
<path clip-path="url(#clip090)" d="M1998.75 188.143 L2003.27 188.143 L2011.37 209.902 L2019.47 188.143 L2023.98 188.143 L2014.26 214.069 L2008.47 214.069 L1998.75 188.143 Z" fill="#000000" fill-rule="nonzero" fill-opacity="1" /><path clip-path="url(#clip090)" d="M2030.51 179.509 L2048.87 179.509 L2048.87 183.444 L2034.79 183.444 L2034.79 191.916 Q2035.81 191.569 2036.83 191.407 Q2037.85 191.222 2038.87 191.222 Q2044.65 191.222 2048.03 194.393 Q2051.41 197.564 2051.41 202.981 Q2051.41 208.559 2047.94 211.661 Q2044.47 214.74 2038.15 214.74 Q2035.97 214.74 2033.71 214.37 Q2031.46 213.999 2029.05 213.258 L2029.05 208.559 Q2031.14 209.694 2033.36 210.249 Q2035.58 210.805 2038.06 210.805 Q2042.06 210.805 2044.4 208.698 Q2046.74 206.592 2046.74 202.981 Q2046.74 199.37 2044.4 197.263 Q2042.06 195.157 2038.06 195.157 Q2036.18 195.157 2034.31 195.573 Q2032.46 195.99 2030.51 196.87 L2030.51 179.509 Z" fill="#000000" fill-rule="nonzero" fill-opacity="1" /><path clip-path="url(#clip090)" d="M2069.28 197.425 L2069.28 204.647 L2077.41 204.647 L2077.41 206.846 L2069.28 206.846 L2069.28 214.069 L2066.85 214.069 L2066.85 206.846 L2058.73 206.846 L2058.73 204.647 L2066.85 204.647 L2066.85 197.425 L2069.28 197.425 Z" fill="#000000" fill-rule="nonzero" fill-opacity="1" /><path clip-path="url(#clip090)" d="M2101.58 188.907 L2101.58 192.934 Q2099.77 192.009 2097.83 191.546 Q2095.88 191.083 2093.8 191.083 Q2090.63 191.083 2089.03 192.055 Q2087.46 193.027 2087.46 194.971 Q2087.46 196.453 2088.59 197.309 Q2089.72 198.143 2093.15 198.907 L2094.61 199.231 Q2099.15 200.203 2101.04 201.985 Q2102.96 203.745 2102.96 206.916 Q2102.96 210.527 2100.09 212.633 Q2097.25 214.74 2092.25 214.74 Q2090.16 214.74 2087.9 214.323 Q2085.65 213.93 2083.15 213.12 L2083.15 208.721 Q2085.51 209.948 2087.8 210.573 Q2090.09 211.175 2092.34 211.175 Q2095.35 211.175 2096.97 210.157 Q2098.59 209.115 2098.59 207.24 Q2098.59 205.504 2097.41 204.578 Q2096.25 203.652 2092.29 202.796 L2090.81 202.448 Q2086.85 201.615 2085.09 199.902 Q2083.34 198.166 2083.34 195.157 Q2083.34 191.499 2085.93 189.509 Q2088.52 187.518 2093.29 187.518 Q2095.65 187.518 2097.73 187.865 Q2099.82 188.212 2101.58 188.907 Z" fill="#000000" fill-rule="nonzero" fill-opacity="1" /><path clip-path="url(#clip090)" d="M2113.96 180.782 L2113.96 188.143 L2122.73 188.143 L2122.73 191.453 L2113.96 191.453 L2113.96 205.527 Q2113.96 208.698 2114.82 209.601 Q2115.7 210.504 2118.36 210.504 L2122.73 210.504 L2122.73 214.069 L2118.36 214.069 Q2113.43 214.069 2111.55 212.24 Q2109.68 210.388 2109.68 205.527 L2109.68 191.453 L2106.55 191.453 L2106.55 188.143 L2109.68 188.143 L2109.68 180.782 L2113.96 180.782 Z" fill="#000000" fill-rule="nonzero" fill-opacity="1" /><path clip-path="url(#clip090)" d="M2138.38 191.129 Q2134.96 191.129 2132.96 193.814 Q2130.97 196.476 2130.97 201.129 Q2130.97 205.782 2132.94 208.467 Q2134.93 211.129 2138.38 211.129 Q2141.78 211.129 2143.77 208.444 Q2145.77 205.758 2145.77 201.129 Q2145.77 196.522 2143.77 193.837 Q2141.78 191.129 2138.38 191.129 M2138.38 187.518 Q2143.94 187.518 2147.11 191.129 Q2150.28 194.74 2150.28 201.129 Q2150.28 207.495 2147.11 211.129 Q2143.94 214.74 2138.38 214.74 Q2132.8 214.74 2129.63 211.129 Q2126.48 207.495 2126.48 201.129 Q2126.48 194.74 2129.63 191.129 Q2132.8 187.518 2138.38 187.518 Z" fill="#000000" fill-rule="nonzero" fill-opacity="1" /><path clip-path="url(#clip090)" d="M2172.36 192.124 Q2171.64 191.708 2170.79 191.522 Q2169.95 191.314 2168.94 191.314 Q2165.33 191.314 2163.38 193.675 Q2161.46 196.013 2161.46 200.411 L2161.46 214.069 L2157.18 214.069 L2157.18 188.143 L2161.46 188.143 L2161.46 192.171 Q2162.8 189.809 2164.95 188.675 Q2167.11 187.518 2170.19 187.518 Q2170.63 187.518 2171.16 187.587 Q2171.69 187.634 2172.34 187.749 L2172.36 192.124 Z" fill="#000000" fill-rule="nonzero" fill-opacity="1" /><path clip-path="url(#clip090)" d="M2188.61 201.036 Q2183.45 201.036 2181.46 202.217 Q2179.47 203.397 2179.47 206.245 Q2179.47 208.513 2180.95 209.856 Q2182.45 211.175 2185.02 211.175 Q2188.57 211.175 2190.7 208.675 Q2192.85 206.152 2192.85 201.985 L2192.85 201.036 L2188.61 201.036 M2197.11 199.277 L2197.11 214.069 L2192.85 214.069 L2192.85 210.133 Q2191.39 212.495 2189.21 213.629 Q2187.04 214.74 2183.89 214.74 Q2179.91 214.74 2177.55 212.518 Q2175.21 210.272 2175.21 206.522 Q2175.21 202.147 2178.13 199.925 Q2181.07 197.703 2186.88 197.703 L2192.85 197.703 L2192.85 197.286 Q2192.85 194.347 2190.9 192.749 Q2188.98 191.129 2185.49 191.129 Q2183.27 191.129 2181.16 191.661 Q2179.05 192.194 2177.11 193.259 L2177.11 189.323 Q2179.45 188.421 2181.64 187.981 Q2183.84 187.518 2185.93 187.518 Q2191.55 187.518 2194.33 190.434 Q2197.11 193.351 2197.11 199.277 Z" fill="#000000" fill-rule="nonzero" fill-opacity="1" /><path clip-path="url(#clip090)" d="M2222.94 200.805 Q2222.94 196.175 2221.02 193.629 Q2219.12 191.083 2215.67 191.083 Q2212.25 191.083 2210.33 193.629 Q2208.43 196.175 2208.43 200.805 Q2208.43 205.411 2210.33 207.958 Q2212.25 210.504 2215.67 210.504 Q2219.12 210.504 2221.02 207.958 Q2222.94 205.411 2222.94 200.805 M2227.2 210.851 Q2227.2 217.471 2224.26 220.689 Q2221.32 223.93 2215.26 223.93 Q2213.01 223.93 2211.02 223.582 Q2209.03 223.258 2207.15 222.564 L2207.15 218.42 Q2209.03 219.439 2210.86 219.925 Q2212.69 220.411 2214.58 220.411 Q2218.77 220.411 2220.86 218.212 Q2222.94 216.036 2222.94 211.615 L2222.94 209.508 Q2221.62 211.8 2219.56 212.934 Q2217.5 214.069 2214.63 214.069 Q2209.86 214.069 2206.95 210.434 Q2204.03 206.8 2204.03 200.805 Q2204.03 194.786 2206.95 191.152 Q2209.86 187.518 2214.63 187.518 Q2217.5 187.518 2219.56 188.652 Q2221.62 189.786 2222.94 192.078 L2222.94 188.143 L2227.2 188.143 L2227.2 210.851 Z" fill="#000000" fill-rule="nonzero" fill-opacity="1" /><path clip-path="url(#clip090)" d="M2258.15 200.041 L2258.15 202.124 L2238.57 202.124 Q2238.84 206.522 2241.2 208.837 Q2243.59 211.129 2247.82 211.129 Q2250.28 211.129 2252.57 210.527 Q2254.89 209.925 2257.15 208.721 L2257.15 212.749 Q2254.86 213.721 2252.45 214.231 Q2250.05 214.74 2247.57 214.74 Q2241.37 214.74 2237.73 211.129 Q2234.12 207.518 2234.12 201.36 Q2234.12 194.995 2237.55 191.268 Q2241 187.518 2246.83 187.518 Q2252.06 187.518 2255.09 190.897 Q2258.15 194.254 2258.15 200.041 M2253.89 198.791 Q2253.84 195.296 2251.92 193.212 Q2250.02 191.129 2246.88 191.129 Q2243.31 191.129 2241.16 193.143 Q2239.03 195.157 2238.7 198.814 L2253.89 198.791 Z" fill="#000000" fill-rule="nonzero" fill-opacity="1" /></svg>
