<?xml version="1.0" encoding="utf-8"?>
<svg xmlns="http://www.w3.org/2000/svg" xmlns:xlink="http://www.w3.org/1999/xlink" width="600" height="400" viewBox="0 0 2400 1600">
<defs>
  <clipPath id="clip260">
    <rect x="0" y="0" width="2400" height="1600"/>
  </clipPath>
</defs>
<path clip-path="url(#clip260)" d="M0 1600 L2400 1600 L2400 0 L0 0  Z" fill="#ffffff" fill-rule="evenodd" fill-opacity="1"/>
<defs>
  <clipPath id="clip261">
    <rect x="480" y="0" width="1681" height="1600"/>
  </clipPath>
</defs>
<path clip-path="url(#clip260)" d="M193.936 1423.18 L2352.76 1423.18 L2352.76 47.2441 L193.936 47.2441  Z" fill="#ffffff" fill-rule="evenodd" fill-opacity="1"/>
<defs>
  <clipPath id="clip262">
    <rect x="193" y="47" width="2160" height="1377"/>
  </clipPath>
</defs>
<polyline clip-path="url(#clip262)" style="stroke:#000000; stroke-linecap:round; stroke-linejoin:round; stroke-width:2; stroke-opacity:0.1; fill:none" points="193.936,1423.18 193.936,47.2441 "/>
<polyline clip-path="url(#clip262)" style="stroke:#000000; stroke-linecap:round; stroke-linejoin:round; stroke-width:2; stroke-opacity:0.1; fill:none" points="733.641,1423.18 733.641,47.2441 "/>
<polyline clip-path="url(#clip262)" style="stroke:#000000; stroke-linecap:round; stroke-linejoin:round; stroke-width:2; stroke-opacity:0.1; fill:none" points="1273.35,1423.18 1273.35,47.2441 "/>
<polyline clip-path="url(#clip262)" style="stroke:#000000; stroke-linecap:round; stroke-linejoin:round; stroke-width:2; stroke-opacity:0.1; fill:none" points="1813.05,1423.18 1813.05,47.2441 "/>
<polyline clip-path="url(#clip262)" style="stroke:#000000; stroke-linecap:round; stroke-linejoin:round; stroke-width:2; stroke-opacity:0.1; fill:none" points="2352.76,1423.18 2352.76,47.2441 "/>
<polyline clip-path="url(#clip262)" style="stroke:#000000; stroke-linecap:round; stroke-linejoin:round; stroke-width:2; stroke-opacity:0.1; fill:none" points="193.936,1250.71 2352.76,1250.71 "/>
<polyline clip-path="url(#clip262)" style="stroke:#000000; stroke-linecap:round; stroke-linejoin:round; stroke-width:2; stroke-opacity:0.1; fill:none" points="193.936,972.052 2352.76,972.052 "/>
<polyline clip-path="url(#clip262)" style="stroke:#000000; stroke-linecap:round; stroke-linejoin:round; stroke-width:2; stroke-opacity:0.1; fill:none" points="193.936,693.394 2352.76,693.394 "/>
<polyline clip-path="url(#clip262)" style="stroke:#000000; stroke-linecap:round; stroke-linejoin:round; stroke-width:2; stroke-opacity:0.1; fill:none" points="193.936,414.736 2352.76,414.736 "/>
<polyline clip-path="url(#clip262)" style="stroke:#000000; stroke-linecap:round; stroke-linejoin:round; stroke-width:2; stroke-opacity:0.1; fill:none" points="193.936,136.077 2352.76,136.077 "/>
<polyline clip-path="url(#clip260)" style="stroke:#000000; stroke-linecap:round; stroke-linejoin:round; stroke-width:4; stroke-opacity:1; fill:none" points="193.936,1423.18 2352.76,1423.18 "/>
<polyline clip-path="url(#clip260)" style="stroke:#000000; stroke-linecap:round; stroke-linejoin:round; stroke-width:4; stroke-opacity:1; fill:none" points="193.936,1423.18 193.936,1404.28 "/>
<polyline clip-path="url(#clip260)" style="stroke:#000000; stroke-linecap:round; stroke-linejoin:round; stroke-width:4; stroke-opacity:1; fill:none" points="733.641,1423.18 733.641,1404.28 "/>
<polyline clip-path="url(#clip260)" style="stroke:#000000; stroke-linecap:round; stroke-linejoin:round; stroke-width:4; stroke-opacity:1; fill:none" points="1273.35,1423.18 1273.35,1404.28 "/>
<polyline clip-path="url(#clip260)" style="stroke:#000000; stroke-linecap:round; stroke-linejoin:round; stroke-width:4; stroke-opacity:1; fill:none" points="1813.05,1423.18 1813.05,1404.28 "/>
<polyline clip-path="url(#clip260)" style="stroke:#000000; stroke-linecap:round; stroke-linejoin:round; stroke-width:4; stroke-opacity:1; fill:none" points="2352.76,1423.18 2352.76,1404.28 "/>
<path clip-path="url(#clip260)" d="M171.32 1454.1 Q167.709 1454.1 165.881 1457.66 Q164.075 1461.2 164.075 1468.33 Q164.075 1475.44 165.881 1479.01 Q167.709 1482.55 171.32 1482.55 Q174.955 1482.55 176.76 1479.01 Q178.589 1475.44 178.589 1468.33 Q178.589 1461.2 176.76 1457.66 Q174.955 1454.1 171.32 1454.1 M171.32 1450.39 Q177.131 1450.39 180.186 1455 Q183.265 1459.58 183.265 1468.33 Q183.265 1477.06 180.186 1481.67 Q177.131 1486.25 171.32 1486.25 Q165.51 1486.25 162.432 1481.67 Q159.376 1477.06 159.376 1468.33 Q159.376 1459.58 162.432 1455 Q165.51 1450.39 171.32 1450.39 Z" fill="#000000" fill-rule="nonzero" fill-opacity="1" /><path clip-path="url(#clip260)" d="M191.482 1479.7 L196.367 1479.7 L196.367 1485.58 L191.482 1485.58 L191.482 1479.7 Z" fill="#000000" fill-rule="nonzero" fill-opacity="1" /><path clip-path="url(#clip260)" d="M216.552 1454.1 Q212.941 1454.1 211.112 1457.66 Q209.306 1461.2 209.306 1468.33 Q209.306 1475.44 211.112 1479.01 Q212.941 1482.55 216.552 1482.55 Q220.186 1482.55 221.991 1479.01 Q223.82 1475.44 223.82 1468.33 Q223.82 1461.2 221.991 1457.66 Q220.186 1454.1 216.552 1454.1 M216.552 1450.39 Q222.362 1450.39 225.417 1455 Q228.496 1459.58 228.496 1468.33 Q228.496 1477.06 225.417 1481.67 Q222.362 1486.25 216.552 1486.25 Q210.741 1486.25 207.663 1481.67 Q204.607 1477.06 204.607 1468.33 Q204.607 1459.58 207.663 1455 Q210.741 1450.39 216.552 1450.39 Z" fill="#000000" fill-rule="nonzero" fill-opacity="1" /><path clip-path="url(#clip260)" d="M711.523 1454.1 Q707.912 1454.1 706.083 1457.66 Q704.278 1461.2 704.278 1468.33 Q704.278 1475.44 706.083 1479.01 Q707.912 1482.55 711.523 1482.55 Q715.157 1482.55 716.963 1479.01 Q718.792 1475.44 718.792 1468.33 Q718.792 1461.2 716.963 1457.66 Q715.157 1454.1 711.523 1454.1 M711.523 1450.39 Q717.333 1450.39 720.389 1455 Q723.467 1459.58 723.467 1468.33 Q723.467 1477.06 720.389 1481.67 Q717.333 1486.25 711.523 1486.25 Q705.713 1486.25 702.634 1481.67 Q699.579 1477.06 699.579 1468.33 Q699.579 1459.58 702.634 1455 Q705.713 1450.39 711.523 1450.39 Z" fill="#000000" fill-rule="nonzero" fill-opacity="1" /><path clip-path="url(#clip260)" d="M731.685 1479.7 L736.569 1479.7 L736.569 1485.58 L731.685 1485.58 L731.685 1479.7 Z" fill="#000000" fill-rule="nonzero" fill-opacity="1" /><path clip-path="url(#clip260)" d="M746.801 1451.02 L765.157 1451.02 L765.157 1454.96 L751.083 1454.96 L751.083 1463.43 Q752.102 1463.08 753.12 1462.92 Q754.139 1462.73 755.157 1462.73 Q760.944 1462.73 764.324 1465.9 Q767.703 1469.08 767.703 1474.49 Q767.703 1480.07 764.231 1483.17 Q760.759 1486.25 754.439 1486.25 Q752.264 1486.25 749.995 1485.88 Q747.75 1485.51 745.342 1484.77 L745.342 1480.07 Q747.426 1481.2 749.648 1481.76 Q751.87 1482.32 754.347 1482.32 Q758.351 1482.32 760.689 1480.21 Q763.027 1478.1 763.027 1474.49 Q763.027 1470.88 760.689 1468.77 Q758.351 1466.67 754.347 1466.67 Q752.472 1466.67 750.597 1467.08 Q748.745 1467.5 746.801 1468.38 L746.801 1451.02 Z" fill="#000000" fill-rule="nonzero" fill-opacity="1" /><path clip-path="url(#clip260)" d="M1240.5 1481.64 L1248.14 1481.64 L1248.14 1455.28 L1239.83 1456.95 L1239.83 1452.69 L1248.09 1451.02 L1252.77 1451.02 L1252.77 1481.64 L1260.41 1481.64 L1260.41 1485.58 L1240.5 1485.58 L1240.5 1481.64 Z" fill="#000000" fill-rule="nonzero" fill-opacity="1" /><path clip-path="url(#clip260)" d="M1269.85 1479.7 L1274.73 1479.7 L1274.73 1485.58 L1269.85 1485.58 L1269.85 1479.7 Z" fill="#000000" fill-rule="nonzero" fill-opacity="1" /><path clip-path="url(#clip260)" d="M1294.92 1454.1 Q1291.31 1454.1 1289.48 1457.66 Q1287.67 1461.2 1287.67 1468.33 Q1287.67 1475.44 1289.48 1479.01 Q1291.31 1482.55 1294.92 1482.55 Q1298.55 1482.55 1300.36 1479.01 Q1302.19 1475.44 1302.19 1468.33 Q1302.19 1461.2 1300.36 1457.66 Q1298.55 1454.1 1294.92 1454.1 M1294.92 1450.39 Q1300.73 1450.39 1303.79 1455 Q1306.86 1459.58 1306.86 1468.33 Q1306.86 1477.06 1303.79 1481.67 Q1300.73 1486.25 1294.92 1486.25 Q1289.11 1486.25 1286.03 1481.67 Q1282.98 1477.06 1282.98 1468.33 Q1282.98 1459.58 1286.03 1455 Q1289.11 1450.39 1294.92 1450.39 Z" fill="#000000" fill-rule="nonzero" fill-opacity="1" /><path clip-path="url(#clip260)" d="M1780.7 1481.64 L1788.34 1481.64 L1788.34 1455.28 L1780.03 1456.95 L1780.03 1452.69 L1788.29 1451.02 L1792.97 1451.02 L1792.97 1481.64 L1800.61 1481.64 L1800.61 1485.58 L1780.7 1485.58 L1780.7 1481.64 Z" fill="#000000" fill-rule="nonzero" fill-opacity="1" /><path clip-path="url(#clip260)" d="M1810.05 1479.7 L1814.94 1479.7 L1814.94 1485.58 L1810.05 1485.58 L1810.05 1479.7 Z" fill="#000000" fill-rule="nonzero" fill-opacity="1" /><path clip-path="url(#clip260)" d="M1825.17 1451.02 L1843.53 1451.02 L1843.53 1454.96 L1829.45 1454.96 L1829.45 1463.43 Q1830.47 1463.08 1831.49 1462.92 Q1832.51 1462.73 1833.53 1462.73 Q1839.31 1462.73 1842.69 1465.9 Q1846.07 1469.08 1846.07 1474.49 Q1846.07 1480.07 1842.6 1483.17 Q1839.13 1486.25 1832.81 1486.25 Q1830.63 1486.25 1828.36 1485.88 Q1826.12 1485.51 1823.71 1484.77 L1823.71 1480.07 Q1825.79 1481.2 1828.02 1481.76 Q1830.24 1482.32 1832.72 1482.32 Q1836.72 1482.32 1839.06 1480.21 Q1841.4 1478.1 1841.4 1474.49 Q1841.4 1470.88 1839.06 1468.77 Q1836.72 1466.67 1832.72 1466.67 Q1830.84 1466.67 1828.97 1467.08 Q1827.11 1467.5 1825.17 1468.38 L1825.17 1451.02 Z" fill="#000000" fill-rule="nonzero" fill-opacity="1" /><path clip-path="url(#clip260)" d="M2323.99 1481.64 L2340.31 1481.64 L2340.31 1485.58 L2318.37 1485.58 L2318.37 1481.64 Q2321.03 1478.89 2325.61 1474.26 Q2330.22 1469.61 2331.4 1468.27 Q2333.65 1465.74 2334.53 1464.01 Q2335.43 1462.25 2335.43 1460.56 Q2335.43 1457.8 2333.49 1456.07 Q2331.56 1454.33 2328.46 1454.33 Q2326.26 1454.33 2323.81 1455.09 Q2321.38 1455.86 2318.6 1457.41 L2318.6 1452.69 Q2321.43 1451.55 2323.88 1450.97 Q2326.33 1450.39 2328.37 1450.39 Q2333.74 1450.39 2336.93 1453.08 Q2340.13 1455.77 2340.13 1460.26 Q2340.13 1462.39 2339.32 1464.31 Q2338.53 1466.2 2336.42 1468.8 Q2335.85 1469.47 2332.74 1472.69 Q2329.64 1475.88 2323.99 1481.64 Z" fill="#000000" fill-rule="nonzero" fill-opacity="1" /><path clip-path="url(#clip260)" d="M2350.13 1479.7 L2355.01 1479.7 L2355.01 1485.58 L2350.13 1485.58 L2350.13 1479.7 Z" fill="#000000" fill-rule="nonzero" fill-opacity="1" /><path clip-path="url(#clip260)" d="M2375.2 1454.1 Q2371.59 1454.1 2369.76 1457.66 Q2367.95 1461.2 2367.95 1468.33 Q2367.95 1475.44 2369.76 1479.01 Q2371.59 1482.55 2375.2 1482.55 Q2378.83 1482.55 2380.64 1479.01 Q2382.47 1475.44 2382.47 1468.33 Q2382.47 1461.2 2380.64 1457.66 Q2378.83 1454.1 2375.2 1454.1 M2375.2 1450.39 Q2381.01 1450.39 2384.06 1455 Q2387.14 1459.58 2387.14 1468.33 Q2387.14 1477.06 2384.06 1481.67 Q2381.01 1486.25 2375.2 1486.25 Q2369.39 1486.25 2366.31 1481.67 Q2363.25 1477.06 2363.25 1468.33 Q2363.25 1459.58 2366.31 1455 Q2369.39 1450.39 2375.2 1450.39 Z" fill="#000000" fill-rule="nonzero" fill-opacity="1" /><path clip-path="url(#clip260)" d="M1272.41 1522.27 L1272.41 1532.4 L1284.47 1532.4 L1284.47 1536.95 L1272.41 1536.95 L1272.41 1556.3 Q1272.41 1560.66 1273.58 1561.9 Q1274.79 1563.14 1278.45 1563.14 L1284.47 1563.14 L1284.47 1568.04 L1278.45 1568.04 Q1271.67 1568.04 1269.1 1565.53 Q1266.52 1562.98 1266.52 1556.3 L1266.52 1536.95 L1262.22 1536.95 L1262.22 1532.4 L1266.52 1532.4 L1266.52 1522.27 L1272.41 1522.27 Z" fill="#000000" fill-rule="nonzero" fill-opacity="1" /><polyline clip-path="url(#clip260)" style="stroke:#000000; stroke-linecap:round; stroke-linejoin:round; stroke-width:4; stroke-opacity:1; fill:none" points="193.936,1423.18 193.936,47.2441 "/>
<polyline clip-path="url(#clip260)" style="stroke:#000000; stroke-linecap:round; stroke-linejoin:round; stroke-width:4; stroke-opacity:1; fill:none" points="193.936,1250.71 212.834,1250.71 "/>
<polyline clip-path="url(#clip260)" style="stroke:#000000; stroke-linecap:round; stroke-linejoin:round; stroke-width:4; stroke-opacity:1; fill:none" points="193.936,972.052 212.834,972.052 "/>
<polyline clip-path="url(#clip260)" style="stroke:#000000; stroke-linecap:round; stroke-linejoin:round; stroke-width:4; stroke-opacity:1; fill:none" points="193.936,693.394 212.834,693.394 "/>
<polyline clip-path="url(#clip260)" style="stroke:#000000; stroke-linecap:round; stroke-linejoin:round; stroke-width:4; stroke-opacity:1; fill:none" points="193.936,414.736 212.834,414.736 "/>
<polyline clip-path="url(#clip260)" style="stroke:#000000; stroke-linecap:round; stroke-linejoin:round; stroke-width:4; stroke-opacity:1; fill:none" points="193.936,136.077 212.834,136.077 "/>
<path clip-path="url(#clip260)" d="M50.9921 1251.16 L80.6679 1251.16 L80.6679 1255.1 L50.9921 1255.1 L50.9921 1251.16 Z" fill="#000000" fill-rule="nonzero" fill-opacity="1" /><path clip-path="url(#clip260)" d="M94.7882 1264.06 L111.108 1264.06 L111.108 1267.99 L89.1632 1267.99 L89.1632 1264.06 Q91.8252 1261.3 96.4085 1256.67 Q101.015 1252.02 102.196 1250.68 Q104.441 1248.15 105.321 1246.42 Q106.223 1244.66 106.223 1242.97 Q106.223 1240.21 104.279 1238.48 Q102.358 1236.74 99.2558 1236.74 Q97.0567 1236.74 94.603 1237.5 Q92.1725 1238.27 89.3947 1239.82 L89.3947 1235.1 Q92.2188 1233.96 94.6724 1233.38 Q97.1261 1232.81 99.1632 1232.81 Q104.534 1232.81 107.728 1235.49 Q110.922 1238.18 110.922 1242.67 Q110.922 1244.8 110.112 1246.72 Q109.325 1248.62 107.219 1251.21 Q106.64 1251.88 103.538 1255.1 Q100.436 1258.29 94.7882 1264.06 Z" fill="#000000" fill-rule="nonzero" fill-opacity="1" /><path clip-path="url(#clip260)" d="M120.922 1262.11 L125.807 1262.11 L125.807 1267.99 L120.922 1267.99 L120.922 1262.11 Z" fill="#000000" fill-rule="nonzero" fill-opacity="1" /><path clip-path="url(#clip260)" d="M145.992 1236.51 Q142.381 1236.51 140.552 1240.07 Q138.746 1243.62 138.746 1250.75 Q138.746 1257.85 140.552 1261.42 Q142.381 1264.96 145.992 1264.96 Q149.626 1264.96 151.431 1261.42 Q153.26 1257.85 153.26 1250.75 Q153.26 1243.62 151.431 1240.07 Q149.626 1236.51 145.992 1236.51 M145.992 1232.81 Q151.802 1232.81 154.857 1237.41 Q157.936 1242 157.936 1250.75 Q157.936 1259.47 154.857 1264.08 Q151.802 1268.66 145.992 1268.66 Q140.181 1268.66 137.103 1264.08 Q134.047 1259.47 134.047 1250.75 Q134.047 1242 137.103 1237.41 Q140.181 1232.81 145.992 1232.81 Z" fill="#000000" fill-rule="nonzero" fill-opacity="1" /><path clip-path="url(#clip260)" d="M51.9875 972.503 L81.6633 972.503 L81.6633 976.439 L51.9875 976.439 L51.9875 972.503 Z" fill="#000000" fill-rule="nonzero" fill-opacity="1" /><path clip-path="url(#clip260)" d="M92.566 985.397 L100.205 985.397 L100.205 959.031 L91.8947 960.698 L91.8947 956.439 L100.159 954.772 L104.834 954.772 L104.834 985.397 L112.473 985.397 L112.473 989.332 L92.566 989.332 L92.566 985.397 Z" fill="#000000" fill-rule="nonzero" fill-opacity="1" /><path clip-path="url(#clip260)" d="M121.918 983.453 L126.802 983.453 L126.802 989.332 L121.918 989.332 L121.918 983.453 Z" fill="#000000" fill-rule="nonzero" fill-opacity="1" /><path clip-path="url(#clip260)" d="M137.033 954.772 L155.39 954.772 L155.39 958.707 L141.316 958.707 L141.316 967.179 Q142.334 966.832 143.353 966.67 Q144.371 966.485 145.39 966.485 Q151.177 966.485 154.556 969.656 Q157.936 972.828 157.936 978.244 Q157.936 983.823 154.464 986.925 Q150.992 990.003 144.672 990.003 Q142.496 990.003 140.228 989.633 Q137.982 989.263 135.575 988.522 L135.575 983.823 Q137.658 984.957 139.881 985.513 Q142.103 986.068 144.58 986.068 Q148.584 986.068 150.922 983.962 Q153.26 981.855 153.26 978.244 Q153.26 974.633 150.922 972.527 Q148.584 970.42 144.58 970.42 Q142.705 970.42 140.83 970.837 Q138.978 971.254 137.033 972.133 L137.033 954.772 Z" fill="#000000" fill-rule="nonzero" fill-opacity="1" /><path clip-path="url(#clip260)" d="M50.9921 693.845 L80.6679 693.845 L80.6679 697.78 L50.9921 697.78 L50.9921 693.845 Z" fill="#000000" fill-rule="nonzero" fill-opacity="1" /><path clip-path="url(#clip260)" d="M91.5706 706.739 L99.2095 706.739 L99.2095 680.373 L90.8993 682.04 L90.8993 677.781 L99.1632 676.114 L103.839 676.114 L103.839 706.739 L111.478 706.739 L111.478 710.674 L91.5706 710.674 L91.5706 706.739 Z" fill="#000000" fill-rule="nonzero" fill-opacity="1" /><path clip-path="url(#clip260)" d="M120.922 704.794 L125.807 704.794 L125.807 710.674 L120.922 710.674 L120.922 704.794 Z" fill="#000000" fill-rule="nonzero" fill-opacity="1" /><path clip-path="url(#clip260)" d="M145.992 679.193 Q142.381 679.193 140.552 682.757 Q138.746 686.299 138.746 693.429 Q138.746 700.535 140.552 704.1 Q142.381 707.642 145.992 707.642 Q149.626 707.642 151.431 704.1 Q153.26 700.535 153.26 693.429 Q153.26 686.299 151.431 682.757 Q149.626 679.193 145.992 679.193 M145.992 675.489 Q151.802 675.489 154.857 680.095 Q157.936 684.679 157.936 693.429 Q157.936 702.155 154.857 706.762 Q151.802 711.345 145.992 711.345 Q140.181 711.345 137.103 706.762 Q134.047 702.155 134.047 693.429 Q134.047 684.679 137.103 680.095 Q140.181 675.489 145.992 675.489 Z" fill="#000000" fill-rule="nonzero" fill-opacity="1" /><path clip-path="url(#clip260)" d="M51.9875 415.187 L81.6633 415.187 L81.6633 419.122 L51.9875 419.122 L51.9875 415.187 Z" fill="#000000" fill-rule="nonzero" fill-opacity="1" /><path clip-path="url(#clip260)" d="M101.756 400.534 Q98.1447 400.534 96.316 404.099 Q94.5104 407.641 94.5104 414.77 Q94.5104 421.877 96.316 425.442 Q98.1447 428.983 101.756 428.983 Q105.39 428.983 107.196 425.442 Q109.024 421.877 109.024 414.77 Q109.024 407.641 107.196 404.099 Q105.39 400.534 101.756 400.534 M101.756 396.831 Q107.566 396.831 110.621 401.437 Q113.7 406.02 113.7 414.77 Q113.7 423.497 110.621 428.104 Q107.566 432.687 101.756 432.687 Q95.9456 432.687 92.8669 428.104 Q89.8114 423.497 89.8114 414.77 Q89.8114 406.02 92.8669 401.437 Q95.9456 396.831 101.756 396.831 Z" fill="#000000" fill-rule="nonzero" fill-opacity="1" /><path clip-path="url(#clip260)" d="M121.918 426.136 L126.802 426.136 L126.802 432.016 L121.918 432.016 L121.918 426.136 Z" fill="#000000" fill-rule="nonzero" fill-opacity="1" /><path clip-path="url(#clip260)" d="M137.033 397.456 L155.39 397.456 L155.39 401.391 L141.316 401.391 L141.316 409.863 Q142.334 409.516 143.353 409.354 Q144.371 409.169 145.39 409.169 Q151.177 409.169 154.556 412.34 Q157.936 415.511 157.936 420.928 Q157.936 426.506 154.464 429.608 Q150.992 432.687 144.672 432.687 Q142.496 432.687 140.228 432.317 Q137.982 431.946 135.575 431.206 L135.575 426.506 Q137.658 427.641 139.881 428.196 Q142.103 428.752 144.58 428.752 Q148.584 428.752 150.922 426.645 Q153.26 424.539 153.26 420.928 Q153.26 417.317 150.922 415.21 Q148.584 413.104 144.58 413.104 Q142.705 413.104 140.83 413.52 Q138.978 413.937 137.033 414.817 L137.033 397.456 Z" fill="#000000" fill-rule="nonzero" fill-opacity="1" /><path clip-path="url(#clip260)" d="M100.76 121.876 Q97.1493 121.876 95.3206 125.441 Q93.515 128.983 93.515 136.112 Q93.515 143.219 95.3206 146.783 Q97.1493 150.325 100.76 150.325 Q104.395 150.325 106.2 146.783 Q108.029 143.219 108.029 136.112 Q108.029 128.983 106.2 125.441 Q104.395 121.876 100.76 121.876 M100.76 118.172 Q106.571 118.172 109.626 122.779 Q112.705 127.362 112.705 136.112 Q112.705 144.839 109.626 149.445 Q106.571 154.029 100.76 154.029 Q94.9502 154.029 91.8715 149.445 Q88.816 144.839 88.816 136.112 Q88.816 127.362 91.8715 122.779 Q94.9502 118.172 100.76 118.172 Z" fill="#000000" fill-rule="nonzero" fill-opacity="1" /><path clip-path="url(#clip260)" d="M120.922 147.478 L125.807 147.478 L125.807 153.357 L120.922 153.357 L120.922 147.478 Z" fill="#000000" fill-rule="nonzero" fill-opacity="1" /><path clip-path="url(#clip260)" d="M145.992 121.876 Q142.381 121.876 140.552 125.441 Q138.746 128.983 138.746 136.112 Q138.746 143.219 140.552 146.783 Q142.381 150.325 145.992 150.325 Q149.626 150.325 151.431 146.783 Q153.26 143.219 153.26 136.112 Q153.26 128.983 151.431 125.441 Q149.626 121.876 145.992 121.876 M145.992 118.172 Q151.802 118.172 154.857 122.779 Q157.936 127.362 157.936 136.112 Q157.936 144.839 154.857 149.445 Q151.802 154.029 145.992 154.029 Q140.181 154.029 137.103 149.445 Q134.047 144.839 134.047 136.112 Q134.047 127.362 137.103 122.779 Q140.181 118.172 145.992 118.172 Z" fill="#000000" fill-rule="nonzero" fill-opacity="1" /><polyline clip-path="url(#clip262)" style="stroke:#009af9; stroke-linecap:round; stroke-linejoin:round; stroke-width:4; stroke-opacity:1; fill:none" points="193.936,86.1857 196.097,87.0395 198.258,87.8849 200.419,88.7218 202.58,89.5504 204.741,90.3708 206.902,91.183 209.063,91.9871 211.224,92.7832 213.385,93.5713 215.546,94.3516 217.707,95.1241 219.868,95.889 222.029,96.6462 224.19,97.3959 226.351,98.1381 228.512,98.8729 230.673,99.6004 232.834,100.321 234.995,101.034 237.156,101.74 239.317,102.439 241.478,103.131 243.639,103.816 245.8,104.494 247.961,105.165 250.122,105.83 252.282,106.488 254.443,107.14 256.604,107.785 258.765,108.424 260.926,109.056 263.087,109.682 265.248,110.302 267.409,110.916 269.57,111.524 271.731,112.125 273.892,112.721 276.053,113.31 278.214,113.894 280.375,114.472 282.536,115.044 284.697,115.61 286.858,116.171 289.019,116.726 291.18,117.276 293.341,117.82 295.502,118.359 297.663,118.892 299.824,119.42 301.985,119.943 304.146,120.461 306.307,120.973 308.468,121.481 310.629,121.983 312.79,122.48 314.951,122.973 317.112,123.46 319.273,123.943 321.434,124.421 323.595,124.894 325.756,125.362 327.917,125.826 330.078,126.285 332.239,126.739 334.4,127.189 336.561,127.635 338.722,128.076 340.883,128.512 343.044,128.945 345.205,129.373 347.366,129.796 349.527,130.216 351.688,130.631 353.849,131.042 356.01,131.449 358.171,131.852 360.332,132.251 362.493,132.646 364.653,133.038 366.814,133.425 368.975,133.808 371.136,134.188 373.297,134.563 375.458,134.935 377.619,135.304 379.78,135.668 381.941,136.029 384.102,136.387 386.263,136.741 388.424,137.091 390.585,137.438 392.746,137.781 394.907,138.121 397.068,138.458 399.229,138.791 401.39,139.121 403.551,139.448 405.712,139.771 407.873,140.091 410.034,140.408 412.195,140.722 414.356,141.033 416.517,141.34 418.678,141.645 420.839,141.946 423,142.245 425.161,142.54 427.322,142.833 429.483,143.122 431.644,143.409 433.805,143.693 435.966,143.974 438.127,144.252 440.288,144.528 442.449,144.801 444.61,145.071 446.771,145.338 448.932,145.603 451.093,145.865 453.254,146.124 455.415,146.381 457.576,146.635 459.737,146.887 461.898,147.136 464.059,147.383 466.22,147.628 468.381,147.869 470.542,148.109 472.703,148.346 474.864,148.581 477.024,148.813 479.185,149.043 481.346,149.271 483.507,149.497 485.668,149.72 487.829,149.941 489.99,150.16 492.151,150.377 494.312,150.591 496.473,150.803 498.634,151.014 500.795,151.222 502.956,151.428 505.117,151.632 507.278,151.834 509.439,152.034 511.6,152.232 513.761,152.428 515.922,152.622 518.083,152.814 520.244,153.005 522.405,153.193 524.566,153.379 526.727,153.564 528.888,153.747 531.049,153.928 533.21,154.107 535.371,154.284 537.532,154.46 539.693,154.634 541.854,154.806 544.015,154.976 546.176,155.145 548.337,155.312 550.498,155.477 552.659,155.641 554.82,155.803 556.981,155.964 559.142,156.122 561.303,156.28 563.464,156.435 565.625,156.59 567.786,156.742 569.947,156.893 572.108,157.043 574.269,157.191 576.43,157.338 578.591,157.483 580.752,157.627 582.913,157.769 585.074,157.91 587.235,158.049 589.396,158.187 591.556,158.324 593.717,158.459 595.878,158.593 598.039,158.726 600.2,158.857 602.361,158.988 604.522,159.116 606.683,159.244 608.844,159.37 611.005,159.495 613.166,159.619 615.327,159.741 617.488,159.862 619.649,159.982 621.81,160.101 623.971,160.219 626.132,160.335 628.293,160.451 630.454,160.565 632.615,160.678 634.776,160.79 636.937,160.901 639.098,161.01 641.259,161.119 643.42,161.226 645.581,161.333 647.742,161.438 649.903,161.543 652.064,161.646 654.225,161.748 656.386,161.849 658.547,161.95 660.708,162.049 662.869,162.147 665.03,162.244 667.191,162.341 669.352,162.436 671.513,162.53 673.674,162.624 675.835,162.716 677.996,162.808 680.157,162.899 682.318,162.989 684.479,163.077 686.64,163.165 688.801,163.253 690.962,163.339 693.123,163.424 695.284,163.509 697.445,163.593 699.606,163.675 701.767,163.757 703.927,163.839 706.088,163.919 708.249,163.999 710.41,164.078 712.571,164.156 714.732,164.233 716.893,164.31 719.054,164.385 721.215,164.46 723.376,164.535 725.537,164.608 727.698,164.681 729.859,164.753 732.02,164.824 734.181,164.895 736.342,164.965 738.503,165.034 740.664,165.103 742.825,165.17 744.986,165.238 747.147,165.304 749.308,165.37 751.469,165.435 753.63,165.5 755.791,165.563 757.952,165.627 760.113,165.689 762.274,165.751 764.435,165.813 766.596,165.873 768.757,165.934 770.918,165.993 773.079,166.052 775.24,166.111 777.401,166.168 779.562,166.226 781.723,166.282 783.884,166.338 786.045,166.394 788.206,166.449 790.367,166.503 792.528,166.557 794.689,166.61 796.85,166.663 799.011,166.716 801.172,166.767 803.333,166.819 805.494,166.869 807.655,166.92 809.816,166.969 811.977,167.019 814.138,167.067 816.298,167.116 818.459,167.163 820.62,167.211 822.781,167.258 824.942,167.304 827.103,167.35 829.264,167.395 831.425,167.44 833.586,167.485 835.747,167.529 837.908,167.573 840.069,167.616 842.23,167.659 844.391,167.701 846.552,167.743 848.713,167.785 850.874,167.826 853.035,167.867 855.196,167.907 857.357,167.947 859.518,167.986 861.679,168.026 863.84,168.064 866.001,168.103 868.162,168.141 870.323,168.178 872.484,168.215 874.645,168.252 876.806,168.289 878.967,168.325 881.128,168.361 883.289,168.396 885.45,168.431 887.611,168.466 889.772,168.5 891.933,168.534 894.094,168.568 896.255,168.601 898.416,168.634 900.577,168.667 902.738,168.699 904.899,168.731 907.06,168.763 909.221,168.794 911.382,168.825 913.543,168.856 915.704,168.886 917.865,168.917 920.026,168.946 922.187,168.976 924.348,169.005 926.509,169.034 928.669,169.063 930.83,169.091 932.991,169.119 935.152,169.147 937.313,169.175 939.474,169.202 941.635,169.229 943.796,169.256 945.957,169.282 948.118,169.308 950.279,169.334 952.44,169.36 954.601,169.386 956.762,169.411 958.923,169.436 961.084,169.46 963.245,169.485 965.406,169.509 967.567,169.533 969.728,169.557 971.889,169.58 974.05,169.603 976.211,169.626 978.372,169.649 980.533,169.672 982.694,169.694 984.855,169.716 987.016,169.738 989.177,169.76 991.338,169.781 993.499,169.803 995.66,169.824 997.821,169.844 999.982,169.865 1002.14,169.885 1004.3,169.906 1006.46,169.926 1008.63,169.945 1010.79,169.965 1012.95,169.984 1015.11,170.004 1017.27,170.023 1019.43,170.042 1021.59,170.06 1023.75,170.079 1025.91,170.097 1028.07,170.115 1030.24,170.133 1032.4,170.151 1034.56,170.168 1036.72,170.186 1038.88,170.203 1041.04,170.22 1043.2,170.237 1045.36,170.253 1047.52,170.27 1049.68,170.286 1051.85,170.303 1054.01,170.319 1056.17,170.335 1058.33,170.35 1060.49,170.366 1062.65,170.381 1064.81,170.397 1066.97,170.412 1069.13,170.427 1071.29,170.441 1073.46,170.456 1075.62,170.471 1077.78,170.485 1079.94,170.499 1082.1,170.513 1084.26,170.527 1086.42,170.541 1088.58,170.555 1090.74,170.568 1092.9,170.582 1095.07,170.595 1097.23,170.608 1099.39,170.621 1101.55,170.634 1103.71,170.647 1105.87,170.659 1108.03,170.672 1110.19,170.684 1112.35,170.697 1114.51,170.709 1116.67,170.721 1118.84,170.733 1121,170.744 1123.16,170.756 1125.32,170.768 1127.48,170.779 1129.64,170.79 1131.8,170.802 1133.96,170.813 1136.12,170.824 1138.28,170.834 1140.45,170.845 1142.61,170.856 1144.77,170.866 1146.93,170.877 1149.09,170.887 1151.25,170.897 1153.41,170.908 1155.57,170.918 1157.73,170.928 1159.89,170.937 1162.06,170.947 1164.22,170.957 1166.38,170.966 1168.54,170.976 1170.7,170.985 1172.86,170.994 1175.02,171.003 1177.18,171.013 1179.34,171.021 1181.5,171.03 1183.67,171.039 1185.83,171.048 1187.99,171.057 1190.15,171.065 1192.31,171.074 1194.47,171.082 1196.63,171.09 1198.79,171.098 1200.95,171.106 1203.11,171.115 1205.28,171.122 1207.44,171.13 1209.6,171.138 1211.76,171.146 1213.92,171.154 1216.08,171.161 1218.24,171.169 1220.4,171.176 1222.56,171.183 1224.72,171.191 1226.88,171.198 1229.05,171.205 1231.21,171.212 1233.37,171.219 1235.53,171.226 1237.69,171.233 1239.85,171.24 1242.01,171.246 1244.17,171.253 1246.33,171.259 1248.49,171.266 1250.66,171.272 1252.82,171.279 1254.98,171.285 1257.14,171.291 1259.3,171.298 1261.46,171.304 1263.62,171.31 1265.78,171.316 1267.94,171.322 1270.1,171.328 1272.27,171.334 1274.43,171.339 1276.59,171.345 1278.75,171.351 1280.91,171.356 1283.07,171.362 1285.23,171.367 1287.39,171.373 1289.55,171.378 1291.71,171.384 1293.88,171.389 1296.04,171.394 1298.2,171.399 1300.36,171.405 1302.52,171.41 1304.68,171.415 1306.84,171.42 1309,171.425 1311.16,171.429 1313.32,171.434 1315.49,171.439 1317.65,171.444 1319.81,171.448 1321.97,171.453 1324.13,171.458 1326.29,171.462 1328.45,171.467 1330.61,171.471 1332.77,171.476 1334.93,171.48 1337.09,171.484 1339.26,171.489 1341.42,171.493 1343.58,171.497 1345.74,171.501 1347.9,171.505 1350.06,171.509 1352.22,171.513 1354.38,171.517 1356.54,171.521 1358.7,171.525 1360.87,171.529 1363.03,171.533 1365.19,171.537 1367.35,171.541 1369.51,171.544 1371.67,171.548 1373.83,171.552 1375.99,171.555 1378.15,171.559 1380.31,171.562 1382.48,171.566 1384.64,171.569 1386.8,171.573 1388.96,171.576 1391.12,171.579 1393.28,171.583 1395.44,171.586 1397.6,171.589 1399.76,171.593 1401.92,171.596 1404.09,171.599 1406.25,171.602 1408.41,171.605 1410.57,171.608 1412.73,171.611 1414.89,171.614 1417.05,171.617 1419.21,171.62 1421.37,171.623 1423.53,171.626 1425.7,171.629 1427.86,171.632 1430.02,171.635 1432.18,171.637 1434.34,171.64 1436.5,171.643 1438.66,171.646 1440.82,171.648 1442.98,171.651 1445.14,171.653 1447.3,171.656 1449.47,171.659 1451.63,171.661 1453.79,171.664 1455.95,171.666 1458.11,171.669 1460.27,171.671 1462.43,171.674 1464.59,171.676 1466.75,171.678 1468.91,171.681 1471.08,171.683 1473.24,171.685 1475.4,171.688 1477.56,171.69 1479.72,171.692 1481.88,171.694 1484.04,171.697 1486.2,171.699 1488.36,171.701 1490.52,171.703 1492.69,171.705 1494.85,171.707 1497.01,171.709 1499.17,171.711 1501.33,171.713 1503.49,171.715 1505.65,171.717 1507.81,171.719 1509.97,171.721 1512.13,171.723 1514.3,171.725 1516.46,171.727 1518.62,171.729 1520.78,171.731 1522.94,171.733 1525.1,171.734 1527.26,171.736 1529.42,171.738 1531.58,171.74 1533.74,171.741 1535.91,171.743 1538.07,171.745 1540.23,171.747 1542.39,171.748 1544.55,171.75 1546.71,171.751 1548.87,171.753 1551.03,171.755 1553.19,171.756 1555.35,171.758 1557.51,171.759 1559.68,171.761 1561.84,171.762 1564,171.764 1566.16,171.765 1568.32,171.767 1570.48,171.768 1572.64,171.77 1574.8,171.771 1576.96,171.773 1579.12,171.774 1581.29,171.776 1583.45,171.777 1585.61,171.778 1587.77,171.78 1589.93,171.781 1592.09,171.782 1594.25,171.784 1596.41,171.785 1598.57,171.786 1600.73,171.787 1602.9,171.789 1605.06,171.79 1607.22,171.791 1609.38,171.792 1611.54,171.794 1613.7,171.795 1615.86,171.796 1618.02,171.797 1620.18,171.798 1622.34,171.799 1624.51,171.801 1626.67,171.802 1628.83,171.803 1630.99,171.804 1633.15,171.805 1635.31,171.806 1637.47,171.807 1639.63,171.808 1641.79,171.809 1643.95,171.81 1646.12,171.811 1648.28,171.812 1650.44,171.813 1652.6,171.814 1654.76,171.815 1656.92,171.816 1659.08,171.817 1661.24,171.818 1663.4,171.819 1665.56,171.82 1667.72,171.821 1669.89,171.822 1672.05,171.823 1674.21,171.824 1676.37,171.825 1678.53,171.826 1680.69,171.827 1682.85,171.827 1685.01,171.828 1687.17,171.829 1689.33,171.83 1691.5,171.831 1693.66,171.832 1695.82,171.833 1697.98,171.833 1700.14,171.834 1702.3,171.835 1704.46,171.836 1706.62,171.837 1708.78,171.837 1710.94,171.838 1713.11,171.839 1715.27,171.84 1717.43,171.84 1719.59,171.841 1721.75,171.842 1723.91,171.843 1726.07,171.843 1728.23,171.844 1730.39,171.845 1732.55,171.845 1734.72,171.846 1736.88,171.847 1739.04,171.847 1741.2,171.848 1743.36,171.849 1745.52,171.849 1747.68,171.85 1749.84,171.851 1752,171.851 1754.16,171.852 1756.33,171.853 1758.49,171.853 1760.65,171.854 1762.81,171.854 1764.97,171.855 1767.13,171.856 1769.29,171.856 1771.45,171.857 1773.61,171.857 1775.77,171.858 1777.93,171.858 1780.1,171.859 1782.26,171.86 1784.42,171.86 1786.58,171.861 1788.74,171.861 1790.9,171.862 1793.06,171.862 1795.22,171.863 1797.38,171.863 1799.54,171.864 1801.71,171.864 1803.87,171.865 1806.03,171.865 1808.19,171.866 1810.35,171.866 1812.51,171.867 1814.67,171.867 1816.83,171.868 1818.99,171.868 1821.15,171.869 1823.32,171.869 1825.48,171.869 1827.64,171.87 1829.8,171.87 1831.96,171.871 1834.12,171.871 1836.28,171.872 1838.44,171.872 1840.6,171.872 1842.76,171.873 1844.93,171.873 1847.09,171.874 1849.25,171.874 1851.41,171.874 1853.57,171.875 1855.73,171.875 1857.89,171.876 1860.05,171.876 1862.21,171.876 1864.37,171.877 1866.54,171.877 1868.7,171.877 1870.86,171.878 1873.02,171.878 1875.18,171.879 1877.34,171.879 1879.5,171.879 1881.66,171.88 1883.82,171.88 1885.98,171.88 1888.15,171.881 1890.31,171.881 1892.47,171.881 1894.63,171.882 1896.79,171.882 1898.95,171.882 1901.11,171.883 1903.27,171.883 1905.43,171.883 1907.59,171.884 1909.75,171.884 1911.92,171.884 1914.08,171.884 1916.24,171.885 1918.4,171.885 1920.56,171.885 1922.72,171.886 1924.88,171.886 1927.04,171.886 1929.2,171.886 1931.36,171.887 1933.53,171.887 1935.69,171.887 1937.85,171.888 1940.01,171.888 1942.17,171.888 1944.33,171.888 1946.49,171.889 1948.65,171.889 1950.81,171.889 1952.97,171.889 1955.14,171.89 1957.3,171.89 1959.46,171.89 1961.62,171.89 1963.78,171.891 1965.94,171.891 1968.1,171.891 1970.26,171.891 1972.42,171.892 1974.58,171.892 1976.75,171.892 1978.91,171.892 1981.07,171.892 1983.23,171.893 1985.39,171.893 1987.55,171.893 1989.71,171.893 1991.87,171.894 1994.03,171.894 1996.19,171.894 1998.36,171.894 2000.52,171.894 2002.68,171.895 2004.84,171.895 2007,171.895 2009.16,171.895 2011.32,171.895 2013.48,171.895 2015.64,171.896 2017.8,171.896 2019.96,171.896 2022.13,171.896 2024.29,171.896 2026.45,171.897 2028.61,171.897 2030.77,171.897 2032.93,171.897 2035.09,171.897 2037.25,171.897 2039.41,171.898 2041.57,171.898 2043.74,171.898 2045.9,171.898 2048.06,171.898 2050.22,171.898 2052.38,171.899 2054.54,171.899 2056.7,171.899 2058.86,171.899 2061.02,171.899 2063.18,171.899 2065.35,171.899 2067.51,171.9 2069.67,171.9 2071.83,171.9 2073.99,171.9 2076.15,171.9 2078.31,171.9 2080.47,171.9 2082.63,171.901 2084.79,171.901 2086.96,171.901 2089.12,171.901 2091.28,171.901 2093.44,171.901 2095.6,171.901 2097.76,171.902 2099.92,171.902 2102.08,171.902 2104.24,171.902 2106.4,171.902 2108.57,171.902 2110.73,171.902 2112.89,171.902 2115.05,171.902 2117.21,171.903 2119.37,171.903 2121.53,171.903 2123.69,171.903 2125.85,171.903 2128.01,171.903 2130.17,171.903 2132.34,171.903 2134.5,171.903 2136.66,171.904 2138.82,171.904 2140.98,171.904 2143.14,171.904 2145.3,171.904 2147.46,171.904 2149.62,171.904 2151.78,171.904 2153.95,171.904 2156.11,171.904 2158.27,171.905 2160.43,171.905 2162.59,171.905 2164.75,171.905 2166.91,171.905 2169.07,171.905 2171.23,171.905 2173.39,171.905 2175.56,171.905 2177.72,171.905 2179.88,171.905 2182.04,171.906 2184.2,171.906 2186.36,171.906 2188.52,171.906 2190.68,171.906 2192.84,171.906 2195,171.906 2197.17,171.906 2199.33,171.906 2201.49,171.906 2203.65,171.906 2205.81,171.906 2207.97,171.907 2210.13,171.907 2212.29,171.907 2214.45,171.907 2216.61,171.907 2218.78,171.907 2220.94,171.907 2223.1,171.907 2225.26,171.907 2227.42,171.907 2229.58,171.907 2231.74,171.907 2233.9,171.907 2236.06,171.907 2238.22,171.908 2240.38,171.908 2242.55,171.908 2244.71,171.908 2246.87,171.908 2249.03,171.908 2251.19,171.908 2253.35,171.908 2255.51,171.908 2257.67,171.908 2259.83,171.908 2261.99,171.908 2264.16,171.908 2266.32,171.908 2268.48,171.908 2270.64,171.908 2272.8,171.909 2274.96,171.909 2277.12,171.909 2279.28,171.909 2281.44,171.909 2283.6,171.909 2285.77,171.909 2287.93,171.909 2290.09,171.909 2292.25,171.909 2294.41,171.909 2296.57,171.909 2298.73,171.909 2300.89,171.909 2303.05,171.909 2305.21,171.909 2307.38,171.909 2309.54,171.909 2311.7,171.909 2313.86,171.91 2316.02,171.91 2318.18,171.91 2320.34,171.91 2322.5,171.91 2324.66,171.91 2326.82,171.91 2328.99,171.91 2331.15,171.91 2333.31,171.91 2335.47,171.91 2337.63,171.91 2339.79,171.91 2341.95,171.91 2344.11,171.91 2346.27,171.91 2348.43,171.91 2350.59,171.91 2352.76,171.91 "/>
<polyline clip-path="url(#clip262)" style="stroke:#e26f46; stroke-linecap:round; stroke-linejoin:round; stroke-width:4; stroke-opacity:1; fill:none" points="193.936,1384.24 196.097,1375.09 198.258,1366.01 200.419,1357.01 202.58,1348.08 204.741,1339.22 206.902,1330.44 209.063,1321.72 211.224,1313.07 213.385,1304.5 215.546,1295.99 217.707,1287.55 219.868,1279.17 222.029,1270.87 224.19,1262.63 226.351,1254.45 228.512,1246.35 230.673,1238.3 232.834,1230.32 234.995,1222.41 237.156,1214.56 239.317,1206.77 241.478,1199.04 243.639,1191.37 245.8,1183.77 247.961,1176.22 250.122,1168.74 252.282,1161.31 254.443,1153.94 256.604,1146.64 258.765,1139.39 260.926,1132.19 263.087,1125.06 265.248,1117.98 267.409,1110.96 269.57,1103.99 271.731,1097.08 273.892,1090.22 276.053,1083.41 278.214,1076.66 280.375,1069.97 282.536,1063.32 284.697,1056.73 286.858,1050.19 289.019,1043.71 291.18,1037.27 293.341,1030.88 295.502,1024.55 297.663,1018.26 299.824,1012.03 301.985,1005.84 304.146,999.699 306.307,993.608 308.468,987.565 310.629,981.57 312.79,975.621 314.951,969.719 317.112,963.863 319.273,958.053 321.434,952.288 323.595,946.568 325.756,940.893 327.917,935.262 330.078,929.676 332.239,924.132 334.4,918.632 336.561,913.175 338.722,907.76 340.883,902.388 343.044,897.057 345.205,891.768 347.366,886.52 349.527,881.313 351.688,876.146 353.849,871.019 356.01,865.932 358.171,860.884 360.332,855.876 362.493,850.906 364.653,845.975 366.814,841.082 368.975,836.226 371.136,831.409 373.297,826.628 375.458,821.885 377.619,817.178 379.78,812.507 381.941,807.872 384.102,803.273 386.263,798.709 388.424,794.181 390.585,789.687 392.746,785.228 394.907,780.803 397.068,776.413 399.229,772.055 401.39,767.732 403.551,763.441 405.712,759.183 407.873,754.958 410.034,750.766 412.195,746.605 414.356,742.476 416.517,738.379 418.678,734.313 420.839,730.278 423,726.274 425.161,722.301 427.322,718.358 429.483,714.444 431.644,710.561 433.805,706.708 435.966,702.883 438.127,699.088 440.288,695.322 442.449,691.584 444.61,687.874 446.771,684.193 448.932,680.54 451.093,676.915 453.254,673.317 455.415,669.746 457.576,666.202 459.737,662.685 461.898,659.195 464.059,655.731 466.22,652.293 468.381,648.881 470.542,645.495 472.703,642.135 474.864,638.8 477.024,635.49 479.185,632.205 481.346,628.945 483.507,625.709 485.668,622.497 487.829,619.31 489.99,616.147 492.151,613.007 494.312,609.891 496.473,606.798 498.634,603.729 500.795,600.682 502.956,597.659 505.117,594.658 507.278,591.679 509.439,588.723 511.6,585.789 513.761,582.877 515.922,579.987 518.083,577.118 520.244,574.27 522.405,571.444 524.566,568.639 526.727,565.855 528.888,563.092 531.049,560.349 533.21,557.627 535.371,554.925 537.532,552.243 539.693,549.58 541.854,546.938 544.015,544.316 546.176,541.712 548.337,539.128 550.498,536.564 552.659,534.018 554.82,531.491 556.981,528.983 559.142,526.493 561.303,524.022 563.464,521.569 565.625,519.134 567.786,516.717 569.947,514.318 572.108,511.937 574.269,509.573 576.43,507.227 578.591,504.898 580.752,502.586 582.913,500.291 585.074,498.013 587.235,495.751 589.396,493.507 591.556,491.278 593.717,489.066 595.878,486.871 598.039,484.691 600.2,482.527 602.361,480.38 604.522,478.248 606.683,476.131 608.844,474.03 611.005,471.945 613.166,469.874 615.327,467.819 617.488,465.779 619.649,463.753 621.81,461.743 623.971,459.747 626.132,457.766 628.293,455.799 630.454,453.846 632.615,451.908 634.776,449.983 636.937,448.073 639.098,446.177 641.259,444.294 643.42,442.425 645.581,440.57 647.742,438.728 649.903,436.9 652.064,435.084 654.225,433.282 656.386,431.493 658.547,429.717 660.708,427.954 662.869,426.203 665.03,424.465 667.191,422.74 669.352,421.027 671.513,419.326 673.674,417.638 675.835,415.962 677.996,414.298 680.157,412.646 682.318,411.006 684.479,409.377 686.64,407.761 688.801,406.156 690.962,404.562 693.123,402.98 695.284,401.409 697.445,399.85 699.606,398.301 701.767,396.764 703.927,395.238 706.088,393.723 708.249,392.218 710.41,390.725 712.571,389.242 714.732,387.769 716.893,386.307 719.054,384.856 721.215,383.415 723.376,381.984 725.537,380.563 727.698,379.153 729.859,377.752 732.02,376.362 734.181,374.981 736.342,373.611 738.503,372.25 740.664,370.898 742.825,369.557 744.986,368.225 747.147,366.902 749.308,365.589 751.469,364.285 753.63,362.99 755.791,361.704 757.952,360.428 760.113,359.161 762.274,357.902 764.435,356.653 766.596,355.412 768.757,354.18 770.918,352.957 773.079,351.743 775.24,350.537 777.401,349.339 779.562,348.15 781.723,346.97 783.884,345.797 786.045,344.633 788.206,343.477 790.367,342.33 792.528,341.19 794.689,340.058 796.85,338.935 799.011,337.819 801.172,336.711 803.333,335.611 805.494,334.518 807.655,333.433 809.816,332.356 811.977,331.286 814.138,330.224 816.298,329.169 818.459,328.122 820.62,327.082 822.781,326.049 824.942,325.023 827.103,324.005 829.264,322.993 831.425,321.989 833.586,320.992 835.747,320.001 837.908,319.018 840.069,318.041 842.23,317.071 844.391,316.108 846.552,315.152 848.713,314.202 850.874,313.259 853.035,312.323 855.196,311.393 857.357,310.469 859.518,309.552 861.679,308.641 863.84,307.737 866.001,306.838 868.162,305.946 870.323,305.061 872.484,304.181 874.645,303.307 876.806,302.44 878.967,301.578 881.128,300.723 883.289,299.873 885.45,299.03 887.611,298.192 889.772,297.36 891.933,296.533 894.094,295.713 896.255,294.898 898.416,294.088 900.577,293.284 902.738,292.486 904.899,291.693 907.06,290.906 909.221,290.124 911.382,289.347 913.543,288.576 915.704,287.81 917.865,287.05 920.026,286.294 922.187,285.544 924.348,284.799 926.509,284.059 928.669,283.324 930.83,282.594 932.991,281.869 935.152,281.149 937.313,280.434 939.474,279.724 941.635,279.019 943.796,278.318 945.957,277.622 948.118,276.931 950.279,276.245 952.44,275.563 954.601,274.886 956.762,274.214 958.923,273.546 961.084,272.883 963.245,272.224 965.406,271.57 967.567,270.92 969.728,270.275 971.889,269.634 974.05,268.997 976.211,268.365 978.372,267.737 980.533,267.113 982.694,266.494 984.855,265.878 987.016,265.267 989.177,264.66 991.338,264.057 993.499,263.459 995.66,262.864 997.821,262.273 999.982,261.687 1002.14,261.104 1004.3,260.525 1006.46,259.95 1008.63,259.379 1010.79,258.812 1012.95,258.249 1015.11,257.689 1017.27,257.133 1019.43,256.582 1021.59,256.033 1023.75,255.489 1025.91,254.948 1028.07,254.411 1030.24,253.877 1032.4,253.347 1034.56,252.82 1036.72,252.298 1038.88,251.778 1041.04,251.262 1043.2,250.75 1045.36,250.241 1047.52,249.735 1049.68,249.233 1051.85,248.734 1054.01,248.239 1056.17,247.747 1058.33,247.258 1060.49,246.772 1062.65,246.29 1064.81,245.811 1066.97,245.335 1069.13,244.862 1071.29,244.392 1073.46,243.926 1075.62,243.463 1077.78,243.002 1079.94,242.545 1082.1,242.091 1084.26,241.64 1086.42,241.192 1088.58,240.747 1090.74,240.305 1092.9,239.865 1095.07,239.429 1097.23,238.996 1099.39,238.565 1101.55,238.137 1103.71,237.713 1105.87,237.291 1108.03,236.871 1110.19,236.455 1112.35,236.041 1114.51,235.63 1116.67,235.222 1118.84,234.817 1121,234.414 1123.16,234.014 1125.32,233.616 1127.48,233.222 1129.64,232.829 1131.8,232.44 1133.96,232.053 1136.12,231.668 1138.28,231.287 1140.45,230.907 1142.61,230.53 1144.77,230.156 1146.93,229.784 1149.09,229.415 1151.25,229.048 1153.41,228.683 1155.57,228.321 1157.73,227.961 1159.89,227.604 1162.06,227.249 1164.22,226.896 1166.38,226.546 1168.54,226.198 1170.7,225.852 1172.86,225.509 1175.02,225.168 1177.18,224.829 1179.34,224.492 1181.5,224.157 1183.67,223.825 1185.83,223.495 1187.99,223.167 1190.15,222.841 1192.31,222.518 1194.47,222.196 1196.63,221.877 1198.79,221.56 1200.95,221.244 1203.11,220.931 1205.28,220.62 1207.44,220.311 1209.6,220.004 1211.76,219.699 1213.92,219.396 1216.08,219.095 1218.24,218.796 1220.4,218.499 1222.56,218.204 1224.72,217.911 1226.88,217.619 1229.05,217.33 1231.21,217.042 1233.37,216.757 1235.53,216.473 1237.69,216.191 1239.85,215.911 1242.01,215.632 1244.17,215.356 1246.33,215.081 1248.49,214.808 1250.66,214.537 1252.82,214.268 1254.98,214 1257.14,213.734 1259.3,213.47 1261.46,213.208 1263.62,212.947 1265.78,212.688 1267.94,212.431 1270.1,212.175 1272.27,211.921 1274.43,211.668 1276.59,211.418 1278.75,211.169 1280.91,210.921 1283.07,210.675 1285.23,210.431 1287.39,210.188 1289.55,209.947 1291.71,209.707 1293.88,209.469 1296.04,209.233 1298.2,208.998 1300.36,208.764 1302.52,208.532 1304.68,208.302 1306.84,208.073 1309,207.846 1311.16,207.62 1313.32,207.395 1315.49,207.172 1317.65,206.95 1319.81,206.73 1321.97,206.511 1324.13,206.294 1326.29,206.078 1328.45,205.864 1330.61,205.65 1332.77,205.439 1334.93,205.228 1337.09,205.019 1339.26,204.811 1341.42,204.605 1343.58,204.4 1345.74,204.196 1347.9,203.994 1350.06,203.793 1352.22,203.593 1354.38,203.395 1356.54,203.197 1358.7,203.001 1360.87,202.807 1363.03,202.613 1365.19,202.421 1367.35,202.23 1369.51,202.04 1371.67,201.852 1373.83,201.665 1375.99,201.478 1378.15,201.294 1380.31,201.11 1382.48,200.927 1384.64,200.746 1386.8,200.566 1388.96,200.387 1391.12,200.209 1393.28,200.032 1395.44,199.856 1397.6,199.682 1399.76,199.508 1401.92,199.336 1404.09,199.165 1406.25,198.995 1408.41,198.826 1410.57,198.658 1412.73,198.491 1414.89,198.325 1417.05,198.161 1419.21,197.997 1421.37,197.834 1423.53,197.673 1425.7,197.512 1427.86,197.353 1430.02,197.194 1432.18,197.036 1434.34,196.88 1436.5,196.724 1438.66,196.57 1440.82,196.416 1442.98,196.264 1445.14,196.112 1447.3,195.961 1449.47,195.812 1451.63,195.663 1453.79,195.515 1455.95,195.368 1458.11,195.222 1460.27,195.077 1462.43,194.933 1464.59,194.79 1466.75,194.648 1468.91,194.506 1471.08,194.366 1473.24,194.226 1475.4,194.087 1477.56,193.95 1479.72,193.813 1481.88,193.677 1484.04,193.541 1486.2,193.407 1488.36,193.273 1490.52,193.141 1492.69,193.009 1494.85,192.878 1497.01,192.748 1499.17,192.619 1501.33,192.49 1503.49,192.362 1505.65,192.236 1507.81,192.109 1509.97,191.984 1512.13,191.86 1514.3,191.736 1516.46,191.613 1518.62,191.491 1520.78,191.37 1522.94,191.249 1525.1,191.129 1527.26,191.01 1529.42,190.892 1531.58,190.775 1533.74,190.658 1535.91,190.542 1538.07,190.426 1540.23,190.312 1542.39,190.198 1544.55,190.085 1546.71,189.972 1548.87,189.861 1551.03,189.75 1553.19,189.639 1555.35,189.53 1557.51,189.421 1559.68,189.313 1561.84,189.205 1564,189.098 1566.16,188.992 1568.32,188.887 1570.48,188.782 1572.64,188.678 1574.8,188.574 1576.96,188.471 1579.12,188.369 1581.29,188.267 1583.45,188.166 1585.61,188.066 1587.77,187.967 1589.93,187.867 1592.09,187.769 1594.25,187.671 1596.41,187.574 1598.57,187.478 1600.73,187.382 1602.9,187.286 1605.06,187.191 1607.22,187.097 1609.38,187.004 1611.54,186.911 1613.7,186.818 1615.86,186.726 1618.02,186.635 1620.18,186.544 1622.34,186.454 1624.51,186.365 1626.67,186.276 1628.83,186.187 1630.99,186.099 1633.15,186.012 1635.31,185.925 1637.47,185.839 1639.63,185.753 1641.79,185.668 1643.95,185.584 1646.12,185.499 1648.28,185.416 1650.44,185.333 1652.6,185.25 1654.76,185.168 1656.92,185.087 1659.08,185.005 1661.24,184.925 1663.4,184.845 1665.56,184.765 1667.72,184.686 1669.89,184.608 1672.05,184.53 1674.21,184.452 1676.37,184.375 1678.53,184.298 1680.69,184.222 1682.85,184.147 1685.01,184.071 1687.17,183.997 1689.33,183.922 1691.5,183.849 1693.66,183.775 1695.82,183.702 1697.98,183.63 1700.14,183.558 1702.3,183.486 1704.46,183.415 1706.62,183.345 1708.78,183.274 1710.94,183.205 1713.11,183.135 1715.27,183.066 1717.43,182.998 1719.59,182.93 1721.75,182.862 1723.91,182.795 1726.07,182.728 1728.23,182.662 1730.39,182.596 1732.55,182.531 1734.72,182.465 1736.88,182.401 1739.04,182.336 1741.2,182.273 1743.36,182.209 1745.52,182.146 1747.68,182.083 1749.84,182.021 1752,181.959 1754.16,181.897 1756.33,181.836 1758.49,181.775 1760.65,181.715 1762.81,181.655 1764.97,181.595 1767.13,181.536 1769.29,181.477 1771.45,181.419 1773.61,181.36 1775.77,181.303 1777.93,181.245 1780.1,181.188 1782.26,181.131 1784.42,181.075 1786.58,181.019 1788.74,180.963 1790.9,180.908 1793.06,180.853 1795.22,180.798 1797.38,180.744 1799.54,180.69 1801.71,180.636 1803.87,180.583 1806.03,180.53 1808.19,180.478 1810.35,180.425 1812.51,180.373 1814.67,180.322 1816.83,180.27 1818.99,180.219 1821.15,180.168 1823.32,180.118 1825.48,180.068 1827.64,180.018 1829.8,179.969 1831.96,179.92 1834.12,179.871 1836.28,179.822 1838.44,179.774 1840.6,179.726 1842.76,179.678 1844.93,179.631 1847.09,179.584 1849.25,179.537 1851.41,179.491 1853.57,179.444 1855.73,179.399 1857.89,179.353 1860.05,179.308 1862.21,179.262 1864.37,179.218 1866.54,179.173 1868.7,179.129 1870.86,179.085 1873.02,179.041 1875.18,178.998 1877.34,178.955 1879.5,178.912 1881.66,178.869 1883.82,178.827 1885.98,178.784 1888.15,178.743 1890.31,178.701 1892.47,178.66 1894.63,178.618 1896.79,178.578 1898.95,178.537 1901.11,178.497 1903.27,178.456 1905.43,178.417 1907.59,178.377 1909.75,178.338 1911.92,178.298 1914.08,178.259 1916.24,178.221 1918.4,178.182 1920.56,178.144 1922.72,178.106 1924.88,178.068 1927.04,178.031 1929.2,177.994 1931.36,177.957 1933.53,177.92 1935.69,177.883 1937.85,177.847 1940.01,177.811 1942.17,177.775 1944.33,177.739 1946.49,177.704 1948.65,177.668 1950.81,177.633 1952.97,177.598 1955.14,177.564 1957.3,177.529 1959.46,177.495 1961.62,177.461 1963.78,177.427 1965.94,177.394 1968.1,177.36 1970.26,177.327 1972.42,177.294 1974.58,177.262 1976.75,177.229 1978.91,177.197 1981.07,177.165 1983.23,177.133 1985.39,177.101 1987.55,177.069 1989.71,177.038 1991.87,177.007 1994.03,176.976 1996.19,176.945 1998.36,176.914 2000.52,176.884 2002.68,176.854 2004.84,176.824 2007,176.794 2009.16,176.764 2011.32,176.735 2013.48,176.706 2015.64,176.676 2017.8,176.647 2019.96,176.619 2022.13,176.59 2024.29,176.562 2026.45,176.534 2028.61,176.505 2030.77,176.478 2032.93,176.45 2035.09,176.422 2037.25,176.395 2039.41,176.368 2041.57,176.341 2043.74,176.314 2045.9,176.287 2048.06,176.261 2050.22,176.234 2052.38,176.208 2054.54,176.182 2056.7,176.156 2058.86,176.13 2061.02,176.105 2063.18,176.08 2065.35,176.054 2067.51,176.029 2069.67,176.004 2071.83,175.979 2073.99,175.955 2076.15,175.93 2078.31,175.906 2080.47,175.882 2082.63,175.858 2084.79,175.834 2086.96,175.81 2089.12,175.787 2091.28,175.763 2093.44,175.74 2095.6,175.717 2097.76,175.694 2099.92,175.671 2102.08,175.648 2104.24,175.625 2106.4,175.603 2108.57,175.581 2110.73,175.559 2112.89,175.536 2115.05,175.515 2117.21,175.493 2119.37,175.471 2121.53,175.45 2123.69,175.428 2125.85,175.407 2128.01,175.386 2130.17,175.365 2132.34,175.344 2134.5,175.323 2136.66,175.303 2138.82,175.282 2140.98,175.262 2143.14,175.241 2145.3,175.221 2147.46,175.201 2149.62,175.181 2151.78,175.162 2153.95,175.142 2156.11,175.123 2158.27,175.103 2160.43,175.084 2162.59,175.065 2164.75,175.046 2166.91,175.027 2169.07,175.008 2171.23,174.989 2173.39,174.97 2175.56,174.952 2177.72,174.934 2179.88,174.915 2182.04,174.897 2184.2,174.879 2186.36,174.861 2188.52,174.843 2190.68,174.826 2192.84,174.808 2195,174.79 2197.17,174.773 2199.33,174.756 2201.49,174.739 2203.65,174.721 2205.81,174.704 2207.97,174.688 2210.13,174.671 2212.29,174.654 2214.45,174.638 2216.61,174.621 2218.78,174.605 2220.94,174.588 2223.1,174.572 2225.26,174.556 2227.42,174.54 2229.58,174.524 2231.74,174.509 2233.9,174.493 2236.06,174.477 2238.22,174.462 2240.38,174.446 2242.55,174.431 2244.71,174.416 2246.87,174.401 2249.03,174.386 2251.19,174.371 2253.35,174.356 2255.51,174.341 2257.67,174.327 2259.83,174.312 2261.99,174.297 2264.16,174.283 2266.32,174.269 2268.48,174.254 2270.64,174.24 2272.8,174.226 2274.96,174.212 2277.12,174.198 2279.28,174.185 2281.44,174.171 2283.6,174.157 2285.77,174.144 2287.93,174.13 2290.09,174.117 2292.25,174.104 2294.41,174.09 2296.57,174.077 2298.73,174.064 2300.89,174.051 2303.05,174.038 2305.21,174.025 2307.38,174.013 2309.54,174 2311.7,173.987 2313.86,173.975 2316.02,173.962 2318.18,173.95 2320.34,173.938 2322.5,173.926 2324.66,173.913 2326.82,173.901 2328.99,173.889 2331.15,173.877 2333.31,173.866 2335.47,173.854 2337.63,173.842 2339.79,173.83 2341.95,173.819 2344.11,173.807 2346.27,173.796 2348.43,173.785 2350.59,173.773 2352.76,173.762 "/>
<path clip-path="url(#clip260)" d="M1805.52 1377.32 L2280.8 1377.32 L2280.8 1221.8 L1805.52 1221.8  Z" fill="#ffffff" fill-rule="evenodd" fill-opacity="1"/>
<polyline clip-path="url(#clip260)" style="stroke:#000000; stroke-linecap:round; stroke-linejoin:round; stroke-width:4; stroke-opacity:1; fill:none" points="1805.52,1377.32 2280.8,1377.32 2280.8,1221.8 1805.52,1221.8 1805.52,1377.32 "/>
<polyline clip-path="url(#clip260)" style="stroke:#009af9; stroke-linecap:round; stroke-linejoin:round; stroke-width:4; stroke-opacity:1; fill:none" points="1829.5,1273.64 1973.42,1273.64 "/>
<path clip-path="url(#clip260)" d="M1997.41 1264.99 L2001.93 1264.99 L2010.03 1286.75 L2018.13 1264.99 L2022.64 1264.99 L2012.92 1290.92 L2007.13 1290.92 L1997.41 1264.99 Z" fill="#000000" fill-rule="nonzero" fill-opacity="1" /><path clip-path="url(#clip260)" d="M2029.93 1286.98 L2037.57 1286.98 L2037.57 1260.61 L2029.26 1262.28 L2029.26 1258.02 L2037.53 1256.36 L2042.2 1256.36 L2042.2 1286.98 L2049.84 1286.98 L2049.84 1290.92 L2029.93 1290.92 L2029.93 1286.98 Z" fill="#000000" fill-rule="nonzero" fill-opacity="1" /><path clip-path="url(#clip260)" d="M2067.94 1274.27 L2067.94 1281.49 L2076.07 1281.49 L2076.07 1283.69 L2067.94 1283.69 L2067.94 1290.92 L2065.51 1290.92 L2065.51 1283.69 L2057.39 1283.69 L2057.39 1281.49 L2065.51 1281.49 L2065.51 1274.27 L2067.94 1274.27 Z" fill="#000000" fill-rule="nonzero" fill-opacity="1" /><path clip-path="url(#clip260)" d="M2100.24 1265.75 L2100.24 1269.78 Q2098.43 1268.86 2096.49 1268.39 Q2094.54 1267.93 2092.46 1267.93 Q2089.29 1267.93 2087.69 1268.9 Q2086.11 1269.87 2086.11 1271.82 Q2086.11 1273.3 2087.25 1274.16 Q2088.38 1274.99 2091.81 1275.75 L2093.27 1276.08 Q2097.8 1277.05 2099.7 1278.83 Q2101.62 1280.59 2101.62 1283.76 Q2101.62 1287.37 2098.75 1289.48 Q2095.91 1291.59 2090.91 1291.59 Q2088.82 1291.59 2086.55 1291.17 Q2084.31 1290.78 2081.81 1289.97 L2081.81 1285.57 Q2084.17 1286.79 2086.46 1287.42 Q2088.75 1288.02 2091 1288.02 Q2094.01 1288.02 2095.63 1287 Q2097.25 1285.96 2097.25 1284.09 Q2097.25 1282.35 2096.07 1281.42 Q2094.91 1280.5 2090.95 1279.64 L2089.47 1279.3 Q2085.51 1278.46 2083.75 1276.75 Q2081.99 1275.01 2081.99 1272 Q2081.99 1268.35 2084.59 1266.36 Q2087.18 1264.36 2091.95 1264.36 Q2094.31 1264.36 2096.39 1264.71 Q2098.48 1265.06 2100.24 1265.75 Z" fill="#000000" fill-rule="nonzero" fill-opacity="1" /><path clip-path="url(#clip260)" d="M2112.62 1257.63 L2112.62 1264.99 L2121.39 1264.99 L2121.39 1268.3 L2112.62 1268.3 L2112.62 1282.37 Q2112.62 1285.54 2113.48 1286.45 Q2114.36 1287.35 2117.02 1287.35 L2121.39 1287.35 L2121.39 1290.92 L2117.02 1290.92 Q2112.09 1290.92 2110.21 1289.09 Q2108.34 1287.23 2108.34 1282.37 L2108.34 1268.3 L2105.21 1268.3 L2105.21 1264.99 L2108.34 1264.99 L2108.34 1257.63 L2112.62 1257.63 Z" fill="#000000" fill-rule="nonzero" fill-opacity="1" /><path clip-path="url(#clip260)" d="M2137.04 1267.98 Q2133.61 1267.98 2131.62 1270.66 Q2129.63 1273.32 2129.63 1277.98 Q2129.63 1282.63 2131.6 1285.31 Q2133.59 1287.98 2137.04 1287.98 Q2140.44 1287.98 2142.43 1285.29 Q2144.42 1282.61 2144.42 1277.98 Q2144.42 1273.37 2142.43 1270.68 Q2140.44 1267.98 2137.04 1267.98 M2137.04 1264.36 Q2142.6 1264.36 2145.77 1267.98 Q2148.94 1271.59 2148.94 1277.98 Q2148.94 1284.34 2145.77 1287.98 Q2142.6 1291.59 2137.04 1291.59 Q2131.46 1291.59 2128.29 1287.98 Q2125.14 1284.34 2125.14 1277.98 Q2125.14 1271.59 2128.29 1267.98 Q2131.46 1264.36 2137.04 1264.36 Z" fill="#000000" fill-rule="nonzero" fill-opacity="1" /><path clip-path="url(#clip260)" d="M2171.02 1268.97 Q2170.3 1268.55 2169.45 1268.37 Q2168.61 1268.16 2167.6 1268.16 Q2163.98 1268.16 2162.04 1270.52 Q2160.12 1272.86 2160.12 1277.26 L2160.12 1290.92 L2155.84 1290.92 L2155.84 1264.99 L2160.12 1264.99 L2160.12 1269.02 Q2161.46 1266.66 2163.61 1265.52 Q2165.77 1264.36 2168.85 1264.36 Q2169.29 1264.36 2169.82 1264.43 Q2170.35 1264.48 2171 1264.6 L2171.02 1268.97 Z" fill="#000000" fill-rule="nonzero" fill-opacity="1" /><path clip-path="url(#clip260)" d="M2187.27 1277.88 Q2182.11 1277.88 2180.12 1279.06 Q2178.13 1280.24 2178.13 1283.09 Q2178.13 1285.36 2179.61 1286.7 Q2181.11 1288.02 2183.68 1288.02 Q2187.23 1288.02 2189.36 1285.52 Q2191.51 1283 2191.51 1278.83 L2191.51 1277.88 L2187.27 1277.88 M2195.77 1276.12 L2195.77 1290.92 L2191.51 1290.92 L2191.51 1286.98 Q2190.05 1289.34 2187.87 1290.48 Q2185.7 1291.59 2182.55 1291.59 Q2178.57 1291.59 2176.21 1289.36 Q2173.87 1287.12 2173.87 1283.37 Q2173.87 1278.99 2176.79 1276.77 Q2179.73 1274.55 2185.54 1274.55 L2191.51 1274.55 L2191.51 1274.13 Q2191.51 1271.19 2189.56 1269.6 Q2187.64 1267.98 2184.15 1267.98 Q2181.92 1267.98 2179.82 1268.51 Q2177.71 1269.04 2175.77 1270.11 L2175.77 1266.17 Q2178.11 1265.27 2180.3 1264.83 Q2182.5 1264.36 2184.59 1264.36 Q2190.21 1264.36 2192.99 1267.28 Q2195.77 1270.2 2195.77 1276.12 Z" fill="#000000" fill-rule="nonzero" fill-opacity="1" /><path clip-path="url(#clip260)" d="M2221.6 1277.65 Q2221.6 1273.02 2219.68 1270.48 Q2217.78 1267.93 2214.33 1267.93 Q2210.91 1267.93 2208.98 1270.48 Q2207.09 1273.02 2207.09 1277.65 Q2207.09 1282.26 2208.98 1284.8 Q2210.91 1287.35 2214.33 1287.35 Q2217.78 1287.35 2219.68 1284.8 Q2221.6 1282.26 2221.6 1277.65 M2225.86 1287.7 Q2225.86 1294.32 2222.92 1297.54 Q2219.98 1300.78 2213.92 1300.78 Q2211.67 1300.78 2209.68 1300.43 Q2207.69 1300.11 2205.81 1299.41 L2205.81 1295.27 Q2207.69 1296.29 2209.52 1296.77 Q2211.35 1297.26 2213.24 1297.26 Q2217.43 1297.26 2219.52 1295.06 Q2221.6 1292.88 2221.6 1288.46 L2221.6 1286.36 Q2220.28 1288.65 2218.22 1289.78 Q2216.16 1290.92 2213.29 1290.92 Q2208.52 1290.92 2205.6 1287.28 Q2202.69 1283.65 2202.69 1277.65 Q2202.69 1271.63 2205.6 1268 Q2208.52 1264.36 2213.29 1264.36 Q2216.16 1264.36 2218.22 1265.5 Q2220.28 1266.63 2221.6 1268.92 L2221.6 1264.99 L2225.86 1264.99 L2225.86 1287.7 Z" fill="#000000" fill-rule="nonzero" fill-opacity="1" /><path clip-path="url(#clip260)" d="M2256.81 1276.89 L2256.81 1278.97 L2237.23 1278.97 Q2237.5 1283.37 2239.86 1285.68 Q2242.25 1287.98 2246.48 1287.98 Q2248.94 1287.98 2251.23 1287.37 Q2253.54 1286.77 2255.81 1285.57 L2255.81 1289.6 Q2253.52 1290.57 2251.11 1291.08 Q2248.71 1291.59 2246.23 1291.59 Q2240.03 1291.59 2236.39 1287.98 Q2232.78 1284.36 2232.78 1278.21 Q2232.78 1271.84 2236.21 1268.11 Q2239.66 1264.36 2245.49 1264.36 Q2250.72 1264.36 2253.75 1267.74 Q2256.81 1271.1 2256.81 1276.89 M2252.55 1275.64 Q2252.5 1272.14 2250.58 1270.06 Q2248.68 1267.98 2245.54 1267.98 Q2241.97 1267.98 2239.82 1269.99 Q2237.69 1272 2237.36 1275.66 L2252.55 1275.64 Z" fill="#000000" fill-rule="nonzero" fill-opacity="1" /><polyline clip-path="url(#clip260)" style="stroke:#e26f46; stroke-linecap:round; stroke-linejoin:round; stroke-width:4; stroke-opacity:1; fill:none" points="1829.5,1325.48 1973.42,1325.48 "/>
<path clip-path="url(#clip260)" d="M1997.41 1316.83 L2001.93 1316.83 L2010.03 1338.59 L2018.13 1316.83 L2022.64 1316.83 L2012.92 1342.76 L2007.13 1342.76 L1997.41 1316.83 Z" fill="#000000" fill-rule="nonzero" fill-opacity="1" /><path clip-path="url(#clip260)" d="M2029.17 1308.2 L2047.53 1308.2 L2047.53 1312.13 L2033.45 1312.13 L2033.45 1320.6 Q2034.47 1320.26 2035.49 1320.09 Q2036.51 1319.91 2037.53 1319.91 Q2043.31 1319.91 2046.69 1323.08 Q2050.07 1326.25 2050.07 1331.67 Q2050.07 1337.25 2046.6 1340.35 Q2043.13 1343.43 2036.81 1343.43 Q2034.63 1343.43 2032.37 1343.06 Q2030.12 1342.69 2027.71 1341.95 L2027.71 1337.25 Q2029.8 1338.38 2032.02 1338.94 Q2034.24 1339.49 2036.72 1339.49 Q2040.72 1339.49 2043.06 1337.38 Q2045.4 1335.28 2045.4 1331.67 Q2045.4 1328.06 2043.06 1325.95 Q2040.72 1323.84 2036.72 1323.84 Q2034.84 1323.84 2032.97 1324.26 Q2031.12 1324.68 2029.17 1325.56 L2029.17 1308.2 Z" fill="#000000" fill-rule="nonzero" fill-opacity="1" /><path clip-path="url(#clip260)" d="M2067.94 1326.11 L2067.94 1333.33 L2076.07 1333.33 L2076.07 1335.53 L2067.94 1335.53 L2067.94 1342.76 L2065.51 1342.76 L2065.51 1335.53 L2057.39 1335.53 L2057.39 1333.33 L2065.51 1333.33 L2065.51 1326.11 L2067.94 1326.11 Z" fill="#000000" fill-rule="nonzero" fill-opacity="1" /><path clip-path="url(#clip260)" d="M2100.24 1317.59 L2100.24 1321.62 Q2098.43 1320.7 2096.49 1320.23 Q2094.54 1319.77 2092.46 1319.77 Q2089.29 1319.77 2087.69 1320.74 Q2086.11 1321.71 2086.11 1323.66 Q2086.11 1325.14 2087.25 1326 Q2088.38 1326.83 2091.81 1327.59 L2093.27 1327.92 Q2097.8 1328.89 2099.7 1330.67 Q2101.62 1332.43 2101.62 1335.6 Q2101.62 1339.21 2098.75 1341.32 Q2095.91 1343.43 2090.91 1343.43 Q2088.82 1343.43 2086.55 1343.01 Q2084.31 1342.62 2081.81 1341.81 L2081.81 1337.41 Q2084.17 1338.63 2086.46 1339.26 Q2088.75 1339.86 2091 1339.86 Q2094.01 1339.86 2095.63 1338.84 Q2097.25 1337.8 2097.25 1335.93 Q2097.25 1334.19 2096.07 1333.26 Q2094.91 1332.34 2090.95 1331.48 L2089.47 1331.14 Q2085.51 1330.3 2083.75 1328.59 Q2081.99 1326.85 2081.99 1323.84 Q2081.99 1320.19 2084.59 1318.2 Q2087.18 1316.2 2091.95 1316.2 Q2094.31 1316.2 2096.39 1316.55 Q2098.48 1316.9 2100.24 1317.59 Z" fill="#000000" fill-rule="nonzero" fill-opacity="1" /><path clip-path="url(#clip260)" d="M2112.62 1309.47 L2112.62 1316.83 L2121.39 1316.83 L2121.39 1320.14 L2112.62 1320.14 L2112.62 1334.21 Q2112.62 1337.38 2113.48 1338.29 Q2114.36 1339.19 2117.02 1339.19 L2121.39 1339.19 L2121.39 1342.76 L2117.02 1342.76 Q2112.09 1342.76 2110.21 1340.93 Q2108.34 1339.07 2108.34 1334.21 L2108.34 1320.14 L2105.21 1320.14 L2105.21 1316.83 L2108.34 1316.83 L2108.34 1309.47 L2112.62 1309.47 Z" fill="#000000" fill-rule="nonzero" fill-opacity="1" /><path clip-path="url(#clip260)" d="M2137.04 1319.82 Q2133.61 1319.82 2131.62 1322.5 Q2129.63 1325.16 2129.63 1329.82 Q2129.63 1334.47 2131.6 1337.15 Q2133.59 1339.82 2137.04 1339.82 Q2140.44 1339.82 2142.43 1337.13 Q2144.42 1334.45 2144.42 1329.82 Q2144.42 1325.21 2142.43 1322.52 Q2140.44 1319.82 2137.04 1319.82 M2137.04 1316.2 Q2142.6 1316.2 2145.77 1319.82 Q2148.94 1323.43 2148.94 1329.82 Q2148.94 1336.18 2145.77 1339.82 Q2142.6 1343.43 2137.04 1343.43 Q2131.46 1343.43 2128.29 1339.82 Q2125.14 1336.18 2125.14 1329.82 Q2125.14 1323.43 2128.29 1319.82 Q2131.46 1316.2 2137.04 1316.2 Z" fill="#000000" fill-rule="nonzero" fill-opacity="1" /><path clip-path="url(#clip260)" d="M2171.02 1320.81 Q2170.3 1320.39 2169.45 1320.21 Q2168.61 1320 2167.6 1320 Q2163.98 1320 2162.04 1322.36 Q2160.12 1324.7 2160.12 1329.1 L2160.12 1342.76 L2155.84 1342.76 L2155.84 1316.83 L2160.12 1316.83 L2160.12 1320.86 Q2161.46 1318.5 2163.61 1317.36 Q2165.77 1316.2 2168.85 1316.2 Q2169.29 1316.2 2169.82 1316.27 Q2170.35 1316.32 2171 1316.44 L2171.02 1320.81 Z" fill="#000000" fill-rule="nonzero" fill-opacity="1" /><path clip-path="url(#clip260)" d="M2187.27 1329.72 Q2182.11 1329.72 2180.12 1330.9 Q2178.13 1332.08 2178.13 1334.93 Q2178.13 1337.2 2179.61 1338.54 Q2181.11 1339.86 2183.68 1339.86 Q2187.23 1339.86 2189.36 1337.36 Q2191.51 1334.84 2191.51 1330.67 L2191.51 1329.72 L2187.27 1329.72 M2195.77 1327.96 L2195.77 1342.76 L2191.51 1342.76 L2191.51 1338.82 Q2190.05 1341.18 2187.87 1342.32 Q2185.7 1343.43 2182.55 1343.43 Q2178.57 1343.43 2176.21 1341.2 Q2173.87 1338.96 2173.87 1335.21 Q2173.87 1330.83 2176.79 1328.61 Q2179.73 1326.39 2185.54 1326.39 L2191.51 1326.39 L2191.51 1325.97 Q2191.51 1323.03 2189.56 1321.44 Q2187.64 1319.82 2184.15 1319.82 Q2181.92 1319.82 2179.82 1320.35 Q2177.71 1320.88 2175.77 1321.95 L2175.77 1318.01 Q2178.11 1317.11 2180.3 1316.67 Q2182.5 1316.2 2184.59 1316.2 Q2190.21 1316.2 2192.99 1319.12 Q2195.77 1322.04 2195.77 1327.96 Z" fill="#000000" fill-rule="nonzero" fill-opacity="1" /><path clip-path="url(#clip260)" d="M2221.6 1329.49 Q2221.6 1324.86 2219.68 1322.32 Q2217.78 1319.77 2214.33 1319.77 Q2210.91 1319.77 2208.98 1322.32 Q2207.09 1324.86 2207.09 1329.49 Q2207.09 1334.1 2208.98 1336.64 Q2210.91 1339.19 2214.33 1339.19 Q2217.78 1339.19 2219.68 1336.64 Q2221.6 1334.1 2221.6 1329.49 M2225.86 1339.54 Q2225.86 1346.16 2222.92 1349.38 Q2219.98 1352.62 2213.92 1352.62 Q2211.67 1352.62 2209.68 1352.27 Q2207.69 1351.95 2205.81 1351.25 L2205.81 1347.11 Q2207.69 1348.13 2209.52 1348.61 Q2211.35 1349.1 2213.24 1349.1 Q2217.43 1349.1 2219.52 1346.9 Q2221.6 1344.72 2221.6 1340.3 L2221.6 1338.2 Q2220.28 1340.49 2218.22 1341.62 Q2216.16 1342.76 2213.29 1342.76 Q2208.52 1342.76 2205.6 1339.12 Q2202.69 1335.49 2202.69 1329.49 Q2202.69 1323.47 2205.6 1319.84 Q2208.52 1316.2 2213.29 1316.2 Q2216.16 1316.2 2218.22 1317.34 Q2220.28 1318.47 2221.6 1320.76 L2221.6 1316.83 L2225.86 1316.83 L2225.86 1339.54 Z" fill="#000000" fill-rule="nonzero" fill-opacity="1" /><path clip-path="url(#clip260)" d="M2256.81 1328.73 L2256.81 1330.81 L2237.23 1330.81 Q2237.5 1335.21 2239.86 1337.52 Q2242.25 1339.82 2246.48 1339.82 Q2248.94 1339.82 2251.23 1339.21 Q2253.54 1338.61 2255.81 1337.41 L2255.81 1341.44 Q2253.52 1342.41 2251.11 1342.92 Q2248.71 1343.43 2246.23 1343.43 Q2240.03 1343.43 2236.39 1339.82 Q2232.78 1336.2 2232.78 1330.05 Q2232.78 1323.68 2236.21 1319.95 Q2239.66 1316.2 2245.49 1316.2 Q2250.72 1316.2 2253.75 1319.58 Q2256.81 1322.94 2256.81 1328.73 M2252.55 1327.48 Q2252.5 1323.98 2250.58 1321.9 Q2248.68 1319.82 2245.54 1319.82 Q2241.97 1319.82 2239.82 1321.83 Q2237.69 1323.84 2237.36 1327.5 L2252.55 1327.48 Z" fill="#000000" fill-rule="nonzero" fill-opacity="1" /></svg>
