<?xml version="1.0" encoding="utf-8"?>
<svg xmlns="http://www.w3.org/2000/svg" xmlns:xlink="http://www.w3.org/1999/xlink" width="600" height="400" viewBox="0 0 2400 1600">
<defs>
  <clipPath id="clip350">
    <rect x="0" y="0" width="2400" height="1600"/>
  </clipPath>
</defs>
<path clip-path="url(#clip350)" d="M0 1600 L2400 1600 L2400 0 L0 0  Z" fill="#ffffff" fill-rule="evenodd" fill-opacity="1"/>
<defs>
  <clipPath id="clip351">
    <rect x="480" y="0" width="1681" height="1600"/>
  </clipPath>
</defs>
<path clip-path="url(#clip350)" d="M194.422 1423.18 L2352.76 1423.18 L2352.76 47.2441 L194.422 47.2441  Z" fill="#ffffff" fill-rule="evenodd" fill-opacity="1"/>
<defs>
  <clipPath id="clip352">
    <rect x="194" y="47" width="2159" height="1377"/>
  </clipPath>
</defs>
<polyline clip-path="url(#clip352)" style="stroke:#000000; stroke-linecap:round; stroke-linejoin:round; stroke-width:2; stroke-opacity:0.1; fill:none" points="194.422,1423.18 194.422,47.2441 "/>
<polyline clip-path="url(#clip352)" style="stroke:#000000; stroke-linecap:round; stroke-linejoin:round; stroke-width:2; stroke-opacity:0.1; fill:none" points="734.006,1423.18 734.006,47.2441 "/>
<polyline clip-path="url(#clip352)" style="stroke:#000000; stroke-linecap:round; stroke-linejoin:round; stroke-width:2; stroke-opacity:0.1; fill:none" points="1273.59,1423.18 1273.59,47.2441 "/>
<polyline clip-path="url(#clip352)" style="stroke:#000000; stroke-linecap:round; stroke-linejoin:round; stroke-width:2; stroke-opacity:0.1; fill:none" points="1813.17,1423.18 1813.17,47.2441 "/>
<polyline clip-path="url(#clip352)" style="stroke:#000000; stroke-linecap:round; stroke-linejoin:round; stroke-width:2; stroke-opacity:0.1; fill:none" points="2352.76,1423.18 2352.76,47.2441 "/>
<polyline clip-path="url(#clip352)" style="stroke:#000000; stroke-linecap:round; stroke-linejoin:round; stroke-width:2; stroke-opacity:0.1; fill:none" points="194.422,1235.03 2352.76,1235.03 "/>
<polyline clip-path="url(#clip352)" style="stroke:#000000; stroke-linecap:round; stroke-linejoin:round; stroke-width:2; stroke-opacity:0.1; fill:none" points="194.422,952.615 2352.76,952.615 "/>
<polyline clip-path="url(#clip352)" style="stroke:#000000; stroke-linecap:round; stroke-linejoin:round; stroke-width:2; stroke-opacity:0.1; fill:none" points="194.422,670.204 2352.76,670.204 "/>
<polyline clip-path="url(#clip352)" style="stroke:#000000; stroke-linecap:round; stroke-linejoin:round; stroke-width:2; stroke-opacity:0.1; fill:none" points="194.422,387.793 2352.76,387.793 "/>
<polyline clip-path="url(#clip352)" style="stroke:#000000; stroke-linecap:round; stroke-linejoin:round; stroke-width:2; stroke-opacity:0.1; fill:none" points="194.422,105.382 2352.76,105.382 "/>
<polyline clip-path="url(#clip350)" style="stroke:#000000; stroke-linecap:round; stroke-linejoin:round; stroke-width:4; stroke-opacity:1; fill:none" points="194.422,1423.18 2352.76,1423.18 "/>
<polyline clip-path="url(#clip350)" style="stroke:#000000; stroke-linecap:round; stroke-linejoin:round; stroke-width:4; stroke-opacity:1; fill:none" points="194.422,1423.18 194.422,1404.28 "/>
<polyline clip-path="url(#clip350)" style="stroke:#000000; stroke-linecap:round; stroke-linejoin:round; stroke-width:4; stroke-opacity:1; fill:none" points="734.006,1423.18 734.006,1404.28 "/>
<polyline clip-path="url(#clip350)" style="stroke:#000000; stroke-linecap:round; stroke-linejoin:round; stroke-width:4; stroke-opacity:1; fill:none" points="1273.59,1423.18 1273.59,1404.28 "/>
<polyline clip-path="url(#clip350)" style="stroke:#000000; stroke-linecap:round; stroke-linejoin:round; stroke-width:4; stroke-opacity:1; fill:none" points="1813.17,1423.18 1813.17,1404.28 "/>
<polyline clip-path="url(#clip350)" style="stroke:#000000; stroke-linecap:round; stroke-linejoin:round; stroke-width:4; stroke-opacity:1; fill:none" points="2352.76,1423.18 2352.76,1404.28 "/>
<path clip-path="url(#clip350)" d="M171.806 1454.1 Q168.195 1454.1 166.367 1457.66 Q164.561 1461.2 164.561 1468.33 Q164.561 1475.44 166.367 1479.01 Q168.195 1482.55 171.806 1482.55 Q175.441 1482.55 177.246 1479.01 Q179.075 1475.44 179.075 1468.33 Q179.075 1461.2 177.246 1457.66 Q175.441 1454.1 171.806 1454.1 M171.806 1450.39 Q177.617 1450.39 180.672 1455 Q183.751 1459.58 183.751 1468.33 Q183.751 1477.06 180.672 1481.67 Q177.617 1486.25 171.806 1486.25 Q165.996 1486.25 162.918 1481.67 Q159.862 1477.06 159.862 1468.33 Q159.862 1459.58 162.918 1455 Q165.996 1450.39 171.806 1450.39 Z" fill="#000000" fill-rule="nonzero" fill-opacity="1" /><path clip-path="url(#clip350)" d="M191.968 1479.7 L196.853 1479.7 L196.853 1485.58 L191.968 1485.58 L191.968 1479.7 Z" fill="#000000" fill-rule="nonzero" fill-opacity="1" /><path clip-path="url(#clip350)" d="M217.038 1454.1 Q213.427 1454.1 211.598 1457.66 Q209.792 1461.2 209.792 1468.33 Q209.792 1475.44 211.598 1479.01 Q213.427 1482.55 217.038 1482.55 Q220.672 1482.55 222.478 1479.01 Q224.306 1475.44 224.306 1468.33 Q224.306 1461.2 222.478 1457.66 Q220.672 1454.1 217.038 1454.1 M217.038 1450.39 Q222.848 1450.39 225.903 1455 Q228.982 1459.58 228.982 1468.33 Q228.982 1477.06 225.903 1481.67 Q222.848 1486.25 217.038 1486.25 Q211.228 1486.25 208.149 1481.67 Q205.093 1477.06 205.093 1468.33 Q205.093 1459.58 208.149 1455 Q211.228 1450.39 217.038 1450.39 Z" fill="#000000" fill-rule="nonzero" fill-opacity="1" /><path clip-path="url(#clip350)" d="M711.888 1454.1 Q708.277 1454.1 706.448 1457.66 Q704.642 1461.2 704.642 1468.33 Q704.642 1475.44 706.448 1479.01 Q708.277 1482.55 711.888 1482.55 Q715.522 1482.55 717.327 1479.01 Q719.156 1475.44 719.156 1468.33 Q719.156 1461.2 717.327 1457.66 Q715.522 1454.1 711.888 1454.1 M711.888 1450.39 Q717.698 1450.39 720.753 1455 Q723.832 1459.58 723.832 1468.33 Q723.832 1477.06 720.753 1481.67 Q717.698 1486.25 711.888 1486.25 Q706.077 1486.25 702.999 1481.67 Q699.943 1477.06 699.943 1468.33 Q699.943 1459.58 702.999 1455 Q706.077 1450.39 711.888 1450.39 Z" fill="#000000" fill-rule="nonzero" fill-opacity="1" /><path clip-path="url(#clip350)" d="M732.05 1479.7 L736.934 1479.7 L736.934 1485.58 L732.05 1485.58 L732.05 1479.7 Z" fill="#000000" fill-rule="nonzero" fill-opacity="1" /><path clip-path="url(#clip350)" d="M747.165 1451.02 L765.522 1451.02 L765.522 1454.96 L751.448 1454.96 L751.448 1463.43 Q752.466 1463.08 753.485 1462.92 Q754.503 1462.73 755.522 1462.73 Q761.309 1462.73 764.688 1465.9 Q768.068 1469.08 768.068 1474.49 Q768.068 1480.07 764.596 1483.17 Q761.123 1486.25 754.804 1486.25 Q752.628 1486.25 750.36 1485.88 Q748.114 1485.51 745.707 1484.77 L745.707 1480.07 Q747.79 1481.2 750.012 1481.76 Q752.235 1482.32 754.711 1482.32 Q758.716 1482.32 761.054 1480.21 Q763.392 1478.1 763.392 1474.49 Q763.392 1470.88 761.054 1468.77 Q758.716 1466.67 754.711 1466.67 Q752.836 1466.67 750.961 1467.08 Q749.11 1467.5 747.165 1468.38 L747.165 1451.02 Z" fill="#000000" fill-rule="nonzero" fill-opacity="1" /><path clip-path="url(#clip350)" d="M1240.74 1481.64 L1248.38 1481.64 L1248.38 1455.28 L1240.07 1456.95 L1240.07 1452.69 L1248.33 1451.02 L1253.01 1451.02 L1253.01 1481.64 L1260.65 1481.64 L1260.65 1485.58 L1240.74 1485.58 L1240.74 1481.64 Z" fill="#000000" fill-rule="nonzero" fill-opacity="1" /><path clip-path="url(#clip350)" d="M1270.09 1479.7 L1274.98 1479.7 L1274.98 1485.58 L1270.09 1485.58 L1270.09 1479.7 Z" fill="#000000" fill-rule="nonzero" fill-opacity="1" /><path clip-path="url(#clip350)" d="M1295.16 1454.1 Q1291.55 1454.1 1289.72 1457.66 Q1287.92 1461.2 1287.92 1468.33 Q1287.92 1475.44 1289.72 1479.01 Q1291.55 1482.55 1295.16 1482.55 Q1298.8 1482.55 1300.6 1479.01 Q1302.43 1475.44 1302.43 1468.33 Q1302.43 1461.2 1300.6 1457.66 Q1298.8 1454.1 1295.16 1454.1 M1295.16 1450.39 Q1300.97 1450.39 1304.03 1455 Q1307.11 1459.58 1307.11 1468.33 Q1307.11 1477.06 1304.03 1481.67 Q1300.97 1486.25 1295.16 1486.25 Q1289.35 1486.25 1286.27 1481.67 Q1283.22 1477.06 1283.22 1468.33 Q1283.22 1459.58 1286.27 1455 Q1289.35 1450.39 1295.16 1450.39 Z" fill="#000000" fill-rule="nonzero" fill-opacity="1" /><path clip-path="url(#clip350)" d="M1780.82 1481.64 L1788.46 1481.64 L1788.46 1455.28 L1780.15 1456.95 L1780.15 1452.69 L1788.42 1451.02 L1793.09 1451.02 L1793.09 1481.64 L1800.73 1481.64 L1800.73 1485.58 L1780.82 1485.58 L1780.82 1481.64 Z" fill="#000000" fill-rule="nonzero" fill-opacity="1" /><path clip-path="url(#clip350)" d="M1810.17 1479.7 L1815.06 1479.7 L1815.06 1485.58 L1810.17 1485.58 L1810.17 1479.7 Z" fill="#000000" fill-rule="nonzero" fill-opacity="1" /><path clip-path="url(#clip350)" d="M1825.29 1451.02 L1843.65 1451.02 L1843.65 1454.96 L1829.57 1454.96 L1829.57 1463.43 Q1830.59 1463.08 1831.61 1462.92 Q1832.63 1462.73 1833.65 1462.73 Q1839.43 1462.73 1842.81 1465.9 Q1846.19 1469.08 1846.19 1474.49 Q1846.19 1480.07 1842.72 1483.17 Q1839.25 1486.25 1832.93 1486.25 Q1830.75 1486.25 1828.48 1485.88 Q1826.24 1485.51 1823.83 1484.77 L1823.83 1480.07 Q1825.92 1481.2 1828.14 1481.76 Q1830.36 1482.32 1832.84 1482.32 Q1836.84 1482.32 1839.18 1480.21 Q1841.52 1478.1 1841.52 1474.49 Q1841.52 1470.88 1839.18 1468.77 Q1836.84 1466.67 1832.84 1466.67 Q1830.96 1466.67 1829.09 1467.08 Q1827.23 1467.5 1825.29 1468.38 L1825.29 1451.02 Z" fill="#000000" fill-rule="nonzero" fill-opacity="1" /><path clip-path="url(#clip350)" d="M2323.99 1481.64 L2340.31 1481.64 L2340.31 1485.58 L2318.37 1485.58 L2318.37 1481.64 Q2321.03 1478.89 2325.61 1474.26 Q2330.22 1469.61 2331.4 1468.27 Q2333.65 1465.74 2334.53 1464.01 Q2335.43 1462.25 2335.43 1460.56 Q2335.43 1457.8 2333.49 1456.07 Q2331.56 1454.33 2328.46 1454.33 Q2326.26 1454.33 2323.81 1455.09 Q2321.38 1455.86 2318.6 1457.41 L2318.6 1452.69 Q2321.43 1451.55 2323.88 1450.97 Q2326.33 1450.39 2328.37 1450.39 Q2333.74 1450.39 2336.93 1453.08 Q2340.13 1455.77 2340.13 1460.26 Q2340.13 1462.39 2339.32 1464.31 Q2338.53 1466.2 2336.42 1468.8 Q2335.85 1469.47 2332.74 1472.69 Q2329.64 1475.88 2323.99 1481.64 Z" fill="#000000" fill-rule="nonzero" fill-opacity="1" /><path clip-path="url(#clip350)" d="M2350.13 1479.7 L2355.01 1479.7 L2355.01 1485.58 L2350.13 1485.58 L2350.13 1479.7 Z" fill="#000000" fill-rule="nonzero" fill-opacity="1" /><path clip-path="url(#clip350)" d="M2375.2 1454.1 Q2371.59 1454.1 2369.76 1457.66 Q2367.95 1461.2 2367.95 1468.33 Q2367.95 1475.44 2369.76 1479.01 Q2371.59 1482.55 2375.2 1482.55 Q2378.83 1482.55 2380.64 1479.01 Q2382.47 1475.44 2382.47 1468.33 Q2382.47 1461.2 2380.64 1457.66 Q2378.83 1454.1 2375.2 1454.1 M2375.2 1450.39 Q2381.01 1450.39 2384.06 1455 Q2387.14 1459.58 2387.14 1468.33 Q2387.14 1477.06 2384.06 1481.67 Q2381.01 1486.25 2375.2 1486.25 Q2369.39 1486.25 2366.31 1481.67 Q2363.25 1477.06 2363.25 1468.33 Q2363.25 1459.58 2366.31 1455 Q2369.39 1450.39 2375.2 1450.39 Z" fill="#000000" fill-rule="nonzero" fill-opacity="1" /><path clip-path="url(#clip350)" d="M1272.65 1522.27 L1272.65 1532.4 L1284.71 1532.4 L1284.71 1536.95 L1272.65 1536.95 L1272.65 1556.3 Q1272.65 1560.66 1273.83 1561.9 Q1275.04 1563.14 1278.7 1563.14 L1284.71 1563.14 L1284.71 1568.04 L1278.7 1568.04 Q1271.92 1568.04 1269.34 1565.53 Q1266.76 1562.98 1266.76 1556.3 L1266.76 1536.95 L1262.46 1536.95 L1262.46 1532.4 L1266.76 1532.4 L1266.76 1522.27 L1272.65 1522.27 Z" fill="#000000" fill-rule="nonzero" fill-opacity="1" /><polyline clip-path="url(#clip350)" style="stroke:#000000; stroke-linecap:round; stroke-linejoin:round; stroke-width:4; stroke-opacity:1; fill:none" points="194.422,1423.18 194.422,47.2441 "/>
<polyline clip-path="url(#clip350)" style="stroke:#000000; stroke-linecap:round; stroke-linejoin:round; stroke-width:4; stroke-opacity:1; fill:none" points="194.422,1235.03 213.32,1235.03 "/>
<polyline clip-path="url(#clip350)" style="stroke:#000000; stroke-linecap:round; stroke-linejoin:round; stroke-width:4; stroke-opacity:1; fill:none" points="194.422,952.615 213.32,952.615 "/>
<polyline clip-path="url(#clip350)" style="stroke:#000000; stroke-linecap:round; stroke-linejoin:round; stroke-width:4; stroke-opacity:1; fill:none" points="194.422,670.204 213.32,670.204 "/>
<polyline clip-path="url(#clip350)" style="stroke:#000000; stroke-linecap:round; stroke-linejoin:round; stroke-width:4; stroke-opacity:1; fill:none" points="194.422,387.793 213.32,387.793 "/>
<polyline clip-path="url(#clip350)" style="stroke:#000000; stroke-linecap:round; stroke-linejoin:round; stroke-width:4; stroke-opacity:1; fill:none" points="194.422,105.382 213.32,105.382 "/>
<path clip-path="url(#clip350)" d="M51.5708 1235.48 L81.2466 1235.48 L81.2466 1239.41 L51.5708 1239.41 L51.5708 1235.48 Z" fill="#000000" fill-rule="nonzero" fill-opacity="1" /><path clip-path="url(#clip350)" d="M101.339 1220.82 Q97.728 1220.82 95.8993 1224.39 Q94.0937 1227.93 94.0937 1235.06 Q94.0937 1242.17 95.8993 1245.73 Q97.728 1249.27 101.339 1249.27 Q104.973 1249.27 106.779 1245.73 Q108.608 1242.17 108.608 1235.06 Q108.608 1227.93 106.779 1224.39 Q104.973 1220.82 101.339 1220.82 M101.339 1217.12 Q107.149 1217.12 110.205 1221.73 Q113.283 1226.31 113.283 1235.06 Q113.283 1243.79 110.205 1248.39 Q107.149 1252.98 101.339 1252.98 Q95.5289 1252.98 92.4502 1248.39 Q89.3947 1243.79 89.3947 1235.06 Q89.3947 1226.31 92.4502 1221.73 Q95.5289 1217.12 101.339 1217.12 Z" fill="#000000" fill-rule="nonzero" fill-opacity="1" /><path clip-path="url(#clip350)" d="M121.501 1246.43 L126.385 1246.43 L126.385 1252.31 L121.501 1252.31 L121.501 1246.43 Z" fill="#000000" fill-rule="nonzero" fill-opacity="1" /><path clip-path="url(#clip350)" d="M146.57 1235.89 Q143.237 1235.89 141.316 1237.68 Q139.418 1239.46 139.418 1242.58 Q139.418 1245.71 141.316 1247.49 Q143.237 1249.27 146.57 1249.27 Q149.904 1249.27 151.825 1247.49 Q153.746 1245.69 153.746 1242.58 Q153.746 1239.46 151.825 1237.68 Q149.927 1235.89 146.57 1235.89 M141.894 1233.9 Q138.885 1233.16 137.195 1231.1 Q135.529 1229.04 135.529 1226.08 Q135.529 1221.94 138.469 1219.53 Q141.431 1217.12 146.57 1217.12 Q151.732 1217.12 154.672 1219.53 Q157.612 1221.94 157.612 1226.08 Q157.612 1229.04 155.922 1231.1 Q154.255 1233.16 151.269 1233.9 Q154.649 1234.69 156.524 1236.98 Q158.422 1239.27 158.422 1242.58 Q158.422 1247.61 155.343 1250.29 Q152.288 1252.98 146.57 1252.98 Q140.853 1252.98 137.774 1250.29 Q134.719 1247.61 134.719 1242.58 Q134.719 1239.27 136.617 1236.98 Q138.515 1234.69 141.894 1233.9 M140.181 1226.52 Q140.181 1229.2 141.848 1230.71 Q143.538 1232.21 146.57 1232.21 Q149.58 1232.21 151.269 1230.71 Q152.982 1229.2 152.982 1226.52 Q152.982 1223.83 151.269 1222.33 Q149.58 1220.82 146.57 1220.82 Q143.538 1220.82 141.848 1222.33 Q140.181 1223.83 140.181 1226.52 Z" fill="#000000" fill-rule="nonzero" fill-opacity="1" /><path clip-path="url(#clip350)" d="M52.381 953.066 L82.0568 953.066 L82.0568 957.001 L52.381 957.001 L52.381 953.066 Z" fill="#000000" fill-rule="nonzero" fill-opacity="1" /><path clip-path="url(#clip350)" d="M102.149 938.414 Q98.5382 938.414 96.7095 941.978 Q94.9039 945.52 94.9039 952.65 Q94.9039 959.756 96.7095 963.321 Q98.5382 966.862 102.149 966.862 Q105.783 966.862 107.589 963.321 Q109.418 959.756 109.418 952.65 Q109.418 945.52 107.589 941.978 Q105.783 938.414 102.149 938.414 M102.149 934.71 Q107.959 934.71 111.015 939.316 Q114.094 943.9 114.094 952.65 Q114.094 961.376 111.015 965.983 Q107.959 970.566 102.149 970.566 Q96.3391 970.566 93.2604 965.983 Q90.2049 961.376 90.2049 952.65 Q90.2049 943.9 93.2604 939.316 Q96.3391 934.71 102.149 934.71 Z" fill="#000000" fill-rule="nonzero" fill-opacity="1" /><path clip-path="url(#clip350)" d="M122.311 964.015 L127.195 964.015 L127.195 969.895 L122.311 969.895 L122.311 964.015 Z" fill="#000000" fill-rule="nonzero" fill-opacity="1" /><path clip-path="url(#clip350)" d="M136.2 935.335 L158.422 935.335 L158.422 937.326 L145.876 969.895 L140.992 969.895 L152.797 939.27 L136.2 939.27 L136.2 935.335 Z" fill="#000000" fill-rule="nonzero" fill-opacity="1" /><path clip-path="url(#clip350)" d="M51.3162 670.655 L80.992 670.655 L80.992 674.591 L51.3162 674.591 L51.3162 670.655 Z" fill="#000000" fill-rule="nonzero" fill-opacity="1" /><path clip-path="url(#clip350)" d="M101.084 656.003 Q97.4734 656.003 95.6447 659.568 Q93.8391 663.109 93.8391 670.239 Q93.8391 677.345 95.6447 680.91 Q97.4734 684.452 101.084 684.452 Q104.719 684.452 106.524 680.91 Q108.353 677.345 108.353 670.239 Q108.353 663.109 106.524 659.568 Q104.719 656.003 101.084 656.003 M101.084 652.299 Q106.895 652.299 109.95 656.905 Q113.029 661.489 113.029 670.239 Q113.029 678.966 109.95 683.572 Q106.895 688.155 101.084 688.155 Q95.2743 688.155 92.1956 683.572 Q89.1401 678.966 89.1401 670.239 Q89.1401 661.489 92.1956 656.905 Q95.2743 652.299 101.084 652.299 Z" fill="#000000" fill-rule="nonzero" fill-opacity="1" /><path clip-path="url(#clip350)" d="M121.246 681.604 L126.131 681.604 L126.131 687.484 L121.246 687.484 L121.246 681.604 Z" fill="#000000" fill-rule="nonzero" fill-opacity="1" /><path clip-path="url(#clip350)" d="M146.894 668.341 Q143.746 668.341 141.894 670.493 Q140.066 672.646 140.066 676.396 Q140.066 680.123 141.894 682.299 Q143.746 684.452 146.894 684.452 Q150.043 684.452 151.871 682.299 Q153.723 680.123 153.723 676.396 Q153.723 672.646 151.871 670.493 Q150.043 668.341 146.894 668.341 M156.177 653.688 L156.177 657.947 Q154.417 657.114 152.612 656.674 Q150.83 656.234 149.07 656.234 Q144.441 656.234 141.987 659.359 Q139.556 662.484 139.209 668.804 Q140.575 666.79 142.635 665.725 Q144.695 664.637 147.172 664.637 Q152.38 664.637 155.39 667.808 Q158.422 670.956 158.422 676.396 Q158.422 681.72 155.274 684.938 Q152.126 688.155 146.894 688.155 Q140.899 688.155 137.728 683.572 Q134.556 678.966 134.556 670.239 Q134.556 662.044 138.445 657.183 Q142.334 652.299 148.885 652.299 Q150.644 652.299 152.427 652.646 Q154.232 652.993 156.177 653.688 Z" fill="#000000" fill-rule="nonzero" fill-opacity="1" /><path clip-path="url(#clip350)" d="M52.4736 388.245 L82.1494 388.245 L82.1494 392.18 L52.4736 392.18 L52.4736 388.245 Z" fill="#000000" fill-rule="nonzero" fill-opacity="1" /><path clip-path="url(#clip350)" d="M102.242 373.592 Q98.6308 373.592 96.8021 377.157 Q94.9965 380.698 94.9965 387.828 Q94.9965 394.934 96.8021 398.499 Q98.6308 402.041 102.242 402.041 Q105.876 402.041 107.682 398.499 Q109.51 394.934 109.51 387.828 Q109.51 380.698 107.682 377.157 Q105.876 373.592 102.242 373.592 M102.242 369.888 Q108.052 369.888 111.108 374.495 Q114.186 379.078 114.186 387.828 Q114.186 396.555 111.108 401.161 Q108.052 405.745 102.242 405.745 Q96.4317 405.745 93.353 401.161 Q90.2975 396.555 90.2975 387.828 Q90.2975 379.078 93.353 374.495 Q96.4317 369.888 102.242 369.888 Z" fill="#000000" fill-rule="nonzero" fill-opacity="1" /><path clip-path="url(#clip350)" d="M122.404 399.194 L127.288 399.194 L127.288 405.073 L122.404 405.073 L122.404 399.194 Z" fill="#000000" fill-rule="nonzero" fill-opacity="1" /><path clip-path="url(#clip350)" d="M137.519 370.513 L155.876 370.513 L155.876 374.448 L141.802 374.448 L141.802 382.921 Q142.82 382.573 143.839 382.411 Q144.857 382.226 145.876 382.226 Q151.663 382.226 155.042 385.397 Q158.422 388.569 158.422 393.985 Q158.422 399.564 154.95 402.666 Q151.478 405.745 145.158 405.745 Q142.982 405.745 140.714 405.374 Q138.469 405.004 136.061 404.263 L136.061 399.564 Q138.144 400.698 140.367 401.254 Q142.589 401.809 145.066 401.809 Q149.07 401.809 151.408 399.703 Q153.746 397.596 153.746 393.985 Q153.746 390.374 151.408 388.268 Q149.07 386.161 145.066 386.161 Q143.191 386.161 141.316 386.578 Q139.464 386.995 137.519 387.874 L137.519 370.513 Z" fill="#000000" fill-rule="nonzero" fill-opacity="1" /><path clip-path="url(#clip350)" d="M50.9921 105.834 L80.6679 105.834 L80.6679 109.769 L50.9921 109.769 L50.9921 105.834 Z" fill="#000000" fill-rule="nonzero" fill-opacity="1" /><path clip-path="url(#clip350)" d="M100.76 91.1811 Q97.1493 91.1811 95.3206 94.7459 Q93.515 98.2876 93.515 105.417 Q93.515 112.524 95.3206 116.088 Q97.1493 119.63 100.76 119.63 Q104.395 119.63 106.2 116.088 Q108.029 112.524 108.029 105.417 Q108.029 98.2876 106.2 94.7459 Q104.395 91.1811 100.76 91.1811 M100.76 87.4774 Q106.571 87.4774 109.626 92.0839 Q112.705 96.6672 112.705 105.417 Q112.705 114.144 109.626 118.75 Q106.571 123.334 100.76 123.334 Q94.9502 123.334 91.8715 118.75 Q88.816 114.144 88.816 105.417 Q88.816 96.6672 91.8715 92.0839 Q94.9502 87.4774 100.76 87.4774 Z" fill="#000000" fill-rule="nonzero" fill-opacity="1" /><path clip-path="url(#clip350)" d="M120.922 116.783 L125.807 116.783 L125.807 122.662 L120.922 122.662 L120.922 116.783 Z" fill="#000000" fill-rule="nonzero" fill-opacity="1" /><path clip-path="url(#clip350)" d="M148.839 92.1765 L137.033 110.625 L148.839 110.625 L148.839 92.1765 M147.612 88.1024 L153.492 88.1024 L153.492 110.625 L158.422 110.625 L158.422 114.514 L153.492 114.514 L153.492 122.662 L148.839 122.662 L148.839 114.514 L133.237 114.514 L133.237 110 L147.612 88.1024 Z" fill="#000000" fill-rule="nonzero" fill-opacity="1" /><polyline clip-path="url(#clip352)" style="stroke:#009af9; stroke-linecap:round; stroke-linejoin:round; stroke-width:4; stroke-opacity:1; fill:none" points="194.422,1384.24 196.583,1371.31 198.743,1358.51 200.904,1345.84 203.064,1333.29 205.225,1320.87 207.385,1308.57 209.546,1296.39 211.706,1284.34 213.867,1272.4 216.027,1260.59 218.188,1248.89 220.348,1237.31 222.509,1225.84 224.669,1214.49 226.83,1203.25 228.99,1192.13 231.151,1181.11 233.311,1170.2 235.471,1159.41 237.632,1148.72 239.792,1138.13 241.953,1127.66 244.113,1117.28 246.274,1107.01 248.434,1096.84 250.595,1086.78 252.755,1076.81 254.916,1066.94 257.076,1057.17 259.237,1047.5 261.397,1037.93 263.558,1028.45 265.718,1019.06 267.879,1009.77 270.039,1000.57 272.2,991.46 274.36,982.443 276.521,973.515 278.681,964.677 280.842,955.926 283.002,947.263 285.163,938.686 287.323,930.194 289.484,921.787 291.644,913.464 293.805,905.224 295.965,897.065 298.126,888.989 300.286,880.992 302.447,873.075 304.607,865.237 306.768,857.477 308.928,849.794 311.089,842.188 313.249,834.658 315.41,827.202 317.57,819.821 319.731,812.513 321.891,805.279 324.052,798.116 326.212,791.024 328.373,784.003 330.533,777.052 332.694,770.17 334.854,763.357 337.015,756.611 339.175,749.933 341.336,743.321 343.496,736.775 345.657,730.295 347.817,723.878 349.978,717.526 352.138,711.237 354.299,705.011 356.459,698.847 358.62,692.744 360.78,686.702 362.941,680.72 365.101,674.798 367.262,668.935 369.422,663.13 371.583,657.383 373.743,651.693 375.904,646.06 378.064,640.484 380.225,634.962 382.385,629.496 384.546,624.084 386.706,618.726 388.867,613.421 391.027,608.169 393.188,602.97 395.348,597.822 397.509,592.726 399.669,587.68 401.83,582.684 403.99,577.739 406.151,572.842 408.311,567.994 410.472,563.195 412.632,558.443 414.793,553.739 416.953,549.081 419.114,544.47 421.274,539.904 423.435,535.384 425.595,530.91 427.755,526.479 429.916,522.093 432.076,517.751 434.237,513.451 436.397,509.195 438.558,504.981 440.718,500.809 442.879,496.679 445.039,492.589 447.2,488.541 449.36,484.533 451.521,480.565 453.681,476.636 455.842,472.746 458.002,468.896 460.163,465.083 462.323,461.309 464.484,457.572 466.644,453.873 468.805,450.21 470.965,446.584 473.126,442.994 475.286,439.439 477.447,435.921 479.607,432.437 481.768,428.987 483.928,425.573 486.089,422.192 488.249,418.845 490.41,415.531 492.57,412.25 494.731,409.002 496.891,405.786 499.052,402.602 501.212,399.45 503.373,396.329 505.533,393.239 507.694,390.18 509.854,387.152 512.015,384.153 514.175,381.184 516.336,378.245 518.496,375.335 520.657,372.454 522.817,369.602 524.978,366.778 527.138,363.982 529.299,361.214 531.459,358.474 533.62,355.761 535.78,353.075 537.941,350.415 540.101,347.783 542.262,345.176 544.422,342.596 546.583,340.041 548.743,337.512 550.904,335.008 553.064,332.529 555.225,330.074 557.385,327.645 559.546,325.239 561.706,322.857 563.867,320.5 566.027,318.165 568.188,315.854 570.348,313.566 572.509,311.301 574.669,309.059 576.83,306.838 578.99,304.64 581.151,302.464 583.311,300.31 585.472,298.177 587.632,296.065 589.793,293.974 591.953,291.904 594.114,289.855 596.274,287.826 598.435,285.818 600.595,283.829 602.756,281.86 604.916,279.911 607.077,277.981 609.237,276.07 611.398,274.179 613.558,272.306 615.718,270.452 617.879,268.616 620.039,266.798 622.2,264.999 624.36,263.217 626.521,261.454 628.681,259.707 630.842,257.978 633.002,256.266 635.163,254.571 637.323,252.893 639.484,251.232 641.644,249.587 643.805,247.959 645.965,246.346 648.126,244.75 650.286,243.169 652.447,241.605 654.607,240.056 656.768,238.522 658.928,237.004 661.089,235.5 663.249,234.012 665.41,232.539 667.57,231.08 669.731,229.636 671.891,228.206 674.052,226.791 676.212,225.389 678.373,224.002 680.533,222.629 682.694,221.269 684.854,219.923 687.015,218.59 689.175,217.27 691.336,215.964 693.496,214.671 695.657,213.391 697.817,212.123 699.978,210.868 702.138,209.626 704.299,208.396 706.459,207.178 708.62,205.973 710.78,204.779 712.941,203.598 715.101,202.428 717.262,201.27 719.422,200.123 721.583,198.988 723.743,197.865 725.904,196.752 728.064,195.65 730.225,194.56 732.385,193.48 734.546,192.411 736.706,191.353 738.867,190.305 741.027,189.268 743.188,188.241 745.348,187.224 747.509,186.218 749.669,185.221 751.83,184.234 753.99,183.257 756.151,182.29 758.311,181.332 760.472,180.384 762.632,179.445 764.793,178.516 766.953,177.596 769.114,176.685 771.274,175.783 773.435,174.889 775.595,174.005 777.756,173.129 779.916,172.262 782.077,171.404 784.237,170.554 786.398,169.713 788.558,168.88 790.719,168.055 792.879,167.238 795.04,166.43 797.2,165.629 799.361,164.837 801.521,164.052 803.681,163.275 805.842,162.506 808.002,161.745 810.163,160.991 812.323,160.245 814.484,159.506 816.644,158.775 818.805,158.051 820.965,157.334 823.126,156.624 825.286,155.921 827.447,155.226 829.607,154.537 831.768,153.856 833.928,153.181 836.089,152.513 838.249,151.851 840.41,151.196 842.57,150.548 844.731,149.906 846.891,149.271 849.052,148.642 851.212,148.019 853.373,147.403 855.533,146.793 857.694,146.189 859.854,145.591 862.015,144.998 864.175,144.412 866.336,143.832 868.496,143.258 870.657,142.689 872.817,142.126 874.978,141.568 877.138,141.017 879.299,140.47 881.459,139.929 883.62,139.394 885.78,138.864 887.941,138.339 890.101,137.819 892.262,137.305 894.422,136.796 896.583,136.292 898.743,135.792 900.904,135.298 903.064,134.809 905.225,134.324 907.385,133.845 909.546,133.37 911.706,132.9 913.867,132.434 916.027,131.973 918.188,131.517 920.348,131.065 922.509,130.618 924.669,130.175 926.83,129.737 928.99,129.302 931.151,128.873 933.311,128.447 935.472,128.025 937.632,127.608 939.793,127.195 941.953,126.786 944.114,126.38 946.274,125.979 948.435,125.582 950.595,125.189 952.756,124.799 954.916,124.414 957.077,124.032 959.237,123.654 961.398,123.279 963.558,122.909 965.719,122.542 967.879,122.179 970.04,121.819 972.2,121.463 974.361,121.11 976.521,120.761 978.682,120.416 980.842,120.074 983.003,119.735 985.163,119.4 987.324,119.068 989.484,118.739 991.645,118.414 993.805,118.091 995.965,117.773 998.126,117.457 1000.29,117.144 1002.45,116.835 1004.61,116.529 1006.77,116.225 1008.93,115.925 1011.09,115.628 1013.25,115.334 1015.41,115.043 1017.57,114.755 1019.73,114.469 1021.89,114.187 1024.05,113.907 1026.21,113.63 1028.37,113.356 1030.53,113.085 1032.69,112.816 1034.85,112.551 1037.01,112.287 1039.18,112.027 1041.34,111.769 1043.5,111.514 1045.66,111.261 1047.82,111.011 1049.98,110.763 1052.14,110.518 1054.3,110.275 1056.46,110.035 1058.62,109.797 1060.78,109.562 1062.94,109.329 1065.1,109.098 1067.26,108.869 1069.42,108.643 1071.58,108.419 1073.74,108.198 1075.9,107.978 1078.06,107.761 1080.22,107.546 1082.39,107.333 1084.55,107.123 1086.71,106.914 1088.87,106.707 1091.03,106.503 1093.19,106.3 1095.35,106.1 1097.51,105.901 1099.67,105.705 1101.83,105.51 1103.99,105.318 1106.15,105.127 1108.31,104.938 1110.47,104.751 1112.63,104.566 1114.79,104.382 1116.95,104.201 1119.11,104.021 1121.27,103.843 1123.43,103.667 1125.6,103.492 1127.76,103.319 1129.92,103.148 1132.08,102.979 1134.24,102.811 1136.4,102.644 1138.56,102.48 1140.72,102.317 1142.88,102.155 1145.04,101.995 1147.2,101.837 1149.36,101.68 1151.52,101.525 1153.68,101.371 1155.84,101.219 1158,101.068 1160.16,100.919 1162.32,100.771 1164.48,100.625 1166.64,100.48 1168.81,100.336 1170.97,100.194 1173.13,100.053 1175.29,99.9141 1177.45,99.7763 1179.61,99.6397 1181.77,99.5046 1183.93,99.3707 1186.09,99.2383 1188.25,99.1071 1190.41,98.9773 1192.57,98.8487 1194.73,98.7215 1196.89,98.5955 1199.05,98.4708 1201.21,98.3473 1203.37,98.2251 1205.53,98.1041 1207.69,97.9844 1209.85,97.8658 1212.01,97.7484 1214.18,97.6323 1216.34,97.5173 1218.5,97.4035 1220.66,97.2908 1222.82,97.1793 1224.98,97.0689 1227.14,96.9596 1229.3,96.8515 1231.46,96.7444 1233.62,96.6384 1235.78,96.5335 1237.94,96.4297 1240.1,96.327 1242.26,96.2253 1244.42,96.1246 1246.58,96.0249 1248.74,95.9263 1250.9,95.8287 1253.06,95.7321 1255.22,95.6364 1257.39,95.5418 1259.55,95.4481 1261.71,95.3553 1263.87,95.2635 1266.03,95.1727 1268.19,95.0828 1270.35,94.9938 1272.51,94.9057 1274.67,94.8184 1276.83,94.7321 1278.99,94.6467 1281.15,94.5621 1283.31,94.4784 1285.47,94.3956 1287.63,94.3135 1289.79,94.2324 1291.95,94.152 1294.11,94.0725 1296.27,93.9937 1298.43,93.9158 1300.6,93.8386 1302.76,93.7622 1304.92,93.6866 1307.08,93.6117 1309.24,93.5376 1311.4,93.4643 1313.56,93.3916 1315.72,93.3197 1317.88,93.2485 1320.04,93.178 1322.2,93.1082 1324.36,93.0391 1326.52,92.9707 1328.68,92.903 1330.84,92.8359 1333,92.7695 1335.16,92.7037 1337.32,92.6386 1339.48,92.574 1341.64,92.5102 1343.81,92.4469 1345.97,92.3842 1348.13,92.3222 1350.29,92.2607 1352.45,92.1998 1354.61,92.1395 1356.77,92.0798 1358.93,92.0206 1361.09,91.962 1363.25,91.9039 1365.41,91.8464 1367.57,91.7893 1369.73,91.7329 1371.89,91.6769 1374.05,91.6215 1376.21,91.5666 1378.37,91.5122 1380.53,91.4583 1382.69,91.405 1384.85,91.3521 1387.01,91.2998 1389.18,91.248 1391.34,91.1966 1393.5,91.1458 1395.66,91.0954 1397.82,91.0455 1399.98,90.9961 1402.14,90.9472 1404.3,90.8988 1406.46,90.8508 1408.62,90.8034 1410.78,90.7563 1412.94,90.7098 1415.1,90.6637 1417.26,90.618 1419.42,90.5728 1421.58,90.5281 1423.74,90.4838 1425.9,90.4399 1428.06,90.3965 1430.22,90.3535 1432.39,90.3109 1434.55,90.2688 1436.71,90.2271 1438.87,90.1858 1441.03,90.1449 1443.19,90.1044 1445.35,90.0644 1447.51,90.0248 1449.67,89.9855 1451.83,89.9467 1453.99,89.9082 1456.15,89.8702 1458.31,89.8325 1460.47,89.7953 1462.63,89.7584 1464.79,89.7219 1466.95,89.6858 1469.11,89.65 1471.27,89.6146 1473.43,89.5796 1475.6,89.5449 1477.76,89.5106 1479.92,89.4767 1482.08,89.4431 1484.24,89.4099 1486.4,89.377 1488.56,89.3445 1490.72,89.3123 1492.88,89.2804 1495.04,89.2489 1497.2,89.2177 1499.36,89.1868 1501.52,89.1563 1503.68,89.126 1505.84,89.0961 1508,89.0665 1510.16,89.0372 1512.32,89.0083 1514.48,88.9796 1516.64,88.9512 1518.81,88.9232 1520.97,88.8954 1523.13,88.8679 1525.29,88.8407 1527.45,88.8138 1529.61,88.7872 1531.77,88.7609 1533.93,88.7348 1536.09,88.709 1538.25,88.6835 1540.41,88.6583 1542.57,88.6333 1544.73,88.6086 1546.89,88.5841 1549.05,88.5599 1551.21,88.5359 1553.37,88.5122 1555.53,88.4888 1557.69,88.4655 1559.85,88.4426 1562.01,88.4198 1564.18,88.3973 1566.34,88.375 1568.5,88.353 1570.66,88.3312 1572.82,88.3096 1574.98,88.2882 1577.14,88.267 1579.3,88.2461 1581.46,88.2253 1583.62,88.2048 1585.78,88.1844 1587.94,88.1643 1590.1,88.1444 1592.26,88.1246 1594.42,88.1051 1596.58,88.0857 1598.74,88.0666 1600.9,88.0476 1603.06,88.0288 1605.22,88.0101 1607.39,87.9917 1609.55,87.9734 1611.71,87.9553 1613.87,87.9374 1616.03,87.9196 1618.19,87.902 1620.35,87.8845 1622.51,87.8672 1624.67,87.85 1626.83,87.833 1628.99,87.8162 1631.15,87.7994 1633.31,87.7829 1635.47,87.7664 1637.63,87.7501 1639.79,87.734 1641.95,87.7179 1644.11,87.702 1646.27,87.6862 1648.43,87.6706 1650.6,87.6551 1652.76,87.6398 1654.92,87.6246 1657.08,87.6095 1659.24,87.5945 1661.4,87.5797 1663.56,87.565 1665.72,87.5505 1667.88,87.5361 1670.04,87.5218 1672.2,87.5076 1674.36,87.4936 1676.52,87.4797 1678.68,87.4659 1680.84,87.4523 1683,87.4388 1685.16,87.4254 1687.32,87.4122 1689.48,87.399 1691.64,87.386 1693.81,87.3731 1695.97,87.3604 1698.13,87.3477 1700.29,87.3352 1702.45,87.3228 1704.61,87.3106 1706.77,87.2984 1708.93,87.2864 1711.09,87.2745 1713.25,87.2627 1715.41,87.251 1717.57,87.2395 1719.73,87.228 1721.89,87.2167 1724.05,87.2055 1726.21,87.1944 1728.37,87.1834 1730.53,87.1725 1732.69,87.1618 1734.85,87.1511 1737.02,87.1406 1739.18,87.1301 1741.34,87.1198 1743.5,87.1096 1745.66,87.0995 1747.82,87.0895 1749.98,87.0796 1752.14,87.0698 1754.3,87.0601 1756.46,87.0505 1758.62,87.0411 1760.78,87.0317 1762.94,87.0224 1765.1,87.0132 1767.26,87.0042 1769.42,86.9952 1771.58,86.9863 1773.74,86.9775 1775.9,86.9688 1778.06,86.9602 1780.22,86.9518 1782.39,86.9434 1784.55,86.935 1786.71,86.9268 1788.87,86.9187 1791.03,86.9107 1793.19,86.9027 1795.35,86.8949 1797.51,86.8871 1799.67,86.8794 1801.83,86.8719 1803.99,86.8644 1806.15,86.8569 1808.31,86.8496 1810.47,86.8424 1812.63,86.8352 1814.79,86.8281 1816.95,86.8211 1819.11,86.8142 1821.27,86.8074 1823.43,86.8006 1825.6,86.7939 1827.76,86.7873 1829.92,86.7808 1832.08,86.7743 1834.24,86.7679 1836.4,86.7616 1838.56,86.7554 1840.72,86.7492 1842.88,86.7431 1845.04,86.7371 1847.2,86.7311 1849.36,86.7253 1851.52,86.7194 1853.68,86.7137 1855.84,86.708 1858,86.7024 1860.16,86.6968 1862.32,86.6913 1864.48,86.6859 1866.64,86.6805 1868.81,86.6752 1870.97,86.67 1873.13,86.6648 1875.29,86.6597 1877.45,86.6546 1879.61,86.6496 1881.77,86.6446 1883.93,86.6397 1886.09,86.6348 1888.25,86.63 1890.41,86.6253 1892.57,86.6206 1894.73,86.6159 1896.89,86.6113 1899.05,86.6068 1901.21,86.6023 1903.37,86.5978 1905.53,86.5934 1907.69,86.589 1909.85,86.5847 1912.02,86.5804 1914.18,86.5761 1916.34,86.5719 1918.5,86.5678 1920.66,86.5636 1922.82,86.5595 1924.98,86.5555 1927.14,86.5515 1929.3,86.5475 1931.46,86.5435 1933.62,86.5396 1935.78,86.5357 1937.94,86.5318 1940.1,86.528 1942.26,86.5242 1944.42,86.5204 1946.58,86.5167 1948.74,86.513 1950.9,86.5093 1953.06,86.5056 1955.22,86.5019 1957.39,86.4983 1959.55,86.4947 1961.71,86.4911 1963.87,86.4875 1966.03,86.484 1968.19,86.4804 1970.35,86.4769 1972.51,86.4734 1974.67,86.4699 1976.83,86.4664 1978.99,86.463 1981.15,86.4596 1983.31,86.4562 1985.47,86.4528 1987.63,86.4495 1989.79,86.4462 1991.95,86.4429 1994.11,86.4396 1996.27,86.4364 1998.43,86.4332 2000.6,86.43 2002.76,86.4269 2004.92,86.4238 2007.08,86.4207 2009.24,86.4176 2011.4,86.4146 2013.56,86.4116 2015.72,86.4086 2017.88,86.4056 2020.04,86.4027 2022.2,86.3998 2024.36,86.3969 2026.52,86.394 2028.68,86.3912 2030.84,86.3884 2033,86.3856 2035.16,86.3829 2037.32,86.3801 2039.48,86.3774 2041.64,86.3747 2043.81,86.3721 2045.97,86.3695 2048.13,86.3669 2050.29,86.3643 2052.45,86.3617 2054.61,86.3592 2056.77,86.3567 2058.93,86.3542 2061.09,86.3518 2063.25,86.3494 2065.41,86.347 2067.57,86.3446 2069.73,86.3422 2071.89,86.3399 2074.05,86.3376 2076.21,86.3353 2078.37,86.3331 2080.53,86.3308 2082.69,86.3286 2084.85,86.3264 2087.02,86.3243 2089.18,86.3221 2091.34,86.32 2093.5,86.3179 2095.66,86.3159 2097.82,86.3138 2099.98,86.3118 2102.14,86.3098 2104.3,86.3078 2106.46,86.3059 2108.62,86.3039 2110.78,86.302 2112.94,86.3001 2115.1,86.2983 2117.26,86.2964 2119.42,86.2946 2121.58,86.2928 2123.74,86.291 2125.9,86.2892 2128.06,86.2875 2130.22,86.2858 2132.39,86.2841 2134.55,86.2824 2136.71,86.2808 2138.87,86.2791 2141.03,86.2775 2143.19,86.2759 2145.35,86.2743 2147.51,86.2728 2149.67,86.2712 2151.83,86.2697 2153.99,86.2682 2156.15,86.2667 2158.31,86.2653 2160.47,86.2638 2162.63,86.2624 2164.79,86.261 2166.95,86.2596 2169.11,86.2582 2171.27,86.2569 2173.43,86.2556 2175.6,86.2542 2177.76,86.2529 2179.92,86.2517 2182.08,86.2504 2184.24,86.2491 2186.4,86.2479 2188.56,86.2467 2190.72,86.2455 2192.88,86.2443 2195.04,86.2431 2197.2,86.242 2199.36,86.2409 2201.52,86.2397 2203.68,86.2386 2205.84,86.2375 2208,86.2365 2210.16,86.2354 2212.32,86.2344 2214.48,86.2333 2216.64,86.2323 2218.81,86.2313 2220.97,86.2303 2223.13,86.2293 2225.29,86.2284 2227.45,86.2274 2229.61,86.2265 2231.77,86.2255 2233.93,86.2246 2236.09,86.2237 2238.25,86.2228 2240.41,86.2219 2242.57,86.2211 2244.73,86.2202 2246.89,86.2193 2249.05,86.2185 2251.21,86.2177 2253.37,86.2169 2255.53,86.216 2257.69,86.2152 2259.85,86.2145 2262.02,86.2137 2264.18,86.2129 2266.34,86.2121 2268.5,86.2114 2270.66,86.2106 2272.82,86.2099 2274.98,86.2092 2277.14,86.2084 2279.3,86.2077 2281.46,86.207 2283.62,86.2063 2285.78,86.2056 2287.94,86.2049 2290.1,86.2042 2292.26,86.2036 2294.42,86.2029 2296.58,86.2022 2298.74,86.2015 2300.9,86.2009 2303.06,86.2002 2305.23,86.1996 2307.39,86.1989 2309.55,86.1983 2311.71,86.1976 2313.87,86.197 2316.03,86.1964 2318.19,86.1957 2320.35,86.1951 2322.51,86.1945 2324.67,86.1938 2326.83,86.1932 2328.99,86.1926 2331.15,86.192 2333.31,86.1913 2335.47,86.1907 2337.63,86.1901 2339.79,86.1895 2341.95,86.1888 2344.11,86.1882 2346.27,86.1876 2348.43,86.1869 2350.6,86.1863 2352.76,86.1857 "/>
<polyline clip-path="url(#clip352)" style="stroke:#e26f46; stroke-linecap:round; stroke-linejoin:round; stroke-width:4; stroke-opacity:1; fill:none" points="194.422,1145.89 196.583,1137.71 198.743,1129.6 200.904,1121.56 203.064,1113.58 205.225,1105.67 207.385,1097.82 209.546,1090.03 211.706,1082.31 213.867,1074.66 216.027,1067.06 218.188,1059.53 220.348,1052.06 222.509,1044.65 224.669,1037.3 226.83,1030.01 228.99,1022.78 231.151,1015.61 233.311,1008.5 235.471,1001.45 237.632,994.452 239.792,987.513 241.953,980.63 244.113,973.803 246.274,967.032 248.434,960.316 250.595,953.654 252.755,947.047 254.916,940.493 257.076,933.992 259.237,927.544 261.397,921.148 263.558,914.804 265.718,908.512 267.879,902.27 270.039,896.079 272.2,889.938 274.36,883.846 276.521,877.804 278.681,871.81 280.842,865.865 283.002,859.968 285.163,854.119 287.323,848.316 289.484,842.56 291.644,836.851 293.805,831.188 295.965,825.57 298.126,819.997 300.286,814.469 302.447,808.986 304.607,803.546 306.768,798.15 308.928,792.798 311.089,787.488 313.249,782.221 315.41,776.996 317.57,771.812 319.731,766.671 321.891,761.57 324.052,756.51 326.212,751.49 328.373,746.511 330.533,741.571 332.694,736.671 334.854,731.809 337.015,726.987 339.175,722.203 341.336,717.457 343.496,712.748 345.657,708.077 347.817,703.443 349.978,698.847 352.138,694.286 354.299,689.762 356.459,685.273 358.62,680.821 360.78,676.403 362.941,672.021 365.101,667.673 367.262,663.359 369.422,659.08 371.583,654.835 373.743,650.623 375.904,646.444 378.064,642.298 380.225,638.185 382.385,634.105 384.546,630.056 386.706,626.04 388.867,622.055 391.027,618.101 393.188,614.179 395.348,610.287 397.509,606.426 399.669,602.595 401.83,598.794 403.99,595.023 406.151,591.282 408.311,587.57 410.472,583.887 412.632,580.233 414.793,576.607 416.953,573.01 419.114,569.441 421.274,565.899 423.435,562.386 425.595,558.899 427.755,555.44 429.916,552.008 432.076,548.603 434.237,545.224 436.397,541.872 438.558,538.545 440.718,535.245 442.879,531.97 445.039,528.72 447.2,525.496 449.36,522.297 451.521,519.123 453.681,515.973 455.842,512.848 458.002,509.747 460.163,506.67 462.323,503.617 464.484,500.587 466.644,497.581 468.805,494.598 470.965,491.638 473.126,488.701 475.286,485.786 477.447,482.894 479.607,480.025 481.768,477.177 483.928,474.351 486.089,471.548 488.249,468.765 490.41,466.004 492.57,463.264 494.731,460.546 496.891,457.848 499.052,455.171 501.212,452.514 503.373,449.878 505.533,447.261 507.694,444.665 509.854,442.089 512.015,439.532 514.175,436.995 516.336,434.477 518.496,431.979 520.657,429.499 522.817,427.039 524.978,424.597 527.138,422.174 529.299,419.769 531.459,417.383 533.62,415.014 535.78,412.664 537.941,410.332 540.101,408.017 542.262,405.72 544.422,403.44 546.583,401.178 548.743,398.933 550.904,396.705 553.064,394.494 555.225,392.299 557.385,390.121 559.546,387.96 561.706,385.815 563.867,383.686 566.027,381.574 568.188,379.477 570.348,377.396 572.509,375.331 574.669,373.281 576.83,371.247 578.99,369.228 581.151,367.225 583.311,365.236 585.472,363.262 587.632,361.304 589.793,359.36 591.953,357.43 594.114,355.515 596.274,353.615 598.435,351.728 600.595,349.856 602.756,347.998 604.916,346.153 607.077,344.323 609.237,342.506 611.398,340.703 613.558,338.913 615.718,337.136 617.879,335.373 620.039,333.623 622.2,331.886 624.36,330.162 626.521,328.45 628.681,326.752 630.842,325.066 633.002,323.392 635.163,321.731 637.323,320.082 639.484,318.446 641.644,316.821 643.805,315.209 645.965,313.608 648.126,312.02 650.286,310.443 652.447,308.878 654.607,307.324 656.768,305.782 658.928,304.252 661.089,302.732 663.249,301.224 665.41,299.727 667.57,298.241 669.731,296.766 671.891,295.302 674.052,293.849 676.212,292.406 678.373,290.974 680.533,289.553 682.694,288.142 684.854,286.741 687.015,285.351 689.175,283.971 691.336,282.601 693.496,281.241 695.657,279.892 697.817,278.552 699.978,277.221 702.138,275.901 704.299,274.59 706.459,273.289 708.62,271.998 710.78,270.716 712.941,269.443 715.101,268.179 717.262,266.925 719.422,265.68 721.583,264.444 723.743,263.217 725.904,261.999 728.064,260.79 730.225,259.59 732.385,258.398 734.546,257.215 736.706,256.04 738.867,254.875 741.027,253.717 743.188,252.568 745.348,251.427 747.509,250.295 749.669,249.171 751.83,248.054 753.99,246.946 756.151,245.846 758.311,244.754 760.472,243.67 762.632,242.593 764.793,241.525 766.953,240.464 769.114,239.41 771.274,238.365 773.435,237.326 775.595,236.296 777.756,235.272 779.916,234.256 782.077,233.247 784.237,232.246 786.398,231.251 788.558,230.264 790.719,229.284 792.879,228.311 795.04,227.344 797.2,226.385 799.361,225.433 801.521,224.487 803.681,223.548 805.842,222.616 808.002,221.691 810.163,220.772 812.323,219.86 814.484,218.954 816.644,218.055 818.805,217.162 820.965,216.276 823.126,215.396 825.286,214.522 827.447,213.654 829.607,212.793 831.768,211.938 833.928,211.089 836.089,210.245 838.249,209.408 840.41,208.577 842.57,207.752 844.731,206.933 846.891,206.119 849.052,205.312 851.212,204.51 853.373,203.714 855.533,202.923 857.694,202.138 859.854,201.358 862.015,200.585 864.175,199.816 866.336,199.053 868.496,198.296 870.657,197.543 872.817,196.797 874.978,196.055 877.138,195.319 879.299,194.587 881.459,193.861 883.62,193.14 885.78,192.425 887.941,191.714 890.101,191.008 892.262,190.307 894.422,189.611 896.583,188.92 898.743,188.234 900.904,187.553 903.064,186.876 905.225,186.204 907.385,185.537 909.546,184.875 911.706,184.217 913.867,183.564 916.027,182.915 918.188,182.271 920.348,181.631 922.509,180.996 924.669,180.365 926.83,179.738 928.99,179.116 931.151,178.499 933.311,177.885 935.472,177.276 937.632,176.671 939.793,176.07 941.953,175.474 944.114,174.881 946.274,174.293 948.435,173.708 950.595,173.128 952.756,172.552 954.916,171.979 957.077,171.411 959.237,170.846 961.398,170.286 963.558,169.729 965.719,169.176 967.879,168.627 970.04,168.082 972.2,167.541 974.361,167.003 976.521,166.469 978.682,165.939 980.842,165.412 983.003,164.889 985.163,164.37 987.324,163.854 989.484,163.342 991.645,162.833 993.805,162.328 995.965,161.827 998.126,161.328 1000.29,160.834 1002.45,160.342 1004.61,159.854 1006.77,159.37 1008.93,158.888 1011.09,158.411 1013.25,157.936 1015.41,157.465 1017.57,156.996 1019.73,156.532 1021.89,156.07 1024.05,155.611 1026.21,155.156 1028.37,154.704 1030.53,154.255 1032.69,153.809 1034.85,153.366 1037.01,152.926 1039.18,152.489 1041.34,152.055 1043.5,151.624 1045.66,151.196 1047.82,150.771 1049.98,150.349 1052.14,149.929 1054.3,149.513 1056.46,149.1 1058.62,148.689 1060.78,148.281 1062.94,147.876 1065.1,147.473 1067.26,147.074 1069.42,146.677 1071.58,146.283 1073.74,145.891 1075.9,145.502 1078.06,145.116 1080.22,144.732 1082.39,144.352 1084.55,143.973 1086.71,143.597 1088.87,143.224 1091.03,142.853 1093.19,142.485 1095.35,142.119 1097.51,141.756 1099.67,141.395 1101.83,141.037 1103.99,140.681 1106.15,140.327 1108.31,139.976 1110.47,139.627 1112.63,139.28 1114.79,138.936 1116.95,138.594 1119.11,138.255 1121.27,137.917 1123.43,137.582 1125.6,137.249 1127.76,136.919 1129.92,136.59 1132.08,136.264 1134.24,135.94 1136.4,135.618 1138.56,135.298 1140.72,134.981 1142.88,134.665 1145.04,134.352 1147.2,134.04 1149.36,133.731 1151.52,133.424 1153.68,133.119 1155.84,132.816 1158,132.515 1160.16,132.215 1162.32,131.918 1164.48,131.623 1166.64,131.33 1168.81,131.039 1170.97,130.75 1173.13,130.462 1175.29,130.177 1177.45,129.893 1179.61,129.612 1181.77,129.332 1183.93,129.054 1186.09,128.778 1188.25,128.504 1190.41,128.231 1192.57,127.961 1194.73,127.692 1196.89,127.425 1199.05,127.16 1201.21,126.897 1203.37,126.635 1205.53,126.375 1207.69,126.117 1209.85,125.861 1212.01,125.606 1214.18,125.353 1216.34,125.101 1218.5,124.852 1220.66,124.604 1222.82,124.358 1224.98,124.113 1227.14,123.87 1229.3,123.628 1231.46,123.389 1233.62,123.15 1235.78,122.914 1237.94,122.679 1240.1,122.445 1242.26,122.213 1244.42,121.983 1246.58,121.754 1248.74,121.527 1250.9,121.301 1253.06,121.077 1255.22,120.854 1257.39,120.632 1259.55,120.412 1261.71,120.194 1263.87,119.977 1266.03,119.762 1268.19,119.547 1270.35,119.335 1272.51,119.123 1274.67,118.914 1276.83,118.705 1278.99,118.498 1281.15,118.292 1283.31,118.088 1285.47,117.885 1287.63,117.683 1289.79,117.483 1291.95,117.284 1294.11,117.086 1296.27,116.89 1298.43,116.695 1300.6,116.501 1302.76,116.308 1304.92,116.117 1307.08,115.927 1309.24,115.738 1311.4,115.55 1313.56,115.364 1315.72,115.179 1317.88,114.995 1320.04,114.812 1322.2,114.631 1324.36,114.45 1326.52,114.271 1328.68,114.093 1330.84,113.916 1333,113.741 1335.16,113.566 1337.32,113.393 1339.48,113.22 1341.64,113.049 1343.81,112.879 1345.97,112.71 1348.13,112.542 1350.29,112.375 1352.45,112.209 1354.61,112.045 1356.77,111.881 1358.93,111.719 1361.09,111.557 1363.25,111.396 1365.41,111.237 1367.57,111.079 1369.73,110.921 1371.89,110.765 1374.05,110.609 1376.21,110.455 1378.37,110.301 1380.53,110.149 1382.69,109.997 1384.85,109.847 1387.01,109.697 1389.18,109.548 1391.34,109.401 1393.5,109.254 1395.66,109.108 1397.82,108.963 1399.98,108.819 1402.14,108.676 1404.3,108.534 1406.46,108.393 1408.62,108.253 1410.78,108.114 1412.94,107.975 1415.1,107.838 1417.26,107.701 1419.42,107.565 1421.58,107.43 1423.74,107.296 1425.9,107.163 1428.06,107.031 1430.22,106.899 1432.39,106.769 1434.55,106.639 1436.71,106.51 1438.87,106.382 1441.03,106.255 1443.19,106.128 1445.35,106.002 1447.51,105.878 1449.67,105.754 1451.83,105.63 1453.99,105.508 1456.15,105.386 1458.31,105.266 1460.47,105.146 1462.63,105.026 1464.79,104.908 1466.95,104.79 1469.11,104.673 1471.27,104.557 1473.43,104.442 1475.6,104.327 1477.76,104.213 1479.92,104.1 1482.08,103.987 1484.24,103.876 1486.4,103.765 1488.56,103.654 1490.72,103.545 1492.88,103.436 1495.04,103.328 1497.2,103.22 1499.36,103.113 1501.52,103.007 1503.68,102.902 1505.84,102.797 1508,102.693 1510.16,102.59 1512.32,102.487 1514.48,102.385 1516.64,102.284 1518.81,102.183 1520.97,102.083 1523.13,101.984 1525.29,101.885 1527.45,101.787 1529.61,101.689 1531.77,101.592 1533.93,101.496 1536.09,101.401 1538.25,101.306 1540.41,101.211 1542.57,101.117 1544.73,101.024 1546.89,100.932 1549.05,100.84 1551.21,100.748 1553.37,100.658 1555.53,100.567 1557.69,100.478 1559.85,100.389 1562.01,100.3 1564.18,100.212 1566.34,100.125 1568.5,100.038 1570.66,99.9516 1572.82,99.8659 1574.98,99.7807 1577.14,99.6961 1579.3,99.612 1581.46,99.5284 1583.62,99.4454 1585.78,99.3629 1587.94,99.2809 1590.1,99.1994 1592.26,99.1185 1594.42,99.038 1596.58,98.9581 1598.74,98.8787 1600.9,98.7997 1603.06,98.7213 1605.22,98.6433 1607.39,98.5659 1609.55,98.4889 1611.71,98.4124 1613.87,98.3364 1616.03,98.2608 1618.19,98.1857 1620.35,98.1111 1622.51,98.037 1624.67,97.9633 1626.83,97.89 1628.99,97.8172 1631.15,97.7449 1633.31,97.673 1635.47,97.6015 1637.63,97.5305 1639.79,97.4599 1641.95,97.3897 1644.11,97.32 1646.27,97.2507 1648.43,97.1818 1650.6,97.1134 1652.76,97.0453 1654.92,96.9777 1657.08,96.9105 1659.24,96.8437 1661.4,96.7773 1663.56,96.7113 1665.72,96.6458 1667.88,96.5806 1670.04,96.5158 1672.2,96.4515 1674.36,96.3875 1676.52,96.324 1678.68,96.2608 1680.84,96.198 1683,96.1356 1685.16,96.0736 1687.32,96.012 1689.48,95.9508 1691.64,95.8899 1693.81,95.8295 1695.97,95.7694 1698.13,95.7097 1700.29,95.6503 1702.45,95.5914 1704.61,95.5328 1706.77,95.4745 1708.93,95.4166 1711.09,95.3591 1713.25,95.302 1715.41,95.2452 1717.57,95.1888 1719.73,95.1327 1721.89,95.077 1724.05,95.0216 1726.21,94.9666 1728.37,94.9119 1730.53,94.8576 1732.69,94.8036 1734.85,94.75 1737.02,94.6967 1739.18,94.6437 1741.34,94.5911 1743.5,94.5388 1745.66,94.4868 1747.82,94.4352 1749.98,94.3839 1752.14,94.3329 1754.3,94.2823 1756.46,94.2319 1758.62,94.1819 1760.78,94.1322 1762.94,94.0829 1765.1,94.0338 1767.26,93.985 1769.42,93.9366 1771.58,93.8885 1773.74,93.8406 1775.9,93.7931 1778.06,93.7459 1780.22,93.699 1782.39,93.6524 1784.55,93.606 1786.71,93.56 1788.87,93.5143 1791.03,93.4688 1793.19,93.4237 1795.35,93.3788 1797.51,93.3343 1799.67,93.29 1801.83,93.246 1803.99,93.2022 1806.15,93.1588 1808.31,93.1156 1810.47,93.0727 1812.63,93.0301 1814.79,92.9878 1816.95,92.9457 1819.11,92.9039 1821.27,92.8623 1823.43,92.8211 1825.6,92.78 1827.76,92.7393 1829.92,92.6988 1832.08,92.6586 1834.24,92.6186 1836.4,92.5789 1838.56,92.5394 1840.72,92.5002 1842.88,92.4612 1845.04,92.4225 1847.2,92.384 1849.36,92.3458 1851.52,92.3078 1853.68,92.27 1855.84,92.2325 1858,92.1952 1860.16,92.1582 1862.32,92.1214 1864.48,92.0848 1866.64,92.0485 1868.81,92.0124 1870.97,91.9765 1873.13,91.9408 1875.29,91.9054 1877.45,91.8702 1879.61,91.8352 1881.77,91.8004 1883.93,91.7659 1886.09,91.7316 1888.25,91.6974 1890.41,91.6635 1892.57,91.6298 1894.73,91.5963 1896.89,91.563 1899.05,91.53 1901.21,91.4971 1903.37,91.4644 1905.53,91.432 1907.69,91.3997 1909.85,91.3676 1912.02,91.3358 1914.18,91.3041 1916.34,91.2726 1918.5,91.2413 1920.66,91.2102 1922.82,91.1793 1924.98,91.1486 1927.14,91.1181 1929.3,91.0877 1931.46,91.0576 1933.62,91.0276 1935.78,90.9978 1937.94,90.9681 1940.1,90.9387 1942.26,90.9094 1944.42,90.8803 1946.58,90.8514 1948.74,90.8226 1950.9,90.7941 1953.06,90.7656 1955.22,90.7374 1957.39,90.7093 1959.55,90.6814 1961.71,90.6536 1963.87,90.626 1966.03,90.5986 1968.19,90.5713 1970.35,90.5442 1972.51,90.5172 1974.67,90.4904 1976.83,90.4638 1978.99,90.4373 1981.15,90.4109 1983.31,90.3847 1985.47,90.3587 1987.63,90.3328 1989.79,90.3071 1991.95,90.2815 1994.11,90.2561 1996.27,90.2309 1998.43,90.2058 2000.6,90.1808 2002.76,90.156 2004.92,90.1313 2007.08,90.1068 2009.24,90.0824 2011.4,90.0582 2013.56,90.0341 2015.72,90.0102 2017.88,89.9864 2020.04,89.9628 2022.2,89.9393 2024.36,89.9159 2026.52,89.8927 2028.68,89.8696 2030.84,89.8467 2033,89.8239 2035.16,89.8013 2037.32,89.7788 2039.48,89.7564 2041.64,89.7341 2043.81,89.712 2045.97,89.6901 2048.13,89.6682 2050.29,89.6465 2052.45,89.625 2054.61,89.6035 2056.77,89.5822 2058.93,89.561 2061.09,89.54 2063.25,89.5191 2065.41,89.4983 2067.57,89.4777 2069.73,89.4571 2071.89,89.4367 2074.05,89.4165 2076.21,89.3963 2078.37,89.3763 2080.53,89.3564 2082.69,89.3366 2084.85,89.317 2087.02,89.2975 2089.18,89.2781 2091.34,89.2588 2093.5,89.2396 2095.66,89.2206 2097.82,89.2017 2099.98,89.1829 2102.14,89.1642 2104.3,89.1456 2106.46,89.1271 2108.62,89.1088 2110.78,89.0906 2112.94,89.0725 2115.1,89.0545 2117.26,89.0366 2119.42,89.0188 2121.58,89.0012 2123.74,88.9836 2125.9,88.9662 2128.06,88.9489 2130.22,88.9317 2132.39,88.9146 2134.55,88.8976 2136.71,88.8807 2138.87,88.8639 2141.03,88.8472 2143.19,88.8307 2145.35,88.8142 2147.51,88.7978 2149.67,88.7816 2151.83,88.7654 2153.99,88.7494 2156.15,88.7334 2158.31,88.7176 2160.47,88.7018 2162.63,88.6862 2164.79,88.6706 2166.95,88.6552 2169.11,88.6398 2171.27,88.6246 2173.43,88.6094 2175.6,88.5943 2177.76,88.5794 2179.92,88.5645 2182.08,88.5497 2184.24,88.535 2186.4,88.5204 2188.56,88.506 2190.72,88.4915 2192.88,88.4772 2195.04,88.463 2197.2,88.4489 2199.36,88.4348 2201.52,88.4209 2203.68,88.407 2205.84,88.3932 2208,88.3795 2210.16,88.3659 2212.32,88.3524 2214.48,88.339 2216.64,88.3256 2218.81,88.3123 2220.97,88.2991 2223.13,88.286 2225.29,88.273 2227.45,88.2601 2229.61,88.2472 2231.77,88.2345 2233.93,88.2218 2236.09,88.2091 2238.25,88.1966 2240.41,88.1841 2242.57,88.1718 2244.73,88.1594 2246.89,88.1472 2249.05,88.1351 2251.21,88.123 2253.37,88.111 2255.53,88.099 2257.69,88.0872 2259.85,88.0754 2262.02,88.0637 2264.18,88.0521 2266.34,88.0405 2268.5,88.029 2270.66,88.0176 2272.82,88.0062 2274.98,87.9949 2277.14,87.9837 2279.3,87.9725 2281.46,87.9615 2283.62,87.9504 2285.78,87.9395 2287.94,87.9286 2290.1,87.9178 2292.26,87.907 2294.42,87.8963 2296.58,87.8857 2298.74,87.8751 2300.9,87.8646 2303.06,87.8542 2305.23,87.8438 2307.39,87.8335 2309.55,87.8232 2311.71,87.813 2313.87,87.8029 2316.03,87.7928 2318.19,87.7828 2320.35,87.7728 2322.51,87.7629 2324.67,87.753 2326.83,87.7432 2328.99,87.7335 2331.15,87.7238 2333.31,87.7141 2335.47,87.7046 2337.63,87.695 2339.79,87.6856 2341.95,87.6761 2344.11,87.6668 2346.27,87.6574 2348.43,87.6482 2350.6,87.639 2352.76,87.6298 "/>
<path clip-path="url(#clip350)" d="M1805.58 1377.32 L2280.81 1377.32 L2280.81 1221.8 L1805.58 1221.8  Z" fill="#ffffff" fill-rule="evenodd" fill-opacity="1"/>
<polyline clip-path="url(#clip350)" style="stroke:#000000; stroke-linecap:round; stroke-linejoin:round; stroke-width:4; stroke-opacity:1; fill:none" points="1805.58,1377.32 2280.81,1377.32 2280.81,1221.8 1805.58,1221.8 1805.58,1377.32 "/>
<polyline clip-path="url(#clip350)" style="stroke:#009af9; stroke-linecap:round; stroke-linejoin:round; stroke-width:4; stroke-opacity:1; fill:none" points="1829.56,1273.64 1973.45,1273.64 "/>
<path clip-path="url(#clip350)" d="M1997.43 1264.99 L2001.95 1264.99 L2010.05 1286.75 L2018.15 1264.99 L2022.66 1264.99 L2012.94 1290.92 L2007.16 1290.92 L1997.43 1264.99 Z" fill="#000000" fill-rule="nonzero" fill-opacity="1" /><path clip-path="url(#clip350)" d="M2029.96 1286.98 L2037.6 1286.98 L2037.6 1260.61 L2029.28 1262.28 L2029.28 1258.02 L2037.55 1256.36 L2042.22 1256.36 L2042.22 1286.98 L2049.86 1286.98 L2049.86 1290.92 L2029.96 1290.92 L2029.96 1286.98 Z" fill="#000000" fill-rule="nonzero" fill-opacity="1" /><path clip-path="url(#clip350)" d="M2067.97 1274.27 L2067.97 1281.49 L2076.09 1281.49 L2076.09 1283.69 L2067.97 1283.69 L2067.97 1290.92 L2065.53 1290.92 L2065.53 1283.69 L2057.41 1283.69 L2057.41 1281.49 L2065.53 1281.49 L2065.53 1274.27 L2067.97 1274.27 Z" fill="#000000" fill-rule="nonzero" fill-opacity="1" /><path clip-path="url(#clip350)" d="M2100.26 1265.75 L2100.26 1269.78 Q2098.45 1268.86 2096.51 1268.39 Q2094.56 1267.93 2092.48 1267.93 Q2089.31 1267.93 2087.71 1268.9 Q2086.14 1269.87 2086.14 1271.82 Q2086.14 1273.3 2087.27 1274.16 Q2088.4 1274.99 2091.83 1275.75 L2093.29 1276.08 Q2097.83 1277.05 2099.72 1278.83 Q2101.65 1280.59 2101.65 1283.76 Q2101.65 1287.37 2098.78 1289.48 Q2095.93 1291.59 2090.93 1291.59 Q2088.84 1291.59 2086.58 1291.17 Q2084.33 1290.78 2081.83 1289.97 L2081.83 1285.57 Q2084.19 1286.79 2086.48 1287.42 Q2088.78 1288.02 2091.02 1288.02 Q2094.03 1288.02 2095.65 1287 Q2097.27 1285.96 2097.27 1284.09 Q2097.27 1282.35 2096.09 1281.42 Q2094.93 1280.5 2090.97 1279.64 L2089.49 1279.3 Q2085.53 1278.46 2083.78 1276.75 Q2082.02 1275.01 2082.02 1272 Q2082.02 1268.35 2084.61 1266.36 Q2087.2 1264.36 2091.97 1264.36 Q2094.33 1264.36 2096.41 1264.71 Q2098.5 1265.06 2100.26 1265.75 Z" fill="#000000" fill-rule="nonzero" fill-opacity="1" /><path clip-path="url(#clip350)" d="M2112.64 1257.63 L2112.64 1264.99 L2121.41 1264.99 L2121.41 1268.3 L2112.64 1268.3 L2112.64 1282.37 Q2112.64 1285.54 2113.5 1286.45 Q2114.38 1287.35 2117.04 1287.35 L2121.41 1287.35 L2121.41 1290.92 L2117.04 1290.92 Q2112.11 1290.92 2110.23 1289.09 Q2108.36 1287.23 2108.36 1282.37 L2108.36 1268.3 L2105.23 1268.3 L2105.23 1264.99 L2108.36 1264.99 L2108.36 1257.63 L2112.64 1257.63 Z" fill="#000000" fill-rule="nonzero" fill-opacity="1" /><path clip-path="url(#clip350)" d="M2137.06 1267.98 Q2133.64 1267.98 2131.65 1270.66 Q2129.65 1273.32 2129.65 1277.98 Q2129.65 1282.63 2131.62 1285.31 Q2133.61 1287.98 2137.06 1287.98 Q2140.46 1287.98 2142.46 1285.29 Q2144.45 1282.61 2144.45 1277.98 Q2144.45 1273.37 2142.46 1270.68 Q2140.46 1267.98 2137.06 1267.98 M2137.06 1264.36 Q2142.62 1264.36 2145.79 1267.98 Q2148.96 1271.59 2148.96 1277.98 Q2148.96 1284.34 2145.79 1287.98 Q2142.62 1291.59 2137.06 1291.59 Q2131.48 1291.59 2128.31 1287.98 Q2125.16 1284.34 2125.16 1277.98 Q2125.16 1271.59 2128.31 1267.98 Q2131.48 1264.36 2137.06 1264.36 Z" fill="#000000" fill-rule="nonzero" fill-opacity="1" /><path clip-path="url(#clip350)" d="M2171.04 1268.97 Q2170.33 1268.55 2169.47 1268.37 Q2168.64 1268.16 2167.62 1268.16 Q2164.01 1268.16 2162.06 1270.52 Q2160.14 1272.86 2160.14 1277.26 L2160.14 1290.92 L2155.86 1290.92 L2155.86 1264.99 L2160.14 1264.99 L2160.14 1269.02 Q2161.48 1266.66 2163.64 1265.52 Q2165.79 1264.36 2168.87 1264.36 Q2169.31 1264.36 2169.84 1264.43 Q2170.37 1264.48 2171.02 1264.6 L2171.04 1268.97 Z" fill="#000000" fill-rule="nonzero" fill-opacity="1" /><path clip-path="url(#clip350)" d="M2187.29 1277.88 Q2182.13 1277.88 2180.14 1279.06 Q2178.15 1280.24 2178.15 1283.09 Q2178.15 1285.36 2179.63 1286.7 Q2181.14 1288.02 2183.71 1288.02 Q2187.25 1288.02 2189.38 1285.52 Q2191.53 1283 2191.53 1278.83 L2191.53 1277.88 L2187.29 1277.88 M2195.79 1276.12 L2195.79 1290.92 L2191.53 1290.92 L2191.53 1286.98 Q2190.07 1289.34 2187.9 1290.48 Q2185.72 1291.59 2182.57 1291.59 Q2178.59 1291.59 2176.23 1289.36 Q2173.89 1287.12 2173.89 1283.37 Q2173.89 1278.99 2176.81 1276.77 Q2179.75 1274.55 2185.56 1274.55 L2191.53 1274.55 L2191.53 1274.13 Q2191.53 1271.19 2189.58 1269.6 Q2187.66 1267.98 2184.17 1267.98 Q2181.95 1267.98 2179.84 1268.51 Q2177.73 1269.04 2175.79 1270.11 L2175.79 1266.17 Q2178.13 1265.27 2180.33 1264.83 Q2182.52 1264.36 2184.61 1264.36 Q2190.23 1264.36 2193.01 1267.28 Q2195.79 1270.2 2195.79 1276.12 Z" fill="#000000" fill-rule="nonzero" fill-opacity="1" /><path clip-path="url(#clip350)" d="M2221.62 1277.65 Q2221.62 1273.02 2219.7 1270.48 Q2217.8 1267.93 2214.35 1267.93 Q2210.93 1267.93 2209.01 1270.48 Q2207.11 1273.02 2207.11 1277.65 Q2207.11 1282.26 2209.01 1284.8 Q2210.93 1287.35 2214.35 1287.35 Q2217.8 1287.35 2219.7 1284.8 Q2221.62 1282.26 2221.62 1277.65 M2225.88 1287.7 Q2225.88 1294.32 2222.94 1297.54 Q2220 1300.78 2213.94 1300.78 Q2211.69 1300.78 2209.7 1300.43 Q2207.71 1300.11 2205.83 1299.41 L2205.83 1295.27 Q2207.71 1296.29 2209.54 1296.77 Q2211.37 1297.26 2213.27 1297.26 Q2217.46 1297.26 2219.54 1295.06 Q2221.62 1292.88 2221.62 1288.46 L2221.62 1286.36 Q2220.3 1288.65 2218.24 1289.78 Q2216.18 1290.92 2213.31 1290.92 Q2208.54 1290.92 2205.63 1287.28 Q2202.71 1283.65 2202.71 1277.65 Q2202.71 1271.63 2205.63 1268 Q2208.54 1264.36 2213.31 1264.36 Q2216.18 1264.36 2218.24 1265.5 Q2220.3 1266.63 2221.62 1268.92 L2221.62 1264.99 L2225.88 1264.99 L2225.88 1287.7 Z" fill="#000000" fill-rule="nonzero" fill-opacity="1" /><path clip-path="url(#clip350)" d="M2256.83 1276.89 L2256.83 1278.97 L2237.25 1278.97 Q2237.52 1283.37 2239.89 1285.68 Q2242.27 1287.98 2246.51 1287.98 Q2248.96 1287.98 2251.25 1287.37 Q2253.57 1286.77 2255.83 1285.57 L2255.83 1289.6 Q2253.54 1290.57 2251.14 1291.08 Q2248.73 1291.59 2246.25 1291.59 Q2240.05 1291.59 2236.41 1287.98 Q2232.8 1284.36 2232.8 1278.21 Q2232.8 1271.84 2236.23 1268.11 Q2239.68 1264.36 2245.51 1264.36 Q2250.74 1264.36 2253.77 1267.74 Q2256.83 1271.1 2256.83 1276.89 M2252.57 1275.64 Q2252.52 1272.14 2250.6 1270.06 Q2248.71 1267.98 2245.56 1267.98 Q2241.99 1267.98 2239.84 1269.99 Q2237.71 1272 2237.39 1275.66 L2252.57 1275.64 Z" fill="#000000" fill-rule="nonzero" fill-opacity="1" /><polyline clip-path="url(#clip350)" style="stroke:#e26f46; stroke-linecap:round; stroke-linejoin:round; stroke-width:4; stroke-opacity:1; fill:none" points="1829.56,1325.48 1973.45,1325.48 "/>
<path clip-path="url(#clip350)" d="M1997.43 1316.83 L2001.95 1316.83 L2010.05 1338.59 L2018.15 1316.83 L2022.66 1316.83 L2012.94 1342.76 L2007.16 1342.76 L1997.43 1316.83 Z" fill="#000000" fill-rule="nonzero" fill-opacity="1" /><path clip-path="url(#clip350)" d="M2029.19 1308.2 L2047.55 1308.2 L2047.55 1312.13 L2033.47 1312.13 L2033.47 1320.6 Q2034.49 1320.26 2035.51 1320.09 Q2036.53 1319.91 2037.55 1319.91 Q2043.34 1319.91 2046.72 1323.08 Q2050.09 1326.25 2050.09 1331.67 Q2050.09 1337.25 2046.62 1340.35 Q2043.15 1343.43 2036.83 1343.43 Q2034.66 1343.43 2032.39 1343.06 Q2030.14 1342.69 2027.73 1341.95 L2027.73 1337.25 Q2029.82 1338.38 2032.04 1338.94 Q2034.26 1339.49 2036.74 1339.49 Q2040.74 1339.49 2043.08 1337.38 Q2045.42 1335.28 2045.42 1331.67 Q2045.42 1328.06 2043.08 1325.95 Q2040.74 1323.84 2036.74 1323.84 Q2034.86 1323.84 2032.99 1324.26 Q2031.14 1324.68 2029.19 1325.56 L2029.19 1308.2 Z" fill="#000000" fill-rule="nonzero" fill-opacity="1" /><path clip-path="url(#clip350)" d="M2067.97 1326.11 L2067.97 1333.33 L2076.09 1333.33 L2076.09 1335.53 L2067.97 1335.53 L2067.97 1342.76 L2065.53 1342.76 L2065.53 1335.53 L2057.41 1335.53 L2057.41 1333.33 L2065.53 1333.33 L2065.53 1326.11 L2067.97 1326.11 Z" fill="#000000" fill-rule="nonzero" fill-opacity="1" /><path clip-path="url(#clip350)" d="M2100.26 1317.59 L2100.26 1321.62 Q2098.45 1320.7 2096.51 1320.23 Q2094.56 1319.77 2092.48 1319.77 Q2089.31 1319.77 2087.71 1320.74 Q2086.14 1321.71 2086.14 1323.66 Q2086.14 1325.14 2087.27 1326 Q2088.4 1326.83 2091.83 1327.59 L2093.29 1327.92 Q2097.83 1328.89 2099.72 1330.67 Q2101.65 1332.43 2101.65 1335.6 Q2101.65 1339.21 2098.78 1341.32 Q2095.93 1343.43 2090.93 1343.43 Q2088.84 1343.43 2086.58 1343.01 Q2084.33 1342.62 2081.83 1341.81 L2081.83 1337.41 Q2084.19 1338.63 2086.48 1339.26 Q2088.78 1339.86 2091.02 1339.86 Q2094.03 1339.86 2095.65 1338.84 Q2097.27 1337.8 2097.27 1335.93 Q2097.27 1334.19 2096.09 1333.26 Q2094.93 1332.34 2090.97 1331.48 L2089.49 1331.14 Q2085.53 1330.3 2083.78 1328.59 Q2082.02 1326.85 2082.02 1323.84 Q2082.02 1320.19 2084.61 1318.2 Q2087.2 1316.2 2091.97 1316.2 Q2094.33 1316.2 2096.41 1316.55 Q2098.5 1316.9 2100.26 1317.59 Z" fill="#000000" fill-rule="nonzero" fill-opacity="1" /><path clip-path="url(#clip350)" d="M2112.64 1309.47 L2112.64 1316.83 L2121.41 1316.83 L2121.41 1320.14 L2112.64 1320.14 L2112.64 1334.21 Q2112.64 1337.38 2113.5 1338.29 Q2114.38 1339.19 2117.04 1339.19 L2121.41 1339.19 L2121.41 1342.76 L2117.04 1342.76 Q2112.11 1342.76 2110.23 1340.93 Q2108.36 1339.07 2108.36 1334.21 L2108.36 1320.14 L2105.23 1320.14 L2105.23 1316.83 L2108.36 1316.83 L2108.36 1309.47 L2112.64 1309.47 Z" fill="#000000" fill-rule="nonzero" fill-opacity="1" /><path clip-path="url(#clip350)" d="M2137.06 1319.82 Q2133.64 1319.82 2131.65 1322.5 Q2129.65 1325.16 2129.65 1329.82 Q2129.65 1334.47 2131.62 1337.15 Q2133.61 1339.82 2137.06 1339.82 Q2140.46 1339.82 2142.46 1337.13 Q2144.45 1334.45 2144.45 1329.82 Q2144.45 1325.21 2142.46 1322.52 Q2140.46 1319.82 2137.06 1319.82 M2137.06 1316.2 Q2142.62 1316.2 2145.79 1319.82 Q2148.96 1323.43 2148.96 1329.82 Q2148.96 1336.18 2145.79 1339.82 Q2142.62 1343.43 2137.06 1343.43 Q2131.48 1343.43 2128.31 1339.82 Q2125.16 1336.18 2125.16 1329.82 Q2125.16 1323.43 2128.31 1319.82 Q2131.48 1316.2 2137.06 1316.2 Z" fill="#000000" fill-rule="nonzero" fill-opacity="1" /><path clip-path="url(#clip350)" d="M2171.04 1320.81 Q2170.33 1320.39 2169.47 1320.21 Q2168.64 1320 2167.62 1320 Q2164.01 1320 2162.06 1322.36 Q2160.14 1324.7 2160.14 1329.1 L2160.14 1342.76 L2155.86 1342.76 L2155.86 1316.83 L2160.14 1316.83 L2160.14 1320.86 Q2161.48 1318.5 2163.64 1317.36 Q2165.79 1316.2 2168.87 1316.2 Q2169.31 1316.2 2169.84 1316.27 Q2170.37 1316.32 2171.02 1316.44 L2171.04 1320.81 Z" fill="#000000" fill-rule="nonzero" fill-opacity="1" /><path clip-path="url(#clip350)" d="M2187.29 1329.72 Q2182.13 1329.72 2180.14 1330.9 Q2178.15 1332.08 2178.15 1334.93 Q2178.15 1337.2 2179.63 1338.54 Q2181.14 1339.86 2183.71 1339.86 Q2187.25 1339.86 2189.38 1337.36 Q2191.53 1334.84 2191.53 1330.67 L2191.53 1329.72 L2187.29 1329.72 M2195.79 1327.96 L2195.79 1342.76 L2191.53 1342.76 L2191.53 1338.82 Q2190.07 1341.18 2187.9 1342.32 Q2185.72 1343.43 2182.57 1343.43 Q2178.59 1343.43 2176.23 1341.2 Q2173.89 1338.96 2173.89 1335.21 Q2173.89 1330.83 2176.81 1328.61 Q2179.75 1326.39 2185.56 1326.39 L2191.53 1326.39 L2191.53 1325.97 Q2191.53 1323.03 2189.58 1321.44 Q2187.66 1319.82 2184.17 1319.82 Q2181.95 1319.82 2179.84 1320.35 Q2177.73 1320.88 2175.79 1321.95 L2175.79 1318.01 Q2178.13 1317.11 2180.33 1316.67 Q2182.52 1316.2 2184.61 1316.2 Q2190.23 1316.2 2193.01 1319.12 Q2195.79 1322.04 2195.79 1327.96 Z" fill="#000000" fill-rule="nonzero" fill-opacity="1" /><path clip-path="url(#clip350)" d="M2221.62 1329.49 Q2221.62 1324.86 2219.7 1322.32 Q2217.8 1319.77 2214.35 1319.77 Q2210.93 1319.77 2209.01 1322.32 Q2207.11 1324.86 2207.11 1329.49 Q2207.11 1334.1 2209.01 1336.64 Q2210.93 1339.19 2214.35 1339.19 Q2217.8 1339.19 2219.7 1336.64 Q2221.62 1334.1 2221.62 1329.49 M2225.88 1339.54 Q2225.88 1346.16 2222.94 1349.38 Q2220 1352.62 2213.94 1352.62 Q2211.69 1352.62 2209.7 1352.27 Q2207.71 1351.95 2205.83 1351.25 L2205.83 1347.11 Q2207.71 1348.13 2209.54 1348.61 Q2211.37 1349.1 2213.27 1349.1 Q2217.46 1349.1 2219.54 1346.9 Q2221.62 1344.72 2221.62 1340.3 L2221.62 1338.2 Q2220.3 1340.49 2218.24 1341.62 Q2216.18 1342.76 2213.31 1342.76 Q2208.54 1342.76 2205.63 1339.12 Q2202.71 1335.49 2202.71 1329.49 Q2202.71 1323.47 2205.63 1319.84 Q2208.54 1316.2 2213.31 1316.2 Q2216.18 1316.2 2218.24 1317.34 Q2220.3 1318.47 2221.62 1320.76 L2221.62 1316.83 L2225.88 1316.83 L2225.88 1339.54 Z" fill="#000000" fill-rule="nonzero" fill-opacity="1" /><path clip-path="url(#clip350)" d="M2256.83 1328.73 L2256.83 1330.81 L2237.25 1330.81 Q2237.52 1335.21 2239.89 1337.52 Q2242.27 1339.82 2246.51 1339.82 Q2248.96 1339.82 2251.25 1339.21 Q2253.57 1338.61 2255.83 1337.41 L2255.83 1341.44 Q2253.54 1342.41 2251.14 1342.92 Q2248.73 1343.43 2246.25 1343.43 Q2240.05 1343.43 2236.41 1339.82 Q2232.8 1336.2 2232.8 1330.05 Q2232.8 1323.68 2236.23 1319.95 Q2239.68 1316.2 2245.51 1316.2 Q2250.74 1316.2 2253.77 1319.58 Q2256.83 1322.94 2256.83 1328.73 M2252.57 1327.48 Q2252.52 1323.98 2250.6 1321.9 Q2248.71 1319.82 2245.56 1319.82 Q2241.99 1319.82 2239.84 1321.83 Q2237.71 1323.84 2237.39 1327.5 L2252.57 1327.48 Z" fill="#000000" fill-rule="nonzero" fill-opacity="1" /></svg>
